<?xml version="1.0" encoding="utf-8"?>
<!-- Generator: Adobe Illustrator 26.3.1, SVG Export Plug-In . SVG Version: 6.00 Build 0)  -->
<svg version="1.1" id="圖層_1" xmlns="http://www.w3.org/2000/svg" xmlns:xlink="http://www.w3.org/1999/xlink" x="0px" y="0px"
	 width="350px" height="44px" viewBox="0 0 350 44" style="enable-background:new 0 0 350 44;" xml:space="preserve">
<style type="text/css">
	.st0{fill:#1F333D;}
</style>
<g>
	<g id="adi_logo-H-standard-CN_x2B_EN_00000152239382355769855650000015781431180807841706_">
		<g>
			<path class="st0" d="M8,21.6c0-6.6,5.4-12,12-12l4.6,0V1.5c-3.7,0-4.7-0.2-8.5,0.5c0,0-0.1,0-0.1,0C6.9,3.8,0,11.9,0,21.6
				c0,11,9,20.1,20,20.1h20.2V1.5h-7.8v32.2l-12.4,0C13.4,33.6,8,28.2,8,21.6z"/>
			<path class="st0" d="M15.7,21.8c0,2.6,1.9,4.3,4.5,4.3h4.5v-8.9h-4.3C17.8,17.1,15.7,19.2,15.7,21.8z"/>
			<rect x="44.7" y="16" class="st0" width="9" height="25.8"/>
			<polygon class="st0" points="44.8,1.5 52.6,1.5 52.6,3.8 47,3.8 47,8.2 52.6,8.2 52.6,10.4 44.8,10.4 			"/>
			<polygon class="st0" points="55.9,4.8 48.1,4.8 48.1,7 53.7,7 53.7,11.5 48.1,11.5 48.1,13.7 55.9,13.7 			"/>
		</g>
	</g>
	<g>
		<path class="st0" d="M65.6,5.5V4.2h1.6v1.3h3.9v2.7h1.1v1.5h-1.1v2.7h-3.9v1.3h4.3v4h-4.6c-0.3,0.5-0.5,0.9-0.7,1.3h5.4v1.1
			c-0.7,1.2-1.8,2.3-3.1,3.2c1.2,0.5,2.4,1.1,3.7,1.8l-1,1.2c-1.4-0.8-2.8-1.5-4.2-2.1c-1.6,0.9-3.5,1.7-5.7,2.3l-1-1.3
			c1.9-0.5,3.5-1.1,4.9-1.7c-1-0.4-2.1-0.7-3.1-1c0.5-0.7,1-1.4,1.4-2.2h-3.1v-1.4h4c0.2-0.5,0.5-0.9,0.8-1.3h-3.8v-4h4.2v-1.3h-3.9
			V9.7h-1.1V8.3h1.1V5.5H65.6z M65.6,15h-2.7v1.6h2.7V15z M65.6,8.4V6.8h-2.4v1.6H65.6z M65.6,9.6h-2.4v1.6h2.4V9.6z M69.7,20.5
			h-4.3c-0.3,0.5-0.6,1.1-0.9,1.5c0.8,0.2,1.6,0.5,2.5,0.8C68.1,22.1,69,21.3,69.7,20.5z M69.6,8.4V6.8h-2.4v1.6H69.6z M69.6,9.6
			h-2.4v1.6h2.4V9.6z M70,15h-2.7v1.6H70V15z M74.1,13.8c-0.4,0.8-0.8,1.5-1.2,2.2l-1.1-1.4C73.3,12,74.2,8.5,74.8,4l1.7,0.3
			c-0.2,1.3-0.4,2.5-0.6,3.6h6.5v1.7h-1.7c-0.1,4.4-1,8.1-2.5,11.1c1.2,1.8,2.7,3.3,4.6,4.5l-1.1,1.4c-1.8-1.2-3.3-2.7-4.4-4.3
			c-1.1,1.7-2.5,3.1-4.1,4.3l-1-1.5c1.7-1.1,3-2.6,4.1-4.3C75.2,18.7,74.4,16.4,74.1,13.8z M74.2,13.7l1.4-0.4
			c0.2,2.2,0.8,4.1,1.6,5.8c1.1-2.6,1.8-5.7,1.9-9.4h-3.6C75.1,11.1,74.7,12.5,74.2,13.7z"/>
		<path class="st0" d="M92,4.8c-0.6,1.9-1.4,3.7-2.4,5.4v16.5h-1.8V12.9C87,14,86.2,15,85.2,16l-0.6-1.9c2.6-2.9,4.5-6.3,5.7-10.1
			L92,4.8z M99.8,23.8c1.2-3.3,2.3-7.4,3.3-12.3l1.7,0.4c-0.9,4.5-1.9,8.4-3.1,11.9h5.6v1.7H91.4v-1.7H99.8z M98.4,8.2
			c-0.3-1.3-0.8-2.5-1.2-3.6l1.9-0.3c0.4,1.1,0.8,2.4,1.1,3.9h6.4v1.7H91.8V8.2H98.4z M97.4,22.5L95.8,23c-0.7-3.7-1.5-7.3-2.5-10.8
			l1.6-0.5C95.8,14.9,96.7,18.5,97.4,22.5z"/>
		<path class="st0" d="M114.9,9.4c1.2-0.8,2.2-1.7,3-2.7h-6.7V5.2h8.7v1.3c-1,1.8-2.5,3.3-4.5,4.6h3.6v5.6h-5.5l-0.4,2.7h6
			c0,2.9-0.1,4.8-0.4,5.7c-0.3,1-1.4,1.5-3.4,1.5c-0.9,0-1.8,0-2.7-0.1l-0.4-1.5c0.9,0,1.8,0.1,2.8,0.1c1.3,0,2-0.3,2.2-0.8
			c0.2-0.5,0.3-1.7,0.3-3.4h-6.1l0.8-5.7h5.3v-2.6h-5.1c-0.6,0.2-1.3,0.5-1.9,0.7l-1.1-1.4c1.6-0.5,3-1.1,4.3-1.7
			c-0.8-0.6-1.7-1.3-2.7-2l1.3-0.8C113.2,8.1,114.1,8.8,114.9,9.4z M127.9,5c-0.6,0.7-1.1,1.2-1.7,1.6c-0.4,0.3-0.9,0.6-1.5,0.9
			c0.5,0.4,1,0.8,1.5,1.1c0.6-0.3,1.2-0.6,1.7-1c0.6-0.5,1.2-1,1.7-1.6l1.2,0.8c-0.6,0.8-1.2,1.4-1.9,1.9c-0.4,0.3-0.8,0.6-1.3,0.9
			c1.2,0.7,2.6,1.3,4.1,1.8l-1.2,1.4c-1-0.4-1.8-0.8-2.6-1.2v2.3c0,0.5,0.3,0.8,0.9,0.8h1.4v1.4h-1.8c-1.3,0-2-0.6-2-1.8v-1.7h-3.6
			c0,0.9-0.1,1.7-0.4,2.3c-0.3,0.6-0.9,1.2-1.8,1.8l-1.2-1.1c0.8-0.6,1.3-1.2,1.6-1.8c0.2-0.6,0.3-1.5,0.3-2.7h5.7
			c-2.8-1.6-4.9-3.5-6.2-5.6l1.4-0.8c0.4,0.7,0.9,1.3,1.5,1.9c0.5-0.2,1.1-0.5,1.5-0.9c0.6-0.4,1.1-0.9,1.5-1.4L127.9,5z
			 M129.1,17.4v1.5c-0.5,1.5-1.3,2.8-2.3,3.9c1.5,0.9,2.9,1.8,4.1,2.7l-1.2,1.2c-1.1-0.9-2.5-1.9-4.1-2.8c-1.4,1.1-3.1,2.1-5,2.7
			l-0.7-1.5c1.6-0.5,3-1.2,4.2-2.1c-1.1-0.6-2.3-1.3-3.5-1.9l1.1-1c1.3,0.6,2.5,1.3,3.6,1.9c0.9-0.9,1.6-1.9,2.1-3h-6.8v-1.6H129.1z
			"/>
		<path class="st0" d="M134.9,26.6l-1.3-1.2c1.6-3.2,2.4-7.3,2.4-12.3V5.2h18.4V11h-16.6v2.6h4.4v-2h1.7v2h4.9v-1.9h1.7v1.9h4.1v1.6
			h-4.1v2.5h4.9v1.6h-13.3v5.4c1.5-0.4,2.8-0.8,3.9-1.3l0.3,1.6c-1.8,0.6-3.9,1.1-6.4,1.6l-0.5-1.5c0.6-0.2,0.9-0.6,0.9-1.2v-4.6
			h-3.2C136.8,22,136,24.4,134.9,26.6z M137.5,17.7h4.8v-2.5h-4.5C137.7,16,137.6,16.9,137.5,17.7z M137.8,6.8v2.6h14.8V6.8H137.8z
			 M148.9,17.7v-2.5H144v2.5H148.9z M154.3,20.6c-1,1.3-2,2.3-3.2,3.1c1.5,0.8,3.2,1.3,5,1.5l-0.4,1.6c-4.2-0.4-7.7-2.5-10.3-6.1
			l1.2-0.9c0.9,1.2,1.9,2.2,3,2.9c1.2-0.7,2.4-1.8,3.5-3.4L154.3,20.6z"/>
		<path class="st0" d="M163.6,6.7c-0.3-0.8-0.5-1.6-0.8-2.3l1.8-0.3c0.2,0.8,0.5,1.6,0.8,2.6h5v1.7h-1.2c-0.5,1.9-1.1,3.5-1.7,5h3.1
			v1.7h-12.1v-1.7h3.1c-0.4-1.8-0.9-3.4-1.4-5h-1.3V6.7H163.6z M169.3,26.6h-1.7v-1.3h-6.1v1.3h-1.7v-9.2h9.5V26.6z M167.6,23.6
			v-4.5h-6.1v4.5H167.6z M167.4,8.4h-5.6c0.5,1.4,1,3.1,1.4,5h2.6C166.4,11.8,166.9,10.1,167.4,8.4z M179.9,5.2v1.3
			c-0.8,2.6-1.7,5-2.6,7.2c1.9,2.4,2.9,4.4,2.9,5.9c0,1.4-0.3,2.4-1,3c-0.7,0.6-2.1,0.9-4.1,0.9l-0.5-1.9c0.7,0.1,1.2,0.1,1.7,0.1
			c0.9,0,1.5-0.2,1.8-0.5c0.2-0.3,0.4-0.8,0.4-1.6c0-1.5-1.1-3.4-3.1-5.9c0.9-2,1.8-4.2,2.6-6.9h-4.5v19.8h-1.7V5.2H179.9z"/>
	</g>
	<g>
		<path class="st0" d="M65,37.6h-3.6l-0.7,1.8h-1.1l3-8.1h1.2l2.9,8.1h-1.1L65,37.6z M64.7,36.7l-1.5-4.1l-1.5,4.1H64.7z"/>
		<path class="st0" d="M68.1,34.4c0.3-0.5,0.6-0.9,1.1-1.2c0.5-0.3,1-0.4,1.6-0.4c0.5,0,1,0.1,1.4,0.3c0.4,0.2,0.8,0.5,1,0.9v-3.4
			h1.1v8.7h-1.1v-1.2c-0.2,0.4-0.5,0.7-0.9,0.9c-0.4,0.2-0.9,0.4-1.5,0.4c-0.6,0-1.1-0.1-1.6-0.4c-0.5-0.3-0.8-0.7-1.1-1.2
			c-0.3-0.5-0.4-1.1-0.4-1.7C67.7,35.5,67.8,34.9,68.1,34.4z M72.8,34.9c-0.2-0.4-0.5-0.6-0.8-0.8c-0.3-0.2-0.7-0.3-1.1-0.3
			c-0.4,0-0.8,0.1-1.1,0.3c-0.3,0.2-0.6,0.5-0.8,0.8c-0.2,0.4-0.3,0.8-0.3,1.3c0,0.5,0.1,0.9,0.3,1.3c0.2,0.4,0.5,0.6,0.8,0.8
			c0.3,0.2,0.7,0.3,1.1,0.3c0.4,0,0.8-0.1,1.1-0.3c0.3-0.2,0.6-0.5,0.8-0.8c0.2-0.4,0.3-0.8,0.3-1.3C73.1,35.7,73,35.3,72.8,34.9z"
			/>
		<path class="st0" d="M85.1,33.2c0.4,0.2,0.7,0.5,0.9,0.9c0.2,0.4,0.3,0.9,0.3,1.5v3.8h-1.1v-3.6c0-0.6-0.2-1.1-0.5-1.5
			c-0.3-0.3-0.7-0.5-1.3-0.5c-0.6,0-1,0.2-1.3,0.5c-0.3,0.4-0.5,0.9-0.5,1.5v3.5h-1.1v-3.6c0-0.6-0.2-1.1-0.5-1.5
			c-0.3-0.3-0.7-0.5-1.3-0.5c-0.6,0-1,0.2-1.3,0.5c-0.3,0.4-0.5,0.9-0.5,1.5v3.5H76V33h1.1v0.9c0.2-0.3,0.5-0.6,0.8-0.8
			c0.4-0.2,0.7-0.3,1.2-0.3c0.5,0,1,0.1,1.4,0.4c0.4,0.2,0.7,0.6,0.9,1.1c0.2-0.5,0.5-0.8,0.9-1.1c0.4-0.3,0.9-0.4,1.4-0.4
			C84.2,32.8,84.7,33,85.1,33.2z"/>
		<path class="st0" d="M88.1,31.7c-0.1-0.1-0.2-0.3-0.2-0.5c0-0.2,0.1-0.4,0.2-0.5c0.1-0.1,0.3-0.2,0.5-0.2c0.2,0,0.4,0.1,0.5,0.2
			c0.1,0.1,0.2,0.3,0.2,0.5c0,0.2-0.1,0.4-0.2,0.5c-0.1,0.1-0.3,0.2-0.5,0.2C88.4,31.9,88.3,31.9,88.1,31.7z M89.2,33v6.4h-1.1V33
			H89.2z"/>
		<path class="st0" d="M96,33.6c0.5,0.5,0.7,1.2,0.7,2v3.8h-1.1v-3.6c0-0.6-0.2-1.1-0.5-1.5c-0.3-0.3-0.8-0.5-1.3-0.5
			c-0.6,0-1,0.2-1.3,0.5c-0.3,0.4-0.5,0.9-0.5,1.5v3.5H91V33H92v0.9c0.2-0.3,0.5-0.6,0.9-0.8c0.4-0.2,0.8-0.3,1.2-0.3
			C94.9,32.8,95.5,33.1,96,33.6z"/>
		<path class="st0" d="M98.5,31.7c-0.1-0.1-0.2-0.3-0.2-0.5c0-0.2,0.1-0.4,0.2-0.5c0.1-0.1,0.3-0.2,0.5-0.2c0.2,0,0.4,0.1,0.5,0.2
			c0.1,0.1,0.2,0.3,0.2,0.5c0,0.2-0.1,0.4-0.2,0.5c-0.1,0.1-0.3,0.2-0.5,0.2C98.8,31.9,98.6,31.9,98.5,31.7z M99.5,33v6.4h-1.1V33
			H99.5z"/>
		<path class="st0" d="M102.3,39.2c-0.4-0.2-0.7-0.4-0.9-0.7c-0.2-0.3-0.4-0.6-0.4-1h1.1c0,0.3,0.2,0.6,0.5,0.8
			c0.3,0.2,0.6,0.3,1.1,0.3c0.4,0,0.7-0.1,1-0.3c0.2-0.2,0.4-0.4,0.4-0.7c0-0.3-0.1-0.5-0.4-0.6c-0.3-0.1-0.6-0.3-1.2-0.4
			c-0.5-0.1-0.9-0.3-1.2-0.4c-0.3-0.1-0.6-0.3-0.8-0.6s-0.3-0.6-0.3-1c0-0.3,0.1-0.6,0.3-0.9s0.5-0.5,0.8-0.7
			c0.4-0.2,0.8-0.2,1.2-0.2c0.7,0,1.3,0.2,1.7,0.5c0.4,0.4,0.7,0.9,0.7,1.5h-1.1c0-0.3-0.2-0.6-0.4-0.8c-0.2-0.2-0.6-0.3-1-0.3
			c-0.4,0-0.7,0.1-0.9,0.2c-0.2,0.2-0.3,0.4-0.3,0.6c0,0.2,0.1,0.4,0.2,0.5c0.1,0.1,0.3,0.2,0.5,0.3c0.2,0.1,0.5,0.2,0.9,0.3
			c0.5,0.1,0.8,0.2,1.1,0.4c0.3,0.1,0.5,0.3,0.7,0.5c0.2,0.2,0.3,0.6,0.3,0.9c0,0.4-0.1,0.7-0.3,0.9c-0.2,0.3-0.5,0.5-0.8,0.7
			c-0.4,0.2-0.8,0.2-1.2,0.2C103.1,39.5,102.7,39.4,102.3,39.2z"/>
		<path class="st0" d="M108.8,33.8v3.8c0,0.3,0.1,0.5,0.2,0.7c0.1,0.1,0.4,0.2,0.7,0.2h0.8v0.9h-1c-0.6,0-1-0.1-1.3-0.4
			c-0.3-0.3-0.4-0.7-0.4-1.3v-3.8h-0.8V33h0.8v-1.6h1.1V33h1.7v0.9H108.8z"/>
		<path class="st0" d="M113.6,33.2c0.3-0.2,0.8-0.3,1.3-0.3V34h-0.3c-1.2,0-1.8,0.6-1.8,1.9v3.5h-1.1V33h1.1v1
			C113,33.6,113.3,33.4,113.6,33.2z"/>
		<path class="st0" d="M116.1,34.4c0.3-0.5,0.6-0.9,1.1-1.2c0.5-0.3,1-0.4,1.6-0.4c0.6,0,1.1,0.1,1.5,0.4c0.4,0.2,0.7,0.5,0.9,0.9
			V33h1.1v6.4h-1.1v-1.2c-0.2,0.4-0.5,0.7-0.9,0.9c-0.4,0.2-0.9,0.4-1.5,0.4c-0.6,0-1.1-0.1-1.5-0.4c-0.5-0.3-0.8-0.7-1.1-1.2
			c-0.3-0.5-0.4-1.1-0.4-1.7C115.7,35.5,115.8,34.9,116.1,34.4z M120.8,34.9c-0.2-0.4-0.5-0.6-0.8-0.8c-0.3-0.2-0.7-0.3-1.1-0.3
			c-0.4,0-0.8,0.1-1.1,0.3c-0.3,0.2-0.6,0.5-0.8,0.8c-0.2,0.4-0.3,0.8-0.3,1.3c0,0.5,0.1,0.9,0.3,1.3c0.2,0.4,0.5,0.6,0.8,0.8
			c0.3,0.2,0.7,0.3,1.1,0.3c0.4,0,0.8-0.1,1.1-0.3c0.3-0.2,0.6-0.5,0.8-0.8c0.2-0.4,0.3-0.8,0.3-1.3C121.1,35.7,121,35.3,120.8,34.9
			z"/>
		<path class="st0" d="M125.3,33.8v3.8c0,0.3,0.1,0.5,0.2,0.7c0.1,0.1,0.4,0.2,0.7,0.2h0.8v0.9h-1c-0.6,0-1-0.1-1.3-0.4
			c-0.3-0.3-0.4-0.7-0.4-1.3v-3.8h-0.8V33h0.8v-1.6h1.1V33h1.7v0.9H125.3z"/>
		<path class="st0" d="M128.3,31.7c-0.1-0.1-0.2-0.3-0.2-0.5c0-0.2,0.1-0.4,0.2-0.5c0.1-0.1,0.3-0.2,0.5-0.2c0.2,0,0.4,0.1,0.5,0.2
			c0.1,0.1,0.2,0.3,0.2,0.5c0,0.2-0.1,0.4-0.2,0.5c-0.1,0.1-0.3,0.2-0.5,0.2C128.6,31.9,128.5,31.9,128.3,31.7z M129.3,33v6.4h-1.1
			V33H129.3z"/>
		<path class="st0" d="M132.3,39.1c-0.5-0.3-0.9-0.7-1.1-1.2c-0.3-0.5-0.4-1.1-0.4-1.8c0-0.7,0.1-1.2,0.4-1.7s0.7-0.9,1.2-1.2
			c0.5-0.3,1-0.4,1.7-0.4c0.6,0,1.2,0.1,1.7,0.4c0.5,0.3,0.9,0.7,1.2,1.2c0.3,0.5,0.4,1.1,0.4,1.7s-0.1,1.2-0.4,1.8
			c-0.3,0.5-0.7,0.9-1.2,1.2c-0.5,0.3-1.1,0.4-1.7,0.4C133.4,39.5,132.8,39.4,132.3,39.1z M135,38.3c0.3-0.2,0.6-0.4,0.8-0.8
			s0.3-0.8,0.3-1.3s-0.1-1-0.3-1.3c-0.2-0.4-0.5-0.6-0.8-0.8c-0.3-0.2-0.7-0.3-1.1-0.3c-0.4,0-0.7,0.1-1.1,0.3
			c-0.3,0.2-0.6,0.4-0.8,0.8s-0.3,0.8-0.3,1.3c0,0.5,0.1,1,0.3,1.3c0.2,0.4,0.4,0.6,0.8,0.8c0.3,0.2,0.7,0.3,1.1,0.3
			C134.3,38.6,134.7,38.5,135,38.3z"/>
		<path class="st0" d="M143.7,33.6c0.5,0.5,0.7,1.2,0.7,2v3.8h-1.1v-3.6c0-0.6-0.2-1.1-0.5-1.5c-0.3-0.3-0.8-0.5-1.3-0.5
			c-0.6,0-1,0.2-1.3,0.5c-0.3,0.4-0.5,0.9-0.5,1.5v3.5h-1.1V33h1.1v0.9c0.2-0.3,0.5-0.6,0.9-0.8c0.4-0.2,0.8-0.3,1.2-0.3
			C142.6,32.8,143.2,33.1,143.7,33.6z"/>
		<path class="st0" d="M151.9,33.8h-1.3v5.5h-1.1v-5.5h-0.8V33h0.8v-0.5c0-0.7,0.2-1.2,0.6-1.6c0.4-0.3,1-0.5,1.8-0.5v0.9
			c-0.5,0-0.8,0.1-1,0.3c-0.2,0.2-0.3,0.5-0.3,0.9V33h1.3V33.8z"/>
		<path class="st0" d="M154.3,39.1c-0.5-0.3-0.9-0.7-1.1-1.2c-0.3-0.5-0.4-1.1-0.4-1.8c0-0.7,0.1-1.2,0.4-1.7s0.7-0.9,1.2-1.2
			s1-0.4,1.7-0.4c0.6,0,1.2,0.1,1.7,0.4c0.5,0.3,0.9,0.7,1.2,1.2c0.3,0.5,0.4,1.1,0.4,1.7s-0.1,1.2-0.4,1.8
			c-0.3,0.5-0.7,0.9-1.2,1.2s-1.1,0.4-1.7,0.4C155.3,39.5,154.8,39.4,154.3,39.1z M157,38.3c0.3-0.2,0.6-0.4,0.8-0.8
			s0.3-0.8,0.3-1.3s-0.1-1-0.3-1.3c-0.2-0.4-0.5-0.6-0.8-0.8c-0.3-0.2-0.7-0.3-1.1-0.3c-0.4,0-0.7,0.1-1.1,0.3
			c-0.3,0.2-0.6,0.4-0.8,0.8c-0.2,0.4-0.3,0.8-0.3,1.3c0,0.5,0.1,1,0.3,1.3c0.2,0.4,0.4,0.6,0.8,0.8c0.3,0.2,0.7,0.3,1.1,0.3
			C156.3,38.6,156.7,38.5,157,38.3z"/>
		<path class="st0" d="M162.5,33.2c0.3-0.2,0.8-0.3,1.3-0.3V34h-0.3c-1.2,0-1.8,0.6-1.8,1.9v3.5h-1.1V33h1.1v1
			C161.9,33.6,162.2,33.4,162.5,33.2z"/>
		<path class="st0" d="M173,31.7c0.7,0.3,1.2,0.8,1.5,1.4c0.3,0.6,0.5,1.3,0.5,2.2c0,0.8-0.2,1.6-0.5,2.2c-0.3,0.6-0.8,1.1-1.5,1.4
			c-0.7,0.3-1.4,0.5-2.3,0.5h-2.5v-8.2h2.5C171.6,31.2,172.3,31.4,173,31.7z M173.1,37.7c0.6-0.6,0.8-1.3,0.8-2.3
			c0-1-0.3-1.8-0.8-2.4c-0.6-0.6-1.4-0.9-2.4-0.9h-1.5v6.4h1.5C171.7,38.5,172.5,38.2,173.1,37.7z"/>
		<path class="st0" d="M176.5,31.7c-0.1-0.1-0.2-0.3-0.2-0.5c0-0.2,0.1-0.4,0.2-0.5c0.1-0.1,0.3-0.2,0.5-0.2c0.2,0,0.4,0.1,0.5,0.2
			c0.1,0.1,0.2,0.3,0.2,0.5c0,0.2-0.1,0.4-0.2,0.5c-0.1,0.1-0.3,0.2-0.5,0.2C176.8,31.9,176.6,31.9,176.5,31.7z M177.5,33v6.4h-1.1
			V33H177.5z"/>
		<path class="st0" d="M183.4,33.2c0.4,0.2,0.7,0.5,0.9,0.9V33h1.1v6.6c0,0.6-0.1,1.1-0.4,1.6c-0.2,0.5-0.6,0.8-1.1,1.1
			c-0.5,0.3-1,0.4-1.6,0.4c-0.8,0-1.5-0.2-2.1-0.6c-0.6-0.4-0.9-0.9-1-1.6h1.1c0.1,0.4,0.4,0.7,0.7,0.9c0.4,0.2,0.8,0.4,1.3,0.4
			c0.6,0,1.1-0.2,1.4-0.6c0.4-0.4,0.6-0.9,0.6-1.5v-1.3c-0.2,0.4-0.5,0.7-0.9,0.9c-0.4,0.2-0.9,0.4-1.5,0.4c-0.6,0-1.1-0.1-1.6-0.4
			c-0.5-0.3-0.8-0.7-1.1-1.2c-0.3-0.5-0.4-1.1-0.4-1.7c0-0.7,0.1-1.2,0.4-1.7c0.3-0.5,0.6-0.9,1.1-1.2c0.5-0.3,1-0.4,1.6-0.4
			C182.5,32.9,183,33,183.4,33.2z M184.1,34.9c-0.2-0.4-0.5-0.6-0.8-0.8c-0.3-0.2-0.7-0.3-1.1-0.3c-0.4,0-0.8,0.1-1.1,0.3
			c-0.3,0.2-0.6,0.5-0.8,0.8c-0.2,0.4-0.3,0.8-0.3,1.3c0,0.5,0.1,0.9,0.3,1.3c0.2,0.4,0.5,0.6,0.8,0.8c0.3,0.2,0.7,0.3,1.1,0.3
			c0.4,0,0.8-0.1,1.1-0.3c0.3-0.2,0.6-0.5,0.8-0.8c0.2-0.4,0.3-0.8,0.3-1.3C184.3,35.7,184.2,35.3,184.1,34.9z"/>
		<path class="st0" d="M187.3,31.7c-0.1-0.1-0.2-0.3-0.2-0.5c0-0.2,0.1-0.4,0.2-0.5c0.1-0.1,0.3-0.2,0.5-0.2c0.2,0,0.4,0.1,0.5,0.2
			c0.1,0.1,0.2,0.3,0.2,0.5c0,0.2-0.1,0.4-0.2,0.5c-0.1,0.1-0.3,0.2-0.5,0.2C187.6,31.9,187.4,31.9,187.3,31.7z M188.3,33v6.4h-1.1
			V33H188.3z"/>
		<path class="st0" d="M191.4,33.8v3.8c0,0.3,0.1,0.5,0.2,0.7c0.1,0.1,0.4,0.2,0.7,0.2h0.8v0.9h-1c-0.6,0-1-0.1-1.3-0.4
			c-0.3-0.3-0.4-0.7-0.4-1.3v-3.8h-0.8V33h0.8v-1.6h1.1V33h1.7v0.9H191.4z"/>
		<path class="st0" d="M194.4,34.4c0.3-0.5,0.6-0.9,1.1-1.2c0.5-0.3,1-0.4,1.6-0.4c0.6,0,1.1,0.1,1.5,0.4c0.4,0.2,0.7,0.5,0.9,0.9
			V33h1.1v6.4h-1.1v-1.2c-0.2,0.4-0.5,0.7-0.9,0.9c-0.4,0.2-0.9,0.4-1.5,0.4c-0.6,0-1.1-0.1-1.5-0.4c-0.5-0.3-0.8-0.7-1.1-1.2
			c-0.3-0.5-0.4-1.1-0.4-1.7C194,35.5,194.1,34.9,194.4,34.4z M199.1,34.9c-0.2-0.4-0.5-0.6-0.8-0.8c-0.3-0.2-0.7-0.3-1.1-0.3
			c-0.4,0-0.8,0.1-1.1,0.3c-0.3,0.2-0.6,0.5-0.8,0.8c-0.2,0.4-0.3,0.8-0.3,1.3c0,0.5,0.1,0.9,0.3,1.3c0.2,0.4,0.5,0.6,0.8,0.8
			c0.3,0.2,0.7,0.3,1.1,0.3c0.4,0,0.8-0.1,1.1-0.3c0.3-0.2,0.6-0.5,0.8-0.8c0.2-0.4,0.3-0.8,0.3-1.3
			C199.4,35.7,199.3,35.3,199.1,34.9z"/>
		<path class="st0" d="M203.4,30.7v8.7h-1.1v-8.7H203.4z"/>
		<path class="st0" d="M209.4,31.2v8.2h-1.1v-8.2H209.4z"/>
		<path class="st0" d="M216.2,33.6c0.5,0.5,0.7,1.2,0.7,2v3.8h-1.1v-3.6c0-0.6-0.2-1.1-0.5-1.5c-0.3-0.3-0.8-0.5-1.3-0.5
			c-0.6,0-1,0.2-1.3,0.5c-0.3,0.4-0.5,0.9-0.5,1.5v3.5h-1.1V33h1.1v0.9c0.2-0.3,0.5-0.6,0.9-0.8c0.4-0.2,0.8-0.3,1.2-0.3
			C215.1,32.8,215.7,33.1,216.2,33.6z"/>
		<path class="st0" d="M218.7,34.4c0.3-0.5,0.6-0.9,1.1-1.2c0.5-0.3,1-0.4,1.6-0.4c0.5,0,1,0.1,1.4,0.3c0.4,0.2,0.8,0.5,1,0.9v-3.4
			h1.1v8.7h-1.1v-1.2c-0.2,0.4-0.5,0.7-0.9,0.9c-0.4,0.2-0.9,0.4-1.5,0.4c-0.6,0-1.1-0.1-1.6-0.4c-0.5-0.3-0.8-0.7-1.1-1.2
			c-0.3-0.5-0.4-1.1-0.4-1.7C218.3,35.5,218.4,34.9,218.7,34.4z M223.4,34.9c-0.2-0.4-0.5-0.6-0.8-0.8c-0.3-0.2-0.7-0.3-1.1-0.3
			c-0.4,0-0.8,0.1-1.1,0.3c-0.3,0.2-0.6,0.5-0.8,0.8c-0.2,0.4-0.3,0.8-0.3,1.3c0,0.5,0.1,0.9,0.3,1.3c0.2,0.4,0.5,0.6,0.8,0.8
			c0.3,0.2,0.7,0.3,1.1,0.3c0.4,0,0.8-0.1,1.1-0.3c0.3-0.2,0.6-0.5,0.8-0.8c0.2-0.4,0.3-0.8,0.3-1.3
			C223.7,35.7,223.6,35.3,223.4,34.9z"/>
		<path class="st0" d="M232.3,33v6.4h-1.1v-0.9c-0.2,0.3-0.5,0.6-0.8,0.8c-0.4,0.2-0.8,0.3-1.2,0.3c-0.5,0-0.9-0.1-1.3-0.3
			c-0.4-0.2-0.7-0.5-0.9-0.9c-0.2-0.4-0.3-0.9-0.3-1.5V33h1.1v3.6c0,0.6,0.2,1.1,0.5,1.5c0.3,0.3,0.8,0.5,1.3,0.5
			c0.6,0,1-0.2,1.3-0.5c0.3-0.4,0.5-0.9,0.5-1.5V33H232.3z"/>
		<path class="st0" d="M235.1,39.2c-0.4-0.2-0.7-0.4-0.9-0.7s-0.4-0.6-0.4-1h1.1c0,0.3,0.2,0.6,0.5,0.8c0.3,0.2,0.6,0.3,1.1,0.3
			c0.4,0,0.7-0.1,1-0.3c0.2-0.2,0.4-0.4,0.4-0.7c0-0.3-0.1-0.5-0.4-0.6c-0.3-0.1-0.6-0.3-1.2-0.4c-0.5-0.1-0.9-0.3-1.2-0.4
			c-0.3-0.1-0.6-0.3-0.8-0.6c-0.2-0.3-0.3-0.6-0.3-1c0-0.3,0.1-0.6,0.3-0.9s0.5-0.5,0.8-0.7c0.4-0.2,0.8-0.2,1.2-0.2
			c0.7,0,1.3,0.2,1.7,0.5c0.4,0.4,0.7,0.9,0.7,1.5h-1.1c0-0.3-0.2-0.6-0.4-0.8c-0.2-0.2-0.6-0.3-1-0.3c-0.4,0-0.7,0.1-0.9,0.2
			s-0.3,0.4-0.3,0.6c0,0.2,0.1,0.4,0.2,0.5c0.1,0.1,0.3,0.2,0.5,0.3c0.2,0.1,0.5,0.2,0.9,0.3c0.5,0.1,0.8,0.2,1.1,0.4
			c0.3,0.1,0.5,0.3,0.7,0.5s0.3,0.6,0.3,0.9c0,0.4-0.1,0.7-0.3,0.9c-0.2,0.3-0.5,0.5-0.8,0.7c-0.4,0.2-0.8,0.2-1.2,0.2
			C235.9,39.5,235.4,39.4,235.1,39.2z"/>
		<path class="st0" d="M241.5,33.8v3.8c0,0.3,0.1,0.5,0.2,0.7c0.1,0.1,0.4,0.2,0.7,0.2h0.8v0.9h-1c-0.6,0-1-0.1-1.3-0.4
			c-0.3-0.3-0.4-0.7-0.4-1.3v-3.8h-0.8V33h0.8v-1.6h1.1V33h1.7v0.9H241.5z"/>
		<path class="st0" d="M246.4,33.2c0.3-0.2,0.8-0.3,1.3-0.3V34h-0.3c-1.2,0-1.8,0.6-1.8,1.9v3.5h-1.1V33h1.1v1
			C245.7,33.6,246,33.4,246.4,33.2z"/>
		<path class="st0" d="M248.9,31.7c-0.1-0.1-0.2-0.3-0.2-0.5c0-0.2,0.1-0.4,0.2-0.5c0.1-0.1,0.3-0.2,0.5-0.2c0.2,0,0.4,0.1,0.5,0.2
			c0.1,0.1,0.2,0.3,0.2,0.5c0,0.2-0.1,0.4-0.2,0.5c-0.1,0.1-0.3,0.2-0.5,0.2C249.2,31.9,249,31.9,248.9,31.7z M249.9,33v6.4h-1.1V33
			H249.9z"/>
		<path class="st0" d="M257.6,36.6h-5.1c0,0.6,0.3,1.1,0.7,1.5c0.4,0.4,0.9,0.5,1.4,0.5c0.5,0,0.8-0.1,1.2-0.3
			c0.3-0.2,0.5-0.5,0.7-0.9h1.1c-0.2,0.6-0.5,1.1-1,1.5c-0.5,0.4-1.2,0.6-1.9,0.6c-0.6,0-1.2-0.1-1.6-0.4s-0.9-0.7-1.1-1.2
			c-0.3-0.5-0.4-1.1-0.4-1.8s0.1-1.2,0.4-1.7c0.3-0.5,0.6-0.9,1.1-1.2c0.5-0.3,1-0.4,1.7-0.4c0.6,0,1.1,0.1,1.6,0.4
			c0.5,0.3,0.8,0.6,1.1,1.1c0.3,0.5,0.4,1,0.4,1.6C257.6,36.1,257.6,36.3,257.6,36.6z M256.2,34.7c-0.2-0.3-0.4-0.5-0.7-0.7
			c-0.3-0.2-0.7-0.2-1-0.2c-0.5,0-1,0.2-1.4,0.5c-0.4,0.3-0.6,0.8-0.7,1.4h4.1C256.5,35.3,256.4,35,256.2,34.7z"/>
		<path class="st0" d="M259.9,39.2c-0.4-0.2-0.7-0.4-0.9-0.7c-0.2-0.3-0.4-0.6-0.4-1h1.1c0,0.3,0.2,0.6,0.5,0.8
			c0.3,0.2,0.6,0.3,1.1,0.3c0.4,0,0.7-0.1,1-0.3c0.2-0.2,0.4-0.4,0.4-0.7c0-0.3-0.1-0.5-0.4-0.6c-0.3-0.1-0.6-0.3-1.2-0.4
			c-0.5-0.1-0.9-0.3-1.2-0.4c-0.3-0.1-0.6-0.3-0.8-0.6s-0.3-0.6-0.3-1c0-0.3,0.1-0.6,0.3-0.9s0.5-0.5,0.8-0.7
			c0.4-0.2,0.8-0.2,1.2-0.2c0.7,0,1.3,0.2,1.7,0.5c0.4,0.4,0.7,0.9,0.7,1.5h-1.1c0-0.3-0.2-0.6-0.4-0.8c-0.2-0.2-0.6-0.3-1-0.3
			c-0.4,0-0.7,0.1-0.9,0.2s-0.3,0.4-0.3,0.6c0,0.2,0.1,0.4,0.2,0.5c0.1,0.1,0.3,0.2,0.5,0.3c0.2,0.1,0.5,0.2,0.9,0.3
			c0.5,0.1,0.8,0.2,1.1,0.4c0.3,0.1,0.5,0.3,0.7,0.5c0.2,0.2,0.3,0.6,0.3,0.9c0,0.4-0.1,0.7-0.3,0.9c-0.2,0.3-0.5,0.5-0.8,0.7
			c-0.4,0.2-0.8,0.2-1.2,0.2C260.8,39.5,260.3,39.4,259.9,39.2z"/>
		<path class="st0" d="M266.2,37.9l-1.3,3.2h-0.7l0.9-3.2H266.2z"/>
		<path class="st0" d="M279.6,33.2c0.4,0.2,0.7,0.5,0.9,0.9c0.2,0.4,0.3,0.9,0.3,1.5v3.8h-1.1v-3.6c0-0.6-0.2-1.1-0.5-1.5
			c-0.3-0.3-0.7-0.5-1.3-0.5c-0.6,0-1,0.2-1.3,0.5c-0.3,0.4-0.5,0.9-0.5,1.5v3.5h-1.1v-3.6c0-0.6-0.2-1.1-0.5-1.5
			c-0.3-0.3-0.7-0.5-1.3-0.5c-0.6,0-1,0.2-1.3,0.5c-0.3,0.4-0.5,0.9-0.5,1.5v3.5h-1.1V33h1.1v0.9c0.2-0.3,0.5-0.6,0.8-0.8
			c0.4-0.2,0.7-0.3,1.2-0.3c0.5,0,1,0.1,1.4,0.4s0.7,0.6,0.9,1.1c0.2-0.5,0.5-0.8,0.9-1.1c0.4-0.3,0.9-0.4,1.4-0.4
			C278.8,32.8,279.2,33,279.6,33.2z"/>
		<path class="st0" d="M283.8,39.1c-0.5-0.3-0.9-0.7-1.1-1.2c-0.3-0.5-0.4-1.1-0.4-1.8c0-0.7,0.1-1.2,0.4-1.7s0.7-0.9,1.2-1.2
			c0.5-0.3,1-0.4,1.7-0.4c0.6,0,1.2,0.1,1.7,0.4c0.5,0.3,0.9,0.7,1.2,1.2c0.3,0.5,0.4,1.1,0.4,1.7s-0.1,1.2-0.4,1.8
			c-0.3,0.5-0.7,0.9-1.2,1.2c-0.5,0.3-1.1,0.4-1.7,0.4C284.8,39.5,284.3,39.4,283.8,39.1z M286.5,38.3c0.3-0.2,0.6-0.4,0.8-0.8
			c0.2-0.4,0.3-0.8,0.3-1.3s-0.1-1-0.3-1.3s-0.5-0.6-0.8-0.8c-0.3-0.2-0.7-0.3-1.1-0.3c-0.4,0-0.7,0.1-1.1,0.3
			c-0.3,0.2-0.6,0.4-0.8,0.8s-0.3,0.8-0.3,1.3c0,0.5,0.1,1,0.3,1.3c0.2,0.4,0.4,0.6,0.8,0.8c0.3,0.2,0.7,0.3,1.1,0.3
			C285.8,38.6,286.2,38.5,286.5,38.3z"/>
		<path class="st0" d="M290.1,34.4c0.3-0.5,0.6-0.9,1.1-1.2c0.5-0.3,1-0.4,1.6-0.4c0.5,0,1,0.1,1.4,0.3c0.4,0.2,0.8,0.5,1,0.9v-3.4
			h1.1v8.7h-1.1v-1.2c-0.2,0.4-0.5,0.7-0.9,0.9c-0.4,0.2-0.9,0.4-1.5,0.4c-0.6,0-1.1-0.1-1.6-0.4c-0.5-0.3-0.8-0.7-1.1-1.2
			c-0.3-0.5-0.4-1.1-0.4-1.7C289.7,35.5,289.9,34.9,290.1,34.4z M294.9,34.9c-0.2-0.4-0.5-0.6-0.8-0.8c-0.3-0.2-0.7-0.3-1.1-0.3
			c-0.4,0-0.8,0.1-1.1,0.3c-0.3,0.2-0.6,0.5-0.8,0.8c-0.2,0.4-0.3,0.8-0.3,1.3c0,0.5,0.1,0.9,0.3,1.3c0.2,0.4,0.5,0.6,0.8,0.8
			c0.3,0.2,0.7,0.3,1.1,0.3c0.4,0,0.8-0.1,1.1-0.3c0.3-0.2,0.6-0.5,0.8-0.8c0.2-0.4,0.3-0.8,0.3-1.3
			C295.2,35.7,295.1,35.3,294.9,34.9z"/>
		<path class="st0" d="M298,34.4c0.3-0.5,0.6-0.9,1.1-1.2c0.5-0.3,1-0.4,1.6-0.4c0.6,0,1.1,0.1,1.5,0.4s0.7,0.5,0.9,0.9V33h1.1v6.4
			h-1.1v-1.2c-0.2,0.4-0.5,0.7-0.9,0.9c-0.4,0.2-0.9,0.4-1.5,0.4c-0.6,0-1.1-0.1-1.5-0.4c-0.5-0.3-0.8-0.7-1.1-1.2
			c-0.3-0.5-0.4-1.1-0.4-1.7C297.6,35.5,297.8,34.9,298,34.4z M302.8,34.9c-0.2-0.4-0.5-0.6-0.8-0.8c-0.3-0.2-0.7-0.3-1.1-0.3
			c-0.4,0-0.8,0.1-1.1,0.3c-0.3,0.2-0.6,0.5-0.8,0.8c-0.2,0.4-0.3,0.8-0.3,1.3c0,0.5,0.1,0.9,0.3,1.3c0.2,0.4,0.5,0.6,0.8,0.8
			c0.3,0.2,0.7,0.3,1.1,0.3c0.4,0,0.8-0.1,1.1-0.3c0.3-0.2,0.6-0.5,0.8-0.8c0.2-0.4,0.3-0.8,0.3-1.3C303.1,35.7,303,35.3,302.8,34.9
			z"/>
	</g>
	<g>
		<path class="st0" d="M191.7,5.5V4.2h1.6v1.3h3.9v2.7h1.1v1.5h-1.1v2.7h-3.9v1.3h4.3v4H193c-0.3,0.5-0.5,0.9-0.7,1.3h5.4v1.1
			c-0.7,1.2-1.8,2.3-3.1,3.2c1.2,0.5,2.4,1.1,3.7,1.8l-1,1.2c-1.4-0.8-2.8-1.5-4.2-2.1c-1.6,0.9-3.5,1.7-5.7,2.3l-1-1.3
			c1.9-0.5,3.5-1.1,4.9-1.7c-1-0.4-2.1-0.7-3.1-1c0.5-0.7,1-1.4,1.4-2.2h-3.1v-1.4h4c0.2-0.5,0.5-0.9,0.8-1.3h-3.8v-4h4.2v-1.3h-3.9
			V9.7h-1.1V8.3h1.1V5.5H191.7z M191.7,15H189v1.6h2.7V15z M191.7,8.4V6.8h-2.4v1.6H191.7z M191.7,9.6h-2.4v1.6h2.4V9.6z
			 M195.7,20.5h-4.3c-0.3,0.5-0.6,1.1-0.9,1.5c0.8,0.2,1.6,0.5,2.5,0.8C194.1,22.1,195,21.3,195.7,20.5z M195.7,8.4V6.8h-2.4v1.6
			H195.7z M195.7,9.6h-2.4v1.6h2.4V9.6z M196,15h-2.7v1.6h2.7V15z M200.2,13.8c-0.4,0.8-0.8,1.5-1.2,2.2l-1.1-1.4
			c1.4-2.6,2.4-6.1,2.9-10.6l1.7,0.3c-0.2,1.3-0.4,2.5-0.6,3.6h6.5v1.7h-1.7c-0.1,4.4-1,8.1-2.5,11.1c1.2,1.8,2.7,3.3,4.6,4.5
			l-1.1,1.4c-1.8-1.2-3.3-2.7-4.4-4.3c-1.1,1.7-2.5,3.1-4.1,4.3l-1-1.5c1.7-1.1,3-2.6,4.1-4.3C201.2,18.7,200.5,16.4,200.2,13.8z
			 M200.2,13.7l1.4-0.4c0.2,2.2,0.8,4.1,1.6,5.8c1.1-2.6,1.8-5.7,1.9-9.4h-3.6C201.2,11.1,200.7,12.5,200.2,13.7z"/>
		<path class="st0" d="M218.6,4.8c-0.6,1.9-1.4,3.7-2.4,5.4v16.5h-1.8V12.9c-0.8,1.1-1.7,2.1-2.6,3.1l-0.6-1.9
			c2.6-2.9,4.5-6.3,5.7-10.1L218.6,4.8z M226.5,23.8c1.2-3.3,2.3-7.4,3.3-12.3l1.7,0.4c-0.9,4.5-1.9,8.4-3.1,11.9h5.6v1.7h-15.8
			v-1.7H226.5z M225.1,8.2c-0.3-1.3-0.8-2.5-1.2-3.6l1.9-0.3c0.4,1.1,0.8,2.4,1.1,3.9h6.4v1.7h-14.7V8.2H225.1z M224.1,22.5
			l-1.6,0.4c-0.7-3.7-1.5-7.3-2.5-10.8l1.6-0.5C222.5,14.9,223.3,18.5,224.1,22.5z"/>
		<path class="st0" d="M248.2,9.3c1.7-0.5,3.3-1.2,4.6-1.9h-15.6V5.9h9.5c-0.2-0.6-0.5-1.1-0.8-1.6l1.8-0.3c0.3,0.5,0.6,1.2,0.9,1.9
			h8.4v1.5h-3.9l1,0.7c-1.2,0.7-2.5,1.3-3.9,1.8c1.9,0.6,3.7,1.1,5.2,1.7l-1,1h2.7v1.5h-17.4v2.8c-0.1,4.1-0.9,7.3-2.4,9.8l-1.3-1.2
			c1.3-2.1,1.9-4.9,2-8.6v-4.3h16.3c-1.7-0.7-3.7-1.4-6.1-2.1c-2.5,0.8-5.3,1.4-8.3,1.7l-0.8-1.1c2.5-0.3,4.8-0.7,6.9-1.2
			c-1.7-0.5-3.5-1-5.5-1.4l1-0.9C243.9,8.2,246.1,8.7,248.2,9.3z M241,20.7l-1.2-1.1c1.6-1.2,2.7-2.8,3.5-4.8l1.4,0.6
			c-0.2,0.5-0.4,1-0.7,1.4h4.3v-2h1.7v2h6.4v1.5h-6.4v2.3h5.8v1.5h-5.8v2.3h7.6V26h-17.6v-1.5h8.3v-2.3h-5.8v-1.5h5.8v-2.3h-5.3
			C242.5,19.3,241.8,20.1,241,20.7z"/>
		<path class="st0" d="M270.2,4.2v3.7h2.6V4.2h1.7v3.7h2.1c0.7-1.1,1.3-2.2,1.8-3.3l1.6,0.6c-0.6,1.1-1.1,2-1.7,2.7h3.9v1.5h-21.3
			V7.9h3.8c-0.4-1-0.9-1.9-1.5-2.7l1.6-0.6c0.6,0.9,1.1,2,1.6,3.3h2.2V4.2H270.2z M267.3,12.2c-0.4-0.7-0.8-1.4-1.3-2l1.6-0.6
			c0.5,0.7,1,1.6,1.5,2.6h4.7c0.6-0.8,1.1-1.6,1.6-2.5l1.7,0.6c-0.4,0.7-0.9,1.4-1.3,2h5.4v1.5h-8.7v1.8h7.5V17h-7.5v1.8h9.7v1.6
			h-9.7v6.3h-1.8v-6.3h-9.8v-1.6h9.8V17h-7.5v-1.5h7.5v-1.8H262v-1.5H267.3z M268,22.3c-1.5,1.5-3.4,2.9-5.6,4l-1.1-1.4
			c2.2-1,4-2.2,5.5-3.7L268,22.3z M281.7,25.1l-1.3,1.2c-1.2-1.2-3-2.5-5.2-3.9l1.1-1.1C278.5,22.5,280.3,23.8,281.7,25.1z"/>
		<path class="st0" d="M304.6,5.1v4.6h-8.5v1.6h5.2v1.4h-5.2v1.8h3.1c1.9-1.2,3.6-2.5,5-4.1l1.4,0.8c-1.1,1.2-2.5,2.3-3.9,3.3h5.2
			v1.5h-7.7c-1.3,0.7-2.6,1.2-4,1.8h8.6v9H302v-1.1h-10.4v1.1h-1.7v-7.4c-1.2,0.3-2.5,0.5-3.8,0.8l-1-1.5c4.3-0.4,7.9-1.3,11.1-2.7
			h-11v-1.5h9.1v-1.8H288v-1.4h6.4V9.8h-7.1V5.1H304.6z M292.6,6.4H289v2h3.6V6.4z M302,19.2h-10.4v1.9H302V19.2z M291.6,24.3H302
			v-1.8h-10.4V24.3z M297.8,6.4h-3.5v2h3.5V6.4z M302.9,6.4h-3.6v2h3.6V6.4z"/>
	</g>
</g>
</svg>
