<?xml version="1.0" encoding="utf-8"?>
<!-- Generator: Adobe Illustrator 24.2.1, SVG Export Plug-In . SVG Version: 6.00 Build 0)  -->
<svg version="1.1" id="圖層_1" xmlns="http://www.w3.org/2000/svg" xmlns:xlink="http://www.w3.org/1999/xlink" x="0px" y="0px"
	 width="350px" height="44px" viewBox="0 0 350 44" style="enable-background:new 0 0 350 44;" xml:space="preserve">
<style type="text/css">
	.st0{fill:#1F333D;}
	.st1{fill:#B3C33E;}
</style>
<g id="adi_logo-H-standard-CN_x2B_EN">
	<g>
		<path class="st0" d="M7.5,22.5c0-6.2,5-11.3,11.3-11.3h4.3V3.6c-3.4,0-4.5-0.2-8,0.4c-0.1,0-0.1,0-0.1,0C6.5,5.8,0,13.5,0,22.5
			c0,10.4,8.5,18.9,18.8,18.9h19V3.6h-7.3v30.2H18.8C12.6,33.8,7.5,28.8,7.5,22.5z"/>
		<path class="st1" d="M14.8,22.8c0,2.4,1.9,4,4.3,4h4.2v-8.5h-4C16.7,18.3,14.8,20.4,14.8,22.8z"/>
		<rect x="42" y="17.3" class="st0" width="8.5" height="24.2"/>
		<polygon class="st1" points="42.1,3.6 49.3,3.6 49.3,5.8 44.1,5.8 44.1,10 49.3,10 49.3,12.1 42.1,12.1 		"/>
		<polygon class="st0" points="52.5,6.7 45.2,6.7 45.2,8.9 50.4,8.9 50.4,13 45.2,13 45.2,15.1 52.5,15.1 		"/>
	</g>
	<g>
		<path class="st0" d="M62.8,4.6V3.1h1.9v1.5h4.6v3.3h1.3v1.7h-1.3v3.3h-4.6v1.5h5v4.6h-5.5c-0.3,0.7-0.7,1.1-0.9,1.5h6.3v1.3
			c-0.9,1.4-2.1,2.7-3.6,3.7c1.4,0.7,2.8,1.3,4.4,2.1l-1.1,1.4c-1.6-1-3.3-1.7-5-2.4c-1.9,1-4.2,2-6.7,2.7l-1.1-1.5
			c2.2-0.7,4.2-1.3,5.7-2c-1.2-0.5-2.4-0.9-3.5-1.2c0.7-0.9,1.1-1.6,1.6-2.5h-3.7v-1.6h4.6c0.2-0.5,0.7-1.1,0.9-1.5h-4.5v-4.7h5
			v-1.5h-4.6V9.6h-1.3V7.8h1.3V4.5h4.7V4.6z M62.8,15.7h-3.2v1.9h3.2V15.7z M62.8,8.1V6.3H60v1.9H62.8z M62.8,9.4H60v2h2.7V9.4z
			 M67.5,22.1h-5c-0.4,0.7-0.8,1.2-1.1,1.7c1,0.2,2,0.7,2.8,1C65.6,24.1,66.6,23.2,67.5,22.1z M67.5,8.1V6.3h-2.8v1.9H67.5z
			 M67.5,9.4h-2.8v2h2.8V9.4z M67.9,15.7h-3.3v1.9h3.3V15.7z M72.7,14.4c-0.4,1-1,1.9-1.3,2.5l-1.3-1.6c1.6-3.1,2.8-7.2,3.4-12.4
			l2,0.4c-0.2,1.5-0.4,2.8-0.7,4.3h7.5v2h-2c-0.1,5.1-1.1,9.5-2.8,13c1.3,2.1,3.2,3.8,5.4,5.4l-1.2,1.5c-2.2-1.4-3.8-3.1-5.2-5
			c-1.3,2-2.8,3.7-4.8,5l-1.1-1.9c2-1.3,3.5-3.1,4.8-5C73.9,20.2,73.1,17.4,72.7,14.4z M72.7,14.3l1.6-0.5c0.2,2.5,1,4.8,1.9,6.8
			c1.3-3.1,2.1-6.8,2.2-10.9h-4.2C73.8,11.3,73.4,12.8,72.7,14.3z"/>
		<path class="st0" d="M93.6,3.9c-0.8,2.2-1.6,4.3-2.7,6.3v19.2h-2.1V13.4c-1,1.3-2,2.5-3.1,3.7l-0.7-2.2c3.1-3.4,5.2-7.3,6.7-11.8
			L93.6,3.9z M102.9,26.1c1.5-3.8,2.7-8.6,3.8-14.4l2,0.5c-1,5.2-2.2,9.8-3.7,13.9h6.6v2H93v-2H102.9z M101.2,7.8
			c-0.4-1.5-0.9-2.8-1.4-4.2l2.2-0.4c0.4,1.3,0.9,2.8,1.3,4.6h7.4v2H93.4v-2H101.2z M100.1,24.5l-2,0.5c-0.8-4.4-1.7-8.5-3-12.7
			l1.9-0.7C98.2,15.7,99.1,19.8,100.1,24.5z"/>
		<path class="st0" d="M120.4,9.2c1.4-1,2.6-2,3.5-3.2H116V4.3h10.3v1.5c-1.1,2.1-2.8,3.9-5.4,5.4h4.2v6.6h-6.3l-0.5,3.1h7.1
			c0,3.4-0.1,5.6-0.4,6.7c-0.3,1.1-1.6,1.7-3.9,1.9c-1,0-2.1-0.1-3.2-0.1l-0.4-1.9c1.1,0.1,2.2,0.1,3.3,0.1c1.5,0,2.4-0.3,2.6-1
			c0.2-0.7,0.3-2,0.3-3.9h-7.2l1-6.7h6.2v-3.1h-6c-0.8,0.2-1.5,0.7-2.3,0.8l-1.2-1.6c1.9-0.7,3.6-1.2,5-2c-1-0.8-2-1.5-3.3-2.4
			l1.5-1C118.4,7.7,119.6,8.5,120.4,9.2z M135.7,4.1c-0.7,0.8-1.3,1.4-2,2c-0.4,0.3-1.1,0.8-1.7,1.1c0.5,0.4,1.1,0.9,1.7,1.3
			c0.8-0.3,1.3-0.8,2-1.2c0.8-0.5,1.3-1.1,2-2l1.5,0.9c-0.8,0.9-1.4,1.6-2.2,2.2c-0.4,0.3-1,0.7-1.5,1c1.4,0.8,3.1,1.5,4.8,2.2
			l-1.3,1.6c-1.1-0.4-2.2-1-3.1-1.4v2.7c0,0.7,0.3,0.9,1.1,0.9h1.6v1.7h-2.2c-1.5,0-2.3-0.8-2.3-2.2v-2h-4.4c0,1.1-0.2,2-0.5,2.7
			c-0.4,0.8-1.1,1.5-2.1,2.2l-1.4-1.3c1-0.8,1.5-1.4,1.9-2.1c0.2-0.7,0.4-1.7,0.4-3.2h6.7c-3.3-1.9-5.8-4-7.3-6.6l1.6-1
			c0.4,0.8,1.1,1.5,1.7,2.2c0.7-0.2,1.2-0.7,1.7-1c0.7-0.4,1.3-1,1.9-1.6L135.7,4.1z M137.1,18.6v1.7c-0.7,1.7-1.5,3.3-2.7,4.6
			c1.7,1,3.4,2.1,4.8,3.1l-1.4,1.5c-1.3-1.1-3-2.2-4.8-3.3c-1.6,1.3-3.6,2.4-5.9,3.3l-0.8-1.9c1.9-0.7,3.5-1.5,4.8-2.5
			c-1.3-0.8-2.7-1.5-4.2-2.2l1.2-1.2c1.5,0.8,3,1.5,4.3,2.2c1-1,1.9-2.2,2.4-3.5h-8v-1.9C127.1,18.6,137.1,18.6,137.1,18.6z"/>
		<path class="st0" d="M144,29.3l-1.5-1.3c1.9-3.7,2.8-8.5,2.8-14.4V4.3h21.5v6.8h-19.4v3.1h5.2v-2.3h2v2.3h5.7v-2.3h2v2.3h4.8V16
			h-4.8v3h5.7v1.9h-15.6v6.3c1.7-0.4,3.3-1,4.6-1.5l0.4,2c-2.1,0.7-4.6,1.3-7.4,1.9l-0.7-1.9c0.7-0.2,1.1-0.8,1.1-1.4v-5.4h-3.8
			C146.2,24,145.3,26.8,144,29.3z M147.1,19h5.6v-3h-5.4C147.3,17,147.2,18,147.1,19z M147.4,6.2v3.1h17.4V6.2H147.4z M160.3,19v-3
			h-5.7v3H160.3z M166.7,22.3c-1.1,1.5-2.4,2.7-3.7,3.6c1.7,1,3.7,1.5,5.8,1.7l-0.4,1.9c-4.9-0.5-9-2.8-12-7.1l1.5-1
			c1.1,1.3,2.2,2.5,3.5,3.4c1.4-0.8,2.7-2.2,4-3.9L166.7,22.3z"/>
		<path class="st0" d="M177.6,6.1c-0.3-1-0.7-1.9-1-2.7l2.1-0.3c0.2,0.9,0.7,1.9,0.9,3.1h5.8v2h-1.3c-0.7,2.2-1.2,4.2-2,5.9h3.6v2
			h-14.2v-2h3.7c-0.4-2.1-1-4-1.6-5.9H172v-2C172,6.1,177.6,6.1,177.6,6.1z M184.4,29.3h-2.1v-1.5h-7.1v1.5h-2V18.6h11.2V29.3z
			 M182.3,25.8v-5.4h-7.1v5.4H182.3z M182.1,7.9h-6.6c0.7,1.6,1.1,3.6,1.6,5.9h3.1C180.9,12,181.5,10,182.1,7.9z M196.7,4.3v1.5
			c-1,3.1-2,5.9-3.1,8.4c2.3,2.8,3.4,5.1,3.4,6.9c0,1.6-0.4,2.8-1.1,3.5c-0.8,0.7-2.4,1-4.8,1l-0.7-2.2c0.8,0.1,1.4,0.1,2,0.1
			c1.1-0.1,1.7-0.2,2.1-0.5c0.2-0.3,0.4-1,0.4-2c0-1.7-1.2-4-3.6-6.9c1-2.3,2.1-5,3.1-8.1h-5.2v23.2h-2V4.3H196.7z"/>
		<path class="st0" d="M215.7,4.6V3.1h1.9v1.5h4.6v3.3h1.3v1.7h-1.2v3.3h-4.6v1.5h5v4.6h-5.4c-0.3,0.7-0.7,1.1-0.9,1.5h6.3v1.3
			c-0.9,1.4-2.1,2.7-3.6,3.7c1.4,0.7,2.8,1.3,4.4,2.1l-1.1,1.5c-1.6-1-3.3-1.7-5-2.4c-1.9,1-4.2,2-6.7,2.7l-1.1-1.5
			c2.2-0.7,4.2-1.3,5.7-2c-1.2-0.4-2.4-0.9-3.6-1.2c0.7-0.9,1.1-1.6,1.6-2.5h-3.7v-1.6h4.6c0.2-0.5,0.7-1.1,0.9-1.5h-4.4v-4.8h5
			v-1.5h-4.6V9.6h-1.3V7.8h1.3V4.5h4.5V4.6z M215.7,15.7h-3.2v1.9h3.2V15.7z M215.7,8.1V6.3h-2.7v1.9H215.7z M215.7,9.4h-2.7v2h2.7
			V9.4z M220.5,22.1h-5c-0.4,0.7-0.8,1.2-1.1,1.7c1,0.2,2,0.7,2.8,1C218.5,24.1,219.6,23.2,220.5,22.1z M220.4,8.1V6.3h-2.8v1.9
			H220.4z M220.4,9.4h-2.8v2h2.8V9.4z M220.8,15.7h-3.3v1.9h3.3V15.7z M225.6,14.4c-0.4,1-1,1.9-1.3,2.5l-1.3-1.6
			c1.6-3.1,2.8-7.2,3.4-12.4l2,0.4c-0.2,1.5-0.4,2.8-0.7,4.3h7.5v2h-2c-0.1,5.1-1.1,9.5-2.8,13c1.3,2.1,3.2,3.8,5.4,5.4l-1.2,1.6
			c-2.2-1.4-3.8-3.1-5.2-5c-1.3,2-2.8,3.7-4.8,5l-1.1-1.9c2-1.3,3.5-3.1,4.8-5C226.9,20.2,226.1,17.4,225.6,14.4z M225.7,14.3
			l1.6-0.5c0.2,2.5,1,4.8,1.9,6.8c1.3-3.1,2.1-6.8,2.2-10.9h-4.2C226.8,11.3,226.3,12.8,225.7,14.3z"/>
		<path class="st0" d="M246.5,3.9c-0.8,2.2-1.6,4.3-2.7,6.3v19.2h-2.1V13.4c-1,1.3-2,2.5-3.1,3.7l-0.7-2.2c3.1-3.4,5.2-7.3,6.7-11.8
			L246.5,3.9z M255.8,26.1c1.5-3.8,2.7-8.6,3.8-14.4l2,0.5c-1,5.2-2.2,9.8-3.7,13.9h6.6v2H246v-2H255.8z M254.2,7.8
			c-0.4-1.5-0.9-2.8-1.4-4.2l2.2-0.4c0.4,1.3,0.9,2.8,1.3,4.6h7.4v2h-17.3v-2H254.2z M253,24.5l-2,0.5c-0.8-4.4-1.7-8.5-3-12.7
			l1.9-0.7C251.1,15.7,252.1,19.8,253,24.5z"/>
		<path class="st0" d="M281.2,9.1c2-0.7,3.8-1.3,5.5-2.2h-18.3V5.2h11.3c-0.2-0.7-0.7-1.3-1-1.9l2.1-0.3c0.3,0.7,0.7,1.3,1,2.2h9.7
			v1.7h-4.6l1.2,0.8c-1.5,0.8-3,1.5-4.6,2.2c2.2,0.7,4.3,1.3,6.1,2l-1.2,1.2h3.2v1.7h-20.5v3.3c-0.1,4.8-1,8.6-2.8,11.5l-1.5-1.3
			c1.5-2.4,2.3-5.8,2.3-10.1V13h19.1c-2-0.8-4.4-1.6-7.1-2.4c-3,1-6.2,1.6-9.7,2l-1-1.3c3-0.3,5.7-0.8,8.1-1.4
			c-2-0.7-4.2-1.1-6.3-1.6l1.1-1.1C276.1,7.8,278.8,8.5,281.2,9.1z M272.8,22.5l-1.4-1.3c1.9-1.3,3.3-3.3,4.2-5.6l1.6,0.7
			c-0.2,0.7-0.5,1.1-0.8,1.6h5v-2.4h2v2.4h7.5v1.9h-7.5v2.7h6.9v1.9h-6.9V27h8.9v1.7h-20.7V27h9.7v-2.7h-6.8v-1.9h6.8v-2.7h-6
			C274.6,20.8,273.7,21.7,272.8,22.5z"/>
		<path class="st0" d="M307,3.1v4.4h3.1V3.1h2v4.4h2.4c0.9-1.2,1.5-2.5,2.2-3.9l1.9,0.8c-0.7,1.2-1.3,2.3-2,3.2h4.6v1.9h-24.9V7.5
			h4.5c-0.4-1.1-1.1-2.2-1.7-3.2l2-0.8c0.7,1.1,1.3,2.4,1.9,3.9h2.5V3.1H307z M303.6,12.5c-0.4-0.8-1-1.6-1.5-2.3l2-0.8
			c0.7,0.9,1.2,1.9,1.7,3.1h5.5c0.7-1,1.3-2,1.9-3l2,0.7c-0.4,0.9-1,1.6-1.5,2.3h6.3v1.9h-10.3v2h8.7v1.7h-8.7v2.2h11.6v1.9h-11.5
			v7.3h-2.1V22h-11.5v-1.9h11.5V18h-8.9v-1.6h8.9v-2.2h-10.3v-1.9L303.6,12.5L303.6,12.5z M304.5,24.3c-1.7,1.7-3.9,3.4-6.6,4.7
			l-1.3-1.6c2.5-1.2,4.7-2.6,6.5-4.3L304.5,24.3z M320.4,27.6l-1.5,1.5c-1.5-1.4-3.5-3-6-4.6l1.3-1.3
			C316.7,24.5,318.9,26.1,320.4,27.6z"/>
		<path class="st0" d="M347.5,4.2v5.5h-10.1v1.9h6.1v1.6h-6.1v2.1h3.7c2.2-1.3,4.2-3,5.8-4.8l1.6,0.9c-1.3,1.4-2.8,2.7-4.6,3.9h6
			v1.9h-9c-1.5,0.8-3.1,1.5-4.7,2.1h10.1v10.5h-2v-1.3h-12.2v1.3h-2V21c-1.4,0.3-2.8,0.7-4.5,1l-1.1-1.7c5-0.5,9.3-1.5,13-3.2h-12.9
			v-1.9h10.6v-2.1h-7.4v-1.6h7.5V9.7h-8.3V4.2H347.5z M333.3,5.7h-4.3v2.4h4.3V5.7z M344.4,20.7h-12.2v2.2h12.1v-2.2H344.4z
			 M332.1,26.7h12.1v-2.2h-12.1V26.7z M339.4,5.7h-4.2v2.4h4.2V5.7z M345.4,5.7h-4.3v2.4h4.3V5.7z"/>
	</g>
	<g>
		<path class="st0" d="M60,39.8h-3l-0.5,1.5h-1l2.4-6.8h1l2.4,6.8h-0.9L60,39.8z M59.8,39.1l-1.2-3.4l-1.2,3.4H59.8L59.8,39.1z"/>
		<path class="st0" d="M62.7,37.2c0.2-0.4,0.5-0.8,0.9-1c0.4-0.2,0.8-0.3,1.3-0.3c0.4,0,0.8,0.1,1.1,0.2c0.3,0.2,0.7,0.4,0.8,0.8V34
			h0.9v7.2h-0.9v-0.9c-0.2,0.3-0.4,0.7-0.8,0.8c-0.3,0.2-0.8,0.3-1.2,0.3c-0.4,0-0.9-0.1-1.3-0.3s-0.7-0.5-0.9-1s-0.3-0.9-0.3-1.4
			C62.2,38.1,62.4,37.7,62.7,37.2z M66.5,37.7c-0.1-0.2-0.4-0.5-0.7-0.7c-0.2-0.1-0.7-0.2-0.9-0.2c-0.3,0-0.7,0.1-0.9,0.2
			c-0.2,0.1-0.4,0.4-0.7,0.7c-0.1,0.2-0.2,0.7-0.2,1.1s0.1,0.8,0.2,1.1c0.1,0.2,0.4,0.5,0.7,0.7c0.2,0.1,0.7,0.2,0.9,0.2
			c0.3,0,0.7-0.1,0.9-0.2c0.2-0.1,0.4-0.4,0.7-0.7c0.1-0.2,0.2-0.7,0.2-1.1C66.8,38.3,66.7,37.9,66.5,37.7z"/>
		<path class="st0" d="M76.7,36.2c0.3,0.2,0.7,0.4,0.8,0.8c0.2,0.3,0.2,0.8,0.2,1.3v3.2h-0.9v-3.1c0-0.5-0.1-1-0.4-1.2
			c-0.2-0.2-0.7-0.4-1.1-0.4s-0.8,0.1-1.1,0.4c-0.2,0.2-0.4,0.8-0.4,1.3v3h-0.8v-3.1c0-0.5-0.1-1-0.4-1.2c-0.2-0.2-0.7-0.4-1.1-0.4
			s-0.8,0.1-1.1,0.4c-0.2,0.2-0.4,0.8-0.4,1.3v3H69v-5.4h0.9v0.8c0.2-0.2,0.4-0.4,0.7-0.7c0.2-0.1,0.7-0.2,1-0.2
			c0.4,0,0.8,0.1,1.2,0.2c0.3,0.2,0.7,0.4,0.8,0.9c0.1-0.4,0.4-0.7,0.8-0.9s0.8-0.3,1.1-0.3C75.9,36,76.3,36,76.7,36.2z"/>
		<path class="st0" d="M79.2,35c-0.1-0.1-0.2-0.2-0.2-0.4s0.1-0.3,0.2-0.4c0.1-0.1,0.2-0.2,0.4-0.2c0.1,0,0.2,0.1,0.4,0.2
			c0.1,0.1,0.2,0.2,0.2,0.4c0,0.1-0.1,0.3-0.2,0.4c-0.1,0.1-0.2,0.2-0.4,0.2C79.4,35.1,79.3,35.1,79.2,35z M80.1,36v5.4h-0.9V36
			H80.1z"/>
		<path class="st0" d="M85.7,36.6c0.4,0.4,0.7,1,0.7,1.6v3.2h-0.9v-3.1c0-0.5-0.1-1-0.4-1.2c-0.2-0.2-0.7-0.4-1.1-0.4
			s-0.8,0.1-1.1,0.4c-0.2,0.2-0.4,0.8-0.4,1.3v3h-0.9V36h0.9v0.8c0.2-0.2,0.4-0.4,0.8-0.7c0.2-0.1,0.7-0.2,1-0.2
			C84.8,36,85.3,36.1,85.7,36.6z"/>
		<path class="st0" d="M87.8,35c-0.1-0.1-0.2-0.2-0.2-0.4s0.1-0.3,0.2-0.4c0.1-0.1,0.2-0.2,0.4-0.2c0.1,0,0.2,0.1,0.4,0.2
			c0.1,0.1,0.2,0.2,0.2,0.4c0,0.1-0.1,0.3-0.2,0.4c-0.1,0.1-0.2,0.2-0.4,0.2C88,35.1,87.9,35.1,87.8,35z M88.6,36v5.4h-0.9V36H88.6z
			"/>
		<path class="st0" d="M90.9,41.3c-0.3-0.1-0.7-0.3-0.8-0.7c-0.2-0.2-0.2-0.5-0.3-0.9h1c0,0.2,0.1,0.4,0.4,0.7
			c0.2,0.1,0.5,0.2,0.9,0.2c0.3,0,0.7-0.1,0.8-0.2c0.1-0.1,0.2-0.3,0.2-0.5c0-0.2-0.1-0.4-0.3-0.5c-0.2-0.1-0.5-0.2-1-0.3
			s-0.8-0.2-1-0.3c-0.2-0.1-0.4-0.2-0.7-0.4s-0.2-0.4-0.2-0.8c0-0.2,0.1-0.5,0.2-0.8c0.1-0.2,0.4-0.4,0.7-0.5
			c0.4-0.1,0.8-0.1,1.1-0.1c0.7,0,1.1,0.1,1.4,0.4c0.3,0.2,0.5,0.7,0.7,1.2h-0.9c0-0.2-0.1-0.4-0.3-0.7c-0.2-0.1-0.4-0.2-0.8-0.2
			c-0.3,0-0.5,0.1-0.8,0.2C91,37.1,91,37.3,91,37.5s0.1,0.3,0.2,0.4c0.1,0.1,0.2,0.2,0.4,0.2c0.2,0.1,0.4,0.1,0.8,0.2
			c0.4,0.1,0.7,0.2,1,0.3c0.2,0.1,0.4,0.2,0.7,0.4s0.2,0.4,0.2,0.8c0,0.2-0.1,0.5-0.2,0.8c-0.1,0.2-0.4,0.4-0.7,0.5s-0.7,0.2-1,0.2
			C91.6,41.5,91.2,41.4,90.9,41.3z"/>
		<path class="st0" d="M96.2,36.8V40c0,0.2,0.1,0.4,0.1,0.5c0.1,0.1,0.2,0.1,0.7,0.1h0.7v0.8h-0.8c-0.4,0-0.9-0.1-1.1-0.3
			c-0.2-0.2-0.3-0.7-0.3-1.1v-3.2h-0.7V36h0.7v-1.3h0.9V36h1.4v0.8H96.2L96.2,36.8z"/>
		<path class="st0" d="M100.3,36.2c0.2-0.1,0.7-0.2,1.1-0.2v1h-0.2c-1,0-1.5,0.5-1.5,1.6v2.8h-0.9v-5.4h0.9V37
			C99.7,36.7,100,36.3,100.3,36.2z"/>
		<path class="st0" d="M102.4,37.2c0.2-0.4,0.5-0.8,0.9-1c0.4-0.2,0.8-0.3,1.3-0.3c0.5,0,0.9,0.1,1.2,0.2c0.3,0.2,0.7,0.4,0.8,0.8
			V36h0.9v5.4h-0.9v-1c-0.2,0.3-0.4,0.5-0.8,0.8s-0.8,0.3-1.2,0.3s-0.9-0.1-1.3-0.3c-0.4-0.2-0.7-0.5-0.9-1
			c-0.2-0.4-0.3-0.9-0.3-1.4C102,38.1,102.1,37.7,102.4,37.2z M106.3,37.7c-0.1-0.2-0.4-0.5-0.7-0.7c-0.2-0.1-0.7-0.2-0.9-0.2
			c-0.3,0-0.7,0.1-0.9,0.2c-0.2,0.1-0.4,0.4-0.7,0.7c-0.1,0.2-0.2,0.7-0.2,1.1s0.1,0.8,0.2,1.1c0.1,0.2,0.4,0.5,0.7,0.7
			s0.7,0.2,0.9,0.2c0.3,0,0.7-0.1,0.9-0.2c0.2-0.1,0.4-0.4,0.7-0.7c0.1-0.2,0.2-0.7,0.2-1.1S106.4,37.9,106.3,37.7z"/>
		<path class="st0" d="M110,36.8V40c0,0.2,0.1,0.4,0.1,0.5c0.1,0.1,0.2,0.1,0.7,0.1h0.7v0.8h-0.8c-0.4,0-0.9-0.1-1.1-0.3
			s-0.3-0.7-0.3-1.1v-3.2h-0.7V36h0.7v-1.3h0.9V36h1.4v0.8H110L110,36.8z"/>
		<path class="st0" d="M112.5,35c-0.1-0.1-0.2-0.2-0.2-0.4s0.1-0.3,0.2-0.4c0.1-0.1,0.2-0.2,0.4-0.2c0.1,0,0.2,0.1,0.4,0.2
			c0.1,0.1,0.2,0.2,0.2,0.4c0,0.1-0.1,0.3-0.2,0.4c-0.1,0.1-0.2,0.2-0.4,0.2C112.8,35.1,112.5,35.1,112.5,35z M113.3,36v5.4h-0.9V36
			H113.3z"/>
		<path class="st0" d="M115.8,41c-0.4-0.2-0.8-0.5-1-1c-0.2-0.4-0.3-0.9-0.3-1.5c0-0.5,0.1-1,0.3-1.4c0.2-0.4,0.5-0.8,1-1
			s0.9-0.3,1.3-0.3c0.4,0,1,0.1,1.3,0.3c0.4,0.2,0.8,0.5,1,1c0.2,0.4,0.3,0.9,0.3,1.4s-0.1,1-0.3,1.5c-0.2,0.4-0.5,0.8-1,1
			s-0.9,0.3-1.3,0.3C116.7,41.5,116.3,41.4,115.8,41z M118,40.5c0.2-0.1,0.4-0.4,0.7-0.7s0.2-0.7,0.2-1.1s-0.1-0.8-0.2-1.1
			c-0.1-0.2-0.4-0.5-0.7-0.7c-0.2-0.1-0.5-0.2-0.9-0.2c-0.3,0-0.7,0.1-0.9,0.2c-0.2,0.1-0.4,0.3-0.7,0.7s-0.2,0.7-0.2,1.1
			s0.1,0.8,0.2,1.1c0.1,0.2,0.3,0.5,0.7,0.7c0.2,0.1,0.5,0.2,0.9,0.2C117.5,40.7,117.8,40.6,118,40.5z"/>
		<path class="st0" d="M125.2,36.6c0.4,0.4,0.7,1,0.7,1.6v3.2H125v-3.1c0-0.5-0.1-1-0.4-1.2c-0.2-0.2-0.7-0.4-1.1-0.4
			s-0.8,0.1-1.1,0.4c-0.2,0.2-0.4,0.8-0.4,1.3v3h-0.9V36h0.9v0.8c0.2-0.2,0.4-0.4,0.8-0.7c0.2-0.1,0.7-0.2,1-0.2
			C124.2,36,124.8,36.1,125.2,36.6z"/>
		<path class="st0" d="M132,36.8h-1.1v4.6H130v-4.6h-0.7V36h0.7v-0.4c0-0.7,0.1-1,0.4-1.3c0.3-0.2,0.8-0.4,1.5-0.4v0.8
			c-0.4,0-0.7,0.1-0.8,0.2c-0.1,0.1-0.2,0.4-0.2,0.8V36h1.1v0.8H132z"/>
		<path class="st0" d="M134,41c-0.4-0.2-0.8-0.5-1-1s-0.3-0.9-0.3-1.5c0-0.5,0.1-1,0.3-1.4c0.2-0.4,0.5-0.8,1-1
			c0.4-0.2,0.9-0.3,1.3-0.3s1,0.1,1.3,0.3c0.4,0.2,0.8,0.5,1,1c0.2,0.4,0.3,0.9,0.3,1.4s-0.1,1-0.3,1.5c-0.2,0.4-0.5,0.8-1,1
			c-0.4,0.2-0.9,0.3-1.3,0.3C134.8,41.5,134.4,41.4,134,41z M136.3,40.5c0.2-0.1,0.4-0.4,0.7-0.7c0.2-0.2,0.2-0.7,0.2-1.1
			s-0.1-0.8-0.2-1.1s-0.4-0.5-0.7-0.7c-0.2-0.1-0.5-0.2-0.9-0.2s-0.7,0.1-0.9,0.2c-0.2,0.1-0.4,0.3-0.7,0.7
			c-0.2,0.3-0.2,0.7-0.2,1.1s0.1,0.8,0.2,1.1c0.1,0.2,0.3,0.5,0.7,0.7c0.2,0.1,0.5,0.2,0.9,0.2C135.6,40.7,135.9,40.6,136.3,40.5z"
			/>
		<path class="st0" d="M140.8,36.2c0.2-0.1,0.7-0.2,1.1-0.2v1h-0.2c-1,0-1.5,0.5-1.5,1.6v2.8h-0.9v-5.4h0.9V37
			C140.3,36.7,140.5,36.3,140.8,36.2z"/>
		<path class="st0" d="M149.5,35c0.5,0.2,1,0.7,1.2,1.2c0.2,0.5,0.4,1.1,0.4,1.9c0,0.7-0.1,1.3-0.4,1.9c-0.2,0.5-0.7,0.9-1.2,1.1
			c-0.5,0.2-1.2,0.4-1.9,0.4h-2.2v-6.8h2.1C148.3,34.6,149,34.7,149.5,35z M149.5,40c0.4-0.4,0.7-1.1,0.7-2c0-0.8-0.2-1.5-0.7-2
			c-0.4-0.4-1.1-0.8-2-0.8h-1.2v5.4h1.2C148.4,40.6,149.1,40.4,149.5,40z"/>
		<path class="st0" d="M152.7,35c-0.1-0.1-0.2-0.2-0.2-0.4s0.1-0.3,0.2-0.4c0.1-0.1,0.2-0.2,0.4-0.2c0.1,0,0.2,0.1,0.4,0.2
			c0.1,0.1,0.2,0.2,0.2,0.4c0,0.1-0.1,0.3-0.2,0.4c-0.1,0.1-0.2,0.2-0.4,0.2C152.8,35.1,152.7,35.1,152.7,35z M153.4,36v5.4h-0.9V36
			H153.4z"/>
		<path class="st0" d="M158.6,36.2c0.3,0.2,0.7,0.4,0.8,0.8v-1h0.9v5.5c0,0.4-0.1,1-0.3,1.3c-0.2,0.4-0.4,0.7-0.9,0.9
			c-0.4,0.2-0.8,0.3-1.3,0.3c-0.7,0-1.3-0.1-1.7-0.4c-0.4-0.3-0.8-0.8-0.8-1.3h0.9c0.1,0.3,0.2,0.7,0.7,0.8c0.3,0.2,0.7,0.2,1.1,0.2
			c0.4,0,0.9-0.1,1.2-0.4c0.3-0.3,0.4-0.8,0.4-1.3v-1.1c-0.2,0.3-0.4,0.5-0.8,0.8c-0.3,0.2-0.8,0.3-1.2,0.3c-0.4,0-0.9-0.1-1.3-0.3
			s-0.7-0.5-0.9-1c-0.2-0.4-0.3-0.9-0.3-1.4s0.1-1,0.3-1.4c0.2-0.4,0.5-0.8,0.9-1c0.4-0.2,0.8-0.3,1.3-0.3
			C157.9,36,158.3,36,158.6,36.2z M159.1,37.7c-0.1-0.2-0.4-0.5-0.7-0.7c-0.2-0.1-0.7-0.2-0.9-0.2c-0.3,0-0.7,0.1-0.9,0.2
			c-0.2,0.1-0.4,0.4-0.7,0.7c-0.1,0.2-0.2,0.7-0.2,1.1s0.1,0.8,0.2,1.1c0.1,0.2,0.4,0.5,0.7,0.7c0.2,0.1,0.7,0.2,0.9,0.2
			c0.3,0,0.7-0.1,0.9-0.2c0.2-0.1,0.4-0.4,0.7-0.7c0.1-0.2,0.2-0.7,0.2-1.1S159.3,37.9,159.1,37.7z"/>
		<path class="st0" d="M162.1,35c-0.1-0.1-0.2-0.2-0.2-0.4s0.1-0.3,0.2-0.4c0.1-0.1,0.2-0.2,0.4-0.2c0.2,0,0.2,0.1,0.4,0.2
			c0.1,0.1,0.2,0.2,0.2,0.4c0,0.1-0.1,0.3-0.2,0.4c-0.1,0.1-0.2,0.2-0.4,0.2C162.3,35.1,162.2,35.1,162.1,35z M163,36v5.4h-0.9V36
			H163z"/>
		<path class="st0" d="M165.8,36.8V40c0,0.2,0.1,0.4,0.1,0.5c0.1,0.1,0.2,0.1,0.7,0.1h0.7v0.8h-0.8c-0.4,0-0.9-0.1-1.1-0.3
			c-0.2-0.2-0.3-0.7-0.3-1.1v-3.2h-0.7V36h0.7v-1.3h0.9V36h1.4v0.8H165.8L165.8,36.8z"/>
		<path class="st0" d="M168.4,37.2c0.2-0.4,0.5-0.8,0.9-1c0.4-0.2,0.8-0.3,1.3-0.3c0.4,0,0.9,0.1,1.2,0.2c0.3,0.2,0.7,0.4,0.8,0.8
			V36h0.9v5.4h-0.9v-1c-0.2,0.3-0.4,0.5-0.8,0.8c-0.3,0.2-0.8,0.3-1.2,0.3s-0.9-0.1-1.3-0.3s-0.7-0.5-0.9-1
			c-0.2-0.4-0.3-0.9-0.3-1.4C168.1,38.1,168.2,37.7,168.4,37.2z M172.5,37.7c-0.1-0.2-0.4-0.5-0.7-0.7c-0.2-0.1-0.7-0.2-0.9-0.2
			c-0.3,0-0.7,0.1-0.9,0.2c-0.2,0.1-0.4,0.4-0.7,0.7c-0.1,0.2-0.2,0.7-0.2,1.1s0.1,0.8,0.2,1.1c0.1,0.2,0.4,0.5,0.7,0.7
			s0.7,0.2,0.9,0.2c0.3,0,0.7-0.1,0.9-0.2c0.2-0.1,0.4-0.4,0.7-0.7c0.1-0.2,0.2-0.7,0.2-1.1C172.6,38.3,172.6,37.9,172.5,37.7z"/>
		<path class="st0" d="M176.2,34.3v7.2h-0.9v-7.2H176.2z"/>
		<path class="st0" d="M181.7,34.6v6.8h-0.9v-6.8H181.7z"/>
		<path class="st0" d="M187.7,36.6c0.4,0.4,0.7,1,0.7,1.6v3.2h-0.9v-3.1c0-0.5-0.1-1-0.4-1.2c-0.2-0.2-0.7-0.4-1.1-0.4
			s-0.8,0.1-1.1,0.4c-0.2,0.2-0.4,0.8-0.4,1.3v3h-0.9V36h0.9v0.8c0.2-0.2,0.4-0.4,0.8-0.7c0.2-0.1,0.7-0.2,1-0.2
			C186.7,36,187.2,36.1,187.7,36.6z"/>
		<path class="st0" d="M190,37.2c0.2-0.4,0.5-0.8,0.9-1c0.4-0.2,0.8-0.3,1.3-0.3c0.4,0,0.8,0.1,1.1,0.2c0.3,0.2,0.7,0.4,0.8,0.8V34
			h0.9v7.2H194v-0.9c-0.2,0.3-0.4,0.7-0.8,0.8c-0.3,0.2-0.8,0.3-1.2,0.3c-0.4,0-0.9-0.1-1.3-0.3s-0.7-0.5-0.9-1
			c-0.2-0.4-0.3-0.9-0.3-1.4C189.6,38.1,189.7,37.7,190,37.2z M193.8,37.7c-0.1-0.2-0.4-0.5-0.7-0.7c-0.2-0.1-0.7-0.2-0.9-0.2
			c-0.3,0-0.7,0.1-0.9,0.2c-0.2,0.1-0.4,0.4-0.7,0.7c-0.1,0.2-0.2,0.7-0.2,1.1s0.1,0.8,0.2,1.1c0.1,0.2,0.4,0.5,0.7,0.7
			c0.2,0.1,0.7,0.2,0.9,0.2c0.3,0,0.7-0.1,0.9-0.2c0.2-0.1,0.4-0.4,0.7-0.7c0.1-0.2,0.2-0.7,0.2-1.1C194.1,38.3,194,37.9,193.8,37.7
			z"/>
		<path class="st0" d="M201.5,36v5.4h-0.9v-0.8c-0.2,0.2-0.4,0.4-0.7,0.7c-0.2,0.1-0.7,0.2-1,0.2c-0.4,0-0.8-0.1-1.1-0.2
			c-0.3-0.2-0.7-0.4-0.8-0.8c-0.2-0.3-0.2-0.8-0.2-1.3V36h0.9v3.1c0,0.5,0.1,1,0.4,1.2c0.2,0.2,0.7,0.4,1.1,0.4s0.9-0.1,1.1-0.4
			c0.2-0.2,0.4-0.8,0.4-1.3v-2.8L201.5,36L201.5,36z"/>
		<path class="st0" d="M204,41.3c-0.3-0.1-0.7-0.3-0.8-0.7c-0.2-0.2-0.2-0.5-0.3-0.9h1c0,0.2,0.1,0.4,0.4,0.7
			c0.2,0.1,0.5,0.2,0.9,0.2s0.7-0.1,0.8-0.2c0.2-0.1,0.2-0.3,0.2-0.5c0-0.2-0.1-0.4-0.3-0.5c-0.2-0.1-0.5-0.2-1-0.3s-0.8-0.2-1-0.3
			c-0.2-0.1-0.4-0.2-0.7-0.4s-0.2-0.4-0.2-0.8c0-0.2,0.1-0.5,0.2-0.8s0.4-0.4,0.7-0.5s0.7-0.2,1-0.2c0.7,0,1.1,0.1,1.4,0.4
			c0.3,0.2,0.5,0.7,0.7,1.2H206c0-0.2-0.1-0.4-0.3-0.7c-0.2-0.1-0.4-0.2-0.8-0.2c-0.3,0-0.5,0.1-0.8,0.2c-0.2,0.1-0.2,0.3-0.2,0.5
			s0.1,0.3,0.2,0.4c0.1,0.1,0.2,0.2,0.4,0.2c0.2,0.1,0.4,0.1,0.8,0.2c0.4,0.1,0.7,0.2,1,0.3s0.4,0.2,0.7,0.4
			c0.2,0.2,0.2,0.4,0.2,0.8c0,0.2-0.1,0.5-0.2,0.8c-0.1,0.2-0.4,0.4-0.7,0.5c-0.2,0.1-0.7,0.2-1,0.2C204.6,41.5,204.3,41.4,204,41.3
			z"/>
		<path class="st0" d="M209.5,36.8V40c0,0.2,0.1,0.4,0.1,0.5c0.1,0.1,0.2,0.1,0.7,0.1h0.7v0.8h-0.8c-0.4,0-0.9-0.1-1.1-0.3
			c-0.2-0.2-0.3-0.7-0.3-1.1v-3.2h-0.7V36h0.7v-1.3h0.9V36h1.4v0.8H209.5L209.5,36.8z"/>
		<path class="st0" d="M213.9,36.2c0.2-0.1,0.7-0.2,1.1-0.2v1h-0.2c-1,0-1.5,0.5-1.5,1.6v2.8h-0.9v-5.4h0.9V37
			C213.4,36.7,213.6,36.3,213.9,36.2z"/>
		<path class="st0" d="M216.2,35c-0.1-0.1-0.2-0.2-0.2-0.4s0.1-0.3,0.2-0.4c0.1-0.1,0.2-0.2,0.4-0.2c0.1,0,0.2,0.1,0.4,0.2
			c0.1,0.1,0.2,0.2,0.2,0.4c0,0.1-0.1,0.3-0.2,0.4c-0.1,0.1-0.2,0.2-0.4,0.2C216.5,35.1,216.3,35.1,216.2,35z M217.1,36v5.4h-0.9V36
			H217.1z"/>
		<path class="st0" d="M223.7,39.1h-4.3c0,0.5,0.2,1,0.5,1.2c0.3,0.2,0.8,0.4,1.2,0.4c0.4,0,0.7-0.1,1-0.2c0.2-0.2,0.4-0.4,0.5-0.8
			h1c-0.1,0.5-0.4,1-0.9,1.3c-0.4,0.3-1,0.4-1.6,0.4c-0.4,0-1-0.1-1.3-0.3c-0.4-0.2-0.8-0.5-1-1c-0.2-0.4-0.3-0.9-0.3-1.5
			c0-0.5,0.1-1,0.3-1.4c0.2-0.4,0.5-0.8,1-1s0.9-0.3,1.3-0.3s1,0.1,1.3,0.3c0.4,0.2,0.7,0.5,0.9,0.9c0.2,0.4,0.3,0.8,0.3,1.3
			C223.8,38.6,223.8,38.9,223.7,39.1z M222.6,37.4c-0.1-0.2-0.3-0.4-0.7-0.5c-0.2-0.1-0.5-0.2-0.9-0.2c-0.4,0-0.8,0.1-1.1,0.4
			c-0.3,0.2-0.4,0.7-0.5,1.2h3.4C222.8,38,222.7,37.8,222.6,37.4z"/>
		<path class="st0" d="M225.9,41.3c-0.3-0.1-0.7-0.3-0.8-0.7c-0.2-0.2-0.2-0.5-0.3-0.9h1c0,0.2,0.1,0.4,0.4,0.7
			c0.2,0.2,0.5,0.2,0.9,0.2c0.3,0,0.7-0.1,0.8-0.2c0.2-0.1,0.2-0.3,0.2-0.5c0-0.2-0.1-0.4-0.3-0.5c-0.2-0.1-0.5-0.2-1-0.3
			c-0.4-0.1-0.8-0.2-1-0.3c-0.2-0.1-0.4-0.2-0.7-0.4c-0.2-0.2-0.2-0.4-0.2-0.8c0-0.2,0.1-0.5,0.2-0.8c0.1-0.2,0.4-0.4,0.7-0.5
			c0.2-0.1,0.7-0.2,1-0.2c0.7,0,1.1,0.1,1.4,0.4c0.3,0.2,0.5,0.7,0.7,1.2H228c0-0.2-0.1-0.4-0.3-0.7c-0.2-0.2-0.4-0.2-0.8-0.2
			c-0.3,0-0.5,0.1-0.8,0.2c-0.2,0.1-0.2,0.3-0.2,0.5s0.1,0.3,0.2,0.4c0.1,0.1,0.2,0.2,0.4,0.2c0.2,0.1,0.4,0.1,0.8,0.2
			c0.4,0.1,0.7,0.2,1,0.3s0.4,0.2,0.7,0.4s0.2,0.4,0.2,0.8c0,0.2-0.1,0.5-0.2,0.8s-0.4,0.4-0.7,0.5s-0.7,0.2-1,0.2
			C226.6,41.5,226.2,41.4,225.9,41.3z"/>
		<path class="st0" d="M231.4,40.2l-1.1,2.6h-0.7l0.8-2.6H231.4z"/>
		<path class="st0" d="M242.4,34.7v6.8h-0.9v-5l-2.2,5h-0.7l-2.2-5v5h-0.9v-6.8h1l2.5,5.5l2.5-5.5H242.4z"/>
		<path class="st0" d="M243.9,35c-0.1-0.1-0.2-0.2-0.2-0.4s0.1-0.3,0.2-0.4c0.1-0.1,0.2-0.2,0.4-0.2c0.1,0,0.2,0.1,0.4,0.2
			c0.1,0.1,0.2,0.2,0.2,0.4c0,0.1-0.1,0.3-0.2,0.4c-0.1,0.1-0.2,0.2-0.4,0.2C244.1,35.1,244,35.1,243.9,35z M244.8,36v5.4h-0.9V36
			H244.8z"/>
		<path class="st0" d="M250.3,36.6c0.4,0.4,0.7,1,0.7,1.6v3.2h-0.9v-3.1c0-0.5-0.1-1-0.4-1.2c-0.2-0.2-0.7-0.4-1.1-0.4
			s-0.8,0.1-1.1,0.4c-0.2,0.2-0.4,0.8-0.4,1.3v3h-0.9V36h0.9v0.8c0.2-0.2,0.4-0.4,0.8-0.7c0.2-0.1,0.7-0.2,1-0.2
			C249.5,36,250,36.1,250.3,36.6z"/>
		<path class="st0" d="M252.5,35c-0.1-0.1-0.2-0.2-0.2-0.4s0.1-0.3,0.2-0.4c0.1-0.1,0.2-0.2,0.4-0.2c0.1,0,0.2,0.1,0.4,0.2
			c0.1,0.1,0.2,0.2,0.2,0.4c0,0.1-0.1,0.3-0.2,0.4c-0.1,0.1-0.2,0.2-0.4,0.2C252.7,35.1,252.6,35.1,252.5,35z M253.4,36v5.4h-0.9V36
			H253.4z"/>
		<path class="st0" d="M255.7,41.3c-0.3-0.1-0.7-0.3-0.8-0.7c-0.2-0.2-0.2-0.5-0.3-0.9h1c0,0.2,0.1,0.4,0.4,0.7
			c0.2,0.1,0.5,0.2,0.9,0.2s0.7-0.1,0.8-0.2c0.2-0.1,0.2-0.3,0.2-0.5c0-0.2-0.1-0.4-0.3-0.5s-0.5-0.2-1-0.3s-0.8-0.2-1-0.3
			c-0.2-0.1-0.4-0.2-0.7-0.4s-0.2-0.4-0.2-0.8c0-0.2,0.1-0.5,0.2-0.8c0.1-0.2,0.4-0.4,0.7-0.5s0.7-0.2,1-0.2c0.7,0,1.1,0.1,1.4,0.4
			c0.3,0.2,0.5,0.7,0.7,1.2h-0.9c0-0.2-0.1-0.4-0.3-0.7c-0.2-0.1-0.4-0.2-0.8-0.2s-0.5,0.1-0.8,0.2c-0.2,0.1-0.2,0.3-0.2,0.5
			s0.1,0.3,0.2,0.4c0.1,0.1,0.2,0.2,0.4,0.2c0.2,0.1,0.4,0.1,0.8,0.2c0.4,0.1,0.7,0.2,1,0.3c0.2,0.1,0.4,0.2,0.7,0.4
			c0.2,0.2,0.2,0.4,0.2,0.8c0,0.2-0.1,0.5-0.2,0.8s-0.4,0.4-0.7,0.5c-0.2,0.1-0.7,0.2-1,0.2C256.4,41.5,255.9,41.4,255.7,41.3z"/>
		<path class="st0" d="M260.9,36.8V40c0,0.2,0.1,0.4,0.1,0.5c0.1,0.1,0.2,0.1,0.7,0.1h0.7v0.8h-0.8c-0.4,0-0.9-0.1-1.1-0.3
			s-0.3-0.7-0.3-1.1v-3.2h-0.7V36h0.7v-1.3h0.9V36h1.4v0.8H260.9L260.9,36.8z"/>
		<path class="st0" d="M265,36.2c0.2-0.1,0.7-0.2,1.1-0.2v1h-0.2c-1,0-1.5,0.5-1.5,1.6v2.8h-0.9v-5.4h0.9V37
			C264.4,36.7,264.7,36.3,265,36.2z"/>
		<path class="st0" d="M271.6,36l-3.3,7.8h-1l1.1-2.5l-2.2-5.2h1l1.6,4.3l1.6-4.3C270.7,36,271.6,36,271.6,36z"/>
		<path class="st0" d="M276,41c-0.4-0.2-0.8-0.5-1-1c-0.2-0.4-0.3-0.9-0.3-1.5c0-0.5,0.1-1,0.3-1.4c0.2-0.4,0.5-0.8,1-1
			c0.4-0.2,0.9-0.3,1.3-0.3c0.4,0,1,0.1,1.3,0.3c0.4,0.2,0.8,0.5,1,1s0.3,0.9,0.3,1.4s-0.1,1-0.3,1.5c-0.2,0.4-0.5,0.8-1,1
			c-0.4,0.2-0.9,0.3-1.3,0.3C276.9,41.5,276.5,41.4,276,41z M278.3,40.5c0.2-0.1,0.4-0.4,0.7-0.7c0.2-0.2,0.2-0.7,0.2-1.1
			s-0.1-0.8-0.2-1.1c-0.1-0.2-0.4-0.5-0.7-0.7c-0.2-0.1-0.5-0.2-0.9-0.2s-0.7,0.1-0.9,0.2c-0.2,0.1-0.4,0.3-0.7,0.7
			c-0.1,0.2-0.2,0.7-0.2,1.1s0.1,0.8,0.2,1.1c0.1,0.2,0.3,0.5,0.7,0.7c0.2,0.1,0.5,0.2,0.9,0.2C277.7,40.7,278.1,40.6,278.3,40.5z"
			/>
		<path class="st0" d="M283.5,36.8h-1.1v4.6h-0.9v-4.6h-0.8V36h0.7v-0.4c0-0.7,0.1-1,0.4-1.3c0.3-0.2,0.8-0.4,1.5-0.4v0.8
			c-0.4,0-0.7,0.1-0.8,0.2c-0.1,0.1-0.2,0.4-0.2,0.8V36h1.1L283.5,36.8L283.5,36.8z"/>
		<path class="st0" d="M291.1,35c0.5,0.2,1,0.7,1.2,1.2c0.2,0.5,0.4,1.1,0.4,1.9c0,0.7-0.1,1.3-0.4,1.9c-0.2,0.5-0.7,0.9-1.2,1.1
			s-1.2,0.4-1.9,0.4h-2.1v-6.8h2.1C289.9,34.6,290.6,34.7,291.1,35z M291.2,40c0.4-0.4,0.7-1.1,0.7-2c0-0.8-0.2-1.5-0.7-2
			c-0.4-0.4-1.1-0.8-2-0.8h-1.2v5.4h1.2C290,40.6,290.7,40.4,291.2,40z"/>
		<path class="st0" d="M294,35c-0.1-0.1-0.2-0.2-0.2-0.4s0.1-0.3,0.2-0.4c0.1-0.1,0.2-0.2,0.4-0.2s0.2,0.1,0.4,0.2
			c0.1,0.1,0.2,0.2,0.2,0.4c0,0.1-0.1,0.3-0.2,0.4c-0.1,0.1-0.2,0.2-0.4,0.2C294.2,35.1,294.1,35.1,294,35z M294.8,36v5.4H294V36
			H294.8z"/>
		<path class="st0" d="M299.8,36.2c0.3,0.2,0.7,0.4,0.8,0.8v-1h0.9v5.5c0,0.4-0.1,1-0.3,1.3c-0.2,0.4-0.4,0.7-0.9,0.9
			c-0.4,0.2-0.8,0.3-1.3,0.3c-0.7,0-1.3-0.1-1.7-0.4c-0.4-0.3-0.8-0.8-0.8-1.3h0.9c0.1,0.3,0.2,0.7,0.7,0.8c0.3,0.2,0.7,0.2,1.1,0.2
			c0.4,0,0.9-0.1,1.2-0.4s0.4-0.8,0.4-1.3v-1.1c-0.2,0.3-0.4,0.5-0.8,0.8c-0.3,0.2-0.8,0.3-1.2,0.3c-0.4,0-0.9-0.1-1.3-0.3
			c-0.4-0.2-0.7-0.5-0.9-1s-0.3-0.9-0.3-1.4s0.1-1,0.3-1.4c0.2-0.4,0.5-0.8,0.9-1c0.4-0.2,0.8-0.3,1.3-0.3
			C299,36,299.4,36,299.8,36.2z M300.3,37.7c-0.1-0.2-0.4-0.5-0.7-0.7c-0.2-0.1-0.7-0.2-0.9-0.2c-0.3,0-0.7,0.1-0.9,0.2
			c-0.2,0.1-0.4,0.4-0.7,0.7c-0.1,0.2-0.2,0.7-0.2,1.1s0.1,0.8,0.2,1.1c0.1,0.2,0.4,0.5,0.7,0.7s0.7,0.2,0.9,0.2
			c0.3,0,0.7-0.1,0.9-0.2c0.2-0.1,0.4-0.4,0.7-0.7c0.1-0.2,0.2-0.7,0.2-1.1S300.4,37.9,300.3,37.7z"/>
		<path class="st0" d="M302.9,35c-0.1-0.1-0.2-0.2-0.2-0.4s0.1-0.3,0.2-0.4c0.1-0.1,0.2-0.2,0.4-0.2c0.2,0,0.2,0.1,0.4,0.2
			c0.1,0.1,0.2,0.2,0.2,0.4c0,0.1-0.1,0.3-0.2,0.4c-0.1,0.1-0.2,0.2-0.4,0.2C303.2,35.1,303.1,35.1,302.9,35z M303.8,36v5.4h-0.9V36
			H303.8z"/>
		<path class="st0" d="M306.3,36.8V40c0,0.2,0.1,0.4,0.1,0.5c0.1,0.1,0.2,0.1,0.7,0.1h0.7v0.8H307c-0.4,0-0.9-0.1-1.1-0.3
			c-0.2-0.2-0.3-0.7-0.3-1.1v-3.2h-0.7V36h0.7v-1.3h0.9V36h1.4v0.8H306.3L306.3,36.8z"/>
		<path class="st0" d="M308.8,37.2c0.2-0.4,0.5-0.8,0.9-1c0.4-0.2,0.8-0.3,1.3-0.3c0.4,0,0.9,0.1,1.2,0.2c0.3,0.2,0.7,0.4,0.8,0.8
			V36h0.9v5.4H313v-1c-0.2,0.3-0.4,0.5-0.8,0.8c-0.3,0.2-0.8,0.3-1.2,0.3c-0.4,0-0.9-0.1-1.3-0.3s-0.7-0.5-0.9-1
			c-0.2-0.4-0.3-0.9-0.3-1.4C308.5,38.1,308.5,37.7,308.8,37.2z M312.8,37.7c-0.1-0.2-0.4-0.5-0.7-0.7c-0.2-0.1-0.7-0.2-0.9-0.2
			c-0.3,0-0.7,0.1-0.9,0.2c-0.2,0.1-0.4,0.4-0.7,0.7c-0.1,0.2-0.2,0.7-0.2,1.1s0.1,0.8,0.2,1.1c0.1,0.2,0.4,0.5,0.7,0.7
			s0.7,0.2,0.9,0.2c0.3,0,0.7-0.1,0.9-0.2c0.2-0.1,0.4-0.4,0.7-0.7c0.1-0.2,0.2-0.7,0.2-1.1S312.9,37.9,312.8,37.7z"/>
		<path class="st0" d="M316.3,34.3v7.2h-0.9v-7.2H316.3z"/>
		<path class="st0" d="M324.3,39.8h-3l-0.5,1.5h-1l2.4-6.8h1l2.4,6.8h-1L324.3,39.8z M324.2,39.1l-1.2-3.4l-1.2,3.4H324.2z"/>
		<path class="st0" d="M329.1,36.8H328v4.6h-0.9v-4.6h-0.7V36h0.7v-0.4c0-0.7,0.1-1,0.4-1.3c0.3-0.2,0.8-0.4,1.5-0.4v0.8
			c-0.4,0-0.7,0.1-0.8,0.2c-0.1,0.1-0.2,0.4-0.2,0.8V36h1.1v0.8H329.1z"/>
		<path class="st0" d="M332.3,36.8h-1.1v4.6h-0.9v-4.6h-0.7V36h0.7v-0.4c0-0.7,0.1-1,0.4-1.3c0.3-0.2,0.8-0.4,1.5-0.4v0.8
			c-0.4,0-0.7,0.1-0.8,0.2c-0.1,0.1-0.2,0.4-0.2,0.8V36h1.1L332.3,36.8L332.3,36.8z"/>
		<path class="st0" d="M333.2,37.2c0.2-0.4,0.5-0.8,0.9-1c0.4-0.2,0.8-0.3,1.3-0.3c0.5,0,0.9,0.1,1.2,0.2c0.3,0.2,0.7,0.4,0.8,0.8
			V36h0.9v5.4h-0.9v-1c-0.2,0.3-0.4,0.5-0.8,0.8c-0.3,0.2-0.8,0.3-1.2,0.3c-0.4,0-0.9-0.1-1.3-0.3s-0.7-0.5-0.9-1
			c-0.2-0.4-0.3-0.9-0.3-1.4C332.9,38.1,333,37.7,333.2,37.2z M337.2,37.7c-0.1-0.2-0.4-0.5-0.7-0.7c-0.2-0.1-0.7-0.2-0.9-0.2
			c-0.3,0-0.7,0.1-0.9,0.2c-0.2,0.1-0.4,0.4-0.7,0.7c-0.1,0.2-0.2,0.7-0.2,1.1s0.1,0.8,0.2,1.1c0.1,0.2,0.4,0.5,0.7,0.7
			s0.7,0.2,0.9,0.2c0.3,0,0.7-0.1,0.9-0.2c0.2-0.1,0.4-0.4,0.7-0.7c0.1-0.2,0.2-0.7,0.2-1.1C337.4,38.3,337.4,37.9,337.2,37.7z"/>
		<path class="st0" d="M339.9,35c-0.1-0.1-0.2-0.2-0.2-0.4s0.1-0.3,0.2-0.4c0.1-0.1,0.2-0.2,0.4-0.2c0.2,0,0.2,0.1,0.4,0.2
			c0.1,0.1,0.2,0.2,0.2,0.4c0,0.1-0.1,0.3-0.2,0.4c-0.1,0.1-0.2,0.2-0.4,0.2C340.1,35.1,340,35.1,339.9,35z M340.7,36v5.4h-0.9V36
			H340.7z"/>
		<path class="st0" d="M343.7,36.2c0.2-0.1,0.7-0.2,1.1-0.2v1h-0.2c-1,0-1.5,0.5-1.5,1.6v2.8h-0.9v-5.4h0.9V37
			C343.2,36.7,343.5,36.3,343.7,36.2z"/>
		<path class="st0" d="M346.6,41.3c-0.3-0.1-0.7-0.3-0.8-0.7c-0.2-0.2-0.2-0.5-0.3-0.9h1c0,0.2,0.1,0.4,0.4,0.7
			c0.2,0.2,0.5,0.2,0.9,0.2c0.3,0,0.7-0.1,0.8-0.2c0.2-0.1,0.2-0.3,0.2-0.5c0-0.2-0.1-0.4-0.3-0.5c-0.2-0.1-0.5-0.2-1-0.3
			c-0.4-0.1-0.8-0.2-1-0.3s-0.4-0.2-0.7-0.4s-0.2-0.4-0.2-0.8c0-0.2,0.1-0.5,0.2-0.8s0.4-0.4,0.7-0.5c0.2-0.1,0.7-0.2,1-0.2
			c0.7,0,1.1,0.1,1.4,0.4c0.3,0.2,0.5,0.7,0.7,1.2h-0.9c0-0.2-0.1-0.4-0.3-0.7c-0.2-0.2-0.4-0.2-0.8-0.2c-0.3,0-0.5,0.1-0.8,0.2
			c-0.2,0.1-0.2,0.3-0.2,0.5s0.1,0.3,0.2,0.4c0.1,0.1,0.2,0.2,0.4,0.2c0.2,0.1,0.4,0.1,0.8,0.2c0.4,0.1,0.7,0.2,1,0.3
			c0.2,0.1,0.4,0.2,0.7,0.4c0.2,0.2,0.2,0.4,0.2,0.8c0,0.2-0.1,0.5-0.2,0.8c-0.1,0.2-0.4,0.4-0.7,0.5c-0.2,0.1-0.7,0.2-1,0.2
			C347.2,41.5,346.9,41.4,346.6,41.3z"/>
	</g>
</g>
</svg>
