<?xml version="1.0" encoding="utf-8"?>
<!-- Generator: Adobe Illustrator 26.4.1, SVG Export Plug-In . SVG Version: 6.00 Build 0)  -->
<svg version="1.1" id="圖層_1" xmlns="http://www.w3.org/2000/svg" xmlns:xlink="http://www.w3.org/1999/xlink" x="0px" y="0px"
	 width="350px" height="44px" viewBox="0 0 350 44" style="enable-background:new 0 0 350 44;" xml:space="preserve">
<style type="text/css">
	.st0{fill:#1F333D;}
	.st1{fill:#B3C33E;}
</style>
<g>
	<g>
		<g id="adi_logo-H-standard-CN_x2B_EN_00000032611966857925358810000000212755863589885318_">
			<g>
				<path class="st0" d="M8.7,22c0-7.2,5.9-13.1,13.1-13.1l5,0V0.1c-4,0-5.1-0.3-9.3,0.5c0,0-0.1,0-0.1,0C7.5,2.6,0,11.4,0,22
					c0,12,9.8,22,21.9,22h22.1V0.1h-8.5v35.1l-13.6-0.1C14.6,35.1,8.7,29.2,8.7,22z"/>
				<path class="st1" d="M17.1,22.2c0,2.8,2.1,4.7,4.9,4.7h4.9v-9.8h-4.7C19.4,17.1,17.1,19.4,17.1,22.2z"/>
				<rect x="48.7" y="15.9" class="st0" width="9.8" height="28.1"/>
				<polygon class="st1" points="48.8,0.1 57.3,0.1 57.3,2.5 51.3,2.5 51.3,7.4 57.3,7.4 57.3,9.8 48.8,9.8 				"/>
				<polygon class="st0" points="61,3.6 52.5,3.6 52.5,6.1 58.6,6.1 58.6,11 52.5,11 52.5,13.4 61,13.4 				"/>
			</g>
		</g>
	</g>
	<g>
		<path class="st0" d="M74,15.7h-4.7l-0.9,2.4H67l3.9-10.8h1.6l3.9,10.8h-1.5L74,15.7z M73.6,14.6l-2-5.5l-2,5.5H73.6z"/>
		<path class="st0" d="M78.1,11.6c0.4-0.7,0.8-1.2,1.5-1.5c0.6-0.4,1.3-0.5,2.1-0.5c0.7,0,1.3,0.2,1.8,0.5c0.6,0.3,1,0.7,1.3,1.2
			V6.7h1.4v11.5h-1.4v-1.6c-0.3,0.5-0.7,0.9-1.2,1.2c-0.5,0.3-1.2,0.5-1.9,0.5c-0.8,0-1.4-0.2-2.1-0.6c-0.6-0.4-1.1-0.9-1.5-1.6
			c-0.4-0.7-0.5-1.4-0.5-2.3C77.6,13,77.8,12.2,78.1,11.6z M84.4,12.2c-0.3-0.5-0.6-0.8-1-1.1c-0.4-0.3-0.9-0.4-1.5-0.4
			c-0.5,0-1,0.1-1.4,0.4c-0.4,0.2-0.8,0.6-1,1.1c-0.3,0.5-0.4,1-0.4,1.7c0,0.7,0.1,1.2,0.4,1.7c0.3,0.5,0.6,0.8,1,1.1
			c0.4,0.3,0.9,0.4,1.4,0.4c0.5,0,1-0.1,1.5-0.4c0.4-0.3,0.8-0.6,1-1.1s0.4-1,0.4-1.7C84.8,13.2,84.7,12.7,84.4,12.2z"/>
		<path class="st0" d="M100.6,9.9c0.5,0.3,0.9,0.7,1.2,1.2c0.3,0.5,0.5,1.2,0.5,2v5h-1.4v-4.8c0-0.8-0.2-1.5-0.6-1.9
			c-0.4-0.5-1-0.7-1.7-0.7c-0.7,0-1.3,0.2-1.8,0.7c-0.4,0.5-0.7,1.2-0.7,2v4.7h-1.4v-4.8c0-0.8-0.2-1.5-0.6-1.9
			c-0.4-0.5-1-0.7-1.7-0.7c-0.7,0-1.3,0.2-1.8,0.7c-0.4,0.5-0.7,1.2-0.7,2v4.7h-1.4V9.6H90v1.2c0.3-0.4,0.7-0.8,1.1-1
			c0.5-0.2,1-0.4,1.6-0.4c0.7,0,1.3,0.2,1.9,0.5c0.5,0.3,1,0.8,1.2,1.4c0.2-0.6,0.6-1.1,1.2-1.4c0.5-0.3,1.2-0.5,1.8-0.5
			C99.5,9.5,100.1,9.6,100.6,9.9z"/>
		<path class="st0" d="M104.7,8c-0.2-0.2-0.3-0.4-0.3-0.7c0-0.3,0.1-0.5,0.3-0.7c0.2-0.2,0.4-0.3,0.7-0.3c0.3,0,0.5,0.1,0.7,0.3
			c0.2,0.2,0.3,0.4,0.3,0.7c0,0.3-0.1,0.5-0.3,0.7s-0.4,0.3-0.7,0.3C105.1,8.3,104.8,8.2,104.7,8z M106,9.6v8.5h-1.4V9.6H106z"/>
		<path class="st0" d="M115.1,10.4c0.6,0.6,1,1.5,1,2.7v5h-1.4v-4.8c0-0.8-0.2-1.5-0.6-1.9c-0.4-0.5-1-0.7-1.7-0.7
			c-0.7,0-1.3,0.2-1.8,0.7c-0.4,0.5-0.7,1.1-0.7,2v4.7h-1.4V9.6h1.4v1.2c0.3-0.4,0.7-0.8,1.1-1c0.5-0.2,1-0.4,1.6-0.4
			C113.6,9.5,114.4,9.8,115.1,10.4z"/>
		<path class="st0" d="M118.4,8c-0.2-0.2-0.3-0.4-0.3-0.7c0-0.3,0.1-0.5,0.3-0.7c0.2-0.2,0.4-0.3,0.7-0.3c0.3,0,0.5,0.1,0.7,0.3
			c0.2,0.2,0.3,0.4,0.3,0.7c0,0.3-0.1,0.5-0.3,0.7s-0.4,0.3-0.7,0.3C118.8,8.3,118.6,8.2,118.4,8z M119.8,9.6v8.5h-1.4V9.6H119.8z"
			/>
		<path class="st0" d="M123.4,18c-0.5-0.2-0.9-0.5-1.2-0.9c-0.3-0.4-0.5-0.9-0.5-1.4h1.5c0,0.4,0.2,0.8,0.6,1
			c0.4,0.3,0.8,0.4,1.4,0.4c0.5,0,1-0.1,1.3-0.4c0.3-0.2,0.5-0.5,0.5-0.9c0-0.4-0.2-0.6-0.5-0.8c-0.3-0.2-0.8-0.4-1.5-0.5
			c-0.6-0.2-1.1-0.3-1.5-0.5c-0.4-0.2-0.7-0.4-1-0.8c-0.3-0.3-0.4-0.8-0.4-1.3c0-0.4,0.1-0.8,0.4-1.2c0.3-0.4,0.6-0.6,1.1-0.9
			c0.5-0.2,1-0.3,1.6-0.3c0.9,0,1.7,0.2,2.3,0.7c0.6,0.5,0.9,1.1,0.9,2h-1.4c0-0.4-0.2-0.8-0.5-1.1c-0.3-0.3-0.8-0.4-1.3-0.4
			c-0.5,0-0.9,0.1-1.2,0.3c-0.3,0.2-0.5,0.5-0.5,0.9c0,0.3,0.1,0.5,0.3,0.7c0.2,0.2,0.4,0.3,0.7,0.4c0.3,0.1,0.7,0.2,1.1,0.4
			c0.6,0.2,1.1,0.3,1.5,0.5c0.4,0.2,0.7,0.4,1,0.7c0.3,0.3,0.4,0.7,0.4,1.3c0,0.5-0.1,0.9-0.4,1.3c-0.3,0.4-0.6,0.7-1.1,0.9
			s-1,0.3-1.6,0.3C124.5,18.3,124,18.2,123.4,18z"/>
		<path class="st0" d="M132,10.8v5c0,0.4,0.1,0.7,0.3,0.9c0.2,0.2,0.5,0.3,0.9,0.3h1v1.2H133c-0.8,0-1.4-0.2-1.8-0.5
			c-0.4-0.4-0.6-1-0.6-1.8v-5h-1.1V9.6h1.1V7.5h1.4v2.1h2.2v1.2H132z"/>
		<path class="st0" d="M138.4,9.9c0.5-0.3,1-0.4,1.7-0.4v1.5h-0.4c-1.6,0-2.4,0.9-2.4,2.6v4.6h-1.4V9.6h1.4V11
			C137.6,10.5,138,10.2,138.4,9.9z"/>
		<path class="st0" d="M141.7,11.6c0.4-0.7,0.8-1.2,1.5-1.5c0.6-0.4,1.3-0.5,2.1-0.5c0.7,0,1.4,0.2,1.9,0.5c0.5,0.3,1,0.7,1.2,1.2
			V9.6h1.4v8.5h-1.4v-1.6c-0.3,0.5-0.7,0.9-1.2,1.2c-0.6,0.3-1.2,0.5-1.9,0.5c-0.8,0-1.4-0.2-2-0.6c-0.6-0.4-1.1-0.9-1.4-1.6
			s-0.5-1.4-0.5-2.3C141.2,13,141.4,12.2,141.7,11.6z M148,12.2c-0.3-0.5-0.6-0.8-1-1.1c-0.4-0.3-0.9-0.4-1.5-0.4
			c-0.5,0-1,0.1-1.4,0.4c-0.4,0.2-0.8,0.6-1,1.1s-0.4,1-0.4,1.7c0,0.7,0.1,1.2,0.4,1.7s0.6,0.8,1,1.1c0.4,0.3,0.9,0.4,1.4,0.4
			c0.5,0,1-0.1,1.5-0.4c0.4-0.3,0.8-0.6,1-1.1c0.3-0.5,0.4-1,0.4-1.7C148.4,13.2,148.3,12.7,148,12.2z"/>
		<path class="st0" d="M153.9,10.8v5c0,0.4,0.1,0.7,0.3,0.9c0.2,0.2,0.5,0.3,0.9,0.3h1v1.2h-1.3c-0.8,0-1.4-0.2-1.8-0.5
			c-0.4-0.4-0.6-1-0.6-1.8v-5h-1.1V9.6h1.1V7.5h1.4v2.1h2.2v1.2H153.9z"/>
		<path class="st0" d="M157.9,8c-0.2-0.2-0.3-0.4-0.3-0.7c0-0.3,0.1-0.5,0.3-0.7c0.2-0.2,0.4-0.3,0.7-0.3c0.3,0,0.5,0.1,0.7,0.3
			c0.2,0.2,0.3,0.4,0.3,0.7c0,0.3-0.1,0.5-0.3,0.7c-0.2,0.2-0.4,0.3-0.7,0.3C158.3,8.3,158.1,8.2,157.9,8z M159.3,9.6v8.5h-1.4V9.6
			H159.3z"/>
		<path class="st0" d="M163.2,17.7c-0.6-0.4-1.2-0.9-1.5-1.5c-0.4-0.7-0.6-1.4-0.6-2.3c0-0.9,0.2-1.6,0.6-2.3
			c0.4-0.7,0.9-1.2,1.5-1.5c0.7-0.4,1.4-0.5,2.2-0.5c0.8,0,1.5,0.2,2.2,0.5c0.7,0.4,1.2,0.9,1.5,1.5c0.4,0.7,0.6,1.4,0.6,2.3
			c0,0.9-0.2,1.7-0.6,2.3c-0.4,0.7-0.9,1.2-1.6,1.5c-0.7,0.4-1.4,0.5-2.2,0.5C164.6,18.3,163.9,18.1,163.2,17.7z M166.8,16.7
			c0.4-0.2,0.8-0.6,1.1-1.1c0.3-0.5,0.4-1.1,0.4-1.7c0-0.7-0.1-1.3-0.4-1.7c-0.3-0.5-0.6-0.8-1.1-1.1c-0.4-0.2-0.9-0.3-1.4-0.3
			c-0.5,0-1,0.1-1.4,0.3c-0.4,0.2-0.8,0.6-1,1.1c-0.3,0.5-0.4,1.1-0.4,1.7c0,0.7,0.1,1.3,0.4,1.8c0.3,0.5,0.6,0.8,1,1.1
			c0.4,0.2,0.9,0.3,1.4,0.3C165.9,17.1,166.4,16.9,166.8,16.7z"/>
		<path class="st0" d="M178.3,10.4c0.6,0.6,1,1.5,1,2.7v5h-1.4v-4.8c0-0.8-0.2-1.5-0.6-1.9c-0.4-0.5-1-0.7-1.7-0.7
			c-0.7,0-1.3,0.2-1.8,0.7c-0.4,0.5-0.7,1.1-0.7,2v4.7h-1.4V9.6h1.4v1.2c0.3-0.4,0.7-0.8,1.1-1c0.5-0.2,1-0.4,1.6-0.4
			C176.8,9.5,177.6,9.8,178.3,10.4z"/>
		<path class="st0" d="M189.2,10.8h-1.8v7.3H186v-7.3h-1.1V9.6h1.1V9c0-1,0.2-1.6,0.7-2.1c0.5-0.4,1.3-0.7,2.4-0.7v1.2
			c-0.6,0-1.1,0.1-1.3,0.4c-0.3,0.2-0.4,0.6-0.4,1.2v0.6h1.8V10.8z"/>
		<path class="st0" d="M192.4,17.7c-0.6-0.4-1.2-0.9-1.5-1.5c-0.4-0.7-0.6-1.4-0.6-2.3c0-0.9,0.2-1.6,0.6-2.3
			c0.4-0.7,0.9-1.2,1.5-1.5c0.7-0.4,1.4-0.5,2.2-0.5c0.8,0,1.5,0.2,2.2,0.5c0.7,0.4,1.2,0.9,1.5,1.5c0.4,0.7,0.6,1.4,0.6,2.3
			c0,0.9-0.2,1.7-0.6,2.3c-0.4,0.7-0.9,1.2-1.6,1.5c-0.7,0.4-1.4,0.5-2.2,0.5C193.7,18.3,193,18.1,192.4,17.7z M196,16.7
			c0.4-0.2,0.8-0.6,1.1-1.1c0.3-0.5,0.4-1.1,0.4-1.7c0-0.7-0.1-1.3-0.4-1.7c-0.3-0.5-0.6-0.8-1.1-1.1c-0.4-0.2-0.9-0.3-1.4-0.3
			c-0.5,0-1,0.1-1.4,0.3c-0.4,0.2-0.8,0.6-1,1.1s-0.4,1.1-0.4,1.7c0,0.7,0.1,1.3,0.4,1.8c0.3,0.5,0.6,0.8,1,1.1
			c0.4,0.2,0.9,0.3,1.4,0.3S195.5,16.9,196,16.7z"/>
		<path class="st0" d="M203.2,9.9c0.5-0.3,1-0.4,1.7-0.4v1.5h-0.4c-1.6,0-2.4,0.9-2.4,2.6v4.6h-1.4V9.6h1.4V11
			C202.4,10.5,202.8,10.2,203.2,9.9z"/>
		<path class="st0" d="M74.1,26.6c0.9,0.4,1.5,1.1,2,1.9c0.5,0.8,0.7,1.8,0.7,2.9c0,1.1-0.2,2.1-0.7,2.9c-0.5,0.8-1.1,1.4-2,1.9
			c-0.9,0.4-1.9,0.6-3.1,0.6h-3.4V26H71C72.2,26,73.2,26.2,74.1,26.6z M74.2,34.5c0.7-0.7,1.1-1.8,1.1-3.1c0-1.3-0.4-2.4-1.1-3.2
			c-0.7-0.8-1.8-1.1-3.2-1.1h-2v8.5h2C72.4,35.6,73.5,35.3,74.2,34.5z"/>
		<path class="st0" d="M78.7,26.6c-0.2-0.2-0.3-0.4-0.3-0.7c0-0.3,0.1-0.5,0.3-0.7c0.2-0.2,0.4-0.3,0.7-0.3c0.3,0,0.5,0.1,0.7,0.3
			s0.3,0.4,0.3,0.7c0,0.3-0.1,0.5-0.3,0.7c-0.2,0.2-0.4,0.3-0.7,0.3C79.1,26.9,78.9,26.8,78.7,26.6z M80,28.3v8.5h-1.4v-8.5H80z"/>
		<path class="st0" d="M87.9,28.6c0.6,0.3,1,0.7,1.2,1.2v-1.6h1.4V37c0,0.8-0.2,1.5-0.5,2.1c-0.3,0.6-0.8,1.1-1.4,1.4
			C88,40.8,87.3,41,86.5,41c-1.1,0-2-0.3-2.8-0.8c-0.7-0.5-1.2-1.2-1.3-2.2h1.4c0.2,0.5,0.5,0.9,1,1.2c0.5,0.3,1.1,0.5,1.8,0.5
			c0.8,0,1.4-0.2,1.9-0.7c0.5-0.5,0.7-1.2,0.7-2v-1.8c-0.3,0.5-0.7,0.9-1.2,1.2c-0.5,0.3-1.2,0.5-1.9,0.5c-0.8,0-1.4-0.2-2.1-0.6
			c-0.6-0.4-1.1-0.9-1.5-1.6c-0.4-0.7-0.5-1.4-0.5-2.3c0-0.9,0.2-1.6,0.5-2.3s0.8-1.2,1.5-1.5c0.6-0.4,1.3-0.5,2.1-0.5
			C86.7,28.1,87.3,28.3,87.9,28.6z M88.7,30.8c-0.3-0.5-0.6-0.8-1-1.1c-0.4-0.3-0.9-0.4-1.5-0.4c-0.5,0-1,0.1-1.4,0.4
			c-0.4,0.2-0.8,0.6-1,1.1c-0.3,0.5-0.4,1-0.4,1.7c0,0.7,0.1,1.2,0.4,1.7s0.6,0.8,1,1.1c0.4,0.3,0.9,0.4,1.4,0.4
			c0.5,0,1-0.1,1.5-0.4c0.4-0.3,0.8-0.6,1-1.1c0.3-0.5,0.4-1,0.4-1.7C89.1,31.9,89,31.3,88.7,30.8z"/>
		<path class="st0" d="M93,26.6c-0.2-0.2-0.3-0.4-0.3-0.7c0-0.3,0.1-0.5,0.3-0.7c0.2-0.2,0.4-0.3,0.7-0.3c0.3,0,0.5,0.1,0.7,0.3
			s0.3,0.4,0.3,0.7c0,0.3-0.1,0.5-0.3,0.7c-0.2,0.2-0.4,0.3-0.7,0.3C93.4,26.9,93.2,26.8,93,26.6z M94.4,28.3v8.5h-1.4v-8.5H94.4z"
			/>
		<path class="st0" d="M98.5,29.4v5c0,0.4,0.1,0.7,0.3,0.9c0.2,0.2,0.5,0.3,0.9,0.3h1v1.2h-1.3c-0.8,0-1.4-0.2-1.8-0.5
			c-0.4-0.4-0.6-1-0.6-1.8v-5H96v-1.2h1.1v-2.1h1.4v2.1h2.2v1.2H98.5z"/>
		<path class="st0" d="M102.4,30.2c0.4-0.7,0.8-1.2,1.5-1.5c0.6-0.4,1.3-0.5,2.1-0.5c0.7,0,1.4,0.2,1.9,0.5c0.5,0.3,1,0.7,1.2,1.2
			v-1.6h1.4v8.5h-1.4v-1.6c-0.3,0.5-0.7,0.9-1.2,1.2s-1.2,0.5-1.9,0.5c-0.8,0-1.4-0.2-2-0.6c-0.6-0.4-1.1-0.9-1.4-1.6
			c-0.4-0.7-0.5-1.4-0.5-2.3C101.9,31.6,102.1,30.9,102.4,30.2z M108.7,30.8c-0.3-0.5-0.6-0.8-1-1.1c-0.4-0.3-0.9-0.4-1.5-0.4
			c-0.5,0-1,0.1-1.4,0.4c-0.4,0.2-0.8,0.6-1,1.1c-0.3,0.5-0.4,1-0.4,1.7c0,0.7,0.1,1.2,0.4,1.7c0.3,0.5,0.6,0.8,1,1.1
			c0.4,0.3,0.9,0.4,1.4,0.4c0.5,0,1-0.1,1.5-0.4c0.4-0.3,0.8-0.6,1-1.1s0.4-1,0.4-1.7C109.1,31.9,109,31.3,108.7,30.8z"/>
		<path class="st0" d="M114.3,25.3v11.5h-1.4V25.3H114.3z"/>
		<path class="st0" d="M122.3,26v10.8h-1.4V26H122.3z"/>
		<path class="st0" d="M131.4,29.1c0.6,0.6,1,1.5,1,2.7v5h-1.4V32c0-0.8-0.2-1.5-0.6-1.9c-0.4-0.5-1-0.7-1.7-0.7
			c-0.7,0-1.3,0.2-1.8,0.7c-0.4,0.5-0.7,1.1-0.7,2v4.7h-1.4v-8.5h1.4v1.2c0.3-0.4,0.7-0.8,1.1-1c0.5-0.2,1-0.4,1.6-0.4
			C129.9,28.1,130.7,28.4,131.4,29.1z"/>
		<path class="st0" d="M134.6,30.2c0.4-0.7,0.8-1.2,1.5-1.5c0.6-0.4,1.3-0.5,2.1-0.5c0.7,0,1.3,0.2,1.8,0.5c0.6,0.3,1,0.7,1.3,1.2
			v-4.5h1.4v11.5h-1.4v-1.6c-0.3,0.5-0.7,0.9-1.2,1.2c-0.5,0.3-1.2,0.5-1.9,0.5c-0.8,0-1.4-0.2-2.1-0.6c-0.6-0.4-1.1-0.9-1.5-1.6
			c-0.4-0.7-0.5-1.4-0.5-2.3C134.1,31.6,134.3,30.9,134.6,30.2z M140.9,30.8c-0.3-0.5-0.6-0.8-1-1.1c-0.4-0.3-0.9-0.4-1.5-0.4
			c-0.5,0-1,0.1-1.4,0.4c-0.4,0.2-0.8,0.6-1,1.1c-0.3,0.5-0.4,1-0.4,1.7c0,0.7,0.1,1.2,0.4,1.7s0.6,0.8,1,1.1
			c0.4,0.3,0.9,0.4,1.4,0.4c0.5,0,1-0.1,1.5-0.4c0.4-0.3,0.8-0.6,1-1.1s0.4-1,0.4-1.7C141.3,31.9,141.2,31.3,140.9,30.8z"/>
		<path class="st0" d="M152.7,28.3v8.5h-1.4v-1.3c-0.3,0.4-0.6,0.8-1.1,1c-0.5,0.2-1,0.4-1.6,0.4c-0.7,0-1.3-0.1-1.8-0.4
			c-0.5-0.3-0.9-0.7-1.2-1.2c-0.3-0.5-0.5-1.2-0.5-2v-5h1.4v4.8c0,0.8,0.2,1.5,0.6,1.9c0.4,0.4,1,0.7,1.7,0.7c0.8,0,1.4-0.2,1.8-0.7
			c0.4-0.5,0.7-1.1,0.7-2v-4.7H152.7z"/>
		<path class="st0" d="M156.3,36.6c-0.5-0.2-0.9-0.5-1.2-0.9c-0.3-0.4-0.5-0.9-0.5-1.4h1.5c0,0.4,0.2,0.8,0.6,1
			c0.4,0.3,0.8,0.4,1.4,0.4c0.5,0,1-0.1,1.3-0.4c0.3-0.2,0.5-0.5,0.5-0.9c0-0.4-0.2-0.6-0.5-0.8c-0.3-0.2-0.8-0.4-1.5-0.5
			c-0.6-0.2-1.1-0.3-1.5-0.5c-0.4-0.2-0.7-0.4-1-0.8c-0.3-0.3-0.4-0.8-0.4-1.3c0-0.4,0.1-0.8,0.4-1.2c0.3-0.4,0.6-0.6,1.1-0.9
			c0.5-0.2,1-0.3,1.6-0.3c0.9,0,1.7,0.2,2.3,0.7c0.6,0.5,0.9,1.1,0.9,2h-1.4c0-0.4-0.2-0.8-0.5-1.1c-0.3-0.3-0.8-0.4-1.3-0.4
			c-0.5,0-0.9,0.1-1.2,0.3c-0.3,0.2-0.5,0.5-0.5,0.9c0,0.3,0.1,0.5,0.3,0.7c0.2,0.2,0.4,0.3,0.7,0.4c0.3,0.1,0.7,0.2,1.1,0.4
			c0.6,0.2,1.1,0.3,1.5,0.5c0.4,0.2,0.7,0.4,1,0.7c0.3,0.3,0.4,0.7,0.4,1.3c0,0.5-0.1,0.9-0.4,1.3c-0.3,0.4-0.6,0.7-1.1,0.9
			s-1,0.3-1.6,0.3C157.4,36.9,156.8,36.8,156.3,36.6z"/>
		<path class="st0" d="M164.9,29.4v5c0,0.4,0.1,0.7,0.3,0.9c0.2,0.2,0.5,0.3,0.9,0.3h1v1.2h-1.3c-0.8,0-1.4-0.2-1.8-0.5
			c-0.4-0.4-0.6-1-0.6-1.8v-5h-1.1v-1.2h1.1v-2.1h1.4v2.1h2.2v1.2H164.9z"/>
		<path class="st0" d="M171.3,28.5c0.5-0.3,1-0.4,1.7-0.4v1.5h-0.4c-1.6,0-2.4,0.9-2.4,2.6v4.6h-1.4v-8.5h1.4v1.4
			C170.5,29.2,170.8,28.8,171.3,28.5z"/>
		<path class="st0" d="M174.7,26.6c-0.2-0.2-0.3-0.4-0.3-0.7c0-0.3,0.1-0.5,0.3-0.7c0.2-0.2,0.4-0.3,0.7-0.3c0.3,0,0.5,0.1,0.7,0.3
			c0.2,0.2,0.3,0.4,0.3,0.7c0,0.3-0.1,0.5-0.3,0.7c-0.2,0.2-0.4,0.3-0.7,0.3C175.1,26.9,174.8,26.8,174.7,26.6z M176,28.3v8.5h-1.4
			v-8.5H176z"/>
		<path class="st0" d="M186.1,33.1h-6.8c0.1,0.8,0.3,1.5,0.9,2c0.5,0.5,1.2,0.7,1.9,0.7c0.6,0,1.1-0.1,1.5-0.4
			c0.4-0.3,0.7-0.7,0.9-1.1h1.5c-0.2,0.8-0.7,1.5-1.4,2c-0.7,0.5-1.5,0.8-2.5,0.8c-0.8,0-1.5-0.2-2.2-0.5c-0.6-0.4-1.1-0.9-1.5-1.5
			c-0.4-0.7-0.5-1.4-0.5-2.3c0-0.9,0.2-1.7,0.5-2.3c0.4-0.7,0.8-1.2,1.5-1.5c0.6-0.4,1.4-0.5,2.2-0.5c0.8,0,1.5,0.2,2.1,0.5
			c0.6,0.4,1.1,0.8,1.4,1.5c0.3,0.6,0.5,1.3,0.5,2.1C186.2,32.5,186.2,32.8,186.1,33.1z M184.4,30.5c-0.2-0.4-0.6-0.7-1-0.9
			c-0.4-0.2-0.9-0.3-1.4-0.3c-0.7,0-1.3,0.2-1.8,0.7c-0.5,0.5-0.8,1.1-0.9,1.9h5.4C184.7,31.4,184.6,30.9,184.4,30.5z"/>
		<path class="st0" d="M189.3,36.6c-0.5-0.2-0.9-0.5-1.2-0.9c-0.3-0.4-0.5-0.9-0.5-1.4h1.5c0,0.4,0.2,0.8,0.6,1
			c0.4,0.3,0.8,0.4,1.4,0.4c0.5,0,1-0.1,1.3-0.4c0.3-0.2,0.5-0.5,0.5-0.9c0-0.4-0.2-0.6-0.5-0.8c-0.3-0.2-0.8-0.4-1.5-0.5
			c-0.6-0.2-1.1-0.3-1.5-0.5c-0.4-0.2-0.7-0.4-1-0.8c-0.3-0.3-0.4-0.8-0.4-1.3c0-0.4,0.1-0.8,0.4-1.2c0.3-0.4,0.6-0.6,1.1-0.9
			c0.5-0.2,1-0.3,1.6-0.3c0.9,0,1.7,0.2,2.3,0.7c0.6,0.5,0.9,1.1,0.9,2h-1.4c0-0.4-0.2-0.8-0.5-1.1c-0.3-0.3-0.8-0.4-1.3-0.4
			c-0.5,0-0.9,0.1-1.2,0.3c-0.3,0.2-0.5,0.5-0.5,0.9c0,0.3,0.1,0.5,0.3,0.7c0.2,0.2,0.4,0.3,0.7,0.4c0.3,0.1,0.7,0.2,1.1,0.4
			c0.6,0.2,1.1,0.3,1.5,0.5c0.4,0.2,0.7,0.4,1,0.7c0.3,0.3,0.4,0.7,0.4,1.3c0,0.5-0.1,0.9-0.4,1.3c-0.3,0.4-0.6,0.7-1.1,0.9
			c-0.5,0.2-1,0.3-1.6,0.3C190.4,36.9,189.8,36.8,189.3,36.6z"/>
		<path class="st0" d="M197.6,34.8l-1.7,4.2h-0.9l1.1-4.2H197.6z"/>
		<path class="st0" d="M215.4,28.5c0.5,0.3,0.9,0.7,1.2,1.2c0.3,0.5,0.5,1.2,0.5,2v5h-1.4V32c0-0.8-0.2-1.5-0.6-1.9
			c-0.4-0.5-1-0.7-1.7-0.7c-0.7,0-1.3,0.2-1.8,0.7c-0.4,0.5-0.7,1.2-0.7,2v4.7h-1.4V32c0-0.8-0.2-1.5-0.6-1.9
			c-0.4-0.5-1-0.7-1.7-0.7c-0.7,0-1.3,0.2-1.8,0.7c-0.4,0.5-0.7,1.2-0.7,2v4.7h-1.4v-8.5h1.4v1.2c0.3-0.4,0.7-0.8,1.1-1
			s1-0.4,1.6-0.4c0.7,0,1.3,0.2,1.9,0.5c0.5,0.3,1,0.8,1.2,1.4c0.2-0.6,0.6-1.1,1.2-1.4c0.5-0.3,1.2-0.5,1.8-0.5
			C214.3,28.1,214.9,28.3,215.4,28.5z"/>
		<path class="st0" d="M220.9,36.4c-0.6-0.4-1.2-0.9-1.5-1.5c-0.4-0.7-0.6-1.4-0.6-2.3c0-0.9,0.2-1.6,0.6-2.3
			c0.4-0.7,0.9-1.2,1.5-1.5c0.7-0.4,1.4-0.5,2.2-0.5c0.8,0,1.5,0.2,2.2,0.5c0.7,0.4,1.2,0.9,1.5,1.5c0.4,0.7,0.6,1.4,0.6,2.3
			c0,0.9-0.2,1.7-0.6,2.3c-0.4,0.7-0.9,1.2-1.6,1.5c-0.7,0.4-1.4,0.5-2.2,0.5C222.3,36.9,221.6,36.7,220.9,36.4z M224.5,35.3
			c0.4-0.2,0.8-0.6,1.1-1.1c0.3-0.5,0.4-1.1,0.4-1.7c0-0.7-0.1-1.3-0.4-1.7c-0.3-0.5-0.6-0.8-1.1-1.1c-0.4-0.2-0.9-0.3-1.4-0.3
			c-0.5,0-1,0.1-1.4,0.3c-0.4,0.2-0.8,0.6-1,1.1c-0.3,0.5-0.4,1.1-0.4,1.7c0,0.7,0.1,1.3,0.4,1.8c0.3,0.5,0.6,0.8,1,1.1
			c0.4,0.2,0.9,0.3,1.4,0.3C223.6,35.7,224.1,35.6,224.5,35.3z"/>
		<path class="st0" d="M229.3,30.2c0.4-0.7,0.8-1.2,1.5-1.5c0.6-0.4,1.3-0.5,2.1-0.5c0.7,0,1.3,0.2,1.8,0.5c0.6,0.3,1,0.7,1.3,1.2
			v-4.5h1.4v11.5H236v-1.6c-0.3,0.5-0.7,0.9-1.2,1.2c-0.5,0.3-1.2,0.5-1.9,0.5c-0.8,0-1.4-0.2-2.1-0.6c-0.6-0.4-1.1-0.9-1.5-1.6
			c-0.4-0.7-0.5-1.4-0.5-2.3C228.8,31.6,229,30.9,229.3,30.2z M235.6,30.8c-0.3-0.5-0.6-0.8-1-1.1c-0.4-0.3-0.9-0.4-1.5-0.4
			c-0.5,0-1,0.1-1.4,0.4c-0.4,0.2-0.8,0.6-1,1.1c-0.3,0.5-0.4,1-0.4,1.7c0,0.7,0.1,1.2,0.4,1.7c0.3,0.5,0.6,0.8,1,1.1
			c0.4,0.3,0.9,0.4,1.4,0.4c0.5,0,1-0.1,1.5-0.4c0.4-0.3,0.8-0.6,1-1.1c0.3-0.5,0.4-1,0.4-1.7C236,31.9,235.9,31.3,235.6,30.8z"/>
		<path class="st0" d="M239.8,30.2c0.4-0.7,0.8-1.2,1.5-1.5c0.6-0.4,1.3-0.5,2.1-0.5c0.7,0,1.4,0.2,1.9,0.5c0.5,0.3,1,0.7,1.2,1.2
			v-1.6h1.4v8.5h-1.4v-1.6c-0.3,0.5-0.7,0.9-1.2,1.2s-1.2,0.5-1.9,0.5c-0.8,0-1.4-0.2-2-0.6c-0.6-0.4-1.1-0.9-1.4-1.6
			c-0.4-0.7-0.5-1.4-0.5-2.3C239.3,31.6,239.5,30.9,239.8,30.2z M246.1,30.8c-0.3-0.5-0.6-0.8-1-1.1c-0.4-0.3-0.9-0.4-1.5-0.4
			c-0.5,0-1,0.1-1.4,0.4c-0.4,0.2-0.8,0.6-1,1.1c-0.3,0.5-0.4,1-0.4,1.7c0,0.7,0.1,1.2,0.4,1.7s0.6,0.8,1,1.1
			c0.4,0.3,0.9,0.4,1.4,0.4c0.5,0,1-0.1,1.5-0.4c0.4-0.3,0.8-0.6,1-1.1c0.3-0.5,0.4-1,0.4-1.7C246.5,31.9,246.4,31.3,246.1,30.8z"/>
	</g>
</g>
</svg>
