<?xml version="1.0" encoding="utf-8"?>
<!-- Generator: Adobe Illustrator 27.1.1, SVG Export Plug-In . SVG Version: 6.00 Build 0)  -->
<svg version="1.1" id="圖層_1" xmlns="http://www.w3.org/2000/svg" xmlns:xlink="http://www.w3.org/1999/xlink" x="0px" y="0px"
	 width="246px" height="246px" viewBox="0 0 246 246" style="enable-background:new 0 0 246 246;" xml:space="preserve">
<style type="text/css">
	.st0{fill:#1F323D;}
</style>
<g>
	<rect x="121" y="94.8" class="st0" width="4.4" height="57"/>
	<path class="st0" d="M123.2,154.9c-1,0-1.9-0.4-2.5-1.1c-2.4-2.4-7.4-6.3-10.7-6.3c-9.5,0-21.5,6.8-21.7,6.8
		c-1.1,0.6-2.4,0.6-3.5,0c-1.1-0.6-1.8-1.8-1.8-3.1V90.9c0-1,0.5-2,1.2-2.6c0.7-0.6,1.7-1,2.8-0.9c0,0,5.3,0.5,20-1.4
		c12.8-1.6,19,8.7,19.3,9.2c1,1.7,0.5,3.9-1.3,4.9s-3.9,0.5-4.9-1.3c-0.2-0.3-4.2-6.8-12.3-5.8c-8.8,1.2-14.5,1.4-17.7,1.4v51.2
		c5-2.3,12.8-5.1,19.9-5.1c5,0,10.2,3.7,13.2,6.1c3.1-2.5,8.2-6.1,13.2-6.1c7.1,0,14.9,3,19.9,5.1v-16c0-2,1.6-3.5,3.5-3.5
		c2,0,3.5,1.6,3.5,3.5v21.7c0,1.3-0.6,2.4-1.8,3.1c-1.1,0.6-2.4,0.6-3.5,0c-0.1-0.1-12.2-6.8-21.7-6.8c-3.4,0-8.6,4.3-10.7,6.3
		C125.1,154.5,124.2,154.9,123.2,154.9z"/>
	<path class="st0" d="M159.8,164.5H86.6c-2,0-3.6-1.6-3.6-3.5s1.6-3.6,3.5-3.6h73.1c2,0,3.5,1.6,3.5,3.5
		C163.2,162.8,161.7,164.5,159.8,164.5z"/>
	<path class="st0" d="M143.2,129.5c-6.1,0-12.3-2.3-16.9-7c-9.4-9.4-9.4-24.5,0-33.9s24.5-9.4,33.9,0c9.4,9.4,9.4,24.5,0,33.9
		C155.3,127.1,149.2,129.5,143.2,129.5z M143.2,88.5c-4.4,0-8.6,1.7-12,5c-6.6,6.6-6.6,17.4,0,24c6.6,6.6,17.4,6.6,24,0
		c6.6-6.6,6.6-17.4,0-24C151.8,90.2,147.4,88.5,143.2,88.5z"/>
	<path class="st0" d="M168.4,141.7c-0.9,0-1.8-0.4-2.5-1l-15.1-15.1l4.9-4.9l12.8,12.7l2.5-2.5l-12.8-12.9l4.9-4.9l15.1,15.1
		c1.4,1.4,1.4,3.6,0,4.9l-7.4,7.4C170.2,141.5,169.3,141.7,168.4,141.7z"/>
</g>
</svg>
