<?xml version="1.0" encoding="utf-8"?>
<!-- Generator: Adobe Illustrator 26.3.1, SVG Export Plug-In . SVG Version: 6.00 Build 0)  -->
<svg version="1.1" id="圖層_1" xmlns="http://www.w3.org/2000/svg" xmlns:xlink="http://www.w3.org/1999/xlink" x="0px" y="0px"
	 viewBox="0 0 246 246" style="enable-background:new 0 0 246 246;" xml:space="preserve">
<style type="text/css">
	.st0{fill:#1F323D;}
</style>
<g>
	<g>
		<path class="st0" d="M81.2,157.3v-13.8c1.5-0.2,3-0.3,4.5-0.3c3,0,5.2,0.6,6.5,1.9c1.3,1.3,2.1,3.1,2,4.9c0.1,2.1-0.7,4.1-2.2,5.6
			c-1.5,1.3-3.8,2-6.9,2C83.7,157.6,82.5,157.5,81.2,157.3z M84.4,145.8v9.2c0.4,0.1,0.8,0.1,1.2,0.1c1.4,0.1,2.7-0.4,3.7-1.3
			c0.9-1,1.4-2.3,1.3-3.6c0.1-1.2-0.4-2.4-1.2-3.3c-1-0.8-2.2-1.2-3.4-1.2C85.5,145.7,84.9,145.7,84.4,145.8L84.4,145.8z"/>
		<path class="st0" d="M104.8,153.7h-4.2l-1,3.7h-3.4l4.4-14.1h4.3l4.6,14.1H106L104.8,153.7z M101.1,151.3h3.2
			c-0.8-2.8-1.4-4.6-1.7-5.7l0,0l-0.7,2.7L101.1,151.3z"/>
		<path class="st0" d="M115.2,157.4V146h-3.9v-2.7h11.2v2.7h-4v11.4H115.2z"/>
		<path class="st0" d="M132.3,153.7h-4.2l-1,3.7h-3.4l4.4-14.1h4.2l4.5,14.1h-3.5L132.3,153.7z M128.6,151.3h3.2
			c-0.9-2.8-1.4-4.6-1.6-5.7l0,0l-0.7,2.7L128.6,151.3z"/>
	</g>
	<g>
		<path class="st0" d="M172.5,116.4l13.8-6.2c0.5-0.1,0.8-0.5,0.9-1c0-0.5-0.5-1-1.2-1.1c-3.9-0.9-29.1,3.1-40.6,15.7v-0.1
			c-20.6-13.5-68.7-21-81.3-20.9h-0.2c-2.8,0-5,0.8-5,1.9c0,0.7,0.9,1.3,2.4,1.6l0,0h0.1l0.3,0.1l19.5,4.1
			c17.7,5.5,42.5,14.5,55.2,29.3c17,27.1-10.5,17.5-16.8,19.6s20.8,9.1,29.2,3.5s-1.4-22.6-1.4-22.6
			C144.8,133.2,160.2,123.3,172.5,116.4z"/>
		<path class="st0" d="M81.2,140.5H94v-22.9c-4.2-1.8-8.4-3.3-12.8-4.7L81.2,140.5z"/>
		<path class="st0" d="M99.1,80.8H81.2v20.7c9.2,0.7,18.3,2.2,27.2,4.5L99.1,80.8z"/>
		<path class="st0" d="M132.3,104.3v8.6c4.4,1.9,8.6,4.1,12.7,6.6V80.8h-17.8l-10.2,26.6c4.2,1.3,8.4,2.7,12.5,4.4L132.3,104.3z"/>
		<path class="st0" d="M117.6,129.7c-5.6-3.8-11.5-6.4-17.6-9.3l7.6,20.1h11.1l2.8-8.1C120.2,131.5,118.9,130.6,117.6,129.7z"/>
	</g>
</g>
</svg>
