<?xml version="1.0" encoding="UTF-8"?>
<svg id="_圖層_1" data-name="圖層 1" xmlns="http://www.w3.org/2000/svg" width="200" height="40" viewBox="0 0 200 40">
  <defs>
    <style>
      .cls-1 {
        fill: #fff;
      }

      .cls-2 {
        fill: #20323e;
      }
    </style>
  </defs>
  <rect class="cls-2" width="200" height="40"/>
  <g>
    <path class="cls-1" d="M45.77,22.14h-3.46l-.85,2.83h-1.59l3.29-9.94h1.81l3.29,9.94h-1.66l-.84-2.83Zm-.38-1.23l-.39-1.34c-.34-1.08-.63-2.19-.94-3.31h-.05c-.28,1.13-.59,2.23-.92,3.31l-.4,1.34h2.71Z"/>
    <path class="cls-1" d="M49.58,15.04h2.58c3.05,0,4.79,1.69,4.79,4.93s-1.74,5.01-4.71,5.01h-2.66V15.04Zm2.47,8.65c2.13,0,3.28-1.26,3.28-3.73s-1.15-3.66-3.28-3.66h-.9v7.38h.9Z"/>
    <path class="cls-1" d="M59.02,15.04h1.57v9.94h-1.57V15.04Z"/>
    <path class="cls-1" d="M67.86,21.21l-2.98-6.17h1.67l1.15,2.63c.31,.74,.59,1.43,.93,2.19h.05c.32-.76,.65-1.44,.94-2.19l1.16-2.63h1.63l-3,6.17v3.77h-1.57v-3.77Z"/>
    <path class="cls-1" d="M78.05,22.14h-3.46l-.85,2.83h-1.59l3.29-9.94h1.81l3.29,9.94h-1.66l-.84-2.83Zm-.38-1.23l-.39-1.34c-.34-1.08-.63-2.19-.94-3.31h-.05c-.28,1.13-.59,2.23-.92,3.31l-.4,1.34h2.71Z"/>
    <path class="cls-1" d="M81.86,15.04h1.61l3.29,5.83,1.04,2.11h.07c-.08-1.03-.2-2.23-.2-3.31v-4.63h1.48v9.94h-1.61l-3.29-5.86-1.04-2.08h-.07c.08,1.03,.2,2.17,.2,3.25v4.68h-1.48V15.04Z"/>
    <path class="cls-1" d="M91.77,15.04h1.57v4.7h.04l3.78-4.7h1.74l-3.08,3.83,3.59,6.1h-1.74l-2.81-4.86-1.53,1.86v3h-1.57V15.04Z"/>
    <path class="cls-1" d="M100.72,15.04h5.87v1.31h-4.31v2.77h3.64v1.32h-3.64v3.21h4.45v1.32h-6.02V15.04Z"/>
    <path class="cls-1" d="M108.82,15.04h5.87v1.31h-4.31v2.77h3.64v1.32h-3.64v3.21h4.45v1.32h-6.02V15.04Z"/>
    <path class="cls-1" d="M116.21,23.69l.92-1.08c.72,.72,1.69,1.17,2.65,1.17,1.2,0,1.88-.57,1.88-1.4,0-.9-.68-1.19-1.59-1.59l-1.38-.59c-.96-.41-2.02-1.16-2.02-2.61,0-1.57,1.38-2.74,3.27-2.74,1.16,0,2.25,.49,3.01,1.26l-.82,1c-.62-.55-1.31-.89-2.19-.89-1.01,0-1.67,.49-1.67,1.28,0,.85,.8,1.17,1.61,1.5l1.36,.58c1.17,.5,2.03,1.23,2.03,2.69,0,1.59-1.32,2.89-3.5,2.89-1.36,0-2.63-.54-3.54-1.46Z"/>
    <path class="cls-1" d="M128.16,15.04h3.08c2.04,0,3.51,.65,3.51,2.44,0,.94-.53,1.85-1.42,2.15v.07c1.13,.24,1.96,1.01,1.96,2.36,0,1.97-1.61,2.92-3.81,2.92h-3.32V15.04Zm2.9,4.14c1.51,0,2.15-.57,2.15-1.5,0-1.04-.7-1.43-2.11-1.43h-1.38v2.93h1.34Zm.24,4.56c1.55,0,2.44-.55,2.44-1.77,0-1.12-.86-1.61-2.44-1.61h-1.58v3.38h1.58Z"/>
    <path class="cls-1" d="M137.17,15.04h1.57v8.61h4.2v1.32h-5.76V15.04Z"/>
    <path class="cls-1" d="M144.16,20.71v-5.67h1.57v5.78c0,2.24,.89,2.97,2.13,2.97s2.17-.73,2.17-2.97v-5.78h1.51v5.67c0,3.24-1.48,4.44-3.69,4.44s-3.7-1.2-3.7-4.44Z"/>
    <path class="cls-1" d="M154.11,15.04h5.87v1.31h-4.31v2.77h3.64v1.32h-3.64v3.21h4.45v1.32h-6.02V15.04Z"/>
  </g>
</svg>