<?xml version="1.0" encoding="UTF-8"?>
<svg id="_層_2" data-name="圖層 2" xmlns="http://www.w3.org/2000/svg" width="581.71" height="131.67" viewBox="0 0 581.71 131.67">
  <defs>
    <style>
      .cls-1 {
        fill: #1f333d;
      }

      .cls-2 {
        fill: #b3c33e;
      }
    </style>
  </defs>
  <g id="_層_1-2" data-name="圖層 1">
    <g>
      <g>
        <g>
          <path class="cls-1" d="M24.02,60.43c0-19.87,16.17-36.04,36.03-36.04l13.84-.03V.16c-11.06-.07-14.15-.74-25.53,1.37-.11,.02-.23,.06-.34,.06C20.65,7.17,0,31.43,0,60.43c0,33.12,26.99,60.38,60.11,60.38h60.7V.16h-23.46V96.61l-37.3-.15c-19.86,0-36.03-16.17-36.03-36.03Z"/>
          <path class="cls-2" d="M47.02,61.08c0,7.7,5.76,12.81,13.46,12.81h13.41v-26.81h-12.87c-7.7,0-14,6.3-14,14Z"/>
          <rect class="cls-1" x="134.02" y="43.73" width="27.01" height="77.26"/>
        </g>
        <polygon class="cls-2" points="134.28 .14 157.68 .14 157.68 6.92 140.93 6.92 140.93 20.27 157.68 20.27 157.68 26.92 134.28 26.92 134.28 .14"/>
        <polygon class="cls-1" points="167.7 10.01 144.3 10.01 144.3 16.79 161.05 16.79 161.05 30.14 144.3 30.14 144.3 36.79 167.7 36.79 167.7 10.01"/>
      </g>
      <g>
        <path class="cls-1" d="M254.08,38.11h-4.63c-1.92,13.63-4.95,24.65-9.1,33.06,3.78,7.35,8.49,12.7,14.14,16.05-1.55,1.33-2.93,2.95-4.15,4.87-5.32-3.51-9.8-8.52-13.42-15.01-3.99,6.02-9.13,11.05-15.41,15.09-.75-1.55-1.89-3.22-3.43-5.03,6.76-4.05,12.06-9.4,15.89-16.05-2.72-6.5-4.85-13.76-6.39-21.8-1.54,3.73-3.06,6.71-4.55,8.94-.91-1.06-2.05-2.18-3.43-3.35v6.87h-18.85c-.8,1.6-1.68,3.27-2.64,5.03,5.43-.05,14.03-.19,25.8-.4l-.24,4.63-8.46,.16c-1.28,4.37-3.41,7.96-6.39,10.78,3.67,1.86,6.57,3.51,8.7,4.95l-3.83,3.75c-1.97-1.38-5.03-3.14-9.18-5.27-4.74,3.03-11.66,5.35-20.76,6.95-.53-1.92-1.31-3.51-2.32-4.79,7.51-.91,13.44-2.5,17.81-4.79-3.35-1.49-6.12-2.64-8.31-3.43l-1.36,2.32-4.95-1.52c1.44-2.29,3.14-5.14,5.11-8.55l-10.14,.16-.16-4.79c5.38,0,9.66-.03,12.86-.08,.27-.53,.66-1.28,1.2-2.24,.69-1.33,1.2-2.29,1.52-2.87h-12.06v-13.58h15.33v-3.75h-13.26v-8.78h-5.67v-4.55h5.67v-8.71h13.26v-5.03h5.27v5.03h14.14v8.71h5.75v4.55h-5.75v8.78h-14.14v3.75h16.05v4.15c4.52-7.99,7.85-19.65,9.98-34.98l5.75,.88c-.85,5.75-1.7,10.46-2.56,14.14h21.32v5.75Zm-65.96,14.14v5.43h10.14v-5.43h-10.14Zm10.14-25.64h-8.15v4.63h8.15v-4.63Zm-8.15,13.58h8.15v-4.79h-8.15v4.79Zm19.49,31.07l-14.06,.24c-.27,.53-.72,1.33-1.36,2.4-.43,.75-.75,1.28-.96,1.6,3.46,1.17,6.97,2.56,10.54,4.15,2.66-2.4,4.6-5.19,5.83-8.39Zm2.72-44.64h-8.78v4.63h8.78v-4.63Zm-8.78,13.58h8.78v-4.79h-8.78v4.79Zm10.7,17.49v-5.43h-10.7v5.43h10.7Zm29.31-19.57h-12.3c-.11,.48-.19,.83-.24,1.04,1.49,9.9,3.59,18.29,6.31,25.16,2.93-7.19,5-15.92,6.23-26.19Z"/>
        <path class="cls-1" d="M280.84,17.59l5.59,1.84c-2.29,5.64-5.06,11.23-8.3,16.77v55.58h-5.75V44.98c-3.3,4.47-6.28,8.01-8.94,10.62-1.01-2.13-2.18-4.13-3.51-5.99,7.13-6.6,13.15-15.04,18.05-25.32,1.07-2.29,2.02-4.52,2.87-6.71Zm36.18,64.93h19.57v5.75h-53.67v-5.75h28.27c3.67-10.06,6.87-21.93,9.58-35.62,.21-1.06,.4-2.08,.56-3.03l6.47,1.12c-3.41,14.8-7,27.31-10.78,37.53Zm-32.1-49.11h21.16v-15.09h6.15v15.09h22.28v5.67h-49.59v-5.67Zm18.77,44l-5.91,1.28c-.59-8.41-2.32-18.39-5.19-29.95-.32-1.12-.61-2.18-.88-3.19l5.35-.96c3.19,11.07,5.35,21.4,6.47,30.99,.05,.64,.11,1.25,.16,1.84Z"/>
        <path class="cls-1" d="M400.64,44.02h17.09v5.03h-61.25v8.07c-.05,15.49-2.93,27.34-8.62,35.54-.96-1.23-2.45-2.45-4.47-3.67-.11-.05-.19-.11-.24-.16,5-7.19,7.51-17.78,7.51-31.78v-13.02h9.34c-.96-1.7-1.68-2.85-2.16-3.43,6.66-1.17,12.96-2.66,18.93-4.47-6.07-1.86-11.15-3.27-15.25-4.23l3.43-2.79h-15.49v-4.95h28.51v-6.71h5.99v6.71h29.79v4.95h-14.14l1.36,.8c-2.66,1.86-6.42,3.86-11.26,5.99,4.47,1.54,9.13,3.3,13.98,5.27l-3.03,2.87Zm-9.66,31.39v9.82h26.11v5.11h-57.9v-5.11h25.8v-9.82h-18.45v-4.79h18.45v-8.23h-15.57c-2.02,3.09-3.97,5.59-5.83,7.51-1.33-1.22-2.85-2.26-4.55-3.11,4.42-4.31,7.83-9.69,10.22-16.13l5.35,1.12c-.53,1.49-1.33,3.38-2.4,5.67h12.78v-6.55h5.99v6.55h21.48v4.95h-21.48v8.23h19.57v4.79h-19.57Zm-28.27-31.39h35.7c-4.31-1.86-9.32-3.78-15.01-5.75-6.87,2.45-13.76,4.37-20.68,5.75Zm31.47-14.93h-27.07c3.78,.91,9.29,2.5,16.53,4.79,3.89-1.33,7.4-2.93,10.54-4.79Z"/>
        <path class="cls-1" d="M498.88,72.61h-27.15c6.44,5.11,14.72,9.05,24.84,11.82,1.49,.43,2.95,.8,4.39,1.12-1.86,1.76-3.22,3.57-4.07,5.43-10.01-2.87-18.82-7.24-26.43-13.1-1.6-1.22-3.03-2.45-4.31-3.67v17.81h-5.99v-17.41c-6.55,5.96-15.17,10.81-25.87,14.53-1.6,.59-3.14,1.09-4.63,1.52-.91-1.7-2.21-3.41-3.91-5.11,9.48-2.18,17.91-5.67,25.32-10.46,1.28-.85,2.45-1.68,3.51-2.48h-26.67v-5.11h32.26v-6.07h-24.6v-4.71h24.6v-5.91h-28.67v-5.03h17.81c-.69-2.4-2.02-5.11-3.99-8.15l2.87-.56h-19.96v-5.27h13.02c-1.07-3.03-3.22-6.97-6.47-11.82l5.11-1.76c3.25,4.26,5.56,8.28,6.95,12.06l-4.15,1.52h10.06v-14.45h5.67v14.45h9.66v-14.45h5.75v14.45h9.9l-3.03-.96c2.4-3.83,4.47-7.99,6.23-12.46l6.23,1.68c-3.09,5.54-5.48,9.45-7.19,11.74h12.62v5.27h-16.29c-1.33,2.56-3.03,5.46-5.11,8.71h18.61v5.03h-29.63v5.91h25.56v4.71h-25.56v6.07h32.74v5.11Zm-23.4-35.54h-24.04c1.92,2.72,3.27,5.43,4.07,8.15l-2.64,.56h19.25l-.88-.24c1.92-3.41,3.33-6.23,4.23-8.47Z"/>
        <path class="cls-1" d="M554.95,58.96c-3.83,2.02-7.69,3.86-11.58,5.51h30.75v27.07h-5.91v-2.4h-36.1v2.64h-5.67v-20.92c-2.61,.8-5.22,1.57-7.83,2.32-2.61,.75-5.24,1.44-7.91,2.08-.27-.64-.73-1.52-1.4-2.64-.67-1.12-1.21-2-1.64-2.64,6.02-1.22,11.99-2.77,17.93-4.63,5.94-1.86,11.7-3.99,17.29-6.39h-33.46v-5.03h30.59v-6.07h-22.52v-4.95h22.52v-5.75h-25.95V20.39h63.33v16.77h-31.46v5.75h18.29v4.15c1.54-1.06,3.02-2.2,4.43-3.39,1.41-1.2,2.76-2.41,4.03-3.63l4.71,3.03c-3.99,3.94-8.62,7.56-13.89,10.86h18.21v5.03h-26.75Zm-22.04-34.1h-13.02v7.83h13.02v-7.83Zm35.3,44.16h-36.1v5.43h36.1v-5.43Zm0,15.57v-5.99h-36.1v5.99h36.1Zm-16.21-51.91v-7.83h-13.5v7.83h13.5Zm1.12,21.24c1.81-.9,3.55-1.88,5.23-2.91,1.68-1.04,3.29-2.09,4.83-3.16h-17.25v6.07h7.19Zm4.47-21.24h13.82v-7.83h-13.82v7.83Z"/>
      </g>
      <g>
        <path class="cls-1" d="M179.4,120.79l7.67-17.7h2.25l7.6,17.7h-2.8l-1.8-4.35h-8.4l-1.77,4.35h-2.75Zm12.02-6.52l-3.3-8.3-3.32,8.3h6.62Z"/>
        <path class="cls-1" d="M206.68,120.55c-.77,.38-1.59,.56-2.44,.56-.92,0-1.74-.16-2.47-.49-.73-.33-1.36-.77-1.87-1.34s-.92-1.23-1.2-2-.42-1.58-.42-2.45,.14-1.68,.42-2.44c.28-.76,.69-1.42,1.21-1.99,.53-.57,1.15-1.01,1.89-1.33s1.54-.47,2.42-.47c.97,0,1.81,.2,2.52,.61,.72,.41,1.28,.9,1.7,1.49h.05v-8.82h2.35v18.9h-2.27v-1.88h-.05c-.45,.72-1.06,1.26-1.84,1.64Zm-5.71-4.11c.17,.52,.42,.97,.75,1.37,.33,.4,.74,.72,1.22,.96,.48,.24,1.05,.36,1.7,.36,.6,0,1.15-.12,1.64-.35,.49-.23,.91-.54,1.26-.94,.35-.39,.62-.85,.81-1.36s.29-1.06,.29-1.62-.1-1.11-.29-1.62-.46-.97-.81-1.38c-.35-.4-.77-.72-1.26-.95-.49-.23-1.04-.35-1.64-.35-.65,0-1.22,.12-1.7,.35-.48,.23-.89,.55-1.22,.95-.33,.4-.58,.86-.75,1.38-.17,.52-.25,1.05-.25,1.6s.08,1.08,.25,1.6Z"/>
        <path class="cls-1" d="M218.68,109.28c.66-.44,1.44-.66,2.34-.66,.8,0,1.52,.18,2.16,.55s1.15,.97,1.51,1.82c.4-.77,.96-1.35,1.67-1.76,.72-.41,1.5-.61,2.35-.61,.77,0,1.42,.13,1.97,.39,.55,.26,1.01,.6,1.38,1.04,.37,.43,.64,.94,.81,1.52,.17,.58,.26,1.21,.26,1.87v7.35h-2.35v-6.57c0-.48-.04-.94-.12-1.38-.08-.43-.23-.82-.43-1.15-.2-.33-.47-.6-.8-.8-.33-.2-.76-.3-1.27-.3s-.99,.11-1.37,.34c-.38,.23-.7,.52-.94,.88-.24,.36-.42,.76-.53,1.21-.11,.45-.16,.91-.16,1.38v6.4h-2.35v-7.05c0-.47-.04-.89-.12-1.28-.08-.38-.22-.71-.42-.99-.2-.27-.46-.49-.77-.65-.32-.16-.71-.24-1.17-.24-.87,0-1.59,.35-2.16,1.06-.58,.71-.86,1.65-.86,2.84v6.3h-2.35v-9.3c0-.32,0-.72-.03-1.22-.02-.5-.04-.94-.07-1.32h2.22c.03,.3,.06,.64,.07,1.01s.03,.69,.03,.94h.08c.3-.63,.78-1.17,1.44-1.61Z"/>
        <path class="cls-1" d="M239.44,105.74c-.31,.28-.68,.42-1.11,.42s-.8-.15-1.1-.44c-.3-.29-.45-.65-.45-1.06s.15-.8,.45-1.09c.3-.29,.67-.44,1.1-.44s.8,.15,1.11,.44c.31,.29,.46,.65,.46,1.09s-.15,.79-.46,1.08Zm-2.29,15.05v-11.85h2.35v11.85h-2.35Z"/>
        <path class="cls-1" d="M245.8,109.96c.02,.38,.03,.69,.03,.94h.08c.15-.32,.35-.61,.61-.89,.26-.27,.55-.52,.89-.72,.33-.21,.7-.37,1.1-.49,.4-.12,.82-.17,1.25-.17,.77,0,1.42,.13,1.97,.39,.55,.26,1.01,.6,1.38,1.04,.37,.43,.64,.94,.81,1.52,.17,.58,.26,1.21,.26,1.87v7.35h-2.35v-6.57c0-.48-.04-.94-.11-1.38-.08-.43-.21-.82-.41-1.15s-.47-.6-.83-.8c-.35-.2-.8-.3-1.35-.3-.93,0-1.7,.35-2.29,1.06-.59,.71-.89,1.65-.89,2.84v6.3h-2.35v-9.3c0-.32,0-.72-.03-1.22-.02-.5-.04-.94-.07-1.32h2.22c.03,.3,.06,.64,.07,1.01Z"/>
        <path class="cls-1" d="M260.46,105.74c-.31,.28-.68,.42-1.11,.42s-.8-.15-1.1-.44c-.3-.29-.45-.65-.45-1.06s.15-.8,.45-1.09c.3-.29,.67-.44,1.1-.44s.8,.15,1.11,.44c.31,.29,.46,.65,.46,1.09s-.15,.79-.46,1.08Zm-2.29,15.05v-11.85h2.35v11.85h-2.35Z"/>
        <path class="cls-1" d="M269.9,110.88c-.48-.27-1.02-.41-1.62-.41-.27,0-.53,.03-.8,.09-.27,.06-.5,.15-.71,.28-.21,.12-.38,.28-.5,.47-.12,.19-.19,.43-.19,.71,0,.5,.22,.87,.67,1.11,.45,.24,1.12,.46,2.02,.66,.57,.13,1.09,.29,1.57,.47s.9,.41,1.26,.69c.36,.27,.64,.6,.84,.99,.2,.38,.3,.83,.3,1.35,0,.7-.13,1.29-.4,1.77s-.62,.88-1.06,1.19c-.44,.31-.95,.53-1.51,.66-.57,.13-1.15,.2-1.75,.2-.9,0-1.78-.17-2.64-.53-.86-.35-1.57-.88-2.14-1.6l1.67-1.42c.32,.47,.75,.86,1.31,1.17,.56,.32,1.17,.48,1.84,.48,.3,0,.59-.03,.86-.09s.52-.15,.75-.29c.22-.13,.4-.31,.54-.53,.13-.22,.2-.49,.2-.82,0-.55-.26-.96-.79-1.22-.53-.27-1.3-.52-2.31-.75-.4-.1-.8-.22-1.21-.36s-.78-.34-1.11-.59-.6-.56-.81-.94-.31-.84-.31-1.39c0-.63,.13-1.18,.39-1.64,.26-.46,.6-.83,1.01-1.12,.42-.29,.89-.51,1.42-.65s1.08-.21,1.65-.21c.85,0,1.67,.17,2.46,.5,.79,.33,1.4,.82,1.84,1.45l-1.62,1.38c-.27-.43-.64-.79-1.12-1.06Z"/>
        <path class="cls-1" d="M278.37,110.87v6.17c0,.72,.13,1.23,.4,1.54s.69,.46,1.27,.46c.22,0,.45-.02,.7-.07,.25-.05,.48-.12,.67-.23l.08,1.92c-.28,.1-.6,.18-.94,.24-.34,.06-.7,.09-1.06,.09-1.12,0-1.97-.31-2.56-.92-.59-.62-.89-1.54-.89-2.77v-6.42h-2.27v-1.92h2.27v-3.4h2.32v3.4h3.15v1.92h-3.15Z"/>
        <path class="cls-1" d="M283.92,110.27c-.02-.5-.04-.94-.08-1.32h2.22c.03,.3,.06,.65,.07,1.04s.03,.71,.03,.96h.08c.33-.7,.82-1.26,1.46-1.69,.64-.42,1.36-.64,2.16-.64,.37,0,.67,.03,.92,.1l-.1,2.17c-.33-.08-.69-.12-1.07-.12-.57,0-1.06,.1-1.47,.31-.42,.21-.76,.49-1.04,.84-.28,.35-.48,.75-.61,1.21-.13,.46-.2,.94-.2,1.44v6.22h-2.35v-9.3c0-.32,0-.72-.02-1.22Z"/>
        <path class="cls-1" d="M299.24,111.16c-.53-.42-1.24-.64-2.12-.64-.67,0-1.3,.13-1.89,.39-.59,.26-1.09,.59-1.49,.99l-1.25-1.5c.58-.55,1.3-.98,2.14-1.3,.84-.32,1.75-.47,2.71-.47,.85,0,1.59,.12,2.21,.36s1.14,.57,1.54,.99c.4,.42,.7,.91,.9,1.47,.2,.57,.3,1.17,.3,1.82v5.17c0,.4,.01,.82,.04,1.26s.07,.8,.14,1.09h-2.12c-.13-.57-.2-1.13-.2-1.7h-.08c-.43,.63-.98,1.12-1.64,1.47-.66,.35-1.44,.52-2.34,.52-.47,0-.95-.06-1.46-.19-.51-.12-.97-.33-1.39-.61-.42-.28-.76-.66-1.04-1.12-.28-.47-.41-1.04-.41-1.72,0-.9,.24-1.61,.73-2.14,.48-.52,1.12-.92,1.9-1.2,.78-.28,1.67-.45,2.65-.54,.98-.08,1.97-.12,2.97-.12v-.32c0-.88-.27-1.54-.8-1.96Zm-1.59,4.06c-.62,.05-1.19,.15-1.7,.3-.51,.15-.93,.38-1.26,.67s-.5,.7-.5,1.2c0,.35,.07,.64,.21,.88s.33,.42,.56,.58c.23,.15,.49,.25,.77,.31,.28,.06,.58,.09,.88,.09,1.1,0,1.95-.33,2.54-.99,.59-.66,.89-1.49,.89-2.49v-.62h-.57c-.58,0-1.19,.02-1.81,.08Z"/>
        <path class="cls-1" d="M308.53,105.74c-.31,.28-.68,.42-1.11,.42s-.8-.15-1.1-.44c-.3-.29-.45-.65-.45-1.06s.15-.8,.45-1.09c.3-.29,.67-.44,1.1-.44s.8,.15,1.11,.44c.31,.29,.46,.65,.46,1.09s-.15,.79-.46,1.08Zm-2.29,15.05v-11.85h2.35v11.85h-2.35Z"/>
        <path class="cls-1" d="M324.21,117.37c-.33,.77-.77,1.43-1.35,1.99-.58,.56-1.25,.99-2.04,1.3-.78,.31-1.62,.46-2.52,.46s-1.74-.15-2.52-.46c-.78-.31-1.46-.74-2.02-1.3-.57-.56-1.01-1.22-1.34-1.99-.33-.77-.49-1.61-.49-2.52s.16-1.75,.49-2.51c.32-.76,.77-1.41,1.34-1.96s1.24-.98,2.02-1.29c.78-.31,1.62-.46,2.52-.46s1.74,.15,2.52,.46c.78,.31,1.46,.74,2.04,1.29s1.02,1.2,1.35,1.96c.33,.76,.49,1.59,.49,2.51s-.16,1.76-.49,2.52Zm-2.22-4.15c-.17-.52-.43-.97-.76-1.36-.33-.39-.75-.7-1.24-.94-.49-.23-1.05-.35-1.69-.35s-1.2,.12-1.69,.35c-.49,.23-.9,.55-1.24,.94-.33,.39-.59,.85-.76,1.36s-.26,1.06-.26,1.62,.09,1.11,.26,1.62,.43,.97,.76,1.38c.33,.4,.75,.72,1.24,.95,.49,.23,1.05,.35,1.69,.35s1.2-.12,1.69-.35c.49-.23,.9-.55,1.24-.95,.33-.4,.59-.86,.76-1.38s.26-1.06,.26-1.62-.09-1.11-.26-1.62Z"/>
        <path class="cls-1" d="M330.15,109.96c.02,.38,.03,.69,.03,.94h.08c.15-.32,.35-.61,.61-.89,.26-.27,.55-.52,.89-.72,.33-.21,.7-.37,1.1-.49,.4-.12,.82-.17,1.25-.17,.77,0,1.42,.13,1.97,.39,.55,.26,1.01,.6,1.38,1.04,.37,.43,.64,.94,.81,1.52,.17,.58,.26,1.21,.26,1.87v7.35h-2.35v-6.57c0-.48-.04-.94-.11-1.38-.08-.43-.21-.82-.41-1.15s-.47-.6-.83-.8c-.35-.2-.8-.3-1.35-.3-.93,0-1.7,.35-2.29,1.06-.59,.71-.89,1.65-.89,2.84v6.3h-2.35v-9.3c0-.32,0-.72-.03-1.22-.02-.5-.04-.94-.07-1.32h2.22c.03,.3,.06,.64,.07,1.01Z"/>
        <path class="cls-1" d="M351.57,110.87v9.92h-2.35v-9.92h-2.35v-1.92h2.35v-2.47c0-.7,.08-1.35,.24-1.94,.16-.59,.42-1.1,.77-1.54,.36-.43,.82-.77,1.38-1.02,.56-.25,1.24-.38,2.04-.38,.57,0,1.06,.06,1.48,.17l-.28,2.02c-.18-.05-.37-.09-.55-.12s-.39-.05-.62-.05c-.45,0-.81,.08-1.09,.24-.28,.16-.49,.37-.64,.64-.15,.27-.25,.57-.3,.91s-.08,.7-.08,1.06v2.47h2.75v1.92h-2.75Z"/>
        <path class="cls-1" d="M368.01,117.37c-.33,.77-.77,1.43-1.35,1.99-.58,.56-1.25,.99-2.04,1.3-.78,.31-1.62,.46-2.52,.46s-1.74-.15-2.52-.46c-.78-.31-1.46-.74-2.02-1.3-.57-.56-1.01-1.22-1.34-1.99-.33-.77-.49-1.61-.49-2.52s.16-1.75,.49-2.51c.32-.76,.77-1.41,1.34-1.96s1.24-.98,2.02-1.29c.78-.31,1.62-.46,2.52-.46s1.74,.15,2.52,.46c.78,.31,1.46,.74,2.04,1.29s1.02,1.2,1.35,1.96c.33,.76,.49,1.59,.49,2.51s-.16,1.76-.49,2.52Zm-2.22-4.15c-.17-.52-.43-.97-.76-1.36-.33-.39-.75-.7-1.24-.94-.49-.23-1.05-.35-1.69-.35s-1.2,.12-1.69,.35c-.49,.23-.9,.55-1.24,.94-.33,.39-.59,.85-.76,1.36s-.26,1.06-.26,1.62,.09,1.11,.26,1.62,.43,.97,.76,1.38c.33,.4,.75,.72,1.24,.95,.49,.23,1.05,.35,1.69,.35s1.2-.12,1.69-.35c.49-.23,.9-.55,1.24-.95,.33-.4,.59-.86,.76-1.38s.26-1.06,.26-1.62-.09-1.11-.26-1.62Z"/>
        <path class="cls-1" d="M371.72,110.27c-.02-.5-.04-.94-.08-1.32h2.22c.03,.3,.06,.65,.07,1.04s.03,.71,.03,.96h.08c.33-.7,.82-1.26,1.46-1.69,.64-.42,1.36-.64,2.16-.64,.37,0,.67,.03,.92,.1l-.1,2.17c-.33-.08-.69-.12-1.07-.12-.57,0-1.06,.1-1.47,.31-.42,.21-.76,.49-1.04,.84-.28,.35-.48,.75-.61,1.21-.13,.46-.2,.94-.2,1.44v6.22h-2.35v-9.3c0-.32,0-.72-.02-1.22Z"/>
        <path class="cls-1" d="M393.24,103.09c1.13,0,2.27,.17,3.4,.5,1.13,.33,2.16,.86,3.07,1.57,.92,.72,1.66,1.63,2.22,2.75s.85,2.46,.85,4.02-.28,2.83-.85,3.94c-.57,1.11-1.31,2.02-2.22,2.75-.92,.72-1.94,1.27-3.07,1.62s-2.27,.54-3.4,.54h-6.07v-17.7h6.07Zm-.5,15.52c1.07,0,2.05-.15,2.96-.45s1.69-.73,2.35-1.3,1.17-1.27,1.54-2.1c.37-.83,.55-1.77,.55-2.82s-.18-2.07-.55-2.9c-.37-.83-.88-1.53-1.54-2.09-.66-.56-1.44-.98-2.35-1.27-.91-.29-1.9-.44-2.96-.44h-3.1v13.37h3.1Z"/>
        <path class="cls-1" d="M408.38,105.74c-.31,.28-.68,.42-1.11,.42s-.8-.15-1.1-.44c-.3-.29-.45-.65-.45-1.06s.15-.8,.45-1.09c.3-.29,.67-.44,1.1-.44s.8,.15,1.11,.44c.31,.29,.46,.65,.46,1.09s-.15,.79-.46,1.08Zm-2.29,15.05v-11.85h2.35v11.85h-2.35Z"/>
        <path class="cls-1" d="M415.41,124.21c.77,.35,1.57,.53,2.39,.53s1.44-.11,1.97-.34c.53-.22,.96-.53,1.29-.92,.32-.39,.56-.85,.7-1.39s.21-1.11,.21-1.72v-1.52h-.05c-.43,.67-1.03,1.17-1.77,1.52-.75,.35-1.55,.52-2.4,.52-.9,0-1.72-.16-2.46-.47-.74-.32-1.37-.75-1.89-1.3s-.92-1.2-1.2-1.94c-.28-.74-.42-1.54-.42-2.39s.14-1.65,.42-2.4c.28-.75,.68-1.4,1.2-1.96,.52-.56,1.14-1,1.88-1.32s1.55-.49,2.45-.49c.85,0,1.66,.18,2.44,.55,.78,.37,1.39,.92,1.84,1.67h.05v-1.9h2.27v11.25c0,.87-.11,1.7-.33,2.49-.22,.79-.58,1.49-1.1,2.1s-1.19,1.1-2.02,1.46c-.83,.37-1.87,.55-3.1,.55-1.03,0-2.07-.19-3.11-.56-1.04-.38-1.94-.9-2.69-1.59l1.5-1.82c.52,.58,1.16,1.05,1.94,1.4Zm-.95-7.9c.17,.5,.43,.94,.77,1.32,.34,.38,.75,.69,1.24,.92s1.03,.35,1.65,.35,1.15-.11,1.65-.32,.92-.51,1.27-.89,.62-.82,.81-1.32c.19-.51,.29-1.05,.29-1.64s-.1-1.1-.29-1.6-.47-.94-.83-1.32c-.36-.38-.78-.69-1.27-.91-.49-.23-1.04-.34-1.64-.34s-1.17,.11-1.65,.34c-.48,.22-.9,.52-1.24,.9-.34,.38-.6,.82-.77,1.33-.17,.51-.26,1.04-.26,1.61s.09,1.08,.26,1.58Z"/>
        <path class="cls-1" d="M430.66,105.74c-.31,.28-.68,.42-1.11,.42s-.8-.15-1.1-.44c-.3-.29-.45-.65-.45-1.06s.15-.8,.45-1.09c.3-.29,.67-.44,1.1-.44s.8,.15,1.11,.44c.31,.29,.46,.65,.46,1.09s-.15,.79-.46,1.08Zm-2.29,15.05v-11.85h2.35v11.85h-2.35Z"/>
        <path class="cls-1" d="M437.47,110.87v6.17c0,.72,.13,1.23,.4,1.54s.69,.46,1.27,.46c.22,0,.45-.02,.7-.07,.25-.05,.48-.12,.67-.23l.08,1.92c-.28,.1-.6,.18-.94,.24-.34,.06-.7,.09-1.06,.09-1.12,0-1.97-.31-2.56-.92-.59-.62-.89-1.54-.89-2.77v-6.42h-2.27v-1.92h2.27v-3.4h2.32v3.4h3.15v1.92h-3.15Z"/>
        <path class="cls-1" d="M449.62,111.16c-.53-.42-1.24-.64-2.12-.64-.67,0-1.3,.13-1.89,.39-.59,.26-1.09,.59-1.49,.99l-1.25-1.5c.58-.55,1.3-.98,2.14-1.3,.84-.32,1.75-.47,2.71-.47,.85,0,1.59,.12,2.21,.36s1.14,.57,1.54,.99c.4,.42,.7,.91,.9,1.47,.2,.57,.3,1.17,.3,1.82v5.17c0,.4,.01,.82,.04,1.26s.07,.8,.14,1.09h-2.12c-.13-.57-.2-1.13-.2-1.7h-.08c-.43,.63-.98,1.12-1.64,1.47-.66,.35-1.44,.52-2.34,.52-.47,0-.95-.06-1.46-.19-.51-.12-.97-.33-1.39-.61-.42-.28-.76-.66-1.04-1.12-.28-.47-.41-1.04-.41-1.72,0-.9,.24-1.61,.73-2.14,.48-.52,1.12-.92,1.9-1.2,.78-.28,1.67-.45,2.65-.54,.98-.08,1.97-.12,2.97-.12v-.32c0-.88-.27-1.54-.8-1.96Zm-1.59,4.06c-.62,.05-1.19,.15-1.7,.3-.51,.15-.93,.38-1.26,.67s-.5,.7-.5,1.2c0,.35,.07,.64,.21,.88s.33,.42,.56,.58c.23,.15,.49,.25,.77,.31,.28,.06,.58,.09,.88,.09,1.1,0,1.95-.33,2.54-.99,.59-.66,.89-1.49,.89-2.49v-.62h-.57c-.58,0-1.19,.02-1.81,.08Z"/>
        <path class="cls-1" d="M456.64,120.79v-18.9h2.35v18.9h-2.35Z"/>
        <path class="cls-1" d="M469.47,120.79v-17.7h2.47v17.7h-2.47Z"/>
        <path class="cls-1" d="M478.32,109.96c.02,.38,.03,.69,.03,.94h.08c.15-.32,.35-.61,.61-.89,.26-.27,.55-.52,.89-.72,.33-.21,.7-.37,1.1-.49,.4-.12,.82-.17,1.25-.17,.77,0,1.42,.13,1.97,.39,.55,.26,1.01,.6,1.38,1.04,.37,.43,.64,.94,.81,1.52,.17,.58,.26,1.21,.26,1.87v7.35h-2.35v-6.57c0-.48-.04-.94-.11-1.38-.08-.43-.21-.82-.41-1.15s-.47-.6-.83-.8c-.35-.2-.8-.3-1.35-.3-.93,0-1.7,.35-2.29,1.06-.59,.71-.89,1.65-.89,2.84v6.3h-2.35v-9.3c0-.32,0-.72-.02-1.22-.02-.5-.04-.94-.08-1.32h2.22c.03,.3,.06,.64,.07,1.01Z"/>
        <path class="cls-1" d="M498.28,120.55c-.77,.38-1.59,.56-2.44,.56-.92,0-1.74-.16-2.47-.49-.73-.33-1.36-.77-1.87-1.34s-.92-1.23-1.2-2-.42-1.58-.42-2.45,.14-1.68,.42-2.44c.28-.76,.69-1.42,1.21-1.99,.53-.57,1.15-1.01,1.89-1.33s1.54-.47,2.42-.47c.97,0,1.81,.2,2.52,.61,.72,.41,1.28,.9,1.7,1.49h.05v-8.82h2.35v18.9h-2.27v-1.88h-.05c-.45,.72-1.06,1.26-1.84,1.64Zm-5.71-4.11c.17,.52,.42,.97,.75,1.37,.33,.4,.74,.72,1.22,.96,.48,.24,1.05,.36,1.7,.36,.6,0,1.15-.12,1.64-.35,.49-.23,.91-.54,1.26-.94,.35-.39,.62-.85,.81-1.36s.29-1.06,.29-1.62-.1-1.11-.29-1.62-.46-.97-.81-1.38c-.35-.4-.77-.72-1.26-.95-.49-.23-1.04-.35-1.64-.35-.65,0-1.22,.12-1.7,.35-.48,.23-.89,.55-1.22,.95-.33,.4-.58,.86-.75,1.38-.17,.52-.25,1.05-.25,1.6s.08,1.08,.25,1.6Z"/>
        <path class="cls-1" d="M514.82,119.78c-.02-.37-.03-.69-.03-.94h-.05c-.3,.63-.8,1.17-1.51,1.61-.71,.44-1.5,.66-2.36,.66-.77,0-1.43-.12-1.99-.38-.56-.25-1.02-.6-1.38-1.04-.36-.44-.62-.95-.8-1.54-.17-.58-.26-1.21-.26-1.88v-7.35h2.35v6.55c0,.48,.04,.95,.11,1.39,.07,.44,.21,.83,.41,1.16,.2,.33,.47,.6,.83,.8,.35,.2,.8,.3,1.35,.3,.95,0,1.72-.35,2.3-1.06s.88-1.65,.88-2.84v-6.3h2.35v9.3c0,.32,0,.73,.02,1.23,.02,.5,.04,.94,.08,1.32h-2.22c-.03-.3-.06-.64-.07-1.01Z"/>
        <path class="cls-1" d="M526.37,110.88c-.48-.27-1.02-.41-1.62-.41-.27,0-.53,.03-.8,.09-.27,.06-.5,.15-.71,.28-.21,.12-.38,.28-.5,.47-.12,.19-.19,.43-.19,.71,0,.5,.22,.87,.67,1.11,.45,.24,1.12,.46,2.02,.66,.57,.13,1.09,.29,1.57,.47s.9,.41,1.26,.69c.36,.27,.64,.6,.84,.99,.2,.38,.3,.83,.3,1.35,0,.7-.13,1.29-.4,1.77s-.62,.88-1.06,1.19c-.44,.31-.95,.53-1.51,.66-.57,.13-1.15,.2-1.75,.2-.9,0-1.78-.17-2.64-.53-.86-.35-1.57-.88-2.14-1.6l1.67-1.42c.32,.47,.75,.86,1.31,1.17,.56,.32,1.17,.48,1.84,.48,.3,0,.59-.03,.86-.09s.52-.15,.75-.29c.22-.13,.4-.31,.54-.53,.13-.22,.2-.49,.2-.82,0-.55-.26-.96-.79-1.22-.53-.27-1.3-.52-2.31-.75-.4-.1-.8-.22-1.21-.36s-.78-.34-1.11-.59-.6-.56-.81-.94-.31-.84-.31-1.39c0-.63,.13-1.18,.39-1.64,.26-.46,.6-.83,1.01-1.12,.42-.29,.89-.51,1.42-.65s1.08-.21,1.65-.21c.85,0,1.67,.17,2.46,.5,.79,.33,1.4,.82,1.84,1.45l-1.62,1.38c-.27-.43-.64-.79-1.12-1.06Z"/>
        <path class="cls-1" d="M534.84,110.87v6.17c0,.72,.13,1.23,.4,1.54s.69,.46,1.27,.46c.22,0,.45-.02,.7-.07,.25-.05,.48-.12,.67-.23l.08,1.92c-.28,.1-.6,.18-.94,.24-.34,.06-.7,.09-1.06,.09-1.12,0-1.97-.31-2.56-.92-.59-.62-.89-1.54-.89-2.77v-6.42h-2.27v-1.92h2.27v-3.4h2.32v3.4h3.15v1.92h-3.15Z"/>
        <path class="cls-1" d="M540.39,110.27c-.02-.5-.04-.94-.07-1.32h2.22c.03,.3,.06,.65,.07,1.04s.03,.71,.03,.96h.08c.33-.7,.82-1.26,1.46-1.69,.64-.42,1.36-.64,2.16-.64,.37,0,.67,.03,.92,.1l-.1,2.17c-.33-.08-.69-.12-1.07-.12-.57,0-1.06,.1-1.47,.31-.42,.21-.76,.49-1.04,.84-.28,.35-.48,.75-.61,1.21-.13,.46-.2,.94-.2,1.44v6.22h-2.35v-9.3c0-.32,0-.72-.03-1.22Z"/>
        <path class="cls-1" d="M551.78,105.74c-.31,.28-.68,.42-1.11,.42s-.8-.15-1.1-.44c-.3-.29-.45-.65-.45-1.06s.15-.8,.45-1.09c.3-.29,.67-.44,1.1-.44s.8,.15,1.11,.44c.31,.29,.46,.65,.46,1.09s-.15,.79-.46,1.08Zm-2.29,15.05v-11.85h2.35v11.85h-2.35Z"/>
        <path class="cls-1" d="M566.99,115.17c0,.13,0,.27-.03,.4h-9.4c.02,.5,.13,.97,.34,1.41s.49,.83,.84,1.15c.35,.33,.75,.58,1.21,.76s.95,.27,1.46,.27c.8,0,1.49-.17,2.07-.52,.58-.35,1.04-.77,1.38-1.27l1.65,1.32c-.63,.83-1.38,1.45-2.24,1.84-.86,.39-1.81,.59-2.86,.59-.9,0-1.73-.15-2.5-.45s-1.42-.72-1.97-1.26c-.55-.54-.98-1.2-1.3-1.96-.32-.77-.47-1.62-.47-2.55s.15-1.76,.46-2.54c.31-.77,.74-1.44,1.29-1.99s1.2-.98,1.95-1.29c.75-.31,1.56-.46,2.42-.46s1.65,.14,2.36,.42,1.31,.69,1.8,1.22c.49,.53,.87,1.18,1.14,1.94,.27,.76,.4,1.61,.4,2.56v.4Zm-2.61-2.66c-.14-.41-.35-.76-.62-1.06-.27-.3-.62-.54-1.02-.71-.41-.18-.89-.26-1.44-.26-.5,0-.97,.09-1.41,.26-.44,.17-.82,.41-1.15,.71s-.59,.65-.8,1.06-.33,.85-.36,1.31h7.05c-.02-.47-.1-.9-.24-1.31Z"/>
        <path class="cls-1" d="M575.54,110.88c-.48-.27-1.02-.41-1.62-.41-.27,0-.53,.03-.8,.09-.27,.06-.5,.15-.71,.28-.21,.12-.38,.28-.5,.47-.12,.19-.19,.43-.19,.71,0,.5,.22,.87,.67,1.11,.45,.24,1.12,.46,2.02,.66,.57,.13,1.09,.29,1.57,.47s.9,.41,1.26,.69c.36,.27,.64,.6,.84,.99,.2,.38,.3,.83,.3,1.35,0,.7-.13,1.29-.4,1.77s-.62,.88-1.06,1.19c-.44,.31-.95,.53-1.51,.66-.57,.13-1.15,.2-1.75,.2-.9,0-1.78-.17-2.64-.53-.86-.35-1.57-.88-2.14-1.6l1.67-1.42c.32,.47,.75,.86,1.31,1.17,.56,.32,1.17,.48,1.84,.48,.3,0,.59-.03,.86-.09s.52-.15,.75-.29c.22-.13,.4-.31,.54-.53,.13-.22,.2-.49,.2-.82,0-.55-.26-.96-.79-1.22-.53-.27-1.3-.52-2.31-.75-.4-.1-.8-.22-1.21-.36s-.78-.34-1.11-.59-.6-.56-.81-.94-.31-.84-.31-1.39c0-.63,.13-1.18,.39-1.64,.26-.46,.6-.83,1.01-1.12,.42-.29,.89-.51,1.42-.65s1.08-.21,1.65-.21c.85,0,1.67,.17,2.46,.5,.79,.33,1.4,.82,1.84,1.45l-1.62,1.38c-.27-.43-.64-.79-1.12-1.06Z"/>
      </g>
    </g>
  </g>
</svg>