<?xml version="1.0" encoding="utf-8"?>
<!-- Generator: Adobe Illustrator 26.3.1, SVG Export Plug-In . SVG Version: 6.00 Build 0)  -->
<svg version="1.1" id="圖層_1" xmlns="http://www.w3.org/2000/svg" xmlns:xlink="http://www.w3.org/1999/xlink" x="0px" y="0px"
	 width="416px" height="54px" viewBox="0 0 416 54" style="enable-background:new 0 0 416 54;" xml:space="preserve">
<style type="text/css">
	.st0{fill:#1F333D;}
</style>
<g id="adi_logo-H-standard-EN_00000067953450244900401700000003709777348425138821_">
	<g>
		<path class="st0" d="M65.3,17.8h-6.1l-1.1,3.1h-1.9l5-13.8h2.1l5,13.8h-1.9L65.3,17.8z M64.8,16.4l-2.5-7l-2.5,7
			C59.8,16.4,64.8,16.4,64.8,16.4z"/>
		<path class="st0" d="M70.5,12.5c0.5-0.8,1.1-1.5,1.9-1.9c0.8-0.5,1.7-0.7,2.6-0.7c0.8,0,1.7,0.2,2.4,0.6c0.7,0.4,1.3,1,1.7,1.5
			V6.2h1.8v14.7H79v-2c-0.4,0.6-0.8,1.2-1.5,1.5C76.8,20.9,75.9,21,75,21s-1.9-0.2-2.6-0.7c-0.8-0.5-1.4-1.2-1.9-2
			c-0.5-0.8-0.7-1.8-0.7-3C69.8,14.4,70,13.3,70.5,12.5z M78.6,13.3c-0.4-0.6-0.8-1.1-1.3-1.4c-0.6-0.4-1.2-0.5-1.9-0.5
			s-1.3,0.1-1.9,0.5c-0.6,0.4-1,0.8-1.3,1.4c-0.4,0.6-0.5,1.3-0.5,2.1c0,0.8,0.1,1.5,0.5,2.1c0.4,0.6,0.8,1.1,1.3,1.4
			c0.6,0.4,1.2,0.5,1.9,0.5s1.3-0.1,1.9-0.5c0.6-0.4,1-0.8,1.3-1.4c0.4-0.6,0.5-1.3,0.5-2.1C79,14.6,78.8,13.9,78.6,13.3z"/>
		<path class="st0" d="M99.2,10.3c0.7,0.4,1.2,0.8,1.5,1.5s0.6,1.5,0.6,2.6v6.4h-1.8v-6.2c0-1.1-0.2-1.9-0.8-2.5
			c-0.6-0.6-1.3-0.8-2.1-0.8c-1,0-1.7,0.4-2.3,1s-0.8,1.4-0.8,2.6v5.9h-1.8v-6.2c0-1.1-0.2-1.9-0.8-2.5c-0.6-0.6-1.3-0.8-2.1-0.8
			c-1,0-1.7,0.4-2.3,1c-0.6,0.6-0.8,1.4-0.8,2.6v5.9h-1.8V10h1.8v1.5c0.4-0.6,0.8-1,1.4-1.3c0.6-0.4,1.3-0.5,2-0.5
			c1,0,1.7,0.2,2.4,0.6c0.7,0.4,1.2,1.1,1.5,1.8c0.4-0.7,0.8-1.3,1.5-1.8C95.3,9.9,96,9.8,97,9.8C97.8,9.9,98.5,10,99.2,10.3z"/>
		<path class="st0" d="M104.5,8c-0.2-0.2-0.4-0.5-0.4-0.8c0-0.4,0.1-0.6,0.4-0.8c0.2-0.2,0.5-0.4,0.8-0.4c0.4,0,0.6,0.1,0.8,0.4
			c0.2,0.2,0.4,0.5,0.4,0.8c0,0.4-0.1,0.6-0.4,0.8c-0.2,0.2-0.5,0.4-0.8,0.4S104.7,8.2,104.5,8z M106.1,10v10.9h-1.8V10H106.1z"/>
		<path class="st0" d="M117.8,11.1c0.8,0.8,1.2,1.9,1.2,3.4v6.4h-1.8v-6.2c0-1.1-0.2-1.9-0.8-2.5c-0.6-0.6-1.3-0.8-2.3-0.8
			c-1,0-1.7,0.4-2.3,1c-0.6,0.6-0.8,1.4-0.8,2.6V21h-1.8V10h1.8v1.5c0.4-0.6,0.8-1,1.4-1.3c0.6-0.4,1.3-0.5,2-0.5
			C115.9,9.9,117,10.2,117.8,11.1z"/>
		<path class="st0" d="M122.1,8c-0.2-0.2-0.4-0.5-0.4-0.8c0-0.4,0.1-0.6,0.4-0.8c0.2-0.2,0.5-0.4,0.8-0.4c0.4,0,0.6,0.1,0.8,0.4
			c0.2,0.2,0.4,0.5,0.4,0.8c0,0.4-0.1,0.6-0.4,0.8s-0.5,0.4-0.8,0.4S122.3,8.2,122.1,8z M123.7,10v10.9h-1.8V10H123.7z"/>
		<path class="st0" d="M128.5,20.7c-0.7-0.2-1.2-0.7-1.5-1.2c-0.4-0.5-0.6-1.1-0.6-1.8h1.9c0,0.6,0.4,1,0.7,1.3
			c0.5,0.4,1.1,0.5,1.8,0.5c0.7,0,1.2-0.1,1.7-0.5c0.4-0.4,0.6-0.7,0.6-1.2c0-0.5-0.2-0.8-0.6-1.1c-0.5-0.2-1.1-0.5-2-0.7
			c-0.8-0.2-1.4-0.5-2-0.6c-0.5-0.2-1-0.6-1.3-1c-0.4-0.5-0.6-1-0.6-1.7c0-0.6,0.1-1.1,0.5-1.5c0.4-0.5,0.8-0.8,1.4-1.1
			c0.6-0.2,1.3-0.4,2.1-0.4c1.2,0,2.1,0.4,3,1c0.7,0.6,1.2,1.4,1.2,2.5h-1.8c0-0.6-0.2-1.1-0.7-1.4c-0.5-0.4-1-0.5-1.7-0.5
			c-0.6,0-1.2,0.1-1.5,0.5c-0.4,0.2-0.6,0.6-0.6,1.1c0,0.4,0.1,0.6,0.4,0.8c0.2,0.2,0.5,0.5,0.8,0.6s0.8,0.2,1.4,0.5
			c0.8,0.2,1.4,0.5,1.9,0.6c0.5,0.2,1,0.5,1.3,1c0.4,0.4,0.5,1,0.6,1.7c0,0.6-0.1,1.2-0.5,1.7c-0.4,0.5-0.8,0.8-1.4,1.1
			c-0.6,0.2-1.3,0.4-2,0.4C129.9,21.2,129.1,20.9,128.5,20.7z"/>
		<path class="st0" d="M139.4,11.5V18c0,0.5,0.1,1,0.4,1.1c0.2,0.2,0.6,0.4,1.2,0.4h1.3v1.5h-1.7c-1,0-1.8-0.2-2.3-0.7
			s-0.7-1.2-0.7-2.3v-6.4h-1.4V10h1.4V7.3h1.8V10h2.9v1.5H139.4z"/>
		<path class="st0" d="M147.6,10.3c0.6-0.4,1.3-0.5,2.1-0.5v1.9h-0.5c-2,0-3.1,1.1-3.1,3.3V21h-1.8V10h1.8v1.8
			C146.6,11.2,147,10.7,147.6,10.3z"/>
		<path class="st0" d="M151.9,12.5c0.5-0.8,1.1-1.5,1.9-1.9c0.8-0.5,1.7-0.7,2.6-0.7c1,0,1.8,0.2,2.5,0.6c0.7,0.4,1.2,1,1.5,1.5v-2
			h1.8v10.9h-1.8v-2c-0.4,0.6-0.8,1.2-1.5,1.5c-0.7,0.5-1.5,0.6-2.5,0.6c-1,0-1.8-0.2-2.6-0.7c-0.8-0.5-1.4-1.2-1.9-2
			c-0.5-0.8-0.7-1.8-0.7-3C151.2,14.4,151.4,13.3,151.9,12.5z M159.9,13.3c-0.4-0.6-0.8-1.1-1.3-1.4c-0.6-0.4-1.2-0.5-1.9-0.5
			s-1.3,0.1-1.9,0.5c-0.6,0.4-1,0.8-1.3,1.4c-0.4,0.6-0.5,1.3-0.5,2.1c0,0.8,0.1,1.5,0.5,2.1s0.8,1.1,1.3,1.4
			c0.6,0.4,1.2,0.5,1.9,0.5s1.3-0.1,1.9-0.5c0.6-0.4,1-0.8,1.3-1.4c0.4-0.6,0.5-1.3,0.5-2.1C160.3,14.6,160.2,13.9,159.9,13.3z"/>
		<path class="st0" d="M167.5,11.5V18c0,0.5,0.1,1,0.4,1.1c0.2,0.2,0.6,0.4,1.2,0.4h1.3v1.5h-1.7c-1,0-1.8-0.2-2.3-0.7
			c-0.5-0.5-0.7-1.2-0.7-2.3v-6.4h-1.4V10h1.4V7.3h1.8V10h2.9v1.5H167.5z"/>
		<path class="st0" d="M172.6,8c-0.2-0.2-0.4-0.5-0.4-0.8c0-0.4,0.1-0.6,0.4-0.8c0.2-0.2,0.5-0.4,0.8-0.4c0.4,0,0.6,0.1,0.8,0.4
			c0.2,0.2,0.4,0.5,0.4,0.8c0,0.4-0.1,0.6-0.4,0.8c-0.2,0.2-0.5,0.4-0.8,0.4S172.8,8.2,172.6,8z M174.4,10v10.9h-1.8V10H174.4z"/>
		<path class="st0" d="M179.4,20.5c-0.8-0.5-1.4-1.1-1.9-2c-0.5-0.8-0.7-1.9-0.7-3s0.2-2.1,0.7-3c0.5-0.8,1.2-1.5,2-2
			c0.8-0.5,1.8-0.7,2.9-0.7c1.1,0,2,0.2,2.9,0.7c0.8,0.5,1.5,1.1,2,1.9c0.5,0.8,0.7,1.8,0.7,3s-0.2,2.1-0.7,3c-0.5,0.8-1.2,1.5-2,2
			s-1.8,0.7-2.9,0.7C181.1,21.2,180.2,20.9,179.4,20.5z M184,19c0.6-0.4,1.1-0.7,1.4-1.4c0.4-0.6,0.5-1.3,0.5-2.3
			c0-0.8-0.1-1.7-0.5-2.3c-0.4-0.6-0.8-1.1-1.3-1.3c-0.6-0.4-1.2-0.5-1.8-0.5c-0.7,0-1.3,0.1-1.8,0.5c-0.6,0.4-1,0.7-1.3,1.3
			c-0.4,0.6-0.5,1.3-0.5,2.3c0,0.8,0.1,1.7,0.5,2.3c0.4,0.6,0.7,1.1,1.3,1.3c0.6,0.4,1.2,0.5,1.8,0.5C182.8,19.5,183.4,19.4,184,19z
			"/>
		<path class="st0" d="M198.6,11.1c0.8,0.8,1.2,1.9,1.2,3.4v6.4H198v-6.2c0-1.1-0.2-1.9-0.8-2.5c-0.6-0.6-1.3-0.8-2.3-0.8
			c-1,0-1.7,0.4-2.3,1s-0.8,1.4-0.8,2.6V21h-1.8V10h1.8v1.5c0.4-0.6,0.8-1,1.4-1.3c0.6-0.4,1.3-0.5,2-0.5
			C196.7,9.9,197.8,10.2,198.6,11.1z"/>
		<path class="st0" d="M212.5,11.5h-2.3v9.4h-1.8v-9.4H207V10h1.4V9.3c0-1.2,0.4-2.1,1-2.6s1.7-0.8,3-0.8v1.5
			c-0.8,0-1.3,0.1-1.7,0.5c-0.4,0.4-0.5,0.8-0.5,1.5v0.8h2.3L212.5,11.5L212.5,11.5z"/>
		<path class="st0" d="M216.7,20.5c-0.8-0.5-1.4-1.1-1.9-2c-0.5-0.8-0.7-1.9-0.7-3s0.2-2.1,0.7-3c0.5-0.8,1.2-1.5,2-2
			c0.8-0.5,1.8-0.7,2.9-0.7c1.1,0,2,0.2,2.9,0.7s1.5,1.1,2,1.9c0.5,0.8,0.7,1.8,0.7,3s-0.2,2.1-0.7,3c-0.5,0.8-1.2,1.5-2,2
			s-1.8,0.7-2.9,0.7C218.3,21.2,217.5,20.9,216.7,20.5z M221.2,19c0.6-0.4,1.1-0.7,1.4-1.4c0.4-0.6,0.5-1.3,0.5-2.3
			c0-0.8-0.1-1.7-0.5-2.3c-0.4-0.6-0.8-1.1-1.3-1.3c-0.6-0.4-1.2-0.5-1.8-0.5c-0.7,0-1.3,0.1-1.8,0.5c-0.6,0.4-1,0.7-1.3,1.3
			c-0.4,0.6-0.5,1.3-0.5,2.3c0,0.8,0.1,1.7,0.5,2.3c0.4,0.6,0.7,1.1,1.3,1.3c0.6,0.4,1.2,0.5,1.8,0.5C220,19.5,220.7,19.4,221.2,19z
			"/>
		<path class="st0" d="M230.6,10.3c0.6-0.4,1.3-0.5,2.1-0.5v1.9h-0.5c-2,0-3.1,1.1-3.1,3.3V21h-1.8V10h1.8v1.8
			C229.5,11.2,230,10.7,230.6,10.3z"/>
		<path class="st0" d="M248.3,8c1.1,0.6,1.9,1.4,2.5,2.4c0.6,1.1,0.8,2.3,0.8,3.7s-0.2,2.6-0.8,3.7c-0.6,1.1-1.4,1.8-2.5,2.4
			c-1.1,0.6-2.4,0.8-3.9,0.8h-4.3V7.1h4.3C245.9,7.1,247.2,7.4,248.3,8z M248.5,18.1c1-1,1.4-2.3,1.4-4c0-1.7-0.5-3.1-1.4-4
			c-1-1-2.3-1.4-4-1.4H242v10.9h2.5C246.2,19.4,247.6,18.9,248.5,18.1z"/>
		<path class="st0" d="M254.7,8c-0.2-0.2-0.4-0.6-0.4-1c0-0.4,0.1-0.6,0.4-0.8c0.2-0.2,0.5-0.4,0.8-0.4c0.4,0,0.6,0.1,0.8,0.4
			c0.2,0.2,0.4,0.5,0.4,0.8c0,0.4-0.1,0.6-0.4,0.8c-0.2,0.2-0.5,0.4-0.8,0.4C255.2,8.3,254.9,8.2,254.7,8z M256.5,10v10.9h-1.8V10
			H256.5z"/>
		<path class="st0" d="M267.1,10.5c0.7,0.4,1.2,1,1.5,1.5v-2h1.8v11.2c0,1-0.2,1.9-0.6,2.6c-0.5,0.8-1.1,1.4-1.8,1.8
			c-0.8,0.5-1.7,0.7-2.7,0.7c-1.4,0-2.6-0.4-3.6-1.1c-1-0.7-1.5-1.5-1.7-2.7h1.8c0.2,0.7,0.6,1.2,1.2,1.5c0.6,0.4,1.4,0.6,2.3,0.6
			c1,0,1.8-0.4,2.4-1c0.6-0.6,1-1.5,1-2.6v-2.3c-0.4,0.6-0.8,1.2-1.5,1.5c-0.7,0.5-1.5,0.6-2.5,0.6s-1.9-0.2-2.6-0.7
			c-0.8-0.5-1.4-1.2-1.9-2c-0.5-0.8-0.7-1.8-0.7-3c0-1.1,0.2-2.1,0.7-3c0.5-0.8,1.1-1.5,1.9-1.9c0.8-0.5,1.7-0.7,2.6-0.7
			C265.5,9.9,266.4,10.1,267.1,10.5z M268.1,13.3c-0.4-0.6-0.8-1.1-1.3-1.4c-0.6-0.4-1.2-0.5-1.9-0.5c-0.7,0-1.3,0.1-1.9,0.5
			c-0.6,0.4-1,0.8-1.3,1.4c-0.4,0.6-0.5,1.3-0.5,2.1c0,0.8,0.1,1.5,0.5,2.1s0.8,1.1,1.3,1.4c0.6,0.4,1.2,0.5,1.9,0.5
			c0.7,0,1.3-0.1,1.9-0.5c0.6-0.4,1-0.8,1.3-1.4s0.5-1.3,0.5-2.1C268.6,14.6,268.5,13.9,268.1,13.3z"/>
		<path class="st0" d="M274.1,8c-0.2-0.2-0.4-0.5-0.4-0.8c0-0.4,0.1-0.6,0.4-0.8c0.2-0.2,0.5-0.4,0.8-0.4c0.4,0,0.6,0.1,0.8,0.4
			s0.4,0.5,0.4,0.8c0,0.4-0.1,0.6-0.4,0.8s-0.5,0.4-0.8,0.4C274.7,8.3,274.3,8.2,274.1,8z M275.9,10v10.9h-1.8V10H275.9z"/>
		<path class="st0" d="M281.7,11.5V18c0,0.5,0.1,1,0.4,1.1c0.2,0.2,0.6,0.4,1.2,0.4h1.3v1.5h-1.7c-1,0-1.8-0.2-2.3-0.7
			c-0.5-0.5-0.7-1.2-0.7-2.3v-6.4h-1.4V10h1.4V7.3h1.8V10h2.9v1.5H281.7z"/>
		<path class="st0" d="M287.3,12.5c0.5-0.8,1.1-1.5,1.9-1.9c0.8-0.5,1.7-0.7,2.6-0.7s1.8,0.2,2.5,0.6c0.7,0.4,1.2,1,1.5,1.5v-2h1.8
			v10.9h-1.8v-2c-0.4,0.6-0.8,1.2-1.5,1.5c-0.7,0.5-1.5,0.6-2.5,0.6s-1.8-0.2-2.6-0.7c-0.8-0.5-1.4-1.2-1.9-2
			c-0.5-0.8-0.7-1.8-0.7-3C286.6,14.4,286.8,13.3,287.3,12.5z M295.2,13.3c-0.4-0.6-0.8-1.1-1.3-1.4c-0.6-0.4-1.2-0.5-1.9-0.5
			c-0.7,0-1.3,0.1-1.9,0.5c-0.6,0.4-1,0.8-1.3,1.4s-0.5,1.3-0.5,2.1c0,0.8,0.1,1.5,0.5,2.1c0.4,0.6,0.8,1.1,1.3,1.4
			c0.6,0.4,1.2,0.5,1.9,0.5c0.7,0,1.3-0.1,1.9-0.5c0.6-0.4,1-0.8,1.3-1.4c0.4-0.6,0.5-1.3,0.5-2.1C295.7,14.6,295.6,13.9,295.2,13.3
			z"/>
		<path class="st0" d="M303,6.2v14.7h-1.8V6.2H303z"/>
		<path class="st0" d="M314.3,7.1v13.8h-1.8V7.1H314.3z"/>
		<path class="st0" d="M326.4,11.1c0.8,0.8,1.2,1.9,1.2,3.4v6.4h-1.8v-6.2c0-1.1-0.2-1.9-0.8-2.5c-0.6-0.6-1.3-0.8-2.3-0.8
			s-1.7,0.4-2.3,1c-0.6,0.6-0.8,1.4-0.8,2.6V21h-1.8V10h1.8v1.5c0.4-0.6,0.8-1,1.4-1.3c0.6-0.4,1.3-0.5,2-0.5
			C324.5,9.9,325.5,10.2,326.4,11.1z"/>
		<path class="st0" d="M331.1,12.5c0.5-0.8,1.1-1.5,1.9-1.9c0.8-0.5,1.7-0.7,2.6-0.7c0.8,0,1.7,0.2,2.4,0.6c0.7,0.4,1.3,1,1.7,1.5
			V6.2h1.8v14.7h-1.8v-2c-0.4,0.6-0.8,1.2-1.5,1.5c-0.7,0.5-1.5,0.6-2.5,0.6c-1,0-1.9-0.2-2.6-0.7c-0.8-0.5-1.4-1.2-1.9-2
			c-0.5-0.8-0.7-1.8-0.7-3C330.4,14.4,330.7,13.3,331.1,12.5z M339.2,13.3c-0.4-0.6-0.8-1.1-1.3-1.4c-0.6-0.4-1.2-0.5-1.9-0.5
			c-0.7,0-1.3,0.1-1.9,0.5c-0.6,0.4-1,0.8-1.3,1.4c-0.4,0.6-0.5,1.3-0.5,2.1c0,0.8,0.1,1.5,0.5,2.1c0.4,0.6,0.8,1.1,1.3,1.4
			c0.6,0.4,1.2,0.5,1.9,0.5c0.7,0,1.3-0.1,1.9-0.5c0.6-0.4,1-0.8,1.3-1.4c0.4-0.6,0.5-1.3,0.5-2.1C339.7,14.6,339.5,13.9,339.2,13.3
			z"/>
		<path class="st0" d="M354.8,10v10.9H353v-1.7c-0.4,0.6-0.8,1-1.4,1.3c-0.6,0.4-1.3,0.5-2,0.5c-0.8,0-1.7-0.1-2.3-0.5
			c-0.7-0.4-1.2-0.8-1.5-1.5c-0.4-0.7-0.6-1.5-0.6-2.6V10h1.8v6.2c0,1.1,0.2,1.9,0.8,2.5c0.6,0.6,1.3,0.8,2.3,0.8c1,0,1.8-0.4,2.3-1
			c0.6-0.6,0.8-1.4,0.8-2.6V10C353.1,10,354.8,10,354.8,10z"/>
		<path class="st0" d="M359.9,20.7c-0.7-0.2-1.2-0.7-1.5-1.2c-0.4-0.5-0.6-1.1-0.6-1.8h1.9c0,0.6,0.4,1,0.7,1.3
			c0.5,0.4,1.1,0.5,1.8,0.5c0.7,0,1.2-0.1,1.7-0.5c0.4-0.4,0.6-0.7,0.6-1.2c0-0.5-0.2-0.8-0.6-1.1c-0.5-0.2-1.1-0.5-2-0.7
			c-0.8-0.2-1.4-0.5-2-0.6c-0.5-0.2-1-0.6-1.3-1c-0.4-0.5-0.6-1-0.6-1.7c0-0.6,0.1-1.1,0.5-1.5c0.4-0.5,0.8-0.8,1.4-1.1
			s1.3-0.4,2.1-0.4c1.2,0,2.1,0.4,3,1c0.7,0.6,1.2,1.4,1.2,2.5h-1.8c0-0.6-0.2-1.1-0.7-1.4c-0.5-0.4-1-0.5-1.7-0.5
			c-0.6,0-1.2,0.1-1.5,0.5c-0.4,0.2-0.6,0.6-0.6,1.1c0,0.4,0.1,0.6,0.4,0.8c0.2,0.2,0.5,0.5,0.8,0.6c0.4,0.1,0.8,0.2,1.4,0.5
			c0.8,0.2,1.4,0.5,1.9,0.6c0.5,0.2,1,0.5,1.3,1c0.4,0.4,0.5,1,0.6,1.7c0,0.6-0.1,1.2-0.5,1.7c-0.4,0.5-0.8,0.8-1.4,1.1
			c-0.6,0.2-1.3,0.4-2,0.4C361.3,21.2,360.6,20.9,359.9,20.7z"/>
		<path class="st0" d="M371.4,11.5V18c0,0.5,0.1,1,0.4,1.1c0.2,0.2,0.6,0.4,1.2,0.4h1.3v1.5h-1.7c-1,0-1.8-0.2-2.3-0.7
			c-0.5-0.5-0.7-1.2-0.7-2.3v-6.4h-1.4V10h1.4V7.3h1.8V10h2.9v1.5H371.4z"/>
		<path class="st0" d="M380.2,10.3c0.6-0.4,1.3-0.5,2.1-0.5v1.9h-0.5c-2,0-3.1,1.1-3.1,3.3V21H377V10h1.8v1.8
			C379.2,11.2,379.6,10.7,380.2,10.3z"/>
		<path class="st0" d="M385,8c-0.2-0.2-0.4-0.5-0.4-0.8c0-0.4,0.1-0.6,0.4-0.8c0.2-0.2,0.5-0.4,0.8-0.4c0.4,0,0.6,0.1,0.8,0.4
			s0.4,0.5,0.4,0.8c0,0.4-0.1,0.6-0.4,0.8c-0.2,0.2-0.5,0.4-0.8,0.4C385.6,8.3,385.2,8.2,385,8z M386.8,10v10.9H385V10H386.8z"/>
		<path class="st0" d="M400.2,16.2h-8.7c0.1,1.1,0.5,1.9,1.1,2.5c0.7,0.6,1.4,1,2.4,1c0.8,0,1.4-0.2,1.9-0.6
			c0.5-0.4,0.8-0.8,1.1-1.4h1.9c-0.2,1.1-0.8,1.9-1.8,2.5c-0.8,0.7-1.9,1-3.2,1c-1.1,0-1.9-0.2-2.7-0.7c-0.8-0.5-1.4-1.1-1.9-2
			c-0.5-0.8-0.7-1.9-0.7-3s0.2-2.1,0.7-3c0.5-0.8,1.1-1.5,1.9-1.9c0.8-0.5,1.8-0.7,2.9-0.7s1.9,0.2,2.7,0.7c0.8,0.5,1.4,1.1,1.8,1.9
			c0.5,0.8,0.6,1.7,0.6,2.6C400.3,15.5,400.3,15.8,400.2,16.2z M397.9,13c-0.4-0.5-0.7-0.8-1.2-1.2c-0.5-0.2-1.1-0.4-1.8-0.4
			c-1,0-1.7,0.2-2.4,0.8c-0.6,0.6-1,1.4-1.1,2.4h6.9C398.4,14,398.3,13.4,397.9,13z"/>
		<path class="st0" d="M404.8,20.7c-0.7-0.2-1.2-0.7-1.5-1.2c-0.4-0.5-0.6-1.1-0.6-1.8h1.9c0,0.6,0.4,1,0.7,1.3
			c0.5,0.4,1.1,0.5,1.8,0.5c0.7,0,1.2-0.1,1.7-0.5c0.4-0.4,0.6-0.7,0.6-1.2c0-0.5-0.2-0.8-0.6-1.1c-0.5-0.2-1.1-0.5-2-0.7
			c-0.8-0.2-1.4-0.5-2-0.6c-0.5-0.2-1-0.6-1.3-1c-0.4-0.5-0.6-1-0.6-1.7c0-0.6,0.1-1.1,0.5-1.5c0.4-0.5,0.8-0.8,1.4-1.1
			c0.6-0.2,1.3-0.4,2.1-0.4c1.2,0,2.1,0.4,3,1c0.7,0.6,1.2,1.4,1.2,2.5h-1.8c0-0.6-0.2-1.1-0.7-1.4c-0.5-0.4-1-0.5-1.7-0.5
			c-0.6,0-1.2,0.1-1.5,0.5c-0.4,0.2-0.6,0.6-0.6,1.1c0,0.4,0.1,0.6,0.4,0.8c0.2,0.2,0.5,0.5,0.8,0.6c0.4,0.1,0.8,0.2,1.4,0.5
			c0.8,0.2,1.4,0.5,1.9,0.6c0.5,0.2,1,0.5,1.3,1c0.4,0.4,0.5,1,0.6,1.7c0,0.6-0.1,1.2-0.5,1.7c-0.4,0.5-0.8,0.8-1.4,1.1
			c-0.6,0.2-1.3,0.4-2,0.4C406.3,21.2,405.5,20.9,404.8,20.7z"/>
		<path class="st0" d="M416,18.4l-2.3,5.3h-1.2l1.4-5.3H416z"/>
		<path class="st0" d="M71.1,31v13.8h-1.8V34.6l-4.5,10.2h-1.3l-4.6-10.2v10.2h-1.8V31H59l5.1,11.4L69.2,31H71.1z"/>
		<path class="st0" d="M74.3,31.7c-0.2-0.2-0.4-0.5-0.4-0.8c0-0.4,0.1-0.6,0.4-0.8s0.5-0.4,0.8-0.4c0.4,0,0.6,0.1,0.8,0.4
			c0.2,0.2,0.4,0.5,0.4,0.8c0,0.4-0.1,0.6-0.4,0.8s-0.5,0.4-0.8,0.4C74.8,32.1,74.5,32,74.3,31.7z M75.9,33.9v10.9h-1.8V33.9H75.9z"
			/>
		<path class="st0" d="M87.6,34.8c0.8,0.8,1.2,1.9,1.2,3.4v6.4H87v-6.1c0-1.1-0.2-1.9-0.8-2.5c-0.6-0.6-1.3-0.8-2.3-0.8
			s-1.7,0.4-2.3,1c-0.6,0.6-0.8,1.4-0.8,2.6v6.1H79V33.9h1.8v1.5c0.4-0.6,0.8-1,1.4-1.3s1.3-0.5,2-0.5
			C85.7,33.6,86.8,34.1,87.6,34.8z"/>
		<path class="st0" d="M91.9,31.7c-0.2-0.2-0.4-0.5-0.4-0.8c0-0.4,0.1-0.6,0.4-0.8s0.5-0.4,0.8-0.4c0.4,0,0.6,0.1,0.8,0.4
			c0.2,0.2,0.4,0.5,0.4,0.8c0,0.4-0.1,0.6-0.4,0.8c-0.2,0.2-0.5,0.4-0.8,0.4C92.4,32.1,92.1,32,91.9,31.7z M93.5,33.9v10.9h-1.8
			V33.9H93.5z"/>
		<path class="st0" d="M98.3,44.5c-0.7-0.2-1.2-0.7-1.5-1.2c-0.4-0.5-0.6-1.1-0.6-1.8h1.9c0,0.6,0.4,1,0.7,1.3
			c0.5,0.4,1.1,0.5,1.8,0.5s1.2-0.1,1.7-0.5c0.4-0.4,0.6-0.7,0.6-1.2s-0.2-0.8-0.6-1.1c-0.5-0.2-1.1-0.5-2-0.7
			c-0.8-0.2-1.4-0.5-2-0.6c-0.5-0.2-1-0.6-1.3-1c-0.4-0.2-0.6-0.8-0.6-1.5c0-0.6,0.1-1.1,0.5-1.5c0.4-0.5,0.8-0.8,1.4-1.1
			c0.6-0.2,1.3-0.4,2.1-0.4c1.2,0,2.1,0.4,3,1c0.7,0.6,1.2,1.4,1.2,2.5h-1.8c0-0.6-0.2-1.1-0.7-1.4c-0.5-0.4-1-0.5-1.7-0.5
			c-0.6,0-1.2,0.1-1.5,0.5c-0.4,0.2-0.6,0.6-0.6,1.1c0,0.4,0.1,0.6,0.4,0.8c0.2,0.2,0.5,0.5,0.8,0.6c0.4,0.1,0.8,0.2,1.4,0.5
			c0.8,0.2,1.4,0.5,1.9,0.6c0.5,0.2,1,0.5,1.3,1c0.4,0.4,0.5,1,0.6,1.7c0,0.6-0.1,1.2-0.5,1.7c-0.4,0.5-0.8,0.8-1.4,1.1
			s-1.3,0.4-2,0.4C99.7,44.9,98.9,44.8,98.3,44.5z"/>
		<path class="st0" d="M109.2,35.4v6.4c0,0.5,0.1,1,0.4,1.1c0.2,0.2,0.6,0.4,1.2,0.4h1.3v1.5h-1.7c-1,0-1.8-0.2-2.3-0.7
			c-0.5-0.5-0.7-1.2-0.7-2.3v-6.4H106v-1.5h1.4v-2.7h1.8v2.7h2.9v1.5H109.2z"/>
		<path class="st0" d="M117.4,34.2c0.6-0.4,1.3-0.5,2.1-0.5v1.9h-0.5c-2,0-3.1,1.1-3.1,3.3v5.9h-1.8V33.9h1.8v1.8
			C116.4,35.1,116.8,34.6,117.4,34.2z"/>
		<path class="st0" d="M131.1,33.9l-6.5,16h-1.9l2.1-5.2l-4.4-10.8h2l3.4,8.8l3.3-8.8C129.2,33.9,131.1,33.9,131.1,33.9z"/>
		<path class="st0" d="M140.1,44.2c-0.8-0.5-1.4-1.1-1.9-2c-0.5-0.8-0.7-1.9-0.7-3c0-1.1,0.2-2.1,0.7-3c0.5-0.8,1.2-1.5,2-2
			c0.8-0.5,1.8-0.7,2.9-0.7s2,0.2,2.9,0.7c0.8,0.5,1.5,1.1,2,1.9c0.5,0.8,0.7,1.8,0.7,3c0,1.1-0.2,2.1-0.7,3s-1.2,1.5-2,2
			c-0.8,0.5-1.8,0.7-2.9,0.7C141.9,44.9,141,44.7,140.1,44.2z M144.8,42.9c0.6-0.4,1.1-0.7,1.4-1.4c0.4-0.6,0.5-1.3,0.5-2.3
			c0-0.8-0.1-1.7-0.5-2.3c-0.4-0.6-0.8-1.1-1.3-1.3c-0.6-0.4-1.2-0.5-1.8-0.5c-0.7,0-1.3,0.1-1.8,0.5c-0.6,0.4-1,0.7-1.3,1.3
			c-0.4,0.6-0.5,1.3-0.5,2.3c0,0.8,0.1,1.7,0.5,2.3c0.4,0.6,0.7,1.1,1.3,1.3c0.6,0.4,1.2,0.5,1.8,0.5S144.2,43.2,144.8,42.9z"/>
		<path class="st0" d="M155.3,35.4h-2.3v9.4h-1.8v-9.4h-1.5v-1.5h1.4v-0.8c0-1.2,0.4-2.1,1-2.6c0.6-0.6,1.7-0.8,3-0.8v1.5
			c-0.8,0-1.3,0.1-1.7,0.5c-0.4,0.4-0.5,0.8-0.5,1.5v0.7h2.3v1.5H155.3z"/>
		<path class="st0" d="M170.9,31.7c1.1,0.6,1.9,1.4,2.5,2.4c0.6,1.1,0.8,2.3,0.8,3.7s-0.2,2.6-0.8,3.7s-1.4,1.8-2.5,2.4
			c-1.1,0.6-2.4,0.8-3.9,0.8h-4.3V30.9h4.3C168.5,30.9,169.8,31.1,170.9,31.7z M171.2,41.8c1-1,1.4-2.3,1.4-4c0-1.7-0.5-3.1-1.4-4
			c-1-1-2.3-1.4-4-1.4h-2.5v10.9h2.5C168.8,43.3,170.2,42.8,171.2,41.8z"/>
		<path class="st0" d="M176.9,31.7c-0.2-0.2-0.4-0.5-0.4-0.8c0-0.4,0.1-0.6,0.4-0.8c0.2-0.2,0.5-0.4,0.8-0.4c0.4,0,0.6,0.1,0.8,0.4
			c0.2,0.2,0.4,0.5,0.4,0.8c0,0.4-0.1,0.6-0.4,0.8c-0.2,0.2-0.5,0.4-0.8,0.4C177.3,32.1,177.1,32,176.9,31.7z M178.5,33.9v10.9h-1.8
			V33.9H178.5z"/>
		<path class="st0" d="M188.6,34.4c0.7,0.4,1.2,1,1.5,1.5v-2h1.8v11.2c0,1-0.2,1.9-0.6,2.6c-0.5,0.8-1.1,1.4-1.8,1.8
			c-0.8,0.5-1.7,0.7-2.7,0.7c-1.4,0-2.6-0.4-3.6-1.1s-1.5-1.5-1.7-2.7h1.8c0.2,0.7,0.6,1.2,1.2,1.5c0.6,0.4,1.4,0.6,2.3,0.6
			c1,0,1.8-0.4,2.4-1c0.6-0.6,1-1.5,1-2.6v-2.3c-0.4,0.6-0.8,1.2-1.5,1.5c-0.7,0.5-1.5,0.6-2.5,0.6c-1,0-1.9-0.2-2.6-0.7
			c-0.8-0.5-1.4-1.2-1.9-2c-0.5-0.8-0.7-1.8-0.7-3c0-1.1,0.2-2.1,0.7-3s1.1-1.5,1.9-1.9c0.8-0.5,1.7-0.7,2.6-0.7
			C187.1,33.6,187.9,33.9,188.6,34.4z M189.7,37.2c-0.4-0.6-0.8-1.1-1.3-1.4c-0.6-0.4-1.2-0.5-1.9-0.5s-1.3,0.1-1.9,0.5
			s-1,0.8-1.3,1.4c-0.4,0.6-0.5,1.3-0.5,2.1s0.1,1.5,0.5,2.1c0.4,0.6,0.8,1.1,1.3,1.4c0.6,0.4,1.2,0.5,1.9,0.5s1.3-0.1,1.9-0.5
			c0.6-0.4,1-0.8,1.3-1.4c0.4-0.6,0.5-1.3,0.5-2.1C190.2,38.5,190.1,37.8,189.7,37.2z"/>
		<path class="st0" d="M195.2,31.7c-0.2-0.2-0.4-0.5-0.4-0.8c0-0.4,0.1-0.6,0.4-0.8c0.2-0.2,0.5-0.4,0.8-0.4c0.4,0,0.6,0.1,0.8,0.4
			c0.2,0.2,0.4,0.5,0.4,0.8c0,0.4-0.1,0.6-0.4,0.8c-0.2,0.2-0.5,0.4-0.8,0.4C195.6,32.1,195.4,32,195.2,31.7z M196.8,33.9v10.9H195
			V33.9H196.8z"/>
		<path class="st0" d="M202.2,35.4v6.4c0,0.5,0.1,1,0.4,1.1c0.2,0.2,0.6,0.4,1.2,0.4h1.3v1.5h-1.7c-1,0-1.8-0.2-2.3-0.7
			c-0.5-0.5-0.7-1.2-0.7-2.3v-6.4H199v-1.5h1.4v-2.7h1.8v2.7h2.9v1.5H202.2z"/>
		<path class="st0" d="M207.2,36.4c0.5-0.8,1.1-1.5,1.9-1.9c0.8-0.5,1.7-0.7,2.6-0.7c1,0,1.8,0.2,2.5,0.6s1.2,1,1.5,1.5v-2h1.8v10.9
			h-1.8v-2c-0.4,0.6-0.8,1.2-1.5,1.5c-0.7,0.5-1.5,0.6-2.5,0.6c-1,0-1.8-0.2-2.6-0.7c-0.8-0.5-1.4-1.2-1.9-2c-0.5-0.8-0.7-1.8-0.7-3
			C206.5,38.2,206.7,37.2,207.2,36.4z M215.3,37.2c-0.4-0.6-0.8-1.1-1.3-1.4c-0.6-0.4-1.2-0.5-1.9-0.5s-1.3,0.1-1.9,0.5
			s-1,0.8-1.3,1.4c-0.4,0.6-0.5,1.3-0.5,2.1s0.1,1.5,0.5,2.1c0.4,0.6,0.8,1.1,1.3,1.4c0.6,0.4,1.2,0.5,1.9,0.5s1.3-0.1,1.9-0.5
			c0.6-0.4,1-0.8,1.3-1.4c0.4-0.6,0.5-1.3,0.5-2.1C215.7,38.5,215.6,37.8,215.3,37.2z"/>
		<path class="st0" d="M222.4,30.1v14.7h-1.8V30.1H222.4z"/>
		<path class="st0" d="M239,41.7H233l-1.1,3.1H230l5-13.8h2.1l5,13.8h-2L239,41.7z M238.4,40.2l-2.5-7l-2.5,7H238.4z"/>
		<path class="st0" d="M248.6,35.4h-2.3v9.4h-1.8v-9.4h-1.4v-1.5h1.4v-0.8c0-1.2,0.4-2.1,1-2.6c0.6-0.6,1.7-0.8,3-0.8v1.5
			c-0.8,0-1.3,0.1-1.7,0.5c-0.4,0.4-0.5,0.8-0.5,1.5v0.7h2.3L248.6,35.4L248.6,35.4z"/>
		<path class="st0" d="M255.2,35.4h-2.3v9.4h-1.8v-9.4h-1.5v-1.5h1.4v-0.8c0-1.2,0.4-2.1,1-2.6c0.6-0.6,1.7-0.8,3-0.8v1.5
			c-0.8,0-1.3,0.1-1.7,0.5c-0.4,0.4-0.5,0.8-0.5,1.5v0.7h2.3v1.5H255.2z"/>
		<path class="st0" d="M257.2,36.4c0.5-0.8,1.1-1.5,1.9-1.9c0.8-0.5,1.7-0.7,2.6-0.7s1.8,0.2,2.5,0.6c0.7,0.4,1.2,1,1.5,1.5v-2h1.8
			v10.9h-1.8v-2c-0.4,0.6-0.8,1.2-1.5,1.5c-0.7,0.5-1.5,0.6-2.5,0.6s-1.8-0.2-2.6-0.7c-0.8-0.5-1.4-1.2-1.9-2s-0.7-1.8-0.7-3
			C256.6,38.2,256.9,37.2,257.2,36.4z M265.3,37.2c-0.4-0.6-0.8-1.1-1.3-1.4c-0.6-0.4-1.2-0.5-1.9-0.5c-0.7,0-1.3,0.1-1.9,0.5
			c-0.6,0.4-1,0.8-1.3,1.4c-0.4,0.6-0.5,1.3-0.5,2.1s0.1,1.5,0.5,2.1c0.4,0.6,0.8,1.1,1.3,1.4c0.6,0.4,1.2,0.5,1.9,0.5
			c0.7,0,1.3-0.1,1.9-0.5c0.6-0.4,1-0.8,1.3-1.4c0.4-0.6,0.5-1.3,0.5-2.1C265.8,38.5,265.6,37.8,265.3,37.2z"/>
		<path class="st0" d="M270.8,31.7c-0.2-0.2-0.4-0.5-0.4-0.8c0-0.4,0.1-0.6,0.4-0.8c0.2-0.2,0.5-0.4,0.8-0.4c0.4,0,0.6,0.1,0.8,0.4
			c0.2,0.2,0.4,0.5,0.4,0.8c0,0.4-0.1,0.6-0.4,0.8s-0.5,0.4-0.8,0.4C271.2,32.1,271,32,270.8,31.7z M272.5,33.9v10.9h-1.8V33.9
			H272.5z"/>
		<path class="st0" d="M278.7,34.2c0.6-0.4,1.3-0.5,2.1-0.5v1.9h-0.5c-2,0-3.1,1.1-3.1,3.3v5.9h-1.8V33.9h1.8v1.8
			C277.7,35.1,278.1,34.6,278.7,34.2z"/>
		<path class="st0" d="M284.5,44.5c-0.7-0.2-1.2-0.7-1.5-1.2c-0.4-0.5-0.6-1.1-0.6-1.8h1.9c0,0.6,0.4,1,0.7,1.3
			c0.5,0.4,1.1,0.5,1.8,0.5c0.7,0,1.2-0.1,1.7-0.5c0.4-0.4,0.6-0.7,0.6-1.2s-0.2-0.8-0.6-1.1c-0.5-0.2-1.1-0.5-2-0.7
			c-0.8-0.2-1.4-0.5-2-0.6c-0.5-0.2-1-0.6-1.3-1c-0.4-0.5-0.6-1-0.6-1.7c0-0.6,0.1-1.1,0.5-1.5c0.4-0.5,0.8-0.8,1.4-1.1
			c0.6-0.2,1.3-0.4,2.1-0.4c1.2,0,2.1,0.4,3,1c0.7,0.6,1.2,1.4,1.2,2.5h-1.8c0-0.6-0.2-1.1-0.7-1.4c-0.5-0.4-1-0.5-1.7-0.5
			c-0.6,0-1.2,0.1-1.5,0.5c-0.4,0.2-0.6,0.6-0.6,1.1c0,0.4,0.1,0.6,0.4,0.8c0.2,0.2,0.5,0.5,0.8,0.6c0.4,0.1,0.8,0.2,1.4,0.5
			c0.8,0.2,1.4,0.5,1.9,0.6c0.5,0.2,1,0.5,1.3,1c0.4,0.4,0.5,1,0.6,1.7c0,0.6-0.1,1.2-0.5,1.7c-0.4,0.5-0.8,0.8-1.4,1.1
			c-0.6,0.2-1.3,0.4-2,0.4C286,44.9,285.3,44.8,284.5,44.5z"/>
	</g>
	<g>
		<path class="st0" d="M7.5,25.8c0-6.2,5-11.2,11.2-11.2h4.3V7.1c-3.4,0-4.4-0.2-8,0.5h-0.1C6.4,9.3,0,16.9,0,25.8
			c0,10.3,8.4,18.8,18.7,18.8h18.9V7.1h-7.3v30H18.7C12.5,37.1,7.5,32,7.5,25.8z"/>
		<path class="st0" d="M14.6,26c0,2.4,1.8,4,4.2,4h4.2v-8.3H19C16.5,21.6,14.6,23.7,14.6,26z"/>
		<rect x="41.7" y="20.7" class="st0" width="8.4" height="24"/>
		<polygon class="st0" points="41.7,7.1 49,7.1 49,9.2 43.9,9.2 43.9,13.3 49,13.3 49,15.5 41.7,15.5 		"/>
		<polygon class="st0" points="52.2,10.2 44.8,10.2 44.8,12.3 50,12.3 50,16.4 44.8,16.4 44.8,18.6 52.2,18.6 		"/>
	</g>
</g>
</svg>
