<?xml version="1.0" encoding="utf-8"?>
<!-- Generator: Adobe Illustrator 26.5.0, SVG Export Plug-In . SVG Version: 6.00 Build 0)  -->
<svg version="1.1" id="_層_1" xmlns="http://www.w3.org/2000/svg" xmlns:xlink="http://www.w3.org/1999/xlink" x="0px" y="0px"
	 viewBox="0 0 416.2 385.2" style="enable-background:new 0 0 416.2 385.2;" xml:space="preserve">
<style type="text/css">
	.st0{fill:#FFFFFF;}
	.st1{fill:none;stroke:#4D4D4D;stroke-miterlimit:10;}
	.st2{fill:#2A5167;}
	.st3{fill:#386C8A;}
	.st4{fill:#1F323D;}
	.st5{fill:none;stroke:#4D4D4D;stroke-width:1.01;stroke-miterlimit:10;}
	.st6{fill:#B4C43F;}
</style>
<rect x="-2.5" y="-3" class="st0" width="421.2" height="391.2"/>
<g>
	<line class="st1" x1="233" y1="158.2" x2="205.4" y2="158.2"/>
	<line class="st1" x1="205.8" y1="32.8" x2="206" y2="197.8"/>
	<path class="st1" d="M128,104.2l0.7-22.6c0.1-4.3,4.3-7.8,9.3-7.8h133.9c5.2,0,9.4,3.6,9.4,8v22.4"/>
	<path class="st2" d="M77.7,88h100c2.8,0,5,2.2,5,5v21.7c0,2.8-2.2,5-5,5h-100c-2.8,0-5-2.2-5-5V93C72.7,90.2,75,88,77.7,88z"/>
	<path class="st3" d="M331.1,174.2h-100c-2.8,0-5-2.2-5-5v-22c0-2.8,2.2-5,5-5h100c2.8,0,5,2.2,5,5v22
		C336.1,171.9,333.9,174.2,331.1,174.2z"/>
	<path class="st2" d="M231.1,88h100c2.8,0,5,2.2,5,5v21.7c0,2.8-2.2,5-5,5h-100c-2.8,0-5-2.2-5-5V93C226.1,90.2,228.4,88,231.1,88z"
		/>
	<g>
		<path class="st0" d="M100,96.4h9.9v1.2H100V96.4z M100.5,104.3h9.1v7.4h-1.3V111h-6.6v1h-1.2V104.3L100.5,104.3z M108.8,98.8v4.2
			h-7.7v-4.2H108.8z M101.7,105.4v1.7h2.7v-1.7H101.7z M104.4,109.9v-1.8h-2.7v1.8H104.4z M107.5,99.9h-5.2v2h5.2V99.9z
			 M108.3,105.4h-2.7v1.7h2.7V105.4z M108.3,109.9v-1.8h-2.7v1.8H108.3z M112.2,107.7H111v-9.9h1.2V107.7z M115.4,95.9v14.3
			c0,0.9-0.2,1.3-0.8,1.5c-0.6,0.2-1.5,0.3-3,0.2c-0.1-0.4-0.2-0.9-0.4-1.3c1.2,0.1,2.2,0,2.5,0c0.3,0,0.4-0.1,0.4-0.4V95.9
			L115.4,95.9L115.4,95.9z"/>
		<path class="st0" d="M129.8,104.8c-0.8,0.4-1.7,0.8-2.6,1.2h6.8v6h-1.3v-0.5h-7.9v0.6h-1.3v-4.6c-1.1,0.4-2.3,0.7-3.5,1
			c-0.1-0.3-0.5-0.9-0.7-1.2c2.6-0.6,5.3-1.4,7.7-2.4h-7.4v-1.1h6.7v-1.3h-4.9v-1.1h4.9V100h-5.7v-3.7h13.9v3.7h-6.9v1.3h4v0.9
			c0.7-0.5,1.3-1,1.9-1.6l1,0.7c-0.9,0.9-1.9,1.7-3.1,2.4h4v1.1L129.8,104.8L129.8,104.8z M124.9,97.2h-2.9V99h2.9V97.2z M132.7,107
			h-7.9v1.2h7.9V107z M132.7,110.4v-1.3h-7.9v1.3H132.7z M129.1,99v-1.7h-2.9V99H129.1z M129.4,103.6c0.8-0.4,1.5-0.9,2.2-1.3h-3.8
			v1.3H129.4L129.4,103.6z M130.4,99h3v-1.7h-3V99z"/>
		<path class="st0" d="M154.7,106.3c-1.1,0.8-2.6,1.7-3.9,2.4c1.4,1,3.1,1.7,5.1,2.1c-0.3,0.3-0.6,0.8-0.8,1.2
			c-4.1-0.9-6.9-3.1-8.5-6.5h-2.9v4.8l4.9-1.2c0,0.3-0.1,0.9,0,1.2c-5,1.3-5.9,1.5-6.3,1.8l-0.1,0.1c-0.1-0.3-0.4-1-0.6-1.3
			c0.4-0.2,0.9-0.6,0.9-1.3v-4h-2.9v-1.2h3.1v-7.9h11.1v1.1H144V99h9.2v1.1H144v1.5h9.2v1.1H144v1.6h11.5v1.2H148
			c0.5,0.9,1.1,1.8,1.9,2.5c1.3-0.7,2.8-1.6,3.7-2.4L154.7,106.3L154.7,106.3z"/>
	</g>
	<g>
		<path class="st0" d="M259.4,164.5v1.3h-15.9v-1.3h7.2v-4.4h-5.6v-1.3h5.6v-3.9h-6.4v-1.3h7.9c-0.7-0.8-2-2-3.1-2.8l1.1-0.8
			c1.1,0.8,2.6,2.1,3.3,2.9l-0.9,0.6h5.8v1.3h-6.4v3.9h5.7v1.3h-5.6v4.4H259.4L259.4,164.5z"/>
		<path class="st0" d="M268.9,150.4c-0.5,1.3-1.2,2.6-1.9,3.8v12.1h-1.3v-10.1c-0.7,0.9-1.4,1.8-2.1,2.4c-0.1-0.3-0.6-1-0.8-1.3
			c1.9-1.7,3.8-4.5,4.9-7.3L268.9,150.4L268.9,150.4z M274.5,158.9v5.5h4.6v1.3h-10.5v-1.3h4.6v-5.5H268v-1.3h5.1v-4.7h-4v-1.3h9.6
			v1.3h-4.3v4.7h5v1.3H274.5z"/>
		<path class="st0" d="M288,160.8c-0.2-0.5-0.8-1.6-1.2-2.4v8h-1.3v-7.5c-0.6,1.7-1.4,3.3-2.2,4.3c-0.1-0.4-0.5-1-0.7-1.3
			c1-1.3,2.1-3.6,2.7-5.6h-2.3v-1.3h2.5v-2.9c-0.6,0.1-1.3,0.3-1.9,0.4c-0.1-0.3-0.2-0.8-0.4-1.1c1.7-0.3,3.6-0.9,4.8-1.4l0.8,1.1
			c-0.6,0.3-1.3,0.5-2.1,0.7v3.2h2.1v1.3h-2.1v0.4c0.5,0.6,1.8,2.5,2,3L288,160.8L288,160.8z M298.1,161.8c-0.2-1.5-0.9-3.7-1.7-5.3
			c-0.9,2.2-2,4.2-3.4,5.9v1.8c0,0.7,0.1,0.9,0.8,0.9h2.1c0.6,0,0.7-0.5,0.8-2.7c0.3,0.2,0.8,0.5,1.1,0.5c-0.1,2.6-0.5,3.3-1.8,3.3
			h-2.4c-1.5,0-1.9-0.4-1.9-2v-0.2c-0.7,0.8-1.5,1.5-2.3,2.1c-0.2-0.2-0.8-0.7-1.1-0.9c1.3-0.9,2.4-2,3.4-3.2v-8.2h1.3v6.4
			c1.7-2.6,2.9-5.7,3.9-9.2l1.3,0.2c-0.5,1.8-1.1,3.6-1.8,5.2l1.1-0.3c0.8,1.7,1.5,3.9,1.8,5.3L298.1,161.8L298.1,161.8z
			 M288.4,161.2c0.7-1.4,1.1-3.7,1.3-5.6l1,0.2c-0.2,1.8-0.6,4.3-1.3,5.7L288.4,161.2L288.4,161.2z M294.8,153.5
			c-0.7-0.8-2.2-1.9-3.4-2.7l0.8-0.9c1.2,0.7,2.7,1.8,3.5,2.6L294.8,153.5L294.8,153.5z"/>
		<path class="st0" d="M318.8,159v1h-15.9v-1h7.2v-1.1h-6V157h6v-0.9h-5.5v-0.9h5.5v-1.1h-7.2v-1h7.2v-1h-5.3v-0.9h5.3v-1.3h1.3v1.3
			h5.1v1.9h2.1v1h-2.1v2h-5.1v0.9h6.1v0.9h-6.1v1.1L318.8,159L318.8,159z M305.1,160.9h11.5v5.6h-1.3v-0.6h-8.9v0.6h-1.3
			L305.1,160.9L305.1,160.9z M306.4,161.8v1.1h8.9v-1.1H306.4z M315.3,164.9v-1.1h-8.9v1.1H315.3z M311.4,153.1h3.8v-1h-3.8V153.1z
			 M311.4,155.2h3.8v-1.1h-3.8V155.2z"/>
	</g>
	<g>
		<path class="st0" d="M252.9,96.4h9.9v1.2h-9.9V96.4z M253.4,104.3h9.1v7.4h-1.3V111h-6.6v1h-1.2V104.3L253.4,104.3z M261.7,98.8
			v4.2H254v-4.2H261.7z M254.6,105.4v1.7h2.7v-1.7H254.6L254.6,105.4z M257.3,109.9v-1.8h-2.7v1.8H257.3z M260.5,99.9h-5.2v2h5.2
			V99.9z M261.2,105.4h-2.7v1.7h2.7V105.4z M261.2,109.9v-1.8h-2.7v1.8H261.2z M265.1,107.7h-1.2v-9.9h1.2V107.7z M268.4,95.9v14.3
			c0,0.9-0.2,1.3-0.8,1.5c-0.6,0.2-1.5,0.3-3,0.2c0-0.4-0.2-0.9-0.5-1.3c1.1,0.1,2.2,0,2.5,0c0.3,0,0.5-0.1,0.5-0.4V95.9L268.4,95.9
			L268.4,95.9z"/>
		<path class="st0" d="M282.7,104.8c-0.8,0.4-1.7,0.8-2.6,1.2h6.8v6h-1.3v-0.5h-7.9v0.6h-1.3v-4.6c-1.1,0.4-2.3,0.7-3.5,1
			c-0.1-0.3-0.5-0.9-0.7-1.2c2.6-0.6,5.3-1.4,7.7-2.4h-7.4v-1.1h6.7v-1.3h-5v-1.1h5V100h-5.7v-3.7h13.9v3.7h-6.9v1.3h4v0.9
			c0.7-0.5,1.3-1,1.9-1.6l1,0.7c-0.9,0.9-1.9,1.7-3.1,2.4h4v1.1L282.7,104.8L282.7,104.8z M277.9,97.2H275V99h2.9V97.2z M285.6,107
			h-7.9v1.2h7.9V107z M285.6,110.4v-1.3h-7.9v1.3H285.6z M282.1,99v-1.7h-3V99H282.1z M282.3,103.6c0.8-0.4,1.5-0.9,2.2-1.3h-3.8
			v1.3H282.3L282.3,103.6z M283.3,99h3v-1.7h-3V99z"/>
		<path class="st0" d="M307.6,106.3c-1.1,0.8-2.6,1.7-3.9,2.4c1.4,1,3.1,1.7,5.1,2.1c-0.3,0.3-0.6,0.8-0.8,1.2
			c-4.1-0.9-6.9-3.1-8.5-6.5h-2.9v4.8l4.9-1.2c0,0.3,0,0.9,0,1.2c-5,1.3-5.9,1.5-6.3,1.8l-0.1,0.1c-0.1-0.3-0.4-1-0.6-1.3
			c0.4-0.2,0.9-0.6,0.9-1.3v-4h-2.9v-1.2h3.1v-7.9h11.1v1.1h-9.7V99h9.2v1.1h-9.2v1.5h9.2v1.1h-9.2v1.6h11.5v1.2h-7.5
			c0.5,0.9,1.1,1.8,1.9,2.5c1.3-0.7,2.8-1.6,3.7-2.4L307.6,106.3L307.6,106.3z"/>
	</g>
	<path class="st4" d="M161.5,16.4h87.7c2.8,0,5,2.2,5,5v22c0,2.8-2.2,5-5,5h-87.7c-2.8,0-5-2.2-5-5v-22
		C156.5,18.6,158.7,16.4,161.5,16.4z"/>
	<g>
		<path class="st0" d="M187.9,32.4c-0.8,0.4-1.7,0.8-2.6,1.2h6.8v6h-1.3v-0.5h-7.9v0.6h-1.3v-4.6c-1.1,0.4-2.3,0.7-3.5,1
			c-0.1-0.3-0.5-0.9-0.7-1.2c2.6-0.6,5.3-1.4,7.7-2.4h-7.4v-1.1h6.7V30h-4.9v-1.1h4.9v-1.3h-5.7V24h13.9v3.7h-6.9v1.3h4v0.9
			c0.7-0.5,1.3-1,1.9-1.5l1,0.7c-0.9,0.9-1.9,1.7-3.1,2.4h4v1.1L187.9,32.4L187.9,32.4z M183,24.9h-2.9v1.7h2.9V24.9z M190.8,34.6
			h-7.9v1.2h7.9V34.6z M190.8,38.1v-1.3h-7.9v1.3H190.8z M187.2,26.6v-1.7h-2.9v1.7H187.2z M187.4,31.3c0.8-0.4,1.5-0.9,2.2-1.4
			h-3.8v1.4H187.4L187.4,31.3z M188.4,26.6h3v-1.7h-3V26.6z"/>
		<path class="st0" d="M232.6,34c-1.1,0.8-2.6,1.7-3.9,2.4c1.4,1,3.1,1.7,5.1,2c-0.3,0.3-0.6,0.8-0.8,1.2c-4.1-0.9-6.9-3.1-8.5-6.5
			h-2.9v4.8l4.9-1.2c0,0.3-0.1,0.9,0,1.2c-5,1.3-5.9,1.5-6.3,1.8l-0.1,0c-0.1-0.3-0.4-1-0.6-1.3c0.4-0.2,0.9-0.6,0.9-1.3v-4h-2.9
			v-1.2h3.1V24h11.1v1.1h-9.7v1.5h9.2v1.1h-9.2v1.5h9.2v1.1h-9.2v1.5h11.5v1.2h-7.5c0.5,1,1.1,1.8,1.9,2.5c1.3-0.7,2.8-1.6,3.7-2.4
			L232.6,34L232.6,34z"/>
	</g>
</g>
<g>
	<path class="st5" d="M94.1,216.8v-9c0-5.5,3.8-10,8.5-10h210.9c4.7,0,8.5,4.5,8.5,10v9"/>
	<path class="st6" d="M174.1,225.1v22c0,2.8-2.2,5-5,5h-150c-2.8,0-5-2.2-5-5v-22c0-2.8,2.2-5,5-5h150
		C171.9,220.1,174.1,222.3,174.1,225.1z"/>
	<path class="st6" d="M402.1,225.1v22c0,2.8-2.2,5-5,5h-150c-2.8,0-5-2.2-5-5v-22c0-2.8,2.2-5,5-5h150
		C399.9,220.1,402.1,222.3,402.1,225.1z"/>
	<g>
		<g>
			<path d="M40.1,266.2c-0.5,3-1.2,5.4-2.4,7.4c1,1.5,2.2,2.6,3.8,3.4c-0.3,0.3-0.7,0.8-0.9,1.1c-1.5-0.8-2.7-1.9-3.6-3.3
				c-1,1.4-2.4,2.5-4,3.4c-0.1-0.3-0.5-0.9-0.8-1.2c1.8-0.9,3.1-2,4.1-3.4c-0.8-1.5-1.4-3.2-1.8-5.1c-0.4,0.7-0.8,1.4-1.2,2
				c-0.2-0.2-0.8-0.7-1.1-0.9l0.1-0.1h-2v4.6l3.1-0.7l0.1,1.2c-3,0.7-6.1,1.5-8.4,2l-0.2-1.3l1.1-0.2v-8H27v7.7l1.8-0.4v-10h-3.8
				v-1.3h8.2v1.3h-3.1v3.9h2.5v0.6c1.2-1.9,2-4.4,2.5-7.1l1.3,0.2c-0.2,1.1-0.5,2.1-0.8,3.1h5.6v1.3L40.1,266.2L40.1,266.2z
				 M35.1,266.5c0.4,2.1,1,4.1,1.8,5.7c0.9-1.7,1.4-3.7,1.8-6h-3.5L35.1,266.5L35.1,266.5z"/>
			<path d="M33.9,290.2c1.4,1.6,4.3,3.3,7.5,4c-0.3,0.3-0.7,0.8-0.8,1.2c-2.8-0.7-5.2-2.2-6.7-3.7v4.3h-1.4v-4.4
				c-1.8,1.7-4.2,3.1-6.7,3.8c-0.2-0.3-0.5-0.9-0.9-1.1c3-0.7,6-2.3,7.6-4.2v-1.5H28v3.5h-1.4v-4.6h5.8V286h-7.1v-1.2h7.1v-1.1h1.4
				v1.1h6.9v1.2h-6.9v1.4h5.8v3.3c0,0.6-0.1,0.9-0.6,1.1c-0.5,0.2-1.2,0.2-2.2,0.2c-0.1-0.3-0.3-0.8-0.5-1.1c0.7,0,1.4,0,1.6,0
				c0.2,0,0.3-0.1,0.3-0.2v-2.1h-4.5L33.9,290.2L33.9,290.2z M27.7,282c-0.6,0.9-1.2,1.7-1.9,2.3c-0.2-0.2-0.6-0.7-0.9-0.9
				c1.1-1,2.1-2.4,2.7-3.9l1.2,0.3c-0.1,0.4-0.3,0.7-0.5,1.1H33v1.1h-3.4c0.6,0.5,1.3,1.2,1.6,1.6l-0.9,0.8
				c-0.3-0.5-1.1-1.3-1.7-1.9l0.7-0.5H27.7z M35.2,282c-0.4,0.6-0.9,1.2-1.4,1.7c-0.2-0.2-0.7-0.6-1-0.8c1-0.8,1.8-2,2.2-3.4
				l1.2,0.3c-0.1,0.4-0.3,0.7-0.5,1.1h5.4v1.1h-3.9c0.6,0.5,1.4,1.1,1.8,1.6l-0.9,0.8c-0.4-0.5-1.2-1.2-1.8-1.8l0.8-0.6L35.2,282
				L35.2,282z"/>
			<path d="M31,311.6c-0.4-0.7-1.5-2.2-2.3-3.2c-0.4,2-1.3,3.9-3,5.5c-0.2-0.3-0.6-0.7-0.9-0.9c2.2-1.8,2.8-4.5,3-6.9h-2.9v-1.2h3
				c0-0.4,0-0.8,0-1.1v-1.8h-2.6v-1.2h2.6v-2.8h1.3v2.8h2.5v1.2h-2.5v1.8c0,0.4,0,0.8,0,1.1H32v1.2h-2.9c0,0.3-0.1,0.7-0.1,1
				c0.7,0.8,2.6,3,3,3.6L31,311.6L31,311.6z M39.8,312.5c0.3,0,0.4-0.2,0.5-1.4c0.2,0.2,0.8,0.4,1.1,0.5c-0.1,1.7-0.5,2.1-1.4,2.1
				h-1.5c-1.2,0-1.5-0.4-1.5-1.6v-3.9h-1.3c-0.3,2.7-1.3,4.7-4.3,5.8c-0.1-0.3-0.5-0.8-0.8-1c2.7-0.9,3.5-2.6,3.8-4.8h-1.7v-10h7.7
				v10h-2.1v3.9c0,0.4,0,0.4,0.4,0.4H39.8L39.8,312.5z M33.9,301.3H39v-1.8h-5.1V301.3z M33.9,304.2H39v-1.8h-5.1V304.2z
				 M33.9,307.1H39v-1.8h-5.1V307.1z"/>
			<path d="M24.9,330.5c2.5-0.1,6.5-0.3,10.3-0.5l0,1c-3.7,0.2-7.6,0.4-10.1,0.5L24.9,330.5L24.9,330.5z M34.1,318.5h1.1v0.9h-1.1
				v1.8h-3.5v0.8h3.8v0.9h-3.8v0.8h4.5v0.9H25v-0.9h4.4v-0.8h-3.5v-0.9h3.5v-0.8H26v-0.9h3.4v-1h-4.5v-0.9h4.5v-0.9H26v-0.9h3.3
				v-1.1h1.2v1.1h3.5L34.1,318.5L34.1,318.5z M34.1,325.4v4h-8v-4H34.1z M27.2,327.1h2.3v-0.9h-2.3V327.1z M27.2,328.6h2.3v-0.9
				h-2.3V328.6z M30.6,318.5h2.3v-0.9h-2.3C30.6,317.6,30.6,318.5,30.6,318.5z M32.9,319.4h-2.3v1h2.3V319.4z M33,326.2h-2.3v0.9H33
				V326.2z M33,327.7h-2.3v0.9H33V327.7z M37.1,327.6h-1.2v-9.9h1.2V327.6z M40.5,316v14.4c0,0.8-0.2,1.2-0.7,1.4
				c-0.5,0.2-1.4,0.2-2.8,0.2c0-0.3-0.2-0.9-0.5-1.2c1,0,2,0,2.3,0c0.3,0,0.4-0.1,0.4-0.4V316C39.3,316,40.5,316,40.5,316z"/>
			<path d="M30.8,344.5c0-0.3-0.1-0.7-0.2-1.1c-4.3,0.6-4.8,0.8-5.2,1c-0.1-0.3-0.3-0.9-0.4-1.3c0.4-0.1,0.8-0.5,1.4-1.2
				c0.3-0.3,0.9-1.1,1.6-2.1c-2,0.2-2.5,0.3-2.7,0.5c0-0.3-0.2-0.9-0.4-1.2c0.3-0.1,0.6-0.4,1-1c0.4-0.5,1.7-2.6,2.5-4.6l1.2,0.5
				c-0.9,1.7-1.9,3.4-2.9,4.8l2.1-0.2c0.5-0.8,1-1.6,1.4-2.4l1.1,0.7c-1.3,2.1-2.7,4.1-4.3,5.7l3.2-0.4c-0.2-0.6-0.4-1.2-0.6-1.7
				l1-0.3c0.5,1.2,1,2.8,1.2,3.7L30.8,344.5L30.8,344.5z M26.8,345.3c-0.2,1.5-0.5,3.2-0.9,4.4c-0.3-0.1-0.8-0.3-1.1-0.4
				c0.4-1.1,0.7-2.7,0.9-4.1L26.8,345.3L26.8,345.3z M28.9,345.1c0.2,1.2,0.5,2.8,0.5,3.9l-1.1,0.2c0-1-0.2-2.7-0.5-3.9L28.9,345.1z
				 M30.8,344.6c0.4,1,0.8,2.2,1,3.1l-1.1,0.4c-0.1-0.9-0.5-2.1-0.9-3.1L30.8,344.6L30.8,344.6z M41.3,348.5v1.2h-10v-1.2h1.6v-13.9
				h7.2v13.9C40.1,348.5,41.3,348.5,41.3,348.5z M34.1,335.8v3.4h4.7v-3.4H34.1z M38.8,340.3h-4.7v3.4h4.7V340.3z M34.1,348.5h4.7
				V345h-4.7V348.5z"/>
		</g>
		<g>
			<path d="M60.1,270.2c-0.3,1.6-0.9,3.3-1.5,4.6c0.4,0.2,0.8,0.5,1.5,0.9c1.3,0.8,2.9,0.9,5,0.9c2.3,0,5.2-0.2,7.2-0.4
				c-0.2,0.4-0.4,1-0.4,1.4c-1.3,0.1-4.8,0.2-6.9,0.2c-2.4,0-3.9-0.2-5.3-1c-0.7-0.4-1.4-1-1.8-1s-1,1.1-1.5,2.3l-0.9-1.2
				c0.6-0.9,1.2-1.6,1.8-2c0.5-1,1-2.5,1.3-3.8h-2.3c0.5-1.1,1.1-2.6,1.5-4h-2V266h3.7c-0.4,1.3-1,2.8-1.5,4h1.2l0.2,0L60.1,270.2
				L60.1,270.2z M57.7,265c-0.2-0.8-0.6-2-0.9-3l1.2-0.3c0.3,0.9,0.7,2.1,1,2.9L57.7,265L57.7,265z M62.8,275.4h-1.3v-9.3h5.2
				c-1.1-0.5-2.4-1.1-3.4-1.5l0.9-0.7c0.8,0.2,1.7,0.6,2.5,1c0.9-0.4,1.8-0.9,2.5-1.4h-7.5v-1.1h8.8l0.3-0.1l0.8,0.6
				c-0.9,0.9-2.3,1.8-3.6,2.5c0.5,0.3,1,0.5,1.4,0.7h2.3v7.9c0,0.7-0.1,1-0.6,1.2s-1.2,0.2-2.4,0.2c-0.1-0.3-0.2-0.8-0.4-1.1
				c0.8,0,1.6,0,1.8,0c0.2,0,0.3-0.1,0.3-0.3v-1.6H67v2.9h-1.2v-2.9h-3L62.8,275.4L62.8,275.4z M62.8,267.1v1.6h3v-1.6
				C65.8,267.1,62.8,267.1,62.8,267.1z M65.8,271.3v-1.6h-3v1.6H65.8z M70.1,267.1H67v1.6h3.1V267.1z M70.1,271.3v-1.6H67v1.6H70.1z
				"/>
			<path d="M62.3,283.8h-6.5v-1.1h6.5V283.8z M61.6,295h-4v0.9h-1.1v-6h5.1L61.6,295L61.6,295z M56.6,286.1V285h5.1v1.1H56.6z
				 M56.6,287.4h5.1v1.1h-5.1V287.4z M57.6,290.9v3h2.9v-3C60.5,290.9,57.6,290.9,57.6,290.9z M59,282.5c-0.2-0.6-0.8-1.7-1.3-2.4
				l1-0.5c0.5,0.7,1,1.7,1.3,2.3L59,282.5L59,282.5z M70.3,280.6c-0.1,7.3-0.1,13.5,0.9,13.8c0.1,0,0.2-1.1,0.3-2.4
				c0.2,0.3,0.6,0.8,0.8,1c-0.2,2.5-0.8,3.1-1.6,2.8c-1.8-0.5-1.7-6.4-1.7-13.8h-3v5.3h2.4v1.2H66v7.6h-1.3v-7.6h-2.4v-1.2h2.4v-5.3
				h-2.2v-1.3L70.3,280.6L70.3,280.6z"/>
			<path d="M61,298.1c-0.5,1.3-1.1,2.6-1.8,3.9v12h-1.3v-10.1c-0.6,0.8-1.2,1.5-1.8,2.2c-0.1-0.3-0.6-0.9-0.8-1.2
				c1.8-1.7,3.5-4.4,4.5-7.1L61,298.1L61,298.1z M69.6,309h2.5v1.1h-2.5v2.6c0,0.7-0.1,1.1-0.7,1.3c-0.5,0.2-1.4,0.2-2.8,0.2
				c-0.1-0.4-0.2-0.9-0.4-1.2c1,0,2,0,2.3,0c0.3,0,0.4-0.1,0.4-0.3v-2.6h-5.2c0.8,0.7,1.8,1.6,2.2,2.3l-1,0.8
				c-0.5-0.7-1.4-1.7-2.2-2.5l0.8-0.6h-2.8V309h8.1v-1.2c-2.8,0.1-5.6,0.2-7.7,0.2l-0.1-1.1c1.3,0,3.1,0,5.1-0.1v-1.1h-4.2v-4.8h4.2
				v-1h-4.9v-1h4.9v-1.2h1.3v1.2H72v1h-5.1v1h4.3v4.8h-1.3c0.9,0.7,1.8,1.5,2.3,2.1l-0.9,0.6c-0.2-0.2-0.4-0.5-0.8-0.8l-0.9,0
				L69.6,309L69.6,309z M62.6,303h3v-1.1h-3C62.6,301.9,62.6,303,62.6,303z M65.6,305v-1.1h-3v1.1H65.6z M66.9,301.9v1.1h3v-1.1
				H66.9z M69.9,305v-1.1h-3v1.1H69.9z M66.9,306.9l2.6,0c-0.3-0.3-0.7-0.6-1-0.9l0.2-0.2h-1.8L66.9,306.9L66.9,306.9z"/>
			<path d="M61.1,324.3c-0.6,0.2-1.3,0.5-1.9,0.7v5.5c0,0.7-0.2,1.1-0.6,1.3c-0.4,0.2-1.1,0.3-2.2,0.2c0-0.3-0.2-0.9-0.4-1.2
				c0.8,0,1.5,0,1.7,0c0.2,0,0.3,0,0.3-0.3v-5c-0.8,0.3-1.5,0.6-2.2,0.9l-0.3-1.3c0.7-0.2,1.5-0.5,2.5-0.9v-3.7h-2.2v-1.2H58v-3.6
				h1.3v3.6h1.9v1.2h-1.9v3.2l1.7-0.6L61.1,324.3L61.1,324.3z M68.2,321.6c1.4,1,3.1,2.3,3.9,3.1l-0.8,0.9c-0.1-0.1-0.2-0.2-0.4-0.3
				v6.7h-1.2v-0.6h-6.4v0.8h-1.2v-6.7c-0.3,0.2-0.5,0.3-0.8,0.4c-0.2-0.3-0.6-0.8-0.8-1c1.5-0.6,3.2-1.8,4.2-3.1h-3.6v-1.1h4.7v-3
				c-1.4,0.1-2.8,0.2-4.2,0.3c0-0.3-0.2-0.7-0.3-1c3.1-0.2,6.9-0.5,9-1l0.8,1c-1.1,0.3-2.6,0.5-4.1,0.6v3.1h1.1c0.5-0.8,1-2.1,1.3-3
				l1.2,0.4c-0.4,0.9-0.8,1.9-1.2,2.6h2.6v1.1L68.2,321.6L68.2,321.6z M63.7,317.8c0.4,0.7,0.9,1.6,1.1,2.2l-1.1,0.4
				c-0.2-0.6-0.7-1.5-1.1-2.3L63.7,317.8L63.7,317.8z M65.9,322c-0.8,1.1-1.9,2.2-3.1,2.9h3.1V322z M65.9,326h-2.5v1.5h2.5V326z
				 M63.3,330.3h2.5v-1.8h-2.5V330.3z M69.8,326H67v1.5h2.8V326z M69.8,330.3v-1.8H67v1.8H69.8z M70.7,325c-1-0.9-2.4-2-3.6-2.9v2.9
				H70.7z"/>
			<path d="M61.7,344.5c0-0.3-0.1-0.7-0.2-1.1c-4.3,0.6-4.8,0.8-5.2,1c-0.1-0.3-0.3-0.9-0.4-1.3c0.4-0.1,0.8-0.5,1.4-1.2
				c0.3-0.3,0.9-1.1,1.6-2.1c-2,0.2-2.5,0.3-2.7,0.5c0-0.3-0.2-0.9-0.4-1.2c0.3-0.1,0.6-0.4,1-1c0.4-0.5,1.7-2.6,2.5-4.6l1.2,0.5
				c-0.8,1.7-1.9,3.4-2.9,4.8l2.1-0.2c0.5-0.8,1-1.6,1.4-2.4l1.2,0.7c-1.3,2.1-2.7,4.1-4.3,5.7l3.2-0.4c-0.2-0.6-0.4-1.2-0.6-1.7
				l1-0.3c0.5,1.2,1,2.8,1.2,3.7L61.7,344.5L61.7,344.5z M57.7,345.3c-0.2,1.5-0.5,3.2-0.9,4.4c-0.3-0.1-0.8-0.3-1.1-0.4
				c0.4-1.1,0.7-2.7,0.9-4.1L57.7,345.3L57.7,345.3z M59.8,345.1c0.2,1.2,0.5,2.8,0.5,3.9l-1.1,0.2c0-1-0.2-2.7-0.5-3.9L59.8,345.1z
				 M61.7,344.6c0.4,1,0.8,2.2,1,3.1l-1.1,0.4c-0.1-0.9-0.5-2.1-0.9-3.1L61.7,344.6L61.7,344.6z M72.1,348.5v1.2h-10v-1.2h1.6v-13.9
				h7.2v13.9H72.1z M65,335.8v3.4h4.7v-3.4H65z M69.6,340.3H65v3.4h4.7V340.3z M65,348.5h4.7V345H65V348.5z"/>
		</g>
		<g>
			<path d="M102.8,271.7h-7.4v6.3h-1.4v-6.3h-7.3v-1.3h7.3v-6.3h-6.3v-1.3h14.1v1.3h-6.4v6.3h7.4V271.7z M90.1,265
				c0.7,1.3,1.5,3,1.7,4l-1.3,0.4c-0.2-1.1-0.9-2.8-1.6-4.1C89,265.4,90.1,265,90.1,265z M97.4,269.2c0.7-1.1,1.5-3,1.9-4.2l1.4,0.4
				c-0.7,1.4-1.5,3.1-2.2,4.2C98.5,269.6,97.4,269.2,97.4,269.2z"/>
			<path d="M102.7,294.6v1H86.9v-1h7.2v-1h-5.4v-0.9h5.4v-0.9c-3.5,0.1-4,0.1-4.4,0.2c0-0.2-0.2-0.7-0.3-1c0.3,0,0.6-0.1,1-0.2
				c0.3-0.1,1-0.4,1.8-0.9H89v-0.8h11.4v0.8h-2.1c1,0.6,2,1.3,2.6,1.8l-0.8,0.7c-0.2-0.2-0.5-0.5-0.9-0.7l-3.8,0.1v0.9h5.6v0.9h-5.6
				v1L102.7,294.6L102.7,294.6z M94.1,281.6H87v-0.9h7.1v-1.1h1.3v1.1h7.3v0.9h-7.3v0.9h5.9v0.9H88.3v-0.9h5.8
				C94.1,282.5,94.1,281.6,94.1,281.6z M101,290.1v-1.6H88.5v1.6h-1.2v-2.6h15v2.6H101z M100.6,284.2v2.6H89.1v-2.6H100.6z
				 M99.2,285h-8.9v1h8.9V285z M93.7,290.1c-0.6,0.4-1.3,0.8-1.9,1l6.3-0.1c-0.5-0.3-0.9-0.6-1.4-0.8l0.2-0.1H93.7L93.7,290.1z"/>
			<path d="M91.9,308.4c0-0.2-0.1-0.6-0.2-1c-3.8,0.6-4.4,0.7-4.7,0.9c-0.1-0.3-0.3-0.9-0.4-1.2c0.4-0.1,0.8-0.5,1.3-1.2
				c0.3-0.3,0.8-1.1,1.5-2c-1.8,0.2-2.2,0.3-2.5,0.4c-0.1-0.3-0.3-0.9-0.4-1.2c0.3-0.1,0.6-0.4,1-1c0.4-0.5,1.6-2.6,2.4-4.5l1.2,0.5
				c-0.8,1.7-1.8,3.4-2.7,4.8l1.9-0.1c0.4-0.8,0.9-1.6,1.3-2.4l1.2,0.7c-1.2,2-2.6,4.1-4,5.8l2.8-0.4c-0.2-0.6-0.4-1.2-0.6-1.8
				l1-0.3c0.5,1.2,1,2.8,1.2,3.7L91.9,308.4L91.9,308.4z M88.5,309.3c-0.2,1.5-0.5,3.3-0.9,4.4c-0.2-0.1-0.8-0.3-1.1-0.4
				c0.4-1.1,0.7-2.7,0.9-4.2L88.5,309.3L88.5,309.3z M90.2,309.1c0.2,1.2,0.4,2.7,0.5,3.8l-1.1,0.2c0-1-0.2-2.6-0.4-3.8L90.2,309.1z
				 M91.9,308.6c0.4,1,0.8,2.2,0.9,3l-1,0.3c-0.2-0.8-0.5-2.1-0.9-3L91.9,308.6L91.9,308.6z M102.9,312.4v1.2H92.6v-1.2h4.6V309
				h-3.6v-1.2h8.5v1.2h-3.6v3.4H102.9L102.9,312.4z M95.2,307.2c-0.4-0.9-1.2-2.3-2.1-3.5c0.7-1.1,1.5-2.5,1.9-3.3l1.2,0.3
				c-0.5,0.9-1.2,2.1-1.8,3c0.8,1,1.6,2.3,2,3.1L95.2,307.2L95.2,307.2z M102.7,299.7h-9.5v-1.2h9.5V299.7z M99.2,300.6
				c-0.5,0.9-1.2,2-1.8,2.9c0.8,1,1.6,2.3,2,3.1l-1.1,0.5c-0.4-0.9-1.3-2.3-2.2-3.5c0.7-1.1,1.5-2.4,1.9-3.3L99.2,300.6L99.2,300.6z
				 M101.5,307.2c-0.4-0.9-1.4-2.3-2.4-3.5c0.8-1.1,1.6-2.5,2-3.3l1.2,0.3c-0.5,0.9-1.3,2-1.8,3c0.8,1,1.7,2.2,2.2,3.1L101.5,307.2
				L101.5,307.2z"/>
			<path d="M87.1,320.8c1,0.5,2.2,1.3,2.8,1.9l-0.7,0.9c-0.6-0.6-1.8-1.4-2.8-2L87.1,320.8L87.1,320.8z M86.7,331.1
				c0.7-1.4,1.7-3.7,2.4-5.6l0.9,0.7c-0.7,1.9-1.5,4-2.3,5.6L86.7,331.1z M89.6,318.9c-0.5-0.7-1.7-1.7-2.6-2.4l0.7-0.8
				c0.9,0.6,2.1,1.6,2.6,2.2L89.6,318.9L89.6,318.9z M99.7,324.4h1.3v7.7h-1.3v-2.8h-6.5c-0.3,1-0.9,2.1-2,2.9
				c-0.2-0.2-0.7-0.6-1-0.7c1.8-1.3,2.1-3.2,2.1-4.6v-2.4h1.2v1.2h6.2L99.7,324.4L99.7,324.4z M95,319.9c0,0,0,0.3,0,0.4
				c-0.1,2.3-0.1,3.2-0.4,3.5c-0.2,0.2-0.4,0.3-0.7,0.3c-0.2,0-0.6,0-1,0c0-0.3-0.1-0.6-0.2-0.9c0.4,0,0.7,0,0.8,0
				c0.2,0,0.2,0,0.3-0.1c0.1-0.2,0.2-0.8,0.2-2.4h-1c-0.2,1.7-0.9,2.9-2.1,3.7c-0.1-0.2-0.4-0.6-0.6-0.8c1-0.6,1.5-1.6,1.7-2.9h-1
				v-0.9L95,319.9L95,319.9z M102.7,318.4H90.9v-1.1H96c-0.1-0.5-0.2-1.2-0.4-1.7l1.2-0.2c0.2,0.6,0.4,1.4,0.5,1.9h5.4L102.7,318.4
				L102.7,318.4z M99.7,328.2v-1.5h-6.2v0.2c0,0.4,0,0.9-0.1,1.3L99.7,328.2L99.7,328.2z M95.5,320.3c-0.1-0.4-0.5-1-0.8-1.5
				l0.8-0.3c0.4,0.4,0.7,1,0.8,1.4L95.5,320.3L95.5,320.3z M98.8,318.8c-0.5,0.6-1.2,1.2-1.7,1.7v3.8h-1v-3.8
				c0.6-0.6,1.4-1.5,1.8-2.1L98.8,318.8L98.8,318.8z M102.1,319.9c-0.3,0.2-0.7,0.3-1.2,0.5c0.4,1.3,0.9,2.5,1.8,3.1
				c-0.2,0.2-0.5,0.5-0.6,0.7c-0.9-0.8-1.6-2.1-1.9-3.6c-0.4,0.1-0.7,0.2-1,0.3v2.3l1.4-0.4c0,0.2,0.1,0.6,0.1,0.8
				c-1.8,0.6-2.2,0.8-2.4,0.9v0c-0.1-0.2-0.3-0.7-0.4-0.9c0.2-0.1,0.4-0.4,0.4-1.1v-2.2c1.1-0.3,2.3-0.7,2.9-1.1L102.1,319.9
				L102.1,319.9z"/>
			<path d="M92.5,344.5c-0.1-0.3-0.1-0.7-0.2-1.1c-4.3,0.6-4.8,0.8-5.2,1c-0.1-0.3-0.3-0.9-0.4-1.3c0.4-0.1,0.8-0.5,1.4-1.2
				c0.3-0.3,0.9-1.1,1.6-2.1c-2,0.2-2.4,0.3-2.7,0.5c-0.1-0.3-0.2-0.9-0.4-1.2c0.3-0.1,0.6-0.4,1-1c0.4-0.5,1.7-2.6,2.5-4.6l1.2,0.5
				c-0.8,1.7-1.9,3.4-2.9,4.8l2.1-0.2c0.5-0.8,1-1.6,1.4-2.4l1.2,0.7c-1.3,2.1-2.7,4.1-4.3,5.7l3.2-0.4c-0.2-0.6-0.4-1.2-0.6-1.7
				l1-0.3c0.5,1.2,1,2.8,1.2,3.7L92.5,344.5L92.5,344.5z M88.6,345.3c-0.2,1.5-0.5,3.2-0.9,4.4c-0.3-0.1-0.8-0.3-1.1-0.4
				c0.4-1.1,0.7-2.7,0.9-4.1L88.6,345.3L88.6,345.3z M90.6,345.1c0.2,1.2,0.4,2.8,0.5,3.9l-1.1,0.2c0-1-0.2-2.7-0.4-3.9L90.6,345.1z
				 M92.5,344.6c0.4,1,0.8,2.2,0.9,3.1l-1.1,0.4c-0.1-0.9-0.5-2.1-0.9-3.1L92.5,344.6L92.5,344.6z M103,348.5v1.2H93v-1.2h1.6v-13.9
				h7.2v13.9H103z M95.8,335.8v3.4h4.7v-3.4H95.8z M100.5,340.3h-4.7v3.4h4.7V340.3z M95.8,348.5h4.7V345h-4.7V348.5z"/>
		</g>
		<g>
			<path d="M120.3,273c-0.4,1.3-1.2,2.7-1.8,3.6c-0.2-0.2-0.7-0.5-0.9-0.6c0.7-0.9,1.3-2.1,1.7-3.2L120.3,273z M122.5,271.7v6.2
				h-1.3v-6.2h-3.6v-1.1h3.6v-1.9h-3.7v-1.1h5c0.3-0.8,0.8-2,1-2.8l1.2,0.2c-0.3,0.9-0.7,1.8-1,2.6h2.3v1.1h-3.5v1.9h3.3v1.1
				C125.8,271.7,122.5,271.7,122.5,271.7z M125.7,264.6h-7.9v-1.1h3.5c-0.2-0.5-0.5-1.1-0.8-1.6l1.3-0.3c0.4,0.6,0.8,1.4,1,2h2.8
				V264.6z M119.7,267.5c-0.1-0.7-0.4-1.7-0.7-2.5l1.1-0.2c0.4,0.8,0.7,1.8,0.7,2.5L119.7,267.5L119.7,267.5z M124.2,272.6
				c0.6,0.9,1.2,2,1.5,2.8l-0.9,0.5c-0.3-0.8-0.9-2-1.5-2.9L124.2,272.6z M133.8,268.9h-2v9.1h-1.3v-9.1h-2.5v0.6
				c0,2.6-0.2,6.1-1.9,8.4c-0.2-0.2-0.7-0.7-1-0.8c1.5-2.2,1.7-5.2,1.7-7.6v-6.2c2-0.3,4.3-0.9,5.6-1.4l1.1,1
				c-1.5,0.6-3.6,1-5.4,1.3v3.4h5.7L133.8,268.9L133.8,268.9z"/>
			<path d="M133.7,290.5v1.2h-16.2v-1.2h1.4l-0.3-9.6c1-0.3,2.3-0.8,3.1-1.1l0.6,1.1c-0.8,0.3-1.7,0.5-2.5,0.8l0.1,2.1h2v1.1h-2
				l0.1,2.2h2v1.1h-2l0.1,2.2h2.4v-10h6.2v10h2.4c0-0.6,0.1-1.4,0.1-2.2h-2v-1.1h2.1c0-0.7,0.1-1.5,0.1-2.2h-2v-1.1h2.1
				c0-0.8,0-1.6,0-2.4h-2.2v-1.1h3.4c0,3.1-0.2,7.4-0.3,10.1L133.7,290.5L133.7,290.5z M123.8,292.9c-1.5,1.1-3.6,2.3-5.4,3.1
				c-0.2-0.3-0.5-0.7-0.8-1c1.7-0.7,3.9-1.9,5-2.9L123.8,292.9L123.8,292.9z M123.5,290.5h4.2v-9h-4.2
				C123.5,281.6,123.5,290.5,123.5,290.5z M127.1,282.8v0.9H124v-0.9H127.1z M124.3,285h2.7v4.1h-2.7V285z M125,288.2h1.3v-2.4H125
				V288.2z M128.1,292c1.9,0.9,3.9,2,5.2,2.9l-0.9,1c-1.2-0.9-3.2-2-5.1-3L128.1,292z"/>
			<path d="M124.2,310.1l0.2,1.2l-6.6,1.9l-0.3-1.3l0.9-0.2v-6.1h1.1v5.9l1.3-0.3v-7.2h-2.5v-5.5h5.3v5.5h-1.7v2.5h1.8v1.2h-1.8v3.2
				L124.2,310.1L124.2,310.1z M119.3,302.7h3v-3.1h-3V302.7z M130.7,301c0.8,1.3,2.1,2.6,3.4,3.3c-0.3,0.2-0.7,0.7-0.9,1
				c-0.7-0.5-1.5-1.1-2.1-1.9v1.1h-4.8v-1c-0.6,0.6-1.3,1.1-2.1,1.6c-0.1-0.3-0.5-0.9-0.7-1.2c1.3-0.7,2.4-1.8,3.3-3h-2.5v-1.2h3.2
				c0.3-0.6,0.6-1.3,0.8-2l1.2,0.3c-0.2,0.6-0.4,1.2-0.6,1.7h4.8v1.2H130.7L130.7,301z M124.1,306h9.4v1.1h-6
				c-0.2,0.6-0.4,1.2-0.5,1.8h5.6c0,0,0,0.4,0,0.6c-0.2,2.5-0.5,3.6-1,4.1c-0.4,0.4-0.8,0.5-1.4,0.5c-0.5,0-1.7,0-2.9,0
				c0-0.4-0.2-0.8-0.5-1.2c1.2,0.1,2.5,0.1,3,0.1c0.4,0,0.6,0,0.8-0.1c0.3-0.2,0.5-1,0.7-2.7h-5.9c0.3-0.8,0.7-1.9,0.9-2.9h-2.1
				L124.1,306L124.1,306z M131.1,303.4c-0.7-0.7-1.2-1.6-1.7-2.4h-1.1c-0.5,0.9-1.2,1.7-1.9,2.4H131.1L131.1,303.4z"/>
			<path d="M122.7,327.2c-1.6,0.9-3.4,1.7-4.8,2.4l-0.5-1.3c0.6-0.2,1.3-0.5,2-0.9v-6.2h-1.9V320h1.9v-4.2h1.3v4.2h1.6v1.3h-1.6v5.6
				c0.5-0.2,1.1-0.5,1.7-0.8L122.7,327.2L122.7,327.2z M128.4,328.3c-2.1,0.6-4.4,1.3-6.1,1.8l-0.4-1.3c1.6-0.4,4-1,6.3-1.6
				L128.4,328.3L128.4,328.3z M133.3,321.4c-0.6,2.4-1.5,4.4-2.6,6.2c0.4,2,1,3.1,1.6,3.1c0.3,0,0.5-0.7,0.6-2.6
				c0.3,0.3,0.7,0.6,0.9,0.7c-0.2,2.4-0.6,3.1-1.7,3.1s-1.9-1.1-2.4-3.1c-0.9,1.1-1.9,2.1-3,2.9c-0.2-0.2-0.7-0.7-1-0.9
				c1.5-0.9,2.7-2.1,3.7-3.6c-0.4-2.2-0.6-4.9-0.8-8h-6.1v-1.2h6c0-0.9-0.1-1.8-0.1-2.6h1.3c0,0.9,0,1.8,0,2.6h2.8
				c-0.4-0.5-1.4-1.4-2.1-1.9l0.8-0.7c0.8,0.5,1.8,1.3,2.2,1.9l-0.8,0.7h0.9v1.2h-3.8c0.1,2.4,0.2,4.6,0.5,6.3
				c0.7-1.4,1.3-2.9,1.7-4.6L133.3,321.4L133.3,321.4z M127.6,321.2v5.2h-4.5v-5.2H127.6z M126.5,322.3h-2.3v3h2.3V322.3z"/>
			<path d="M123.4,344.5c-0.1-0.3-0.1-0.7-0.2-1.1c-4.3,0.6-4.8,0.8-5.2,1c-0.1-0.3-0.3-0.9-0.4-1.3c0.4-0.1,0.8-0.5,1.4-1.2
				c0.3-0.3,0.9-1.1,1.6-2.1c-2,0.2-2.4,0.3-2.7,0.5c-0.1-0.3-0.2-0.9-0.4-1.2c0.3-0.1,0.6-0.4,1-1c0.4-0.5,1.7-2.6,2.5-4.6l1.2,0.5
				c-0.8,1.7-1.9,3.4-2.9,4.8l2.1-0.2c0.5-0.8,1-1.6,1.4-2.4l1.2,0.7c-1.3,2.1-2.7,4.1-4.3,5.7l3.2-0.4c-0.2-0.6-0.4-1.2-0.6-1.7
				l1-0.3c0.5,1.2,1,2.8,1.2,3.7L123.4,344.5L123.4,344.5z M119.4,345.3c-0.2,1.5-0.5,3.2-0.9,4.4c-0.3-0.1-0.8-0.3-1.1-0.4
				c0.4-1.1,0.7-2.7,0.9-4.1L119.4,345.3L119.4,345.3z M121.5,345.1c0.2,1.2,0.4,2.8,0.5,3.9l-1.1,0.2c0-1-0.2-2.7-0.4-3.9
				L121.5,345.1z M123.4,344.6c0.4,1,0.8,2.2,0.9,3.1l-1.1,0.4c-0.1-0.9-0.5-2.1-0.9-3.1L123.4,344.6L123.4,344.6z M133.8,348.5v1.2
				h-10v-1.2h1.6v-13.9h7.2v13.9H133.8L133.8,348.5z M126.7,335.8v3.4h4.7v-3.4H126.7z M131.4,340.3h-4.7v3.4h4.7V340.3z
				 M126.7,348.5h4.7V345h-4.7V348.5z"/>
		</g>
		<g>
			<path d="M156.3,273.4c-0.2,0.8-0.6,1.6-1.6,2.4c0.8,0.4,1.5,0.7,2.1,1.1l-0.9,0.8c-0.6-0.4-1.4-0.8-2.2-1.2
				c-1.1,0.6-2.8,1.1-5,1.5c-0.1-0.3-0.4-0.7-0.6-0.9c1.9-0.3,3.3-0.7,4.3-1.2c-0.9-0.4-1.9-0.7-2.8-1c0.3-0.4,0.6-0.8,0.9-1.2
				l-2.1,0.1l-0.1-1c0.8,0,1.8-0.1,2.9-0.1c0.3-0.5,0.6-1,0.8-1.4h-2.9v-2.9h3.4v-0.7h-2.9v-1.9h-1.2v-1h1.2v-1.8h2.9v-1.3h1.1v1.3
				h3.1v1.8h1.2v1h-1.2v1.9h-3.1v0.7h3.5v2.9h-3.8c-0.2,0.5-0.5,0.9-0.8,1.4c0.9,0,1.8-0.1,2.7-0.1v-0.9h1.1v0.8l0.9,0l0,0.9
				L156.3,273.4L156.3,273.4z M150.3,270.4h2.2v-1.1h-2.2V270.4z M150.8,263.8v1h1.8v-1H150.8z M152.5,266.7v-1.1h-1.8v1.1H152.5z
				 M151.9,273.7c-0.2,0.3-0.4,0.6-0.6,0.8c0.7,0.2,1.5,0.5,2.2,0.8c0.9-0.6,1.3-1.2,1.5-1.8L151.9,273.7L151.9,273.7z M153.6,263.8
				v1h1.9v-1H153.6z M155.5,266.7v-1.1h-1.9v1.1H155.5z M153.6,269.3v1.1h2.3v-1.1H153.6z M163.4,266.2c-0.3,2.7-0.8,5-1.6,6.9
				c0.8,1.6,1.8,2.9,3,3.8c-0.3,0.2-0.6,0.6-0.8,1c-1.2-0.8-2.1-2-2.8-3.4c-0.8,1.5-1.9,2.7-3.3,3.7c-0.1-0.2-0.5-0.8-0.7-1
				c1.5-1,2.6-2.4,3.4-4c-0.6-1.4-1-3-1.3-4.8c-0.3,0.7-0.6,1.4-0.9,2c-0.2-0.2-0.6-0.6-0.9-0.8c1.2-1.9,1.9-4.8,2.3-7.8l1.1,0.2
				c-0.1,1-0.3,2.1-0.6,3.1h4.4v1.2L163.4,266.2L163.4,266.2z M159.9,266.2c0.3,1.9,0.7,3.7,1.2,5.3c0.5-1.5,0.8-3.3,1-5.3H159.9z"
				/>
			<path d="M153.9,280c-0.5,1.3-1.1,2.6-1.8,3.8V296h-1.3v-10.1c-0.6,0.8-1.2,1.5-1.8,2.2c-0.1-0.3-0.5-1-0.8-1.3
				c1.8-1.7,3.4-4.4,4.4-7.1L153.9,280L153.9,280z M164.6,294v1.3h-11.2V294h6.3c0.6-2.4,1.4-6.2,1.7-8.9l1.4,0.2
				c-0.5,2.8-1.2,6.3-1.9,8.7H164.6z M163.9,284.1h-9.7v-1.3h9.7V284.1z M156.6,293.2c-0.1-1.9-0.7-5.2-1.2-7.7l1.2-0.3
				c0.6,2.5,1.1,5.7,1.3,7.6L156.6,293.2L156.6,293.2z M158.6,282.7c-0.1-0.8-0.5-2-0.9-2.9l1.3-0.3c0.3,0.9,0.7,2,0.9,2.8
				L158.6,282.7L158.6,282.7z"/>
			<path d="M154.7,312.5c0,0.7-0.1,1.1-0.6,1.4c-0.4,0.2-1.2,0.2-2.4,0.2c0-0.3-0.2-0.9-0.4-1.3c0.8,0,1.6,0,1.8,0
				c0.2,0,0.3-0.1,0.3-0.3V308h-2.8c-0.2,2.1-0.5,4.4-1.4,6.1c-0.2-0.2-0.8-0.5-1.1-0.6c1.2-2.5,1.3-6.1,1.3-8.7v-6.4h5.2
				L154.7,312.5L154.7,312.5z M153.4,306.7v-3h-2.7v1c0,0.6,0,1.3,0,2H153.4L153.4,306.7z M150.7,299.5v3h2.7v-3H150.7z
				 M164.4,304.6c-0.5,2.5-1.3,4.5-2.5,6.1c0.9,1,1.9,1.8,3,2.4c-0.3,0.2-0.7,0.7-0.9,1c-1.1-0.6-2.1-1.4-2.9-2.4
				c-0.8,1-1.7,1.7-2.7,2.3c-0.2-0.3-0.5-0.8-0.8-1c1-0.5,1.9-1.3,2.8-2.3c-1-1.5-1.8-3.2-2.4-5h-0.4v8.4h-1.3v-15.7h7.6v3.5
				c0,0.7-0.2,1-0.7,1.2c-0.6,0.2-1.5,0.2-2.8,0.2c-0.1-0.4-0.2-0.8-0.4-1.1c1.1,0,2,0,2.3,0c0.3,0,0.4-0.1,0.4-0.3v-2.2h-5v4.8h5.8
				l0.2,0L164.4,304.6L164.4,304.6z M159.1,305.6c0.5,1.5,1.1,2.8,2,4c0.8-1.1,1.4-2.5,1.8-4H159.1L159.1,305.6z"/>
			<path d="M163.1,318.6c-0.5,1.2-1.2,2.2-2.1,3.1c1.1,0.7,2.5,1.3,3.9,1.6c-0.3,0.3-0.7,0.8-0.9,1.1c-1.5-0.4-2.9-1.1-4.1-1.9
				c-1.1,0.8-2.5,1.4-4,1.9c-0.1-0.2-0.3-0.5-0.4-0.7c-0.3,1.1-0.7,2.1-1.1,2.8l-0.9-0.5c0.4-0.8,0.7-1.9,1-2.9h-1.7v7.4
				c0,0.7-0.1,1-0.6,1.2c-0.5,0.2-1.2,0.2-2.2,0.2c-0.1-0.3-0.2-0.9-0.4-1.2c0.8,0,1.5,0,1.7,0c0.2,0,0.3-0.1,0.3-0.3v-5.7
				c-0.7,1.7-1.6,3.4-2.6,4.4c-0.1-0.4-0.5-0.9-0.7-1.3c1.1-1.1,2.2-3,2.9-4.8h-2.7v-1.2h4.8c-0.9-0.8-2.6-1.8-4-2.4l0.8-0.9
				c0.6,0.2,1.2,0.5,1.8,0.9c0.7-0.5,1.4-1.2,1.9-1.8h-5.1v-1.2h6.1l0.2,0l0.9,0.6c-0.7,1.1-1.9,2.2-2.9,3.1
				c0.6,0.4,1.1,0.7,1.5,1.1l-0.6,0.7h1.2l0.2-0.1l0.8,0.3c-0.1,0.3-0.2,0.6-0.3,1c1.2-0.4,2.3-0.8,3.3-1.4
				c-0.7-0.6-1.4-1.4-1.9-2.2c-0.5,0.5-0.9,1-1.4,1.4c-0.2-0.2-0.7-0.7-1-0.9c1.4-1.1,2.8-2.7,3.5-4.4l1.3,0.3
				c-0.2,0.5-0.5,1-0.8,1.5h6v1.1L163.1,318.6L163.1,318.6z M162.8,325.6h1.4c0,0,0,0.4-0.1,0.6c-0.3,3.4-0.7,4.7-1.2,5.2
				c-0.3,0.3-0.7,0.4-1.2,0.5c-0.4,0-1.2,0-2,0c0-0.3-0.1-0.9-0.4-1.2c0.8,0.1,1.6,0.1,1.9,0.1c0.3,0,0.4,0,0.6-0.2
				c0.4-0.3,0.6-1.4,0.9-3.9h-3c-0.6,2.3-1.9,4.2-4.8,5.4c-0.2-0.3-0.6-0.9-0.9-1.1c2.5-0.9,3.7-2.4,4.2-4.3h-2.8v-1.1h3.1
				c0.1-0.6,0.2-1.2,0.2-1.8h1.4c-0.1,0.6-0.1,1.2-0.2,1.8L162.8,325.6L162.8,325.6L162.8,325.6z M157.9,318.6
				c0.5,0.9,1.2,1.7,2,2.3c0.7-0.6,1.3-1.4,1.7-2.3H157.9z"/>
			<path d="M154.2,344.5c-0.1-0.3-0.1-0.7-0.2-1.1c-4.3,0.6-4.8,0.8-5.2,1c-0.1-0.3-0.3-0.9-0.4-1.3c0.4-0.1,0.8-0.5,1.4-1.2
				c0.3-0.3,0.9-1.1,1.6-2.1c-2,0.2-2.4,0.3-2.7,0.5c-0.1-0.3-0.2-0.9-0.4-1.2c0.3-0.1,0.6-0.4,1-1c0.4-0.5,1.7-2.6,2.5-4.6l1.2,0.5
				c-0.9,1.7-1.9,3.4-2.9,4.8l2.1-0.2c0.5-0.8,1-1.6,1.4-2.4l1.1,0.7c-1.3,2.1-2.7,4.1-4.3,5.7l3.2-0.4c-0.2-0.6-0.4-1.2-0.6-1.7
				l1-0.3c0.5,1.2,1,2.8,1.2,3.7L154.2,344.5L154.2,344.5z M150.3,345.3c-0.2,1.5-0.5,3.2-0.9,4.4c-0.3-0.1-0.8-0.3-1.1-0.4
				c0.4-1.1,0.7-2.7,0.9-4.1L150.3,345.3L150.3,345.3z M152.3,345.1c0.2,1.2,0.4,2.8,0.5,3.9l-1.1,0.2c0-1-0.2-2.7-0.4-3.9
				L152.3,345.1z M154.2,344.6c0.4,1,0.8,2.2,0.9,3.1l-1.1,0.4c-0.1-0.9-0.5-2.1-0.9-3.1L154.2,344.6L154.2,344.6z M164.7,348.5v1.2
				h-10v-1.2h1.6v-13.9h7.2v13.9H164.7z M157.6,335.8v3.4h4.6v-3.4H157.6z M162.2,340.3h-4.6v3.4h4.6V340.3z M157.6,348.5h4.6V345
				h-4.6V348.5z"/>
		</g>
	</g>
	<g>
		<path class="st0" d="M62.9,240.9c-1.3,1-3.7,1.9-5.5,2.3c-0.2-0.3-0.5-0.8-0.8-1c1.8-0.3,4.1-1,5.3-1.8L62.9,240.9L62.9,240.9z
			 M72.3,238.4v1.1h-7.2v4.3h-1.3v-4.3h-7.1v-1.1h7.1v-1.4h-5.4v-1h5.4v-1.3h-6.3v-1.1h3.9c-0.2-0.5-0.5-1.2-0.9-1.7l1-0.2h-4.7
			v-1.1h2.9c-0.3-0.7-0.9-1.8-1.4-2.6l1.1-0.4c0.6,0.8,1.3,1.9,1.5,2.6l-0.9,0.4h2.2v-3.2h1.3v3.2h2.1v-3.2h1.3v3.2H69l-0.7-0.2
			c0.5-0.7,1.1-1.9,1.4-2.7L71,228c-0.5,0.9-1.1,1.9-1.6,2.6h2.8v1.1h-4.7l1.2,0.3c-0.4,0.6-0.8,1.2-1.2,1.7h4.1v1.1h-6.5v1.3h5.6v1
			h-5.6v1.4L72.3,238.4L72.3,238.4z M61.7,231.7c0.4,0.6,0.8,1.3,1,1.8l-0.7,0.2h5l-0.6-0.2c0.4-0.5,0.8-1.3,1.1-1.8H61.7
			L61.7,231.7z M67,240.4c1.7,0.6,4,1.4,5.2,2l-0.8,0.9c-1.2-0.6-3.5-1.5-5.2-2.1L67,240.4L67,240.4z"/>
		<path class="st0" d="M90.9,230.4c-0.5,1.2-1.2,2.2-2.1,3.1c1.2,0.7,2.5,1.3,3.9,1.6c-0.3,0.3-0.7,0.8-0.9,1.1
			c-1.5-0.4-2.9-1.1-4.1-1.9c-1.2,0.8-2.5,1.4-4,1.9c-0.1-0.2-0.3-0.5-0.4-0.7c-0.3,1.1-0.7,2.1-1.1,2.8l-0.9-0.5
			c0.4-0.8,0.7-1.9,1-2.9h-1.7v7.4c0,0.7-0.1,1-0.6,1.2c-0.5,0.2-1.2,0.2-2.2,0.2c-0.1-0.3-0.2-0.9-0.4-1.2c0.8,0,1.5,0,1.7,0
			c0.2,0,0.3-0.1,0.3-0.3v-5.7c-0.7,1.7-1.6,3.4-2.6,4.4c-0.1-0.4-0.5-0.9-0.7-1.3c1.1-1.1,2.2-3,2.9-4.8h-2.7v-1.2H81
			c-0.9-0.8-2.6-1.8-4-2.4l0.8-0.9c0.6,0.2,1.2,0.5,1.8,0.9c0.7-0.5,1.4-1.2,1.9-1.8h-5.1v-1.2h6.1l0.2-0.1l0.9,0.6
			c-0.7,1.1-1.8,2.2-2.9,3.1c0.6,0.4,1.1,0.7,1.5,1.1l-0.6,0.7h1.2l0.2-0.1l0.8,0.3c-0.1,0.3-0.2,0.6-0.3,1c1.2-0.4,2.3-0.8,3.3-1.4
			c-0.7-0.6-1.4-1.4-1.9-2.2c-0.5,0.5-0.9,1-1.4,1.4c-0.2-0.2-0.7-0.7-1-0.9c1.4-1.1,2.8-2.7,3.5-4.4l1.3,0.3
			c-0.2,0.5-0.5,1-0.8,1.6h6v1.1L90.9,230.4L90.9,230.4z M90.5,237.4h1.3c0,0,0,0.4-0.1,0.6c-0.3,3.4-0.7,4.7-1.2,5.2
			c-0.3,0.3-0.7,0.4-1.2,0.5c-0.4,0-1.2,0-2,0c0-0.3-0.1-0.9-0.4-1.2c0.8,0.1,1.6,0.1,1.9,0.1c0.3,0,0.4,0,0.6-0.2
			c0.4-0.3,0.6-1.4,0.9-3.9h-3c-0.6,2.3-1.9,4.2-4.8,5.4c-0.2-0.3-0.6-0.9-0.8-1.1c2.5-0.9,3.7-2.4,4.2-4.3h-2.8v-1.1h3.1
			c0.1-0.6,0.2-1.2,0.2-1.8h1.3c-0.1,0.6-0.1,1.2-0.2,1.8L90.5,237.4L90.5,237.4L90.5,237.4z M85.7,230.4c0.5,0.9,1.2,1.7,2,2.3
			c0.7-0.6,1.3-1.4,1.7-2.3H85.7z"/>
		<path class="st0" d="M112,241.3h-7.3v2.5h-1.3v-2.5h-7.2v-1.2h7.2v-1.4h-5.4v-6.3h12.4v6.3h-5.7v1.4h7.3V241.3z M103.4,231.6h-5.9
			v-3.5h5.9V231.6z M102.1,229h-3.5v1.7h3.5V229z M99.2,235.1h4.1v-1.5h-4.1V235.1z M103.3,237.7v-1.6h-4.1v1.6H103.3z M108.9,233.6
			h-4.3v1.5h4.3V233.6z M108.9,236.1h-4.3v1.6h4.3V236.1z M110.8,231.6h-6v-3.5h6V231.6z M109.5,229H106v1.7h3.5V229z"/>
		<path class="st0" d="M121.3,227.8c-0.5,1.3-1.1,2.6-1.8,3.8v12.1h-1.3v-10.1c-0.6,0.8-1.2,1.5-1.8,2.2c-0.1-0.3-0.5-1-0.8-1.3
			c1.8-1.7,3.4-4.4,4.4-7.1L121.3,227.8z M131.9,241.8v1.3h-11.2v-1.3h6.3c0.7-2.4,1.4-6.2,1.7-8.9l1.4,0.2
			c-0.5,2.8-1.2,6.3-1.9,8.7H131.9z M131.2,231.9h-9.7v-1.3h9.7V231.9z M123.9,241c-0.1-1.9-0.7-5.2-1.2-7.7l1.2-0.3
			c0.6,2.5,1.1,5.7,1.3,7.6L123.9,241L123.9,241z M125.9,230.4c-0.1-0.8-0.5-2-0.8-2.9l1.3-0.3c0.3,0.9,0.7,2.1,0.9,2.8L125.9,230.4
			L125.9,230.4z"/>
	</g>
	<g>
		<g>
			<path d="M345.1,276.1v1.3h-15.9v-1.3h7.2v-4.4h-5.5v-1.3h5.5v-3.9H330v-1.3h7.9c-0.7-0.8-2-2-3.1-2.8l1.1-0.8
				c1.1,0.8,2.6,2,3.3,2.9l-0.9,0.6h5.8v1.3h-6.4v3.9h5.6v1.3h-5.6v4.4L345.1,276.1L345.1,276.1z"/>
			<path d="M336.7,283.8h-7.4v-1.1h7.4V283.8z M330.1,285h5.9v1.1h-5.9V285z M335.9,288.4h-5.8v-1.1h5.8V288.4z M335.9,295h-4.5v0.9
				h-1.2v-6h5.7L335.9,295L335.9,295z M331.4,290.9v3h3.4v-3H331.4z M332.8,282.5c-0.2-0.6-0.8-1.7-1.3-2.4l1-0.5
				c0.5,0.7,1.1,1.7,1.4,2.3L332.8,282.5L332.8,282.5z M345.2,287.1h-3.7v8.9h-1.4v-8.9h-3.5v-1.3h3.5v-5.9h1.4v5.9h3.7V287.1z"/>
			<path d="M345.1,312.3v1.2h-15.9v-1.2h7.2v-2.4h-5.6v-1.2h5.6v-1.9h1.4v1.9h5.7v1.2h-5.7v2.4H345.1L345.1,312.3z M330.7,302.4
				h-1.3v-3.2h7.2c-0.2-0.5-0.5-1-0.7-1.4l1.3-0.4c0.3,0.5,0.7,1.2,0.9,1.8h6.7v3.2h-1.4v-1.9h-12.8V302.4L330.7,302.4z
				 M342.5,307.4c-0.2-0.3-0.6-0.7-1-1.1c-8.5,0.7-9.4,0.7-9.9,1c-0.1-0.3-0.2-0.9-0.4-1.2c0.3,0,0.8-0.3,1.2-0.6
				c0.4-0.3,1.5-1.1,2.5-2.2h-3.6V302h11.9v1.2h-6.5c-1,1-2,1.9-3,2.6l7-0.5c-0.5-0.5-1-0.9-1.5-1.3l1-0.6c1.2,1,2.8,2.3,3.5,3.3
				L342.5,307.4L342.5,307.4z"/>
		</g>
		<g>
			<path d="M272.4,272.5c-0.2-0.5-0.8-1.5-1.2-2.4v8h-1.3v-7.5c-0.6,1.7-1.4,3.3-2.2,4.3c-0.1-0.4-0.5-1-0.7-1.3
				c1-1.3,2.1-3.6,2.7-5.6h-2.3v-1.3h2.5v-2.9c-0.6,0.1-1.3,0.3-1.9,0.4c-0.1-0.3-0.2-0.8-0.4-1.1c1.7-0.3,3.6-0.9,4.8-1.4l0.8,1.1
				c-0.6,0.3-1.3,0.5-2.1,0.7v3.2h2.1v1.3h-2.1v0.4c0.5,0.6,1.8,2.5,2,3L272.4,272.5L272.4,272.5z M282.4,273.6
				c-0.2-1.5-0.9-3.7-1.7-5.3c-0.9,2.2-2,4.2-3.4,5.9v1.8c0,0.7,0.1,0.9,0.8,0.9h2.1c0.6,0,0.7-0.5,0.8-2.7c0.3,0.2,0.8,0.5,1.1,0.5
				c-0.1,2.6-0.5,3.3-1.8,3.3H278c-1.5,0-1.9-0.4-1.9-2v-0.2c-0.7,0.8-1.5,1.5-2.3,2.1c-0.2-0.2-0.8-0.7-1.1-0.9
				c1.3-0.9,2.4-2,3.4-3.2v-8.2h1.3v6.4c1.7-2.6,2.9-5.7,3.9-9.2l1.3,0.2c-0.5,1.8-1.1,3.6-1.8,5.2l1.1-0.3c0.8,1.7,1.5,3.9,1.8,5.3
				L282.4,273.6L282.4,273.6z M272.8,272.9c0.7-1.4,1.1-3.7,1.3-5.5l1,0.2c-0.2,1.8-0.6,4.3-1.3,5.7L272.8,272.9L272.8,272.9z
				 M279.2,265.3c-0.7-0.8-2.2-2-3.4-2.7l0.8-0.9c1.2,0.7,2.7,1.8,3.5,2.6L279.2,265.3z"/>
			<path d="M283.3,288.7v1h-15.9v-1h7.2v-1.1h-6v-0.9h6v-0.9h-5.5V285h5.5v-1.1h-7.2v-1h7.2v-1h-5.3v-0.9h5.3v-1.3h1.3v1.3h5.1v1.9
				h2.1v1h-2.1v2H276v0.9h6.1v0.9H276v1.1H283.3L283.3,288.7z M269.7,290.6h11.5v5.6h-1.3v-0.6H271v0.6h-1.3L269.7,290.6
				L269.7,290.6z M271,291.5v1.1h8.9v-1.1H271z M279.9,294.6v-1.1H271v1.1H279.9z M276,282.8h3.8v-1H276V282.8z M276,285h3.8v-1.1
				H276V285z"/>
			<path d="M283.3,312.4v1.2h-15.9v-1.2h7.2V310h-5.6v-1.2h5.6v-1.9h1.4v1.9h5.7v1.2h-5.7v2.4H283.3L283.3,312.4z M269,302.4h-1.3
				v-3.2h7.2c-0.2-0.5-0.5-1-0.7-1.4l1.3-0.4c0.3,0.5,0.7,1.2,0.9,1.8h6.7v3.2h-1.4v-1.9H269V302.4L269,302.4z M280.8,307.5
				c-0.2-0.3-0.6-0.7-1-1.1c-8.5,0.7-9.4,0.7-9.9,1c-0.1-0.3-0.2-0.9-0.4-1.2c0.3,0,0.8-0.3,1.2-0.6c0.4-0.3,1.5-1.1,2.5-2.2h-3.6
				v-1.2h11.9v1.2h-6.5c-1,1-2,1.9-3,2.6l7-0.5c-0.5-0.5-1-0.9-1.5-1.3l1-0.6c1.2,1,2.8,2.3,3.5,3.3L280.8,307.5L280.8,307.5z"/>
		</g>
		<g>
			<path d="M307,261.7c0,0.6,0,1.5-0.1,2.6c0.3,2.1,1.4,9.7,7.7,12.5c-0.4,0.3-0.8,0.8-1,1.1c-4.5-2.1-6.4-6.5-7.3-9.9
				c-0.8,3.6-2.7,7.6-7.1,10c-0.2-0.4-0.7-0.8-1.1-1c7.5-3.8,7.4-12.5,7.4-15.3L307,261.7L307,261.7z"/>
			<path d="M314.4,291h-1.9v3.2h-1.3v-0.8h-4.3v1.2c0,0.8-0.2,1.1-0.8,1.3c-0.6,0.2-1.5,0.2-3,0.2c-0.1-0.3-0.3-0.8-0.5-1.1
				c1.1,0,2.2,0,2.5,0c0.3,0,0.5-0.1,0.5-0.4v-1.2h-5.8v-1h5.8V291h-7.4v-1.1h7.4v-1.3h-5.6v-1h5.6v-1.3h-5.1v-3.2h5.1v-1h-7v-1.1h7
				v-1.4h1.3v1.4h7.2v1.1h-7.2v1h5.4v3.2h-5.4v1.3h5.6v2.2h1.9V291L314.4,291z M305.5,285.4v-1.3h-3.9v1.3H305.5z M306.8,284.1v1.3
				h4v-1.3H306.8z M306.8,289.9h4.3v-1.3h-4.3V289.9z M311.2,290.9h-4.3v1.4h4.3V290.9z"/>
			<path d="M314.2,312.4v1.2h-15.9v-1.2h7.2V310H300v-1.2h5.6v-1.9h1.4v1.9h5.7v1.2h-5.7v2.4H314.2L314.2,312.4z M299.9,302.4h-1.3
				v-3.2h7.2c-0.2-0.5-0.5-1-0.7-1.4l1.3-0.4c0.3,0.5,0.7,1.2,0.9,1.8h6.7v3.2h-1.4v-1.9h-12.8V302.4L299.9,302.4z M311.7,307.4
				c-0.2-0.3-0.6-0.7-1-1.1c-8.5,0.7-9.4,0.7-9.9,1c-0.1-0.3-0.2-0.9-0.4-1.2c0.3,0,0.8-0.3,1.2-0.6c0.4-0.3,1.5-1.1,2.5-2.2h-3.6
				V302h11.9v1.2h-6.5c-1,1-2,1.9-3,2.6l7-0.5c-0.5-0.5-1-0.9-1.5-1.3l1-0.6c1.2,1,2.8,2.3,3.5,3.3L311.7,307.4L311.7,307.4z"/>
		</g>
		<g>
			<path d="M375.8,266.2c-0.5,3-1.2,5.4-2.4,7.4c1,1.5,2.2,2.6,3.8,3.4c-0.3,0.3-0.7,0.8-0.9,1.1c-1.5-0.8-2.7-1.9-3.6-3.3
				c-1,1.4-2.4,2.5-4,3.4c-0.1-0.3-0.5-0.9-0.8-1.2c1.8-0.9,3.1-2,4.1-3.4c-0.8-1.5-1.4-3.2-1.9-5.1c-0.4,0.7-0.8,1.4-1.2,2
				c-0.2-0.2-0.8-0.7-1.1-0.9l0.1-0.1h-2v4.6l3.1-0.7l0.1,1.2c-3,0.7-6.1,1.5-8.4,2l-0.2-1.3l1.1-0.2v-8h1.2v7.7l1.8-0.4v-10h-3.8
				v-1.3h8.2v1.3h-3.1v3.9h2.5v0.6c1.2-1.9,2-4.4,2.5-7.1l1.3,0.2c-0.2,1.1-0.5,2.1-0.8,3.1h5.6v1.3L375.8,266.2L375.8,266.2z
				 M370.9,266.5c0.4,2.1,1,4.1,1.8,5.7c0.9-1.7,1.4-3.7,1.8-6H371L370.9,266.5L370.9,266.5z"/>
			<path d="M374.9,280.6c0,6.7,0,14,1.1,14c0.2,0,0.3-1.2,0.4-2.8c0.2,0.3,0.6,0.7,0.8,0.9c-0.1,2.3-0.4,3.2-1.3,3.2
				c-2.2,0-2.1-6.4-2.2-14.2h-9.7v4.5c0,2.9-0.3,7-2.3,9.7c-0.2-0.2-0.8-0.6-1.1-0.8c1.9-2.6,2.1-6.2,2.1-9v-5.8L374.9,280.6
				L374.9,280.6z M371.6,291.2c0.9,1.2,1.8,2.8,2.1,3.9l-1.1,0.4c-0.1-0.4-0.3-0.9-0.5-1.4c-3,0.2-6.1,0.4-8.2,0.6l-0.1-1.2
				c1.1,0,2.6-0.1,4.2-0.2v-2.5h-3.1v-4.9h3.1v-1.7h-3.4V283h8v1.1h-3.5v1.7h3.2v4.9h-3.2v2.5l2.3-0.1c-0.3-0.5-0.6-1.1-1-1.5
				L371.6,291.2L371.6,291.2z M368.1,289.7V287h-2v2.8H368.1z M369.3,287v2.8h2V287H369.3z"/>
			<path d="M376.8,312.3v1.2h-15.9v-1.2h7.2v-2.4h-5.6v-1.2h5.6v-1.9h1.4v1.9h5.7v1.2h-5.7v2.4H376.8L376.8,312.3z M362.4,302.4
				h-1.3v-3.2h7.2c-0.2-0.5-0.5-1-0.7-1.4l1.3-0.4c0.3,0.5,0.7,1.2,0.9,1.8h6.7v3.2h-1.4v-1.9h-12.8V302.4L362.4,302.4z
				 M374.2,307.4c-0.2-0.3-0.6-0.7-1-1.1c-8.5,0.7-9.4,0.7-9.9,1c-0.1-0.3-0.2-0.9-0.4-1.2c0.3,0,0.8-0.3,1.2-0.6
				c0.4-0.3,1.5-1.1,2.5-2.2h-3.6V302h11.9v1.2h-6.5c-1,1-2,1.9-3,2.6l7-0.5c-0.5-0.5-1-0.9-1.5-1.3l1-0.6c1.2,1,2.8,2.3,3.5,3.3
				L374.2,307.4L374.2,307.4z"/>
		</g>
	</g>
	<g>
		<path class="st0" d="M288.5,239.5h3.1v1.2h-3.1v3.2h-1.2v-3.2h-3.2v-1.2h3.2v-1.4h-2.5v-6.2h2.5v-1.3h-2.9v-1.2h2.9v-2h1.2v2h2.9
			v1.2h-2.9v1.3h2.6v6.2h-2.6V239.5z M285.8,234.5h1.7v-1.6h-1.7V234.5z M285.8,237.1h1.7v-1.7h-1.7V237.1z M290.1,232.8h-1.7v1.6
			h1.7V232.8z M290.1,235.4h-1.7v1.7h1.7V235.4z M296.7,231.1v1.6h3.5v9.7c0,0.6-0.1,1-0.5,1.2c-0.4,0.2-1,0.2-1.9,0.2
			c0-0.3-0.2-0.9-0.4-1.2c0.6,0,1.1,0,1.3,0s0.2-0.1,0.2-0.2v-2.5h-2.3v3.8h-1.2v-3.8h-2.2v3.9H292v-11.1h3.4v-1.6h-3.8v-1.2h3.8
			v-2.5h1.2v2.5h2.9c-0.5-0.6-1.4-1.3-2.2-1.9l0.8-0.6c0.8,0.5,1.8,1.3,2.2,1.8l-0.7,0.7h0.9v1.2L296.7,231.1L296.7,231.1z
			 M293.2,233.9v1.8h2.2v-1.8H293.2z M295.5,238.7v-1.9h-2.2v1.9H295.5z M296.7,233.9v1.8h2.3v-1.8H296.7z M298.9,238.7v-1.9h-2.3
			v1.9H298.9z"/>
		<path class="st0" d="M312.1,240.2c-2.8,0.7-5.8,1.4-8,1.9l-0.2-1.4l1.3-0.2v-12.2h5.9v11l1-0.2L312.1,240.2L312.1,240.2z
			 M306.4,229.5v2.6h3.4v-2.6H306.4z M309.8,233.3h-3.4v2.6h3.4V233.3z M306.4,240.2c1-0.2,2.2-0.5,3.4-0.7v-2.4h-3.4V240.2z
			 M319.9,231.5c0,0,0,0.5,0,0.7c-0.2,7.5-0.4,10.1-1,10.9c-0.3,0.5-0.7,0.6-1.3,0.7c-0.5,0.1-1.5,0-2.5,0c0-0.4-0.2-0.9-0.4-1.3
			c1,0.1,2,0.1,2.3,0.1c0.3,0,0.5,0,0.7-0.3c0.5-0.5,0.6-2.9,0.8-9.5h-2.8c-0.3,4.7-1.3,8.7-4.9,11.1c-0.2-0.3-0.6-0.8-1-1
			c3.4-2.1,4.3-5.9,4.6-10.1h-2.9v-1.3h2.9c0-1.3,0-2.7,0-4.1h1.3c0,1.4,0,2.7,0,4.1L319.9,231.5L319.9,231.5z"/>
		<path class="st0" d="M339.9,241.3h-7.3v2.5h-1.4v-2.5h-7.1v-1.2h7.1v-1.4h-5.4v-6.3h12.4v6.3h-5.6v1.4h7.3V241.3z M331.4,231.6
			h-5.9v-3.5h5.9V231.6z M330.1,229h-3.5v1.7h3.5V229z M327.2,235.1h4.1v-1.5h-4.1V235.1z M331.3,237.7v-1.6h-4.1v1.6H331.3z
			 M336.9,233.6h-4.3v1.5h4.3V233.6z M336.9,236.1h-4.3v1.6h4.3V236.1z M338.8,231.6h-6v-3.5h6V231.6z M337.5,229H334v1.7h3.5V229z"
			/>
		<path class="st0" d="M349.2,227.8c-0.5,1.3-1.1,2.6-1.8,3.8v12.1h-1.3v-10.1c-0.6,0.8-1.2,1.5-1.8,2.2c-0.1-0.3-0.5-1-0.8-1.3
			c1.8-1.7,3.4-4.4,4.4-7.1L349.2,227.8z M359.9,241.8v1.3h-11.2v-1.3h6.3c0.6-2.4,1.4-6.2,1.7-8.9l1.4,0.2
			c-0.5,2.8-1.2,6.3-1.9,8.7H359.9z M359.2,231.9h-9.7v-1.3h9.7V231.9z M351.9,241c-0.1-1.9-0.7-5.2-1.2-7.7l1.2-0.3
			c0.6,2.5,1.1,5.7,1.3,7.6L351.9,241L351.9,241z M353.9,230.4c-0.1-0.8-0.5-2-0.9-2.9l1.3-0.3c0.3,0.9,0.7,2.1,0.9,2.8L353.9,230.4
			L353.9,230.4z"/>
	</g>
</g>
</svg>
