<?xml version="1.0" encoding="utf-8"?>
<!-- Generator: Adobe Illustrator 26.3.1, SVG Export Plug-In . SVG Version: 6.00 Build 0)  -->
<svg version="1.1" id="圖層_1" xmlns="http://www.w3.org/2000/svg" xmlns:xlink="http://www.w3.org/1999/xlink" x="0px" y="0px"
	 width="350px" height="44px" viewBox="0 0 350 44" style="enable-background:new 0 0 350 44;" xml:space="preserve">
<style type="text/css">
	.st0{fill:#1F333D;}
	.st1{fill:#B3C33E;}
</style>
<g id="adi_logo-H-standard-EN_00000067953450244900401700000003709777348425138821_">
	<g>
		<path class="st0" d="M54.9,15.5h-5.1l-0.9,2.6h-1.6l4.2-11.6h1.8l4.2,11.6h-1.6L54.9,15.5z M54.5,14.3l-2.1-5.9l-2.1,5.9H54.5z"/>
		<path class="st0" d="M59.3,11c0.4-0.7,0.9-1.3,1.6-1.6c0.7-0.4,1.4-0.6,2.2-0.6c0.7,0,1.4,0.2,2,0.5c0.6,0.3,1.1,0.8,1.4,1.3V5.7
			H68v12.4h-1.5v-1.7c-0.3,0.5-0.7,1-1.3,1.3c-0.6,0.4-1.3,0.5-2.1,0.5c-0.8,0-1.6-0.2-2.2-0.6c-0.7-0.4-1.2-1-1.6-1.7
			c-0.4-0.7-0.6-1.5-0.6-2.5C58.7,12.6,58.9,11.7,59.3,11z M66.1,11.7c-0.3-0.5-0.7-0.9-1.1-1.2c-0.5-0.3-1-0.4-1.6-0.4
			c-0.6,0-1.1,0.1-1.6,0.4c-0.5,0.3-0.8,0.7-1.1,1.2c-0.3,0.5-0.4,1.1-0.4,1.8c0,0.7,0.1,1.3,0.4,1.8c0.3,0.5,0.7,0.9,1.1,1.2
			c0.5,0.3,1,0.4,1.6,0.4c0.6,0,1.1-0.1,1.6-0.4c0.5-0.3,0.8-0.7,1.1-1.2c0.3-0.5,0.4-1.1,0.4-1.8C66.5,12.8,66.3,12.2,66.1,11.7z"
			/>
		<path class="st0" d="M83.5,9.2c0.6,0.3,1,0.7,1.3,1.3c0.3,0.6,0.5,1.3,0.5,2.2v5.4h-1.5v-5.2c0-0.9-0.2-1.6-0.7-2.1
			c-0.5-0.5-1.1-0.7-1.8-0.7c-0.8,0-1.4,0.3-1.9,0.8c-0.5,0.5-0.7,1.2-0.7,2.2v5h-1.5v-5.2c0-0.9-0.2-1.6-0.7-2.1
			c-0.5-0.5-1.1-0.7-1.8-0.7c-0.8,0-1.4,0.3-1.9,0.8c-0.5,0.5-0.7,1.2-0.7,2.2v5h-1.5V8.9h1.5v1.3c0.3-0.5,0.7-0.8,1.2-1.1
			c0.5-0.3,1.1-0.4,1.7-0.4c0.8,0,1.4,0.2,2,0.5c0.6,0.3,1,0.9,1.3,1.5c0.3-0.6,0.7-1.1,1.3-1.5c0.6-0.4,1.2-0.5,2-0.5
			C82.3,8.8,82.9,8.9,83.5,9.2z"/>
		<path class="st0" d="M87.9,7.2c-0.2-0.2-0.3-0.4-0.3-0.7c0-0.3,0.1-0.5,0.3-0.7c0.2-0.2,0.4-0.3,0.7-0.3c0.3,0,0.5,0.1,0.7,0.3
			c0.2,0.2,0.3,0.4,0.3,0.7c0,0.3-0.1,0.5-0.3,0.7c-0.2,0.2-0.4,0.3-0.7,0.3C88.3,7.5,88.1,7.4,87.9,7.2z M89.3,8.9v9.2h-1.5V8.9
			H89.3z"/>
		<path class="st0" d="M99.1,9.8c0.7,0.7,1,1.6,1,2.9v5.4h-1.5v-5.2c0-0.9-0.2-1.6-0.7-2.1c-0.5-0.5-1.1-0.7-1.9-0.7
			c-0.8,0-1.4,0.3-1.9,0.8c-0.5,0.5-0.7,1.2-0.7,2.2v5.1h-1.5V8.9h1.5v1.3c0.3-0.5,0.7-0.8,1.2-1.1s1.1-0.4,1.7-0.4
			C97.5,8.8,98.4,9.1,99.1,9.8z"/>
		<path class="st0" d="M102.7,7.2c-0.2-0.2-0.3-0.4-0.3-0.7c0-0.3,0.1-0.5,0.3-0.7c0.2-0.2,0.4-0.3,0.7-0.3c0.3,0,0.5,0.1,0.7,0.3
			c0.2,0.2,0.3,0.4,0.3,0.7c0,0.3-0.1,0.5-0.3,0.7c-0.2,0.2-0.4,0.3-0.7,0.3C103.1,7.5,102.9,7.4,102.7,7.2z M104.1,8.9v9.2h-1.5
			V8.9H104.1z"/>
		<path class="st0" d="M108.1,17.9c-0.6-0.2-1-0.6-1.3-1c-0.3-0.4-0.5-0.9-0.5-1.5h1.6c0,0.5,0.3,0.8,0.6,1.1
			c0.4,0.3,0.9,0.4,1.5,0.4c0.6,0,1-0.1,1.4-0.4c0.3-0.3,0.5-0.6,0.5-1c0-0.4-0.2-0.7-0.5-0.9c-0.4-0.2-0.9-0.4-1.7-0.6
			c-0.7-0.2-1.2-0.4-1.7-0.5c-0.4-0.2-0.8-0.5-1.1-0.8c-0.3-0.4-0.5-0.8-0.5-1.4c0-0.5,0.1-0.9,0.4-1.3c0.3-0.4,0.7-0.7,1.2-0.9
			c0.5-0.2,1.1-0.3,1.8-0.3c1,0,1.8,0.3,2.5,0.8c0.6,0.5,1,1.2,1,2.1h-1.5c0-0.5-0.2-0.9-0.6-1.2c-0.4-0.3-0.8-0.4-1.4-0.4
			c-0.5,0-1,0.1-1.3,0.4c-0.3,0.2-0.5,0.5-0.5,0.9c0,0.3,0.1,0.5,0.3,0.7c0.2,0.2,0.4,0.4,0.7,0.5c0.3,0.1,0.7,0.2,1.2,0.4
			c0.7,0.2,1.2,0.4,1.6,0.5c0.4,0.2,0.8,0.4,1.1,0.8c0.3,0.3,0.4,0.8,0.5,1.4c0,0.5-0.1,1-0.4,1.4s-0.7,0.7-1.2,0.9
			c-0.5,0.2-1.1,0.3-1.7,0.3C109.3,18.3,108.6,18.1,108.1,17.9z"/>
		<path class="st0" d="M117.3,10.2v5.4c0,0.4,0.1,0.8,0.3,0.9c0.2,0.2,0.5,0.3,1,0.3h1.1v1.3h-1.4c-0.8,0-1.5-0.2-1.9-0.6
			c-0.4-0.4-0.6-1-0.6-1.9v-5.4h-1.2V8.9h1.2V6.6h1.5v2.3h2.4v1.3H117.3z"/>
		<path class="st0" d="M124.2,9.2c0.5-0.3,1.1-0.4,1.8-0.4v1.6h-0.4c-1.7,0-2.6,0.9-2.6,2.8v5h-1.5V8.9h1.5v1.5
			C123.3,9.9,123.7,9.5,124.2,9.2z"/>
		<path class="st0" d="M127.8,11c0.4-0.7,0.9-1.3,1.6-1.6c0.7-0.4,1.4-0.6,2.2-0.6c0.8,0,1.5,0.2,2.1,0.5c0.6,0.3,1,0.8,1.3,1.3V8.9
			h1.5v9.2h-1.5v-1.7c-0.3,0.5-0.7,1-1.3,1.3c-0.6,0.4-1.3,0.5-2.1,0.5c-0.8,0-1.5-0.2-2.2-0.6c-0.7-0.4-1.2-1-1.6-1.7
			c-0.4-0.7-0.6-1.5-0.6-2.5C127.2,12.6,127.4,11.7,127.8,11z M134.5,11.7c-0.3-0.5-0.7-0.9-1.1-1.2c-0.5-0.3-1-0.4-1.6-0.4
			s-1.1,0.1-1.6,0.4c-0.5,0.3-0.8,0.7-1.1,1.2c-0.3,0.5-0.4,1.1-0.4,1.8c0,0.7,0.1,1.3,0.4,1.8c0.3,0.5,0.7,0.9,1.1,1.2
			c0.5,0.3,1,0.4,1.6,0.4s1.1-0.1,1.6-0.4c0.5-0.3,0.8-0.7,1.1-1.2c0.3-0.5,0.4-1.1,0.4-1.8C134.9,12.8,134.8,12.2,134.5,11.7z"/>
		<path class="st0" d="M140.9,10.2v5.4c0,0.4,0.1,0.8,0.3,0.9c0.2,0.2,0.5,0.3,1,0.3h1.1v1.3h-1.4c-0.8,0-1.5-0.2-1.9-0.6
			c-0.4-0.4-0.6-1-0.6-1.9v-5.4h-1.2V8.9h1.2V6.6h1.5v2.3h2.4v1.3H140.9z"/>
		<path class="st0" d="M145.2,7.2c-0.2-0.2-0.3-0.4-0.3-0.7c0-0.3,0.1-0.5,0.3-0.7c0.2-0.2,0.4-0.3,0.7-0.3c0.3,0,0.5,0.1,0.7,0.3
			c0.2,0.2,0.3,0.4,0.3,0.7c0,0.3-0.1,0.5-0.3,0.7c-0.2,0.2-0.4,0.3-0.7,0.3C145.6,7.5,145.4,7.4,145.2,7.2z M146.7,8.9v9.2h-1.5
			V8.9H146.7z"/>
		<path class="st0" d="M150.9,17.7c-0.7-0.4-1.2-0.9-1.6-1.7c-0.4-0.7-0.6-1.6-0.6-2.5c0-0.9,0.2-1.8,0.6-2.5c0.4-0.7,1-1.3,1.7-1.7
			c0.7-0.4,1.5-0.6,2.4-0.6c0.9,0,1.7,0.2,2.4,0.6s1.3,0.9,1.7,1.6c0.4,0.7,0.6,1.5,0.6,2.5s-0.2,1.8-0.6,2.5
			c-0.4,0.7-1,1.3-1.7,1.7c-0.7,0.4-1.5,0.6-2.4,0.6C152.4,18.3,151.6,18.1,150.9,17.7z M154.8,16.5c0.5-0.3,0.9-0.6,1.2-1.2
			c0.3-0.5,0.4-1.1,0.4-1.9c0-0.7-0.1-1.4-0.4-1.9c-0.3-0.5-0.7-0.9-1.1-1.1c-0.5-0.3-1-0.4-1.5-0.4c-0.6,0-1.1,0.1-1.5,0.4
			c-0.5,0.3-0.8,0.6-1.1,1.1c-0.3,0.5-0.4,1.1-0.4,1.9c0,0.7,0.1,1.4,0.4,1.9c0.3,0.5,0.6,0.9,1.1,1.1c0.5,0.3,1,0.4,1.5,0.4
			C153.8,16.9,154.3,16.8,154.8,16.5z"/>
		<path class="st0" d="M167.1,9.8c0.7,0.7,1,1.6,1,2.9v5.4h-1.5v-5.2c0-0.9-0.2-1.6-0.7-2.1c-0.5-0.5-1.1-0.7-1.9-0.7
			c-0.8,0-1.4,0.3-1.9,0.8c-0.5,0.5-0.7,1.2-0.7,2.2v5.1h-1.5V8.9h1.5v1.3c0.3-0.5,0.7-0.8,1.2-1.1s1.1-0.4,1.7-0.4
			C165.5,8.8,166.4,9.1,167.1,9.8z"/>
		<path class="st0" d="M178.8,10.2h-1.9v7.9h-1.5v-7.9h-1.2V8.9h1.2V8.3c0-1,0.3-1.8,0.8-2.2s1.4-0.7,2.5-0.7v1.3
			c-0.7,0-1.1,0.1-1.4,0.4c-0.3,0.3-0.4,0.7-0.4,1.3v0.7h1.9V10.2z"/>
		<path class="st0" d="M182.3,17.7c-0.7-0.4-1.2-0.9-1.6-1.7c-0.4-0.7-0.6-1.6-0.6-2.5c0-0.9,0.2-1.8,0.6-2.5c0.4-0.7,1-1.3,1.7-1.7
			s1.5-0.6,2.4-0.6c0.9,0,1.7,0.2,2.4,0.6c0.7,0.4,1.3,0.9,1.7,1.6c0.4,0.7,0.6,1.5,0.6,2.5s-0.2,1.8-0.6,2.5
			c-0.4,0.7-1,1.3-1.7,1.7c-0.7,0.4-1.5,0.6-2.4,0.6C183.7,18.3,183,18.1,182.3,17.7z M186.1,16.5c0.5-0.3,0.9-0.6,1.2-1.2
			c0.3-0.5,0.4-1.1,0.4-1.9c0-0.7-0.1-1.4-0.4-1.9c-0.3-0.5-0.7-0.9-1.1-1.1c-0.5-0.3-1-0.4-1.5-0.4c-0.6,0-1.1,0.1-1.5,0.4
			c-0.5,0.3-0.8,0.6-1.1,1.1c-0.3,0.5-0.4,1.1-0.4,1.9c0,0.7,0.1,1.4,0.4,1.9c0.3,0.5,0.6,0.9,1.1,1.1c0.5,0.3,1,0.4,1.5,0.4
			C185.1,16.9,185.7,16.8,186.1,16.5z"/>
		<path class="st0" d="M194,9.2c0.5-0.3,1.1-0.4,1.8-0.4v1.6h-0.4c-1.7,0-2.6,0.9-2.6,2.8v5h-1.5V8.9h1.5v1.5
			C193.1,9.9,193.5,9.5,194,9.2z"/>
		<path class="st0" d="M208.9,7.2c0.9,0.5,1.6,1.2,2.1,2c0.5,0.9,0.7,1.9,0.7,3.1s-0.2,2.2-0.7,3.1c-0.5,0.9-1.2,1.5-2.1,2
			c-0.9,0.5-2,0.7-3.3,0.7H202V6.5h3.6C206.9,6.5,208,6.7,208.9,7.2z M209.1,15.7c0.8-0.8,1.2-1.9,1.2-3.4c0-1.4-0.4-2.6-1.2-3.4
			c-0.8-0.8-1.9-1.2-3.4-1.2h-2.1v9.2h2.1C207.1,16.8,208.3,16.4,209.1,15.7z"/>
		<path class="st0" d="M214.3,7.2C214.1,7,214,6.7,214,6.4c0-0.3,0.1-0.5,0.3-0.7c0.2-0.2,0.4-0.3,0.7-0.3c0.3,0,0.5,0.1,0.7,0.3
			c0.2,0.2,0.3,0.4,0.3,0.7c0,0.3-0.1,0.5-0.3,0.7c-0.2,0.2-0.4,0.3-0.7,0.3C214.7,7.5,214.5,7.4,214.3,7.2z M215.8,8.9v9.2h-1.5
			V8.9H215.8z"/>
		<path class="st0" d="M224.7,9.3c0.6,0.3,1,0.8,1.3,1.3V8.9h1.5v9.4c0,0.8-0.2,1.6-0.5,2.2c-0.4,0.7-0.9,1.2-1.5,1.5
			c-0.7,0.4-1.4,0.6-2.3,0.6c-1.2,0-2.2-0.3-3-0.9c-0.8-0.6-1.3-1.3-1.4-2.3h1.5c0.2,0.6,0.5,1,1,1.3c0.5,0.3,1.2,0.5,1.9,0.5
			c0.8,0,1.5-0.3,2-0.8c0.5-0.5,0.8-1.3,0.8-2.2v-1.9c-0.3,0.5-0.7,1-1.3,1.3c-0.6,0.4-1.3,0.5-2.1,0.5c-0.8,0-1.6-0.2-2.2-0.6
			c-0.7-0.4-1.2-1-1.6-1.7c-0.4-0.7-0.6-1.5-0.6-2.5c0-0.9,0.2-1.8,0.6-2.5c0.4-0.7,0.9-1.3,1.6-1.6c0.7-0.4,1.4-0.6,2.2-0.6
			C223.4,8.8,224.1,9,224.7,9.3z M225.6,11.7c-0.3-0.5-0.7-0.9-1.1-1.2c-0.5-0.3-1-0.4-1.6-0.4s-1.1,0.1-1.6,0.4
			c-0.5,0.3-0.8,0.7-1.1,1.2c-0.3,0.5-0.4,1.1-0.4,1.8c0,0.7,0.1,1.3,0.4,1.8c0.3,0.5,0.7,0.9,1.1,1.2c0.5,0.3,1,0.4,1.6,0.4
			s1.1-0.1,1.6-0.4c0.5-0.3,0.8-0.7,1.1-1.2c0.3-0.5,0.4-1.1,0.4-1.8C226,12.8,225.9,12.2,225.6,11.7z"/>
		<path class="st0" d="M230.6,7.2c-0.2-0.2-0.3-0.4-0.3-0.7c0-0.3,0.1-0.5,0.3-0.7c0.2-0.2,0.4-0.3,0.7-0.3c0.3,0,0.5,0.1,0.7,0.3
			c0.2,0.2,0.3,0.4,0.3,0.7c0,0.3-0.1,0.5-0.3,0.7c-0.2,0.2-0.4,0.3-0.7,0.3C231.1,7.5,230.8,7.4,230.6,7.2z M232.1,8.9v9.2h-1.5
			V8.9H232.1z"/>
		<path class="st0" d="M237,10.2v5.4c0,0.4,0.1,0.8,0.3,0.9c0.2,0.2,0.5,0.3,1,0.3h1.1v1.3H238c-0.8,0-1.5-0.2-1.9-0.6
			c-0.4-0.4-0.6-1-0.6-1.9v-5.4h-1.2V8.9h1.2V6.6h1.5v2.3h2.4v1.3H237z"/>
		<path class="st0" d="M241.7,11c0.4-0.7,0.9-1.3,1.6-1.6c0.7-0.4,1.4-0.6,2.2-0.6c0.8,0,1.5,0.2,2.1,0.5c0.6,0.3,1,0.8,1.3,1.3V8.9
			h1.5v9.2h-1.5v-1.7c-0.3,0.5-0.7,1-1.3,1.3c-0.6,0.4-1.3,0.5-2.1,0.5c-0.8,0-1.5-0.2-2.2-0.6c-0.7-0.4-1.2-1-1.6-1.7
			c-0.4-0.7-0.6-1.5-0.6-2.5C241.1,12.6,241.3,11.7,241.7,11z M248.4,11.7c-0.3-0.5-0.7-0.9-1.1-1.2c-0.5-0.3-1-0.4-1.6-0.4
			s-1.1,0.1-1.6,0.4c-0.5,0.3-0.8,0.7-1.1,1.2c-0.3,0.5-0.4,1.1-0.4,1.8c0,0.7,0.1,1.3,0.4,1.8c0.3,0.5,0.7,0.9,1.1,1.2
			c0.5,0.3,1,0.4,1.6,0.4s1.1-0.1,1.6-0.4c0.5-0.3,0.8-0.7,1.1-1.2c0.3-0.5,0.4-1.1,0.4-1.8C248.8,12.8,248.7,12.2,248.4,11.7z"/>
		<path class="st0" d="M254.9,5.7v12.4h-1.5V5.7H254.9z"/>
		<path class="st0" d="M264.4,6.5v11.6h-1.5V6.5H264.4z"/>
		<path class="st0" d="M274.6,9.8c0.7,0.7,1,1.6,1,2.9v5.4h-1.5v-5.2c0-0.9-0.2-1.6-0.7-2.1c-0.5-0.5-1.1-0.7-1.9-0.7
			c-0.8,0-1.4,0.3-1.9,0.8c-0.5,0.5-0.7,1.2-0.7,2.2v5.1h-1.5V8.9h1.5v1.3c0.3-0.5,0.7-0.8,1.2-1.1s1.1-0.4,1.7-0.4
			C273,8.8,273.9,9.1,274.6,9.8z"/>
		<path class="st0" d="M278.6,11c0.4-0.7,0.9-1.3,1.6-1.6c0.7-0.4,1.4-0.6,2.2-0.6c0.7,0,1.4,0.2,2,0.5c0.6,0.3,1.1,0.8,1.4,1.3V5.7
			h1.5v12.4h-1.5v-1.7c-0.3,0.5-0.7,1-1.3,1.3c-0.6,0.4-1.3,0.5-2.1,0.5c-0.8,0-1.6-0.2-2.2-0.6c-0.7-0.4-1.2-1-1.6-1.7
			c-0.4-0.7-0.6-1.5-0.6-2.5C278,12.6,278.2,11.7,278.6,11z M285.4,11.7c-0.3-0.5-0.7-0.9-1.1-1.2c-0.5-0.3-1-0.4-1.6-0.4
			c-0.6,0-1.1,0.1-1.6,0.4c-0.5,0.3-0.8,0.7-1.1,1.2c-0.3,0.5-0.4,1.1-0.4,1.8c0,0.7,0.1,1.3,0.4,1.8c0.3,0.5,0.7,0.9,1.1,1.2
			c0.5,0.3,1,0.4,1.6,0.4c0.6,0,1.1-0.1,1.6-0.4c0.5-0.3,0.8-0.7,1.1-1.2c0.3-0.5,0.4-1.1,0.4-1.8C285.8,12.8,285.6,12.2,285.4,11.7
			z"/>
		<path class="st0" d="M298.5,8.9v9.2h-1.5v-1.4c-0.3,0.5-0.7,0.8-1.2,1.1c-0.5,0.3-1.1,0.4-1.7,0.4c-0.7,0-1.4-0.1-1.9-0.4
			c-0.6-0.3-1-0.7-1.3-1.3c-0.3-0.6-0.5-1.3-0.5-2.2V8.9h1.5v5.2c0,0.9,0.2,1.6,0.7,2.1c0.5,0.5,1.1,0.7,1.9,0.7
			c0.8,0,1.5-0.3,1.9-0.8c0.5-0.5,0.7-1.2,0.7-2.2v-5H298.5z"/>
		<path class="st0" d="M302.8,17.9c-0.6-0.2-1-0.6-1.3-1c-0.3-0.4-0.5-0.9-0.5-1.5h1.6c0,0.5,0.3,0.8,0.6,1.1
			c0.4,0.3,0.9,0.4,1.5,0.4c0.6,0,1-0.1,1.4-0.4c0.3-0.3,0.5-0.6,0.5-1c0-0.4-0.2-0.7-0.5-0.9c-0.4-0.2-0.9-0.4-1.7-0.6
			c-0.7-0.2-1.2-0.4-1.7-0.5c-0.4-0.2-0.8-0.5-1.1-0.8c-0.3-0.4-0.5-0.8-0.5-1.4c0-0.5,0.1-0.9,0.4-1.3c0.3-0.4,0.7-0.7,1.2-0.9
			c0.5-0.2,1.1-0.3,1.8-0.3c1,0,1.8,0.3,2.5,0.8c0.6,0.5,1,1.2,1,2.1h-1.5c0-0.5-0.2-0.9-0.6-1.2c-0.4-0.3-0.8-0.4-1.4-0.4
			c-0.5,0-1,0.1-1.3,0.4c-0.3,0.2-0.5,0.5-0.5,0.9c0,0.3,0.1,0.5,0.3,0.7c0.2,0.2,0.4,0.4,0.7,0.5c0.3,0.1,0.7,0.2,1.2,0.4
			c0.7,0.2,1.2,0.4,1.6,0.5c0.4,0.2,0.8,0.4,1.1,0.8c0.3,0.3,0.4,0.8,0.5,1.4c0,0.5-0.1,1-0.4,1.4c-0.3,0.4-0.7,0.7-1.2,0.9
			c-0.5,0.2-1.1,0.3-1.7,0.3C304,18.3,303.4,18.1,302.8,17.9z"/>
		<path class="st0" d="M312.5,10.2v5.4c0,0.4,0.1,0.8,0.3,0.9c0.2,0.2,0.5,0.3,1,0.3h1.1v1.3h-1.4c-0.8,0-1.5-0.2-1.9-0.6
			c-0.4-0.4-0.6-1-0.6-1.9v-5.4h-1.2V8.9h1.2V6.6h1.5v2.3h2.4v1.3H312.5z"/>
		<path class="st0" d="M319.9,9.2c0.5-0.3,1.1-0.4,1.8-0.4v1.6h-0.4c-1.7,0-2.6,0.9-2.6,2.8v5h-1.5V8.9h1.5v1.5
			C319,9.9,319.4,9.5,319.9,9.2z"/>
		<path class="st0" d="M323.9,7.2c-0.2-0.2-0.3-0.4-0.3-0.7c0-0.3,0.1-0.5,0.3-0.7c0.2-0.2,0.4-0.3,0.7-0.3c0.3,0,0.5,0.1,0.7,0.3
			c0.2,0.2,0.3,0.4,0.3,0.7c0,0.3-0.1,0.5-0.3,0.7c-0.2,0.2-0.4,0.3-0.7,0.3C324.4,7.5,324.1,7.4,323.9,7.2z M325.4,8.9v9.2h-1.5
			V8.9H325.4z"/>
		<path class="st0" d="M336.7,14.1h-7.3c0.1,0.9,0.4,1.6,0.9,2.1c0.6,0.5,1.2,0.8,2,0.8c0.7,0,1.2-0.2,1.6-0.5
			c0.4-0.3,0.7-0.7,0.9-1.2h1.6c-0.2,0.9-0.7,1.6-1.5,2.1c-0.7,0.6-1.6,0.8-2.7,0.8c-0.9,0-1.6-0.2-2.3-0.6
			c-0.7-0.4-1.2-0.9-1.6-1.7c-0.4-0.7-0.6-1.6-0.6-2.5s0.2-1.8,0.6-2.5c0.4-0.7,0.9-1.3,1.6-1.6c0.7-0.4,1.5-0.6,2.4-0.6
			c0.9,0,1.6,0.2,2.3,0.6c0.7,0.4,1.2,0.9,1.5,1.6c0.4,0.7,0.5,1.4,0.5,2.2C336.8,13.5,336.8,13.8,336.7,14.1z M334.8,11.4
			c-0.3-0.4-0.6-0.7-1-1c-0.4-0.2-0.9-0.3-1.5-0.3c-0.8,0-1.4,0.2-2,0.7c-0.5,0.5-0.8,1.2-0.9,2h5.8
			C335.2,12.3,335.1,11.8,334.8,11.4z"/>
		<path class="st0" d="M340.6,17.9c-0.6-0.2-1-0.6-1.3-1c-0.3-0.4-0.5-0.9-0.5-1.5h1.6c0,0.5,0.3,0.8,0.6,1.1
			c0.4,0.3,0.9,0.4,1.5,0.4c0.6,0,1-0.1,1.4-0.4c0.3-0.3,0.5-0.6,0.5-1c0-0.4-0.2-0.7-0.5-0.9c-0.4-0.2-0.9-0.4-1.7-0.6
			c-0.7-0.2-1.2-0.4-1.7-0.5c-0.4-0.2-0.8-0.5-1.1-0.8c-0.3-0.4-0.5-0.8-0.5-1.4c0-0.5,0.1-0.9,0.4-1.3c0.3-0.4,0.7-0.7,1.2-0.9
			c0.5-0.2,1.1-0.3,1.8-0.3c1,0,1.8,0.3,2.5,0.8c0.6,0.5,1,1.2,1,2.1h-1.5c0-0.5-0.2-0.9-0.6-1.2c-0.4-0.3-0.8-0.4-1.4-0.4
			c-0.5,0-1,0.1-1.3,0.4c-0.3,0.2-0.5,0.5-0.5,0.9c0,0.3,0.1,0.5,0.3,0.7c0.2,0.2,0.4,0.4,0.7,0.5c0.3,0.1,0.7,0.2,1.2,0.4
			c0.7,0.2,1.2,0.4,1.6,0.5c0.4,0.2,0.8,0.4,1.1,0.8c0.3,0.3,0.4,0.8,0.5,1.4c0,0.5-0.1,1-0.4,1.4c-0.3,0.4-0.7,0.7-1.2,0.9
			c-0.5,0.2-1.1,0.3-1.7,0.3C341.8,18.3,341.2,18.1,340.6,17.9z"/>
		<path class="st0" d="M350,16l-1.9,4.5h-1l1.2-4.5H350z"/>
		<path class="st0" d="M59.8,26.6v11.6h-1.5v-8.6l-3.8,8.6h-1.1l-3.9-8.6v8.6H48V26.6h1.6l4.3,9.6l4.3-9.6H59.8z"/>
		<path class="st0" d="M62.5,27.2c-0.2-0.2-0.3-0.4-0.3-0.7c0-0.3,0.1-0.5,0.3-0.7c0.2-0.2,0.4-0.3,0.7-0.3c0.3,0,0.5,0.1,0.7,0.3
			c0.2,0.2,0.3,0.4,0.3,0.7c0,0.3-0.1,0.5-0.3,0.7c-0.2,0.2-0.4,0.3-0.7,0.3C62.9,27.5,62.7,27.4,62.5,27.2z M63.9,29v9.2h-1.5V29
			H63.9z"/>
		<path class="st0" d="M73.7,29.8c0.7,0.7,1,1.6,1,2.9v5.4h-1.5V33c0-0.9-0.2-1.6-0.7-2.1c-0.5-0.5-1.1-0.7-1.9-0.7
			c-0.8,0-1.4,0.3-1.9,0.8c-0.5,0.5-0.7,1.2-0.7,2.2v5.1h-1.5V29H68v1.3c0.3-0.5,0.7-0.8,1.2-1.1c0.5-0.3,1.1-0.4,1.7-0.4
			C72.1,28.8,73,29.2,73.7,29.8z"/>
		<path class="st0" d="M77.3,27.2C77.1,27,77,26.8,77,26.5c0-0.3,0.1-0.5,0.3-0.7c0.2-0.2,0.4-0.3,0.7-0.3c0.3,0,0.5,0.1,0.7,0.3
			c0.2,0.2,0.3,0.4,0.3,0.7c0,0.3-0.1,0.5-0.3,0.7c-0.2,0.2-0.4,0.3-0.7,0.3C77.7,27.5,77.5,27.4,77.3,27.2z M78.7,29v9.2h-1.5V29
			H78.7z"/>
		<path class="st0" d="M82.7,37.9c-0.6-0.2-1-0.6-1.3-1c-0.3-0.4-0.5-0.9-0.5-1.5h1.6c0,0.5,0.3,0.8,0.6,1.1
			c0.4,0.3,0.9,0.4,1.5,0.4c0.6,0,1-0.1,1.4-0.4c0.3-0.3,0.5-0.6,0.5-1c0-0.4-0.2-0.7-0.5-0.9c-0.4-0.2-0.9-0.4-1.7-0.6
			c-0.7-0.2-1.2-0.4-1.7-0.5c-0.4-0.2-0.8-0.5-1.1-0.8C81.2,32.5,81,32,81,31.4c0-0.5,0.1-0.9,0.4-1.3c0.3-0.4,0.7-0.7,1.2-0.9
			c0.5-0.2,1.1-0.3,1.8-0.3c1,0,1.8,0.3,2.5,0.8c0.6,0.5,1,1.2,1,2.1h-1.5c0-0.5-0.2-0.9-0.6-1.2c-0.4-0.3-0.8-0.4-1.4-0.4
			c-0.5,0-1,0.1-1.3,0.4c-0.3,0.2-0.5,0.5-0.5,0.9c0,0.3,0.1,0.5,0.3,0.7c0.2,0.2,0.4,0.4,0.7,0.5c0.3,0.1,0.7,0.2,1.2,0.4
			c0.7,0.2,1.2,0.4,1.6,0.5c0.4,0.2,0.8,0.4,1.1,0.8c0.3,0.3,0.4,0.8,0.5,1.4c0,0.5-0.1,1-0.4,1.4c-0.3,0.4-0.7,0.7-1.2,0.9
			c-0.5,0.2-1.1,0.3-1.7,0.3C83.9,38.3,83.2,38.2,82.7,37.9z"/>
		<path class="st0" d="M91.9,30.3v5.4c0,0.4,0.1,0.8,0.3,0.9c0.2,0.2,0.5,0.3,1,0.3h1.1v1.3h-1.4c-0.8,0-1.5-0.2-1.9-0.6
			c-0.4-0.4-0.6-1-0.6-1.9v-5.4h-1.2V29h1.2v-2.3h1.5V29h2.4v1.3H91.9z"/>
		<path class="st0" d="M98.8,29.3c0.5-0.3,1.1-0.4,1.8-0.4v1.6h-0.4c-1.7,0-2.6,0.9-2.6,2.8v5h-1.5V29h1.5v1.5
			C97.9,30,98.3,29.6,98.8,29.3z"/>
		<path class="st0" d="M110.3,29l-5.5,13.5h-1.6l1.8-4.4l-3.7-9.1h1.7l2.9,7.4l2.8-7.4H110.3z"/>
		<path class="st0" d="M117.9,37.7c-0.7-0.4-1.2-0.9-1.6-1.7c-0.4-0.7-0.6-1.6-0.6-2.5c0-0.9,0.2-1.8,0.6-2.5c0.4-0.7,1-1.3,1.7-1.7
			s1.5-0.6,2.4-0.6s1.7,0.2,2.4,0.6s1.3,0.9,1.7,1.6c0.4,0.7,0.6,1.5,0.6,2.5c0,0.9-0.2,1.8-0.6,2.5c-0.4,0.7-1,1.3-1.7,1.7
			c-0.7,0.4-1.5,0.6-2.4,0.6C119.4,38.3,118.6,38.1,117.9,37.7z M121.8,36.6c0.5-0.3,0.9-0.6,1.2-1.2c0.3-0.5,0.4-1.1,0.4-1.9
			c0-0.7-0.1-1.4-0.4-1.9c-0.3-0.5-0.7-0.9-1.1-1.1c-0.5-0.3-1-0.4-1.5-0.4c-0.6,0-1.1,0.1-1.5,0.4c-0.5,0.3-0.8,0.6-1.1,1.1
			c-0.3,0.5-0.4,1.1-0.4,1.9c0,0.7,0.1,1.4,0.4,1.9c0.3,0.5,0.6,0.9,1.1,1.1c0.5,0.3,1,0.4,1.5,0.4S121.3,36.8,121.8,36.6z"/>
		<path class="st0" d="M130.7,30.3h-1.9v7.9h-1.5v-7.9H126V29h1.2v-0.7c0-1,0.3-1.8,0.8-2.2c0.5-0.5,1.4-0.7,2.5-0.7v1.3
			c-0.7,0-1.1,0.1-1.4,0.4c-0.3,0.3-0.4,0.7-0.4,1.3V29h1.9V30.3z"/>
		<path class="st0" d="M143.8,27.2c0.9,0.5,1.6,1.2,2.1,2c0.5,0.9,0.7,1.9,0.7,3.1c0,1.2-0.2,2.2-0.7,3.1c-0.5,0.9-1.2,1.5-2.1,2
			c-0.9,0.5-2,0.7-3.3,0.7h-3.6V26.5h3.6C141.8,26.5,142.9,26.7,143.8,27.2z M144,35.7c0.8-0.8,1.2-1.9,1.2-3.4
			c0-1.4-0.4-2.6-1.2-3.4c-0.8-0.8-1.9-1.2-3.4-1.2h-2.1v9.2h2.1C142,36.9,143.2,36.5,144,35.7z"/>
		<path class="st0" d="M148.8,27.2c-0.2-0.2-0.3-0.4-0.3-0.7c0-0.3,0.1-0.5,0.3-0.7c0.2-0.2,0.4-0.3,0.7-0.3c0.3,0,0.5,0.1,0.7,0.3
			c0.2,0.2,0.3,0.4,0.3,0.7c0,0.3-0.1,0.5-0.3,0.7c-0.2,0.2-0.4,0.3-0.7,0.3C149.2,27.5,149,27.4,148.8,27.2z M150.2,29v9.2h-1.5V29
			H150.2z"/>
		<path class="st0" d="M158.7,29.4c0.6,0.3,1,0.8,1.3,1.3V29h1.5v9.4c0,0.8-0.2,1.6-0.5,2.2c-0.4,0.7-0.9,1.2-1.5,1.5
			c-0.7,0.4-1.4,0.6-2.3,0.6c-1.2,0-2.2-0.3-3-0.9s-1.3-1.3-1.4-2.3h1.5c0.2,0.6,0.5,1,1,1.3c0.5,0.3,1.2,0.5,1.9,0.5
			c0.8,0,1.5-0.3,2-0.8c0.5-0.5,0.8-1.3,0.8-2.2v-1.9c-0.3,0.5-0.7,1-1.3,1.3c-0.6,0.4-1.3,0.5-2.1,0.5c-0.8,0-1.6-0.2-2.2-0.6
			c-0.7-0.4-1.2-1-1.6-1.7c-0.4-0.7-0.6-1.5-0.6-2.5c0-0.9,0.2-1.8,0.6-2.5c0.4-0.7,0.9-1.3,1.6-1.6c0.7-0.4,1.4-0.6,2.2-0.6
			C157.4,28.8,158.1,29,158.7,29.4z M159.6,31.8c-0.3-0.5-0.7-0.9-1.1-1.2c-0.5-0.3-1-0.4-1.6-0.4s-1.1,0.1-1.6,0.4
			c-0.5,0.3-0.8,0.7-1.1,1.2c-0.3,0.5-0.4,1.1-0.4,1.8c0,0.7,0.1,1.3,0.4,1.8c0.3,0.5,0.7,0.9,1.1,1.2c0.5,0.3,1,0.4,1.6,0.4
			s1.1-0.1,1.6-0.4c0.5-0.3,0.8-0.7,1.1-1.2c0.3-0.5,0.4-1.1,0.4-1.8C160,32.9,159.9,32.3,159.6,31.8z"/>
		<path class="st0" d="M164.2,27.2c-0.2-0.2-0.3-0.4-0.3-0.7c0-0.3,0.1-0.5,0.3-0.7c0.2-0.2,0.4-0.3,0.7-0.3c0.3,0,0.5,0.1,0.7,0.3
			c0.2,0.2,0.3,0.4,0.3,0.7c0,0.3-0.1,0.5-0.3,0.7c-0.2,0.2-0.4,0.3-0.7,0.3C164.6,27.5,164.4,27.4,164.2,27.2z M165.6,29v9.2h-1.5
			V29H165.6z"/>
		<path class="st0" d="M170.1,30.3v5.4c0,0.4,0.1,0.8,0.3,0.9c0.2,0.2,0.5,0.3,1,0.3h1.1v1.3h-1.4c-0.8,0-1.5-0.2-1.9-0.6
			c-0.4-0.4-0.6-1-0.6-1.9v-5.4h-1.2V29h1.2v-2.3h1.5V29h2.4v1.3H170.1z"/>
		<path class="st0" d="M174.3,31.1c0.4-0.7,0.9-1.3,1.6-1.6c0.7-0.4,1.4-0.6,2.2-0.6c0.8,0,1.5,0.2,2.1,0.5c0.6,0.3,1,0.8,1.3,1.3
			V29h1.5v9.2h-1.5v-1.7c-0.3,0.5-0.7,1-1.3,1.3c-0.6,0.4-1.3,0.5-2.1,0.5c-0.8,0-1.5-0.2-2.2-0.6c-0.7-0.4-1.2-1-1.6-1.7
			c-0.4-0.7-0.6-1.5-0.6-2.5C173.7,32.6,173.9,31.8,174.3,31.1z M181.1,31.8c-0.3-0.5-0.7-0.9-1.1-1.2c-0.5-0.3-1-0.4-1.6-0.4
			s-1.1,0.1-1.6,0.4c-0.5,0.3-0.8,0.7-1.1,1.2c-0.3,0.5-0.4,1.1-0.4,1.8c0,0.7,0.1,1.3,0.4,1.8c0.3,0.5,0.7,0.9,1.1,1.2
			c0.5,0.3,1,0.4,1.6,0.4s1.1-0.1,1.6-0.4c0.5-0.3,0.8-0.7,1.1-1.2c0.3-0.5,0.4-1.1,0.4-1.8C181.5,32.9,181.4,32.3,181.1,31.8z"/>
		<path class="st0" d="M187.1,25.8v12.4h-1.5V25.8H187.1z"/>
		<path class="st0" d="M201.1,35.6H196l-0.9,2.6h-1.6l4.2-11.6h1.8l4.2,11.6H202L201.1,35.6z M200.6,34.3l-2.1-5.9l-2.1,5.9H200.6z"
			/>
		<path class="st0" d="M209.2,30.3h-1.9v7.9h-1.5v-7.9h-1.2V29h1.2v-0.7c0-1,0.3-1.8,0.8-2.2c0.5-0.5,1.4-0.7,2.5-0.7v1.3
			c-0.7,0-1.1,0.1-1.4,0.4c-0.3,0.3-0.4,0.7-0.4,1.3V29h1.9V30.3z"/>
		<path class="st0" d="M214.7,30.3h-1.9v7.9h-1.5v-7.9H210V29h1.2v-0.7c0-1,0.3-1.8,0.8-2.2c0.5-0.5,1.4-0.7,2.5-0.7v1.3
			c-0.7,0-1.1,0.1-1.4,0.4c-0.3,0.3-0.4,0.7-0.4,1.3V29h1.9V30.3z"/>
		<path class="st0" d="M216.4,31.1c0.4-0.7,0.9-1.3,1.6-1.6c0.7-0.4,1.4-0.6,2.2-0.6c0.8,0,1.5,0.2,2.1,0.5c0.6,0.3,1,0.8,1.3,1.3
			V29h1.5v9.2h-1.5v-1.7c-0.3,0.5-0.7,1-1.3,1.3c-0.6,0.4-1.3,0.5-2.1,0.5c-0.8,0-1.5-0.2-2.2-0.6c-0.7-0.4-1.2-1-1.6-1.7
			c-0.4-0.7-0.6-1.5-0.6-2.5C215.9,32.6,216.1,31.8,216.4,31.1z M223.2,31.8c-0.3-0.5-0.7-0.9-1.1-1.2c-0.5-0.3-1-0.4-1.6-0.4
			s-1.1,0.1-1.6,0.4c-0.5,0.3-0.8,0.7-1.1,1.2c-0.3,0.5-0.4,1.1-0.4,1.8c0,0.7,0.1,1.3,0.4,1.8c0.3,0.5,0.7,0.9,1.1,1.2
			c0.5,0.3,1,0.4,1.6,0.4s1.1-0.1,1.6-0.4c0.5-0.3,0.8-0.7,1.1-1.2c0.3-0.5,0.4-1.1,0.4-1.8C223.6,32.9,223.5,32.3,223.2,31.8z"/>
		<path class="st0" d="M227.8,27.2c-0.2-0.2-0.3-0.4-0.3-0.7c0-0.3,0.1-0.5,0.3-0.7c0.2-0.2,0.4-0.3,0.7-0.3c0.3,0,0.5,0.1,0.7,0.3
			c0.2,0.2,0.3,0.4,0.3,0.7c0,0.3-0.1,0.5-0.3,0.7c-0.2,0.2-0.4,0.3-0.7,0.3C228.2,27.5,228,27.4,227.8,27.2z M229.3,29v9.2h-1.5V29
			H229.3z"/>
		<path class="st0" d="M234.5,29.3c0.5-0.3,1.1-0.4,1.8-0.4v1.6h-0.4c-1.7,0-2.6,0.9-2.6,2.8v5h-1.5V29h1.5v1.5
			C233.6,30,234,29.6,234.5,29.3z"/>
		<path class="st0" d="M239.4,37.9c-0.6-0.2-1-0.6-1.3-1c-0.3-0.4-0.5-0.9-0.5-1.5h1.6c0,0.5,0.3,0.8,0.6,1.1
			c0.4,0.3,0.9,0.4,1.5,0.4c0.6,0,1-0.1,1.4-0.4c0.3-0.3,0.5-0.6,0.5-1c0-0.4-0.2-0.7-0.5-0.9c-0.4-0.2-0.9-0.4-1.7-0.6
			c-0.7-0.2-1.2-0.4-1.7-0.5c-0.4-0.2-0.8-0.5-1.1-0.8c-0.3-0.4-0.5-0.8-0.5-1.4c0-0.5,0.1-0.9,0.4-1.3c0.3-0.4,0.7-0.7,1.2-0.9
			c0.5-0.2,1.1-0.3,1.8-0.3c1,0,1.8,0.3,2.5,0.8c0.6,0.5,1,1.2,1,2.1h-1.5c0-0.5-0.2-0.9-0.6-1.2c-0.4-0.3-0.8-0.4-1.4-0.4
			c-0.5,0-1,0.1-1.3,0.4c-0.3,0.2-0.5,0.5-0.5,0.9c0,0.3,0.1,0.5,0.3,0.7c0.2,0.2,0.4,0.4,0.7,0.5c0.3,0.1,0.7,0.2,1.2,0.4
			c0.7,0.2,1.2,0.4,1.6,0.5c0.4,0.2,0.8,0.4,1.1,0.8c0.3,0.3,0.4,0.8,0.5,1.4c0,0.5-0.1,1-0.4,1.4c-0.3,0.4-0.7,0.7-1.2,0.9
			c-0.5,0.2-1.1,0.3-1.7,0.3C240.6,38.3,240,38.2,239.4,37.9z"/>
	</g>
	<g>
		<path class="st0" d="M6.3,22.2c0-5.2,4.2-9.4,9.4-9.4l3.6,0V6.5c-2.9,0-3.7-0.2-6.7,0.4c0,0-0.1,0-0.1,0C5.4,8.3,0,14.7,0,22.2
			C0,30.9,7.1,38,15.7,38h15.9V6.5h-6.1v25.2l-9.8,0C10.5,31.7,6.3,27.4,6.3,22.2z"/>
		<path class="st1" d="M12.3,22.4c0,2,1.5,3.4,3.5,3.4h3.5v-7H16C13.9,18.7,12.3,20.4,12.3,22.4z"/>
		<rect x="35.1" y="17.9" class="st0" width="7.1" height="20.2"/>
		<polygon class="st1" points="35.1,6.5 41.2,6.5 41.2,8.2 36.9,8.2 36.9,11.7 41.2,11.7 41.2,13.5 35.1,13.5 		"/>
		<polygon class="st0" points="43.9,9.1 37.7,9.1 37.7,10.8 42.1,10.8 42.1,14.3 37.7,14.3 37.7,16.1 43.9,16.1 		"/>
	</g>
</g>
</svg>
