<?xml version="1.0" encoding="utf-8"?>
<!-- Generator: Adobe Illustrator 26.3.1, SVG Export Plug-In . SVG Version: 6.00 Build 0)  -->
<svg version="1.1" id="圖層_1" xmlns="http://www.w3.org/2000/svg" xmlns:xlink="http://www.w3.org/1999/xlink" x="0px" y="0px"
	 viewBox="0 0 519.9 61" style="enable-background:new 0 0 519.9 61;" xml:space="preserve">
<style type="text/css">
	.st0{fill:#1F333D;}
	.st1{fill:#B3C33E;}
</style>
<g id="adi_logo-H-standard-CN_x2B_EN">
	<g>
		<path class="st0" d="M11.2,29.1c0-9.2,7.5-16.8,16.8-16.8l6.4,0V1.1c-5.1,0-6.6-0.3-11.9,0.6c-0.1,0-0.1,0-0.2,0
			C9.6,4.4,0,15.7,0,29.1c0,15.4,12.6,28.1,28,28.1h28.2V1.1H45.3V46l-17.3-0.1C18.7,45.9,11.2,38.4,11.2,29.1z"/>
		<path class="st1" d="M21.9,29.5c0,3.6,2.7,6,6.3,6h6.2V22.9h-6C24.8,22.9,21.9,25.9,21.9,29.5z"/>
		<rect x="62.3" y="21.4" class="st0" width="12.6" height="35.9"/>
		<polygon class="st1" points="62.5,1.1 73.3,1.1 73.3,4.3 65.5,4.3 65.5,10.5 73.3,10.5 73.3,13.6 62.5,13.6 		"/>
		<polygon class="st0" points="78,5.7 67.1,5.7 67.1,8.9 74.9,8.9 74.9,15.1 67.1,15.1 67.1,18.2 78,18.2 		"/>
	</g>
	<g>
		<path class="st0" d="M93.2,2.6V0.3H96v2.3h6.8v4.8h1.9V10h-1.9v4.8H96V17h7.4v6.9h-8c-0.5,0.9-0.9,1.6-1.3,2.3h9.5v2
			c-1.3,2.1-3.1,4-5.4,5.6c2.1,0.9,4.3,1.9,6.5,3.1L103,39c-2.5-1.4-4.9-2.6-7.4-3.6c-2.8,1.5-6.1,2.9-9.9,4l-1.7-2.2
			c3.3-0.9,6.1-1.9,8.5-3c-1.8-0.7-3.6-1.3-5.3-1.8c0.9-1.3,1.7-2.5,2.4-3.7h-5.5v-2.4h6.9c0.4-0.8,0.9-1.6,1.3-2.3h-6.6V17h7.4
			v-2.2h-6.8V10h-1.9V7.4h1.9V2.6H93.2z M93.2,19h-4.7v2.7h4.7V19z M93.2,7.7V4.9h-4.1v2.8H93.2z M93.2,9.7h-4.1v2.9h4.1V9.7z
			 M100.2,28.6h-7.5c-0.6,0.9-1.1,1.8-1.6,2.6c1.4,0.4,2.9,0.9,4.3,1.4C97.4,31.4,99,30.1,100.2,28.6z M100.2,7.7V4.9H96v2.8H100.2z
			 M100.2,9.7H96v2.9h4.2V9.7z M100.8,19H96v2.7h4.8V19z M108,17c-0.7,1.4-1.4,2.7-2,3.8l-1.9-2.4c2.5-4.6,4.2-10.7,5.1-18.4l3,0.6
			c-0.3,2.2-0.6,4.3-1,6.3h11.2v2.9h-2.9c-0.2,7.7-1.7,14.1-4.3,19.3c2,3.1,4.7,5.7,8,7.9l-1.8,2.4c-3.2-2.1-5.7-4.6-7.8-7.5
			c-2,2.9-4.3,5.5-7.1,7.5l-1.7-2.7c2.9-2,5.2-4.5,7.1-7.5C109.8,25.6,108.5,21.6,108,17z M108.1,16.8l2.5-0.8
			c0.4,3.7,1.4,7.1,2.8,10.1c2-4.5,3.1-10,3.3-16.3h-6.2C109.7,12.4,109,14.7,108.1,16.8z"/>
		<path class="st0" d="M139.1,1.4c-1.1,3.3-2.5,6.4-4.1,9.4v28.7h-3.1v-24c-1.4,1.9-2.9,3.7-4.6,5.5l-1-3.3
			c4.5-5.1,7.8-10.9,9.9-17.5L139.1,1.4z M152.8,34.4c2.2-5.7,4-12.9,5.7-21.5l2.9,0.8c-1.5,7.8-3.3,14.7-5.5,20.7h9.7v3h-27.5v-3
			H152.8z M150.3,7.2c-0.6-2.3-1.3-4.3-2.1-6.2l3.2-0.6c0.7,2,1.3,4.2,1.9,6.8h11.1v2.9h-25.6V7.2H150.3z M148.6,32.2l-2.9,0.8
			c-1.2-6.5-2.6-12.7-4.4-18.8l2.8-0.9C145.8,18.9,147.2,25.2,148.6,32.2z"/>
		<path class="st0" d="M178.9,9.4c2.1-1.4,3.9-3,5.2-4.7h-11.7V2h15.2v2.2c-1.7,3.1-4.3,5.8-7.9,8h6.2V22h-9.5l-0.8,4.6h10.5
			c0,5-0.2,8.3-0.6,9.9c-0.5,1.7-2.5,2.6-5.9,2.7c-1.5,0-3.1-0.1-4.7-0.2l-0.7-2.7c1.6,0.1,3.2,0.2,4.8,0.2c2.2,0,3.5-0.5,3.9-1.4
			c0.3-0.9,0.5-2.9,0.5-5.9h-10.7l1.4-9.9h9.2v-4.5h-8.9c-1.1,0.4-2.2,0.9-3.4,1.2l-1.8-2.4c2.8-0.9,5.3-1.8,7.4-2.9
			c-1.4-1.1-2.9-2.3-4.8-3.5l2.3-1.4C176,7.1,177.7,8.3,178.9,9.4z M201.6,1.7c-1,1.1-2,2.1-3,2.9c-0.7,0.5-1.6,1.1-2.6,1.6
			c0.8,0.7,1.7,1.3,2.6,1.9c1.1-0.5,2-1.1,2.9-1.8c1.1-0.8,2-1.7,2.9-2.9l2.2,1.3c-1.1,1.3-2.1,2.4-3.2,3.3c-0.7,0.5-1.4,1-2.3,1.5
			c2.1,1.2,4.5,2.3,7.1,3.2l-2,2.4c-1.7-0.7-3.2-1.4-4.6-2.1v4.1c0,0.9,0.5,1.3,1.6,1.3h2.4V21h-3.2c-2.3,0-3.4-1.1-3.4-3.2v-3h-6.2
			c0,1.6-0.3,2.9-0.8,4c-0.6,1.1-1.6,2.2-3.1,3.2l-2.1-1.9c1.4-1.1,2.3-2.1,2.8-3.1c0.3-1,0.6-2.6,0.6-4.7h9.9
			c-4.9-2.8-8.6-6-10.9-9.8l2.4-1.4c0.7,1.1,1.6,2.2,2.6,3.2c0.9-0.4,1.8-0.9,2.6-1.5c1-0.7,1.9-1.5,2.7-2.5L201.6,1.7z M203.7,23.3
			v2.6c-0.9,2.6-2.3,4.8-4.1,6.8c2.6,1.5,5.1,3.1,7.2,4.6l-2.1,2.2c-2-1.6-4.4-3.2-7.1-4.9c-2.4,2-5.3,3.6-8.8,4.8l-1.1-2.7
			c2.8-0.9,5.2-2.2,7.2-3.7c-1.9-1.1-4-2.2-6.1-3.3l1.8-1.8c2.3,1.1,4.4,2.2,6.3,3.3c1.5-1.5,2.8-3.3,3.6-5.2h-11.8v-2.7H203.7z"/>
		<path class="st0" d="M213.9,39.3l-2.3-2c2.8-5.6,4.2-12.7,4.2-21.5V2h32v10.1H219v4.6h7.8v-3.4h3v3.4h8.5v-3.4h3v3.4h7.2v2.7h-7.2
			v4.4h8.5v2.8h-23.2V36c2.6-0.6,4.9-1.4,6.9-2.2l0.6,2.9c-3.1,1-6.8,2-11.1,2.8l-0.9-2.7c1-0.4,1.6-1.1,1.6-2.1v-8H218
			C217.1,31.3,215.8,35.5,213.9,39.3z M218.4,23.8h8.3v-4.4h-7.9C218.8,20.9,218.6,22.4,218.4,23.8z M219,4.8v4.5h25.8V4.8H219z
			 M238.2,23.8v-4.4h-8.5v4.4H238.2z M247.6,28.8c-1.7,2.3-3.5,4.1-5.5,5.4c2.6,1.4,5.5,2.3,8.6,2.6l-0.7,2.8
			c-7.3-0.8-13.3-4.3-17.9-10.6l2.2-1.5c1.6,2,3.3,3.7,5.2,5.1c2.1-1.2,4.1-3.2,6-5.9L247.6,28.8z"/>
		<path class="st0" d="M263.8,4.6c-0.5-1.4-0.9-2.8-1.4-4l3.1-0.5c0.4,1.3,0.9,2.8,1.3,4.5h8.6v2.9h-2c-0.9,3.2-1.8,6.2-2.9,8.7h5.3
			v2.9h-21.1v-2.9h5.5c-0.7-3.1-1.5-6-2.5-8.7h-2.2V4.6H263.8z M273.8,39.3h-3V37h-10.6v2.3h-3v-16h16.6V39.3z M270.8,34.1v-7.9
			h-10.6v7.9H270.8z M270.4,7.5h-9.8c0.9,2.5,1.7,5.4,2.4,8.7h4.6C268.7,13.5,269.6,10.6,270.4,7.5z M292.2,2v2.3
			c-1.4,4.5-2.9,8.7-4.6,12.5c3.4,4.2,5.1,7.6,5.1,10.3c0,2.5-0.6,4.2-1.7,5.2c-1.2,1-3.6,1.5-7.2,1.5l-0.9-3.2
			c1.1,0.1,2.1,0.2,2.9,0.2c1.6-0.1,2.6-0.3,3.1-0.8c0.4-0.5,0.7-1.4,0.7-2.9c0-2.6-1.8-6-5.4-10.3c1.5-3.4,3.1-7.4,4.5-12h-7.8
			v34.4h-3V2H292.2z"/>
		<path class="st0" d="M320.3,2.6V0.3h2.8v2.3h6.8v4.8h1.9V10H330v4.8h-6.8V17h7.4v6.9h-8c-0.5,0.9-0.9,1.6-1.3,2.3h9.5v2
			c-1.3,2.1-3.1,4-5.4,5.6c2.1,0.9,4.3,1.9,6.5,3.1l-1.7,2.2c-2.5-1.4-4.9-2.6-7.4-3.6c-2.8,1.5-6.1,2.9-9.9,4l-1.7-2.2
			c3.3-0.9,6.1-1.9,8.5-3c-1.8-0.7-3.6-1.3-5.3-1.8c0.9-1.3,1.7-2.5,2.4-3.7h-5.5v-2.4h6.9c0.4-0.8,0.9-1.6,1.3-2.3H313V17h7.4v-2.2
			h-6.8V10h-1.9V7.4h1.9V2.6H320.3z M320.3,19h-4.7v2.7h4.7V19z M320.3,7.7V4.9h-4.1v2.8H320.3z M320.3,9.7h-4.1v2.9h4.1V9.7z
			 M327.4,28.6h-7.5c-0.6,0.9-1.1,1.8-1.6,2.6c1.4,0.4,2.9,0.9,4.3,1.4C324.6,31.4,326.2,30.1,327.4,28.6z M327.3,7.7V4.9h-4.2v2.8
			H327.3z M327.3,9.7h-4.2v2.9h4.2V9.7z M327.9,19h-4.8v2.7h4.8V19z M335.1,17c-0.7,1.4-1.4,2.7-2,3.8l-1.9-2.4
			c2.5-4.6,4.2-10.7,5.1-18.4l3,0.6c-0.3,2.2-0.6,4.3-1,6.3h11.2v2.9h-2.9c-0.2,7.7-1.7,14.1-4.3,19.3c2,3.1,4.7,5.7,8,7.9l-1.8,2.4
			c-3.2-2.1-5.7-4.6-7.8-7.5c-2,2.9-4.3,5.5-7.1,7.5l-1.7-2.7c2.9-2,5.2-4.5,7.1-7.5C337,25.6,335.7,21.6,335.1,17z M335.2,16.8
			l2.5-0.8c0.4,3.7,1.4,7.1,2.8,10.1c2-4.5,3.1-10,3.3-16.3h-6.2C336.9,12.4,336.1,14.7,335.2,16.8z"/>
		<path class="st0" d="M366.2,1.4c-1.1,3.3-2.5,6.4-4.1,9.4v28.7H359v-24c-1.4,1.9-2.9,3.7-4.6,5.5l-1-3.3
			c4.5-5.1,7.8-10.9,9.9-17.5L366.2,1.4z M379.9,34.4c2.2-5.7,4-12.9,5.7-21.5l2.9,0.8c-1.5,7.8-3.3,14.7-5.5,20.7h9.7v3h-27.5v-3
			H379.9z M377.5,7.2c-0.6-2.3-1.3-4.3-2.1-6.2l3.2-0.6c0.7,2,1.3,4.2,1.9,6.8h11.1v2.9H366V7.2H377.5z M375.7,32.2l-2.9,0.8
			c-1.2-6.5-2.6-12.7-4.4-18.8l2.8-0.9C372.9,18.9,374.4,25.2,375.7,32.2z"/>
		<path class="st0" d="M417.7,9.2c3-0.9,5.7-2,8.1-3.3h-27.1V3.3h16.6c-0.4-1-0.9-2-1.4-2.8l3.1-0.5c0.5,0.9,1,2,1.5,3.3H433v2.6
			h-6.8l1.8,1.2c-2.2,1.2-4.4,2.2-6.8,3.2c3.3,1,6.4,2,9.1,2.9l-1.8,1.8h4.7v2.6h-30.3v4.8c-0.2,7.1-1.5,12.8-4.2,17.1l-2.3-2
			c2.2-3.6,3.4-8.6,3.4-15V15h28.4c-3-1.2-6.5-2.4-10.6-3.6c-4.4,1.4-9.2,2.4-14.4,3l-1.4-2c4.4-0.5,8.4-1.2,12-2.1
			c-3-0.9-6.1-1.7-9.5-2.5l1.7-1.6C410.2,7.2,414.1,8.2,417.7,9.2z M405.2,29l-2.1-1.9c2.7-2,4.8-4.8,6.2-8.3l2.4,1
			c-0.4,0.9-0.8,1.7-1.1,2.5h7.5v-3.5h3v3.5h11.2V25h-11.2v4h10.2v2.7h-10.2v4h13.2v2.6h-30.7v-2.6h14.5v-4H408V29h10.1v-4h-9.2
			C407.8,26.6,406.6,27.9,405.2,29z"/>
		<path class="st0" d="M456,0.3v6.5h4.5V0.3h3v6.5h3.6c1.3-1.8,2.3-3.7,3.2-5.8l2.8,1.1c-1,1.8-2,3.4-2.9,4.7h6.8v2.7h-37.1V6.8h6.6
			c-0.7-1.7-1.6-3.2-2.6-4.7l2.9-1.1c1,1.6,1.9,3.5,2.7,5.8h3.7V0.3H456z M451,14.2c-0.6-1.2-1.4-2.4-2.2-3.4l2.9-1.1
			c0.9,1.3,1.8,2.8,2.6,4.5h8.2c1-1.4,2-2.9,2.7-4.4l2.9,1c-0.7,1.3-1.5,2.4-2.3,3.4h9.4v2.7H460V20h13v2.6h-13v3.2h17v2.7h-17v11
			h-3.1v-11h-17v-2.7h17v-3.2h-13.1V20h13.1v-3.2h-15.2v-2.7H451z M452.3,31.8c-2.6,2.6-5.9,5-9.8,7l-1.9-2.5c3.8-1.8,7-3.9,9.6-6.4
			L452.3,31.8z M476,36.6l-2.2,2.2c-2.2-2.1-5.2-4.4-9-6.9l2-1.9C470.5,32.2,473.6,34.4,476,36.6z"/>
		<path class="st0" d="M516,1.9V10h-14.9v2.8h9.1v2.5h-9.1v3.1h5.5c3.3-2,6.2-4.4,8.6-7.2l2.5,1.3c-2,2.1-4.3,4.1-6.9,5.8h9V21
			h-13.4c-2.2,1.1-4.5,2.2-7,3.1h15v15.6h-3v-1.9h-18.1v1.9h-3V26.8c-2.1,0.5-4.3,0.9-6.6,1.4l-1.7-2.6c7.4-0.8,13.8-2.3,19.3-4.7
			h-19.1v-2.6h15.8v-3.1H487v-2.5h11.2V10h-12.3V1.9H516z M495.1,4.2h-6.3v3.5h6.3V4.2z M511.5,26.5h-18.1v3.3h18.1V26.5z
			 M493.4,35.3h18.1v-3.2h-18.1V35.3z M504,4.2h-6.1v3.5h6.1V4.2z M513,4.2h-6.3v3.5h6.3V4.2z"/>
	</g>
	<g>
		<path class="st0" d="M89.2,54.9h-4.4L84,57.1h-1.4l3.6-10h1.5l3.6,10H90L89.2,54.9z M88.8,53.8L87,48.8l-1.8,5.1H88.8z"/>
		<path class="st0" d="M93,51c0.3-0.6,0.8-1.1,1.3-1.4c0.6-0.3,1.2-0.5,1.9-0.5c0.6,0,1.2,0.1,1.7,0.4c0.5,0.3,0.9,0.7,1.2,1.1v-4.2
			h1.3v10.7h-1.3v-1.5c-0.3,0.5-0.6,0.9-1.2,1.2c-0.5,0.3-1.1,0.5-1.8,0.5c-0.7,0-1.3-0.2-1.9-0.5c-0.6-0.3-1-0.8-1.3-1.5
			c-0.3-0.6-0.5-1.3-0.5-2.1C92.5,52.3,92.7,51.6,93,51z M98.8,51.6c-0.2-0.4-0.6-0.8-1-1c-0.4-0.2-0.9-0.4-1.3-0.4
			c-0.5,0-0.9,0.1-1.3,0.3s-0.7,0.6-1,1c-0.2,0.4-0.4,1-0.4,1.6c0,0.6,0.1,1.1,0.4,1.6c0.2,0.4,0.6,0.8,1,1c0.4,0.2,0.9,0.4,1.3,0.4
			c0.5,0,0.9-0.1,1.3-0.4c0.4-0.2,0.7-0.6,1-1c0.2-0.4,0.4-1,0.4-1.6C99.2,52.6,99.1,52,98.8,51.6z"/>
		<path class="st0" d="M113.9,49.5c0.5,0.3,0.9,0.6,1.1,1.1c0.3,0.5,0.4,1.1,0.4,1.9v4.7h-1.3v-4.5c0-0.8-0.2-1.4-0.6-1.8
			c-0.4-0.4-0.9-0.6-1.6-0.6c-0.7,0-1.2,0.2-1.6,0.7c-0.4,0.4-0.6,1.1-0.6,1.9v4.4h-1.3v-4.5c0-0.8-0.2-1.4-0.6-1.8
			c-0.4-0.4-0.9-0.6-1.6-0.6c-0.7,0-1.2,0.2-1.6,0.7c-0.4,0.4-0.6,1.1-0.6,1.9v4.4h-1.3v-7.9h1.3v1.1c0.3-0.4,0.6-0.7,1-1
			c0.4-0.2,0.9-0.3,1.4-0.3c0.7,0,1.2,0.1,1.8,0.4c0.5,0.3,0.9,0.7,1.1,1.3c0.2-0.6,0.6-1,1.1-1.3c0.5-0.3,1.1-0.5,1.7-0.5
			C112.8,49.1,113.4,49.2,113.9,49.5z"/>
		<path class="st0" d="M117.6,47.7c-0.2-0.2-0.3-0.4-0.3-0.6c0-0.2,0.1-0.5,0.3-0.6s0.4-0.3,0.6-0.3c0.2,0,0.4,0.1,0.6,0.3
			c0.2,0.2,0.3,0.4,0.3,0.6c0,0.2-0.1,0.5-0.3,0.6c-0.2,0.2-0.4,0.3-0.6,0.3C118,47.9,117.8,47.9,117.6,47.7z M118.9,49.2v7.9h-1.3
			v-7.9H118.9z"/>
		<path class="st0" d="M127.3,50c0.6,0.6,0.9,1.4,0.9,2.5v4.7h-1.3v-4.5c0-0.8-0.2-1.4-0.6-1.8c-0.4-0.4-0.9-0.6-1.6-0.6
			c-0.7,0-1.2,0.2-1.6,0.6c-0.4,0.4-0.6,1.1-0.6,1.9v4.4h-1.3v-7.9h1.3v1.1c0.3-0.4,0.6-0.7,1.1-0.9c0.4-0.2,0.9-0.3,1.5-0.3
			C125.9,49.1,126.7,49.4,127.3,50z"/>
		<path class="st0" d="M130.4,47.7c-0.2-0.2-0.3-0.4-0.3-0.6c0-0.2,0.1-0.5,0.3-0.6s0.4-0.3,0.6-0.3c0.2,0,0.4,0.1,0.6,0.3
			c0.2,0.2,0.3,0.4,0.3,0.6c0,0.2-0.1,0.5-0.3,0.6c-0.2,0.2-0.4,0.3-0.6,0.3C130.8,47.9,130.6,47.9,130.4,47.7z M131.6,49.2v7.9
			h-1.3v-7.9H131.6z"/>
		<path class="st0" d="M135,56.9c-0.5-0.2-0.9-0.5-1.1-0.9c-0.3-0.4-0.4-0.8-0.5-1.3h1.4c0,0.4,0.2,0.7,0.6,1
			c0.3,0.2,0.8,0.4,1.3,0.4c0.5,0,0.9-0.1,1.2-0.3c0.3-0.2,0.4-0.5,0.4-0.8c0-0.3-0.2-0.6-0.5-0.8c-0.3-0.2-0.8-0.3-1.4-0.5
			c-0.6-0.2-1.1-0.3-1.4-0.5c-0.4-0.2-0.7-0.4-1-0.7c-0.3-0.3-0.4-0.7-0.4-1.2c0-0.4,0.1-0.8,0.4-1.1c0.2-0.3,0.6-0.6,1-0.8
			c0.4-0.2,0.9-0.3,1.5-0.3c0.9,0,1.6,0.2,2.1,0.7c0.5,0.4,0.8,1,0.9,1.8h-1.3c0-0.4-0.2-0.7-0.5-1c-0.3-0.2-0.7-0.4-1.2-0.4
			c-0.5,0-0.8,0.1-1.1,0.3c-0.3,0.2-0.4,0.5-0.4,0.8c0,0.3,0.1,0.5,0.3,0.6c0.2,0.2,0.4,0.3,0.6,0.4c0.3,0.1,0.6,0.2,1.1,0.3
			c0.6,0.2,1,0.3,1.4,0.5s0.7,0.4,0.9,0.7c0.3,0.3,0.4,0.7,0.4,1.2c0,0.4-0.1,0.8-0.4,1.2c-0.2,0.3-0.6,0.6-1,0.8s-0.9,0.3-1.5,0.3
			C136.1,57.3,135.5,57.1,135,56.9z"/>
		<path class="st0" d="M143,50.3V55c0,0.4,0.1,0.7,0.2,0.8c0.2,0.2,0.4,0.2,0.9,0.2h1v1.1h-1.2c-0.7,0-1.3-0.2-1.6-0.5
			c-0.4-0.3-0.5-0.9-0.5-1.7v-4.7h-1v-1.1h1v-2h1.3v2h2.1v1.1H143z"/>
		<path class="st0" d="M148.9,49.5c0.4-0.2,0.9-0.4,1.6-0.4v1.4h-0.3c-1.5,0-2.2,0.8-2.2,2.4v4.3h-1.3v-7.9h1.3v1.3
			C148.2,50.1,148.5,49.7,148.9,49.5z"/>
		<path class="st0" d="M152,51c0.3-0.6,0.8-1.1,1.3-1.4c0.6-0.3,1.2-0.5,1.9-0.5c0.7,0,1.3,0.1,1.8,0.4c0.5,0.3,0.9,0.7,1.1,1.1
			v-1.4h1.3v7.9h-1.3v-1.5c-0.3,0.5-0.6,0.8-1.2,1.1c-0.5,0.3-1.1,0.5-1.8,0.5c-0.7,0-1.3-0.2-1.9-0.5c-0.6-0.3-1-0.8-1.3-1.5
			c-0.3-0.6-0.5-1.3-0.5-2.1C151.5,52.3,151.7,51.6,152,51z M157.9,51.6c-0.2-0.4-0.6-0.8-1-1c-0.4-0.2-0.9-0.4-1.3-0.4
			c-0.5,0-0.9,0.1-1.3,0.3s-0.7,0.6-1,1c-0.2,0.4-0.4,1-0.4,1.6c0,0.6,0.1,1.1,0.4,1.6c0.2,0.4,0.6,0.8,1,1c0.4,0.2,0.9,0.4,1.3,0.4
			c0.5,0,0.9-0.1,1.3-0.4c0.4-0.2,0.7-0.6,1-1c0.2-0.4,0.4-1,0.4-1.6C158.2,52.6,158.1,52,157.9,51.6z"/>
		<path class="st0" d="M163.4,50.3V55c0,0.4,0.1,0.7,0.2,0.8c0.2,0.2,0.4,0.2,0.9,0.2h1v1.1h-1.2c-0.7,0-1.3-0.2-1.6-0.5
			c-0.4-0.3-0.5-0.9-0.5-1.7v-4.7h-1v-1.1h1v-2h1.3v2h2.1v1.1H163.4z"/>
		<path class="st0" d="M167.1,47.7c-0.2-0.2-0.3-0.4-0.3-0.6c0-0.2,0.1-0.5,0.3-0.6s0.4-0.3,0.6-0.3c0.2,0,0.4,0.1,0.6,0.3
			c0.2,0.2,0.3,0.4,0.3,0.6c0,0.2-0.1,0.5-0.3,0.6c-0.2,0.2-0.4,0.3-0.6,0.3C167.4,47.9,167.2,47.9,167.1,47.7z M168.3,49.2v7.9H167
			v-7.9H168.3z"/>
		<path class="st0" d="M172,56.7c-0.6-0.3-1.1-0.8-1.4-1.4c-0.3-0.6-0.5-1.3-0.5-2.2c0-0.8,0.2-1.5,0.5-2.1c0.4-0.6,0.8-1.1,1.4-1.4
			c0.6-0.3,1.3-0.5,2-0.5c0.7,0,1.4,0.2,2,0.5c0.6,0.3,1.1,0.8,1.4,1.4c0.4,0.6,0.5,1.3,0.5,2.1c0,0.8-0.2,1.5-0.5,2.2
			c-0.4,0.6-0.8,1.1-1.5,1.4c-0.6,0.3-1.3,0.5-2,0.5C173.3,57.3,172.6,57.1,172,56.7z M175.3,55.8c0.4-0.2,0.7-0.6,1-1
			c0.3-0.4,0.4-1,0.4-1.6c0-0.6-0.1-1.2-0.4-1.6c-0.2-0.4-0.6-0.8-1-1c-0.4-0.2-0.8-0.3-1.3-0.3c-0.5,0-0.9,0.1-1.3,0.3
			c-0.4,0.2-0.7,0.5-1,1s-0.4,1-0.4,1.6c0,0.6,0.1,1.2,0.4,1.6c0.2,0.4,0.5,0.8,0.9,1c0.4,0.2,0.8,0.3,1.3,0.3S174.9,56,175.3,55.8z
			"/>
		<path class="st0" d="M186,50c0.6,0.6,0.9,1.4,0.9,2.5v4.7h-1.3v-4.5c0-0.8-0.2-1.4-0.6-1.8c-0.4-0.4-0.9-0.6-1.6-0.6
			c-0.7,0-1.2,0.2-1.6,0.6c-0.4,0.4-0.6,1.1-0.6,1.9v4.4h-1.3v-7.9h1.3v1.1c0.3-0.4,0.6-0.7,1.1-0.9c0.4-0.2,0.9-0.3,1.5-0.3
			C184.6,49.1,185.4,49.4,186,50z"/>
		<path class="st0" d="M196.1,50.3h-1.7v6.8h-1.3v-6.8h-1v-1.1h1v-0.6c0-0.9,0.2-1.5,0.7-1.9c0.5-0.4,1.2-0.6,2.2-0.6v1.1
			c-0.6,0-1,0.1-1.2,0.3c-0.2,0.2-0.4,0.6-0.4,1.1v0.6h1.7V50.3z"/>
		<path class="st0" d="M199,56.7c-0.6-0.3-1.1-0.8-1.4-1.4c-0.3-0.6-0.5-1.3-0.5-2.2c0-0.8,0.2-1.5,0.5-2.1c0.4-0.6,0.8-1.1,1.4-1.4
			c0.6-0.3,1.3-0.5,2-0.5c0.7,0,1.4,0.2,2,0.5c0.6,0.3,1.1,0.8,1.4,1.4c0.4,0.6,0.5,1.3,0.5,2.1c0,0.8-0.2,1.5-0.5,2.2
			c-0.4,0.6-0.8,1.1-1.5,1.4c-0.6,0.3-1.3,0.5-2,0.5C200.3,57.3,199.6,57.1,199,56.7z M202.4,55.8c0.4-0.2,0.7-0.6,1-1
			c0.3-0.4,0.4-1,0.4-1.6c0-0.6-0.1-1.2-0.4-1.6s-0.6-0.8-1-1c-0.4-0.2-0.8-0.3-1.3-0.3c-0.5,0-0.9,0.1-1.3,0.3
			c-0.4,0.2-0.7,0.5-1,1s-0.4,1-0.4,1.6c0,0.6,0.1,1.2,0.4,1.6c0.2,0.4,0.5,0.8,0.9,1c0.4,0.2,0.8,0.3,1.3,0.3S201.9,56,202.4,55.8z
			"/>
		<path class="st0" d="M209.1,49.5c0.4-0.2,0.9-0.4,1.6-0.4v1.4h-0.3c-1.5,0-2.2,0.8-2.2,2.4v4.3h-1.3v-7.9h1.3v1.3
			C208.4,50.1,208.7,49.7,209.1,49.5z"/>
		<path class="st0" d="M222,47.7c0.8,0.4,1.4,1,1.8,1.8c0.4,0.8,0.6,1.7,0.6,2.7c0,1-0.2,1.9-0.6,2.7c-0.4,0.8-1,1.3-1.8,1.7
			c-0.8,0.4-1.8,0.6-2.8,0.6H216v-10h3.1C220.3,47.1,221.2,47.3,222,47.7z M222.1,55c0.7-0.7,1-1.6,1-2.9c0-1.2-0.3-2.2-1-2.9
			c-0.7-0.7-1.7-1.1-3-1.1h-1.8V56h1.8C220.5,56,221.4,55.7,222.1,55z"/>
		<path class="st0" d="M226.7,47.7c-0.2-0.2-0.3-0.4-0.3-0.6c0-0.2,0.1-0.5,0.3-0.6s0.4-0.3,0.6-0.3c0.2,0,0.4,0.1,0.6,0.3
			c0.2,0.2,0.3,0.4,0.3,0.6c0,0.2-0.1,0.5-0.3,0.6c-0.2,0.2-0.4,0.3-0.6,0.3C227,47.9,226.8,47.9,226.7,47.7z M227.9,49.2v7.9h-1.3
			v-7.9H227.9z"/>
		<path class="st0" d="M235.6,49.5c0.5,0.3,0.9,0.7,1.1,1.1v-1.4h1.3v8.1c0,0.7-0.2,1.4-0.5,1.9c-0.3,0.6-0.7,1-1.3,1.3
			c-0.6,0.3-1.2,0.5-2,0.5c-1,0-1.9-0.2-2.6-0.7c-0.7-0.5-1.1-1.2-1.2-2h1.3c0.1,0.5,0.4,0.9,0.9,1.2c0.5,0.3,1,0.4,1.6,0.4
			c0.7,0,1.3-0.2,1.8-0.7c0.5-0.5,0.7-1.1,0.7-1.9v-1.7c-0.3,0.5-0.6,0.8-1.2,1.2c-0.5,0.3-1.1,0.5-1.8,0.5c-0.7,0-1.3-0.2-1.9-0.5
			c-0.6-0.3-1-0.8-1.3-1.5c-0.3-0.6-0.5-1.3-0.5-2.1c0-0.8,0.2-1.5,0.5-2.1c0.3-0.6,0.8-1.1,1.3-1.4c0.6-0.3,1.2-0.5,1.9-0.5
			C234.5,49.1,235.1,49.2,235.6,49.5z M236.4,51.6c-0.2-0.4-0.6-0.8-1-1c-0.4-0.2-0.9-0.4-1.3-0.4c-0.5,0-0.9,0.1-1.3,0.3
			s-0.7,0.6-1,1c-0.2,0.4-0.4,1-0.4,1.6c0,0.6,0.1,1.1,0.4,1.6c0.2,0.4,0.6,0.8,1,1c0.4,0.2,0.9,0.4,1.3,0.4c0.5,0,0.9-0.1,1.3-0.4
			c0.4-0.2,0.7-0.6,1-1c0.2-0.4,0.4-1,0.4-1.6C236.7,52.6,236.6,52,236.4,51.6z"/>
		<path class="st0" d="M240.7,47.7c-0.2-0.2-0.3-0.4-0.3-0.6c0-0.2,0.1-0.5,0.3-0.6s0.4-0.3,0.6-0.3c0.2,0,0.4,0.1,0.6,0.3
			s0.3,0.4,0.3,0.6c0,0.2-0.1,0.5-0.3,0.6s-0.4,0.3-0.6,0.3C241.1,47.9,240.9,47.9,240.7,47.7z M242,49.2v7.9h-1.3v-7.9H242z"/>
		<path class="st0" d="M246.2,50.3V55c0,0.4,0.1,0.7,0.2,0.8c0.2,0.2,0.4,0.2,0.9,0.2h1v1.1h-1.2c-0.7,0-1.3-0.2-1.6-0.5
			c-0.4-0.3-0.5-0.9-0.5-1.7v-4.7h-1v-1.1h1v-2h1.3v2h2.1v1.1H246.2z"/>
		<path class="st0" d="M250.2,51c0.3-0.6,0.8-1.1,1.3-1.4c0.6-0.3,1.2-0.5,1.9-0.5c0.7,0,1.3,0.1,1.8,0.4c0.5,0.3,0.9,0.7,1.1,1.1
			v-1.4h1.3v7.9h-1.3v-1.5c-0.3,0.5-0.6,0.8-1.2,1.1c-0.5,0.3-1.1,0.5-1.8,0.5c-0.7,0-1.3-0.2-1.9-0.5c-0.6-0.3-1-0.8-1.3-1.5
			c-0.3-0.6-0.5-1.3-0.5-2.1C249.7,52.3,249.9,51.6,250.2,51z M256.1,51.6c-0.2-0.4-0.6-0.8-1-1c-0.4-0.2-0.9-0.4-1.3-0.4
			c-0.5,0-0.9,0.1-1.3,0.3s-0.7,0.6-1,1c-0.2,0.4-0.4,1-0.4,1.6c0,0.6,0.1,1.1,0.4,1.6c0.2,0.4,0.6,0.8,1,1c0.4,0.2,0.9,0.4,1.3,0.4
			c0.5,0,0.9-0.1,1.3-0.4c0.4-0.2,0.7-0.6,1-1c0.2-0.4,0.4-1,0.4-1.6C256.4,52.6,256.3,52,256.1,51.6z"/>
		<path class="st0" d="M261.7,46.5v10.7h-1.3V46.5H261.7z"/>
		<path class="st0" d="M269.8,47.1v10h-1.3v-10H269.8z"/>
		<path class="st0" d="M278.7,50c0.6,0.6,0.9,1.4,0.9,2.5v4.7h-1.3v-4.5c0-0.8-0.2-1.4-0.6-1.8c-0.4-0.4-0.9-0.6-1.6-0.6
			c-0.7,0-1.2,0.2-1.6,0.6c-0.4,0.4-0.6,1.1-0.6,1.9v4.4h-1.3v-7.9h1.3v1.1c0.3-0.4,0.6-0.7,1.1-0.9c0.4-0.2,0.9-0.3,1.5-0.3
			C277.3,49.1,278.1,49.4,278.7,50z"/>
		<path class="st0" d="M282.1,51c0.3-0.6,0.8-1.1,1.3-1.4c0.6-0.3,1.2-0.5,1.9-0.5c0.6,0,1.2,0.1,1.7,0.4c0.5,0.3,0.9,0.7,1.2,1.1
			v-4.2h1.3v10.7h-1.3v-1.5c-0.3,0.5-0.6,0.9-1.2,1.2c-0.5,0.3-1.1,0.5-1.8,0.5c-0.7,0-1.3-0.2-1.9-0.5c-0.6-0.3-1-0.8-1.3-1.5
			c-0.3-0.6-0.5-1.3-0.5-2.1C281.6,52.3,281.8,51.6,282.1,51z M287.9,51.6c-0.2-0.4-0.6-0.8-1-1c-0.4-0.2-0.9-0.4-1.3-0.4
			c-0.5,0-0.9,0.1-1.3,0.3c-0.4,0.2-0.7,0.6-1,1c-0.2,0.4-0.4,1-0.4,1.6c0,0.6,0.1,1.1,0.4,1.6c0.2,0.4,0.6,0.8,1,1
			c0.4,0.2,0.9,0.4,1.3,0.4c0.5,0,0.9-0.1,1.3-0.4c0.4-0.2,0.7-0.6,1-1c0.2-0.4,0.4-1,0.4-1.6C288.3,52.6,288.2,52,287.9,51.6z"/>
		<path class="st0" d="M299.2,49.2v7.9h-1.3V56c-0.3,0.4-0.6,0.7-1,0.9c-0.4,0.2-0.9,0.3-1.5,0.3c-0.6,0-1.2-0.1-1.7-0.4
			c-0.5-0.3-0.9-0.6-1.2-1.1c-0.3-0.5-0.4-1.1-0.4-1.9v-4.6h1.3v4.5c0,0.8,0.2,1.4,0.6,1.8c0.4,0.4,0.9,0.6,1.6,0.6
			c0.7,0,1.3-0.2,1.7-0.6c0.4-0.4,0.6-1.1,0.6-1.9v-4.3H299.2z"/>
		<path class="st0" d="M303,56.9c-0.5-0.2-0.9-0.5-1.1-0.9c-0.3-0.4-0.4-0.8-0.5-1.3h1.4c0,0.4,0.2,0.7,0.6,1
			c0.3,0.2,0.8,0.4,1.3,0.4c0.5,0,0.9-0.1,1.2-0.3c0.3-0.2,0.4-0.5,0.4-0.8c0-0.3-0.2-0.6-0.5-0.8c-0.3-0.2-0.8-0.3-1.4-0.5
			c-0.6-0.2-1.1-0.3-1.4-0.5c-0.4-0.2-0.7-0.4-1-0.7c-0.3-0.3-0.4-0.7-0.4-1.2c0-0.4,0.1-0.8,0.4-1.1c0.2-0.3,0.6-0.6,1-0.8
			c0.4-0.2,0.9-0.3,1.5-0.3c0.9,0,1.6,0.2,2.1,0.7c0.5,0.4,0.8,1,0.9,1.8h-1.3c0-0.4-0.2-0.7-0.5-1c-0.3-0.2-0.7-0.4-1.2-0.4
			c-0.5,0-0.8,0.1-1.1,0.3c-0.3,0.2-0.4,0.5-0.4,0.8c0,0.3,0.1,0.5,0.3,0.6c0.2,0.2,0.4,0.3,0.6,0.4c0.3,0.1,0.6,0.2,1.1,0.3
			c0.6,0.2,1,0.3,1.4,0.5s0.7,0.4,0.9,0.7c0.3,0.3,0.4,0.7,0.4,1.2c0,0.4-0.1,0.8-0.4,1.2c-0.2,0.3-0.6,0.6-1,0.8s-0.9,0.3-1.5,0.3
			C304,57.3,303.5,57.1,303,56.9z"/>
		<path class="st0" d="M311.3,50.3V55c0,0.4,0.1,0.7,0.2,0.8c0.2,0.2,0.4,0.2,0.9,0.2h1v1.1h-1.2c-0.7,0-1.3-0.2-1.6-0.5
			c-0.4-0.3-0.5-0.9-0.5-1.7v-4.7h-1v-1.1h1v-2h1.3v2h2.1v1.1H311.3z"/>
		<path class="st0" d="M317.7,49.5c0.4-0.2,0.9-0.4,1.6-0.4v1.4h-0.3c-1.5,0-2.2,0.8-2.2,2.4v4.3h-1.3v-7.9h1.3v1.3
			C316.9,50.1,317.2,49.7,317.7,49.5z"/>
		<path class="st0" d="M321.2,47.7c-0.2-0.2-0.3-0.4-0.3-0.6c0-0.2,0.1-0.5,0.3-0.6c0.2-0.2,0.4-0.3,0.6-0.3c0.2,0,0.4,0.1,0.6,0.3
			c0.2,0.2,0.3,0.4,0.3,0.6c0,0.2-0.1,0.5-0.3,0.6c-0.2,0.2-0.4,0.3-0.6,0.3C321.6,47.9,321.3,47.9,321.2,47.7z M322.4,49.2v7.9
			h-1.3v-7.9H322.4z"/>
		<path class="st0" d="M332.2,53.7h-6.3c0,0.8,0.3,1.4,0.8,1.8c0.5,0.4,1.1,0.7,1.8,0.7c0.6,0,1-0.1,1.4-0.4
			c0.4-0.3,0.6-0.6,0.8-1.1h1.4c-0.2,0.8-0.6,1.4-1.3,1.9c-0.6,0.5-1.4,0.7-2.4,0.7c-0.7,0-1.4-0.2-2-0.5c-0.6-0.3-1.1-0.8-1.4-1.4
			c-0.3-0.6-0.5-1.3-0.5-2.2c0-0.8,0.2-1.5,0.5-2.1c0.3-0.6,0.8-1.1,1.4-1.4c0.6-0.3,1.3-0.5,2-0.5c0.7,0,1.4,0.2,2,0.5
			c0.6,0.3,1,0.8,1.3,1.3c0.3,0.6,0.5,1.2,0.5,1.9C332.3,53.1,332.3,53.4,332.2,53.7z M330.6,51.3c-0.2-0.4-0.5-0.6-0.9-0.8
			c-0.4-0.2-0.8-0.3-1.3-0.3c-0.7,0-1.2,0.2-1.7,0.6c-0.5,0.4-0.7,1-0.8,1.8h5C330.9,52.1,330.8,51.7,330.6,51.3z"/>
		<path class="st0" d="M335.6,56.9c-0.5-0.2-0.9-0.5-1.1-0.9c-0.3-0.4-0.4-0.8-0.5-1.3h1.4c0,0.4,0.2,0.7,0.6,1s0.8,0.4,1.3,0.4
			c0.5,0,0.9-0.1,1.2-0.3c0.3-0.2,0.4-0.5,0.4-0.8c0-0.3-0.2-0.6-0.5-0.8c-0.3-0.2-0.8-0.3-1.4-0.5c-0.6-0.2-1.1-0.3-1.4-0.5
			c-0.4-0.2-0.7-0.4-1-0.7c-0.3-0.3-0.4-0.7-0.4-1.2c0-0.4,0.1-0.8,0.4-1.1c0.2-0.3,0.6-0.6,1-0.8c0.4-0.2,0.9-0.3,1.5-0.3
			c0.9,0,1.6,0.2,2.1,0.7c0.5,0.4,0.8,1,0.9,1.8h-1.3c0-0.4-0.2-0.7-0.5-1s-0.7-0.4-1.2-0.4c-0.5,0-0.8,0.1-1.1,0.3
			c-0.3,0.2-0.4,0.5-0.4,0.8c0,0.3,0.1,0.5,0.3,0.6c0.2,0.2,0.4,0.3,0.6,0.4c0.3,0.1,0.6,0.2,1.1,0.3c0.6,0.2,1,0.3,1.4,0.5
			s0.7,0.4,0.9,0.7c0.3,0.3,0.4,0.7,0.4,1.2c0,0.4-0.1,0.8-0.4,1.2c-0.2,0.3-0.6,0.6-1,0.8s-0.9,0.3-1.5,0.3
			C336.6,57.3,336,57.1,335.6,56.9z"/>
		<path class="st0" d="M343.7,55.3l-1.6,3.9h-0.9l1.1-3.9H343.7z"/>
		<path class="st0" d="M360,47.2v10h-1.3v-7.4l-3.3,7.4h-0.9l-3.3-7.4v7.4h-1.3v-10h1.4l3.7,8.2l3.7-8.2H360z"/>
		<path class="st0" d="M362.2,47.7c-0.2-0.2-0.3-0.4-0.3-0.6c0-0.2,0.1-0.5,0.3-0.6c0.2-0.2,0.4-0.3,0.6-0.3c0.2,0,0.4,0.1,0.6,0.3
			c0.2,0.2,0.3,0.4,0.3,0.6c0,0.2-0.1,0.5-0.3,0.6c-0.2,0.2-0.4,0.3-0.6,0.3C362.6,47.9,362.4,47.9,362.2,47.7z M363.5,49.2v7.9
			h-1.3v-7.9H363.5z"/>
		<path class="st0" d="M371.9,50c0.6,0.6,0.9,1.4,0.9,2.5v4.7h-1.3v-4.5c0-0.8-0.2-1.4-0.6-1.8c-0.4-0.4-0.9-0.6-1.6-0.6
			c-0.7,0-1.2,0.2-1.6,0.6c-0.4,0.4-0.6,1.1-0.6,1.9v4.4h-1.3v-7.9h1.3v1.1c0.3-0.4,0.6-0.7,1.1-0.9c0.4-0.2,0.9-0.3,1.5-0.3
			C370.5,49.1,371.3,49.4,371.9,50z"/>
		<path class="st0" d="M375,47.7c-0.2-0.2-0.3-0.4-0.3-0.6c0-0.2,0.1-0.5,0.3-0.6c0.2-0.2,0.4-0.3,0.6-0.3c0.2,0,0.4,0.1,0.6,0.3
			c0.2,0.2,0.3,0.4,0.3,0.6c0,0.2-0.1,0.5-0.3,0.6c-0.2,0.2-0.4,0.3-0.6,0.3C375.4,47.9,375.2,47.9,375,47.7z M376.3,49.2v7.9H375
			v-7.9H376.3z"/>
		<path class="st0" d="M379.7,56.9c-0.5-0.2-0.9-0.5-1.1-0.9c-0.3-0.4-0.4-0.8-0.5-1.3h1.4c0,0.4,0.2,0.7,0.6,1
			c0.3,0.2,0.8,0.4,1.3,0.4c0.5,0,0.9-0.1,1.2-0.3c0.3-0.2,0.4-0.5,0.4-0.8c0-0.3-0.2-0.6-0.5-0.8c-0.3-0.2-0.8-0.3-1.4-0.5
			c-0.6-0.2-1.1-0.3-1.4-0.5c-0.4-0.2-0.7-0.4-1-0.7c-0.3-0.3-0.4-0.7-0.4-1.2c0-0.4,0.1-0.8,0.4-1.1c0.2-0.3,0.6-0.6,1-0.8
			c0.4-0.2,0.9-0.3,1.5-0.3c0.9,0,1.6,0.2,2.1,0.7c0.5,0.4,0.8,1,0.9,1.8h-1.3c0-0.4-0.2-0.7-0.5-1c-0.3-0.2-0.7-0.4-1.2-0.4
			c-0.5,0-0.8,0.1-1.1,0.3c-0.3,0.2-0.4,0.5-0.4,0.8c0,0.3,0.1,0.5,0.3,0.6c0.2,0.2,0.4,0.3,0.6,0.4c0.3,0.1,0.6,0.2,1.1,0.3
			c0.6,0.2,1,0.3,1.4,0.5s0.7,0.4,0.9,0.7c0.3,0.3,0.4,0.7,0.4,1.2c0,0.4-0.1,0.8-0.4,1.2c-0.2,0.3-0.6,0.6-1,0.8s-0.9,0.3-1.5,0.3
			C380.7,57.3,380.1,57.1,379.7,56.9z"/>
		<path class="st0" d="M387.6,50.3V55c0,0.4,0.1,0.7,0.2,0.8c0.2,0.2,0.4,0.2,0.9,0.2h1v1.1h-1.2c-0.7,0-1.3-0.2-1.6-0.5
			c-0.4-0.3-0.5-0.9-0.5-1.7v-4.7h-1v-1.1h1v-2h1.3v2h2.1v1.1H387.6z"/>
		<path class="st0" d="M393.6,49.5c0.4-0.2,0.9-0.4,1.6-0.4v1.4h-0.3c-1.5,0-2.2,0.8-2.2,2.4v4.3h-1.3v-7.9h1.3v1.3
			C392.8,50.1,393.1,49.7,393.6,49.5z"/>
		<path class="st0" d="M403.4,49.2l-4.8,11.6h-1.4l1.6-3.8l-3.2-7.8h1.5l2.5,6.4l2.4-6.4H403.4z"/>
		<path class="st0" d="M410,56.7c-0.6-0.3-1.1-0.8-1.4-1.4c-0.3-0.6-0.5-1.3-0.5-2.2c0-0.8,0.2-1.5,0.5-2.1c0.4-0.6,0.8-1.1,1.4-1.4
			c0.6-0.3,1.3-0.5,2-0.5c0.7,0,1.4,0.2,2,0.5c0.6,0.3,1.1,0.8,1.4,1.4c0.4,0.6,0.5,1.3,0.5,2.1c0,0.8-0.2,1.5-0.5,2.2
			c-0.4,0.6-0.8,1.1-1.5,1.4c-0.6,0.3-1.3,0.5-2,0.5C411.3,57.3,410.6,57.1,410,56.7z M413.4,55.8c0.4-0.2,0.7-0.6,1-1
			c0.3-0.4,0.4-1,0.4-1.6c0-0.6-0.1-1.2-0.4-1.6c-0.2-0.4-0.6-0.8-1-1c-0.4-0.2-0.8-0.3-1.3-0.3c-0.5,0-0.9,0.1-1.3,0.3
			c-0.4,0.2-0.7,0.5-1,1c-0.2,0.4-0.4,1-0.4,1.6c0,0.6,0.1,1.2,0.4,1.6c0.2,0.4,0.5,0.8,0.9,1c0.4,0.2,0.8,0.3,1.3,0.3
			C412.5,56.1,413,56,413.4,55.8z"/>
		<path class="st0" d="M421,50.3h-1.7v6.8h-1.3v-6.8h-1v-1.1h1v-0.6c0-0.9,0.2-1.5,0.7-1.9c0.5-0.4,1.2-0.6,2.2-0.6v1.1
			c-0.6,0-1,0.1-1.2,0.3c-0.2,0.2-0.4,0.6-0.4,1.1v0.6h1.7V50.3z"/>
		<path class="st0" d="M432.4,47.7c0.8,0.4,1.4,1,1.8,1.8c0.4,0.8,0.6,1.7,0.6,2.7c0,1-0.2,1.9-0.6,2.7c-0.4,0.8-1,1.3-1.8,1.7
			c-0.8,0.4-1.8,0.6-2.8,0.6h-3.1v-10h3.1C430.6,47.1,431.6,47.3,432.4,47.7z M432.5,55c0.7-0.7,1-1.6,1-2.9c0-1.2-0.3-2.2-1-2.9
			c-0.7-0.7-1.7-1.1-3-1.1h-1.8V56h1.8C430.8,56,431.8,55.7,432.5,55z"/>
		<path class="st0" d="M436.6,47.7c-0.2-0.2-0.3-0.4-0.3-0.6c0-0.2,0.1-0.5,0.3-0.6c0.2-0.2,0.4-0.3,0.6-0.3c0.2,0,0.4,0.1,0.6,0.3
			s0.3,0.4,0.3,0.6c0,0.2-0.1,0.5-0.3,0.6s-0.4,0.3-0.6,0.3C437,47.9,436.8,47.9,436.6,47.7z M437.9,49.2v7.9h-1.3v-7.9H437.9z"/>
		<path class="st0" d="M445.2,49.5c0.5,0.3,0.9,0.7,1.1,1.1v-1.4h1.3v8.1c0,0.7-0.2,1.4-0.5,1.9c-0.3,0.6-0.7,1-1.3,1.3
			c-0.6,0.3-1.2,0.5-2,0.5c-1,0-1.9-0.2-2.6-0.7c-0.7-0.5-1.1-1.2-1.2-2h1.3c0.1,0.5,0.4,0.9,0.9,1.2c0.5,0.3,1,0.4,1.6,0.4
			c0.7,0,1.3-0.2,1.8-0.7c0.5-0.5,0.7-1.1,0.7-1.9v-1.7c-0.3,0.5-0.6,0.8-1.2,1.2c-0.5,0.3-1.1,0.5-1.8,0.5c-0.7,0-1.3-0.2-1.9-0.5
			c-0.6-0.3-1-0.8-1.3-1.5c-0.3-0.6-0.5-1.3-0.5-2.1c0-0.8,0.2-1.5,0.5-2.1c0.3-0.6,0.8-1.1,1.3-1.4c0.6-0.3,1.2-0.5,1.9-0.5
			C444.1,49.1,444.7,49.2,445.2,49.5z M446,51.6c-0.2-0.4-0.6-0.8-1-1c-0.4-0.2-0.9-0.4-1.3-0.4c-0.5,0-0.9,0.1-1.3,0.3
			c-0.4,0.2-0.7,0.6-1,1c-0.2,0.4-0.4,1-0.4,1.6c0,0.6,0.1,1.1,0.4,1.6c0.2,0.4,0.6,0.8,1,1c0.4,0.2,0.9,0.4,1.3,0.4
			c0.5,0,0.9-0.1,1.3-0.4c0.4-0.2,0.7-0.6,1-1c0.2-0.4,0.4-1,0.4-1.6C446.3,52.6,446.2,52,446,51.6z"/>
		<path class="st0" d="M449.9,47.7c-0.2-0.2-0.3-0.4-0.3-0.6c0-0.2,0.1-0.5,0.3-0.6c0.2-0.2,0.4-0.3,0.6-0.3c0.2,0,0.4,0.1,0.6,0.3
			s0.3,0.4,0.3,0.6c0,0.2-0.1,0.5-0.3,0.6s-0.4,0.3-0.6,0.3C450.3,47.9,450.1,47.9,449.9,47.7z M451.2,49.2v7.9h-1.3v-7.9H451.2z"/>
		<path class="st0" d="M455,50.3V55c0,0.4,0.1,0.7,0.2,0.8c0.2,0.2,0.4,0.2,0.9,0.2h1v1.1h-1.2c-0.7,0-1.3-0.2-1.6-0.5
			c-0.4-0.3-0.5-0.9-0.5-1.7v-4.7h-1v-1.1h1v-2h1.3v2h2.1v1.1H455z"/>
		<path class="st0" d="M458.7,51c0.3-0.6,0.8-1.1,1.3-1.4c0.6-0.3,1.2-0.5,1.9-0.5c0.7,0,1.3,0.1,1.8,0.4c0.5,0.3,0.9,0.7,1.1,1.1
			v-1.4h1.3v7.9h-1.3v-1.5c-0.3,0.5-0.6,0.8-1.2,1.1c-0.5,0.3-1.1,0.5-1.8,0.5c-0.7,0-1.3-0.2-1.9-0.5c-0.6-0.3-1-0.8-1.3-1.5
			c-0.3-0.6-0.5-1.3-0.5-2.1C458.2,52.3,458.3,51.6,458.7,51z M464.5,51.6c-0.2-0.4-0.6-0.8-1-1c-0.4-0.2-0.9-0.4-1.3-0.4
			c-0.5,0-0.9,0.1-1.3,0.3c-0.4,0.2-0.7,0.6-1,1c-0.2,0.4-0.4,1-0.4,1.6c0,0.6,0.1,1.1,0.4,1.6c0.2,0.4,0.6,0.8,1,1
			c0.4,0.2,0.9,0.4,1.3,0.4c0.5,0,0.9-0.1,1.3-0.4c0.4-0.2,0.7-0.6,1-1c0.2-0.4,0.4-1,0.4-1.6C464.9,52.6,464.7,52,464.5,51.6z"/>
		<path class="st0" d="M469.7,46.5v10.7h-1.3V46.5H469.7z"/>
		<path class="st0" d="M481.7,54.9h-4.4l-0.8,2.2h-1.4l3.6-10h1.5l3.6,10h-1.4L481.7,54.9z M481.4,53.8l-1.8-5.1l-1.8,5.1H481.4z"/>
		<path class="st0" d="M488.7,50.3h-1.7v6.8h-1.3v-6.8h-1v-1.1h1v-0.6c0-0.9,0.2-1.5,0.7-1.9c0.5-0.4,1.2-0.6,2.2-0.6v1.1
			c-0.6,0-1,0.1-1.2,0.3c-0.2,0.2-0.4,0.6-0.4,1.1v0.6h1.7V50.3z"/>
		<path class="st0" d="M493.5,50.3h-1.7v6.8h-1.3v-6.8h-1v-1.1h1v-0.6c0-0.9,0.2-1.5,0.7-1.9c0.5-0.4,1.2-0.6,2.2-0.6v1.1
			c-0.6,0-1,0.1-1.2,0.3c-0.2,0.2-0.4,0.6-0.4,1.1v0.6h1.7V50.3z"/>
		<path class="st0" d="M495,51c0.3-0.6,0.8-1.1,1.3-1.4c0.6-0.3,1.2-0.5,1.9-0.5c0.7,0,1.3,0.1,1.8,0.4c0.5,0.3,0.9,0.7,1.1,1.1
			v-1.4h1.3v7.9h-1.3v-1.5c-0.3,0.5-0.6,0.8-1.2,1.1c-0.5,0.3-1.1,0.5-1.8,0.5c-0.7,0-1.3-0.2-1.9-0.5c-0.6-0.3-1-0.8-1.3-1.5
			c-0.3-0.6-0.5-1.3-0.5-2.1C494.5,52.3,494.7,51.6,495,51z M500.8,51.6c-0.2-0.4-0.6-0.8-1-1c-0.4-0.2-0.9-0.4-1.3-0.4
			c-0.5,0-0.9,0.1-1.3,0.3c-0.4,0.2-0.7,0.6-1,1c-0.2,0.4-0.4,1-0.4,1.6c0,0.6,0.1,1.1,0.4,1.6c0.2,0.4,0.6,0.8,1,1
			c0.4,0.2,0.9,0.4,1.3,0.4c0.5,0,0.9-0.1,1.3-0.4c0.4-0.2,0.7-0.6,1-1c0.2-0.4,0.4-1,0.4-1.6C501.2,52.6,501.1,52,500.8,51.6z"/>
		<path class="st0" d="M504.8,47.7c-0.2-0.2-0.3-0.4-0.3-0.6c0-0.2,0.1-0.5,0.3-0.6c0.2-0.2,0.4-0.3,0.6-0.3c0.2,0,0.4,0.1,0.6,0.3
			c0.2,0.2,0.3,0.4,0.3,0.6c0,0.2-0.1,0.5-0.3,0.6c-0.2,0.2-0.4,0.3-0.6,0.3C505.2,47.9,505,47.9,504.8,47.7z M506,49.2v7.9h-1.3
			v-7.9H506z"/>
		<path class="st0" d="M510.6,49.5c0.4-0.2,0.9-0.4,1.6-0.4v1.4h-0.3c-1.5,0-2.2,0.8-2.2,2.4v4.3h-1.3v-7.9h1.3v1.3
			C509.8,50.1,510.2,49.7,510.6,49.5z"/>
		<path class="st0" d="M514.8,56.9c-0.5-0.2-0.9-0.5-1.1-0.9c-0.3-0.4-0.4-0.8-0.5-1.3h1.4c0,0.4,0.2,0.7,0.6,1s0.8,0.4,1.3,0.4
			c0.5,0,0.9-0.1,1.2-0.3c0.3-0.2,0.4-0.5,0.4-0.8c0-0.3-0.2-0.6-0.5-0.8c-0.3-0.2-0.8-0.3-1.4-0.5c-0.6-0.2-1.1-0.3-1.4-0.5
			c-0.4-0.2-0.7-0.4-1-0.7s-0.4-0.7-0.4-1.2c0-0.4,0.1-0.8,0.4-1.1c0.2-0.3,0.6-0.6,1-0.8c0.4-0.2,0.9-0.3,1.5-0.3
			c0.9,0,1.6,0.2,2.1,0.7c0.5,0.4,0.8,1,0.9,1.8H518c0-0.4-0.2-0.7-0.5-1s-0.7-0.4-1.2-0.4c-0.5,0-0.8,0.1-1.1,0.3
			c-0.3,0.2-0.4,0.5-0.4,0.8c0,0.3,0.1,0.5,0.3,0.6c0.2,0.2,0.4,0.3,0.6,0.4c0.3,0.1,0.6,0.2,1.1,0.3c0.6,0.2,1,0.3,1.4,0.5
			c0.4,0.1,0.7,0.4,0.9,0.7c0.3,0.3,0.4,0.7,0.4,1.2c0,0.4-0.1,0.8-0.4,1.2c-0.2,0.3-0.6,0.6-1,0.8s-0.9,0.3-1.5,0.3
			C515.8,57.3,515.3,57.1,514.8,56.9z"/>
	</g>
</g>
</svg>
