<?xml version="1.0" encoding="utf-8"?>
<!-- Generator: Adobe Illustrator 26.5.0, SVG Export Plug-In . SVG Version: 6.00 Build 0)  -->
<svg version="1.1" id="_層_1" xmlns="http://www.w3.org/2000/svg" xmlns:xlink="http://www.w3.org/1999/xlink" x="0px" y="0px"
	 viewBox="0 0 676 590" style="enable-background:new 0 0 676 590;" xml:space="preserve">
<style type="text/css">
	.st0{fill:#FFFFFF;}
	.st1{fill:none;stroke:#4D4D4D;stroke-miterlimit:10;}
	.st2{fill:#386C8A;}
	.st3{fill:#2A5167;}
	.st4{fill:#1F323D;}
	.st5{fill:#B4C43F;}
	.st6{fill:#B3B3B3;}
</style>
<rect x="-4" y="-5.5" class="st0" width="684" height="601"/>
<g>
	<line class="st1" x1="335.7" y1="42.1" x2="335.9" y2="222.4"/>
	<path class="st1" d="M155.2,112.5V90.8c0.1-4.3,4.3-7.8,9.3-7.8h346.9c5.2,0,9.3,3.6,9.3,8v21.4"/>
	<path class="st2" d="M411.2,197.5H264.8c-2.8,0-5-2.2-5-5v-22c0-2.8,2.2-5,5-5h146.4c2.8,0,5,2.2,5,5v22
		C416.2,195.3,414,197.5,411.2,197.5z"/>
	<g>
		<path class="st0" d="M275.1,181.8c0-4.3,2.5-6.9,5.9-6.9c1.6,0,2.9,0.8,3.6,1.6l-0.9,1.1c-0.7-0.7-1.6-1.3-2.7-1.3
			c-2.5,0-4.2,2.1-4.2,5.4s1.6,5.4,4.1,5.4c1.3,0,2.2-0.6,3.1-1.5l0.9,1c-1,1.2-2.3,1.9-4,1.9C277.6,188.6,275.1,186,275.1,181.8
			L275.1,181.8z"/>
		<path class="st0" d="M287.2,174h1.6v3.9l0,2c0.9-0.9,1.9-1.6,3.2-1.6c2,0,3,1.3,3,3.8v6.2h-1.6v-6c0-1.8-0.6-2.6-1.9-2.6
			c-1,0-1.7,0.5-2.7,1.5v7.1h-1.6L287.2,174L287.2,174z"/>
		<path class="st0" d="M297.8,175.5c0-0.7,0.5-1.1,1.1-1.1s1.1,0.4,1.1,1.1c0,0.6-0.5,1.1-1.1,1.1S297.8,176.1,297.8,175.5z
			 M298.1,178.6h1.6v9.8h-1.6V178.6z"/>
		<path class="st0" d="M302.4,183.5c0-3.2,2.1-5.1,4.4-5.1c2.5,0,3.9,1.8,3.9,4.6c0,0.4,0,0.7-0.1,0.9H304c0.1,2.1,1.4,3.4,3.2,3.4
			c1,0,1.7-0.3,2.5-0.8l0.6,1.1c-0.9,0.6-1.9,1-3.2,1C304.4,188.6,302.4,186.7,302.4,183.5L302.4,183.5z M309.2,182.7
			c0-2-0.9-3-2.4-3c-1.4,0-2.6,1.1-2.8,3H309.2z"/>
		<path class="st0" d="M317.5,175.3c-0.4-0.2-0.8-0.2-1.1-0.2c-0.9,0-1.4,0.7-1.4,1.9v1.6h2.1v1.3H315v8.4h-1.6v-8.4H312v-1.2
			l1.3-0.1V177c0-2,0.9-3.2,2.8-3.2c0.6,0,1.2,0.1,1.6,0.3L317.5,175.3L317.5,175.3z"/>
		<path class="st0" d="M322.1,186.6l1-1.1c1,1,2.3,1.6,3.7,1.6c1.7,0,2.8-0.9,2.8-2.2s-1-1.8-2.2-2.3l-1.9-0.8
			c-1.2-0.5-2.7-1.5-2.7-3.4c0-2,1.8-3.5,4.2-3.5c1.6,0,3,0.7,3.9,1.6l-0.9,1.1c-0.8-0.8-1.8-1.2-3-1.2c-1.5,0-2.5,0.8-2.5,1.9
			c0,1.3,1.1,1.8,2.2,2.2l1.9,0.8c1.5,0.7,2.7,1.6,2.7,3.5c0,2.1-1.7,3.8-4.5,3.8C324.9,188.6,323.3,187.8,322.1,186.6L322.1,186.6z
			"/>
		<path class="st0" d="M333,183.5c0-3.2,2.1-5.1,4.4-5.1c2.5,0,3.9,1.8,3.9,4.6c0,0.4,0,0.7-0.1,0.9h-6.6c0.1,2.1,1.4,3.4,3.2,3.4
			c1,0,1.7-0.3,2.5-0.8l0.6,1.1c-0.9,0.6-1.9,1-3.2,1C335,188.6,333,186.7,333,183.5L333,183.5z M339.8,182.7c0-2-0.9-3-2.4-3
			c-1.4,0-2.6,1.1-2.8,3H339.8z"/>
		<path class="st0" d="M342.9,183.5c0-3.3,2.2-5.1,4.7-5.1c1.3,0,2.2,0.5,2.9,1.1l-0.9,1.1c-0.6-0.5-1.2-0.9-2-0.9
			c-1.8,0-3.1,1.5-3.1,3.8s1.2,3.8,3,3.8c0.9,0,1.7-0.4,2.3-1l0.7,1.1c-0.9,0.8-2,1.2-3.1,1.2C344.9,188.6,342.9,186.7,342.9,183.5
			L342.9,183.5z"/>
		<path class="st0" d="M352.8,178.6h1.4l0.1,1.8h0c0.7-1.2,1.7-2,2.8-2c0.4,0,0.7,0.1,1,0.2l-0.3,1.4c-0.3-0.1-0.6-0.2-1-0.2
			c-0.8,0-1.8,0.6-2.5,2.2v6.3h-1.6L352.8,178.6L352.8,178.6z"/>
		<path class="st0" d="M358.9,183.5c0-3.2,2.1-5.1,4.4-5.1c2.5,0,3.9,1.8,3.9,4.6c0,0.4,0,0.7-0.1,0.9h-6.6c0.1,2.1,1.4,3.4,3.2,3.4
			c1,0,1.7-0.3,2.5-0.8l0.6,1.1c-0.9,0.6-1.9,1-3.2,1C361,188.6,358.9,186.7,358.9,183.5L358.9,183.5z M365.7,182.7c0-2-0.9-3-2.4-3
			c-1.4,0-2.6,1.1-2.8,3H365.7z"/>
		<path class="st0" d="M369.7,185.3v-5.4h-1.5v-1.2l1.5-0.1l0.2-2.7h1.4v2.7h2.6v1.3h-2.6v5.5c0,1.2,0.4,1.9,1.5,1.9
			c0.3,0,0.8-0.1,1.1-0.2l0.3,1.2c-0.6,0.2-1.2,0.4-1.8,0.4C370.4,188.6,369.7,187.3,369.7,185.3L369.7,185.3z"/>
		<path class="st0" d="M375.1,185.8c0-2.1,1.9-3.2,6-3.7c0-1.3-0.4-2.5-2-2.5c-1.1,0-2.2,0.5-2.9,1l-0.6-1.1
			c0.9-0.6,2.3-1.3,3.9-1.3c2.4,0,3.4,1.6,3.4,4v6h-1.4l-0.1-1.2h0c-0.9,0.8-2,1.4-3.2,1.4C376.4,188.6,375.1,187.5,375.1,185.8
			L375.1,185.8z M381.1,186v-2.7c-3.3,0.4-4.4,1.2-4.4,2.5c0,1.1,0.8,1.6,1.7,1.6S380.2,186.8,381.1,186z"/>
		<path class="st0" d="M385.9,178.6h1.4l0.1,1.8h0c0.7-1.2,1.7-2,2.8-2c0.4,0,0.7,0.1,1,0.2l-0.3,1.4c-0.3-0.1-0.6-0.2-1-0.2
			c-0.8,0-1.8,0.6-2.5,2.2v6.3h-1.6L385.9,178.6L385.9,178.6z"/>
		<path class="st0" d="M392.4,192.4l0.3-1.3c0.2,0.1,0.5,0.2,0.7,0.2c1.1,0,1.8-0.9,2.2-2.1l0.2-0.7l-3.9-9.8h1.7l2,5.4
			c0.3,0.9,0.6,1.9,0.9,2.7h0.1c0.3-0.9,0.6-1.9,0.8-2.7l1.8-5.4h1.6l-3.7,10.6c-0.7,1.9-1.7,3.4-3.6,3.4
			C393.1,192.6,392.7,192.5,392.4,192.4L392.4,192.4z"/>
	</g>
	<g>
		<path class="st3" d="M22.7,108.8h265c2.8,0,5,2.2,5,5v21.7c0,2.8-2.2,5-5,5h-265c-2.8,0-5-2.2-5-5v-21.7
			C17.7,111,20,108.8,22.7,108.8z"/>
		<path class="st3" d="M388.3,108.8h265c2.8,0,5,2.2,5,5v21.7c0,2.8-2.2,5-5,5h-265c-2.8,0-5-2.2-5-5v-21.7
			C383.3,111,385.5,108.8,388.3,108.8z"/>
		<g>
			<path class="st0" d="M35.7,118.2H39c4,0,6.2,2.4,6.2,6.6c0,4.2-2.2,6.6-6.2,6.6h-3.4V118.2L35.7,118.2z M38.9,130
				c3.1,0,4.7-1.9,4.7-5.3s-1.5-5.2-4.7-5.2h-1.5V130H38.9z"/>
			<path class="st0" d="M49,126.5c0-3.2,2.1-5.2,4.4-5.2c2.5,0,3.9,1.8,3.9,4.6c0,0.4,0,0.7-0.1,0.9h-6.6c0.1,2.1,1.4,3.4,3.2,3.4
				c1,0,1.7-0.3,2.5-0.8l0.6,1.1c-0.9,0.6-1.9,1-3.2,1C51.1,131.6,49,129.8,49,126.5L49,126.5z M55.9,125.7c0-2-0.9-3-2.4-3
				c-1.4,0-2.6,1.1-2.8,3C50.6,125.7,55.8,125.7,55.9,125.7z"/>
			<path class="st0" d="M61.5,121.6h1.3l0.1,1.1h0c0.9-0.7,2-1.4,3.1-1.4c2.5,0,3.9,2,3.9,5c0,3.4-2,5.3-4.2,5.3
				c-0.9,0-1.8-0.4-2.7-1.1l0,1.7v3.3h-1.6L61.5,121.6L61.5,121.6z M68.3,126.4c0-2.2-0.7-3.6-2.6-3.6c-0.8,0-1.7,0.5-2.6,1.3v5.1
				c0.9,0.8,1.8,1,2.4,1C67.2,130.3,68.3,128.8,68.3,126.4z"/>
			<path class="st0" d="M74.3,127.8v-6.2H76v6c0,1.8,0.5,2.6,1.8,2.6c1,0,1.7-0.5,2.7-1.7v-6.9h1.6v9.8h-1.4l-0.1-1.5h-0.1
				c-0.9,1.1-1.9,1.8-3.2,1.8C75.3,131.6,74.3,130.3,74.3,127.8L74.3,127.8z"/>
			<path class="st0" d="M87.5,128.4V123H86v-1.2l1.5-0.1l0.2-2.7h1.4v2.7h2.7v1.3h-2.7v5.5c0,1.2,0.4,1.9,1.5,1.9
				c0.3,0,0.8-0.1,1.1-0.2l0.3,1.2c-0.6,0.2-1.2,0.4-1.8,0.4C88.2,131.6,87.5,130.3,87.5,128.4L87.5,128.4z"/>
			<path class="st0" d="M94.8,135.4l0.3-1.3c0.2,0.1,0.5,0.2,0.7,0.2c1.1,0,1.8-0.9,2.2-2.1l0.2-0.7l-3.9-9.8H96l2,5.4
				c0.3,0.8,0.6,1.8,0.9,2.7h0.1c0.3-0.9,0.6-1.9,0.8-2.7l1.8-5.4h1.6l-3.7,10.6c-0.7,1.9-1.7,3.4-3.6,3.4
				C95.5,135.6,95.1,135.6,94.8,135.4z"/>
			<path class="st0" d="M112.9,118.2h3.3c4.1,0,6.2,2.4,6.2,6.6c0,4.2-2.2,6.6-6.2,6.6h-3.4L112.9,118.2L112.9,118.2z M116.1,130
				c3.1,0,4.7-1.9,4.7-5.3s-1.5-5.2-4.7-5.2h-1.5V130H116.1z"/>
			<path class="st0" d="M126.6,118.6c0-0.7,0.5-1.1,1.1-1.1c0.6,0,1.1,0.4,1.1,1.1c0,0.6-0.5,1.1-1.1,1.1S126.6,119.2,126.6,118.6z
				 M126.9,121.6h1.6v9.8h-1.6V121.6z"/>
			<path class="st0" d="M133.7,121.6h1.4l0.1,1.8h0.1c0.7-1.2,1.7-2,2.8-2c0.4,0,0.7,0.1,1,0.2l-0.3,1.4c-0.3-0.1-0.6-0.2-0.9-0.2
				c-0.8,0-1.8,0.6-2.5,2.2v6.3h-1.6L133.7,121.6L133.7,121.6z"/>
			<path class="st0" d="M141.5,126.5c0-3.2,2.1-5.2,4.4-5.2c2.5,0,3.9,1.8,3.9,4.6c0,0.4,0,0.7-0.1,0.9h-6.6
				c0.1,2.1,1.4,3.4,3.2,3.4c0.9,0,1.7-0.3,2.4-0.8l0.6,1.1c-0.9,0.6-1.9,1-3.2,1C143.6,131.6,141.5,129.8,141.5,126.5L141.5,126.5z
				 M148.4,125.7c0-2-0.9-3-2.4-3c-1.4,0-2.6,1.1-2.8,3H148.4L148.4,125.7z"/>
			<path class="st0" d="M153.3,126.5c0-3.3,2.2-5.2,4.7-5.2c1.3,0,2.2,0.5,2.9,1.2l-0.9,1.1c-0.6-0.5-1.2-0.9-2-0.9
				c-1.8,0-3.1,1.5-3.1,3.8s1.2,3.8,3,3.8c0.9,0,1.7-0.4,2.3-1l0.7,1.1c-0.9,0.8-2,1.2-3.1,1.2C155.3,131.7,153.3,129.8,153.3,126.5
				L153.3,126.5z"/>
			<path class="st0" d="M165.1,128.4V123h-1.5v-1.2l1.5-0.1l0.2-2.7h1.4v2.7h2.6v1.3h-2.6v5.5c0,1.2,0.4,1.9,1.5,1.9
				c0.3,0,0.8-0.1,1.1-0.2l0.3,1.2c-0.6,0.2-1.2,0.4-1.8,0.4C165.8,131.6,165.1,130.3,165.1,128.4L165.1,128.4z"/>
			<path class="st0" d="M172.4,126.5c0-3.3,2.1-5.2,4.5-5.2s4.5,1.9,4.5,5.2c0,3.3-2.1,5.1-4.5,5.1S172.4,129.8,172.4,126.5z
				 M179.8,126.5c0-2.2-1.1-3.8-2.8-3.8s-2.8,1.5-2.8,3.8s1.1,3.8,2.8,3.8S179.8,128.8,179.8,126.5z"/>
			<path class="st0" d="M185.8,121.6h1.4l0.1,1.8h0.1c0.7-1.2,1.7-2,2.8-2c0.4,0,0.7,0.1,1,0.2l-0.3,1.4c-0.3-0.1-0.6-0.2-0.9-0.2
				c-0.8,0-1.8,0.6-2.5,2.2v6.3h-1.6L185.8,121.6L185.8,121.6z"/>
			<path class="st0" d="M193.3,125.7h4.6v1.3h-4.6V125.7z"/>
			<path class="st0" d="M201.6,124.8c0-4.3,2.6-6.9,6.1-6.9c1.8,0,3,0.8,3.8,1.6l-0.9,1.1c-0.7-0.7-1.5-1.3-2.9-1.3
				c-2.6,0-4.4,2.1-4.4,5.3s1.6,5.4,4.4,5.4c0.9,0,1.9-0.3,2.4-0.8V126h-2.8v-1.4h4.3v5.5c-0.9,0.9-2.3,1.5-4.1,1.5
				C204,131.6,201.6,129.1,201.6,124.8L201.6,124.8z"/>
			<path class="st0" d="M215.6,126.5c0-3.2,2.1-5.2,4.4-5.2c2.5,0,3.9,1.8,3.9,4.6c0,0.4,0,0.7-0.1,0.9h-6.6
				c0.1,2.1,1.4,3.4,3.2,3.4c0.9,0,1.7-0.3,2.4-0.8l0.6,1.1c-0.9,0.6-1.9,1-3.2,1C217.7,131.6,215.6,129.8,215.6,126.5L215.6,126.5z
				 M222.5,125.7c0-2-0.9-3-2.4-3c-1.4,0-2.6,1.1-2.8,3H222.5L222.5,125.7z"/>
			<path class="st0" d="M228.2,121.6h1.4l0.1,1.4h0.1c0.9-0.9,1.9-1.7,3.3-1.7c2.1,0,3,1.3,3,3.8v6.2h-1.6v-6c0-1.8-0.6-2.6-1.9-2.6
				c-1,0-1.7,0.5-2.7,1.5v7.1h-1.6L228.2,121.6L228.2,121.6z"/>
			<path class="st0" d="M240.2,126.5c0-3.2,2.1-5.2,4.4-5.2c2.5,0,3.9,1.8,3.9,4.6c0,0.4,0,0.7-0.1,0.9h-6.6
				c0.1,2.1,1.4,3.4,3.2,3.4c0.9,0,1.7-0.3,2.4-0.8l0.6,1.1c-0.9,0.6-1.9,1-3.2,1C242.3,131.6,240.2,129.8,240.2,126.5L240.2,126.5z
				 M247.1,125.7c0-2-0.9-3-2.4-3c-1.4,0-2.6,1.1-2.8,3H247.1L247.1,125.7z"/>
			<path class="st0" d="M252.7,121.6h1.4l0.1,1.8h0.1c0.7-1.2,1.7-2,2.8-2c0.4,0,0.7,0.1,1,0.2l-0.3,1.4c-0.3-0.1-0.6-0.2-1-0.2
				c-0.8,0-1.8,0.6-2.5,2.2v6.3h-1.6L252.7,121.6L252.7,121.6z"/>
			<path class="st0" d="M260.4,128.9c0-2.1,1.9-3.2,6-3.7c0-1.3-0.4-2.5-2-2.5c-1.1,0-2.2,0.5-2.9,1l-0.6-1.1
				c0.9-0.6,2.3-1.3,3.9-1.3c2.4,0,3.4,1.6,3.4,4v6h-1.4l-0.1-1.2h0c-0.9,0.8-2,1.4-3.2,1.4C261.6,131.6,260.4,130.6,260.4,128.9
				L260.4,128.9z M266.4,129v-2.7c-3.3,0.4-4.4,1.2-4.4,2.5c0,1.1,0.8,1.6,1.7,1.6S265.5,129.9,266.4,129z"/>
			<path class="st0" d="M273,129.5v-12.4h1.6v12.5c0,0.5,0.2,0.7,0.5,0.7c0.1,0,0.2,0,0.3,0l0.2,1.3c-0.2,0.1-0.5,0.1-1,0.1
				C273.5,131.6,273,130.9,273,129.5L273,129.5z"/>
		</g>
		<g>
			<path class="st0" d="M400.8,118.2h3.3c4,0,6.2,2.4,6.2,6.6c0,4.2-2.2,6.6-6.2,6.6h-3.4L400.8,118.2L400.8,118.2z M404,130
				c3.1,0,4.6-1.9,4.6-5.3s-1.5-5.2-4.6-5.2h-1.5V130H404z"/>
			<path class="st0" d="M414.1,126.5c0-3.2,2.1-5.2,4.4-5.2c2.5,0,3.9,1.8,3.9,4.6c0,0.4,0,0.7-0.1,0.9h-6.6
				c0.1,2.1,1.4,3.4,3.2,3.4c1,0,1.7-0.3,2.5-0.8l0.6,1.1c-0.9,0.6-1.9,1-3.2,1C416.2,131.6,414.1,129.8,414.1,126.5L414.1,126.5z
				 M420.9,125.7c0-2-0.9-3-2.4-3c-1.4,0-2.6,1.1-2.8,3H420.9z"/>
			<path class="st0" d="M426.6,121.6h1.4l0.1,1.1h0c0.9-0.7,2-1.4,3.1-1.4c2.5,0,3.9,2,3.9,5c0,3.4-2,5.3-4.2,5.3
				c-0.9,0-1.8-0.4-2.7-1.1l0,1.7v3.3h-1.6L426.6,121.6L426.6,121.6z M433.4,126.4c0-2.2-0.7-3.6-2.6-3.6c-0.8,0-1.7,0.5-2.6,1.3
				v5.1c0.9,0.8,1.8,1,2.4,1C432.2,130.3,433.4,128.8,433.4,126.4L433.4,126.4z"/>
			<path class="st0" d="M439.4,127.8v-6.2h1.6v6c0,1.8,0.5,2.6,1.8,2.6c1,0,1.7-0.5,2.6-1.7v-6.9h1.6v9.8h-1.4l-0.1-1.5h0
				c-0.9,1.1-1.9,1.8-3.2,1.8C440.4,131.6,439.4,130.3,439.4,127.8L439.4,127.8z"/>
			<path class="st0" d="M452.6,128.4V123h-1.5v-1.2l1.5-0.1l0.2-2.7h1.4v2.7h2.6v1.3h-2.6v5.5c0,1.2,0.4,1.9,1.5,1.9
				c0.3,0,0.8-0.1,1.1-0.2l0.3,1.2c-0.6,0.2-1.2,0.4-1.8,0.4C453.3,131.7,452.6,130.4,452.6,128.4L452.6,128.4z"/>
			<path class="st0" d="M459.9,135.4l0.3-1.3c0.2,0.1,0.5,0.2,0.7,0.2c1.1,0,1.8-0.9,2.2-2.1l0.2-0.7l-3.9-9.8h1.7l2,5.4
				c0.3,0.8,0.6,1.8,0.9,2.7h0.1c0.3-0.9,0.6-1.9,0.8-2.7l1.8-5.4h1.6l-3.7,10.6c-0.7,1.9-1.7,3.4-3.6,3.4
				C460.5,135.6,460.2,135.6,459.9,135.4L459.9,135.4z"/>
			<path class="st0" d="M478,118.2h3.3c4,0,6.2,2.4,6.2,6.6c0,4.2-2.2,6.6-6.2,6.6H478V118.2L478,118.2z M481.2,130
				c3.1,0,4.6-1.9,4.6-5.3s-1.5-5.2-4.6-5.2h-1.5V130H481.2z"/>
			<path class="st0" d="M491.7,118.6c0-0.7,0.5-1.1,1.1-1.1s1.1,0.4,1.1,1.1c0,0.6-0.5,1.1-1.1,1.1S491.7,119.2,491.7,118.6z
				 M492,121.6h1.6v9.8H492V121.6z"/>
			<path class="st0" d="M498.8,121.6h1.4l0.1,1.8h0c0.7-1.2,1.7-2,2.8-2c0.4,0,0.7,0.1,1,0.2l-0.3,1.4c-0.3-0.1-0.6-0.2-1-0.2
				c-0.8,0-1.8,0.6-2.5,2.2v6.3h-1.6L498.8,121.6L498.8,121.6z"/>
			<path class="st0" d="M506.6,126.5c0-3.2,2.1-5.2,4.4-5.2c2.5,0,3.9,1.8,3.9,4.6c0,0.4,0,0.7-0.1,0.9h-6.6
				c0.1,2.1,1.4,3.4,3.2,3.4c0.9,0,1.7-0.3,2.4-0.8l0.6,1.1c-0.9,0.6-1.9,1-3.2,1C508.7,131.6,506.6,129.8,506.6,126.5L506.6,126.5z
				 M513.5,125.7c0-2-0.9-3-2.4-3c-1.4,0-2.6,1.1-2.8,3H513.5z"/>
			<path class="st0" d="M518.4,126.5c0-3.3,2.2-5.2,4.7-5.2c1.3,0,2.2,0.5,2.9,1.2l-0.8,1.1c-0.6-0.5-1.2-0.9-2-0.9
				c-1.8,0-3.1,1.5-3.1,3.8s1.2,3.8,3,3.8c0.9,0,1.7-0.4,2.3-1l0.7,1.1c-0.9,0.8-2,1.2-3.2,1.2C520.4,131.7,518.4,129.8,518.4,126.5
				L518.4,126.5z"/>
			<path class="st0" d="M530.2,128.4V123h-1.5v-1.2l1.5-0.1l0.2-2.7h1.4v2.7h2.7v1.3h-2.7v5.5c0,1.2,0.4,1.9,1.5,1.9
				c0.3,0,0.8-0.1,1.1-0.2l0.3,1.2c-0.6,0.2-1.2,0.4-1.8,0.4C530.9,131.7,530.2,130.4,530.2,128.4L530.2,128.4z"/>
			<path class="st0" d="M537.5,126.5c0-3.3,2.1-5.2,4.5-5.2s4.5,1.9,4.5,5.2c0,3.3-2.1,5.1-4.5,5.1S537.5,129.8,537.5,126.5z
				 M544.9,126.5c0-2.2-1.2-3.8-2.8-3.8s-2.8,1.5-2.8,3.8s1.1,3.8,2.8,3.8S544.9,128.8,544.9,126.5z"/>
			<path class="st0" d="M550.9,121.6h1.3l0.1,1.8h0c0.7-1.2,1.7-2,2.8-2c0.4,0,0.7,0.1,1,0.2L556,123c-0.3-0.1-0.6-0.2-1-0.2
				c-0.8,0-1.8,0.6-2.5,2.2v6.3h-1.6L550.9,121.6L550.9,121.6z"/>
			<path class="st0" d="M558.4,125.7h4.6v1.3h-4.6V125.7z"/>
			<path class="st0" d="M566.7,124.8c0-4.3,2.6-6.9,6-6.9c1.8,0,3,0.8,3.8,1.6l-0.9,1.1c-0.7-0.7-1.5-1.3-2.9-1.3
				c-2.7,0-4.4,2.1-4.4,5.3s1.6,5.4,4.4,5.4c1,0,1.9-0.3,2.4-0.8V126h-2.8v-1.4h4.3v5.5c-0.8,0.9-2.3,1.5-4.1,1.5
				C569.1,131.6,566.7,129.1,566.7,124.8L566.7,124.8z"/>
			<path class="st0" d="M580.7,126.5c0-3.2,2.1-5.2,4.4-5.2c2.5,0,3.9,1.8,3.9,4.6c0,0.4,0,0.7-0.1,0.9h-6.6
				c0.1,2.1,1.4,3.4,3.2,3.4c1,0,1.7-0.3,2.5-0.8l0.6,1.1c-0.9,0.6-1.9,1-3.2,1C582.8,131.6,580.7,129.8,580.7,126.5L580.7,126.5z
				 M587.6,125.7c0-2-0.9-3-2.4-3c-1.4,0-2.6,1.1-2.8,3H587.6z"/>
			<path class="st0" d="M593.2,121.6h1.3l0.1,1.4h0c0.9-0.9,1.9-1.7,3.3-1.7c2,0,3,1.3,3,3.8v6.2h-1.6v-6c0-1.8-0.6-2.6-1.8-2.6
				c-1,0-1.7,0.5-2.7,1.5v7.1h-1.6V121.6L593.2,121.6z"/>
			<path class="st0" d="M605.3,126.5c0-3.2,2.1-5.2,4.4-5.2c2.5,0,3.9,1.8,3.9,4.6c0,0.4,0,0.7-0.1,0.9h-6.6
				c0.1,2.1,1.4,3.4,3.2,3.4c1,0,1.7-0.3,2.5-0.8l0.6,1.1c-0.9,0.6-1.9,1-3.2,1C607.4,131.6,605.3,129.8,605.3,126.5L605.3,126.5z
				 M612.2,125.7c0-2-0.9-3-2.4-3c-1.4,0-2.6,1.1-2.8,3H612.2z"/>
			<path class="st0" d="M617.8,121.6h1.3l0.1,1.8h0c0.7-1.2,1.7-2,2.8-2c0.4,0,0.7,0.1,1,0.2l-0.3,1.4c-0.3-0.1-0.6-0.2-1-0.2
				c-0.8,0-1.8,0.6-2.5,2.2v6.3h-1.6L617.8,121.6L617.8,121.6z"/>
			<path class="st0" d="M625.5,128.9c0-2.1,1.8-3.2,6-3.7c0-1.3-0.4-2.5-2-2.5c-1.1,0-2.2,0.5-2.9,1l-0.7-1.1
				c0.9-0.6,2.3-1.3,3.8-1.3c2.4,0,3.4,1.6,3.4,4v6h-1.3l-0.1-1.2h0c-0.9,0.8-2,1.4-3.2,1.4C626.7,131.6,625.5,130.6,625.5,128.9
				L625.5,128.9z M631.5,129v-2.7c-3.3,0.4-4.4,1.2-4.4,2.5c0,1.1,0.8,1.6,1.7,1.6S630.6,129.9,631.5,129z"/>
			<path class="st0" d="M638.1,129.5v-12.4h1.6v12.5c0,0.5,0.2,0.7,0.5,0.7c0.1,0,0.2,0,0.3,0l0.2,1.3c-0.2,0.1-0.5,0.1-1,0.1
				C638.6,131.6,638.1,130.9,638.1,129.5L638.1,129.5z"/>
		</g>
	</g>
	<path class="st4" d="M243.1,25.7h184.2c2.8,0,5,2.2,5,5v22c0,2.8-2.2,5-5,5H243.1c-2.8,0-5-2.2-5-5v-22
		C238.1,27.9,240.4,25.7,243.1,25.7z"/>
	<g>
		<path class="st0" d="M254.6,34.4h3.3c4,0,6.2,2.4,6.2,6.5s-2.2,6.6-6.2,6.6h-3.4L254.6,34.4L254.6,34.4z M257.7,46.2
			c3.1,0,4.6-2,4.6-5.3s-1.5-5.2-4.6-5.2h-1.5v10.5H257.7z"/>
		<path class="st0" d="M268.3,34.8c0-0.7,0.5-1.1,1.1-1.1s1.1,0.4,1.1,1.1c0,0.6-0.5,1.1-1.1,1.1S268.3,35.4,268.3,34.8z
			 M268.6,37.8h1.6v9.8h-1.6V37.8z"/>
		<path class="st0" d="M275.3,37.8h1.4l0.1,1.8h0c0.7-1.2,1.7-2,2.8-2c0.4,0,0.7,0,1,0.2l-0.3,1.4c-0.3-0.1-0.6-0.2-1-0.2
			c-0.8,0-1.8,0.6-2.5,2.2v6.3h-1.6L275.3,37.8L275.3,37.8z"/>
		<path class="st0" d="M283.2,42.7c0-3.2,2.1-5.2,4.4-5.2c2.5,0,3.9,1.8,3.9,4.6c0,0.4,0,0.7-0.1,0.9h-6.6c0.1,2.1,1.4,3.4,3.2,3.4
			c1,0,1.7-0.3,2.5-0.8l0.6,1.1c-0.9,0.6-1.9,1-3.2,1C285.3,47.8,283.2,46,283.2,42.7L283.2,42.7z M290,41.9c0-2-0.9-3-2.4-3
			c-1.4,0-2.6,1.1-2.8,3H290z"/>
		<path class="st0" d="M295,42.7c0-3.3,2.2-5.2,4.7-5.2c1.3,0,2.2,0.5,2.9,1.2l-0.9,1.1c-0.6-0.5-1.2-0.9-2-0.9
			c-1.8,0-3.1,1.5-3.1,3.8s1.2,3.8,3,3.8c0.9,0,1.7-0.4,2.3-1l0.7,1.1c-0.9,0.8-2,1.2-3.1,1.2C296.9,47.8,294.9,46,295,42.7
			L295,42.7z"/>
		<path class="st0" d="M306.8,44.6v-5.4h-1.5v-1.2l1.5-0.1l0.2-2.7h1.4v2.7h2.6v1.3h-2.6v5.5c0,1.2,0.4,1.9,1.5,1.9
			c0.3,0,0.8-0.1,1.1-0.2l0.3,1.2c-0.6,0.2-1.2,0.4-1.8,0.4C307.5,47.8,306.8,46.5,306.8,44.6L306.8,44.6z"/>
		<path class="st0" d="M314,42.7c0-3.3,2.1-5.2,4.5-5.2s4.5,1.9,4.5,5.2s-2.1,5.1-4.5,5.1S314,46,314,42.7z M321.4,42.7
			c0-2.2-1.1-3.8-2.8-3.8s-2.8,1.5-2.8,3.8s1.1,3.8,2.8,3.8S321.4,45,321.4,42.7z"/>
		<path class="st0" d="M327.5,37.8h1.4l0.1,1.8h0c0.7-1.2,1.7-2,2.8-2c0.4,0,0.7,0,1,0.2l-0.3,1.4c-0.3-0.1-0.6-0.2-1-0.2
			c-0.8,0-1.8,0.6-2.5,2.2v6.3h-1.6L327.5,37.8L327.5,37.8z"/>
		<path class="st0" d="M335,41.9h4.6v1.3H335V41.9z"/>
		<path class="st0" d="M343.2,41c0-4.3,2.6-6.9,6-6.9c1.8,0,3,0.8,3.8,1.6l-0.9,1.1c-0.7-0.7-1.5-1.3-2.9-1.3c-2.6,0-4.4,2-4.4,5.3
			s1.6,5.4,4.4,5.4c1,0,1.9-0.3,2.4-0.8v-3.5h-2.8v-1.4h4.3v5.5c-0.9,0.9-2.3,1.5-4.1,1.5C345.7,47.8,343.2,45.3,343.2,41L343.2,41z
			"/>
		<path class="st0" d="M357.3,42.7c0-3.2,2.1-5.2,4.4-5.2c2.5,0,3.9,1.8,3.9,4.6c0,0.4,0,0.7-0.1,0.9h-6.6c0.1,2.1,1.4,3.4,3.2,3.4
			c1,0,1.7-0.3,2.5-0.8l0.6,1.1c-0.9,0.6-1.9,1-3.2,1C359.4,47.8,357.3,46,357.3,42.7L357.3,42.7z M364.2,41.9c0-2-0.9-3-2.4-3
			c-1.4,0-2.6,1.1-2.8,3H364.2z"/>
		<path class="st0" d="M369.8,37.8h1.4l0.1,1.4h0c0.9-0.9,1.9-1.7,3.3-1.7c2,0,3,1.3,3,3.8v6.2H376v-6c0-1.8-0.6-2.6-1.9-2.6
			c-1,0-1.7,0.5-2.7,1.5v7.1h-1.6L369.8,37.8L369.8,37.8z"/>
		<path class="st0" d="M381.9,42.7c0-3.2,2.1-5.2,4.4-5.2c2.5,0,3.9,1.8,3.9,4.6c0,0.4,0,0.7-0.1,0.9h-6.6c0.1,2.1,1.4,3.4,3.2,3.4
			c1,0,1.7-0.3,2.5-0.8l0.6,1.1c-0.9,0.6-1.9,1-3.2,1C384,47.8,381.9,46,381.9,42.7L381.9,42.7z M388.7,41.9c0-2-0.9-3-2.4-3
			c-1.4,0-2.6,1.1-2.8,3H388.7z"/>
		<path class="st0" d="M394.4,37.8h1.4l0.1,1.8h0c0.7-1.2,1.7-2,2.8-2c0.4,0,0.7,0,1,0.2l-0.3,1.4c-0.3-0.1-0.6-0.2-1-0.2
			c-0.8,0-1.8,0.6-2.5,2.2v6.3h-1.6L394.4,37.8L394.4,37.8z"/>
		<path class="st0" d="M402.1,45.1c0-2.1,1.9-3.2,6-3.7c0-1.3-0.4-2.5-2-2.5c-1.1,0-2.2,0.5-2.9,1l-0.6-1.1c0.9-0.6,2.3-1.3,3.9-1.3
			c2.4,0,3.4,1.6,3.4,4v6h-1.4l-0.1-1.2h0c-0.9,0.8-2,1.4-3.2,1.4C403.3,47.8,402.1,46.8,402.1,45.1L402.1,45.1z M408.1,45.2v-2.7
			c-3.3,0.4-4.4,1.2-4.4,2.5c0,1.1,0.8,1.6,1.7,1.6S407.1,46.1,408.1,45.2z"/>
		<path class="st0" d="M414.6,45.7V33.3h1.6v12.5c0,0.5,0.2,0.7,0.5,0.7c0.1,0,0.2,0,0.3,0l0.2,1.3c-0.2,0.1-0.5,0.1-1,0.1
			C415.1,47.8,414.6,47,414.6,45.7L414.6,45.7z"/>
	</g>
</g>
<g>
	<g>
		<g>
			<path class="st5" d="M523,227.8v21.7c0,2.8-2.2,5-5,5H158c-2.8,0-5-2.2-5-5v-21.7c0-2.8,2.2-5,5-5h360
				C520.8,222.8,523,225,523,227.8z"/>
			<g>
				<path class="st0" d="M247.9,231.5h1.7v13.2h-1.7V231.5z"/>
				<path class="st0" d="M253,234.9h1.4l0.1,1.4h0.1c0.9-0.9,1.9-1.7,3-1.7c1.5,0,2.3,0.7,2.7,1.9c1-1.1,2-1.9,3.2-1.9
					c2,0,3,1.3,3,3.8v6.2h-1.6v-6c0-1.8-0.6-2.6-1.8-2.6c-0.8,0-1.5,0.5-2.5,1.5v7.1h-1.6v-6c0-1.8-0.6-2.6-1.8-2.6
					c-0.7,0-1.6,0.5-2.5,1.5v7.1H253L253,234.9L253,234.9z"/>
				<path class="st0" d="M269.7,234.9h1.4l0.1,1.1h0c0.9-0.7,2-1.4,3.1-1.4c2.5,0,3.9,2,3.9,5c0,3.4-2,5.3-4.2,5.3
					c-0.9,0-1.8-0.4-2.7-1.1l0,1.7v3.3h-1.6V234.9L269.7,234.9z M276.5,239.7c0-2.2-0.7-3.6-2.6-3.6c-0.8,0-1.7,0.5-2.6,1.4v5.1
					c0.9,0.8,1.8,1,2.4,1C275.3,243.6,276.5,242.1,276.5,239.7L276.5,239.7z"/>
				<path class="st0" d="M280.8,242.8v-12.4h1.6v12.5c0,0.5,0.2,0.7,0.5,0.7c0.1,0,0.2,0,0.3,0l0.2,1.3c-0.2,0.1-0.5,0.1-1,0.1
					C281.3,244.9,280.8,244.2,280.8,242.8L280.8,242.8z"/>
				<path class="st0" d="M285.2,239.8c0-3.2,2.1-5.1,4.4-5.1c2.5,0,3.9,1.8,3.9,4.6c0,0.4,0,0.7-0.1,0.9h-6.6
					c0.1,2.1,1.4,3.4,3.2,3.4c1,0,1.7-0.3,2.5-0.8l0.6,1.1c-0.9,0.6-1.9,1-3.2,1C287.3,244.9,285.2,243.1,285.2,239.8L285.2,239.8z
					 M292.1,239c0-2-0.9-3-2.4-3c-1.4,0-2.6,1.1-2.8,3H292.1z"/>
				<path class="st0" d="M295.9,234.9h1.4l0.1,1.4h0c0.9-0.9,1.9-1.7,3-1.7c1.5,0,2.3,0.7,2.7,1.9c1-1.1,2-1.9,3.2-1.9
					c2,0,3,1.3,3,3.8v6.2h-1.6v-6c0-1.8-0.6-2.6-1.8-2.6c-0.8,0-1.5,0.5-2.5,1.5v7.1h-1.6v-6c0-1.8-0.6-2.6-1.8-2.6
					c-0.7,0-1.6,0.5-2.5,1.5v7.1h-1.6L295.9,234.9L295.9,234.9z"/>
				<path class="st0" d="M311.9,239.8c0-3.2,2.1-5.1,4.4-5.1c2.5,0,3.9,1.8,3.9,4.6c0,0.4,0,0.7-0.1,0.9h-6.6
					c0.1,2.1,1.4,3.4,3.2,3.4c1,0,1.7-0.3,2.5-0.8l0.6,1.1c-0.9,0.6-1.9,1-3.2,1C313.9,244.9,311.9,243.1,311.9,239.8L311.9,239.8z
					 M318.7,239c0-2-0.9-3-2.4-3c-1.4,0-2.6,1.1-2.8,3H318.7z"/>
				<path class="st0" d="M322.6,234.9h1.4l0.1,1.4h0c0.9-0.9,1.9-1.7,3.3-1.7c2,0,3,1.3,3,3.8v6.2h-1.6v-6c0-1.8-0.6-2.6-1.9-2.6
					c-1,0-1.7,0.5-2.7,1.5v7.1h-1.6L322.6,234.9L322.6,234.9z"/>
				<path class="st0" d="M333.9,241.7v-5.4h-1.5V235l1.5-0.1l0.2-2.7h1.4v2.7h2.6v1.3h-2.6v5.5c0,1.2,0.4,1.9,1.5,1.9
					c0.3,0,0.8-0.1,1.1-0.2l0.3,1.2c-0.6,0.2-1.2,0.4-1.8,0.4C334.6,245,333.9,243.7,333.9,241.7L333.9,241.7z"/>
				<path class="st0" d="M339.3,242.2c0-2.1,1.9-3.2,6-3.7c0-1.3-0.4-2.5-2-2.5c-1.1,0-2.2,0.5-2.9,1l-0.6-1.1
					c0.9-0.6,2.3-1.3,3.9-1.3c2.4,0,3.4,1.6,3.4,4v6h-1.4l-0.1-1.2h0c-0.9,0.8-2,1.4-3.2,1.4C340.5,244.9,339.3,243.9,339.3,242.2
					L339.3,242.2z M345.3,242.3v-2.7c-3.3,0.4-4.4,1.2-4.4,2.5c0,1.1,0.8,1.6,1.7,1.6S344.4,243.2,345.3,242.3z"/>
				<path class="st0" d="M350.1,241.7v-5.4h-1.5V235l1.5-0.1l0.2-2.7h1.4v2.7h2.6v1.3h-2.6v5.5c0,1.2,0.4,1.9,1.5,1.9
					c0.3,0,0.8-0.1,1.1-0.2l0.3,1.2c-0.6,0.2-1.2,0.4-1.8,0.4C350.8,245,350.1,243.7,350.1,241.7L350.1,241.7z"/>
				<path class="st0" d="M356.3,231.9c0-0.7,0.5-1.1,1.1-1.1s1.1,0.4,1.1,1.1c0,0.6-0.5,1.1-1.1,1.1S356.3,232.5,356.3,231.9z
					 M356.6,234.9h1.6v9.8h-1.6V234.9z"/>
				<path class="st0" d="M360.8,239.8c0-3.3,2.1-5.1,4.5-5.1s4.5,1.9,4.5,5.1s-2.1,5.1-4.5,5.1S360.8,243.1,360.8,239.8z
					 M368.2,239.8c0-2.2-1.1-3.8-2.8-3.8s-2.8,1.5-2.8,3.8s1.1,3.8,2.8,3.8S368.2,242.1,368.2,239.8z"/>
				<path class="st0" d="M372.4,234.9h1.4l0.1,1.4h0c0.9-0.9,1.9-1.7,3.3-1.7c2,0,3,1.3,3,3.8v6.2h-1.6v-6c0-1.8-0.6-2.6-1.9-2.6
					c-1,0-1.7,0.5-2.7,1.5v7.1h-1.6L372.4,234.9L372.4,234.9z"/>
				<path class="st0" d="M387.6,239.3v-7.7h1.7v7.8c0,3.2,1.4,4.2,3.1,4.2s3.1-1,3.1-4.2v-7.8h1.6v7.7c0,4.2-2,5.7-4.8,5.7
					S387.6,243.5,387.6,239.3L387.6,239.3z"/>
				<path class="st0" d="M400.5,234.9h1.4l0.1,1.4h0c0.9-0.9,1.9-1.7,3.3-1.7c2,0,3,1.3,3,3.8v6.2h-1.6v-6c0-1.8-0.6-2.6-1.9-2.6
					c-1,0-1.7,0.5-2.7,1.5v7.1h-1.6L400.5,234.9L400.5,234.9z"/>
				<path class="st0" d="M411.1,231.9c0-0.7,0.5-1.1,1.1-1.1s1.1,0.4,1.1,1.1c0,0.6-0.5,1.1-1.1,1.1S411.1,232.5,411.1,231.9z
					 M411.5,234.9h1.6v9.8h-1.6V234.9z"/>
				<path class="st0" d="M416.7,241.7v-5.4h-1.5V235l1.5-0.1l0.2-2.7h1.4v2.7h2.6v1.3h-2.6v5.5c0,1.2,0.4,1.9,1.5,1.9
					c0.3,0,0.8-0.1,1.1-0.2l0.3,1.2c-0.6,0.2-1.2,0.4-1.8,0.4C417.4,245,416.7,243.7,416.7,241.7L416.7,241.7z"/>
				<path class="st0" d="M421.9,243.6l0.8-1.1c0.9,0.7,1.7,1.1,2.9,1.1c1.3,0,1.9-0.7,1.9-1.5c0-1-1.1-1.4-2.2-1.9
					c-1.4-0.5-2.9-1.2-2.9-2.8c0-1.6,1.2-2.8,3.4-2.8c1.2,0,2.3,0.5,3,1.1l-0.8,1.1c-0.7-0.5-1.4-0.9-2.2-0.9
					c-1.2,0-1.8,0.6-1.8,1.4c0,0.9,1.1,1.3,2.2,1.7c1.4,0.5,3,1.1,3,3c0,1.6-1.3,2.9-3.6,2.9C424.1,244.9,422.8,244.4,421.9,243.6
					L421.9,243.6z"/>
			</g>
		</g>
		<g>
			<path class="st6" d="M172.4,265.3l10.6,6.8v0.1l-10.6,6.8h0L172.4,265.3L172.4,265.3L172.4,265.3z"/>
			<path d="M193.3,265h3.8c3,0,4.9,1,4.9,3.9s-2,4.1-4.9,4.1h-2.2v5.2h-1.7V265L193.3,265z M196.9,271.6c2.3,0,3.4-0.9,3.4-2.7
				s-1.2-2.5-3.5-2.5h-1.9v5.3L196.9,271.6L196.9,271.6z"/>
			<path d="M203.3,273.4c0-3.3,2.1-5.1,4.5-5.1s4.5,1.9,4.5,5.1s-2.1,5.1-4.5,5.1S203.3,276.6,203.3,273.4z M210.7,273.4
				c0-2.2-1.1-3.8-2.8-3.8s-2.8,1.5-2.8,3.8s1.1,3.8,2.8,3.8S210.7,275.6,210.7,273.4z"/>
			<path d="M214.9,276.3v-12.4h1.6v12.5c0,0.5,0.2,0.7,0.5,0.7c0.1,0,0.2,0,0.3,0l0.2,1.3c-0.2,0.1-0.5,0.1-0.9,0.1
				C215.4,278.5,214.9,277.7,214.9,276.3L214.9,276.3z"/>
			<path d="M219.7,265.4c0-0.7,0.5-1.1,1.1-1.1s1.1,0.4,1.1,1.1c0,0.6-0.5,1.1-1.1,1.1S219.7,266,219.7,265.4z M220.1,268.5h1.6v9.8
				h-1.6V268.5z"/>
			<path d="M224.3,273.4c0-3.3,2.2-5.1,4.7-5.1c1.3,0,2.2,0.5,2.9,1.1l-0.9,1.1c-0.6-0.5-1.2-0.9-2-0.9c-1.8,0-3.1,1.5-3.1,3.8
				s1.2,3.8,3,3.8c0.9,0,1.7-0.4,2.3-1l0.7,1.1c-0.9,0.8-2,1.2-3.1,1.2C226.2,278.5,224.2,276.6,224.3,273.4L224.3,273.4z"/>
			<path d="M233.3,282.2l0.3-1.3c0.2,0.1,0.5,0.2,0.7,0.2c1.1,0,1.8-0.9,2.2-2.1l0.2-0.7l-3.9-9.8h1.7l2,5.4
				c0.3,0.9,0.6,1.9,0.9,2.7h0.1c0.3-0.9,0.6-1.9,0.8-2.7l1.8-5.4h1.6l-3.7,10.6c-0.7,1.9-1.7,3.4-3.6,3.4
				C234,282.5,233.6,282.4,233.3,282.2L233.3,282.2z"/>
			<path d="M247.8,265h3.8c3,0,4.9,1,4.9,3.9s-2,4.1-4.9,4.1h-2.2v5.2h-1.7V265L247.8,265z M251.5,271.6c2.3,0,3.4-0.9,3.4-2.7
				s-1.2-2.5-3.5-2.5h-1.9v5.3L251.5,271.6L251.5,271.6z"/>
			<path d="M259.1,276.3v-12.4h1.6v12.5c0,0.5,0.2,0.7,0.5,0.7c0.1,0,0.2,0,0.3,0l0.2,1.3c-0.2,0.1-0.5,0.1-1,0.1
				C259.6,278.5,259.1,277.7,259.1,276.3L259.1,276.3z"/>
			<path d="M263.6,275.7c0-2.1,1.9-3.2,6-3.7c0-1.3-0.4-2.5-2-2.5c-1.1,0-2.2,0.5-2.9,1l-0.6-1.1c0.9-0.6,2.3-1.3,3.9-1.3
				c2.4,0,3.4,1.6,3.4,4v6h-1.4l-0.1-1.2h0c-0.9,0.8-2,1.4-3.2,1.4C264.8,278.4,263.6,277.4,263.6,275.7L263.6,275.7z M269.6,275.9
				v-2.7c-3.3,0.4-4.4,1.2-4.4,2.5c0,1.1,0.8,1.6,1.7,1.6S268.7,276.7,269.6,275.9L269.6,275.9z"/>
			<path d="M274.4,268.5h1.4l0.1,1.4h0c0.9-0.9,1.9-1.7,3.3-1.7c2,0,3,1.3,3,3.8v6.2h-1.6v-6c0-1.8-0.6-2.6-1.9-2.6
				c-1,0-1.7,0.5-2.7,1.5v7.1h-1.6L274.4,268.5L274.4,268.5z"/>
			<path d="M285.4,268.5h1.4l0.1,1.4h0c0.9-0.9,1.9-1.7,3.3-1.7c2,0,3,1.3,3,3.8v6.2h-1.6v-6c0-1.8-0.6-2.6-1.9-2.6
				c-1,0-1.7,0.5-2.7,1.5v7.1h-1.6L285.4,268.5L285.4,268.5z"/>
			<path d="M296,265.4c0-0.7,0.5-1.1,1.1-1.1s1.1,0.4,1.1,1.1c0,0.6-0.5,1.1-1.1,1.1S296,266,296,265.4z M296.4,268.5h1.6v9.8h-1.6
				V268.5z"/>
			<path d="M301.3,268.5h1.4l0.1,1.4h0c0.9-0.9,1.9-1.7,3.3-1.7c2,0,3,1.3,3,3.8v6.2h-1.6v-6c0-1.8-0.6-2.6-1.9-2.6
				c-1,0-1.7,0.5-2.7,1.5v7.1h-1.6L301.3,268.5L301.3,268.5z"/>
			<path d="M311.5,280.1c0-0.8,0.5-1.6,1.5-2.2v-0.1c-0.5-0.3-0.9-0.8-0.9-1.6s0.6-1.5,1.1-1.8v-0.1c-0.6-0.5-1.3-1.5-1.3-2.6
				c0-2.1,1.7-3.5,3.7-3.5c0.5,0,1,0.1,1.4,0.2h3.4v1.3h-2c0.5,0.5,0.8,1.2,0.8,2c0,2.1-1.6,3.4-3.6,3.4c-0.5,0-1-0.1-1.5-0.3
				c-0.4,0.3-0.6,0.6-0.6,1.2c0,0.6,0.4,1.1,1.7,1.1h1.9c2.3,0,3.4,0.7,3.4,2.3c0,1.8-1.9,3.4-4.9,3.4
				C313.2,282.7,311.5,281.8,311.5,280.1L311.5,280.1z M318.9,279.6c0-0.9-0.7-1.2-2-1.2h-1.7c-0.4,0-0.8,0-1.3-0.2
				c-0.7,0.5-1,1.1-1,1.7c0,1,1.1,1.7,2.8,1.7C317.7,281.6,318.9,280.6,318.9,279.6L318.9,279.6z M317.7,271.7
				c0-1.4-0.9-2.3-2.1-2.3s-2.1,0.9-2.1,2.3s1,2.3,2.1,2.3S317.7,273.1,317.7,271.7z"/>
			<path d="M326.6,265h3.3c4,0,6.2,2.4,6.2,6.5s-2.2,6.6-6.2,6.6h-3.4V265L326.6,265z M329.8,276.9c3.1,0,4.6-1.9,4.6-5.3
				s-1.5-5.2-4.6-5.2h-1.5v10.5H329.8z"/>
			<path d="M338.5,265.4c0-0.7,0.5-1.1,1.1-1.1s1.1,0.4,1.1,1.1c0,0.6-0.5,1.1-1.1,1.1S338.5,266,338.5,265.4z M338.8,268.5h1.6v9.8
				h-1.6V268.5z"/>
			<path d="M342.4,268.5h1.7l1.8,5.6c0.3,1,0.6,2,0.9,2.9h0.1c0.3-0.9,0.6-1.9,0.9-2.9l1.9-5.6h1.6l-3.5,9.8h-1.9L342.4,268.5z"/>
			<path d="M352.9,265.4c0-0.7,0.5-1.1,1.1-1.1s1.1,0.4,1.1,1.1c0,0.6-0.5,1.1-1.1,1.1S352.9,266,352.9,265.4z M353.2,268.5h1.6v9.8
				h-1.6V268.5z"/>
			<path d="M357,277.1l0.8-1.1c0.9,0.7,1.7,1.1,2.9,1.1c1.3,0,1.9-0.7,1.9-1.5c0-1-1.1-1.4-2.2-1.9c-1.4-0.5-2.9-1.2-2.9-2.8
				c0-1.5,1.2-2.8,3.4-2.8c1.2,0,2.3,0.5,3,1.1l-0.8,1.1c-0.7-0.5-1.4-0.9-2.2-0.9c-1.2,0-1.8,0.6-1.8,1.4c0,0.9,1.1,1.3,2.2,1.7
				c1.4,0.5,3,1.1,3,3c0,1.6-1.3,2.9-3.6,2.9C359.3,278.5,357.9,277.9,357,277.1L357,277.1z"/>
			<path d="M366.2,265.4c0-0.7,0.5-1.1,1.1-1.1s1.1,0.4,1.1,1.1c0,0.6-0.5,1.1-1.1,1.1S366.2,266,366.2,265.4z M366.5,268.5h1.6v9.8
				h-1.6V268.5z"/>
			<path d="M370.8,273.4c0-3.3,2.1-5.1,4.5-5.1s4.5,1.9,4.5,5.1s-2.1,5.1-4.5,5.1S370.8,276.6,370.8,273.4z M378.1,273.4
				c0-2.2-1.1-3.8-2.8-3.8s-2.8,1.5-2.8,3.8s1.1,3.8,2.8,3.8S378.1,275.6,378.1,273.4z"/>
			<path d="M382.4,268.5h1.4l0.1,1.4h0c0.9-0.9,1.9-1.7,3.3-1.7c2,0,3,1.3,3,3.8v6.2h-1.6v-6c0-1.8-0.6-2.6-1.9-2.6
				c-1,0-1.7,0.5-2.7,1.5v7.1h-1.6L382.4,268.5L382.4,268.5z"/>
			<path class="st6" d="M172.4,295.3l10.6,6.8v0.1l-10.6,6.8h0L172.4,295.3L172.4,295.3L172.4,295.3z"/>
			<path d="M192.5,301.6c0-4.3,2.5-6.9,5.9-6.9c1.6,0,2.9,0.8,3.6,1.6l-0.9,1.1c-0.7-0.7-1.6-1.3-2.7-1.3c-2.5,0-4.2,2-4.2,5.4
				s1.6,5.4,4.1,5.4c1.3,0,2.2-0.6,3.1-1.5l0.9,1c-1,1.2-2.3,1.9-4.1,1.9C195,308.5,192.5,305.9,192.5,301.6L192.5,301.6z"/>
			<path d="M203.9,303.4c0-3.3,2.1-5.1,4.5-5.1s4.5,1.9,4.5,5.1s-2.1,5.1-4.5,5.1S203.9,306.6,203.9,303.4z M211.2,303.4
				c0-2.2-1.1-3.8-2.8-3.8s-2.8,1.5-2.8,3.8s1.1,3.8,2.8,3.8S211.2,305.6,211.2,303.4z"/>
			<path d="M215.5,298.5h1.4l0.1,1.4h0.1c0.9-0.9,1.9-1.7,3-1.7c1.5,0,2.3,0.7,2.7,1.9c1-1.1,2-1.9,3.2-1.9c2,0,3,1.3,3,3.8v6.2
				h-1.6v-6c0-1.8-0.6-2.6-1.8-2.6c-0.8,0-1.6,0.5-2.5,1.5v7.1h-1.6v-6c0-1.8-0.6-2.6-1.8-2.6c-0.7,0-1.6,0.5-2.5,1.5v7.1h-1.6
				L215.5,298.5L215.5,298.5z"/>
			<path d="M232.2,298.5h1.4l0.1,1.4h0.1c0.9-0.9,1.9-1.7,3-1.7c1.5,0,2.3,0.7,2.7,1.9c1-1.1,2-1.9,3.2-1.9c2,0,3,1.3,3,3.8v6.2H244
				v-6c0-1.8-0.6-2.6-1.8-2.6c-0.8,0-1.6,0.5-2.5,1.5v7.1h-1.6v-6c0-1.8-0.6-2.6-1.8-2.6c-0.7,0-1.6,0.5-2.5,1.5v7.1h-1.6
				L232.2,298.5L232.2,298.5z"/>
			<path d="M248.7,304.6v-6.2h1.6v6c0,1.8,0.5,2.6,1.8,2.6c1,0,1.7-0.5,2.6-1.7v-6.9h1.6v9.8h-1.4l-0.1-1.5h-0.1
				c-0.9,1.1-1.9,1.8-3.2,1.8C249.6,308.5,248.7,307.1,248.7,304.6L248.7,304.6z"/>
			<path d="M259.8,298.5h1.4l0.1,1.4h0c0.9-0.9,1.9-1.7,3.3-1.7c2,0,3,1.3,3,3.8v6.2h-1.6v-6c0-1.8-0.6-2.6-1.9-2.6
				c-1,0-1.7,0.5-2.7,1.5v7.1h-1.6L259.8,298.5L259.8,298.5z"/>
			<path d="M270.5,295.4c0-0.7,0.5-1.1,1.1-1.1s1.1,0.4,1.1,1.1c0,0.6-0.5,1.1-1.1,1.1S270.5,296,270.5,295.4z M270.8,298.5h1.6v9.8
				h-1.6V298.5z"/>
			<path d="M275,303.4c0-3.3,2.2-5.1,4.7-5.1c1.3,0,2.2,0.5,2.9,1.1l-0.9,1.1c-0.6-0.5-1.2-0.9-2-0.9c-1.8,0-3.1,1.5-3.1,3.8
				s1.2,3.8,3,3.8c0.9,0,1.7-0.4,2.3-1l0.7,1.1c-0.9,0.8-2,1.2-3.1,1.2C277,308.5,275,306.6,275,303.4L275,303.4z"/>
			<path d="M284.1,305.7c0-2.1,1.9-3.2,6-3.7c0-1.3-0.4-2.5-2-2.5c-1.1,0-2.2,0.5-2.9,1l-0.6-1.1c0.9-0.6,2.3-1.3,3.9-1.3
				c2.4,0,3.4,1.6,3.4,4v6h-1.4l-0.1-1.2h0c-0.9,0.8-2,1.4-3.2,1.4C285.3,308.4,284.1,307.4,284.1,305.7L284.1,305.7z M290.1,305.9
				v-2.7c-3.3,0.4-4.4,1.2-4.4,2.5c0,1.1,0.8,1.6,1.7,1.6S289.1,306.7,290.1,305.9L290.1,305.9z"/>
			<path d="M294.9,305.2v-5.4h-1.5v-1.2l1.5-0.1l0.2-2.7h1.4v2.7h2.6v1.3h-2.6v5.5c0,1.2,0.4,1.9,1.5,1.9c0.3,0,0.8-0.1,1.1-0.2
				l0.3,1.2c-0.6,0.2-1.2,0.4-1.8,0.4C295.6,308.5,294.9,307.2,294.9,305.2L294.9,305.2z"/>
			<path d="M301,295.4c0-0.7,0.5-1.1,1.1-1.1s1.1,0.4,1.1,1.1c0,0.6-0.5,1.1-1.1,1.1S301,296,301,295.4z M301.4,298.5h1.6v9.8h-1.6
				V298.5z"/>
			<path d="M305.6,303.4c0-3.3,2.1-5.1,4.5-5.1s4.5,1.9,4.5,5.1s-2.1,5.1-4.5,5.1S305.6,306.6,305.6,303.4z M313,303.4
				c0-2.2-1.1-3.8-2.8-3.8s-2.8,1.5-2.8,3.8s1.1,3.8,2.8,3.8S313,305.6,313,303.4z"/>
			<path d="M317.2,298.5h1.4l0.1,1.4h0c0.9-0.9,1.9-1.7,3.3-1.7c2,0,3,1.3,3,3.8v6.2h-1.6v-6c0-1.8-0.6-2.6-1.9-2.6
				c-1,0-1.7,0.5-2.7,1.5v7.1h-1.6L317.2,298.5L317.2,298.5z"/>
			<path d="M327.1,307.1l0.8-1.1c0.9,0.7,1.7,1.1,2.9,1.1c1.3,0,1.9-0.7,1.9-1.5c0-1-1.1-1.4-2.2-1.9c-1.4-0.5-2.9-1.2-2.9-2.8
				c0-1.5,1.2-2.8,3.4-2.8c1.2,0,2.3,0.5,3,1.1l-0.8,1.1c-0.7-0.5-1.4-0.9-2.2-0.9c-1.2,0-1.8,0.6-1.8,1.4c0,0.9,1.1,1.3,2.2,1.7
				c1.4,0.5,3,1.1,3,3c0,1.6-1.3,2.9-3.6,2.9C329.4,308.5,328.1,307.9,327.1,307.1L327.1,307.1z"/>
			<path d="M340.8,295h3.3c4,0,6.2,2.4,6.2,6.5s-2.2,6.6-6.2,6.6h-3.4V295L340.8,295z M344,306.9c3.1,0,4.6-1.9,4.6-5.3
				s-1.5-5.2-4.6-5.2h-1.5v10.5H344z"/>
			<path d="M352.7,295.4c0-0.7,0.5-1.1,1.1-1.1s1.1,0.4,1.1,1.1c0,0.6-0.5,1.1-1.1,1.1S352.7,296,352.7,295.4z M353,298.5h1.6v9.8
				H353V298.5z"/>
			<path d="M356.6,298.5h1.7l1.8,5.6c0.3,1,0.6,2,0.9,2.9h0.1c0.3-0.9,0.6-1.9,0.9-2.9l1.9-5.6h1.6l-3.5,9.8h-1.9L356.6,298.5z"/>
			<path d="M367.1,295.4c0-0.7,0.5-1.1,1.1-1.1s1.1,0.4,1.1,1.1c0,0.6-0.5,1.1-1.1,1.1S367.1,296,367.1,295.4z M367.4,298.5h1.6v9.8
				h-1.6V298.5z"/>
			<path d="M371.2,307.1l0.8-1.1c0.9,0.7,1.7,1.1,2.9,1.1c1.3,0,1.9-0.7,1.9-1.5c0-1-1.1-1.4-2.2-1.9c-1.4-0.5-2.9-1.2-2.9-2.8
				c0-1.5,1.2-2.8,3.4-2.8c1.2,0,2.3,0.5,3,1.1l-0.8,1.1c-0.7-0.5-1.4-0.9-2.2-0.9c-1.2,0-1.8,0.6-1.8,1.4c0,0.9,1.1,1.3,2.2,1.7
				c1.4,0.5,3,1.1,3,3c0,1.6-1.3,2.9-3.6,2.9C373.5,308.5,372.2,307.9,371.2,307.1L371.2,307.1z"/>
			<path d="M380.4,295.4c0-0.7,0.5-1.1,1.1-1.1s1.1,0.4,1.1,1.1c0,0.6-0.5,1.1-1.1,1.1S380.4,296,380.4,295.4z M380.7,298.5h1.6v9.8
				h-1.6V298.5z"/>
			<path d="M385,303.4c0-3.3,2.1-5.1,4.5-5.1s4.5,1.9,4.5,5.1s-2.1,5.1-4.5,5.1S385,306.6,385,303.4z M392.3,303.4
				c0-2.2-1.1-3.8-2.8-3.8s-2.8,1.5-2.8,3.8s1.1,3.8,2.8,3.8S392.3,305.6,392.3,303.4z"/>
			<path d="M396.6,298.5h1.4l0.1,1.4h0c0.9-0.9,1.9-1.7,3.3-1.7c2,0,3,1.3,3,3.8v6.2h-1.6v-6c0-1.8-0.6-2.6-1.9-2.6
				c-1,0-1.7,0.5-2.7,1.5v7.1h-1.6L396.6,298.5L396.6,298.5z"/>
			<path class="st6" d="M172.4,325.3l10.6,6.8v0.1l-10.6,6.8h0L172.4,325.3L172.4,325.3L172.4,325.3z"/>
			<path d="M193.3,325h3.8c3,0,4.9,1,4.9,3.9s-2,4.1-4.9,4.1h-2.2v5.2h-1.7V325L193.3,325z M196.9,331.6c2.3,0,3.4-0.9,3.4-2.7
				s-1.2-2.5-3.5-2.5h-1.9v5.3L196.9,331.6L196.9,331.6z"/>
			<path d="M204.5,336.3v-12.4h1.6v12.5c0,0.5,0.2,0.7,0.5,0.7c0.1,0,0.2,0,0.3,0l0.2,1.3c-0.2,0.1-0.5,0.1-0.9,0.1
				C205,338.5,204.5,337.7,204.5,336.3L204.5,336.3z"/>
			<path d="M209,335.7c0-2.1,1.9-3.2,6-3.7c0-1.3-0.4-2.5-2-2.5c-1.1,0-2.2,0.5-2.9,1l-0.6-1.1c0.9-0.6,2.3-1.3,3.9-1.3
				c2.4,0,3.4,1.6,3.4,4v6h-1.4l-0.1-1.2h-0.1c-0.9,0.8-2,1.4-3.2,1.4C210.2,338.4,209,337.4,209,335.7L209,335.7z M215,335.9v-2.7
				c-3.3,0.4-4.4,1.2-4.4,2.5c0,1.1,0.8,1.6,1.7,1.6S214.1,336.7,215,335.9L215,335.9z"/>
			<path d="M219.8,335.2v-5.4h-1.5v-1.2l1.5-0.1l0.2-2.7h1.4v2.7h2.6v1.3h-2.6v5.5c0,1.2,0.4,1.9,1.5,1.9c0.3,0,0.8-0.1,1.1-0.2
				l0.3,1.2c-0.6,0.2-1.2,0.4-1.8,0.4C220.5,338.5,219.8,337.2,219.8,335.2L219.8,335.2z"/>
			<path d="M230.7,325.2c-0.4-0.2-0.8-0.2-1.1-0.2c-0.9,0-1.4,0.7-1.4,1.9v1.5h2.1v1.3h-2.1v8.4h-1.6v-8.4h-1.3v-1.2l1.3-0.1v-1.6
				c0-2,0.9-3.2,2.8-3.2c0.6,0,1.2,0.1,1.6,0.3L230.7,325.2L230.7,325.2z"/>
			<path d="M231.2,333.4c0-3.3,2.1-5.1,4.5-5.1s4.5,1.9,4.5,5.1s-2.1,5.1-4.5,5.1S231.2,336.6,231.2,333.4z M238.6,333.4
				c0-2.2-1.1-3.8-2.8-3.8s-2.8,1.5-2.8,3.8s1.1,3.8,2.8,3.8S238.6,335.6,238.6,333.4z"/>
			<path d="M242.9,328.5h1.4l0.1,1.8h0.1c0.7-1.2,1.7-2,2.8-2c0.4,0,0.7,0,1,0.2l-0.3,1.4c-0.3-0.1-0.6-0.2-0.9-0.2
				c-0.8,0-1.8,0.6-2.5,2.2v6.3h-1.6L242.9,328.5L242.9,328.5z"/>
			<path d="M249.8,328.5h1.4l0.1,1.4h0.1c0.9-0.9,1.9-1.7,3-1.7c1.5,0,2.3,0.7,2.7,1.9c1-1.1,2-1.9,3.2-1.9c2,0,3,1.3,3,3.8v6.2
				h-1.6v-6c0-1.8-0.6-2.6-1.8-2.6c-0.8,0-1.5,0.5-2.5,1.5v7.1h-1.6v-6c0-1.8-0.6-2.6-1.8-2.6c-0.7,0-1.6,0.5-2.5,1.5v7.1h-1.6
				L249.8,328.5L249.8,328.5z"/>
			<path d="M270.7,325h7.6v1.4h-5.9v4.1h5v1.4h-5v4.8h6.1v1.4h-7.8L270.7,325L270.7,325z"/>
			<path d="M280.2,333.4c0-3.3,2.2-5.1,4.7-5.1c1.3,0,2.2,0.5,2.9,1.1l-0.9,1.1c-0.6-0.5-1.2-0.9-2-0.9c-1.8,0-3.1,1.5-3.1,3.8
				s1.2,3.8,3,3.8c0.9,0,1.7-0.4,2.3-1l0.7,1.1c-0.9,0.8-2,1.2-3.1,1.2C282.2,338.5,280.2,336.6,280.2,333.4L280.2,333.4z"/>
			<path d="M288.9,333.4c0-3.3,2.1-5.1,4.5-5.1s4.5,1.9,4.5,5.1s-2.1,5.1-4.5,5.1S288.9,336.6,288.9,333.4z M296.3,333.4
				c0-2.2-1.1-3.8-2.8-3.8s-2.8,1.5-2.8,3.8s1.1,3.8,2.8,3.8S296.3,335.6,296.3,333.4z"/>
			<path d="M300.6,328.5h1.4l0.1,1.4h0c0.9-0.9,1.9-1.7,3.3-1.7c2,0,3,1.3,3,3.8v6.2h-1.6v-6c0-1.8-0.6-2.6-1.9-2.6
				c-1,0-1.7,0.5-2.7,1.5v7.1h-1.6L300.6,328.5L300.6,328.5z"/>
			<path d="M310.8,333.4c0-3.3,2.1-5.1,4.5-5.1s4.5,1.9,4.5,5.1s-2.1,5.1-4.5,5.1S310.8,336.6,310.8,333.4z M318.2,333.4
				c0-2.2-1.1-3.8-2.8-3.8s-2.8,1.5-2.8,3.8s1.1,3.8,2.8,3.8S318.2,335.6,318.2,333.4z"/>
			<path d="M322.5,328.5h1.4l0.1,1.4h0c0.9-0.9,1.9-1.7,3-1.7c1.5,0,2.3,0.7,2.7,1.9c1-1.1,2-1.9,3.2-1.9c2,0,3,1.3,3,3.8v6.2h-1.6
				v-6c0-1.8-0.6-2.6-1.8-2.6c-0.8,0-1.5,0.5-2.5,1.5v7.1h-1.6v-6c0-1.8-0.6-2.6-1.8-2.6c-0.7,0-1.6,0.5-2.5,1.5v7.1h-1.6
				L322.5,328.5L322.5,328.5z"/>
			<path d="M338.1,342.2l0.3-1.3c0.2,0.1,0.5,0.2,0.7,0.2c1.1,0,1.8-0.9,2.2-2.1l0.2-0.7l-3.9-9.8h1.7l2,5.4
				c0.3,0.9,0.6,1.9,0.9,2.7h0.1c0.3-0.9,0.6-1.9,0.8-2.7l1.8-5.4h1.6l-3.7,10.6c-0.7,1.9-1.7,3.4-3.6,3.4
				C338.8,342.5,338.5,342.4,338.1,342.2L338.1,342.2z"/>
			<path d="M352.7,325h3.3c4,0,6.2,2.4,6.2,6.5s-2.2,6.6-6.2,6.6h-3.4V325L352.7,325z M355.9,336.9c3.1,0,4.6-1.9,4.6-5.3
				s-1.5-5.2-4.6-5.2h-1.5v10.5H355.9z"/>
			<path d="M364.6,325.4c0-0.7,0.5-1.1,1.1-1.1s1.1,0.4,1.1,1.1c0,0.6-0.5,1.1-1.1,1.1S364.6,326,364.6,325.4z M364.9,328.5h1.6v9.8
				h-1.6V328.5z"/>
			<path d="M368.4,328.5h1.7l1.8,5.6c0.3,1,0.6,2,0.9,2.9h0.1c0.3-0.9,0.6-1.9,0.9-2.9l1.9-5.6h1.6l-3.5,9.8H372L368.4,328.5z"/>
			<path d="M378.9,325.4c0-0.7,0.5-1.1,1.1-1.1s1.1,0.4,1.1,1.1c0,0.6-0.5,1.1-1.1,1.1S378.9,326,378.9,325.4z M379.2,328.5h1.6v9.8
				h-1.6V328.5z"/>
			<path d="M383.1,337.1l0.8-1.1c0.9,0.7,1.7,1.1,2.9,1.1c1.3,0,1.9-0.7,1.9-1.5c0-1-1.1-1.4-2.2-1.9c-1.4-0.5-2.9-1.2-2.9-2.8
				c0-1.5,1.2-2.8,3.4-2.8c1.2,0,2.3,0.5,3,1.1l-0.8,1.1c-0.7-0.5-1.4-0.9-2.2-0.9c-1.2,0-1.8,0.6-1.8,1.4c0,0.9,1.1,1.3,2.2,1.7
				c1.4,0.5,3,1.1,3,3c0,1.6-1.3,2.9-3.6,2.9C385.4,338.5,384,337.9,383.1,337.1L383.1,337.1z"/>
			<path d="M392.3,325.4c0-0.7,0.5-1.1,1.1-1.1s1.1,0.4,1.1,1.1c0,0.6-0.5,1.1-1.1,1.1S392.3,326,392.3,325.4z M392.6,328.5h1.6v9.8
				h-1.6V328.5z"/>
			<path d="M396.8,333.4c0-3.3,2.1-5.1,4.5-5.1s4.5,1.9,4.5,5.1s-2.1,5.1-4.5,5.1S396.8,336.6,396.8,333.4z M404.2,333.4
				c0-2.2-1.1-3.8-2.8-3.8s-2.8,1.5-2.8,3.8s1.1,3.8,2.8,3.8S404.2,335.6,404.2,333.4z"/>
			<path d="M408.5,328.5h1.4l0.1,1.4h0c0.9-0.9,1.9-1.7,3.3-1.7c2,0,3,1.3,3,3.8v6.2h-1.6v-6c0-1.8-0.6-2.6-1.9-2.6
				c-1,0-1.7,0.5-2.7,1.5v7.1h-1.6L408.5,328.5L408.5,328.5z"/>
			<path class="st6" d="M172.4,355.3l10.6,6.8v0.1l-10.6,6.8h0L172.4,355.3L172.4,355.3L172.4,355.3z"/>
			<path d="M193.3,355h7.6v1.4h-5.9v4.1h5v1.4h-5v4.8h6.1v1.4h-7.8L193.3,355L193.3,355z"/>
			<path d="M203.7,358.5h1.4l0.1,1.4h0.1c0.9-0.9,1.9-1.7,3-1.7c1.5,0,2.3,0.7,2.7,1.9c1-1.1,2-1.9,3.2-1.9c2,0,3,1.3,3,3.8v6.2
				h-1.6v-6c0-1.8-0.6-2.6-1.8-2.6c-0.8,0-1.6,0.5-2.5,1.5v7.1h-1.6v-6c0-1.8-0.6-2.6-1.8-2.6c-0.7,0-1.6,0.5-2.5,1.5v7.1h-1.6
				L203.7,358.5L203.7,358.5z"/>
			<path d="M219.6,363.4c0-3.2,2.1-5.1,4.4-5.1c2.5,0,3.9,1.8,3.9,4.6c0,0.4,0,0.7-0.1,0.9h-6.6c0.1,2.1,1.4,3.4,3.2,3.4
				c0.9,0,1.7-0.3,2.4-0.8l0.6,1.1c-0.9,0.6-1.9,1-3.2,1C221.7,368.5,219.6,366.6,219.6,363.4L219.6,363.4z M226.5,362.6
				c0-2-0.9-3-2.4-3c-1.4,0-2.6,1.1-2.8,3H226.5L226.5,362.6z"/>
			<path d="M230.4,358.5h1.4l0.1,1.8h0.1c0.7-1.2,1.7-2,2.8-2c0.4,0,0.7,0,1,0.2l-0.3,1.4c-0.3-0.1-0.6-0.2-0.9-0.2
				c-0.8,0-1.8,0.6-2.5,2.2v6.3h-1.6L230.4,358.5L230.4,358.5z"/>
			<path d="M236.4,370.1c0-0.8,0.5-1.6,1.5-2.2v-0.1c-0.5-0.3-0.9-0.8-0.9-1.6s0.6-1.5,1.1-1.8v-0.1c-0.6-0.5-1.3-1.5-1.3-2.6
				c0-2.1,1.7-3.5,3.7-3.5c0.5,0,1,0.1,1.4,0.2h3.4v1.3h-2c0.5,0.5,0.8,1.2,0.8,2c0,2.1-1.6,3.4-3.6,3.4c-0.5,0-1-0.1-1.5-0.3
				c-0.4,0.3-0.6,0.6-0.6,1.2c0,0.6,0.4,1.1,1.7,1.1h1.9c2.3,0,3.4,0.7,3.4,2.3c0,1.8-1.9,3.4-4.9,3.4
				C238,372.7,236.4,371.8,236.4,370.1L236.4,370.1z M243.8,369.6c0-0.9-0.7-1.2-2-1.2h-1.7c-0.4,0-0.8,0-1.3-0.2
				c-0.7,0.5-1,1.1-1,1.7c0,1,1.1,1.7,2.8,1.7C242.5,371.6,243.8,370.6,243.8,369.6L243.8,369.6z M242.5,361.7
				c0-1.4-0.9-2.3-2.1-2.3s-2.1,0.9-2.1,2.3s0.9,2.3,2.1,2.3S242.5,363.1,242.5,361.7z"/>
			<path d="M247,355.4c0-0.7,0.5-1.1,1.1-1.1s1.1,0.4,1.1,1.1c0,0.6-0.5,1.1-1.1,1.1S247,356,247,355.4z M247.3,358.5h1.6v9.8h-1.6
				V358.5z"/>
			<path d="M252.2,358.5h1.4l0.1,1.4h0.1c0.9-0.9,1.9-1.7,3.3-1.7c2,0,3,1.3,3,3.8v6.2h-1.6v-6c0-1.8-0.6-2.6-1.9-2.6
				c-1,0-1.7,0.5-2.7,1.5v7.1h-1.6V358.5L252.2,358.5z"/>
			<path d="M262.5,370.1c0-0.8,0.5-1.6,1.5-2.2v-0.1c-0.5-0.3-0.9-0.8-0.9-1.6s0.6-1.5,1.1-1.8v-0.1c-0.6-0.5-1.3-1.5-1.3-2.6
				c0-2.1,1.7-3.5,3.7-3.5c0.5,0,1,0.1,1.4,0.2h3.4v1.3h-2c0.5,0.5,0.8,1.2,0.8,2c0,2.1-1.6,3.4-3.6,3.4c-0.5,0-1-0.1-1.5-0.3
				c-0.4,0.3-0.6,0.6-0.6,1.2c0,0.6,0.4,1.1,1.7,1.1h1.9c2.3,0,3.4,0.7,3.4,2.3c0,1.8-1.9,3.4-4.9,3.4
				C264.1,372.7,262.5,371.8,262.5,370.1L262.5,370.1z M269.9,369.6c0-0.9-0.7-1.2-2-1.2h-1.7c-0.4,0-0.8,0-1.3-0.2
				c-0.7,0.5-1,1.1-1,1.7c0,1,1.1,1.7,2.8,1.7C268.6,371.6,269.9,370.6,269.9,369.6L269.9,369.6z M268.6,361.7
				c0-1.4-0.9-2.3-2.1-2.3s-2.1,0.9-2.1,2.3s1,2.3,2.1,2.3S268.6,363.1,268.6,361.7z"/>
			<path d="M276.8,365.7c0-2.1,1.9-3.2,6-3.7c0-1.3-0.4-2.5-2-2.5c-1.1,0-2.2,0.5-2.9,1l-0.6-1.1c0.9-0.6,2.3-1.3,3.9-1.3
				c2.4,0,3.4,1.6,3.4,4v6h-1.4l-0.1-1.2h0c-0.9,0.8-2,1.4-3.2,1.4C278,368.4,276.8,367.4,276.8,365.7L276.8,365.7z M282.8,365.9
				v-2.7c-3.3,0.4-4.4,1.2-4.4,2.5c0,1.1,0.8,1.6,1.7,1.6S281.8,366.7,282.8,365.9L282.8,365.9z"/>
			<path d="M287.5,358.5h1.4l0.1,1.4h0c0.9-0.9,1.9-1.7,3.3-1.7c2,0,3,1.3,3,3.8v6.2h-1.6v-6c0-1.8-0.6-2.6-1.9-2.6
				c-1,0-1.7,0.5-2.7,1.5v7.1h-1.6L287.5,358.5L287.5,358.5z"/>
			<path d="M297.8,363.4c0-3.2,2-5.1,4.2-5.1c1.1,0,1.9,0.4,2.8,1.1l-0.1-1.7v-3.8h1.6v14.3H305l-0.2-1.1h0c-0.8,0.8-1.8,1.4-3,1.4
				C299.4,368.5,297.8,366.6,297.8,363.4L297.8,363.4z M304.7,365.7v-5.1c-0.8-0.7-1.6-1-2.4-1c-1.6,0-2.8,1.5-2.8,3.8
				c0,2.4,1,3.8,2.7,3.8C303.1,367.1,303.9,366.6,304.7,365.7L304.7,365.7z"/>
			<path d="M313.1,361.6c0-4.3,2.5-6.9,5.9-6.9c1.6,0,2.9,0.8,3.6,1.6l-0.9,1.1c-0.7-0.7-1.6-1.3-2.7-1.3c-2.5,0-4.2,2-4.2,5.4
				s1.6,5.4,4.1,5.4c1.3,0,2.2-0.6,3.1-1.5l0.9,1c-1,1.2-2.3,1.9-4,1.9C315.6,368.5,313.1,365.9,313.1,361.6L313.1,361.6z"/>
			<path d="M325.2,358.5h1.4l0.1,1.8h0c0.7-1.2,1.7-2,2.8-2c0.4,0,0.7,0,1,0.2l-0.3,1.4c-0.3-0.1-0.6-0.2-1-0.2
				c-0.8,0-1.8,0.6-2.5,2.2v6.3h-1.6L325.2,358.5L325.2,358.5z"/>
			<path d="M331.2,363.4c0-3.3,2.1-5.1,4.5-5.1s4.5,1.9,4.5,5.1s-2.1,5.1-4.5,5.1S331.2,366.6,331.2,363.4z M338.6,363.4
				c0-2.2-1.1-3.8-2.8-3.8s-2.8,1.5-2.8,3.8s1.1,3.8,2.8,3.8S338.6,365.6,338.6,363.4z"/>
			<path d="M341.8,367.1l0.8-1.1c0.9,0.7,1.7,1.1,2.9,1.1c1.3,0,1.9-0.7,1.9-1.5c0-1-1.1-1.4-2.2-1.9c-1.4-0.5-2.9-1.2-2.9-2.8
				c0-1.5,1.2-2.8,3.4-2.8c1.2,0,2.3,0.5,3,1.1l-0.8,1.1c-0.7-0.5-1.4-0.9-2.2-0.9c-1.2,0-1.8,0.6-1.8,1.4c0,0.9,1.1,1.3,2.2,1.7
				c1.4,0.5,3,1.1,3,3c0,1.6-1.3,2.9-3.6,2.9C344.1,368.5,342.7,367.9,341.8,367.1L341.8,367.1z"/>
			<path d="M350.2,367.1l0.8-1.1c0.9,0.7,1.7,1.1,2.9,1.1c1.3,0,1.9-0.7,1.9-1.5c0-1-1.1-1.4-2.2-1.9c-1.4-0.5-2.9-1.2-2.9-2.8
				c0-1.5,1.2-2.8,3.4-2.8c1.2,0,2.3,0.5,3,1.1l-0.8,1.1c-0.7-0.5-1.4-0.9-2.2-0.9c-1.2,0-1.8,0.6-1.8,1.4c0,0.9,1.1,1.3,2.2,1.7
				c1.4,0.5,3,1.1,3,3c0,1.6-1.3,2.9-3.6,2.9C352.5,368.5,351.2,367.9,350.2,367.1L350.2,367.1z"/>
			<path d="M359.1,362.6h4.6v1.3h-4.6V362.6z"/>
			<path d="M366.3,355h3.3c4,0,6.2,2.4,6.2,6.5s-2.2,6.6-6.2,6.6h-3.4V355L366.3,355z M369.5,366.9c3.1,0,4.6-1.9,4.6-5.3
				s-1.5-5.2-4.6-5.2H368v10.5H369.5z"/>
			<path d="M377.8,363.4c0-3.3,2.1-5.1,4.5-5.1s4.5,1.9,4.5,5.1s-2.1,5.1-4.5,5.1S377.8,366.6,377.8,363.4z M385.2,363.4
				c0-2.2-1.1-3.8-2.8-3.8s-2.8,1.5-2.8,3.8s1.1,3.8,2.8,3.8S385.2,365.6,385.2,363.4z"/>
			<path d="M389.5,358.5h1.4l0.1,1.4h0c0.9-0.9,1.9-1.7,3-1.7c1.5,0,2.3,0.7,2.7,1.9c1-1.1,2-1.9,3.2-1.9c2,0,3,1.3,3,3.8v6.2h-1.6
				v-6c0-1.8-0.6-2.6-1.8-2.6c-0.8,0-1.5,0.5-2.5,1.5v7.1h-1.6v-6c0-1.8-0.6-2.6-1.8-2.6c-0.7,0-1.6,0.5-2.5,1.5v7.1h-1.6
				L389.5,358.5L389.5,358.5z"/>
			<path d="M405.5,365.7c0-2.1,1.9-3.2,6-3.7c0-1.3-0.4-2.5-2-2.5c-1.1,0-2.2,0.5-2.9,1l-0.6-1.1c0.9-0.6,2.3-1.3,3.9-1.3
				c2.4,0,3.4,1.6,3.4,4v6h-1.4l-0.1-1.2h0c-0.9,0.8-2,1.4-3.2,1.4C406.7,368.4,405.5,367.4,405.5,365.7L405.5,365.7z M411.5,365.9
				v-2.7c-3.3,0.4-4.4,1.2-4.4,2.5c0,1.1,0.8,1.6,1.7,1.6S410.6,366.7,411.5,365.9L411.5,365.9z"/>
			<path d="M416,355.4c0-0.7,0.5-1.1,1.1-1.1s1.1,0.4,1.1,1.1c0,0.6-0.5,1.1-1.1,1.1S416,356,416,355.4z M416.3,358.5h1.6v9.8h-1.6
				V358.5z"/>
			<path d="M421.2,358.5h1.4l0.1,1.4h0c0.9-0.9,1.9-1.7,3.3-1.7c2,0,3,1.3,3,3.8v6.2h-1.6v-6c0-1.8-0.6-2.6-1.9-2.6
				c-1,0-1.7,0.5-2.7,1.5v7.1h-1.6L421.2,358.5L421.2,358.5z"/>
			<path d="M436.4,355h3.3c4,0,6.2,2.4,6.2,6.5s-2.2,6.6-6.2,6.6h-3.4V355L436.4,355z M439.6,366.9c3.1,0,4.6-1.9,4.6-5.3
				s-1.5-5.2-4.6-5.2h-1.5v10.5H439.6z"/>
			<path d="M448.3,355.4c0-0.7,0.5-1.1,1.1-1.1s1.1,0.4,1.1,1.1c0,0.6-0.5,1.1-1.1,1.1S448.3,356,448.3,355.4z M448.6,358.5h1.6v9.8
				h-1.6V358.5z"/>
			<path d="M452.2,358.5h1.7l1.8,5.6c0.3,1,0.6,2,0.9,2.9h0.1c0.3-0.9,0.6-1.9,0.9-2.9l1.9-5.6h1.6l-3.5,9.8h-1.9L452.2,358.5z"/>
			<path d="M462.7,355.4c0-0.7,0.5-1.1,1.1-1.1s1.1,0.4,1.1,1.1c0,0.6-0.5,1.1-1.1,1.1S462.7,356,462.7,355.4z M463,358.5h1.6v9.8
				H463V358.5z"/>
			<path d="M466.8,367.1l0.8-1.1c0.9,0.7,1.7,1.1,2.9,1.1c1.3,0,1.9-0.7,1.9-1.5c0-1-1.1-1.4-2.2-1.9c-1.4-0.5-2.9-1.2-2.9-2.8
				c0-1.5,1.2-2.8,3.4-2.8c1.2,0,2.3,0.5,3,1.1l-0.8,1.1c-0.7-0.5-1.4-0.9-2.2-0.9c-1.2,0-1.8,0.6-1.8,1.4c0,0.9,1.1,1.3,2.2,1.7
				c1.4,0.5,3,1.1,3,3c0,1.6-1.3,2.9-3.6,2.9C469.1,368.5,467.7,367.9,466.8,367.1L466.8,367.1z"/>
			<path d="M476,355.4c0-0.7,0.5-1.1,1.1-1.1s1.1,0.4,1.1,1.1c0,0.6-0.5,1.1-1.1,1.1S476,356,476,355.4z M476.3,358.5h1.6v9.8h-1.6
				V358.5z"/>
			<path d="M480.5,363.4c0-3.3,2.1-5.1,4.5-5.1s4.5,1.9,4.5,5.1s-2.1,5.1-4.5,5.1S480.5,366.6,480.5,363.4z M487.9,363.4
				c0-2.2-1.1-3.8-2.8-3.8s-2.8,1.5-2.8,3.8s1.1,3.8,2.8,3.8S487.9,365.6,487.9,363.4z"/>
			<path d="M492.2,358.5h1.4l0.1,1.4h0c0.9-0.9,1.9-1.7,3.3-1.7c2,0,3,1.3,3,3.8v6.2h-1.6v-6c0-1.8-0.6-2.6-1.9-2.6
				c-1,0-1.7,0.5-2.7,1.5v7.1h-1.6L492.2,358.5L492.2,358.5z"/>
			<path class="st6" d="M172.4,385.3l10.6,6.8v0.1l-10.6,6.8h0L172.4,385.3L172.4,385.3L172.4,385.3z"/>
			<path d="M193.3,385h3.3c4.1,0,6.2,2.4,6.2,6.5s-2.2,6.6-6.2,6.6h-3.4L193.3,385L193.3,385z M196.4,396.9c3.1,0,4.6-1.9,4.6-5.3
				s-1.5-5.2-4.6-5.2h-1.5v10.5H196.4z"/>
			<path d="M205.2,385.4c0-0.7,0.5-1.1,1.1-1.1s1.1,0.4,1.1,1.1c0,0.6-0.5,1.1-1.1,1.1S205.2,386,205.2,385.4z M205.5,388.5h1.6v9.8
				h-1.6V388.5z"/>
			<path d="M209.7,400.1c0-0.8,0.5-1.6,1.5-2.2v-0.1c-0.5-0.3-0.9-0.8-0.9-1.6s0.6-1.5,1.1-1.8v-0.1c-0.6-0.5-1.3-1.5-1.3-2.6
				c0-2.1,1.7-3.5,3.7-3.5c0.5,0,1,0.1,1.4,0.2h3.4v1.3h-2c0.5,0.5,0.8,1.2,0.8,2c0,2.1-1.6,3.4-3.6,3.4c-0.5,0-1-0.1-1.5-0.3
				c-0.4,0.3-0.6,0.6-0.6,1.2c0,0.6,0.4,1.1,1.7,1.1h1.9c2.3,0,3.4,0.7,3.4,2.3c0,1.8-1.9,3.4-4.9,3.4
				C211.3,402.7,209.7,401.8,209.7,400.1L209.7,400.1z M217.1,399.6c0-0.9-0.7-1.2-2-1.2h-1.7c-0.4,0-0.8,0-1.3-0.2
				c-0.7,0.5-1,1.1-1,1.7c0,1,1.1,1.7,2.8,1.7C215.8,401.6,217.1,400.6,217.1,399.6L217.1,399.6z M215.8,391.7
				c0-1.4-0.9-2.3-2.1-2.3s-2.1,0.9-2.1,2.3s0.9,2.3,2.1,2.3S215.8,393.1,215.8,391.7z"/>
			<path d="M220.3,385.4c0-0.7,0.5-1.1,1.1-1.1s1.1,0.4,1.1,1.1c0,0.6-0.5,1.1-1.1,1.1S220.3,386,220.3,385.4z M220.6,388.5h1.6v9.8
				h-1.6V388.5z"/>
			<path d="M225.8,395.2v-5.4h-1.5v-1.2l1.5-0.1l0.2-2.7h1.4v2.7h2.6v1.3h-2.6v5.5c0,1.2,0.4,1.9,1.5,1.9c0.3,0,0.8-0.1,1.1-0.2
				l0.3,1.2c-0.6,0.2-1.2,0.4-1.8,0.4C226.5,398.5,225.8,397.2,225.8,395.2L225.8,395.2z"/>
			<path d="M231.3,395.7c0-2.1,1.9-3.2,6-3.7c0-1.3-0.4-2.5-2-2.5c-1.1,0-2.2,0.5-2.9,1l-0.6-1.1c0.9-0.6,2.3-1.3,3.9-1.3
				c2.4,0,3.4,1.6,3.4,4v6h-1.4l-0.1-1.2h-0.1c-0.9,0.8-2,1.4-3.2,1.4C232.5,398.4,231.3,397.4,231.3,395.7L231.3,395.7z
				 M237.3,395.9v-2.7c-3.3,0.4-4.4,1.2-4.4,2.5c0,1.1,0.8,1.6,1.7,1.6S236.3,396.7,237.3,395.9L237.3,395.9z"/>
			<path d="M242,396.3v-12.4h1.6v12.5c0,0.5,0.2,0.7,0.5,0.7c0.1,0,0.2,0,0.3,0l0.2,1.3c-0.2,0.1-0.5,0.1-0.9,0.1
				C242.5,398.5,242,397.7,242,396.3L242,396.3z"/>
			<path d="M250.4,396.5l1-1.1c0.9,1,2.3,1.6,3.6,1.6c1.7,0,2.8-0.9,2.8-2.2s-1-1.8-2.2-2.3l-1.9-0.8c-1.2-0.5-2.7-1.5-2.7-3.4
				c0-2,1.8-3.5,4.2-3.5c1.6,0,2.9,0.7,3.9,1.6l-0.9,1.1c-0.8-0.8-1.8-1.2-3-1.2c-1.5,0-2.5,0.8-2.5,1.9c0,1.3,1.1,1.8,2.2,2.2
				l1.9,0.8c1.5,0.7,2.7,1.6,2.7,3.5c0,2.1-1.7,3.8-4.5,3.8C253.1,398.5,251.5,397.7,250.4,396.5L250.4,396.5z"/>
			<path d="M261.2,393.4c0-3.2,2.1-5.1,4.4-5.1c2.5,0,3.9,1.8,3.9,4.6c0,0.4,0,0.7-0.1,0.9h-6.6c0.1,2.1,1.4,3.4,3.2,3.4
				c1,0,1.7-0.3,2.5-0.8l0.6,1.1c-0.9,0.6-1.9,1-3.2,1C263.3,398.5,261.2,396.6,261.2,393.4L261.2,393.4z M268.1,392.6
				c0-2-0.9-3-2.4-3c-1.4,0-2.6,1.1-2.8,3H268.1z"/>
			<path d="M271.9,388.5h1.4l0.1,1.8h0c0.7-1.2,1.7-2,2.8-2c0.4,0,0.7,0,1,0.2l-0.3,1.4c-0.3-0.1-0.6-0.2-1-0.2
				c-0.8,0-1.8,0.6-2.5,2.2v6.3h-1.6L271.9,388.5L271.9,388.5z"/>
			<path d="M278,388.5h1.7l1.8,5.6c0.3,1,0.6,2,0.9,2.9h0.1c0.3-0.9,0.6-1.9,0.9-2.9l1.9-5.6h1.6l-3.5,9.8h-1.9L278,388.5z"/>
			<path d="M288.5,385.4c0-0.7,0.5-1.1,1.1-1.1s1.1,0.4,1.1,1.1c0,0.6-0.5,1.1-1.1,1.1S288.5,386,288.5,385.4z M288.8,388.5h1.6v9.8
				h-1.6V388.5z"/>
			<path d="M293,393.4c0-3.3,2.2-5.1,4.7-5.1c1.3,0,2.2,0.5,2.9,1.1l-0.9,1.1c-0.6-0.5-1.2-0.9-2-0.9c-1.8,0-3.1,1.5-3.1,3.8
				s1.2,3.8,3,3.8c0.9,0,1.7-0.4,2.3-1l0.7,1.1c-0.9,0.8-2,1.2-3.1,1.2C295,398.5,293,396.6,293,393.4L293,393.4z"/>
			<path d="M301.7,393.4c0-3.2,2.1-5.1,4.4-5.1c2.5,0,3.9,1.8,3.9,4.6c0,0.4,0,0.7-0.1,0.9h-6.6c0.1,2.1,1.4,3.4,3.2,3.4
				c1,0,1.7-0.3,2.5-0.8l0.6,1.1c-0.9,0.6-1.9,1-3.2,1C303.8,398.5,301.7,396.6,301.7,393.4L301.7,393.4z M308.6,392.6
				c0-2-0.9-3-2.4-3c-1.4,0-2.6,1.1-2.8,3H308.6z"/>
			<path d="M316.6,385h3.3c4,0,6.2,2.4,6.2,6.5s-2.2,6.6-6.2,6.6h-3.4V385L316.6,385z M319.8,396.9c3.1,0,4.6-1.9,4.6-5.3
				s-1.5-5.2-4.6-5.2h-1.5v10.5H319.8z"/>
			<path d="M328.5,385.4c0-0.7,0.5-1.1,1.1-1.1s1.1,0.4,1.1,1.1c0,0.6-0.5,1.1-1.1,1.1S328.5,386,328.5,385.4z M328.9,388.5h1.6v9.8
				h-1.6V388.5z"/>
			<path d="M332.4,388.5h1.7l1.8,5.6c0.3,1,0.6,2,0.9,2.9h0.1c0.3-0.9,0.6-1.9,0.9-2.9l1.9-5.6h1.6l-3.5,9.8h-1.9L332.4,388.5z"/>
			<path d="M342.9,385.4c0-0.7,0.5-1.1,1.1-1.1s1.1,0.4,1.1,1.1c0,0.6-0.5,1.1-1.1,1.1S342.9,386,342.9,385.4z M343.2,388.5h1.6v9.8
				h-1.6V388.5z"/>
			<path d="M347,397.1l0.8-1.1c0.9,0.7,1.7,1.1,2.9,1.1c1.3,0,1.9-0.7,1.9-1.5c0-1-1.1-1.4-2.2-1.9c-1.4-0.5-2.9-1.2-2.9-2.8
				c0-1.5,1.2-2.8,3.4-2.8c1.2,0,2.3,0.5,3,1.1l-0.8,1.1c-0.7-0.5-1.4-0.9-2.2-0.9c-1.2,0-1.8,0.6-1.8,1.4c0,0.9,1.1,1.3,2.2,1.7
				c1.4,0.5,3,1.1,3,3c0,1.6-1.3,2.9-3.6,2.9C349.3,398.5,348,397.9,347,397.1L347,397.1z"/>
			<path d="M356.2,385.4c0-0.7,0.5-1.1,1.1-1.1s1.1,0.4,1.1,1.1c0,0.6-0.5,1.1-1.1,1.1S356.2,386,356.2,385.4z M356.5,388.5h1.6v9.8
				h-1.6V388.5z"/>
			<path d="M360.8,393.4c0-3.3,2.1-5.1,4.5-5.1s4.5,1.9,4.5,5.1s-2.1,5.1-4.5,5.1S360.8,396.6,360.8,393.4z M368.1,393.4
				c0-2.2-1.1-3.8-2.8-3.8s-2.8,1.5-2.8,3.8s1.1,3.8,2.8,3.8S368.1,395.6,368.1,393.4z"/>
			<path d="M372.4,388.5h1.4l0.1,1.4h0c0.9-0.9,1.9-1.7,3.3-1.7c2,0,3,1.3,3,3.8v6.2h-1.6v-6c0-1.8-0.6-2.6-1.9-2.6
				c-1,0-1.7,0.5-2.7,1.5v7.1h-1.6L372.4,388.5L372.4,388.5z"/>
		</g>
	</g>
	<g>
		<g>
			<path class="st6" d="M171.9,461.8l10.6,6.8v0.1l-10.6,6.8h0L171.9,461.8L171.9,461.8L171.9,461.8z"/>
			<path d="M191.8,473l1-1.1c0.9,1,2.3,1.6,3.6,1.6c1.7,0,2.8-0.9,2.8-2.2s-0.9-1.8-2.2-2.3l-1.9-0.8c-1.2-0.5-2.7-1.5-2.7-3.4
				c0-2,1.8-3.5,4.2-3.5c1.6,0,2.9,0.7,3.9,1.6l-0.9,1.1c-0.8-0.8-1.8-1.2-3-1.2c-1.5,0-2.5,0.8-2.5,1.9c0,1.3,1.1,1.8,2.2,2.2
				l1.9,0.8c1.5,0.7,2.7,1.6,2.7,3.5c0,2.1-1.7,3.8-4.5,3.8C194.6,475,193,474.2,191.8,473L191.8,473z"/>
			<path d="M202.6,469.9c0-3.2,2.1-5.1,4.4-5.1c2.5,0,3.9,1.8,3.9,4.6c0,0.4,0,0.7-0.1,0.9h-6.6c0.1,2.1,1.4,3.4,3.2,3.4
				c0.9,0,1.7-0.3,2.4-0.8l0.6,1.1c-0.9,0.6-1.9,1-3.2,1C204.7,475,202.6,473.1,202.6,469.9L202.6,469.9z M209.5,469.1
				c0-2-0.9-3-2.4-3c-1.4,0-2.6,1.1-2.8,3H209.5L209.5,469.1z"/>
			<path d="M212.6,469.9c0-3.3,2.2-5.1,4.7-5.1c1.3,0,2.2,0.5,2.9,1.1l-0.9,1.1c-0.6-0.5-1.2-0.9-2-0.9c-1.8,0-3.1,1.5-3.1,3.8
				s1.2,3.8,3,3.8c0.9,0,1.7-0.4,2.3-1l0.7,1.1c-0.9,0.8-2,1.2-3.1,1.2C214.6,475,212.6,473.1,212.6,469.9L212.6,469.9z"/>
			<path d="M222.5,465h1.4l0.1,1.8h0.1c0.7-1.2,1.7-2,2.8-2c0.4,0,0.7,0,1,0.2l-0.3,1.4c-0.3-0.1-0.6-0.2-0.9-0.2
				c-0.8,0-1.8,0.6-2.5,2.2v6.3h-1.6L222.5,465L222.5,465z"/>
			<path d="M228.6,469.9c0-3.2,2.1-5.1,4.4-5.1c2.5,0,3.9,1.8,3.9,4.6c0,0.4,0,0.7-0.1,0.9h-6.6c0.1,2.1,1.4,3.4,3.2,3.4
				c0.9,0,1.7-0.3,2.4-0.8l0.6,1.1c-0.9,0.6-1.9,1-3.2,1C230.7,475,228.6,473.1,228.6,469.9L228.6,469.9z M235.4,469.1
				c0-2-0.9-3-2.4-3c-1.4,0-2.6,1.1-2.8,3H235.4L235.4,469.1z"/>
			<path d="M239.4,471.7v-5.4h-1.5v-1.2l1.5-0.1l0.2-2.7h1.4v2.7h2.6v1.3H241v5.5c0,1.2,0.4,1.9,1.5,1.9c0.3,0,0.8-0.1,1.1-0.2
				l0.3,1.2c-0.6,0.2-1.2,0.4-1.8,0.4C240.1,475,239.4,473.7,239.4,471.7L239.4,471.7z"/>
			<path d="M244.8,472.2c0-2.1,1.9-3.2,6-3.7c0-1.3-0.4-2.5-2-2.5c-1.1,0-2.2,0.5-2.9,1l-0.6-1.1c0.9-0.6,2.3-1.3,3.9-1.3
				c2.4,0,3.4,1.6,3.4,4v6h-1.4l-0.1-1.2h-0.1c-0.9,0.8-2,1.4-3.2,1.4C246,475,244.8,474,244.8,472.2L244.8,472.2z M250.8,472.4
				v-2.7c-3.3,0.4-4.4,1.2-4.4,2.5c0,1.1,0.8,1.6,1.7,1.6S249.9,473.2,250.8,472.4L250.8,472.4z"/>
			<path d="M255.6,465h1.4l0.1,1.8h0c0.7-1.2,1.7-2,2.8-2c0.4,0,0.7,0,1,0.2l-0.3,1.4c-0.3-0.1-0.6-0.2-1-0.2
				c-0.8,0-1.8,0.6-2.5,2.2v6.3h-1.6L255.6,465L255.6,465z"/>
			<path d="M262.3,461.9c0-0.7,0.5-1.1,1.1-1.1s1.1,0.4,1.1,1.1c0,0.6-0.5,1.1-1.1,1.1S262.3,462.5,262.3,461.9z M262.6,465h1.6v9.8
				h-1.6V465z"/>
			<path d="M266.9,472.2c0-2.1,1.9-3.2,6-3.7c0-1.3-0.4-2.5-2-2.5c-1.1,0-2.2,0.5-2.9,1l-0.6-1.1c0.9-0.6,2.3-1.3,3.9-1.3
				c2.4,0,3.4,1.6,3.4,4v6h-1.4l-0.1-1.2h0c-0.9,0.8-2,1.4-3.2,1.4C268.1,475,266.9,474,266.9,472.2L266.9,472.2z M272.9,472.4v-2.7
				c-3.3,0.4-4.4,1.2-4.4,2.5c0,1.1,0.8,1.6,1.7,1.6S272,473.2,272.9,472.4L272.9,472.4z"/>
			<path d="M277.7,471.7v-5.4h-1.5v-1.2l1.5-0.1l0.2-2.7h1.4v2.7h2.6v1.3h-2.6v5.5c0,1.2,0.4,1.9,1.5,1.9c0.3,0,0.8-0.1,1.1-0.2
				l0.3,1.2c-0.6,0.2-1.2,0.4-1.8,0.4C278.4,475,277.7,473.7,277.7,471.7L277.7,471.7z"/>
			<path class="st6" d="M171.9,491.8l10.6,6.8v0.1l-10.6,6.8h0L171.9,491.8L171.9,491.8L171.9,491.8z"/>
			<path d="M192.8,491.6h3.8c3,0,4.9,1,4.9,3.9s-2,4.1-4.9,4.1h-2.2v5.2h-1.7V491.6L192.8,491.6z M196.4,498.2
				c2.3,0,3.4-0.9,3.4-2.7s-1.2-2.5-3.5-2.5h-1.9v5.3L196.4,498.2L196.4,498.2z"/>
			<path d="M202.8,499.9c0-3.2,2.1-5.1,4.4-5.1c2.5,0,3.9,1.8,3.9,4.6c0,0.4,0,0.7-0.1,0.9h-6.6c0.1,2.1,1.4,3.4,3.2,3.4
				c0.9,0,1.7-0.3,2.4-0.8l0.6,1.1c-0.9,0.6-1.9,1-3.2,1C204.9,505,202.8,503.1,202.8,499.9L202.8,499.9z M209.6,499.1
				c0-2-0.9-3-2.4-3c-1.4,0-2.6,1.1-2.8,3H209.6L209.6,499.1z"/>
			<path d="M213.5,495h1.4l0.1,1.8h0.1c0.7-1.2,1.7-2,2.8-2c0.4,0,0.7,0,1,0.2l-0.3,1.4c-0.3-0.1-0.6-0.2-0.9-0.2
				c-0.8,0-1.8,0.6-2.5,2.2v6.3h-1.6L213.5,495L213.5,495z"/>
			<path d="M219.3,503.6l0.8-1.1c0.9,0.7,1.7,1.1,2.9,1.1c1.3,0,1.9-0.7,1.9-1.5c0-1-1.1-1.4-2.2-1.9c-1.4-0.5-2.9-1.2-2.9-2.8
				c0-1.5,1.2-2.8,3.4-2.8c1.2,0,2.3,0.5,3,1.1l-0.8,1.1c-0.7-0.5-1.4-0.9-2.2-0.9c-1.2,0-1.8,0.6-1.8,1.4c0,0.9,1.1,1.3,2.2,1.7
				c1.4,0.5,3,1.1,3,3c0,1.6-1.3,2.9-3.6,2.9C221.6,505,220.3,504.4,219.3,503.6L219.3,503.6z"/>
			<path d="M228.1,499.9c0-3.3,2.1-5.1,4.5-5.1s4.5,1.9,4.5,5.1s-2.1,5.1-4.5,5.1S228.1,503.1,228.1,499.9z M235.5,499.9
				c0-2.2-1.1-3.8-2.8-3.8s-2.8,1.5-2.8,3.8s1.1,3.8,2.8,3.8S235.5,502.1,235.5,499.9z"/>
			<path d="M239.8,495h1.4l0.1,1.4h0.1c0.9-0.9,1.9-1.7,3.3-1.7c2.1,0,3,1.3,3,3.8v6.2h-1.6v-6c0-1.8-0.6-2.6-1.9-2.6
				c-1,0-1.7,0.5-2.7,1.5v7.1h-1.6L239.8,495L239.8,495z"/>
			<path d="M250.7,495h1.4l0.1,1.4h0.1c0.9-0.9,1.9-1.7,3.3-1.7c2.1,0,3,1.3,3,3.8v6.2h-1.6v-6c0-1.8-0.6-2.6-1.9-2.6
				c-1,0-1.7,0.5-2.7,1.5v7.1h-1.6V495L250.7,495z"/>
			<path d="M261,499.9c0-3.2,2.1-5.1,4.4-5.1c2.5,0,3.9,1.8,3.9,4.6c0,0.4,0,0.7-0.1,0.9h-6.6c0.1,2.1,1.4,3.4,3.2,3.4
				c1,0,1.7-0.3,2.5-0.8l0.6,1.1c-0.9,0.6-1.9,1-3.2,1C263.1,505,261,503.1,261,499.9L261,499.9z M267.9,499.1c0-2-0.9-3-2.4-3
				c-1.4,0-2.6,1.1-2.8,3H267.9z"/>
			<path d="M271.7,502.8v-12.4h1.6v12.5c0,0.5,0.2,0.7,0.5,0.7c0.1,0,0.2,0,0.3,0l0.2,1.3c-0.2,0.1-0.5,0.1-1,0.1
				C272.2,505,271.7,504.2,271.7,502.8L271.7,502.8z"/>
			<path d="M280.3,498.1c0-4.2,2.3-6.8,5.6-6.8s5.6,2.6,5.6,6.8s-2.3,6.9-5.6,6.9S280.3,502.3,280.3,498.1z M289.8,498.1
				c0-3.3-1.6-5.4-3.9-5.4s-3.9,2-3.9,5.4s1.5,5.4,3.9,5.4S289.8,501.4,289.8,498.1z"/>
			<path d="M300.2,493.4c0-2,0.9-3.2,2.9-3.2c0.6,0,1.2,0.1,1.6,0.3l-0.4,1.2c-0.4-0.2-0.8-0.2-1.1-0.2c-0.9,0-1.4,0.7-1.4,1.9v1.5
				h2.1v1.3h-2.1v8.4h-1.6v-8.4h-4.1v8.4h-1.6v-8.4h-1.3v-1.2l1.3-0.1v-1.3c0-2,1-3.3,3-3.3c0.6,0,1.3,0.1,1.8,0.3L299,492
				c-0.4-0.2-0.8-0.3-1.3-0.3c-1,0-1.5,0.7-1.5,2v1.3h4.1L300.2,493.4L300.2,493.4z M307.8,491.9c0,0.6-0.5,1.1-1.1,1.1
				s-1.1-0.5-1.1-1.1c0-0.7,0.5-1.1,1.1-1.1S307.8,491.2,307.8,491.9z M305.8,495h1.6v9.8h-1.6V495z"/>
			<path d="M310,499.9c0-3.3,2.2-5.1,4.7-5.1c1.3,0,2.2,0.5,2.9,1.1l-0.9,1.1c-0.6-0.5-1.2-0.9-2-0.9c-1.8,0-3.1,1.5-3.1,3.8
				s1.2,3.8,3,3.8c0.9,0,1.7-0.4,2.3-1l0.7,1.1c-0.9,0.8-2,1.2-3.1,1.2C312,505,310,503.1,310,499.9L310,499.9z"/>
			<path d="M318.8,499.9c0-3.2,2.1-5.1,4.4-5.1c2.5,0,3.9,1.8,3.9,4.6c0,0.4,0,0.7-0.1,0.9h-6.6c0.1,2.1,1.4,3.4,3.2,3.4
				c1,0,1.7-0.3,2.5-0.8l0.6,1.1c-0.9,0.6-1.9,1-3.2,1C320.8,505,318.8,503.1,318.8,499.9L318.8,499.9z M325.6,499.1
				c0-2-0.9-3-2.4-3c-1.4,0-2.6,1.1-2.8,3H325.6z"/>
			<path class="st6" d="M171.9,521.8l10.6,6.8v0.1l-10.6,6.8h0L171.9,521.8L171.9,521.8L171.9,521.8z"/>
			<path d="M198.8,530.7H194l-1.3,4H191l4.5-13.2h1.9l4.5,13.2h-1.8L198.8,530.7L198.8,530.7z M198.4,529.4l-0.6-2
				c-0.5-1.5-0.9-2.9-1.3-4.5h-0.1c-0.4,1.5-0.9,3-1.3,4.5l-0.6,2H198.4L198.4,529.4z"/>
			<path d="M202.8,529.9c0-3.3,2.2-5.2,4.7-5.2c1.3,0,2.2,0.5,2.9,1.2l-0.9,1.1c-0.6-0.5-1.2-0.9-2-0.9c-1.8,0-3.1,1.5-3.1,3.8
				s1.2,3.8,3,3.8c0.9,0,1.7-0.4,2.3-1l0.7,1.1c-0.9,0.8-2,1.2-3.1,1.2C204.8,535,202.8,533.1,202.8,529.9L202.8,529.9z"/>
			<path d="M211.6,529.9c0-3.3,2.2-5.2,4.7-5.2c1.3,0,2.2,0.5,2.9,1.2l-0.9,1.1c-0.6-0.5-1.2-0.9-2-0.9c-1.8,0-3.1,1.5-3.1,3.8
				s1.2,3.8,3,3.8c0.9,0,1.7-0.4,2.3-1l0.7,1.1c-0.9,0.8-2,1.2-3.1,1.2C213.6,535,211.6,533.1,211.6,529.9L211.6,529.9z"/>
			<path d="M220.3,529.9c0-3.3,2.1-5.2,4.5-5.2s4.5,1.9,4.5,5.2s-2.1,5.1-4.5,5.1S220.3,533.1,220.3,529.9z M227.7,529.9
				c0-2.2-1.1-3.8-2.8-3.8s-2.8,1.5-2.8,3.8s1.1,3.8,2.8,3.8S227.7,532.1,227.7,529.9z"/>
			<path d="M231.8,531.2V525h1.6v6c0,1.8,0.5,2.6,1.8,2.6c1,0,1.7-0.5,2.6-1.7V525h1.6v9.8h-1.4l-0.1-1.5H238
				c-0.9,1.1-1.9,1.8-3.2,1.8C232.7,535,231.8,533.7,231.8,531.2L231.8,531.2z"/>
			<path d="M242.9,525h1.4l0.1,1.4h0.1c0.9-0.9,1.9-1.7,3.3-1.7c2.1,0,3,1.3,3,3.8v6.2H249v-6c0-1.8-0.6-2.6-1.9-2.6
				c-1,0-1.7,0.5-2.7,1.5v7.1h-1.6L242.9,525L242.9,525z"/>
			<path d="M254.1,531.7v-5.4h-1.5v-1.2l1.5-0.1l0.2-2.7h1.4v2.7h2.6v1.3h-2.6v5.5c0,1.2,0.4,1.9,1.5,1.9c0.3,0,0.8-0.1,1.1-0.2
				l0.3,1.2c-0.6,0.2-1.2,0.4-1.8,0.4C254.9,535,254.2,533.7,254.1,531.7L254.1,531.7z"/>
			<path d="M260.3,521.9c0-0.7,0.5-1.1,1.1-1.1s1.1,0.4,1.1,1.1c0,0.6-0.5,1.1-1.1,1.1S260.3,522.5,260.3,521.9z M260.6,525h1.6v9.8
				h-1.6V525z"/>
			<path d="M265.6,525h1.4l0.1,1.4h0c0.9-0.9,1.9-1.7,3.3-1.7c2,0,3,1.3,3,3.8v6.2h-1.6v-6c0-1.8-0.6-2.6-1.9-2.6
				c-1,0-1.7,0.5-2.7,1.5v7.1h-1.6L265.6,525L265.6,525z"/>
			<path d="M275.8,536.6c0-0.8,0.5-1.6,1.5-2.2v-0.1c-0.5-0.3-0.9-0.8-0.9-1.6s0.6-1.5,1.1-1.8v-0.1c-0.6-0.5-1.3-1.5-1.3-2.6
				c0-2.1,1.7-3.5,3.7-3.5c0.5,0,1,0.1,1.4,0.2h3.4v1.3h-2c0.5,0.5,0.8,1.2,0.8,2c0,2.1-1.6,3.4-3.6,3.4c-0.5,0-1-0.1-1.5-0.3
				c-0.4,0.3-0.6,0.6-0.6,1.2c0,0.6,0.4,1.1,1.7,1.1h1.9c2.3,0,3.4,0.7,3.4,2.3c0,1.8-1.9,3.4-4.9,3.4
				C277.5,539.3,275.8,538.3,275.8,536.6L275.8,536.6z M283.2,536.1c0-0.9-0.7-1.2-2-1.2h-1.7c-0.4,0-0.8,0-1.3-0.2
				c-0.7,0.5-1,1.1-1,1.7c0,1,1.1,1.7,2.8,1.7C282,538.1,283.2,537.2,283.2,536.1L283.2,536.1z M282,528.2c0-1.4-0.9-2.3-2.1-2.3
				s-2.1,0.8-2.1,2.3s1,2.3,2.1,2.3S282,529.6,282,528.2z"/>
			<path d="M290.1,532.2c0-2.1,1.9-3.2,6-3.7c0-1.3-0.4-2.5-2-2.5c-1.1,0-2.2,0.5-2.9,1l-0.6-1.1c0.9-0.6,2.3-1.3,3.9-1.3
				c2.4,0,3.4,1.6,3.4,4v6h-1.4l-0.1-1.2h0c-0.9,0.8-2,1.4-3.2,1.4C291.4,535,290.1,534,290.1,532.2L290.1,532.2z M296.2,532.4v-2.7
				c-3.3,0.4-4.4,1.2-4.4,2.5c0,1.1,0.8,1.6,1.7,1.6S295.2,533.2,296.2,532.4z"/>
			<path d="M300.9,525h1.4l0.1,1.4h0c0.9-0.9,1.9-1.7,3.3-1.7c2,0,3,1.3,3,3.8v6.2h-1.6v-6c0-1.8-0.6-2.6-1.9-2.6
				c-1,0-1.7,0.5-2.7,1.5v7.1h-1.6L300.9,525L300.9,525z"/>
			<path d="M311.2,529.9c0-3.2,2-5.2,4.2-5.2c1.1,0,1.9,0.4,2.8,1.2l-0.1-1.7v-3.8h1.6v14.3h-1.3l-0.2-1.2h0c-0.8,0.8-1.8,1.4-3,1.4
				C312.8,535,311.2,533.1,311.2,529.9L311.2,529.9z M318.1,532.3v-5.1c-0.8-0.7-1.6-1-2.4-1c-1.6,0-2.8,1.5-2.8,3.8
				c0,2.4,1,3.8,2.7,3.8C316.5,533.6,317.3,533.2,318.1,532.3L318.1,532.3z"/>
			<path d="M326.3,533l1-1.1c1,1,2.3,1.6,3.6,1.6c1.7,0,2.8-0.9,2.8-2.2s-1-1.8-2.2-2.3l-1.9-0.8c-1.2-0.5-2.7-1.5-2.7-3.4
				c0-2,1.8-3.5,4.2-3.5c1.6,0,3,0.7,3.9,1.6l-0.9,1.1c-0.8-0.8-1.8-1.2-3-1.2c-1.5,0-2.5,0.8-2.5,1.9c0,1.3,1.1,1.8,2.2,2.2
				l1.9,0.8c1.5,0.7,2.7,1.6,2.7,3.5c0,2.1-1.7,3.8-4.5,3.8C329,535,327.4,534.2,326.3,533L326.3,533z"/>
			<path d="M337.6,531.7v-5.4h-1.5v-1.2l1.5-0.1l0.2-2.7h1.4v2.7h2.6v1.3h-2.6v5.5c0,1.2,0.4,1.9,1.5,1.9c0.3,0,0.8-0.1,1.1-0.2
				l0.3,1.2c-0.6,0.2-1.2,0.4-1.8,0.4C338.4,535,337.7,533.7,337.6,531.7L337.6,531.7z"/>
			<path d="M343.1,532.2c0-2.1,1.9-3.2,6-3.7c0-1.3-0.4-2.5-2-2.5c-1.1,0-2.2,0.5-2.9,1l-0.6-1.1c0.9-0.6,2.3-1.3,3.9-1.3
				c2.4,0,3.4,1.6,3.4,4v6h-1.4l-0.1-1.2h0c-0.9,0.8-2,1.4-3.2,1.4C344.3,535,343.1,534,343.1,532.2L343.1,532.2z M349.1,532.4v-2.7
				c-3.3,0.4-4.4,1.2-4.4,2.5c0,1.1,0.8,1.6,1.7,1.6S348.2,533.2,349.1,532.4z"/>
			<path d="M353.9,531.7v-5.4h-1.5v-1.2l1.5-0.1l0.2-2.7h1.4v2.7h2.6v1.3h-2.6v5.5c0,1.2,0.4,1.9,1.5,1.9c0.3,0,0.8-0.1,1.1-0.2
				l0.3,1.2c-0.6,0.2-1.2,0.4-1.8,0.4C354.6,535,353.9,533.7,353.9,531.7L353.9,531.7z"/>
			<path d="M360.1,521.9c0-0.7,0.5-1.1,1.1-1.1s1.1,0.4,1.1,1.1c0,0.6-0.5,1.1-1.1,1.1S360.1,522.5,360.1,521.9z M360.4,525h1.6v9.8
				h-1.6V525z"/>
			<path d="M364.2,533.6l0.8-1.1c0.9,0.7,1.7,1.2,2.9,1.2c1.3,0,1.9-0.7,1.9-1.5c0-1-1.1-1.4-2.2-1.8c-1.4-0.5-2.9-1.2-2.9-2.8
				c0-1.5,1.2-2.8,3.4-2.8c1.2,0,2.3,0.5,3,1.1l-0.8,1.1c-0.7-0.5-1.4-0.9-2.2-0.9c-1.2,0-1.8,0.7-1.8,1.4c0,0.9,1.1,1.3,2.2,1.7
				c1.4,0.5,3,1.1,3,3c0,1.6-1.3,2.9-3.6,2.9C366.5,535,365.2,534.4,364.2,533.6L364.2,533.6z"/>
			<path d="M373.6,531.7v-5.4h-1.5v-1.2l1.5-0.1l0.2-2.7h1.4v2.7h2.6v1.3h-2.6v5.5c0,1.2,0.4,1.9,1.5,1.9c0.3,0,0.8-0.1,1.1-0.2
				l0.3,1.2c-0.6,0.2-1.2,0.4-1.8,0.4C374.4,535,373.7,533.7,373.6,531.7L373.6,531.7z"/>
			<path d="M379.8,521.9c0-0.7,0.5-1.1,1.1-1.1s1.1,0.4,1.1,1.1c0,0.6-0.5,1.1-1.1,1.1S379.8,522.5,379.8,521.9z M380.1,525h1.6v9.8
				h-1.6V525z"/>
			<path d="M384.4,529.9c0-3.3,2.2-5.2,4.7-5.2c1.3,0,2.2,0.5,2.9,1.2l-0.9,1.1c-0.6-0.5-1.2-0.9-2-0.9c-1.8,0-3.1,1.5-3.1,3.8
				s1.2,3.8,3,3.8c0.9,0,1.7-0.4,2.3-1l0.7,1.1c-0.9,0.8-2,1.2-3.1,1.2C386.3,535,384.3,533.1,384.4,529.9L384.4,529.9z"/>
			<path d="M393.2,533.6l0.8-1.1c0.9,0.7,1.7,1.2,2.9,1.2c1.3,0,1.9-0.7,1.9-1.5c0-1-1.1-1.4-2.2-1.8c-1.4-0.5-2.9-1.2-2.9-2.8
				c0-1.5,1.2-2.8,3.4-2.8c1.2,0,2.3,0.5,3,1.1l-0.8,1.1c-0.7-0.5-1.4-0.9-2.2-0.9c-1.2,0-1.8,0.7-1.8,1.4c0,0.9,1.1,1.3,2.2,1.7
				c1.4,0.5,3,1.1,3,3c0,1.6-1.3,2.9-3.6,2.9C395.4,535,394.1,534.4,393.2,533.6L393.2,533.6z"/>
			<path d="M406.1,528.1c0-4.2,2.3-6.8,5.6-6.8s5.6,2.6,5.6,6.8s-2.3,6.9-5.6,6.9S406.1,532.3,406.1,528.1z M415.7,528.1
				c0-3.3-1.6-5.3-3.9-5.3s-3.9,2-3.9,5.3s1.5,5.4,3.9,5.4S415.7,531.4,415.7,528.1z"/>
			<path d="M426.1,523.4c0-2,0.9-3.2,2.9-3.2c0.6,0,1.2,0.1,1.6,0.3l-0.4,1.2c-0.4-0.2-0.8-0.2-1.1-0.2c-0.9,0-1.4,0.7-1.4,1.9v1.5
				h2.1v1.3h-2.1v8.4H426v-8.4H422v8.4h-1.6v-8.4H419v-1.2l1.3-0.1v-1.3c0-2,1-3.3,3-3.3c0.6,0,1.3,0.1,1.8,0.3l-0.3,1.3
				c-0.4-0.2-0.8-0.3-1.3-0.3c-1,0-1.5,0.7-1.5,2v1.3h4.1L426.1,523.4L426.1,523.4z M433.6,521.9c0,0.6-0.5,1.1-1.1,1.1
				s-1.1-0.5-1.1-1.1c0-0.7,0.5-1.1,1.1-1.1S433.6,521.2,433.6,521.9z M431.7,525h1.6v9.8h-1.6V525z"/>
			<path d="M435.9,529.9c0-3.3,2.2-5.2,4.7-5.2c1.3,0,2.2,0.5,2.9,1.2l-0.9,1.1c-0.6-0.5-1.2-0.9-2-0.9c-1.8,0-3.1,1.5-3.1,3.8
				s1.2,3.8,3,3.8c0.9,0,1.7-0.4,2.3-1l0.7,1.1c-0.9,0.8-2,1.2-3.1,1.2C437.8,535,435.8,533.1,435.9,529.9L435.9,529.9z"/>
			<path d="M444.6,529.9c0-3.2,2.1-5.2,4.4-5.2c2.5,0,3.9,1.8,3.9,4.6c0,0.4,0,0.7-0.1,0.9h-6.6c0.1,2.1,1.4,3.4,3.2,3.4
				c1,0,1.7-0.3,2.5-0.8l0.6,1.1c-0.9,0.6-1.9,1-3.2,1C446.7,535,444.6,533.1,444.6,529.9L444.6,529.9z M451.4,529.1
				c0-2-0.9-3-2.4-3c-1.4,0-2.6,1.1-2.8,3H451.4z"/>
			<path class="st6" d="M171.9,551.8l10.6,6.8v0.1l-10.6,6.8h0L171.9,551.8L171.9,551.8L171.9,551.8z"/>
			<path d="M192,558.2c0-4.3,2.5-6.9,5.9-6.9c1.6,0,2.9,0.8,3.6,1.6l-0.9,1.1c-0.7-0.7-1.6-1.3-2.7-1.3c-2.5,0-4.2,2-4.2,5.3
				s1.6,5.4,4.1,5.4c1.3,0,2.2-0.6,3.1-1.5l0.9,1c-1,1.2-2.3,1.9-4.1,1.9C194.5,565,192,562.4,192,558.2L192,558.2z"/>
			<path d="M203.8,551.9c0-0.7,0.5-1.1,1.1-1.1s1.1,0.4,1.1,1.1c0,0.6-0.5,1.1-1.1,1.1S203.8,552.5,203.8,551.9z M204.1,555h1.6v9.8
				h-1.6V555z"/>
			<path d="M207.6,555h1.7l1.8,5.6c0.3,1,0.6,2,0.9,2.9h0.1c0.3-0.9,0.6-1.9,0.9-2.9l1.9-5.6h1.6l-3.5,9.8h-1.9L207.6,555z"/>
			<path d="M218.1,551.9c0-0.7,0.5-1.1,1.1-1.1s1.1,0.4,1.1,1.1c0,0.6-0.5,1.1-1.1,1.1S218.1,552.5,218.1,551.9z M218.5,555h1.6v9.8
				h-1.6V555z"/>
			<path d="M223.4,562.8v-12.4h1.6v12.5c0,0.5,0.2,0.7,0.5,0.7c0.1,0,0.2,0,0.3,0l0.2,1.3c-0.2,0.1-0.5,0.1-0.9,0.1
				C223.9,565,223.4,564.2,223.4,562.8L223.4,562.8z"/>
			<path d="M231.8,563l1-1.1c0.9,1,2.3,1.6,3.6,1.6c1.7,0,2.8-0.9,2.8-2.2s-0.9-1.8-2.2-2.3l-1.9-0.8c-1.2-0.5-2.7-1.5-2.7-3.4
				c0-2,1.8-3.5,4.2-3.5c1.6,0,2.9,0.7,3.9,1.6l-0.9,1.1c-0.8-0.8-1.8-1.2-3-1.2c-1.5,0-2.5,0.8-2.5,1.9c0,1.3,1.1,1.8,2.2,2.2
				l1.9,0.8c1.5,0.7,2.7,1.6,2.7,3.5c0,2.1-1.7,3.8-4.5,3.8C234.5,565,232.9,564.2,231.8,563L231.8,563z"/>
			<path d="M242.6,559.9c0-3.2,2.1-5.2,4.4-5.2c2.5,0,3.9,1.8,3.9,4.6c0,0.4,0,0.7-0.1,0.9h-6.6c0.1,2.1,1.4,3.4,3.2,3.4
				c0.9,0,1.7-0.3,2.4-0.8l0.6,1.1c-0.9,0.6-1.9,1-3.2,1C244.7,565,242.6,563.1,242.6,559.9L242.6,559.9z M249.4,559.1
				c0-2-0.9-3-2.4-3c-1.4,0-2.6,1.1-2.8,3H249.4L249.4,559.1z"/>
			<path d="M253.3,555h1.4l0.1,1.8h0.1c0.7-1.2,1.7-2,2.8-2c0.4,0,0.7,0,1,0.2l-0.3,1.4c-0.3-0.1-0.6-0.2-1-0.2
				c-0.8,0-1.8,0.6-2.5,2.2v6.3h-1.6L253.3,555L253.3,555z"/>
			<path d="M259.4,555h1.7l1.8,5.6c0.3,1,0.6,2,0.9,2.9h0.1c0.3-0.9,0.6-1.9,0.9-2.9l1.9-5.6h1.6l-3.5,9.8h-1.9L259.4,555z"/>
			<path d="M269.9,551.9c0-0.7,0.5-1.1,1.1-1.1s1.1,0.4,1.1,1.1c0,0.6-0.5,1.1-1.1,1.1S269.9,552.5,269.9,551.9z M270.2,555h1.6v9.8
				h-1.6V555z"/>
			<path d="M274.4,559.9c0-3.3,2.2-5.2,4.7-5.2c1.3,0,2.2,0.5,2.9,1.2l-0.9,1.1c-0.6-0.5-1.2-0.9-2-0.9c-1.8,0-3.1,1.5-3.1,3.8
				s1.2,3.8,3,3.8c0.9,0,1.7-0.4,2.3-1l0.7,1.1c-0.9,0.8-2,1.2-3.1,1.2C276.4,565,274.4,563.1,274.4,559.9L274.4,559.9z"/>
			<path d="M283.1,559.9c0-3.2,2.1-5.2,4.4-5.2c2.5,0,3.9,1.8,3.9,4.6c0,0.4,0,0.7-0.1,0.9h-6.6c0.1,2.1,1.4,3.4,3.2,3.4
				c1,0,1.7-0.3,2.5-0.8l0.6,1.1c-0.9,0.6-1.9,1-3.2,1C285.2,565,283.1,563.1,283.1,559.9L283.1,559.9z M290,559.1c0-2-0.9-3-2.4-3
				c-1.4,0-2.6,1.1-2.8,3H290z"/>
			<path d="M298,551.6h7.6v1.4h-5.9v4.1h5v1.4h-5v4.8h6.1v1.4H298L298,551.6L298,551.6z"/>
			<path d="M308.2,561.7v-5.4h-1.5v-1.2l1.5-0.1l0.2-2.7h1.4v2.7h2.6v1.3h-2.6v5.5c0,1.2,0.4,1.9,1.5,1.9c0.3,0,0.8-0.1,1.1-0.2
				l0.3,1.2c-0.6,0.2-1.2,0.4-1.8,0.4C308.9,565,308.2,563.7,308.2,561.7L308.2,561.7z"/>
			<path d="M314.7,550.4h1.6v3.9l0,2c0.9-0.9,1.9-1.6,3.2-1.6c2,0,3,1.3,3,3.8v6.2h-1.6v-6c0-1.8-0.6-2.6-1.9-2.6
				c-1,0-1.7,0.5-2.7,1.5v7.1h-1.6L314.7,550.4L314.7,550.4z"/>
			<path d="M325.4,551.9c0-0.7,0.5-1.1,1.1-1.1s1.1,0.4,1.1,1.1c0,0.6-0.5,1.1-1.1,1.1S325.4,552.5,325.4,551.9z M325.7,555h1.6v9.8
				h-1.6V555z"/>
			<path d="M329.9,559.9c0-3.3,2.2-5.2,4.7-5.2c1.3,0,2.2,0.5,2.9,1.2l-0.9,1.1c-0.6-0.5-1.2-0.9-2-0.9c-1.8,0-3.1,1.5-3.1,3.8
				s1.2,3.8,3,3.8c0.9,0,1.7-0.4,2.3-1l0.7,1.1c-0.9,0.8-2,1.2-3.1,1.2C331.9,565,329.9,563.1,329.9,559.9L329.9,559.9z"/>
			<path d="M338.7,563.6l0.8-1.1c0.9,0.7,1.7,1.2,2.9,1.2c1.3,0,1.9-0.7,1.9-1.5c0-1-1.1-1.4-2.2-1.8c-1.4-0.5-2.9-1.2-2.9-2.8
				c0-1.5,1.2-2.8,3.4-2.8c1.2,0,2.3,0.5,3,1.1l-0.8,1.1c-0.7-0.5-1.4-0.9-2.2-0.9c-1.2,0-1.8,0.7-1.8,1.4c0,0.9,1.1,1.3,2.2,1.7
				c1.4,0.5,3,1.1,3,3c0,1.6-1.3,2.9-3.6,2.9C340.9,565,339.6,564.4,338.7,563.6L338.7,563.6z"/>
			<path d="M351.6,558.1c0-4.2,2.3-6.8,5.6-6.8s5.6,2.6,5.6,6.8s-2.3,6.9-5.6,6.9S351.6,562.3,351.6,558.1z M361.2,558.1
				c0-3.3-1.6-5.3-3.9-5.3s-3.9,2-3.9,5.3s1.5,5.4,3.9,5.4S361.2,561.4,361.2,558.1z"/>
			<path d="M371.6,553.4c0-2,0.9-3.2,2.9-3.2c0.6,0,1.2,0.1,1.6,0.3l-0.4,1.2c-0.4-0.2-0.8-0.2-1.1-0.2c-0.9,0-1.4,0.7-1.4,1.9v1.5
				h2.1v1.3h-2.1v8.4h-1.6v-8.4h-4.1v8.4h-1.6v-8.4h-1.3v-1.2l1.3-0.1v-1.3c0-2,1-3.3,3-3.3c0.6,0,1.3,0.1,1.8,0.3l-0.3,1.3
				c-0.4-0.2-0.8-0.3-1.3-0.3c-1,0-1.5,0.7-1.5,2v1.3h4.1L371.6,553.4L371.6,553.4z M379.1,551.9c0,0.6-0.5,1.1-1.1,1.1
				s-1.1-0.5-1.1-1.1c0-0.7,0.5-1.1,1.1-1.1S379.1,551.2,379.1,551.9z M377.2,555h1.6v9.8h-1.6V555z"/>
			<path d="M381.4,559.9c0-3.3,2.2-5.2,4.7-5.2c1.3,0,2.2,0.5,2.9,1.2l-0.9,1.1c-0.6-0.5-1.2-0.9-2-0.9c-1.8,0-3.1,1.5-3.1,3.8
				s1.2,3.8,3,3.8c0.9,0,1.7-0.4,2.3-1l0.7,1.1c-0.9,0.8-2,1.2-3.1,1.2C383.4,565,381.4,563.1,381.4,559.9L381.4,559.9z"/>
			<path d="M390.1,559.9c0-3.2,2.1-5.2,4.4-5.2c2.5,0,3.9,1.8,3.9,4.6c0,0.4,0,0.7-0.1,0.9h-6.6c0.1,2.1,1.4,3.4,3.2,3.4
				c1,0,1.7-0.3,2.5-0.8l0.6,1.1c-0.9,0.6-1.9,1-3.2,1C392.2,565,390.1,563.1,390.1,559.9L390.1,559.9z M397,559.1c0-2-0.9-3-2.4-3
				c-1.4,0-2.6,1.1-2.8,3H397z"/>
		</g>
		<g>
			<path class="st5" d="M523,424v21.7c0,2.8-2.2,5-5,5H158c-2.8,0-5-2.2-5-5V424c0-2.8,2.2-5,5-5h360C520.8,419,523,421.2,523,424z"
				/>
			<g>
				<path class="st0" d="M267.4,439.1l1-1.1c1,1,2.3,1.6,3.6,1.6c1.7,0,2.8-0.9,2.8-2.2s-1-1.8-2.2-2.3l-1.9-0.8
					c-1.2-0.5-2.7-1.5-2.7-3.4c0-2,1.8-3.5,4.2-3.5c1.6,0,3,0.7,3.9,1.6l-0.9,1.1c-0.8-0.8-1.8-1.2-3-1.2c-1.5,0-2.5,0.8-2.5,1.9
					c0,1.3,1.1,1.8,2.2,2.2l1.9,0.8c1.5,0.7,2.7,1.6,2.7,3.5c0,2.1-1.7,3.8-4.5,3.8C270.1,441.1,268.5,440.4,267.4,439.1
					L267.4,439.1z"/>
				<path class="st0" d="M278.8,437.3v-6.2h1.6v6c0,1.8,0.5,2.6,1.8,2.6c1,0,1.7-0.5,2.6-1.7v-6.9h1.6v9.8h-1.4l-0.1-1.5h0
					c-0.9,1.1-1.9,1.8-3.2,1.8C279.8,441.1,278.8,439.8,278.8,437.3L278.8,437.3z"/>
				<path class="st0" d="M289.9,431.1h1.4l0.1,1.1h0c0.9-0.7,2-1.4,3.1-1.4c2.5,0,3.9,2,3.9,5c0,3.4-2,5.3-4.2,5.3
					c-0.9,0-1.8-0.4-2.7-1.1l0,1.7v3.3h-1.6V431.1L289.9,431.1z M296.7,435.9c0-2.2-0.7-3.6-2.6-3.6c-0.8,0-1.7,0.5-2.6,1.4v5.1
					c0.9,0.8,1.8,1,2.4,1C295.5,439.7,296.7,438.3,296.7,435.9z"/>
				<path class="st0" d="M301,431.1h1.4l0.1,1.1h0c0.9-0.7,2-1.4,3.1-1.4c2.5,0,3.9,2,3.9,5c0,3.4-2,5.3-4.2,5.3
					c-0.9,0-1.8-0.4-2.7-1.1l0,1.7v3.3H301V431.1L301,431.1z M307.9,435.9c0-2.2-0.7-3.6-2.6-3.6c-0.8,0-1.7,0.5-2.6,1.4v5.1
					c0.9,0.8,1.8,1,2.4,1C306.7,439.7,307.9,438.3,307.9,435.9z"/>
				<path class="st0" d="M311.5,436c0-3.3,2.1-5.1,4.5-5.1s4.5,1.9,4.5,5.1s-2.1,5.1-4.5,5.1S311.5,439.2,311.5,436z M318.8,436
					c0-2.2-1.1-3.8-2.8-3.8s-2.8,1.5-2.8,3.8s1.1,3.8,2.8,3.8S318.8,438.3,318.8,436z"/>
				<path class="st0" d="M323.1,431.1h1.4l0.1,1.8h0c0.7-1.2,1.7-2,2.8-2c0.4,0,0.7,0,1,0.2l-0.3,1.4c-0.3-0.1-0.6-0.2-1-0.2
					c-0.8,0-1.8,0.6-2.5,2.2v6.3h-1.6L323.1,431.1L323.1,431.1z"/>
				<path class="st0" d="M330.4,437.9v-5.4h-1.5v-1.2l1.5-0.1l0.2-2.7h1.4v2.7h2.6v1.3H332v5.5c0,1.2,0.4,1.9,1.5,1.9
					c0.3,0,0.8-0.1,1.1-0.2l0.3,1.2c-0.6,0.2-1.2,0.4-1.8,0.4C331.1,441.1,330.4,439.8,330.4,437.9L330.4,437.9z"/>
				<path class="st0" d="M336.6,428c0-0.7,0.5-1.1,1.1-1.1s1.1,0.4,1.1,1.1c0,0.6-0.5,1.1-1.1,1.1S336.6,428.6,336.6,428z
					 M336.9,431.1h1.6v9.8h-1.6V431.1z"/>
				<path class="st0" d="M341.8,431.1h1.4l0.1,1.4h0c0.9-0.9,1.9-1.7,3.3-1.7c2,0,3,1.3,3,3.8v6.2H348v-6c0-1.8-0.6-2.6-1.9-2.6
					c-1,0-1.7,0.5-2.7,1.5v7.1h-1.6L341.8,431.1L341.8,431.1z"/>
				<path class="st0" d="M352.1,442.8c0-0.8,0.5-1.6,1.5-2.2v-0.1c-0.5-0.3-0.9-0.8-0.9-1.6s0.6-1.5,1.1-1.8V437
					c-0.6-0.5-1.3-1.5-1.3-2.6c0-2.1,1.7-3.5,3.7-3.5c0.5,0,1,0.1,1.4,0.2h3.4v1.3h-2c0.5,0.5,0.8,1.2,0.8,2c0,2.1-1.6,3.4-3.6,3.4
					c-0.5,0-1-0.1-1.5-0.3c-0.4,0.3-0.6,0.6-0.6,1.2c0,0.6,0.4,1.1,1.7,1.1h1.9c2.3,0,3.4,0.7,3.4,2.3c0,1.8-1.9,3.4-4.9,3.4
					C353.7,445.4,352.1,444.5,352.1,442.8L352.1,442.8z M359.5,442.2c0-0.9-0.7-1.2-2-1.2h-1.7c-0.4,0-0.8,0-1.3-0.2
					c-0.7,0.5-1,1.1-1,1.7c0,1,1.1,1.7,2.8,1.7C358.2,444.3,359.5,443.3,359.5,442.2L359.5,442.2z M358.2,434.4
					c0-1.4-0.9-2.3-2.1-2.3s-2.1,0.9-2.1,2.3s1,2.3,2.1,2.3S358.2,435.8,358.2,434.4z"/>
				<path class="st0" d="M367.1,435.4v-7.7h1.7v7.8c0,3.2,1.4,4.2,3.1,4.2s3.1-1,3.1-4.2v-7.8h1.6v7.7c0,4.2-2,5.7-4.8,5.7
					S367.1,439.7,367.1,435.4L367.1,435.4z"/>
				<path class="st0" d="M380,431.1h1.4l0.1,1.4h0c0.9-0.9,1.9-1.7,3.3-1.7c2,0,3,1.3,3,3.8v6.2h-1.6v-6c0-1.8-0.6-2.6-1.9-2.6
					c-1,0-1.7,0.5-2.7,1.5v7.1H380L380,431.1L380,431.1z"/>
				<path class="st0" d="M390.6,428c0-0.7,0.5-1.1,1.1-1.1s1.1,0.4,1.1,1.1c0,0.6-0.5,1.1-1.1,1.1S390.6,428.6,390.6,428z
					 M391,431.1h1.6v9.8H391V431.1z"/>
				<path class="st0" d="M396.2,437.9v-5.4h-1.5v-1.2l1.5-0.1l0.2-2.7h1.4v2.7h2.6v1.3h-2.6v5.5c0,1.2,0.4,1.9,1.5,1.9
					c0.3,0,0.8-0.1,1.1-0.2l0.3,1.2c-0.6,0.2-1.2,0.4-1.8,0.4C396.9,441.1,396.2,439.8,396.2,437.9L396.2,437.9z"/>
				<path class="st0" d="M401.4,439.8l0.8-1.1c0.9,0.7,1.7,1.1,2.9,1.1c1.3,0,1.9-0.7,1.9-1.5c0-1-1.1-1.4-2.2-1.9
					c-1.4-0.5-2.9-1.2-2.9-2.8c0-1.5,1.2-2.8,3.4-2.8c1.2,0,2.3,0.5,3,1.1l-0.8,1.1c-0.7-0.5-1.4-0.9-2.2-0.9
					c-1.2,0-1.8,0.6-1.8,1.4c0,0.9,1.1,1.3,2.2,1.7c1.4,0.5,3,1.1,3,3c0,1.6-1.3,2.9-3.6,2.9C403.7,441.1,402.3,440.5,401.4,439.8
					L401.4,439.8z"/>
			</g>
		</g>
	</g>
</g>
</svg>
