<?xml version="1.0" encoding="utf-8"?>
<!-- Generator: Adobe Illustrator 27.0.1, SVG Export Plug-In . SVG Version: 6.00 Build 0)  -->
<svg version="1.1" id="圖層_1" xmlns="http://www.w3.org/2000/svg" xmlns:xlink="http://www.w3.org/1999/xlink" x="0px" y="0px"
	 width="52px" height="40px" viewBox="0 0 52 40" style="enable-background:new 0 0 52 40;" xml:space="preserve">
<style type="text/css">
	.st0{fill:#FFFFFF;}
</style>
<g>
	<path class="st0" d="M36,18.1c0-4.5-3.8-8.1-8.4-8.1h-3.2c-4.6,0-8.4,3.6-8.4,8.1c0,2,0.8,3.9,2,5.3c1.2,1.3,2.8,2.3,4.6,2.6
		c1.1,1.8,3.3,4,7.2,3.1c0.2-0.1,0.2-0.3,0.1-0.4c-0.7-0.3-1.2-1-1.4-2.5C32.7,25.7,36,22.3,36,18.1z M24.7,22.4
		c0-0.3,0.1-0.6,0.3-0.8c0.2-0.2,0.5-0.3,0.9-0.3c0.3,0,0.6,0.1,0.9,0.3c0.2,0.2,0.3,0.5,0.3,0.8c0,0.3-0.1,0.6-0.3,0.8
		c-0.2,0.2-0.5,0.3-0.9,0.3c-0.3,0-0.6-0.1-0.9-0.3C24.8,23,24.7,22.8,24.7,22.4z M28.6,17c-0.2,0.3-0.4,0.7-0.8,1l-0.5,0.5
		c-0.3,0.2-0.4,0.5-0.4,0.8l0,0.6h-2v-0.2c0-0.6,0.1-1,0.2-1.4c0.1-0.4,0.4-0.7,0.8-1c0.4-0.4,0.6-0.6,0.7-0.7
		c0.1-0.2,0.1-0.3,0.1-0.5c0-0.5-0.2-0.7-0.7-0.7c-0.2,0-0.4,0.1-0.5,0.2c-0.1,0.1-0.2,0.3-0.2,0.6l0,0.2h-2.2l0-0.3
		c0-0.8,0.3-1.5,0.8-1.9c0.5-0.5,1.2-0.7,2.1-0.7c0.9,0,1.6,0.2,2.1,0.7c0.5,0.4,0.8,1.1,0.8,1.9C28.9,16.3,28.8,16.6,28.6,17z"/>
</g>
</svg>
