<?xml version="1.0" encoding="utf-8"?>
<!-- Generator: Adobe Illustrator 27.2.0, SVG Export Plug-In . SVG Version: 6.00 Build 0)  -->
<svg version="1.1" id="圖層_1" xmlns="http://www.w3.org/2000/svg" xmlns:xlink="http://www.w3.org/1999/xlink" x="0px" y="0px"
	 width="52px" height="40px" viewBox="0 0 52 40" style="enable-background:new 0 0 52 40;" xml:space="preserve">
<style type="text/css">
	.st0{fill:#FFFFFF;}
</style>
<g>
	<path class="st0" d="M26.2,19l8.5-6.2c-0.2-0.2-0.5-0.3-0.7-0.4c-0.5-0.2-1.1-0.4-1.6-0.4H20.1c-0.8,0-1.6,0.3-2.3,0.8L26.2,19z"/>
	<path class="st0" d="M36,14.4L27,21c-0.2,0.2-0.5,0.2-0.7,0.2c-0.3,0-0.5-0.1-0.7-0.2l-9-6.6c-0.3,0.6-0.5,1.3-0.5,2V24
		c0,0.6,0.1,1.1,0.3,1.6c0.2,0.5,0.5,1,0.9,1.4c0.4,0.4,0.8,0.7,1.3,1c0.5,0.2,1.1,0.4,1.6,0.4h12.3c1.1,0,2.2-0.5,2.9-1.4
		c0.8-0.8,1.2-1.9,1.1-3v-7.6c0-0.6-0.1-1.1-0.3-1.6C36.2,14.6,36.1,14.5,36,14.4z"/>
</g>
</svg>
