<?xml version="1.0" encoding="utf-8"?>
<!-- Generator: Adobe Illustrator 26.4.1, SVG Export Plug-In . SVG Version: 6.00 Build 0)  -->
<svg version="1.1" id="_層_2" xmlns="http://www.w3.org/2000/svg" xmlns:xlink="http://www.w3.org/1999/xlink" x="0px" y="0px"
	 width="600px" height="540.3px" viewBox="0 0 600 540.3" style="enable-background:new 0 0 600 540.3;" xml:space="preserve">
<style type="text/css">
	.st0{fill:#1F333D;}
	.st1{fill:#B3C33E;}
</style>
<g>
	<g id="adi_logo-V-standard-EN">
		<g>
			<g>
				<g>
					<path class="st0" d="M85.4,216.2c0-71.1,57.8-128.9,128.9-128.9l49.5-0.1V0.6c-39.6-0.3-50.6-2.7-91.3,4.9
						c-0.4,0.1-0.8,0.2-1.2,0.2C73.4,25.7-0.5,112.4-0.5,216.2c0,118.5,96.6,216,215.1,216h217.2V0.6h-83.9v345.1l-133.4-0.5
						C143.3,345.1,85.4,287.3,85.4,216.2z"/>
					<path class="st1" d="M167.7,218.5c0,27.5,20.6,45.8,48.2,45.8h48v-95.9h-46C190.3,168.4,167.7,191,167.7,218.5z"/>
					<rect x="479" y="156.5" class="st0" width="96.6" height="276.4"/>
				</g>
				<polygon class="st1" points="479.9,0.5 563.7,0.5 563.7,24.8 503.7,24.8 503.7,72.5 563.7,72.5 563.7,96.3 479.9,96.3 				"/>
				<polygon class="st0" points="599.5,35.8 515.8,35.8 515.8,60.1 575.7,60.1 575.7,107.8 515.8,107.8 515.8,131.6 599.5,131.6 
									"/>
			</g>
		</g>
	</g>
	<g>
		<path class="st0" d="M280.5,483.4h-10.6l-2,5.4h-3.4l8.8-24.3h3.7l8.8,24.3h-3.4L280.5,483.4z M279.6,480.8l-4.4-12.3l-4.4,12.3
			H279.6z"/>
		<path class="st0" d="M289.7,474c0.8-1.5,1.9-2.6,3.3-3.5c1.4-0.8,2.9-1.2,4.7-1.2c1.5,0,2.9,0.3,4.2,1c1.3,0.7,2.3,1.6,2.9,2.7
			v-10.2h3.2v25.9h-3.2v-3.6c-0.6,1.1-1.6,2.1-2.8,2.8c-1.2,0.7-2.7,1.1-4.3,1.1c-1.7,0-3.3-0.4-4.6-1.3c-1.4-0.8-2.5-2-3.3-3.5
			c-0.8-1.5-1.2-3.2-1.2-5.2C288.5,477.2,288.9,475.5,289.7,474z M303.9,475.4c-0.6-1.1-1.4-1.9-2.4-2.5c-1-0.6-2.1-0.9-3.3-0.9
			c-1.2,0-2.3,0.3-3.3,0.8c-1,0.6-1.8,1.4-2.3,2.4c-0.6,1.1-0.9,2.3-0.9,3.8c0,1.5,0.3,2.7,0.9,3.8c0.6,1.1,1.4,1.9,2.3,2.5
			c1,0.6,2.1,0.9,3.3,0.9c1.2,0,2.3-0.3,3.3-0.9c1-0.6,1.8-1.4,2.4-2.5s0.9-2.4,0.9-3.8S304.5,476.5,303.9,475.4z"/>
		<path class="st0" d="M340.5,470.2c1.2,0.6,2.1,1.5,2.8,2.8c0.7,1.2,1,2.7,1,4.5v11.3h-3.2V478c0-1.9-0.5-3.4-1.4-4.4
			c-0.9-1-2.2-1.5-3.8-1.5c-1.7,0-3,0.5-4,1.6c-1,1.1-1.5,2.6-1.5,4.6v10.6h-3.2V478c0-1.9-0.5-3.4-1.4-4.4c-0.9-1-2.2-1.5-3.8-1.5
			c-1.7,0-3,0.5-4,1.6c-1,1.1-1.5,2.6-1.5,4.6v10.6h-3.2v-19.2h3.2v2.8c0.6-1,1.5-1.8,2.5-2.3c1.1-0.5,2.2-0.8,3.5-0.8
			c1.6,0,3,0.4,4.3,1.1c1.2,0.7,2.2,1.8,2.8,3.2c0.5-1.4,1.4-2.4,2.7-3.2c1.2-0.7,2.6-1.1,4.1-1.1
			C338,469.3,339.3,469.6,340.5,470.2z"/>
		<path class="st0" d="M349.6,465.9c-0.4-0.4-0.6-0.9-0.6-1.5s0.2-1.1,0.6-1.5c0.4-0.4,0.9-0.6,1.5-0.6c0.6,0,1.1,0.2,1.5,0.6
			c0.4,0.4,0.6,0.9,0.6,1.5s-0.2,1.1-0.6,1.5c-0.4,0.4-0.9,0.6-1.5,0.6C350.5,466.5,350,466.3,349.6,465.9z M352.7,469.6v19.2h-3.2
			v-19.2H352.7z"/>
		<path class="st0" d="M373.1,471.4c1.4,1.4,2.2,3.4,2.2,6.1v11.3h-3.2V478c0-1.9-0.5-3.4-1.4-4.4c-1-1-2.3-1.5-3.9-1.5
			c-1.7,0-3,0.5-4,1.6c-1,1.1-1.5,2.6-1.5,4.6v10.6h-3.2v-19.2h3.2v2.7c0.6-1,1.5-1.7,2.6-2.3c1.1-0.5,2.3-0.8,3.6-0.8
			C369.8,469.3,371.7,470,373.1,471.4z"/>
		<path class="st0" d="M380.6,465.9c-0.4-0.4-0.6-0.9-0.6-1.5s0.2-1.1,0.6-1.5c0.4-0.4,0.9-0.6,1.5-0.6c0.6,0,1.1,0.2,1.5,0.6
			c0.4,0.4,0.6,0.9,0.6,1.5s-0.2,1.1-0.6,1.5c-0.4,0.4-0.9,0.6-1.5,0.6C381.6,466.5,381.1,466.3,380.6,465.9z M383.7,469.6v19.2
			h-3.2v-19.2H383.7z"/>
		<path class="st0" d="M392,488.4c-1.2-0.5-2.1-1.2-2.8-2.1s-1.1-1.9-1.1-3.1h3.3c0.1,1,0.5,1.7,1.3,2.3c0.8,0.6,1.9,0.9,3.2,0.9
			c1.2,0,2.2-0.3,2.9-0.8c0.7-0.5,1-1.2,1-2c0-0.8-0.4-1.5-1.1-1.9c-0.8-0.4-1.9-0.8-3.5-1.2c-1.4-0.4-2.6-0.8-3.5-1.1
			c-0.9-0.4-1.7-1-2.3-1.7c-0.6-0.8-1-1.8-1-3c0-1,0.3-1.9,0.9-2.7c0.6-0.8,1.4-1.5,2.5-1.9c1.1-0.5,2.3-0.7,3.7-0.7
			c2.1,0,3.8,0.5,5.1,1.6c1.3,1.1,2,2.5,2.1,4.4h-3.2c-0.1-1-0.5-1.8-1.2-2.4c-0.7-0.6-1.7-0.9-3-0.9c-1.1,0-2.1,0.2-2.7,0.7
			s-1,1.1-1,1.9c0,0.6,0.2,1.1,0.6,1.6c0.4,0.4,0.9,0.7,1.5,1c0.6,0.2,1.5,0.5,2.6,0.8c1.4,0.4,2.5,0.7,3.4,1.1
			c0.9,0.4,1.6,0.9,2.2,1.6c0.6,0.7,0.9,1.7,1,2.8c0,1.1-0.3,2-0.9,2.8c-0.6,0.8-1.4,1.5-2.5,2c-1.1,0.5-2.3,0.7-3.7,0.7
			C394.5,489.1,393.2,488.9,392,488.4z"/>
		<path class="st0" d="M411.3,472.2v11.3c0,0.9,0.2,1.6,0.6,2c0.4,0.4,1.1,0.6,2.1,0.6h2.3v2.7h-2.9c-1.8,0-3.1-0.4-4-1.2
			c-0.9-0.8-1.3-2.2-1.3-4v-11.3h-2.5v-2.6h2.5v-4.8h3.2v4.8h5v2.6H411.3z"/>
		<path class="st0" d="M425.8,470.2c1-0.6,2.3-0.9,3.8-0.9v3.3h-0.8c-3.6,0-5.4,1.9-5.4,5.8v10.4h-3.2v-19.2h3.2v3.1
			C423.9,471.6,424.7,470.8,425.8,470.2z"/>
		<path class="st0" d="M433.3,474c0.8-1.5,1.9-2.6,3.3-3.5c1.4-0.8,2.9-1.2,4.6-1.2c1.7,0,3.1,0.4,4.4,1.1c1.2,0.7,2.2,1.6,2.8,2.7
			v-3.5h3.2v19.2h-3.2v-3.6c-0.6,1.1-1.6,2-2.8,2.8c-1.3,0.7-2.7,1.1-4.4,1.1c-1.7,0-3.2-0.4-4.6-1.3c-1.4-0.8-2.5-2-3.3-3.5
			c-0.8-1.5-1.2-3.2-1.2-5.2C432.1,477.2,432.5,475.5,433.3,474z M447.5,475.4c-0.6-1.1-1.4-1.9-2.4-2.5c-1-0.6-2.1-0.9-3.3-0.9
			c-1.2,0-2.3,0.3-3.3,0.8c-1,0.6-1.8,1.4-2.3,2.4c-0.6,1.1-0.9,2.3-0.9,3.8c0,1.5,0.3,2.7,0.9,3.8c0.6,1.1,1.4,1.9,2.3,2.5
			c1,0.6,2.1,0.9,3.3,0.9c1.2,0,2.3-0.3,3.3-0.9c1-0.6,1.8-1.4,2.4-2.5s0.9-2.4,0.9-3.8S448,476.5,447.5,475.4z"/>
		<path class="st0" d="M460.8,472.2v11.3c0,0.9,0.2,1.6,0.6,2c0.4,0.4,1.1,0.6,2.1,0.6h2.3v2.7H463c-1.8,0-3.1-0.4-4-1.2
			c-0.9-0.8-1.3-2.2-1.3-4v-11.3h-2.5v-2.6h2.5v-4.8h3.2v4.8h5v2.6H460.8z"/>
		<path class="st0" d="M469.8,465.9c-0.4-0.4-0.6-0.9-0.6-1.5s0.2-1.1,0.6-1.5c0.4-0.4,0.9-0.6,1.5-0.6c0.6,0,1.1,0.2,1.5,0.6
			c0.4,0.4,0.6,0.9,0.6,1.5s-0.2,1.1-0.6,1.5c-0.4,0.4-0.9,0.6-1.5,0.6C470.7,466.5,470.2,466.3,469.8,465.9z M472.9,469.6v19.2
			h-3.2v-19.2H472.9z"/>
		<path class="st0" d="M481.8,487.9c-1.5-0.8-2.6-2-3.4-3.5c-0.8-1.5-1.2-3.3-1.2-5.2c0-2,0.4-3.7,1.3-5.2c0.9-1.5,2-2.7,3.5-3.5
			c1.5-0.8,3.1-1.2,4.9-1.2c1.8,0,3.5,0.4,4.9,1.2c1.5,0.8,2.6,2,3.5,3.5c0.9,1.5,1.3,3.2,1.3,5.2c0,2-0.4,3.7-1.3,5.2
			c-0.9,1.5-2.1,2.7-3.6,3.5c-1.5,0.8-3.2,1.2-5,1.2C484.9,489.1,483.3,488.7,481.8,487.9z M489.9,485.5c1-0.5,1.8-1.3,2.4-2.4
			c0.6-1.1,0.9-2.4,0.9-3.9c0-1.5-0.3-2.8-0.9-3.9c-0.6-1.1-1.4-1.9-2.4-2.4c-1-0.5-2-0.8-3.2-0.8c-1.2,0-2.2,0.3-3.2,0.8
			c-1,0.5-1.7,1.3-2.3,2.4c-0.6,1.1-0.9,2.4-0.9,3.9c0,1.6,0.3,2.9,0.9,4c0.6,1.1,1.3,1.9,2.3,2.4c1,0.5,2,0.8,3.2,0.8
			C487.8,486.3,488.9,486.1,489.9,485.5z"/>
		<path class="st0" d="M515.8,471.4c1.4,1.4,2.2,3.4,2.2,6.1v11.3h-3.2V478c0-1.9-0.5-3.4-1.4-4.4c-1-1-2.3-1.5-3.9-1.5
			c-1.7,0-3,0.5-4,1.6c-1,1.1-1.5,2.6-1.5,4.6v10.6h-3.2v-19.2h3.2v2.7c0.6-1,1.5-1.7,2.6-2.3c1.1-0.5,2.3-0.8,3.6-0.8
			C512.4,469.3,514.3,470,515.8,471.4z"/>
		<path class="st0" d="M540.3,472.2h-4v16.6h-3.2v-16.6h-2.5v-2.6h2.5v-1.4c0-2.1,0.6-3.7,1.7-4.7c1.1-1,2.9-1.5,5.3-1.5v2.7
			c-1.4,0-2.4,0.3-3,0.8c-0.6,0.5-0.9,1.5-0.9,2.7v1.4h4V472.2z"/>
		<path class="st0" d="M547.5,487.9c-1.5-0.8-2.6-2-3.4-3.5c-0.8-1.5-1.2-3.3-1.2-5.2c0-2,0.4-3.7,1.3-5.2c0.9-1.5,2-2.7,3.5-3.5
			c1.5-0.8,3.1-1.2,4.9-1.2c1.8,0,3.5,0.4,4.9,1.2c1.5,0.8,2.6,2,3.5,3.5c0.9,1.5,1.3,3.2,1.3,5.2c0,2-0.4,3.7-1.3,5.2
			c-0.9,1.5-2.1,2.7-3.6,3.5c-1.5,0.8-3.2,1.2-5,1.2C550.6,489.1,549,488.7,547.5,487.9z M555.7,485.5c1-0.5,1.8-1.3,2.4-2.4
			c0.6-1.1,0.9-2.4,0.9-3.9c0-1.5-0.3-2.8-0.9-3.9c-0.6-1.1-1.4-1.9-2.4-2.4c-1-0.5-2-0.8-3.2-0.8c-1.2,0-2.2,0.3-3.2,0.8
			c-1,0.5-1.7,1.3-2.3,2.4c-0.6,1.1-0.9,2.4-0.9,3.9c0,1.6,0.3,2.9,0.9,4c0.6,1.1,1.3,1.9,2.3,2.4s2,0.8,3.2,0.8
			C553.6,486.3,554.6,486.1,555.7,485.5z"/>
		<path class="st0" d="M572.1,470.2c1-0.6,2.3-0.9,3.8-0.9v3.3H575c-3.6,0-5.4,1.9-5.4,5.8v10.4h-3.2v-19.2h3.2v3.1
			C570.2,471.6,571,470.8,572.1,470.2z"/>
		<path class="st0" d="M181.9,507.9c1.9,1,3.4,2.4,4.5,4.3c1,1.8,1.6,4,1.6,6.5c0,2.5-0.5,4.7-1.6,6.5c-1,1.8-2.5,3.2-4.5,4.2
			c-2,1-4.3,1.5-6.9,1.5h-7.6v-24.4h7.6C177.6,506.4,179.9,506.9,181.9,507.9z M182.2,525.7c1.7-1.7,2.5-4,2.5-7
			c0-3-0.8-5.4-2.5-7.1c-1.7-1.7-4.1-2.6-7.2-2.6h-4.4v19.2h4.4C178.1,528.2,180.5,527.4,182.2,525.7z"/>
		<path class="st0" d="M192.3,507.9c-0.4-0.4-0.6-0.9-0.6-1.5s0.2-1.1,0.6-1.5c0.4-0.4,0.9-0.6,1.5-0.6c0.6,0,1.1,0.2,1.5,0.6
			c0.4,0.4,0.6,0.9,0.6,1.5s-0.2,1.1-0.6,1.5c-0.4,0.4-0.9,0.6-1.5,0.6C193.2,508.5,192.7,508.3,192.3,507.9z M195.3,511.7v19.2
			h-3.2v-19.2H195.3z"/>
		<path class="st0" d="M213,512.4c1.3,0.7,2.2,1.6,2.8,2.7v-3.5h3.2v19.6c0,1.8-0.4,3.3-1.1,4.7c-0.7,1.4-1.8,2.4-3.2,3.2
			s-3,1.2-4.9,1.2c-2.5,0-4.6-0.6-6.3-1.8c-1.7-1.2-2.7-2.8-3-4.9h3.2c0.4,1.2,1.1,2.1,2.2,2.8c1.1,0.7,2.4,1.1,4,1.1
			c1.8,0,3.2-0.5,4.3-1.6s1.7-2.6,1.7-4.6v-4c-0.6,1.1-1.6,2.1-2.8,2.8c-1.2,0.7-2.7,1.1-4.3,1.1c-1.7,0-3.3-0.4-4.6-1.3
			c-1.4-0.8-2.5-2-3.3-3.5c-0.8-1.5-1.2-3.2-1.2-5.2c0-2,0.4-3.7,1.2-5.2c0.8-1.5,1.9-2.6,3.3-3.4c1.4-0.8,2.9-1.2,4.6-1.2
			C210.3,511.3,211.8,511.7,213,512.4z M215,517.4c-0.6-1.1-1.4-1.9-2.4-2.5c-1-0.6-2.1-0.9-3.3-0.9c-1.2,0-2.3,0.3-3.3,0.8
			c-1,0.6-1.8,1.4-2.3,2.4c-0.6,1.1-0.9,2.3-0.9,3.8c0,1.5,0.3,2.7,0.9,3.8s1.4,1.9,2.3,2.5c1,0.6,2.1,0.9,3.3,0.9
			c1.2,0,2.3-0.3,3.3-0.9c1-0.6,1.8-1.4,2.4-2.5c0.6-1.1,0.9-2.4,0.9-3.8S215.5,518.5,215,517.4z"/>
		<path class="st0" d="M224.6,507.9c-0.4-0.4-0.6-0.9-0.6-1.5s0.2-1.1,0.6-1.5c0.4-0.4,0.9-0.6,1.5-0.6c0.6,0,1.1,0.2,1.5,0.6
			c0.4,0.4,0.6,0.9,0.6,1.5s-0.2,1.1-0.6,1.5c-0.4,0.4-0.9,0.6-1.5,0.6C225.5,508.5,225,508.3,224.6,507.9z M227.6,511.7v19.2h-3.2
			v-19.2H227.6z"/>
		<path class="st0" d="M237,514.3v11.3c0,0.9,0.2,1.6,0.6,2c0.4,0.4,1.1,0.6,2.1,0.6h2.3v2.7h-2.9c-1.8,0-3.1-0.4-4-1.2
			c-0.9-0.8-1.3-2.2-1.3-4v-11.3h-2.5v-2.6h2.5v-4.8h3.2v4.8h5v2.6H237z"/>
		<path class="st0" d="M245.8,516c0.8-1.5,1.9-2.6,3.3-3.4c1.4-0.8,2.9-1.2,4.6-1.2c1.7,0,3.1,0.4,4.4,1.1c1.2,0.7,2.2,1.6,2.8,2.7
			v-3.5h3.2v19.2h-3.2v-3.6c-0.6,1.1-1.6,2-2.8,2.8c-1.3,0.7-2.7,1.1-4.4,1.1c-1.7,0-3.2-0.4-4.6-1.3c-1.4-0.8-2.5-2-3.3-3.5
			c-0.8-1.5-1.2-3.2-1.2-5.2C244.6,519.2,245,517.5,245.8,516z M260,517.4c-0.6-1.1-1.4-1.9-2.4-2.5c-1-0.6-2.1-0.9-3.3-0.9
			c-1.2,0-2.3,0.3-3.3,0.8c-1,0.6-1.8,1.4-2.3,2.4c-0.6,1.1-0.9,2.3-0.9,3.8c0,1.5,0.3,2.7,0.9,3.8s1.4,1.9,2.3,2.5
			c1,0.6,2.1,0.9,3.3,0.9c1.2,0,2.3-0.3,3.3-0.9c1-0.6,1.8-1.4,2.4-2.5s0.9-2.4,0.9-3.8S260.6,518.5,260,517.4z"/>
		<path class="st0" d="M272.7,504.9v25.9h-3.2v-25.9H272.7z"/>
		<path class="st0" d="M290.7,506.4v24.4h-3.2v-24.4H290.7z"/>
		<path class="st0" d="M311.1,513.4c1.4,1.4,2.2,3.4,2.2,6.1v11.3h-3.2V520c0-1.9-0.5-3.4-1.4-4.4c-1-1-2.3-1.5-3.9-1.5
			c-1.7,0-3,0.5-4,1.6c-1,1.1-1.5,2.6-1.5,4.6v10.6h-3.2v-19.2h3.2v2.7c0.6-1,1.5-1.7,2.6-2.3c1.1-0.5,2.3-0.8,3.6-0.8
			C307.8,511.3,309.7,512,311.1,513.4z"/>
		<path class="st0" d="M318.5,516c0.8-1.5,1.9-2.6,3.3-3.4c1.4-0.8,2.9-1.2,4.7-1.2c1.5,0,2.9,0.3,4.2,1c1.3,0.7,2.3,1.6,2.9,2.7
			v-10.2h3.2v25.9h-3.2v-3.6c-0.6,1.1-1.6,2.1-2.8,2.8s-2.7,1.1-4.3,1.1c-1.7,0-3.3-0.4-4.6-1.3c-1.4-0.8-2.5-2-3.3-3.5
			c-0.8-1.5-1.2-3.2-1.2-5.2C317.3,519.2,317.7,517.5,318.5,516z M332.7,517.4c-0.6-1.1-1.4-1.9-2.4-2.5c-1-0.6-2.1-0.9-3.3-0.9
			s-2.3,0.3-3.3,0.8c-1,0.6-1.8,1.4-2.3,2.4c-0.6,1.1-0.9,2.3-0.9,3.8c0,1.5,0.3,2.7,0.9,3.8s1.4,1.9,2.3,2.5c1,0.6,2.1,0.9,3.3,0.9
			s2.3-0.3,3.3-0.9c1-0.6,1.8-1.4,2.4-2.5c0.6-1.1,0.9-2.4,0.9-3.8S333.3,518.5,332.7,517.4z"/>
		<path class="st0" d="M359.2,511.7v19.2H356V528c-0.6,1-1.5,1.7-2.5,2.3c-1.1,0.5-2.3,0.8-3.6,0.8c-1.5,0-2.8-0.3-4-0.9
			c-1.2-0.6-2.1-1.5-2.8-2.8c-0.7-1.2-1-2.7-1-4.5v-11.2h3.2v10.8c0,1.9,0.5,3.3,1.4,4.4c1,1,2.3,1.5,3.9,1.5c1.7,0,3-0.5,4-1.6
			c1-1,1.5-2.6,1.5-4.6v-10.5H359.2z"/>
		<path class="st0" d="M367.5,530.4c-1.2-0.5-2.1-1.2-2.8-2.1c-0.7-0.9-1.1-1.9-1.1-3.1h3.3c0.1,1,0.5,1.7,1.3,2.3
			c0.8,0.6,1.9,0.9,3.2,0.9c1.2,0,2.2-0.3,2.9-0.8c0.7-0.5,1-1.2,1-2c0-0.8-0.4-1.5-1.1-1.9c-0.8-0.4-1.9-0.8-3.5-1.2
			c-1.4-0.4-2.6-0.8-3.5-1.1c-0.9-0.4-1.7-1-2.3-1.7c-0.6-0.8-1-1.8-1-3c0-1,0.3-1.9,0.9-2.7c0.6-0.8,1.4-1.5,2.5-1.9
			c1.1-0.5,2.3-0.7,3.7-0.7c2.1,0,3.8,0.5,5.1,1.6c1.3,1.1,2,2.5,2.1,4.4h-3.2c-0.1-1-0.5-1.8-1.2-2.4c-0.7-0.6-1.7-0.9-3-0.9
			c-1.1,0-2.1,0.2-2.7,0.7s-1,1.1-1,1.9c0,0.6,0.2,1.2,0.6,1.6c0.4,0.4,0.9,0.7,1.5,1c0.6,0.2,1.5,0.5,2.6,0.8
			c1.4,0.4,2.5,0.7,3.4,1.1c0.9,0.4,1.6,0.9,2.2,1.6c0.6,0.7,0.9,1.7,1,2.8c0,1.1-0.3,2-0.9,2.8c-0.6,0.8-1.4,1.5-2.5,2
			c-1.1,0.5-2.3,0.7-3.7,0.7C370,531.2,368.6,530.9,367.5,530.4z"/>
		<path class="st0" d="M386.8,514.3v11.3c0,0.9,0.2,1.6,0.6,2c0.4,0.4,1.1,0.6,2.1,0.6h2.3v2.7h-2.9c-1.8,0-3.1-0.4-4-1.2
			c-0.9-0.8-1.3-2.2-1.3-4v-11.3h-2.5v-2.6h2.5v-4.8h3.2v4.8h5v2.6H386.8z"/>
		<path class="st0" d="M401.3,512.2c1-0.6,2.3-0.9,3.8-0.9v3.3h-0.8c-3.6,0-5.4,1.9-5.4,5.8v10.4h-3.2v-19.2h3.2v3.1
			C399.4,513.7,400.2,512.8,401.3,512.2z"/>
		<path class="st0" d="M408.8,507.9c-0.4-0.4-0.6-0.9-0.6-1.5s0.2-1.1,0.6-1.5c0.4-0.4,0.9-0.6,1.5-0.6c0.6,0,1.1,0.2,1.5,0.6
			c0.4,0.4,0.6,0.9,0.6,1.5s-0.2,1.1-0.6,1.5c-0.4,0.4-0.9,0.6-1.5,0.6C409.8,508.5,409.3,508.3,408.8,507.9z M411.9,511.7v19.2
			h-3.2v-19.2H411.9z"/>
		<path class="st0" d="M434.8,522.5h-15.3c0.1,1.9,0.8,3.4,1.9,4.4c1.2,1.1,2.6,1.6,4.3,1.6c1.4,0,2.5-0.3,3.4-1
			c0.9-0.6,1.6-1.5,1.9-2.6h3.4c-0.5,1.8-1.5,3.3-3.1,4.5c-1.5,1.2-3.5,1.7-5.7,1.7c-1.8,0-3.5-0.4-4.9-1.2c-1.4-0.8-2.6-2-3.4-3.5
			c-0.8-1.5-1.2-3.3-1.2-5.2c0-2,0.4-3.7,1.2-5.2c0.8-1.5,1.9-2.6,3.3-3.5c1.4-0.8,3.1-1.2,5-1.2c1.8,0,3.4,0.4,4.8,1.2
			c1.4,0.8,2.5,1.9,3.2,3.3c0.8,1.4,1.1,3,1.1,4.7C434.9,521.1,434.8,521.8,434.8,522.5z M430.8,516.7c-0.5-0.9-1.3-1.5-2.2-2
			c-0.9-0.5-1.9-0.7-3.1-0.7c-1.6,0-3,0.5-4.1,1.5s-1.8,2.5-1.9,4.3h12.1C431.6,518.6,431.3,517.6,430.8,516.7z"/>
		<path class="st0" d="M441.9,530.4c-1.2-0.5-2.1-1.2-2.8-2.1c-0.7-0.9-1.1-1.9-1.1-3.1h3.3c0.1,1,0.5,1.7,1.3,2.3
			c0.8,0.6,1.9,0.9,3.2,0.9c1.2,0,2.2-0.3,2.9-0.8c0.7-0.5,1-1.2,1-2c0-0.8-0.4-1.5-1.1-1.9c-0.8-0.4-1.9-0.8-3.5-1.2
			c-1.4-0.4-2.6-0.8-3.5-1.1c-0.9-0.4-1.7-1-2.3-1.7c-0.6-0.8-1-1.8-1-3c0-1,0.3-1.9,0.9-2.7c0.6-0.8,1.4-1.5,2.5-1.9
			c1.1-0.5,2.3-0.7,3.7-0.7c2.1,0,3.8,0.5,5.1,1.6c1.3,1.1,2,2.5,2.1,4.4h-3.2c-0.1-1-0.5-1.8-1.2-2.4c-0.7-0.6-1.7-0.9-3-0.9
			c-1.1,0-2.1,0.2-2.7,0.7s-1,1.1-1,1.9c0,0.6,0.2,1.2,0.6,1.6c0.4,0.4,0.9,0.7,1.5,1c0.6,0.2,1.5,0.5,2.6,0.8
			c1.4,0.4,2.5,0.7,3.4,1.1c0.9,0.4,1.6,0.9,2.2,1.6c0.6,0.7,0.9,1.7,1,2.8c0,1.1-0.3,2-0.9,2.8c-0.6,0.8-1.4,1.5-2.5,2
			c-1.1,0.5-2.3,0.7-3.7,0.7C444.4,531.2,443.1,530.9,441.9,530.4z"/>
		<path class="st0" d="M460.7,526.4l-3.9,9.4h-2.1l2.6-9.4H460.7z"/>
		<path class="st0" d="M500.7,512.2c1.2,0.6,2.1,1.5,2.8,2.8c0.7,1.2,1,2.7,1,4.5v11.3h-3.2V520c0-1.9-0.5-3.4-1.4-4.4
			c-0.9-1-2.2-1.5-3.8-1.5c-1.7,0-3,0.5-4,1.6c-1,1.1-1.5,2.6-1.5,4.6v10.6h-3.2V520c0-1.9-0.5-3.4-1.4-4.4c-0.9-1-2.2-1.5-3.8-1.5
			c-1.7,0-3,0.5-4,1.6c-1,1.1-1.5,2.6-1.5,4.6v10.6h-3.2v-19.2h3.2v2.8c0.6-1,1.5-1.8,2.5-2.3c1.1-0.5,2.2-0.8,3.5-0.8
			c1.6,0,3,0.4,4.3,1.1c1.2,0.7,2.2,1.8,2.8,3.2c0.5-1.4,1.4-2.4,2.7-3.2c1.2-0.7,2.6-1.1,4.1-1.1
			C498.3,511.3,499.6,511.6,500.7,512.2z"/>
		<path class="st0" d="M513.2,530c-1.5-0.8-2.6-2-3.4-3.5c-0.8-1.5-1.2-3.3-1.2-5.2c0-2,0.4-3.7,1.3-5.2c0.9-1.5,2-2.7,3.5-3.5
			c1.5-0.8,3.1-1.2,4.9-1.2c1.8,0,3.5,0.4,4.9,1.2c1.5,0.8,2.6,2,3.5,3.5c0.9,1.5,1.3,3.2,1.3,5.2c0,2-0.4,3.7-1.3,5.2
			c-0.9,1.5-2.1,2.7-3.6,3.5c-1.5,0.8-3.2,1.2-5,1.2C516.3,531.2,514.7,530.8,513.2,530z M521.4,527.6c1-0.5,1.8-1.3,2.4-2.4
			c0.6-1.1,0.9-2.4,0.9-3.9c0-1.5-0.3-2.8-0.9-3.9c-0.6-1.1-1.4-1.9-2.4-2.4c-1-0.5-2-0.8-3.2-0.8c-1.2,0-2.2,0.3-3.2,0.8
			c-1,0.5-1.7,1.3-2.3,2.4c-0.6,1.1-0.9,2.4-0.9,3.9c0,1.6,0.3,2.9,0.9,4c0.6,1.1,1.3,1.9,2.3,2.4c1,0.5,2,0.8,3.2,0.8
			C519.3,528.4,520.3,528.1,521.4,527.6z"/>
		<path class="st0" d="M532.2,516c0.8-1.5,1.9-2.6,3.3-3.4c1.4-0.8,2.9-1.2,4.7-1.2c1.5,0,2.9,0.3,4.2,1c1.3,0.7,2.3,1.6,2.9,2.7
			v-10.2h3.2v25.9h-3.2v-3.6c-0.6,1.1-1.6,2.1-2.8,2.8s-2.7,1.1-4.3,1.1c-1.7,0-3.3-0.4-4.6-1.3c-1.4-0.8-2.5-2-3.3-3.5
			c-0.8-1.5-1.2-3.2-1.2-5.2C531,519.2,531.4,517.5,532.2,516z M546.4,517.4c-0.6-1.1-1.4-1.9-2.4-2.5c-1-0.6-2.1-0.9-3.3-0.9
			c-1.2,0-2.3,0.3-3.3,0.8c-1,0.6-1.8,1.4-2.3,2.4c-0.6,1.1-0.9,2.3-0.9,3.8c0,1.5,0.3,2.7,0.9,3.8s1.4,1.9,2.3,2.5
			c1,0.6,2.1,0.9,3.3,0.9c1.2,0,2.3-0.3,3.3-0.9c1-0.6,1.8-1.4,2.4-2.5c0.6-1.1,0.9-2.4,0.9-3.8S547,518.5,546.4,517.4z"/>
		<path class="st0" d="M555.9,516c0.8-1.5,1.9-2.6,3.3-3.4c1.4-0.8,2.9-1.2,4.6-1.2c1.7,0,3.1,0.4,4.4,1.1c1.2,0.7,2.2,1.6,2.8,2.7
			v-3.5h3.2v19.2h-3.2v-3.6c-0.6,1.1-1.6,2-2.8,2.8s-2.7,1.1-4.4,1.1c-1.7,0-3.2-0.4-4.6-1.3c-1.4-0.8-2.5-2-3.3-3.5
			c-0.8-1.5-1.2-3.2-1.2-5.2C554.7,519.2,555.1,517.5,555.9,516z M570.1,517.4c-0.6-1.1-1.4-1.9-2.4-2.5c-1-0.6-2.1-0.9-3.3-0.9
			c-1.2,0-2.3,0.3-3.3,0.8c-1,0.6-1.8,1.4-2.3,2.4c-0.6,1.1-0.9,2.3-0.9,3.8c0,1.5,0.3,2.7,0.9,3.8c0.6,1.1,1.4,1.9,2.3,2.5
			c1,0.6,2.1,0.9,3.3,0.9c1.2,0,2.3-0.3,3.3-0.9c1-0.6,1.8-1.4,2.4-2.5s0.9-2.4,0.9-3.8S570.6,518.5,570.1,517.4z"/>
	</g>
</g>
</svg>
