<?xml version="1.0" encoding="UTF-8"?>
<svg id="_層_2" data-name="圖層 2" xmlns="http://www.w3.org/2000/svg" width="600" height="622.89" viewBox="0 0 600 622.89">
  <defs>
    <style>
      .cls-1 {
        fill: #1f333d;
      }

      .cls-2 {
        fill: #b3c33e;
      }
    </style>
  </defs>
  <g id="_層_1-2" data-name="圖層 1">
    <g>
      <path class="cls-1" d="M85.95,216.22c0-71.08,57.85-128.92,128.92-128.92l49.5-.12V.57c-39.58-.26-50.63-2.66-91.32,4.89-.39,.07-.83,.22-1.22,.23C73.88,25.67,0,112.45,0,216.22c0,118.51,96.56,216.04,215.07,216.04h217.18V.57h-83.94V345.65l-133.44-.52c-71.07,0-128.92-57.84-128.92-128.91Z"/>
      <g>
        <path class="cls-1" d="M150.6,497.44h-5.71l15.94-36.75h4.67l15.78,36.75h-5.81l-3.74-9.03h-17.44l-3.69,9.03Zm5.5-13.55h13.76l-6.85-17.24-6.9,17.24Z"/>
        <path class="cls-1" d="M205.37,493.55c-.93,1.49-2.21,2.62-3.82,3.4s-3.3,1.17-5.06,1.17c-1.9,0-3.62-.34-5.14-1.01-1.52-.67-2.82-1.6-3.89-2.78-1.07-1.18-1.9-2.56-2.49-4.15-.59-1.59-.88-3.29-.88-5.09s.29-3.49,.88-5.06c.59-1.58,1.43-2.95,2.52-4.13,1.09-1.18,2.4-2.09,3.92-2.75,1.52-.66,3.2-.99,5.04-.99,2.01,0,3.75,.42,5.24,1.27,1.49,.85,2.66,1.88,3.53,3.09h.1v-18.33h4.88v39.25h-4.72v-3.89h-.1Zm-16.2-8.44c0,1.14,.17,2.24,.52,3.31,.35,1.07,.86,2.02,1.56,2.85,.69,.83,1.54,1.49,2.54,1.99,1,.5,2.18,.75,3.53,.75,1.25,0,2.38-.24,3.4-.72,1.02-.48,1.89-1.13,2.62-1.94,.73-.81,1.29-1.75,1.69-2.82,.4-1.07,.6-2.19,.6-3.36s-.2-2.29-.6-3.37c-.4-1.07-.96-2.02-1.69-2.85s-1.6-1.48-2.62-1.97c-1.02-.48-2.15-.72-3.4-.72-1.35,0-2.53,.24-3.53,.72-1,.48-1.85,1.14-2.54,1.97-.69,.83-1.21,1.78-1.56,2.85-.35,1.07-.52,2.17-.52,3.31Z"/>
        <path class="cls-1" d="M226.47,473.54c1.37-.92,2.99-1.38,4.85-1.38,1.66,0,3.16,.38,4.49,1.14,1.33,.76,2.38,2.02,3.14,3.79,.83-1.59,1.99-2.81,3.48-3.66,1.49-.85,3.11-1.27,4.88-1.27,1.59,0,2.96,.27,4.1,.8,1.14,.54,2.09,1.26,2.86,2.15,.76,.9,1.32,1.96,1.69,3.17,.36,1.21,.55,2.51,.55,3.89v15.26h-4.88v-13.65c0-1-.09-1.95-.26-2.85-.17-.9-.47-1.7-.88-2.39-.42-.69-.97-1.24-1.66-1.66-.69-.41-1.58-.62-2.65-.62s-2.06,.23-2.86,.7c-.8,.47-1.45,1.07-1.95,1.82-.5,.74-.87,1.58-1.09,2.52-.23,.93-.34,1.89-.34,2.85v13.29h-4.88v-14.64c0-.97-.09-1.85-.26-2.65-.17-.8-.47-1.48-.88-2.05-.42-.57-.95-1.02-1.61-1.35-.66-.33-1.47-.49-2.44-.49-1.8,0-3.3,.74-4.49,2.21-1.19,1.47-1.79,3.43-1.79,5.89v13.08h-4.88v-19.31c0-.66-.02-1.5-.05-2.54-.04-1.04-.09-1.95-.16-2.75h4.62c.07,.62,.12,1.32,.16,2.1,.03,.78,.05,1.43,.05,1.95h.16c.62-1.31,1.62-2.43,2.98-3.35Z"/>
        <path class="cls-1" d="M270.46,463.96c0,.9-.32,1.64-.95,2.23-.64,.59-1.4,.88-2.29,.88s-1.65-.3-2.27-.91c-.62-.6-.93-1.34-.93-2.21s.31-1.65,.93-2.26c.62-.6,1.37-.91,2.27-.91s1.66,.3,2.29,.91c.64,.61,.95,1.36,.95,2.26Zm-.78,33.48h-4.88v-24.61h4.88v24.61Z"/>
        <path class="cls-1" d="M282.61,472.83c.07,.62,.12,1.32,.16,2.1,.03,.78,.05,1.43,.05,1.95h.16c.31-.66,.74-1.27,1.27-1.84,.54-.57,1.15-1.07,1.84-1.5,.69-.43,1.45-.77,2.28-1.01,.83-.24,1.69-.36,2.6-.36,1.59,0,2.96,.27,4.1,.8,1.14,.54,2.09,1.26,2.86,2.15,.76,.9,1.32,1.96,1.69,3.17,.36,1.21,.55,2.51,.55,3.89v15.26h-4.88v-13.65c0-1-.08-1.95-.23-2.85-.16-.9-.44-1.7-.86-2.39-.42-.69-.99-1.24-1.71-1.66-.73-.41-1.66-.62-2.8-.62-1.94,0-3.52,.74-4.75,2.21-1.23,1.47-1.84,3.43-1.84,5.89v13.08h-4.88v-19.31c0-.66-.02-1.5-.05-2.54-.04-1.04-.09-1.95-.16-2.75h4.62Z"/>
        <path class="cls-1" d="M314.12,463.96c0,.9-.32,1.64-.95,2.23-.64,.59-1.4,.88-2.29,.88s-1.65-.3-2.27-.91c-.62-.6-.93-1.34-.93-2.21s.31-1.65,.93-2.26c.62-.6,1.37-.91,2.27-.91s1.66,.3,2.29,.91c.64,.61,.95,1.36,.95,2.26Zm-.78,33.48h-4.88v-24.61h4.88v24.61Z"/>
        <path class="cls-1" d="M335.14,479.06c-.55-.9-1.33-1.64-2.34-2.21s-2.13-.86-3.37-.86c-.55,0-1.11,.06-1.66,.18-.55,.12-1.05,.31-1.48,.57s-.78,.59-1.04,.99c-.26,.4-.39,.89-.39,1.48,0,1.04,.47,1.81,1.4,2.31,.93,.5,2.34,.96,4.2,1.38,1.18,.28,2.27,.61,3.27,.99,1,.38,1.88,.86,2.62,1.43,.74,.57,1.32,1.26,1.74,2.05,.41,.8,.62,1.73,.62,2.8,0,1.45-.28,2.68-.83,3.69-.55,1-1.29,1.83-2.21,2.47-.92,.64-1.96,1.1-3.14,1.38-1.18,.28-2.39,.41-3.63,.41-1.87,0-3.69-.36-5.48-1.09-1.78-.73-3.26-1.83-4.44-3.32l3.48-2.96c.66,.97,1.56,1.78,2.73,2.44,1.16,.66,2.43,.99,3.82,.99,.62,0,1.22-.06,1.79-.18,.57-.12,1.09-.32,1.56-.6,.47-.28,.84-.64,1.12-1.09,.28-.45,.41-1.02,.41-1.71,0-1.14-.54-1.99-1.64-2.54-1.09-.55-2.69-1.07-4.8-1.56-.83-.21-1.67-.46-2.52-.75-.85-.29-1.62-.7-2.31-1.22s-1.25-1.17-1.69-1.95c-.43-.78-.65-1.74-.65-2.88,0-1.31,.27-2.45,.81-3.4,.54-.95,1.24-1.73,2.1-2.34,.86-.6,1.85-1.06,2.96-1.35,1.11-.29,2.25-.44,3.43-.44,1.76,0,3.47,.35,5.11,1.04,1.64,.69,2.91,1.7,3.82,3.01l-3.37,2.86Z"/>
        <path class="cls-1" d="M356.95,476.83h-6.54v12.78c0,1.48,.28,2.54,.83,3.18,.55,.64,1.44,.96,2.65,.96,.45,0,.93-.05,1.45-.14,.52-.1,.99-.24,1.4-.43l.16,4c-.59,.21-1.24,.37-1.95,.49-.71,.12-1.45,.18-2.21,.18-2.32,0-4.09-.64-5.32-1.92s-1.84-3.2-1.84-5.76v-13.34h-4.72v-4h4.72v-7.06h4.83v7.06h6.54v4Z"/>
        <path class="cls-1" d="M361.93,475.59c-.03-1.04-.09-1.95-.16-2.75h4.62c.07,.62,.12,1.34,.15,2.15s.05,1.48,.05,2h.15c.69-1.45,1.7-2.62,3.04-3.5,1.33-.88,2.83-1.32,4.49-1.32,.76,0,1.4,.07,1.92,.21l-.21,4.52c-.69-.17-1.44-.26-2.23-.26-1.18,0-2.2,.22-3.06,.65-.87,.43-1.58,1.01-2.15,1.74-.57,.73-1,1.57-1.27,2.52-.28,.95-.41,1.95-.41,2.99v12.93h-4.88v-19.31c0-.66-.02-1.5-.05-2.54Z"/>
        <path class="cls-1" d="M395.41,481.5c0-1.83-.55-3.19-1.66-4.08-1.11-.88-2.58-1.32-4.41-1.32-1.38,0-2.69,.27-3.92,.81s-2.26,1.22-3.09,2.05l-2.59-3.11c1.21-1.14,2.69-2.04,4.44-2.7,1.75-.66,3.63-.99,5.63-.99,1.76,0,3.3,.25,4.6,.75,1.3,.5,2.36,1.19,3.19,2.05,.83,.86,1.45,1.89,1.87,3.06,.41,1.18,.62,2.44,.62,3.79v10.75c0,.83,.03,1.7,.08,2.62,.05,.92,.15,1.67,.29,2.26h-4.41c-.28-1.18-.41-2.35-.41-3.53h-.16c-.9,1.32-2.03,2.34-3.4,3.06-1.37,.73-2.98,1.09-4.85,1.09-.97,0-1.98-.13-3.04-.39-1.06-.26-2.02-.68-2.88-1.27-.87-.59-1.58-1.37-2.16-2.34-.57-.97-.86-2.16-.86-3.58,0-1.87,.5-3.35,1.5-4.44,1-1.09,2.32-1.92,3.95-2.49,1.63-.57,3.46-.94,5.5-1.12s4.1-.26,6.18-.26v-.67Zm-1.19,4.2c-1.21,0-2.47,.05-3.76,.16s-2.47,.31-3.53,.62c-1.06,.31-1.93,.78-2.62,1.4-.69,.62-1.04,1.45-1.04,2.49,0,.73,.15,1.33,.44,1.82,.29,.49,.68,.88,1.17,1.19,.49,.31,1.02,.53,1.61,.65,.59,.12,1.19,.18,1.82,.18,2.28,0,4.04-.68,5.27-2.05,1.23-1.37,1.84-3.09,1.84-5.17v-1.3h-1.19Z"/>
        <path class="cls-1" d="M419.76,476.83h-6.54v12.78c0,1.48,.28,2.54,.83,3.18,.55,.64,1.44,.96,2.65,.96,.45,0,.93-.05,1.45-.14,.52-.1,.99-.24,1.4-.43l.16,4c-.59,.21-1.24,.37-1.95,.49-.71,.12-1.45,.18-2.21,.18-2.32,0-4.09-.64-5.32-1.92-1.23-1.28-1.84-3.2-1.84-5.76v-13.34h-4.72v-4h4.72v-7.06h4.83v7.06h6.54v4Z"/>
        <path class="cls-1" d="M430.51,463.96c0,.9-.32,1.64-.95,2.23-.64,.59-1.4,.88-2.29,.88s-1.65-.3-2.27-.91c-.62-.6-.93-1.34-.93-2.21s.31-1.65,.93-2.26c.62-.6,1.37-.91,2.27-.91s1.66,.3,2.29,.91c.64,.61,.95,1.36,.95,2.26Zm-.78,33.48h-4.88v-24.61h4.88v24.61Z"/>
        <path class="cls-1" d="M463.16,485.09c0,1.9-.34,3.65-1.01,5.24-.67,1.59-1.61,2.97-2.8,4.13-1.19,1.16-2.6,2.06-4.23,2.7-1.63,.64-3.37,.96-5.24,.96s-3.62-.32-5.24-.96-3.03-1.54-4.2-2.7c-1.18-1.16-2.1-2.53-2.78-4.13s-1.01-3.34-1.01-5.24,.34-3.64,1.01-5.22c.67-1.57,1.6-2.93,2.78-4.08,1.18-1.14,2.58-2.03,4.2-2.67s3.37-.96,5.24-.96,3.62,.32,5.24,.96c1.63,.64,3.04,1.53,4.23,2.67,1.19,1.14,2.13,2.5,2.8,4.08,.67,1.58,1.01,3.31,1.01,5.22Zm-5.09,.03c0-1.17-.18-2.29-.55-3.36-.36-1.07-.89-2.01-1.59-2.82-.69-.81-1.55-1.46-2.58-1.94-1.02-.48-2.2-.72-3.52-.72s-2.49,.24-3.52,.72c-1.02,.48-1.88,1.13-2.58,1.94-.69,.81-1.22,1.75-1.59,2.82-.36,1.07-.55,2.19-.55,3.36s.18,2.29,.55,3.36c.36,1.07,.89,2.02,1.59,2.85,.69,.83,1.55,1.48,2.58,1.97,1.02,.48,2.2,.72,3.52,.72s2.49-.24,3.52-.72c1.02-.48,1.88-1.14,2.58-1.97,.7-.83,1.22-1.78,1.59-2.85,.36-1.07,.55-2.19,.55-3.36Z"/>
        <path class="cls-1" d="M474.32,472.83c.07,.62,.12,1.32,.15,2.1,.03,.78,.05,1.43,.05,1.95h.15c.31-.66,.74-1.27,1.27-1.84,.54-.57,1.15-1.07,1.84-1.5,.69-.43,1.45-.77,2.28-1.01,.83-.24,1.7-.36,2.6-.36,1.59,0,2.96,.27,4.1,.8s2.09,1.26,2.85,2.15c.76,.9,1.32,1.96,1.69,3.17,.36,1.21,.54,2.51,.54,3.89v15.26h-4.88v-13.65c0-1-.08-1.95-.23-2.85-.16-.9-.44-1.7-.86-2.39-.41-.69-.99-1.24-1.71-1.66-.73-.41-1.66-.62-2.8-.62-1.94,0-3.52,.74-4.75,2.21s-1.84,3.43-1.84,5.89v13.08h-4.88v-19.31c0-.66-.02-1.5-.05-2.54-.03-1.04-.09-1.95-.16-2.75h4.62Z"/>
        <path class="cls-1" d="M524.67,476.83h-5.71v20.61h-4.88v-20.61h-4.88v-4h4.88v-5.14c0-1.45,.16-2.79,.49-4.02,.33-1.23,.86-2.29,1.61-3.19,.74-.9,1.7-1.61,2.85-2.13,1.16-.52,2.57-.78,4.23-.78,1.18,0,2.2,.12,3.06,.36l-.57,4.21c-.38-.1-.76-.19-1.14-.26-.38-.07-.81-.1-1.3-.1-.93,0-1.69,.16-2.26,.49s-1.01,.77-1.32,1.32c-.31,.55-.52,1.19-.62,1.89-.1,.71-.15,1.45-.15,2.21v5.14h5.71v4Z"/>
        <path class="cls-1" d="M554.11,485.09c0,1.9-.34,3.65-1.01,5.24s-1.61,2.97-2.8,4.13c-1.19,1.16-2.6,2.06-4.23,2.7-1.63,.64-3.37,.96-5.24,.96s-3.62-.32-5.24-.96c-1.63-.64-3.03-1.54-4.2-2.7-1.18-1.16-2.1-2.53-2.78-4.13s-1.01-3.34-1.01-5.24,.34-3.64,1.01-5.22c.67-1.57,1.6-2.93,2.78-4.08,1.18-1.14,2.58-2.03,4.2-2.67s3.37-.96,5.24-.96,3.62,.32,5.24,.96c1.63,.64,3.04,1.53,4.23,2.67,1.19,1.14,2.13,2.5,2.8,4.08,.67,1.58,1.01,3.31,1.01,5.22Zm-5.09,.03c0-1.17-.18-2.29-.55-3.36-.36-1.07-.89-2.01-1.59-2.82-.69-.81-1.55-1.46-2.58-1.94-1.02-.48-2.2-.72-3.52-.72s-2.49,.24-3.52,.72c-1.02,.48-1.88,1.13-2.58,1.94-.69,.81-1.22,1.75-1.59,2.82-.36,1.07-.55,2.19-.55,3.36s.18,2.29,.55,3.36c.36,1.07,.89,2.02,1.59,2.85,.69,.83,1.55,1.48,2.58,1.97,1.02,.48,2.2,.72,3.52,.72s2.49-.24,3.52-.72c1.02-.48,1.88-1.14,2.58-1.97,.7-.83,1.22-1.78,1.59-2.85,.36-1.07,.55-2.19,.55-3.36Z"/>
        <path class="cls-1" d="M560.8,475.59c-.03-1.04-.09-1.95-.16-2.75h4.62c.07,.62,.12,1.34,.15,2.15,.03,.81,.05,1.48,.05,2h.15c.69-1.45,1.7-2.62,3.04-3.5,1.33-.88,2.83-1.32,4.49-1.32,.76,0,1.4,.07,1.92,.21l-.21,4.52c-.69-.17-1.44-.26-2.23-.26-1.18,0-2.2,.22-3.06,.65-.87,.43-1.58,1.01-2.15,1.74-.57,.73-1,1.57-1.27,2.52-.28,.95-.41,1.95-.41,2.99v12.93h-4.88v-19.31c0-.66-.02-1.5-.05-2.54Z"/>
      </g>
      <g>
        <path class="cls-1" d="M366.42,590.9h-2.72c-1.12,7.99-2.9,14.45-5.34,19.39,2.22,4.31,4.98,7.44,8.29,9.41-.91,.78-1.72,1.73-2.43,2.86-3.12-2.06-5.74-4.99-7.87-8.8-2.34,3.53-5.35,6.48-9.04,8.85-.44-.91-1.11-1.89-2.01-2.95,3.96-2.37,7.07-5.51,9.32-9.41-1.59-3.81-2.84-8.07-3.75-12.78-.91,2.19-1.8,3.93-2.67,5.24-.53-.62-1.2-1.28-2.01-1.97v4.03h-11.05c-.47,.94-.98,1.92-1.55,2.95,3.18-.03,8.22-.11,15.12-.23l-.14,2.72-4.96,.09c-.75,2.56-2,4.67-3.75,6.32,2.15,1.09,3.86,2.06,5.1,2.9l-2.25,2.2c-1.16-.81-2.95-1.84-5.38-3.09-2.78,1.78-6.84,3.14-12.17,4.07-.31-1.12-.77-2.06-1.36-2.81,4.4-.53,7.88-1.47,10.44-2.81-1.97-.87-3.59-1.55-4.87-2.01l-.8,1.36-2.9-.89c.84-1.34,1.84-3.01,3-5.01l-5.95,.09-.09-2.81c3.15,0,5.67-.01,7.54-.05,.16-.31,.39-.75,.7-1.31,.4-.78,.7-1.34,.89-1.69h-7.07v-7.96h8.99v-2.2h-7.77v-5.15h-3.32v-2.67h3.32v-5.1h7.77v-2.95h3.09v2.95h8.29v5.1h3.37v2.67h-3.37v5.15h-8.29v2.2h9.41v2.43c2.65-4.68,4.6-11.52,5.85-20.51l3.37,.52c-.5,3.37-1,6.13-1.5,8.29h12.5v3.37Zm-38.68,8.29v3.18h5.95v-3.18h-5.95Zm5.95-15.03h-4.78v2.72h4.78v-2.72Zm-4.78,7.96h4.78v-2.81h-4.78v2.81Zm11.43,18.21l-8.24,.14c-.16,.31-.42,.78-.8,1.4-.25,.44-.44,.75-.56,.94,2.03,.69,4.09,1.5,6.18,2.43,1.56-1.4,2.7-3.04,3.42-4.92Zm1.59-26.17h-5.15v2.72h5.15v-2.72Zm-5.15,7.96h5.15v-2.81h-5.15v2.81Zm6.27,10.25v-3.18h-6.27v3.18h6.27Zm17.18-11.47h-7.21c-.06,.28-.11,.49-.14,.61,.87,5.81,2.11,10.72,3.7,14.75,1.72-4.21,2.93-9.33,3.65-15.36Z"/>
        <path class="cls-1" d="M386.66,578.87l3.28,1.08c-1.34,3.31-2.97,6.59-4.87,9.83v32.59h-3.37v-27.44c-1.93,2.62-3.68,4.7-5.24,6.23-.59-1.25-1.28-2.42-2.06-3.51,4.18-3.87,7.71-8.82,10.58-14.84,.62-1.34,1.19-2.65,1.69-3.93Zm21.21,38.07h11.47v3.37h-31.46v-3.37h16.58c2.15-5.9,4.03-12.86,5.62-20.88,.12-.62,.23-1.22,.33-1.78l3.79,.66c-2,8.68-4.11,16.01-6.32,22.01Zm-18.82-28.8h12.41v-8.85h3.61v8.85h13.06v3.32h-29.08v-3.32Zm11,25.8l-3.46,.75c-.34-4.93-1.36-10.78-3.04-17.56-.19-.66-.36-1.28-.52-1.87l3.14-.56c1.87,6.49,3.14,12.55,3.79,18.17,.03,.37,.06,.73,.09,1.08Z"/>
        <path class="cls-1" d="M461.46,594.37h10.02v2.95h-35.91v4.73c-.03,9.08-1.72,16.03-5.06,20.84-.56-.72-1.44-1.44-2.62-2.15-.06-.03-.11-.06-.14-.09,2.93-4.21,4.4-10.42,4.4-18.64v-7.63h5.48c-.56-1-.98-1.67-1.26-2.01,3.9-.69,7.6-1.56,11.1-2.62-3.56-1.09-6.54-1.92-8.94-2.48l2.01-1.64h-9.08v-2.9h16.72v-3.93h3.51v3.93h17.47v2.9h-8.29l.8,.47c-1.56,1.09-3.76,2.26-6.6,3.51,2.62,.91,5.35,1.94,8.19,3.09l-1.78,1.68Zm-5.67,18.4v5.76h15.31v3h-33.95v-3h15.12v-5.76h-10.82v-2.81h10.82v-4.82h-9.13c-1.19,1.81-2.33,3.28-3.42,4.4-.78-.72-1.67-1.33-2.67-1.83,2.59-2.53,4.59-5.68,5.99-9.46l3.14,.66c-.31,.87-.78,1.98-1.41,3.32h7.49v-3.84h3.51v3.84h12.6v2.9h-12.6v4.82h11.47v2.81h-11.47Zm-16.58-18.4h20.93c-2.53-1.09-5.46-2.22-8.8-3.37-4.03,1.44-8.07,2.56-12.13,3.37Zm18.45-8.76h-15.87c2.22,.53,5.45,1.47,9.69,2.81,2.28-.78,4.34-1.72,6.18-2.81Z"/>
        <path class="cls-1" d="M523.61,611.13h-15.92c3.78,3,8.63,5.31,14.56,6.93,.87,.25,1.73,.47,2.57,.66-1.09,1.03-1.89,2.09-2.39,3.18-5.87-1.68-11.04-4.24-15.5-7.68-.94-.72-1.78-1.44-2.53-2.15v10.44h-3.51v-10.21c-3.84,3.5-8.9,6.34-15.17,8.52-.94,.34-1.84,.64-2.72,.89-.53-1-1.3-2-2.3-3,5.56-1.28,10.5-3.32,14.84-6.13,.75-.5,1.44-.98,2.06-1.45h-15.64v-3h18.92v-3.56h-14.42v-2.76h14.42v-3.46h-16.81v-2.95h10.44c-.41-1.4-1.19-3-2.34-4.78l1.68-.33h-11.71v-3.09h7.63c-.63-1.78-1.89-4.09-3.79-6.93l3-1.03c1.9,2.5,3.26,4.85,4.07,7.07l-2.44,.89h5.9v-8.48h3.32v8.48h5.67v-8.48h3.37v8.48h5.81l-1.78-.56c1.4-2.25,2.62-4.68,3.65-7.3l3.65,.98c-1.81,3.25-3.22,5.54-4.21,6.88h7.4v3.09h-9.55c-.78,1.5-1.78,3.2-3,5.1h10.91v2.95h-17.37v3.46h14.98v2.76h-14.98v3.56h19.2v3Zm-13.72-20.84h-14.09c1.12,1.59,1.92,3.18,2.39,4.78l-1.54,.33h11.28l-.52-.14c1.12-2,1.95-3.65,2.48-4.96Z"/>
        <path class="cls-1" d="M561.04,603.13c-2.25,1.19-4.51,2.26-6.79,3.23h18.03v15.87h-3.46v-1.41h-21.16v1.55h-3.32v-12.27c-1.53,.47-3.06,.92-4.59,1.36-1.53,.44-3.08,.84-4.64,1.22-.16-.37-.43-.89-.82-1.55-.39-.65-.71-1.17-.96-1.54,3.53-.72,7.03-1.62,10.51-2.72,3.48-1.09,6.86-2.34,10.14-3.75h-19.62v-2.95h17.93v-3.56h-13.2v-2.9h13.2v-3.37h-15.22v-9.83h37.13v9.83h-18.45v3.37h10.72v2.43c.91-.62,1.77-1.29,2.6-1.99,.83-.7,1.61-1.41,2.36-2.13l2.76,1.78c-2.34,2.31-5.06,4.43-8.15,6.37h10.67v2.95h-15.69Zm-12.92-19.99h-7.63v4.59h7.63v-4.59Zm20.7,25.89h-21.16v3.18h21.16v-3.18Zm0,9.13v-3.51h-21.16v3.51h21.16Zm-9.5-30.44v-4.59h-7.91v4.59h7.91Zm.65,12.46c1.06-.53,2.08-1.1,3.07-1.71,.98-.61,1.93-1.22,2.83-1.85h-10.11v3.56h4.21Zm2.62-12.46h8.1v-4.59h-8.1v4.59Z"/>
      </g>
      <g>
        <path class="cls-1" d="M156.59,593.1c1.47-.99,3.22-1.48,5.23-1.48,1.79,0,3.4,.41,4.84,1.23,1.44,.82,2.56,2.18,3.38,4.08,.89-1.71,2.14-3.03,3.75-3.94,1.6-.91,3.36-1.37,5.26-1.37,1.71,0,3.19,.29,4.42,.87,1.23,.58,2.26,1.35,3.08,2.32,.82,.97,1.43,2.11,1.82,3.41,.39,1.31,.59,2.71,.59,4.2v16.45h-5.26v-14.71c0-1.08-.09-2.11-.28-3.08-.19-.97-.5-1.83-.95-2.57-.45-.75-1.04-1.34-1.79-1.79-.75-.45-1.7-.67-2.85-.67s-2.22,.25-3.08,.75c-.86,.5-1.56,1.16-2.1,1.96-.54,.8-.93,1.71-1.17,2.71-.24,1.01-.36,2.03-.36,3.08v14.32h-5.26v-15.77c0-1.04-.09-1.99-.28-2.85-.19-.86-.5-1.59-.95-2.21s-1.03-1.1-1.73-1.45c-.71-.35-1.59-.53-2.63-.53-1.94,0-3.55,.79-4.84,2.38-1.29,1.58-1.93,3.7-1.93,6.35v14.1h-5.26v-20.81c0-.71-.02-1.62-.06-2.74-.04-1.12-.09-2.11-.17-2.97h4.98c.07,.67,.13,1.43,.17,2.27,.04,.84,.06,1.54,.06,2.1h.17c.67-1.42,1.74-2.62,3.22-3.61Z"/>
        <path class="cls-1" d="M228.89,605.55c0,2.05-.36,3.93-1.09,5.65-.73,1.72-1.73,3.2-3.02,4.45-1.29,1.25-2.81,2.22-4.56,2.91-1.75,.69-3.64,1.03-5.65,1.03s-3.9-.34-5.65-1.03c-1.75-.69-3.26-1.66-4.53-2.91-1.27-1.25-2.27-2.73-2.99-4.45-.73-1.71-1.09-3.6-1.09-5.65s.36-3.92,1.09-5.62,1.72-3.16,2.99-4.39c1.27-1.23,2.78-2.19,4.53-2.88,1.75-.69,3.64-1.04,5.65-1.04s3.9,.35,5.65,1.04c1.75,.69,3.27,1.65,4.56,2.88,1.29,1.23,2.29,2.69,3.02,4.39,.73,1.7,1.09,3.57,1.09,5.62Zm-5.48,.03c0-1.26-.2-2.47-.59-3.63-.39-1.15-.96-2.17-1.71-3.04-.75-.87-1.67-1.57-2.78-2.09-1.1-.52-2.37-.78-3.79-.78s-2.69,.26-3.79,.78c-1.1,.52-2.03,1.22-2.78,2.09-.75,.87-1.32,1.89-1.71,3.04-.39,1.15-.59,2.36-.59,3.63s.2,2.47,.59,3.63c.39,1.15,.96,2.18,1.71,3.07s1.67,1.6,2.78,2.12c1.1,.52,2.37,.78,3.79,.78s2.68-.26,3.79-.78c1.1-.52,2.03-1.23,2.78-2.12,.75-.89,1.32-1.92,1.71-3.07,.39-1.15,.59-2.36,.59-3.63Z"/>
        <path class="cls-1" d="M261.51,614.66c-1.01,1.6-2.38,2.82-4.11,3.66-1.73,.84-3.55,1.26-5.45,1.26-2.05,0-3.9-.36-5.54-1.09-1.64-.73-3.04-1.73-4.2-2.99-1.16-1.27-2.05-2.76-2.68-4.48-.63-1.71-.95-3.54-.95-5.48s.32-3.76,.95-5.45c.63-1.7,1.54-3.18,2.71-4.45s2.58-2.26,4.22-2.97c1.64-.71,3.45-1.06,5.43-1.06,2.16,0,4.05,.46,5.65,1.37,1.6,.91,2.87,2.02,3.8,3.33h.11v-19.75h5.26v42.29h-5.09v-4.19h-.11Zm-17.45-9.09c0,1.23,.19,2.42,.56,3.57,.37,1.15,.93,2.18,1.68,3.07,.75,.89,1.66,1.61,2.74,2.15,1.08,.54,2.35,.81,3.8,.81,1.34,0,2.56-.26,3.66-.78,1.1-.52,2.04-1.22,2.82-2.09,.78-.87,1.39-1.89,1.82-3.04,.43-1.15,.64-2.36,.64-3.63s-.22-2.47-.64-3.63c-.43-1.15-1.04-2.17-1.82-3.07-.78-.89-1.73-1.6-2.82-2.12-1.1-.52-2.32-.78-3.66-.78-1.45,0-2.72,.26-3.8,.78-1.08,.52-2,1.23-2.74,2.12-.75,.89-1.31,1.92-1.68,3.07-.37,1.15-.56,2.34-.56,3.57Z"/>
        <path class="cls-1" d="M296.58,601.69c0-1.98-.6-3.44-1.79-4.39-1.19-.95-2.78-1.43-4.76-1.43-1.49,0-2.9,.29-4.22,.87-1.32,.58-2.43,1.31-3.33,2.21l-2.8-3.36c1.3-1.23,2.9-2.2,4.78-2.91,1.88-.71,3.91-1.06,6.07-1.06,1.9,0,3.55,.27,4.95,.81,1.4,.54,2.55,1.28,3.44,2.21,.89,.93,1.57,2.03,2.01,3.3,.45,1.27,.67,2.63,.67,4.08v11.58c0,.9,.03,1.84,.08,2.82,.06,.99,.16,1.8,.31,2.43h-4.76c-.3-1.27-.45-2.54-.45-3.8h-.17c-.97,1.42-2.19,2.52-3.66,3.3-1.47,.78-3.22,1.17-5.23,1.17-1.04,0-2.14-.14-3.27-.42-1.14-.28-2.17-.74-3.1-1.37-.93-.63-1.71-1.47-2.32-2.52-.62-1.04-.92-2.33-.92-3.86,0-2.01,.54-3.61,1.62-4.78,1.08-1.17,2.5-2.07,4.25-2.68,1.75-.62,3.73-1.02,5.93-1.2s4.42-.28,6.66-.28v-.73Zm-1.29,4.53c-1.31,0-2.66,.06-4.06,.17s-2.67,.34-3.8,.67c-1.14,.34-2.08,.84-2.82,1.51-.75,.67-1.12,1.57-1.12,2.68,0,.78,.16,1.44,.48,1.96,.32,.52,.74,.95,1.26,1.29,.52,.34,1.1,.57,1.73,.7,.63,.13,1.29,.2,1.96,.2,2.46,0,4.35-.74,5.68-2.21,1.32-1.47,1.99-3.33,1.99-5.57v-1.4h-1.29Z"/>
      </g>
      <g>
        <path class="cls-1" d="M148.45,519.05h13.39c2.5,0,5,.37,7.5,1.1,2.5,.74,4.76,1.89,6.78,3.47,2.02,1.58,3.66,3.6,4.91,6.06,1.25,2.46,1.87,5.42,1.87,8.87s-.62,6.24-1.87,8.68c-1.25,2.44-2.88,4.46-4.91,6.06-2.02,1.6-4.28,2.79-6.78,3.58-2.5,.79-5,1.18-7.5,1.18h-13.39v-39.02Zm5.46,34.22h6.83c2.35,0,4.53-.33,6.53-.99,2-.66,3.73-1.62,5.18-2.87,1.45-1.25,2.58-2.79,3.39-4.63,.81-1.84,1.21-3.91,1.21-6.23s-.4-4.55-1.21-6.39c-.81-1.84-1.94-3.37-3.39-4.6-1.45-1.23-3.18-2.17-5.18-2.81-2-.64-4.18-.96-6.53-.96h-6.83v29.48Z"/>
        <path class="cls-1" d="M196.45,522.52c0,.95-.34,1.74-1.01,2.37-.67,.63-1.49,.94-2.43,.94s-1.75-.32-2.41-.96c-.66-.64-.98-1.42-.98-2.34s.33-1.75,.98-2.4c.66-.64,1.46-.97,2.41-.97s1.76,.32,2.43,.97c.67,.64,1.01,1.44,1.01,2.4Zm-.83,35.55h-5.18v-26.12h5.18v26.12Z"/>
        <path class="cls-1" d="M206.97,562.53c1.14,1.29,2.56,2.32,4.27,3.09,1.71,.77,3.46,1.16,5.26,1.16s3.18-.25,4.35-.74c1.18-.5,2.12-1.18,2.84-2.04,.72-.86,1.23-1.88,1.54-3.06,.31-1.18,.47-2.44,.47-3.8v-3.36h-.11c-.96,1.47-2.26,2.59-3.91,3.36-1.65,.77-3.42,1.16-5.29,1.16-1.98,0-3.79-.35-5.43-1.05-1.64-.7-3.02-1.65-4.16-2.86-1.14-1.21-2.02-2.64-2.65-4.27-.63-1.63-.94-3.39-.94-5.26s.31-3.64,.94-5.29c.62-1.65,1.51-3.09,2.65-4.33,1.14-1.23,2.52-2.2,4.13-2.92,1.62-.72,3.42-1.08,5.4-1.08,1.87,0,3.66,.41,5.37,1.21,1.71,.81,3.06,2.04,4.05,3.69h.11v-4.19h5.01v24.8c0,1.91-.24,3.74-.72,5.48-.48,1.74-1.29,3.29-2.42,4.63-1.14,1.34-2.63,2.42-4.46,3.22-1.84,.81-4.12,1.21-6.83,1.21-2.28,0-4.57-.41-6.86-1.24-2.3-.83-4.27-1.99-5.92-3.5l3.31-4.02Zm1.54-17.8c0,1.21,.19,2.37,.58,3.47,.39,1.1,.96,2.08,1.71,2.92,.76,.85,1.67,1.53,2.74,2.04,1.07,.51,2.29,.77,3.65,.77s2.54-.24,3.65-.72c1.11-.48,2.05-1.13,2.82-1.96,.77-.83,1.37-1.8,1.8-2.92,.42-1.12,.64-2.32,.64-3.61s-.21-2.42-.64-3.53-1.03-2.08-1.82-2.92c-.79-.84-1.73-1.52-2.82-2.01-1.09-.5-2.29-.74-3.62-.74s-2.58,.25-3.65,.74c-1.07,.5-1.98,1.16-2.74,1.98s-1.33,1.8-1.71,2.92c-.39,1.12-.58,2.31-.58,3.55Z"/>
        <path class="cls-1" d="M246.1,522.52c0,.95-.34,1.74-1.01,2.37-.67,.63-1.49,.94-2.43,.94s-1.75-.32-2.41-.96c-.66-.64-.98-1.42-.98-2.34s.33-1.75,.98-2.4c.66-.64,1.46-.97,2.41-.97s1.76,.32,2.43,.97c.67,.64,1.01,1.44,1.01,2.4Zm-.83,35.55h-5.18v-26.12h5.18v26.12Z"/>
        <path class="cls-1" d="M267.37,536.19h-6.94v13.57c0,1.58,.29,2.7,.88,3.38,.59,.68,1.52,1.02,2.81,1.02,.48,0,.99-.05,1.54-.15,.55-.1,1.05-.25,1.49-.45l.17,4.24c-.62,.22-1.31,.39-2.07,.52-.75,.13-1.53,.19-2.34,.19-2.46,0-4.34-.68-5.65-2.04-1.3-1.36-1.96-3.4-1.96-6.12v-14.16h-5.01v-4.24h5.01v-7.5h5.13v7.5h6.94v4.24Z"/>
        <path class="cls-1" d="M289.25,541.15c0-1.95-.59-3.39-1.76-4.33-1.18-.94-2.74-1.4-4.68-1.4-1.47,0-2.86,.28-4.16,.85-1.3,.57-2.4,1.29-3.28,2.18l-2.76-3.31c1.29-1.21,2.86-2.17,4.71-2.87,1.85-.7,3.85-1.05,5.98-1.05,1.87,0,3.5,.27,4.88,.8,1.38,.53,2.51,1.26,3.39,2.18,.88,.92,1.54,2,1.98,3.25,.44,1.25,.66,2.59,.66,4.02v11.41c0,.88,.03,1.81,.08,2.78,.06,.97,.16,1.77,.3,2.4h-4.68c-.29-1.25-.44-2.5-.44-3.75h-.17c-.96,1.4-2.16,2.48-3.61,3.25-1.45,.77-3.17,1.16-5.15,1.16-1.03,0-2.1-.14-3.22-.41-1.12-.27-2.14-.72-3.06-1.35-.92-.62-1.68-1.45-2.29-2.48-.61-1.03-.91-2.3-.91-3.8,0-1.98,.53-3.55,1.6-4.71,1.07-1.16,2.46-2.04,4.19-2.64,1.73-.61,3.67-1,5.84-1.18s4.35-.28,6.56-.28v-.72Zm-1.27,4.46c-1.29,0-2.62,.06-4,.17-1.38,.11-2.63,.33-3.75,.66-1.12,.33-2.05,.83-2.78,1.49-.74,.66-1.1,1.54-1.1,2.64,0,.77,.16,1.42,.47,1.93,.31,.52,.73,.94,1.24,1.27,.51,.33,1.08,.56,1.71,.69,.62,.13,1.27,.19,1.93,.19,2.42,0,4.29-.73,5.59-2.18,1.3-1.45,1.96-3.28,1.96-5.48v-1.38h-1.27Z"/>
        <path class="cls-1" d="M308.43,558.07h-5.18v-41.66h5.18v41.66Z"/>
        <path class="cls-1" d="M337.52,558.07h-5.46v-39.02h5.46v39.02Z"/>
        <path class="cls-1" d="M351.69,531.95c.07,.66,.13,1.41,.16,2.23,.04,.83,.06,1.52,.06,2.07h.17c.33-.7,.78-1.35,1.35-1.96,.57-.61,1.22-1.14,1.96-1.6,.73-.46,1.54-.82,2.43-1.08,.88-.26,1.8-.39,2.75-.39,1.69,0,3.14,.29,4.35,.86,1.21,.57,2.22,1.33,3.03,2.29,.81,.95,1.4,2.08,1.79,3.36,.39,1.29,.58,2.67,.58,4.13v16.2h-5.18v-14.49c0-1.07-.08-2.08-.25-3.03-.17-.95-.47-1.8-.91-2.54-.44-.73-1.05-1.32-1.82-1.76-.77-.44-1.76-.66-2.98-.66-2.06,0-3.74,.78-5.04,2.34-1.3,1.56-1.96,3.65-1.96,6.25v13.89h-5.18v-20.5c0-.7-.02-1.6-.06-2.7-.04-1.1-.09-2.08-.17-2.92h4.91Z"/>
        <path class="cls-1" d="M400.18,553.94c-.99,1.58-2.34,2.78-4.05,3.61-1.71,.83-3.5,1.24-5.37,1.24-2.02,0-3.84-.36-5.46-1.07-1.62-.72-2.99-1.7-4.13-2.95-1.14-1.25-2.02-2.72-2.65-4.41-.62-1.69-.94-3.49-.94-5.4s.31-3.7,.94-5.37c.62-1.67,1.52-3.13,2.67-4.38,1.16-1.25,2.54-2.22,4.16-2.92,1.62-.7,3.4-1.05,5.35-1.05,2.13,0,3.99,.45,5.57,1.35,1.58,.9,2.83,1.99,3.75,3.28h.11v-19.45h5.18v41.66h-5.01v-4.13h-.11Zm-17.19-8.96c0,1.21,.18,2.38,.55,3.52,.37,1.14,.92,2.14,1.65,3.02s1.63,1.58,2.7,2.12c1.07,.53,2.32,.8,3.75,.8,1.32,0,2.53-.26,3.61-.77,1.08-.51,2.01-1.2,2.78-2.06,.77-.86,1.37-1.86,1.79-2.99,.42-1.13,.63-2.33,.63-3.57s-.21-2.44-.63-3.57c-.42-1.13-1.02-2.14-1.79-3.02-.77-.88-1.7-1.57-2.78-2.09-1.08-.51-2.29-.77-3.61-.77-1.43,0-2.68,.26-3.75,.77-1.07,.51-1.97,1.21-2.7,2.09s-1.29,1.89-1.65,3.02c-.37,1.14-.55,2.31-.55,3.52Z"/>
        <path class="cls-1" d="M433.03,558.07c-.07-.66-.13-1.4-.17-2.23-.04-.83-.06-1.52-.06-2.07h-.11c-.66,1.4-1.77,2.58-3.33,3.55s-3.3,1.46-5.21,1.46c-1.69,0-3.15-.28-4.38-.83-1.23-.55-2.24-1.31-3.03-2.29-.79-.97-1.38-2.1-1.76-3.39-.39-1.29-.58-2.66-.58-4.13v-16.2h5.18v14.44c0,1.07,.08,2.09,.25,3.06,.17,.97,.47,1.83,.91,2.56,.44,.74,1.05,1.32,1.82,1.76s1.76,.66,2.98,.66c2.09,0,3.78-.78,5.07-2.34,1.29-1.56,1.93-3.65,1.93-6.25v-13.89h5.18v20.5c0,.7,.02,1.6,.06,2.7,.04,1.1,.09,2.08,.16,2.92h-4.9Z"/>
        <path class="cls-1" d="M461.08,538.56c-.59-.95-1.42-1.74-2.48-2.34-1.07-.61-2.26-.91-3.58-.91-.59,0-1.18,.06-1.76,.19-.59,.13-1.11,.33-1.57,.61-.46,.28-.83,.63-1.1,1.05-.28,.42-.41,.95-.41,1.57,0,1.1,.5,1.92,1.49,2.45,.99,.53,2.48,1.02,4.46,1.46,1.25,.29,2.41,.64,3.47,1.05,1.07,.41,1.99,.91,2.78,1.52,.79,.61,1.41,1.33,1.85,2.18,.44,.84,.66,1.84,.66,2.98,0,1.54-.29,2.85-.88,3.91-.59,1.07-1.37,1.94-2.34,2.62s-2.09,1.17-3.33,1.46-2.53,.44-3.86,.44c-1.98,0-3.92-.39-5.81-1.16-1.89-.77-3.46-1.95-4.71-3.53l3.69-3.14c.7,1.03,1.66,1.89,2.89,2.59,1.23,.7,2.58,1.05,4.05,1.05,.66,0,1.29-.06,1.9-.19,.61-.13,1.16-.34,1.65-.63s.89-.68,1.18-1.16c.29-.48,.44-1.08,.44-1.82,0-1.21-.58-2.11-1.74-2.7-1.16-.59-2.86-1.14-5.1-1.65-.88-.22-1.77-.49-2.67-.8-.9-.31-1.72-.74-2.45-1.3-.74-.55-1.33-1.24-1.79-2.07-.46-.83-.69-1.85-.69-3.06,0-1.4,.28-2.6,.85-3.61,.57-1.01,1.31-1.84,2.23-2.48,.92-.64,1.97-1.12,3.14-1.43,1.17-.31,2.39-.47,3.64-.47,1.87,0,3.68,.37,5.43,1.1,1.74,.74,3.09,1.8,4.05,3.2l-3.58,3.03Z"/>
        <path class="cls-1" d="M484.5,536.19h-6.94v13.57c0,1.58,.29,2.7,.88,3.38,.59,.68,1.52,1.02,2.81,1.02,.48,0,.99-.05,1.54-.15,.55-.1,1.05-.25,1.49-.45l.17,4.24c-.62,.22-1.31,.39-2.07,.52-.75,.13-1.53,.19-2.34,.19-2.46,0-4.35-.68-5.65-2.04-1.3-1.36-1.96-3.4-1.96-6.12v-14.16h-5.01v-4.24h5.01v-7.5h5.12v7.5h6.94v4.24Z"/>
        <path class="cls-1" d="M490.06,534.87c-.04-1.1-.09-2.08-.17-2.92h4.91c.07,.66,.13,1.42,.16,2.29,.04,.86,.06,1.57,.06,2.12h.17c.73-1.54,1.81-2.78,3.22-3.72,1.41-.94,3-1.41,4.77-1.41,.81,0,1.49,.07,2.04,.22l-.22,4.8c-.74-.18-1.53-.28-2.37-.28-1.25,0-2.33,.23-3.25,.69-.92,.46-1.68,1.07-2.29,1.85s-1.06,1.66-1.35,2.67c-.29,1.01-.44,2.07-.44,3.17v13.72h-5.18v-20.5c0-.7-.02-1.6-.06-2.7Z"/>
        <path class="cls-1" d="M516.4,522.52c0,.95-.34,1.74-1.01,2.37-.67,.63-1.49,.94-2.43,.94s-1.75-.32-2.4-.96c-.66-.64-.98-1.42-.98-2.34s.33-1.75,.98-2.4c.66-.64,1.46-.97,2.4-.97s1.76,.32,2.43,.97,1.01,1.44,1.01,2.4Zm-.83,35.55h-5.18v-26.12h5.18v26.12Z"/>
        <path class="cls-1" d="M549.3,544.79v.88c0,.29-.02,.59-.06,.88h-20.78c.04,1.09,.28,2.13,.74,3.09,.46,.97,1.07,1.81,1.85,2.52,.77,.71,1.66,1.27,2.67,1.67,1.01,.4,2.09,.6,3.22,.6,1.76,0,3.29-.39,4.58-1.16,1.28-.77,2.29-1.71,3.03-2.81l3.64,2.92c-1.4,1.85-3.04,3.21-4.93,4.09-1.89,.87-4,1.31-6.31,1.31-1.98,0-3.82-.33-5.51-.99s-3.14-1.59-4.35-2.78c-1.21-1.19-2.17-2.64-2.87-4.33-.7-1.69-1.05-3.56-1.05-5.62s.34-3.89,1.02-5.59c.68-1.71,1.63-3.17,2.84-4.38,1.22-1.21,2.65-2.16,4.31-2.84,1.66-.68,3.44-1.02,5.36-1.02s3.65,.31,5.22,.94c1.56,.63,2.89,1.53,3.98,2.7,1.09,1.18,1.92,2.6,2.51,4.27,.59,1.67,.88,3.55,.88,5.65Zm-5.29-2.09c-.04-1.03-.21-1.99-.52-2.89-.31-.9-.77-1.68-1.38-2.34s-1.36-1.18-2.26-1.57c-.9-.39-1.96-.58-3.17-.58-1.1,0-2.14,.19-3.11,.58s-1.82,.91-2.53,1.57-1.3,1.44-1.76,2.34c-.46,.9-.73,1.87-.8,2.89h15.54Z"/>
        <path class="cls-1" d="M570.85,538.56c-.59-.95-1.42-1.74-2.48-2.34-1.07-.61-2.26-.91-3.58-.91-.59,0-1.18,.06-1.76,.19-.59,.13-1.11,.33-1.57,.61-.46,.28-.83,.63-1.1,1.05-.28,.42-.41,.95-.41,1.57,0,1.1,.5,1.92,1.49,2.45,.99,.53,2.48,1.02,4.46,1.46,1.25,.29,2.41,.64,3.47,1.05,1.07,.41,1.99,.91,2.78,1.52,.79,.61,1.41,1.33,1.85,2.18,.44,.84,.66,1.84,.66,2.98,0,1.54-.29,2.85-.88,3.91-.59,1.07-1.37,1.94-2.34,2.62-.97,.68-2.09,1.17-3.33,1.46s-2.53,.44-3.86,.44c-1.98,0-3.92-.39-5.81-1.16-1.89-.77-3.46-1.95-4.71-3.53l3.69-3.14c.7,1.03,1.66,1.89,2.89,2.59,1.23,.7,2.58,1.05,4.05,1.05,.66,0,1.29-.06,1.9-.19,.61-.13,1.16-.34,1.65-.63s.89-.68,1.18-1.16c.29-.48,.44-1.08,.44-1.82,0-1.21-.58-2.11-1.74-2.7-1.16-.59-2.86-1.14-5.1-1.65-.88-.22-1.77-.49-2.67-.8-.9-.31-1.72-.74-2.45-1.3-.74-.55-1.33-1.24-1.79-2.07-.46-.83-.69-1.85-.69-3.06,0-1.4,.28-2.6,.85-3.61,.57-1.01,1.31-1.84,2.23-2.48,.92-.64,1.97-1.12,3.14-1.43,1.17-.31,2.39-.47,3.64-.47,1.87,0,3.68,.37,5.43,1.1,1.74,.74,3.09,1.8,4.05,3.2l-3.58,3.03Z"/>
      </g>
      <path class="cls-2" d="M168.24,218.54c0,27.55,20.61,45.84,48.16,45.84h47.97v-95.93h-46.03c-27.55,0-50.09,22.53-50.09,50.09Z"/>
      <rect class="cls-1" x="479.5" y="156.45" width="96.64" height="276.41"/>
      <polygon class="cls-2" points="480.41 .5 564.15 .5 564.15 24.76 504.22 24.76 504.22 72.51 564.15 72.51 564.15 96.31 480.41 96.31 480.41 .5"/>
      <polygon class="cls-1" points="600 35.8 516.26 35.8 516.26 60.07 576.18 60.07 576.18 107.82 516.26 107.82 516.26 131.61 600 131.61 600 35.8"/>
    </g>
  </g>
</svg>