<?xml version="1.0" encoding="utf-8"?>
<!-- Generator: Adobe Illustrator 26.3.1, SVG Export Plug-In . SVG Version: 6.00 Build 0)  -->
<svg version="1.1" id="圖層_1" xmlns="http://www.w3.org/2000/svg" xmlns:xlink="http://www.w3.org/1999/xlink" x="0px" y="0px"
	 viewBox="0 0 246 246" style="enable-background:new 0 0 246 246;" xml:space="preserve">
<style type="text/css">
	.st0{fill:#1F323D;}
</style>
<g>
	<path class="st0" d="M119,91.2v16.5h8V91.2l35.9-0.1v-8H83.1v8L119,91.2z"/>
	<path class="st0" d="M154.9,100.7v47.1L127,129.1l-4-2.8l-4,2.8l-27.9,18.6v-47.1h-8v62l39.9-26.6l39.9,26.6v-62
		C163.1,100.7,154.9,100.7,154.9,100.7z"/>
	<g>
		<path class="st0" d="M98.4,115.6c0.9-1.4,3.1-1.7,4.6-1.7h8.8V112h-3h-4.1h-2.4c-0.8,0-1.5,0.1-2.4,0.1c-2.9,0.2-6,2.4-5.5,5.6
			c0.6,3.4,4.2,4.2,7.2,4.4c1.2,0.1,2.3,0.2,3,0.2s1.6,0,2.6,0l2.2-0.1h1.3c0.2,0,0.5,0,0.8-0.1l0.3-0.1v-6h-9.6v1.8h5.8v2.7
			c-1.2,0-2.4,0-3.4-0.1c-2.4-0.1-7.3-0.5-6.6-4.2C98.1,116,98.2,115.8,98.4,115.6z"/>
		<path class="st0" d="M128.7,113.1c-1.9-0.9-4-1.3-6.1-1.2c-2.4,0-4.6,0.5-6.7,1.5c-1.9,1.1-3,2.4-3,3.7c0,1.3,1,2.8,2.9,3.8
			c2.3,1.1,4.6,1.5,7.1,1.4c2.3,0.1,4.4-0.4,6.5-1.4c1.8-1,2.8-2.2,2.8-3.7c0-0.8-0.2-1.5-0.8-2.2
			C130.6,114.3,129.8,113.6,128.7,113.1z M127,119.7c-1.2,0.8-2.6,1.1-4,1.1c-1.6,0-3.2-0.3-4.6-1c-1-0.4-1.7-1.3-1.8-2.4
			c0.1-1.1,0.6-1.9,1.6-2.5c1.3-0.8,2.9-1.2,4.4-1.1c1.5,0,3,0.3,4.3,1.2c1,0.4,1.6,1.4,1.7,2.5C128.6,118.4,127.9,119.2,127,119.7z
			"/>
		<path class="st0" d="M147.5,112l-6.4,8.1l-6.7-8.1h-4.2l0.5,0.5l8.5,9.9h4l8.4-10.4H147.5z"/>
	</g>
</g>
</svg>
