<?xml version="1.0" encoding="utf-8"?>
<!-- Generator: Adobe Illustrator 26.4.1, SVG Export Plug-In . SVG Version: 6.00 Build 0)  -->
<svg version="1.1" id="圖層_1" xmlns="http://www.w3.org/2000/svg" xmlns:xlink="http://www.w3.org/1999/xlink" x="0px" y="0px"
	 width="416px" height="54px" viewBox="0 0 416 54" style="enable-background:new 0 0 416 54;" xml:space="preserve">
<style type="text/css">
	.st0{fill:#1F333D;}
</style>
<g>
	<g>
		<g id="adi_logo-H-standard-CN_x2B_EN_00000093894210089153185300000010679305039396723584_">
			<g>
				<path class="st0" d="M10.7,27c0-8.9,7.2-16.1,16.1-16.1l6.2,0V0.1C28,0,26.7-0.3,21.6,0.7c0,0-0.1,0-0.2,0C9.2,3.2,0,14,0,27
					c0,14.8,12,27,26.8,27h27.1V0.1H43.5v43l-16.6-0.1C17.9,43.1,10.7,35.8,10.7,27z"/>
				<path class="st0" d="M21,27.3c0,3.4,2.6,5.7,6,5.7h6V21h-5.7C23.8,21,21,23.8,21,27.3z"/>
				<rect x="59.8" y="19.5" class="st0" width="12.1" height="34.5"/>
				<polygon class="st0" points="59.9,0.1 70.4,0.1 70.4,3.1 62.9,3.1 62.9,9 70.4,9 70.4,12 59.9,12 				"/>
				<polygon class="st0" points="74.8,4.5 64.4,4.5 64.4,7.5 71.9,7.5 71.9,13.5 64.4,13.5 64.4,16.4 74.8,16.4 				"/>
			</g>
		</g>
	</g>
	<g>
		<path class="st0" d="M90.9,19.3h-5.8l-1.1,3h-1.8L87,9.1h2l4.8,13.2h-1.8L90.9,19.3z M90.4,17.9L88,11.2l-2.4,6.7H90.4z"/>
		<path class="st0" d="M95.9,14.2c0.4-0.8,1-1.4,1.8-1.9c0.8-0.4,1.6-0.7,2.5-0.7c0.8,0,1.6,0.2,2.3,0.6s1.2,0.9,1.6,1.5V8.2h1.8
			v14.1h-1.8v-2c-0.3,0.6-0.9,1.1-1.5,1.5c-0.7,0.4-1.5,0.6-2.4,0.6c-0.9,0-1.8-0.2-2.5-0.7c-0.8-0.5-1.3-1.1-1.8-1.9
			s-0.6-1.8-0.6-2.8C95.2,16,95.4,15,95.9,14.2z M103.6,15c-0.3-0.6-0.7-1-1.3-1.3c-0.5-0.3-1.1-0.5-1.8-0.5c-0.6,0-1.2,0.2-1.8,0.5
			c-0.5,0.3-1,0.7-1.3,1.3C97.2,15.5,97,16.2,97,17c0,0.8,0.2,1.5,0.5,2.1c0.3,0.6,0.7,1,1.3,1.4c0.5,0.3,1.1,0.5,1.8,0.5
			c0.6,0,1.2-0.2,1.8-0.5c0.5-0.3,1-0.8,1.3-1.4c0.3-0.6,0.5-1.3,0.5-2.1C104.1,16.3,103.9,15.6,103.6,15z"/>
		<path class="st0" d="M123.5,12.2c0.6,0.3,1.1,0.8,1.5,1.5c0.4,0.7,0.6,1.5,0.6,2.5v6.2h-1.7v-5.9c0-1-0.3-1.8-0.8-2.4
			c-0.5-0.6-1.2-0.8-2.1-0.8c-0.9,0-1.6,0.3-2.2,0.9c-0.5,0.6-0.8,1.4-0.8,2.5v5.8h-1.7v-5.9c0-1-0.3-1.8-0.8-2.4
			c-0.5-0.6-1.2-0.8-2.1-0.8c-0.9,0-1.6,0.3-2.2,0.9c-0.5,0.6-0.8,1.4-0.8,2.5v5.8h-1.7V11.8h1.7v1.5c0.3-0.5,0.8-1,1.4-1.3
			c0.6-0.3,1.2-0.4,1.9-0.4c0.9,0,1.7,0.2,2.3,0.6c0.7,0.4,1.2,1,1.5,1.7c0.3-0.7,0.8-1.3,1.4-1.7c0.7-0.4,1.4-0.6,2.2-0.6
			C122.1,11.6,122.8,11.8,123.5,12.2z"/>
		<path class="st0" d="M128.4,9.8c-0.2-0.2-0.3-0.5-0.3-0.8c0-0.3,0.1-0.6,0.3-0.8c0.2-0.2,0.5-0.3,0.8-0.3c0.3,0,0.6,0.1,0.8,0.3
			c0.2,0.2,0.3,0.5,0.3,0.8c0,0.3-0.1,0.6-0.3,0.8c-0.2,0.2-0.5,0.3-0.8,0.3C128.9,10.1,128.7,10,128.4,9.8z M130.1,11.8v10.4h-1.7
			V11.8H130.1z"/>
		<path class="st0" d="M141.2,12.8c0.8,0.8,1.2,1.9,1.2,3.3v6.2h-1.7v-5.9c0-1-0.3-1.8-0.8-2.4c-0.5-0.6-1.2-0.8-2.1-0.8
			c-0.9,0-1.6,0.3-2.2,0.9c-0.5,0.6-0.8,1.4-0.8,2.5v5.8h-1.7V11.8h1.7v1.5c0.3-0.5,0.8-0.9,1.4-1.2c0.6-0.3,1.2-0.4,2-0.4
			C139.4,11.6,140.5,12,141.2,12.8z"/>
		<path class="st0" d="M145.3,9.8C145.1,9.6,145,9.3,145,9c0-0.3,0.1-0.6,0.3-0.8c0.2-0.2,0.5-0.3,0.8-0.3c0.3,0,0.6,0.1,0.8,0.3
			c0.2,0.2,0.3,0.5,0.3,0.8c0,0.3-0.1,0.6-0.3,0.8c-0.2,0.2-0.5,0.3-0.8,0.3C145.8,10.1,145.5,10,145.3,9.8z M147,11.8v10.4h-1.7
			V11.8H147z"/>
		<path class="st0" d="M151.5,22c-0.6-0.3-1.1-0.7-1.5-1.1c-0.4-0.5-0.6-1.1-0.6-1.7h1.8c0.1,0.5,0.3,0.9,0.7,1.3
			c0.4,0.3,1,0.5,1.7,0.5c0.7,0,1.2-0.1,1.6-0.4c0.4-0.3,0.6-0.7,0.6-1.1c0-0.5-0.2-0.8-0.6-1c-0.4-0.2-1-0.4-1.9-0.7
			c-0.8-0.2-1.4-0.4-1.9-0.6c-0.5-0.2-0.9-0.5-1.3-0.9c-0.3-0.4-0.5-1-0.5-1.6c0-0.5,0.2-1,0.5-1.5c0.3-0.4,0.8-0.8,1.4-1.1
			c0.6-0.3,1.3-0.4,2-0.4c1.2,0,2.1,0.3,2.8,0.9c0.7,0.6,1.1,1.4,1.1,2.4h-1.7c0-0.5-0.3-1-0.7-1.3c-0.4-0.3-0.9-0.5-1.6-0.5
			c-0.6,0-1.1,0.1-1.5,0.4c-0.4,0.3-0.6,0.6-0.6,1c0,0.3,0.1,0.6,0.3,0.8c0.2,0.2,0.5,0.4,0.8,0.5c0.3,0.1,0.8,0.3,1.4,0.4
			c0.7,0.2,1.4,0.4,1.8,0.6c0.5,0.2,0.9,0.5,1.2,0.9s0.5,0.9,0.5,1.5c0,0.6-0.2,1.1-0.5,1.5s-0.8,0.8-1.3,1.1
			c-0.6,0.3-1.2,0.4-2,0.4C152.8,22.5,152.1,22.3,151.5,22z"/>
		<path class="st0" d="M162,13.3v6.2c0,0.5,0.1,0.9,0.3,1.1c0.2,0.2,0.6,0.3,1.1,0.3h1.3v1.5h-1.6c-1,0-1.7-0.2-2.2-0.7
			c-0.5-0.4-0.7-1.2-0.7-2.2v-6.2h-1.4v-1.4h1.4V9.2h1.7v2.6h2.7v1.4H162z"/>
		<path class="st0" d="M169.9,12.1c0.6-0.3,1.3-0.5,2.1-0.5v1.8h-0.5c-1.9,0-2.9,1.1-2.9,3.2v5.7h-1.7V11.8h1.7v1.7
			C168.9,12.9,169.3,12.5,169.9,12.1z"/>
		<path class="st0" d="M173.9,14.2c0.4-0.8,1-1.4,1.8-1.9c0.8-0.4,1.6-0.7,2.5-0.7c0.9,0,1.7,0.2,2.4,0.6c0.7,0.4,1.2,0.9,1.5,1.5
			v-1.9h1.8v10.4h-1.8v-1.9c-0.3,0.6-0.9,1.1-1.5,1.5c-0.7,0.4-1.5,0.6-2.4,0.6c-0.9,0-1.8-0.2-2.5-0.7c-0.7-0.5-1.3-1.1-1.8-1.9
			s-0.6-1.8-0.6-2.8C173.3,16,173.5,15,173.9,14.2z M181.7,15c-0.3-0.6-0.7-1-1.3-1.3s-1.1-0.5-1.8-0.5c-0.6,0-1.2,0.2-1.8,0.5
			c-0.5,0.3-1,0.7-1.3,1.3c-0.3,0.6-0.5,1.3-0.5,2.1c0,0.8,0.2,1.5,0.5,2.1c0.3,0.6,0.7,1,1.3,1.4c0.5,0.3,1.1,0.5,1.8,0.5
			c0.6,0,1.2-0.2,1.8-0.5s1-0.8,1.3-1.4c0.3-0.6,0.5-1.3,0.5-2.1C182.1,16.3,182,15.6,181.7,15z"/>
		<path class="st0" d="M188.9,13.3v6.2c0,0.5,0.1,0.9,0.3,1.1c0.2,0.2,0.6,0.3,1.1,0.3h1.3v1.5h-1.6c-1,0-1.7-0.2-2.2-0.7
			c-0.5-0.4-0.7-1.2-0.7-2.2v-6.2h-1.4v-1.4h1.4V9.2h1.7v2.6h2.7v1.4H188.9z"/>
		<path class="st0" d="M193.8,9.8c-0.2-0.2-0.3-0.5-0.3-0.8c0-0.3,0.1-0.6,0.3-0.8c0.2-0.2,0.5-0.3,0.8-0.3c0.3,0,0.6,0.1,0.8,0.3
			c0.2,0.2,0.3,0.5,0.3,0.8c0,0.3-0.1,0.6-0.3,0.8s-0.5,0.3-0.8,0.3C194.3,10.1,194,10,193.8,9.8z M195.5,11.8v10.4h-1.7V11.8H195.5
			z"/>
		<path class="st0" d="M200.3,21.8c-0.8-0.4-1.4-1.1-1.9-1.9c-0.5-0.8-0.7-1.8-0.7-2.8c0-1.1,0.2-2,0.7-2.8c0.5-0.8,1.1-1.4,1.9-1.9
			c0.8-0.4,1.7-0.7,2.7-0.7c1,0,1.9,0.2,2.7,0.7c0.8,0.4,1.4,1.1,1.9,1.9c0.5,0.8,0.7,1.8,0.7,2.8c0,1.1-0.2,2-0.7,2.8
			c-0.5,0.8-1.1,1.5-1.9,1.9c-0.8,0.4-1.7,0.7-2.7,0.7C202,22.5,201.1,22.2,200.3,21.8z M204.8,20.5c0.5-0.3,1-0.7,1.3-1.3
			c0.3-0.6,0.5-1.3,0.5-2.1c0-0.8-0.2-1.5-0.5-2.1c-0.3-0.6-0.8-1-1.3-1.3c-0.5-0.3-1.1-0.4-1.7-0.4c-0.6,0-1.2,0.1-1.7,0.4
			c-0.5,0.3-0.9,0.7-1.3,1.3c-0.3,0.6-0.5,1.3-0.5,2.1c0,0.9,0.2,1.6,0.5,2.2c0.3,0.6,0.7,1,1.2,1.3c0.5,0.3,1.1,0.4,1.7,0.4
			S204.2,20.8,204.8,20.5z"/>
		<path class="st0" d="M218.8,12.8c0.8,0.8,1.2,1.9,1.2,3.3v6.2h-1.7v-5.9c0-1-0.3-1.8-0.8-2.4c-0.5-0.6-1.2-0.8-2.1-0.8
			c-0.9,0-1.6,0.3-2.2,0.9c-0.5,0.6-0.8,1.4-0.8,2.5v5.8h-1.7V11.8h1.7v1.5c0.3-0.5,0.8-0.9,1.4-1.2c0.6-0.3,1.2-0.4,2-0.4
			C217,11.6,218,12,218.8,12.8z"/>
		<path class="st0" d="M232.2,13.3H230v9h-1.7v-9h-1.4v-1.4h1.4v-0.7c0-1.2,0.3-2,0.9-2.6c0.6-0.5,1.6-0.8,2.9-0.8v1.4
			c-0.8,0-1.3,0.1-1.6,0.4c-0.3,0.3-0.5,0.8-0.5,1.5v0.7h2.2V13.3z"/>
		<path class="st0" d="M236.1,21.8c-0.8-0.4-1.4-1.1-1.9-1.9c-0.5-0.8-0.7-1.8-0.7-2.8c0-1.1,0.2-2,0.7-2.8c0.5-0.8,1.1-1.4,1.9-1.9
			c0.8-0.4,1.7-0.7,2.7-0.7c1,0,1.9,0.2,2.7,0.7c0.8,0.4,1.4,1.1,1.9,1.9c0.5,0.8,0.7,1.8,0.7,2.8c0,1.1-0.2,2-0.7,2.8
			c-0.5,0.8-1.1,1.5-1.9,1.9c-0.8,0.4-1.7,0.7-2.7,0.7C237.8,22.5,236.9,22.2,236.1,21.8z M240.5,20.5c0.5-0.3,1-0.7,1.3-1.3
			c0.3-0.6,0.5-1.3,0.5-2.1c0-0.8-0.2-1.5-0.5-2.1c-0.3-0.6-0.8-1-1.3-1.3c-0.5-0.3-1.1-0.4-1.7-0.4c-0.6,0-1.2,0.1-1.7,0.4
			c-0.5,0.3-0.9,0.7-1.3,1.3c-0.3,0.6-0.5,1.3-0.5,2.1c0,0.9,0.2,1.6,0.5,2.2c0.3,0.6,0.7,1,1.2,1.3c0.5,0.3,1.1,0.4,1.7,0.4
			S240,20.8,240.5,20.5z"/>
		<path class="st0" d="M249.4,12.1c0.6-0.3,1.3-0.5,2.1-0.5v1.8H251c-1.9,0-2.9,1.1-2.9,3.2v5.7h-1.7V11.8h1.7v1.7
			C248.4,12.9,248.9,12.5,249.4,12.1z"/>
		<path class="st0" d="M90.9,32.7c1.1,0.5,1.9,1.3,2.4,2.3c0.6,1,0.8,2.2,0.8,3.5c0,1.4-0.3,2.5-0.8,3.5c-0.6,1-1.4,1.8-2.4,2.3
			c-1.1,0.5-2.3,0.8-3.8,0.8H83V31.9h4.1C88.6,31.9,89.9,32.1,90.9,32.7z M91.1,42.4c0.9-0.9,1.4-2.2,1.4-3.8c0-1.7-0.5-2.9-1.4-3.9
			c-0.9-0.9-2.2-1.4-3.9-1.4h-2.4v10.4h2.4C88.9,43.7,90.2,43.3,91.1,42.4z"/>
		<path class="st0" d="M96.6,32.7c-0.2-0.2-0.3-0.5-0.3-0.8c0-0.3,0.1-0.6,0.3-0.8c0.2-0.2,0.5-0.3,0.8-0.3c0.3,0,0.6,0.1,0.8,0.3
			c0.2,0.2,0.3,0.5,0.3,0.8c0,0.3-0.1,0.6-0.3,0.8C98,32.9,97.7,33,97.4,33C97.1,33,96.8,32.9,96.6,32.7z M98.2,34.7v10.4h-1.7V34.7
			H98.2z"/>
		<path class="st0" d="M107.9,35.1c0.7,0.4,1.2,0.9,1.5,1.5v-1.9h1.8v10.7c0,1-0.2,1.8-0.6,2.5c-0.4,0.7-1,1.3-1.7,1.7
			c-0.8,0.4-1.6,0.6-2.6,0.6c-1.4,0-2.5-0.3-3.4-1c-0.9-0.6-1.5-1.5-1.6-2.6h1.7c0.2,0.6,0.6,1.1,1.2,1.5c0.6,0.4,1.3,0.6,2.2,0.6
			c1,0,1.7-0.3,2.3-0.9c0.6-0.6,0.9-1.4,0.9-2.5v-2.2c-0.3,0.6-0.9,1.1-1.5,1.5c-0.7,0.4-1.5,0.6-2.4,0.6c-0.9,0-1.8-0.2-2.5-0.7
			c-0.8-0.5-1.3-1.1-1.8-1.9c-0.4-0.8-0.6-1.8-0.6-2.8c0-1.1,0.2-2,0.6-2.8s1-1.4,1.8-1.9c0.8-0.4,1.6-0.7,2.5-0.7
			C106.4,34.5,107.2,34.7,107.9,35.1z M108.9,37.8c-0.3-0.6-0.7-1-1.3-1.3c-0.5-0.3-1.1-0.5-1.8-0.5c-0.6,0-1.2,0.2-1.8,0.5
			c-0.5,0.3-1,0.7-1.3,1.3c-0.3,0.6-0.5,1.3-0.5,2.1c0,0.8,0.2,1.5,0.5,2.1c0.3,0.6,0.7,1,1.3,1.4c0.5,0.3,1.1,0.5,1.8,0.5
			c0.6,0,1.2-0.2,1.8-0.5c0.5-0.3,1-0.8,1.3-1.4c0.3-0.6,0.5-1.3,0.5-2.1C109.4,39.1,109.2,38.4,108.9,37.8z"/>
		<path class="st0" d="M114.1,32.7c-0.2-0.2-0.3-0.5-0.3-0.8c0-0.3,0.1-0.6,0.3-0.8c0.2-0.2,0.5-0.3,0.8-0.3c0.3,0,0.6,0.1,0.8,0.3
			c0.2,0.2,0.3,0.5,0.3,0.8c0,0.3-0.1,0.6-0.3,0.8c-0.2,0.2-0.5,0.3-0.8,0.3C114.6,33,114.4,32.9,114.1,32.7z M115.8,34.7v10.4h-1.7
			V34.7H115.8z"/>
		<path class="st0" d="M120.9,36.1v6.2c0,0.5,0.1,0.9,0.3,1.1c0.2,0.2,0.6,0.3,1.1,0.3h1.3v1.5H122c-1,0-1.7-0.2-2.2-0.7
			c-0.5-0.4-0.7-1.2-0.7-2.2v-6.2h-1.4v-1.4h1.4v-2.6h1.7v2.6h2.7v1.4H120.9z"/>
		<path class="st0" d="M125.7,37.1c0.4-0.8,1-1.4,1.8-1.9c0.8-0.4,1.6-0.7,2.5-0.7c0.9,0,1.7,0.2,2.4,0.6c0.7,0.4,1.2,0.9,1.5,1.5
			v-1.9h1.8v10.4h-1.8v-1.9c-0.3,0.6-0.9,1.1-1.5,1.5s-1.5,0.6-2.4,0.6c-0.9,0-1.8-0.2-2.5-0.7s-1.3-1.1-1.8-1.9
			c-0.4-0.8-0.6-1.8-0.6-2.8C125,38.8,125.3,37.9,125.7,37.1z M133.4,37.8c-0.3-0.6-0.7-1-1.3-1.3S131,36,130.3,36
			c-0.6,0-1.2,0.2-1.8,0.5c-0.5,0.3-1,0.7-1.3,1.3c-0.3,0.6-0.5,1.3-0.5,2.1c0,0.8,0.2,1.5,0.5,2.1c0.3,0.6,0.7,1,1.3,1.4
			c0.5,0.3,1.1,0.5,1.8,0.5c0.6,0,1.2-0.2,1.8-0.5s1-0.8,1.3-1.4c0.3-0.6,0.5-1.3,0.5-2.1C133.9,39.1,133.7,38.4,133.4,37.8z"/>
		<path class="st0" d="M140.3,31v14.1h-1.7V31H140.3z"/>
		<path class="st0" d="M150.1,31.9v13.3h-1.7V31.9H150.1z"/>
		<path class="st0" d="M161.2,35.7c0.8,0.8,1.2,1.9,1.2,3.3v6.2h-1.7v-5.9c0-1-0.3-1.8-0.8-2.4c-0.5-0.6-1.2-0.8-2.1-0.8
			c-0.9,0-1.6,0.3-2.2,0.9c-0.5,0.6-0.8,1.4-0.8,2.5v5.8H153V34.7h1.7v1.5c0.3-0.5,0.8-0.9,1.4-1.2c0.6-0.3,1.2-0.4,2-0.4
			C159.4,34.5,160.4,34.9,161.2,35.7z"/>
		<path class="st0" d="M165.2,37.1c0.4-0.8,1-1.4,1.8-1.9c0.8-0.4,1.6-0.7,2.5-0.7c0.8,0,1.6,0.2,2.3,0.6c0.7,0.4,1.2,0.9,1.6,1.5
			V31h1.8v14.1h-1.8v-2c-0.3,0.6-0.9,1.1-1.5,1.5c-0.7,0.4-1.5,0.6-2.4,0.6c-0.9,0-1.8-0.2-2.5-0.7c-0.8-0.5-1.3-1.1-1.8-1.9
			c-0.4-0.8-0.6-1.8-0.6-2.8C164.6,38.8,164.8,37.9,165.2,37.1z M172.9,37.8c-0.3-0.6-0.7-1-1.3-1.3c-0.5-0.3-1.1-0.5-1.8-0.5
			c-0.6,0-1.2,0.2-1.8,0.5c-0.5,0.3-1,0.7-1.3,1.3c-0.3,0.6-0.5,1.3-0.5,2.1c0,0.8,0.2,1.5,0.5,2.1c0.3,0.6,0.7,1,1.3,1.4
			c0.5,0.3,1.1,0.5,1.8,0.5c0.6,0,1.2-0.2,1.8-0.5c0.5-0.3,1-0.8,1.3-1.4c0.3-0.6,0.5-1.3,0.5-2.1C173.4,39.1,173.3,38.4,172.9,37.8
			z"/>
		<path class="st0" d="M187.4,34.7v10.4h-1.7v-1.5c-0.3,0.5-0.8,0.9-1.4,1.2c-0.6,0.3-1.2,0.4-2,0.4c-0.8,0-1.5-0.2-2.2-0.5
			c-0.6-0.3-1.2-0.8-1.5-1.5c-0.4-0.7-0.6-1.5-0.6-2.5v-6.1h1.7v5.9c0,1,0.3,1.8,0.8,2.4c0.5,0.6,1.2,0.8,2.1,0.8
			c0.9,0,1.7-0.3,2.2-0.9c0.5-0.6,0.8-1.4,0.8-2.5v-5.7H187.4z"/>
		<path class="st0" d="M191.9,44.9c-0.6-0.3-1.1-0.7-1.5-1.1c-0.4-0.5-0.6-1.1-0.6-1.7h1.8c0.1,0.5,0.3,0.9,0.7,1.3
			c0.4,0.3,1,0.5,1.7,0.5c0.7,0,1.2-0.1,1.6-0.4c0.4-0.3,0.6-0.7,0.6-1.1c0-0.5-0.2-0.8-0.6-1c-0.4-0.2-1-0.4-1.9-0.7
			c-0.8-0.2-1.4-0.4-1.9-0.6c-0.5-0.2-0.9-0.5-1.3-0.9c-0.3-0.4-0.5-1-0.5-1.6c0-0.5,0.2-1,0.5-1.5c0.3-0.4,0.8-0.8,1.4-1.1
			c0.6-0.3,1.3-0.4,2-0.4c1.2,0,2.1,0.3,2.8,0.9c0.7,0.6,1.1,1.4,1.1,2.4H196c0-0.5-0.3-1-0.7-1.3c-0.4-0.3-0.9-0.5-1.6-0.5
			c-0.6,0-1.1,0.1-1.5,0.4c-0.4,0.3-0.6,0.6-0.6,1c0,0.3,0.1,0.6,0.3,0.8c0.2,0.2,0.5,0.4,0.8,0.5c0.3,0.1,0.8,0.3,1.4,0.4
			c0.7,0.2,1.4,0.4,1.8,0.6c0.5,0.2,0.9,0.5,1.2,0.9c0.3,0.4,0.5,0.9,0.5,1.5c0,0.6-0.2,1.1-0.5,1.5c-0.3,0.5-0.8,0.8-1.3,1.1
			c-0.6,0.3-1.2,0.4-2,0.4C193.2,45.3,192.5,45.2,191.9,44.9z"/>
		<path class="st0" d="M202.4,36.1v6.2c0,0.5,0.1,0.9,0.3,1.1c0.2,0.2,0.6,0.3,1.1,0.3h1.3v1.5h-1.6c-1,0-1.7-0.2-2.2-0.7
			c-0.5-0.4-0.7-1.2-0.7-2.2v-6.2h-1.4v-1.4h1.4v-2.6h1.7v2.6h2.7v1.4H202.4z"/>
		<path class="st0" d="M210.2,35c0.6-0.3,1.3-0.5,2.1-0.5v1.8h-0.5c-1.9,0-2.9,1.1-2.9,3.2v5.7h-1.7V34.7h1.7v1.7
			C209.2,35.8,209.7,35.3,210.2,35z"/>
		<path class="st0" d="M214.4,32.7c-0.2-0.2-0.3-0.5-0.3-0.8c0-0.3,0.1-0.6,0.3-0.8c0.2-0.2,0.5-0.3,0.8-0.3c0.3,0,0.6,0.1,0.8,0.3
			c0.2,0.2,0.3,0.5,0.3,0.8c0,0.3-0.1,0.6-0.3,0.8c-0.2,0.2-0.5,0.3-0.8,0.3C214.9,33,214.6,32.9,214.4,32.7z M216,34.7v10.4h-1.7
			V34.7H216z"/>
		<path class="st0" d="M228.5,40.6h-8.3c0.1,1,0.4,1.8,1.1,2.4c0.6,0.6,1.4,0.9,2.3,0.9c0.7,0,1.4-0.2,1.9-0.5
			c0.5-0.3,0.9-0.8,1.1-1.4h1.9c-0.3,1-0.8,1.8-1.7,2.4c-0.8,0.6-1.9,0.9-3.1,0.9c-1,0-1.9-0.2-2.7-0.7c-0.8-0.4-1.4-1.1-1.8-1.9
			c-0.4-0.8-0.7-1.8-0.7-2.8c0-1.1,0.2-2,0.6-2.8c0.4-0.8,1-1.4,1.8-1.9c0.8-0.4,1.7-0.7,2.7-0.7c1,0,1.9,0.2,2.6,0.6
			c0.8,0.4,1.3,1,1.8,1.8c0.4,0.8,0.6,1.6,0.6,2.6C228.5,39.9,228.5,40.2,228.5,40.6z M226.3,37.5c-0.3-0.5-0.7-0.8-1.2-1.1
			c-0.5-0.2-1.1-0.4-1.7-0.4c-0.9,0-1.6,0.3-2.2,0.8c-0.6,0.6-1,1.3-1.1,2.3h6.6C226.7,38.5,226.6,37.9,226.3,37.5z"/>
		<path class="st0" d="M232.3,44.9c-0.6-0.3-1.1-0.7-1.5-1.1c-0.4-0.5-0.6-1.1-0.6-1.7h1.8c0.1,0.5,0.3,0.9,0.7,1.3
			c0.4,0.3,1,0.5,1.7,0.5c0.7,0,1.2-0.1,1.6-0.4c0.4-0.3,0.6-0.7,0.6-1.1c0-0.5-0.2-0.8-0.6-1c-0.4-0.2-1-0.4-1.9-0.7
			c-0.8-0.2-1.4-0.4-1.9-0.6c-0.5-0.2-0.9-0.5-1.3-0.9c-0.3-0.4-0.5-1-0.5-1.6c0-0.5,0.2-1,0.5-1.5c0.3-0.4,0.8-0.8,1.4-1.1
			c0.6-0.3,1.3-0.4,2-0.4c1.2,0,2.1,0.3,2.8,0.9c0.7,0.6,1.1,1.4,1.1,2.4h-1.7c0-0.5-0.3-1-0.7-1.3c-0.4-0.3-0.9-0.5-1.6-0.5
			c-0.6,0-1.1,0.1-1.5,0.4c-0.4,0.3-0.6,0.6-0.6,1c0,0.3,0.1,0.6,0.3,0.8c0.2,0.2,0.5,0.4,0.8,0.5c0.3,0.1,0.8,0.3,1.4,0.4
			c0.7,0.2,1.4,0.4,1.8,0.6c0.5,0.2,0.9,0.5,1.2,0.9c0.3,0.4,0.5,0.9,0.5,1.5c0,0.6-0.2,1.1-0.5,1.5c-0.3,0.5-0.8,0.8-1.3,1.1
			c-0.6,0.3-1.2,0.4-2,0.4C233.7,45.3,233,45.2,232.3,44.9z"/>
		<path class="st0" d="M242.5,42.7l-2.1,5.1h-1.2l1.4-5.1H242.5z"/>
		<path class="st0" d="M264.3,35c0.6,0.3,1.1,0.8,1.5,1.5c0.4,0.7,0.6,1.5,0.6,2.5v6.2h-1.7v-5.9c0-1-0.3-1.8-0.8-2.4
			c-0.5-0.6-1.2-0.8-2.1-0.8c-0.9,0-1.6,0.3-2.2,0.9c-0.5,0.6-0.8,1.4-0.8,2.5v5.8h-1.7v-5.9c0-1-0.3-1.8-0.8-2.4
			c-0.5-0.6-1.2-0.8-2.1-0.8c-0.9,0-1.6,0.3-2.2,0.9c-0.5,0.6-0.8,1.4-0.8,2.5v5.8h-1.7V34.7h1.7v1.5c0.3-0.5,0.8-1,1.4-1.3
			c0.6-0.3,1.2-0.4,1.9-0.4c0.9,0,1.7,0.2,2.3,0.6c0.7,0.4,1.2,1,1.5,1.7c0.3-0.7,0.8-1.3,1.4-1.7c0.7-0.4,1.4-0.6,2.2-0.6
			C263,34.5,263.7,34.7,264.3,35z"/>
		<path class="st0" d="M271.1,44.7c-0.8-0.4-1.4-1.1-1.9-1.9c-0.5-0.8-0.7-1.8-0.7-2.8c0-1.1,0.2-2,0.7-2.8c0.5-0.8,1.1-1.4,1.9-1.9
			c0.8-0.4,1.7-0.7,2.7-0.7c1,0,1.9,0.2,2.7,0.7c0.8,0.4,1.4,1.1,1.9,1.9c0.5,0.8,0.7,1.8,0.7,2.8c0,1.1-0.2,2-0.7,2.8
			c-0.5,0.8-1.1,1.5-1.9,1.9c-0.8,0.4-1.7,0.7-2.7,0.7C272.8,45.3,271.9,45.1,271.1,44.7z M275.5,43.4c0.5-0.3,1-0.7,1.3-1.3
			c0.3-0.6,0.5-1.3,0.5-2.1c0-0.8-0.2-1.5-0.5-2.1c-0.3-0.6-0.8-1-1.3-1.3c-0.5-0.3-1.1-0.4-1.7-0.4c-0.6,0-1.2,0.1-1.7,0.4
			c-0.5,0.3-0.9,0.7-1.3,1.3c-0.3,0.6-0.5,1.3-0.5,2.1c0,0.9,0.2,1.6,0.5,2.2c0.3,0.6,0.7,1,1.2,1.3c0.5,0.3,1.1,0.4,1.7,0.4
			S275,43.6,275.5,43.4z"/>
		<path class="st0" d="M281.4,37.1c0.4-0.8,1-1.4,1.8-1.9c0.8-0.4,1.6-0.7,2.5-0.7c0.8,0,1.6,0.2,2.3,0.6c0.7,0.4,1.2,0.9,1.6,1.5
			V31h1.8v14.1h-1.8v-2c-0.3,0.6-0.9,1.1-1.5,1.5c-0.7,0.4-1.5,0.6-2.4,0.6c-0.9,0-1.8-0.2-2.5-0.7c-0.8-0.5-1.3-1.1-1.8-1.9
			c-0.4-0.8-0.6-1.8-0.6-2.8C280.8,38.8,281,37.9,281.4,37.1z M289.1,37.8c-0.3-0.6-0.7-1-1.3-1.3s-1.1-0.5-1.8-0.5
			c-0.6,0-1.2,0.2-1.8,0.5c-0.5,0.3-1,0.7-1.3,1.3c-0.3,0.6-0.5,1.3-0.5,2.1c0,0.8,0.2,1.5,0.5,2.1c0.3,0.6,0.7,1,1.3,1.4
			c0.5,0.3,1.1,0.5,1.8,0.5c0.6,0,1.2-0.2,1.8-0.5s1-0.8,1.3-1.4c0.3-0.6,0.5-1.3,0.5-2.1C289.6,39.1,289.5,38.4,289.1,37.8z"/>
		<path class="st0" d="M294.3,37.1c0.4-0.8,1-1.4,1.8-1.9c0.8-0.4,1.6-0.7,2.5-0.7c0.9,0,1.7,0.2,2.4,0.6c0.7,0.4,1.2,0.9,1.5,1.5
			v-1.9h1.8v10.4h-1.8v-1.9c-0.3,0.6-0.9,1.1-1.5,1.5s-1.5,0.6-2.4,0.6c-0.9,0-1.8-0.2-2.5-0.7c-0.7-0.5-1.3-1.1-1.8-1.9
			c-0.4-0.8-0.6-1.8-0.6-2.8C293.7,38.8,293.9,37.9,294.3,37.1z M302,37.8c-0.3-0.6-0.7-1-1.3-1.3c-0.5-0.3-1.1-0.5-1.8-0.5
			c-0.6,0-1.2,0.2-1.8,0.5c-0.5,0.3-1,0.7-1.3,1.3c-0.3,0.6-0.5,1.3-0.5,2.1c0,0.8,0.2,1.5,0.5,2.1c0.3,0.6,0.7,1,1.3,1.4
			c0.5,0.3,1.1,0.5,1.8,0.5c0.6,0,1.2-0.2,1.8-0.5c0.5-0.3,1-0.8,1.3-1.4c0.3-0.6,0.5-1.3,0.5-2.1C302.5,39.1,302.3,38.4,302,37.8z"
			/>
	</g>
</g>
</svg>
