<?xml version="1.0" encoding="utf-8"?>
<!-- Generator: Adobe Illustrator 27.0.1, SVG Export Plug-In . SVG Version: 6.00 Build 0)  -->
<svg version="1.1" id="圖層_1" xmlns="http://www.w3.org/2000/svg" xmlns:xlink="http://www.w3.org/1999/xlink" x="0px" y="0px"
	 width="52px" height="40px" viewBox="0 0 52 40" style="enable-background:new 0 0 52 40;" xml:space="preserve">
<style type="text/css">
	.st0{fill:#333333;}
</style>
<g>
	<path class="st0" d="M34.3,14.5c-1.9-2.8-4.5-4.1-7.8-4.4c-2-0.2-3.8,0.3-5.5,1.3c-3,1.9-4.7,4.7-4.9,8.3c-0.1,2.4,0.6,4.6,2.1,6.6
		c0.2,0.3,0.2,0.5,0.1,0.8c-0.3,0.6-0.5,1.2-0.8,1.8c-0.1,0.2-0.2,0.5,0.1,0.7c0.2,0.2,0.4,0.2,0.7,0.1c0.7-0.3,1.5-0.6,2.2-0.9
		c0.3-0.1,0.5-0.1,0.7,0c1.5,0.9,3.1,1.3,4.9,1.3c1.3,0,2.6-0.2,3.8-0.7c3.4-1.5,5.5-4,6.1-7.6C36.3,19.1,35.8,16.7,34.3,14.5z
		 M30.3,21.3c-0.6,0-1.1-0.5-1.1-1.1c0-0.6,0.5-1.1,1.2-1.1c0.6,0,1.2,0.5,1.2,1.2C31.5,20.8,31,21.3,30.3,21.3z M26.2,21.3
		c-0.6,0-1.1-0.5-1.2-1.1c0-0.6,0.5-1.2,1.2-1.2c0.6,0,1.1,0.5,1.1,1.2C27.3,20.8,26.8,21.3,26.2,21.3z M20.9,20.2
		c0-0.7,0.5-1.2,1.1-1.2c0.6,0,1.1,0.5,1.1,1.1c0,0.6-0.5,1.1-1.1,1.1C21.4,21.3,20.9,20.9,20.9,20.2z"/>
</g>
</svg>
