<?xml version="1.0" encoding="utf-8"?>
<!-- Generator: Adobe Illustrator 26.3.1, SVG Export Plug-In . SVG Version: 6.00 Build 0)  -->
<svg version="1.1" id="圖層_1" xmlns="http://www.w3.org/2000/svg" xmlns:xlink="http://www.w3.org/1999/xlink" x="0px" y="0px"
	 width="350px" height="44px" viewBox="0 0 350 44" style="enable-background:new 0 0 350 44;" xml:space="preserve">
<style type="text/css">
	.st0{fill:#1F333D;}
	.st1{fill:#B3C33E;}
</style>
<g>
	<g id="adi_logo-H-standard-CN_x2B_EN_00000017503244958224108210000000732549249862895245_">
		<g>
			<path class="st0" d="M8,20.2c0-6.6,5.4-12,12-12l4.6,0V0.1c-3.7,0-4.7-0.2-8.5,0.5c0,0-0.1,0-0.1,0C6.9,2.4,0,10.5,0,20.2
				c0,11,9,20.1,20,20.1h20.2V0.1h-7.8v32.2l-12.4,0C13.4,32.2,8,26.8,8,20.2z"/>
			<path class="st1" d="M15.7,20.4c0,2.6,1.9,4.3,4.5,4.3h4.5v-8.9h-4.3C17.8,15.7,15.7,17.8,15.7,20.4z"/>
			<rect x="44.7" y="14.6" class="st0" width="9" height="25.8"/>
			<polygon class="st1" points="44.8,0 52.6,0 52.6,2.3 47,2.3 47,6.8 52.6,6.8 52.6,9 44.8,9 			"/>
			<polygon class="st0" points="55.9,3.3 48.1,3.3 48.1,5.6 53.7,5.6 53.7,10 48.1,10 48.1,12.3 55.9,12.3 			"/>
		</g>
	</g>
	<g>
		<path class="st0" d="M69.3,15.4H63l-1.2,3.2h-2l5.2-14.4h2.2l5.2,14.4h-2L69.3,15.4z M68.8,13.9l-2.6-7.3l-2.6,7.3H68.8z"/>
		<path class="st0" d="M74.8,9.8c0.5-0.9,1.1-1.6,1.9-2c0.8-0.5,1.8-0.7,2.8-0.7c0.9,0,1.7,0.2,2.5,0.6c0.8,0.4,1.3,0.9,1.7,1.6v-6
			h1.9v15.4h-1.9v-2.1c-0.4,0.7-0.9,1.2-1.7,1.7c-0.7,0.4-1.6,0.7-2.6,0.7c-1,0-1.9-0.2-2.8-0.7c-0.8-0.5-1.5-1.2-1.9-2.1
			s-0.7-1.9-0.7-3.1C74.1,11.7,74.3,10.7,74.8,9.8z M83.2,10.7c-0.3-0.6-0.8-1.1-1.4-1.5c-0.6-0.3-1.2-0.5-1.9-0.5
			c-0.7,0-1.4,0.2-1.9,0.5c-0.6,0.3-1,0.8-1.4,1.5C76.2,11.3,76,12,76,12.9c0,0.9,0.2,1.6,0.5,2.3c0.3,0.6,0.8,1.1,1.4,1.5
			c0.6,0.3,1.2,0.5,1.9,0.5c0.7,0,1.4-0.2,1.9-0.5c0.6-0.3,1.1-0.8,1.4-1.5c0.3-0.6,0.5-1.4,0.5-2.3S83.5,11.3,83.2,10.7z"/>
		<path class="st0" d="M104.9,7.6c0.7,0.4,1.2,0.9,1.6,1.7c0.4,0.7,0.6,1.6,0.6,2.7v6.7h-1.9v-6.4c0-1.1-0.3-2-0.8-2.6
			c-0.6-0.6-1.3-0.9-2.3-0.9c-1,0-1.8,0.3-2.4,0.9s-0.9,1.5-0.9,2.7v6.3h-1.9v-6.4c0-1.1-0.3-2-0.8-2.6c-0.6-0.6-1.3-0.9-2.3-0.9
			c-1,0-1.8,0.3-2.4,0.9c-0.6,0.6-0.9,1.5-0.9,2.7v6.3h-1.9V7.2h1.9v1.6c0.4-0.6,0.9-1.1,1.5-1.4C92.9,7.2,93.5,7,94.3,7
			c1,0,1.8,0.2,2.5,0.6c0.7,0.4,1.3,1.1,1.6,1.9c0.3-0.8,0.8-1.4,1.6-1.9c0.7-0.4,1.6-0.7,2.5-0.7C103.4,7,104.2,7.2,104.9,7.6z"/>
		<path class="st0" d="M110.3,5c-0.3-0.2-0.4-0.6-0.4-0.9c0-0.4,0.1-0.7,0.4-0.9c0.2-0.2,0.6-0.4,0.9-0.4c0.3,0,0.6,0.1,0.9,0.4
			c0.2,0.2,0.4,0.6,0.4,0.9c0,0.4-0.1,0.7-0.4,0.9c-0.2,0.2-0.5,0.4-0.9,0.4C110.9,5.4,110.6,5.3,110.3,5z M112.1,7.2v11.4h-1.9V7.2
			H112.1z"/>
		<path class="st0" d="M124.3,8.3c0.9,0.8,1.3,2,1.3,3.6v6.7h-1.9v-6.4c0-1.1-0.3-2-0.9-2.6c-0.6-0.6-1.3-0.9-2.3-0.9
			c-1,0-1.8,0.3-2.4,0.9c-0.6,0.6-0.9,1.5-0.9,2.7v6.3h-1.9V7.2h1.9v1.6c0.4-0.6,0.9-1,1.5-1.4c0.6-0.3,1.4-0.5,2.1-0.5
			C122.3,7,123.4,7.5,124.3,8.3z"/>
		<path class="st0" d="M128.7,5c-0.3-0.2-0.4-0.6-0.4-0.9c0-0.4,0.1-0.7,0.4-0.9c0.2-0.2,0.6-0.4,0.9-0.4c0.3,0,0.6,0.1,0.9,0.4
			c0.2,0.2,0.4,0.6,0.4,0.9c0,0.4-0.1,0.7-0.4,0.9c-0.2,0.2-0.5,0.4-0.9,0.4C129.3,5.4,129,5.3,128.7,5z M130.6,7.2v11.4h-1.9V7.2
			H130.6z"/>
		<path class="st0" d="M135.5,18.4c-0.7-0.3-1.2-0.7-1.6-1.2s-0.6-1.1-0.7-1.8h2c0.1,0.6,0.3,1,0.8,1.4c0.5,0.4,1.1,0.5,1.9,0.5
			c0.7,0,1.3-0.2,1.7-0.5c0.4-0.3,0.6-0.7,0.6-1.2c0-0.5-0.2-0.9-0.7-1.1c-0.4-0.2-1.1-0.5-2.1-0.7c-0.8-0.2-1.5-0.4-2.1-0.7
			c-0.5-0.2-1-0.6-1.4-1c-0.4-0.5-0.6-1-0.6-1.8c0-0.6,0.2-1.1,0.5-1.6c0.3-0.5,0.8-0.9,1.5-1.2c0.6-0.3,1.4-0.4,2.2-0.4
			c1.3,0,2.3,0.3,3.1,1c0.8,0.6,1.2,1.5,1.2,2.6H140c0-0.6-0.3-1.1-0.7-1.4c-0.4-0.4-1-0.5-1.8-0.5c-0.7,0-1.2,0.1-1.6,0.4
			c-0.4,0.3-0.6,0.7-0.6,1.1c0,0.4,0.1,0.7,0.4,0.9c0.2,0.2,0.5,0.4,0.9,0.6c0.4,0.1,0.9,0.3,1.5,0.5c0.8,0.2,1.5,0.4,2,0.7
			c0.5,0.2,1,0.5,1.3,1c0.4,0.4,0.6,1,0.6,1.7c0,0.6-0.2,1.2-0.5,1.7c-0.3,0.5-0.8,0.9-1.5,1.2c-0.6,0.3-1.4,0.4-2.2,0.4
			C136.9,18.8,136.2,18.7,135.5,18.4z"/>
		<path class="st0" d="M146.9,8.8v6.7c0,0.6,0.1,0.9,0.4,1.2c0.2,0.2,0.6,0.3,1.2,0.3h1.4v1.6h-1.7c-1.1,0-1.8-0.2-2.4-0.7
			c-0.5-0.5-0.8-1.3-0.8-2.4V8.8h-1.5V7.2h1.5V4.4h1.9v2.9h3v1.6H146.9z"/>
		<path class="st0" d="M155.5,7.6c0.6-0.4,1.4-0.5,2.3-0.5v2h-0.5c-2.1,0-3.2,1.2-3.2,3.5v6.2h-1.9V7.2h1.9v1.9
			C154.4,8.4,154.9,7.9,155.5,7.6z"/>
		<path class="st0" d="M160,9.8c0.5-0.9,1.1-1.6,1.9-2c0.8-0.5,1.7-0.7,2.8-0.7c1,0,1.9,0.2,2.6,0.6c0.7,0.4,1.3,1,1.6,1.6V7.2h1.9
			v11.4h-1.9v-2.1c-0.4,0.7-0.9,1.2-1.7,1.7c-0.7,0.4-1.6,0.7-2.6,0.7c-1,0-1.9-0.2-2.7-0.7c-0.8-0.5-1.5-1.2-1.9-2.1
			s-0.7-1.9-0.7-3.1C159.3,11.7,159.5,10.7,160,9.8z M168.4,10.7c-0.3-0.6-0.8-1.1-1.4-1.5c-0.6-0.3-1.2-0.5-1.9-0.5
			c-0.7,0-1.4,0.2-1.9,0.5c-0.6,0.3-1,0.8-1.4,1.5c-0.3,0.6-0.5,1.4-0.5,2.2c0,0.9,0.2,1.6,0.5,2.3c0.3,0.6,0.8,1.1,1.4,1.5
			c0.6,0.3,1.2,0.5,1.9,0.5c0.7,0,1.4-0.2,1.9-0.5s1.1-0.8,1.4-1.5c0.3-0.6,0.5-1.4,0.5-2.3S168.7,11.3,168.4,10.7z"/>
		<path class="st0" d="M176.3,8.8v6.7c0,0.6,0.1,0.9,0.4,1.2c0.2,0.2,0.6,0.3,1.2,0.3h1.4v1.6h-1.7c-1.1,0-1.8-0.2-2.4-0.7
			c-0.5-0.5-0.8-1.3-0.8-2.4V8.8H173V7.2h1.5V4.4h1.9v2.9h3v1.6H176.3z"/>
		<path class="st0" d="M181.7,5c-0.3-0.2-0.4-0.6-0.4-0.9c0-0.4,0.1-0.7,0.4-0.9c0.2-0.2,0.6-0.4,0.9-0.4c0.3,0,0.6,0.1,0.9,0.4
			s0.4,0.6,0.4,0.9c0,0.4-0.1,0.7-0.4,0.9c-0.2,0.2-0.5,0.4-0.9,0.4C182.2,5.4,181.9,5.3,181.7,5z M183.5,7.2v11.4h-1.9V7.2H183.5z"
			/>
		<path class="st0" d="M188.8,18.1c-0.9-0.5-1.5-1.2-2-2.1c-0.5-0.9-0.7-1.9-0.7-3.1c0-1.2,0.3-2.2,0.8-3.1c0.5-0.9,1.2-1.6,2.1-2.1
			c0.9-0.5,1.9-0.7,2.9-0.7c1.1,0,2.1,0.2,2.9,0.7c0.9,0.5,1.6,1.2,2.1,2s0.8,1.9,0.8,3.1c0,1.2-0.3,2.2-0.8,3.1
			c-0.5,0.9-1.2,1.6-2.1,2.1c-0.9,0.5-1.9,0.7-3,0.7C190.6,18.8,189.7,18.6,188.8,18.1z M193.6,16.7c0.6-0.3,1.1-0.8,1.4-1.4
			c0.4-0.6,0.6-1.4,0.6-2.3s-0.2-1.7-0.5-2.3c-0.4-0.6-0.8-1.1-1.4-1.4c-0.6-0.3-1.2-0.5-1.9-0.5c-0.7,0-1.3,0.2-1.9,0.5
			c-0.6,0.3-1,0.8-1.4,1.4c-0.3,0.6-0.5,1.4-0.5,2.3c0,0.9,0.2,1.7,0.5,2.4c0.3,0.6,0.8,1.1,1.4,1.4c0.6,0.3,1.2,0.5,1.9,0.5
			C192.4,17.2,193,17,193.6,16.7z"/>
		<path class="st0" d="M209,8.3c0.9,0.8,1.3,2,1.3,3.6v6.7h-1.9v-6.4c0-1.1-0.3-2-0.9-2.6c-0.6-0.6-1.3-0.9-2.3-0.9
			c-1,0-1.8,0.3-2.4,0.9c-0.6,0.6-0.9,1.5-0.9,2.7v6.3H200V7.2h1.9v1.6c0.4-0.6,0.9-1,1.5-1.4c0.6-0.3,1.4-0.5,2.1-0.5
			C207,7,208.1,7.5,209,8.3z"/>
		<path class="st0" d="M223.5,8.8h-2.4v9.8h-1.9V8.8h-1.5V7.2h1.5V6.4c0-1.3,0.3-2.2,1-2.8c0.7-0.6,1.7-0.9,3.2-0.9v1.6
			c-0.8,0-1.4,0.2-1.8,0.5c-0.3,0.3-0.5,0.9-0.5,1.6v0.8h2.4V8.8z"/>
		<path class="st0" d="M227.8,18.1c-0.9-0.5-1.5-1.2-2-2.1c-0.5-0.9-0.7-1.9-0.7-3.1c0-1.2,0.3-2.2,0.8-3.1c0.5-0.9,1.2-1.6,2.1-2.1
			c0.9-0.5,1.9-0.7,2.9-0.7c1.1,0,2.1,0.2,2.9,0.7c0.9,0.5,1.6,1.2,2.1,2s0.8,1.9,0.8,3.1c0,1.2-0.3,2.2-0.8,3.1
			c-0.5,0.9-1.2,1.6-2.1,2.1c-0.9,0.5-1.9,0.7-3,0.7C229.6,18.8,228.7,18.6,227.8,18.1z M232.6,16.7c0.6-0.3,1.1-0.8,1.4-1.4
			c0.4-0.6,0.6-1.4,0.6-2.3s-0.2-1.7-0.5-2.3c-0.4-0.6-0.8-1.1-1.4-1.4c-0.6-0.3-1.2-0.5-1.9-0.5c-0.7,0-1.3,0.2-1.9,0.5
			c-0.6,0.3-1,0.8-1.4,1.4c-0.3,0.6-0.5,1.4-0.5,2.3c0,0.9,0.2,1.7,0.5,2.4c0.3,0.6,0.8,1.1,1.4,1.4c0.6,0.3,1.2,0.5,1.9,0.5
			C231.4,17.2,232,17,232.6,16.7z"/>
		<path class="st0" d="M242.4,7.6c0.6-0.4,1.4-0.5,2.3-0.5v2h-0.5c-2.1,0-3.2,1.2-3.2,3.5v6.2H239V7.2h1.9v1.9
			C241.3,8.4,241.7,7.9,242.4,7.6z"/>
		<path class="st0" d="M69.4,24.8c1.2,0.6,2,1.4,2.7,2.5c0.6,1.1,0.9,2.4,0.9,3.9c0,1.5-0.3,2.8-0.9,3.9c-0.6,1.1-1.5,1.9-2.7,2.5
			c-1.2,0.6-2.5,0.9-4.1,0.9h-4.5V23.9h4.5C66.8,23.9,68.2,24.2,69.4,24.8z M69.5,35.3c1-1,1.5-2.4,1.5-4.2c0-1.8-0.5-3.2-1.5-4.2
			c-1-1-2.4-1.5-4.3-1.5h-2.6v11.4h2.6C67.1,36.8,68.6,36.3,69.5,35.3z"/>
		<path class="st0" d="M75.5,24.8c-0.3-0.2-0.4-0.6-0.4-0.9c0-0.4,0.1-0.7,0.4-0.9c0.2-0.2,0.6-0.4,0.9-0.4c0.3,0,0.6,0.1,0.9,0.4
			c0.2,0.2,0.4,0.6,0.4,0.9c0,0.4-0.1,0.7-0.4,0.9c-0.2,0.2-0.5,0.4-0.9,0.4C76.1,25.1,75.8,25,75.5,24.8z M77.3,27v11.4h-1.9V27
			H77.3z"/>
		<path class="st0" d="M87.9,27.4c0.7,0.4,1.3,1,1.7,1.6V27h1.9v11.6c0,1-0.2,2-0.7,2.8c-0.4,0.8-1.1,1.4-1.9,1.9
			C88,43.8,87.1,44,86,44c-1.5,0-2.7-0.4-3.7-1.1c-1-0.7-1.6-1.7-1.8-2.9h1.9c0.2,0.7,0.6,1.3,1.3,1.7c0.7,0.4,1.4,0.6,2.4,0.6
			c1,0,1.9-0.3,2.5-1c0.7-0.7,1-1.6,1-2.7v-2.4c-0.4,0.7-0.9,1.2-1.7,1.7c-0.7,0.4-1.6,0.7-2.6,0.7c-1,0-1.9-0.2-2.8-0.7
			c-0.8-0.5-1.5-1.2-1.9-2.1s-0.7-1.9-0.7-3.1c0-1.2,0.2-2.2,0.7-3.1c0.5-0.9,1.1-1.6,1.9-2c0.8-0.5,1.7-0.7,2.8-0.7
			C86.2,26.8,87.1,27,87.9,27.4z M89,30.4c-0.3-0.6-0.8-1.1-1.4-1.5s-1.2-0.5-1.9-0.5c-0.7,0-1.4,0.2-1.9,0.5
			c-0.6,0.3-1,0.8-1.4,1.5c-0.3,0.6-0.5,1.4-0.5,2.2c0,0.9,0.2,1.6,0.5,2.3c0.3,0.6,0.8,1.1,1.4,1.5c0.6,0.3,1.2,0.5,1.9,0.5
			c0.7,0,1.4-0.2,1.9-0.5c0.6-0.3,1.1-0.8,1.4-1.5c0.3-0.6,0.5-1.4,0.5-2.3C89.5,31.8,89.3,31.1,89,30.4z"/>
		<path class="st0" d="M94.7,24.8c-0.3-0.2-0.4-0.6-0.4-0.9c0-0.4,0.1-0.7,0.4-0.9c0.2-0.2,0.6-0.4,0.9-0.4c0.3,0,0.6,0.1,0.9,0.4
			c0.2,0.2,0.4,0.6,0.4,0.9c0,0.4-0.1,0.7-0.4,0.9c-0.2,0.2-0.5,0.4-0.9,0.4C95.2,25.1,94.9,25,94.7,24.8z M96.5,27v11.4h-1.9V27
			H96.5z"/>
		<path class="st0" d="M102,28.5v6.7c0,0.6,0.1,0.9,0.4,1.2c0.2,0.2,0.6,0.3,1.2,0.3h1.4v1.6h-1.7c-1.1,0-1.8-0.2-2.4-0.7
			s-0.8-1.3-0.8-2.4v-6.7h-1.5V27h1.5v-2.9h1.9V27h3v1.6H102z"/>
		<path class="st0" d="M107.3,29.6c0.5-0.9,1.1-1.6,1.9-2c0.8-0.5,1.7-0.7,2.8-0.7c1,0,1.9,0.2,2.6,0.6c0.7,0.4,1.3,1,1.6,1.6V27
			h1.9v11.4h-1.9v-2.1c-0.4,0.7-0.9,1.2-1.7,1.7c-0.7,0.4-1.6,0.7-2.6,0.7c-1,0-1.9-0.2-2.7-0.7c-0.8-0.5-1.5-1.2-1.9-2.1
			c-0.5-0.9-0.7-1.9-0.7-3.1C106.6,31.5,106.8,30.5,107.3,29.6z M115.7,30.4c-0.3-0.6-0.8-1.1-1.4-1.5s-1.2-0.5-1.9-0.5
			c-0.7,0-1.4,0.2-1.9,0.5c-0.6,0.3-1,0.8-1.4,1.5c-0.3,0.6-0.5,1.4-0.5,2.2c0,0.9,0.2,1.6,0.5,2.3c0.3,0.6,0.8,1.1,1.4,1.5
			c0.6,0.3,1.2,0.5,1.9,0.5c0.7,0,1.4-0.2,1.9-0.5c0.6-0.3,1.1-0.8,1.4-1.5c0.3-0.6,0.5-1.4,0.5-2.3
			C116.3,31.8,116.1,31.1,115.7,30.4z"/>
		<path class="st0" d="M123.3,23v15.4h-1.9V23H123.3z"/>
		<path class="st0" d="M133.9,23.9v14.5H132V23.9H133.9z"/>
		<path class="st0" d="M146.1,28c0.9,0.8,1.3,2,1.3,3.6v6.7h-1.9v-6.4c0-1.1-0.3-2-0.9-2.6c-0.6-0.6-1.3-0.9-2.3-0.9
			c-1,0-1.8,0.3-2.4,0.9c-0.6,0.6-0.9,1.5-0.9,2.7v6.3h-1.9V27h1.9v1.6c0.4-0.6,0.9-1,1.5-1.4c0.6-0.3,1.4-0.5,2.1-0.5
			C144.1,26.8,145.2,27.2,146.1,28z"/>
		<path class="st0" d="M150.5,29.6c0.5-0.9,1.1-1.6,1.9-2c0.8-0.5,1.8-0.7,2.8-0.7c0.9,0,1.7,0.2,2.5,0.6c0.8,0.4,1.3,0.9,1.7,1.6
			v-6h1.9v15.4h-1.9v-2.1c-0.4,0.7-0.9,1.2-1.7,1.7c-0.7,0.4-1.6,0.7-2.6,0.7c-1,0-1.9-0.2-2.8-0.7c-0.8-0.5-1.5-1.2-1.9-2.1
			s-0.7-1.9-0.7-3.1C149.8,31.5,150,30.5,150.5,29.6z M158.9,30.4c-0.3-0.6-0.8-1.1-1.4-1.5s-1.2-0.5-1.9-0.5
			c-0.7,0-1.4,0.2-1.9,0.5c-0.6,0.3-1,0.8-1.4,1.5c-0.3,0.6-0.5,1.4-0.5,2.2c0,0.9,0.2,1.6,0.5,2.3c0.3,0.6,0.8,1.1,1.4,1.5
			c0.6,0.3,1.2,0.5,1.9,0.5c0.7,0,1.4-0.2,1.9-0.5c0.6-0.3,1.1-0.8,1.4-1.5c0.3-0.6,0.5-1.4,0.5-2.3
			C159.4,31.8,159.2,31.1,158.9,30.4z"/>
		<path class="st0" d="M174.6,27v11.4h-1.9v-1.7c-0.4,0.6-0.9,1-1.5,1.4c-0.6,0.3-1.4,0.5-2.1,0.5c-0.9,0-1.7-0.2-2.4-0.6
			c-0.7-0.4-1.3-0.9-1.7-1.7c-0.4-0.7-0.6-1.6-0.6-2.7V27h1.9v6.4c0,1.1,0.3,2,0.9,2.6c0.6,0.6,1.3,0.9,2.3,0.9c1,0,1.8-0.3,2.4-0.9
			c0.6-0.6,0.9-1.5,0.9-2.7V27H174.6z"/>
		<path class="st0" d="M179.5,38.1c-0.7-0.3-1.2-0.7-1.6-1.2s-0.6-1.1-0.7-1.8h2c0.1,0.6,0.3,1,0.8,1.4c0.5,0.4,1.1,0.5,1.9,0.5
			c0.7,0,1.3-0.2,1.7-0.5s0.6-0.7,0.6-1.2c0-0.5-0.2-0.9-0.7-1.1c-0.4-0.2-1.1-0.5-2.1-0.7c-0.8-0.2-1.5-0.4-2.1-0.7
			c-0.5-0.2-1-0.6-1.4-1c-0.4-0.5-0.6-1-0.6-1.8c0-0.6,0.2-1.1,0.5-1.6c0.3-0.5,0.8-0.9,1.5-1.2c0.6-0.3,1.4-0.4,2.2-0.4
			c1.3,0,2.3,0.3,3.1,1c0.8,0.6,1.2,1.5,1.2,2.6H184c0-0.6-0.3-1.1-0.7-1.4c-0.4-0.4-1-0.5-1.8-0.5c-0.7,0-1.2,0.1-1.6,0.4
			c-0.4,0.3-0.6,0.7-0.6,1.1c0,0.4,0.1,0.7,0.4,0.9c0.2,0.2,0.5,0.4,0.9,0.6c0.4,0.1,0.9,0.3,1.5,0.5c0.8,0.2,1.5,0.4,2,0.7
			c0.5,0.2,1,0.5,1.3,1c0.4,0.4,0.6,1,0.6,1.7c0,0.6-0.2,1.2-0.5,1.7c-0.3,0.5-0.8,0.9-1.5,1.2s-1.4,0.4-2.2,0.4
			C181,38.6,180.2,38.4,179.5,38.1z"/>
		<path class="st0" d="M191,28.5v6.7c0,0.6,0.1,0.9,0.4,1.2c0.2,0.2,0.6,0.3,1.2,0.3h1.4v1.6h-1.7c-1.1,0-1.8-0.2-2.4-0.7
			c-0.5-0.5-0.8-1.3-0.8-2.4v-6.7h-1.5V27h1.5v-2.9h1.9V27h3v1.6H191z"/>
		<path class="st0" d="M199.6,27.3c0.6-0.4,1.4-0.5,2.3-0.5v2h-0.5c-2.1,0-3.2,1.2-3.2,3.5v6.2h-1.9V27h1.9v1.9
			C198.5,28.2,199,27.7,199.6,27.3z"/>
		<path class="st0" d="M204.1,24.8c-0.3-0.2-0.4-0.6-0.4-0.9c0-0.4,0.1-0.7,0.4-0.9c0.2-0.2,0.6-0.4,0.9-0.4c0.3,0,0.6,0.1,0.9,0.4
			c0.2,0.2,0.4,0.6,0.4,0.9c0,0.4-0.1,0.7-0.4,0.9c-0.2,0.2-0.5,0.4-0.9,0.4C204.6,25.1,204.3,25,204.1,24.8z M205.9,27v11.4H204V27
			H205.9z"/>
		<path class="st0" d="M219.5,33.4h-9.1c0.1,1.1,0.5,2,1.2,2.6c0.7,0.6,1.5,0.9,2.5,0.9c0.8,0,1.5-0.2,2-0.6
			c0.5-0.4,0.9-0.9,1.2-1.5h2c-0.3,1.1-0.9,2-1.8,2.7c-0.9,0.7-2.1,1-3.4,1c-1.1,0-2-0.2-2.9-0.7c-0.9-0.5-1.5-1.2-2-2.1
			c-0.5-0.9-0.7-1.9-0.7-3.1c0-1.2,0.2-2.2,0.7-3.1c0.5-0.9,1.1-1.6,2-2c0.9-0.5,1.8-0.7,2.9-0.7c1.1,0,2,0.2,2.9,0.7
			c0.8,0.5,1.5,1.1,1.9,1.9c0.5,0.8,0.7,1.8,0.7,2.8C219.5,32.6,219.5,33,219.5,33.4z M217.1,30c-0.3-0.5-0.8-0.9-1.3-1.2
			c-0.5-0.3-1.2-0.4-1.8-0.4c-1,0-1.8,0.3-2.4,0.9c-0.7,0.6-1.1,1.5-1.2,2.5h7.2C217.6,31.1,217.4,30.5,217.1,30z"/>
		<path class="st0" d="M223.7,38.1c-0.7-0.3-1.2-0.7-1.6-1.2s-0.6-1.1-0.7-1.8h2c0.1,0.6,0.3,1,0.8,1.4c0.5,0.4,1.1,0.5,1.9,0.5
			c0.7,0,1.3-0.2,1.7-0.5c0.4-0.3,0.6-0.7,0.6-1.2c0-0.5-0.2-0.9-0.7-1.1s-1.1-0.5-2.1-0.7c-0.8-0.2-1.5-0.4-2.1-0.7
			c-0.5-0.2-1-0.6-1.4-1c-0.4-0.5-0.6-1-0.6-1.8c0-0.6,0.2-1.1,0.5-1.6c0.3-0.5,0.8-0.9,1.5-1.2c0.6-0.3,1.4-0.4,2.2-0.4
			c1.3,0,2.3,0.3,3.1,1c0.8,0.6,1.2,1.5,1.2,2.6h-1.9c0-0.6-0.3-1.1-0.7-1.4c-0.4-0.4-1-0.5-1.8-0.5c-0.7,0-1.2,0.1-1.6,0.4
			c-0.4,0.3-0.6,0.7-0.6,1.1c0,0.4,0.1,0.7,0.4,0.9c0.2,0.2,0.5,0.4,0.9,0.6c0.4,0.1,0.9,0.3,1.5,0.5c0.8,0.2,1.5,0.4,2,0.7
			c0.5,0.2,1,0.5,1.3,1c0.4,0.4,0.6,1,0.6,1.7c0,0.6-0.2,1.2-0.5,1.7c-0.3,0.5-0.8,0.9-1.5,1.2s-1.4,0.4-2.2,0.4
			C225.2,38.6,224.4,38.4,223.7,38.1z"/>
		<path class="st0" d="M234.8,35.8l-2.3,5.6h-1.3l1.5-5.6H234.8z"/>
		<path class="st0" d="M258.6,27.3c0.7,0.4,1.2,0.9,1.6,1.7c0.4,0.7,0.6,1.6,0.6,2.7v6.7H259v-6.4c0-1.1-0.3-2-0.8-2.6
			c-0.6-0.6-1.3-0.9-2.3-0.9c-1,0-1.8,0.3-2.4,0.9c-0.6,0.6-0.9,1.5-0.9,2.7v6.3h-1.9v-6.4c0-1.1-0.3-2-0.8-2.6
			c-0.6-0.6-1.3-0.9-2.3-0.9c-1,0-1.8,0.3-2.4,0.9c-0.6,0.6-0.9,1.5-0.9,2.7v6.3h-1.9V27h1.9v1.6c0.4-0.6,0.9-1.1,1.5-1.4
			s1.3-0.5,2.1-0.5c1,0,1.8,0.2,2.5,0.6c0.7,0.4,1.3,1.1,1.6,1.9c0.3-0.8,0.8-1.4,1.6-1.9c0.7-0.4,1.6-0.7,2.5-0.7
			C257.2,26.8,257.9,27,258.6,27.3z"/>
		<path class="st0" d="M266,37.8c-0.9-0.5-1.5-1.2-2-2.1c-0.5-0.9-0.7-1.9-0.7-3.1c0-1.2,0.3-2.2,0.8-3.1c0.5-0.9,1.2-1.6,2.1-2.1
			c0.9-0.5,1.9-0.7,2.9-0.7c1.1,0,2.1,0.2,2.9,0.7c0.9,0.5,1.6,1.2,2.1,2c0.5,0.9,0.8,1.9,0.8,3.1c0,1.2-0.3,2.2-0.8,3.1
			c-0.5,0.9-1.2,1.6-2.1,2.1c-0.9,0.5-1.9,0.7-3,0.7C267.9,38.6,266.9,38.3,266,37.8z M270.9,36.4c0.6-0.3,1.1-0.8,1.4-1.4
			c0.4-0.6,0.6-1.4,0.6-2.3c0-0.9-0.2-1.7-0.5-2.3c-0.4-0.6-0.8-1.1-1.4-1.4c-0.6-0.3-1.2-0.5-1.9-0.5c-0.7,0-1.3,0.2-1.9,0.5
			c-0.6,0.3-1,0.8-1.4,1.4c-0.3,0.6-0.5,1.4-0.5,2.3c0,0.9,0.2,1.7,0.5,2.4c0.3,0.6,0.8,1.1,1.4,1.4c0.6,0.3,1.2,0.5,1.9,0.5
			C269.6,36.9,270.3,36.7,270.9,36.4z"/>
		<path class="st0" d="M277.3,29.6c0.5-0.9,1.1-1.6,1.9-2c0.8-0.5,1.8-0.7,2.8-0.7c0.9,0,1.7,0.2,2.5,0.6c0.8,0.4,1.3,0.9,1.7,1.6
			v-6h1.9v15.4h-1.9v-2.1c-0.4,0.7-0.9,1.2-1.7,1.7c-0.7,0.4-1.6,0.7-2.6,0.7c-1,0-1.9-0.2-2.8-0.7c-0.8-0.5-1.5-1.2-1.9-2.1
			c-0.5-0.9-0.7-1.9-0.7-3.1C276.6,31.5,276.8,30.5,277.3,29.6z M285.7,30.4c-0.3-0.6-0.8-1.1-1.4-1.5s-1.2-0.5-1.9-0.5
			c-0.7,0-1.4,0.2-1.9,0.5c-0.6,0.3-1,0.8-1.4,1.5c-0.3,0.6-0.5,1.4-0.5,2.2c0,0.9,0.2,1.6,0.5,2.3c0.3,0.6,0.8,1.1,1.4,1.5
			c0.6,0.3,1.2,0.5,1.9,0.5c0.7,0,1.4-0.2,1.9-0.5c0.6-0.3,1.1-0.8,1.4-1.5c0.3-0.6,0.5-1.4,0.5-2.3
			C286.2,31.8,286.1,31.1,285.7,30.4z"/>
		<path class="st0" d="M291.4,29.6c0.5-0.9,1.1-1.6,1.9-2c0.8-0.5,1.7-0.7,2.8-0.7c1,0,1.9,0.2,2.6,0.6c0.7,0.4,1.3,1,1.6,1.6V27
			h1.9v11.4h-1.9v-2.1c-0.4,0.7-0.9,1.2-1.7,1.7c-0.7,0.4-1.6,0.7-2.6,0.7c-1,0-1.9-0.2-2.7-0.7c-0.8-0.5-1.5-1.2-1.9-2.1
			s-0.7-1.9-0.7-3.1C290.6,31.5,290.9,30.5,291.4,29.6z M299.8,30.4c-0.3-0.6-0.8-1.1-1.4-1.5s-1.2-0.5-1.9-0.5
			c-0.7,0-1.4,0.2-1.9,0.5c-0.6,0.3-1,0.8-1.4,1.5c-0.3,0.6-0.5,1.4-0.5,2.2c0,0.9,0.2,1.6,0.5,2.3c0.3,0.6,0.8,1.1,1.4,1.5
			c0.6,0.3,1.2,0.5,1.9,0.5c0.7,0,1.4-0.2,1.9-0.5c0.6-0.3,1.1-0.8,1.4-1.5c0.3-0.6,0.5-1.4,0.5-2.3
			C300.3,31.8,300.1,31.1,299.8,30.4z"/>
	</g>
</g>
</svg>
