<?xml version="1.0" encoding="utf-8"?>
<!-- Generator: Adobe Illustrator 26.3.1, SVG Export Plug-In . SVG Version: 6.00 Build 0)  -->
<svg version="1.1" id="圖層_1" xmlns="http://www.w3.org/2000/svg" xmlns:xlink="http://www.w3.org/1999/xlink" x="0px" y="0px"
	 width="416px" height="54px" viewBox="0 0 416 54" style="enable-background:new 0 0 416 54;" xml:space="preserve">
<style type="text/css">
	.st0{fill:#1F333D;}
</style>
<g>
	<g>
		<g id="adi_logo-H-standard-CN_x2B_EN_00000181073345883210228210000004357781522886871705_">
			<g>
				<path class="st0" d="M10,25.1c0-8.3,6.7-15,15-15l5.8,0V0.1c-4.6,0-5.9-0.3-10.6,0.6c0,0-0.1,0-0.1,0C8.6,3,0,13.1,0,25.1
					c0,13.8,11.2,25.1,25,25.1h25.2V0.1h-9.8v40.1L25,40.1C16.7,40.1,10,33.4,10,25.1z"/>
				<path class="st0" d="M19.6,25.4c0,3.2,2.4,5.3,5.6,5.3h5.6V19.6h-5.4C22.2,19.6,19.6,22.2,19.6,25.4z"/>
				<rect x="55.7" y="18.2" class="st0" width="11.2" height="32.1"/>
				<polygon class="st0" points="55.8,0.1 65.6,0.1 65.6,2.9 58.6,2.9 58.6,8.4 65.6,8.4 65.6,11.2 55.8,11.2 				"/>
				<polygon class="st0" points="69.7,4.2 60,4.2 60,7 67,7 67,12.5 60,12.5 60,15.3 69.7,15.3 				"/>
			</g>
		</g>
	</g>
	<g>
		<path class="st0" d="M86.1,18.4h-7.9l-1.5,4h-2.5l6.5-18h2.7l6.5,18h-2.5L86.1,18.4z M85.5,16.4l-3.3-9.1l-3.3,9.1H85.5z"/>
		<path class="st0" d="M92.9,11.4c0.6-1.1,1.4-1.9,2.4-2.6c1-0.6,2.2-0.9,3.5-0.9c1.1,0,2.1,0.3,3.1,0.8c0.9,0.5,1.7,1.2,2.2,2V3.2
			h2.4v19.2h-2.4v-2.7c-0.5,0.8-1.2,1.5-2.1,2.1c-0.9,0.5-2,0.8-3.2,0.8c-1.3,0-2.4-0.3-3.4-0.9c-1-0.6-1.8-1.5-2.4-2.6
			c-0.6-1.1-0.9-2.4-0.9-3.8C92.1,13.8,92.4,12.5,92.9,11.4z M103.4,12.4c-0.4-0.8-1-1.4-1.8-1.8s-1.5-0.6-2.4-0.6
			c-0.9,0-1.7,0.2-2.4,0.6c-0.7,0.4-1.3,1-1.7,1.8c-0.4,0.8-0.6,1.7-0.6,2.8c0,1.1,0.2,2,0.6,2.8c0.4,0.8,1,1.4,1.7,1.8
			c0.7,0.4,1.5,0.6,2.4,0.6c0.9,0,1.7-0.2,2.4-0.6c0.7-0.4,1.3-1,1.8-1.8c0.4-0.8,0.6-1.7,0.6-2.8C104.1,14.2,103.9,13.2,103.4,12.4
			z"/>
		<path class="st0" d="M130.5,8.6c0.9,0.5,1.5,1.1,2,2.1c0.5,0.9,0.8,2,0.8,3.3v8.4H131v-8c0-1.4-0.4-2.5-1.1-3.3
			c-0.7-0.8-1.6-1.1-2.8-1.1c-1.2,0-2.2,0.4-2.9,1.2c-0.7,0.8-1.1,1.9-1.1,3.4v7.8h-2.3v-8c0-1.4-0.3-2.5-1-3.3
			c-0.7-0.8-1.6-1.1-2.8-1.1c-1.2,0-2.2,0.4-2.9,1.2c-0.7,0.8-1.1,1.9-1.1,3.4v7.8h-2.4V8.2h2.4v2c0.5-0.7,1.1-1.3,1.9-1.7
			c0.8-0.4,1.7-0.6,2.6-0.6c1.2,0,2.2,0.3,3.2,0.8c0.9,0.5,1.6,1.3,2,2.4c0.4-1,1.1-1.8,2-2.3c0.9-0.6,1.9-0.8,3.1-0.8
			C128.7,7.9,129.7,8.1,130.5,8.6z"/>
		<path class="st0" d="M137.3,5.4c-0.3-0.3-0.5-0.7-0.5-1.1c0-0.4,0.2-0.8,0.5-1.1c0.3-0.3,0.7-0.5,1.1-0.5c0.4,0,0.8,0.2,1.1,0.5
			c0.3,0.3,0.5,0.7,0.5,1.1c0,0.5-0.2,0.8-0.5,1.1c-0.3,0.3-0.7,0.5-1.1,0.5C138,5.9,137.6,5.7,137.3,5.4z M139.5,8.2v14.2h-2.4V8.2
			H139.5z"/>
		<path class="st0" d="M154.7,9.5c1.1,1,1.6,2.6,1.6,4.5v8.4H154v-8c0-1.4-0.4-2.5-1.1-3.3c-0.7-0.8-1.7-1.1-2.9-1.1
			c-1.2,0-2.2,0.4-3,1.2c-0.7,0.8-1.1,1.9-1.1,3.4v7.9h-2.4V8.2h2.4v2c0.5-0.7,1.1-1.3,1.9-1.7c0.8-0.4,1.7-0.6,2.7-0.6
			C152.2,7.9,153.6,8.4,154.7,9.5z"/>
		<path class="st0" d="M160.2,5.4c-0.3-0.3-0.5-0.7-0.5-1.1c0-0.4,0.2-0.8,0.5-1.1c0.3-0.3,0.7-0.5,1.1-0.5c0.4,0,0.8,0.2,1.1,0.5
			s0.5,0.7,0.5,1.1c0,0.5-0.2,0.8-0.5,1.1c-0.3,0.3-0.7,0.5-1.1,0.5C160.9,5.9,160.6,5.7,160.2,5.4z M162.5,8.2v14.2h-2.4V8.2H162.5
			z"/>
		<path class="st0" d="M168.6,22.1c-0.9-0.4-1.5-0.9-2-1.6c-0.5-0.7-0.8-1.4-0.8-2.3h2.4c0.1,0.7,0.4,1.3,1,1.7
			c0.6,0.5,1.4,0.7,2.3,0.7c0.9,0,1.6-0.2,2.1-0.6s0.8-0.9,0.8-1.5c0-0.6-0.3-1.1-0.8-1.4c-0.6-0.3-1.4-0.6-2.6-0.9
			c-1.1-0.3-1.9-0.6-2.6-0.8c-0.7-0.3-1.2-0.7-1.7-1.3c-0.5-0.6-0.7-1.3-0.7-2.2c0-0.7,0.2-1.4,0.6-2s1-1.1,1.8-1.4
			c0.8-0.4,1.7-0.5,2.7-0.5c1.6,0,2.8,0.4,3.8,1.2c1,0.8,1.5,1.9,1.6,3.3h-2.4c-0.1-0.7-0.4-1.3-0.9-1.8c-0.5-0.5-1.3-0.7-2.2-0.7
			c-0.8,0-1.5,0.2-2,0.5c-0.5,0.4-0.8,0.8-0.8,1.4c0,0.5,0.2,0.9,0.5,1.2c0.3,0.3,0.7,0.5,1.1,0.7c0.5,0.2,1.1,0.4,1.9,0.6
			c1,0.3,1.8,0.5,2.5,0.8c0.6,0.3,1.2,0.7,1.6,1.2c0.5,0.5,0.7,1.2,0.7,2.1c0,0.8-0.2,1.5-0.6,2.1c-0.4,0.6-1,1.1-1.8,1.5
			c-0.8,0.4-1.7,0.5-2.7,0.5C170.5,22.6,169.5,22.4,168.6,22.1z"/>
		<path class="st0" d="M183,10.1v8.4c0,0.7,0.1,1.2,0.4,1.5c0.3,0.3,0.8,0.4,1.5,0.4h1.7v2h-2.1c-1.3,0-2.3-0.3-3-0.9
			c-0.7-0.6-1-1.6-1-3v-8.4h-1.8V8.2h1.8V4.6h2.4v3.6h3.7v1.9H183z"/>
		<path class="st0" d="M193.7,8.6c0.8-0.4,1.7-0.7,2.8-0.7v2.4h-0.6c-2.6,0-4,1.4-4,4.3v7.7h-2.4V8.2h2.4v2.3
			C192.3,9.7,192.9,9,193.7,8.6z"/>
		<path class="st0" d="M199.2,11.4c0.6-1.1,1.4-1.9,2.4-2.6c1-0.6,2.2-0.9,3.4-0.9c1.2,0,2.3,0.3,3.2,0.8c0.9,0.5,1.6,1.2,2,2V8.2
			h2.4v14.2h-2.4v-2.6c-0.5,0.8-1.2,1.5-2.1,2.1c-0.9,0.5-2,0.8-3.2,0.8c-1.3,0-2.4-0.3-3.4-0.9c-1-0.6-1.8-1.5-2.4-2.6
			c-0.6-1.1-0.9-2.4-0.9-3.8C198.3,13.8,198.6,12.5,199.2,11.4z M209.7,12.4c-0.4-0.8-1-1.4-1.8-1.8c-0.7-0.4-1.5-0.6-2.4-0.6
			c-0.9,0-1.7,0.2-2.4,0.6c-0.7,0.4-1.3,1-1.7,1.8c-0.4,0.8-0.6,1.7-0.6,2.8c0,1.1,0.2,2,0.6,2.8c0.4,0.8,1,1.4,1.7,1.8
			c0.7,0.4,1.5,0.6,2.4,0.6c0.9,0,1.7-0.2,2.4-0.6c0.7-0.4,1.3-1,1.8-1.8c0.4-0.8,0.6-1.7,0.6-2.8C210.4,14.2,210.1,13.2,209.7,12.4
			z"/>
		<path class="st0" d="M219.6,10.1v8.4c0,0.7,0.1,1.2,0.4,1.5c0.3,0.3,0.8,0.4,1.5,0.4h1.7v2h-2.1c-1.3,0-2.3-0.3-3-0.9
			c-0.7-0.6-1-1.6-1-3v-8.4h-1.8V8.2h1.8V4.6h2.4v3.6h3.7v1.9H219.6z"/>
		<path class="st0" d="M226.3,5.4c-0.3-0.3-0.5-0.7-0.5-1.1c0-0.4,0.2-0.8,0.5-1.1c0.3-0.3,0.7-0.5,1.1-0.5c0.4,0,0.8,0.2,1.1,0.5
			s0.5,0.7,0.5,1.1c0,0.5-0.2,0.8-0.5,1.1c-0.3,0.3-0.7,0.5-1.1,0.5C226.9,5.9,226.6,5.7,226.3,5.4z M228.5,8.2v14.2h-2.4V8.2H228.5
			z"/>
		<path class="st0" d="M235.1,21.7c-1.1-0.6-1.9-1.5-2.5-2.6c-0.6-1.1-0.9-2.4-0.9-3.9c0-1.5,0.3-2.7,0.9-3.9c0.6-1.1,1.5-2,2.6-2.6
			c1.1-0.6,2.3-0.9,3.7-0.9c1.3,0,2.6,0.3,3.7,0.9c1.1,0.6,1.9,1.4,2.6,2.6c0.6,1.1,0.9,2.4,0.9,3.9c0,1.5-0.3,2.8-1,3.9
			c-0.6,1.1-1.5,2-2.6,2.6c-1.1,0.6-2.3,0.9-3.7,0.9C237.4,22.6,236.2,22.3,235.1,21.7z M241.1,19.9c0.7-0.4,1.3-1,1.8-1.8
			c0.5-0.8,0.7-1.8,0.7-2.9c0-1.1-0.2-2.1-0.7-2.9c-0.4-0.8-1-1.4-1.8-1.8c-0.7-0.4-1.5-0.6-2.4-0.6c-0.9,0-1.7,0.2-2.4,0.6
			c-0.7,0.4-1.3,1-1.7,1.8c-0.4,0.8-0.6,1.8-0.6,2.9c0,1.2,0.2,2.1,0.6,2.9c0.4,0.8,1,1.4,1.7,1.8c0.7,0.4,1.5,0.6,2.3,0.6
			C239.6,20.5,240.4,20.3,241.1,19.9z"/>
		<path class="st0" d="M260.3,9.5c1.1,1,1.6,2.6,1.6,4.5v8.4h-2.3v-8c0-1.4-0.4-2.5-1.1-3.3c-0.7-0.8-1.7-1.1-2.9-1.1
			c-1.2,0-2.2,0.4-3,1.2c-0.7,0.8-1.1,1.9-1.1,3.4v7.9h-2.4V8.2h2.4v2c0.5-0.7,1.1-1.3,1.9-1.7c0.8-0.4,1.7-0.6,2.7-0.6
			C257.8,7.9,259.2,8.4,260.3,9.5z"/>
		<path class="st0" d="M278.5,10.1h-3v12.3h-2.4V10.1h-1.8V8.2h1.8v-1c0-1.6,0.4-2.8,1.2-3.5c0.8-0.7,2.1-1.1,4-1.1v2
			c-1,0-1.8,0.2-2.2,0.6c-0.4,0.4-0.6,1.1-0.6,2v1h3V10.1z"/>
		<path class="st0" d="M283.8,21.7c-1.1-0.6-1.9-1.5-2.5-2.6c-0.6-1.1-0.9-2.4-0.9-3.9c0-1.5,0.3-2.7,0.9-3.9c0.6-1.1,1.5-2,2.6-2.6
			c1.1-0.6,2.3-0.9,3.7-0.9c1.3,0,2.6,0.3,3.7,0.9c1.1,0.6,1.9,1.4,2.6,2.6c0.6,1.1,0.9,2.4,0.9,3.9c0,1.5-0.3,2.8-1,3.9
			c-0.6,1.1-1.5,2-2.6,2.6c-1.1,0.6-2.3,0.9-3.7,0.9C286.1,22.6,284.9,22.3,283.8,21.7z M289.8,19.9c0.7-0.4,1.3-1,1.8-1.8
			c0.5-0.8,0.7-1.8,0.7-2.9c0-1.1-0.2-2.1-0.7-2.9c-0.4-0.8-1-1.4-1.8-1.8c-0.7-0.4-1.5-0.6-2.4-0.6c-0.9,0-1.7,0.2-2.4,0.6
			c-0.7,0.4-1.3,1-1.7,1.8c-0.4,0.8-0.6,1.8-0.6,2.9c0,1.2,0.2,2.1,0.6,2.9c0.4,0.8,1,1.4,1.7,1.8c0.7,0.4,1.5,0.6,2.3,0.6
			C288.3,20.5,289.1,20.3,289.8,19.9z"/>
		<path class="st0" d="M301.9,8.6c0.8-0.4,1.7-0.7,2.8-0.7v2.4h-0.6c-2.6,0-4,1.4-4,4.3v7.7h-2.4V8.2h2.4v2.3
			C300.6,9.7,301.2,9,301.9,8.6z"/>
		<path class="st0" d="M86.2,30c1.4,0.7,2.6,1.8,3.3,3.2c0.8,1.4,1.2,3,1.2,4.8s-0.4,3.5-1.2,4.8c-0.8,1.4-1.9,2.4-3.3,3.1
			c-1.4,0.7-3.2,1.1-5.1,1.1h-5.6V28.9h5.6C83.1,28.9,84.8,29.3,86.2,30z M86.4,43.2c1.2-1.2,1.8-3,1.8-5.2c0-2.2-0.6-4-1.9-5.3
			c-1.2-1.3-3-1.9-5.3-1.9h-3.3v14.2h3.3C83.4,45.1,85.2,44.4,86.4,43.2z"/>
		<path class="st0" d="M93.9,30c-0.3-0.3-0.5-0.7-0.5-1.1c0-0.4,0.2-0.8,0.5-1.1c0.3-0.3,0.7-0.5,1.1-0.5c0.4,0,0.8,0.2,1.1,0.5
			c0.3,0.3,0.5,0.7,0.5,1.1c0,0.5-0.2,0.8-0.5,1.1c-0.3,0.3-0.7,0.5-1.1,0.5C94.6,30.5,94.2,30.3,93.9,30z M96.2,32.8V47h-2.4V32.8
			H96.2z"/>
		<path class="st0" d="M109.3,33.4c0.9,0.5,1.6,1.2,2.1,2v-2.6h2.4v14.5c0,1.3-0.3,2.5-0.8,3.5c-0.6,1-1.3,1.8-2.4,2.4
			c-1,0.6-2.2,0.9-3.6,0.9c-1.9,0-3.4-0.4-4.7-1.3c-1.2-0.9-2-2.1-2.2-3.6h2.3c0.3,0.9,0.8,1.6,1.6,2.1c0.8,0.5,1.8,0.8,2.9,0.8
			c1.3,0,2.4-0.4,3.2-1.2c0.8-0.8,1.2-2,1.2-3.4v-3c-0.5,0.8-1.2,1.5-2.1,2.1c-0.9,0.6-2,0.8-3.2,0.8c-1.3,0-2.4-0.3-3.4-0.9
			c-1-0.6-1.8-1.5-2.4-2.6c-0.6-1.1-0.9-2.4-0.9-3.8c0-1.5,0.3-2.7,0.9-3.8c0.6-1.1,1.4-1.9,2.4-2.6c1-0.6,2.2-0.9,3.4-0.9
			C107.3,32.5,108.3,32.8,109.3,33.4z M110.7,37.1c-0.4-0.8-1-1.4-1.8-1.8s-1.5-0.6-2.4-0.6c-0.9,0-1.7,0.2-2.4,0.6
			c-0.7,0.4-1.3,1-1.7,1.8c-0.4,0.8-0.6,1.7-0.6,2.8c0,1.1,0.2,2,0.6,2.8c0.4,0.8,1,1.4,1.7,1.8c0.7,0.4,1.5,0.6,2.4,0.6
			c0.9,0,1.7-0.2,2.4-0.6s1.3-1,1.8-1.8s0.6-1.7,0.6-2.8C111.3,38.8,111.1,37.9,110.7,37.1z"/>
		<path class="st0" d="M117.8,30c-0.3-0.3-0.5-0.7-0.5-1.1c0-0.4,0.2-0.8,0.5-1.1c0.3-0.3,0.7-0.5,1.1-0.5c0.4,0,0.8,0.2,1.1,0.5
			s0.5,0.7,0.5,1.1c0,0.5-0.2,0.8-0.5,1.1s-0.7,0.5-1.1,0.5C118.5,30.5,118.1,30.3,117.8,30z M120.1,32.8V47h-2.4V32.8H120.1z"/>
		<path class="st0" d="M127,34.7v8.4c0,0.7,0.1,1.2,0.4,1.5c0.3,0.3,0.8,0.4,1.5,0.4h1.7v2h-2.1c-1.3,0-2.3-0.3-3-0.9
			c-0.7-0.6-1-1.6-1-3v-8.4h-1.8v-1.9h1.8v-3.6h2.4v3.6h3.7v1.9H127z"/>
		<path class="st0" d="M133.5,36c0.6-1.1,1.4-1.9,2.4-2.6c1-0.6,2.2-0.9,3.4-0.9c1.2,0,2.3,0.3,3.2,0.8c0.9,0.5,1.6,1.2,2,2v-2.6
			h2.4V47h-2.4v-2.6c-0.5,0.8-1.2,1.5-2.1,2.1c-0.9,0.5-2,0.8-3.2,0.8c-1.3,0-2.4-0.3-3.4-0.9c-1-0.6-1.8-1.5-2.4-2.6
			s-0.9-2.4-0.9-3.8C132.6,38.4,132.9,37.1,133.5,36z M144,37.1c-0.4-0.8-1-1.4-1.8-1.8c-0.7-0.4-1.5-0.6-2.4-0.6
			c-0.9,0-1.7,0.2-2.4,0.6c-0.7,0.4-1.3,1-1.7,1.8c-0.4,0.8-0.6,1.7-0.6,2.8c0,1.1,0.2,2,0.6,2.8c0.4,0.8,1,1.4,1.7,1.8
			c0.7,0.4,1.5,0.6,2.4,0.6c0.9,0,1.7-0.2,2.4-0.6c0.7-0.4,1.3-1,1.8-1.8s0.6-1.7,0.6-2.8C144.7,38.8,144.5,37.9,144,37.1z"/>
		<path class="st0" d="M153.4,27.8V47h-2.4V27.8H153.4z"/>
		<path class="st0" d="M166.7,28.9V47h-2.4V28.9H166.7z"/>
		<path class="st0" d="M181.9,34.1c1.1,1,1.6,2.6,1.6,4.5V47h-2.3v-8c0-1.4-0.4-2.5-1.1-3.3c-0.7-0.8-1.7-1.1-2.9-1.1
			c-1.2,0-2.2,0.4-3,1.2c-0.7,0.8-1.1,1.9-1.1,3.4V47h-2.4V32.8h2.4v2c0.5-0.7,1.1-1.3,1.9-1.7c0.8-0.4,1.7-0.6,2.7-0.6
			C179.4,32.5,180.8,33,181.9,34.1z"/>
		<path class="st0" d="M187.3,36c0.6-1.1,1.4-1.9,2.4-2.6c1-0.6,2.2-0.9,3.5-0.9c1.1,0,2.1,0.3,3.1,0.8c0.9,0.5,1.7,1.2,2.2,2v-7.5
			h2.4V47h-2.4v-2.7c-0.5,0.8-1.2,1.5-2.1,2.1c-0.9,0.5-2,0.8-3.2,0.8c-1.3,0-2.4-0.3-3.4-0.9c-1-0.6-1.8-1.5-2.4-2.6
			s-0.9-2.4-0.9-3.8C186.5,38.4,186.8,37.1,187.3,36z M197.9,37.1c-0.4-0.8-1-1.4-1.8-1.8c-0.7-0.4-1.5-0.6-2.4-0.6
			c-0.9,0-1.7,0.2-2.4,0.6c-0.7,0.4-1.3,1-1.7,1.8c-0.4,0.8-0.6,1.7-0.6,2.8c0,1.1,0.2,2,0.6,2.8c0.4,0.8,1,1.4,1.7,1.8
			c0.7,0.4,1.5,0.6,2.4,0.6c0.9,0,1.7-0.2,2.4-0.6c0.7-0.4,1.3-1,1.8-1.8c0.4-0.8,0.6-1.7,0.6-2.8C198.5,38.8,198.3,37.9,197.9,37.1
			z"/>
		<path class="st0" d="M217.5,32.8V47h-2.4v-2.1c-0.5,0.7-1.1,1.3-1.9,1.7c-0.8,0.4-1.7,0.6-2.7,0.6c-1.1,0-2.1-0.2-3-0.7
			c-0.9-0.5-1.6-1.1-2.1-2.1c-0.5-0.9-0.8-2-0.8-3.3v-8.3h2.3v8c0,1.4,0.4,2.5,1.1,3.2c0.7,0.8,1.7,1.1,2.9,1.1c1.3,0,2.3-0.4,3-1.2
			c0.7-0.8,1.1-1.9,1.1-3.4v-7.8H217.5z"/>
		<path class="st0" d="M223.6,46.7c-0.9-0.4-1.5-0.9-2-1.6s-0.8-1.4-0.8-2.3h2.4c0.1,0.7,0.4,1.3,1,1.7c0.6,0.5,1.4,0.7,2.3,0.7
			c0.9,0,1.6-0.2,2.1-0.6c0.5-0.4,0.8-0.9,0.8-1.5c0-0.6-0.3-1.1-0.8-1.4s-1.4-0.6-2.6-0.9c-1.1-0.3-1.9-0.6-2.6-0.8
			c-0.7-0.3-1.2-0.7-1.7-1.3c-0.5-0.6-0.7-1.3-0.7-2.2c0-0.7,0.2-1.4,0.6-2s1-1.1,1.8-1.4c0.8-0.4,1.7-0.5,2.7-0.5
			c1.6,0,2.8,0.4,3.8,1.2c1,0.8,1.5,1.9,1.6,3.3h-2.4c-0.1-0.7-0.4-1.3-0.9-1.8c-0.5-0.5-1.3-0.7-2.2-0.7c-0.8,0-1.5,0.2-2,0.5
			c-0.5,0.4-0.8,0.8-0.8,1.4c0,0.5,0.2,0.9,0.5,1.2s0.7,0.5,1.1,0.7c0.5,0.2,1.1,0.4,1.9,0.6c1,0.3,1.8,0.5,2.5,0.8
			c0.6,0.3,1.2,0.7,1.6,1.2c0.5,0.5,0.7,1.2,0.7,2.1c0,0.8-0.2,1.5-0.6,2.1c-0.4,0.6-1,1.1-1.8,1.5c-0.8,0.4-1.7,0.5-2.7,0.5
			C225.4,47.2,224.4,47,223.6,46.7z"/>
		<path class="st0" d="M237.9,34.7v8.4c0,0.7,0.1,1.2,0.4,1.5c0.3,0.3,0.8,0.4,1.5,0.4h1.7v2h-2.1c-1.3,0-2.3-0.3-3-0.9
			c-0.7-0.6-1-1.6-1-3v-8.4h-1.8v-1.9h1.8v-3.6h2.4v3.6h3.7v1.9H237.9z"/>
		<path class="st0" d="M248.6,33.2c0.8-0.4,1.7-0.7,2.8-0.7V35h-0.6c-2.6,0-4,1.4-4,4.3V47h-2.4V32.8h2.4v2.3
			C247.2,34.3,247.8,33.6,248.6,33.2z"/>
		<path class="st0" d="M254.2,30c-0.3-0.3-0.5-0.7-0.5-1.1c0-0.4,0.2-0.8,0.5-1.1c0.3-0.3,0.7-0.5,1.1-0.5c0.4,0,0.8,0.2,1.1,0.5
			c0.3,0.3,0.5,0.7,0.5,1.1c0,0.5-0.2,0.8-0.5,1.1c-0.3,0.3-0.7,0.5-1.1,0.5C254.9,30.5,254.5,30.3,254.2,30z M256.5,32.8V47h-2.4
			V32.8H256.5z"/>
		<path class="st0" d="M273.4,40.8H262c0.1,1.4,0.6,2.5,1.4,3.3c0.9,0.8,1.9,1.2,3.2,1.2c1,0,1.9-0.2,2.6-0.7
			c0.7-0.5,1.2-1.1,1.4-1.9h2.5c-0.4,1.4-1.1,2.5-2.3,3.3c-1.1,0.9-2.6,1.3-4.3,1.3c-1.3,0-2.6-0.3-3.6-0.9
			c-1.1-0.6-1.9-1.5-2.5-2.6c-0.6-1.1-0.9-2.4-0.9-3.9c0-1.5,0.3-2.8,0.9-3.9c0.6-1.1,1.4-2,2.5-2.6c1.1-0.6,2.3-0.9,3.7-0.9
			c1.3,0,2.5,0.3,3.6,0.9c1,0.6,1.8,1.4,2.4,2.4c0.6,1,0.8,2.2,0.8,3.5C273.5,39.8,273.5,40.3,273.4,40.8z M270.4,36.5
			c-0.4-0.6-0.9-1.1-1.6-1.5c-0.7-0.3-1.4-0.5-2.3-0.5c-1.2,0-2.2,0.4-3,1.1c-0.8,0.8-1.3,1.8-1.4,3.2h9
			C271,38,270.8,37.2,270.4,36.5z"/>
		<path class="st0" d="M278.7,46.7c-0.9-0.4-1.5-0.9-2-1.6s-0.8-1.4-0.8-2.3h2.4c0.1,0.7,0.4,1.3,1,1.7c0.6,0.5,1.4,0.7,2.3,0.7
			c0.9,0,1.6-0.2,2.1-0.6c0.5-0.4,0.8-0.9,0.8-1.5c0-0.6-0.3-1.1-0.8-1.4s-1.4-0.6-2.6-0.9c-1.1-0.3-1.9-0.6-2.6-0.8
			c-0.7-0.3-1.2-0.7-1.7-1.3c-0.5-0.6-0.7-1.3-0.7-2.2c0-0.7,0.2-1.4,0.6-2c0.4-0.6,1-1.1,1.8-1.4c0.8-0.4,1.7-0.5,2.7-0.5
			c1.6,0,2.8,0.4,3.8,1.2c1,0.8,1.5,1.9,1.6,3.3h-2.4c-0.1-0.7-0.4-1.3-0.9-1.8c-0.5-0.5-1.3-0.7-2.2-0.7c-0.8,0-1.5,0.2-2,0.5
			c-0.5,0.4-0.8,0.8-0.8,1.4c0,0.5,0.2,0.9,0.5,1.2s0.7,0.5,1.1,0.7c0.5,0.2,1.1,0.4,1.9,0.6c1,0.3,1.8,0.5,2.5,0.8
			c0.6,0.3,1.2,0.7,1.6,1.2c0.5,0.5,0.7,1.2,0.7,2.1c0,0.8-0.2,1.5-0.6,2.1c-0.4,0.6-1,1.1-1.8,1.5c-0.8,0.4-1.7,0.5-2.7,0.5
			C280.5,47.2,279.6,47,278.7,46.7z"/>
		<path class="st0" d="M292.6,43.7l-2.9,7h-1.6l1.9-7H292.6z"/>
		<path class="st0" d="M322.2,33.2c0.9,0.5,1.5,1.1,2,2.1c0.5,0.9,0.8,2,0.8,3.3V47h-2.3v-8c0-1.4-0.4-2.5-1.1-3.3
			c-0.7-0.8-1.6-1.1-2.8-1.1c-1.2,0-2.2,0.4-2.9,1.2c-0.7,0.8-1.1,1.9-1.1,3.4V47h-2.3v-8c0-1.4-0.3-2.5-1-3.3
			c-0.7-0.8-1.6-1.1-2.8-1.1c-1.2,0-2.2,0.4-2.9,1.2c-0.7,0.8-1.1,1.9-1.1,3.4V47h-2.4V32.8h2.4v2c0.5-0.7,1.1-1.3,1.9-1.7
			c0.8-0.4,1.7-0.6,2.6-0.6c1.2,0,2.2,0.3,3.2,0.8c0.9,0.5,1.6,1.3,2,2.4c0.4-1,1.1-1.8,2-2.3s1.9-0.8,3.1-0.8
			C320.4,32.5,321.4,32.8,322.2,33.2z"/>
		<path class="st0" d="M331.5,46.3c-1.1-0.6-1.9-1.5-2.5-2.6c-0.6-1.1-0.9-2.4-0.9-3.9c0-1.5,0.3-2.7,0.9-3.9c0.6-1.1,1.5-2,2.6-2.6
			c1.1-0.6,2.3-0.9,3.7-0.9c1.3,0,2.6,0.3,3.7,0.9c1.1,0.6,1.9,1.4,2.6,2.6c0.6,1.1,0.9,2.4,0.9,3.9c0,1.5-0.3,2.8-1,3.9
			c-0.6,1.1-1.5,2-2.6,2.6c-1.1,0.6-2.3,0.9-3.7,0.9C333.8,47.2,332.6,46.9,331.5,46.3z M337.5,44.6c0.7-0.4,1.3-1,1.8-1.8
			c0.5-0.8,0.7-1.8,0.7-2.9c0-1.1-0.2-2.1-0.7-2.9c-0.4-0.8-1-1.4-1.8-1.8c-0.7-0.4-1.5-0.6-2.4-0.6c-0.9,0-1.7,0.2-2.4,0.6
			c-0.7,0.4-1.3,1-1.7,1.8c-0.4,0.8-0.6,1.8-0.6,2.9c0,1.2,0.2,2.1,0.6,2.9s1,1.4,1.7,1.8c0.7,0.4,1.5,0.6,2.3,0.6
			C336,45.2,336.8,45,337.5,44.6z"/>
		<path class="st0" d="M345.5,36c0.6-1.1,1.4-1.9,2.4-2.6c1-0.6,2.2-0.9,3.5-0.9c1.1,0,2.1,0.3,3.1,0.8c0.9,0.5,1.7,1.2,2.2,2v-7.5
			h2.4V47h-2.4v-2.7c-0.5,0.8-1.2,1.5-2.1,2.1c-0.9,0.5-2,0.8-3.2,0.8c-1.3,0-2.4-0.3-3.4-0.9c-1-0.6-1.8-1.5-2.4-2.6
			s-0.9-2.4-0.9-3.8C344.6,38.4,344.9,37.1,345.5,36z M356,37.1c-0.4-0.8-1-1.4-1.8-1.8c-0.7-0.4-1.5-0.6-2.4-0.6
			c-0.9,0-1.7,0.2-2.4,0.6c-0.7,0.4-1.3,1-1.7,1.8c-0.4,0.8-0.6,1.7-0.6,2.8c0,1.1,0.2,2,0.6,2.8c0.4,0.8,1,1.4,1.7,1.8
			c0.7,0.4,1.5,0.6,2.4,0.6c0.9,0,1.7-0.2,2.4-0.6c0.7-0.4,1.3-1,1.8-1.8s0.6-1.7,0.6-2.8C356.7,38.8,356.4,37.9,356,37.1z"/>
		<path class="st0" d="M363,36c0.6-1.1,1.4-1.9,2.4-2.6c1-0.6,2.2-0.9,3.4-0.9c1.2,0,2.3,0.3,3.2,0.8c0.9,0.5,1.6,1.2,2,2v-2.6h2.4
			V47h-2.4v-2.6c-0.5,0.8-1.2,1.5-2.1,2.1c-0.9,0.5-2,0.8-3.2,0.8c-1.3,0-2.4-0.3-3.4-0.9c-1-0.6-1.8-1.5-2.4-2.6s-0.9-2.4-0.9-3.8
			C362.2,38.4,362.5,37.1,363,36z M373.5,37.1c-0.4-0.8-1-1.4-1.8-1.8c-0.7-0.4-1.5-0.6-2.4-0.6c-0.9,0-1.7,0.2-2.4,0.6
			c-0.7,0.4-1.3,1-1.7,1.8c-0.4,0.8-0.6,1.7-0.6,2.8c0,1.1,0.2,2,0.6,2.8c0.4,0.8,1,1.4,1.7,1.8c0.7,0.4,1.5,0.6,2.4,0.6
			c0.9,0,1.7-0.2,2.4-0.6c0.7-0.4,1.3-1,1.8-1.8s0.6-1.7,0.6-2.8C374.2,38.8,374,37.9,373.5,37.1z"/>
	</g>
</g>
</svg>
