<?xml version="1.0" encoding="utf-8"?>
<!-- Generator: Adobe Illustrator 24.2.1, SVG Export Plug-In . SVG Version: 6.00 Build 0)  -->
<svg version="1.1" id="圖層_1" xmlns="http://www.w3.org/2000/svg" xmlns:xlink="http://www.w3.org/1999/xlink" x="0px" y="0px"
	 width="281.8px" height="61.4px" viewBox="0 0 281.8 61.4" style="enable-background:new 0 0 281.8 61.4;" xml:space="preserve">
<style type="text/css">
	.st0{clip-path:url(#SVGID_2_);}
	.st1{fill:#1F333D;}
	.st2{fill:#B3C33E;}
</style>
<g>
	<defs>
		<rect id="SVGID_1_" width="281.8" height="61.4"/>
	</defs>
	<clipPath id="SVGID_2_">
		<use xlink:href="#SVGID_1_"  style="overflow:visible;"/>
	</clipPath>
	<g class="st0">
		<path class="st1" d="M11.6,29.3c0-4.6,1.9-9.1,5.1-12.3c3.3-3.3,7.7-5.1,12.3-5.1h6.7V0.1c-5.4,0-6.9-0.4-12.4,0.7
			c-0.1,0-0.1,0-0.2,0C16.7,2.1,10.8,5.7,6.5,10.9C2.3,16.1,0,22.6,0,29.3c0,16,13.1,29.2,29.1,29.2h29.4V0.1H47.2v46.7l-18.1-0.1
			c-4.6,0-9.1-1.8-12.3-5.1C13.5,38.3,11.6,33.9,11.6,29.3z"/>
		<path class="st2" d="M22.8,29.6c0,3.7,2.8,6.2,6.5,6.2h6.5v-13h-6.2c-1.8,0-3.5,0.7-4.8,2C23.5,26.1,22.8,27.8,22.8,29.6z"/>
		<path class="st1" d="M78,21.2H64.9v37.4H78V21.2z"/>
		<path class="st2" d="M65,0.1h11.3v3.3h-8.1v6.5h8.1V13H65V0.1z"/>
		<path class="st1" d="M81.2,4.9H69.9v3.3H78v6.5h-8.1v3.2h11.3V4.9z"/>
		<path class="st1" d="M123.1,18.5h-2.2c-0.9,6.6-2.4,11.9-4.4,16c1.8,3.6,4.1,6.1,6.8,7.8c-0.8,0.7-1.5,1.5-2,2.4
			c-2.7-1.9-5-4.4-6.5-7.3c-2,2.9-4.5,5.4-7.5,7.3c-0.5-0.9-1-1.7-1.7-2.4c3.2-1.9,5.9-4.6,7.7-7.8c-1.4-3.4-2.4-6.9-3.1-10.6
			c-0.6,1.5-1.3,3-2.2,4.3c-0.5-0.6-1.1-1.1-1.7-1.6v3.3h-9.1c-0.4,0.8-0.8,1.6-1.3,2.4c2.6,0,6.8-0.1,12.5-0.2l-0.1,2.2l-4.1,0.1
			c-0.5,2-1.6,3.8-3.1,5.2c1.5,0.7,2.9,1.5,4.2,2.4l-1.9,1.8c-1.4-0.9-2.9-1.8-4.4-2.6c-2.3,1.5-5.6,2.6-10.1,3.4
			c-0.2-0.8-0.6-1.6-1.1-2.3c3.6-0.4,6.5-1.2,8.6-2.3c-1.6-0.7-3-1.3-4-1.7l-0.7,1.1l-2.4-0.7c0.7-1.1,1.5-2.5,2.5-4.1L87,34.8
			l-0.1-2.3c2.6,0,4.7,0,6.2,0c0.1-0.3,0.3-0.6,0.6-1.1c0.3-0.6,0.6-1.1,0.7-1.4h-5.8v-6.6H96v-1.8h-6.4v-4.3h-2.7v-2.2h2.7v-4.2H96
			V8.4h2.6v2.4h6.8v4.2h2.8v2.2h-2.8v4.3h-6.8v1.8h7.8v2c2.2-3.9,3.8-9.5,4.8-17l2.8,0.4c-0.4,2.8-0.8,5.1-1.2,6.8h10.3L123.1,18.5z
			 M91.1,25.3v2.6H96v-2.6H91.1z M96,12.9h-3.9v2.2H96V12.9z M92.1,19.5H96v-2.3h-3.9V19.5z M101.5,34.5l-6.8,0.1
			c-0.1,0.3-0.3,0.6-0.7,1.2c-0.2,0.4-0.4,0.6-0.5,0.8c1.7,0.6,3.4,1.2,5.1,2C99.9,37.5,100.9,36.1,101.5,34.5L101.5,34.5z
			 M102.9,12.9h-4.3v2.2h4.3V12.9z M98.6,19.5h4.3v-2.3h-4.3V19.5z M103.8,27.9v-2.6h-5.2v2.6H103.8z M118,18.5h-6l-0.1,0.5
			c0.6,4.2,1.6,8.3,3.1,12.2C116.4,27.7,117.4,23.4,118,18.5L118,18.5z"/>
		<path class="st1" d="M136,8.5l2.7,0.9c-1.1,2.8-2.5,5.5-4,8.1v26.9h-2.8V21.8c-1.3,1.8-2.8,3.5-4.3,5.1c-0.5-1-1-2-1.7-2.9
			c3.7-3.5,6.6-7.7,8.7-12.3C135.2,10.7,135.6,9.6,136,8.5z M153.6,40h9.5v2.8h-26V40h13.7c2-5.6,3.5-11.4,4.6-17.2
			c0.1-0.5,0.2-1,0.3-1.5l3.1,0.5C157.4,28,155.7,34,153.6,40z M138,16.2h10.2V8.9h3v7.3H162V19h-24V16.2z M147.1,37.5l-2.9,0.6
			c-0.4-4.9-1.3-9.8-2.5-14.5c-0.2-0.5-0.3-1.1-0.4-1.5l2.6-0.5c1.5,4.9,2.5,9.9,3.1,15C147.1,36.9,147.1,37.2,147.1,37.5z"/>
		<path class="st1" d="M194.1,21.3h8.3v2.4h-29.7v3.9c0,7.5-1.4,13.2-4.2,17.2c-0.6-0.7-1.3-1.3-2.2-1.8c0,0-0.1,0-0.1-0.1
			c2.4-3.5,3.6-8.6,3.6-15.4v-6.3h4.5c-0.3-0.6-0.7-1.1-1-1.7c3.1-0.5,6.2-1.3,9.2-2.2c-2.9-0.9-5.4-1.6-7.4-2.1l1.7-1.4h-7.5v-2.4
			h13.8V8.5h2.9v3.3h14.4v2.4h-6.8l0.7,0.4c-1.7,1.1-3.5,2.1-5.5,2.9c2.2,0.7,4.4,1.6,6.8,2.6L194.1,21.3z M189.4,36.5v4.8H202v2.5
			h-28v-2.5h12.5v-4.8h-8.9v-2.3h8.9v-4h-7.5c-0.8,1.3-1.8,2.5-2.8,3.6c-0.7-0.6-1.4-1.1-2.2-1.5c2.2-2.2,3.9-4.9,5-7.8l2.6,0.5
			c-0.3,0.7-0.6,1.6-1.2,2.7h6.2v-3.2h2.9v3.2h10.4v2.4h-10.4v4h9.5v2.3H189.4z M175.7,21.3H193c-2.1-0.9-4.5-1.8-7.3-2.8
			C182.4,19.7,179.1,20.6,175.7,21.3L175.7,21.3z M190.9,14.1h-13.1c1.8,0.4,4.5,1.2,8,2.3C187.6,15.8,189.3,15,190.9,14.1
			L190.9,14.1z"/>
		<path class="st1" d="M241.7,35.2h-13.2c3.1,2.5,7.1,4.4,12,5.7c0.7,0.2,1.5,0.4,2.1,0.5c-0.8,0.7-1.5,1.6-2,2.6
			c-4.6-1.3-9-3.4-12.8-6.3c-0.7-0.6-1.4-1.1-2.1-1.8v8.6h-2.9v-8.4c-3.2,2.9-7.3,5.2-12.5,7c-0.8,0.3-1.5,0.5-2.2,0.7
			c-0.5-0.9-1.1-1.7-1.9-2.5c4.4-1,8.5-2.7,12.3-5.1c0.6-0.4,1.2-0.8,1.7-1.2h-12.9v-2.5h15.6v-2.9H211v-2.3h11.9v-2.9H209v-2.4h8.6
			c-0.5-1.4-1.1-2.7-1.9-3.9l1.4-0.3h-9.7v-2.6h6.3c-0.8-2-1.9-3.9-3.1-5.7l2.5-0.8c1.4,1.8,2.6,3.7,3.4,5.8l-2,0.7h4.9v-7h2.7v7
			h4.7v-7h2.8v7h4.8l-1.5-0.5c1.2-1.9,2.2-3.9,3-6l3,0.8c-1,2-2.2,3.9-3.5,5.7h6.1v2.6h-7.9c-0.6,1.2-1.5,2.6-2.5,4.2h9v2.4h-14.4
			v2.9h12.4v2.3h-12.4v2.9h15.9L241.7,35.2z M230.3,18h-11.6c0.9,1.2,1.5,2.5,2,3.9l-1.3,0.3h9.3l-0.4-0.1
			C229,20.7,229.7,19.4,230.3,18z"/>
		<path class="st1" d="M268.8,28.6c-1.9,1-3.7,1.9-5.6,2.7h14.9v13.1h-2.9v-1.2h-17.5v1.3H255V34.3c-1.3,0.4-2.5,0.8-3.8,1.1
			c-1.3,0.4-2.5,0.7-3.8,1c-0.2-0.4-0.4-0.9-0.7-1.3c-0.3-0.5-0.6-1-0.8-1.3c2.9-0.6,5.8-1.3,8.7-2.2c2.8-0.9,5.6-1.9,8.4-3.1h-16.2
			v-2.4h14.8v-3h-10.9v-2.4h10.9V18H249V9.9h30.7V18h-15.2v2.8h8.9v2c0.7-0.5,1.5-1.1,2.1-1.6c0.7-0.6,1.3-1.2,1.9-1.8l2.3,1.5
			c-2,2-4.3,3.8-6.7,5.3h8.8v2.4L268.8,28.6z M258.2,12h-6.3v3.8h6.3V12z M275.3,33.4h-17.5v2.6h17.5V33.4z M275.3,41v-2.9h-17.5V41
			H275.3z M267.4,15.8V12h-6.5v3.8H267.4z M267.9,26.1c0.9-0.4,1.7-0.9,2.5-1.4c0.8-0.5,1.6-1,2.3-1.5h-8.4v2.9H267.9z M270.1,15.8
			h6.7V12h-6.7L270.1,15.8z"/>
		<path class="st1" d="M86.9,58.5l3.7-8.6h1.1l3.7,8.6H94l-0.9-2.1h-4.1l-0.9,2.1L86.9,58.5z M92.7,55.3l-1.6-4l-1.6,4H92.7z"/>
		<path class="st1" d="M100.1,58.4c-0.4,0.2-0.8,0.3-1.2,0.3c-0.4,0-0.8-0.1-1.2-0.2c-0.3-0.1-0.7-0.4-0.9-0.6
			c-0.3-0.3-0.5-0.6-0.6-1C96.1,56.4,96,56,96,55.6c0-0.4,0.1-0.8,0.2-1.2c0.1-0.4,0.3-0.7,0.6-1c0.3-0.3,0.6-0.5,0.9-0.6
			c0.4-0.2,0.8-0.2,1.2-0.2c0.4,0,0.9,0.1,1.2,0.3c0.3,0.2,0.6,0.4,0.8,0.7v-4.3h1.1v9.2H101v-0.9h0
			C100.8,57.9,100.5,58.2,100.1,58.4z M97.3,56.4c0.1,0.2,0.2,0.5,0.4,0.7c0.2,0.2,0.4,0.4,0.6,0.5c0.3,0.1,0.5,0.2,0.8,0.2
			c0.3,0,0.6-0.1,0.8-0.2c0.2-0.1,0.4-0.3,0.6-0.5c0.2-0.2,0.3-0.4,0.4-0.7c0.2-0.5,0.2-1.1,0-1.6c-0.1-0.2-0.2-0.5-0.4-0.7
			c-0.2-0.2-0.4-0.4-0.6-0.5c-0.2-0.1-0.5-0.2-0.8-0.2c-0.3,0-0.6,0.1-0.8,0.2c-0.2,0.1-0.4,0.3-0.6,0.5c-0.2,0.2-0.3,0.4-0.4,0.7
			C97.2,55.3,97.2,55.9,97.3,56.4L97.3,56.4z"/>
		<path class="st1" d="M105.9,52.9c0.3-0.2,0.7-0.3,1.1-0.3c0.4,0,0.7,0.1,1,0.3c0.3,0.2,0.6,0.5,0.7,0.9c0.2-0.4,0.5-0.7,0.8-0.9
			c0.3-0.2,0.7-0.3,1.1-0.3c0.3,0,0.7,0.1,1,0.2c0.3,0.1,0.5,0.3,0.7,0.5c0.2,0.2,0.3,0.5,0.4,0.7c0.1,0.3,0.1,0.6,0.1,0.9v3.6h-1.1
			v-3.2c0-0.2,0-0.4-0.1-0.7c0-0.2-0.1-0.4-0.2-0.6c-0.1-0.2-0.2-0.3-0.4-0.4c-0.2-0.1-0.4-0.2-0.6-0.1c-0.2,0-0.5,0.1-0.7,0.2
			c-0.2,0.1-0.3,0.2-0.5,0.4c-0.1,0.2-0.2,0.4-0.3,0.6c-0.1,0.2-0.1,0.4-0.1,0.7v3.1h-1.1v-3.4c0-0.2,0-0.4-0.1-0.6
			c0-0.2-0.1-0.3-0.2-0.5c-0.1-0.1-0.2-0.2-0.4-0.3c-0.2-0.1-0.4-0.1-0.6-0.1c-0.2,0-0.4,0-0.6,0.1c-0.2,0.1-0.3,0.2-0.5,0.4
			c-0.3,0.4-0.4,0.9-0.4,1.4v3.1h-1.1V54c0-0.2,0-0.4,0-0.6c0-0.2,0-0.5,0-0.6h1.1c0,0.1,0,0.3,0,0.5c0,0.2,0,0.3,0,0.5h0
			C105.4,53.4,105.6,53.1,105.9,52.9z"/>
		<path class="st1" d="M116,51.2c-0.1,0.1-0.3,0.2-0.5,0.2c-0.1,0-0.2,0-0.3-0.1c-0.1,0-0.2-0.1-0.2-0.2c-0.1-0.1-0.1-0.1-0.2-0.2
			c0-0.1-0.1-0.2-0.1-0.3c0-0.1,0-0.2,0.1-0.3c0-0.1,0.1-0.2,0.2-0.2c0.1-0.1,0.2-0.1,0.2-0.2c0.1,0,0.2-0.1,0.3-0.1
			c0.1,0,0.2,0,0.3,0.1c0.1,0,0.2,0.1,0.2,0.2c0.1,0.1,0.1,0.1,0.2,0.2c0,0.1,0.1,0.2,0.1,0.3c0,0.1,0,0.2-0.1,0.3
			C116.1,51.1,116.1,51.2,116,51.2z M114.9,58.5v-5.7h1.1v5.7H114.9z"/>
		<path class="st1" d="M119.1,53.3c0,0.2,0,0.3,0,0.5h0c0.1-0.2,0.2-0.3,0.3-0.4c0.1-0.1,0.3-0.3,0.4-0.3c0.2-0.1,0.3-0.2,0.5-0.2
			c0.2-0.1,0.4-0.1,0.6-0.1c0.3,0,0.7,0.1,1,0.2c0.3,0.1,0.5,0.3,0.7,0.5c0.2,0.2,0.3,0.5,0.4,0.7c0.1,0.3,0.1,0.6,0.1,0.9v3.6H122
			v-3.2c0-0.2,0-0.4-0.1-0.7c0-0.2-0.1-0.4-0.2-0.6c-0.1-0.2-0.2-0.3-0.4-0.4c-0.2-0.1-0.4-0.2-0.7-0.1c-0.2,0-0.4,0-0.6,0.1
			c-0.2,0.1-0.4,0.2-0.5,0.4c-0.3,0.4-0.5,0.9-0.4,1.4v3.1H118V54c0-0.2,0-0.4,0-0.6c0-0.2,0-0.5,0-0.6h1.1
			C119,52.9,119.1,53.1,119.1,53.3z"/>
		<path class="st1" d="M126.2,51.2c-0.1,0.1-0.3,0.2-0.5,0.2c-0.1,0-0.2,0-0.3-0.1c-0.1,0-0.2-0.1-0.2-0.2c-0.1-0.1-0.1-0.1-0.2-0.2
			c0-0.1-0.1-0.2-0.1-0.3c0-0.1,0-0.2,0.1-0.3c0-0.1,0.1-0.2,0.2-0.2c0.1-0.1,0.2-0.1,0.2-0.2c0.1,0,0.2-0.1,0.3-0.1
			c0.2,0,0.4,0.1,0.5,0.2c0.1,0.1,0.1,0.1,0.2,0.2c0,0.1,0.1,0.2,0.1,0.3c0,0.1,0,0.2-0.1,0.3C126.3,51.1,126.2,51.2,126.2,51.2z
			 M125.1,58.5v-5.7h1.1v5.7H125.1z"/>
		<path class="st1" d="M130.7,53.7c-0.2-0.1-0.5-0.2-0.8-0.2c-0.1,0-0.3,0-0.4,0c-0.1,0-0.2,0.1-0.3,0.1c-0.1,0.1-0.2,0.1-0.2,0.2
			c-0.1,0.1-0.1,0.2-0.1,0.3c0,0.1,0,0.2,0.1,0.3c0.1,0.1,0.1,0.2,0.2,0.2c0.3,0.1,0.6,0.3,1,0.3c0.3,0.1,0.5,0.1,0.8,0.2
			c0.2,0.1,0.4,0.2,0.6,0.3c0.2,0.1,0.3,0.3,0.4,0.5c0.1,0.2,0.2,0.4,0.1,0.7c0,0.3-0.1,0.6-0.2,0.9c-0.1,0.2-0.3,0.4-0.5,0.6
			c-0.2,0.2-0.5,0.3-0.7,0.3c-0.3,0.1-0.6,0.1-0.8,0.1c-0.4,0-0.9-0.1-1.3-0.3c-0.4-0.2-0.8-0.4-1-0.8l0.8-0.7
			c0.2,0.2,0.4,0.4,0.6,0.6c0.3,0.2,0.6,0.2,0.9,0.2c0.1,0,0.3,0,0.4,0c0.1,0,0.3-0.1,0.4-0.1c0.1-0.1,0.2-0.2,0.3-0.3
			c0.1-0.1,0.1-0.3,0.1-0.4c0-0.1,0-0.3-0.1-0.4c-0.1-0.1-0.2-0.2-0.3-0.2c-0.4-0.2-0.7-0.3-1.1-0.4c-0.2,0-0.4-0.1-0.6-0.2
			c-0.2-0.1-0.4-0.2-0.5-0.3c-0.2-0.1-0.3-0.3-0.4-0.5c-0.1-0.2-0.1-0.4-0.1-0.6c0-0.3,0-0.5,0.2-0.8c0.1-0.2,0.3-0.4,0.5-0.6
			c0.2-0.1,0.4-0.3,0.7-0.3c0.3-0.1,0.5-0.1,0.8-0.1c0.4,0,0.8,0.1,1.2,0.2c0.4,0.1,0.7,0.4,0.9,0.7l-0.8,0.7
			C131.1,54,131,53.8,130.7,53.7z"/>
		<path class="st1" d="M134.8,53.7v3c0,0.3,0,0.5,0.2,0.7c0.1,0.1,0.2,0.1,0.3,0.2c0.1,0,0.2,0.1,0.3,0c0.1,0,0.2,0,0.3,0
			c0.1,0,0.2-0.1,0.3-0.1l0,0.9c-0.1,0.1-0.3,0.1-0.5,0.1c-0.2,0-0.3,0-0.5,0c-0.2,0-0.5,0-0.7-0.1c-0.2-0.1-0.4-0.2-0.6-0.4
			c-0.3-0.4-0.5-0.9-0.4-1.3v-3.1h-1.1v-0.9h1.1v-1.6h1.1v1.6h1.5v0.9H134.8z"/>
		<path class="st1" d="M137.5,53.4c0-0.2,0-0.5,0-0.6h1.1c0,0.1,0,0.3,0,0.5c0,0.2,0,0.3,0,0.5h0c0.2-0.3,0.4-0.6,0.7-0.8
			c0.3-0.2,0.7-0.3,1-0.3c0.1,0,0.3,0,0.4,0l0,1.1c-0.2,0-0.3-0.1-0.5-0.1c-0.2,0-0.5,0-0.7,0.2c-0.2,0.1-0.4,0.2-0.5,0.4
			c-0.1,0.2-0.2,0.4-0.3,0.6c-0.1,0.2-0.1,0.5-0.1,0.7v3h-1.1V54C137.5,53.8,137.5,53.7,137.5,53.4z"/>
		<path class="st1" d="M144.9,53.8c-0.3-0.2-0.7-0.3-1-0.3c-0.3,0-0.6,0.1-0.9,0.2c-0.3,0.1-0.5,0.3-0.7,0.5l-0.6-0.7
			c0.3-0.3,0.6-0.5,1-0.6c0.4-0.2,0.9-0.2,1.3-0.2c0.4,0,0.7,0.1,1.1,0.2c0.3,0.1,0.5,0.3,0.7,0.5c0.2,0.2,0.3,0.4,0.4,0.7
			c0.1,0.3,0.1,0.6,0.1,0.9v2.5c0,0.2,0,0.4,0,0.6c0,0.2,0,0.4,0.1,0.5h-1c-0.1-0.3-0.1-0.5-0.1-0.8h0c-0.2,0.3-0.5,0.5-0.8,0.7
			c-0.4,0.2-0.7,0.3-1.1,0.3c-0.2,0-0.5,0-0.7-0.1c-0.2-0.1-0.5-0.2-0.7-0.3c-0.2-0.1-0.4-0.3-0.5-0.5c-0.1-0.3-0.2-0.5-0.2-0.8
			c0-0.4,0.1-0.7,0.3-1c0.3-0.3,0.6-0.5,0.9-0.6c0.4-0.1,0.8-0.2,1.3-0.3c0.5,0,1-0.1,1.5-0.1v-0.2c0-0.2,0-0.4-0.1-0.5
			C145.2,54.1,145.1,54,144.9,53.8z M144.2,55.8c-0.3,0-0.6,0.1-0.8,0.1c-0.2,0.1-0.4,0.2-0.6,0.3c-0.1,0.1-0.1,0.2-0.2,0.3
			c0,0.1-0.1,0.2-0.1,0.3c0,0.1,0,0.3,0.1,0.4c0.1,0.1,0.2,0.2,0.3,0.3c0.1,0.1,0.2,0.1,0.4,0.2c0.1,0,0.3,0,0.4,0
			c0.2,0,0.5,0,0.7-0.1c0.2-0.1,0.4-0.2,0.6-0.4c0.3-0.3,0.4-0.8,0.4-1.2v-0.3h-0.3C144.8,55.8,144.5,55.8,144.2,55.8z"/>
		<path class="st1" d="M149.4,51.2c-0.1,0.1-0.3,0.2-0.5,0.2c-0.1,0-0.2,0-0.3-0.1c-0.1,0-0.2-0.1-0.2-0.2c-0.1-0.1-0.1-0.1-0.2-0.2
			c0-0.1-0.1-0.2-0.1-0.3c0-0.1,0-0.2,0.1-0.3c0-0.1,0.1-0.2,0.2-0.2c0.1-0.1,0.2-0.1,0.2-0.2c0.1,0,0.2-0.1,0.3-0.1
			c0.2,0,0.4,0.1,0.5,0.2c0.1,0.1,0.1,0.1,0.2,0.2c0,0.1,0.1,0.2,0.1,0.3c0,0.1,0,0.2-0.1,0.3C149.6,51.1,149.5,51.2,149.4,51.2z
			 M148.3,58.5v-5.7h1.1v5.7H148.3z"/>
		<path class="st1" d="M157,56.8c-0.2,0.4-0.4,0.7-0.7,1c-0.3,0.3-0.6,0.5-1,0.6c-0.8,0.3-1.7,0.3-2.4,0c-0.4-0.1-0.7-0.4-1-0.6
			c-0.3-0.3-0.5-0.6-0.6-1c-0.2-0.4-0.2-0.8-0.2-1.2c0-0.4,0.1-0.8,0.2-1.2c0.1-0.4,0.4-0.7,0.6-1c0.3-0.3,0.6-0.5,1-0.6
			c0.8-0.3,1.7-0.3,2.4,0c0.4,0.1,0.7,0.4,1,0.6c0.3,0.3,0.5,0.6,0.7,1c0.2,0.4,0.2,0.8,0.2,1.2C157.3,56,157.2,56.5,157,56.8z
			 M156,54.8c-0.1-0.2-0.2-0.5-0.4-0.7c-0.2-0.2-0.4-0.3-0.6-0.5c-0.3-0.1-0.5-0.2-0.8-0.2c-0.3,0-0.6,0.1-0.8,0.2
			c-0.2,0.1-0.4,0.3-0.6,0.5c-0.2,0.2-0.3,0.4-0.4,0.7c-0.1,0.3-0.1,0.5-0.1,0.8c0,0.3,0,0.5,0.1,0.8c0.1,0.2,0.2,0.5,0.4,0.7
			c0.2,0.2,0.4,0.4,0.6,0.5c0.3,0.1,0.5,0.2,0.8,0.2c0.3,0,0.6-0.1,0.8-0.2c0.2-0.1,0.4-0.3,0.6-0.5c0.2-0.2,0.3-0.4,0.4-0.7
			c0.1-0.3,0.1-0.5,0.1-0.8C156.1,55.4,156,55.1,156,54.8z"/>
		<path class="st1" d="M159.9,53.3c0,0.2,0,0.3,0,0.5h0c0.1-0.2,0.2-0.3,0.3-0.4c0.1-0.1,0.3-0.3,0.4-0.3c0.2-0.1,0.3-0.2,0.5-0.2
			c0.2-0.1,0.4-0.1,0.6-0.1c0.3,0,0.7,0.1,1,0.2c0.3,0.1,0.5,0.3,0.7,0.5c0.2,0.2,0.3,0.5,0.4,0.7c0.1,0.3,0.1,0.6,0.1,0.9v3.6h-1.1
			v-3.2c0-0.2,0-0.4-0.1-0.7c0-0.2-0.1-0.4-0.2-0.6c-0.1-0.2-0.2-0.3-0.4-0.4c-0.2-0.1-0.4-0.2-0.7-0.1c-0.2,0-0.4,0-0.6,0.1
			c-0.2,0.1-0.4,0.2-0.5,0.4c-0.3,0.4-0.5,0.9-0.4,1.4v3.1h-1.1V54c0-0.2,0-0.4,0-0.6c0-0.2,0-0.5,0-0.6h1.1
			C159.9,52.9,159.9,53.1,159.9,53.3z"/>
		<path class="st1" d="M170.3,53.7v4.8h-1.1v-4.8H168v-0.9h1.1v-1.2c0-0.3,0-0.6,0.1-0.9c0.1-0.3,0.2-0.5,0.4-0.7
			c0.2-0.2,0.4-0.4,0.7-0.5c0.3-0.1,0.6-0.2,1-0.2c0.2,0,0.5,0,0.7,0.1l-0.1,1c-0.1,0-0.2,0-0.3-0.1c-0.1,0-0.2,0-0.3,0
			c-0.2,0-0.4,0-0.5,0.1c-0.1,0.1-0.2,0.2-0.3,0.3c-0.1,0.1-0.1,0.3-0.1,0.4c0,0.2,0,0.3,0,0.5v1.2h1.4v0.9L170.3,53.7z"/>
		<path class="st1" d="M178.3,56.8c-0.1,0.4-0.4,0.7-0.7,1c-0.3,0.3-0.6,0.5-1,0.6c-0.4,0.2-0.8,0.2-1.2,0.2c-0.4,0-0.8-0.1-1.2-0.2
			c-0.4-0.1-0.7-0.4-1-0.6c-0.3-0.3-0.5-0.6-0.6-1c-0.2-0.4-0.2-0.8-0.2-1.2c0-0.4,0.1-0.8,0.2-1.2c0.1-0.4,0.4-0.7,0.6-1
			c0.3-0.3,0.6-0.5,1-0.6c0.4-0.2,0.8-0.2,1.2-0.2c0.4,0,0.8,0.1,1.2,0.2c0.4,0.1,0.7,0.4,1,0.6c0.3,0.3,0.5,0.6,0.7,1
			c0.2,0.4,0.2,0.8,0.2,1.2C178.5,56,178.4,56.5,178.3,56.8z M177.2,54.8c-0.1-0.2-0.2-0.5-0.4-0.7c-0.2-0.2-0.4-0.3-0.6-0.5
			c-0.3-0.1-0.5-0.2-0.8-0.2c-0.3,0-0.6,0.1-0.8,0.2c-0.2,0.1-0.4,0.3-0.6,0.5c-0.2,0.2-0.3,0.4-0.4,0.7c-0.1,0.3-0.1,0.5-0.1,0.8
			c0,0.3,0,0.5,0.1,0.8c0.1,0.2,0.2,0.5,0.4,0.7c0.2,0.2,0.4,0.4,0.6,0.5c0.3,0.1,0.5,0.2,0.8,0.2c0.3,0,0.6-0.1,0.8-0.2
			c0.2-0.1,0.4-0.3,0.6-0.5c0.2-0.2,0.3-0.4,0.4-0.7c0.1-0.3,0.1-0.5,0.1-0.8C177.3,55.4,177.3,55.1,177.2,54.8z"/>
		<path class="st1" d="M180.1,53.4c0-0.2,0-0.5,0-0.6h1.1c0,0.1,0,0.3,0,0.5c0,0.2,0,0.3,0,0.5h0c0.2-0.3,0.4-0.6,0.7-0.8
			c0.3-0.2,0.7-0.3,1-0.3c0.1,0,0.3,0,0.4,0l0,1.1c-0.2,0-0.3-0.1-0.5-0.1c-0.2,0-0.5,0-0.7,0.2c-0.2,0.1-0.4,0.2-0.5,0.4
			c-0.1,0.2-0.2,0.4-0.3,0.6c-0.1,0.2-0.1,0.5-0.1,0.7v3h-1.1V54C180.1,53.9,180.1,53.7,180.1,53.4z"/>
		<path class="st1" d="M190.5,49.9c0.6,0,1.1,0.1,1.6,0.2c0.5,0.2,1,0.4,1.5,0.8c0.5,0.4,0.8,0.8,1.1,1.3c0.3,0.6,0.4,1.3,0.4,1.9
			c0,0.7-0.1,1.3-0.4,1.9c-0.3,0.5-0.6,1-1.1,1.3c-0.4,0.4-0.9,0.6-1.5,0.8c-0.5,0.2-1.1,0.3-1.6,0.3h-2.9v-8.6L190.5,49.9z
			 M190.2,57.5c0.5,0,1-0.1,1.5-0.2c0.4-0.1,0.8-0.3,1.1-0.6c0.3-0.3,0.6-0.6,0.7-1c0.2-0.4,0.3-0.9,0.3-1.4c0-0.5-0.1-1-0.3-1.4
			c-0.2-0.4-0.4-0.7-0.7-1c-0.3-0.3-0.7-0.5-1.1-0.6c-0.5-0.1-1-0.2-1.5-0.2h-1.5v6.5H190.2z"/>
		<path class="st1" d="M197.8,51.2c-0.1,0.1-0.3,0.2-0.5,0.2c-0.1,0-0.2,0-0.3-0.1c-0.1,0-0.2-0.1-0.2-0.2c-0.1-0.1-0.1-0.1-0.2-0.2
			c0-0.1-0.1-0.2-0.1-0.3c0-0.1,0-0.2,0.1-0.3c0-0.1,0.1-0.2,0.2-0.2c0.1-0.1,0.2-0.1,0.2-0.2c0.1,0,0.2-0.1,0.3-0.1
			c0.2,0,0.4,0.1,0.5,0.2c0.1,0.1,0.1,0.1,0.2,0.2c0,0.1,0.1,0.2,0.1,0.3c0,0.1,0,0.2-0.1,0.3S197.9,51.2,197.8,51.2z M196.7,58.5
			v-5.7h1.1v5.7H196.7z"/>
		<path class="st1" d="M201.2,60.2c0.4,0.2,0.8,0.3,1.2,0.3c0.3,0,0.7,0,1-0.2c0.2-0.1,0.5-0.3,0.6-0.5c0.2-0.2,0.3-0.4,0.3-0.7
			c0.1-0.3,0.1-0.6,0.1-0.8v-0.7c-0.2,0.3-0.5,0.6-0.9,0.7c-0.4,0.2-0.8,0.3-1.2,0.3c-0.4,0-0.8-0.1-1.2-0.2
			c-0.3-0.1-0.7-0.4-0.9-0.6c-0.3-0.3-0.4-0.6-0.6-0.9c-0.3-0.7-0.3-1.6,0-2.3c0.1-0.4,0.3-0.7,0.6-1c0.3-0.3,0.6-0.5,0.9-0.6
			c0.4-0.2,0.8-0.2,1.2-0.2c0.4,0,0.8,0.1,1.2,0.3c0.4,0.2,0.7,0.5,0.9,0.8v-0.9h1.1v5.4c0,0.4-0.1,0.8-0.2,1.2
			c-0.1,0.4-0.3,0.7-0.5,1c-0.3,0.3-0.6,0.6-1,0.7c-0.5,0.2-1,0.3-1.5,0.3c-0.5,0-1-0.1-1.5-0.3c-0.5-0.2-0.9-0.4-1.3-0.8l0.7-0.9
			C200.6,59.8,200.9,60,201.2,60.2z M200.7,56.3c0.1,0.2,0.2,0.5,0.4,0.6c0.2,0.2,0.4,0.3,0.6,0.4c0.2,0.1,0.5,0.2,0.8,0.2
			c0.3,0,0.5-0.1,0.8-0.2c0.2-0.1,0.4-0.2,0.6-0.4c0.2-0.2,0.3-0.4,0.4-0.6c0.1-0.3,0.1-0.5,0.1-0.8c0-0.3,0-0.5-0.1-0.8
			c-0.1-0.2-0.2-0.5-0.4-0.6s-0.4-0.3-0.6-0.4c-0.4-0.2-0.8-0.2-1.2-0.1c-0.4,0.1-0.8,0.3-1,0.6c-0.2,0.2-0.3,0.4-0.4,0.6
			c-0.1,0.3-0.1,0.5-0.1,0.8C200.6,55.8,200.7,56.1,200.7,56.3L200.7,56.3z"/>
		<path class="st1" d="M208.6,51.2c-0.1,0.1-0.3,0.2-0.5,0.2c-0.1,0-0.2,0-0.3-0.1c-0.1,0-0.2-0.1-0.2-0.2c-0.1-0.1-0.1-0.1-0.2-0.2
			c0-0.1-0.1-0.2-0.1-0.3c0-0.1,0-0.2,0.1-0.3c0-0.1,0.1-0.2,0.2-0.2c0.1-0.1,0.2-0.1,0.2-0.2c0.1,0,0.2-0.1,0.3-0.1
			c0.2,0,0.4,0.1,0.5,0.2c0.1,0.1,0.1,0.1,0.2,0.2c0,0.1,0.1,0.2,0.1,0.3c0,0.1,0,0.2-0.1,0.3C208.7,51.1,208.7,51.2,208.6,51.2z
			 M207.5,58.5v-5.7h1.1v5.7H207.5z"/>
		<path class="st1" d="M211.9,53.7v3c0,0.3,0,0.5,0.2,0.7c0.1,0.1,0.2,0.1,0.3,0.2c0.1,0,0.2,0.1,0.3,0c0.1,0,0.2,0,0.3,0
			c0.1,0,0.2-0.1,0.3-0.1l0,0.9c-0.1,0.1-0.3,0.1-0.5,0.1c-0.2,0-0.3,0-0.5,0c-0.2,0-0.5,0-0.7-0.1c-0.2-0.1-0.4-0.2-0.6-0.4
			c-0.3-0.4-0.5-0.9-0.4-1.3v-3.1h-1.1v-0.9h1.1v-1.6h1.1v1.6h1.5v0.9H211.9z"/>
		<path class="st1" d="M217.8,53.8c-0.3-0.2-0.7-0.3-1-0.3c-0.3,0-0.6,0.1-0.9,0.2c-0.3,0.1-0.5,0.3-0.7,0.5l-0.6-0.7
			c0.3-0.3,0.6-0.5,1-0.6c0.4-0.2,0.9-0.2,1.3-0.2c0.4,0,0.7,0.1,1.1,0.2c0.3,0.1,0.5,0.3,0.7,0.5c0.2,0.2,0.3,0.4,0.4,0.7
			c0.1,0.3,0.1,0.6,0.1,0.9v2.5c0,0.2,0,0.4,0,0.6c0,0.2,0,0.4,0.1,0.5h-1c-0.1-0.3-0.1-0.5-0.1-0.8h0c-0.2,0.3-0.5,0.5-0.8,0.7
			c-0.3,0.2-0.7,0.3-1.1,0.3c-0.2,0-0.5,0-0.7-0.1c-0.2-0.1-0.5-0.2-0.7-0.3c-0.2-0.1-0.4-0.3-0.5-0.5c-0.1-0.3-0.2-0.5-0.2-0.8
			c0-0.4,0.1-0.7,0.3-1c0.3-0.3,0.6-0.5,0.9-0.6c0.4-0.1,0.8-0.2,1.3-0.3c0.5,0,1-0.1,1.5-0.1v-0.2c0-0.2,0-0.4-0.1-0.5
			C218,54.1,217.9,54,217.8,53.8z M217,55.8c-0.3,0-0.6,0.1-0.8,0.1c-0.2,0.1-0.4,0.2-0.6,0.3c-0.1,0.1-0.1,0.2-0.2,0.3
			c0,0.1-0.1,0.2-0.1,0.3c0,0.1,0,0.3,0.1,0.4c0.1,0.1,0.2,0.2,0.3,0.3c0.1,0.1,0.2,0.1,0.4,0.2c0.1,0,0.3,0,0.4,0
			c0.2,0,0.5,0,0.7-0.1c0.2-0.1,0.4-0.2,0.6-0.4c0.3-0.3,0.4-0.8,0.4-1.2v-0.3h-0.3C217.6,55.8,217.3,55.8,217,55.8z"/>
		<path class="st1" d="M221.2,58.5v-9.2h1.1v9.2H221.2z"/>
		<path class="st1" d="M227.4,58.5v-8.6h1.2v8.6H227.4z"/>
		<path class="st1" d="M231.7,53.3c0,0.2,0,0.3,0,0.5h0c0.1-0.2,0.2-0.3,0.3-0.4c0.1-0.1,0.3-0.3,0.4-0.3c0.2-0.1,0.3-0.2,0.5-0.2
			c0.2-0.1,0.4-0.1,0.6-0.1c0.3,0,0.7,0.1,1,0.2c0.3,0.1,0.5,0.3,0.7,0.5c0.2,0.2,0.3,0.5,0.4,0.7c0.1,0.3,0.1,0.6,0.1,0.9v3.6h-1.2
			v-3.2c0-0.2,0-0.4-0.1-0.7c0-0.2-0.1-0.4-0.2-0.6c-0.1-0.2-0.2-0.3-0.4-0.4c-0.2-0.1-0.4-0.2-0.7-0.1c-0.2,0-0.4,0-0.6,0.1
			c-0.2,0.1-0.4,0.2-0.5,0.4c-0.3,0.4-0.5,0.9-0.4,1.4v3.1h-1.1V54c0-0.2,0-0.4,0-0.6c0-0.2,0-0.5,0-0.6h1.1
			C231.7,52.9,231.7,53.1,231.7,53.3z"/>
		<path class="st1" d="M241.4,58.4c-0.4,0.2-0.8,0.3-1.2,0.3c-0.4,0-0.8-0.1-1.2-0.2c-0.3-0.1-0.7-0.4-0.9-0.6
			c-0.3-0.3-0.5-0.6-0.6-1c-0.1-0.4-0.2-0.8-0.2-1.2c0-0.4,0.1-0.8,0.2-1.2c0.1-0.4,0.3-0.7,0.6-1c0.3-0.3,0.6-0.5,0.9-0.6
			c0.4-0.2,0.8-0.2,1.2-0.2c0.4,0,0.8,0.1,1.2,0.3c0.3,0.2,0.6,0.4,0.8,0.7v-4.3h1.1v9.2h-1.1v-0.9C242,57.9,241.7,58.2,241.4,58.4z
			 M238.6,56.4c0.1,0.2,0.2,0.5,0.4,0.7c0.2,0.2,0.4,0.4,0.6,0.5c0.3,0.1,0.5,0.2,0.8,0.2c0.3,0,0.5-0.1,0.8-0.2
			c0.2-0.1,0.4-0.3,0.6-0.5c0.2-0.2,0.3-0.4,0.4-0.7c0.2-0.5,0.2-1.1,0-1.6c-0.1-0.2-0.2-0.5-0.4-0.7c-0.2-0.2-0.4-0.3-0.6-0.5
			c-0.2-0.1-0.5-0.2-0.8-0.2c-0.3,0-0.6,0.1-0.8,0.2c-0.2,0.1-0.4,0.3-0.6,0.5c-0.2,0.2-0.3,0.4-0.4,0.7
			C238.4,55.4,238.4,55.9,238.6,56.4L238.6,56.4z"/>
		<path class="st1" d="M249.4,58c0-0.2,0-0.3,0-0.5c-0.2,0.3-0.4,0.6-0.7,0.8c-0.3,0.2-0.7,0.3-1.1,0.3c-0.3,0-0.7-0.1-1-0.2
			c-0.3-0.1-0.5-0.3-0.7-0.5c-0.2-0.2-0.3-0.5-0.4-0.7c-0.1-0.3-0.1-0.6-0.1-0.9v-3.6h1.1v3.1c0,0.2,0,0.5,0.1,0.7
			c0,0.2,0.1,0.4,0.2,0.6c0.1,0.2,0.2,0.3,0.4,0.4c0.2,0.1,0.4,0.2,0.7,0.1c0.2,0,0.4,0,0.6-0.1c0.2-0.1,0.4-0.2,0.5-0.4
			c0.3-0.4,0.4-0.9,0.4-1.4v-3.1h1.1v4.5c0,0.2,0,0.3,0,0.6c0,0.2,0,0.5,0,0.6h-1.1C249.4,58.3,249.4,58.2,249.4,58z"/>
		<path class="st1" d="M255,53.7c-0.2-0.1-0.5-0.2-0.8-0.2c-0.1,0-0.3,0-0.4,0c-0.1,0-0.2,0.1-0.3,0.1c-0.1,0.1-0.2,0.1-0.2,0.2
			c-0.1,0.1-0.1,0.2-0.1,0.3c0,0.1,0,0.2,0.1,0.3c0.1,0.1,0.1,0.2,0.2,0.2c0.3,0.1,0.6,0.3,1,0.3c0.3,0.1,0.5,0.1,0.8,0.2
			c0.2,0.1,0.4,0.2,0.6,0.3c0.2,0.1,0.3,0.3,0.4,0.5c0.1,0.2,0.2,0.4,0.1,0.7c0,0.3-0.1,0.6-0.2,0.9c-0.1,0.2-0.3,0.4-0.5,0.6
			c-0.2,0.2-0.5,0.3-0.7,0.3c-0.3,0.1-0.6,0.1-0.8,0.1c-0.4,0-0.9-0.1-1.3-0.3c-0.4-0.2-0.8-0.4-1-0.8l0.8-0.7
			c0.2,0.2,0.4,0.4,0.6,0.6c0.3,0.2,0.6,0.2,0.9,0.2c0.1,0,0.3,0,0.4,0c0.1,0,0.3-0.1,0.4-0.1c0.1-0.1,0.2-0.2,0.3-0.3
			c0.1-0.1,0.1-0.3,0.1-0.4c0-0.1,0-0.3-0.1-0.4c-0.1-0.1-0.2-0.2-0.3-0.2c-0.4-0.2-0.7-0.3-1.1-0.4c-0.2,0-0.4-0.1-0.6-0.2
			c-0.2-0.1-0.4-0.2-0.5-0.3c-0.2-0.1-0.3-0.3-0.4-0.5c-0.1-0.2-0.1-0.4-0.1-0.6c0-0.3,0-0.5,0.2-0.8c0.1-0.2,0.3-0.4,0.5-0.6
			c0.2-0.1,0.4-0.3,0.7-0.3c0.3-0.1,0.5-0.1,0.8-0.1c0.4,0,0.8,0.1,1.2,0.2c0.4,0.1,0.7,0.4,0.9,0.7l-0.8,0.7
			C255.4,54,255.2,53.8,255,53.7z"/>
		<path class="st1" d="M259.1,53.7v3c0,0.3,0,0.5,0.2,0.7c0.1,0.1,0.2,0.1,0.3,0.2c0.1,0,0.2,0.1,0.3,0c0.1,0,0.2,0,0.3,0
			c0.1,0,0.2-0.1,0.3-0.1l0,0.9c-0.1,0.1-0.3,0.1-0.5,0.1c-0.2,0-0.3,0-0.5,0c-0.2,0-0.5,0-0.7-0.1c-0.2-0.1-0.4-0.2-0.6-0.4
			c-0.3-0.4-0.5-0.9-0.4-1.3v-3.1h-1.1v-0.9h1.1v-1.6h1.1v1.6h1.5v0.9H259.1z"/>
		<path class="st1" d="M261.7,53.4c0-0.2,0-0.5,0-0.6h1.1c0,0.1,0,0.3,0,0.5c0,0.2,0,0.3,0,0.5h0c0.2-0.3,0.4-0.6,0.7-0.8
			c0.3-0.2,0.7-0.3,1-0.3c0.1,0,0.3,0,0.4,0l0,1.1c-0.2,0-0.3-0.1-0.5-0.1c-0.2,0-0.5,0-0.7,0.2c-0.2,0.1-0.4,0.2-0.5,0.4
			c-0.1,0.2-0.2,0.4-0.3,0.6c-0.1,0.2-0.1,0.5-0.1,0.7v3h-1.1V54C261.8,53.8,261.8,53.7,261.7,53.4z"/>
		<path class="st1" d="M267.3,51.2c-0.1,0.1-0.3,0.2-0.5,0.2c-0.1,0-0.2,0-0.3-0.1c-0.1,0-0.2-0.1-0.2-0.2c-0.1-0.1-0.1-0.1-0.2-0.2
			c0-0.1-0.1-0.2-0.1-0.3c0-0.1,0-0.2,0.1-0.3c0-0.1,0.1-0.2,0.2-0.2c0.1-0.1,0.2-0.1,0.2-0.2c0.1,0,0.2-0.1,0.3-0.1
			c0.2,0,0.4,0.1,0.5,0.2c0.1,0.1,0.1,0.1,0.2,0.2c0,0.1,0.1,0.2,0.1,0.3c0,0.1,0,0.2-0.1,0.3C267.4,51.1,267.3,51.2,267.3,51.2z
			 M266.2,58.5v-5.7h1.1v5.7H266.2z"/>
		<path class="st1" d="M274.6,55.8c0,0.1,0,0.1,0,0.2h-4.5c0,0.2,0.1,0.5,0.2,0.7c0.1,0.2,0.2,0.4,0.4,0.6c0.2,0.2,0.4,0.3,0.6,0.4
			c0.3,0.1,0.6,0.1,0.9,0.1c0.3,0,0.6-0.1,0.8-0.2c0.3-0.2,0.5-0.4,0.7-0.6l0.8,0.6c-0.3,0.4-0.7,0.7-1.1,0.9
			c-0.8,0.4-1.8,0.4-2.6,0.1c-0.4-0.1-0.7-0.3-1-0.6c-0.3-0.3-0.5-0.6-0.6-1c-0.2-0.4-0.2-0.8-0.2-1.2c0-0.4,0.1-0.8,0.2-1.2
			c0.1-0.4,0.3-0.7,0.6-1c0.3-0.3,0.6-0.5,1-0.6c0.4-0.2,0.8-0.2,1.2-0.2c0.4,0,0.8,0.1,1.1,0.2c0.3,0.1,0.6,0.3,0.9,0.6
			c0.2,0.3,0.4,0.6,0.6,0.9c0.1,0.4,0.2,0.8,0.2,1.2L274.6,55.8z M273.4,54.5c-0.1-0.2-0.2-0.4-0.3-0.5c-0.1-0.1-0.3-0.3-0.5-0.3
			c-0.2-0.1-0.5-0.1-0.7-0.1c-0.2,0-0.5,0-0.7,0.1c-0.2,0.1-0.4,0.2-0.6,0.3c-0.2,0.1-0.3,0.3-0.4,0.5c-0.1,0.2-0.2,0.4-0.2,0.6h3.4
			C273.5,54.9,273.4,54.7,273.4,54.5L273.4,54.5z"/>
		<path class="st1" d="M278.8,53.7c-0.2-0.1-0.5-0.2-0.8-0.2c-0.1,0-0.3,0-0.4,0c-0.1,0-0.2,0.1-0.3,0.1c-0.1,0.1-0.2,0.1-0.2,0.2
			c-0.1,0.1-0.1,0.2-0.1,0.3c0,0.1,0,0.2,0.1,0.3c0.1,0.1,0.1,0.2,0.2,0.2c0.3,0.1,0.6,0.3,1,0.3c0.3,0.1,0.5,0.1,0.8,0.2
			c0.2,0.1,0.4,0.2,0.6,0.3c0.2,0.1,0.3,0.3,0.4,0.5c0.1,0.2,0.2,0.4,0.1,0.7c0,0.3-0.1,0.6-0.2,0.9c-0.1,0.2-0.3,0.4-0.5,0.6
			c-0.2,0.2-0.5,0.3-0.7,0.3c-0.3,0.1-0.6,0.1-0.8,0.1c-0.4,0-0.9-0.1-1.3-0.3c-0.4-0.2-0.8-0.4-1-0.8l0.8-0.7
			c0.2,0.2,0.4,0.4,0.6,0.6c0.3,0.2,0.6,0.2,0.9,0.2c0.1,0,0.3,0,0.4,0c0.1,0,0.3-0.1,0.4-0.1c0.1-0.1,0.2-0.2,0.3-0.3
			c0.1-0.1,0.1-0.3,0.1-0.4c0-0.1,0-0.2-0.1-0.4c-0.1-0.1-0.2-0.2-0.3-0.2c-0.4-0.2-0.7-0.3-1.1-0.4c-0.2,0-0.4-0.1-0.6-0.2
			c-0.2-0.1-0.4-0.2-0.5-0.3c-0.2-0.1-0.3-0.3-0.4-0.5c-0.1-0.2-0.2-0.4-0.2-0.7c0-0.3,0.1-0.5,0.2-0.8c0.1-0.2,0.3-0.4,0.5-0.5
			c0.2-0.1,0.4-0.3,0.7-0.3c0.3-0.1,0.5-0.1,0.8-0.1c0.4,0,0.8,0.1,1.2,0.2c0.4,0.1,0.7,0.4,0.9,0.7l-0.8,0.7
			C279.2,54,279,53.8,278.8,53.7z"/>
	</g>
</g>
</svg>
