<?xml version="1.0" encoding="UTF-8"?>
<svg id="_圖層_1" data-name="圖層 1" xmlns="http://www.w3.org/2000/svg" width="200" height="40" viewBox="0 0 200 40">
  <defs>
    <style>
      .cls-1 {
        fill: #fff;
      }

      .cls-2 {
        fill: #b4c43f;
      }
    </style>
  </defs>
  <rect class="cls-2" width="200" height="40"/>
  <g>
    <path class="cls-1" d="M40.12,21.97h-3.46l-.85,2.84h-1.59l3.29-9.94h1.81l3.29,9.94h-1.66l-.84-2.84Zm-.38-1.23l-.39-1.34c-.34-1.08-.63-2.19-.94-3.31h-.05c-.28,1.13-.59,2.23-.92,3.31l-.41,1.34h2.71Z"/>
    <path class="cls-1" d="M43.93,14.87h2.58c3.05,0,4.79,1.69,4.79,4.93s-1.74,5.01-4.71,5.01h-2.66V14.87Zm2.47,8.65c2.13,0,3.28-1.26,3.28-3.73s-1.15-3.66-3.28-3.66h-.9v7.38h.9Z"/>
    <path class="cls-1" d="M53.37,14.87h1.57v9.94h-1.57V14.87Z"/>
    <path class="cls-1" d="M65.16,21.97h-3.46l-.85,2.84h-1.59l3.29-9.94h1.81l3.29,9.94h-1.66l-.84-2.84Zm-.38-1.23l-.39-1.34c-.34-1.08-.63-2.19-.94-3.31h-.05c-.28,1.13-.59,2.23-.92,3.31l-.4,1.34h2.71Z"/>
    <path class="cls-1" d="M68.97,14.87h1.61l3.29,5.83,1.04,2.11h.07c-.08-1.03-.2-2.23-.2-3.31v-4.63h1.48v9.94h-1.61l-3.29-5.86-1.04-2.08h-.07c.08,1.03,.2,2.17,.2,3.25v4.68h-1.49V14.87Z"/>
    <path class="cls-1" d="M78.88,14.87h2.58c3.05,0,4.79,1.69,4.79,4.93s-1.74,5.01-4.71,5.01h-2.66V14.87Zm2.47,8.65c2.13,0,3.28-1.26,3.28-3.73s-1.15-3.66-3.28-3.66h-.9v7.38h.9Z"/>
    <path class="cls-1" d="M93.74,24.81l-2.25-4.01h-1.61v4.01h-1.57V14.87h3.25c2.05,0,3.59,.73,3.59,2.88,0,1.54-.82,2.46-2.08,2.85l2.43,4.21h-1.77Zm-3.86-5.26h1.5c1.44,0,2.23-.59,2.23-1.8s-.78-1.62-2.23-1.62h-1.5v3.42Z"/>
    <path class="cls-1" d="M96.62,19.8c0-3.2,1.77-5.12,4.32-5.12s4.33,1.92,4.33,5.12-1.78,5.18-4.33,5.18-4.32-1.98-4.32-5.18Zm7.05,0c0-2.34-1.08-3.75-2.73-3.75s-2.71,1.42-2.71,3.75,1.07,3.82,2.71,3.82,2.73-1.48,2.73-3.82Z"/>
    <path class="cls-1" d="M107.34,14.87h1.57v9.94h-1.57V14.87Z"/>
    <path class="cls-1" d="M111.51,14.87h2.58c3.05,0,4.79,1.69,4.79,4.93s-1.74,5.01-4.71,5.01h-2.66V14.87Zm2.47,8.65c2.13,0,3.28-1.26,3.28-3.73s-1.15-3.66-3.28-3.66h-.9v7.38h.9Z"/>
    <path class="cls-1" d="M123.44,19.87c0-3.24,2-5.18,4.63-5.18,1.4,0,2.35,.62,2.96,1.26l-.85,1c-.49-.5-1.09-.89-2.05-.89-1.85,0-3.08,1.43-3.08,3.77s1.09,3.81,3.15,3.81c.61,0,1.21-.18,1.57-.49v-2.34h-1.97v-1.28h3.39v4.31c-.66,.66-1.78,1.16-3.15,1.16-2.66,0-4.59-1.86-4.59-5.12Z"/>
    <path class="cls-1" d="M138.87,24.81l-2.25-4.01h-1.61v4.01h-1.57V14.87h3.25c2.05,0,3.59,.73,3.59,2.88,0,1.54-.82,2.46-2.08,2.85l2.43,4.21h-1.77Zm-3.86-5.26h1.5c1.44,0,2.23-.59,2.23-1.8s-.78-1.62-2.23-1.62h-1.5v3.42Z"/>
    <path class="cls-1" d="M142.29,14.87h5.87v1.31h-4.31v2.77h3.64v1.32h-3.64v3.21h4.46v1.32h-6.02V14.87Z"/>
    <path class="cls-1" d="M150.39,14.87h5.87v1.31h-4.31v2.77h3.64v1.32h-3.64v3.21h4.45v1.32h-6.02V14.87Z"/>
    <path class="cls-1" d="M158.49,14.87h1.61l3.29,5.83,1.04,2.11h.07c-.08-1.03-.2-2.23-.2-3.31v-4.63h1.48v9.94h-1.61l-3.29-5.86-1.04-2.08h-.07c.08,1.03,.2,2.17,.2,3.25v4.68h-1.49V14.87Z"/>
  </g>
</svg>