<?xml version="1.0" encoding="utf-8"?>
<!-- Generator: Adobe Illustrator 26.3.1, SVG Export Plug-In . SVG Version: 6.00 Build 0)  -->
<svg version="1.1" id="_層_2" xmlns="http://www.w3.org/2000/svg" xmlns:xlink="http://www.w3.org/1999/xlink" x="0px" y="0px"
	 viewBox="0 0 600 622.9" style="enable-background:new 0 0 600 622.9;" xml:space="preserve">
<style type="text/css">
	.st0{fill:#1F333D;}
	.st1{fill:#B3C33E;}
</style>
<g id="adi_logo-V-standard-CN_x2B_EN">
	<g>
		<path class="st0" d="M90,212.2c0-69.7,56.8-126.5,126.5-126.5l48.6-0.1v-85c-38.8-0.3-49.7-2.6-89.6,4.8c-0.4,0.1-0.8,0.2-1.2,0.2
			C78.1,25.2,5.6,110.3,5.6,212.2c0,116.3,94.8,212,211,212h213.1V0.6h-82.4v338.6l-130.9-0.5C146.7,338.7,90,281.9,90,212.2z"/>
		<path class="st1" d="M170.7,214.5c0,27,20.2,45,47.3,45H265v-94.1h-45.2C192.8,165.3,170.7,187.4,170.7,214.5z"/>
		<rect x="476.1" y="153.5" class="st0" width="94.8" height="271.2"/>
		<polygon class="st1" points="477,0.5 559.2,0.5 559.2,24.3 500.4,24.3 500.4,71.2 559.2,71.2 559.2,94.5 477,94.5 		"/>
		<polygon class="st0" points="594.4,35.1 512.2,35.1 512.2,58.9 571,58.9 571,105.8 512.2,105.8 512.2,129.2 594.4,129.2 		"/>
	</g>
	<g>
		<path class="st0" d="M164.1,449.8v-2.3h2.7v2.3h6.5v4.6h1.8v2.5h-1.8v4.6h-6.5v2.1h7.1v6.7h-7.7c-0.5,0.8-0.9,1.6-1.2,2.3h9.1v1.9
			c-1.2,2-2.9,3.8-5.2,5.4c2,0.8,4.1,1.8,6.2,2.9l-1.6,2.1c-2.4-1.3-4.7-2.5-7.1-3.5c-2.7,1.5-5.8,2.8-9.5,3.8l-1.6-2.1
			c3.2-0.8,5.9-1.8,8.2-2.9c-1.7-0.7-3.4-1.2-5.1-1.7c0.8-1.2,1.6-2.4,2.3-3.6h-5.2v-2.3h6.6c0.4-0.8,0.9-1.5,1.3-2.3H157v-6.7h7.1
			v-2.1h-6.5v-4.6h-1.8v-2.5h1.8v-4.6H164.1z M164.1,465.6h-4.5v2.6h4.5V465.6z M164.1,454.6v-2.7h-4v2.7H164.1z M164.1,456.6h-4
			v2.7h4V456.6z M170.8,474.8h-7.2c-0.6,0.9-1.1,1.8-1.6,2.5c1.4,0.4,2.7,0.8,4.1,1.4C168.1,477.5,169.7,476.2,170.8,474.8z
			 M170.8,454.6v-2.7h-4v2.7H170.8z M170.8,456.6h-4v2.7h4V456.6z M171.4,465.6h-4.6v2.6h4.6V465.6z M178.3,463.6
			c-0.7,1.4-1.3,2.6-2,3.7l-1.8-2.3c2.4-4.4,4-10.3,4.9-17.7l2.9,0.5c-0.3,2.1-0.6,4.2-1,6.1h10.8v2.8h-2.8
			c-0.2,7.4-1.6,13.6-4.2,18.6c2,2.9,4.5,5.5,7.7,7.6l-1.8,2.3c-3-2-5.5-4.5-7.4-7.2c-1.9,2.8-4.1,5.2-6.8,7.2l-1.6-2.6
			c2.8-1.9,5-4.3,6.8-7.2C180,471.9,178.8,468,178.3,463.6z M178.3,463.4l2.4-0.7c0.4,3.6,1.3,6.8,2.7,9.7c1.9-4.3,3-9.6,3.2-15.7
			h-6C179.9,459.1,179.2,461.4,178.3,463.4z"/>
		<path class="st0" d="M208.1,448.6c-1.1,3.2-2.4,6.2-4,9v27.6h-2.9v-23.1c-1.4,1.8-2.8,3.6-4.4,5.2l-0.9-3.2
			c4.3-4.9,7.5-10.5,9.5-16.9L208.1,448.6z M221.3,480.3c2.1-5.5,3.9-12.4,5.4-20.6l2.8,0.7c-1.4,7.5-3.2,14.1-5.2,19.9h9.3v2.9
			h-26.4v-2.9H221.3z M218.9,454.2c-0.6-2.2-1.3-4.2-2-6l3.1-0.5c0.7,1.9,1.3,4.1,1.8,6.5h10.7v2.8h-24.6v-2.8H218.9z M217.3,478.3
			l-2.7,0.7c-1.1-6.2-2.5-12.2-4.3-18l2.7-0.8C214.6,465.4,216,471.5,217.3,478.3z"/>
		<path class="st0" d="M246.4,456.3c2-1.4,3.7-2.9,5-4.5h-11.3v-2.6h14.6v2.1c-1.6,3-4.1,5.5-7.6,7.7h6v9.4H244l-0.7,4.5h10.1
			c0,4.8-0.2,8-0.6,9.5c-0.5,1.6-2.4,2.5-5.7,2.6c-1.5,0-3-0.1-4.5-0.2l-0.7-2.6c1.5,0.1,3.1,0.2,4.6,0.2c2.1,0,3.4-0.4,3.7-1.4
			c0.3-0.9,0.4-2.8,0.4-5.7h-10.3l1.3-9.5h8.8v-4.3H242c-1.1,0.4-2.1,0.8-3.2,1.2l-1.8-2.3c2.7-0.8,5.1-1.8,7.1-2.8
			c-1.3-1.1-2.8-2.2-4.6-3.3l2.2-1.4C243.6,454.1,245.2,455.3,246.4,456.3z M268.2,448.9c-1,1.1-1.9,2-2.9,2.7
			c-0.7,0.5-1.5,1-2.5,1.5c0.8,0.7,1.6,1.3,2.5,1.8c1-0.5,2-1.1,2.8-1.7c1-0.8,2-1.7,2.8-2.7l2.1,1.3c-1,1.3-2,2.3-3.1,3.1
			c-0.7,0.5-1.4,1-2.2,1.5c2,1.1,4.3,2.2,6.8,3.1l-2,2.3c-1.6-0.7-3.1-1.3-4.4-2v3.9c0,0.8,0.5,1.3,1.6,1.3h2.3v2.4h-3
			c-2.2,0-3.3-1-3.3-3.1v-2.9h-6c0,1.5-0.2,2.8-0.7,3.8c-0.6,1.1-1.6,2.1-2.9,3l-2-1.8c1.3-1,2.2-2,2.7-3c0.3-0.9,0.5-2.5,0.5-4.5
			h9.5c-4.7-2.7-8.2-5.8-10.4-9.4l2.3-1.3c0.7,1.1,1.5,2.1,2.5,3.1c0.9-0.4,1.8-0.9,2.5-1.4c0.9-0.7,1.8-1.5,2.6-2.4L268.2,448.9z
			 M270.2,469.7v2.5c-0.9,2.5-2.2,4.6-3.9,6.5c2.5,1.5,4.9,3,6.9,4.5l-2,2.1c-1.9-1.6-4.2-3.1-6.8-4.7c-2.3,1.9-5.1,3.4-8.4,4.6
			l-1.1-2.6c2.7-0.9,5-2.1,7-3.5c-1.8-1.1-3.8-2.1-5.9-3.2l1.8-1.7c2.2,1.1,4.2,2.1,6.1,3.2c1.5-1.5,2.7-3.1,3.5-5h-11.4v-2.6H270.2
			z"/>
		<path class="st0" d="M280,485l-2.2-2c2.7-5.4,4-12.2,4.1-20.7v-13.2h30.7v9.7h-27.7v4.4h7.4V460h2.9v3.3h8.1v-3.2h2.9v3.2h6.9v2.6
			h-6.9v4.2h8.1v2.7H292v9c2.5-0.6,4.7-1.3,6.6-2.1l0.5,2.7c-3,1-6.5,1.9-10.6,2.7l-0.8-2.6c1-0.4,1.5-1,1.5-2v-7.7h-5.3
			C283.1,477.4,281.8,481.4,280,485z M284.3,470.2h8v-4.2h-7.6C284.7,467.4,284.5,468.8,284.3,470.2z M284.9,451.9v4.3h24.8v-4.3
			H284.9z M303.3,470.2v-4.2h-8.1v4.2H303.3z M312.4,474.9c-1.6,2.2-3.4,3.9-5.3,5.2c2.5,1.3,5.3,2.2,8.3,2.5l-0.7,2.7
			c-7-0.7-12.8-4.1-17.2-10.2l2.1-1.4c1.5,2,3.1,3.6,5,4.9c2-1.1,4-3,5.8-5.6L312.4,474.9z"/>
		<path class="st0" d="M328,451.7c-0.4-1.4-0.9-2.7-1.4-3.8l3-0.5c0.4,1.3,0.9,2.7,1.3,4.3h8.3v2.8h-2c-0.8,3.1-1.8,5.9-2.8,8.4h5.1
			v2.8h-20.3v-2.8h5.2c-0.7-3-1.5-5.8-2.4-8.4h-2.1v-2.8H328z M337.5,485h-2.9v-2.2h-10.1v2.2h-2.9v-15.4h15.9V485z M334.6,480.1
			v-7.6h-10.1v7.6H334.6z M334.3,454.5h-9.4c0.8,2.4,1.6,5.2,2.3,8.4h4.4C332.6,460.3,333.5,457.5,334.3,454.5z M355.3,449.2v2.2
			c-1.4,4.3-2.8,8.3-4.4,12c3.2,4,4.9,7.3,4.9,9.9c0,2.4-0.5,4.1-1.6,5c-1.1,1-3.4,1.5-6.9,1.5l-0.9-3.1c1.1,0.1,2,0.2,2.8,0.2
			c1.5-0.1,2.5-0.3,2.9-0.8c0.4-0.5,0.7-1.4,0.7-2.7c0-2.5-1.8-5.8-5.2-9.9c1.5-3.3,2.9-7.1,4.3-11.5h-7.5V485h-2.9v-35.8H355.3z"/>
		<path class="st0" d="M382.3,449.8v-2.3h2.7v2.3h6.5v4.6h1.8v2.5h-1.8v4.6H385v2.1h7.1v6.7h-7.7c-0.5,0.8-0.9,1.6-1.2,2.3h9.1v1.9
			c-1.2,2-2.9,3.8-5.2,5.4c2,0.8,4.1,1.8,6.2,2.9l-1.6,2.1c-2.4-1.3-4.7-2.5-7.1-3.5c-2.7,1.5-5.8,2.8-9.5,3.8l-1.6-2.1
			c3.2-0.8,5.9-1.8,8.2-2.9c-1.7-0.7-3.4-1.2-5.1-1.7c0.8-1.2,1.6-2.4,2.3-3.6h-5.2v-2.3h6.6c0.4-0.8,0.9-1.5,1.3-2.3h-6.4v-6.7h7.1
			v-2.1h-6.5v-4.6h-1.8v-2.5h1.8v-4.6H382.3z M382.3,465.6h-4.5v2.6h4.5V465.6z M382.3,454.6v-2.7h-4v2.7H382.3z M382.3,456.6h-4
			v2.7h4V456.6z M389,474.8h-7.2c-0.6,0.9-1.1,1.8-1.6,2.5c1.4,0.4,2.7,0.8,4.1,1.4C386.3,477.5,387.9,476.2,389,474.8z M389,454.6
			v-2.7h-4v2.7H389z M389,456.6h-4v2.7h4V456.6z M389.5,465.6H385v2.6h4.6V465.6z M396.4,463.6c-0.7,1.4-1.3,2.6-2,3.7l-1.8-2.3
			c2.4-4.4,4-10.3,4.9-17.7l2.9,0.5c-0.3,2.1-0.6,4.2-1,6.1h10.8v2.8h-2.8c-0.2,7.4-1.6,13.6-4.2,18.6c2,2.9,4.5,5.5,7.7,7.6
			l-1.8,2.3c-3-2-5.5-4.5-7.4-7.2c-1.9,2.8-4.1,5.2-6.8,7.2l-1.6-2.6c2.8-1.9,5-4.3,6.8-7.2C398.2,471.9,397,468,396.4,463.6z
			 M396.5,463.4l2.4-0.7c0.4,3.6,1.3,6.8,2.7,9.7c1.9-4.3,3-9.6,3.2-15.7h-6C398.1,459.1,397.4,461.4,396.5,463.4z"/>
		<path class="st0" d="M426.3,448.6c-1.1,3.2-2.4,6.2-4,9v27.6h-2.9v-23.1c-1.4,1.8-2.8,3.6-4.4,5.2l-0.9-3.2
			c4.3-4.9,7.5-10.5,9.5-16.9L426.3,448.6z M439.5,480.3c2.1-5.5,3.9-12.4,5.4-20.6l2.8,0.7c-1.4,7.5-3.2,14.1-5.2,19.9h9.3v2.9
			h-26.4v-2.9H439.5z M437.1,454.2c-0.6-2.2-1.3-4.2-2-6l3.1-0.5c0.7,1.9,1.3,4.1,1.8,6.5h10.7v2.8h-24.6v-2.8H437.1z M435.4,478.3
			l-2.7,0.7c-1.1-6.2-2.5-12.2-4.3-18l2.7-0.8C432.7,465.4,434.2,471.5,435.4,478.3z"/>
		<path class="st0" d="M475.8,456.1c2.9-0.9,5.5-2,7.7-3.2h-26v-2.5h15.9c-0.4-1-0.9-1.9-1.4-2.7l3-0.5c0.5,0.9,0.9,2,1.4,3.2h14
			v2.5h-6.5l1.7,1.1c-2.1,1.1-4.3,2.1-6.5,3c3.2,0.9,6.1,1.9,8.8,2.8l-1.7,1.7h4.5v2.5h-29.1v4.6c-0.2,6.8-1.5,12.3-4,16.4l-2.2-2
			c2.1-3.4,3.2-8.3,3.3-14.4v-7.2H486c-2.9-1.1-6.2-2.3-10.1-3.4c-4.3,1.3-8.8,2.3-13.8,2.9l-1.4-1.9c4.3-0.5,8.1-1.2,11.5-2
			c-2.9-0.8-5.9-1.6-9.2-2.4l1.6-1.5C468.6,454.2,472.3,455.1,475.8,456.1z M463.8,475.2l-2-1.8c2.6-2,4.6-4.6,5.9-8l2.3,0.9
			c-0.4,0.9-0.7,1.7-1.1,2.4h7.2v-3.4h2.9v3.4h10.7v2.6H479v3.8h9.8v2.6H479v3.8h12.7v2.5h-29.5v-2.5h13.9v-3.8h-9.7v-2.6h9.7v-3.8
			h-8.8C466.3,472.9,465.1,474.1,463.8,475.2z"/>
		<path class="st0" d="M512.6,447.6v6.2h4.3v-6.2h2.9v6.2h3.5c1.2-1.8,2.2-3.6,3.1-5.6l2.7,1c-0.9,1.8-1.9,3.3-2.8,4.5h6.5v2.6H497
			v-2.6h6.3c-0.7-1.6-1.6-3.1-2.5-4.5l2.7-1c0.9,1.6,1.8,3.4,2.6,5.5h3.6v-6.2H512.6z M507.7,460.9c-0.6-1.2-1.3-2.3-2.1-3.3l2.7-1
			c0.9,1.2,1.7,2.7,2.5,4.3h7.9c1-1.3,1.9-2.7,2.6-4.3l2.8,1c-0.7,1.2-1.4,2.3-2.2,3.3h9v2.6h-14.5v3h12.5v2.5h-12.5v3.1h16.3v2.6
			h-16.3v10.6h-3v-10.6h-16.3V472h16.3V469h-12.6v-2.5h12.6v-3h-14.6v-2.6H507.7z M509,477.8c-2.5,2.5-5.6,4.8-9.4,6.8l-1.8-2.4
			c3.6-1.7,6.7-3.8,9.2-6.1L509,477.8z M531.8,482.5l-2.1,2.1c-2.1-2-5-4.3-8.6-6.6l1.9-1.8C526.5,478.3,529.4,480.3,531.8,482.5z"
			/>
		<path class="st0" d="M570.2,449.1v7.8h-14.3v2.7h8.7v2.4h-8.7v2.9h5.2c3.2-2,6-4.3,8.3-6.9l2.4,1.3c-1.9,2-4.1,3.9-6.6,5.6h8.6
			v2.5H561c-2.1,1.1-4.3,2.1-6.7,3h14.4v15h-2.9v-1.8h-17.4v1.8h-2.9v-12.4c-2,0.5-4.2,0.9-6.3,1.3l-1.6-2.5
			c7.1-0.7,13.3-2.3,18.6-4.5h-18.3v-2.5H553v-2.9h-10.7v-2.4H553v-2.7h-11.8v-7.8H570.2z M550.1,451.3H544v3.4h6.1V451.3z
			 M565.8,472.7h-17.4v3.2h17.4V472.7z M548.4,481.2h17.4v-3.1h-17.4V481.2z M558.7,451.3h-5.9v3.4h5.9V451.3z M567.3,451.3h-6v3.4
			h6V451.3z"/>
	</g>
	<g>
		<path class="st0" d="M272.5,521.8h-10.9l-2,5.5h-3.4l9-24.8h3.8l9,24.8h-3.4L272.5,521.8z M271.5,519.1l-4.5-12.6l-4.5,12.6H271.5
			z"/>
		<path class="st0" d="M281.8,512.1c0.8-1.5,1.9-2.7,3.3-3.5s3-1.3,4.8-1.3c1.5,0,2.9,0.4,4.3,1.1c1.3,0.7,2.3,1.6,3,2.8v-10.4h3.3
			v26.5h-3.3v-3.7c-0.6,1.2-1.6,2.1-2.9,2.9c-1.3,0.8-2.7,1.1-4.4,1.1c-1.7,0-3.3-0.4-4.7-1.3s-2.5-2.1-3.3-3.6
			c-0.8-1.5-1.2-3.3-1.2-5.3C280.6,515.4,281,513.7,281.8,512.1z M296.3,513.6c-0.6-1.1-1.4-1.9-2.4-2.5c-1-0.6-2.1-0.9-3.3-0.9
			c-1.2,0-2.3,0.3-3.3,0.9s-1.8,1.4-2.4,2.5c-0.6,1.1-0.9,2.4-0.9,3.9c0,1.5,0.3,2.8,0.9,3.9c0.6,1.1,1.4,2,2.4,2.5
			c1,0.6,2.1,0.9,3.3,0.9c1.2,0,2.3-0.3,3.3-0.9c1-0.6,1.8-1.4,2.4-2.5c0.6-1.1,0.9-2.4,0.9-3.9C297.2,516,296.9,514.7,296.3,513.6z
			"/>
		<path class="st0" d="M333.7,508.3c1.2,0.6,2.1,1.6,2.8,2.8c0.7,1.3,1,2.8,1,4.6v11.6h-3.2v-11.1c0-2-0.5-3.5-1.4-4.5
			c-1-1-2.3-1.6-3.9-1.6c-1.7,0-3,0.5-4,1.6c-1,1.1-1.5,2.7-1.5,4.7v10.8h-3.2v-11.1c0-2-0.5-3.5-1.4-4.5c-1-1-2.3-1.6-3.9-1.6
			c-1.7,0-3,0.5-4,1.6c-1,1.1-1.5,2.7-1.5,4.7v10.8H306v-19.6h3.3v2.8c0.6-1,1.5-1.8,2.6-2.4c1.1-0.5,2.3-0.8,3.6-0.8
			c1.6,0,3.1,0.4,4.4,1.1c1.3,0.7,2.2,1.8,2.8,3.3c0.5-1.4,1.5-2.5,2.7-3.2c1.3-0.8,2.7-1.1,4.2-1.1
			C331.2,507.3,332.5,507.6,333.7,508.3z"/>
		<path class="st0" d="M343,503.9c-0.4-0.4-0.6-1-0.6-1.6s0.2-1.1,0.6-1.6c0.4-0.4,1-0.6,1.6-0.6c0.6,0,1.1,0.2,1.5,0.6
			c0.4,0.4,0.6,1,0.6,1.6s-0.2,1.1-0.6,1.6s-0.9,0.6-1.5,0.6C344,504.5,343.4,504.3,343,503.9z M346.2,507.7v19.6h-3.3v-19.6H346.2z
			"/>
		<path class="st0" d="M367.1,509.5c1.5,1.4,2.2,3.5,2.2,6.2v11.6h-3.2v-11.1c0-2-0.5-3.5-1.5-4.5s-2.3-1.6-4-1.6
			c-1.7,0-3.1,0.5-4.1,1.6c-1,1.1-1.5,2.6-1.5,4.7v10.8h-3.3v-19.6h3.3v2.8c0.6-1,1.5-1.8,2.6-2.3c1.1-0.5,2.3-0.8,3.7-0.8
			C363.7,507.3,365.6,508.1,367.1,509.5z"/>
		<path class="st0" d="M374.7,503.9c-0.4-0.4-0.6-1-0.6-1.6s0.2-1.1,0.6-1.6c0.4-0.4,1-0.6,1.6-0.6c0.6,0,1.1,0.2,1.5,0.6
			c0.4,0.4,0.6,1,0.6,1.6s-0.2,1.1-0.6,1.6s-0.9,0.6-1.5,0.6C375.7,504.5,375.2,504.3,374.7,503.9z M377.9,507.7v19.6h-3.3v-19.6
			H377.9z"/>
		<path class="st0" d="M386.3,526.9c-1.2-0.5-2.1-1.2-2.8-2.1c-0.7-0.9-1.1-2-1.1-3.2h3.4c0.1,1,0.6,1.8,1.4,2.4
			c0.8,0.6,1.9,0.9,3.2,0.9c1.2,0,2.2-0.3,2.9-0.8c0.7-0.5,1.1-1.2,1.1-2.1c0-0.9-0.4-1.5-1.1-1.9c-0.8-0.4-1.9-0.8-3.5-1.2
			c-1.5-0.4-2.6-0.8-3.6-1.2c-0.9-0.4-1.7-1-2.4-1.8c-0.7-0.8-1-1.8-1-3.1c0-1,0.3-1.9,0.9-2.8c0.6-0.8,1.4-1.5,2.5-2
			c1.1-0.5,2.3-0.7,3.8-0.7c2.2,0,3.9,0.5,5.3,1.6c1.3,1.1,2.1,2.6,2.1,4.5h-3.3c-0.1-1-0.5-1.8-1.2-2.5c-0.8-0.6-1.8-0.9-3-0.9
			c-1.2,0-2.1,0.3-2.8,0.8c-0.7,0.5-1,1.2-1,2c0,0.6,0.2,1.2,0.6,1.6c0.4,0.4,0.9,0.8,1.6,1c0.6,0.3,1.5,0.5,2.6,0.8
			c1.4,0.4,2.6,0.8,3.4,1.1c0.9,0.4,1.6,0.9,2.3,1.7c0.6,0.7,1,1.7,1,2.9c0,1.1-0.3,2-0.9,2.9c-0.6,0.9-1.4,1.5-2.5,2
			c-1.1,0.5-2.3,0.7-3.7,0.7C388.9,527.6,387.5,527.4,386.3,526.9z"/>
		<path class="st0" d="M406.1,510.4v11.6c0,1,0.2,1.6,0.6,2c0.4,0.4,1.1,0.6,2.1,0.6h2.4v2.8h-2.9c-1.8,0-3.2-0.4-4.1-1.3
			c-0.9-0.8-1.4-2.2-1.4-4.1v-11.6h-2.5v-2.7h2.5v-4.9h3.3v4.9h5.1v2.7H406.1z"/>
		<path class="st0" d="M420.9,508.3c1.1-0.6,2.4-0.9,3.9-0.9v3.4h-0.9c-3.7,0-5.5,2-5.5,5.9v10.7h-3.3v-19.6h3.3v3.2
			C419,509.8,419.8,508.9,420.9,508.3z"/>
		<path class="st0" d="M428.5,512.1c0.8-1.5,1.9-2.7,3.3-3.5s3-1.3,4.7-1.3c1.7,0,3.2,0.4,4.5,1.1c1.3,0.7,2.2,1.7,2.8,2.8v-3.6h3.3
			v19.6h-3.3v-3.7c-0.6,1.1-1.6,2.1-2.9,2.8c-1.3,0.8-2.8,1.1-4.5,1.1c-1.7,0-3.3-0.4-4.7-1.3c-1.4-0.9-2.5-2.1-3.3-3.6
			c-0.8-1.5-1.2-3.3-1.2-5.3C427.3,515.4,427.7,513.7,428.5,512.1z M443,513.6c-0.6-1.1-1.4-1.9-2.4-2.5c-1-0.6-2.1-0.9-3.3-0.9
			c-1.2,0-2.3,0.3-3.3,0.9s-1.8,1.4-2.4,2.5c-0.6,1.1-0.9,2.4-0.9,3.9c0,1.5,0.3,2.8,0.9,3.9c0.6,1.1,1.4,2,2.4,2.5
			c1,0.6,2.1,0.9,3.3,0.9c1.2,0,2.3-0.3,3.3-0.9c1-0.6,1.8-1.4,2.4-2.5c0.6-1.1,0.9-2.4,0.9-3.9C443.9,516,443.6,514.7,443,513.6z"
			/>
		<path class="st0" d="M456.7,510.4v11.6c0,1,0.2,1.6,0.6,2c0.4,0.4,1.1,0.6,2.1,0.6h2.4v2.8h-2.9c-1.8,0-3.2-0.4-4.1-1.3
			c-0.9-0.8-1.4-2.2-1.4-4.1v-11.6h-2.5v-2.7h2.5v-4.9h3.3v4.9h5.1v2.7H456.7z"/>
		<path class="st0" d="M465.8,503.9c-0.4-0.4-0.6-1-0.6-1.6s0.2-1.1,0.6-1.6c0.4-0.4,1-0.6,1.6-0.6c0.6,0,1.1,0.2,1.5,0.6
			c0.4,0.4,0.6,1,0.6,1.6s-0.2,1.1-0.6,1.6s-0.9,0.6-1.5,0.6C466.8,504.5,466.3,504.3,465.8,503.9z M469,507.7v19.6h-3.3v-19.6H469z
			"/>
		<path class="st0" d="M478.1,526.4c-1.5-0.8-2.7-2-3.5-3.6c-0.8-1.5-1.3-3.3-1.3-5.4c0-2,0.4-3.8,1.3-5.3c0.9-1.5,2.1-2.7,3.6-3.5
			c1.5-0.8,3.2-1.2,5-1.2s3.5,0.4,5,1.2c1.5,0.8,2.7,2,3.6,3.5c0.9,1.5,1.3,3.3,1.3,5.3c0,2-0.4,3.8-1.3,5.4
			c-0.9,1.5-2.1,2.7-3.6,3.6c-1.5,0.8-3.2,1.3-5.1,1.3C481.3,527.6,479.6,527.2,478.1,526.4z M486.4,523.9c1-0.5,1.9-1.4,2.5-2.5
			c0.6-1.1,0.9-2.4,0.9-4c0-1.6-0.3-2.9-0.9-4c-0.6-1.1-1.4-1.9-2.4-2.5c-1-0.5-2.1-0.8-3.3-0.8c-1.2,0-2.3,0.3-3.3,0.8
			c-1,0.5-1.8,1.4-2.4,2.5c-0.6,1.1-0.9,2.4-0.9,4c0,1.6,0.3,2.9,0.9,4c0.6,1.1,1.4,1.9,2.3,2.5c1,0.5,2.1,0.8,3.2,0.8
			C484.3,524.8,485.4,524.5,486.4,523.9z"/>
		<path class="st0" d="M512.8,509.5c1.5,1.4,2.2,3.5,2.2,6.2v11.6h-3.2v-11.1c0-2-0.5-3.5-1.5-4.5c-1-1-2.3-1.6-4-1.6
			c-1.7,0-3.1,0.5-4.1,1.6c-1,1.1-1.5,2.6-1.5,4.7v10.8h-3.3v-19.6h3.3v2.8c0.6-1,1.5-1.8,2.6-2.3c1.1-0.5,2.3-0.8,3.7-0.8
			C509.4,507.3,511.3,508.1,512.8,509.5z"/>
		<path class="st0" d="M537.9,510.4h-4.1v16.9h-3.3v-16.9H528v-2.7h2.5v-1.4c0-2.2,0.6-3.8,1.7-4.8c1.1-1,3-1.5,5.5-1.5v2.7
			c-1.4,0-2.4,0.3-3,0.8c-0.6,0.6-0.9,1.5-0.9,2.8v1.4h4.1V510.4z"/>
		<path class="st0" d="M545.3,526.4c-1.5-0.8-2.7-2-3.5-3.6c-0.8-1.5-1.3-3.3-1.3-5.4c0-2,0.4-3.8,1.3-5.3c0.9-1.5,2.1-2.7,3.6-3.5
			c1.5-0.8,3.2-1.2,5-1.2c1.9,0,3.5,0.4,5,1.2c1.5,0.8,2.7,2,3.6,3.5c0.9,1.5,1.3,3.3,1.3,5.3c0,2-0.4,3.8-1.3,5.4
			c-0.9,1.5-2.1,2.7-3.6,3.6c-1.5,0.8-3.2,1.3-5.1,1.3C548.4,527.6,546.7,527.2,545.3,526.4z M553.5,523.9c1-0.5,1.9-1.4,2.5-2.5
			c0.6-1.1,0.9-2.4,0.9-4c0-1.6-0.3-2.9-0.9-4c-0.6-1.1-1.4-1.9-2.4-2.5c-1-0.5-2.1-0.8-3.3-0.8c-1.2,0-2.3,0.3-3.3,0.8
			c-1,0.5-1.8,1.4-2.4,2.5c-0.6,1.1-0.9,2.4-0.9,4c0,1.6,0.3,2.9,0.9,4c0.6,1.1,1.4,1.9,2.3,2.5c1,0.5,2.1,0.8,3.2,0.8
			C551.4,524.8,552.5,524.5,553.5,523.9z"/>
		<path class="st0" d="M570.3,508.3c1.1-0.6,2.4-0.9,3.9-0.9v3.4h-0.9c-3.7,0-5.5,2-5.5,5.9v10.7h-3.3v-19.6h3.3v3.2
			C568.4,509.8,569.3,508.9,570.3,508.3z"/>
		<path class="st0" d="M272,546.8c2,1,3.5,2.5,4.6,4.3c1.1,1.9,1.6,4.1,1.6,6.7c0,2.6-0.5,4.8-1.6,6.6c-1.1,1.9-2.6,3.3-4.6,4.3
			c-2,1-4.3,1.5-7.1,1.5h-7.8v-25h7.8C267.7,545.3,270,545.8,272,546.8z M272.3,565c1.7-1.7,2.5-4.1,2.5-7.2c0-3.1-0.9-5.5-2.6-7.3
			c-1.7-1.7-4.2-2.6-7.4-2.6h-4.5v19.6h4.5C268.2,567.6,270.6,566.7,272.3,565z"/>
		<path class="st0" d="M283.6,546.8c-0.4-0.4-0.6-1-0.6-1.6c0-0.6,0.2-1.1,0.6-1.6c0.4-0.4,1-0.6,1.6-0.6c0.6,0,1.1,0.2,1.5,0.6
			c0.4,0.4,0.6,1,0.6,1.6c0,0.6-0.2,1.1-0.6,1.6s-0.9,0.6-1.5,0.6C284.5,547.5,284,547.2,283.6,546.8z M286.7,550.6v19.6h-3.3v-19.6
			H286.7z"/>
		<path class="st0" d="M305.8,551.4c1.3,0.7,2.2,1.7,2.8,2.8v-3.6h3.3v20c0,1.8-0.4,3.4-1.1,4.8c-0.8,1.4-1.9,2.5-3.3,3.3
			c-1.4,0.8-3.1,1.2-5,1.2c-2.6,0-4.7-0.6-6.4-1.8c-1.7-1.2-2.7-2.9-3-5h3.2c0.4,1.2,1.1,2.2,2.2,2.9c1.1,0.7,2.5,1.1,4,1.1
			c1.8,0,3.3-0.6,4.4-1.7c1.1-1.1,1.7-2.7,1.7-4.7v-4.1c-0.6,1.1-1.6,2.1-2.9,2.9c-1.3,0.8-2.7,1.1-4.4,1.1c-1.7,0-3.3-0.4-4.7-1.3
			s-2.5-2.1-3.3-3.6c-0.8-1.5-1.2-3.3-1.2-5.3c0-2,0.4-3.8,1.2-5.3c0.8-1.5,1.9-2.7,3.3-3.5s3-1.3,4.7-1.3
			C303,550.3,304.5,550.7,305.8,551.4z M307.7,556.6c-0.6-1.1-1.4-1.9-2.4-2.5c-1-0.6-2.1-0.9-3.3-0.9s-2.3,0.3-3.3,0.9
			c-1,0.6-1.8,1.4-2.4,2.5c-0.6,1.1-0.9,2.4-0.9,3.9c0,1.5,0.3,2.8,0.9,3.9c0.6,1.1,1.4,2,2.4,2.5c1,0.6,2.1,0.9,3.3,0.9
			s2.3-0.3,3.3-0.9c1-0.6,1.8-1.4,2.4-2.5c0.6-1.1,0.9-2.4,0.9-3.9C308.6,558.9,308.3,557.7,307.7,556.6z"/>
		<path class="st0" d="M318.5,546.8c-0.4-0.4-0.6-1-0.6-1.6c0-0.6,0.2-1.1,0.6-1.6c0.4-0.4,1-0.6,1.6-0.6c0.6,0,1.1,0.2,1.5,0.6
			c0.4,0.4,0.6,1,0.6,1.6c0,0.6-0.2,1.1-0.6,1.6s-0.9,0.6-1.5,0.6C319.4,547.5,318.9,547.2,318.5,546.8z M321.6,550.6v19.6h-3.3
			v-19.6H321.6z"/>
		<path class="st0" d="M332.1,553.3v11.6c0,1,0.2,1.6,0.6,2c0.4,0.4,1.1,0.6,2.1,0.6h2.4v2.8h-2.9c-1.8,0-3.2-0.4-4.1-1.3
			c-0.9-0.8-1.4-2.2-1.4-4.1v-11.6h-2.5v-2.7h2.5v-4.9h3.3v4.9h5.1v2.7H332.1z"/>
		<path class="st0" d="M342.2,555.1c0.8-1.5,1.9-2.7,3.3-3.5s3-1.3,4.7-1.3c1.7,0,3.2,0.4,4.5,1.1c1.3,0.7,2.2,1.7,2.8,2.8v-3.6h3.3
			v19.6h-3.3v-3.7c-0.6,1.1-1.6,2.1-2.9,2.8c-1.3,0.8-2.8,1.1-4.5,1.1c-1.7,0-3.3-0.4-4.7-1.3c-1.4-0.9-2.5-2.1-3.3-3.6
			c-0.8-1.5-1.2-3.3-1.2-5.3C340.9,558.4,341.3,556.6,342.2,555.1z M356.7,556.6c-0.6-1.1-1.4-1.9-2.4-2.5c-1-0.6-2.1-0.9-3.3-0.9
			s-2.3,0.3-3.3,0.9c-1,0.6-1.8,1.4-2.4,2.5c-0.6,1.1-0.9,2.4-0.9,3.9c0,1.5,0.3,2.8,0.9,3.9c0.6,1.1,1.4,2,2.4,2.5
			c1,0.6,2.1,0.9,3.3,0.9s2.3-0.3,3.3-0.9c1-0.6,1.8-1.4,2.4-2.5c0.6-1.1,0.9-2.4,0.9-3.9C357.5,558.9,357.2,557.7,356.7,556.6z"/>
		<path class="st0" d="M370.6,543.8v26.5h-3.3v-26.5H370.6z"/>
		<path class="st0" d="M390.9,545.3v25h-3.3v-25H390.9z"/>
		<path class="st0" d="M412.7,552.5c1.5,1.4,2.2,3.5,2.2,6.2v11.6h-3.2v-11.1c0-2-0.5-3.5-1.5-4.5c-1-1-2.3-1.6-4-1.6
			c-1.7,0-3.1,0.5-4.1,1.6c-1,1.1-1.5,2.6-1.5,4.7v10.8h-3.3v-19.6h3.3v2.8c0.6-1,1.5-1.8,2.6-2.3c1.1-0.5,2.3-0.8,3.7-0.8
			C409.3,550.3,411.3,551,412.7,552.5z"/>
		<path class="st0" d="M421.3,555.1c0.8-1.5,1.9-2.7,3.3-3.5s3-1.3,4.8-1.3c1.5,0,2.9,0.4,4.3,1.1c1.3,0.7,2.3,1.6,3,2.8v-10.4h3.3
			v26.5h-3.3v-3.7c-0.6,1.2-1.6,2.1-2.9,2.9c-1.3,0.8-2.7,1.1-4.4,1.1c-1.7,0-3.3-0.4-4.7-1.3s-2.5-2.1-3.3-3.6
			c-0.8-1.5-1.2-3.3-1.2-5.3C420.1,558.4,420.5,556.6,421.3,555.1z M435.8,556.6c-0.6-1.1-1.4-1.9-2.4-2.5c-1-0.6-2.1-0.9-3.3-0.9
			s-2.3,0.3-3.3,0.9c-1,0.6-1.8,1.4-2.4,2.5c-0.6,1.1-0.9,2.4-0.9,3.9c0,1.5,0.3,2.8,0.9,3.9c0.6,1.1,1.4,2,2.4,2.5
			c1,0.6,2.1,0.9,3.3,0.9s2.3-0.3,3.3-0.9c1-0.6,1.8-1.4,2.4-2.5c0.6-1.1,0.9-2.4,0.9-3.9C436.7,558.9,436.4,557.7,435.8,556.6z"/>
		<path class="st0" d="M463.8,550.6v19.6h-3.3v-2.9c-0.6,1-1.5,1.8-2.6,2.3c-1.1,0.6-2.3,0.8-3.7,0.8c-1.5,0-2.9-0.3-4.1-0.9
			c-1.2-0.6-2.2-1.6-2.9-2.8c-0.7-1.3-1.1-2.8-1.1-4.6v-11.5h3.2v11.1c0,1.9,0.5,3.4,1.5,4.5c1,1,2.3,1.6,4,1.6
			c1.7,0,3.1-0.5,4.1-1.6c1-1.1,1.5-2.6,1.5-4.7v-10.8H463.8z"/>
		<path class="st0" d="M473.2,569.8c-1.2-0.5-2.1-1.2-2.8-2.1c-0.7-0.9-1.1-2-1.1-3.2h3.4c0.1,1,0.6,1.8,1.4,2.4
			c0.8,0.6,1.9,0.9,3.2,0.9c1.2,0,2.2-0.3,2.9-0.8c0.7-0.5,1.1-1.2,1.1-2.1c0-0.9-0.4-1.5-1.1-1.9c-0.8-0.4-1.9-0.8-3.5-1.2
			c-1.5-0.4-2.6-0.8-3.6-1.2c-0.9-0.4-1.7-1-2.4-1.8c-0.7-0.8-1-1.8-1-3.1c0-1,0.3-1.9,0.9-2.8c0.6-0.8,1.4-1.5,2.5-2
			c1.1-0.5,2.3-0.7,3.8-0.7c2.2,0,3.9,0.5,5.3,1.6c1.3,1.1,2.1,2.6,2.1,4.5H481c-0.1-1-0.5-1.8-1.2-2.5c-0.8-0.6-1.8-0.9-3-0.9
			c-1.2,0-2.1,0.3-2.8,0.8c-0.7,0.5-1,1.2-1,2c0,0.6,0.2,1.2,0.6,1.6c0.4,0.4,0.9,0.8,1.6,1c0.6,0.3,1.5,0.5,2.6,0.8
			c1.4,0.4,2.6,0.8,3.4,1.1c0.9,0.4,1.6,0.9,2.3,1.7c0.6,0.7,1,1.7,1,2.9c0,1.1-0.3,2-0.9,2.9c-0.6,0.9-1.4,1.5-2.5,2
			c-1.1,0.5-2.3,0.7-3.7,0.7C475.8,570.6,474.4,570.3,473.2,569.8z"/>
		<path class="st0" d="M493.9,553.3v11.6c0,1,0.2,1.6,0.6,2c0.4,0.4,1.1,0.6,2.1,0.6h2.4v2.8h-2.9c-1.8,0-3.2-0.4-4.1-1.3
			c-0.9-0.8-1.4-2.2-1.4-4.1v-11.6h-2.5v-2.7h2.5v-4.9h3.3v4.9h5.1v2.7H493.9z"/>
		<path class="st0" d="M509.7,551.2c1.1-0.6,2.4-0.9,3.9-0.9v3.4h-0.9c-3.7,0-5.5,2-5.5,5.9v10.7H504v-19.6h3.3v3.2
			C507.8,552.7,508.6,551.8,509.7,551.2z"/>
		<path class="st0" d="M518.4,546.8c-0.4-0.4-0.6-1-0.6-1.6c0-0.6,0.2-1.1,0.6-1.6c0.4-0.4,1-0.6,1.6-0.6c0.6,0,1.1,0.2,1.5,0.6
			c0.4,0.4,0.6,1,0.6,1.6c0,0.6-0.2,1.1-0.6,1.6s-0.9,0.6-1.5,0.6C519.3,547.5,518.8,547.2,518.4,546.8z M521.5,550.6v19.6h-3.3
			v-19.6H521.5z"/>
		<path class="st0" d="M545.8,561.7h-15.7c0.1,1.9,0.8,3.4,2,4.5c1.2,1.1,2.7,1.6,4.4,1.6c1.4,0,2.6-0.3,3.5-1
			c0.9-0.7,1.6-1.5,2-2.6h3.5c-0.5,1.9-1.6,3.4-3.1,4.6c-1.6,1.2-3.5,1.8-5.9,1.8c-1.9,0-3.5-0.4-5-1.3c-1.5-0.8-2.6-2-3.5-3.6
			c-0.8-1.5-1.3-3.3-1.3-5.4c0-2,0.4-3.8,1.2-5.3c0.8-1.5,2-2.7,3.4-3.5c1.5-0.8,3.2-1.2,5.1-1.2c1.9,0,3.5,0.4,4.9,1.2
			c1.4,0.8,2.5,1.9,3.3,3.3c0.8,1.4,1.2,3,1.2,4.8C546,560.3,545.9,561,545.8,561.7z M541.8,555.8c-0.5-0.9-1.3-1.6-2.2-2
			c-0.9-0.5-2-0.7-3.1-0.7c-1.6,0-3,0.5-4.2,1.6c-1.2,1.1-1.8,2.5-2,4.4h12.4C542.6,557.8,542.3,556.7,541.8,555.8z"/>
		<path class="st0" d="M554.1,569.8c-1.2-0.5-2.1-1.2-2.8-2.1c-0.7-0.9-1.1-2-1.1-3.2h3.4c0.1,1,0.6,1.8,1.4,2.4
			c0.8,0.6,1.9,0.9,3.2,0.9c1.2,0,2.2-0.3,2.9-0.8c0.7-0.5,1.1-1.2,1.1-2.1c0-0.9-0.4-1.5-1.1-1.9c-0.8-0.4-1.9-0.8-3.5-1.2
			c-1.5-0.4-2.6-0.8-3.6-1.2c-0.9-0.4-1.7-1-2.4-1.8c-0.7-0.8-1-1.8-1-3.1c0-1,0.3-1.9,0.9-2.8c0.6-0.8,1.4-1.5,2.5-2
			c1.1-0.5,2.3-0.7,3.8-0.7c2.2,0,3.9,0.5,5.3,1.6c1.3,1.1,2.1,2.6,2.1,4.5h-3.3c-0.1-1-0.5-1.8-1.2-2.5c-0.8-0.6-1.8-0.9-3-0.9
			c-1.2,0-2.1,0.3-2.8,0.8c-0.7,0.5-1,1.2-1,2c0,0.6,0.2,1.2,0.6,1.6c0.4,0.4,0.9,0.8,1.6,1c0.6,0.3,1.5,0.5,2.6,0.8
			c1.4,0.4,2.6,0.8,3.4,1.1c0.9,0.4,1.6,0.9,2.3,1.7c0.6,0.7,1,1.7,1,2.9c0,1.1-0.3,2-0.9,2.9c-0.6,0.9-1.4,1.5-2.5,2
			c-1.1,0.5-2.3,0.7-3.7,0.7C556.7,570.6,555.3,570.3,554.1,569.8z"/>
		<path class="st0" d="M574.2,565.8l-4,9.6H568l2.6-9.6H574.2z"/>
		<path class="st0" d="M177.4,588.4v24.8h-3.3v-18.5l-8.2,18.5h-2.3l-8.3-18.5v18.5h-3.3v-24.8h3.5l9.2,20.5l9.2-20.5H177.4z"/>
		<path class="st0" d="M183.1,589.8c-0.4-0.4-0.6-1-0.6-1.6c0-0.6,0.2-1.1,0.6-1.6c0.4-0.4,1-0.6,1.6-0.6c0.6,0,1.1,0.2,1.5,0.6
			c0.4,0.4,0.6,1,0.6,1.6c0,0.6-0.2,1.1-0.6,1.6s-0.9,0.6-1.5,0.6C184,590.4,183.5,590.2,183.1,589.8z M186.2,593.6v19.6H183v-19.6
			H186.2z"/>
		<path class="st0" d="M207.1,595.4c1.5,1.4,2.2,3.5,2.2,6.2v11.6h-3.2v-11.1c0-2-0.5-3.5-1.5-4.5c-1-1-2.3-1.6-4-1.6
			c-1.7,0-3.1,0.5-4.1,1.6c-1,1.1-1.5,2.6-1.5,4.7v10.8h-3.3v-19.6h3.3v2.8c0.6-1,1.5-1.8,2.6-2.3c1.1-0.5,2.3-0.8,3.7-0.8
			C203.7,593.2,205.6,594,207.1,595.4z"/>
		<path class="st0" d="M214.8,589.8c-0.4-0.4-0.6-1-0.6-1.6c0-0.6,0.2-1.1,0.6-1.6c0.4-0.4,1-0.6,1.6-0.6c0.6,0,1.1,0.2,1.5,0.6
			c0.4,0.4,0.6,1,0.6,1.6c0,0.6-0.2,1.1-0.6,1.6s-0.9,0.6-1.5,0.6C215.7,590.4,215.2,590.2,214.8,589.8z M217.9,593.6v19.6h-3.3
			v-19.6H217.9z"/>
		<path class="st0" d="M226.4,612.8c-1.2-0.5-2.1-1.2-2.8-2.1c-0.7-0.9-1.1-2-1.1-3.2h3.4c0.1,1,0.6,1.8,1.4,2.4
			c0.8,0.6,1.9,0.9,3.2,0.9c1.2,0,2.2-0.3,2.9-0.8c0.7-0.5,1.1-1.2,1.1-2.1c0-0.9-0.4-1.5-1.1-1.9c-0.8-0.4-1.9-0.8-3.5-1.2
			c-1.5-0.4-2.6-0.8-3.6-1.2c-0.9-0.4-1.7-1-2.4-1.8c-0.7-0.8-1-1.8-1-3.1c0-1,0.3-1.9,0.9-2.8c0.6-0.8,1.4-1.5,2.5-2
			c1.1-0.5,2.3-0.7,3.8-0.7c2.2,0,3.9,0.5,5.3,1.6c1.3,1.1,2.1,2.6,2.1,4.5h-3.3c-0.1-1-0.5-1.8-1.2-2.5c-0.8-0.6-1.8-0.9-3-0.9
			c-1.2,0-2.1,0.3-2.8,0.8c-0.7,0.5-1,1.2-1,2c0,0.6,0.2,1.2,0.6,1.6c0.4,0.4,0.9,0.8,1.6,1c0.6,0.3,1.5,0.5,2.6,0.8
			c1.4,0.4,2.6,0.8,3.4,1.1c0.9,0.4,1.6,0.9,2.3,1.7c0.6,0.7,1,1.7,1,2.9c0,1.1-0.3,2-0.9,2.9c-0.6,0.9-1.4,1.5-2.5,2
			c-1.1,0.5-2.3,0.7-3.7,0.7C228.9,613.5,227.6,613.3,226.4,612.8z"/>
		<path class="st0" d="M246.1,596.3v11.6c0,1,0.2,1.6,0.6,2c0.4,0.4,1.1,0.6,2.1,0.6h2.4v2.8h-2.9c-1.8,0-3.2-0.4-4.1-1.3
			c-0.9-0.8-1.4-2.2-1.4-4.1v-11.6h-2.5v-2.7h2.5v-4.9h3.3v4.9h5.1v2.7H246.1z"/>
		<path class="st0" d="M260.9,594.2c1.1-0.6,2.4-0.9,3.9-0.9v3.4h-0.9c-3.7,0-5.5,2-5.5,5.9v10.7h-3.3v-19.6h3.3v3.2
			C259,595.7,259.8,594.8,260.9,594.2z"/>
		<path class="st0" d="M285.5,593.6l-11.8,28.9h-3.4l3.9-9.5l-7.9-19.4h3.6l6.2,15.9l6.1-15.9H285.5z"/>
		<path class="st0" d="M301.8,612.3c-1.5-0.8-2.7-2-3.5-3.6c-0.8-1.5-1.3-3.3-1.3-5.4c0-2,0.4-3.8,1.3-5.3c0.9-1.5,2.1-2.7,3.6-3.5
			c1.5-0.8,3.2-1.2,5-1.2s3.5,0.4,5,1.2c1.5,0.8,2.7,2,3.6,3.5c0.9,1.5,1.3,3.3,1.3,5.3c0,2-0.4,3.8-1.3,5.4
			c-0.9,1.5-2.1,2.7-3.6,3.6c-1.5,0.8-3.2,1.3-5.1,1.3C305,613.5,303.3,613.1,301.8,612.3z M310.1,609.9c1-0.5,1.9-1.4,2.5-2.5
			s0.9-2.4,0.9-4c0-1.6-0.3-2.9-0.9-4c-0.6-1.1-1.4-1.9-2.4-2.5c-1-0.5-2.1-0.8-3.3-0.8c-1.2,0-2.3,0.3-3.3,0.8
			c-1,0.5-1.8,1.4-2.4,2.5c-0.6,1.1-0.9,2.4-0.9,4c0,1.6,0.3,2.9,0.9,4c0.6,1.1,1.4,1.9,2.3,2.5c1,0.5,2.1,0.8,3.2,0.8
			C308,610.7,309.1,610.4,310.1,609.9z"/>
		<path class="st0" d="M329.2,596.3H325v16.9h-3.3v-16.9h-2.5v-2.7h2.5v-1.4c0-2.2,0.6-3.8,1.7-4.8c1.1-1,3-1.5,5.5-1.5v2.7
			c-1.4,0-2.4,0.3-3,0.8c-0.6,0.6-0.9,1.5-0.9,2.8v1.4h4.1V596.3z"/>
		<path class="st0" d="M357.3,589.8c2,1,3.5,2.5,4.6,4.3c1.1,1.9,1.6,4.1,1.6,6.7c0,2.6-0.5,4.8-1.6,6.6c-1.1,1.9-2.6,3.3-4.6,4.3
			c-2,1-4.3,1.5-7.1,1.5h-7.8v-25h7.8C353,588.3,355.4,588.8,357.3,589.8z M357.7,608c1.7-1.7,2.5-4.1,2.5-7.2
			c0-3.1-0.9-5.5-2.6-7.3c-1.7-1.7-4.2-2.6-7.4-2.6h-4.5v19.6h4.5C353.5,610.5,356,609.7,357.7,608z"/>
		<path class="st0" d="M367.9,589.8c-0.4-0.4-0.6-1-0.6-1.6c0-0.6,0.2-1.1,0.6-1.6c0.4-0.4,1-0.6,1.6-0.6c0.6,0,1.1,0.2,1.5,0.6
			c0.4,0.4,0.6,1,0.6,1.6c0,0.6-0.2,1.1-0.6,1.6s-0.9,0.6-1.5,0.6C368.9,590.4,368.4,590.2,367.9,589.8z M371.1,593.6v19.6h-3.3
			v-19.6H371.1z"/>
		<path class="st0" d="M389.2,594.4c1.3,0.7,2.2,1.7,2.8,2.8v-3.6h3.3v20c0,1.8-0.4,3.4-1.1,4.8c-0.8,1.4-1.9,2.5-3.3,3.3
			c-1.4,0.8-3.1,1.2-5,1.2c-2.6,0-4.7-0.6-6.4-1.8c-1.7-1.2-2.7-2.9-3-5h3.2c0.4,1.2,1.1,2.2,2.2,2.9c1.1,0.7,2.5,1.1,4,1.1
			c1.8,0,3.3-0.6,4.4-1.7c1.1-1.1,1.7-2.7,1.7-4.7v-4.1c-0.6,1.1-1.6,2.1-2.9,2.9c-1.3,0.8-2.7,1.1-4.4,1.1c-1.7,0-3.3-0.4-4.7-1.3
			s-2.5-2.1-3.3-3.6c-0.8-1.5-1.2-3.3-1.2-5.3c0-2,0.4-3.8,1.2-5.3c0.8-1.5,1.9-2.7,3.3-3.5s3-1.3,4.7-1.3
			C386.4,593.3,387.9,593.7,389.2,594.4z M391.1,599.5c-0.6-1.1-1.4-1.9-2.4-2.5c-1-0.6-2.1-0.9-3.3-0.9s-2.3,0.3-3.3,0.9
			s-1.8,1.4-2.4,2.5c-0.6,1.1-0.9,2.4-0.9,3.9c0,1.5,0.3,2.8,0.9,3.9c0.6,1.1,1.4,2,2.4,2.5c1,0.6,2.1,0.9,3.3,0.9s2.3-0.3,3.3-0.9
			c1-0.6,1.8-1.4,2.4-2.5c0.6-1.1,0.9-2.4,0.9-3.9C392,601.9,391.7,600.6,391.1,599.5z"/>
		<path class="st0" d="M400.9,589.8c-0.4-0.4-0.6-1-0.6-1.6c0-0.6,0.2-1.1,0.6-1.6c0.4-0.4,1-0.6,1.6-0.6c0.6,0,1.1,0.2,1.5,0.6
			c0.4,0.4,0.6,1,0.6,1.6c0,0.6-0.2,1.1-0.6,1.6s-0.9,0.6-1.5,0.6C401.9,590.4,401.4,590.2,400.9,589.8z M404.1,593.6v19.6h-3.3
			v-19.6H404.1z"/>
		<path class="st0" d="M413.6,596.3v11.6c0,1,0.2,1.6,0.6,2c0.4,0.4,1.1,0.6,2.1,0.6h2.4v2.8h-2.9c-1.8,0-3.2-0.4-4.1-1.3
			c-0.9-0.8-1.4-2.2-1.4-4.1v-11.6h-2.5v-2.7h2.5v-4.9h3.3v4.9h5.1v2.7H413.6z"/>
		<path class="st0" d="M422.7,598.1c0.8-1.5,1.9-2.7,3.3-3.5s3-1.3,4.7-1.3c1.7,0,3.2,0.4,4.5,1.1c1.3,0.7,2.2,1.7,2.8,2.8v-3.6h3.3
			v19.6h-3.3v-3.7c-0.6,1.1-1.6,2.1-2.9,2.8c-1.3,0.8-2.8,1.1-4.5,1.1c-1.7,0-3.3-0.4-4.7-1.3c-1.4-0.9-2.5-2.1-3.3-3.6
			c-0.8-1.5-1.2-3.3-1.2-5.3C421.4,601.3,421.9,599.6,422.7,598.1z M437.2,599.5c-0.6-1.1-1.4-1.9-2.4-2.5c-1-0.6-2.1-0.9-3.3-0.9
			c-1.2,0-2.3,0.3-3.3,0.9s-1.8,1.4-2.4,2.5c-0.6,1.1-0.9,2.4-0.9,3.9c0,1.5,0.3,2.8,0.9,3.9c0.6,1.1,1.4,2,2.4,2.5
			c1,0.6,2.1,0.9,3.3,0.9c1.2,0,2.3-0.3,3.3-0.9c1-0.6,1.8-1.4,2.4-2.5c0.6-1.1,0.9-2.4,0.9-3.9
			C438.1,601.9,437.8,600.6,437.2,599.5z"/>
		<path class="st0" d="M450.1,586.7v26.5h-3.3v-26.5H450.1z"/>
		<path class="st0" d="M480,607.7h-10.9l-2,5.5h-3.4l9-24.8h3.8l9,24.8H482L480,607.7z M479,605l-4.5-12.6L470,605H479z"/>
		<path class="st0" d="M497.3,596.3h-4.1v16.9H490v-16.9h-2.5v-2.7h2.5v-1.4c0-2.2,0.6-3.8,1.7-4.8c1.1-1,3-1.5,5.5-1.5v2.7
			c-1.4,0-2.4,0.3-3,0.8c-0.6,0.6-0.9,1.5-0.9,2.8v1.4h4.1V596.3z"/>
		<path class="st0" d="M509.1,596.3H505v16.9h-3.3v-16.9h-2.5v-2.7h2.5v-1.4c0-2.2,0.6-3.8,1.7-4.8c1.1-1,3-1.5,5.5-1.5v2.7
			c-1.4,0-2.4,0.3-3,0.8c-0.6,0.6-0.9,1.5-0.9,2.8v1.4h4.1V596.3z"/>
		<path class="st0" d="M512.9,598.1c0.8-1.5,1.9-2.7,3.3-3.5c1.4-0.8,3-1.3,4.7-1.3c1.7,0,3.2,0.4,4.5,1.1c1.3,0.7,2.2,1.7,2.8,2.8
			v-3.6h3.3v19.6h-3.3v-3.7c-0.6,1.1-1.6,2.1-2.9,2.8c-1.3,0.8-2.8,1.1-4.5,1.1c-1.7,0-3.3-0.4-4.7-1.3c-1.4-0.9-2.5-2.1-3.3-3.6
			c-0.8-1.5-1.2-3.3-1.2-5.3C511.7,601.3,512.1,599.6,512.9,598.1z M527.4,599.5c-0.6-1.1-1.4-1.9-2.4-2.5c-1-0.6-2.1-0.9-3.3-0.9
			c-1.2,0-2.3,0.3-3.3,0.9c-1,0.6-1.8,1.4-2.4,2.5c-0.6,1.1-0.9,2.4-0.9,3.9c0,1.5,0.3,2.8,0.9,3.9c0.6,1.1,1.4,2,2.4,2.5
			c1,0.6,2.1,0.9,3.3,0.9c1.2,0,2.3-0.3,3.3-0.9c1-0.6,1.8-1.4,2.4-2.5c0.6-1.1,0.9-2.4,0.9-3.9C528.3,601.9,528,600.6,527.4,599.5z
			"/>
		<path class="st0" d="M537.2,589.8c-0.4-0.4-0.6-1-0.6-1.6c0-0.6,0.2-1.1,0.6-1.6c0.4-0.4,1-0.6,1.6-0.6c0.6,0,1.1,0.2,1.5,0.6
			c0.4,0.4,0.6,1,0.6,1.6c0,0.6-0.2,1.1-0.6,1.6s-0.9,0.6-1.5,0.6C538.2,590.4,537.6,590.2,537.2,589.8z M540.4,593.6v19.6h-3.3
			v-19.6H540.4z"/>
		<path class="st0" d="M551.6,594.2c1.1-0.6,2.4-0.9,3.9-0.9v3.4h-0.9c-3.7,0-5.5,2-5.5,5.9v10.7h-3.3v-19.6h3.3v3.2
			C549.7,595.7,550.6,594.8,551.6,594.2z"/>
		<path class="st0" d="M562.2,612.8c-1.2-0.5-2.1-1.2-2.8-2.1c-0.7-0.9-1.1-2-1.1-3.2h3.4c0.1,1,0.6,1.8,1.4,2.4
			c0.8,0.6,1.9,0.9,3.2,0.9c1.2,0,2.2-0.3,2.9-0.8c0.7-0.5,1.1-1.2,1.1-2.1c0-0.9-0.4-1.5-1.1-1.9c-0.8-0.4-1.9-0.8-3.5-1.2
			c-1.5-0.4-2.6-0.8-3.6-1.2c-0.9-0.4-1.7-1-2.4-1.8c-0.7-0.8-1-1.8-1-3.1c0-1,0.3-1.9,0.9-2.8c0.6-0.8,1.4-1.5,2.5-2
			c1.1-0.5,2.3-0.7,3.8-0.7c2.2,0,3.9,0.5,5.3,1.6c1.3,1.1,2.1,2.6,2.1,4.5h-3.3c-0.1-1-0.5-1.8-1.2-2.5c-0.8-0.6-1.8-0.9-3-0.9
			c-1.2,0-2.1,0.3-2.8,0.8c-0.7,0.5-1,1.2-1,2c0,0.6,0.2,1.2,0.6,1.6c0.4,0.4,0.9,0.8,1.6,1c0.6,0.3,1.5,0.5,2.6,0.8
			c1.4,0.4,2.6,0.8,3.4,1.1c0.9,0.4,1.6,0.9,2.3,1.7c0.6,0.7,1,1.7,1,2.9c0,1.1-0.3,2-0.9,2.9c-0.6,0.9-1.4,1.5-2.5,2
			c-1.1,0.5-2.3,0.7-3.7,0.7C564.7,613.5,563.4,613.3,562.2,612.8z"/>
	</g>
</g>
</svg>
