<?xml version="1.0" encoding="utf-8"?>
<!-- Generator: Adobe Illustrator 26.5.0, SVG Export Plug-In . SVG Version: 6.00 Build 0)  -->
<svg version="1.1" id="_層_2" xmlns="http://www.w3.org/2000/svg" xmlns:xlink="http://www.w3.org/1999/xlink" x="0px" y="0px"
	 viewBox="0 0 600 622.9" style="enable-background:new 0 0 600 622.9;" xml:space="preserve">
<style type="text/css">
	.st0{fill:#FFFFFF;}
	.st1{fill:#1F333D;}
	.st2{fill:#B3C33E;}
</style>
<rect x="-7" y="-7" class="st0" width="613" height="639"/>
<g id="adi_logo-V-standard-CN_x2B_EN">
	<g>
		<path class="st1" d="M101.4,217.6c0-65.9,53.7-119.6,119.6-119.6l46-0.1V17.5c-36.7-0.3-47-2.5-84.7,4.5c-0.4,0.1-0.8,0.2-1.1,0.2
			c-91,18.5-159.5,99-159.5,195.3c0,110,89.6,200.4,199.5,200.4h201.5V17.5h-77.9v320.1L221,337.2
			C155.1,337.2,101.4,283.5,101.4,217.6z"/>
		<path class="st2" d="M177.7,219.8c0,25.5,19.1,42.5,44.7,42.5h44.4v-89h-42.7C198.6,173.3,177.7,194.2,177.7,219.8z"/>
		<rect x="466.5" y="162.1" class="st1" width="89.6" height="256.4"/>
		<polygon class="st2" points="467.4,17.4 545.1,17.4 545.1,39.9 489.5,39.9 489.5,84.3 545.1,84.3 545.1,106.3 467.4,106.3 		"/>
		<polygon class="st1" points="578.4,50.2 500.6,50.2 500.6,72.7 556.2,72.7 556.2,117 500.6,117 500.6,139.1 578.4,139.1 		"/>
	</g>
	<g>
		<path class="st1" d="M171.5,442.3v-2.2h2.6v2.2h6.1v4.3h1.7v2.4h-1.7v4.3h-6.1v2h6.7v6.3h-7.3c-0.5,0.8-0.9,1.5-1.1,2.2h8.6v1.8
			c-1.1,1.9-2.7,3.6-4.9,5.1c1.9,0.8,3.9,1.7,5.9,2.7l-1.5,2c-2.3-1.2-4.4-2.4-6.7-3.3c-2.6,1.4-5.5,2.6-9,3.6l-1.5-2
			c3-0.8,5.6-1.7,7.8-2.7c-1.6-0.7-3.2-1.1-4.8-1.6c0.8-1.1,1.5-2.3,2.2-3.4h-4.9v-2.2h6.2c0.4-0.8,0.9-1.4,1.2-2.2h-6.1v-6.3h6.7
			v-2h-6.1V449h-1.7v-2.4h1.7v-4.3L171.5,442.3L171.5,442.3z M171.5,457.2h-4.3v2.5h4.3V457.2z M171.5,446.8v-2.6h-3.8v2.6H171.5z
			 M171.5,448.7h-3.8v2.6h3.8V448.7z M177.8,465.9H171c-0.6,0.9-1,1.7-1.5,2.4c1.3,0.4,2.6,0.8,3.9,1.3
			C175.3,468.5,176.8,467.2,177.8,465.9z M177.8,446.8v-2.6h-3.8v2.6H177.8z M177.8,448.7h-3.8v2.6h3.8V448.7z M178.4,457.2h-4.3
			v2.5h4.3V457.2z M184.9,455.3c-0.7,1.3-1.2,2.5-1.9,3.5l-1.7-2.2c2.3-4.2,3.8-9.7,4.6-16.7l2.7,0.5c-0.3,2-0.6,4-0.9,5.8H198v2.6
			h-2.6c-0.2,7-1.5,12.9-4,17.6c1.9,2.7,4.3,5.2,7.3,7.2l-1.7,2.2c-2.8-1.9-5.2-4.3-7-6.8c-1.8,2.6-3.9,4.9-6.4,6.8l-1.5-2.5
			c2.6-1.8,4.7-4.1,6.4-6.8C186.5,463.2,185.4,459.5,184.9,455.3z M184.9,455.1l2.3-0.7c0.4,3.4,1.2,6.4,2.6,9.2
			c1.8-4.1,2.8-9.1,3-14.8h-5.7C186.4,451.1,185.8,453.2,184.9,455.1z"/>
		<path class="st1" d="M213.1,441.1c-1,3-2.3,5.9-3.8,8.5v26.1h-2.7v-21.8c-1.3,1.7-2.6,3.4-4.2,4.9l-0.9-3c4.1-4.6,7.1-9.9,9-16
			L213.1,441.1z M225.6,471.1c2-5.2,3.7-11.7,5.1-19.5l2.6,0.7c-1.3,7.1-3,13.3-4.9,18.8h8.8v2.7h-25v-2.7H225.6z M223.3,446.4
			c-0.6-2.1-1.2-4-1.9-5.7l2.9-0.5c0.7,1.8,1.2,3.9,1.7,6.1h10.1v2.6h-23.3v-2.6H223.3z M221.8,469.2l-2.6,0.7
			c-1-5.9-2.4-11.5-4.1-17l2.6-0.8C219.3,457,220.6,462.8,221.8,469.2z"/>
		<path class="st1" d="M249.3,448.4c1.9-1.3,3.5-2.7,4.7-4.3h-10.7v-2.5h13.8v2c-1.5,2.8-3.9,5.2-7.2,7.3h5.7v8.9h-8.6l-0.7,4.3h9.5
			c0,4.5-0.2,7.6-0.6,9c-0.5,1.5-2.3,2.4-5.4,2.5c-1.4,0-2.8-0.1-4.3-0.2l-0.7-2.5c1.4,0.1,2.9,0.2,4.3,0.2c2,0,3.2-0.4,3.5-1.3
			c0.3-0.9,0.4-2.6,0.4-5.4h-9.7l1.2-9h8.3v-4.1h-7.9c-1,0.4-2,0.8-3,1.1l-1.7-2.2c2.6-0.8,4.8-1.7,6.7-2.6c-1.2-1-2.6-2.1-4.3-3.1
			l2.1-1.3C246.7,446.3,248.2,447.5,249.3,448.4z M269.9,441.4c-0.9,1-1.8,1.9-2.7,2.6c-0.7,0.5-1.4,0.9-2.4,1.4
			c0.8,0.7,1.5,1.2,2.4,1.7c0.9-0.5,1.9-1,2.6-1.6c0.9-0.8,1.9-1.6,2.6-2.6l2,1.2c-0.9,1.2-1.9,2.2-2.9,2.9
			c-0.7,0.5-1.3,0.9-2.1,1.4c1.9,1,4.1,2.1,6.4,2.9l-1.9,2.2c-1.5-0.7-2.9-1.2-4.2-1.9v3.7c0,0.8,0.5,1.2,1.5,1.2h2.2v2.3h-2.8
			c-2.1,0-3.1-0.9-3.1-2.9v-2.7h-5.7c0,1.4-0.2,2.6-0.7,3.6c-0.6,1-1.5,2-2.7,2.8l-1.9-1.7c1.2-0.9,2.1-1.9,2.6-2.8
			c0.3-0.9,0.5-2.4,0.5-4.3h9c-4.4-2.6-7.8-5.5-9.8-8.9l2.2-1.2c0.7,1,1.4,2,2.4,2.9c0.9-0.4,1.7-0.9,2.4-1.3
			c0.9-0.7,1.7-1.4,2.5-2.3L269.9,441.4z M271.8,461.1v2.4c-0.9,2.4-2.1,4.3-3.7,6.1c2.4,1.4,4.6,2.8,6.5,4.3l-1.9,2
			c-1.8-1.5-4-2.9-6.4-4.4c-2.2,1.8-4.8,3.2-7.9,4.3l-1-2.5c2.6-0.9,4.7-2,6.6-3.3c-1.7-1-3.6-2-5.6-3l1.7-1.6c2.1,1,4,2,5.8,3
			c1.4-1.4,2.6-2.9,3.3-4.7h-10.8v-2.5L271.8,461.1L271.8,461.1z"/>
		<path class="st1" d="M281.1,475.5l-2.1-1.9c2.6-5.1,3.8-11.5,3.9-19.6v-12.5h29v9.2h-26.2v4.2h7v-3h2.7v3.1h7.7v-3h2.7v3h6.5v2.5
			h-6.5v4h7.7v2.6h-21.1v8.5c2.4-0.6,4.4-1.2,6.2-2l0.5,2.6c-2.8,0.9-6.1,1.8-10,2.6l-0.8-2.5c0.9-0.4,1.4-0.9,1.4-1.9V464h-5
			C284,468.4,282.8,472.1,281.1,475.5z M285.2,461.5h7.6v-4h-7.2C285.5,458.9,285.3,460.2,285.2,461.5z M285.7,444.2v4.1h23.4v-4.1
			H285.7z M303.1,461.5v-4h-7.7v4H303.1z M311.7,466c-1.5,2.1-3.2,3.7-5,4.9c2.4,1.2,5,2.1,7.8,2.4l-0.7,2.6
			c-6.6-0.7-12.1-3.9-16.3-9.6l2-1.3c1.4,1.9,2.9,3.4,4.7,4.6c1.9-1,3.8-2.8,5.5-5.3L311.7,466z"/>
		<path class="st1" d="M326.5,444.1c-0.4-1.3-0.9-2.6-1.3-3.6l2.8-0.5c0.4,1.2,0.9,2.6,1.2,4.1h7.8v2.6h-1.9
			c-0.8,2.9-1.7,5.6-2.6,7.9h4.8v2.6h-19.2v-2.6h4.9c-0.7-2.8-1.4-5.5-2.3-7.9h-2v-2.6H326.5z M335.5,475.5h-2.7v-2.1h-9.5v2.1h-2.7
			V461h15V475.5z M332.7,470.9v-7.2h-9.5v7.2H332.7z M332.4,446.7h-8.9c0.8,2.3,1.5,4.9,2.2,7.9h4.2
			C330.8,452.2,331.7,449.5,332.4,446.7z M352.3,441.7v2.1c-1.3,4.1-2.6,7.8-4.2,11.3c3,3.8,4.6,6.9,4.6,9.4c0,2.3-0.5,3.9-1.5,4.7
			c-1,0.9-3.2,1.4-6.5,1.4l-0.9-2.9c1,0.1,1.9,0.2,2.6,0.2c1.4-0.1,2.4-0.3,2.7-0.8s0.7-1.3,0.7-2.6c0-2.4-1.7-5.5-4.9-9.4
			c1.4-3.1,2.7-6.7,4.1-10.9H342v31.2h-2.7v-33.8H352.3z"/>
		<path class="st1" d="M377.8,442.3v-2.2h2.6v2.2h6.1v4.3h1.7v2.4h-1.7v4.3h-6.1v2h6.7v6.3h-7.3c-0.5,0.8-0.9,1.5-1.1,2.2h8.6v1.8
			c-1.1,1.9-2.7,3.6-4.9,5.1c1.9,0.8,3.9,1.7,5.9,2.7l-1.5,2c-2.3-1.2-4.4-2.4-6.7-3.3c-2.6,1.4-5.5,2.6-9,3.6l-1.5-2
			c3-0.8,5.6-1.7,7.8-2.7c-1.6-0.7-3.2-1.1-4.8-1.6c0.8-1.1,1.5-2.3,2.2-3.4h-4.9v-2.2h6.2c0.4-0.8,0.9-1.4,1.2-2.2h-6.1v-6.3h6.7
			v-2h-6.1V449H370v-2.4h1.7v-4.3L377.8,442.3L377.8,442.3z M377.8,457.2h-4.3v2.5h4.3V457.2z M377.8,446.8v-2.6H374v2.6H377.8z
			 M377.8,448.7H374v2.6h3.8V448.7z M384.2,465.9h-6.8c-0.6,0.9-1,1.7-1.5,2.4c1.3,0.4,2.6,0.8,3.9,1.3
			C381.6,468.5,383.1,467.2,384.2,465.9z M384.2,446.8v-2.6h-3.8v2.6H384.2z M384.2,448.7h-3.8v2.6h3.8V448.7z M384.6,457.2h-4.3
			v2.5h4.3L384.6,457.2L384.6,457.2z M391.1,455.3c-0.7,1.3-1.2,2.5-1.9,3.5l-1.7-2.2c2.3-4.2,3.8-9.7,4.6-16.7l2.7,0.5
			c-0.3,2-0.6,4-0.9,5.8h10.2v2.6h-2.6c-0.2,7-1.5,12.9-4,17.6c1.9,2.7,4.3,5.2,7.3,7.2l-1.7,2.2c-2.8-1.9-5.2-4.3-7-6.8
			c-1.8,2.6-3.9,4.9-6.4,6.8l-1.5-2.5c2.6-1.8,4.7-4.1,6.4-6.8C392.8,463.2,391.7,459.5,391.1,455.3z M391.2,455.1l2.3-0.7
			c0.4,3.4,1.2,6.4,2.6,9.2c1.8-4.1,2.8-9.1,3-14.8h-5.7C392.8,451.1,392.1,453.2,391.2,455.1z"/>
		<path class="st1" d="M419.4,441.1c-1,3-2.3,5.9-3.8,8.5v26.1h-2.7v-21.8c-1.3,1.7-2.6,3.4-4.2,4.9l-0.9-3c4.1-4.6,7.1-9.9,9-16
			L419.4,441.1z M431.9,471.1c2-5.2,3.7-11.7,5.1-19.5l2.6,0.7c-1.3,7.1-3,13.3-4.9,18.8h8.8v2.7h-25v-2.7H431.9z M429.6,446.4
			c-0.6-2.1-1.2-4-1.9-5.7l2.9-0.5c0.7,1.8,1.2,3.9,1.7,6.1h10.1v2.6h-23.3v-2.6H429.6z M428,469.2l-2.6,0.7c-1-5.9-2.4-11.5-4.1-17
			l2.6-0.8C425.5,457,426.9,462.8,428,469.2z"/>
		<path class="st1" d="M466.2,448.2c2.7-0.9,5.2-1.9,7.3-3h-24.6v-2.4h15c-0.4-0.9-0.9-1.8-1.3-2.6l2.8-0.5c0.5,0.9,0.9,1.9,1.3,3
			H480v2.4h-6.1l1.6,1c-2,1-4.1,2-6.1,2.8c3,0.9,5.8,1.8,8.3,2.6l-1.6,1.6h4.3v2.4h-27.5v4.3c-0.2,6.4-1.4,11.6-3.8,15.5l-2.1-1.9
			c2-3.2,3-7.8,3.1-13.6v-6.8h25.8c-2.7-1-5.9-2.2-9.5-3.2c-4.1,1.2-8.3,2.2-13,2.7l-1.3-1.8c4.1-0.5,7.7-1.1,10.9-1.9
			c-2.7-0.8-5.6-1.5-8.7-2.3l1.5-1.4C459.4,446.4,462.9,447.3,466.2,448.2z M454.9,466.3l-1.9-1.7c2.5-1.9,4.3-4.3,5.6-7.6l2.2,0.9
			c-0.4,0.9-0.7,1.6-1,2.3h6.8v-3.2h2.7v3.2h10.1v2.5h-10.1v3.6h9.3v2.5h-9.3v3.6h12v2.4h-27.9v-2.4h13.1v-3.6h-9.2v-2.5h9.2v-3.6
			h-8.3C457.2,464.1,456.1,465.2,454.9,466.3z"/>
		<path class="st1" d="M501,440.2v5.9h4.1v-5.9h2.7v5.9h3.3c1.1-1.7,2.1-3.4,2.9-5.3l2.6,0.9c-0.9,1.7-1.8,3.1-2.6,4.3h6.1v2.5
			h-33.8v-2.5h6c-0.7-1.5-1.5-2.9-2.4-4.3l2.6-0.9c0.9,1.5,1.7,3.2,2.5,5.2h3.4v-5.9L501,440.2L501,440.2z M496.4,452.8
			c-0.6-1.1-1.2-2.2-2-3.1l2.6-0.9c0.9,1.1,1.6,2.6,2.4,4.1h7.5c0.9-1.2,1.8-2.6,2.5-4.1l2.6,0.9c-0.7,1.1-1.3,2.2-2.1,3.1h8.5v2.5
			h-13.7v2.8h11.8v2.4h-11.8v2.9H520v2.5h-15.4v10h-2.8v-10h-15.4v-2.6h15.4v-2.8h-11.9v-2.4h11.9v-2.8H488v-2.5H496.4z
			 M497.6,468.7c-2.4,2.4-5.3,4.5-8.9,6.4l-1.7-2.3c3.4-1.6,6.3-3.6,8.7-5.8L497.6,468.7z M519.2,473.2l-2,2c-2-1.9-4.7-4.1-8.1-6.2
			l1.8-1.7C514.2,469.2,516.9,471.1,519.2,473.2z"/>
		<path class="st1" d="M555.5,441.6v7.4H542v2.6h8.2v2.3H542v2.7h4.9c3-1.9,5.7-4.1,7.8-6.5l2.3,1.2c-1.8,1.9-3.9,3.7-6.2,5.3h8.1
			v2.4h-12.1c-2,1-4.1,2-6.3,2.8h13.6v14.2h-2.7v-1.7h-16.5v1.7h-2.7v-11.7c-1.9,0.5-4,0.9-6,1.2l-1.5-2.4
			c6.7-0.7,12.6-2.2,17.6-4.3h-17.3v-2.4h14.3v-2.7h-10.1v-2.3h10.1v-2.6h-11.2v-7.4L555.5,441.6L555.5,441.6z M536.5,443.7h-5.8
			v3.2h5.8V443.7z M551.3,463.9h-16.5v3h16.5V463.9z M534.9,472h16.5V469h-16.5V472z M544.6,443.7H539v3.2h5.6V443.7z M552.7,443.7
			h-5.7v3.2h5.7V443.7z"/>
	</g>
	<g>
		<path class="st1" d="M274,510.3h-10.3l-1.9,5.2h-3.2l8.5-23.4h3.6l8.5,23.4H276L274,510.3z M273.1,507.8l-4.3-11.9l-4.3,11.9
			H273.1z"/>
		<path class="st1" d="M282.8,501.2c0.8-1.4,1.8-2.6,3.1-3.3c1.3-0.8,2.8-1.2,4.5-1.2c1.4,0,2.7,0.4,4.1,1c1.2,0.7,2.2,1.5,2.8,2.6
			v-9.8h3.1v25.1h-3.1V512c-0.6,1.1-1.5,2-2.7,2.7c-1.2,0.8-2.6,1-4.2,1s-3.1-0.4-4.4-1.2c-1.3-0.9-2.4-2-3.1-3.4
			c-0.8-1.4-1.1-3.1-1.1-5C281.7,504.3,282,502.7,282.8,501.2z M296.5,502.6c-0.6-1-1.3-1.8-2.3-2.4c-0.9-0.6-2-0.9-3.1-0.9
			c-1.1,0-2.2,0.3-3.1,0.9c-0.9,0.6-1.7,1.3-2.3,2.4c-0.6,1-0.9,2.3-0.9,3.7c0,1.4,0.3,2.6,0.9,3.7c0.6,1,1.3,1.9,2.3,2.4
			c0.9,0.6,2,0.9,3.1,0.9c1.1,0,2.2-0.3,3.1-0.9c0.9-0.6,1.7-1.3,2.3-2.4c0.6-1,0.9-2.3,0.9-3.7
			C297.4,504.9,297.1,503.6,296.5,502.6z"/>
		<path class="st1" d="M331.9,497.6c1.1,0.6,2,1.5,2.6,2.6c0.7,1.2,0.9,2.6,0.9,4.3v11h-3V505c0-1.9-0.5-3.3-1.3-4.3
			c-0.9-0.9-2.2-1.5-3.7-1.5c-1.6,0-2.8,0.5-3.8,1.5c-0.9,1-1.4,2.6-1.4,4.4v10.2h-3v-10.5c0-1.9-0.5-3.3-1.3-4.3
			c-0.9-0.9-2.2-1.5-3.7-1.5c-1.6,0-2.8,0.5-3.8,1.5c-0.9,1-1.4,2.6-1.4,4.4v10.2h-3.3v-18.5h3.1v2.6c0.6-0.9,1.4-1.7,2.5-2.3
			c1-0.5,2.2-0.8,3.4-0.8c1.5,0,2.9,0.4,4.2,1c1.2,0.7,2.1,1.7,2.6,3.1c0.5-1.3,1.4-2.4,2.6-3c1.2-0.8,2.6-1,4-1
			C329.5,496.6,330.7,496.9,331.9,497.6z"/>
		<path class="st1" d="M340.7,493.4c-0.4-0.4-0.6-0.9-0.6-1.5c0-0.6,0.2-1,0.6-1.5c0.4-0.4,0.9-0.6,1.5-0.6c0.6,0,1,0.2,1.4,0.6
			c0.4,0.4,0.6,0.9,0.6,1.5c0,0.6-0.2,1-0.6,1.5c-0.4,0.5-0.9,0.6-1.4,0.6C341.6,494,341,493.8,340.7,493.4z M343.7,497v18.5h-3.1
			V497L343.7,497L343.7,497z"/>
		<path class="st1" d="M363.4,498.7c1.4,1.3,2.1,3.3,2.1,5.9v11h-3V505c0-1.9-0.5-3.3-1.4-4.3c-0.9-0.9-2.2-1.5-3.8-1.5
			c-1.6,0-2.9,0.5-3.9,1.5s-1.4,2.5-1.4,4.4v10.2h-3.1v-18.5h3.1v2.6c0.6-0.9,1.4-1.7,2.5-2.2s2.2-0.8,3.5-0.8
			C360.2,496.6,362,497.4,363.4,498.7z"/>
		<path class="st1" d="M370.6,493.4c-0.4-0.4-0.6-0.9-0.6-1.5c0-0.6,0.2-1,0.6-1.5c0.4-0.4,0.9-0.6,1.5-0.6c0.6,0,1,0.2,1.4,0.6
			c0.4,0.4,0.6,0.9,0.6,1.5c0,0.6-0.2,1-0.6,1.5c-0.4,0.5-0.9,0.6-1.4,0.6C371.6,494,371.1,493.8,370.6,493.4z M373.7,497v18.5h-3.1
			V497L373.7,497L373.7,497z"/>
		<path class="st1" d="M381.6,515.2c-1.1-0.5-2-1.1-2.6-2c-0.7-0.9-1-1.9-1-3h3.2c0.1,0.9,0.6,1.7,1.3,2.3c0.8,0.6,1.8,0.9,3,0.9
			c1.1,0,2.1-0.3,2.7-0.8c0.7-0.5,1-1.1,1-2c0-0.9-0.4-1.4-1-1.8c-0.8-0.4-1.8-0.8-3.3-1.1c-1.4-0.4-2.5-0.8-3.4-1.1
			c-0.9-0.4-1.6-0.9-2.3-1.7c-0.7-0.8-0.9-1.7-0.9-2.9c0-0.9,0.3-1.8,0.9-2.6c0.6-0.8,1.3-1.4,2.4-1.9s2.2-0.7,3.6-0.7
			c2.1,0,3.7,0.5,5,1.5c1.2,1,2,2.5,2,4.3H389c-0.1-0.9-0.5-1.7-1.1-2.4c-0.8-0.6-1.7-0.9-2.8-0.9s-2,0.3-2.6,0.8
			c-0.7,0.5-0.9,1.1-0.9,1.9c0,0.6,0.2,1.1,0.6,1.5c0.4,0.4,0.9,0.8,1.5,0.9c0.6,0.3,1.4,0.5,2.5,0.8c1.3,0.4,2.5,0.8,3.2,1
			c0.9,0.4,1.5,0.9,2.2,1.6c0.6,0.7,0.9,1.6,0.9,2.7c0,1-0.3,1.9-0.9,2.7c-0.6,0.9-1.3,1.4-2.4,1.9c-1,0.5-2.2,0.7-3.5,0.7
			C384.1,515.8,382.7,515.6,381.6,515.2z"/>
		<path class="st1" d="M400.3,499.6v11c0,0.9,0.2,1.5,0.6,1.9c0.4,0.4,1,0.6,2,0.6h2.3v2.6h-2.7c-1.7,0-3-0.4-3.9-1.2
			c-0.9-0.8-1.3-2.1-1.3-3.9v-11h-2.4V497h2.4v-4.6h3.1v4.6h4.8v2.6H400.3z"/>
		<path class="st1" d="M414.3,497.6c1-0.6,2.3-0.9,3.7-0.9v3.2h-0.9c-3.5,0-5.2,1.9-5.2,5.6v10.1h-3.1v-18.5h3.1v3
			C412.5,499,413.3,498.1,414.3,497.6z"/>
		<path class="st1" d="M421.5,501.2c0.8-1.4,1.8-2.6,3.1-3.3c1.3-0.8,2.8-1.2,4.4-1.2s3,0.4,4.3,1c1.2,0.7,2.1,1.6,2.6,2.6v-3.4h3.1
			v18.5H436v-3.5c-0.6,1-1.5,2-2.7,2.6c-1.2,0.8-2.6,1-4.3,1c-1.6,0-3.1-0.4-4.4-1.2c-1.3-0.9-2.4-2-3.1-3.4c-0.8-1.4-1.1-3.1-1.1-5
			C420.4,504.3,420.7,502.7,421.5,501.2z M435.2,502.6c-0.6-1-1.3-1.8-2.3-2.4c-0.9-0.6-2-0.9-3.1-0.9s-2.2,0.3-3.1,0.9
			c-0.9,0.6-1.7,1.3-2.3,2.4c-0.6,1-0.9,2.3-0.9,3.7c0,1.4,0.3,2.6,0.9,3.7c0.6,1,1.3,1.9,2.3,2.4c0.9,0.6,2,0.9,3.1,0.9
			c1.1,0,2.2-0.3,3.1-0.9c0.9-0.6,1.7-1.3,2.3-2.4c0.6-1,0.9-2.3,0.9-3.7C436.1,504.9,435.8,503.6,435.2,502.6z"/>
		<path class="st1" d="M448.2,499.6v11c0,0.9,0.2,1.5,0.6,1.9c0.4,0.4,1,0.6,2,0.6h2.3v2.6h-2.7c-1.7,0-3-0.4-3.9-1.2
			c-0.9-0.8-1.3-2.1-1.3-3.9v-11h-2.4V497h2.4v-4.6h3.1v4.6h4.8v2.6H448.2z"/>
		<path class="st1" d="M456.8,493.4c-0.4-0.4-0.6-0.9-0.6-1.5c0-0.6,0.2-1,0.6-1.5c0.4-0.4,0.9-0.6,1.5-0.6s1,0.2,1.4,0.6
			c0.4,0.4,0.6,0.9,0.6,1.5c0,0.6-0.2,1-0.6,1.5c-0.4,0.5-0.9,0.6-1.4,0.6S457.2,493.8,456.8,493.4z M459.8,497v18.5h-3.1V497
			L459.8,497L459.8,497z"/>
		<path class="st1" d="M468.4,514.7c-1.4-0.8-2.6-1.9-3.3-3.4c-0.8-1.4-1.2-3.1-1.2-5.1c0-1.9,0.4-3.6,1.2-5c0.9-1.4,2-2.6,3.4-3.3
			c1.4-0.8,3-1.1,4.7-1.1c1.7,0,3.3,0.4,4.7,1.1c1.4,0.8,2.6,1.9,3.4,3.3c0.9,1.4,1.2,3.1,1.2,5s-0.4,3.6-1.2,5.1
			c-0.9,1.4-2,2.6-3.4,3.4c-1.4,0.8-3,1.2-4.8,1.2C471.4,515.8,469.8,515.4,468.4,514.7z M476.2,512.3c0.9-0.5,1.8-1.3,2.4-2.4
			c0.6-1,0.9-2.3,0.9-3.8s-0.3-2.7-0.9-3.8c-0.6-1-1.3-1.8-2.3-2.4c-0.9-0.5-2-0.8-3.1-0.8s-2.2,0.3-3.1,0.8s-1.7,1.3-2.3,2.4
			c-0.6,1-0.9,2.3-0.9,3.8s0.3,2.7,0.9,3.8c0.6,1,1.3,1.8,2.2,2.4c0.9,0.5,2,0.8,3,0.8C474.3,513.2,475.3,512.9,476.2,512.3z"/>
		<path class="st1" d="M501.2,498.7c1.4,1.3,2.1,3.3,2.1,5.9v11h-3V505c0-1.9-0.5-3.3-1.4-4.3c-0.9-0.9-2.2-1.5-3.8-1.5
			c-1.6,0-2.9,0.5-3.9,1.5s-1.4,2.5-1.4,4.4v10.2h-3.1v-18.5h3.1v2.6c0.6-0.9,1.4-1.7,2.5-2.2c1-0.5,2.2-0.8,3.5-0.8
			C498,496.6,499.8,497.4,501.2,498.7z"/>
		<path class="st1" d="M524.9,499.6h-3.9v16h-3.1v-16h-2.4V497h2.4v-1.3c0-2.1,0.6-3.6,1.6-4.5s2.8-1.4,5.2-1.4v2.6
			c-1.3,0-2.3,0.3-2.8,0.8c-0.6,0.6-0.9,1.4-0.9,2.6v1.3h3.9L524.9,499.6L524.9,499.6z"/>
		<path class="st1" d="M531.9,514.7c-1.4-0.8-2.6-1.9-3.3-3.4c-0.8-1.4-1.2-3.1-1.2-5.1c0-1.9,0.4-3.6,1.2-5c0.9-1.4,2-2.6,3.4-3.3
			c1.4-0.8,3-1.1,4.7-1.1c1.8,0,3.3,0.4,4.7,1.1c1.4,0.8,2.6,1.9,3.4,3.3c0.9,1.4,1.2,3.1,1.2,5s-0.4,3.6-1.2,5.1
			c-0.9,1.4-2,2.6-3.4,3.4c-1.4,0.8-3,1.2-4.8,1.2C534.9,515.8,533.3,515.4,531.9,514.7z M539.7,512.3c0.9-0.5,1.8-1.3,2.4-2.4
			c0.6-1,0.9-2.3,0.9-3.8s-0.3-2.7-0.9-3.8c-0.6-1-1.3-1.8-2.3-2.4c-0.9-0.5-2-0.8-3.1-0.8c-1.1,0-2.2,0.3-3.1,0.8
			c-0.9,0.5-1.7,1.3-2.3,2.4c-0.6,1-0.9,2.3-0.9,3.8s0.3,2.7,0.9,3.8c0.6,1,1.3,1.8,2.2,2.4c0.9,0.5,2,0.8,3,0.8
			C537.7,513.2,538.7,512.9,539.7,512.3z"/>
		<path class="st1" d="M555.6,497.6c1-0.6,2.3-0.9,3.7-0.9v3.2h-0.9c-3.5,0-5.2,1.9-5.2,5.6v10.1h-3.1v-18.5h3.1v3
			C553.8,499,554.6,498.1,555.6,497.6z"/>
		<path class="st1" d="M273.5,534c1.9,0.9,3.3,2.4,4.3,4.1c1,1.8,1.5,3.9,1.5,6.3c0,2.5-0.5,4.5-1.5,6.2c-1,1.8-2.5,3.1-4.3,4.1
			c-1.9,0.9-4.1,1.4-6.7,1.4h-7.4v-23.6h7.4C269.5,532.6,271.6,533,273.5,534z M273.8,551.2c1.6-1.6,2.4-3.9,2.4-6.8
			s-0.9-5.2-2.5-6.9c-1.6-1.6-4-2.5-7-2.5h-4.3v18.5h4.3C269.9,553.6,272.2,552.8,273.8,551.2z"/>
		<path class="st1" d="M284.5,534c-0.4-0.4-0.6-0.9-0.6-1.5c0-0.6,0.2-1,0.6-1.5c0.4-0.4,0.9-0.6,1.5-0.6c0.6,0,1,0.2,1.4,0.6
			c0.4,0.4,0.6,0.9,0.6,1.5c0,0.6-0.2,1-0.6,1.5c-0.4,0.5-0.9,0.6-1.4,0.6C285.3,534.6,284.9,534.4,284.5,534z M287.4,537.6v18.5
			h-3.1v-18.5H287.4z"/>
		<path class="st1" d="M305.5,538.3c1.2,0.7,2.1,1.6,2.6,2.6v-3.4h3.1v18.9c0,1.7-0.4,3.2-1,4.5c-0.8,1.3-1.8,2.4-3.1,3.1
			c-1.3,0.8-2.9,1.1-4.7,1.1c-2.5,0-4.4-0.6-6.1-1.7c-1.6-1.1-2.6-2.7-2.8-4.7h3c0.4,1.1,1,2.1,2.1,2.7c1,0.7,2.4,1,3.8,1
			c1.7,0,3.1-0.6,4.2-1.6c1-1,1.6-2.6,1.6-4.4v-3.9c-0.6,1-1.5,2-2.7,2.7c-1.2,0.8-2.6,1-4.2,1c-1.6,0-3.1-0.4-4.4-1.2
			c-1.3-0.9-2.4-2-3.1-3.4c-0.8-1.4-1.1-3.1-1.1-5c0-1.9,0.4-3.6,1.1-5c0.8-1.4,1.8-2.6,3.1-3.3s2.8-1.2,4.4-1.2
			C302.8,537.3,304.3,537.7,305.5,538.3z M307.3,543.2c-0.6-1-1.3-1.8-2.3-2.4s-2-0.9-3.1-0.9c-1.1,0-2.2,0.3-3.1,0.9
			c-0.9,0.6-1.7,1.3-2.3,2.4c-0.6,1-0.9,2.3-0.9,3.7s0.3,2.6,0.9,3.7c0.6,1,1.3,1.9,2.3,2.4c0.9,0.6,2,0.9,3.1,0.9
			c1.1,0,2.2-0.3,3.1-0.9c0.9-0.6,1.7-1.3,2.3-2.4c0.6-1,0.9-2.3,0.9-3.7C308.1,545.4,307.8,544.3,307.3,543.2z"/>
		<path class="st1" d="M317.5,534c-0.4-0.4-0.6-0.9-0.6-1.5c0-0.6,0.2-1,0.6-1.5c0.4-0.4,0.9-0.6,1.5-0.6c0.6,0,1,0.2,1.4,0.6
			c0.4,0.4,0.6,0.9,0.6,1.5c0,0.6-0.2,1-0.6,1.5c-0.4,0.5-0.9,0.6-1.4,0.6C318.3,534.6,317.9,534.4,317.5,534z M320.4,537.6v18.5
			h-3.1v-18.5H320.4z"/>
		<path class="st1" d="M330.4,540.1v11c0,0.9,0.2,1.5,0.6,1.9s1,0.6,2,0.6h2.3v2.6h-2.7c-1.7,0-3-0.4-3.9-1.2
			c-0.9-0.8-1.3-2.1-1.3-3.9v-11h-2.4v-2.6h2.4v-4.6h3.1v4.6h4.8v2.6H330.4z"/>
		<path class="st1" d="M339.9,541.8c0.8-1.4,1.8-2.6,3.1-3.3s2.8-1.2,4.4-1.2c1.6,0,3,0.4,4.3,1c1.2,0.7,2.1,1.6,2.6,2.6v-3.4h3.1
			v18.5h-3.1v-3.5c-0.6,1-1.5,2-2.7,2.6c-1.2,0.8-2.6,1-4.3,1c-1.6,0-3.1-0.4-4.4-1.2c-1.3-0.9-2.4-2-3.1-3.4
			c-0.8-1.4-1.1-3.1-1.1-5C338.7,544.9,339,543.2,339.9,541.8z M353.6,543.2c-0.6-1-1.3-1.8-2.3-2.4c-0.9-0.6-2-0.9-3.1-0.9
			s-2.2,0.3-3.1,0.9c-0.9,0.6-1.7,1.3-2.3,2.4c-0.6,1-0.9,2.3-0.9,3.7s0.3,2.6,0.9,3.7c0.6,1,1.3,1.9,2.3,2.4c0.9,0.6,2,0.9,3.1,0.9
			s2.2-0.3,3.1-0.9c0.9-0.6,1.7-1.3,2.3-2.4c0.6-1,0.9-2.3,0.9-3.7C354.4,545.4,354.1,544.3,353.6,543.2z"/>
		<path class="st1" d="M366.8,531.1v25.1h-3.1v-25.1H366.8z"/>
		<path class="st1" d="M385.9,532.6v23.6h-3.1v-23.6H385.9z"/>
		<path class="st1" d="M406.6,539.4c1.4,1.3,2.1,3.3,2.1,5.9v11h-3v-10.5c0-1.9-0.5-3.3-1.4-4.3c-0.9-0.9-2.2-1.5-3.8-1.5
			c-1.6,0-2.9,0.5-3.9,1.5c-0.9,1-1.4,2.5-1.4,4.4v10.2H392v-18.5h3.1v2.6c0.6-0.9,1.4-1.7,2.5-2.2c1-0.5,2.2-0.8,3.5-0.8
			C403.3,537.3,405.2,537.9,406.6,539.4z"/>
		<path class="st1" d="M414.7,541.8c0.8-1.4,1.8-2.6,3.1-3.3s2.8-1.2,4.5-1.2c1.4,0,2.7,0.4,4.1,1c1.2,0.7,2.2,1.5,2.8,2.6v-9.8h3.1
			v25.1h-3.1v-3.5c-0.6,1.1-1.5,2-2.7,2.7c-1.2,0.8-2.6,1-4.2,1s-3.1-0.4-4.4-1.2c-1.3-0.9-2.4-2-3.1-3.4c-0.8-1.4-1.1-3.1-1.1-5
			C413.6,544.9,413.9,543.2,414.7,541.8z M428.4,543.2c-0.6-1-1.3-1.8-2.3-2.4c-0.9-0.6-2-0.9-3.1-0.9s-2.2,0.3-3.1,0.9
			c-0.9,0.6-1.7,1.3-2.3,2.4c-0.6,1-0.9,2.3-0.9,3.7s0.3,2.6,0.9,3.7c0.6,1,1.3,1.9,2.3,2.4c0.9,0.6,2,0.9,3.1,0.9s2.2-0.3,3.1-0.9
			c0.9-0.6,1.7-1.3,2.3-2.4s0.9-2.3,0.9-3.7C429.3,545.4,429,544.3,428.4,543.2z"/>
		<path class="st1" d="M454.9,537.6v18.5h-3.1v-2.7c-0.6,0.9-1.4,1.7-2.5,2.2c-1,0.6-2.2,0.8-3.5,0.8c-1.4,0-2.7-0.3-3.9-0.9
			s-2.1-1.5-2.7-2.6c-0.7-1.2-1-2.6-1-4.3v-10.9h3v10.5c0,1.8,0.5,3.2,1.4,4.3c0.9,0.9,2.2,1.5,3.8,1.5c1.6,0,2.9-0.5,3.9-1.5
			s1.4-2.5,1.4-4.4v-10.2L454.9,537.6L454.9,537.6z"/>
		<path class="st1" d="M463.8,555.7c-1.1-0.5-2-1.1-2.6-2c-0.7-0.9-1-1.9-1-3h3.2c0.1,0.9,0.6,1.7,1.3,2.3c0.8,0.6,1.8,0.9,3,0.9
			c1.1,0,2.1-0.3,2.7-0.8c0.7-0.5,1-1.1,1-2s-0.4-1.4-1-1.8c-0.8-0.4-1.8-0.8-3.3-1.1c-1.4-0.4-2.5-0.8-3.4-1.1
			c-0.9-0.4-1.6-0.9-2.3-1.7c-0.7-0.8-0.9-1.7-0.9-2.9c0-0.9,0.3-1.8,0.9-2.6c0.6-0.8,1.3-1.4,2.4-1.9c1-0.5,2.2-0.7,3.6-0.7
			c2.1,0,3.7,0.5,5,1.5c1.2,1,2,2.5,2,4.3h-3.1c-0.1-0.9-0.5-1.7-1.1-2.4c-0.8-0.6-1.7-0.9-2.8-0.9s-2,0.3-2.6,0.8
			c-0.7,0.5-0.9,1.1-0.9,1.9c0,0.6,0.2,1.1,0.6,1.5c0.4,0.4,0.9,0.8,1.5,0.9c0.6,0.3,1.4,0.5,2.5,0.8c1.3,0.4,2.5,0.8,3.2,1
			c0.9,0.4,1.5,0.9,2.2,1.6c0.6,0.7,0.9,1.6,0.9,2.7c0,1-0.3,1.9-0.9,2.7c-0.6,0.9-1.3,1.4-2.4,1.9c-1,0.5-2.2,0.7-3.5,0.7
			C466.2,556.5,464.9,556.2,463.8,555.7z"/>
		<path class="st1" d="M483.3,540.1v11c0,0.9,0.2,1.5,0.6,1.9c0.4,0.4,1,0.6,2,0.6h2.3v2.6h-2.7c-1.7,0-3-0.4-3.9-1.2
			c-0.9-0.8-1.3-2.1-1.3-3.9v-11h-2.4v-2.6h2.4v-4.6h3.1v4.6h4.8v2.6H483.3z"/>
		<path class="st1" d="M498.3,538.1c1-0.6,2.3-0.9,3.7-0.9v3.2h-0.9c-3.5,0-5.2,1.9-5.2,5.6v10.1h-3v-18.5h3.1v3
			C496.5,539.6,497.2,538.7,498.3,538.1z"/>
		<path class="st1" d="M506.5,534c-0.4-0.4-0.6-0.9-0.6-1.5c0-0.6,0.2-1,0.6-1.5c0.4-0.4,0.9-0.6,1.5-0.6s1,0.2,1.4,0.6
			c0.4,0.4,0.6,0.9,0.6,1.5c0,0.6-0.2,1-0.6,1.5c-0.4,0.5-0.9,0.6-1.4,0.6C507.3,534.6,506.9,534.4,506.5,534z M509.4,537.6v18.5
			h-3.1v-18.5H509.4z"/>
		<path class="st1" d="M532.4,548.1h-14.8c0.1,1.8,0.8,3.2,1.9,4.3c1.1,1,2.6,1.5,4.2,1.5c1.3,0,2.5-0.3,3.3-0.9
			c0.9-0.7,1.5-1.4,1.9-2.5h3.3c-0.5,1.8-1.5,3.2-2.9,4.3c-1.5,1.1-3.3,1.7-5.6,1.7c-1.8,0-3.3-0.4-4.7-1.2
			c-1.4-0.8-2.5-1.9-3.3-3.4c-0.8-1.4-1.2-3.1-1.2-5.1c0-1.9,0.4-3.6,1.1-5c0.8-1.4,1.9-2.6,3.2-3.3c1.4-0.8,3-1.1,4.8-1.1
			s3.3,0.4,4.6,1.1c1.3,0.8,2.4,1.8,3.1,3.1c0.8,1.3,1.1,2.8,1.1,4.5C532.6,546.7,532.5,547.4,532.4,548.1z M528.6,542.5
			c-0.5-0.9-1.2-1.5-2.1-1.9c-0.9-0.5-1.9-0.7-2.9-0.7c-1.5,0-2.8,0.5-4,1.5c-1.1,1-1.7,2.4-1.9,4.2h11.7
			C529.4,544.4,529.1,543.3,528.6,542.5z"/>
		<path class="st1" d="M540.3,555.7c-1.1-0.5-2-1.1-2.6-2c-0.7-0.9-1-1.9-1-3h3.2c0.1,0.9,0.6,1.7,1.3,2.3c0.8,0.6,1.8,0.9,3,0.9
			c1.1,0,2.1-0.3,2.7-0.8c0.7-0.5,1-1.1,1-2s-0.4-1.4-1-1.8c-0.8-0.4-1.8-0.8-3.3-1.1c-1.4-0.4-2.5-0.8-3.4-1.1
			c-0.9-0.4-1.6-0.9-2.3-1.7s-0.9-1.7-0.9-2.9c0-0.9,0.3-1.8,0.9-2.6c0.6-0.8,1.3-1.4,2.4-1.9c1-0.5,2.2-0.7,3.6-0.7
			c2.1,0,3.7,0.5,5,1.5c1.2,1,2,2.5,2,4.3h-3.1c-0.1-0.9-0.5-1.7-1.1-2.4c-0.8-0.6-1.7-0.9-2.8-0.9c-1.1,0-2,0.3-2.6,0.8
			c-0.7,0.5-0.9,1.1-0.9,1.9c0,0.6,0.2,1.1,0.6,1.5c0.4,0.4,0.9,0.8,1.5,0.9c0.6,0.3,1.4,0.5,2.5,0.8c1.3,0.4,2.5,0.8,3.2,1
			c0.9,0.4,1.5,0.9,2.2,1.6c0.6,0.7,0.9,1.6,0.9,2.7c0,1-0.3,1.9-0.9,2.7c-0.6,0.9-1.3,1.4-2.4,1.9s-2.2,0.7-3.5,0.7
			C542.7,556.5,541.4,556.2,540.3,555.7z"/>
		<path class="st1" d="M559.3,551.9l-3.8,9.1h-2.1l2.5-9.1H559.3z"/>
		<path class="st1" d="M184.1,573.3v23.4H181v-17.5l-7.8,17.5H171l-7.8-17.5v17.5h-3.1v-23.4h3.3l8.7,19.4l8.7-19.4H184.1z"/>
		<path class="st1" d="M189.5,574.6c-0.4-0.4-0.6-0.9-0.6-1.5c0-0.6,0.2-1,0.6-1.5c0.4-0.4,0.9-0.6,1.5-0.6s1,0.2,1.4,0.6
			c0.4,0.4,0.6,0.9,0.6,1.5c0,0.6-0.2,1-0.6,1.5s-0.9,0.6-1.4,0.6C190.3,575.2,189.8,575,189.5,574.6z M192.4,578.2v18.5h-3v-18.5
			H192.4z"/>
		<path class="st1" d="M212.2,579.9c1.4,1.3,2.1,3.3,2.1,5.9v11h-3v-10.5c0-1.9-0.5-3.3-1.4-4.3c-0.9-0.9-2.2-1.5-3.8-1.5
			s-2.9,0.5-3.9,1.5c-0.9,1-1.4,2.5-1.4,4.4v10.2h-3.1v-18.5h3.1v2.6c0.6-0.9,1.4-1.7,2.5-2.2c1-0.5,2.2-0.8,3.5-0.8
			C208.9,577.8,210.7,578.6,212.2,579.9z"/>
		<path class="st1" d="M219.4,574.6c-0.4-0.4-0.6-0.9-0.6-1.5c0-0.6,0.2-1,0.6-1.5c0.4-0.4,0.9-0.6,1.5-0.6s1,0.2,1.4,0.6
			c0.4,0.4,0.6,0.9,0.6,1.5c0,0.6-0.2,1-0.6,1.5s-0.9,0.6-1.4,0.6C220.3,575.2,219.8,575,219.4,574.6z M222.4,578.2v18.5h-3.1v-18.5
			H222.4z"/>
		<path class="st1" d="M230.4,596.4c-1.1-0.5-2-1.1-2.6-2c-0.7-0.9-1-1.9-1-3h3.2c0.1,0.9,0.6,1.7,1.3,2.3c0.8,0.6,1.8,0.9,3,0.9
			c1.1,0,2.1-0.3,2.7-0.8c0.7-0.5,1-1.1,1-2c0-0.9-0.4-1.4-1-1.8c-0.8-0.4-1.8-0.8-3.3-1.1c-1.4-0.4-2.5-0.8-3.4-1.1
			c-0.9-0.4-1.6-0.9-2.3-1.7s-0.9-1.7-0.9-2.9c0-0.9,0.3-1.8,0.9-2.6c0.6-0.8,1.3-1.4,2.4-1.9c1-0.5,2.2-0.7,3.6-0.7
			c2.1,0,3.7,0.5,5,1.5c1.2,1,2,2.5,2,4.3h-3.1c-0.1-0.9-0.5-1.7-1.1-2.4c-0.8-0.6-1.7-0.9-2.8-0.9s-2,0.3-2.6,0.8
			c-0.7,0.5-0.9,1.1-0.9,1.9c0,0.6,0.2,1.1,0.6,1.5c0.4,0.4,0.9,0.8,1.5,0.9c0.6,0.3,1.4,0.5,2.5,0.8c1.3,0.4,2.5,0.8,3.2,1
			c0.9,0.4,1.5,0.9,2.2,1.6c0.6,0.7,0.9,1.6,0.9,2.7c0,1-0.3,1.9-0.9,2.7c-0.6,0.9-1.3,1.4-2.4,1.9c-1,0.5-2.2,0.7-3.5,0.7
			C232.8,597,231.5,596.9,230.4,596.4z"/>
		<path class="st1" d="M249,580.8v11c0,0.9,0.2,1.5,0.6,1.9c0.4,0.4,1,0.6,2,0.6h2.3v2.6h-2.7c-1.7,0-3-0.4-3.9-1.2
			c-0.9-0.8-1.3-2.1-1.3-3.9v-11h-2.4v-2.6h2.4v-4.6h3.1v4.6h4.8v2.6H249z"/>
		<path class="st1" d="M263,578.8c1-0.6,2.3-0.9,3.7-0.9v3.2h-0.9c-3.5,0-5.2,1.9-5.2,5.6v10.1h-3.1v-18.5h3.1v3
			C261.2,580.2,262,579.4,263,578.8z"/>
		<path class="st1" d="M286.3,578.2l-11.2,27.3h-3.2l3.7-9l-7.5-18.3h3.4l5.9,15l5.8-15H286.3z"/>
		<path class="st1" d="M301.7,595.9c-1.4-0.8-2.6-1.9-3.3-3.4c-0.8-1.4-1.2-3.1-1.2-5.1c0-1.9,0.4-3.6,1.2-5s2-2.6,3.4-3.3
			c1.4-0.8,3-1.1,4.7-1.1s3.3,0.4,4.7,1.1c1.4,0.8,2.6,1.9,3.4,3.3s1.2,3.1,1.2,5c0,1.9-0.4,3.6-1.2,5.1c-0.9,1.4-2,2.6-3.4,3.4
			c-1.4,0.8-3,1.2-4.8,1.2C304.7,597,303.1,596.7,301.7,595.9z M309.5,593.6c0.9-0.5,1.8-1.3,2.4-2.4c0.6-1,0.9-2.3,0.9-3.8
			c0-1.5-0.3-2.7-0.9-3.8c-0.6-1-1.3-1.8-2.3-2.4c-0.9-0.5-2-0.8-3.1-0.8c-1.1,0-2.2,0.3-3.1,0.8c-0.9,0.5-1.7,1.3-2.3,2.4
			c-0.6,1-0.9,2.3-0.9,3.8c0,1.5,0.3,2.7,0.9,3.8c0.6,1,1.3,1.8,2.2,2.4c0.9,0.5,2,0.8,3,0.8C307.6,594.4,308.6,594.1,309.5,593.6z"
			/>
		<path class="st1" d="M327.6,580.8h-4v16h-3.1v-16h-2.4v-2.6h2.4v-1.3c0-2.1,0.6-3.6,1.6-4.5c1-0.9,2.8-1.4,5.2-1.4v2.6
			c-1.3,0-2.3,0.3-2.8,0.8c-0.6,0.6-0.9,1.4-0.9,2.6v1.3h3.9L327.6,580.8L327.6,580.8z"/>
		<path class="st1" d="M354.2,574.6c1.9,0.9,3.3,2.4,4.3,4.1c1,1.8,1.5,3.9,1.5,6.3c0,2.5-0.5,4.5-1.5,6.2c-1,1.8-2.5,3.1-4.3,4.1
			c-1.9,0.9-4.1,1.4-6.7,1.4h-7.4v-23.6h7.4C350.1,573.2,352.4,573.7,354.2,574.6z M354.6,591.8c1.6-1.6,2.4-3.9,2.4-6.8
			c0-2.9-0.9-5.2-2.5-6.9c-1.6-1.6-4-2.5-7-2.5h-4.3v18.5h4.3C350.6,594.2,352.9,593.4,354.6,591.8z"/>
		<path class="st1" d="M364.2,574.6c-0.4-0.4-0.6-0.9-0.6-1.5c0-0.6,0.2-1,0.6-1.5c0.4-0.4,0.9-0.6,1.5-0.6c0.6,0,1,0.2,1.4,0.6
			c0.4,0.4,0.6,0.9,0.6,1.5c0,0.6-0.2,1-0.6,1.5s-0.9,0.6-1.4,0.6C365.1,575.2,364.7,575,364.2,574.6z M367.2,578.2v18.5h-3.1v-18.5
			H367.2z"/>
		<path class="st1" d="M384.3,579c1.2,0.7,2.1,1.6,2.6,2.6v-3.4h3.1v18.9c0,1.7-0.4,3.2-1,4.5c-0.8,1.3-1.8,2.4-3.1,3.1
			c-1.3,0.8-2.9,1.1-4.7,1.1c-2.5,0-4.4-0.6-6.1-1.7c-1.6-1.1-2.6-2.7-2.8-4.7h3c0.4,1.1,1,2.1,2.1,2.7s2.4,1,3.8,1
			c1.7,0,3.1-0.6,4.2-1.6c1-1,1.6-2.6,1.6-4.4v-3.9c-0.6,1-1.5,2-2.7,2.7c-1.2,0.8-2.6,1-4.2,1s-3.1-0.4-4.4-1.2
			c-1.3-0.9-2.4-2-3.1-3.4c-0.8-1.4-1.1-3.1-1.1-5c0-1.9,0.4-3.6,1.1-5c0.8-1.4,1.8-2.6,3.1-3.3c1.3-0.8,2.8-1.2,4.4-1.2
			C381.7,577.9,383.1,578.3,384.3,579z M386.1,583.8c-0.6-1-1.3-1.8-2.3-2.4c-0.9-0.6-2-0.9-3.1-0.9c-1.1,0-2.2,0.3-3.1,0.9
			c-0.9,0.6-1.7,1.3-2.3,2.4c-0.6,1-0.9,2.3-0.9,3.7c0,1.4,0.3,2.6,0.9,3.7c0.6,1,1.3,1.9,2.3,2.4c0.9,0.6,2,0.9,3.1,0.9
			c1.1,0,2.2-0.3,3.1-0.9c0.9-0.6,1.7-1.3,2.3-2.4c0.6-1,0.9-2.3,0.9-3.7C387,586.1,386.7,584.8,386.1,583.8z"/>
		<path class="st1" d="M395.4,574.6c-0.4-0.4-0.6-0.9-0.6-1.5c0-0.6,0.2-1,0.6-1.5c0.4-0.4,0.9-0.6,1.5-0.6c0.6,0,1,0.2,1.4,0.6
			c0.4,0.4,0.6,0.9,0.6,1.5c0,0.6-0.2,1-0.6,1.5s-0.9,0.6-1.4,0.6C396.3,575.2,395.9,575,395.4,574.6z M398.4,578.2v18.5h-3.1v-18.5
			H398.4z"/>
		<path class="st1" d="M407.4,580.8v11c0,0.9,0.2,1.5,0.6,1.9s1,0.6,2,0.6h2.3v2.6h-2.7c-1.7,0-3-0.4-3.9-1.2
			c-0.9-0.8-1.3-2.1-1.3-3.9v-11h-2.4v-2.6h2.4v-4.6h3.1v4.6h4.8v2.6H407.4z"/>
		<path class="st1" d="M416,582.5c0.8-1.4,1.8-2.6,3.1-3.3c1.3-0.8,2.8-1.2,4.4-1.2c1.6,0,3,0.4,4.3,1c1.2,0.7,2.1,1.6,2.6,2.6v-3.4
			h3.1v18.5h-3.1v-3.5c-0.6,1-1.5,2-2.7,2.6c-1.2,0.8-2.6,1-4.3,1c-1.6,0-3.1-0.4-4.4-1.2c-1.3-0.9-2.4-2-3.1-3.4
			c-0.8-1.4-1.1-3.1-1.1-5C414.8,585.5,415.3,583.9,416,582.5z M429.7,583.8c-0.6-1-1.3-1.8-2.3-2.4c-0.9-0.6-2-0.9-3.1-0.9
			c-1.1,0-2.2,0.3-3.1,0.9c-0.9,0.6-1.7,1.3-2.3,2.4c-0.6,1-0.9,2.3-0.9,3.7c0,1.4,0.3,2.6,0.9,3.7c0.6,1,1.3,1.9,2.3,2.4
			c0.9,0.6,2,0.9,3.1,0.9c1.1,0,2.2-0.3,3.1-0.9c0.9-0.6,1.7-1.3,2.3-2.4c0.6-1,0.9-2.3,0.9-3.7
			C430.6,586.1,430.3,584.8,429.7,583.8z"/>
		<path class="st1" d="M441.9,571.7v25.1h-3.1v-25.1H441.9z"/>
		<path class="st1" d="M470.2,591.6h-10.3l-1.9,5.2h-3.2l8.5-23.4h3.6l8.5,23.4h-3.3L470.2,591.6z M469.2,589l-4.3-11.9l-4.3,11.9
			H469.2z"/>
		<path class="st1" d="M486.5,580.8h-3.9v16h-3v-16h-2.4v-2.6h2.4v-1.3c0-2.1,0.6-3.6,1.6-4.5c1-0.9,2.8-1.4,5.2-1.4v2.6
			c-1.3,0-2.3,0.3-2.8,0.8c-0.6,0.6-0.9,1.4-0.9,2.6v1.3h3.9L486.5,580.8L486.5,580.8z"/>
		<path class="st1" d="M497.7,580.8h-3.9v16h-3.1v-16h-2.4v-2.6h2.4v-1.3c0-2.1,0.6-3.6,1.6-4.5s2.8-1.4,5.2-1.4v2.6
			c-1.3,0-2.3,0.3-2.8,0.8c-0.6,0.6-0.9,1.4-0.9,2.6v1.3h3.9L497.7,580.8L497.7,580.8z"/>
		<path class="st1" d="M501.3,582.5c0.8-1.4,1.8-2.6,3.1-3.3c1.3-0.8,2.8-1.2,4.4-1.2s3,0.4,4.3,1c1.2,0.7,2.1,1.6,2.6,2.6v-3.4h3.1
			v18.5h-3.1v-3.5c-0.6,1-1.5,2-2.7,2.6c-1.2,0.8-2.6,1-4.3,1c-1.6,0-3.1-0.4-4.4-1.2c-1.3-0.9-2.4-2-3.1-3.4
			c-0.8-1.4-1.1-3.1-1.1-5C500.2,585.5,500.5,583.9,501.3,582.5z M515,583.8c-0.6-1-1.3-1.8-2.3-2.4c-0.9-0.6-2-0.9-3.1-0.9
			c-1.1,0-2.2,0.3-3.1,0.9c-0.9,0.6-1.7,1.3-2.3,2.4c-0.6,1-0.9,2.3-0.9,3.7c0,1.4,0.3,2.6,0.9,3.7c0.6,1,1.3,1.9,2.3,2.4
			c0.9,0.6,2,0.9,3.1,0.9c1.1,0,2.2-0.3,3.1-0.9c0.9-0.6,1.7-1.3,2.3-2.4c0.6-1,0.9-2.3,0.9-3.7C515.9,586.1,515.6,584.8,515,583.8z
			"/>
		<path class="st1" d="M524.3,574.6c-0.4-0.4-0.6-0.9-0.6-1.5c0-0.6,0.2-1,0.6-1.5c0.4-0.4,0.9-0.6,1.5-0.6c0.6,0,1,0.2,1.4,0.6
			c0.4,0.4,0.6,0.9,0.6,1.5c0,0.6-0.2,1-0.6,1.5c-0.4,0.5-0.9,0.6-1.4,0.6C525.2,575.2,524.7,575,524.3,574.6z M527.3,578.2v18.5
			h-3.1v-18.5H527.3z"/>
		<path class="st1" d="M537.9,578.8c1-0.6,2.3-0.9,3.7-0.9v3.2h-0.9c-3.5,0-5.2,1.9-5.2,5.6v10.1h-3.1v-18.5h3.1v3
			C536.1,580.2,536.9,579.4,537.9,578.8z"/>
		<path class="st1" d="M547.9,596.4c-1.1-0.5-2-1.1-2.6-2c-0.7-0.9-1-1.9-1-3h3.2c0.1,0.9,0.6,1.7,1.3,2.3c0.8,0.6,1.8,0.9,3,0.9
			c1.1,0,2.1-0.3,2.7-0.8c0.7-0.5,1-1.1,1-2c0-0.9-0.4-1.4-1-1.8c-0.8-0.4-1.8-0.8-3.3-1.1c-1.4-0.4-2.5-0.8-3.4-1.1
			c-0.9-0.4-1.6-0.9-2.3-1.7s-0.9-1.7-0.9-2.9c0-0.9,0.3-1.8,0.9-2.6c0.6-0.8,1.3-1.4,2.4-1.9c1-0.5,2.2-0.7,3.6-0.7
			c2.1,0,3.7,0.5,5,1.5c1.2,1,2,2.5,2,4.3h-3.1c-0.1-0.9-0.5-1.7-1.1-2.4c-0.8-0.6-1.7-0.9-2.8-0.9c-1.1,0-2,0.3-2.6,0.8
			c-0.7,0.5-0.9,1.1-0.9,1.9c0,0.6,0.2,1.1,0.6,1.5c0.4,0.4,0.9,0.8,1.5,0.9c0.6,0.3,1.4,0.5,2.5,0.8c1.3,0.4,2.5,0.8,3.2,1
			c0.9,0.4,1.5,0.9,2.2,1.6c0.6,0.7,0.9,1.6,0.9,2.7c0,1-0.3,1.9-0.9,2.7c-0.6,0.9-1.3,1.4-2.4,1.9c-1,0.5-2.2,0.7-3.5,0.7
			C550.3,597,549,596.9,547.9,596.4z"/>
	</g>
</g>
</svg>
