<?xml version="1.0" encoding="utf-8"?>
<!-- Generator: Adobe Illustrator 26.4.1, SVG Export Plug-In . SVG Version: 6.00 Build 0)  -->
<svg version="1.1" id="圖層_1" xmlns="http://www.w3.org/2000/svg" xmlns:xlink="http://www.w3.org/1999/xlink" x="0px" y="0px"
	 width="246px" height="246px" viewBox="0 0 246 246" style="enable-background:new 0 0 246 246;" xml:space="preserve">
<style type="text/css">
	.st0{fill:#1F323D;}
</style>
<g>
	<path class="st0" d="M121.9,134.6c-13.7,0-14.1,20.8,0,20.8S135.6,134.6,121.9,134.6z M121.9,152.7c-10.1-0.2-10.1-15.1,0-15.3
		C132,137.5,132,152.5,121.9,152.7z"/>
	<path class="st0" d="M154.9,106.5c-0.8,0-1.4,0.6-1.4,1.4v10.4c-1.8-2.3-4.6-3.6-7.6-3.5c-6.8,0-10.4,5.2-10.4,10.4
		c-0.1,5.2,3.5,10.4,10.4,10.4c2.9,0.1,5.7-1.2,7.5-3.5v1.7c-0.1,0.8,0.5,1.5,1.3,1.5s1.5-0.5,1.5-1.3c0-0.1,0-0.2,0-0.2v-25.9
		C156.2,107.1,155.6,106.5,154.9,106.5z M145.9,132.8c-4.1,0.1-7.4-3.1-7.5-7.2c0-0.2,0-0.3,0-0.5c-0.2-4.2,3.1-7.7,7.3-7.8
		c4.2-0.2,7.7,3.1,7.8,7.3c0,0.2,0,0.4,0,0.5c0.2,4.1-3,7.5-7.1,7.6C146.2,132.8,146,132.8,145.9,132.8z"/>
	<path class="st0" d="M182.8,90.9c-0.8,0-1.4,0.6-1.4,1.4c0,0,0,0,0,0v1.7c-1.8-2.3-4.6-3.6-7.6-3.5c-6.8,0-10.4,5.2-10.4,10.4
		c-0.1,5.2,3.6,10.4,10.4,10.4c2.9,0.1,5.7-1.2,7.6-3.5v1.7c0,0.8,0.6,1.4,1.4,1.4s1.4-0.6,1.4-1.4V92.4
		C184.2,91.6,183.5,90.9,182.8,90.9L182.8,90.9z M173.8,108.6c-4.1,0.1-7.5-3.1-7.5-7.2c0-0.1,0-0.3,0-0.4c-0.2-4.2,3.1-7.7,7.3-7.8
		c4.2-0.2,7.7,3.1,7.8,7.3c0,0.2,0,0.4,0,0.5c0.2,4.1-3,7.5-7.1,7.7C174.1,108.6,173.9,108.6,173.8,108.6L173.8,108.6z"/>
	<path class="st0" d="M90.2,134.9c-3.7-0.2-7.2,1.8-9,5c-1.8-3.2-5.3-5.2-9-5c-3-0.1-5.8,1.3-7.5,3.6v-1.7c0-0.8-0.6-1.4-1.4-1.4
		c-0.8,0-1.4,0.6-1.4,1.4V154c0,0.8,0.6,1.4,1.4,1.4c0.8,0,1.4-0.6,1.4-1.4c0.1-1.7-0.1-8.6,0.1-11c0.1-0.3,0.1-0.7,0.3-1
		c1.1-2.5,3.6-4.2,7.2-4.3c4.1-0.2,7.5,3,7.6,7.1c0,0.2,0,0.3,0,0.5v8.7c0,0.8,0.6,1.4,1.4,1.4c0.8,0,1.4-0.6,1.4-1.4v-8.7l0,0
		c-0.2-4.1,3-7.5,7.1-7.7c0.1,0,0.3,0,0.4,0c2.7-0.2,5.3,1.3,6.5,3.6c0.7,1.5,1.1,3.2,1,4.9v7.8c0,0.8,0.6,1.4,1.4,1.4
		c0.8,0,1.4-0.6,1.4-1.4v-8.7C100.6,139.2,96.6,135.1,90.2,134.9z"/>
</g>
</svg>
