<?xml version="1.0" encoding="utf-8"?>
<!-- Generator: Adobe Illustrator 26.5.0, SVG Export Plug-In . SVG Version: 6.00 Build 0)  -->
<svg version="1.1" id="_層_2" xmlns="http://www.w3.org/2000/svg" xmlns:xlink="http://www.w3.org/1999/xlink" x="0px" y="0px"
	 viewBox="0 0 600 540.3" style="enable-background:new 0 0 600 540.3;" xml:space="preserve">
<style type="text/css">
	.st0{fill:#FFFFFF;}
	.st1{fill:#1F333D;}
	.st2{fill:#B3C33E;}
</style>
<rect x="-2.8" y="-3.9" class="st0" width="605.5" height="548"/>
<g>
	<g id="adi_logo-V-standard-EN">
		<g>
			<g>
				<g>
					<path class="st1" d="M100.5,220c0-66.1,53.7-119.8,119.8-119.8l46-0.1V19.6c-36.8-0.3-47-2.5-84.9,4.6
						c-0.4,0.1-0.7,0.2-1.1,0.2C89.3,42.9,20.6,123.5,20.6,220c0,110.2,89.8,200.8,200,200.8h201.9V19.6h-78v320.8l-124-0.5
						C154.3,339.8,100.5,286.1,100.5,220z"/>
					<path class="st2" d="M177,222.1c0,25.6,19.2,42.6,44.8,42.6h44.6v-89.2h-42.8C198,175.6,177,196.6,177,222.1z"/>
					<rect x="466.4" y="164.5" class="st1" width="89.8" height="257"/>
				</g>
				<polygon class="st2" points="467.2,19.5 545.1,19.5 545.1,42.1 489.3,42.1 489.3,86.4 545.1,86.4 545.1,108.5 467.2,108.5 				
					"/>
				<polygon class="st1" points="578.4,52.3 500.6,52.3 500.6,74.9 556.3,74.9 556.3,119.2 500.6,119.2 500.6,141.3 578.4,141.3 
									"/>
			</g>
		</g>
	</g>
	<g>
		<path class="st1" d="M281.8,468.4H272l-1.9,5H267l8.2-22.6h3.4l8.2,22.6h-3.2L281.8,468.4z M281,466l-4.1-11.4l-4.1,11.4H281z"/>
		<path class="st1" d="M290.4,459.7c0.7-1.4,1.8-2.4,3.1-3.3c1.3-0.7,2.7-1.1,4.4-1.1c1.4,0,2.7,0.3,3.9,0.9
			c1.2,0.7,2.1,1.5,2.7,2.5v-9.5h3v24.1h-3V470c-0.6,1-1.5,2-2.6,2.6c-1.1,0.7-2.5,1-4,1c-1.6,0-3.1-0.4-4.3-1.2
			c-1.3-0.7-2.3-1.9-3.1-3.3s-1.1-3-1.1-4.8C289.3,462.6,289.6,461.1,290.4,459.7z M303.6,461c-0.6-1-1.3-1.8-2.2-2.3
			c-0.9-0.6-2-0.8-3.1-0.8c-1.1,0-2.1,0.3-3.1,0.7c-0.9,0.6-1.7,1.3-2.1,2.2c-0.6,1-0.8,2.1-0.8,3.5c0,1.4,0.3,2.5,0.8,3.5
			s1.3,1.8,2.1,2.3c0.9,0.6,2,0.8,3.1,0.8c1.1,0,2.1-0.3,3.1-0.8c0.9-0.6,1.7-1.3,2.2-2.3c0.6-1,0.8-2.2,0.8-3.5
			C304.4,463,304.1,462,303.6,461z"/>
		<path class="st1" d="M337.6,456.1c1.1,0.6,2,1.4,2.6,2.6c0.7,1.1,0.9,2.5,0.9,4.2v10.5h-3v-10c0-1.8-0.5-3.2-1.3-4.1
			c-0.8-0.9-2-1.4-3.5-1.4c-1.6,0-2.8,0.5-3.7,1.5c-0.9,1-1.4,2.4-1.4,4.3v9.9h-3v-10.1c0-1.8-0.5-3.2-1.3-4.1
			c-0.8-0.9-2-1.4-3.5-1.4c-1.6,0-2.8,0.5-3.7,1.5c-0.9,1-1.4,2.4-1.4,4.3v9.9h-3v-17.9h3v2.6c0.6-0.9,1.4-1.7,2.3-2.1
			c1-0.5,2-0.7,3.3-0.7c1.5,0,2.8,0.4,4,1c1.1,0.7,2,1.7,2.6,3c0.5-1.3,1.3-2.2,2.5-3c1.1-0.7,2.4-1,3.8-1
			C335.3,455.3,336.5,455.6,337.6,456.1z"/>
		<path class="st1" d="M346.1,452.1c-0.4-0.4-0.6-0.8-0.6-1.4c0-0.6,0.2-1,0.6-1.4c0.4-0.4,0.8-0.6,1.4-0.6c0.6,0,1,0.2,1.4,0.6
			c0.4,0.4,0.6,0.8,0.6,1.4c0,0.6-0.2,1-0.6,1.4c-0.4,0.4-0.8,0.6-1.4,0.6C346.9,452.7,346.4,452.5,346.1,452.1z M349,455.6v17.9h-3
			v-17.9H349z"/>
		<path class="st1" d="M367.9,457.3c1.3,1.3,2,3.2,2,5.7v10.5h-3v-10c0-1.8-0.5-3.2-1.3-4.1c-0.9-0.9-2.1-1.4-3.6-1.4
			c-1.6,0-2.8,0.5-3.7,1.5c-0.9,1-1.4,2.4-1.4,4.3v9.9h-3v-17.9h3v2.5c0.6-0.9,1.4-1.6,2.4-2.1c1-0.5,2.1-0.7,3.3-0.7
			C364.9,455.3,366.6,455.9,367.9,457.3z"/>
		<path class="st1" d="M374.9,452.1c-0.4-0.4-0.6-0.8-0.6-1.4c0-0.6,0.2-1,0.6-1.4c0.4-0.4,0.8-0.6,1.4-0.6c0.6,0,1,0.2,1.4,0.6
			c0.4,0.4,0.6,0.8,0.6,1.4c0,0.6-0.2,1-0.6,1.4c-0.4,0.4-0.8,0.6-1.4,0.6C375.8,452.7,375.4,452.5,374.9,452.1z M377.8,455.6v17.9
			h-3v-17.9H377.8z"/>
		<path class="st1" d="M385.5,473.1c-1.1-0.5-2-1.1-2.6-2c-0.7-0.8-1-1.8-1-2.9h3.1c0.1,0.9,0.5,1.6,1.2,2.1c0.7,0.6,1.8,0.8,3,0.8
			c1.1,0,2-0.3,2.7-0.7c0.7-0.5,0.9-1.1,0.9-1.9c0-0.7-0.4-1.4-1-1.8c-0.7-0.4-1.8-0.7-3.3-1.1c-1.3-0.4-2.4-0.7-3.3-1
			c-0.8-0.4-1.6-0.9-2.1-1.6c-0.6-0.7-0.9-1.7-0.9-2.8c0-0.9,0.3-1.8,0.8-2.5c0.6-0.7,1.3-1.4,2.3-1.8c1-0.5,2.1-0.7,3.4-0.7
			c2,0,3.5,0.5,4.7,1.5c1.2,1,1.9,2.3,2,4.1h-3c-0.1-0.9-0.5-1.7-1.1-2.2c-0.7-0.6-1.6-0.8-2.8-0.8c-1,0-2,0.2-2.5,0.7
			c-0.6,0.5-0.9,1-0.9,1.8c0,0.6,0.2,1,0.6,1.5c0.4,0.4,0.8,0.7,1.4,0.9c0.6,0.2,1.4,0.5,2.4,0.7c1.3,0.4,2.3,0.7,3.2,1
			c0.8,0.4,1.5,0.8,2,1.5c0.6,0.7,0.8,1.6,0.9,2.6c0,1-0.3,1.9-0.8,2.6c-0.6,0.7-1.3,1.4-2.3,1.9c-1,0.5-2.1,0.7-3.4,0.7
			C387.8,473.7,386.6,473.5,385.5,473.1z"/>
		<path class="st1" d="M403.4,458v10.5c0,0.8,0.2,1.5,0.6,1.9c0.4,0.4,1,0.6,2,0.6h2.1v2.5h-2.7c-1.7,0-2.9-0.4-3.7-1.1
			c-0.8-0.7-1.2-2-1.2-3.7v-10.5h-2.3v-2.4h2.3v-4.5h3v4.5h4.6v2.4L403.4,458L403.4,458z"/>
		<path class="st1" d="M416.9,456.1c0.9-0.6,2.1-0.8,3.5-0.8v3.1h-0.7c-3.3,0-5,1.8-5,5.4v9.7h-3v-17.9h3v2.9
			C415.2,457.4,415.9,456.7,416.9,456.1z"/>
		<path class="st1" d="M423.9,459.7c0.7-1.4,1.8-2.4,3.1-3.3c1.3-0.7,2.7-1.1,4.3-1.1c1.6,0,2.9,0.4,4.1,1c1.1,0.7,2,1.5,2.6,2.5
			v-3.3h3v17.9h-3v-3.3c-0.6,1-1.5,1.9-2.6,2.6c-1.2,0.7-2.5,1-4.1,1s-3-0.4-4.3-1.2c-1.3-0.7-2.3-1.9-3.1-3.3
			c-0.7-1.4-1.1-3-1.1-4.8C422.8,462.6,423.1,461.1,423.9,459.7z M437.1,461c-0.6-1-1.3-1.8-2.2-2.3c-0.9-0.6-2-0.8-3.1-0.8
			c-1.1,0-2.1,0.3-3.1,0.7c-0.9,0.6-1.7,1.3-2.1,2.2c-0.6,1-0.8,2.1-0.8,3.5c0,1.4,0.3,2.5,0.8,3.5s1.3,1.8,2.1,2.3
			c0.9,0.6,2,0.8,3.1,0.8c1.1,0,2.1-0.3,3.1-0.8c0.9-0.6,1.7-1.3,2.2-2.3c0.6-1,0.8-2.2,0.8-3.5C437.9,463,437.6,462,437.1,461z"/>
		<path class="st1" d="M449.5,458v10.5c0,0.8,0.2,1.5,0.6,1.9c0.4,0.4,1,0.6,2,0.6h2.1v2.5h-2.6c-1.7,0-2.9-0.4-3.7-1.1
			c-0.8-0.7-1.2-2-1.2-3.7v-10.5h-2.3v-2.4h2.3v-4.5h3v4.5h4.6v2.4L449.5,458L449.5,458z"/>
		<path class="st1" d="M457.8,452.1c-0.4-0.4-0.6-0.8-0.6-1.4c0-0.6,0.2-1,0.6-1.4c0.4-0.4,0.8-0.6,1.4-0.6c0.6,0,1,0.2,1.4,0.6
			c0.4,0.4,0.6,0.8,0.6,1.4c0,0.6-0.2,1-0.6,1.4c-0.4,0.4-0.8,0.6-1.4,0.6C458.7,452.7,458.2,452.5,457.8,452.1z M460.7,455.6v17.9
			h-3v-17.9H460.7z"/>
		<path class="st1" d="M469,472.6c-1.4-0.7-2.4-1.9-3.2-3.3s-1.1-3.1-1.1-4.8c0-1.9,0.4-3.4,1.2-4.8c0.8-1.4,1.9-2.5,3.3-3.3
			s2.9-1.1,4.6-1.1s3.3,0.4,4.6,1.1c1.4,0.7,2.4,1.9,3.3,3.3s1.2,3,1.2,4.8s-0.4,3.4-1.2,4.8s-2,2.5-3.3,3.3c-1.4,0.7-3,1.1-4.6,1.1
			C471.9,473.7,470.4,473.3,469,472.6z M476.5,470.4c0.9-0.5,1.7-1.2,2.2-2.2c0.6-1,0.8-2.2,0.8-3.6s-0.3-2.6-0.8-3.6
			c-0.6-1-1.3-1.8-2.2-2.2s-1.9-0.7-3-0.7c-1.1,0-2,0.3-3,0.7s-1.6,1.2-2.1,2.2s-0.8,2.2-0.8,3.6c0,1.5,0.3,2.7,0.8,3.7
			c0.6,1,1.2,1.8,2.1,2.2c0.9,0.5,1.9,0.7,3,0.7C474.6,471.1,475.6,470.9,476.5,470.4z"/>
		<path class="st1" d="M500.6,457.3c1.3,1.3,2,3.2,2,5.7v10.5h-3v-10c0-1.8-0.5-3.2-1.3-4.1c-0.9-0.9-2.1-1.4-3.6-1.4
			c-1.6,0-2.8,0.5-3.7,1.5c-0.9,1-1.4,2.4-1.4,4.3v9.9h-3v-17.9h3v2.5c0.6-0.9,1.4-1.6,2.4-2.1c1-0.5,2.1-0.7,3.3-0.7
			C497.4,455.3,499.2,455.9,500.6,457.3z"/>
		<path class="st1" d="M523.4,458h-3.7v15.4h-3V458h-2.3v-2.4h2.3v-1.3c0-2,0.6-3.4,1.6-4.4c1-0.9,2.7-1.4,4.9-1.4v2.5
			c-1.3,0-2.2,0.3-2.8,0.7c-0.6,0.5-0.8,1.4-0.8,2.5v1.3h3.7L523.4,458L523.4,458z"/>
		<path class="st1" d="M530.1,472.6c-1.4-0.7-2.4-1.9-3.2-3.3s-1.1-3.1-1.1-4.8c0-1.9,0.4-3.4,1.2-4.8c0.8-1.4,1.9-2.5,3.3-3.3
			s2.9-1.1,4.6-1.1c1.7,0,3.3,0.4,4.6,1.1c1.4,0.7,2.4,1.9,3.3,3.3c0.8,1.4,1.2,3,1.2,4.8s-0.4,3.4-1.2,4.8s-2,2.5-3.3,3.3
			c-1.4,0.7-3,1.1-4.6,1.1S531.5,473.3,530.1,472.6z M537.7,470.4c0.9-0.5,1.7-1.2,2.2-2.2c0.6-1,0.8-2.2,0.8-3.6s-0.3-2.6-0.8-3.6
			c-0.6-1-1.3-1.8-2.2-2.2s-1.9-0.7-3-0.7s-2,0.3-3,0.7s-1.6,1.2-2.1,2.2s-0.8,2.2-0.8,3.6c0,1.5,0.3,2.7,0.8,3.7
			c0.6,1,1.2,1.8,2.1,2.2c0.9,0.5,1.9,0.7,3,0.7C535.7,471.1,536.7,470.9,537.7,470.4z"/>
		<path class="st1" d="M552.9,456.1c0.9-0.6,2.1-0.8,3.5-0.8v3.1h-0.8c-3.3,0-5,1.8-5,5.4v9.7h-3v-17.9h3v2.9
			C551.2,457.4,551.9,456.7,552.9,456.1z"/>
		<path class="st1" d="M190.2,491.2c1.8,0.9,3.2,2.2,4.2,4c0.9,1.7,1.5,3.7,1.5,6c0,2.3-0.5,4.4-1.5,6c-0.9,1.7-2.3,3-4.2,3.9
			c-1.9,0.9-4,1.4-6.4,1.4h-7.1v-22.7h7.1C186.2,489.8,188.3,490.3,190.2,491.2z M190.4,507.7c1.6-1.6,2.3-3.7,2.3-6.5
			c0-2.8-0.7-5-2.3-6.6c-1.6-1.6-3.8-2.4-6.7-2.4h-4.1v17.9h4.1C186.6,510.1,188.9,509.3,190.4,507.7z"/>
		<path class="st1" d="M199.8,491.2c-0.4-0.4-0.6-0.8-0.6-1.4c0-0.6,0.2-1,0.6-1.4c0.4-0.4,0.8-0.6,1.4-0.6c0.6,0,1,0.2,1.4,0.6
			c0.4,0.4,0.6,0.8,0.6,1.4c0,0.6-0.2,1-0.6,1.4s-0.8,0.6-1.4,0.6C200.7,491.7,200.2,491.6,199.8,491.2z M202.6,494.7v17.9h-3v-17.9
			H202.6z"/>
		<path class="st1" d="M219.1,495.4c1.2,0.7,2,1.5,2.6,2.5v-3.3h3v18.2c0,1.7-0.4,3.1-1,4.4c-0.7,1.3-1.7,2.2-3,3
			c-1.3,0.7-2.8,1.1-4.6,1.1c-2.3,0-4.3-0.6-5.9-1.7c-1.6-1.1-2.5-2.6-2.8-4.6h3c0.4,1.1,1,2,2,2.6c1,0.7,2.2,1,3.7,1
			c1.7,0,3-0.5,4-1.5s1.6-2.4,1.6-4.3v-3.7c-0.6,1-1.5,2-2.6,2.6c-1.1,0.7-2.5,1-4,1c-1.6,0-3.1-0.4-4.3-1.2
			c-1.3-0.7-2.3-1.9-3.1-3.3c-0.7-1.4-1.1-3-1.1-4.8s0.4-3.4,1.1-4.8c0.7-1.4,1.8-2.4,3.1-3.2c1.3-0.7,2.7-1.1,4.3-1.1
			C216.6,494.3,218,494.7,219.1,495.4z M220.9,500c-0.6-1-1.3-1.8-2.2-2.3c-0.9-0.6-2-0.8-3.1-0.8c-1.1,0-2.1,0.3-3.1,0.7
			c-0.9,0.6-1.7,1.3-2.1,2.2c-0.6,1-0.8,2.1-0.8,3.5c0,1.4,0.3,2.5,0.8,3.5c0.6,1,1.3,1.8,2.1,2.3c0.9,0.6,2,0.8,3.1,0.8
			c1.1,0,2.1-0.3,3.1-0.8c0.9-0.6,1.7-1.3,2.2-2.3c0.6-1,0.8-2.2,0.8-3.5C221.8,502.1,221.4,501,220.9,500z"/>
		<path class="st1" d="M229.9,491.2c-0.4-0.4-0.6-0.8-0.6-1.4c0-0.6,0.2-1,0.6-1.4c0.4-0.4,0.8-0.6,1.4-0.6c0.6,0,1,0.2,1.4,0.6
			c0.4,0.4,0.6,0.8,0.6,1.4c0,0.6-0.2,1-0.6,1.4c-0.4,0.4-0.8,0.6-1.4,0.6C230.7,491.7,230.2,491.6,229.9,491.2z M232.7,494.7v17.9
			h-3v-17.9H232.7z"/>
		<path class="st1" d="M241.4,497.1v10.5c0,0.8,0.2,1.5,0.6,1.9c0.4,0.4,1,0.6,2,0.6h2.1v2.5h-2.7c-1.7,0-2.9-0.4-3.7-1.1
			c-0.8-0.7-1.2-2-1.2-3.7v-10.5h-2.3v-2.4h2.3v-4.5h3v4.5h4.6v2.4L241.4,497.1L241.4,497.1z"/>
		<path class="st1" d="M249.6,498.7c0.7-1.4,1.8-2.4,3.1-3.2c1.3-0.7,2.7-1.1,4.3-1.1c1.6,0,2.9,0.4,4.1,1c1.1,0.7,2,1.5,2.6,2.5
			v-3.3h3v17.9h-3v-3.3c-0.6,1-1.5,1.9-2.6,2.6c-1.2,0.7-2.5,1-4.1,1s-3-0.4-4.3-1.2c-1.3-0.7-2.3-1.9-3.1-3.3s-1.1-3-1.1-4.8
			C248.5,501.7,248.8,500.1,249.6,498.7z M262.8,500c-0.6-1-1.3-1.8-2.2-2.3c-0.9-0.6-2-0.8-3.1-0.8s-2.1,0.3-3.1,0.7
			c-0.9,0.6-1.7,1.3-2.1,2.2c-0.6,1-0.8,2.1-0.8,3.5c0,1.4,0.3,2.5,0.8,3.5c0.6,1,1.3,1.8,2.1,2.3c0.9,0.6,2,0.8,3.1,0.8
			s2.1-0.3,3.1-0.8c0.9-0.6,1.7-1.3,2.2-2.3c0.6-1,0.8-2.2,0.8-3.5C263.6,502.1,263.3,501,262.8,500z"/>
		<path class="st1" d="M274.6,488.4v24.1h-3v-24.1H274.6z"/>
		<path class="st1" d="M291.3,489.8v22.7h-3v-22.7H291.3z"/>
		<path class="st1" d="M310.3,496.3c1.3,1.3,2,3.2,2,5.7v10.5h-3v-10c0-1.8-0.5-3.2-1.3-4.1c-0.9-0.9-2.1-1.4-3.6-1.4
			c-1.6,0-2.8,0.5-3.7,1.5c-0.9,1-1.4,2.4-1.4,4.3v9.9h-3v-17.9h3v2.5c0.6-0.9,1.4-1.6,2.4-2.1c1-0.5,2.1-0.7,3.3-0.7
			C307.2,494.3,309,495,310.3,496.3z"/>
		<path class="st1" d="M317.2,498.7c0.7-1.4,1.8-2.4,3.1-3.2c1.3-0.7,2.7-1.1,4.4-1.1c1.4,0,2.7,0.3,3.9,0.9
			c1.2,0.7,2.1,1.5,2.7,2.5v-9.5h3v24.1h-3v-3.3c-0.6,1-1.5,2-2.6,2.6s-2.5,1-4,1c-1.6,0-3.1-0.4-4.3-1.2c-1.3-0.7-2.3-1.9-3.1-3.3
			s-1.1-3-1.1-4.8C316,501.7,316.4,500.1,317.2,498.7z M330.4,500c-0.6-1-1.3-1.8-2.2-2.3c-0.9-0.6-2-0.8-3.1-0.8s-2.1,0.3-3.1,0.7
			c-0.9,0.6-1.7,1.3-2.1,2.2c-0.6,1-0.8,2.1-0.8,3.5c0,1.4,0.3,2.5,0.8,3.5c0.6,1,1.3,1.8,2.1,2.3c0.9,0.6,2,0.8,3.1,0.8
			s2.1-0.3,3.1-0.8c0.9-0.6,1.7-1.3,2.2-2.3c0.6-1,0.8-2.2,0.8-3.5C331.2,502.1,330.9,501,330.4,500z"/>
		<path class="st1" d="M355,494.7v17.9h-3v-2.7c-0.6,0.9-1.4,1.6-2.3,2.1c-1,0.5-2.1,0.7-3.3,0.7c-1.4,0-2.6-0.3-3.7-0.8
			c-1.1-0.6-2-1.4-2.6-2.6c-0.7-1.1-0.9-2.5-0.9-4.2v-10.4h3v10c0,1.8,0.5,3.1,1.3,4.1c0.9,0.9,2.1,1.4,3.6,1.4
			c1.6,0,2.8-0.5,3.7-1.5c0.9-0.9,1.4-2.4,1.4-4.3v-9.8H355z"/>
		<path class="st1" d="M362.7,512.1c-1.1-0.5-2-1.1-2.6-2c-0.7-0.8-1-1.8-1-2.9h3.1c0.1,0.9,0.5,1.6,1.2,2.1s1.8,0.8,3,0.8
			c1.1,0,2-0.3,2.7-0.7c0.7-0.5,0.9-1.1,0.9-1.9s-0.4-1.4-1-1.8c-0.7-0.4-1.8-0.7-3.3-1.1c-1.3-0.4-2.4-0.7-3.3-1
			c-0.8-0.4-1.6-0.9-2.1-1.6c-0.6-0.7-0.9-1.7-0.9-2.8c0-0.9,0.3-1.8,0.8-2.5c0.6-0.7,1.3-1.4,2.3-1.8c1-0.5,2.1-0.7,3.4-0.7
			c2,0,3.5,0.5,4.7,1.5c1.2,1,1.9,2.3,2,4.1h-3c-0.1-0.9-0.5-1.7-1.1-2.2c-0.7-0.6-1.6-0.8-2.8-0.8c-1,0-2,0.2-2.5,0.7
			c-0.6,0.5-0.9,1-0.9,1.8c0,0.6,0.2,1.1,0.6,1.5c0.4,0.4,0.8,0.7,1.4,0.9c0.6,0.2,1.4,0.5,2.4,0.7c1.3,0.4,2.3,0.7,3.2,1
			c0.8,0.4,1.5,0.8,2,1.5c0.6,0.7,0.8,1.6,0.9,2.6c0,1-0.3,1.9-0.8,2.6c-0.6,0.7-1.3,1.4-2.3,1.9c-1,0.5-2.1,0.7-3.4,0.7
			C365,512.8,363.7,512.6,362.7,512.1z"/>
		<path class="st1" d="M380.7,497.1v10.5c0,0.8,0.2,1.5,0.6,1.9c0.4,0.4,1,0.6,2,0.6h2.1v2.5h-2.7c-1.7,0-2.9-0.4-3.7-1.1
			c-0.8-0.7-1.2-2-1.2-3.7v-10.5h-2.3v-2.4h2.3v-4.5h3v4.5h4.6v2.4L380.7,497.1L380.7,497.1z"/>
		<path class="st1" d="M394.1,495.2c0.9-0.6,2.1-0.8,3.5-0.8v3.1h-0.7c-3.3,0-5,1.8-5,5.4v9.7h-3v-17.9h3v2.9
			C392.4,496.6,393.1,495.7,394.1,495.2z"/>
		<path class="st1" d="M401.1,491.2c-0.4-0.4-0.6-0.8-0.6-1.4c0-0.6,0.2-1,0.6-1.4c0.4-0.4,0.8-0.6,1.4-0.6c0.6,0,1,0.2,1.4,0.6
			c0.4,0.4,0.6,0.8,0.6,1.4c0,0.6-0.2,1-0.6,1.4c-0.4,0.4-0.8,0.6-1.4,0.6C402,491.7,401.6,491.6,401.1,491.2z M404,494.7v17.9h-3
			v-17.9H404z"/>
		<path class="st1" d="M425.3,504.8h-14.2c0.1,1.8,0.7,3.2,1.8,4.1c1.1,1,2.4,1.5,4,1.5c1.3,0,2.3-0.3,3.2-0.9
			c0.8-0.6,1.5-1.4,1.8-2.4h3.2c-0.5,1.7-1.4,3.1-2.9,4.2c-1.4,1.1-3.3,1.6-5.3,1.6c-1.7,0-3.3-0.4-4.6-1.1
			c-1.3-0.7-2.4-1.9-3.2-3.3s-1.1-3.1-1.1-4.8c0-1.9,0.4-3.4,1.1-4.8s1.8-2.4,3.1-3.3c1.3-0.7,2.9-1.1,4.6-1.1
			c1.7,0,3.2,0.4,4.5,1.1c1.3,0.7,2.3,1.8,3,3.1c0.7,1.3,1,2.8,1,4.4C425.4,503.5,425.3,504.1,425.3,504.8z M421.6,499.4
			c-0.5-0.8-1.2-1.4-2-1.9s-1.8-0.7-2.9-0.7c-1.5,0-2.8,0.5-3.8,1.4c-1,0.9-1.7,2.3-1.8,4h11.2C422.3,501.1,422,500.2,421.6,499.4z"
			/>
		<path class="st1" d="M431.9,512.1c-1.1-0.5-2-1.1-2.6-2c-0.7-0.8-1-1.8-1-2.9h3.1c0.1,0.9,0.5,1.6,1.2,2.1s1.8,0.8,3,0.8
			c1.1,0,2-0.3,2.7-0.7c0.7-0.5,0.9-1.1,0.9-1.9s-0.4-1.4-1-1.8c-0.7-0.4-1.8-0.7-3.3-1.1c-1.3-0.4-2.4-0.7-3.3-1
			c-0.8-0.4-1.6-0.9-2.1-1.6c-0.6-0.7-0.9-1.7-0.9-2.8c0-0.9,0.3-1.8,0.8-2.5c0.6-0.7,1.3-1.4,2.3-1.8c1-0.5,2.1-0.7,3.4-0.7
			c2,0,3.5,0.5,4.7,1.5c1.2,1,1.9,2.3,2,4.1h-3c-0.1-0.9-0.5-1.7-1.1-2.2c-0.7-0.6-1.6-0.8-2.8-0.8c-1,0-2,0.2-2.5,0.7
			c-0.6,0.5-0.9,1-0.9,1.8c0,0.6,0.2,1.1,0.6,1.5c0.4,0.4,0.8,0.7,1.4,0.9c0.6,0.2,1.4,0.5,2.4,0.7c1.3,0.4,2.3,0.7,3.2,1
			c0.8,0.4,1.5,0.8,2,1.5c0.6,0.7,0.8,1.6,0.9,2.6c0,1-0.3,1.9-0.8,2.6c-0.6,0.7-1.3,1.4-2.3,1.9c-1,0.5-2.1,0.7-3.4,0.7
			C434.2,512.8,433,512.6,431.9,512.1z"/>
		<path class="st1" d="M449.4,508.4l-3.6,8.7h-2l2.4-8.7H449.4z"/>
		<path class="st1" d="M486.6,495.2c1.1,0.6,2,1.4,2.6,2.6c0.7,1.1,0.9,2.5,0.9,4.2v10.5h-3v-10c0-1.8-0.5-3.2-1.3-4.1
			c-0.8-0.9-2-1.4-3.5-1.4c-1.6,0-2.8,0.5-3.7,1.5c-0.9,1-1.4,2.4-1.4,4.3v9.9h-3v-10.1c0-1.8-0.5-3.2-1.3-4.1
			c-0.8-0.9-2-1.4-3.5-1.4c-1.6,0-2.8,0.5-3.7,1.5c-0.9,1-1.4,2.4-1.4,4.3v9.9h-3v-17.9h3v2.6c0.6-0.9,1.4-1.7,2.3-2.1
			c1-0.5,2-0.7,3.3-0.7c1.5,0,2.8,0.4,4,1c1.1,0.7,2,1.7,2.6,3c0.5-1.3,1.3-2.2,2.5-3c1.1-0.7,2.4-1,3.8-1
			C484.3,494.3,485.5,494.6,486.6,495.2z"/>
		<path class="st1" d="M498.2,511.7c-1.4-0.7-2.4-1.9-3.2-3.3s-1.1-3.1-1.1-4.8c0-1.9,0.4-3.4,1.2-4.8c0.8-1.4,1.9-2.5,3.3-3.3
			c1.4-0.7,2.9-1.1,4.6-1.1c1.7,0,3.3,0.4,4.6,1.1c1.4,0.7,2.4,1.9,3.3,3.3c0.8,1.4,1.2,3,1.2,4.8s-0.4,3.4-1.2,4.8
			c-0.8,1.4-2,2.5-3.3,3.3c-1.4,0.7-3,1.1-4.6,1.1C501.1,512.8,499.6,512.5,498.2,511.7z M505.8,509.5c0.9-0.5,1.7-1.2,2.2-2.2
			c0.6-1,0.8-2.2,0.8-3.6c0-1.4-0.3-2.6-0.8-3.6c-0.6-1-1.3-1.8-2.2-2.2s-1.9-0.7-3-0.7s-2,0.3-3,0.7c-0.9,0.5-1.6,1.2-2.1,2.2
			c-0.6,1-0.8,2.2-0.8,3.6c0,1.5,0.3,2.7,0.8,3.7c0.6,1,1.2,1.8,2.1,2.2c0.9,0.5,1.9,0.7,3,0.7C503.8,510.2,504.8,510,505.8,509.5z"
			/>
		<path class="st1" d="M515.8,498.7c0.7-1.4,1.8-2.4,3.1-3.2c1.3-0.7,2.7-1.1,4.4-1.1c1.4,0,2.7,0.3,3.9,0.9
			c1.2,0.7,2.1,1.5,2.7,2.5v-9.5h3v24.1h-3v-3.3c-0.6,1-1.5,2-2.6,2.6c-1.1,0.7-2.5,1-4,1c-1.6,0-3.1-0.4-4.3-1.2
			c-1.3-0.7-2.3-1.9-3.1-3.3c-0.7-1.4-1.1-3-1.1-4.8C514.7,501.7,515.1,500.1,515.8,498.7z M529,500c-0.6-1-1.3-1.8-2.2-2.3
			c-0.9-0.6-2-0.8-3.1-0.8c-1.1,0-2.1,0.3-3.1,0.7c-0.9,0.6-1.7,1.3-2.1,2.2c-0.6,1-0.8,2.1-0.8,3.5c0,1.4,0.3,2.5,0.8,3.5
			c0.6,1,1.3,1.8,2.1,2.3c0.9,0.6,2,0.8,3.1,0.8c1.1,0,2.1-0.3,3.1-0.8c0.9-0.6,1.7-1.3,2.2-2.3c0.6-1,0.8-2.2,0.8-3.5
			C529.9,502.1,529.6,501,529,500z"/>
		<path class="st1" d="M537.9,498.7c0.7-1.4,1.8-2.4,3.1-3.2c1.3-0.7,2.7-1.1,4.3-1.1c1.6,0,2.9,0.4,4.1,1c1.1,0.7,2,1.5,2.6,2.5
			v-3.3h3v17.9h-3v-3.3c-0.6,1-1.5,1.9-2.6,2.6c-1.1,0.7-2.5,1-4.1,1s-3-0.4-4.3-1.2c-1.3-0.7-2.3-1.9-3.1-3.3
			c-0.7-1.4-1.1-3-1.1-4.8C536.8,501.7,537.1,500.1,537.9,498.7z M551.1,500c-0.6-1-1.3-1.8-2.2-2.3c-0.9-0.6-2-0.8-3.1-0.8
			c-1.1,0-2.1,0.3-3.1,0.7c-0.9,0.6-1.7,1.3-2.1,2.2c-0.6,1-0.8,2.1-0.8,3.5c0,1.4,0.3,2.5,0.8,3.5c0.6,1,1.3,1.8,2.1,2.3
			c0.9,0.6,2,0.8,3.1,0.8c1.1,0,2.1-0.3,3.1-0.8c0.9-0.6,1.7-1.3,2.2-2.3c0.6-1,0.8-2.2,0.8-3.5C551.9,502.1,551.5,501,551.1,500z"
			/>
	</g>
</g>
</svg>
