<?xml version="1.0" encoding="utf-8"?>
<!-- Generator: Adobe Illustrator 26.5.0, SVG Export Plug-In . SVG Version: 6.00 Build 0)  -->
<svg version="1.1" id="_層_1" xmlns="http://www.w3.org/2000/svg" xmlns:xlink="http://www.w3.org/1999/xlink" x="0px" y="0px"
	 viewBox="0 0 860 460" style="enable-background:new 0 0 860 460;" xml:space="preserve">
<style type="text/css">
	.st0{fill:#FFFFFF;}
	.st1{fill:none;stroke:#4D4D4D;stroke-miterlimit:10;}
	.st2{fill:#386C8A;}
	.st3{fill:#2A5167;}
	.st4{fill:#1F323D;}
	.st5{fill:#B4C43F;}
	.st6{fill:#B3B3B3;}
</style>
<rect x="-4" y="-2.5" class="st0" width="868" height="465"/>
<g>
	<line class="st1" x1="427.7" y1="42.1" x2="427.9" y2="222.4"/>
	<path class="st1" d="M247.2,112.5V90.8c0.1-4.3,4.3-7.8,9.3-7.8h346.9c5.2,0,9.3,3.6,9.3,8v21.4"/>
	<path class="st2" d="M503.2,197.5H356.8c-2.8,0-5-2.2-5-5v-22c0-2.8,2.2-5,5-5h146.4c2.8,0,5,2.2,5,5v22
		C508.2,195.3,506,197.5,503.2,197.5z"/>
	<g>
		<path class="st0" d="M367.1,181.8c0-4.3,2.5-6.9,5.9-6.9c1.6,0,2.9,0.8,3.6,1.6l-0.9,1.1c-0.7-0.7-1.6-1.3-2.7-1.3
			c-2.5,0-4.2,2.1-4.2,5.4s1.6,5.4,4.1,5.4c1.3,0,2.2-0.6,3.1-1.5l0.9,1c-1,1.2-2.3,1.9-4,1.9C369.6,188.6,367.1,186,367.1,181.8
			L367.1,181.8z"/>
		<path class="st0" d="M379.2,174h1.6v3.9l0,2c0.9-0.9,1.9-1.6,3.2-1.6c2,0,3,1.3,3,3.8v6.2h-1.6v-6c0-1.8-0.6-2.6-1.9-2.6
			c-1,0-1.7,0.5-2.7,1.5v7.1h-1.6L379.2,174L379.2,174z"/>
		<path class="st0" d="M389.8,175.5c0-0.7,0.5-1.1,1.1-1.1s1.1,0.4,1.1,1.1c0,0.6-0.5,1.1-1.1,1.1S389.8,176.1,389.8,175.5z
			 M390.1,178.6h1.6v9.8h-1.6V178.6z"/>
		<path class="st0" d="M394.4,183.5c0-3.2,2.1-5.1,4.4-5.1c2.5,0,3.9,1.8,3.9,4.6c0,0.4,0,0.7-0.1,0.9H396c0.1,2.1,1.4,3.4,3.2,3.4
			c1,0,1.7-0.3,2.5-0.8l0.6,1.1c-0.9,0.6-1.9,1-3.2,1C396.4,188.6,394.4,186.7,394.4,183.5L394.4,183.5z M401.2,182.7
			c0-2-0.9-3-2.4-3c-1.4,0-2.6,1.1-2.8,3H401.2z"/>
		<path class="st0" d="M409.5,175.3c-0.4-0.2-0.8-0.2-1.1-0.2c-0.9,0-1.4,0.7-1.4,1.9v1.6h2.1v1.3H407v8.4h-1.6v-8.4H404v-1.2
			l1.3-0.1V177c0-2,0.9-3.2,2.8-3.2c0.6,0,1.2,0.1,1.6,0.3L409.5,175.3L409.5,175.3z"/>
		<path class="st0" d="M414.1,186.6l1-1.1c1,1,2.3,1.6,3.7,1.6c1.7,0,2.8-0.9,2.8-2.2s-1-1.8-2.2-2.3l-1.9-0.8
			c-1.2-0.5-2.7-1.5-2.7-3.4c0-2,1.8-3.5,4.2-3.5c1.6,0,3,0.7,3.9,1.6l-0.9,1.1c-0.8-0.8-1.8-1.2-3-1.2c-1.5,0-2.5,0.8-2.5,1.9
			c0,1.3,1.1,1.8,2.2,2.2l1.9,0.8c1.5,0.7,2.7,1.6,2.7,3.5c0,2.1-1.7,3.8-4.5,3.8C416.9,188.6,415.3,187.8,414.1,186.6L414.1,186.6z
			"/>
		<path class="st0" d="M425,183.5c0-3.2,2.1-5.1,4.4-5.1c2.5,0,3.9,1.8,3.9,4.6c0,0.4,0,0.7-0.1,0.9h-6.6c0.1,2.1,1.4,3.4,3.2,3.4
			c1,0,1.7-0.3,2.5-0.8l0.6,1.1c-0.9,0.6-1.9,1-3.2,1C427,188.6,425,186.7,425,183.5L425,183.5z M431.8,182.7c0-2-0.9-3-2.4-3
			c-1.4,0-2.6,1.1-2.8,3H431.8z"/>
		<path class="st0" d="M434.9,183.5c0-3.3,2.2-5.1,4.7-5.1c1.3,0,2.2,0.5,2.9,1.1l-0.9,1.1c-0.6-0.5-1.2-0.9-2-0.9
			c-1.8,0-3.1,1.5-3.1,3.8s1.2,3.8,3,3.8c0.9,0,1.7-0.4,2.3-1l0.7,1.1c-0.9,0.8-2,1.2-3.1,1.2C436.9,188.6,434.9,186.7,434.9,183.5
			L434.9,183.5z"/>
		<path class="st0" d="M444.8,178.6h1.4l0.1,1.8h0c0.7-1.2,1.7-2,2.8-2c0.4,0,0.7,0.1,1,0.2l-0.3,1.4c-0.3-0.1-0.6-0.2-1-0.2
			c-0.8,0-1.8,0.6-2.5,2.2v6.3h-1.6L444.8,178.6L444.8,178.6z"/>
		<path class="st0" d="M450.9,183.5c0-3.2,2.1-5.1,4.4-5.1c2.5,0,3.9,1.8,3.9,4.6c0,0.4,0,0.7-0.1,0.9h-6.6c0.1,2.1,1.4,3.4,3.2,3.4
			c1,0,1.7-0.3,2.5-0.8l0.6,1.1c-0.9,0.6-1.9,1-3.2,1C453,188.6,450.9,186.7,450.9,183.5L450.9,183.5z M457.7,182.7c0-2-0.9-3-2.4-3
			c-1.4,0-2.6,1.1-2.8,3H457.7z"/>
		<path class="st0" d="M461.7,185.3v-5.4h-1.5v-1.2l1.5-0.1l0.2-2.7h1.4v2.7h2.6v1.3h-2.6v5.5c0,1.2,0.4,1.9,1.5,1.9
			c0.3,0,0.8-0.1,1.1-0.2l0.3,1.2c-0.6,0.2-1.2,0.4-1.8,0.4C462.4,188.6,461.7,187.3,461.7,185.3L461.7,185.3z"/>
		<path class="st0" d="M467.1,185.8c0-2.1,1.9-3.2,6-3.7c0-1.3-0.4-2.5-2-2.5c-1.1,0-2.2,0.5-2.9,1l-0.6-1.1
			c0.9-0.6,2.3-1.3,3.9-1.3c2.4,0,3.4,1.6,3.4,4v6h-1.4l-0.1-1.2h0c-0.9,0.8-2,1.4-3.2,1.4C468.4,188.6,467.1,187.5,467.1,185.8
			L467.1,185.8z M473.1,186v-2.7c-3.3,0.4-4.4,1.2-4.4,2.5c0,1.1,0.8,1.6,1.7,1.6S472.2,186.8,473.1,186z"/>
		<path class="st0" d="M477.9,178.6h1.4l0.1,1.8h0c0.7-1.2,1.7-2,2.8-2c0.4,0,0.7,0.1,1,0.2l-0.3,1.4c-0.3-0.1-0.6-0.2-1-0.2
			c-0.8,0-1.8,0.6-2.5,2.2v6.3h-1.6L477.9,178.6L477.9,178.6z"/>
		<path class="st0" d="M484.4,192.4l0.3-1.3c0.2,0.1,0.5,0.2,0.7,0.2c1.1,0,1.8-0.9,2.2-2.1l0.2-0.7l-3.9-9.8h1.7l2,5.4
			c0.3,0.9,0.6,1.9,0.9,2.7h0.1c0.3-0.9,0.6-1.9,0.8-2.7l1.8-5.4h1.6l-3.7,10.6c-0.7,1.9-1.7,3.4-3.6,3.4
			C485.1,192.6,484.7,192.5,484.4,192.4L484.4,192.4z"/>
	</g>
	<g>
		<path class="st3" d="M114.7,108.8h265c2.8,0,5,2.2,5,5v21.7c0,2.8-2.2,5-5,5h-265c-2.8,0-5-2.2-5-5v-21.7
			C109.7,111,112,108.8,114.7,108.8z"/>
		<path class="st3" d="M480.3,108.8h265c2.8,0,5,2.2,5,5v21.7c0,2.8-2.2,5-5,5h-265c-2.8,0-5-2.2-5-5v-21.7
			C475.3,111,477.5,108.8,480.3,108.8z"/>
		<g>
			<path class="st0" d="M127.7,118.2h3.3c4.1,0,6.2,2.4,6.2,6.6c0,4.2-2.2,6.6-6.2,6.6h-3.4V118.2L127.7,118.2z M130.9,130
				c3.1,0,4.6-1.9,4.6-5.3s-1.5-5.2-4.6-5.2h-1.5V130H130.9z"/>
			<path class="st0" d="M141,126.5c0-3.2,2.1-5.2,4.4-5.2c2.5,0,3.9,1.8,3.9,4.6c0,0.4,0,0.7-0.1,0.9h-6.6c0.1,2.1,1.4,3.4,3.2,3.4
				c0.9,0,1.7-0.3,2.4-0.8l0.6,1.1c-0.9,0.6-1.9,1-3.2,1C143.1,131.6,141,129.8,141,126.5L141,126.5z M147.9,125.7c0-2-0.9-3-2.4-3
				c-1.4,0-2.6,1.1-2.8,3H147.9L147.9,125.7z"/>
			<path class="st0" d="M153.5,121.6h1.4l0.1,1.1h0.1c0.9-0.7,2-1.4,3.1-1.4c2.5,0,3.9,2,3.9,5c0,3.4-2,5.3-4.2,5.3
				c-0.9,0-1.8-0.4-2.7-1.1l0,1.7v3.3h-1.6L153.5,121.6L153.5,121.6z M160.3,126.4c0-2.2-0.7-3.6-2.6-3.6c-0.8,0-1.7,0.5-2.6,1.3
				v5.1c0.9,0.8,1.8,1,2.4,1C159.1,130.3,160.3,128.8,160.3,126.4L160.3,126.4z"/>
			<path class="st0" d="M166.3,127.8v-6.2h1.6v6c0,1.8,0.5,2.6,1.8,2.6c1,0,1.7-0.5,2.6-1.7v-6.9h1.6v9.8h-1.4l-0.1-1.5h-0.1
				c-0.9,1.1-1.9,1.8-3.2,1.8C167.3,131.6,166.3,130.3,166.3,127.8L166.3,127.8z"/>
			<path class="st0" d="M179.5,128.4V123H178v-1.2l1.5-0.1l0.2-2.7h1.4v2.7h2.6v1.3h-2.6v5.5c0,1.2,0.4,1.9,1.5,1.9
				c0.3,0,0.8-0.1,1.1-0.2l0.3,1.2c-0.6,0.2-1.2,0.4-1.8,0.4C180.2,131.6,179.5,130.3,179.5,128.4L179.5,128.4z"/>
			<path class="st0" d="M186.8,135.4l0.3-1.3c0.2,0.1,0.5,0.2,0.7,0.2c1.1,0,1.8-0.9,2.2-2.1l0.2-0.7l-3.9-9.8h1.7l2,5.4
				c0.3,0.8,0.6,1.8,0.9,2.7h0.1c0.3-0.9,0.6-1.9,0.8-2.7l1.8-5.4h1.6l-3.7,10.6c-0.7,1.9-1.7,3.4-3.6,3.4
				C187.5,135.6,187.1,135.6,186.8,135.4L186.8,135.4z"/>
			<path class="st0" d="M204.9,118.2h3.3c4.1,0,6.2,2.4,6.2,6.6c0,4.2-2.2,6.6-6.2,6.6h-3.4L204.9,118.2L204.9,118.2z M208.1,130
				c3.1,0,4.6-1.9,4.6-5.3s-1.5-5.2-4.6-5.2h-1.5V130H208.1z"/>
			<path class="st0" d="M218.6,118.6c0-0.7,0.5-1.1,1.1-1.1s1.1,0.4,1.1,1.1c0,0.6-0.5,1.1-1.1,1.1S218.6,119.2,218.6,118.6z
				 M218.9,121.6h1.6v9.8h-1.6V121.6z"/>
			<path class="st0" d="M225.7,121.6h1.4l0.1,1.8h0.1c0.7-1.2,1.7-2,2.8-2c0.4,0,0.7,0.1,1,0.2l-0.3,1.4c-0.3-0.1-0.6-0.2-0.9-0.2
				c-0.8,0-1.8,0.6-2.5,2.2v6.3h-1.6L225.7,121.6L225.7,121.6z"/>
			<path class="st0" d="M233.5,126.5c0-3.2,2.1-5.2,4.4-5.2c2.5,0,3.9,1.8,3.9,4.6c0,0.4,0,0.7-0.1,0.9h-6.6
				c0.1,2.1,1.4,3.4,3.2,3.4c0.9,0,1.7-0.3,2.4-0.8l0.6,1.1c-0.9,0.6-1.9,1-3.2,1C235.6,131.6,233.5,129.8,233.5,126.5L233.5,126.5z
				 M240.4,125.7c0-2-0.9-3-2.4-3c-1.4,0-2.6,1.1-2.8,3H240.4L240.4,125.7z"/>
			<path class="st0" d="M245.3,126.5c0-3.3,2.2-5.2,4.7-5.2c1.3,0,2.2,0.5,2.9,1.2l-0.9,1.1c-0.6-0.5-1.2-0.9-2-0.9
				c-1.8,0-3.1,1.5-3.1,3.8s1.2,3.8,3,3.8c0.9,0,1.7-0.4,2.3-1l0.7,1.1c-0.9,0.8-2,1.2-3.1,1.2C247.3,131.7,245.3,129.8,245.3,126.5
				L245.3,126.5z"/>
			<path class="st0" d="M257.1,128.4V123h-1.5v-1.2l1.5-0.1l0.2-2.7h1.4v2.7h2.6v1.3h-2.6v5.5c0,1.2,0.4,1.9,1.5,1.9
				c0.3,0,0.8-0.1,1.1-0.2l0.3,1.2c-0.6,0.2-1.2,0.4-1.8,0.4C257.8,131.6,257.1,130.3,257.1,128.4L257.1,128.4z"/>
			<path class="st0" d="M264.4,126.5c0-3.3,2.1-5.2,4.5-5.2s4.5,1.9,4.5,5.2c0,3.3-2.1,5.1-4.5,5.1S264.4,129.8,264.4,126.5z
				 M271.8,126.5c0-2.2-1.1-3.8-2.8-3.8s-2.8,1.5-2.8,3.8s1.1,3.8,2.8,3.8S271.8,128.8,271.8,126.5z"/>
			<path class="st0" d="M277.8,121.6h1.4l0.1,1.8h0c0.7-1.2,1.7-2,2.8-2c0.4,0,0.7,0.1,1,0.2l-0.3,1.4c-0.3-0.1-0.6-0.2-1-0.2
				c-0.8,0-1.8,0.6-2.5,2.2v6.3h-1.6L277.8,121.6L277.8,121.6z"/>
			<path class="st0" d="M285.3,125.7h4.6v1.3h-4.6V125.7z"/>
			<path class="st0" d="M293.6,124.8c0-4.3,2.6-6.9,6-6.9c1.8,0,3,0.8,3.8,1.6l-0.9,1.1c-0.7-0.7-1.5-1.3-2.9-1.3
				c-2.6,0-4.4,2.1-4.4,5.3s1.6,5.4,4.4,5.4c1,0,1.9-0.3,2.4-0.8V126h-2.8v-1.4h4.3v5.5c-0.9,0.9-2.3,1.5-4.1,1.5
				C296,131.6,293.6,129.1,293.6,124.8z"/>
			<path class="st0" d="M307.6,126.5c0-3.2,2.1-5.2,4.4-5.2c2.5,0,3.9,1.8,3.9,4.6c0,0.4,0,0.7-0.1,0.9h-6.6
				c0.1,2.1,1.4,3.4,3.2,3.4c1,0,1.7-0.3,2.5-0.8l0.6,1.1c-0.9,0.6-1.9,1-3.2,1C309.7,131.6,307.7,129.8,307.6,126.5L307.6,126.5z
				 M314.5,125.7c0-2-0.9-3-2.4-3c-1.4,0-2.6,1.1-2.8,3H314.5z"/>
			<path class="st0" d="M320.2,121.6h1.4l0.1,1.4h0c0.9-0.9,1.9-1.7,3.3-1.7c2,0,3,1.3,3,3.8v6.2h-1.6v-6c0-1.8-0.6-2.6-1.9-2.6
				c-1,0-1.7,0.5-2.7,1.5v7.1h-1.6L320.2,121.6L320.2,121.6z"/>
			<path class="st0" d="M332.2,126.5c0-3.2,2.1-5.2,4.4-5.2c2.5,0,3.9,1.8,3.9,4.6c0,0.4,0,0.7-0.1,0.9h-6.6
				c0.1,2.1,1.4,3.4,3.2,3.4c1,0,1.7-0.3,2.5-0.8l0.6,1.1c-0.9,0.6-1.9,1-3.2,1C334.3,131.6,332.2,129.8,332.2,126.5L332.2,126.5z
				 M339.1,125.7c0-2-0.9-3-2.4-3c-1.4,0-2.6,1.1-2.8,3H339.1z"/>
			<path class="st0" d="M344.7,121.6h1.4l0.1,1.8h0c0.7-1.2,1.7-2,2.8-2c0.4,0,0.7,0.1,1,0.2l-0.3,1.4c-0.3-0.1-0.6-0.2-1-0.2
				c-0.8,0-1.8,0.6-2.5,2.2v6.3h-1.6L344.7,121.6L344.7,121.6z"/>
			<path class="st0" d="M352.4,128.9c0-2.1,1.9-3.2,6-3.7c0-1.3-0.4-2.5-2-2.5c-1.1,0-2.2,0.5-2.9,1l-0.6-1.1
				c0.9-0.6,2.3-1.3,3.9-1.3c2.4,0,3.4,1.6,3.4,4v6h-1.4l-0.1-1.2h0c-0.9,0.8-2,1.4-3.2,1.4C353.6,131.6,352.4,130.6,352.4,128.9
				L352.4,128.9z M358.4,129v-2.7c-3.3,0.4-4.4,1.2-4.4,2.5c0,1.1,0.8,1.6,1.7,1.6S357.5,129.9,358.4,129z"/>
			<path class="st0" d="M365,129.5v-12.4h1.6v12.5c0,0.5,0.2,0.7,0.5,0.7c0.1,0,0.2,0,0.3,0l0.2,1.3c-0.2,0.1-0.5,0.1-1,0.1
				C365.5,131.6,365,130.9,365,129.5L365,129.5z"/>
		</g>
		<g>
			<path class="st0" d="M492.8,118.2h3.3c4,0,6.2,2.4,6.2,6.6c0,4.2-2.2,6.6-6.2,6.6h-3.4V118.2L492.8,118.2z M496,130
				c3.1,0,4.6-1.9,4.6-5.3s-1.5-5.2-4.6-5.2h-1.5V130H496z"/>
			<path class="st0" d="M506.1,126.5c0-3.2,2.1-5.2,4.4-5.2c2.5,0,3.9,1.8,3.9,4.6c0,0.4,0,0.7-0.1,0.9h-6.6
				c0.1,2.1,1.4,3.4,3.2,3.4c1,0,1.7-0.3,2.4-0.8l0.6,1.1c-0.9,0.6-1.9,1-3.2,1C508.2,131.6,506.1,129.8,506.1,126.5L506.1,126.5z
				 M512.9,125.7c0-2-0.9-3-2.4-3c-1.4,0-2.6,1.1-2.8,3H512.9z"/>
			<path class="st0" d="M518.6,121.6h1.3l0.1,1.1h0c0.9-0.7,2-1.4,3.1-1.4c2.5,0,3.9,2,3.9,5c0,3.4-2,5.3-4.2,5.3
				c-0.9,0-1.8-0.4-2.7-1.1l0,1.7v3.3h-1.6L518.6,121.6L518.6,121.6z M525.4,126.4c0-2.2-0.7-3.6-2.6-3.6c-0.8,0-1.7,0.5-2.6,1.3
				v5.1c0.9,0.8,1.8,1,2.4,1C524.2,130.3,525.4,128.8,525.4,126.4z"/>
			<path class="st0" d="M531.4,127.8v-6.2h1.6v6c0,1.8,0.5,2.6,1.8,2.6c1,0,1.7-0.5,2.7-1.7v-6.9h1.6v9.8h-1.4l-0.1-1.5h0
				c-0.9,1.1-1.9,1.8-3.2,1.8C532.4,131.6,531.4,130.3,531.4,127.8L531.4,127.8z"/>
			<path class="st0" d="M544.6,128.4V123h-1.5v-1.2l1.5-0.1l0.2-2.7h1.4v2.7h2.7v1.3h-2.7v5.5c0,1.2,0.4,1.9,1.5,1.9
				c0.3,0,0.8-0.1,1.1-0.2l0.3,1.2c-0.6,0.2-1.2,0.4-1.8,0.4C545.3,131.7,544.6,130.4,544.6,128.4L544.6,128.4z"/>
			<path class="st0" d="M551.9,135.4l0.3-1.3c0.2,0.1,0.5,0.2,0.7,0.2c1.1,0,1.8-0.9,2.2-2.1l0.2-0.7l-3.9-9.8h1.7l2,5.4
				c0.3,0.8,0.6,1.8,0.9,2.7h0.1c0.3-0.9,0.6-1.9,0.8-2.7l1.8-5.4h1.6l-3.7,10.6c-0.7,1.9-1.7,3.4-3.6,3.4
				C552.6,135.6,552.2,135.6,551.9,135.4z"/>
			<path class="st0" d="M570,118.2h3.3c4,0,6.2,2.4,6.2,6.6c0,4.2-2.2,6.6-6.2,6.6H570V118.2L570,118.2z M573.2,130
				c3.1,0,4.6-1.9,4.6-5.3s-1.5-5.2-4.6-5.2h-1.5V130H573.2z"/>
			<path class="st0" d="M583.7,118.6c0-0.7,0.5-1.1,1.1-1.1s1.1,0.4,1.1,1.1c0,0.6-0.5,1.1-1.1,1.1S583.7,119.2,583.7,118.6z
				 M584,121.6h1.6v9.8H584V121.6z"/>
			<path class="st0" d="M590.8,121.6h1.3l0.1,1.8h0c0.7-1.2,1.7-2,2.8-2c0.4,0,0.7,0.1,1,0.2l-0.3,1.4c-0.3-0.1-0.6-0.2-1-0.2
				c-0.8,0-1.8,0.6-2.5,2.2v6.3h-1.6L590.8,121.6L590.8,121.6z"/>
			<path class="st0" d="M598.6,126.5c0-3.2,2.1-5.2,4.4-5.2c2.5,0,3.9,1.8,3.9,4.6c0,0.4,0,0.7-0.1,0.9h-6.6
				c0.1,2.1,1.4,3.4,3.2,3.4c1,0,1.7-0.3,2.5-0.8l0.6,1.1c-0.9,0.6-1.9,1-3.2,1C600.7,131.6,598.6,129.8,598.6,126.5L598.6,126.5z
				 M605.5,125.7c0-2-0.9-3-2.4-3c-1.4,0-2.6,1.1-2.8,3H605.5z"/>
			<path class="st0" d="M610.4,126.5c0-3.3,2.2-5.2,4.7-5.2c1.3,0,2.2,0.5,2.9,1.2l-0.8,1.1c-0.6-0.5-1.2-0.9-2-0.9
				c-1.8,0-3.1,1.5-3.1,3.8s1.2,3.8,3,3.8c0.9,0,1.7-0.4,2.3-1l0.7,1.1c-0.9,0.8-2,1.2-3.2,1.2C612.4,131.7,610.4,129.8,610.4,126.5
				L610.4,126.5z"/>
			<path class="st0" d="M622.2,128.4V123h-1.5v-1.2l1.5-0.1l0.2-2.7h1.4v2.7h2.7v1.3h-2.7v5.5c0,1.2,0.4,1.9,1.5,1.9
				c0.3,0,0.8-0.1,1.1-0.2l0.3,1.2c-0.6,0.2-1.2,0.4-1.8,0.4C622.9,131.7,622.2,130.4,622.2,128.4L622.2,128.4z"/>
			<path class="st0" d="M629.5,126.5c0-3.3,2.1-5.2,4.5-5.2s4.5,1.9,4.5,5.2c0,3.3-2.1,5.1-4.5,5.1S629.5,129.8,629.5,126.5z
				 M636.9,126.5c0-2.2-1.2-3.8-2.8-3.8s-2.8,1.5-2.8,3.8s1.1,3.8,2.8,3.8S636.9,128.8,636.9,126.5z"/>
			<path class="st0" d="M642.9,121.6h1.3l0.1,1.8h0c0.7-1.2,1.7-2,2.8-2c0.4,0,0.7,0.1,1,0.2L648,123c-0.3-0.1-0.6-0.2-1-0.2
				c-0.8,0-1.8,0.6-2.5,2.2v6.3h-1.6L642.9,121.6L642.9,121.6z"/>
			<path class="st0" d="M650.4,125.7h4.6v1.3h-4.6V125.7z"/>
			<path class="st0" d="M658.7,124.8c0-4.3,2.6-6.9,6-6.9c1.8,0,3,0.8,3.8,1.6l-0.9,1.1c-0.7-0.7-1.5-1.3-2.9-1.3
				c-2.7,0-4.4,2.1-4.4,5.3s1.6,5.4,4.4,5.4c1,0,1.9-0.3,2.4-0.8V126h-2.8v-1.4h4.3v5.5c-0.8,0.9-2.3,1.5-4.1,1.5
				C661.1,131.6,658.7,129.1,658.7,124.8L658.7,124.8z"/>
			<path class="st0" d="M672.7,126.5c0-3.2,2.1-5.2,4.4-5.2c2.5,0,3.9,1.8,3.9,4.6c0,0.4,0,0.7-0.1,0.9h-6.6
				c0.1,2.1,1.4,3.4,3.2,3.4c1,0,1.7-0.3,2.5-0.8l0.6,1.1c-0.9,0.6-1.9,1-3.2,1C674.8,131.6,672.7,129.8,672.7,126.5L672.7,126.5z
				 M679.6,125.7c0-2-0.9-3-2.4-3c-1.4,0-2.6,1.1-2.8,3H679.6z"/>
			<path class="st0" d="M685.2,121.6h1.3l0.1,1.4h0c0.9-0.9,1.9-1.7,3.3-1.7c2,0,3,1.3,3,3.8v6.2h-1.6v-6c0-1.8-0.6-2.6-1.8-2.6
				c-1,0-1.7,0.5-2.7,1.5v7.1h-1.6V121.6L685.2,121.6z"/>
			<path class="st0" d="M697.3,126.5c0-3.2,2.1-5.2,4.4-5.2c2.5,0,3.9,1.8,3.9,4.6c0,0.4,0,0.7-0.1,0.9h-6.6
				c0.1,2.1,1.4,3.4,3.2,3.4c1,0,1.7-0.3,2.5-0.8l0.6,1.1c-0.9,0.6-1.9,1-3.2,1C699.4,131.6,697.3,129.8,697.3,126.5L697.3,126.5z
				 M704.2,125.7c0-2-0.9-3-2.4-3c-1.4,0-2.6,1.1-2.8,3H704.2z"/>
			<path class="st0" d="M709.8,121.6h1.3l0.1,1.8h0c0.7-1.2,1.7-2,2.8-2c0.4,0,0.7,0.1,1,0.2l-0.3,1.4c-0.3-0.1-0.6-0.2-1-0.2
				c-0.8,0-1.8,0.6-2.5,2.2v6.3h-1.6L709.8,121.6L709.8,121.6z"/>
			<path class="st0" d="M717.5,128.9c0-2.1,1.8-3.2,6-3.7c0-1.3-0.4-2.5-2-2.5c-1.1,0-2.2,0.5-2.9,1l-0.7-1.1
				c0.9-0.6,2.3-1.3,3.8-1.3c2.4,0,3.4,1.6,3.4,4v6h-1.3l-0.1-1.2h0c-0.9,0.8-2,1.4-3.2,1.4C718.7,131.6,717.5,130.6,717.5,128.9
				L717.5,128.9z M723.5,129v-2.7c-3.3,0.4-4.4,1.2-4.4,2.5c0,1.1,0.8,1.6,1.7,1.6S722.6,129.9,723.5,129z"/>
			<path class="st0" d="M730.1,129.5v-12.4h1.6v12.5c0,0.5,0.2,0.7,0.5,0.7c0.1,0,0.2,0,0.3,0l0.2,1.3c-0.2,0.1-0.5,0.1-1,0.1
				C730.6,131.6,730.1,130.9,730.1,129.5L730.1,129.5z"/>
		</g>
	</g>
	<path class="st4" d="M335.1,25.7h184.2c2.8,0,5,2.2,5,5v22c0,2.8-2.2,5-5,5H335.1c-2.8,0-5-2.2-5-5v-22
		C330.1,27.9,332.4,25.7,335.1,25.7z"/>
	<g>
		<path class="st0" d="M346.6,34.4h3.3c4,0,6.2,2.4,6.2,6.5s-2.2,6.6-6.2,6.6h-3.4L346.6,34.4L346.6,34.4z M349.7,46.2
			c3.1,0,4.6-2,4.6-5.3s-1.5-5.2-4.6-5.2h-1.5v10.5H349.7z"/>
		<path class="st0" d="M360.3,34.8c0-0.7,0.5-1.1,1.1-1.1s1.1,0.4,1.1,1.1c0,0.6-0.5,1.1-1.1,1.1S360.3,35.4,360.3,34.8z
			 M360.6,37.8h1.6v9.8h-1.6V37.8z"/>
		<path class="st0" d="M367.3,37.8h1.4l0.1,1.8h0c0.7-1.2,1.7-2,2.8-2c0.4,0,0.7,0,1,0.2l-0.3,1.4c-0.3-0.1-0.6-0.2-1-0.2
			c-0.8,0-1.8,0.6-2.5,2.2v6.3h-1.6L367.3,37.8L367.3,37.8z"/>
		<path class="st0" d="M375.2,42.7c0-3.2,2.1-5.2,4.4-5.2c2.5,0,3.9,1.8,3.9,4.6c0,0.4,0,0.7-0.1,0.9h-6.6c0.1,2.1,1.4,3.4,3.2,3.4
			c1,0,1.7-0.3,2.5-0.8l0.6,1.1c-0.9,0.6-1.9,1-3.2,1C377.3,47.8,375.2,46,375.2,42.7L375.2,42.7z M382,41.9c0-2-0.9-3-2.4-3
			c-1.4,0-2.6,1.1-2.8,3H382z"/>
		<path class="st0" d="M387,42.7c0-3.3,2.2-5.2,4.7-5.2c1.3,0,2.2,0.5,2.9,1.2l-0.9,1.1c-0.6-0.5-1.2-0.9-2-0.9
			c-1.8,0-3.1,1.5-3.1,3.8s1.2,3.8,3,3.8c0.9,0,1.7-0.4,2.3-1l0.7,1.1c-0.9,0.8-2,1.2-3.1,1.2C388.9,47.8,386.9,46,387,42.7
			L387,42.7z"/>
		<path class="st0" d="M398.8,44.6v-5.4h-1.5v-1.2l1.5-0.1l0.2-2.7h1.4v2.7h2.6v1.3h-2.6v5.5c0,1.2,0.4,1.9,1.5,1.9
			c0.3,0,0.8-0.1,1.1-0.2l0.3,1.2c-0.6,0.2-1.2,0.4-1.8,0.4C399.5,47.8,398.8,46.5,398.8,44.6L398.8,44.6z"/>
		<path class="st0" d="M406,42.7c0-3.3,2.1-5.2,4.5-5.2s4.5,1.9,4.5,5.2s-2.1,5.1-4.5,5.1S406,46,406,42.7z M413.4,42.7
			c0-2.2-1.1-3.8-2.8-3.8s-2.8,1.5-2.8,3.8s1.1,3.8,2.8,3.8S413.4,45,413.4,42.7z"/>
		<path class="st0" d="M419.5,37.8h1.4l0.1,1.8h0c0.7-1.2,1.7-2,2.8-2c0.4,0,0.7,0,1,0.2l-0.3,1.4c-0.3-0.1-0.6-0.2-1-0.2
			c-0.8,0-1.8,0.6-2.5,2.2v6.3h-1.6L419.5,37.8L419.5,37.8z"/>
		<path class="st0" d="M427,41.9h4.6v1.3H427V41.9z"/>
		<path class="st0" d="M435.2,41c0-4.3,2.6-6.9,6-6.9c1.8,0,3,0.8,3.8,1.6l-0.9,1.1c-0.7-0.7-1.5-1.3-2.9-1.3c-2.6,0-4.4,2-4.4,5.3
			s1.6,5.4,4.4,5.4c1,0,1.9-0.3,2.4-0.8v-3.5h-2.8v-1.4h4.3v5.5c-0.9,0.9-2.3,1.5-4.1,1.5C437.7,47.8,435.2,45.3,435.2,41L435.2,41z
			"/>
		<path class="st0" d="M449.3,42.7c0-3.2,2.1-5.2,4.4-5.2c2.5,0,3.9,1.8,3.9,4.6c0,0.4,0,0.7-0.1,0.9h-6.6c0.1,2.1,1.4,3.4,3.2,3.4
			c1,0,1.7-0.3,2.5-0.8l0.6,1.1c-0.9,0.6-1.9,1-3.2,1C451.4,47.8,449.3,46,449.3,42.7L449.3,42.7z M456.2,41.9c0-2-0.9-3-2.4-3
			c-1.4,0-2.6,1.1-2.8,3H456.2z"/>
		<path class="st0" d="M461.8,37.8h1.4l0.1,1.4h0c0.9-0.9,1.9-1.7,3.3-1.7c2,0,3,1.3,3,3.8v6.2H468v-6c0-1.8-0.6-2.6-1.9-2.6
			c-1,0-1.7,0.5-2.7,1.5v7.1h-1.6L461.8,37.8L461.8,37.8z"/>
		<path class="st0" d="M473.9,42.7c0-3.2,2.1-5.2,4.4-5.2c2.5,0,3.9,1.8,3.9,4.6c0,0.4,0,0.7-0.1,0.9h-6.6c0.1,2.1,1.4,3.4,3.2,3.4
			c1,0,1.7-0.3,2.5-0.8l0.6,1.1c-0.9,0.6-1.9,1-3.2,1C476,47.8,473.9,46,473.9,42.7L473.9,42.7z M480.7,41.9c0-2-0.9-3-2.4-3
			c-1.4,0-2.6,1.1-2.8,3H480.7z"/>
		<path class="st0" d="M486.4,37.8h1.4l0.1,1.8h0c0.7-1.2,1.7-2,2.8-2c0.4,0,0.7,0,1,0.2l-0.3,1.4c-0.3-0.1-0.6-0.2-1-0.2
			c-0.8,0-1.8,0.6-2.5,2.2v6.3h-1.6L486.4,37.8L486.4,37.8z"/>
		<path class="st0" d="M494.1,45.1c0-2.1,1.9-3.2,6-3.7c0-1.3-0.4-2.5-2-2.5c-1.1,0-2.2,0.5-2.9,1l-0.6-1.1c0.9-0.6,2.3-1.3,3.9-1.3
			c2.4,0,3.4,1.6,3.4,4v6h-1.4l-0.1-1.2h0c-0.9,0.8-2,1.4-3.2,1.4C495.3,47.8,494.1,46.8,494.1,45.1L494.1,45.1z M500.1,45.2v-2.7
			c-3.3,0.4-4.4,1.2-4.4,2.5c0,1.1,0.8,1.6,1.7,1.6S499.1,46.1,500.1,45.2z"/>
		<path class="st0" d="M506.6,45.7V33.3h1.6v12.5c0,0.5,0.2,0.7,0.5,0.7c0.1,0,0.2,0,0.3,0l0.2,1.3c-0.2,0.1-0.5,0.1-1,0.1
			C507.1,47.8,506.6,47,506.6,45.7L506.6,45.7z"/>
	</g>
</g>
<g>
	<g>
		<g>
			<path class="st5" d="M394.1,260.6v21.7c0,2.8-2.2,5-5,5h-360c-2.8,0-5-2.2-5-5v-21.7c0-2.8,2.2-5,5-5h360
				C391.8,255.6,394.1,257.8,394.1,260.6z"/>
			<g>
				<path class="st0" d="M118.9,264.3h1.7v13.2h-1.7V264.3z"/>
				<path class="st0" d="M124.1,267.7h1.3l0.1,1.4h0.1c0.8-0.9,1.9-1.7,3-1.7c1.5,0,2.3,0.7,2.7,1.9c1-1.1,2-1.9,3.2-1.9
					c2,0,3,1.3,3,3.8v6.2h-1.6v-6c0-1.8-0.6-2.6-1.8-2.6c-0.8,0-1.6,0.5-2.5,1.5v7.1H130v-6c0-1.8-0.6-2.6-1.8-2.6
					c-0.7,0-1.6,0.5-2.5,1.5v7.1H124L124.1,267.7L124.1,267.7z"/>
				<path class="st0" d="M140.7,267.7h1.4l0.1,1.1h0.1c0.9-0.7,2-1.4,3.1-1.4c2.5,0,3.9,2,3.9,5c0,3.4-2,5.3-4.2,5.3
					c-0.9,0-1.8-0.4-2.7-1.1l0,1.7v3.3h-1.6V267.7L140.7,267.7z M147.6,272.5c0-2.2-0.7-3.6-2.6-3.6c-0.8,0-1.7,0.5-2.6,1.4v5.1
					c0.9,0.8,1.8,1,2.4,1C146.4,276.4,147.6,274.9,147.6,272.5L147.6,272.5z"/>
				<path class="st0" d="M151.9,275.5v-12.4h1.6v12.5c0,0.5,0.2,0.7,0.5,0.7c0.1,0,0.2,0,0.3,0l0.2,1.3c-0.2,0.1-0.5,0.1-0.9,0.1
					C152.4,277.7,151.9,276.9,151.9,275.5L151.9,275.5z"/>
				<path class="st0" d="M156.3,272.6c0-3.2,2.1-5.1,4.4-5.1c2.5,0,3.9,1.8,3.9,4.6c0,0.4,0,0.7-0.1,0.9h-6.6
					c0.1,2.1,1.4,3.4,3.2,3.4c0.9,0,1.7-0.3,2.4-0.8l0.6,1.1c-0.9,0.6-1.9,1-3.2,1C158.4,277.7,156.3,275.8,156.3,272.6L156.3,272.6
					z M163.1,271.8c0-2-0.9-3-2.4-3c-1.4,0-2.6,1.1-2.8,3H163.1L163.1,271.8z"/>
				<path class="st0" d="M167,267.7h1.4l0.1,1.4h0.1c0.9-0.9,1.9-1.7,3-1.7c1.5,0,2.3,0.7,2.7,1.9c1-1.1,2-1.9,3.2-1.9
					c2,0,3,1.3,3,3.8v6.2h-1.6v-6c0-1.8-0.6-2.6-1.8-2.6c-0.8,0-1.6,0.5-2.5,1.5v7.1h-1.6v-6c0-1.8-0.6-2.6-1.8-2.6
					c-0.7,0-1.6,0.5-2.5,1.5v7.1H167L167,267.7L167,267.7z"/>
				<path class="st0" d="M182.9,272.6c0-3.2,2.1-5.1,4.4-5.1c2.5,0,3.9,1.8,3.9,4.6c0,0.4,0,0.7-0.1,0.9h-6.6
					c0.1,2.1,1.4,3.4,3.2,3.4c0.9,0,1.7-0.3,2.4-0.8l0.6,1.1c-0.9,0.6-1.9,1-3.2,1C185,277.7,182.9,275.8,182.9,272.6L182.9,272.6z
					 M189.8,271.8c0-2-0.9-3-2.4-3c-1.4,0-2.6,1.1-2.8,3H189.8L189.8,271.8z"/>
				<path class="st0" d="M193.6,267.7h1.4l0.1,1.4h0.1c0.9-0.9,1.9-1.7,3.3-1.7c2.1,0,3,1.3,3,3.8v6.2h-1.6v-6
					c0-1.8-0.6-2.6-1.9-2.6c-1,0-1.7,0.5-2.7,1.5v7.1h-1.6L193.6,267.7L193.6,267.7z"/>
				<path class="st0" d="M204.9,274.5V269h-1.5v-1.2l1.5-0.1l0.2-2.7h1.4v2.7h2.6v1.3h-2.6v5.5c0,1.2,0.4,1.9,1.5,1.9
					c0.3,0,0.8-0.1,1.1-0.2l0.3,1.2c-0.6,0.2-1.2,0.4-1.8,0.4C205.6,277.7,204.9,276.4,204.9,274.5L204.9,274.5z"/>
				<path class="st0" d="M210.4,275c0-2.1,1.9-3.2,6-3.7c0-1.3-0.4-2.5-2-2.5c-1.1,0-2.2,0.5-2.9,1l-0.6-1.1
					c0.9-0.6,2.3-1.3,3.9-1.3c2.4,0,3.4,1.6,3.4,4v6h-1.4l-0.1-1.2h-0.1c-0.9,0.8-2,1.4-3.2,1.4C211.6,277.7,210.4,276.7,210.4,275
					L210.4,275z M216.4,275.1v-2.7c-3.3,0.4-4.4,1.2-4.4,2.5c0,1.1,0.8,1.6,1.7,1.6S215.4,276,216.4,275.1L216.4,275.1z"/>
				<path class="st0" d="M221.1,274.5V269h-1.5v-1.2l1.5-0.1l0.2-2.7h1.4v2.7h2.6v1.3h-2.6v5.5c0,1.2,0.4,1.9,1.5,1.9
					c0.3,0,0.8-0.1,1.1-0.2l0.3,1.2c-0.6,0.2-1.2,0.4-1.8,0.4C221.8,277.7,221.1,276.4,221.1,274.5L221.1,274.5z"/>
				<path class="st0" d="M227.4,264.6c0-0.7,0.5-1.1,1.1-1.1s1.1,0.4,1.1,1.1c0,0.6-0.5,1.1-1.1,1.1S227.4,265.2,227.4,264.6z
					 M227.7,267.7h1.6v9.8h-1.6V267.7z"/>
				<path class="st0" d="M231.9,272.6c0-3.3,2.1-5.1,4.5-5.1s4.5,1.9,4.5,5.1s-2.1,5.1-4.5,5.1S231.9,275.8,231.9,272.6z
					 M239.2,272.6c0-2.2-1.1-3.8-2.8-3.8s-2.8,1.5-2.8,3.8s1.1,3.8,2.8,3.8S239.2,274.9,239.2,272.6z"/>
				<path class="st0" d="M243.5,267.7h1.4l0.1,1.4h0.1c0.9-0.9,1.9-1.7,3.3-1.7c2.1,0,3,1.3,3,3.8v6.2h-1.6v-6
					c0-1.8-0.6-2.6-1.9-2.6c-1,0-1.7,0.5-2.7,1.5v7.1h-1.6L243.5,267.7L243.5,267.7z"/>
				<path class="st0" d="M258.6,272v-7.7h1.7v7.8c0,3.2,1.4,4.2,3.1,4.2s3.1-1,3.1-4.2v-7.8h1.6v7.7c0,4.2-2,5.7-4.8,5.7
					S258.6,276.3,258.6,272L258.6,272z"/>
				<path class="st0" d="M271.5,267.7h1.4l0.1,1.4h0c0.9-0.9,1.9-1.7,3.3-1.7c2,0,3,1.3,3,3.8v6.2h-1.6v-6c0-1.8-0.6-2.6-1.9-2.6
					c-1,0-1.7,0.5-2.7,1.5v7.1h-1.6L271.5,267.7L271.5,267.7z"/>
				<path class="st0" d="M282.2,264.6c0-0.7,0.5-1.1,1.1-1.1s1.1,0.4,1.1,1.1c0,0.6-0.5,1.1-1.1,1.1S282.2,265.2,282.2,264.6z
					 M282.5,267.7h1.6v9.8h-1.6V267.7z"/>
				<path class="st0" d="M287.8,274.5V269h-1.5v-1.2l1.5-0.1l0.2-2.7h1.4v2.7h2.6v1.3h-2.6v5.5c0,1.2,0.4,1.9,1.5,1.9
					c0.3,0,0.8-0.1,1.1-0.2l0.3,1.2c-0.6,0.2-1.2,0.4-1.8,0.4C288.5,277.7,287.8,276.4,287.8,274.5L287.8,274.5z"/>
				<path class="st0" d="M293,276.4l0.8-1.1c0.9,0.7,1.7,1.1,2.9,1.1c1.3,0,1.9-0.7,1.9-1.5c0-1-1.1-1.4-2.2-1.9
					c-1.4-0.5-2.9-1.2-2.9-2.8c0-1.5,1.2-2.8,3.4-2.8c1.2,0,2.3,0.5,3,1.1l-0.8,1.1c-0.7-0.5-1.4-0.9-2.2-0.9
					c-1.2,0-1.8,0.6-1.8,1.4c0,0.9,1.1,1.3,2.2,1.7c1.4,0.5,3,1.1,3,3c0,1.6-1.3,2.9-3.6,2.9C295.2,277.7,293.9,277.1,293,276.4
					L293,276.4z"/>
			</g>
		</g>
		<g>
			<path class="st6" d="M43.5,298.1l10.6,6.8v0.1l-10.6,6.8h0L43.5,298.1L43.5,298.1L43.5,298.1z"/>
			<path d="M64.3,297.8h3.8c3,0,4.9,1,4.9,3.9s-2,4.1-4.9,4.1H66v5.2h-1.7V297.8L64.3,297.8z M68,304.4c2.3,0,3.4-0.9,3.4-2.7
				s-1.2-2.5-3.5-2.5H66v5.3L68,304.4L68,304.4z"/>
			<path d="M74.3,306.1c0-3.3,2.1-5.1,4.5-5.1s4.5,1.9,4.5,5.1s-2.1,5.1-4.5,5.1S74.3,309.4,74.3,306.1z M81.7,306.1
				c0-2.2-1.2-3.8-2.8-3.8s-2.8,1.5-2.8,3.8s1.1,3.8,2.8,3.8S81.7,308.4,81.7,306.1z"/>
			<path d="M86,309.1v-12.4h1.6v12.5c0,0.5,0.2,0.7,0.5,0.7c0.1,0,0.2,0,0.3,0l0.2,1.3c-0.2,0.1-0.5,0.1-0.9,0.1
				C86.5,311.2,86,310.4,86,309.1L86,309.1z"/>
			<path d="M90.8,298.1c0-0.7,0.5-1.1,1.1-1.1s1.1,0.4,1.1,1.1c0,0.6-0.5,1.1-1.1,1.1S90.8,298.8,90.8,298.1z M91.1,301.2h1.6v9.8
				h-1.6V301.2z"/>
			<path d="M95.3,306.1c0-3.3,2.2-5.1,4.7-5.1c1.3,0,2.2,0.5,2.9,1.1l-0.8,1.1c-0.6-0.5-1.2-0.9-2-0.9c-1.8,0-3.1,1.5-3.1,3.8
				s1.2,3.8,3,3.8c0.9,0,1.7-0.4,2.3-1l0.7,1.1c-0.9,0.8-2,1.2-3.2,1.2C97.3,311.2,95.3,309.4,95.3,306.1L95.3,306.1z"/>
			<path d="M104.4,315l0.3-1.3c0.2,0.1,0.5,0.2,0.7,0.2c1.1,0,1.8-0.9,2.2-2.1l0.2-0.7l-3.9-9.8h1.7l2,5.4c0.3,0.9,0.6,1.9,0.9,2.7
				h0.1c0.3-0.9,0.6-1.9,0.8-2.7l1.8-5.4h1.6l-3.7,10.6c-0.7,1.9-1.7,3.4-3.6,3.4C105.1,315.2,104.7,315.1,104.4,315L104.4,315z"/>
			<path d="M118.9,297.8h3.8c3,0,4.9,1,4.9,3.9s-2,4.1-4.9,4.1h-2.2v5.2h-1.7V297.8L118.9,297.8z M122.6,304.4
				c2.3,0,3.4-0.9,3.4-2.7s-1.2-2.5-3.5-2.5h-1.9v5.3L122.6,304.4L122.6,304.4z"/>
			<path d="M130.1,309.1v-12.4h1.6v12.5c0,0.5,0.2,0.7,0.5,0.7c0.1,0,0.2,0,0.3,0l0.2,1.3c-0.2,0.1-0.5,0.1-0.9,0.1
				C130.7,311.2,130.1,310.4,130.1,309.1L130.1,309.1z"/>
			<path d="M134.7,308.5c0-2.1,1.9-3.2,6-3.7c0-1.3-0.4-2.5-2-2.5c-1.1,0-2.2,0.5-2.9,1l-0.6-1.1c0.9-0.6,2.3-1.3,3.9-1.3
				c2.4,0,3.4,1.6,3.4,4v6h-1.4l-0.1-1.2h-0.1c-0.9,0.8-2,1.4-3.2,1.4C135.9,311.2,134.6,310.2,134.7,308.5L134.7,308.5z
				 M140.7,308.6v-2.7c-3.3,0.4-4.4,1.2-4.4,2.5c0,1.1,0.8,1.6,1.7,1.6S139.7,309.5,140.7,308.6L140.7,308.6z"/>
			<path d="M145.4,301.2h1.4l0.1,1.4h0.1c0.9-0.9,1.9-1.7,3.3-1.7c2.1,0,3,1.3,3,3.8v6.2h-1.6v-6c0-1.8-0.6-2.6-1.9-2.6
				c-1,0-1.7,0.5-2.7,1.5v7.1h-1.6L145.4,301.2L145.4,301.2z"/>
			<path d="M156.4,301.2h1.4l0.1,1.4h0.1c0.9-0.9,1.9-1.7,3.3-1.7c2.1,0,3,1.3,3,3.8v6.2h-1.6v-6c0-1.8-0.6-2.6-1.9-2.6
				c-1,0-1.7,0.5-2.7,1.5v7.1h-1.6L156.4,301.2L156.4,301.2z"/>
			<path d="M167.1,298.1c0-0.7,0.5-1.1,1.1-1.1s1.1,0.4,1.1,1.1c0,0.6-0.5,1.1-1.1,1.1S167.1,298.8,167.1,298.1z M167.4,301.2h1.6
				v9.8h-1.6V301.2z"/>
			<path d="M172.4,301.2h1.4l0.1,1.4h0.1c0.9-0.9,1.9-1.7,3.3-1.7c2.1,0,3,1.3,3,3.8v6.2h-1.6v-6c0-1.8-0.6-2.6-1.9-2.6
				c-1,0-1.7,0.5-2.7,1.5v7.1h-1.6L172.4,301.2L172.4,301.2z"/>
			<path d="M182.6,312.9c0-0.8,0.5-1.6,1.5-2.2v-0.1c-0.5-0.3-0.9-0.8-0.9-1.6s0.6-1.5,1.1-1.8v-0.1c-0.6-0.5-1.3-1.5-1.3-2.6
				c0-2.1,1.7-3.5,3.7-3.5c0.5,0,1,0.1,1.4,0.2h3.4v1.3h-2c0.5,0.5,0.8,1.2,0.8,2c0,2.1-1.6,3.4-3.6,3.4c-0.5,0-1-0.1-1.5-0.3
				c-0.4,0.3-0.6,0.6-0.6,1.2c0,0.6,0.4,1.1,1.7,1.1h1.9c2.3,0,3.4,0.7,3.4,2.3c0,1.8-1.9,3.4-4.9,3.4
				C184.3,315.5,182.6,314.6,182.6,312.9L182.6,312.9z M190,312.4c0-0.9-0.7-1.2-2-1.2h-1.7c-0.4,0-0.8,0-1.3-0.2
				c-0.7,0.5-1,1.1-1,1.7c0,1,1.1,1.7,2.8,1.7C188.8,314.4,190,313.4,190,312.4L190,312.4z M188.7,304.5c0-1.4-0.9-2.3-2.1-2.3
				s-2.1,0.9-2.1,2.3s0.9,2.3,2.1,2.3S188.7,305.9,188.7,304.5z"/>
			<path d="M197.7,297.8h3.3c4.1,0,6.2,2.4,6.2,6.5s-2.2,6.6-6.2,6.6h-3.4L197.7,297.8L197.7,297.8z M200.8,309.6
				c3.1,0,4.6-1.9,4.6-5.3s-1.5-5.2-4.6-5.2h-1.5v10.5H200.8z"/>
			<path d="M209.6,298.1c0-0.7,0.5-1.1,1.1-1.1s1.1,0.4,1.1,1.1c0,0.6-0.5,1.1-1.1,1.1S209.6,298.8,209.6,298.1z M209.9,301.2h1.6
				v9.8h-1.6V301.2z"/>
			<path d="M213.4,301.2h1.7l1.8,5.6c0.3,1,0.6,2,0.9,2.9h0.1c0.3-0.9,0.6-1.9,0.9-2.9l1.9-5.6h1.6l-3.5,9.8H217L213.4,301.2z"/>
			<path d="M223.9,298.1c0-0.7,0.5-1.1,1.1-1.1s1.1,0.4,1.1,1.1c0,0.6-0.5,1.1-1.1,1.1S223.9,298.8,223.9,298.1z M224.2,301.2h1.6
				v9.8h-1.6V301.2z"/>
			<path d="M228.1,309.9l0.8-1.1c0.9,0.7,1.7,1.1,2.9,1.1c1.3,0,1.9-0.7,1.9-1.5c0-1-1.1-1.4-2.2-1.9c-1.4-0.5-2.9-1.2-2.9-2.8
				c0-1.5,1.2-2.8,3.4-2.8c1.2,0,2.3,0.5,3,1.1l-0.8,1.1c-0.7-0.5-1.4-0.9-2.2-0.9c-1.2,0-1.8,0.6-1.8,1.4c0,0.9,1.1,1.3,2.2,1.7
				c1.4,0.5,3,1.1,3,3c0,1.6-1.3,2.9-3.6,2.9C230.4,311.2,229,310.7,228.1,309.9L228.1,309.9z"/>
			<path d="M237.3,298.1c0-0.7,0.5-1.1,1.1-1.1s1.1,0.4,1.1,1.1c0,0.6-0.5,1.1-1.1,1.1S237.3,298.8,237.3,298.1z M237.6,301.2h1.6
				v9.8h-1.6V301.2z"/>
			<path d="M241.8,306.1c0-3.3,2.1-5.1,4.5-5.1s4.5,1.9,4.5,5.1s-2.1,5.1-4.5,5.1S241.8,309.4,241.8,306.1z M249.2,306.1
				c0-2.2-1.1-3.8-2.8-3.8s-2.8,1.5-2.8,3.8s1.1,3.8,2.8,3.8S249.2,308.4,249.2,306.1z"/>
			<path d="M253.5,301.2h1.4l0.1,1.4h0.1c0.9-0.9,1.9-1.7,3.3-1.7c2,0,3,1.3,3,3.8v6.2h-1.6v-6c0-1.8-0.6-2.6-1.9-2.6
				c-1,0-1.7,0.5-2.7,1.5v7.1h-1.6L253.5,301.2L253.5,301.2z"/>
			<path class="st6" d="M43.5,328.1l10.6,6.8v0.1l-10.6,6.8h0L43.5,328.1L43.5,328.1L43.5,328.1z"/>
			<path d="M63.6,334.4c0-4.3,2.5-6.9,5.8-6.9c1.6,0,2.9,0.8,3.6,1.6l-0.9,1.1c-0.7-0.7-1.6-1.3-2.7-1.3c-2.5,0-4.2,2-4.2,5.4
				s1.6,5.4,4.1,5.4c1.3,0,2.2-0.6,3.1-1.5l0.9,1c-1,1.2-2.3,1.9-4.1,1.9C66.1,341.2,63.6,338.7,63.6,334.4L63.6,334.4z"/>
			<path d="M74.9,336.1c0-3.3,2.1-5.1,4.5-5.1s4.5,1.9,4.5,5.1s-2.1,5.1-4.5,5.1S74.9,339.4,74.9,336.1z M82.3,336.1
				c0-2.2-1.2-3.8-2.8-3.8s-2.8,1.5-2.8,3.8s1.1,3.8,2.8,3.8S82.3,338.4,82.3,336.1z"/>
			<path d="M86.6,331.2h1.3l0.1,1.4h0.1c0.8-0.9,1.9-1.7,3-1.7c1.5,0,2.3,0.7,2.7,1.9c1-1.1,2-1.9,3.2-1.9c2,0,3,1.3,3,3.8v6.2h-1.6
				v-6c0-1.8-0.6-2.6-1.8-2.6c-0.8,0-1.6,0.5-2.5,1.5v7.1h-1.6v-6c0-1.8-0.6-2.6-1.8-2.6c-0.7,0-1.6,0.5-2.5,1.5v7.1h-1.6
				L86.6,331.2L86.6,331.2z"/>
			<path d="M103.2,331.2h1.3l0.1,1.4h0.1c0.8-0.9,1.9-1.7,3-1.7c1.5,0,2.3,0.7,2.7,1.9c1-1.1,2-1.9,3.2-1.9c2,0,3,1.3,3,3.8v6.2
				h-1.6v-6c0-1.8-0.6-2.6-1.8-2.6c-0.8,0-1.6,0.5-2.5,1.5v7.1h-1.6v-6c0-1.8-0.6-2.6-1.8-2.6c-0.7,0-1.6,0.5-2.5,1.5v7.1h-1.6
				L103.2,331.2L103.2,331.2z"/>
			<path d="M119.8,337.4v-6.2h1.6v6c0,1.8,0.5,2.6,1.8,2.6c1,0,1.7-0.5,2.7-1.7v-6.9h1.6v9.8h-1.4l-0.1-1.5H126
				c-0.9,1.1-1.9,1.8-3.2,1.8C120.7,341.2,119.8,339.9,119.8,337.4L119.8,337.4z"/>
			<path d="M130.9,331.2h1.4l0.1,1.4h0.1c0.9-0.9,1.9-1.7,3.3-1.7c2.1,0,3,1.3,3,3.8v6.2H137v-6c0-1.8-0.6-2.6-1.9-2.6
				c-1,0-1.7,0.5-2.7,1.5v7.1h-1.6L130.9,331.2L130.9,331.2z"/>
			<path d="M141.5,328.1c0-0.7,0.5-1.1,1.1-1.1s1.1,0.4,1.1,1.1c0,0.6-0.5,1.1-1.1,1.1S141.5,328.8,141.5,328.1z M141.8,331.2h1.6
				v9.8h-1.6V331.2z"/>
			<path d="M146.1,336.1c0-3.3,2.2-5.1,4.7-5.1c1.3,0,2.2,0.5,2.9,1.1l-0.9,1.1c-0.6-0.5-1.2-0.9-2-0.9c-1.8,0-3.1,1.5-3.1,3.8
				s1.2,3.8,3,3.8c0.9,0,1.7-0.4,2.3-1l0.7,1.1c-0.9,0.8-2,1.2-3.1,1.2C148.1,341.2,146.1,339.4,146.1,336.1L146.1,336.1z"/>
			<path d="M155.1,338.5c0-2.1,1.9-3.2,6-3.7c0-1.3-0.4-2.5-2-2.5c-1.1,0-2.2,0.5-2.9,1l-0.6-1.1c0.9-0.6,2.3-1.3,3.9-1.3
				c2.4,0,3.4,1.6,3.4,4v6h-1.4l-0.1-1.2h-0.1c-0.9,0.8-2,1.4-3.2,1.4C156.4,341.2,155.1,340.2,155.1,338.5L155.1,338.5z
				 M161.2,338.6v-2.7c-3.3,0.4-4.4,1.2-4.4,2.5c0,1.1,0.8,1.6,1.7,1.6S160.2,339.5,161.2,338.6L161.2,338.6z"/>
			<path d="M165.9,338v-5.4h-1.5v-1.2l1.5-0.1l0.2-2.7h1.4v2.7h2.6v1.3h-2.6v5.5c0,1.2,0.4,1.9,1.5,1.9c0.3,0,0.8-0.1,1.1-0.2
				l0.3,1.2c-0.6,0.2-1.2,0.4-1.8,0.4C166.6,341.2,165.9,339.9,165.9,338L165.9,338z"/>
			<path d="M172.1,328.1c0-0.7,0.5-1.1,1.1-1.1s1.1,0.4,1.1,1.1c0,0.6-0.5,1.1-1.1,1.1S172.1,328.8,172.1,328.1z M172.4,331.2h1.6
				v9.8h-1.6V331.2z"/>
			<path d="M176.6,336.1c0-3.3,2.1-5.1,4.5-5.1s4.5,1.9,4.5,5.1s-2.1,5.1-4.5,5.1S176.6,339.4,176.6,336.1z M184,336.1
				c0-2.2-1.1-3.8-2.8-3.8s-2.8,1.5-2.8,3.8s1.1,3.8,2.8,3.8S184,338.4,184,336.1z"/>
			<path d="M188.3,331.2h1.4l0.1,1.4h0.1c0.9-0.9,1.9-1.7,3.3-1.7c2.1,0,3,1.3,3,3.8v6.2h-1.6v-6c0-1.8-0.6-2.6-1.9-2.6
				c-1,0-1.7,0.5-2.7,1.5v7.1h-1.6L188.3,331.2L188.3,331.2z"/>
			<path d="M198.2,339.9l0.8-1.1c0.9,0.7,1.7,1.1,2.9,1.1c1.3,0,1.9-0.7,1.9-1.5c0-1-1.1-1.4-2.2-1.9c-1.4-0.5-2.9-1.2-2.9-2.8
				c0-1.5,1.2-2.8,3.4-2.8c1.2,0,2.3,0.5,3,1.1l-0.8,1.1c-0.7-0.5-1.4-0.9-2.2-0.9c-1.2,0-1.8,0.6-1.8,1.4c0,0.9,1.1,1.3,2.2,1.7
				c1.4,0.5,3,1.1,3,3c0,1.6-1.3,2.9-3.6,2.9C200.5,341.2,199.1,340.7,198.2,339.9L198.2,339.9z"/>
			<path d="M211.9,327.8h3.3c4.1,0,6.2,2.4,6.2,6.5s-2.2,6.6-6.2,6.6h-3.4L211.9,327.8L211.9,327.8z M215.1,339.6
				c3.1,0,4.6-1.9,4.6-5.3s-1.5-5.2-4.6-5.2h-1.5v10.5H215.1z"/>
			<path d="M223.8,328.1c0-0.7,0.5-1.1,1.1-1.1s1.1,0.4,1.1,1.1c0,0.6-0.5,1.1-1.1,1.1S223.8,328.8,223.8,328.1z M224.1,331.2h1.6
				v9.8h-1.6V331.2z"/>
			<path d="M227.6,331.2h1.7l1.8,5.6c0.3,1,0.6,2,0.9,2.9h0.1c0.3-0.9,0.6-1.9,0.9-2.9l1.9-5.6h1.6l-3.5,9.8h-1.9L227.6,331.2z"/>
			<path d="M238.1,328.1c0-0.7,0.5-1.1,1.1-1.1s1.1,0.4,1.1,1.1c0,0.6-0.5,1.1-1.1,1.1S238.1,328.8,238.1,328.1z M238.4,331.2h1.6
				v9.8h-1.6V331.2z"/>
			<path d="M242.3,339.9l0.8-1.1c0.9,0.7,1.7,1.1,2.9,1.1c1.3,0,1.9-0.7,1.9-1.5c0-1-1.1-1.4-2.2-1.9c-1.4-0.5-2.9-1.2-2.9-2.8
				c0-1.5,1.2-2.8,3.4-2.8c1.2,0,2.3,0.5,3,1.1l-0.8,1.1c-0.7-0.5-1.4-0.9-2.2-0.9c-1.2,0-1.8,0.6-1.8,1.4c0,0.9,1.1,1.3,2.2,1.7
				c1.4,0.5,3,1.1,3,3c0,1.6-1.3,2.9-3.6,2.9C244.6,341.2,243.2,340.7,242.3,339.9L242.3,339.9z"/>
			<path d="M251.5,328.1c0-0.7,0.5-1.1,1.1-1.1s1.1,0.4,1.1,1.1c0,0.6-0.5,1.1-1.1,1.1S251.5,328.8,251.5,328.1z M251.8,331.2h1.6
				v9.8h-1.6V331.2z"/>
			<path d="M256,336.1c0-3.3,2.1-5.1,4.5-5.1s4.5,1.9,4.5,5.1s-2.1,5.1-4.5,5.1S256,339.4,256,336.1z M263.4,336.1
				c0-2.2-1.1-3.8-2.8-3.8s-2.8,1.5-2.8,3.8s1.1,3.8,2.8,3.8S263.4,338.4,263.4,336.1z"/>
			<path d="M267.7,331.2h1.4l0.1,1.4h0c0.9-0.9,1.9-1.7,3.3-1.7c2,0,3,1.3,3,3.8v6.2h-1.6v-6c0-1.8-0.6-2.6-1.9-2.6
				c-1,0-1.7,0.5-2.7,1.5v7.1h-1.6L267.7,331.2L267.7,331.2z"/>
			<path class="st6" d="M43.5,358.1l10.6,6.8v0.1l-10.6,6.8h0L43.5,358.1L43.5,358.1L43.5,358.1z"/>
			<path d="M64.3,357.8h3.8c3,0,4.9,1,4.9,3.9s-2,4.1-4.9,4.1H66v5.2h-1.7V357.8L64.3,357.8z M68,364.4c2.3,0,3.4-0.9,3.4-2.7
				s-1.2-2.5-3.5-2.5H66v5.3L68,364.4L68,364.4z"/>
			<path d="M75.6,369.1v-12.4h1.6v12.5c0,0.5,0.2,0.7,0.5,0.7c0.1,0,0.2,0,0.3,0l0.2,1.3c-0.2,0.1-0.5,0.1-0.9,0.1
				C76.1,371.2,75.6,370.4,75.6,369.1L75.6,369.1z"/>
			<path d="M80.1,368.5c0-2.1,1.8-3.2,6-3.7c0-1.3-0.4-2.5-2-2.5c-1.1,0-2.2,0.5-2.9,1l-0.7-1.1c0.9-0.6,2.3-1.3,3.8-1.3
				c2.4,0,3.4,1.6,3.4,4v6h-1.3l-0.1-1.2h-0.1c-0.9,0.8-2,1.4-3.2,1.4C81.3,371.2,80.1,370.2,80.1,368.5L80.1,368.5z M86.1,368.6
				v-2.7c-3.3,0.4-4.4,1.2-4.4,2.5c0,1.1,0.8,1.6,1.7,1.6S85.2,369.5,86.1,368.6L86.1,368.6z"/>
			<path d="M90.9,368v-5.4h-1.5v-1.2l1.5-0.1l0.2-2.7h1.4v2.7h2.7v1.3h-2.7v5.5c0,1.2,0.4,1.9,1.5,1.9c0.3,0,0.8-0.1,1.1-0.2
				l0.3,1.2c-0.6,0.2-1.2,0.4-1.8,0.4C91.6,371.2,90.9,369.9,90.9,368L90.9,368z"/>
			<path d="M101.8,358c-0.4-0.2-0.8-0.2-1.1-0.2c-0.9,0-1.4,0.7-1.4,1.9v1.5h2.1v1.3h-2.1v8.4h-1.6v-8.4h-1.3v-1.2l1.3-0.1v-1.6
				c0-2,0.9-3.2,2.8-3.2c0.6,0,1.2,0.1,1.6,0.3L101.8,358L101.8,358z"/>
			<path d="M102.3,366.1c0-3.3,2.1-5.1,4.5-5.1s4.5,1.9,4.5,5.1s-2.1,5.1-4.5,5.1S102.3,369.4,102.3,366.1z M109.7,366.1
				c0-2.2-1.2-3.8-2.8-3.8s-2.8,1.5-2.8,3.8s1.1,3.8,2.8,3.8S109.7,368.4,109.7,366.1z"/>
			<path d="M113.9,361.2h1.3l0.1,1.8h0.1c0.7-1.2,1.7-2,2.8-2c0.4,0,0.7,0,1,0.2l-0.3,1.4c-0.3-0.1-0.6-0.2-0.9-0.2
				c-0.8,0-1.8,0.6-2.5,2.2v6.3h-1.6L113.9,361.2L113.9,361.2z"/>
			<path d="M120.9,361.2h1.3l0.1,1.4h0.1c0.8-0.9,1.9-1.7,3-1.7c1.5,0,2.3,0.7,2.7,1.9c1-1.1,2-1.9,3.2-1.9c2,0,3,1.3,3,3.8v6.2
				h-1.6v-6c0-1.8-0.6-2.6-1.8-2.6c-0.8,0-1.6,0.5-2.5,1.5v7.1h-1.6v-6c0-1.8-0.6-2.6-1.8-2.6c-0.7,0-1.6,0.5-2.5,1.5v7.1h-1.6
				L120.9,361.2L120.9,361.2z"/>
			<path d="M141.8,357.8h7.6v1.4h-5.9v4.1h5v1.4h-5v4.8h6.1v1.4h-7.8L141.8,357.8L141.8,357.8z"/>
			<path d="M151.3,366.1c0-3.3,2.2-5.1,4.7-5.1c1.3,0,2.2,0.5,2.9,1.1l-0.9,1.1c-0.6-0.5-1.2-0.9-2-0.9c-1.8,0-3.1,1.5-3.1,3.8
				s1.2,3.8,3,3.8c0.9,0,1.7-0.4,2.3-1l0.7,1.1c-0.9,0.8-2,1.2-3.1,1.2C153.2,371.2,151.2,369.4,151.3,366.1L151.3,366.1z"/>
			<path d="M160,366.1c0-3.3,2.1-5.1,4.5-5.1s4.5,1.9,4.5,5.1s-2.1,5.1-4.5,5.1S160,369.4,160,366.1z M167.4,366.1
				c0-2.2-1.1-3.8-2.8-3.8s-2.8,1.5-2.8,3.8s1.1,3.8,2.8,3.8S167.4,368.4,167.4,366.1z"/>
			<path d="M171.6,361.2h1.4l0.1,1.4h0.1c0.9-0.9,1.9-1.7,3.3-1.7c2.1,0,3,1.3,3,3.8v6.2h-1.6v-6c0-1.8-0.6-2.6-1.9-2.6
				c-1,0-1.7,0.5-2.7,1.5v7.1h-1.6L171.6,361.2L171.6,361.2z"/>
			<path d="M181.9,366.1c0-3.3,2.1-5.1,4.5-5.1s4.5,1.9,4.5,5.1s-2.1,5.1-4.5,5.1S181.9,369.4,181.9,366.1z M189.3,366.1
				c0-2.2-1.1-3.8-2.8-3.8s-2.8,1.5-2.8,3.8s1.1,3.8,2.8,3.8S189.3,368.4,189.3,366.1z"/>
			<path d="M193.5,361.2h1.4l0.1,1.4h0.1c0.9-0.9,1.9-1.7,3-1.7c1.5,0,2.3,0.7,2.7,1.9c1-1.1,2-1.9,3.2-1.9c2,0,3,1.3,3,3.8v6.2
				h-1.6v-6c0-1.8-0.6-2.6-1.8-2.6c-0.8,0-1.6,0.5-2.5,1.5v7.1h-1.6v-6c0-1.8-0.6-2.6-1.8-2.6c-0.7,0-1.6,0.5-2.5,1.5v7.1h-1.6
				L193.5,361.2L193.5,361.2z"/>
			<path d="M209.2,375l0.3-1.3c0.2,0.1,0.5,0.2,0.7,0.2c1.1,0,1.8-0.9,2.2-2.1l0.2-0.7l-3.9-9.8h1.7l2,5.4c0.3,0.9,0.6,1.9,0.9,2.7
				h0.1c0.3-0.9,0.6-1.9,0.8-2.7l1.8-5.4h1.6l-3.7,10.6c-0.7,1.9-1.7,3.4-3.6,3.4C209.9,375.2,209.5,375.1,209.2,375L209.2,375z"/>
			<path d="M223.8,357.8h3.3c4.1,0,6.2,2.4,6.2,6.5s-2.2,6.6-6.2,6.6h-3.4L223.8,357.8L223.8,357.8z M226.9,369.6
				c3.1,0,4.6-1.9,4.6-5.3s-1.5-5.2-4.6-5.2h-1.5v10.5H226.9z"/>
			<path d="M235.7,358.1c0-0.7,0.5-1.1,1.1-1.1s1.1,0.4,1.1,1.1c0,0.6-0.5,1.1-1.1,1.1S235.7,358.8,235.7,358.1z M236,361.2h1.6v9.8
				H236V361.2z"/>
			<path d="M239.5,361.2h1.7l1.8,5.6c0.3,1,0.6,2,0.9,2.9h0.1c0.3-0.9,0.6-1.9,0.9-2.9l1.9-5.6h1.6L245,371h-1.9L239.5,361.2z"/>
			<path d="M250,358.1c0-0.7,0.5-1.1,1.1-1.1s1.1,0.4,1.1,1.1c0,0.6-0.5,1.1-1.1,1.1S250,358.8,250,358.1z M250.3,361.2h1.6v9.8
				h-1.6V361.2z"/>
			<path d="M254.2,369.9l0.8-1.1c0.9,0.7,1.7,1.1,2.9,1.1c1.3,0,1.9-0.7,1.9-1.5c0-1-1.1-1.4-2.2-1.9c-1.4-0.5-2.9-1.2-2.9-2.8
				c0-1.5,1.2-2.8,3.4-2.8c1.2,0,2.3,0.5,3,1.1l-0.8,1.1c-0.7-0.5-1.4-0.9-2.2-0.9c-1.2,0-1.8,0.6-1.8,1.4c0,0.9,1.1,1.3,2.2,1.7
				c1.4,0.5,3,1.1,3,3c0,1.6-1.3,2.9-3.6,2.9C256.4,371.2,255.1,370.7,254.2,369.9L254.2,369.9z"/>
			<path d="M263.4,358.1c0-0.7,0.5-1.1,1.1-1.1s1.1,0.4,1.1,1.1c0,0.6-0.5,1.1-1.1,1.1S263.4,358.8,263.4,358.1z M263.7,361.2h1.6
				v9.8h-1.6V361.2z"/>
			<path d="M267.9,366.1c0-3.3,2.1-5.1,4.5-5.1s4.5,1.9,4.5,5.1s-2.1,5.1-4.5,5.1S267.9,369.4,267.9,366.1z M275.3,366.1
				c0-2.2-1.1-3.8-2.8-3.8s-2.8,1.5-2.8,3.8s1.1,3.8,2.8,3.8S275.3,368.4,275.3,366.1z"/>
			<path d="M279.5,361.2h1.4l0.1,1.4h0c0.9-0.9,1.9-1.7,3.3-1.7c2,0,3,1.3,3,3.8v6.2h-1.6v-6c0-1.8-0.6-2.6-1.9-2.6
				c-1,0-1.7,0.5-2.7,1.5v7.1h-1.6L279.5,361.2L279.5,361.2z"/>
			<path class="st6" d="M43.5,388.1l10.6,6.8v0.1l-10.6,6.8h0L43.5,388.1L43.5,388.1L43.5,388.1z"/>
			<path d="M64.3,387.8H72v1.4H66v4.1h5v1.4h-5v4.8h6.1v1.4h-7.8L64.3,387.8L64.3,387.8z"/>
			<path d="M74.8,391.2h1.3l0.1,1.4h0.1c0.8-0.9,1.9-1.7,3-1.7c1.5,0,2.3,0.7,2.7,1.9c1-1.1,2-1.9,3.2-1.9c2,0,3,1.3,3,3.8v6.2h-1.6
				v-6c0-1.8-0.6-2.6-1.8-2.6c-0.8,0-1.6,0.5-2.5,1.5v7.1h-1.6v-6c0-1.8-0.6-2.6-1.8-2.6c-0.7,0-1.6,0.5-2.5,1.5v7.1h-1.6
				L74.8,391.2L74.8,391.2z"/>
			<path d="M90.7,396.1c0-3.2,2.1-5.1,4.4-5.1c2.5,0,3.9,1.8,3.9,4.6c0,0.4,0,0.7-0.1,0.9h-6.6c0.1,2.1,1.4,3.4,3.2,3.4
				c0.9,0,1.7-0.3,2.4-0.8l0.6,1.1c-0.9,0.6-1.9,1-3.2,1C92.8,401.3,90.7,399.4,90.7,396.1L90.7,396.1z M97.6,395.3c0-2-0.9-3-2.4-3
				c-1.4,0-2.6,1.1-2.8,3H97.6z"/>
			<path d="M101.4,391.2h1.3l0.1,1.8h0.1c0.7-1.2,1.7-2,2.8-2c0.4,0,0.7,0,1,0.2l-0.3,1.4c-0.3-0.1-0.6-0.2-0.9-0.2
				c-0.8,0-1.8,0.6-2.5,2.2v6.3h-1.6L101.4,391.2L101.4,391.2z"/>
			<path d="M107.4,402.9c0-0.8,0.5-1.6,1.5-2.2v-0.1c-0.5-0.3-0.9-0.8-0.9-1.6s0.6-1.5,1.1-1.8v-0.1c-0.7-0.5-1.3-1.5-1.3-2.6
				c0-2.1,1.7-3.5,3.7-3.5c0.5,0,1,0.1,1.4,0.2h3.4v1.3h-2c0.5,0.5,0.8,1.2,0.8,2c0,2.1-1.6,3.4-3.6,3.4c-0.5,0-1-0.1-1.5-0.3
				c-0.4,0.3-0.6,0.6-0.6,1.2c0,0.6,0.4,1.1,1.7,1.1h1.9c2.3,0,3.4,0.7,3.4,2.3c0,1.8-1.9,3.4-4.9,3.4
				C109.1,405.5,107.4,404.6,107.4,402.9L107.4,402.9z M114.8,402.4c0-0.9-0.7-1.2-2-1.2h-1.7c-0.4,0-0.8,0-1.3-0.2
				c-0.7,0.5-1,1.1-1,1.7c0,1,1.1,1.7,2.8,1.7C113.6,404.4,114.8,403.4,114.8,402.4L114.8,402.4z M113.6,394.5
				c0-1.4-0.9-2.3-2.1-2.3s-2.1,0.9-2.1,2.3s0.9,2.3,2.1,2.3S113.6,395.9,113.6,394.5z"/>
			<path d="M118,388.1c0-0.7,0.5-1.1,1.1-1.1s1.1,0.4,1.1,1.1c0,0.6-0.5,1.1-1.1,1.1S118,388.8,118,388.1z M118.3,391.2h1.6v9.8
				h-1.6V391.2z"/>
			<path d="M123.3,391.2h1.3l0.1,1.4h0.1c0.9-0.9,1.9-1.7,3.3-1.7c2.1,0,3,1.3,3,3.8v6.2h-1.6v-6c0-1.8-0.6-2.6-1.8-2.6
				c-1,0-1.7,0.5-2.7,1.5v7.1h-1.6L123.3,391.2L123.3,391.2z"/>
			<path d="M133.5,402.9c0-0.8,0.5-1.6,1.5-2.2v-0.1c-0.5-0.3-0.9-0.8-0.9-1.6s0.6-1.5,1.1-1.8v-0.1c-0.6-0.5-1.3-1.5-1.3-2.6
				c0-2.1,1.7-3.5,3.7-3.5c0.5,0,1,0.1,1.4,0.2h3.4v1.3h-2c0.5,0.5,0.8,1.2,0.8,2c0,2.1-1.6,3.4-3.6,3.4c-0.5,0-1-0.1-1.5-0.3
				c-0.4,0.3-0.6,0.6-0.6,1.2c0,0.6,0.4,1.1,1.7,1.1h1.9c2.3,0,3.4,0.7,3.4,2.3c0,1.8-1.9,3.4-4.9,3.4
				C135.2,405.5,133.5,404.6,133.5,402.9L133.5,402.9z M140.9,402.4c0-0.9-0.7-1.2-2-1.2h-1.7c-0.4,0-0.8,0-1.3-0.2
				c-0.7,0.5-1,1.1-1,1.7c0,1,1.1,1.7,2.8,1.7C139.7,404.4,140.9,403.4,140.9,402.4L140.9,402.4z M139.6,394.5
				c0-1.4-0.9-2.3-2.1-2.3s-2.1,0.9-2.1,2.3s0.9,2.3,2.1,2.3S139.6,395.9,139.6,394.5z"/>
			<path d="M147.8,398.5c0-2.1,1.9-3.2,6-3.7c0-1.3-0.4-2.5-2-2.5c-1.1,0-2.2,0.5-2.9,1l-0.6-1.1c0.9-0.6,2.3-1.3,3.9-1.3
				c2.4,0,3.4,1.6,3.4,4v6h-1.4l-0.1-1.2h-0.1c-0.9,0.8-2,1.4-3.2,1.4C149.1,401.2,147.8,400.2,147.8,398.5L147.8,398.5z
				 M153.8,398.6v-2.7c-3.3,0.4-4.4,1.2-4.4,2.5c0,1.1,0.8,1.6,1.7,1.6S152.9,399.5,153.8,398.6L153.8,398.6z"/>
			<path d="M158.6,391.2h1.4l0.1,1.4h0.1c0.9-0.9,1.9-1.7,3.3-1.7c2.1,0,3,1.3,3,3.8v6.2h-1.6v-6c0-1.8-0.6-2.6-1.9-2.6
				c-1,0-1.7,0.5-2.7,1.5v7.1h-1.6L158.6,391.2L158.6,391.2z"/>
			<path d="M168.9,396.1c0-3.2,2-5.1,4.2-5.1c1.1,0,1.9,0.4,2.8,1.1l-0.1-1.7v-3.8h1.6V401h-1.3l-0.2-1.1h0c-0.8,0.8-1.8,1.4-3,1.4
				C170.5,401.2,168.9,399.4,168.9,396.1L168.9,396.1z M175.8,398.5v-5.1c-0.8-0.7-1.6-1-2.4-1c-1.6,0-2.8,1.5-2.8,3.8
				c0,2.4,1,3.8,2.7,3.8C174.2,399.9,175,399.4,175.8,398.5L175.8,398.5z"/>
			<path d="M184.2,394.4c0-4.3,2.5-6.9,5.9-6.9c1.6,0,2.9,0.8,3.6,1.6l-0.9,1.1c-0.7-0.7-1.6-1.3-2.7-1.3c-2.5,0-4.2,2-4.2,5.4
				s1.6,5.4,4.1,5.4c1.3,0,2.2-0.6,3.1-1.5l0.9,1c-1,1.2-2.3,1.9-4.1,1.9C186.6,401.2,184.2,398.7,184.2,394.4L184.2,394.4z"/>
			<path d="M196.3,391.2h1.4l0.1,1.8h0.1c0.7-1.2,1.7-2,2.8-2c0.4,0,0.7,0,1,0.2l-0.3,1.4c-0.3-0.1-0.6-0.2-0.9-0.2
				c-0.8,0-1.8,0.6-2.5,2.2v6.3h-1.6L196.3,391.2L196.3,391.2z"/>
			<path d="M202.3,396.1c0-3.3,2.1-5.1,4.5-5.1s4.5,1.9,4.5,5.1s-2.1,5.1-4.5,5.1S202.3,399.4,202.3,396.1z M209.7,396.1
				c0-2.2-1.1-3.8-2.8-3.8s-2.8,1.5-2.8,3.8s1.1,3.8,2.8,3.8S209.7,398.4,209.7,396.1z"/>
			<path d="M212.9,399.9l0.8-1.1c0.9,0.7,1.7,1.1,2.9,1.1c1.3,0,1.9-0.7,1.9-1.5c0-1-1.1-1.4-2.2-1.9c-1.4-0.5-2.9-1.2-2.9-2.8
				c0-1.5,1.2-2.8,3.4-2.8c1.2,0,2.3,0.5,3,1.1l-0.8,1.1c-0.7-0.5-1.4-0.9-2.2-0.9c-1.2,0-1.8,0.6-1.8,1.4c0,0.9,1.1,1.3,2.2,1.7
				c1.4,0.5,3,1.1,3,3c0,1.6-1.3,2.9-3.6,2.9C215.1,401.2,213.8,400.7,212.9,399.9L212.9,399.9z"/>
			<path d="M221.3,399.9l0.8-1.1c0.9,0.7,1.7,1.1,2.9,1.1c1.3,0,1.9-0.7,1.9-1.5c0-1-1.1-1.4-2.2-1.9c-1.4-0.5-2.9-1.2-2.9-2.8
				c0-1.5,1.2-2.8,3.4-2.8c1.2,0,2.3,0.5,3,1.1l-0.8,1.1c-0.7-0.5-1.4-0.9-2.2-0.9c-1.2,0-1.8,0.6-1.8,1.4c0,0.9,1.1,1.3,2.2,1.7
				c1.4,0.5,3,1.1,3,3c0,1.6-1.3,2.9-3.6,2.9C223.6,401.2,222.2,400.7,221.3,399.9L221.3,399.9z"/>
			<path d="M230.2,395.3h4.6v1.3h-4.6V395.3z"/>
			<path d="M237.4,387.8h3.3c4.1,0,6.2,2.4,6.2,6.5s-2.2,6.6-6.2,6.6h-3.4L237.4,387.8L237.4,387.8z M240.6,399.6
				c3.1,0,4.6-1.9,4.6-5.3s-1.5-5.2-4.6-5.2h-1.5v10.5H240.6z"/>
			<path d="M248.9,396.1c0-3.3,2.1-5.1,4.5-5.1s4.5,1.9,4.5,5.1s-2.1,5.1-4.5,5.1S248.9,399.4,248.9,396.1L248.9,396.1z
				 M256.3,396.1c0-2.2-1.1-3.8-2.8-3.8s-2.8,1.5-2.8,3.8s1.1,3.8,2.8,3.8S256.3,398.4,256.3,396.1z"/>
			<path d="M260.5,391.2h1.4l0.1,1.4h0c0.9-0.9,1.9-1.7,3-1.7c1.5,0,2.3,0.7,2.7,1.9c1-1.1,2-1.9,3.2-1.9c2,0,3,1.3,3,3.8v6.2h-1.6
				v-6c0-1.8-0.6-2.6-1.8-2.6c-0.8,0-1.5,0.5-2.5,1.5v7.1h-1.6v-6c0-1.8-0.6-2.6-1.8-2.6c-0.7,0-1.6,0.5-2.5,1.5v7.1h-1.6
				L260.5,391.2L260.5,391.2z"/>
			<path d="M276.6,398.5c0-2.1,1.9-3.2,6-3.7c0-1.3-0.4-2.5-2-2.5c-1.1,0-2.2,0.5-2.9,1l-0.6-1.1c0.9-0.6,2.3-1.3,3.9-1.3
				c2.4,0,3.4,1.6,3.4,4v6h-1.4l-0.1-1.2h0c-0.9,0.8-2,1.4-3.2,1.4C277.8,401.2,276.6,400.2,276.6,398.5L276.6,398.5z M282.6,398.6
				v-2.7c-3.3,0.4-4.4,1.2-4.4,2.5c0,1.1,0.8,1.6,1.7,1.6S281.7,399.5,282.6,398.6L282.6,398.6z"/>
			<path d="M287,388.1c0-0.7,0.5-1.1,1.1-1.1s1.1,0.4,1.1,1.1c0,0.6-0.5,1.1-1.1,1.1S287,388.8,287,388.1z M287.4,391.2h1.6v9.8
				h-1.6V391.2z"/>
			<path d="M292.3,391.2h1.4l0.1,1.4h0c0.9-0.9,1.9-1.7,3.3-1.7c2,0,3,1.3,3,3.8v6.2h-1.6v-6c0-1.8-0.6-2.6-1.9-2.6
				c-1,0-1.7,0.5-2.7,1.5v7.1h-1.6L292.3,391.2L292.3,391.2z"/>
			<path d="M307.5,387.8h3.3c4,0,6.2,2.4,6.2,6.5s-2.2,6.6-6.2,6.6h-3.4V387.8L307.5,387.8z M310.7,399.6c3.1,0,4.6-1.9,4.6-5.3
				s-1.5-5.2-4.6-5.2h-1.5v10.5H310.7z"/>
			<path d="M319.4,388.1c0-0.7,0.5-1.1,1.1-1.1s1.1,0.4,1.1,1.1c0,0.6-0.5,1.1-1.1,1.1S319.4,388.8,319.4,388.1z M319.7,391.2h1.6
				v9.8h-1.6V391.2z"/>
			<path d="M323.2,391.2h1.7l1.8,5.6c0.3,1,0.6,2,0.9,2.9h0.1c0.3-0.9,0.6-1.9,0.9-2.9l1.9-5.6h1.6l-3.5,9.8h-1.9L323.2,391.2z"/>
			<path d="M333.7,388.1c0-0.7,0.5-1.1,1.1-1.1s1.1,0.4,1.1,1.1c0,0.6-0.5,1.1-1.1,1.1S333.7,388.8,333.7,388.1z M334,391.2h1.6v9.8
				H334V391.2z"/>
			<path d="M337.9,399.9l0.8-1.1c0.9,0.7,1.7,1.1,2.9,1.1c1.3,0,1.9-0.7,1.9-1.5c0-1-1.1-1.4-2.2-1.9c-1.4-0.5-2.9-1.2-2.9-2.8
				c0-1.5,1.2-2.8,3.4-2.8c1.2,0,2.3,0.5,3,1.1l-0.8,1.1c-0.7-0.5-1.4-0.9-2.2-0.9c-1.2,0-1.8,0.6-1.8,1.4c0,0.9,1.1,1.3,2.2,1.7
				c1.4,0.5,3,1.1,3,3c0,1.6-1.3,2.9-3.6,2.9C340.2,401.2,338.8,400.7,337.9,399.9L337.9,399.9z"/>
			<path d="M347.1,388.1c0-0.7,0.5-1.1,1.1-1.1s1.1,0.4,1.1,1.1c0,0.6-0.5,1.1-1.1,1.1S347.1,388.8,347.1,388.1z M347.4,391.2h1.6
				v9.8h-1.6V391.2z"/>
			<path d="M351.6,396.1c0-3.3,2.1-5.1,4.5-5.1s4.5,1.9,4.5,5.1s-2.1,5.1-4.5,5.1S351.6,399.4,351.6,396.1z M359,396.1
				c0-2.2-1.1-3.8-2.8-3.8s-2.8,1.5-2.8,3.8s1.1,3.8,2.8,3.8S359,398.4,359,396.1z"/>
			<path d="M363.3,391.2h1.4l0.1,1.4h0c0.9-0.9,1.9-1.7,3.3-1.7c2,0,3,1.3,3,3.8v6.2h-1.6v-6c0-1.8-0.6-2.6-1.9-2.6
				c-1,0-1.7,0.5-2.7,1.5v7.1h-1.6L363.3,391.2L363.3,391.2z"/>
			<path class="st6" d="M43.5,418.1l10.6,6.8v0.1l-10.6,6.8h0L43.5,418.1L43.5,418.1L43.5,418.1z"/>
			<path d="M64.3,417.8h3.3c4.1,0,6.2,2.4,6.2,6.5s-2.2,6.6-6.2,6.6h-3.4L64.3,417.8L64.3,417.8z M67.5,429.6c3.1,0,4.7-1.9,4.7-5.3
				s-1.5-5.2-4.7-5.2H66v10.5H67.5z"/>
			<path d="M76.3,418.1c0-0.7,0.5-1.1,1.1-1.1s1.1,0.4,1.1,1.1c0,0.6-0.5,1.1-1.1,1.1S76.3,418.8,76.3,418.1z M76.6,421.2h1.6v9.8
				h-1.6V421.2z"/>
			<path d="M80.8,432.9c0-0.8,0.5-1.6,1.5-2.2v-0.1c-0.5-0.3-0.9-0.8-0.9-1.6s0.6-1.5,1.1-1.8v-0.1c-0.7-0.5-1.3-1.5-1.3-2.6
				c0-2.1,1.7-3.5,3.7-3.5c0.5,0,1,0.1,1.4,0.2h3.4v1.3h-2c0.5,0.5,0.8,1.2,0.8,2c0,2.1-1.6,3.4-3.6,3.4c-0.5,0-1-0.1-1.5-0.3
				c-0.4,0.3-0.6,0.6-0.6,1.2c0,0.6,0.4,1.1,1.7,1.1h1.9c2.3,0,3.4,0.7,3.4,2.3c0,1.8-1.9,3.4-4.9,3.4
				C82.4,435.5,80.8,434.6,80.8,432.9L80.8,432.9z M88.2,432.4c0-0.9-0.7-1.2-2-1.2h-1.7c-0.4,0-0.8,0-1.3-0.2c-0.7,0.5-1,1.1-1,1.7
				c0,1,1.1,1.7,2.8,1.7C86.9,434.4,88.2,433.4,88.2,432.4L88.2,432.4z M86.9,424.5c0-1.4-0.9-2.3-2.1-2.3s-2.1,0.9-2.1,2.3
				s0.9,2.3,2.1,2.3S86.9,425.9,86.9,424.5z"/>
			<path d="M91.3,418.1c0-0.7,0.5-1.1,1.1-1.1s1.1,0.4,1.1,1.1c0,0.6-0.5,1.1-1.1,1.1S91.3,418.8,91.3,418.1z M91.6,421.2h1.6v9.8
				h-1.6V421.2z"/>
			<path d="M96.9,428v-5.4h-1.5v-1.2l1.5-0.1l0.2-2.7h1.4v2.7h2.7v1.3h-2.7v5.5c0,1.2,0.4,1.9,1.5,1.9c0.3,0,0.8-0.1,1.1-0.2
				l0.3,1.2c-0.6,0.2-1.2,0.4-1.8,0.4C97.6,431.2,96.9,429.9,96.9,428L96.9,428z"/>
			<path d="M102.3,428.5c0-2.1,1.8-3.2,6-3.7c0-1.3-0.4-2.5-2-2.5c-1.1,0-2.2,0.5-2.9,1l-0.7-1.1c0.9-0.6,2.3-1.3,3.8-1.3
				c2.4,0,3.4,1.6,3.4,4v6h-1.3l-0.1-1.2h-0.1c-0.9,0.8-2,1.4-3.2,1.4C103.6,431.2,102.3,430.2,102.3,428.5L102.3,428.5z
				 M108.3,428.6v-2.7c-3.3,0.4-4.4,1.2-4.4,2.5c0,1.1,0.8,1.6,1.7,1.6S107.4,429.5,108.3,428.6L108.3,428.6z"/>
			<path d="M113.1,429.1v-12.4h1.6v12.5c0,0.5,0.2,0.7,0.5,0.7c0.1,0,0.2,0,0.3,0l0.2,1.3c-0.2,0.1-0.5,0.1-0.9,0.1
				C113.6,431.2,113.1,430.4,113.1,429.1L113.1,429.1z"/>
			<path d="M121.4,429.3l1-1.1c0.9,1,2.3,1.6,3.7,1.6c1.7,0,2.8-0.9,2.8-2.2s-0.9-1.8-2.2-2.3l-1.9-0.8c-1.2-0.5-2.7-1.5-2.7-3.4
				c0-2,1.8-3.5,4.2-3.5c1.6,0,2.9,0.7,3.9,1.6l-0.9,1.1c-0.8-0.8-1.8-1.2-3-1.2c-1.5,0-2.5,0.8-2.5,1.9c0,1.3,1.2,1.8,2.2,2.2
				l1.9,0.8c1.5,0.7,2.7,1.6,2.7,3.5c0,2.1-1.7,3.8-4.5,3.8C124.2,431.3,122.6,430.5,121.4,429.3L121.4,429.3z"/>
			<path d="M132.3,426.1c0-3.2,2.1-5.1,4.4-5.1c2.5,0,3.9,1.8,3.9,4.6c0,0.4,0,0.7-0.1,0.9h-6.6c0.1,2.1,1.4,3.4,3.2,3.4
				c0.9,0,1.7-0.3,2.4-0.8l0.6,1.1c-0.9,0.6-1.9,1-3.2,1C134.4,431.3,132.3,429.4,132.3,426.1L132.3,426.1z M139.1,425.3
				c0-2-0.9-3-2.4-3c-1.4,0-2.6,1.1-2.8,3H139.1L139.1,425.3z"/>
			<path d="M143,421.2h1.4l0.1,1.8h0.1c0.7-1.2,1.7-2,2.8-2c0.4,0,0.7,0,1,0.2l-0.3,1.4c-0.3-0.1-0.6-0.2-0.9-0.2
				c-0.8,0-1.8,0.6-2.5,2.2v6.3H143L143,421.2L143,421.2z"/>
			<path d="M149.1,421.2h1.7l1.8,5.6c0.3,1,0.6,2,0.9,2.9h0.1c0.3-0.9,0.6-1.9,0.9-2.9l1.9-5.6h1.6l-3.5,9.8h-1.9L149.1,421.2z"/>
			<path d="M159.6,418.1c0-0.7,0.5-1.1,1.1-1.1s1.1,0.4,1.1,1.1c0,0.6-0.5,1.1-1.1,1.1S159.6,418.8,159.6,418.1z M159.9,421.2h1.6
				v9.8h-1.6V421.2z"/>
			<path d="M164.1,426.1c0-3.3,2.2-5.1,4.7-5.1c1.3,0,2.2,0.5,2.9,1.1l-0.9,1.1c-0.6-0.5-1.2-0.9-2-0.9c-1.8,0-3.1,1.5-3.1,3.8
				s1.2,3.8,3,3.8c0.9,0,1.7-0.4,2.3-1l0.7,1.1c-0.9,0.8-2,1.2-3.1,1.2C166.1,431.2,164.1,429.4,164.1,426.1L164.1,426.1z"/>
			<path d="M172.8,426.1c0-3.2,2.1-5.1,4.4-5.1c2.5,0,3.9,1.8,3.9,4.6c0,0.4,0,0.7-0.1,0.9h-6.6c0.1,2.1,1.4,3.4,3.2,3.4
				c0.9,0,1.7-0.3,2.4-0.8l0.6,1.1c-0.9,0.6-1.9,1-3.2,1C174.9,431.3,172.8,429.4,172.8,426.1L172.8,426.1z M179.7,425.3
				c0-2-0.9-3-2.4-3c-1.4,0-2.6,1.1-2.8,3H179.7L179.7,425.3z"/>
			<path d="M187.7,417.8h3.3c4.1,0,6.2,2.4,6.2,6.5s-2.2,6.6-6.2,6.6h-3.4L187.7,417.8L187.7,417.8z M190.9,429.6
				c3.1,0,4.6-1.9,4.6-5.3s-1.5-5.2-4.6-5.2h-1.5v10.5H190.9z"/>
			<path d="M199.6,418.1c0-0.7,0.5-1.1,1.1-1.1s1.1,0.4,1.1,1.1c0,0.6-0.5,1.1-1.1,1.1S199.6,418.8,199.6,418.1z M199.9,421.2h1.6
				v9.8h-1.6V421.2z"/>
			<path d="M203.4,421.2h1.7l1.8,5.6c0.3,1,0.6,2,0.9,2.9h0.1c0.3-0.9,0.6-1.9,0.9-2.9l1.9-5.6h1.6l-3.5,9.8H207L203.4,421.2z"/>
			<path d="M213.9,418.1c0-0.7,0.5-1.1,1.1-1.1s1.1,0.4,1.1,1.1c0,0.6-0.5,1.1-1.1,1.1S213.9,418.8,213.9,418.1z M214.2,421.2h1.6
				v9.8h-1.6V421.2z"/>
			<path d="M218.1,429.9l0.8-1.1c0.9,0.7,1.7,1.1,2.9,1.1c1.3,0,1.9-0.7,1.9-1.5c0-1-1.1-1.4-2.2-1.9c-1.4-0.5-2.9-1.2-2.9-2.8
				c0-1.5,1.2-2.8,3.4-2.8c1.2,0,2.3,0.5,3,1.1l-0.8,1.1c-0.7-0.5-1.4-0.9-2.2-0.9c-1.2,0-1.8,0.6-1.8,1.4c0,0.9,1.1,1.3,2.2,1.7
				c1.4,0.5,3,1.1,3,3c0,1.6-1.3,2.9-3.6,2.9C220.4,431.2,219,430.7,218.1,429.9L218.1,429.9z"/>
			<path d="M227.3,418.1c0-0.7,0.5-1.1,1.1-1.1s1.1,0.4,1.1,1.1c0,0.6-0.5,1.1-1.1,1.1S227.3,418.8,227.3,418.1z M227.6,421.2h1.6
				v9.8h-1.6V421.2z"/>
			<path d="M231.8,426.1c0-3.3,2.1-5.1,4.5-5.1s4.5,1.9,4.5,5.1s-2.1,5.1-4.5,5.1S231.8,429.4,231.8,426.1z M239.2,426.1
				c0-2.2-1.1-3.8-2.8-3.8s-2.8,1.5-2.8,3.8s1.1,3.8,2.8,3.8S239.2,428.4,239.2,426.1z"/>
			<path d="M243.5,421.2h1.4l0.1,1.4h0.1c0.9-0.9,1.9-1.7,3.3-1.7c2.1,0,3,1.3,3,3.8v6.2h-1.6v-6c0-1.8-0.6-2.6-1.9-2.6
				c-1,0-1.7,0.5-2.7,1.5v7.1h-1.6L243.5,421.2L243.5,421.2z"/>
		</g>
	</g>
	<g>
		<g>
			<path class="st6" d="M484.9,298.5l10.6,6.8v0.1l-10.6,6.8h0L484.9,298.5L484.9,298.5L484.9,298.5z"/>
			<path d="M504.8,309.6l1-1.1c1,1,2.3,1.6,3.6,1.6c1.7,0,2.8-0.9,2.8-2.2s-1-1.8-2.2-2.3l-1.9-0.8c-1.2-0.5-2.7-1.5-2.7-3.4
				c0-2,1.8-3.5,4.2-3.5c1.6,0,3,0.7,3.9,1.6l-0.9,1.1c-0.8-0.8-1.8-1.2-3-1.2c-1.5,0-2.5,0.8-2.5,1.9c0,1.3,1.1,1.8,2.2,2.2
				l1.9,0.8c1.5,0.7,2.7,1.6,2.7,3.5c0,2.1-1.7,3.8-4.5,3.8C507.5,311.6,505.9,310.8,504.8,309.6L504.8,309.6z"/>
			<path d="M515.6,306.5c0-3.2,2.1-5.1,4.4-5.1c2.5,0,3.9,1.8,3.9,4.6c0,0.4,0,0.7-0.1,0.9h-6.6c0.1,2.1,1.4,3.4,3.2,3.4
				c1,0,1.7-0.3,2.5-0.8l0.6,1.1c-0.9,0.6-1.9,1-3.2,1C517.7,311.6,515.6,309.7,515.6,306.5L515.6,306.5z M522.4,305.7
				c0-2-0.9-3-2.4-3c-1.4,0-2.6,1.1-2.8,3H522.4z"/>
			<path d="M525.5,306.5c0-3.3,2.2-5.1,4.7-5.1c1.3,0,2.2,0.5,2.9,1.1l-0.8,1.1c-0.6-0.5-1.2-0.9-2-0.9c-1.8,0-3.1,1.5-3.1,3.8
				s1.2,3.8,3,3.8c0.9,0,1.7-0.4,2.3-1l0.7,1.1c-0.9,0.8-2,1.2-3.2,1.2C527.5,311.6,525.5,309.7,525.5,306.5L525.5,306.5z"/>
			<path d="M535.5,301.6h1.3l0.1,1.8h0c0.7-1.2,1.7-2,2.8-2c0.4,0,0.7,0,1,0.2l-0.3,1.4c-0.3-0.1-0.6-0.2-1-0.2
				c-0.8,0-1.8,0.6-2.5,2.2v6.3h-1.6L535.5,301.6L535.5,301.6z"/>
			<path d="M541.5,306.5c0-3.2,2.1-5.1,4.4-5.1c2.5,0,3.9,1.8,3.9,4.6c0,0.4,0,0.7-0.1,0.9h-6.6c0.1,2.1,1.4,3.4,3.2,3.4
				c1,0,1.7-0.3,2.5-0.8l0.6,1.1c-0.9,0.6-1.9,1-3.2,1C543.6,311.6,541.5,309.7,541.5,306.5L541.5,306.5z M548.3,305.7
				c0-2-0.9-3-2.4-3c-1.4,0-2.6,1.1-2.8,3H548.3z"/>
			<path d="M552.3,308.3v-5.4h-1.5v-1.2l1.5-0.1l0.2-2.7h1.4v2.7h2.7v1.3h-2.7v5.5c0,1.2,0.4,1.9,1.5,1.9c0.3,0,0.8-0.1,1.1-0.2
				l0.3,1.2c-0.6,0.2-1.2,0.4-1.8,0.4C553,311.6,552.3,310.3,552.3,308.3L552.3,308.3z"/>
			<path d="M557.8,308.8c0-2.1,1.8-3.2,6-3.7c0-1.3-0.4-2.5-2-2.5c-1.1,0-2.2,0.5-2.9,1l-0.7-1.1c0.9-0.6,2.3-1.3,3.8-1.3
				c2.4,0,3.4,1.6,3.4,4v6H564l-0.1-1.2h0c-0.9,0.8-2,1.4-3.2,1.4C559,311.6,557.8,310.6,557.8,308.8L557.8,308.8z M563.8,309v-2.7
				c-3.3,0.4-4.4,1.2-4.4,2.5c0,1.1,0.8,1.6,1.7,1.6S562.8,309.8,563.8,309L563.8,309z"/>
			<path d="M568.5,301.6h1.3l0.1,1.8h0c0.7-1.2,1.7-2,2.8-2c0.4,0,0.7,0,1,0.2l-0.3,1.4c-0.3-0.1-0.6-0.2-1-0.2
				c-0.8,0-1.8,0.6-2.5,2.2v6.3h-1.6L568.5,301.6L568.5,301.6z"/>
			<path d="M575.2,298.5c0-0.7,0.5-1.1,1.1-1.1s1.1,0.4,1.1,1.1c0,0.6-0.5,1.1-1.1,1.1S575.2,299.1,575.2,298.5z M575.5,301.6h1.6
				v9.8h-1.6V301.6z"/>
			<path d="M579.8,308.8c0-2.1,1.8-3.2,6-3.7c0-1.3-0.4-2.5-2-2.5c-1.1,0-2.2,0.5-2.9,1l-0.7-1.1c0.9-0.6,2.3-1.3,3.8-1.3
				c2.4,0,3.4,1.6,3.4,4v6h-1.3l-0.1-1.2h0c-0.9,0.8-2,1.4-3.2,1.4C581,311.6,579.8,310.6,579.8,308.8L579.8,308.8z M585.8,309v-2.7
				c-3.3,0.4-4.4,1.2-4.4,2.5c0,1.1,0.8,1.6,1.7,1.6S584.9,309.8,585.8,309L585.8,309z"/>
			<path d="M590.6,308.3v-5.4h-1.5v-1.2l1.5-0.1l0.2-2.7h1.4v2.7h2.7v1.3h-2.7v5.5c0,1.2,0.4,1.9,1.5,1.9c0.3,0,0.8-0.1,1.1-0.2
				l0.3,1.2c-0.6,0.2-1.2,0.4-1.8,0.4C591.3,311.6,590.6,310.3,590.6,308.3L590.6,308.3z"/>
			<path class="st6" d="M484.9,328.5l10.6,6.8v0.1l-10.6,6.8h0L484.9,328.5L484.9,328.5L484.9,328.5z"/>
			<path d="M505.7,328.2h3.8c3,0,4.9,1,4.9,3.9s-2,4.1-4.9,4.1h-2.2v5.2h-1.7V328.2L505.7,328.2z M509.4,334.8
				c2.3,0,3.4-0.9,3.4-2.7s-1.2-2.5-3.5-2.5h-1.9v5.3L509.4,334.8L509.4,334.8z"/>
			<path d="M515.7,336.5c0-3.2,2.1-5.1,4.4-5.1c2.5,0,3.9,1.8,3.9,4.6c0,0.4,0,0.7-0.1,0.9h-6.6c0.1,2.1,1.4,3.4,3.2,3.4
				c1,0,1.7-0.3,2.5-0.8l0.6,1.1c-0.9,0.6-1.9,1-3.2,1C517.8,341.6,515.7,339.7,515.7,336.5L515.7,336.5z M522.6,335.7
				c0-2-0.9-3-2.4-3c-1.4,0-2.6,1.1-2.8,3H522.6z"/>
			<path d="M526.4,331.6h1.3l0.1,1.8h0c0.7-1.2,1.7-2,2.8-2c0.4,0,0.7,0,1,0.2l-0.3,1.4c-0.3-0.1-0.6-0.2-1-0.2
				c-0.8,0-1.8,0.6-2.5,2.2v6.3h-1.6L526.4,331.6L526.4,331.6z"/>
			<path d="M532.2,340.2l0.8-1.1c0.8,0.7,1.7,1.1,2.9,1.1c1.3,0,1.9-0.7,1.9-1.5c0-1-1.2-1.4-2.2-1.9c-1.4-0.5-2.9-1.2-2.9-2.8
				c0-1.5,1.2-2.8,3.4-2.8c1.2,0,2.3,0.5,3,1.1l-0.8,1.1c-0.7-0.5-1.4-0.9-2.2-0.9c-1.2,0-1.8,0.6-1.8,1.4c0,0.9,1.1,1.3,2.2,1.7
				c1.4,0.5,3,1.1,3,3c0,1.6-1.3,2.9-3.6,2.9C534.5,341.6,533.2,341,532.2,340.2L532.2,340.2z"/>
			<path d="M541,336.5c0-3.3,2.1-5.1,4.5-5.1s4.5,1.9,4.5,5.1s-2.1,5.1-4.5,5.1S541,339.7,541,336.5z M548.4,336.5
				c0-2.2-1.2-3.8-2.8-3.8s-2.8,1.5-2.8,3.8s1.1,3.8,2.8,3.8S548.4,338.7,548.4,336.5z"/>
			<path d="M552.7,331.6h1.3l0.1,1.4h0c0.9-0.9,1.9-1.7,3.3-1.7c2,0,3,1.3,3,3.8v6.2h-1.6v-6c0-1.8-0.6-2.6-1.8-2.6
				c-1,0-1.7,0.5-2.7,1.5v7.1h-1.6V331.6L552.7,331.6z"/>
			<path d="M563.7,331.6h1.3l0.1,1.4h0c0.9-0.9,1.9-1.7,3.3-1.7c2,0,3,1.3,3,3.8v6.2h-1.6v-6c0-1.8-0.6-2.6-1.8-2.6
				c-1,0-1.7,0.5-2.7,1.5v7.1h-1.6V331.6L563.7,331.6z"/>
			<path d="M573.9,336.5c0-3.2,2.1-5.1,4.4-5.1c2.5,0,3.9,1.8,3.9,4.6c0,0.4,0,0.7-0.1,0.9h-6.6c0.1,2.1,1.4,3.4,3.2,3.4
				c1,0,1.7-0.3,2.5-0.8l0.6,1.1c-0.9,0.6-1.9,1-3.2,1C576,341.6,573.9,339.7,573.9,336.5L573.9,336.5z M580.8,335.7
				c0-2-0.9-3-2.4-3c-1.4,0-2.6,1.1-2.8,3H580.8z"/>
			<path d="M584.6,339.4V327h1.6v12.5c0,0.5,0.2,0.7,0.5,0.7c0.1,0,0.2,0,0.3,0l0.2,1.3c-0.2,0.1-0.5,0.1-1,0.1
				C585.2,341.6,584.6,340.8,584.6,339.4L584.6,339.4z"/>
			<path d="M593.2,334.7c0-4.2,2.3-6.8,5.6-6.8s5.6,2.6,5.6,6.8s-2.3,6.9-5.6,6.9S593.2,339,593.2,334.7z M602.8,334.7
				c0-3.3-1.6-5.4-3.9-5.4s-3.9,2-3.9,5.4s1.5,5.4,3.9,5.4S602.8,338,602.8,334.7z"/>
			<path d="M613.2,330c0-2,0.9-3.2,2.9-3.2c0.6,0,1.2,0.1,1.6,0.3l-0.4,1.2c-0.4-0.2-0.8-0.2-1.1-0.2c-0.9,0-1.4,0.7-1.4,1.9v1.5
				h2.1v1.3h-2.1v8.4h-1.6v-8.4H609v8.4h-1.6v-8.4h-1.3v-1.2l1.3-0.1v-1.3c0-2,1-3.3,3-3.3c0.7,0,1.3,0.1,1.8,0.3l-0.3,1.3
				c-0.4-0.2-0.8-0.3-1.3-0.3c-1,0-1.5,0.7-1.5,2v1.3h4.1L613.2,330L613.2,330z M620.7,328.5c0,0.6-0.5,1.1-1.2,1.1
				s-1.1-0.5-1.1-1.1c0-0.7,0.5-1.1,1.1-1.1S620.7,327.8,620.7,328.5z M618.8,331.6h1.6v9.8h-1.6V331.6z"/>
			<path d="M622.9,336.5c0-3.3,2.2-5.1,4.7-5.1c1.3,0,2.2,0.5,2.9,1.1l-0.8,1.1c-0.6-0.5-1.2-0.9-2-0.9c-1.8,0-3.1,1.5-3.1,3.8
				s1.2,3.8,3,3.8c0.9,0,1.7-0.4,2.3-1l0.7,1.1c-0.9,0.8-2,1.2-3.2,1.2C624.9,341.6,622.9,339.7,622.9,336.5L622.9,336.5z"/>
			<path d="M631.7,336.5c0-3.2,2.1-5.1,4.4-5.1c2.5,0,3.9,1.8,3.9,4.6c0,0.4,0,0.7-0.1,0.9h-6.6c0.1,2.1,1.4,3.4,3.2,3.4
				c1,0,1.7-0.3,2.5-0.8l0.6,1.1c-0.9,0.6-1.9,1-3.2,1C633.8,341.6,631.7,339.7,631.7,336.5L631.7,336.5z M638.5,335.7
				c0-2-0.9-3-2.4-3c-1.4,0-2.6,1.1-2.8,3H638.5z"/>
			<path class="st6" d="M484.9,358.5l10.6,6.8v0.1l-10.6,6.8h0L484.9,358.5L484.9,358.5L484.9,358.5z"/>
			<path d="M511.8,367.3h-4.8l-1.3,4H504l4.5-13.2h1.9l4.5,13.2H513L511.8,367.3L511.8,367.3z M511.4,366l-0.6-2
				c-0.5-1.5-0.9-2.9-1.3-4.5h-0.1c-0.4,1.5-0.9,3-1.3,4.5l-0.6,2H511.4L511.4,366z"/>
			<path d="M515.8,366.5c0-3.3,2.2-5.1,4.7-5.1c1.3,0,2.2,0.5,2.9,1.1l-0.8,1.1c-0.6-0.5-1.2-0.9-2-0.9c-1.8,0-3.1,1.5-3.1,3.8
				s1.2,3.8,3,3.8c0.9,0,1.7-0.4,2.3-1l0.7,1.1c-0.9,0.8-2,1.2-3.2,1.2C517.7,371.6,515.7,369.7,515.8,366.5L515.8,366.5z"/>
			<path d="M524.5,366.5c0-3.3,2.2-5.1,4.7-5.1c1.3,0,2.2,0.5,2.9,1.1l-0.8,1.1c-0.6-0.5-1.2-0.9-2-0.9c-1.8,0-3.1,1.5-3.1,3.8
				s1.2,3.8,3,3.8c0.9,0,1.7-0.4,2.3-1l0.7,1.1c-0.9,0.8-2,1.2-3.2,1.2C526.5,371.6,524.5,369.7,524.5,366.5L524.5,366.5z"/>
			<path d="M533.2,366.5c0-3.3,2.1-5.1,4.5-5.1s4.5,1.9,4.5,5.1s-2.1,5.1-4.5,5.1S533.2,369.7,533.2,366.5z M540.6,366.5
				c0-2.2-1.2-3.8-2.8-3.8s-2.8,1.5-2.8,3.8s1.1,3.8,2.8,3.8S540.6,368.7,540.6,366.5z"/>
			<path d="M544.7,367.8v-6.2h1.6v6c0,1.8,0.5,2.6,1.8,2.6c1,0,1.7-0.5,2.7-1.7v-6.9h1.6v9.8h-1.4l-0.1-1.5h0
				c-0.9,1.1-1.9,1.8-3.2,1.8C545.7,371.6,544.8,370.3,544.7,367.8L544.7,367.8z"/>
			<path d="M555.8,361.6h1.3l0.1,1.4h0c0.9-0.9,1.9-1.7,3.3-1.7c2,0,3,1.3,3,3.8v6.2H562v-6c0-1.8-0.6-2.6-1.8-2.6
				c-1,0-1.7,0.5-2.7,1.5v7.1h-1.6V361.6L555.8,361.6z"/>
			<path d="M567.1,368.3v-5.4h-1.5v-1.2l1.5-0.1l0.2-2.7h1.4v2.7h2.7v1.3h-2.7v5.5c0,1.2,0.4,1.9,1.5,1.9c0.3,0,0.8-0.1,1.1-0.2
				l0.3,1.2c-0.6,0.2-1.2,0.4-1.8,0.4C567.8,371.6,567.1,370.3,567.1,368.3L567.1,368.3z"/>
			<path d="M573.3,358.5c0-0.7,0.5-1.1,1.1-1.1s1.1,0.4,1.1,1.1c0,0.6-0.5,1.1-1.1,1.1S573.3,359.1,573.3,358.5z M573.6,361.6h1.6
				v9.8h-1.6V361.6z"/>
			<path d="M578.5,361.6h1.3l0.1,1.4h0c0.9-0.9,1.9-1.7,3.3-1.7c2,0,3,1.3,3,3.8v6.2h-1.6v-6c0-1.8-0.6-2.6-1.8-2.6
				c-1,0-1.7,0.5-2.7,1.5v7.1h-1.6V361.6L578.5,361.6z"/>
			<path d="M588.8,373.2c0-0.8,0.5-1.6,1.5-2.2V371c-0.5-0.3-0.9-0.8-0.9-1.6s0.6-1.5,1.1-1.8v-0.1c-0.7-0.5-1.3-1.5-1.3-2.6
				c0-2.1,1.7-3.5,3.7-3.5c0.5,0,1,0.1,1.4,0.2h3.4v1.3h-2c0.5,0.5,0.8,1.2,0.8,2c0,2.1-1.6,3.4-3.6,3.4c-0.5,0-1-0.1-1.5-0.3
				c-0.4,0.3-0.6,0.6-0.6,1.2c0,0.6,0.4,1.1,1.7,1.1h1.9c2.3,0,3.4,0.7,3.4,2.3c0,1.8-1.9,3.4-4.9,3.4
				C590.4,375.9,588.7,374.9,588.8,373.2L588.8,373.2z M596.2,372.7c0-0.9-0.7-1.2-2-1.2h-1.7c-0.4,0-0.8,0-1.3-0.2
				c-0.7,0.5-1,1.1-1,1.7c0,1,1.1,1.7,2.8,1.7C594.9,374.8,596.2,373.8,596.2,372.7L596.2,372.7z M594.9,364.8
				c0-1.4-0.9-2.3-2.1-2.3s-2.1,0.9-2.1,2.3s1,2.3,2.1,2.3S594.9,366.3,594.9,364.8z"/>
			<path d="M603.1,368.8c0-2.1,1.8-3.2,6-3.7c0-1.3-0.4-2.5-2-2.5c-1.1,0-2.2,0.5-2.9,1l-0.7-1.1c0.9-0.6,2.3-1.3,3.8-1.3
				c2.4,0,3.4,1.6,3.4,4v6h-1.3l-0.1-1.2h0c-0.9,0.8-2,1.4-3.2,1.4C604.3,371.6,603.1,370.6,603.1,368.8L603.1,368.8z M609.1,369
				v-2.7c-3.3,0.4-4.4,1.2-4.4,2.5c0,1.1,0.8,1.6,1.7,1.6S608.1,369.8,609.1,369L609.1,369z"/>
			<path d="M613.8,361.6h1.3l0.1,1.4h0c0.9-0.9,1.9-1.7,3.3-1.7c2,0,3,1.3,3,3.8v6.2H620v-6c0-1.8-0.6-2.6-1.8-2.6
				c-1,0-1.7,0.5-2.7,1.5v7.1h-1.6V361.6L613.8,361.6z"/>
			<path d="M624.1,366.5c0-3.2,2-5.1,4.2-5.1c1.2,0,1.9,0.4,2.8,1.1l-0.1-1.7V357h1.6v14.3h-1.3l-0.2-1.1h0c-0.8,0.8-1.8,1.4-3,1.4
				C625.7,371.6,624.1,369.8,624.1,366.5L624.1,366.5z M631,368.9v-5.1c-0.8-0.7-1.6-1-2.4-1c-1.6,0-2.8,1.5-2.8,3.8
				c0,2.4,1,3.8,2.7,3.8C629.4,370.2,630.2,369.8,631,368.9L631,368.9z"/>
			<path d="M639.2,369.6l1-1.1c1,1,2.3,1.6,3.7,1.6c1.7,0,2.8-0.9,2.8-2.2s-1-1.8-2.2-2.3l-1.9-0.8c-1.2-0.5-2.7-1.5-2.7-3.4
				c0-2,1.8-3.5,4.2-3.5c1.6,0,3,0.7,3.9,1.6l-0.9,1.1c-0.8-0.8-1.8-1.2-3-1.2c-1.5,0-2.5,0.8-2.5,1.9c0,1.3,1.2,1.8,2.2,2.2
				l1.9,0.8c1.5,0.7,2.7,1.6,2.7,3.5c0,2.1-1.7,3.8-4.5,3.8C642,371.6,640.4,370.8,639.2,369.6L639.2,369.6z"/>
			<path d="M650.6,368.3v-5.4h-1.5v-1.2l1.5-0.1l0.2-2.7h1.4v2.7h2.7v1.3h-2.7v5.5c0,1.2,0.4,1.9,1.5,1.9c0.3,0,0.8-0.1,1.1-0.2
				l0.3,1.2c-0.6,0.2-1.2,0.4-1.8,0.4C651.3,371.6,650.6,370.3,650.6,368.3L650.6,368.3z"/>
			<path d="M656,368.8c0-2.1,1.8-3.2,6-3.7c0-1.3-0.4-2.5-2-2.5c-1.1,0-2.2,0.5-2.9,1l-0.7-1.1c0.9-0.6,2.3-1.3,3.8-1.3
				c2.4,0,3.4,1.6,3.4,4v6h-1.3l-0.1-1.2h0c-0.9,0.8-2,1.4-3.2,1.4C657.2,371.6,656,370.6,656,368.8L656,368.8z M662,369v-2.7
				c-3.3,0.4-4.4,1.2-4.4,2.5c0,1.1,0.8,1.6,1.7,1.6S661.1,369.8,662,369L662,369z"/>
			<path d="M666.8,368.3v-5.4h-1.5v-1.2l1.5-0.1l0.2-2.7h1.4v2.7h2.7v1.3h-2.7v5.5c0,1.2,0.4,1.9,1.5,1.9c0.3,0,0.8-0.1,1.1-0.2
				l0.3,1.2c-0.6,0.2-1.2,0.4-1.8,0.4C667.5,371.6,666.8,370.3,666.8,368.3L666.8,368.3z"/>
			<path d="M673,358.5c0-0.7,0.5-1.1,1.1-1.1s1.1,0.4,1.1,1.1c0,0.6-0.5,1.1-1.1,1.1S673,359.1,673,358.5z M673.3,361.6h1.6v9.8
				h-1.6V361.6z"/>
			<path d="M677.2,370.2l0.8-1.1c0.8,0.7,1.7,1.1,2.9,1.1c1.3,0,1.9-0.7,1.9-1.5c0-1-1.2-1.4-2.2-1.9c-1.4-0.5-2.9-1.2-2.9-2.8
				c0-1.5,1.2-2.8,3.4-2.8c1.2,0,2.3,0.5,3,1.1l-0.8,1.1c-0.7-0.5-1.4-0.9-2.2-0.9c-1.2,0-1.8,0.6-1.8,1.4c0,0.9,1.1,1.3,2.2,1.7
				c1.4,0.5,3,1.1,3,3c0,1.6-1.3,2.9-3.6,2.9C679.4,371.6,678.1,371,677.2,370.2L677.2,370.2z"/>
			<path d="M686.6,368.3v-5.4h-1.5v-1.2l1.5-0.1l0.2-2.7h1.4v2.7h2.7v1.3h-2.7v5.5c0,1.2,0.4,1.9,1.5,1.9c0.3,0,0.8-0.1,1.1-0.2
				l0.3,1.2c-0.6,0.2-1.2,0.4-1.8,0.4C687.3,371.6,686.6,370.3,686.6,368.3L686.6,368.3z"/>
			<path d="M692.8,358.5c0-0.7,0.5-1.1,1.1-1.1s1.1,0.4,1.1,1.1c0,0.6-0.5,1.1-1.1,1.1S692.8,359.1,692.8,358.5z M693.1,361.6h1.6
				v9.8h-1.6V361.6z"/>
			<path d="M697.3,366.5c0-3.3,2.2-5.1,4.7-5.1c1.3,0,2.2,0.5,2.9,1.1l-0.8,1.1c-0.6-0.5-1.2-0.9-2-0.9c-1.8,0-3.1,1.5-3.1,3.8
				s1.2,3.8,3,3.8c0.9,0,1.7-0.4,2.3-1l0.7,1.1c-0.9,0.8-2,1.2-3.2,1.2C699.3,371.6,697.3,369.7,697.3,366.5L697.3,366.5z"/>
			<path d="M706.1,370.2l0.8-1.1c0.8,0.7,1.7,1.1,2.9,1.1c1.3,0,1.9-0.7,1.9-1.5c0-1-1.2-1.4-2.2-1.9c-1.4-0.5-2.9-1.2-2.9-2.8
				c0-1.5,1.2-2.8,3.4-2.8c1.2,0,2.3,0.5,3,1.1l-0.8,1.1c-0.7-0.5-1.4-0.9-2.2-0.9c-1.2,0-1.8,0.6-1.8,1.4c0,0.9,1.1,1.3,2.2,1.7
				c1.4,0.5,3,1.1,3,3c0,1.6-1.3,2.9-3.6,2.9C708.4,371.6,707,371,706.1,370.2L706.1,370.2z"/>
			<path d="M719,364.7c0-4.2,2.3-6.8,5.6-6.8s5.6,2.6,5.6,6.8s-2.3,6.9-5.6,6.9S719,369,719,364.7z M728.6,364.7
				c0-3.3-1.6-5.4-3.9-5.4s-3.9,2-3.9,5.4s1.5,5.4,3.9,5.4S728.6,368,728.6,364.7z"/>
			<path d="M739,360c0-2,0.9-3.2,2.9-3.2c0.6,0,1.2,0.1,1.6,0.3l-0.4,1.2c-0.4-0.2-0.8-0.2-1.1-0.2c-0.9,0-1.4,0.7-1.4,1.9v1.5h2.1
				v1.3h-2.1v8.4H739v-8.4h-4.1v8.4h-1.6v-8.4h-1.3v-1.2l1.3-0.1v-1.3c0-2,1-3.3,3-3.3c0.7,0,1.3,0.1,1.8,0.3l-0.3,1.3
				c-0.4-0.2-0.8-0.3-1.3-0.3c-1,0-1.5,0.7-1.5,2v1.3h4.1L739,360L739,360z M746.5,358.5c0,0.6-0.5,1.1-1.2,1.1s-1.1-0.5-1.1-1.1
				c0-0.7,0.5-1.1,1.1-1.1S746.5,357.8,746.5,358.5z M744.6,361.6h1.6v9.8h-1.6V361.6z"/>
			<path d="M748.8,366.5c0-3.3,2.2-5.1,4.7-5.1c1.3,0,2.2,0.5,2.9,1.1l-0.8,1.1c-0.6-0.5-1.2-0.9-2-0.9c-1.8,0-3.1,1.5-3.1,3.8
				s1.2,3.8,3,3.8c0.9,0,1.7-0.4,2.3-1l0.7,1.1c-0.9,0.8-2,1.2-3.2,1.2C750.8,371.6,748.8,369.7,748.8,366.5L748.8,366.5z"/>
			<path d="M757.5,366.5c0-3.2,2.1-5.1,4.4-5.1c2.5,0,3.9,1.8,3.9,4.6c0,0.4,0,0.7-0.1,0.9h-6.6c0.1,2.1,1.4,3.4,3.2,3.4
				c1,0,1.7-0.3,2.5-0.8l0.6,1.1c-0.9,0.6-1.9,1-3.2,1C759.6,371.6,757.5,369.7,757.5,366.5L757.5,366.5z M764.4,365.7
				c0-2-0.9-3-2.4-3c-1.4,0-2.6,1.1-2.8,3H764.4z"/>
			<path class="st6" d="M484.9,388.5l10.6,6.8v0.1l-10.6,6.8h0L484.9,388.5L484.9,388.5L484.9,388.5z"/>
			<path d="M505,394.8c0-4.3,2.5-6.9,5.9-6.9c1.6,0,2.9,0.8,3.6,1.6l-0.9,1.1c-0.7-0.7-1.6-1.3-2.7-1.3c-2.5,0-4.2,2-4.2,5.4
				s1.6,5.4,4.1,5.4c1.3,0,2.2-0.6,3.1-1.5l0.9,1c-1,1.2-2.3,1.9-4,1.9C507.4,401.6,505,399.1,505,394.8L505,394.8z"/>
			<path d="M516.7,388.5c0-0.7,0.5-1.1,1.1-1.1s1.1,0.4,1.1,1.1c0,0.6-0.5,1.1-1.1,1.1S516.7,389.1,516.7,388.5z M517,391.6h1.6v9.8
				H517V391.6z"/>
			<path d="M520.6,391.6h1.7l1.8,5.6c0.3,1,0.6,2,0.9,2.9h0.1c0.3-0.9,0.6-1.9,0.9-2.9l1.8-5.6h1.6l-3.5,9.8h-1.9L520.6,391.6
				L520.6,391.6z"/>
			<path d="M531.1,388.5c0-0.7,0.5-1.1,1.1-1.1s1.1,0.4,1.1,1.1c0,0.6-0.5,1.1-1.1,1.1S531.1,389.1,531.1,388.5z M531.4,391.6h1.6
				v9.8h-1.6V391.6z"/>
			<path d="M536.3,399.4V387h1.6v12.5c0,0.5,0.2,0.7,0.5,0.7c0.1,0,0.2,0,0.3,0l0.2,1.3c-0.2,0.1-0.5,0.1-1,0.1
				C536.8,401.6,536.3,400.8,536.3,399.4L536.3,399.4z"/>
			<path d="M544.7,399.6l1-1.1c1,1,2.3,1.6,3.7,1.6c1.7,0,2.8-0.9,2.8-2.2s-1-1.8-2.2-2.3l-1.9-0.8c-1.2-0.5-2.7-1.5-2.7-3.4
				c0-2,1.8-3.5,4.2-3.5c1.6,0,3,0.7,3.9,1.6l-0.9,1.1c-0.8-0.8-1.8-1.2-3-1.2c-1.5,0-2.5,0.8-2.5,1.9c0,1.3,1.2,1.8,2.2,2.2
				l1.9,0.8c1.5,0.7,2.7,1.6,2.7,3.5c0,2.1-1.7,3.8-4.5,3.8C547.4,401.6,545.8,400.8,544.7,399.6L544.7,399.6z"/>
			<path d="M555.5,396.5c0-3.2,2.1-5.1,4.4-5.1c2.5,0,3.9,1.8,3.9,4.6c0,0.4,0,0.7-0.1,0.9h-6.6c0.1,2.1,1.4,3.4,3.2,3.4
				c1,0,1.7-0.3,2.5-0.8l0.6,1.1c-0.9,0.6-1.9,1-3.2,1C557.6,401.6,555.5,399.7,555.5,396.5L555.5,396.5z M562.4,395.7
				c0-2-0.9-3-2.4-3c-1.4,0-2.6,1.1-2.8,3H562.4z"/>
			<path d="M566.2,391.6h1.3l0.1,1.8h0c0.7-1.2,1.7-2,2.8-2c0.4,0,0.7,0,1,0.2l-0.3,1.4c-0.3-0.1-0.6-0.2-1-0.2
				c-0.8,0-1.8,0.6-2.5,2.2v6.3h-1.6L566.2,391.6L566.2,391.6z"/>
			<path d="M572.3,391.6h1.7l1.8,5.6c0.3,1,0.6,2,0.9,2.9h0.1c0.3-0.9,0.6-1.9,0.9-2.9l1.8-5.6h1.6l-3.5,9.8h-1.9L572.3,391.6
				L572.3,391.6z"/>
			<path d="M582.8,388.5c0-0.7,0.5-1.1,1.1-1.1s1.1,0.4,1.1,1.1c0,0.6-0.5,1.1-1.1,1.1S582.8,389.1,582.8,388.5z M583.1,391.6h1.6
				v9.8h-1.6V391.6z"/>
			<path d="M587.3,396.5c0-3.3,2.2-5.1,4.7-5.1c1.3,0,2.2,0.5,2.9,1.1l-0.8,1.1c-0.6-0.5-1.2-0.9-2-0.9c-1.8,0-3.1,1.5-3.1,3.8
				s1.2,3.8,3,3.8c0.9,0,1.7-0.4,2.3-1l0.7,1.1c-0.9,0.8-2,1.2-3.2,1.2C589.3,401.6,587.3,399.7,587.3,396.5L587.3,396.5z"/>
			<path d="M596,396.5c0-3.2,2.1-5.1,4.4-5.1c2.5,0,3.9,1.8,3.9,4.6c0,0.4,0,0.7-0.1,0.9h-6.6c0.1,2.1,1.4,3.4,3.2,3.4
				c1,0,1.7-0.3,2.5-0.8l0.6,1.1c-0.9,0.6-1.9,1-3.2,1C598.1,401.6,596,399.7,596,396.5L596,396.5z M602.9,395.7c0-2-0.9-3-2.4-3
				c-1.4,0-2.6,1.1-2.8,3H602.9z"/>
			<path d="M610.9,388.2h7.6v1.4h-5.9v4.1h5v1.4h-5v4.8h6.1v1.4h-7.8L610.9,388.2L610.9,388.2z"/>
			<path d="M621.2,398.3v-5.4h-1.5v-1.2l1.5-0.1l0.2-2.7h1.4v2.7h2.7v1.3h-2.7v5.5c0,1.2,0.4,1.9,1.5,1.9c0.3,0,0.8-0.1,1.1-0.2
				l0.3,1.2c-0.6,0.2-1.2,0.4-1.8,0.4C621.9,401.6,621.2,400.3,621.2,398.3L621.2,398.3z"/>
			<path d="M627.7,387h1.6v3.9l0,2c0.9-0.9,1.9-1.6,3.2-1.6c2,0,3,1.3,3,3.8v6.2h-1.6v-6c0-1.8-0.6-2.6-1.8-2.6
				c-1,0-1.7,0.5-2.7,1.5v7.1h-1.6L627.7,387L627.7,387z"/>
			<path d="M638.3,388.5c0-0.7,0.5-1.1,1.1-1.1s1.1,0.4,1.1,1.1c0,0.6-0.5,1.1-1.1,1.1S638.3,389.1,638.3,388.5z M638.6,391.6h1.6
				v9.8h-1.6V391.6z"/>
			<path d="M642.8,396.5c0-3.3,2.2-5.1,4.7-5.1c1.3,0,2.2,0.5,2.9,1.1l-0.8,1.1c-0.6-0.5-1.2-0.9-2-0.9c-1.8,0-3.1,1.5-3.1,3.8
				s1.2,3.8,3,3.8c0.9,0,1.7-0.4,2.3-1l0.7,1.1c-0.9,0.8-2,1.2-3.2,1.2C644.8,401.6,642.8,399.7,642.8,396.5L642.8,396.5z"/>
			<path d="M651.6,400.2l0.8-1.1c0.8,0.7,1.7,1.1,2.9,1.1c1.3,0,1.9-0.7,1.9-1.5c0-1-1.2-1.4-2.2-1.9c-1.4-0.5-2.9-1.2-2.9-2.8
				c0-1.5,1.2-2.8,3.4-2.8c1.2,0,2.3,0.5,3,1.1l-0.8,1.1c-0.7-0.5-1.4-0.9-2.2-0.9c-1.2,0-1.8,0.6-1.8,1.4c0,0.9,1.1,1.3,2.2,1.7
				c1.4,0.5,3,1.1,3,3c0,1.6-1.3,2.9-3.6,2.9C653.9,401.6,652.5,401,651.6,400.2L651.6,400.2z"/>
			<path d="M664.5,394.7c0-4.2,2.3-6.8,5.6-6.8s5.6,2.6,5.6,6.8s-2.3,6.9-5.6,6.9S664.5,399,664.5,394.7z M674.1,394.7
				c0-3.3-1.6-5.4-3.9-5.4s-3.9,2-3.9,5.4s1.5,5.4,3.9,5.4S674.1,398,674.1,394.7z"/>
			<path d="M684.5,390c0-2,0.9-3.2,2.9-3.2c0.6,0,1.2,0.1,1.6,0.3l-0.4,1.2c-0.4-0.2-0.8-0.2-1.1-0.2c-0.9,0-1.4,0.7-1.4,1.9v1.5
				h2.1v1.3h-2.1v8.4h-1.6v-8.4h-4.1v8.4h-1.6v-8.4h-1.3v-1.2l1.3-0.1v-1.3c0-2,1-3.3,3-3.3c0.7,0,1.3,0.1,1.8,0.3l-0.3,1.3
				c-0.4-0.2-0.8-0.3-1.3-0.3c-1,0-1.5,0.7-1.5,2v1.3h4.1L684.5,390L684.5,390z M692.1,388.5c0,0.6-0.5,1.1-1.2,1.1
				s-1.1-0.5-1.1-1.1c0-0.7,0.5-1.1,1.1-1.1S692.1,387.8,692.1,388.5z M690.1,391.6h1.6v9.8h-1.6V391.6z"/>
			<path d="M694.3,396.5c0-3.3,2.2-5.1,4.7-5.1c1.3,0,2.2,0.5,2.9,1.1l-0.8,1.1c-0.6-0.5-1.2-0.9-2-0.9c-1.8,0-3.1,1.5-3.1,3.8
				s1.2,3.8,3,3.8c0.9,0,1.7-0.4,2.3-1l0.7,1.1c-0.9,0.8-2,1.2-3.2,1.2C696.3,401.6,694.3,399.7,694.3,396.5L694.3,396.5z"/>
			<path d="M703,396.5c0-3.2,2.1-5.1,4.4-5.1c2.5,0,3.9,1.8,3.9,4.6c0,0.4,0,0.7-0.1,0.9h-6.6c0.1,2.1,1.4,3.4,3.2,3.4
				c1,0,1.7-0.3,2.5-0.8l0.6,1.1c-0.9,0.6-1.9,1-3.2,1C705.1,401.6,703,399.7,703,396.5L703,396.5z M709.9,395.7c0-2-0.9-3-2.4-3
				c-1.4,0-2.6,1.1-2.8,3H709.9z"/>
		</g>
		<g>
			<path class="st5" d="M835.9,260.6v21.7c0,2.8-2.2,5-5,5h-360c-2.8,0-5-2.2-5-5v-21.7c0-2.8,2.2-5,5-5h360
				C833.7,255.6,835.9,257.8,835.9,260.6z"/>
			<g>
				<path class="st0" d="M580.3,275.8l1-1.1c1,1,2.3,1.6,3.7,1.6c1.7,0,2.8-0.9,2.8-2.2s-1-1.8-2.2-2.3l-1.9-0.8
					c-1.2-0.5-2.7-1.5-2.7-3.4c0-2,1.8-3.5,4.2-3.5c1.6,0,3,0.7,3.9,1.6l-0.9,1.1c-0.8-0.8-1.8-1.2-3-1.2c-1.5,0-2.5,0.8-2.5,1.9
					c0,1.3,1.2,1.8,2.2,2.2l1.9,0.8c1.5,0.7,2.7,1.6,2.7,3.5c0,2.1-1.7,3.8-4.5,3.8C583.1,277.7,581.5,277,580.3,275.8L580.3,275.8z
					"/>
				<path class="st0" d="M591.8,273.9v-6.2h1.6v6c0,1.8,0.5,2.6,1.8,2.6c1,0,1.7-0.5,2.7-1.7v-6.9h1.6v9.8h-1.4L598,276h0
					c-0.9,1.1-1.9,1.8-3.2,1.8C592.7,277.7,591.8,276.4,591.8,273.9L591.8,273.9z"/>
				<path class="st0" d="M602.8,267.7h1.3l0.1,1.1h0c0.9-0.7,2-1.4,3.1-1.4c2.5,0,3.9,2,3.9,5c0,3.4-2,5.3-4.2,5.3
					c-0.9,0-1.8-0.4-2.7-1.1l0,1.7v3.3h-1.6L602.8,267.7L602.8,267.7z M609.6,272.5c0-2.2-0.7-3.6-2.6-3.6c-0.8,0-1.7,0.5-2.6,1.4
					v5.1c0.9,0.8,1.8,1,2.4,1C608.5,276.4,609.6,274.9,609.6,272.5z"/>
				<path class="st0" d="M614,267.7h1.3l0.1,1.1h0c0.9-0.7,2-1.4,3.1-1.4c2.5,0,3.9,2,3.9,5c0,3.4-2,5.3-4.2,5.3
					c-0.9,0-1.8-0.4-2.7-1.1l0,1.7v3.3H614L614,267.7L614,267.7z M620.8,272.5c0-2.2-0.7-3.6-2.6-3.6c-0.8,0-1.7,0.5-2.6,1.4v5.1
					c0.9,0.8,1.8,1,2.4,1C619.6,276.4,620.8,274.9,620.8,272.5z"/>
				<path class="st0" d="M624.4,272.6c0-3.3,2.1-5.1,4.5-5.1s4.5,1.9,4.5,5.1s-2.1,5.1-4.5,5.1S624.4,275.8,624.4,272.6z
					 M631.8,272.6c0-2.2-1.2-3.8-2.8-3.8s-2.8,1.5-2.8,3.8s1.1,3.8,2.8,3.8S631.8,274.9,631.8,272.6z"/>
				<path class="st0" d="M636,267.7h1.3l0.1,1.8h0c0.7-1.2,1.7-2,2.8-2c0.4,0,0.7,0,1,0.2l-0.3,1.4c-0.3-0.1-0.6-0.2-1-0.2
					c-0.8,0-1.8,0.6-2.5,2.2v6.3H636L636,267.7L636,267.7z"/>
				<path class="st0" d="M643.3,274.5V269h-1.5v-1.2l1.5-0.1l0.2-2.7h1.4v2.7h2.7v1.3h-2.7v5.5c0,1.2,0.4,1.9,1.5,1.9
					c0.3,0,0.8-0.1,1.1-0.2l0.3,1.2c-0.6,0.2-1.2,0.4-1.8,0.4C644,277.7,643.3,276.4,643.3,274.5L643.3,274.5z"/>
				<path class="st0" d="M649.5,264.6c0-0.7,0.5-1.1,1.1-1.1s1.1,0.4,1.1,1.1c0,0.6-0.5,1.1-1.1,1.1S649.5,265.2,649.5,264.6z
					 M649.8,267.7h1.6v9.8h-1.6V267.7z"/>
				<path class="st0" d="M654.8,267.7h1.3l0.1,1.4h0c0.9-0.9,1.9-1.7,3.3-1.7c2,0,3,1.3,3,3.8v6.2h-1.6v-6c0-1.8-0.6-2.6-1.8-2.6
					c-1,0-1.7,0.5-2.7,1.5v7.1h-1.6V267.7L654.8,267.7z"/>
				<path class="st0" d="M665,279.4c0-0.8,0.5-1.6,1.5-2.2v-0.1c-0.5-0.3-0.9-0.8-0.9-1.6s0.6-1.5,1.1-1.8v-0.1
					c-0.7-0.5-1.3-1.5-1.3-2.6c0-2.1,1.7-3.5,3.7-3.5c0.5,0,1,0.1,1.4,0.2h3.4v1.3h-2c0.5,0.5,0.8,1.2,0.8,2c0,2.1-1.6,3.4-3.6,3.4
					c-0.5,0-1-0.1-1.5-0.3c-0.4,0.3-0.6,0.6-0.6,1.2c0,0.6,0.4,1.1,1.7,1.1h1.9c2.3,0,3.4,0.7,3.4,2.3c0,1.8-1.9,3.4-4.9,3.4
					C666.6,282,665,281.1,665,279.4L665,279.4z M672.4,278.9c0-0.9-0.7-1.2-2-1.2h-1.7c-0.4,0-0.8,0-1.3-0.2c-0.7,0.5-1,1.1-1,1.7
					c0,1,1.1,1.7,2.8,1.7C671.1,280.9,672.4,279.9,672.4,278.9L672.4,278.9z M671.1,271c0-1.4-0.9-2.3-2.1-2.3s-2.1,0.9-2.1,2.3
					s1,2.3,2.1,2.3S671.1,272.4,671.1,271z"/>
				<path class="st0" d="M680,272v-7.7h1.7v7.8c0,3.2,1.3,4.2,3.1,4.2s3.2-1,3.2-4.2v-7.8h1.6v7.7c0,4.2-2,5.7-4.8,5.7
					S680,276.3,680,272L680,272z"/>
				<path class="st0" d="M692.9,267.7h1.3l0.1,1.4h0c0.9-0.9,1.9-1.7,3.3-1.7c2,0,3,1.3,3,3.8v6.2h-1.6v-6c0-1.8-0.6-2.6-1.8-2.6
					c-1,0-1.7,0.5-2.7,1.5v7.1h-1.6V267.7L692.9,267.7z"/>
				<path class="st0" d="M703.6,264.6c0-0.7,0.5-1.1,1.1-1.1s1.1,0.4,1.1,1.1c0,0.6-0.5,1.1-1.1,1.1S703.6,265.2,703.6,264.6z
					 M703.9,267.7h1.6v9.8h-1.6V267.7z"/>
				<path class="st0" d="M709.1,274.5V269h-1.5v-1.2l1.5-0.1l0.2-2.7h1.4v2.7h2.7v1.3h-2.7v5.5c0,1.2,0.4,1.9,1.5,1.9
					c0.3,0,0.8-0.1,1.1-0.2l0.3,1.2c-0.6,0.2-1.2,0.4-1.8,0.4C709.8,277.7,709.1,276.4,709.1,274.5L709.1,274.5z"/>
				<path class="st0" d="M714.3,276.4l0.8-1.1c0.8,0.7,1.7,1.1,2.9,1.1c1.3,0,1.9-0.7,1.9-1.5c0-1-1.2-1.4-2.2-1.9
					c-1.4-0.5-2.9-1.2-2.9-2.8c0-1.5,1.2-2.8,3.4-2.8c1.2,0,2.3,0.5,3,1.1l-0.8,1.1c-0.7-0.5-1.4-0.9-2.2-0.9
					c-1.2,0-1.8,0.6-1.8,1.4c0,0.9,1.1,1.3,2.2,1.7c1.4,0.5,3,1.1,3,3c0,1.6-1.3,2.9-3.6,2.9C716.6,277.7,715.3,277.1,714.3,276.4
					L714.3,276.4z"/>
			</g>
		</g>
	</g>
	<path class="st1" d="M209.9,252.8v-23.1c0.1-3.9,3.8-6.9,8.3-6.9h423.8c4.6,0,8.3,3.2,8.3,7.1v22.9"/>
</g>
</svg>
