<?xml version="1.0" encoding="UTF-8"?>
<svg id="_層_1" data-name="圖層 1" xmlns="http://www.w3.org/2000/svg" width="860" height="460" viewBox="0 0 860 460">
  <defs>
    <style>
      .cls-1 {
        fill: #fff;
      }

      .cls-2 {
        fill: #1f323d;
      }

      .cls-3 {
        fill: #b4c43f;
      }

      .cls-4 {
        fill: none;
        stroke: #4d4d4d;
        stroke-miterlimit: 10;
      }

      .cls-5 {
        fill: #2a5167;
      }

      .cls-6 {
        fill: #b3b3b3;
      }

      .cls-7 {
        fill: #386c8a;
      }
    </style>
  </defs>
  <g>
    <line class="cls-4" x1="427.69" y1="42.1" x2="427.86" y2="222.38"/>
    <path class="cls-4" d="M247.22,112.46v-21.61c.13-4.33,4.28-7.79,9.34-7.79h346.86c5.16,0,9.35,3.58,9.35,8v21.4"/>
    <rect class="cls-7" x="351.79" y="165.52" width="156.42" height="32" rx="5" ry="5" transform="translate(860 363.05) rotate(-180)"/>
    <g>
      <path class="cls-1" d="M367.12,181.75c0-4.27,2.5-6.86,5.85-6.86,1.6,0,2.86,.79,3.62,1.64l-.9,1.08c-.68-.74-1.57-1.26-2.7-1.26-2.5,0-4.16,2.05-4.16,5.35s1.58,5.42,4.1,5.42c1.26,0,2.21-.56,3.06-1.48l.92,1.04c-1.04,1.21-2.34,1.89-4.05,1.89-3.28,0-5.74-2.54-5.74-6.82Z"/>
      <path class="cls-1" d="M379.21,174h1.64v3.92l-.05,2.02c.9-.9,1.91-1.64,3.24-1.64,2.05,0,2.99,1.33,2.99,3.83v6.19h-1.64v-5.98c0-1.84-.56-2.61-1.85-2.61-1.01,0-1.69,.5-2.68,1.5v7.09h-1.64v-14.33Z"/>
      <path class="cls-1" d="M389.83,175.48c0-.67,.49-1.06,1.13-1.06s1.13,.4,1.13,1.06c0,.61-.49,1.06-1.13,1.06s-1.13-.45-1.13-1.06Zm.31,3.08h1.64v9.78h-1.64v-9.78Z"/>
      <path class="cls-1" d="M394.35,183.46c0-3.17,2.14-5.15,4.41-5.15,2.48,0,3.89,1.8,3.89,4.59,0,.36-.04,.7-.07,.94h-6.59c.11,2.09,1.39,3.42,3.24,3.42,.95,0,1.73-.29,2.45-.77l.59,1.08c-.86,.56-1.91,1.01-3.24,1.01-2.59,0-4.68-1.89-4.68-5.11Zm6.86-.79c0-1.98-.9-3.04-2.43-3.04-1.39,0-2.61,1.12-2.81,3.04h5.24Z"/>
      <path class="cls-1" d="M409.45,175.34c-.36-.16-.76-.25-1.1-.25-.94,0-1.39,.67-1.39,1.93v1.55h2.07v1.33h-2.07v8.44h-1.64v-8.44h-1.33v-1.24l1.33-.09v-1.57c0-1.98,.9-3.22,2.84-3.22,.59,0,1.17,.13,1.64,.32l-.36,1.24Z"/>
      <path class="cls-1" d="M414.13,186.61l.99-1.13c.95,.99,2.29,1.64,3.66,1.64,1.73,0,2.77-.86,2.77-2.16s-.95-1.78-2.2-2.34l-1.91-.83c-1.22-.52-2.68-1.46-2.68-3.38,0-2.04,1.76-3.51,4.16-3.51,1.57,0,2.95,.67,3.89,1.64l-.88,1.06c-.81-.76-1.78-1.24-3.01-1.24-1.49,0-2.47,.76-2.47,1.94,0,1.28,1.15,1.76,2.18,2.2l1.89,.81c1.53,.67,2.72,1.57,2.72,3.53,0,2.09-1.73,3.75-4.48,3.75-1.87,0-3.48-.76-4.63-1.96Z"/>
      <path class="cls-1" d="M424.95,183.46c0-3.17,2.14-5.15,4.41-5.15,2.48,0,3.89,1.8,3.89,4.59,0,.36-.04,.7-.07,.94h-6.59c.11,2.09,1.39,3.42,3.24,3.42,.95,0,1.73-.29,2.45-.77l.59,1.08c-.86,.56-1.91,1.01-3.24,1.01-2.59,0-4.68-1.89-4.68-5.11Zm6.86-.79c0-1.98-.9-3.04-2.43-3.04-1.39,0-2.61,1.12-2.81,3.04h5.24Z"/>
      <path class="cls-1" d="M434.92,183.46c0-3.26,2.21-5.15,4.72-5.15,1.28,0,2.16,.54,2.86,1.15l-.85,1.1c-.58-.52-1.17-.88-1.96-.88-1.76,0-3.06,1.53-3.06,3.78s1.22,3.75,3.02,3.75c.9,0,1.69-.41,2.3-.97l.7,1.1c-.86,.79-1.98,1.24-3.15,1.24-2.59,0-4.59-1.87-4.59-5.11Z"/>
      <path class="cls-1" d="M444.82,178.56h1.35l.14,1.78h.05c.68-1.24,1.67-2.04,2.77-2.04,.43,0,.74,.05,1.04,.22l-.31,1.44c-.32-.13-.56-.16-.95-.16-.81,0-1.82,.58-2.47,2.25v6.28h-1.64v-9.78Z"/>
      <path class="cls-1" d="M450.87,183.46c0-3.17,2.14-5.15,4.41-5.15,2.48,0,3.89,1.8,3.89,4.59,0,.36-.04,.7-.07,.94h-6.59c.11,2.09,1.39,3.42,3.24,3.42,.95,0,1.73-.29,2.45-.77l.59,1.08c-.86,.56-1.91,1.01-3.24,1.01-2.59,0-4.68-1.89-4.68-5.11Zm6.86-.79c0-1.98-.9-3.04-2.43-3.04-1.39,0-2.61,1.12-2.81,3.04h5.24Z"/>
      <path class="cls-1" d="M461.67,185.31v-5.42h-1.46v-1.24l1.53-.09,.2-2.74h1.37v2.74h2.65v1.33h-2.65v5.46c0,1.21,.38,1.89,1.51,1.89,.34,0,.79-.13,1.12-.25l.32,1.22c-.56,.18-1.21,.36-1.8,.36-2.09,0-2.79-1.3-2.79-3.26Z"/>
      <path class="cls-1" d="M467.13,185.8c0-2.12,1.85-3.19,6.01-3.66,0-1.26-.41-2.47-2.02-2.47-1.13,0-2.16,.52-2.94,1.04l-.65-1.13c.9-.58,2.29-1.28,3.85-1.28,2.38,0,3.39,1.6,3.39,4.02v6.01h-1.35l-.14-1.17h-.05c-.94,.77-2.03,1.4-3.24,1.4-1.64,0-2.86-1.01-2.86-2.77Zm6.01,.16v-2.74c-3.29,.4-4.41,1.21-4.41,2.47,0,1.12,.76,1.57,1.73,1.57s1.73-.45,2.68-1.3Z"/>
      <path class="cls-1" d="M477.89,178.56h1.35l.14,1.78h.05c.68-1.24,1.67-2.04,2.77-2.04,.43,0,.74,.05,1.04,.22l-.31,1.44c-.32-.13-.56-.16-.95-.16-.81,0-1.82,.58-2.47,2.25v6.28h-1.64v-9.78Z"/>
      <path class="cls-1" d="M484.4,192.35l.32-1.31c.2,.07,.49,.16,.74,.16,1.12,0,1.82-.9,2.21-2.11l.22-.74-3.93-9.79h1.71l2,5.44c.29,.85,.63,1.85,.94,2.74h.09c.27-.88,.56-1.87,.83-2.74l1.75-5.44h1.6l-3.69,10.59c-.68,1.93-1.69,3.4-3.64,3.4-.47,0-.85-.07-1.15-.2Z"/>
    </g>
    <g>
      <rect class="cls-5" x="109.72" y="108.79" width="275" height="31.66" rx="5" ry="5"/>
      <rect class="cls-5" x="475.28" y="108.79" width="275" height="31.66" rx="5" ry="5"/>
      <g>
        <path class="cls-1" d="M127.71,118.21h3.31c4.05,0,6.23,2.36,6.23,6.55s-2.18,6.64-6.16,6.64h-3.38v-13.2Zm3.17,11.83c3.11,0,4.65-1.94,4.65-5.28s-1.53-5.2-4.65-5.2h-1.49v10.48h1.49Z"/>
        <path class="cls-1" d="M140.99,126.53c0-3.17,2.14-5.15,4.41-5.15,2.48,0,3.89,1.8,3.89,4.59,0,.36-.04,.7-.07,.94h-6.59c.11,2.09,1.39,3.42,3.24,3.42,.95,0,1.73-.29,2.45-.77l.59,1.08c-.86,.56-1.91,1.01-3.24,1.01-2.59,0-4.68-1.89-4.68-5.11Zm6.86-.79c0-1.98-.9-3.04-2.43-3.04-1.39,0-2.61,1.12-2.81,3.04h5.24Z"/>
        <path class="cls-1" d="M153.5,121.63h1.35l.14,1.12h.05c.88-.72,1.98-1.37,3.11-1.37,2.52,0,3.89,1.98,3.89,4.99,0,3.35-2,5.28-4.25,5.28-.88,0-1.82-.41-2.7-1.13l.04,1.71v3.31h-1.64v-13.9Zm6.84,4.75c0-2.16-.72-3.62-2.57-3.62-.83,0-1.67,.47-2.63,1.35v5.13c.88,.76,1.75,1.03,2.39,1.03,1.62,0,2.81-1.46,2.81-3.89Z"/>
        <path class="cls-1" d="M166.33,127.83v-6.19h1.64v6c0,1.82,.54,2.59,1.84,2.59,1.01,0,1.71-.49,2.65-1.66v-6.93h1.64v9.78h-1.37l-.13-1.53h-.05c-.92,1.06-1.89,1.76-3.24,1.76-2.05,0-2.97-1.33-2.97-3.82Z"/>
        <path class="cls-1" d="M179.47,128.38v-5.42h-1.46v-1.24l1.53-.09,.2-2.74h1.37v2.74h2.65v1.33h-2.65v5.46c0,1.21,.38,1.89,1.51,1.89,.34,0,.79-.13,1.12-.25l.32,1.22c-.56,.18-1.21,.36-1.8,.36-2.09,0-2.79-1.3-2.79-3.26Z"/>
        <path class="cls-1" d="M186.78,135.43l.32-1.31c.2,.07,.49,.16,.74,.16,1.12,0,1.82-.9,2.21-2.11l.22-.74-3.93-9.79h1.71l2,5.44c.29,.85,.63,1.85,.94,2.74h.09c.27-.88,.56-1.87,.83-2.74l1.75-5.44h1.6l-3.69,10.59c-.68,1.93-1.69,3.4-3.64,3.4-.47,0-.85-.07-1.15-.2Z"/>
        <path class="cls-1" d="M204.92,118.21h3.31c4.05,0,6.23,2.36,6.23,6.55s-2.18,6.64-6.16,6.64h-3.39v-13.2Zm3.17,11.83c3.12,0,4.65-1.94,4.65-5.28s-1.53-5.2-4.65-5.2h-1.49v10.48h1.49Z"/>
        <path class="cls-1" d="M218.64,118.55c0-.67,.49-1.06,1.13-1.06s1.13,.4,1.13,1.06c0,.61-.49,1.06-1.13,1.06s-1.13-.45-1.13-1.06Zm.31,3.08h1.64v9.78h-1.64v-9.78Z"/>
        <path class="cls-1" d="M225.7,121.63h1.35l.14,1.78h.05c.68-1.24,1.67-2.04,2.77-2.04,.43,0,.74,.05,1.04,.22l-.31,1.44c-.32-.13-.56-.16-.95-.16-.81,0-1.82,.58-2.47,2.25v6.28h-1.64v-9.78Z"/>
        <path class="cls-1" d="M233.54,126.53c0-3.17,2.14-5.15,4.41-5.15,2.48,0,3.89,1.8,3.89,4.59,0,.36-.04,.7-.07,.94h-6.59c.11,2.09,1.39,3.42,3.24,3.42,.95,0,1.73-.29,2.45-.77l.59,1.08c-.86,.56-1.91,1.01-3.24,1.01-2.59,0-4.68-1.89-4.68-5.11Zm6.86-.79c0-1.98-.9-3.04-2.43-3.04-1.39,0-2.61,1.12-2.81,3.04h5.24Z"/>
        <path class="cls-1" d="M245.32,126.53c0-3.26,2.21-5.15,4.72-5.15,1.28,0,2.16,.54,2.86,1.15l-.85,1.1c-.58-.52-1.17-.88-1.96-.88-1.76,0-3.06,1.53-3.06,3.78s1.22,3.75,3.02,3.75c.9,0,1.69-.41,2.3-.97l.7,1.1c-.86,.79-1.98,1.24-3.15,1.24-2.59,0-4.59-1.87-4.59-5.11Z"/>
        <path class="cls-1" d="M257.11,128.38v-5.42h-1.46v-1.24l1.53-.09,.2-2.74h1.37v2.74h2.65v1.33h-2.65v5.46c0,1.21,.38,1.89,1.51,1.89,.34,0,.79-.13,1.12-.25l.32,1.22c-.56,.18-1.21,.36-1.8,.36-2.09,0-2.79-1.3-2.79-3.26Z"/>
        <path class="cls-1" d="M264.4,126.53c0-3.26,2.14-5.15,4.54-5.15s4.54,1.89,4.54,5.15-2.14,5.11-4.54,5.11-4.54-1.87-4.54-5.11Zm7.38,0c0-2.25-1.15-3.78-2.84-3.78s-2.83,1.53-2.83,3.78,1.13,3.75,2.83,3.75,2.84-1.49,2.84-3.75Z"/>
        <path class="cls-1" d="M277.84,121.63h1.35l.14,1.78h.05c.68-1.24,1.67-2.04,2.77-2.04,.43,0,.74,.05,1.04,.22l-.31,1.44c-.32-.13-.56-.16-.95-.16-.81,0-1.82,.58-2.47,2.25v6.28h-1.64v-9.78Z"/>
        <path class="cls-1" d="M285.31,125.74h4.61v1.26h-4.61v-1.26Z"/>
        <path class="cls-1" d="M293.57,124.82c0-4.27,2.56-6.86,6.05-6.86,1.84,0,3.04,.83,3.8,1.64l-.9,1.08c-.67-.7-1.51-1.26-2.86-1.26-2.65,0-4.38,2.05-4.38,5.35s1.57,5.42,4.39,5.42c.95,0,1.87-.29,2.4-.77v-3.46h-2.79v-1.39h4.32v5.54c-.85,.88-2.3,1.53-4.09,1.53-3.47,0-5.94-2.54-5.94-6.82Z"/>
        <path class="cls-1" d="M307.65,126.53c0-3.17,2.14-5.15,4.41-5.15,2.48,0,3.89,1.8,3.89,4.59,0,.36-.04,.7-.07,.94h-6.59c.11,2.09,1.39,3.42,3.24,3.42,.95,0,1.73-.29,2.45-.77l.59,1.08c-.86,.56-1.91,1.01-3.24,1.01-2.59,0-4.68-1.89-4.68-5.11Zm6.86-.79c0-1.98-.9-3.04-2.43-3.04-1.39,0-2.61,1.12-2.81,3.04h5.24Z"/>
        <path class="cls-1" d="M320.16,121.63h1.35l.14,1.41h.05c.94-.92,1.94-1.66,3.28-1.66,2.05,0,2.99,1.33,2.99,3.84v6.19h-1.64v-5.98c0-1.84-.56-2.61-1.85-2.61-1.01,0-1.69,.5-2.68,1.5v7.09h-1.64v-9.78Z"/>
        <path class="cls-1" d="M332.22,126.53c0-3.17,2.14-5.15,4.41-5.15,2.48,0,3.89,1.8,3.89,4.59,0,.36-.04,.7-.07,.94h-6.59c.11,2.09,1.39,3.42,3.24,3.42,.95,0,1.73-.29,2.45-.77l.59,1.08c-.86,.56-1.91,1.01-3.24,1.01-2.59,0-4.68-1.89-4.68-5.11Zm6.86-.79c0-1.98-.9-3.04-2.43-3.04-1.39,0-2.61,1.12-2.81,3.04h5.24Z"/>
        <path class="cls-1" d="M344.73,121.63h1.35l.14,1.78h.05c.68-1.24,1.67-2.04,2.77-2.04,.43,0,.74,.05,1.04,.22l-.31,1.44c-.32-.13-.56-.16-.95-.16-.81,0-1.82,.58-2.47,2.25v6.28h-1.64v-9.78Z"/>
        <path class="cls-1" d="M352.41,128.87c0-2.12,1.85-3.19,6.01-3.65,0-1.26-.41-2.47-2.02-2.47-1.13,0-2.16,.52-2.94,1.04l-.65-1.13c.9-.58,2.29-1.28,3.85-1.28,2.38,0,3.39,1.6,3.39,4.02v6.01h-1.35l-.14-1.17h-.05c-.94,.77-2.03,1.4-3.24,1.4-1.64,0-2.86-1.01-2.86-2.77Zm6.01,.16v-2.74c-3.29,.4-4.41,1.21-4.41,2.47,0,1.12,.76,1.57,1.73,1.57s1.73-.45,2.68-1.3Z"/>
        <path class="cls-1" d="M364.98,129.47v-12.39h1.64v12.5c0,.5,.22,.7,.47,.7,.09,0,.16,0,.34-.04l.23,1.26c-.23,.09-.52,.14-.95,.14-1.22,0-1.73-.79-1.73-2.18Z"/>
      </g>
      <g>
        <path class="cls-1" d="M492.79,118.21h3.31c4.05,0,6.23,2.36,6.23,6.55s-2.18,6.64-6.16,6.64h-3.38v-13.2Zm3.17,11.83c3.12,0,4.65-1.95,4.65-5.28s-1.53-5.2-4.65-5.2h-1.49v10.48h1.49Z"/>
        <path class="cls-1" d="M506.08,126.53c0-3.17,2.14-5.15,4.41-5.15,2.48,0,3.89,1.8,3.89,4.59,0,.36-.04,.7-.07,.94h-6.59c.11,2.09,1.39,3.42,3.24,3.42,.95,0,1.73-.29,2.45-.77l.59,1.08c-.86,.56-1.91,1.01-3.24,1.01-2.59,0-4.68-1.89-4.68-5.11Zm6.86-.79c0-1.98-.9-3.04-2.43-3.04-1.39,0-2.61,1.12-2.81,3.04h5.24Z"/>
        <path class="cls-1" d="M518.59,121.63h1.35l.14,1.12h.05c.88-.72,1.98-1.37,3.12-1.37,2.52,0,3.89,1.98,3.89,4.99,0,3.35-2,5.28-4.25,5.28-.88,0-1.82-.41-2.7-1.13l.04,1.71v3.31h-1.64v-13.9Zm6.84,4.75c0-2.16-.72-3.62-2.58-3.62-.83,0-1.67,.47-2.63,1.35v5.13c.88,.76,1.75,1.03,2.4,1.03,1.62,0,2.81-1.46,2.81-3.89Z"/>
        <path class="cls-1" d="M531.42,127.83v-6.19h1.64v6c0,1.82,.54,2.59,1.84,2.59,1.01,0,1.71-.49,2.65-1.66v-6.93h1.64v9.78h-1.37l-.13-1.53h-.05c-.92,1.06-1.89,1.76-3.24,1.76-2.05,0-2.97-1.33-2.97-3.82Z"/>
        <path class="cls-1" d="M544.56,128.39v-5.42h-1.46v-1.24l1.53-.09,.2-2.74h1.37v2.74h2.65v1.33h-2.65v5.46c0,1.21,.38,1.89,1.51,1.89,.34,0,.79-.13,1.12-.25l.32,1.22c-.56,.18-1.21,.36-1.8,.36-2.09,0-2.79-1.3-2.79-3.26Z"/>
        <path class="cls-1" d="M551.87,135.43l.32-1.31c.2,.07,.49,.16,.74,.16,1.12,0,1.82-.9,2.21-2.11l.22-.74-3.93-9.79h1.71l2,5.44c.29,.85,.63,1.85,.94,2.74h.09c.27-.88,.56-1.87,.83-2.74l1.75-5.44h1.6l-3.69,10.59c-.68,1.93-1.69,3.4-3.64,3.4-.47,0-.85-.07-1.15-.2Z"/>
        <path class="cls-1" d="M570.01,118.21h3.31c4.05,0,6.23,2.36,6.23,6.55s-2.18,6.64-6.16,6.64h-3.38v-13.2Zm3.17,11.83c3.11,0,4.64-1.95,4.64-5.28s-1.53-5.2-4.64-5.2h-1.5v10.48h1.5Z"/>
        <path class="cls-1" d="M583.73,118.55c0-.67,.49-1.06,1.13-1.06s1.13,.4,1.13,1.06c0,.61-.49,1.06-1.13,1.06s-1.13-.45-1.13-1.06Zm.31,3.08h1.64v9.78h-1.64v-9.78Z"/>
        <path class="cls-1" d="M590.78,121.63h1.35l.14,1.78h.05c.68-1.24,1.67-2.04,2.77-2.04,.43,0,.74,.05,1.04,.22l-.31,1.44c-.32-.13-.56-.16-.95-.16-.81,0-1.82,.58-2.47,2.25v6.28h-1.64v-9.78Z"/>
        <path class="cls-1" d="M598.63,126.53c0-3.17,2.14-5.15,4.41-5.15,2.49,0,3.89,1.8,3.89,4.59,0,.36-.04,.7-.07,.94h-6.59c.11,2.09,1.39,3.42,3.24,3.42,.95,0,1.73-.29,2.45-.77l.59,1.08c-.86,.56-1.91,1.01-3.24,1.01-2.59,0-4.68-1.89-4.68-5.11Zm6.86-.79c0-1.98-.9-3.04-2.43-3.04-1.39,0-2.61,1.12-2.81,3.04h5.24Z"/>
        <path class="cls-1" d="M610.4,126.53c0-3.26,2.21-5.15,4.72-5.15,1.28,0,2.16,.54,2.86,1.15l-.85,1.1c-.58-.52-1.17-.88-1.96-.88-1.76,0-3.06,1.53-3.06,3.78s1.22,3.75,3.03,3.75c.9,0,1.69-.41,2.3-.97l.7,1.1c-.86,.79-1.98,1.24-3.15,1.24-2.59,0-4.59-1.87-4.59-5.11Z"/>
        <path class="cls-1" d="M622.19,128.39v-5.42h-1.46v-1.24l1.53-.09,.2-2.74h1.37v2.74h2.65v1.33h-2.65v5.46c0,1.21,.38,1.89,1.51,1.89,.34,0,.79-.13,1.12-.25l.32,1.22c-.56,.18-1.21,.36-1.8,.36-2.09,0-2.79-1.3-2.79-3.26Z"/>
        <path class="cls-1" d="M629.48,126.53c0-3.26,2.14-5.15,4.54-5.15s4.54,1.89,4.54,5.15-2.14,5.11-4.54,5.11-4.54-1.87-4.54-5.11Zm7.38,0c0-2.25-1.15-3.78-2.84-3.78s-2.83,1.53-2.83,3.78,1.13,3.75,2.83,3.75,2.84-1.49,2.84-3.75Z"/>
        <path class="cls-1" d="M642.93,121.63h1.35l.14,1.78h.05c.68-1.24,1.67-2.04,2.77-2.04,.43,0,.74,.05,1.04,.22l-.31,1.44c-.32-.13-.56-.16-.95-.16-.81,0-1.82,.58-2.47,2.25v6.28h-1.64v-9.78Z"/>
        <path class="cls-1" d="M650.4,125.74h4.61v1.26h-4.61v-1.26Z"/>
        <path class="cls-1" d="M658.66,124.82c0-4.27,2.56-6.86,6.05-6.86,1.84,0,3.04,.83,3.8,1.64l-.9,1.08c-.67-.7-1.51-1.26-2.86-1.26-2.65,0-4.38,2.05-4.38,5.35s1.57,5.42,4.39,5.42c.96,0,1.87-.29,2.4-.77v-3.46h-2.79v-1.39h4.32v5.55c-.85,.88-2.3,1.53-4.09,1.53-3.48,0-5.94-2.54-5.94-6.82Z"/>
        <path class="cls-1" d="M672.74,126.53c0-3.17,2.14-5.15,4.41-5.15,2.48,0,3.89,1.8,3.89,4.59,0,.36-.04,.7-.07,.94h-6.59c.11,2.09,1.39,3.42,3.24,3.42,.95,0,1.73-.29,2.45-.77l.59,1.08c-.86,.56-1.91,1.01-3.24,1.01-2.59,0-4.68-1.89-4.68-5.11Zm6.86-.79c0-1.98-.9-3.04-2.43-3.04-1.39,0-2.61,1.12-2.81,3.04h5.24Z"/>
        <path class="cls-1" d="M685.25,121.63h1.35l.14,1.41h.05c.94-.92,1.94-1.66,3.28-1.66,2.05,0,2.99,1.33,2.99,3.83v6.19h-1.64v-5.98c0-1.84-.56-2.61-1.85-2.61-1.01,0-1.69,.5-2.68,1.5v7.09h-1.64v-9.78Z"/>
        <path class="cls-1" d="M697.31,126.53c0-3.17,2.14-5.15,4.41-5.15,2.49,0,3.89,1.8,3.89,4.59,0,.36-.04,.7-.07,.94h-6.59c.11,2.09,1.39,3.42,3.24,3.42,.95,0,1.73-.29,2.45-.77l.59,1.08c-.86,.56-1.91,1.01-3.24,1.01-2.59,0-4.68-1.89-4.68-5.11Zm6.86-.79c0-1.98-.9-3.04-2.43-3.04-1.39,0-2.61,1.12-2.81,3.04h5.24Z"/>
        <path class="cls-1" d="M709.82,121.63h1.35l.14,1.78h.05c.68-1.24,1.67-2.04,2.77-2.04,.43,0,.74,.05,1.04,.22l-.31,1.44c-.32-.13-.56-.16-.95-.16-.81,0-1.82,.58-2.47,2.25v6.28h-1.64v-9.78Z"/>
        <path class="cls-1" d="M717.5,128.87c0-2.12,1.85-3.19,6.01-3.66,0-1.26-.41-2.47-2.02-2.47-1.13,0-2.16,.52-2.93,1.04l-.65-1.13c.9-.58,2.29-1.28,3.85-1.28,2.38,0,3.38,1.6,3.38,4.02v6.01h-1.35l-.14-1.17h-.05c-.94,.77-2.03,1.4-3.24,1.4-1.64,0-2.86-1.01-2.86-2.77Zm6.01,.16v-2.74c-3.29,.4-4.41,1.21-4.41,2.47,0,1.12,.76,1.57,1.73,1.57s1.73-.45,2.68-1.3Z"/>
        <path class="cls-1" d="M730.07,129.47v-12.39h1.64v12.5c0,.5,.22,.7,.47,.7,.09,0,.16,0,.34-.04l.23,1.26c-.23,.09-.52,.14-.95,.14-1.22,0-1.73-.79-1.73-2.18Z"/>
      </g>
    </g>
    <rect class="cls-2" x="330.13" y="25.71" width="194.18" height="32" rx="5" ry="5"/>
    <g>
      <path class="cls-1" d="M346.57,34.41h3.31c4.05,0,6.23,2.36,6.23,6.55s-2.18,6.64-6.16,6.64h-3.39v-13.2Zm3.17,11.83c3.12,0,4.65-1.95,4.65-5.28s-1.53-5.2-4.65-5.2h-1.49v10.48h1.49Z"/>
      <path class="cls-1" d="M360.29,34.75c0-.67,.49-1.06,1.13-1.06s1.13,.4,1.13,1.06c0,.61-.49,1.06-1.13,1.06s-1.13-.45-1.13-1.06Zm.31,3.08h1.64v9.78h-1.64v-9.78Z"/>
      <path class="cls-1" d="M367.34,37.83h1.35l.14,1.78h.05c.68-1.24,1.67-2.04,2.77-2.04,.43,0,.74,.05,1.04,.22l-.31,1.44c-.32-.13-.56-.16-.95-.16-.81,0-1.82,.58-2.47,2.25v6.28h-1.64v-9.78Z"/>
      <path class="cls-1" d="M375.19,42.73c0-3.17,2.14-5.15,4.41-5.15,2.48,0,3.89,1.8,3.89,4.59,0,.36-.04,.7-.07,.94h-6.59c.11,2.09,1.39,3.42,3.24,3.42,.95,0,1.73-.29,2.45-.77l.59,1.08c-.86,.56-1.91,1.01-3.24,1.01-2.59,0-4.68-1.89-4.68-5.11Zm6.86-.79c0-1.98-.9-3.04-2.43-3.04-1.39,0-2.61,1.12-2.81,3.04h5.24Z"/>
      <path class="cls-1" d="M386.96,42.73c0-3.26,2.21-5.15,4.72-5.15,1.28,0,2.16,.54,2.86,1.15l-.85,1.1c-.58-.52-1.17-.88-1.96-.88-1.76,0-3.06,1.53-3.06,3.78s1.22,3.75,3.02,3.75c.9,0,1.69-.41,2.3-.97l.7,1.1c-.86,.79-1.98,1.24-3.15,1.24-2.59,0-4.59-1.87-4.59-5.11Z"/>
      <path class="cls-1" d="M398.75,44.58v-5.42h-1.46v-1.24l1.53-.09,.2-2.74h1.37v2.74h2.65v1.33h-2.65v5.46c0,1.21,.38,1.89,1.51,1.89,.34,0,.79-.13,1.12-.25l.32,1.22c-.56,.18-1.21,.36-1.8,.36-2.09,0-2.79-1.3-2.79-3.26Z"/>
      <path class="cls-1" d="M406.04,42.73c0-3.26,2.14-5.15,4.54-5.15s4.54,1.89,4.54,5.15-2.14,5.11-4.54,5.11-4.54-1.87-4.54-5.11Zm7.38,0c0-2.25-1.15-3.78-2.84-3.78s-2.83,1.53-2.83,3.78,1.13,3.75,2.83,3.75,2.84-1.49,2.84-3.75Z"/>
      <path class="cls-1" d="M419.49,37.83h1.35l.14,1.78h.05c.68-1.24,1.67-2.04,2.77-2.04,.43,0,.74,.05,1.04,.22l-.31,1.44c-.32-.13-.56-.16-.95-.16-.81,0-1.82,.58-2.47,2.25v6.28h-1.64v-9.78Z"/>
      <path class="cls-1" d="M426.96,41.94h4.61v1.26h-4.61v-1.26Z"/>
      <path class="cls-1" d="M435.22,41.02c0-4.27,2.56-6.86,6.05-6.86,1.84,0,3.04,.83,3.8,1.64l-.9,1.08c-.67-.7-1.51-1.26-2.86-1.26-2.65,0-4.38,2.05-4.38,5.35s1.57,5.42,4.39,5.42c.95,0,1.87-.29,2.4-.77v-3.46h-2.79v-1.39h4.32v5.55c-.85,.88-2.3,1.53-4.09,1.53-3.48,0-5.94-2.54-5.94-6.82Z"/>
      <path class="cls-1" d="M449.3,42.73c0-3.17,2.14-5.15,4.41-5.15,2.48,0,3.89,1.8,3.89,4.59,0,.36-.04,.7-.07,.94h-6.59c.11,2.09,1.39,3.42,3.24,3.42,.95,0,1.73-.29,2.45-.77l.59,1.08c-.86,.56-1.91,1.01-3.24,1.01-2.59,0-4.68-1.89-4.68-5.11Zm6.86-.79c0-1.98-.9-3.04-2.43-3.04-1.39,0-2.61,1.12-2.81,3.04h5.24Z"/>
      <path class="cls-1" d="M461.81,37.83h1.35l.14,1.41h.05c.94-.92,1.94-1.66,3.28-1.66,2.05,0,2.99,1.33,2.99,3.83v6.19h-1.64v-5.98c0-1.84-.56-2.61-1.85-2.61-1.01,0-1.69,.5-2.68,1.5v7.09h-1.64v-9.78Z"/>
      <path class="cls-1" d="M473.87,42.73c0-3.17,2.14-5.15,4.41-5.15,2.48,0,3.89,1.8,3.89,4.59,0,.36-.04,.7-.07,.94h-6.59c.11,2.09,1.39,3.42,3.24,3.42,.95,0,1.73-.29,2.45-.77l.59,1.08c-.86,.56-1.91,1.01-3.24,1.01-2.59,0-4.68-1.89-4.68-5.11Zm6.86-.79c0-1.98-.9-3.04-2.43-3.04-1.39,0-2.61,1.12-2.81,3.04h5.24Z"/>
      <path class="cls-1" d="M486.38,37.83h1.35l.14,1.78h.05c.68-1.24,1.67-2.04,2.77-2.04,.43,0,.74,.05,1.04,.22l-.31,1.44c-.32-.13-.56-.16-.95-.16-.81,0-1.82,.58-2.47,2.25v6.28h-1.64v-9.78Z"/>
      <path class="cls-1" d="M494.06,45.07c0-2.12,1.85-3.19,6.01-3.66,0-1.26-.41-2.47-2.02-2.47-1.13,0-2.16,.52-2.94,1.04l-.65-1.13c.9-.58,2.29-1.28,3.85-1.28,2.38,0,3.39,1.6,3.39,4.02v6.01h-1.35l-.14-1.17h-.05c-.94,.77-2.03,1.4-3.24,1.4-1.64,0-2.86-1.01-2.86-2.77Zm6.01,.16v-2.74c-3.29,.4-4.41,1.21-4.41,2.47,0,1.12,.76,1.57,1.73,1.57s1.73-.45,2.68-1.3Z"/>
      <path class="cls-1" d="M506.62,45.66v-12.39h1.64v12.5c0,.5,.22,.7,.47,.7,.09,0,.16,0,.34-.04l.23,1.26c-.23,.09-.52,.14-.95,.14-1.22,0-1.73-.79-1.73-2.18Z"/>
    </g>
  </g>
  <g>
    <g>
      <g>
        <rect class="cls-3" x="193.24" y="86.4" width="31.66" height="370" rx="5" ry="5" transform="translate(480.47 62.32) rotate(90)"/>
        <g>
          <path class="cls-1" d="M118.93,264.29h1.67v13.2h-1.67v-13.2Z"/>
          <path class="cls-1" d="M124.06,267.71h1.35l.14,1.42h.05c.85-.94,1.87-1.67,3.04-1.67,1.49,0,2.3,.72,2.7,1.87,1.01-1.1,2.04-1.87,3.22-1.87,2.02,0,2.97,1.33,2.97,3.83v6.19h-1.64v-5.98c0-1.84-.58-2.61-1.82-2.61-.76,0-1.55,.49-2.47,1.49v7.09h-1.64v-5.98c0-1.84-.58-2.61-1.82-2.61-.74,0-1.57,.49-2.47,1.49v7.09h-1.64v-9.78Z"/>
          <path class="cls-1" d="M140.73,267.71h1.35l.14,1.12h.05c.88-.72,1.98-1.37,3.12-1.37,2.52,0,3.89,1.98,3.89,4.99,0,3.35-2,5.28-4.25,5.28-.88,0-1.82-.41-2.7-1.13l.04,1.71v3.31h-1.64v-13.9Zm6.84,4.75c0-2.16-.72-3.62-2.57-3.62-.83,0-1.67,.47-2.63,1.35v5.13c.88,.76,1.75,1.03,2.39,1.03,1.62,0,2.81-1.46,2.81-3.89Z"/>
          <path class="cls-1" d="M151.89,275.54v-12.39h1.64v12.5c0,.5,.22,.7,.47,.7,.09,0,.16,0,.34-.04l.23,1.26c-.23,.09-.52,.14-.95,.14-1.22,0-1.73-.79-1.73-2.18Z"/>
          <path class="cls-1" d="M156.28,272.61c0-3.17,2.14-5.15,4.41-5.15,2.48,0,3.89,1.8,3.89,4.59,0,.36-.04,.7-.07,.94h-6.59c.11,2.09,1.39,3.42,3.24,3.42,.95,0,1.73-.29,2.45-.77l.59,1.08c-.86,.56-1.91,1.01-3.24,1.01-2.59,0-4.68-1.89-4.68-5.11Zm6.86-.79c0-1.98-.9-3.04-2.43-3.04-1.39,0-2.61,1.12-2.81,3.04h5.24Z"/>
          <path class="cls-1" d="M166.99,267.71h1.35l.14,1.42h.05c.85-.94,1.87-1.67,3.04-1.67,1.49,0,2.3,.72,2.7,1.87,1.01-1.1,2.04-1.87,3.22-1.87,2.02,0,2.97,1.33,2.97,3.83v6.19h-1.64v-5.98c0-1.84-.58-2.61-1.82-2.61-.76,0-1.55,.49-2.47,1.49v7.09h-1.64v-5.98c0-1.84-.58-2.61-1.82-2.61-.74,0-1.57,.49-2.47,1.49v7.09h-1.64v-9.78Z"/>
          <path class="cls-1" d="M182.92,272.61c0-3.17,2.14-5.15,4.41-5.15,2.49,0,3.89,1.8,3.89,4.59,0,.36-.04,.7-.07,.94h-6.59c.11,2.09,1.39,3.42,3.24,3.42,.95,0,1.73-.29,2.45-.77l.59,1.08c-.86,.56-1.91,1.01-3.24,1.01-2.59,0-4.68-1.89-4.68-5.11Zm6.86-.79c0-1.98-.9-3.04-2.43-3.04-1.39,0-2.61,1.12-2.81,3.04h5.24Z"/>
          <path class="cls-1" d="M193.63,267.71h1.35l.14,1.4h.05c.94-.92,1.94-1.66,3.28-1.66,2.05,0,2.99,1.33,2.99,3.83v6.19h-1.64v-5.98c0-1.84-.56-2.61-1.85-2.61-1.01,0-1.69,.5-2.68,1.49v7.09h-1.64v-9.78Z"/>
          <path class="cls-1" d="M204.92,274.46v-5.42h-1.46v-1.24l1.53-.09,.2-2.74h1.37v2.74h2.65v1.33h-2.65v5.46c0,1.21,.38,1.89,1.51,1.89,.34,0,.79-.13,1.12-.25l.32,1.22c-.56,.18-1.21,.36-1.8,.36-2.09,0-2.79-1.3-2.79-3.26Z"/>
          <path class="cls-1" d="M210.37,274.95c0-2.12,1.85-3.19,6.01-3.66,0-1.26-.41-2.47-2.02-2.47-1.13,0-2.16,.52-2.94,1.04l-.65-1.13c.9-.58,2.29-1.28,3.85-1.28,2.38,0,3.38,1.6,3.38,4.02v6.01h-1.35l-.14-1.17h-.05c-.94,.77-2.04,1.4-3.24,1.4-1.64,0-2.86-1.01-2.86-2.77Zm6.01,.16v-2.74c-3.29,.4-4.41,1.21-4.41,2.47,0,1.12,.76,1.57,1.73,1.57s1.73-.45,2.68-1.3Z"/>
          <path class="cls-1" d="M221.15,274.46v-5.42h-1.46v-1.24l1.53-.09,.2-2.74h1.37v2.74h2.65v1.33h-2.65v5.46c0,1.21,.38,1.89,1.51,1.89,.34,0,.79-.13,1.12-.25l.32,1.22c-.56,.18-1.21,.36-1.8,.36-2.09,0-2.79-1.3-2.79-3.26Z"/>
          <path class="cls-1" d="M227.35,264.63c0-.67,.49-1.06,1.13-1.06s1.13,.4,1.13,1.06c0,.61-.49,1.06-1.13,1.06s-1.13-.45-1.13-1.06Zm.31,3.08h1.64v9.78h-1.64v-9.78Z"/>
          <path class="cls-1" d="M231.86,272.61c0-3.26,2.14-5.15,4.54-5.15s4.54,1.89,4.54,5.15-2.14,5.11-4.54,5.11-4.54-1.87-4.54-5.11Zm7.38,0c0-2.25-1.15-3.78-2.84-3.78s-2.83,1.53-2.83,3.78,1.13,3.75,2.83,3.75,2.84-1.49,2.84-3.75Z"/>
          <path class="cls-1" d="M243.51,267.71h1.35l.14,1.4h.05c.94-.92,1.94-1.66,3.28-1.66,2.05,0,2.99,1.33,2.99,3.83v6.19h-1.64v-5.98c0-1.84-.56-2.61-1.85-2.61-1.01,0-1.69,.5-2.68,1.49v7.09h-1.64v-9.78Z"/>
          <path class="cls-1" d="M258.63,272.03v-7.74h1.67v7.8c0,3.19,1.35,4.18,3.06,4.18s3.15-.99,3.15-4.18v-7.8h1.6v7.74c0,4.25-2.05,5.69-4.75,5.69s-4.74-1.44-4.74-5.69Z"/>
          <path class="cls-1" d="M271.52,267.71h1.35l.14,1.4h.05c.94-.92,1.94-1.66,3.28-1.66,2.05,0,2.99,1.33,2.99,3.83v6.19h-1.64v-5.98c0-1.84-.56-2.61-1.85-2.61-1.01,0-1.69,.5-2.68,1.49v7.09h-1.64v-9.78Z"/>
          <path class="cls-1" d="M282.21,264.63c0-.67,.49-1.06,1.13-1.06s1.13,.4,1.13,1.06c0,.61-.49,1.06-1.13,1.06s-1.13-.45-1.13-1.06Zm.31,3.08h1.64v9.78h-1.64v-9.78Z"/>
          <path class="cls-1" d="M287.75,274.46v-5.42h-1.46v-1.24l1.53-.09,.2-2.74h1.37v2.74h2.65v1.33h-2.65v5.46c0,1.21,.38,1.89,1.51,1.89,.34,0,.79-.13,1.12-.25l.32,1.22c-.56,.18-1.21,.36-1.8,.36-2.09,0-2.79-1.3-2.79-3.26Z"/>
          <path class="cls-1" d="M292.96,276.37l.81-1.08c.85,.68,1.73,1.15,2.9,1.15,1.3,0,1.93-.68,1.93-1.53,0-.99-1.15-1.44-2.23-1.85-1.37-.5-2.92-1.17-2.92-2.83,0-1.55,1.24-2.77,3.37-2.77,1.21,0,2.27,.5,3.04,1.1l-.79,1.06c-.68-.5-1.37-.86-2.25-.86-1.22,0-1.78,.65-1.78,1.4,0,.94,1.06,1.28,2.16,1.69,1.42,.54,2.99,1.12,2.99,2.97,0,1.58-1.26,2.9-3.57,2.9-1.39,0-2.72-.58-3.65-1.35Z"/>
        </g>
      </g>
      <g>
        <path class="cls-6" d="M43.5,298.1l10.64,6.75v.07l-10.64,6.75h-.03v-13.56h.03Z"/>
        <path d="M64.34,297.81h3.76c2.97,0,4.95,.99,4.95,3.87s-1.98,4.09-4.86,4.09h-2.18v5.24h-1.67v-13.2Zm3.64,6.61c2.32,0,3.42-.85,3.42-2.74s-1.17-2.52-3.49-2.52h-1.89v5.26h1.96Z"/>
        <path d="M74.35,306.13c0-3.26,2.14-5.15,4.54-5.15s4.54,1.89,4.54,5.15-2.14,5.11-4.54,5.11-4.54-1.87-4.54-5.11Zm7.38,0c0-2.25-1.15-3.78-2.84-3.78s-2.83,1.53-2.83,3.78,1.13,3.75,2.83,3.75,2.84-1.49,2.84-3.75Z"/>
        <path d="M85.99,309.06v-12.39h1.64v12.5c0,.5,.22,.7,.47,.7,.09,0,.16,0,.34-.04l.23,1.26c-.23,.09-.52,.14-.95,.14-1.22,0-1.73-.79-1.73-2.18Z"/>
        <path d="M90.82,298.15c0-.67,.49-1.06,1.13-1.06s1.13,.4,1.13,1.06c0,.61-.49,1.06-1.13,1.06s-1.13-.45-1.13-1.06Zm.31,3.08h1.64v9.78h-1.64v-9.78Z"/>
        <path d="M95.33,306.13c0-3.26,2.21-5.15,4.72-5.15,1.28,0,2.16,.54,2.86,1.15l-.85,1.1c-.58-.52-1.17-.88-1.96-.88-1.76,0-3.06,1.53-3.06,3.78s1.22,3.75,3.02,3.75c.9,0,1.69-.41,2.3-.97l.7,1.1c-.86,.79-1.98,1.24-3.15,1.24-2.59,0-4.59-1.87-4.59-5.11Z"/>
        <path d="M104.37,315.02l.32-1.31c.2,.07,.49,.16,.74,.16,1.12,0,1.82-.9,2.21-2.11l.22-.74-3.92-9.79h1.71l2,5.44c.29,.85,.63,1.85,.94,2.74h.09c.27-.88,.56-1.87,.83-2.74l1.75-5.44h1.6l-3.69,10.59c-.68,1.93-1.69,3.4-3.64,3.4-.47,0-.85-.07-1.15-.2Z"/>
        <path d="M118.92,297.81h3.76c2.97,0,4.95,.99,4.95,3.87s-1.98,4.09-4.86,4.09h-2.18v5.24h-1.67v-13.2Zm3.64,6.61c2.32,0,3.42-.85,3.42-2.74s-1.17-2.52-3.49-2.52h-1.89v5.26h1.96Z"/>
        <path d="M130.15,309.06v-12.39h1.64v12.5c0,.5,.22,.7,.47,.7,.09,0,.16,0,.34-.04l.23,1.26c-.23,.09-.52,.14-.95,.14-1.22,0-1.73-.79-1.73-2.18Z"/>
        <path d="M134.66,308.47c0-2.12,1.85-3.19,6.01-3.66,0-1.26-.41-2.47-2.02-2.47-1.13,0-2.16,.52-2.94,1.04l-.65-1.13c.9-.58,2.29-1.28,3.85-1.28,2.38,0,3.38,1.6,3.38,4.02v6.01h-1.35l-.14-1.17h-.05c-.94,.77-2.04,1.4-3.24,1.4-1.64,0-2.86-1.01-2.86-2.77Zm6.01,.16v-2.74c-3.29,.4-4.41,1.21-4.41,2.47,0,1.12,.76,1.57,1.73,1.57s1.73-.45,2.68-1.3Z"/>
        <path d="M145.43,301.23h1.35l.14,1.4h.05c.94-.92,1.94-1.66,3.28-1.66,2.05,0,2.99,1.33,2.99,3.83v6.19h-1.64v-5.98c0-1.84-.56-2.61-1.85-2.61-1.01,0-1.69,.5-2.68,1.49v7.09h-1.64v-9.78Z"/>
        <path d="M156.43,301.23h1.35l.14,1.4h.05c.94-.92,1.94-1.66,3.28-1.66,2.05,0,2.99,1.33,2.99,3.83v6.19h-1.64v-5.98c0-1.84-.56-2.61-1.85-2.61-1.01,0-1.69,.5-2.68,1.49v7.09h-1.64v-9.78Z"/>
        <path d="M167.12,298.15c0-.67,.49-1.06,1.13-1.06s1.13,.4,1.13,1.06c0,.61-.49,1.06-1.13,1.06s-1.13-.45-1.13-1.06Zm.31,3.08h1.64v9.78h-1.64v-9.78Z"/>
        <path d="M172.38,301.23h1.35l.14,1.4h.05c.94-.92,1.94-1.66,3.28-1.66,2.05,0,2.99,1.33,2.99,3.83v6.19h-1.64v-5.98c0-1.84-.56-2.61-1.85-2.61-1.01,0-1.69,.5-2.68,1.49v7.09h-1.64v-9.78Z"/>
        <path d="M182.62,312.88c0-.83,.54-1.62,1.46-2.21v-.07c-.52-.31-.9-.83-.9-1.6s.59-1.46,1.1-1.82v-.07c-.65-.52-1.28-1.46-1.28-2.63,0-2.14,1.69-3.49,3.67-3.49,.54,0,1.03,.13,1.37,.25h3.4v1.26h-2c.47,.45,.79,1.17,.79,2.02,0,2.09-1.58,3.4-3.57,3.4-.49,0-1.03-.13-1.46-.34-.36,.31-.63,.63-.63,1.17,0,.63,.4,1.06,1.71,1.06h1.91c2.27,0,3.4,.72,3.4,2.32,0,1.82-1.91,3.39-4.93,3.39-2.39,0-4.05-.94-4.05-2.63Zm7.4-.5c0-.9-.7-1.21-2-1.21h-1.69c-.36,0-.83-.05-1.26-.16-.7,.5-1.01,1.08-1.01,1.66,0,1.04,1.06,1.73,2.84,1.73,1.87,0,3.12-.99,3.12-2.02Zm-1.28-7.9c0-1.42-.92-2.29-2.07-2.29s-2.09,.85-2.09,2.29,.95,2.32,2.09,2.32,2.07-.9,2.07-2.32Z"/>
        <path d="M197.68,297.81h3.31c4.05,0,6.23,2.36,6.23,6.55s-2.18,6.64-6.16,6.64h-3.38v-13.2Zm3.17,11.83c3.11,0,4.65-1.94,4.65-5.28s-1.53-5.2-4.65-5.2h-1.5v10.48h1.5Z"/>
        <path d="M209.6,298.15c0-.67,.49-1.06,1.13-1.06s1.13,.4,1.13,1.06c0,.61-.49,1.06-1.13,1.06s-1.13-.45-1.13-1.06Zm.31,3.08h1.64v9.78h-1.64v-9.78Z"/>
        <path d="M213.43,301.23h1.71l1.84,5.56c.31,.95,.61,1.96,.92,2.88h.07c.29-.92,.61-1.93,.9-2.88l1.85-5.56h1.62l-3.47,9.78h-1.91l-3.53-9.78Z"/>
        <path d="M223.93,298.15c0-.67,.49-1.06,1.13-1.06s1.13,.4,1.13,1.06c0,.61-.49,1.06-1.13,1.06s-1.13-.45-1.13-1.06Zm.31,3.08h1.64v9.78h-1.64v-9.78Z"/>
        <path d="M228.09,309.89l.81-1.08c.85,.68,1.73,1.15,2.9,1.15,1.3,0,1.93-.68,1.93-1.53,0-.99-1.15-1.44-2.23-1.85-1.37-.5-2.92-1.17-2.92-2.83,0-1.55,1.24-2.77,3.37-2.77,1.21,0,2.27,.5,3.04,1.1l-.79,1.06c-.68-.5-1.37-.86-2.25-.86-1.22,0-1.78,.65-1.78,1.4,0,.94,1.06,1.28,2.16,1.69,1.42,.54,2.99,1.12,2.99,2.97,0,1.58-1.26,2.9-3.57,2.9-1.39,0-2.72-.58-3.65-1.35Z"/>
        <path d="M237.3,298.15c0-.67,.49-1.06,1.13-1.06s1.13,.4,1.13,1.06c0,.61-.49,1.06-1.13,1.06s-1.13-.45-1.13-1.06Zm.31,3.08h1.64v9.78h-1.64v-9.78Z"/>
        <path d="M241.82,306.13c0-3.26,2.14-5.15,4.54-5.15s4.54,1.89,4.54,5.15-2.14,5.11-4.54,5.11-4.54-1.87-4.54-5.11Zm7.38,0c0-2.25-1.15-3.78-2.84-3.78s-2.83,1.53-2.83,3.78,1.13,3.75,2.83,3.75,2.84-1.49,2.84-3.75Z"/>
        <path d="M253.47,301.23h1.35l.14,1.4h.05c.94-.92,1.94-1.66,3.28-1.66,2.05,0,2.99,1.33,2.99,3.83v6.19h-1.64v-5.98c0-1.84-.56-2.61-1.85-2.61-1.01,0-1.69,.5-2.68,1.49v7.09h-1.64v-9.78Z"/>
        <path class="cls-6" d="M43.5,328.1l10.64,6.75v.07l-10.64,6.75h-.03v-13.56h.03Z"/>
        <path d="M63.58,334.42c0-4.27,2.5-6.86,5.85-6.86,1.6,0,2.86,.79,3.62,1.64l-.9,1.08c-.68-.74-1.57-1.26-2.7-1.26-2.5,0-4.16,2.05-4.16,5.35s1.58,5.42,4.11,5.42c1.26,0,2.21-.56,3.06-1.48l.92,1.04c-1.04,1.21-2.34,1.89-4.05,1.89-3.28,0-5.74-2.54-5.74-6.82Z"/>
        <path d="M74.94,336.13c0-3.26,2.14-5.15,4.54-5.15s4.54,1.89,4.54,5.15-2.14,5.11-4.54,5.11-4.54-1.87-4.54-5.11Zm7.38,0c0-2.25-1.15-3.78-2.84-3.78s-2.83,1.53-2.83,3.78,1.13,3.75,2.83,3.75,2.84-1.49,2.84-3.75Z"/>
        <path d="M86.59,331.23h1.35l.14,1.42h.05c.85-.94,1.87-1.67,3.04-1.67,1.49,0,2.3,.72,2.7,1.87,1.01-1.1,2.04-1.87,3.22-1.87,2.02,0,2.97,1.33,2.97,3.83v6.19h-1.64v-5.98c0-1.84-.58-2.61-1.82-2.61-.76,0-1.55,.49-2.47,1.49v7.09h-1.64v-5.98c0-1.84-.58-2.61-1.82-2.61-.74,0-1.57,.49-2.47,1.49v7.09h-1.64v-9.78Z"/>
        <path d="M103.25,331.23h1.35l.14,1.42h.05c.85-.94,1.87-1.67,3.04-1.67,1.49,0,2.3,.72,2.7,1.87,1.01-1.1,2.04-1.87,3.22-1.87,2.02,0,2.97,1.33,2.97,3.83v6.19h-1.64v-5.98c0-1.84-.58-2.61-1.82-2.61-.76,0-1.55,.49-2.47,1.49v7.09h-1.64v-5.98c0-1.84-.58-2.61-1.82-2.61-.74,0-1.57,.49-2.47,1.49v7.09h-1.64v-9.78Z"/>
        <path d="M119.8,337.42v-6.19h1.64v6c0,1.82,.54,2.59,1.84,2.59,1.01,0,1.71-.49,2.65-1.66v-6.93h1.64v9.78h-1.37l-.13-1.53h-.05c-.92,1.06-1.89,1.76-3.24,1.76-2.05,0-2.97-1.33-2.97-3.82Z"/>
        <path d="M130.85,331.23h1.35l.14,1.4h.05c.94-.92,1.94-1.66,3.28-1.66,2.05,0,2.99,1.33,2.99,3.83v6.19h-1.64v-5.98c0-1.84-.56-2.61-1.85-2.61-1.01,0-1.69,.5-2.68,1.49v7.09h-1.64v-9.78Z"/>
        <path d="M141.54,328.15c0-.67,.49-1.06,1.13-1.06s1.13,.4,1.13,1.06c0,.61-.49,1.06-1.13,1.06s-1.13-.45-1.13-1.06Zm.31,3.08h1.64v9.78h-1.64v-9.78Z"/>
        <path d="M146.06,336.13c0-3.26,2.21-5.15,4.72-5.15,1.28,0,2.16,.54,2.86,1.15l-.85,1.1c-.58-.52-1.17-.88-1.96-.88-1.76,0-3.06,1.53-3.06,3.78s1.22,3.75,3.02,3.75c.9,0,1.69-.41,2.3-.97l.7,1.1c-.86,.79-1.98,1.24-3.15,1.24-2.59,0-4.59-1.87-4.59-5.11Z"/>
        <path d="M155.15,338.47c0-2.12,1.85-3.19,6.01-3.66,0-1.26-.42-2.47-2.02-2.47-1.13,0-2.16,.52-2.93,1.04l-.65-1.13c.9-.58,2.29-1.28,3.85-1.28,2.38,0,3.38,1.6,3.38,4.02v6.01h-1.35l-.14-1.17h-.05c-.94,.77-2.04,1.4-3.24,1.4-1.64,0-2.86-1.01-2.86-2.77Zm6.01,.16v-2.74c-3.3,.4-4.41,1.21-4.41,2.47,0,1.12,.76,1.57,1.73,1.57s1.73-.45,2.68-1.3Z"/>
        <path d="M165.93,337.98v-5.42h-1.46v-1.24l1.53-.09,.2-2.74h1.37v2.74h2.65v1.33h-2.65v5.46c0,1.21,.38,1.89,1.51,1.89,.34,0,.79-.13,1.12-.25l.32,1.22c-.56,.18-1.21,.36-1.8,.36-2.09,0-2.79-1.3-2.79-3.26Z"/>
        <path d="M172.12,328.15c0-.67,.49-1.06,1.13-1.06s1.13,.4,1.13,1.06c0,.61-.49,1.06-1.13,1.06s-1.13-.45-1.13-1.06Zm.31,3.08h1.64v9.78h-1.64v-9.78Z"/>
        <path d="M176.64,336.13c0-3.26,2.14-5.15,4.54-5.15s4.54,1.89,4.54,5.15-2.14,5.11-4.54,5.11-4.54-1.87-4.54-5.11Zm7.38,0c0-2.25-1.15-3.78-2.84-3.78s-2.83,1.53-2.83,3.78,1.13,3.75,2.83,3.75,2.84-1.49,2.84-3.75Z"/>
        <path d="M188.29,331.23h1.35l.14,1.4h.05c.94-.92,1.94-1.66,3.28-1.66,2.05,0,2.99,1.33,2.99,3.83v6.19h-1.64v-5.98c0-1.84-.56-2.61-1.85-2.61-1.01,0-1.69,.5-2.68,1.49v7.09h-1.64v-9.78Z"/>
        <path d="M198.19,339.89l.81-1.08c.85,.68,1.73,1.15,2.9,1.15,1.3,0,1.93-.68,1.93-1.53,0-.99-1.15-1.44-2.23-1.85-1.37-.5-2.92-1.17-2.92-2.83,0-1.55,1.24-2.77,3.37-2.77,1.21,0,2.27,.5,3.04,1.1l-.79,1.06c-.68-.5-1.37-.86-2.25-.86-1.22,0-1.78,.65-1.78,1.4,0,.94,1.06,1.28,2.16,1.69,1.42,.54,2.99,1.12,2.99,2.97,0,1.58-1.26,2.9-3.57,2.9-1.39,0-2.72-.58-3.65-1.35Z"/>
        <path d="M211.89,327.81h3.31c4.05,0,6.23,2.36,6.23,6.55s-2.18,6.64-6.16,6.64h-3.38v-13.2Zm3.17,11.83c3.11,0,4.65-1.94,4.65-5.28s-1.53-5.2-4.65-5.2h-1.5v10.48h1.5Z"/>
        <path d="M223.8,328.15c0-.67,.49-1.06,1.13-1.06s1.13,.4,1.13,1.06c0,.61-.49,1.06-1.13,1.06s-1.13-.45-1.13-1.06Zm.31,3.08h1.64v9.78h-1.64v-9.78Z"/>
        <path d="M227.64,331.23h1.71l1.84,5.56c.31,.95,.61,1.96,.92,2.88h.07c.29-.92,.61-1.93,.9-2.88l1.85-5.56h1.62l-3.47,9.78h-1.91l-3.53-9.78Z"/>
        <path d="M238.13,328.15c0-.67,.49-1.06,1.13-1.06s1.13,.4,1.13,1.06c0,.61-.49,1.06-1.13,1.06s-1.13-.45-1.13-1.06Zm.31,3.08h1.64v9.78h-1.64v-9.78Z"/>
        <path d="M242.29,339.89l.81-1.08c.85,.68,1.73,1.15,2.9,1.15,1.3,0,1.93-.68,1.93-1.53,0-.99-1.15-1.44-2.23-1.85-1.37-.5-2.92-1.17-2.92-2.83,0-1.55,1.24-2.77,3.37-2.77,1.21,0,2.27,.5,3.04,1.1l-.79,1.06c-.68-.5-1.37-.86-2.25-.86-1.22,0-1.78,.65-1.78,1.4,0,.94,1.06,1.28,2.16,1.69,1.42,.54,2.99,1.12,2.99,2.97,0,1.58-1.26,2.9-3.57,2.9-1.39,0-2.72-.58-3.65-1.35Z"/>
        <path d="M251.5,328.15c0-.67,.49-1.06,1.13-1.06s1.13,.4,1.13,1.06c0,.61-.49,1.06-1.13,1.06s-1.13-.45-1.13-1.06Zm.31,3.08h1.64v9.78h-1.64v-9.78Z"/>
        <path d="M256.02,336.13c0-3.26,2.14-5.15,4.54-5.15s4.54,1.89,4.54,5.15-2.14,5.11-4.54,5.11-4.54-1.87-4.54-5.11Zm7.38,0c0-2.25-1.15-3.78-2.84-3.78s-2.83,1.53-2.83,3.78,1.13,3.75,2.83,3.75,2.84-1.49,2.84-3.75Z"/>
        <path d="M267.67,331.23h1.35l.14,1.4h.05c.94-.92,1.94-1.66,3.28-1.66,2.05,0,2.99,1.33,2.99,3.83v6.19h-1.64v-5.98c0-1.84-.56-2.61-1.85-2.61-1.01,0-1.69,.5-2.68,1.49v7.09h-1.64v-9.78Z"/>
        <path class="cls-6" d="M43.5,358.1l10.64,6.75v.07l-10.64,6.75h-.03v-13.56h.03Z"/>
        <path d="M64.34,357.81h3.76c2.97,0,4.95,.99,4.95,3.87s-1.98,4.09-4.86,4.09h-2.18v5.24h-1.67v-13.2Zm3.64,6.61c2.32,0,3.42-.85,3.42-2.74s-1.17-2.52-3.49-2.52h-1.89v5.26h1.96Z"/>
        <path d="M75.57,369.06v-12.39h1.64v12.5c0,.5,.22,.7,.47,.7,.09,0,.16,0,.34-.04l.23,1.26c-.23,.09-.52,.14-.95,.14-1.22,0-1.73-.79-1.73-2.18Z"/>
        <path d="M80.09,368.47c0-2.12,1.85-3.19,6.01-3.66,0-1.26-.41-2.47-2.02-2.47-1.13,0-2.16,.52-2.94,1.04l-.65-1.13c.9-.58,2.29-1.28,3.85-1.28,2.38,0,3.38,1.6,3.38,4.02v6.01h-1.35l-.14-1.17h-.05c-.94,.77-2.04,1.4-3.24,1.4-1.64,0-2.86-1.01-2.86-2.77Zm6.01,.16v-2.74c-3.29,.4-4.41,1.21-4.41,2.47,0,1.12,.76,1.57,1.73,1.57s1.73-.45,2.68-1.3Z"/>
        <path d="M90.87,367.98v-5.42h-1.46v-1.24l1.53-.09,.2-2.74h1.37v2.74h2.65v1.33h-2.65v5.46c0,1.21,.38,1.89,1.51,1.89,.34,0,.79-.13,1.12-.25l.32,1.22c-.56,.18-1.21,.36-1.8,.36-2.09,0-2.79-1.3-2.79-3.26Z"/>
        <path d="M101.76,358.01c-.36-.16-.76-.25-1.1-.25-.94,0-1.39,.67-1.39,1.93v1.55h2.07v1.33h-2.07v8.44h-1.64v-8.44h-1.33v-1.24l1.33-.09v-1.57c0-1.98,.9-3.22,2.84-3.22,.59,0,1.17,.13,1.64,.32l-.36,1.24Z"/>
        <path d="M102.28,366.13c0-3.26,2.14-5.15,4.54-5.15s4.54,1.89,4.54,5.15-2.14,5.11-4.54,5.11-4.54-1.87-4.54-5.11Zm7.38,0c0-2.25-1.15-3.78-2.84-3.78s-2.83,1.53-2.83,3.78,1.13,3.75,2.83,3.75,2.84-1.49,2.84-3.75Z"/>
        <path d="M113.93,361.23h1.35l.14,1.78h.05c.68-1.24,1.67-2.03,2.77-2.03,.43,0,.74,.05,1.04,.22l-.31,1.44c-.32-.13-.56-.16-.95-.16-.81,0-1.82,.58-2.47,2.25v6.28h-1.64v-9.78Z"/>
        <path d="M120.91,361.23h1.35l.14,1.42h.05c.85-.94,1.87-1.67,3.04-1.67,1.49,0,2.3,.72,2.7,1.87,1.01-1.1,2.04-1.87,3.22-1.87,2.02,0,2.97,1.33,2.97,3.83v6.19h-1.64v-5.98c0-1.84-.58-2.61-1.82-2.61-.76,0-1.55,.49-2.47,1.49v7.09h-1.64v-5.98c0-1.84-.58-2.61-1.82-2.61-.74,0-1.57,.49-2.47,1.49v7.09h-1.64v-9.78Z"/>
        <path d="M141.76,357.81h7.62v1.4h-5.94v4.14h5.01v1.42h-5.01v4.81h6.14v1.42h-7.81v-13.2Z"/>
        <path d="M151.26,366.13c0-3.26,2.21-5.15,4.72-5.15,1.28,0,2.16,.54,2.86,1.15l-.85,1.1c-.58-.52-1.17-.88-1.96-.88-1.76,0-3.06,1.53-3.06,3.78s1.22,3.75,3.02,3.75c.9,0,1.69-.41,2.3-.97l.7,1.1c-.86,.79-1.98,1.24-3.15,1.24-2.59,0-4.59-1.87-4.59-5.11Z"/>
        <path d="M159.99,366.13c0-3.26,2.14-5.15,4.54-5.15s4.54,1.89,4.54,5.15-2.14,5.11-4.54,5.11-4.54-1.87-4.54-5.11Zm7.38,0c0-2.25-1.15-3.78-2.84-3.78s-2.83,1.53-2.83,3.78,1.13,3.75,2.83,3.75,2.84-1.49,2.84-3.75Z"/>
        <path d="M171.64,361.23h1.35l.14,1.4h.05c.94-.92,1.94-1.66,3.28-1.66,2.05,0,2.99,1.33,2.99,3.83v6.19h-1.64v-5.98c0-1.84-.56-2.61-1.85-2.61-1.01,0-1.69,.5-2.68,1.49v7.09h-1.64v-9.78Z"/>
        <path d="M181.9,366.13c0-3.26,2.14-5.15,4.54-5.15s4.54,1.89,4.54,5.15-2.14,5.11-4.54,5.11-4.54-1.87-4.54-5.11Zm7.38,0c0-2.25-1.15-3.78-2.84-3.78s-2.83,1.53-2.83,3.78,1.13,3.75,2.83,3.75,2.84-1.49,2.84-3.75Z"/>
        <path d="M193.54,361.23h1.35l.14,1.42h.05c.85-.94,1.87-1.67,3.04-1.67,1.49,0,2.3,.72,2.7,1.87,1.01-1.1,2.04-1.87,3.22-1.87,2.02,0,2.97,1.33,2.97,3.83v6.19h-1.64v-5.98c0-1.84-.58-2.61-1.82-2.61-.76,0-1.55,.49-2.47,1.49v7.09h-1.64v-5.98c0-1.84-.58-2.61-1.82-2.61-.74,0-1.57,.49-2.47,1.49v7.09h-1.64v-9.78Z"/>
        <path d="M209.22,375.02l.32-1.31c.2,.07,.49,.16,.74,.16,1.12,0,1.82-.9,2.21-2.11l.22-.74-3.92-9.79h1.71l2,5.44c.29,.85,.63,1.85,.94,2.74h.09c.27-.88,.56-1.87,.83-2.74l1.75-5.44h1.6l-3.69,10.59c-.68,1.93-1.69,3.4-3.64,3.4-.47,0-.85-.07-1.15-.2Z"/>
        <path d="M223.77,357.81h3.31c4.05,0,6.23,2.36,6.23,6.55s-2.18,6.64-6.16,6.64h-3.38v-13.2Zm3.17,11.83c3.11,0,4.65-1.94,4.65-5.28s-1.53-5.2-4.65-5.2h-1.5v10.48h1.5Z"/>
        <path d="M235.68,358.15c0-.67,.49-1.06,1.13-1.06s1.13,.4,1.13,1.06c0,.61-.49,1.06-1.13,1.06s-1.13-.45-1.13-1.06Zm.31,3.08h1.64v9.78h-1.64v-9.78Z"/>
        <path d="M239.52,361.23h1.71l1.84,5.56c.31,.95,.61,1.96,.92,2.88h.07c.29-.92,.61-1.93,.9-2.88l1.85-5.56h1.62l-3.47,9.78h-1.91l-3.53-9.78Z"/>
        <path d="M250.01,358.15c0-.67,.49-1.06,1.13-1.06s1.13,.4,1.13,1.06c0,.61-.49,1.06-1.13,1.06s-1.13-.45-1.13-1.06Zm.31,3.08h1.64v9.78h-1.64v-9.78Z"/>
        <path d="M254.17,369.89l.81-1.08c.85,.68,1.73,1.15,2.9,1.15,1.3,0,1.93-.68,1.93-1.53,0-.99-1.15-1.44-2.23-1.85-1.37-.5-2.92-1.17-2.92-2.83,0-1.55,1.24-2.77,3.37-2.77,1.21,0,2.27,.5,3.04,1.1l-.79,1.06c-.68-.5-1.37-.86-2.25-.86-1.22,0-1.78,.65-1.78,1.4,0,.94,1.06,1.28,2.16,1.69,1.42,.54,2.99,1.12,2.99,2.97,0,1.58-1.26,2.9-3.57,2.9-1.39,0-2.72-.58-3.65-1.35Z"/>
        <path d="M263.38,358.15c0-.67,.49-1.06,1.13-1.06s1.13,.4,1.13,1.06c0,.61-.49,1.06-1.13,1.06s-1.13-.45-1.13-1.06Zm.31,3.08h1.64v9.78h-1.64v-9.78Z"/>
        <path d="M267.9,366.13c0-3.26,2.14-5.15,4.54-5.15s4.54,1.89,4.54,5.15-2.14,5.11-4.54,5.11-4.54-1.87-4.54-5.11Zm7.38,0c0-2.25-1.15-3.78-2.84-3.78s-2.83,1.53-2.83,3.78,1.13,3.75,2.83,3.75,2.84-1.49,2.84-3.75Z"/>
        <path d="M279.55,361.23h1.35l.14,1.4h.05c.94-.92,1.94-1.66,3.28-1.66,2.05,0,2.99,1.33,2.99,3.83v6.19h-1.64v-5.98c0-1.84-.56-2.61-1.85-2.61-1.01,0-1.69,.5-2.68,1.49v7.09h-1.64v-9.78Z"/>
        <path class="cls-6" d="M43.5,388.1l10.64,6.75v.07l-10.64,6.75h-.03v-13.56h.03Z"/>
        <path d="M64.34,387.81h7.62v1.4h-5.94v4.14h5.01v1.42h-5.01v4.81h6.14v1.42h-7.81v-13.2Z"/>
        <path d="M74.78,391.23h1.35l.14,1.42h.05c.85-.94,1.87-1.67,3.04-1.67,1.49,0,2.3,.72,2.7,1.87,1.01-1.1,2.04-1.87,3.22-1.87,2.02,0,2.97,1.33,2.97,3.83v6.19h-1.64v-5.98c0-1.84-.58-2.61-1.82-2.61-.76,0-1.55,.49-2.47,1.49v7.09h-1.64v-5.98c0-1.84-.58-2.61-1.82-2.61-.74,0-1.57,.49-2.47,1.49v7.09h-1.64v-9.78Z"/>
        <path d="M90.71,396.13c0-3.17,2.14-5.15,4.41-5.15,2.49,0,3.89,1.8,3.89,4.59,0,.36-.04,.7-.07,.94h-6.59c.11,2.09,1.39,3.42,3.24,3.42,.95,0,1.73-.29,2.45-.77l.59,1.08c-.86,.56-1.91,1.01-3.24,1.01-2.59,0-4.68-1.89-4.68-5.11Zm6.86-.79c0-1.98-.9-3.04-2.43-3.04-1.39,0-2.61,1.12-2.81,3.04h5.24Z"/>
        <path d="M101.42,391.23h1.35l.14,1.78h.05c.68-1.24,1.67-2.03,2.77-2.03,.43,0,.74,.05,1.04,.22l-.31,1.44c-.32-.13-.56-.16-.95-.16-.81,0-1.82,.58-2.47,2.25v6.28h-1.64v-9.78Z"/>
        <path d="M107.45,402.88c0-.83,.54-1.62,1.46-2.21v-.07c-.52-.31-.9-.83-.9-1.6s.59-1.46,1.1-1.82v-.07c-.65-.52-1.28-1.46-1.28-2.63,0-2.14,1.69-3.49,3.67-3.49,.54,0,1.03,.13,1.37,.25h3.4v1.26h-2c.47,.45,.79,1.17,.79,2.02,0,2.09-1.58,3.4-3.57,3.4-.49,0-1.03-.13-1.46-.34-.36,.31-.63,.63-.63,1.17,0,.63,.4,1.06,1.71,1.06h1.91c2.27,0,3.4,.72,3.4,2.32,0,1.82-1.91,3.39-4.93,3.39-2.39,0-4.05-.94-4.05-2.63Zm7.4-.5c0-.9-.7-1.21-2-1.21h-1.69c-.36,0-.83-.05-1.26-.16-.7,.5-1.01,1.08-1.01,1.66,0,1.04,1.06,1.73,2.84,1.73,1.87,0,3.12-.99,3.12-2.02Zm-1.28-7.9c0-1.42-.92-2.29-2.07-2.29s-2.09,.85-2.09,2.29,.95,2.32,2.09,2.32,2.07-.9,2.07-2.32Z"/>
        <path d="M118.03,388.15c0-.67,.49-1.06,1.13-1.06s1.13,.4,1.13,1.06c0,.61-.49,1.06-1.13,1.06s-1.13-.45-1.13-1.06Zm.31,3.08h1.64v9.78h-1.64v-9.78Z"/>
        <path d="M123.29,391.23h1.35l.14,1.4h.05c.94-.92,1.94-1.66,3.28-1.66,2.05,0,2.99,1.33,2.99,3.83v6.19h-1.64v-5.98c0-1.84-.56-2.61-1.85-2.61-1.01,0-1.69,.5-2.68,1.49v7.09h-1.64v-9.78Z"/>
        <path d="M133.53,402.88c0-.83,.54-1.62,1.46-2.21v-.07c-.52-.31-.9-.83-.9-1.6s.59-1.46,1.1-1.82v-.07c-.65-.52-1.28-1.46-1.28-2.63,0-2.14,1.69-3.49,3.67-3.49,.54,0,1.03,.13,1.37,.25h3.4v1.26h-2c.47,.45,.79,1.17,.79,2.02,0,2.09-1.58,3.4-3.57,3.4-.49,0-1.03-.13-1.46-.34-.36,.31-.63,.63-.63,1.17,0,.63,.4,1.06,1.71,1.06h1.91c2.27,0,3.4,.72,3.4,2.32,0,1.82-1.91,3.39-4.93,3.39-2.39,0-4.05-.94-4.05-2.63Zm7.4-.5c0-.9-.7-1.21-2-1.21h-1.69c-.36,0-.83-.05-1.26-.16-.7,.5-1.01,1.08-1.01,1.66,0,1.04,1.06,1.73,2.84,1.73,1.87,0,3.12-.99,3.12-2.02Zm-1.28-7.9c0-1.42-.92-2.29-2.07-2.29s-2.09,.85-2.09,2.29,.95,2.32,2.09,2.32,2.07-.9,2.07-2.32Z"/>
        <path d="M147.84,398.47c0-2.12,1.85-3.19,6.01-3.66,0-1.26-.42-2.47-2.02-2.47-1.13,0-2.16,.52-2.93,1.04l-.65-1.13c.9-.58,2.29-1.28,3.85-1.28,2.38,0,3.38,1.6,3.38,4.02v6.01h-1.35l-.14-1.17h-.05c-.94,.77-2.04,1.4-3.24,1.4-1.64,0-2.86-1.01-2.86-2.77Zm6.01,.16v-2.74c-3.3,.4-4.41,1.21-4.41,2.47,0,1.12,.76,1.57,1.73,1.57s1.73-.45,2.68-1.3Z"/>
        <path d="M158.6,391.23h1.35l.14,1.4h.05c.94-.92,1.94-1.66,3.28-1.66,2.05,0,2.99,1.33,2.99,3.83v6.19h-1.64v-5.98c0-1.84-.56-2.61-1.85-2.61-1.01,0-1.69,.5-2.68,1.49v7.09h-1.64v-9.78Z"/>
        <path d="M168.9,396.13c0-3.17,2-5.15,4.23-5.15,1.15,0,1.89,.43,2.75,1.15l-.09-1.69v-3.76h1.64v14.33h-1.33l-.16-1.15h-.04c-.77,.76-1.8,1.39-2.97,1.39-2.45,0-4.03-1.85-4.03-5.11Zm6.9,2.39v-5.13c-.83-.74-1.57-1.03-2.38-1.03-1.58,0-2.83,1.51-2.83,3.75,0,2.36,.97,3.76,2.7,3.76,.9,0,1.69-.45,2.5-1.35Z"/>
        <path d="M184.18,394.42c0-4.27,2.5-6.86,5.85-6.86,1.6,0,2.86,.79,3.62,1.64l-.9,1.08c-.68-.74-1.57-1.26-2.7-1.26-2.5,0-4.16,2.05-4.16,5.35s1.58,5.42,4.11,5.42c1.26,0,2.21-.56,3.06-1.48l.92,1.04c-1.04,1.21-2.34,1.89-4.05,1.89-3.28,0-5.74-2.54-5.74-6.82Z"/>
        <path d="M196.28,391.23h1.35l.14,1.78h.05c.68-1.24,1.67-2.03,2.77-2.03,.43,0,.74,.05,1.04,.22l-.31,1.44c-.32-.13-.56-.16-.95-.16-.81,0-1.82,.58-2.47,2.25v6.28h-1.64v-9.78Z"/>
        <path d="M202.33,396.13c0-3.26,2.14-5.15,4.54-5.15s4.54,1.89,4.54,5.15-2.14,5.11-4.54,5.11-4.54-1.87-4.54-5.11Zm7.38,0c0-2.25-1.15-3.78-2.84-3.78s-2.83,1.53-2.83,3.78,1.13,3.75,2.83,3.75,2.84-1.49,2.84-3.75Z"/>
        <path d="M212.87,399.89l.81-1.08c.85,.68,1.73,1.15,2.9,1.15,1.3,0,1.93-.68,1.93-1.53,0-.99-1.15-1.44-2.23-1.85-1.37-.5-2.92-1.17-2.92-2.83,0-1.55,1.24-2.77,3.37-2.77,1.21,0,2.27,.5,3.04,1.1l-.79,1.06c-.68-.5-1.37-.86-2.25-.86-1.22,0-1.78,.65-1.78,1.4,0,.94,1.06,1.28,2.16,1.69,1.42,.54,2.99,1.12,2.99,2.97,0,1.58-1.26,2.9-3.57,2.9-1.39,0-2.72-.58-3.65-1.35Z"/>
        <path d="M221.3,399.89l.81-1.08c.85,.68,1.73,1.15,2.9,1.15,1.3,0,1.93-.68,1.93-1.53,0-.99-1.15-1.44-2.23-1.85-1.37-.5-2.92-1.17-2.92-2.83,0-1.55,1.24-2.77,3.37-2.77,1.21,0,2.27,.5,3.04,1.1l-.79,1.06c-.68-.5-1.37-.86-2.25-.86-1.22,0-1.78,.65-1.78,1.4,0,.94,1.06,1.28,2.16,1.69,1.42,.54,2.99,1.12,2.99,2.97,0,1.58-1.26,2.9-3.57,2.9-1.39,0-2.72-.58-3.65-1.35Z"/>
        <path d="M230.19,395.34h4.61v1.26h-4.61v-1.26Z"/>
        <path d="M237.41,387.81h3.31c4.05,0,6.23,2.36,6.23,6.55s-2.18,6.64-6.16,6.64h-3.38v-13.2Zm3.17,11.83c3.11,0,4.65-1.94,4.65-5.28s-1.53-5.2-4.65-5.2h-1.5v10.48h1.5Z"/>
        <path d="M248.89,396.13c0-3.26,2.14-5.15,4.54-5.15s4.54,1.89,4.54,5.15-2.14,5.11-4.54,5.11-4.54-1.87-4.54-5.11Zm7.38,0c0-2.25-1.15-3.78-2.84-3.78s-2.83,1.53-2.83,3.78,1.13,3.75,2.83,3.75,2.84-1.49,2.84-3.75Z"/>
        <path d="M260.54,391.23h1.35l.14,1.42h.05c.85-.94,1.87-1.67,3.04-1.67,1.49,0,2.3,.72,2.7,1.87,1.01-1.1,2.04-1.87,3.22-1.87,2.02,0,2.97,1.33,2.97,3.83v6.19h-1.64v-5.98c0-1.84-.58-2.61-1.82-2.61-.76,0-1.55,.49-2.47,1.49v7.09h-1.64v-5.98c0-1.84-.58-2.61-1.82-2.61-.74,0-1.57,.49-2.47,1.49v7.09h-1.64v-9.78Z"/>
        <path d="M276.59,398.47c0-2.12,1.85-3.19,6.01-3.66,0-1.26-.42-2.47-2.02-2.47-1.13,0-2.16,.52-2.93,1.04l-.65-1.13c.9-.58,2.29-1.28,3.85-1.28,2.38,0,3.38,1.6,3.38,4.02v6.01h-1.35l-.14-1.17h-.05c-.94,.77-2.04,1.4-3.24,1.4-1.64,0-2.86-1.01-2.86-2.77Zm6.01,.16v-2.74c-3.3,.4-4.41,1.21-4.41,2.47,0,1.12,.76,1.57,1.73,1.57s1.73-.45,2.68-1.3Z"/>
        <path d="M287.05,388.15c0-.67,.49-1.06,1.13-1.06s1.13,.4,1.13,1.06c0,.61-.49,1.06-1.13,1.06s-1.13-.45-1.13-1.06Zm.31,3.08h1.64v9.78h-1.64v-9.78Z"/>
        <path d="M292.31,391.23h1.35l.14,1.4h.05c.94-.92,1.94-1.66,3.28-1.66,2.05,0,2.99,1.33,2.99,3.83v6.19h-1.64v-5.98c0-1.84-.56-2.61-1.85-2.61-1.01,0-1.69,.5-2.68,1.49v7.09h-1.64v-9.78Z"/>
        <path d="M307.48,387.81h3.31c4.05,0,6.23,2.36,6.23,6.55s-2.18,6.64-6.16,6.64h-3.38v-13.2Zm3.17,11.83c3.11,0,4.65-1.94,4.65-5.28s-1.53-5.2-4.65-5.2h-1.5v10.48h1.5Z"/>
        <path d="M319.4,388.15c0-.67,.49-1.06,1.13-1.06s1.13,.4,1.13,1.06c0,.61-.49,1.06-1.13,1.06s-1.13-.45-1.13-1.06Zm.31,3.08h1.64v9.78h-1.64v-9.78Z"/>
        <path d="M323.23,391.23h1.71l1.84,5.56c.31,.95,.61,1.96,.92,2.88h.07c.29-.92,.61-1.93,.9-2.88l1.85-5.56h1.62l-3.47,9.78h-1.91l-3.53-9.78Z"/>
        <path d="M333.73,388.15c0-.67,.49-1.06,1.13-1.06s1.13,.4,1.13,1.06c0,.61-.49,1.06-1.13,1.06s-1.13-.45-1.13-1.06Zm.31,3.08h1.64v9.78h-1.64v-9.78Z"/>
        <path d="M337.89,399.89l.81-1.08c.85,.68,1.73,1.15,2.9,1.15,1.3,0,1.93-.68,1.93-1.53,0-.99-1.15-1.44-2.23-1.85-1.37-.5-2.92-1.17-2.92-2.83,0-1.55,1.24-2.77,3.37-2.77,1.21,0,2.27,.5,3.04,1.1l-.79,1.06c-.68-.5-1.37-.86-2.25-.86-1.22,0-1.78,.65-1.78,1.4,0,.94,1.06,1.28,2.16,1.69,1.42,.54,2.99,1.12,2.99,2.97,0,1.58-1.26,2.9-3.57,2.9-1.39,0-2.72-.58-3.65-1.35Z"/>
        <path d="M347.1,388.15c0-.67,.49-1.06,1.13-1.06s1.13,.4,1.13,1.06c0,.61-.49,1.06-1.13,1.06s-1.13-.45-1.13-1.06Zm.31,3.08h1.64v9.78h-1.64v-9.78Z"/>
        <path d="M351.62,396.13c0-3.26,2.14-5.15,4.54-5.15s4.54,1.89,4.54,5.15-2.14,5.11-4.54,5.11-4.54-1.87-4.54-5.11Zm7.38,0c0-2.25-1.15-3.78-2.84-3.78s-2.83,1.53-2.83,3.78,1.13,3.75,2.83,3.75,2.84-1.49,2.84-3.75Z"/>
        <path d="M363.27,391.23h1.35l.14,1.4h.05c.94-.92,1.94-1.66,3.28-1.66,2.05,0,2.99,1.33,2.99,3.83v6.19h-1.64v-5.98c0-1.84-.56-2.61-1.85-2.61-1.01,0-1.69,.5-2.68,1.49v7.09h-1.64v-9.78Z"/>
        <path class="cls-6" d="M43.5,418.1l10.64,6.75v.07l-10.64,6.75h-.03v-13.56h.03Z"/>
        <path d="M64.34,417.81h3.31c4.05,0,6.23,2.36,6.23,6.55s-2.18,6.64-6.16,6.64h-3.38v-13.2Zm3.17,11.83c3.11,0,4.65-1.94,4.65-5.28s-1.53-5.2-4.65-5.2h-1.5v10.48h1.5Z"/>
        <path d="M76.26,418.15c0-.67,.49-1.06,1.13-1.06s1.13,.4,1.13,1.06c0,.61-.49,1.06-1.13,1.06s-1.13-.45-1.13-1.06Zm.31,3.08h1.64v9.78h-1.64v-9.78Z"/>
        <path d="M80.76,432.88c0-.83,.54-1.62,1.46-2.21v-.07c-.52-.31-.9-.83-.9-1.6s.59-1.46,1.1-1.82v-.07c-.65-.52-1.28-1.46-1.28-2.63,0-2.14,1.69-3.49,3.67-3.49,.54,0,1.03,.13,1.37,.25h3.4v1.26h-2c.47,.45,.79,1.17,.79,2.02,0,2.09-1.58,3.4-3.57,3.4-.49,0-1.03-.13-1.46-.34-.36,.31-.63,.63-.63,1.17,0,.63,.4,1.06,1.71,1.06h1.91c2.27,0,3.4,.72,3.4,2.32,0,1.82-1.91,3.39-4.93,3.39-2.39,0-4.05-.94-4.05-2.63Zm7.4-.5c0-.9-.7-1.21-2-1.21h-1.69c-.36,0-.83-.05-1.26-.16-.7,.5-1.01,1.08-1.01,1.66,0,1.04,1.06,1.73,2.84,1.73,1.87,0,3.12-.99,3.12-2.02Zm-1.28-7.9c0-1.42-.92-2.29-2.07-2.29s-2.09,.85-2.09,2.29,.95,2.32,2.09,2.32,2.07-.9,2.07-2.32Z"/>
        <path d="M91.34,418.15c0-.67,.49-1.06,1.13-1.06s1.13,.4,1.13,1.06c0,.61-.49,1.06-1.13,1.06s-1.13-.45-1.13-1.06Zm.31,3.08h1.64v9.78h-1.64v-9.78Z"/>
        <path d="M96.88,427.98v-5.42h-1.46v-1.24l1.53-.09,.2-2.74h1.37v2.74h2.65v1.33h-2.65v5.46c0,1.21,.38,1.89,1.51,1.89,.34,0,.79-.13,1.12-.25l.32,1.22c-.56,.18-1.21,.36-1.8,.36-2.09,0-2.79-1.3-2.79-3.26Z"/>
        <path d="M102.34,428.47c0-2.12,1.85-3.19,6.01-3.66,0-1.26-.42-2.47-2.02-2.47-1.13,0-2.16,.52-2.93,1.04l-.65-1.13c.9-.58,2.29-1.28,3.85-1.28,2.38,0,3.38,1.6,3.38,4.02v6.01h-1.35l-.14-1.17h-.05c-.94,.77-2.04,1.4-3.24,1.4-1.64,0-2.86-1.01-2.86-2.77Zm6.01,.16v-2.74c-3.3,.4-4.41,1.21-4.41,2.47,0,1.12,.76,1.57,1.73,1.57s1.73-.45,2.68-1.3Z"/>
        <path d="M113.1,429.06v-12.39h1.64v12.5c0,.5,.22,.7,.47,.7,.09,0,.16,0,.34-.04l.23,1.26c-.23,.09-.52,.14-.95,.14-1.22,0-1.73-.79-1.73-2.18Z"/>
        <path d="M121.45,429.28l.99-1.13c.95,.99,2.29,1.64,3.65,1.64,1.73,0,2.77-.86,2.77-2.16s-.95-1.78-2.2-2.34l-1.91-.83c-1.22-.52-2.68-1.46-2.68-3.39,0-2.03,1.76-3.51,4.16-3.51,1.57,0,2.95,.67,3.89,1.64l-.88,1.06c-.81-.76-1.78-1.24-3.01-1.24-1.49,0-2.47,.76-2.47,1.94,0,1.28,1.15,1.76,2.18,2.2l1.89,.81c1.53,.67,2.72,1.57,2.72,3.53,0,2.09-1.73,3.75-4.48,3.75-1.87,0-3.47-.76-4.63-1.96Z"/>
        <path d="M132.27,426.13c0-3.17,2.14-5.15,4.41-5.15,2.48,0,3.89,1.8,3.89,4.59,0,.36-.04,.7-.07,.94h-6.59c.11,2.09,1.39,3.42,3.24,3.42,.95,0,1.73-.29,2.45-.77l.59,1.08c-.86,.56-1.91,1.01-3.24,1.01-2.59,0-4.68-1.89-4.68-5.11Zm6.86-.79c0-1.98-.9-3.04-2.43-3.04-1.39,0-2.61,1.12-2.81,3.04h5.24Z"/>
        <path d="M142.98,421.23h1.35l.14,1.78h.05c.68-1.24,1.67-2.03,2.77-2.03,.43,0,.74,.05,1.04,.22l-.31,1.44c-.32-.13-.56-.16-.95-.16-.81,0-1.82,.58-2.47,2.25v6.28h-1.64v-9.78Z"/>
        <path d="M149.06,421.23h1.71l1.84,5.56c.31,.95,.61,1.96,.92,2.88h.07c.29-.92,.61-1.93,.9-2.88l1.85-5.56h1.62l-3.47,9.78h-1.91l-3.53-9.78Z"/>
        <path d="M159.56,418.15c0-.67,.49-1.06,1.13-1.06s1.13,.4,1.13,1.06c0,.61-.49,1.06-1.13,1.06s-1.13-.45-1.13-1.06Zm.31,3.08h1.64v9.78h-1.64v-9.78Z"/>
        <path d="M164.08,426.13c0-3.26,2.21-5.15,4.72-5.15,1.28,0,2.16,.54,2.86,1.15l-.85,1.1c-.58-.52-1.17-.88-1.96-.88-1.76,0-3.06,1.53-3.06,3.78s1.22,3.75,3.02,3.75c.9,0,1.69-.41,2.3-.97l.7,1.1c-.86,.79-1.98,1.24-3.15,1.24-2.59,0-4.59-1.87-4.59-5.11Z"/>
        <path d="M172.81,426.13c0-3.17,2.14-5.15,4.41-5.15,2.48,0,3.89,1.8,3.89,4.59,0,.36-.04,.7-.07,.94h-6.59c.11,2.09,1.39,3.42,3.24,3.42,.95,0,1.73-.29,2.45-.77l.59,1.08c-.86,.56-1.91,1.01-3.24,1.01-2.59,0-4.68-1.89-4.68-5.11Zm6.86-.79c0-1.98-.9-3.04-2.43-3.04-1.39,0-2.61,1.12-2.81,3.04h5.24Z"/>
        <path d="M187.69,417.81h3.31c4.05,0,6.23,2.36,6.23,6.55s-2.18,6.64-6.16,6.64h-3.38v-13.2Zm3.17,11.83c3.11,0,4.65-1.94,4.65-5.28s-1.53-5.2-4.65-5.2h-1.5v10.48h1.5Z"/>
        <path d="M199.61,418.15c0-.67,.49-1.06,1.13-1.06s1.13,.4,1.13,1.06c0,.61-.49,1.06-1.13,1.06s-1.13-.45-1.13-1.06Zm.31,3.08h1.64v9.78h-1.64v-9.78Z"/>
        <path d="M203.44,421.23h1.71l1.84,5.56c.31,.95,.61,1.96,.92,2.88h.07c.29-.92,.61-1.93,.9-2.88l1.85-5.56h1.62l-3.47,9.78h-1.91l-3.53-9.78Z"/>
        <path d="M213.94,418.15c0-.67,.49-1.06,1.13-1.06s1.13,.4,1.13,1.06c0,.61-.49,1.06-1.13,1.06s-1.13-.45-1.13-1.06Zm.31,3.08h1.64v9.78h-1.64v-9.78Z"/>
        <path d="M218.1,429.89l.81-1.08c.85,.68,1.73,1.15,2.9,1.15,1.3,0,1.93-.68,1.93-1.53,0-.99-1.15-1.44-2.23-1.85-1.37-.5-2.92-1.17-2.92-2.83,0-1.55,1.24-2.77,3.37-2.77,1.21,0,2.27,.5,3.04,1.1l-.79,1.06c-.68-.5-1.37-.86-2.25-.86-1.22,0-1.78,.65-1.78,1.4,0,.94,1.06,1.28,2.16,1.69,1.42,.54,2.99,1.12,2.99,2.97,0,1.58-1.26,2.9-3.57,2.9-1.39,0-2.72-.58-3.65-1.35Z"/>
        <path d="M227.31,418.15c0-.67,.49-1.06,1.13-1.06s1.13,.4,1.13,1.06c0,.61-.49,1.06-1.13,1.06s-1.13-.45-1.13-1.06Zm.31,3.08h1.64v9.78h-1.64v-9.78Z"/>
        <path d="M231.83,426.13c0-3.26,2.14-5.15,4.54-5.15s4.54,1.89,4.54,5.15-2.14,5.11-4.54,5.11-4.54-1.87-4.54-5.11Zm7.38,0c0-2.25-1.15-3.78-2.84-3.78s-2.83,1.53-2.83,3.78,1.13,3.75,2.83,3.75,2.84-1.49,2.84-3.75Z"/>
        <path d="M243.48,421.23h1.35l.14,1.4h.05c.94-.92,1.94-1.66,3.28-1.66,2.05,0,2.99,1.33,2.99,3.83v6.19h-1.64v-5.98c0-1.84-.56-2.61-1.85-2.61-1.01,0-1.69,.5-2.68,1.49v7.09h-1.64v-9.78Z"/>
      </g>
    </g>
    <g>
      <g>
        <path class="cls-6" d="M484.87,298.45l10.64,6.75v.07l-10.64,6.75h-.03v-13.56h.03Z"/>
        <path d="M504.76,309.63l.99-1.13c.95,.99,2.29,1.64,3.65,1.64,1.73,0,2.77-.86,2.77-2.16s-.95-1.78-2.2-2.34l-1.91-.83c-1.22-.52-2.68-1.46-2.68-3.39,0-2.03,1.76-3.51,4.16-3.51,1.57,0,2.95,.67,3.89,1.64l-.88,1.06c-.81-.76-1.78-1.24-3.01-1.24-1.49,0-2.47,.76-2.47,1.94,0,1.28,1.15,1.76,2.18,2.2l1.89,.81c1.53,.67,2.72,1.57,2.72,3.53,0,2.09-1.73,3.75-4.48,3.75-1.87,0-3.47-.76-4.63-1.96Z"/>
        <path d="M515.58,306.48c0-3.17,2.14-5.15,4.41-5.15,2.49,0,3.89,1.8,3.89,4.59,0,.36-.04,.7-.07,.94h-6.59c.11,2.09,1.39,3.42,3.24,3.42,.95,0,1.73-.29,2.45-.77l.59,1.08c-.86,.56-1.91,1.01-3.24,1.01-2.59,0-4.68-1.89-4.68-5.11Zm6.86-.79c0-1.98-.9-3.04-2.43-3.04-1.39,0-2.61,1.12-2.81,3.04h5.24Z"/>
        <path d="M525.55,306.48c0-3.26,2.21-5.15,4.72-5.15,1.28,0,2.16,.54,2.86,1.15l-.85,1.1c-.58-.52-1.17-.88-1.96-.88-1.76,0-3.06,1.53-3.06,3.78s1.22,3.75,3.02,3.75c.9,0,1.69-.41,2.3-.97l.7,1.1c-.86,.79-1.98,1.24-3.15,1.24-2.59,0-4.59-1.87-4.59-5.11Z"/>
        <path d="M535.45,301.58h1.35l.14,1.78h.05c.68-1.24,1.67-2.03,2.77-2.03,.43,0,.74,.05,1.04,.22l-.31,1.44c-.32-.13-.56-.16-.95-.16-.81,0-1.82,.58-2.47,2.25v6.28h-1.64v-9.78Z"/>
        <path d="M541.49,306.48c0-3.17,2.14-5.15,4.41-5.15,2.48,0,3.89,1.8,3.89,4.59,0,.36-.04,.7-.07,.94h-6.59c.11,2.09,1.39,3.42,3.24,3.42,.95,0,1.73-.29,2.45-.77l.59,1.08c-.86,.56-1.91,1.01-3.24,1.01-2.59,0-4.68-1.89-4.68-5.11Zm6.86-.79c0-1.98-.9-3.04-2.43-3.04-1.39,0-2.61,1.12-2.81,3.04h5.24Z"/>
        <path d="M552.29,308.34v-5.42h-1.46v-1.24l1.53-.09,.2-2.74h1.37v2.74h2.65v1.33h-2.65v5.46c0,1.21,.38,1.89,1.51,1.89,.34,0,.79-.13,1.12-.25l.32,1.22c-.56,.18-1.21,.36-1.8,.36-2.09,0-2.79-1.3-2.79-3.26Z"/>
        <path d="M557.75,308.82c0-2.12,1.85-3.19,6.01-3.66,0-1.26-.42-2.47-2.02-2.47-1.13,0-2.16,.52-2.93,1.04l-.65-1.13c.9-.58,2.29-1.28,3.85-1.28,2.38,0,3.38,1.6,3.38,4.02v6.01h-1.35l-.14-1.17h-.05c-.94,.77-2.04,1.4-3.24,1.4-1.64,0-2.86-1.01-2.86-2.77Zm6.01,.16v-2.74c-3.3,.4-4.41,1.21-4.41,2.47,0,1.12,.76,1.57,1.73,1.57s1.73-.45,2.68-1.3Z"/>
        <path d="M568.51,301.58h1.35l.14,1.78h.05c.68-1.24,1.67-2.03,2.77-2.03,.43,0,.74,.05,1.04,.22l-.31,1.44c-.32-.13-.56-.16-.95-.16-.81,0-1.82,.58-2.47,2.25v6.28h-1.64v-9.78Z"/>
        <path d="M575.19,298.5c0-.67,.49-1.06,1.13-1.06s1.13,.4,1.13,1.06c0,.61-.49,1.06-1.13,1.06s-1.13-.45-1.13-1.06Zm.31,3.08h1.64v9.78h-1.64v-9.78Z"/>
        <path d="M579.83,308.82c0-2.12,1.85-3.19,6.01-3.66,0-1.26-.41-2.47-2.02-2.47-1.13,0-2.16,.52-2.94,1.04l-.65-1.13c.9-.58,2.29-1.28,3.85-1.28,2.38,0,3.38,1.6,3.38,4.02v6.01h-1.35l-.14-1.17h-.05c-.94,.77-2.04,1.4-3.24,1.4-1.64,0-2.86-1.01-2.86-2.77Zm6.01,.16v-2.74c-3.29,.4-4.41,1.21-4.41,2.47,0,1.12,.76,1.57,1.73,1.57s1.73-.45,2.68-1.3Z"/>
        <path d="M590.62,308.34v-5.42h-1.46v-1.24l1.53-.09,.2-2.74h1.37v2.74h2.65v1.33h-2.65v5.46c0,1.21,.38,1.89,1.51,1.89,.34,0,.79-.13,1.12-.25l.32,1.22c-.56,.18-1.21,.36-1.8,.36-2.09,0-2.79-1.3-2.79-3.26Z"/>
        <path class="cls-6" d="M484.87,328.45l10.64,6.75v.07l-10.64,6.75h-.03v-13.56h.03Z"/>
        <path d="M505.71,328.16h3.76c2.97,0,4.95,.99,4.95,3.87s-1.98,4.09-4.86,4.09h-2.18v5.24h-1.67v-13.2Zm3.64,6.61c2.32,0,3.42-.85,3.42-2.74s-1.17-2.52-3.49-2.52h-1.89v5.26h1.96Z"/>
        <path d="M515.72,336.48c0-3.17,2.14-5.15,4.41-5.15,2.48,0,3.89,1.8,3.89,4.59,0,.36-.04,.7-.07,.94h-6.59c.11,2.09,1.39,3.42,3.24,3.42,.95,0,1.73-.29,2.45-.77l.59,1.08c-.86,.56-1.91,1.01-3.24,1.01-2.59,0-4.68-1.89-4.68-5.11Zm6.86-.79c0-1.98-.9-3.04-2.43-3.04-1.39,0-2.61,1.12-2.81,3.04h5.24Z"/>
        <path d="M526.43,331.58h1.35l.14,1.78h.05c.68-1.24,1.67-2.03,2.77-2.03,.43,0,.74,.05,1.04,.22l-.31,1.44c-.32-.13-.56-.16-.95-.16-.81,0-1.82,.58-2.47,2.25v6.28h-1.64v-9.78Z"/>
        <path d="M532.24,340.24l.81-1.08c.85,.68,1.73,1.15,2.9,1.15,1.3,0,1.93-.68,1.93-1.53,0-.99-1.15-1.44-2.23-1.85-1.37-.5-2.92-1.17-2.92-2.83,0-1.55,1.24-2.77,3.37-2.77,1.21,0,2.27,.5,3.04,1.1l-.79,1.06c-.68-.5-1.37-.86-2.25-.86-1.22,0-1.78,.65-1.78,1.4,0,.94,1.06,1.28,2.16,1.69,1.42,.54,2.99,1.12,2.99,2.97,0,1.58-1.26,2.9-3.57,2.9-1.39,0-2.72-.58-3.65-1.35Z"/>
        <path d="M541.03,336.48c0-3.26,2.14-5.15,4.54-5.15s4.54,1.89,4.54,5.15-2.14,5.11-4.54,5.11-4.54-1.87-4.54-5.11Zm7.38,0c0-2.25-1.15-3.78-2.84-3.78s-2.83,1.53-2.83,3.78,1.13,3.75,2.83,3.75,2.84-1.49,2.84-3.75Z"/>
        <path d="M552.67,331.58h1.35l.14,1.4h.05c.94-.92,1.94-1.66,3.28-1.66,2.05,0,2.99,1.33,2.99,3.83v6.19h-1.64v-5.98c0-1.84-.56-2.61-1.85-2.61-1.01,0-1.69,.5-2.68,1.49v7.09h-1.64v-9.78Z"/>
        <path d="M563.67,331.58h1.35l.14,1.4h.05c.94-.92,1.94-1.66,3.28-1.66,2.05,0,2.99,1.33,2.99,3.83v6.19h-1.64v-5.98c0-1.84-.56-2.61-1.85-2.61-1.01,0-1.69,.5-2.68,1.49v7.09h-1.64v-9.78Z"/>
        <path d="M573.93,336.48c0-3.17,2.14-5.15,4.41-5.15,2.48,0,3.89,1.8,3.89,4.59,0,.36-.04,.7-.07,.94h-6.59c.11,2.09,1.39,3.42,3.24,3.42,.95,0,1.73-.29,2.45-.77l.59,1.08c-.86,.56-1.91,1.01-3.24,1.01-2.59,0-4.68-1.89-4.68-5.11Zm6.86-.79c0-1.98-.9-3.04-2.43-3.04-1.39,0-2.61,1.12-2.81,3.04h5.24Z"/>
        <path d="M584.64,339.42v-12.39h1.64v12.5c0,.5,.22,.7,.47,.7,.09,0,.16,0,.34-.04l.23,1.26c-.23,.09-.52,.14-.95,.14-1.22,0-1.73-.79-1.73-2.18Z"/>
        <path d="M593.19,334.72c0-4.23,2.32-6.81,5.64-6.81s5.64,2.58,5.64,6.81-2.32,6.88-5.64,6.88-5.64-2.65-5.64-6.88Zm9.56,0c0-3.31-1.57-5.35-3.93-5.35s-3.92,2.03-3.92,5.35,1.55,5.42,3.92,5.42,3.93-2.12,3.93-5.42Z"/>
        <path d="M613.15,330.02c0-1.98,.9-3.22,2.86-3.22,.58,0,1.17,.13,1.62,.32l-.36,1.24c-.36-.16-.76-.25-1.1-.25-.94,0-1.39,.67-1.39,1.93v1.55h2.07v1.33h-2.07v8.44h-1.64v-8.44h-4.09v8.44h-1.64v-8.44h-1.33v-1.24l1.33-.09v-1.31c0-2.02,1.01-3.28,3.02-3.28,.65,0,1.3,.13,1.8,.34l-.34,1.26c-.43-.2-.83-.29-1.31-.29-.97,0-1.53,.72-1.53,2.02v1.26h4.09v-1.57Zm7.56-1.51c0,.61-.5,1.06-1.15,1.06s-1.13-.45-1.13-1.06c0-.67,.5-1.06,1.13-1.06s1.15,.4,1.15,1.06Zm-1.96,3.08h1.64v9.78h-1.64v-9.78Z"/>
        <path d="M622.94,336.48c0-3.26,2.21-5.15,4.72-5.15,1.28,0,2.16,.54,2.86,1.15l-.85,1.1c-.58-.52-1.17-.88-1.96-.88-1.76,0-3.06,1.53-3.06,3.78s1.22,3.75,3.02,3.75c.9,0,1.69-.41,2.3-.97l.7,1.1c-.86,.79-1.98,1.24-3.15,1.24-2.59,0-4.59-1.87-4.59-5.11Z"/>
        <path d="M631.67,336.48c0-3.17,2.14-5.15,4.41-5.15,2.49,0,3.89,1.8,3.89,4.59,0,.36-.04,.7-.07,.94h-6.59c.11,2.09,1.39,3.42,3.24,3.42,.95,0,1.73-.29,2.45-.77l.59,1.08c-.86,.56-1.91,1.01-3.24,1.01-2.59,0-4.68-1.89-4.68-5.11Zm6.86-.79c0-1.98-.9-3.04-2.43-3.04-1.39,0-2.61,1.12-2.81,3.04h5.24Z"/>
        <path class="cls-6" d="M484.87,358.45l10.64,6.75v.07l-10.64,6.75h-.03v-13.56h.03Z"/>
        <path d="M511.76,367.33h-4.83l-1.28,4.03h-1.69l4.48-13.2h1.85l4.48,13.2h-1.76l-1.26-4.03Zm-.41-1.33l-.63-2.02c-.49-1.49-.9-2.93-1.33-4.47h-.07c-.41,1.55-.85,2.97-1.31,4.47l-.65,2.02h4Z"/>
        <path d="M515.75,366.48c0-3.26,2.21-5.15,4.72-5.15,1.28,0,2.16,.54,2.86,1.15l-.85,1.1c-.58-.52-1.17-.88-1.96-.88-1.76,0-3.06,1.53-3.06,3.78s1.22,3.75,3.02,3.75c.9,0,1.69-.41,2.3-.97l.7,1.1c-.86,.79-1.98,1.24-3.15,1.24-2.59,0-4.59-1.87-4.59-5.11Z"/>
        <path d="M524.49,366.48c0-3.26,2.21-5.15,4.72-5.15,1.28,0,2.16,.54,2.86,1.15l-.85,1.1c-.58-.52-1.17-.88-1.96-.88-1.76,0-3.06,1.53-3.06,3.78s1.22,3.75,3.02,3.75c.9,0,1.69-.41,2.3-.97l.7,1.1c-.86,.79-1.98,1.24-3.15,1.24-2.59,0-4.59-1.87-4.59-5.11Z"/>
        <path d="M533.21,366.48c0-3.26,2.14-5.15,4.54-5.15s4.54,1.89,4.54,5.15-2.14,5.11-4.54,5.11-4.54-1.87-4.54-5.11Zm7.38,0c0-2.25-1.15-3.78-2.84-3.78s-2.83,1.53-2.83,3.78,1.13,3.75,2.83,3.75,2.84-1.49,2.84-3.75Z"/>
        <path d="M544.74,367.78v-6.19h1.64v6c0,1.82,.54,2.59,1.84,2.59,1.01,0,1.71-.49,2.65-1.66v-6.93h1.64v9.78h-1.37l-.13-1.53h-.05c-.92,1.06-1.89,1.76-3.24,1.76-2.05,0-2.97-1.33-2.97-3.82Z"/>
        <path d="M555.79,361.58h1.35l.14,1.4h.05c.94-.92,1.94-1.66,3.28-1.66,2.05,0,2.99,1.33,2.99,3.83v6.19h-1.64v-5.98c0-1.84-.56-2.61-1.85-2.61-1.01,0-1.69,.5-2.68,1.49v7.09h-1.64v-9.78Z"/>
        <path d="M567.07,368.34v-5.42h-1.46v-1.24l1.53-.09,.2-2.74h1.37v2.74h2.65v1.33h-2.65v5.46c0,1.21,.38,1.89,1.51,1.89,.34,0,.79-.13,1.12-.25l.32,1.22c-.56,.18-1.21,.36-1.8,.36-2.09,0-2.79-1.3-2.79-3.26Z"/>
        <path d="M573.27,358.5c0-.67,.49-1.06,1.13-1.06s1.13,.4,1.13,1.06c0,.61-.49,1.06-1.13,1.06s-1.13-.45-1.13-1.06Zm.31,3.08h1.64v9.78h-1.64v-9.78Z"/>
        <path d="M578.52,361.58h1.35l.14,1.4h.05c.94-.92,1.94-1.66,3.28-1.66,2.05,0,2.99,1.33,2.99,3.83v6.19h-1.64v-5.98c0-1.84-.56-2.61-1.85-2.61-1.01,0-1.69,.5-2.68,1.49v7.09h-1.64v-9.78Z"/>
        <path d="M588.76,373.23c0-.83,.54-1.62,1.46-2.21v-.07c-.52-.31-.9-.83-.9-1.6s.59-1.46,1.1-1.82v-.07c-.65-.52-1.28-1.46-1.28-2.63,0-2.14,1.69-3.49,3.67-3.49,.54,0,1.03,.13,1.37,.25h3.4v1.26h-2c.47,.45,.79,1.17,.79,2.02,0,2.09-1.58,3.4-3.57,3.4-.49,0-1.03-.13-1.46-.34-.36,.31-.63,.63-.63,1.17,0,.63,.4,1.06,1.71,1.06h1.91c2.27,0,3.4,.72,3.4,2.32,0,1.82-1.91,3.39-4.93,3.39-2.39,0-4.05-.94-4.05-2.63Zm7.4-.5c0-.9-.7-1.21-2-1.21h-1.69c-.36,0-.83-.05-1.26-.16-.7,.5-1.01,1.08-1.01,1.66,0,1.04,1.06,1.73,2.84,1.73,1.87,0,3.12-.99,3.12-2.02Zm-1.28-7.9c0-1.42-.92-2.29-2.07-2.29s-2.09,.85-2.09,2.29,.95,2.32,2.09,2.32,2.07-.9,2.07-2.32Z"/>
        <path d="M603.07,368.82c0-2.12,1.85-3.19,6.01-3.66,0-1.26-.41-2.47-2.02-2.47-1.13,0-2.16,.52-2.94,1.04l-.65-1.13c.9-.58,2.29-1.28,3.85-1.28,2.38,0,3.38,1.6,3.38,4.02v6.01h-1.35l-.14-1.17h-.05c-.94,.77-2.04,1.4-3.24,1.4-1.64,0-2.86-1.01-2.86-2.77Zm6.01,.16v-2.74c-3.29,.4-4.41,1.21-4.41,2.47,0,1.12,.76,1.57,1.73,1.57s1.73-.45,2.68-1.3Z"/>
        <path d="M613.84,361.58h1.35l.14,1.4h.05c.94-.92,1.94-1.66,3.28-1.66,2.05,0,2.99,1.33,2.99,3.83v6.19h-1.64v-5.98c0-1.84-.56-2.61-1.85-2.61-1.01,0-1.69,.5-2.68,1.49v7.09h-1.64v-9.78Z"/>
        <path d="M624.13,366.48c0-3.17,2-5.15,4.23-5.15,1.15,0,1.89,.43,2.75,1.15l-.09-1.69v-3.76h1.64v14.33h-1.33l-.16-1.15h-.04c-.77,.76-1.8,1.39-2.97,1.39-2.45,0-4.03-1.85-4.03-5.11Zm6.9,2.39v-5.13c-.83-.74-1.57-1.03-2.38-1.03-1.58,0-2.83,1.51-2.83,3.75,0,2.36,.97,3.76,2.7,3.76,.9,0,1.69-.45,2.5-1.35Z"/>
        <path d="M639.22,369.63l.99-1.13c.95,.99,2.29,1.64,3.65,1.64,1.73,0,2.77-.86,2.77-2.16s-.95-1.78-2.2-2.34l-1.91-.83c-1.22-.52-2.68-1.46-2.68-3.39,0-2.03,1.76-3.51,4.16-3.51,1.57,0,2.95,.67,3.89,1.64l-.88,1.06c-.81-.76-1.78-1.24-3.01-1.24-1.49,0-2.47,.76-2.47,1.94,0,1.28,1.15,1.76,2.18,2.2l1.89,.81c1.53,.67,2.72,1.57,2.72,3.53,0,2.09-1.73,3.75-4.48,3.75-1.87,0-3.47-.76-4.63-1.96Z"/>
        <path d="M650.57,368.34v-5.42h-1.46v-1.24l1.53-.09,.2-2.74h1.37v2.74h2.65v1.33h-2.65v5.46c0,1.21,.38,1.89,1.51,1.89,.34,0,.79-.13,1.12-.25l.32,1.22c-.56,.18-1.21,.36-1.8,.36-2.09,0-2.79-1.3-2.79-3.26Z"/>
        <path d="M656.03,368.82c0-2.12,1.85-3.19,6.01-3.66,0-1.26-.42-2.47-2.02-2.47-1.13,0-2.16,.52-2.93,1.04l-.65-1.13c.9-.58,2.29-1.28,3.85-1.28,2.38,0,3.38,1.6,3.38,4.02v6.01h-1.35l-.14-1.17h-.05c-.94,.77-2.04,1.4-3.24,1.4-1.64,0-2.86-1.01-2.86-2.77Zm6.01,.16v-2.74c-3.3,.4-4.41,1.21-4.41,2.47,0,1.12,.76,1.57,1.73,1.57s1.73-.45,2.68-1.3Z"/>
        <path d="M666.81,368.34v-5.42h-1.46v-1.24l1.53-.09,.2-2.74h1.37v2.74h2.65v1.33h-2.65v5.46c0,1.21,.38,1.89,1.51,1.89,.34,0,.79-.13,1.12-.25l.32,1.22c-.56,.18-1.21,.36-1.8,.36-2.09,0-2.79-1.3-2.79-3.26Z"/>
        <path d="M673,358.5c0-.67,.49-1.06,1.13-1.06s1.13,.4,1.13,1.06c0,.61-.49,1.06-1.13,1.06s-1.13-.45-1.13-1.06Zm.31,3.08h1.64v9.78h-1.64v-9.78Z"/>
        <path d="M677.16,370.24l.81-1.08c.85,.68,1.73,1.15,2.9,1.15,1.3,0,1.93-.68,1.93-1.53,0-.99-1.15-1.44-2.23-1.85-1.37-.5-2.92-1.17-2.92-2.83,0-1.55,1.24-2.77,3.37-2.77,1.21,0,2.27,.5,3.04,1.1l-.79,1.06c-.68-.5-1.37-.86-2.25-.86-1.22,0-1.78,.65-1.78,1.4,0,.94,1.06,1.28,2.16,1.69,1.42,.54,2.99,1.12,2.99,2.97,0,1.58-1.26,2.9-3.57,2.9-1.39,0-2.72-.58-3.65-1.35Z"/>
        <path d="M686.57,368.34v-5.42h-1.46v-1.24l1.53-.09,.2-2.74h1.37v2.74h2.65v1.33h-2.65v5.46c0,1.21,.38,1.89,1.51,1.89,.34,0,.79-.13,1.12-.25l.32,1.22c-.56,.18-1.21,.36-1.8,.36-2.09,0-2.79-1.3-2.79-3.26Z"/>
        <path d="M692.77,358.5c0-.67,.49-1.06,1.13-1.06s1.13,.4,1.13,1.06c0,.61-.49,1.06-1.13,1.06s-1.13-.45-1.13-1.06Zm.31,3.08h1.64v9.78h-1.64v-9.78Z"/>
        <path d="M697.28,366.48c0-3.26,2.21-5.15,4.72-5.15,1.28,0,2.16,.54,2.86,1.15l-.85,1.1c-.58-.52-1.17-.88-1.96-.88-1.76,0-3.06,1.53-3.06,3.78s1.22,3.75,3.02,3.75c.9,0,1.69-.41,2.3-.97l.7,1.1c-.86,.79-1.98,1.24-3.15,1.24-2.59,0-4.59-1.87-4.59-5.11Z"/>
        <path d="M706.09,370.24l.81-1.08c.85,.68,1.73,1.15,2.9,1.15,1.3,0,1.93-.68,1.93-1.53,0-.99-1.15-1.44-2.23-1.85-1.37-.5-2.92-1.17-2.92-2.83,0-1.55,1.24-2.77,3.37-2.77,1.21,0,2.27,.5,3.04,1.1l-.79,1.06c-.68-.5-1.37-.86-2.25-.86-1.22,0-1.78,.65-1.78,1.4,0,.94,1.06,1.28,2.16,1.69,1.42,.54,2.99,1.12,2.99,2.97,0,1.58-1.26,2.9-3.57,2.9-1.39,0-2.72-.58-3.65-1.35Z"/>
        <path d="M719.03,364.72c0-4.23,2.32-6.81,5.64-6.81s5.64,2.58,5.64,6.81-2.32,6.88-5.64,6.88-5.64-2.65-5.64-6.88Zm9.56,0c0-3.31-1.57-5.35-3.93-5.35s-3.92,2.03-3.92,5.35,1.55,5.42,3.92,5.42,3.93-2.12,3.93-5.42Z"/>
        <path d="M738.99,360.02c0-1.98,.9-3.22,2.86-3.22,.58,0,1.17,.13,1.62,.32l-.36,1.24c-.36-.16-.76-.25-1.1-.25-.94,0-1.39,.67-1.39,1.93v1.55h2.07v1.33h-2.07v8.44h-1.64v-8.44h-4.09v8.44h-1.64v-8.44h-1.33v-1.24l1.33-.09v-1.31c0-2.02,1.01-3.28,3.02-3.28,.65,0,1.3,.13,1.8,.34l-.34,1.26c-.43-.2-.83-.29-1.31-.29-.97,0-1.53,.72-1.53,2.02v1.26h4.09v-1.57Zm7.56-1.51c0,.61-.5,1.06-1.15,1.06s-1.13-.45-1.13-1.06c0-.67,.5-1.06,1.13-1.06s1.15,.4,1.15,1.06Zm-1.96,3.08h1.64v9.78h-1.64v-9.78Z"/>
        <path d="M748.78,366.48c0-3.26,2.21-5.15,4.72-5.15,1.28,0,2.16,.54,2.86,1.15l-.85,1.1c-.58-.52-1.17-.88-1.96-.88-1.76,0-3.06,1.53-3.06,3.78s1.22,3.75,3.02,3.75c.9,0,1.69-.41,2.3-.97l.7,1.1c-.86,.79-1.98,1.24-3.15,1.24-2.59,0-4.59-1.87-4.59-5.11Z"/>
        <path d="M757.51,366.48c0-3.17,2.14-5.15,4.41-5.15,2.49,0,3.89,1.8,3.89,4.59,0,.36-.04,.7-.07,.94h-6.59c.11,2.09,1.39,3.42,3.24,3.42,.95,0,1.73-.29,2.45-.77l.59,1.08c-.86,.56-1.91,1.01-3.24,1.01-2.59,0-4.68-1.89-4.68-5.11Zm6.86-.79c0-1.98-.9-3.04-2.43-3.04-1.39,0-2.61,1.12-2.81,3.04h5.24Z"/>
        <path class="cls-6" d="M484.87,388.45l10.64,6.75v.07l-10.64,6.75h-.03v-13.56h.03Z"/>
        <path d="M504.95,394.77c0-4.27,2.5-6.86,5.85-6.86,1.6,0,2.86,.79,3.62,1.64l-.9,1.08c-.68-.74-1.57-1.26-2.7-1.26-2.5,0-4.16,2.05-4.16,5.35s1.58,5.42,4.11,5.42c1.26,0,2.21-.56,3.06-1.48l.92,1.04c-1.04,1.21-2.34,1.89-4.05,1.89-3.28,0-5.74-2.54-5.74-6.82Z"/>
        <path d="M516.74,388.5c0-.67,.49-1.06,1.13-1.06s1.13,.4,1.13,1.06c0,.61-.49,1.06-1.13,1.06s-1.13-.45-1.13-1.06Zm.31,3.08h1.64v9.78h-1.64v-9.78Z"/>
        <path d="M520.58,391.58h1.71l1.84,5.56c.31,.95,.61,1.96,.92,2.88h.07c.29-.92,.61-1.93,.9-2.88l1.85-5.56h1.62l-3.47,9.78h-1.91l-3.53-9.78Z"/>
        <path d="M531.07,388.5c0-.67,.49-1.06,1.13-1.06s1.13,.4,1.13,1.06c0,.61-.49,1.06-1.13,1.06s-1.13-.45-1.13-1.06Zm.31,3.08h1.64v9.78h-1.64v-9.78Z"/>
        <path d="M536.33,399.42v-12.39h1.64v12.5c0,.5,.22,.7,.47,.7,.09,0,.16,0,.34-.04l.23,1.26c-.23,.09-.52,.14-.95,.14-1.22,0-1.73-.79-1.73-2.18Z"/>
        <path d="M544.68,399.63l.99-1.13c.95,.99,2.29,1.64,3.65,1.64,1.73,0,2.77-.86,2.77-2.16s-.95-1.78-2.2-2.34l-1.91-.83c-1.22-.52-2.68-1.46-2.68-3.39,0-2.03,1.76-3.51,4.16-3.51,1.57,0,2.95,.67,3.89,1.64l-.88,1.06c-.81-.76-1.78-1.24-3.01-1.24-1.49,0-2.47,.76-2.47,1.94,0,1.28,1.15,1.76,2.18,2.2l1.89,.81c1.53,.67,2.72,1.57,2.72,3.53,0,2.09-1.73,3.75-4.48,3.75-1.87,0-3.47-.76-4.63-1.96Z"/>
        <path d="M555.5,396.48c0-3.17,2.14-5.15,4.41-5.15,2.48,0,3.89,1.8,3.89,4.59,0,.36-.04,.7-.07,.94h-6.59c.11,2.09,1.39,3.42,3.24,3.42,.95,0,1.73-.29,2.45-.77l.59,1.08c-.86,.56-1.91,1.01-3.24,1.01-2.59,0-4.68-1.89-4.68-5.11Zm6.86-.79c0-1.98-.9-3.04-2.43-3.04-1.39,0-2.61,1.12-2.81,3.04h5.24Z"/>
        <path d="M566.21,391.58h1.35l.14,1.78h.05c.68-1.24,1.67-2.03,2.77-2.03,.43,0,.74,.05,1.04,.22l-.31,1.44c-.32-.13-.56-.16-.95-.16-.81,0-1.82,.58-2.47,2.25v6.28h-1.64v-9.78Z"/>
        <path d="M572.29,391.58h1.71l1.84,5.56c.31,.95,.61,1.96,.92,2.88h.07c.29-.92,.61-1.93,.9-2.88l1.85-5.56h1.62l-3.47,9.78h-1.91l-3.53-9.78Z"/>
        <path d="M582.79,388.5c0-.67,.49-1.06,1.13-1.06s1.13,.4,1.13,1.06c0,.61-.49,1.06-1.13,1.06s-1.13-.45-1.13-1.06Zm.31,3.08h1.64v9.78h-1.64v-9.78Z"/>
        <path d="M587.3,396.48c0-3.26,2.21-5.15,4.72-5.15,1.28,0,2.16,.54,2.86,1.15l-.85,1.1c-.58-.52-1.17-.88-1.96-.88-1.76,0-3.06,1.53-3.06,3.78s1.22,3.75,3.02,3.75c.9,0,1.69-.41,2.3-.97l.7,1.1c-.86,.79-1.98,1.24-3.15,1.24-2.59,0-4.59-1.87-4.59-5.11Z"/>
        <path d="M596.03,396.48c0-3.17,2.14-5.15,4.41-5.15,2.48,0,3.89,1.8,3.89,4.59,0,.36-.04,.7-.07,.94h-6.59c.11,2.09,1.39,3.42,3.24,3.42,.95,0,1.73-.29,2.45-.77l.59,1.08c-.86,.56-1.91,1.01-3.24,1.01-2.59,0-4.68-1.89-4.68-5.11Zm6.86-.79c0-1.98-.9-3.04-2.43-3.04-1.39,0-2.61,1.12-2.81,3.04h5.24Z"/>
        <path d="M610.92,388.16h7.62v1.4h-5.94v4.14h5.01v1.42h-5.01v4.81h6.14v1.42h-7.81v-13.2Z"/>
        <path d="M621.16,398.34v-5.42h-1.46v-1.24l1.53-.09,.2-2.74h1.37v2.74h2.65v1.33h-2.65v5.46c0,1.21,.38,1.89,1.51,1.89,.34,0,.79-.13,1.12-.25l.32,1.22c-.56,.18-1.21,.36-1.8,.36-2.09,0-2.79-1.3-2.79-3.26Z"/>
        <path d="M627.66,387.03h1.64v3.92l-.05,2.02c.9-.9,1.91-1.64,3.24-1.64,2.05,0,2.99,1.33,2.99,3.83v6.19h-1.64v-5.98c0-1.84-.56-2.61-1.85-2.61-1.01,0-1.69,.5-2.68,1.49v7.09h-1.64v-14.33Z"/>
        <path d="M638.28,388.5c0-.67,.49-1.06,1.13-1.06s1.13,.4,1.13,1.06c0,.61-.49,1.06-1.13,1.06s-1.13-.45-1.13-1.06Zm.31,3.08h1.64v9.78h-1.64v-9.78Z"/>
        <path d="M642.8,396.48c0-3.26,2.21-5.15,4.72-5.15,1.28,0,2.16,.54,2.86,1.15l-.85,1.1c-.58-.52-1.17-.88-1.96-.88-1.76,0-3.06,1.53-3.06,3.78s1.22,3.75,3.02,3.75c.9,0,1.69-.41,2.3-.97l.7,1.1c-.86,.79-1.98,1.24-3.15,1.24-2.59,0-4.59-1.87-4.59-5.11Z"/>
        <path d="M651.6,400.24l.81-1.08c.85,.68,1.73,1.15,2.9,1.15,1.3,0,1.93-.68,1.93-1.53,0-.99-1.15-1.44-2.23-1.85-1.37-.5-2.92-1.17-2.92-2.83,0-1.55,1.24-2.77,3.37-2.77,1.21,0,2.27,.5,3.04,1.1l-.79,1.06c-.68-.5-1.37-.86-2.25-.86-1.22,0-1.78,.65-1.78,1.4,0,.94,1.06,1.28,2.16,1.69,1.42,.54,2.99,1.12,2.99,2.97,0,1.58-1.26,2.9-3.57,2.9-1.39,0-2.72-.58-3.65-1.35Z"/>
        <path d="M664.54,394.72c0-4.23,2.32-6.81,5.64-6.81s5.64,2.58,5.64,6.81-2.32,6.88-5.64,6.88-5.64-2.65-5.64-6.88Zm9.56,0c0-3.31-1.57-5.35-3.93-5.35s-3.92,2.03-3.92,5.35,1.55,5.42,3.92,5.42,3.93-2.12,3.93-5.42Z"/>
        <path d="M684.5,390.02c0-1.98,.9-3.22,2.86-3.22,.58,0,1.17,.13,1.62,.32l-.36,1.24c-.36-.16-.76-.25-1.1-.25-.94,0-1.39,.67-1.39,1.93v1.55h2.07v1.33h-2.07v8.44h-1.64v-8.44h-4.09v8.44h-1.64v-8.44h-1.33v-1.24l1.33-.09v-1.31c0-2.02,1.01-3.28,3.02-3.28,.65,0,1.3,.13,1.8,.34l-.34,1.26c-.43-.2-.83-.29-1.31-.29-.97,0-1.53,.72-1.53,2.02v1.26h4.09v-1.57Zm7.56-1.51c0,.61-.5,1.06-1.15,1.06s-1.13-.45-1.13-1.06c0-.67,.5-1.06,1.13-1.06s1.15,.4,1.15,1.06Zm-1.96,3.08h1.64v9.78h-1.64v-9.78Z"/>
        <path d="M694.29,396.48c0-3.26,2.21-5.15,4.72-5.15,1.28,0,2.16,.54,2.86,1.15l-.85,1.1c-.58-.52-1.17-.88-1.96-.88-1.76,0-3.06,1.53-3.06,3.78s1.22,3.75,3.02,3.75c.9,0,1.69-.41,2.3-.97l.7,1.1c-.86,.79-1.98,1.24-3.15,1.24-2.59,0-4.59-1.87-4.59-5.11Z"/>
        <path d="M703.02,396.48c0-3.17,2.14-5.15,4.41-5.15,2.49,0,3.89,1.8,3.89,4.59,0,.36-.04,.7-.07,.94h-6.59c.11,2.09,1.39,3.42,3.24,3.42,.95,0,1.73-.29,2.45-.77l.59,1.08c-.86,.56-1.91,1.01-3.24,1.01-2.59,0-4.68-1.89-4.68-5.11Zm6.86-.79c0-1.98-.9-3.04-2.43-3.04-1.39,0-2.61,1.12-2.81,3.04h5.24Z"/>
      </g>
      <g>
        <rect class="cls-3" x="635.1" y="86.4" width="31.66" height="370" rx="5" ry="5" transform="translate(922.32 -379.53) rotate(90)"/>
        <g>
          <path class="cls-1" d="M580.32,275.76l.99-1.13c.95,.99,2.29,1.64,3.65,1.64,1.73,0,2.77-.86,2.77-2.16s-.95-1.78-2.2-2.34l-1.91-.83c-1.22-.52-2.68-1.46-2.68-3.39,0-2.03,1.76-3.51,4.16-3.51,1.57,0,2.95,.67,3.89,1.64l-.88,1.06c-.81-.76-1.78-1.24-3.01-1.24-1.49,0-2.47,.76-2.47,1.94,0,1.28,1.15,1.76,2.18,2.2l1.89,.81c1.53,.67,2.72,1.57,2.72,3.53,0,2.09-1.73,3.75-4.48,3.75-1.87,0-3.47-.76-4.63-1.96Z"/>
          <path class="cls-1" d="M591.75,273.91v-6.19h1.64v6c0,1.82,.54,2.59,1.84,2.59,1.01,0,1.71-.49,2.65-1.66v-6.93h1.64v9.78h-1.37l-.13-1.53h-.05c-.92,1.06-1.89,1.76-3.24,1.76-2.05,0-2.97-1.33-2.97-3.82Z"/>
          <path class="cls-1" d="M602.8,267.71h1.35l.14,1.12h.05c.88-.72,1.98-1.37,3.12-1.37,2.52,0,3.89,1.98,3.89,4.99,0,3.35-2,5.28-4.25,5.28-.88,0-1.82-.41-2.7-1.13l.04,1.71v3.31h-1.64v-13.9Zm6.84,4.75c0-2.16-.72-3.62-2.57-3.62-.83,0-1.67,.47-2.63,1.35v5.13c.88,.76,1.75,1.03,2.39,1.03,1.62,0,2.81-1.46,2.81-3.89Z"/>
          <path class="cls-1" d="M613.96,267.71h1.35l.14,1.12h.05c.88-.72,1.98-1.37,3.12-1.37,2.52,0,3.89,1.98,3.89,4.99,0,3.35-2,5.28-4.25,5.28-.88,0-1.82-.41-2.7-1.13l.04,1.71v3.31h-1.64v-13.9Zm6.84,4.75c0-2.16-.72-3.62-2.57-3.62-.83,0-1.67,.47-2.63,1.35v5.13c.88,.76,1.75,1.03,2.39,1.03,1.62,0,2.81-1.46,2.81-3.89Z"/>
          <path class="cls-1" d="M624.38,272.61c0-3.26,2.14-5.15,4.54-5.15s4.54,1.89,4.54,5.15-2.14,5.11-4.54,5.11-4.54-1.87-4.54-5.11Zm7.38,0c0-2.25-1.15-3.78-2.84-3.78s-2.83,1.53-2.83,3.78,1.13,3.75,2.83,3.75,2.84-1.49,2.84-3.75Z"/>
          <path class="cls-1" d="M636.03,267.71h1.35l.14,1.78h.05c.68-1.24,1.67-2.03,2.77-2.03,.43,0,.74,.05,1.04,.22l-.31,1.44c-.32-.13-.56-.16-.95-.16-.81,0-1.82,.58-2.47,2.25v6.28h-1.64v-9.78Z"/>
          <path class="cls-1" d="M643.3,274.46v-5.42h-1.46v-1.24l1.53-.09,.2-2.74h1.37v2.74h2.65v1.33h-2.65v5.46c0,1.21,.38,1.89,1.51,1.89,.34,0,.79-.13,1.12-.25l.32,1.22c-.56,.18-1.21,.36-1.8,.36-2.09,0-2.79-1.3-2.79-3.26Z"/>
          <path class="cls-1" d="M649.49,264.63c0-.67,.49-1.06,1.13-1.06s1.13,.4,1.13,1.06c0,.61-.49,1.06-1.13,1.06s-1.13-.45-1.13-1.06Zm.31,3.08h1.64v9.78h-1.64v-9.78Z"/>
          <path class="cls-1" d="M654.75,267.71h1.35l.14,1.4h.05c.94-.92,1.94-1.66,3.28-1.66,2.05,0,2.99,1.33,2.99,3.83v6.19h-1.64v-5.98c0-1.84-.56-2.61-1.85-2.61-1.01,0-1.69,.5-2.68,1.49v7.09h-1.64v-9.78Z"/>
          <path class="cls-1" d="M664.99,279.36c0-.83,.54-1.62,1.46-2.21v-.07c-.52-.31-.9-.83-.9-1.6s.59-1.46,1.1-1.82v-.07c-.65-.52-1.28-1.46-1.28-2.63,0-2.14,1.69-3.49,3.67-3.49,.54,0,1.03,.13,1.37,.25h3.4v1.26h-2c.47,.45,.79,1.17,.79,2.02,0,2.09-1.58,3.4-3.57,3.4-.49,0-1.03-.13-1.46-.34-.36,.31-.63,.63-.63,1.17,0,.63,.4,1.06,1.71,1.06h1.91c2.27,0,3.4,.72,3.4,2.32,0,1.82-1.91,3.39-4.93,3.39-2.39,0-4.05-.94-4.05-2.63Zm7.4-.5c0-.9-.7-1.21-2-1.21h-1.69c-.36,0-.83-.05-1.26-.16-.7,.5-1.01,1.08-1.01,1.66,0,1.04,1.06,1.73,2.84,1.73,1.87,0,3.12-.99,3.12-2.02Zm-1.28-7.9c0-1.42-.92-2.29-2.07-2.29s-2.09,.85-2.09,2.29,.95,2.32,2.09,2.32,2.07-.9,2.07-2.32Z"/>
          <path class="cls-1" d="M680,272.03v-7.74h1.67v7.8c0,3.19,1.35,4.18,3.06,4.18s3.15-.99,3.15-4.18v-7.8h1.6v7.74c0,4.25-2.05,5.69-4.75,5.69s-4.74-1.44-4.74-5.69Z"/>
          <path class="cls-1" d="M692.89,267.71h1.35l.14,1.4h.05c.94-.92,1.94-1.66,3.28-1.66,2.05,0,2.99,1.33,2.99,3.83v6.19h-1.64v-5.98c0-1.84-.56-2.61-1.85-2.61-1.01,0-1.69,.5-2.68,1.49v7.09h-1.64v-9.78Z"/>
          <path class="cls-1" d="M703.58,264.63c0-.67,.49-1.06,1.13-1.06s1.13,.4,1.13,1.06c0,.61-.49,1.06-1.13,1.06s-1.13-.45-1.13-1.06Zm.31,3.08h1.64v9.78h-1.64v-9.78Z"/>
          <path class="cls-1" d="M709.12,274.46v-5.42h-1.46v-1.24l1.53-.09,.2-2.74h1.37v2.74h2.65v1.33h-2.65v5.46c0,1.21,.38,1.89,1.51,1.89,.34,0,.79-.13,1.12-.25l.32,1.22c-.56,.18-1.21,.36-1.8,.36-2.09,0-2.79-1.3-2.79-3.26Z"/>
          <path class="cls-1" d="M714.33,276.37l.81-1.08c.85,.68,1.73,1.15,2.9,1.15,1.3,0,1.93-.68,1.93-1.53,0-.99-1.15-1.44-2.23-1.85-1.37-.5-2.92-1.17-2.92-2.83,0-1.55,1.24-2.77,3.37-2.77,1.21,0,2.27,.5,3.04,1.1l-.79,1.06c-.68-.5-1.37-.86-2.25-.86-1.22,0-1.78,.65-1.78,1.4,0,.94,1.06,1.28,2.16,1.69,1.42,.54,2.99,1.12,2.99,2.97,0,1.58-1.26,2.9-3.57,2.9-1.39,0-2.72-.58-3.65-1.35Z"/>
        </g>
      </g>
    </g>
    <path class="cls-4" d="M209.95,252.8v-23.09c.12-3.85,3.8-6.92,8.3-6.92h423.81c4.59,0,8.3,3.18,8.3,7.11v22.9"/>
  </g>
</svg>