<?xml version="1.0" encoding="utf-8"?>
<!-- Generator: Adobe Illustrator 24.2.1, SVG Export Plug-In . SVG Version: 6.00 Build 0)  -->
<svg version="1.1" id="圖層_1" xmlns="http://www.w3.org/2000/svg" xmlns:xlink="http://www.w3.org/1999/xlink" x="0px" y="0px"
	 width="350px" height="44px" viewBox="0 0 350 44" style="enable-background:new 0 0 350 44;" xml:space="preserve">
<style type="text/css">
	.st0{fill:#FFFFFF;}
	.st1{fill:#B3C33E;}
</style>
<g>
	<g id="adi_logo-H-standard-CN_x2B_EN_00000183962039108881943100000006807204208643580296_">
		<g>
			<path class="st0" d="M8.2,20.7c0-6.8,5.5-12.3,12.3-12.3h4.7V0.1c-3.8,0-4.8-0.3-8.7,0.5h-0.1C7.1,2.5,0,10.7,0,20.7
				C0,32,9.2,41.3,20.6,41.3h20.8V0.1h-8v33L20.5,33C13.7,33,8.2,27.5,8.2,20.7z"/>
			<path class="st1" d="M16.1,20.9c0,2.6,2,4.4,4.6,4.4h4.6v-9.2h-4.4C18.2,16.1,16.1,18.3,16.1,20.9z"/>
			<rect x="45.8" y="15" class="st0" width="9.2" height="26.4"/>
			<polygon class="st1" points="45.9,0 53.9,0 53.9,2.4 48.2,2.4 48.2,6.9 53.9,6.9 53.9,9.2 45.9,9.2 			"/>
			<polygon class="st0" points="57.3,3.4 49.3,3.4 49.3,5.7 55.1,5.7 55.1,10.3 49.3,10.3 49.3,12.6 57.3,12.6 			"/>
		</g>
	</g>
	<g>
		<path class="st0" d="M66.7,10.1V8.9h1.5v1.2h3.6v2.5h1V14h-1v2.5h-3.6v1.2H72v3.7h-4.2c-0.2,0.4-0.5,0.9-0.7,1.2h5v1
			c-0.7,1.1-1.6,2.1-2.8,2.9c1.1,0.4,2.2,1,3.4,1.6l-0.9,1.1c-1.3-0.7-2.6-1.4-3.9-1.9c-1.5,0.8-3.2,1.5-5.2,2.1l-0.9-1.2
			c1.7-0.4,3.2-1,4.5-1.6c-0.9-0.4-1.9-0.7-2.8-0.9c0.4-0.7,0.9-1.3,1.3-2H62v-1.3h3.6c0.2-0.4,0.5-0.8,0.7-1.2h-3.5v-3.7h3.9v-1.2
			h-3.6V14h-1v-1.3h1v-2.5L66.7,10.1L66.7,10.1z M66.7,18.7h-2.5v1.4h2.5V18.7z M66.7,12.7v-1.5h-2.2v1.5H66.7z M66.7,13.8h-2.2v1.5
			h2.2V13.8z M70.4,23.8h-3.9c-0.3,0.5-0.6,1-0.9,1.4c0.7,0.2,1.5,0.4,2.3,0.8C68.9,25.2,69.7,24.5,70.4,23.8z M70.3,12.7v-1.5h-2.2
			v1.5H70.3z M70.3,13.8h-2.2v1.5h2.2V13.8z M70.7,18.7h-2.5v1.4h2.5V18.7z M74.4,17.6c-0.4,0.7-0.7,1.4-1.1,2l-1-1.3
			c1.3-2.4,2.2-5.6,2.7-9.7L76.6,9c-0.2,1.2-0.3,2.3-0.5,3.3H82v1.5h-1.5c-0.1,4-0.9,7.4-2.3,10.2c1.1,1.6,2.5,3,4.2,4.2l-1,1.3
			c-1.7-1.1-3-2.4-4.1-4c-1,1.5-2.3,2.9-3.7,3.9L72.7,28c1.5-1.1,2.8-2.4,3.7-4C75.4,22.2,74.7,20,74.4,17.6z M74.5,17.5l1.3-0.4
			c0.2,2,0.7,3.7,1.5,5.3c1.1-2.4,1.6-5.2,1.7-8.6h-3.3C75.4,15.2,75,16.4,74.5,17.5z"/>
		<path class="st0" d="M90.8,9.5c-0.6,1.7-1.3,3.4-2.2,4.9v15.1H87V16.8c-0.7,1-1.5,1.9-2.4,2.9L84.1,18c2.4-2.7,4.1-5.8,5.2-9.2
			L90.8,9.5z M98,26.8c1.1-3,2.1-6.8,3-11.3l1.5,0.4c-0.8,4.1-1.7,7.7-2.9,10.9h5.1v1.6H90.3v-1.6H98z M96.7,12.5
			c-0.3-1.2-0.7-2.3-1.1-3.3l1.7-0.3c0.4,1,0.7,2.2,1,3.6h5.8V14H90.7v-1.5H96.7z M95.8,25.7l-1.5,0.4c-0.6-3.4-1.4-6.7-2.3-9.9
			l1.5-0.4C94.3,18.6,95.1,21.9,95.8,25.7z"/>
		<path class="st0" d="M111.8,13.6c1.1-0.7,2-1.6,2.7-2.5h-6.2V9.8h8V11c-0.9,1.6-2.3,3-4.1,4.2h3.3v5.2h-5l-0.4,2.4h5.5
			c0,2.6-0.1,4.4-0.3,5.2c-0.3,0.9-1.3,1.4-3.1,1.4c-0.8,0-1.6,0-2.5-0.1l-0.4-1.4c0.8,0,1.7,0.1,2.5,0.1c1.2,0,1.8-0.2,2-0.7
			s0.2-1.5,0.2-3.1h-5.6l0.7-5.2h4.8v-2.4h-4.7c-0.6,0.2-1.2,0.4-1.8,0.6l-1-1.3c1.5-0.4,2.8-1,3.9-1.5c-0.7-0.6-1.5-1.2-2.5-1.8
			l1.2-0.8C110.2,12.5,111.1,13.1,111.8,13.6z M123.7,9.6c-0.5,0.6-1.1,1.1-1.6,1.5c-0.4,0.3-0.8,0.6-1.3,0.8c0.4,0.4,0.9,0.7,1.4,1
			c0.6-0.3,1.1-0.6,1.5-0.9c0.6-0.4,1.1-0.9,1.5-1.5l1.1,0.7c-0.6,0.7-1.1,1.3-1.7,1.7c-0.4,0.3-0.8,0.5-1.2,0.8
			c1.1,0.6,2.4,1.2,3.7,1.7l-1.1,1.3c-0.9-0.4-1.7-0.7-2.4-1.1v2.2c0,0.4,0.3,0.7,0.9,0.7h1.3v1.3h-1.7c-1.2,0-1.8-0.6-1.8-1.7v-1.6
			H119c0,0.8-0.1,1.5-0.4,2.1s-0.9,1.1-1.6,1.7l-1.1-1c0.7-0.6,1.2-1.1,1.5-1.6c0.2-0.5,0.3-1.3,0.3-2.5h5.2
			c-2.6-1.5-4.5-3.2-5.7-5.1l1.3-0.7c0.4,0.6,0.8,1.2,1.3,1.7c0.5-0.2,1-0.5,1.4-0.8c0.5-0.4,1-0.8,1.4-1.3L123.7,9.6z M124.8,21
			v1.4c-0.5,1.3-1.2,2.5-2.2,3.6c1.4,0.8,2.7,1.6,3.8,2.4l-1.1,1.1c-1.1-0.9-2.3-1.7-3.7-2.6c-1.3,1-2.8,1.9-4.6,2.5l-0.6-1.4
			c1.5-0.5,2.8-1.1,3.8-1.9c-1-0.6-2.1-1.2-3.2-1.7l1-0.9c1.2,0.6,2.3,1.2,3.3,1.7c0.8-0.8,1.5-1.7,1.9-2.7H117V21H124.8z"/>
		<path class="st0" d="M130.2,29.4l-1.2-1.1c1.5-2.9,2.2-6.7,2.2-11.3V9.8H148v5.3h-15.2v2.4h4.1v-1.8h1.6v1.8h4.5v-1.8h1.6v1.8h3.8
			v1.4h-3.8v2.3h4.5v1.5h-12.2v4.9c1.4-0.3,2.6-0.7,3.6-1.2l0.3,1.5c-1.6,0.5-3.6,1-5.8,1.5l-0.4-1.4c0.5-0.2,0.8-0.6,0.8-1.1v-4.2
			h-2.9C131.9,25.2,131.1,27.4,130.2,29.4z M132.5,21.2h4.4v-2.3h-4.1C132.7,19.7,132.6,20.5,132.5,21.2z M132.8,11.2v2.4h13.6v-2.4
			C146.4,11.2,132.8,11.2,132.8,11.2z M142.9,21.2v-2.3h-4.5v2.3H142.9z M147.9,23.9c-0.9,1.2-1.8,2.2-2.9,2.8
			c1.4,0.7,2.9,1.2,4.5,1.4l-0.4,1.5c-3.9-0.4-7-2.3-9.4-5.6l1.1-0.8c0.8,1.1,1.7,2,2.7,2.7c1.1-0.6,2.2-1.7,3.2-3.1L147.9,23.9z"/>
		<path class="st0" d="M156.4,11.1c-0.2-0.8-0.5-1.5-0.8-2.1l1.6-0.3c0.2,0.7,0.5,1.5,0.7,2.4h4.5v1.5h-1.1c-0.4,1.7-1,3.2-1.5,4.6
			h2.8v1.5h-11.1v-1.5h2.9c-0.4-1.6-0.8-3.2-1.3-4.6H152v-1.5H156.4z M161.6,29.4H160v-1.2h-5.6v1.2h-1.6V21h8.7v8.4H161.6z
			 M160.1,26.7v-4.1h-5.6v4.1H160.1z M159.9,12.7h-5.2c0.4,1.3,0.9,2.8,1.3,4.6h2.4C159,15.8,159.5,14.3,159.9,12.7z M171.3,9.8V11
			c-0.7,2.4-1.5,4.6-2.4,6.6c1.8,2.2,2.7,4,2.7,5.4c0,1.3-0.3,2.2-0.9,2.7c-0.6,0.5-1.9,0.8-3.8,0.8l-0.5-1.7
			c0.6,0.1,1.1,0.1,1.5,0.1c0.8,0,1.4-0.2,1.6-0.4c0.2-0.3,0.4-0.8,0.4-1.5c0-1.4-1-3.2-2.8-5.4c0.8-1.8,1.6-3.9,2.4-6.3h-4.1v18.1
			h-1.6V9.8H171.3z"/>
	</g>
	<g>
		<path class="st0" d="M66.1,39.4h-3.3l-0.6,1.7h-1l2.7-7.4H65l2.7,7.4h-1L66.1,39.4z M65.8,38.6l-1.4-3.8L63,38.6H65.8z"/>
		<path class="st0" d="M68.9,36.6c0.2-0.5,0.6-0.8,1-1.1s0.9-0.4,1.4-0.4s0.9,0.1,1.3,0.3s0.7,0.5,0.9,0.8v-3.1h1V41h-1v-1
			c-0.2,0.4-0.5,0.6-0.9,0.9c-0.4,0.2-0.8,0.3-1.3,0.3s-1-0.1-1.4-0.4c-0.4-0.3-0.8-0.6-1-1.1s-0.4-1-0.4-1.6
			C68.6,37.5,68.7,37,68.9,36.6z M73.3,37c-0.2-0.3-0.4-0.6-0.7-0.8c-0.3-0.2-0.6-0.3-1-0.3s-0.7,0.1-1,0.3s-0.5,0.4-0.7,0.8
			c-0.2,0.3-0.3,0.7-0.3,1.2s0.1,0.8,0.3,1.2c0.2,0.3,0.4,0.6,0.7,0.8c0.3,0.2,0.6,0.3,1,0.3s0.7-0.1,1-0.3s0.5-0.4,0.7-0.8
			c0.2-0.3,0.3-0.7,0.3-1.2C73.5,37.7,73.5,37.3,73.3,37z"/>
		<path class="st0" d="M84.5,35.4c0.4,0.2,0.6,0.5,0.8,0.9c0.2,0.4,0.3,0.8,0.3,1.4v3.5h-1v-3.3c0-0.6-0.1-1-0.4-1.3
			s-0.7-0.5-1.2-0.5s-0.9,0.2-1.2,0.5c-0.3,0.3-0.5,0.8-0.5,1.4v3.2h-1v-3.3c0-0.6-0.1-1-0.4-1.3s-0.7-0.5-1.2-0.5s-0.9,0.2-1.2,0.5
			C77.2,36.9,77,37.4,77,38v3.2h-1v-5.9h1v0.8c0.2-0.3,0.5-0.5,0.8-0.7s0.7-0.2,1.1-0.2c0.5,0,0.9,0.1,1.3,0.3s0.7,0.5,0.8,1
			c0.2-0.4,0.4-0.7,0.8-1c0.4-0.2,0.8-0.3,1.3-0.3C83.7,35.1,84.1,35.2,84.5,35.4z"/>
		<path class="st0" d="M87.3,34.1c-0.1-0.1-0.2-0.3-0.2-0.5s0.1-0.3,0.2-0.5c0.1-0.1,0.3-0.2,0.5-0.2s0.3,0.1,0.5,0.2
			c0.1,0.1,0.2,0.3,0.2,0.5s-0.1,0.3-0.2,0.5c-0.1,0.1-0.3,0.2-0.5,0.2C87.6,34.3,87.4,34.2,87.3,34.1z M88.2,35.2v5.9h-1v-5.9H88.2
			z"/>
		<path class="st0" d="M94.5,35.8c0.4,0.4,0.7,1.1,0.7,1.9v3.5h-1v-3.3c0-0.6-0.1-1-0.4-1.3C93.4,36.1,93,36,92.5,36
			s-0.9,0.2-1.2,0.5c-0.3,0.3-0.5,0.8-0.5,1.4v3.3h-1v-5.9h1v0.8c0.2-0.3,0.5-0.5,0.8-0.7s0.7-0.2,1.1-0.2
			C93.5,35.1,94,35.3,94.5,35.8z"/>
		<path class="st0" d="M96.8,34.1c-0.1-0.1-0.2-0.3-0.2-0.5s0.1-0.3,0.2-0.5c0.1-0.1,0.3-0.2,0.5-0.2s0.3,0.1,0.5,0.2
			c0.1,0.1,0.2,0.3,0.2,0.5s-0.1,0.3-0.2,0.5c-0.1,0.1-0.3,0.2-0.5,0.2C97.1,34.3,96.9,34.2,96.8,34.1z M97.7,35.2v5.9h-1v-5.9H97.7
			z"/>
		<path class="st0" d="M100.3,41c-0.4-0.2-0.6-0.4-0.8-0.6c-0.2-0.3-0.3-0.6-0.3-1h1c0,0.3,0.2,0.5,0.4,0.7c0.2,0.2,0.6,0.3,1,0.3
			s0.7-0.1,0.9-0.2c0.2-0.2,0.3-0.4,0.3-0.6c0-0.3-0.1-0.4-0.3-0.6c-0.2-0.1-0.6-0.2-1.1-0.4c-0.4-0.1-0.8-0.2-1.1-0.3
			c-0.3-0.1-0.5-0.3-0.7-0.5s-0.3-0.5-0.3-0.9c0-0.3,0.1-0.6,0.3-0.8c0.2-0.3,0.4-0.4,0.8-0.6c0.3-0.1,0.7-0.2,1.1-0.2
			c0.7,0,1.2,0.2,1.6,0.5s0.6,0.8,0.6,1.4h-1c0-0.3-0.1-0.6-0.4-0.7c-0.2-0.2-0.5-0.3-0.9-0.3s-0.6,0.1-0.8,0.2
			c-0.2,0.2-0.3,0.3-0.3,0.6c0,0.2,0.1,0.4,0.2,0.5s0.3,0.2,0.5,0.3s0.5,0.2,0.8,0.3c0.4,0.1,0.8,0.2,1,0.3c0.3,0.1,0.5,0.3,0.7,0.5
			s0.3,0.5,0.3,0.9c0,0.3-0.1,0.6-0.3,0.9c-0.2,0.3-0.4,0.5-0.8,0.6c-0.3,0.1-0.7,0.2-1.1,0.2C101,41.2,100.6,41.1,100.3,41z"/>
		<path class="st0" d="M106.2,36v3.5c0,0.3,0.1,0.5,0.2,0.6s0.3,0.2,0.6,0.2h0.7v0.8h-0.9c-0.5,0-1-0.1-1.2-0.4
			c-0.3-0.3-0.4-0.7-0.4-1.2V36h-0.8v-0.8h0.8v-1.5h1v1.5h1.5V36H106.2z"/>
		<path class="st0" d="M110.6,35.4c0.3-0.2,0.7-0.3,1.2-0.3v1h-0.3c-1.1,0-1.6,0.6-1.6,1.8v3.2h-1v-5.9h1v1
			C110,35.8,110.3,35.6,110.6,35.4z"/>
		<path class="st0" d="M112.9,36.6c0.2-0.5,0.6-0.8,1-1.1s0.9-0.4,1.4-0.4s1,0.1,1.3,0.3c0.4,0.2,0.7,0.5,0.8,0.8v-1.1h1V41h-1v-1
			c-0.2,0.3-0.5,0.6-0.9,0.9c-0.4,0.2-0.8,0.3-1.3,0.3s-1-0.1-1.4-0.4c-0.4-0.3-0.8-0.6-1-1.1s-0.4-1-0.4-1.6
			C112.5,37.5,112.7,37,112.9,36.6z M117.2,37c-0.2-0.3-0.4-0.6-0.7-0.8c-0.3-0.2-0.6-0.3-1-0.3s-0.7,0.1-1,0.3s-0.5,0.4-0.7,0.8
			c-0.2,0.3-0.3,0.7-0.3,1.2s0.1,0.8,0.3,1.2c0.2,0.3,0.4,0.6,0.7,0.8c0.3,0.2,0.6,0.3,1,0.3s0.7-0.1,1-0.3s0.5-0.4,0.7-0.8
			c0.2-0.3,0.3-0.7,0.3-1.2S117.4,37.3,117.2,37z"/>
		<path class="st0" d="M121.3,36v3.5c0,0.3,0.1,0.5,0.2,0.6s0.3,0.2,0.6,0.2h0.7v0.8H122c-0.5,0-1-0.1-1.2-0.4
			c-0.3-0.3-0.4-0.7-0.4-1.2V36h-0.8v-0.8h0.8v-1.5h1v1.5h1.5V36H121.3z"/>
		<path class="st0" d="M124.1,34.1c-0.1-0.1-0.2-0.3-0.2-0.5s0.1-0.3,0.2-0.5c0.1-0.1,0.3-0.2,0.5-0.2s0.3,0.1,0.5,0.2
			c0.1,0.1,0.2,0.3,0.2,0.5s-0.1,0.3-0.2,0.5c-0.1,0.1-0.3,0.2-0.5,0.2S124.2,34.2,124.1,34.1z M125,35.2v5.9h-1v-5.9H125z"/>
		<path class="st0" d="M127.8,40.8c-0.4-0.3-0.8-0.6-1.1-1.1c-0.3-0.5-0.4-1-0.4-1.6s0.1-1.1,0.4-1.6s0.6-0.8,1.1-1.1s1-0.4,1.5-0.4
			c0.6,0,1.1,0.1,1.5,0.4c0.5,0.2,0.8,0.6,1.1,1.1s0.4,1,0.4,1.6s-0.1,1.1-0.4,1.6c-0.3,0.5-0.6,0.8-1.1,1.1s-1,0.4-1.5,0.4
			C128.7,41.2,128.2,41.1,127.8,40.8z M130.2,40.1c0.3-0.2,0.6-0.4,0.7-0.7c0.2-0.3,0.3-0.7,0.3-1.2s-0.1-0.9-0.3-1.2
			s-0.4-0.6-0.7-0.7c-0.3-0.2-0.6-0.2-1-0.2s-0.7,0.1-1,0.2c-0.3,0.2-0.5,0.4-0.7,0.7s-0.3,0.7-0.3,1.2s0.1,0.9,0.3,1.2
			c0.2,0.3,0.4,0.6,0.7,0.7c0.3,0.2,0.6,0.2,1,0.2C129.6,40.3,129.9,40.3,130.2,40.1z"/>
		<path class="st0" d="M138.2,35.8c0.4,0.4,0.7,1.1,0.7,1.9v3.5h-1v-3.3c0-0.6-0.1-1-0.4-1.3c-0.3-0.3-0.7-0.5-1.2-0.5
			s-0.9,0.2-1.2,0.5s-0.5,0.8-0.5,1.4v3.3h-1v-5.9h1v0.8c0.2-0.3,0.5-0.5,0.8-0.7s0.7-0.2,1.1-0.2C137.1,35.1,137.7,35.3,138.2,35.8
			z"/>
		<path class="st0" d="M145.7,36h-1.2v5.1h-1V36h-0.8v-0.8h0.8v-0.4c0-0.7,0.2-1.1,0.5-1.4c0.3-0.3,0.9-0.5,1.6-0.5v0.8
			c-0.4,0-0.7,0.1-0.9,0.3s-0.3,0.4-0.3,0.8v0.4h1.2L145.7,36L145.7,36z"/>
		<path class="st0" d="M147.9,40.8c-0.4-0.3-0.8-0.6-1.1-1.1s-0.4-1-0.4-1.6s0.1-1.1,0.4-1.6c0.3-0.5,0.6-0.8,1.1-1.1s1-0.4,1.5-0.4
			c0.6,0,1.1,0.1,1.5,0.4c0.5,0.2,0.8,0.6,1.1,1.1s0.4,1,0.4,1.6s-0.1,1.1-0.4,1.6c-0.3,0.5-0.6,0.8-1.1,1.1s-1,0.4-1.5,0.4
			C148.8,41.2,148.3,41.1,147.9,40.8z M150.4,40.1c0.3-0.2,0.6-0.4,0.7-0.7c0.2-0.3,0.3-0.7,0.3-1.2s-0.1-0.9-0.3-1.2
			s-0.4-0.6-0.7-0.7c-0.3-0.2-0.6-0.2-1-0.2s-0.7,0.1-1,0.2s-0.5,0.4-0.7,0.7s-0.3,0.7-0.3,1.2s0.1,0.9,0.3,1.2s0.4,0.6,0.7,0.7
			c0.3,0.2,0.6,0.2,1,0.2C149.7,40.3,150.1,40.3,150.4,40.1z"/>
		<path class="st0" d="M155.4,35.4c0.3-0.2,0.7-0.3,1.2-0.3v1h-0.3c-1.1,0-1.6,0.6-1.6,1.8v3.2h-1v-5.9h1v1
			C154.8,35.8,155.1,35.6,155.4,35.4z"/>
		<path class="st0" d="M165,34.1c0.6,0.3,1.1,0.7,1.4,1.3c0.3,0.6,0.5,1.2,0.5,2s-0.2,1.4-0.5,2s-0.8,1-1.4,1.3
			c-0.6,0.3-1.3,0.4-2.1,0.4h-2.3v-7.5h2.3C163.7,33.6,164.4,33.8,165,34.1z M165.1,39.5c0.5-0.5,0.8-1.2,0.8-2.2
			c0-0.9-0.3-1.7-0.8-2.2s-1.2-0.8-2.2-0.8h-1.4v5.9h1.4C163.9,40.3,164.6,40,165.1,39.5z"/>
		<path class="st0" d="M168.2,34.1c-0.1-0.1-0.2-0.3-0.2-0.5s0.1-0.3,0.2-0.5c0.1-0.1,0.3-0.2,0.5-0.2s0.3,0.1,0.5,0.2
			c0.1,0.1,0.2,0.3,0.2,0.5s-0.1,0.3-0.2,0.5c-0.1,0.1-0.3,0.2-0.5,0.2S168.3,34.2,168.2,34.1z M169.1,35.2v5.9h-1v-5.9H169.1z"/>
		<path class="st0" d="M174.6,35.5c0.4,0.2,0.7,0.5,0.9,0.8v-1.1h1v6c0,0.5-0.1,1-0.3,1.4s-0.6,0.7-1,1c-0.4,0.2-0.9,0.4-1.5,0.4
			c-0.8,0-1.4-0.2-1.9-0.5c-0.5-0.4-0.8-0.9-0.9-1.5h1c0.1,0.4,0.3,0.6,0.7,0.9c0.3,0.2,0.7,0.3,1.2,0.3s1-0.2,1.3-0.5
			s0.5-0.8,0.5-1.4V40c-0.2,0.3-0.5,0.6-0.9,0.9c-0.4,0.2-0.8,0.3-1.3,0.3s-1-0.1-1.4-0.4c-0.4-0.3-0.8-0.6-1-1.1s-0.4-1-0.4-1.6
			s0.1-1.1,0.4-1.6c0.2-0.5,0.6-0.8,1-1.1s0.9-0.4,1.4-0.4C173.7,35.1,174.2,35.2,174.6,35.5z M175.1,37c-0.2-0.3-0.4-0.6-0.7-0.8
			s-0.6-0.3-1-0.3s-0.7,0.1-1,0.3s-0.5,0.4-0.7,0.8c-0.2,0.3-0.3,0.7-0.3,1.2s0.1,0.8,0.3,1.2c0.2,0.3,0.4,0.6,0.7,0.8
			s0.6,0.3,1,0.3s0.7-0.1,1-0.3s0.5-0.4,0.7-0.8c0.2-0.3,0.3-0.7,0.3-1.2C175.4,37.7,175.3,37.3,175.1,37z"/>
		<path class="st0" d="M178.1,34.1c-0.1-0.1-0.2-0.3-0.2-0.5s0.1-0.3,0.2-0.5c0.1-0.1,0.3-0.2,0.5-0.2s0.3,0.1,0.5,0.2
			c0.1,0.1,0.2,0.3,0.2,0.5s-0.1,0.3-0.2,0.5c-0.1,0.1-0.3,0.2-0.5,0.2C178.4,34.3,178.2,34.2,178.1,34.1z M179,35.2v5.9h-1v-5.9
			H179z"/>
		<path class="st0" d="M181.9,36v3.5c0,0.3,0.1,0.5,0.2,0.6c0.1,0.1,0.3,0.2,0.6,0.2h0.7v0.8h-0.9c-0.5,0-1-0.1-1.2-0.4
			c-0.3-0.3-0.4-0.7-0.4-1.2V36h-0.8v-0.8h0.8v-1.5h1v1.5h1.5V36H181.9z"/>
		<path class="st0" d="M184.6,36.6c0.2-0.5,0.6-0.8,1-1.1s0.9-0.4,1.4-0.4s1,0.1,1.3,0.3c0.4,0.2,0.7,0.5,0.8,0.8v-1.1h1V41h-1v-1
			c-0.2,0.3-0.5,0.6-0.9,0.9c-0.4,0.2-0.8,0.3-1.3,0.3s-1-0.1-1.4-0.4c-0.4-0.3-0.8-0.6-1-1.1s-0.4-1-0.4-1.6
			C184.2,37.5,184.4,37,184.6,36.6z M188.9,37c-0.2-0.3-0.4-0.6-0.7-0.8s-0.6-0.3-1-0.3s-0.7,0.1-1,0.3s-0.5,0.4-0.7,0.8
			c-0.2,0.3-0.3,0.7-0.3,1.2s0.1,0.8,0.3,1.2c0.2,0.3,0.4,0.6,0.7,0.8s0.6,0.3,1,0.3s0.7-0.1,1-0.3s0.5-0.4,0.7-0.8
			c0.2-0.3,0.3-0.7,0.3-1.2S189.1,37.3,188.9,37z"/>
		<path class="st0" d="M192.8,33.2v7.9h-1v-7.9H192.8z"/>
		<path class="st0" d="M198.3,33.6v7.5h-1v-7.5H198.3z"/>
		<path class="st0" d="M204.6,35.8c0.4,0.4,0.7,1.1,0.7,1.9v3.5h-1v-3.3c0-0.6-0.1-1-0.4-1.3c-0.3-0.3-0.7-0.5-1.2-0.5
			s-0.9,0.2-1.2,0.5S201,37.4,201,38v3.3h-1v-5.9h1v0.8c0.2-0.3,0.5-0.5,0.8-0.7s0.7-0.2,1.1-0.2C203.6,35.1,204.2,35.3,204.6,35.8z
			"/>
		<path class="st0" d="M206.9,36.6c0.2-0.5,0.6-0.8,1-1.1s0.9-0.4,1.4-0.4s0.9,0.1,1.3,0.3c0.4,0.2,0.7,0.5,0.9,0.8v-3.1h1V41h-1v-1
			c-0.2,0.4-0.5,0.6-0.9,0.9c-0.4,0.2-0.8,0.3-1.3,0.3s-1-0.1-1.4-0.4c-0.4-0.3-0.8-0.6-1-1.1s-0.4-1-0.4-1.6
			C206.5,37.5,206.6,37,206.9,36.6z M211.2,37c-0.2-0.3-0.4-0.6-0.7-0.8s-0.6-0.3-1-0.3s-0.7,0.1-1,0.3s-0.5,0.4-0.7,0.8
			c-0.2,0.3-0.3,0.7-0.3,1.2s0.1,0.8,0.3,1.2c0.2,0.3,0.4,0.6,0.7,0.8s0.6,0.3,1,0.3s0.7-0.1,1-0.3s0.5-0.4,0.7-0.8
			c0.2-0.3,0.3-0.7,0.3-1.2S211.4,37.3,211.2,37z"/>
		<path class="st0" d="M219.3,35.2v5.9h-1v-0.9c-0.2,0.3-0.4,0.5-0.8,0.7c-0.3,0.2-0.7,0.3-1.1,0.3c-0.5,0-0.9-0.1-1.2-0.3
			c-0.4-0.2-0.7-0.5-0.9-0.9s-0.3-0.8-0.3-1.4v-3.4h1v3.3c0,0.6,0.1,1,0.4,1.3c0.3,0.3,0.7,0.5,1.2,0.5s0.9-0.2,1.2-0.5
			s0.5-0.8,0.5-1.4v-3.2C218.3,35.2,219.3,35.2,219.3,35.2z"/>
		<path class="st0" d="M221.9,41c-0.4-0.2-0.6-0.4-0.8-0.6s-0.3-0.6-0.3-1h1c0,0.3,0.2,0.5,0.4,0.7s0.6,0.3,1,0.3s0.7-0.1,0.9-0.2
			c0.2-0.2,0.3-0.4,0.3-0.6c0-0.3-0.1-0.4-0.3-0.6c-0.2-0.1-0.6-0.2-1.1-0.4c-0.4-0.1-0.8-0.2-1.1-0.3s-0.5-0.3-0.7-0.5
			s-0.3-0.5-0.3-0.9c0-0.3,0.1-0.6,0.3-0.8c0.2-0.3,0.4-0.4,0.8-0.6c0.3-0.1,0.7-0.2,1.1-0.2c0.7,0,1.2,0.2,1.6,0.5
			c0.4,0.3,0.6,0.8,0.6,1.4h-1c0-0.3-0.1-0.6-0.4-0.7c-0.2-0.2-0.5-0.3-0.9-0.3s-0.6,0.1-0.8,0.2c-0.2,0.2-0.3,0.3-0.3,0.6
			c0,0.2,0.1,0.4,0.2,0.5c0.1,0.1,0.3,0.2,0.5,0.3s0.5,0.2,0.8,0.3c0.4,0.1,0.8,0.2,1,0.3c0.3,0.1,0.5,0.3,0.7,0.5s0.3,0.5,0.3,0.9
			c0,0.3-0.1,0.6-0.3,0.9c-0.2,0.3-0.4,0.5-0.8,0.6c-0.3,0.1-0.7,0.2-1.1,0.2C222.6,41.2,222.2,41.1,221.9,41z"/>
		<path class="st0" d="M227.8,36v3.5c0,0.3,0.1,0.5,0.2,0.6c0.1,0.1,0.3,0.2,0.6,0.2h0.7v0.8h-0.9c-0.5,0-1-0.1-1.2-0.4
			c-0.3-0.3-0.4-0.7-0.4-1.2V36H226v-0.8h0.8v-1.5h1v1.5h1.5V36H227.8z"/>
		<path class="st0" d="M232.2,35.4c0.3-0.2,0.7-0.3,1.2-0.3v1h-0.3c-1.1,0-1.6,0.6-1.6,1.8v3.2h-1v-5.9h1v1
			C231.6,35.8,231.9,35.6,232.2,35.4z"/>
		<path class="st0" d="M234.5,34.1c-0.1-0.1-0.2-0.3-0.2-0.5s0.1-0.3,0.2-0.5c0.1-0.1,0.3-0.2,0.5-0.2s0.3,0.1,0.5,0.2
			c0.1,0.1,0.2,0.3,0.2,0.5s-0.1,0.3-0.2,0.5c-0.1,0.1-0.3,0.2-0.5,0.2S234.7,34.2,234.5,34.1z M235.5,35.2v5.9h-1v-5.9H235.5z"/>
		<path class="st0" d="M242.5,38.5h-4.7c0,0.6,0.2,1,0.6,1.4c0.4,0.3,0.8,0.5,1.3,0.5c0.4,0,0.8-0.1,1.1-0.3s0.5-0.5,0.6-0.8h1.1
			c-0.2,0.6-0.5,1-0.9,1.4c-0.5,0.4-1.1,0.5-1.8,0.5c-0.6,0-1.1-0.1-1.5-0.4c-0.4-0.3-0.8-0.6-1-1.1c-0.3-0.5-0.4-1-0.4-1.6
			s0.1-1.1,0.4-1.6c0.2-0.5,0.6-0.8,1-1.1c0.4-0.2,0.9-0.4,1.5-0.4s1.1,0.1,1.5,0.4c0.4,0.2,0.8,0.6,1,1s0.3,0.9,0.3,1.4
			C242.5,38.1,242.5,38.3,242.5,38.5z M241.3,36.8c-0.2-0.3-0.4-0.5-0.7-0.6S240,36,239.7,36c-0.5,0-0.9,0.2-1.3,0.5
			c-0.3,0.3-0.5,0.8-0.6,1.3h3.7C241.5,37.4,241.4,37,241.3,36.8z"/>
		<path class="st0" d="M244.7,41c-0.4-0.2-0.6-0.4-0.8-0.6s-0.3-0.6-0.3-1h1c0,0.3,0.2,0.5,0.4,0.7s0.6,0.3,1,0.3s0.7-0.1,0.9-0.2
			c0.2-0.2,0.3-0.4,0.3-0.6c0-0.3-0.1-0.4-0.3-0.6c-0.2-0.1-0.6-0.2-1.1-0.4c-0.4-0.1-0.8-0.2-1.1-0.3s-0.5-0.3-0.7-0.5
			s-0.3-0.5-0.3-0.9c0-0.3,0.1-0.6,0.3-0.8c0.2-0.3,0.4-0.4,0.8-0.6c0.3-0.1,0.7-0.2,1.1-0.2c0.7,0,1.2,0.2,1.6,0.5
			c0.4,0.3,0.6,0.8,0.6,1.4h-1c0-0.3-0.1-0.6-0.4-0.7c-0.2-0.2-0.5-0.3-0.9-0.3s-0.6,0.1-0.8,0.2c-0.2,0.2-0.3,0.3-0.3,0.6
			c0,0.2,0.1,0.4,0.2,0.5c0.1,0.1,0.3,0.2,0.5,0.3s0.5,0.2,0.8,0.3c0.4,0.1,0.8,0.2,1,0.3c0.3,0.1,0.5,0.3,0.7,0.5s0.3,0.5,0.3,0.9
			c0,0.3-0.1,0.6-0.3,0.9c-0.2,0.3-0.4,0.5-0.8,0.6c-0.3,0.1-0.7,0.2-1.1,0.2C245.4,41.2,245,41.1,244.7,41z"/>
		<path class="st0" d="M250.4,39.7l-1.2,2.9h-0.7l0.8-2.9H250.4z"/>
		<path class="st0" d="M262.7,35.4c0.4,0.2,0.6,0.5,0.8,0.9c0.2,0.4,0.3,0.8,0.3,1.4v3.5h-1v-3.3c0-0.6-0.1-1-0.4-1.3
			s-0.7-0.5-1.2-0.5s-0.9,0.2-1.2,0.5c-0.3,0.3-0.5,0.8-0.5,1.4v3.2h-1v-3.3c0-0.6-0.1-1-0.4-1.3s-0.7-0.5-1.2-0.5s-0.9,0.2-1.2,0.5
			s-0.5,0.8-0.5,1.4v3.2h-1v-5.9h1v0.8c0.2-0.3,0.5-0.5,0.8-0.7c0.3-0.2,0.7-0.2,1.1-0.2c0.5,0,0.9,0.1,1.3,0.3s0.7,0.5,0.8,1
			c0.2-0.4,0.4-0.7,0.8-1c0.4-0.2,0.8-0.3,1.3-0.3C261.9,35.1,262.3,35.2,262.7,35.4z"/>
		<path class="st0" d="M266.5,40.8c-0.4-0.3-0.8-0.6-1.1-1.1c-0.3-0.5-0.4-1-0.4-1.6s0.1-1.1,0.4-1.6s0.6-0.8,1.1-1.1
			c0.5-0.2,1-0.4,1.5-0.4c0.6,0,1.1,0.1,1.5,0.4c0.5,0.2,0.8,0.6,1.1,1.1c0.3,0.5,0.4,1,0.4,1.6s-0.1,1.1-0.4,1.6s-0.6,0.8-1.1,1.1
			s-1,0.4-1.5,0.4S267,41.1,266.5,40.8z M269,40.1c0.3-0.2,0.6-0.4,0.7-0.7c0.2-0.3,0.3-0.7,0.3-1.2s-0.1-0.9-0.3-1.2
			s-0.4-0.6-0.7-0.7c-0.3-0.2-0.6-0.2-1-0.2s-0.7,0.1-1,0.2s-0.5,0.4-0.7,0.7s-0.3,0.7-0.3,1.2s0.1,0.9,0.3,1.2
			c0.2,0.3,0.4,0.6,0.7,0.7c0.3,0.2,0.6,0.2,1,0.2S268.7,40.3,269,40.1z"/>
		<path class="st0" d="M272.3,36.6c0.2-0.5,0.6-0.8,1-1.1s0.9-0.4,1.4-0.4s0.9,0.1,1.3,0.3s0.7,0.5,0.9,0.8v-3.1h1V41h-1v-1
			c-0.2,0.4-0.5,0.6-0.9,0.9c-0.4,0.2-0.8,0.3-1.3,0.3s-1-0.1-1.4-0.4c-0.4-0.3-0.8-0.6-1-1.1s-0.4-1-0.4-1.6
			C271.9,37.5,272.1,37,272.3,36.6z M276.7,37c-0.2-0.3-0.4-0.6-0.7-0.8c-0.3-0.2-0.6-0.3-1-0.3s-0.7,0.1-1,0.3s-0.5,0.4-0.7,0.8
			c-0.2,0.3-0.3,0.7-0.3,1.2s0.1,0.8,0.3,1.2c0.2,0.3,0.4,0.6,0.7,0.8c0.3,0.2,0.6,0.3,1,0.3s0.7-0.1,1-0.3s0.5-0.4,0.7-0.8
			c0.2-0.3,0.3-0.7,0.3-1.2C276.9,37.7,276.8,37.3,276.7,37z"/>
		<path class="st0" d="M279.6,36.6c0.2-0.5,0.6-0.8,1-1.1s0.9-0.4,1.4-0.4s1,0.1,1.3,0.3c0.4,0.2,0.7,0.5,0.8,0.8v-1.1h1V41h-1v-1
			c-0.2,0.3-0.5,0.6-0.9,0.9c-0.4,0.2-0.8,0.3-1.3,0.3s-1-0.1-1.4-0.4c-0.4-0.3-0.8-0.6-1-1.1s-0.4-1-0.4-1.6
			C279.2,37.5,279.3,37,279.6,36.6z M283.9,37c-0.2-0.3-0.4-0.6-0.7-0.8c-0.3-0.2-0.6-0.3-1-0.3s-0.7,0.1-1,0.3s-0.5,0.4-0.7,0.8
			c-0.2,0.3-0.3,0.7-0.3,1.2s0.1,0.8,0.3,1.2c0.2,0.3,0.4,0.6,0.7,0.8c0.3,0.2,0.6,0.3,1,0.3s0.7-0.1,1-0.3s0.5-0.4,0.7-0.8
			c0.2-0.3,0.3-0.7,0.3-1.2C284.2,37.7,284.1,37.3,283.9,37z"/>
	</g>
	<g>
		<path class="st0" d="M182.1,10.1V8.9h1.5v1.2h3.6v2.5h1V14h-1v2.5h-3.6v1.2h3.9v3.7h-4.2c-0.2,0.4-0.5,0.9-0.7,1.2h5v1
			c-0.7,1.1-1.6,2.1-2.8,2.9c1.1,0.4,2.2,1,3.4,1.6l-0.9,1.1c-1.3-0.7-2.6-1.4-3.9-1.9c-1.5,0.8-3.2,1.5-5.2,2.1l-0.9-1.2
			c1.7-0.4,3.2-1,4.5-1.6c-0.9-0.4-1.9-0.7-2.8-0.9c0.4-0.7,0.9-1.3,1.3-2h-2.9v-1.3h3.6c0.2-0.4,0.5-0.8,0.7-1.2h-3.5v-3.7h3.9
			v-1.2h-3.6V14h-1v-1.3h1v-2.5L182.1,10.1L182.1,10.1z M182.1,18.7h-2.5v1.4h2.5V18.7z M182.1,12.7v-1.5H180v1.5H182.1z
			 M182.1,13.8H180v1.5h2.2L182.1,13.8L182.1,13.8z M185.8,23.8h-3.9c-0.3,0.5-0.6,1-0.9,1.4c0.7,0.2,1.5,0.4,2.3,0.8
			C184.4,25.2,185.2,24.5,185.8,23.8z M185.8,12.7v-1.5h-2.2v1.5H185.8z M185.8,13.8h-2.2v1.5h2.2V13.8z M186.1,18.7h-2.5v1.4h2.5
			V18.7z M189.9,17.6c-0.4,0.7-0.7,1.4-1.1,2l-1-1.3c1.3-2.4,2.2-5.6,2.7-9.7l1.6,0.3c-0.2,1.2-0.3,2.3-0.5,3.3h5.9v1.5H196
			c-0.1,4-0.9,7.4-2.3,10.2c1.1,1.6,2.5,3,4.2,4.2l-1,1.3c-1.7-1.1-3-2.4-4.1-4c-1,1.5-2.3,2.9-3.7,3.9l-0.9-1.4
			c1.5-1.1,2.8-2.4,3.7-4C190.9,22.2,190.2,20,189.9,17.6z M190,17.5l1.3-0.4c0.2,2,0.7,3.7,1.5,5.3c1.1-2.4,1.6-5.2,1.7-8.6h-3.3
			C190.8,15.2,190.4,16.4,190,17.5z"/>
		<path class="st0" d="M206.8,9.5c-0.6,1.7-1.3,3.4-2.2,4.9v15.1H203V16.8c-0.7,1-1.5,1.9-2.4,2.9l-0.5-1.7c2.4-2.7,4.1-5.8,5.2-9.2
			L206.8,9.5z M214,26.8c1.1-3,2.1-6.8,3-11.3l1.5,0.4c-0.8,4.1-1.7,7.7-2.9,10.9h5.1v1.6h-14.4v-1.6H214z M212.7,12.5
			c-0.3-1.2-0.7-2.3-1.1-3.3l1.7-0.3c0.4,1,0.7,2.2,1,3.6h5.8V14h-13.5v-1.5H212.7z M211.8,25.7l-1.5,0.4c-0.6-3.4-1.4-6.7-2.3-9.9
			l1.5-0.4C210.3,18.6,211.1,21.9,211.8,25.7z"/>
		<path class="st0" d="M233.9,13.5c1.6-0.5,3-1.1,4.2-1.7h-14.2v-1.3h8.7c-0.2-0.5-0.5-1-0.8-1.5l1.6-0.3c0.3,0.5,0.5,1.1,0.8,1.7
			h7.7v1.3h-3.6l0.9,0.6c-1.1,0.6-2.3,1.2-3.6,1.7c1.7,0.5,3.4,1,4.8,1.5l-0.9,0.9h2.5V18h-15.9v2.5c-0.1,3.7-0.8,6.7-2.2,9
			l-1.2-1.1c1.2-1.9,1.8-4.5,1.8-7.9v-3.9h14.9c-1.6-0.6-3.4-1.3-5.6-1.9c-2.3,0.7-4.8,1.3-7.6,1.6l-0.8-1c2.3-0.3,4.4-0.6,6.3-1.1
			c-1.6-0.4-3.2-0.9-5-1.3l0.9-0.8C230,12.5,232,13,233.9,13.5z M227.4,24l-1.1-1c1.4-1.1,2.5-2.5,3.2-4.4l1.3,0.5
			c-0.2,0.5-0.4,0.9-0.6,1.3h4v-1.8h1.6v1.8h5.9v1.4h-5.9V24h5.4v1.4h-5.4v2.1h6.9v1.4h-16.1v-1.4h7.6v-2.1h-5.3V24h5.3v-2.1h-4.8
			C228.7,22.7,228.1,23.4,227.4,24z"/>
		<path class="st0" d="M254.1,8.9v3.4h2.4V8.9h1.6v3.4h1.9c0.7-1,1.2-2,1.7-3l1.5,0.6c-0.5,1-1,1.8-1.5,2.5h3.6v1.4h-19.5v-1.4h3.4
			c-0.4-0.9-0.9-1.7-1.4-2.5l1.5-0.6c0.5,0.9,1,1.9,1.4,3h2V8.9H254.1z M251.4,16.2c-0.3-0.6-0.7-1.3-1.2-1.8l1.5-0.6
			c0.5,0.7,0.9,1.5,1.3,2.4h4.3c0.5-0.7,1-1.5,1.4-2.3l1.5,0.5c-0.4,0.7-0.8,1.3-1.2,1.8h4.9v1.4h-8v1.7h6.9v1.3h-6.9v1.7h8.9v1.4
			h-8.9v5.8h-1.6v-5.8h-8.9v-1.4h8.9v-1.7h-6.9v-1.3h6.9v-1.7h-8v-1.4H251.4z M252.1,25.4c-1.4,1.4-3.1,2.6-5.1,3.7l-1-1.3
			c2-0.9,3.7-2.1,5.1-3.4L252.1,25.4z M264.6,28l-1.2,1.1c-1.1-1.1-2.7-2.3-4.7-3.6l1.1-1C261.7,25.7,263.3,26.8,264.6,28z"/>
		<path class="st0" d="M285.6,9.7V14h-7.8v1.5h4.8v1.3h-4.8v1.6h2.9c1.7-1.1,3.3-2.3,4.5-3.8l1.3,0.7c-1.1,1.1-2.3,2.2-3.6,3.1h4.7
			v1.4h-7c-1.2,0.6-2.4,1.1-3.7,1.6h7.9v8.2h-1.6v-1h-9.5v1h-1.6v-6.8c-1.1,0.3-2.3,0.5-3.5,0.7l-0.9-1.3c3.9-0.4,7.3-1.2,10.2-2.5
			h-10v-1.4h8.3v-1.6h-5.9v-1.3h5.9V14h-6.5V9.7H285.6z M274.6,10.9h-3.3v1.9h3.3V10.9z M283.2,22.6h-9.5v1.7h9.5V22.6z M273.7,27.3
			h9.5v-1.7h-9.5V27.3z M279.3,10.9h-3.2v1.9h3.2V10.9z M284,10.9h-3.3v1.9h3.3V10.9z"/>
	</g>
</g>
</svg>
