<?xml version="1.0" encoding="utf-8"?>
<!-- Generator: Adobe Illustrator 24.2.1, SVG Export Plug-In . SVG Version: 6.00 Build 0)  -->
<svg version="1.1" id="圖層_1" xmlns="http://www.w3.org/2000/svg" xmlns:xlink="http://www.w3.org/1999/xlink" x="0px" y="0px"
	 width="246px" height="246px" viewBox="0 0 246 246" style="enable-background:new 0 0 246 246;" xml:space="preserve">
<style type="text/css">
	.st0{fill:#1F323D;}
</style>
<path class="st0" d="M165.7,103.5H72c-0.5,0-1.1-0.2-1.5-0.5c-0.4-0.3-0.8-0.8-0.9-1.3s-0.2-1.1,0-1.6c0.2-0.5,0.5-1,0.9-1.3
	L117.3,63c0.4-0.3,1-0.5,1.5-0.5c0.6,0,1.1,0.2,1.5,0.5l46.8,35.9c0.4,0.3,0.7,0.8,0.9,1.3c0.2,0.5,0.1,1.1,0,1.6
	c-0.2,0.5-0.5,0.9-0.9,1.3C166.8,103.3,166.3,103.5,165.7,103.5L165.7,103.5z M79.6,98.4h78.6l-39.3-30.1L79.6,98.4z"/>
<path class="st0" d="M96.2,147.3H83.2c-0.7,0-1.3-0.3-1.8-0.7s-0.7-1.1-0.7-1.8v-43.9c0-0.7,0.3-1.3,0.7-1.8
	c0.5-0.5,1.1-0.7,1.8-0.7h12.9c0.7,0,1.3,0.3,1.8,0.7c0.5,0.5,0.7,1.1,0.7,1.8v43.9c0,0.7-0.3,1.3-0.7,1.8
	C97.5,147.1,96.8,147.3,96.2,147.3L96.2,147.3z M85.8,142.2h7.8v-38.8h-7.8V142.2z"/>
<path class="st0" d="M124.5,147.3h-12.9c-0.7,0-1.3-0.3-1.8-0.7c-0.5-0.5-0.7-1.1-0.7-1.8v-43.9c0-0.7,0.3-1.3,0.7-1.8
	c0.5-0.5,1.1-0.7,1.8-0.7h12.9c0.7,0,1.3,0.3,1.8,0.7c0.5,0.5,0.7,1.1,0.7,1.8v43.9c0,0.7-0.3,1.3-0.7,1.8
	C125.8,147.1,125.2,147.3,124.5,147.3z M114.1,142.2h7.8v-38.8h-7.8V142.2z"/>
<path class="st0" d="M152.8,124.6h-12.9c-0.7,0-1.3-0.3-1.8-0.7c-0.5-0.5-0.7-1.1-0.7-1.8v-21.2c0-0.7,0.3-1.3,0.7-1.8
	c0.5-0.5,1.1-0.7,1.8-0.7h12.9c0.7,0,1.3,0.3,1.8,0.7c0.5,0.5,0.7,1.1,0.7,1.8v21.2c0,0.7-0.3,1.3-0.7,1.8
	C154.1,124.4,153.5,124.6,152.8,124.6z M142.4,119.5h7.8v-16.1h-7.8V119.5z"/>
<path class="st0" d="M131.7,156.9H72c-0.7,0-1.3-0.3-1.8-0.7c-0.5-0.5-0.7-1.1-0.7-1.8v-9.6c0-0.7,0.3-1.3,0.7-1.8
	c0.5-0.5,1.1-0.7,1.8-0.7h59.6c0.7,0,1.3,0.3,1.8,0.7c0.5,0.5,0.7,1.1,0.7,1.8v9.6c0,0.3-0.1,0.7-0.2,1c-0.1,0.3-0.3,0.6-0.5,0.8
	c-0.2,0.2-0.5,0.4-0.8,0.6C132.3,156.9,132,156.9,131.7,156.9z M74.6,151.8h54.5v-4.5H74.6V151.8z"/>
<path class="st0" d="M162.2,136.8h-18.8c-0.7,0-1.3-0.3-1.8-0.7c-0.5-0.5-0.7-1.1-0.7-1.8c0-0.7,0.3-1.3,0.7-1.8
	c0.5-0.5,1.1-0.7,1.8-0.7h18.8c0.7,0,1.3,0.3,1.8,0.7c0.5,0.5,0.7,1.1,0.7,1.8c0,0.7-0.3,1.3-0.7,1.8
	C163.5,136.5,162.9,136.8,162.2,136.8L162.2,136.8z"/>
<path class="st0" d="M162.2,148.6h-18.8c-0.7,0-1.3-0.3-1.8-0.7c-0.5-0.5-0.7-1.1-0.7-1.8c0-0.7,0.3-1.3,0.7-1.8
	c0.5-0.5,1.1-0.7,1.8-0.7h18.8c0.7,0,1.3,0.3,1.8,0.7c0.5,0.5,0.7,1.1,0.7,1.8c0,0.7-0.3,1.3-0.7,1.8
	C163.5,148.3,162.9,148.6,162.2,148.6z"/>
<path class="st0" d="M162.2,160.4h-18.8c-0.7,0-1.3-0.3-1.8-0.7c-0.5-0.5-0.7-1.1-0.7-1.8c0-0.7,0.3-1.3,0.7-1.8
	c0.5-0.5,1.1-0.7,1.8-0.7h18.8c0.7,0,1.3,0.3,1.8,0.7c0.5,0.5,0.7,1.1,0.7,1.8c0,0.7-0.3,1.3-0.7,1.8
	C163.5,160.1,162.9,160.4,162.2,160.4z"/>
<path class="st0" d="M152.8,172.2h-9.4c-0.7,0-1.3-0.3-1.8-0.7c-0.5-0.5-0.7-1.1-0.7-1.8c0-0.7,0.3-1.3,0.7-1.8
	c0.5-0.5,1.1-0.7,1.8-0.7h9.4c0.7,0,1.3,0.3,1.8,0.7c0.5,0.5,0.7,1.1,0.7,1.8c0,0.7-0.3,1.3-0.7,1.8S153.5,172.2,152.8,172.2z"/>
<path class="st0" d="M166,183.5h-26.5c-2.8,0-5.4-1.1-7.4-3.1c-2-2-3.1-4.6-3.1-7.4v-42.9c0-2.8,1.1-5.5,3.1-7.4
	c2-2,4.6-3.1,7.4-3.1H166c2.8,0,5.4,1.1,7.4,3.1c2,2,3.1,4.6,3.1,7.4V173c0,2.8-1.1,5.5-3.1,7.4C171.5,182.4,168.8,183.5,166,183.5
	L166,183.5z M139.6,124.6c-1.4,0-2.8,0.6-3.8,1.6c-1,1-1.6,2.4-1.6,3.8V173c0,1.4,0.6,2.8,1.6,3.8c1,1,2.4,1.6,3.8,1.6H166
	c1.4,0,2.8-0.6,3.8-1.6c1-1,1.6-2.4,1.6-3.8v-42.9c0-1.4-0.6-2.8-1.6-3.8c-1-1-2.4-1.6-3.8-1.6H139.6z"/>
</svg>
