<?xml version="1.0" encoding="UTF-8"?>
<svg id="_層_1" data-name="圖層 1" xmlns="http://www.w3.org/2000/svg" width="416.23" height="385.24" viewBox="0 0 416.23 385.24">
  <defs>
    <style>
      .cls-1 {
        fill: #fff;
      }

      .cls-2 {
        fill: #1f323d;
      }

      .cls-3 {
        stroke-width: 1.01px;
      }

      .cls-3, .cls-4 {
        fill: none;
        stroke: #4d4d4d;
        stroke-miterlimit: 10;
      }

      .cls-5 {
        fill: #b4c43f;
      }

      .cls-6 {
        fill: #2a5167;
      }

      .cls-7 {
        fill: #386c8a;
      }
    </style>
  </defs>
  <g>
    <line class="cls-4" x1="233" y1="158.18" x2="205.45" y2="158.18"/>
    <line class="cls-4" x1="205.8" y1="32.8" x2="205.98" y2="197.83"/>
    <path class="cls-4" d="M127.96,104.16l.7-22.61c.13-4.33,4.28-7.79,9.34-7.79h133.91c5.16,0,9.35,3.58,9.35,8v22.4"/>
    <rect class="cls-6" x="72.73" y="88" width="110" height="31.66" rx="5" ry="5"/>
    <rect class="cls-7" x="226.12" y="142.18" width="110" height="32" rx="5" ry="5" transform="translate(562.23 316.36) rotate(-180)"/>
    <rect class="cls-6" x="226.12" y="88" width="110" height="31.66" rx="5" ry="5"/>
    <g>
      <path class="cls-1" d="M99.99,96.38h9.87v1.17h-9.87v-1.17Zm.49,7.92h9.11v7.44h-1.28v-.77h-6.61v.99h-1.22v-7.65Zm8.35-5.47v4.18h-7.72v-4.18h7.72Zm-7.13,6.54v1.69h2.7v-1.69h-2.7Zm2.7,4.54v-1.8h-2.7v1.8h2.7Zm3.15-9.99h-5.22v2.02h5.22v-2.02Zm.76,5.46h-2.68v1.69h2.68v-1.69Zm0,4.54v-1.8h-2.68v1.8h2.68Zm3.91-2.27h-1.19v-9.9h1.19v9.9Zm3.22-11.72v14.35c0,.86-.22,1.26-.76,1.48-.56,.23-1.48,.27-3.01,.25-.05-.36-.25-.95-.45-1.33,1.15,.05,2.18,.04,2.47,.02,.32,0,.45-.11,.45-.41v-14.35h1.3Z"/>
      <path class="cls-1" d="M129.8,104.75c-.83,.43-1.67,.85-2.56,1.21h6.77v5.96h-1.3v-.52h-7.94v.58h-1.26v-4.61c-1.13,.36-2.3,.68-3.46,.97-.13-.29-.47-.88-.67-1.15,2.63-.56,5.31-1.37,7.74-2.43h-7.36v-1.1h6.73v-1.35h-4.95v-1.08h4.95v-1.26h-5.71v-3.69h13.94v3.69h-6.93v1.26h4.03v.92c.68-.49,1.3-1.01,1.85-1.55l1.04,.67c-.88,.87-1.93,1.67-3.06,2.4h4v1.1h-5.87Zm-4.86-7.51h-2.86v1.73h2.86v-1.73Zm7.78,9.72h-7.94v1.19h7.94v-1.19Zm0,3.42v-1.31h-7.94v1.31h7.94Zm-3.58-11.42v-1.73h-2.95v1.73h2.95Zm.25,4.68c.79-.41,1.53-.88,2.21-1.35h-3.8v1.35h1.58Zm.99-4.68h3.04v-1.73h-3.04v1.73Z"/>
      <path class="cls-1" d="M154.71,106.26c-1.13,.83-2.59,1.71-3.89,2.36,1.37,.99,3.08,1.67,5.1,2.05-.27,.31-.65,.83-.83,1.19-4.11-.9-6.91-3.1-8.46-6.48h-2.88v4.83l4.86-1.17c-.02,.34-.05,.88-.04,1.17-5.04,1.28-5.92,1.53-6.34,1.75l-.07,.05c-.11-.32-.38-.97-.61-1.31,.36-.18,.88-.56,.88-1.28v-4.03h-2.92v-1.21h3.15v-7.9h11.07v1.13h-9.72v1.55h9.18v1.1h-9.18v1.5h9.18v1.08h-9.18v1.55h11.47v1.21h-7.51c.5,.95,1.13,1.8,1.93,2.52,1.28-.68,2.77-1.64,3.69-2.38l1.12,.74Z"/>
    </g>
    <g>
      <path class="cls-1" d="M259.4,164.47v1.31h-15.92v-1.31h7.2v-4.41h-5.55v-1.3h5.55v-3.94h-6.37v-1.31h7.9c-.7-.83-1.98-1.96-3.06-2.75l1.08-.76c1.15,.83,2.59,2.05,3.29,2.9l-.85,.61h5.82v1.31h-6.39v3.94h5.65v1.3h-5.65v4.41h7.29Z"/>
      <path class="cls-1" d="M268.85,150.45c-.54,1.3-1.19,2.59-1.93,3.8v12.1h-1.31v-10.12c-.68,.92-1.39,1.75-2.14,2.45-.14-.32-.56-1.01-.83-1.33,1.94-1.73,3.8-4.46,4.9-7.29l1.31,.4Zm5.6,8.5v5.46h4.63v1.3h-10.55v-1.3h4.59v-5.46h-5.15v-1.3h5.15v-4.74h-3.96v-1.28h9.58v1.28h-4.29v4.74h5.02v1.3h-5.02Z"/>
      <path class="cls-1" d="M288.02,160.76c-.23-.54-.76-1.55-1.22-2.39v8.03h-1.26v-7.47c-.61,1.67-1.39,3.29-2.16,4.32-.13-.38-.47-.96-.7-1.28,1.01-1.3,2.11-3.62,2.72-5.65h-2.32v-1.26h2.47v-2.9c-.63,.14-1.28,.27-1.87,.38-.07-.31-.25-.76-.4-1.06,1.67-.32,3.64-.85,4.77-1.4l.83,1.08c-.59,.27-1.31,.5-2.07,.72v3.19h2.07v1.26h-2.07v.4c.45,.59,1.76,2.48,2.05,2.97l-.83,1.08Zm10.05,1.06c-.22-1.46-.92-3.66-1.69-5.33-.92,2.21-2.03,4.2-3.35,5.92v1.76c0,.72,.11,.85,.77,.85h2.12c.61,0,.72-.47,.79-2.68,.29,.25,.81,.47,1.15,.52-.14,2.58-.49,3.33-1.84,3.33h-2.4c-1.49,0-1.89-.43-1.89-2.03v-.23c-.72,.77-1.49,1.5-2.32,2.12-.22-.25-.77-.7-1.08-.92,1.28-.9,2.39-1.98,3.4-3.19v-8.16h1.28v6.41c1.69-2.59,2.94-5.71,3.87-9.17l1.28,.25c-.52,1.84-1.1,3.57-1.78,5.19l1.13-.34c.79,1.69,1.51,3.89,1.75,5.33l-1.21,.36Zm-9.63-.63c.72-1.4,1.13-3.73,1.31-5.55l1.03,.23c-.22,1.84-.59,4.29-1.3,5.71l-1.04-.4Zm6.34-7.67c-.72-.77-2.23-1.94-3.44-2.72l.81-.88c1.21,.72,2.74,1.82,3.47,2.59l-.85,1.01Z"/>
      <path class="cls-1" d="M318.75,158.98v1.01h-15.9v-1.01h7.2v-1.06h-6v-.9h6v-.92h-5.51v-.9h5.51v-1.12h-7.18v-1.01h7.18v-1.01h-5.29v-.9h5.29v-1.26h1.33v1.26h5.15v1.91h2.14v1.01h-2.14v2.02h-5.15v.92h6.09v.9h-6.09v1.06h7.36Zm-13.61,1.89h11.49v5.58h-1.33v-.63h-8.86v.63h-1.3v-5.58Zm1.3,.92v1.08h8.86v-1.08h-8.86Zm8.86,3.1v-1.13h-8.86v1.13h8.86Zm-3.91-11.81h3.82v-1.01h-3.82v1.01Zm0,2.12h3.82v-1.12h-3.82v1.12Z"/>
    </g>
    <g>
      <path class="cls-1" d="M252.9,96.38h9.87v1.17h-9.87v-1.17Zm.49,7.92h9.11v7.44h-1.28v-.77h-6.61v.99h-1.22v-7.65Zm8.35-5.47v4.18h-7.72v-4.18h7.72Zm-7.13,6.54v1.69h2.7v-1.69h-2.7Zm2.7,4.54v-1.8h-2.7v1.8h2.7Zm3.15-9.99h-5.22v2.02h5.22v-2.02Zm.76,5.46h-2.68v1.69h2.68v-1.69Zm0,4.54v-1.8h-2.68v1.8h2.68Zm3.91-2.27h-1.19v-9.9h1.19v9.9Zm3.22-11.72v14.35c0,.86-.22,1.26-.76,1.48-.56,.23-1.48,.27-3.01,.25-.05-.36-.25-.95-.45-1.33,1.15,.05,2.18,.04,2.47,.02,.32,0,.45-.11,.45-.41v-14.35h1.3Z"/>
      <path class="cls-1" d="M282.71,104.75c-.83,.43-1.67,.85-2.56,1.21h6.77v5.96h-1.3v-.52h-7.94v.58h-1.26v-4.61c-1.13,.36-2.3,.68-3.46,.97-.13-.29-.47-.88-.67-1.15,2.63-.56,5.31-1.37,7.74-2.43h-7.36v-1.1h6.73v-1.35h-4.95v-1.08h4.95v-1.26h-5.71v-3.69h13.94v3.69h-6.93v1.26h4.03v.92c.68-.49,1.3-1.01,1.85-1.55l1.04,.67c-.88,.86-1.93,1.67-3.06,2.39h4v1.1h-5.87Zm-4.86-7.51h-2.86v1.73h2.86v-1.73Zm7.78,9.72h-7.94v1.19h7.94v-1.19Zm0,3.42v-1.31h-7.94v1.31h7.94Zm-3.58-11.42v-1.73h-2.95v1.73h2.95Zm.25,4.68c.79-.41,1.53-.88,2.21-1.35h-3.8v1.35h1.58Zm.99-4.68h3.04v-1.73h-3.04v1.73Z"/>
      <path class="cls-1" d="M307.63,106.26c-1.13,.83-2.59,1.71-3.89,2.36,1.37,.99,3.08,1.67,5.1,2.05-.27,.31-.65,.83-.83,1.19-4.11-.9-6.91-3.1-8.46-6.48h-2.88v4.83l4.86-1.17c-.02,.34-.05,.88-.04,1.17-5.04,1.28-5.92,1.53-6.34,1.75l-.07,.05c-.11-.32-.38-.97-.61-1.31,.36-.18,.88-.56,.88-1.28v-4.03h-2.92v-1.21h3.15v-7.9h11.07v1.13h-9.72v1.55h9.18v1.1h-9.18v1.49h9.18v1.08h-9.18v1.55h11.47v1.21h-7.51c.5,.95,1.13,1.8,1.93,2.52,1.28-.68,2.77-1.64,3.69-2.38l1.12,.74Z"/>
    </g>
    <rect class="cls-2" x="156.47" y="16.4" width="97.74" height="32" rx="5" ry="5"/>
    <g>
      <path class="cls-1" d="M187.86,32.44c-.83,.43-1.67,.85-2.56,1.21h6.77v5.96h-1.3v-.52h-7.94v.58h-1.26v-4.61c-1.13,.36-2.3,.68-3.46,.97-.13-.29-.47-.88-.67-1.15,2.63-.56,5.31-1.37,7.74-2.43h-7.36v-1.1h6.73v-1.35h-4.95v-1.08h4.95v-1.26h-5.71v-3.69h13.94v3.69h-6.93v1.26h4.03v.92c.68-.49,1.3-1.01,1.85-1.55l1.04,.67c-.88,.86-1.93,1.67-3.06,2.39h4v1.1h-5.87Zm-4.86-7.51h-2.86v1.73h2.86v-1.73Zm7.78,9.72h-7.94v1.19h7.94v-1.19Zm0,3.42v-1.31h-7.94v1.31h7.94Zm-3.58-11.42v-1.73h-2.95v1.73h2.95Zm.25,4.68c.79-.41,1.53-.88,2.21-1.35h-3.8v1.35h1.58Zm.99-4.68h3.04v-1.73h-3.04v1.73Z"/>
      <path class="cls-1" d="M232.57,33.95c-1.13,.83-2.59,1.71-3.89,2.36,1.37,.99,3.08,1.67,5.1,2.05-.27,.31-.65,.83-.83,1.19-4.11-.9-6.91-3.1-8.46-6.48h-2.88v4.83l4.86-1.17c-.02,.34-.05,.88-.04,1.17-5.04,1.28-5.92,1.53-6.34,1.75l-.07,.05c-.11-.32-.38-.97-.61-1.31,.36-.18,.88-.56,.88-1.28v-4.03h-2.92v-1.21h3.15v-7.9h11.07v1.13h-9.72v1.55h9.18v1.1h-9.18v1.49h9.18v1.08h-9.18v1.55h11.47v1.21h-7.51c.5,.95,1.13,1.8,1.93,2.52,1.28-.68,2.77-1.64,3.69-2.38l1.12,.74Z"/>
    </g>
  </g>
  <g>
    <path class="cls-3" d="M94.14,216.83v-9c0-5.52,3.82-10,8.54-10h210.88c4.72,0,8.54,4.48,8.54,10v9"/>
    <rect class="cls-5" x="78.14" y="156.1" width="32" height="160" rx="5" ry="5" transform="translate(330.24 141.96) rotate(90)"/>
    <rect class="cls-5" x="306.1" y="156.1" width="32" height="160" rx="5" ry="5" transform="translate(558.2 -86) rotate(90)"/>
    <g>
      <g>
        <path d="M40.07,266.19c-.49,2.99-1.21,5.4-2.38,7.36,.97,1.49,2.2,2.65,3.75,3.37-.29,.27-.7,.79-.92,1.13-1.48-.77-2.67-1.91-3.62-3.31-1.03,1.35-2.36,2.47-4.05,3.35-.14-.31-.52-.88-.77-1.17,1.76-.85,3.08-1.96,4.09-3.4-.79-1.48-1.39-3.21-1.85-5.11-.36,.72-.76,1.39-1.17,1.96-.22-.23-.77-.68-1.06-.88l.09-.13h-2.02v4.57l3.08-.7,.13,1.21c-2.95,.72-6.14,1.48-8.37,1.98l-.25-1.33,1.06-.22v-7.99h1.22v7.72l1.84-.4v-10.03h-3.82v-1.3h8.23v1.3h-3.11v3.92h2.45v.63c1.21-1.87,2.02-4.43,2.5-7.13l1.33,.23c-.22,1.06-.49,2.12-.77,3.1h5.62v1.26h-1.21Zm-4.95,.31c.41,2.12,.99,4.09,1.82,5.74,.86-1.66,1.42-3.67,1.78-6.05h-3.48l-.13,.31Z"/>
        <path d="M33.86,290.24c1.42,1.58,4.27,3.26,7.54,3.98-.27,.29-.65,.83-.85,1.17-2.75-.74-5.15-2.21-6.7-3.67v4.32h-1.4v-4.36c-1.76,1.73-4.23,3.1-6.72,3.78-.16-.34-.54-.85-.85-1.12,2.97-.68,5.98-2.29,7.56-4.25v-1.55h-4.43v3.46h-1.39v-4.63h5.82v-1.39h-7.11v-1.19h7.11v-1.12h1.4v1.12h6.86v1.19h-6.86v1.39h5.83v3.31c0,.65-.13,.92-.59,1.12-.45,.18-1.17,.18-2.18,.18-.07-.34-.29-.76-.45-1.06,.72,.04,1.42,.02,1.62,.02,.22,0,.27-.07,.27-.25v-2.14h-4.5v1.69Zm-6.12-8.28c-.56,.9-1.21,1.73-1.85,2.34-.2-.23-.65-.67-.94-.88,1.1-.99,2.11-2.43,2.72-3.93l1.17,.32c-.14,.36-.31,.7-.49,1.06h4.61v1.08h-3.4c.59,.5,1.28,1.17,1.62,1.62l-.88,.76c-.34-.52-1.1-1.3-1.73-1.85l.7-.52h-1.53Zm7.42,0c-.43,.63-.9,1.21-1.4,1.67-.22-.22-.7-.61-.99-.79,.97-.83,1.78-2.05,2.23-3.35l1.22,.29c-.13,.38-.29,.74-.47,1.12h5.44v1.06h-3.87c.63,.5,1.39,1.15,1.78,1.62l-.88,.77c-.4-.49-1.21-1.24-1.85-1.76l.77-.63h-1.98Z"/>
        <path d="M31.05,311.57c-.43-.72-1.53-2.18-2.32-3.22-.41,2-1.3,3.94-2.99,5.46-.18-.27-.61-.7-.94-.94,2.2-1.78,2.83-4.5,3.01-6.91h-2.9v-1.22h2.95c.02-.4,.02-.79,.02-1.15v-1.78h-2.59v-1.21h2.59v-2.79h1.26v2.79h2.5v1.21h-2.5v1.78c0,.36,0,.76-.02,1.15h2.86v1.22h-2.92c-.04,.32-.07,.67-.11,1.01,.7,.76,2.59,3.04,3.01,3.62l-.92,.99Zm8.77,.97c.32,0,.41-.18,.45-1.44,.23,.2,.76,.4,1.12,.49-.13,1.69-.49,2.14-1.44,2.14h-1.49c-1.22,0-1.51-.36-1.51-1.62v-3.85h-1.3c-.34,2.72-1.28,4.68-4.3,5.78-.14-.31-.49-.79-.76-1.01,2.72-.9,3.49-2.56,3.78-4.77h-1.71v-9.96h7.67v9.96h-2.14v3.85c0,.38,.05,.43,.43,.43h1.21Zm-5.92-11.27h5.13v-1.75h-5.13v1.75Zm0,2.9h5.13v-1.78h-5.13v1.78Zm0,2.88h5.13v-1.78h-5.13v1.78Z"/>
        <path d="M24.86,330.51c2.5-.09,6.48-.29,10.28-.47l-.04,1.04c-3.69,.2-7.58,.41-10.12,.54l-.13-1.12Zm9.22-11.99h1.06v.92h-1.06v1.84h-3.51v.77h3.76v.85h-3.76v.83h4.52v.94h-10.1v-.94h4.36v-.83h-3.53v-.85h3.53v-.77h-3.4v-.86h3.4v-.97h-4.47v-.92h4.47v-.9h-3.33v-.85h3.33v-1.15h1.22v1.15h3.51v1.75Zm0,6.9v3.98h-8.03v-3.98h8.03Zm-6.93,1.64h2.32v-.88h-2.32v.88Zm0,1.58h2.32v-.9h-2.32v.9Zm3.42-10.12h2.34v-.9h-2.34v.9Zm2.34,.92h-2.34v.97h2.34v-.97Zm.04,6.73h-2.3v.88h2.3v-.88Zm0,1.57h-2.3v.9h2.3v-.9Zm4.16-.13h-1.22v-9.85h1.22v9.85Zm3.44-11.63v14.39c0,.81-.22,1.19-.74,1.4-.52,.2-1.39,.23-2.77,.22-.05-.32-.25-.9-.45-1.24,1.04,.04,2,.04,2.27,.02,.31,0,.41-.09,.41-.4v-14.39h1.28Z"/>
        <path d="M30.8,344.46c-.05-.29-.13-.67-.23-1.08-4.27,.65-4.84,.77-5.2,.97-.07-.27-.27-.94-.41-1.26,.36-.09,.81-.54,1.37-1.19,.31-.31,.94-1.08,1.64-2.07-2.03,.25-2.45,.34-2.72,.47-.05-.27-.25-.86-.4-1.21,.31-.07,.63-.43,1.03-.99,.4-.52,1.73-2.57,2.52-4.56l1.22,.52c-.85,1.71-1.89,3.44-2.94,4.79l2.11-.18c.49-.76,.99-1.57,1.4-2.36l1.15,.7c-1.26,2.07-2.74,4.12-4.27,5.74l3.19-.41c-.18-.59-.4-1.17-.58-1.67l1.03-.31c.49,1.21,1.01,2.77,1.21,3.73l-1.12,.36Zm-3.96,.85c-.2,1.55-.54,3.24-.9,4.36-.27-.14-.81-.32-1.1-.41,.41-1.12,.68-2.68,.86-4.12l1.13,.18Zm2.05-.23c.23,1.21,.45,2.79,.52,3.85l-1.13,.22c-.04-1.04-.23-2.67-.45-3.87l1.06-.2Zm1.93-.47c.4,.97,.79,2.23,.95,3.06l-1.06,.36c-.14-.85-.54-2.12-.88-3.1l.99-.32Zm10.44,3.85v1.22h-9.96v-1.22h1.58v-13.94h7.17v13.94h1.21Zm-7.13-12.71v3.35h4.65v-3.35h-4.65Zm4.65,4.56h-4.65v3.44h4.65v-3.44Zm-4.65,8.16h4.65v-3.51h-4.65v3.51Z"/>
      </g>
      <g>
        <path d="M60.13,270.21c-.34,1.58-.86,3.33-1.49,4.65,.36,.2,.77,.54,1.46,.94,1.26,.77,2.9,.9,5.02,.9,2.32,0,5.22-.18,7.24-.38-.18,.36-.36,.99-.4,1.39-1.35,.09-4.75,.2-6.9,.2-2.36,0-3.94-.2-5.26-.99-.72-.43-1.4-1.04-1.8-1.04s-1.01,1.13-1.51,2.27l-.94-1.21c.63-.9,1.24-1.64,1.8-2,.54-1.03,1.01-2.45,1.28-3.75h-2.34c.49-1.06,1.06-2.59,1.55-4.02h-2.02v-1.21h3.69c-.43,1.3-1.01,2.81-1.48,4.05h1.24l.22-.05,.63,.25Zm-2.45-5.2c-.2-.77-.61-2.02-.92-2.95l1.19-.34c.32,.94,.72,2.12,.95,2.9l-1.22,.4Zm5.08,10.37h-1.28v-9.27h5.15c-1.08-.52-2.36-1.1-3.44-1.49l.85-.74c.77,.25,1.66,.61,2.5,.97,.86-.38,1.75-.92,2.47-1.42h-7.51v-1.06h8.79l.27-.07,.81,.63c-.95,.92-2.3,1.82-3.64,2.47,.52,.27,1.01,.5,1.39,.72h2.27v7.92c0,.67-.14,.97-.61,1.17-.47,.2-1.22,.22-2.43,.22-.05-.34-.2-.79-.36-1.12,.85,.04,1.6,.02,1.82,.02,.23,0,.31-.07,.31-.31v-1.64h-3.13v2.93h-1.21v-2.93h-3.01v3.01Zm0-8.25v1.58h3.01v-1.58h-3.01Zm3.01,4.21v-1.64h-3.01v1.64h3.01Zm4.34-4.21h-3.13v1.58h3.13v-1.58Zm0,4.21v-1.64h-3.13v1.64h3.13Z"/>
        <path d="M62.3,283.76h-6.46v-1.1h6.46v1.1Zm-.67,11.2h-4.02v.85h-1.08v-6.05h5.1v5.2Zm-5.08-8.88v-1.06h5.06v1.06h-5.06Zm0,1.28h5.1v1.06h-5.1v-1.06Zm1.06,3.51v2.97h2.92v-2.97h-2.92Zm1.39-8.41c-.25-.65-.81-1.66-1.26-2.4l.95-.54c.49,.74,1.04,1.69,1.3,2.32l-.99,.61Zm11.31-1.84c-.11,7.27-.14,13.52,.86,13.77,.11,.04,.23-1.12,.31-2.41,.22,.34,.58,.79,.77,.97-.2,2.52-.77,3.1-1.6,2.75-1.76-.54-1.71-6.43-1.69-13.81h-2.99v5.31h2.38v1.24h-2.38v7.58h-1.26v-7.58h-2.43v-1.24h2.43v-5.31h-2.23v-1.28h7.83Z"/>
        <path d="M61.03,298.07c-.5,1.31-1.13,2.65-1.85,3.87v12.03h-1.26v-10.06c-.58,.81-1.19,1.55-1.8,2.18-.14-.29-.58-.94-.83-1.22,1.78-1.73,3.47-4.41,4.48-7.15l1.26,.36Zm8.61,10.95h2.5v1.08h-2.5v2.59c0,.72-.14,1.08-.72,1.26-.54,.22-1.44,.22-2.79,.22-.05-.36-.25-.88-.43-1.22,1.04,.02,2.02,.02,2.29,.02,.29,0,.36-.07,.36-.29v-2.57h-5.19c.81,.68,1.75,1.64,2.2,2.29l-.99,.77c-.45-.68-1.42-1.73-2.25-2.45l.85-.61h-2.75v-1.08h8.14v-1.19c-2.84,.09-5.62,.18-7.67,.23l-.13-1.1c1.35-.02,3.13-.04,5.08-.07v-1.08h-4.21v-4.77h4.21v-.99h-4.92v-1.04h4.92v-1.24h1.31v1.24h5.06v1.04h-5.06v.99h4.3v4.77h-1.3c.86,.67,1.76,1.49,2.27,2.11l-.94,.65c-.2-.23-.45-.52-.76-.83l-.88,.04v1.24Zm-7-6.01h2.99v-1.12h-2.99v1.12Zm2.99,1.96v-1.13h-2.99v1.13h2.99Zm1.31-3.08v1.12h3.01v-1.12h-3.01Zm3.01,3.08v-1.13h-3.01v1.13h3.01Zm-3.01,1.91l2.59-.05c-.34-.31-.68-.59-1.03-.85l.25-.16h-1.82v1.06Z"/>
        <path d="M61.13,324.3c-.63,.23-1.26,.49-1.89,.72v5.47c0,.74-.18,1.1-.63,1.31-.41,.22-1.1,.27-2.23,.25-.05-.32-.22-.86-.4-1.24,.77,.02,1.49,.02,1.69,0,.22,0,.31-.05,.31-.32v-5.01c-.79,.31-1.53,.59-2.21,.85l-.29-1.31c.68-.23,1.55-.52,2.5-.86v-3.69h-2.23v-1.24h2.23v-3.6h1.26v3.6h1.93v1.24h-1.93v3.24l1.66-.61,.23,1.21Zm7.09-2.68c1.44,1.01,3.06,2.27,3.91,3.15l-.76,.85c-.11-.11-.23-.22-.36-.34v6.66h-1.24v-.63h-6.43v.76h-1.21v-6.73c-.27,.16-.5,.27-.77,.4-.18-.29-.56-.76-.83-.99,1.55-.61,3.22-1.82,4.25-3.11h-3.58v-1.12h4.66v-3.02c-1.39,.13-2.84,.22-4.16,.27-.02-.29-.16-.72-.29-.99,3.1-.18,6.86-.52,8.97-1.03l.77,.99c-1.13,.27-2.56,.49-4.07,.63v3.15h1.08c.47-.83,.99-2.11,1.26-3.01l1.17,.38c-.38,.88-.83,1.87-1.24,2.63h2.56v1.12h-3.69Zm-4.57-3.78c.4,.7,.9,1.64,1.13,2.2l-1.1,.41c-.23-.58-.72-1.55-1.12-2.27l1.08-.34Zm2.21,4.18c-.79,1.1-1.93,2.16-3.11,2.94h3.11v-2.94Zm0,4.02h-2.52v1.49h2.52v-1.49Zm-2.52,4.27h2.52v-1.76h-2.52v1.76Zm6.43-4.27h-2.75v1.49h2.75v-1.49Zm0,4.27v-1.76h-2.75v1.76h2.75Zm.94-5.35c-.99-.92-2.38-2.03-3.62-2.88v2.88h3.62Z"/>
        <path d="M61.66,344.46c-.05-.29-.13-.67-.23-1.08-4.27,.65-4.84,.77-5.2,.97-.07-.27-.27-.94-.41-1.26,.36-.09,.81-.54,1.37-1.19,.31-.31,.94-1.08,1.64-2.07-2.03,.25-2.45,.34-2.72,.47-.05-.27-.25-.86-.4-1.21,.31-.07,.63-.43,1.03-.99,.4-.52,1.73-2.57,2.52-4.56l1.22,.52c-.85,1.71-1.89,3.44-2.94,4.79l2.11-.18c.49-.76,.99-1.57,1.4-2.36l1.15,.7c-1.26,2.07-2.74,4.12-4.27,5.74l3.19-.41c-.18-.59-.4-1.17-.58-1.67l1.03-.31c.49,1.21,1.01,2.77,1.21,3.73l-1.12,.36Zm-3.96,.85c-.2,1.55-.54,3.24-.9,4.36-.27-.14-.81-.32-1.1-.41,.41-1.12,.68-2.68,.86-4.12l1.13,.18Zm2.05-.23c.23,1.21,.45,2.79,.52,3.85l-1.13,.22c-.04-1.04-.23-2.67-.45-3.87l1.06-.2Zm1.93-.47c.4,.97,.79,2.23,.95,3.06l-1.06,.36c-.14-.85-.54-2.12-.88-3.1l.99-.32Zm10.44,3.85v1.22h-9.96v-1.22h1.58v-13.94h7.17v13.94h1.21Zm-7.13-12.71v3.35h4.65v-3.35h-4.65Zm4.65,4.56h-4.65v3.44h4.65v-3.44Zm-4.65,8.16h4.65v-3.51h-4.65v3.51Z"/>
      </g>
      <g>
        <path d="M102.81,271.74h-7.38v6.3h-1.37v-6.3h-7.27v-1.31h7.27v-6.28h-6.34v-1.31h14.08v1.31h-6.37v6.28h7.38v1.31Zm-12.66-6.72c.74,1.3,1.48,2.99,1.71,4.05l-1.26,.43c-.25-1.06-.94-2.81-1.62-4.12l1.17-.36Zm7.24,4.16c.67-1.12,1.49-2.95,1.94-4.25l1.4,.4c-.65,1.44-1.51,3.15-2.21,4.23l-1.13-.38Z"/>
        <path d="M102.67,294.65v.99h-15.74v-.99h7.15v-.95h-5.42v-.88h5.42v-.88c-3.51,.09-4.03,.13-4.39,.23-.04-.22-.18-.7-.29-.97,.27-.02,.59-.09,.97-.23,.29-.11,1.01-.43,1.76-.88h-3.1v-.83h11.42v.83h-2.05c.97,.56,1.96,1.26,2.56,1.76l-.83,.7c-.22-.22-.54-.47-.88-.74l-3.85,.09v.92h5.64v.88h-5.64v.95h7.27Zm-8.59-13.05h-7.13v-.94h7.13v-1.06h1.31v1.06h7.26v.94h-7.26v.94h5.92v.88h-13.05v-.88h5.82v-.94Zm6.95,8.5v-1.62h-12.53v1.62h-1.21v-2.56h15v2.56h-1.26Zm-.47-5.92v2.61h-11.49v-2.61h11.49Zm-1.31,.79h-8.93v1.03h8.93v-1.03Zm-5.53,5.11c-.63,.41-1.26,.76-1.89,1.04l6.28-.09c-.47-.31-.95-.58-1.39-.81l.16-.14h-3.17Z"/>
        <path d="M91.94,308.42c-.04-.25-.11-.59-.2-.95-3.82,.58-4.36,.7-4.72,.88-.07-.27-.27-.92-.43-1.24,.4-.09,.81-.54,1.33-1.19,.27-.32,.83-1.08,1.48-2.03-1.85,.22-2.23,.29-2.49,.41-.07-.27-.27-.85-.41-1.19,.31-.07,.61-.43,.99-.99,.38-.52,1.64-2.59,2.38-4.54l1.19,.49c-.79,1.71-1.76,3.44-2.74,4.79l1.86-.14c.45-.76,.92-1.58,1.3-2.39l1.15,.68c-1.15,2.05-2.56,4.14-4,5.8l2.83-.38c-.2-.59-.4-1.21-.61-1.76l1.03-.27c.49,1.17,.99,2.75,1.17,3.69l-1.1,.34Zm-3.46,.9c-.18,1.55-.52,3.28-.92,4.41-.23-.13-.79-.31-1.06-.41,.41-1.12,.68-2.72,.86-4.19l1.12,.2Zm1.75-.23c.23,1.19,.45,2.74,.5,3.78l-1.08,.18c-.04-1.01-.23-2.57-.45-3.78l1.03-.18Zm1.67-.47c.36,.95,.77,2.2,.92,3.01l-.99,.34c-.16-.83-.54-2.09-.88-3.04l.96-.31Zm10.98,3.78v1.22h-10.25v-1.22h4.57v-3.42h-3.58v-1.21h8.53v1.21h-3.64v3.42h4.36Zm-7.69-5.24c-.38-.94-1.22-2.32-2.14-3.55,.72-1.1,1.48-2.47,1.89-3.31l1.17,.31c-.49,.92-1.17,2.07-1.76,2.97,.79,1.04,1.58,2.3,1.98,3.11l-1.13,.47Zm7.53-7.44h-9.49v-1.22h9.49v1.22Zm-3.51,.9c-.5,.9-1.19,2.05-1.8,2.93,.79,1.03,1.62,2.27,2.04,3.06l-1.1,.5c-.4-.94-1.28-2.32-2.25-3.53,.72-1.08,1.53-2.43,1.95-3.28l1.17,.31Zm2.32,6.54c-.45-.94-1.41-2.34-2.43-3.55,.76-1.1,1.6-2.47,2.02-3.31l1.19,.32c-.52,.92-1.26,2.05-1.85,2.95,.85,1.01,1.73,2.25,2.16,3.06l-1.08,.52Z"/>
        <path d="M87.13,320.79c.97,.49,2.2,1.28,2.83,1.87l-.7,.94c-.59-.61-1.8-1.44-2.77-2l.65-.81Zm-.47,10.3c.7-1.37,1.67-3.69,2.38-5.65l.88,.67c-.65,1.85-1.53,4.03-2.27,5.65l-.99-.67Zm2.9-12.15c-.52-.7-1.66-1.69-2.59-2.36l.72-.77c.94,.63,2.09,1.58,2.63,2.25l-.76,.88Zm10.17,5.47h1.26v7.67h-1.26v-2.84h-6.52c-.31,1.04-.9,2.07-2.03,2.86-.22-.23-.68-.58-1.01-.72,1.85-1.3,2.12-3.17,2.12-4.56v-2.4h1.24v1.17h6.19v-1.19Zm-4.75-4.52s-.02,.27-.02,.43c-.07,2.29-.13,3.17-.4,3.48-.16,.22-.38,.32-.72,.34-.23,.04-.63,.04-.97,.02-.02-.29-.11-.65-.23-.9,.38,.04,.67,.04,.81,.04,.16,.02,.25-.02,.32-.13,.13-.18,.16-.77,.23-2.36h-1.03c-.25,1.67-.88,2.9-2.07,3.67-.09-.2-.4-.58-.59-.76,.97-.63,1.49-1.6,1.71-2.92h-1.03v-.92h3.98Zm7.74-1.46h-11.83v-1.1h5.11c-.09-.52-.23-1.19-.41-1.69l1.22-.16c.22,.58,.43,1.35,.52,1.85h5.38v1.1Zm-2.99,9.72v-1.48h-6.19v.16c0,.41-.02,.86-.09,1.31h6.28Zm-4.25-7.83c-.13-.43-.47-1.04-.79-1.49l.76-.32c.36,.43,.7,1.03,.85,1.4l-.81,.41Zm3.31-1.51c-.52,.61-1.19,1.24-1.71,1.73v3.8h-1.03v-3.8c.59-.58,1.37-1.48,1.76-2.09l.97,.36Zm3.31,1.08c-.34,.18-.72,.34-1.15,.5,.36,1.3,.95,2.54,1.82,3.13-.22,.16-.49,.49-.63,.72-.94-.76-1.57-2.14-1.91-3.62-.36,.11-.72,.2-1.04,.29v2.27l1.44-.41c.02,.23,.09,.58,.14,.76-1.84,.61-2.2,.77-2.39,.94v-.02c-.09-.22-.31-.67-.45-.88,.18-.13,.4-.4,.4-1.08v-2.18c1.06-.27,2.27-.68,2.95-1.1l.83,.68Z"/>
        <path d="M92.51,344.46c-.05-.29-.13-.67-.23-1.08-4.27,.65-4.84,.77-5.2,.97-.07-.27-.27-.94-.41-1.26,.36-.09,.81-.54,1.37-1.19,.31-.31,.94-1.08,1.64-2.07-2.03,.25-2.45,.34-2.72,.47-.05-.27-.25-.86-.4-1.21,.31-.07,.63-.43,1.03-.99,.4-.52,1.73-2.57,2.52-4.56l1.22,.52c-.85,1.71-1.89,3.44-2.94,4.79l2.11-.18c.49-.76,.99-1.57,1.41-2.36l1.15,.7c-1.26,2.07-2.74,4.12-4.27,5.74l3.19-.41c-.18-.59-.4-1.17-.58-1.67l1.03-.31c.49,1.21,1.01,2.77,1.21,3.73l-1.12,.36Zm-3.96,.85c-.2,1.55-.54,3.24-.9,4.36-.27-.14-.81-.32-1.1-.41,.41-1.12,.68-2.68,.86-4.12l1.13,.18Zm2.05-.23c.23,1.21,.45,2.79,.52,3.85l-1.13,.22c-.04-1.04-.23-2.67-.45-3.87l1.06-.2Zm1.93-.47c.4,.97,.79,2.23,.95,3.06l-1.06,.36c-.14-.85-.54-2.12-.88-3.1l.99-.32Zm10.44,3.85v1.22h-9.96v-1.22h1.58v-13.94h7.17v13.94h1.21Zm-7.13-12.71v3.35h4.65v-3.35h-4.65Zm4.65,4.56h-4.65v3.44h4.65v-3.44Zm-4.65,8.16h4.65v-3.51h-4.65v3.51Z"/>
      </g>
      <g>
        <path d="M120.29,273c-.43,1.28-1.19,2.68-1.85,3.58-.22-.16-.67-.5-.94-.65,.7-.85,1.33-2.07,1.69-3.24l1.1,.31Zm2.21-1.26v6.25h-1.31v-6.25h-3.58v-1.15h3.58v-1.89h-3.67v-1.13h4.97c.34-.83,.76-2.02,.97-2.84l1.22,.25c-.32,.86-.67,1.84-1.01,2.59h2.29v1.13h-3.46v1.89h3.26v1.15h-3.26Zm3.19-7.13h-7.89v-1.12h3.53c-.23-.54-.54-1.15-.79-1.64l1.3-.34c.38,.61,.77,1.39,1.01,1.98h2.84v1.12Zm-6.03,2.88c-.09-.67-.38-1.71-.68-2.5l1.06-.25c.36,.77,.67,1.78,.74,2.45l-1.12,.31Zm4.57,5.1c.58,.88,1.21,2.05,1.51,2.83l-.95,.54c-.29-.77-.94-2.02-1.48-2.88l.92-.49Zm9.6-3.69h-1.98v9.07h-1.3v-9.07h-2.47v.63c0,2.57-.23,6.1-1.87,8.44-.22-.25-.74-.67-1.03-.81,1.51-2.16,1.66-5.24,1.66-7.63v-6.19c2.02-.32,4.32-.86,5.6-1.4l1.08,.99c-1.48,.56-3.55,1.01-5.44,1.3v3.42h5.74v1.26Z"/>
        <path d="M133.71,290.55v1.24h-16.15v-1.24h1.44l-.29-9.58c1.03-.32,2.27-.76,3.08-1.13l.63,1.15c-.76,.27-1.67,.54-2.5,.76l.05,2.12h2.03v1.12h-2l.07,2.23h2.02v1.12h-1.98l.05,2.21h2.36v-10.03h6.21v10.03h2.39c.04-.65,.07-1.39,.11-2.16h-2.03v-1.12h2.07c.02-.72,.05-1.49,.07-2.23h-2.03v-1.12h2.05c.02-.83,.04-1.64,.04-2.4h-2.18v-1.12h3.38c-.04,3.15-.16,7.4-.31,10.14h1.4Zm-9.87,2.39c-1.46,1.1-3.6,2.32-5.37,3.08-.16-.27-.52-.72-.79-1.01,1.73-.7,3.91-1.89,5.01-2.88l1.15,.81Zm-.31-2.39h4.16v-8.97h-4.16v8.97Zm3.58-7.71v.92h-3.08v-.92h3.08Zm-2.84,2.12h2.74v4.14h-2.74v-4.14Zm.7,3.28h1.31v-2.41h-1.31v2.41Zm3.13,3.76c1.91,.9,3.94,2.03,5.22,2.88l-.88,1.03c-1.22-.88-3.21-2.05-5.08-2.99l.74-.92Z"/>
        <path d="M124.18,310.12l.16,1.17-6.61,1.85-.34-1.28,.88-.22v-6.1h1.08v5.85l1.3-.34v-7.2h-2.47v-5.47h5.33v5.47h-1.69v2.48h1.85v1.19h-1.85v3.22l2.36-.63Zm-4.88-7.44h3.04v-3.13h-3.04v3.13Zm11.4-1.64c.83,1.33,2.12,2.63,3.39,3.29-.27,.23-.68,.68-.88,1.03-.72-.47-1.48-1.15-2.14-1.93v1.12h-4.79v-.95c-.63,.59-1.31,1.15-2.05,1.6-.13-.27-.49-.9-.68-1.17,1.31-.74,2.43-1.75,3.33-2.99h-2.5v-1.17h3.22c.31-.61,.59-1.3,.81-2.02l1.17,.31c-.18,.59-.4,1.17-.65,1.71h4.75v1.17h-2.97Zm-6.55,5.01h9.42v1.15h-6.03c-.18,.59-.36,1.22-.54,1.78h5.56s-.02,.36-.04,.56c-.25,2.54-.5,3.64-.99,4.09-.36,.36-.77,.45-1.44,.47-.54,.04-1.69,.02-2.9-.05-.04-.36-.23-.83-.47-1.17,1.24,.11,2.54,.13,3.01,.13,.38,0,.61,0,.79-.14,.31-.25,.52-1.04,.72-2.74h-5.87c.31-.81,.65-1.94,.92-2.92h-2.14v-1.15Zm6.91-2.61c-.67-.74-1.22-1.57-1.66-2.39h-1.1c-.54,.9-1.17,1.69-1.87,2.39h4.63Z"/>
        <path d="M122.65,327.22c-1.64,.85-3.4,1.73-4.79,2.41l-.52-1.31c.58-.23,1.26-.54,2.02-.88v-6.19h-1.89v-1.26h1.89v-4.16h1.26v4.16h1.64v1.26h-1.64v5.6c.54-.25,1.12-.54,1.67-.81l.36,1.19Zm5.76,1.08c-2.14,.63-4.39,1.28-6.1,1.76l-.36-1.26c1.62-.36,4.02-1.03,6.34-1.64l.13,1.13Zm4.92-6.88c-.65,2.36-1.51,4.43-2.63,6.21,.43,1.96,.97,3.13,1.64,3.13,.34,0,.5-.7,.58-2.57,.27,.31,.67,.56,.95,.7-.2,2.4-.56,3.15-1.69,3.15s-1.87-1.15-2.43-3.08c-.88,1.15-1.91,2.12-3.04,2.94-.2-.23-.7-.67-.99-.88,1.46-.92,2.66-2.14,3.66-3.57-.41-2.16-.65-4.92-.76-7.96h-6.05v-1.24h6.01c-.04-.86-.05-1.75-.05-2.63h1.3c0,.9,0,1.78,.02,2.63h2.83c-.45-.54-1.37-1.35-2.14-1.93l.77-.67c.79,.52,1.75,1.3,2.2,1.85l-.79,.74h.95v1.24h-3.78c.07,2.39,.25,4.56,.5,6.32,.74-1.4,1.3-2.94,1.73-4.63l1.22,.23Zm-5.78-.23v5.19h-4.47v-5.19h4.47Zm-1.1,1.08h-2.32v3.02h2.32v-3.02Z"/>
        <path d="M123.37,344.46c-.05-.29-.13-.67-.23-1.08-4.27,.65-4.84,.77-5.2,.97-.07-.27-.27-.94-.41-1.26,.36-.09,.81-.54,1.37-1.19,.31-.31,.94-1.08,1.64-2.07-2.03,.25-2.45,.34-2.72,.47-.05-.27-.25-.86-.4-1.21,.31-.07,.63-.43,1.03-.99,.4-.52,1.73-2.57,2.52-4.56l1.22,.52c-.85,1.71-1.89,3.44-2.94,4.79l2.11-.18c.49-.76,.99-1.57,1.4-2.36l1.15,.7c-1.26,2.07-2.74,4.12-4.27,5.74l3.19-.41c-.18-.59-.4-1.17-.58-1.67l1.03-.31c.49,1.21,1.01,2.77,1.21,3.73l-1.12,.36Zm-3.96,.85c-.2,1.55-.54,3.24-.9,4.36-.27-.14-.81-.32-1.1-.41,.41-1.12,.68-2.68,.86-4.12l1.13,.18Zm2.05-.23c.23,1.21,.45,2.79,.52,3.85l-1.13,.22c-.04-1.04-.23-2.67-.45-3.87l1.06-.2Zm1.93-.47c.4,.97,.79,2.23,.95,3.06l-1.06,.36c-.14-.85-.54-2.12-.88-3.1l.99-.32Zm10.44,3.85v1.22h-9.96v-1.22h1.58v-13.94h7.17v13.94h1.21Zm-7.13-12.71v3.35h4.65v-3.35h-4.65Zm4.65,4.56h-4.65v3.44h4.65v-3.44Zm-4.65,8.16h4.65v-3.51h-4.65v3.51Z"/>
      </g>
      <g>
        <path d="M156.28,273.43c-.16,.79-.56,1.6-1.55,2.38,.81,.36,1.53,.72,2.07,1.06l-.88,.77c-.58-.36-1.35-.77-2.21-1.17-1.15,.59-2.77,1.13-5.04,1.55-.11-.27-.36-.67-.56-.9,1.91-.32,3.33-.74,4.34-1.19-.92-.4-1.87-.74-2.77-.99,.29-.36,.61-.76,.92-1.19l-2.12,.11-.13-.99c.81-.02,1.82-.07,2.92-.11,.27-.49,.56-.95,.81-1.42h-2.93v-2.94h3.4v-.74h-2.9v-1.94h-1.21v-1.03h1.21v-1.84h2.9v-1.26h1.06v1.26h3.06v1.84h1.22v1.03h-1.22v1.94h-3.06v.74h3.49v2.94h-3.8c-.22,.45-.47,.9-.76,1.35,.88-.04,1.8-.09,2.74-.14v-.85h1.1v.79l.9-.05-.02,.94-.97,.05Zm-6-2.99h2.25v-1.12h-2.25v1.12Zm.5-6.64v.95h1.75v-.95h-1.75Zm1.75,2.94v-1.08h-1.75v1.08h1.75Zm-.63,6.93c-.18,.29-.38,.56-.56,.81,.74,.23,1.51,.52,2.25,.83,.9-.58,1.31-1.22,1.51-1.8l-3.21,.16Zm1.69-9.87v.95h1.87v-.95h-1.87Zm1.87,2.94v-1.08h-1.87v1.08h1.87Zm-1.87,2.59v1.12h2.3v-1.12h-2.3Zm9.79-3.08c-.34,2.68-.81,4.97-1.64,6.9,.79,1.62,1.76,2.94,3.04,3.75-.27,.23-.63,.63-.81,.95-1.17-.81-2.11-1.98-2.83-3.4-.81,1.48-1.85,2.72-3.26,3.71-.11-.25-.49-.77-.74-1.01,1.53-1.01,2.61-2.36,3.38-4.05-.58-1.4-.99-3.01-1.31-4.75-.29,.74-.59,1.4-.95,1.98-.2-.18-.65-.63-.92-.81,1.19-1.89,1.89-4.81,2.3-7.76l1.13,.18c-.14,1.04-.34,2.11-.58,3.12h4.39v1.21h-1.22Zm-3.46,0c.27,1.91,.67,3.73,1.21,5.33,.52-1.55,.83-3.33,1.04-5.33h-2.25Z"/>
        <path d="M153.94,280.05c-.49,1.31-1.12,2.59-1.82,3.82v12.15h-1.33v-10.07c-.56,.81-1.17,1.53-1.78,2.18-.13-.32-.5-1.01-.76-1.31,1.76-1.73,3.44-4.41,4.43-7.15l1.26,.38Zm10.66,13.97v1.3h-11.2v-1.3h6.28c.65-2.41,1.37-6.23,1.71-8.91l1.39,.25c-.47,2.75-1.21,6.27-1.85,8.66h3.67Zm-.74-9.87h-9.71v-1.3h9.71v1.3Zm-7.31,9.04c-.14-1.87-.67-5.17-1.22-7.67l1.21-.27c.59,2.5,1.13,5.73,1.33,7.56l-1.31,.38Zm2.04-10.53c-.14-.76-.5-1.96-.85-2.86l1.26-.32c.32,.9,.74,2.05,.9,2.79l-1.31,.4Z"/>
        <path d="M154.68,312.46c0,.72-.14,1.12-.61,1.35-.45,.23-1.17,.25-2.38,.25-.04-.34-.22-.94-.4-1.28,.83,.02,1.58,.02,1.8,0,.25-.02,.34-.09,.34-.34v-4.43h-2.83c-.16,2.12-.52,4.38-1.35,6.07-.23-.22-.77-.52-1.1-.65,1.24-2.52,1.33-6.09,1.33-8.73v-6.43h5.19v14.19Zm-1.24-5.73v-3.02h-2.72v.99c0,.61-.02,1.31-.04,2.03h2.75Zm-2.72-7.22v2.95h2.72v-2.95h-2.72Zm13.65,5.11c-.47,2.45-1.33,4.47-2.47,6.07,.86,.99,1.87,1.8,3.01,2.36-.31,.25-.67,.7-.86,1.03-1.08-.61-2.05-1.42-2.92-2.43-.81,.95-1.73,1.73-2.72,2.3-.18-.31-.52-.76-.79-.99,.99-.54,1.93-1.31,2.75-2.29-1.01-1.46-1.8-3.19-2.39-5.04h-.45v8.43h-1.26v-15.74h7.6v3.46c0,.68-.16,1.03-.7,1.22-.58,.18-1.48,.18-2.83,.18-.05-.36-.25-.81-.43-1.13,1.1,.02,2.03,.02,2.3,0,.29,0,.36-.07,.36-.29v-2.2h-5.04v4.83h5.83l.23-.04,.77,.27Zm-5.22,1.01c.49,1.48,1.13,2.84,1.96,4.03,.77-1.15,1.39-2.5,1.8-4.03h-3.76Z"/>
        <path d="M163.14,318.64c-.5,1.22-1.22,2.25-2.12,3.1,1.15,.7,2.48,1.26,3.91,1.58-.29,.27-.67,.77-.86,1.13-1.5-.41-2.86-1.06-4.05-1.91-1.15,.83-2.52,1.42-4.03,1.89-.09-.18-.27-.47-.45-.74-.34,1.06-.72,2.09-1.12,2.83l-.92-.5c.38-.76,.74-1.87,1.03-2.93h-1.73v7.4c0,.68-.13,1.03-.59,1.24-.47,.18-1.17,.2-2.25,.2-.07-.34-.23-.86-.41-1.19,.77,.02,1.48,.02,1.71,.02,.22-.02,.29-.07,.29-.27v-5.67c-.7,1.69-1.62,3.35-2.59,4.36-.14-.4-.49-.92-.72-1.26,1.13-1.1,2.23-3.01,2.9-4.83h-2.72v-1.19h4.83c-.95-.83-2.59-1.8-4-2.41l.79-.86c.58,.25,1.21,.54,1.8,.88,.68-.52,1.37-1.19,1.89-1.82h-5.11v-1.17h6.07l.23-.05,.88,.58c-.68,1.06-1.85,2.21-2.93,3.06,.59,.36,1.12,.74,1.49,1.08l-.61,.72h1.24l.2-.07,.81,.32c-.09,.32-.18,.65-.29,.99,1.22-.36,2.34-.81,3.28-1.42-.74-.65-1.37-1.4-1.87-2.21-.47,.52-.95,1.01-1.44,1.4-.22-.23-.74-.67-1.04-.86,1.44-1.06,2.75-2.68,3.49-4.43l1.28,.34c-.23,.52-.5,1.04-.81,1.55h6v1.13h-1.42Zm-.36,6.99h1.35s-.02,.4-.05,.59c-.31,3.35-.67,4.7-1.19,5.22-.34,.34-.68,.43-1.22,.47-.43,.04-1.21,.02-2.02-.02-.02-.34-.14-.85-.36-1.17,.79,.07,1.55,.09,1.89,.09,.27,0,.45-.04,.61-.18,.36-.34,.63-1.4,.9-3.85h-2.99c-.61,2.32-1.87,4.23-4.79,5.37-.18-.32-.56-.85-.85-1.1,2.54-.9,3.69-2.43,4.25-4.27h-2.83v-1.13h3.1c.11-.58,.18-1.19,.23-1.8h1.35c-.05,.61-.13,1.22-.23,1.8h2.84v-.02Zm-4.86-6.99c.5,.86,1.19,1.66,2.03,2.34,.74-.65,1.31-1.42,1.73-2.34h-3.76Z"/>
        <path d="M154.23,344.46c-.05-.29-.13-.67-.23-1.08-4.27,.65-4.84,.77-5.2,.97-.07-.27-.27-.94-.41-1.26,.36-.09,.81-.54,1.37-1.19,.31-.31,.94-1.08,1.64-2.07-2.04,.25-2.45,.34-2.72,.47-.05-.27-.25-.86-.4-1.21,.31-.07,.63-.43,1.03-.99,.4-.52,1.73-2.57,2.52-4.56l1.22,.52c-.85,1.71-1.89,3.44-2.93,4.79l2.11-.18c.49-.76,.99-1.57,1.4-2.36l1.15,.7c-1.26,2.07-2.74,4.12-4.27,5.74l3.19-.41c-.18-.59-.4-1.17-.58-1.67l1.03-.31c.49,1.21,1.01,2.77,1.21,3.73l-1.12,.36Zm-3.96,.85c-.2,1.55-.54,3.24-.9,4.36-.27-.14-.81-.32-1.1-.41,.41-1.12,.68-2.68,.86-4.12l1.13,.18Zm2.05-.23c.23,1.21,.45,2.79,.52,3.85l-1.13,.22c-.04-1.04-.23-2.67-.45-3.87l1.06-.2Zm1.93-.47c.4,.97,.79,2.23,.95,3.06l-1.06,.36c-.14-.85-.54-2.12-.88-3.1l.99-.32Zm10.44,3.85v1.22h-9.96v-1.22h1.58v-13.94h7.17v13.94h1.21Zm-7.13-12.71v3.35h4.65v-3.35h-4.65Zm4.65,4.56h-4.65v3.44h4.65v-3.44Zm-4.65,8.16h4.65v-3.51h-4.65v3.51Z"/>
      </g>
    </g>
    <g>
      <path class="cls-1" d="M62.89,240.95c-1.3,.97-3.65,1.89-5.53,2.32-.18-.32-.54-.76-.81-1.01,1.85-.31,4.14-1.01,5.33-1.78l1.01,.47Zm9.4-2.5v1.13h-7.22v4.27h-1.31v-4.27h-7.11v-1.13h7.11v-1.35h-5.42v-1.03h5.42v-1.3h-6.34v-1.08h3.89c-.18-.5-.54-1.21-.92-1.73l.95-.25h-4.65v-1.12h2.9c-.27-.72-.88-1.8-1.44-2.61l1.13-.4c.63,.81,1.28,1.93,1.53,2.65l-.9,.36h2.2v-3.19h1.26v3.19h2.14v-3.19h1.28v3.19h2.18l-.72-.23c.5-.74,1.08-1.93,1.39-2.74l1.37,.38c-.5,.92-1.1,1.91-1.57,2.59h2.77v1.12h-4.68l1.17,.32c-.41,.59-.85,1.21-1.24,1.66h4.12v1.08h-6.52v1.3h5.64v1.03h-5.64v1.35h7.22Zm-10.6-6.73c.41,.56,.79,1.3,.95,1.78l-.74,.2h4.97l-.63-.2c.36-.5,.81-1.26,1.06-1.78h-5.62Zm5.35,8.68c1.69,.56,3.98,1.42,5.22,2l-.83,.85c-1.19-.58-3.48-1.49-5.19-2.12l.79-.72Z"/>
      <path class="cls-1" d="M90.88,230.44c-.5,1.22-1.22,2.25-2.12,3.1,1.15,.7,2.48,1.26,3.91,1.58-.29,.27-.67,.77-.86,1.13-1.49-.41-2.86-1.06-4.05-1.91-1.15,.83-2.52,1.42-4.03,1.89-.09-.18-.27-.47-.45-.74-.34,1.06-.72,2.09-1.12,2.83l-.92-.5c.38-.76,.74-1.87,1.03-2.93h-1.73v7.4c0,.68-.13,1.03-.59,1.24-.47,.18-1.17,.2-2.25,.2-.07-.34-.23-.86-.41-1.19,.77,.02,1.48,.02,1.71,.02,.22-.02,.29-.07,.29-.27v-5.67c-.7,1.69-1.62,3.35-2.59,4.36-.14-.4-.49-.92-.72-1.26,1.13-1.1,2.23-3.01,2.9-4.83h-2.72v-1.19h4.83c-.95-.83-2.59-1.8-4-2.41l.79-.86c.58,.25,1.21,.54,1.8,.88,.68-.52,1.37-1.19,1.89-1.82h-5.11v-1.17h6.07l.23-.05,.88,.58c-.68,1.06-1.85,2.21-2.93,3.06,.59,.36,1.12,.74,1.49,1.08l-.61,.72h1.24l.2-.07,.81,.32c-.09,.32-.18,.65-.29,.99,1.22-.36,2.34-.81,3.28-1.42-.74-.65-1.37-1.4-1.87-2.21-.47,.52-.95,1.01-1.44,1.4-.22-.23-.74-.67-1.04-.86,1.44-1.06,2.75-2.68,3.49-4.43l1.28,.34c-.23,.52-.5,1.04-.81,1.55h6v1.13h-1.42Zm-.36,6.99h1.35s-.02,.4-.05,.59c-.31,3.35-.67,4.7-1.19,5.22-.34,.34-.68,.43-1.22,.47-.43,.04-1.21,.02-2.02-.02-.02-.34-.14-.85-.36-1.17,.79,.07,1.55,.09,1.89,.09,.27,0,.45-.04,.61-.18,.36-.34,.63-1.4,.9-3.85h-2.99c-.61,2.32-1.87,4.23-4.79,5.37-.18-.32-.56-.85-.85-1.1,2.54-.9,3.69-2.43,4.25-4.27h-2.83v-1.13h3.1c.11-.58,.18-1.19,.23-1.8h1.35c-.05,.61-.13,1.22-.23,1.8h2.84v-.02Zm-4.86-6.99c.5,.86,1.19,1.66,2.03,2.34,.74-.65,1.31-1.42,1.73-2.34h-3.76Z"/>
      <path class="cls-1" d="M111.96,241.31h-7.31v2.52h-1.35v-2.52h-7.15v-1.19h7.15v-1.35h-5.37v-6.28h12.37v6.28h-5.65v1.35h7.31v1.19Zm-8.55-9.67h-5.94v-3.53h5.94v3.53Zm-1.28-2.63h-3.46v1.71h3.46v-1.71Zm-2.9,6.09h4.07v-1.53h-4.07v1.53Zm4.07,2.59v-1.57h-4.07v1.57h4.07Zm5.64-4.12h-4.29v1.53h4.29v-1.53Zm0,2.56h-4.29v1.57h4.29v-1.57Zm1.85-4.48h-5.98v-3.53h5.98v3.53Zm-1.26-2.63h-3.51v1.71h3.51v-1.71Z"/>
      <path class="cls-1" d="M121.28,227.84c-.49,1.31-1.12,2.59-1.82,3.82v12.15h-1.33v-10.07c-.56,.81-1.17,1.53-1.78,2.18-.13-.32-.5-1.01-.76-1.31,1.76-1.73,3.44-4.41,4.43-7.15l1.26,.38Zm10.66,13.97v1.3h-11.2v-1.3h6.28c.65-2.41,1.37-6.23,1.71-8.91l1.39,.25c-.47,2.75-1.21,6.27-1.85,8.66h3.67Zm-.74-9.87h-9.7v-1.3h9.7v1.3Zm-7.31,9.04c-.14-1.87-.67-5.17-1.22-7.67l1.21-.27c.59,2.5,1.13,5.73,1.33,7.56l-1.31,.38Zm2.03-10.53c-.14-.76-.5-1.96-.85-2.86l1.26-.32c.32,.9,.74,2.05,.9,2.79l-1.31,.4Z"/>
    </g>
    <g>
      <g>
        <path d="M345.09,276.15v1.31h-15.92v-1.31h7.2v-4.41h-5.55v-1.3h5.55v-3.94h-6.37v-1.31h7.9c-.7-.83-1.98-1.96-3.06-2.75l1.08-.76c1.15,.83,2.59,2.05,3.29,2.9l-.85,.61h5.82v1.31h-6.39v3.94h5.65v1.3h-5.65v4.41h7.29Z"/>
        <path d="M336.7,283.76h-7.4v-1.1h7.4v1.1Zm-6.61,1.26h5.85v1.06h-5.85v-1.06Zm5.8,3.4h-5.8v-1.06h5.8v1.06Zm.05,6.54h-4.54v.85h-1.17v-6.05h5.71v5.2Zm-4.54-4.09v2.97h3.35v-2.97h-3.35Zm1.35-8.41c-.25-.65-.83-1.66-1.31-2.4l1.01-.52c.54,.74,1.12,1.67,1.39,2.3l-1.08,.61Zm12.48,4.66h-3.69v8.93h-1.35v-8.93h-3.53v-1.31h3.53v-5.87h1.35v5.87h3.69v1.31Z"/>
        <path d="M345.06,312.33v1.21h-15.86v-1.21h7.22v-2.38h-5.58v-1.19h5.58v-1.89h1.35v1.89h5.71v1.19h-5.71v2.38h7.29Zm-14.35-9.97h-1.3v-3.17h7.24c-.2-.45-.47-.97-.7-1.39l1.28-.38c.32,.54,.7,1.24,.92,1.76h6.66v3.17h-1.35v-1.93h-12.75v1.93Zm11.81,5.06c-.25-.32-.59-.74-1.03-1.15-8.53,.67-9.38,.72-9.94,.95-.07-.27-.25-.88-.4-1.22,.34-.05,.76-.29,1.22-.65,.4-.27,1.48-1.13,2.48-2.16h-3.64v-1.17h11.87v1.17h-6.5c-.95,.95-2,1.85-3.04,2.61l6.95-.49c-.49-.45-.99-.88-1.46-1.26l.99-.63c1.22,.95,2.77,2.32,3.53,3.26l-1.04,.74Z"/>
      </g>
      <g>
        <path d="M272.4,272.51c-.23-.54-.76-1.55-1.22-2.39v8.03h-1.26v-7.47c-.61,1.67-1.39,3.29-2.16,4.32-.13-.38-.47-.95-.7-1.28,1.01-1.3,2.11-3.62,2.72-5.65h-2.32v-1.26h2.47v-2.9c-.63,.14-1.28,.27-1.87,.38-.07-.31-.25-.76-.4-1.06,1.67-.32,3.64-.85,4.77-1.4l.83,1.08c-.59,.27-1.31,.5-2.07,.72v3.19h2.07v1.26h-2.07v.4c.45,.59,1.76,2.48,2.05,2.97l-.83,1.08Zm10.05,1.06c-.22-1.46-.92-3.66-1.69-5.33-.92,2.21-2.04,4.2-3.35,5.92v1.76c0,.72,.11,.85,.77,.85h2.12c.61,0,.72-.47,.79-2.68,.29,.25,.81,.47,1.15,.52-.14,2.57-.49,3.33-1.84,3.33h-2.4c-1.49,0-1.89-.43-1.89-2.04v-.23c-.72,.77-1.49,1.5-2.32,2.12-.22-.25-.77-.7-1.08-.92,1.28-.9,2.39-1.98,3.4-3.19v-8.16h1.28v6.41c1.69-2.59,2.93-5.71,3.87-9.17l1.28,.25c-.52,1.84-1.1,3.57-1.78,5.19l1.13-.34c.79,1.69,1.51,3.89,1.75,5.33l-1.21,.36Zm-9.63-.63c.72-1.4,1.13-3.73,1.31-5.55l1.03,.23c-.22,1.84-.59,4.29-1.3,5.71l-1.04-.4Zm6.34-7.67c-.72-.77-2.23-1.95-3.44-2.72l.81-.88c1.21,.72,2.74,1.82,3.48,2.59l-.85,1.01Z"/>
        <path d="M283.33,288.73v1.01h-15.9v-1.01h7.2v-1.06h-6v-.9h6v-.92h-5.51v-.9h5.51v-1.12h-7.18v-1.01h7.18v-1.01h-5.29v-.9h5.29v-1.26h1.33v1.26h5.15v1.91h2.14v1.01h-2.14v2.02h-5.15v.92h6.08v.9h-6.08v1.06h7.36Zm-13.61,1.89h11.49v5.58h-1.33v-.63h-8.86v.63h-1.3v-5.58Zm1.3,.92v1.08h8.86v-1.08h-8.86Zm8.86,3.1v-1.13h-8.86v1.13h8.86Zm-3.91-11.81h3.82v-1.01h-3.82v1.01Zm0,2.12h3.82v-1.12h-3.82v1.12Z"/>
        <path d="M283.34,312.4v1.21h-15.86v-1.21h7.22v-2.38h-5.58v-1.19h5.58v-1.89h1.35v1.89h5.71v1.19h-5.71v2.38h7.29Zm-14.35-9.97h-1.3v-3.17h7.24c-.2-.45-.47-.97-.7-1.39l1.28-.38c.32,.54,.7,1.24,.92,1.76h6.66v3.17h-1.35v-1.93h-12.75v1.93Zm11.81,5.06c-.25-.32-.59-.74-1.03-1.15-8.53,.67-9.38,.72-9.94,.95-.07-.27-.25-.88-.4-1.22,.34-.05,.76-.29,1.22-.65,.4-.27,1.48-1.13,2.48-2.16h-3.64v-1.17h11.87v1.17h-6.5c-.95,.95-2,1.85-3.04,2.61l6.95-.49c-.49-.45-.99-.88-1.46-1.26l.99-.63c1.22,.95,2.77,2.32,3.53,3.26l-1.04,.74Z"/>
      </g>
      <g>
        <path d="M306.96,261.69c-.02,.65-.04,1.55-.13,2.61,.27,2.14,1.35,9.67,7.71,12.5-.38,.31-.77,.76-.97,1.13-4.5-2.11-6.43-6.55-7.29-9.9-.83,3.6-2.74,7.63-7.13,9.98-.23-.36-.67-.76-1.08-1.04,7.47-3.78,7.36-12.53,7.42-15.27h1.48Z"/>
        <path d="M314.36,290.96h-1.85v3.19h-1.33v-.81h-4.32v1.24c0,.83-.25,1.13-.79,1.33-.56,.2-1.49,.22-2.99,.22-.07-.34-.29-.83-.47-1.13,1.08,.04,2.16,.02,2.47,.02,.34-.02,.45-.13,.45-.43v-1.24h-5.82v-1.03h5.82v-1.35h-7.36v-1.06h7.36v-1.26h-5.65v-.99h5.65v-1.26h-5.15v-3.17h5.15v-1.04h-7.02v-1.1h7.02v-1.44h1.33v1.44h7.17v1.1h-7.17v1.04h5.37v3.17h-5.37v1.26h5.65v2.25h1.85v1.06Zm-8.84-5.51v-1.3h-3.87v1.3h3.87Zm1.33-1.3v1.3h4.03v-1.3h-4.03Zm0,5.74h4.32v-1.26h-4.32v1.26Zm4.32,1.06h-4.32v1.35h4.32v-1.35Z"/>
        <path d="M314.2,312.35v1.21h-15.86v-1.21h7.22v-2.38h-5.58v-1.19h5.58v-1.89h1.35v1.89h5.71v1.19h-5.71v2.38h7.29Zm-14.35-9.97h-1.3v-3.17h7.24c-.2-.45-.47-.97-.7-1.39l1.28-.38c.32,.54,.7,1.24,.92,1.76h6.66v3.17h-1.35v-1.93h-12.75v1.93Zm11.81,5.06c-.25-.32-.59-.74-1.03-1.15-8.53,.67-9.38,.72-9.94,.95-.07-.27-.25-.88-.4-1.22,.34-.05,.76-.29,1.22-.65,.4-.27,1.48-1.13,2.48-2.16h-3.64v-1.17h11.87v1.17h-6.5c-.95,.95-2,1.85-3.04,2.61l6.95-.49c-.49-.45-.99-.88-1.46-1.26l.99-.63c1.22,.95,2.77,2.32,3.53,3.26l-1.04,.74Z"/>
      </g>
      <g>
        <path d="M375.82,266.19c-.49,2.99-1.21,5.4-2.38,7.36,.97,1.49,2.2,2.65,3.75,3.37-.29,.27-.7,.79-.92,1.13-1.48-.77-2.67-1.91-3.62-3.31-1.03,1.35-2.36,2.47-4.05,3.35-.14-.31-.52-.88-.77-1.17,1.76-.85,3.08-1.96,4.09-3.4-.79-1.48-1.39-3.21-1.85-5.11-.36,.72-.76,1.39-1.17,1.96-.22-.23-.77-.68-1.06-.88l.09-.13h-2.02v4.57l3.08-.7,.13,1.21c-2.95,.72-6.14,1.48-8.37,1.98l-.25-1.33,1.06-.22v-7.99h1.22v7.72l1.84-.4v-10.03h-3.82v-1.3h8.23v1.3h-3.11v3.92h2.45v.63c1.21-1.87,2.02-4.43,2.5-7.13l1.33,.23c-.22,1.06-.49,2.12-.77,3.1h5.62v1.26h-1.21Zm-4.95,.31c.41,2.12,.99,4.09,1.82,5.74,.86-1.66,1.42-3.67,1.78-6.05h-3.48l-.13,.31Z"/>
        <path d="M374.92,280.59c-.02,6.7,.02,14.04,1.06,14.04,.22,0,.32-1.19,.36-2.75,.23,.34,.56,.74,.81,.94-.13,2.3-.4,3.22-1.31,3.22-2.18,0-2.14-6.36-2.21-14.21h-9.7v4.54c0,2.9-.31,7-2.34,9.7-.22-.25-.76-.59-1.06-.76,1.93-2.56,2.12-6.19,2.12-8.95v-5.78h12.28Zm-3.28,10.6c.92,1.21,1.82,2.84,2.12,3.94l-1.08,.4c-.11-.41-.31-.88-.54-1.37-2.99,.22-6.07,.41-8.19,.58l-.09-1.21c1.12-.05,2.59-.14,4.2-.25v-2.52h-3.12v-4.9h3.12v-1.73h-3.37v-1.12h8.05v1.12h-3.49v1.73h3.19v4.9h-3.19v2.45l2.34-.14c-.31-.52-.63-1.06-.97-1.51l1.03-.36Zm-3.58-1.49v-2.75h-2.03v2.75h2.03Zm1.19-2.75v2.75h2.05v-2.75h-2.05Z"/>
        <path d="M376.77,312.33v1.21h-15.86v-1.21h7.22v-2.38h-5.58v-1.19h5.58v-1.89h1.35v1.89h5.71v1.19h-5.71v2.38h7.29Zm-14.35-9.97h-1.3v-3.17h7.24c-.2-.45-.47-.97-.7-1.39l1.28-.38c.32,.54,.7,1.24,.92,1.76h6.66v3.17h-1.35v-1.93h-12.75v1.93Zm11.81,5.06c-.25-.32-.59-.74-1.03-1.15-8.53,.67-9.38,.72-9.94,.95-.07-.27-.25-.88-.4-1.22,.34-.05,.76-.29,1.22-.65,.4-.27,1.48-1.13,2.48-2.16h-3.64v-1.17h11.87v1.17h-6.5c-.95,.95-2,1.85-3.04,2.61l6.95-.49c-.49-.45-.99-.88-1.46-1.26l.99-.63c1.22,.95,2.77,2.32,3.53,3.26l-1.04,.74Z"/>
      </g>
    </g>
    <g>
      <path class="cls-1" d="M288.55,239.49h3.12v1.21h-3.12v3.19h-1.21v-3.19h-3.17v-1.21h3.17v-1.42h-2.52v-6.25h2.52v-1.31h-2.94v-1.17h2.94v-1.96h1.19v1.96h2.88v1.17h-2.88v1.31h2.65v6.25h-2.63v1.42Zm-2.74-5.04h1.66v-1.62h-1.66v1.62Zm0,2.61h1.66v-1.66h-1.66v1.66Zm4.34-4.23h-1.73v1.62h1.73v-1.62Zm0,2.57h-1.73v1.66h1.73v-1.66Zm6.52-4.32v1.62h3.49v9.67c0,.63-.11,1.01-.5,1.22-.41,.2-1.03,.22-1.89,.22-.05-.34-.22-.9-.4-1.22,.59,.04,1.15,.02,1.33,.02s.23-.05,.23-.23v-2.54h-2.27v3.84h-1.19v-3.84h-2.23v3.94h-1.21v-11.07h3.44v-1.62h-3.76v-1.19h3.76v-2.5h1.19v2.5h2.9c-.47-.56-1.4-1.33-2.2-1.87l.76-.65c.79,.5,1.76,1.28,2.23,1.82l-.72,.7h.9v1.19h-3.87Zm-3.42,2.79v1.82h2.23v-1.82h-2.23Zm2.23,4.81v-1.87h-2.23v1.87h2.23Zm1.19-4.81v1.82h2.27v-1.82h-2.27Zm2.27,4.81v-1.87h-2.27v1.87h2.27Z"/>
      <path class="cls-1" d="M312.09,240.23c-2.81,.67-5.83,1.37-7.98,1.85l-.23-1.35,1.28-.25v-12.21h5.85v10.97l.99-.22,.09,1.21Zm-5.71-10.73v2.63h3.37v-2.63h-3.37Zm3.37,3.83h-3.37v2.59h3.37v-2.59Zm-3.37,6.9c1.04-.22,2.18-.47,3.37-.72v-2.38h-3.37v3.1Zm13.5-8.77s-.02,.5-.02,.67c-.18,7.54-.36,10.1-.95,10.89-.34,.47-.72,.61-1.3,.68-.54,.05-1.51,.02-2.47-.02-.04-.4-.16-.94-.4-1.28,1.03,.07,1.96,.07,2.34,.07,.31,.02,.5-.04,.67-.27,.45-.54,.65-2.92,.81-9.47h-2.81c-.27,4.68-1.26,8.73-4.9,11.15-.2-.32-.63-.79-.97-.99,3.42-2.14,4.32-5.85,4.57-10.15h-2.86v-1.28h2.92c.05-1.31,.05-2.66,.05-4.05h1.3c0,1.39,0,2.74-.05,4.05h4.07Z"/>
      <path class="cls-1" d="M339.92,241.31h-7.31v2.52h-1.35v-2.52h-7.15v-1.19h7.15v-1.35h-5.37v-6.28h12.37v6.28h-5.65v1.35h7.31v1.19Zm-8.55-9.67h-5.94v-3.53h5.94v3.53Zm-1.28-2.63h-3.46v1.71h3.46v-1.71Zm-2.9,6.09h4.07v-1.53h-4.07v1.53Zm4.07,2.59v-1.57h-4.07v1.57h4.07Zm5.64-4.12h-4.29v1.53h4.29v-1.53Zm0,2.56h-4.29v1.57h4.29v-1.57Zm1.85-4.48h-5.98v-3.53h5.98v3.53Zm-1.26-2.63h-3.51v1.71h3.51v-1.71Z"/>
      <path class="cls-1" d="M349.24,227.84c-.49,1.31-1.12,2.59-1.82,3.82v12.15h-1.33v-10.07c-.56,.81-1.17,1.53-1.78,2.18-.13-.32-.5-1.01-.76-1.31,1.76-1.73,3.44-4.41,4.43-7.15l1.26,.38Zm10.66,13.97v1.3h-11.2v-1.3h6.28c.65-2.41,1.37-6.23,1.71-8.91l1.39,.25c-.47,2.75-1.21,6.27-1.85,8.66h3.67Zm-.74-9.87h-9.7v-1.3h9.7v1.3Zm-7.31,9.04c-.14-1.87-.67-5.17-1.22-7.67l1.21-.27c.59,2.5,1.13,5.73,1.33,7.56l-1.31,.38Zm2.03-10.53c-.14-.76-.5-1.96-.85-2.86l1.26-.32c.32,.9,.74,2.05,.9,2.79l-1.31,.4Z"/>
    </g>
  </g>
</svg>