<?xml version="1.0" encoding="utf-8"?>
<!-- Generator: Adobe Illustrator 26.3.1, SVG Export Plug-In . SVG Version: 6.00 Build 0)  -->
<svg version="1.1" id="_層_2" xmlns="http://www.w3.org/2000/svg" xmlns:xlink="http://www.w3.org/1999/xlink" x="0px" y="0px"
	 width="600px" height="592.1px" viewBox="0 0 600 592.1" style="enable-background:new 0 0 600 592.1;" xml:space="preserve">
<style type="text/css">
	.st0{fill:#1F333D;}
	.st1{fill:#B3C33E;}
</style>
<g>
	<g id="adi_logo-V-standard-CN_x2B_EN_00000042000037454954439390000013629037367088349627_">
		<g>
			<path class="st0" d="M85.9,216.2c0-71.1,57.8-128.9,128.9-128.9l49.5-0.1V0.6c-39.6-0.3-50.6-2.7-91.3,4.9
				c-0.4,0.1-0.8,0.2-1.2,0.2C73.9,25.7,0,112.5,0,216.2c0,118.5,96.6,216,215.1,216h217.2V0.6h-83.9v345.1L215,345.2
				C143.8,345.1,85.9,287.3,85.9,216.2z"/>
			<path class="st1" d="M168.2,218.5c0,27.5,20.6,45.8,48.2,45.8h48v-95.9h-46C190.8,168.5,168.2,191,168.2,218.5z"/>
			<rect x="479.5" y="156.5" class="st0" width="96.6" height="276.4"/>
			<polygon class="st1" points="480.4,0.5 564.2,0.5 564.2,24.8 504.2,24.8 504.2,72.5 564.2,72.5 564.2,96.3 480.4,96.3 			"/>
			<polygon class="st0" points="600,35.8 516.3,35.8 516.3,60.1 576.2,60.1 576.2,107.8 516.3,107.8 516.3,131.6 600,131.6 			"/>
		</g>
	</g>
	<g>
		<path class="st0" d="M177.1,463.7v-2.2h2.6v2.2h6.4v4.5h1.8v2.4h-1.8v4.5h-6.4v2.1h6.9v6.5h-7.5c-0.4,0.8-0.8,1.5-1.2,2.2h8.8v1.8
			c-1.2,2-2.9,3.7-5,5.2c2,0.8,4,1.8,6.1,2.9l-1.6,2c-2.3-1.3-4.6-2.4-6.9-3.4c-2.6,1.4-5.7,2.7-9.2,3.7l-1.6-2.1
			c3.1-0.8,5.7-1.8,8-2.8c-1.7-0.6-3.3-1.2-5-1.7c0.8-1.2,1.6-2.4,2.3-3.5h-5.1v-2.2h6.5c0.4-0.8,0.8-1.5,1.2-2.2h-6.2v-6.5h6.9V475
			h-6.3v-4.5H169v-2.4h1.8v-4.5h6.3V463.7z M177.1,479h-4.4v2.6h4.4V479z M177.1,468.4v-2.6h-3.9v2.6H177.1z M177.1,470.3h-3.9v2.7
			h3.9V470.3z M183.6,488h-7c-0.6,0.9-1,1.7-1.5,2.4c1.3,0.4,2.7,0.8,4,1.4C181,490.6,182.5,489.4,183.6,488z M183.6,468.4v-2.6
			h-3.9v2.6H183.6z M183.6,470.3h-3.9v2.7h3.9V470.3z M184.1,479h-4.5v2.6h4.5V479z M190.9,477.1c-0.6,1.3-1.3,2.5-1.9,3.6l-1.8-2.2
			c2.3-4.3,3.9-10,4.7-17.3l2.8,0.5c-0.3,2.1-0.6,4.1-1,5.9h10.5v2.7h-2.7c-0.2,7.2-1.6,13.2-4.1,18.1c1.9,2.9,4.4,5.3,7.5,7.4
			l-1.7,2.3c-2.9-2-5.4-4.3-7.3-7.1c-1.8,2.7-4,5.1-6.7,7l-1.6-2.5c2.7-1.9,4.9-4.2,6.6-7.1C192.6,485.2,191.4,481.4,190.9,477.1z
			 M191,476.9l2.3-0.7c0.4,3.5,1.3,6.7,2.6,9.4c1.9-4.2,2.9-9.3,3.1-15.3h-5.8C192.5,472.8,191.8,475,191,476.9z"/>
		<path class="st0" d="M220,462.5c-1,3.1-2.3,6-3.9,8.8v26.9h-2.9v-22.5c-1.3,1.8-2.7,3.5-4.3,5.1l-0.9-3.1
			c4.2-4.8,7.3-10.2,9.3-16.4L220,462.5z M232.8,493.4c2-5.3,3.8-12,5.3-20.1l2.7,0.7c-1.4,7.3-3.1,13.7-5.1,19.4h9v2.8H219v-2.8
			H232.8z M230.5,468c-0.6-2.1-1.2-4.1-2-5.8l3-0.5c0.6,1.8,1.2,3.9,1.8,6.3h10.4v2.7h-24V468H230.5z M228.9,491.4l-2.7,0.7
			c-1.1-6.1-2.5-11.9-4.1-17.6l2.6-0.8C226.2,478.9,227.6,484.8,228.9,491.4z"/>
		<path class="st0" d="M257.3,470c2-1.3,3.6-2.8,4.8-4.4h-11v-2.5h14.2v2.1c-1.6,2.9-4,5.4-7.4,7.4h5.8v9.2h-8.9l-0.7,4.3h9.8
			c0,4.7-0.2,7.8-0.6,9.3c-0.5,1.6-2.3,2.4-5.5,2.5c-1.4,0-2.9-0.1-4.4-0.2l-0.7-2.5c1.5,0.1,3,0.2,4.5,0.2c2.1,0,3.3-0.4,3.6-1.3
			c0.3-0.9,0.4-2.7,0.4-5.5h-10l1.3-9.2h8.6v-4.2H253c-1,0.4-2.1,0.8-3.1,1.2l-1.7-2.2c2.6-0.8,4.9-1.7,6.9-2.8
			c-1.3-1-2.7-2.1-4.5-3.2l2.1-1.4C254.6,467.9,256.1,469,257.3,470z M278.5,462.8c-1,1.1-1.9,2-2.8,2.7c-0.7,0.5-1.5,1-2.4,1.5
			c0.8,0.6,1.6,1.2,2.4,1.8c1-0.5,1.9-1,2.7-1.7c1-0.8,1.9-1.6,2.7-2.7l2,1.2c-1,1.2-2,2.3-3,3.1c-0.6,0.5-1.4,1-2.2,1.4
			c2,1.1,4.2,2.1,6.6,3l-1.9,2.3c-1.6-0.6-3-1.3-4.3-2v3.8c0,0.8,0.5,1.2,1.5,1.2h2.2v2.4h-2.9c-2.2,0-3.2-1-3.2-3V475h-5.8
			c0,1.5-0.2,2.7-0.7,3.7c-0.6,1-1.5,2-2.9,2.9l-2-1.8c1.3-1,2.1-2,2.6-2.9c0.3-0.9,0.5-2.4,0.5-4.4h9.2c-4.6-2.6-8-5.7-10.2-9.1
			l2.3-1.3c0.7,1.1,1.5,2.1,2.4,3c0.9-0.4,1.7-0.9,2.5-1.4c0.9-0.6,1.8-1.4,2.5-2.3L278.5,462.8z M280.4,483v2.4
			c-0.9,2.4-2.2,4.5-3.8,6.3c2.5,1.4,4.7,2.9,6.7,4.3l-2,2c-1.9-1.5-4.1-3-6.7-4.6c-2.2,1.8-5,3.3-8.2,4.5l-1.1-2.5
			c2.6-0.9,4.9-2,6.8-3.4c-1.8-1-3.7-2.1-5.7-3.1l1.7-1.7c2.1,1,4.1,2.1,5.9,3.1c1.4-1.4,2.6-3.1,3.4-4.8h-11.1v-2.6h14.1V483z"/>
		<path class="st0" d="M290,498l-2.1-1.9c2.6-5.2,3.9-11.9,3.9-20.1v-12.8h29.9v9.4h-27v4.3h7.3v-3.2h2.8v3.2h7.9v-3.1h2.8v3.1h6.7
			v2.6h-6.7v4.1h7.9v2.6h-21.7v8.8c2.5-0.6,4.6-1.3,6.4-2.1l0.5,2.7c-2.9,1-6.4,1.8-10.4,2.6l-0.8-2.5c1-0.4,1.5-1,1.5-2v-7.5h-5.1
			C293,490.5,291.7,494.5,290,498z M294.2,483.5h7.8v-4.1h-7.4C294.5,480.8,294.4,482.1,294.2,483.5z M294.7,465.7v4.2h24.1v-4.2
			H294.7z M312.7,483.5v-4.1h-7.9v4.1H312.7z M321.5,488.2c-1.6,2.2-3.3,3.8-5.2,5.1c2.4,1.3,5.1,2.1,8.1,2.4l-0.6,2.6
			c-6.9-0.7-12.5-4-16.8-9.9l2-1.4c1.5,1.9,3.1,3.5,4.8,4.8c2-1.1,3.9-2.9,5.7-5.5L321.5,488.2z"/>
		<path class="st0" d="M336.7,465.5c-0.4-1.4-0.9-2.6-1.4-3.7l2.9-0.5c0.4,1.2,0.8,2.6,1.2,4.2h8.1v2.7h-1.9c-0.8,3-1.7,5.8-2.8,8.2
			h5v2.8h-19.7v-2.8h5.1c-0.6-2.9-1.4-5.6-2.4-8.2h-2.1v-2.7H336.7z M346,498h-2.8v-2.2h-9.9v2.2h-2.8v-15H346V498z M343.2,493.1
			v-7.4h-9.9v7.4H343.2z M342.8,468.3h-9.2c0.8,2.4,1.6,5.1,2.3,8.2h4.3C341.2,473.9,342.1,471.1,342.8,468.3z M363.2,463.1v2.2
			c-1.3,4.2-2.7,8.1-4.3,11.7c3.1,3.9,4.7,7.1,4.8,9.6c0,2.3-0.5,3.9-1.6,4.8c-1.1,1-3.3,1.4-6.7,1.4l-0.9-3c1.1,0.1,2,0.2,2.7,0.2
			c1.5-0.1,2.4-0.3,2.9-0.8c0.4-0.5,0.6-1.4,0.7-2.7c0-2.4-1.7-5.6-5-9.6c1.4-3.2,2.9-6.9,4.2-11.2h-7.3v32.2h-2.8V463h13.3V463.1z"
			/>
		<path class="st0" d="M389.5,463.7v-2.2h2.6v2.2h6.4v4.5h1.8v2.4h-1.8v4.5h-6.4v2.1h6.9v6.5h-7.5c-0.4,0.8-0.8,1.5-1.2,2.2h8.8v1.8
			c-1.2,2-2.9,3.7-5,5.2c2,0.8,4,1.8,6.1,2.9l-1.6,2c-2.3-1.3-4.6-2.4-6.9-3.4c-2.6,1.4-5.7,2.7-9.2,3.7l-1.6-2.1
			c3.1-0.8,5.7-1.8,8-2.8c-1.7-0.6-3.3-1.2-5-1.7c0.8-1.2,1.6-2.4,2.3-3.5h-5.1v-2.2h6.5c0.4-0.8,0.8-1.5,1.2-2.2h-6.2v-6.5h6.9V475
			h-6.3v-4.5h-1.8v-2.4h1.8v-4.5h6.3V463.7z M389.5,479h-4.4v2.6h4.4V479z M389.5,468.4v-2.6h-3.9v2.6H389.5z M389.5,470.3h-3.9v2.7
			h3.9V470.3z M396.1,488h-7c-0.6,0.9-1,1.7-1.5,2.4c1.3,0.4,2.7,0.8,4,1.4C393.5,490.6,395,489.4,396.1,488z M396.1,468.4v-2.6
			h-3.9v2.6H396.1z M396.1,470.3h-3.9v2.7h3.9V470.3z M396.6,479h-4.5v2.6h4.5V479z M403.4,477.1c-0.6,1.3-1.3,2.5-1.9,3.6l-1.8-2.2
			c2.3-4.3,3.9-10,4.7-17.3l2.8,0.5c-0.3,2.1-0.6,4.1-1,5.9h10.5v2.7H414c-0.2,7.2-1.6,13.2-4.1,18.1c1.9,2.9,4.4,5.3,7.5,7.4
			l-1.7,2.3c-2.9-2-5.4-4.3-7.3-7.1c-1.8,2.7-4,5.1-6.7,7l-1.6-2.5c2.7-1.9,4.9-4.2,6.6-7.1C405.1,485.2,403.9,481.4,403.4,477.1z
			 M403.4,476.9l2.3-0.7c0.4,3.5,1.3,6.7,2.6,9.4c1.9-4.2,2.9-9.3,3.1-15.3h-5.8C405,472.8,404.3,475,403.4,476.9z"/>
		<path class="st0" d="M432.5,462.5c-1,3.1-2.3,6-3.9,8.8v26.9h-2.9v-22.5c-1.3,1.8-2.7,3.5-4.3,5.1l-0.9-3.1
			c4.2-4.8,7.3-10.2,9.3-16.4L432.5,462.5z M445.3,493.4c2-5.3,3.8-12,5.3-20.1l2.7,0.7c-1.4,7.3-3.1,13.7-5.1,19.4h9v2.8h-25.7
			v-2.8H445.3z M443,468c-0.6-2.1-1.2-4.1-2-5.8l3-0.5c0.6,1.8,1.2,3.9,1.8,6.3h10.4v2.7h-24V468H443z M441.3,491.4l-2.7,0.7
			c-1.1-6.1-2.5-11.9-4.1-17.6l2.6-0.8C438.7,478.9,440.1,484.8,441.3,491.4z"/>
		<path class="st0" d="M480.6,469.8c2.8-0.9,5.3-1.9,7.5-3.1h-25.3v-2.4h15.5c-0.4-1-0.9-1.8-1.4-2.6l2.9-0.5
			c0.5,0.9,0.9,1.9,1.4,3.1h13.7v2.4h-6.4l1.7,1.1c-2,1.1-4.1,2.1-6.4,2.9c3.1,0.9,6,1.8,8.5,2.7l-1.7,1.7h4.4v2.5h-28.4v4.5
			c-0.2,6.6-1.4,12-3.9,16l-2.1-1.9c2.1-3.3,3.1-8,3.2-14.1v-7h26.6c-2.8-1.1-6.1-2.2-9.9-3.3c-4.1,1.3-8.6,2.2-13.5,2.8l-1.4-1.8
			c4.1-0.5,7.9-1.2,11.2-2c-2.8-0.8-5.7-1.6-8.9-2.3l1.6-1.5C473.6,468,477.2,468.9,480.6,469.8z M468.9,488.4l-2-1.8
			c2.6-1.9,4.5-4.5,5.8-7.8l2.3,0.9c-0.4,0.8-0.7,1.6-1.1,2.3h7.1v-3.3h2.8v3.3h10.4v2.5h-10.4v3.7h9.5v2.5h-9.5v3.7h12.4v2.5h-28.7
			v-2.3H481v-3.7h-9.5v-2.5h9.5v-3.7h-8.6C471.4,486.1,470.2,487.4,468.9,488.4z"/>
		<path class="st0" d="M516.5,461.5v6.1h4.2v-6.1h2.8v6.1h3.4c1.2-1.7,2.2-3.5,3-5.4l2.6,1c-0.9,1.7-1.8,3.2-2.8,4.4h6.3v2.5h-34.7
			v-2.5h6.1c-0.7-1.6-1.5-3-2.5-4.4l2.7-1c0.9,1.5,1.8,3.3,2.6,5.4h3.5v-6.1H516.5z M511.7,474.5c-0.6-1.2-1.3-2.2-2.1-3.2l2.7-1
			c0.9,1.2,1.7,2.6,2.4,4.2h7.7c1-1.3,1.8-2.7,2.6-4.1l2.7,1c-0.7,1.2-1.4,2.2-2.2,3.2h8.8v2.5h-14.1v2.9h12.2v2.4h-12.2v3H536v2.6
			h-15.9v10.3h-2.9V488h-15.9v-2.6h15.9v-3H505V480h12.2v-2.9H503v-2.5h8.7V474.5z M512.9,490.9c-2.5,2.5-5.5,4.7-9.1,6.6l-1.8-2.3
			c3.5-1.7,6.5-3.7,9-6L512.9,490.9z M535.2,495.5l-2.1,2c-2-2-4.8-4.1-8.4-6.4l1.9-1.8C530,491.4,532.9,493.4,535.2,495.5z"/>
		<path class="st0" d="M572.5,463v7.6h-13.9v2.6h8.5v2.3h-8.5v2.9h5.1c3.1-1.9,5.8-4.1,8.1-6.7l2.4,1.2c-1.9,2-4,3.8-6.4,5.5h8.4
			v2.5h-12.5c-2.1,1.1-4.2,2-6.5,2.9h14v14.6h-2.8v-1.8h-16.9v1.8h-2.8v-12c-2,0.5-4.1,0.9-6.2,1.3l-1.6-2.4
			c6.9-0.7,13-2.2,18.1-4.4h-17.9v-2.5h14.8v-2.9h-10.4v-2.3h10.4v-2.6h-11.5V463H572.5z M553,465.2h-5.9v3.3h5.9V465.2z M568.3,486
			h-16.9v3.1h16.9V486z M551.4,494.2h16.9v-3h-16.9V494.2z M561.3,465.2h-5.7v3.3h5.7V465.2z M569.8,465.2h-5.9v3.3h5.9V465.2z"/>
	</g>
	<g>
		<path class="st0" d="M279.8,535.2h-10.6l-2,5.4h-3.4l8.8-24.3h3.7l8.8,24.3h-3.4L279.8,535.2z M278.9,532.6l-4.4-12.3l-4.5,12.3
			H278.9z"/>
		<path class="st0" d="M288.9,525.7c0.8-1.5,1.9-2.6,3.3-3.5c1.4-0.8,2.9-1.2,4.7-1.2c1.5,0,2.9,0.3,4.2,1c1.3,0.7,2.3,1.6,2.9,2.7
			v-10.2h3.2v26.1H304V537c-0.6,1.1-1.6,2.1-2.8,2.8c-1.2,0.7-2.7,1.1-4.3,1.1c-1.7,0-3.3-0.4-4.6-1.3c-1.4-0.8-2.5-2-3.3-3.5
			s-1.2-3.2-1.2-5.2C287.8,529,288.1,527.2,288.9,525.7z M303.1,527.2c-0.6-1.1-1.4-1.9-2.4-2.5s-2.1-0.9-3.3-0.9s-2.3,0.3-3.3,0.8
			c-1,0.6-1.8,1.4-2.3,2.4c-0.6,1.1-0.9,2.3-0.9,3.8s0.3,2.7,0.9,3.8s1.4,1.9,2.3,2.5c1,0.6,2.1,0.9,3.3,0.9s2.3-0.3,3.3-0.9
			c1-0.6,1.8-1.4,2.4-2.5s0.9-2.4,0.9-3.8S303.7,528.2,303.1,527.2z"/>
		<path class="st0" d="M339.7,522c1.2,0.6,2.1,1.5,2.8,2.8c0.7,1.2,1,2.7,1,4.5v11.3h-3.2v-10.9c0-1.9-0.5-3.4-1.4-4.4
			s-2.2-1.5-3.8-1.5c-1.7,0-3,0.5-4,1.6s-1.5,2.6-1.5,4.6v10.6h-3.2v-10.9c0-1.9-0.5-3.4-1.4-4.4s-2.2-1.5-3.8-1.5
			c-1.7,0-3,0.5-4,1.6s-1.5,2.6-1.5,4.6v10.6h-3.2v-19.2h3.2v2.8c0.6-1,1.5-1.8,2.5-2.3c1.1-0.5,2.2-0.8,3.5-0.8
			c1.6,0,3,0.4,4.3,1.1c1.2,0.7,2.2,1.8,2.8,3.2c0.5-1.4,1.4-2.4,2.7-3.2c1.2-0.7,2.6-1.1,4.1-1.1C337.2,521,338.5,521.3,339.7,522z
			"/>
		<path class="st0" d="M348.8,517.6c-0.4-0.4-0.6-0.9-0.6-1.5s0.2-1.1,0.6-1.5s0.9-0.6,1.5-0.6s1.1,0.2,1.5,0.6s0.6,0.9,0.6,1.5
			s-0.2,1.1-0.6,1.5s-0.9,0.6-1.5,0.6C349.8,518.3,349.2,518.1,348.8,517.6z M351.9,521.4v19.2h-3.2v-19.2H351.9z"/>
		<path class="st0" d="M372.4,523.2c1.4,1.4,2.2,3.5,2.2,6.1v11.3h-3.2v-10.9c0-1.9-0.5-3.4-1.4-4.4c-1-1-2.3-1.5-3.9-1.5
			c-1.7,0-3,0.5-4,1.6s-1.5,2.6-1.5,4.6v10.6h-3.2v-19.2h3.2v2.7c0.6-1,1.5-1.7,2.6-2.3c1.1-0.5,2.3-0.8,3.6-0.8
			C369,521,370.9,521.7,372.4,523.2z"/>
		<path class="st0" d="M379.9,517.6c-0.4-0.4-0.6-0.9-0.6-1.5s0.2-1.1,0.6-1.5s0.9-0.6,1.5-0.6s1.1,0.2,1.5,0.6
			c0.4,0.4,0.6,0.9,0.6,1.5s-0.2,1.1-0.6,1.5s-0.9,0.6-1.5,0.6C380.8,518.3,380.3,518.1,379.9,517.6z M382.9,521.4v19.2h-3.2v-19.2
			H382.9z"/>
		<path class="st0" d="M391.2,540.1c-1.2-0.5-2.1-1.2-2.8-2.1s-1.1-1.9-1.1-3.1h3.3c0.1,1,0.5,1.7,1.3,2.3s1.9,0.9,3.2,0.9
			c1.2,0,2.2-0.3,2.9-0.8c0.7-0.5,1-1.2,1-2s-0.4-1.5-1.1-1.9c-0.8-0.4-1.9-0.8-3.5-1.2c-1.4-0.4-2.6-0.8-3.5-1.1
			c-0.9-0.4-1.7-1-2.3-1.7c-0.6-0.8-1-1.8-1-3c0-1,0.3-1.9,0.9-2.7s1.4-1.5,2.5-1.9c1.1-0.5,2.3-0.7,3.7-0.7c2.1,0,3.8,0.5,5.1,1.6
			c1.3,1.1,2,2.5,2.1,4.4h-3.2c-0.1-1-0.5-1.8-1.2-2.4c-0.7-0.6-1.7-0.9-3-0.9c-1.1,0-2.1,0.2-2.7,0.7s-1,1.1-1,1.9
			c0,0.6,0.2,1.1,0.6,1.6c0.4,0.4,0.9,0.7,1.5,1c0.6,0.2,1.5,0.5,2.6,0.8c1.4,0.4,2.5,0.7,3.4,1.1c0.9,0.4,1.6,0.9,2.2,1.6
			c0.6,0.7,0.9,1.7,1,2.8c0,1.1-0.3,2-0.9,2.8s-1.4,1.5-2.5,2s-2.3,0.7-3.7,0.7C393.7,540.9,392.4,540.6,391.2,540.1z"/>
		<path class="st0" d="M410.6,524v11.3c0,0.9,0.2,1.6,0.6,2s1.1,0.6,2.1,0.6h2.3v2.7h-2.9c-1.8,0-3.1-0.4-4-1.2s-1.3-2.2-1.3-4
			v-11.3h-2.5v-2.6h2.5v-4.8h3.2v4.8h5v2.6L410.6,524L410.6,524z"/>
		<path class="st0" d="M425,521.9c1-0.6,2.3-0.9,3.8-0.9v3.3H428c-3.6,0-5.4,1.9-5.4,5.8v10.5h-3.2v-19.2h3.2v3.1
			C423.2,523.4,424,522.6,425,521.9z"/>
		<path class="st0" d="M432.5,525.7c0.8-1.5,1.9-2.6,3.3-3.5c1.4-0.8,2.9-1.2,4.6-1.2s3.1,0.4,4.4,1.1c1.2,0.7,2.2,1.6,2.8,2.7v-3.5
			h3.2v19.3h-3.2V537c-0.6,1.1-1.6,2-2.8,2.8s-2.7,1.1-4.4,1.1c-1.7,0-3.2-0.4-4.6-1.3c-1.4-0.8-2.5-2-3.3-3.5s-1.2-3.2-1.2-5.2
			C431.3,529,431.7,527.2,432.5,525.7z M446.7,527.2c-0.6-1.1-1.4-1.9-2.4-2.5s-2.1-0.9-3.3-0.9c-1.2,0-2.3,0.3-3.3,0.8
			c-1,0.6-1.8,1.4-2.3,2.4c-0.6,1.1-0.9,2.3-0.9,3.8s0.3,2.7,0.9,3.8s1.4,1.9,2.3,2.5c1,0.6,2.1,0.9,3.3,0.9c1.2,0,2.3-0.3,3.3-0.9
			c1-0.6,1.8-1.4,2.4-2.5s0.9-2.4,0.9-3.8S447.3,528.2,446.7,527.2z"/>
		<path class="st0" d="M460.1,524v11.3c0,0.9,0.2,1.6,0.6,2s1.1,0.6,2.1,0.6h2.3v2.7h-2.9c-1.8,0-3.1-0.4-4-1.2s-1.3-2.2-1.3-4
			v-11.3h-2.5v-2.6h2.5v-4.8h3.2v4.8h5v2.6L460.1,524L460.1,524z"/>
		<path class="st0" d="M469,517.6c-0.4-0.4-0.6-0.9-0.6-1.5s0.2-1.1,0.6-1.5s0.9-0.6,1.5-0.6s1.1,0.2,1.5,0.6
			c0.4,0.4,0.6,0.9,0.6,1.5s-0.2,1.1-0.6,1.5s-0.9,0.6-1.5,0.6C470,518.3,469.5,518.1,469,517.6z M472.1,521.4v19.2h-3.2v-19.2
			H472.1z"/>
		<path class="st0" d="M481,539.7c-1.5-0.8-2.6-2-3.4-3.5s-1.2-3.3-1.2-5.2c0-2,0.4-3.7,1.3-5.2s2-2.7,3.5-3.5s3.1-1.2,4.9-1.2
			s3.5,0.4,4.9,1.2c1.5,0.8,2.6,2,3.5,3.5s1.3,3.2,1.3,5.2s-0.4,3.7-1.3,5.2s-2.1,2.7-3.6,3.5s-3.2,1.2-5,1.2
			C484.1,540.9,482.5,540.5,481,539.7z M489.1,537.3c1-0.5,1.8-1.3,2.4-2.4c0.6-1.1,0.9-2.4,0.9-3.9s-0.3-2.8-0.9-3.9
			c-0.6-1.1-1.4-1.9-2.4-2.4s-2-0.8-3.2-0.8s-2.2,0.3-3.2,0.8s-1.7,1.3-2.3,2.4c-0.6,1.1-0.9,2.4-0.9,3.9c0,1.6,0.3,2.9,0.9,4
			s1.3,1.9,2.3,2.4s2,0.8,3.2,0.8C487.1,538.1,488.1,537.8,489.1,537.3z"/>
		<path class="st0" d="M515,523.2c1.4,1.4,2.2,3.5,2.2,6.1v11.3H514v-10.9c0-1.9-0.5-3.4-1.4-4.4c-1-1-2.3-1.5-3.9-1.5
			c-1.7,0-3,0.5-4,1.6s-1.5,2.6-1.5,4.6v10.6H500v-19.2h3.2v2.7c0.6-1,1.5-1.7,2.6-2.3c1.1-0.5,2.3-0.8,3.6-0.8
			C511.7,521,513.6,521.7,515,523.2z"/>
		<path class="st0" d="M539.6,524h-4v16.6h-3.2V524h-2.5v-2.6h2.5V520c0-2.1,0.6-3.7,1.7-4.7c1.1-1,2.9-1.5,5.3-1.5v2.7
			c-1.4,0-2.4,0.3-3,0.8s-0.9,1.5-0.9,2.7v1.4h4v2.6H539.6z"/>
		<path class="st0" d="M546.8,539.7c-1.5-0.8-2.6-2-3.4-3.5c-0.8-1.5-1.2-3.3-1.2-5.2c0-2,0.4-3.7,1.3-5.2c0.9-1.5,2-2.7,3.5-3.5
			s3.1-1.2,4.9-1.2c1.8,0,3.5,0.4,4.9,1.2c1.5,0.8,2.6,2,3.5,3.5s1.3,3.2,1.3,5.2s-0.4,3.7-1.3,5.2c-0.9,1.5-2.1,2.7-3.6,3.5
			s-3.2,1.2-5,1.2S548.2,540.5,546.8,539.7z M554.9,537.3c1-0.5,1.8-1.3,2.4-2.4c0.6-1.1,0.9-2.4,0.9-3.9s-0.3-2.8-0.9-3.9
			c-0.6-1.1-1.4-1.9-2.4-2.4s-2-0.8-3.2-0.8s-2.2,0.3-3.2,0.8s-1.7,1.3-2.3,2.4c-0.6,1.1-0.9,2.4-0.9,3.9c0,1.6,0.3,2.9,0.9,4
			c0.6,1.1,1.3,1.9,2.3,2.4s2,0.8,3.2,0.8C552.8,538.1,553.9,537.8,554.9,537.3z"/>
		<path class="st0" d="M571.3,521.9c1-0.6,2.3-0.9,3.8-0.9v3.3h-0.8c-3.6,0-5.4,1.9-5.4,5.8v10.5h-3.2v-19.2h3.2v3.1
			C569.5,523.4,570.3,522.6,571.3,521.9z"/>
		<path class="st0" d="M181.1,559.7c1.9,1,3.4,2.4,4.5,4.3c1,1.8,1.6,4,1.6,6.5s-0.5,4.7-1.6,6.5c-1,1.8-2.5,3.2-4.5,4.2
			s-4.3,1.5-6.9,1.5h-7.6v-24.4h7.6C176.9,558.2,179.2,558.7,181.1,559.7z M181.4,577.5c1.7-1.7,2.5-4,2.5-7s-0.8-5.4-2.5-7.1
			c-1.7-1.7-4.1-2.6-7.2-2.6h-4.4V580h4.4C177.4,580,179.8,579.2,181.4,577.5z"/>
		<path class="st0" d="M191.5,559.7c-0.4-0.4-0.6-0.9-0.6-1.5s0.2-1.1,0.6-1.5c0.4-0.4,0.9-0.6,1.5-0.6s1.1,0.2,1.5,0.6
			c0.4,0.4,0.6,0.9,0.6,1.5s-0.2,1.1-0.6,1.5c-0.4,0.4-0.9,0.6-1.5,0.6C192.4,560.3,191.9,560.1,191.5,559.7z M194.6,563.4v19.2
			h-3.2v-19.2H194.6z"/>
		<path class="st0" d="M212.3,564.2c1.3,0.7,2.2,1.6,2.8,2.7v-3.5h3.2V583c0,1.8-0.4,3.3-1.1,4.7c-0.7,1.4-1.8,2.4-3.2,3.2
			s-3,1.2-4.9,1.2c-2.5,0-4.6-0.6-6.3-1.8s-2.7-2.8-3-4.9h3.2c0.4,1.2,1.1,2.1,2.2,2.8c1.1,0.7,2.4,1.1,4,1.1c1.8,0,3.2-0.5,4.3-1.6
			s1.7-2.6,1.7-4.6v-4c-0.6,1.1-1.6,2.1-2.8,2.8s-2.7,1.1-4.3,1.1c-1.7,0-3.3-0.4-4.6-1.3c-1.4-0.8-2.5-2-3.3-3.5S199,575,199,573
			s0.4-3.7,1.2-5.2s1.9-2.6,3.3-3.5c1.4-0.8,2.9-1.2,4.6-1.2C209.6,563.1,211,563.5,212.3,564.2z M214.2,569.2
			c-0.6-1.1-1.4-1.9-2.4-2.5s-2.1-0.9-3.3-0.9s-2.3,0.3-3.3,0.8c-1,0.6-1.8,1.4-2.3,2.4c-0.6,1.1-0.9,2.3-0.9,3.8s0.3,2.7,0.9,3.8
			c0.6,1.1,1.4,1.9,2.3,2.5c1,0.6,2.1,0.9,3.3,0.9s2.3-0.3,3.3-0.9c1-0.6,1.8-1.4,2.4-2.5c0.6-1.1,0.9-2.4,0.9-3.8
			S214.8,570.3,214.2,569.2z"/>
		<path class="st0" d="M223.8,559.7c-0.4-0.4-0.6-0.9-0.6-1.5s0.2-1.1,0.6-1.5c0.4-0.4,0.9-0.6,1.5-0.6s1.1,0.2,1.5,0.6
			c0.4,0.4,0.6,0.9,0.6,1.5s-0.2,1.1-0.6,1.5c-0.4,0.4-0.9,0.6-1.5,0.6C224.7,560.3,224.2,560.1,223.8,559.7z M226.9,563.4v19.2
			h-3.2v-19.2H226.9z"/>
		<path class="st0" d="M236.2,566.1v11.3c0,0.9,0.2,1.6,0.6,2c0.4,0.4,1.1,0.6,2.1,0.6h2.3v2.7h-2.9c-1.8,0-3.1-0.4-4-1.2
			s-1.3-2.2-1.3-4v-11.3h-2.5v-2.6h2.5v-5h3.2v4.8h5v2.6h-5V566.1z"/>
		<path class="st0" d="M245,567.8c0.8-1.5,1.9-2.6,3.3-3.5c1.4-0.8,2.9-1.2,4.6-1.2c1.7,0,3.1,0.4,4.4,1.1c1.2,0.7,2.2,1.6,2.8,2.7
			v-3.5h3.2v19.2h-3.2V579c-0.6,1.1-1.6,2-2.8,2.8c-1.3,0.7-2.7,1.1-4.4,1.1s-3.2-0.4-4.6-1.3c-1.4-0.8-2.5-2-3.3-3.5
			s-1.2-3.2-1.2-5.2C243.9,571,244.2,569.3,245,567.8z M259.2,569.2c-0.6-1.1-1.4-1.9-2.4-2.5s-2.1-0.9-3.3-0.9s-2.3,0.3-3.3,0.8
			c-1,0.6-1.8,1.4-2.3,2.4c-0.6,1.1-0.9,2.3-0.9,3.8s0.3,2.7,0.9,3.8c0.6,1.1,1.4,1.9,2.3,2.5c1,0.6,2.1,0.9,3.3,0.9
			s2.3-0.3,3.3-0.9c1-0.6,1.8-1.4,2.4-2.5s0.9-2.4,0.9-3.8S259.8,570.3,259.2,569.2z"/>
		<path class="st0" d="M271.9,556.7v25.9h-3.2v-25.9H271.9z"/>
		<path class="st0" d="M289.9,558.2v24.4h-3.2v-24.4H289.9z"/>
		<path class="st0" d="M310.4,565.2c1.4,1.4,2.2,3.5,2.2,6.1v11.3h-3.2v-10.9c0-1.9-0.5-3.4-1.4-4.4c-1-1-2.3-1.5-3.9-1.5
			c-1.7,0-3,0.5-4,1.6s-1.5,2.6-1.5,4.6v10.6h-3.2v-19.2h3.2v2.7c0.6-1,1.5-1.7,2.6-2.3c1.1-0.5,2.3-0.8,3.6-0.8
			C307,563.1,308.9,563.8,310.4,565.2z"/>
		<path class="st0" d="M317.7,567.8c0.8-1.5,1.9-2.6,3.3-3.5c1.4-0.8,2.9-1.2,4.7-1.2c1.5,0,2.9,0.3,4.2,1c1.3,0.7,2.3,1.6,2.9,2.7
			v-10.2h3.2v26h-3.2V579c-0.6,1.1-1.6,2.1-2.8,2.8c-1.2,0.7-2.7,1.1-4.3,1.1c-1.7,0-3.3-0.4-4.6-1.3c-1.4-0.8-2.5-2-3.3-3.5
			s-1.2-3.2-1.2-5.2C316.6,571,317,569.3,317.7,567.8z M331.9,569.2c-0.6-1.1-1.4-1.9-2.4-2.5s-2.1-0.9-3.3-0.9
			c-1.2,0-2.3,0.3-3.3,0.8c-1,0.6-1.8,1.4-2.3,2.4c-0.6,1.1-0.9,2.3-0.9,3.8s0.3,2.7,0.9,3.8s1.4,1.9,2.3,2.5c1,0.6,2.1,0.9,3.3,0.9
			c1.2,0,2.3-0.3,3.3-0.9c1-0.6,1.8-1.4,2.4-2.5s0.9-2.4,0.9-3.8S332.5,570.3,331.9,569.2z"/>
		<path class="st0" d="M358.5,563.4v19.2h-3.2v-2.8c-0.6,1-1.5,1.7-2.5,2.3c-1.1,0.5-2.3,0.8-3.6,0.8c-1.5,0-2.8-0.3-4-0.9
			c-1.2-0.6-2.1-1.5-2.8-2.8c-0.7-1.2-1-2.7-1-4.5v-11.2h3.2v10.8c0,1.9,0.5,3.3,1.4,4.4c1,1,2.3,1.5,3.9,1.5c1.7,0,3-0.5,4-1.6
			c1-1,1.5-2.6,1.5-4.6v-10.5h3.1V563.4z"/>
		<path class="st0" d="M366.7,582.2c-1.2-0.5-2.1-1.2-2.8-2.1s-1.1-1.9-1.1-3.1h3.3c0.1,1,0.5,1.7,1.3,2.3s1.9,0.9,3.2,0.9
			c1.2,0,2.2-0.3,2.9-0.8c0.7-0.5,1-1.2,1-2s-0.4-1.5-1.1-1.9c-0.8-0.4-1.9-0.8-3.5-1.2c-1.4-0.4-2.6-0.8-3.5-1.1
			c-0.9-0.4-1.7-1-2.3-1.7c-0.6-0.8-1-1.8-1-3c0-1,0.3-1.9,0.9-2.7s1.4-1.5,2.5-1.9c1.1-0.5,2.3-0.7,3.7-0.7c2.1,0,3.8,0.5,5.1,1.6
			c1.3,1.1,2,2.5,2.1,4.4h-3.2c-0.1-1-0.5-1.8-1.2-2.4c-0.7-0.6-1.7-0.9-3-0.9c-1.1,0-2.1,0.2-2.7,0.7c-0.7,0.5-1,1.1-1,1.9
			c0,0.6,0.2,1.1,0.6,1.6c0.4,0.4,0.9,0.7,1.5,1c0.6,0.2,1.5,0.5,2.6,0.8c1.4,0.4,2.5,0.7,3.4,1.1c0.9,0.4,1.6,0.9,2.2,1.6
			c0.6,0.7,0.9,1.7,1,2.8c0,1.1-0.3,2-0.9,2.8s-1.4,1.5-2.5,2s-2.3,0.7-3.7,0.7C369.2,582.9,367.9,582.7,366.7,582.2z"/>
		<path class="st0" d="M386,566.1v11.3c0,0.9,0.2,1.6,0.6,2s1.1,0.6,2.1,0.6h2.3v2.7h-2.9c-1.8,0-3.1-0.4-4-1.2s-1.3-2.2-1.3-4
			v-11.3h-2.5v-2.6h2.5v-5h3.2v4.8h5v2.6h-5V566.1z"/>
		<path class="st0" d="M400.5,564c1-0.6,2.3-0.9,3.8-0.9v3.3h-0.8c-3.6,0-5.4,1.9-5.4,5.8v10.4h-3.2v-19.2h3.2v3.1
			C398.6,565.4,399.4,564.6,400.5,564z"/>
		<path class="st0" d="M408.1,559.7c-0.4-0.4-0.6-0.9-0.6-1.5s0.2-1.1,0.6-1.5s0.9-0.6,1.5-0.6s1.1,0.2,1.5,0.6
			c0.4,0.4,0.6,0.9,0.6,1.5s-0.2,1.1-0.6,1.5s-0.9,0.6-1.5,0.6C409,560.3,408.5,560.1,408.1,559.7z M411.2,563.4v19.2H408v-19.2
			H411.2z"/>
		<path class="st0" d="M434,574.2h-15.3c0.1,1.9,0.8,3.4,1.9,4.4c1.2,1.1,2.6,1.6,4.3,1.6c1.4,0,2.5-0.3,3.4-1
			c0.9-0.6,1.6-1.5,1.9-2.6h3.4c-0.5,1.8-1.5,3.3-3.1,4.5c-1.5,1.2-3.5,1.7-5.7,1.7c-1.8,0-3.5-0.4-4.9-1.2s-2.6-2-3.4-3.5
			s-1.2-3.3-1.2-5.2c0-2,0.4-3.7,1.2-5.2c0.8-1.5,1.9-2.6,3.3-3.4c1.4-0.8,3.1-1.2,5-1.2c1.8,0,3.4,0.4,4.8,1.2s2.5,1.9,3.2,3.3
			c0.8,1.4,1.1,3,1.1,4.7C434.1,572.9,434.1,573.5,434,574.2z M430,568.5c-0.5-0.9-1.3-1.5-2.2-2c-0.9-0.5-1.9-0.7-3.1-0.7
			c-1.6,0-3,0.5-4.1,1.5s-1.8,2.5-1.9,4.3h12.1C430.8,570.4,430.5,569.4,430,568.5z"/>
		<path class="st0" d="M441.1,582.2c-1.2-0.5-2.1-1.2-2.8-2.1s-1.1-1.9-1.1-3.1h3.3c0.1,1,0.5,1.7,1.3,2.3s1.9,0.9,3.2,0.9
			c1.2,0,2.2-0.3,2.9-0.8c0.7-0.5,1-1.2,1-2s-0.4-1.5-1.1-1.9c-0.8-0.4-1.9-0.8-3.5-1.2c-1.4-0.4-2.6-0.8-3.5-1.1
			c-0.9-0.4-1.7-1-2.3-1.7c-0.6-0.8-1-1.8-1-3c0-1,0.3-1.9,0.9-2.7s1.4-1.5,2.5-1.9c1.1-0.5,2.3-0.7,3.7-0.7c2.1,0,3.8,0.5,5.1,1.6
			c1.3,1.1,2,2.5,2.1,4.4h-3.2c-0.1-1-0.5-1.8-1.2-2.4c-0.7-0.6-1.7-0.9-3-0.9c-1.1,0-2.1,0.2-2.7,0.7c-0.7,0.5-1,1.1-1,1.9
			c0,0.6,0.2,1.1,0.6,1.6c0.4,0.4,0.9,0.7,1.5,1c0.6,0.2,1.5,0.5,2.6,0.8c1.4,0.4,2.5,0.7,3.4,1.1c0.9,0.4,1.6,0.9,2.2,1.6
			c0.6,0.7,0.9,1.7,1,2.8c0,1.1-0.3,2-0.9,2.8s-1.4,1.5-2.5,2s-2.3,0.7-3.7,0.7C443.6,582.9,442.3,582.7,441.1,582.2z"/>
		<path class="st0" d="M459.9,578.2l-3.9,9.4h-2.1l2.6-9.4H459.9z"/>
		<path class="st0" d="M500,564c1.2,0.6,2.1,1.5,2.8,2.8c0.7,1.2,1,2.7,1,4.5v11.3h-3.2v-10.9c0-1.9-0.5-3.4-1.4-4.4
			s-2.2-1.5-3.8-1.5c-1.7,0-3,0.5-4,1.6s-1.5,2.6-1.5,4.6v10.6h-3.2v-10.9c0-1.9-0.5-3.4-1.4-4.4s-2.2-1.5-3.8-1.5
			c-1.7,0-3,0.5-4,1.6S476,570,476,572v10.6h-3.2v-19.2h3.2v2.8c0.6-1,1.5-1.8,2.5-2.3c1.1-0.5,2.2-0.8,3.5-0.8c1.6,0,3,0.4,4.3,1.1
			c1.2,0.7,2.2,1.8,2.8,3.2c0.5-1.4,1.4-2.4,2.7-3.2c1.2-0.7,2.6-1.1,4.1-1.1C497.5,563.1,498.8,563.4,500,564z"/>
		<path class="st0" d="M512.5,581.7c-1.5-0.8-2.6-2-3.4-3.5s-1.2-3.3-1.2-5.2c0-2,0.4-3.7,1.3-5.2s2-2.7,3.5-3.5
			c1.5-0.8,3.1-1.2,4.9-1.2c1.8,0,3.5,0.4,4.9,1.2c1.5,0.8,2.6,2,3.5,3.4c0.9,1.5,1.3,3.2,1.3,5.2s-0.4,3.7-1.3,5.2
			c-0.9,1.5-2.1,2.7-3.6,3.5s-3.2,1.2-5,1.2C515.6,582.9,513.9,582.5,512.5,581.7z M520.6,579.3c1-0.5,1.8-1.3,2.4-2.4
			c0.6-1.1,0.9-2.4,0.9-3.9s-0.3-2.8-0.9-3.9c-0.6-1.1-1.4-1.9-2.4-2.4s-2-0.8-3.2-0.8s-2.2,0.3-3.2,0.8s-1.7,1.3-2.3,2.4
			c-0.6,1.1-0.9,2.4-0.9,3.9c0,1.6,0.3,2.9,0.9,4c0.6,1.1,1.3,1.9,2.3,2.4s2,0.8,3.2,0.8C518.5,580.1,519.6,579.9,520.6,579.3z"/>
		<path class="st0" d="M531.4,567.8c0.8-1.5,1.9-2.6,3.3-3.5c1.4-0.8,2.9-1.2,4.7-1.2c1.5,0,2.9,0.3,4.2,1s2.3,1.6,2.9,2.7v-10.2
			h3.2v26h-3.2V579c-0.6,1.1-1.6,2.1-2.8,2.8s-2.7,1.1-4.3,1.1c-1.7,0-3.3-0.4-4.6-1.3c-1.4-0.8-2.5-2-3.3-3.5s-1.2-3.2-1.2-5.2
			C530.2,571,530.6,569.3,531.4,567.8z M545.6,569.2c-0.6-1.1-1.4-1.9-2.4-2.5s-2.1-0.9-3.3-0.9s-2.3,0.3-3.3,0.8
			c-1,0.6-1.8,1.4-2.3,2.4c-0.6,1.1-0.9,2.3-0.9,3.8s0.3,2.7,0.9,3.8s1.4,1.9,2.3,2.5c1,0.6,2.1,0.9,3.3,0.9s2.3-0.3,3.3-0.9
			s1.8-1.4,2.4-2.5s0.9-2.4,0.9-3.8S546.2,570.3,545.6,569.2z"/>
		<path class="st0" d="M555.1,567.8c0.8-1.5,1.9-2.6,3.3-3.5c1.4-0.8,2.9-1.2,4.6-1.2c1.7,0,3.1,0.4,4.4,1.1
			c1.2,0.7,2.2,1.6,2.8,2.7v-3.5h3.2v19.2h-3.2V579c-0.6,1.1-1.6,2-2.8,2.8c-1.3,0.7-2.7,1.1-4.4,1.1s-3.2-0.4-4.6-1.3
			c-1.4-0.8-2.5-2-3.3-3.5s-1.2-3.2-1.2-5.2C553.9,571,554.3,569.3,555.1,567.8z M569.3,569.2c-0.6-1.1-1.4-1.9-2.4-2.5
			s-2.1-0.9-3.3-0.9s-2.3,0.3-3.3,0.8c-1,0.6-1.8,1.4-2.3,2.4c-0.6,1.1-0.9,2.3-0.9,3.8s0.3,2.7,0.9,3.8s1.4,1.9,2.3,2.5
			c1,0.6,2.1,0.9,3.3,0.9s2.3-0.3,3.3-0.9s1.8-1.4,2.4-2.5s0.9-2.4,0.9-3.8S569.9,570.3,569.3,569.2z"/>
	</g>
</g>
</svg>
