<?xml version="1.0" encoding="utf-8"?>
<!-- Generator: Adobe Illustrator 26.3.1, SVG Export Plug-In . SVG Version: 6.00 Build 0)  -->
<svg version="1.1" id="圖層_1" xmlns="http://www.w3.org/2000/svg" xmlns:xlink="http://www.w3.org/1999/xlink" x="0px" y="0px"
	 width="246px" height="246px" viewBox="0 0 246 246" style="enable-background:new 0 0 246 246;" xml:space="preserve">
<style type="text/css">
	.st0{fill:#1F323D;}
</style>
<g>
	<path class="st0" d="M111.4,113.9c7.3-4.3,14.9-7.8,22.9-10.5c-5.4,0.4-10.8,1.4-16,3C115.9,108.8,113.6,111.3,111.4,113.9z"/>
	<path class="st0" d="M96.5,113.8c0-3.2,0.9-33.7,27-23.1c0.3,0.1,0.6,0.3,0.9,0.4c3.7-1.8,7.5-3.5,11.4-4.8c-2.5-2.4-5.1-4.6-8-6.5
		c0,0-12.3-9.3-22.9-0.8C104.9,78.9,90.7,88.1,96.5,113.8L96.5,113.8z"/>
	<path class="st0" d="M132.9,152.1L132.9,152.1h-0.2h-0.1l-0.1,0.1l-0.1,0.1l-0.1,0.1l-0.1,0.1l-0.2,0.1l-0.1,0.1l-0.2,0.1l-0.2,0.1
		l-0.2,0.1l-0.2,0.1l-0.2,0.1l-0.2,0.1l-0.2,0.1l-0.2,0.1l-0.2,0.1l-0.2,0.1l-0.3,0.1l-0.2,0.1l-0.3,0.1l-0.2,0.1l-0.4,0.2h-0.1
		l-0.6,0.2l-0.2,0.1l-0.4,0.2l-0.2,0.1l-0.4,0.1l-0.3,0.1l-0.4,0.1l-0.3,0.1l-0.4,0.1l-0.3,0.1l-0.4,0.1l-0.3,0.1l-0.4,0.1l-0.3,0.1
		l-0.4,0.1l-0.3,0.1l-0.4,0.1l-0.3,0.1l-0.4,0.1l-0.3,0.1l-0.4,0.1l-0.3,0.1l-0.4,0.1l-0.3,0.1l-0.4,0.1h-0.3l-0.4,0.1h-0.3h-0.5
		h-0.2c-0.3,0-0.5,0-0.8,0h-1.5h-0.7h-0.2l-0.5-0.1h-0.3l-0.4-0.1h-0.3l-0.4-0.1l-0.3-0.1l-0.4-0.1l-0.3-0.1l-0.4-0.1l-0.3-0.1
		l-0.4-0.1l-0.3-0.1L110,156l-0.3-0.1l-0.4-0.2l-0.3-0.1l-0.4-0.2l-0.3-0.1l-0.4-0.2l-0.3-0.1l-0.4-0.2l-0.2-0.2l-0.4-0.3l-0.2-0.2
		l-0.4-0.4l-0.1-0.1c-0.2-0.2-0.4-0.3-0.6-0.5c0,0,0,0-0.1-0.1c-0.2-0.2-0.3-0.3-0.5-0.5l-0.2-0.2l-0.3-0.4
		c-0.1-0.1-0.1-0.2-0.2-0.2l-0.3-0.4l-0.2-0.3l-0.3-0.4l-0.2-0.3l-0.3-0.4c-0.1-0.1-0.1-0.2-0.2-0.4l-0.2-0.5l-0.2-0.4
		c-0.1-0.2-0.2-0.3-0.2-0.5s-0.1-0.3-0.2-0.4s-0.1-0.4-0.2-0.5s-0.1-0.3-0.2-0.4s-0.1-0.4-0.2-0.6s-0.1-0.3-0.1-0.4
		s-0.1-0.4-0.2-0.6s-0.1-0.3-0.1-0.5s-0.1-0.4-0.2-0.6s-0.1-0.3-0.1-0.5s-0.1-0.5-0.1-0.7l-0.1-0.5c0-0.3-0.1-0.6-0.1-0.8l-0.1-0.4
		c-0.1-0.4-0.1-0.9-0.2-1.3c-0.1-0.5-0.1-1-0.1-1.5c-4-1.8-7.5-3.5-10.3-5c-0.7,2.7-1.1,5.3-1.4,8.1c0,0-2.4,15.3,10.1,20.6h0.1h0.1
		c0,0,0.1,0,0.1,0.1l0.1,0.1l0.1,0.1l0.2,0.1l0.2,0.1l0.2,0.1l0.2,0.1l0.2,0.1l0.2,0.1l0.3,0.1l0.3,0.1l0.3,0.1l0.3,0.1l0.3,0.1
		l0.4,0.1l0.4,0.1l0.4,0.1l0.4,0.1l0.4,0.1l0.4,0.1l0.4,0.1l0.5,0.1h0.5h0.5h0.5h0.6h1.1h0.6h0.6h0.7l0.6-0.1l0.7-0.1l0.7-0.1
		l0.7-0.1l0.7-0.1l0.7-0.2l0.7-0.1l0.8-0.2l0.7-0.2l0.8-0.2l0.7-0.2l0.8-0.3l0.8-0.3c0.3-0.1,0.6-0.2,0.8-0.3l0.8-0.3
		c0.3-0.1,0.6-0.3,0.9-0.4l0.8-0.4l0.9-0.5l0.8-0.4c0.3-0.2,0.6-0.4,0.9-0.6s0.5-0.3,0.8-0.5s0.7-0.4,1-0.6l0.8-0.5
		c0.3-0.2,0.7-0.5,1.1-0.8l0.8-0.5l1.2-0.9l0.6-0.5c0.6-0.5,1.2-1,1.8-1.5h0.1l-0.1,0.1L132.9,152.1z"/>
	<path class="st0" d="M93.4,128.9c2.5,0.8,4.9,1.6,7.2,2.2V131c0.1-0.2,0.1-0.5,0.2-0.8c0.2-0.6,0.3-1.2,0.6-1.8s0.5-1.4,0.8-2.1
		l0.5-1.1c0.4-0.9,0.8-1.8,1.3-2.8c0.3-0.6,0.7-1.3,1-2l0.6-1c0.6-1,1.3-2.1,2-3.2l0,0l0.7-1c0.5-0.7,1.1-1.5,1.7-2.2
		s1.2-1.5,1.8-2.2c0.9-1,1.9-2.1,2.9-3.2l0.3-0.3c4.6-4.6,9.6-8.8,15-12.4l0,0c1.8-1.2,3.7-2.4,5.6-3.7c1.1-0.6,2.1-1.3,3.2-1.9
		c2.2-1.3,4.5-2.5,7-3.8c0.2,0.5,0.4,1,0.7,1.5c2.4,3.9,7.6,5,11.4,2.6c3.9-2.4,5-7.6,2.6-11.4c-2.4-3.9-7.6-5-11.4-2.6
		c-2.1,1.3-3.5,3.6-3.8,6.1c0,0.5,0,1.1,0,1.6s0.1,1.1,0.3,1.6l0,0c-1.3,0.3-3,0.8-5.1,1.4c-0.6,0.2-1.3,0.4-2,0.6l-1.4,0.5
		l-0.8,0.3c-1.8,0.7-3.8,1.4-5.9,2.3l-1.8,0.8c-0.7,0.3-1.3,0.6-2,0.9l-0.5,0.2l-0.9,0.4c-0.9,0.4-1.8,0.9-2.7,1.4
		c-0.9,0.5-1.8,1-2.7,1.5c-0.4,0.3-0.9,0.5-1.3,0.8c-1.3,0.8-2.7,1.7-4.1,2.6c-1.3,0.9-2.7,1.9-4,2.9c-0.9,0.7-1.8,1.4-2.6,2.1
		s-1.7,1.5-2.5,2.3s-1.6,1.6-2.4,2.4c-0.4,0.4-0.8,0.8-1.2,1.3c-0.8,0.9-1.5,1.8-2.3,2.7c-0.4,0.5-0.7,0.9-1.1,1.4
		c-0.7,1-1.4,1.9-2,3c-0.3,0.5-0.7,1-1,1.5c-0.6,1-1.2,2.1-1.8,3.2c-0.5,0.9-0.9,1.9-1.3,2.9c-0.2,0.3-0.3,0.7-0.4,1
		c-0.3,0.8-0.6,1.6-0.9,2.5c0.8,0.3,1.6,0.6,2.4,0.8L93.4,128.9z"/>
	<path class="st0" d="M176.4,124.7c0-0.7-0.1-1.3-0.3-1.9c-0.2-1.1-0.6-2.1-1.1-3.2c-0.3-0.8-0.8-1.7-1.3-2.4
		c-0.4-0.6-0.8-1.3-1.3-1.9c-0.8-1.1-1.7-2.1-2.7-3c-0.3-0.3-0.6-0.5-0.9-0.8c-1.3-1.2-2.7-2.3-4.2-3.3c-2.7-1.8-5.7-3.3-8.7-4.4
		c-0.4-0.2-0.8-0.3-1.2-0.4c-2.8-1-5.6-1.8-8.5-2.4l0,0c-0.2-0.4-0.4-0.8-0.6-1.2l-0.4-0.7l0,0l-0.1-0.2l-0.2-0.4
		c-0.2-0.4-0.4-0.8-0.7-1.2s-0.4-0.7-0.5-0.9l-0.2-0.3l0,0c-1.1-1.9-2.4-3.6-3.7-5.3c-3.2,1.8-6,3.7-8.7,5.5
		c5.9,5.8,13.5,17,16.5,37.9c1.7-0.5,3.4-1.1,5-1.9c0.1-8.4-1.2-16.8-3.8-24.8l0,0c-0.3-1-0.6-1.9-1-2.9c-0.3-0.8-0.7-1.6-1-2.3l0,0
		c1,0.4,2.1,1,3.2,1.6s2.1,1.2,3.1,1.8l0.6,0.4c0.3,0.2,0.6,0.4,0.9,0.6l0.4,0.3c0.5,0.4,1,0.8,1.6,1.2l0.2,0.2
		c0.6,0.4,1.1,0.9,1.6,1.4l0.6,0.6c5.2,5.2,7.7,12.2-0.8,20.5l0,0l0,0l0,0h-0.1l0,0l-0.3,0.3l0,0l-0.2,0.1l-0.1,0.1l-0.2,0.2h-0.1
		l-0.7,0.5l-0.1,0.1l-0.3,0.2l-0.1,0.1l-0.3,0.2l-0.1,0.1c-0.3,0.2-0.7,0.4-1.1,0.6l-0.1,0.1l-0.5,0.2l-0.2,0.1l-0.5,0.2l-0.2,0.1
		l-0.3,0.1l0,0c-0.4,0.2-0.7,0.3-1.1,0.5l-0.2,0.1l-0.6,0.2l-0.2,0.1l-0.6,0.2l-0.2,0.1l-0.9,0.3l0,0l-0.8,0.2l0,0h-0.2l-0.2,0.1
		l-0.8,0.2l-0.3,0.1l-0.8,0.2l-0.3,0.1l-1,0.2h-0.1l-1.2,0.2l-0.3,0.1c-0.3,0.1-0.6,0.1-0.9,0.1l-0.4,0.1l-0.9,0.1h-0.4L139,137
		h-0.2c-0.5,0.1-0.9,0.1-1.4,0.1H137l-1.1,0.1h-0.5h-1.1h-0.5h-1.4h-0.3h-2h-0.5l-1.9-0.1h-0.2l-2.2-0.1l-0.6-0.1
		c-0.7,0-1.4-0.1-2.1-0.2h-0.2c-0.8-0.1-1.6-0.2-2.3-0.3l-0.6-0.1c-0.8-0.1-1.5-0.2-2.3-0.3H117c-0.8-0.1-1.7-0.3-2.5-0.4l-0.7-0.1
		c-0.8-0.1-1.7-0.3-2.5-0.5h-0.2l-2.8-0.6l-0.7-0.2c-0.9-0.2-1.8-0.4-2.8-0.7h-0.1c-0.9-0.2-1.8-0.5-2.7-0.7l-0.2-0.1l-0.8-0.2
		l-0.6-0.2l0,0c-0.8-0.2-1.6-0.4-2.4-0.7h0c-1-0.3-2.1-0.6-3.2-1l-0.8-0.3l-3.3-1.1l0,0h-0.1l0,0l-1.5-0.5l-2-0.4l-0.9-0.3l-0.2-0.1
		l0,0c0.1-0.3,0.2-0.7,0.2-1.1c0-0.2,0-0.4,0-0.6c0.2-4.6-3.4-8.4-8-8.6c-2.6-0.1-5,1-6.7,3l-0.3,0.4c-2.7,3.7-2,8.9,1.7,11.6
		s8.9,2,11.6-1.7c0.2-0.3,0.4-0.5,0.6-0.8c0.3-0.5,0.5-1,0.7-1.5l0,0l0.4,0.3l0.2,0.1c0.3,0.2,0.6,0.4,1,0.6l0,0l1,0.6h0.1l0.2,0.1
		l1.2,0.6l0,0l0,0l1.3,0.7l0.3,0.1l1.4,0.7H93l1.4,0.7l0.3,0.2l1.6,0.8h0.1l1.6,0.8l0.4,0.2l1.4,0.6l0.3,0.1h0.1l1.2,0.5l0.5,0.2
		l0.4,0.2l1.9,0.8h0.1l1.8,0.7l0.5,0.2l2,0.8l0.2,0.1c0.6,0.2,1.3,0.4,1.9,0.7l0.5,0.2l2.1,0.7l0.2,0.1l2,0.6l0.5,0.1
		c0.7,0.2,1.5,0.4,2.2,0.6l0.2,0.1c0.7,0.2,1.4,0.4,2,0.5l0.5,0.1l2.3,0.5l0.3,0.1c0.7,0.1,1.4,0.3,2.1,0.4l0.6,0.1
		c0.8,0.1,1.6,0.3,2.3,0.4h0.3c0.7,0.1,1.4,0.2,2.1,0.3l0.6,0.1c0.8,0.1,1.6,0.2,2.4,0.2h0.3l2.1,0.1h0.6c0.8,0,1.6,0.1,2.4,0.1h2
		h0.7h0.9h0.1l0.8-0.1l0.9-0.1l1-0.1l0.9-0.1l1-0.1l0.8-0.1h0.2l0,0l0.8-0.1l0.8-0.1l1-0.2l0.6-0.1l0.2-0.1l1-0.2l0.8-0.2l1-0.3
		c0.3-0.1,0.5-0.1,0.8-0.2s0.7-0.2,1-0.3l0.8-0.2c0.4-0.1,0.7-0.2,1-0.4l0.7-0.2l1-0.4l0.7-0.3l1-0.4c0.2-0.1,0.5-0.2,0.7-0.3l1-0.5
		l0.7-0.3c0.4-0.2,0.7-0.4,1.1-0.6l0.6-0.3c0.5-0.3,0.9-0.5,1.4-0.8l0.3-0.1c2.4-1.4,4.5-3.2,6.1-5.4c0.5-0.6,0.9-1.3,1.2-2
		c0.1-0.2,0.2-0.5,0.3-0.7c0.4-1,0.7-2.1,0.8-3.3C176.2,125.9,176.3,125.3,176.4,124.7z"/>
	<path class="st0" d="M150.5,155.1c-0.1,0-0.3,0-0.5,0c0.5-2.3,1.2-5.4,1.7-9.1c-0.9,0.2-1.9,0.4-2.9,0.5c0.1,2.7,0.2,5.6,0.2,8.6
		c-4.6,0.4-7.9,4.5-7.5,9c0.4,4.6,4.5,7.9,9,7.5s7.9-4.5,7.5-9C157.6,158.6,154.5,155.4,150.5,155.1L150.5,155.1z"/>
</g>
</svg>
