<svg width="416" height="54" viewBox="0 0 416 54" fill="none" xmlns="http://www.w3.org/2000/svg">
<path d="M9.86703 24.8251C9.87571 20.9061 11.4364 17.1501 14.2076 14.3789C16.9787 11.6078 20.7347 10.0471 24.6537 10.0384H30.3342V0.0656881C25.7914 0.0369363 24.5223 -0.238262 19.8521 0.6284C19.805 0.640583 19.757 0.648826 19.7084 0.653044C14.1438 1.80073 9.14473 4.83131 5.55355 9.23424C1.96238 13.6372 -0.00140237 19.1433 -0.00708008 24.8251C-0.00708008 38.4288 11.0828 49.6256 24.6824 49.6256H49.6143V0.0656881H39.9784V39.6816L24.6619 39.6241C20.7393 39.6175 16.9794 38.0561 14.2062 35.2821C11.4329 32.508 9.87246 28.7476 9.86703 24.8251Z" fill="#1F333D"/>
<path d="M19.3113 25.0887C19.3113 28.2514 21.6772 30.3544 24.8399 30.3544H30.3479V19.3384H25.0616C23.5365 19.3384 22.074 19.9442 20.9956 21.0226C19.9172 22.101 19.3113 23.5636 19.3113 25.0887Z" fill="#1F333D"/>
<path d="M66.1397 17.9624H55.0457V49.6962H66.1397V17.9624Z" fill="#1F333D"/>
<path d="M55.1525 0.0581055H64.7638V2.84292H57.8839V8.3263H64.7638V11.0577H55.1525V0.0581055Z" fill="#1F333D"/>
<path d="M68.8794 4.11206H59.2681V6.89688H66.148V12.3803H59.2681V15.1117H68.8794V4.11206Z" fill="#1F333D"/>
<path d="M75.0898 49.388L80.257 37.4766H81.7726L86.8945 49.388H85.0093L83.777 46.4594H78.1212L76.9258 49.388H75.0898ZM83.1896 44.9931L80.9676 39.3865L78.7249 44.9767L83.1896 44.9931Z" fill="#1F333D"/>
<path d="M93.4869 49.2443C92.9757 49.4951 92.4134 49.6244 91.844 49.6221C91.2711 49.632 90.7026 49.52 90.1763 49.2936C89.6972 49.0861 89.2675 48.7796 88.9154 48.394C88.5552 48.0037 88.2759 47.5458 88.094 47.0468C87.9007 46.5208 87.8032 45.9643 87.8064 45.4039C87.8009 44.8432 87.8985 44.2864 88.094 43.7609C88.2758 43.2643 88.5551 42.809 88.9154 42.4219C89.271 42.0376 89.7034 41.7326 90.1846 41.5265C90.7044 41.308 91.2637 41.199 91.8275 41.2061C92.4207 41.1906 93.0074 41.3323 93.528 41.6168C93.9794 41.8621 94.3707 42.2044 94.6739 42.619H94.7068V36.6592H96.2923V49.3921H94.7562V48.1312H94.7192C94.4237 48.6127 93.9959 48.9991 93.4869 49.2443ZM89.6383 46.4759C89.7443 46.8141 89.9161 47.1282 90.1436 47.4C90.3698 47.6706 90.6495 47.8915 90.965 48.049C91.3222 48.2206 91.7148 48.3051 92.1109 48.2955C92.4794 48.2978 92.8442 48.2214 93.1807 48.0712C93.5172 47.921 93.8176 47.7006 94.0619 47.4247C94.302 47.1572 94.4888 46.8463 94.6124 46.5087C94.8698 45.8017 94.8698 45.0265 94.6124 44.3195C94.487 43.9791 94.3005 43.6645 94.0619 43.3912C93.8259 43.1221 93.5364 42.9053 93.2118 42.7546C92.8679 42.592 92.4912 42.5105 92.1109 42.5163C91.7157 42.5061 91.3235 42.5877 90.965 42.7546C90.6491 42.906 90.369 43.123 90.1436 43.3912C89.9161 43.6646 89.7443 43.98 89.6383 44.3195C89.4138 45.0208 89.4138 45.7746 89.6383 46.4759Z" fill="#1F333D"/>
<path d="M101.554 41.6334C102.021 41.3296 102.57 41.1736 103.127 41.1857C103.637 41.1796 104.14 41.3085 104.585 41.5595C105.051 41.8468 105.409 42.28 105.604 42.7917C105.854 42.2929 106.247 41.8797 106.733 41.6047C107.176 41.3607 107.667 41.2203 108.172 41.194C108.676 41.1677 109.18 41.2561 109.645 41.4527C110.001 41.6151 110.316 41.8535 110.57 42.1509C110.823 42.4511 111.01 42.8009 111.12 43.1778C111.239 43.5889 111.298 44.0149 111.297 44.4429V49.3923H109.711V44.9604C109.712 44.6491 109.684 44.3385 109.629 44.0321C109.58 43.7597 109.482 43.4983 109.341 43.2599C109.21 43.0383 109.025 42.8533 108.803 42.7219C108.541 42.5764 108.244 42.5054 107.945 42.5165C107.62 42.508 107.3 42.5875 107.017 42.7465C106.764 42.8909 106.549 43.092 106.388 43.3339C106.22 43.5838 106.099 43.8622 106.031 44.1554C105.96 44.4597 105.924 44.7712 105.924 45.0836V49.3923H104.339V44.64C104.343 44.3517 104.315 44.0639 104.256 43.7816C104.208 43.5422 104.11 43.3155 103.969 43.1162C103.833 42.9297 103.654 42.779 103.447 42.6767C103.199 42.5624 102.928 42.5076 102.655 42.5165C102.373 42.5134 102.094 42.5769 101.842 42.7018C101.589 42.8267 101.369 43.0095 101.201 43.2353C100.788 43.7836 100.581 44.4598 100.617 45.1453V49.3882H99.036V43.1244C99.036 42.9108 99.036 42.6356 99.036 42.3029C99.036 41.9702 99.0072 41.6704 98.9825 41.4116H100.469C100.494 41.6129 100.51 41.8224 100.523 42.0935C100.535 42.3645 100.523 42.5576 100.523 42.726H100.572C100.793 42.2784 101.132 41.9003 101.554 41.6334Z" fill="#1F333D"/>
<path d="M115.531 39.251C115.327 39.4393 115.058 39.5422 114.78 39.5385C114.643 39.5416 114.507 39.517 114.38 39.4662C114.253 39.4154 114.137 39.3394 114.04 39.2428C113.943 39.1512 113.866 39.0404 113.813 38.9173C113.761 38.7943 113.735 38.6617 113.736 38.5281C113.733 38.3912 113.759 38.2551 113.811 38.1286C113.864 38.002 113.942 37.8877 114.04 37.7929C114.138 37.697 114.253 37.6217 114.38 37.5716C114.507 37.5215 114.643 37.4976 114.78 37.5012C115.059 37.4951 115.329 37.6 115.531 37.7929C115.632 37.8867 115.712 38.0006 115.766 38.1273C115.819 38.2539 115.846 38.3905 115.843 38.5281C115.847 38.6639 115.82 38.7989 115.766 38.9236C115.712 39.0484 115.632 39.16 115.531 39.251ZM113.991 49.388V41.4074H115.572V49.388H113.991Z" fill="#1F333D"/>
<path d="M119.815 42.0892C119.815 42.3398 119.815 42.5533 119.815 42.7217H119.869C119.973 42.5013 120.111 42.2988 120.279 42.122C120.457 41.9332 120.658 41.7688 120.879 41.6333C121.109 41.4894 121.358 41.3788 121.618 41.3047C121.885 41.2274 122.162 41.1873 122.44 41.1856C122.897 41.1747 123.352 41.2645 123.771 41.4485C124.126 41.6109 124.442 41.8492 124.695 42.1467C124.948 42.4468 125.135 42.7966 125.245 43.1735C125.364 43.5846 125.424 44.0107 125.422 44.4386V49.388H123.882V44.9603C123.883 44.6493 123.858 44.3388 123.808 44.032C123.765 43.7591 123.67 43.497 123.528 43.2598C123.394 43.0346 123.203 42.8489 122.974 42.7217C122.693 42.5745 122.379 42.5037 122.062 42.5164C121.767 42.5088 121.475 42.5698 121.207 42.6945C120.94 42.8193 120.705 43.0043 120.522 43.2352C120.101 43.78 119.89 44.4577 119.926 45.1451V49.388H118.341V43.1243C118.341 42.9107 118.341 42.6355 118.341 42.3028C118.341 41.9701 118.312 41.6702 118.291 41.4115H119.774C119.774 41.6086 119.803 41.851 119.815 42.0892Z" fill="#1F333D"/>
<path d="M129.694 39.251C129.489 39.4393 129.22 39.5422 128.942 39.5385C128.805 39.5416 128.669 39.517 128.542 39.4662C128.415 39.4154 128.3 39.3394 128.203 39.2428C128.105 39.1512 128.028 39.0404 127.976 38.9173C127.923 38.7943 127.897 38.6617 127.899 38.5281C127.896 38.3912 127.921 38.2551 127.973 38.1286C128.026 38.002 128.104 37.8877 128.203 37.7929C128.3 37.697 128.416 37.6217 128.543 37.5716C128.67 37.5215 128.805 37.4976 128.942 37.5012C129.221 37.4951 129.491 37.6 129.694 37.7929C129.794 37.8867 129.874 38.0006 129.928 38.1273C129.982 38.2539 130.008 38.3905 130.006 38.5281C130.009 38.6639 129.982 38.7989 129.929 38.9236C129.875 39.0484 129.795 39.16 129.694 39.251ZM128.153 49.388V41.4074H129.735V49.388H128.153Z" fill="#1F333D"/>
<path d="M136.048 42.7093C135.714 42.5229 135.337 42.428 134.955 42.4341C134.774 42.4347 134.594 42.454 134.417 42.4916C134.248 42.528 134.086 42.5904 133.937 42.6764C133.802 42.7568 133.687 42.8662 133.6 42.9968C133.511 43.1408 133.466 43.3081 133.472 43.4774C133.469 43.633 133.511 43.7862 133.591 43.9193C133.672 44.0524 133.789 44.1598 133.928 44.229C134.363 44.4332 134.821 44.5822 135.292 44.6726C135.652 44.7563 136.006 44.8633 136.352 44.993C136.657 45.104 136.943 45.2605 137.202 45.4572C137.438 45.6344 137.631 45.8616 137.769 46.1226C137.907 46.4048 137.976 46.716 137.97 47.0303C137.983 47.4453 137.89 47.8569 137.699 48.2256C137.529 48.5523 137.284 48.8339 136.984 49.047C136.677 49.2607 136.331 49.4127 135.966 49.4947C135.579 49.5842 135.184 49.6283 134.787 49.6262C134.176 49.6269 133.572 49.5069 133.008 49.2729C132.443 49.0471 131.947 48.6758 131.571 48.1968L132.7 47.2357C132.927 47.5665 133.23 47.8383 133.583 48.0284C133.959 48.2413 134.384 48.3517 134.816 48.3488C135.012 48.3493 135.207 48.3286 135.399 48.2871C135.577 48.2521 135.748 48.1868 135.904 48.0941C136.051 48.0071 136.175 47.886 136.265 47.7409C136.362 47.5726 136.409 47.3803 136.401 47.1864C136.403 47.012 136.353 46.841 136.258 46.6948C136.163 46.5486 136.027 46.4338 135.867 46.3649C135.37 46.136 134.847 45.9665 134.31 45.8597C134.043 45.794 133.768 45.7118 133.489 45.6173C133.22 45.5198 132.968 45.3812 132.741 45.2066C132.515 45.0381 132.329 44.8222 132.195 44.5741C132.043 44.2873 131.97 43.9658 131.981 43.6417C131.973 43.2569 132.063 42.8764 132.244 42.5368C132.412 42.2366 132.645 41.9782 132.926 41.781C133.217 41.5777 133.543 41.4288 133.887 41.3415C134.806 41.0976 135.78 41.1655 136.656 41.5346C137.153 41.7332 137.581 42.073 137.888 42.5121L136.795 43.4404C136.612 43.1377 136.355 42.8862 136.048 42.7093Z" fill="#1F333D"/>
<path d="M141.757 42.7012V46.862C141.723 47.2282 141.819 47.5946 142.028 47.8971C142.139 48.0091 142.274 48.0952 142.422 48.1492C142.571 48.2031 142.729 48.2236 142.887 48.2092C143.045 48.2081 143.203 48.1916 143.359 48.16C143.517 48.1293 143.67 48.0782 143.815 48.008L143.864 49.3059C143.658 49.3753 143.446 49.4288 143.232 49.4661C142.995 49.5042 142.756 49.5234 142.517 49.5236C142.202 49.5445 141.886 49.4998 141.589 49.3923C141.292 49.2848 141.02 49.117 140.792 48.8993C140.356 48.3782 140.141 47.7077 140.192 47.0304V42.7012H138.668V41.4074H140.2V39.1155H141.765V41.4074H143.889V42.7012H141.757Z" fill="#1F333D"/>
<path d="M145.495 42.2986C145.495 41.9618 145.47 41.6661 145.446 41.4073H146.945C146.969 41.6086 146.986 41.8427 146.994 42.1056C147.002 42.3684 146.994 42.5861 146.994 42.7546H147.047C147.263 42.2903 147.604 41.8961 148.033 41.6168C148.466 41.3369 148.972 41.1938 149.487 41.2061C149.698 41.2026 149.907 41.2261 150.112 41.2759L150.046 42.7422C149.808 42.6833 149.564 42.6543 149.319 42.656C148.976 42.6478 148.635 42.7195 148.325 42.8654C148.052 42.9992 147.814 43.193 147.627 43.4323C147.437 43.6765 147.298 43.9556 147.216 44.2537C147.125 44.5673 147.079 44.8924 147.08 45.219V49.4126H145.499V43.1242C145.515 42.9106 145.507 42.6354 145.495 42.2986Z" fill="#1F333D"/>
<path d="M155.821 42.8984C155.404 42.6013 154.898 42.4563 154.387 42.4876C153.95 42.4847 153.518 42.5743 153.118 42.7505C152.744 42.9057 152.404 43.1316 152.116 43.4159L151.294 42.4014C151.71 42.0164 152.199 41.7189 152.732 41.5265C153.317 41.3099 153.936 41.2014 154.56 41.2061C155.068 41.1947 155.573 41.2783 156.051 41.4526C156.441 41.5953 156.794 41.8225 157.086 42.118C157.358 42.4012 157.566 42.7404 157.694 43.112C157.831 43.508 157.899 43.9249 157.895 44.3442V47.8314C157.895 48.1052 157.903 48.3886 157.92 48.6816C157.93 48.9276 157.962 49.1722 158.014 49.4127H156.581C156.491 49.0373 156.446 48.6527 156.445 48.2667H156.396C156.117 48.684 155.738 49.0255 155.295 49.2607C154.807 49.508 154.265 49.6294 153.718 49.614C153.385 49.6115 153.055 49.5701 152.732 49.4907C152.399 49.4104 152.083 49.2713 151.8 49.08C151.513 48.8832 151.275 48.625 151.101 48.3242C150.906 47.9687 150.81 47.5673 150.822 47.1618C150.794 46.6364 150.969 46.1204 151.311 45.7201C151.663 45.3434 152.103 45.061 152.592 44.8987C153.169 44.7042 153.768 44.5827 154.375 44.5372C155.036 44.4838 155.706 44.4551 156.379 44.4551V44.2333C156.399 43.9824 156.358 43.7305 156.261 43.4984C156.164 43.2663 156.013 43.0606 155.821 42.8984ZM154.753 45.6339C154.365 45.6598 153.981 45.7273 153.607 45.8352C153.293 45.9211 153.002 46.077 152.757 46.2911C152.643 46.3943 152.553 46.5216 152.495 46.6637C152.437 46.8058 152.411 46.9592 152.42 47.1126C152.411 47.318 152.461 47.5217 152.564 47.6999C152.657 47.8572 152.786 47.9896 152.941 48.086C153.1 48.1895 153.277 48.2619 153.463 48.2996C153.657 48.3376 153.853 48.3569 154.05 48.3571C154.367 48.3769 154.684 48.3277 154.98 48.2128C155.276 48.0979 155.543 47.9201 155.763 47.6917C156.166 47.2283 156.379 46.6297 156.359 46.0159V45.6051H155.973C155.578 45.5915 155.172 45.601 154.753 45.6339Z" fill="#1F333D"/>
<path d="M162.08 39.2511C161.878 39.4395 161.61 39.5425 161.333 39.5386C161.195 39.542 161.059 39.5176 160.931 39.4668C160.803 39.416 160.687 39.3398 160.59 39.2429C160.492 39.1513 160.415 39.0405 160.363 38.9175C160.31 38.7944 160.284 38.6619 160.286 38.5282C160.283 38.3913 160.308 38.2553 160.36 38.1287C160.413 38.0021 160.491 37.8878 160.59 37.793C160.687 37.6966 160.804 37.6211 160.931 37.5709C161.059 37.5208 161.196 37.4971 161.333 37.5013C161.471 37.4982 161.608 37.5224 161.736 37.5724C161.864 37.6225 161.981 37.6974 162.08 37.793C162.182 37.8863 162.262 38.0002 162.316 38.1269C162.37 38.2537 162.396 38.3905 162.393 38.5282C162.397 38.6642 162.371 38.7993 162.317 38.9242C162.263 39.0491 162.182 39.1607 162.08 39.2511ZM160.54 49.3881V41.4075H162.122V49.3881H160.54Z" fill="#1F333D"/>
<path d="M172.636 47.0798C172.427 47.5834 172.116 48.039 171.725 48.4188C171.331 48.8012 170.865 49.1001 170.353 49.2978C169.256 49.7086 168.048 49.7086 166.952 49.2978C166.442 49.101 165.978 48.8019 165.588 48.4188C165.201 48.0367 164.894 47.5815 164.685 47.0798C164.246 45.9913 164.246 44.7755 164.685 43.6871C164.894 43.1875 165.204 42.7359 165.593 42.3595C165.983 41.9832 166.445 41.69 166.952 41.4978C168.047 41.0818 169.257 41.0818 170.353 41.4978C170.862 41.6942 171.328 41.9886 171.725 42.3645C172.114 42.7397 172.424 43.1895 172.636 43.6871C173.075 44.7755 173.075 45.9913 172.636 47.0798ZM171.137 44.2868C171.024 43.9511 170.85 43.6391 170.624 43.3667C170.397 43.1022 170.117 42.8881 169.802 42.7383C169.444 42.581 169.056 42.4999 168.665 42.4999C168.273 42.4999 167.886 42.581 167.527 42.7383C167.212 42.8881 166.932 43.1022 166.705 43.3667C166.479 43.6391 166.305 43.9511 166.192 44.2868C165.956 44.9975 165.956 45.7653 166.192 46.476C166.305 46.813 166.479 47.1262 166.705 47.4002C166.93 47.6707 167.21 47.8893 167.527 48.0409C167.886 48.1982 168.273 48.2793 168.665 48.2793C169.056 48.2793 169.444 48.1982 169.802 48.0409C170.119 47.8893 170.4 47.6707 170.624 47.4002C170.85 47.1262 171.024 46.813 171.137 46.476C171.373 45.7653 171.373 44.9975 171.137 44.2868Z" fill="#1F333D"/>
<path d="M176.633 42.0892C176.633 42.3398 176.633 42.5533 176.633 42.7217H176.686C176.791 42.5013 176.929 42.2988 177.097 42.122C177.275 41.9341 177.477 41.7699 177.697 41.6333C177.927 41.4901 178.176 41.3796 178.436 41.3047C178.703 41.2274 178.98 41.1873 179.258 41.1856C179.715 41.1747 180.169 41.2645 180.588 41.4485C180.944 41.6118 181.261 41.85 181.517 42.1467C181.767 42.4482 181.953 42.7976 182.063 43.1735C182.182 43.5846 182.241 44.0107 182.24 44.4386V49.388H180.654V44.9603C180.655 44.6493 180.631 44.3388 180.58 44.032C180.537 43.7591 180.443 43.497 180.301 43.2598C180.167 43.0346 179.976 42.8489 179.746 42.7217C179.467 42.5748 179.154 42.504 178.839 42.5164C178.543 42.5088 178.25 42.5698 177.982 42.6945C177.714 42.8192 177.479 43.0043 177.294 43.2352C176.874 43.78 176.662 44.4577 176.699 45.1451V49.388H175.117V43.1243C175.117 42.9107 175.117 42.6355 175.117 42.3028C175.117 41.9701 175.093 41.6702 175.068 41.4115H176.567C176.604 41.6086 176.625 41.851 176.633 42.0892Z" fill="#1F333D"/>
<path d="M191.066 42.7011V49.388H189.481V42.7011H187.9V41.4073H189.481V39.7397C189.477 39.2992 189.531 38.8601 189.641 38.4336C189.739 38.0543 189.918 37.7011 190.167 37.3985C190.416 37.0986 190.733 36.8621 191.091 36.7084C191.525 36.5283 191.993 36.4415 192.463 36.4538C192.798 36.4485 193.132 36.4886 193.457 36.5729L193.272 37.9365C193.149 37.9037 193.026 37.875 192.902 37.8544C192.767 37.829 192.629 37.8166 192.492 37.8174C192.238 37.8065 191.986 37.8617 191.76 37.9776C191.583 38.0741 191.434 38.2158 191.329 38.3884C191.226 38.58 191.157 38.7887 191.128 39.0045C191.095 39.2412 191.078 39.4801 191.079 39.7192V41.3868H192.931V42.6806L191.066 42.7011Z" fill="#1F333D"/>
<path d="M202.14 47.0798C201.93 47.5834 201.62 48.039 201.228 48.4188C200.835 48.8012 200.368 49.1001 199.856 49.2978C198.76 49.7086 197.552 49.7086 196.455 49.2978C195.945 49.101 195.481 48.8019 195.092 48.4188C194.705 48.0367 194.398 47.5815 194.188 47.0798C193.755 45.9903 193.755 44.7766 194.188 43.6871C194.398 43.1875 194.707 42.7359 195.097 42.3595C195.486 41.9832 195.949 41.69 196.455 41.4978C197.551 41.0818 198.761 41.0818 199.856 41.4978C200.366 41.6942 200.832 41.9886 201.228 42.3645C201.618 42.7397 201.928 43.1895 202.14 43.6871C202.578 44.7755 202.578 45.9913 202.14 47.0798ZM200.641 44.2868C200.528 43.9511 200.354 43.6391 200.127 43.3667C199.9 43.1022 199.62 42.8881 199.306 42.7383C198.947 42.581 198.56 42.4999 198.168 42.4999C197.776 42.4999 197.389 42.581 197.03 42.7383C196.716 42.8881 196.436 43.1022 196.209 43.3667C195.982 43.6391 195.808 43.9511 195.695 44.2868C195.46 44.9975 195.46 45.7653 195.695 46.476C195.808 46.813 195.982 47.1262 196.209 47.4002C196.433 47.6707 196.713 47.8893 197.03 48.0409C197.389 48.1982 197.776 48.2793 198.168 48.2793C198.56 48.2793 198.947 48.1982 199.306 48.0409C199.623 47.8893 199.903 47.6707 200.127 47.4002C200.354 47.1262 200.528 46.813 200.641 46.476C200.876 45.7653 200.876 44.9975 200.641 44.2868Z" fill="#1F333D"/>
<path d="M204.641 42.2986C204.641 41.9618 204.613 41.6661 204.588 41.4073H206.087C206.112 41.6086 206.128 41.8427 206.136 42.1056C206.145 42.3684 206.136 42.5861 206.136 42.7546H206.19C206.405 42.2903 206.747 41.8961 207.176 41.6168C207.608 41.3369 208.115 41.1938 208.63 41.2061C208.84 41.2026 209.05 41.2261 209.254 41.2759L209.188 42.7422C208.95 42.6833 208.706 42.6543 208.461 42.656C208.118 42.6478 207.778 42.7195 207.467 42.8654C207.195 42.9992 206.956 43.193 206.769 43.4323C206.58 43.6765 206.44 43.9556 206.358 44.2537C206.267 44.5673 206.221 44.8924 206.223 45.219V49.4126H204.641V43.1242C204.658 42.9106 204.65 42.6354 204.641 42.2986Z" fill="#1F333D"/>
<path d="M219.14 37.4644C219.915 37.4678 220.686 37.5812 221.428 37.8012C222.181 38.0205 222.885 38.3816 223.503 38.865C224.132 39.3641 224.643 39.9968 224.998 40.7174C225.401 41.5629 225.598 42.4919 225.573 43.4283C225.595 44.3446 225.398 45.2529 224.998 46.0776C224.64 46.7967 224.13 47.429 223.503 47.93C222.884 48.4185 222.181 48.7902 221.428 49.0267C220.689 49.2644 219.917 49.3863 219.14 49.3881H215.033V37.4767L219.14 37.4644ZM218.804 47.9218C219.48 47.9288 220.152 47.8276 220.796 47.6219C221.376 47.435 221.915 47.1364 222.381 46.743C222.83 46.3575 223.184 45.8741 223.416 45.33C223.671 44.7287 223.796 44.081 223.786 43.4283C223.8 42.758 223.674 42.0921 223.416 41.4732C223.185 40.931 222.831 40.45 222.381 40.0684C221.916 39.6787 221.377 39.3867 220.796 39.21C220.151 39.0078 219.479 38.908 218.804 38.9143H216.709V47.9218H218.804Z" fill="#1F333D"/>
<path d="M229.335 39.251C229.132 39.4394 228.864 39.5424 228.587 39.5385C228.45 39.5415 228.313 39.5168 228.186 39.466C228.058 39.4152 227.942 39.3393 227.844 39.2428C227.747 39.1512 227.669 39.0404 227.617 38.9174C227.565 38.7943 227.538 38.6618 227.54 38.5281C227.537 38.3912 227.563 38.2552 227.615 38.1286C227.667 38.002 227.745 37.8877 227.844 37.7929C227.942 37.6969 228.058 37.6216 228.186 37.5715C228.314 37.5214 228.45 37.4975 228.587 37.5012C228.725 37.4981 228.862 37.5223 228.99 37.5723C229.119 37.6224 229.236 37.6973 229.335 37.7929C229.436 37.8862 229.516 38.0001 229.57 38.1268C229.624 38.2536 229.65 38.3904 229.647 38.5281C229.651 38.6641 229.625 38.7992 229.571 38.9241C229.517 39.049 229.437 39.1606 229.335 39.251ZM227.799 49.3881V41.4074H229.38V49.3881H227.799Z" fill="#1F333D"/>
<path d="M234.067 51.7088C234.572 51.9398 235.121 52.0602 235.677 52.062C236.131 52.0754 236.583 51.9986 237.008 51.8361C237.343 51.7007 237.64 51.4865 237.874 51.2117C238.097 50.9371 238.258 50.6177 238.347 50.2753C238.443 49.8955 238.49 49.5048 238.486 49.1129V48.086H238.453C238.163 48.5365 237.747 48.8932 237.258 49.1129C236.752 49.3515 236.199 49.4736 235.64 49.4702C235.076 49.4758 234.517 49.3668 233.997 49.1498C233.515 48.95 233.081 48.6504 232.724 48.2709C232.367 47.8948 232.088 47.4524 231.902 46.9688C231.711 46.4538 231.615 45.9082 231.619 45.3587C231.615 44.808 231.711 44.2611 231.902 43.7445C232.087 43.2542 232.366 42.8049 232.724 42.4219C233.079 42.0398 233.51 41.735 233.989 41.5265C234.507 41.3033 235.067 41.1913 235.632 41.1979C236.2 41.198 236.762 41.3257 237.275 41.5717C237.789 41.8144 238.219 42.2066 238.507 42.6971H238.54V41.4197H240.072V48.9979C240.073 49.5636 240 50.1271 239.854 50.6737C239.714 51.1937 239.46 51.6763 239.111 52.0866C238.738 52.5157 238.271 52.853 237.747 53.0724C237.084 53.3375 236.374 53.4634 235.66 53.4421C234.944 53.4381 234.234 53.3102 233.562 53.0642C232.893 52.8311 232.278 52.4682 231.75 51.9963L232.761 50.7641C233.124 51.1676 233.57 51.4896 234.067 51.7088ZM233.426 46.3691C233.54 46.6988 233.717 47.0029 233.948 47.2645C234.18 47.5215 234.458 47.732 234.769 47.8848C235.118 48.0467 235.498 48.1282 235.882 48.123C236.265 48.1273 236.644 48.0518 236.995 47.9012C237.319 47.7639 237.612 47.5612 237.854 47.3056C238.092 47.0469 238.278 46.7441 238.4 46.4143C238.53 46.0605 238.595 45.6863 238.593 45.3094C238.595 44.9419 238.53 44.5771 238.4 44.2333C238.275 43.9019 238.086 43.5979 237.846 43.3379C237.603 43.0788 237.311 42.8707 236.987 42.7259C236.48 42.4925 235.911 42.4252 235.363 42.5336C234.816 42.642 234.316 42.9206 233.935 43.3296C233.702 43.5894 233.525 43.8942 233.414 44.2251C233.296 44.5744 233.236 44.9407 233.237 45.3094C233.241 45.6707 233.305 46.0288 233.426 46.3691Z" fill="#1F333D"/>
<path d="M244.339 39.251C244.136 39.4394 243.869 39.5424 243.592 39.5385C243.454 39.5415 243.318 39.5168 243.19 39.466C243.062 39.4152 242.946 39.3393 242.848 39.2428C242.751 39.1512 242.674 39.0404 242.621 38.9174C242.569 38.7943 242.543 38.6618 242.544 38.5281C242.541 38.3912 242.567 38.2552 242.619 38.1286C242.672 38.002 242.75 37.8877 242.848 37.7929C242.946 37.6969 243.063 37.6216 243.191 37.5715C243.318 37.5214 243.455 37.4975 243.592 37.5012C243.73 37.4981 243.866 37.5223 243.995 37.5723C244.123 37.6224 244.24 37.6973 244.339 37.7929C244.441 37.8862 244.521 38.0001 244.575 38.1268C244.629 38.2536 244.655 38.3904 244.652 38.5281C244.655 38.6641 244.629 38.7992 244.576 38.9241C244.522 39.049 244.441 39.1606 244.339 39.251ZM242.799 49.3881V41.4074H244.381V49.3881H242.799Z" fill="#1F333D"/>
<path d="M248.927 42.7012V46.862C248.893 47.2282 248.989 47.5946 249.198 47.8971C249.31 48.0091 249.444 48.0952 249.593 48.1492C249.741 48.2031 249.9 48.2236 250.057 48.2092C250.216 48.2079 250.374 48.1914 250.529 48.16C250.686 48.1299 250.838 48.0788 250.981 48.008L251.034 49.3059C250.828 49.3753 250.617 49.4288 250.402 49.4661C250.166 49.5042 249.927 49.5234 249.687 49.5236C249.372 49.5443 249.055 49.4995 248.757 49.3921C248.46 49.2846 248.188 49.1169 247.958 48.8993C247.524 48.3778 247.31 47.7072 247.362 47.0304V42.7012H245.83V41.4074H247.362V39.1155H248.927V41.4074H251.051V42.7012H248.927Z" fill="#1F333D"/>
<path d="M257.113 42.8984C256.697 42.6013 256.19 42.4563 255.68 42.4876C255.243 42.4847 254.81 42.5743 254.411 42.7505C254.037 42.9057 253.696 43.1316 253.408 43.4159L252.587 42.4014C253.003 42.0164 253.492 41.7189 254.024 41.5265C254.609 41.3099 255.229 41.2014 255.852 41.2061C256.36 41.1947 256.866 41.2783 257.343 41.4526C257.733 41.5953 258.087 41.8225 258.378 42.118C258.651 42.4012 258.858 42.7404 258.986 43.112C259.124 43.508 259.192 43.9249 259.187 44.3442V47.8313C259.187 48.1052 259.196 48.3886 259.212 48.6816C259.222 48.9276 259.254 49.1722 259.307 49.4127H257.873C257.783 49.0373 257.738 48.6527 257.737 48.2667H257.688C257.397 48.6826 257.006 49.0188 256.55 49.2443C256.062 49.4915 255.52 49.6129 254.973 49.5975C254.641 49.595 254.31 49.5537 253.987 49.4743C253.655 49.394 253.339 49.2549 253.055 49.0636C252.769 48.8668 252.53 48.6085 252.357 48.3078C252.161 47.9523 252.065 47.5509 252.078 47.1454C252.05 46.62 252.225 46.1039 252.566 45.7037C252.918 45.327 253.359 45.0446 253.848 44.8822C254.425 44.6877 255.023 44.5663 255.63 44.5208C256.292 44.4674 256.961 44.4386 257.635 44.4386V44.2168C257.656 43.9717 257.62 43.7249 257.53 43.496C257.439 43.2672 257.297 43.0626 257.113 42.8984ZM256.045 45.6339C255.657 45.6598 255.273 45.7273 254.899 45.8352C254.585 45.9211 254.294 46.077 254.049 46.2911C253.935 46.3943 253.846 46.5216 253.788 46.6637C253.729 46.8058 253.704 46.9592 253.712 47.1126C253.704 47.318 253.753 47.5217 253.856 47.6999C253.949 47.8572 254.079 47.9896 254.234 48.086C254.393 48.1895 254.57 48.2619 254.756 48.2996C254.949 48.3376 255.146 48.3569 255.343 48.3571C255.66 48.3769 255.977 48.3277 256.273 48.2128C256.568 48.0979 256.835 47.9201 257.056 47.6917C257.461 47.2294 257.674 46.63 257.651 46.0159V45.6051H257.265C256.871 45.5915 256.464 45.601 256.045 45.6339Z" fill="#1F333D"/>
<path d="M261.845 49.388V36.655H263.426V49.388H261.845Z" fill="#1F333D"/>
<path d="M270.483 49.388V37.4766H272.159V49.388H270.483Z" fill="#1F333D"/>
<path d="M276.447 42.0892C276.447 42.3398 276.447 42.5533 276.447 42.7217H276.496C276.602 42.5021 276.74 42.2999 276.907 42.122C277.187 41.8255 277.526 41.5895 277.901 41.4285C278.276 41.2674 278.68 41.1848 279.088 41.1856C279.546 41.1747 280 41.2645 280.419 41.4485C280.775 41.6107 281.092 41.849 281.347 42.1467C281.597 42.4482 281.783 42.7976 281.893 43.1735C282.014 43.5842 282.074 44.0105 282.07 44.4386V49.388H280.489V44.9603C280.491 44.6491 280.464 44.3384 280.411 44.032C280.367 43.7599 280.274 43.4981 280.135 43.2598C280.001 43.0336 279.808 42.8477 279.577 42.7217C279.297 42.5748 278.984 42.504 278.669 42.5164C278.374 42.5088 278.082 42.5698 277.814 42.6945C277.547 42.8193 277.312 43.0043 277.129 43.2352C276.707 43.7794 276.494 44.4572 276.529 45.1451V49.388H274.948V43.1243C274.948 42.9107 274.948 42.6355 274.948 42.3028C274.948 41.9701 274.919 41.6702 274.894 41.4115H276.394C276.418 41.6086 276.435 41.851 276.447 42.0892Z" fill="#1F333D"/>
<path d="M289.89 49.2443C289.379 49.4951 288.817 49.6244 288.247 49.6221C287.674 49.6328 287.106 49.5208 286.58 49.2936C286.099 49.0866 285.668 48.78 285.315 48.394C284.957 48.0016 284.678 47.5443 284.493 47.0468C284.303 46.52 284.207 45.9639 284.21 45.4039C284.205 44.8436 284.301 44.2871 284.493 43.7609C284.677 43.265 284.956 42.8101 285.315 42.4219C285.672 42.0375 286.105 41.7325 286.588 41.5265C287.107 41.3071 287.667 41.198 288.231 41.2061C288.824 41.1916 289.41 41.3332 289.931 41.6168C290.381 41.8632 290.771 42.2054 291.073 42.619H291.11V36.6592H292.696V49.3921H291.164V48.1311H291.131C290.834 48.6143 290.403 49.001 289.89 49.2443ZM286.046 46.4759C286.152 46.8141 286.323 47.1282 286.551 47.4C286.776 47.6718 287.056 47.893 287.372 48.049C287.73 48.2197 288.122 48.3041 288.518 48.2955C288.9 48.2993 289.277 48.2179 289.623 48.0572C289.946 47.9059 290.236 47.6907 290.474 47.4247C290.712 47.157 290.898 46.8461 291.02 46.5087C291.277 45.8017 291.277 45.0265 291.02 44.3195C290.896 43.9793 290.711 43.6646 290.474 43.3912C290.236 43.1239 289.947 42.9074 289.623 42.7546C289.278 42.592 288.9 42.5106 288.518 42.5163C288.123 42.507 287.731 42.5885 287.372 42.7546C287.056 42.9048 286.775 43.122 286.551 43.3912C286.323 43.6646 286.152 43.98 286.046 44.3195C285.821 45.0208 285.821 45.7746 286.046 46.4759Z" fill="#1F333D"/>
<path d="M301.034 48.7062C301.034 48.4557 301.013 48.2421 301.013 48.0737H300.98C300.753 48.5275 300.4 48.9056 299.962 49.1621C299.485 49.458 298.934 49.6119 298.372 49.6057C297.913 49.6179 297.457 49.5325 297.033 49.3552C296.673 49.1989 296.355 48.9596 296.105 48.6569C295.86 48.35 295.678 47.9985 295.567 47.6218C295.446 47.2111 295.387 46.7848 295.39 46.3568V41.4073H296.972V45.8187C296.972 46.1311 296.998 46.443 297.05 46.7511C297.092 47.028 297.187 47.2943 297.329 47.5356C297.461 47.7626 297.653 47.9488 297.883 48.0737C298.163 48.2206 298.476 48.2914 298.791 48.279C299.087 48.2879 299.382 48.2275 299.65 48.1027C299.919 47.978 300.155 47.7922 300.34 47.5603C300.757 47.0139 300.967 46.3369 300.931 45.6503V41.4073H302.512V47.6711C302.512 47.8847 302.512 48.1599 302.512 48.4926C302.512 48.8253 302.541 49.1252 302.566 49.3839H301.067C301.058 49.1868 301.042 48.9609 301.034 48.7062Z" fill="#1F333D"/>
<path d="M308.813 42.7095C308.478 42.5231 308.1 42.4282 307.717 42.4342C307.536 42.4351 307.355 42.4544 307.178 42.4918C307.01 42.5282 306.848 42.5905 306.698 42.6766C306.564 42.758 306.449 42.8672 306.361 42.997C306.277 43.1483 306.238 43.321 306.25 43.494C306.247 43.6496 306.288 43.8028 306.369 43.9359C306.45 44.069 306.567 44.1764 306.706 44.2456C307.141 44.4493 307.599 44.5983 308.07 44.6892C308.43 44.7728 308.784 44.8799 309.129 45.0096C309.435 45.1206 309.721 45.2771 309.98 45.4737C310.216 45.6509 310.409 45.8782 310.547 46.1391C310.687 46.4207 310.756 46.7324 310.748 47.0469C310.761 47.4619 310.668 47.8734 310.477 48.2421C310.308 48.5697 310.063 48.8516 309.762 49.0636C309.455 49.2773 309.109 49.4293 308.743 49.5113C308.357 49.601 307.961 49.645 307.565 49.6427C306.956 49.6435 306.352 49.5234 305.79 49.2895C305.223 49.0648 304.725 48.6934 304.349 48.2134L305.478 47.2522C305.706 47.5821 306.009 47.8537 306.361 48.045C306.737 48.2578 307.162 48.3683 307.593 48.3653C307.789 48.3662 307.985 48.3456 308.177 48.3037C308.355 48.2686 308.526 48.2033 308.682 48.1107C308.841 48.021 308.972 47.8884 309.06 47.728C309.148 47.5675 309.189 47.3856 309.179 47.203C309.182 47.029 309.133 46.858 309.039 46.7117C308.944 46.5655 308.809 46.4506 308.649 46.3815C308.15 46.1525 307.626 45.983 307.088 45.8762C306.821 45.8105 306.55 45.7284 306.267 45.6339C305.997 45.5353 305.744 45.3969 305.515 45.2232C305.289 45.0547 305.102 44.8388 304.969 44.5906C304.82 44.3028 304.748 43.9818 304.759 43.6583C304.749 43.2739 304.838 42.8934 305.018 42.5534C305.187 42.2541 305.419 41.996 305.7 41.7976C305.991 41.5943 306.317 41.4454 306.661 41.3581C307.023 41.2626 307.396 41.2143 307.77 41.2144C308.334 41.2172 308.893 41.3316 309.413 41.5512C309.91 41.7504 310.338 42.0901 310.645 42.5287L309.548 43.457C309.37 43.1503 309.117 42.8933 308.813 42.7095Z" fill="#1F333D"/>
<path d="M314.518 42.7012V46.862C314.484 47.2282 314.58 47.5946 314.79 47.8971C314.901 48.0091 315.035 48.0952 315.184 48.1492C315.332 48.2031 315.491 48.2236 315.648 48.2092C315.807 48.2081 315.965 48.1916 316.12 48.16C316.278 48.1293 316.431 48.0782 316.576 48.008L316.626 49.3059C316.419 49.3753 316.208 49.4288 315.993 49.4661C315.757 49.5042 315.518 49.5234 315.278 49.5236C314.963 49.5445 314.647 49.4998 314.35 49.3923C314.053 49.2848 313.782 49.117 313.553 48.8993C313.118 48.3782 312.902 47.7077 312.954 47.0304V42.7012H311.422V41.4074H312.954V39.1155H314.518V41.4074H316.642V42.7012H314.518Z" fill="#1F333D"/>
<path d="M318.26 42.2986C318.26 41.9618 318.231 41.6661 318.207 41.4073H319.706C319.731 41.6086 319.747 41.8427 319.755 42.1056C319.763 42.3684 319.755 42.5861 319.755 42.7546H319.805C320.022 42.292 320.363 41.8984 320.79 41.6168C321.223 41.3369 321.729 41.1938 322.244 41.2061C322.455 41.2021 322.664 41.2256 322.869 41.2759L322.803 42.7422C322.565 42.6833 322.321 42.6543 322.076 42.656C321.734 42.6479 321.395 42.7196 321.086 42.8654C320.812 42.999 320.572 43.1928 320.384 43.4323C320.194 43.6765 320.055 43.9556 319.973 44.2537C319.882 44.5673 319.836 44.8924 319.837 45.219V49.4126H318.256V43.1242C318.277 42.9106 318.268 42.6354 318.26 42.2986Z" fill="#1F333D"/>
<path d="M325.929 39.2508C325.726 39.4397 325.458 39.5427 325.181 39.5384C325.044 39.5411 324.907 39.5164 324.78 39.4656C324.652 39.4148 324.536 39.339 324.438 39.2427C324.341 39.1509 324.264 39.0399 324.213 38.9169C324.161 38.7938 324.136 38.6614 324.138 38.5279C324.134 38.3913 324.159 38.2555 324.211 38.129C324.262 38.0024 324.34 37.8879 324.438 37.7927C324.64 37.6048 324.907 37.5004 325.183 37.5004C325.46 37.5004 325.726 37.6048 325.929 37.7927C326.03 37.8861 326.11 37.9999 326.164 38.1267C326.218 38.2535 326.244 38.3903 326.241 38.5279C326.245 38.6639 326.219 38.7991 326.165 38.924C326.111 39.0488 326.03 39.1604 325.929 39.2508ZM324.388 49.3879V41.4072H325.966V49.3879H324.388Z" fill="#1F333D"/>
<path d="M336.177 45.6011C336.183 45.69 336.183 45.7792 336.177 45.8681H329.827C329.838 46.198 329.916 46.5223 330.057 46.8209C330.194 47.1126 330.385 47.3759 330.619 47.5973C330.86 47.8165 331.138 47.9904 331.441 48.1107C331.755 48.235 332.089 48.2977 332.427 48.2955C332.916 48.3073 333.399 48.1852 333.823 47.9423C334.192 47.7268 334.509 47.4322 334.751 47.0797L335.86 47.9751C335.469 48.505 334.95 48.9286 334.353 49.2073C333.206 49.6982 331.914 49.732 330.743 49.3018C330.243 49.1139 329.789 48.8234 329.409 48.4492C329.03 48.0749 328.732 47.6252 328.537 47.129C328.318 46.5835 328.209 46 328.217 45.4121C328.21 44.8265 328.316 44.245 328.529 43.6993C328.721 43.1976 329.017 42.7415 329.395 42.3603C329.771 41.9865 330.218 41.6918 330.71 41.4937C331.232 41.2824 331.79 41.1763 332.353 41.1815C332.897 41.1759 333.438 41.2735 333.946 41.469C334.413 41.6474 334.834 41.9281 335.179 42.2905C335.521 42.6681 335.781 43.1129 335.943 43.5967C336.131 44.152 336.222 44.7355 336.214 45.3218L336.177 45.6011ZM334.419 43.8061C334.331 43.5428 334.191 43.2998 334.008 43.0914C333.815 42.8842 333.579 42.7204 333.318 42.6109C333.01 42.4865 332.68 42.4264 332.349 42.4343C332.024 42.4313 331.702 42.4913 331.4 42.6109C331.113 42.7213 330.85 42.8843 330.624 43.0914C330.403 43.2957 330.221 43.5377 330.085 43.8061C329.946 44.0814 329.862 44.3815 329.839 44.6892H334.591C334.579 44.3878 334.521 44.0899 334.419 43.8061Z" fill="#1F333D"/>
<path d="M341.935 42.7093C341.602 42.5229 341.225 42.428 340.843 42.4341C340.662 42.4347 340.482 42.454 340.305 42.4916C340.136 42.528 339.974 42.5904 339.824 42.6764C339.689 42.7568 339.574 42.8662 339.487 42.9968C339.398 43.1408 339.354 43.3081 339.36 43.4774C339.357 43.633 339.398 43.7862 339.479 43.9193C339.56 44.0524 339.677 44.1598 339.816 44.229C340.25 44.434 340.708 44.5831 341.18 44.6726C341.539 44.7563 341.893 44.8633 342.239 44.993C342.544 45.1058 342.83 45.2622 343.089 45.4572C343.334 45.6384 343.532 45.876 343.666 46.1498C343.799 46.4237 343.865 46.7256 343.858 47.0303C343.871 47.4453 343.778 47.8569 343.586 48.2255C343.416 48.5514 343.171 48.8327 342.872 49.047C342.564 49.26 342.218 49.4119 341.853 49.4947C341.467 49.5841 341.071 49.6282 340.674 49.6261C340.064 49.6269 339.46 49.5069 338.896 49.2729C338.33 49.0481 337.834 48.6767 337.458 48.1968L338.584 47.2356C338.813 47.5657 339.117 47.8372 339.471 48.0284C339.846 48.2412 340.271 48.3517 340.703 48.3488C340.898 48.3495 341.092 48.3288 341.282 48.2871C341.461 48.2528 341.632 48.1874 341.787 48.0941C341.937 48.0084 342.062 47.8871 342.153 47.7409C342.246 47.5714 342.292 47.3797 342.284 47.1863C342.287 47.0124 342.239 46.8414 342.144 46.6952C342.05 46.5489 341.914 46.434 341.755 46.3649C341.257 46.136 340.735 45.9665 340.198 45.8597C339.927 45.7939 339.656 45.7118 339.376 45.6173C339.107 45.5198 338.855 45.3812 338.629 45.2066C338.403 45.0371 338.215 44.8215 338.078 44.574C337.93 44.2862 337.858 43.9652 337.869 43.6417C337.858 43.2567 337.949 42.8757 338.132 42.5368C338.298 42.2357 338.531 41.9771 338.814 41.781C339.104 41.5784 339.428 41.4296 339.771 41.3415C340.134 41.2461 340.508 41.1977 340.884 41.1978C341.448 41.201 342.007 41.3155 342.527 41.5346C343.024 41.7332 343.453 42.073 343.759 42.5121L342.666 43.4404C342.486 43.1405 342.235 42.8894 341.935 42.7093Z" fill="#1F333D"/>
<path d="M357.827 47.0798C357.615 47.5843 357.304 48.0409 356.911 48.4221C356.519 48.8032 356.053 49.1011 355.543 49.2978C354.447 49.7086 353.238 49.7086 352.142 49.2978C351.632 49.101 351.168 48.8019 350.778 48.4188C350.391 48.0367 350.084 47.5815 349.875 47.0798C349.437 45.9913 349.437 44.7755 349.875 43.6871C350.085 43.1875 350.394 42.7359 350.783 42.3595C351.173 41.9832 351.635 41.69 352.142 41.4978C353.238 41.0818 354.448 41.0818 355.543 41.4978C356.052 41.6952 356.518 41.9895 356.915 42.3645C357.303 42.741 357.613 43.1905 357.827 43.6871C358.259 44.7766 358.259 45.9903 357.827 47.0798ZM356.327 44.2868C356.214 43.9511 356.04 43.6391 355.814 43.3667C355.587 43.1022 355.307 42.8881 354.993 42.7383C354.634 42.581 354.246 42.4999 353.855 42.4999C353.463 42.4999 353.076 42.581 352.717 42.7383C352.402 42.8873 352.122 43.1015 351.896 43.3667C351.668 43.6382 351.494 43.9504 351.382 44.2868C351.147 44.9975 351.147 45.7653 351.382 46.476C351.494 46.8137 351.668 47.1272 351.896 47.4002C352.119 47.6717 352.399 47.8905 352.717 48.0409C353.076 48.1982 353.463 48.2793 353.855 48.2793C354.246 48.2793 354.634 48.1982 354.993 48.0409C355.31 47.8893 355.59 47.6707 355.814 47.4002C356.04 47.1262 356.214 46.813 356.327 46.476C356.563 45.7653 356.563 44.9975 356.327 44.2868Z" fill="#1F333D"/>
<path d="M362.246 42.7012V49.388H360.661V42.7012H359.08V41.4074H360.661V39.7398C360.657 39.2993 360.711 38.8601 360.821 38.4336C360.919 38.0553 361.097 37.7023 361.343 37.3985C361.594 37.0995 361.912 36.8632 362.271 36.7085C362.705 36.528 363.173 36.4412 363.643 36.4538C363.978 36.4486 364.312 36.4887 364.637 36.573L364.452 37.9366C364.329 37.9038 364.206 37.875 364.082 37.8545C363.947 37.8293 363.809 37.8169 363.672 37.8175C363.418 37.806 363.166 37.8612 362.941 37.9777C362.771 38.0771 362.629 38.2185 362.53 38.3884C362.426 38.58 362.358 38.7888 362.329 39.0046C362.295 39.2413 362.279 39.4801 362.279 39.7192V41.3868H364.132V42.6807L362.246 42.7012Z" fill="#1F333D"/>
<path d="M372.696 41.6332C373.163 41.3287 373.711 41.1727 374.269 41.1856C374.779 41.18 375.282 41.3089 375.727 41.5593C376.193 41.8466 376.551 42.2798 376.745 42.7915C376.996 42.2927 377.389 41.8796 377.875 41.6045C378.317 41.3606 378.809 41.2202 379.314 41.1938C379.818 41.1675 380.322 41.256 380.787 41.4525C381.142 41.615 381.458 41.8533 381.711 42.1508C381.963 42.4519 382.15 42.8014 382.262 43.1776C382.381 43.5887 382.44 44.0148 382.438 44.4427V49.3921H380.853V44.9603C380.853 44.649 380.826 44.3383 380.771 44.032C380.721 43.7596 380.624 43.4981 380.483 43.2598C380.352 43.0381 380.167 42.8531 379.945 42.7217C379.683 42.5762 379.386 42.5052 379.087 42.5163C378.762 42.5079 378.441 42.5873 378.158 42.7464C377.906 42.8918 377.69 43.0926 377.526 43.3337C377.361 43.5848 377.241 43.8628 377.173 44.1552C377.102 44.4595 377.066 44.771 377.066 45.0835V49.3921H375.48V44.6399C375.482 44.3517 375.455 44.064 375.398 43.7814C375.35 43.542 375.252 43.3153 375.111 43.116C374.975 42.9296 374.796 42.7788 374.589 42.6765C374.341 42.5623 374.069 42.5074 373.796 42.5163C373.514 42.5133 373.236 42.5768 372.983 42.7017C372.731 42.8266 372.511 43.0094 372.342 43.2351C371.929 43.7835 371.723 44.4597 371.759 45.1451V49.388H370.178V43.1242C370.178 42.9106 370.178 42.6355 370.178 42.3028C370.178 41.9701 370.149 41.6702 370.124 41.4115H371.623C371.648 41.6127 371.665 41.8222 371.677 42.0933C371.689 42.3644 371.677 42.5574 371.677 42.7258H371.726C371.943 42.2798 372.279 41.9019 372.696 41.6332Z" fill="#1F333D"/>
<path d="M392.867 47.0798C392.659 47.5832 392.35 48.0389 391.959 48.4188C391.565 48.8005 391.099 49.0993 390.588 49.2978C389.491 49.7086 388.283 49.7086 387.187 49.2978C386.677 49.101 386.213 48.8019 385.823 48.4188C385.436 48.0367 385.129 47.5815 384.919 47.0798C384.481 45.9913 384.481 44.7755 384.919 43.6871C385.129 43.1875 385.438 42.7359 385.828 42.3595C386.218 41.9832 386.68 41.69 387.187 41.4978C388.282 41.0818 389.492 41.0818 390.588 41.4978C391.097 41.6952 391.562 41.9895 391.959 42.3645C392.348 42.7399 392.656 43.1897 392.867 43.6871C393.305 44.7755 393.305 45.9913 392.867 47.0798ZM391.372 44.2868C391.259 43.9501 391.084 43.6379 390.854 43.3667C390.629 43.1009 390.349 42.8866 390.033 42.7383C389.674 42.581 389.287 42.4999 388.895 42.4999C388.504 42.4999 388.116 42.581 387.757 42.7383C387.442 42.8873 387.162 43.1015 386.936 43.3667C386.708 43.6382 386.534 43.9504 386.423 44.2868C386.187 44.9975 386.187 45.7653 386.423 46.476C386.534 46.8137 386.708 47.1272 386.936 47.4002C387.159 47.6717 387.44 47.8905 387.757 48.0409C388.116 48.1982 388.504 48.2793 388.895 48.2793C389.287 48.2793 389.674 48.1982 390.033 48.0409C390.351 47.8908 390.631 47.6719 390.854 47.4002C391.084 47.1274 391.259 46.8139 391.372 46.476C391.608 45.7653 391.608 44.9975 391.372 44.2868Z" fill="#1F333D"/>
<path d="M400.515 49.2443C400.004 49.4951 399.441 49.6244 398.872 49.6221C398.299 49.6324 397.73 49.5204 397.204 49.2935C396.725 49.0861 396.295 48.7796 395.943 48.394C395.583 48.0037 395.304 47.5458 395.122 47.0468C394.929 46.5208 394.831 45.9643 394.834 45.4039C394.829 44.8432 394.926 44.2864 395.122 43.7609C395.304 43.2643 395.583 42.809 395.943 42.4219C396.299 42.0376 396.731 41.7326 397.213 41.5265C397.732 41.308 398.292 41.199 398.855 41.2061C399.449 41.1916 400.035 41.3332 400.556 41.6168C401.007 41.8621 401.399 42.2044 401.702 42.619H401.735V36.6592H403.316V49.3921H401.784V48.1311H401.751C401.455 48.6133 401.025 48.9998 400.515 49.2443ZM396.666 46.4759C396.772 46.8141 396.944 47.1282 397.172 47.4C397.398 47.6706 397.677 47.8915 397.993 48.049C398.35 48.2206 398.743 48.3051 399.139 48.2955C399.507 48.2978 399.872 48.2214 400.209 48.0712C400.545 47.921 400.846 47.7006 401.09 47.4247C401.33 47.1572 401.517 46.8463 401.64 46.5087C401.898 45.8017 401.898 45.0265 401.64 44.3195C401.515 43.9791 401.328 43.6645 401.09 43.3912C400.854 43.1221 400.564 42.9053 400.24 42.7546C399.896 42.592 399.519 42.5105 399.139 42.5163C398.744 42.5061 398.351 42.5877 397.993 42.7546C397.677 42.906 397.397 43.123 397.172 43.3912C396.944 43.6646 396.772 43.98 396.666 44.3195C396.442 45.0208 396.442 45.7746 396.666 46.4759Z" fill="#1F333D"/>
<path d="M410.508 42.8984C410.093 42.6013 409.588 42.4563 409.079 42.4876C408.641 42.4843 408.206 42.5739 407.805 42.7505C407.432 42.9067 407.092 43.1325 406.803 43.4159L405.982 42.4014C406.4 42.0173 406.89 41.7199 407.423 41.5265C408.007 41.31 408.625 41.2014 409.247 41.2061C409.755 41.1947 410.261 41.2783 410.738 41.4526C411.128 41.5953 411.481 41.8225 411.773 42.118C412.046 42.4012 412.253 42.7404 412.381 43.112C412.519 43.508 412.587 43.9249 412.582 44.3442V47.8314C412.582 48.1052 412.591 48.3886 412.607 48.6816C412.619 48.9274 412.651 49.1718 412.701 49.4127H411.268C411.182 49.0368 411.138 48.6524 411.137 48.2667H411.083C410.804 48.684 410.426 49.0255 409.982 49.2607C409.495 49.5073 408.955 49.6287 408.409 49.614C408.077 49.612 407.746 49.5706 407.423 49.4907C407.089 49.4116 406.772 49.2725 406.487 49.08C406.201 48.8832 405.962 48.625 405.789 48.3242C405.593 47.9687 405.497 47.5673 405.509 47.1618C405.482 46.6364 405.657 46.1203 405.998 45.7201C406.35 45.3434 406.79 45.061 407.28 44.8987C407.856 44.7042 408.455 44.5827 409.062 44.5372C409.728 44.4838 410.393 44.4551 411.067 44.4551V44.2333C411.087 43.9823 411.047 43.7301 410.95 43.4978C410.853 43.2655 410.701 43.0599 410.508 42.8984ZM409.44 45.6339C409.052 45.6598 408.668 45.7273 408.294 45.8352C407.981 45.9229 407.691 46.0786 407.444 46.2911C407.33 46.3943 407.241 46.5216 407.183 46.6637C407.124 46.8058 407.099 46.9592 407.107 47.1126C407.1 47.3178 407.15 47.521 407.251 47.6999C407.345 47.8563 407.474 47.9885 407.629 48.086C407.788 48.1888 407.965 48.2612 408.15 48.2996C408.345 48.3376 408.543 48.3569 408.742 48.3571C409.058 48.3769 409.375 48.3276 409.67 48.2127C409.965 48.0978 410.231 47.92 410.451 47.6917C410.855 47.2294 411.068 46.63 411.046 46.0159V45.6051H410.66C410.266 45.5915 409.859 45.601 409.44 45.6339Z" fill="#1F333D"/>
<path d="M104.959 10.4912H103.057C102.268 16.091 101.022 20.6187 99.3193 24.0744C100.872 27.0865 102.807 29.2771 105.123 30.6463C104.46 31.2259 103.886 31.8999 103.418 32.6466C101.111 31.068 99.2194 28.954 97.9064 26.4855C96.251 28.9696 94.0952 31.0807 91.5769 32.6835C91.1947 31.9429 90.7214 31.253 90.168 30.6298C92.8777 29.0347 95.1268 26.7631 96.6947 24.0375C95.5132 21.1499 94.6336 18.1478 94.07 15.0792C93.5634 16.3604 92.9378 17.5911 92.2012 18.7554C91.768 18.2583 91.2954 17.7967 90.7882 17.3752V20.197H83.05C82.7214 20.8542 82.3599 21.5388 81.9655 22.2507C84.1972 22.2288 87.7296 22.1741 92.5626 22.0864L92.4641 23.9923L88.9851 24.058C88.5236 25.7428 87.6169 27.2722 86.3604 28.4858C87.5936 29.097 88.7884 29.7828 89.9381 30.5395L88.3608 32.0797C87.1508 31.2794 85.8915 30.5565 84.5902 29.9152C82.6433 31.1638 79.801 32.1154 76.0633 32.7698C75.8788 32.0574 75.5549 31.3887 75.1103 30.8023C78.1936 30.4299 80.6321 29.7741 82.4256 28.8349C81.0455 28.2229 79.9119 27.7505 79.0123 27.422L78.4578 28.3749L76.4041 27.7505C76.9956 26.8113 77.6966 25.6407 78.5071 24.2387L74.3381 24.3085L74.2724 22.337C76.4822 22.337 78.2429 22.326 79.5546 22.3041C79.6655 22.0864 79.8297 21.7825 80.0474 21.3882C80.3308 20.8419 80.5403 20.4476 80.6718 20.2052H75.7182V14.6274H82.0149V13.0953H76.5685V9.48903H74.2395V7.62017H76.5685V4.04264H82.0149V1.98894H84.1795V4.04264H89.9873V7.62017H92.3491V9.48903H89.9873V13.0953H84.1795V14.6397H90.7513V16.3443C92.6133 13.0584 93.9825 8.2664 94.8587 1.96838L97.2205 2.32984C96.8672 4.69296 96.5167 6.62755 96.169 8.1336H104.926L104.959 10.4912ZM77.8499 16.2991V18.5294H82.0149V16.2991H77.8499ZM82.0149 5.76773H78.7002V7.67357H82.0477L82.0149 5.76773ZM78.7002 11.3456H82.0477V9.39868H78.7002V11.3456ZM86.7055 24.1073L80.9551 24.2059C80.8442 24.4235 80.6594 24.7521 80.3965 25.1875C80.2199 25.4956 80.0884 25.7133 79.9857 25.8447C81.4069 26.3266 82.85 26.8948 84.315 27.5493C85.3705 26.6085 86.1846 25.4281 86.689 24.1073H86.7055ZM87.8227 5.76773H84.2123V7.67357H87.8227V5.76773ZM84.2123 11.3456H87.8227V9.39868H84.2123V11.3456ZM88.6073 18.5294V16.2991H84.2123V18.5294H88.6073ZM100.646 10.4912H95.5939C95.5528 10.6884 95.5199 10.8322 95.4953 10.902C95.9717 14.4325 96.8411 17.8987 98.0871 21.2362C99.281 18.2953 100.128 14.7136 100.63 10.4912H100.646Z" fill="#1F333D"/>
<path d="M115.954 2.06677L118.25 2.82252C117.281 5.19803 116.14 7.50011 114.837 9.71064V32.5396H112.475V13.3169C111.367 14.8642 110.139 16.3227 108.803 17.679C108.393 16.8175 107.909 15.9929 107.358 15.2146C110.29 12.5037 112.762 9.0384 114.771 4.81873C115.211 3.88225 115.601 2.96219 115.954 2.06677ZM130.811 28.7361H138.849V31.0979H116.805V28.7361H128.4C130.082 23.9664 131.399 19.0754 132.339 14.1056C132.425 13.6661 132.503 13.2512 132.565 12.8733L135.222 13.3334C134.076 18.5549 132.602 23.6993 130.811 28.7361ZM117.626 8.5811H126.317V2.36249H128.843V8.5811H137.995V10.91H117.626V8.5811ZM125.336 26.6537L122.908 27.1753C122.547 23.0231 121.834 18.9091 120.776 14.8778C120.645 14.4177 120.522 13.9782 120.415 13.5634L122.612 13.1526C123.844 17.3174 124.732 21.5759 125.27 25.8856C125.29 26.1443 125.311 26.3949 125.336 26.6537Z" fill="#1F333D"/>
<path d="M146.398 22.6653H154.367C154.367 22.69 154.334 23.0145 154.268 23.6511C153.918 27.8023 153.448 30.3503 152.859 31.295C152.764 31.4427 152.654 31.5804 152.531 31.7057C151.907 32.2332 151.117 32.524 150.3 32.5272C149.011 32.5724 147.524 32.5272 145.84 32.4615C145.794 31.6938 145.532 30.9548 145.084 30.3297C146.552 30.4612 148.006 30.5269 149.446 30.5269C149.878 30.5607 150.309 30.4572 150.678 30.2312C151.179 29.7301 151.59 27.8488 151.91 24.5876H145.975L145.745 25.5405L143.646 25.1298C144.367 22.3312 144.914 19.8052 145.289 17.5516H152.013V14.1096H146.144V13.781C145.05 14.3362 143.921 14.8178 142.763 15.2227C142.409 14.5478 141.956 13.929 141.42 13.3867C143.747 12.684 145.949 11.621 147.947 10.2363C146.818 9.1327 145.562 8.1675 144.205 7.36116L145.651 5.94822C147.088 6.8117 148.439 7.81166 149.684 8.93428C150.898 7.90096 151.969 6.71025 152.868 5.3937H145.063V3.34H154.182L154.593 3.24143L156.133 4.03004C154.712 7.17905 152.361 9.85845 149.081 12.0682H154.276V20.1023H152.013V19.4821H147.027C146.961 19.8928 146.842 20.4761 146.665 21.2852C146.553 21.9232 146.464 22.3833 146.398 22.6653ZM167.781 21.5522L169.162 22.1067C168.271 24.5814 166.744 26.7774 164.734 28.4732C166.922 29.5469 169.271 30.2559 171.688 30.5721C171.092 31.1761 170.593 31.8689 170.209 32.6258C167.581 32.1817 165.064 31.2347 162.795 29.8368C160.519 31.1749 158.038 32.1283 155.451 32.6586C155.189 31.9862 154.81 31.3649 154.334 30.8226C156.672 30.4174 158.93 29.6423 161.025 28.5266C159.534 27.2284 158.319 25.6446 157.451 23.8688L158.827 23.458H156.236V21.6549H167.358L167.781 21.5522ZM169.753 5.53336L171.589 6.81076C170.142 8.15277 168.584 9.37015 166.931 10.4499C168.718 11.49 170.637 12.2844 172.636 12.8117C172.045 13.4036 171.527 14.0657 171.096 14.7832C169.423 14.2941 167.815 13.6045 166.307 12.7295V17.2066C166.307 17.6913 166.36 17.9747 166.471 18.0609C166.64 18.1596 166.835 18.2054 167.03 18.1924H168.011C168.254 18.1994 168.497 18.1773 168.734 18.1266C168.919 18.0233 169.063 17.8614 169.145 17.6666C169.186 17.4284 169.231 16.8451 169.277 15.9292C169.805 16.3691 170.419 16.6937 171.08 16.8821C170.993 18.0609 170.87 18.7962 170.718 19.0796C170.474 19.4445 170.118 19.7199 169.704 19.8641C169.221 19.9873 168.723 20.0426 168.225 20.0284H166.582C165.921 20.0433 165.271 19.8617 164.713 19.5067C164.341 19.0878 164.155 18.2567 164.155 17.0136V13.9946H159.616V14.6189C159.594 17.4832 158.38 19.6149 155.973 21.0142C155.51 20.4201 154.97 19.8909 154.367 19.441C156.379 18.1924 157.419 16.5631 157.484 14.5532V11.9614H165.062C161.513 9.68062 158.699 6.42285 156.958 2.58014L158.926 1.95581C159.602 3.42949 160.486 4.79881 161.551 6.02215C163.063 4.86105 164.478 3.57798 165.781 2.18582L167.65 3.49609C166.131 4.90726 164.508 6.20201 162.795 7.36936C163.562 8.10101 164.386 8.76993 165.26 9.36966C166.865 8.22775 168.369 6.94826 169.753 5.54567V5.53336ZM166.241 23.4416H159.517C160.34 24.9684 161.495 26.2907 162.898 27.3108C164.273 26.2764 165.412 24.9618 166.241 23.454V23.4416Z" fill="#1F333D"/>
<path d="M202.23 22.764L204.099 24.0784C202.407 25.3372 200.622 26.4659 198.76 27.4547C200.981 29.06 203.539 30.1375 206.239 30.605C205.616 31.2024 205.115 31.9153 204.765 32.7039C198.686 31.1705 194.497 27.7914 192.2 22.5668H188.068V28.9621L195.153 27.8161L195.252 30.0136L186.216 31.5538H186.084L186.051 31.5867H185.887L185.854 31.6196H185.69L185.657 31.6524H185.493L185.46 31.6853H185.295L185.263 31.7181H185.131L185.065 31.751H184.901L184.868 31.7838H184.737L184.704 31.8167H184.507L184.474 31.8496H184.31L184.277 31.8824H184.145L184.117 31.9153H183.919L183.887 31.9481H183.755L183.722 31.981H183.558L183.525 32.0139H183.361L183.328 32.0467H183.197L183.164 32.0796H182.967L182.934 32.1124H182.769L182.737 32.1453H182.572L182.539 32.1782H182.375L182.342 32.211H182.276L181.866 29.8821C182.24 29.8369 183.509 29.6439 185.706 29.2906V22.5668H181.476V20.4023H187.546V16.9931H182.527V14.8285H187.546V11.7767H181.385V13.3498C181.361 22.052 180.037 28.487 177.413 32.6546C176.769 32.1088 176.037 31.6755 175.249 31.3731C177.524 27.786 178.728 22.4176 178.859 15.268V3.57422H203.886V11.789H198.899V14.8408H204.543V17.0054H198.899V20.4146H205.882V22.5792H194.529C195.243 23.8985 196.15 25.1042 197.219 26.1567C198.968 25.1466 200.643 24.0128 202.23 22.764ZM181.385 5.77167V9.57924H201.458V5.77167H181.385ZM189.846 11.7767V14.8285H196.583V11.7767H189.846ZM189.846 16.9931V20.4023H196.583V16.9931H189.846Z" fill="#1F333D"/>
<path d="M209.352 17.2065V14.9105H226.603V17.2065H209.352ZM226.156 5.7058V7.87452H210.244V5.7058H216.967V2.09949H219.329V5.7058H226.156ZM211.624 32.6709V20.1063H224.743V32.4737H222.315V30.6706H213.92V32.6709H211.624ZM215.92 14.0069L213.756 14.4997C213.53 12.622 213.032 10.7873 212.277 9.05334L214.38 8.6426C215.18 10.335 215.698 12.1471 215.912 14.0069H215.92ZM222.315 22.3038H213.92V28.506H222.315V22.3038ZM222.02 14.5983L220.019 14.1054C220.788 12.2391 221.413 10.3167 221.888 8.35508L224.25 8.94654C223.108 11.9888 222.362 13.8727 222.011 14.5983H222.02ZM238.256 3.83694L240.063 5.01987C238.051 9.59278 236.498 12.9485 235.406 15.0871C238.182 17.6693 239.592 20.3816 239.636 23.2239C239.612 25.3871 239.064 26.8411 237.993 27.5859C237.331 28.0115 236.576 28.2707 235.792 28.3417C234.822 28.4333 233.848 28.4552 232.876 28.4074C232.842 27.5298 232.594 26.6738 232.153 25.9142C233.036 26.0015 233.924 26.0235 234.81 25.9799C235.311 25.9646 235.803 25.8413 236.252 25.6185C236.864 25.2077 237.172 24.3411 237.172 22.961C237.147 20.4281 235.704 17.9239 232.843 15.4485C233.957 13.1785 235.258 10.1281 236.745 6.29727H230.382V32.638H227.955V3.93551H237.813L238.256 3.83694Z" fill="#1F333D"/>
<path d="M281.425 10.495H279.523C278.735 16.0948 277.487 20.6225 275.781 24.0782C277.334 27.0903 279.27 29.2809 281.589 30.65C280.925 31.2296 280.349 31.9036 279.881 32.6504C277.574 31.0715 275.684 28.9576 274.373 26.4893C272.721 28.9785 270.568 31.0952 268.051 32.7038C267.667 31.9631 267.193 31.2732 266.638 30.65C269.348 29.0549 271.597 26.7833 273.165 24.0577C271.987 21.1688 271.108 18.1671 270.54 15.0994C270.035 16.3813 269.41 17.6123 268.671 18.7756C268.24 18.2784 267.769 17.8169 267.263 17.3955V20.2173H259.52C259.192 20.8744 258.832 21.559 258.44 22.271C260.672 22.2491 264.203 22.1943 269.033 22.1067L268.934 24.0125L265.459 24.0782C264.998 25.763 264.091 27.2924 262.835 28.506C264.066 29.118 265.26 29.8038 266.408 30.5597L264.835 32.1C263.625 31.2997 262.366 30.5767 261.065 29.9354C259.118 31.184 256.274 32.1356 252.533 32.79C252.352 32.0773 252.029 31.4082 251.585 30.8226C254.665 30.4502 257.102 29.7943 258.896 28.8551C257.527 28.2445 256.39 27.7735 255.487 27.4422L254.928 28.3951L252.874 27.7708C253.466 26.8315 254.165 25.6609 254.973 24.2589L250.808 24.3288L250.743 22.3572C252.953 22.3572 254.713 22.3463 256.025 22.3244C256.132 22.1067 256.296 21.8027 256.514 21.4084C256.801 20.8621 257.006 20.4678 257.138 20.2255H252.197V14.6312H258.497V13.0991H253.051V9.49282H250.722V7.62396H253.051V4.04643H258.497V1.99273H260.658V4.04643H266.462V7.62396H268.823V9.49282H266.462V13.0991H260.658V14.6435H267.23V16.3481C269.086 13.0622 270.455 8.27018 271.337 1.97217L273.699 2.33362C273.351 4.69675 273.002 6.63133 272.652 8.13738H281.409L281.425 10.495ZM254.316 16.3029V18.5332H258.485V16.3029H254.316ZM258.485 5.77151H255.138V7.67735H258.485V5.77151ZM255.138 11.3494H258.485V9.40247H255.138V11.3494ZM263.143 24.1111L257.368 24.2096C257.257 24.4273 257.072 24.7559 256.809 25.1913C256.637 25.4994 256.505 25.7171 256.399 25.8485C257.825 26.3304 259.27 26.8986 260.732 27.5531C261.804 26.6168 262.635 25.4362 263.155 24.1111H263.143ZM264.256 5.77151H260.658V7.67735H264.264L264.256 5.77151ZM260.658 11.3494H264.264V9.40247H260.658V11.3494ZM265.053 18.5332V16.3029H260.658V18.5332H265.053ZM277.088 10.495H272.035L271.937 10.9058C272.411 14.4366 273.281 17.9031 274.529 21.24C275.736 18.2991 276.589 14.7174 277.088 10.495Z" fill="#1F333D"/>
<path d="M292.416 2.06677L294.712 2.82252C293.742 5.19721 292.603 7.49918 291.303 9.71064V32.5396H288.941V13.3169C287.824 14.8642 286.588 16.3226 285.245 17.679C284.838 16.8167 284.355 15.9921 283.803 15.2146C286.906 12.2504 289.415 8.72218 291.196 4.81873C291.648 3.88225 292.055 2.96492 292.416 2.06677ZM307.277 28.7361H315.311V31.0979H293.271V28.7361H304.882C306.563 23.9662 307.879 19.0752 308.817 14.1056C308.903 13.6661 308.981 13.2512 309.047 12.8733L311.705 13.3334C310.551 18.5548 309.072 23.6991 307.277 28.7361ZM294.088 8.5811H302.783V2.36249H305.309V8.5811H314.465V10.91H294.092L294.088 8.5811ZM301.798 26.6537L299.37 27.1753C299.013 23.0226 298.3 18.9082 297.238 14.8778C297.107 14.4177 296.988 13.9782 296.877 13.5634L299.074 13.1526C300.308 17.3169 301.197 21.5756 301.732 25.8856C301.752 26.1443 301.777 26.3949 301.798 26.6537Z" fill="#1F333D"/>
<path d="M341.623 12.9226H348.643V14.9763H323.501V18.291C323.479 24.6547 322.298 29.5206 319.957 32.8887C319.44 32.2788 318.818 31.7668 318.12 31.3772C318.084 31.3624 318.051 31.3416 318.022 31.3156C320.081 28.3637 321.109 24.0112 321.107 18.2582V12.9185H324.943C324.684 12.4276 324.389 11.9567 324.06 11.5097C326.685 11.0545 329.28 10.4414 331.831 9.67368C329.339 8.90696 327.251 8.32645 325.567 7.93214L326.976 6.78619H320.614V4.75302H332.324V2.00928H334.788V4.76535H347.024V6.79849H341.216L341.775 7.12711C340.314 8.0922 338.766 8.91734 337.15 9.59155C338.987 10.2241 340.904 10.9456 342.9 11.7561L341.623 12.9226ZM337.655 25.8322V29.8657H348.38V31.9645H324.598V29.8657H335.195V25.8322H327.609V23.8648H335.187V20.4844H328.8C328.098 21.5843 327.297 22.6169 326.405 23.569C325.844 23.0576 325.215 22.6263 324.536 22.2875C326.411 20.4187 327.845 18.1554 328.734 15.6623L330.931 16.1223C330.71 16.7343 330.385 17.5106 329.946 18.4512H335.195V15.7608H337.659V18.4389H346.482V20.4926H337.659V23.873H345.681V25.8322H337.655ZM326.044 12.9391H340.707C338.933 12.1751 336.879 11.3878 334.546 10.5773C331.773 11.565 328.931 12.3488 326.044 12.9226V12.9391ZM338.965 6.80672H327.847C329.399 7.17912 331.663 7.83493 334.636 8.77415C336.144 8.2632 337.594 7.59842 338.965 6.7903V6.80672Z" fill="#1F333D"/>
<path d="M381.974 24.6657H370.822C373.468 26.766 376.867 28.3843 381.021 29.5207C381.633 29.6973 382.253 29.8493 382.828 29.9807C382.131 30.6088 381.562 31.3662 381.153 32.211C377.225 31.1232 373.541 29.297 370.297 26.8303C369.678 26.363 369.087 25.8597 368.526 25.3229V32.6382H366.062V25.4872C363.37 27.9352 359.827 29.9246 355.432 31.4553C354.779 31.6976 354.142 31.9071 353.53 32.0796C353.101 31.3051 352.56 30.5978 351.924 29.9807C355.614 29.1679 359.133 27.7137 362.32 25.6844C362.846 25.3353 363.326 24.9943 363.766 24.6657H352.807V22.5669H366.062V20.0819H355.95V18.1473H366.054V15.7198H354.307V13.6661H361.622C361.237 12.4787 360.684 11.3527 359.979 10.3227L361.162 10.0927H352.947V7.92399H358.287C357.596 6.20772 356.704 4.57941 355.629 3.07315L357.728 2.35025C358.921 3.84986 359.883 5.5195 360.583 7.30377L358.878 7.92399H363.01V1.96826H365.339V7.90343H369.307V1.96826H371.669V7.90343H375.739L374.507 7.49269C375.515 5.86884 376.371 4.15569 377.066 2.37489L379.625 3.06493C378.736 4.72764 377.75 6.33642 376.671 7.8829H381.826V10.0516H375.135C374.588 11.0976 373.888 12.2888 373.036 13.6251H380.68V15.6788H368.51V18.1062H379.004V20.0819H368.51V22.5751H381.958L381.974 24.6657ZM372.379 10.0722H362.521C363.26 11.0867 363.827 12.2164 364.197 13.4156L363.113 13.6456H371.02L370.658 13.547C371.3 12.4235 371.874 11.2632 372.379 10.0722Z" fill="#1F333D"/>
<path d="M405.004 19.0591C403.433 19.8806 401.847 20.635 400.248 21.3223H412.878V32.441H410.451V31.4553H395.623V32.5396H393.294V23.9469C392.224 24.2755 391.152 24.5918 390.078 24.8957C389.01 25.2038 387.926 25.4872 386.833 25.7501C386.666 25.3764 386.474 25.0141 386.258 24.6657C385.983 24.2098 385.761 23.8443 385.585 23.5855C388.07 23.0773 390.528 22.4425 392.949 21.6838C395.389 20.917 397.756 20.0422 400.051 19.0591H386.308V17.0054H398.872V14.5122H389.63V12.4791H398.88V10.1173H388.201V3.21277H414.213V10.105H401.291V12.4668H408.8V14.1713C409.431 13.7368 410.039 13.2707 410.623 12.7748C411.201 12.2847 411.749 11.7877 412.266 11.2838L414.201 12.516C412.478 14.2117 410.575 15.7131 408.524 16.9931H416V19.0468L405.004 19.0591ZM395.968 5.05288H390.628V8.26487H395.968V5.05288ZM410.467 23.1912H395.64V25.4215H410.467V23.1912ZM410.467 29.5864V27.122H395.64V29.5864H410.467ZM403.809 8.26487V5.05288H398.256V8.26487H403.809ZM404.265 16.9931C405.008 16.6193 405.727 16.2209 406.413 15.7937C407.099 15.3666 407.765 14.9353 408.401 14.4999H401.316V16.9931H404.265ZM406.105 8.26487H411.777V5.05288H406.105V8.26487Z" fill="#1F333D"/>
</svg>
