<?xml version="1.0" encoding="utf-8"?>
<!-- Generator: Adobe Illustrator 26.3.1, SVG Export Plug-In . SVG Version: 6.00 Build 0)  -->
<svg version="1.1" id="圖層_1" xmlns="http://www.w3.org/2000/svg" xmlns:xlink="http://www.w3.org/1999/xlink" x="0px" y="0px"
	 width="350px" height="44px" viewBox="0 0 350 44" style="enable-background:new 0 0 350 44;" xml:space="preserve">
<style type="text/css">
	.st0{fill:#1F333D;}
	.st1{fill:#B3C33E;}
</style>
<g>
	<g id="adi_logo-H-standard-CN_x2B_EN_00000139283212264461858610000015937564175137801149_">
		<g>
			<path class="st0" d="M8.6,21.5c0-7.1,5.8-12.8,12.8-12.8l4.9,0V0.1c-3.9,0-5-0.3-9.1,0.5c0,0-0.1,0-0.1,0C7.4,2.6,0,11.2,0,21.5
				c0,11.8,9.6,21.5,21.4,21.5h21.6v-43h-8.4v34.4l-13.3-0.1C14.3,34.4,8.6,28.6,8.6,21.5z"/>
			<path class="st1" d="M16.8,21.8c0,2.7,2.1,4.6,4.8,4.6h4.8v-9.6h-4.6C19,16.8,16.8,19,16.8,21.8z"/>
			<rect x="47.8" y="15.6" class="st0" width="9.6" height="27.5"/>
			<polygon class="st1" points="47.9,0 56.2,0 56.2,2.5 50.2,2.5 50.2,7.2 56.2,7.2 56.2,9.6 47.9,9.6 			"/>
			<polygon class="st0" points="59.8,3.6 51.4,3.6 51.4,6 57.4,6 57.4,10.7 51.4,10.7 51.4,13.1 59.8,13.1 			"/>
		</g>
	</g>
	<g>
		<path class="st0" d="M70.2,4.4V3h1.7v1.4h4.2v2.9h1.2v1.6h-1.2v2.9h-4.2v1.4h4.5v4.3h-4.9c-0.3,0.5-0.5,1-0.8,1.4h5.8v1.2
			c-0.8,1.3-1.9,2.4-3.3,3.4c1.3,0.5,2.6,1.2,4,1.9l-1,1.3c-1.5-0.8-3-1.6-4.5-2.2c-1.7,0.9-3.7,1.8-6.1,2.5l-1-1.4
			c2-0.5,3.8-1.1,5.2-1.9c-1.1-0.4-2.2-0.8-3.3-1.1c0.5-0.8,1-1.5,1.5-2.3h-3.3v-1.5h4.2c0.3-0.5,0.5-1,0.8-1.4h-4.1v-4.3h4.5v-1.4
			H66V8.9h-1.2V7.4H66V4.4H70.2z M70.2,14.5h-2.9v1.7h2.9V14.5z M70.2,7.5V5.8h-2.5v1.7H70.2z M70.2,8.8h-2.5v1.8h2.5V8.8z
			 M74.5,20.4h-4.6c-0.4,0.6-0.7,1.1-1,1.6c0.9,0.2,1.8,0.5,2.6,0.9C72.8,22.1,73.7,21.3,74.5,20.4z M74.5,7.5V5.8h-2.6v1.7H74.5z
			 M74.5,8.8h-2.6v1.8h2.6V8.8z M74.8,14.5h-2.9v1.7h2.9V14.5z M79.2,13.2c-0.4,0.9-0.8,1.6-1.3,2.4l-1.2-1.5
			c1.5-2.8,2.6-6.6,3.1-11.3l1.9,0.3c-0.2,1.4-0.4,2.7-0.6,3.9H88v1.8h-1.8c-0.1,4.7-1,8.7-2.7,11.9c1.3,1.9,2.9,3.5,4.9,4.9
			L87.4,27c-1.9-1.3-3.5-2.8-4.8-4.6c-1.2,1.8-2.6,3.3-4.4,4.6l-1-1.6c1.8-1.2,3.2-2.8,4.3-4.6C80.4,18.6,79.6,16,79.2,13.2z
			 M79.3,13.1l1.5-0.5c0.3,2.3,0.8,4.4,1.7,6.2c1.2-2.8,1.9-6.1,2-10h-3.8C80.3,10.4,79.8,11.8,79.3,13.1z"/>
		<path class="st0" d="M98.3,3.7c-0.7,2-1.5,3.9-2.5,5.8V27h-1.9V12.3c-0.9,1.2-1.8,2.3-2.8,3.3l-0.6-2c2.8-3.1,4.8-6.7,6.1-10.8
			L98.3,3.7z M106.7,23.9c1.3-3.5,2.5-7.9,3.5-13.2l1.8,0.5c-0.9,4.8-2,9-3.3,12.7h5.9v1.9H97.7v-1.9H106.7z M105.2,7.2
			c-0.4-1.4-0.8-2.7-1.3-3.8l2-0.3c0.4,1.2,0.8,2.6,1.2,4.2h6.8V9H98.2V7.2H105.2z M104.1,22.6l-1.8,0.5c-0.7-4-1.6-7.8-2.7-11.5
			l1.7-0.5C102.4,14.4,103.3,18.3,104.1,22.6z"/>
		<path class="st0" d="M122.8,8.6c1.3-0.9,2.4-1.8,3.2-2.9h-7.2V4h9.3v1.4c-1,1.9-2.6,3.5-4.8,4.9h3.8v6h-5.8l-0.5,2.8h6.5
			c0,3.1-0.1,5.1-0.4,6.1c-0.3,1-1.5,1.6-3.6,1.6c-0.9,0-1.9-0.1-2.9-0.1l-0.4-1.6c1,0.1,2,0.1,3,0.1c1.4,0,2.1-0.3,2.4-0.9
			c0.2-0.6,0.3-1.8,0.3-3.6h-6.6l0.8-6.1h5.6v-2.8H120c-0.7,0.3-1.4,0.5-2.1,0.8l-1.1-1.5c1.7-0.5,3.2-1.1,4.5-1.8
			c-0.8-0.7-1.8-1.4-2.9-2.1l1.4-0.9C121,7.2,122,7.9,122.8,8.6z M136.7,3.8c-0.6,0.7-1.2,1.3-1.9,1.8c-0.4,0.3-1,0.7-1.6,1
			c0.5,0.4,1,0.8,1.6,1.2c0.7-0.3,1.3-0.7,1.8-1.1c0.7-0.5,1.3-1.1,1.8-1.8l1.3,0.8c-0.7,0.8-1.3,1.5-2,2c-0.4,0.3-0.9,0.6-1.4,0.9
			c1.3,0.7,2.7,1.4,4.3,2l-1.3,1.5c-1-0.4-2-0.8-2.8-1.3v2.5c0,0.5,0.3,0.8,1,0.8h1.5v1.5h-1.9c-1.4,0-2.1-0.7-2.1-2v-1.9h-3.8
			c0,1-0.2,1.8-0.5,2.4c-0.4,0.7-1,1.3-1.9,1.9l-1.3-1.1c0.8-0.7,1.4-1.3,1.7-1.9c0.2-0.6,0.3-1.6,0.3-2.9h6.1c-3-1.7-5.3-3.7-6.7-6
			l1.5-0.8c0.4,0.7,1,1.4,1.6,2c0.6-0.3,1.1-0.6,1.6-0.9c0.6-0.4,1.1-0.9,1.6-1.5L136.7,3.8z M138,17.1v1.6c-0.6,1.6-1.4,3-2.5,4.2
			c1.6,0.9,3.1,1.9,4.4,2.8l-1.3,1.3c-1.2-1-2.7-2-4.4-3c-1.5,1.2-3.3,2.2-5.4,2.9l-0.7-1.6c1.7-0.6,3.2-1.3,4.4-2.2
			c-1.2-0.7-2.4-1.4-3.7-2l1.1-1.1c1.4,0.7,2.7,1.4,3.9,2c0.9-0.9,1.7-2,2.2-3.2h-7.3v-1.7H138z"/>
		<path class="st0" d="M144.3,26.9l-1.4-1.3c1.7-3.4,2.6-7.8,2.6-13.2V4h19.6v6.2h-17.7v2.8h4.8V11h1.8v2.1h5.2V11h1.8v2.1h4.4v1.7
			H161v2.7h5.2v1.7h-14.2v5.8c1.6-0.4,3-0.8,4.2-1.4l0.3,1.8c-1.9,0.6-4.2,1.2-6.8,1.7l-0.5-1.6c0.6-0.2,1-0.7,1-1.3v-4.9h-3.4
			C146.2,22,145.4,24.6,144.3,26.9z M147,17.4h5.1v-2.7h-4.8C147.2,15.7,147.1,16.5,147,17.4z M147.4,5.8v2.8h15.8V5.8H147.4z
			 M159.2,17.4v-2.7H154v2.7H159.2z M165,20.5c-1,1.4-2.1,2.5-3.4,3.3c1.6,0.8,3.4,1.4,5.3,1.6l-0.4,1.7c-4.5-0.5-8.2-2.6-11-6.5
			l1.3-0.9c1,1.3,2,2.3,3.2,3.1c1.3-0.7,2.5-1.9,3.7-3.6L165,20.5z"/>
		<path class="st0" d="M174.9,5.6c-0.3-0.9-0.6-1.7-0.9-2.4l1.9-0.3c0.3,0.8,0.5,1.7,0.8,2.7h5.3v1.8h-1.3c-0.5,2-1.1,3.8-1.8,5.4
			h3.3v1.8h-12.9v-1.8h3.3c-0.4-1.9-0.9-3.7-1.5-5.4h-1.4V5.6H174.9z M181,26.9h-1.9v-1.4h-6.5v1.4h-1.8v-9.8H181V26.9z M179.2,23.8
			v-4.8h-6.5v4.8H179.2z M178.9,7.4h-6c0.5,1.5,1,3.3,1.5,5.4h2.8C177.9,11.1,178.4,9.3,178.9,7.4z M192.3,4.1v1.4
			c-0.9,2.8-1.8,5.3-2.8,7.7c2.1,2.6,3.1,4.7,3.1,6.3c0,1.5-0.3,2.6-1,3.2c-0.7,0.6-2.2,0.9-4.4,0.9l-0.6-2c0.7,0.1,1.3,0.1,1.8,0.1
			c1-0.1,1.6-0.2,1.9-0.5c0.3-0.3,0.4-0.9,0.4-1.8c0-1.6-1.1-3.7-3.3-6.3c0.9-2.1,1.9-4.5,2.8-7.3h-4.8v21.1h-1.8V4.1H192.3z"/>
	</g>
	<g>
		<path class="st0" d="M69.5,38.7h-3.8L65,40.6h-1.2l3.2-8.7h1.3l3.1,8.7h-1.2L69.5,38.7z M69.2,37.7l-1.6-4.4L66,37.7H69.2z"/>
		<path class="st0" d="M72.8,35.3c0.3-0.5,0.7-0.9,1.2-1.2c0.5-0.3,1.1-0.4,1.7-0.4c0.5,0,1,0.1,1.5,0.4s0.8,0.6,1.1,1v-3.6h1.2v9.3
			h-1.2v-1.3c-0.2,0.4-0.6,0.7-1,1c-0.4,0.3-1,0.4-1.6,0.4c-0.6,0-1.2-0.1-1.7-0.5c-0.5-0.3-0.9-0.7-1.2-1.3
			c-0.3-0.5-0.4-1.2-0.4-1.9C72.4,36.5,72.5,35.8,72.8,35.3z M77.9,35.8c-0.2-0.4-0.5-0.7-0.8-0.9c-0.4-0.2-0.7-0.3-1.2-0.3
			c-0.4,0-0.8,0.1-1.2,0.3c-0.4,0.2-0.6,0.5-0.8,0.9c-0.2,0.4-0.3,0.8-0.3,1.4c0,0.5,0.1,1,0.3,1.4c0.2,0.4,0.5,0.7,0.8,0.9
			c0.4,0.2,0.7,0.3,1.2,0.3c0.4,0,0.8-0.1,1.2-0.3c0.4-0.2,0.6-0.5,0.8-0.9c0.2-0.4,0.3-0.8,0.3-1.4C78.2,36.7,78.1,36.2,77.9,35.8z
			"/>
		<path class="st0" d="M90.9,34c0.4,0.2,0.7,0.6,1,1c0.2,0.4,0.4,1,0.4,1.6v4h-1.1v-3.9c0-0.7-0.2-1.2-0.5-1.6
			c-0.3-0.4-0.8-0.5-1.4-0.5c-0.6,0-1.1,0.2-1.4,0.6c-0.4,0.4-0.5,0.9-0.5,1.6v3.8h-1.1v-3.9c0-0.7-0.2-1.2-0.5-1.6
			c-0.3-0.4-0.8-0.5-1.4-0.5c-0.6,0-1.1,0.2-1.4,0.6c-0.4,0.4-0.5,0.9-0.5,1.6v3.8h-1.1v-6.9h1.1v1c0.2-0.4,0.5-0.6,0.9-0.8
			c0.4-0.2,0.8-0.3,1.3-0.3c0.6,0,1.1,0.1,1.5,0.4c0.4,0.3,0.8,0.6,1,1.1c0.2-0.5,0.5-0.9,1-1.1c0.4-0.3,0.9-0.4,1.5-0.4
			C90.1,33.6,90.5,33.7,90.9,34z"/>
		<path class="st0" d="M94.2,32.4c-0.2-0.2-0.2-0.3-0.2-0.6c0-0.2,0.1-0.4,0.2-0.6c0.2-0.1,0.3-0.2,0.6-0.2c0.2,0,0.4,0.1,0.5,0.2
			c0.1,0.2,0.2,0.3,0.2,0.6c0,0.2-0.1,0.4-0.2,0.6c-0.1,0.1-0.3,0.2-0.5,0.2C94.5,32.6,94.4,32.6,94.2,32.4z M95.3,33.8v6.9h-1.1
			v-6.9H95.3z"/>
		<path class="st0" d="M102.6,34.4c0.5,0.5,0.8,1.2,0.8,2.2v4h-1.1v-3.9c0-0.7-0.2-1.2-0.5-1.6c-0.3-0.4-0.8-0.5-1.4-0.5
			c-0.6,0-1.1,0.2-1.4,0.6c-0.4,0.4-0.5,0.9-0.5,1.6v3.8h-1.1v-6.9h1.1v1c0.2-0.4,0.5-0.6,0.9-0.8c0.4-0.2,0.8-0.3,1.3-0.3
			C101.4,33.6,102.1,33.9,102.6,34.4z"/>
		<path class="st0" d="M105.3,32.4c-0.2-0.2-0.2-0.3-0.2-0.6c0-0.2,0.1-0.4,0.2-0.6c0.2-0.1,0.3-0.2,0.6-0.2c0.2,0,0.4,0.1,0.5,0.2
			c0.1,0.2,0.2,0.3,0.2,0.6c0,0.2-0.1,0.4-0.2,0.6c-0.1,0.1-0.3,0.2-0.5,0.2C105.6,32.6,105.5,32.6,105.3,32.4z M106.4,33.8v6.9
			h-1.1v-6.9H106.4z"/>
		<path class="st0" d="M109.4,40.5c-0.4-0.2-0.7-0.4-1-0.8c-0.2-0.3-0.4-0.7-0.4-1.1h1.2c0,0.3,0.2,0.6,0.5,0.8s0.7,0.3,1.1,0.3
			c0.4,0,0.8-0.1,1-0.3c0.3-0.2,0.4-0.4,0.4-0.7c0-0.3-0.1-0.5-0.4-0.7c-0.3-0.1-0.7-0.3-1.2-0.4c-0.5-0.1-0.9-0.3-1.2-0.4
			c-0.3-0.1-0.6-0.3-0.8-0.6s-0.3-0.6-0.3-1.1c0-0.4,0.1-0.7,0.3-1c0.2-0.3,0.5-0.5,0.9-0.7c0.4-0.2,0.8-0.3,1.3-0.3
			c0.8,0,1.4,0.2,1.8,0.6c0.5,0.4,0.7,0.9,0.8,1.6h-1.1c0-0.4-0.2-0.6-0.4-0.9c-0.3-0.2-0.6-0.3-1.1-0.3c-0.4,0-0.7,0.1-1,0.3
			c-0.2,0.2-0.4,0.4-0.4,0.7c0,0.2,0.1,0.4,0.2,0.6c0.1,0.1,0.3,0.3,0.6,0.4c0.2,0.1,0.5,0.2,0.9,0.3c0.5,0.1,0.9,0.3,1.2,0.4
			c0.3,0.1,0.6,0.3,0.8,0.6c0.2,0.3,0.3,0.6,0.3,1c0,0.4-0.1,0.7-0.3,1c-0.2,0.3-0.5,0.5-0.9,0.7c-0.4,0.2-0.8,0.3-1.3,0.3
			C110.2,40.7,109.8,40.6,109.4,40.5z"/>
		<path class="st0" d="M116.3,34.7v4c0,0.3,0.1,0.6,0.2,0.7c0.1,0.1,0.4,0.2,0.7,0.2h0.8v1h-1c-0.6,0-1.1-0.1-1.4-0.4
			c-0.3-0.3-0.5-0.8-0.5-1.4v-4h-0.9v-0.9h0.9V32h1.1v1.7h1.8v0.9H116.3z"/>
		<path class="st0" d="M121.4,34c0.4-0.2,0.8-0.3,1.4-0.3v1.2h-0.3c-1.3,0-1.9,0.7-1.9,2.1v3.7h-1.1v-6.9h1.1v1.1
			C120.8,34.5,121.1,34.2,121.4,34z"/>
		<path class="st0" d="M124.1,35.3c0.3-0.5,0.7-0.9,1.2-1.2c0.5-0.3,1.1-0.4,1.7-0.4c0.6,0,1.1,0.1,1.6,0.4c0.4,0.3,0.8,0.6,1,1
			v-1.3h1.2v6.9h-1.2v-1.3c-0.2,0.4-0.6,0.7-1,1c-0.4,0.3-1,0.4-1.6,0.4c-0.6,0-1.2-0.1-1.7-0.5c-0.5-0.3-0.9-0.7-1.2-1.3
			c-0.3-0.5-0.4-1.2-0.4-1.9C123.7,36.5,123.8,35.8,124.1,35.3z M129.2,35.8c-0.2-0.4-0.5-0.7-0.8-0.9c-0.4-0.2-0.7-0.3-1.2-0.3
			c-0.4,0-0.8,0.1-1.2,0.3c-0.4,0.2-0.6,0.5-0.8,0.9c-0.2,0.4-0.3,0.8-0.3,1.4c0,0.5,0.1,1,0.3,1.4c0.2,0.4,0.5,0.7,0.8,0.9
			c0.4,0.2,0.7,0.3,1.2,0.3c0.4,0,0.8-0.1,1.2-0.3c0.4-0.2,0.6-0.5,0.8-0.9c0.2-0.4,0.3-0.8,0.3-1.4
			C129.5,36.7,129.4,36.2,129.2,35.8z"/>
		<path class="st0" d="M134,34.7v4c0,0.3,0.1,0.6,0.2,0.7c0.1,0.1,0.4,0.2,0.7,0.2h0.8v1h-1c-0.6,0-1.1-0.1-1.4-0.4
			c-0.3-0.3-0.5-0.8-0.5-1.4v-4h-0.9v-0.9h0.9V32h1.1v1.7h1.8v0.9H134z"/>
		<path class="st0" d="M137.2,32.4c-0.2-0.2-0.2-0.3-0.2-0.6c0-0.2,0.1-0.4,0.2-0.6c0.2-0.1,0.3-0.2,0.6-0.2c0.2,0,0.4,0.1,0.5,0.2
			c0.1,0.2,0.2,0.3,0.2,0.6c0,0.2-0.1,0.4-0.2,0.6c-0.1,0.1-0.3,0.2-0.5,0.2C137.5,32.6,137.3,32.6,137.2,32.4z M138.3,33.8v6.9
			h-1.1v-6.9H138.3z"/>
		<path class="st0" d="M141.5,40.3c-0.5-0.3-0.9-0.7-1.2-1.2c-0.3-0.5-0.4-1.2-0.4-1.9c0-0.7,0.2-1.3,0.5-1.9c0.3-0.5,0.7-1,1.2-1.2
			s1.1-0.4,1.8-0.4c0.7,0,1.2,0.1,1.8,0.4c0.5,0.3,0.9,0.7,1.2,1.2c0.3,0.5,0.5,1.2,0.5,1.9c0,0.7-0.2,1.3-0.5,1.9
			c-0.3,0.5-0.7,1-1.3,1.2c-0.5,0.3-1.1,0.4-1.8,0.4C142.6,40.7,142,40.6,141.5,40.3z M144.4,39.4c0.4-0.2,0.6-0.5,0.9-0.9
			s0.3-0.9,0.3-1.4c0-0.6-0.1-1-0.3-1.4c-0.2-0.4-0.5-0.7-0.9-0.9c-0.4-0.2-0.7-0.3-1.1-0.3c-0.4,0-0.8,0.1-1.1,0.3
			s-0.6,0.5-0.8,0.9s-0.3,0.9-0.3,1.4c0,0.6,0.1,1,0.3,1.4c0.2,0.4,0.5,0.7,0.8,0.9c0.3,0.2,0.7,0.3,1.1,0.3
			C143.6,39.7,144,39.6,144.4,39.4z"/>
		<path class="st0" d="M153.6,34.4c0.5,0.5,0.8,1.2,0.8,2.2v4h-1.1v-3.9c0-0.7-0.2-1.2-0.5-1.6c-0.3-0.4-0.8-0.5-1.4-0.5
			c-0.6,0-1.1,0.2-1.4,0.6c-0.4,0.4-0.5,0.9-0.5,1.6v3.8h-1.1v-6.9h1.1v1c0.2-0.4,0.5-0.6,0.9-0.8c0.4-0.2,0.8-0.3,1.3-0.3
			C152.4,33.6,153.1,33.9,153.6,34.4z"/>
		<path class="st0" d="M162.4,34.7h-1.4v5.9h-1.1v-5.9h-0.9v-0.9h0.9v-0.5c0-0.8,0.2-1.3,0.6-1.7c0.4-0.4,1-0.5,1.9-0.5v1
			c-0.5,0-0.9,0.1-1.1,0.3c-0.2,0.2-0.3,0.5-0.3,1v0.5h1.4V34.7z"/>
		<path class="st0" d="M165,40.3c-0.5-0.3-0.9-0.7-1.2-1.2c-0.3-0.5-0.4-1.2-0.4-1.9c0-0.7,0.2-1.3,0.5-1.9c0.3-0.5,0.7-1,1.2-1.2
			c0.5-0.3,1.1-0.4,1.8-0.4c0.7,0,1.2,0.1,1.8,0.4c0.5,0.3,0.9,0.7,1.2,1.2c0.3,0.5,0.5,1.2,0.5,1.9c0,0.7-0.2,1.3-0.5,1.9
			c-0.3,0.5-0.7,1-1.3,1.2c-0.5,0.3-1.1,0.4-1.8,0.4C166.1,40.7,165.5,40.6,165,40.3z M167.9,39.4c0.4-0.2,0.6-0.5,0.9-0.9
			s0.3-0.9,0.3-1.4c0-0.6-0.1-1-0.3-1.4s-0.5-0.7-0.9-0.9c-0.4-0.2-0.7-0.3-1.1-0.3c-0.4,0-0.8,0.1-1.1,0.3s-0.6,0.5-0.8,0.9
			c-0.2,0.4-0.3,0.9-0.3,1.4c0,0.6,0.1,1,0.3,1.4c0.2,0.4,0.5,0.7,0.8,0.9c0.3,0.2,0.7,0.3,1.1,0.3
			C167.1,39.7,167.5,39.6,167.9,39.4z"/>
		<path class="st0" d="M173.7,34c0.4-0.2,0.8-0.3,1.4-0.3v1.2h-0.3c-1.3,0-1.9,0.7-1.9,2.1v3.7h-1.1v-6.9h1.1v1.1
			C173.1,34.5,173.4,34.2,173.7,34z"/>
		<path class="st0" d="M184.9,32.4c0.7,0.4,1.2,0.9,1.6,1.5c0.4,0.7,0.6,1.4,0.6,2.3c0,0.9-0.2,1.7-0.6,2.3
			c-0.4,0.7-0.9,1.2-1.6,1.5c-0.7,0.3-1.5,0.5-2.5,0.5h-2.7v-8.7h2.7C183.4,31.9,184.2,32.1,184.9,32.4z M185,38.8
			c0.6-0.6,0.9-1.4,0.9-2.5c0-1.1-0.3-1.9-0.9-2.5c-0.6-0.6-1.5-0.9-2.6-0.9h-1.6v6.9h1.6C183.6,39.7,184.5,39.4,185,38.8z"/>
		<path class="st0" d="M188.6,32.4c-0.2-0.2-0.2-0.3-0.2-0.6c0-0.2,0.1-0.4,0.2-0.6c0.2-0.1,0.3-0.2,0.6-0.2c0.2,0,0.4,0.1,0.5,0.2
			c0.1,0.2,0.2,0.3,0.2,0.6c0,0.2-0.1,0.4-0.2,0.6c-0.1,0.1-0.3,0.2-0.5,0.2C189,32.6,188.8,32.6,188.6,32.4z M189.7,33.8v6.9h-1.1
			v-6.9H189.7z"/>
		<path class="st0" d="M196.1,34c0.4,0.3,0.8,0.6,1,1v-1.3h1.2v7c0,0.6-0.1,1.2-0.4,1.7s-0.6,0.9-1.1,1.1c-0.5,0.3-1.1,0.4-1.7,0.4
			c-0.9,0-1.7-0.2-2.3-0.6c-0.6-0.4-1-1-1.1-1.7h1.1c0.1,0.4,0.4,0.8,0.8,1c0.4,0.3,0.9,0.4,1.4,0.4c0.6,0,1.1-0.2,1.5-0.6
			c0.4-0.4,0.6-0.9,0.6-1.7v-1.4c-0.2,0.4-0.6,0.7-1,1c-0.4,0.3-1,0.4-1.6,0.4c-0.6,0-1.2-0.1-1.7-0.5c-0.5-0.3-0.9-0.7-1.2-1.3
			c-0.3-0.5-0.4-1.2-0.4-1.9c0-0.7,0.1-1.3,0.4-1.8c0.3-0.5,0.7-0.9,1.2-1.2c0.5-0.3,1.1-0.4,1.7-0.4
			C195.1,33.6,195.6,33.8,196.1,34z M196.8,35.8c-0.2-0.4-0.5-0.7-0.8-0.9c-0.4-0.2-0.7-0.3-1.2-0.3c-0.4,0-0.8,0.1-1.2,0.3
			c-0.4,0.2-0.6,0.5-0.8,0.9c-0.2,0.4-0.3,0.8-0.3,1.4c0,0.5,0.1,1,0.3,1.4c0.2,0.4,0.5,0.7,0.8,0.9c0.4,0.2,0.7,0.3,1.2,0.3
			c0.4,0,0.8-0.1,1.2-0.3c0.4-0.2,0.6-0.5,0.8-0.9c0.2-0.4,0.3-0.8,0.3-1.4C197.1,36.7,197,36.2,196.8,35.8z"/>
		<path class="st0" d="M200.2,32.4c-0.2-0.2-0.2-0.3-0.2-0.6c0-0.2,0.1-0.4,0.2-0.6c0.2-0.1,0.3-0.2,0.6-0.2c0.2,0,0.4,0.1,0.5,0.2
			c0.1,0.2,0.2,0.3,0.2,0.6c0,0.2-0.1,0.4-0.2,0.6c-0.1,0.1-0.3,0.2-0.5,0.2C200.5,32.6,200.3,32.6,200.2,32.4z M201.3,33.8v6.9
			h-1.1v-6.9H201.3z"/>
		<path class="st0" d="M204.6,34.7v4c0,0.3,0.1,0.6,0.2,0.7c0.1,0.1,0.4,0.2,0.7,0.2h0.8v1h-1c-0.6,0-1.1-0.1-1.4-0.4
			c-0.3-0.3-0.5-0.8-0.5-1.4v-4h-0.9v-0.9h0.9V32h1.1v1.7h1.8v0.9H204.6z"/>
		<path class="st0" d="M207.8,35.3c0.3-0.5,0.7-0.9,1.2-1.2c0.5-0.3,1.1-0.4,1.7-0.4c0.6,0,1.1,0.1,1.6,0.4s0.8,0.6,1,1v-1.3h1.2
			v6.9h-1.2v-1.3c-0.2,0.4-0.6,0.7-1,1c-0.4,0.3-1,0.4-1.6,0.4c-0.6,0-1.2-0.1-1.7-0.5c-0.5-0.3-0.9-0.7-1.2-1.3
			c-0.3-0.5-0.4-1.2-0.4-1.9C207.4,36.5,207.5,35.8,207.8,35.3z M212.9,35.8c-0.2-0.4-0.5-0.7-0.8-0.9c-0.4-0.2-0.7-0.3-1.2-0.3
			c-0.4,0-0.8,0.1-1.2,0.3c-0.4,0.2-0.6,0.5-0.8,0.9c-0.2,0.4-0.3,0.8-0.3,1.4c0,0.5,0.1,1,0.3,1.4c0.2,0.4,0.5,0.7,0.8,0.9
			c0.4,0.2,0.7,0.3,1.2,0.3c0.4,0,0.8-0.1,1.2-0.3c0.4-0.2,0.6-0.5,0.8-0.9c0.2-0.4,0.3-0.8,0.3-1.4
			C213.2,36.7,213.1,36.2,212.9,35.8z"/>
		<path class="st0" d="M217.4,31.4v9.3h-1.1v-9.3H217.4z"/>
		<path class="st0" d="M223.8,31.9v8.7h-1.1v-8.7H223.8z"/>
		<path class="st0" d="M231.1,34.4c0.5,0.5,0.8,1.2,0.8,2.2v4h-1.1v-3.9c0-0.7-0.2-1.2-0.5-1.6c-0.3-0.4-0.8-0.5-1.4-0.5
			c-0.6,0-1.1,0.2-1.4,0.6c-0.4,0.4-0.5,0.9-0.5,1.6v3.8h-1.1v-6.9h1.1v1c0.2-0.4,0.5-0.6,0.9-0.8c0.4-0.2,0.8-0.3,1.3-0.3
			C229.9,33.6,230.6,33.9,231.1,34.4z"/>
		<path class="st0" d="M233.8,35.3c0.3-0.5,0.7-0.9,1.2-1.2c0.5-0.3,1.1-0.4,1.7-0.4c0.5,0,1,0.1,1.5,0.4s0.8,0.6,1.1,1v-3.6h1.2
			v9.3h-1.2v-1.3c-0.2,0.4-0.6,0.7-1,1c-0.4,0.3-1,0.4-1.6,0.4c-0.6,0-1.2-0.1-1.7-0.5c-0.5-0.3-0.9-0.7-1.2-1.3
			c-0.3-0.5-0.4-1.2-0.4-1.9C233.4,36.5,233.5,35.8,233.8,35.3z M238.9,35.8c-0.2-0.4-0.5-0.7-0.8-0.9c-0.4-0.2-0.7-0.3-1.2-0.3
			c-0.4,0-0.8,0.1-1.2,0.3c-0.4,0.2-0.6,0.5-0.8,0.9c-0.2,0.4-0.3,0.8-0.3,1.4c0,0.5,0.1,1,0.3,1.4c0.2,0.4,0.5,0.7,0.8,0.9
			c0.4,0.2,0.7,0.3,1.2,0.3c0.4,0,0.8-0.1,1.2-0.3c0.4-0.2,0.6-0.5,0.8-0.9c0.2-0.4,0.3-0.8,0.3-1.4
			C239.2,36.7,239.1,36.2,238.9,35.8z"/>
		<path class="st0" d="M248.3,33.8v6.9h-1.1v-1c-0.2,0.4-0.5,0.6-0.9,0.8s-0.8,0.3-1.3,0.3c-0.5,0-1-0.1-1.4-0.3
			c-0.4-0.2-0.8-0.6-1-1c-0.2-0.4-0.4-1-0.4-1.6v-4h1.1v3.9c0,0.7,0.2,1.2,0.5,1.6c0.3,0.4,0.8,0.5,1.4,0.5c0.6,0,1.1-0.2,1.4-0.6
			c0.4-0.4,0.5-0.9,0.5-1.6v-3.8H248.3z"/>
		<path class="st0" d="M251.3,40.5c-0.4-0.2-0.7-0.4-1-0.8c-0.2-0.3-0.4-0.7-0.4-1.1h1.2c0,0.3,0.2,0.6,0.5,0.8
			c0.3,0.2,0.7,0.3,1.1,0.3c0.4,0,0.8-0.1,1-0.3c0.3-0.2,0.4-0.4,0.4-0.7c0-0.3-0.1-0.5-0.4-0.7c-0.3-0.1-0.7-0.3-1.2-0.4
			c-0.5-0.1-0.9-0.3-1.2-0.4c-0.3-0.1-0.6-0.3-0.8-0.6c-0.2-0.3-0.3-0.6-0.3-1.1c0-0.4,0.1-0.7,0.3-1c0.2-0.3,0.5-0.5,0.9-0.7
			c0.4-0.2,0.8-0.3,1.3-0.3c0.8,0,1.4,0.2,1.8,0.6c0.5,0.4,0.7,0.9,0.8,1.6H254c0-0.4-0.2-0.6-0.4-0.9c-0.3-0.2-0.6-0.3-1.1-0.3
			c-0.4,0-0.7,0.1-1,0.3c-0.2,0.2-0.4,0.4-0.4,0.7c0,0.2,0.1,0.4,0.2,0.6c0.1,0.1,0.3,0.3,0.6,0.4c0.2,0.1,0.5,0.2,0.9,0.3
			c0.5,0.1,0.9,0.3,1.2,0.4c0.3,0.1,0.6,0.3,0.8,0.6s0.3,0.6,0.3,1c0,0.4-0.1,0.7-0.3,1c-0.2,0.3-0.5,0.5-0.9,0.7
			c-0.4,0.2-0.8,0.3-1.3,0.3C252.2,40.7,251.7,40.6,251.3,40.5z"/>
		<path class="st0" d="M258.2,34.7v4c0,0.3,0.1,0.6,0.2,0.7c0.1,0.1,0.4,0.2,0.7,0.2h0.8v1h-1c-0.6,0-1.1-0.1-1.4-0.4
			c-0.3-0.3-0.5-0.8-0.5-1.4v-4h-0.9v-0.9h0.9V32h1.1v1.7h1.8v0.9H258.2z"/>
		<path class="st0" d="M263.4,34c0.4-0.2,0.8-0.3,1.4-0.3v1.2h-0.3c-1.3,0-1.9,0.7-1.9,2.1v3.7h-1.1v-6.9h1.1v1.1
			C262.7,34.5,263,34.2,263.4,34z"/>
		<path class="st0" d="M266.1,32.4c-0.2-0.2-0.2-0.3-0.2-0.6c0-0.2,0.1-0.4,0.2-0.6c0.2-0.1,0.3-0.2,0.6-0.2c0.2,0,0.4,0.1,0.5,0.2
			c0.1,0.2,0.2,0.3,0.2,0.6c0,0.2-0.1,0.4-0.2,0.6c-0.1,0.1-0.3,0.2-0.5,0.2C266.4,32.6,266.2,32.6,266.1,32.4z M267.2,33.8v6.9H266
			v-6.9H267.2z"/>
		<path class="st0" d="M275.3,37.6h-5.5c0,0.7,0.3,1.2,0.7,1.6c0.4,0.4,0.9,0.6,1.5,0.6c0.5,0,0.9-0.1,1.2-0.3
			c0.3-0.2,0.6-0.5,0.7-0.9h1.2c-0.2,0.7-0.6,1.2-1.1,1.6c-0.6,0.4-1.2,0.6-2.1,0.6c-0.7,0-1.2-0.1-1.7-0.4
			c-0.5-0.3-0.9-0.7-1.2-1.2c-0.3-0.5-0.4-1.2-0.4-1.9c0-0.7,0.1-1.3,0.4-1.9c0.3-0.5,0.7-0.9,1.2-1.2c0.5-0.3,1.1-0.4,1.8-0.4
			c0.7,0,1.2,0.1,1.7,0.4c0.5,0.3,0.9,0.7,1.2,1.2c0.3,0.5,0.4,1.1,0.4,1.7C275.4,37.1,275.4,37.4,275.3,37.6z M273.9,35.6
			c-0.2-0.3-0.5-0.6-0.8-0.7c-0.3-0.2-0.7-0.2-1.1-0.2c-0.6,0-1.1,0.2-1.5,0.6c-0.4,0.4-0.6,0.9-0.7,1.5h4.3
			C274.2,36.3,274.1,35.9,273.9,35.6z"/>
		<path class="st0" d="M277.9,40.5c-0.4-0.2-0.7-0.4-1-0.8c-0.2-0.3-0.4-0.7-0.4-1.1h1.2c0,0.3,0.2,0.6,0.5,0.8s0.7,0.3,1.1,0.3
			c0.4,0,0.8-0.1,1-0.3c0.3-0.2,0.4-0.4,0.4-0.7c0-0.3-0.1-0.5-0.4-0.7c-0.3-0.1-0.7-0.3-1.2-0.4c-0.5-0.1-0.9-0.3-1.2-0.4
			c-0.3-0.1-0.6-0.3-0.8-0.6c-0.2-0.3-0.3-0.6-0.3-1.1c0-0.4,0.1-0.7,0.3-1c0.2-0.3,0.5-0.5,0.9-0.7c0.4-0.2,0.8-0.3,1.3-0.3
			c0.8,0,1.4,0.2,1.8,0.6c0.5,0.4,0.7,0.9,0.8,1.6h-1.1c0-0.4-0.2-0.6-0.4-0.9c-0.3-0.2-0.6-0.3-1.1-0.3c-0.4,0-0.7,0.1-1,0.3
			c-0.2,0.2-0.4,0.4-0.4,0.7c0,0.2,0.1,0.4,0.2,0.6c0.1,0.1,0.3,0.3,0.6,0.4c0.2,0.1,0.5,0.2,0.9,0.3c0.5,0.1,0.9,0.3,1.2,0.4
			c0.3,0.1,0.6,0.3,0.8,0.6s0.3,0.6,0.3,1c0,0.4-0.1,0.7-0.3,1c-0.2,0.3-0.5,0.5-0.9,0.7c-0.4,0.2-0.8,0.3-1.3,0.3
			C278.8,40.7,278.3,40.6,277.9,40.5z"/>
		<path class="st0" d="M284.6,39l-1.4,3.4h-0.8l0.9-3.4H284.6z"/>
		<path class="st0" d="M298.9,34c0.4,0.2,0.7,0.6,1,1c0.2,0.4,0.4,1,0.4,1.6v4h-1.1v-3.9c0-0.7-0.2-1.2-0.5-1.6
			c-0.3-0.4-0.8-0.5-1.4-0.5c-0.6,0-1.1,0.2-1.4,0.6c-0.4,0.4-0.5,0.9-0.5,1.6v3.8h-1.1v-3.9c0-0.7-0.2-1.2-0.5-1.6
			c-0.3-0.4-0.8-0.5-1.4-0.5c-0.6,0-1.1,0.2-1.4,0.6c-0.4,0.4-0.5,0.9-0.5,1.6v3.8h-1.1v-6.9h1.1v1c0.2-0.4,0.5-0.6,0.9-0.8
			c0.4-0.2,0.8-0.3,1.3-0.3c0.6,0,1.1,0.1,1.5,0.4s0.8,0.6,1,1.1c0.2-0.5,0.5-0.9,1-1.1c0.4-0.3,0.9-0.4,1.5-0.4
			C298,33.6,298.5,33.7,298.9,34z"/>
		<path class="st0" d="M303.4,40.3c-0.5-0.3-0.9-0.7-1.2-1.2c-0.3-0.5-0.4-1.2-0.4-1.9c0-0.7,0.2-1.3,0.5-1.9c0.3-0.5,0.7-1,1.2-1.2
			c0.5-0.3,1.1-0.4,1.8-0.4c0.7,0,1.2,0.1,1.8,0.4c0.5,0.3,0.9,0.7,1.2,1.2c0.3,0.5,0.5,1.2,0.5,1.9c0,0.7-0.2,1.3-0.5,1.9
			c-0.3,0.5-0.7,1-1.3,1.2c-0.5,0.3-1.1,0.4-1.8,0.4C304.5,40.7,303.9,40.6,303.4,40.3z M306.3,39.4c0.4-0.2,0.6-0.5,0.9-0.9
			s0.3-0.9,0.3-1.4c0-0.6-0.1-1-0.3-1.4c-0.2-0.4-0.5-0.7-0.9-0.9c-0.4-0.2-0.7-0.3-1.1-0.3c-0.4,0-0.8,0.1-1.1,0.3
			c-0.3,0.2-0.6,0.5-0.8,0.9c-0.2,0.4-0.3,0.9-0.3,1.4c0,0.6,0.1,1,0.3,1.4c0.2,0.4,0.5,0.7,0.8,0.9c0.3,0.2,0.7,0.3,1.1,0.3
			C305.5,39.7,305.9,39.6,306.3,39.4z"/>
		<path class="st0" d="M310.2,35.3c0.3-0.5,0.7-0.9,1.2-1.2c0.5-0.3,1.1-0.4,1.7-0.4c0.5,0,1,0.1,1.5,0.4c0.5,0.2,0.8,0.6,1.1,1
			v-3.6h1.2v9.3h-1.2v-1.3c-0.2,0.4-0.6,0.7-1,1c-0.4,0.3-1,0.4-1.6,0.4c-0.6,0-1.2-0.1-1.7-0.5c-0.5-0.3-0.9-0.7-1.2-1.3
			c-0.3-0.5-0.4-1.2-0.4-1.9C309.7,36.5,309.9,35.8,310.2,35.3z M315.2,35.8c-0.2-0.4-0.5-0.7-0.8-0.9c-0.4-0.2-0.7-0.3-1.2-0.3
			c-0.4,0-0.8,0.1-1.2,0.3c-0.4,0.2-0.6,0.5-0.8,0.9c-0.2,0.4-0.3,0.8-0.3,1.4c0,0.5,0.1,1,0.3,1.4c0.2,0.4,0.5,0.7,0.8,0.9
			c0.4,0.2,0.7,0.3,1.2,0.3c0.4,0,0.8-0.1,1.2-0.3c0.4-0.2,0.6-0.5,0.8-0.9c0.2-0.4,0.3-0.8,0.3-1.4
			C315.5,36.7,315.4,36.2,315.2,35.8z"/>
		<path class="st0" d="M318.6,35.3c0.3-0.5,0.7-0.9,1.2-1.2c0.5-0.3,1.1-0.4,1.7-0.4c0.6,0,1.1,0.1,1.6,0.4s0.8,0.6,1,1v-1.3h1.2
			v6.9H324v-1.3c-0.2,0.4-0.6,0.7-1,1c-0.4,0.3-1,0.4-1.6,0.4c-0.6,0-1.2-0.1-1.7-0.5c-0.5-0.3-0.9-0.7-1.2-1.3
			c-0.3-0.5-0.4-1.2-0.4-1.9C318.2,36.5,318.3,35.8,318.6,35.3z M323.7,35.8c-0.2-0.4-0.5-0.7-0.8-0.9c-0.4-0.2-0.7-0.3-1.2-0.3
			c-0.4,0-0.8,0.1-1.2,0.3c-0.4,0.2-0.6,0.5-0.8,0.9c-0.2,0.4-0.3,0.8-0.3,1.4c0,0.5,0.1,1,0.3,1.4c0.2,0.4,0.5,0.7,0.8,0.9
			c0.4,0.2,0.7,0.3,1.2,0.3c0.4,0,0.8-0.1,1.2-0.3c0.4-0.2,0.6-0.5,0.8-0.9c0.2-0.4,0.3-0.8,0.3-1.4C324,36.7,323.9,36.2,323.7,35.8
			z"/>
	</g>
	<g>
		<path class="st0" d="M204.9,4.4V3h1.7v1.4h4.2v2.9h1.2v1.6h-1.2v2.9h-4.2v1.4h4.5v4.3h-4.9c-0.3,0.5-0.5,1-0.8,1.4h5.8v1.2
			c-0.8,1.3-1.9,2.4-3.3,3.4c1.3,0.5,2.6,1.1,4,1.9l-1,1.3c-1.5-0.8-3-1.6-4.5-2.2c-1.7,0.9-3.7,1.8-6.1,2.5l-1-1.4
			c2-0.5,3.8-1.1,5.2-1.9c-1.1-0.4-2.2-0.8-3.3-1.1c0.5-0.8,1-1.5,1.5-2.3h-3.3v-1.5h4.2c0.3-0.5,0.5-1,0.8-1.4h-4.1v-4.3h4.5v-1.4
			h-4.2V8.9h-1.2V7.4h1.2V4.4H204.9z M204.9,14.5H202v1.7h2.9V14.5z M204.9,7.5V5.8h-2.5v1.7H204.9z M204.9,8.8h-2.5v1.8h2.5V8.8z
			 M209.2,20.4h-4.6c-0.4,0.6-0.7,1.1-1,1.6c0.9,0.2,1.8,0.5,2.6,0.9C207.5,22.1,208.5,21.3,209.2,20.4z M209.2,7.5V5.8h-2.6v1.7
			H209.2z M209.2,8.8h-2.6v1.8h2.6V8.8z M209.6,14.5h-2.9v1.7h2.9V14.5z M214,13.2c-0.4,0.9-0.8,1.6-1.3,2.4l-1.2-1.5
			c1.5-2.8,2.6-6.6,3.1-11.3l1.9,0.3c-0.2,1.4-0.4,2.7-0.6,3.9h6.9v1.8H221c-0.1,4.7-1,8.7-2.7,11.9c1.3,1.9,2.9,3.5,4.9,4.9
			l-1.1,1.5c-1.9-1.3-3.5-2.8-4.8-4.6c-1.2,1.8-2.6,3.3-4.4,4.6l-1-1.6c1.8-1.2,3.2-2.8,4.3-4.6C215.1,18.6,214.3,16,214,13.2z
			 M214,13.1l1.5-0.5c0.3,2.3,0.8,4.4,1.7,6.2c1.2-2.8,1.9-6.1,2-10h-3.8C215.1,10.4,214.6,11.8,214,13.1z"/>
		<path class="st0" d="M233.7,3.7c-0.7,2-1.5,3.9-2.5,5.8V27h-1.9V12.3c-0.9,1.1-1.8,2.3-2.8,3.3l-0.6-2c2.8-3.1,4.8-6.7,6.1-10.8
			L233.7,3.7z M242.2,23.9c1.3-3.5,2.5-7.9,3.5-13.2l1.8,0.5c-0.9,4.8-2,9-3.3,12.7h5.9v1.9h-16.9v-1.9H242.2z M240.6,7.2
			c-0.4-1.4-0.8-2.7-1.3-3.8l2-0.3c0.4,1.2,0.8,2.6,1.2,4.2h6.8V9h-15.7V7.2H240.6z M239.6,22.6l-1.8,0.5c-0.7-4-1.6-7.8-2.7-11.5
			l1.7-0.5C237.8,14.4,238.8,18.3,239.6,22.6z"/>
		<path class="st0" d="M265.3,8.5c1.9-0.6,3.5-1.3,4.9-2h-16.6V4.9h10.2c-0.3-0.6-0.6-1.2-0.9-1.7l1.9-0.3c0.3,0.6,0.6,1.3,0.9,2h9
			v1.6h-4.2l1.1,0.7c-1.3,0.7-2.7,1.4-4.2,1.9c2,0.6,3.9,1.2,5.6,1.8L272,12h2.9v1.6h-18.6v3c-0.1,4.3-0.9,7.8-2.6,10.5l-1.4-1.3
			c1.4-2.2,2.1-5.3,2.1-9.2V12h17.4c-1.8-0.7-4-1.5-6.5-2.2c-2.7,0.8-5.6,1.5-8.8,1.8l-0.9-1.2c2.7-0.3,5.2-0.8,7.4-1.3
			c-1.8-0.5-3.8-1-5.9-1.5l1-1C260.7,7.2,263.1,7.8,265.3,8.5z M257.7,20.6l-1.3-1.1c1.7-1.3,2.9-3,3.8-5.1l1.5,0.6
			c-0.2,0.5-0.5,1.1-0.7,1.5h4.6v-2.1h1.8v2.1h6.8v1.6h-6.8v2.4h6.2v1.6h-6.2v2.4h8.1v1.6h-18.8v-1.6h8.9v-2.4h-6.2v-1.6h6.2v-2.4
			H260C259.3,19.2,258.5,20,257.7,20.6z"/>
		<path class="st0" d="M288.9,3v4h2.7V3h1.8v4h2.2c0.8-1.1,1.4-2.3,2-3.6l1.7,0.7c-0.6,1.1-1.2,2.1-1.8,2.9h4.2v1.6h-22.8V7h4
			c-0.4-1-1-2-1.6-2.9l1.8-0.7c0.6,1,1.1,2.2,1.7,3.5h2.3V3H288.9z M285.8,11.5c-0.4-0.8-0.8-1.5-1.4-2.1l1.8-0.7
			c0.6,0.8,1.1,1.7,1.6,2.8h5c0.6-0.8,1.2-1.8,1.7-2.7l1.8,0.6c-0.4,0.8-0.9,1.5-1.4,2.1h5.8v1.6h-9.3v1.9h8v1.6h-8v2h10.4v1.7
			h-10.4v6.8h-1.9v-6.8h-10.4v-1.7h10.4v-2h-8v-1.6h8v-1.9h-9.3v-1.6H285.8z M286.5,22.3c-1.6,1.6-3.6,3.1-6,4.3l-1.2-1.5
			c2.3-1.1,4.3-2.4,5.9-3.9L286.5,22.3z M301.1,25.3l-1.4,1.3c-1.3-1.3-3.2-2.7-5.5-4.2l1.2-1.2C297.7,22.6,299.6,23.9,301.1,25.3z"
			/>
		<path class="st0" d="M325.7,4v5h-9.1v1.7h5.6v1.5h-5.6v1.9h3.3c2-1.3,3.8-2.7,5.3-4.4l1.5,0.8c-1.2,1.3-2.6,2.5-4.2,3.6h5.5v1.6
			h-8.2c-1.4,0.7-2.8,1.3-4.3,1.9h9.2v9.6h-1.9V26h-11.1v1.2h-1.9v-7.9c-1.3,0.3-2.7,0.6-4.1,0.8l-1-1.6c4.5-0.5,8.5-1.4,11.9-2.9
			H305v-1.6h9.7v-1.9h-6.8v-1.5h6.8V9h-7.6V4H325.7z M312.8,5.4H309v2.2h3.9V5.4z M322.9,19h-11.1v2h11.1V19z M311.8,24.5h11.1v-2
			h-11.1V24.5z M318.3,5.4h-3.8v2.2h3.8V5.4z M323.9,5.4H320v2.2h3.8V5.4z"/>
	</g>
</g>
</svg>
