<?xml version="1.0" encoding="UTF-8"?>
<svg id="_層_1" data-name="圖層 1" xmlns="http://www.w3.org/2000/svg" width="676" height="590" viewBox="0 0 676 590">
  <defs>
    <style>
      .cls-1 {
        fill: #fff;
      }

      .cls-2 {
        fill: #1f323d;
      }

      .cls-3 {
        fill: #b4c43f;
      }

      .cls-4 {
        fill: none;
        stroke: #4d4d4d;
        stroke-miterlimit: 10;
      }

      .cls-5 {
        fill: #2a5167;
      }

      .cls-6 {
        fill: #b3b3b3;
      }

      .cls-7 {
        fill: #386c8a;
      }
    </style>
  </defs>
  <g>
    <line class="cls-4" x1="335.69" y1="42.1" x2="335.86" y2="222.38"/>
    <path class="cls-4" d="M155.22,112.46v-21.61c.13-4.33,4.28-7.79,9.34-7.79H511.43c5.16,0,9.35,3.58,9.35,8v21.4"/>
    <rect class="cls-7" x="259.79" y="165.52" width="156.42" height="32" rx="5" ry="5" transform="translate(676 363.05) rotate(-180)"/>
    <g>
      <path class="cls-1" d="M275.12,181.75c0-4.27,2.5-6.86,5.85-6.86,1.6,0,2.86,.79,3.62,1.64l-.9,1.08c-.68-.74-1.57-1.26-2.7-1.26-2.5,0-4.16,2.05-4.16,5.35s1.58,5.42,4.1,5.42c1.26,0,2.21-.56,3.06-1.48l.92,1.04c-1.04,1.21-2.34,1.89-4.05,1.89-3.28,0-5.74-2.54-5.74-6.82Z"/>
      <path class="cls-1" d="M287.21,174h1.64v3.92l-.05,2.02c.9-.9,1.91-1.64,3.24-1.64,2.05,0,2.99,1.33,2.99,3.83v6.19h-1.64v-5.98c0-1.84-.56-2.61-1.85-2.61-1.01,0-1.69,.5-2.68,1.5v7.09h-1.64v-14.33Z"/>
      <path class="cls-1" d="M297.83,175.48c0-.67,.49-1.06,1.13-1.06s1.13,.4,1.13,1.06c0,.61-.49,1.06-1.13,1.06s-1.13-.45-1.13-1.06Zm.31,3.08h1.64v9.78h-1.64v-9.78Z"/>
      <path class="cls-1" d="M302.35,183.46c0-3.17,2.14-5.15,4.41-5.15,2.48,0,3.89,1.8,3.89,4.59,0,.36-.04,.7-.07,.94h-6.59c.11,2.09,1.39,3.42,3.24,3.42,.95,0,1.73-.29,2.45-.77l.59,1.08c-.86,.56-1.91,1.01-3.24,1.01-2.59,0-4.68-1.89-4.68-5.11Zm6.86-.79c0-1.98-.9-3.04-2.43-3.04-1.39,0-2.61,1.12-2.81,3.04h5.24Z"/>
      <path class="cls-1" d="M317.45,175.34c-.36-.16-.76-.25-1.1-.25-.94,0-1.39,.67-1.39,1.93v1.55h2.07v1.33h-2.07v8.44h-1.64v-8.44h-1.33v-1.24l1.33-.09v-1.57c0-1.98,.9-3.22,2.84-3.22,.59,0,1.17,.13,1.64,.32l-.36,1.24Z"/>
      <path class="cls-1" d="M322.13,186.61l.99-1.13c.95,.99,2.29,1.64,3.66,1.64,1.73,0,2.77-.86,2.77-2.16s-.95-1.78-2.2-2.34l-1.91-.83c-1.22-.52-2.68-1.46-2.68-3.38,0-2.04,1.76-3.51,4.16-3.51,1.57,0,2.95,.67,3.89,1.64l-.88,1.06c-.81-.76-1.78-1.24-3.01-1.24-1.49,0-2.47,.76-2.47,1.94,0,1.28,1.15,1.76,2.18,2.2l1.89,.81c1.53,.67,2.72,1.57,2.72,3.53,0,2.09-1.73,3.75-4.48,3.75-1.87,0-3.48-.76-4.63-1.96Z"/>
      <path class="cls-1" d="M332.95,183.46c0-3.17,2.14-5.15,4.41-5.15,2.48,0,3.89,1.8,3.89,4.59,0,.36-.04,.7-.07,.94h-6.59c.11,2.09,1.39,3.42,3.24,3.42,.95,0,1.73-.29,2.45-.77l.59,1.08c-.86,.56-1.91,1.01-3.24,1.01-2.59,0-4.68-1.89-4.68-5.11Zm6.86-.79c0-1.98-.9-3.04-2.43-3.04-1.39,0-2.61,1.12-2.81,3.04h5.24Z"/>
      <path class="cls-1" d="M342.92,183.46c0-3.26,2.21-5.15,4.72-5.15,1.28,0,2.16,.54,2.86,1.15l-.85,1.1c-.58-.52-1.17-.88-1.96-.88-1.76,0-3.06,1.53-3.06,3.78s1.22,3.75,3.02,3.75c.9,0,1.69-.41,2.3-.97l.7,1.1c-.86,.79-1.98,1.24-3.15,1.24-2.59,0-4.59-1.87-4.59-5.11Z"/>
      <path class="cls-1" d="M352.82,178.56h1.35l.14,1.78h.05c.68-1.24,1.67-2.04,2.77-2.04,.43,0,.74,.05,1.04,.22l-.31,1.44c-.32-.13-.56-.16-.95-.16-.81,0-1.82,.58-2.47,2.25v6.28h-1.64v-9.78Z"/>
      <path class="cls-1" d="M358.87,183.46c0-3.17,2.14-5.15,4.41-5.15,2.48,0,3.89,1.8,3.89,4.59,0,.36-.04,.7-.07,.94h-6.59c.11,2.09,1.39,3.42,3.24,3.42,.95,0,1.73-.29,2.45-.77l.59,1.08c-.86,.56-1.91,1.01-3.24,1.01-2.59,0-4.68-1.89-4.68-5.11Zm6.86-.79c0-1.98-.9-3.04-2.43-3.04-1.39,0-2.61,1.12-2.81,3.04h5.24Z"/>
      <path class="cls-1" d="M369.67,185.31v-5.42h-1.46v-1.24l1.53-.09,.2-2.74h1.37v2.74h2.65v1.33h-2.65v5.46c0,1.21,.38,1.89,1.51,1.89,.34,0,.79-.13,1.12-.25l.32,1.22c-.56,.18-1.21,.36-1.8,.36-2.09,0-2.79-1.3-2.79-3.26Z"/>
      <path class="cls-1" d="M375.13,185.8c0-2.12,1.85-3.19,6.01-3.66,0-1.26-.41-2.47-2.02-2.47-1.13,0-2.16,.52-2.94,1.04l-.65-1.13c.9-.58,2.29-1.28,3.85-1.28,2.38,0,3.39,1.6,3.39,4.02v6.01h-1.35l-.14-1.17h-.05c-.94,.77-2.03,1.4-3.24,1.4-1.64,0-2.86-1.01-2.86-2.77Zm6.01,.16v-2.74c-3.29,.4-4.41,1.21-4.41,2.47,0,1.12,.76,1.57,1.73,1.57s1.73-.45,2.68-1.3Z"/>
      <path class="cls-1" d="M385.89,178.56h1.35l.14,1.78h.05c.68-1.24,1.67-2.04,2.77-2.04,.43,0,.74,.05,1.04,.22l-.31,1.44c-.32-.13-.56-.16-.95-.16-.81,0-1.82,.58-2.47,2.25v6.28h-1.64v-9.78Z"/>
      <path class="cls-1" d="M392.4,192.35l.32-1.31c.2,.07,.49,.16,.74,.16,1.12,0,1.82-.9,2.21-2.11l.22-.74-3.93-9.79h1.71l2,5.44c.29,.85,.63,1.85,.94,2.74h.09c.27-.88,.56-1.87,.83-2.74l1.75-5.44h1.6l-3.69,10.59c-.68,1.93-1.69,3.4-3.64,3.4-.47,0-.85-.07-1.15-.2Z"/>
    </g>
    <g>
      <rect class="cls-5" x="17.72" y="108.79" width="275" height="31.66" rx="5" ry="5"/>
      <rect class="cls-5" x="383.28" y="108.79" width="275" height="31.66" rx="5" ry="5"/>
      <g>
        <path class="cls-1" d="M35.71,118.21h3.31c4.05,0,6.23,2.36,6.23,6.55s-2.18,6.64-6.16,6.64h-3.38v-13.2Zm3.17,11.83c3.11,0,4.65-1.94,4.65-5.28s-1.53-5.2-4.65-5.2h-1.49v10.48h1.49Z"/>
        <path class="cls-1" d="M48.99,126.53c0-3.17,2.14-5.15,4.41-5.15,2.48,0,3.89,1.8,3.89,4.59,0,.36-.04,.7-.07,.94h-6.59c.11,2.09,1.39,3.42,3.24,3.42,.95,0,1.73-.29,2.45-.77l.59,1.08c-.86,.56-1.91,1.01-3.24,1.01-2.59,0-4.68-1.89-4.68-5.11Zm6.86-.79c0-1.98-.9-3.04-2.43-3.04-1.39,0-2.61,1.12-2.81,3.04h5.24Z"/>
        <path class="cls-1" d="M61.5,121.63h1.35l.14,1.12h.05c.88-.72,1.98-1.37,3.11-1.37,2.52,0,3.89,1.98,3.89,4.99,0,3.35-2,5.28-4.25,5.28-.88,0-1.82-.41-2.7-1.13l.04,1.71v3.31h-1.64v-13.9Zm6.84,4.75c0-2.16-.72-3.62-2.57-3.62-.83,0-1.67,.47-2.63,1.35v5.13c.88,.76,1.75,1.03,2.39,1.03,1.62,0,2.81-1.46,2.81-3.89Z"/>
        <path class="cls-1" d="M74.33,127.83v-6.19h1.64v6c0,1.82,.54,2.59,1.84,2.59,1.01,0,1.71-.49,2.65-1.66v-6.93h1.64v9.78h-1.37l-.13-1.53h-.05c-.92,1.06-1.89,1.76-3.24,1.76-2.05,0-2.97-1.33-2.97-3.82Z"/>
        <path class="cls-1" d="M87.47,128.38v-5.42h-1.46v-1.24l1.53-.09,.2-2.74h1.37v2.74h2.65v1.33h-2.65v5.46c0,1.21,.38,1.89,1.51,1.89,.34,0,.79-.13,1.12-.25l.32,1.22c-.56,.18-1.21,.36-1.8,.36-2.09,0-2.79-1.3-2.79-3.26Z"/>
        <path class="cls-1" d="M94.78,135.43l.32-1.31c.2,.07,.49,.16,.74,.16,1.12,0,1.82-.9,2.21-2.11l.22-.74-3.93-9.79h1.71l2,5.44c.29,.85,.63,1.85,.94,2.74h.09c.27-.88,.56-1.87,.83-2.74l1.75-5.44h1.6l-3.69,10.59c-.68,1.93-1.69,3.4-3.64,3.4-.47,0-.85-.07-1.15-.2Z"/>
        <path class="cls-1" d="M112.92,118.21h3.31c4.05,0,6.23,2.36,6.23,6.55s-2.18,6.64-6.16,6.64h-3.39v-13.2Zm3.17,11.83c3.12,0,4.65-1.94,4.65-5.28s-1.53-5.2-4.65-5.2h-1.49v10.48h1.49Z"/>
        <path class="cls-1" d="M126.64,118.55c0-.67,.49-1.06,1.13-1.06s1.13,.4,1.13,1.06c0,.61-.49,1.06-1.13,1.06s-1.13-.45-1.13-1.06Zm.31,3.08h1.64v9.78h-1.64v-9.78Z"/>
        <path class="cls-1" d="M133.7,121.63h1.35l.14,1.78h.05c.68-1.24,1.67-2.04,2.77-2.04,.43,0,.74,.05,1.04,.22l-.31,1.44c-.32-.13-.56-.16-.95-.16-.81,0-1.82,.58-2.47,2.25v6.28h-1.64v-9.78Z"/>
        <path class="cls-1" d="M141.54,126.53c0-3.17,2.14-5.15,4.41-5.15,2.48,0,3.89,1.8,3.89,4.59,0,.36-.04,.7-.07,.94h-6.59c.11,2.09,1.39,3.42,3.24,3.42,.95,0,1.73-.29,2.45-.77l.59,1.08c-.86,.56-1.91,1.01-3.24,1.01-2.59,0-4.68-1.89-4.68-5.11Zm6.86-.79c0-1.98-.9-3.04-2.43-3.04-1.39,0-2.61,1.12-2.81,3.04h5.24Z"/>
        <path class="cls-1" d="M153.32,126.53c0-3.26,2.21-5.15,4.72-5.15,1.28,0,2.16,.54,2.86,1.15l-.85,1.1c-.58-.52-1.17-.88-1.96-.88-1.76,0-3.06,1.53-3.06,3.78s1.22,3.75,3.02,3.75c.9,0,1.69-.41,2.3-.97l.7,1.1c-.86,.79-1.98,1.24-3.15,1.24-2.59,0-4.59-1.87-4.59-5.11Z"/>
        <path class="cls-1" d="M165.11,128.38v-5.42h-1.46v-1.24l1.53-.09,.2-2.74h1.37v2.74h2.65v1.33h-2.65v5.46c0,1.21,.38,1.89,1.51,1.89,.34,0,.79-.13,1.12-.25l.32,1.22c-.56,.18-1.21,.36-1.8,.36-2.09,0-2.79-1.3-2.79-3.26Z"/>
        <path class="cls-1" d="M172.4,126.53c0-3.26,2.14-5.15,4.54-5.15s4.54,1.89,4.54,5.15-2.14,5.11-4.54,5.11-4.54-1.87-4.54-5.11Zm7.38,0c0-2.25-1.15-3.78-2.84-3.78s-2.83,1.53-2.83,3.78,1.13,3.75,2.83,3.75,2.84-1.49,2.84-3.75Z"/>
        <path class="cls-1" d="M185.84,121.63h1.35l.14,1.78h.05c.68-1.24,1.67-2.04,2.77-2.04,.43,0,.74,.05,1.04,.22l-.31,1.44c-.32-.13-.56-.16-.95-.16-.81,0-1.82,.58-2.47,2.25v6.28h-1.64v-9.78Z"/>
        <path class="cls-1" d="M193.31,125.74h4.61v1.26h-4.61v-1.26Z"/>
        <path class="cls-1" d="M201.57,124.82c0-4.27,2.56-6.86,6.05-6.86,1.84,0,3.04,.83,3.8,1.64l-.9,1.08c-.67-.7-1.51-1.26-2.86-1.26-2.65,0-4.38,2.05-4.38,5.35s1.57,5.42,4.39,5.42c.95,0,1.87-.29,2.4-.77v-3.46h-2.79v-1.39h4.32v5.54c-.85,.88-2.3,1.53-4.09,1.53-3.47,0-5.94-2.54-5.94-6.82Z"/>
        <path class="cls-1" d="M215.65,126.53c0-3.17,2.14-5.15,4.41-5.15,2.48,0,3.89,1.8,3.89,4.59,0,.36-.04,.7-.07,.94h-6.59c.11,2.09,1.39,3.42,3.24,3.42,.95,0,1.73-.29,2.45-.77l.59,1.08c-.86,.56-1.91,1.01-3.24,1.01-2.59,0-4.68-1.89-4.68-5.11Zm6.86-.79c0-1.98-.9-3.04-2.43-3.04-1.39,0-2.61,1.12-2.81,3.04h5.24Z"/>
        <path class="cls-1" d="M228.16,121.63h1.35l.14,1.41h.05c.94-.92,1.94-1.66,3.28-1.66,2.05,0,2.99,1.33,2.99,3.84v6.19h-1.64v-5.98c0-1.84-.56-2.61-1.85-2.61-1.01,0-1.69,.5-2.68,1.5v7.09h-1.64v-9.78Z"/>
        <path class="cls-1" d="M240.22,126.53c0-3.17,2.14-5.15,4.41-5.15,2.48,0,3.89,1.8,3.89,4.59,0,.36-.04,.7-.07,.94h-6.59c.11,2.09,1.39,3.42,3.24,3.42,.95,0,1.73-.29,2.45-.77l.59,1.08c-.86,.56-1.91,1.01-3.24,1.01-2.59,0-4.68-1.89-4.68-5.11Zm6.86-.79c0-1.98-.9-3.04-2.43-3.04-1.39,0-2.61,1.12-2.81,3.04h5.24Z"/>
        <path class="cls-1" d="M252.73,121.63h1.35l.14,1.78h.05c.68-1.24,1.67-2.04,2.77-2.04,.43,0,.74,.05,1.04,.22l-.31,1.44c-.32-.13-.56-.16-.95-.16-.81,0-1.82,.58-2.47,2.25v6.28h-1.64v-9.78Z"/>
        <path class="cls-1" d="M260.41,128.87c0-2.12,1.85-3.19,6.01-3.65,0-1.26-.41-2.47-2.02-2.47-1.13,0-2.16,.52-2.94,1.04l-.65-1.13c.9-.58,2.29-1.28,3.85-1.28,2.38,0,3.39,1.6,3.39,4.02v6.01h-1.35l-.14-1.17h-.05c-.94,.77-2.03,1.4-3.24,1.4-1.64,0-2.86-1.01-2.86-2.77Zm6.01,.16v-2.74c-3.29,.4-4.41,1.21-4.41,2.47,0,1.12,.76,1.57,1.73,1.57s1.73-.45,2.68-1.3Z"/>
        <path class="cls-1" d="M272.98,129.47v-12.39h1.64v12.5c0,.5,.22,.7,.47,.7,.09,0,.16,0,.34-.04l.23,1.26c-.23,.09-.52,.14-.95,.14-1.22,0-1.73-.79-1.73-2.18Z"/>
      </g>
      <g>
        <path class="cls-1" d="M400.79,118.21h3.31c4.05,0,6.23,2.36,6.23,6.55s-2.18,6.64-6.16,6.64h-3.39v-13.2Zm3.17,11.83c3.12,0,4.65-1.95,4.65-5.28s-1.53-5.2-4.65-5.2h-1.49v10.48h1.49Z"/>
        <path class="cls-1" d="M414.08,126.53c0-3.17,2.14-5.15,4.41-5.15,2.48,0,3.89,1.8,3.89,4.59,0,.36-.04,.7-.07,.94h-6.59c.11,2.09,1.39,3.42,3.24,3.42,.95,0,1.73-.29,2.45-.77l.59,1.08c-.86,.56-1.91,1.01-3.24,1.01-2.59,0-4.68-1.89-4.68-5.11Zm6.86-.79c0-1.98-.9-3.04-2.43-3.04-1.39,0-2.61,1.12-2.81,3.04h5.24Z"/>
        <path class="cls-1" d="M426.59,121.63h1.35l.14,1.12h.05c.88-.72,1.98-1.37,3.11-1.37,2.52,0,3.89,1.98,3.89,4.99,0,3.35-2,5.28-4.25,5.28-.88,0-1.82-.41-2.7-1.13l.04,1.71v3.31h-1.64v-13.9Zm6.84,4.75c0-2.16-.72-3.62-2.57-3.62-.83,0-1.67,.47-2.63,1.35v5.13c.88,.76,1.75,1.03,2.4,1.03,1.62,0,2.81-1.46,2.81-3.89Z"/>
        <path class="cls-1" d="M439.42,127.83v-6.19h1.64v6c0,1.82,.54,2.59,1.84,2.59,1.01,0,1.71-.49,2.65-1.66v-6.93h1.64v9.78h-1.37l-.13-1.53h-.05c-.92,1.06-1.89,1.76-3.24,1.76-2.05,0-2.97-1.33-2.97-3.82Z"/>
        <path class="cls-1" d="M452.56,128.39v-5.42h-1.46v-1.24l1.53-.09,.2-2.74h1.37v2.74h2.65v1.33h-2.65v5.46c0,1.21,.38,1.89,1.51,1.89,.34,0,.79-.13,1.12-.25l.32,1.22c-.56,.18-1.21,.36-1.8,.36-2.09,0-2.79-1.3-2.79-3.26Z"/>
        <path class="cls-1" d="M459.87,135.43l.32-1.31c.2,.07,.49,.16,.74,.16,1.12,0,1.82-.9,2.21-2.11l.22-.74-3.93-9.79h1.71l2,5.44c.29,.85,.63,1.85,.94,2.74h.09c.27-.88,.56-1.87,.83-2.74l1.75-5.44h1.6l-3.69,10.59c-.68,1.93-1.69,3.4-3.64,3.4-.47,0-.85-.07-1.15-.2Z"/>
        <path class="cls-1" d="M478.01,118.21h3.31c4.05,0,6.23,2.36,6.23,6.55s-2.18,6.64-6.16,6.64h-3.38v-13.2Zm3.17,11.83c3.11,0,4.65-1.95,4.65-5.28s-1.53-5.2-4.65-5.2h-1.49v10.48h1.49Z"/>
        <path class="cls-1" d="M491.73,118.55c0-.67,.49-1.06,1.13-1.06s1.13,.4,1.13,1.06c0,.61-.49,1.06-1.13,1.06s-1.13-.45-1.13-1.06Zm.31,3.08h1.64v9.78h-1.64v-9.78Z"/>
        <path class="cls-1" d="M498.78,121.63h1.35l.14,1.78h.05c.68-1.24,1.67-2.04,2.77-2.04,.43,0,.74,.05,1.04,.22l-.31,1.44c-.32-.13-.56-.16-.95-.16-.81,0-1.82,.58-2.47,2.25v6.28h-1.64v-9.78Z"/>
        <path class="cls-1" d="M506.63,126.53c0-3.17,2.14-5.15,4.41-5.15,2.48,0,3.89,1.8,3.89,4.59,0,.36-.04,.7-.07,.94h-6.59c.11,2.09,1.39,3.42,3.24,3.42,.95,0,1.73-.29,2.45-.77l.59,1.08c-.86,.56-1.91,1.01-3.24,1.01-2.59,0-4.68-1.89-4.68-5.11Zm6.86-.79c0-1.98-.9-3.04-2.43-3.04-1.39,0-2.61,1.12-2.81,3.04h5.24Z"/>
        <path class="cls-1" d="M518.4,126.53c0-3.26,2.21-5.15,4.72-5.15,1.28,0,2.16,.54,2.86,1.15l-.85,1.1c-.58-.52-1.17-.88-1.96-.88-1.76,0-3.06,1.53-3.06,3.78s1.22,3.75,3.02,3.75c.9,0,1.69-.41,2.3-.97l.7,1.1c-.86,.79-1.98,1.24-3.15,1.24-2.59,0-4.59-1.87-4.59-5.11Z"/>
        <path class="cls-1" d="M530.19,128.39v-5.42h-1.46v-1.24l1.53-.09,.2-2.74h1.37v2.74h2.65v1.33h-2.65v5.46c0,1.21,.38,1.89,1.51,1.89,.34,0,.79-.13,1.12-.25l.32,1.22c-.56,.18-1.21,.36-1.8,.36-2.09,0-2.79-1.3-2.79-3.26Z"/>
        <path class="cls-1" d="M537.48,126.53c0-3.26,2.14-5.15,4.54-5.15s4.54,1.89,4.54,5.15-2.14,5.11-4.54,5.11-4.54-1.87-4.54-5.11Zm7.38,0c0-2.25-1.15-3.78-2.84-3.78s-2.83,1.53-2.83,3.78,1.13,3.75,2.83,3.75,2.84-1.49,2.84-3.75Z"/>
        <path class="cls-1" d="M550.93,121.63h1.35l.14,1.78h.05c.68-1.24,1.67-2.04,2.77-2.04,.43,0,.74,.05,1.04,.22l-.31,1.44c-.32-.13-.56-.16-.95-.16-.81,0-1.82,.58-2.47,2.25v6.28h-1.64v-9.78Z"/>
        <path class="cls-1" d="M558.4,125.74h4.61v1.26h-4.61v-1.26Z"/>
        <path class="cls-1" d="M566.66,124.82c0-4.27,2.56-6.86,6.05-6.86,1.84,0,3.04,.83,3.8,1.64l-.9,1.08c-.67-.7-1.51-1.26-2.86-1.26-2.65,0-4.38,2.05-4.38,5.35s1.57,5.42,4.39,5.42c.95,0,1.87-.29,2.4-.77v-3.46h-2.79v-1.39h4.32v5.55c-.85,.88-2.3,1.53-4.09,1.53-3.48,0-5.94-2.54-5.94-6.82Z"/>
        <path class="cls-1" d="M580.74,126.53c0-3.17,2.14-5.15,4.41-5.15,2.48,0,3.89,1.8,3.89,4.59,0,.36-.04,.7-.07,.94h-6.59c.11,2.09,1.39,3.42,3.24,3.42,.95,0,1.73-.29,2.45-.77l.59,1.08c-.86,.56-1.91,1.01-3.24,1.01-2.59,0-4.68-1.89-4.68-5.11Zm6.86-.79c0-1.98-.9-3.04-2.43-3.04-1.39,0-2.61,1.12-2.81,3.04h5.24Z"/>
        <path class="cls-1" d="M593.25,121.63h1.35l.14,1.41h.05c.94-.92,1.94-1.66,3.28-1.66,2.05,0,2.99,1.33,2.99,3.83v6.19h-1.64v-5.98c0-1.84-.56-2.61-1.85-2.61-1.01,0-1.69,.5-2.68,1.5v7.09h-1.64v-9.78Z"/>
        <path class="cls-1" d="M605.31,126.53c0-3.17,2.14-5.15,4.41-5.15,2.48,0,3.89,1.8,3.89,4.59,0,.36-.04,.7-.07,.94h-6.59c.11,2.09,1.39,3.42,3.24,3.42,.95,0,1.73-.29,2.45-.77l.59,1.08c-.86,.56-1.91,1.01-3.24,1.01-2.59,0-4.68-1.89-4.68-5.11Zm6.86-.79c0-1.98-.9-3.04-2.43-3.04-1.39,0-2.61,1.12-2.81,3.04h5.24Z"/>
        <path class="cls-1" d="M617.82,121.63h1.35l.14,1.78h.05c.68-1.24,1.67-2.04,2.77-2.04,.43,0,.74,.05,1.04,.22l-.31,1.44c-.32-.13-.56-.16-.95-.16-.81,0-1.82,.58-2.47,2.25v6.28h-1.64v-9.78Z"/>
        <path class="cls-1" d="M625.5,128.87c0-2.12,1.85-3.19,6.01-3.66,0-1.26-.41-2.47-2.02-2.47-1.13,0-2.16,.52-2.94,1.04l-.65-1.13c.9-.58,2.29-1.28,3.85-1.28,2.38,0,3.39,1.6,3.39,4.02v6.01h-1.35l-.14-1.17h-.05c-.94,.77-2.03,1.4-3.24,1.4-1.64,0-2.86-1.01-2.86-2.77Zm6.01,.16v-2.74c-3.29,.4-4.41,1.21-4.41,2.47,0,1.12,.76,1.57,1.73,1.57s1.73-.45,2.68-1.3Z"/>
        <path class="cls-1" d="M638.07,129.47v-12.39h1.64v12.5c0,.5,.22,.7,.47,.7,.09,0,.16,0,.34-.04l.23,1.26c-.23,.09-.52,.14-.95,.14-1.22,0-1.73-.79-1.73-2.18Z"/>
      </g>
    </g>
    <rect class="cls-2" x="238.13" y="25.71" width="194.18" height="32" rx="5" ry="5"/>
    <g>
      <path class="cls-1" d="M254.57,34.41h3.31c4.05,0,6.23,2.36,6.23,6.55s-2.18,6.64-6.16,6.64h-3.39v-13.2Zm3.17,11.83c3.12,0,4.65-1.95,4.65-5.28s-1.53-5.2-4.65-5.2h-1.49v10.48h1.49Z"/>
      <path class="cls-1" d="M268.29,34.75c0-.67,.49-1.06,1.13-1.06s1.13,.4,1.13,1.06c0,.61-.49,1.06-1.13,1.06s-1.13-.45-1.13-1.06Zm.31,3.08h1.64v9.78h-1.64v-9.78Z"/>
      <path class="cls-1" d="M275.34,37.83h1.35l.14,1.78h.05c.68-1.24,1.67-2.04,2.77-2.04,.43,0,.74,.05,1.04,.22l-.31,1.44c-.32-.13-.56-.16-.95-.16-.81,0-1.82,.58-2.47,2.25v6.28h-1.64v-9.78Z"/>
      <path class="cls-1" d="M283.19,42.73c0-3.17,2.14-5.15,4.41-5.15,2.48,0,3.89,1.8,3.89,4.59,0,.36-.04,.7-.07,.94h-6.59c.11,2.09,1.39,3.42,3.24,3.42,.95,0,1.73-.29,2.45-.77l.59,1.08c-.86,.56-1.91,1.01-3.24,1.01-2.59,0-4.68-1.89-4.68-5.11Zm6.86-.79c0-1.98-.9-3.04-2.43-3.04-1.39,0-2.61,1.12-2.81,3.04h5.24Z"/>
      <path class="cls-1" d="M294.96,42.73c0-3.26,2.21-5.15,4.72-5.15,1.28,0,2.16,.54,2.86,1.15l-.85,1.1c-.58-.52-1.17-.88-1.96-.88-1.76,0-3.06,1.53-3.06,3.78s1.22,3.75,3.02,3.75c.9,0,1.69-.41,2.3-.97l.7,1.1c-.86,.79-1.98,1.24-3.15,1.24-2.59,0-4.59-1.87-4.59-5.11Z"/>
      <path class="cls-1" d="M306.75,44.58v-5.42h-1.46v-1.24l1.53-.09,.2-2.74h1.37v2.74h2.65v1.33h-2.65v5.46c0,1.21,.38,1.89,1.51,1.89,.34,0,.79-.13,1.12-.25l.32,1.22c-.56,.18-1.21,.36-1.8,.36-2.09,0-2.79-1.3-2.79-3.26Z"/>
      <path class="cls-1" d="M314.04,42.73c0-3.26,2.14-5.15,4.54-5.15s4.54,1.89,4.54,5.15-2.14,5.11-4.54,5.11-4.54-1.87-4.54-5.11Zm7.38,0c0-2.25-1.15-3.78-2.84-3.78s-2.83,1.53-2.83,3.78,1.13,3.75,2.83,3.75,2.84-1.49,2.84-3.75Z"/>
      <path class="cls-1" d="M327.49,37.83h1.35l.14,1.78h.05c.68-1.24,1.67-2.04,2.77-2.04,.43,0,.74,.05,1.04,.22l-.31,1.44c-.32-.13-.56-.16-.95-.16-.81,0-1.82,.58-2.47,2.25v6.28h-1.64v-9.78Z"/>
      <path class="cls-1" d="M334.96,41.94h4.61v1.26h-4.61v-1.26Z"/>
      <path class="cls-1" d="M343.22,41.02c0-4.27,2.56-6.86,6.05-6.86,1.84,0,3.04,.83,3.8,1.64l-.9,1.08c-.67-.7-1.51-1.26-2.86-1.26-2.65,0-4.38,2.05-4.38,5.35s1.57,5.42,4.39,5.42c.95,0,1.87-.29,2.4-.77v-3.46h-2.79v-1.39h4.32v5.55c-.85,.88-2.3,1.53-4.09,1.53-3.48,0-5.94-2.54-5.94-6.82Z"/>
      <path class="cls-1" d="M357.3,42.73c0-3.17,2.14-5.15,4.41-5.15,2.48,0,3.89,1.8,3.89,4.59,0,.36-.04,.7-.07,.94h-6.59c.11,2.09,1.39,3.42,3.24,3.42,.95,0,1.73-.29,2.45-.77l.59,1.08c-.86,.56-1.91,1.01-3.24,1.01-2.59,0-4.68-1.89-4.68-5.11Zm6.86-.79c0-1.98-.9-3.04-2.43-3.04-1.39,0-2.61,1.12-2.81,3.04h5.24Z"/>
      <path class="cls-1" d="M369.81,37.83h1.35l.14,1.41h.05c.94-.92,1.94-1.66,3.28-1.66,2.05,0,2.99,1.33,2.99,3.83v6.19h-1.64v-5.98c0-1.84-.56-2.61-1.85-2.61-1.01,0-1.69,.5-2.68,1.5v7.09h-1.64v-9.78Z"/>
      <path class="cls-1" d="M381.87,42.73c0-3.17,2.14-5.15,4.41-5.15,2.48,0,3.89,1.8,3.89,4.59,0,.36-.04,.7-.07,.94h-6.59c.11,2.09,1.39,3.42,3.24,3.42,.95,0,1.73-.29,2.45-.77l.59,1.08c-.86,.56-1.91,1.01-3.24,1.01-2.59,0-4.68-1.89-4.68-5.11Zm6.86-.79c0-1.98-.9-3.04-2.43-3.04-1.39,0-2.61,1.12-2.81,3.04h5.24Z"/>
      <path class="cls-1" d="M394.38,37.83h1.35l.14,1.78h.05c.68-1.24,1.67-2.04,2.77-2.04,.43,0,.74,.05,1.04,.22l-.31,1.44c-.32-.13-.56-.16-.95-.16-.81,0-1.82,.58-2.47,2.25v6.28h-1.64v-9.78Z"/>
      <path class="cls-1" d="M402.06,45.07c0-2.12,1.85-3.19,6.01-3.66,0-1.26-.41-2.47-2.02-2.47-1.13,0-2.16,.52-2.94,1.04l-.65-1.13c.9-.58,2.29-1.28,3.85-1.28,2.38,0,3.39,1.6,3.39,4.02v6.01h-1.35l-.14-1.17h-.05c-.94,.77-2.03,1.4-3.24,1.4-1.64,0-2.86-1.01-2.86-2.77Zm6.01,.16v-2.74c-3.29,.4-4.41,1.21-4.41,2.47,0,1.12,.76,1.57,1.73,1.57s1.73-.45,2.68-1.3Z"/>
      <path class="cls-1" d="M414.63,45.66v-12.39h1.64v12.5c0,.5,.22,.7,.47,.7,.09,0,.16,0,.34-.04l.23,1.26c-.23,.09-.52,.14-.95,.14-1.22,0-1.73-.79-1.73-2.18Z"/>
    </g>
  </g>
  <g>
    <g>
      <g>
        <rect class="cls-3" x="322.17" y="53.62" width="31.66" height="370" rx="5" ry="5" transform="translate(576.62 -99.38) rotate(90)"/>
        <g>
          <path class="cls-1" d="M247.86,231.52h1.67v13.2h-1.67v-13.2Z"/>
          <path class="cls-1" d="M252.99,234.94h1.35l.14,1.42h.05c.85-.94,1.87-1.67,3.04-1.67,1.49,0,2.3,.72,2.7,1.87,1.01-1.1,2.04-1.87,3.22-1.87,2.02,0,2.97,1.33,2.97,3.83v6.19h-1.64v-5.98c0-1.84-.58-2.61-1.82-2.61-.76,0-1.55,.49-2.47,1.49v7.09h-1.64v-5.98c0-1.84-.58-2.61-1.82-2.61-.74,0-1.57,.49-2.47,1.49v7.09h-1.64v-9.78Z"/>
          <path class="cls-1" d="M269.66,234.94h1.35l.14,1.12h.05c.88-.72,1.98-1.37,3.12-1.37,2.52,0,3.89,1.98,3.89,4.99,0,3.35-2,5.28-4.25,5.28-.88,0-1.82-.41-2.7-1.13l.04,1.71v3.31h-1.64v-13.9Zm6.84,4.75c0-2.16-.72-3.62-2.57-3.62-.83,0-1.67,.47-2.63,1.35v5.13c.88,.76,1.75,1.03,2.39,1.03,1.62,0,2.81-1.46,2.81-3.89Z"/>
          <path class="cls-1" d="M280.82,242.77v-12.39h1.64v12.5c0,.5,.22,.7,.47,.7,.09,0,.16,0,.34-.04l.23,1.26c-.23,.09-.52,.14-.95,.14-1.22,0-1.73-.79-1.73-2.18Z"/>
          <path class="cls-1" d="M285.21,239.83c0-3.17,2.14-5.15,4.41-5.15,2.48,0,3.89,1.8,3.89,4.59,0,.36-.04,.7-.07,.94h-6.59c.11,2.09,1.39,3.42,3.24,3.42,.95,0,1.73-.29,2.45-.77l.59,1.08c-.86,.56-1.91,1.01-3.24,1.01-2.59,0-4.68-1.89-4.68-5.11Zm6.86-.79c0-1.98-.9-3.04-2.43-3.04-1.39,0-2.61,1.12-2.81,3.04h5.24Z"/>
          <path class="cls-1" d="M295.92,234.94h1.35l.14,1.42h.05c.85-.94,1.87-1.67,3.04-1.67,1.49,0,2.3,.72,2.7,1.87,1.01-1.1,2.04-1.87,3.22-1.87,2.02,0,2.97,1.33,2.97,3.83v6.19h-1.64v-5.98c0-1.84-.58-2.61-1.82-2.61-.76,0-1.55,.49-2.47,1.49v7.09h-1.64v-5.98c0-1.84-.58-2.61-1.82-2.61-.74,0-1.57,.49-2.47,1.49v7.09h-1.64v-9.78Z"/>
          <path class="cls-1" d="M311.85,239.83c0-3.17,2.14-5.15,4.41-5.15,2.49,0,3.89,1.8,3.89,4.59,0,.36-.04,.7-.07,.94h-6.59c.11,2.09,1.39,3.42,3.24,3.42,.95,0,1.73-.29,2.45-.77l.59,1.08c-.86,.56-1.91,1.01-3.24,1.01-2.59,0-4.68-1.89-4.68-5.11Zm6.86-.79c0-1.98-.9-3.04-2.43-3.04-1.39,0-2.61,1.12-2.81,3.04h5.24Z"/>
          <path class="cls-1" d="M322.56,234.94h1.35l.14,1.4h.05c.94-.92,1.94-1.66,3.28-1.66,2.05,0,2.99,1.33,2.99,3.83v6.19h-1.64v-5.98c0-1.84-.56-2.61-1.85-2.61-1.01,0-1.69,.5-2.68,1.49v7.09h-1.64v-9.78Z"/>
          <path class="cls-1" d="M333.85,241.69v-5.42h-1.46v-1.24l1.53-.09,.2-2.74h1.37v2.74h2.65v1.33h-2.65v5.46c0,1.21,.38,1.89,1.51,1.89,.34,0,.79-.13,1.12-.25l.32,1.22c-.56,.18-1.21,.36-1.8,.36-2.09,0-2.79-1.3-2.79-3.26Z"/>
          <path class="cls-1" d="M339.3,242.17c0-2.12,1.85-3.19,6.01-3.66,0-1.26-.41-2.47-2.02-2.47-1.13,0-2.16,.52-2.94,1.04l-.65-1.13c.9-.58,2.29-1.28,3.85-1.28,2.38,0,3.38,1.6,3.38,4.02v6.01h-1.35l-.14-1.17h-.05c-.94,.77-2.04,1.4-3.24,1.4-1.64,0-2.86-1.01-2.86-2.77Zm6.01,.16v-2.74c-3.29,.4-4.41,1.21-4.41,2.47,0,1.12,.76,1.57,1.73,1.57s1.73-.45,2.68-1.3Z"/>
          <path class="cls-1" d="M350.08,241.69v-5.42h-1.46v-1.24l1.53-.09,.2-2.74h1.37v2.74h2.65v1.33h-2.65v5.46c0,1.21,.38,1.89,1.51,1.89,.34,0,.79-.13,1.12-.25l.32,1.22c-.56,.18-1.21,.36-1.8,.36-2.09,0-2.79-1.3-2.79-3.26Z"/>
          <path class="cls-1" d="M356.27,231.86c0-.67,.49-1.06,1.13-1.06s1.13,.4,1.13,1.06c0,.61-.49,1.06-1.13,1.06s-1.13-.45-1.13-1.06Zm.31,3.08h1.64v9.78h-1.64v-9.78Z"/>
          <path class="cls-1" d="M360.79,239.83c0-3.26,2.14-5.15,4.54-5.15s4.54,1.89,4.54,5.15-2.14,5.11-4.54,5.11-4.54-1.87-4.54-5.11Zm7.38,0c0-2.25-1.15-3.78-2.84-3.78s-2.83,1.53-2.83,3.78,1.13,3.75,2.83,3.75,2.84-1.49,2.84-3.75Z"/>
          <path class="cls-1" d="M372.44,234.94h1.35l.14,1.4h.05c.94-.92,1.94-1.66,3.28-1.66,2.05,0,2.99,1.33,2.99,3.83v6.19h-1.64v-5.98c0-1.84-.56-2.61-1.85-2.61-1.01,0-1.69,.5-2.68,1.49v7.09h-1.64v-9.78Z"/>
          <path class="cls-1" d="M387.56,239.26v-7.74h1.67v7.8c0,3.19,1.35,4.18,3.06,4.18s3.15-.99,3.15-4.18v-7.8h1.6v7.74c0,4.25-2.05,5.69-4.75,5.69s-4.74-1.44-4.74-5.69Z"/>
          <path class="cls-1" d="M400.45,234.94h1.35l.14,1.4h.05c.94-.92,1.94-1.66,3.28-1.66,2.05,0,2.99,1.33,2.99,3.83v6.19h-1.64v-5.98c0-1.84-.56-2.61-1.85-2.61-1.01,0-1.69,.5-2.68,1.49v7.09h-1.64v-9.78Z"/>
          <path class="cls-1" d="M411.14,231.86c0-.67,.49-1.06,1.13-1.06s1.13,.4,1.13,1.06c0,.61-.49,1.06-1.13,1.06s-1.13-.45-1.13-1.06Zm.31,3.08h1.64v9.78h-1.64v-9.78Z"/>
          <path class="cls-1" d="M416.68,241.69v-5.42h-1.46v-1.24l1.53-.09,.2-2.74h1.37v2.74h2.65v1.33h-2.65v5.46c0,1.21,.38,1.89,1.51,1.89,.34,0,.79-.13,1.12-.25l.32,1.22c-.56,.18-1.21,.36-1.8,.36-2.09,0-2.79-1.3-2.79-3.26Z"/>
          <path class="cls-1" d="M421.88,243.6l.81-1.08c.85,.68,1.73,1.15,2.9,1.15,1.3,0,1.93-.68,1.93-1.53,0-.99-1.15-1.44-2.23-1.85-1.37-.5-2.92-1.17-2.92-2.83,0-1.55,1.24-2.77,3.37-2.77,1.21,0,2.27,.5,3.04,1.1l-.79,1.06c-.68-.5-1.37-.86-2.25-.86-1.22,0-1.78,.65-1.78,1.4,0,.94,1.06,1.28,2.16,1.69,1.42,.54,2.99,1.12,2.99,2.97,0,1.58-1.26,2.9-3.57,2.9-1.39,0-2.72-.58-3.65-1.35Z"/>
        </g>
      </g>
      <g>
        <path class="cls-6" d="M172.42,265.32l10.64,6.75v.07l-10.64,6.75h-.03v-13.56h.03Z"/>
        <path d="M193.27,265.03h3.76c2.97,0,4.95,.99,4.95,3.87s-1.98,4.09-4.86,4.09h-2.18v5.24h-1.67v-13.2Zm3.64,6.61c2.32,0,3.42-.85,3.42-2.74s-1.17-2.52-3.49-2.52h-1.89v5.26h1.96Z"/>
        <path d="M203.27,273.35c0-3.26,2.14-5.15,4.54-5.15s4.54,1.89,4.54,5.15-2.14,5.11-4.54,5.11-4.54-1.87-4.54-5.11Zm7.38,0c0-2.25-1.15-3.78-2.84-3.78s-2.83,1.53-2.83,3.78,1.13,3.75,2.83,3.75,2.84-1.49,2.84-3.75Z"/>
        <path d="M214.92,276.29v-12.39h1.64v12.5c0,.5,.22,.7,.47,.7,.09,0,.16,0,.34-.04l.23,1.26c-.23,.09-.52,.14-.95,.14-1.22,0-1.73-.79-1.73-2.18Z"/>
        <path d="M219.74,265.38c0-.67,.49-1.06,1.13-1.06s1.13,.4,1.13,1.06c0,.61-.49,1.06-1.13,1.06s-1.13-.45-1.13-1.06Zm.31,3.08h1.64v9.78h-1.64v-9.78Z"/>
        <path d="M224.26,273.35c0-3.26,2.21-5.15,4.72-5.15,1.28,0,2.16,.54,2.86,1.15l-.85,1.1c-.58-.52-1.17-.88-1.96-.88-1.76,0-3.06,1.53-3.06,3.78s1.22,3.75,3.02,3.75c.9,0,1.69-.41,2.3-.97l.7,1.1c-.86,.79-1.98,1.24-3.15,1.24-2.59,0-4.59-1.87-4.59-5.11Z"/>
        <path d="M233.3,282.25l.32-1.31c.2,.07,.49,.16,.74,.16,1.12,0,1.82-.9,2.21-2.11l.22-.74-3.92-9.79h1.71l2,5.44c.29,.85,.63,1.85,.94,2.74h.09c.27-.88,.56-1.87,.83-2.74l1.75-5.44h1.6l-3.69,10.59c-.68,1.93-1.69,3.4-3.64,3.4-.47,0-.85-.07-1.15-.2Z"/>
        <path d="M247.84,265.03h3.76c2.97,0,4.95,.99,4.95,3.87s-1.98,4.09-4.86,4.09h-2.18v5.24h-1.67v-13.2Zm3.64,6.61c2.32,0,3.42-.85,3.42-2.74s-1.17-2.52-3.49-2.52h-1.89v5.26h1.96Z"/>
        <path d="M259.07,276.29v-12.39h1.64v12.5c0,.5,.22,.7,.47,.7,.09,0,.16,0,.34-.04l.23,1.26c-.23,.09-.52,.14-.95,.14-1.22,0-1.73-.79-1.73-2.18Z"/>
        <path d="M263.59,275.69c0-2.12,1.85-3.19,6.01-3.66,0-1.26-.41-2.47-2.02-2.47-1.13,0-2.16,.52-2.94,1.04l-.65-1.13c.9-.58,2.29-1.28,3.85-1.28,2.38,0,3.38,1.6,3.38,4.02v6.01h-1.35l-.14-1.17h-.05c-.94,.77-2.04,1.4-3.24,1.4-1.64,0-2.86-1.01-2.86-2.77Zm6.01,.16v-2.74c-3.29,.4-4.41,1.21-4.41,2.47,0,1.12,.76,1.57,1.73,1.57s1.73-.45,2.68-1.3Z"/>
        <path d="M274.36,268.46h1.35l.14,1.4h.05c.94-.92,1.94-1.66,3.28-1.66,2.05,0,2.99,1.33,2.99,3.83v6.19h-1.64v-5.98c0-1.84-.56-2.61-1.85-2.61-1.01,0-1.69,.5-2.68,1.49v7.09h-1.64v-9.78Z"/>
        <path d="M285.35,268.46h1.35l.14,1.4h.05c.94-.92,1.94-1.66,3.28-1.66,2.05,0,2.99,1.33,2.99,3.83v6.19h-1.64v-5.98c0-1.84-.56-2.61-1.85-2.61-1.01,0-1.69,.5-2.68,1.49v7.09h-1.64v-9.78Z"/>
        <path d="M296.05,265.38c0-.67,.49-1.06,1.13-1.06s1.13,.4,1.13,1.06c0,.61-.49,1.06-1.13,1.06s-1.13-.45-1.13-1.06Zm.31,3.08h1.64v9.78h-1.64v-9.78Z"/>
        <path d="M301.3,268.46h1.35l.14,1.4h.05c.94-.92,1.94-1.66,3.28-1.66,2.05,0,2.99,1.33,2.99,3.83v6.19h-1.64v-5.98c0-1.84-.56-2.61-1.85-2.61-1.01,0-1.69,.5-2.68,1.49v7.09h-1.64v-9.78Z"/>
        <path d="M311.54,280.1c0-.83,.54-1.62,1.46-2.21v-.07c-.52-.31-.9-.83-.9-1.6s.59-1.46,1.1-1.82v-.07c-.65-.52-1.28-1.46-1.28-2.63,0-2.14,1.69-3.49,3.67-3.49,.54,0,1.03,.13,1.37,.25h3.4v1.26h-2c.47,.45,.79,1.17,.79,2.02,0,2.09-1.58,3.4-3.57,3.4-.49,0-1.03-.13-1.46-.34-.36,.31-.63,.63-.63,1.17,0,.63,.4,1.06,1.71,1.06h1.91c2.27,0,3.4,.72,3.4,2.32,0,1.82-1.91,3.39-4.93,3.39-2.39,0-4.05-.94-4.05-2.63Zm7.4-.5c0-.9-.7-1.21-2-1.21h-1.69c-.36,0-.83-.05-1.26-.16-.7,.5-1.01,1.08-1.01,1.66,0,1.04,1.06,1.73,2.84,1.73,1.87,0,3.12-.99,3.12-2.02Zm-1.28-7.9c0-1.42-.92-2.29-2.07-2.29s-2.09,.85-2.09,2.29,.95,2.32,2.09,2.32,2.07-.9,2.07-2.32Z"/>
        <path d="M326.61,265.03h3.31c4.05,0,6.23,2.36,6.23,6.55s-2.18,6.64-6.16,6.64h-3.38v-13.2Zm3.17,11.83c3.11,0,4.65-1.94,4.65-5.28s-1.53-5.2-4.65-5.2h-1.5v10.48h1.5Z"/>
        <path d="M338.53,265.38c0-.67,.49-1.06,1.13-1.06s1.13,.4,1.13,1.06c0,.61-.49,1.06-1.13,1.06s-1.13-.45-1.13-1.06Zm.31,3.08h1.64v9.78h-1.64v-9.78Z"/>
        <path d="M342.36,268.46h1.71l1.84,5.56c.31,.95,.61,1.96,.92,2.88h.07c.29-.92,.61-1.93,.9-2.88l1.85-5.56h1.62l-3.47,9.78h-1.91l-3.53-9.78Z"/>
        <path d="M352.86,265.38c0-.67,.49-1.06,1.13-1.06s1.13,.4,1.13,1.06c0,.61-.49,1.06-1.13,1.06s-1.13-.45-1.13-1.06Zm.31,3.08h1.64v9.78h-1.64v-9.78Z"/>
        <path d="M357.01,277.12l.81-1.08c.85,.68,1.73,1.15,2.9,1.15,1.3,0,1.93-.68,1.93-1.53,0-.99-1.15-1.44-2.23-1.85-1.37-.5-2.92-1.17-2.92-2.83,0-1.55,1.24-2.77,3.37-2.77,1.21,0,2.27,.5,3.04,1.1l-.79,1.06c-.68-.5-1.37-.86-2.25-.86-1.22,0-1.78,.65-1.78,1.4,0,.94,1.06,1.28,2.16,1.69,1.42,.54,2.99,1.12,2.99,2.97,0,1.58-1.26,2.9-3.57,2.9-1.39,0-2.72-.58-3.65-1.35Z"/>
        <path d="M366.23,265.38c0-.67,.49-1.06,1.13-1.06s1.13,.4,1.13,1.06c0,.61-.49,1.06-1.13,1.06s-1.13-.45-1.13-1.06Zm.31,3.08h1.64v9.78h-1.64v-9.78Z"/>
        <path d="M370.75,273.35c0-3.26,2.14-5.15,4.54-5.15s4.54,1.89,4.54,5.15-2.14,5.11-4.54,5.11-4.54-1.87-4.54-5.11Zm7.38,0c0-2.25-1.15-3.78-2.84-3.78s-2.83,1.53-2.83,3.78,1.13,3.75,2.83,3.75,2.84-1.49,2.84-3.75Z"/>
        <path d="M382.39,268.46h1.35l.14,1.4h.05c.94-.92,1.94-1.66,3.28-1.66,2.05,0,2.99,1.33,2.99,3.83v6.19h-1.64v-5.98c0-1.84-.56-2.61-1.85-2.61-1.01,0-1.69,.5-2.68,1.49v7.09h-1.64v-9.78Z"/>
        <path class="cls-6" d="M172.42,295.32l10.64,6.75v.07l-10.64,6.75h-.03v-13.56h.03Z"/>
        <path d="M192.51,301.64c0-4.27,2.5-6.86,5.85-6.86,1.6,0,2.86,.79,3.62,1.64l-.9,1.08c-.68-.74-1.57-1.26-2.7-1.26-2.5,0-4.16,2.05-4.16,5.35s1.58,5.42,4.11,5.42c1.26,0,2.21-.56,3.06-1.48l.92,1.04c-1.04,1.21-2.34,1.89-4.05,1.89-3.28,0-5.74-2.54-5.74-6.82Z"/>
        <path d="M203.87,303.35c0-3.26,2.14-5.15,4.54-5.15s4.54,1.89,4.54,5.15-2.14,5.11-4.54,5.11-4.54-1.87-4.54-5.11Zm7.38,0c0-2.25-1.15-3.78-2.84-3.78s-2.83,1.53-2.83,3.78,1.13,3.75,2.83,3.75,2.84-1.49,2.84-3.75Z"/>
        <path d="M215.51,298.46h1.35l.14,1.42h.05c.85-.94,1.87-1.67,3.04-1.67,1.49,0,2.3,.72,2.7,1.87,1.01-1.1,2.04-1.87,3.22-1.87,2.02,0,2.97,1.33,2.97,3.83v6.19h-1.64v-5.98c0-1.84-.58-2.61-1.82-2.61-.76,0-1.55,.49-2.47,1.49v7.09h-1.64v-5.98c0-1.84-.58-2.61-1.82-2.61-.74,0-1.57,.49-2.47,1.49v7.09h-1.64v-9.78Z"/>
        <path d="M232.18,298.46h1.35l.14,1.42h.05c.85-.94,1.87-1.67,3.04-1.67,1.49,0,2.3,.72,2.7,1.87,1.01-1.1,2.04-1.87,3.22-1.87,2.02,0,2.97,1.33,2.97,3.83v6.19h-1.64v-5.98c0-1.84-.58-2.61-1.82-2.61-.76,0-1.55,.49-2.47,1.49v7.09h-1.64v-5.98c0-1.84-.58-2.61-1.82-2.61-.74,0-1.57,.49-2.47,1.49v7.09h-1.64v-9.78Z"/>
        <path d="M248.72,304.65v-6.19h1.64v6c0,1.82,.54,2.59,1.84,2.59,1.01,0,1.71-.49,2.65-1.66v-6.93h1.64v9.78h-1.37l-.13-1.53h-.05c-.92,1.06-1.89,1.76-3.24,1.76-2.05,0-2.97-1.33-2.97-3.82Z"/>
        <path d="M259.78,298.46h1.35l.14,1.4h.05c.94-.92,1.94-1.66,3.28-1.66,2.05,0,2.99,1.33,2.99,3.83v6.19h-1.64v-5.98c0-1.84-.56-2.61-1.85-2.61-1.01,0-1.69,.5-2.68,1.49v7.09h-1.64v-9.78Z"/>
        <path d="M270.47,295.38c0-.67,.49-1.06,1.13-1.06s1.13,.4,1.13,1.06c0,.61-.49,1.06-1.13,1.06s-1.13-.45-1.13-1.06Zm.31,3.08h1.64v9.78h-1.64v-9.78Z"/>
        <path d="M274.99,303.35c0-3.26,2.21-5.15,4.72-5.15,1.28,0,2.16,.54,2.86,1.15l-.85,1.1c-.58-.52-1.17-.88-1.96-.88-1.76,0-3.06,1.53-3.06,3.78s1.22,3.75,3.02,3.75c.9,0,1.69-.41,2.3-.97l.7,1.1c-.86,.79-1.98,1.24-3.15,1.24-2.59,0-4.59-1.87-4.59-5.11Z"/>
        <path d="M284.08,305.69c0-2.12,1.85-3.19,6.01-3.66,0-1.26-.42-2.47-2.02-2.47-1.13,0-2.16,.52-2.93,1.04l-.65-1.13c.9-.58,2.29-1.28,3.85-1.28,2.38,0,3.38,1.6,3.38,4.02v6.01h-1.35l-.14-1.17h-.05c-.94,.77-2.04,1.4-3.24,1.4-1.64,0-2.86-1.01-2.86-2.77Zm6.01,.16v-2.74c-3.3,.4-4.41,1.21-4.41,2.47,0,1.12,.76,1.57,1.73,1.57s1.73-.45,2.68-1.3Z"/>
        <path d="M294.86,305.21v-5.42h-1.46v-1.24l1.53-.09,.2-2.74h1.37v2.74h2.65v1.33h-2.65v5.46c0,1.21,.38,1.89,1.51,1.89,.34,0,.79-.13,1.12-.25l.32,1.22c-.56,.18-1.21,.36-1.8,.36-2.09,0-2.79-1.3-2.79-3.26Z"/>
        <path d="M301.05,295.38c0-.67,.49-1.06,1.13-1.06s1.13,.4,1.13,1.06c0,.61-.49,1.06-1.13,1.06s-1.13-.45-1.13-1.06Zm.31,3.08h1.64v9.78h-1.64v-9.78Z"/>
        <path d="M305.57,303.35c0-3.26,2.14-5.15,4.54-5.15s4.54,1.89,4.54,5.15-2.14,5.11-4.54,5.11-4.54-1.87-4.54-5.11Zm7.38,0c0-2.25-1.15-3.78-2.84-3.78s-2.83,1.53-2.83,3.78,1.13,3.75,2.83,3.75,2.84-1.49,2.84-3.75Z"/>
        <path d="M317.21,298.46h1.35l.14,1.4h.05c.94-.92,1.94-1.66,3.28-1.66,2.05,0,2.99,1.33,2.99,3.83v6.19h-1.64v-5.98c0-1.84-.56-2.61-1.85-2.61-1.01,0-1.69,.5-2.68,1.49v7.09h-1.64v-9.78Z"/>
        <path d="M327.12,307.12l.81-1.08c.85,.68,1.73,1.15,2.9,1.15,1.3,0,1.93-.68,1.93-1.53,0-.99-1.15-1.44-2.23-1.85-1.37-.5-2.92-1.17-2.92-2.83,0-1.55,1.24-2.77,3.37-2.77,1.21,0,2.27,.5,3.04,1.1l-.79,1.06c-.68-.5-1.37-.86-2.25-.86-1.22,0-1.78,.65-1.78,1.4,0,.94,1.06,1.28,2.16,1.69,1.42,.54,2.99,1.12,2.99,2.97,0,1.58-1.26,2.9-3.57,2.9-1.39,0-2.72-.58-3.65-1.35Z"/>
        <path d="M340.81,295.03h3.31c4.05,0,6.23,2.36,6.23,6.55s-2.18,6.64-6.16,6.64h-3.38v-13.2Zm3.17,11.83c3.11,0,4.65-1.94,4.65-5.28s-1.53-5.2-4.65-5.2h-1.5v10.48h1.5Z"/>
        <path d="M352.73,295.38c0-.67,.49-1.06,1.13-1.06s1.13,.4,1.13,1.06c0,.61-.49,1.06-1.13,1.06s-1.13-.45-1.13-1.06Zm.31,3.08h1.64v9.78h-1.64v-9.78Z"/>
        <path d="M356.56,298.46h1.71l1.84,5.56c.31,.95,.61,1.96,.92,2.88h.07c.29-.92,.61-1.93,.9-2.88l1.85-5.56h1.62l-3.47,9.78h-1.91l-3.53-9.78Z"/>
        <path d="M367.06,295.38c0-.67,.49-1.06,1.13-1.06s1.13,.4,1.13,1.06c0,.61-.49,1.06-1.13,1.06s-1.13-.45-1.13-1.06Zm.31,3.08h1.64v9.78h-1.64v-9.78Z"/>
        <path d="M371.22,307.12l.81-1.08c.85,.68,1.73,1.15,2.9,1.15,1.3,0,1.93-.68,1.93-1.53,0-.99-1.15-1.44-2.23-1.85-1.37-.5-2.92-1.17-2.92-2.83,0-1.55,1.24-2.77,3.37-2.77,1.21,0,2.27,.5,3.04,1.1l-.79,1.06c-.68-.5-1.37-.86-2.25-.86-1.22,0-1.78,.65-1.78,1.4,0,.94,1.06,1.28,2.16,1.69,1.42,.54,2.99,1.12,2.99,2.97,0,1.58-1.26,2.9-3.57,2.9-1.39,0-2.72-.58-3.65-1.35Z"/>
        <path d="M380.43,295.38c0-.67,.49-1.06,1.13-1.06s1.13,.4,1.13,1.06c0,.61-.49,1.06-1.13,1.06s-1.13-.45-1.13-1.06Zm.31,3.08h1.64v9.78h-1.64v-9.78Z"/>
        <path d="M384.95,303.35c0-3.26,2.14-5.15,4.54-5.15s4.54,1.89,4.54,5.15-2.14,5.11-4.54,5.11-4.54-1.87-4.54-5.11Zm7.38,0c0-2.25-1.15-3.78-2.84-3.78s-2.83,1.53-2.83,3.78,1.13,3.75,2.83,3.75,2.84-1.49,2.84-3.75Z"/>
        <path d="M396.6,298.46h1.35l.14,1.4h.05c.94-.92,1.94-1.66,3.28-1.66,2.05,0,2.99,1.33,2.99,3.83v6.19h-1.64v-5.98c0-1.84-.56-2.61-1.85-2.61-1.01,0-1.69,.5-2.68,1.49v7.09h-1.64v-9.78Z"/>
        <path class="cls-6" d="M172.42,325.32l10.64,6.75v.07l-10.64,6.75h-.03v-13.56h.03Z"/>
        <path d="M193.27,325.03h3.76c2.97,0,4.95,.99,4.95,3.87s-1.98,4.09-4.86,4.09h-2.18v5.24h-1.67v-13.2Zm3.64,6.61c2.32,0,3.42-.85,3.42-2.74s-1.17-2.52-3.49-2.52h-1.89v5.26h1.96Z"/>
        <path d="M204.5,336.29v-12.39h1.64v12.5c0,.5,.22,.7,.47,.7,.09,0,.16,0,.34-.04l.23,1.26c-.23,.09-.52,.14-.95,.14-1.22,0-1.73-.79-1.73-2.18Z"/>
        <path d="M209.02,335.69c0-2.12,1.85-3.19,6.01-3.66,0-1.26-.41-2.47-2.02-2.47-1.13,0-2.16,.52-2.94,1.04l-.65-1.13c.9-.58,2.29-1.28,3.85-1.28,2.38,0,3.38,1.6,3.38,4.02v6.01h-1.35l-.14-1.17h-.05c-.94,.77-2.04,1.4-3.24,1.4-1.64,0-2.86-1.01-2.86-2.77Zm6.01,.16v-2.74c-3.29,.4-4.41,1.21-4.41,2.47,0,1.12,.76,1.57,1.73,1.57s1.73-.45,2.68-1.3Z"/>
        <path d="M219.8,335.21v-5.42h-1.46v-1.24l1.53-.09,.2-2.74h1.37v2.74h2.65v1.33h-2.65v5.46c0,1.21,.38,1.89,1.51,1.89,.34,0,.79-.13,1.12-.25l.32,1.22c-.56,.18-1.21,.36-1.8,.36-2.09,0-2.79-1.3-2.79-3.26Z"/>
        <path d="M230.69,325.23c-.36-.16-.76-.25-1.1-.25-.94,0-1.39,.67-1.39,1.93v1.55h2.07v1.33h-2.07v8.44h-1.64v-8.44h-1.33v-1.24l1.33-.09v-1.57c0-1.98,.9-3.22,2.84-3.22,.59,0,1.17,.13,1.64,.32l-.36,1.24Z"/>
        <path d="M231.21,333.35c0-3.26,2.14-5.15,4.54-5.15s4.54,1.89,4.54,5.15-2.14,5.11-4.54,5.11-4.54-1.87-4.54-5.11Zm7.38,0c0-2.25-1.15-3.78-2.84-3.78s-2.83,1.53-2.83,3.78,1.13,3.75,2.83,3.75,2.84-1.49,2.84-3.75Z"/>
        <path d="M242.86,328.46h1.35l.14,1.78h.05c.68-1.24,1.67-2.03,2.77-2.03,.43,0,.74,.05,1.04,.22l-.31,1.44c-.32-.13-.56-.16-.95-.16-.81,0-1.82,.58-2.47,2.25v6.28h-1.64v-9.78Z"/>
        <path d="M249.84,328.46h1.35l.14,1.42h.05c.85-.94,1.87-1.67,3.04-1.67,1.49,0,2.3,.72,2.7,1.87,1.01-1.1,2.04-1.87,3.22-1.87,2.02,0,2.97,1.33,2.97,3.83v6.19h-1.64v-5.98c0-1.84-.58-2.61-1.82-2.61-.76,0-1.55,.49-2.47,1.49v7.09h-1.64v-5.98c0-1.84-.58-2.61-1.82-2.61-.74,0-1.57,.49-2.47,1.49v7.09h-1.64v-9.78Z"/>
        <path d="M270.68,325.03h7.62v1.4h-5.94v4.14h5.01v1.42h-5.01v4.81h6.14v1.42h-7.81v-13.2Z"/>
        <path d="M280.19,333.35c0-3.26,2.21-5.15,4.72-5.15,1.28,0,2.16,.54,2.86,1.15l-.85,1.1c-.58-.52-1.17-.88-1.96-.88-1.76,0-3.06,1.53-3.06,3.78s1.22,3.75,3.02,3.75c.9,0,1.69-.41,2.3-.97l.7,1.1c-.86,.79-1.98,1.24-3.15,1.24-2.59,0-4.59-1.87-4.59-5.11Z"/>
        <path d="M288.92,333.35c0-3.26,2.14-5.15,4.54-5.15s4.54,1.89,4.54,5.15-2.14,5.11-4.54,5.11-4.54-1.87-4.54-5.11Zm7.38,0c0-2.25-1.15-3.78-2.84-3.78s-2.83,1.53-2.83,3.78,1.13,3.75,2.83,3.75,2.84-1.49,2.84-3.75Z"/>
        <path d="M300.56,328.46h1.35l.14,1.4h.05c.94-.92,1.94-1.66,3.28-1.66,2.05,0,2.99,1.33,2.99,3.83v6.19h-1.64v-5.98c0-1.84-.56-2.61-1.85-2.61-1.01,0-1.69,.5-2.68,1.49v7.09h-1.64v-9.78Z"/>
        <path d="M310.82,333.35c0-3.26,2.14-5.15,4.54-5.15s4.54,1.89,4.54,5.15-2.14,5.11-4.54,5.11-4.54-1.87-4.54-5.11Zm7.38,0c0-2.25-1.15-3.78-2.84-3.78s-2.83,1.53-2.83,3.78,1.13,3.75,2.83,3.75,2.84-1.49,2.84-3.75Z"/>
        <path d="M322.47,328.46h1.35l.14,1.42h.05c.85-.94,1.87-1.67,3.04-1.67,1.49,0,2.3,.72,2.7,1.87,1.01-1.1,2.04-1.87,3.22-1.87,2.02,0,2.97,1.33,2.97,3.83v6.19h-1.64v-5.98c0-1.84-.58-2.61-1.82-2.61-.76,0-1.55,.49-2.47,1.49v7.09h-1.64v-5.98c0-1.84-.58-2.61-1.82-2.61-.74,0-1.57,.49-2.47,1.49v7.09h-1.64v-9.78Z"/>
        <path d="M338.15,342.25l.32-1.31c.2,.07,.49,.16,.74,.16,1.12,0,1.82-.9,2.21-2.11l.22-.74-3.92-9.79h1.71l2,5.44c.29,.85,.63,1.85,.94,2.74h.09c.27-.88,.56-1.87,.83-2.74l1.75-5.44h1.6l-3.69,10.59c-.68,1.93-1.69,3.4-3.64,3.4-.47,0-.85-.07-1.15-.2Z"/>
        <path d="M352.69,325.03h3.31c4.05,0,6.23,2.36,6.23,6.55s-2.18,6.64-6.16,6.64h-3.38v-13.2Zm3.17,11.83c3.11,0,4.65-1.94,4.65-5.28s-1.53-5.2-4.65-5.2h-1.5v10.48h1.5Z"/>
        <path d="M364.61,325.38c0-.67,.49-1.06,1.13-1.06s1.13,.4,1.13,1.06c0,.61-.49,1.06-1.13,1.06s-1.13-.45-1.13-1.06Zm.31,3.08h1.64v9.78h-1.64v-9.78Z"/>
        <path d="M368.44,328.46h1.71l1.84,5.56c.31,.95,.61,1.96,.92,2.88h.07c.29-.92,.61-1.93,.9-2.88l1.85-5.56h1.62l-3.47,9.78h-1.91l-3.53-9.78Z"/>
        <path d="M378.94,325.38c0-.67,.49-1.06,1.13-1.06s1.13,.4,1.13,1.06c0,.61-.49,1.06-1.13,1.06s-1.13-.45-1.13-1.06Zm.31,3.08h1.64v9.78h-1.64v-9.78Z"/>
        <path d="M383.1,337.12l.81-1.08c.85,.68,1.73,1.15,2.9,1.15,1.3,0,1.93-.68,1.93-1.53,0-.99-1.15-1.44-2.23-1.85-1.37-.5-2.92-1.17-2.92-2.83,0-1.55,1.24-2.77,3.37-2.77,1.21,0,2.27,.5,3.04,1.1l-.79,1.06c-.68-.5-1.37-.86-2.25-.86-1.22,0-1.78,.65-1.78,1.4,0,.94,1.06,1.28,2.16,1.69,1.42,.54,2.99,1.12,2.99,2.97,0,1.58-1.26,2.9-3.57,2.9-1.39,0-2.72-.58-3.65-1.35Z"/>
        <path d="M392.31,325.38c0-.67,.49-1.06,1.13-1.06s1.13,.4,1.13,1.06c0,.61-.49,1.06-1.13,1.06s-1.13-.45-1.13-1.06Zm.31,3.08h1.64v9.78h-1.64v-9.78Z"/>
        <path d="M396.83,333.35c0-3.26,2.14-5.15,4.54-5.15s4.54,1.89,4.54,5.15-2.14,5.11-4.54,5.11-4.54-1.87-4.54-5.11Zm7.38,0c0-2.25-1.15-3.78-2.84-3.78s-2.83,1.53-2.83,3.78,1.13,3.75,2.83,3.75,2.84-1.49,2.84-3.75Z"/>
        <path d="M408.48,328.46h1.35l.14,1.4h.05c.94-.92,1.94-1.66,3.28-1.66,2.05,0,2.99,1.33,2.99,3.83v6.19h-1.64v-5.98c0-1.84-.56-2.61-1.85-2.61-1.01,0-1.69,.5-2.68,1.49v7.09h-1.64v-9.78Z"/>
        <path class="cls-6" d="M172.42,355.32l10.64,6.75v.07l-10.64,6.75h-.03v-13.56h.03Z"/>
        <path d="M193.27,355.03h7.62v1.4h-5.94v4.14h5.01v1.42h-5.01v4.81h6.14v1.42h-7.81v-13.2Z"/>
        <path d="M203.71,358.46h1.35l.14,1.42h.05c.85-.94,1.87-1.67,3.04-1.67,1.49,0,2.3,.72,2.7,1.87,1.01-1.1,2.04-1.87,3.22-1.87,2.02,0,2.97,1.33,2.97,3.83v6.19h-1.64v-5.98c0-1.84-.58-2.61-1.82-2.61-.76,0-1.55,.49-2.47,1.49v7.09h-1.64v-5.98c0-1.84-.58-2.61-1.82-2.61-.74,0-1.57,.49-2.47,1.49v7.09h-1.64v-9.78Z"/>
        <path d="M219.64,363.35c0-3.17,2.14-5.15,4.41-5.15,2.49,0,3.89,1.8,3.89,4.59,0,.36-.04,.7-.07,.94h-6.59c.11,2.09,1.39,3.42,3.24,3.42,.95,0,1.73-.29,2.45-.77l.59,1.08c-.86,.56-1.91,1.01-3.24,1.01-2.59,0-4.68-1.89-4.68-5.11Zm6.86-.79c0-1.98-.9-3.04-2.43-3.04-1.39,0-2.61,1.12-2.81,3.04h5.24Z"/>
        <path d="M230.35,358.46h1.35l.14,1.78h.05c.68-1.24,1.67-2.03,2.77-2.03,.43,0,.74,.05,1.04,.22l-.31,1.44c-.32-.13-.56-.16-.95-.16-.81,0-1.82,.58-2.47,2.25v6.28h-1.64v-9.78Z"/>
        <path d="M236.38,370.1c0-.83,.54-1.62,1.46-2.21v-.07c-.52-.31-.9-.83-.9-1.6s.59-1.46,1.1-1.82v-.07c-.65-.52-1.28-1.46-1.28-2.63,0-2.14,1.69-3.49,3.67-3.49,.54,0,1.03,.13,1.37,.25h3.4v1.26h-2c.47,.45,.79,1.17,.79,2.02,0,2.09-1.58,3.4-3.57,3.4-.49,0-1.03-.13-1.46-.34-.36,.31-.63,.63-.63,1.17,0,.63,.4,1.06,1.71,1.06h1.91c2.27,0,3.4,.72,3.4,2.32,0,1.82-1.91,3.39-4.93,3.39-2.39,0-4.05-.94-4.05-2.63Zm7.4-.5c0-.9-.7-1.21-2-1.21h-1.69c-.36,0-.83-.05-1.26-.16-.7,.5-1.01,1.08-1.01,1.66,0,1.04,1.06,1.73,2.84,1.73,1.87,0,3.12-.99,3.12-2.02Zm-1.28-7.9c0-1.42-.92-2.29-2.07-2.29s-2.09,.85-2.09,2.29,.95,2.32,2.09,2.32,2.07-.9,2.07-2.32Z"/>
        <path d="M246.96,355.38c0-.67,.49-1.06,1.13-1.06s1.13,.4,1.13,1.06c0,.61-.49,1.06-1.13,1.06s-1.13-.45-1.13-1.06Zm.31,3.08h1.64v9.78h-1.64v-9.78Z"/>
        <path d="M252.21,358.46h1.35l.14,1.4h.05c.94-.92,1.94-1.66,3.28-1.66,2.05,0,2.99,1.33,2.99,3.83v6.19h-1.64v-5.98c0-1.84-.56-2.61-1.85-2.61-1.01,0-1.69,.5-2.68,1.49v7.09h-1.64v-9.78Z"/>
        <path d="M262.46,370.1c0-.83,.54-1.62,1.46-2.21v-.07c-.52-.31-.9-.83-.9-1.6s.59-1.46,1.1-1.82v-.07c-.65-.52-1.28-1.46-1.28-2.63,0-2.14,1.69-3.49,3.67-3.49,.54,0,1.03,.13,1.37,.25h3.4v1.26h-2c.47,.45,.79,1.17,.79,2.02,0,2.09-1.58,3.4-3.57,3.4-.49,0-1.03-.13-1.46-.34-.36,.31-.63,.63-.63,1.17,0,.63,.4,1.06,1.71,1.06h1.91c2.27,0,3.4,.72,3.4,2.32,0,1.82-1.91,3.39-4.93,3.39-2.39,0-4.05-.94-4.05-2.63Zm7.4-.5c0-.9-.7-1.21-2-1.21h-1.69c-.36,0-.83-.05-1.26-.16-.7,.5-1.01,1.08-1.01,1.66,0,1.04,1.06,1.73,2.84,1.73,1.87,0,3.12-.99,3.12-2.02Zm-1.28-7.9c0-1.42-.92-2.29-2.07-2.29s-2.09,.85-2.09,2.29,.95,2.32,2.09,2.32,2.07-.9,2.07-2.32Z"/>
        <path d="M276.77,365.69c0-2.12,1.85-3.19,6.01-3.66,0-1.26-.42-2.47-2.02-2.47-1.13,0-2.16,.52-2.93,1.04l-.65-1.13c.9-.58,2.29-1.28,3.85-1.28,2.38,0,3.38,1.6,3.38,4.02v6.01h-1.35l-.14-1.17h-.05c-.94,.77-2.04,1.4-3.24,1.4-1.64,0-2.86-1.01-2.86-2.77Zm6.01,.16v-2.74c-3.3,.4-4.41,1.21-4.41,2.47,0,1.12,.76,1.57,1.73,1.57s1.73-.45,2.68-1.3Z"/>
        <path d="M287.53,358.46h1.35l.14,1.4h.05c.94-.92,1.94-1.66,3.28-1.66,2.05,0,2.99,1.33,2.99,3.83v6.19h-1.64v-5.98c0-1.84-.56-2.61-1.85-2.61-1.01,0-1.69,.5-2.68,1.49v7.09h-1.64v-9.78Z"/>
        <path d="M297.83,363.35c0-3.17,2-5.15,4.23-5.15,1.15,0,1.89,.43,2.75,1.15l-.09-1.69v-3.76h1.64v14.33h-1.33l-.16-1.15h-.04c-.77,.76-1.8,1.39-2.97,1.39-2.45,0-4.03-1.85-4.03-5.11Zm6.9,2.39v-5.13c-.83-.74-1.57-1.03-2.38-1.03-1.58,0-2.83,1.51-2.83,3.75,0,2.36,.97,3.76,2.7,3.76,.9,0,1.69-.45,2.5-1.35Z"/>
        <path d="M313.11,361.64c0-4.27,2.5-6.86,5.85-6.86,1.6,0,2.86,.79,3.62,1.64l-.9,1.08c-.68-.74-1.57-1.26-2.7-1.26-2.5,0-4.16,2.05-4.16,5.35s1.58,5.42,4.11,5.42c1.26,0,2.21-.56,3.06-1.48l.92,1.04c-1.04,1.21-2.34,1.89-4.05,1.89-3.28,0-5.74-2.54-5.74-6.82Z"/>
        <path d="M325.21,358.46h1.35l.14,1.78h.05c.68-1.24,1.67-2.03,2.77-2.03,.43,0,.74,.05,1.04,.22l-.31,1.44c-.32-.13-.56-.16-.95-.16-.81,0-1.82,.58-2.47,2.25v6.28h-1.64v-9.78Z"/>
        <path d="M331.25,363.35c0-3.26,2.14-5.15,4.54-5.15s4.54,1.89,4.54,5.15-2.14,5.11-4.54,5.11-4.54-1.87-4.54-5.11Zm7.38,0c0-2.25-1.15-3.78-2.84-3.78s-2.83,1.53-2.83,3.78,1.13,3.75,2.83,3.75,2.84-1.49,2.84-3.75Z"/>
        <path d="M341.8,367.12l.81-1.08c.85,.68,1.73,1.15,2.9,1.15,1.3,0,1.93-.68,1.93-1.53,0-.99-1.15-1.44-2.23-1.85-1.37-.5-2.92-1.17-2.92-2.83,0-1.55,1.24-2.77,3.37-2.77,1.21,0,2.27,.5,3.04,1.1l-.79,1.06c-.68-.5-1.37-.86-2.25-.86-1.22,0-1.78,.65-1.78,1.4,0,.94,1.06,1.28,2.16,1.69,1.42,.54,2.99,1.12,2.99,2.97,0,1.58-1.26,2.9-3.57,2.9-1.39,0-2.72-.58-3.65-1.35Z"/>
        <path d="M350.23,367.12l.81-1.08c.85,.68,1.73,1.15,2.9,1.15,1.3,0,1.93-.68,1.93-1.53,0-.99-1.15-1.44-2.23-1.85-1.37-.5-2.92-1.17-2.92-2.83,0-1.55,1.24-2.77,3.37-2.77,1.21,0,2.27,.5,3.04,1.1l-.79,1.06c-.68-.5-1.37-.86-2.25-.86-1.22,0-1.78,.65-1.78,1.4,0,.94,1.06,1.28,2.16,1.69,1.42,.54,2.99,1.12,2.99,2.97,0,1.58-1.26,2.9-3.57,2.9-1.39,0-2.72-.58-3.65-1.35Z"/>
        <path d="M359.12,362.56h4.61v1.26h-4.61v-1.26Z"/>
        <path d="M366.34,355.03h3.31c4.05,0,6.23,2.36,6.23,6.55s-2.18,6.64-6.16,6.64h-3.38v-13.2Zm3.17,11.83c3.11,0,4.65-1.94,4.65-5.28s-1.53-5.2-4.65-5.2h-1.5v10.48h1.5Z"/>
        <path d="M377.82,363.35c0-3.26,2.14-5.15,4.54-5.15s4.54,1.89,4.54,5.15-2.14,5.11-4.54,5.11-4.54-1.87-4.54-5.11Zm7.38,0c0-2.25-1.15-3.78-2.84-3.78s-2.83,1.53-2.83,3.78,1.13,3.75,2.83,3.75,2.84-1.49,2.84-3.75Z"/>
        <path d="M389.46,358.46h1.35l.14,1.42h.05c.85-.94,1.87-1.67,3.04-1.67,1.49,0,2.3,.72,2.7,1.87,1.01-1.1,2.04-1.87,3.22-1.87,2.02,0,2.97,1.33,2.97,3.83v6.19h-1.64v-5.98c0-1.84-.58-2.61-1.82-2.61-.76,0-1.55,.49-2.47,1.49v7.09h-1.64v-5.98c0-1.84-.58-2.61-1.82-2.61-.74,0-1.57,.49-2.47,1.49v7.09h-1.64v-9.78Z"/>
        <path d="M405.52,365.69c0-2.12,1.85-3.19,6.01-3.66,0-1.26-.42-2.47-2.02-2.47-1.13,0-2.16,.52-2.93,1.04l-.65-1.13c.9-.58,2.29-1.28,3.85-1.28,2.38,0,3.38,1.6,3.38,4.02v6.01h-1.35l-.14-1.17h-.05c-.94,.77-2.04,1.4-3.24,1.4-1.64,0-2.86-1.01-2.86-2.77Zm6.01,.16v-2.74c-3.3,.4-4.41,1.21-4.41,2.47,0,1.12,.76,1.57,1.73,1.57s1.73-.45,2.68-1.3Z"/>
        <path d="M415.98,355.38c0-.67,.49-1.06,1.13-1.06s1.13,.4,1.13,1.06c0,.61-.49,1.06-1.13,1.06s-1.13-.45-1.13-1.06Zm.31,3.08h1.64v9.78h-1.64v-9.78Z"/>
        <path d="M421.24,358.46h1.35l.14,1.4h.05c.94-.92,1.94-1.66,3.28-1.66,2.05,0,2.99,1.33,2.99,3.83v6.19h-1.64v-5.98c0-1.84-.56-2.61-1.85-2.61-1.01,0-1.69,.5-2.68,1.49v7.09h-1.64v-9.78Z"/>
        <path d="M436.41,355.03h3.31c4.05,0,6.23,2.36,6.23,6.55s-2.18,6.64-6.16,6.64h-3.38v-13.2Zm3.17,11.83c3.11,0,4.65-1.94,4.65-5.28s-1.53-5.2-4.65-5.2h-1.5v10.48h1.5Z"/>
        <path d="M448.33,355.38c0-.67,.49-1.06,1.13-1.06s1.13,.4,1.13,1.06c0,.61-.49,1.06-1.13,1.06s-1.13-.45-1.13-1.06Zm.31,3.08h1.64v9.78h-1.64v-9.78Z"/>
        <path d="M452.16,358.46h1.71l1.84,5.56c.31,.95,.61,1.96,.92,2.88h.07c.29-.92,.61-1.93,.9-2.88l1.85-5.56h1.62l-3.47,9.78h-1.91l-3.53-9.78Z"/>
        <path d="M462.66,355.38c0-.67,.49-1.06,1.13-1.06s1.13,.4,1.13,1.06c0,.61-.49,1.06-1.13,1.06s-1.13-.45-1.13-1.06Zm.31,3.08h1.64v9.78h-1.64v-9.78Z"/>
        <path d="M466.81,367.12l.81-1.08c.85,.68,1.73,1.15,2.9,1.15,1.3,0,1.93-.68,1.93-1.53,0-.99-1.15-1.44-2.23-1.85-1.37-.5-2.92-1.17-2.92-2.83,0-1.55,1.24-2.77,3.37-2.77,1.21,0,2.27,.5,3.04,1.1l-.79,1.06c-.68-.5-1.37-.86-2.25-.86-1.22,0-1.78,.65-1.78,1.4,0,.94,1.06,1.28,2.16,1.69,1.42,.54,2.99,1.12,2.99,2.97,0,1.58-1.26,2.9-3.57,2.9-1.39,0-2.72-.58-3.65-1.35Z"/>
        <path d="M476.03,355.38c0-.67,.49-1.06,1.13-1.06s1.13,.4,1.13,1.06c0,.61-.49,1.06-1.13,1.06s-1.13-.45-1.13-1.06Zm.31,3.08h1.64v9.78h-1.64v-9.78Z"/>
        <path d="M480.55,363.35c0-3.26,2.14-5.15,4.54-5.15s4.54,1.89,4.54,5.15-2.14,5.11-4.54,5.11-4.54-1.87-4.54-5.11Zm7.38,0c0-2.25-1.15-3.78-2.84-3.78s-2.83,1.53-2.83,3.78,1.13,3.75,2.83,3.75,2.84-1.49,2.84-3.75Z"/>
        <path d="M492.19,358.46h1.35l.14,1.4h.05c.94-.92,1.94-1.66,3.28-1.66,2.05,0,2.99,1.33,2.99,3.83v6.19h-1.64v-5.98c0-1.84-.56-2.61-1.85-2.61-1.01,0-1.69,.5-2.68,1.49v7.09h-1.64v-9.78Z"/>
        <path class="cls-6" d="M172.42,385.32l10.64,6.75v.07l-10.64,6.75h-.03v-13.56h.03Z"/>
        <path d="M193.27,385.03h3.31c4.05,0,6.23,2.36,6.23,6.55s-2.18,6.64-6.16,6.64h-3.38v-13.2Zm3.17,11.83c3.11,0,4.65-1.94,4.65-5.28s-1.53-5.2-4.65-5.2h-1.5v10.48h1.5Z"/>
        <path d="M205.18,385.38c0-.67,.49-1.06,1.13-1.06s1.13,.4,1.13,1.06c0,.61-.49,1.06-1.13,1.06s-1.13-.45-1.13-1.06Zm.31,3.08h1.64v9.78h-1.64v-9.78Z"/>
        <path d="M209.68,400.1c0-.83,.54-1.62,1.46-2.21v-.07c-.52-.31-.9-.83-.9-1.6s.59-1.46,1.1-1.82v-.07c-.65-.52-1.28-1.46-1.28-2.63,0-2.14,1.69-3.49,3.67-3.49,.54,0,1.03,.13,1.37,.25h3.4v1.26h-2c.47,.45,.79,1.17,.79,2.02,0,2.09-1.58,3.4-3.57,3.4-.49,0-1.03-.13-1.46-.34-.36,.31-.63,.63-.63,1.17,0,.63,.4,1.06,1.71,1.06h1.91c2.27,0,3.4,.72,3.4,2.32,0,1.82-1.91,3.39-4.93,3.39-2.39,0-4.05-.94-4.05-2.63Zm7.4-.5c0-.9-.7-1.21-2-1.21h-1.69c-.36,0-.83-.05-1.26-.16-.7,.5-1.01,1.08-1.01,1.66,0,1.04,1.06,1.73,2.84,1.73,1.87,0,3.12-.99,3.12-2.02Zm-1.28-7.9c0-1.42-.92-2.29-2.07-2.29s-2.09,.85-2.09,2.29,.95,2.32,2.09,2.32,2.07-.9,2.07-2.32Z"/>
        <path d="M220.27,385.38c0-.67,.49-1.06,1.13-1.06s1.13,.4,1.13,1.06c0,.61-.49,1.06-1.13,1.06s-1.13-.45-1.13-1.06Zm.31,3.08h1.64v9.78h-1.64v-9.78Z"/>
        <path d="M225.81,395.21v-5.42h-1.46v-1.24l1.53-.09,.2-2.74h1.37v2.74h2.65v1.33h-2.65v5.46c0,1.21,.38,1.89,1.51,1.89,.34,0,.79-.13,1.12-.25l.32,1.22c-.56,.18-1.21,.36-1.8,.36-2.09,0-2.79-1.3-2.79-3.26Z"/>
        <path d="M231.26,395.69c0-2.12,1.85-3.19,6.01-3.66,0-1.26-.42-2.47-2.02-2.47-1.13,0-2.16,.52-2.93,1.04l-.65-1.13c.9-.58,2.29-1.28,3.85-1.28,2.38,0,3.38,1.6,3.38,4.02v6.01h-1.35l-.14-1.17h-.05c-.94,.77-2.04,1.4-3.24,1.4-1.64,0-2.86-1.01-2.86-2.77Zm6.01,.16v-2.74c-3.3,.4-4.41,1.21-4.41,2.47,0,1.12,.76,1.57,1.73,1.57s1.73-.45,2.68-1.3Z"/>
        <path d="M242.03,396.29v-12.39h1.64v12.5c0,.5,.22,.7,.47,.7,.09,0,.16,0,.34-.04l.23,1.26c-.23,.09-.52,.14-.95,.14-1.22,0-1.73-.79-1.73-2.18Z"/>
        <path d="M250.38,396.5l.99-1.13c.95,.99,2.29,1.64,3.65,1.64,1.73,0,2.77-.86,2.77-2.16s-.95-1.78-2.2-2.34l-1.91-.83c-1.22-.52-2.68-1.46-2.68-3.39,0-2.03,1.76-3.51,4.16-3.51,1.57,0,2.95,.67,3.89,1.64l-.88,1.06c-.81-.76-1.78-1.24-3.01-1.24-1.49,0-2.47,.76-2.47,1.94,0,1.28,1.15,1.76,2.18,2.2l1.89,.81c1.53,.67,2.72,1.57,2.72,3.53,0,2.09-1.73,3.75-4.48,3.75-1.87,0-3.47-.76-4.63-1.96Z"/>
        <path d="M261.2,393.35c0-3.17,2.14-5.15,4.41-5.15,2.48,0,3.89,1.8,3.89,4.59,0,.36-.04,.7-.07,.94h-6.59c.11,2.09,1.39,3.42,3.24,3.42,.95,0,1.73-.29,2.45-.77l.59,1.08c-.86,.56-1.91,1.01-3.24,1.01-2.59,0-4.68-1.89-4.68-5.11Zm6.86-.79c0-1.98-.9-3.04-2.43-3.04-1.39,0-2.61,1.12-2.81,3.04h5.24Z"/>
        <path d="M271.91,388.46h1.35l.14,1.78h.05c.68-1.24,1.67-2.03,2.77-2.03,.43,0,.74,.05,1.04,.22l-.31,1.44c-.32-.13-.56-.16-.95-.16-.81,0-1.82,.58-2.47,2.25v6.28h-1.64v-9.78Z"/>
        <path d="M277.99,388.46h1.71l1.84,5.56c.31,.95,.61,1.96,.92,2.88h.07c.29-.92,.61-1.93,.9-2.88l1.85-5.56h1.62l-3.47,9.78h-1.91l-3.53-9.78Z"/>
        <path d="M288.49,385.38c0-.67,.49-1.06,1.13-1.06s1.13,.4,1.13,1.06c0,.61-.49,1.06-1.13,1.06s-1.13-.45-1.13-1.06Zm.31,3.08h1.64v9.78h-1.64v-9.78Z"/>
        <path d="M293,393.35c0-3.26,2.21-5.15,4.72-5.15,1.28,0,2.16,.54,2.86,1.15l-.85,1.1c-.58-.52-1.17-.88-1.96-.88-1.76,0-3.06,1.53-3.06,3.78s1.22,3.75,3.02,3.75c.9,0,1.69-.41,2.3-.97l.7,1.1c-.86,.79-1.98,1.24-3.15,1.24-2.59,0-4.59-1.87-4.59-5.11Z"/>
        <path d="M301.73,393.35c0-3.17,2.14-5.15,4.41-5.15,2.48,0,3.89,1.8,3.89,4.59,0,.36-.04,.7-.07,.94h-6.59c.11,2.09,1.39,3.42,3.24,3.42,.95,0,1.73-.29,2.45-.77l.59,1.08c-.86,.56-1.91,1.01-3.24,1.01-2.59,0-4.68-1.89-4.68-5.11Zm6.86-.79c0-1.98-.9-3.04-2.43-3.04-1.39,0-2.61,1.12-2.81,3.04h5.24Z"/>
        <path d="M316.62,385.03h3.31c4.05,0,6.23,2.36,6.23,6.55s-2.18,6.64-6.16,6.64h-3.38v-13.2Zm3.17,11.83c3.11,0,4.65-1.94,4.65-5.28s-1.53-5.2-4.65-5.2h-1.5v10.48h1.5Z"/>
        <path d="M328.54,385.38c0-.67,.49-1.06,1.13-1.06s1.13,.4,1.13,1.06c0,.61-.49,1.06-1.13,1.06s-1.13-.45-1.13-1.06Zm.31,3.08h1.64v9.78h-1.64v-9.78Z"/>
        <path d="M332.37,388.46h1.71l1.84,5.56c.31,.95,.61,1.96,.92,2.88h.07c.29-.92,.61-1.93,.9-2.88l1.85-5.56h1.62l-3.47,9.78h-1.91l-3.53-9.78Z"/>
        <path d="M342.87,385.38c0-.67,.49-1.06,1.13-1.06s1.13,.4,1.13,1.06c0,.61-.49,1.06-1.13,1.06s-1.13-.45-1.13-1.06Zm.31,3.08h1.64v9.78h-1.64v-9.78Z"/>
        <path d="M347.02,397.12l.81-1.08c.85,.68,1.73,1.15,2.9,1.15,1.3,0,1.93-.68,1.93-1.53,0-.99-1.15-1.44-2.23-1.85-1.37-.5-2.92-1.17-2.92-2.83,0-1.55,1.24-2.77,3.37-2.77,1.21,0,2.27,.5,3.04,1.1l-.79,1.06c-.68-.5-1.37-.86-2.25-.86-1.22,0-1.78,.65-1.78,1.4,0,.94,1.06,1.28,2.16,1.69,1.42,.54,2.99,1.12,2.99,2.97,0,1.58-1.26,2.9-3.57,2.9-1.39,0-2.72-.58-3.65-1.35Z"/>
        <path d="M356.24,385.38c0-.67,.49-1.06,1.13-1.06s1.13,.4,1.13,1.06c0,.61-.49,1.06-1.13,1.06s-1.13-.45-1.13-1.06Zm.31,3.08h1.64v9.78h-1.64v-9.78Z"/>
        <path d="M360.76,393.35c0-3.26,2.14-5.15,4.54-5.15s4.54,1.89,4.54,5.15-2.14,5.11-4.54,5.11-4.54-1.87-4.54-5.11Zm7.38,0c0-2.25-1.15-3.78-2.84-3.78s-2.83,1.53-2.83,3.78,1.13,3.75,2.83,3.75,2.84-1.49,2.84-3.75Z"/>
        <path d="M372.4,388.46h1.35l.14,1.4h.05c.94-.92,1.94-1.66,3.28-1.66,2.05,0,2.99,1.33,2.99,3.83v6.19h-1.64v-5.98c0-1.84-.56-2.61-1.85-2.61-1.01,0-1.69,.5-2.68,1.49v7.09h-1.64v-9.78Z"/>
      </g>
    </g>
    <g>
      <g>
        <path class="cls-6" d="M171.94,461.84l10.64,6.75v.07l-10.64,6.75h-.03v-13.56h.03Z"/>
        <path d="M191.83,473.02l.99-1.13c.95,.99,2.29,1.64,3.65,1.64,1.73,0,2.77-.86,2.77-2.16s-.95-1.78-2.2-2.34l-1.91-.83c-1.22-.52-2.68-1.46-2.68-3.39,0-2.03,1.76-3.51,4.16-3.51,1.57,0,2.95,.67,3.89,1.64l-.88,1.06c-.81-.76-1.78-1.24-3.01-1.24-1.49,0-2.47,.76-2.47,1.94,0,1.28,1.15,1.76,2.18,2.2l1.89,.81c1.53,.67,2.72,1.57,2.72,3.53,0,2.09-1.73,3.75-4.48,3.75-1.87,0-3.47-.76-4.63-1.96Z"/>
        <path d="M202.65,469.87c0-3.17,2.14-5.15,4.41-5.15,2.49,0,3.89,1.8,3.89,4.59,0,.36-.04,.7-.07,.94h-6.59c.11,2.09,1.39,3.42,3.24,3.42,.95,0,1.73-.29,2.45-.77l.59,1.08c-.86,.56-1.91,1.01-3.24,1.01-2.59,0-4.68-1.89-4.68-5.11Zm6.86-.79c0-1.98-.9-3.04-2.43-3.04-1.39,0-2.61,1.12-2.81,3.04h5.24Z"/>
        <path d="M212.62,469.87c0-3.26,2.21-5.15,4.72-5.15,1.28,0,2.16,.54,2.86,1.15l-.85,1.1c-.58-.52-1.17-.88-1.96-.88-1.76,0-3.06,1.53-3.06,3.78s1.22,3.75,3.02,3.75c.9,0,1.69-.41,2.3-.97l.7,1.1c-.86,.79-1.98,1.24-3.15,1.24-2.59,0-4.59-1.87-4.59-5.11Z"/>
        <path d="M222.52,464.98h1.35l.14,1.78h.05c.68-1.24,1.67-2.03,2.77-2.03,.43,0,.74,.05,1.04,.22l-.31,1.44c-.32-.13-.56-.16-.95-.16-.81,0-1.82,.58-2.47,2.25v6.28h-1.64v-9.78Z"/>
        <path d="M228.57,469.87c0-3.17,2.14-5.15,4.41-5.15,2.48,0,3.89,1.8,3.89,4.59,0,.36-.04,.7-.07,.94h-6.59c.11,2.09,1.39,3.42,3.24,3.42,.95,0,1.73-.29,2.45-.77l.59,1.08c-.86,.56-1.91,1.01-3.24,1.01-2.59,0-4.68-1.89-4.68-5.11Zm6.86-.79c0-1.98-.9-3.04-2.43-3.04-1.39,0-2.61,1.12-2.81,3.04h5.24Z"/>
        <path d="M239.37,471.73v-5.42h-1.46v-1.24l1.53-.09,.2-2.74h1.37v2.74h2.65v1.33h-2.65v5.46c0,1.21,.38,1.89,1.51,1.89,.34,0,.79-.13,1.12-.25l.32,1.22c-.56,.18-1.21,.36-1.8,.36-2.09,0-2.79-1.3-2.79-3.26Z"/>
        <path d="M244.82,472.21c0-2.12,1.85-3.19,6.01-3.66,0-1.26-.42-2.47-2.02-2.47-1.13,0-2.16,.52-2.93,1.04l-.65-1.13c.9-.58,2.29-1.28,3.85-1.28,2.38,0,3.38,1.6,3.38,4.02v6.01h-1.35l-.14-1.17h-.05c-.94,.77-2.04,1.4-3.24,1.4-1.64,0-2.86-1.01-2.86-2.77Zm6.01,.16v-2.74c-3.3,.4-4.41,1.21-4.41,2.47,0,1.12,.76,1.57,1.73,1.57s1.73-.45,2.68-1.3Z"/>
        <path d="M255.59,464.98h1.35l.14,1.78h.05c.68-1.24,1.67-2.03,2.77-2.03,.43,0,.74,.05,1.04,.22l-.31,1.44c-.32-.13-.56-.16-.95-.16-.81,0-1.82,.58-2.47,2.25v6.28h-1.64v-9.78Z"/>
        <path d="M262.26,461.9c0-.67,.49-1.06,1.13-1.06s1.13,.4,1.13,1.06c0,.61-.49,1.06-1.13,1.06s-1.13-.45-1.13-1.06Zm.31,3.08h1.64v9.78h-1.64v-9.78Z"/>
        <path d="M266.91,472.21c0-2.12,1.85-3.19,6.01-3.66,0-1.26-.41-2.47-2.02-2.47-1.13,0-2.16,.52-2.94,1.04l-.65-1.13c.9-.58,2.29-1.28,3.85-1.28,2.38,0,3.38,1.6,3.38,4.02v6.01h-1.35l-.14-1.17h-.05c-.94,.77-2.04,1.4-3.24,1.4-1.64,0-2.86-1.01-2.86-2.77Zm6.01,.16v-2.74c-3.29,.4-4.41,1.21-4.41,2.47,0,1.12,.76,1.57,1.73,1.57s1.73-.45,2.68-1.3Z"/>
        <path d="M277.69,471.73v-5.42h-1.46v-1.24l1.53-.09,.2-2.74h1.37v2.74h2.65v1.33h-2.65v5.46c0,1.21,.38,1.89,1.51,1.89,.34,0,.79-.13,1.12-.25l.32,1.22c-.56,.18-1.21,.36-1.8,.36-2.09,0-2.79-1.3-2.79-3.26Z"/>
        <path class="cls-6" d="M171.94,491.84l10.64,6.75v.07l-10.64,6.75h-.03v-13.56h.03Z"/>
        <path d="M192.78,491.56h3.76c2.97,0,4.95,.99,4.95,3.87s-1.98,4.09-4.86,4.09h-2.18v5.24h-1.67v-13.2Zm3.64,6.61c2.32,0,3.42-.85,3.42-2.74s-1.17-2.52-3.49-2.52h-1.89v5.26h1.96Z"/>
        <path d="M202.79,499.87c0-3.17,2.14-5.15,4.41-5.15,2.48,0,3.89,1.8,3.89,4.59,0,.36-.04,.7-.07,.94h-6.59c.11,2.09,1.39,3.42,3.24,3.42,.95,0,1.73-.29,2.45-.77l.59,1.08c-.86,.56-1.91,1.01-3.24,1.01-2.59,0-4.68-1.89-4.68-5.11Zm6.86-.79c0-1.98-.9-3.04-2.43-3.04-1.39,0-2.61,1.12-2.81,3.04h5.24Z"/>
        <path d="M213.5,494.98h1.35l.14,1.78h.05c.68-1.24,1.67-2.03,2.77-2.03,.43,0,.74,.05,1.04,.22l-.31,1.44c-.32-.13-.56-.16-.95-.16-.81,0-1.82,.58-2.47,2.25v6.28h-1.64v-9.78Z"/>
        <path d="M219.32,503.64l.81-1.08c.85,.68,1.73,1.15,2.9,1.15,1.3,0,1.93-.68,1.93-1.53,0-.99-1.15-1.44-2.23-1.85-1.37-.5-2.92-1.17-2.92-2.83,0-1.55,1.24-2.77,3.37-2.77,1.21,0,2.27,.5,3.04,1.1l-.79,1.06c-.68-.5-1.37-.86-2.25-.86-1.22,0-1.78,.65-1.78,1.4,0,.94,1.06,1.28,2.16,1.69,1.42,.54,2.99,1.12,2.99,2.97,0,1.58-1.26,2.9-3.57,2.9-1.39,0-2.72-.58-3.65-1.35Z"/>
        <path d="M228.1,499.87c0-3.26,2.14-5.15,4.54-5.15s4.54,1.89,4.54,5.15-2.14,5.11-4.54,5.11-4.54-1.87-4.54-5.11Zm7.38,0c0-2.25-1.15-3.78-2.84-3.78s-2.83,1.53-2.83,3.78,1.13,3.75,2.83,3.75,2.84-1.49,2.84-3.75Z"/>
        <path d="M239.75,494.98h1.35l.14,1.4h.05c.94-.92,1.94-1.66,3.28-1.66,2.05,0,2.99,1.33,2.99,3.83v6.19h-1.64v-5.98c0-1.84-.56-2.61-1.85-2.61-1.01,0-1.69,.5-2.68,1.49v7.09h-1.64v-9.78Z"/>
        <path d="M250.74,494.98h1.35l.14,1.4h.05c.94-.92,1.94-1.66,3.28-1.66,2.05,0,2.99,1.33,2.99,3.83v6.19h-1.64v-5.98c0-1.84-.56-2.61-1.85-2.61-1.01,0-1.69,.5-2.68,1.49v7.09h-1.64v-9.78Z"/>
        <path d="M261,499.87c0-3.17,2.14-5.15,4.41-5.15,2.48,0,3.89,1.8,3.89,4.59,0,.36-.04,.7-.07,.94h-6.59c.11,2.09,1.39,3.42,3.24,3.42,.95,0,1.73-.29,2.45-.77l.59,1.08c-.86,.56-1.91,1.01-3.24,1.01-2.59,0-4.68-1.89-4.68-5.11Zm6.86-.79c0-1.98-.9-3.04-2.43-3.04-1.39,0-2.61,1.12-2.81,3.04h5.24Z"/>
        <path d="M271.71,502.81v-12.39h1.64v12.5c0,.5,.22,.7,.47,.7,.09,0,.16,0,.34-.04l.23,1.26c-.23,.09-.52,.14-.95,.14-1.22,0-1.73-.79-1.73-2.18Z"/>
        <path d="M280.26,498.11c0-4.23,2.32-6.81,5.64-6.81s5.64,2.58,5.64,6.81-2.32,6.88-5.64,6.88-5.64-2.65-5.64-6.88Zm9.56,0c0-3.31-1.57-5.35-3.93-5.35s-3.92,2.03-3.92,5.35,1.55,5.42,3.92,5.42,3.93-2.12,3.93-5.42Z"/>
        <path d="M300.23,493.41c0-1.98,.9-3.22,2.86-3.22,.58,0,1.17,.13,1.62,.32l-.36,1.24c-.36-.16-.76-.25-1.1-.25-.94,0-1.39,.67-1.39,1.93v1.55h2.07v1.33h-2.07v8.44h-1.64v-8.44h-4.09v8.44h-1.64v-8.44h-1.33v-1.24l1.33-.09v-1.31c0-2.02,1.01-3.28,3.02-3.28,.65,0,1.3,.13,1.8,.34l-.34,1.26c-.43-.2-.83-.29-1.31-.29-.97,0-1.53,.72-1.53,2.02v1.26h4.09v-1.57Zm7.56-1.51c0,.61-.5,1.06-1.15,1.06s-1.13-.45-1.13-1.06c0-.67,.5-1.06,1.13-1.06s1.15,.4,1.15,1.06Zm-1.96,3.08h1.64v9.78h-1.64v-9.78Z"/>
        <path d="M310.02,499.87c0-3.26,2.21-5.15,4.72-5.15,1.28,0,2.16,.54,2.86,1.15l-.85,1.1c-.58-.52-1.17-.88-1.96-.88-1.76,0-3.06,1.53-3.06,3.78s1.22,3.75,3.02,3.75c.9,0,1.69-.41,2.3-.97l.7,1.1c-.86,.79-1.98,1.24-3.15,1.24-2.59,0-4.59-1.87-4.59-5.11Z"/>
        <path d="M318.75,499.87c0-3.17,2.14-5.15,4.41-5.15,2.49,0,3.89,1.8,3.89,4.59,0,.36-.04,.7-.07,.94h-6.59c.11,2.09,1.39,3.42,3.24,3.42,.95,0,1.73-.29,2.45-.77l.59,1.08c-.86,.56-1.91,1.01-3.24,1.01-2.59,0-4.68-1.89-4.68-5.11Zm6.86-.79c0-1.98-.9-3.04-2.43-3.04-1.39,0-2.61,1.12-2.81,3.04h5.24Z"/>
        <path class="cls-6" d="M171.94,521.84l10.64,6.75v.07l-10.64,6.75h-.03v-13.56h.03Z"/>
        <path d="M198.83,530.72h-4.83l-1.28,4.03h-1.69l4.48-13.2h1.85l4.48,13.2h-1.76l-1.26-4.03Zm-.41-1.33l-.63-2.02c-.49-1.49-.9-2.93-1.33-4.47h-.07c-.41,1.55-.85,2.97-1.31,4.47l-.65,2.02h4Z"/>
        <path d="M202.83,529.87c0-3.26,2.21-5.15,4.72-5.15,1.28,0,2.16,.54,2.86,1.15l-.85,1.1c-.58-.52-1.17-.88-1.96-.88-1.76,0-3.06,1.53-3.06,3.78s1.22,3.75,3.02,3.75c.9,0,1.69-.41,2.3-.97l.7,1.1c-.86,.79-1.98,1.24-3.15,1.24-2.59,0-4.59-1.87-4.59-5.11Z"/>
        <path d="M211.56,529.87c0-3.26,2.21-5.15,4.72-5.15,1.28,0,2.16,.54,2.86,1.15l-.85,1.1c-.58-.52-1.17-.88-1.96-.88-1.76,0-3.06,1.53-3.06,3.78s1.22,3.75,3.02,3.75c.9,0,1.69-.41,2.3-.97l.7,1.1c-.86,.79-1.98,1.24-3.15,1.24-2.59,0-4.59-1.87-4.59-5.11Z"/>
        <path d="M220.29,529.87c0-3.26,2.14-5.15,4.54-5.15s4.54,1.89,4.54,5.15-2.14,5.11-4.54,5.11-4.54-1.87-4.54-5.11Zm7.38,0c0-2.25-1.15-3.78-2.84-3.78s-2.83,1.53-2.83,3.78,1.13,3.75,2.83,3.75,2.84-1.49,2.84-3.75Z"/>
        <path d="M231.81,531.17v-6.19h1.64v6c0,1.82,.54,2.59,1.84,2.59,1.01,0,1.71-.49,2.65-1.66v-6.93h1.64v9.78h-1.37l-.13-1.53h-.05c-.92,1.06-1.89,1.76-3.24,1.76-2.05,0-2.97-1.33-2.97-3.82Z"/>
        <path d="M242.86,524.98h1.35l.14,1.4h.05c.94-.92,1.94-1.66,3.28-1.66,2.05,0,2.99,1.33,2.99,3.83v6.19h-1.64v-5.98c0-1.84-.56-2.61-1.85-2.61-1.01,0-1.69,.5-2.68,1.49v7.09h-1.64v-9.78Z"/>
        <path d="M254.15,531.73v-5.42h-1.46v-1.24l1.53-.09,.2-2.74h1.37v2.74h2.65v1.33h-2.65v5.46c0,1.21,.38,1.89,1.51,1.89,.34,0,.79-.13,1.12-.25l.32,1.22c-.56,.18-1.21,.36-1.8,.36-2.09,0-2.79-1.3-2.79-3.26Z"/>
        <path d="M260.34,521.9c0-.67,.49-1.06,1.13-1.06s1.13,.4,1.13,1.06c0,.61-.49,1.06-1.13,1.06s-1.13-.45-1.13-1.06Zm.31,3.08h1.64v9.78h-1.64v-9.78Z"/>
        <path d="M265.59,524.98h1.35l.14,1.4h.05c.94-.92,1.94-1.66,3.28-1.66,2.05,0,2.99,1.33,2.99,3.83v6.19h-1.64v-5.98c0-1.84-.56-2.61-1.85-2.61-1.01,0-1.69,.5-2.68,1.49v7.09h-1.64v-9.78Z"/>
        <path d="M275.84,536.63c0-.83,.54-1.62,1.46-2.21v-.07c-.52-.31-.9-.83-.9-1.6s.59-1.46,1.1-1.82v-.07c-.65-.52-1.28-1.46-1.28-2.63,0-2.14,1.69-3.49,3.67-3.49,.54,0,1.03,.13,1.37,.25h3.4v1.26h-2c.47,.45,.79,1.17,.79,2.02,0,2.09-1.58,3.4-3.57,3.4-.49,0-1.03-.13-1.46-.34-.36,.31-.63,.63-.63,1.17,0,.63,.4,1.06,1.71,1.06h1.91c2.27,0,3.4,.72,3.4,2.32,0,1.82-1.91,3.39-4.93,3.39-2.39,0-4.05-.94-4.05-2.63Zm7.4-.5c0-.9-.7-1.21-2-1.21h-1.69c-.36,0-.83-.05-1.26-.16-.7,.5-1.01,1.08-1.01,1.66,0,1.04,1.06,1.73,2.84,1.73,1.87,0,3.12-.99,3.12-2.02Zm-1.28-7.9c0-1.42-.92-2.29-2.07-2.29s-2.09,.85-2.09,2.29,.95,2.32,2.09,2.32,2.07-.9,2.07-2.32Z"/>
        <path d="M290.14,532.21c0-2.12,1.85-3.19,6.01-3.66,0-1.26-.41-2.47-2.02-2.47-1.13,0-2.16,.52-2.94,1.04l-.65-1.13c.9-.58,2.29-1.28,3.85-1.28,2.38,0,3.38,1.6,3.38,4.02v6.01h-1.35l-.14-1.17h-.05c-.94,.77-2.04,1.4-3.24,1.4-1.64,0-2.86-1.01-2.86-2.77Zm6.01,.16v-2.74c-3.29,.4-4.41,1.21-4.41,2.47,0,1.12,.76,1.57,1.73,1.57s1.73-.45,2.68-1.3Z"/>
        <path d="M300.91,524.98h1.35l.14,1.4h.05c.94-.92,1.94-1.66,3.28-1.66,2.05,0,2.99,1.33,2.99,3.83v6.19h-1.64v-5.98c0-1.84-.56-2.61-1.85-2.61-1.01,0-1.69,.5-2.68,1.49v7.09h-1.64v-9.78Z"/>
        <path d="M311.2,529.87c0-3.17,2-5.15,4.23-5.15,1.15,0,1.89,.43,2.75,1.15l-.09-1.69v-3.76h1.64v14.33h-1.33l-.16-1.15h-.04c-.77,.76-1.8,1.39-2.97,1.39-2.45,0-4.03-1.85-4.03-5.11Zm6.9,2.39v-5.13c-.83-.74-1.57-1.03-2.38-1.03-1.58,0-2.83,1.51-2.83,3.75,0,2.36,.97,3.76,2.7,3.76,.9,0,1.69-.45,2.5-1.35Z"/>
        <path d="M326.29,533.02l.99-1.13c.95,.99,2.29,1.64,3.65,1.64,1.73,0,2.77-.86,2.77-2.16s-.95-1.78-2.2-2.34l-1.91-.83c-1.22-.52-2.68-1.46-2.68-3.39,0-2.03,1.76-3.51,4.16-3.51,1.57,0,2.95,.67,3.89,1.64l-.88,1.06c-.81-.76-1.78-1.24-3.01-1.24-1.49,0-2.47,.76-2.47,1.94,0,1.28,1.15,1.76,2.18,2.2l1.89,.81c1.53,.67,2.72,1.57,2.72,3.53,0,2.09-1.73,3.75-4.48,3.75-1.87,0-3.47-.76-4.63-1.96Z"/>
        <path d="M337.65,531.73v-5.42h-1.46v-1.24l1.53-.09,.2-2.74h1.37v2.74h2.65v1.33h-2.65v5.46c0,1.21,.38,1.89,1.51,1.89,.34,0,.79-.13,1.12-.25l.32,1.22c-.56,.18-1.21,.36-1.8,.36-2.09,0-2.79-1.3-2.79-3.26Z"/>
        <path d="M343.1,532.21c0-2.12,1.85-3.19,6.01-3.66,0-1.26-.42-2.47-2.02-2.47-1.13,0-2.16,.52-2.93,1.04l-.65-1.13c.9-.58,2.29-1.28,3.85-1.28,2.38,0,3.38,1.6,3.38,4.02v6.01h-1.35l-.14-1.17h-.05c-.94,.77-2.04,1.4-3.24,1.4-1.64,0-2.86-1.01-2.86-2.77Zm6.01,.16v-2.74c-3.3,.4-4.41,1.21-4.41,2.47,0,1.12,.76,1.57,1.73,1.57s1.73-.45,2.68-1.3Z"/>
        <path d="M353.88,531.73v-5.42h-1.46v-1.24l1.53-.09,.2-2.74h1.37v2.74h2.65v1.33h-2.65v5.46c0,1.21,.38,1.89,1.51,1.89,.34,0,.79-.13,1.12-.25l.32,1.22c-.56,.18-1.21,.36-1.8,.36-2.09,0-2.79-1.3-2.79-3.26Z"/>
        <path d="M360.08,521.9c0-.67,.49-1.06,1.13-1.06s1.13,.4,1.13,1.06c0,.61-.49,1.06-1.13,1.06s-1.13-.45-1.13-1.06Zm.31,3.08h1.64v9.78h-1.64v-9.78Z"/>
        <path d="M364.23,533.64l.81-1.08c.85,.68,1.73,1.15,2.9,1.15,1.3,0,1.93-.68,1.93-1.53,0-.99-1.15-1.44-2.23-1.85-1.37-.5-2.92-1.17-2.92-2.83,0-1.55,1.24-2.77,3.37-2.77,1.21,0,2.27,.5,3.04,1.1l-.79,1.06c-.68-.5-1.37-.86-2.25-.86-1.22,0-1.78,.65-1.78,1.4,0,.94,1.06,1.28,2.16,1.69,1.42,.54,2.99,1.12,2.99,2.97,0,1.58-1.26,2.9-3.57,2.9-1.39,0-2.72-.58-3.65-1.35Z"/>
        <path d="M373.65,531.73v-5.42h-1.46v-1.24l1.53-.09,.2-2.74h1.37v2.74h2.65v1.33h-2.65v5.46c0,1.21,.38,1.89,1.51,1.89,.34,0,.79-.13,1.12-.25l.32,1.22c-.56,.18-1.21,.36-1.8,.36-2.09,0-2.79-1.3-2.79-3.26Z"/>
        <path d="M379.84,521.9c0-.67,.49-1.06,1.13-1.06s1.13,.4,1.13,1.06c0,.61-.49,1.06-1.13,1.06s-1.13-.45-1.13-1.06Zm.31,3.08h1.64v9.78h-1.64v-9.78Z"/>
        <path d="M384.36,529.87c0-3.26,2.21-5.15,4.72-5.15,1.28,0,2.16,.54,2.86,1.15l-.85,1.1c-.58-.52-1.17-.88-1.96-.88-1.76,0-3.06,1.53-3.06,3.78s1.22,3.75,3.02,3.75c.9,0,1.69-.41,2.3-.97l.7,1.1c-.86,.79-1.98,1.24-3.15,1.24-2.59,0-4.59-1.87-4.59-5.11Z"/>
        <path d="M393.16,533.64l.81-1.08c.85,.68,1.73,1.15,2.9,1.15,1.3,0,1.93-.68,1.93-1.53,0-.99-1.15-1.44-2.23-1.85-1.37-.5-2.92-1.17-2.92-2.83,0-1.55,1.24-2.77,3.37-2.77,1.21,0,2.27,.5,3.04,1.1l-.79,1.06c-.68-.5-1.37-.86-2.25-.86-1.22,0-1.78,.65-1.78,1.4,0,.94,1.06,1.28,2.16,1.69,1.42,.54,2.99,1.12,2.99,2.97,0,1.58-1.26,2.9-3.57,2.9-1.39,0-2.72-.58-3.65-1.35Z"/>
        <path d="M406.1,528.11c0-4.23,2.32-6.81,5.64-6.81s5.64,2.58,5.64,6.81-2.32,6.88-5.64,6.88-5.64-2.65-5.64-6.88Zm9.56,0c0-3.31-1.57-5.35-3.93-5.35s-3.92,2.03-3.92,5.35,1.55,5.42,3.92,5.42,3.93-2.12,3.93-5.42Z"/>
        <path d="M426.06,523.41c0-1.98,.9-3.22,2.86-3.22,.58,0,1.17,.13,1.62,.32l-.36,1.24c-.36-.16-.76-.25-1.1-.25-.94,0-1.39,.67-1.39,1.93v1.55h2.07v1.33h-2.07v8.44h-1.64v-8.44h-4.09v8.44h-1.64v-8.44h-1.33v-1.24l1.33-.09v-1.31c0-2.02,1.01-3.28,3.02-3.28,.65,0,1.3,.13,1.8,.34l-.34,1.26c-.43-.2-.83-.29-1.31-.29-.97,0-1.53,.72-1.53,2.02v1.26h4.09v-1.57Zm7.56-1.51c0,.61-.5,1.06-1.15,1.06s-1.13-.45-1.13-1.06c0-.67,.5-1.06,1.13-1.06s1.15,.4,1.15,1.06Zm-1.96,3.08h1.64v9.78h-1.64v-9.78Z"/>
        <path d="M435.85,529.87c0-3.26,2.21-5.15,4.72-5.15,1.28,0,2.16,.54,2.86,1.15l-.85,1.1c-.58-.52-1.17-.88-1.96-.88-1.76,0-3.06,1.53-3.06,3.78s1.22,3.75,3.02,3.75c.9,0,1.69-.41,2.3-.97l.7,1.1c-.86,.79-1.98,1.24-3.15,1.24-2.59,0-4.59-1.87-4.59-5.11Z"/>
        <path d="M444.58,529.87c0-3.17,2.14-5.15,4.41-5.15,2.49,0,3.89,1.8,3.89,4.59,0,.36-.04,.7-.07,.94h-6.59c.11,2.09,1.39,3.42,3.24,3.42,.95,0,1.73-.29,2.45-.77l.59,1.08c-.86,.56-1.91,1.01-3.24,1.01-2.59,0-4.68-1.89-4.68-5.11Zm6.86-.79c0-1.98-.9-3.04-2.43-3.04-1.39,0-2.61,1.12-2.81,3.04h5.24Z"/>
        <path class="cls-6" d="M171.94,551.84l10.64,6.75v.07l-10.64,6.75h-.03v-13.56h.03Z"/>
        <path d="M192.03,558.16c0-4.27,2.5-6.86,5.85-6.86,1.6,0,2.86,.79,3.62,1.64l-.9,1.08c-.68-.74-1.57-1.26-2.7-1.26-2.5,0-4.16,2.05-4.16,5.35s1.58,5.42,4.11,5.42c1.26,0,2.21-.56,3.06-1.48l.92,1.04c-1.04,1.21-2.34,1.89-4.05,1.89-3.28,0-5.74-2.54-5.74-6.82Z"/>
        <path d="M203.82,551.9c0-.67,.49-1.06,1.13-1.06s1.13,.4,1.13,1.06c0,.61-.49,1.06-1.13,1.06s-1.13-.45-1.13-1.06Zm.31,3.08h1.64v9.78h-1.64v-9.78Z"/>
        <path d="M207.65,554.98h1.71l1.84,5.56c.31,.95,.61,1.96,.92,2.88h.07c.29-.92,.61-1.93,.9-2.88l1.85-5.56h1.62l-3.47,9.78h-1.91l-3.53-9.78Z"/>
        <path d="M218.15,551.9c0-.67,.49-1.06,1.13-1.06s1.13,.4,1.13,1.06c0,.61-.49,1.06-1.13,1.06s-1.13-.45-1.13-1.06Zm.31,3.08h1.64v9.78h-1.64v-9.78Z"/>
        <path d="M223.4,562.81v-12.39h1.64v12.5c0,.5,.22,.7,.47,.7,.09,0,.16,0,.34-.04l.23,1.26c-.23,.09-.52,.14-.95,.14-1.22,0-1.73-.79-1.73-2.18Z"/>
        <path d="M231.75,563.02l.99-1.13c.95,.99,2.29,1.64,3.65,1.64,1.73,0,2.77-.86,2.77-2.16s-.95-1.78-2.2-2.34l-1.91-.83c-1.22-.52-2.68-1.46-2.68-3.39,0-2.03,1.76-3.51,4.16-3.51,1.57,0,2.95,.67,3.89,1.64l-.88,1.06c-.81-.76-1.78-1.24-3.01-1.24-1.49,0-2.47,.76-2.47,1.94,0,1.28,1.15,1.76,2.18,2.2l1.89,.81c1.53,.67,2.72,1.57,2.72,3.53,0,2.09-1.73,3.75-4.48,3.75-1.87,0-3.47-.76-4.63-1.96Z"/>
        <path d="M242.57,559.87c0-3.17,2.14-5.15,4.41-5.15,2.48,0,3.89,1.8,3.89,4.59,0,.36-.04,.7-.07,.94h-6.59c.11,2.09,1.39,3.42,3.24,3.42,.95,0,1.73-.29,2.45-.77l.59,1.08c-.86,.56-1.91,1.01-3.24,1.01-2.59,0-4.68-1.89-4.68-5.11Zm6.86-.79c0-1.98-.9-3.04-2.43-3.04-1.39,0-2.61,1.12-2.81,3.04h5.24Z"/>
        <path d="M253.28,554.98h1.35l.14,1.78h.05c.68-1.24,1.67-2.03,2.77-2.03,.43,0,.74,.05,1.04,.22l-.31,1.44c-.32-.13-.56-.16-.95-.16-.81,0-1.82,.58-2.47,2.25v6.28h-1.64v-9.78Z"/>
        <path d="M259.36,554.98h1.71l1.84,5.56c.31,.95,.61,1.96,.92,2.88h.07c.29-.92,.61-1.93,.9-2.88l1.85-5.56h1.62l-3.47,9.78h-1.91l-3.53-9.78Z"/>
        <path d="M269.86,551.9c0-.67,.49-1.06,1.13-1.06s1.13,.4,1.13,1.06c0,.61-.49,1.06-1.13,1.06s-1.13-.45-1.13-1.06Zm.31,3.08h1.64v9.78h-1.64v-9.78Z"/>
        <path d="M274.38,559.87c0-3.26,2.21-5.15,4.72-5.15,1.28,0,2.16,.54,2.86,1.15l-.85,1.1c-.58-.52-1.17-.88-1.96-.88-1.76,0-3.06,1.53-3.06,3.78s1.22,3.75,3.02,3.75c.9,0,1.69-.41,2.3-.97l.7,1.1c-.86,.79-1.98,1.24-3.15,1.24-2.59,0-4.59-1.87-4.59-5.11Z"/>
        <path d="M283.11,559.87c0-3.17,2.14-5.15,4.41-5.15,2.48,0,3.89,1.8,3.89,4.59,0,.36-.04,.7-.07,.94h-6.59c.11,2.09,1.39,3.42,3.24,3.42,.95,0,1.73-.29,2.45-.77l.59,1.08c-.86,.56-1.91,1.01-3.24,1.01-2.59,0-4.68-1.89-4.68-5.11Zm6.86-.79c0-1.98-.9-3.04-2.43-3.04-1.39,0-2.61,1.12-2.81,3.04h5.24Z"/>
        <path d="M297.99,551.56h7.62v1.4h-5.94v4.14h5.01v1.42h-5.01v4.81h6.14v1.42h-7.81v-13.2Z"/>
        <path d="M308.23,561.73v-5.42h-1.46v-1.24l1.53-.09,.2-2.74h1.37v2.74h2.65v1.33h-2.65v5.46c0,1.21,.38,1.89,1.51,1.89,.34,0,.79-.13,1.12-.25l.32,1.22c-.56,.18-1.21,.36-1.8,.36-2.09,0-2.79-1.3-2.79-3.26Z"/>
        <path d="M314.73,550.42h1.64v3.92l-.05,2.02c.9-.9,1.91-1.64,3.24-1.64,2.05,0,2.99,1.33,2.99,3.83v6.19h-1.64v-5.98c0-1.84-.56-2.61-1.85-2.61-1.01,0-1.69,.5-2.68,1.49v7.09h-1.64v-14.33Z"/>
        <path d="M325.35,551.9c0-.67,.49-1.06,1.13-1.06s1.13,.4,1.13,1.06c0,.61-.49,1.06-1.13,1.06s-1.13-.45-1.13-1.06Zm.31,3.08h1.64v9.78h-1.64v-9.78Z"/>
        <path d="M329.87,559.87c0-3.26,2.21-5.15,4.72-5.15,1.28,0,2.16,.54,2.86,1.15l-.85,1.1c-.58-.52-1.17-.88-1.96-.88-1.76,0-3.06,1.53-3.06,3.78s1.22,3.75,3.02,3.75c.9,0,1.69-.41,2.3-.97l.7,1.1c-.86,.79-1.98,1.24-3.15,1.24-2.59,0-4.59-1.87-4.59-5.11Z"/>
        <path d="M338.67,563.64l.81-1.08c.85,.68,1.73,1.15,2.9,1.15,1.3,0,1.93-.68,1.93-1.53,0-.99-1.15-1.44-2.23-1.85-1.37-.5-2.92-1.17-2.92-2.83,0-1.55,1.24-2.77,3.37-2.77,1.21,0,2.27,.5,3.04,1.1l-.79,1.06c-.68-.5-1.37-.86-2.25-.86-1.22,0-1.78,.65-1.78,1.4,0,.94,1.06,1.28,2.16,1.69,1.42,.54,2.99,1.12,2.99,2.97,0,1.58-1.26,2.9-3.57,2.9-1.39,0-2.72-.58-3.65-1.35Z"/>
        <path d="M351.61,558.11c0-4.23,2.32-6.81,5.64-6.81s5.64,2.58,5.64,6.81-2.32,6.88-5.64,6.88-5.64-2.65-5.64-6.88Zm9.56,0c0-3.31-1.57-5.35-3.93-5.35s-3.92,2.03-3.92,5.35,1.55,5.42,3.92,5.42,3.93-2.12,3.93-5.42Z"/>
        <path d="M371.58,553.41c0-1.98,.9-3.22,2.86-3.22,.58,0,1.17,.13,1.62,.32l-.36,1.24c-.36-.16-.76-.25-1.1-.25-.94,0-1.39,.67-1.39,1.93v1.55h2.07v1.33h-2.07v8.44h-1.64v-8.44h-4.09v8.44h-1.64v-8.44h-1.33v-1.24l1.33-.09v-1.31c0-2.02,1.01-3.28,3.02-3.28,.65,0,1.3,.13,1.8,.34l-.34,1.26c-.43-.2-.83-.29-1.31-.29-.97,0-1.53,.72-1.53,2.02v1.26h4.09v-1.57Zm7.56-1.51c0,.61-.5,1.06-1.15,1.06s-1.13-.45-1.13-1.06c0-.67,.5-1.06,1.13-1.06s1.15,.4,1.15,1.06Zm-1.96,3.08h1.64v9.78h-1.64v-9.78Z"/>
        <path d="M381.37,559.87c0-3.26,2.21-5.15,4.72-5.15,1.28,0,2.16,.54,2.86,1.15l-.85,1.1c-.58-.52-1.17-.88-1.96-.88-1.76,0-3.06,1.53-3.06,3.78s1.22,3.75,3.02,3.75c.9,0,1.69-.41,2.3-.97l.7,1.1c-.86,.79-1.98,1.24-3.15,1.24-2.59,0-4.59-1.87-4.59-5.11Z"/>
        <path d="M390.1,559.87c0-3.17,2.14-5.15,4.41-5.15,2.49,0,3.89,1.8,3.89,4.59,0,.36-.04,.7-.07,.94h-6.59c.11,2.09,1.39,3.42,3.24,3.42,.95,0,1.73-.29,2.45-.77l.59,1.08c-.86,.56-1.91,1.01-3.24,1.01-2.59,0-4.68-1.89-4.68-5.11Zm6.86-.79c0-1.98-.9-3.04-2.43-3.04-1.39,0-2.61,1.12-2.81,3.04h5.24Z"/>
      </g>
      <g>
        <rect class="cls-3" x="322.17" y="249.79" width="31.66" height="370" rx="5" ry="5" transform="translate(772.79 96.79) rotate(90)"/>
        <g>
          <path class="cls-1" d="M267.39,439.15l.99-1.13c.95,.99,2.29,1.64,3.65,1.64,1.73,0,2.77-.86,2.77-2.16s-.95-1.78-2.2-2.34l-1.91-.83c-1.22-.52-2.68-1.46-2.68-3.39,0-2.03,1.76-3.51,4.16-3.51,1.57,0,2.95,.67,3.89,1.64l-.88,1.06c-.81-.76-1.78-1.24-3.01-1.24-1.49,0-2.47,.76-2.47,1.94,0,1.28,1.15,1.76,2.18,2.2l1.89,.81c1.53,.67,2.72,1.57,2.72,3.53,0,2.09-1.73,3.75-4.48,3.75-1.87,0-3.47-.76-4.63-1.96Z"/>
          <path class="cls-1" d="M278.82,437.3v-6.19h1.64v6c0,1.82,.54,2.59,1.84,2.59,1.01,0,1.71-.49,2.65-1.66v-6.93h1.64v9.78h-1.37l-.13-1.53h-.05c-.92,1.06-1.89,1.76-3.24,1.76-2.05,0-2.97-1.33-2.97-3.82Z"/>
          <path class="cls-1" d="M289.87,431.1h1.35l.14,1.12h.05c.88-.72,1.98-1.37,3.12-1.37,2.52,0,3.89,1.98,3.89,4.99,0,3.35-2,5.28-4.25,5.28-.88,0-1.82-.41-2.7-1.13l.04,1.71v3.31h-1.64v-13.9Zm6.84,4.75c0-2.16-.72-3.62-2.57-3.62-.83,0-1.67,.47-2.63,1.35v5.13c.88,.76,1.75,1.03,2.39,1.03,1.62,0,2.81-1.46,2.81-3.89Z"/>
          <path class="cls-1" d="M301.03,431.1h1.35l.14,1.12h.05c.88-.72,1.98-1.37,3.12-1.37,2.52,0,3.89,1.98,3.89,4.99,0,3.35-2,5.28-4.25,5.28-.88,0-1.82-.41-2.7-1.13l.04,1.71v3.31h-1.64v-13.9Zm6.84,4.75c0-2.16-.72-3.62-2.57-3.62-.83,0-1.67,.47-2.63,1.35v5.13c.88,.76,1.75,1.03,2.39,1.03,1.62,0,2.81-1.46,2.81-3.89Z"/>
          <path class="cls-1" d="M311.45,436c0-3.26,2.14-5.15,4.54-5.15s4.54,1.89,4.54,5.15-2.14,5.11-4.54,5.11-4.54-1.87-4.54-5.11Zm7.38,0c0-2.25-1.15-3.78-2.84-3.78s-2.83,1.53-2.83,3.78,1.13,3.75,2.83,3.75,2.84-1.49,2.84-3.75Z"/>
          <path class="cls-1" d="M323.1,431.1h1.35l.14,1.78h.05c.68-1.24,1.67-2.03,2.77-2.03,.43,0,.74,.05,1.04,.22l-.31,1.44c-.32-.13-.56-.16-.95-.16-.81,0-1.82,.58-2.47,2.25v6.28h-1.64v-9.78Z"/>
          <path class="cls-1" d="M330.37,437.86v-5.42h-1.46v-1.24l1.53-.09,.2-2.74h1.37v2.74h2.65v1.33h-2.65v5.46c0,1.21,.38,1.89,1.51,1.89,.34,0,.79-.13,1.12-.25l.32,1.22c-.56,.18-1.21,.36-1.8,.36-2.09,0-2.79-1.3-2.79-3.26Z"/>
          <path class="cls-1" d="M336.56,428.03c0-.67,.49-1.06,1.13-1.06s1.13,.4,1.13,1.06c0,.61-.49,1.06-1.13,1.06s-1.13-.45-1.13-1.06Zm.31,3.08h1.64v9.78h-1.64v-9.78Z"/>
          <path class="cls-1" d="M341.82,431.1h1.35l.14,1.4h.05c.94-.92,1.94-1.66,3.28-1.66,2.05,0,2.99,1.33,2.99,3.83v6.19h-1.64v-5.98c0-1.84-.56-2.61-1.85-2.61-1.01,0-1.69,.5-2.68,1.49v7.09h-1.64v-9.78Z"/>
          <path class="cls-1" d="M352.06,442.75c0-.83,.54-1.62,1.46-2.21v-.07c-.52-.31-.9-.83-.9-1.6s.59-1.46,1.1-1.82v-.07c-.65-.52-1.28-1.46-1.28-2.63,0-2.14,1.69-3.49,3.67-3.49,.54,0,1.03,.13,1.37,.25h3.4v1.26h-2c.47,.45,.79,1.17,.79,2.02,0,2.09-1.58,3.4-3.57,3.4-.49,0-1.03-.13-1.46-.34-.36,.31-.63,.63-.63,1.17,0,.63,.4,1.06,1.71,1.06h1.91c2.27,0,3.4,.72,3.4,2.32,0,1.82-1.91,3.39-4.93,3.39-2.39,0-4.05-.94-4.05-2.63Zm7.4-.5c0-.9-.7-1.21-2-1.21h-1.69c-.36,0-.83-.05-1.26-.16-.7,.5-1.01,1.08-1.01,1.66,0,1.04,1.06,1.73,2.84,1.73,1.87,0,3.12-.99,3.12-2.02Zm-1.28-7.9c0-1.42-.92-2.29-2.07-2.29s-2.09,.85-2.09,2.29,.95,2.32,2.09,2.32,2.07-.9,2.07-2.32Z"/>
          <path class="cls-1" d="M367.07,435.43v-7.74h1.67v7.8c0,3.19,1.35,4.18,3.06,4.18s3.15-.99,3.15-4.18v-7.8h1.6v7.74c0,4.25-2.05,5.69-4.75,5.69s-4.74-1.44-4.74-5.69Z"/>
          <path class="cls-1" d="M379.96,431.1h1.35l.14,1.4h.05c.94-.92,1.94-1.66,3.28-1.66,2.05,0,2.99,1.33,2.99,3.83v6.19h-1.64v-5.98c0-1.84-.56-2.61-1.85-2.61-1.01,0-1.69,.5-2.68,1.49v7.09h-1.64v-9.78Z"/>
          <path class="cls-1" d="M390.65,428.03c0-.67,.49-1.06,1.13-1.06s1.13,.4,1.13,1.06c0,.61-.49,1.06-1.13,1.06s-1.13-.45-1.13-1.06Zm.31,3.08h1.64v9.78h-1.64v-9.78Z"/>
          <path class="cls-1" d="M396.2,437.86v-5.42h-1.46v-1.24l1.53-.09,.2-2.74h1.37v2.74h2.65v1.33h-2.65v5.46c0,1.21,.38,1.89,1.51,1.89,.34,0,.79-.13,1.12-.25l.32,1.22c-.56,.18-1.21,.36-1.8,.36-2.09,0-2.79-1.3-2.79-3.26Z"/>
          <path class="cls-1" d="M401.4,439.77l.81-1.08c.85,.68,1.73,1.15,2.9,1.15,1.3,0,1.93-.68,1.93-1.53,0-.99-1.15-1.44-2.23-1.85-1.37-.5-2.92-1.17-2.92-2.83,0-1.55,1.24-2.77,3.37-2.77,1.21,0,2.27,.5,3.04,1.1l-.79,1.06c-.68-.5-1.37-.86-2.25-.86-1.22,0-1.78,.65-1.78,1.4,0,.94,1.06,1.28,2.16,1.69,1.42,.54,2.99,1.12,2.99,2.97,0,1.58-1.26,2.9-3.57,2.9-1.39,0-2.72-.58-3.65-1.35Z"/>
        </g>
      </g>
    </g>
  </g>
</svg>