<svg width="281" height="63" viewBox="0 0 281 63" fill="none" xmlns="http://www.w3.org/2000/svg">
<path d="M12.5601 30.1003C12.5703 25.5074 14.3993 21.1055 17.647 17.8578C20.8947 14.6101 25.2966 12.781 29.8895 12.7709H36.5469V1.07352C31.2229 1.03982 29.7355 0.717298 24.2575 1.73299C24.2039 1.74768 24.1491 1.75734 24.0938 1.76188C17.5727 3.10775 11.7145 6.65972 7.50595 11.8196C3.29738 16.9795 0.99547 23.4321 0.987915 30.0906C0.987915 46.0337 13.985 59.1559 29.9232 59.1559H59.1425V1.07352H47.864V47.5067L29.9088 47.4297C25.3125 47.4246 20.9057 45.5978 17.6538 42.3496C14.402 39.1013 12.5703 34.6965 12.5601 30.1003V30.1003Z" fill="#1F333D"/>
<path d="M23.6317 30.4035C23.6317 34.1101 26.4044 36.5699 30.111 36.5699H36.5662V23.6643H30.3709C28.5836 23.6643 26.8694 24.3743 25.6056 25.6382C24.3417 26.902 23.6317 28.6162 23.6317 30.4035Z" fill="#B3C33E"/>
<path d="M78.513 22.0518H65.5111V59.2426H78.513V22.0518Z" fill="#1F333D"/>
<path d="M65.6362 1.0686H76.9003V4.33231H68.8374V10.7586H76.9003V13.9598H65.6362V1.0686Z" fill="#B3C33E"/>
<path d="M81.7237 5.81995H70.4596V9.08365H78.5226V15.51H70.4596V18.7111H81.7237V5.81995Z" fill="#1F333D"/>
<path d="M123.305 19.3465H121.076C120.152 25.9092 118.69 31.2139 116.691 35.2607C118.51 38.7908 120.779 41.3677 123.497 42.9916C122.719 43.6696 122.046 44.4597 121.5 45.3358C118.793 43.4881 116.576 41.0101 115.04 38.1153C113.101 41.0291 110.574 43.5051 107.622 45.384C107.174 44.5148 106.617 43.7061 105.966 42.9771C109.143 41.1059 111.78 38.4421 113.619 35.2463C112.234 31.864 111.203 28.3472 110.544 24.7523C109.948 26.254 109.214 27.6965 108.348 29.0606C107.844 28.4768 107.291 27.9358 106.697 27.4432V30.7502H97.6235C97.2432 31.5204 96.8196 32.3243 96.3575 33.1571C98.9697 33.1314 103.108 33.0673 108.772 32.9646L108.657 35.1933L104.584 35.2703C104.043 37.2462 102.981 39.0402 101.508 40.4644C102.951 41.1816 104.35 41.9854 105.696 42.8712L103.852 44.6764C102.434 43.7384 100.958 42.8911 99.4334 42.1395C97.1517 43.5965 93.819 44.7117 89.4353 45.4851C89.2238 44.6494 88.8456 43.8651 88.3234 43.1793C91.9336 42.7428 94.7914 41.9726 96.8966 40.8687C95.292 40.1498 93.9586 39.5995 92.8964 39.2176L92.2417 40.3344L89.8349 39.6027C90.528 38.5019 91.348 37.13 92.2947 35.4869L87.4136 35.564L87.3365 33.2582C89.9263 33.2582 91.9898 33.2453 93.527 33.2197C93.6521 32.9645 93.8447 32.6035 94.1046 32.1462C94.4368 31.506 94.6775 31.0439 94.8315 30.7599H89.0502V24.1891H96.4345V22.3984H90.0515V18.172H87.3365V15.9769H90.0659V11.789H96.4345V9.38212H98.9713V11.789H105.773V15.9769H108.541V18.172H105.773V22.3984H98.9713V24.2036H106.697V26.2061C108.873 22.3551 110.478 16.7391 111.511 9.35803L114.279 9.78164C113.868 12.5511 113.459 14.8184 113.051 16.5834H123.314L123.305 19.3465ZM91.5341 26.1531V28.767H96.4345V26.1531H91.5341ZM96.4152 13.8107H92.4921V16.0395H96.4152V13.8107ZM92.4921 20.3478H96.4152V18.0661H92.4921V20.3478ZM101.874 35.2992L95.1059 35.4147C94.9808 35.6747 94.7593 36.0598 94.4512 36.57C94.2491 36.9311 94.095 37.1862 93.9699 37.3402C95.6354 37.905 97.3266 38.5709 99.0435 39.3379C100.304 38.2398 101.281 36.8546 101.893 35.2992H101.874ZM103.222 13.8107H98.9954V16.0395H103.222V13.8107ZM98.9954 20.3478H103.222V18.0661H98.9954V20.3478ZM104.146 28.767V26.1531H98.9954V28.767H104.146ZM118.255 19.3465H112.334L112.219 19.8279C112.773 23.9725 113.792 28.0416 115.256 31.9585C116.652 28.499 117.644 24.295 118.231 19.3465H118.255Z" fill="#1F333D"/>
<path d="M136.186 9.46875L138.877 10.3496C137.741 13.1347 136.406 15.8342 134.882 18.4271V45.1818H132.104V22.6536C130.802 24.4662 129.362 26.1753 127.796 27.7657C127.319 26.7552 126.753 25.7887 126.106 24.8775C129.751 21.4057 132.7 17.2706 134.795 12.694C135.312 11.5964 135.775 10.5214 136.186 9.46875ZM153.602 40.7194H163.023V43.4873H137.187V40.7194H150.796C152.767 35.1312 154.308 29.4006 155.407 23.5778C155.508 23.0627 155.6 22.5765 155.677 22.1337L158.791 22.6728C157.44 28.7907 155.707 34.8181 153.602 40.7194V40.7194ZM138.15 17.1033H148.336V9.81532H151.296V17.1033H162.021V19.8327H138.15V17.1033ZM147.181 38.2837L144.336 38.8999C143.919 34.0234 143.083 29.1918 141.837 24.4587C141.683 23.9244 141.544 23.4093 141.414 22.9231L143.989 22.4417C145.437 27.3215 146.479 32.3127 147.104 37.3643C147.133 37.6868 147.157 37.9804 147.181 38.2837V38.2837Z" fill="#1F333D"/>
<path d="M193.855 22.1913H202.081V24.5982H172.597V28.4829C172.575 35.9409 171.192 41.6436 168.448 45.5908C167.84 44.8773 167.109 44.2775 166.291 43.8194C166.249 43.8 166.21 43.774 166.176 43.7424C168.586 40.2861 169.791 35.1868 169.791 28.4443V22.1865H174.287C173.985 21.6105 173.639 21.0585 173.252 20.5354C176.33 20.0014 179.373 19.2828 182.364 18.3836C179.444 17.4851 176.995 16.8047 175.019 16.3426L176.675 14.9996H169.213V12.6168H182.937V9.40125H185.825V12.6313H200.165V15.014H193.364L194.014 15.3992C192.302 16.5302 190.487 17.4972 188.593 18.2874C190.75 19.0287 192.996 19.8743 195.332 20.8242L193.855 22.1913ZM189.205 37.3209V42.0479H201.773V44.5077H173.907V42.0479H186.321V37.3209H177.44V35.0103H186.321V31.0534H178.826C178.004 32.3425 177.065 33.5527 176.02 34.6685C175.365 34.0666 174.627 33.561 173.83 33.1666C176.031 30.9722 177.712 28.3124 178.749 25.3828L181.325 25.922C181.071 26.6376 180.686 27.5474 180.169 28.6513H186.321V25.4983H189.209V28.6561H199.549V31.063H189.209V35.0199H198.63V37.3209H189.205ZM175.596 22.2106H192.781C190.708 21.3152 188.301 20.3926 185.561 19.4427C182.311 20.6008 178.98 21.5195 175.596 22.1913V22.2106ZM190.745 15.0237H177.709C179.529 15.4569 182.181 16.2255 185.667 17.3294C187.434 16.7297 189.136 15.9506 190.745 15.0044V15.0237Z" fill="#1F333D"/>
<path d="M241.145 35.9538H228.075C231.175 38.4152 235.16 40.3118 240.028 41.6436C240.75 41.8506 241.472 42.0287 242.146 42.1827C241.33 42.9201 240.663 43.8075 240.182 44.7966C235.58 43.5196 231.262 41.3796 227.459 38.4906C226.736 37.9402 226.043 37.3505 225.385 36.724V45.2972H222.496V36.9165C219.345 39.7855 215.192 42.117 210.038 43.9109C209.273 44.1949 208.527 44.4356 207.81 44.6426C207.308 43.7339 206.673 42.9049 205.927 42.1827C210.253 41.2293 214.378 39.5251 218.116 37.1476C218.727 36.7384 219.29 36.3389 219.805 35.9538H206.967V33.494H222.496V30.5817H210.655V28.3144H222.496V25.4695H208.695V23.0626H217.269C216.819 21.669 216.171 20.3476 215.343 19.1394L216.73 18.8699H207.102V16.3331H213.36C212.551 14.3195 211.506 12.4094 210.245 10.6432L212.705 9.80082C214.112 11.5568 215.248 13.5136 216.075 15.6062L214.077 16.3331H218.92V9.35315H221.639V16.309H226.294V9.35315H229.057V16.309H233.828L232.384 15.8276C233.568 13.9277 234.572 11.9213 235.383 9.83452L238.382 10.6384C237.34 12.5884 236.184 14.4755 234.921 16.2897H240.995V18.8266H233.154C232.512 20.0589 231.692 21.4564 230.694 23.0193H239.652V25.4262H225.389V28.2711H237.688V30.5817H225.389V33.5036H241.15L241.145 35.9538ZM229.881 18.8458H218.328C219.194 20.0365 219.857 21.3621 220.292 22.769L219.021 23.0386H228.287L227.864 22.923C228.62 21.6073 229.294 20.2456 229.881 18.8458Z" fill="#1F333D"/>
<path d="M268.135 29.383C266.293 30.3458 264.435 31.2299 262.561 32.0354H277.363V45.0661H274.518V43.9108H257.141V45.1817H254.411V35.1065C253.155 35.4916 251.899 35.8671 250.647 36.2233C249.395 36.5795 248.12 36.9165 246.839 37.2246C246.643 36.7866 246.418 36.362 246.165 35.9537C245.848 35.4146 245.583 34.991 245.381 34.6877C248.293 34.0928 251.172 33.3472 254.007 32.4542C256.831 31.5707 259.609 30.5457 262.33 29.383H246.223V26.9761H260.948V24.035H250.108V21.6522H260.948V18.8843H248.433V10.8116H278.923V18.8843H263.779V21.6522H272.583V23.6547C273.324 23.138 274.035 22.5925 274.716 22.018C275.396 21.4436 276.038 20.8611 276.641 20.2706L278.908 21.7147C276.878 23.6973 274.636 25.4504 272.222 26.9424H280.988V29.3493L268.135 29.383ZM257.545 12.9682H251.287V16.7325H257.545V12.9682ZM274.538 34.2256H257.16V36.8395H274.538V34.2256ZM274.538 41.7206V38.8324H257.16V41.7206H274.538ZM266.734 16.7325V12.9682H260.236V16.7325H266.734ZM267.274 26.9569C268.143 26.5236 268.982 26.0567 269.791 25.5561C270.6 25.0555 271.375 24.5484 272.116 24.035H263.813V26.9569H267.274ZM269.425 16.7325H276.035V12.9682H269.387L269.425 16.7325Z" fill="#1F333D"/>
<path d="M87.3365 59.1463L91.0287 50.626H92.1503L95.8087 59.1463H94.4609L93.5944 57.0571H89.5508L88.6988 59.1511L87.3365 59.1463ZM93.113 56.0029L91.5245 52.0123L89.9263 56.0029H93.113Z" fill="#1F333D"/>
<path d="M100.487 59.0308C100.123 59.2082 99.7231 59.3004 99.3177 59.3004C98.9076 59.3074 98.5006 59.227 98.1239 59.0645C97.7821 58.9169 97.4754 58.6987 97.2238 58.4243C96.9701 58.1443 96.7739 57.8172 96.6461 57.4615C96.5063 57.0842 96.4361 56.6846 96.4391 56.2822C96.4353 55.8813 96.5055 55.4831 96.6461 55.1076C96.7753 54.7516 96.9732 54.4245 97.2286 54.1449C97.4849 53.8728 97.7947 53.6565 98.1384 53.5095C98.5068 53.3542 98.9035 53.2772 99.3033 53.2832C99.728 53.2719 100.148 53.3732 100.521 53.5769C100.841 53.7538 101.12 53.9966 101.34 54.2893V54.2893V50.0436H102.471V59.1415H101.373V58.2365H101.349C101.143 58.5776 100.844 58.853 100.487 59.0308V59.0308ZM97.7388 57.0572C97.8174 57.2974 97.9398 57.521 98.0999 57.7167C98.2624 57.9158 98.4639 58.0796 98.692 58.198C98.9441 58.3107 99.2172 58.369 99.4934 58.369C99.7697 58.369 100.043 58.3107 100.295 58.198C100.527 58.0893 100.735 57.9355 100.906 57.7455C101.08 57.5437 101.212 57.3099 101.296 57.0572C101.482 56.5523 101.482 55.9976 101.296 55.4927C101.209 55.249 101.076 55.0237 100.906 54.8284C100.736 54.6356 100.528 54.4799 100.295 54.3711C100.049 54.2573 99.7811 54.1997 99.5103 54.2026C99.2283 54.1968 98.9487 54.2544 98.692 54.3711C98.4647 54.4803 98.2629 54.6361 98.0999 54.8284C97.9387 55.0251 97.8162 55.2505 97.7388 55.4927C97.5782 55.9936 97.5782 56.5322 97.7388 57.0331V57.0572Z" fill="#1F333D"/>
<path d="M106.264 53.6056C106.599 53.3888 106.992 53.2781 107.39 53.2879C107.754 53.2825 108.112 53.3721 108.43 53.5479C108.763 53.7532 109.019 54.0629 109.157 54.4288C109.337 54.0728 109.619 53.778 109.966 53.5816C110.31 53.3853 110.701 53.2839 111.097 53.2879C111.428 53.2761 111.757 53.3386 112.06 53.4708C112.312 53.5832 112.539 53.7472 112.724 53.9522C112.901 54.1677 113.034 54.4165 113.114 54.6839C113.201 54.9776 113.243 55.2827 113.239 55.5889V59.127H112.108V55.9595C112.109 55.7384 112.089 55.5177 112.05 55.3001C112.013 55.1052 111.943 54.918 111.843 54.7465C111.749 54.5877 111.617 54.4552 111.458 54.3614C111.271 54.258 111.06 54.208 110.847 54.217C110.615 54.2105 110.385 54.2671 110.182 54.3806C110.003 54.4836 109.849 54.627 109.735 54.7994C109.614 54.976 109.528 55.1736 109.48 55.3819C109.427 55.5994 109.401 55.8225 109.403 56.0462V59.127H108.271V55.7333C108.274 55.5262 108.253 55.3195 108.209 55.1171C108.178 54.9438 108.109 54.7794 108.007 54.6358C107.91 54.5031 107.783 54.3957 107.636 54.3229C107.458 54.2406 107.264 54.2011 107.068 54.2074C106.867 54.2043 106.667 54.249 106.487 54.3377C106.306 54.4263 106.149 54.5566 106.028 54.7176C105.734 55.1107 105.588 55.5946 105.614 56.0847V59.1174H104.483V54.6502C104.483 54.4962 104.483 54.2988 104.483 54.0581C104.483 53.8174 104.483 53.6056 104.449 53.4227H105.518C105.518 53.5671 105.547 53.7308 105.556 53.9041C105.566 54.0774 105.556 54.2362 105.556 54.3566H105.595C105.748 54.0521 105.979 53.7931 106.264 53.6056V53.6056Z" fill="#1F333D"/>
<path d="M116.253 51.9016C116.108 52.0371 115.916 52.1113 115.718 52.1086C115.62 52.1102 115.523 52.0924 115.432 52.056C115.341 52.0196 115.258 51.9655 115.189 51.8968C115.119 51.8314 115.064 51.7522 115.027 51.6644C114.989 51.5766 114.971 51.4819 114.972 51.3865C114.969 51.2887 114.987 51.1915 115.025 51.1011C115.062 51.0108 115.118 50.9292 115.189 50.8618C115.258 50.7931 115.341 50.7389 115.432 50.7026C115.523 50.6662 115.62 50.6483 115.718 50.65C115.817 50.6485 115.915 50.6664 116.006 50.7028C116.098 50.7391 116.182 50.7932 116.253 50.8618C116.326 50.928 116.384 51.009 116.423 51.0996C116.462 51.1901 116.481 51.2879 116.479 51.3865C116.481 51.4836 116.461 51.58 116.422 51.669C116.383 51.7579 116.325 51.8373 116.253 51.9016V51.9016ZM115.155 59.1462V53.442H116.286V59.1462H115.155Z" fill="#1F333D"/>
<path d="M119.319 53.9282C119.319 54.1111 119.319 54.2603 119.319 54.3806H119.358C119.432 54.2233 119.531 54.0787 119.651 53.9522C119.779 53.819 119.923 53.7025 120.08 53.6056C120.244 53.5031 120.423 53.4237 120.609 53.3698C120.805 53.313 121.007 53.2854 121.211 53.2879C121.541 53.2761 121.87 53.3386 122.174 53.4708C122.426 53.5832 122.652 53.7472 122.838 53.9522C123.015 54.1677 123.148 54.4165 123.228 54.6839C123.312 54.9781 123.354 55.2828 123.353 55.5889V59.127H122.222V55.9595C122.222 55.7386 122.204 55.5181 122.169 55.3001C122.137 55.1052 122.07 54.9176 121.971 54.7465C121.873 54.586 121.736 54.4534 121.572 54.3614C121.371 54.2577 121.147 54.2079 120.922 54.217C120.711 54.212 120.503 54.2555 120.311 54.3439C120.12 54.4324 119.952 54.5635 119.82 54.7272C119.521 55.1182 119.371 55.6028 119.396 56.0943V59.127H118.265V54.6502C118.265 54.4962 118.265 54.2988 118.265 54.0581C118.265 53.8174 118.265 53.6056 118.231 53.4227H119.3C119.3 53.5864 119.309 53.75 119.319 53.9282Z" fill="#1F333D"/>
<path d="M126.376 51.9016C126.231 52.0363 126.039 52.1104 125.841 52.1086C125.744 52.1105 125.646 52.0928 125.555 52.0564C125.464 52.02 125.382 51.9658 125.312 51.8968C125.242 51.8314 125.187 51.7523 125.15 51.6644C125.113 51.5766 125.094 51.482 125.095 51.3865C125.093 51.2888 125.111 51.1916 125.148 51.1012C125.185 51.0108 125.241 50.9293 125.312 50.8619C125.382 50.7929 125.464 50.7386 125.555 50.7022C125.646 50.6658 125.744 50.6481 125.841 50.65C126.041 50.6475 126.233 50.7236 126.376 50.8619C126.448 50.9282 126.506 51.0095 126.544 51.1C126.582 51.1906 126.6 51.2883 126.597 51.3865C126.6 51.4833 126.582 51.5796 126.544 51.6686C126.505 51.7576 126.448 51.8371 126.376 51.9016ZM125.273 59.1463V53.442H126.405V59.1463H125.273Z" fill="#1F333D"/>
<path d="M130.915 54.3758C130.678 54.2396 130.409 54.1697 130.135 54.1737C130.006 54.1738 129.877 54.1883 129.75 54.217C129.629 54.242 129.514 54.2876 129.408 54.3518C129.311 54.4062 129.228 54.4839 129.168 54.578C129.103 54.6799 129.071 54.7992 129.076 54.9198C129.073 55.0316 129.103 55.1419 129.161 55.2375C129.219 55.3331 129.303 55.41 129.404 55.4589C129.71 55.6059 130.033 55.7127 130.366 55.7766C130.623 55.835 130.876 55.9105 131.122 56.0029C131.34 56.085 131.546 56.1968 131.733 56.335C131.9 56.4644 132.037 56.6287 132.133 56.8164C132.234 57.0179 132.283 57.2411 132.277 57.4662C132.288 57.7621 132.222 58.0557 132.085 58.3183C131.963 58.5472 131.788 58.7436 131.575 58.8911C131.356 59.0439 131.109 59.1518 130.848 59.2088C130.572 59.2725 130.289 59.3048 130.005 59.3051C129.57 59.3053 129.138 59.2203 128.735 59.0548C128.332 58.8913 127.978 58.6258 127.709 58.2846L128.513 57.5962C128.677 57.8317 128.893 58.0261 129.144 58.1642C129.414 58.3148 129.72 58.3928 130.029 58.3905C130.169 58.3911 130.307 58.3765 130.443 58.3472C130.571 58.3243 130.693 58.2786 130.804 58.2124C130.911 58.1506 131.001 58.0628 131.064 57.9572C131.132 57.837 131.165 57.7004 131.161 57.5625C131.164 57.4371 131.129 57.3135 131.062 57.208C130.994 57.1024 130.896 57.0196 130.78 56.9704C130.424 56.8099 130.051 56.6888 129.668 56.6094C129.476 56.5613 129.283 56.5035 129.086 56.4361C128.894 56.3707 128.713 56.2748 128.552 56.1521C128.374 56.0268 128.231 55.8587 128.136 55.6635C128.041 55.4683 127.997 55.2522 128.008 55.0353C128 54.7751 128.057 54.5172 128.175 54.285C128.293 54.0529 128.467 53.8541 128.682 53.7067C128.889 53.5634 129.121 53.4575 129.365 53.3938C129.626 53.3262 129.895 53.2922 130.164 53.2927C130.571 53.2913 130.974 53.3732 131.348 53.5334C131.704 53.672 132.011 53.9133 132.229 54.2266L131.45 54.8909C131.319 54.6756 131.135 54.498 130.915 54.3758V54.3758Z" fill="#1F333D"/>
<path d="M134.992 54.3663V57.3412C134.967 57.6017 135.036 57.8627 135.185 58.0777C135.264 58.1581 135.36 58.22 135.465 58.2591C135.571 58.2983 135.684 58.3136 135.796 58.3039C135.91 58.3022 136.022 58.2893 136.133 58.2654C136.247 58.2447 136.357 58.2091 136.461 58.1595L136.494 59.0838C136.349 59.1347 136.199 59.1734 136.047 59.1993C135.876 59.2287 135.704 59.2431 135.532 59.2426C135.306 59.2575 135.08 59.2255 134.868 59.1484C134.656 59.0713 134.462 58.9509 134.299 58.7949C133.99 58.4226 133.838 57.9442 133.876 57.4615V54.3663H132.778V53.4421H133.876V51.8054H134.992V53.4421H136.509V54.3663H134.992Z" fill="#1F333D"/>
<path d="M137.669 54.0775C137.669 53.8368 137.669 53.625 137.635 53.4421H138.704C138.704 53.5865 138.733 53.755 138.742 53.9235C138.752 54.0919 138.742 54.2652 138.742 54.4048H138.781C138.936 54.0741 139.179 53.7926 139.484 53.5913C139.792 53.3889 140.154 53.2833 140.523 53.288C140.672 53.2853 140.821 53.2999 140.966 53.3314L140.918 54.3808C140.75 54.3395 140.577 54.3185 140.403 54.3182C140.158 54.3124 139.916 54.3652 139.695 54.4722C139.506 54.5664 139.341 54.7032 139.214 54.8718C139.078 55.0458 138.978 55.2455 138.92 55.459C138.854 55.6823 138.821 55.9144 138.824 56.1474V59.1464H137.693V54.6503C137.686 54.5091 137.678 54.3182 137.669 54.0775Z" fill="#1F333D"/>
<path d="M145.044 54.5059C144.748 54.2898 144.388 54.1811 144.023 54.1979C143.71 54.1958 143.4 54.2598 143.113 54.3856C142.848 54.5001 142.606 54.6634 142.401 54.867L141.799 54.1449C142.096 53.8702 142.444 53.6574 142.824 53.5191C143.242 53.3647 143.684 53.288 144.129 53.2929C144.493 53.2853 144.855 53.3441 145.198 53.4662C145.475 53.5713 145.726 53.7356 145.934 53.9475C146.128 54.1512 146.276 54.3942 146.367 54.66C146.465 54.9417 146.514 55.238 146.512 55.5361V58.02C146.512 58.2125 146.512 58.4147 146.512 58.6265C146.52 58.8029 146.542 58.9784 146.579 59.1512H145.583C145.52 58.8829 145.488 58.6084 145.486 58.3329H145.453C145.252 58.6301 144.981 58.8731 144.663 59.0405C144.315 59.217 143.928 59.3046 143.537 59.2956C143.3 59.2921 143.064 59.2614 142.834 59.2041C142.597 59.1462 142.372 59.0468 142.17 58.9105C141.971 58.7672 141.806 58.5813 141.688 58.3665C141.548 58.1139 141.479 57.8275 141.491 57.5386C141.471 57.1636 141.595 56.7951 141.838 56.5084C142.091 56.2448 142.405 56.0466 142.752 55.9308C143.165 55.7933 143.594 55.7061 144.028 55.6709C144.5 55.6324 144.981 55.6131 145.472 55.6131V55.4542C145.482 55.2734 145.448 55.0927 145.374 54.9276C145.299 54.7626 145.186 54.6179 145.044 54.5059ZM144.283 56.4603C144.006 56.48 143.732 56.5284 143.465 56.6047C143.239 56.6673 143.03 56.7791 142.853 56.9321C142.774 57.0052 142.711 57.0947 142.669 57.1944C142.628 57.2942 142.608 57.4017 142.613 57.5097C142.609 57.6564 142.645 57.8014 142.718 57.9285C142.785 58.0415 142.877 58.1372 142.988 58.2077C143.101 58.2798 143.227 58.3304 143.359 58.3569C143.498 58.3859 143.64 58.4004 143.782 58.4002C144.009 58.4141 144.236 58.3782 144.447 58.2951C144.658 58.2119 144.849 58.0835 145.005 57.9189C145.293 57.5877 145.445 57.1591 145.429 56.7203V56.4218H145.154C144.875 56.4266 144.581 56.4363 144.283 56.4603Z" fill="#1F333D"/>
<path d="M149.515 51.9016C149.37 52.0363 149.179 52.1104 148.981 52.1086C148.883 52.1102 148.786 52.0924 148.695 52.056C148.604 52.0196 148.521 51.9655 148.452 51.8968C148.382 51.8314 148.327 51.7522 148.29 51.6644C148.252 51.5766 148.234 51.4819 148.235 51.3865C148.232 51.2887 148.25 51.1915 148.288 51.1011C148.325 51.0108 148.381 50.9292 148.452 50.8618C148.521 50.7931 148.604 50.7389 148.695 50.7026C148.786 50.6662 148.883 50.6483 148.981 50.65C149.18 50.6475 149.372 50.7236 149.515 50.8618C149.588 50.9282 149.645 51.0095 149.683 51.1C149.722 51.1906 149.74 51.2883 149.737 51.3865C149.74 51.4833 149.721 51.5796 149.683 51.6685C149.645 51.7575 149.588 51.837 149.515 51.9016ZM148.418 59.1462V53.442H149.549V59.1462H148.418Z" fill="#1F333D"/>
<path d="M157.063 57.4951C156.913 57.8558 156.69 58.1821 156.41 58.4543C156.129 58.7265 155.796 58.939 155.431 59.0788C154.648 59.3741 153.784 59.3741 153 59.0788C152.64 58.938 152.313 58.725 152.038 58.4531C151.76 58.179 151.54 57.8515 151.393 57.4903C151.232 57.1065 151.151 56.6935 151.157 56.2772C151.15 55.8625 151.231 55.4509 151.393 55.069C151.539 54.7071 151.759 54.3793 152.038 54.1063C152.314 53.8388 152.642 53.6293 153 53.4901C153.784 53.1949 154.648 53.1949 155.431 53.4901C155.789 53.6326 156.115 53.8417 156.394 54.1063C156.673 54.3804 156.894 54.7078 157.044 55.069C157.202 55.4519 157.281 55.863 157.275 56.2772C157.287 56.6933 157.215 57.1074 157.063 57.4951V57.4951ZM155.99 55.4974C155.911 55.2579 155.786 55.0357 155.624 54.8428C155.459 54.6521 155.255 54.498 155.027 54.3903C154.771 54.2791 154.495 54.2217 154.216 54.2217C153.937 54.2217 153.661 54.2791 153.405 54.3903C153.177 54.498 152.973 54.6521 152.808 54.8428C152.645 55.0357 152.521 55.2579 152.442 55.4974C152.357 55.7501 152.314 56.0153 152.317 56.2821C152.314 56.5472 152.356 56.811 152.442 57.0619C152.521 57.3044 152.645 57.5297 152.808 57.7262C152.969 57.9284 153.173 58.0927 153.405 58.2076C153.661 58.3187 153.937 58.3761 154.216 58.3761C154.495 58.3761 154.771 58.3187 155.027 58.2076C155.259 58.0927 155.463 57.9284 155.624 57.7262C155.787 57.5297 155.911 57.3044 155.99 57.0619C156.076 56.811 156.118 56.5472 156.115 56.2821C156.118 56.0153 156.075 55.7501 155.99 55.4974Z" fill="#1F333D"/>
<path d="M159.918 53.9282C159.918 54.1112 159.918 54.2604 159.918 54.3807H159.952C160.028 54.2232 160.129 54.0787 160.25 53.9523C160.376 53.8192 160.518 53.7027 160.674 53.6057C160.839 53.504 161.017 53.4247 161.203 53.3699C161.399 53.3134 161.601 53.2858 161.805 53.288C162.135 53.2763 162.464 53.3388 162.768 53.4709C163.019 53.5824 163.244 53.7465 163.427 53.9523C163.608 54.1663 163.742 54.4154 163.822 54.684C163.906 54.9782 163.948 55.2829 163.947 55.589V59.1271H162.816V55.9596C162.816 55.7387 162.798 55.5182 162.763 55.3001C162.729 55.105 162.661 54.9174 162.561 54.7466C162.464 54.5863 162.328 54.4536 162.166 54.3615C161.965 54.2577 161.741 54.208 161.516 54.2171C161.305 54.2114 161.096 54.2545 160.905 54.343C160.714 54.4315 160.546 54.5631 160.414 54.7273C160.113 55.1177 159.961 55.6023 159.985 56.0944V59.1271H158.854V54.6503C158.854 54.4963 158.854 54.2989 158.854 54.0582C158.854 53.8175 158.854 53.6057 158.82 53.4228H159.889C159.899 53.5865 159.913 53.7501 159.918 53.9282Z" fill="#1F333D"/>
<path d="M170.234 54.3663V59.1463H169.103V54.3663H167.971V53.4421H169.103V52.2435C169.1 51.9284 169.139 51.6144 169.218 51.3096C169.286 51.0385 169.413 50.7856 169.589 50.5683C169.771 50.3592 169.998 50.1946 170.253 50.0869C170.558 49.9592 170.886 49.8969 171.216 49.904C171.456 49.8998 171.696 49.9289 171.928 49.9906L171.793 50.9534C171.706 50.929 171.618 50.9098 171.529 50.8956C171.43 50.8771 171.33 50.869 171.23 50.8716C171.049 50.8647 170.869 50.9027 170.706 50.9823C170.577 51.0554 170.471 51.1618 170.397 51.2903C170.323 51.4263 170.274 51.5748 170.253 51.7284C170.229 51.899 170.218 52.0712 170.219 52.2435V53.4324H171.577V54.3567L170.234 54.3663Z" fill="#1F333D"/>
<path d="M178.143 57.4952C177.995 57.8578 177.774 58.1856 177.493 58.4579C177.217 58.7288 176.89 58.9417 176.53 59.0837C176.142 59.2337 175.728 59.3089 175.312 59.3051C174.897 59.3093 174.486 59.2342 174.099 59.0837C173.735 58.9455 173.403 58.7334 173.125 58.4609C172.847 58.1883 172.628 57.8612 172.482 57.5C172.321 57.1161 172.24 56.7032 172.246 56.2869C172.239 55.8722 172.32 55.4606 172.482 55.0787C172.628 54.7179 172.846 54.3904 173.122 54.1159C173.4 53.85 173.727 53.6407 174.085 53.4998C174.471 53.3493 174.883 53.2742 175.298 53.2784C175.714 53.2746 176.127 53.3497 176.516 53.4998C176.874 53.6407 177.201 53.85 177.478 54.1159C177.76 54.3875 177.982 54.7156 178.128 55.0787C178.29 55.4606 178.371 55.8722 178.364 56.2869C178.374 56.7006 178.298 57.1118 178.143 57.4952V57.4952ZM177.074 55.4975C176.995 55.258 176.871 55.0358 176.708 54.8428C176.542 54.6532 176.339 54.4993 176.111 54.3903C175.855 54.2792 175.579 54.2218 175.3 54.2218C175.021 54.2218 174.745 54.2792 174.489 54.3903C174.26 54.4968 174.056 54.6511 173.892 54.8428C173.73 55.0358 173.605 55.258 173.526 55.4975C173.439 55.7499 173.395 56.0151 173.396 56.2821C173.395 56.5476 173.439 56.8113 173.526 57.0619C173.605 57.3044 173.729 57.5298 173.892 57.7262C174.052 57.9296 174.256 58.0942 174.489 58.2076C174.745 58.3188 175.021 58.3761 175.3 58.3761C175.579 58.3761 175.855 58.3188 176.111 58.2076C176.342 58.0915 176.546 57.9274 176.708 57.7262C176.871 57.5298 176.995 57.3044 177.074 57.0619C177.158 56.8105 177.2 56.5471 177.199 56.2821C177.199 56.0156 177.157 55.7507 177.074 55.4975Z" fill="#1F333D"/>
<path d="M179.933 54.0775C179.933 53.8368 179.933 53.625 179.9 53.4421H180.968C180.968 53.5865 180.997 53.755 181.002 53.9235C181.007 54.0919 181.002 54.2652 181.002 54.4048H181.036C181.192 54.0739 181.437 53.7925 181.743 53.5913C182.052 53.3889 182.414 53.2833 182.783 53.288C182.932 53.2853 183.08 53.2999 183.226 53.3314L183.178 54.3808C183.009 54.3395 182.836 54.3185 182.663 54.3182C182.416 54.3129 182.172 54.3657 181.95 54.4722C181.761 54.5671 181.597 54.7038 181.469 54.8718C181.333 55.0467 181.231 55.246 181.17 55.459C181.106 55.6828 181.074 55.9146 181.074 56.1474V59.1464H179.943V54.6503C179.943 54.5155 179.943 54.3182 179.933 54.0775Z" fill="#1F333D"/>
<path d="M190.293 50.626C190.847 50.6277 191.398 50.7088 191.929 50.8667C192.468 51.0219 192.971 51.2802 193.412 51.6273C193.86 51.9834 194.225 52.4337 194.48 52.9462C194.766 53.5469 194.907 54.2066 194.89 54.8717C194.907 55.5275 194.766 56.1778 194.48 56.7683C194.222 57.2792 193.858 57.729 193.412 58.0873C192.97 58.438 192.468 58.704 191.929 58.8719C191.4 59.0429 190.848 59.1306 190.293 59.1319H187.371V50.6116L190.293 50.626ZM190.052 58.0969C190.542 58.104 191.03 58.0308 191.496 57.8803C191.911 57.7502 192.296 57.5373 192.627 57.2545C192.95 56.9802 193.204 56.634 193.369 56.2436C193.552 55.8149 193.642 55.3523 193.633 54.8862C193.644 54.4074 193.554 53.9318 193.369 53.4902C193.203 53.102 192.949 52.7576 192.627 52.4841C192.295 52.2059 191.911 51.9979 191.496 51.8728C191.029 51.7263 190.541 51.6548 190.052 51.661H188.56V58.0969H190.052Z" fill="#1F333D"/>
<path d="M197.571 51.9016C197.426 52.0363 197.234 52.1104 197.036 52.1086C196.939 52.1102 196.841 52.0924 196.75 52.056C196.659 52.0196 196.577 51.9655 196.507 51.8968C196.437 51.8314 196.382 51.7522 196.345 51.6644C196.308 51.5766 196.289 51.4819 196.29 51.3865C196.288 51.2887 196.306 51.1915 196.343 51.1011C196.38 51.0108 196.436 50.9292 196.507 50.8618C196.577 50.7931 196.659 50.7389 196.75 50.7026C196.841 50.6662 196.939 50.6483 197.036 50.65C197.236 50.6475 197.428 50.7236 197.571 50.8618C197.643 50.9282 197.7 51.0095 197.739 51.1C197.777 51.1906 197.795 51.2883 197.792 51.3865C197.795 51.4833 197.777 51.5796 197.738 51.6685C197.7 51.7575 197.643 51.837 197.571 51.9016ZM196.468 59.1462V53.442H197.6V59.1462H196.468Z" fill="#1F333D"/>
<path d="M200.964 60.7926C201.323 60.959 201.714 61.046 202.11 61.0477C202.439 61.0568 202.766 61.0012 203.073 60.8841C203.312 60.788 203.524 60.6342 203.689 60.4364C203.85 60.2431 203.965 60.0161 204.026 59.7721C204.099 59.5006 204.135 59.2204 204.132 58.9393V58.2076C203.92 58.5267 203.623 58.7802 203.275 58.9393C202.913 59.1087 202.519 59.1958 202.12 59.1944C201.713 59.1998 201.31 59.1211 200.935 58.9634C200.592 58.821 200.282 58.6078 200.026 58.3376C199.776 58.0675 199.58 57.7522 199.448 57.4085C199.177 56.6638 199.177 55.8474 199.448 55.1028C199.578 54.7481 199.774 54.4214 200.026 54.14C200.28 53.8669 200.588 53.649 200.931 53.4998C201.303 53.3416 201.705 53.2629 202.11 53.2687C202.514 53.2677 202.914 53.3564 203.28 53.5287C203.65 53.7027 203.959 53.9846 204.165 54.3374V54.3374V53.4228H205.273V58.8382C205.274 59.2415 205.221 59.6431 205.114 60.032C205.015 60.4043 204.834 60.7497 204.584 61.0429C204.32 61.348 203.991 61.5898 203.621 61.7505C203.147 61.9369 202.639 62.0253 202.129 62.0104C201.618 62.0096 201.111 61.9183 200.632 61.7409C200.154 61.577 199.713 61.3184 199.337 60.9803L200.059 60.0994C200.308 60.3923 200.617 60.6287 200.964 60.7926ZM200.483 56.9897C200.563 57.2255 200.689 57.443 200.854 57.63C201.02 57.8166 201.224 57.9673 201.451 58.0728C201.698 58.1904 201.97 58.2481 202.245 58.2413C202.517 58.2437 202.787 58.1914 203.039 58.0873C203.27 57.9871 203.477 57.8413 203.65 57.6588C203.82 57.4745 203.953 57.2586 204.04 57.0234C204.136 56.7714 204.183 56.5036 204.18 56.234C204.183 55.9707 204.136 55.7091 204.04 55.4638C203.952 55.2255 203.818 55.0073 203.644 54.8221C203.471 54.6369 203.261 54.4884 203.029 54.3855C202.667 54.2187 202.262 54.1708 201.871 54.2486C201.48 54.3264 201.124 54.526 200.854 54.8187C200.687 55.0043 200.561 55.2223 200.483 55.459C200.395 55.7078 200.351 55.9701 200.353 56.234C200.36 56.493 200.412 56.7488 200.507 56.9897H200.483Z" fill="#1F333D"/>
<path d="M208.305 51.9016C208.159 52.037 207.966 52.1111 207.766 52.1086C207.668 52.1102 207.571 52.0924 207.48 52.056C207.389 52.0196 207.306 51.9655 207.237 51.8968C207.167 51.8314 207.112 51.7522 207.075 51.6644C207.038 51.5766 207.019 51.4819 207.02 51.3865C207.017 51.2887 207.035 51.1915 207.073 51.1011C207.11 51.0108 207.166 50.9292 207.237 50.8618C207.306 50.7931 207.389 50.7389 207.48 50.7026C207.571 50.6662 207.668 50.6483 207.766 50.65C207.967 50.6467 208.161 50.7229 208.305 50.8618C208.377 50.929 208.434 51.0104 208.472 51.1007C208.51 51.1911 208.529 51.2884 208.527 51.3865C208.529 51.4832 208.51 51.5791 208.472 51.668C208.434 51.7568 208.377 51.8364 208.305 51.9016ZM207.198 59.1462V53.442H208.329V59.1462H207.198Z" fill="#1F333D"/>
<path d="M211.584 54.3663V57.3412C211.559 57.6017 211.627 57.8627 211.776 58.0777C211.855 58.1584 211.951 58.2205 212.056 58.2596C212.162 58.2988 212.275 58.3139 212.387 58.3039C212.501 58.3022 212.614 58.2893 212.724 58.2654C212.838 58.2447 212.948 58.2091 213.052 58.1595L213.085 59.0838C212.938 59.1353 212.787 59.174 212.633 59.1993C212.464 59.2287 212.294 59.2431 212.123 59.2426C211.897 59.2575 211.672 59.2255 211.459 59.1484C211.247 59.0713 211.054 58.9509 210.89 58.7949C210.579 58.4234 210.425 57.9449 210.462 57.4615V54.3663H209.369V53.4421H210.462V51.8054H211.584V53.4421H213.1V54.3663H211.584Z" fill="#1F333D"/>
<path d="M217.432 54.506C217.135 54.2905 216.774 54.182 216.407 54.1979C216.094 54.1964 215.784 54.2604 215.497 54.3856C215.232 54.5001 214.99 54.6634 214.785 54.867L214.183 54.1449C214.48 53.8702 214.828 53.6574 215.208 53.5192C215.627 53.3647 216.071 53.288 216.518 53.2929C216.88 53.2853 217.24 53.344 217.581 53.4662C217.86 53.5713 218.113 53.7355 218.323 53.9476C218.517 54.1512 218.664 54.3942 218.756 54.66C218.854 54.9417 218.903 55.238 218.901 55.5361V58.02C218.901 58.2125 218.901 58.4147 218.901 58.6265C218.909 58.8029 218.931 58.9784 218.968 59.1512H217.947C217.882 58.8833 217.85 58.6085 217.851 58.3329H217.813C217.612 58.6301 217.34 58.8731 217.023 59.0405C216.676 59.2175 216.291 59.3052 215.902 59.2956C215.663 59.2924 215.425 59.2617 215.194 59.2042C214.957 59.1453 214.732 59.0459 214.53 58.9105C214.332 58.7659 214.168 58.5804 214.048 58.3665C213.91 58.113 213.842 57.8272 213.851 57.5386C213.831 57.1636 213.955 56.7951 214.197 56.5085C214.452 56.2458 214.766 56.0478 215.112 55.9308C215.525 55.7938 215.954 55.7066 216.388 55.6709C216.869 55.6324 217.35 55.6131 217.832 55.6131V55.4542C217.844 55.2759 217.814 55.0972 217.745 54.9325C217.676 54.7678 217.569 54.6217 217.432 54.506V54.506ZM216.667 56.4603C216.39 56.48 216.116 56.5284 215.849 56.6047C215.624 56.6663 215.417 56.7783 215.242 56.9321C215.161 57.0043 215.098 57.0937 215.056 57.1937C215.015 57.2936 214.996 57.4016 215.001 57.5097C214.996 57.656 215.031 57.8009 215.102 57.9285C215.169 58.0415 215.261 58.1372 215.372 58.2077C215.487 58.2799 215.614 58.3304 215.747 58.3569C215.885 58.3861 216.026 58.4006 216.166 58.4002C216.393 58.4141 216.62 58.3783 216.831 58.2951C217.042 58.2119 217.233 58.0835 217.389 57.9189C217.679 57.5881 217.832 57.1597 217.817 56.7203V56.4218H217.538C217.259 56.4266 216.965 56.4363 216.667 56.4603Z" fill="#1F333D"/>
<path d="M220.812 59.1463V50.0483H221.943V59.1463H220.812Z" fill="#1F333D"/>
<path d="M226.988 59.1463V50.626H228.177V59.1463H226.988Z" fill="#1F333D"/>
<path d="M231.267 53.9282C231.267 54.1111 231.267 54.2603 231.267 54.3806H231.306C231.38 54.2233 231.479 54.0787 231.599 53.9522C231.727 53.819 231.871 53.7025 232.028 53.6056C232.192 53.5031 232.371 53.4237 232.557 53.3698C232.753 53.313 232.955 53.2854 233.159 53.2879C233.489 53.2761 233.818 53.3386 234.122 53.4708C234.374 53.5832 234.6 53.7472 234.786 53.9522C234.963 54.1677 235.096 54.4165 235.176 54.6839C235.26 54.9781 235.302 55.2828 235.301 55.5889V59.127H234.155V55.9595C234.155 55.7386 234.138 55.5181 234.102 55.3001C234.07 55.1052 234.004 54.9176 233.905 54.7465C233.807 54.586 233.669 54.4534 233.505 54.3614C233.305 54.2577 233.081 54.2079 232.856 54.217C232.645 54.212 232.436 54.2555 232.245 54.3439C232.054 54.4324 231.886 54.5635 231.753 54.7272C231.454 55.1182 231.304 55.6028 231.33 56.0943V59.127H230.198V54.6502C230.198 54.4962 230.198 54.2988 230.198 54.0581C230.198 53.8174 230.198 53.6056 230.165 53.4227H231.233C231.229 53.5864 231.238 53.75 231.267 53.9282Z" fill="#1F333D"/>
<path d="M240.856 59.0308C240.49 59.2078 240.088 59.3 239.681 59.3004C239.273 59.3079 238.867 59.2275 238.492 59.0645C238.149 58.917 237.841 58.6988 237.587 58.4243C237.336 58.1428 237.14 57.8161 237.01 57.4615C236.874 57.0833 236.805 56.6841 236.807 56.2822C236.805 55.8818 236.873 55.484 237.01 55.1076C237.139 54.7516 237.337 54.4245 237.592 54.1449C237.849 53.8738 238.159 53.6577 238.502 53.5095C238.872 53.3536 239.27 53.2765 239.672 53.2832C240.095 53.2727 240.513 53.374 240.885 53.5769C241.206 53.7524 241.485 53.9955 241.703 54.2893V54.2893V50.0436H242.834V59.1415H241.737V58.2365C241.525 58.5798 241.219 58.8553 240.856 59.0308V59.0308ZM238.107 57.0524C238.184 57.2951 238.309 57.52 238.474 57.7135C238.639 57.907 238.842 58.0653 239.07 58.1788C239.325 58.2995 239.606 58.3588 239.888 58.3521C240.161 58.3549 240.43 58.2974 240.678 58.1836C240.907 58.0735 241.113 57.9198 241.284 57.7311C241.454 57.5393 241.586 57.3172 241.674 57.0764C241.86 56.5715 241.86 56.0169 241.674 55.512C241.587 55.2682 241.454 55.043 241.284 54.8477C241.114 54.6565 240.908 54.501 240.678 54.3904C240.43 54.2766 240.161 54.219 239.888 54.2219C239.606 54.216 239.327 54.2736 239.07 54.3904C238.844 54.4996 238.644 54.6555 238.483 54.8477C238.318 55.042 238.195 55.2681 238.122 55.512C237.961 56.0129 237.961 56.5515 238.122 57.0524H238.107Z" fill="#1F333D"/>
<path d="M248.818 58.6552C248.818 58.4787 248.818 58.3295 248.818 58.2076C248.656 58.5312 248.404 58.8005 248.091 58.9826C247.75 59.1939 247.356 59.3041 246.955 59.3003C246.625 59.3098 246.297 59.2491 245.992 59.1222C245.736 59.0154 245.509 58.8506 245.328 58.6408C245.154 58.4204 245.023 58.1688 244.943 57.8995C244.859 57.6069 244.816 57.3038 244.818 56.9993V53.4612H245.949V56.5757C245.949 56.7998 245.967 57.0235 246.002 57.2448C246.035 57.4415 246.104 57.6306 246.204 57.8032C246.3 57.9635 246.436 58.0961 246.599 58.1883C246.799 58.292 247.023 58.3418 247.249 58.3327C247.46 58.3389 247.671 58.2956 247.863 58.2062C248.055 58.1168 248.224 57.9837 248.356 57.8177C248.652 57.4273 248.8 56.9447 248.775 56.4554V53.4227H249.906V57.8995C249.906 58.0487 249.906 58.2461 249.906 58.4867C249.906 58.7274 249.906 58.9392 249.939 59.127H248.871C248.837 58.9826 248.823 58.8382 248.818 58.6552Z" fill="#1F333D"/>
<path d="M254.373 54.3758C254.136 54.2396 253.866 54.1698 253.593 54.1737C253.463 54.1738 253.334 54.1883 253.208 54.217C253.087 54.242 252.972 54.2876 252.866 54.3518C252.768 54.4062 252.686 54.4839 252.625 54.578C252.561 54.68 252.529 54.7992 252.534 54.9198C252.531 55.0316 252.56 55.1419 252.618 55.2375C252.676 55.3331 252.761 55.41 252.861 55.4589C253.167 55.6052 253.491 55.712 253.824 55.7767C254.082 55.8357 254.336 55.9112 254.585 56.0029C254.801 56.0861 255.005 56.1978 255.191 56.335C255.359 56.4633 255.496 56.6279 255.591 56.8164C255.691 57.018 255.741 57.2411 255.735 57.4663C255.745 57.7615 255.68 58.0544 255.547 58.3183C255.422 58.5464 255.246 58.7424 255.032 58.8911C254.813 59.0439 254.566 59.1518 254.305 59.2088C254.029 59.2725 253.747 59.3048 253.463 59.3051C253.027 59.3054 252.595 59.2204 252.192 59.0548C251.789 58.8913 251.436 58.6258 251.167 58.2846L251.971 57.5962C252.136 57.8301 252.352 58.0242 252.601 58.1642C252.872 58.3148 253.177 58.3928 253.487 58.3905C253.626 58.3911 253.765 58.3765 253.901 58.3472C254.029 58.3243 254.151 58.2786 254.262 58.2124C254.369 58.1506 254.458 58.0629 254.522 57.9573C254.59 57.837 254.623 57.7005 254.618 57.5625C254.622 57.4371 254.587 57.3136 254.519 57.208C254.452 57.1024 254.353 57.0196 254.238 56.9705C253.882 56.8099 253.509 56.6888 253.126 56.6094C252.934 56.5613 252.741 56.5035 252.544 56.4361C252.351 56.3707 252.171 56.2748 252.009 56.1521C251.832 56.0268 251.689 55.8587 251.594 55.6635C251.499 55.4683 251.455 55.2522 251.465 55.0353C251.457 54.7752 251.515 54.5172 251.633 54.2851C251.751 54.0529 251.925 53.8541 252.139 53.7067C252.348 53.5624 252.581 53.4565 252.828 53.3939C253.087 53.3259 253.354 53.2919 253.622 53.2928C254.029 53.2907 254.432 53.3727 254.806 53.5334C255.162 53.672 255.469 53.9133 255.687 54.2266L254.907 54.8909C254.777 54.6756 254.593 54.4981 254.373 54.3758V54.3758Z" fill="#1F333D"/>
<path d="M258.455 54.3663V57.3412C258.43 57.6017 258.498 57.8627 258.647 58.0777C258.727 58.1585 258.824 58.2206 258.93 58.2597C259.037 58.2988 259.15 58.314 259.264 58.3039C259.375 58.3019 259.486 58.289 259.596 58.2654C259.709 58.2447 259.819 58.2091 259.923 58.1595L259.957 59.0838C259.811 59.1347 259.661 59.1734 259.509 59.1993C259.341 59.2284 259.17 59.2429 258.999 59.2426C258.773 59.2579 258.546 59.226 258.333 59.149C258.12 59.0719 257.925 58.9513 257.762 58.7949C257.452 58.4226 257.3 57.9442 257.338 57.4615V54.3663H256.24V53.4421H257.338V51.8054H258.455V53.4421H259.971V54.3663H258.455Z" fill="#1F333D"/>
<path d="M261.112 54.0775C261.112 53.8368 261.112 53.625 261.078 53.4421H262.147C262.147 53.5865 262.176 53.755 262.181 53.9235C262.185 54.0919 262.181 54.2652 262.181 54.4048H262.219C262.374 54.0741 262.617 53.7926 262.922 53.5913C263.231 53.3889 263.593 53.2833 263.962 53.288C264.111 53.2853 264.259 53.2999 264.405 53.3314L264.356 54.3808C264.188 54.3395 264.015 54.3185 263.841 54.3182C263.595 54.3129 263.351 54.3657 263.129 54.4722C262.94 54.5671 262.776 54.7038 262.648 54.8718C262.511 55.0458 262.411 55.2455 262.354 55.459C262.287 55.6823 262.255 55.9144 262.258 56.1474V59.1464H261.126V54.6503C261.136 54.5091 261.131 54.3182 261.112 54.0775Z" fill="#1F333D"/>
<path d="M266.609 51.9016C266.464 52.0363 266.273 52.1104 266.075 52.1086C265.977 52.1105 265.88 52.0928 265.789 52.0564C265.698 52.02 265.615 51.9658 265.545 51.8968C265.476 51.8314 265.421 51.7523 265.384 51.6644C265.346 51.5766 265.328 51.482 265.329 51.3865C265.326 51.2888 265.344 51.1916 265.381 51.1012C265.419 51.0108 265.475 50.9293 265.545 50.8619C265.615 50.7929 265.698 50.7386 265.789 50.7022C265.88 50.6658 265.977 50.6481 266.075 50.65C266.274 50.6475 266.466 50.7236 266.609 50.8619C266.682 50.9282 266.739 51.0095 266.777 51.1C266.815 51.1906 266.834 51.2883 266.831 51.3865C266.834 51.4833 266.815 51.5796 266.777 51.6686C266.739 51.7576 266.682 51.8371 266.609 51.9016V51.9016ZM265.507 59.1463V53.442H266.638V59.1463H265.507Z" fill="#1F333D"/>
<path d="M273.931 56.4361C273.936 56.5002 273.936 56.5646 273.931 56.6287H269.411C269.415 56.8652 269.469 57.0982 269.57 57.3123C269.668 57.5197 269.805 57.7061 269.974 57.861C270.144 58.0195 270.341 58.1452 270.557 58.2317C270.833 58.3346 271.128 58.3772 271.422 58.3564C271.716 58.3357 272.002 58.2521 272.261 58.1113C272.524 57.9578 272.749 57.7473 272.92 57.4951L273.714 58.1354C273.435 58.5137 273.066 58.8165 272.641 59.0163C271.822 59.3701 270.897 59.3943 270.061 59.0837C269.702 58.9499 269.374 58.7434 269.098 58.4772C268.827 58.2019 268.614 57.8743 268.472 57.5144C268.316 57.1243 268.239 56.707 268.246 56.2869C268.241 55.869 268.316 55.4539 268.467 55.0642C268.604 54.708 268.813 54.3841 269.082 54.1131C269.35 53.842 269.672 53.6299 270.027 53.4902C270.397 53.3393 270.793 53.264 271.192 53.2687C271.58 53.2635 271.966 53.3321 272.328 53.4709C272.658 53.5982 272.954 53.7991 273.195 54.0582C273.438 54.3296 273.625 54.6472 273.743 54.992C273.878 55.3888 273.943 55.8056 273.936 56.2243L273.931 56.4361ZM272.675 55.1557C272.611 54.9658 272.508 54.7918 272.371 54.6454C272.238 54.4972 272.074 54.3805 271.89 54.3037C271.67 54.2128 271.434 54.1685 271.197 54.1737C270.964 54.1722 270.734 54.2163 270.518 54.3037C270.313 54.381 270.125 54.497 269.965 54.6454C269.806 54.7906 269.676 54.9635 269.579 55.1557C269.479 55.3517 269.42 55.5664 269.406 55.7863H272.776C272.771 55.5716 272.734 55.3589 272.665 55.1557H272.675Z" fill="#1F333D"/>
<path d="M278.047 54.3758C277.808 54.2394 277.537 54.1696 277.262 54.1737C277.133 54.1741 277.003 54.1886 276.877 54.217C276.757 54.2429 276.641 54.2885 276.535 54.3518C276.439 54.4076 276.356 54.485 276.295 54.578C276.234 54.6814 276.204 54.8 276.208 54.9198C276.204 55.0312 276.232 55.1414 276.29 55.2371C276.347 55.3327 276.43 55.4098 276.531 55.4589C276.837 55.6052 277.16 55.712 277.493 55.7767C277.752 55.835 278.006 55.9106 278.254 56.0029C278.47 56.0861 278.674 56.1978 278.86 56.335C279.029 56.4632 279.168 56.6277 279.265 56.8164C279.365 57.018 279.415 57.2411 279.409 57.4663C279.42 57.7621 279.353 58.0557 279.217 58.3183C279.093 58.5461 278.918 58.7422 278.706 58.8911C278.485 59.043 278.237 59.1509 277.975 59.2088C277.698 59.2728 277.416 59.3051 277.132 59.3051C276.698 59.3054 276.268 59.2203 275.866 59.0548C275.462 58.8914 275.107 58.626 274.836 58.2846L275.645 57.5962C275.807 57.8329 276.023 58.0276 276.275 58.1642C276.545 58.3142 276.848 58.3922 277.156 58.3905C277.297 58.3909 277.437 58.3764 277.575 58.3472C277.702 58.3226 277.824 58.2771 277.936 58.2124C278.04 58.1491 278.128 58.0615 278.191 57.9573C278.261 57.8379 278.295 57.7007 278.288 57.5625C278.291 57.4378 278.256 57.3149 278.19 57.2095C278.123 57.1041 278.026 57.0209 277.912 56.9705C277.554 56.8108 277.179 56.6897 276.795 56.6094C276.607 56.5613 276.41 56.5035 276.213 56.4361C276.021 56.3707 275.84 56.2748 275.678 56.1521C275.519 56.0315 275.386 55.8791 275.289 55.7044C275.183 55.4978 275.131 55.2674 275.139 55.0353C275.133 54.761 275.196 54.4895 275.322 54.2459C275.44 54.0319 275.604 53.8475 275.804 53.7067C276.011 53.5625 276.242 53.4566 276.487 53.3939C276.746 53.3259 277.013 53.2919 277.281 53.2928C277.688 53.2907 278.092 53.3727 278.466 53.5334C278.823 53.6725 279.131 53.9136 279.351 54.2266L278.567 54.8909C278.441 54.6774 278.261 54.5001 278.047 54.3758V54.3758Z" fill="#1F333D"/>
</svg>
