<svg width="1903" height="728" fill="none" xmlns="http://www.w3.org/2000/svg"><path fill="url(#paint0_radial_6261_5017)" d="M0 0h1903v728H0z"/><path d="M758.635 172.328h-2.531v-8.389l-2.469.807v-1.781l4.733-1.637h.267v11zm-678.791-23.15h-3.543v-13.729l-3.457 1.321v-2.913l6.626-2.679h.374v18zm123.012 110.787h-2.531v-8.39l-2.469.808v-1.781l4.733-1.637h.267v11zm356.538 219.596h-2.532v-8.39l-2.468.807v-1.78l4.732-1.637h.268v11zm173.302 44.49h-7.087v-28.22l-6.913 2.716v-5.989l13.252-5.507h.748v37zm126.832.426h-2.531v-8.39l-2.469.807v-1.78l4.733-1.637h.267v11zM138.999 596h-4.556v-16.016l-4.444 1.541v-3.399l8.519-3.126h.481v21zM1459.86 339.965h-7.09v-28.22l-6.91 2.716v-5.989l13.25-5.507h.75v37zm-257.92 8.525h-7.09v-28.219l-6.91 2.715v-5.989l13.25-5.507h.75v37zM1756.91 107h-7.08V78.78l-6.92 2.716v-5.99L1756.17 70h.74v37zM931.854 596h-5.062v-19.83l-4.938 1.908v-4.208l9.466-3.87h.534v26zm720.656-219.314h-3.54v-13.729l-3.46 1.321v-2.913l6.63-2.679h.37v18zm184.64 67.294h-3.55v-13.728l-3.45 1.321v-2.914l6.62-2.679h.38v18zm-296.97-273.945h-2.54v-8.389l-2.46.807v-1.781l4.73-1.637h.27v11zm-109.57-71.519h-2.54v-8.39l-2.46.807v-1.78l4.73-1.637h.27v11zm-208.3 61h-2.53v-8.39l-2.47.807v-1.78l4.73-1.637h.27v11zM1680.85 606h-3.54v-13.728l-3.46 1.321v-2.914l6.63-2.679h.37v18zm-649.78-195.807c0 7.537-1.34 13.301-4.03 17.294-2.66 3.993-6.47 5.99-11.43 5.99-4.91 0-8.71-1.934-11.4-5.803-2.66-3.893-4.04-9.458-4.14-16.695v-10.294c0-7.511 1.33-13.251 4-17.219 2.66-3.993 6.48-5.989 11.47-5.989 4.98 0 8.8 1.971 11.47 5.914 2.66 3.943 4.01 9.57 4.06 16.882v9.92zm-10.4-11.043c0-4.292-.42-7.511-1.25-9.657-.83-2.147-2.12-3.22-3.88-3.22-3.3 0-5.01 3.931-5.13 11.792v13.588c0 4.392.41 7.661 1.24 9.808.86 2.146 2.18 3.219 3.96 3.219 1.69 0 2.93-.998 3.74-2.995.83-2.021 1.27-5.103 1.32-9.246V399.15zm762.35 119.086c0 4.172-.74 7.363-2.21 9.573-1.46 2.211-3.55 3.316-6.27 3.316-2.7 0-4.78-1.071-6.25-3.212-1.46-2.155-2.22-5.236-2.27-9.242v-5.698c0-4.159.73-7.336 2.19-9.532 1.46-2.211 3.55-3.316 6.29-3.316 2.73 0 4.83 1.091 6.29 3.274s2.2 5.298 2.23 9.346v5.491zm-5.71-6.113c0-2.376-.23-4.158-.68-5.346-.46-1.188-1.17-1.782-2.13-1.782-1.81 0-2.75 2.175-2.82 6.527v7.522c0 2.431.23 4.241.69 5.429.47 1.188 1.19 1.782 2.17 1.782.92 0 1.6-.552 2.05-1.657.45-1.119.69-2.825.72-5.119v-7.356zm-411.29-329.781c0 7.536-1.34 13.301-4.03 17.294-2.66 3.993-6.47 5.989-11.43 5.989-4.91 0-8.71-1.934-11.39-5.802-2.67-3.893-4.05-9.458-4.15-16.695v-10.294c0-7.512 1.34-13.252 4-17.22 2.66-3.993 6.48-5.989 11.47-5.989 4.98 0 8.8 1.971 11.47 5.914 2.66 3.943 4.02 9.571 4.06 16.883v9.92zm-10.4-11.043c0-4.293-.42-7.512-1.25-9.658-.83-2.146-2.12-3.219-3.88-3.219-3.3 0-5.01 3.93-5.13 11.791v13.588c0 4.393.41 7.662 1.24 9.808.86 2.146 2.18 3.219 3.96 3.219 1.69 0 2.93-.998 3.74-2.994.83-2.022 1.27-5.104 1.32-9.246v-13.289zM476.856 345.681c0 7.537-1.343 13.302-4.03 17.295-2.663 3.992-6.474 5.989-11.433 5.989-4.91 0-8.709-1.934-11.396-5.802-2.663-3.893-4.043-9.458-4.141-16.695v-10.295c0-7.511 1.332-13.251 3.995-17.219 2.662-3.993 6.485-5.989 11.469-5.989 4.983 0 8.806 1.971 11.469 5.914 2.663 3.943 4.019 9.571 4.067 16.883v9.919zm-10.406-11.042c0-4.293-.415-7.512-1.246-9.658s-2.125-3.219-3.884-3.219c-3.298 0-5.008 3.93-5.13 11.791v13.588c0 4.392.415 7.662 1.246 9.808.855 2.146 2.174 3.219 3.957 3.219 1.686 0 2.932-.998 3.738-2.995.83-2.021 1.27-5.103 1.319-9.246v-13.288zM85.855 394H75.73v-40.422l-9.876 3.889v-8.579L84.785 341h1.07v53zm280.001-293.924c0 4.172-.736 7.363-2.21 9.573-1.46 2.211-3.55 3.316-6.269 3.316-2.693 0-4.776-1.071-6.25-3.212-1.46-2.155-2.217-5.236-2.271-9.242v-5.699c0-4.158.731-7.335 2.191-9.532 1.46-2.21 3.556-3.315 6.289-3.315 2.733 0 4.83 1.091 6.29 3.274s2.204 5.298 2.23 9.346v5.491zm-5.706-6.113c0-2.376-.228-4.158-.684-5.346-.455-1.189-1.165-1.782-2.13-1.782-1.808 0-2.746 2.175-2.813 6.527v7.522c0 2.431.228 4.241.683 5.429.469 1.188 1.193 1.782 2.171 1.782.924 0 1.607-.552 2.049-1.658.456-1.119.697-2.825.724-5.118v-7.356zm172.704 98.148c0 4.172-.736 7.363-2.21 9.573-1.46 2.211-3.55 3.316-6.269 3.316-2.693 0-4.776-1.071-6.25-3.212-1.46-2.155-2.217-5.236-2.271-9.242v-5.698c0-4.159.731-7.336 2.191-9.532 1.46-2.211 3.557-3.316 6.289-3.316 2.733 0 4.83 1.091 6.29 3.274s2.204 5.298 2.23 9.346v5.491zm-5.706-6.113c0-2.376-.228-4.158-.684-5.346-.455-1.188-1.165-1.782-2.13-1.782-1.808 0-2.746 2.175-2.813 6.527v7.522c0 2.431.228 4.241.683 5.429.469 1.188 1.193 1.782 2.171 1.782.924 0 1.607-.552 2.049-1.657.456-1.119.697-2.825.724-5.119v-7.356zm11.706 422.113c0 4.172-.736 7.363-2.21 9.573-1.46 2.211-3.55 3.316-6.269 3.316-2.693 0-4.776-1.071-6.25-3.212-1.46-2.155-2.217-5.236-2.271-9.242v-5.698c0-4.159.731-7.336 2.191-9.532 1.46-2.211 3.557-3.316 6.289-3.316 2.733 0 4.83 1.091 6.29 3.274s2.204 5.298 2.23 9.346v5.491zm-5.706-6.113c0-2.376-.228-4.158-.684-5.346-.455-1.188-1.165-1.782-2.13-1.782-1.808 0-2.746 2.175-2.813 6.527v7.522c0 2.431.228 4.241.683 5.429.469 1.188 1.193 1.782 2.171 1.782.924 0 1.607-.552 2.049-1.657.456-1.119.697-2.825.724-5.119v-7.356zm905.712-153.596c0 3.095-.57 5.463-1.69 7.103-1.12 1.64-2.72 2.46-4.8 2.46-2.06 0-3.65-.794-4.78-2.383-1.11-1.599-1.69-3.885-1.73-6.857v-4.228c0-3.085.55-5.443 1.67-7.072 1.12-1.64 2.72-2.46 4.81-2.46 2.09 0 3.69.81 4.81 2.429 1.12 1.619 1.69 3.931 1.71 6.934v4.074zm-4.37-4.535c0-1.763-.17-3.086-.52-3.967-.35-.881-.89-1.322-1.63-1.322-1.38 0-2.1 1.614-2.15 4.843v5.581c0 1.804.17 3.146.52 4.028.36.881.91 1.322 1.66 1.322.71 0 1.23-.41 1.57-1.23.35-.83.53-2.096.55-3.798v-5.457zm-121.28 116.359c0 3.096-.57 5.463-1.69 7.103-1.12 1.64-2.72 2.46-4.8 2.46-2.06 0-3.65-.794-4.78-2.383-1.11-1.599-1.69-3.885-1.73-6.857v-4.228c0-3.085.55-5.442 1.67-7.072 1.12-1.64 2.72-2.46 4.81-2.46 2.09 0 3.69.81 4.81 2.429 1.12 1.62 1.69 3.931 1.71 6.934v4.074zm-4.37-4.535c0-1.763-.17-3.085-.52-3.967-.35-.881-.89-1.322-1.63-1.322-1.38 0-2.1 1.614-2.15 4.843v5.581c0 1.804.17 3.146.52 4.028.36.881.91 1.322 1.66 1.322.71 0 1.23-.41 1.57-1.23.35-.83.53-2.096.55-3.797v-5.458zM730.551 285.83c0 4.172-.737 7.363-2.211 9.573-1.46 2.211-3.55 3.316-6.269 3.316-2.693 0-4.776-1.071-6.25-3.212-1.46-2.155-2.217-5.236-2.27-9.242v-5.699c0-4.158.73-7.335 2.19-9.532 1.46-2.21 3.557-3.315 6.29-3.315s4.829 1.091 6.289 3.274 2.204 5.298 2.231 9.345v5.492zm-5.707-6.113c0-2.376-.228-4.158-.683-5.347-.456-1.188-1.166-1.782-2.13-1.782-1.809 0-2.747 2.176-2.814 6.528v7.522c0 2.431.228 4.241.684 5.429.469 1.188 1.192 1.782 2.17 1.782.924 0 1.607-.552 2.05-1.658.455-1.119.696-2.825.723-5.118v-7.356zm977.076-28.262c0 3.095-.57 5.463-1.69 7.103-1.12 1.64-2.72 2.46-4.8 2.46-2.06 0-3.65-.795-4.78-2.383-1.11-1.599-1.69-3.885-1.73-6.857v-4.228c0-3.085.56-5.443 1.67-7.073 1.12-1.639 2.72-2.459 4.81-2.459 2.09 0 3.7.809 4.81 2.429 1.12 1.619 1.69 3.93 1.71 6.934v4.074zm-4.37-4.536c0-1.763-.17-3.085-.52-3.966-.35-.882-.89-1.322-1.63-1.322-1.38 0-2.1 1.614-2.15 4.842v5.581c0 1.804.18 3.147.52 4.028.36.882.92 1.323 1.66 1.323.71 0 1.23-.41 1.57-1.23.35-.831.53-2.096.55-3.798v-5.458zM243.63 456.066h-3.544v-13.728l-3.456 1.321v-2.914l6.626-2.679h.374v18z" opacity=".4" fill="#fff"/><defs><radialGradient id="paint0_radial_6261_5017" cx="0" cy="0" r="1" gradientTransform="matrix(-835.439 486.891 -452.738 -898.462 1147.6 98.992)" gradientUnits="userSpaceOnUse"><stop stop-color="#4323B7"/><stop offset="1" stop-color="#014866"/></radialGradient></defs></svg>