<svg width="35" height="31" viewBox="0 0 35 31" fill="none" xmlns="http://www.w3.org/2000/svg">
<path d="M0 26.25V6.01562C0 5.12695 0.751953 4.375 1.64062 4.375C2.5293 4.375 3.28125 5.12695 3.28125 6.01562V25.7031C3.28125 26.5918 4.0332 27.3438 4.92188 27.3438C5.81055 27.3438 6.5625 26.5918 6.5625 25.7031V4.375C6.5625 1.98242 8.54492 0 10.9375 0H30.625C33.0176 0 35 1.98242 35 4.375V26.25C35 28.6426 33.0176 30.625 30.625 30.625H4.375C1.98242 30.625 0 28.6426 0 26.25ZM10.9375 6.5625V10.9375C10.9375 12.168 11.8945 13.125 13.125 13.125H17.5C18.7305 13.125 19.6875 12.168 19.6875 10.9375V6.5625C19.6875 5.33203 18.7305 4.375 17.5 4.375H13.125C11.8945 4.375 10.9375 5.33203 10.9375 6.5625ZM12.5781 22.9688C11.6895 22.9688 10.9375 23.7207 10.9375 24.6094C10.9375 25.498 11.6895 26.25 12.5781 26.25H28.9844C29.873 26.25 30.625 25.498 30.625 24.6094C30.625 23.7207 29.873 22.9688 28.9844 22.9688H12.5781ZM10.9375 18.0469C10.9375 18.9355 11.6895 19.6875 12.5781 19.6875H28.9844C29.873 19.6875 30.625 18.9355 30.625 18.0469C30.625 17.1582 29.873 16.4062 28.9844 16.4062H12.5781C11.6895 16.4062 10.9375 17.1582 10.9375 18.0469ZM24.6094 9.84375C23.7207 9.84375 22.9688 10.5957 22.9688 11.4844C22.9688 12.373 23.7207 13.125 24.6094 13.125H28.9844C29.873 13.125 30.625 12.373 30.625 11.4844C30.625 10.5957 29.873 9.84375 28.9844 9.84375H24.6094Z" fill="#343484"/>
</svg>
