<svg width="30" height="36" fill="none" xmlns="http://www.w3.org/2000/svg"><g clip-path="url(#clip0_6267_3295)"><path d="M15 3.688c.527 0 .967.185 1.318.556.371.352.557.791.557 1.319 0 .332-.088.644-.264.937-.156.273-.38.498-.674.674v2.138h4.688c.84 0 1.621.215 2.344.645a4.44 4.44 0 011.699 1.7c.43.722.645 1.503.645 2.343v1.875h2.812v7.5h-2.813v4.688H4.688v-4.688H1.876v-7.5h2.813V14c0-.84.205-1.621.615-2.344A4.654 4.654 0 017.03 9.957a4.506 4.506 0 012.344-.645h4.688V7.175a2.113 2.113 0 01-.704-.674 1.962 1.962 0 01-.234-.938c0-.527.176-.966.527-1.318.371-.37.82-.556 1.348-.556zm-5.625 7.5c-.781 0-1.445.273-1.992.82A2.712 2.712 0 006.563 14v12.188h1.875V21.5h13.124v4.688h1.875V14c0-.781-.273-1.445-.82-1.992a2.712 2.712 0 00-1.992-.82H9.375zm1.875 3.75c.527 0 .967.185 1.318.556.372.352.557.791.557 1.319 0 .527-.185.976-.557 1.347-.351.352-.79.527-1.318.527-.527 0-.977-.175-1.348-.527a1.889 1.889 0 01-.527-1.348c0-.527.176-.966.527-1.318.371-.371.82-.556 1.348-.556zm7.5 0c.527 0 .967.185 1.318.556.371.352.557.791.557 1.319 0 .527-.186.976-.557 1.347-.351.352-.79.527-1.318.527-.527 0-.977-.175-1.348-.527a1.889 1.889 0 01-.527-1.348c0-.527.176-.966.527-1.318.371-.371.82-.556 1.348-.556zm-15 2.812v3.75h.938v-3.75H3.75zm21.563 0v3.75h.937v-3.75h-.938zm-15 5.625v2.813h1.874v-2.813h-1.874zm3.75 0v2.813h1.874v-2.813h-1.874zm3.75 0v2.813h1.875v-2.813h-1.875z" fill="#000"/></g><defs><clipPath id="clip0_6267_3295"><path fill="#fff" d="M0 0h30v36H0z"/></clipPath></defs></svg>