<svg width="30" height="36" fill="none" xmlns="http://www.w3.org/2000/svg"><g clip-path="url(#clip0_6267_3290)"><path d="M15 7.438c1.191 0 2.285.292 3.281.878a6.445 6.445 0 012.403 2.403c.585.996.878 2.09.878 3.281a6.51 6.51 0 01-.878 3.31 6.512 6.512 0 01-2.403 2.374 6.354 6.354 0 01-3.281.878 7.22 7.22 0 00-3.75 1.026 7.52 7.52 0 00-2.754 2.724 7.382 7.382 0 00-.996 3.75H5.625c0-1.269.244-2.48.732-3.632a9.193 9.193 0 011.993-2.96 9.604 9.604 0 012.959-2.02 6.85 6.85 0 01-2.11-2.315A6.584 6.584 0 018.438 14c0-1.191.292-2.285.878-3.281a6.512 6.512 0 012.373-2.403A6.51 6.51 0 0115 7.437zm0 1.875c-.86 0-1.65.214-2.373.644-.703.41-1.27.977-1.7 1.7A4.567 4.567 0 0010.314 14c0 .86.205 1.65.615 2.373a5.05 5.05 0 001.699 1.7c.723.41 1.514.614 2.373.614.86 0 1.64-.205 2.344-.615a4.724 4.724 0 001.699-1.699c.43-.723.645-1.514.645-2.373 0-.86-.215-1.64-.645-2.344a4.44 4.44 0 00-1.7-1.699A4.407 4.407 0 0015 9.312zm7.588 10.312h1.875v1.963c.469.078 1.006.303 1.611.674l1.406-1.407 1.29 1.29-1.407 1.435c.196.371.332.645.41.82.137.313.225.596.264.85H30v1.875h-2.168c-.098.703-.313 1.27-.645 1.7l1.407 1.405-1.319 1.29-1.406-1.407c-.605.371-1.133.596-1.582.674v1.963h-1.875v-1.963c-.469-.078-1.006-.303-1.611-.674l-1.406 1.407-1.29-1.29 1.407-1.435a15.474 15.474 0 01-.41-.82 3.47 3.47 0 01-.264-.85h-1.963V25.25h2.168c.098-.703.313-1.27.645-1.7l-1.407-1.405 1.319-1.29 1.406 1.407c.605-.371 1.133-.596 1.582-.674v-1.963zm.85 3.75c-.801 0-1.475.273-2.022.82-.527.528-.791 1.192-.791 1.992 0 .801.264 1.475.791 2.022.547.527 1.22.791 2.021.791.801 0 1.465-.264 1.993-.791.547-.547.82-1.22.82-2.021 0-.801-.273-1.465-.82-1.993-.528-.547-1.192-.82-1.992-.82zm0 1.875c.234 0 .449.098.644.293.195.195.293.41.293.645 0 .234-.098.449-.293.644-.195.195-.41.293-.645.293a.78.78 0 01-.351-.088 1.163 1.163 0 01-.41-.351.816.816 0 01-.176-.498.86.86 0 01.059-.323c.058-.117.136-.224.234-.322a.893.893 0 01.293-.205.78.78 0 01.352-.088z" fill="#000"/></g><defs><clipPath id="clip0_6267_3290"><path fill="#fff" d="M0 0h30v36H0z"/></clipPath></defs></svg>