<svg width="30" height="36" fill="none" xmlns="http://www.w3.org/2000/svg"><g clip-path="url(#clip0_6267_3292)"><path d="M2.813 8.375h9.374c.547 0 1.065.117 1.553.352.489.214.908.517 1.26.908a3.65 3.65 0 011.26-.908 3.543 3.543 0 011.552-.352h9.375v17.813h-9.375c-.507 0-.947.185-1.318.556-.371.371-.556.81-.556 1.319h-1.876c0-.508-.185-.948-.556-1.319a1.802 1.802 0 00-1.319-.556H2.813V8.375zm1.874 1.875v14.063h7.5c.547 0 1.065.117 1.553.351.489.215.908.518 1.26.908.352-.39.771-.693 1.26-.908a3.542 3.542 0 011.552-.352h7.5V10.25h-7.5a1.8 1.8 0 00-1.318.557c-.371.37-.556.81-.556 1.318h-1.876a1.8 1.8 0 00-.556-1.318 1.802 1.802 0 00-1.319-.557h-7.5zM14.063 14h1.876v1.875h-1.876V14zm0 3.75h1.876v1.875h-1.876V17.75zm0 3.75h1.876v1.875h-1.876V21.5z" fill="#000"/></g><defs><clipPath id="clip0_6267_3292"><path fill="#fff" d="M0 0h30v36H0z"/></clipPath></defs></svg>