<svg width="30" height="36" fill="none" xmlns="http://www.w3.org/2000/svg"><g clip-path="url(#clip0_6267_3294)"><path d="M12.363 5.563h5.274l.703 3.544a9.46 9.46 0 012.431 1.436l2.725-.938.733-.234 2.636 4.57-2.666 2.344.03.264c.097.527.146.928.146 1.201s-.049.674-.146 1.201l-.03.264 2.666 2.344-2.636 4.57-.733-.235-2.724-.937a9.472 9.472 0 01-2.432 1.436l-.703 3.544h-5.274l-.703-3.544a9.471 9.471 0 01-2.431-1.436l-2.725.938-.733.234-2.636-4.57L5.8 19.215l-.03-.264c-.097-.527-.146-.928-.146-1.201s.049-.674.146-1.201l.03-.264-2.666-2.344 2.636-4.57.733.234 2.725.938a9.468 9.468 0 012.431-1.436l.557-2.783.146-.761zm1.524 1.875l-.469 2.431-.117.557-.528.176a7.285 7.285 0 00-2.841 1.64l-.41.381-2.9-.996-1.114 1.904 1.875 1.67.44.352-.147.556A7.54 7.54 0 007.5 17.75c0 .566.059 1.113.176 1.64l.146.557-.44.352-1.874 1.67 1.113 1.904 2.9-.996.41.38a7.285 7.285 0 002.842 1.641l.528.176.586 2.988h2.226l.586-2.988.528-.176a7.286 7.286 0 002.841-1.64l.41-.381 2.9.996 1.114-1.904-2.285-2.022.117-.556a7.54 7.54 0 00.176-1.641 7.54 7.54 0 00-.176-1.64l-.146-.557.44-.352 1.874-1.67-1.113-1.904-2.9.996-.41-.38a7.286 7.286 0 00-2.842-1.641l-.528-.176-.586-2.989h-2.226zM15 13.063c.84 0 1.621.214 2.344.644a4.44 4.44 0 011.699 1.7c.43.722.645 1.503.645 2.343 0 .84-.215 1.621-.645 2.344a4.655 4.655 0 01-1.7 1.728 4.67 4.67 0 01-2.343.616 4.67 4.67 0 01-2.344-.616 4.886 4.886 0 01-1.728-1.728 4.67 4.67 0 01-.616-2.344c0-.84.206-1.621.616-2.344a4.655 4.655 0 011.728-1.699A4.506 4.506 0 0115 13.062zm0 1.874c-.781 0-1.445.274-1.992.82a2.712 2.712 0 00-.82 1.993c0 .781.273 1.445.82 1.992a2.71 2.71 0 001.992.82c.781 0 1.445-.273 1.992-.82a2.71 2.71 0 00.82-1.992c0-.781-.273-1.445-.82-1.992a2.712 2.712 0 00-1.992-.82z" fill="#000"/></g><defs><clipPath id="clip0_6267_3294"><path fill="#fff" d="M0 0h30v36H0z"/></clipPath></defs></svg>