<svg width="35" height="31" viewBox="0 0 35 31" fill="none" xmlns="http://www.w3.org/2000/svg">
<path d="M0 3.28125C0 1.50391 1.50391 0 3.28125 0H9.84375C11.6895 0 13.125 1.50391 13.125 3.28125V4.375H21.875V3.28125C21.875 1.50391 23.3789 0 25.1562 0H31.7188C33.5645 0 35 1.50391 35 3.28125V9.84375C35 11.6895 33.5645 13.125 31.7188 13.125H25.1562C23.3789 13.125 21.875 11.6895 21.875 9.84375V8.75H13.125V9.84375C13.125 10.3223 12.9883 10.8008 12.7832 11.2793L17.5 17.5H22.9688C24.8145 17.5 26.25 19.0039 26.25 20.7812V27.3438C26.25 29.1895 24.8145 30.625 22.9688 30.625H16.4062C14.6289 30.625 13.125 29.1895 13.125 27.3438V20.7812C13.125 20.3027 13.2617 19.8242 13.4668 19.4141L8.75 13.125H3.28125C1.50391 13.125 0 11.6895 0 9.84375V3.28125Z" fill="#343484"/>
</svg>
