<svg width="30" height="36" fill="none" xmlns="http://www.w3.org/2000/svg"><g clip-path="url(#clip0_6267_3293)"><path d="M18.75 7.438h6.563v20.625H4.688V15.348l.468-.264 4.688-2.813 1.406-.878v2.841l3.281-1.963 1.406-.878v2.841l2.813-1.67V7.438zm1.875 1.875v4.277l-.469.264-4.687 2.812-1.406.879v-2.842l-3.282 1.963-1.406.879v-2.842l-2.813 1.67v9.814h16.875V9.313h-2.812zM8.437 18.687h1.876v1.875H8.437v-1.875zm3.75 0h1.876v1.875h-1.876v-1.875zm3.75 0h1.876v1.875h-1.875v-1.875zm3.75 0h1.875v1.875h-1.875v-1.875zm-11.25 3.75h1.876v1.875H8.437v-1.875zm3.75 0h1.876v1.875h-1.876v-1.875zm3.75 0h1.876v1.875h-1.875v-1.875zm3.75 0h1.875v1.875h-1.875v-1.875z" fill="#000"/></g><defs><clipPath id="clip0_6267_3293"><path fill="#fff" d="M0 0h30v36H0z"/></clipPath></defs></svg>