<?xml version="1.0" encoding="utf-8"?>
<!-- Generator: Adobe Illustrator 24.2.1, SVG Export Plug-In . SVG Version: 6.00 Build 0)  -->
<svg version="1.1" id="圖層_1" xmlns="http://www.w3.org/2000/svg" xmlns:xlink="http://www.w3.org/1999/xlink" x="0px" y="0px"
	 width="246px" height="246px" viewBox="0 0 246 246" style="enable-background:new 0 0 246 246;" xml:space="preserve">
<style type="text/css">
	.st0{fill:none;stroke:#FFFFFF;stroke-width:3.04;stroke-linecap:round;stroke-linejoin:round;stroke-miterlimit:10;}
</style>
<g>
	<path class="st0" d="M170.5,139.2c-1.1-2.6-3.9-3.9-6.1-2.9c-1.3,0.6-2.2,1.9-2.4,3.3l-1.1-2.4c-1-2.2-3.6-3.3-5.8-2.3
		s-3.2,3.6-2.2,5.9l0.8,1.8l-0.8,0.3l-2.4-5.4c-1-2.2-3.6-3.3-5.8-2.3l0,0c-2.2,1-3.2,3.6-2.2,5.9l2.4,5.5c-0.2,0.1-0.3,0.2-0.5,0.2
		l-8.9-20.2c-1-2.2-3.6-3.3-5.8-2.3l0,0c-2.2,1-3.2,3.6-2.2,5.9c0,0,9.6,24.3,9.5,25.1l-5.3-2.5c-2-1.4-6.8-0.4-8.1,1.6
		c-1.3,2,1.3,4.4,3.3,5.8l11.7,10.8c4,5.4,12.8,5.6,19.1,2.9l10.2-4.5c7.3-3.2,10.5-11.9,7.3-19.3l-0.3-0.7
		C174.5,148.3,170.5,139.2,170.5,139.2z"/>
	<path class="st0" d="M96.1,103.9h-9.8c-3.8,0-6.8-3.1-6.8-6.8v-9.8c0-3.8,3.1-6.8,6.8-6.8h9.8c3.8,0,6.8,3.1,6.8,6.8v9.8
		C102.9,100.8,99.8,103.9,96.1,103.9z"/>
	<path class="st0" d="M128.6,103.9h-9.8c-3.8,0-6.8-3.1-6.8-6.8v-9.8c0-3.8,3.1-6.8,6.8-6.8h9.8c3.8,0,6.8,3.1,6.8,6.8v9.8
		C135.4,100.8,132.3,103.9,128.6,103.9z"/>
	<path class="st0" d="M160.5,103.9h-9.8c-3.8,0-6.8-3.1-6.8-6.8v-9.8c0-3.8,3.1-6.8,6.8-6.8h9.8c3.8,0,6.8,3.1,6.8,6.8v9.8
		C167.3,100.8,164.2,103.9,160.5,103.9z"/>
	<path class="st0" d="M96.1,135.6h-9.8c-3.8,0-6.8-3.1-6.8-6.8V119c0-3.8,3.1-6.8,6.8-6.8h9.8c3.8,0,6.8,3.1,6.8,6.8v9.8
		C102.9,132.5,99.8,135.6,96.1,135.6z"/>
	<path class="st0" d="M129.8,135.5c-0.4,0.1-0.8,0.1-1.2,0.1h-9.8c-3.8,0-6.8-3.1-6.8-6.8V119c0-3.8,3.1-6.8,6.8-6.8h9.8
		c3.8,0,6.8,3.1,6.8,6.8v6.5"/>
	<path class="st0" d="M154.1,135.6h-3.4c-3.8,0-6.8-3.1-6.8-6.8V119c0-3.8,3.1-6.8,6.8-6.8h9.8c3.8,0,6.8,3.1,6.8,6.8v9.8
		c0,3.8-3.1,6.8-6.8,6.8"/>
	<path class="st0" d="M96.1,167.3h-9.8c-3.8,0-6.8-3.1-6.8-6.8v-9.8c0-3.8,3.1-6.8,6.8-6.8h9.8c3.8,0,6.8,3.1,6.8,6.8v9.8
		C102.9,164.2,99.8,167.3,96.1,167.3z"/>
	<path class="st0" d="M133,165.6c-1.2,1-2.8,1.7-4.5,1.7h-9.8c-3.8,0-6.8-3.1-6.8-6.8v-9.8c0-3.8,3.1-6.8,6.8-6.8h9.8
		c3.8,0,6.8,3.1,6.8,6.8v3.7"/>
</g>
</svg>
