<svg width="52" height="40" viewBox="0 0 52 40" fill="none" xmlns="http://www.w3.org/2000/svg">
<path d="M37.0295 15.3419C36.7713 14.4202 36.0081 13.6944 35.0403 13.4476C33.2864 13 26.25 13 26.25 13C26.25 13 19.2136 13 17.4597 13.4476C16.4919 13.6944 15.7287 14.4202 15.4705 15.3419C15 17.0137 15 20.5 15 20.5C15 20.5 15 23.9863 15.4705 25.6581C15.7287 26.5798 16.4919 27.3056 17.4597 27.5524C19.2149 28 26.25 28 26.25 28C26.25 28 33.2864 28 35.0403 27.5524C36.0081 27.3056 36.7713 26.5798 37.0295 25.6581C37.5 23.9875 37.5 20.5 37.5 20.5C37.5 20.5 37.5 17.0137 37.0295 15.3419ZM23.9489 23.6657V17.3343L29.8295 20.5L23.9489 23.6657Z" fill="white"/>
</svg>
