<?xml version="1.0" encoding="utf-8"?>
<!-- Generator: Adobe Illustrator 24.2.1, SVG Export Plug-In . SVG Version: 6.00 Build 0)  -->
<svg version="1.1" id="圖層_1" xmlns="http://www.w3.org/2000/svg" xmlns:xlink="http://www.w3.org/1999/xlink" x="0px" y="0px"
	 width="25.3px" height="22.9px" viewBox="0 0 25.3 22.9" style="enable-background:new 0 0 25.3 22.9;" xml:space="preserve">
<style type="text/css">
	.st0{fill:#F6E948;}
</style>
<path class="st0" d="M2,22.8c-0.5,0-1-0.2-1.4-0.5c-0.8-0.8-0.8-2-0.1-2.8L11.1,8.2c0.4-0.4,0.9-0.6,1.5-0.6s1.1,0.2,1.5,0.6
	l10.6,11.3c0.8,0.8,0.7,2.1-0.1,2.8c-0.8,0.8-2.1,0.7-2.8-0.1l-9.1-9.7l-9.2,9.7C3,22.5,2.5,22.8,2,22.8z"/>
<path class="st0" d="M23.2,4H2C0.9,4,0,3.1,0,2s0.9-2,2-2h21.2c1.1,0,2,0.9,2,2S24.3,4,23.2,4z"/>
</svg>
