<?xml version="1.0" encoding="utf-8"?>
<!-- Generator: Adobe Illustrator 26.0.3, SVG Export Plug-In . SVG Version: 6.00 Build 0)  -->
<svg version="1.1" id="圖層_1" xmlns="http://www.w3.org/2000/svg" xmlns:xlink="http://www.w3.org/1999/xlink" x="0px" y="0px"
	 width="90px" height="100px" viewBox="0 0 90 100" style="enable-background:new 0 0 90 100;" xml:space="preserve">
<style type="text/css">
	.st0{fill:#FFFFFF;}
</style>
<g id="圖稿_12_00000168076250097751211430000014161357310232329608_">
	<g>
		<g>
			<path class="st0" d="M81.8,44h-4.2c-0.3-1.7-0.8-3.4-1.4-5l3.6-2.1c0.7-0.4,1.2-1.1,1.5-1.9c0.2-0.8,0.1-1.7-0.3-2.4l-2.9-5
				c-0.4-0.7-1.1-1.3-1.9-1.5c-0.8-0.2-1.7-0.1-2.4,0.3l-3.6,2.1c-1.1-1.3-2.3-2.5-3.6-3.7l2.1-3.6c0.4-0.8,0.5-1.6,0.3-2.4
				c-0.2-0.8-0.7-1.5-1.5-1.9l-5-2.9c-1.5-0.8-3.5-0.3-4.3,1.2l-2.1,3.6c-1.7-0.6-3.4-1-5-1.4v-4.2c0-1.7-1.4-3.2-3.2-3.2h-5.8
				c-1.7,0-3.2,1.4-3.2,3.2v4.2c-1.7,0.3-3.4,0.8-5,1.4l-2.1-3.6c-0.9-1.5-2.8-2-4.3-1.2l-5,2.9c-0.7,0.4-1.3,1.1-1.5,1.9
				c-0.2,0.8-0.1,1.7,0.3,2.4l2.1,3.6c-1.3,1.2-2.5,2.4-3.7,3.7l-3.6-2.1c-0.7-0.4-1.6-0.5-2.4-0.3c-0.8,0.2-1.5,0.7-1.9,1.5l-2.9,5
				C8,34,8.6,36,10.1,36.9l3.6,2.1c-0.6,1.7-1,3.4-1.3,5H8.1C6.4,44,5,45.4,5,47.1v5.8c0,1.7,1.4,3.2,3.1,3.2h4.2
				c0.3,1.7,0.7,3.4,1.3,5l-3.6,2.1C8.6,64,8,66,8.9,67.5l2.9,5c0.4,0.7,1.1,1.3,1.9,1.5c0.8,0.2,1.7,0.1,2.4-0.3l3.6-2.1
				c1.1,1.3,2.4,2.5,3.7,3.6l-2.1,3.6c-0.4,0.7-0.6,1.6-0.3,2.4c0.2,0.8,0.7,1.5,1.5,1.9l5,2.9c0.7,0.4,1.5,0.6,2.4,0.3
				c0.8-0.2,1.5-0.7,2-1.5l2.1-3.6c1.6,0.6,3.3,1,5,1.4v4.2c0,1.8,1.4,3.2,3.2,3.2h5.8c1.7,0,3.2-1.4,3.2-3.2v-4.2
				c1.7-0.3,3.4-0.8,5-1.4l2.1,3.6c0.4,0.8,1.1,1.3,1.9,1.5s1.7,0.1,2.4-0.3l5-2.9c0.7-0.4,1.3-1.1,1.5-1.9c0.2-0.8,0.1-1.7-0.3-2.4
				l-2.1-3.6c1.3-1.1,2.5-2.4,3.6-3.6l3.6,2.1c0.7,0.4,1.6,0.5,2.4,0.3c0.8-0.2,1.5-0.7,1.9-1.5l2.9-5c0.4-0.7,0.5-1.6,0.3-2.4
				c-0.3-0.8-0.8-1.5-1.5-2l-3.6-2.1c0.6-1.7,1-3.3,1.4-5h4.2c1.7,0,3.2-1.4,3.2-3.2v-5.8C85,45.4,83.5,44,81.8,44 M82.6,52.9
				c0,0.4-0.3,0.7-0.7,0.7h-5.2c-0.6,0-1.1,0.4-1.2,1c-0.3,2.2-0.9,4.4-1.7,6.5c-0.2,0.6,0,1.2,0.5,1.5l4.5,2.6
				c0.2,0.1,0.3,0.3,0.4,0.4c0,0.2,0,0.4-0.1,0.5l-2.9,5c-0.1,0.2-0.3,0.3-0.4,0.4c-0.2,0-0.4,0-0.6-0.1L70.5,69
				c-0.5-0.3-1.2-0.2-1.5,0.3c-1.4,1.8-3,3.4-4.8,4.8c-0.4,0.4-0.6,1-0.3,1.5l2.6,4.5c0.1,0.1,0.1,0.4,0.1,0.6
				c-0.1,0.2-0.2,0.3-0.3,0.4l-5,2.9c-0.2,0.1-0.4,0.1-0.6,0.1c-0.2,0-0.4-0.2-0.4-0.3l-2.6-4.5c-0.3-0.5-0.9-0.8-1.5-0.5
				c-2.1,0.8-4.3,1.4-6.5,1.7c-0.6,0.1-1,0.6-1,1.2v5.2c0,0.4-0.3,0.7-0.7,0.7h-5.8c-0.4,0-0.7-0.3-0.7-0.7v-5.2
				c0-0.6-0.4-1.1-1-1.2c-2.2-0.3-4.4-0.9-6.5-1.7c-0.1-0.1-0.3-0.1-0.4-0.1c-0.4,0-0.8,0.2-1.1,0.6l-2.6,4.5
				c-0.1,0.1-0.2,0.3-0.4,0.3c-0.2,0-0.4,0-0.6-0.1l-5-2.9c-0.2-0.1-0.3-0.3-0.3-0.4c-0.1-0.2,0-0.4,0.1-0.6l2.6-4.5
				c0.3-0.5,0.2-1.2-0.3-1.5c-1.7-1.4-3.4-3-4.8-4.8c-0.4-0.4-1-0.6-1.5-0.3l-4.5,2.6c-0.2,0.1-0.4,0.1-0.6,0.1
				c-0.2-0.1-0.3-0.2-0.4-0.4l-2.9-5c-0.2-0.3-0.1-0.8,0.2-1l4.5-2.6c0.5-0.3,0.7-1,0.6-1.5c-0.8-2.1-1.4-4.3-1.8-6.5
				c-0.1-0.6-0.6-1-1.2-1H8.1c-0.4,0-0.7-0.3-0.7-0.7v-5.8c0-0.4,0.3-0.7,0.7-0.7h5.2c0.6,0,1.1-0.4,1.2-1c0.3-2.2,0.9-4.3,1.8-6.5
				c0.2-0.6,0-1.2-0.6-1.5l-4.5-2.6c-0.3-0.2-0.4-0.7-0.2-1l2.9-5c0.1-0.2,0.3-0.3,0.4-0.4c0.2,0,0.4,0,0.6,0.1l4.5,2.6
				c0.5,0.3,1.2,0.2,1.5-0.3c1.4-1.7,3-3.3,4.8-4.7c0.5-0.4,0.6-1.1,0.3-1.5l-2.6-4.5c-0.1-0.2-0.1-0.4-0.1-0.6
				c0-0.2,0.1-0.3,0.3-0.4l5-2.9c0.3-0.2,0.8-0.1,1,0.3l2.6,4.5c0.3,0.6,1,0.7,1.5,0.6c2.1-0.8,4.3-1.4,6.5-1.8c0.6-0.1,1-0.6,1-1.2
				v-5.2c0-0.4,0.3-0.7,0.7-0.7h5.8c0.4,0,0.7,0.3,0.7,0.7v5.2c0,0.6,0.4,1.1,1,1.2c2.2,0.4,4.4,0.9,6.5,1.8c0.6,0.2,1.2,0,1.5-0.6
				l2.6-4.5c0.2-0.3,0.6-0.4,1-0.3l5,2.9c0.1,0.1,0.3,0.3,0.3,0.4c0,0.2,0,0.4-0.1,0.6L64,24.5c-0.3,0.5-0.2,1.1,0.3,1.5
				c1.8,1.4,3.4,3,4.8,4.7c0.4,0.5,1,0.6,1.5,0.3l4.5-2.6c0.2-0.1,0.4-0.1,0.6-0.1c0.2,0.1,0.3,0.2,0.4,0.4l2.9,5
				c0.1,0.1,0.1,0.3,0.1,0.6c-0.1,0.2-0.2,0.3-0.4,0.4l-4.5,2.6c-0.5,0.3-0.7,1-0.5,1.5c0.8,2.1,1.4,4.3,1.7,6.5
				c0.1,0.6,0.6,1,1.2,1h5.2c0.4,0,0.7,0.3,0.7,0.7V52.9z"/>
			<path class="st0" d="M45,73c-12.7,0-23.1-10.3-23.1-23c0-8.1,4.3-15.5,11.1-19.7l0.5,1l2.7-4L31.5,27l0.5,1.1
				C24.3,32.7,19.5,41,19.5,50C19.5,64,31,75.4,45,75.4c0.7,0,1.2-0.5,1.2-1.2C46.2,73.6,45.7,73,45,73"/>
			<path class="st0" d="M45,25.4c-0.7,0-1.2,0.6-1.2,1.2c0,0.7,0.5,1.2,1.2,1.2c12.7,0,23,10.4,23,23c0,8.1-4.2,15.5-11.1,19.7
				l-0.5-1.1l-2.7,4.1l4.8,0.3L58,72.7c7.7-4.6,12.4-12.9,12.4-21.9C70.4,36.8,59,25.4,45,25.4"/>
			<path class="st0" d="M42.4,63.5c-0.9,0-1.8-0.3-2.5-1l-8.4-8c-0.7-0.7-1.1-1.6-1.1-2.5c0-1,0.3-1.9,1-2.6l2.2-2.3
				c0.7-0.7,1.6-1.1,2.5-1.1c1,0,1.9,0.3,2.6,1l2.7,2.6c0.5,0.5,1.2,0.4,1.7,0l9.4-9.4c0.7-0.7,1.6-1.1,2.6-1.1c1,0,1.9,0.4,2.6,1.1
				l2.3,2.3c0.7,0.7,1.1,1.6,1.1,2.6c0,1-0.4,1.9-1.1,2.6l-15,15C44.2,63.1,43.3,63.5,42.4,63.5z M41.6,60.7c0.5,0.5,1.2,0.4,1.7,0
				l15-15c0.2-0.2,0.4-0.5,0.4-0.9s-0.1-0.6-0.4-0.8L56,41.8c-0.5-0.5-1.2-0.5-1.7,0l-9.4,9.4c-1.4,1.4-3.6,1.4-5,0.1l-2.7-2.6
				c-0.2-0.2-0.5-0.3-0.9-0.3c-0.3,0-0.6,0.1-0.8,0.4l-2.2,2.3c-0.2,0.2-0.3,0.5-0.3,0.9c0,0.3,0.1,0.6,0.4,0.8L41.6,60.7z"/>
		</g>
	</g>
</g>
</svg>
