<?xml version="1.0" encoding="utf-8"?>
<!-- Generator: Adobe Illustrator 24.2.1, SVG Export Plug-In . SVG Version: 6.00 Build 0)  -->
<svg version="1.1" id="圖層_1" xmlns="http://www.w3.org/2000/svg" xmlns:xlink="http://www.w3.org/1999/xlink" x="0px" y="0px"
	 width="20.5px" height="24px" viewBox="0 0 20.5 24" style="enable-background:new 0 0 20.5 24;" xml:space="preserve">
<style type="text/css">
	.st0{fill:#FFFFFF;}
</style>
<g id="圖層_2_1_">
	<g id="圖層_1-2">
		<path class="st0" d="M16.4,4.8H4.1C1.8,4.9-0.1,6.9,0,9.2v7.6c-0.1,2.3,1.8,4.3,4.1,4.4h12.3c2.3-0.1,4.2-2,4.1-4.4V9.2
			C20.6,6.9,18.7,4.9,16.4,4.8z M16.1,7.4l-5.9,5L3.7,7.5c0.1,0,0.3-0.1,0.4-0.1H16.1z M18,16.8c0,0.9-0.7,1.7-1.6,1.8c0,0,0,0,0,0
			H4.1c-0.9,0-1.7-0.8-1.6-1.8v-7l7.1,5.4c0.2,0.2,0.5,0.2,0.7,0.2c0.3,0,0.6-0.1,0.8-0.3l7-6c0,0,0,0,0,0.1L18,16.8z"/>
	</g>
</g>
</svg>
