<svg width="399" height="66" viewBox="0 0 399 66" fill="none" xmlns="http://www.w3.org/2000/svg">
<path d="M51.8584 39.4272C40.0775 39.4272 39.7239 57.3822 51.8584 57.3822C63.9928 57.3822 63.6478 39.4272 51.8584 39.4272ZM51.8584 55.0169C43.165 54.8616 43.165 41.9565 51.8584 41.8011C60.5431 41.9565 60.5431 54.8616 51.8584 55.0169Z" fill="white"/>
<path d="M80.2492 15.1362C79.9236 15.1362 79.6112 15.2651 79.3802 15.4947C79.1492 15.7244 79.0182 16.0361 79.016 16.362V25.3136C78.2365 24.3381 77.2406 23.558 76.1073 23.0351C74.9741 22.5121 73.7346 22.2607 72.4873 22.3009C66.5969 22.3009 63.5611 26.7897 63.518 31.2784C63.4749 35.7671 66.5538 40.2472 72.4873 40.2472C73.7268 40.2823 74.9575 40.0294 76.0828 39.5081C77.2081 38.9869 78.1974 38.2116 78.9728 37.2432V38.728C78.9586 38.8982 78.9798 39.0695 79.035 39.231C79.0903 39.3926 79.1785 39.541 79.294 39.6667C79.4095 39.7924 79.5499 39.8928 79.7061 39.9614C79.8624 40.03 80.0312 40.0655 80.2018 40.0655C80.3724 40.0655 80.5412 40.03 80.6975 39.9614C80.8537 39.8928 80.994 39.7924 81.1096 39.6667C81.2251 39.541 81.3133 39.3926 81.3685 39.231C81.4238 39.0695 81.445 38.8982 81.4308 38.728V16.362C81.4288 16.0449 81.305 15.7407 81.0851 15.5125C80.8651 15.2843 80.5658 15.1495 80.2492 15.1362V15.1362ZM72.4873 37.882C71.6197 37.9027 70.757 37.7453 69.9524 37.4195C69.1478 37.0937 68.4184 36.6065 67.8092 35.9878C67.1999 35.3691 66.7237 34.632 66.4099 33.8221C66.0961 33.0121 65.9514 32.1465 65.9846 31.2784C65.9527 30.4031 66.0975 29.5305 66.4102 28.7125C66.7228 27.8944 67.197 27.1479 67.8044 26.5174C68.4118 25.887 69.1399 25.3855 69.9452 25.043C70.7506 24.7005 71.6166 24.524 72.4916 24.524C73.3667 24.524 74.2327 24.7005 75.0381 25.043C75.8434 25.3855 76.5715 25.887 77.1789 26.5174C77.7863 27.1479 78.2605 27.8944 78.5731 28.7125C78.8858 29.5305 79.0305 30.4031 78.9987 31.2784C79.0307 32.1469 78.8848 33.0127 78.5701 33.8227C78.2553 34.6327 77.7783 35.3696 77.1683 35.9882C76.5584 36.6067 75.8285 37.0939 75.0235 37.4195C74.2185 37.7452 73.3554 37.9026 72.4873 37.882V37.882Z" fill="white"/>
<path d="M104.311 1.73059C103.984 1.73059 103.67 1.86064 103.439 2.09214C103.208 2.32363 103.078 2.63761 103.078 2.96499V4.44109C102.298 3.47228 101.304 2.69815 100.174 2.17982C99.0437 1.66149 97.8088 1.41313 96.5664 1.45436C90.676 1.45436 87.6402 5.94309 87.5971 10.4318C87.554 14.9205 90.676 19.4093 96.5664 19.4093C97.8085 19.4485 99.0427 19.1992 100.172 18.6811C101.302 18.1629 102.297 17.3898 103.078 16.4225V17.9073C103.078 18.2347 103.208 18.5486 103.439 18.7801C103.67 19.0116 103.984 19.1417 104.311 19.1417C104.638 19.1417 104.952 19.0116 105.183 18.7801C105.414 18.5486 105.544 18.2347 105.544 17.9073V2.96499C105.544 2.63761 105.414 2.32363 105.183 2.09214C104.952 1.86064 104.638 1.73059 104.311 1.73059V1.73059ZM96.5492 17.0268C95.6811 17.0463 94.8182 16.8878 94.0136 16.561C93.209 16.2343 92.4797 15.7462 91.8706 15.1268C91.2615 14.5074 90.7854 13.7699 90.4717 12.9595C90.158 12.1491 90.0133 11.283 90.0464 10.4146C90.0146 9.53931 90.1593 8.66662 90.472 7.84861C90.7847 7.03061 91.2589 6.28408 91.8662 5.65361C92.4736 5.02314 93.2017 4.52167 94.0071 4.17916C94.8124 3.83664 95.6785 3.66012 96.5535 3.66012C97.4285 3.66012 98.2946 3.83664 99.0999 4.17916C99.9053 4.52167 100.633 5.02314 101.241 5.65361C101.848 6.28408 102.322 7.03061 102.635 7.84861C102.948 8.66662 103.092 9.53931 103.061 10.4146C103.094 11.2823 102.949 12.1476 102.636 12.9574C102.323 13.7672 101.848 14.5044 101.239 15.1236C100.631 15.7429 99.9029 16.2311 99.0993 16.5584C98.2957 16.8857 97.4338 17.0451 96.5664 17.0268H96.5492Z" fill="white"/>
<path d="M24.4931 39.695C22.9271 39.6259 21.3727 39.9927 20.0025 40.7546C18.6322 41.5165 17.4999 42.6438 16.7312 44.0111C15.961 42.6451 14.8284 41.5189 13.4585 40.7572C12.0886 39.9955 10.5349 39.6279 8.9693 39.695C7.7137 39.6623 6.46846 39.9304 5.33733 40.477C4.20621 41.0235 3.22195 41.8327 2.46656 42.8371V41.3351C2.46656 41.0077 2.33662 40.6938 2.10534 40.4623C1.87405 40.2308 1.56037 40.1007 1.23328 40.1007C0.906193 40.1007 0.592504 40.2308 0.361219 40.4623C0.129934 40.6938 0 41.0077 0 41.3351V56.1566C0 56.4839 0.129934 56.7979 0.361219 57.0294C0.592504 57.2609 0.906193 57.391 1.23328 57.391C1.56037 57.391 1.87405 57.2609 2.10534 57.0294C2.33662 56.7979 2.46656 56.4839 2.46656 56.1566C2.50968 54.715 2.35444 48.7761 2.57867 46.6612C2.62639 46.3671 2.70146 46.0781 2.80291 45.798C3.73434 43.6054 5.91629 42.2156 8.9693 42.1206C9.83924 42.0884 10.7065 42.2352 11.5175 42.5518C12.3286 42.8685 13.0661 43.3482 13.6844 43.9615C14.3028 44.5748 14.7889 45.3085 15.1127 46.1173C15.4365 46.9262 15.5911 47.7928 15.5669 48.6638V56.1479C15.5669 56.4753 15.6969 56.7893 15.9281 57.0208C16.1594 57.2523 16.4731 57.3823 16.8002 57.3823C17.1273 57.3823 17.441 57.2523 17.6723 57.0208C17.9035 56.7893 18.0335 56.4753 18.0335 56.1479V48.6725C18.0003 47.804 18.145 46.9379 18.4587 46.1276C18.7725 45.3172 19.2485 44.5796 19.8576 43.9602C20.4668 43.3408 21.196 42.8528 22.0006 42.526C22.8052 42.1993 23.6681 42.0407 24.5362 42.0602C25.6785 41.9943 26.816 42.2547 27.8161 42.811C28.8163 43.3673 29.6378 44.1966 30.1852 45.2023C30.796 46.5264 31.0912 47.9744 31.0476 49.4321V56.1479C31.0476 56.4753 31.1775 56.7893 31.4088 57.0208C31.6401 57.2523 31.9538 57.3823 32.2809 57.3823C32.608 57.3823 32.9216 57.2523 33.1529 57.0208C33.3842 56.7893 33.5141 56.4753 33.5141 56.1479V48.6725C33.471 43.4068 30.0385 39.8331 24.4931 39.695Z" fill="white"/>
<path d="M137.627 57.0543L131.857 44.1665H129.805V59.6267H131.668V47.5676L131.857 47.9906L137.049 59.6267H138.369L143.733 47.5935V59.6267H145.596V44.1665H143.56L137.713 57.2529L137.627 57.0543Z" fill="white"/>
<path d="M150.365 42.6038C150.103 42.5935 149.845 42.6618 149.622 42.7999C149.4 42.938 149.224 43.1397 149.117 43.3788C149.01 43.618 148.977 43.8838 149.022 44.1418C149.067 44.3999 149.189 44.6385 149.371 44.8269C149.553 45.0153 149.787 45.1448 150.043 45.1988C150.299 45.2528 150.566 45.2288 150.808 45.1298C151.051 45.0309 151.258 44.8616 151.403 44.6437C151.549 44.4258 151.626 44.1693 151.624 43.9073C151.628 43.7388 151.598 43.5713 151.536 43.4144C151.475 43.2575 151.383 43.1144 151.266 42.9932C151.149 42.8721 151.009 42.7753 150.854 42.7084C150.7 42.6416 150.533 42.606 150.365 42.6038V42.6038Z" fill="white"/>
<path d="M151.262 47.4207H149.399V59.6265H151.262V47.4207Z" fill="white"/>
<path d="M150.365 42.509C150.085 42.4987 149.808 42.5726 149.57 42.7211C149.332 42.8697 149.143 43.0862 149.029 43.3427C148.915 43.5993 148.88 43.8841 148.929 44.1606C148.978 44.4371 149.109 44.6927 149.304 44.8943C149.499 45.096 149.75 45.2345 150.025 45.2922C150.3 45.3498 150.585 45.3239 150.845 45.2178C151.105 45.1116 151.327 44.9301 151.482 44.6966C151.638 44.4631 151.721 44.1882 151.719 43.9074C151.723 43.7265 151.69 43.5466 151.624 43.3782C151.558 43.2098 151.459 43.0562 151.333 42.9262C151.207 42.7963 151.057 42.6925 150.891 42.6209C150.725 42.5493 150.546 42.5113 150.365 42.509ZM150.365 45.2195C150.104 45.2298 149.846 45.1618 149.623 45.024C149.401 44.8863 149.225 44.6851 149.118 44.4465C149.011 44.2078 148.977 43.9425 149.022 43.6847C149.066 43.4268 149.187 43.1882 149.368 42.9995C149.549 42.8108 149.782 42.6806 150.038 42.6256C150.294 42.5707 150.56 42.5934 150.802 42.691C151.045 42.7887 151.253 42.9566 151.399 43.1734C151.546 43.3901 151.624 43.6458 151.624 43.9074C151.628 44.0763 151.598 44.2443 151.537 44.4016C151.475 44.559 151.383 44.7027 151.266 44.8246C151.149 44.9464 151.01 45.044 150.855 45.1118C150.7 45.1795 150.534 45.2161 150.365 45.2195V45.2195Z" fill="white"/>
<path d="M157.118 49.147L156.945 49.4319V47.4206H155.083V59.6264H156.945V52.8675C156.945 50.2778 158.308 48.7931 160.585 48.7931C162.862 48.7931 164.147 50.2519 164.147 52.7121V59.6178H165.984V52.4186C165.984 49.1988 164.086 47.2393 161.016 47.2393C160.258 47.1979 159.501 47.3514 158.819 47.6854C158.137 48.0193 157.551 48.5225 157.118 49.147V49.147Z" fill="white"/>
<path d="M170.641 42.6038C170.379 42.5935 170.121 42.6618 169.898 42.7999C169.676 42.938 169.5 43.1397 169.393 43.3788C169.286 43.618 169.253 43.8838 169.298 44.1418C169.343 44.3999 169.465 44.6385 169.647 44.8269C169.829 45.0153 170.063 45.1448 170.319 45.1988C170.575 45.2528 170.842 45.2288 171.084 45.1298C171.327 45.0309 171.534 44.8616 171.679 44.6437C171.825 44.4258 171.902 44.1693 171.9 43.9073C171.905 43.7385 171.876 43.5704 171.814 43.4131C171.753 43.2557 171.661 43.1121 171.544 42.9907C171.427 42.8693 171.287 42.7725 171.132 42.7061C170.976 42.6397 170.81 42.6049 170.641 42.6038V42.6038Z" fill="white"/>
<path d="M171.538 47.4207H169.675V59.6265H171.538V47.4207Z" fill="white"/>
<path d="M179.3 48.7673C180.887 48.7673 181.939 49.5874 182.085 50.9167H183.948C183.767 48.6378 182.025 47.2222 179.369 47.2222C176.712 47.2222 174.919 48.6378 174.919 50.5887C174.919 53.1093 177.204 53.7222 179.231 54.266C180.792 54.6804 182.266 55.0774 182.266 56.355C182.266 57.6326 181.206 58.2886 179.636 58.2886C178.066 58.2886 176.799 57.4254 176.626 56.1824H174.694C174.884 58.3663 176.868 59.8338 179.653 59.8338C182.241 59.8338 184.078 58.4008 184.078 56.3809C184.034 54.0157 181.853 53.4114 179.929 52.8762C178.325 52.4274 176.799 52.013 176.799 50.6146C176.781 49.5011 177.799 48.7673 179.3 48.7673Z" fill="white"/>
<path d="M189.589 44.3044H187.726V47.4207H186.122V48.9313H187.726V56.3291C187.726 58.6166 188.761 59.6265 191.063 59.6265H192.788V58.0814H191.374C190.046 58.0814 189.554 57.6066 189.554 56.355V48.9313H192.788V47.4207H189.554L189.589 44.3044Z" fill="white"/>
<path d="M197.488 49.7514V47.4207H195.625V59.6266H197.488V52.9884C197.488 50.3988 198.679 49.1298 201.042 49.1298H201.49V47.1962C200.71 47.1554 199.935 47.3404 199.257 47.7293C198.579 48.1182 198.028 48.6944 197.669 49.3888L197.488 49.7514Z" fill="white"/>
<path d="M208.691 57.4081L204.828 47.4207H202.758L207.708 59.592L207.7 59.6265L205.311 65.4705H207.225L214.599 47.4207H212.693L208.778 57.6498L208.691 57.4081Z" fill="white"/>
<path d="M228.588 47.222C227.76 47.1907 226.935 47.3327 226.165 47.6389C225.395 47.9452 224.698 48.4089 224.117 49.0004C223.537 49.592 223.086 50.2983 222.794 51.0742C222.502 51.85 222.375 52.6784 222.421 53.5062C222.421 57.2353 224.914 59.8336 228.458 59.8336C229.294 59.8657 230.128 59.7235 230.906 59.416C231.684 59.1086 232.39 58.6426 232.979 58.0477C233.568 57.4528 234.026 56.7418 234.326 55.9601C234.626 55.1783 234.76 54.3426 234.72 53.5062C234.766 52.6814 234.639 51.8561 234.35 51.0826C234.06 50.3092 233.612 49.6046 233.035 49.0136C232.459 48.4226 231.765 47.9581 231 47.6497C230.234 47.3412 229.413 47.1956 228.588 47.222V47.222ZM228.493 58.2194C226.57 58.2194 224.327 56.985 224.327 53.5062C224.327 50.0275 226.604 48.8103 228.588 48.8103C230.718 48.8103 232.9 50.2606 232.9 53.5062C232.9 56.7519 230.649 58.2194 228.484 58.2194H228.493Z" fill="white"/>
<path d="M240.024 46.445C240.024 44.7618 240.714 44.0798 242.482 44.0626V42.5347C239.455 42.5347 238.17 43.7345 238.17 46.445V47.4205H236.565V48.9311H238.17V59.6264H240.032V48.9311H242.62V47.4205H240.032L240.024 46.445Z" fill="white"/>
<path d="M256.289 44.054H251.485V59.5919H256.289C261.395 59.5919 264.56 56.6224 264.56 51.8229C264.56 47.0234 261.36 44.054 256.289 44.054ZM256.289 58.1244H253.348V45.5301H256.289C260.334 45.5301 262.654 47.8435 262.654 51.8747C262.654 55.9059 260.334 58.1244 256.289 58.1244Z" fill="white"/>
<path d="M269.459 47.4207H267.596V59.6265H269.459V47.4207Z" fill="white"/>
<path d="M268.561 42.6038C268.3 42.5935 268.041 42.6618 267.819 42.7999C267.596 42.938 267.42 43.1397 267.313 43.3788C267.206 43.618 267.173 43.8838 267.218 44.1418C267.264 44.3999 267.385 44.6385 267.567 44.8269C267.749 45.0153 267.983 45.1448 268.24 45.1988C268.496 45.2528 268.762 45.2288 269.005 45.1298C269.247 45.0309 269.454 44.8616 269.6 44.6437C269.745 44.4258 269.822 44.1693 269.821 43.9073C269.824 43.7388 269.794 43.5713 269.732 43.4144C269.671 43.2575 269.579 43.1144 269.462 42.9932C269.345 42.8721 269.205 42.7753 269.051 42.7084C268.896 42.6416 268.73 42.606 268.561 42.6038V42.6038Z" fill="white"/>
<path d="M278.281 47.2222C274.883 47.2222 272.503 49.8119 272.503 53.4806C272.503 57.1492 274.935 59.8338 278.281 59.8338C279.189 59.8615 280.087 59.6456 280.884 59.2085C281.68 58.7713 282.345 58.1289 282.809 57.3478L282.999 57.0198V59.9979C282.999 62.5184 281.446 64.1499 279.057 64.1499C277.065 64.1499 275.53 63.1831 275.021 61.638H273.176C273.624 64.1672 275.866 65.7382 279.057 65.7382C279.828 65.7892 280.6 65.6764 281.324 65.4071C282.047 65.1378 282.706 64.7183 283.256 64.176C283.805 63.6337 284.234 62.9811 284.514 62.2609C284.794 61.5408 284.918 60.7695 284.879 59.9979V47.4208H282.999V50.0104L282.809 49.6738C282.349 48.8915 281.684 48.2497 280.886 47.8177C280.088 47.3857 279.187 47.1798 278.281 47.2222V47.2222ZM282.999 53.5065C282.999 56.2774 281.222 58.2196 278.687 58.2196C276.151 58.2196 274.374 56.2688 274.374 53.4806C274.374 50.6924 276.099 48.8106 278.687 48.8106C281.274 48.8106 282.999 50.7873 282.999 53.5065V53.5065Z" fill="white"/>
<path d="M289.648 42.6038C289.386 42.5935 289.127 42.6618 288.905 42.7999C288.683 42.938 288.506 43.1397 288.4 43.3788C288.293 43.618 288.26 43.8838 288.305 44.1418C288.35 44.3999 288.472 44.6385 288.654 44.8269C288.836 45.0153 289.07 45.1448 289.326 45.1988C289.582 45.2528 289.849 45.2288 290.091 45.1298C290.333 45.0309 290.541 44.8616 290.686 44.6437C290.832 44.4258 290.908 44.1693 290.907 43.9073C290.91 43.7388 290.88 43.5713 290.819 43.4144C290.757 43.2575 290.665 43.1144 290.548 42.9932C290.431 42.8721 290.292 42.7753 290.137 42.7084C289.982 42.6416 289.816 42.606 289.648 42.6038V42.6038Z" fill="white"/>
<path d="M290.545 47.4207H288.682V59.6265H290.545V47.4207Z" fill="white"/>
<path d="M296.72 44.3044H294.857V47.4207H293.253V48.9313H294.857V56.3291C294.857 58.6166 295.883 59.6265 298.195 59.6265H299.92V58.0814H298.497C297.177 58.0814 296.685 57.6066 296.685 56.355V48.9313H299.92V47.4207H296.72V44.3044Z" fill="white"/>
<path d="M307.724 47.2222C304.318 47.2222 301.938 49.8119 301.938 53.4805C301.938 57.1492 304.361 59.8338 307.699 59.8338C308.607 59.871 309.509 59.662 310.309 59.2291C311.109 58.7961 311.777 58.1551 312.244 57.3736L312.433 57.0456V59.6353H314.313V47.4208H312.433V50.0104L312.244 49.6824C311.783 48.9017 311.119 48.2607 310.324 47.8275C309.528 47.3943 308.63 47.1851 307.724 47.2222V47.2222ZM312.433 53.5064C312.433 56.2774 310.657 58.2196 308.121 58.2196C305.586 58.2196 303.809 56.2687 303.809 53.4805C303.809 50.6923 305.534 48.8105 308.121 48.8105C310.708 48.8105 312.433 50.7873 312.433 53.5064V53.5064Z" fill="white"/>
<path d="M319.98 43.0786H318.117V59.6265H319.98V43.0786Z" fill="white"/>
<path d="M334.667 44.1492L329.044 59.6353H331.002L332.269 56.1306H339.281V56.191L340.523 59.6439H342.429L336.858 44.1492H334.667ZM332.787 54.6545L332.83 54.525L335.78 46.2986L338.764 54.6545H332.787Z" fill="white"/>
<path d="M347.604 46.445C347.604 44.7618 348.293 44.0798 350.07 44.0626V42.5347C347.034 42.5347 345.758 43.7345 345.758 46.445V47.4205H344.154V48.9311H345.758V59.6264H347.604V48.9311H350.191V47.4205H347.604V46.445Z" fill="white"/>
<path d="M355.115 46.445C355.115 44.7618 355.805 44.0798 357.582 44.0626V42.5347C354.555 42.5347 353.27 43.7345 353.27 46.445V47.4205H351.666V48.9311H353.27V59.6264H355.133V48.9311H357.72V47.4205H355.133L355.115 46.445Z" fill="white"/>
<path d="M365.438 47.2222C362.032 47.2222 359.66 49.8119 359.66 53.4805C359.66 57.1492 362.084 59.8338 365.413 59.8338C366.322 59.8697 367.225 59.6604 368.026 59.2276C368.827 58.7948 369.497 58.1545 369.966 57.3736L370.147 57.0456V59.6353H372.036V47.4207H370.147V50.0104L369.966 49.6824C369.503 48.9023 368.837 48.262 368.04 47.829C367.243 47.396 366.345 47.1863 365.438 47.2222V47.2222ZM370.147 53.5064C370.147 56.2773 368.379 58.2196 365.835 58.2196C363.291 58.2196 361.523 56.2687 361.523 53.4805C361.523 50.6923 363.248 48.8105 365.835 48.8105C368.422 48.8105 370.147 50.7873 370.147 53.5064Z" fill="white"/>
<path d="M376.797 42.6038C376.535 42.5935 376.276 42.6618 376.054 42.7999C375.831 42.938 375.655 43.1397 375.548 43.3788C375.442 43.618 375.409 43.8838 375.454 44.1418C375.499 44.3999 375.621 44.6385 375.803 44.8269C375.985 45.0153 376.219 45.1448 376.475 45.1988C376.731 45.2528 376.998 45.2288 377.24 45.1298C377.482 45.0309 377.69 44.8616 377.835 44.6437C377.98 44.4258 378.057 44.1693 378.056 43.9073C378.059 43.7388 378.029 43.5713 377.968 43.4144C377.906 43.2575 377.814 43.1144 377.697 42.9932C377.58 42.8721 377.44 42.7753 377.286 42.7084C377.131 42.6416 376.965 42.606 376.797 42.6038V42.6038Z" fill="white"/>
<path d="M377.694 47.4207H375.831V59.6265H377.694V47.4207Z" fill="white"/>
<path d="M383.377 49.7515V47.4208H381.514V59.6267H383.377V52.9886C383.377 50.3989 384.576 49.13 386.93 49.13H387.379V47.1964C386.6 47.154 385.825 47.3385 385.148 47.7276C384.472 48.1167 383.922 48.6938 383.567 49.389L383.377 49.7515Z" fill="white"/>
<path d="M394.632 52.8503C393.019 52.4015 391.501 51.9871 391.501 50.5887C391.501 49.5011 392.51 48.7673 394.02 48.7673C395.529 48.7673 396.659 49.5874 396.797 50.9167H398.66C398.487 48.6378 396.745 47.2222 394.089 47.2222C391.432 47.2222 389.638 48.6378 389.638 50.5887C389.638 53.1093 391.915 53.7222 393.951 54.266C395.52 54.6804 396.986 55.0774 396.986 56.355C396.986 57.6326 395.934 58.2886 394.356 58.2886C392.778 58.2886 391.527 57.4254 391.355 56.1824H389.423C389.613 58.3663 391.588 59.8338 394.382 59.8338C396.969 59.8338 398.806 58.4008 398.806 56.3809C398.729 53.9898 396.555 53.3855 394.632 52.8503Z" fill="white"/>
<path d="M129.322 8.55415V10.1511H134.419V11.6272H128.606V16.9705H133.548L132.384 18.93L127.666 19.0077V20.6047L131.4 20.5529L129.676 23.4015L131.047 24.2129L131.607 23.2806C132.927 23.7295 134.126 24.2129 135.169 24.6877C133.258 25.8095 131.14 26.5319 128.943 26.8112L129.089 28.4081C131.873 28.0776 134.535 27.0797 136.851 25.4991C138.122 26.1417 139.34 26.8865 140.49 27.7262L141.482 26.4745C140.452 25.7044 139.362 25.0174 138.222 24.4201C139.289 23.3039 140.055 21.9345 140.447 20.4406L144.311 20.3889V18.7833L134.29 18.93L135.445 16.9705H141.422V11.6272H136.058V10.1511H141.422V6.79319H143.397V5.19623H141.422V1.83832H136.058V0.25H134.453V1.83832H129.322V5.19623H127.338V6.79319H129.322V8.55415ZM138.74 20.4406C138.317 21.6365 137.603 22.7076 136.661 23.5569C135.308 22.9062 133.92 22.3299 132.504 21.8304L133.306 20.4752L138.74 20.4406ZM130.21 13.1983H134.419V15.3304H130.21V13.1983ZM139.757 13.1983V15.3304H135.997V13.1983H139.757ZM130.917 8.55415V6.82771H134.419V8.55415H130.917ZM139.783 8.55415H136.023V6.82771H139.757L139.783 8.55415ZM139.783 3.4439V5.17034H136.023V3.4439H139.783ZM130.917 3.4439H134.419V5.17034H130.917V3.4439Z" fill="white"/>
<path d="M143.811 14.8471C144.519 13.5901 145.122 12.2764 145.614 10.9195C146.349 13.8187 147.444 16.6143 148.874 19.2409C147.37 22.1052 145.256 24.6041 142.681 26.561L143.544 27.9076C146.087 26.0538 148.216 23.6902 149.796 20.9673C151.328 23.6408 153.185 26.1141 155.325 28.3306L156.463 27.1997C154.202 24.8325 152.267 22.1732 150.711 19.2927C152.477 15.6826 153.428 11.7276 153.496 7.7083H155.394V6.09408H147.088C147.54 4.25172 147.879 2.38378 148.106 0.500437L146.519 0.336426C146.519 0.422748 145.657 8.49383 142.431 14.0443L143.811 14.8471ZM149.71 17.4368C147.985 13.8889 146.821 10.3325 146.752 7.71693H151.832C151.767 11.0591 151.046 14.3558 149.71 17.4195V17.4368Z" fill="white"/>
<path d="M171.849 28.2528V7.33703C173.017 5.52115 174.057 3.62613 174.962 1.66569L173.323 0.949219C171.372 5.11887 168.815 8.97616 165.734 12.3955L167.045 13.6126C168.121 12.4481 169.126 11.2201 170.055 9.93531V28.2528H171.849Z" fill="white"/>
<path d="M193.013 6.64649H184.742V0.414062H182.957V6.64649H174.695V8.44198H193.013V6.64649Z" fill="white"/>
<path d="M190.788 11.4717L190.96 10.6085L189.235 10.2632L189.063 11.1264C188.082 15.9055 186.856 20.6307 185.389 25.2832H181.585C180.766 20.242 180.042 15.2094 179.688 12.7492C179.567 11.886 179.49 11.3595 179.464 11.1955L179.317 10.3322L177.549 10.6257L177.696 11.489C177.696 11.6357 177.799 12.1709 177.92 12.9996C178.265 15.4166 178.972 20.311 179.774 25.2745H174.35V27.0096H193.823V25.2832H187.26C189.434 18.3256 190.77 11.5666 190.788 11.4717Z" fill="white"/>
<path d="M209.226 11.3164V12.1796H214.789V15.1836H209.39C209.19 15.1792 208.994 15.2448 208.836 15.3693C208.679 15.4937 208.57 15.6692 208.528 15.8656L207.027 21.8304L208.752 22.2534L208.942 21.4592H214.677C214.522 23.9712 214.108 26.6385 213.625 27.1737C213.142 27.7089 211.71 27.5104 210.58 27.4586C210.097 27.4586 209.623 27.4068 209.174 27.4068V29.1936C209.597 29.1936 210.037 29.1936 210.494 29.2454C210.951 29.2972 211.46 29.2454 211.934 29.2454C212.47 29.3157 213.014 29.2753 213.533 29.1269C214.052 28.9784 214.535 28.725 214.953 28.3822C216.186 27.0183 216.462 22.0721 216.514 20.6133C216.52 20.4925 216.501 20.3717 216.458 20.2586C216.415 20.1456 216.349 20.0429 216.264 19.9572C216.093 19.7833 215.86 19.684 215.617 19.681H209.373L210.028 17.005H214.789V17.5143H216.583V11.325C216.583 11.0961 216.492 10.8765 216.33 10.7147C216.168 10.5528 215.949 10.4618 215.72 10.4618H210.718C215.893 7.06939 217.462 3.55609 217.54 3.34892C217.604 3.21096 217.631 3.05845 217.617 2.90685C217.604 2.75526 217.55 2.60996 217.462 2.4857C217.379 2.36543 217.268 2.2667 217.139 2.19766C217.01 2.12862 216.867 2.09125 216.721 2.08862H208.295V3.87548H215.194C214.288 5.16272 213.215 6.32382 212.003 7.32835C210.964 6.41022 209.841 5.59229 208.648 4.88545L207.786 6.29249C208.793 6.88517 209.746 7.56696 210.632 8.32968C208.818 9.63024 206.855 10.7083 204.785 11.5409L205.457 13.1982C206.753 12.6527 208.012 12.0241 209.226 11.3164V11.3164Z" fill="white"/>
<path d="M227.501 2.88288L226.259 1.58805C226.259 1.58805 225.112 2.68434 223.491 4.1777C222.651 3.21494 221.884 2.1906 221.197 1.11328L219.653 1.9765C219.843 2.29589 224.353 9.78861 232.158 12.4128L232.736 10.6864C231.091 10.1202 229.536 9.31768 228.122 8.30388L231.02 5.71423L229.812 4.38487L226.69 7.25076C225.996 6.68086 225.334 6.0728 224.707 5.42937C226.345 3.97916 227.501 2.88288 227.501 2.88288Z" fill="white"/>
<path d="M217.376 29.5131C219.772 29.0069 222.036 28.0074 224.026 26.5781C226.023 27.822 228.175 28.8 230.425 29.4872L230.968 27.7608C229.047 27.1672 227.2 26.3532 225.466 25.3351C226.944 23.971 228.059 22.259 228.709 20.3544C228.747 20.2219 228.752 20.0822 228.725 19.947C228.698 19.8119 228.639 19.6851 228.553 19.5775C228.472 19.4663 228.366 19.3762 228.243 19.3146C228.12 19.253 227.984 19.2218 227.846 19.2235H219.791C219.666 19.2212 219.541 19.2463 219.427 19.2969C219.312 19.3476 219.21 19.4227 219.127 19.517C219.04 19.6082 218.974 19.7172 218.934 19.8365C218.894 19.9558 218.88 20.0825 218.894 20.2076C218.894 20.363 219.213 22.7973 222.482 25.4473C220.806 26.546 218.94 27.3218 216.979 27.7349L217.376 29.5131ZM221.033 21.0363H226.509C225.859 22.2869 224.982 23.4052 223.922 24.3338C222.711 23.4727 221.713 22.3445 221.007 21.0363H221.033Z" fill="white"/>
<path d="M218.135 16.8582L218.23 17.7214L218.161 16.8582L218.29 18.6451C218.437 18.6451 221.74 18.3171 221.594 12.8443C221.576 12.5885 221.576 12.3318 221.594 12.076H225.043C225.199 12.076 225.38 12.2745 225.38 12.5594V16.0123C225.363 16.5535 225.562 17.0791 225.932 17.4739C226.303 17.8687 226.814 18.1005 227.355 18.1185H229.019C229.368 18.1001 229.708 17.997 230.008 17.818C230.309 17.6391 230.561 17.3897 230.744 17.0913L231.606 15.5979L230.045 14.7347L229.183 16.2194C229.137 16.273 229.082 16.317 229.019 16.3489H227.355C227.277 16.3489 227.165 16.2194 227.165 16.0295V12.5767C227.184 11.9942 226.971 11.4282 226.573 11.0026C226.175 10.577 225.625 10.3267 225.043 10.3064H221.387C221.188 10.3012 220.991 10.3369 220.807 10.4111C220.623 10.4854 220.456 10.5966 220.317 10.738C220.088 11.0692 219.926 11.4426 219.842 11.8368C219.757 12.2309 219.752 12.6379 219.826 13.0342C219.964 16.5906 218.239 16.8496 218.135 16.8582Z" fill="white"/>
<path d="M253.935 26.5177V19.9227H258.04C259.114 22.3642 260.724 24.5322 262.75 26.2657C264.776 27.9992 267.166 29.2537 269.743 29.9361L270.235 28.2096C268.052 27.5805 266.017 26.521 264.249 25.0934C265.62 24.2949 266.921 23.3825 268.139 22.3656L266.949 21.019C265.677 22.0996 264.296 23.0428 262.826 23.8331C261.684 22.6833 260.729 21.3608 259.998 19.9141H269.985V18.1359H263.715V14.8211H268.337V13.0343H263.715V9.74541H267.397C267.626 9.74541 267.845 9.65446 268.007 9.49258C268.169 9.33069 268.26 9.11113 268.26 8.88219V4.00501C268.26 3.62039 268.107 3.25153 267.835 2.97956C267.564 2.7076 267.195 2.55481 266.811 2.55481H247.147C247.026 2.55279 246.906 2.57634 246.795 2.62394C246.683 2.67153 246.583 2.7421 246.5 2.83104C246.414 2.91773 246.347 3.02184 246.304 3.13644C246.261 3.25103 246.243 3.37351 246.25 3.49571C246.25 3.68562 247.113 22.8577 242.947 28.3564L244.37 29.444C245.931 27.3896 246.845 23.7986 247.389 19.9486H252.149V26.8544L248.7 27.4673L249.019 29.2369L260.161 27.2428L259.842 25.4732L253.935 26.5177ZM261.938 18.1359H255.323V14.8211H261.955L261.938 18.1359ZM261.938 13.0343H255.323V9.74541H261.955L261.938 13.0343ZM266.535 4.34167V8.01897H248.165C248.165 6.45655 248.165 5.17899 248.105 4.36756L266.535 4.34167ZM248.113 9.74541H253.521V12.9997H249.286V14.7866H253.529V18.1013H247.622C247.932 15.2268 248.07 12.2746 248.113 9.74541Z" fill="white"/>
<path d="M293.106 6.16306H294.995V4.37621H288.786V1.40674H287V4.37621H280.782V6.16306H282.705C283.016 7.57011 283.74 10.9367 284.103 13.44H280.222V15.2355H295.564V13.44H291.683C292.072 10.9367 292.787 7.57011 293.106 6.16306ZM284.56 6.16306H291.269C290.907 7.83771 290.235 11.0489 289.898 13.44H285.931C285.603 11.0489 284.931 7.83771 284.56 6.16306Z" fill="white"/>
<path d="M292.787 17.8596H283.102C282.873 17.8596 282.654 17.9505 282.492 18.1124C282.331 18.2743 282.24 18.4939 282.24 18.7228V29.2454H284.025V27.8729H291.925V29.2195H293.71V18.7573C293.715 18.6358 293.695 18.5146 293.65 18.4016C293.605 18.2886 293.537 18.1864 293.45 18.1016C293.362 18.0169 293.258 17.9515 293.144 17.9098C293.03 17.8681 292.909 17.851 292.787 17.8596V17.8596ZM283.999 26.1465V19.6551H291.899V26.1465H283.999Z" fill="white"/>
<path d="M306.69 6.00774C306.835 5.64021 306.888 5.24285 306.844 4.8502C306.8 4.45755 306.662 4.0815 306.44 3.75474C306.225 3.43403 305.933 3.17213 305.591 2.99276C305.249 2.81338 304.868 2.72222 304.482 2.72751H299.066C298.88 2.72864 298.697 2.76638 298.525 2.83857C298.354 2.91076 298.199 3.01599 298.068 3.14825C297.938 3.28051 297.835 3.43721 297.765 3.6094C297.695 3.7816 297.659 3.96591 297.66 4.15182V29.703H299.445V4.51437H304.482C304.571 4.51492 304.658 4.53823 304.735 4.58206C304.812 4.62589 304.876 4.68878 304.922 4.76471C304.985 4.85753 305.023 4.96524 305.032 5.07724C305.041 5.18924 305.021 5.30167 304.974 5.40349L302.55 12.7926C302.503 12.9242 302.489 13.0652 302.509 13.2035C302.528 13.3419 302.581 13.4734 302.662 13.5868C304.387 16.0642 306.69 20.7601 305.629 22.7887C305.206 23.6087 304.163 24.0144 302.55 24.0144H301.688V25.8099H302.55C304.887 25.8099 306.457 25.0676 307.216 23.626C308.941 20.3199 305.491 14.5709 304.379 12.9394L306.69 6.00774Z" fill="white"/>
</svg>
