<svg xmlns="http://www.w3.org/2000/svg" width="160" height="59.99" viewBox="0 0 160 59.99">
  <defs>
    <style>
      .cls-1 {
        fill: #919191;
      }
    </style>
  </defs>
  <g id="圖層_2" data-name="圖層 2">
    <g id="圖層_1-2" data-name="圖層 1">
      <g>
        <path class="cls-1" d="M148.59,21.3V49.15a2.06,2.06,0,0,1-2.05,2.05h-4.15a2.05,2.05,0,0,1-2-2.05V21.3H131a2.06,2.06,0,0,1-2.05-2.05V15.74A2.07,2.07,0,0,1,131,13.69h27A2.06,2.06,0,0,1,160,15.74v3.51A2.05,2.05,0,0,1,158,21.3Z"/>
        <path class="cls-1" d="M112.06,28.37c-6.48-1.66-8.09-2.47-8.09-4.93v-.1c0-1.83,1.67-3.27,4.83-3.27l.64,0c3.13.31,7.32,2.66,7.32,2.66a2.08,2.08,0,0,0,.59.21,2.29,2.29,0,0,0,2.36-.9h0l2-2.9a2,2,0,0,0-.51-2.81l-.16-.1a21.87,21.87,0,0,0-12.14-3.48c-7.66,0-13.12,4.5-13.12,11.3v.11c0,7.45,4.87,9.54,12.43,11.47,6.26,1.61,7.55,2.68,7.55,4.77v.1c0,2.2-2,3.54-5.41,3.54-4.29,0-9.49-3.43-9.49-3.43a2.2,2.2,0,0,0-.61-.26,2.35,2.35,0,0,0-2.41.71l-2.23,2.67a2,2,0,0,0,.22,2.87c.09.06.17.13.27.19a23.92,23.92,0,0,0,14.09,4.54c8.09,0,13.77-4.18,13.77-11.63v-.11C124,33.09,119.67,30.35,112.06,28.37Z"/>
        <path class="cls-1" d="M24.86,30.81a8.71,8.71,0,0,0,4.93-8.09v-.1c0-5.89-4.71-9.7-12.37-9.7H1.91A1.92,1.92,0,0,0,0,14.84V48.5a1.93,1.93,0,0,0,1.91,1.93H17.84c8.47,0,14-3.43,14-10.29V40C31.88,35,29.2,32.48,24.86,30.81ZM8,20.15h8.14c3.49,0,5.42,1.39,5.42,3.86v.11c0,2.78-2.31,4-6,4H8Zm15.64,19c0,2.79-2.19,4.07-5.84,4.07H8V34.94h9.54c4.23,0,6.1,1.56,6.1,4.08Z"/>
        <g>
          <path class="cls-1" d="M63.72,41.55a2,2,0,1,0,2,2A2,2,0,0,0,63.72,41.55Z"/>
          <path class="cls-1" d="M63.72,45.41a1.88,1.88,0,1,0,1.88,1.87A1.87,1.87,0,0,0,63.72,45.41Z"/>
          <path class="cls-1" d="M59.81,41.38a1.88,1.88,0,1,0,1.87,1.87A1.87,1.87,0,0,0,59.81,41.38Z"/>
          <path class="cls-1" d="M59.81,45.48A1.56,1.56,0,1,0,61.36,47,1.55,1.55,0,0,0,59.81,45.48Z"/>
          <path class="cls-1" d="M55.65,41.69a1.6,1.6,0,1,0,1.59,1.6A1.6,1.6,0,0,0,55.65,41.69Z"/>
          <path class="cls-1" d="M55.65,45.72A1.35,1.35,0,1,0,57,47.08,1.35,1.35,0,0,0,55.65,45.72Z"/>
          <path class="cls-1" d="M51.63,37.86a1.64,1.64,0,1,0,1.63,1.63A1.64,1.64,0,0,0,51.63,37.86Z"/>
          <path class="cls-1" d="M51.63,41.89a1.4,1.4,0,1,0,1.4,1.4A1.4,1.4,0,0,0,51.63,41.89Z"/>
          <path class="cls-1" d="M51.63,45.84a1.24,1.24,0,1,0,1.23,1.24A1.24,1.24,0,0,0,51.63,45.84Z"/>
          <path class="cls-1" d="M47.53,30.22a1.72,1.72,0,1,0,1.71,1.71A1.72,1.72,0,0,0,47.53,30.22Z"/>
          <path class="cls-1" d="M47.53,34.19a1.56,1.56,0,1,0,1.55,1.56A1.56,1.56,0,0,0,47.53,34.19Z"/>
          <path class="cls-1" d="M47.53,38.16a1.4,1.4,0,1,0,0,2.79,1.4,1.4,0,0,0,0-2.79Z"/>
          <path class="cls-1" d="M47.53,42.13a1.24,1.24,0,1,0,1.23,1.24A1.25,1.25,0,0,0,47.53,42.13Z"/>
          <path class="cls-1" d="M47.53,46.11a1.08,1.08,0,1,0,1.07,1.07A1.07,1.07,0,0,0,47.53,46.11Z"/>
          <path class="cls-1" d="M43.42,30.34A1.6,1.6,0,1,0,45,31.93,1.59,1.59,0,0,0,43.42,30.34Z"/>
          <path class="cls-1" d="M43.42,34.29a1.46,1.46,0,1,0,1.45,1.46A1.46,1.46,0,0,0,43.42,34.29Z"/>
          <path class="cls-1" d="M43.42,38.25a1.32,1.32,0,1,0,1.31,1.31A1.32,1.32,0,0,0,43.42,38.25Z"/>
          <path class="cls-1" d="M43.42,42.2a1.18,1.18,0,0,0,0,2.35,1.18,1.18,0,1,0,0-2.35Z"/>
          <path class="cls-1" d="M43.42,46.21a1,1,0,1,0,1,1A1,1,0,0,0,43.42,46.21Z"/>
          <path class="cls-1" d="M39.32,30.53a1.41,1.41,0,1,0,1.41,1.41A1.41,1.41,0,0,0,39.32,30.53Z"/>
          <path class="cls-1" d="M39.32,34.47a1.29,1.29,0,1,0,1.28,1.29A1.28,1.28,0,0,0,39.32,34.47Z"/>
          <path class="cls-1" d="M39.32,38.42a1.15,1.15,0,1,0,1.15,1.15A1.15,1.15,0,0,0,39.32,38.42Z"/>
          <path class="cls-1" d="M40.28,43.39a1,1,0,1,0-1,1A1,1,0,0,0,40.28,43.39Z"/>
          <path class="cls-1" d="M39.55,46a.79.79,0,0,0-.8.79.8.8,0,1,0,1.59,0A.79.79,0,0,0,39.55,46Z"/>
          <path class="cls-1" d="M63.72,49.3a1.77,1.77,0,1,0,1.78,1.77A1.78,1.78,0,0,0,63.72,49.3Z"/>
          <path class="cls-1" d="M63.73,53.27a1.58,1.58,0,1,0,1.57,1.58A1.59,1.59,0,0,0,63.73,53.27Z"/>
          <path class="cls-1" d="M63.73,57.63A1.18,1.18,0,1,0,64.9,58.8,1.18,1.18,0,0,0,63.73,57.63Z"/>
          <path class="cls-1" d="M59.81,49.36a1.45,1.45,0,1,0,1.45,1.45A1.45,1.45,0,0,0,59.81,49.36Z"/>
          <path class="cls-1" d="M59.81,53.51a1.09,1.09,0,1,0,1.09,1.08A1.08,1.08,0,0,0,59.81,53.51Z"/>
          <path class="cls-1" d="M59.81,57.7a.93.93,0,1,0,.93.93A.93.93,0,0,0,59.81,57.7Z"/>
          <path class="cls-1" d="M55.65,49.72a1.15,1.15,0,1,0,1.15,1.15A1.15,1.15,0,0,0,55.65,49.72Z"/>
          <path class="cls-1" d="M55.65,53.69a1,1,0,1,0,1,1A1,1,0,0,0,55.65,53.69Z"/>
          <path class="cls-1" d="M55.65,57.54a.79.79,0,0,0-.79.79.79.79,0,1,0,1.58,0A.79.79,0,0,0,55.65,57.54Z"/>
          <path class="cls-1" d="M51.63,49.79a1.08,1.08,0,1,0,1.08,1.08A1.08,1.08,0,0,0,51.63,49.79Z"/>
          <path class="cls-1" d="M51.63,53.7a.92.92,0,1,0,.91.91A.92.92,0,0,0,51.63,53.7Z"/>
          <path class="cls-1" d="M51.63,56.75a.54.54,0,1,0,0,1.07.54.54,0,0,0,0-1.07Z"/>
          <path class="cls-1" d="M47.53,50.08a.92.92,0,1,0,.91.91A.92.92,0,0,0,47.53,50.08Z"/>
          <path class="cls-1" d="M47.53,54a.54.54,0,1,0,.53.54A.54.54,0,0,0,47.53,54Z"/>
          <path class="cls-1" d="M43.42,50.26a.74.74,0,1,0,.74.73A.74.74,0,0,0,43.42,50.26Z"/>
          <path class="cls-1" d="M35.21,33a1.06,1.06,0,1,0-1-1.05A1,1,0,0,0,35.21,33Z"/>
          <path class="cls-1" d="M36,35.77a.79.79,0,1,0-.79.79A.79.79,0,0,0,36,35.77Z"/>
          <path class="cls-1" d="M35.9,38.87a.73.73,0,1,0,.72.72A.73.73,0,0,0,35.9,38.87Z"/>
          <path class="cls-1" d="M67.61,41.38a1.88,1.88,0,1,0,1.88,1.87A1.87,1.87,0,0,0,67.61,41.38Z"/>
          <path class="cls-1" d="M67.61,45.48A1.56,1.56,0,1,0,69.17,47,1.55,1.55,0,0,0,67.61,45.48Z"/>
          <path class="cls-1" d="M71.77,41.69a1.6,1.6,0,1,0,1.6,1.6A1.6,1.6,0,0,0,71.77,41.69Z"/>
          <path class="cls-1" d="M71.77,45.72a1.35,1.35,0,1,0,1.35,1.36A1.35,1.35,0,0,0,71.77,45.72Z"/>
          <path class="cls-1" d="M77.82,28.12a2,2,0,0,0-1.58-2,1.87,1.87,0,1,0-.9,0,2,2,0,0,0-1.47,1.34,2.15,2.15,0,0,0-1.17-1.36,2,2,0,0,0,1.1-1.79,2,2,0,0,0-1.61-2,1.85,1.85,0,1,0-.84,0,2,2,0,0,0-1.61,2,2,2,0,0,0,1.1,1.79,2.25,2.25,0,0,0-1.15,1.27,2.2,2.2,0,0,0-1.14-1.27,2,2,0,0,0-.49-3.78,1.87,1.87,0,1,0-.89,0,2.06,2.06,0,0,0-1.41,1.14,2.24,2.24,0,0,0-.33-.53,2,2,0,0,0-1-.81,2,2,0,1,0-1.46,0,2,2,0,0,0-1.18,1.15,1.71,1.71,0,0,0-.13.23,2,2,0,0,0-1.42-1.17,1.87,1.87,0,1,0-.89,0,2,2,0,0,0-.49,3.78,2.2,2.2,0,0,0-1.14,1.27,2.21,2.21,0,0,0-1.15-1.27,2,2,0,0,0,1.1-1.79,2,2,0,0,0-1.61-2,1.85,1.85,0,1,0-.84,0,2,2,0,0,0-1.61,2,2,2,0,0,0,1.1,1.79,2.17,2.17,0,0,0-1.17,1.36,2,2,0,0,0-1.47-1.34,1.88,1.88,0,1,0-.91,0A2,2,0,0,0,50.84,30a2,2,0,0,0,.33,3.85,1.88,1.88,0,1,0,.91,0,2,2,0,0,0,1.47-1.34,2.17,2.17,0,0,0,1.17,1.36,2,2,0,0,0,.51,3.78,1.85,1.85,0,1,0,.84,0,2,2,0,0,0,.51-3.78,2.21,2.21,0,0,0,1.15-1.27,2.23,2.23,0,0,0,1.14,1.27,2,2,0,0,0,.49,3.78,1.87,1.87,0,1,0,.89,0,2,2,0,0,0,1.41-1.14A2.24,2.24,0,0,0,62,37a2,2,0,0,0,1,.81,2,2,0,1,0,1.46,0,2,2,0,0,0,1.18-1.15,1.71,1.71,0,0,0,.13-.23,2,2,0,0,0,1.42,1.17,1.87,1.87,0,1,0,.89,0,2,2,0,0,0,.49-3.78,2.23,2.23,0,0,0,1.14-1.27,2.25,2.25,0,0,0,1.15,1.27,2,2,0,0,0,.51,3.78,1.85,1.85,0,1,0,.84,0,2,2,0,0,0,.51-3.78,2.15,2.15,0,0,0,1.17-1.36,2,2,0,0,0,1.47,1.34,1.88,1.88,0,1,0,.9,0A2,2,0,0,0,76.58,30,2,2,0,0,0,77.82,28.12Zm-12,1.23a2.08,2.08,0,0,0,.71.64,2.2,2.2,0,0,0-.72.67,2.52,2.52,0,0,0-.6-.66A2.36,2.36,0,0,0,65.78,29.35Zm0-2.45a2.66,2.66,0,0,0-.35-.46,2.16,2.16,0,0,0-.37-.37,2.22,2.22,0,0,0,.7-.9,2,2,0,0,0,.92,1A2.18,2.18,0,0,0,65.78,26.9Zm-.09,6.28s.06-.07.08-.11a2.25,2.25,0,0,0,.91.79,2,2,0,0,0-.93,1,2.3,2.3,0,0,0-.69-.91A2.3,2.3,0,0,0,65.69,33.18Zm-4-3.85a2.52,2.52,0,0,0,.6.66,2.36,2.36,0,0,0-.61.65,2.21,2.21,0,0,0-.71-.65A2.08,2.08,0,0,0,61.65,29.33Zm.08-2.52s-.06.07-.08.11a2.19,2.19,0,0,0-.91-.79,2,2,0,0,0,.93-1,2.23,2.23,0,0,0,.7.91A2.12,2.12,0,0,0,61.73,26.81Zm-.09,6.28a2.28,2.28,0,0,0,.36.46,2.51,2.51,0,0,0,.36.37,2.16,2.16,0,0,0-.7.9,2,2,0,0,0-.92-1A2.25,2.25,0,0,0,61.64,33.09Zm-8.09-1.86A2,2,0,0,0,52.37,30a2,2,0,0,0,1.18-1.23,2.11,2.11,0,0,0,1,1.23A2.13,2.13,0,0,0,53.55,31.23ZM56.79,30a2.2,2.2,0,0,0,.94-1.14A2.2,2.2,0,0,0,58.67,30a2.22,2.22,0,0,0-.94,1.15A2.22,2.22,0,0,0,56.79,30Zm12,0a2.18,2.18,0,0,0,.93-1.14A2.2,2.2,0,0,0,70.63,30a2.26,2.26,0,0,0-.94,1.15A2.21,2.21,0,0,0,68.76,30Zm4.15,0a2.17,2.17,0,0,0,1-1.23A2,2,0,0,0,75.06,30a2,2,0,0,0-1.18,1.24A2.19,2.19,0,0,0,72.91,30Z"/>
          <path class="cls-1" d="M75.79,37.86a1.64,1.64,0,0,0,0,3.27,1.64,1.64,0,1,0,0-3.27Z"/>
          <path class="cls-1" d="M75.79,41.89a1.4,1.4,0,1,0,1.4,1.4A1.4,1.4,0,0,0,75.79,41.89Z"/>
          <path class="cls-1" d="M75.79,45.84A1.24,1.24,0,1,0,77,47.08,1.23,1.23,0,0,0,75.79,45.84Z"/>
          <path class="cls-1" d="M79.89,26.25a1.88,1.88,0,1,0,1.88,1.87A1.87,1.87,0,0,0,79.89,26.25Z"/>
          <path class="cls-1" d="M79.89,30.22a1.72,1.72,0,1,0,1.72,1.71A1.72,1.72,0,0,0,79.89,30.22Z"/>
          <path class="cls-1" d="M79.89,34.19a1.56,1.56,0,1,0,1.56,1.56A1.56,1.56,0,0,0,79.89,34.19Z"/>
          <path class="cls-1" d="M79.89,38.16a1.4,1.4,0,1,0,1.4,1.4A1.4,1.4,0,0,0,79.89,38.16Z"/>
          <path class="cls-1" d="M79.89,42.13a1.24,1.24,0,1,0,1.24,1.24A1.24,1.24,0,0,0,79.89,42.13Z"/>
          <path class="cls-1" d="M79.89,46.11a1.08,1.08,0,0,0,0,2.15,1.08,1.08,0,1,0,0-2.15Z"/>
          <path class="cls-1" d="M84,26.35a1.78,1.78,0,1,0,1.78,1.77A1.78,1.78,0,0,0,84,26.35Z"/>
          <path class="cls-1" d="M84,30.34a1.6,1.6,0,1,0,1.6,1.59A1.59,1.59,0,0,0,84,30.34Z"/>
          <path class="cls-1" d="M84,34.29a1.46,1.46,0,1,0,0,2.91,1.46,1.46,0,0,0,0-2.91Z"/>
          <path class="cls-1" d="M84,38.25a1.32,1.32,0,1,0,1.32,1.31A1.31,1.31,0,0,0,84,38.25Z"/>
          <path class="cls-1" d="M84,42.2a1.18,1.18,0,1,0,1.17,1.17A1.17,1.17,0,0,0,84,42.2Z"/>
          <path class="cls-1" d="M84,46.21a1,1,0,0,0,0,1.94,1,1,0,0,0,0-1.94Z"/>
          <path class="cls-1" d="M88.1,26.54a1.59,1.59,0,1,0,1.58,1.58A1.58,1.58,0,0,0,88.1,26.54Z"/>
          <path class="cls-1" d="M88.1,30.53a1.41,1.41,0,1,0,1.41,1.41A1.41,1.41,0,0,0,88.1,30.53Z"/>
          <path class="cls-1" d="M88.1,34.47a1.29,1.29,0,1,0,1.28,1.29A1.28,1.28,0,0,0,88.1,34.47Z"/>
          <path class="cls-1" d="M88.1,38.42a1.15,1.15,0,1,0,0,2.3,1.15,1.15,0,1,0,0-2.3Z"/>
          <path class="cls-1" d="M88.1,42.42a1,1,0,1,0,1,1A1,1,0,0,0,88.1,42.42Z"/>
          <path class="cls-1" d="M87.87,46a.73.73,0,1,0,.73.73A.73.73,0,0,0,87.87,46Z"/>
          <path class="cls-1" d="M67.62,49.39A1.42,1.42,0,1,0,69,50.81,1.43,1.43,0,0,0,67.62,49.39Z"/>
          <path class="cls-1" d="M67.61,53.51a1.09,1.09,0,1,0,1.09,1.08A1.08,1.08,0,0,0,67.61,53.51Z"/>
          <path class="cls-1" d="M67.61,57.7a.93.93,0,1,0,.93.93A.93.93,0,0,0,67.61,57.7Z"/>
          <path class="cls-1" d="M71.77,49.72a1.15,1.15,0,1,0,1.15,1.15A1.15,1.15,0,0,0,71.77,49.72Z"/>
          <path class="cls-1" d="M71.77,53.69a1,1,0,1,0,1,1A1,1,0,0,0,71.77,53.69Z"/>
          <path class="cls-1" d="M71.77,57.54a.79.79,0,0,0-.79.79.79.79,0,1,0,1.58,0A.79.79,0,0,0,71.77,57.54Z"/>
          <path class="cls-1" d="M75.79,49.79a1.08,1.08,0,1,0,1.08,1.08A1.08,1.08,0,0,0,75.79,49.79Z"/>
          <path class="cls-1" d="M75.79,53.7a.92.92,0,1,0,.92.91A.91.91,0,0,0,75.79,53.7Z"/>
          <path class="cls-1" d="M75.79,56.75a.54.54,0,1,0,.54.53A.53.53,0,0,0,75.79,56.75Z"/>
          <path class="cls-1" d="M79.89,50.08a.92.92,0,1,0,.92.91A.91.91,0,0,0,79.89,50.08Z"/>
          <path class="cls-1" d="M79.89,54a.54.54,0,0,0-.53.54.54.54,0,1,0,.53-.54Z"/>
          <path class="cls-1" d="M84,50.19a.81.81,0,0,0,0,1.61.81.81,0,1,0,0-1.61Z"/>
          <path class="cls-1" d="M92.2,29.3A1.18,1.18,0,1,0,91,28.12,1.18,1.18,0,0,0,92.2,29.3Z"/>
          <path class="cls-1" d="M92.2,30.89a1.06,1.06,0,1,0,1,1.06A1.06,1.06,0,0,0,92.2,30.89Z"/>
          <path class="cls-1" d="M92.21,35a.79.79,0,1,0,.79.79A.79.79,0,0,0,92.21,35Z"/>
          <path class="cls-1" d="M91.52,38.87a.73.73,0,1,0,.73.72A.73.73,0,0,0,91.52,38.87Z"/>
          <path class="cls-1" d="M63.7,18.43a1.95,1.95,0,1,0-2-1.95A2,2,0,0,0,63.7,18.43Z"/>
          <path class="cls-1" d="M63.7,14.58a1.88,1.88,0,1,0-1.87-1.88A1.88,1.88,0,0,0,63.7,14.58Z"/>
          <path class="cls-1" d="M67.62,18.61a1.88,1.88,0,1,0-1.88-1.87A1.87,1.87,0,0,0,67.62,18.61Z"/>
          <path class="cls-1" d="M67.62,14.51A1.56,1.56,0,1,0,66.06,13,1.55,1.55,0,0,0,67.62,14.51Z"/>
          <path class="cls-1" d="M71.77,18.3a1.6,1.6,0,1,0-1.59-1.6A1.6,1.6,0,0,0,71.77,18.3Z"/>
          <path class="cls-1" d="M71.77,14.26a1.35,1.35,0,1,0-1.35-1.35A1.35,1.35,0,0,0,71.77,14.26Z"/>
          <path class="cls-1" d="M75.79,22.13a1.64,1.64,0,1,0-1.63-1.63A1.65,1.65,0,0,0,75.79,22.13Z"/>
          <path class="cls-1" d="M75.79,18.1a1.4,1.4,0,1,0-1.4-1.4A1.4,1.4,0,0,0,75.79,18.1Z"/>
          <path class="cls-1" d="M75.79,14.15a1.24,1.24,0,1,0,0-2.47,1.24,1.24,0,0,0,0,2.47Z"/>
          <path class="cls-1" d="M79.89,25.8a1.56,1.56,0,1,0-1.55-1.56A1.56,1.56,0,0,0,79.89,25.8Z"/>
          <path class="cls-1" d="M79.89,21.83a1.4,1.4,0,1,0-1.39-1.4A1.4,1.4,0,0,0,79.89,21.83Z"/>
          <path class="cls-1" d="M79.89,17.85a1.24,1.24,0,1,0-1.23-1.23A1.23,1.23,0,0,0,79.89,17.85Z"/>
          <path class="cls-1" d="M79.89,13.88a1.08,1.08,0,1,0-1.06-1.07A1.07,1.07,0,0,0,79.89,13.88Z"/>
          <path class="cls-1" d="M84,25.7a1.46,1.46,0,1,0-1.45-1.46A1.46,1.46,0,0,0,84,25.7Z"/>
          <path class="cls-1" d="M84,21.74a1.32,1.32,0,1,0-1.31-1.31A1.32,1.32,0,0,0,84,21.74Z"/>
          <path class="cls-1" d="M84,17.79a1.18,1.18,0,0,0,0-2.35,1.18,1.18,0,1,0,0,2.35Z"/>
          <path class="cls-1" d="M84,13.78a1,1,0,1,0-1-1A1,1,0,0,0,84,13.78Z"/>
          <path class="cls-1" d="M88.1,25.51a1.28,1.28,0,1,0-1.28-1.27A1.27,1.27,0,0,0,88.1,25.51Z"/>
          <path class="cls-1" d="M88.1,21.57A1.16,1.16,0,1,0,87,20.42,1.15,1.15,0,0,0,88.1,21.57Z"/>
          <path class="cls-1" d="M87.14,16.6a1,1,0,1,0,1-1A1,1,0,0,0,87.14,16.6Z"/>
          <path class="cls-1" d="M87.88,14a.73.73,0,1,0,0-1.46.73.73,0,1,0,0,1.46Z"/>
          <path class="cls-1" d="M63.7,10.69a1.77,1.77,0,1,0-1.78-1.77A1.78,1.78,0,0,0,63.7,10.69Z"/>
          <path class="cls-1" d="M63.7,6.72a1.58,1.58,0,1,0-1.58-1.58A1.58,1.58,0,0,0,63.7,6.72Z"/>
          <path class="cls-1" d="M63.7,2.36a1.18,1.18,0,1,0-1.18-1.18A1.18,1.18,0,0,0,63.7,2.36Z"/>
          <path class="cls-1" d="M67.62,10.63a1.46,1.46,0,1,0-1.46-1.46A1.46,1.46,0,0,0,67.62,10.63Z"/>
          <path class="cls-1" d="M67.62,6.67a1.28,1.28,0,1,0-1.29-1.28A1.27,1.27,0,0,0,67.62,6.67Z"/>
          <path class="cls-1" d="M67.62,2.29a.93.93,0,1,0-.94-.93A.93.93,0,0,0,67.62,2.29Z"/>
          <path class="cls-1" d="M71.77,10.27a1.15,1.15,0,1,0-1.15-1.15A1.16,1.16,0,0,0,71.77,10.27Z"/>
          <path class="cls-1" d="M71.77,6.3a1,1,0,1,0-1-1A1,1,0,0,0,71.77,6.3Z"/>
          <path class="cls-1" d="M71.77,2.45A.8.8,0,1,0,71,1.66.79.79,0,0,0,71.77,2.45Z"/>
          <path class="cls-1" d="M75.79,10.2a1.08,1.08,0,1,0-1.08-1.08A1.08,1.08,0,0,0,75.79,10.2Z"/>
          <path class="cls-1" d="M75.79,6.3a.92.92,0,1,0-.91-.92A.92.92,0,0,0,75.79,6.3Z"/>
          <path class="cls-1" d="M75.79,3.24a.54.54,0,1,0,0-1.07.54.54,0,0,0,0,1.07Z"/>
          <path class="cls-1" d="M79.89,9.91A.92.92,0,1,0,79,9,.92.92,0,0,0,79.89,9.91Z"/>
          <path class="cls-1" d="M79.89,6a.53.53,0,0,0,.54-.53.54.54,0,1,0-.54.53Z"/>
          <path class="cls-1" d="M84,9.8a.81.81,0,1,0-.8-.8A.8.8,0,0,0,84,9.8Z"/>
          <path class="cls-1" d="M91.56,24.22a.65.65,0,0,0,.65.64.65.65,0,0,0,0-1.29A.65.65,0,0,0,91.56,24.22Z"/>
          <path class="cls-1" d="M91.52,21.12a.73.73,0,0,0,.73-.73.73.73,0,0,0-1.45,0A.73.73,0,0,0,91.52,21.12Z"/>
          <path class="cls-1" d="M59.81,18.61a1.87,1.87,0,1,0-1.87-1.87A1.87,1.87,0,0,0,59.81,18.61Z"/>
          <path class="cls-1" d="M59.81,14.51A1.56,1.56,0,1,0,58.25,13,1.55,1.55,0,0,0,59.81,14.51Z"/>
          <path class="cls-1" d="M55.65,18.3a1.6,1.6,0,1,0-1.6-1.6A1.6,1.6,0,0,0,55.65,18.3Z"/>
          <path class="cls-1" d="M55.65,14.26a1.35,1.35,0,1,0-1.34-1.35A1.35,1.35,0,0,0,55.65,14.26Z"/>
          <path class="cls-1" d="M51.63,22.13A1.64,1.64,0,1,0,50,20.5,1.64,1.64,0,0,0,51.63,22.13Z"/>
          <path class="cls-1" d="M51.63,18.1a1.4,1.4,0,1,0-1.4-1.4A1.4,1.4,0,0,0,51.63,18.1Z"/>
          <path class="cls-1" d="M51.63,14.15a1.24,1.24,0,1,0-1.24-1.24A1.24,1.24,0,0,0,51.63,14.15Z"/>
          <path class="cls-1" d="M47.53,25.8A1.56,1.56,0,1,0,46,24.24,1.56,1.56,0,0,0,47.53,25.8Z"/>
          <path class="cls-1" d="M47.53,21.83a1.4,1.4,0,1,0-1.4-1.4A1.4,1.4,0,0,0,47.53,21.83Z"/>
          <path class="cls-1" d="M47.53,17.85a1.24,1.24,0,1,0-1.24-1.23A1.24,1.24,0,0,0,47.53,17.85Z"/>
          <path class="cls-1" d="M47.53,13.88a1.08,1.08,0,1,0-1.08-1.07A1.07,1.07,0,0,0,47.53,13.88Z"/>
          <path class="cls-1" d="M43.42,25.7A1.46,1.46,0,1,0,42,24.24,1.46,1.46,0,0,0,43.42,25.7Z"/>
          <path class="cls-1" d="M43.42,21.74a1.32,1.32,0,1,0-1.32-1.31A1.31,1.31,0,0,0,43.42,21.74Z"/>
          <path class="cls-1" d="M43.42,17.79a1.18,1.18,0,1,0-1.17-1.17A1.17,1.17,0,0,0,43.42,17.79Z"/>
          <path class="cls-1" d="M43.42,13.78a1,1,0,0,0,0-1.94,1,1,0,0,0,0,1.94Z"/>
          <path class="cls-1" d="M39.32,25.51A1.28,1.28,0,1,0,38,24.24,1.27,1.27,0,0,0,39.32,25.51Z"/>
          <path class="cls-1" d="M39.32,21.57a1.16,1.16,0,1,0-1.15-1.15A1.16,1.16,0,0,0,39.32,21.57Z"/>
          <path class="cls-1" d="M39.32,17.57a1,1,0,1,0-1-1A1,1,0,0,0,39.32,17.57Z"/>
          <path class="cls-1" d="M39.55,14a.73.73,0,1,0-.73-.73A.73.73,0,0,0,39.55,14Z"/>
          <path class="cls-1" d="M59.81,10.63a1.46,1.46,0,1,0-1.45-1.46A1.45,1.45,0,0,0,59.81,10.63Z"/>
          <path class="cls-1" d="M59.81,6.67a1.28,1.28,0,1,0-1.28-1.28A1.28,1.28,0,0,0,59.81,6.67Z"/>
          <path class="cls-1" d="M59.81,2.29a.93.93,0,1,0-.93-.93A.93.93,0,0,0,59.81,2.29Z"/>
          <path class="cls-1" d="M55.65,10.27A1.15,1.15,0,1,0,54.5,9.12,1.16,1.16,0,0,0,55.65,10.27Z"/>
          <path class="cls-1" d="M55.65,6.3a1,1,0,0,0,0-1.94,1,1,0,1,0,0,1.94Z"/>
          <path class="cls-1" d="M55.65,2.45a.8.8,0,1,0-.79-.79A.79.79,0,0,0,55.65,2.45Z"/>
          <path class="cls-1" d="M51.63,10.2a1.08,1.08,0,1,0-1.08-1.08A1.08,1.08,0,0,0,51.63,10.2Z"/>
          <path class="cls-1" d="M51.63,6.3a.92.92,0,1,0-.92-.92A.92.92,0,0,0,51.63,6.3Z"/>
          <path class="cls-1" d="M51.63,3.24a.54.54,0,1,0-.54-.53A.53.53,0,0,0,51.63,3.24Z"/>
          <path class="cls-1" d="M47.53,9.91A.92.92,0,1,0,46.61,9,.91.91,0,0,0,47.53,9.91Z"/>
          <path class="cls-1" d="M47.53,6A.54.54,0,1,0,47,5.44.53.53,0,0,0,47.53,6Z"/>
          <path class="cls-1" d="M43.42,9.8a.81.81,0,1,0-.8-.8A.8.8,0,0,0,43.42,9.8Z"/>
          <path class="cls-1" d="M47.53,26.25a1.88,1.88,0,1,0,1.87,1.87A1.88,1.88,0,0,0,47.53,26.25Z"/>
          <path class="cls-1" d="M43.42,26.35a1.78,1.78,0,1,0,1.78,1.77A1.78,1.78,0,0,0,43.42,26.35Z"/>
          <path class="cls-1" d="M39.32,26.54a1.59,1.59,0,1,0,1.58,1.58A1.58,1.58,0,0,0,39.32,26.54Z"/>
          <path class="cls-1" d="M35.21,27a1.12,1.12,0,1,0,1.12,1.11A1.11,1.11,0,0,0,35.21,27Z"/>
          <path class="cls-1" d="M35.21,24.86a.65.65,0,1,0-.64-.64A.65.65,0,0,0,35.21,24.86Z"/>
          <path class="cls-1" d="M35.89,21.12a.73.73,0,0,0,.73-.73.73.73,0,1,0-.73.73Z"/>
        </g>
      </g>
    </g>
  </g>
</svg>
