<svg width="71" height="94" viewBox="0 0 71 94" fill="none" xmlns="http://www.w3.org/2000/svg">
<g opacity="0.1">
<path d="M36.0525 84.3457H35.8021C35.6717 84.3457 35.5517 84.304 35.4318 84.278L35.2232 84.231C35.0928 84.1945 34.9675 84.1476 34.8424 84.1007L34.6598 84.0382C34.4795 83.9648 34.3051 83.8777 34.1382 83.7775C33.7731 83.543 26.7785 79.0862 23.4195 75.281C18.6938 69.938 15.173 61.2068 14.9853 60.769C14.227 59.1311 13.014 57.7452 11.4906 56.7761L6.69717 54.0656C6.59285 54.0082 6.49374 53.9561 6.39985 53.9144L6.32682 53.8883L6.11298 53.8101H6.06603C5.97349 53.7862 5.87938 53.7687 5.78438 53.758H2.59741H2.70174C2.79852 53.7683 2.89441 53.7857 2.98861 53.8101H3.03557L3.24422 53.8883L3.32244 53.9144C3.4241 53.9596 3.52334 54.01 3.61975 54.0656L8.4132 56.7761C9.93661 57.7452 11.1496 59.1311 11.9079 60.769C12.0957 61.2277 15.6164 69.938 20.3473 75.281C23.7011 79.0705 30.6957 83.543 31.0608 83.7775C31.2266 83.8782 31.4012 83.9636 31.5824 84.0329C31.6481 84.0627 31.7162 84.0871 31.7858 84.1059C31.8797 84.1424 31.9736 84.1841 32.0779 84.2154H32.1405L32.3544 84.2675C32.4796 84.2675 32.5995 84.3196 32.7247 84.3353H32.9803C33.0429 84.3353 33.1107 84.3353 33.1785 84.3353H33.4549H36.5271C36.3707 84.377 36.2142 84.3614 36.0525 84.3457Z" fill="#B3B3B3"/>
<path d="M66.1741 52.1474L63.6235 50.7034L58.7257 47.9355L28.0977 30.5983L22.1724 27.2466C22.0795 27.1928 21.9837 27.1441 21.8855 27.1007H21.8281C21.7552 27.0683 21.6802 27.0405 21.6038 27.0173C21.481 26.983 21.3553 26.9603 21.2283 26.9495H18.1509C18.2796 26.9603 18.4071 26.9829 18.5317 27.0173L18.7455 27.0955L18.8133 27.1215C18.9129 27.1599 19.0089 27.207 19.1002 27.2623L25.0255 30.614L53.7758 56.1819H56.8532L33.491 35.4096L55.6535 47.9512L60.5513 50.7191L63.1019 52.163C64.4476 52.924 65.303 54.6702 65.0109 56.0412L64.6719 57.3495C64.3067 58.7361 63.8791 60.1696 63.394 61.6239C61.0979 68.6226 57.4212 75.0903 52.5813 80.6448C50.641 82.8445 47.574 85.2632 44.7105 87.3065C49.9264 82.1721 56.5924 75.0256 57.7503 71.0431C58.445 68.7129 58.8084 66.2967 58.83 63.8653C58.868 62.6366 58.7346 61.4085 58.4336 60.2165H55.3562C55.6572 61.4085 55.7906 62.6366 55.7526 63.8653C55.731 66.2967 55.3675 68.7129 54.6729 71.0431C52.7482 77.7361 35.2331 93.3532 35.2227 93.3532C34.8106 93.5825 34.4872 93.7545 34.3099 93.8379C34.0446 93.9508 33.7583 94.0059 33.4701 93.9995H36.5475C36.8341 94.006 37.1186 93.9509 37.3821 93.8379C37.5646 93.7545 37.9037 93.5825 38.3001 93.3532C38.9521 92.9935 39.8179 92.4931 40.6264 92.0135C41.148 91.6903 51.2878 85.6124 55.6691 80.6448C60.509 75.0903 64.1857 68.6226 66.4818 61.6239C66.9669 60.1696 67.3946 58.7361 67.7597 57.3495L68.0935 56.0412C68.3752 54.6494 67.5198 52.9032 66.1741 52.1474Z" fill="#B3B3B3"/>
<path d="M39.7032 21.8254H42.7806C42.9213 21.8261 43.0582 21.7802 43.17 21.6949C43.2818 21.6096 43.3622 21.4896 43.3985 21.3538C43.4349 21.2181 43.4252 21.074 43.3709 20.9443C43.3167 20.8146 43.221 20.7065 43.0988 20.6369L36.8397 16.9464C36.7916 16.9202 36.7409 16.8993 36.6884 16.8838H36.5737H33.4441C33.4961 16.8787 33.5485 16.8787 33.6006 16.8838C33.6558 16.8961 33.7086 16.9172 33.7571 16.9464L40.0162 20.6369C40.138 20.7063 40.2335 20.8139 40.2878 20.9431C40.3421 21.0723 40.3522 21.2158 40.3165 21.3513C40.2809 21.4868 40.2014 21.6068 40.0905 21.6925C39.9796 21.7782 39.8434 21.825 39.7032 21.8254Z" fill="#B3B3B3"/>
<path d="M69.914 34.586V19.8916C69.914 18.3278 69.2724 16.8735 68.5005 16.6337C67.7285 16.3939 65.8925 15.7006 64.4894 15.0699C63.9365 14.8406 53.4264 10.3785 48.007 7.14671C45.2948 5.52037 42.9945 4.01913 41.388 2.94533C40.5848 2.42407 39.9536 1.97056 39.5311 1.66823L38.9104 1.21995C38.8792 1.21995 38.3628 0.829016 37.7212 0.349454C37.4205 0.151608 37.0737 0.034872 36.7145 0.0106201H36.6572H33.4598H33.611H33.2303C30.2468 3.95658 19.5541 11.9684 15.2718 14.7155C14.0232 15.4702 12.9626 16.4987 12.1701 17.7232C11.3777 18.9477 10.8741 20.3362 10.6974 21.7838C9.96041 22.1644 9.33611 22.7315 8.88675 23.4284C8.4374 24.1253 8.1787 24.9278 8.13639 25.7558V34.8675C8.13639 36.4313 7.90165 37.7449 10.5618 39.3451L39.3173 64.887H42.3842L19.0168 44.1095L42.7494 57.5372C43.4594 57.9963 44.0506 58.6168 44.4749 59.3478C44.8991 60.0789 45.1443 60.8999 45.1904 61.7438V65.3926C45.1904 66.4977 44.6271 67.1441 43.8186 67.1441H46.8908C47.7045 67.1441 48.2678 66.4977 48.2678 65.3926V61.7438C48.2217 60.8999 47.9765 60.0789 47.5523 59.3478C47.128 58.6168 46.5367 57.9963 45.8268 57.5372L13.6288 39.3191C10.9686 37.7188 11.2033 36.3948 11.2033 34.8414V25.7766C11.2456 24.9486 11.5044 24.1462 11.9537 23.4493C12.4031 22.7524 13.0274 22.1853 13.7644 21.8046C14.286 21.5701 24.1493 17.1133 29.1775 14.1264C32.2549 12.2812 34.0857 11.0614 34.1796 10.9989C34.8823 10.5646 35.6954 10.342 36.5215 10.3577H33.4441C32.6197 10.3421 31.8083 10.5648 31.1074 10.9989C31.0083 11.0614 29.1775 12.2812 26.1001 14.1264C22.8401 16.0707 17.5407 18.6249 14.1034 20.2408C14.8146 17.9532 16.3277 15.9987 18.3648 14.7363C22.3185 12.1977 31.7489 5.16071 35.5096 0.995815C35.7078 1.14177 35.833 1.23561 35.8487 1.24082L36.4694 1.6891C36.8918 1.99144 37.5125 2.42409 38.3262 2.9662C39.938 4.05043 42.233 5.54124 44.9453 7.16758C50.3646 10.4203 60.8748 14.8614 61.4277 15.0908C62.8516 15.7006 64.6563 16.3939 65.4387 16.6545C66.2211 16.9152 66.8522 18.3643 66.8522 19.9124V34.6068C66.8522 36.1706 66.894 38.0107 66.9253 38.7353V40.0905C66.9253 41.3572 66.894 42.0713 66.894 42.1078C66.8261 43.2129 66.2159 43.8593 65.3814 43.8593H68.464C69.2985 43.8593 69.9088 43.2129 69.9714 42.1078C69.9714 42.0713 70.0079 41.3572 70.0079 40.0905V38.7353C69.9505 37.9899 69.914 36.1394 69.914 34.586Z" fill="#B3B3B3"/>
<path d="M63.0975 52.1473L60.5469 50.7034L55.6491 47.9355L25.0211 30.5983L19.0958 27.2466C18.7733 27.049 18.4046 26.9394 18.0265 26.9286C17.2128 26.9286 16.6547 27.5697 16.6547 28.68V32.3289C16.7008 33.1727 16.946 33.9937 17.3703 34.7248C17.7945 35.4559 18.3858 36.0763 19.0958 36.5355L53.7714 56.1558C54.4417 56.5661 54.9582 57.1856 55.2411 57.9187C55.5239 58.6517 55.5573 59.4573 55.3361 60.2112C55.3361 60.2112 55.2527 60.4666 54.6529 61.947C52.7332 66.8117 49.9954 71.3125 46.5577 75.2549C43.1986 79.0445 36.1988 83.5169 35.8285 83.7515C35.1149 84.1766 34.2963 84.3933 33.4657 84.377C32.6318 84.3927 31.81 84.1761 31.0924 83.7515C30.7273 83.5169 23.7327 79.0601 20.3789 75.2549C15.648 69.9119 12.1273 61.1808 11.9395 60.7429C11.1812 59.105 9.96823 57.7192 8.44482 56.75L3.65136 54.0395C3.33692 53.8438 2.97806 53.7309 2.60818 53.7111C1.90924 53.7111 1.56498 54.3314 1.81534 55.4C2.57594 58.6609 3.56062 61.8656 4.76236 64.9912C7.03611 70.7093 10.2695 75.9978 14.3232 80.6291C18.7046 85.5967 28.8287 91.6747 29.3608 91.9978C30.6856 92.7849 32.1461 93.6138 32.6103 93.8223C32.8737 93.9352 33.1583 93.9903 33.4448 93.9838C33.7331 93.9902 34.0193 93.9351 34.2846 93.8223C34.4619 93.7389 34.8062 93.5668 35.1974 93.3375C35.8546 92.9778 36.7152 92.4774 37.5289 91.9978C38.0505 91.6747 48.1851 85.5967 52.5665 80.6291C57.4064 75.0746 61.083 68.6069 63.3791 61.6082C63.8642 60.1539 64.2919 58.7204 64.657 57.3339L64.996 56.0255C65.2986 54.6493 64.4432 52.9031 63.0975 52.1473Z" fill="#E6E6E6"/>
<path d="M39.7038 21.8255C39.8445 21.8262 39.9814 21.7803 40.0932 21.6949C40.205 21.6096 40.2854 21.4897 40.3217 21.3539C40.3581 21.2181 40.3484 21.0741 40.2941 20.9444C40.2399 20.8147 40.1442 20.7066 40.022 20.637L33.7629 16.9464C33.6648 16.8888 33.5532 16.8582 33.4395 16.8578C33.3173 16.8602 33.1982 16.8963 33.0952 16.9621L27.3577 20.6474C27.2427 20.7224 27.1548 20.8322 27.107 20.9607C27.0591 21.0893 27.0537 21.2298 27.0916 21.3616C27.1296 21.4935 27.2088 21.6097 27.3177 21.6931C27.4267 21.7766 27.5595 21.823 27.6967 21.8255H39.7038Z" fill="#E6E6E6"/>
<path d="M66.8371 34.586V19.8916C66.8371 18.3278 66.1955 16.8734 65.4236 16.6337C64.6516 16.3939 62.8156 15.7006 61.4125 15.0699C60.8596 14.8405 50.3495 10.3785 44.9301 7.14668C42.2178 5.52034 39.9228 4.0191 38.3111 2.9453C37.5131 2.42404 36.8767 1.97053 36.4542 1.6682L35.8335 1.21992C35.8022 1.21992 35.3119 0.828985 34.6443 0.349423C34.2939 0.116311 33.8812 -0.00542646 33.4603 0.00018566H33.2308C32.886 0.0313674 32.5543 0.147787 32.2658 0.338987L31.0505 1.23036C30.6645 1.50663 26.8256 4.26931 21.4636 7.4438C16.1016 10.6183 6.02443 14.851 5.49762 15.0751C4.07367 15.6693 2.26895 16.3626 1.48656 16.6024C0.704171 16.8422 0.0730308 18.3121 0.0730308 19.8603V34.5547C0.0730308 36.1185 0.0365116 37.9585 0 38.6831V40.7681C0.0312957 41.8107 0.944093 43.1607 2.02901 43.7758L6.45734 46.2779L39.3178 64.8765L42.7603 66.826C43.0749 67.0199 43.4342 67.1295 43.8035 67.144C44.6119 67.144 45.1753 66.4977 45.1753 65.3926V61.7437C45.1291 60.8999 44.8839 60.0789 44.4597 59.3478C44.0355 58.6167 43.4442 57.9963 42.7342 57.5372L10.5675 39.3659C7.90737 37.7657 8.14208 36.4417 8.14208 34.8883V25.7766C8.18439 24.9486 8.44312 24.1462 8.89248 23.4492C9.34183 22.7523 9.96613 22.1852 10.7031 21.8046C11.2247 21.57 21.0933 17.1132 26.1162 14.1264C29.1936 12.2811 31.0244 11.0614 31.1235 10.9988C31.8334 10.576 32.6443 10.3528 33.4707 10.3528C34.297 10.3528 35.108 10.576 35.8179 10.9988C35.9118 11.0614 37.7426 12.2811 40.82 14.1264C45.8481 17.1237 55.7115 21.57 56.2331 21.8046C56.9701 22.1852 57.5944 22.7523 58.0437 23.4492C58.4931 24.1462 58.7518 24.9486 58.7941 25.7766V34.8883C58.7941 36.4521 58.7941 37.7396 58.7941 37.8595C58.8612 38.6739 59.1244 39.46 59.5613 40.1507C59.9982 40.8414 60.5957 41.4163 61.303 41.8263L64.2917 43.5204C64.6208 43.716 64.994 43.8253 65.3766 43.8384C66.2112 43.8384 66.8214 43.192 66.8892 42.0869C66.8892 42.0505 66.9205 41.3363 66.9205 40.0697V38.7144C66.8997 37.9898 66.8371 36.1393 66.8371 34.586Z" fill="#E6E6E6"/>
</g>
</svg>
