<svg width="264" height="264" viewBox="0 0 264 264" fill="none" xmlns="http://www.w3.org/2000/svg">
<path d="M104.023 108.963H144.886C145.307 108.991 145.729 108.933 146.127 108.791C146.524 108.65 146.888 108.428 147.196 108.14C147.505 107.851 147.75 107.503 147.918 107.116C148.086 106.729 148.173 106.311 148.173 105.889C148.173 105.468 148.086 105.05 147.918 104.663C147.75 104.276 147.505 103.928 147.196 103.639C146.888 103.351 146.524 103.129 146.127 102.988C145.729 102.846 145.307 102.788 144.886 102.816H104.023C103.243 102.868 102.512 103.215 101.979 103.785C101.445 104.356 101.148 105.108 101.148 105.889C101.148 106.671 101.445 107.423 101.979 107.994C102.512 108.564 103.243 108.911 104.023 108.963V108.963Z" fill="white"/>
<path d="M104.023 127.199H134.207C135.024 127.199 135.808 126.874 136.386 126.296C136.963 125.718 137.288 124.935 137.288 124.118C137.288 123.301 136.963 122.517 136.386 121.94C135.808 121.362 135.024 121.037 134.207 121.037H104.023C103.206 121.037 102.422 121.362 101.844 121.94C101.267 122.517 100.942 123.301 100.942 124.118C100.942 124.935 101.267 125.718 101.844 126.296C102.422 126.874 103.206 127.199 104.023 127.199V127.199Z" fill="white"/>
<path d="M126.029 139.189H104.023C103.243 139.242 102.512 139.588 101.979 140.159C101.445 140.73 101.148 141.482 101.148 142.263C101.148 143.044 101.445 143.797 101.979 144.367C102.512 144.938 103.243 145.285 104.023 145.337H126.029C126.45 145.365 126.872 145.307 127.27 145.165C127.667 145.023 128.031 144.801 128.34 144.513C128.648 144.225 128.893 143.877 129.061 143.49C129.229 143.102 129.316 142.685 129.316 142.263C129.316 141.841 129.229 141.424 129.061 141.037C128.893 140.65 128.648 140.301 128.34 140.013C128.031 139.725 127.667 139.503 127.27 139.361C126.872 139.22 126.45 139.161 126.029 139.189V139.189Z" fill="white"/>
<path d="M167.045 138.692V98.4781C167.019 94.1149 165.275 89.9377 162.189 86.8525C159.104 83.7672 154.927 82.0227 150.564 81.9973H101.467C97.1062 82.0263 92.9325 83.7724 89.8502 86.8573C86.7679 89.9422 85.0253 94.1173 85 98.4781V161.624C85.0253 165.985 86.7679 170.16 89.8502 173.245C92.9325 176.33 97.1062 178.076 101.467 178.105H141.267C143.845 180.088 146.806 181.516 149.963 182.3C153.12 183.085 156.405 183.209 159.612 182.664C162.818 182.119 165.878 180.917 168.599 179.134C171.319 177.351 173.642 175.025 175.421 172.301C177.2 169.578 178.397 166.517 178.938 163.309C179.478 160.101 179.349 156.817 178.56 153.661C177.771 150.505 176.339 147.547 174.352 144.971C172.366 142.395 169.868 140.257 167.017 138.692H167.045ZM159.281 175.549C158.075 175.821 156.842 175.96 155.606 175.964C151.348 175.968 147.249 174.342 144.153 171.42C141.056 168.497 139.196 164.499 138.954 160.248C138.713 155.996 140.109 151.814 142.855 148.559C145.601 145.305 149.489 143.225 153.721 142.748C157.952 142.271 162.206 143.432 165.608 145.993C169.01 148.554 171.302 152.321 172.014 156.519C172.725 160.718 171.803 165.029 169.435 168.568C167.066 172.107 163.433 174.605 159.281 175.549V175.549ZM101.467 171.239C98.9142 171.221 96.4723 170.194 94.6737 168.383C92.8751 166.571 91.8658 164.122 91.8658 161.569V98.4781C91.8658 95.9253 92.8751 93.4761 94.6737 91.6645C96.4723 89.853 98.9142 88.8261 101.467 88.8079H150.536C153.101 88.8079 155.561 89.8267 157.374 91.6402C159.188 93.4537 160.206 95.9134 160.206 98.4781V136.178C156.782 135.495 153.249 135.58 149.862 136.429C146.476 137.277 143.319 138.867 140.622 141.084C137.924 143.3 135.752 146.088 134.263 149.246C132.774 152.404 132.005 155.853 132.011 159.345C132.01 163.527 133.126 167.633 135.243 171.239H101.467Z" fill="white"/>
<path d="M165.525 150.808C165.158 150.534 164.74 150.336 164.296 150.224C163.852 150.112 163.391 150.088 162.938 150.155C162.485 150.222 162.049 150.377 161.656 150.612C161.264 150.848 160.921 151.158 160.648 151.526L160.179 152.148L154.459 159.856L150.163 155.781C149.837 155.433 149.443 155.155 149.006 154.965C148.569 154.775 148.097 154.676 147.621 154.675C147.144 154.674 146.672 154.771 146.234 154.959C145.796 155.147 145.401 155.423 145.073 155.769C144.745 156.116 144.492 156.525 144.329 156.973C144.166 157.421 144.096 157.898 144.123 158.374C144.151 158.85 144.276 159.315 144.49 159.741C144.705 160.167 145.004 160.545 145.369 160.851L152.512 167.62C153.159 168.237 154.021 168.579 154.915 168.573H155.205C155.696 168.533 156.173 168.389 156.604 168.151C157.035 167.912 157.411 167.586 157.706 167.192L159.764 164.429L166.243 155.698C166.519 155.33 166.719 154.912 166.832 154.466C166.946 154.021 166.969 153.558 166.903 153.103C166.836 152.648 166.68 152.212 166.443 151.818C166.207 151.424 165.895 151.08 165.525 150.808V150.808Z" fill="white"/>
</svg>
