<svg xmlns="http://www.w3.org/2000/svg" width="56" height="56" viewBox="0 0 56 56">
  <defs>
    <style>
      .cls-1 {
        fill: #fff;
      }
    </style>
  </defs>
  <g id="圖層_1" data-name="圖層 1">
    <g>
      <g>
        <path class="cls-1" d="M34.14,5.14l-2.32,1L31.7,6a4.38,4.38,0,0,0-1.1-.92,3.46,3.46,0,0,0-1.33-.47l-.18,0-.31-2.46H27.26L27,4.59l-.17,0a4.16,4.16,0,0,0-1.34.5A4.58,4.58,0,0,0,24.33,6l-.12.13-2.31-1-.68,1.22,2.05,1.5,0,.16c-.06.25-.1.49-.14.73a5,5,0,0,0,0,1.41c0,.24.08.48.14.73l0,.16-2.05,1.5.68,1.22,2.3-1,.12.11a5.42,5.42,0,0,0,1.14.88,5.14,5.14,0,0,0,1.33.53l.16,0,.31,2.44h1.52l.3-2.44.17,0a5.07,5.07,0,0,0,1.32-.53,5.18,5.18,0,0,0,1.14-.88l.12-.11,2.31,1,.67-1.22-2-1.5,0-.16c.06-.25.11-.49.15-.73a5.49,5.49,0,0,0,0-.7c0-.24,0-.48,0-.72A4.74,4.74,0,0,0,32.81,8l-.05-.16,2.05-1.51Zm-3.9,6.54a3,3,0,0,1-2.22.91,3,3,0,0,1-2.22-.91,3.15,3.15,0,0,1,0-4.45A3,3,0,0,1,28,6.32a3.12,3.12,0,0,1,3.14,3.14A3,3,0,0,1,30.24,11.68Z"/>
        <path class="cls-1" d="M28,8.15a1.31,1.31,0,0,0-.93,2.23,1.25,1.25,0,0,0,.93.39,1.23,1.23,0,0,0,.92-.39,1.29,1.29,0,0,0,0-1.85A1.22,1.22,0,0,0,28,8.15Z"/>
        <path class="cls-1" d="M16,36.93a2.8,2.8,0,0,0-2.79,2.8A2.8,2.8,0,0,0,16,42.52a2.8,2.8,0,0,0,2.8-2.79,2.8,2.8,0,0,0-2.8-2.8Z"/>
        <path class="cls-1" d="M27.14,31.43l-4.23,1.83a9,9,0,0,0-2.08-1.73,6.59,6.59,0,0,0-2.55-.9l-.56-4.47H14.21l-.56,4.47a8.13,8.13,0,0,0-2.54,1A8.88,8.88,0,0,0,9,33.26L4.79,31.43,3.19,34.3l3.75,2.75c-.1.46-.19.9-.26,1.34a9.83,9.83,0,0,0-.1,1.34,9.68,9.68,0,0,0,.1,1.33c.07.44.16.89.26,1.34L3.19,45.15,4.79,48,9,46.19a10.25,10.25,0,0,0,2.13,1.64,9.83,9.83,0,0,0,2.5,1l.56,4.47h3.51l.56-4.47a9.76,9.76,0,0,0,2.49-1,10.06,10.06,0,0,0,2.14-1.64L27.14,48l1.59-2.88L25,42.4c.11-.45.19-.9.26-1.34a8.33,8.33,0,0,0,.1-1.33,11.76,11.76,0,0,0-.08-1.34A8.43,8.43,0,0,0,25,37.05l3.75-2.75Zm-7.51,12A5,5,0,0,1,16,44.91a5.19,5.19,0,1,1,0-10.37,5.19,5.19,0,0,1,5.19,5.19A5,5,0,0,1,19.63,43.4Z"/>
        <path class="cls-1" d="M45.86,29.89a1.47,1.47,0,1,0,1,.43A1.4,1.4,0,0,0,45.86,29.89Z"/>
        <path class="cls-1" d="M51.16,33a8.08,8.08,0,0,0,.16-.8,5.16,5.16,0,0,0,.06-.79,7,7,0,0,0-.05-.79,5.4,5.4,0,0,0-.16-.78l-.05-.17L53.39,28l-.77-1.38-2.56,1.11-.12-.13a5.17,5.17,0,0,0-1.22-1A3.91,3.91,0,0,0,47.25,26l-.19,0-.34-2.72H45L44.66,26l-.18,0a5.2,5.2,0,0,0-1.48.56,5.06,5.06,0,0,0-1.23,1l-.12.13-2.56-1.11L38.33,28l2.26,1.66,0,.16c-.06.28-.11.54-.15.81a5,5,0,0,0-.06.78,5.16,5.16,0,0,0,.06.79c0,.26.09.53.15.8l0,.16-2.26,1.66.76,1.38L41.64,35l.12.12a5.8,5.8,0,0,0,2.73,1.56l.17,0,.34,2.7h1.72l.34-2.7.16,0a5.88,5.88,0,0,0,1.47-.59,6,6,0,0,0,1.26-1l.12-.12,2.55,1.11.77-1.38-2.26-1.66Zm-2.87.84a3.43,3.43,0,1,1,1-2.43A3.33,3.33,0,0,1,48.29,33.79Z"/>
      </g>
      <g>
        <path d="M34.78,10.28c0-.11,0-.23,0-.35s0-.32,0-.47,0-.32,0-.49a3.6,3.6,0,0,0,0-.36l2.46-1.75L35,2.82,32.27,4.05a4.16,4.16,0,0,0-.74-.5,7.89,7.89,0,0,0-.8-.37L30.28.31H25.76L25.31,3.2a4.7,4.7,0,0,0-.8.37,5.76,5.76,0,0,0-.73.48L21.09,2.82l-2.29,4,2.45,1.79c0,.11,0,.22,0,.34s0,.33,0,.47,0,.29,0,.46,0,.23,0,.34L18.8,12.05l2.29,4,2.69-1.23a5.76,5.76,0,0,0,.73.48,6.38,6.38,0,0,0,.79.39l.46,2.87h4.52l.45-2.86a3.75,3.75,0,0,0,.81-.39,8.22,8.22,0,0,0,.72-.49L35,16.09l2.29-4Zm-5.7,4.05-.3,2.44H27.26L27,14.33l-.16,0a5.14,5.14,0,0,1-1.33-.53,5.42,5.42,0,0,1-1.14-.88l-.12-.11-2.3,1-.68-1.22,2.05-1.5,0-.16c-.06-.25-.1-.49-.14-.73a5,5,0,0,1,0-1.41c0-.24.08-.48.14-.73l0-.16-2.05-1.5.68-1.22,2.31,1L24.33,6a4.58,4.58,0,0,1,1.11-.89,4.16,4.16,0,0,1,1.34-.5l.17,0,.31-2.45h1.52l.31,2.46.18,0a3.46,3.46,0,0,1,1.33.47A4.38,4.38,0,0,1,31.7,6l.12.13,2.32-1,.67,1.22L32.76,7.87l.05.16a4.74,4.74,0,0,1,.15.71c0,.24,0,.48,0,.72a5.49,5.49,0,0,1,0,.7c0,.24-.09.48-.15.73l0,.16,2,1.5-.67,1.22-2.31-1-.12.11a5.18,5.18,0,0,1-1.14.88,5.07,5.07,0,0,1-1.32.53Z"/>
        <path d="M30.24,7.23A3,3,0,0,0,28,6.32a3,3,0,0,0-2.22.91,3.15,3.15,0,0,0,0,4.45,3,3,0,0,0,2.22.91,3.12,3.12,0,0,0,3.14-3.13A3,3,0,0,0,30.24,7.23Zm-1.3,3.15a1.23,1.23,0,0,1-.92.39,1.25,1.25,0,0,1-.93-.39A1.31,1.31,0,0,1,28,8.15a1.22,1.22,0,0,1,.92.38,1.29,1.29,0,0,1,0,1.85Z"/>
        <path d="M28.21,28.39,23.5,30.55a6.88,6.88,0,0,0-1.45-1,12.55,12.55,0,0,0-1.62-.74l-.8-5H12.29l-.8,5.07a8.39,8.39,0,0,0-1.59.72,10.89,10.89,0,0,0-1.48,1L3.71,28.39,0,34.94l4.31,3.15a4.71,4.71,0,0,0-.1.82c0,.3,0,.58,0,.82s0,.51,0,.82a4.72,4.72,0,0,0,.1.81L0,44.52l3.71,6.54,4.71-2.15a11.88,11.88,0,0,0,1.48,1,11.32,11.32,0,0,0,1.59.76l.8,5h7.34l.8-5a6.82,6.82,0,0,0,1.62-.74,13.55,13.55,0,0,0,1.45-1l4.71,2.15,3.71-6.54L27.61,41.4a4.38,4.38,0,0,0,.1-.83c0-.3,0-.58,0-.84s0-.56,0-.86a4.61,4.61,0,0,0-.1-.86l4.31-3.07ZM25,37.05a8.43,8.43,0,0,1,.28,1.34,11.76,11.76,0,0,1,.08,1.34,8.33,8.33,0,0,1-.1,1.33c-.07.44-.15.89-.26,1.34l3.75,2.75L27.14,48l-4.23-1.84a10.06,10.06,0,0,1-2.14,1.64,9.76,9.76,0,0,1-2.49,1l-.56,4.47H14.21l-.56-4.47a9.83,9.83,0,0,1-2.5-1A10.25,10.25,0,0,1,9,46.19L4.79,48l-1.6-2.88L6.94,42.4c-.1-.45-.19-.9-.26-1.34a9.68,9.68,0,0,1-.1-1.33,9.83,9.83,0,0,1,.1-1.34c.07-.44.16-.88.26-1.34L3.19,34.3l1.6-2.87L9,33.26a8.88,8.88,0,0,1,2.09-1.67,8.13,8.13,0,0,1,2.54-1l.56-4.47h3.51l.56,4.47a6.59,6.59,0,0,1,2.55.9,9,9,0,0,1,2.08,1.73l4.23-1.83,1.59,2.87Z"/>
        <path d="M16,34.54a5.19,5.19,0,1,0,0,10.37,5.18,5.18,0,0,0,3.67-8.85A5,5,0,0,0,16,34.54Zm2,7.16a2.7,2.7,0,0,1-2,.82,2.8,2.8,0,0,1-2.79-2.79A2.8,2.8,0,0,1,16,36.93a2.8,2.8,0,0,1,2.8,2.8A2.7,2.7,0,0,1,17.94,41.7Z"/>
        <path d="M53.33,31.89c0-.19,0-.36,0-.53s0-.35,0-.54a2.58,2.58,0,0,0,0-.4L56,28.49l-2.5-4.42-3,1.35a4.68,4.68,0,0,0-.82-.55c-.32-.16-.61-.3-.89-.41l-.5-3.16H43.39l-.5,3.17a5.9,5.9,0,0,0-.89.42,7.27,7.27,0,0,0-.82.54l-3-1.36-2.5,4.42,2.7,2c0,.12,0,.25,0,.39s0,.36,0,.51,0,.32,0,.51,0,.27,0,.39l-2.7,2,2.5,4.41,3-1.36a8,8,0,0,0,1.71,1l.5,3.16h4.94l.5-3.16a4.1,4.1,0,0,0,.9-.43,7,7,0,0,0,.8-.55l3,1.36L56,34.24l-2.71-2A2.58,2.58,0,0,0,53.33,31.89Zm-6.27,4.87-.34,2.7H45l-.34-2.7-.17,0a5.8,5.8,0,0,1-2.73-1.56L41.64,35l-2.55,1.11-.76-1.38,2.26-1.66,0-.16c-.06-.27-.11-.54-.15-.8a5.16,5.16,0,0,1-.06-.79,5,5,0,0,1,.06-.78c0-.27.09-.53.15-.81l0-.16L38.33,28l.76-1.38,2.56,1.11.12-.13a5.06,5.06,0,0,1,1.23-1A5.2,5.2,0,0,1,44.48,26l.18,0L45,23.26h1.72L47.06,26l.19,0a3.91,3.91,0,0,1,1.47.52,5.17,5.17,0,0,1,1.22,1l.12.13,2.56-1.11L53.39,28l-2.27,1.67.05.17a5.4,5.4,0,0,1,.16.78,7,7,0,0,1,.05.79,5.16,5.16,0,0,1-.06.79,8.08,8.08,0,0,1-.16.8l0,.16,2.26,1.66-.77,1.38L50.07,35l-.12.12a6,6,0,0,1-1.26,1,5.88,5.88,0,0,1-1.47.59Z"/>
        <path d="M48.29,28.93a3.43,3.43,0,1,0,1,2.43A3.32,3.32,0,0,0,48.29,28.93ZM46.9,32.4a1.47,1.47,0,1,1,.43-1A1.4,1.4,0,0,1,46.9,32.4Z"/>
      </g>
    </g>
  </g>
</svg>
