<svg width="110" height="110" viewBox="0 0 110 110" fill="none" xmlns="http://www.w3.org/2000/svg">
<path d="M37.7011 40.7606H62.4259C62.6806 40.7777 62.9361 40.7423 63.1766 40.6566C63.417 40.5708 63.6373 40.4366 63.8238 40.2623C64.0103 40.0879 64.1589 39.8771 64.2605 39.6429C64.3622 39.4087 64.4146 39.1561 64.4146 38.9008C64.4146 38.6455 64.3622 38.393 64.2605 38.1588C64.1589 37.9246 64.0103 37.7138 63.8238 37.5394C63.6373 37.365 63.417 37.2308 63.1766 37.1451C62.9361 37.0594 62.6806 37.024 62.4259 37.041H37.7011C37.2294 37.0727 36.7873 37.2824 36.4644 37.6277C36.1415 37.973 35.9618 38.4281 35.9618 38.9008C35.9618 39.3736 36.1415 39.8287 36.4644 40.174C36.7873 40.5193 37.2294 40.729 37.7011 40.7606V40.7606Z" fill="white"/>
<path d="M37.7014 51.7941H55.9651C56.4594 51.7941 56.9335 51.5977 57.2831 51.2482C57.6326 50.8986 57.829 50.4245 57.829 49.9301C57.829 49.4358 57.6326 48.9617 57.2831 48.6121C56.9335 48.2625 56.4594 48.0662 55.9651 48.0662H37.7014C37.2071 48.0662 36.733 48.2625 36.3834 48.6121C36.0339 48.9617 35.8375 49.4358 35.8375 49.9301C35.8375 50.4245 36.0339 50.8986 36.3834 51.2482C36.733 51.5977 37.2071 51.7941 37.7014 51.7941V51.7941Z" fill="white"/>
<path d="M51.0163 59.0491H37.7011C37.2294 59.0807 36.7873 59.2904 36.4644 59.6357C36.1415 59.981 35.9618 60.4361 35.9618 60.9089C35.9618 61.3817 36.1415 61.8368 36.4644 62.1821C36.7873 62.5274 37.2294 62.7371 37.7011 62.7687H51.0163C51.2711 62.7858 51.5266 62.7504 51.767 62.6646C52.0075 62.5789 52.2278 62.4447 52.4143 62.2703C52.6007 62.096 52.7494 61.8851 52.851 61.6509C52.9526 61.4168 53.0051 61.1642 53.0051 60.9089C53.0051 60.6536 52.9526 60.401 52.851 60.1669C52.7494 59.9327 52.6007 59.7219 52.4143 59.5475C52.2278 59.3731 52.0075 59.2389 51.767 59.1532C51.5266 59.0674 51.2711 59.032 51.0163 59.0491V59.0491Z" fill="white"/>
<path d="M75.8335 58.7482V34.4162C75.8181 31.7762 74.7626 29.2488 72.8958 27.382C71.0291 25.5152 68.5016 24.4597 65.8616 24.4443H36.1551C33.5166 24.4619 30.9912 25.5184 29.1263 27.3849C27.2613 29.2514 26.2069 31.7777 26.1916 34.4162V72.6235C26.2069 75.262 27.2613 77.7882 29.1263 79.6548C30.9912 81.5213 33.5166 82.5778 36.1551 82.5953H60.2363C61.7966 83.7949 63.588 84.6592 65.4981 85.1338C67.4082 85.6085 69.3957 85.6833 71.3361 85.3536C73.2764 85.0239 75.1277 84.2967 76.7738 83.2178C78.4199 82.1389 79.8253 80.7314 80.9018 79.0838C81.9783 77.4361 82.7027 75.5837 83.0296 73.6429C83.3564 71.7021 83.2787 69.7146 82.8012 67.8052C82.3238 65.8958 81.4569 64.1057 80.255 62.5472C79.0531 60.9886 77.5421 59.6952 75.8168 58.7482H75.8335ZM71.1359 81.049C70.4061 81.2131 69.6606 81.2972 68.9125 81.2997C66.336 81.3026 63.8562 80.3187 61.9824 78.5502C60.1087 76.7818 58.9832 74.3629 58.8372 71.7905C58.6911 69.2181 59.5357 66.6875 61.1973 64.7183C62.8589 62.7492 65.2114 61.491 67.7717 61.2022C70.332 60.9135 72.9057 61.6161 74.9642 63.1657C77.0226 64.7153 78.4096 66.9942 78.8402 69.5345C79.2708 72.0748 78.7124 74.6836 77.2796 76.825C75.8468 78.9664 73.6484 80.4779 71.1359 81.049V81.049ZM36.1551 78.4411C34.6105 78.4301 33.133 77.8087 32.0448 76.7127C30.9565 75.6166 30.3458 74.1346 30.3458 72.5901V34.4162C30.3458 32.8716 30.9565 31.3897 32.0448 30.2936C33.133 29.1975 34.6105 28.5762 36.1551 28.5651H65.8449C67.3967 28.5651 68.885 29.1816 69.9822 30.2789C71.0795 31.3762 71.696 32.8644 71.696 34.4162V57.2269C69.6242 56.8135 67.4865 56.8654 65.4373 57.3787C63.388 57.892 61.4783 58.854 59.8461 60.1951C58.2138 61.5363 56.8998 63.2231 55.9988 65.1339C55.0977 67.0447 54.6323 69.1317 54.636 71.2443C54.6356 73.7746 55.3108 76.2591 56.5919 78.4411H36.1551Z" fill="white"/>
<path d="M74.9141 66.0788C74.6919 65.9133 74.4393 65.7932 74.1707 65.7254C73.902 65.6577 73.6227 65.6436 73.3486 65.684C73.0745 65.7244 72.8111 65.8184 72.5734 65.9607C72.3357 66.1031 72.1285 66.2909 71.9635 66.5134L71.6793 66.8896L68.2188 71.5537L65.6193 69.0879C65.422 68.8774 65.1838 68.7094 64.9192 68.5944C64.6546 68.4794 64.3693 68.4197 64.0809 68.419C63.7924 68.4184 63.5068 68.4768 63.2417 68.5906C62.9766 68.7044 62.7376 68.8713 62.5394 69.0809C62.3412 69.2905 62.188 69.5385 62.0892 69.8095C61.9904 70.0806 61.9481 70.369 61.9649 70.657C61.9817 70.945 62.0573 71.2265 62.1869 71.4842C62.3166 71.7419 62.4976 71.9704 62.7188 72.1555L67.0402 76.2512C67.4321 76.6246 67.9534 76.8313 68.4946 76.828H68.6702C68.9671 76.8036 69.2555 76.7165 69.5163 76.5724C69.7771 76.4283 70.0044 76.2305 70.1831 75.9921L71.4285 74.3204L75.3487 69.0377C75.5155 68.8153 75.6367 68.5621 75.7052 68.2926C75.7736 68.0232 75.7881 67.7428 75.7477 67.4677C75.7072 67.1927 75.6128 66.9283 75.4697 66.6899C75.3266 66.4515 75.1378 66.2438 74.9141 66.0788V66.0788Z" fill="white"/>
</svg>
