<?xml version="1.0" encoding="utf-8"?>
<!-- Generator: Adobe Illustrator 24.2.1, SVG Export Plug-In . SVG Version: 6.00 Build 0)  -->
<svg version="1.1" id="圖層_1" xmlns="http://www.w3.org/2000/svg" xmlns:xlink="http://www.w3.org/1999/xlink" x="0px" y="0px"
	 width="246px" height="246px" viewBox="0 0 246 246" style="enable-background:new 0 0 246 246;" xml:space="preserve">
<style type="text/css">
	.st0{clip-path:url(#SVGID_2_);}
	.st1{fill:#1F323D;}
</style>
<g>
	<defs>
		<rect id="SVGID_1_" x="75" y="71" width="96" height="104"/>
	</defs>
	<clipPath id="SVGID_2_">
		<use xlink:href="#SVGID_1_"  style="overflow:visible;"/>
	</clipPath>
	<g class="st0">
		<path class="st1" d="M157.9,132.9h-17.2c-0.6,0-1.2-0.2-1.6-0.7c-0.4-0.4-0.7-1-0.7-1.6c0-0.6,0.2-1.2,0.7-1.6
			c0.4-0.4,1-0.7,1.6-0.7h17.2c0.6,0,1.2,0.2,1.6,0.7c0.4,0.4,0.7,1,0.7,1.6c0,0.6-0.2,1.2-0.7,1.6
			C159.1,132.6,158.6,132.9,157.9,132.9z"/>
		<path class="st1" d="M157.9,143.5h-17.2c-0.6,0-1.2-0.2-1.6-0.7c-0.4-0.4-0.7-1-0.7-1.6s0.2-1.2,0.7-1.6c0.4-0.4,1-0.7,1.6-0.7
			h17.2c0.6,0,1.2,0.2,1.6,0.7c0.4,0.4,0.7,1,0.7,1.6s-0.2,1.2-0.7,1.6C159.1,143.3,158.6,143.5,157.9,143.5z"/>
		<path class="st1" d="M157.9,154.2h-17.2c-0.6,0-1.2-0.2-1.6-0.7c-0.4-0.4-0.7-1-0.7-1.6c0-0.6,0.2-1.2,0.7-1.6
			c0.4-0.4,1-0.7,1.6-0.7h17.2c0.6,0,1.2,0.2,1.6,0.7c0.4,0.4,0.7,1,0.7,1.6c0,0.6-0.2,1.2-0.7,1.6
			C159.1,153.9,158.6,154.2,157.9,154.2z"/>
		<path class="st1" d="M149.4,164.8h-8.6c-0.6,0-1.2-0.2-1.6-0.7c-0.4-0.4-0.7-1-0.7-1.6c0-0.6,0.2-1.2,0.7-1.6
			c0.4-0.4,1-0.7,1.6-0.7h8.6c0.6,0,1.2,0.2,1.6,0.7c0.4,0.4,0.7,1,0.7,1.6c0,0.6-0.2,1.2-0.7,1.6
			C150.6,164.6,150,164.8,149.4,164.8z"/>
		<path class="st1" d="M161.4,175h-24.2c-2.5,0-5-1-6.7-2.8c-1.8-1.8-2.8-4.2-2.8-6.7v-38.7c0-2.5,1-4.9,2.8-6.7
			c1.8-1.8,4.2-2.8,6.8-2.8h24.2c2.5,0,5,1,6.8,2.8c1.8,1.8,2.8,4.2,2.8,6.7v38.7c0,2.5-1,4.9-2.8,6.7C166.4,174,164,175,161.4,175z
			 M137.3,121.9c-1.3,0-2.6,0.5-3.5,1.4c-0.9,0.9-1.4,2.2-1.4,3.4v38.7c0,1.3,0.5,2.5,1.4,3.5c0.9,0.9,2.2,1.4,3.5,1.4h24.2
			c1.3,0,2.6-0.5,3.5-1.4c0.9-0.9,1.4-2.2,1.4-3.5v-38.7c0-1.3-0.5-2.5-1.4-3.4c-0.9-0.9-2.2-1.4-3.5-1.4H137.3z"/>
		<path class="st1" d="M130,164.8H91.2c-0.6,0-1.2-0.2-1.6-0.7c-0.4-0.4-0.7-1-0.7-1.6V73.3c0-0.6,0.2-1.2,0.7-1.6
			c0.4-0.4,1-0.7,1.6-0.7h64.2c0.6,0,1.2,0.2,1.6,0.7c0.4,0.4,0.7,1,0.7,1.6v46.4c0,0.6-0.2,1.2-0.7,1.6c-0.4,0.4-1,0.7-1.6,0.7
			c-0.6,0-1.2-0.2-1.6-0.7c-0.4-0.4-0.7-1-0.7-1.6V75.6H93.5v84.7H130c0.6,0,1.2,0.2,1.6,0.7c0.4,0.4,0.7,1,0.7,1.6
			c0,0.6-0.2,1.2-0.7,1.6C131.2,164.6,130.6,164.8,130,164.8z"/>
		<path class="st1" d="M91.2,164.8H77.3c-0.6,0-1.2-0.2-1.6-0.7c-0.4-0.4-0.7-1-0.7-1.6c0-0.6,0.2-1.2,0.7-1.6
			c0.4-0.4,1-0.7,1.6-0.7h13.9c0.6,0,1.2,0.2,1.6,0.7c0.4,0.4,0.7,1,0.7,1.6c0,0.6-0.2,1.2-0.7,1.6
			C92.4,164.6,91.8,164.8,91.2,164.8z"/>
		<path class="st1" d="M116.2,109.3h-3.6l-2-5.4h-8.4l-1.9,5.4h-3.6l7.9-20.9h3.6L116.2,109.3z M109.7,101.2l-2.9-8.2
			c-0.2-0.5-0.3-1-0.3-1.6h-0.1c-0.1,0.5-0.2,1-0.3,1.5l-2.9,8.3H109.7z"/>
		<path class="st1" d="M119.2,109.3V88.4h6.4c7.4,0,11.2,3.4,11.2,10.2c0.1,1.5-0.2,2.9-0.7,4.2c-0.5,1.3-1.4,2.6-2.5,3.6
			c-2.2,2-5.2,3-8.1,2.9H119.2z M122.4,91.2v15.3h2.9c1.1,0.1,2.1-0.1,3.1-0.4c1-0.4,1.9-0.9,2.7-1.6c1.4-1.4,2.1-3.3,2.1-5.8
			c0-2.4-0.7-4.3-2-5.6c-1.4-1.3-3.3-1.9-5.9-1.9L122.4,91.2z"/>
		<path class="st1" d="M143.9,91.1v15.6v2.6h-3.3v-2.6V88.4h3.3V91.1z"/>
		<path class="st1" d="M108,122.4H97.7v10.5H108V122.4z"/>
		<path class="st1" d="M108,139.6H97.7v10.5H108V139.6z"/>
		<path class="st1" d="M124.2,122.4h-10.3v10.5h10.3V122.4z"/>
		<path class="st1" d="M124.2,139.6h-10.3v10.5h10.3V139.6z"/>
	</g>
</g>
</svg>
