<svg xmlns="http://www.w3.org/2000/svg" width="90" height="100" viewBox="0 0 90 100">
  <defs>
    <style>
      .cls-1 {
        fill: #fff;
      }
    </style>
  </defs>
  <g id="圖層_1" data-name="圖層 1">
    <g>
      <path class="cls-1" d="M54.5,74h-19a5.3,5.3,0,1,1,0-10.6h19a5.3,5.3,0,1,1,0,10.6Zm-19-7a1.75,1.75,0,1,0,0,3.5h19a1.75,1.75,0,1,0,0-3.5Z"/>
      <path class="cls-1" d="M45,88.08a10,10,0,0,1-10-9.49,1.76,1.76,0,0,1,1.77-1.87H53.22A1.76,1.76,0,0,1,55,78.59,10,10,0,0,1,45,88.08Zm-6.06-7.81a6.44,6.44,0,0,0,12.12,0Z"/>
      <path class="cls-1" d="M57.13,60.64H48.88a1.78,1.78,0,0,1-1.78-1.77V39.93a1.78,1.78,0,0,1,1.78-1.78h5.17l-9-10-9,10h5.17a1.78,1.78,0,0,1,1.78,1.78V58.87a1.78,1.78,0,0,1-1.78,1.77H32.88a1.78,1.78,0,0,1-.9-.24,26,26,0,1,1,26,0A1.75,1.75,0,0,1,57.13,60.64Zm-6.47-3.55h6a22.45,22.45,0,1,0-23.28,0h6V41.71H32a1.78,1.78,0,0,1-1.32-3l13-14.49a1.85,1.85,0,0,1,2.64,0l13,14.49a1.78,1.78,0,0,1-1.32,3H50.66Z"/>
    </g>
  </g>
</svg>
