<svg width="21" height="20" viewBox="0 0 21 20" fill="none" xmlns="http://www.w3.org/2000/svg">
<path d="M0 15.2246V1.02696C0 0.770218 0.10687 0.534874 0.320611 0.320924C0.534351 0.106975 0.765903 0 1.01527 0H14.9885C15.2557 0 15.4962 0.106975 15.7099 0.320924C15.9237 0.534874 16.0305 0.770218 16.0305 1.02696V10.2182C16.0305 10.475 15.9237 10.7103 15.7099 10.9243C15.4962 11.1382 15.2557 11.2452 14.9885 11.2452H4.1145L0 15.2246ZM5.18321 16.0462C4.91603 16.0462 4.67112 15.935 4.44847 15.7125C4.22583 15.4899 4.1145 15.2589 4.1145 15.0193V12.9397H17.4466L17.7672 13.2478V3.95379H19.9847C20.2341 3.95379 20.4656 4.06504 20.6794 4.28755C20.8931 4.51006 21 4.74968 21 5.00642V20L16.8855 16.0462H5.18321ZM14.4809 1.48909H1.54962V11.5789L3.47328 9.7561H14.4809V1.48909ZM1.54962 1.48909V11.5789V1.48909Z" fill="#666666"/>
</svg>
