<svg width="40" height="40" viewBox="0 0 40 40" fill="none" xmlns="http://www.w3.org/2000/svg">
<path d="M33.0729 18.8663C33.0729 13.0258 27.2558 8.27209 20.1018 8.27209C12.9478 8.27209 7.13855 13.0258 7.13855 18.8663C7.13855 24.097 11.7515 28.4832 17.983 29.312C18.4052 29.4058 18.9759 29.5934 19.1245 29.9531C19.2272 30.3385 19.2406 30.7423 19.1636 31.1337L18.9994 32.2518C18.9368 32.5801 18.7335 33.5418 20.1174 32.9554C21.5013 32.369 27.592 28.5301 30.2816 25.3792C32.0206 23.6518 33.0213 21.3169 33.0729 18.8663V18.8663ZM15.5279 21.9937C15.5279 22.0601 15.5016 22.1237 15.4546 22.1707C15.4077 22.2176 15.3441 22.2439 15.2777 22.2439H11.6342C11.6018 22.244 11.5696 22.2374 11.5397 22.2248C11.5097 22.2121 11.4826 22.1936 11.46 22.1702C11.4374 22.1469 11.4197 22.1192 11.408 22.0889C11.3963 22.0586 11.3908 22.0262 11.3919 21.9937V21.9937V16.294C11.3908 16.2615 11.3963 16.2291 11.408 16.1988C11.4197 16.1685 11.4374 16.1409 11.46 16.1175C11.4826 16.0942 11.5097 16.0756 11.5397 16.063C11.5696 16.0503 11.6018 16.0438 11.6342 16.0438H12.5568C12.6232 16.0438 12.6868 16.0701 12.7338 16.1171C12.7807 16.164 12.807 16.2276 12.807 16.294V20.8131H15.2777C15.3441 20.8131 15.4077 20.8395 15.4546 20.8864C15.5016 20.9333 15.5279 20.997 15.5279 21.0633V21.9937ZM17.7249 21.9937C17.7249 22.0601 17.6986 22.1237 17.6517 22.1707C17.6047 22.2176 17.5411 22.2439 17.4747 22.2439H16.5522C16.5197 22.244 16.4875 22.2374 16.4576 22.2248C16.4276 22.2121 16.4006 22.1936 16.3779 22.1702C16.3553 22.1469 16.3376 22.1192 16.3259 22.0889C16.3142 22.0586 16.3087 22.0262 16.3098 21.9937V16.294C16.3087 16.2615 16.3142 16.2291 16.3259 16.1988C16.3376 16.1685 16.3553 16.1409 16.3779 16.1175C16.4006 16.0942 16.4276 16.0756 16.4576 16.063C16.4875 16.0503 16.5197 16.0438 16.5522 16.0438H17.4747C17.5411 16.0438 17.6047 16.0701 17.6517 16.1171C17.6986 16.164 17.7249 16.2276 17.7249 16.294V21.9937ZM23.9798 21.9937C23.9798 22.0601 23.9535 22.1237 23.9065 22.1707C23.8596 22.2176 23.796 22.2439 23.7296 22.2439H22.6976L22.6272 22.1814L20.0393 18.6552V22.0407C20.0393 22.107 20.0129 22.1707 19.966 22.2176C19.919 22.2645 19.8554 22.2909 19.7891 22.2909H18.8508C18.8183 22.2909 18.7862 22.2844 18.7562 22.2717C18.7263 22.259 18.6992 22.2405 18.6766 22.2171C18.654 22.1938 18.6363 22.1661 18.6246 22.1358C18.6129 22.1055 18.6074 22.0731 18.6084 22.0407V16.294C18.6074 16.2615 18.6129 16.2291 18.6246 16.1988C18.6363 16.1685 18.654 16.1409 18.6766 16.1175C18.6992 16.0942 18.7263 16.0756 18.7562 16.063C18.7862 16.0503 18.8183 16.0438 18.8508 16.0438H19.9454L22.5412 19.5622V16.294C22.5402 16.2615 22.5457 16.2291 22.5574 16.1988C22.5691 16.1685 22.5868 16.1409 22.6094 16.1175C22.632 16.0942 22.6591 16.0756 22.689 16.063C22.7189 16.0503 22.7511 16.0438 22.7836 16.0438H23.7062C23.7725 16.0438 23.8362 16.0701 23.8831 16.1171C23.93 16.164 23.9564 16.2276 23.9564 16.294L23.9798 21.9937ZM29.0072 17.2009C29.0072 17.2673 28.9808 17.3309 28.9339 17.3779C28.887 17.4248 28.8234 17.4511 28.757 17.4511H26.2863V18.4128H28.757C28.8234 18.4128 28.887 18.4392 28.9339 18.4861C28.9808 18.533 29.0072 18.5967 29.0072 18.663V19.5856C29.0072 19.652 28.9808 19.7156 28.9339 19.7625C28.887 19.8095 28.8234 19.8358 28.757 19.8358H26.2863V20.7975H28.757C28.8234 20.7975 28.887 20.8239 28.9339 20.8708C28.9808 20.9177 29.0072 20.9813 29.0072 21.0477V21.9703C29.0072 22.0367 28.9808 22.1003 28.9339 22.1472C28.887 22.1941 28.8234 22.2205 28.757 22.2205H25.1135C25.081 22.2205 25.0489 22.214 25.0189 22.2013C24.989 22.1887 24.9619 22.1701 24.9393 22.1468C24.9167 22.1234 24.899 22.0958 24.8873 22.0655C24.8756 22.0351 24.8701 22.0028 24.8711 21.9703V21.9703V16.294C24.8701 16.2615 24.8756 16.2291 24.8873 16.1988C24.899 16.1685 24.9167 16.1409 24.9393 16.1175C24.9619 16.0942 24.989 16.0756 25.0189 16.063C25.0489 16.0503 25.081 16.0438 25.1135 16.0438H28.757C28.8234 16.0438 28.887 16.0701 28.9339 16.1171C28.9808 16.164 29.0072 16.2276 29.0072 16.294V17.2009Z" fill="white"/>
</svg>
