<svg width="23" height="18" viewBox="0 0 23 18" fill="none" xmlns="http://www.w3.org/2000/svg">
<g clip-path="url(#clip0_777_734)">
<path d="M18.9134 7.48854C19.3904 7.51251 19.8672 7.43688 20.3133 7.26649C20.7595 7.09609 21.1653 6.83466 21.5049 6.49883C21.8445 6.16301 22.1104 5.76015 22.2858 5.3159C22.4611 4.87166 22.5421 4.39577 22.5234 3.91854C22.5358 3.00199 22.2121 2.11265 21.6134 1.41854C21.2734 1.04284 20.8559 0.745437 20.3898 0.546884C19.9236 0.348331 19.4199 0.253361 18.9134 0.268538C18.4317 0.25451 17.9522 0.33956 17.5046 0.518417C17.0571 0.697275 16.6511 0.96613 16.3117 1.30832C15.9723 1.65052 15.7068 2.05876 15.5317 2.50775C15.3565 2.95674 15.2754 3.43692 15.2934 3.91854C15.2747 4.39666 15.3559 4.87343 15.5318 5.31839C15.7078 5.76335 15.9746 6.16671 16.3153 6.50269C16.656 6.83868 17.063 7.09989 17.5104 7.26964C17.9577 7.43939 18.4356 7.51394 18.9134 7.48854ZM18.9134 2.08854C19.1494 2.07986 19.3847 2.12046 19.6041 2.20775C19.8236 2.29504 20.0225 2.4271 20.1881 2.59551C20.3536 2.76392 20.4823 2.96499 20.5659 3.1859C20.6495 3.4068 20.6861 3.64269 20.6734 3.87854C20.6917 4.12015 20.6598 4.36292 20.5799 4.59166C20.5 4.82039 20.3737 5.03016 20.2089 5.20783C20.0442 5.38549 19.8445 5.52723 19.6225 5.62415C19.4004 5.72108 19.1607 5.77111 18.9184 5.77111C18.6761 5.77111 18.4364 5.72108 18.2144 5.62415C17.9923 5.52723 17.7926 5.38549 17.6279 5.20783C17.4631 5.03016 17.3368 4.82039 17.2569 4.59166C17.177 4.36292 17.1452 4.12015 17.1634 3.87854C17.1509 3.64443 17.187 3.41027 17.2694 3.19077C17.3517 2.97127 17.4786 2.77118 17.642 2.60307C17.8054 2.43497 18.0018 2.30248 18.2189 2.21393C18.436 2.12538 18.669 2.08269 18.9034 2.08854H18.9134Z" fill="white"/>
<path d="M11.8134 8.01853C11.5685 8.02116 11.3345 8.1203 11.1623 8.29443C10.99 8.46855 10.8934 8.7036 10.8934 8.94853V10.9485C10.3619 10.642 9.75686 10.4864 9.14344 10.4985C8.66513 10.4861 8.18931 10.5713 7.74504 10.749C7.30077 10.9266 6.89739 11.193 6.55953 11.5318C6.22167 11.8706 5.95642 12.2747 5.78 12.7194C5.60358 13.1642 5.51968 13.6403 5.53344 14.1185C5.52107 14.596 5.60598 15.0709 5.78302 15.5145C5.96007 15.9581 6.22552 16.361 6.56324 16.6987C6.90096 17.0364 7.30387 17.3019 7.74745 17.4789C8.19103 17.656 8.66599 17.7409 9.14344 17.7285C9.81918 17.7389 10.4832 17.5512 11.0534 17.1885C11.1357 17.321 11.2506 17.4302 11.3872 17.5055C11.5238 17.5808 11.6775 17.6197 11.8334 17.6185C12.0784 17.6185 12.3134 17.5219 12.4875 17.3497C12.6617 17.1774 12.7608 16.9434 12.7634 16.6985V8.94853C12.7635 8.8247 12.7388 8.70211 12.6908 8.58795C12.6428 8.47379 12.5725 8.37037 12.484 8.28374C12.3955 8.19712 12.2906 8.12904 12.1755 8.08349C12.0603 8.03795 11.9372 8.01586 11.8134 8.01853ZM9.14344 12.3185C9.3795 12.3115 9.61448 12.3531 9.83375 12.4408C10.053 12.5285 10.2519 12.6605 10.4179 12.8284C10.584 12.9963 10.7137 13.1966 10.7989 13.4169C10.8842 13.6371 10.9232 13.8726 10.9134 14.1085C10.9261 14.3457 10.8892 14.5829 10.8051 14.805C10.7211 15.0271 10.5917 15.2293 10.4251 15.3986C10.2586 15.568 10.0587 15.7008 9.83799 15.7885C9.61731 15.8763 9.38077 15.9172 9.14344 15.9085C8.90733 15.9143 8.67256 15.8713 8.45377 15.7824C8.23498 15.6934 8.03686 15.5604 7.87174 15.3915C7.70662 15.2226 7.57805 15.0216 7.49404 14.8008C7.41003 14.5801 7.37238 14.3444 7.38344 14.1085C7.3723 13.8731 7.40997 13.6378 7.49408 13.4176C7.57819 13.1974 7.70693 12.9969 7.8722 12.8288C8.03748 12.6608 8.23572 12.5287 8.45449 12.4408C8.67325 12.353 8.90781 12.3114 9.14344 12.3185Z" fill="white"/>
<path d="M21.5934 10.5985C21.4367 10.5993 21.2828 10.6402 21.1463 10.7172C21.0098 10.7942 20.8952 10.9048 20.8134 11.0385C20.2462 10.6772 19.5858 10.4895 18.9134 10.4985C18.4347 10.4861 17.9584 10.5713 17.5136 10.7488C17.0688 10.9264 16.6648 11.1926 16.3261 11.5312C15.9875 11.8699 15.7213 12.2739 15.5438 12.7187C15.3662 13.1635 15.281 13.6397 15.2934 14.1185C15.2824 14.5964 15.3686 15.0716 15.5468 15.5152C15.7249 15.9588 15.9913 16.3616 16.3298 16.6992C16.6684 17.0368 17.0719 17.3021 17.516 17.479C17.9601 17.6559 18.4355 17.7408 18.9134 17.7285C19.5836 17.744 20.2426 17.5557 20.8034 17.1885C20.9096 17.3595 21.0684 17.4914 21.2559 17.5644C21.4434 17.6375 21.6496 17.6477 21.8435 17.5936C22.0373 17.5396 22.2084 17.424 22.331 17.2644C22.4536 17.1048 22.5211 16.9097 22.5234 16.7085V11.5285C22.5234 11.2818 22.4254 11.0453 22.251 10.8709C22.0766 10.6965 21.8401 10.5985 21.5934 10.5985ZM18.9034 12.3185C19.1395 12.3114 19.3745 12.3531 19.5937 12.4408C19.813 12.5285 20.0119 12.6604 20.1779 12.8284C20.344 12.9963 20.4737 13.1966 20.5589 13.4168C20.6442 13.6371 20.6831 13.8725 20.6734 14.1085C20.6734 14.5753 20.488 15.0229 20.1579 15.353C19.8279 15.6831 19.3802 15.8685 18.9134 15.8685C18.4466 15.8685 17.999 15.6831 17.6689 15.353C17.3388 15.0229 17.1534 14.5753 17.1534 14.1085C17.1424 13.8739 17.1797 13.6395 17.2633 13.42C17.3468 13.2005 17.4746 13.0005 17.6388 12.8326C17.803 12.6646 18 12.5323 18.2176 12.4439C18.4352 12.3554 18.6686 12.3127 18.9034 12.3185Z" fill="white"/>
<path d="M9.14343 0.358563C8.63791 0.343462 8.13507 0.437473 7.66914 0.634195C7.20322 0.830918 6.78516 1.12573 6.44343 1.49856C6.102 1.12806 5.68542 0.834706 5.22152 0.638112C4.75763 0.441517 4.25711 0.346211 3.75343 0.358563C3.0769 0.351135 2.41416 0.549959 1.85343 0.928563C1.76911 0.797987 1.65372 0.690359 1.51759 0.615317C1.38147 0.540274 1.22886 0.500159 1.07343 0.498563C0.826781 0.498563 0.590232 0.596545 0.415823 0.770954C0.241414 0.945363 0.143433 1.18191 0.143433 1.42856L0.143433 6.56856C0.146066 6.81348 0.24521 7.04747 0.419334 7.21972C0.593458 7.39197 0.828504 7.48858 1.07343 7.48856C1.19425 7.48988 1.31415 7.46739 1.42627 7.42237C1.5384 7.37736 1.64056 7.31069 1.72692 7.22619C1.81328 7.14169 1.88214 7.041 1.92959 6.92988C1.97703 6.81876 2.00213 6.69938 2.00343 6.57856V5.69856C2.00343 4.89856 2.00343 3.79856 2.00343 3.34856C2.00343 3.23856 2.00343 3.15856 2.00343 3.14856C2.15151 2.83526 2.38927 2.57298 2.68657 2.39495C2.98387 2.21693 3.32734 2.13117 3.67343 2.14856C3.91824 2.12934 4.16432 2.16306 4.39493 2.24744C4.62553 2.33183 4.83526 2.46488 5.00985 2.63757C5.18443 2.81026 5.31978 3.01852 5.40667 3.24819C5.49357 3.47787 5.52998 3.72356 5.51343 3.96856V6.56856C5.51343 6.81521 5.61141 7.05176 5.78582 7.22617C5.96023 7.40058 6.19678 7.49856 6.44343 7.49856C6.69008 7.49856 6.92663 7.40058 7.10104 7.22617C7.27545 7.05176 7.37343 6.81521 7.37343 6.56856V3.96856C7.36067 3.73185 7.39755 3.49508 7.48172 3.27346C7.56588 3.05184 7.69547 2.85028 7.86215 2.68171C8.02883 2.51314 8.22893 2.3813 8.44959 2.29465C8.67025 2.208 8.90659 2.16846 9.14343 2.17856C9.44869 2.15551 9.75415 2.22052 10.0236 2.36586C10.293 2.51121 10.5151 2.73079 10.6634 2.99856C10.8367 3.39838 10.9121 3.83376 10.8834 4.26856V6.56856C10.8834 6.81521 10.9814 7.05176 11.1558 7.22617C11.3302 7.40058 11.5668 7.49856 11.8134 7.49856C12.0601 7.49856 12.2966 7.40058 12.471 7.22617C12.6455 7.05176 12.7434 6.81521 12.7434 6.56856V3.96856C12.7646 3.4897 12.6861 3.01166 12.5128 2.56475C12.3395 2.11784 12.0753 1.7118 11.7368 1.3724C11.3983 1.03299 10.993 0.767611 10.5466 0.593086C10.1002 0.418562 9.62235 0.3387 9.14343 0.358563Z" fill="white"/>
</g>
<defs>
<clipPath id="clip0_777_734">
<rect width="22.38" height="17.46" fill="white" transform="translate(0.143433 0.268555)"/>
</clipPath>
</defs>
</svg>
