<svg width="26" height="22" viewBox="0 0 26 22" fill="none" xmlns="http://www.w3.org/2000/svg">
<path d="M20.8043 0.5H5.81976C4.44949 0.556618 3.1561 1.1781 2.22131 2.22908C1.28652 3.28005 0.786119 4.67536 0.829033 6.11108V15.825C0.799594 16.5412 0.905379 17.2565 1.1405 17.9298C1.37562 18.603 1.73542 19.221 2.19912 19.7483C2.66282 20.2755 3.22136 20.7017 3.84268 21.0023C4.46401 21.3029 5.13587 21.4721 5.81976 21.5H20.8409C22.2102 21.4434 23.5022 20.8215 24.4351 19.7701C25.3679 18.7188 25.8657 17.3234 25.8195 15.8889V6.1622C25.8488 5.44455 25.7421 4.72791 25.5053 4.05376C25.2685 3.37962 24.9064 2.76136 24.44 2.23477C23.9736 1.70818 23.4121 1.28372 22.7881 0.985942C22.164 0.688169 21.4897 0.523002 20.8043 0.5ZM20.3893 3.86154L13.2387 10.2523L5.29499 3.92544C5.45434 3.88032 5.61814 3.85458 5.78312 3.84875L20.3893 3.86154ZM22.8298 15.825C22.8496 16.3993 22.6516 16.9583 22.2788 17.3799C21.906 17.8015 21.3891 18.0513 20.8409 18.0746H5.81976C5.27058 18.0513 4.75243 17.8019 4.37773 17.3807C4.00303 16.9595 3.80203 16.4005 3.81855 15.825V6.87797L12.4578 13.7544C12.7083 13.9501 13.0117 14.0575 13.3242 14.0612C13.6678 14.061 14.0004 13.9343 14.2638 13.7033L22.8055 6.03439V15.8378L22.8298 15.825Z" fill="black"/>
</svg>
