<svg xmlns="http://www.w3.org/2000/svg" width="56" height="56" viewBox="0 0 56 56">
  <defs>
    <style>
      .cls-1 {
        fill: #fff;
      }

      .cls-2 {
        fill: #565e62;
      }
    </style>
  </defs>
  <g id="圖層_1" data-name="圖層 1">
    <g>
      <g>
        <path class="cls-1" d="M3.74,30.87H2.08V25.6l-1.62.47V24.82l3.13-1.08h.15Z"/>
        <path class="cls-1" d="M11.08,28a3.35,3.35,0,0,1-.65,2.23A2.22,2.22,0,0,1,8.6,31a2.24,2.24,0,0,1-1.84-.79A3.44,3.44,0,0,1,6.11,28v-1.3a3.37,3.37,0,0,1,.65-2.23,2.24,2.24,0,0,1,1.83-.78,2.24,2.24,0,0,1,1.84.79,3.43,3.43,0,0,1,.65,2.23ZM9.43,26.44a2.61,2.61,0,0,0-.2-1.15.68.68,0,0,0-.64-.38.67.67,0,0,0-.62.35,2.43,2.43,0,0,0-.21,1.07v1.83A2.42,2.42,0,0,0,8,29.32a.72.72,0,0,0,1.25,0,2.31,2.31,0,0,0,.21-1.13Z"/>
        <path class="cls-1" d="M16.73,30.87H15.08V25.6l-1.63.47V24.82l3.13-1.08h.15Z"/>
        <path class="cls-1" d="M24.07,28a3.41,3.41,0,0,1-.64,2.23A2.25,2.25,0,0,1,21.6,31a2.26,2.26,0,0,1-1.85-.79A3.44,3.44,0,0,1,19.1,28v-1.3a3.43,3.43,0,0,1,.65-2.23,2.26,2.26,0,0,1,1.84-.78,2.22,2.22,0,0,1,1.83.79,3.37,3.37,0,0,1,.65,2.23Zm-1.65-1.51a2.47,2.47,0,0,0-.2-1.15.66.66,0,0,0-.63-.38.65.65,0,0,0-.62.35,2.43,2.43,0,0,0-.21,1.07v1.83a2.44,2.44,0,0,0,.2,1.16.66.66,0,0,0,.64.37.67.67,0,0,0,.62-.36,2.45,2.45,0,0,0,.2-1.13Z"/>
        <path class="cls-1" d="M30.57,28a3.41,3.41,0,0,1-.65,2.23,2.53,2.53,0,0,1-3.67,0A3.44,3.44,0,0,1,25.6,28v-1.3a3.37,3.37,0,0,1,.65-2.23,2.54,2.54,0,0,1,3.67,0,3.43,3.43,0,0,1,.65,2.23Zm-1.65-1.51a2.61,2.61,0,0,0-.2-1.15.68.68,0,0,0-.64-.38.67.67,0,0,0-.62.35,2.43,2.43,0,0,0-.21,1.07v1.83a2.42,2.42,0,0,0,.21,1.16.72.72,0,0,0,1.25,0,2.31,2.31,0,0,0,.21-1.13Z"/>
        <path class="cls-1" d="M3.74,50.29H2.08V45l-1.62.47V44.24l3.13-1.09h.15Z"/>
        <path class="cls-1" d="M11.08,47.37a3.35,3.35,0,0,1-.65,2.23,2.22,2.22,0,0,1-1.83.79,2.27,2.27,0,0,1-1.84-.79,3.44,3.44,0,0,1-.65-2.23v-1.3a3.37,3.37,0,0,1,.65-2.23,2.24,2.24,0,0,1,1.83-.78,2.24,2.24,0,0,1,1.84.79,3.4,3.4,0,0,1,.65,2.22ZM9.43,45.86a2.61,2.61,0,0,0-.2-1.15.68.68,0,0,0-.64-.38.67.67,0,0,0-.62.35,2.4,2.4,0,0,0-.21,1.07v1.82A2.43,2.43,0,0,0,8,48.74a.72.72,0,0,0,1.25,0,2.31,2.31,0,0,0,.21-1.13Z"/>
        <path class="cls-1" d="M16.73,50.29H15.08V45l-1.63.47V44.24l3.13-1.09h.15Z"/>
        <path class="cls-1" d="M24.07,47.37a3.41,3.41,0,0,1-.64,2.23,2.25,2.25,0,0,1-1.83.79,2.29,2.29,0,0,1-1.85-.79,3.44,3.44,0,0,1-.65-2.23v-1.3a3.43,3.43,0,0,1,.65-2.23,2.26,2.26,0,0,1,1.84-.78,2.22,2.22,0,0,1,1.83.79,3.34,3.34,0,0,1,.65,2.22Zm-1.65-1.51a2.47,2.47,0,0,0-.2-1.15.66.66,0,0,0-.63-.38.65.65,0,0,0-.62.35,2.4,2.4,0,0,0-.21,1.07v1.82a2.45,2.45,0,0,0,.2,1.17.66.66,0,0,0,.64.37.67.67,0,0,0,.62-.36,2.45,2.45,0,0,0,.2-1.13Z"/>
        <path class="cls-1" d="M30.57,47.37a3.41,3.41,0,0,1-.65,2.23,2.22,2.22,0,0,1-1.83.79,2.27,2.27,0,0,1-1.84-.79,3.44,3.44,0,0,1-.65-2.23v-1.3a3.37,3.37,0,0,1,.65-2.23,2.54,2.54,0,0,1,3.67,0,3.4,3.4,0,0,1,.65,2.22Zm-1.65-1.51a2.61,2.61,0,0,0-.2-1.15.68.68,0,0,0-.64-.38.67.67,0,0,0-.62.35,2.4,2.4,0,0,0-.21,1.07v1.82a2.43,2.43,0,0,0,.21,1.17.72.72,0,0,0,1.25,0,2.31,2.31,0,0,0,.21-1.13Z"/>
        <path class="cls-1" d="M3.74,40.31H2.08V35l-1.62.47V34.26l3.13-1.09h.15Z"/>
        <path class="cls-1" d="M11.08,37.39a3.35,3.35,0,0,1-.65,2.23,2.22,2.22,0,0,1-1.83.79,2.27,2.27,0,0,1-1.84-.79,3.44,3.44,0,0,1-.65-2.23v-1.3a3.37,3.37,0,0,1,.65-2.23,2.24,2.24,0,0,1,1.83-.78,2.24,2.24,0,0,1,1.84.79,3.41,3.41,0,0,1,.65,2.23ZM9.43,35.88a2.61,2.61,0,0,0-.2-1.15.68.68,0,0,0-.64-.38A.67.67,0,0,0,8,34.7a2.4,2.4,0,0,0-.21,1.07v1.82A2.43,2.43,0,0,0,8,38.76a.72.72,0,0,0,1.25,0,2.31,2.31,0,0,0,.21-1.13Z"/>
        <path class="cls-1" d="M17.58,37.39a3.41,3.41,0,0,1-.65,2.23,2.22,2.22,0,0,1-1.83.79,2.27,2.27,0,0,1-1.84-.79,3.39,3.39,0,0,1-.66-2.23v-1.3a3.43,3.43,0,0,1,.65-2.23,2.27,2.27,0,0,1,1.84-.78,2.25,2.25,0,0,1,1.84.79,3.41,3.41,0,0,1,.65,2.23Zm-1.65-1.51a2.61,2.61,0,0,0-.2-1.15.69.69,0,0,0-.64-.38.67.67,0,0,0-.62.35,2.4,2.4,0,0,0-.21,1.07v1.82a2.59,2.59,0,0,0,.2,1.17.68.68,0,0,0,.64.37.66.66,0,0,0,.62-.36,2.43,2.43,0,0,0,.21-1.13Z"/>
        <path class="cls-1" d="M23.23,40.31H21.57V35L20,35.51V34.26l3.13-1.09h.15Z"/>
        <path class="cls-1" d="M29.73,40.31H28.07V35l-1.63.47V34.26l3.13-1.09h.16Z"/>
      </g>
      <g>
        <g>
          <g>
            <rect class="cls-1" x="40.01" y="22.86" width="5.79" height="29.33" rx="2.9" transform="translate(-13.97 41.33) rotate(-45)"/>
            <path d="M51.23,50.16a4.31,4.31,0,0,1-3-1.26L31.54,32.25a4.31,4.31,0,0,1,6.1-6.1L54.28,42.79a4.33,4.33,0,0,1,0,6.11h0A4.29,4.29,0,0,1,51.23,50.16ZM34.59,27.73a1.48,1.48,0,0,0-1.05.43,1.49,1.49,0,0,0,0,2.09L50.19,46.89a1.47,1.47,0,0,0,2.09,0h0a1.49,1.49,0,0,0,0-2.09L35.64,28.16A1.48,1.48,0,0,0,34.59,27.73Z"/>
          </g>
          <g>
            <circle class="cls-1" cx="29.98" cy="24.59" r="17.56"/>
            <path d="M30,43.57a19,19,0,1,1,19-19A19,19,0,0,1,30,43.57ZM30,8.45A16.14,16.14,0,1,0,46.12,24.59,16.16,16.16,0,0,0,30,8.45Z"/>
          </g>
        </g>
        <g>
          <path class="cls-2" d="M24.23,15.9a2.91,2.91,0,0,0-2.36,1A4.39,4.39,0,0,0,21,19.77v1.68a4.37,4.37,0,0,0,.84,2.86,2.89,2.89,0,0,0,2.36,1,2.87,2.87,0,0,0,2.36-1,4.39,4.39,0,0,0,.83-2.86V19.78a4.38,4.38,0,0,0-.84-2.87A2.89,2.89,0,0,0,24.23,15.9Zm1.08,5.87A3.1,3.1,0,0,1,25,23.22a.93.93,0,0,1-1.61,0,3.2,3.2,0,0,1-.26-1.5V19.36A3,3,0,0,1,23.44,18a.83.83,0,0,1,.79-.45.85.85,0,0,1,.82.49,3.25,3.25,0,0,1,.26,1.47Z"/>
          <path class="cls-2" d="M32.58,15.9a2.91,2.91,0,0,0-2.36,1,4.39,4.39,0,0,0-.83,2.86v1.68a4.37,4.37,0,0,0,.84,2.86,2.89,2.89,0,0,0,2.36,1,2.87,2.87,0,0,0,2.36-1,4.39,4.39,0,0,0,.83-2.86V19.78a4.38,4.38,0,0,0-.84-2.87A2.89,2.89,0,0,0,32.58,15.9Zm1.08,5.87a3.1,3.1,0,0,1-.27,1.45.93.93,0,0,1-1.61,0,3.2,3.2,0,0,1-.26-1.5V19.36A3,3,0,0,1,31.79,18a.83.83,0,0,1,.79-.45.85.85,0,0,1,.82.49,3.25,3.25,0,0,1,.26,1.47Z"/>
          <path class="cls-2" d="M26.15,27.27l-4,1.39v1.61l2.09-.61v4.76a11,11,0,0,0,2.12,1V27.27Z"/>
          <path class="cls-2" d="M35.78,31a4.35,4.35,0,0,0-.84-2.86,2.86,2.86,0,0,0-2.36-1,2.91,2.91,0,0,0-2.36,1A4.41,4.41,0,0,0,29.39,31v1.68a4.37,4.37,0,0,0,.84,2.86,2.38,2.38,0,0,0,.43.41,11.32,11.32,0,0,0,4.81-1.37,5.4,5.4,0,0,0,.31-1.9Zm-2.12,2a3.1,3.1,0,0,1-.27,1.45.92.92,0,0,1-1.61,0,3.2,3.2,0,0,1-.26-1.5V30.6a3,3,0,0,1,.27-1.37.83.83,0,0,1,.79-.45.85.85,0,0,1,.82.49,3.25,3.25,0,0,1,.26,1.47Z"/>
        </g>
        <path d="M30,37.42A12.83,12.83,0,1,1,42.8,24.59,12.85,12.85,0,0,1,30,37.42ZM30,14.6a10,10,0,1,0,10,10A10,10,0,0,0,30,14.6Z"/>
      </g>
    </g>
  </g>
</svg>
