<?xml version="1.0" encoding="utf-8"?>
<!-- Generator: Adobe Illustrator 24.2.1, SVG Export Plug-In . SVG Version: 6.00 Build 0)  -->
<svg version="1.1" id="圖層_1" xmlns="http://www.w3.org/2000/svg" xmlns:xlink="http://www.w3.org/1999/xlink" x="0px" y="0px"
	 width="90px" height="100px" viewBox="0 0 90 100" style="enable-background:new 0 0 90 100;" xml:space="preserve">
<style type="text/css">
	.st0{fill:#FFFFFF;}
</style>
<g id="圖層_1_1_">
	<g>
		<g>
			<path class="st0" d="M66.1,54.8L66.1,54.8l-35.2-20c-0.2-0.1-0.3-0.1-0.5-0.2c-0.3,0-0.4,0.4-0.4,0.7v2.9
				c0.1,1.1,0.7,2.1,1.6,2.7l27.8,15.7c1.4,0.8,2.1,2.5,1.6,4.1c0,0-0.1,0.3-0.6,1.4c-1.6,4-3.8,7.6-6.6,10.9
				c-2.7,3-8.1,6.5-8.7,6.9c-1.4,0.8-3.2,0.8-4.6,0c-1-0.6-6.1-4-8.7-6.9c-3.8-4.3-6.6-11.1-6.9-11.8c-0.5-1.2-1.4-2.1-2.4-2.8
				l-3.9-2.2c-0.1-0.1-0.3-0.1-0.4-0.2c0,0.2,0,0.3,0,0.5c0.6,2.6,1.4,5.1,2.3,7.6c1.8,4.5,4.3,8.7,7.5,12.3
				c3.5,3.9,11.6,8.8,11.9,9c1.1,0.7,2.2,1.3,2.5,1.4c0.2,0.1,0.5,0.1,0.8,0l0.7-0.4c0.5-0.3,1.2-0.7,1.9-1.1
				c0.3-0.2,8.5-5.1,11.9-9c3.8-4.4,6.7-9.5,8.5-15c0.4-1.1,0.8-2.3,1-3.4l0.3-1C67.4,56.1,66.9,55.2,66.1,54.8z"/>
			<polygon class="st0" points="42.8,26.6 38.9,29.1 46.9,29.1 			"/>
			<path class="st0" d="M68.7,28.3c0.1-0.7-0.2-1.4-0.6-1.9c-0.6-0.2-2.1-0.8-3.3-1.3c-0.4-0.2-8.9-3.8-13.3-6.4
				c-2.3-1.4-4.1-2.6-5.3-3.4c-0.6-0.4-1.2-0.8-1.5-1l-0.5-0.4l-1-0.7c-0.2-0.1-0.3-0.1-0.5-0.1h-0.1c-0.2,0-0.3,0.1-0.4,0.1
				l-0.5,0.4L41.2,14c-0.1,0.1-3.2,2.3-7.7,5c-4.2,2.5-12,5.8-12.9,6.2c-1.1,0.4-2.6,1-3.3,1.2c-0.5,0.5-0.7,1.2-0.6,1.9v11.7
				c0,1.3,0,2.8-0.1,3.3v1.7c0.1,0.7,0.6,1.4,1.3,1.8l3.5,2l29.1,16.5c0.1,0.1,0.3,0.2,0.5,0.2c0.3,0,0.4-0.4,0.4-0.7v-2.9
				c-0.1-1.1-0.7-2.1-1.6-2.7L24.1,44.5c-2.3-1.4-2.3-2.8-2.3-4V33c0.1-1.6,1-3.1,2.5-3.8c1.4-0.6,8.5-3.9,12.3-6.1
				c2.5-1.5,4-2.5,4-2.5c1.4-0.8,3.2-0.8,4.6,0c0,0,1.5,1,4,2.5c3.8,2.3,11.4,5.7,12.3,6.1c1.5,0.7,2.5,2.2,2.5,3.8v7.3
				c0,1.1,0,2.2,0,2.3c0.1,1.1,0.7,2.1,1.6,2.6l2.4,1.4c0.2,0.1,0.3,0.2,0.5,0.2c0.4,0,0.5-0.5,0.5-0.8c0-0.3,0-0.8,0-1.6v-1.1
				c0-0.5-0.1-2-0.1-3.3L68.7,28.3z"/>
		</g>
		<g>
			<path class="st0" d="M24.4,42.9c0.1,0.1,0.3,0.2,0.5,0.3l25.8,14.6c0.4,0.2,0.7,0.5,1,0.9c0.8,0.9,1.3,2,1.3,3.2v2.9
				c0,0.5-0.1,0.9-0.4,1.3v0.1h2.1c0.6,0,1.1-0.5,1.1-1.4v-2.9c-0.1-1.4-0.8-2.6-2-3.4L28.1,43.9c-2.1-1.3-1.9-2.3-1.9-3.6V33
				c0.1-1.3,0.8-2.6,2-3.2c0.4-0.2,8.3-3.8,12.3-6.1c1.4-0.9,2.5-1.6,3.2-2c-0.3-0.1-0.7-0.2-1.1-0.2c-0.5,0-1,0.1-1.4,0.4
				c0,0-1.5,1-4,2.5c-4,2.4-11.6,5.8-12.4,6.2l-0.2,0.1c-0.8,0.5-1.3,1.4-1.3,2.3v7.6C23.2,41.5,23.6,42.4,24.4,42.9z"/>
			<path class="st0" d="M36,72.6c-3.8-4.3-6.6-11.3-6.8-11.6c-0.6-1.3-1.6-2.4-2.8-3.2l-3.8-2.2l-0.2-0.1c0,0,0,0-0.1,0l-0.2-0.1
				h-0.1c-0.1,0-0.1,0-0.2,0h-1.7l3,1.7c0.5,0.3,1,0.7,1.4,1.2c0.7,0.7,1.3,1.5,1.7,2.5c0.1,0.3,2.9,7.2,6.6,11.4
				c0.6,0.7,1.3,1.3,2,1.9c2,1.7,4.2,3.3,6.4,4.7c0.4,0.3,0.9,0.4,1.5,0.4c0.4,0,0.7-0.1,1-0.2C42.1,77.8,38.1,75,36,72.6z"/>
			<path class="st0" d="M70.2,54.1l-2-1.2l-3.9-2.2L39.7,36.9L35,34.2c-0.1,0-0.1-0.1-0.2-0.1h0c-0.1,0-0.1,0-0.2-0.1l0,0
				c-0.1,0-0.2,0-0.3-0.1h-1.7l28.4,16l2.2,1.2l3.8,2.1c0.4,0.2,0.7,0.5,1,0.8c0.8,0.9,1.1,2,0.9,3.2l-0.3,1.1
				c-0.3,1.1-0.6,2.3-1,3.5c-1.9,5.7-4.9,11-8.8,15.6c-0.5,0.6-1,1.1-1.6,1.6c-3.9,3.6-9.9,7.2-10.6,7.7c-0.4,0.3-1,0.6-1.5,0.9h1.5
				c0.2,0,0.5,0,0.7-0.1c0.1-0.1,0.4-0.2,0.8-0.4c0.5-0.3,1.2-0.7,1.9-1.1c0.4-0.3,8.5-5.1,12-9.1c3.9-4.5,6.8-9.6,8.7-15.2
				c0.4-1.2,0.8-2.3,1-3.4l0.3-1C71.9,56,71.3,54.7,70.2,54.1z"/>
			<path class="st0" d="M49,29.8h2.5c0.3,0,0.5-0.2,0.5-0.5c0-0.2-0.1-0.4-0.2-0.4l-5-3c0,0-0.1,0-0.1-0.1l0,0h-0.1h-2l3.9,2.3
				c0.2,0.1,0.4,0.3,0.5,0.5l0.3,0.2c0.2,0.2,0.3,0.5,0.2,0.7C49.3,29.7,49.2,29.8,49,29.8z"/>
			<path class="st0" d="M73.2,40.1V28.3c0-1.2-0.5-2.4-1.1-2.6s-2.1-0.8-3.2-1.2c-0.4-0.2-8.9-3.8-13.2-6.3c-2.2-1.3-4-2.5-5.3-3.4
				l-1.5-1l-0.5-0.4l-1-0.7c-0.2-0.2-0.5-0.3-0.8-0.3h-1.9l0.4,0.3l0.5,0.4c0.3,0.2,0.8,0.6,1.5,1c1.2,0.8,3,2,5.3,3.3
				c4.3,2.6,12.7,6.1,13.1,6.3c1.1,0.5,2.5,1,3.1,1.2c0.4,0.1,0.8,0.4,1,0.8c0.5,0.8,0.8,1.7,0.8,2.6v11.8c0,1.2,0,2.7,0.1,3.3v1.1
				c0,0.6,0,1.1,0,1.6v0.1c0,0.5-0.1,0.9-0.4,1.3c0,0,0,0-0.1,0.1h2.1c0.7,0,1.2-0.5,1.2-1.4c0,0,0-0.6,0-1.6v-1.1
				C73.2,42.8,73.2,41.3,73.2,40.1z"/>
		</g>
	</g>
</g>
</svg>
