<svg xmlns="http://www.w3.org/2000/svg" width="90" height="100" viewBox="0 0 90 100">
  <defs>
    <style>
      .cls-1 {
        fill: #fff;
      }
    </style>
  </defs>
  <g id="圖層_1" data-name="圖層 1">
    <g>
      <circle class="cls-1" cx="45" cy="50" r="6.46"/>
      <path class="cls-1" d="M39.24,62.36a1.7,1.7,0,0,1-.76-.18,13.81,13.81,0,0,1,0-24.35A1.6,1.6,0,1,1,40,40.65a10.61,10.61,0,0,0,0,18.71,1.59,1.59,0,0,1-.75,3Z"/>
      <path class="cls-1" d="M50.77,62.36a1.6,1.6,0,0,1-.76-3,10.61,10.61,0,0,0,0-18.71,1.6,1.6,0,1,1,1.51-2.82,13.81,13.81,0,0,1,0,24.35A1.69,1.69,0,0,1,50.77,62.36Z"/>
      <path class="cls-1" d="M35.48,69.37a1.58,1.58,0,0,1-.75-.19,21.76,21.76,0,0,1,0-38.36,1.6,1.6,0,0,1,1.51,2.82,18.56,18.56,0,0,0,0,32.72,1.6,1.6,0,0,1,.65,2.17A1.58,1.58,0,0,1,35.48,69.37Z"/>
      <path class="cls-1" d="M54.52,69.37a1.58,1.58,0,0,1-1.41-.84,1.6,1.6,0,0,1,.65-2.17,18.56,18.56,0,0,0,0-32.72,1.6,1.6,0,0,1,1.51-2.82,21.76,21.76,0,0,1,0,38.36A1.58,1.58,0,0,1,54.52,69.37Z"/>
      <path class="cls-1" d="M31.67,76.49a1.58,1.58,0,0,1-.75-.19,29.84,29.84,0,0,1-.14-52.52,1.6,1.6,0,1,1,1.53,2.81,26.63,26.63,0,0,0,.12,46.89,1.6,1.6,0,0,1-.76,3Z"/>
      <path class="cls-1" d="M58.46,76.42a1.59,1.59,0,0,1-1.41-.84,1.61,1.61,0,0,1,.64-2.17,26.63,26.63,0,0,0-.12-46.89,1.6,1.6,0,0,1,1.51-2.81,29.83,29.83,0,0,1,.14,52.51A1.54,1.54,0,0,1,58.46,76.42Z"/>
      <path class="cls-1" d="M28.16,83.32a1.58,1.58,0,0,1-.75-.19,37.52,37.52,0,0,1,0-66.26,1.6,1.6,0,0,1,1.5,2.83,34.32,34.32,0,0,0,0,60.61,1.6,1.6,0,0,1-.75,3Z"/>
      <path class="cls-1" d="M62,83.26a1.6,1.6,0,0,1-.76-3,34.32,34.32,0,0,0,0-60.5,1.6,1.6,0,1,1,1.52-2.81,37.52,37.52,0,0,1,0,66.13A1.59,1.59,0,0,1,62,83.26Z"/>
    </g>
  </g>
</svg>
