<?xml version="1.0" encoding="utf-8"?>
<!-- Generator: Adobe Illustrator 24.2.1, SVG Export Plug-In . SVG Version: 6.00 Build 0)  -->
<svg version="1.1" id="圖層_1" xmlns="http://www.w3.org/2000/svg" xmlns:xlink="http://www.w3.org/1999/xlink" x="0px" y="0px"
	 width="246px" height="246px" viewBox="0 0 246 246" style="enable-background:new 0 0 246 246;" xml:space="preserve">
<style type="text/css">
	.st0{clip-path:url(#SVGID_2_);fill:#1F323D;}
</style>
<g>
	<defs>
		<rect id="SVGID_1_" x="74.5" y="78" width="97" height="90"/>
	</defs>
	<clipPath id="SVGID_2_">
		<use xlink:href="#SVGID_1_"  style="overflow:visible;"/>
	</clipPath>
	<path class="st0" d="M145.8,168h-19.7c-0.7,0-1.3-0.3-1.8-0.7c-0.5-0.5-0.8-1.1-0.8-1.8v-4.2h-10.7v4.2c0,0.7-0.3,1.3-0.8,1.8
		c-0.5,0.5-1.1,0.7-1.8,0.7H89.2c-0.6,0-1.1-0.2-1.6-0.5c-0.4-0.3-0.8-0.8-0.9-1.4l-11.6-42.4c0-0.1,0-0.2-0.1-0.2
		c-0.1-0.7-3-18.3,6.1-28.9c4.4-5.2,10.8-7.8,18.9-7.8h28.7c2.6-3.3,11-12.4,19.6-7.3c0.6,0.3,1,0.9,1.2,1.5c1.1,4.3,0.7,8.9-1,13
		l11.6,10.6h8.8c0.7,0,1.3,0.3,1.8,0.7c0.5,0.5,0.8,1.1,0.8,1.8v28.4c0,0.5-0.2,1-0.5,1.5c-0.3,0.4-0.7,0.8-1.2,0.9l-12.2,4.3
		l-9.4,24.2c-0.2,0.5-0.5,0.9-0.9,1.2C146.8,167.8,146.3,168,145.8,168z M128.6,162.9H144l9.2-23.6c0.1-0.3,0.3-0.7,0.6-0.9
		c0.3-0.3,0.6-0.5,0.9-0.6l11.6-4.1v-24.1h-7.3c-0.6,0-1.2-0.2-1.7-0.7l-13.7-12.5c-0.4-0.4-0.7-0.9-0.8-1.4c-0.1-0.6,0-1.1,0.3-1.6
		c1.6-3.1,2.2-6.5,1.7-9.9c-5.9-2.1-12.6,7.2-12.7,7.3c-0.2,0.3-0.6,0.6-0.9,0.8c-0.4,0.2-0.8,0.3-1.2,0.3h-30c-6.6,0-11.6,2-15,5.9
		c-7.2,8.5-5.2,23.3-5,24.7l11,40.4h16.5v-4.2c0-0.7,0.3-1.3,0.8-1.8c0.5-0.5,1.1-0.7,1.8-0.7h15.8c0.7,0,1.3,0.3,1.8,0.7
		c0.5,0.5,0.8,1.1,0.8,1.8V162.9z"/>
	<path class="st0" d="M123,107.8h-19.8c-0.7,0-1.3-0.3-1.8-0.7c-0.5-0.5-0.8-1.1-0.8-1.8c0-0.7,0.3-1.3,0.8-1.8
		c0.5-0.5,1.1-0.7,1.8-0.7H123c0.7,0,1.3,0.3,1.8,0.7c0.5,0.5,0.8,1.1,0.8,1.8c0,0.7-0.3,1.3-0.8,1.8
		C124.3,107.5,123.7,107.8,123,107.8z"/>
	<path class="st0" d="M142.2,120.9c2.7,0,4.9-2.2,4.9-4.8c0-2.7-2.2-4.8-4.9-4.8c-2.7,0-4.9,2.2-4.9,4.8
		C137.3,118.7,139.5,120.9,142.2,120.9z"/>
</g>
</svg>
