<svg width="40" height="40" viewBox="0 0 40 40" fill="none" xmlns="http://www.w3.org/2000/svg">
<path d="M20.074 10.0819C23.3592 10.0819 23.687 10.0819 24.998 10.1599C25.7532 10.1862 26.5002 10.3256 27.2141 10.5735C27.7375 10.775 28.2131 11.0833 28.6109 11.4787C29.003 11.879 29.3108 12.354 29.5161 12.8755C29.7629 13.5923 29.9023 14.3418 29.9297 15.0994C30.0077 16.4182 30.0077 16.7459 30.0077 20.0389C30.0077 23.332 30.0077 23.6597 29.9297 24.9785C29.9031 25.7362 29.7637 26.4858 29.5161 27.2024C29.3127 27.7249 29.0047 28.2002 28.6109 28.5992C28.2158 28.9979 27.7394 29.3067 27.2141 29.5044C26.5002 29.7523 25.7532 29.8917 24.998 29.918C23.687 29.996 23.3592 29.996 20.074 29.996C16.7888 29.996 16.4533 29.996 15.1423 29.918C14.3871 29.8917 13.64 29.7523 12.9261 29.5044C12.4009 29.3067 11.9244 28.9979 11.5293 28.5992C11.1356 28.2002 10.8275 27.7249 10.6241 27.2024C10.3766 26.4858 10.2372 25.7362 10.2106 24.9785C10.1325 23.6597 10.1325 23.332 10.1325 20.0389C10.1325 16.7459 10.1325 16.4182 10.2106 15.0994C10.238 14.3418 10.3774 13.5923 10.6241 12.8755C10.8294 12.354 11.1372 11.879 11.5293 11.4787C11.9271 11.0833 12.4028 10.775 12.9261 10.5735C13.64 10.3256 14.3871 10.1862 15.1423 10.1599C16.3752 10.0819 16.781 10.0819 20.074 10.0819ZM20.074 7.85789C16.781 7.85789 16.3752 7.85789 15.0565 7.94373C14.0446 7.956 13.043 8.14891 12.099 8.51338C11.2968 8.8243 10.5705 9.30322 9.96867 9.91798C9.35427 10.5216 8.87777 11.251 8.57186 12.0561C8.20732 13.0031 8.01187 14.0068 7.99442 15.0214C7.91638 16.3323 7.91638 16.7459 7.91638 20.0389C7.91638 23.332 7.91638 23.7455 7.99442 25.0643C8.01262 26.0763 8.20806 27.0773 8.57186 28.0218C8.88395 28.8235 9.35835 29.552 9.96532 30.1616C10.5723 30.7713 11.2987 31.2489 12.099 31.5645C13.0435 31.9283 14.0445 32.1238 15.0565 32.142C16.3752 32.22 16.781 32.22 20.074 32.22C23.367 32.22 23.765 32.22 25.0838 32.142C26.0958 32.1238 27.0967 31.9283 28.0413 31.5645C28.8416 31.2489 29.568 30.7713 30.1749 30.1616C30.7819 29.552 31.2563 28.8235 31.5684 28.0218C31.934 27.0724 32.1295 26.066 32.1458 25.0487C32.2239 23.7299 32.2239 23.3164 32.2239 20.0233C32.2239 16.7303 32.2239 16.3167 32.1458 15.0058C32.1284 13.9912 31.9329 12.9875 31.5684 12.0405C31.2625 11.2354 30.786 10.506 30.1716 9.90237C29.5698 9.28761 28.8434 8.8087 28.0413 8.49777C27.0972 8.13331 26.0957 7.9404 25.0838 7.92812C23.765 7.92812 23.3592 7.84229 20.074 7.84229V7.85789Z" fill="white"/>
<path d="M20.0741 13.7809C18.8394 13.7809 17.6325 14.147 16.6059 14.833C15.5793 15.5189 14.7791 16.4939 14.3066 17.6346C13.8341 18.7753 13.7105 20.0305 13.9514 21.2415C14.1923 22.4524 14.7868 23.5648 15.6599 24.4378C16.5329 25.3109 17.6453 25.9054 18.8562 26.1463C20.0672 26.3872 21.3224 26.2636 22.4631 25.7911C23.6038 25.3186 24.5788 24.5184 25.2647 23.4918C25.9507 22.4652 26.3168 21.2583 26.3168 20.0236C26.3168 18.3679 25.6591 16.7801 24.4884 15.6093C23.3176 14.4386 21.7298 13.7809 20.0741 13.7809ZM20.0741 24.1594C19.2755 24.1625 18.494 23.9285 17.8285 23.4871C17.163 23.0456 16.6435 22.4166 16.3358 21.6797C16.028 20.9428 15.9459 20.1312 16.0998 19.3476C16.2537 18.564 16.6367 17.8437 17.2003 17.2779C17.7639 16.7121 18.4827 16.3263 19.2657 16.1694C20.0487 16.0124 20.8607 16.0914 21.5988 16.3963C22.3368 16.7012 22.9679 17.2183 23.4118 17.882C23.8558 18.5458 24.0928 19.3264 24.0929 20.125C24.0929 21.1923 23.67 22.2161 22.9167 22.9722C22.1635 23.7284 21.1414 24.1552 20.0741 24.1594V24.1594Z" fill="white"/>
<path d="M26.5587 15.0217C27.3732 15.0217 28.0335 14.3579 28.0335 13.539C28.0335 12.7202 27.3732 12.0564 26.5587 12.0564C25.7442 12.0564 25.0839 12.7202 25.0839 13.539C25.0839 14.3579 25.7442 15.0217 26.5587 15.0217Z" fill="white"/>
</svg>
