<svg xmlns="http://www.w3.org/2000/svg" width="56" height="56" viewBox="0 0 56 56">
  <defs>
    <style>
      .cls-1, .cls-4 {
        fill: #fff;
      }

      .cls-2 {
        fill: none;
      }

      .cls-2, .cls-4 {
        stroke: #000;
        stroke-linejoin: round;
        stroke-width: 2px;
      }

      .cls-3 {
        fill: #565e62;
      }
    </style>
  </defs>
  <g id="圖層_1" data-name="圖層 1">
    <g>
      <g>
        <path class="cls-1" d="M17.49,54.39V40.76A24.37,24.37,0,0,1,8.1,33.13a18.3,18.3,0,0,1-3.44-11A19.71,19.71,0,0,1,10.71,7.66a19.73,19.73,0,0,1,14.48-6,19.61,19.61,0,0,1,13.16,4.8A23.47,23.47,0,0,1,45.86,19.2l5.06,9.09a2.92,2.92,0,0,1,.07,2.9,2.37,2.37,0,0,1-2.2,1.36H45.86v8.13a4.51,4.51,0,0,1-4.4,4.4h-5.2v9.31ZM27.39,28Z"/>
        <path d="M16.14,54.39V41.59A25.43,25.43,0,0,1,7,33.92a19.63,19.63,0,0,1-3.7-11.78A21.18,21.18,0,0,1,9.75,6.7,21.14,21.14,0,0,1,25.19.26a21,21,0,0,1,14,5.12,24.87,24.87,0,0,1,7.91,13.33l5,9a4.28,4.28,0,0,1,.06,4.16,3.73,3.73,0,0,1-3.39,2.07H47.21v6.78a5.84,5.84,0,0,1-5.75,5.75H37.61v8a1.35,1.35,0,0,1-1.35,1.35H17.49A1.34,1.34,0,0,1,16.14,54.39Zm18.77-9.31a1.35,1.35,0,0,1,1.35-1.35h5.2a3.15,3.15,0,0,0,3-3V32.55a1.34,1.34,0,0,1,1.35-1.35h2.93a1,1,0,0,0,1-.65,1.54,1.54,0,0,0-.06-1.6l-5.06-9.09a1.4,1.4,0,0,1-.13-.34A22.25,22.25,0,0,0,37.47,7.44,18.32,18.32,0,0,0,25.19,3,18.33,18.33,0,0,0,11.66,8.61,18.31,18.31,0,0,0,6,22.14,17,17,0,0,0,9.2,32.34a23.09,23.09,0,0,0,8.87,7.2,1.35,1.35,0,0,1,.77,1.22V53H34.91Z"/>
      </g>
      <g>
        <line class="cls-2" x1="25.81" y1="22.6" x2="34.44" y2="16.03"/>
        <line class="cls-2" x1="25.81" y1="22.6" x2="35.22" y2="29.53"/>
        <line class="cls-2" x1="25.81" y1="22.6" x2="24.18" y2="32.4"/>
        <line class="cls-2" x1="25.81" y1="22.6" x2="17.74" y2="23.91"/>
        <line class="cls-2" x1="25.81" y1="22.6" x2="23.05" y2="13.96"/>
        <g>
          <circle class="cls-3" cx="25.81" cy="22.6" r="3.68"/>
          <path d="M25.81,27.28a4.68,4.68,0,1,1,2.72-.87A4.66,4.66,0,0,1,25.81,27.28Zm0-7.36A2.68,2.68,0,1,0,28,21,2.69,2.69,0,0,0,25.8,19.92Z"/>
        </g>
        <circle class="cls-4" cx="34.59" cy="15.56" r="2.59"/>
        <circle class="cls-4" cx="24.15" cy="33.81" r="1.76"/>
        <g>
          <circle class="cls-3" cx="36.1" cy="30.18" r="1.76"/>
          <path d="M36.11,32.94a2.38,2.38,0,0,1-.46,0,2.75,2.75,0,0,1-2.27-3.17,2.77,2.77,0,0,1,1.12-1.79,2.76,2.76,0,1,1,3.2,4.49h0A2.69,2.69,0,0,1,36.11,32.94Zm0-3.51a.74.74,0,0,0-.44.14.75.75,0,0,0-.3.49.7.7,0,0,0,.13.56.75.75,0,0,0,1,.18h0a.75.75,0,0,0-.44-1.37Z"/>
        </g>
        <circle class="cls-4" cx="15.24" cy="24.83" r="2.64"/>
        <g>
          <circle class="cls-3" cx="22.76" cy="12.99" r="2.64"/>
          <path d="M22.76,16.63A3.64,3.64,0,1,1,24.87,16h0A3.61,3.61,0,0,1,22.76,16.63Zm0-5.28a1.59,1.59,0,1,0,.28,0Z"/>
        </g>
      </g>
    </g>
  </g>
</svg>
