<svg width="110" height="110" viewBox="0 0 110 110" fill="none" xmlns="http://www.w3.org/2000/svg">
<path d="M51.7426 64.2431H57.7961V56.6042H65.3629V50.4931H57.7961V42.8542H51.7426V50.4931H44.1758V56.6042H51.7426V64.2431ZM54.7694 85.5556C47.707 83.7732 41.9058 79.6354 37.3657 73.1424C32.8256 66.6493 30.5555 59.5324 30.5555 51.7917V33.6111L54.7694 24.4445L78.9832 33.6111V51.7917C78.9832 59.5324 76.7132 66.6493 72.1731 73.1424C67.633 79.6354 61.8317 83.7732 54.7694 85.5556ZM54.7694 80.8195C60.5706 78.8843 65.2999 75.2303 68.9572 69.8576C72.6145 64.485 74.4431 58.463 74.4431 51.7917V36.8195L54.7694 29.3333L35.0956 36.8195V51.7917C35.0956 58.463 36.9243 64.485 40.5816 69.8576C44.2389 75.2303 48.9681 78.8843 54.7694 80.8195Z" fill="white"/>
</svg>
