<svg width="52" height="40" viewBox="0 0 52 40" fill="none" xmlns="http://www.w3.org/2000/svg">
<g clip-path="url(#clip0_1168_1613)">
<path d="M29.11 12.8501H22.89C22.4261 12.8501 22.05 13.2262 22.05 13.6901V17.5901C22.05 18.054 22.4261 18.4301 22.89 18.4301H29.11C29.574 18.4301 29.95 18.054 29.95 17.5901V13.6901C29.95 13.2262 29.574 12.8501 29.11 12.8501Z" fill="white"/>
<path d="M29.13 19.27H22.87C22.6507 19.2661 22.4343 19.219 22.2332 19.1315C22.0321 19.0439 21.8502 18.9176 21.6979 18.7597C21.5456 18.6019 21.4259 18.4155 21.3456 18.2114C21.2653 18.0073 21.226 17.7893 21.23 17.57V13.7C21.226 13.4807 21.2653 13.2627 21.3456 13.0586C21.4259 12.8545 21.5456 12.6681 21.6979 12.5103C21.8502 12.3524 22.0321 12.2261 22.2332 12.1385C22.4343 12.051 22.6507 12.0039 22.87 12H29.13C29.3494 12.0039 29.5658 12.051 29.7669 12.1385C29.968 12.2261 30.1499 12.3524 30.3022 12.5103C30.4544 12.6681 30.5742 12.8545 30.6544 13.0586C30.7347 13.2627 30.774 13.4807 30.77 13.7V17.57C30.774 17.7893 30.7347 18.0073 30.6544 18.2114C30.5742 18.4155 30.4544 18.6019 30.3022 18.7597C30.1499 18.9176 29.968 19.0439 29.7669 19.1315C29.5658 19.219 29.3494 19.2661 29.13 19.27V19.27ZM22.87 13.7V17.57H29.13V13.7H22.87Z" fill="white"/>
<path d="M26.96 18.4299H25.04V25.3899H26.96V18.4299Z" fill="white"/>
<path d="M22.0801 28.8099H17.77C17.5336 28.806 17.3003 28.7556 17.0834 28.6615C16.8665 28.5674 16.6704 28.4315 16.506 28.2616C16.3416 28.0917 16.2123 27.891 16.1255 27.6711C16.0387 27.4512 15.996 27.2163 16 26.9799V22.5199C15.996 22.2836 16.0387 22.0487 16.1255 21.8288C16.2123 21.6089 16.3416 21.4082 16.506 21.2383C16.6704 21.0684 16.8665 20.9325 17.0834 20.8384C17.3003 20.7443 17.5336 20.6938 17.77 20.6899H22.0801C22.5557 20.7004 23.0079 20.8988 23.3377 21.2418C23.6675 21.5847 23.848 22.0442 23.84 22.5199V26.9799C23.848 27.4557 23.6675 27.9152 23.3377 28.2581C23.0079 28.601 22.5557 28.7994 22.0801 28.8099V28.8099ZM18.0801 26.6499H21.76V22.8399H18.0801V26.6499Z" fill="white"/>
<path d="M34.23 28.8099H29.92C29.4435 28.7994 28.9903 28.6014 28.6589 28.2587C28.3275 27.9161 28.1446 27.4566 28.15 26.9799V22.5199C28.1446 22.0433 28.3275 21.5838 28.6589 21.2411C28.9903 20.8985 29.4435 20.7004 29.92 20.6899H34.23C34.4664 20.6938 34.6997 20.7443 34.9166 20.8384C35.1335 20.9325 35.3298 21.0684 35.4941 21.2383C35.6585 21.4082 35.7877 21.6089 35.8745 21.8288C35.9613 22.0487 36.004 22.2836 36 22.5199V26.9799C36.004 27.2163 35.9613 27.4512 35.8745 27.6711C35.7877 27.891 35.6585 28.0917 35.4941 28.2616C35.3298 28.4315 35.1335 28.5674 34.9166 28.6615C34.6997 28.7556 34.4664 28.806 34.23 28.8099V28.8099ZM30.23 26.6499H33.91V22.8399H30.23V26.6499Z" fill="white"/>
<path d="M28.24 23.76H23.36V25.75H28.24V23.76Z" fill="white"/>
</g>
<defs>
<clipPath id="clip0_1168_1613">
<rect width="20" height="16.81" fill="white" transform="translate(16 12)"/>
</clipPath>
</defs>
</svg>
