<svg width="40" height="40" viewBox="0 0 40 40" fill="none" xmlns="http://www.w3.org/2000/svg">
<path d="M25.2295 20C25.2295 17.0686 22.8816 14.7062 20.002 14.7061C17.1222 14.7061 14.7734 17.0685 14.7734 20C14.7734 22.9315 17.1222 25.2939 20.002 25.2939C22.8816 25.2938 25.2295 22.9314 25.2295 20ZM26.7295 20C26.7295 23.7444 23.7255 26.7938 20.002 26.7939C16.2783 26.7939 13.2734 23.7444 13.2734 20C13.2734 16.2556 16.2783 13.2061 20.002 13.2061C23.7255 13.2062 26.7295 16.2556 26.7295 20Z" fill="black"/>
<path d="M27.9316 7.73926L23.584 15.2119L22.2871 14.458L26.6348 6.98535L27.9316 7.73926Z" fill="black"/>
<path d="M30.1201 5.2749C30.1201 4.34627 29.3781 3.6071 28.4795 3.60693C27.5807 3.60693 26.8379 4.34617 26.8379 5.2749C26.8381 6.20345 27.5809 6.94189 28.4795 6.94189C29.378 6.94173 30.1199 6.20335 30.1201 5.2749ZM31.6201 5.2749C31.6199 7.01629 30.2218 8.44173 28.4795 8.44189C26.737 8.44189 25.3381 7.01639 25.3379 5.2749C25.3379 3.53324 26.7369 2.10693 28.4795 2.10693C30.222 2.1071 31.6201 3.53334 31.6201 5.2749Z" fill="black"/>
<path d="M17.7178 14.4648L16.4131 15.2051L12.1738 7.73242L13.4785 6.99219L17.7178 14.4648Z" fill="black"/>
<path d="M13.2725 5.2749C13.2725 4.34628 12.5305 3.6071 11.6318 3.60693C10.7331 3.60693 9.99023 4.34617 9.99023 5.2749C9.99044 6.20345 10.7332 6.94189 11.6318 6.94189C12.5303 6.94173 13.2723 6.20335 13.2725 5.2749ZM14.7725 5.2749C14.7723 7.01629 13.3742 8.44173 11.6318 8.44189C9.88936 8.44189 8.49044 7.01639 8.49023 5.2749C8.49023 3.53324 9.88923 2.10693 11.6318 2.10693C13.3743 2.1071 14.7725 3.53334 14.7725 5.2749Z" fill="black"/>
<path d="M14.1318 19.25V20.75H5.54492V19.25H14.1318Z" fill="black"/>
<path d="M4.79395 20C4.79395 19.0714 4.05195 18.3322 3.15332 18.332C2.25456 18.332 1.51172 19.0713 1.51172 20C1.51192 20.9285 2.25468 21.667 3.15332 21.667C4.05182 21.6668 4.79374 20.9284 4.79395 20ZM6.29395 20C6.29374 21.7414 4.89565 23.1668 3.15332 23.167C1.41085 23.167 0.0119252 21.7415 0.0117188 20C0.0117188 18.2583 1.41072 16.832 3.15332 16.832C4.89578 16.8322 6.29395 18.2584 6.29395 20Z" fill="black"/>
<path d="M17.7178 25.5347L13.4785 33.0073L12.1738 32.2671L16.4131 24.7944L17.7178 25.5347Z" fill="black"/>
<path d="M13.2725 34.7256C13.2725 33.797 12.5305 33.0578 11.6318 33.0576C10.7331 33.0576 9.99023 33.7969 9.99023 34.7256C9.99044 35.6541 10.7332 36.3926 11.6318 36.3926C12.5303 36.3924 13.2723 35.654 13.2725 34.7256ZM14.7725 34.7256C14.7723 36.467 13.3742 37.8924 11.6318 37.8926C9.88936 37.8926 8.49044 36.4671 8.49023 34.7256C8.49023 32.9839 9.88923 31.5576 11.6318 31.5576C13.3743 31.5578 14.7725 32.984 14.7725 34.7256Z" fill="black"/>
<path d="M27.9316 32.2603L26.6348 33.0142L22.2871 25.5415L23.584 24.7876L27.9316 32.2603Z" fill="black"/>
<path d="M30.1201 34.7256C30.1201 33.797 29.3781 33.0578 28.4795 33.0576C27.5807 33.0576 26.8379 33.7969 26.8379 34.7256C26.8381 35.6541 27.5809 36.3926 28.4795 36.3926C29.378 36.3924 30.1199 35.654 30.1201 34.7256ZM31.6201 34.7256C31.6199 36.467 30.2218 37.8924 28.4795 37.8926C26.737 37.8926 25.3381 36.4671 25.3379 34.7256C25.3379 32.9839 26.7369 31.5576 28.4795 31.5576C30.222 31.5578 31.6201 32.984 31.6201 34.7256Z" fill="black"/>
<path d="M34.457 19.25V20.75H25.9785V19.25H34.457Z" fill="black"/>
<path d="M38.4893 20C38.4893 19.0714 37.7473 18.3322 36.8486 18.332C35.9499 18.332 35.207 19.0713 35.207 20C35.2072 20.9285 35.95 21.667 36.8486 21.667C37.7471 21.6668 38.4891 20.9284 38.4893 20ZM39.9893 20C39.9891 21.7414 38.591 23.1668 36.8486 23.167C35.1062 23.167 33.7072 21.7415 33.707 20C33.707 18.2583 35.106 16.832 36.8486 16.832C38.5911 16.8322 39.9893 18.2584 39.9893 20Z" fill="black"/>
<path d="M20.1105 5.71424C20.5307 5.71424 20.8714 5.36985 20.8714 4.94501C20.8714 4.52018 20.5307 4.17578 20.1105 4.17578C19.6903 4.17578 19.3496 4.52018 19.3496 4.94501C19.3496 5.36985 19.6903 5.71424 20.1105 5.71424Z" fill="black"/>
<path d="M17.2843 5.71424C17.7045 5.71424 18.0452 5.36985 18.0452 4.94501C18.0452 4.52018 17.7045 4.17578 17.2843 4.17578C16.8641 4.17578 16.5234 4.52018 16.5234 4.94501C16.5234 5.36985 16.8641 5.71424 17.2843 5.71424Z" fill="black"/>
<path d="M22.8273 5.71424C23.2475 5.71424 23.5881 5.36985 23.5881 4.94501C23.5881 4.52018 23.2475 4.17578 22.8273 4.17578C22.4071 4.17578 22.0664 4.52018 22.0664 4.94501C22.0664 5.36985 22.4071 5.71424 22.8273 5.71424Z" fill="black"/>
<path d="M20.1105 35.7142C20.5307 35.7142 20.8714 35.3698 20.8714 34.945C20.8714 34.5202 20.5307 34.1758 20.1105 34.1758C19.6903 34.1758 19.3496 34.5202 19.3496 34.945C19.3496 35.3698 19.6903 35.7142 20.1105 35.7142Z" fill="black"/>
<path d="M17.2843 35.7142C17.7045 35.7142 18.0452 35.3698 18.0452 34.945C18.0452 34.5202 17.7045 34.1758 17.2843 34.1758C16.8641 34.1758 16.5234 34.5202 16.5234 34.945C16.5234 35.3698 16.8641 35.7142 17.2843 35.7142Z" fill="black"/>
<path d="M22.8273 35.7142C23.2475 35.7142 23.5881 35.3698 23.5881 34.945C23.5881 34.5202 23.2475 34.1758 22.8273 34.1758C22.4071 34.1758 22.0664 34.5202 22.0664 34.945C22.0664 35.3698 22.4071 35.7142 22.8273 35.7142Z" fill="black"/>
<path d="M7.17298 13.1864C7.5932 13.1864 7.93385 12.842 7.93385 12.4172C7.93385 11.9923 7.5932 11.6479 7.17298 11.6479C6.75276 11.6479 6.41211 11.9923 6.41211 12.4172C6.41211 12.842 6.75276 13.1864 7.17298 13.1864Z" fill="black"/>
<path d="M5.76087 15.6039C6.18109 15.6039 6.52174 15.2595 6.52174 14.8347C6.52174 14.4098 6.18109 14.0654 5.76087 14.0654C5.34065 14.0654 5 14.4098 5 14.8347C5 15.2595 5.34065 15.6039 5.76087 15.6039Z" fill="black"/>
<path d="M8.58704 10.7689C9.00726 10.7689 9.34791 10.4245 9.34791 9.9997C9.34791 9.57487 9.00726 9.23047 8.58704 9.23047C8.16683 9.23047 7.82617 9.57487 7.82617 9.9997C7.82617 10.4245 8.16683 10.7689 8.58704 10.7689Z" fill="black"/>
<path d="M32.8253 28.2416C33.2455 28.2416 33.5862 27.8972 33.5862 27.4724C33.5862 27.0475 33.2455 26.7031 32.8253 26.7031C32.4051 26.7031 32.0645 27.0475 32.0645 27.4724C32.0645 27.8972 32.4051 28.2416 32.8253 28.2416Z" fill="black"/>
<path d="M31.4132 30.6591C31.8334 30.6591 32.1741 30.3147 32.1741 29.8898C32.1741 29.465 31.8334 29.1206 31.4132 29.1206C30.993 29.1206 30.6523 29.465 30.6523 29.8898C30.6523 30.3147 30.993 30.6591 31.4132 30.6591Z" fill="black"/>
<path d="M34.2394 25.7142C34.6596 25.7142 35.0003 25.3698 35.0003 24.945C35.0003 24.5202 34.6596 24.1758 34.2394 24.1758C33.8192 24.1758 33.4785 24.5202 33.4785 24.945C33.4785 25.3698 33.8192 25.7142 34.2394 25.7142Z" fill="black"/>
<path d="M7.17298 28.2416C7.5932 28.2416 7.93385 27.8972 7.93385 27.4724C7.93385 27.0475 7.5932 26.7031 7.17298 26.7031C6.75276 26.7031 6.41211 27.0475 6.41211 27.4724C6.41211 27.8972 6.75276 28.2416 7.17298 28.2416Z" fill="black"/>
<path d="M8.47767 30.6591C8.89788 30.6591 9.23854 30.3147 9.23854 29.8898C9.23854 29.465 8.89788 29.1206 8.47767 29.1206C8.05745 29.1206 7.7168 29.465 7.7168 29.8898C7.7168 30.3147 8.05745 30.6591 8.47767 30.6591Z" fill="black"/>
<path d="M5.76087 25.8241C6.18109 25.8241 6.52174 25.4797 6.52174 25.0549C6.52174 24.63 6.18109 24.2856 5.76087 24.2856C5.34065 24.2856 5 24.63 5 25.0549C5 25.4797 5.34065 25.8241 5.76087 25.8241Z" fill="black"/>
<path d="M32.8253 13.2963C33.2455 13.2963 33.5862 12.9519 33.5862 12.527C33.5862 12.1022 33.2455 11.7578 32.8253 11.7578C32.4051 11.7578 32.0645 12.1022 32.0645 12.527C32.0645 12.9519 32.4051 13.2963 32.8253 13.2963Z" fill="black"/>
<path d="M34.13 15.7138C34.5502 15.7138 34.8909 15.3694 34.8909 14.9445C34.8909 14.5197 34.5502 14.1753 34.13 14.1753C33.7098 14.1753 33.3691 14.5197 33.3691 14.9445C33.3691 15.3694 33.7098 15.7138 34.13 15.7138Z" fill="black"/>
<path d="M31.4132 10.8788C31.8334 10.8788 32.1741 10.5344 32.1741 10.1096C32.1741 9.68473 31.8334 9.34033 31.4132 9.34033C30.993 9.34033 30.6523 9.68473 30.6523 10.1096C30.6523 10.5344 30.993 10.8788 31.4132 10.8788Z" fill="black"/>
</svg>
