<svg width="52" height="40" viewBox="0 0 52 40" fill="none" xmlns="http://www.w3.org/2000/svg">
<path d="M25.9744 11.8374C28.6697 11.8374 28.9385 11.8374 30.0141 11.9014C30.6337 11.923 31.2466 12.0374 31.8323 12.2407C32.2616 12.4061 32.6519 12.659 32.9782 12.9834C33.2999 13.3118 33.5524 13.7015 33.7209 14.1293C33.9233 14.7175 34.0377 15.3323 34.0602 15.9539C34.1242 17.0359 34.1242 17.3047 34.1242 20.0064C34.1242 22.7081 34.1242 22.977 34.0602 24.0589C34.0383 24.6806 33.924 25.2955 33.7209 25.8835C33.554 26.3121 33.3013 26.7021 32.9782 27.0294C32.6541 27.3565 32.2632 27.6098 31.8323 27.7721C31.2466 27.9754 30.6337 28.0898 30.0141 28.1114C28.9385 28.1754 28.6697 28.1754 25.9744 28.1754C23.2791 28.1754 23.0038 28.1754 21.9283 28.1114C21.3087 28.0898 20.6958 27.9754 20.1101 27.7721C19.6792 27.6098 19.2883 27.3565 18.9641 27.0294C18.6411 26.7021 18.3884 26.3121 18.2215 25.8835C18.0184 25.2955 17.904 24.6806 17.8822 24.0589C17.8182 22.977 17.8182 22.7081 17.8182 20.0064C17.8182 17.3047 17.8182 17.0359 17.8822 15.9539C17.9047 15.3323 18.019 14.7175 18.2215 14.1293C18.3899 13.7015 18.6425 13.3118 18.9641 12.9834C19.2905 12.659 19.6807 12.4061 20.1101 12.2407C20.6958 12.0374 21.3087 11.923 21.9283 11.9014C22.9398 11.8374 23.2727 11.8374 25.9744 11.8374ZM25.9744 10.0128C23.2727 10.0128 22.9398 10.0128 21.8579 10.0832C21.0277 10.0933 20.206 10.2516 19.4315 10.5506C18.7734 10.8057 18.1775 11.1986 17.6837 11.7029C17.1797 12.1981 16.7887 12.7966 16.5378 13.4571C16.2387 14.2341 16.0783 15.0575 16.064 15.8899C16 16.9654 16 17.3047 16 20.0064C16 22.7081 16 23.0474 16.064 24.1293C16.079 24.9596 16.2393 25.7808 16.5378 26.5557C16.7938 27.2134 17.183 27.8111 17.681 28.3113C18.179 28.8114 18.7749 29.2033 19.4315 29.4622C20.2064 29.7607 21.0276 29.921 21.8579 29.936C22.9398 30 23.2727 30 25.9744 30C28.6761 30 29.0026 30 30.0845 29.936C30.9148 29.921 31.736 29.7607 32.5109 29.4622C33.1675 29.2033 33.7634 28.8114 34.2614 28.3113C34.7594 27.8111 35.1486 27.2134 35.4046 26.5557C35.7046 25.7768 35.8649 24.9511 35.8784 24.1165C35.9424 23.0346 35.9424 22.6953 35.9424 19.9936C35.9424 17.2919 35.9424 16.9526 35.8784 15.8771C35.864 15.0447 35.7037 14.2213 35.4046 13.4443C35.1536 12.7838 34.7627 12.1853 34.2586 11.6901C33.7649 11.1858 33.169 10.7929 32.5109 10.5378C31.7364 10.2388 30.9147 10.0805 30.0845 10.0704C29.0026 10.0704 28.6697 10 25.9744 10V10.0128Z" fill="white"/>
<path d="M25.9747 14.8718C24.9617 14.8718 23.9715 15.1722 23.1292 15.735C22.287 16.2978 21.6305 17.0976 21.2429 18.0335C20.8552 18.9694 20.7538 19.9991 20.9514 20.9926C21.1491 21.9861 21.6368 22.8987 22.3531 23.615C23.0694 24.3313 23.982 24.8191 24.9755 25.0167C25.969 25.2143 26.9988 25.1129 27.9346 24.7252C28.8705 24.3376 29.6704 23.6811 30.2332 22.8389C30.7959 21.9966 31.0963 21.0064 31.0963 19.9935C31.0963 18.6351 30.5567 17.3324 29.5962 16.3719C28.6357 15.4114 27.333 14.8718 25.9747 14.8718ZM25.9747 23.3866C25.3195 23.3891 24.6783 23.1971 24.1323 22.835C23.5863 22.4728 23.1601 21.9568 22.9076 21.3522C22.6552 20.7476 22.5878 20.0817 22.714 19.4389C22.8403 18.796 23.1545 18.205 23.6169 17.7408C24.0793 17.2767 24.669 16.9602 25.3114 16.8314C25.9538 16.7026 26.62 16.7674 27.2255 17.0176C27.8311 17.2677 28.3487 17.6919 28.713 18.2365C29.0773 18.7811 29.2717 19.4215 29.2717 20.0767C29.2717 20.9523 28.9248 21.7922 28.3068 22.4126C27.6889 23.033 26.8503 23.3832 25.9747 23.3866V23.3866Z" fill="white"/>
<path d="M31.2945 15.8903C31.9628 15.8903 32.5045 15.3457 32.5045 14.6739C32.5045 14.0021 31.9628 13.4575 31.2945 13.4575C30.6263 13.4575 30.0845 14.0021 30.0845 14.6739C30.0845 15.3457 30.6263 15.8903 31.2945 15.8903Z" fill="white"/>
</svg>
