<?xml version="1.0" encoding="utf-8"?>
<!-- Generator: Adobe Illustrator 24.2.1, SVG Export Plug-In . SVG Version: 6.00 Build 0)  -->
<svg version="1.1" id="圖層_1" xmlns="http://www.w3.org/2000/svg" xmlns:xlink="http://www.w3.org/1999/xlink" x="0px" y="0px"
	 width="15.7px" height="17px" viewBox="0 0 15.7 17" style="enable-background:new 0 0 15.7 17;" xml:space="preserve">
<style type="text/css">
	.st0{fill:#737D82;}
</style>
<g>
	<path class="st0" d="M15.3,16.2L15.3,16.2c0.7-0.7,0.7-1.7,0-2.4l-4.1-4.1c-0.7-0.7-0.7-1.7,0-2.4l4.1-4.1c0.7-0.7,0.7-1.7,0-2.4
		l0,0c-0.7-0.7-1.7-0.7-2.4,0L6.4,7.3C5.8,8,5.8,9,6.4,9.7l6.5,6.5C13.6,16.8,14.6,16.8,15.3,16.2z"/>
	<path class="st0" d="M1.6,17C0.7,17,0,16.3,0,15.4V1.6C0,0.7,0.7,0,1.6,0s1.6,0.7,1.6,1.6v13.8C3.3,16.3,2.5,17,1.6,17z"/>
</g>
</svg>
