<?xml version="1.0" encoding="utf-8"?>
<!-- Generator: Adobe Illustrator 24.2.1, SVG Export Plug-In . SVG Version: 6.00 Build 0)  -->
<svg version="1.1" id="圖層_1" xmlns="http://www.w3.org/2000/svg" xmlns:xlink="http://www.w3.org/1999/xlink" x="0px" y="0px"
	 width="45.5px" height="61.2px" viewBox="0 0 45.5 61.2" style="enable-background:new 0 0 45.5 61.2;" xml:space="preserve">
<style type="text/css">
	.st0{fill:#262626;}
	.st1{fill:url(#SVGID_1_);}
	.st2{fill:url(#SVGID_2_);}
	.st3{fill:url(#SVGID_3_);}
	.st4{fill:url(#SVGID_4_);}
	.st5{fill:url(#SVGID_5_);}
	.st6{fill:url(#SVGID_6_);}
	.st7{fill:url(#SVGID_7_);}
</style>
<g>
	<path class="st0" d="M1.7,35h2c0.2,0,0.5,0.1,0.7,0.2h-2C2.2,35.1,1.9,35,1.7,35L1.7,35z"/>
	<path class="st0" d="M1.7,35h2c0.1,0,0.2,0,0.2,0H2C1.9,35,1.9,35,1.7,35"/>
	<path class="st0" d="M2,35h2c0.1,0,0.3,0.1,0.4,0.2h-2C2.3,35.1,2.1,35.1,2,35"/>
	<path class="st0" d="M2.4,35.2h2L7.5,37h-2L2.4,35.2z"/>
	<path class="st0" d="M11.7,17.5h2c0.2,0,0.5,0.1,0.7,0.2h-2C12.2,17.6,12,17.5,11.7,17.5L11.7,17.5z"/>
	<path class="st0" d="M11.8,17.5h2c0.1,0,0.2,0,0.3,0.1h-2C12,17.5,11.9,17.5,11.8,17.5"/>
	<path class="st0" d="M12.1,17.6h2c0.1,0,0.3,0.1,0.4,0.2h-2C12.3,17.7,12.2,17.6,12.1,17.6"/>
	<path class="st0" d="M12.4,17.7h2l3.9,2.2h-2L12.4,17.7z"/>
	<path class="st0" d="M5.5,37h2c1,0.6,1.8,1.5,2.3,2.6c0.1,0.3,2.4,6,5.5,9.5c2.1,2.1,4.5,3.9,7,5.5c0.5,0.3,1,0.4,1.5,0.4h-2
		c-0.5,0-1.1-0.1-1.5-0.4c-2.5-1.6-4.9-3.5-7-5.5c-3.1-3.5-5.4-9.1-5.5-9.5C7.3,38.5,6.5,37.6,5.5,37L5.5,37z"/>
	<path class="st0" d="M5.5,37h2c1,0.6,1.8,1.5,2.3,2.6c0.1,0.3,2.4,6,5.5,9.5c2.1,2.1,4.5,3.9,7,5.5c0.2,0.1,0.4,0.2,0.6,0.3h-2
		c-0.2-0.1-0.4-0.2-0.6-0.3c-2.5-1.6-4.9-3.5-7-5.5c-3.1-3.5-5.4-9.1-5.5-9.5C7.2,38.5,6.5,37.6,5.5,37"/>
	<path class="st0" d="M20.9,54.8h2c0.2,0.1,0.5,0.1,0.7,0.1h-2C21.3,54.9,21.1,54.9,20.9,54.8"/>
	<path class="st0" d="M22.3,61.1h2c-0.2,0.1-0.4,0.1-0.5,0.1h-2C21.9,61.2,22.1,61.2,22.3,61.1L22.3,61.1z"/>
	<path class="st0" d="M22.3,61.1h2c-0.2,0.1-0.4,0.1-0.5,0.1h-2C21.9,61.2,22.1,61.2,22.3,61.1"/>
	<path class="st0" d="M22.9,60.8h2l-0.6,0.3h-2L22.9,60.8z"/>
	<path class="st0" d="M22.9,60.8h2l-0.6,0.3h-2L22.9,60.8z"/>
	<path class="st0" d="M16.3,19.9h2l18.7,16.7h-2L16.3,19.9z"/>
	<path class="st0" d="M16.3,19.9h2l19.9,11.3h-2L16.3,19.9z"/>
	<path class="st0" d="M36,39.2h2c0.2,0.8,0.3,1.6,0.2,2.4c0,1.6-0.2,3.2-0.7,4.7c-1.3,4.4-12.6,14.5-12.6,14.5h-2
		c0,0,11.4-10.2,12.6-14.5c0.4-1.5,0.7-3.1,0.7-4.7C36.2,40.8,36.2,40,36,39.2L36,39.2z"/>
	<path class="st0" d="M36,39.2h2c0.2,0.8,0.3,1.6,0.2,2.4c0,1.6-0.2,3.2-0.7,4.7c-1.3,4.4-12.6,14.5-12.6,14.5h-2
		c0,0,11.4-10.2,12.6-14.5c0.4-1.5,0.7-3.1,0.7-4.7C36.2,40.8,36.2,40,36,39.2"/>
	<path class="st0" d="M36.2,31.2h2l3.2,1.8h-2L36.2,31.2z"/>
	<path class="st0" d="M36.2,31.2h2l3.2,1.8h-2L36.2,31.2z"/>
	<path class="st0" d="M39.4,33h2L43,34h-2L39.4,33z"/>
	<path class="st0" d="M42.2,36.5h2L44,37.3c-0.2,0.9-0.5,1.8-0.8,2.8c-1.5,4.6-3.9,8.8-7,12.4c-2.8,3.2-9.4,7.2-9.8,7.4
		c-0.5,0.3-1.1,0.6-1.5,0.9h-2c0.4-0.2,1-0.6,1.5-0.9c0.3-0.2,6.9-4.2,9.8-7.4c3.2-3.6,5.5-7.8,7-12.4c0.3-0.9,0.6-1.9,0.8-2.8
		L42.2,36.5z"/>
	<path class="st0" d="M42.2,36.5h2L44,37.3c-0.2,0.9-0.5,1.8-0.8,2.8c-1.5,4.6-3.9,8.8-7,12.4c-2.8,3.2-9.4,7.2-9.8,7.4
		c-0.5,0.3-1.1,0.6-1.5,0.9h-2c0.4-0.2,1-0.6,1.5-0.9c0.3-0.2,6.9-4.2,9.8-7.4c3.2-3.6,5.5-7.8,7-12.4c0.3-0.9,0.6-1.9,0.8-2.8
		L42.2,36.5"/>
	<path class="st0" d="M41,34h2c0.4,0.3,0.8,0.6,1,1.1c0.2,0.4,0.3,1,0.2,1.5h-2c0.1-0.5,0-1-0.2-1.5C41.8,34.6,41.4,34.2,41,34
		L41,34z"/>
	<path class="st0" d="M41,34h2c0.4,0.3,0.8,0.6,1,1.1c0.2,0.4,0.3,1,0.2,1.5h-2c0.1-0.5,0-1-0.2-1.5C41.8,34.6,41.4,34.2,41,34"/>
	<path class="st0" d="M7.3,16.8h-2v5.9h2V16.8z"/>
	<path class="st0" d="M5.3,22.7h2c-0.1,0.6,0,1.2,0.3,1.7c0.3,0.5,0.7,0.9,1.3,1.2h-2c-0.6-0.2-1-0.7-1.3-1.2
		C5.3,23.9,5.2,23.3,5.3,22.7z"/>
	<path class="st0" d="M5.3,22.7h2c-0.1,0.6,0,1.2,0.3,1.7c0.3,0.5,0.7,0.9,1.3,1.2h-2c-0.6-0.2-1-0.7-1.3-1.2
		C5.3,23.9,5.2,23.3,5.3,22.7"/>
	<path class="st0" d="M7,14.2h2c-0.5,0.2-0.9,0.6-1.2,1.1c-0.3,0.5-0.5,1-0.5,1.5h-2c0-0.5,0.2-1.1,0.5-1.5
		C6.1,14.8,6.5,14.4,7,14.2L7,14.2z"/>
	<path class="st0" d="M7,14.2h2c-0.5,0.2-0.9,0.6-1.2,1.1c-0.3,0.5-0.5,1-0.5,1.5h-2c0-0.5,0.2-1.1,0.5-1.5
		C6.1,14.8,6.5,14.4,7,14.2"/>
	<path class="st0" d="M21.6,0h2c-1.9,2.6-8.9,7.8-11.7,9.6c-0.8,0.5-1.5,1.2-2,2c-0.5,0.8-0.9,1.7-1,2.7h-2c0.1-0.9,0.5-1.9,1-2.7
		s1.2-1.5,2-2C12.7,7.8,19.7,2.6,21.6,0z"/>
	<path class="st0" d="M21.6,0h2c-1.9,2.6-8.9,7.8-11.7,9.6c-0.8,0.5-1.5,1.2-2,2c-0.5,0.8-0.9,1.7-1,2.7h-2c0.1-0.9,0.5-1.9,1-2.7
		s1.2-1.5,2-2C12.7,7.8,19.7,2.6,21.6,0z"/>
	<path class="st0" d="M21.7,6.7h2c-0.5,0-1.1,0.1-1.5,0.4c-0.1,0-1.2,0.8-3.2,2c-3.3,2-9.7,4.8-10.1,5h-2c0.3-0.2,6.8-3,10.1-5
		c2-1.2,3.2-2,3.3-2C20.7,6.9,21.2,6.7,21.7,6.7z"/>
	<path class="st0" d="M21.7,6.7h2c-0.5,0-1.1,0.1-1.5,0.4c-0.1,0-1.2,0.8-3.2,2c-3.3,2-9.7,4.8-10.1,5h-2c0.3-0.2,6.8-3,10.1-5
		c2-1.2,3.2-2,3.3-2C20.7,6.9,21.2,6.7,21.7,6.7z"/>
	<path class="st0" d="M21.8,11h2c0.1,0,0.1,0,0.2,0h-2C21.9,11,21.8,11,21.8,11z"/>
	<path class="st0" d="M6.9,25.6h2l18.7,16.7h-2L6.9,25.6z"/>
	<path class="st0" d="M22,11h2l4.1,2.4h-2L22,11z"/>
	<path class="st0" d="M26,13.4h2c0.1,0,0.1,0.1,0.2,0.2c0,0.1,0,0.2,0,0.3c0,0.1-0.1,0.2-0.2,0.2c-0.1,0.1-0.2,0.1-0.3,0.1h-2
		c0.1,0,0.2,0,0.3-0.1c0.1-0.1,0.1-0.1,0.2-0.2c0-0.1,0-0.2,0-0.3C26.2,13.5,26.1,13.5,26,13.4L26,13.4z"/>
	<path class="st0" d="M26,13.4h2c0.1,0,0.1,0.1,0.2,0.2c0,0.1,0,0.2,0,0.3c0,0.1-0.1,0.2-0.2,0.2c-0.1,0.1-0.2,0.1-0.3,0.1h-2
		c0.1,0,0.2,0,0.3-0.1c0.1-0.1,0.1-0.1,0.1-0.2c0-0.1,0-0.2,0-0.3C26.1,13.5,26.1,13.5,26,13.4"/>
	<path class="st0" d="M6.9,25.6h2l20.9,11.9h-2L6.9,25.6z"/>
	<path class="st0" d="M29.4,42.6h2c0,0.7-0.4,1.1-0.9,1.1h-2C29,43.8,29.4,43.3,29.4,42.6z"/>
	<path class="st0" d="M29.4,42.6h2c0,0.7-0.4,1.1-0.9,1.1h-2C29,43.8,29.4,43.3,29.4,42.6z"/>
	<path class="st0" d="M27.8,37.5h2c0.5,0.3,0.8,0.7,1.1,1.2c0.3,0.5,0.4,1,0.5,1.6h-2c0-0.6-0.2-1.1-0.5-1.6
		C28.6,38.2,28.3,37.8,27.8,37.5L27.8,37.5z"/>
	<path class="st0" d="M27.8,37.5h2c0.5,0.3,0.8,0.7,1.1,1.2c0.3,0.5,0.4,1,0.5,1.6h-2c0-0.6-0.2-1.1-0.5-1.6
		C28.6,38.2,28.3,37.8,27.8,37.5"/>
	<path class="st0" d="M31.4,40.2h-2v2.4h2V40.2z"/>
	<path class="st0" d="M21.7,0h2c0.3,0,0.5,0.1,0.8,0.2l0.8,0.6l0.4,0.3l1.2,0.8c1,0.7,2.5,1.7,4.3,2.7c3.5,1.9,7,3.6,10.7,5.2
		c0.9,0.4,2.1,0.8,2.6,1C45,11,45.4,12,45.4,13h-2c0-1-0.4-2-0.9-2.1c-0.5-0.2-1.7-0.6-2.6-1c-3.7-1.5-7.2-3.3-10.7-5.2
		c-1.8-1.1-3.2-2-4.3-2.7l-1.2-0.8l-0.4-0.3l-0.8-0.6C22.3,0.1,22,0,21.7,0L21.7,0z"/>
	<path class="st0" d="M21.8,0h2c0.1,0,0.2,0,0.3,0.1h-2C22,0,21.9,0,21.8,0"/>
	<path class="st0" d="M22.1,0.1h2c0.1,0,0.3,0.1,0.4,0.2l0.8,0.6l0.4,0.3l1.2,0.8c1,0.7,2.5,1.7,4.3,2.7c3.5,1.9,7.1,3.6,10.7,5.2
		c0.9,0.4,2.1,0.8,2.6,1C45,11,45.4,12,45.4,13h-2c0-1-0.4-2-0.9-2.1c-0.5-0.2-1.7-0.6-2.6-1c-3.7-1.5-7.2-3.3-10.7-5.2
		c-1.8-1.1-3.2-2-4.3-2.7l-1.2-0.8l-0.4-0.3l-0.8-0.6C22.4,0.1,22.3,0.1,22.1,0.1"/>
	<path class="st0" d="M45.4,12.9h-2v9.6h2V12.9z"/>
	<path class="st0" d="M43.5,25.2h2v0.9c0,0.8,0,1.3,0,1.3c0,0.7-0.4,1.1-1,1.1h-2c0.5,0,0.9-0.4,1-1.1c0,0,0-0.5,0-1.3V25.2z"/>
	<path class="st0" d="M43.5,25.2h2v0.9c0,0.8,0,1.3,0,1.3c0,0.7-0.4,1.1-1,1.1h-2c0.5,0,0.9-0.4,1-1.1c0,0,0-0.5,0-1.3V25.2z"/>
	<path class="st0" d="M43.4,22.5h2c0,1,0,2.2,0,2.7h-2C43.5,24.7,43.4,23.5,43.4,22.5z"/>
	<path class="st0" d="M43.4,22.5h2c0,1,0,2.2,0,2.7h-2C43.4,24.7,43.4,23.5,43.4,22.5"/>
	
		<linearGradient id="SVGID_1_" gradientUnits="userSpaceOnUse" x1="42.2277" y1="70.5528" x2="6.5655" y2="2.1262" gradientTransform="matrix(1 0 0 -1 0 60.8664)">
		<stop  offset="0" style="stop-color:#B5B5B6"/>
		<stop  offset="0.16" style="stop-color:#F4F4F4"/>
		<stop  offset="0.33" style="stop-color:#9FA0A0"/>
		<stop  offset="0.5" style="stop-color:#FFFFFF"/>
		<stop  offset="0.56" style="stop-color:#E1E1E1"/>
		<stop  offset="0.67" style="stop-color:#9FA0A0"/>
		<stop  offset="0.84" style="stop-color:#FFFFFF"/>
		<stop  offset="1" style="stop-color:#898989"/>
	</linearGradient>
	<path class="st1" d="M11.7,17.5c0.2,0,0.5,0.1,0.7,0.2l3.9,2.2L35,36.6L12.4,23.8c-0.5-0.3-0.8-0.7-1.1-1.2c-0.3-0.5-0.4-1-0.5-1.6
		v-2.4C10.8,17.9,11.2,17.5,11.7,17.5z"/>
	
		<linearGradient id="SVGID_2_" gradientUnits="userSpaceOnUse" x1="44.1874" y1="69.541" x2="8.515" y2="1.1144" gradientTransform="matrix(1 0 0 -1 0 60.8664)">
		<stop  offset="0" style="stop-color:#B5B5B6"/>
		<stop  offset="0.16" style="stop-color:#F4F4F4"/>
		<stop  offset="0.33" style="stop-color:#9FA0A0"/>
		<stop  offset="0.5" style="stop-color:#FFFFFF"/>
		<stop  offset="0.56" style="stop-color:#E1E1E1"/>
		<stop  offset="0.67" style="stop-color:#9FA0A0"/>
		<stop  offset="0.84" style="stop-color:#FFFFFF"/>
		<stop  offset="1" style="stop-color:#898989"/>
	</linearGradient>
	<path class="st2" d="M1.7,35c0.2,0,0.5,0.1,0.7,0.2L5.5,37c1,0.6,1.8,1.5,2.3,2.6c0.1,0.3,2.4,6,5.5,9.5c2.1,2.1,4.5,3.9,7,5.5
		c0.5,0.3,1,0.4,1.5,0.4s1.1-0.1,1.5-0.4c2.5-1.6,4.8-3.5,7-5.5c2.2-2.6,4-5.5,5.3-8.7c0.4-1,0.4-1.1,0.4-1.1
		c0.2,0.8,0.3,1.6,0.2,2.4c0,1.6-0.3,3.2-0.7,4.7c-1.2,4.4-12.6,14.5-12.6,14.5l-0.6,0.3c-0.2,0.1-0.4,0.1-0.5,0.1
		c-0.2,0-0.4,0-0.5-0.1c-0.3-0.1-1.2-0.7-2.1-1.2c-0.3-0.2-6.9-4.2-9.8-7.4c-2.6-3-4.7-6.5-6.2-10.2c-0.8-2-1.4-4.1-1.9-6.2
		C1,35.4,1.2,35,1.7,35z"/>
	
		<linearGradient id="SVGID_3_" gradientUnits="userSpaceOnUse" x1="48.1086" y1="67.4863" x2="12.4363" y2="-0.9301" gradientTransform="matrix(1 0 0 -1 0 60.8664)">
		<stop  offset="0" style="stop-color:#B5B5B6"/>
		<stop  offset="0.16" style="stop-color:#F4F4F4"/>
		<stop  offset="0.33" style="stop-color:#9FA0A0"/>
		<stop  offset="0.5" style="stop-color:#FFFFFF"/>
		<stop  offset="0.56" style="stop-color:#E1E1E1"/>
		<stop  offset="0.67" style="stop-color:#9FA0A0"/>
		<stop  offset="0.84" style="stop-color:#FFFFFF"/>
		<stop  offset="1" style="stop-color:#898989"/>
	</linearGradient>
	<path class="st3" d="M16.3,19.9l19.9,11.3l3.2,1.8l1.7,0.9c0.4,0.3,0.8,0.6,1,1.1c0.2,0.4,0.3,0.9,0.2,1.4L42,37.3
		c-0.2,0.9-0.5,1.8-0.8,2.8c-1.5,4.6-3.9,8.8-7,12.4c-2.8,3.2-9.4,7.2-9.8,7.4c-0.5,0.3-1.1,0.6-1.5,0.9c0,0,11.4-10.2,12.6-14.5
		c0.4-1.5,0.7-3.1,0.7-4.7c0-0.8-0.1-1.6-0.3-2.4c0.1-0.5,0.1-1-0.1-1.5c-0.2-0.5-0.5-0.9-0.9-1.2L16.3,19.9z"/>
	
		<linearGradient id="SVGID_4_" gradientUnits="userSpaceOnUse" x1="34.2092" y1="74.7398" x2="-1.4631" y2="6.3133" gradientTransform="matrix(1 0 0 -1 0 60.8664)">
		<stop  offset="0" style="stop-color:#B5B5B6"/>
		<stop  offset="0.16" style="stop-color:#F4F4F4"/>
		<stop  offset="0.33" style="stop-color:#9FA0A0"/>
		<stop  offset="0.5" style="stop-color:#FFFFFF"/>
		<stop  offset="0.56" style="stop-color:#E1E1E1"/>
		<stop  offset="0.67" style="stop-color:#9FA0A0"/>
		<stop  offset="0.84" style="stop-color:#FFFFFF"/>
		<stop  offset="1" style="stop-color:#898989"/>
	</linearGradient>
	<path class="st4" d="M21.6,0c-1.9,2.6-8.9,7.8-11.7,9.6c-0.8,0.5-1.5,1.2-2,2s-0.9,1.7-1,2.7c-0.5,0.2-0.9,0.6-1.2,1.1
		c-0.3,0.5-0.5,1-0.5,1.5v5.9c-0.1,0.6,0,1.2,0.3,1.7c0.3,0.5,0.7,0.9,1.3,1.2l18.7,16.7L4.2,30.2l-2.9-1.7
		c-0.4-0.2-0.7-0.5-0.9-0.8C0.2,27.4,0.1,27,0,26.6v-1.4c0-0.5,0.1-1.7,0.1-2.7v-9.6c0-1,0.4-2,0.9-2.1c0.5-0.2,1.7-0.6,2.6-1
		c3.5-1.5,7-3.1,10.4-4.9c3.5-2.1,6-3.9,6.2-4L21,0.3C21.2,0.1,21.4,0,21.6,0L21.6,0z"/>
	
		<linearGradient id="SVGID_5_" gradientUnits="userSpaceOnUse" x1="35.8483" y1="73.8797" x2="0.176" y2="5.4633" gradientTransform="matrix(1 0 0 -1 0 60.8664)">
		<stop  offset="0" style="stop-color:#B5B5B6"/>
		<stop  offset="0.16" style="stop-color:#F4F4F4"/>
		<stop  offset="0.33" style="stop-color:#9FA0A0"/>
		<stop  offset="0.5" style="stop-color:#FFFFFF"/>
		<stop  offset="0.56" style="stop-color:#E1E1E1"/>
		<stop  offset="0.67" style="stop-color:#9FA0A0"/>
		<stop  offset="0.84" style="stop-color:#FFFFFF"/>
		<stop  offset="1" style="stop-color:#898989"/>
	</linearGradient>
	<path class="st5" d="M21.8,11c0.1,0,0.1,0,0.2,0l4,2.4c0.1,0,0.1,0.1,0.2,0.2c0,0.1,0,0.2,0,0.3c0,0.1-0.1,0.2-0.1,0.2
		c-0.1,0.1-0.2,0.1-0.3,0.1H18c-0.1,0-0.2,0-0.3-0.1c-0.1-0.1-0.1-0.1-0.2-0.2c0-0.1,0-0.2,0-0.3c0-0.1,0.1-0.2,0.2-0.2l3.7-2.3
		C21.6,11,21.7,11,21.8,11z"/>
	
		<linearGradient id="SVGID_6_" gradientUnits="userSpaceOnUse" x1="41.3148" y1="71.0299" x2="5.6526" y2="2.6033" gradientTransform="matrix(1 0 0 -1 0 60.8664)">
		<stop  offset="0" style="stop-color:#B5B5B6"/>
		<stop  offset="0.16" style="stop-color:#F4F4F4"/>
		<stop  offset="0.33" style="stop-color:#9FA0A0"/>
		<stop  offset="0.5" style="stop-color:#FFFFFF"/>
		<stop  offset="0.56" style="stop-color:#E1E1E1"/>
		<stop  offset="0.67" style="stop-color:#9FA0A0"/>
		<stop  offset="0.84" style="stop-color:#FFFFFF"/>
		<stop  offset="1" style="stop-color:#898989"/>
	</linearGradient>
	<path class="st6" d="M6.9,25.6l20.9,11.9c0.5,0.3,0.8,0.7,1.1,1.2c0.3,0.5,0.4,1,0.5,1.6v2.4c0,0.7-0.4,1.1-0.9,1.1
		c-0.2,0-0.5-0.1-0.7-0.2l-2.2-1.2L6.9,25.6z"/>
	
		<linearGradient id="SVGID_7_" gradientUnits="userSpaceOnUse" x1="41.2362" y1="71.0697" x2="5.574" y2="2.6431" gradientTransform="matrix(1 0 0 -1 0 60.8664)">
		<stop  offset="0" style="stop-color:#B5B5B6"/>
		<stop  offset="0.16" style="stop-color:#F4F4F4"/>
		<stop  offset="0.33" style="stop-color:#9FA0A0"/>
		<stop  offset="0.5" style="stop-color:#FFFFFF"/>
		<stop  offset="0.56" style="stop-color:#E1E1E1"/>
		<stop  offset="0.67" style="stop-color:#9FA0A0"/>
		<stop  offset="0.84" style="stop-color:#FFFFFF"/>
		<stop  offset="1" style="stop-color:#898989"/>
	</linearGradient>
	<path class="st7" d="M21.7,0c0.3,0,0.5,0.1,0.8,0.2l0.8,0.6l0.4,0.3l1.2,0.8c1,0.7,2.5,1.7,4.3,2.7c3.5,1.9,7.1,3.6,10.7,5.2
		c0.9,0.4,2.1,0.8,2.6,1s0.9,1.1,0.9,2.1v9.6c0,1,0,2.2,0.1,2.7v0.9c0,0.8,0,1.3,0,1.3c0,0.7-0.4,1.1-1,1.1c-0.2,0-0.5-0.1-0.7-0.2
		l-1.9-1.1c-0.5-0.3-0.8-0.6-1.1-1.1c-0.3-0.4-0.5-0.9-0.5-1.5c0-0.1,0-0.9,0-1.9v-5.9c0-0.5-0.2-1.1-0.5-1.5
		c-0.3-0.5-0.7-0.8-1.2-1.1c-0.3-0.2-6.7-3-10.1-5c-2-1.2-3.2-2-3.2-2c-0.5-0.3-1-0.4-1.5-0.4c-0.5,0-1.1,0.1-1.5,0.4
		c-0.1,0-1.3,0.8-3.3,2c-3.3,2-9.7,4.8-10.1,5c0.1-0.9,0.5-1.9,1-2.7s1.2-1.5,2-2c2.8-1.8,9.7-7,11.7-9.6L21.7,0z"/>
</g>
</svg>
