<svg width="46" height="62" viewBox="0 0 46 62" fill="none" xmlns="http://www.w3.org/2000/svg">
<path d="M1.69995 34.9739H3.71176C3.94859 34.9884 4.17749 35.0648 4.37565 35.1955H2.36385C2.16508 35.0661 1.93652 34.9898 1.69995 34.9739V34.9739Z" fill="white"/>
<path d="M1.74023 34.9838H3.75204C3.82856 34.9702 3.90687 34.9702 3.9834 34.9838H2.01183C1.93194 34.9701 1.8503 34.9701 1.77041 34.9838" fill="white"/>
<path d="M2.01184 35.024H4.02364C4.16148 35.0633 4.29343 35.1209 4.41595 35.1953H2.40414C2.28163 35.1209 2.14968 35.0633 2.01184 35.024" fill="white"/>
<path d="M2.36389 35.1953H4.36564L7.48393 36.9586H5.48219L2.36389 35.1953Z" fill="white"/>
<path d="M11.7188 17.5223H13.7306C13.9759 17.5336 14.2146 17.6064 14.4246 17.7339H12.4128C12.2033 17.6052 11.9644 17.5323 11.7188 17.5223V17.5223Z" fill="white"/>
<path d="M11.769 17.5223H13.7808C13.8729 17.5293 13.964 17.5462 14.0524 17.5727H12.0708C11.9823 17.5462 11.8913 17.5293 11.7992 17.5223" fill="white"/>
<path d="M12.0708 17.5728H14.0826C14.2111 17.6155 14.3357 17.6694 14.4548 17.734H12.443C12.3239 17.6694 12.1993 17.6155 12.0708 17.5728" fill="white"/>
<path d="M12.4128 17.7339H14.4146L18.2672 19.9203H16.2654L12.4128 17.7339Z" fill="white"/>
<path d="M5.48218 36.9586H7.49398C8.4814 37.5901 9.26697 38.4924 9.75726 39.5582C9.87797 39.8605 12.1614 45.5331 15.2394 49.0093C17.3577 51.0977 19.6911 52.9553 22.2003 54.551C22.6681 54.8208 23.1995 54.96 23.7393 54.954H21.7275C21.1877 54.96 20.6563 54.8208 20.1885 54.551C17.6736 52.9589 15.3366 51.101 13.2176 49.0093C10.1496 45.5331 7.85611 39.8605 7.7354 39.5582C7.25171 38.4912 6.46889 37.5881 5.48218 36.9586V36.9586Z" fill="white"/>
<path d="M5.48215 36.9586H7.49396C8.48138 37.5901 9.26694 38.4924 9.75724 39.5582C9.87795 39.8605 12.1613 45.5331 15.2394 49.0093C17.3577 51.0977 19.691 52.9553 22.2002 54.551C22.4014 54.6732 22.6179 54.7681 22.844 54.8331H20.8322C20.6054 54.77 20.3887 54.675 20.1884 54.551C17.6736 52.9589 15.3366 51.101 13.2175 49.0093C10.1495 45.5331 7.85608 39.8605 7.73537 39.5582C7.24626 38.4885 6.4562 37.5851 5.46204 36.9586" fill="white"/>
<path d="M20.8523 54.8331H22.8641C23.1015 54.8946 23.3439 54.9351 23.5883 54.954H21.5765C21.3353 54.9353 21.0963 54.8949 20.8624 54.8331" fill="white"/>
<path d="M22.2907 61.1104H24.3025C24.129 61.1765 23.945 61.2106 23.7594 61.2111H21.7476C21.9332 61.2106 22.1172 61.1765 22.2907 61.1104V61.1104Z" fill="white"/>
<path d="M22.2907 61.1104H24.3025C24.129 61.1765 23.945 61.2106 23.7594 61.2111H21.7476C21.9332 61.2106 22.1172 61.1765 22.2907 61.1104" fill="white"/>
<path d="M22.8843 60.788H24.8961L24.3026 61.1104H22.2908L22.8843 60.788Z" fill="white"/>
<path d="M22.8843 60.788H24.8961L24.3026 61.1104H22.2908L22.8843 60.788Z" fill="white"/>
<path d="M16.2654 19.9204H18.2671L36.9467 36.5758H34.955L16.2654 19.9204Z" fill="white"/>
<path d="M16.2654 19.9204H18.2671L38.1739 31.2154H36.1722L16.2654 19.9204Z" fill="white"/>
<path d="M35.971 39.2156H37.9828C38.1682 39.9906 38.2494 40.7869 38.2242 41.5834C38.2096 43.1664 37.9761 44.7398 37.5301 46.2586C36.2728 50.6113 24.8859 60.7879 24.8859 60.7879H22.8741C22.8741 60.7879 34.271 50.6113 35.5183 46.2586C35.9668 44.7401 36.2037 43.1668 36.2225 41.5834C36.2481 40.7863 36.1634 39.9895 35.971 39.2156V39.2156Z" fill="white"/>
<path d="M35.971 39.2156H37.9828C38.1682 39.9906 38.2494 40.7869 38.2242 41.5834C38.2096 43.1664 37.9761 44.7398 37.5301 46.2586C36.2728 50.6113 24.8859 60.7879 24.8859 60.7879H22.8741C22.8741 60.7879 34.271 50.6113 35.5183 46.2586C35.9668 44.7401 36.2037 43.1668 36.2225 41.5834C36.2448 40.7858 36.1568 39.989 35.9609 39.2156" fill="white"/>
<path d="M36.2124 31.2356H38.2242L41.4029 33.0392H39.3911L36.2124 31.2356Z" fill="white"/>
<path d="M36.2124 31.2356H38.2242L41.4029 33.0392H39.3911L36.2124 31.2356Z" fill="white"/>
<path d="M39.3508 33.0189H41.3526L43.0123 33.956H41.0106L39.3508 33.0189Z" fill="white"/>
<path d="M42.2478 36.4851H44.2596L44.0383 37.3315C43.807 38.2383 43.5253 39.1754 43.2135 40.1225C41.7186 44.6812 39.324 48.8923 36.1722 52.5057C33.3255 55.7501 26.7469 59.7099 26.3948 59.9114C25.8717 60.2338 25.3084 60.5563 24.8859 60.788H22.8741C23.2966 60.5563 23.88 60.2338 24.3931 59.9114C24.7351 59.7099 31.3137 55.7501 34.1604 52.5057C37.3122 48.8923 39.7068 44.6812 41.2017 40.1225C41.5236 39.1754 41.7952 38.2383 42.0265 37.3315L42.2478 36.4851Z" fill="white"/>
<path d="M42.2478 36.4851H44.2596L44.0383 37.3315C43.807 38.2383 43.5253 39.1754 43.2135 40.1225C41.7186 44.6812 39.324 48.8923 36.1722 52.5057C33.3255 55.7501 26.7469 59.7099 26.3948 59.9114C25.8717 60.2338 25.3084 60.5563 24.8859 60.788H22.8741C23.2966 60.5563 23.88 60.2338 24.3931 59.9114C24.7351 59.7099 31.3137 55.7501 34.1604 52.5057C37.3122 48.8923 39.7068 44.6812 41.2017 40.1225C41.5236 39.1754 41.7952 38.2383 42.0265 37.3315L42.2478 36.4851" fill="white"/>
<path d="M41.0106 33.9561H43.0224C43.4548 34.2082 43.803 34.5829 44.0232 35.033C44.2434 35.483 44.3257 35.9883 44.2597 36.4851H42.2479C42.3138 35.9883 42.2316 35.483 42.0114 35.033C41.7912 34.5829 41.443 34.2082 41.0106 33.9561V33.9561Z" fill="white"/>
<path d="M41.0106 33.9561H43.0224C43.4548 34.2082 43.803 34.5829 44.0232 35.033C44.2434 35.483 44.3257 35.9883 44.2597 36.4851H42.2479C42.3138 35.9883 42.2316 35.483 42.0114 35.033C41.7912 34.5829 41.443 34.2082 41.0106 33.9561" fill="white"/>
<path d="M7.29276 16.7767H5.29102V22.7114H7.29276V16.7767Z" fill="white"/>
<path d="M5.29109 22.7114H7.3029C7.19333 23.3047 7.28913 23.9176 7.57446 24.4489C7.85978 24.9802 8.31755 25.398 8.8721 25.6334H6.8603C6.30575 25.398 5.84798 24.9802 5.56265 24.4489C5.27733 23.9176 5.18153 23.3047 5.29109 22.7114Z" fill="white"/>
<path d="M5.29103 22.7114H7.30283C7.19327 23.3047 7.28907 23.9176 7.57439 24.4489C7.85972 24.9802 8.31749 25.398 8.87204 25.6334H6.86024C6.30382 25.3998 5.84385 24.9826 5.55661 24.4512C5.26937 23.9197 5.17211 23.3059 5.28097 22.7114" fill="white"/>
<path d="M6.95075 14.1873H8.96256C8.48502 14.4371 8.08076 14.8073 7.7897 15.2614C7.49864 15.7155 7.33082 16.2378 7.30282 16.7767H5.29102C5.31902 16.2378 5.48683 15.7155 5.7779 15.2614C6.06896 14.8073 6.47321 14.4371 6.95075 14.1873V14.1873Z" fill="white"/>
<path d="M6.95075 14.1873H8.96256C8.48502 14.4371 8.08076 14.8073 7.7897 15.2614C7.49864 15.7155 7.33082 16.2378 7.30282 16.7767H5.29102C5.31902 16.2378 5.48683 15.7155 5.7779 15.2614C6.06896 14.8073 6.47321 14.4371 6.95075 14.1873" fill="white"/>
<path d="M21.5967 0.000488281H23.6085C21.6671 2.56982 14.7163 7.7891 11.94 9.57253C11.1211 10.0603 10.4238 10.7284 9.90098 11.5262C9.37813 12.324 9.04346 13.2306 8.92233 14.1772H6.91052C7.03166 13.2306 7.36633 12.324 7.88918 11.5262C8.41203 10.7284 9.10933 10.0603 9.92823 9.57253C12.7146 7.79918 19.6654 2.5799 21.5967 0.000488281Z" fill="white"/>
<path d="M21.5967 0.000488281H23.6085C21.6671 2.56982 14.7163 7.7891 11.94 9.57253C11.1211 10.0603 10.4238 10.7284 9.90098 11.5262C9.37813 12.324 9.04346 13.2306 8.92233 14.1772H6.91052C7.03166 13.2306 7.36633 12.324 7.88918 11.5262C8.41203 10.7284 9.10933 10.0603 9.92823 9.57253C12.7146 7.7891 19.6654 2.56982 21.5967 0.000488281Z" fill="white"/>
<path d="M21.7476 6.73107H23.7594C23.2196 6.72135 22.6886 6.86832 22.2304 7.15426C22.1701 7.15426 20.9831 7.99055 18.9813 9.16942C15.7122 11.1241 9.30457 14.0159 8.92233 14.2073H6.91052C7.25253 14.0562 13.6702 11.1846 16.9695 9.16942C18.9813 7.9704 20.1583 7.15426 20.2287 7.15426C20.6825 6.86697 21.2108 6.7198 21.7476 6.73107Z" fill="white"/>
<path d="M21.7476 6.73107H23.7594C23.2196 6.72135 22.6886 6.86832 22.2304 7.15426C22.1701 7.15426 20.9831 7.99055 18.9813 9.16942C15.7122 11.1241 9.30457 14.0159 8.92233 14.2073H6.91052C7.25253 14.0562 13.6702 11.1846 16.9695 9.16942C18.9813 7.9704 20.1583 7.15426 20.2287 7.15426C20.6825 6.86697 21.2108 6.7198 21.7476 6.73107Z" fill="white"/>
<path d="M21.7577 10.9731H23.7695C23.839 10.9567 23.9113 10.9567 23.9807 10.9731H21.9689C21.8995 10.9567 21.8272 10.9567 21.7577 10.9731Z" fill="white"/>
<path d="M6.87024 25.6333H8.86193L27.5516 42.2886H25.5599L6.87024 25.6333Z" fill="white"/>
<path d="M21.9589 11.0334H23.9606L28.0144 13.4315H26.0126L21.9589 11.0334Z" fill="white"/>
<path d="M26.0126 13.4315H28.0244C28.1061 13.476 28.1704 13.5467 28.2068 13.6323C28.2433 13.7179 28.2499 13.8134 28.2254 13.9032C28.201 13.993 28.1469 14.0719 28.0721 14.1271C27.9973 14.1823 27.9061 14.2106 27.8132 14.2074H25.8014C25.8943 14.2106 25.9855 14.1823 26.0603 14.1271C26.1351 14.0719 26.1892 13.993 26.2136 13.9032C26.2381 13.8134 26.2315 13.7179 26.195 13.6323C26.1586 13.5467 26.0943 13.476 26.0126 13.4315V13.4315Z" fill="white"/>
<path d="M26.0126 13.4315H28.0244C28.1061 13.476 28.1704 13.5467 28.2068 13.6323C28.2433 13.7179 28.2499 13.8134 28.2254 13.9032C28.201 13.993 28.1469 14.0719 28.0721 14.1271C27.9973 14.1823 27.9061 14.2106 27.8132 14.2074H25.8014C25.8934 14.2082 25.983 14.1782 26.056 14.1222C26.1291 14.0662 26.1813 13.9873 26.2044 13.8981C26.2275 13.8089 26.2202 13.7146 26.1837 13.63C26.1471 13.5455 26.0833 13.4756 26.0026 13.4315" fill="white"/>
<path d="M6.87024 25.6333H8.86193L29.7947 37.5026H27.793L6.87024 25.6333Z" fill="white"/>
<path d="M29.3824 42.6212H31.3942C31.3942 43.3467 31.0221 43.7699 30.499 43.7699H28.4872C29.0103 43.7699 29.3824 43.3265 29.3824 42.6212Z" fill="white"/>
<path d="M29.3824 42.6212H31.3942C31.3942 43.3467 31.0221 43.7699 30.499 43.7699H28.4872C29.0103 43.7699 29.3824 43.3467 29.3824 42.6212Z" fill="white"/>
<path d="M27.7931 37.5027H29.8049C30.2666 37.8018 30.6512 38.206 30.9274 38.6822C31.2036 39.1585 31.3635 39.6934 31.3942 40.2433H29.3824C29.3541 39.6928 29.1952 39.157 28.9188 38.6804C28.6424 38.2037 28.2565 37.8 27.7931 37.5027V37.5027Z" fill="white"/>
<path d="M27.7931 37.5027H29.8049C30.2666 37.8018 30.6512 38.206 30.9274 38.6822C31.2036 39.1585 31.3635 39.6934 31.3942 40.2433H29.3824C29.3541 39.6928 29.1952 39.157 28.9188 38.6804C28.6424 38.2037 28.2565 37.8 27.7931 37.5027" fill="white"/>
<path d="M31.3841 40.2433H29.3823V42.6313H31.3841V40.2433Z" fill="white"/>
<path d="M21.7476 0.000456046H23.7594C24.0325 -0.00684639 24.3006 0.0744395 24.5238 0.2322L25.2984 0.796446L25.7008 1.08865L26.9078 1.91486C27.9137 2.62017 29.4528 3.59753 31.2131 4.65549C34.6895 6.56182 38.2619 8.28709 41.9159 9.82439C42.8413 10.2173 44.0182 10.6607 44.5212 10.832C45.0241 11.0033 45.4466 11.9504 45.4466 12.958H43.4348C43.4348 11.9504 43.0123 10.9932 42.5094 10.832C42.0064 10.6708 40.8295 10.2274 39.9041 9.82439C36.2416 8.28396 32.6594 6.55878 29.1711 4.65549C27.4108 3.59753 25.922 2.64032 24.8759 1.91486L23.6688 1.08865L23.2866 0.796446L22.5221 0.2322C22.2951 0.0743152 22.0238 -0.00687371 21.7476 0.000456046V0.000456046Z" fill="white"/>
<path d="M21.828 0.000488281H23.8398C23.942 0.011235 24.0431 0.0314737 24.1416 0.0609432H22.1298C22.0313 0.0314737 21.9302 0.011235 21.828 0.000488281" fill="white"/>
<path d="M22.1298 0.0609131H24.1416C24.2733 0.0908502 24.3969 0.149315 24.5037 0.232202L25.2782 0.796449L25.6806 1.08865L26.8877 1.91487C27.8936 2.62017 29.4326 3.59753 31.1929 4.65549C34.6759 6.56245 38.255 8.28772 41.9158 9.82439C42.8413 10.2173 44.0182 10.6607 44.5211 10.832C45.0241 11.0033 45.4466 11.9504 45.4466 12.958H43.4348C43.4348 11.9504 43.0123 10.9932 42.5093 10.832C42.0064 10.6708 40.8295 10.2274 39.904 9.82439C36.2416 8.28396 32.6594 6.55878 29.1711 4.65549C27.4107 3.59753 25.922 2.64033 24.8759 1.91487L23.6688 1.08865L23.2865 0.796449L22.5221 0.232202C22.4051 0.147581 22.2713 0.0891626 22.1298 0.0609131" fill="white"/>
<path d="M45.4466 12.9479H43.4448V22.5199H45.4466V12.9479Z" fill="white"/>
<path d="M43.4952 25.1901H45.507V26.0767C45.507 26.8929 45.507 27.3564 45.507 27.3866C45.507 28.102 45.0744 28.5252 44.5011 28.5252H42.4893C43.0324 28.5252 43.4247 28.102 43.4952 27.3866C43.4952 27.3866 43.4952 26.8929 43.4952 26.0767V25.1901Z" fill="white"/>
<path d="M43.4952 25.1901H45.507V26.0767C45.507 26.8929 45.507 27.3564 45.507 27.3866C45.507 28.102 45.0744 28.5252 44.5011 28.5252H42.4893C43.0324 28.5252 43.4247 28.102 43.4952 27.3866C43.4952 27.3866 43.4952 26.8929 43.4952 26.0767V25.1901Z" fill="white"/>
<path d="M43.4448 22.5199H45.4566C45.4566 23.5275 45.4566 24.7366 45.4566 25.2101H43.4448C43.4649 24.7366 43.4448 23.5275 43.4448 22.5199Z" fill="white"/>
<path d="M43.4448 22.5199H45.4566C45.4566 23.5275 45.4566 24.7366 45.4566 25.2101H43.4448C43.4448 24.7366 43.3945 23.5275 43.3945 22.5199" fill="white"/>
<path d="M11.7187 17.5223C11.9643 17.5323 12.2033 17.6052 12.4128 17.7339L16.2654 19.9204L34.9551 36.5757L12.4128 23.7895C11.9506 23.491 11.5655 23.087 11.2892 22.6106C11.013 22.1342 10.8534 21.599 10.8235 21.0489V18.671C10.8235 17.9455 11.1856 17.5223 11.7187 17.5223Z" fill="url(#paint0_linear_1442_1592)"/>
<path d="M1.69994 34.9736C1.93997 34.9878 2.1722 35.0642 2.37389 35.1953L5.48213 36.9586C6.47629 37.5851 7.26636 38.4885 7.75547 39.5581C7.87618 39.8604 10.1696 45.5331 13.2376 49.0093C15.3567 51.101 17.6937 52.9588 20.2085 54.551C20.6787 54.8148 21.2086 54.9534 21.7476 54.9534C22.2865 54.9534 22.8164 54.8148 23.2866 54.551C25.7996 52.9562 28.1363 51.0985 30.2575 49.0093C32.5019 46.4332 34.2851 43.488 35.5284 40.3037C35.9207 39.3465 35.971 39.1853 35.971 39.1753C36.1638 39.9627 36.2451 40.7733 36.2124 41.5834C36.1937 43.1668 35.9568 44.7401 35.5083 46.2586C34.261 50.6113 22.8742 60.7879 22.8641 60.7879L22.2706 61.1103C22.0971 61.1765 21.9131 61.2106 21.7274 61.2111C21.5417 61.2115 21.3575 61.1773 21.1843 61.1103C20.8825 60.9693 19.9369 60.4352 19.0719 59.9113C18.7299 59.7098 12.1412 55.75 9.2945 52.5056C6.66798 49.4861 4.57271 46.0415 3.09814 42.3189C2.32214 40.2818 1.68363 38.1948 1.18693 36.0719C1.00587 35.3867 1.24728 34.9736 1.69994 34.9736Z" fill="url(#paint1_linear_1442_1592)"/>
<path d="M16.2654 19.9204L36.2124 31.2356L39.3911 33.0391L41.0508 33.9762C41.4723 34.2325 41.81 34.6063 42.0227 35.0519C42.2353 35.4975 42.3135 35.9956 42.2478 36.4851L42.0265 37.3314C41.7952 38.2383 41.5236 39.1753 41.2017 40.1224C39.7068 44.6811 37.3123 48.8923 34.1604 52.5056C31.3137 55.7501 24.7351 59.7099 24.3931 59.9114C23.8599 60.2338 23.2966 60.5562 22.8742 60.788C22.8742 60.788 34.271 50.6114 35.5183 46.2586C35.9668 44.7401 36.2037 43.1669 36.2225 41.5834C36.2448 40.7859 36.1568 39.989 35.9609 39.2156C36.1021 38.7259 36.0803 38.2034 35.8989 37.7271C35.7174 37.2509 35.3861 36.8467 34.955 36.5758L16.2654 19.9204Z" fill="url(#paint2_linear_1442_1592)"/>
<path d="M21.5967 0.000488281C19.6654 2.56982 12.7146 7.7891 9.92825 9.57252C9.10935 10.0603 8.41205 10.7284 7.8892 11.5262C7.36635 12.324 7.03168 13.2306 6.91055 14.1772C6.433 14.427 6.02875 14.7972 5.73769 15.2513C5.44663 15.7055 5.27881 16.2277 5.25081 16.7667V22.7013C5.14195 23.2958 5.23921 23.9096 5.52645 24.4411C5.81369 24.9725 6.27366 25.3897 6.83007 25.6233L25.56 42.319L4.19461 30.228L1.31773 28.5453C0.964514 28.3384 0.662537 28.0542 0.434357 27.714C0.206178 27.3738 0.057695 26.9863 0 26.5805L0 25.1901C0 24.7165 0.0502951 23.5074 0.0502951 22.4998V12.9278C0.0502951 11.9202 0.462715 10.963 0.965666 10.8018C1.46862 10.6406 2.64552 10.1972 3.57095 9.79419C7.11616 8.33392 10.5814 6.68588 13.9519 4.85704C17.4323 2.79149 19.9873 0.987919 20.1784 0.826706L20.9731 0.252384C21.1535 0.111892 21.3695 0.0246515 21.5967 0.000488281V0.000488281Z" fill="url(#paint3_linear_1442_1592)"/>
<path d="M21.7576 10.973C21.8239 10.9582 21.8926 10.9582 21.9588 10.973L25.9824 13.3811C26.0632 13.4252 26.1269 13.4951 26.1635 13.5796C26.2001 13.6642 26.2074 13.7585 26.1843 13.8477C26.1611 13.9369 26.1089 14.0158 26.0359 14.0718C25.9629 14.1278 25.8732 14.1578 25.7812 14.157H18.0157C17.9252 14.1584 17.8367 14.13 17.764 14.0761C17.6912 14.0222 17.6381 13.9459 17.6129 13.8588C17.5878 13.7717 17.5919 13.6787 17.6247 13.5942C17.6575 13.5097 17.7171 13.4384 17.7944 13.3912L21.5263 11.0838C21.5914 11.0258 21.6716 10.9874 21.7576 10.973Z" fill="url(#paint4_linear_1442_1592)"/>
<path d="M6.87036 25.6334L27.7931 37.5027C28.2565 37.8001 28.6424 38.2038 28.9188 38.6804C29.1952 39.1571 29.3542 39.6929 29.3824 40.2434V42.6213C29.3824 43.3467 29.0103 43.7699 28.4872 43.7699C28.2416 43.7599 28.0026 43.6871 27.7931 43.5583L25.56 42.319L6.87036 25.6334Z" fill="url(#paint5_linear_1442_1592)"/>
<path d="M21.7476 0.000456046C22.0238 -0.00687371 22.2952 0.0743152 22.5221 0.2322L23.2866 0.796446L23.699 1.08865L24.9061 1.91486C25.912 2.62017 27.441 3.59753 29.2013 4.65549C32.683 6.55817 36.2585 8.28334 39.9142 9.82439C40.8396 10.2173 42.0165 10.6607 42.5194 10.832C43.0224 11.0033 43.4449 11.9504 43.4449 12.958V22.53C43.4449 23.5376 43.4449 24.7467 43.4952 25.2203V26.1069C43.4952 26.9231 43.4952 27.3866 43.4952 27.4168C43.4952 28.1322 43.0626 28.5554 42.4893 28.5554C42.2403 28.5466 41.9978 28.4738 41.7851 28.3438L39.8437 27.2052C39.3898 26.9411 39.0058 26.5718 38.724 26.1282C38.4422 25.6846 38.2708 25.1797 38.2242 24.656C38.2242 24.5754 38.2242 23.719 38.2242 22.7114V16.7767C38.1943 16.237 38.0245 15.7145 37.7318 15.2604C37.439 14.8064 37.0332 14.4365 36.5545 14.1872C36.2225 14.0361 29.8048 11.1645 26.4954 9.14931C24.4836 7.95028 23.3067 7.13414 23.2464 7.13414C22.7904 6.86069 22.2689 6.71627 21.7375 6.71627C21.2061 6.71627 20.6846 6.86069 20.2287 7.13414C20.1583 7.13414 18.9713 7.97044 16.9695 9.14931C13.7104 11.104 7.29277 13.9958 6.91052 14.1872C7.03166 13.2406 7.36633 12.3341 7.88918 11.5363C8.41203 10.7385 9.10933 10.0703 9.92823 9.58257C12.7146 7.79915 19.6654 2.57987 21.5967 0.0105319L21.7476 0.000456046Z" fill="url(#paint6_linear_1442_1592)"/>
<defs>
<linearGradient id="paint0_linear_1442_1592" x1="42.1774" y1="-9.71263" x2="6.51519" y2="58.7139" gradientUnits="userSpaceOnUse">
<stop stop-color="#B5B5B6"/>
<stop offset="0.16" stop-color="#F4F4F4"/>
<stop offset="0.33" stop-color="#9FA0A0"/>
<stop offset="0.5" stop-color="white"/>
<stop offset="0.56" stop-color="#E1E1E1"/>
<stop offset="0.67" stop-color="#9FA0A0"/>
<stop offset="0.84" stop-color="white"/>
<stop offset="1" stop-color="#898989"/>
</linearGradient>
<linearGradient id="paint1_linear_1442_1592" x1="44.1289" y1="-8.70508" x2="8.45656" y2="59.7215" gradientUnits="userSpaceOnUse">
<stop stop-color="#B5B5B6"/>
<stop offset="0.16" stop-color="#F4F4F4"/>
<stop offset="0.33" stop-color="#9FA0A0"/>
<stop offset="0.5" stop-color="white"/>
<stop offset="0.56" stop-color="#E1E1E1"/>
<stop offset="0.67" stop-color="#9FA0A0"/>
<stop offset="0.84" stop-color="white"/>
<stop offset="1" stop-color="#898989"/>
</linearGradient>
<linearGradient id="paint2_linear_1442_1592" x1="48.0519" y1="-6.64955" x2="12.3796" y2="61.7669" gradientUnits="userSpaceOnUse">
<stop stop-color="#B5B5B6"/>
<stop offset="0.16" stop-color="#F4F4F4"/>
<stop offset="0.33" stop-color="#9FA0A0"/>
<stop offset="0.5" stop-color="white"/>
<stop offset="0.56" stop-color="#E1E1E1"/>
<stop offset="0.67" stop-color="#9FA0A0"/>
<stop offset="0.84" stop-color="white"/>
<stop offset="1" stop-color="#898989"/>
</linearGradient>
<linearGradient id="paint3_linear_1442_1592" x1="34.1504" y1="-13.9042" x2="-1.52195" y2="54.5224" gradientUnits="userSpaceOnUse">
<stop stop-color="#B5B5B6"/>
<stop offset="0.16" stop-color="#F4F4F4"/>
<stop offset="0.33" stop-color="#9FA0A0"/>
<stop offset="0.5" stop-color="white"/>
<stop offset="0.56" stop-color="#E1E1E1"/>
<stop offset="0.67" stop-color="#9FA0A0"/>
<stop offset="0.84" stop-color="white"/>
<stop offset="1" stop-color="#898989"/>
</linearGradient>
<linearGradient id="paint4_linear_1442_1592" x1="35.8403" y1="-13.0175" x2="0.167948" y2="55.3989" gradientUnits="userSpaceOnUse">
<stop stop-color="#B5B5B6"/>
<stop offset="0.16" stop-color="#F4F4F4"/>
<stop offset="0.33" stop-color="#9FA0A0"/>
<stop offset="0.5" stop-color="white"/>
<stop offset="0.56" stop-color="#E1E1E1"/>
<stop offset="0.67" stop-color="#9FA0A0"/>
<stop offset="0.84" stop-color="white"/>
<stop offset="1" stop-color="#898989"/>
</linearGradient>
<linearGradient id="paint5_linear_1442_1592" x1="41.2521" y1="-10.1962" x2="5.58984" y2="58.2303" gradientUnits="userSpaceOnUse">
<stop stop-color="#B5B5B6"/>
<stop offset="0.16" stop-color="#F4F4F4"/>
<stop offset="0.33" stop-color="#9FA0A0"/>
<stop offset="0.5" stop-color="white"/>
<stop offset="0.56" stop-color="#E1E1E1"/>
<stop offset="0.67" stop-color="#9FA0A0"/>
<stop offset="0.84" stop-color="white"/>
<stop offset="1" stop-color="#898989"/>
</linearGradient>
<linearGradient id="paint6_linear_1442_1592" x1="41.1917" y1="-10.2265" x2="5.52941" y2="58.2001" gradientUnits="userSpaceOnUse">
<stop stop-color="#B5B5B6"/>
<stop offset="0.16" stop-color="#F4F4F4"/>
<stop offset="0.33" stop-color="#9FA0A0"/>
<stop offset="0.5" stop-color="white"/>
<stop offset="0.56" stop-color="#E1E1E1"/>
<stop offset="0.67" stop-color="#9FA0A0"/>
<stop offset="0.84" stop-color="white"/>
<stop offset="1" stop-color="#898989"/>
</linearGradient>
</defs>
</svg>
