<?xml version="1.0" encoding="utf-8"?>
<!-- Generator: Adobe Illustrator 24.2.1, SVG Export Plug-In . SVG Version: 6.00 Build 0)  -->
<svg version="1.1" id="圖層_1" xmlns="http://www.w3.org/2000/svg" xmlns:xlink="http://www.w3.org/1999/xlink" x="0px" y="0px"
	 width="366.5px" height="85.3px" viewBox="0 0 366.5 85.3" style="enable-background:new 0 0 366.5 85.3;" xml:space="preserve">
<style type="text/css">
	.st0{fill:#FFFFFF;}
</style>
<path class="st0" d="M68.8,85.1v-6.1h-58v6.1H0v-82h79.5v82.1L68.8,85.1z M68.8,6.5h-58v69.2h58L68.8,6.5z M40,55.2
	c-8,5.1-14.5,8-25.1,12l-2.4-10.9c9.2-0.4,18.4-1.6,27.5-3.5V55.2z M66,51.6c-1.8,15.8-4.7,21.9-8.6,21.9c-2.4,0-5-2.3-8-5.8
	c-1.2-1.5-2.3-3.2-3.4-4.9c-5.5,4.8-11.6,8.8-18.1,12.1l-1.7-2.3c7.2-5.8,12.8-11.1,17-16.7c-2.7-8.2-4-18.9-4.3-32.7H13.3v-3.5
	h25.5c0-3.6-0.1-7.3-0.1-11.4h9.8c0,4.1,0,7.8,0.1,11.4h9.1c-1.8-3.7-4.2-7.1-6.9-10.1l1.4-2c4.7,1.3,9.1,3.2,13.3,5.8l-6.6,6.3h7.2
	v3.5H48.5c0.2,8.1,0.6,15.7,1.6,21.6c2.8-5.8,5-11.8,6.7-18l9.5,4.5c-3.8,9.6-7.8,17.1-13.1,23.7c0.9,2.2,2.2,4.2,3.8,6
	c0.6,0.8,1.1,1.2,1.7,1.2c1.2,0,2.7-2.8,4.3-12.1L66,51.6z M14.9,49.6v-21h21.9v21H14.9z M28.6,32H23v14.2h5.6V32z"/>
<path class="st0" d="M167.2,78.5c-6.5-4.3-14.7-13.3-20.6-23.2c1,4.4,1.5,8.9,1.5,13.4v2c-0.3,8.5-2.6,14.6-12.9,14.6
	c-4.6,0-11-1.2-19.4-4.1V77c6,1.8,9.9,2.7,12.8,2.7c5,0,6.1-2.9,6.9-9c0.3-2,0.5-4.1,0.6-6.2c-11.3,7.9-26.1,12.9-40.8,15l-1.3-3
	c15.9-4.8,30.3-13.6,41.8-25.7c-0.2-1.2-0.5-2.4-0.9-3.6c-9.6,6.8-24,12.3-36.6,14.4l-1.4-3c12.1-4,26-12.3,33.9-21.6
	c0,0-0.7-1.3-1.4-2.6c-8.3,5.2-18.8,8.8-29.2,10.9l-1.3-2.7c11.4-4.2,20.8-10.8,25.7-17h-13.9v-3.5h47.5v3.4h-17.6
	c-2.4,2.6-5.2,5-8.1,7c3.8,3.8,7.1,8.1,9.6,12.9c6.6-4.5,12.3-9.6,16.2-15.4l12.4,8.2c-7.9,4.5-16.5,7.8-25.4,9.8
	c9.2,7.6,19.9,13.1,31.4,16.3L167.2,78.5z M160.5,24.7c1.1-3.6,1.8-7.3,1.9-11h-55.9v11.1h-11V10.1h32.4V0h12.9v10.1h34.8v5.6
	c-3.2,4.4-7.5,8-12.5,10.3L160.5,24.7z"/>
<path class="st0" d="M228.3,82.4c-3-2.2-6.1-4.3-9.3-6.2c-7.9,5.9-18.1,7.4-31.6,8.9l-0.7-2.4c10.5-2.3,18.4-5.4,24.3-10.8
	c-2.2-0.8-4.5-1.8-7.1-2.7l-2.7,3.2l-8.8-2.8c2.1-2.6,4.2-5.3,6.1-8h-11.8v-3.4h13.9c1.2-1.9,2.8-4.3,3.6-6h-11.4V36.5h16.5v-5.4
	H195V19.6h-7.8v-3.4h7.8V5.4h14.2V0h9.5v5.4h14.6v10.8h6.8v3.4h-6.8v11.5h-14.6v5.4h17v15.7h-20.3c-0.9,1.9-2.5,4.2-3.6,6h28.5v3.4
	h-9.8c-1.4,3-3.2,5.7-5.2,8.3c3.1,0.6,6.3,1.3,9.6,2.3L228.3,82.4z M209.2,40h-7.6v8.9h7.6V40z M209.2,8.9h-5.7v7.4h5.7V8.9z
	 M209.2,19.6h-5.7v8.1h5.7V19.6z M209.7,61.7c-1.3,2-2.8,3.9-4.4,5.9c3.1,0.2,6.2,0.5,9,0.8c1.6-2.1,3-4.3,4.2-6.6H209.7z
	 M224.8,8.8h-6.1v7.4h6.1V8.8z M224.8,19.6h-6.1v8.1h6.1V19.6z M226.6,40h-8v8.9h8V40z M265.9,85.2c-5.8-3.8-10.5-8.9-13.9-14.9
	c-4.9,5.5-11.6,10.2-20.6,15l-1.5-2.2c9-6.9,14.8-13.6,18.6-20.7c-2.5-7-3.7-15.3-4.4-25.2c-1.7,3.4-3.6,6.7-5.8,9.8l-1.8-1.4
	c4.5-14.6,7-29.9,7.3-45.2L256,2.5c-0.9,4.6-2.2,9.3-3.6,14h19.4v3.4h-5c-1.2,18.8-2.9,32.3-9.5,43.2c4.1,4.2,9,7.4,14.5,9.5
	L265.9,85.2z M251.2,19.9c-1.6,4.8-3.5,9.5-5.7,14.1c1.4,8.6,3.3,15.4,6,20.8c3.5-10,3.9-21.2,4.4-34.9L251.2,19.9z"/>
<path class="st0" d="M290.9,85.1V38.5c-2.6,3.2-5.4,6.3-8.1,9.1l-2.3-2.3c8-12.8,13-26.5,16.1-45.4l13.8,4.2
	c-2.2,6.2-4.9,12.1-8.1,17.8v63.1H290.9z M305.1,81v-4.1h29.1c4.6-15.2,9.2-38.3,10.1-51.9l14.8,4.1c-3.9,13.3-13.2,35-21,47.8h28.4
	v4.2L305.1,81z M307.6,22.1v-3.8h22.3V0h11.9v18.3h22.5v3.8L307.6,22.1z M321.3,71.1c-0.9-14.5-3.2-28.8-7-42.8l2.7-1.5
	c7.1,11.2,13.9,24.8,17.8,36.9L321.3,71.1z"/>
</svg>
