<svg width="26" height="22" viewBox="0 0 26 22" fill="none" xmlns="http://www.w3.org/2000/svg">
<path d="M17.1845 1.5271H9.3853C8.8036 1.5271 8.33203 1.99867 8.33203 2.58037V7.47057C8.33203 8.05227 8.8036 8.52384 9.3853 8.52384H17.1845C17.7662 8.52384 18.2378 8.05227 18.2378 7.47057V2.58037C18.2378 1.99867 17.7662 1.5271 17.1845 1.5271Z" fill="black"/>
<path d="M17.2096 9.577H9.36022C9.08522 9.57211 8.81387 9.51308 8.56169 9.4033C8.3095 9.29352 8.08146 9.13513 7.8905 8.93718C7.69954 8.73923 7.54942 8.5056 7.44876 8.24964C7.34811 7.99367 7.29883 7.72038 7.30381 7.44538V2.5928C7.29883 2.3178 7.34811 2.04451 7.44876 1.78855C7.54942 1.53258 7.69954 1.29895 7.8905 1.101C8.08146 0.903055 8.3095 0.744665 8.56169 0.634882C8.81387 0.5251 9.08522 0.466077 9.36022 0.461182H17.2096C17.4846 0.466077 17.756 0.5251 18.0081 0.634882C18.2603 0.744665 18.4884 0.903055 18.6793 1.101C18.8703 1.29895 19.0204 1.53258 19.1211 1.78855C19.2217 2.04451 19.271 2.3178 19.266 2.5928V7.44538C19.271 7.72038 19.2217 7.99367 19.1211 8.24964C19.0204 8.5056 18.8703 8.73923 18.6793 8.93718C18.4884 9.13513 18.2603 9.29352 18.0081 9.4033C17.756 9.51308 17.4846 9.57211 17.2096 9.577V9.577ZM9.36022 2.5928V7.44538H17.2096V2.5928H9.36022Z" fill="black"/>
<path d="M14.4885 8.52368H12.0811V17.2508H14.4885V8.52368Z" fill="black"/>
<path d="M8.36971 21.5391H2.96534C2.66894 21.5342 2.37632 21.4709 2.10436 21.3529C1.8324 21.235 1.58647 21.0646 1.38037 20.8515C1.17427 20.6384 1.01212 20.3868 0.903273 20.1111C0.794427 19.8353 0.740943 19.5408 0.745924 19.2444V13.6521C0.740943 13.3556 0.794427 13.0612 0.903273 12.7854C1.01212 12.5097 1.17427 12.2581 1.38037 12.045C1.58647 11.8319 1.8324 11.6615 2.10436 11.5435C2.37632 11.4256 2.66894 11.3623 2.96534 11.3574H8.36971C8.96614 11.3706 9.53303 11.6194 9.94657 12.0494C10.3601 12.4793 10.5865 13.0556 10.5764 13.6521V19.2444C10.5865 19.8409 10.3601 20.4171 9.94657 20.8471C9.53303 21.2771 8.96614 21.5259 8.36971 21.5391V21.5391ZM3.35413 18.8306H7.96838V14.0533H3.35413V18.8306Z" fill="black"/>
<path d="M23.6042 21.5391H18.2C17.6025 21.5259 17.0343 21.2775 16.6187 20.8479C16.2032 20.4183 15.9739 19.8421 15.9806 19.2444V13.6521C15.9739 13.0544 16.2032 12.4782 16.6187 12.0486C17.0343 11.619 17.6025 11.3706 18.2 11.3574H23.6042C23.9007 11.3623 24.1933 11.4256 24.4652 11.5435C24.7372 11.6615 24.9833 11.8319 25.1894 12.045C25.3955 12.2581 25.5575 12.5097 25.6663 12.7854C25.7752 13.0612 25.8286 13.3556 25.8237 13.6521V19.2444C25.8286 19.5408 25.7752 19.8353 25.6663 20.1111C25.5575 20.3868 25.3955 20.6384 25.1894 20.8515C24.9833 21.0646 24.7372 21.235 24.4652 21.3529C24.1933 21.4709 23.9007 21.5342 23.6042 21.5391V21.5391ZM18.5887 18.8306H23.2031V14.0533H18.5887V18.8306Z" fill="black"/>
<path d="M16.0939 15.2068H9.97485V17.702H16.0939V15.2068Z" fill="black"/>
</svg>
