<svg width="40" height="40" viewBox="0 0 40 40" fill="none" xmlns="http://www.w3.org/2000/svg">
<path d="M9.95117 22.6997C10.7004 21.7053 12.2586 21.7856 12.9004 22.8989L19.2188 33.8491C19.9086 35.0318 19.0545 36.5207 17.6807 36.521H5.03125C3.65673 36.5208 2.80659 35.042 3.49121 33.8521L9.81055 22.8989L9.95117 22.6997ZM27.7588 21.5747C28.3861 21.1244 29.2354 21.1171 29.8633 21.5796L29.8623 21.5806L36.0049 26.0464L36.1191 26.1362C36.6717 26.6051 36.8886 27.3663 36.6582 28.0581L36.6572 28.0571L34.3115 35.2729L34.3125 35.2739C34.0802 36.0199 33.3781 36.5209 32.6113 36.521H25.0029C24.2252 36.5208 23.5467 36.0108 23.3057 35.2876L23.3037 35.2827L20.9541 28.0542L20.915 27.9116C20.7458 27.2009 21.0294 26.474 21.6016 26.0522L21.6055 26.0493L27.7549 21.5776L27.7588 21.5747ZM28.9727 22.7876C28.8806 22.7201 28.7441 22.7135 28.6328 22.7935L22.4912 27.2593C22.4092 27.3198 22.3664 27.4094 22.3662 27.4995L22.3809 27.5884V27.5894L24.7285 34.814L24.748 34.8599C24.801 34.9613 24.9044 35.0209 25.0029 35.021H32.6113C32.7349 35.0209 32.8468 34.934 32.8799 34.8276L32.8828 34.8188L35.2334 27.5894L35.2344 27.5845C35.2726 27.4697 35.2323 27.3387 35.1299 27.2651L35.126 27.2622L28.9766 22.7905L28.9727 22.7876ZM11.3506 3.479C15.7206 3.47929 19.2637 7.02204 19.2637 11.3921C19.2636 15.7621 15.7205 19.3049 11.3506 19.3052C6.9804 19.3052 3.43755 15.7623 3.4375 11.3921C3.4375 7.02187 6.98036 3.479 11.3506 3.479ZM33.2764 4.2749C34.7368 4.27513 35.9216 5.459 35.9219 6.91943V15.8638C35.9219 17.3244 34.7369 18.509 33.2764 18.5093H24.332C22.8715 18.509 21.6875 17.3244 21.6875 15.8638V6.91943C21.6877 5.459 22.8716 4.27514 24.332 4.2749H33.2764ZM11.3506 4.979C7.80879 4.979 4.9375 7.85029 4.9375 11.3921C4.93755 14.9338 7.80882 17.8052 11.3506 17.8052C14.8921 17.8049 17.7636 14.9337 17.7637 11.3921C17.7637 7.85047 14.8921 4.97929 11.3506 4.979ZM24.332 5.7749C23.7 5.77514 23.1877 6.28743 23.1875 6.91943V15.8638C23.1875 16.496 23.6999 17.009 24.332 17.0093H33.2764C33.9085 17.009 34.4219 16.496 34.4219 15.8638V6.91943C34.4216 6.28743 33.9084 5.77513 33.2764 5.7749H24.332Z" fill="black"/>
</svg>
