<svg width="14" height="18" viewBox="0 0 14 18" fill="none" xmlns="http://www.w3.org/2000/svg">
<path d="M9.625 9C9.625 9.62891 9.57031 10.2031 9.51562 10.75H4.45703C4.40234 10.2031 4.34766 9.62891 4.34766 9C4.34766 8.39844 4.40234 7.82422 4.45703 7.25H9.51562C9.57031 7.82422 9.625 8.39844 9.625 9ZM13.7539 7.25C13.918 7.82422 14 8.39844 14 9C14 9.62891 13.918 10.2031 13.7539 10.75H10.3906C10.4453 10.2031 10.5 9.60156 10.5 9C10.5 8.39844 10.4453 7.82422 10.3906 7.25H13.7539ZM13.4805 6.375H10.2812C10.0078 4.65234 9.46094 3.17578 8.77734 2.24609C10.9102 2.82031 12.6602 4.35156 13.4805 6.375ZM9.40625 6.375H4.56641C4.73047 5.39062 5.00391 4.51562 5.30469 3.80469C5.60547 3.14844 5.90625 2.68359 6.23438 2.38281C6.53516 2.10938 6.78125 2 7 2C7.19141 2 7.4375 2.10938 7.73828 2.38281C8.06641 2.68359 8.36719 3.14844 8.66797 3.80469C8.96875 4.51562 9.24219 5.39062 9.40625 6.375ZM0.492188 6.375C1.3125 4.35156 3.0625 2.82031 5.19531 2.24609C4.51172 3.17578 3.96484 4.65234 3.69141 6.375H0.492188ZM3.58203 7.25C3.52734 7.82422 3.47266 8.39844 3.47266 9C3.47266 9.60156 3.52734 10.2031 3.58203 10.75H0.21875C0.0546875 10.2031 0 9.62891 0 9C0 8.39844 0.0546875 7.82422 0.21875 7.25H3.58203ZM5.30469 14.2227C5.00391 13.5117 4.73047 12.6367 4.56641 11.625H9.40625C9.24219 12.6367 8.96875 13.5117 8.66797 14.2227C8.36719 14.8789 8.06641 15.3438 7.73828 15.6445C7.4375 15.918 7.19141 16 6.97266 16C6.78125 16 6.53516 15.918 6.23438 15.6445C5.90625 15.3438 5.60547 14.8789 5.30469 14.2227ZM5.19531 15.7812C3.0625 15.207 1.3125 13.6758 0.492188 11.625H3.69141C3.96484 13.375 4.51172 14.8516 5.19531 15.7812ZM8.77734 15.7812C9.46094 14.8516 10.0078 13.375 10.2812 11.625H13.4805C12.6602 13.6758 10.9102 15.207 8.77734 15.7812Z" fill="black"/>
</svg>
