<svg width="40" height="40" viewBox="0 0 40 40" fill="none" xmlns="http://www.w3.org/2000/svg">
<path d="M19.9998 0.509766C9.24977 0.509766 0.509766 9.24977 0.509766 19.9998C0.509766 30.7498 9.24977 39.4898 19.9998 39.4898C30.7498 39.4898 39.4898 30.7498 39.4898 19.9998C39.4898 9.24977 30.7398 0.509766 19.9998 0.509766ZM19.9998 37.9798C10.0798 37.9798 2.00977 29.9198 2.00977 19.9998C2.00977 10.0798 10.0798 2.00977 19.9998 2.00977C29.9198 2.00977 37.9898 10.0798 37.9898 19.9998C37.9898 29.9198 29.9198 37.9898 19.9998 37.9898V37.9798Z" fill="black"/>
<path d="M20 5.16992C16.69 5.16992 13.54 6.25992 10.91 8.30992C10.74 8.43992 10.64 8.63992 10.62 8.85992C10.61 9.06992 10.69 9.27992 10.84 9.43992L17.13 15.7299L23.71 22.3099L24.42 23.0199L28.48 27.0799L30.58 29.1799C30.72 29.3199 30.91 29.3999 31.11 29.3999C31.13 29.3999 31.14 29.3999 31.16 29.3999C31.37 29.3899 31.57 29.2799 31.7 29.1099C33.75 26.4799 34.84 23.3299 34.84 20.0199C34.84 11.8399 28.19 5.18992 20.01 5.18992L20 5.16992ZM29.7 26.1699C31.26 24.7899 32.6 22.7299 33.24 21.4699C33 23.6199 32.25 25.6699 31.01 27.4799L29.7 26.1699ZM32.38 15.0999C31.79 14.7599 30.2 14.0199 28.3 14.4499C27.18 14.7099 20.8 16.2199 20.4 16.2199H19.75L12.51 8.97992C14.73 7.45992 17.3 6.65992 19.99 6.65992C25.61 6.65992 30.42 10.1599 32.38 15.0899V15.0999ZM26.99 19.1499C28.33 19.2799 28.52 20.8599 27.37 22.4299C27.16 22.7099 26.9 22.9299 26.6 23.0699L23.7 20.1699C24.39 19.4799 25.95 19.0399 26.98 19.1399L26.99 19.1499Z" fill="black"/>
<path d="M23.9699 27.0302L11.3399 14.4002L8.73992 11.8002C8.57992 11.6402 8.34992 11.5602 8.12992 11.5802C7.90992 11.6002 7.69992 11.7302 7.57992 11.9202C5.99992 14.3402 5.16992 17.1302 5.16992 20.0002C5.16992 28.1802 11.8199 34.8302 19.9999 34.8302C22.8699 34.8302 25.6599 34.0002 28.0799 32.4202C28.2699 32.3002 28.3899 32.0902 28.4199 31.8702C28.4399 31.6502 28.3599 31.4202 28.1999 31.2602L23.9699 27.0302ZM19.9999 33.3302C13.1399 33.3302 7.47992 28.1302 6.74992 21.4602C7.70992 23.3502 10.2399 27.0602 12.7399 27.5302C15.7199 28.0902 18.3599 25.5202 19.5099 24.6902L26.4599 31.6402C24.4799 32.7502 22.2599 33.3302 19.9999 33.3302ZM9.27992 14.4602C8.50992 14.6302 7.91992 14.9202 7.60992 15.1002C7.81992 14.5602 8.06992 14.0402 8.34992 13.5302L9.27992 14.4602ZM14.0199 19.2002L16.5499 21.7302C16.0399 23.5802 13.6399 23.8202 12.6299 22.4402C11.4799 20.8602 11.6699 19.2902 13.0099 19.1602C13.3099 19.1302 13.6599 19.1602 14.0199 19.2102V19.2002Z" fill="black"/>
</svg>
