<svg width="10" height="12" viewBox="0 0 10 12" fill="none" xmlns="http://www.w3.org/2000/svg">
<path d="M9.63198 5.01835L1.10798 0.099004C0.995476 0.034048 0.867799 -0.000127983 0.737889 3.60151e-07C0.607979 0.000128703 0.480399 0.0345472 0.368023 0.0997253C0.255647 0.164903 0.162456 0.25861 0.0978373 0.371309C0.0332181 0.484007 -0.00051108 0.611627 5.85363e-06 0.741535V10.5804C0.000783496 10.7097 0.0354851 10.8364 0.100632 10.9481C0.16578 11.0598 0.259066 11.1525 0.371224 11.2168C0.483383 11.2811 0.610453 11.3147 0.739738 11.3145C0.869022 11.3143 0.996018 11.2804 1.10798 11.2157L9.63198 6.2962C9.74392 6.23127 9.83681 6.13801 9.9014 6.02588C9.96599 5.91374 10 5.78667 10 5.65727C10 5.52787 9.96599 5.4008 9.9014 5.28867C9.83681 5.17653 9.74392 5.08328 9.63198 5.01835Z" fill="white"/>
</svg>
