<svg xmlns="http://www.w3.org/2000/svg" width="20" height="16.81" viewBox="0 0 20 16.81">
  <defs>
    <style>
      .cls-1 {
        fill: #fff;
      }
    </style>
  </defs>
  <g id="圖層_2" data-name="圖層 2">
    <g id="圖層_1-2" data-name="圖層 1">
      <g>
        <g>
          <rect class="cls-1" x="6.05" y="0.85" width="7.9" height="5.58" rx="0.84"/>
          <path class="cls-1" d="M13.13,7.28H6.87a1.67,1.67,0,0,1-1.64-1.7V1.7A1.67,1.67,0,0,1,6.87,0h6.26a1.67,1.67,0,0,1,1.64,1.7V5.58A1.67,1.67,0,0,1,13.13,7.28ZM6.87,1.7V5.58h6.26V1.7Z"/>
        </g>
        <rect class="cls-1" x="9.04" y="6.43" width="1.92" height="6.96"/>
        <g>
          <path class="cls-1" d="M6.08,16.81H1.77A1.8,1.8,0,0,1,0,15V10.52A1.8,1.8,0,0,1,1.77,8.69H6.08a1.8,1.8,0,0,1,1.76,1.83V15A1.8,1.8,0,0,1,6.08,16.81Zm-4-2.16H5.76v-3.8H2.08Z"/>
          <path class="cls-1" d="M18.23,16.81H13.92A1.8,1.8,0,0,1,12.16,15V10.52a1.8,1.8,0,0,1,1.76-1.83h4.31A1.8,1.8,0,0,1,20,10.52V15A1.8,1.8,0,0,1,18.23,16.81Zm-4-2.16h3.68v-3.8H14.24Z"/>
          <rect class="cls-1" x="7.36" y="11.76" width="4.88" height="1.99"/>
        </g>
      </g>
    </g>
  </g>
</svg>
