<svg width="40" height="40" viewBox="0 0 40 40" fill="none" xmlns="http://www.w3.org/2000/svg">
<path d="M37.29 28.8151V27.2551C37.29 25.5851 35.93 24.2251 34.26 24.2251H30.69V15.7651H33.69C34.02 17.0251 35.17 17.9651 36.53 17.9651C38.16 17.9651 39.48 16.6451 39.48 15.0151C39.48 13.3851 38.16 12.0651 36.53 12.0651C35.16 12.0651 34.02 13.0051 33.69 14.2651H30.69V13.6851C30.69 11.2651 28.72 9.29512 26.3 9.29512H25.72V5.72512C25.72 4.88512 26.41 4.19512 27.25 4.19512H28.81C29.14 5.45512 30.29 6.39512 31.65 6.39512C33.28 6.39512 34.6 5.07512 34.6 3.44512C34.6 1.81512 33.28 0.495117 31.65 0.495117C30.28 0.495117 29.14 1.43512 28.81 2.69512H27.25C25.58 2.69512 24.22 4.05512 24.22 5.72512V9.29512H15.76V6.29512C17.02 5.96512 17.96 4.81512 17.96 3.45512C17.96 1.82512 16.64 0.505117 15.01 0.505117C13.38 0.505117 12.06 1.82512 12.06 3.45512C12.06 4.82512 13 5.96512 14.26 6.29512V9.29512H13.68C11.26 9.29512 9.29 11.2651 9.29 13.6851V14.2651H5.72C4.88 14.2651 4.19 13.5751 4.19 12.7351V11.1751C5.45 10.8451 6.39 9.69512 6.39 8.33512C6.39 6.70512 5.07 5.38512 3.44 5.38512C1.81 5.38512 0.5 6.71512 0.5 8.34512C0.5 9.71512 1.44 10.8551 2.7 11.1851V12.7451C2.7 14.4151 4.06 15.7751 5.73 15.7751H9.3V24.2351H6.3C5.97 22.9751 4.82 22.0351 3.46 22.0351C1.83 22.0351 0.51 23.3551 0.51 24.9851C0.51 26.6151 1.83 27.9351 3.46 27.9351C4.83 27.9351 5.97 26.9951 6.3 25.7351H9.3V26.3151C9.3 28.7351 11.27 30.7051 13.69 30.7051H14.27V34.2751C14.27 35.1151 13.58 35.8051 12.74 35.8051H11.18C10.85 34.5451 9.7 33.6051 8.34 33.6051C6.71 33.6051 5.39 34.9251 5.39 36.5551C5.39 38.1851 6.71 39.5051 8.34 39.5051C9.71 39.5051 10.85 38.5651 11.18 37.3051H12.74C14.41 37.3051 15.77 35.9451 15.77 34.2751V30.7051H24.23V33.7051C22.97 34.0351 22.03 35.1851 22.03 36.5451C22.03 38.1751 23.35 39.4951 24.98 39.4951C26.61 39.4951 27.93 38.1751 27.93 36.5451C27.93 35.1751 26.99 34.0351 25.73 33.7051V30.7051H26.31C28.73 30.7051 30.7 28.7351 30.7 26.3151V25.7351H34.27C35.11 25.7351 35.8 26.4251 35.8 27.2651V28.8251C34.54 29.1551 33.6 30.3051 33.6 31.6651C33.6 33.2951 34.92 34.6151 36.55 34.6151C38.18 34.6151 39.5 33.2951 39.5 31.6651C39.5 30.2951 38.56 29.1551 37.3 28.8251L37.29 28.8151ZM36.54 13.5751C37.34 13.5751 37.99 14.2251 37.99 15.0251C37.99 15.8251 37.34 16.4751 36.54 16.4751C35.74 16.4751 35.09 15.8251 35.09 15.0251C35.09 14.2251 35.74 13.5751 36.54 13.5751ZM31.65 2.00512C32.45 2.00512 33.1 2.65512 33.1 3.45512C33.1 4.25512 32.45 4.90512 31.65 4.90512C30.85 4.90512 30.2 4.25512 30.2 3.45512C30.2 2.65512 30.85 2.00512 31.65 2.00512ZM13.56 3.45512C13.56 2.65512 14.21 2.00512 15.01 2.00512C15.81 2.00512 16.46 2.65512 16.46 3.45512C16.46 4.25512 15.81 4.90512 15.01 4.90512C14.21 4.90512 13.56 4.25512 13.56 3.45512ZM2 8.34512C2 7.54512 2.65 6.89512 3.45 6.89512C4.25 6.89512 4.9 7.54512 4.9 8.34512C4.9 9.14512 4.25 9.79512 3.45 9.79512C2.65 9.79512 2 9.14512 2 8.34512ZM3.45 26.4351C2.65 26.4351 2 25.7851 2 24.9851C2 24.1851 2.65 23.5351 3.45 23.5351C4.25 23.5351 4.9 24.1851 4.9 24.9851C4.9 25.7851 4.25 26.4351 3.45 26.4351ZM8.34 37.9951C7.54 37.9951 6.89 37.3451 6.89 36.5451C6.89 35.7451 7.54 35.0951 8.34 35.0951C9.14 35.0951 9.79 35.7451 9.79 36.5451C9.79 37.3451 9.14 37.9951 8.34 37.9951ZM26.43 36.5451C26.43 37.3451 25.78 37.9951 24.98 37.9951C24.18 37.9951 23.53 37.3451 23.53 36.5451C23.53 35.7451 24.18 35.0951 24.98 35.0951C25.78 35.0951 26.43 35.7451 26.43 36.5451ZM29.19 26.3051C29.19 27.8951 27.89 29.1951 26.3 29.1951H13.69C12.1 29.1951 10.8 27.8951 10.8 26.3051V13.6951C10.8 12.1051 12.1 10.8051 13.69 10.8051H26.3C27.89 10.8051 29.19 12.1051 29.19 13.6951V26.3051ZM36.54 33.1151C35.74 33.1151 35.09 32.4651 35.09 31.6651C35.09 30.8651 35.74 30.2151 36.54 30.2151C37.34 30.2151 37.99 30.8651 37.99 31.6651C37.99 32.4651 37.34 33.1151 36.54 33.1151Z" fill="black"/>
<path d="M17.7005 15.1553C16.4905 15.1553 15.6305 15.5053 15.1005 16.2053C14.5805 16.9053 14.3105 17.9053 14.3105 19.1953V24.1153C14.3105 24.5153 14.6305 24.8353 15.0305 24.8353C15.4305 24.8353 15.7505 24.5153 15.7505 24.1153V21.6953H19.6105V24.1153C19.6105 24.5153 19.9305 24.8353 20.3305 24.8353C20.7305 24.8353 21.0505 24.5153 21.0505 24.1153V19.1953C21.0505 17.8953 20.7905 16.8953 20.2605 16.1953C19.7405 15.4953 18.8805 15.1553 17.6905 15.1553H17.7005ZM19.6205 20.4353H15.7605V18.8253C15.7605 18.2053 15.9105 17.6453 16.2205 17.1653C16.5205 16.6853 17.0205 16.4453 17.7105 16.4453C18.1505 16.4453 18.5105 16.5653 18.8005 16.7953C19.0905 17.0353 19.3005 17.3253 19.4305 17.6853C19.5605 18.0453 19.6305 18.3953 19.6305 18.7553V20.4253L19.6205 20.4353Z" fill="black"/>
<path d="M24.9507 15.3252C24.5507 15.3252 24.2207 15.6552 24.2207 16.0552V24.1152C24.2207 24.5152 24.5507 24.8452 24.9507 24.8452C25.3507 24.8452 25.6807 24.5152 25.6807 24.1152V16.0552C25.6807 15.6552 25.3507 15.3252 24.9507 15.3252Z" fill="black"/>
</svg>
