<svg width="40" height="40" viewBox="0 0 40 40" fill="none" xmlns="http://www.w3.org/2000/svg">
<path d="M31.8595 11.4959L32.6495 10.6159C32.9095 10.3259 32.8995 9.8859 32.6395 9.5959L31.8295 8.7359C31.4495 8.3259 30.7195 7.5359 30.1295 6.8159L29.3495 5.8659C29.1595 5.6259 28.8395 5.5359 28.5495 5.6259L27.2595 6.0359C26.4295 6.2959 25.5495 6.4259 24.6395 6.4259C22.9995 6.4259 21.7195 6.0159 21.2895 5.8559L20.3695 5.4259C20.1695 5.3359 19.9495 5.3359 19.7495 5.4259L18.9595 5.7759C18.9595 5.7759 18.9195 5.7859 18.8995 5.7959C18.4895 5.9759 17.0595 6.4259 15.3995 6.4259C14.4895 6.4259 13.5995 6.2959 12.7795 6.0359L11.4895 5.6259C11.1995 5.5359 10.8795 5.6259 10.6895 5.8659L9.90949 6.8159C9.47949 7.3459 8.87949 8.0159 8.21949 8.7159L7.39949 9.5859C7.12949 9.8659 7.12949 10.3159 7.38949 10.6059L8.16949 11.4759C10.0195 13.5459 9.46949 15.0059 7.59949 18.9459C6.16949 21.9559 6.63949 24.9659 8.94949 27.6459C10.8795 29.8859 14.0295 31.9559 18.8695 34.1559L19.7095 34.5359C19.8095 34.5759 19.9095 34.6059 20.0195 34.6059C20.1295 34.6059 20.2295 34.5859 20.3295 34.5359L21.1695 34.1559C26.0095 31.9559 29.1595 29.8859 31.0895 27.6459C33.3995 24.9559 33.8695 21.9459 32.4395 18.9459C30.5695 15.0159 30.0195 13.5459 31.8695 11.4859L31.8595 11.4959ZM29.9395 26.6859C28.1595 28.7559 25.1695 30.7059 20.5295 32.8059L19.9995 33.0459L19.4695 32.8059C14.8395 30.6959 11.8495 28.7559 10.0595 26.6859C8.10949 24.4159 7.73949 22.1059 8.92949 19.6059C10.6995 15.8759 11.8795 13.4059 9.25949 10.4959L8.93949 10.1359L9.29949 9.7559C9.96949 9.0359 10.5895 8.3459 11.0395 7.7959L11.4995 7.2359L12.2995 7.4859C13.2695 7.7959 14.3095 7.9459 15.3795 7.9459C17.1595 7.9459 18.7095 7.5059 19.3995 7.2159C19.4295 7.2159 19.4495 7.1959 19.4795 7.1859L20.0195 6.9459L20.6895 7.2559C21.2395 7.4659 22.7295 7.9359 24.6095 7.9359C25.6795 7.9359 26.7095 7.7759 27.6895 7.4759L28.4895 7.2259L28.9495 7.7859C29.5695 8.5359 30.3195 9.3559 30.7195 9.7759L31.0595 10.1359L30.7395 10.4959C28.1295 13.4059 29.2995 15.8759 31.0695 19.6059C32.2595 22.1059 31.8895 24.4159 29.9395 26.6859Z" fill="black"/>
<path d="M35.5094 13.4557L37.4994 11.2357C38.4194 10.2057 38.3994 8.67574 37.4594 7.66574L35.4194 5.49574C35.1894 5.24574 34.3894 4.38574 33.7694 3.64574L32.0894 1.61574C31.3794 0.755741 30.2294 0.41574 29.1494 0.75574L26.4994 1.59574C26.0094 1.75574 25.4694 1.82574 24.9094 1.82574C23.8594 1.82574 22.9994 1.56574 22.8394 1.51574L21.2594 0.765741C20.5394 0.415741 19.6994 0.40574 18.9594 0.72574L17.2994 1.46574C17.2994 1.46574 16.2994 1.83574 15.0994 1.83574C14.5394 1.83574 13.9994 1.75574 13.5094 1.60574L10.8594 0.765741C9.7794 0.425741 8.6294 0.765741 7.9194 1.62574L6.2394 3.65574C5.5494 4.49574 4.6194 5.47574 4.6094 5.48574L2.5494 7.67574C1.5994 8.68574 1.5794 10.2157 2.5094 11.2457L4.4994 13.4657C4.8094 13.8157 4.9094 13.9257 3.2994 17.3157C1.1394 21.8557 1.8394 26.5657 5.2794 30.5657C7.7094 33.3857 11.4794 35.8957 17.1394 38.4757L18.8594 39.2557C19.2194 39.4157 19.5994 39.5057 19.9994 39.5057C20.3994 39.5057 20.7794 39.4257 21.1394 39.2557L22.8594 38.4757C28.5294 35.8957 32.2994 33.3857 34.7294 30.5657C38.1694 26.5657 38.8794 21.8557 36.7094 17.3057C35.0994 13.9157 35.1894 13.8057 35.5094 13.4557ZM33.5894 29.5957C31.3094 32.2457 27.7094 34.6357 22.2394 37.1157L20.5194 37.8957C20.1894 38.0457 19.7994 38.0457 19.4794 37.8957L17.7594 37.1157C12.2994 34.6357 8.6894 32.2457 6.4094 29.5957C3.3794 26.0757 2.7494 21.9357 4.6394 17.9557C6.3994 14.2557 6.6094 13.5757 5.6094 12.4657L3.6194 10.2457C3.2194 9.80574 3.2294 9.13574 3.6394 8.70574L5.6994 6.51574C5.6994 6.51574 6.6694 5.48574 7.3894 4.60574L9.0694 2.57574C9.2994 2.29574 9.6594 2.13574 10.0194 2.13574C10.1394 2.13574 10.2694 2.15574 10.3894 2.19574L13.0394 3.03574C13.6794 3.23574 14.3694 3.33574 15.0794 3.33574C16.5194 3.33574 17.6794 2.92574 17.8394 2.85574L19.5394 2.10574C19.8794 1.95574 20.2594 1.96574 20.5894 2.12574L22.2594 2.91574C22.6394 3.04574 23.6394 3.33574 24.8894 3.33574C25.6094 3.33574 26.2894 3.23574 26.9294 3.03574L29.5794 2.19574C30.0594 2.04574 30.5994 2.19574 30.9094 2.57574L32.5894 4.60574C33.2094 5.36574 33.9894 6.20574 34.2994 6.53574L36.3494 8.70574C36.7594 9.13574 36.7694 9.80574 36.3694 10.2457L34.3794 12.4657C33.3794 13.5857 33.5894 14.2557 35.3394 17.9557C37.2294 21.9357 36.6094 26.0757 33.5794 29.5957H33.5894Z" fill="black"/>
<path d="M24.5098 17.7355H24.3698V14.6555C24.3698 13.2955 23.2598 12.1855 21.8998 12.1855H18.2598C16.8998 12.1855 15.7898 13.2955 15.7898 14.6555V17.7355H15.6498C14.1898 17.7355 13.0098 18.9155 13.0098 20.3755V24.8255C13.0098 26.2855 14.1998 27.4655 15.6498 27.4655H24.5098C25.9698 27.4655 27.1498 26.2855 27.1498 24.8255V20.3755C27.1498 18.9155 25.9598 17.7355 24.5098 17.7355ZM17.2898 14.6555C17.2898 14.1155 17.7298 13.6855 18.2598 13.6855H21.8998C22.4398 13.6855 22.8698 14.1255 22.8698 14.6555V17.7355H17.2898V14.6555ZM25.6498 24.8255C25.6498 25.4555 25.1398 25.9655 24.5098 25.9655H15.6498C15.0198 25.9655 14.5098 25.4555 14.5098 24.8255V20.3755C14.5098 19.7455 15.0198 19.2355 15.6498 19.2355H24.5098C25.1398 19.2355 25.6498 19.7455 25.6498 20.3755V24.8255Z" fill="black"/>
<path d="M20.0401 20.2754C19.2401 20.2754 18.5801 20.9254 18.5801 21.7354C18.5801 22.2654 18.8601 22.7254 19.2901 22.9754V24.4254C19.2901 24.8354 19.6301 25.1754 20.0401 25.1754C20.4501 25.1754 20.7901 24.8354 20.7901 24.4254V22.9754C21.2101 22.7154 21.5001 22.2654 21.5001 21.7354C21.5001 20.9354 20.8501 20.2754 20.0401 20.2754Z" fill="black"/>
</svg>
