<svg xmlns="http://www.w3.org/2000/svg" width="90" height="100" viewBox="0 0 90 100">
  <defs>
    <style>
      .cls-1 {
        fill: #fff;
      }
    </style>
  </defs>
  <g id="圖層_1" data-name="圖層 1">
    <g>
      <path class="cls-1" d="M45,90a32.35,32.35,0,0,1,0-64.69V29A28.67,28.67,0,1,0,58,32l1.64-3.24A32.35,32.35,0,0,1,45,90Z"/>
      <path class="cls-1" d="M45,45c-9.47,0-18.4-1.87-24.48-5.12l1.72-3.2c5.57,3,13.86,4.69,22.76,4.69s17.19-1.71,22.76-4.69l1.72,3.2C63.4,43.17,54.47,45,45,45Z"/>
      <path class="cls-1" d="M67.59,78.82C62,75.9,53.79,74.22,45,74.22s-16.87,1.65-22.43,4.52L20.9,75.51C27,72.38,35.75,70.59,45,70.59s18.2,1.83,24.28,5Z"/>
      <rect class="cls-1" x="43.18" y="64.02" width="3.63" height="24.17"/>
      <rect class="cls-1" x="51.45" y="55.84" width="24.08" height="3.63"/>
      <path class="cls-1" d="M46.9,51.3H43.27V11.81A1.81,1.81,0,0,1,46,10.27L69.39,24.56a1.83,1.83,0,0,1,.86,1.67,1.85,1.85,0,0,1-1.07,1.54L46.9,37.68Zm0-36.25V33.7l17.64-7.85Z"/>
      <path class="cls-1" d="M45.09,65.83a8.18,8.18,0,1,1,8.17-8.17A8.19,8.19,0,0,1,45.09,65.83Zm0-12.72a4.55,4.55,0,1,0,4.54,4.55A4.55,4.55,0,0,0,45.09,53.11Z"/>
      <rect class="cls-1" x="14.82" y="55.84" width="24.08" height="3.63"/>
    </g>
  </g>
</svg>
