<svg width="40" height="40" viewBox="0 0 40 40" fill="none" xmlns="http://www.w3.org/2000/svg">
<path d="M29.9671 14.7997C29.8466 14.3518 29.6115 13.9434 29.2852 13.6153C28.9589 13.2872 28.5527 13.0508 28.1072 12.9296C26.4631 12.4854 19.8868 12.4854 19.8868 12.4854C19.8868 12.4854 13.3104 12.4854 11.6663 12.9296C11.2208 13.0508 10.8147 13.2872 10.4884 13.6153C10.162 13.9434 9.92685 14.3518 9.80638 14.7997C9.5016 16.4835 9.35375 18.1923 9.3646 19.9037C9.35385 21.6117 9.5017 23.317 9.80638 24.9974C9.92495 25.4463 10.1595 25.8557 10.4861 26.1841C10.8127 26.5125 11.2199 26.7483 11.6663 26.8675C13.3104 27.3117 19.8868 27.3117 19.8868 27.3117C19.8868 27.3117 26.4734 27.3117 28.1072 26.8675C28.5537 26.7483 28.9608 26.5125 29.2875 26.1841C29.6141 25.8557 29.8485 25.4463 29.9671 24.9974C30.2717 23.317 30.4197 21.6117 30.409 19.9037C30.4198 18.1923 30.2718 16.4835 29.9671 14.7997V14.7997ZM17.77 23.0653V16.7111L23.2469 19.8934L17.77 23.0653Z" fill="white"/>
</svg>
