<svg xmlns="http://www.w3.org/2000/svg" width="110" height="109.46" viewBox="0 0 110 109.46">
  <defs>
    <style>
      .cls-1 {
        fill: #242424;
      }

      .cls-2 {
        fill: #b9b9b9;
      }

      .cls-3 {
        fill: #707070;
      }
    </style>
  </defs>
  <g id="圖層_2" data-name="圖層 2">
    <g id="圖層_1-2" data-name="圖層 1">
      <g id="g3988">
        <path id="path15" class="cls-1" d="M103.63,13.62l5.93,13.09c.92,2.16.2,4.43-.38,6.56-1.18,4.4-4.11,7.71-7.13,10.9A147.93,147.93,0,0,1,84.71,59.92C74.39,67.46,66.48,72.83,54.13,78.28L46,65.47A252.42,252.42,0,0,0,76.52,49.35a125.83,125.83,0,0,0,20.66-16c8.63-8.16,6.36-17.3,6.45-19.75Z"/>
        <path id="path17" class="cls-1" d="M40.79,35.68C31.54,41,21,48.83,14.68,55.93c-6.31,7.67-7.41,10.17-9.34,15A12.26,12.26,0,0,0,6,81.58c3.15,4,8,7.37,12.47,9.83-1.86-5.12-2.31-8.54.36-13.65a44,44,0,0,1,5.35-7.71c6.49-7.45,14.72-14,22.79-19.68L40.79,35.68Z"/>
        <path id="path19" class="cls-1" d="M106.52,42.54a50.25,50.25,0,0,1,2.62,5.56c1,2.27.34,6-2.57,11C101.16,67,94.23,73.37,86.59,79A112,112,0,0,1,65.16,91.79l-5.48-8.65a232.56,232.56,0,0,0,25.85-14.7C91.27,64.5,96.79,60.29,101.35,55c3.46-4.61,5.26-6.24,5.17-12.43Z"/>
        <path id="path3228" class="cls-2" d="M87.84,7.72A58,58,0,0,0,81,8.11c-8,1.16-23.15,5.3-31.8,11.75L51,24.12c.78-.28,1.74-.6,3-1.1,6.69-2.07,17.6-6.54,23.92-7.32,11.42-1.37,24.19,2.55,24.3,10.56,2.45-5.76,1.32-10.9,1.39-12.65-3.19-5.33-7.8-5.81-15.79-5.89Z"/>
        <path id="path3317" class="cls-2" d="M69.14,39.12a75,75,0,0,0-10.6,3.05l.5,1.18a63.09,63.09,0,0,1,8.44-.89c5.29-.22,13.77-1.16,21.6-.51,10.1.79,16.56,4.42,16.94,5.45a16.86,16.86,0,0,0,.5-4.69v-.17C103.33,37.21,98,36.38,90,36.29,83.16,36.56,75.81,37.18,69.14,39.12Z"/>
        <path id="path3224" class="cls-2" d="M5.94,81.55c5.52,11.64,10.62,17.8,21,23.41,9,3.77,12.87,4.18,22.38,4.45a79.84,79.84,0,0,0,38.18-8.59L79.58,87.2c-7.37,2.89-26.82,9.8-35.64,9.89a49.27,49.27,0,0,1-22.34-4c-5.21-2.52-11.75-6.47-15.66-11.5Z"/>
        <g id="g3347-1-1">
          <path id="path3040-7-7" class="cls-3" d="M80.44,0,60.83,48.18,41.31,1.55H27.92a4.91,4.91,0,0,0-5.55,4.73A4.9,4.9,0,0,0,23,8.35a4.27,4.27,0,0,0-3.48,4.32,4.35,4.35,0,0,0,.86,2.45h0a3.91,3.91,0,1,0,3.31,6.17,3.9,3.9,0,0,0,6.37,0,3.93,3.93,0,0,0,3.31,1.64,3.39,3.39,0,0,0,1.73-.5L49,56H64L86.46,0Z"/>
          <path id="path3124-4-4" class="cls-3" d="M13.13,37.65a2.63,2.63,0,1,1-2.7-2.55,2.64,2.64,0,0,1,2.7,2.55"/>
          <path id="path3120-0-0" class="cls-3" d="M25.81,37.65a2.62,2.62,0,1,1-5.24.15,2.62,2.62,0,0,1,5.24-.16"/>
          <path id="path3122-9-9" class="cls-3" d="M19.67,37.65A2.62,2.62,0,1,1,17,35.1a2.62,2.62,0,0,1,2.7,2.55"/>
          <path id="path3114-4-4" class="cls-3" d="M21.65,43.86a2.2,2.2,0,1,1-2.27-2.14,2.2,2.2,0,0,1,2.27,2.14"/>
          <path id="path3118-8-8" class="cls-3" d="M9,43.86a2.2,2.2,0,1,1-2.27-2.14A2.19,2.19,0,0,1,9,43.86"/>
          <path id="path3116-8-8" class="cls-3" d="M15.49,43.86a2.21,2.21,0,1,1-2.27-2.14,2.2,2.2,0,0,1,2.27,2.14"/>
          <path id="path3106-2-2" class="cls-3" d="M15.58,56.11a1.7,1.7,0,1,1-3.39.1,1.7,1.7,0,0,1,3.39-.11"/>
          <path id="path3108-4-4" class="cls-3" d="M17.89,50a1.7,1.7,0,1,1-1.75-1.64A1.7,1.7,0,0,1,17.89,50"/>
          <path id="path3104-5-5" class="cls-3" d="M3.39,56.11a1.7,1.7,0,1,1-1.74-1.64,1.7,1.7,0,0,1,1.74,1.64"/>
          <path id="path3112-5-5" class="cls-3" d="M5.25,50.05A1.7,1.7,0,0,1,3.6,51.79,1.7,1.7,0,1,1,5.24,50"/>
          <path id="path3102-1-1" class="cls-3" d="M9.61,56.11a1.7,1.7,0,1,1-1.74-1.64,1.7,1.7,0,0,1,1.74,1.64"/>
          <path id="path3110-7-7" class="cls-3" d="M11.72,50A1.7,1.7,0,1,1,10,48.4,1.7,1.7,0,0,1,11.72,50"/>
          <path id="path3126-1-1" class="cls-3" d="M17,31.13a3.06,3.06,0,1,1-3.14-3,3.05,3.05,0,0,1,3.14,3"/>
          <path id="path3128-1-1" class="cls-3" d="M23.5,31.13a3.06,3.06,0,1,1-3.14-3,3.05,3.05,0,0,1,3.14,3"/>
          <path id="path3130-5-5" class="cls-3" d="M29.72,31.13a3.06,3.06,0,1,1-3.15-3,3.06,3.06,0,0,1,3.15,3"/>
          <path id="path3132-2-2" class="cls-3" d="M20.53,25.37a3.37,3.37,0,1,1-3.46-3.26,3.34,3.34,0,0,1,3.45,3.24"/>
          <path id="path3134-7-7" class="cls-3" d="M27,25.37a3.36,3.36,0,1,1-3.46-3.26A3.38,3.38,0,0,1,27,25.37"/>
          <path id="path3136-6-6" class="cls-3" d="M33.34,25.37a3.36,3.36,0,1,1-3.45-3.26,3.36,3.36,0,0,1,3.45,3.26"/>
        </g>
      </g>
    </g>
  </g>
</svg>
