<svg xmlns="http://www.w3.org/2000/svg" width="107.88" height="106.86" viewBox="0 0 107.88 106.86">
  <defs>
    <style>
      .cls-1 {
        fill: #6c6c6c;
      }

      .cls-2 {
        fill: #fff;
      }

      .cls-3 {
        fill: #e3e3e3;
      }
    </style>
  </defs>
  <g id="圖層_2" data-name="圖層 2">
    <g id="圖層_1-2" data-name="圖層 1">
      <g id="layer1">
        <g id="g1140">
          <g id="path162">
            <path class="cls-1" d="M53.93,104.89C25.28,104.76,2,81.67,2,53.43S25.28,2,53.94,2s52,23.08,52,51.46-23.31,51.46-52,51.46Z"/>
            <path class="cls-2" d="M53.94,3.94c27.68,0,50,22.19,50,49.49s-22.45,49.49-50,49.49-50-22.19-50-49.49,22.45-49.49,50-49.49m0-3.94C24.2,0,0,24,0,53.43s24.19,53.29,53.92,53.43,54-24,54-53.43S83.68,0,53.94,0Z"/>
          </g>
          <g id="g214">
            <path id="path216" class="cls-3" d="M53.82,53.55c0-17.26,7.83-31.74,18.31-35.41l.31-.12a.92.92,0,0,0,.56-.81,1,1,0,0,0-.78-.86,13.26,13.26,0,0,0-4.37-.1A26.24,26.24,0,0,0,62,17.6C47.77,22.68,39.46,39.43,42.21,57.43c0,0,.07.43.19,1.09,0,0,0,.14,0,.15a.46.46,0,0,1-.47.52.67.67,0,0,1-.52-.39,12.94,12.94,0,0,1-1-2.49A40.84,40.84,0,0,1,39,44.75a43,43,0,0,1,9.54-26.57,15.19,15.19,0,0,1,1.57-1.53l.52-.45a.93.93,0,0,0,.32-.71.92.92,0,0,0-.77-.89,8.74,8.74,0,0,0-2.4-.12A35.61,35.61,0,0,0,24,26.91,40.72,40.72,0,0,0,14.33,53.5c0,17.1,10.24,32,25.49,37.17a17.19,17.19,0,0,0,4.28.78s1.52.12,1.42-.86a1,1,0,0,0-.17-.47,2.65,2.65,0,0,0-.48-.47l-1.08-.8A40.09,40.09,0,0,1,26.33,55.77c0-1.15.05-2.32.15-3.46a13,13,0,0,1,.16-1.3s.08-.46.5-.47c0,0,.38,0,.48.47,0,0,.1.56.22,1.46A44.44,44.44,0,0,0,68,91.06a13.74,13.74,0,0,0,4.14-.22c.63-.2.93-.54.93-1a.78.78,0,0,0-.59-.78L72.13,89C61.65,85.31,53.82,70.82,53.82,53.56"/>
            <path id="path218" class="cls-3" d="M82.46,81.07l-.26,0a11.71,11.71,0,0,1-5.69-2.91A22.75,22.75,0,0,1,72,71.42a47.87,47.87,0,0,1-3.41-17.65v-.54A47.87,47.87,0,0,1,72,35.58a22.75,22.75,0,0,1,4.54-6.69A11.64,11.64,0,0,1,82.2,26l.26-.06a.74.74,0,0,0,.62-.74.77.77,0,0,0-.44-.63,2.5,2.5,0,0,0-.42-.18c-6.29-1.65-12.21,3-12.21,3C64.47,31.39,61.73,39,61.73,39a43.45,43.45,0,0,0-2.39,14.18v.66A43.53,43.53,0,0,0,61.73,68S64.47,75.61,70,79.64c0,0,5.92,4.63,12.21,3a2.5,2.5,0,0,0,.42-.18.77.77,0,0,0,.44-.63.74.74,0,0,0-.62-.74"/>
            <path id="path220" class="cls-3" d="M90.56,74l-.26-.1a8.29,8.29,0,0,1-.91-.32c-5-2-8-10.31-8-19.92v-.28c0-9.62,3-18,8-19.92a8.29,8.29,0,0,1,.91-.32l.26-.11a.65.65,0,0,0,.43-.58.67.67,0,0,0-.31-.55l-.16-.1a7,7,0,0,0-3.3-.28c-7.54,1-13.42,10.25-13.53,21.74h0v.51h0c.11,11.5,6,20.79,13.53,21.75a6.94,6.94,0,0,0,3.3-.29,1.07,1.07,0,0,0,.16-.09A.63.63,0,0,0,90.56,74"/>
          </g>
        </g>
      </g>
    </g>
  </g>
</svg>
