<svg xmlns="http://www.w3.org/2000/svg" width="160" height="60" viewBox="0 0 160 60">
  <defs>
    <style>
      .cls-1 {
        fill: #326691;
      }
    </style>
  </defs>
  <g id="圖層_2" data-name="圖層 2">
    <g id="圖層_1-2" data-name="圖層 1">
      <g>
        <path class="cls-1" d="M148.59,21.31V49.16a2.06,2.06,0,0,1-2.06,2h-4.15a2,2,0,0,1-2-2V21.31H131a2.05,2.05,0,0,1-2.05-2V15.75A2.05,2.05,0,0,1,131,13.7h27A2.05,2.05,0,0,1,160,15.75v3.51a2.05,2.05,0,0,1-2.05,2Z"/>
        <path class="cls-1" d="M112.06,28.37c-6.48-1.66-8.09-2.47-8.09-4.93v-.11c0-1.81,1.67-3.26,4.83-3.26.21,0,.42,0,.64,0,3.13.31,7.32,2.66,7.32,2.66a2.08,2.08,0,0,0,.59.21,2.3,2.3,0,0,0,2.36-.9h0l2-2.87a2,2,0,0,0,.35-1.14,2,2,0,0,0-.86-1.67l-.16-.1a21.86,21.86,0,0,0-12.14-3.48c-7.66,0-13.13,4.5-13.13,11.3v.11c0,7.45,4.88,9.54,12.43,11.5,6.28,1.61,7.56,2.68,7.56,4.77v.11c0,2.19-2,3.53-5.42,3.53-4.28,0-9.48-3.43-9.48-3.43a2.23,2.23,0,0,0-.61-.27,2.39,2.39,0,0,0-2.42.72L95.6,43.79a2,2,0,0,0,.23,2.87l.26.19a24.09,24.09,0,0,0,14.1,4.52c8.09,0,13.8-4.18,13.8-11.63v-.11C124,33.09,119.67,30.36,112.06,28.37Z"/>
        <path class="cls-1" d="M24.86,30.82c2.68-1.53,4.93-3.83,4.93-8.09v-.1c0-5.9-4.72-9.71-12.37-9.71H1.92A1.94,1.94,0,0,0,0,14.85V48.51a1.92,1.92,0,0,0,1.92,1.92H17.85c8.43,0,14-3.43,14-10.29V40C31.88,35,29.21,32.49,24.86,30.82ZM8,20.16h8.14c3.48,0,5.41,1.4,5.41,3.83v.11c0,2.79-2.3,4-5.94,4H8ZM23.69,39.1c0,2.79-2.2,4.08-5.84,4.08H8V35h9.54c4.23,0,6.13,1.53,6.13,4.07Z"/>
        <path class="cls-1" d="M63.72,41.56a2,2,0,1,0,2,2h0A2,2,0,0,0,63.72,41.56Z"/>
        <path class="cls-1" d="M63.72,45.42a1.88,1.88,0,1,0,1.87,1.88h0A1.87,1.87,0,0,0,63.72,45.42Z"/>
        <path class="cls-1" d="M59.79,41.4a1.88,1.88,0,1,0,1.87,1.89v0A1.88,1.88,0,0,0,59.79,41.4Z"/>
        <path class="cls-1" d="M59.79,45.48A1.53,1.53,0,1,0,61.32,47,1.53,1.53,0,0,0,59.79,45.48Z"/>
        <path class="cls-1" d="M55.65,41.7a1.6,1.6,0,0,0,0,3.19,1.6,1.6,0,1,0,0-3.19Z"/>
        <path class="cls-1" d="M55.65,45.73A1.35,1.35,0,1,0,57,47.09a1.36,1.36,0,0,0-1.35-1.36Z"/>
        <path class="cls-1" d="M51.63,37.87a1.63,1.63,0,1,0,1.63,1.63h0A1.63,1.63,0,0,0,51.63,37.87Z"/>
        <path class="cls-1" d="M51.63,41.9A1.4,1.4,0,1,0,53,43.29a1.39,1.39,0,0,0-1.4-1.39Z"/>
        <path class="cls-1" d="M51.63,45.85a1.23,1.23,0,1,0,.06,2.46,1.23,1.23,0,0,0,0-2.46Z"/>
        <path class="cls-1" d="M47.53,30.22a1.72,1.72,0,1,0,1.71,1.72h0A1.72,1.72,0,0,0,47.53,30.22Z"/>
        <path class="cls-1" d="M47.53,34.2a1.53,1.53,0,1,0,1.53,1.53A1.53,1.53,0,0,0,47.53,34.2Z"/>
        <path class="cls-1" d="M47.53,38.17a1.4,1.4,0,1,0,1.39,1.41v0A1.39,1.39,0,0,0,47.53,38.17Z"/>
        <path class="cls-1" d="M47.53,42.17a1.24,1.24,0,1,0,1.23,1.25h0A1.24,1.24,0,0,0,47.53,42.17Z"/>
        <path class="cls-1" d="M47.53,46.12a1.08,1.08,0,1,0,0,2.16A1.09,1.09,0,0,0,48.6,47.2h0a1.07,1.07,0,0,0-1.07-1.07Z"/>
        <path class="cls-1" d="M43.42,30.35a1.59,1.59,0,0,0-1.6,1.58A1.6,1.6,0,1,0,45,32h0A1.6,1.6,0,0,0,43.42,30.35Z"/>
        <path class="cls-1" d="M43.42,34.3a1.46,1.46,0,1,0,1.45,1.47v0A1.46,1.46,0,0,0,43.42,34.3Z"/>
        <path class="cls-1" d="M43.42,38.25a1.32,1.32,0,1,0,1.31,1.33v0A1.33,1.33,0,0,0,43.42,38.25Z"/>
        <path class="cls-1" d="M43.42,42.21a1.17,1.17,0,0,0-1.18,1.17,1.18,1.18,0,1,0,2.36,0h0A1.17,1.17,0,0,0,43.42,42.21Z"/>
        <path class="cls-1" d="M43.42,46.22a1,1,0,1,0,0,1.93,1,1,0,0,0,1-.95h0A1,1,0,0,0,43.42,46.22Z"/>
        <path class="cls-1" d="M39.32,30.54a1.41,1.41,0,1,0,0,2.82,1.41,1.41,0,0,0,0-2.82Z"/>
        <path class="cls-1" d="M39.32,34.5a1.3,1.3,0,0,0-1.19,1.39,1.29,1.29,0,0,0,2.57,0,1.3,1.3,0,0,0-1.19-1.39Z"/>
        <path class="cls-1" d="M39.32,38.43a1.16,1.16,0,1,0,1.15,1.16h0A1.16,1.16,0,0,0,39.32,38.43Z"/>
        <path class="cls-1" d="M40.28,43.39a1,1,0,0,0-1.93,0,1,1,0,1,0,1.93,0Z"/>
        <path class="cls-1" d="M39.55,46a.77.77,0,1,0,.76.77A.76.76,0,0,0,39.55,46Z"/>
        <path class="cls-1" d="M63.72,49.3a1.78,1.78,0,1,0,1.78,1.77A1.77,1.77,0,0,0,63.72,49.3Z"/>
        <path class="cls-1" d="M63.72,53.27a1.59,1.59,0,1,0,1.58,1.6v0A1.59,1.59,0,0,0,63.72,53.27Z"/>
        <path class="cls-1" d="M63.72,57.64a1.18,1.18,0,0,0-1.19,1.17,1.19,1.19,0,0,0,2.37,0h0A1.18,1.18,0,0,0,63.72,57.64Z"/>
        <path class="cls-1" d="M59.79,49.37a1.46,1.46,0,1,0,1.46,1.45,1.46,1.46,0,0,0-1.46-1.45Z"/>
        <path class="cls-1" d="M59.79,53.51a1.1,1.1,0,0,0-1.08,1.1,1.09,1.09,0,0,0,2.18,0A1.11,1.11,0,0,0,59.79,53.51Z"/>
        <path class="cls-1" d="M59.79,57.71a.93.93,0,1,0,.93.93h0A.93.93,0,0,0,59.79,57.71Z"/>
        <path class="cls-1" d="M55.65,49.73a1.15,1.15,0,0,0-1.16,1.14A1.17,1.17,0,0,0,55.64,52a1.15,1.15,0,0,0,1.15-1.15h0A1.14,1.14,0,0,0,55.65,49.73Z"/>
        <path class="cls-1" d="M55.65,53.67a1,1,0,0,0-1,1,1,1,0,0,0,1.95,0v0a1,1,0,0,0-1-1Z"/>
        <path class="cls-1" d="M55.65,57.54a.79.79,0,0,0-.79.8.79.79,0,0,0,1.58,0A.79.79,0,0,0,55.65,57.54Z"/>
        <path class="cls-1" d="M51.63,49.83a1.08,1.08,0,1,0,1.08,1.08,1.08,1.08,0,0,0-1.08-1.08Z"/>
        <path class="cls-1" d="M51.63,53.7a.92.92,0,1,0,.92.92h0A.93.93,0,0,0,51.63,53.7Z"/>
        <path class="cls-1" d="M51.63,56.73a.54.54,0,1,0,.53.54h0A.54.54,0,0,0,51.63,56.73Z"/>
        <path class="cls-1" d="M47.53,50.09a.92.92,0,0,0,0,1.84.93.93,0,0,0,.93-.92h0a.91.91,0,0,0-.91-.91Z"/>
        <path class="cls-1" d="M47.53,54a.53.53,0,0,0-.48.6.48.48,0,1,0,1-.13A.53.53,0,0,0,47.53,54Z"/>
        <path class="cls-1" d="M43.42,50.26a.77.77,0,1,0,.77.77A.77.77,0,0,0,43.42,50.26Z"/>
        <path class="cls-1" d="M35.21,33a1.06,1.06,0,1,0,0-2.12,1.07,1.07,0,0,0-1.07,1.05h0A1.06,1.06,0,0,0,35.21,33Z"/>
        <path class="cls-1" d="M36,35.77a.8.8,0,1,0-.8.8A.8.8,0,0,0,36,35.77Z"/>
        <path class="cls-1" d="M35.9,38.88a.73.73,0,0,0-.74.72.73.73,0,1,0,1.46,0h0A.73.73,0,0,0,35.9,38.88Z"/>
        <path class="cls-1" d="M67.62,41.4a1.88,1.88,0,1,0,1.87,1.89v0A1.89,1.89,0,0,0,67.62,41.4Z"/>
        <path class="cls-1" d="M67.62,45.48A1.53,1.53,0,1,0,69.15,47,1.54,1.54,0,0,0,67.62,45.48Z"/>
        <path class="cls-1" d="M71.76,41.7a1.6,1.6,0,0,0,0,3.19,1.6,1.6,0,0,0,0-3.19Z"/>
        <path class="cls-1" d="M71.76,45.73a1.35,1.35,0,0,0,0,2.7,1.35,1.35,0,0,0,0-2.7Z"/>
        <path class="cls-1" d="M77.83,28.13a2.05,2.05,0,0,0-1.59-2A1.87,1.87,0,1,0,74,24.78a1.84,1.84,0,0,0,1.37,1.37,2,2,0,0,0-1.47,1.35,2.18,2.18,0,0,0-1.16-1.36,2,2,0,0,0-.52-3.79A1.85,1.85,0,1,0,70,21a1.88,1.88,0,0,0,1.39,1.38,2,2,0,0,0-.51,3.79,2.22,2.22,0,0,0-1.15,1.26,2.24,2.24,0,0,0-1.14-1.26,2,2,0,0,0,1.1-1.79,2.05,2.05,0,0,0-1.59-2A1.87,1.87,0,1,0,65.8,21a1.84,1.84,0,0,0,1.36,1.37,2.08,2.08,0,0,0-1.4,1.15,2,2,0,0,0-.33-.53,2,2,0,0,0-1-.82,2,2,0,0,0-.72-3.87A2,2,0,0,0,63,22.15,2,2,0,0,0,61.8,23.3a1.71,1.71,0,0,0-.13.23,2.06,2.06,0,0,0-1.42-1.18,1.86,1.86,0,1,0-.89,0,2,2,0,0,0-.49,3.79,2.15,2.15,0,0,0-1.14,1.26,2.19,2.19,0,0,0-1.15-1.26,2,2,0,0,0-.52-3.79A1.85,1.85,0,1,0,53.84,21a1.86,1.86,0,0,0,1.39,1.39,2,2,0,0,0-.51,3.79,2.19,2.19,0,0,0-1.18,1.36,2,2,0,0,0-1.46-1.35,1.88,1.88,0,1,0-.91,0A2,2,0,0,0,50.84,30a2,2,0,0,0-1.07,2.65,2.07,2.07,0,0,0,1.4,1.18,1.87,1.87,0,1,0,.91,0,2,2,0,0,0,1.46-1.34,2.21,2.21,0,0,0,1.18,1.36,2,2,0,0,0,.51,3.78,1.86,1.86,0,1,0,.83,0,2,2,0,0,0,1.56-2.41,2,2,0,0,0-1-1.37,2.23,2.23,0,0,0,1.15-1.28,2.21,2.21,0,0,0,1.14,1.28,2,2,0,0,0-1.1,1.79,2,2,0,0,0,1.59,2,1.86,1.86,0,1,0,.89,0,2.07,2.07,0,0,0,1.41-1.15A2.88,2.88,0,0,0,63,37.82a2,2,0,1,0,1.46,0,2,2,0,0,0,1.18-1.15l.13-.23a2.05,2.05,0,0,0,1.41,1.17,1.87,1.87,0,1,0,.9,0,2,2,0,0,0,1.59-2,2,2,0,0,0-1.1-1.79,2.21,2.21,0,0,0,1.14-1.28,2.26,2.26,0,0,0,1.15,1.28A2,2,0,0,0,70,36.58a2,2,0,0,0,1.37,1,1.86,1.86,0,1,0,.84,0,2,2,0,0,0,1.56-2.41,2,2,0,0,0-1-1.37,2.21,2.21,0,0,0,1.16-1.36,2,2,0,0,0,1.47,1.34,1.88,1.88,0,1,0,2.28,1.38,1.9,1.9,0,0,0-1.38-1.38A2,2,0,0,0,76.58,30,2.05,2.05,0,0,0,77.83,28.13Zm-12,1.23a2.15,2.15,0,0,0,.7.64,2.35,2.35,0,0,0-.71.66,2.47,2.47,0,0,0-.6-.65A2.51,2.51,0,0,0,65.78,29.36Zm0-2.45a2,2,0,0,0-.36-.46,1.81,1.81,0,0,0-.36-.37,2.14,2.14,0,0,0,.7-.9,2.11,2.11,0,0,0,.93,1A2.19,2.19,0,0,0,65.78,26.91Zm-.1,6.28.09-.11a2.28,2.28,0,0,0,.9.76,2.08,2.08,0,0,0-.92,1,2.34,2.34,0,0,0-.69-.9A2.3,2.3,0,0,0,65.68,33.19Zm-4-3.83a2.52,2.52,0,0,0,.6.66,2.51,2.51,0,0,0-.61.65,2.29,2.29,0,0,0-.71-.64,2.16,2.16,0,0,0,.72-.69Zm.08-2.52s0,.07-.08.11a2.2,2.2,0,0,0-.91-.77,2,2,0,0,0,.93-1,2.18,2.18,0,0,0,.7.87A2.26,2.26,0,0,0,61.73,26.84Zm-.09,6.28a5.17,5.17,0,0,0,.72.83,2.14,2.14,0,0,0-.7.9,2,2,0,0,0-.92-1,2.22,2.22,0,0,0,.9-.79Zm-8.1-1.88A2,2,0,0,0,52.36,30a2,2,0,0,0,1.18-1.23,2.23,2.23,0,0,0,1,1.23A2.22,2.22,0,0,0,53.54,31.24ZM56.79,30a2.15,2.15,0,0,0,.94-1.14A2.18,2.18,0,0,0,58.66,30a2.22,2.22,0,0,0-.93,1.14A2.19,2.19,0,0,0,56.79,30Zm12,0a2.18,2.18,0,0,0,.93-1.14A2.25,2.25,0,0,0,70.63,30a2.19,2.19,0,0,0-.94,1.14A2.26,2.26,0,0,0,68.76,30Zm4.15,0a2.18,2.18,0,0,0,1-1.23A2,2,0,0,0,75.05,30a2,2,0,0,0-1.18,1.24A2.16,2.16,0,0,0,72.91,30Z"/>
        <path class="cls-1" d="M75.8,37.87a1.63,1.63,0,1,0,1.62,1.64h0A1.63,1.63,0,0,0,75.8,37.87Z"/>
        <path class="cls-1" d="M75.8,41.9a1.4,1.4,0,1,0,1.38,1.4h0A1.39,1.39,0,0,0,75.8,41.9Z"/>
        <path class="cls-1" d="M75.8,45.85A1.24,1.24,0,1,0,77,47.09,1.23,1.23,0,0,0,75.8,45.85Z"/>
        <path class="cls-1" d="M79.9,26.25a1.88,1.88,0,1,0,1.87,1.89h0A1.89,1.89,0,0,0,79.9,26.25Z"/>
        <path class="cls-1" d="M79.9,30.22A1.72,1.72,0,1,0,81.61,32h0A1.73,1.73,0,0,0,79.9,30.22Z"/>
        <path class="cls-1" d="M79.9,34.2a1.53,1.53,0,1,0,1.53,1.53A1.53,1.53,0,0,0,79.9,34.2Z"/>
        <path class="cls-1" d="M79.9,38.17a1.4,1.4,0,1,0,1.39,1.41v0A1.39,1.39,0,0,0,79.9,38.17Z"/>
        <path class="cls-1" d="M79.9,42.17a1.24,1.24,0,1,0,1.23,1.25h0A1.24,1.24,0,0,0,79.9,42.17Z"/>
        <path class="cls-1" d="M79.9,46.12a1.08,1.08,0,1,0,0,2.16A1.08,1.08,0,0,0,81,47.2h0a1.07,1.07,0,0,0-1.07-1.07Z"/>
        <path class="cls-1" d="M84,26.35a1.78,1.78,0,1,0,1.78,1.78h0A1.78,1.78,0,0,0,84,26.35Z"/>
        <path class="cls-1" d="M84,30.35a1.6,1.6,0,1,0,1.59,1.59A1.6,1.6,0,0,0,84,30.35Z"/>
        <path class="cls-1" d="M84,34.3a1.46,1.46,0,1,0,1.45,1.46h0A1.45,1.45,0,0,0,84,34.3Z"/>
        <path class="cls-1" d="M84,38.25a1.32,1.32,0,1,0,1.32,1.32h0A1.33,1.33,0,0,0,84,38.25Z"/>
        <path class="cls-1" d="M84,42.21a1.18,1.18,0,0,0-1.19,1.17,1.18,1.18,0,1,0,2.36,0h0A1.17,1.17,0,0,0,84,42.21Z"/>
        <path class="cls-1" d="M84,46.22a1,1,0,1,0,1,1A1,1,0,0,0,84,46.22Z"/>
        <path class="cls-1" d="M88.1,26.55a1.59,1.59,0,1,0,1.59,1.58h0A1.59,1.59,0,0,0,88.1,26.55Z"/>
        <path class="cls-1" d="M88.1,30.54A1.41,1.41,0,1,0,89.51,32h0A1.41,1.41,0,0,0,88.1,30.54Z"/>
        <path class="cls-1" d="M88.1,34.5a1.29,1.29,0,1,0,1.28,1.3v0A1.28,1.28,0,0,0,88.1,34.5Z"/>
        <path class="cls-1" d="M88.1,38.43a1.16,1.16,0,1,0,1.16,1.15h0a1.15,1.15,0,0,0-1.15-1.15Z"/>
        <path class="cls-1" d="M88.1,42.43a1,1,0,1,0,1,1v0a1,1,0,0,0-1-1Z"/>
        <path class="cls-1" d="M87.88,46a.73.73,0,0,0-.69.77.73.73,0,0,0,1.45,0A.73.73,0,0,0,88,46Z"/>
        <path class="cls-1" d="M67.62,49.4a1.42,1.42,0,1,0-.21,2.84h.21a1.42,1.42,0,0,0,0-2.84Z"/>
        <path class="cls-1" d="M67.62,53.51a1.09,1.09,0,1,0,1.08,1.1h0A1.1,1.1,0,0,0,67.62,53.51Z"/>
        <path class="cls-1" d="M67.62,57.71a.93.93,0,0,0-.17,1.85h.17a.93.93,0,0,0,0-1.85Z"/>
        <path class="cls-1" d="M71.76,49.73a1.15,1.15,0,1,0,1.16,1.15,1.15,1.15,0,0,0-1.16-1.15Z"/>
        <path class="cls-1" d="M71.76,53.67a1,1,0,1,0,.18,0A.54.54,0,0,0,71.76,53.67Z"/>
        <path class="cls-1" d="M71.76,57.54a.77.77,0,1,0,.77.77A.77.77,0,0,0,71.76,57.54Z"/>
        <path class="cls-1" d="M75.8,49.83a1.08,1.08,0,0,0-1.09,1.08,1.08,1.08,0,0,0,2.16,0h0A1.09,1.09,0,0,0,75.8,49.83Z"/>
        <path class="cls-1" d="M75.8,53.7a.93.93,0,0,0-.93.92.92.92,0,0,0,1.84,0h0A.93.93,0,0,0,75.8,53.7Z"/>
        <path class="cls-1" d="M75.8,56.73a.54.54,0,1,0,0,1.07h0a.54.54,0,0,0,0-1.07Z"/>
        <path class="cls-1" d="M79.9,50.09a.92.92,0,0,0,0,1.84.93.93,0,0,0,.93-.92h0a.91.91,0,0,0-.91-.91Z"/>
        <path class="cls-1" d="M79.9,54a.55.55,0,0,0-.56.53.56.56,0,0,0,.54.56.55.55,0,0,0,.55-.54v0A.53.53,0,0,0,79.9,54Z"/>
        <path class="cls-1" d="M84,50.2a.77.77,0,1,0,.76.77A.76.76,0,0,0,84,50.2Z"/>
        <path class="cls-1" d="M92.21,29.31A1.18,1.18,0,1,0,91,28.13a1.18,1.18,0,0,0,1.18,1.18Z"/>
        <path class="cls-1" d="M92.21,30.9a1.06,1.06,0,1,0,1,1.07v0A1,1,0,0,0,92.21,30.9Z"/>
        <path class="cls-1" d="M92.21,35a.77.77,0,0,0-.77.77.79.79,0,0,0,1.58,0,.77.77,0,0,0-.77-.77Z"/>
        <path class="cls-1" d="M91.52,38.88a.72.72,0,0,0-.64.8.72.72,0,1,0,.79-.8A.38.38,0,0,0,91.52,38.88Z"/>
        <path class="cls-1" d="M63.7,18.44a2,2,0,1,0-2-2,1.95,1.95,0,0,0,2,2Z"/>
        <path class="cls-1" d="M63.7,14.57a1.88,1.88,0,1,0-1.87-1.88h0A1.88,1.88,0,0,0,63.7,14.57Z"/>
        <path class="cls-1" d="M67.62,18.62a1.88,1.88,0,1,0-1.88-1.88h0A1.88,1.88,0,0,0,67.62,18.62Z"/>
        <path class="cls-1" d="M67.62,14.52A1.54,1.54,0,1,0,66.08,13,1.54,1.54,0,0,0,67.62,14.52Z"/>
        <path class="cls-1" d="M71.76,18.3a1.59,1.59,0,1,0-1.58-1.6h0A1.59,1.59,0,0,0,71.76,18.3Z"/>
        <path class="cls-1" d="M71.76,14.27a1.34,1.34,0,0,0,1.36-1.34,1.35,1.35,0,1,0-2.7,0,1.35,1.35,0,0,0,1.34,1.35Z"/>
        <path class="cls-1" d="M75.8,22.14a1.64,1.64,0,1,0-1.64-1.64h0A1.66,1.66,0,0,0,75.8,22.14Z"/>
        <path class="cls-1" d="M75.8,18.11a1.4,1.4,0,0,0,1.38-1.41,1.4,1.4,0,0,0-2.79,0,1.4,1.4,0,0,0,1.38,1.4Z"/>
        <path class="cls-1" d="M75.8,14.16a1.24,1.24,0,1,0-1.25-1.24,1.25,1.25,0,0,0,1.25,1.24Z"/>
        <path class="cls-1" d="M79.9,25.8a1.53,1.53,0,1,0-1.54-1.53A1.53,1.53,0,0,0,79.9,25.8Z"/>
        <path class="cls-1" d="M79.9,21.84a1.41,1.41,0,1,0-1.41-1.4,1.4,1.4,0,0,0,1.41,1.4Z"/>
        <path class="cls-1" d="M79.9,17.86a1.24,1.24,0,1,0-1.24-1.25v0A1.24,1.24,0,0,0,79.9,17.86Z"/>
        <path class="cls-1" d="M79.9,13.89a1.08,1.08,0,1,0-1.08-1.09v0a1.07,1.07,0,0,0,1.08,1.07Z"/>
        <path class="cls-1" d="M84,25.7a1.46,1.46,0,1,0-1.46-1.45h0A1.47,1.47,0,0,0,84,25.7Z"/>
        <path class="cls-1" d="M84,21.75a1.32,1.32,0,1,0-1.31-1.33v0A1.31,1.31,0,0,0,84,21.75Z"/>
        <path class="cls-1" d="M84,17.8a1.18,1.18,0,1,0-1.18-1.19v0A1.18,1.18,0,0,0,84,17.8Z"/>
        <path class="cls-1" d="M84,13.81a1,1,0,1,0-1-1A1,1,0,0,0,84,13.81Z"/>
        <path class="cls-1" d="M88.1,25.52a1.28,1.28,0,1,0-1.28-1.28A1.28,1.28,0,0,0,88.1,25.52Z"/>
        <path class="cls-1" d="M88.1,21.58A1.16,1.16,0,1,0,87,20.41v0A1.15,1.15,0,0,0,88.1,21.58Z"/>
        <path class="cls-1" d="M87.14,16.6a1,1,0,1,0,1-1h0A1,1,0,0,0,87.14,16.6Z"/>
        <path class="cls-1" d="M87.88,14a.73.73,0,0,0,.69-.76.74.74,0,0,0-.77-.69.73.73,0,0,0-.69.73A.77.77,0,0,0,87.88,14Z"/>
        <path class="cls-1" d="M63.7,10.74A1.77,1.77,0,1,0,61.92,9,1.77,1.77,0,0,0,63.7,10.74Z"/>
        <path class="cls-1" d="M63.69,6.73a1.59,1.59,0,1,0-1.6-1.59,1.59,1.59,0,0,0,1.6,1.59Z"/>
        <path class="cls-1" d="M63.69,2.36a1.18,1.18,0,1,0-1.17-1.19v0A1.17,1.17,0,0,0,63.69,2.36Z"/>
        <path class="cls-1" d="M67.62,10.63a1.44,1.44,0,0,0,1.44-1.45,1.45,1.45,0,1,0-2.9,0v0A1.44,1.44,0,0,0,67.62,10.63Z"/>
        <path class="cls-1" d="M67.62,6.68a1.28,1.28,0,1,0-1.29-1.31,1.28,1.28,0,0,0,1.29,1.31Z"/>
        <path class="cls-1" d="M67.62,2.31a.93.93,0,0,0,0-1.86.94.94,0,0,0-.93.91.94.94,0,0,0,.93,1Z"/>
        <path class="cls-1" d="M71.76,10.28a1.15,1.15,0,1,0-1.15-1.15A1.15,1.15,0,0,0,71.76,10.28Z"/>
        <path class="cls-1" d="M71.76,6.31a1,1,0,1,0-1-1v0A1,1,0,0,0,71.76,6.31Z"/>
        <path class="cls-1" d="M71.76,2.45A.77.77,0,1,0,71,1.69.76.76,0,0,0,71.76,2.45Z"/>
        <path class="cls-1" d="M75.8,10.2a1.07,1.07,0,1,0-1.09-1.07,1.08,1.08,0,0,0,1.08,1.07Z"/>
        <path class="cls-1" d="M75.8,6.3a.92.92,0,1,0-.92-.93.91.91,0,0,0,.91.93Z"/>
        <path class="cls-1" d="M75.8,3.25a.54.54,0,0,0,0-1.07.52.52,0,0,0-.54.52h0A.54.54,0,0,0,75.8,3.25Z"/>
        <path class="cls-1" d="M79.9,9.92A.92.92,0,1,0,79,9h0A.92.92,0,0,0,79.9,9.92Z"/>
        <path class="cls-1" d="M79.9,6a.54.54,0,1,0-.54-.54A.54.54,0,0,0,79.9,6Z"/>
        <path class="cls-1" d="M84,9.8A.8.8,0,1,0,83.23,9V9A.76.76,0,0,0,84,9.8Z"/>
        <path class="cls-1" d="M91.56,24.22a.65.65,0,1,0,.65-.64h0A.65.65,0,0,0,91.56,24.22Z"/>
        <path class="cls-1" d="M91.52,21.13a.73.73,0,1,0,0-1.46.74.74,0,0,0-.74.72v0A.74.74,0,0,0,91.52,21.13Z"/>
        <path class="cls-1" d="M59.79,18.62a1.87,1.87,0,1,0,0-3.74,1.86,1.86,0,0,0-1.88,1.86h0A1.87,1.87,0,0,0,59.79,18.62Z"/>
        <path class="cls-1" d="M59.79,14.52A1.54,1.54,0,1,0,58.26,13,1.53,1.53,0,0,0,59.79,14.52Z"/>
        <path class="cls-1" d="M55.65,18.3a1.59,1.59,0,1,0-1.59-1.59,1.6,1.6,0,0,0,1.59,1.59Z"/>
        <path class="cls-1" d="M55.65,14.27a1.35,1.35,0,1,0-1.35-1.35,1.34,1.34,0,0,0,1.35,1.35Z"/>
        <path class="cls-1" d="M51.63,22.14A1.64,1.64,0,1,0,50,20.5h0A1.66,1.66,0,0,0,51.63,22.14Z"/>
        <path class="cls-1" d="M51.63,18.11a1.4,1.4,0,1,0-1.4-1.4h0A1.4,1.4,0,0,0,51.63,18.11Z"/>
        <path class="cls-1" d="M51.63,14.16a1.24,1.24,0,0,0,0-2.47,1.24,1.24,0,1,0,0,2.47Z"/>
        <path class="cls-1" d="M47.53,25.8A1.53,1.53,0,1,0,46,24.27,1.53,1.53,0,0,0,47.53,25.8Z"/>
        <path class="cls-1" d="M47.53,21.84a1.41,1.41,0,1,0-1.4-1.41h0a1.4,1.4,0,0,0,1.39,1.4Z"/>
        <path class="cls-1" d="M47.53,17.86a1.24,1.24,0,1,0-1.24-1.25v0a1.23,1.23,0,0,0,1.24,1.23Z"/>
        <path class="cls-1" d="M47.53,13.89a1.08,1.08,0,1,0-1.08-1.09v0a1.07,1.07,0,0,0,1.08,1.07Z"/>
        <path class="cls-1" d="M43.42,25.7A1.46,1.46,0,1,0,42,24.25h0a1.45,1.45,0,0,0,1.45,1.45Z"/>
        <path class="cls-1" d="M43.42,21.75a1.32,1.32,0,0,0,0-2.63,1.32,1.32,0,0,0-.2,2.63Z"/>
        <path class="cls-1" d="M43.42,17.8a1.18,1.18,0,1,0-1.18-1.18h0A1.19,1.19,0,0,0,43.42,17.8Z"/>
        <path class="cls-1" d="M43.42,13.81a1,1,0,1,0-1-1h0A1,1,0,0,0,43.42,13.81Z"/>
        <path class="cls-1" d="M39.32,25.52a1.28,1.28,0,1,0,0-2.56A1.28,1.28,0,0,0,38,24.24h0A1.27,1.27,0,0,0,39.32,25.52Z"/>
        <path class="cls-1" d="M39.32,21.58a1.16,1.16,0,1,0-1.15-1.17v0A1.15,1.15,0,0,0,39.32,21.58Z"/>
        <path class="cls-1" d="M39.32,17.58a1,1,0,1,0-1-1,1,1,0,0,0,1,1Z"/>
        <path class="cls-1" d="M39.55,14a.71.71,0,0,0,.68-.76.73.73,0,0,0-1.45,0A.77.77,0,0,0,39.55,14Z"/>
        <path class="cls-1" d="M59.79,10.63A1.44,1.44,0,0,0,61.25,9.2a1.45,1.45,0,1,0-2.89,0v0A1.44,1.44,0,0,0,59.79,10.63Z"/>
        <path class="cls-1" d="M59.79,6.68a1.28,1.28,0,0,0,1.3-1.26,1.28,1.28,0,1,0-1.3,1.26Z"/>
        <path class="cls-1" d="M59.79,2.31a.94.94,0,1,0,0-1.87h0a.94.94,0,1,0,0,1.87Z"/>
        <path class="cls-1" d="M55.65,10.28A1.15,1.15,0,1,0,54.5,9.13,1.15,1.15,0,0,0,55.65,10.28Z"/>
        <path class="cls-1" d="M55.65,6.31a1,1,0,1,0-1-1v0A1,1,0,0,0,55.65,6.31Z"/>
        <path class="cls-1" d="M55.65,2.45a.79.79,0,1,0-.79-.79A.79.79,0,0,0,55.65,2.45Z"/>
        <path class="cls-1" d="M51.63,10.2a1.07,1.07,0,1,0-1-1.11v0A1.07,1.07,0,0,0,51.63,10.2Z"/>
        <path class="cls-1" d="M51.63,6.3a.92.92,0,1,0-.92-.93.91.91,0,0,0,.91.93Z"/>
        <path class="cls-1" d="M51.63,3.25a.54.54,0,1,0-.54-.54h0A.54.54,0,0,0,51.63,3.25Z"/>
        <path class="cls-1" d="M47.53,9.92A.92.92,0,0,0,48.45,9a.91.91,0,0,0-.91-.93.92.92,0,0,0-.93.91h0a.92.92,0,0,0,.91.92Z"/>
        <path class="cls-1" d="M47.53,6A.54.54,0,1,0,47,5.44a.54.54,0,0,0,.54.54Z"/>
        <path class="cls-1" d="M43.42,9.8a.81.81,0,1,0-.8-.8A.8.8,0,0,0,43.42,9.8Z"/>
        <path class="cls-1" d="M47.53,26.25a1.88,1.88,0,1,0,1.87,1.88h0A1.88,1.88,0,0,0,47.53,26.25Z"/>
        <path class="cls-1" d="M43.42,26.35a1.78,1.78,0,1,0,1.81,1.78,1.78,1.78,0,0,0-1.81-1.78Z"/>
        <path class="cls-1" d="M39.32,26.55a1.59,1.59,0,1,0,1.58,1.58h0A1.58,1.58,0,0,0,39.32,26.55Z"/>
        <path class="cls-1" d="M35.21,27a1.11,1.11,0,1,0,1.12,1.11A1.11,1.11,0,0,0,35.21,27Z"/>
        <path class="cls-1" d="M35.21,24.87a.65.65,0,1,0-.65-.65h0A.66.66,0,0,0,35.21,24.87Z"/>
        <path class="cls-1" d="M35.9,21.13a.74.74,0,0,0,.65-.8.73.73,0,0,0-1.45,0,.74.74,0,0,0,.65.8Z"/>
      </g>
    </g>
  </g>
</svg>
