<?xml version="1.0" encoding="utf-8"?>
<!-- Generator: Adobe Illustrator 24.2.1, SVG Export Plug-In . SVG Version: 6.00 Build 0)  -->
<svg version="1.1" id="圖層_1" xmlns="http://www.w3.org/2000/svg" xmlns:xlink="http://www.w3.org/1999/xlink" x="0px" y="0px"
	 width="20.1px" height="20px" viewBox="0 0 20.1 20" style="enable-background:new 0 0 20.1 20;" xml:space="preserve">
<style type="text/css">
	.st0{fill:#FFFFFF;}
</style>
<g>
	<path class="st0" d="M16.6,14.6c1.4-1.9,2.1-4.4,1.6-7c-0.7-3.8-3.7-6.8-7.5-7.4c-6-1-11.2,4-10.7,9.9c0.4,4.1,3.6,7.6,7.7,8.2
		c2.6,0.4,5-0.3,6.9-1.7l3.1,3.1c0.5,0.5,1.4,0.5,1.9,0l0,0c0.5-0.5,0.5-1.4,0-1.9L16.6,14.6z M10.5,15.6C5.9,16.4,2,12.5,2.8,7.9
		c0.5-2.5,2.5-4.6,5.1-5.1c4.6-0.9,8.5,3.1,7.6,7.6C15.1,13,13,15.1,10.5,15.6z"/>
	<polygon class="st0" points="12.6,8.3 10.1,8.3 10.1,5.8 8.3,5.8 8.3,8.3 5.8,8.3 5.8,10.1 8.3,10.1 8.3,12.6 10.1,12.6 10.1,10.1 
		12.6,10.1 	"/>
</g>
</svg>
