<?xml version="1.0" encoding="utf-8"?>
<!-- Generator: Adobe Illustrator 24.2.1, SVG Export Plug-In . SVG Version: 6.00 Build 0)  -->
<svg version="1.1" id="圖層_1" xmlns="http://www.w3.org/2000/svg" xmlns:xlink="http://www.w3.org/1999/xlink" x="0px" y="0px"
	 width="52px" height="40px" viewBox="0 0 52 40" style="enable-background:new 0 0 52 40;" xml:space="preserve">
<style type="text/css">
	.st0{fill:#333333;}
</style>
<path class="st0" d="M37,15.3c-0.3-0.9-1-1.6-2-1.9C33.3,13,26.3,13,26.3,13s-7,0-8.8,0.4c-1,0.2-1.7,1-2,1.9C15,17,15,20.5,15,20.5
	s0,3.5,0.5,5.2c0.3,0.9,1,1.6,2,1.9c1.8,0.4,8.8,0.4,8.8,0.4s7,0,8.8-0.4c1-0.2,1.7-1,2-1.9c0.5-1.7,0.5-5.2,0.5-5.2
	S37.5,17,37,15.3z M23.9,23.7v-6.3l5.9,3.2L23.9,23.7z"/>
</svg>
