<?xml version="1.0" encoding="utf-8"?>
<!-- Generator: Adobe Illustrator 24.2.1, SVG Export Plug-In . SVG Version: 6.00 Build 0)  -->
<svg version="1.1" id="圖層_1" xmlns="http://www.w3.org/2000/svg" xmlns:xlink="http://www.w3.org/1999/xlink" x="0px" y="0px"
	 width="26px" height="26px" viewBox="0 0 26 26" style="enable-background:new 0 0 26 26;" xml:space="preserve">
<style type="text/css">
	.st0{fill:#1F323D;}
</style>
<path class="st0" d="M10.6,21.1c2,0,3.9-0.6,5.6-1.6l0.2-0.1l5.5,5.6c0.4,0.4,0.9,0.6,1.4,0.6s1-0.2,1.4-0.6
	c0.4-0.4,0.6-0.9,0.6-1.4s-0.2-1.1-0.6-1.4l-5.5-5.7l0.1-0.2c1.2-1.9,1.8-4.2,1.5-6.5c-0.2-2.3-1.2-4.4-2.8-6.1
	c-1.6-1.7-3.6-2.8-5.9-3.1C9.9,0.2,7.6,0.6,5.6,1.7C3.6,2.8,2,4.6,1.1,6.7C0.2,8.8,0,11.1,0.5,13.3c0.6,2.2,1.8,4.2,3.6,5.6
	C6,20.3,8.2,21.1,10.6,21.1L10.6,21.1z M10.6,4.5c1.2,0,2.5,0.4,3.5,1.1c1,0.7,1.8,1.7,2.3,2.8c0.5,1.1,0.6,2.4,0.4,3.6
	c-0.2,1.2-0.8,2.3-1.7,3.2c-0.9,0.9-2,1.5-3.2,1.7c-1.2,0.2-2.5,0.1-3.6-0.4c-1.1-0.5-2.1-1.3-2.8-2.3S4.3,12,4.3,10.8
	c0-1.7,0.7-3.3,1.8-4.4C7.3,5.2,8.9,4.5,10.6,4.5L10.6,4.5z"/>
</svg>
