<svg width="40" height="40" viewBox="0 0 40 40" fill="none" xmlns="http://www.w3.org/2000/svg">
<path d="M16.5599 30.3126C25.1604 30.3126 29.8906 23.1273 29.8906 16.9037C29.8906 16.7004 29.8906 16.4971 29.8906 16.2938C30.8121 15.6275 31.6065 14.8013 32.2362 13.8544C31.3839 14.2481 30.4772 14.5117 29.5466 14.6363C30.5234 14.0446 31.2537 13.12 31.6029 12.0327C30.6848 12.5796 29.68 12.9657 28.6318 13.1742C27.9868 12.4919 27.1519 12.0189 26.2351 11.8163C25.3183 11.6137 24.3618 11.6909 23.4894 12.0379C22.6169 12.3848 21.8687 12.9856 21.3414 13.7625C20.8141 14.5393 20.5321 15.4565 20.5318 16.3955C20.5312 16.7583 20.5706 17.1201 20.649 17.4744C18.7767 17.3764 16.9464 16.8833 15.2781 16.0276C13.6099 15.1719 12.1416 13.973 10.9696 12.5096C10.3713 13.5417 10.1886 14.7629 10.4587 15.9249C10.7289 17.0869 11.4316 18.1023 12.4239 18.7645C11.6806 18.7426 10.9537 18.5415 10.305 18.1781C10.3012 18.1988 10.3012 18.22 10.305 18.2406C10.2997 19.3272 10.6718 20.3819 11.3577 21.2247C12.0436 22.0674 13.0008 22.646 14.0658 22.8614C13.6626 22.9684 13.2475 23.0236 12.8304 23.0256C12.5401 23.0339 12.2496 23.0155 11.9626 22.9709C12.2583 23.9062 12.8397 24.7252 13.6251 25.3128C14.4105 25.9005 15.3603 26.2271 16.341 26.2469C14.683 27.5517 12.6337 28.2596 10.5239 28.2563C10.1503 28.2591 9.77688 28.2382 9.40588 28.1937C11.5438 29.5778 14.0365 30.3136 16.5834 30.3126" fill="white"/>
</svg>
