<svg width="417" height="54" viewBox="0 0 417 54" fill="none" xmlns="http://www.w3.org/2000/svg">
<path d="M9.87411 24.8234C9.88279 20.9044 11.4435 17.1484 14.2147 14.3772C16.9858 11.6061 20.7418 10.0454 24.6607 10.0367H30.3413V0.0639791C25.7985 0.0352273 24.5293 -0.239971 19.8592 0.626691C19.8121 0.638874 19.764 0.647117 19.7155 0.651334C14.1509 1.79902 9.15181 4.8296 5.56063 9.23253C1.96946 13.6355 0.00567771 19.1416 0 24.8234C0 38.4271 11.0899 49.6239 24.6895 49.6239H49.6214V0.0639791H39.9855V39.6798L24.669 39.6224C20.7464 39.6158 16.9865 38.0544 14.2132 35.2804C11.44 32.5063 9.87954 28.7459 9.87411 24.8234V24.8234Z" fill="white"/>
<path d="M19.3184 25.0868C19.3184 28.2495 21.6843 30.3525 24.847 30.3525H30.355V19.3364H25.0687C23.5436 19.3364 22.081 19.9423 21.0026 21.0207C19.9242 22.0991 19.3184 23.5617 19.3184 25.0868V25.0868Z" fill="#B4C43F"/>
<path d="M66.1468 17.9604H55.0527V49.6942H66.1468V17.9604Z" fill="white"/>
<path d="M55.1595 0.0566406H64.7709V2.84146H57.891V8.32484H64.7709V11.0563H55.1595V0.0566406Z" fill="#B4C43F"/>
<path d="M68.8865 4.11035H59.2751V6.89517H66.155V12.3785H59.2751V15.11H68.8865V4.11035Z" fill="white"/>
<path d="M75.0969 49.3866L80.2641 37.4751H81.7797L86.9016 49.3866H85.0163L83.7841 46.458H78.1282L76.9329 49.3866H75.0969ZM83.1967 44.9917L80.9746 39.385L78.732 44.9752L83.1967 44.9917Z" fill="white"/>
<path d="M93.494 49.2428C92.9828 49.4936 92.4205 49.6229 91.8511 49.6207C91.2782 49.6306 90.7097 49.5186 90.1834 49.2921C89.7043 49.0847 89.2746 48.7781 88.9225 48.3926C88.5622 48.0023 88.283 47.5444 88.101 47.0454C87.9077 46.5193 87.8103 45.9628 87.8134 45.4024C87.808 44.8418 87.9055 44.2849 88.101 43.7594C88.2829 43.2628 88.5622 42.8075 88.9225 42.4204C89.2781 42.0362 89.7104 41.7311 90.1916 41.525C90.7115 41.3066 91.2708 41.1975 91.8346 41.2046C92.4277 41.1892 93.0144 41.3309 93.5351 41.6154C93.9865 41.8606 94.3778 42.2029 94.681 42.6176H94.7139V36.6577H96.2994V49.3907H94.7632V48.1297H94.7262C94.4308 48.6112 94.003 48.9976 93.494 49.2428V49.2428ZM89.6453 46.4744C89.7514 46.8127 89.9232 47.1267 90.1506 47.3986C90.3769 47.6691 90.6566 47.8901 90.9721 48.0476C91.3292 48.2192 91.7219 48.3036 92.118 48.294C92.4865 48.2964 92.8513 48.2199 93.1878 48.0697C93.5243 47.9195 93.8247 47.6991 94.069 47.4232C94.3091 47.1557 94.4959 46.8448 94.6194 46.5073C94.8769 45.8002 94.8769 45.0251 94.6194 44.318C94.4941 43.9776 94.3076 43.663 94.069 43.3898C93.833 43.1207 93.5435 42.9038 93.2188 42.7531C92.875 42.5905 92.4983 42.509 92.118 42.5149C91.7227 42.5047 91.3306 42.5862 90.9721 42.7531C90.6561 42.9045 90.3761 43.1216 90.1506 43.3898C89.9231 43.6632 89.7514 43.9785 89.6453 44.318C89.4208 45.0193 89.4208 45.7731 89.6453 46.4744V46.4744Z" fill="white"/>
<path d="M101.561 41.6319C102.028 41.3281 102.577 41.1721 103.134 41.1842C103.645 41.1781 104.148 41.3071 104.592 41.558C105.058 41.8453 105.416 42.2785 105.611 42.7902C105.861 42.2914 106.255 41.8783 106.74 41.6032C107.183 41.3593 107.675 41.2189 108.179 41.1925C108.683 41.1662 109.187 41.2547 109.653 41.4512C110.008 41.6137 110.323 41.852 110.577 42.1495C110.83 42.4496 111.017 42.7994 111.127 43.1763C111.246 43.5874 111.305 44.0135 111.304 44.4414V49.3908H109.718V44.9589C109.719 44.6477 109.691 44.337 109.636 44.0307C109.587 43.7583 109.489 43.4968 109.349 43.2585C109.217 43.0368 109.032 42.8518 108.81 42.7204C108.548 42.5749 108.252 42.5039 107.952 42.515C107.627 42.5066 107.307 42.586 107.024 42.7451C106.772 42.8894 106.556 43.0905 106.395 43.3324C106.227 43.5824 106.106 43.8607 106.038 44.1539C105.967 44.4582 105.931 44.7697 105.931 45.0822V49.3908H104.346V44.6386C104.35 44.3503 104.322 44.0624 104.264 43.7801C104.215 43.5407 104.117 43.314 103.976 43.1147C103.84 42.9283 103.661 42.7775 103.454 42.6752C103.206 42.561 102.935 42.5061 102.662 42.515C102.38 42.512 102.101 42.5755 101.849 42.7004C101.596 42.8253 101.376 43.0081 101.208 43.2338C100.795 43.7822 100.588 44.4584 100.624 45.1438V49.3867H99.0431V43.1229C99.0431 42.9093 99.0431 42.6341 99.0431 42.3014C99.0431 41.9687 99.0143 41.6689 98.9896 41.4101H100.477C100.501 41.6114 100.518 41.8209 100.53 42.092C100.542 42.3631 100.53 42.5561 100.53 42.7245H100.579C100.8 42.2769 101.139 41.8989 101.561 41.6319V41.6319Z" fill="white"/>
<path d="M115.538 39.2496C115.334 39.438 115.065 39.5409 114.787 39.5372C114.65 39.5403 114.514 39.5157 114.387 39.4649C114.26 39.414 114.144 39.338 114.047 39.2414C113.95 39.1499 113.873 39.039 113.82 38.916C113.768 38.793 113.742 38.6604 113.744 38.5267C113.741 38.3898 113.766 38.2538 113.818 38.1272C113.871 38.0007 113.949 37.8864 114.047 37.7915C114.145 37.6956 114.26 37.6204 114.387 37.5703C114.514 37.5202 114.65 37.4962 114.787 37.4999C115.066 37.4938 115.336 37.5987 115.538 37.7915C115.639 37.8853 115.719 37.9993 115.773 38.1259C115.826 38.2526 115.853 38.3891 115.851 38.5267C115.854 38.6626 115.827 38.7975 115.773 38.9223C115.72 39.047 115.639 39.1587 115.538 39.2496V39.2496ZM113.998 49.3867V41.406H115.58V49.3867H113.998Z" fill="white"/>
<path d="M119.822 42.0876C119.822 42.3382 119.822 42.5517 119.822 42.7201H119.876C119.98 42.4997 120.119 42.2972 120.286 42.1205C120.464 41.9316 120.665 41.7672 120.886 41.6317C121.116 41.4878 121.365 41.3772 121.625 41.3031C121.893 41.2258 122.169 41.1857 122.447 41.184C122.904 41.1731 123.359 41.2629 123.778 41.4469C124.133 41.6093 124.449 41.8476 124.702 42.1451C124.955 42.4452 125.143 42.795 125.252 43.172C125.371 43.5831 125.431 44.0091 125.429 44.437V49.3864H123.889V44.9587C123.89 44.6477 123.865 44.3372 123.815 44.0304C123.772 43.7575 123.677 43.4954 123.535 43.2582C123.401 43.033 123.21 42.8473 122.981 42.7201C122.7 42.5729 122.386 42.5021 122.069 42.5148C121.774 42.5072 121.482 42.5682 121.214 42.6929C120.947 42.8177 120.712 43.0027 120.529 43.2336C120.108 43.7784 119.897 44.4561 119.933 45.1435V49.3864H118.348V43.1227C118.348 42.9091 118.348 42.6339 118.348 42.3012C118.348 41.9685 118.319 41.6687 118.298 41.4099H119.781C119.781 41.607 119.81 41.8494 119.822 42.0876Z" fill="white"/>
<path d="M129.701 39.2496C129.496 39.438 129.227 39.5409 128.949 39.5372C128.812 39.5403 128.676 39.5157 128.549 39.4649C128.422 39.414 128.307 39.338 128.21 39.2414C128.112 39.1499 128.035 39.039 127.983 38.916C127.93 38.793 127.904 38.6604 127.906 38.5267C127.903 38.3898 127.928 38.2538 127.981 38.1272C128.033 38.0007 128.111 37.8864 128.21 37.7915C128.307 37.6956 128.423 37.6204 128.55 37.5703C128.677 37.5202 128.813 37.4962 128.949 37.4999C129.228 37.4938 129.499 37.5987 129.701 37.7915C129.801 37.8853 129.881 37.9993 129.935 38.1259C129.989 38.2526 130.015 38.3891 130.013 38.5267C130.016 38.6626 129.99 38.7975 129.936 38.9223C129.882 39.047 129.802 39.1587 129.701 39.2496V39.2496ZM128.16 49.3867V41.406H129.742V49.3867H128.16Z" fill="white"/>
<path d="M136.055 42.7078C135.721 42.5215 135.344 42.4265 134.962 42.4326C134.781 42.4333 134.601 42.4525 134.424 42.4901C134.255 42.5266 134.093 42.5889 133.944 42.675C133.809 42.7553 133.694 42.8648 133.607 42.9953C133.518 43.1394 133.473 43.3067 133.48 43.4759C133.477 43.6315 133.518 43.7848 133.598 43.9179C133.679 44.0509 133.796 44.1583 133.935 44.2276C134.37 44.4318 134.828 44.5808 135.299 44.6712C135.659 44.7548 136.013 44.8618 136.359 44.9916C136.664 45.1026 136.951 45.2591 137.209 45.4557C137.445 45.6329 137.638 45.8601 137.776 46.1211C137.914 46.4033 137.983 46.7145 137.977 47.0288C137.99 47.4439 137.897 47.8554 137.706 48.2241C137.536 48.5508 137.291 48.8324 136.991 49.0456C136.684 49.2592 136.338 49.4113 135.973 49.4933C135.586 49.5827 135.191 49.6268 134.794 49.6247C134.184 49.6255 133.579 49.5054 133.015 49.2715C132.45 49.0456 131.954 48.6744 131.578 48.1953L132.707 47.2342C132.934 47.565 133.237 47.8368 133.59 48.0269C133.966 48.2398 134.391 48.3503 134.823 48.3473C135.019 48.3478 135.214 48.3271 135.406 48.2857C135.584 48.2506 135.755 48.1853 135.911 48.0926C136.058 48.0056 136.182 47.8845 136.272 47.7394C136.369 47.5711 136.416 47.3788 136.408 47.1849C136.41 47.0106 136.36 46.8395 136.265 46.6933C136.17 46.5471 136.034 46.4323 135.874 46.3634C135.377 46.1346 134.854 45.965 134.317 45.8582C134.05 45.7925 133.775 45.7103 133.496 45.6159C133.227 45.5183 132.975 45.3798 132.748 45.2051C132.522 45.0366 132.336 44.8207 132.202 44.5726C132.05 44.2859 131.977 43.9643 131.988 43.6402C131.98 43.2555 132.07 42.875 132.251 42.5353C132.419 42.2351 132.652 41.9768 132.933 41.7796C133.224 41.5762 133.55 41.4273 133.894 41.3401C134.813 41.0961 135.787 41.164 136.663 41.5331C137.16 41.7317 137.588 42.0716 137.895 42.5107L136.802 43.439C136.619 43.1362 136.362 42.8847 136.055 42.7078V42.7078Z" fill="white"/>
<path d="M141.764 42.6995V46.8603C141.73 47.2265 141.826 47.5929 142.035 47.8954C142.146 48.0074 142.281 48.0935 142.429 48.1475C142.578 48.2014 142.736 48.2219 142.894 48.2075C143.052 48.2063 143.21 48.1898 143.366 48.1582C143.524 48.1276 143.677 48.0765 143.822 48.0063L143.871 49.3042C143.665 49.3735 143.453 49.4271 143.239 49.4644C143.002 49.5025 142.763 49.5217 142.524 49.5219C142.209 49.5428 141.893 49.4981 141.596 49.3906C141.299 49.2831 141.028 49.1153 140.799 48.8976C140.363 48.3765 140.148 47.706 140.199 47.0287V42.6995H138.675V41.4057H140.207V39.1138H141.772V41.4057H143.896V42.6995H141.764Z" fill="white"/>
<path d="M145.502 42.2974C145.502 41.9606 145.477 41.6649 145.453 41.4061H146.952C146.976 41.6074 146.993 41.8415 147.001 42.1044C147.009 42.3672 147.001 42.5849 147.001 42.7533H147.054C147.27 42.2891 147.611 41.8948 148.04 41.6156C148.473 41.3357 148.979 41.1925 149.494 41.2048C149.705 41.2014 149.914 41.2248 150.119 41.2747L150.053 42.741C149.815 42.6821 149.571 42.6531 149.326 42.6548C148.983 42.6466 148.643 42.7183 148.332 42.8642C148.059 42.9979 147.821 43.1917 147.634 43.431C147.444 43.6753 147.305 43.9544 147.223 44.2525C147.132 44.5661 147.086 44.8912 147.087 45.2178V49.4114H145.506V43.123C145.522 42.9094 145.514 42.6342 145.502 42.2974Z" fill="white"/>
<path d="M155.828 42.8969C155.411 42.5999 154.905 42.4549 154.394 42.4862C153.957 42.4833 153.525 42.5729 153.125 42.749C152.751 42.9042 152.411 43.1302 152.123 43.4144L151.301 42.3999C151.717 42.015 152.206 41.7175 152.739 41.525C153.324 41.3085 153.943 41.1999 154.567 41.2046C155.075 41.1932 155.581 41.2768 156.058 41.4511C156.448 41.5938 156.801 41.8211 157.093 42.1165C157.365 42.3998 157.573 42.739 157.701 43.1105C157.838 43.5065 157.907 43.9234 157.902 44.3427V47.8299C157.902 48.1037 157.91 48.3871 157.927 48.6801C157.937 48.9261 157.969 49.1707 158.021 49.4112H156.588C156.498 49.0358 156.453 48.6512 156.452 48.2653H156.403C156.124 48.6825 155.746 49.024 155.302 49.2593C154.814 49.5065 154.272 49.6279 153.725 49.6125C153.393 49.61 153.062 49.5687 152.739 49.4893C152.406 49.409 152.091 49.2699 151.807 49.0785C151.521 48.8817 151.282 48.6235 151.108 48.3228C150.913 47.9673 150.817 47.5659 150.829 47.1604C150.801 46.6349 150.976 46.1189 151.318 45.7187C151.67 45.342 152.11 45.0595 152.599 44.8972C153.176 44.7027 153.775 44.5813 154.382 44.5357C155.043 44.4823 155.713 44.4536 156.386 44.4536V44.2318C156.406 43.9809 156.365 43.729 156.268 43.4969C156.171 43.2648 156.02 43.0591 155.828 42.8969V42.8969ZM154.76 45.6324C154.372 45.6584 153.988 45.7259 153.614 45.8337C153.3 45.9196 153.009 46.0755 152.764 46.2896C152.65 46.3928 152.561 46.5201 152.502 46.6622C152.444 46.8044 152.418 46.9577 152.427 47.1111C152.418 47.3165 152.468 47.5203 152.571 47.6984C152.664 47.8557 152.793 47.9882 152.949 48.0845C153.107 48.188 153.284 48.2605 153.47 48.2981C153.664 48.3362 153.86 48.3554 154.058 48.3556C154.374 48.3755 154.691 48.3262 154.987 48.2113C155.283 48.0964 155.55 47.9186 155.77 47.6902C156.173 47.2269 156.386 46.6282 156.366 46.0144V45.6037H155.98C155.585 45.59 155.179 45.5996 154.76 45.6324V45.6324Z" fill="white"/>
<path d="M162.088 39.2497C161.885 39.4382 161.617 39.5412 161.34 39.5373C161.203 39.5407 161.066 39.5163 160.938 39.4654C160.81 39.4146 160.694 39.3385 160.597 39.2415C160.499 39.15 160.422 39.0391 160.37 38.9161C160.317 38.7931 160.291 38.6605 160.293 38.5268C160.29 38.3899 160.315 38.2539 160.367 38.1274C160.42 38.0008 160.498 37.8865 160.597 37.7916C160.694 37.6952 160.811 37.6197 160.938 37.5696C161.066 37.5195 161.203 37.4958 161.34 37.5C161.478 37.4969 161.615 37.521 161.743 37.5711C161.871 37.6211 161.988 37.6961 162.088 37.7916C162.189 37.885 162.269 37.9988 162.323 38.1256C162.377 38.2524 162.403 38.3891 162.4 38.5268C162.404 38.6628 162.378 38.798 162.324 38.9229C162.27 39.0477 162.189 39.1593 162.088 39.2497V39.2497ZM160.547 49.3868V41.4061H162.129V49.3868H160.547Z" fill="white"/>
<path d="M172.644 47.0781C172.434 47.5817 172.123 48.0373 171.732 48.4171C171.338 48.7995 170.872 49.0984 170.36 49.2961C169.263 49.7069 168.055 49.7069 166.959 49.2961C166.449 49.0993 165.985 48.8001 165.595 48.4171C165.208 48.035 164.901 47.5798 164.692 47.0781C164.254 45.9896 164.254 44.7738 164.692 43.6854C164.901 43.1858 165.211 42.7341 165.6 42.3578C165.99 41.9814 166.452 41.6883 166.959 41.4961C168.054 41.0801 169.264 41.0801 170.36 41.4961C170.869 41.6925 171.336 41.9869 171.732 42.3628C172.121 42.738 172.431 43.1878 172.644 43.6854C173.082 44.7738 173.082 45.9896 172.644 47.0781V47.0781ZM171.144 44.285C171.031 43.9494 170.857 43.6374 170.631 43.365C170.404 43.1005 170.124 42.8864 169.809 42.7365C169.451 42.5793 169.063 42.4982 168.672 42.4982C168.28 42.4982 167.893 42.5793 167.534 42.7365C167.219 42.8864 166.939 43.1005 166.712 43.365C166.486 43.6374 166.312 43.9494 166.199 44.285C165.963 44.9958 165.963 45.7636 166.199 46.4743C166.312 46.8113 166.486 47.1245 166.712 47.3985C166.937 47.669 167.217 47.8876 167.534 48.0392C167.893 48.1964 168.28 48.2776 168.672 48.2776C169.063 48.2776 169.451 48.1964 169.809 48.0392C170.126 47.8876 170.407 47.669 170.631 47.3985C170.857 47.1245 171.031 46.8113 171.144 46.4743C171.38 45.7636 171.38 44.9958 171.144 44.285V44.285Z" fill="white"/>
<path d="M176.64 42.0876C176.64 42.3382 176.64 42.5517 176.64 42.7201H176.693C176.798 42.4997 176.936 42.2972 177.104 42.1205C177.282 41.9326 177.484 41.7683 177.704 41.6317C177.934 41.4886 178.183 41.378 178.443 41.3031C178.71 41.2258 178.987 41.1857 179.265 41.184C179.722 41.1731 180.177 41.2629 180.596 41.4469C180.951 41.6103 181.268 41.8484 181.524 42.1451C181.774 42.4466 181.96 42.796 182.07 43.172C182.189 43.5831 182.248 44.0091 182.247 44.437V49.3864H180.661V44.9587C180.662 44.6477 180.638 44.3372 180.587 44.0304C180.544 43.7575 180.45 43.4954 180.308 43.2582C180.174 43.033 179.983 42.8473 179.753 42.7201C179.474 42.5733 179.161 42.5024 178.846 42.5148C178.55 42.5072 178.257 42.5682 177.989 42.6929C177.721 42.8176 177.486 43.0027 177.301 43.2336C176.881 43.7784 176.669 44.4561 176.706 45.1435V49.3864H175.124V43.1227C175.124 42.9091 175.124 42.6339 175.124 42.3012C175.124 41.9685 175.1 41.6687 175.075 41.4099H176.574C176.611 41.607 176.632 41.8494 176.64 42.0876Z" fill="white"/>
<path d="M191.073 42.6997V49.3865H189.488V42.6997H187.907V41.4058H189.488V39.7382C189.484 39.2977 189.538 38.8586 189.648 38.4321C189.746 38.0529 189.925 37.6996 190.174 37.397C190.423 37.0971 190.74 36.8607 191.098 36.707C191.532 36.5268 192 36.44 192.47 36.4523C192.805 36.4471 193.139 36.4872 193.464 36.5714L193.279 37.9351C193.156 37.9022 193.033 37.8735 192.909 37.853C192.774 37.8276 192.636 37.8152 192.499 37.816C192.245 37.805 191.993 37.8603 191.768 37.9762C191.59 38.0727 191.441 38.2144 191.336 38.3869C191.233 38.5785 191.164 38.7872 191.135 39.003C191.102 39.2398 191.085 39.4786 191.086 39.7177V41.3853H192.938V42.6791L191.073 42.6997Z" fill="white"/>
<path d="M202.147 47.0781C201.937 47.5817 201.627 48.0373 201.235 48.4171C200.842 48.7995 200.375 49.0984 199.863 49.2961C198.767 49.7069 197.559 49.7069 196.462 49.2961C195.952 49.0993 195.488 48.8001 195.099 48.4171C194.712 48.035 194.405 47.5798 194.195 47.0781C193.762 45.9886 193.762 44.7749 194.195 43.6854C194.405 43.1858 194.714 42.7341 195.104 42.3578C195.493 41.9814 195.956 41.6883 196.462 41.4961C197.558 41.0801 198.768 41.0801 199.863 41.4961C200.373 41.6925 200.839 41.9869 201.235 42.3628C201.625 42.738 201.935 43.1878 202.147 43.6854C202.585 44.7738 202.585 45.9896 202.147 47.0781V47.0781ZM200.648 44.285C200.535 43.9494 200.361 43.6374 200.134 43.365C199.907 43.1005 199.627 42.8864 199.313 42.7365C198.954 42.5793 198.567 42.4982 198.175 42.4982C197.783 42.4982 197.396 42.5793 197.037 42.7365C196.723 42.8864 196.443 43.1005 196.216 43.365C195.99 43.6374 195.815 43.9494 195.702 44.285C195.467 44.9958 195.467 45.7636 195.702 46.4743C195.815 46.8113 195.989 47.1245 196.216 47.3985C196.44 47.669 196.72 47.8876 197.037 48.0392C197.396 48.1964 197.783 48.2776 198.175 48.2776C198.567 48.2776 198.954 48.1964 199.313 48.0392C199.63 47.8876 199.91 47.669 200.134 47.3985C200.361 47.1245 200.535 46.8113 200.648 46.4743C200.883 45.7636 200.883 44.9958 200.648 44.285V44.285Z" fill="white"/>
<path d="M204.648 42.2974C204.648 41.9606 204.62 41.6649 204.595 41.4061H206.094C206.119 41.6074 206.135 41.8415 206.143 42.1044C206.152 42.3672 206.143 42.5849 206.143 42.7533H206.197C206.412 42.2891 206.754 41.8948 207.183 41.6156C207.615 41.3357 208.122 41.1925 208.637 41.2048C208.847 41.2014 209.057 41.2248 209.261 41.2747L209.195 42.741C208.957 42.6821 208.713 42.6531 208.468 42.6548C208.125 42.6466 207.785 42.7183 207.474 42.8642C207.202 42.9979 206.963 43.1917 206.776 43.431C206.587 43.6753 206.447 43.9544 206.365 44.2525C206.274 44.5661 206.228 44.8912 206.23 45.2178V49.4114H204.648V43.123C204.665 42.9094 204.657 42.6342 204.648 42.2974Z" fill="white"/>
<path d="M219.148 37.4629C219.922 37.4663 220.693 37.5797 221.435 37.7997C222.188 38.0191 222.892 38.3801 223.51 38.8635C224.139 39.3626 224.65 39.9953 225.005 40.7159C225.408 41.5614 225.605 42.4905 225.58 43.4268C225.602 44.3431 225.405 45.2515 225.005 46.0761C224.647 46.7952 224.137 47.4275 223.51 47.9285C222.891 48.4171 222.188 48.7887 221.435 49.0252C220.696 49.2629 219.924 49.3848 219.148 49.3867H215.04V37.4752L219.148 37.4629ZM218.811 47.9203C219.487 47.9274 220.159 47.8261 220.803 47.6205C221.384 47.4336 221.922 47.135 222.388 46.7415C222.837 46.356 223.191 45.8726 223.423 45.3285C223.678 44.7273 223.804 44.0796 223.793 43.4268C223.807 42.7565 223.681 42.0907 223.423 41.4717C223.192 40.9295 222.838 40.4486 222.388 40.067C221.923 39.6772 221.384 39.3853 220.803 39.2085C220.158 39.0063 219.486 38.9065 218.811 38.9128H216.716V47.9203H218.811Z" fill="white"/>
<path d="M229.342 39.2496C229.139 39.4381 228.871 39.5411 228.594 39.5372C228.457 39.5401 228.32 39.5155 228.193 39.4647C228.065 39.4139 227.949 39.338 227.851 39.2415C227.754 39.1499 227.676 39.039 227.624 38.916C227.572 38.793 227.546 38.6604 227.547 38.5267C227.544 38.3898 227.57 38.2538 227.622 38.1273C227.674 38.0007 227.752 37.8864 227.851 37.7915C227.949 37.6955 228.065 37.6203 228.193 37.5702C228.321 37.5201 228.457 37.4962 228.594 37.4999C228.732 37.4968 228.869 37.5209 228.997 37.571C229.126 37.621 229.243 37.696 229.342 37.7915C229.443 37.8849 229.524 37.9987 229.577 38.1255C229.631 38.2523 229.657 38.389 229.654 38.5267C229.658 38.6627 229.632 38.7979 229.578 38.9228C229.524 39.0476 229.444 39.1592 229.342 39.2496V39.2496ZM227.806 49.3867V41.406H229.387V49.3867H227.806Z" fill="white"/>
<path d="M234.074 51.7074C234.579 51.9385 235.128 52.0589 235.684 52.0606C236.138 52.074 236.59 51.9972 237.015 51.8347C237.35 51.6993 237.647 51.4852 237.881 51.2104C238.104 50.9358 238.265 50.6164 238.354 50.2739C238.451 49.8942 238.497 49.5034 238.493 49.1115V48.0847H238.461C238.17 48.5352 237.755 48.8919 237.265 49.1115C236.759 49.3501 236.206 49.4722 235.647 49.4689C235.083 49.4745 234.524 49.3655 234.004 49.1485C233.522 48.9486 233.088 48.649 232.731 48.2695C232.374 47.8934 232.095 47.4511 231.909 46.9675C231.718 46.4525 231.622 45.9068 231.626 45.3574C231.622 44.8066 231.718 44.2598 231.909 43.7432C232.094 43.2528 232.373 42.8035 232.731 42.4206C233.086 42.0384 233.517 41.7337 233.996 41.5252C234.514 41.302 235.074 41.19 235.639 41.1966C236.208 41.1966 236.769 41.3244 237.282 41.5703C237.796 41.8131 238.226 42.2053 238.514 42.6958H238.547V41.4184H240.079V48.9965C240.08 49.5623 240.007 50.1258 239.861 50.6723C239.721 51.1924 239.467 51.6749 239.118 52.0853C238.745 52.5143 238.278 52.8517 237.754 53.0711C237.091 53.3362 236.381 53.462 235.667 53.4407C234.951 53.4367 234.241 53.3089 233.569 53.0628C232.9 52.8298 232.285 52.4668 231.757 51.9949L232.768 50.7627C233.132 51.1663 233.577 51.4882 234.074 51.7074V51.7074ZM233.433 46.3678C233.547 46.6974 233.724 47.0016 233.955 47.2632C234.187 47.5201 234.466 47.7306 234.776 47.8834C235.125 48.0454 235.505 48.1268 235.889 48.1217C236.272 48.126 236.651 48.0504 237.002 47.8998C237.327 47.7626 237.619 47.5598 237.861 47.3043C238.099 47.0456 238.285 46.7428 238.407 46.413C238.537 46.0592 238.602 45.6849 238.6 45.3081C238.602 44.9406 238.537 44.5758 238.407 44.2319C238.282 43.9006 238.093 43.5966 237.853 43.3365C237.61 43.0774 237.318 42.8693 236.994 42.7245C236.487 42.4911 235.919 42.4238 235.371 42.5322C234.823 42.6407 234.323 42.9192 233.942 43.3283C233.709 43.5881 233.532 43.8928 233.421 44.2237C233.303 44.5731 233.243 44.9394 233.244 45.3081C233.248 45.6693 233.312 46.0275 233.433 46.3678V46.3678Z" fill="white"/>
<path d="M244.346 39.2496C244.144 39.4381 243.876 39.5411 243.599 39.5372C243.462 39.5401 243.325 39.5155 243.197 39.4647C243.069 39.4139 242.953 39.338 242.855 39.2415C242.758 39.1499 242.681 39.039 242.628 38.916C242.576 38.793 242.55 38.6604 242.551 38.5267C242.549 38.3898 242.574 38.2538 242.626 38.1273C242.679 38.0007 242.757 37.8864 242.855 37.7915C242.953 37.6955 243.07 37.6203 243.198 37.5702C243.325 37.5201 243.462 37.4962 243.599 37.4999C243.737 37.4968 243.874 37.5209 244.002 37.571C244.13 37.621 244.247 37.696 244.346 37.7915C244.448 37.8849 244.528 37.9987 244.582 38.1255C244.636 38.2523 244.662 38.389 244.659 38.5267C244.662 38.6627 244.637 38.7979 244.583 38.9228C244.529 39.0476 244.448 39.1592 244.346 39.2496V39.2496ZM242.806 49.3867V41.406H244.388V49.3867H242.806Z" fill="white"/>
<path d="M248.934 42.6995V46.8603C248.9 47.2265 248.996 47.5929 249.206 47.8954C249.317 48.0074 249.451 48.0935 249.6 48.1475C249.748 48.2014 249.907 48.2219 250.064 48.2075C250.223 48.2061 250.381 48.1896 250.536 48.1582C250.693 48.1282 250.845 48.0771 250.988 48.0063L251.042 49.3042C250.835 49.3736 250.624 49.4271 250.409 49.4644C250.173 49.5025 249.934 49.5217 249.694 49.5219C249.379 49.5426 249.062 49.4978 248.764 49.3904C248.467 49.2829 248.195 49.1152 247.965 48.8976C247.531 48.3761 247.317 47.7055 247.369 47.0287V42.6995H245.837V41.4057H247.369V39.1138H248.934V41.4057H251.058V42.6995H248.934Z" fill="white"/>
<path d="M257.12 42.8969C256.704 42.5999 256.198 42.4549 255.687 42.4862C255.25 42.4833 254.817 42.5729 254.418 42.749C254.044 42.9042 253.704 43.1302 253.415 43.4144L252.594 42.3999C253.01 42.015 253.499 41.7174 254.032 41.525C254.616 41.3085 255.236 41.1999 255.859 41.2046C256.367 41.1932 256.873 41.2768 257.35 41.4511C257.74 41.5938 258.094 41.8211 258.385 42.1165C258.658 42.3998 258.865 42.739 258.993 43.1105C259.131 43.5065 259.199 43.9234 259.194 44.3427V47.8299C259.194 48.1037 259.203 48.3871 259.219 48.6801C259.229 48.9261 259.261 49.1707 259.314 49.4112H257.88C257.791 49.0358 257.745 48.6512 257.745 48.2653H257.695C257.404 48.6812 257.013 49.0173 256.558 49.2428C256.069 49.4901 255.527 49.6115 254.98 49.5961C254.648 49.5936 254.317 49.5522 253.995 49.4728C253.662 49.3925 253.346 49.2534 253.062 49.0621C252.776 48.8653 252.538 48.6071 252.364 48.3063C252.169 47.9508 252.072 47.5494 252.085 47.144C252.057 46.6185 252.232 46.1025 252.573 45.7023C252.925 45.3255 253.366 45.0431 253.855 44.8808C254.432 44.6863 255.031 44.5648 255.638 44.5193C256.299 44.4659 256.968 44.4372 257.642 44.4372V44.2154C257.663 43.9702 257.627 43.7234 257.537 43.4946C257.446 43.2657 257.304 43.0611 257.12 42.8969V42.8969ZM256.052 45.6324C255.664 45.6584 255.28 45.7259 254.906 45.8337C254.592 45.9196 254.302 46.0755 254.056 46.2896C253.942 46.3928 253.853 46.5201 253.795 46.6622C253.737 46.8044 253.711 46.9577 253.719 47.1111C253.711 47.3165 253.76 47.5203 253.863 47.6984C253.956 47.8557 254.086 47.9882 254.241 48.0845C254.4 48.188 254.577 48.2605 254.763 48.2981C254.956 48.3362 255.153 48.3554 255.35 48.3556C255.667 48.3755 255.984 48.3262 256.28 48.2113C256.575 48.0964 256.843 47.9186 257.063 47.6902C257.468 47.2279 257.681 46.6285 257.658 46.0144V45.6037H257.272C256.878 45.59 256.471 45.5996 256.052 45.6324V45.6324Z" fill="white"/>
<path d="M261.852 49.3863V36.6533H263.434V49.3863H261.852Z" fill="white"/>
<path d="M270.49 49.3866V37.4751H272.166V49.3866H270.49Z" fill="white"/>
<path d="M276.454 42.0876C276.454 42.3382 276.454 42.5517 276.454 42.7201H276.503C276.609 42.5006 276.747 42.2983 276.914 42.1205C277.195 41.8239 277.533 41.5879 277.908 41.4269C278.283 41.2658 278.687 41.1832 279.095 41.184C279.553 41.1731 280.007 41.2629 280.426 41.4469C280.783 41.6091 281.099 41.8474 281.354 42.1451C281.604 42.4466 281.79 42.796 281.9 43.172C282.021 43.5826 282.081 44.0089 282.077 44.437V49.3864H280.496V44.9587C280.498 44.6475 280.472 44.3369 280.418 44.0304C280.374 43.7583 280.281 43.4965 280.142 43.2582C280.008 43.032 279.815 42.8461 279.584 42.7201C279.305 42.5733 278.991 42.5024 278.676 42.5148C278.381 42.5072 278.089 42.5682 277.821 42.6929C277.554 42.8177 277.319 43.0027 277.136 43.2336C276.714 43.7778 276.501 44.4556 276.536 45.1435V49.3864H274.955V43.1227C274.955 42.9091 274.955 42.6339 274.955 42.3012C274.955 41.9685 274.926 41.6687 274.901 41.4099H276.401C276.425 41.607 276.442 41.8494 276.454 42.0876Z" fill="white"/>
<path d="M289.897 49.2428C289.386 49.4936 288.824 49.6229 288.254 49.6207C287.681 49.6313 287.113 49.5193 286.587 49.2921C286.106 49.0852 285.675 48.7786 285.322 48.3926C284.964 48.0001 284.685 47.5428 284.5 47.0453C284.31 46.5185 284.214 45.9624 284.217 45.4024C284.212 44.8422 284.308 44.2857 284.5 43.7594C284.684 43.2636 284.963 42.8086 285.322 42.4204C285.679 42.0361 286.112 41.731 286.595 41.525C287.115 41.3057 287.674 41.1965 288.238 41.2046C288.831 41.1901 289.417 41.3318 289.938 41.6154C290.388 41.8618 290.778 42.2039 291.08 42.6176H291.117V36.6577H292.703V49.3907H291.171V48.1297H291.138C290.841 48.6129 290.41 48.9995 289.897 49.2428V49.2428ZM286.053 46.4744C286.159 46.8127 286.331 47.1267 286.558 47.3986C286.783 47.6703 287.063 47.8915 287.38 48.0476C287.737 48.2183 288.129 48.3027 288.526 48.294C288.907 48.2978 289.284 48.2164 289.63 48.0558C289.954 47.9044 290.243 47.6893 290.481 47.4232C290.719 47.1555 290.905 46.8446 291.027 46.5073C291.284 45.8002 291.284 45.0251 291.027 44.318C290.903 43.9778 290.718 43.6632 290.481 43.3898C290.243 43.1225 289.954 42.9059 289.63 42.7531C289.285 42.5906 288.907 42.5091 288.526 42.5149C288.13 42.5056 287.738 42.5871 287.38 42.7531C287.063 42.9033 286.783 43.1205 286.558 43.3898C286.331 43.6632 286.159 43.9785 286.053 44.318C285.828 45.0193 285.828 45.7731 286.053 46.4744V46.4744Z" fill="white"/>
<path d="M301.041 48.7046C301.041 48.4541 301.02 48.2405 301.02 48.0721H300.987C300.76 48.5259 300.407 48.904 299.969 49.1605C299.492 49.4565 298.941 49.6103 298.379 49.6041C297.92 49.6163 297.464 49.5309 297.04 49.3536C296.68 49.1973 296.362 48.958 296.112 48.6553C295.867 48.3484 295.685 47.9969 295.574 47.6203C295.453 47.2095 295.394 46.7832 295.397 46.3552V41.4058H296.979V45.8171C296.979 46.1295 297.005 46.4414 297.057 46.7495C297.099 47.0264 297.194 47.2927 297.336 47.534C297.468 47.761 297.66 47.9472 297.89 48.0721C298.17 48.219 298.483 48.2898 298.798 48.2775C299.095 48.2863 299.389 48.2259 299.657 48.1011C299.926 47.9764 300.162 47.7906 300.347 47.5587C300.764 47.0123 300.974 46.3353 300.938 45.6487V41.4058H302.52V47.6695C302.52 47.8831 302.52 48.1583 302.52 48.491C302.52 48.8237 302.548 49.1236 302.573 49.3824H301.074C301.066 49.1852 301.049 48.9593 301.041 48.7046Z" fill="white"/>
<path d="M308.82 42.708C308.485 42.5216 308.107 42.4267 307.724 42.4328C307.543 42.4336 307.362 42.4529 307.186 42.4903C307.017 42.5267 306.855 42.5891 306.705 42.6751C306.571 42.7565 306.456 42.8658 306.368 42.9955C306.284 43.1468 306.245 43.3196 306.257 43.4925C306.254 43.6481 306.295 43.8014 306.376 43.9344C306.457 44.0675 306.574 44.1749 306.713 44.2442C307.148 44.4479 307.606 44.5969 308.077 44.6877C308.437 44.7714 308.791 44.8784 309.137 45.0081C309.442 45.1191 309.728 45.2756 309.987 45.4723C310.223 45.6495 310.416 45.8767 310.554 46.1377C310.694 46.4192 310.763 46.7309 310.755 47.0454C310.768 47.4605 310.675 47.872 310.484 48.2406C310.316 48.5683 310.07 48.8502 309.769 49.0621C309.462 49.2758 309.116 49.4279 308.75 49.5098C308.364 49.5995 307.968 49.6436 307.572 49.6413C306.963 49.642 306.359 49.522 305.797 49.288C305.23 49.0633 304.732 48.6919 304.356 48.2119L305.485 47.2508C305.713 47.5807 306.016 47.8522 306.368 48.0435C306.744 48.2564 307.169 48.3668 307.6 48.3639C307.796 48.3648 307.992 48.3441 308.184 48.3023C308.362 48.2672 308.533 48.2019 308.689 48.1092C308.848 48.0196 308.98 47.887 309.067 47.7265C309.155 47.566 309.196 47.3841 309.186 47.2015C309.189 47.0275 309.14 46.8565 309.046 46.7103C308.951 46.564 308.816 46.4491 308.656 46.38C308.157 46.1511 307.633 45.9815 307.095 45.8748C306.828 45.8091 306.557 45.7269 306.274 45.6325C306.004 45.5338 305.751 45.3954 305.522 45.2217C305.296 45.0532 305.11 44.8373 304.976 44.5892C304.827 44.3013 304.755 43.9804 304.766 43.6568C304.756 43.2724 304.845 42.8919 305.025 42.5519C305.194 42.2526 305.426 41.9945 305.707 41.7961C305.998 41.5928 306.324 41.4439 306.668 41.3566C307.03 41.2612 307.403 41.2128 307.777 41.2129C308.341 41.2157 308.9 41.3302 309.42 41.5497C309.917 41.7489 310.345 42.0886 310.652 42.5273L309.556 43.4555C309.377 43.1488 309.124 42.8918 308.82 42.708V42.708Z" fill="white"/>
<path d="M314.525 42.6995V46.8603C314.491 47.2265 314.587 47.5929 314.797 47.8954C314.908 48.0074 315.043 48.0935 315.191 48.1475C315.339 48.2014 315.498 48.2219 315.655 48.2075C315.814 48.2063 315.972 48.1898 316.127 48.1582C316.285 48.1276 316.439 48.0765 316.583 48.0063L316.633 49.3042C316.426 49.3735 316.215 49.4271 316 49.4644C315.764 49.5025 315.525 49.5217 315.285 49.5219C314.97 49.5428 314.654 49.4981 314.357 49.3906C314.06 49.2831 313.789 49.1153 313.56 48.8976C313.125 48.3765 312.91 47.706 312.961 47.0287V42.6995H311.429V41.4057H312.961V39.1138H314.525V41.4057H316.649V42.6995H314.525Z" fill="white"/>
<path d="M318.267 42.2974C318.267 41.9606 318.239 41.6649 318.214 41.4061H319.713C319.738 41.6074 319.754 41.8415 319.762 42.1044C319.77 42.3672 319.762 42.5849 319.762 42.7533H319.812C320.03 42.2908 320.371 41.8971 320.797 41.6156C321.23 41.3357 321.736 41.1925 322.251 41.2048C322.462 41.2009 322.672 41.2244 322.876 41.2747L322.81 42.741C322.572 42.6821 322.328 42.6531 322.083 42.6548C321.741 42.6466 321.402 42.7183 321.093 42.8642C320.819 42.9978 320.579 43.1916 320.391 43.431C320.201 43.6753 320.062 43.9544 319.98 44.2525C319.889 44.5661 319.843 44.8912 319.844 45.2178V49.4114H318.263V43.123C318.284 42.9094 318.275 42.6342 318.267 42.2974Z" fill="white"/>
<path d="M325.936 39.2495C325.733 39.4383 325.465 39.5414 325.188 39.537C325.051 39.5398 324.914 39.515 324.787 39.4642C324.659 39.4134 324.543 39.3377 324.445 39.2413C324.348 39.1495 324.271 39.0386 324.22 38.9155C324.168 38.7925 324.143 38.66 324.145 38.5266C324.141 38.39 324.166 38.2542 324.218 38.1276C324.269 38.0011 324.347 37.8866 324.445 37.7914C324.648 37.6035 324.914 37.499 325.19 37.499C325.467 37.499 325.733 37.6035 325.936 37.7914C326.037 37.8847 326.117 37.9986 326.171 38.1254C326.225 38.2521 326.251 38.3889 326.248 38.5266C326.252 38.6626 326.226 38.7977 326.172 38.9226C326.118 39.0475 326.037 39.1591 325.936 39.2495V39.2495ZM324.395 49.3866V41.4059H325.973V49.3866H324.395Z" fill="white"/>
<path d="M336.184 45.5995C336.19 45.6884 336.19 45.7776 336.184 45.8665H329.834C329.845 46.1964 329.923 46.5207 330.064 46.8194C330.201 47.111 330.392 47.3743 330.627 47.5957C330.867 47.8149 331.145 47.9888 331.448 48.1091C331.762 48.2334 332.096 48.2962 332.434 48.2939C332.923 48.3057 333.406 48.1836 333.83 47.9407C334.2 47.7252 334.517 47.4307 334.758 47.0781L335.868 47.9735C335.476 48.5035 334.957 48.927 334.36 49.2058C333.213 49.6966 331.921 49.7304 330.75 49.3002C330.251 49.1123 329.796 48.8219 329.417 48.4476C329.037 48.0734 328.739 47.6236 328.544 47.1274C328.325 46.5819 328.216 45.9984 328.224 45.4105C328.217 44.8249 328.323 44.2434 328.536 43.6977C328.728 43.196 329.024 42.74 329.403 42.3587C329.778 41.9849 330.225 41.6902 330.717 41.4921C331.239 41.2808 331.797 41.1747 332.36 41.1799C332.904 41.1744 333.445 41.2719 333.953 41.4674C334.42 41.6458 334.841 41.9265 335.186 42.2889C335.528 42.6665 335.788 43.1114 335.95 43.5951C336.138 44.1504 336.229 44.7339 336.221 45.3202L336.184 45.5995ZM334.426 43.8045C334.338 43.5412 334.198 43.2982 334.015 43.0899C333.822 42.8826 333.586 42.7188 333.325 42.6093C333.017 42.4849 332.687 42.4248 332.356 42.4327C332.031 42.4297 331.709 42.4897 331.407 42.6093C331.12 42.7197 330.857 42.8827 330.631 43.0899C330.41 43.2941 330.228 43.5361 330.093 43.8045C329.953 44.0798 329.869 44.3799 329.846 44.6876H334.598C334.586 44.3862 334.528 44.0884 334.426 43.8045V43.8045Z" fill="white"/>
<path d="M341.942 42.7078C341.609 42.5214 341.232 42.4265 340.85 42.4326C340.669 42.4333 340.489 42.4525 340.312 42.4901C340.143 42.5266 339.981 42.5889 339.831 42.675C339.696 42.7553 339.581 42.8648 339.494 42.9953C339.405 43.1394 339.361 43.3066 339.367 43.4759C339.364 43.6315 339.405 43.7848 339.486 43.9178C339.567 44.0509 339.684 44.1583 339.823 44.2276C340.257 44.4326 340.715 44.5816 341.187 44.6712C341.546 44.7548 341.901 44.8618 342.246 44.9915C342.551 45.1044 342.837 45.2607 343.097 45.4557C343.341 45.637 343.539 45.8746 343.673 46.1484C343.807 46.4222 343.872 46.7242 343.865 47.0288C343.878 47.4438 343.785 47.8554 343.594 48.2241C343.423 48.5499 343.178 48.8312 342.879 49.0455C342.571 49.2585 342.225 49.4105 341.86 49.4932C341.474 49.5827 341.078 49.6268 340.681 49.6247C340.071 49.6254 339.467 49.5054 338.903 49.2715C338.337 49.0466 337.841 48.6752 337.465 48.1953L338.591 47.2342C338.82 47.5642 339.124 47.8358 339.478 48.0269C339.854 48.2398 340.278 48.3503 340.71 48.3473C340.905 48.348 341.099 48.3273 341.289 48.2857C341.468 48.2513 341.639 48.186 341.795 48.0926C341.944 48.007 342.069 47.8856 342.16 47.7394C342.253 47.57 342.299 47.3782 342.292 47.1849C342.294 47.0109 342.246 46.8399 342.151 46.6937C342.057 46.5475 341.921 46.4325 341.762 46.3634C341.264 46.1346 340.742 45.965 340.205 45.8582C339.934 45.7925 339.663 45.7103 339.383 45.6159C339.115 45.5183 338.862 45.3798 338.636 45.2051C338.41 45.0356 338.222 44.82 338.086 44.5726C337.937 44.2847 337.865 43.9638 337.876 43.6402C337.865 43.2552 337.956 42.8742 338.139 42.5353C338.305 42.2343 338.538 41.9757 338.821 41.7796C339.111 41.577 339.435 41.4281 339.778 41.3401C340.141 41.2446 340.515 41.1963 340.891 41.1963C341.455 41.1995 342.014 41.314 342.534 41.5331C343.031 41.7317 343.46 42.0715 343.766 42.5107L342.673 43.4389C342.493 43.139 342.242 42.888 341.942 42.7078V42.7078Z" fill="white"/>
<path d="M357.834 47.0781C357.622 47.5826 357.311 48.0392 356.918 48.4204C356.526 48.8015 356.061 49.0994 355.55 49.2961C354.454 49.7069 353.246 49.7069 352.149 49.2961C351.639 49.0993 351.175 48.8001 350.785 48.4171C350.399 48.035 350.091 47.5798 349.882 47.0781C349.444 45.9896 349.444 44.7738 349.882 43.6854C350.092 43.1858 350.401 42.7341 350.791 42.3578C351.18 41.9814 351.643 41.6883 352.149 41.4961C353.245 41.0801 354.455 41.0801 355.55 41.4961C356.059 41.6935 356.525 41.9878 356.922 42.3628C357.31 42.7393 357.62 43.1888 357.834 43.6854C358.266 44.7749 358.266 45.9886 357.834 47.0781V47.0781ZM356.335 44.285C356.222 43.9494 356.047 43.6374 355.821 43.365C355.594 43.1005 355.314 42.8864 355 42.7365C354.641 42.5793 354.254 42.4982 353.862 42.4982C353.47 42.4982 353.083 42.5793 352.724 42.7365C352.409 42.8856 352.129 43.0998 351.903 43.365C351.675 43.6364 351.501 43.9486 351.389 44.285C351.154 44.9958 351.154 45.7636 351.389 46.4743C351.501 46.812 351.675 47.1255 351.903 47.3985C352.126 47.6699 352.406 47.8887 352.724 48.0392C353.083 48.1964 353.47 48.2776 353.862 48.2776C354.254 48.2776 354.641 48.1964 355 48.0392C355.317 47.8876 355.597 47.669 355.821 47.3985C356.048 47.1245 356.222 46.8113 356.335 46.4743C356.57 45.7636 356.57 44.9958 356.335 44.285V44.285Z" fill="white"/>
<path d="M362.253 42.6997V49.3866H360.668V42.6997H359.087V41.4059H360.668V39.7383C360.664 39.2978 360.718 38.8587 360.828 38.4322C360.926 38.0538 361.104 37.7009 361.35 37.3971C361.601 37.098 361.919 36.8618 362.278 36.707C362.712 36.5265 363.18 36.4397 363.65 36.4524C363.985 36.4471 364.319 36.4872 364.644 36.5715L364.459 37.9351C364.336 37.9023 364.213 37.8736 364.089 37.853C363.954 37.8278 363.816 37.8154 363.679 37.816C363.425 37.8045 363.173 37.8598 362.948 37.9762C362.778 38.0756 362.636 38.2171 362.537 38.387C362.433 38.5786 362.365 38.7873 362.336 39.0031C362.302 39.2398 362.286 39.4787 362.286 39.7178V41.3854H364.139V42.6792L362.253 42.6997Z" fill="white"/>
<path d="M372.703 41.632C373.17 41.3275 373.718 41.1715 374.276 41.1843C374.786 41.1788 375.289 41.3077 375.734 41.5581C376.2 41.8454 376.558 42.2786 376.752 42.7903C377.003 42.2915 377.396 41.8783 377.882 41.6033C378.324 41.3594 378.816 41.219 379.321 41.1926C379.825 41.1663 380.329 41.2548 380.794 41.4513C381.15 41.6138 381.465 41.8521 381.718 42.1496C381.97 42.4507 382.157 42.8002 382.269 43.1764C382.388 43.5875 382.447 44.0135 382.445 44.4415V49.3909H380.86V44.959C380.86 44.6478 380.833 44.3371 380.778 44.0308C380.728 43.7584 380.631 43.4969 380.49 43.2586C380.359 43.0369 380.174 42.8519 379.952 42.7205C379.69 42.575 379.393 42.504 379.094 42.5151C378.769 42.5066 378.448 42.5861 378.165 42.7451C377.913 42.8906 377.697 43.0914 377.533 43.3325C377.368 43.5835 377.248 43.8616 377.18 44.154C377.109 44.4583 377.073 44.7698 377.073 45.0822V49.3909H375.487V44.6386C375.489 44.3504 375.462 44.0628 375.405 43.7802C375.357 43.5408 375.259 43.3141 375.118 43.1148C374.982 42.9284 374.803 42.7776 374.596 42.6753C374.348 42.561 374.076 42.5062 373.803 42.5151C373.522 42.5121 373.243 42.5756 372.99 42.7005C372.738 42.8254 372.518 43.0081 372.349 43.2339C371.936 43.7822 371.73 44.4585 371.766 45.1439V49.3868H370.185V43.123C370.185 42.9094 370.185 42.6342 370.185 42.3015C370.185 41.9688 370.156 41.669 370.131 41.4102H371.631C371.655 41.6115 371.672 41.821 371.684 42.0921C371.696 42.3632 371.684 42.5562 371.684 42.7246H371.733C371.95 42.2786 372.286 41.9007 372.703 41.632Z" fill="white"/>
<path d="M392.874 47.0781C392.666 47.5815 392.357 48.0372 391.966 48.4171C391.572 48.7988 391.106 49.0976 390.595 49.2961C389.498 49.7069 388.29 49.7069 387.194 49.2961C386.684 49.0993 386.22 48.8001 385.83 48.4171C385.443 48.035 385.136 47.5798 384.926 47.0781C384.488 45.9896 384.488 44.7738 384.926 43.6854C385.136 43.1858 385.445 42.7341 385.835 42.3578C386.225 41.9814 386.687 41.6883 387.194 41.4961C388.289 41.0801 389.499 41.0801 390.595 41.4961C391.104 41.6935 391.57 41.9878 391.966 42.3628C392.355 42.7382 392.663 43.188 392.874 43.6854C393.312 44.7738 393.312 45.9896 392.874 47.0781V47.0781ZM391.379 44.285C391.266 43.9484 391.091 43.6362 390.862 43.365C390.636 43.0992 390.356 42.8849 390.04 42.7365C389.681 42.5793 389.294 42.4982 388.902 42.4982C388.511 42.4982 388.123 42.5793 387.765 42.7365C387.449 42.8856 387.169 43.0998 386.943 43.365C386.715 43.6364 386.541 43.9486 386.43 44.285C386.194 44.9958 386.194 45.7636 386.43 46.4743C386.541 46.812 386.715 47.1255 386.943 47.3985C387.166 47.6699 387.447 47.8887 387.765 48.0392C388.123 48.1964 388.511 48.2776 388.902 48.2776C389.294 48.2776 389.681 48.1964 390.04 48.0392C390.358 47.8891 390.639 47.6702 390.862 47.3985C391.091 47.1257 391.266 46.8122 391.379 46.4743C391.615 45.7636 391.615 44.9958 391.379 44.285V44.285Z" fill="white"/>
<path d="M400.522 49.2428C400.011 49.4936 399.448 49.6229 398.879 49.6207C398.306 49.631 397.738 49.5189 397.211 49.2921C396.732 49.0847 396.303 48.7781 395.95 48.3926C395.59 48.0023 395.311 47.5444 395.129 47.0453C394.936 46.5193 394.838 45.9628 394.841 45.4024C394.836 44.8418 394.933 44.2849 395.129 43.7594C395.311 43.2628 395.59 42.8075 395.95 42.4204C396.306 42.0362 396.738 41.7311 397.22 41.525C397.739 41.3066 398.299 41.1975 398.863 41.2046C399.456 41.1901 400.042 41.3318 400.563 41.6154C401.014 41.8606 401.406 42.2029 401.709 42.6176H401.742V36.6577H403.323V49.3907H401.791V48.1297H401.758C401.462 48.6118 401.032 48.9983 400.522 49.2428V49.2428ZM396.673 46.4744C396.779 46.8127 396.951 47.1267 397.179 47.3986C397.405 47.6691 397.685 47.8901 398 48.0476C398.357 48.2192 398.75 48.3036 399.146 48.294C399.514 48.2964 399.879 48.2199 400.216 48.0697C400.552 47.9195 400.853 47.6991 401.097 47.4232C401.337 47.1557 401.524 46.8448 401.647 46.5073C401.905 45.8002 401.905 45.0251 401.647 44.318C401.522 43.9776 401.336 43.663 401.097 43.3898C400.861 43.1207 400.571 42.9038 400.247 42.7531C399.903 42.5905 399.526 42.509 399.146 42.5149C398.751 42.5047 398.359 42.5862 398 42.7531C397.684 42.9045 397.404 43.1216 397.179 43.3898C396.951 43.6632 396.779 43.9785 396.673 44.318C396.449 45.0193 396.449 45.7731 396.673 46.4744Z" fill="white"/>
<path d="M410.515 42.8969C410.1 42.5999 409.595 42.4548 409.086 42.4862C408.648 42.4828 408.214 42.5724 407.812 42.749C407.439 42.9052 407.099 43.131 406.81 43.4144L405.989 42.3999C406.407 42.0158 406.897 41.7185 407.431 41.525C408.014 41.3085 408.632 41.1999 409.254 41.2046C409.762 41.1932 410.268 41.2768 410.745 41.4511C411.135 41.5938 411.488 41.8211 411.78 42.1165C412.053 42.3998 412.26 42.739 412.388 43.1105C412.526 43.5065 412.594 43.9234 412.589 44.3427V47.8299C412.589 48.1037 412.598 48.3871 412.614 48.6801C412.626 48.9259 412.658 49.1704 412.708 49.4112H411.275C411.189 49.0353 411.145 48.651 411.144 48.2653H411.09C410.811 48.6825 410.433 49.024 409.989 49.2593C409.503 49.5058 408.962 49.6272 408.416 49.6125C408.084 49.6105 407.753 49.5691 407.431 49.4893C407.096 49.4102 406.779 49.271 406.494 49.0785C406.208 48.8817 405.969 48.6235 405.796 48.3228C405.6 47.9673 405.504 47.5659 405.516 47.1604C405.489 46.6349 405.664 46.1189 406.005 45.7187C406.357 45.342 406.798 45.0595 407.287 44.8972C407.863 44.7027 408.462 44.5813 409.069 44.5357C409.735 44.4823 410.4 44.4536 411.074 44.4536V44.2318C411.094 43.9808 411.054 43.7286 410.957 43.4963C410.86 43.264 410.708 43.0585 410.515 42.8969V42.8969ZM409.447 45.6324C409.059 45.6584 408.675 45.7259 408.301 45.8337C407.988 45.9214 407.698 46.0771 407.451 46.2896C407.337 46.3928 407.248 46.5201 407.19 46.6622C407.131 46.8044 407.106 46.9577 407.114 47.1111C407.107 47.3163 407.157 47.5195 407.258 47.6984C407.352 47.8548 407.482 47.9871 407.636 48.0845C407.795 48.1873 407.972 48.2597 408.158 48.2981C408.352 48.3362 408.55 48.3554 408.749 48.3556C409.065 48.3754 409.382 48.3261 409.677 48.2112C409.972 48.0963 410.238 47.9185 410.458 47.6902C410.862 47.2279 411.075 46.6285 411.053 46.0144V45.6037H410.667C410.273 45.59 409.866 45.5996 409.447 45.6324V45.6324Z" fill="white"/>
<path d="M104.966 10.4897H103.064C102.276 16.0894 101.03 20.6171 99.3264 24.0728C100.879 27.0849 102.814 29.2755 105.13 30.6447C104.467 31.2243 103.893 31.8983 103.426 32.645C101.118 31.0664 99.2265 28.9525 97.9135 26.4839C96.2581 28.968 94.1023 31.0791 91.584 32.6819C91.2018 31.9413 90.7285 31.2514 90.1751 30.6282C92.8848 29.0331 95.1339 26.7615 96.7018 24.0359C95.5203 21.1483 94.6407 18.1462 94.0771 15.0776C93.5705 16.3588 92.9449 17.5896 92.2083 18.7538C91.775 18.2567 91.3025 17.7951 90.7953 17.3737V20.1954H83.057C82.7284 20.8526 82.3669 21.5372 81.9726 22.2491C84.2043 22.2272 87.7367 22.1725 92.5697 22.0849L92.4712 23.9907L88.9922 24.0564C88.5306 25.7412 87.624 27.2706 86.3675 28.4842C87.6007 29.0954 88.7955 29.7812 89.9451 30.5379L88.3679 32.0781C87.1579 31.2778 85.8986 30.5549 84.5973 29.9136C82.6504 31.1622 79.8081 32.1138 76.0703 32.7682C75.8859 32.0559 75.562 31.3871 75.1174 30.8008C78.2007 30.4283 80.6391 29.7725 82.4327 28.8333C81.0526 28.2213 79.9189 27.749 79.0194 27.4204L78.4649 28.3733L76.4112 27.749C77.0027 26.8097 77.7037 25.6391 78.5142 24.2371L74.3452 24.307L74.2795 22.3354C76.4893 22.3354 78.25 22.3244 79.5616 22.3025C79.6725 22.0848 79.8368 21.7809 80.0545 21.3866C80.3379 20.8403 80.5474 20.446 80.6788 20.2037H75.7253V14.6258H82.022V13.0938H76.5755V9.48745H74.2466V7.61858H76.5755V4.04105H82.022V1.98735H84.1866V4.04105H89.9944V7.61858H92.3561V9.48745H89.9944V13.0938H84.1866V14.6381H90.7584V16.3427C92.6204 13.0568 93.9896 8.26481 94.8658 1.9668L97.2276 2.32825C96.8743 4.69137 96.5238 6.62596 96.176 8.13201H104.933L104.966 10.4897ZM77.857 16.2975V18.5278H82.022V16.2975H77.857ZM82.022 5.76614H78.7073V7.67198H82.0547L82.022 5.76614ZM78.7073 11.344H82.0547V9.39709H78.7073V11.344ZM86.7126 24.1057L80.9622 24.2043C80.8513 24.422 80.6664 24.7506 80.4036 25.1859C80.2269 25.494 80.0955 25.7117 79.9928 25.8431C81.414 26.3251 82.8571 26.8933 84.322 27.5477C85.3775 26.607 86.1917 25.4265 86.6961 24.1057H86.7126ZM87.8298 5.76614H84.2194V7.67198H87.8298V5.76614ZM84.2194 11.344H87.8298V9.39709H84.2194V11.344ZM88.6144 18.5278V16.2975H84.2194V18.5278H88.6144ZM100.653 10.4897H95.6009C95.5599 10.6868 95.527 10.8306 95.5024 10.9004C95.9788 14.4309 96.8481 17.8971 98.0942 21.2346C99.288 18.2937 100.136 14.7121 100.637 10.4897H100.653Z" fill="white"/>
<path d="M115.961 2.06494L118.257 2.82069C117.288 5.1962 116.147 7.49828 114.844 9.7088V32.5377H112.482V13.3151C111.374 14.8624 110.146 16.3208 108.81 17.6772C108.4 16.8156 107.917 15.9911 107.365 15.2127C110.297 12.5018 112.769 9.03657 114.778 4.8169C115.218 3.88042 115.608 2.96035 115.961 2.06494ZM130.818 28.7343H138.856V31.096H116.812V28.7343H128.407C130.089 23.9645 131.406 19.0735 132.346 14.1037C132.432 13.6642 132.51 13.2494 132.572 12.8715L135.229 13.3315C134.083 18.5531 132.609 23.6975 130.818 28.7343V28.7343ZM117.633 8.57927H126.324V2.36066H128.85V8.57927H138.002V10.9082H117.633V8.57927ZM125.343 26.6518L122.915 27.1735C122.554 23.0213 121.841 18.9073 120.783 14.8759C120.652 14.4159 120.529 13.9764 120.422 13.5615L122.619 13.1508C123.851 17.3156 124.74 21.5741 125.277 25.8837C125.297 26.1425 125.318 26.3931 125.343 26.6518Z" fill="white"/>
<path d="M146.405 22.6636H154.374C154.374 22.6882 154.341 23.0127 154.275 23.6494C153.925 27.8006 153.455 30.3486 152.866 31.2933C152.771 31.441 152.661 31.5787 152.538 31.704C151.914 32.2315 151.124 32.5223 150.307 32.5255C149.018 32.5707 147.531 32.5255 145.847 32.4598C145.801 31.6921 145.539 30.953 145.091 30.328C146.559 30.4595 148.013 30.5252 149.453 30.5252C149.885 30.5589 150.316 30.4555 150.685 30.2295C151.186 29.7283 151.597 27.8471 151.918 24.5859H145.982L145.752 25.5388L143.654 25.128C144.374 22.3295 144.921 19.8035 145.296 17.5499H152.02V14.1079H146.151V13.7793C145.057 14.3345 143.928 14.8161 142.77 15.221C142.416 14.546 141.963 13.9273 141.427 13.385C143.754 12.6823 145.956 11.6193 147.954 10.2346C146.825 9.13099 145.569 8.16579 144.212 7.35945L145.658 5.94651C147.095 6.80999 148.446 7.80995 149.691 8.93257C150.905 7.89925 151.976 6.70854 152.875 5.39199H145.071V3.33829H154.189L154.6 3.23972L156.14 4.02833C154.719 7.17734 152.368 9.85674 149.088 12.0665H154.283V20.1006H152.02V19.4804H147.034C146.968 19.8911 146.849 20.4744 146.672 21.2835C146.56 21.9215 146.471 22.3816 146.405 22.6636ZM167.788 21.5505L169.169 22.105C168.278 24.5797 166.751 26.7757 164.741 28.4715C166.929 29.5452 169.278 30.2542 171.695 30.5703C171.099 31.1744 170.6 31.8672 170.216 32.624C167.588 32.18 165.071 31.233 162.802 29.8351C160.526 31.1732 158.045 32.1266 155.458 32.6569C155.196 31.9845 154.817 31.3631 154.341 30.8209C156.679 30.4156 158.938 29.6406 161.032 28.5249C159.541 27.2267 158.326 25.6429 157.458 23.8671L158.834 23.4563H156.243V21.6532H167.366L167.788 21.5505ZM169.76 5.53166L171.596 6.80905C170.149 8.15106 168.591 9.36844 166.938 10.4482C168.725 11.4883 170.644 12.2827 172.643 12.81C172.052 13.4019 171.534 14.064 171.103 14.7815C169.43 14.2924 167.822 13.6028 166.314 12.7278V17.2049C166.314 17.6896 166.367 17.973 166.478 18.0592C166.647 18.1579 166.842 18.2037 167.037 18.1907H168.019C168.261 18.1977 168.504 18.1756 168.741 18.1249C168.926 18.0216 169.07 17.8597 169.152 17.6649C169.193 17.4267 169.238 16.8434 169.284 15.9275C169.812 16.3674 170.426 16.6919 171.087 16.8804C171 18.0592 170.877 18.7944 170.725 19.0779C170.482 19.4428 170.125 19.7182 169.711 19.8624C169.228 19.9856 168.73 20.0409 168.232 20.0267H166.589C165.928 20.0416 165.278 19.86 164.72 19.505C164.348 19.0861 164.162 18.255 164.162 17.0118V13.9929H159.623V14.6172C159.601 17.4814 158.387 19.6132 155.98 21.0124C155.517 20.4184 154.977 19.8892 154.374 19.4393C156.386 18.1907 157.426 16.5614 157.491 14.5515V11.9597H165.069C161.521 9.67891 158.706 6.42114 156.966 2.57843L158.933 1.9541C159.609 3.42778 160.493 4.7971 161.558 6.02044C163.07 4.85935 164.485 3.57627 165.788 2.18411L167.657 3.49438C166.138 4.90555 164.515 6.20031 162.802 7.36765C163.569 8.0993 164.393 8.76822 165.267 9.36795C166.873 8.22604 168.376 6.94655 169.76 5.54396V5.53166ZM166.248 23.4399H159.524C160.347 24.9667 161.502 26.289 162.905 27.3091C164.28 26.2747 165.419 24.9601 166.248 23.4522V23.4399Z" fill="white"/>
<path d="M202.237 22.7621L204.106 24.0764C202.414 25.3353 200.629 26.464 198.767 27.4527C200.988 29.0581 203.546 30.1355 206.246 30.6031C205.623 31.2004 205.122 31.9133 204.772 32.7019C198.693 31.1685 194.505 27.7895 192.207 22.5649H188.075V28.9601L195.16 27.8142L195.259 30.0116L186.223 31.5519H186.091L186.058 31.5847H185.894L185.861 31.6176H185.697L185.664 31.6504H185.5L185.467 31.6833H185.303L185.27 31.7162H185.138L185.073 31.749H184.908L184.875 31.7819H184.744L184.711 31.8148H184.514L184.481 31.8476H184.317L184.284 31.8805H184.152L184.124 31.9133H183.927L183.894 31.9462H183.762L183.729 31.979H183.565L183.532 32.0119H183.368L183.335 32.0448H183.204L183.171 32.0776H182.974L182.941 32.1105H182.777L182.744 32.1433H182.579L182.546 32.1762H182.382L182.349 32.2091H182.284L181.873 29.8802C182.247 29.835 183.516 29.6419 185.713 29.2887V22.5649H181.483V20.4003H187.553V16.9911H182.534V14.8266H187.553V11.7748H181.392V13.3479C181.368 22.0501 180.044 28.485 177.42 32.6527C176.776 32.1068 176.044 31.6736 175.256 31.3711C177.531 27.784 178.735 22.4157 178.866 15.266V3.57227H203.893V11.7871H198.906V14.8389H204.55V17.0035H198.906V20.4126H205.889V22.5772H194.536C195.25 23.8965 196.157 25.1022 197.226 26.1547C198.975 25.1447 200.65 24.0109 202.237 22.7621ZM181.392 5.76971V9.57728H201.465V5.76971H181.392ZM189.854 11.7748V14.8266H196.59V11.7748H189.854ZM189.854 16.9911V20.4003H196.59V16.9911H189.854Z" fill="white"/>
<path d="M209.359 17.2047V14.9086H226.611V17.2047H209.359ZM226.163 5.70397V7.87269H210.251V5.70397H216.975V2.09766H219.336V5.70397H226.163ZM211.631 32.6691V20.1045H224.75V32.4719H222.322V30.6688H213.927V32.6691H211.631ZM215.927 14.005L213.763 14.4979C213.537 12.6202 213.039 10.7854 212.284 9.05151L214.387 8.64077C215.187 10.3332 215.705 12.1453 215.919 14.005H215.927ZM222.322 22.302H213.927V28.5042H222.322V22.302ZM222.027 14.5965L220.026 14.1036C220.795 12.2373 221.42 10.3149 221.895 8.35325L224.257 8.94471C223.115 11.9869 222.369 13.8709 222.018 14.5965H222.027ZM238.263 3.8351L240.071 5.01804C238.058 9.59095 236.505 12.9467 235.413 15.0853C238.189 17.6675 239.6 20.3797 239.643 23.222C239.619 25.3853 239.071 26.8393 238 27.5841C237.338 28.0096 236.583 28.2689 235.799 28.3399C234.83 28.4314 233.855 28.4534 232.883 28.4056C232.849 27.5279 232.601 26.6719 232.16 25.9124C233.043 25.9997 233.931 26.0217 234.817 25.9781C235.318 25.9627 235.81 25.8395 236.259 25.6166C236.871 25.2059 237.179 24.3393 237.179 22.9592C237.154 20.4263 235.711 17.9221 232.85 15.4467C233.964 13.1767 235.265 10.1263 236.752 6.29543H230.389V32.6362H227.962V3.93368H237.82L238.263 3.8351Z" fill="white"/>
<path d="M281.432 10.4936H279.53C278.742 16.0933 277.494 20.621 275.788 24.0767C277.341 27.0888 279.277 29.2795 281.596 30.6486C280.932 31.2281 280.356 31.9021 279.888 32.6489C277.581 31.0701 275.691 28.9561 274.38 26.4878C272.728 28.977 270.575 31.0937 268.058 32.7023C267.675 31.9616 267.2 31.2718 266.645 30.6486C269.355 29.0534 271.604 26.7818 273.172 24.0562C271.994 21.1673 271.115 18.1657 270.547 15.098C270.043 16.3799 269.417 17.6108 268.679 18.7741C268.247 18.2769 267.776 17.8154 267.27 17.394V20.2158H259.527C259.199 20.873 258.839 21.5576 258.447 22.2695C260.679 22.2476 264.21 22.1928 269.04 22.1052L268.941 24.011L265.467 24.0767C265.005 25.7615 264.098 27.291 262.842 28.5045C264.073 29.1166 265.267 29.8024 266.415 30.5582L264.842 32.0985C263.632 31.2982 262.373 30.5752 261.072 29.9339C259.125 31.1826 256.281 32.1341 252.541 32.7885C252.359 32.0758 252.037 31.4068 251.592 30.8211C254.672 30.4487 257.109 29.7929 258.903 28.8537C257.534 28.243 256.397 27.772 255.494 27.4407L254.935 28.3936L252.882 27.7693C253.473 26.8301 254.173 25.6595 254.98 24.2575L250.815 24.3273L250.75 22.3557C252.96 22.3557 254.72 22.3448 256.032 22.3229C256.139 22.1052 256.303 21.8012 256.521 21.4069C256.808 20.8606 257.014 20.4663 257.145 20.224H252.204V14.6297H258.505V13.0977H253.058V9.49135H250.729V7.62249H253.058V4.04496H258.505V1.99126H260.665V4.04496H266.469V7.62249H268.83V9.49135H266.469V13.0977H260.665V14.6421H267.237V16.3466C269.093 13.0607 270.463 8.26872 271.344 1.9707L273.706 2.33216C273.358 4.69528 273.009 6.62987 272.659 8.13592H281.416L281.432 10.4936ZM254.323 16.3014V18.5317H258.492V16.3014H254.323ZM258.492 5.77005H255.145V7.67589H258.492V5.77005ZM255.145 11.3479H258.492V9.401H255.145V11.3479ZM263.15 24.1096L257.375 24.2082C257.264 24.4259 257.079 24.7545 256.816 25.1899C256.644 25.4979 256.512 25.7156 256.406 25.847C257.832 26.329 259.277 26.8972 260.739 27.5516C261.811 26.6153 262.642 25.4347 263.162 24.1096H263.15ZM264.263 5.77005H260.665V7.67589H264.271L264.263 5.77005ZM260.665 11.3479H264.271V9.401H260.665V11.3479ZM265.06 18.5317V16.3014H260.665V18.5317H265.06ZM277.095 10.4936H272.043L271.944 10.9043C272.418 14.4352 273.288 17.9016 274.536 21.2385C275.743 18.2976 276.596 14.716 277.095 10.4936Z" fill="white"/>
<path d="M292.423 2.06494L294.719 2.82069C293.749 5.19538 292.61 7.49735 291.31 9.7088V32.5377H288.949V13.3151C287.831 14.8624 286.595 16.3208 285.252 17.6772C284.845 16.8149 284.362 15.9902 283.81 15.2127C286.913 12.2485 289.422 8.72035 291.203 4.8169C291.655 3.88042 292.062 2.96309 292.423 2.06494ZM307.284 28.7343H315.318V31.096H293.278V28.7343H304.889C306.57 23.9644 307.886 19.0734 308.824 14.1037C308.91 13.6642 308.989 13.2494 309.054 12.8715L311.712 13.3315C310.558 18.553 309.079 23.6972 307.284 28.7343V28.7343ZM294.095 8.57927H302.79V2.36066H305.316V8.57927H314.472V10.9082H294.099L294.095 8.57927ZM301.805 26.6518L299.377 27.1735C299.021 23.0207 298.307 18.9064 297.245 14.8759C297.114 14.4159 296.995 13.9764 296.884 13.5615L299.081 13.1508C300.315 17.3151 301.204 21.5738 301.739 25.8837C301.759 26.1425 301.784 26.3931 301.805 26.6518Z" fill="white"/>
<path d="M341.63 12.9207H348.65V14.9744H323.508V18.2891C323.486 24.6528 322.305 29.5187 319.964 32.8868C319.447 32.2769 318.825 31.7649 318.128 31.3752C318.091 31.3605 318.058 31.3396 318.029 31.3136C320.088 28.3618 321.116 24.0093 321.114 18.2562V12.9166H324.95C324.691 12.4257 324.396 11.9548 324.067 11.5077C326.692 11.0526 329.287 10.4394 331.838 9.67172C329.346 8.90501 327.258 8.3245 325.574 7.93019L326.983 6.78423H320.621V4.75106H332.331V2.00732H334.795V4.7634H347.031V6.79654H341.223L341.782 7.12515C340.321 8.09025 338.773 8.91538 337.157 9.58959C338.994 10.2221 340.911 10.9436 342.907 11.7542L341.63 12.9207ZM337.662 25.8302V29.8637H348.387V31.9626H324.605V29.8637H335.202V25.8302H327.616V23.8628H335.194V20.4824H328.807C328.105 21.5823 327.304 22.615 326.412 23.5671C325.851 23.0556 325.222 22.6243 324.543 22.2856C326.418 20.4168 327.852 18.1534 328.741 15.6603L330.939 16.1203C330.717 16.7323 330.392 17.5087 329.953 18.4493H335.202V15.7589H337.666V18.4369H346.489V20.4906H337.666V23.871H345.688V25.8302H337.662ZM326.051 12.9371H340.714C338.94 12.1731 336.886 11.3859 334.553 10.5754C331.78 11.563 328.938 12.3469 326.051 12.9207V12.9371ZM338.973 6.80476H327.854C329.406 7.17717 331.67 7.83297 334.643 8.7722C336.151 8.26125 337.601 7.59647 338.973 6.78834V6.80476Z" fill="white"/>
<path d="M381.981 24.6638H370.83C373.475 26.764 376.874 28.3823 381.028 29.5187C381.64 29.6953 382.26 29.8473 382.835 29.9788C382.138 30.6068 381.569 31.3643 381.16 32.2091C377.232 31.1212 373.548 29.2951 370.304 26.8284C369.685 26.361 369.094 25.8577 368.534 25.321V32.6363H366.069V25.4853C363.377 27.9333 359.834 29.9226 355.439 31.4533C354.786 31.6957 354.149 31.9051 353.537 32.0777C353.108 31.3031 352.567 30.5959 351.931 29.9788C355.621 29.1659 359.14 27.7118 362.327 25.6824C362.853 25.3333 363.334 24.9924 363.773 24.6638H352.815V22.5649H366.069V20.0799H355.957V18.1453H366.061V15.7179H354.314V13.6642H361.629C361.244 12.4767 360.691 11.3507 359.986 10.3207L361.169 10.0907H352.954V7.92204H358.294C357.603 6.20577 356.711 4.57746 355.636 3.0712L357.735 2.34829C358.928 3.84791 359.891 5.51755 360.59 7.30182L358.885 7.92204H363.017V1.96631H365.346V7.90148H369.314V1.96631H371.676V7.90148H375.746L374.514 7.49074C375.522 5.86688 376.379 4.15374 377.073 2.37294L379.632 3.06298C378.743 4.72568 377.757 6.33447 376.678 7.88095H381.833V10.0497H375.142C374.595 11.0957 373.895 12.2868 373.043 13.6231H380.687V15.6768H368.517V18.1043H379.011V20.0799H368.517V22.5731H381.965L381.981 24.6638ZM372.386 10.0702H362.529C363.267 11.0848 363.834 12.2145 364.204 13.4136L363.12 13.6436H371.027L370.665 13.5451C371.307 12.4216 371.881 11.2613 372.386 10.0702V10.0702Z" fill="white"/>
<path d="M405.011 19.0573C403.44 19.8788 401.854 20.6332 400.255 21.3205H412.885V32.4392H410.458V31.4534H395.63V32.5378H393.301V23.9451C392.231 24.2737 391.159 24.59 390.085 24.8939C389.017 25.202 387.933 25.4854 386.84 25.7482C386.673 25.3745 386.481 25.0123 386.265 24.6639C385.99 24.208 385.768 23.8424 385.592 23.5837C388.077 23.0754 390.535 22.4407 392.956 21.6819C395.396 20.9152 397.763 20.0403 400.058 19.0573H386.315V17.0036H398.879V14.5104H389.638V12.4772H398.887V10.1155H388.208V3.21094H414.22V10.1032H401.298V12.4649H408.807V14.1695C409.438 13.735 410.046 13.2689 410.63 12.773C411.208 12.2828 411.756 11.7858 412.273 11.282L414.208 12.5142C412.485 14.2099 410.582 15.7113 408.532 16.9913H416.007V19.045L405.011 19.0573ZM395.975 5.05105H390.636V8.26304H395.975V5.05105ZM410.474 23.1893H395.647V25.4197H410.474V23.1893ZM410.474 29.5846V27.1201H395.647V29.5846H410.474ZM403.816 8.26304V5.05105H398.263V8.26304H403.816ZM404.272 16.9913C405.016 16.6175 405.734 16.2191 406.42 15.7919C407.106 15.3647 407.772 14.9335 408.408 14.4981H401.323V16.9913H404.272ZM406.112 8.26304H411.785V5.05105H406.112V8.26304Z" fill="white"/>
</svg>
