<svg width="50" height="50" viewBox="0 0 50 50" fill="none" xmlns="http://www.w3.org/2000/svg">
<path d="M22.0973 27.319H16.2501V32.9579H23.1945V36.5135H12.5001V15.2773H23.139V18.8468H16.1946V23.8607H22.0973V27.319Z" fill="black"/>
<path d="M38.3194 36.5135H34.5694L29.0139 22.6246V36.5135H25.3195V15.2773H29.0694L34.625 29.1662V15.2773H38.375L38.3194 36.5135Z" fill="black"/>
<path d="M24.8974 49.9999C21.6626 50.0086 18.4579 49.3789 15.4668 48.147C12.4758 46.9151 9.75714 45.1051 7.46672 42.8208C3.34042 38.761 0.750807 33.3951 0.139815 27.6388C-0.471177 21.8825 0.934315 16.0925 4.11644 11.257C7.29857 6.42147 12.0601 2.84005 17.5885 1.12392C23.1169 -0.592216 29.0695 -0.336697 34.4305 1.84687C39.7915 4.03044 44.2286 8.00672 46.9847 13.0972C49.7407 18.1876 50.6449 24.0767 49.5429 29.7595C48.4408 35.4422 45.4009 40.5665 40.9419 44.2578C36.4829 47.949 30.8811 49.9785 25.0925 49.9999H24.8974ZM24.9852 1.22886C20.2762 1.23851 15.6757 2.6437 11.765 5.26691C7.85431 7.89011 4.80887 11.6136 3.01349 15.967C1.21811 20.3203 0.753356 25.1081 1.67795 29.7255C2.60253 34.3428 4.87498 38.5826 8.20816 41.9089C11.5413 45.2353 15.7857 47.4991 20.4049 48.4142C25.0241 49.3294 29.811 48.8548 34.1606 47.0505C38.5103 45.2463 42.2275 42.1932 44.8427 38.2771C47.4579 34.361 48.8537 29.7577 48.8537 25.0486C48.8537 21.9165 48.236 18.8151 47.0359 15.9219C45.8358 13.0288 44.0769 10.4008 41.8598 8.18825C39.6428 5.97574 37.0112 4.2222 34.1156 3.02802C31.22 1.83384 28.1174 1.22245 24.9852 1.22886Z" fill="black"/>
</svg>
