<?xml version="1.0" encoding="utf-8"?>
<!-- Generator: Adobe Illustrator 26.0.3, SVG Export Plug-In . SVG Version: 6.00 Build 0)  -->
<svg version="1.1" id="圖層_1" xmlns="http://www.w3.org/2000/svg" xmlns:xlink="http://www.w3.org/1999/xlink" x="0px" y="0px"
	 width="50px" height="50px" viewBox="0 0 50 50" style="enable-background:new 0 0 50 50;" xml:space="preserve">
<style type="text/css">
	.st0{fill:#FFFFFF;}
</style>
<path d="M24.9,50c-3.2,0-6.4-0.6-9.4-1.9c-3-1.2-5.7-3-8-5.3c-4.1-4.1-6.7-9.4-7.3-15.2s0.8-11.5,4-16.4c3.2-4.8,7.9-8.4,13.5-10.1
	c5.5-1.7,11.5-1.5,16.8,0.7C39.8,4,44.2,8,47,13.1c2.8,5.1,3.7,11,2.6,16.7c-1.1,5.7-4.1,10.8-8.6,14.5C36.5,47.9,30.9,50,25.1,50
	H24.9z"/>
<path class="st0" d="M22.1,27.3h-5.8V33h6.9v3.6H12.5V15.3h10.6v3.6h-6.9v5h5.9V27.3z"/>
<path class="st0" d="M38.3,36.5h-3.8L29,22.6v13.9h-3.7V15.3h3.7l5.6,13.9V15.3h3.8L38.3,36.5z"/>
</svg>
