<?xml version="1.0" encoding="utf-8"?>
<!-- Generator: Adobe Illustrator 26.0.3, SVG Export Plug-In . SVG Version: 6.00 Build 0)  -->
<svg version="1.1" id="圖層_1" xmlns="http://www.w3.org/2000/svg" xmlns:xlink="http://www.w3.org/1999/xlink" x="0px" y="0px"
	 width="32.8px" height="32.8px" viewBox="0 0 32.8 32.8" style="enable-background:new 0 0 32.8 32.8;" xml:space="preserve">
<style type="text/css">
	.st0{fill:#FFFFFF;}
</style>
<g id="圖層_2_00000065780066077367060300000001821175799951759531_">
	<g id="字級分享展開">
		<path d="M16.4,0C7.4,0,0,7.4,0,16.4c0,9,7.3,16.4,16.4,16.4c9,0,16.4-7.3,16.4-16.4C32.8,7.4,25.4,0,16.4,0z"/>
		<path class="st0" d="M8.9,24.4L15,8.3h2.3l6.6,16.1h-2.4l-1.9-4.9H13l-1.8,4.9L8.9,24.4z M13.5,17.8H19l-1.7-4.5
			c-0.5-1.4-0.9-2.5-1.1-3.3c-0.2,1-0.5,2.1-0.9,3.1L13.5,17.8z"/>
	</g>
</g>
</svg>
