<?xml version="1.0" encoding="utf-8"?>
<!-- Generator: Adobe Illustrator 26.3.1, SVG Export Plug-In . SVG Version: 6.00 Build 0)  -->
<svg version="1.1" id="圖層_1" xmlns="http://www.w3.org/2000/svg" xmlns:xlink="http://www.w3.org/1999/xlink" x="0px" y="0px"
	 viewBox="0 0 32.8 32.8" style="enable-background:new 0 0 32.8 32.8;" xml:space="preserve">
<style type="text/css">
	.st0{fill:none;stroke:#000000;stroke-width:0.75;stroke-miterlimit:10;}
</style>
<g id="圖層_2_00000114047886029011846530000005051213201676498824_">
	<g id="字級分享展開">
		<circle class="st0" cx="16.4" cy="16.4" r="16"/>
		<polygon points="22.5,10.4 22.5,8.3 21.3,8.3 21.3,10.4 19.2,10.4 19.2,11.6 21.3,11.6 21.3,13.8 22.5,13.8 22.5,11.6 24.7,11.6 
			24.7,10.4 		"/>
		<path d="M7.8,24.4L14,8.3h2.3l6.6,16.1h-2.4l-1.9-4.9h-6.7l-1.8,4.9L7.8,24.4z M12.5,17.8H18l-1.7-4.5c-0.5-1.4-0.9-2.5-1.1-3.3
			c-0.2,1-0.5,2.1-0.9,3.1L12.5,17.8z"/>
	</g>
</g>
</svg>
