<svg width="54" height="56" viewBox="0 0 54 56" fill="none" xmlns="http://www.w3.org/2000/svg">
<path d="M29.7892 14.5137H11.9024C11.5821 14.5137 11.2749 14.6409 11.0484 14.8674C10.8219 15.0939 10.6946 15.4011 10.6946 15.7214C10.6946 16.0417 10.8219 16.3489 11.0484 16.5754C11.2749 16.8019 11.5821 16.9292 11.9024 16.9292H29.7892C30.1095 16.9292 30.4167 16.8019 30.6432 16.5754C30.8697 16.3489 30.9969 16.0417 30.9969 15.7214C30.9969 15.4011 30.8697 15.0939 30.6432 14.8674C30.4167 14.6409 30.1095 14.5137 29.7892 14.5137Z" fill="white"/>
<path d="M29.7892 23.3184H11.9024C11.5821 23.3184 11.2749 23.4456 11.0484 23.6721C10.8219 23.8986 10.6946 24.2058 10.6946 24.5261C10.6946 24.8464 10.8219 25.1536 11.0484 25.3801C11.2749 25.6066 11.5821 25.7339 11.9024 25.7339H29.7892C30.1095 25.7339 30.4167 25.6066 30.6432 25.3801C30.8697 25.1536 30.9969 24.8464 30.9969 24.5261C30.9969 24.2058 30.8697 23.8986 30.6432 23.6721C30.4167 23.4456 30.1095 23.3184 29.7892 23.3184Z" fill="white"/>
<path d="M20.8458 34.5434C21.1661 34.5434 21.4733 34.4162 21.6998 34.1897C21.9263 33.9632 22.0536 33.656 22.0536 33.3357C22.0536 33.0154 21.9263 32.7082 21.6998 32.4817C21.4733 32.2552 21.1661 32.1279 20.8458 32.1279H11.9024C11.5821 32.1279 11.2749 32.2552 11.0484 32.4817C10.8219 32.7082 10.6946 33.0154 10.6946 33.3357C10.6946 33.656 10.8219 33.9632 11.0484 34.1897C11.2749 34.4162 11.5821 34.5434 11.9024 34.5434H20.8458Z" fill="white"/>
<path d="M51.1542 21.6755C49.8815 20.9827 48.3859 20.8232 46.9957 21.2319C45.6054 21.6406 44.4341 22.5841 43.7387 23.8555L32.0296 45.3413C30.8218 47.5938 31.9148 52.5274 32.2832 53.9828C32.3368 54.1834 32.4302 54.3713 32.5578 54.5352C32.6854 54.699 32.8446 54.8357 33.026 54.9369C33.2486 55.0568 33.4977 55.1191 33.7506 55.1181C33.9129 55.1186 34.0741 55.092 34.2277 55.0396C35.6528 54.5625 40.3993 52.8294 41.6312 50.5709L53.3343 29.0911C54.0271 27.8183 54.1865 26.3227 53.7778 24.9324C53.3691 23.5422 52.4256 22.3708 51.1542 21.6755ZM38.9802 49.1276C38.6299 49.7677 36.77 50.7883 34.8557 51.5794C34.4813 49.5443 34.3303 47.4247 34.6806 46.7846L44.252 29.2239L48.5455 31.5669L38.9802 49.1276ZM50.6833 27.6478L49.9949 28.9159L45.6953 26.5729L46.3897 25.3048C46.597 24.9154 46.9069 24.5903 47.2859 24.3646C47.6649 24.1389 48.0984 24.0213 48.5395 24.0246C48.9474 24.0236 49.3488 24.1276 49.705 24.3265C49.9876 24.4801 50.2371 24.6879 50.4392 24.938C50.6413 25.1882 50.7922 25.4757 50.883 25.7842C50.9739 26.0928 51.003 26.4161 50.9687 26.7359C50.9344 27.0557 50.8375 27.3656 50.6833 27.6478Z" fill="white"/>
<path d="M6.03875 37.968V11.0774C6.03875 9.95629 6.48413 8.88109 7.27687 8.08835C8.06961 7.29561 9.14477 6.85027 10.2659 6.85027H32.4643C33.5854 6.85027 34.6606 7.29561 35.4533 8.08835C36.2461 8.88109 36.6914 9.95629 36.6914 11.0774V30.8181L42.7302 19.737V11.0774C42.7302 8.35472 41.6486 5.74355 39.7234 3.81833C37.7982 1.8931 35.187 0.811523 32.4643 0.811523H10.2659C7.54319 0.811523 4.93203 1.8931 3.00681 3.81833C1.08158 5.74355 0 8.35472 0 11.0774V37.968C0 40.6906 1.08158 43.3018 3.00681 45.227C4.93203 47.1522 7.54319 48.2338 10.2659 48.2338H27.1744L30.4655 42.1951H10.2477C9.12978 42.1903 8.05928 41.7428 7.27045 40.9506C6.48163 40.1584 6.03874 39.0859 6.03875 37.968Z" fill="white"/>
</svg>
