<svg width="52" height="43" viewBox="0 0 52 43" fill="none" xmlns="http://www.w3.org/2000/svg">
<path d="M28.036 32.3806C28.036 32.2885 28.036 32.1964 28.036 32.1044H9.42554C8.38984 32.0675 7.41115 31.6208 6.70468 30.8625C5.99822 30.1043 5.62185 29.0965 5.65818 28.0608V11.9219L21.9458 24.3076C22.4115 24.6698 22.9845 24.8667 23.5745 24.867C24.2201 24.8659 24.8436 24.632 25.3307 24.2084L41.4839 10.4135C41.4839 10.4701 41.4839 10.5197 41.4839 10.5693V19.0672C43.4471 19.0834 45.3822 19.5357 47.1491 20.3914V10.5905C47.1491 5.02441 42.9002 0.492188 37.7377 0.492188H9.41136C4.22056 0.492188 0 5.02441 0 10.5905V28.082C0 33.6552 4.24889 38.1803 9.41136 38.1803H29.3389C28.4716 36.3705 28.0262 34.3875 28.036 32.3806ZM9.43972 6.5328H36.98L23.525 18.0475L8.55452 6.66022C8.84208 6.5733 9.13954 6.52335 9.43972 6.51153V6.5328Z" fill="white"/>
<path d="M45.5486 31.1484C45.1381 31.1625 44.7481 31.3319 44.4576 31.6224C44.1671 31.9129 43.9978 32.3029 43.9836 32.7134H46.9013C46.9013 31.7574 46.4763 31.1484 45.5486 31.1484Z" fill="white"/>
<path d="M37.3623 29.0732H36.1372V31.9484H37.3623C38.5733 31.9484 39.2319 31.4385 39.2319 30.4329C39.2319 29.4274 38.5733 29.0732 37.3623 29.0732Z" fill="white"/>
<path d="M41.3776 21.7227C39.2767 21.7227 37.223 22.3456 35.4762 23.5128C33.7294 24.68 32.3678 26.3391 31.5639 28.28C30.7599 30.221 30.5495 32.3568 30.9594 34.4174C31.3692 36.4779 32.3809 38.3706 33.8665 39.8562C35.3521 41.3417 37.2447 42.3534 39.3053 42.7633C41.3658 43.1732 43.5016 42.9628 45.4426 42.1588C47.3836 41.3548 49.0426 39.9934 50.2098 38.2465C51.377 36.4997 52 34.4459 52 32.345C52 29.5278 50.8808 26.826 48.8888 24.8339C46.8967 22.8418 44.1949 21.7227 41.3776 21.7227ZM39.3877 37.0118L37.4473 33.471H36.1372V37.0118H34.2465V27.565H37.5253C39.5152 27.565 41.0661 28.2731 41.0661 30.3976C41.1032 30.9839 40.9484 31.5665 40.6252 32.0571C40.302 32.5477 39.8278 32.9197 39.2744 33.1169L41.4768 36.9764L39.3877 37.0118ZM48.4168 33.9809H44.019C44.0335 34.2272 44.0965 34.4682 44.2045 34.69C44.3125 34.9119 44.4633 35.1101 44.6483 35.2734C44.8333 35.4366 45.0487 35.5617 45.2823 35.6413C45.5158 35.7209 45.7628 35.7534 46.009 35.7371C46.5753 35.7327 47.1284 35.5655 47.6024 35.2555L48.2397 36.4028C47.5064 36.9033 46.6419 37.1767 45.7541 37.1888C43.75 37.1888 42.2133 35.7725 42.2133 33.4427C42.2133 31.1129 43.842 29.6965 45.5345 29.6965C47.5032 29.6965 48.5229 31.1129 48.5229 33.1099C48.5218 33.4034 48.4862 33.6957 48.4168 33.9809Z" fill="white"/>
</svg>
