<svg width="62" height="39" viewBox="0 0 62 39" fill="none" xmlns="http://www.w3.org/2000/svg">
<path d="M16.6271 32.1211C19.7045 32.1133 22.7154 31.2268 25.3041 29.5662L25.5973 29.3712L34.118 38.1084C34.7179 38.6807 35.5159 39 36.3458 39C37.1758 39 37.9737 38.6807 38.5737 38.1084C39.1668 37.516 39.5 36.7128 39.5 35.8754C39.5 35.0379 39.1668 34.2347 38.5737 33.6423L29.9944 24.8465L30.1703 24.5539C32.0621 21.5461 32.8995 17.9966 32.5513 14.4624C32.203 10.9282 30.6887 7.60947 28.2461 5.02702C25.8034 2.44458 22.5707 0.744613 19.0552 0.193937C15.5398 -0.356738 11.9406 0.273047 8.82257 1.98445C5.70455 3.69585 3.2442 6.39199 1.82765 9.64972C0.411111 12.9075 0.118562 16.5424 0.995924 19.984C1.87329 23.4256 3.87089 26.479 6.67523 28.6651C9.47956 30.8512 12.9319 32.0462 16.4903 32.0625L16.6271 32.1211ZM16.6271 6.31878C18.5597 6.31878 20.4489 6.89069 22.0558 7.96219C23.6627 9.03369 24.9152 10.5567 25.6547 12.3385C26.3943 14.1203 26.5878 16.081 26.2108 17.9726C25.8338 19.8642 24.9031 21.6017 23.5366 22.9655C22.17 24.3293 20.4289 25.258 18.5334 25.6343C16.638 26.0105 14.6733 25.8174 12.8878 25.0794C11.1023 24.3413 9.5762 23.0914 8.50251 21.4878C7.42881 19.8842 6.85573 17.9989 6.85573 16.0702C6.85573 13.484 7.88521 11.0037 9.71771 9.17491C11.5502 7.34616 14.0356 6.31878 16.6271 6.31878Z" fill="white"/>
<path d="M41.0811 24C40.7641 23.9995 40.4544 23.9034 40.1923 23.7243C39.9303 23.5452 39.7279 23.2913 39.6112 22.9954C39.4945 22.6995 39.4689 22.3756 39.5379 22.065C39.6068 21.7543 39.767 21.4716 39.9978 21.2534L46.6109 14.9969L39.9978 8.74726C39.6921 8.45806 39.5134 8.05858 39.5009 7.63708C39.4885 7.21559 39.6432 6.80649 39.9313 6.4996C40.2194 6.1927 40.6172 6.01322 41.0372 6.0007C41.4571 5.98818 41.8648 6.14366 42.1706 6.43285L50.0059 13.8399C50.1615 13.9895 50.2855 14.1691 50.3704 14.368C50.4553 14.5668 50.4994 14.7806 50.5 14.9969C50.5005 15.2134 50.4569 15.4279 50.372 15.6268C50.287 15.8258 50.1624 16.0053 50.0059 16.1543L42.1706 23.5675C41.8762 23.8467 41.4861 24.0016 41.0811 24Z" fill="white"/>
<path d="M52.0811 24C51.7641 23.9995 51.4544 23.9034 51.1923 23.7243C50.9303 23.5452 50.7279 23.2913 50.6112 22.9954C50.4945 22.6995 50.4689 22.3756 50.5379 22.065C50.6068 21.7543 50.767 21.4716 50.9978 21.2534L57.6109 14.9969L50.9978 8.74726C50.6921 8.45806 50.5134 8.05858 50.5009 7.63708C50.4885 7.21559 50.6432 6.80649 50.9313 6.4996C51.2194 6.1927 51.6172 6.01322 52.0372 6.0007C52.4571 5.98818 52.8648 6.14366 53.1706 6.43285L61.0059 13.8399C61.1615 13.9895 61.2855 14.1691 61.3704 14.368C61.4553 14.5668 61.4994 14.7806 61.5 14.9969C61.5005 15.2134 61.4569 15.4279 61.372 15.6268C61.287 15.8258 61.1624 16.0053 61.0059 16.1543L53.1706 23.5675C52.8762 23.8467 52.4861 24.0016 52.0811 24Z" fill="white"/>
</svg>
