<svg width="50" height="50" viewBox="0 0 50 50" fill="none" xmlns="http://www.w3.org/2000/svg">
<circle cx="25" cy="25" r="25" fill="#49BCBF"/>
<path d="M32.25 36H16.2812V32.6406L22.0156 26.8438C23.7135 25.1042 24.8229 23.901 25.3438 23.2344C25.8646 22.5573 26.2396 21.9323 26.4688 21.3594C26.6979 20.7865 26.8125 20.1927 26.8125 19.5781C26.8125 18.6615 26.5573 17.9792 26.0469 17.5312C25.5469 17.0833 24.875 16.8594 24.0312 16.8594C23.1458 16.8594 22.2865 17.0625 21.4531 17.4688C20.6198 17.875 19.75 18.4531 18.8438 19.2031L16.2188 16.0938C17.3438 15.1354 18.276 14.4583 19.0156 14.0625C19.7552 13.6667 20.5625 13.3646 21.4375 13.1562C22.3125 12.9375 23.2917 12.8281 24.375 12.8281C25.8021 12.8281 27.0625 13.0885 28.1562 13.6094C29.25 14.1302 30.099 14.8594 30.7031 15.7969C31.3073 16.7344 31.6094 17.8073 31.6094 19.0156C31.6094 20.0677 31.4219 21.0573 31.0469 21.9844C30.6823 22.901 30.1094 23.8438 29.3281 24.8125C28.5573 25.7812 27.1927 27.1615 25.2344 28.9531L22.2969 31.7188V31.9375H32.25V36Z" fill="white"/>
</svg>
