<?xml version="1.0" encoding="utf-8"?>
<!-- Generator: Adobe Illustrator 26.3.1, SVG Export Plug-In . SVG Version: 6.00 Build 0)  -->
<svg version="1.1" id="圖層_1" xmlns="http://www.w3.org/2000/svg" xmlns:xlink="http://www.w3.org/1999/xlink" x="0px" y="0px"
	 viewBox="0 0 50 50" style="enable-background:new 0 0 50 50;" xml:space="preserve">
<style type="text/css">
	.st0{fill:#CCCCCC;}
	.st1{fill:#FFFFFF;}
</style>
<circle class="st0" cx="25" cy="25" r="25"/>
<path class="st1" d="M32.2,36h-16v-3.4l5.7-5.8c1.7-1.7,2.8-2.9,3.3-3.6c0.5-0.7,0.9-1.3,1.1-1.9c0.2-0.6,0.3-1.2,0.3-1.8
	c0-0.9-0.3-1.6-0.8-2c-0.5-0.4-1.2-0.7-2-0.7c-0.9,0-1.7,0.2-2.6,0.6c-0.8,0.4-1.7,1-2.6,1.7l-2.6-3.1c1.1-1,2.1-1.6,2.8-2
	c0.7-0.4,1.5-0.7,2.4-0.9c0.9-0.2,1.9-0.3,2.9-0.3c1.4,0,2.7,0.3,3.8,0.8c1.1,0.5,1.9,1.2,2.5,2.2c0.6,0.9,0.9,2,0.9,3.2
	c0,1.1-0.2,2-0.6,3c-0.4,0.9-0.9,1.9-1.7,2.8c-0.8,1-2.1,2.3-4.1,4.1l-2.9,2.8v0.2h10V36z"/>
</svg>
