<?xml version="1.0" encoding="utf-8"?>
<!-- Generator: Adobe Illustrator 26.3.1, SVG Export Plug-In . SVG Version: 6.00 Build 0)  -->
<svg version="1.1" id="圖層_1" xmlns="http://www.w3.org/2000/svg" xmlns:xlink="http://www.w3.org/1999/xlink" x="0px" y="0px"
	 viewBox="0 0 51 50" style="enable-background:new 0 0 51 50;" xml:space="preserve">
<style type="text/css">
	.st0{fill:#CCCCCC;}
	.st1{fill:#FFFFFF;}
</style>
<circle class="st0" cx="25.4" cy="25" r="25"/>
<path class="st1" d="M31.7,18.3c0,1.4-0.4,2.6-1.3,3.6s-2.1,1.7-3.6,2.1v0.1c1.8,0.2,3.2,0.8,4.2,1.7c0.9,0.9,1.4,2.1,1.4,3.6
	c0,2.2-0.8,3.9-2.4,5.1c-1.6,1.2-3.9,1.8-6.8,1.8c-2.5,0-4.7-0.4-6.6-1.2V31c0.9,0.4,1.9,0.8,2.9,1.1s2.1,0.4,3.2,0.4
	c1.6,0,2.8-0.3,3.5-0.8c0.8-0.5,1.1-1.4,1.1-2.6c0-1.1-0.4-1.8-1.3-2.3c-0.9-0.4-2.3-0.7-4.2-0.7h-1.7v-3.7h1.8
	c1.8,0,3.1-0.2,3.9-0.7c0.8-0.5,1.2-1.3,1.2-2.4c0-1.7-1.1-2.6-3.2-2.6c-0.8,0-1.5,0.1-2.3,0.4c-0.8,0.2-1.6,0.7-2.6,1.3l-2.2-3.3
	c2.1-1.5,4.6-2.2,7.5-2.2c2.4,0,4.2,0.5,5.6,1.4C31,15.2,31.7,16.6,31.7,18.3z"/>
</svg>
