<svg width="132" height="95" viewBox="0 0 132 95" fill="none" xmlns="http://www.w3.org/2000/svg">
<path d="M18.8626 47.4234C18.8791 39.9365 21.8606 32.7609 27.1543 27.4668C32.4481 22.1727 39.6231 19.1911 47.1096 19.1745H57.9612V0.122228C49.2831 0.0672994 46.8585 -0.458448 37.9372 1.19725C37.8471 1.22053 37.7554 1.23627 37.6627 1.24433C27.0325 3.4369 17.4828 9.22663 10.6225 17.6381C3.76227 26.0496 0.0108462 36.5688 0 47.4234C0 73.4124 21.1852 94.8031 47.1646 94.8031H94.7921V0.122228H76.3845V75.8057L47.1253 75.6959C39.632 75.6834 32.4495 72.7005 27.1517 67.4008C21.8538 62.1012 18.8729 54.9172 18.8626 47.4234Z" fill="white" fill-opacity="0.1"/>
<path d="M36.9041 47.927C36.9041 53.9691 41.4237 57.9867 47.4655 57.9867H57.9874V36.9413H47.889C44.9756 36.9413 42.1816 38.0987 40.1215 40.1589C38.0615 42.2191 36.9041 45.0134 36.9041 47.927Z" fill="white" fill-opacity="0.1"/>
<path d="M126.361 34.3125H105.168V94.9378H126.361V34.3125Z" fill="white" fill-opacity="0.1"/>
<path d="M105.372 0.10791H123.732V5.42812H110.59V15.9038H123.732V21.122H105.372V0.10791Z" fill="white" fill-opacity="0.1"/>
<path d="M131.594 7.85291H113.234V13.1731H126.377V23.6488H113.234V28.867H131.594V7.85291Z" fill="white" fill-opacity="0.1"/>
</svg>
