<?xml version="1.0" encoding="utf-8"?>
<!-- Generator: Adobe Illustrator 24.2.1, SVG Export Plug-In . SVG Version: 6.00 Build 0)  -->
<svg version="1.1" id="圖層_1" xmlns="http://www.w3.org/2000/svg" xmlns:xlink="http://www.w3.org/1999/xlink" x="0px" y="0px"
	 width="246px" height="246px" viewBox="0 0 246 246" style="enable-background:new 0 0 246 246;" xml:space="preserve">
<style type="text/css">
	.st0{clip-path:url(#SVGID_2_);}
	.st1{fill:#1F323D;}
</style>
<g>
	<defs>
		<rect id="SVGID_1_" x="85.5" y="53" width="75" height="140"/>
	</defs>
	<clipPath id="SVGID_2_">
		<use xlink:href="#SVGID_1_"  style="overflow:visible;"/>
	</clipPath>
	<g class="st0">
		<path class="st1" d="M123,85.2c-3.2,0-6.2-0.9-8.9-2.7c-2.6-1.8-4.7-4.3-5.9-7.2c-1.2-2.9-1.5-6.2-0.9-9.3c0.6-3.1,2.1-6,4.4-8.2
			c2.2-2.3,5.1-3.8,8.2-4.4c3.1-0.6,6.3-0.3,9.2,0.9c2.9,1.2,5.4,3.3,7.2,5.9c1.8,2.6,2.7,5.8,2.7,8.9c0,4.3-1.7,8.4-4.7,11.4
			C131.3,83.5,127.2,85.2,123,85.2z M123,58c-2.2,0-4.3,0.7-6.1,1.9c-1.8,1.2-3.2,3-4.1,5c-0.8,2-1.1,4.3-0.6,6.4
			c0.4,2.2,1.5,4.1,3,5.7c1.5,1.6,3.5,2.6,5.6,3c2.1,0.4,4.4,0.2,6.4-0.6c2-0.8,3.7-2.3,4.9-4.1c1.2-1.8,1.9-4,1.9-6.2
			c0-2.9-1.2-5.8-3.2-7.8C128.7,59.2,125.9,58,123,58z"/>
		<path class="st1" d="M144.2,110.6c-0.6,0-1.2-0.2-1.7-0.6c-0.5-0.4-0.7-1-0.8-1.6c-0.6-4.6-2.8-8.8-6.2-11.9
			c-3.4-3.1-7.9-4.8-12.5-4.8c-4.6,0-9,1.7-12.5,4.8c-3.4,3.1-5.7,7.3-6.2,11.9c0,0.3-0.1,0.6-0.3,0.9c-0.2,0.3-0.4,0.5-0.6,0.7
			c-0.3,0.2-0.6,0.4-0.9,0.4c-0.3,0.1-0.6,0.1-1,0.1s-0.6-0.1-0.9-0.3c-0.3-0.2-0.5-0.4-0.7-0.6c-0.2-0.3-0.4-0.6-0.4-0.9
			c-0.1-0.3-0.1-0.6-0.1-1c0.7-5.8,3.5-11.2,7.9-15c4.3-3.9,9.9-6,15.7-6c5.8,0,11.4,2.1,15.7,6c4.3,3.9,7.1,9.2,7.9,15
			c0,0.3,0,0.7-0.1,1c-0.1,0.3-0.2,0.6-0.4,0.9c-0.2,0.3-0.4,0.5-0.7,0.6c-0.3,0.2-0.6,0.3-0.9,0.3L144.2,110.6z"/>
		<path class="st1" d="M123,193c-0.5,0-0.9-0.1-1.3-0.4l-35-22c-0.4-0.2-0.7-0.5-0.9-0.9c-0.2-0.4-0.3-0.8-0.3-1.2v-55.7
			c0-0.5,0.2-1.1,0.5-1.5c0.3-0.4,0.8-0.7,1.3-0.9l35-10.5c0.5-0.1,0.9-0.1,1.4,0l35,10.5c0.5,0.2,1,0.5,1.3,0.9
			c0.3,0.4,0.5,1,0.5,1.5v55.7c0,0.4-0.1,0.8-0.3,1.2c-0.2,0.4-0.5,0.7-0.9,0.9l-35,22C123.9,192.9,123.5,193,123,193z M90.4,167.1
			l32.6,20.4l32.6-20.4v-52.4L123,105l-32.6,9.8V167.1z"/>
		<path class="st1" d="M129.3,160.9h-12.6c-0.7,0-1.3-0.3-1.7-0.7c-0.5-0.5-0.7-1.1-0.7-1.8v-7.8h-7.7c-0.7,0-1.3-0.3-1.7-0.7
			c-0.5-0.5-0.7-1.1-0.7-1.8v-12.7c0-0.7,0.3-1.3,0.7-1.8s1.1-0.7,1.7-0.7h7.7v-7.7c0-0.7,0.3-1.3,0.7-1.8c0.5-0.5,1.1-0.7,1.7-0.7
			h12.6c0.7,0,1.3,0.3,1.7,0.7s0.7,1.1,0.7,1.8v7.7h7.6c0.7,0,1.3,0.3,1.7,0.7c0.5,0.5,0.7,1.1,0.7,1.8v12.7c0,0.7-0.3,1.3-0.7,1.8
			c-0.5,0.5-1.1,0.7-1.7,0.7h-7.7v7.7c0,0.3-0.1,0.7-0.2,1c-0.1,0.3-0.3,0.6-0.5,0.8c-0.2,0.2-0.5,0.4-0.8,0.6
			C130,160.8,129.6,160.9,129.3,160.9z M119.2,155.9h7.7v-7.8c0-0.7,0.3-1.3,0.7-1.8c0.5-0.5,1.1-0.7,1.7-0.7h7.6v-7.7h-7.7
			c-0.7,0-1.3-0.3-1.7-0.7c-0.5-0.5-0.7-1.1-0.7-1.8v-7.7h-7.7v7.7c0,0.7-0.3,1.3-0.7,1.8c-0.5,0.5-1.1,0.7-1.7,0.7H109v7.7h7.7
			c0.7,0,1.3,0.3,1.7,0.7c0.5,0.5,0.7,1.1,0.7,1.8L119.2,155.9z"/>
	</g>
</g>
</svg>
