<?xml version="1.0" encoding="utf-8"?>
<!-- Generator: Adobe Illustrator 24.2.1, SVG Export Plug-In . SVG Version: 6.00 Build 0)  -->
<svg version="1.1" id="圖層_1" xmlns="http://www.w3.org/2000/svg" xmlns:xlink="http://www.w3.org/1999/xlink" x="0px" y="0px"
	 width="52px" height="40px" viewBox="0 0 52 40" style="enable-background:new 0 0 52 40;" xml:space="preserve">
<style type="text/css">
	.st0{fill:#333333;}
</style>
<path class="st0" d="M26,11.8c2.7,0,3,0,4,0.1c0.6,0,1.2,0.1,1.8,0.3c0.4,0.2,0.8,0.4,1.1,0.7c0.3,0.3,0.6,0.7,0.7,1.1
	c0.2,0.6,0.3,1.2,0.3,1.8c0.1,1.1,0.1,1.4,0.1,4.1s0,3-0.1,4.1c0,0.6-0.1,1.2-0.3,1.8c-0.2,0.4-0.4,0.8-0.7,1.1
	c-0.3,0.3-0.7,0.6-1.1,0.7c-0.6,0.2-1.2,0.3-1.8,0.3c-1.1,0.1-1.3,0.1-4,0.1s-3,0-4-0.1c-0.6,0-1.2-0.1-1.8-0.3
	c-0.4-0.2-0.8-0.4-1.1-0.7c-0.3-0.3-0.6-0.7-0.7-1.1c-0.2-0.6-0.3-1.2-0.3-1.8c-0.1-1.1-0.1-1.4-0.1-4.1s0-3,0.1-4.1
	c0-0.6,0.1-1.2,0.3-1.8c0.2-0.4,0.4-0.8,0.7-1.1c0.3-0.3,0.7-0.6,1.1-0.7c0.6-0.2,1.2-0.3,1.8-0.3C22.9,11.8,23.3,11.8,26,11.8z
	 M26,10c-2.7,0-3,0-4.1,0.1c-0.8,0-1.7,0.2-2.4,0.5c-0.7,0.3-1.3,0.6-1.7,1.2c-0.5,0.5-0.9,1.1-1.1,1.8c-0.3,0.8-0.5,1.6-0.5,2.4
	C16,17,16,17.3,16,20s0,3,0.1,4.1c0,0.8,0.2,1.7,0.5,2.4c0.3,0.7,0.6,1.3,1.1,1.8c0.5,0.5,1.1,0.9,1.8,1.2c0.8,0.3,1.6,0.5,2.4,0.5
	C22.9,30,23.3,30,26,30s3,0,4.1-0.1c0.8,0,1.7-0.2,2.4-0.5c0.7-0.3,1.3-0.7,1.8-1.2c0.5-0.5,0.9-1.1,1.1-1.8
	c0.3-0.8,0.5-1.6,0.5-2.4c0.1-1.1,0.1-1.4,0.1-4.1s0-3-0.1-4.1c0-0.8-0.2-1.7-0.5-2.4c-0.3-0.7-0.6-1.3-1.1-1.8
	c-0.5-0.5-1.1-0.9-1.7-1.2c-0.8-0.3-1.6-0.5-2.4-0.5C29,10.1,28.7,10,26,10L26,10z"/>
<path class="st0" d="M26,14.9c-1,0-2,0.3-2.8,0.9c-0.8,0.6-1.5,1.4-1.9,2.3c-0.4,0.9-0.5,2-0.3,3c0.2,1,0.7,1.9,1.4,2.6
	c0.7,0.7,1.6,1.2,2.6,1.4c1,0.2,2,0.1,3-0.3c0.9-0.4,1.7-1,2.3-1.9c0.6-0.8,0.9-1.8,0.9-2.8c0-1.4-0.5-2.7-1.5-3.6
	C28.6,15.4,27.3,14.9,26,14.9z M26,23.4c-0.7,0-1.3-0.2-1.8-0.6c-0.5-0.4-1-0.9-1.2-1.5c-0.3-0.6-0.3-1.3-0.2-1.9
	c0.1-0.6,0.4-1.2,0.9-1.7c0.5-0.5,1.1-0.8,1.7-0.9c0.6-0.1,1.3-0.1,1.9,0.2c0.6,0.3,1.1,0.7,1.5,1.2s0.6,1.2,0.6,1.8
	c0,0.9-0.3,1.7-1,2.3C27.7,23,26.9,23.4,26,23.4L26,23.4z"/>
<path class="st0" d="M31.3,15.9c0.7,0,1.2-0.5,1.2-1.2c0-0.7-0.5-1.2-1.2-1.2c-0.7,0-1.2,0.5-1.2,1.2C30.1,15.3,30.6,15.9,31.3,15.9
	z"/>
</svg>
