<svg width="22" height="29" viewBox="0 0 22 29" fill="none" xmlns="http://www.w3.org/2000/svg">
<path d="M0 24.2999V22.2H2.8875V11.4903C2.86496 9.60222 3.46534 7.76101 4.5925 6.26151C5.67771 4.75963 7.27762 3.7278 9.075 3.37062V2.35564C9.06937 2.10571 9.11682 1.85748 9.21412 1.62794C9.31142 1.3984 9.45626 1.19297 9.63875 1.02569C10.0125 0.675195 10.5058 0.486867 11.0138 0.500713C11.5217 0.486867 12.015 0.675195 12.3888 1.02569C12.5712 1.19297 12.7161 1.3984 12.8134 1.62794C12.9107 1.85748 12.9581 2.10571 12.9525 2.35564V3.37062C14.7536 3.73253 16.3585 4.76281 17.4556 6.26151C18.5901 7.75789 19.1957 9.60014 19.1744 11.4903V22.2H22V24.2999H0ZM11 28.4997C10.6415 28.5019 10.2863 28.4305 9.9556 28.2898C9.62486 28.1491 9.32536 27.942 9.075 27.6808C8.81056 27.4265 8.60074 27.1192 8.45875 26.7783C8.31675 26.4373 8.24568 26.0701 8.25 25.6998H13.75C13.7549 26.0683 13.6862 26.434 13.5479 26.7745C13.4096 27.1151 13.2047 27.4234 12.9456 27.6808C12.6929 27.9445 12.39 28.1532 12.0555 28.294C11.721 28.4348 11.3619 28.5048 11 28.4997ZM4.95 22.2H17.0844V11.4903C17.0997 10.6728 16.9523 9.86066 16.651 9.10276C16.3497 8.34486 15.9008 7.65693 15.3312 7.08048C14.7777 6.49093 14.11 6.02478 13.3704 5.71151C12.6307 5.39825 11.8353 5.24469 11.0344 5.26055C10.2306 5.24601 9.43244 5.40008 8.68966 5.71318C7.94687 6.02628 7.27534 6.49171 6.71688 7.08048C6.14422 7.65526 5.69231 8.34256 5.38857 9.10063C5.08484 9.85871 4.93563 10.6717 4.95 11.4903V22.2Z" fill="black"/>
</svg>
