<svg width="52" height="40" viewBox="0 0 52 40" fill="none" xmlns="http://www.w3.org/2000/svg">
<path d="M32.3739 12H20.0939C18.971 12.0443 17.911 12.5305 17.1449 13.3528C16.3789 14.1751 15.9688 15.2667 16.0039 16.39V23.99C15.9798 24.5504 16.0665 25.11 16.2592 25.6367C16.4519 26.1635 16.7467 26.647 17.1267 27.0595C17.5068 27.472 17.9645 27.8054 18.4737 28.0406C18.9829 28.2758 19.5335 28.4081 20.0939 28.43H32.404C33.5261 28.3857 34.5849 27.8991 35.3494 27.0766C36.1139 26.254 36.5218 25.1623 36.4839 24.04V16.43C36.508 15.8685 36.4205 15.3078 36.2265 14.7804C36.0324 14.253 35.7357 13.7692 35.3534 13.3573C34.9712 12.9453 34.5111 12.6132 33.9997 12.3802C33.4882 12.1472 32.9357 12.018 32.3739 12ZM32.0339 14.63L26.1739 19.63L19.6639 14.68C19.7944 14.6447 19.9287 14.6246 20.0639 14.62L32.0339 14.63ZM34.0339 23.99C34.0501 24.4393 33.8878 24.8767 33.5823 25.2065C33.2768 25.5364 32.8532 25.7318 32.404 25.75H20.0939C19.6438 25.7318 19.2192 25.5367 18.9121 25.2072C18.6051 24.8776 18.4404 24.4402 18.4539 23.99V16.99L25.5339 22.37C25.7392 22.5231 25.9878 22.6072 26.2439 22.61C26.5255 22.6099 26.7981 22.5108 27.014 22.33L34.014 16.33V24L34.0339 23.99Z" fill="#333333"/>
</svg>
