<svg width="14" height="18" viewBox="0 0 14 18" fill="none" xmlns="http://www.w3.org/2000/svg">
<path d="M8.91406 6.5H6.37109L9.87109 3H12.25C12.2773 3 12.332 3.02734 12.3867 3.02734L8.91406 6.5ZM4.53906 6.5H1.99609L5.49609 3H8.03906L4.53906 6.5ZM13.5898 3.68359C13.8359 3.98437 14 4.33984 14 4.75V6.5H10.7461L13.5898 3.68359ZM3.66406 3L0.164062 6.5H0V4.75C0 3.79297 0.765625 3 1.75 3H3.66406ZM0 13.5V7.375H14V13.5C14 14.4844 13.207 15.25 12.25 15.25H1.75C0.765625 15.25 0 14.4844 0 13.5Z" fill="black"/>
</svg>
