<svg width="52" height="40" viewBox="0 0 52 40" fill="none" xmlns="http://www.w3.org/2000/svg">
<g clip-path="url(#clip0_1170_1673)">
<path d="M33.77 18.2201C34.247 18.2441 34.7238 18.1685 35.1699 17.9981C35.6161 17.8277 36.0219 17.5662 36.3615 17.2304C36.7011 16.8946 36.967 16.4917 37.1424 16.0475C37.3177 15.6032 37.3986 15.1273 37.38 14.6501C37.3924 13.7336 37.0687 12.8442 36.47 12.1501C36.13 11.7744 35.7125 11.477 35.2464 11.2785C34.7802 11.0799 34.2765 10.9849 33.77 11.0001C33.2883 10.9861 32.8088 11.0711 32.3612 11.25C31.9137 11.4288 31.5077 11.6977 31.1683 12.0399C30.8289 12.3821 30.5634 12.7903 30.3882 13.2393C30.2131 13.6883 30.132 14.1685 30.15 14.6501C30.1312 15.1282 30.2124 15.605 30.3884 16.05C30.5643 16.4949 30.8312 16.8983 31.1719 17.2343C31.5126 17.5702 31.9196 17.8315 32.367 18.0012C32.8143 18.171 33.2922 18.2455 33.77 18.2201ZM33.77 12.8201C34.006 12.8114 34.2413 12.852 34.4607 12.9393C34.6802 13.0266 34.8791 13.1587 35.0446 13.3271C35.2102 13.4955 35.3389 13.6966 35.4225 13.9175C35.506 14.1384 35.5427 14.3743 35.53 14.6101C35.5483 14.8517 35.5164 15.0945 35.4365 15.3232C35.3566 15.552 35.2303 15.7617 35.0655 15.9394C34.9008 16.1171 34.7011 16.2588 34.479 16.3557C34.257 16.4526 34.0173 16.5027 33.775 16.5027C33.5327 16.5027 33.293 16.4526 33.0709 16.3557C32.8489 16.2588 32.6492 16.1171 32.4845 15.9394C32.3197 15.7617 32.1934 15.552 32.1135 15.3232C32.0336 15.0945 32.0017 14.8517 32.02 14.6101C32.0075 14.376 32.0436 14.1418 32.126 13.9223C32.2083 13.7028 32.3352 13.5027 32.4986 13.3346C32.662 13.1665 32.8584 13.034 33.0755 12.9455C33.2926 12.8569 33.5256 12.8143 33.76 12.8201H33.77Z" fill="#333333"/>
<path d="M26.67 18.7502C26.4251 18.7528 26.1911 18.852 26.0189 19.0261C25.8466 19.2002 25.75 19.4353 25.75 19.6802V21.6802C25.2185 21.3737 24.6134 21.2181 24 21.2302C23.5217 21.2178 23.0459 21.303 22.6016 21.4806C22.1573 21.6583 21.754 21.9247 21.4161 22.2635C21.0782 22.6023 20.813 23.0064 20.6366 23.4511C20.4601 23.8959 20.3763 24.3719 20.39 24.8502C20.3776 25.3277 20.4626 25.8026 20.6396 26.2462C20.8166 26.6898 21.0821 27.0927 21.4198 27.4304C21.7575 27.7681 22.1604 28.0336 22.604 28.2106C23.0476 28.3877 23.5226 28.4726 24 28.4602C24.6757 28.4706 25.3397 28.2829 25.91 27.9202C25.9923 28.0527 26.1072 28.1619 26.2438 28.2372C26.3804 28.3125 26.534 28.3514 26.69 28.3502C26.9349 28.3502 27.17 28.2536 27.3441 28.0814C27.5182 27.9091 27.6174 27.6751 27.62 27.4302V19.6802C27.62 19.5564 27.5953 19.4338 27.5473 19.3196C27.4994 19.2055 27.4291 19.1021 27.3406 19.0154C27.2521 18.9288 27.1472 18.8607 27.032 18.8152C26.9169 18.7696 26.7938 18.7476 26.67 18.7502ZM24 23.0502C24.2361 23.0431 24.471 23.0848 24.6903 23.1725C24.9096 23.2602 25.1084 23.3921 25.2745 23.5601C25.4406 23.728 25.5702 23.9283 25.6555 24.1486C25.7407 24.3688 25.7797 24.6043 25.77 24.8402C25.7827 25.0774 25.7458 25.3146 25.6617 25.5367C25.5776 25.7588 25.4482 25.961 25.2817 26.1303C25.1152 26.2996 24.9152 26.4324 24.6946 26.5202C24.4739 26.608 24.2373 26.6489 24 26.6402C23.7639 26.646 23.5291 26.603 23.3103 26.5141C23.0916 26.4251 22.8934 26.2921 22.7283 26.1232C22.5632 25.9543 22.4346 25.7533 22.3506 25.5325C22.2666 25.3118 22.2289 25.0761 22.24 24.8402C22.2289 24.6047 22.2665 24.3695 22.3506 24.1493C22.4348 23.9291 22.5635 23.7286 22.7288 23.5605C22.894 23.3924 23.0923 23.2603 23.3111 23.1725C23.5298 23.0847 23.7644 23.0431 24 23.0502V23.0502Z" fill="#333333"/>
<path d="M36.45 21.3302C36.2933 21.331 36.1394 21.3719 36.0028 21.4489C35.8663 21.5259 35.7518 21.6365 35.67 21.7702C35.1028 21.4089 34.4424 21.2212 33.77 21.2302C33.2912 21.2178 32.815 21.303 32.3702 21.4805C31.9254 21.6581 31.5214 21.9243 31.1827 22.2629C30.8441 22.6016 30.5779 23.0056 30.4003 23.4504C30.2228 23.8952 30.1376 24.3714 30.15 24.8502C30.139 25.3281 30.2252 25.8033 30.4034 26.2469C30.5815 26.6905 30.8479 27.0933 31.1864 27.4309C31.5249 27.7685 31.9285 28.0338 32.3726 28.2107C32.8167 28.3876 33.2921 28.4725 33.77 28.4602C34.4401 28.4757 35.0992 28.2874 35.66 27.9202C35.7662 28.0912 35.9249 28.2231 36.1125 28.2961C36.3 28.3692 36.5062 28.3794 36.7 28.3253C36.8939 28.2712 37.065 28.1557 37.1876 27.9961C37.3102 27.8365 37.3777 27.6414 37.38 27.4402V22.2602C37.38 22.0135 37.282 21.777 37.1076 21.6026C36.9332 21.4282 36.6966 21.3302 36.45 21.3302ZM33.76 23.0502C33.9961 23.0431 34.231 23.0847 34.4503 23.1725C34.6696 23.2602 34.8684 23.3921 35.0345 23.56C35.2005 23.728 35.3302 23.9283 35.4155 24.1485C35.5007 24.3688 35.5397 24.6042 35.53 24.8402C35.53 25.307 35.3446 25.7546 35.0145 26.0847C34.6844 26.4148 34.2368 26.6002 33.77 26.6002C33.3032 26.6002 32.8556 26.4148 32.5255 26.0847C32.1954 25.7546 32.01 25.307 32.01 24.8402C31.9989 24.6056 32.0363 24.3712 32.1198 24.1517C32.2033 23.9322 32.3312 23.7322 32.4954 23.5643C32.6596 23.3963 32.8566 23.264 33.0742 23.1755C33.2917 23.0871 33.5252 23.0444 33.76 23.0502V23.0502Z" fill="#333333"/>
<path d="M24 11.0901C23.4945 11.075 22.9916 11.169 22.5257 11.3658C22.0598 11.5625 21.6417 11.8573 21.3 12.2301C20.9586 11.8596 20.542 11.5663 20.0781 11.3697C19.6142 11.1731 19.1137 11.0778 18.61 11.0901C17.9335 11.0827 17.2707 11.2815 16.71 11.6601C16.6257 11.5296 16.5103 11.4219 16.3742 11.3469C16.238 11.2718 16.0854 11.2317 15.93 11.2301C15.6833 11.2301 15.4468 11.3281 15.2724 11.5025C15.098 11.6769 15 11.9135 15 12.1601V17.3001C15.0026 17.545 15.1018 17.779 15.2759 17.9513C15.45 18.1235 15.6851 18.2201 15.93 18.2201C16.0508 18.2215 16.1707 18.199 16.2828 18.1539C16.395 18.1089 16.4971 18.0423 16.5835 17.9578C16.6698 17.8733 16.7387 17.7726 16.7862 17.6614C16.8336 17.5503 16.8587 17.4309 16.86 17.3101V16.4301C16.86 15.6301 16.86 14.5301 16.86 14.0801C16.86 13.9701 16.86 13.8901 16.86 13.8801C17.0081 13.5668 17.2458 13.3045 17.5431 13.1265C17.8404 12.9485 18.1839 12.8627 18.53 12.8801C18.7748 12.8609 19.0209 12.8946 19.2515 12.979C19.4821 13.0634 19.6918 13.1965 19.8664 13.3691C20.041 13.5418 20.1763 13.7501 20.2632 13.9798C20.3501 14.2094 20.3866 14.4551 20.37 14.7001V17.3001C20.37 17.5468 20.468 17.7833 20.6424 17.9577C20.8168 18.1321 21.0533 18.2301 21.3 18.2301C21.5467 18.2301 21.7832 18.1321 21.9576 17.9577C22.132 17.7833 22.23 17.5468 22.23 17.3001V14.7001C22.2172 14.4634 22.2541 14.2266 22.3383 14.005C22.4224 13.7834 22.552 13.5818 22.7187 13.4133C22.8854 13.2447 23.0855 13.1129 23.3062 13.0262C23.5268 12.9396 23.7632 12.9 24 12.9101C24.3053 12.8871 24.6107 12.9521 24.8801 13.0974C25.1496 13.2428 25.3716 13.4624 25.52 13.7301C25.6933 14.1299 25.7687 14.5653 25.74 15.0001V17.3001C25.74 17.5468 25.838 17.7833 26.0124 17.9577C26.1868 18.1321 26.4233 18.2301 26.67 18.2301C26.9167 18.2301 27.1532 18.1321 27.3276 17.9577C27.502 17.7833 27.6 17.5468 27.6 17.3001V14.7001C27.6212 14.2213 27.5427 13.7432 27.3694 13.2963C27.1961 12.8494 26.9318 12.4434 26.5934 12.104C26.2549 11.7646 25.8496 11.4992 25.4032 11.3247C24.9567 11.1501 24.4789 11.0703 24 11.0901V11.0901Z" fill="#333333"/>
</g>
<defs>
<clipPath id="clip0_1170_1673">
<rect width="22.38" height="17.46" fill="white" transform="translate(15 11)"/>
</clipPath>
</defs>
</svg>
