<svg width="25" height="26" viewBox="0 0 25 26" fill="none" xmlns="http://www.w3.org/2000/svg">
<path d="M12.7163 25.4315C9.13523 25.4315 6.15662 24.2491 3.7805 21.8842C1.40437 19.5193 0.216309 16.5464 0.216309 12.9653C0.216309 10.15 0.953921 7.67811 2.42915 5.54973C3.90437 3.42136 6.07216 1.90672 8.93252 1.00582C10.1487 0.713023 11.0159 0.803113 11.5339 1.27609C12.0519 1.74906 12.2208 2.51483 12.0406 3.57338C12.0181 4.04636 11.9843 4.50807 11.9393 4.95852C11.8942 5.40897 11.8717 5.80311 11.8717 6.14095C11.8717 8.30311 12.615 10.1274 14.1014 11.6139C15.5879 13.1004 17.4123 13.8437 19.5744 13.8437C19.9798 13.8437 20.4021 13.838 20.8413 13.8268C21.2805 13.8155 21.7141 13.7986 22.142 13.7761C23.2456 13.6184 24.0057 13.793 24.4224 14.2997C24.8391 14.8065 24.901 15.6567 24.6082 16.8504C23.6848 19.3729 22.2152 21.4337 20.1994 23.0328C18.1837 24.6319 15.6893 25.4315 12.7163 25.4315ZM12.7163 22.3572C14.7433 22.3572 16.5395 21.7603 18.1048 20.5666C19.6701 19.3729 20.6893 17.954 21.1623 16.3099C20.7343 16.4901 20.267 16.6196 19.7602 16.6984C19.2535 16.7772 18.7636 16.8054 18.2906 16.7828C15.8132 16.4901 13.7017 15.4934 11.9562 13.793C10.2107 12.0925 9.18027 9.936 8.86496 7.32338C8.86496 6.98555 8.89874 6.57451 8.96631 6.09028C9.03388 5.60604 9.18027 5.03735 9.4055 4.38419C7.62622 5.05987 6.16788 6.19163 5.0305 7.77947C3.89311 9.3673 3.32442 11.0959 3.32442 12.9653C3.32442 15.6004 4.23095 17.8245 6.04401 19.6376C7.85707 21.4506 10.0812 22.3572 12.7163 22.3572Z" fill="#B4C43F"/>
</svg>
