<?xml version="1.0" encoding="utf-8"?>
<!-- Generator: Adobe Illustrator 24.2.1, SVG Export Plug-In . SVG Version: 6.00 Build 0)  -->
<svg version="1.1" id="圖層_1" xmlns="http://www.w3.org/2000/svg" xmlns:xlink="http://www.w3.org/1999/xlink" x="0px" y="0px"
	 width="19.3px" height="15.1px" viewBox="0 0 19.3 15.1" style="enable-background:new 0 0 19.3 15.1;" xml:space="preserve">
<style type="text/css">
	.st0{fill:#FFFFFF;}
</style>
<g>
	<path class="st0" d="M18.6,9.9c-0.2,0-0.4-0.1-0.5-0.2L9.7,1.8L1.3,9.7C1,10,0.5,10,0.2,9.7s-0.3-0.8,0-1.1l8.9-8.4
		c0.3-0.3,0.7-0.3,1,0L19,8.6c0.3,0.3,0.3,0.8,0,1.1C19,9.9,18.8,9.9,18.6,9.9z"/>
	<path class="st0" d="M15.7,15.1H12c-0.4,0-0.8-0.3-0.8-0.8V11H8v3.3c0,0.4-0.3,0.8-0.8,0.8H3.6c-0.4,0-0.8-0.3-0.8-0.8V6.6
		c0-0.4,0.3-0.8,0.8-0.8s0.7,0.3,0.7,0.8v7h2.2v-3.3c0-0.4,0.3-0.8,0.8-0.8H12c0.4,0,0.8,0.3,0.8,0.8v3.3H15v-7
		c0-0.4,0.3-0.8,0.8-0.8c0.5,0,0.8,0.3,0.8,0.8v7.8C16.4,14.8,16.1,15.1,15.7,15.1z"/>
</g>
</svg>
