<svg width="23" height="18" viewBox="0 0 23 18" fill="none" xmlns="http://www.w3.org/2000/svg">
<g clip-path="url(#clip0_777_728)">
<path d="M18.889 7.48866C19.366 7.51263 19.8428 7.43701 20.2889 7.26661C20.7351 7.09622 21.1409 6.83478 21.4805 6.49896C21.8201 6.16313 22.086 5.76027 22.2614 5.31603C22.4367 4.87178 22.5177 4.3959 22.499 3.91866C22.5114 3.00212 22.1877 2.11277 21.589 1.41866C21.249 1.04296 20.8315 0.745559 20.3654 0.547006C19.8992 0.348453 19.3955 0.253483 18.889 0.26866C18.4073 0.254632 17.9278 0.339682 17.4802 0.518539C17.0327 0.697397 16.6267 0.966252 16.2873 1.30845C15.9479 1.65064 15.6824 2.05888 15.5073 2.50787C15.3321 2.95687 15.251 3.43705 15.269 3.91866C15.2503 4.39678 15.3315 4.87356 15.5074 5.31852C15.6834 5.76348 15.9502 6.16684 16.2909 6.50282C16.6316 6.8388 17.0386 7.10001 17.486 7.26976C17.9333 7.43951 18.4112 7.51407 18.889 7.48866ZM18.889 2.08866C19.125 2.07998 19.3603 2.12059 19.5797 2.20787C19.7992 2.29516 19.9981 2.42722 20.1637 2.59563C20.3292 2.76404 20.4579 2.96511 20.5415 3.18602C20.6251 3.40692 20.6617 3.64282 20.649 3.87866C20.6673 4.12027 20.6354 4.36304 20.5555 4.59178C20.4756 4.82052 20.3493 5.03029 20.1845 5.20795C20.0198 5.38562 19.8201 5.52735 19.5981 5.62428C19.376 5.7212 19.1363 5.77123 18.894 5.77123C18.6517 5.77123 18.412 5.7212 18.19 5.62428C17.9679 5.52735 17.7682 5.38562 17.6035 5.20795C17.4387 5.03029 17.3124 4.82052 17.2325 4.59178C17.1526 4.36304 17.1208 4.12027 17.139 3.87866C17.1265 3.64455 17.1626 3.41039 17.245 3.19089C17.3273 2.97139 17.4542 2.7713 17.6176 2.6032C17.781 2.43509 17.9774 2.3026 18.1945 2.21405C18.4116 2.1255 18.6446 2.08281 18.879 2.08866H18.889Z" fill="#333333"/>
<path d="M11.789 8.01877C11.5441 8.0214 11.3101 8.12055 11.1379 8.29467C10.9656 8.46879 10.869 8.70384 10.869 8.94877V10.9488C10.3375 10.6423 9.73244 10.4867 9.11902 10.4988C8.64071 10.4863 8.16489 10.5716 7.72063 10.7492C7.27636 10.9269 6.87297 11.1932 6.53511 11.532C6.19725 11.8708 5.93201 12.2749 5.75559 12.7197C5.57916 13.1644 5.49527 13.6405 5.50902 14.1188C5.49665 14.5962 5.58157 15.0712 5.75861 15.5148C5.93565 15.9583 6.20111 16.3612 6.53883 16.699C6.87654 17.0367 7.27945 17.3021 7.72303 17.4792C8.16661 17.6562 8.64158 17.7411 9.11902 17.7288C9.79476 17.7392 10.4588 17.5514 11.029 17.1888C11.1113 17.3213 11.2262 17.4304 11.3628 17.5057C11.4994 17.581 11.6531 17.6199 11.809 17.6188C12.054 17.6188 12.289 17.5222 12.4631 17.3499C12.6372 17.1777 12.7364 16.9437 12.739 16.6988V8.94877C12.7391 8.82494 12.7144 8.70235 12.6664 8.58819C12.6184 8.47404 12.5481 8.37061 12.4596 8.28399C12.3711 8.19736 12.2662 8.12928 12.1511 8.08374C12.0359 8.03819 11.9128 8.01611 11.789 8.01877ZM9.11902 12.3188C9.35508 12.3117 9.59007 12.3533 9.80934 12.441C10.0286 12.5288 10.2275 12.6607 10.3935 12.8286C10.5596 12.9966 10.6893 13.1969 10.7745 13.4171C10.8598 13.6374 10.8987 13.8728 10.889 14.1088C10.9017 14.3459 10.8648 14.5831 10.7807 14.8052C10.6967 15.0274 10.5672 15.2295 10.4007 15.3989C10.2342 15.5682 10.0342 15.701 9.81357 15.7888C9.5929 15.8766 9.35636 15.9174 9.11902 15.9088C8.88291 15.9145 8.64815 15.8716 8.42936 15.7826C8.21057 15.6937 8.01244 15.5606 7.84733 15.3918C7.68221 15.2229 7.55364 15.0218 7.46963 14.8011C7.38562 14.5804 7.34797 14.3447 7.35902 14.1088C7.34789 13.8733 7.38556 13.6381 7.46967 13.4178C7.55378 13.1976 7.68251 12.9972 7.84779 12.8291C8.01306 12.661 8.21131 12.5289 8.43007 12.4411C8.64884 12.3533 8.8834 12.3116 9.11902 12.3188Z" fill="#333333"/>
<path d="M21.569 10.5987C21.4123 10.5996 21.2584 10.6404 21.1219 10.7174C20.9854 10.7944 20.8708 10.905 20.789 11.0387C20.2218 10.6774 19.5614 10.4897 18.889 10.4987C18.4103 10.4864 17.934 10.5715 17.4892 10.7491C17.0444 10.9266 16.6404 11.1928 16.3018 11.5315C15.9631 11.8701 15.6969 12.2741 15.5194 12.7189C15.3418 13.1637 15.2566 13.64 15.269 14.1187C15.258 14.5967 15.3442 15.0718 15.5224 15.5155C15.7005 15.9591 15.9669 16.3619 16.3054 16.6994C16.644 17.037 17.0475 17.3023 17.4916 17.4792C17.9357 17.6562 18.4111 17.7411 18.889 17.7287C19.5592 17.7443 20.2182 17.556 20.779 17.1887C20.8852 17.3597 21.044 17.4916 21.2315 17.5647C21.419 17.6377 21.6252 17.648 21.8191 17.5939C22.0129 17.5398 22.184 17.4243 22.3066 17.2647C22.4292 17.1051 22.4967 16.91 22.499 16.7087V11.5287C22.499 11.2821 22.401 11.0455 22.2266 10.8711C22.0522 10.6967 21.8157 10.5987 21.569 10.5987ZM18.879 12.3187C19.1151 12.3117 19.3501 12.3533 19.5693 12.441C19.7886 12.5287 19.9875 12.6607 20.1535 12.8286C20.3196 12.9965 20.4493 13.1969 20.5345 13.4171C20.6198 13.6373 20.6587 13.8728 20.649 14.1087C20.649 14.5755 20.4636 15.0232 20.1335 15.3532C19.8035 15.6833 19.3558 15.8687 18.889 15.8687C18.4222 15.8687 17.9746 15.6833 17.6445 15.3532C17.3144 15.0232 17.129 14.5755 17.129 14.1087C17.118 13.8741 17.1553 13.6398 17.2389 13.4202C17.3224 13.2007 17.4502 13.0008 17.6144 12.8328C17.7786 12.6649 17.9756 12.5325 18.1932 12.4441C18.4108 12.3557 18.6442 12.313 18.879 12.3187Z" fill="#333333"/>
<path d="M9.11902 0.358685C8.61349 0.343584 8.11065 0.437595 7.64473 0.634317C7.17881 0.83104 6.76075 1.12585 6.41902 1.49869C6.07759 1.12818 5.661 0.834828 5.19711 0.638234C4.73322 0.441639 4.2327 0.346333 3.72902 0.358685C3.05249 0.351257 2.38974 0.550081 1.82902 0.928685C1.74469 0.798109 1.6293 0.690481 1.49318 0.615439C1.35706 0.540396 1.20445 0.500281 1.04902 0.498685C0.802367 0.498685 0.565818 0.596667 0.391409 0.771076C0.217 0.945485 0.119019 1.18203 0.119019 1.42869L0.119019 6.56869C0.121652 6.8136 0.220795 7.04759 0.39492 7.21984C0.569044 7.39209 0.80409 7.4887 1.04902 7.48869C1.16984 7.49001 1.28973 7.46751 1.40186 7.4225C1.51398 7.37748 1.61614 7.31081 1.7025 7.22631C1.78886 7.14181 1.85773 7.04112 1.90518 6.93C1.95262 6.81888 1.97771 6.6995 1.97902 6.57869V5.69869C1.97902 4.89868 1.97902 3.79869 1.97902 3.34869C1.97902 3.23869 1.97902 3.15869 1.97902 3.14869C2.12709 2.83539 2.36485 2.5731 2.66216 2.39508C2.95946 2.21705 3.30293 2.1313 3.64902 2.14869C3.89383 2.12946 4.1399 2.16318 4.37051 2.24757C4.60112 2.33195 4.81085 2.46501 4.98543 2.63769C5.16002 2.81038 5.29536 3.01864 5.38226 3.24832C5.46916 3.47799 5.50557 3.72368 5.48902 3.96869V6.56869C5.48902 6.81534 5.587 7.05189 5.76141 7.22629C5.93582 7.4007 6.17237 7.49869 6.41902 7.49869C6.66567 7.49869 6.90222 7.4007 7.07663 7.22629C7.25104 7.05189 7.34902 6.81534 7.34902 6.56869V3.96869C7.33625 3.73197 7.37314 3.4952 7.4573 3.27358C7.54147 3.05196 7.67105 2.8504 7.83774 2.68183C8.00442 2.51326 8.20452 2.38142 8.42517 2.29477C8.64583 2.20812 8.88217 2.16858 9.11902 2.17869C9.42428 2.15563 9.72974 2.22064 9.99916 2.36598C10.2686 2.51133 10.4907 2.73092 10.639 2.99869C10.8123 3.3985 10.8877 3.83388 10.859 4.26869V6.56869C10.859 6.81534 10.957 7.05189 11.1314 7.22629C11.3058 7.4007 11.5424 7.49869 11.789 7.49869C12.0357 7.49869 12.2722 7.4007 12.4466 7.22629C12.621 7.05189 12.719 6.81534 12.719 6.56869V3.96869C12.7402 3.48982 12.6617 3.01178 12.4884 2.56487C12.3151 2.11796 12.0508 1.71193 11.7124 1.37252C11.3739 1.03311 10.9686 0.767733 10.5222 0.593208C10.0758 0.418684 9.59794 0.338822 9.11902 0.358685Z" fill="#333333"/>
</g>
<defs>
<clipPath id="clip0_777_728">
<rect width="22.38" height="17.46" fill="white" transform="translate(0.119019 0.268555)"/>
</clipPath>
</defs>
</svg>
