<svg width="18" height="18" viewBox="0 0 18 18" fill="none" xmlns="http://www.w3.org/2000/svg">
<g clip-path="url(#clip0_1712_5993)">
<path d="M17.5 8.99733C17.5 13.6901 13.6946 17.4947 9 17.4947C4.30544 17.4947 0.5 13.6901 0.5 8.99733C0.5 4.30453 4.30544 0.5 9 0.5C13.6946 0.5 17.5 4.30453 17.5 8.99733Z" stroke="black"/>
<path d="M6.94549 8.20335H13.7484V9.39832H6.94549V8.20335ZM7.4696 5.50943H13.2453V6.7044H7.4696V5.50943ZM9.6499 4H10.9602V9.07338H9.6499V4ZM6.94549 12.1551C8.3501 12.1027 10.5618 11.9769 12.6268 11.8616V12.9937C10.6667 13.1614 8.5912 13.3187 7.11321 13.4235L6.94549 12.1551ZM10.9602 10.7086L12.0503 10.1321C12.826 11.065 13.6751 12.3019 14 13.1929L12.805 13.8533C12.522 12.9937 11.7254 11.673 10.9602 10.7086ZM8.84277 9.04193L10.2369 9.40881C9.77568 10.6247 9.1782 11.9665 8.69602 12.8365L7.57442 12.4801C8.04612 11.5577 8.57023 10.1216 8.84277 9.04193ZM4.59748 4.96436L5.28931 4.04193C5.97065 4.2935 6.86164 4.74423 7.30189 5.11111L6.56813 6.13836C6.15933 5.76101 5.28931 5.25786 4.59748 4.96436ZM4 7.826L4.6499 6.87212C5.33124 7.10273 6.2327 7.51153 6.69392 7.85744L5.99161 8.90566C5.57233 8.55975 4.69182 8.08805 4 7.826ZM4.2935 12.8889C4.81761 12.1027 5.57233 10.7925 6.14885 9.587L7.10273 10.3836C6.5891 11.4948 5.97065 12.6897 5.38365 13.7065L4.2935 12.8889Z" fill="black"/>
</g>
<defs>
<clipPath id="clip0_1712_5993">
<rect width="18" height="18" fill="white"/>
</clipPath>
</defs>
</svg>
