<svg width="40" height="40" viewBox="0 0 40 40" fill="none" xmlns="http://www.w3.org/2000/svg">
<path d="M14.545 28.147C13.7593 28.147 13.0934 27.8739 12.5473 27.3278C12.0011 26.7816 11.728 26.1157 11.728 25.33C11.728 24.5443 12.0011 23.8784 12.5473 23.3322C13.0934 22.7861 13.7593 22.513 14.545 22.513C15.3307 22.513 15.9966 22.7861 16.5428 23.3322C17.0889 23.8784 17.362 24.5443 17.362 25.33C17.362 26.1157 17.0889 26.7816 16.5428 27.3278C15.9966 27.8739 15.3307 28.147 14.545 28.147ZM28.6875 28.147C28.6875 25.8091 28.242 23.6101 27.3509 21.55C26.4598 19.49 25.2477 17.6934 23.7146 16.1604C22.1816 14.6273 20.385 13.4152 18.325 12.5241C16.2649 11.633 14.0659 11.1875 11.728 11.1875V8.60046C14.43 8.60046 16.9644 9.11308 19.331 10.1383C21.6977 11.1635 23.7673 12.5625 25.5399 14.3351C27.3125 16.1077 28.7115 18.1773 29.7367 20.544C30.7619 22.9106 31.2745 25.445 31.2745 28.147H28.6875ZM21.8462 28.147C21.8462 25.1192 20.9168 22.6375 19.058 20.7021C17.1991 18.7666 14.7558 17.7988 11.728 17.7988V15.2118C13.5869 15.2118 15.2924 15.5376 16.8446 16.1891C18.3968 16.8407 19.7335 17.7413 20.8545 18.8911C21.9756 20.0409 22.8523 21.4063 23.4847 22.9873C24.1171 24.5682 24.4333 26.2881 24.4333 28.147H21.8462Z" fill="white"/>
</svg>
