<svg width="33" height="34" viewBox="0 0 33 34" fill="none" xmlns="http://www.w3.org/2000/svg">
<path d="M16.3605 24.0667C14.4143 24.0667 12.753 23.3784 11.3764 22.0018C9.99983 20.6253 9.31155 18.9639 9.31155 17.0177C9.31155 15.0715 9.99983 13.4042 11.3764 12.0158C12.753 10.6273 14.4143 9.93313 16.3605 9.93313C18.3067 9.93313 19.974 10.6273 21.3625 12.0158C22.7509 13.4042 23.4451 15.0715 23.4451 17.0177C23.4451 18.9639 22.7509 20.6253 21.3625 22.0018C19.974 23.3784 18.3067 24.0667 16.3605 24.0667ZM1.76415 18.6197C1.33694 18.6197 0.96313 18.4595 0.642722 18.1391C0.322313 17.8187 0.162109 17.4449 0.162109 17.0177C0.162109 16.5668 0.322313 16.1811 0.642722 15.8607C0.96313 15.5403 1.33694 15.3801 1.76415 15.3801H5.32424C5.77519 15.3801 6.16086 15.5403 6.48127 15.8607C6.80168 16.1811 6.96188 16.5668 6.96188 17.0177C6.96188 17.4687 6.80168 17.8484 6.48127 18.1569C6.16086 18.4655 5.77519 18.6197 5.32424 18.6197H1.76415ZM27.3968 18.6197C26.9696 18.6197 26.5958 18.4595 26.2754 18.1391C25.955 17.8187 25.7948 17.4449 25.7948 17.0177C25.7948 16.5668 25.955 16.1811 26.2754 15.8607C26.5958 15.5403 26.9696 15.3801 27.3968 15.3801H30.9569C31.4078 15.3801 31.7935 15.5403 32.1139 15.8607C32.4343 16.1811 32.5945 16.5668 32.5945 17.0177C32.5945 17.4687 32.4343 17.8484 32.1139 18.1569C31.7935 18.4655 31.4078 18.6197 30.9569 18.6197H27.3968ZM16.3605 7.58347C15.9096 7.58347 15.5298 7.42326 15.2213 7.10285C14.9128 6.78245 14.7585 6.40864 14.7585 5.98143V2.42133C14.7585 1.97039 14.9187 1.58471 15.2391 1.2643C15.5595 0.943896 15.9333 0.783691 16.3605 0.783691C16.8115 0.783691 17.1971 0.943896 17.5176 1.2643C17.838 1.58471 17.9982 1.97039 17.9982 2.42133V5.98143C17.9982 6.40864 17.838 6.78245 17.5176 7.10285C17.1971 7.42326 16.8115 7.58347 16.3605 7.58347ZM16.3605 33.2161C15.9096 33.2161 15.5298 33.0559 15.2213 32.7355C14.9128 32.4151 14.7585 32.0413 14.7585 31.6141V28.054C14.7585 27.603 14.9187 27.2174 15.2391 26.897C15.5595 26.5766 15.9333 26.4164 16.3605 26.4164C16.8115 26.4164 17.1971 26.5766 17.5176 26.897C17.838 27.2174 17.9982 27.603 17.9982 28.054V31.6141C17.9982 32.0413 17.838 32.4151 17.5176 32.7355C17.1971 33.0559 16.8115 33.2161 16.3605 33.2161ZM7.4603 10.3603L5.43104 8.36669C5.09877 8.08188 4.93263 7.70807 4.93263 7.24526C4.93263 6.78245 5.09877 6.3849 5.43104 6.05263C5.71585 5.74409 6.08373 5.58982 6.53467 5.58982C6.98562 5.58982 7.37723 5.74409 7.7095 6.05263L9.73876 8.08188C10.0473 8.39042 10.2016 8.77016 10.2016 9.22111C10.2016 9.67205 10.0473 10.0399 9.73876 10.3247C9.43021 10.657 9.04454 10.8291 8.58173 10.841C8.11891 10.8528 7.7451 10.6926 7.4603 10.3603ZM25.0471 27.9472L23.0179 25.9179C22.6856 25.6331 22.5195 25.2712 22.5195 24.8321C22.5195 24.393 22.6975 24.0074 23.0535 23.6751C23.3146 23.3665 23.6765 23.2123 24.1393 23.2123C24.6021 23.2123 24.9878 23.3665 25.2964 23.6751L27.3256 25.6331C27.6341 25.9417 27.7884 26.3273 27.7884 26.7902C27.7884 27.253 27.6341 27.6386 27.3256 27.9472C27.0171 28.2795 26.6373 28.4456 26.1864 28.4456C25.7354 28.4456 25.3557 28.2795 25.0471 27.9472ZM23.0535 10.3603C22.7212 10.0518 22.5551 9.67205 22.5551 9.22111C22.5551 8.77016 22.7212 8.39042 23.0535 8.08188L25.0115 6.05263C25.2964 5.74409 25.6702 5.58982 26.133 5.58982C26.5958 5.58982 26.9933 5.74409 27.3256 6.05263C27.6341 6.36117 27.7884 6.74091 27.7884 7.19186C27.7884 7.6428 27.6341 8.02254 27.3256 8.33109L25.2964 10.3603C24.9878 10.6926 24.614 10.8588 24.1749 10.8588C23.7358 10.8588 23.362 10.6926 23.0535 10.3603ZM5.43104 27.9472C5.09877 27.6624 4.93263 27.2945 4.93263 26.8436C4.93263 26.3926 5.09877 26.001 5.43104 25.6687L7.4603 23.6395C7.7451 23.3309 8.10705 23.1707 8.54612 23.1589C8.9852 23.147 9.35901 23.3072 9.66755 23.6395C9.99983 23.948 10.166 24.3337 10.166 24.7965C10.166 25.2593 10.0117 25.6331 9.70315 25.9179L7.7451 27.9472C7.43656 28.2795 7.05089 28.4456 6.58807 28.4456C6.12526 28.4456 5.73959 28.2795 5.43104 27.9472Z" fill="black"/>
</svg>
