<?xml version="1.0" encoding="utf-8"?>
<!-- Generator: Adobe Illustrator 24.2.1, SVG Export Plug-In . SVG Version: 6.00 Build 0)  -->
<svg version="1.1" id="圖層_1" xmlns="http://www.w3.org/2000/svg" xmlns:xlink="http://www.w3.org/1999/xlink" x="0px" y="0px"
	 width="52px" height="40px" viewBox="0 0 52 40" style="enable-background:new 0 0 52 40;" xml:space="preserve">
<style type="text/css">
	.st0{fill:#333333;}
</style>
<path class="st0" d="M26,10c-5.5,0-10,4.5-10,10.1c0,5,3.7,9.2,8.4,9.9v-7h-2.5v-2.9h2.5v-2.2c0-2.5,1.5-3.9,3.8-3.9
	c1.1,0,2.2,0.2,2.2,0.2v2.5h-1.3c-1.2,0-1.6,0.8-1.6,1.6v1.9h2.8L29.9,23h-2.3v7c4.8-0.8,8.4-4.9,8.4-9.9C36,14.5,31.5,10,26,10z"/>
</svg>
