<?xml version="1.0" encoding="utf-8"?>
<!-- Generator: Adobe Illustrator 24.2.1, SVG Export Plug-In . SVG Version: 6.00 Build 0)  -->
<svg version="1.1" id="圖層_1" xmlns="http://www.w3.org/2000/svg" xmlns:xlink="http://www.w3.org/1999/xlink" x="0px" y="0px"
	 width="52px" height="40px" viewBox="0 0 52 40" style="enable-background:new 0 0 52 40;" xml:space="preserve">
<style type="text/css">
	.st0{fill:#333333;}
</style>
<path class="st0" d="M22.4,29c7.7,0,12-7,12-13c0-0.2,0-0.4,0-0.6c0.8-0.6,1.5-1.4,2.1-2.4c-0.8,0.4-1.6,0.6-2.4,0.8
	c0.9-0.6,1.5-1.5,1.9-2.5c-0.8,0.5-1.7,0.9-2.7,1.1c-0.6-0.7-1.3-1.1-2.2-1.3s-1.7-0.1-2.5,0.2c-0.8,0.3-1.5,0.9-1.9,1.7
	c-0.5,0.8-0.7,1.6-0.7,2.5c0,0.4,0,0.7,0.1,1c-1.7-0.1-3.3-0.6-4.8-1.4c-1.5-0.8-2.8-2-3.9-3.4c-0.5,1-0.7,2.2-0.5,3.3
	c0.2,1.1,0.9,2.1,1.8,2.7c-0.7,0-1.3-0.2-1.9-0.6c0,0,0,0,0,0.1c0,1.1,0.3,2.1,0.9,2.9c0.6,0.8,1.5,1.4,2.4,1.6
	c-0.4,0.1-0.7,0.2-1.1,0.2c-0.3,0-0.5,0-0.8-0.1c0.3,0.9,0.8,1.7,1.5,2.3c0.7,0.6,1.6,0.9,2.4,0.9C20.7,26.3,18.9,27,17,27
	c-0.3,0-0.7,0-1-0.1C17.9,28.3,20.2,29,22.4,29"/>
</svg>
