<svg width="14" height="18" viewBox="0 0 14 18" fill="none" xmlns="http://www.w3.org/2000/svg">
<path d="M8 3.92308C8 3.43269 8.4375 3 9 3H12.9688C13.125 3 13.25 3.02885 13.375 3.08654C13.4688 3.11538 13.5938 3.20192 13.6875 3.28846C13.875 3.46154 13.9688 3.69231 14 3.92308V7.61538C14 8.13462 13.5313 8.53846 13 8.53846C12.4375 8.53846 12 8.13462 12 7.61538V6.17308L6.6875 11.0481C6.3125 11.4231 5.65625 11.4231 5.28125 11.0481C4.875 10.7019 4.875 10.0962 5.28125 9.75L10.5625 4.84615H9C8.4375 4.84615 8 4.44231 8 3.92308ZM0 5.76923C0 4.75962 0.875 3.92308 2 3.92308H5C5.53125 3.92308 6 4.35577 6 4.84615C6 5.36538 5.53125 5.76923 5 5.76923H2V14.0769H11V11.3077C11 10.8173 11.4375 10.3846 12 10.3846C12.5313 10.3846 13 10.8173 13 11.3077V14.0769C13 15.1154 12.0938 15.9231 11 15.9231H2C0.875 15.9231 0 15.1154 0 14.0769V5.76923Z" fill="black"/>
</svg>
