<?xml version="1.0" encoding="utf-8"?>
<!-- Generator: Adobe Illustrator 24.2.1, SVG Export Plug-In . SVG Version: 6.00 Build 0)  -->
<svg version="1.1" id="圖層_1" xmlns="http://www.w3.org/2000/svg" xmlns:xlink="http://www.w3.org/1999/xlink" x="0px" y="0px"
	 width="80.7px" height="58.2px" viewBox="0 0 80.7 58.2" style="enable-background:new 0 0 80.7 58.2;" xml:space="preserve">
<style type="text/css">
	.st0{fill:#1F333D;}
	.st1{fill:#B3C33E;}
</style>
<path class="st0" d="M11.6,29.1c0-4.6,1.8-9,5.1-12.2s7.6-5.1,12.2-5.1h6.7V0.1c-5.3,0-6.8-0.4-12.3,0.7c-0.1,0-0.1,0-0.2,0
	C16.6,2.1,10.7,5.7,6.5,10.8C2.3,16,0,22.4,0,29.1C0,45,13,58.2,28.9,58.2h29.2V0.1H46.9v46.4l-18-0.1c-4.6,0-9-1.8-12.3-5.1
	C13.4,38.1,11.6,33.7,11.6,29.1L11.6,29.1z"/>
<path class="st1" d="M22.6,29.4c0,3.7,2.8,6.2,6.5,6.2h6.5V22.7h-6.2c-1.8,0-3.5,0.7-4.8,2C23.4,25.9,22.6,27.6,22.6,29.4z"/>
<path class="st0" d="M77.5,21.1h-13v37.2h13V21.1z"/>
<path class="st1" d="M64.6,0.1h11.3v3.3h-8.1v6.4h8.1V13H64.6V0.1z"/>
<path class="st0" d="M80.7,4.8H69.5v3.3h8.1v6.4h-8.1v3.2h11.3V4.8z"/>
</svg>
