<?xml version="1.0" encoding="utf-8"?>
<!-- Generator: Adobe Illustrator 26.4.1, SVG Export Plug-In . SVG Version: 6.00 Build 0)  -->
<svg version="1.1" id="圖層_1" xmlns="http://www.w3.org/2000/svg" xmlns:xlink="http://www.w3.org/1999/xlink" x="0px" y="0px"
	 width="127.7px" height="45px" viewBox="0 0 127.7 45" style="enable-background:new 0 0 127.7 45;" xml:space="preserve">
<style type="text/css">
	.st0{fill-rule:evenodd;clip-rule:evenodd;fill:#4A8004;}
	.st1{fill-rule:evenodd;clip-rule:evenodd;fill:#274602;}
	.st2{fill-rule:evenodd;clip-rule:evenodd;fill:#FFC300;}
	.st3{fill:#FFFFFF;}
</style>
<g>
	<path class="st0" d="M0,1.4C0,0.5,0.4,0,1.1,0h125.6c0.7,0,1.1,0.5,1.1,1.4v42.2c0,0.9-0.4,1.4-1.1,1.4H1.1C0.4,45,0,44.5,0,43.6
		V1.4z"/>
	<g>
		<path class="st1" d="M95.6,13.6l-1.3-0.4c0-0.8,0.3-1.4,0.7-1.8c0.3-0.3,0.7-0.4,1.2-0.5l24.5-3.1c2-0.3,3.1,0.6,3.1,2.5l0.5,21.8
			c0,1.9-1,2.8-3.1,2.7L97.7,33c0-0.4,0-0.7,0-1.1l21.7,1.7c1.9,0.1,2.8-0.7,2.7-2.4l-0.4-19.6c-0.1-1.8-1-2.5-2.8-2.2l-21.7,2.7
			C96.4,12.3,95.8,12.8,95.6,13.6z"/>
		<g>
			<path class="st2" d="M119.8,8.4c1.4-0.1,2.3,0.4,2.6,1.6c0.1,0.4,0.2,0.8,0.2,1.3l0.5,21.2c0,0.1,0,0.2,0,0.3V33
				c0,0.1,0,0.1,0,0.1c0,1.8-0.9,2.7-2.9,2.6c-0.1,0-0.1,0-0.2,0l-23.2-1.8v-2l21.3,1.6c0,0,0.1,0,0.1,0c0.8,0,1.4-0.1,1.8-0.4
				c0.3-0.4,0.4-0.9,0.4-1.6l-0.4-19c0-0.5-0.1-0.9-0.2-1.2c0,0-0.1-0.1-0.1-0.1c-0.4-0.3-0.9-0.4-1.5-0.3c-0.1,0-0.3,0-0.4,0
				l-21.6,2.7c-0.8,0.1-1.3,0.5-1.5,1.1l-1.8-1.2c0.1-0.6,0.3-1.1,0.7-1.3c0.3-0.4,0.8-0.7,1.5-0.8l24.2-3
				C119.5,8.4,119.7,8.4,119.8,8.4z"/>
		</g>
		<g>
			<g>
				<path class="st2" d="M111.9,15.3c0.3,0.3,0.5,0.7,0.5,1.1c0,0.4-0.2,0.8-0.5,1.1c-0.3,0.3-0.6,0.5-1,0.5c-0.4,0-0.8-0.2-1.1-0.5
					c-0.3-0.3-0.5-0.7-0.5-1.1c0-0.4,0.2-0.7,0.5-1.1c0.3-0.3,0.7-0.5,1.1-0.5C111.3,14.8,111.6,15,111.9,15.3z M105.4,14.8
					c0.4,0,0.8,0.2,1.1,0.5c0.3,0.3,0.5,0.7,0.5,1.1c0,0.4-0.2,0.8-0.5,1.1c-0.3,0.3-0.6,0.5-1.1,0.5c-0.4,0-0.8-0.2-1.1-0.5
					c-0.3-0.3-0.5-0.7-0.5-1.1c0-0.4,0.2-0.7,0.5-1.1C104.6,15,105,14.8,105.4,14.8z M105.4,20.5c0.4,0,0.8,0.2,1.1,0.5
					c0.3,0.3,0.5,0.6,0.5,1.1c0,0.4-0.2,0.8-0.5,1.1c-0.3,0.3-0.6,0.5-1.1,0.5c-0.4,0-0.8-0.2-1.1-0.5c-0.3-0.3-0.5-0.7-0.5-1.1
					c0-0.4,0.2-0.8,0.5-1.1C104.6,20.6,105,20.5,105.4,20.5z M110.9,20.5c0.4,0,0.7,0.2,1,0.5c0.3,0.3,0.5,0.6,0.5,1.1
					c0,0.4-0.2,0.8-0.5,1.1c-0.3,0.3-0.6,0.5-1,0.5c-0.4,0-0.8-0.2-1.1-0.5c-0.3-0.3-0.5-0.7-0.5-1.1c0-0.4,0.2-0.8,0.5-1.1
					C110.1,20.6,110.4,20.5,110.9,20.5z M100,14.8c0.4,0,0.7,0.2,1.1,0.5c0.3,0.3,0.5,0.7,0.5,1.1c0,0.4-0.2,0.8-0.5,1.1
					c-0.3,0.3-0.7,0.5-1.1,0.5c-0.4,0-0.8-0.2-1.1-0.5c-0.3-0.3-0.5-0.7-0.5-1.1c0-0.4,0.2-0.7,0.5-1.1C99.2,15,99.5,14.8,100,14.8z
					 M98.9,21c0.3-0.3,0.7-0.5,1.1-0.5c0.4,0,0.7,0.2,1.1,0.5c0.3,0.3,0.5,0.6,0.5,1.1c0,0.4-0.2,0.8-0.5,1.1
					c-0.3,0.3-0.7,0.5-1.1,0.5c-0.4,0-0.8-0.2-1.1-0.5c-0.3-0.3-0.5-0.7-0.5-1.1C98.4,21.6,98.6,21.2,98.9,21z M99.8,26.7
					c0.4,0,0.8,0.2,1.1,0.5c0.3,0.3,0.5,0.6,0.5,1c0,0.4-0.2,0.8-0.5,1.1c-0.3,0.3-0.6,0.5-1.1,0.5c-0.4,0-0.8-0.2-1.1-0.5
					c-0.3-0.3-0.5-0.7-0.5-1.1c0-0.4,0.2-0.7,0.5-1C99,26.9,99.3,26.7,99.8,26.7z M111.7,27.2c0.3,0.3,0.5,0.6,0.5,1
					c0,0.4-0.2,0.8-0.5,1.1c-0.3,0.3-0.7,0.5-1.1,0.5c-0.5,0-0.8-0.2-1.1-0.5c-0.3-0.3-0.5-0.7-0.5-1.1c0-0.4,0.2-0.7,0.5-1
					c0.3-0.3,0.7-0.5,1.1-0.5C111.1,26.7,111.4,26.9,111.7,27.2z M106.7,28.2c0,0.4-0.2,0.8-0.5,1.1c-0.3,0.3-0.6,0.5-1,0.5
					c-0.4,0-0.8-0.2-1.1-0.5c-0.3-0.3-0.5-0.7-0.5-1.1c0-0.4,0.2-0.7,0.5-1c0.3-0.3,0.7-0.5,1.1-0.5c0.4,0,0.7,0.2,1,0.5
					C106.6,27.5,106.7,27.8,106.7,28.2z M117.9,15.3c0.3,0.3,0.5,0.7,0.5,1.1c0,0.4-0.2,0.8-0.5,1.1c-0.3,0.3-0.7,0.5-1.1,0.5
					c-0.4,0-0.8-0.2-1.1-0.5c-0.3-0.3-0.5-0.7-0.5-1.1c0-0.4,0.2-0.7,0.5-1.1c0.3-0.3,0.7-0.5,1.1-0.5
					C117.3,14.8,117.6,15,117.9,15.3z M116.9,20.5c0.4,0,0.7,0.2,1.1,0.5c0.3,0.3,0.5,0.6,0.5,1.1c0,0.4-0.2,0.8-0.5,1.1
					c-0.3,0.3-0.7,0.5-1.1,0.5c-0.4,0-0.8-0.2-1.1-0.5c-0.3-0.3-0.5-0.7-0.5-1.1c0-0.4,0.2-0.8,0.5-1.1
					C116.1,20.6,116.4,20.5,116.9,20.5z M116.7,26.7c0.4,0,0.8,0.2,1.1,0.5c0.3,0.3,0.5,0.6,0.5,1c0,0.4-0.2,0.8-0.5,1.1
					c-0.3,0.3-0.6,0.5-1.1,0.5c-0.4,0-0.8-0.2-1.1-0.5c-0.3-0.3-0.5-0.7-0.5-1.1c0-0.4,0.2-0.7,0.5-1
					C115.9,26.9,116.2,26.7,116.7,26.7z"/>
				<g>
					<path class="st1" d="M109.1,13.9c0.5-0.6,1.2-0.9,2-0.9c0.7,0,1.4,0.3,1.9,0.9c0.6,0.6,0.9,1.2,0.9,1.9c0,0.7-0.3,1.4-0.9,2
						c-0.5,0.6-1.2,0.8-1.9,0.8c-0.8,0-1.5-0.3-2-0.8c-0.5-0.6-0.8-1.2-0.8-2C108.3,15.1,108.5,14.4,109.1,13.9z"/>
				</g>
				<g>
					<path class="st1" d="M102.3,22.5c0,0.7-0.3,1.4-0.9,2c-0.5,0.6-1.1,0.8-1.9,0.8c-0.8,0-1.5-0.3-2-0.8c-0.6-0.6-0.8-1.2-0.8-2
						c0-0.7,0.3-1.3,0.8-1.9c0.5-0.6,1.2-0.9,2-0.9c0.7,0,1.3,0.3,1.9,0.9C102.1,21.1,102.3,21.8,102.3,22.5z"/>
				</g>
				<g>
					<path class="st1" d="M108.9,26.7c0.5-0.6,1.2-0.9,2-0.9c0.7,0,1.3,0.3,1.9,0.9c0.6,0.6,0.9,1.2,0.9,1.9c0,0.8-0.3,1.4-0.9,2
						c-0.5,0.6-1.1,0.8-1.9,0.8c-0.8,0-1.5-0.3-2-0.8c-0.6-0.6-0.8-1.2-0.8-2C108.1,27.9,108.4,27.2,108.9,26.7z"/>
				</g>
			</g>
		</g>
	</g>
	<g>
		<path class="st3" d="M7.6,18.6l0.7,0.6c0.1,0.1,0.1,0.1,0.1,0.2c0,0,0,0.1-0.1,0.1c-0.1,0-0.1,0-0.2,0.1c-0.2,0.3-0.4,0.6-0.7,0.9
			c-0.3,0.3-0.7,0.6-1.1,0.9c-0.1,0-0.2,0-0.2-0.1C6,21,5.8,20.9,5.7,20.8c-0.1,0-0.1-0.1-0.1-0.1c0,0,0,0,0-0.1
			c0.2-0.1,0.4-0.2,0.5-0.3c0.3-0.2,0.5-0.5,0.8-0.7C7.1,19.3,7.3,19.1,7.6,18.6C7.5,18.7,7.6,18.6,7.6,18.6z M17,14.1
			c0.1,0,0.2,0.1,0.2,0.2v0.5c0,0.1-0.1,0.2-0.2,0.2H5.8c-0.1,0-0.2-0.1-0.2-0.2v-0.5c0-0.1,0.1-0.2,0.2-0.2H17z M8.3,9.4
			C9,9.8,9.3,10,9.3,10c0,0.1,0,0.1-0.1,0.1c-0.1,0-0.2,0.1-0.3,0.1c-0.4,0.8-0.9,1.5-1.3,1.9c-0.2,0.3-0.6,0.6-1.2,1.1
			c-0.1,0-0.2,0-0.3-0.1c-0.1-0.1-0.3-0.2-0.4-0.3c-0.1,0-0.1-0.1-0.1-0.1c0.3-0.2,0.6-0.5,0.9-0.8c0.4-0.4,0.7-0.8,1-1.2
			c0.2-0.4,0.4-0.8,0.6-1.2C8.2,9.5,8.3,9.4,8.3,9.4z M16.6,17.4c0.1,0,0.2,0.1,0.2,0.2V18c0,0.1-0.1,0.2-0.2,0.2H6.2
			c-0.1,0-0.2-0.1-0.2-0.2v-0.5c0-0.1,0.1-0.2,0.2-0.2H16.6z M7.5,11.3h0.9v6.3c0,0.1-0.1,0.2-0.2,0.2H7.7c-0.1,0-0.2-0.1-0.2-0.2
			V11.3z M16.4,10.9c0.1,0,0.2,0.1,0.2,0.2v0.5c0,0.1-0.1,0.2-0.2,0.2H8.1c-0.1,0-0.2-0.1-0.2-0.2v-0.5c0-0.1,0.1-0.2,0.2-0.2H16.4z
			 M10.4,18.8c0.4,0.6,0.7,1.2,1,1.9c0,0.1,0,0.2-0.1,0.2c-0.3,0.2-0.6,0.3-0.8,0.3c-0.3-0.8-0.6-1.5-0.9-2.1c0-0.1,0.2-0.2,0.6-0.4
			C10.3,18.7,10.4,18.7,10.4,18.8z M9.8,11.3h0.9v6.3c0,0.1-0.1,0.2-0.2,0.2H10c-0.1,0-0.2-0.1-0.2-0.2V11.3z M12.1,11.3h0.9v6.3
			c0,0.1-0.1,0.2-0.2,0.2h-0.5c-0.1,0-0.2-0.1-0.2-0.2V11.3z M12.9,18.8c0.5,0.6,0.9,1.3,1.3,2c0,0.1,0,0.2-0.1,0.2
			c-0.3,0.2-0.6,0.3-0.8,0.3c-0.4-0.9-0.8-1.6-1.2-2.1c0-0.1,0.2-0.2,0.6-0.4C12.8,18.7,12.9,18.7,12.9,18.8z M14.5,11.3h0.9v6.3
			c0,0.1-0.1,0.2-0.2,0.2h-0.5c-0.1,0-0.2-0.1-0.2-0.2V11.3z M16.4,19.6c0.4,0.4,0.7,0.7,0.9,1c0,0,0,0.1-0.1,0.1
			c-0.3,0.4-0.4,0.6-0.4,0.6c-0.4-0.5-0.8-0.9-1.2-1.3c-0.4-0.3-0.7-0.5-0.9-0.7c0,0,0.1-0.2,0.4-0.6c0-0.1,0.1-0.1,0.1-0.1
			C15.7,19,16.1,19.3,16.4,19.6z"/>
		<path class="st3" d="M19.5,10H20c0.1,0,0.2,0.1,0.2,0.2v11c0,0.1-0.1,0.2-0.2,0.2h-0.5c-0.1,0-0.2-0.1-0.2-0.2v-11
			C19.3,10,19.4,10,19.5,10z M22.3,10v0.8h-2.4c-0.1,0-0.2,0-0.2-0.1v-0.5c0-0.1,0.1-0.1,0.2-0.1H22.3z M22.3,10
			c0.2,0,0.4,0,0.4,0.1c0.2,0.2,0.3,0.4,0.3,0.5l-1.3,3.3c0,0.1,0,0.1,0,0.1c0,0,0,0.1,0.1,0.1c0.5,0.5,0.8,1,1.1,1.5
			c0.2,0.5,0.3,0.9,0.3,1.3c0,0.8-0.1,1.3-0.4,1.7c-0.3,0.5-0.7,0.7-1.4,0.7c-0.4,0-0.6-0.1-0.6-0.3c0-0.2-0.1-0.4-0.2-0.7
			c0-0.1,0-0.2,0.1-0.2l0.7,0.1c0.3,0,0.5-0.1,0.6-0.4c0.1-0.2,0.1-0.6,0.1-1.1c0-0.4-0.1-0.7-0.3-1.2c-0.2-0.5-0.6-0.9-1.1-1.4
			c-0.1,0-0.1-0.1-0.1-0.1c0,0,0-0.1,0.1-0.2L22.3,10z M30.4,12.8c0.1,0,0.1,0.1,0.1,0.2v0.4c0,0.1,0,0.2-0.1,0.2h-7.6
			c-0.1,0-0.1-0.1-0.1-0.2V13c0-0.1,0-0.2,0.1-0.2H30.4z M30.5,19.2c0.1,0,0.1,0.1,0.1,0.2v0.4c0,0.1,0,0.2-0.1,0.2h-7.7
			c-0.1,0-0.1-0.1-0.1-0.2v-0.4c0-0.1,0-0.2,0.1-0.2H30.5z M30.1,10.6c0.1,0,0.1,0.1,0.1,0.2v0.4c0,0.1,0,0.2-0.1,0.2h-6.7
			c-0.1,0-0.1-0.1-0.1-0.2v-0.4c0-0.1,0-0.2,0.1-0.2H30.1z M23.9,14.5h5.8l-0.7,0.7h-4.2v2.4l-0.7,0.7c-0.1,0-0.2-0.1-0.2-0.2v-3.4
			C23.7,14.5,23.8,14.5,23.9,14.5z M28.9,15.2l0.7-0.7c0.1,0,0.2,0.1,0.2,0.2v3.4c0,0.1,0,0.2-0.1,0.2h-5.7l0.7-0.7h4.2V15.2z
			 M29.2,16c0.1,0,0.1,0,0.1,0.1v0.4c0,0.1,0,0.1-0.1,0.1h-4.9c-0.1,0-0.1,0-0.1-0.1v-0.4c0-0.1,0-0.1,0.1-0.1H29.2z M25.5,12.3
			c0.1,0.2,0.2,0.5,0.3,0.7c0,0-0.3,0.1-0.8,0.3c0-0.2-0.1-0.4-0.2-0.6c-0.1-0.3-0.3-0.5-0.5-0.8c0-0.1,0.2-0.2,0.7-0.4
			C25.2,11.8,25.4,12.1,25.5,12.3z M27.4,9.7c0,0.1,0,0.2-0.1,0.2c-0.1,0-0.1,0.1-0.1,0.3v0.7c0,0.1-0.1,0.2-0.2,0.2h-0.5
			c-0.1,0-0.2-0.1-0.2-0.2V9.7c0-0.1,0.1-0.2,0.2-0.2C27.1,9.5,27.4,9.6,27.4,9.7z M26.3,17.9h0.9v3.3c0,0.1-0.1,0.2-0.2,0.2h-0.5
			c-0.1,0-0.2-0.1-0.2-0.2V17.9z M28.3,11.6l0.7,0.3c0.1,0.1,0.2,0.1,0.2,0.2c0,0,0,0.1-0.1,0.1c-0.1,0-0.1,0-0.1,0.1
			c-0.2,0.5-0.4,0.9-0.6,1.1c0,0.1-0.1,0.1-0.1,0.1c0,0-0.1,0-0.2-0.1c-0.2-0.1-0.3-0.2-0.5-0.2c-0.1,0-0.1,0-0.1-0.1c0,0,0,0,0-0.1
			c0.2-0.2,0.3-0.5,0.4-0.6c0.1-0.2,0.2-0.5,0.3-0.7C28.2,11.6,28.2,11.6,28.3,11.6z"/>
		<path class="st3" d="M34.1,10.8l0.8,0.3c-0.1,0.8-0.3,1.6-0.5,2.3c-0.2,0.7-0.4,1.3-0.6,1.8c-0.2,0.6-0.4,1.1-0.7,1.6
			c-0.1,0-0.2,0-0.2-0.1c-0.2-0.1-0.4-0.2-0.5-0.3c-0.1,0-0.1,0-0.1-0.1c0.4-0.6,0.7-1.2,0.9-1.8c0.2-0.6,0.4-1.1,0.5-1.7
			C33.7,12.5,33.9,11.9,34.1,10.8C34,10.9,34,10.8,34.1,10.8z M36.1,10.5c0.1,0,0.1,0.1,0.1,0.2v0.4c0,0.1,0,0.2-0.1,0.2h-3.3
			c-0.1,0-0.1-0.1-0.1-0.2v-0.4c0-0.1,0-0.2,0.1-0.2H36.1z M33.6,14.4h0.5c0.1,0,0.2,0.1,0.2,0.2v6.5c0,0.1-0.1,0.2-0.2,0.2h-0.5
			c-0.1,0-0.2-0.1-0.2-0.2v-6.5C33.5,14.5,33.5,14.4,33.6,14.4z M35.9,14.4c0.1,0,0.2,0.1,0.2,0.2v5.3C36,20,36,20,35.9,20h-0.5
			c-0.1,0-0.2-0.1-0.2-0.2v-4.7H34c-0.1,0-0.1-0.1-0.1-0.2v-0.5c0-0.1,0-0.2,0.1-0.2H35.9z M35.6,18.7c0.1,0,0.1,0.1,0.1,0.2v0.4
			c0,0.1,0,0.2-0.1,0.2H34c-0.1,0-0.1-0.1-0.1-0.2v-0.4c0-0.1,0-0.2,0.1-0.2H35.6z M38.9,15c0.1,0,0.1,0.1,0.1,0.1
			c0,0.1,0,0.1-0.1,0.2c-0.1,0-0.2,0.1-0.2,0.2c0,1.4-0.1,2.3-0.2,3c-0.2,0.7-0.4,1.3-0.8,1.8c-0.3,0.4-0.6,0.7-1,1h-0.1
			c-0.2-0.1-0.5-0.2-0.7-0.2c0,0-0.1-0.1-0.1-0.1c0.5-0.3,0.9-0.6,1.2-0.9c0.3-0.3,0.5-0.8,0.6-1.3c0.2-0.6,0.3-1.5,0.3-2.8
			c0-0.1,0-0.4,0-0.8c0-0.1,0-0.1,0.1-0.1L38.9,15z M37.3,13.6l0.7,0.3c0.1,0,0.2,0.1,0.2,0.2c0,0.1,0,0.2-0.1,0.2
			c-0.1,0-0.2,0.1-0.2,0.2c-0.3,0.9-0.5,1.7-0.8,2.2C37,16.7,37,16.8,37,16.8c0,0-0.1,0-0.2-0.1c-0.2-0.1-0.3-0.1-0.4-0.2
			c-0.1,0-0.1,0-0.1-0.1c0,0,0-0.1,0-0.1c0.2-0.5,0.4-0.9,0.6-1.2c0.2-0.4,0.3-0.9,0.4-1.3C37.3,13.6,37.3,13.6,37.3,13.6z
			 M39.8,17.1c0.1,0,0.1,0,0.1,0.1v0.4c0,0.1,0,0.1-0.1,0.1h-3.1c-0.1,0-0.1,0-0.1-0.1v-0.4c0-0.1,0-0.1,0.1-0.1H39.8z M37.6,9.8
			c0,0,0,0.1-0.1,0.2v2.4c0,0.1,0.1,0.2,0.2,0.2h1.4c0.2,0,0.3-0.3,0.5-0.8l0.7,0.4c-0.3,0.8-0.6,1.1-1,1.1h-1.9
			c-0.4,0-0.6-0.2-0.6-0.5v-3c0-0.1,0-0.1,0.1-0.1C37.4,9.6,37.6,9.7,37.6,9.8z M39.4,10.1c0,0,0.1,0,0.1,0.1
			c0.3,0.4,0.5,0.6,0.5,0.7c0,0.1,0,0.1-0.1,0.1l-0.3,0c0,0,0,0,0,0c-0.2,0.1-0.4,0.2-0.6,0.4c-0.3,0.1-0.6,0.2-0.9,0.3
			c-0.2,0.1-0.6,0.2-1,0.3L37,11.2c0.4-0.1,0.7-0.2,1.1-0.3c0.3-0.1,0.6-0.2,0.8-0.4C39.1,10.4,39.2,10.3,39.4,10.1
			C39.4,10.1,39.4,10.1,39.4,10.1z M39.8,14.7c0.1,0,0.1,0,0.1,0.1v0.4c0,0.1,0,0.1-0.1,0.1h-2.4c-0.1,0-0.1,0-0.1-0.1v-0.4
			c0-0.1,0-0.1,0.1-0.1H39.8z M39.1,18.5c0.1,0.3,0.3,0.6,0.6,1c0,0,0.1,0.1,0.1,0.1c0,0,0,0.1-0.1,0.1c-0.1,0.1-0.2,0.2-0.4,0.4
			c-0.1,0.1-0.1,0.1-0.1,0.1c0,0-0.1,0-0.1,0c-0.2-0.3-0.4-0.6-0.5-1c-0.2-0.4-0.3-0.8-0.4-1.3l0.6-0.3C38.8,17.9,39,18.2,39.1,18.5
			z M40.4,15.7l1.1,0.1c0,0.1,0,0.1-0.1,0.1c-0.1,0.1-0.2,0.1-0.2,0.2c0,0.7,0,1.2-0.1,1.6c0,0.4-0.1,0.7-0.1,1.1
			c-0.1,0.3-0.1,0.6-0.2,0.9c-0.1,0.3-0.2,0.6-0.3,0.8c-0.2,0.3-0.4,0.6-0.7,0.9c-0.1,0-0.1,0-0.1-0.1c-0.1-0.1-0.3-0.3-0.4-0.4
			c-0.1-0.1-0.1-0.1-0.1-0.2c0.1-0.1,0.2-0.1,0.3-0.2c0.1-0.1,0.2-0.3,0.3-0.4c0.1-0.2,0.2-0.3,0.3-0.5c0.1-0.2,0.2-0.5,0.2-0.7
			c0.1-0.3,0.1-0.5,0.2-0.8c0-0.3,0.1-0.6,0.1-1C40.5,16.7,40.5,16.3,40.4,15.7z M44.1,13.9l-0.2,0.8h-3.6c-0.1,0-0.1-0.1-0.1-0.2
			v-0.4c0-0.1,0-0.2,0.1-0.2H44.1z M40.9,17.6c0.1,0,0.2,0,0.2,0.1c0,0.4,0.1,0.8,0.1,1.2c0,0.3,0.1,0.5,0.2,0.7
			c0.1,0.2,0.1,0.3,0.2,0.4c0.1,0.1,0.2,0.2,0.3,0.3c0.1,0.1,0.2,0.1,0.3,0.1c0.2,0,0.6,0,1,0c0.2,0,0.7-0.1,1.3-0.2
			c0,0,0,0.1-0.1,0.2c-0.1,0.2-0.2,0.4-0.2,0.6c0,0.1-0.1,0.1-0.2,0.1c-0.1,0-0.4,0.1-0.8,0.1c-0.7,0-1.2,0-1.5-0.1
			c-0.2-0.1-0.3-0.2-0.4-0.3c-0.1-0.1-0.3-0.4-0.4-0.6c-0.1-0.2-0.2-0.5-0.2-0.8c-0.1-0.4-0.2-1-0.2-1.7c0-0.1,0-0.1,0.1-0.1h0.2
			H40.9z M42,12.2c0.4,0.2,0.8,0.4,1.1,0.7c0.2,0.2,0.5,0.3,0.6,0.5c0,0,0,0,0,0c0,0.1-0.2,0.2-0.6,0.4c0,0-0.1,0-0.1,0
			c-0.3-0.3-0.6-0.5-0.9-0.7c-0.2-0.1-0.4-0.2-0.7-0.3c-0.3-0.1-0.6-0.3-1-0.4c0,0,0,0,0,0c0,0,0.1-0.2,0.4-0.5c0,0,0.1-0.1,0.2-0.1
			C41.4,11.9,41.7,12,42,12.2z M43.6,10c0.1,0,0.2,0,0.3,0.1l-0.1,0.6H41c-0.1,0-0.1,0-0.1-0.1v-0.4c0-0.1,0-0.1,0.1-0.1H43.6z
			 M41.8,14.3h0.8v6.4c0,0.1-0.1,0.2-0.2,0.2H42c-0.1,0-0.2-0.1-0.2-0.2V14.3z M43.9,10.1c0.3,0.3,0.4,0.5,0.4,0.6
			c-0.8,1.1-1.3,1.9-1.5,2.2c0,0.1-0.1,0.1-0.1,0.1c-0.1,0-0.1,0-0.2-0.1c-0.1-0.1-0.3-0.2-0.4-0.4c-0.1,0-0.1-0.1-0.1-0.1
			L43.9,10.1z M43.8,17.1c0.1,0,0.2,0.1,0.2,0.2v0.5c0,0.1-0.1,0.2-0.2,0.2h-1.4c-0.1,0-0.2-0.1-0.2-0.2v-0.5c0-0.1,0.1-0.2,0.2-0.2
			H43.8z M43.9,13.9h0.2c0.1,0,0.2,0,0.2,0c0.1,0.1,0.2,0.2,0.2,0.3l-0.8,1.8c0,0,0,0.1-0.1,0.1c-0.4-0.1-0.6-0.2-0.6-0.3L43.9,13.9
			z"/>
		<path class="st3" d="M47.6,12.8l0.8,0.3c-0.2,0.8-0.3,1.6-0.5,2.3c-0.2,0.7-0.4,1.3-0.6,1.8c-0.2,0.6-0.5,1.1-0.7,1.6
			c-0.1,0-0.2,0-0.2-0.1c-0.2-0.1-0.4-0.2-0.5-0.3c-0.1,0-0.1,0-0.1-0.1c0.4-0.6,0.7-1.2,0.9-1.8c0.2-0.6,0.4-1.1,0.5-1.7
			C47.3,14.4,47.4,13.8,47.6,12.8C47.6,12.8,47.6,12.8,47.6,12.8z M49.8,12.4c0.1,0,0.2,0.1,0.2,0.2V13c0,0.1-0.1,0.2-0.2,0.2h-3.6
			c-0.1,0-0.2-0.1-0.2-0.2v-0.5c0-0.1,0.1-0.2,0.2-0.2H49.8z M48.9,9.9c0,0.1,0,0.2-0.1,0.2c-0.1,0-0.1,0.1-0.1,0.3v10.9
			c0,0.1-0.1,0.2-0.2,0.2h-0.5c-0.1,0-0.2-0.1-0.2-0.2V9.8c0-0.1,0.1-0.2,0.2-0.2C48.5,9.7,48.9,9.7,48.9,9.9z M49.2,14.5
			c0.2,0.5,0.5,1,0.9,1.6c0.1,0,0.1,0.1,0.1,0.1c0,0,0,0.1-0.1,0.1c-0.1,0.1-0.2,0.2-0.4,0.4c-0.1,0.1-0.1,0.1-0.1,0.1
			c0,0-0.1,0-0.1-0.1c-0.3-0.5-0.6-1-0.8-1.5c-0.2-0.6-0.4-1.3-0.6-2.1l0.6-0.3C48.9,13.5,49.1,14.1,49.2,14.5z M51.6,18.5l0.7,0.5
			c0.1,0.1,0.1,0.1,0.1,0.2c0,0,0,0.1-0.1,0.1c-0.1,0-0.1,0-0.2,0.1c-0.2,0.3-0.5,0.5-0.7,0.7c-0.3,0.2-0.7,0.5-1.1,0.8
			c-0.1,0-0.2,0-0.2-0.1c-0.2-0.1-0.3-0.3-0.4-0.4c-0.1,0-0.1-0.1-0.1-0.1c0,0,0,0,0-0.1c0.2-0.1,0.4-0.2,0.5-0.3
			c0.3-0.2,0.6-0.4,0.8-0.6C51.1,19.1,51.3,18.9,51.6,18.5C51.5,18.6,51.5,18.5,51.6,18.5z M57.4,17.1c0.1,0,0.1,0.1,0.1,0.2v0.4
			c0,0.1,0,0.2-0.1,0.2h-7.2c-0.1,0-0.1-0.1-0.1-0.2v-0.4c0-0.1,0-0.2,0.1-0.2H57.4z M57.4,10.2c0.1,0,0.1,0.1,0.1,0.2v0.4
			c0,0.1,0,0.2-0.1,0.2h-7.1c-0.1,0-0.1-0.1-0.1-0.2v-0.4c0-0.1,0-0.2,0.1-0.2H57.4z M50.5,11.9H57l-0.7,0.8h-5.1V14l-0.7,0.8
			c-0.1,0-0.2-0.1-0.2-0.2v-2.4C50.3,12,50.4,11.9,50.5,11.9z M56.3,12.7l0.7-0.8c0.1,0,0.2,0.1,0.2,0.2v2.4c0,0.1-0.1,0.2-0.2,0.2
			h-6.5l0.7-0.8h5.1V12.7z M56.6,15.6c0.1,0,0.1,0.1,0.1,0.2v0.4c0,0.1,0,0.2-0.1,0.2H51c-0.1,0-0.1-0.1-0.1-0.2v-0.4
			c0-0.1,0-0.2,0.1-0.2H56.6z M53.4,17.5h0.9v2.9c0,0.7-0.5,1-1.6,1h-0.6c-0.1,0-0.1-0.1-0.1-0.2c0-0.2-0.1-0.4-0.2-0.7
			c0-0.1,0-0.1,0-0.1c0.3,0.1,0.5,0.1,0.8,0.1c0.5,0,0.7-0.2,0.7-0.5V17.5z M52.3,10.5h0.9v3.6c0,0.1-0.1,0.2-0.2,0.2h-0.5
			c-0.1,0-0.2-0.1-0.2-0.2V10.5z M54.3,10.5h0.9v3.6c0,0.1-0.1,0.2-0.2,0.2h-0.5c-0.1,0-0.2-0.1-0.2-0.2V10.5z M56.8,19.4
			c0.3,0.3,0.6,0.6,0.8,0.9c0,0,0,0.1-0.1,0.1c-0.3,0.3-0.4,0.5-0.4,0.5c-0.3-0.4-0.7-0.8-1.1-1.2c-0.3-0.3-0.6-0.5-0.8-0.6
			c0,0,0.1-0.2,0.4-0.5c0-0.1,0.1-0.1,0.1-0.1C56.1,18.8,56.5,19.1,56.8,19.4z"/>
		<path class="st3" d="M70.7,19.2c0.1,0,0.1,0.1,0.1,0.2v0.4c0,0.1,0,0.2-0.1,0.2H59.8c-0.1,0-0.1-0.1-0.1-0.2v-0.4
			c0-0.1,0-0.2,0.1-0.2H70.7z M70.7,12.7c0.1,0,0.1,0.1,0.1,0.2v0.4c0,0.1,0,0.2-0.1,0.2H59.8c-0.1,0-0.1-0.1-0.1-0.2v-0.4
			c0-0.1,0-0.2,0.1-0.2H70.7z M69.8,10.5c0.1,0,0.1,0.1,0.1,0.2v0.4c0,0.1,0,0.2-0.1,0.2h-9.1c-0.1,0-0.1-0.1-0.1-0.2v-0.4
			c0-0.1,0-0.2,0.1-0.2H69.8z M61.2,14.3h8L68.5,15H62v2.5l-0.7,0.8c-0.1,0-0.2-0.1-0.2-0.2v-3.7C61.1,14.3,61.1,14.3,61.2,14.3z
			 M68.5,15l0.7-0.8c0.1,0,0.2,0.1,0.2,0.2v3.7c0,0.1-0.1,0.2-0.2,0.2h-8l0.7-0.8h6.6V15z M68.9,15.9c0.1,0,0.1,0.1,0.1,0.2v0.4
			c0,0.1,0,0.2-0.1,0.2h-7.2c-0.1,0-0.1-0.1-0.1-0.2V16c0-0.1,0-0.2,0.1-0.2H68.9z M63.2,11.9c0.2,0.2,0.3,0.4,0.4,0.5
			c0,0-0.3,0.1-0.9,0.3c0-0.1-0.1-0.3-0.3-0.4c-0.2-0.2-0.4-0.4-0.6-0.6c0-0.1,0.3-0.2,0.8-0.5C62.8,11.5,63,11.7,63.2,11.9z
			 M64.7,17.9h0.9v3.4c0,0.1-0.1,0.2-0.2,0.2h-0.5c-0.1,0-0.2-0.1-0.2-0.2V17.9z M65.9,9.7c0,0.1,0,0.2-0.1,0.2
			c-0.1,0-0.1,0.1-0.1,0.3v0.5c0,0.1-0.1,0.2-0.2,0.2h-0.5c-0.1,0-0.2-0.1-0.2-0.2v-1c0-0.1,0.1-0.2,0.2-0.2
			C65.6,9.5,65.9,9.6,65.9,9.7z M67.7,11.2l0.8,0.3c0.1,0.1,0.2,0.1,0.2,0.2c0,0,0,0.1-0.1,0.1c-0.1,0-0.1,0-0.2,0.1
			c-0.2,0.4-0.5,0.7-0.7,0.9c-0.1,0-0.1,0.1-0.1,0.1c-0.1,0-0.1,0-0.2-0.1c-0.2-0.1-0.3-0.2-0.5-0.2c-0.1,0-0.1,0-0.1-0.1
			c0,0,0,0,0,0c0.2-0.2,0.4-0.4,0.5-0.5C67.5,11.7,67.6,11.5,67.7,11.2C67.7,11.2,67.7,11.2,67.7,11.2z"/>
		<path class="st3" d="M78.8,20.2h-6.1c0-0.6,0.3-1.3,0.9-2c0.4-0.4,0.9-1,1.7-1.6c0.6-0.5,1.1-1,1.6-1.5c0.5-0.6,0.7-1.1,0.7-1.7
			c0-0.5-0.2-0.9-0.5-1.2c-0.3-0.3-0.7-0.5-1.2-0.5c-0.4,0-0.7,0.1-1,0.3c-0.6,0.3-0.8,0.8-0.8,1.6l-1.2-0.1c0-0.4,0.1-0.8,0.3-1.1
			c0.5-1.1,1.4-1.6,2.8-1.6c1,0,1.7,0.3,2.2,0.9c0.4,0.5,0.6,1.1,0.6,1.7c0,0.5-0.1,1-0.4,1.5c-0.4,0.6-1,1.2-1.8,2l-0.9,0.8
			c-0.6,0.5-1.1,1-1.3,1.4h4.5V20.2z"/>
		<path class="st3" d="M82.3,20.2H81v-1.3h1.3V20.2z"/>
		<path class="st3" d="M90.5,15.6c0,3.2-1,4.7-3,4.7c-2,0-3-1.6-3-4.7c0-3.2,1-4.7,3-4.7C89.5,10.9,90.5,12.5,90.5,15.6z M89.3,15.6
			c0-1.1-0.1-1.9-0.3-2.5c-0.3-0.9-0.8-1.3-1.6-1.3c-1.2,0-1.8,1.3-1.8,3.8c0,2.5,0.6,3.8,1.9,3.8C88.7,19.4,89.3,18.2,89.3,15.6z"
			/>
	</g>
	<g>
		<g>
			<path class="st2" d="M10.8,26.3c-0.2,0.1-0.3,0.2-0.5,0.4c-0.2,0.2-0.3,0.4-0.4,0.6c-0.1,0.2-0.1,0.4-0.1,0.6
				c0,0.5,0.2,0.9,0.5,1.3c0.3,0.3,0.7,0.5,1.1,0.5c0.2,0,0.3,0,0.5-0.1c0.1-0.1,0.3-0.3,0.6-0.5c0.3-0.3,0.4-0.6,0.4-1.1
				c0-0.5-0.2-0.9-0.5-1.2c-0.3-0.4-0.6-0.5-1-0.5C11.1,26.2,10.9,26.2,10.8,26.3z M15.1,26.1c1.1,1.8,1.6,3.7,1.6,5.7
				c0,0.9-0.1,1.8-0.4,2.5c-0.3,0.8-0.6,1.4-1.2,1.9h-1c0.1-0.2,0.1-0.4,0.2-0.6c0-0.2,0-0.5,0-0.7c0-1-0.3-1.9-0.9-2.8
				c-0.6-0.8-1.3-1.2-2.2-1.2c-0.8,0-1.6,0.4-2.2,1.2c-0.6,0.8-0.9,1.8-0.9,2.8c0,0.4,0.1,0.9,0.2,1.3h-1c-0.5-0.5-0.9-1.1-1.1-1.9
				C6.1,33.6,6,32.8,6,31.8c0-2,0.5-3.9,1.6-5.7c1.1-1.7,2.3-2.6,3.8-2.6C12.8,23.5,14.1,24.4,15.1,26.1z"/>
		</g>
	</g>
	<g>
		<path class="st3" d="M28.4,34.5c-0.8,0-1.5-0.3-2-0.9c-0.5-0.5-0.7-1.2-0.7-1.9c0-0.7,0.2-1.3,0.7-1.8c0.5-0.6,1.2-0.8,2.1-0.8
			h3.1V30h-3.1c-0.5,0-1,0.2-1.3,0.5c-0.3,0.3-0.5,0.7-0.5,1.2c0,0.5,0.1,0.9,0.4,1.3c0.3,0.4,0.8,0.6,1.4,0.6h3.1v0.9H28.4z"/>
		<path class="st3" d="M35,34.5c-0.8,0-1.5-0.3-2-0.9c-0.5-0.5-0.7-1.2-0.7-1.9c0-0.7,0.2-1.3,0.7-1.8c0.5-0.6,1.2-0.8,2.1-0.8H38
			V30H35c-0.5,0-1,0.2-1.3,0.5c-0.3,0.3-0.5,0.7-0.5,1.2c0,0.5,0.1,0.9,0.4,1.3c0.3,0.4,0.8,0.6,1.4,0.6H38v0.9H35z"/>
		<path class="st3" d="M39.9,33.5h3.7v0.9h-4.7v-5.4h4.7V30h-3.7V33.5z M43.4,31.3v0.9h-3.1v-0.9H43.4z"/>
		<path class="st3" d="M48.6,34.5h-4.1v-0.9h4.1c0.3,0,0.6-0.1,0.7-0.2c0.2-0.1,0.3-0.3,0.3-0.5c0-0.2-0.1-0.4-0.2-0.5
			c-0.2-0.2-0.4-0.2-0.8-0.2h-2.6c-0.5,0-1-0.2-1.3-0.5c-0.3-0.3-0.4-0.6-0.4-1c0-0.4,0.1-0.7,0.4-1c0.3-0.3,0.7-0.5,1.3-0.5h4.1V30
			h-4.1c-0.2,0-0.4,0.1-0.5,0.2c-0.1,0.1-0.2,0.2-0.2,0.4c0,0.2,0.1,0.3,0.2,0.4c0.1,0.1,0.3,0.2,0.5,0.2h2.6c0.6,0,1,0.2,1.4,0.5
			c0.3,0.3,0.5,0.7,0.5,1.2c0,0.5-0.2,0.8-0.5,1.2C49.7,34.3,49.2,34.5,48.6,34.5z"/>
		<path class="st3" d="M55.3,34.5h-4.1v-0.9h4.1c0.3,0,0.6-0.1,0.7-0.2c0.2-0.1,0.3-0.3,0.3-0.5c0-0.2-0.1-0.4-0.2-0.5
			c-0.2-0.2-0.4-0.2-0.8-0.2h-2.6c-0.5,0-1-0.2-1.3-0.5c-0.3-0.3-0.4-0.6-0.4-1c0-0.4,0.1-0.7,0.4-1c0.3-0.3,0.7-0.5,1.3-0.5h4.1V30
			h-4.1c-0.2,0-0.4,0.1-0.5,0.2c-0.1,0.1-0.2,0.2-0.2,0.4c0,0.2,0.1,0.3,0.2,0.4c0.1,0.1,0.3,0.2,0.5,0.2h2.6c0.6,0,1,0.2,1.4,0.5
			c0.3,0.3,0.5,0.7,0.5,1.2c0,0.5-0.2,0.8-0.5,1.2C56.3,34.3,55.9,34.5,55.3,34.5z"/>
		<path class="st3" d="M58.1,34.5v-5.4H59v5.4H58.1z"/>
		<path class="st3" d="M65.8,31.8c0.4,0.3,0.6,0.7,0.6,1.1c0,0.4-0.2,0.8-0.5,1.1c-0.4,0.3-0.9,0.5-1.6,0.5h-3.9V29h3.9
			c0.7,0,1.2,0.2,1.6,0.5c0.4,0.3,0.5,0.7,0.5,1.1C66.4,31.1,66.2,31.5,65.8,31.8z M64.4,33.5c0.3,0,0.6-0.1,0.8-0.2
			c0.2-0.1,0.3-0.3,0.3-0.4c0-0.2-0.1-0.3-0.3-0.4c-0.2-0.1-0.5-0.2-0.8-0.2h-2.5v-0.9h2.5c0.3,0,0.6-0.1,0.8-0.2
			c0.2-0.1,0.3-0.3,0.3-0.5c0-0.2-0.1-0.3-0.3-0.5C65,30.1,64.7,30,64.4,30h-3.1v3.5H64.4z"/>
		<path class="st3" d="M67.5,34.5v-5.4h0.9v5.4H67.5z"/>
		<path class="st3" d="M69.5,34.5v-5.4h0.9v4.5h3.7v0.9H69.5z"/>
		<path class="st3" d="M75.1,34.5v-5.4H76v5.4H75.1z"/>
		<path class="st3" d="M80,30v4.5h-0.9V30h-2.1v-0.9h5.2V30H80z"/>
		<path class="st3" d="M86,34.5h-0.9v-1.8l-2.8-3.6h1.2l2,2.7l1.9-2.7h1.2L86,32.7V34.5z"/>
	</g>
	<g>
		<g>
			<path class="st2" d="M14.6,31.8c0-2,0.5-3.9,1.6-5.7c1.1-1.7,2.3-2.6,3.8-2.6c1.5,0,2.7,0.9,3.8,2.6c1.1,1.8,1.6,3.7,1.6,5.7
				c0,0.9-0.1,1.8-0.4,2.5c-0.3,0.8-0.6,1.4-1.2,1.9h-1c0.1-0.2,0.1-0.4,0.2-0.6c0-0.2,0-0.5,0-0.7c0-1-0.3-1.9-0.9-2.8
				c-0.6-0.8-1.3-1.2-2.2-1.2c-0.8,0-1.6,0.4-2.2,1.2c-0.6,0.8-0.9,1.8-0.9,2.8c0,0.4,0.1,0.9,0.2,1.3h-1c-0.5-0.5-0.9-1.1-1.1-1.9
				C14.7,33.6,14.6,32.8,14.6,31.8z M19.9,26.2c-0.2,0-0.3,0-0.5,0.1c-0.2,0.1-0.3,0.2-0.5,0.4c-0.2,0.2-0.3,0.4-0.4,0.6
				c-0.1,0.2-0.1,0.4-0.1,0.6c0,0.5,0.2,0.9,0.5,1.3c0.3,0.3,0.7,0.5,1.1,0.5c0.2,0,0.3,0,0.5-0.1c0.1-0.1,0.3-0.3,0.6-0.5
				c0.3-0.3,0.4-0.6,0.4-1.1c0-0.5-0.2-0.9-0.5-1.2C20.6,26.4,20.3,26.2,19.9,26.2z"/>
		</g>
	</g>
</g>
</svg>
