<?xml version="1.0" encoding="utf-8"?>
<!-- Generator: Adobe Illustrator 27.1.1, SVG Export Plug-In . SVG Version: 6.00 Build 0)  -->
<svg version="1.1" id="圖層_3" xmlns="http://www.w3.org/2000/svg" xmlns:xlink="http://www.w3.org/1999/xlink" x="0px" y="0px"
	 viewBox="0 0 360 132" style="enable-background:new 0 0 360 132;" xml:space="preserve">
<style type="text/css">
	.st0{fill:#FFFFFF;}
	.st1{fill:#95CE1F;}
	.st2{fill:#5C5E67;}
	.st3{fill:#6E9041;}
</style>
<rect x="-3" y="-3" class="st0" width="366" height="138"/>
<g>
	<g>
		<rect x="69.5" y="45.4" class="st1" width="3.1" height="41.5"/>
		<path class="st1" d="M71.1,89.2c-0.8,0-1.4-0.2-1.8-0.8c-1.7-1.7-5.4-4.7-7.8-4.7c-6.9,0-15.7,5-15.8,5c-0.8,0.4-1.7,0.4-2.5,0
			c-0.8-0.4-1.3-1.3-1.3-2.2v-44c0-0.8,0.3-1.4,0.9-1.8c0.5-0.4,1.2-0.8,2.1-0.7c0,0,3.9,0.4,14.5-1c9.3-1.2,13.9,6.4,14.1,6.7
			c0.8,1.2,0.3,2.8-0.9,3.5c-1.2,0.8-2.8,0.3-3.5-0.9c-0.1-0.2-3-5-9-4.2c-6.4,0.9-10.5,1.1-12.9,1.1v37.3c3.7-1.7,9.3-3.8,14.5-3.8
			c3.7,0,7.4,2.7,9.6,4.4c2.2-1.8,6-4.4,9.6-4.4c5.2,0,10.8,2.2,14.5,3.8V70.7c0-1.4,1.2-2.5,2.5-2.5c1.4,0,2.5,1.2,2.5,2.5v15.8
			c0,0.9-0.4,1.7-1.3,2.2c-0.8,0.4-1.7,0.4-2.5,0c-0.1-0.1-8.9-5-15.8-5c-2.5,0-6.3,3.1-7.8,4.7C72.5,88.9,71.8,89.2,71.1,89.2z"/>
		<path class="st2" d="M97.8,96.2H44.5c-1.4,0-2.6-1.2-2.6-2.5s1.2-2.6,2.5-2.6h53.3c1.4,0,2.5,1.2,2.5,2.5
			C100.2,94.9,99.1,96.2,97.8,96.2z"/>
		<path class="st1" d="M85.6,70.7c-4.4,0-9-1.7-12.4-5.1c-6.8-6.8-6.8-17.9,0-24.7s17.9-6.8,24.7,0s6.8,17.9,0,24.7
			C94.6,69,90,70.7,85.6,70.7z M85.6,40.8c-3.1,0-6.3,1.2-8.7,3.7c-4.8,4.8-4.8,12.7,0,17.5s12.7,4.8,17.5,0
			c4.8-4.8,4.8-12.7,0-17.5C92,42.1,88.7,40.8,85.6,40.8z"/>
		<path class="st2" d="M86.7,70.6c-1.3,0-2.5-1.1-2.5-2.4c-0.1-1.4,1-2.6,2.4-2.7c3-0.2,5.7-1.5,7.9-3.6c2.4-2.4,3.7-5.4,3.7-8.7
			c0-1.4,1.2-2.5,2.5-2.5c1.4,0,2.5,1.2,2.5,2.5c0,4.7-1.8,9-5.1,12.4c-3,3-6.9,4.8-11.2,5.1C86.8,70.6,86.8,70.6,86.7,70.6z"/>
		<path class="st2" d="M104,79.6c-0.7,0-1.3-0.2-1.8-0.8L91.1,67.8l3.6-3.6l9.3,9.2l1.8-1.8l-9.3-9.3l3.6-3.6l11.1,11.2
			c1,1,1,2.6,0,3.6l-5.4,5.4C105.3,79.4,104.7,79.6,104,79.6z"/>
		<path class="st2" d="M71.1,89.2c-0.8,0-1.4-0.2-1.8-0.8c-1.7-1.7-5.4-4.7-7.8-4.7c-6.9,0-15.7,5-15.8,5c-0.8,0.4-1.7,0.4-2.5,0
			c-0.8-0.4-1.3-1.3-1.3-2.2V66.2c0-1.4,1.2-2.5,2.5-2.5s2.5,1.2,2.5,2.5v16.4c3.7-1.7,9.3-3.8,14.5-3.8c3.7,0,7.4,2.7,9.6,4.4
			c2.2-1.8,6-4.4,9.6-4.4c2.1,0,4.2,0.3,6.6,0.9c1.4,0.3,2.2,1.7,1.8,3.1c-0.3,1.4-1.7,2.2-3.1,1.8c-2.1-0.5-3.8-0.8-5.3-0.8
			c-2.5,0-6.3,3.1-7.8,4.7C72.5,88.9,71.8,89.2,71.1,89.2z"/>
	</g>
	<g>
		<path class="st2" d="M136.1,49.9h10c0.6,0,0.9-0.3,0.9-0.9s-0.3-0.9-0.9-0.9h-10c-0.6,0-0.9,0.3-0.9,0.9S135.6,49.9,136.1,49.9z"
			/>
		<path class="st2" d="M147.2,53.5h-12.3c-0.6,0-0.9,0.3-0.9,0.9s0.3,0.9,0.9,0.9h7.1v9.9c0,0.9-0.2,1.3-0.6,1.3
			c-0.6,0-1.8-0.2-3.6-0.7c-0.3-0.1-0.6-0.1-0.7-0.1l0,0c-0.4,0-0.8,0.3-0.8,1c0,0.4,0.2,0.8,0.7,0.9c1.8,0.4,3.2,0.8,4.2,0.8
			c1.7,0,2.6-0.9,2.6-2.8V55.4h3.2c0.6,0,0.9-0.3,0.9-0.9C148.1,53.8,147.9,53.5,147.2,53.5z"/>
		<path class="st2" d="M132.3,53.1c-0.3,0-0.6,0.2-0.7,0.6c-0.6,1.1-1.1,2.1-2,3c-0.7,0.8-1.6,1.6-2.6,2.2c-0.1,0.1-0.2,0.3-0.2,0.6
			c0,0.6,0.3,0.9,1,0.9c0.1,0,0.4-0.1,0.7-0.4c0.3-0.2,0.7-0.6,1.1-0.9v8.5c0,0.6,0.3,0.9,0.9,0.9s0.9-0.3,0.9-0.9V57.2
			c0.7-0.8,1.2-1.8,1.7-2.9c0.1-0.2,0.1-0.3,0.1-0.4c0-0.2-0.1-0.4-0.3-0.6C132.8,53.2,132.6,53.1,132.3,53.1z"/>
		<path class="st2" d="M128.1,54.2c0.1,0,0.3-0.1,0.6-0.3c0.9-0.7,1.7-1.5,2.2-2.3c0.7-0.9,1.3-1.9,1.8-3.1c0.1-0.2,0.1-0.3,0.1-0.4
			c0-0.2-0.1-0.4-0.3-0.6c-0.2-0.1-0.4-0.2-0.7-0.2c-0.3,0-0.4,0.2-0.6,0.6c-0.4,1.1-1,2.1-1.8,2.9c-0.7,0.8-1.5,1.6-2.2,2.2
			c-0.1,0.1-0.2,0.3-0.2,0.6C127.1,54,127.4,54.2,128.1,54.2z"/>
		<path class="st2" d="M172,66.6c-0.9-0.6-1.7-1-2.1-1.6c-0.8-0.7-1.5-1.3-2-2c0.4-0.8,0.9-1.6,1.3-2.6c0.6-1.6,1-3.2,1.2-5
			c0.2-1.5,0.3-2.7,0.3-3.7h0.8c0.6,0,0.9-0.3,0.9-0.9s-0.3-0.9-0.9-0.9H165c0.1-0.7,0.1-1.3,0.1-2.1c0-0.6-0.3-0.8-0.9-0.8
			s-0.9,0.2-0.9,0.8c-0.1,2-0.3,3.8-0.7,5.2c-0.3,1.6-0.9,3-1.7,4.5c-0.2,0.2-0.2,0.3-0.2,0.4c0,0.7,0.3,1,1,1
			c0.2,0,0.6-0.1,0.9-0.4l0,0c0.2-0.6,0.6-1.1,0.8-1.8c0.2,1.2,0.6,2.5,1,3.7c0.3,0.8,0.7,1.6,1,2.2c-0.2,0.2-0.3,0.4-0.6,0.7
			c-1.1,1.1-2.7,2.2-4.6,3.3c-0.2,0.1-0.4,0.3-0.4,0.7c0,0.7,0.3,1,1,1c0.1,0,0.3-0.1,0.7-0.2c1.7-0.8,3.1-1.9,4.5-3.2
			c0.2-0.2,0.3-0.3,0.6-0.6c0.4,0.6,1.1,1.2,1.7,1.8c0.7,0.7,1.7,1.3,2.9,2.1c0.1,0.1,0.2,0.1,0.3,0.1c0.7,0,1-0.3,1-1
			C172.6,67,172.4,66.7,172,66.6z M169.1,51.8c-0.2,3.1-0.7,5.7-1.3,7.5c-0.2,0.7-0.6,1.3-0.9,1.9c-0.2-0.3-0.3-0.8-0.6-1.1
			c-0.4-1.1-0.8-2.6-1.2-4.4c-0.1-0.4-0.3-0.6-0.8-0.6l0,0c0.1-0.4,0.2-0.9,0.3-1.3c0.1-0.6,0.2-1.2,0.3-1.9h4.1V51.8z"/>
		<path class="st2" d="M162.3,63.5c0-0.7-0.3-1-0.9-1l0,0l-0.3,0.1l0,0c-0.9,0.6-1.8,1-2.6,1.3v-7.1h2.3c0.6,0,0.8-0.3,0.8-0.9
			c0-0.6-0.2-0.8-0.8-0.8h-2.3v-4.6h3c0.6,0,0.9-0.3,0.9-0.9s-0.3-0.9-0.9-0.9H153c-0.6,0-0.9,0.3-0.9,0.9s0.3,0.9,0.9,0.9h3.8v14.2
			c0,0-0.1,0-0.2,0.1c-0.6,0.2-1.1,0.4-1.8,0.7V55c0-0.6-0.3-0.9-0.9-0.9S153,54.4,153,55v10.9c-0.2,0.1-0.4,0.1-0.7,0.2
			c-0.4,0.1-0.7,0.4-0.7,1c0,0.7,0.3,0.9,0.9,0.9c0.2,0,0.4,0,0.7-0.1c1.6-0.4,3.2-1,5-1.8c1.5-0.7,2.6-1.2,3.5-1.8
			C162,63.9,162.3,63.7,162.3,63.5z"/>
		<path class="st2" d="M182.5,59.7c0-0.7-0.1-1.3-0.2-2c-0.2-0.7-0.7-1.5-1.2-2.6c-0.1-0.2-0.2-0.4-0.2-0.7c0-0.2,0-0.4,0.1-0.7
			l1.6-4c0.1-0.3,0.2-0.7,0.2-0.8c0-0.8-0.4-1.1-1.2-1.1h-3.1c-1.1,0-1.7,0.4-1.7,1.5v18.2c0,0.6,0.3,0.9,0.9,0.9s0.9-0.3,0.9-0.9
			v-4c0.3,0.1,0.7,0.1,0.9,0.1c1,0,1.8-0.4,2.5-1.3C182.1,61.7,182.5,60.8,182.5,59.7z M179,54c-0.1,0.2-0.1,0.6-0.1,0.8
			c0,0.2,0.1,0.6,0.2,0.8c0.7,1.1,1.1,2.1,1.3,2.7c0.1,0.6,0.2,1,0.2,1.5c0,0.6-0.1,1.1-0.4,1.6c-0.3,0.4-0.7,0.7-1.1,0.7
			c-0.1,0-0.4,0-0.8-0.1V50c0-0.3,0.1-0.4,0.3-0.4h1.6c0.2,0,0.3,0.1,0.3,0.2L179,54z"/>
		<path class="st2" d="M196,62.9c-0.6,0-0.9,0.3-0.9,1v1.5c0,0.2-0.1,0.4-0.2,0.6c-0.1,0.1-0.4,0.2-1.5,0.2c-0.6,0-0.9-0.1-1.1-0.2
			c-0.1-0.1-0.2-0.4-0.2-0.8v-5.9h3c0.6,0,0.9-0.3,0.9-0.9s-0.3-0.9-0.9-0.9h-11.4c-0.6,0-0.9,0.3-0.9,0.9s0.3,0.9,0.9,0.9h2.6
			c-0.1,1.5-0.2,2.7-0.4,3.5c-0.3,1-0.8,1.9-1.3,2.5c-0.7,0.7-1.6,1.1-2.7,1.2c-0.4,0.1-0.7,0.3-0.7,0.9c0,0.6,0.2,0.9,0.8,1h0.3
			c1.3-0.2,2.5-0.8,3.3-1.6c0.8-0.8,1.3-1.8,1.8-3.1c0.3-1,0.6-2.5,0.7-4.2h2.1v6.3c0,0.9,0.2,1.6,0.6,1.9c0.4,0.3,1.2,0.6,2.6,0.6
			c1.2,0,2-0.1,2.5-0.2c0.4-0.2,0.8-0.4,0.8-0.8c0.2-0.3,0.2-1.1,0.2-2.7C196.9,63.4,196.5,62.9,196,62.9z"/>
		<path class="st2" d="M186,53.7c-0.6,0-0.9,0.3-0.9,0.9s0.3,0.9,0.9,0.9h6.4c0.6,0,0.9-0.3,0.9-0.9s-0.3-0.9-0.9-0.9H186z"/>
		<path class="st2" d="M183.6,55.3c0.6,0,0.9-0.3,0.9-0.9v-2.3c0-0.4,0.2-0.7,0.7-0.7h8.6c0.4,0,0.7,0.2,0.7,0.7
			c0,0.3-0.1,1-0.3,2.1c0,0.6,0.3,0.9,0.9,0.9s0.9-0.2,1-0.7c0.1-0.9,0.2-1.7,0.2-2.3s-0.1-1.2-0.3-1.6c-0.3-0.4-0.9-0.7-1.5-0.7
			h-4.1v-1.6c0-0.7-0.3-1-1-1c-0.7,0-1,0.3-1,1v1.6h-3.9c-1.1,0-1.7,0.6-1.7,1.7v2.9C182.7,55.1,183,55.3,183.6,55.3z"/>
		<path class="st2" d="M201.2,58.8c0.8-0.6,1.3-1.1,1.9-1.8c0.7-0.8,1.2-1.6,1.7-2.6c0.4-0.8,0.9-1.9,1.1-3.1
			c0.1-0.2,0.1-0.4,0.1-0.6c0-0.2-0.1-0.4-0.2-0.6c-0.1-0.1-0.3-0.2-0.6-0.2c-0.4,0-0.8,0.2-0.9,0.6c-0.3,1.1-0.7,2-1.1,2.8
			s-0.9,1.6-1.6,2.3c-0.4,0.6-1,1.1-1.7,1.6c-0.2,0.2-0.2,0.4-0.2,0.7c0,0.2,0.1,0.4,0.2,0.7c0.2,0.2,0.3,0.2,0.7,0.2
			C200.9,58.9,201.1,58.9,201.2,58.8z"/>
		<path class="st2" d="M215.3,58.9c-0.2-0.2-0.4-0.2-0.6-0.2c-0.7,0-1,0.3-1,1c0,0,0,0.1,0.2,0.4c1.1,1.6,2.1,3.1,3.1,4.7
			c-3.5,0.4-7.3,0.8-11.4,0.9c1.7-2.7,3.2-5.7,4.7-9c0.1-0.2,0.1-0.3,0.1-0.4c0-0.2-0.1-0.4-0.3-0.6c-0.2-0.2-0.4-0.2-0.8-0.2
			c-0.4,0-0.7,0.2-0.8,0.6c-1.7,4-3.3,7.3-5,9.8v0.1c-0.7,0-1.3,0-2.1,0c-0.7,0-1,0.3-1,1c0,0.8,0.3,1.1,1,1.1
			c5.4-0.3,10.9-0.8,16.7-1.5c0.3,0.6,0.7,1.2,1.1,1.8l0,0c0.2,0.1,0.3,0.2,0.6,0.2c0.7,0,1-0.3,1-0.9c0-0.1-0.1-0.3-0.2-0.6
			C218.9,63.9,217.2,61.2,215.3,58.9z"/>
		<path class="st2" d="M219.4,55.1c-0.7-0.7-1.2-1.5-1.7-2.1c-0.7-1-1.3-2.3-1.8-3.9c-0.3-0.9-1-1.5-2-1.5h-6.5
			c-0.6,0-0.9,0.3-0.9,0.9s0.3,0.9,0.9,0.9h6c0.3,0,0.6,0.2,0.7,0.7c0.4,1.3,0.9,2.6,1.5,3.6c0.7,1,1.3,1.9,2,2.7
			c0.4,0.6,1.2,1.1,2,1.8c0.2,0.2,0.6,0.3,0.8,0.3l0,0c0.6-0.1,0.9-0.3,1-1c0-0.3-0.1-0.6-0.2-0.8C220.4,56.1,219.8,55.6,219.4,55.1
			z"/>
		<path class="st2" d="M225.4,54.1h8.6c0.6,0,0.9-0.3,0.9-0.9s-0.3-0.9-0.9-0.9h-3.3v-2h3c0.6,0,0.9-0.3,0.9-0.9s-0.3-0.9-0.9-0.9
			h-3v-0.9c0-0.6-0.3-0.9-0.9-0.9c-0.6,0-0.9,0.3-0.9,0.9v0.9h-3c-0.6,0-0.9,0.3-0.9,0.9s0.3,0.9,0.9,0.9h3v2h-3.5
			c-0.6,0-0.9,0.3-0.9,0.9C224.6,53.9,224.8,54.1,225.4,54.1z"/>
		<path class="st2" d="M227.1,54.5c-0.7,0-1,0.3-1,0.9c0,0.1,0,0.2,0.1,0.4l0,0c0.4,0.6,0.9,1.1,1.2,1.7l0,0
			c0.2,0.1,0.3,0.2,0.6,0.2c0.6,0,0.9-0.2,0.9-0.8c0-0.1-0.1-0.3-0.2-0.6c-0.3-0.7-0.8-1.2-1.2-1.7
			C227.3,54.5,227.2,54.5,227.1,54.5z"/>
		<path class="st2" d="M244.8,66.6c-0.9-0.7-1.7-1.5-2.2-2.1c0.1-0.1,0.1-0.2,0.2-0.3c0.8-1.2,1.3-2.6,1.7-4
			c0.3-1.1,0.4-2.3,0.4-3.7c0-1.1-0.4-1.6-1.3-1.6h-6.5v-4.5c0-0.6,0.2-0.8,0.8-0.8h5c0.3,0,0.6,0.2,0.6,0.6c0,0.6-0.1,1-0.2,1.5
			c0,0.3-0.1,0.4-0.1,0.4l0,0c0,0.1-0.1,0.1-0.2,0.1c-0.3,0-1.2-0.1-2.7-0.4c-0.6,0-0.8,0.3-0.8,1c0,0.3,0.2,0.6,0.6,0.8
			c0.9,0.3,1.9,0.4,3,0.4c0.6,0,1-0.1,1.3-0.4c0.3-0.3,0.6-1,0.7-2c0.1-0.7,0.1-1.3,0.1-1.8c0-1.2-0.7-1.8-1.9-1.8h-6
			c-1.2,0-1.9,0.7-1.9,1.9v17.6c0,0.6,0.2,0.9,0.8,0.9c0.6,0,0.9-0.3,0.9-0.9V56.7h0.8l0,0c0.4,2.5,0.9,4.4,1.5,5.7
			c0.3,0.8,0.8,1.6,1.2,2.2c-0.7,0.8-1.7,1.6-2.8,2.3l0,0c-0.2,0.2-0.3,0.4-0.3,0.6c0,0.6,0.3,0.9,0.9,0.9c0.2,0,0.3-0.1,0.6-0.3
			c1-0.7,1.9-1.5,2.7-2.2c0.7,0.8,1.3,1.5,2.2,2.1c0.3,0.2,0.6,0.3,0.7,0.3c0.7,0,1-0.3,1-1C245.3,67,245.1,66.8,244.8,66.6z
			 M242.6,56.6c0.1,0,0.3,0,0.3,0.4c0,0.8-0.1,1.8-0.3,2.9c-0.2,1.1-0.7,2.1-1.1,3c-0.3-0.6-0.6-1.1-0.8-1.7
			c-0.4-1.2-0.9-2.7-1.2-4.6h3.1V56.6z"/>
		<path class="st2" d="M234.2,62.7h-3.6v-2.6h2.9c0.6,0,0.9-0.3,0.9-0.9s-0.3-0.9-0.9-0.9h-1.8c0.1-0.2,0.2-0.3,0.3-0.6
			c0.3-0.6,0.7-1.2,1-1.8c0.1-0.1,0.2-0.3,0.2-0.6c0-0.2-0.1-0.4-0.2-0.6c-0.2-0.1-0.3-0.2-0.7-0.2s-0.6,0.1-0.8,0.4
			c-0.3,0.8-0.8,1.6-1.2,2.3c-0.2,0.3-0.4,0.7-0.7,1h-3.9c-0.6,0-0.9,0.3-0.9,0.9s0.3,0.9,0.9,0.9h3v2.6h-3.5
			c-0.6,0-0.9,0.3-0.9,0.9s0.3,0.9,0.9,0.9h3.5v3c0,0.6,0.3,0.9,0.9,0.9c0.6,0,0.9-0.3,0.9-0.9v-3h3.6c0.6,0,0.9-0.3,0.9-0.9
			C235,62.9,234.7,62.7,234.2,62.7z"/>
		<path class="st2" d="M256.1,51.9c0.2,0,0.6-0.1,0.9-0.4c0.6-0.4,1-1.1,1.5-1.8v-0.1h3.3v1c0,0.3-0.1,0.7-0.3,1
			c-0.2,0.3-0.6,0.6-1.1,0.9c-0.6,0.3-1.2,0.6-2.1,0.7c-0.6,0.1-1.2,0.2-2,0.3c-0.4,0.1-0.6,0.3-0.6,0.7c0,0.6,0.3,0.9,0.9,1
			c0.1,0,0.2,0,0.4-0.1c1.6-0.3,2.8-0.7,3.6-1c0.7-0.3,1.2-0.6,1.6-0.9c0.2-0.2,0.4-0.6,0.6-0.9c0.1,0.3,0.3,0.6,0.7,0.9
			c0.4,0.3,1,0.7,1.7,1c1,0.4,2.3,0.8,3.8,1c0.2,0.1,0.4,0.1,0.6,0.1l0,0c0.4,0,0.7-0.3,0.7-1c0-0.3-0.2-0.6-0.6-0.7l0,0
			c-0.8-0.1-1.6-0.2-2.1-0.3c-0.9-0.2-1.7-0.4-2.2-0.7c-0.6-0.3-1-0.6-1.2-0.9c-0.2-0.2-0.3-0.6-0.3-1v-1h4.1c0.1,0,0.4,0,0.4,0.7
			c0,0,0,0.1-0.1,0.2c-0.1,0.2-0.2,0.4-0.4,0.7l0,0c-0.1,0.1-0.1,0.2-0.1,0.3c0,0.6,0.3,0.8,1,0.8c0.3,0,0.6-0.1,0.8-0.3l0,0
			c0.2-0.6,0.4-1,0.6-1.6c0.1-0.2,0.1-0.4,0.1-0.7c0-1-0.6-1.6-1.6-1.6H259c0-0.1,0.1-0.3,0.1-0.6c0-0.6-0.3-0.8-0.9-0.8
			c-0.6,0-0.8,0.2-0.8,0.8c-0.1,0.7-0.2,1.1-0.4,1.6c-0.2,0.4-0.7,0.9-1.3,1.3l0,0c-0.2,0.2-0.2,0.3-0.2,0.6
			C255.1,51.6,255.5,51.9,256.1,51.9z"/>
		<path class="st2" d="M249.8,50h4.5c0.4,0,0.8-0.2,0.8-0.8s-0.2-0.8-0.8-0.8h-4.5c-0.6,0-0.8,0.2-0.8,0.8S249.2,50,249.8,50z"/>
		<path class="st2" d="M269.5,66.8c-2-0.4-4-1.1-6-1.9h3.7c0.9,0,1.3-0.4,1.3-1.2v-7c0-0.8-0.4-1.2-1.3-1.2h-15.6
			c-0.9,0-1.3,0.4-1.3,1.2v7c0,0.8,0.4,1.2,1.3,1.2h4c-1.7,0.7-3.7,1.3-6,1.8c-0.3,0.1-0.6,0.3-0.6,0.7c0,0.7,0.3,1,1,1
			c0.1,0,0.3,0,0.7-0.1c2.8-0.7,5-1.3,6.6-2.1l0,0c0.2-0.2,0.3-0.4,0.3-0.8c0-0.1,0-0.3-0.1-0.4h3.7c0,0.1,0,0.2,0,0.3
			c0,0.2,0.1,0.4,0.3,0.8l0,0c1.1,0.6,2.3,1,3.6,1.5c2.3,0.8,3.7,1.1,4,1.1c0.7,0,1-0.3,1-1C270.1,67.3,270,67,269.5,66.8z
			 M251.9,58.2v-0.8c0-0.3,0.1-0.6,0.4-0.6h14.1c0.3,0,0.4,0.1,0.4,0.6v0.8H251.9z M251.9,60.7v-1h14.8v1H251.9z M266.4,63.4h-14.1
			c-0.3,0-0.4-0.1-0.4-0.6V62h14.8v0.8C266.8,63.3,266.6,63.4,266.4,63.4z"/>
		<path class="st2" d="M249.8,54.9c0.9-0.2,1.8-0.6,2.8-1c0.8-0.3,1.5-0.7,1.9-1c0.2-0.1,0.3-0.3,0.3-0.4c0-0.7-0.3-0.9-0.9-0.9
			l-0.3,0.1c-1,0.4-1.8,0.8-2.2,1c-0.6,0.2-1.2,0.3-2.1,0.6c-0.4,0.1-0.7,0.4-0.7,1s0.3,0.9,0.9,0.9C249.6,55,249.7,55,249.8,54.9z"
			/>
		<path class="st2" d="M274.8,59h5.8c0.6,0,0.8-0.3,0.8-0.9s-0.2-0.8-0.8-0.8h-5.8c-0.6,0-0.8,0.2-0.8,0.8
			C274,58.8,274.2,59,274.8,59z"/>
		<path class="st2" d="M275,49.5h5.4c0.3,0,0.8-0.1,0.8-0.9c0-0.6-0.2-0.8-0.8-0.8H275c-0.6,0-0.8,0.2-0.8,0.8
			C274.1,49.2,274.5,49.5,275,49.5z"/>
		<path class="st2" d="M279.8,60.5h-4.4c-1.1,0-1.6,0.4-1.6,1.5v4.4c0,1,0.6,1.6,1.6,1.6h4.4c1.1,0,1.7-0.6,1.7-1.6v-4.4
			C281.5,61,280.9,60.5,279.8,60.5z M279.7,62.7v2.9c0,0.4-0.2,0.7-0.6,0.7h-2.9c-0.3,0-0.6-0.2-0.6-0.7v-2.9c0-0.4,0.2-0.6,0.6-0.6
			h2.9C279.5,62.1,279.7,62.4,279.7,62.7z"/>
		<path class="st2" d="M293.5,61.8c-0.6,0-0.8,0.2-0.9,0.7c-0.2,2.6-0.4,2.9-0.4,2.9s-0.1,0-0.1-0.6c-0.3-2.6-0.4-5-0.4-7.1v-8.3
			c0-1.1-0.6-1.7-1.7-1.7h-7.5c-0.6,0-0.9,0.3-0.9,0.9s0.3,0.9,0.9,0.9h2.5v6.6h-2.1c-0.6,0-0.8,0.2-0.8,0.8s0.2,0.9,0.8,0.9h2v9.7
			c0,0.6,0.3,0.9,0.9,0.9c0.6,0,0.9-0.3,0.9-0.9v-9.7h1.9c0.6,0,0.8-0.3,0.8-0.9s-0.2-0.8-0.8-0.8h-1.9v-6.6h2.6
			c0.4,0,0.7,0.2,0.7,0.7v7.6c0,2.7,0.1,5,0.4,6.8c0.2,1.3,0.6,2.3,0.9,3c0.2,0.6,0.6,0.8,1,0.8c0.3,0,0.6-0.2,0.9-0.6
			c0.3-0.4,0.6-1.2,0.9-2.5c0.2-1.2,0.3-2.1,0.3-2.5C294.4,62.1,294.1,61.9,293.5,61.8z"/>
		<path class="st2" d="M281.3,50.9h-7.4c-0.6,0-0.9,0.3-0.9,0.9s0.3,0.9,0.9,0.9h7.4c0.6,0,0.9-0.3,0.9-0.9S281.8,50.9,281.3,50.9z"
			/>
		<path class="st2" d="M280.6,55.8c0.6,0,0.8-0.3,0.8-0.9s-0.2-0.8-0.8-0.8h-5.8c-0.6,0-0.8,0.2-0.8,0.8s0.2,0.9,0.8,0.9H280.6z"/>
		<path class="st2" d="M316.5,47.7h-9c-1.1,0-1.7,0.6-1.7,1.7v18.5c0,0.6,0.2,0.8,0.8,0.8c0.6,0,0.9-0.2,0.9-0.8V49.7
			c0-0.3,0.1-0.6,0.2-0.6h8.5c0.1,0,0.3,0,0.3,0.6v16.5c0,0.6-0.2,0.9-0.9,0.9c-0.4,0-1-0.1-1.7-0.3c-0.2-0.1-0.3-0.1-0.6-0.1
			c-0.4,0-0.7,0.3-0.7,1c0,0.3,0.2,0.6,0.6,0.7c1,0.2,1.8,0.3,2.6,0.3c1.6,0,2.3-0.7,2.3-2V49.4C318.2,48.3,317.7,47.7,316.5,47.7z"
			/>
		<path class="st2" d="M315.9,63c0-0.6-0.3-0.8-0.9-0.8h-4c-0.2,0-0.3-0.1-0.3-0.4v-3.1h4.9c0.6,0,0.8-0.2,0.8-0.8s-0.2-0.8-0.8-0.8
			h-2.9v-1.9h2.8c0.3,0,0.7-0.1,0.7-0.8c0-0.7-0.3-0.8-0.7-0.8h-1.3l0.3-0.6c0.2-0.6,0.6-1.2,0.8-1.9c0.1-0.1,0.2-0.3,0.2-0.6
			s-0.1-0.4-0.2-0.7c-0.1-0.1-0.3-0.2-0.6-0.2c-0.3,0-0.6,0.1-0.8,0.3l0,0c-0.2,0.9-0.6,1.7-0.8,2.5c-0.1,0.3-0.3,0.7-0.4,1H309
			c-0.4,0-0.7,0.2-0.7,0.8c0,0.4,0.2,0.8,0.7,0.8h2.2V57h-2.3c-0.6,0-0.8,0.2-0.8,0.8s0.2,0.8,0.8,0.8h0.4V62c0,1.1,0.6,1.6,1.7,1.6
			h4.4C315.5,63.8,315.9,63.5,315.9,63z"/>
		<path class="st2" d="M310.5,53.3c0.7,0,0.8-0.3,0.8-0.7c0-0.1,0-0.2,0-0.4c-0.1-0.8-0.2-1.5-0.4-1.8c-0.1-0.3-0.4-0.4-0.8-0.4
			c-0.7,0-0.8,0.3-0.8,0.7v0.2c0.1,0.4,0.3,1.1,0.4,1.8C309.7,53.1,310,53.3,310.5,53.3z"/>
		<path class="st2" d="M298.9,59.8c-0.4,0-0.7,0.2-0.7,0.7c-0.1,2.3-0.3,4.4-0.8,5.9c-0.1,0.2-0.1,0.4-0.1,0.7
			c0,0.4,0.2,0.7,0.7,0.7c0.6,0,0.9-0.2,1-0.8c0.4-1.9,0.6-4,0.6-6.3C299.7,60.1,299.5,59.8,298.9,59.8z"/>
		<path class="st2" d="M304.6,60.6c-0.1-0.2-0.3-0.4-0.7-0.4c-0.6,0-0.7,0.3-0.7,0.7v0.3c0.2,1.1,0.3,2.5,0.6,4
			c0,0.4,0.2,0.7,0.7,0.7c0.7,0,0.8-0.3,0.8-0.7c0-0.1,0-0.3-0.1-0.8C305,62.6,304.8,61.4,304.6,60.6z"/>
		<path class="st2" d="M304.4,55.4c-0.2-0.2-0.3-0.4-0.6-0.4c-0.6,0-0.8,0.2-0.8,0.7c0,0.1,0,0.2,0.1,0.3c0,0.1,0.1,0.2,0.1,0.4
			c-0.7,0.1-1.5,0.2-2.2,0.3c0.4-0.6,0.9-1.1,1.3-1.7c0.8-1.2,1.6-2.5,2.2-3.7c0.1-0.2,0.2-0.3,0.2-0.6c0-0.2-0.1-0.4-0.2-0.6
			c-0.1-0.1-0.3-0.2-0.6-0.2c-0.3,0-0.6,0.1-0.8,0.4c-0.6,1-1.1,2-1.8,3c-0.4-0.4-0.9-0.9-1.3-1.3c0.9-1.1,1.7-2.5,2.5-4
			c0.1-0.2,0.1-0.3,0.1-0.4c0-0.2-0.1-0.4-0.3-0.6c-0.2-0.1-0.4-0.2-0.8-0.2c-0.3,0-0.6,0.1-0.7,0.4c-0.7,1.5-1.3,2.8-2.1,3.7l0,0
			c-0.2-0.1-0.4-0.2-0.6-0.2c-0.6,0-0.8,0.2-0.8,0.8c0,0.2,0.1,0.4,0.3,0.7l0,0c0.4,0.3,0.8,0.6,1.1,0.9c0.4,0.3,0.9,0.8,1.5,1.5
			c0.1,0,0.1,0.1,0.2,0.1c-0.6,0.8-1.1,1.5-1.8,2.1c-0.2,0-0.4,0-0.7,0c-0.6,0-0.8,0.2-0.8,0.8c0,0.7,0.2,1,0.8,1l0,0
			c0.9-0.1,1.8-0.2,2.8-0.4v9.2c0,0.6,0.2,0.8,0.8,0.8s0.9-0.2,0.9-0.8v-9.5c0.3-0.1,0.8-0.1,1.1-0.2c0,0.2,0.1,0.3,0.1,0.6
			c0.1,0.3,0.3,0.6,0.6,0.6c0.7,0,1-0.2,1-0.7c0-0.2,0-0.3-0.1-0.6C304.9,57,304.7,56.2,304.4,55.4z"/>
	</g>
	<g>
		<polygon class="st3" points="127,79.4 129.8,79.4 129.8,86.7 131,86.7 131,79.4 133.8,79.4 133.8,78.3 127,78.3 		"/>
		<path class="st3" d="M137.9,80.2c-0.3,0-0.7,0.1-1,0.2c-0.2,0.1-0.6,0.3-0.9,0.6v-3h-1.1v8.7h1.1V82c0.2-0.2,0.6-0.3,0.8-0.6
			c0.2-0.1,0.6-0.2,0.8-0.2s0.4,0,0.6,0.1c0.1,0.1,0.2,0.2,0.3,0.3c0.1,0.1,0.1,0.3,0.1,0.6s0,0.6,0,0.8v3.6h1.1v-4
			c0-0.8-0.2-1.3-0.6-1.8C139,80.4,138.5,80.2,137.9,80.2z"/>
		<path class="st3" d="M146.1,80.9c-0.2-0.2-0.4-0.4-0.8-0.6c-0.3-0.1-0.7-0.2-1-0.2c-0.9,0-1.6,0.3-2.1,0.9
			c-0.6,0.6-0.8,1.5-0.8,2.5c0,1,0.3,1.8,0.8,2.5c0.6,0.6,1.3,0.9,2.3,0.9c0.2,0,0.4,0,0.7,0c0.1,0,0.3-0.1,0.6-0.1
			c0.1,0,0.3-0.1,0.4-0.2c0.2-0.1,0.3-0.1,0.4-0.2l0,0V85h-0.1l0,0c-0.1,0.1-0.2,0.1-0.3,0.2s-0.2,0.1-0.4,0.2s-0.3,0.1-0.6,0.2
			c-0.2,0-0.4,0.1-0.7,0.1c-0.7,0-1.1-0.2-1.5-0.6c-0.3-0.3-0.6-0.9-0.6-1.6h4.2V83c0-0.4-0.1-0.9-0.2-1.2
			C146.5,81.5,146.3,81.1,146.1,80.9z M142.6,82.1c0.1-0.2,0.2-0.3,0.3-0.6c0.1-0.1,0.3-0.2,0.6-0.3c0.2-0.1,0.4-0.1,0.7-0.1
			c0.2,0,0.4,0,0.7,0.1s0.3,0.2,0.4,0.3c0.1,0.1,0.2,0.3,0.2,0.4c0,0.2,0.1,0.4,0.1,0.7h-3.1C142.5,82.6,142.6,82.3,142.6,82.1z"/>
		<polygon class="st3" points="152.4,86.7 157.7,86.7 157.7,85.6 153.7,85.6 153.7,82.7 157.3,82.7 157.3,81.6 153.7,81.6 
			153.7,79.4 157.7,79.4 157.7,78.3 152.4,78.3 		"/>
		<polygon class="st3" points="164.2,80.3 162.8,80.3 161.4,82.7 159.9,80.4 159.9,80.3 158.5,80.3 160.7,83.6 158.6,86.6 
			158.5,86.7 159.8,86.7 161.2,84.4 162.7,86.6 162.7,86.7 164.2,86.7 162,83.5 164.2,80.4 		"/>
		<path class="st3" d="M169.5,80.9c-0.2-0.2-0.4-0.4-0.8-0.6s-0.7-0.2-1-0.2c-0.9,0-1.6,0.3-2.1,0.9c-0.6,0.6-0.8,1.5-0.8,2.5
			c0,1,0.3,1.8,0.8,2.5c0.6,0.6,1.3,0.9,2.3,0.9c0.2,0,0.4,0,0.7,0c0.1,0,0.3-0.1,0.6-0.1c0.1,0,0.3-0.1,0.4-0.2
			c0.2-0.1,0.3-0.1,0.4-0.2l0,0V85H170l0,0c-0.1,0.1-0.2,0.1-0.3,0.2c-0.1,0.1-0.2,0.1-0.4,0.2c-0.2,0.1-0.3,0.1-0.6,0.2
			c-0.2,0-0.4,0.1-0.7,0.1c-0.7,0-1.1-0.2-1.5-0.6c-0.3-0.3-0.6-0.9-0.6-1.6h4.2V83c0-0.4-0.1-0.9-0.2-1.2
			C170,81.5,169.7,81.1,169.5,80.9z M166.1,82.1c0.1-0.2,0.2-0.3,0.3-0.6c0.1-0.1,0.3-0.2,0.6-0.3c0.2-0.1,0.4-0.1,0.7-0.1
			c0.2,0,0.4,0,0.7,0.1c0.2,0.1,0.3,0.2,0.4,0.3c0.1,0.1,0.2,0.3,0.2,0.4c0,0.2,0.1,0.4,0.1,0.7h-3.1
			C165.9,82.6,166.1,82.3,166.1,82.1z"/>
		<path class="st3" d="M175.2,80.3c-0.3-0.1-0.7-0.1-1-0.1c-0.4,0-0.8,0.1-1.2,0.2c-0.3,0.1-0.7,0.3-0.9,0.7c-0.2,0.2-0.4,0.6-0.6,1
			c-0.1,0.4-0.2,0.9-0.2,1.5c0,0.6,0.1,1,0.2,1.5c0.1,0.4,0.3,0.8,0.6,1c0.2,0.2,0.6,0.4,0.9,0.6s0.8,0.2,1.2,0.2c0.2,0,0.4,0,0.6,0
			s0.3-0.1,0.4-0.1c0.1,0,0.2-0.1,0.4-0.1c0.1-0.1,0.3-0.1,0.3-0.2l0,0v-1.2h-0.1l0,0c-0.2,0.2-0.4,0.4-0.8,0.6s-0.7,0.2-0.9,0.2
			c-0.6,0-1-0.2-1.2-0.6c-0.3-0.4-0.4-1-0.4-1.7c0-0.8,0.1-1.3,0.4-1.7c0.3-0.4,0.8-0.6,1.2-0.6c0.2,0,0.3,0,0.6,0.1
			c0.2,0,0.3,0.1,0.4,0.2c0.2,0.1,0.3,0.1,0.4,0.2c0.1,0.1,0.2,0.1,0.3,0.2l0,0h0.1V81l0,0C175.8,80.6,175.5,80.4,175.2,80.3z"/>
		<path class="st3" d="M181.2,85c-0.2,0.2-0.4,0.3-0.8,0.6c-0.2,0.1-0.6,0.2-0.8,0.2s-0.4,0-0.6-0.1s-0.2-0.2-0.3-0.3
			c-0.1-0.1-0.1-0.3-0.1-0.6s0-0.4,0-0.8v-3.6h-1.1v4c0,0.4,0,0.8,0.1,1.1s0.2,0.6,0.4,0.8s0.4,0.3,0.7,0.4c0.2,0.1,0.6,0.1,0.8,0.1
			c0.3,0,0.7-0.1,1-0.2c0.2-0.1,0.6-0.3,0.8-0.6v0.7h1.1v-6.3h-1.1V85H181.2z"/>
		<path class="st3" d="M185.5,78.5h-1.1v1.8h-0.7v1h0.7v3.3c0,0.7,0.1,1.2,0.4,1.6c0.3,0.3,0.8,0.4,1.3,0.4c0.2,0,0.3,0,0.6,0
			s0.4-0.1,0.6-0.1l0,0v-1h-0.1l0,0c-0.1,0-0.2,0.1-0.3,0.1s-0.3,0.1-0.4,0.1c-0.2,0-0.4,0-0.6-0.1s-0.2-0.1-0.2-0.2
			c-0.1-0.1-0.1-0.3-0.1-0.4s0-0.4,0-0.7v-2.9h1.9v-1h-1.9L185.5,78.5L185.5,78.5z"/>
		<rect x="188.6" y="80.3" class="st3" width="1.1" height="6.3"/>
		<rect x="188.6" y="78.2" class="st3" width="1.3" height="1.2"/>
		<polygon class="st3" points="193.8,85 192.3,80.4 192.2,80.3 190.9,80.3 193.3,86.6 193.3,86.7 194.3,86.7 196.8,80.3 195.5,80.3 
					"/>
		<path class="st3" d="M202.1,80.9c-0.2-0.2-0.4-0.4-0.8-0.6s-0.7-0.2-1-0.2c-0.9,0-1.6,0.3-2.1,0.9c-0.6,0.6-0.8,1.5-0.8,2.5
			c0,1,0.2,1.8,0.8,2.5c0.6,0.6,1.3,0.9,2.3,0.9c0.2,0,0.4,0,0.7,0c0.1,0,0.3-0.1,0.6-0.1c0.1,0,0.3-0.1,0.4-0.2h0.1
			c0.1-0.1,0.2-0.1,0.3-0.1l0,0v-1.2h-0.1l0,0c-0.1,0.1-0.2,0.1-0.3,0.2s-0.2,0.1-0.4,0.2s-0.3,0.1-0.6,0.2c-0.2,0-0.4,0.1-0.7,0.1
			c-0.7,0-1.1-0.2-1.5-0.6s-0.6-0.9-0.6-1.6h4.2v-0.7c0-0.4-0.1-0.9-0.2-1.2C202.6,81.5,202.3,81.1,202.1,80.9z M198.6,82.1
			c0.1-0.2,0.2-0.3,0.3-0.6c0.1-0.1,0.3-0.2,0.6-0.3s0.4-0.1,0.7-0.1s0.6,0,0.7,0.1c0.2,0.1,0.3,0.2,0.4,0.3
			c0.1,0.1,0.2,0.3,0.2,0.4c0,0.2,0.1,0.4,0.1,0.7h-3.1C198.5,82.6,198.6,82.3,198.6,82.1z"/>
		<polygon class="st3" points="210.9,81.9 208.9,78.3 208.8,78.3 207.5,78.3 210.4,83.1 210.4,86.7 211.5,86.7 211.5,83 214.3,78.4 
			214.4,78.3 213.1,78.3 		"/>
		<path class="st3" d="M218.6,85c-0.2,0.2-0.4,0.3-0.8,0.6c-0.2,0.1-0.6,0.2-0.8,0.2s-0.4,0-0.6-0.1s-0.2-0.2-0.3-0.3
			c-0.1-0.1-0.1-0.3-0.1-0.6s0-0.4,0-0.8v-3.6h-1.1v4c0,0.4,0,0.8,0.1,1.1s0.2,0.6,0.4,0.8s0.4,0.3,0.7,0.4c0.2,0.1,0.6,0.1,0.8,0.1
			c0.3,0,0.7-0.1,1-0.2c0.2-0.1,0.6-0.3,0.8-0.6v0.7h1.1v-6.3h-1.1V85H218.6z"/>
		<path class="st3" d="M225.6,80.7c-0.2-0.2-0.6-0.3-0.8-0.3c-0.3-0.1-0.7-0.1-1.1-0.1c-0.3,0-0.7,0-1.1,0.1
			c-0.3,0.1-0.7,0.1-0.8,0.2l0,0v1.1h0.1l0,0c0.3-0.1,0.7-0.2,1-0.3c0.3-0.1,0.6-0.1,0.8-0.1s0.4,0,0.6,0c0.2,0,0.3,0.1,0.4,0.1
			c0.1,0.1,0.2,0.2,0.3,0.3c0.1,0.1,0.1,0.3,0.1,0.6v0.1c-0.6,0-1,0.1-1.5,0.1c-0.4,0.1-0.9,0.2-1.2,0.3c-0.4,0.2-0.7,0.4-0.9,0.8
			c-0.2,0.3-0.2,0.7-0.2,1.1c0,0.3,0,0.6,0.1,0.8s0.2,0.4,0.4,0.7s0.3,0.3,0.7,0.4c0.2,0.1,0.4,0.1,0.8,0.1s0.6,0,0.8-0.1
			c0.2,0,0.3-0.1,0.6-0.2c0.1-0.1,0.2-0.1,0.4-0.2c0.1-0.1,0.2-0.1,0.2-0.2v0.6h1.1v-4.2c0-0.4-0.1-0.8-0.2-1
			C226,81.1,225.8,80.9,225.6,80.7z M225.1,83.5v1.7c-0.2,0.2-0.4,0.3-0.7,0.4c-0.2,0.1-0.6,0.2-0.9,0.2s-0.7-0.1-0.8-0.2
			c-0.2-0.2-0.3-0.4-0.3-0.8s0.1-0.6,0.2-0.7c0.2-0.2,0.4-0.3,0.7-0.3c0.2-0.1,0.6-0.1,0.9-0.1C224.7,83.5,224.9,83.5,225.1,83.5z"
			/>
		<path class="st3" d="M231.1,80.2c-0.3,0-0.7,0.1-1,0.2c-0.2,0.1-0.6,0.3-0.9,0.6v-0.7h-1.1v6.3h1.1v-4.7c0.2-0.2,0.6-0.3,0.8-0.6
			c0.2-0.1,0.6-0.2,0.8-0.2s0.4,0,0.6,0.1s0.2,0.2,0.3,0.3c0.1,0.1,0.1,0.3,0.1,0.6s0,0.6,0,0.8v3.6h1.1v-4c0-0.8-0.2-1.3-0.6-1.8
			C232.3,80.4,231.8,80.2,231.1,80.2z"/>
		<path class="st3" d="M242.3,83.5h1.9v2c-0.2,0.1-0.4,0.1-0.8,0.2c-0.3,0-0.6,0.1-0.9,0.1c-0.4,0-0.8-0.1-1.1-0.2s-0.6-0.3-0.8-0.7
			c-0.2-0.3-0.4-0.7-0.6-1c-0.1-0.4-0.2-0.9-0.2-1.5c0-1,0.2-1.8,0.7-2.3c0.4-0.6,1.1-0.9,1.9-0.9c0.3,0,0.7,0,0.9,0.1
			c0.3,0.1,0.6,0.1,0.8,0.2c0.2,0.1,0.4,0.2,0.6,0.3c0.1,0.1,0.3,0.2,0.4,0.3l0,0h0.2v-1.5l0,0c-0.1-0.1-0.3-0.1-0.6-0.2
			s-0.4-0.2-0.7-0.2c-0.2-0.1-0.4-0.1-0.8-0.2c-0.2,0-0.6-0.1-0.8-0.1c-0.6,0-1.1,0.1-1.7,0.3c-0.4,0.2-0.9,0.4-1.2,0.9
			c-0.3,0.3-0.7,0.8-0.8,1.3c-0.2,0.6-0.3,1.1-0.3,1.8c0,0.7,0.1,1.3,0.2,1.9c0.1,0.6,0.4,1,0.8,1.3c0.3,0.3,0.8,0.7,1.2,0.8
			c0.4,0.2,1,0.2,1.6,0.2c0.3,0,0.6,0,0.8-0.1c0.2,0,0.4-0.1,0.8-0.2c0.2,0,0.4-0.1,0.7-0.2c0.2-0.1,0.4-0.2,0.6-0.2l0,0v-3.7H242
			v1.3H242.3z"/>
		<path class="st3" d="M251.1,80.7c-0.2-0.2-0.6-0.3-0.8-0.3c-0.3-0.1-0.7-0.1-1.1-0.1c-0.3,0-0.7,0-1.1,0.1
			c-0.3,0.1-0.7,0.1-0.8,0.2l0,0v1.1h0.1l0,0c0.3-0.1,0.7-0.2,1-0.3c0.3-0.1,0.6-0.1,0.8-0.1c0.2,0,0.4,0,0.6,0
			c0.2,0,0.3,0.1,0.4,0.1c0.1,0.1,0.2,0.2,0.3,0.3s0.1,0.3,0.1,0.6v0.1c-0.6,0-1,0.1-1.5,0.1c-0.4,0.1-0.9,0.2-1.2,0.3
			c-0.4,0.2-0.7,0.4-0.9,0.8c-0.2,0.3-0.2,0.7-0.2,1.1c0,0.3,0,0.6,0.1,0.8c0.1,0.2,0.2,0.4,0.4,0.7s0.3,0.3,0.7,0.4
			c0.2,0.1,0.4,0.1,0.8,0.1c0.3,0,0.6,0,0.8-0.1c0.2,0,0.3-0.1,0.6-0.2c0.1-0.1,0.2-0.1,0.4-0.2c0.1-0.1,0.2-0.1,0.2-0.2v0.6h1.1
			v-4.2c0-0.4-0.1-0.8-0.2-1C251.5,81.1,251.3,80.9,251.1,80.7z M250.6,83.5v1.7c-0.2,0.2-0.4,0.3-0.7,0.4c-0.2,0.1-0.6,0.2-0.9,0.2
			s-0.7-0.1-0.8-0.2c-0.2-0.2-0.3-0.4-0.3-0.8s0.1-0.6,0.2-0.7c0.2-0.2,0.4-0.3,0.7-0.3c0.2-0.1,0.6-0.1,0.9-0.1
			C250.1,83.5,250.3,83.5,250.6,83.5z"/>
		<polygon class="st3" points="257.7,81.2 257.7,81.2 257.7,80.3 253.2,80.3 253.2,81.3 256.4,81.3 253.1,85.8 253.1,85.8 
			253.1,86.7 257.8,86.7 257.8,85.7 254.6,85.7 		"/>
		<path class="st3" d="M263.5,80.9c-0.2-0.2-0.4-0.4-0.8-0.6s-0.7-0.2-1-0.2c-0.9,0-1.6,0.3-2.1,0.9c-0.6,0.6-0.8,1.5-0.8,2.5
			c0,1,0.2,1.8,0.8,2.5c0.6,0.6,1.3,0.9,2.3,0.9c0.2,0,0.4,0,0.7,0c0.1,0,0.3-0.1,0.6-0.1c0.1,0,0.3-0.1,0.4-0.2h0.1
			c0.1-0.1,0.2-0.1,0.3-0.1l0,0v-1.2H264l0,0c-0.1,0.1-0.2,0.1-0.3,0.2s-0.2,0.1-0.4,0.2s-0.3,0.1-0.6,0.2c-0.2,0-0.4,0.1-0.7,0.1
			c-0.7,0-1.1-0.2-1.5-0.6s-0.6-0.9-0.6-1.6h4.2v-0.7c0-0.4-0.1-0.9-0.2-1.2C263.8,81.5,263.7,81.1,263.5,80.9z M260.1,82.1
			c0.1-0.2,0.2-0.3,0.3-0.6c0.1-0.1,0.3-0.2,0.6-0.3c0.2-0.1,0.4-0.1,0.7-0.1s0.6,0,0.7,0.1c0.2,0.1,0.3,0.2,0.4,0.3
			c0.1,0.1,0.2,0.3,0.2,0.4c0,0.2,0.1,0.4,0.1,0.7h-3.1C259.9,82.6,259.9,82.3,260.1,82.1z"/>
		<path class="st3" d="M266.9,78.5h-1.1v1.8H265v1h0.7v3.3c0,0.7,0.1,1.2,0.4,1.6c0.3,0.3,0.8,0.4,1.3,0.4c0.2,0,0.3,0,0.6,0
			c0.2,0,0.4-0.1,0.6-0.1l0,0v-1h-0.1l0,0c-0.1,0-0.2,0.1-0.3,0.1c-0.1,0-0.3,0.1-0.4,0.1c-0.2,0-0.4,0-0.6-0.1
			c-0.1-0.1-0.2-0.1-0.2-0.2c-0.1-0.1-0.1-0.3-0.1-0.4s0-0.4,0-0.7v-2.9h1.9v-1h-1.9v-1.9H266.9z"/>
		<path class="st3" d="M271.1,78.5H270v1.8h-0.7v1h0.7v3.3c0,0.7,0.1,1.2,0.4,1.6c0.3,0.3,0.8,0.4,1.3,0.4c0.2,0,0.3,0,0.6,0
			s0.4-0.1,0.6-0.1l0,0v-1h-0.1l0,0c-0.1,0-0.2,0.1-0.3,0.1c-0.1,0-0.3,0.1-0.4,0.1c-0.2,0-0.4,0-0.6-0.1c-0.1-0.1-0.2-0.1-0.2-0.2
			c-0.1-0.1-0.1-0.3-0.1-0.4s0-0.4,0-0.7v-2.9h1.9v-1h-1.9V78.5z"/>
		<path class="st3" d="M278.5,80.9c-0.2-0.2-0.4-0.4-0.8-0.6c-0.3-0.1-0.7-0.2-1-0.2c-0.9,0-1.6,0.3-2.1,0.9
			c-0.6,0.6-0.8,1.5-0.8,2.5c0,1,0.2,1.8,0.8,2.5c0.6,0.7,1.3,0.9,2.3,0.9c0.2,0,0.4,0,0.7,0c0.1,0,0.3-0.1,0.6-0.1
			c0.1,0,0.3-0.1,0.4-0.2c0.1-0.1,0.3-0.1,0.4-0.1h0.1v-1.2H279l0,0c-0.1,0.1-0.2,0.1-0.3,0.2c-0.1,0.1-0.3,0.1-0.4,0.2
			c-0.2,0.1-0.3,0.1-0.6,0.2c-0.2,0-0.4,0.1-0.7,0.1c-0.7,0-1.1-0.2-1.5-0.6c-0.3-0.3-0.6-0.9-0.6-1.6h4.2v-0.7
			c0-0.4-0.1-0.9-0.2-1.2C278.9,81.5,278.7,81.1,278.5,80.9z M275.1,82.1c0.1-0.2,0.2-0.3,0.3-0.6c0.1-0.1,0.3-0.2,0.6-0.3
			c0.2-0.1,0.4-0.1,0.7-0.1c0.2,0,0.4,0,0.7,0.1c0.2,0.1,0.3,0.2,0.4,0.3c0.1,0.1,0.2,0.3,0.2,0.4c0,0.2,0.1,0.4,0.1,0.7H275
			C274.9,82.6,275,82.3,275.1,82.1z"/>
		<path class="st3" d="M290.8,79.3c-0.3-0.3-0.7-0.7-1.1-0.9s-1-0.3-1.6-0.3s-1.1,0.1-1.6,0.3c-0.4,0.2-0.9,0.4-1.1,0.9
			c-0.3,0.3-0.6,0.9-0.8,1.3c-0.2,0.6-0.2,1.1-0.2,1.8c0,0.7,0.1,1.3,0.2,1.8c0.2,0.6,0.4,1,0.8,1.3c0.3,0.3,0.7,0.7,1.1,0.9
			c0.4,0.2,1,0.3,1.6,0.3s1-0.1,1.5-0.2c0.4-0.2,0.9-0.4,1.2-0.9c0.3-0.3,0.6-0.8,0.8-1.3c0.2-0.6,0.2-1.1,0.2-1.8
			c0-0.7-0.1-1.3-0.2-1.9C291.3,80.1,291.1,79.7,290.8,79.3z M290.5,82.5c0,1.1-0.2,1.9-0.7,2.5c-0.4,0.6-1,0.9-1.8,0.9
			s-1.3-0.3-1.8-0.9c-0.4-0.6-0.7-1.3-0.7-2.5c0-0.6,0.1-1,0.2-1.5c0.1-0.4,0.3-0.8,0.4-1c0.2-0.3,0.4-0.4,0.8-0.7
			c0.3-0.1,0.7-0.2,1-0.2c0.3,0,0.7,0.1,1,0.2c0.3,0.1,0.6,0.3,0.8,0.7c0.2,0.2,0.3,0.7,0.4,1C290.4,81.5,290.5,82,290.5,82.5z"/>
		<path class="st3" d="M296.2,80.2c-0.3,0-0.7,0.1-1,0.2c-0.2,0.1-0.6,0.3-0.9,0.6v-0.7h-1.1v6.3h1.1v-4.7c0.2-0.2,0.6-0.3,0.8-0.6
			c0.2-0.1,0.6-0.2,0.8-0.2s0.4,0,0.6,0.1c0.1,0.1,0.2,0.2,0.3,0.3c0.1,0.1,0.1,0.3,0.1,0.6s0,0.6,0,0.8v3.6h1.1v-4
			c0-0.8-0.2-1.3-0.6-1.8C297.3,80.4,296.9,80.2,296.2,80.2z"/>
		<rect x="300.1" y="78" class="st3" width="1.1" height="8.7"/>
		<rect x="303.3" y="78.2" class="st3" width="1.3" height="1.2"/>
		<rect x="303.3" y="80.3" class="st3" width="1.1" height="6.3"/>
		<path class="st3" d="M309.4,80.2c-0.3,0-0.7,0.1-1,0.2c-0.2,0.1-0.6,0.3-0.9,0.6v-0.7h-1.1v6.3h1.1v-4.7c0.2-0.2,0.6-0.3,0.8-0.6
			c0.2-0.1,0.6-0.2,0.8-0.2s0.4,0,0.6,0.1c0.1,0.1,0.2,0.2,0.3,0.3c0.1,0.1,0.1,0.3,0.1,0.6s0,0.6,0,0.8v3.6h1.1v-4
			c0-0.8-0.2-1.3-0.6-1.8C310.4,80.4,310,80.2,309.4,80.2z"/>
		<path class="st3" d="M318.2,83c0-0.4-0.1-0.9-0.2-1.2c-0.1-0.3-0.3-0.7-0.6-0.9c-0.2-0.2-0.4-0.4-0.8-0.6c-0.3-0.1-0.7-0.2-1-0.2
			c-0.9,0-1.6,0.3-2.1,0.9c-0.6,0.6-0.8,1.5-0.8,2.5c0,1,0.2,1.8,0.8,2.5c0.6,0.7,1.3,0.9,2.3,0.9c0.2,0,0.4,0,0.7,0
			c0.1,0,0.3-0.1,0.6-0.1c0.1,0,0.3-0.1,0.4-0.2c0.1-0.1,0.3-0.1,0.4-0.1h0.1v-1.2H318l0,0c-0.1,0.1-0.2,0.1-0.3,0.2
			s-0.3,0.1-0.4,0.2c-0.2,0.1-0.3,0.1-0.6,0.2c-0.2,0-0.4,0.1-0.7,0.1c-0.7,0-1.1-0.2-1.5-0.6c-0.3-0.3-0.6-0.9-0.6-1.6h4.2V83z
			 M314.1,82.1c0.1-0.2,0.2-0.3,0.3-0.6c0.1-0.1,0.3-0.2,0.6-0.3c0.2-0.1,0.4-0.1,0.7-0.1s0.4,0,0.7,0.1s0.3,0.2,0.4,0.3
			c0.1,0.1,0.2,0.3,0.2,0.4c0,0.2,0.1,0.4,0.1,0.7H314C314,82.6,314.1,82.3,314.1,82.1z"/>
	</g>
</g>
</svg>
