<?xml version="1.0" encoding="utf-8"?>
<!-- Generator: Adobe Illustrator 27.1.1, SVG Export Plug-In . SVG Version: 6.00 Build 0)  -->
<svg version="1.1" id="圖層_3" xmlns="http://www.w3.org/2000/svg" xmlns:xlink="http://www.w3.org/1999/xlink" x="0px" y="0px"
	 viewBox="0 0 360 132" style="enable-background:new 0 0 360 132;" xml:space="preserve">
<style type="text/css">
	.st0{fill:#95CE1F;}
	.st1{fill:#5C5E67;}
	.st2{fill:#6E9041;}
</style>
<g>
	<rect x="79.6" y="47" class="st0" width="2.9" height="38.3"/>
	<path class="st0" d="M81,87.4c-0.7,0-1.3-0.2-1.7-0.7c-1.6-1.6-5-4.3-7.2-4.3c-6.4,0-14.5,4.6-14.6,4.6c-0.7,0.4-1.6,0.4-2.3,0
		S54,85.8,54,85V44.4c0-0.7,0.3-1.3,0.8-1.7s1.1-0.7,1.9-0.6c0,0,3.6,0.4,13.4-0.9c8.6-1.1,12.8,5.9,13,6.2c0.7,1.1,0.3,2.6-0.8,3.2
		c-1.1,0.7-2.6,0.3-3.2-0.8c-0.1-0.2-2.8-4.6-8.3-3.9c-5.9,0.8-9.7,1-11.9,1v34.4c3.4-1.6,8.6-3.5,13.4-3.5c3.4,0,6.8,2.5,8.9,4.1
		c2-1.7,5.5-4.1,8.9-4.1c4.8,0,10,2,13.4,3.5V70.4c0-1.3,1.1-2.3,2.3-2.3c1.3,0,2.3,1.1,2.3,2.3V85c0,0.8-0.4,1.6-1.2,2
		c-0.7,0.4-1.6,0.4-2.3,0c-0.1-0.1-8.2-4.6-14.6-4.6c-2.3,0-5.8,2.9-7.2,4.3C82.3,87.2,81.7,87.4,81,87.4z"/>
	<path class="st1" d="M105.7,93.9H56.5c-1.3,0-2.4-1.1-2.4-2.3s1.1-2.4,2.3-2.4h49.2c1.3,0,2.3,1.1,2.3,2.3
		C107.9,92.7,106.9,93.9,105.7,93.9z"/>
	<path class="st0" d="M94.4,70.4c-4.1,0-8.3-1.6-11.4-4.7c-6.3-6.3-6.3-16.5,0-22.8s16.5-6.3,22.8,0s6.3,16.5,0,22.8
		C102.7,68.8,98.5,70.4,94.4,70.4z M94.4,42.8c-2.9,0-5.8,1.1-8,3.4c-4.4,4.4-4.4,11.7,0,16.1s11.7,4.4,16.1,0s4.4-11.7,0-16.1
		C100.3,44,97.3,42.8,94.4,42.8z"/>
	<path class="st1" d="M95.4,70.3c-1.2,0-2.3-1-2.3-2.2c-0.1-1.3,0.9-2.4,2.2-2.5c2.8-0.2,5.3-1.4,7.3-3.3c2.2-2.2,3.4-5,3.4-8
		c0-1.3,1.1-2.3,2.3-2.3c1.3,0,2.3,1.1,2.3,2.3c0,4.3-1.7,8.3-4.7,11.4c-2.8,2.8-6.4,4.4-10.3,4.7C95.5,70.3,95.5,70.3,95.4,70.3z"
		/>
	<path class="st1" d="M111.4,78.6c-0.6,0-1.2-0.2-1.7-0.7L99.5,67.7l3.3-3.3l8.6,8.5l1.7-1.7l-8.6-8.6l3.3-3.3L118,69.6
		c0.9,0.9,0.9,2.4,0,3.3l-5,5C112.6,78.4,112,78.6,111.4,78.6z"/>
	<path class="st1" d="M81,87.4c-0.7,0-1.3-0.2-1.7-0.7c-1.6-1.6-5-4.3-7.2-4.3c-6.4,0-14.5,4.6-14.6,4.6c-0.7,0.4-1.6,0.4-2.3,0
		S54,85.8,54,85V66.2c0-1.3,1.1-2.3,2.3-2.3s2.3,1.1,2.3,2.3v15.1c3.4-1.6,8.6-3.5,13.4-3.5c3.4,0,6.8,2.5,8.9,4.1
		c2-1.7,5.5-4.1,8.9-4.1c1.9,0,3.9,0.3,6.1,0.8c1.3,0.3,2,1.6,1.7,2.9s-1.6,2-2.9,1.7c-1.9-0.5-3.5-0.7-4.9-0.7
		c-2.3,0-5.8,2.9-7.2,4.3C82.3,87.2,81.7,87.4,81,87.4z"/>
</g>
<g>
	<path class="st1" d="M138.6,51.6h9c0.5,0,0.8-0.3,0.8-0.8s-0.3-0.8-0.8-0.8h-9c-0.5,0-0.8,0.3-0.8,0.8S138.1,51.6,138.6,51.6z"/>
	<path class="st1" d="M148.5,54.9h-11c-0.5,0-0.8,0.3-0.8,0.8c0,0.5,0.3,0.8,0.8,0.8h6.4v8.9c0,0.8-0.2,1.2-0.5,1.2
		c-0.5,0-1.6-0.2-3.2-0.6c-0.3-0.1-0.5-0.1-0.6-0.1c0,0,0,0,0,0c-0.4,0-0.7,0.3-0.7,0.9c0,0.4,0.2,0.7,0.6,0.8
		c1.6,0.4,2.9,0.7,3.8,0.7c1.5,0,2.3-0.8,2.3-2.5v-9.2h2.9c0.5,0,0.8-0.3,0.8-0.8C149.3,55.1,149.1,54.9,148.5,54.9z"/>
	<path class="st1" d="M135.2,54.5c-0.3,0-0.5,0.2-0.6,0.5c-0.5,1-1,1.9-1.8,2.7c-0.6,0.7-1.4,1.4-2.3,2c-0.1,0.1-0.2,0.3-0.2,0.5
		c0,0.5,0.3,0.8,0.9,0.8c0.1,0,0.4-0.1,0.6-0.4c0.3-0.2,0.6-0.5,1-0.8v7.6c0,0.5,0.3,0.8,0.8,0.8c0.5,0,0.8-0.3,0.8-0.8v-9.2
		c0.6-0.7,1.1-1.6,1.5-2.6c0.1-0.2,0.1-0.3,0.1-0.4c0-0.2-0.1-0.4-0.3-0.5C135.6,54.6,135.4,54.5,135.2,54.5z"/>
	<path class="st1" d="M131.4,55.5c0.1,0,0.3-0.1,0.5-0.3c0.8-0.6,1.5-1.3,2-2.1c0.6-0.8,1.2-1.7,1.6-2.8c0.1-0.2,0.1-0.3,0.1-0.4
		c0-0.2-0.1-0.4-0.3-0.5c-0.2-0.1-0.4-0.2-0.6-0.2c-0.3,0-0.4,0.2-0.5,0.5c-0.4,1-0.9,1.9-1.6,2.6c-0.6,0.7-1.3,1.4-2,2
		c-0.1,0.1-0.2,0.3-0.2,0.5C130.5,55.3,130.8,55.5,131.4,55.5z"/>
	<path class="st1" d="M170.7,66.6c-0.8-0.5-1.5-0.9-1.9-1.4c-0.7-0.6-1.3-1.2-1.8-1.8c0.4-0.7,0.8-1.4,1.2-2.3
		c0.5-1.4,0.9-2.9,1.1-4.5c0.2-1.3,0.3-2.4,0.3-3.3h0.7c0.5,0,0.8-0.3,0.8-0.8c0-0.5-0.3-0.8-0.8-0.8h-5.8c0.1-0.6,0.1-1.2,0.1-1.9
		c0-0.5-0.3-0.7-0.8-0.7c-0.5,0-0.8,0.2-0.8,0.7c-0.1,1.8-0.3,3.4-0.6,4.7c-0.3,1.4-0.8,2.7-1.5,4c-0.2,0.2-0.2,0.3-0.2,0.4
		c0,0.6,0.3,0.9,0.9,0.9c0.2,0,0.5-0.1,0.8-0.4l0,0c0.2-0.5,0.5-1,0.7-1.6c0.2,1.1,0.5,2.2,0.9,3.3c0.3,0.7,0.6,1.4,0.9,2
		c-0.2,0.2-0.3,0.4-0.5,0.6c-1,1-2.4,2-4.1,3c-0.2,0.1-0.4,0.3-0.4,0.6c0,0.6,0.3,0.9,0.9,0.9c0.1,0,0.3-0.1,0.6-0.2
		c1.5-0.7,2.8-1.7,4-2.9c0.2-0.2,0.3-0.3,0.5-0.5c0.4,0.5,1,1.1,1.5,1.6c0.6,0.6,1.5,1.2,2.6,1.9c0.1,0.1,0.2,0.1,0.3,0.1
		c0.6,0,0.9-0.3,0.9-0.9C171.3,67,171.1,66.7,170.7,66.6z M168.1,53.3c-0.2,2.8-0.6,5.1-1.2,6.7c-0.2,0.6-0.5,1.2-0.8,1.7
		c-0.2-0.3-0.3-0.7-0.5-1c-0.4-1-0.7-2.3-1.1-3.9c-0.1-0.4-0.3-0.5-0.7-0.5h0c0.1-0.4,0.2-0.8,0.3-1.2c0.1-0.5,0.2-1.1,0.3-1.7
		H168.1z"/>
	<path class="st1" d="M162,63.8c0-0.6-0.3-0.9-0.8-0.9c0,0,0,0,0,0l-0.3,0.1l0,0c-0.8,0.5-1.6,0.9-2.3,1.2v-6.4h2.1
		c0.5,0,0.7-0.3,0.7-0.8c0-0.5-0.2-0.7-0.7-0.7h-2.1v-4.1h2.7c0.5,0,0.8-0.3,0.8-0.8c0-0.5-0.3-0.8-0.8-0.8h-7.6
		c-0.5,0-0.8,0.3-0.8,0.8c0,0.5,0.3,0.8,0.8,0.8h3.4v12.7c0,0-0.1,0-0.2,0.1c-0.5,0.2-1,0.4-1.6,0.6v-9.4c0-0.5-0.3-0.8-0.8-0.8
		c-0.5,0-0.8,0.3-0.8,0.8V66c-0.2,0.1-0.4,0.1-0.6,0.2c-0.4,0.1-0.6,0.4-0.6,0.9c0,0.6,0.3,0.8,0.8,0.8c0.2,0,0.4,0,0.6-0.1
		c1.4-0.4,2.9-0.9,4.5-1.6c1.3-0.6,2.3-1.1,3.1-1.6C161.8,64.2,162,64,162,63.8z"/>
	<path class="st1" d="M180.1,60.4c0-0.6-0.1-1.2-0.2-1.8c-0.2-0.6-0.6-1.3-1.1-2.3c-0.1-0.2-0.2-0.4-0.2-0.6c0-0.2,0-0.4,0.1-0.6
		l1.4-3.6c0.1-0.3,0.2-0.6,0.2-0.7c0-0.7-0.4-1-1.1-1h-2.8c-1,0-1.5,0.4-1.5,1.3v16.3c0,0.5,0.3,0.8,0.8,0.8c0.5,0,0.8-0.3,0.8-0.8
		v-3.6c0.3,0.1,0.6,0.1,0.8,0.1c0.9,0,1.6-0.4,2.2-1.2C179.8,62.2,180.1,61.4,180.1,60.4z M177,55.3c-0.1,0.2-0.1,0.5-0.1,0.7
		c0,0.2,0.1,0.5,0.2,0.7c0.6,1,1,1.9,1.2,2.4c0.1,0.5,0.2,0.9,0.2,1.3c0,0.5-0.1,1-0.4,1.4c-0.3,0.4-0.6,0.6-1,0.6
		c-0.1,0-0.4,0-0.7-0.1V51.7c0-0.3,0.1-0.4,0.3-0.4h1.4c0.2,0,0.3,0.1,0.3,0.2L177,55.3z"/>
	<path class="st1" d="M192.2,63.3c-0.5,0-0.8,0.3-0.8,0.9v1.3c0,0.2-0.1,0.4-0.2,0.5c-0.1,0.1-0.4,0.2-1.3,0.2c-0.5,0-0.8-0.1-1-0.2
		c-0.1-0.1-0.2-0.4-0.2-0.7V60h2.7c0.5,0,0.8-0.3,0.8-0.8c0-0.5-0.3-0.8-0.8-0.8h-10.2c-0.5,0-0.8,0.3-0.8,0.8
		c0,0.5,0.3,0.8,0.8,0.8h2.3c-0.1,1.3-0.2,2.4-0.4,3.1c-0.3,0.9-0.7,1.7-1.2,2.2c-0.6,0.6-1.4,1-2.4,1.1c-0.4,0.1-0.6,0.3-0.6,0.8
		c0,0.5,0.2,0.8,0.7,0.9h0.3c1.2-0.2,2.2-0.7,3-1.4c0.7-0.7,1.2-1.6,1.6-2.8c0.3-0.9,0.5-2.2,0.6-3.8h1.9v5.6c0,0.8,0.2,1.4,0.5,1.7
		c0.4,0.3,1.1,0.5,2.3,0.5c1.1,0,1.8-0.1,2.2-0.2c0.4-0.2,0.7-0.4,0.7-0.7c0.2-0.3,0.2-1,0.2-2.4C193,63.7,192.7,63.3,192.2,63.3z"
		/>
	<path class="st1" d="M183.3,55c-0.5,0-0.8,0.3-0.8,0.8c0,0.5,0.3,0.8,0.8,0.8h5.7c0.5,0,0.8-0.3,0.8-0.8c0-0.5-0.3-0.8-0.8-0.8
		H183.3z"/>
	<path class="st1" d="M181.1,56.5c0.5,0,0.8-0.3,0.8-0.8v-2.1c0-0.4,0.2-0.6,0.6-0.6h7.7c0.4,0,0.6,0.2,0.6,0.6
		c0,0.3-0.1,0.9-0.3,1.9c0,0.5,0.3,0.8,0.8,0.8c0.5,0,0.8-0.2,0.9-0.6c0.1-0.8,0.2-1.5,0.2-2.1c0-0.6-0.1-1.1-0.3-1.4
		c-0.3-0.4-0.8-0.6-1.3-0.6h-3.7v-1.4c0-0.6-0.3-0.9-0.9-0.9s-0.9,0.3-0.9,0.9v1.4h-3.5c-1,0-1.5,0.5-1.5,1.5v2.6
		C180.3,56.3,180.6,56.5,181.1,56.5z"/>
	<path class="st1" d="M196.9,59.6c0.7-0.5,1.2-1,1.7-1.6c0.6-0.7,1.1-1.4,1.5-2.3c0.4-0.7,0.8-1.7,1-2.8c0.1-0.2,0.1-0.4,0.1-0.5
		c0-0.2-0.1-0.4-0.2-0.5c-0.1-0.1-0.3-0.2-0.5-0.2c-0.4,0-0.7,0.2-0.8,0.5c-0.3,1-0.6,1.8-1,2.5c-0.4,0.7-0.8,1.4-1.4,2.1
		c-0.4,0.5-0.9,1-1.5,1.4c-0.2,0.2-0.2,0.4-0.2,0.6c0,0.2,0.1,0.4,0.2,0.6c0.2,0.2,0.3,0.2,0.6,0.2
		C196.6,59.7,196.8,59.7,196.9,59.6z"/>
	<path class="st1" d="M209.5,59.7c-0.2-0.2-0.4-0.2-0.5-0.2c-0.6,0-0.9,0.3-0.9,0.9c0,0,0,0.1,0.2,0.4c1,1.4,1.9,2.8,2.8,4.2
		c-3.1,0.4-6.5,0.7-10.2,0.8c1.5-2.4,2.9-5.1,4.2-8.1c0.1-0.2,0.1-0.3,0.1-0.4c0-0.2-0.1-0.4-0.3-0.5c-0.2-0.2-0.4-0.2-0.7-0.2
		c-0.4,0-0.6,0.2-0.7,0.5c-1.5,3.6-3,6.5-4.5,8.8c0,0,0,0.1,0,0.1c-0.6,0-1.2,0-1.9,0c-0.6,0-0.9,0.3-0.9,0.9c0,0.7,0.3,1,0.9,1
		c4.8-0.3,9.8-0.7,15-1.3c0.3,0.5,0.6,1.1,1,1.6l0,0c0.2,0.1,0.3,0.2,0.5,0.2c0.6,0,0.9-0.3,0.9-0.8c0-0.1-0.1-0.3-0.2-0.5
		C212.7,64.2,211.2,61.8,209.5,59.7z"/>
	<path class="st1" d="M213.2,56.3c-0.6-0.6-1.1-1.3-1.5-1.9c-0.6-0.9-1.2-2.1-1.6-3.5c-0.3-0.8-0.9-1.3-1.8-1.3h-5.8
		c-0.5,0-0.8,0.3-0.8,0.8c0,0.5,0.3,0.8,0.8,0.8h5.4c0.3,0,0.5,0.2,0.6,0.6c0.4,1.2,0.8,2.3,1.3,3.2c0.6,0.9,1.2,1.7,1.8,2.4
		c0.4,0.5,1.1,1,1.8,1.6c0.2,0.2,0.5,0.3,0.7,0.3c0,0,0,0,0,0c0.5-0.1,0.8-0.3,0.9-0.9c0-0.3-0.1-0.5-0.2-0.7
		C214.1,57.2,213.5,56.7,213.2,56.3z"/>
	<path class="st1" d="M218.6,55.4h7.7c0.5,0,0.8-0.3,0.8-0.8c0-0.5-0.3-0.8-0.8-0.8h-3v-1.8h2.7c0.5,0,0.8-0.3,0.8-0.8
		c0-0.5-0.3-0.8-0.8-0.8h-2.7v-0.8c0-0.5-0.3-0.8-0.8-0.8c-0.5,0-0.8,0.3-0.8,0.8v0.8H219c-0.5,0-0.8,0.3-0.8,0.8
		c0,0.5,0.3,0.8,0.8,0.8h2.7v1.8h-3.1c-0.5,0-0.8,0.3-0.8,0.8C217.8,55.2,218,55.4,218.6,55.4z"/>
	<path class="st1" d="M220.1,55.8c-0.6,0-0.9,0.3-0.9,0.8c0,0.1,0,0.2,0.1,0.4l0,0c0.4,0.5,0.8,1,1.1,1.5l0,0
		c0.2,0.1,0.3,0.2,0.5,0.2c0.5,0,0.8-0.2,0.8-0.7c0-0.1-0.1-0.3-0.2-0.5c-0.3-0.6-0.7-1.1-1.1-1.5C220.3,55.8,220.2,55.8,220.1,55.8
		z"/>
	<path class="st1" d="M235.9,66.6c-0.8-0.6-1.5-1.3-2-1.9c0.1-0.1,0.1-0.2,0.2-0.3c0.7-1.1,1.2-2.3,1.5-3.6c0.3-1,0.4-2.1,0.4-3.3
		c0-1-0.4-1.4-1.2-1.4h-5.8v-4c0-0.5,0.2-0.7,0.7-0.7h4.5c0.3,0,0.5,0.2,0.5,0.5c0,0.5-0.1,0.9-0.2,1.3c0,0.3-0.1,0.4-0.1,0.4l0,0
		c0,0.1-0.1,0.1-0.2,0.1c-0.3,0-1.1-0.1-2.4-0.4c-0.5,0-0.7,0.3-0.7,0.9c0,0.3,0.2,0.5,0.5,0.7c0.8,0.3,1.7,0.4,2.7,0.4
		c0.5,0,0.9-0.1,1.2-0.4c0.3-0.3,0.5-0.9,0.6-1.8c0.1-0.6,0.1-1.2,0.1-1.6c0-1.1-0.6-1.6-1.7-1.6h-5.4c-1.1,0-1.7,0.6-1.7,1.7v15.8
		c0,0.5,0.2,0.8,0.7,0.8c0.5,0,0.8-0.3,0.8-0.8v-9.7h0.7v0c0.4,2.2,0.8,3.9,1.3,5.1c0.3,0.7,0.7,1.4,1.1,2c-0.6,0.7-1.5,1.4-2.5,2.1
		l0,0c-0.2,0.2-0.3,0.4-0.3,0.5c0,0.5,0.3,0.8,0.8,0.8c0.2,0,0.3-0.1,0.5-0.3c0.9-0.6,1.7-1.3,2.4-2c0.6,0.7,1.2,1.3,2,1.9
		c0.3,0.2,0.5,0.3,0.6,0.3c0.6,0,0.9-0.3,0.9-0.9C236.4,67,236.2,66.8,235.9,66.6z M234,57.6c0.1,0,0.3,0,0.3,0.4
		c0,0.7-0.1,1.6-0.3,2.6c-0.2,1-0.6,1.9-1,2.7c-0.3-0.5-0.5-1-0.7-1.5c-0.4-1.1-0.8-2.4-1.1-4.1H234z"/>
	<path class="st1" d="M226.4,63.1h-3.2v-2.3h2.6c0.5,0,0.8-0.3,0.8-0.8c0-0.5-0.3-0.8-0.8-0.8h-1.6c0.1-0.2,0.2-0.3,0.3-0.5
		c0.3-0.5,0.6-1.1,0.9-1.6c0.1-0.1,0.2-0.3,0.2-0.5c0-0.2-0.1-0.4-0.2-0.5c-0.2-0.1-0.3-0.2-0.6-0.2c-0.3,0-0.5,0.1-0.7,0.4
		c-0.3,0.7-0.7,1.4-1.1,2.1c-0.2,0.3-0.4,0.6-0.6,0.9h-3.5c-0.5,0-0.8,0.3-0.8,0.8c0,0.5,0.3,0.8,0.8,0.8h2.7v2.3h-3.1
		c-0.5,0-0.8,0.3-0.8,0.8c0,0.5,0.3,0.8,0.8,0.8h3.1v2.7c0,0.5,0.3,0.8,0.8,0.8c0.5,0,0.8-0.3,0.8-0.8v-2.7h3.2
		c0.5,0,0.8-0.3,0.8-0.8C227.2,63.3,226.9,63.1,226.4,63.1z"/>
	<path class="st1" d="M246.1,53.4c0.2,0,0.5-0.1,0.8-0.4c0.5-0.4,0.9-1,1.3-1.6c0,0,0-0.1,0-0.1h3v0.9c0,0.3-0.1,0.6-0.3,0.9
		c-0.2,0.3-0.5,0.5-1,0.8c-0.5,0.3-1.1,0.5-1.9,0.6c-0.5,0.1-1.1,0.2-1.8,0.3c-0.4,0.1-0.5,0.3-0.5,0.6c0,0.5,0.3,0.8,0.8,0.9
		c0.1,0,0.2,0,0.4-0.1c1.4-0.3,2.5-0.6,3.2-0.9c0.6-0.3,1.1-0.5,1.4-0.8c0.2-0.2,0.4-0.5,0.5-0.8c0.1,0.3,0.3,0.5,0.6,0.8
		c0.4,0.3,0.9,0.6,1.5,0.9c0.9,0.4,2.1,0.7,3.4,0.9c0.2,0.1,0.4,0.1,0.5,0.1c0,0,0,0,0,0c0.4,0,0.6-0.3,0.6-0.9
		c0-0.3-0.2-0.5-0.5-0.6l0,0c-0.7-0.1-1.4-0.2-1.9-0.3c-0.8-0.2-1.5-0.4-2-0.6c-0.5-0.3-0.9-0.5-1.1-0.8c-0.2-0.2-0.3-0.5-0.3-0.9
		v-0.9h3.7c0.1,0,0.4,0,0.4,0.6c0,0,0,0.1-0.1,0.2c-0.1,0.2-0.2,0.4-0.4,0.6l0,0c-0.1,0.1-0.1,0.2-0.1,0.3c0,0.5,0.3,0.7,0.9,0.7
		c0.3,0,0.5-0.1,0.7-0.3l0,0c0.2-0.5,0.4-0.9,0.5-1.4c0.1-0.2,0.1-0.4,0.1-0.6c0-0.9-0.5-1.4-1.4-1.4h-8.4c0-0.1,0.1-0.3,0.1-0.5
		c0-0.5-0.3-0.7-0.8-0.7c-0.5,0-0.7,0.2-0.7,0.7c-0.1,0.6-0.2,1-0.4,1.4c-0.2,0.4-0.6,0.8-1.2,1.2l0,0c-0.2,0.2-0.2,0.3-0.2,0.5
		C245.2,53.2,245.5,53.4,246.1,53.4z"/>
	<path class="st1" d="M240.4,51.7h4c0.4,0,0.7-0.2,0.7-0.7c0-0.5-0.2-0.7-0.7-0.7h-4c-0.5,0-0.7,0.2-0.7,0.7
		C239.7,51.5,239.9,51.7,240.4,51.7z"/>
	<path class="st1" d="M258.1,66.8c-1.8-0.4-3.6-1-5.4-1.7h3.3c0.8,0,1.2-0.4,1.2-1.1v-6.3c0-0.7-0.4-1.1-1.2-1.1h-14
		c-0.8,0-1.2,0.4-1.2,1.1V64c0,0.7,0.4,1.1,1.2,1.1h3.6c-1.5,0.6-3.3,1.2-5.4,1.6c-0.3,0.1-0.5,0.3-0.5,0.6c0,0.6,0.3,0.9,0.9,0.9
		c0.1,0,0.3,0,0.6-0.1c2.5-0.6,4.5-1.2,5.9-1.9l0,0c0.2-0.2,0.3-0.4,0.3-0.7c0-0.1,0-0.3-0.1-0.4h3.3c0,0.1,0,0.2,0,0.3
		c0,0.2,0.1,0.4,0.3,0.7l0,0c1,0.5,2.1,0.9,3.2,1.3c2.1,0.7,3.3,1,3.6,1c0.6,0,0.9-0.3,0.9-0.9C258.6,67.2,258.5,67,258.1,66.8z
		 M242.3,59.1v-0.7c0-0.3,0.1-0.5,0.4-0.5h12.6c0.3,0,0.4,0.1,0.4,0.5v0.7H242.3z M242.3,61.3v-0.9h13.3v0.9H242.3z M255.3,63.7
		h-12.6c-0.3,0-0.4-0.1-0.4-0.5v-0.7h13.3v0.7C255.6,63.6,255.5,63.7,255.3,63.7z"/>
	<path class="st1" d="M240.4,56.1c0.8-0.2,1.6-0.5,2.5-0.9c0.7-0.3,1.3-0.6,1.7-0.9c0.2-0.1,0.3-0.3,0.3-0.4c0-0.6-0.3-0.8-0.8-0.8
		l-0.3,0.1c-0.9,0.4-1.6,0.7-2,0.9c-0.5,0.2-1.1,0.3-1.9,0.5c-0.4,0.1-0.6,0.4-0.6,0.9c0,0.5,0.3,0.8,0.8,0.8
		C240.2,56.2,240.3,56.2,240.4,56.1z"/>
	<path class="st1" d="M262.8,59.8h5.2c0.5,0,0.7-0.3,0.7-0.8c0-0.5-0.2-0.7-0.7-0.7h-5.2c-0.5,0-0.7,0.2-0.7,0.7
		C262.1,59.6,262.3,59.8,262.8,59.8z"/>
	<path class="st1" d="M263,51.3h4.8c0.3,0,0.7-0.1,0.7-0.8c0-0.5-0.2-0.7-0.7-0.7H263c-0.5,0-0.7,0.2-0.7,0.7
		C262.2,51,262.5,51.3,263,51.3z"/>
	<path class="st1" d="M267.3,61.1h-3.9c-1,0-1.4,0.4-1.4,1.3v3.9c0,0.9,0.5,1.4,1.4,1.4h3.9c1,0,1.5-0.5,1.5-1.4v-3.9
		C268.8,61.6,268.3,61.1,267.3,61.1z M267.2,63.1v2.6c0,0.4-0.2,0.6-0.5,0.6h-2.6c-0.3,0-0.5-0.2-0.5-0.6v-2.6
		c0-0.4,0.2-0.5,0.5-0.5h2.6C267,62.6,267.2,62.8,267.2,63.1z"/>
	<path class="st1" d="M279.6,62.3c-0.5,0-0.7,0.2-0.8,0.6c-0.2,2.3-0.4,2.6-0.4,2.6c0,0-0.1,0-0.1-0.5c-0.3-2.3-0.4-4.5-0.4-6.4
		v-7.4c0-1-0.5-1.5-1.5-1.5h-6.7c-0.5,0-0.8,0.3-0.8,0.8c0,0.5,0.3,0.8,0.8,0.8h2.2v5.9H270c-0.5,0-0.7,0.2-0.7,0.7
		c0,0.5,0.2,0.8,0.7,0.8h1.8v8.7c0,0.5,0.3,0.8,0.8,0.8c0.5,0,0.8-0.3,0.8-0.8v-8.7h1.7c0.5,0,0.7-0.3,0.7-0.8
		c0-0.5-0.2-0.7-0.7-0.7h-1.7v-5.9h2.3c0.4,0,0.6,0.2,0.6,0.6v6.8c0,2.4,0.1,4.5,0.4,6.1c0.2,1.2,0.5,2.1,0.8,2.7
		c0.2,0.5,0.5,0.7,0.9,0.7c0.3,0,0.5-0.2,0.8-0.5c0.3-0.4,0.5-1.1,0.8-2.2c0.2-1.1,0.3-1.9,0.3-2.2
		C280.4,62.6,280.1,62.4,279.6,62.3z"/>
	<path class="st1" d="M268.6,52.5h-6.6c-0.5,0-0.8,0.3-0.8,0.8c0,0.5,0.3,0.8,0.8,0.8h6.6c0.5,0,0.8-0.3,0.8-0.8
		C269.4,52.8,269.1,52.5,268.6,52.5z"/>
	<path class="st1" d="M268,56.9c0.5,0,0.7-0.3,0.7-0.8c0-0.5-0.2-0.7-0.7-0.7h-5.2c-0.5,0-0.7,0.2-0.7,0.7c0,0.5,0.2,0.8,0.7,0.8
		H268z"/>
	<path class="st1" d="M300.2,49.7h-8.1c-1,0-1.5,0.5-1.5,1.5v16.6c0,0.5,0.2,0.7,0.7,0.7c0.5,0,0.8-0.2,0.8-0.7V51.5
		c0-0.3,0.1-0.5,0.2-0.5h7.6c0.1,0,0.3,0,0.3,0.5v14.8c0,0.5-0.2,0.8-0.8,0.8c-0.4,0-0.9-0.1-1.5-0.3c-0.2-0.1-0.3-0.1-0.5-0.1
		c-0.4,0-0.6,0.3-0.6,0.9c0,0.3,0.2,0.5,0.5,0.6c0.9,0.2,1.6,0.3,2.3,0.3c1.4,0,2.1-0.6,2.1-1.8V51.2
		C301.7,50.2,301.2,49.7,300.2,49.7z"/>
	<path class="st1" d="M299.6,63.4c0-0.5-0.3-0.7-0.8-0.7h-3.6c-0.2,0-0.3-0.1-0.3-0.4v-2.8h4.4c0.5,0,0.7-0.2,0.7-0.7
		c0-0.5-0.2-0.7-0.7-0.7h-2.6v-1.7h2.5c0.3,0,0.6-0.1,0.6-0.7c0-0.6-0.3-0.7-0.6-0.7H298l0.3-0.5c0.2-0.5,0.5-1.1,0.7-1.7
		c0.1-0.1,0.2-0.3,0.2-0.5c0-0.2-0.1-0.4-0.2-0.6c-0.1-0.1-0.3-0.2-0.5-0.2c-0.3,0-0.5,0.1-0.7,0.3l0,0c-0.2,0.8-0.5,1.5-0.7,2.2
		c-0.1,0.3-0.3,0.6-0.4,0.9h-3.3c-0.4,0-0.6,0.2-0.6,0.7c0,0.4,0.2,0.7,0.6,0.7h2v1.7h-2.1c-0.5,0-0.7,0.2-0.7,0.7
		c0,0.5,0.2,0.7,0.7,0.7h0.4v3.1c0,1,0.5,1.4,1.5,1.4h3.9C299.3,64.1,299.6,63.8,299.6,63.4z"/>
	<path class="st1" d="M294.8,54.7c0.6,0,0.7-0.3,0.7-0.6c0-0.1,0-0.2,0-0.4c-0.1-0.7-0.2-1.3-0.4-1.6c-0.1-0.3-0.4-0.4-0.7-0.4
		c-0.6,0-0.7,0.3-0.7,0.6l0,0.2c0.1,0.4,0.3,1,0.4,1.6C294.1,54.5,294.3,54.7,294.8,54.7z"/>
	<path class="st1" d="M284.4,60.5c-0.4,0-0.6,0.2-0.6,0.6c-0.1,2.1-0.3,3.9-0.7,5.3c-0.1,0.2-0.1,0.4-0.1,0.6c0,0.4,0.2,0.6,0.6,0.6
		c0.5,0,0.8-0.2,0.9-0.7c0.4-1.7,0.5-3.6,0.5-5.6C285.1,60.8,284.9,60.5,284.4,60.5z"/>
	<path class="st1" d="M289.5,61.2c-0.1-0.2-0.3-0.4-0.6-0.4c-0.5,0-0.6,0.3-0.6,0.6l0,0.3c0.2,1,0.3,2.2,0.5,3.6
		c0,0.4,0.2,0.6,0.6,0.6c0.6,0,0.7-0.3,0.7-0.6c0-0.1,0-0.3-0.1-0.7C289.9,63,289.7,61.9,289.5,61.2z"/>
	<path class="st1" d="M289.3,56.6c-0.2-0.2-0.3-0.4-0.5-0.4c-0.5,0-0.7,0.2-0.7,0.6c0,0.1,0,0.2,0.1,0.3c0,0.1,0.1,0.2,0.1,0.4
		c-0.6,0.1-1.3,0.2-2,0.3c0.4-0.5,0.8-1,1.2-1.5c0.7-1.1,1.4-2.2,2-3.3c0.1-0.2,0.2-0.3,0.2-0.5c0-0.2-0.1-0.4-0.2-0.5
		c-0.1-0.1-0.3-0.2-0.5-0.2c-0.3,0-0.5,0.1-0.7,0.4c-0.5,0.9-1,1.8-1.6,2.7c-0.4-0.4-0.8-0.8-1.2-1.2c0.8-1,1.5-2.2,2.2-3.6
		c0.1-0.2,0.1-0.3,0.1-0.4c0-0.2-0.1-0.4-0.3-0.5c-0.2-0.1-0.4-0.2-0.7-0.2c-0.3,0-0.5,0.1-0.6,0.4c-0.6,1.3-1.2,2.5-1.9,3.3
		c0,0,0,0,0,0c-0.2-0.1-0.4-0.2-0.5-0.2c-0.5,0-0.7,0.2-0.7,0.7c0,0.2,0.1,0.4,0.3,0.6l0,0c0.4,0.3,0.7,0.5,1,0.8
		c0.4,0.3,0.8,0.7,1.3,1.3c0.1,0,0.1,0.1,0.2,0.1c-0.5,0.7-1,1.3-1.6,1.9c-0.2,0-0.4,0-0.6,0c-0.5,0-0.7,0.2-0.7,0.7
		c0,0.6,0.2,0.9,0.7,0.9h0c0.8-0.1,1.6-0.2,2.5-0.4v8.2c0,0.5,0.2,0.7,0.7,0.7c0.5,0,0.8-0.2,0.8-0.7v-8.5c0.3-0.1,0.7-0.1,1-0.2
		c0,0.2,0.1,0.3,0.1,0.5c0.1,0.3,0.3,0.5,0.5,0.5c0.6,0,0.9-0.2,0.9-0.6c0-0.2,0-0.3-0.1-0.5C289.8,58,289.6,57.3,289.3,56.6z"/>
</g>
<g>
	<polygon class="st2" points="130.4,78.1 132.9,78.1 132.9,84.6 134,84.6 134,78.1 136.5,78.1 136.5,77.1 130.4,77.1 	"/>
	<path class="st2" d="M140.2,78.8c-0.3,0-0.6,0.1-0.9,0.2c-0.2,0.1-0.5,0.3-0.8,0.5v-2.7h-1v7.8h1v-4.2c0.2-0.2,0.5-0.3,0.7-0.5
		c0.2-0.1,0.5-0.2,0.7-0.2c0.2,0,0.4,0,0.5,0.1c0.1,0.1,0.2,0.2,0.3,0.3c0.1,0.1,0.1,0.3,0.1,0.5c0,0.2,0,0.5,0,0.7v3.2h1v-3.6
		c0-0.7-0.2-1.2-0.5-1.6C141.2,79,140.7,78.8,140.2,78.8z"/>
	<path class="st2" d="M147.5,79.4c-0.2-0.2-0.4-0.4-0.7-0.5c-0.3-0.1-0.6-0.2-0.9-0.2c-0.8,0-1.4,0.3-1.9,0.8
		c-0.5,0.5-0.7,1.3-0.7,2.2c0,0.9,0.3,1.6,0.7,2.2c0.5,0.5,1.2,0.8,2.1,0.8c0.2,0,0.4,0,0.6,0c0.1,0,0.3-0.1,0.5-0.1
		c0.1,0,0.3-0.1,0.4-0.2c0.2-0.1,0.3-0.1,0.4-0.2l0,0v-1.1h-0.1l0,0c-0.1,0.1-0.2,0.1-0.3,0.2c-0.1,0.1-0.2,0.1-0.4,0.2
		c-0.2,0.1-0.3,0.1-0.5,0.2c-0.2,0-0.4,0.1-0.6,0.1c-0.6,0-1-0.2-1.3-0.5c-0.3-0.3-0.5-0.8-0.5-1.4h3.8v-0.6c0-0.4-0.1-0.8-0.2-1.1
		C147.9,79.9,147.7,79.6,147.5,79.4z M144.4,80.5c0.1-0.2,0.2-0.3,0.3-0.5c0.1-0.1,0.3-0.2,0.5-0.3c0.2-0.1,0.4-0.1,0.6-0.1
		c0.2,0,0.4,0,0.6,0.1c0.2,0.1,0.3,0.2,0.4,0.3c0.1,0.1,0.2,0.3,0.2,0.4c0,0.2,0.1,0.4,0.1,0.6h-2.8
		C144.3,80.9,144.4,80.7,144.4,80.5z"/>
	<polygon class="st2" points="153.2,84.6 157.9,84.6 157.9,83.6 154.3,83.6 154.3,81 157.6,81 157.6,80 154.3,80 154.3,78.1 
		157.9,78.1 157.9,77.1 153.2,77.1 	"/>
	<polygon class="st2" points="163.7,78.9 162.5,78.9 161.2,81 159.9,79 159.9,78.9 158.6,78.9 160.6,81.8 158.7,84.5 158.6,84.6 
		159.8,84.6 161.1,82.5 162.4,84.5 162.4,84.6 163.7,84.6 161.8,81.7 163.7,79 	"/>
	<path class="st2" d="M168.5,79.4c-0.2-0.2-0.4-0.4-0.7-0.5c-0.3-0.1-0.6-0.2-0.9-0.2c-0.8,0-1.4,0.3-1.9,0.8
		c-0.5,0.5-0.7,1.3-0.7,2.2c0,0.9,0.3,1.6,0.7,2.2c0.5,0.5,1.2,0.8,2.1,0.8c0.2,0,0.4,0,0.6,0c0.1,0,0.3-0.1,0.5-0.1
		c0.1,0,0.3-0.1,0.4-0.2c0.2-0.1,0.3-0.1,0.4-0.2l0,0v-1.1h-0.1l0,0c-0.1,0.1-0.2,0.1-0.3,0.2c-0.1,0.1-0.2,0.1-0.4,0.2
		c-0.2,0.1-0.3,0.1-0.5,0.2c-0.2,0-0.4,0.1-0.6,0.1c-0.6,0-1-0.2-1.3-0.5c-0.3-0.3-0.5-0.8-0.5-1.4h3.8v-0.6c0-0.4-0.1-0.8-0.2-1.1
		C168.9,79.9,168.7,79.6,168.5,79.4z M165.4,80.5c0.1-0.2,0.2-0.3,0.3-0.5c0.1-0.1,0.3-0.2,0.5-0.3c0.2-0.1,0.4-0.1,0.6-0.1
		c0.2,0,0.4,0,0.6,0.1c0.2,0.1,0.3,0.2,0.4,0.3c0.1,0.1,0.2,0.3,0.2,0.4c0,0.2,0.1,0.4,0.1,0.6h-2.8
		C165.3,80.9,165.4,80.7,165.4,80.5z"/>
	<path class="st2" d="M173.6,78.9c-0.3-0.1-0.6-0.1-0.9-0.1c-0.4,0-0.7,0.1-1.1,0.2c-0.3,0.1-0.6,0.3-0.8,0.6
		c-0.2,0.2-0.4,0.5-0.5,0.9s-0.2,0.8-0.2,1.3c0,0.5,0.1,0.9,0.2,1.3c0.1,0.4,0.3,0.7,0.5,0.9c0.2,0.2,0.5,0.4,0.8,0.5
		s0.7,0.2,1.1,0.2c0.2,0,0.4,0,0.5,0c0.1,0,0.3-0.1,0.4-0.1c0.1,0,0.2-0.1,0.4-0.1c0.1-0.1,0.3-0.1,0.3-0.2l0,0v-1.1h-0.1l0,0
		c-0.2,0.2-0.4,0.4-0.7,0.5c-0.3,0.1-0.6,0.2-0.8,0.2c-0.5,0-0.9-0.2-1.1-0.5c-0.3-0.4-0.4-0.9-0.4-1.5c0-0.7,0.1-1.2,0.4-1.5
		c0.3-0.4,0.7-0.5,1.1-0.5c0.2,0,0.3,0,0.5,0.1c0.2,0,0.3,0.1,0.4,0.2c0.2,0.1,0.3,0.1,0.4,0.2c0.1,0.1,0.2,0.1,0.3,0.2l0,0h0.1
		v-1.1l0,0C174.1,79.1,173.9,79,173.6,78.9z"/>
	<path class="st2" d="M179,83.1c-0.2,0.2-0.4,0.3-0.7,0.5c-0.2,0.1-0.5,0.2-0.7,0.2c-0.2,0-0.4,0-0.5-0.1c-0.1-0.1-0.2-0.2-0.3-0.3
		c-0.1-0.1-0.1-0.3-0.1-0.5c0-0.2,0-0.4,0-0.7v-3.2h-1v3.6c0,0.4,0,0.7,0.1,1c0.1,0.3,0.2,0.5,0.4,0.7c0.2,0.2,0.4,0.3,0.6,0.4
		c0.2,0.1,0.5,0.1,0.7,0.1c0.3,0,0.6-0.1,0.9-0.2c0.2-0.1,0.5-0.3,0.7-0.5v0.6h1v-5.6h-1V83.1z"/>
	<path class="st2" d="M182.8,77.3h-1v1.6h-0.6v0.9h0.6v3c0,0.6,0.1,1.1,0.4,1.4c0.3,0.3,0.7,0.4,1.2,0.4c0.2,0,0.3,0,0.5,0
		c0.2,0,0.4-0.1,0.5-0.1l0,0v-0.9h-0.1l0,0c-0.1,0-0.2,0.1-0.3,0.1c-0.1,0-0.3,0.1-0.4,0.1c-0.2,0-0.4,0-0.5-0.1
		c-0.1-0.1-0.2-0.1-0.2-0.2c-0.1-0.1-0.1-0.3-0.1-0.4c0-0.1,0-0.4,0-0.6v-2.6h1.7v-0.9h-1.7V77.3z"/>
	<rect x="185.6" y="78.9" class="st2" width="1" height="5.6"/>
	<rect x="185.6" y="77" class="st2" width="1.2" height="1.1"/>
	<polygon class="st2" points="190.3,83.1 188.9,79 188.8,78.9 187.7,78.9 189.8,84.5 189.8,84.6 190.7,84.6 192.9,78.9 191.8,78.9 	
		"/>
	<path class="st2" d="M197.7,79.4c-0.2-0.2-0.4-0.4-0.7-0.5c-0.3-0.1-0.6-0.2-0.9-0.2c-0.8,0-1.4,0.3-1.9,0.8
		c-0.5,0.5-0.7,1.3-0.7,2.2c0,0.9,0.2,1.6,0.7,2.2c0.5,0.5,1.2,0.8,2.1,0.8c0.2,0,0.4,0,0.6,0c0.1,0,0.3-0.1,0.5-0.1
		c0.1,0,0.3-0.1,0.4-0.2l0.1,0c0.1-0.1,0.2-0.1,0.3-0.1l0,0v-1.1h-0.1l0,0c-0.1,0.1-0.2,0.1-0.3,0.2c-0.1,0.1-0.2,0.1-0.4,0.2
		c-0.2,0.1-0.3,0.1-0.5,0.2c-0.2,0-0.4,0.1-0.6,0.1c-0.6,0-1-0.2-1.3-0.5c-0.3-0.3-0.5-0.8-0.5-1.4h3.8v-0.6c0-0.4-0.1-0.8-0.2-1.1
		C198.1,79.9,197.9,79.6,197.7,79.4z M194.6,80.5c0.1-0.2,0.2-0.3,0.3-0.5c0.1-0.1,0.3-0.2,0.5-0.3s0.4-0.1,0.6-0.1
		c0.2,0,0.5,0,0.6,0.1c0.2,0.1,0.3,0.2,0.4,0.3c0.1,0.1,0.2,0.3,0.2,0.4c0,0.2,0.1,0.4,0.1,0.6h-2.8
		C194.5,80.9,194.6,80.7,194.6,80.5z"/>
	<polygon class="st2" points="205.6,80.3 203.8,77.1 203.7,77.1 202.5,77.1 205.1,81.4 205.1,84.6 206.1,84.6 206.1,81.3 
		208.6,77.2 208.7,77.1 207.5,77.1 	"/>
	<path class="st2" d="M212.5,83.1c-0.2,0.2-0.4,0.3-0.7,0.5c-0.2,0.1-0.5,0.2-0.7,0.2c-0.2,0-0.4,0-0.5-0.1
		c-0.1-0.1-0.2-0.2-0.3-0.3c-0.1-0.1-0.1-0.3-0.1-0.5c0-0.2,0-0.4,0-0.7v-3.2h-1v3.6c0,0.4,0,0.7,0.1,1c0.1,0.3,0.2,0.5,0.4,0.7
		c0.2,0.2,0.4,0.3,0.6,0.4c0.2,0.1,0.5,0.1,0.7,0.1c0.3,0,0.6-0.1,0.9-0.2c0.2-0.1,0.5-0.3,0.7-0.5v0.6h1v-5.6h-1V83.1z"/>
	<path class="st2" d="M218.7,79.2c-0.2-0.2-0.5-0.3-0.7-0.3c-0.3-0.1-0.6-0.1-1-0.1c-0.3,0-0.6,0-1,0.1c-0.3,0.1-0.6,0.1-0.7,0.2
		l0,0v1h0.1l0,0c0.3-0.1,0.6-0.2,0.9-0.3c0.3-0.1,0.5-0.1,0.7-0.1c0.2,0,0.4,0,0.5,0c0.2,0,0.3,0.1,0.4,0.1c0.1,0.1,0.2,0.2,0.3,0.3
		c0.1,0.1,0.1,0.3,0.1,0.5v0.1c-0.5,0-0.9,0.1-1.3,0.1c-0.4,0.1-0.8,0.2-1.1,0.3c-0.4,0.2-0.6,0.4-0.8,0.7c-0.2,0.3-0.2,0.6-0.2,1
		c0,0.3,0,0.5,0.1,0.7c0.1,0.2,0.2,0.4,0.4,0.6c0.2,0.2,0.3,0.3,0.6,0.4c0.2,0.1,0.4,0.1,0.7,0.1c0.3,0,0.5,0,0.7-0.1
		c0.2,0,0.3-0.1,0.5-0.2c0.1-0.1,0.2-0.1,0.4-0.2c0.1-0.1,0.2-0.1,0.2-0.2v0.5h1v-3.8c0-0.4-0.1-0.7-0.2-0.9
		C219.1,79.6,218.9,79.4,218.7,79.2z M218.3,81.7v1.5c-0.2,0.2-0.4,0.3-0.6,0.4c-0.2,0.1-0.5,0.2-0.8,0.2c-0.3,0-0.6-0.1-0.7-0.2
		c-0.2-0.2-0.3-0.4-0.3-0.7c0-0.3,0.1-0.5,0.2-0.6c0.2-0.2,0.4-0.3,0.6-0.3c0.2-0.1,0.5-0.1,0.8-0.1
		C217.9,81.7,218.1,81.7,218.3,81.7z"/>
	<path class="st2" d="M223.7,78.8c-0.3,0-0.6,0.1-0.9,0.2c-0.2,0.1-0.5,0.3-0.8,0.5v-0.6h-1v5.6h1v-4.2c0.2-0.2,0.5-0.3,0.7-0.5
		c0.2-0.1,0.5-0.2,0.7-0.2c0.2,0,0.4,0,0.5,0.1c0.1,0.1,0.2,0.2,0.3,0.3c0.1,0.1,0.1,0.3,0.1,0.5c0,0.2,0,0.5,0,0.7v3.2h1v-3.6
		c0-0.7-0.2-1.2-0.5-1.6C224.7,79,224.3,78.8,223.7,78.8z"/>
	<path class="st2" d="M233.7,81.7h1.7v1.8c-0.2,0.1-0.4,0.1-0.7,0.2c-0.3,0-0.5,0.1-0.8,0.1c-0.4,0-0.7-0.1-1-0.2s-0.5-0.3-0.7-0.6
		c-0.2-0.3-0.4-0.6-0.5-0.9c-0.1-0.4-0.2-0.8-0.2-1.3c0-0.9,0.2-1.6,0.6-2.1c0.4-0.5,1-0.8,1.7-0.8c0.3,0,0.6,0,0.8,0.1
		c0.3,0.1,0.5,0.1,0.7,0.2c0.2,0.1,0.4,0.2,0.5,0.3c0.1,0.1,0.3,0.2,0.4,0.3l0,0h0.2v-1.3l0,0c-0.1-0.1-0.3-0.1-0.5-0.2
		c-0.2-0.1-0.4-0.2-0.6-0.2c-0.2-0.1-0.4-0.1-0.7-0.2c-0.2,0-0.5-0.1-0.7-0.1c-0.5,0-1,0.1-1.5,0.3c-0.4,0.2-0.8,0.4-1.1,0.8
		c-0.3,0.3-0.6,0.7-0.7,1.2c-0.2,0.5-0.3,1-0.3,1.6c0,0.6,0.1,1.2,0.2,1.7s0.4,0.9,0.7,1.2c0.3,0.3,0.7,0.6,1.1,0.7
		c0.4,0.2,0.9,0.2,1.4,0.2c0.3,0,0.5,0,0.7-0.1c0.2,0,0.4-0.1,0.7-0.2c0.2,0,0.4-0.1,0.6-0.2c0.2-0.1,0.4-0.2,0.5-0.2l0,0v-3.3h-2.8
		V81.7z"/>
	<path class="st2" d="M241.6,79.2c-0.2-0.2-0.5-0.3-0.7-0.3c-0.3-0.1-0.6-0.1-1-0.1c-0.3,0-0.6,0-1,0.1c-0.3,0.1-0.6,0.1-0.7,0.2
		l0,0v1h0.1l0,0c0.3-0.1,0.6-0.2,0.9-0.3c0.3-0.1,0.5-0.1,0.7-0.1c0.2,0,0.4,0,0.5,0c0.2,0,0.3,0.1,0.4,0.1c0.1,0.1,0.2,0.2,0.3,0.3
		c0.1,0.1,0.1,0.3,0.1,0.5v0.1c-0.5,0-0.9,0.1-1.3,0.1c-0.4,0.1-0.8,0.2-1.1,0.3c-0.4,0.2-0.6,0.4-0.8,0.7c-0.2,0.3-0.2,0.6-0.2,1
		c0,0.3,0,0.5,0.1,0.7c0.1,0.2,0.2,0.4,0.4,0.6c0.2,0.2,0.3,0.3,0.6,0.4c0.2,0.1,0.4,0.1,0.7,0.1c0.3,0,0.5,0,0.7-0.1
		c0.2,0,0.3-0.1,0.5-0.2c0.1-0.1,0.2-0.1,0.4-0.2c0.1-0.1,0.2-0.1,0.2-0.2v0.5h1v-3.8c0-0.4-0.1-0.7-0.2-0.9
		C241.9,79.6,241.8,79.4,241.6,79.2z M241.1,81.7v1.5c-0.2,0.2-0.4,0.3-0.6,0.4c-0.2,0.1-0.5,0.2-0.8,0.2c-0.3,0-0.6-0.1-0.7-0.2
		c-0.2-0.2-0.3-0.4-0.3-0.7c0-0.3,0.1-0.5,0.2-0.6c0.2-0.2,0.4-0.3,0.6-0.3c0.2-0.1,0.5-0.1,0.8-0.1
		C240.7,81.7,240.9,81.7,241.1,81.7z"/>
	<polygon class="st2" points="247.5,79.7 247.5,79.7 247.5,78.9 243.5,78.9 243.5,79.8 246.3,79.8 243.4,83.8 243.4,83.8 
		243.4,84.6 247.6,84.6 247.6,83.7 244.7,83.7 	"/>
	<path class="st2" d="M252.7,79.4c-0.2-0.2-0.4-0.4-0.7-0.5c-0.3-0.1-0.6-0.2-0.9-0.2c-0.8,0-1.4,0.3-1.9,0.8
		c-0.5,0.5-0.7,1.3-0.7,2.2c0,0.9,0.2,1.6,0.7,2.2c0.5,0.5,1.2,0.8,2.1,0.8c0.2,0,0.4,0,0.6,0c0.1,0,0.3-0.1,0.5-0.1
		c0.1,0,0.3-0.1,0.4-0.2l0.1,0c0.1-0.1,0.2-0.1,0.3-0.1l0,0v-1.1h-0.1l0,0c-0.1,0.1-0.2,0.1-0.3,0.2c-0.1,0.1-0.2,0.1-0.4,0.2
		c-0.2,0.1-0.3,0.1-0.5,0.2c-0.2,0-0.4,0.1-0.6,0.1c-0.6,0-1-0.2-1.3-0.5c-0.3-0.3-0.5-0.8-0.5-1.4h3.8v-0.6c0-0.4-0.1-0.8-0.2-1.1
		C253,79.9,252.9,79.6,252.7,79.4z M249.6,80.5c0.1-0.2,0.2-0.3,0.3-0.5c0.1-0.1,0.3-0.2,0.5-0.3s0.4-0.1,0.6-0.1
		c0.2,0,0.5,0,0.6,0.1c0.2,0.1,0.3,0.2,0.4,0.3c0.1,0.1,0.2,0.3,0.2,0.4c0,0.2,0.1,0.4,0.1,0.6h-2.8
		C249.5,80.9,249.5,80.7,249.6,80.5z"/>
	<path class="st2" d="M255.7,77.3h-1v1.6H254v0.9h0.6v3c0,0.6,0.1,1.1,0.4,1.4c0.3,0.3,0.7,0.4,1.2,0.4c0.2,0,0.3,0,0.5,0
		c0.2,0,0.4-0.1,0.5-0.1l0,0v-0.9h-0.1l0,0c-0.1,0-0.2,0.1-0.3,0.1c-0.1,0-0.3,0.1-0.4,0.1c-0.2,0-0.4,0-0.5-0.1
		c-0.1-0.1-0.2-0.1-0.2-0.2c-0.1-0.1-0.1-0.3-0.1-0.4c0-0.1,0-0.4,0-0.6v-2.6h1.7v-0.9h-1.7V77.3z"/>
	<path class="st2" d="M259.5,77.3h-1v1.6h-0.6v0.9h0.6v3c0,0.6,0.1,1.1,0.4,1.4c0.3,0.3,0.7,0.4,1.2,0.4c0.2,0,0.3,0,0.5,0
		c0.2,0,0.4-0.1,0.5-0.1l0,0v-0.9h-0.1l0,0c-0.1,0-0.2,0.1-0.3,0.1c-0.1,0-0.3,0.1-0.4,0.1c-0.2,0-0.4,0-0.5-0.1
		c-0.1-0.1-0.2-0.1-0.2-0.2c-0.1-0.1-0.1-0.3-0.1-0.4c0-0.1,0-0.4,0-0.6v-2.6h1.7v-0.9h-1.7V77.3z"/>
	<path class="st2" d="M266.1,79.4c-0.2-0.2-0.4-0.4-0.7-0.5c-0.3-0.1-0.6-0.2-0.9-0.2c-0.8,0-1.4,0.3-1.9,0.8
		c-0.5,0.5-0.7,1.3-0.7,2.2c0,0.9,0.2,1.6,0.7,2.2s1.2,0.8,2.1,0.8c0.2,0,0.4,0,0.6,0c0.1,0,0.3-0.1,0.5-0.1c0.1,0,0.3-0.1,0.4-0.2
		c0.1-0.1,0.3-0.1,0.4-0.1l0.1,0v-1.1h-0.1l0,0c-0.1,0.1-0.2,0.1-0.3,0.2c-0.1,0.1-0.3,0.1-0.4,0.2c-0.2,0.1-0.3,0.1-0.5,0.2
		c-0.2,0-0.4,0.1-0.6,0.1c-0.6,0-1-0.2-1.3-0.5c-0.3-0.3-0.5-0.8-0.5-1.4h3.8v-0.6c0-0.4-0.1-0.8-0.2-1.1
		C266.5,79.9,266.3,79.6,266.1,79.4z M263.1,80.5c0.1-0.2,0.2-0.3,0.3-0.5c0.1-0.1,0.3-0.2,0.5-0.3c0.2-0.1,0.4-0.1,0.6-0.1
		c0.2,0,0.4,0,0.6,0.1c0.2,0.1,0.3,0.2,0.4,0.3c0.1,0.1,0.2,0.3,0.2,0.4c0,0.2,0.1,0.4,0.1,0.6h-2.8C262.9,80.9,263,80.7,263.1,80.5
		z"/>
	<path class="st2" d="M277.1,78c-0.3-0.3-0.6-0.6-1-0.8c-0.4-0.2-0.9-0.3-1.4-0.3c-0.5,0-1,0.1-1.4,0.3c-0.4,0.2-0.8,0.4-1,0.8
		c-0.3,0.3-0.5,0.8-0.7,1.2c-0.2,0.5-0.2,1-0.2,1.6c0,0.6,0.1,1.2,0.2,1.6c0.2,0.5,0.4,0.9,0.7,1.2c0.3,0.3,0.6,0.6,1,0.8
		c0.4,0.2,0.9,0.3,1.4,0.3c0.5,0,0.9-0.1,1.3-0.2c0.4-0.2,0.8-0.4,1.1-0.8c0.3-0.3,0.5-0.7,0.7-1.2c0.2-0.5,0.2-1,0.2-1.6
		c0-0.6-0.1-1.2-0.2-1.7C277.6,78.7,277.4,78.3,277.1,78z M276.9,80.8c0,1-0.2,1.7-0.6,2.2c-0.4,0.5-0.9,0.8-1.6,0.8
		s-1.2-0.3-1.6-0.8c-0.4-0.5-0.6-1.2-0.6-2.2c0-0.5,0.1-0.9,0.2-1.3c0.1-0.4,0.3-0.7,0.4-0.9c0.2-0.3,0.4-0.4,0.7-0.6
		c0.3-0.1,0.6-0.2,0.9-0.2c0.3,0,0.6,0.1,0.9,0.2c0.3,0.1,0.5,0.3,0.7,0.6c0.2,0.2,0.3,0.6,0.4,0.9
		C276.8,79.9,276.9,80.4,276.9,80.8z"/>
	<path class="st2" d="M282,78.8c-0.3,0-0.6,0.1-0.9,0.2c-0.2,0.1-0.5,0.3-0.8,0.5v-0.6h-1v5.6h1v-4.2c0.2-0.2,0.5-0.3,0.7-0.5
		c0.2-0.1,0.5-0.2,0.7-0.2c0.2,0,0.4,0,0.5,0.1c0.1,0.1,0.2,0.2,0.3,0.3c0.1,0.1,0.1,0.3,0.1,0.5c0,0.2,0,0.5,0,0.7v3.2h1v-3.6
		c0-0.7-0.2-1.2-0.5-1.6C283,79,282.6,78.8,282,78.8z"/>
	<rect x="285.5" y="76.8" class="st2" width="1" height="7.8"/>
	<rect x="288.3" y="77" class="st2" width="1.2" height="1.1"/>
	<rect x="288.3" y="78.9" class="st2" width="1" height="5.6"/>
	<path class="st2" d="M293.8,78.8c-0.3,0-0.6,0.1-0.9,0.2c-0.2,0.1-0.5,0.3-0.8,0.5v-0.6h-1v5.6h1v-4.2c0.2-0.2,0.5-0.3,0.7-0.5
		c0.2-0.1,0.5-0.2,0.7-0.2c0.2,0,0.4,0,0.5,0.1c0.1,0.1,0.2,0.2,0.3,0.3c0.1,0.1,0.1,0.3,0.1,0.5c0,0.2,0,0.5,0,0.7v3.2h1v-3.6
		c0-0.7-0.2-1.2-0.5-1.6C294.7,79,294.3,78.8,293.8,78.8z"/>
	<path class="st2" d="M301.7,81.3c0-0.4-0.1-0.8-0.2-1.1c-0.1-0.3-0.3-0.6-0.5-0.8c-0.2-0.2-0.4-0.4-0.7-0.5
		c-0.3-0.1-0.6-0.2-0.9-0.2c-0.8,0-1.4,0.3-1.9,0.8c-0.5,0.5-0.7,1.3-0.7,2.2c0,0.9,0.2,1.6,0.7,2.2s1.2,0.8,2.1,0.8
		c0.2,0,0.4,0,0.6,0c0.1,0,0.3-0.1,0.5-0.1c0.1,0,0.3-0.1,0.4-0.2c0.1-0.1,0.3-0.1,0.4-0.1l0.1,0v-1.1h-0.1l0,0
		c-0.1,0.1-0.2,0.1-0.3,0.2c-0.1,0.1-0.3,0.1-0.4,0.2c-0.2,0.1-0.3,0.1-0.5,0.2c-0.2,0-0.4,0.1-0.6,0.1c-0.6,0-1-0.2-1.3-0.5
		c-0.3-0.3-0.5-0.8-0.5-1.4h3.8V81.3z M298,80.5c0.1-0.2,0.2-0.3,0.3-0.5c0.1-0.1,0.3-0.2,0.5-0.3c0.2-0.1,0.4-0.1,0.6-0.1
		c0.2,0,0.4,0,0.6,0.1c0.2,0.1,0.3,0.2,0.4,0.3c0.1,0.1,0.2,0.3,0.2,0.4c0,0.2,0.1,0.4,0.1,0.6h-2.8C297.9,80.9,298,80.7,298,80.5z"
		/>
</g>
</svg>
