<?xml version="1.0" encoding="utf-8"?>
<!-- Generator: Adobe Illustrator 26.5.0, SVG Export Plug-In . SVG Version: 6.00 Build 0)  -->
<svg version="1.1" id="_層_1" xmlns="http://www.w3.org/2000/svg" xmlns:xlink="http://www.w3.org/1999/xlink" x="0px" y="0px"
	 viewBox="0 0 676 630" style="enable-background:new 0 0 676 630;" xml:space="preserve">
<style type="text/css">
	.st0{fill:#FFFFFF;}
	.st1{fill:#DA8B41;}
	.st2{fill:#B3B3B3;}
	.st3{fill:none;stroke:#4D4D4D;stroke-miterlimit:10;}
	.st4{fill:#95C1AC;}
	.st5{fill:#71AD91;}
	.st6{fill:#4E9875;}
</style>
<rect x="-2" y="-3" class="st0" width="680" height="636"/>
<g>
	<g>
		<g>
			<path class="st1" d="M523,227.1v21.7c0,2.8-2.2,5-5,5H158c-2.8,0-5-2.2-5-5v-21.7c0-2.8,2.2-5,5-5h360
				C520.8,222.1,523,224.4,523,227.1z"/>
			<g>
				<path class="st0" d="M247.9,230.9h1.7v13.2h-1.7V230.9z"/>
				<path class="st0" d="M253,234.3h1.4l0.1,1.4h0.1c0.9-0.9,1.9-1.7,3-1.7c1.5,0,2.3,0.7,2.7,1.9c1-1.1,2-1.9,3.2-1.9
					c2,0,3,1.3,3,3.8v6.2h-1.6v-6c0-1.8-0.6-2.6-1.8-2.6c-0.8,0-1.5,0.5-2.5,1.5v7.1h-1.6v-6c0-1.8-0.6-2.6-1.8-2.6
					c-0.7,0-1.6,0.5-2.5,1.5v7.1H253L253,234.3L253,234.3z"/>
				<path class="st0" d="M269.7,234.3h1.4l0.1,1.1h0c0.9-0.7,2-1.4,3.1-1.4c2.5,0,3.9,2,3.9,5c0,3.4-2,5.3-4.2,5.3
					c-0.9,0-1.8-0.4-2.7-1.1l0,1.7v3.3h-1.6V234.3L269.7,234.3z M276.5,239c0-2.2-0.7-3.6-2.6-3.6c-0.8,0-1.7,0.5-2.6,1.4v5.1
					c0.9,0.8,1.8,1,2.4,1C275.3,242.9,276.5,241.5,276.5,239L276.5,239z"/>
				<path class="st0" d="M280.8,242.1v-12.4h1.6v12.5c0,0.5,0.2,0.7,0.5,0.7c0.1,0,0.2,0,0.3,0l0.2,1.3c-0.2,0.1-0.5,0.1-1,0.1
					C281.3,244.3,280.8,243.5,280.8,242.1L280.8,242.1z"/>
				<path class="st0" d="M285.2,239.2c0-3.2,2.1-5.1,4.4-5.1c2.5,0,3.9,1.8,3.9,4.6c0,0.4,0,0.7-0.1,0.9h-6.6
					c0.1,2.1,1.4,3.4,3.2,3.4c1,0,1.7-0.3,2.5-0.8l0.6,1.1c-0.9,0.6-1.9,1-3.2,1C287.3,244.3,285.2,242.4,285.2,239.2L285.2,239.2z
					 M292.1,238.4c0-2-0.9-3-2.4-3c-1.4,0-2.6,1.1-2.8,3H292.1z"/>
				<path class="st0" d="M295.9,234.3h1.4l0.1,1.4h0c0.9-0.9,1.9-1.7,3-1.7c1.5,0,2.3,0.7,2.7,1.9c1-1.1,2-1.9,3.2-1.9
					c2,0,3,1.3,3,3.8v6.2h-1.6v-6c0-1.8-0.6-2.6-1.8-2.6c-0.8,0-1.5,0.5-2.5,1.5v7.1h-1.6v-6c0-1.8-0.6-2.6-1.8-2.6
					c-0.7,0-1.6,0.5-2.5,1.5v7.1h-1.6L295.9,234.3L295.9,234.3z"/>
				<path class="st0" d="M311.9,239.2c0-3.2,2.1-5.1,4.4-5.1c2.5,0,3.9,1.8,3.9,4.6c0,0.4,0,0.7-0.1,0.9h-6.6
					c0.1,2.1,1.4,3.4,3.2,3.4c1,0,1.7-0.3,2.5-0.8l0.6,1.1c-0.9,0.6-1.9,1-3.2,1C313.9,244.3,311.9,242.4,311.9,239.2L311.9,239.2z
					 M318.7,238.4c0-2-0.9-3-2.4-3c-1.4,0-2.6,1.1-2.8,3H318.7z"/>
				<path class="st0" d="M322.6,234.3h1.4l0.1,1.4h0c0.9-0.9,1.9-1.7,3.3-1.7c2,0,3,1.3,3,3.8v6.2h-1.6v-6c0-1.8-0.6-2.6-1.9-2.6
					c-1,0-1.7,0.5-2.7,1.5v7.1h-1.6L322.6,234.3L322.6,234.3z"/>
				<path class="st0" d="M333.9,241v-5.4h-1.5v-1.2l1.5-0.1l0.2-2.7h1.4v2.7h2.6v1.3h-2.6v5.5c0,1.2,0.4,1.9,1.5,1.9
					c0.3,0,0.8-0.1,1.1-0.2l0.3,1.2c-0.6,0.2-1.2,0.4-1.8,0.4C334.6,244.3,333.9,243,333.9,241L333.9,241z"/>
				<path class="st0" d="M339.3,241.5c0-2.1,1.9-3.2,6-3.7c0-1.3-0.4-2.5-2-2.5c-1.1,0-2.2,0.5-2.9,1l-0.6-1.1
					c0.9-0.6,2.3-1.3,3.9-1.3c2.4,0,3.4,1.6,3.4,4v6h-1.4l-0.1-1.2h0c-0.9,0.8-2,1.4-3.2,1.4C340.5,244.3,339.3,243.3,339.3,241.5
					L339.3,241.5z M345.3,241.7v-2.7c-3.3,0.4-4.4,1.2-4.4,2.5c0,1.1,0.8,1.6,1.7,1.6S344.4,242.5,345.3,241.7z"/>
				<path class="st0" d="M350.1,241v-5.4h-1.5v-1.2l1.5-0.1l0.2-2.7h1.4v2.7h2.6v1.3h-2.6v5.5c0,1.2,0.4,1.9,1.5,1.9
					c0.3,0,0.8-0.1,1.1-0.2l0.3,1.2c-0.6,0.2-1.2,0.4-1.8,0.4C350.8,244.3,350.1,243,350.1,241L350.1,241z"/>
				<path class="st0" d="M356.3,231.2c0-0.7,0.5-1.1,1.1-1.1s1.1,0.4,1.1,1.1c0,0.6-0.5,1.1-1.1,1.1S356.3,231.8,356.3,231.2z
					 M356.6,234.3h1.6v9.8h-1.6V234.3z"/>
				<path class="st0" d="M360.8,239.2c0-3.3,2.1-5.1,4.5-5.1s4.5,1.9,4.5,5.1s-2.1,5.1-4.5,5.1S360.8,242.4,360.8,239.2z
					 M368.2,239.2c0-2.2-1.1-3.8-2.8-3.8s-2.8,1.5-2.8,3.8s1.1,3.8,2.8,3.8S368.2,241.4,368.2,239.2z"/>
				<path class="st0" d="M372.4,234.3h1.4l0.1,1.4h0c0.9-0.9,1.9-1.7,3.3-1.7c2,0,3,1.3,3,3.8v6.2h-1.6v-6c0-1.8-0.6-2.6-1.9-2.6
					c-1,0-1.7,0.5-2.7,1.5v7.1h-1.6L372.4,234.3L372.4,234.3z"/>
				<path class="st0" d="M387.6,238.6v-7.7h1.7v7.8c0,3.2,1.4,4.2,3.1,4.2s3.1-1,3.1-4.2v-7.8h1.6v7.7c0,4.2-2,5.7-4.8,5.7
					S387.6,242.8,387.6,238.6L387.6,238.6z"/>
				<path class="st0" d="M400.5,234.3h1.4l0.1,1.4h0c0.9-0.9,1.9-1.7,3.3-1.7c2,0,3,1.3,3,3.8v6.2h-1.6v-6c0-1.8-0.6-2.6-1.9-2.6
					c-1,0-1.7,0.5-2.7,1.5v7.1h-1.6L400.5,234.3L400.5,234.3z"/>
				<path class="st0" d="M411.1,231.2c0-0.7,0.5-1.1,1.1-1.1s1.1,0.4,1.1,1.1c0,0.6-0.5,1.1-1.1,1.1S411.1,231.8,411.1,231.2z
					 M411.5,234.3h1.6v9.8h-1.6V234.3z"/>
				<path class="st0" d="M416.7,241v-5.4h-1.5v-1.2l1.5-0.1l0.2-2.7h1.4v2.7h2.6v1.3h-2.6v5.5c0,1.2,0.4,1.9,1.5,1.9
					c0.3,0,0.8-0.1,1.1-0.2l0.3,1.2c-0.6,0.2-1.2,0.4-1.8,0.4C417.4,244.3,416.7,243,416.7,241L416.7,241z"/>
				<path class="st0" d="M421.9,242.9l0.8-1.1c0.9,0.7,1.7,1.1,2.9,1.1c1.3,0,1.9-0.7,1.9-1.5c0-1-1.1-1.4-2.2-1.9
					c-1.4-0.5-2.9-1.2-2.9-2.8c0-1.6,1.2-2.8,3.4-2.8c1.2,0,2.3,0.5,3,1.1l-0.8,1.1c-0.7-0.5-1.4-0.9-2.2-0.9
					c-1.2,0-1.8,0.6-1.8,1.4c0,0.9,1.1,1.3,2.2,1.7c1.4,0.5,3,1.1,3,3c0,1.6-1.3,2.9-3.6,2.9C424.1,244.3,422.8,243.7,421.9,242.9
					L421.9,242.9z"/>
			</g>
		</g>
		<g>
			<path class="st2" d="M172.4,264.6l10.6,6.8v0.1l-10.6,6.8h0L172.4,264.6L172.4,264.6L172.4,264.6z"/>
			<path d="M193.3,264.4h3.8c3,0,4.9,1,4.9,3.9s-2,4.1-4.9,4.1h-2.2v5.2h-1.7V264.4L193.3,264.4z M196.9,271c2.3,0,3.4-0.9,3.4-2.7
				s-1.2-2.5-3.5-2.5h-1.9v5.3L196.9,271L196.9,271z"/>
			<path d="M204.5,275.6v-12.4h1.6v12.5c0,0.5,0.2,0.7,0.5,0.7c0.1,0,0.2,0,0.3,0l0.2,1.3c-0.2,0.1-0.5,0.1-0.9,0.1
				C205,277.8,204.5,277,204.5,275.6L204.5,275.6z"/>
			<path d="M209,275c0-2.1,1.9-3.2,6-3.7c0-1.3-0.4-2.5-2-2.5c-1.1,0-2.2,0.5-2.9,1l-0.6-1.1c0.9-0.6,2.3-1.3,3.9-1.3
				c2.4,0,3.4,1.6,3.4,4v6h-1.4l-0.1-1.2h-0.1c-0.9,0.8-2,1.4-3.2,1.4C210.2,277.8,209,276.8,209,275L209,275z M215,275.2v-2.7
				c-3.3,0.4-4.4,1.2-4.4,2.5c0,1.1,0.8,1.6,1.7,1.6S214.1,276,215,275.2L215,275.2z"/>
			<path d="M219.8,267.8h1.4l0.1,1.4h0.1c0.9-0.9,1.9-1.7,3.3-1.7c2.1,0,3,1.3,3,3.8v6.2H226v-6c0-1.8-0.6-2.6-1.9-2.6
				c-1,0-1.7,0.5-2.7,1.5v7.1h-1.6L219.8,267.8L219.8,267.8z"/>
			<path d="M230.8,267.8h1.4l0.1,1.4h0.1c0.9-0.9,1.9-1.7,3.3-1.7c2.1,0,3,1.3,3,3.8v6.2H237v-6c0-1.8-0.6-2.6-1.9-2.6
				c-1,0-1.7,0.5-2.7,1.5v7.1h-1.6L230.8,267.8L230.8,267.8z"/>
			<path d="M241.5,264.7c0-0.7,0.5-1.1,1.1-1.1s1.1,0.4,1.1,1.1c0,0.6-0.5,1.1-1.1,1.1S241.5,265.3,241.5,264.7z M241.8,267.8h1.6
				v9.8h-1.6V267.8z"/>
			<path d="M246.7,267.8h1.4l0.1,1.4h0.1c0.9-0.9,1.9-1.7,3.3-1.7c2.1,0,3,1.3,3,3.8v6.2h-1.6v-6c0-1.8-0.6-2.6-1.9-2.6
				c-1,0-1.7,0.5-2.7,1.5v7.1h-1.6L246.7,267.8L246.7,267.8z"/>
			<path d="M257,279.4c0-0.8,0.5-1.6,1.5-2.2v-0.1c-0.5-0.3-0.9-0.8-0.9-1.6s0.6-1.5,1.1-1.8v-0.1c-0.6-0.5-1.3-1.5-1.3-2.6
				c0-2.1,1.7-3.5,3.7-3.5c0.5,0,1,0.1,1.4,0.2h3.4v1.3h-2c0.5,0.5,0.8,1.2,0.8,2c0,2.1-1.6,3.4-3.6,3.4c-0.5,0-1-0.1-1.5-0.3
				c-0.4,0.3-0.6,0.6-0.6,1.2c0,0.6,0.4,1.1,1.7,1.1h1.9c2.3,0,3.4,0.7,3.4,2.3c0,1.8-1.9,3.4-4.9,3.4
				C258.6,282.1,257,281.1,257,279.4L257,279.4z M264.4,278.9c0-0.9-0.7-1.2-2-1.2h-1.7c-0.4,0-0.8,0-1.3-0.2c-0.7,0.5-1,1.1-1,1.7
				c0,1,1.1,1.7,2.8,1.7C263.1,281,264.4,280,264.4,278.9L264.4,278.9z M263.1,271c0-1.4-0.9-2.3-2.1-2.3s-2.1,0.9-2.1,2.3
				s1,2.3,2.1,2.3S263.1,272.5,263.1,271z"/>
			<path d="M272,264.4h3.3c4,0,6.2,2.4,6.2,6.5s-2.2,6.6-6.2,6.6H272V264.4L272,264.4z M275.2,276.2c3.1,0,4.6-1.9,4.6-5.3
				s-1.5-5.2-4.6-5.2h-1.5v10.5H275.2z"/>
			<path d="M284,264.7c0-0.7,0.5-1.1,1.1-1.1s1.1,0.4,1.1,1.1c0,0.6-0.5,1.1-1.1,1.1S284,265.3,284,264.7z M284.3,267.8h1.6v9.8
				h-1.6V267.8z"/>
			<path d="M287.8,267.8h1.7l1.8,5.6c0.3,1,0.6,2,0.9,2.9h0.1c0.3-0.9,0.6-1.9,0.9-2.9l1.9-5.6h1.6l-3.5,9.8h-1.9L287.8,267.8z"/>
			<path d="M298.3,264.7c0-0.7,0.5-1.1,1.1-1.1s1.1,0.4,1.1,1.1c0,0.6-0.5,1.1-1.1,1.1S298.3,265.3,298.3,264.7z M298.6,267.8h1.6
				v9.8h-1.6V267.8z"/>
			<path d="M302.4,276.5l0.8-1.1c0.9,0.7,1.7,1.1,2.9,1.1c1.3,0,1.9-0.7,1.9-1.5c0-1-1.1-1.4-2.2-1.9c-1.4-0.5-2.9-1.2-2.9-2.8
				c0-1.5,1.2-2.8,3.4-2.8c1.2,0,2.3,0.5,3,1.1l-0.8,1.1c-0.7-0.5-1.4-0.9-2.2-0.9c-1.2,0-1.8,0.6-1.8,1.4c0,0.9,1.1,1.3,2.2,1.7
				c1.4,0.5,3,1.1,3,3c0,1.6-1.3,2.9-3.6,2.9C304.7,277.8,303.4,277.2,302.4,276.5L302.4,276.5z"/>
			<path d="M311.6,264.7c0-0.7,0.5-1.1,1.1-1.1s1.1,0.4,1.1,1.1c0,0.6-0.5,1.1-1.1,1.1S311.6,265.3,311.6,264.7z M312,267.8h1.6v9.8
				H312V267.8z"/>
			<path d="M316.2,272.7c0-3.3,2.1-5.1,4.5-5.1s4.5,1.9,4.5,5.1s-2.1,5.1-4.5,5.1S316.2,275.9,316.2,272.7z M323.6,272.7
				c0-2.2-1.1-3.8-2.8-3.8s-2.8,1.5-2.8,3.8s1.1,3.8,2.8,3.8S323.6,274.9,323.6,272.7z"/>
			<path d="M327.8,267.8h1.4l0.1,1.4h0c0.9-0.9,1.9-1.7,3.3-1.7c2,0,3,1.3,3,3.8v6.2H334v-6c0-1.8-0.6-2.6-1.9-2.6
				c-1,0-1.7,0.5-2.7,1.5v7.1h-1.6L327.8,267.8L327.8,267.8z"/>
			<path class="st2" d="M172.4,294.6l10.6,6.8v0.1l-10.6,6.8h0L172.4,294.6L172.4,294.6L172.4,294.6z"/>
			<path d="M193.3,294.4h1.7v13.2h-1.7V294.4z"/>
			<path d="M198.4,297.8h1.4l0.1,1.4h0.1c0.9-0.9,1.9-1.7,3.3-1.7c2.1,0,3,1.3,3,3.8v6.2h-1.6v-6c0-1.8-0.6-2.6-1.9-2.6
				c-1,0-1.7,0.5-2.7,1.5v7.1h-1.6L198.4,297.8L198.4,297.8z"/>
			<path d="M208.7,302.7c0-3.3,2.2-5.1,4.7-5.1c1.3,0,2.2,0.5,2.9,1.1l-0.9,1.1c-0.6-0.5-1.2-0.9-2-0.9c-1.8,0-3.1,1.5-3.1,3.8
				s1.2,3.8,3,3.8c0.9,0,1.7-0.4,2.3-1l0.7,1.1c-0.9,0.8-2,1.2-3.1,1.2C210.7,307.8,208.7,305.9,208.7,302.7L208.7,302.7z"/>
			<path d="M218.2,294.7c0-0.7,0.5-1.1,1.1-1.1s1.1,0.4,1.1,1.1c0,0.6-0.5,1.1-1.1,1.1S218.2,295.3,218.2,294.7z M218.6,297.8h1.6
				v9.8h-1.6V297.8z"/>
			<path d="M222.8,302.7c0-3.2,2-5.1,4.2-5.1c1.1,0,1.9,0.4,2.8,1.1l-0.1-1.7v-3.8h1.6v14.3H230l-0.2-1.1h0c-0.8,0.8-1.8,1.4-3,1.4
				C224.4,307.8,222.8,305.9,222.8,302.7L222.8,302.7z M229.7,305.1v-5.1c-0.8-0.7-1.6-1-2.4-1c-1.6,0-2.8,1.5-2.8,3.8
				c0,2.4,1,3.8,2.7,3.8C228.1,306.4,228.9,306,229.7,305.1L229.7,305.1z"/>
			<path d="M233.9,302.7c0-3.2,2.1-5.1,4.4-5.1c2.5,0,3.9,1.8,3.9,4.6c0,0.4,0,0.7-0.1,0.9h-6.6c0.1,2.1,1.4,3.4,3.2,3.4
				c0.9,0,1.7-0.3,2.4-0.8l0.6,1.1c-0.9,0.6-1.9,1-3.2,1C236,307.8,233.9,305.9,233.9,302.7L233.9,302.7z M240.8,301.9
				c0-2-0.9-3-2.4-3c-1.4,0-2.6,1.1-2.8,3H240.8L240.8,301.9z"/>
			<path d="M244.6,297.8h1.4l0.1,1.4h0.1c0.9-0.9,1.9-1.7,3.3-1.7c2.1,0,3,1.3,3,3.8v6.2h-1.6v-6c0-1.8-0.6-2.6-1.9-2.6
				c-1,0-1.7,0.5-2.7,1.5v7.1h-1.6L244.6,297.8L244.6,297.8z"/>
			<path d="M255.9,304.5v-5.4h-1.5v-1.2l1.5-0.1l0.2-2.7h1.4v2.7h2.6v1.3h-2.6v5.5c0,1.2,0.4,1.9,1.5,1.9c0.3,0,0.8-0.1,1.1-0.2
				l0.3,1.2c-0.6,0.2-1.2,0.4-1.8,0.4C256.6,307.8,255.9,306.5,255.9,304.5L255.9,304.5z"/>
			<path d="M266.6,294.4h1.7l4.8,8.3l1.4,2.7h0.1c-0.1-1.3-0.2-2.8-0.2-4.2v-6.9h1.6v13.2h-1.7l-4.8-8.3l-1.4-2.7H268
				c0.1,1.3,0.2,2.7,0.2,4.1v6.9h-1.6V294.4L266.6,294.4z"/>
			<path d="M278.7,302.7c0-3.3,2.1-5.1,4.5-5.1s4.5,1.9,4.5,5.1s-2.1,5.1-4.5,5.1S278.7,305.9,278.7,302.7z M286.1,302.7
				c0-2.2-1.1-3.8-2.8-3.8s-2.8,1.5-2.8,3.8s1.1,3.8,2.8,3.8S286.1,304.9,286.1,302.7z"/>
			<path d="M290.3,304.5v-5.4h-1.5v-1.2l1.5-0.1l0.2-2.7h1.4v2.7h2.6v1.3H292v5.5c0,1.2,0.4,1.9,1.5,1.9c0.3,0,0.8-0.1,1.1-0.2
				l0.3,1.2c-0.6,0.2-1.2,0.4-1.8,0.4C291,307.8,290.3,306.5,290.3,304.5L290.3,304.5z"/>
			<path d="M296.5,294.7c0-0.7,0.5-1.1,1.1-1.1s1.1,0.4,1.1,1.1c0,0.6-0.5,1.1-1.1,1.1S296.5,295.3,296.5,294.7z M296.8,297.8h1.6
				v9.8h-1.6V297.8z"/>
			<path d="M302,296.2c0-2,0.9-3.2,2.8-3.2c0.6,0,1.2,0.1,1.6,0.3l-0.4,1.2c-0.4-0.2-0.8-0.2-1.1-0.2c-0.9,0-1.4,0.7-1.4,1.9v1.5
				h2.1v1.3h-2.1v8.4H302v-8.4h-1.3v-1.2l1.3-0.1L302,296.2L302,296.2z M309.9,294.7c0,0.6-0.5,1.1-1.1,1.1s-1.1-0.5-1.1-1.1
				c0-0.7,0.5-1.1,1.1-1.1S309.9,294,309.9,294.7z M308,297.8h1.7v9.8H308V297.8z"/>
			<path d="M312.2,302.7c0-3.3,2.2-5.1,4.7-5.1c1.3,0,2.2,0.5,2.9,1.1l-0.9,1.1c-0.6-0.5-1.2-0.9-2-0.9c-1.8,0-3.1,1.5-3.1,3.8
				s1.2,3.8,3,3.8c0.9,0,1.7-0.4,2.3-1l0.7,1.1c-0.9,0.8-2,1.2-3.1,1.2C314.2,307.8,312.2,305.9,312.2,302.7L312.2,302.7z"/>
			<path d="M321.3,305c0-2.1,1.9-3.2,6-3.7c0-1.3-0.4-2.5-2-2.5c-1.1,0-2.2,0.5-2.9,1l-0.6-1.1c0.9-0.6,2.3-1.3,3.9-1.3
				c2.4,0,3.4,1.6,3.4,4v6h-1.4l-0.1-1.2h0c-0.9,0.8-2,1.4-3.2,1.4C322.5,307.8,321.3,306.8,321.3,305L321.3,305z M327.3,305.2v-2.7
				c-3.3,0.4-4.4,1.2-4.4,2.5c0,1.1,0.8,1.6,1.7,1.6S326.3,306,327.3,305.2L327.3,305.2z"/>
			<path d="M332,304.5v-5.4h-1.5v-1.2l1.5-0.1l0.2-2.7h1.4v2.7h2.6v1.3h-2.6v5.5c0,1.2,0.4,1.9,1.5,1.9c0.3,0,0.8-0.1,1.1-0.2
				l0.3,1.2c-0.6,0.2-1.2,0.4-1.8,0.4C332.8,307.8,332.1,306.5,332,304.5L332,304.5z"/>
			<path d="M338.2,294.7c0-0.7,0.5-1.1,1.1-1.1s1.1,0.4,1.1,1.1c0,0.6-0.5,1.1-1.1,1.1S338.2,295.3,338.2,294.7z M338.5,297.8h1.6
				v9.8h-1.6V297.8z"/>
			<path d="M342.8,302.7c0-3.3,2.1-5.1,4.5-5.1s4.5,1.9,4.5,5.1s-2.1,5.1-4.5,5.1S342.8,305.9,342.8,302.7z M350.1,302.7
				c0-2.2-1.1-3.8-2.8-3.8s-2.8,1.5-2.8,3.8s1.1,3.8,2.8,3.8S350.1,304.9,350.1,302.7z"/>
			<path d="M354.4,297.8h1.4l0.1,1.4h0c0.9-0.9,1.9-1.7,3.3-1.7c2,0,3,1.3,3,3.8v6.2h-1.6v-6c0-1.8-0.6-2.6-1.9-2.6
				c-1,0-1.7,0.5-2.7,1.5v7.1h-1.6L354.4,297.8L354.4,297.8z"/>
			<path d="M368.8,305c0-2.1,1.9-3.2,6-3.7c0-1.3-0.4-2.5-2-2.5c-1.1,0-2.2,0.5-2.9,1l-0.6-1.1c0.9-0.6,2.3-1.3,3.9-1.3
				c2.4,0,3.4,1.6,3.4,4v6h-1.4l-0.1-1.2h0c-0.9,0.8-2,1.4-3.2,1.4C370,307.8,368.8,306.8,368.8,305L368.8,305z M374.8,305.2v-2.7
				c-3.3,0.4-4.4,1.2-4.4,2.5c0,1.1,0.8,1.6,1.7,1.6S373.9,306,374.8,305.2L374.8,305.2z"/>
			<path d="M379.6,297.8h1.4l0.1,1.4h0c0.9-0.9,1.9-1.7,3.3-1.7c2,0,3,1.3,3,3.8v6.2h-1.6v-6c0-1.8-0.6-2.6-1.9-2.6
				c-1,0-1.7,0.5-2.7,1.5v7.1h-1.6L379.6,297.8L379.6,297.8z"/>
			<path d="M389.9,302.7c0-3.2,2-5.1,4.2-5.1c1.1,0,1.9,0.4,2.8,1.1l-0.1-1.7v-3.8h1.6v14.3h-1.3l-0.2-1.1h0c-0.8,0.8-1.8,1.4-3,1.4
				C391.5,307.8,389.9,305.9,389.9,302.7L389.9,302.7z M396.8,305.1v-5.1c-0.8-0.7-1.6-1-2.4-1c-1.6,0-2.8,1.5-2.8,3.8
				c0,2.4,1,3.8,2.7,3.8C395.2,306.4,396,306,396.8,305.1L396.8,305.1z"/>
			<path d="M413.2,307.6L410,302h-2.4v5.6h-1.7v-13.2h4.1c2.7,0,4.6,1,4.6,3.7c0,2-1.2,3.3-3,3.7l3.4,5.8L413.2,307.6L413.2,307.6z
				 M407.6,300.6h2.2c2.1,0,3.2-0.8,3.2-2.5s-1.1-2.4-3.2-2.4h-2.2V300.6z"/>
			<path d="M416.3,302.7c0-3.2,2.1-5.1,4.4-5.1c2.5,0,3.9,1.8,3.9,4.6c0,0.4,0,0.7-0.1,0.9h-6.6c0.1,2.1,1.4,3.4,3.2,3.4
				c1,0,1.7-0.3,2.5-0.8l0.6,1.1c-0.9,0.6-1.9,1-3.2,1C418.4,307.8,416.3,305.9,416.3,302.7L416.3,302.7z M423.1,301.9
				c0-2-0.9-3-2.4-3c-1.4,0-2.6,1.1-2.8,3H423.1z"/>
			<path d="M425.9,306.5l0.8-1.1c0.9,0.7,1.7,1.1,2.9,1.1c1.3,0,1.9-0.7,1.9-1.5c0-1-1.1-1.4-2.2-1.9c-1.4-0.5-2.9-1.2-2.9-2.8
				c0-1.5,1.2-2.8,3.4-2.8c1.2,0,2.3,0.5,3,1.1l-0.8,1.1c-0.7-0.5-1.4-0.9-2.2-0.9c-1.2,0-1.8,0.6-1.8,1.4c0,0.9,1.1,1.3,2.2,1.7
				c1.4,0.5,3,1.1,3,3c0,1.6-1.3,2.9-3.6,2.9C428.1,307.8,426.8,307.2,425.9,306.5L425.9,306.5z"/>
			<path d="M435.4,297.8h1.4l0.1,1.1h0c0.9-0.7,2-1.4,3.1-1.4c2.5,0,3.9,2,3.9,5c0,3.4-2,5.3-4.2,5.3c-0.9,0-1.8-0.4-2.7-1.1l0,1.7
				v3.3h-1.6V297.8L435.4,297.8z M442.2,302.5c0-2.2-0.7-3.6-2.6-3.6c-0.8,0-1.7,0.5-2.6,1.4v5.1c0.9,0.8,1.8,1,2.4,1
				C441.1,306.4,442.2,305,442.2,302.5L442.2,302.5z"/>
			<path d="M445.8,302.7c0-3.3,2.1-5.1,4.5-5.1s4.5,1.9,4.5,5.1s-2.1,5.1-4.5,5.1S445.8,305.9,445.8,302.7z M453.2,302.7
				c0-2.2-1.1-3.8-2.8-3.8s-2.8,1.5-2.8,3.8s1.1,3.8,2.8,3.8S453.2,304.9,453.2,302.7z"/>
			<path d="M457.5,297.8h1.4l0.1,1.4h0c0.9-0.9,1.9-1.7,3.3-1.7c2,0,3,1.3,3,3.8v6.2h-1.6v-6c0-1.8-0.6-2.6-1.9-2.6
				c-1,0-1.7,0.5-2.7,1.5v7.1h-1.6L457.5,297.8L457.5,297.8z"/>
			<path d="M467.4,306.5l0.8-1.1c0.9,0.7,1.7,1.1,2.9,1.1c1.3,0,1.9-0.7,1.9-1.5c0-1-1.1-1.4-2.2-1.9c-1.4-0.5-2.9-1.2-2.9-2.8
				c0-1.5,1.2-2.8,3.4-2.8c1.2,0,2.3,0.5,3,1.1l-0.8,1.1c-0.7-0.5-1.4-0.9-2.2-0.9c-1.2,0-1.8,0.6-1.8,1.4c0,0.9,1.1,1.3,2.2,1.7
				c1.4,0.5,3,1.1,3,3c0,1.6-1.3,2.9-3.6,2.9C469.6,307.8,468.3,307.2,467.4,306.5L467.4,306.5z"/>
			<path d="M476.2,302.7c0-3.2,2.1-5.1,4.4-5.1c2.5,0,3.9,1.8,3.9,4.6c0,0.4,0,0.7-0.1,0.9h-6.6c0.1,2.1,1.4,3.4,3.2,3.4
				c1,0,1.7-0.3,2.5-0.8l0.6,1.1c-0.9,0.6-1.9,1-3.2,1C478.3,307.8,476.2,305.9,476.2,302.7L476.2,302.7z M483,301.9
				c0-2-0.9-3-2.4-3c-1.4,0-2.6,1.1-2.8,3H483z"/>
			<path d="M194.4,314.4h3.3c4.1,0,6.2,2.4,6.2,6.5s-2.2,6.6-6.2,6.6h-3.4L194.4,314.4L194.4,314.4z M197.6,326.2
				c3.1,0,4.6-1.9,4.6-5.3s-1.5-5.2-4.6-5.2h-1.5v10.5H197.6z"/>
			<path d="M206.3,314.7c0-0.7,0.5-1.1,1.1-1.1s1.1,0.4,1.1,1.1c0,0.6-0.5,1.1-1.1,1.1S206.3,315.3,206.3,314.7z M206.6,317.8h1.6
				v9.8h-1.6V317.8z"/>
			<path d="M210.1,317.8h1.7l1.8,5.6c0.3,1,0.6,2,0.9,2.9h0.1c0.3-0.9,0.6-1.9,0.9-2.9l1.9-5.6h1.6l-3.5,9.8h-1.9L210.1,317.8z"/>
			<path d="M220.6,314.7c0-0.7,0.5-1.1,1.1-1.1s1.1,0.4,1.1,1.1c0,0.6-0.5,1.1-1.1,1.1S220.6,315.3,220.6,314.7z M220.9,317.8h1.6
				v9.8h-1.6V317.8z"/>
			<path d="M224.8,326.5l0.8-1.1c0.9,0.7,1.7,1.1,2.9,1.1c1.3,0,1.9-0.7,1.9-1.5c0-1-1.1-1.4-2.2-1.9c-1.4-0.5-2.9-1.2-2.9-2.8
				c0-1.5,1.2-2.8,3.4-2.8c1.2,0,2.3,0.5,3,1.1l-0.8,1.1c-0.7-0.5-1.4-0.9-2.2-0.9c-1.2,0-1.8,0.6-1.8,1.4c0,0.9,1.1,1.3,2.2,1.7
				c1.4,0.5,3,1.1,3,3c0,1.6-1.3,2.9-3.6,2.9C227.1,327.8,225.7,327.2,224.8,326.5L224.8,326.5z"/>
			<path d="M234,314.7c0-0.7,0.5-1.1,1.1-1.1s1.1,0.4,1.1,1.1c0,0.6-0.5,1.1-1.1,1.1S234,315.3,234,314.7z M234.3,317.8h1.6v9.8
				h-1.6V317.8z"/>
			<path d="M238.5,322.7c0-3.3,2.1-5.1,4.5-5.1s4.5,1.9,4.5,5.1s-2.1,5.1-4.5,5.1S238.5,325.9,238.5,322.7z M245.9,322.7
				c0-2.2-1.1-3.8-2.8-3.8s-2.8,1.5-2.8,3.8s1.1,3.8,2.8,3.8S245.9,324.9,245.9,322.7z"/>
			<path d="M250.2,317.8h1.4l0.1,1.4h0.1c0.9-0.9,1.9-1.7,3.3-1.7c2,0,3,1.3,3,3.8v6.2h-1.6v-6c0-1.8-0.6-2.6-1.9-2.6
				c-1,0-1.7,0.5-2.7,1.5v7.1h-1.6L250.2,317.8L250.2,317.8z"/>
			<path class="st2" d="M172.4,344.6l10.6,6.8v0.1l-10.6,6.8h0L172.4,344.6L172.4,344.6L172.4,344.6z"/>
			<path d="M196,345.8h-4v-1.4h9.7v1.4h-4v11.8H196V345.8z"/>
			<path d="M203,347.8h1.4l0.1,1.8h0.1c0.7-1.2,1.7-2,2.8-2c0.4,0,0.7,0,1,0.2l-0.3,1.4c-0.3-0.1-0.6-0.2-0.9-0.2
				c-0.8,0-1.8,0.6-2.5,2.2v6.3H203L203,347.8L203,347.8z"/>
			<path d="M208.9,355c0-2.1,1.9-3.2,6-3.7c0-1.3-0.4-2.5-2-2.5c-1.1,0-2.2,0.5-2.9,1l-0.6-1.1c0.9-0.6,2.3-1.3,3.9-1.3
				c2.4,0,3.4,1.6,3.4,4v6h-1.4l-0.1-1.2h-0.1c-0.9,0.8-2,1.4-3.2,1.4C210.1,357.8,208.8,356.8,208.9,355L208.9,355z M214.9,355.2
				v-2.7c-3.3,0.4-4.4,1.2-4.4,2.5c0,1.1,0.8,1.6,1.7,1.6S213.9,356,214.9,355.2L214.9,355.2z"/>
			<path d="M219.3,344.7c0-0.7,0.5-1.1,1.1-1.1s1.1,0.4,1.1,1.1c0,0.6-0.5,1.1-1.1,1.1S219.3,345.3,219.3,344.7z M219.6,347.8h1.6
				v9.8h-1.6V347.8z"/>
			<path d="M224.6,347.8h1.4l0.1,1.4h0.1c0.9-0.9,1.9-1.7,3.3-1.7c2.1,0,3,1.3,3,3.8v6.2h-1.6v-6c0-1.8-0.6-2.6-1.9-2.6
				c-1,0-1.7,0.5-2.7,1.5v7.1h-1.6L224.6,347.8L224.6,347.8z"/>
			<path d="M235.3,344.7c0-0.7,0.5-1.1,1.1-1.1s1.1,0.4,1.1,1.1c0,0.6-0.5,1.1-1.1,1.1S235.3,345.3,235.3,344.7z M235.6,347.8h1.6
				v9.8h-1.6V347.8z"/>
			<path d="M240.5,347.8h1.4l0.1,1.4h0.1c0.9-0.9,1.9-1.7,3.3-1.7c2.1,0,3,1.3,3,3.8v6.2h-1.6v-6c0-1.8-0.6-2.6-1.9-2.6
				c-1,0-1.7,0.5-2.7,1.5v7.1h-1.6L240.5,347.8L240.5,347.8z"/>
			<path d="M250.8,359.4c0-0.8,0.5-1.6,1.5-2.2v-0.1c-0.5-0.3-0.9-0.8-0.9-1.6s0.6-1.5,1.1-1.8v-0.1c-0.6-0.5-1.3-1.5-1.3-2.6
				c0-2.1,1.7-3.5,3.7-3.5c0.5,0,1,0.1,1.4,0.2h3.4v1.3h-2c0.5,0.5,0.8,1.2,0.8,2c0,2.1-1.6,3.4-3.6,3.4c-0.5,0-1-0.1-1.5-0.3
				c-0.4,0.3-0.6,0.6-0.6,1.2c0,0.6,0.4,1.1,1.7,1.1h1.9c2.3,0,3.4,0.7,3.4,2.3c0,1.8-1.9,3.4-4.9,3.4
				C252.4,362.1,250.8,361.1,250.8,359.4L250.8,359.4z M258.2,358.9c0-0.9-0.7-1.2-2-1.2h-1.7c-0.4,0-0.8,0-1.3-0.2
				c-0.7,0.5-1,1.1-1,1.7c0,1,1.1,1.7,2.8,1.7C256.9,361,258.2,360,258.2,358.9L258.2,358.9z M256.9,351c0-1.4-0.9-2.3-2.1-2.3
				s-2.1,0.9-2.1,2.3s0.9,2.3,2.1,2.3S256.9,352.5,256.9,351z"/>
			<path d="M265.8,344.4h3.3c4,0,6.2,2.4,6.2,6.5s-2.2,6.6-6.2,6.6h-3.4V344.4L265.8,344.4z M269,356.2c3.1,0,4.6-1.9,4.6-5.3
				s-1.5-5.2-4.6-5.2h-1.5v10.5H269z"/>
			<path d="M277.7,344.7c0-0.7,0.5-1.1,1.1-1.1s1.1,0.4,1.1,1.1c0,0.6-0.5,1.1-1.1,1.1S277.7,345.3,277.7,344.7z M278,347.8h1.6v9.8
				H278V347.8z"/>
			<path d="M281.6,347.8h1.7l1.8,5.6c0.3,1,0.6,2,0.9,2.9h0.1c0.3-0.9,0.6-1.9,0.9-2.9l1.9-5.6h1.6l-3.5,9.8h-1.9L281.6,347.8z"/>
			<path d="M292.1,344.7c0-0.7,0.5-1.1,1.1-1.1s1.1,0.4,1.1,1.1c0,0.6-0.5,1.1-1.1,1.1S292.1,345.3,292.1,344.7z M292.4,347.8h1.6
				v9.8h-1.6V347.8z"/>
			<path d="M296.2,356.5l0.8-1.1c0.9,0.7,1.7,1.1,2.9,1.1c1.3,0,1.9-0.7,1.9-1.5c0-1-1.1-1.4-2.2-1.9c-1.4-0.5-2.9-1.2-2.9-2.8
				c0-1.5,1.2-2.8,3.4-2.8c1.2,0,2.3,0.5,3,1.1l-0.8,1.1c-0.7-0.5-1.4-0.9-2.2-0.9c-1.2,0-1.8,0.6-1.8,1.4c0,0.9,1.1,1.3,2.2,1.7
				c1.4,0.5,3,1.1,3,3c0,1.6-1.3,2.9-3.6,2.9C298.5,357.8,297.2,357.2,296.2,356.5L296.2,356.5z"/>
			<path d="M305.4,344.7c0-0.7,0.5-1.1,1.1-1.1s1.1,0.4,1.1,1.1c0,0.6-0.5,1.1-1.1,1.1S305.4,345.3,305.4,344.7z M305.8,347.8h1.6
				v9.8h-1.6V347.8z"/>
			<path d="M310,352.7c0-3.3,2.1-5.1,4.5-5.1s4.5,1.9,4.5,5.1s-2.1,5.1-4.5,5.1S310,355.9,310,352.7z M317.3,352.7
				c0-2.2-1.1-3.8-2.8-3.8s-2.8,1.5-2.8,3.8s1.1,3.8,2.8,3.8S317.3,354.9,317.3,352.7z"/>
			<path d="M321.6,347.8h1.4l0.1,1.4h0c0.9-0.9,1.9-1.7,3.3-1.7c2,0,3,1.3,3,3.8v6.2h-1.6v-6c0-1.8-0.6-2.6-1.9-2.6
				c-1,0-1.7,0.5-2.7,1.5v7.1h-1.6L321.6,347.8L321.6,347.8z"/>
			<path class="st2" d="M172.4,374.6l10.6,6.8v0.1l-10.6,6.8h0L172.4,374.6L172.4,374.6L172.4,374.6z"/>
			<path d="M192.5,381c0-4.3,2.5-6.9,5.9-6.9c1.6,0,2.9,0.8,3.6,1.6l-0.9,1.1c-0.7-0.7-1.6-1.3-2.7-1.3c-2.5,0-4.2,2-4.2,5.4
				s1.6,5.4,4.1,5.4c1.3,0,2.2-0.6,3.1-1.5l0.9,1c-1,1.2-2.3,1.9-4.1,1.9C195,387.8,192.5,385.3,192.5,381L192.5,381z"/>
			<path d="M203.4,391.6l0.3-1.3c0.2,0.1,0.5,0.2,0.7,0.2c1.1,0,1.8-0.9,2.2-2.1l0.2-0.7l-3.9-9.8h1.7l2,5.4
				c0.3,0.9,0.6,1.9,0.9,2.7h0.1c0.3-0.9,0.6-1.9,0.8-2.7l1.8-5.4h1.6l-3.7,10.6c-0.7,1.9-1.7,3.4-3.6,3.4
				C204,391.8,203.7,391.7,203.4,391.6L203.4,391.6z"/>
			<path d="M215.2,386.6L215.2,386.6l-0.2,1h-1.3v-14.3h1.6v3.9l-0.1,1.8c0.9-0.8,2-1.4,3.1-1.4c2.5,0,3.9,2,3.9,5
				c0,3.4-2,5.3-4.2,5.3C217.1,387.8,216.1,387.3,215.2,386.6L215.2,386.6z M220.6,382.5c0-2.2-0.7-3.6-2.6-3.6
				c-0.8,0-1.7,0.5-2.6,1.4v5.1c0.9,0.8,1.8,1,2.4,1C219.4,386.4,220.5,385,220.6,382.5L220.6,382.5z"/>
			<path d="M224.1,382.7c0-3.2,2.1-5.1,4.4-5.1c2.5,0,3.9,1.8,3.9,4.6c0,0.4,0,0.7-0.1,0.9h-6.6c0.1,2.1,1.4,3.4,3.2,3.4
				c0.9,0,1.7-0.3,2.4-0.8l0.6,1.1c-0.9,0.6-1.9,1-3.2,1C226.2,387.8,224.1,385.9,224.1,382.7L224.1,382.7z M231,381.9
				c0-2-0.9-3-2.4-3c-1.4,0-2.6,1.1-2.8,3H231L231,381.9z"/>
			<path d="M234.8,377.8h1.4l0.1,1.8h0.1c0.7-1.2,1.7-2,2.8-2c0.4,0,0.7,0,1,0.2l-0.3,1.4c-0.3-0.1-0.6-0.2-0.9-0.2
				c-0.8,0-1.8,0.6-2.5,2.2v6.3h-1.6L234.8,377.8L234.8,377.8z"/>
			<path d="M245,385.8l1-1.1c0.9,1,2.3,1.6,3.6,1.6c1.7,0,2.8-0.9,2.8-2.2s-0.9-1.8-2.2-2.3l-1.9-0.8c-1.2-0.5-2.7-1.5-2.7-3.4
				c0-2,1.8-3.5,4.2-3.5c1.6,0,2.9,0.7,3.9,1.6l-0.9,1.1c-0.8-0.8-1.8-1.2-3-1.2c-1.5,0-2.5,0.8-2.5,1.9c0,1.3,1.1,1.8,2.2,2.2
				l1.9,0.8c1.5,0.7,2.7,1.6,2.7,3.5c0,2.1-1.7,3.8-4.5,3.8C247.8,387.8,246.2,387.1,245,385.8L245,385.8z"/>
			<path d="M255.8,382.7c0-3.2,2.1-5.1,4.4-5.1c2.5,0,3.9,1.8,3.9,4.6c0,0.4,0,0.7-0.1,0.9h-6.6c0.1,2.1,1.4,3.4,3.2,3.4
				c1,0,1.7-0.3,2.5-0.8l0.6,1.1c-0.9,0.6-1.9,1-3.2,1C257.9,387.8,255.8,385.9,255.8,382.7L255.8,382.7z M262.7,381.9
				c0-2-0.9-3-2.4-3c-1.4,0-2.6,1.1-2.8,3H262.7z"/>
			<path d="M265.8,382.7c0-3.3,2.2-5.1,4.7-5.1c1.3,0,2.2,0.5,2.9,1.1l-0.9,1.1c-0.6-0.5-1.2-0.9-2-0.9c-1.8,0-3.1,1.5-3.1,3.8
				s1.2,3.8,3,3.8c0.9,0,1.7-0.4,2.3-1l0.7,1.1c-0.9,0.8-2,1.2-3.1,1.2C267.8,387.8,265.8,385.9,265.8,382.7L265.8,382.7z"/>
			<path d="M275.6,384v-6.2h1.6v6c0,1.8,0.5,2.6,1.8,2.6c1,0,1.7-0.5,2.6-1.7v-6.9h1.6v9.8H282l-0.1-1.5h0c-0.9,1.1-1.9,1.8-3.2,1.8
				C276.5,387.8,275.6,386.5,275.6,384L275.6,384z"/>
			<path d="M286.6,377.8h1.4l0.1,1.8h0c0.7-1.2,1.7-2,2.8-2c0.4,0,0.7,0,1,0.2l-0.3,1.4c-0.3-0.1-0.6-0.2-1-0.2
				c-0.8,0-1.8,0.6-2.5,2.2v6.3h-1.6L286.6,377.8L286.6,377.8z"/>
			<path d="M293.3,374.7c0-0.7,0.5-1.1,1.1-1.1s1.1,0.4,1.1,1.1c0,0.6-0.5,1.1-1.1,1.1S293.3,375.3,293.3,374.7z M293.6,377.8h1.6
				v9.8h-1.6V377.8z"/>
			<path d="M298.9,384.5v-5.4h-1.5v-1.2l1.5-0.1l0.2-2.7h1.4v2.7h2.6v1.3h-2.6v5.5c0,1.2,0.4,1.9,1.5,1.9c0.3,0,0.8-0.1,1.1-0.2
				l0.3,1.2c-0.6,0.2-1.2,0.4-1.8,0.4C299.6,387.8,298.9,386.5,298.9,384.5L298.9,384.5z"/>
			<path d="M304.4,391.6l0.3-1.3c0.2,0.1,0.5,0.2,0.7,0.2c1.1,0,1.8-0.9,2.2-2.1l0.2-0.7l-3.9-9.8h1.7l2,5.4
				c0.3,0.9,0.6,1.9,0.9,2.7h0.1c0.3-0.9,0.6-1.9,0.8-2.7l1.8-5.4h1.6l-3.7,10.6c-0.7,1.9-1.7,3.4-3.6,3.4
				C305,391.8,304.7,391.7,304.4,391.6L304.4,391.6z"/>
			<path d="M325,383.5h-4.8l-1.3,4h-1.7l4.5-13.2h1.9l4.5,13.2h-1.8L325,383.5L325,383.5z M324.5,382.2l-0.6-2
				c-0.5-1.5-0.9-2.9-1.3-4.5h-0.1c-0.4,1.5-0.9,3-1.3,4.5l-0.6,2H324.5L324.5,382.2z"/>
			<path d="M329.4,384v-6.2h1.6v6c0,1.8,0.5,2.6,1.8,2.6c1,0,1.7-0.5,2.6-1.7v-6.9h1.6v9.8h-1.4l-0.1-1.5h0
				c-0.9,1.1-1.9,1.8-3.2,1.8C330.4,387.8,329.4,386.5,329.4,384L329.4,384z"/>
			<path d="M339.8,382.7c0-3.2,2-5.1,4.2-5.1c1.1,0,1.9,0.4,2.8,1.1l-0.1-1.7v-3.8h1.6v14.3H347l-0.2-1.1h0c-0.8,0.8-1.8,1.4-3,1.4
				C341.4,387.8,339.8,385.9,339.8,382.7L339.8,382.7z M346.7,385.1v-5.1c-0.8-0.7-1.6-1-2.4-1c-1.6,0-2.8,1.5-2.8,3.8
				c0,2.4,1,3.8,2.7,3.8C345.1,386.4,345.9,386,346.7,385.1L346.7,385.1z"/>
			<path d="M351.3,374.7c0-0.7,0.5-1.1,1.1-1.1s1.1,0.4,1.1,1.1c0,0.6-0.5,1.1-1.1,1.1S351.3,375.3,351.3,374.7z M351.6,377.8h1.6
				v9.8h-1.6V377.8z"/>
			<path d="M356.9,384.5v-5.4h-1.5v-1.2l1.5-0.1l0.2-2.7h1.4v2.7h2.6v1.3h-2.6v5.5c0,1.2,0.4,1.9,1.5,1.9c0.3,0,0.8-0.1,1.1-0.2
				l0.3,1.2c-0.6,0.2-1.2,0.4-1.8,0.4C357.6,387.8,356.9,386.5,356.9,384.5L356.9,384.5z"/>
			<path d="M367.6,374.4h3.3c4,0,6.2,2.4,6.2,6.5s-2.2,6.6-6.2,6.6h-3.4V374.4L367.6,374.4z M370.7,386.2c3.1,0,4.6-1.9,4.6-5.3
				s-1.5-5.2-4.6-5.2h-1.5v10.5H370.7z"/>
			<path d="M379.5,374.7c0-0.7,0.5-1.1,1.1-1.1s1.1,0.4,1.1,1.1c0,0.6-0.5,1.1-1.1,1.1S379.5,375.3,379.5,374.7z M379.8,377.8h1.6
				v9.8h-1.6V377.8z"/>
			<path d="M383.3,377.8h1.7l1.8,5.6c0.3,1,0.6,2,0.9,2.9h0.1c0.3-0.9,0.6-1.9,0.9-2.9l1.9-5.6h1.6l-3.5,9.8h-1.9L383.3,377.8z"/>
			<path d="M393.8,374.7c0-0.7,0.5-1.1,1.1-1.1s1.1,0.4,1.1,1.1c0,0.6-0.5,1.1-1.1,1.1S393.8,375.3,393.8,374.7z M394.1,377.8h1.6
				v9.8h-1.6V377.8z"/>
			<path d="M398,386.5l0.8-1.1c0.9,0.7,1.7,1.1,2.9,1.1c1.3,0,1.9-0.7,1.9-1.5c0-1-1.1-1.4-2.2-1.9c-1.4-0.5-2.9-1.2-2.9-2.8
				c0-1.5,1.2-2.8,3.4-2.8c1.2,0,2.3,0.5,3,1.1l-0.8,1.1c-0.7-0.5-1.4-0.9-2.2-0.9c-1.2,0-1.8,0.6-1.8,1.4c0,0.9,1.1,1.3,2.2,1.7
				c1.4,0.5,3,1.1,3,3c0,1.6-1.3,2.9-3.6,2.9C400.2,387.8,398.9,387.2,398,386.5L398,386.5z"/>
			<path d="M407.2,374.7c0-0.7,0.5-1.1,1.1-1.1s1.1,0.4,1.1,1.1c0,0.6-0.5,1.1-1.1,1.1S407.2,375.3,407.2,374.7z M407.5,377.8h1.6
				v9.8h-1.6V377.8z"/>
			<path d="M411.7,382.7c0-3.3,2.1-5.1,4.5-5.1s4.5,1.9,4.5,5.1s-2.1,5.1-4.5,5.1S411.7,385.9,411.7,382.7z M419.1,382.7
				c0-2.2-1.1-3.8-2.8-3.8s-2.8,1.5-2.8,3.8s1.1,3.8,2.8,3.8S419.1,384.9,419.1,382.7z"/>
			<path d="M423.3,377.8h1.4l0.1,1.4h0c0.9-0.9,1.9-1.7,3.3-1.7c2,0,3,1.3,3,3.8v6.2h-1.6v-6c0-1.8-0.6-2.6-1.9-2.6
				c-1,0-1.7,0.5-2.7,1.5v7.1h-1.6L423.3,377.8L423.3,377.8z"/>
			<path class="st2" d="M172.4,404.6l10.6,6.8v0.1l-10.6,6.8h0L172.4,404.6L172.4,404.6L172.4,404.6z"/>
			<path d="M200.5,417.6l-3.2-5.6h-2.4v5.6h-1.7v-13.2h4.1c2.7,0,4.6,1,4.6,3.7c0,2-1.2,3.3-3,3.7l3.4,5.8L200.5,417.6L200.5,417.6z
				 M194.9,410.6h2.2c2.1,0,3.2-0.8,3.2-2.5s-1.1-2.4-3.2-2.4h-2.2V410.6z"/>
			<path d="M203.6,412.7c0-3.2,2.1-5.1,4.4-5.1c2.5,0,3.9,1.8,3.9,4.6c0,0.4,0,0.7-0.1,0.9h-6.6c0.1,2.1,1.4,3.4,3.2,3.4
				c0.9,0,1.7-0.3,2.4-0.8l0.6,1.1c-0.9,0.6-1.9,1-3.2,1C205.7,417.8,203.6,415.9,203.6,412.7L203.6,412.7z M210.5,411.9
				c0-2-0.9-3-2.4-3c-1.4,0-2.6,1.1-2.8,3H210.5L210.5,411.9z"/>
			<path d="M213.4,419.4c0-0.8,0.5-1.6,1.5-2.2v-0.1c-0.5-0.3-0.9-0.8-0.9-1.6s0.6-1.5,1.1-1.8v-0.1c-0.6-0.5-1.3-1.5-1.3-2.6
				c0-2.1,1.7-3.5,3.7-3.5c0.5,0,1,0.1,1.4,0.2h3.4v1.3h-2c0.5,0.5,0.8,1.2,0.8,2c0,2.1-1.6,3.4-3.6,3.4c-0.5,0-1-0.1-1.5-0.3
				c-0.4,0.3-0.6,0.6-0.6,1.2c0,0.6,0.4,1.1,1.7,1.1h1.9c2.3,0,3.4,0.7,3.4,2.3c0,1.8-1.9,3.4-4.9,3.4
				C215,422.1,213.4,421.1,213.4,419.4L213.4,419.4z M220.8,418.9c0-0.9-0.7-1.2-2-1.2h-1.7c-0.4,0-0.8,0-1.3-0.2
				c-0.7,0.5-1,1.1-1,1.7c0,1,1.1,1.7,2.8,1.7C219.5,421,220.8,420,220.8,418.9L220.8,418.9z M219.5,411c0-1.4-0.9-2.3-2.1-2.3
				s-2.1,0.9-2.1,2.3s0.9,2.3,2.1,2.3S219.5,412.5,219.5,411z"/>
			<path d="M224.1,414v-6.2h1.6v6c0,1.8,0.5,2.6,1.8,2.6c1,0,1.7-0.5,2.6-1.7v-6.9h1.6v9.8h-1.4l-0.1-1.5h-0.1
				c-0.9,1.1-1.9,1.8-3.2,1.8C225.1,417.8,224.1,416.5,224.1,414L224.1,414z"/>
			<path d="M235.2,415.6v-12.4h1.6v12.5c0,0.5,0.2,0.7,0.5,0.7c0.1,0,0.2,0,0.3,0l0.2,1.3c-0.2,0.1-0.5,0.1-0.9,0.1
				C235.7,417.8,235.2,417,235.2,415.6L235.2,415.6z"/>
			<path d="M239.7,415c0-2.1,1.9-3.2,6-3.7c0-1.3-0.4-2.5-2-2.5c-1.1,0-2.2,0.5-2.9,1l-0.6-1.1c0.9-0.6,2.3-1.3,3.9-1.3
				c2.4,0,3.4,1.6,3.4,4v6H246l-0.1-1.2h-0.1c-0.9,0.8-2,1.4-3.2,1.4C240.9,417.8,239.7,416.8,239.7,415L239.7,415z M245.7,415.2
				v-2.7c-3.3,0.4-4.4,1.2-4.4,2.5c0,1.1,0.8,1.6,1.7,1.6S244.8,416,245.7,415.2L245.7,415.2z"/>
			<path d="M250.5,414.5v-5.4H249v-1.2l1.5-0.1l0.2-2.7h1.4v2.7h2.6v1.3h-2.6v5.5c0,1.2,0.4,1.9,1.5,1.9c0.3,0,0.8-0.1,1.1-0.2
				l0.3,1.2c-0.6,0.2-1.2,0.4-1.8,0.4C251.2,417.8,250.5,416.5,250.5,414.5L250.5,414.5z"/>
			<path d="M256.7,404.7c0-0.7,0.5-1.1,1.1-1.1s1.1,0.4,1.1,1.1c0,0.6-0.5,1.1-1.1,1.1S256.7,405.3,256.7,404.7z M257,407.8h1.6v9.8
				H257V407.8z"/>
			<path d="M261.2,412.7c0-3.3,2.1-5.1,4.5-5.1s4.5,1.9,4.5,5.1s-2.1,5.1-4.5,5.1S261.2,415.9,261.2,412.7z M268.6,412.7
				c0-2.2-1.1-3.8-2.8-3.8s-2.8,1.5-2.8,3.8s1.1,3.8,2.8,3.8S268.6,414.9,268.6,412.7z"/>
			<path d="M272.8,407.8h1.4l0.1,1.4h0c0.9-0.9,1.9-1.7,3.3-1.7c2,0,3,1.3,3,3.8v6.2H279v-6c0-1.8-0.6-2.6-1.9-2.6
				c-1,0-1.7,0.5-2.7,1.5v7.1h-1.6L272.8,407.8L272.8,407.8z"/>
			<path d="M287.3,415c0-2.1,1.9-3.2,6-3.7c0-1.3-0.4-2.5-2-2.5c-1.1,0-2.2,0.5-2.9,1l-0.6-1.1c0.9-0.6,2.3-1.3,3.9-1.3
				c2.4,0,3.4,1.6,3.4,4v6h-1.4l-0.1-1.2h0c-0.9,0.8-2,1.4-3.2,1.4C288.5,417.8,287.3,416.8,287.3,415L287.3,415z M293.3,415.2v-2.7
				c-3.3,0.4-4.4,1.2-4.4,2.5c0,1.1,0.8,1.6,1.7,1.6S292.3,416,293.3,415.2L293.3,415.2z"/>
			<path d="M298,407.8h1.4l0.1,1.4h0c0.9-0.9,1.9-1.7,3.3-1.7c2,0,3,1.3,3,3.8v6.2h-1.6v-6c0-1.8-0.6-2.6-1.9-2.6
				c-1,0-1.7,0.5-2.7,1.5v7.1H298L298,407.8L298,407.8z"/>
			<path d="M308.3,412.7c0-3.2,2-5.1,4.2-5.1c1.1,0,1.9,0.4,2.8,1.1l-0.1-1.7v-3.8h1.6v14.3h-1.3l-0.2-1.1h0c-0.8,0.8-1.8,1.4-3,1.4
				C309.9,417.8,308.3,415.9,308.3,412.7L308.3,412.7z M315.2,415.1v-5.1c-0.8-0.7-1.6-1-2.4-1c-1.6,0-2.8,1.5-2.8,3.8
				c0,2.4,1,3.8,2.7,3.8C313.6,416.4,314.4,416,315.2,415.1L315.2,415.1z"/>
			<path d="M324.4,404.4h1.7v13.2h-1.7V404.4z"/>
			<path d="M329.5,407.8h1.4l0.1,1.4h0c0.9-0.9,1.9-1.7,3.3-1.7c2,0,3,1.3,3,3.8v6.2h-1.6v-6c0-1.8-0.6-2.6-1.9-2.6
				c-1,0-1.7,0.5-2.7,1.5v7.1h-1.6L329.5,407.8L329.5,407.8z"/>
			<path d="M340.8,414.5v-5.4h-1.5v-1.2l1.5-0.1l0.2-2.7h1.4v2.7h2.6v1.3h-2.6v5.5c0,1.2,0.4,1.9,1.5,1.9c0.3,0,0.8-0.1,1.1-0.2
				l0.3,1.2c-0.6,0.2-1.2,0.4-1.8,0.4C341.5,417.8,340.8,416.5,340.8,414.5L340.8,414.5z"/>
			<path d="M346.3,412.7c0-3.2,2.1-5.1,4.4-5.1c2.5,0,3.9,1.8,3.9,4.6c0,0.4,0,0.7-0.1,0.9h-6.6c0.1,2.1,1.4,3.4,3.2,3.4
				c1,0,1.7-0.3,2.5-0.8l0.6,1.1c-0.9,0.6-1.9,1-3.2,1C348.4,417.8,346.3,415.9,346.3,412.7L346.3,412.7z M353.1,411.9
				c0-2-0.9-3-2.4-3c-1.4,0-2.6,1.1-2.8,3H353.1z"/>
			<path d="M357,407.8h1.4l0.1,1.8h0c0.7-1.2,1.7-2,2.8-2c0.4,0,0.7,0,1,0.2l-0.3,1.4c-0.3-0.1-0.6-0.2-1-0.2
				c-0.8,0-1.8,0.6-2.5,2.2v6.3H357L357,407.8L357,407.8z"/>
			<path d="M364,407.8h1.4l0.1,1.4h0c0.9-0.9,1.9-1.7,3.3-1.7c2,0,3,1.3,3,3.8v6.2h-1.6v-6c0-1.8-0.6-2.6-1.9-2.6
				c-1,0-1.7,0.5-2.7,1.5v7.1H364L364,407.8L364,407.8z"/>
			<path d="M374.4,415c0-2.1,1.9-3.2,6-3.7c0-1.3-0.4-2.5-2-2.5c-1.1,0-2.2,0.5-2.9,1l-0.6-1.1c0.9-0.6,2.3-1.3,3.9-1.3
				c2.4,0,3.4,1.6,3.4,4v6h-1.4l-0.1-1.2h0c-0.9,0.8-2,1.4-3.2,1.4C375.6,417.8,374.4,416.8,374.4,415L374.4,415z M380.4,415.2v-2.7
				c-3.3,0.4-4.4,1.2-4.4,2.5c0,1.1,0.8,1.6,1.7,1.6S379.4,416,380.4,415.2L380.4,415.2z"/>
			<path d="M385.1,414.5v-5.4h-1.5v-1.2l1.5-0.1l0.2-2.7h1.4v2.7h2.6v1.3h-2.6v5.5c0,1.2,0.4,1.9,1.5,1.9c0.3,0,0.8-0.1,1.1-0.2
				l0.3,1.2c-0.6,0.2-1.2,0.4-1.8,0.4C385.8,417.8,385.1,416.5,385.1,414.5L385.1,414.5z"/>
			<path d="M391.3,404.7c0-0.7,0.5-1.1,1.1-1.1s1.1,0.4,1.1,1.1c0,0.6-0.5,1.1-1.1,1.1S391.3,405.3,391.3,404.7z M391.6,407.8h1.6
				v9.8h-1.6V407.8z"/>
			<path d="M395.8,412.7c0-3.3,2.1-5.1,4.5-5.1s4.5,1.9,4.5,5.1s-2.1,5.1-4.5,5.1S395.8,415.9,395.8,412.7z M403.2,412.7
				c0-2.2-1.1-3.8-2.8-3.8s-2.8,1.5-2.8,3.8s1.1,3.8,2.8,3.8S403.2,414.9,403.2,412.7z"/>
			<path d="M407.5,407.8h1.4l0.1,1.4h0c0.9-0.9,1.9-1.7,3.3-1.7c2,0,3,1.3,3,3.8v6.2h-1.6v-6c0-1.8-0.6-2.6-1.9-2.6
				c-1,0-1.7,0.5-2.7,1.5v7.1h-1.6L407.5,407.8L407.5,407.8z"/>
			<path d="M417.9,415c0-2.1,1.9-3.2,6-3.7c0-1.3-0.4-2.5-2-2.5c-1.1,0-2.2,0.5-2.9,1l-0.6-1.1c0.9-0.6,2.3-1.3,3.9-1.3
				c2.4,0,3.4,1.6,3.4,4v6h-1.4l-0.1-1.2h0c-0.9,0.8-2,1.4-3.2,1.4C419.1,417.8,417.9,416.8,417.9,415L417.9,415z M423.9,415.2v-2.7
				c-3.3,0.4-4.4,1.2-4.4,2.5c0,1.1,0.8,1.6,1.7,1.6S422.9,416,423.9,415.2L423.9,415.2z"/>
			<path d="M428.6,415.6v-12.4h1.6v12.5c0,0.5,0.2,0.7,0.5,0.7c0.1,0,0.2,0,0.3,0l0.2,1.3c-0.2,0.1-0.5,0.1-1,0.1
				C429.2,417.8,428.6,417,428.6,415.6L428.6,415.6z"/>
			<path d="M193.6,431c0-4.3,2.5-6.9,5.9-6.9c1.6,0,2.9,0.8,3.6,1.6l-0.9,1.1c-0.7-0.7-1.6-1.3-2.7-1.3c-2.5,0-4.2,2-4.2,5.4
				s1.6,5.4,4.1,5.4c1.3,0,2.2-0.6,3.1-1.5l0.9,1c-1,1.2-2.3,1.9-4.1,1.9C196.1,437.8,193.6,435.3,193.6,431L193.6,431z"/>
			<path d="M205,432.7c0-3.3,2.1-5.1,4.5-5.1s4.5,1.9,4.5,5.1s-2.1,5.1-4.5,5.1S205,435.9,205,432.7z M212.4,432.7
				c0-2.2-1.1-3.8-2.8-3.8s-2.8,1.5-2.8,3.8s1.1,3.8,2.8,3.8S212.4,434.9,212.4,432.7z"/>
			<path d="M215.9,432.7c0-3.3,2.1-5.1,4.5-5.1s4.5,1.9,4.5,5.1s-2.1,5.1-4.5,5.1S215.9,435.9,215.9,432.7z M223.3,432.7
				c0-2.2-1.1-3.8-2.8-3.8s-2.8,1.5-2.8,3.8s1.1,3.8,2.8,3.8S223.3,434.9,223.3,432.7z"/>
			<path d="M227.6,427.8h1.4l0.1,1.1h0.1c0.9-0.7,2-1.4,3.1-1.4c2.5,0,3.9,2,3.9,5c0,3.4-2,5.3-4.2,5.3c-0.9,0-1.8-0.4-2.7-1.1
				l0,1.7v3.3h-1.6V427.8L227.6,427.8z M234.4,432.5c0-2.2-0.7-3.6-2.6-3.6c-0.8,0-1.7,0.5-2.6,1.4v5.1c0.9,0.8,1.8,1,2.4,1
				C233.2,436.4,234.4,435,234.4,432.5L234.4,432.5z"/>
			<path d="M238,432.7c0-3.2,2.1-5.1,4.4-5.1c2.5,0,3.9,1.8,3.9,4.6c0,0.4,0,0.7-0.1,0.9h-6.6c0.1,2.1,1.4,3.4,3.2,3.4
				c0.9,0,1.7-0.3,2.4-0.8l0.6,1.1c-0.9,0.6-1.9,1-3.2,1C240.1,437.8,238,435.9,238,432.7L238,432.7z M244.8,431.9c0-2-0.9-3-2.4-3
				c-1.4,0-2.6,1.1-2.8,3H244.8L244.8,431.9z"/>
			<path d="M248.7,427.8h1.4l0.1,1.8h0.1c0.7-1.2,1.7-2,2.8-2c0.4,0,0.7,0,1,0.2l-0.3,1.4c-0.3-0.1-0.6-0.2-0.9-0.2
				c-0.8,0-1.8,0.6-2.5,2.2v6.3h-1.6L248.7,427.8L248.7,427.8z"/>
			<path d="M254.6,435c0-2.1,1.9-3.2,6-3.7c0-1.3-0.4-2.5-2-2.5c-1.1,0-2.2,0.5-2.9,1l-0.6-1.1c0.9-0.6,2.3-1.3,3.9-1.3
				c2.4,0,3.4,1.6,3.4,4v6h-1.4l-0.1-1.2h0c-0.9,0.8-2,1.4-3.2,1.4C255.8,437.8,254.6,436.8,254.6,435L254.6,435z M260.6,435.2v-2.7
				c-3.3,0.4-4.4,1.2-4.4,2.5c0,1.1,0.8,1.6,1.7,1.6S259.6,436,260.6,435.2L260.6,435.2z"/>
			<path d="M265.4,434.5v-5.4h-1.5v-1.2l1.5-0.1l0.2-2.7h1.4v2.7h2.6v1.3H267v5.5c0,1.2,0.4,1.9,1.5,1.9c0.3,0,0.8-0.1,1.1-0.2
				l0.3,1.2c-0.6,0.2-1.2,0.4-1.8,0.4C266.1,437.8,265.4,436.5,265.4,434.5L265.4,434.5z"/>
			<path d="M271.5,424.7c0-0.7,0.5-1.1,1.1-1.1s1.1,0.4,1.1,1.1c0,0.6-0.5,1.1-1.1,1.1S271.5,425.3,271.5,424.7z M271.9,427.8h1.6
				v9.8h-1.6V427.8z"/>
			<path d="M276.1,432.7c0-3.3,2.1-5.1,4.5-5.1s4.5,1.9,4.5,5.1s-2.1,5.1-4.5,5.1S276.1,435.9,276.1,432.7z M283.4,432.7
				c0-2.2-1.1-3.8-2.8-3.8s-2.8,1.5-2.8,3.8s1.1,3.8,2.8,3.8S283.4,434.9,283.4,432.7z"/>
			<path d="M287.7,427.8h1.4l0.1,1.4h0c0.9-0.9,1.9-1.7,3.3-1.7c2,0,3,1.3,3,3.8v6.2h-1.6v-6c0-1.8-0.6-2.6-1.9-2.6
				c-1,0-1.7,0.5-2.7,1.5v7.1h-1.6L287.7,427.8L287.7,427.8z"/>
			<path d="M302.9,424.4h3.3c4,0,6.2,2.4,6.2,6.5s-2.2,6.6-6.2,6.6h-3.4V424.4L302.9,424.4z M306.1,436.2c3.1,0,4.6-1.9,4.6-5.3
				s-1.5-5.2-4.6-5.2h-1.5v10.5H306.1z"/>
			<path d="M314.8,424.7c0-0.7,0.5-1.1,1.1-1.1s1.1,0.4,1.1,1.1c0,0.6-0.5,1.1-1.1,1.1S314.8,425.3,314.8,424.7z M315.1,427.8h1.6
				v9.8h-1.6V427.8z"/>
			<path d="M318.6,427.8h1.7l1.8,5.6c0.3,1,0.6,2,0.9,2.9h0.1c0.3-0.9,0.6-1.9,0.9-2.9l1.9-5.6h1.6l-3.5,9.8h-1.9L318.6,427.8z"/>
			<path d="M329.1,424.7c0-0.7,0.5-1.1,1.1-1.1s1.1,0.4,1.1,1.1c0,0.6-0.5,1.1-1.1,1.1S329.1,425.3,329.1,424.7z M329.4,427.8h1.6
				v9.8h-1.6V427.8z"/>
			<path d="M333.3,436.5l0.8-1.1c0.9,0.7,1.7,1.1,2.9,1.1c1.3,0,1.9-0.7,1.9-1.5c0-1-1.1-1.4-2.2-1.9c-1.4-0.5-2.9-1.2-2.9-2.8
				c0-1.5,1.2-2.8,3.4-2.8c1.2,0,2.3,0.5,3,1.1l-0.8,1.1c-0.7-0.5-1.4-0.9-2.2-0.9c-1.2,0-1.8,0.6-1.8,1.4c0,0.9,1.1,1.3,2.2,1.7
				c1.4,0.5,3,1.1,3,3c0,1.6-1.3,2.9-3.6,2.9C335.6,437.8,334.2,437.2,333.3,436.5L333.3,436.5z"/>
			<path d="M342.5,424.7c0-0.7,0.5-1.1,1.1-1.1s1.1,0.4,1.1,1.1c0,0.6-0.5,1.1-1.1,1.1S342.5,425.3,342.5,424.7z M342.8,427.8h1.6
				v9.8h-1.6V427.8z"/>
			<path d="M347,432.7c0-3.3,2.1-5.1,4.5-5.1s4.5,1.9,4.5,5.1s-2.1,5.1-4.5,5.1S347,435.9,347,432.7z M354.4,432.7
				c0-2.2-1.1-3.8-2.8-3.8s-2.8,1.5-2.8,3.8s1.1,3.8,2.8,3.8S354.4,434.9,354.4,432.7z"/>
			<path d="M358.7,427.8h1.4l0.1,1.4h0c0.9-0.9,1.9-1.7,3.3-1.7c2,0,3,1.3,3,3.8v6.2h-1.6v-6c0-1.8-0.6-2.6-1.9-2.6
				c-1,0-1.7,0.5-2.7,1.5v7.1h-1.6L358.7,427.8L358.7,427.8z"/>
		</g>
	</g>
	<g>
		<g>
			<path class="st2" d="M171.9,504.5l10.6,6.8v0.1l-10.6,6.8h0L171.9,504.5L171.9,504.5L171.9,504.5z"/>
			<path d="M191.8,515.7l1-1.1c0.9,1,2.3,1.6,3.6,1.6c1.7,0,2.8-0.9,2.8-2.2s-0.9-1.8-2.2-2.3l-1.9-0.8c-1.2-0.5-2.7-1.5-2.7-3.4
				c0-2,1.8-3.5,4.2-3.5c1.6,0,2.9,0.7,3.9,1.6l-0.9,1.1c-0.8-0.8-1.8-1.2-3-1.2c-1.5,0-2.5,0.8-2.5,1.9c0,1.3,1.1,1.8,2.2,2.2
				l1.9,0.8c1.5,0.7,2.7,1.6,2.7,3.5c0,2.1-1.7,3.8-4.5,3.8C194.6,517.6,193,516.9,191.8,515.7L191.8,515.7z"/>
			<path d="M202.6,512.5c0-3.2,2.1-5.1,4.4-5.1c2.5,0,3.9,1.8,3.9,4.6c0,0.4,0,0.7-0.1,0.9h-6.6c0.1,2.1,1.4,3.4,3.2,3.4
				c0.9,0,1.7-0.3,2.4-0.8l0.6,1.1c-0.9,0.6-1.9,1-3.2,1C204.7,517.6,202.6,515.8,202.6,512.5L202.6,512.5z M209.5,511.7
				c0-2-0.9-3-2.4-3c-1.4,0-2.6,1.1-2.8,3H209.5L209.5,511.7z"/>
			<path d="M212.6,512.5c0-3.3,2.2-5.1,4.7-5.1c1.3,0,2.2,0.5,2.9,1.1l-0.9,1.1c-0.6-0.5-1.2-0.9-2-0.9c-1.8,0-3.1,1.5-3.1,3.8
				s1.2,3.8,3,3.8c0.9,0,1.7-0.4,2.3-1l0.7,1.1c-0.9,0.8-2,1.2-3.1,1.2C214.6,517.6,212.6,515.8,212.6,512.5L212.6,512.5z"/>
			<path d="M222.5,507.6h1.4l0.1,1.8h0.1c0.7-1.2,1.7-2,2.8-2c0.4,0,0.7,0,1,0.2l-0.3,1.4c-0.3-0.1-0.6-0.2-0.9-0.2
				c-0.8,0-1.8,0.6-2.5,2.2v6.3h-1.6L222.5,507.6L222.5,507.6z"/>
			<path d="M228.6,512.5c0-3.2,2.1-5.1,4.4-5.1c2.5,0,3.9,1.8,3.9,4.6c0,0.4,0,0.7-0.1,0.9h-6.6c0.1,2.1,1.4,3.4,3.2,3.4
				c0.9,0,1.7-0.3,2.4-0.8l0.6,1.1c-0.9,0.6-1.9,1-3.2,1C230.7,517.6,228.6,515.8,228.6,512.5L228.6,512.5z M235.4,511.7
				c0-2-0.9-3-2.4-3c-1.4,0-2.6,1.1-2.8,3H235.4L235.4,511.7z"/>
			<path d="M239.4,514.4V509h-1.5v-1.2l1.5-0.1l0.2-2.7h1.4v2.7h2.6v1.3H241v5.5c0,1.2,0.4,1.9,1.5,1.9c0.3,0,0.8-0.1,1.1-0.2
				l0.3,1.2c-0.6,0.2-1.2,0.4-1.8,0.4C240.1,517.6,239.4,516.3,239.4,514.4L239.4,514.4z"/>
			<path d="M244.8,514.9c0-2.1,1.9-3.2,6-3.7c0-1.3-0.4-2.5-2-2.5c-1.1,0-2.2,0.5-2.9,1l-0.6-1.1c0.9-0.6,2.3-1.3,3.9-1.3
				c2.4,0,3.4,1.6,3.4,4v6h-1.4l-0.1-1.2h-0.1c-0.9,0.8-2,1.4-3.2,1.4C246,517.6,244.8,516.6,244.8,514.9L244.8,514.9z M250.8,515
				v-2.7c-3.3,0.4-4.4,1.2-4.4,2.5c0,1.1,0.8,1.6,1.7,1.6S249.9,515.9,250.8,515L250.8,515z"/>
			<path d="M255.6,507.6h1.3l0.1,1.8h0c0.7-1.2,1.7-2,2.8-2c0.4,0,0.7,0,1,0.2l-0.3,1.4c-0.3-0.1-0.6-0.2-1-0.2
				c-0.8,0-1.8,0.6-2.5,2.2v6.3h-1.6L255.6,507.6L255.6,507.6z"/>
			<path d="M262.3,504.5c0-0.7,0.5-1.1,1.1-1.1s1.1,0.4,1.1,1.1c0,0.6-0.5,1.1-1.1,1.1S262.3,505.1,262.3,504.5z M262.6,507.6h1.6
				v9.8h-1.6V507.6L262.6,507.6z"/>
			<path d="M266.9,514.9c0-2.1,1.9-3.2,6-3.7c0-1.3-0.4-2.5-2-2.5c-1.1,0-2.2,0.5-2.9,1l-0.6-1.1c0.9-0.6,2.3-1.3,3.9-1.3
				c2.4,0,3.4,1.6,3.4,4v6h-1.4l-0.1-1.2h0c-0.9,0.8-2,1.4-3.2,1.4C268.1,517.6,266.9,516.6,266.9,514.9L266.9,514.9z M272.9,515
				v-2.7c-3.3,0.4-4.4,1.2-4.4,2.5c0,1.1,0.8,1.6,1.7,1.6S272,515.9,272.9,515z"/>
			<path d="M277.7,514.4V509h-1.5v-1.2l1.5-0.1l0.2-2.7h1.4v2.7h2.6v1.3h-2.6v5.5c0,1.2,0.4,1.9,1.5,1.9c0.3,0,0.8-0.1,1.1-0.2
				l0.3,1.2c-0.6,0.2-1.2,0.4-1.8,0.4C278.4,517.6,277.7,516.3,277.7,514.4L277.7,514.4z"/>
			<path class="st2" d="M171.9,534.5l10.6,6.8v0.1l-10.6,6.8h0L171.9,534.5L171.9,534.5L171.9,534.5z"/>
			<path d="M192.8,534.2h3.8c3,0,4.9,1,4.9,3.9s-2,4.1-4.9,4.1h-2.2v5.2h-1.7V534.2z M196.4,540.8c2.3,0,3.4-0.8,3.4-2.7
				s-1.2-2.5-3.5-2.5h-1.9v5.3H196.4z"/>
			<path d="M202.8,542.5c0-3.2,2.1-5.2,4.4-5.2c2.5,0,3.9,1.8,3.9,4.6c0,0.4,0,0.7-0.1,0.9h-6.6c0.1,2.1,1.4,3.4,3.2,3.4
				c0.9,0,1.7-0.3,2.4-0.8l0.6,1.1c-0.9,0.6-1.9,1-3.2,1C204.9,547.6,202.8,545.8,202.8,542.5L202.8,542.5z M209.6,541.7
				c0-2-0.9-3-2.4-3c-1.4,0-2.6,1.1-2.8,3H209.6L209.6,541.7z"/>
			<path d="M213.5,537.6h1.4l0.1,1.8h0.1c0.7-1.2,1.7-2,2.8-2c0.4,0,0.7,0,1,0.2l-0.3,1.4c-0.3-0.1-0.6-0.2-0.9-0.2
				c-0.8,0-1.8,0.6-2.5,2.2v6.3h-1.6L213.5,537.6L213.5,537.6z"/>
			<path d="M219.3,546.3l0.8-1.1c0.9,0.7,1.7,1.2,2.9,1.2c1.3,0,1.9-0.7,1.9-1.5c0-1-1.1-1.4-2.2-1.8c-1.4-0.5-2.9-1.2-2.9-2.8
				c0-1.5,1.2-2.8,3.4-2.8c1.2,0,2.3,0.5,3,1.1l-0.8,1.1c-0.7-0.5-1.4-0.9-2.2-0.9c-1.2,0-1.8,0.7-1.8,1.4c0,0.9,1.1,1.3,2.2,1.7
				c1.4,0.5,3,1.1,3,3c0,1.6-1.3,2.9-3.6,2.9C221.6,547.6,220.3,547,219.3,546.3L219.3,546.3z"/>
			<path d="M228.1,542.5c0-3.3,2.1-5.2,4.5-5.2s4.5,1.9,4.5,5.2s-2.1,5.1-4.5,5.1S228.1,545.8,228.1,542.5z M235.5,542.5
				c0-2.2-1.1-3.8-2.8-3.8s-2.8,1.5-2.8,3.8s1.1,3.8,2.8,3.8S235.5,544.8,235.5,542.5z"/>
			<path d="M239.8,537.6h1.4l0.1,1.4h0.1c0.9-0.9,1.9-1.7,3.3-1.7c2.1,0,3,1.3,3,3.8v6.2h-1.6v-6c0-1.8-0.6-2.6-1.9-2.6
				c-1,0-1.7,0.5-2.7,1.5v7.1h-1.6L239.8,537.6L239.8,537.6z"/>
			<path d="M250.7,537.6h1.4l0.1,1.4h0.1c0.9-0.9,1.9-1.7,3.3-1.7c2.1,0,3,1.3,3,3.8v6.2h-1.6v-6c0-1.8-0.6-2.6-1.9-2.6
				c-1,0-1.7,0.5-2.7,1.5v7.1h-1.6V537.6L250.7,537.6z"/>
			<path d="M261,542.5c0-3.2,2.1-5.2,4.4-5.2c2.5,0,3.9,1.8,3.9,4.6c0,0.4,0,0.7-0.1,0.9h-6.6c0.1,2.1,1.4,3.4,3.2,3.4
				c1,0,1.7-0.3,2.5-0.8l0.6,1.1c-0.9,0.6-1.9,1-3.2,1C263.1,547.6,261,545.8,261,542.5L261,542.5z M267.9,541.7c0-2-0.9-3-2.4-3
				c-1.4,0-2.6,1.1-2.8,3H267.9z"/>
			<path d="M271.7,545.5v-12.4h1.6v12.5c0,0.5,0.2,0.7,0.5,0.7c0.1,0,0.2,0,0.3,0l0.2,1.3c-0.2,0.1-0.5,0.1-1,0.1
				C272.2,547.6,271.7,546.8,271.7,545.5L271.7,545.5z"/>
			<path d="M280.3,540.8c0-4.2,2.3-6.8,5.6-6.8s5.6,2.6,5.6,6.8s-2.3,6.9-5.6,6.9S280.3,545,280.3,540.8z M289.8,540.8
				c0-3.3-1.6-5.3-3.9-5.3s-3.9,2-3.9,5.3s1.5,5.4,3.9,5.4S289.8,544.1,289.8,540.8z"/>
			<path d="M300.2,536.1c0-2,0.9-3.2,2.9-3.2c0.6,0,1.2,0.1,1.6,0.3l-0.4,1.2c-0.4-0.2-0.8-0.2-1.1-0.2c-0.9,0-1.4,0.7-1.4,1.9v1.5
				h2.1v1.3h-2.1v8.4h-1.6V539h-4.1v8.4h-1.6V539h-1.3v-1.2l1.3-0.1v-1.3c0-2,1-3.3,3-3.3c0.6,0,1.3,0.1,1.8,0.3l-0.3,1.3
				c-0.4-0.2-0.8-0.3-1.3-0.3c-1,0-1.5,0.7-1.5,2v1.3h4.1L300.2,536.1L300.2,536.1z M307.8,534.5c0,0.6-0.5,1.1-1.1,1.1
				s-1.1-0.5-1.1-1.1c0-0.7,0.5-1.1,1.1-1.1S307.8,533.9,307.8,534.5z M305.8,537.6h1.6v9.8h-1.6V537.6z"/>
			<path d="M310,542.5c0-3.3,2.2-5.2,4.7-5.2c1.3,0,2.2,0.5,2.9,1.2l-0.9,1.1c-0.6-0.5-1.2-0.9-2-0.9c-1.8,0-3.1,1.5-3.1,3.8
				s1.2,3.8,3,3.8c0.9,0,1.7-0.4,2.3-1l0.7,1.1c-0.9,0.8-2,1.2-3.1,1.2C312,547.6,310,545.8,310,542.5L310,542.5z"/>
			<path d="M318.8,542.5c0-3.2,2.1-5.2,4.4-5.2c2.5,0,3.9,1.8,3.9,4.6c0,0.4,0,0.7-0.1,0.9h-6.6c0.1,2.1,1.4,3.4,3.2,3.4
				c1,0,1.7-0.3,2.5-0.8l0.6,1.1c-0.9,0.6-1.9,1-3.2,1C320.8,547.6,318.8,545.8,318.8,542.5L318.8,542.5z M325.6,541.7
				c0-2-0.9-3-2.4-3c-1.4,0-2.6,1.1-2.8,3H325.6z"/>
			<path class="st2" d="M171.9,564.5l10.6,6.8v0.1l-10.6,6.8h0L171.9,564.5L171.9,564.5L171.9,564.5z"/>
			<path d="M198.8,573.4H194l-1.3,4H191l4.5-13.2h1.9l4.5,13.2h-1.8L198.8,573.4L198.8,573.4z M198.4,572l-0.6-2
				c-0.5-1.5-0.9-2.9-1.3-4.5h-0.1c-0.4,1.5-0.9,3-1.3,4.5l-0.6,2H198.4L198.4,572z"/>
			<path d="M202.8,572.5c0-3.3,2.2-5.2,4.7-5.2c1.3,0,2.2,0.5,2.9,1.2l-0.9,1.1c-0.6-0.5-1.2-0.9-2-0.9c-1.8,0-3.1,1.5-3.1,3.8
				s1.2,3.8,3,3.8c0.9,0,1.7-0.4,2.3-1l0.7,1.1c-0.9,0.8-2,1.2-3.1,1.2C204.8,577.6,202.8,575.8,202.8,572.5L202.8,572.5z"/>
			<path d="M211.6,572.5c0-3.3,2.2-5.2,4.7-5.2c1.3,0,2.2,0.5,2.9,1.2l-0.9,1.1c-0.6-0.5-1.2-0.9-2-0.9c-1.8,0-3.1,1.5-3.1,3.8
				s1.2,3.8,3,3.8c0.9,0,1.7-0.4,2.3-1l0.7,1.1c-0.9,0.8-2,1.2-3.1,1.2C213.6,577.6,211.6,575.8,211.6,572.5L211.6,572.5z"/>
			<path d="M220.3,572.5c0-3.3,2.1-5.2,4.5-5.2s4.5,1.9,4.5,5.2s-2.1,5.1-4.5,5.1S220.3,575.8,220.3,572.5z M227.7,572.5
				c0-2.2-1.1-3.8-2.8-3.8s-2.8,1.5-2.8,3.8s1.1,3.8,2.8,3.8S227.7,574.8,227.7,572.5z"/>
			<path d="M231.8,573.8v-6.2h1.6v6c0,1.8,0.5,2.6,1.8,2.6c1,0,1.7-0.5,2.6-1.7v-6.9h1.6v9.8h-1.4l-0.1-1.5H238
				c-0.9,1.1-1.9,1.8-3.2,1.8C232.7,577.6,231.8,576.3,231.8,573.8L231.8,573.8z"/>
			<path d="M242.9,567.6h1.4l0.1,1.4h0.1c0.9-0.9,1.9-1.7,3.3-1.7c2.1,0,3,1.3,3,3.8v6.2H249v-6c0-1.8-0.6-2.6-1.9-2.6
				c-1,0-1.7,0.5-2.7,1.5v7.1h-1.6L242.9,567.6L242.9,567.6z"/>
			<path d="M254.1,574.4V569h-1.5v-1.2l1.5-0.1l0.2-2.7h1.4v2.7h2.6v1.3h-2.6v5.5c0,1.2,0.4,1.9,1.5,1.9c0.3,0,0.8-0.1,1.1-0.2
				l0.3,1.2c-0.6,0.2-1.2,0.4-1.8,0.4C254.9,577.6,254.2,576.3,254.1,574.4L254.1,574.4z"/>
			<path d="M260.3,564.5c0-0.7,0.5-1.1,1.1-1.1s1.1,0.4,1.1,1.1c0,0.6-0.5,1.1-1.1,1.1S260.3,565.1,260.3,564.5z M260.6,567.6h1.6
				v9.8h-1.6V567.6z"/>
			<path d="M265.6,567.6h1.4l0.1,1.4h0c0.9-0.9,1.9-1.7,3.3-1.7c2,0,3,1.3,3,3.8v6.2h-1.6v-6c0-1.8-0.6-2.6-1.9-2.6
				c-1,0-1.7,0.5-2.7,1.5v7.1h-1.6L265.6,567.6L265.6,567.6z"/>
			<path d="M275.8,579.3c0-0.8,0.5-1.6,1.5-2.2V577c-0.5-0.3-0.9-0.8-0.9-1.6s0.6-1.5,1.1-1.8v-0.1c-0.6-0.5-1.3-1.5-1.3-2.6
				c0-2.1,1.7-3.5,3.7-3.5c0.5,0,1,0.1,1.4,0.2h3.4v1.3h-2c0.5,0.5,0.8,1.2,0.8,2c0,2.1-1.6,3.4-3.6,3.4c-0.5,0-1-0.1-1.5-0.3
				c-0.4,0.3-0.6,0.6-0.6,1.2c0,0.6,0.4,1.1,1.7,1.1h1.9c2.3,0,3.4,0.7,3.4,2.3c0,1.8-1.9,3.4-4.9,3.4
				C277.5,581.9,275.8,581,275.8,579.3L275.8,579.3z M283.2,578.8c0-0.9-0.7-1.2-2-1.2h-1.7c-0.4,0-0.8,0-1.3-0.2
				c-0.7,0.5-1,1.1-1,1.7c0,1,1.1,1.7,2.8,1.7C282,580.8,283.2,579.8,283.2,578.8L283.2,578.8z M281.9,570.9c0-1.4-0.9-2.3-2.1-2.3
				s-2.1,0.8-2.1,2.3s1,2.3,2.1,2.3S281.9,572.3,281.9,570.9z"/>
			<path d="M290.1,574.9c0-2.1,1.9-3.2,6-3.7c0-1.3-0.4-2.5-2-2.5c-1.1,0-2.2,0.5-2.9,1l-0.6-1.1c0.9-0.6,2.3-1.3,3.9-1.3
				c2.4,0,3.4,1.6,3.4,4v6h-1.4l-0.1-1.2h0c-0.9,0.8-2,1.4-3.2,1.4C291.4,577.6,290.1,576.6,290.1,574.9L290.1,574.9z M296.2,575
				v-2.7c-3.3,0.4-4.4,1.2-4.4,2.5c0,1.1,0.8,1.6,1.7,1.6S295.2,575.9,296.2,575z"/>
			<path d="M300.9,567.6h1.4l0.1,1.4h0c0.9-0.9,1.9-1.7,3.3-1.7c2,0,3,1.3,3,3.8v6.2h-1.6v-6c0-1.8-0.6-2.6-1.9-2.6
				c-1,0-1.7,0.5-2.7,1.5v7.1h-1.6L300.9,567.6L300.9,567.6z"/>
			<path d="M311.2,572.5c0-3.2,2-5.2,4.2-5.2c1.1,0,1.9,0.4,2.8,1.2l-0.1-1.7v-3.8h1.6v14.3h-1.3l-0.2-1.2h0c-0.8,0.8-1.8,1.4-3,1.4
				C312.8,577.6,311.2,575.8,311.2,572.5L311.2,572.5z M318.1,574.9v-5.1c-0.8-0.7-1.6-1-2.4-1c-1.6,0-2.8,1.5-2.8,3.8
				c0,2.4,1,3.8,2.7,3.8C316.5,576.3,317.3,575.8,318.1,574.9L318.1,574.9z"/>
			<path d="M326.3,575.7l1-1.1c1,1,2.3,1.6,3.6,1.6c1.7,0,2.8-0.9,2.8-2.2s-1-1.8-2.2-2.3l-1.9-0.8c-1.2-0.5-2.7-1.5-2.7-3.4
				c0-2,1.8-3.5,4.2-3.5c1.6,0,3,0.7,3.9,1.6l-0.9,1.1c-0.8-0.8-1.8-1.2-3-1.2c-1.5,0-2.5,0.8-2.5,1.9c0,1.3,1.1,1.8,2.2,2.2
				l1.9,0.8c1.5,0.7,2.7,1.6,2.7,3.5c0,2.1-1.7,3.8-4.5,3.8C329,577.6,327.4,576.9,326.3,575.7L326.3,575.7z"/>
			<path d="M337.6,574.4V569h-1.5v-1.2l1.5-0.1l0.2-2.7h1.4v2.7h2.6v1.3h-2.6v5.5c0,1.2,0.4,1.9,1.5,1.9c0.3,0,0.8-0.1,1.1-0.2
				l0.3,1.2c-0.6,0.2-1.2,0.4-1.8,0.4C338.4,577.6,337.7,576.3,337.6,574.4L337.6,574.4z"/>
			<path d="M343.1,574.9c0-2.1,1.9-3.2,6-3.7c0-1.3-0.4-2.5-2-2.5c-1.1,0-2.2,0.5-2.9,1l-0.6-1.1c0.9-0.6,2.3-1.3,3.9-1.3
				c2.4,0,3.4,1.6,3.4,4v6h-1.4l-0.1-1.2h0c-0.9,0.8-2,1.4-3.2,1.4C344.3,577.6,343.1,576.6,343.1,574.9L343.1,574.9z M349.1,575
				v-2.7c-3.3,0.4-4.4,1.2-4.4,2.5c0,1.1,0.8,1.6,1.7,1.6S348.2,575.9,349.1,575z"/>
			<path d="M353.9,574.4V569h-1.5v-1.2l1.5-0.1l0.2-2.7h1.4v2.7h2.6v1.3h-2.6v5.5c0,1.2,0.4,1.9,1.5,1.9c0.3,0,0.8-0.1,1.1-0.2
				l0.3,1.2c-0.6,0.2-1.2,0.4-1.8,0.4C354.6,577.6,353.9,576.3,353.9,574.4L353.9,574.4z"/>
			<path d="M360.1,564.5c0-0.7,0.5-1.1,1.1-1.1s1.1,0.4,1.1,1.1c0,0.6-0.5,1.1-1.1,1.1S360.1,565.1,360.1,564.5z M360.4,567.6h1.6
				v9.8h-1.6V567.6z"/>
			<path d="M364.2,576.3l0.8-1.1c0.9,0.7,1.7,1.2,2.9,1.2c1.3,0,1.9-0.7,1.9-1.5c0-1-1.1-1.4-2.2-1.8c-1.4-0.5-2.9-1.2-2.9-2.8
				c0-1.5,1.2-2.8,3.4-2.8c1.2,0,2.3,0.5,3,1.1l-0.8,1.1c-0.7-0.5-1.4-0.9-2.2-0.9c-1.2,0-1.8,0.7-1.8,1.4c0,0.9,1.1,1.3,2.2,1.7
				c1.4,0.5,3,1.1,3,3c0,1.6-1.3,2.9-3.6,2.9C366.5,577.6,365.2,577,364.2,576.3L364.2,576.3z"/>
			<path d="M373.6,574.4V569h-1.5v-1.2l1.5-0.1l0.2-2.7h1.4v2.7h2.6v1.3h-2.6v5.5c0,1.2,0.4,1.9,1.5,1.9c0.3,0,0.8-0.1,1.1-0.2
				l0.3,1.2c-0.6,0.2-1.2,0.4-1.8,0.4C374.4,577.6,373.7,576.3,373.6,574.4L373.6,574.4z"/>
			<path d="M379.8,564.5c0-0.7,0.5-1.1,1.1-1.1s1.1,0.4,1.1,1.1c0,0.6-0.5,1.1-1.1,1.1S379.8,565.1,379.8,564.5z M380.1,567.6h1.6
				v9.8h-1.6V567.6z"/>
			<path d="M384.4,572.5c0-3.3,2.2-5.2,4.7-5.2c1.3,0,2.2,0.5,2.9,1.2l-0.9,1.1c-0.6-0.5-1.2-0.9-2-0.9c-1.8,0-3.1,1.5-3.1,3.8
				s1.2,3.8,3,3.8c0.9,0,1.7-0.4,2.3-1l0.7,1.1c-0.9,0.8-2,1.2-3.1,1.2C386.3,577.6,384.3,575.8,384.4,572.5L384.4,572.5z"/>
			<path d="M393.2,576.3l0.8-1.1c0.9,0.7,1.7,1.2,2.9,1.2c1.3,0,1.9-0.7,1.9-1.5c0-1-1.1-1.4-2.2-1.8c-1.4-0.5-2.9-1.2-2.9-2.8
				c0-1.5,1.2-2.8,3.4-2.8c1.2,0,2.3,0.5,3,1.1l-0.8,1.1c-0.7-0.5-1.4-0.9-2.2-0.9c-1.2,0-1.8,0.7-1.8,1.4c0,0.9,1.1,1.3,2.2,1.7
				c1.4,0.5,3,1.1,3,3c0,1.6-1.3,2.9-3.6,2.9C395.4,577.6,394.1,577,393.2,576.3L393.2,576.3z"/>
			<path d="M406.1,570.8c0-4.2,2.3-6.8,5.6-6.8s5.6,2.6,5.6,6.8s-2.3,6.9-5.6,6.9S406.1,575,406.1,570.8z M415.7,570.8
				c0-3.3-1.6-5.3-3.9-5.3s-3.9,2-3.9,5.3s1.5,5.4,3.9,5.4S415.7,574.1,415.7,570.8z"/>
			<path d="M426.1,566.1c0-2,0.9-3.2,2.9-3.2c0.6,0,1.2,0.1,1.6,0.3l-0.4,1.2c-0.4-0.2-0.8-0.2-1.1-0.2c-0.9,0-1.4,0.7-1.4,1.9v1.5
				h2.1v1.3h-2.1v8.4H426V569H422v8.4h-1.6V569H419v-1.2l1.3-0.1v-1.3c0-2,1-3.3,3-3.3c0.6,0,1.3,0.1,1.8,0.3l-0.3,1.3
				c-0.4-0.2-0.8-0.3-1.3-0.3c-1,0-1.5,0.7-1.5,2v1.3h4.1L426.1,566.1L426.1,566.1z M433.6,564.5c0,0.6-0.5,1.1-1.1,1.1
				s-1.1-0.5-1.1-1.1c0-0.7,0.5-1.1,1.1-1.1S433.6,563.9,433.6,564.5z M431.7,567.6h1.6v9.8h-1.6V567.6z"/>
			<path d="M435.9,572.5c0-3.3,2.2-5.2,4.7-5.2c1.3,0,2.2,0.5,2.9,1.2l-0.9,1.1c-0.6-0.5-1.2-0.9-2-0.9c-1.8,0-3.1,1.5-3.1,3.8
				s1.2,3.8,3,3.8c0.9,0,1.7-0.4,2.3-1l0.7,1.1c-0.9,0.8-2,1.2-3.1,1.2C437.8,577.6,435.8,575.8,435.9,572.5L435.9,572.5z"/>
			<path d="M444.6,572.5c0-3.2,2.1-5.2,4.4-5.2c2.5,0,3.9,1.8,3.9,4.6c0,0.4,0,0.7-0.1,0.9h-6.6c0.1,2.1,1.4,3.4,3.2,3.4
				c1,0,1.7-0.3,2.5-0.8l0.6,1.1c-0.9,0.6-1.9,1-3.2,1C446.7,577.6,444.6,575.8,444.6,572.5L444.6,572.5z M451.4,571.7
				c0-2-0.9-3-2.4-3c-1.4,0-2.6,1.1-2.8,3H451.4z"/>
			<path class="st2" d="M171.9,594.5l10.6,6.8v0.1l-10.6,6.8h0L171.9,594.5L171.9,594.5L171.9,594.5z"/>
			<path d="M192,600.8c0-4.3,2.5-6.9,5.9-6.9c1.6,0,2.9,0.8,3.6,1.6l-0.9,1.1c-0.7-0.7-1.6-1.3-2.7-1.3c-2.5,0-4.2,2-4.2,5.3
				s1.6,5.4,4.1,5.4c1.3,0,2.2-0.6,3.1-1.5l0.9,1c-1,1.2-2.3,1.9-4.1,1.9C194.5,607.6,192,605.1,192,600.8L192,600.8z"/>
			<path d="M203.8,594.5c0-0.7,0.5-1.1,1.1-1.1s1.1,0.4,1.1,1.1c0,0.6-0.5,1.1-1.1,1.1S203.8,595.1,203.8,594.5z M204.1,597.6h1.6
				v9.8h-1.6V597.6z"/>
			<path d="M207.6,597.6h1.7l1.8,5.6c0.3,1,0.6,2,0.9,2.9h0.1c0.3-0.9,0.6-1.9,0.9-2.9l1.9-5.6h1.6l-3.5,9.8h-1.9L207.6,597.6z"/>
			<path d="M218.1,594.5c0-0.7,0.5-1.1,1.1-1.1s1.1,0.4,1.1,1.1c0,0.6-0.5,1.1-1.1,1.1S218.1,595.1,218.1,594.5z M218.5,597.6h1.6
				v9.8h-1.6V597.6z"/>
			<path d="M223.4,605.5v-12.4h1.6v12.5c0,0.5,0.2,0.7,0.5,0.7c0.1,0,0.2,0,0.3,0l0.2,1.3c-0.2,0.1-0.5,0.1-0.9,0.1
				C223.9,607.6,223.4,606.8,223.4,605.5L223.4,605.5z"/>
			<path d="M231.8,605.7l1-1.1c0.9,1,2.3,1.6,3.6,1.6c1.7,0,2.8-0.9,2.8-2.2s-0.9-1.8-2.2-2.3l-1.9-0.8c-1.2-0.5-2.7-1.5-2.7-3.4
				c0-2,1.8-3.5,4.2-3.5c1.6,0,2.9,0.7,3.9,1.6l-0.9,1.1c-0.8-0.8-1.8-1.2-3-1.2c-1.5,0-2.5,0.8-2.5,1.9c0,1.3,1.1,1.8,2.2,2.2
				l1.9,0.8c1.5,0.7,2.7,1.6,2.7,3.5c0,2.1-1.7,3.8-4.5,3.8C234.5,607.6,232.9,606.9,231.8,605.7L231.8,605.7z"/>
			<path d="M242.6,602.5c0-3.2,2.1-5.2,4.4-5.2c2.5,0,3.9,1.8,3.9,4.6c0,0.4,0,0.7-0.1,0.9h-6.6c0.1,2.1,1.4,3.4,3.2,3.4
				c0.9,0,1.7-0.3,2.4-0.8l0.6,1.1c-0.9,0.6-1.9,1-3.2,1C244.7,607.6,242.6,605.8,242.6,602.5L242.6,602.5z M249.4,601.7
				c0-2-0.9-3-2.4-3c-1.4,0-2.6,1.1-2.8,3H249.4L249.4,601.7z"/>
			<path d="M253.3,597.6h1.4l0.1,1.8h0.1c0.7-1.2,1.7-2,2.8-2c0.4,0,0.7,0,1,0.2l-0.3,1.4c-0.3-0.1-0.6-0.2-1-0.2
				c-0.8,0-1.8,0.6-2.5,2.2v6.3h-1.6L253.3,597.6L253.3,597.6z"/>
			<path d="M259.4,597.6h1.7l1.8,5.6c0.3,1,0.6,2,0.9,2.9h0.1c0.3-0.9,0.6-1.9,0.9-2.9l1.9-5.6h1.6l-3.5,9.8h-1.9L259.4,597.6z"/>
			<path d="M269.9,594.5c0-0.7,0.5-1.1,1.1-1.1s1.1,0.4,1.1,1.1c0,0.6-0.5,1.1-1.1,1.1S269.9,595.1,269.9,594.5z M270.2,597.6h1.6
				v9.8h-1.6V597.6z"/>
			<path d="M274.4,602.5c0-3.3,2.2-5.2,4.7-5.2c1.3,0,2.2,0.5,2.9,1.2l-0.9,1.1c-0.6-0.5-1.2-0.9-2-0.9c-1.8,0-3.1,1.5-3.1,3.8
				s1.2,3.8,3,3.8c0.9,0,1.7-0.4,2.3-1l0.7,1.1c-0.9,0.8-2,1.2-3.1,1.2C276.4,607.6,274.4,605.8,274.4,602.5L274.4,602.5z"/>
			<path d="M283.1,602.5c0-3.2,2.1-5.2,4.4-5.2c2.5,0,3.9,1.8,3.9,4.6c0,0.4,0,0.7-0.1,0.9h-6.6c0.1,2.1,1.4,3.4,3.2,3.4
				c1,0,1.7-0.3,2.5-0.8l0.6,1.1c-0.9,0.6-1.9,1-3.2,1C285.2,607.6,283.1,605.8,283.1,602.5L283.1,602.5z M290,601.7
				c0-2-0.9-3-2.4-3c-1.4,0-2.6,1.1-2.8,3H290z"/>
			<path d="M298,594.2h7.6v1.4h-5.9v4.1h5v1.4h-5v4.8h6.1v1.4H298L298,594.2L298,594.2z"/>
			<path d="M308.2,604.4V599h-1.5v-1.2l1.5-0.1l0.2-2.7h1.4v2.7h2.6v1.3h-2.6v5.5c0,1.2,0.4,1.9,1.5,1.9c0.3,0,0.8-0.1,1.1-0.2
				l0.3,1.2c-0.6,0.2-1.2,0.4-1.8,0.4C308.9,607.6,308.2,606.3,308.2,604.4L308.2,604.4z"/>
			<path d="M314.7,593.1h1.6v3.9l0,2c0.9-0.9,1.9-1.6,3.2-1.6c2,0,3,1.3,3,3.8v6.2h-1.6v-6c0-1.8-0.6-2.6-1.9-2.6
				c-1,0-1.7,0.5-2.7,1.5v7.1h-1.6L314.7,593.1L314.7,593.1z"/>
			<path d="M325.4,594.5c0-0.7,0.5-1.1,1.1-1.1s1.1,0.4,1.1,1.1c0,0.6-0.5,1.1-1.1,1.1S325.4,595.1,325.4,594.5z M325.7,597.6h1.6
				v9.8h-1.6V597.6z"/>
			<path d="M329.9,602.5c0-3.3,2.2-5.2,4.7-5.2c1.3,0,2.2,0.5,2.9,1.2l-0.9,1.1c-0.6-0.5-1.2-0.9-2-0.9c-1.8,0-3.1,1.5-3.1,3.8
				s1.2,3.8,3,3.8c0.9,0,1.7-0.4,2.3-1l0.7,1.1c-0.9,0.8-2,1.2-3.1,1.2C331.9,607.6,329.9,605.8,329.9,602.5L329.9,602.5z"/>
			<path d="M338.7,606.3l0.8-1.1c0.9,0.7,1.7,1.2,2.9,1.2c1.3,0,1.9-0.7,1.9-1.5c0-1-1.1-1.4-2.2-1.8c-1.4-0.5-2.9-1.2-2.9-2.8
				c0-1.5,1.2-2.8,3.4-2.8c1.2,0,2.3,0.5,3,1.1l-0.8,1.1c-0.7-0.5-1.4-0.9-2.2-0.9c-1.2,0-1.8,0.7-1.8,1.4c0,0.9,1.1,1.3,2.2,1.7
				c1.4,0.5,3,1.1,3,3c0,1.6-1.3,2.9-3.6,2.9C340.9,607.6,339.6,607,338.7,606.3L338.7,606.3z"/>
			<path d="M351.6,600.8c0-4.2,2.3-6.8,5.6-6.8s5.6,2.6,5.6,6.8s-2.3,6.9-5.6,6.9S351.6,605,351.6,600.8z M361.2,600.8
				c0-3.3-1.6-5.3-3.9-5.3s-3.9,2-3.9,5.3s1.5,5.4,3.9,5.4S361.2,604.1,361.2,600.8z"/>
			<path d="M371.6,596.1c0-2,0.9-3.2,2.9-3.2c0.6,0,1.2,0.1,1.6,0.3l-0.4,1.2c-0.4-0.2-0.8-0.2-1.1-0.2c-0.9,0-1.4,0.7-1.4,1.9v1.5
				h2.1v1.3h-2.1v8.4h-1.6V599h-4.1v8.4h-1.6V599h-1.3v-1.2l1.3-0.1v-1.3c0-2,1-3.3,3-3.3c0.6,0,1.3,0.1,1.8,0.3l-0.3,1.3
				c-0.4-0.2-0.8-0.3-1.3-0.3c-1,0-1.5,0.7-1.5,2v1.3h4.1L371.6,596.1L371.6,596.1z M379.1,594.5c0,0.6-0.5,1.1-1.1,1.1
				s-1.1-0.5-1.1-1.1c0-0.7,0.5-1.1,1.1-1.1S379.1,593.9,379.1,594.5z M377.2,597.6h1.6v9.8h-1.6V597.6z"/>
			<path d="M381.4,602.5c0-3.3,2.2-5.2,4.7-5.2c1.3,0,2.2,0.5,2.9,1.2l-0.9,1.1c-0.6-0.5-1.2-0.9-2-0.9c-1.8,0-3.1,1.5-3.1,3.8
				s1.2,3.8,3,3.8c0.9,0,1.7-0.4,2.3-1l0.7,1.1c-0.9,0.8-2,1.2-3.1,1.2C383.4,607.6,381.4,605.8,381.4,602.5L381.4,602.5z"/>
			<path d="M390.1,602.5c0-3.2,2.1-5.2,4.4-5.2c2.5,0,3.9,1.8,3.9,4.6c0,0.4,0,0.7-0.1,0.9h-6.6c0.1,2.1,1.4,3.4,3.2,3.4
				c1,0,1.7-0.3,2.5-0.8l0.6,1.1c-0.9,0.6-1.9,1-3.2,1C392.2,607.6,390.1,605.8,390.1,602.5L390.1,602.5z M397,601.7
				c0-2-0.9-3-2.4-3c-1.4,0-2.6,1.1-2.8,3H397z"/>
		</g>
		<g>
			<path class="st1" d="M523,466.6v21.7c0,2.8-2.2,5-5,5H158c-2.8,0-5-2.2-5-5v-21.7c0-2.8,2.2-5,5-5h360
				C520.8,461.6,523,463.8,523,466.6z"/>
			<g>
				<path class="st0" d="M267.4,481.8l1-1.1c1,1,2.3,1.6,3.6,1.6c1.7,0,2.8-0.9,2.8-2.2s-1-1.8-2.2-2.3l-1.9-0.8
					c-1.2-0.5-2.7-1.5-2.7-3.4c0-2,1.8-3.5,4.2-3.5c1.6,0,3,0.7,3.9,1.6l-0.9,1.1c-0.8-0.8-1.8-1.2-3-1.2c-1.5,0-2.5,0.8-2.5,1.9
					c0,1.3,1.1,1.8,2.2,2.2l1.9,0.8c1.5,0.7,2.7,1.6,2.7,3.5c0,2.1-1.7,3.8-4.5,3.8C270.1,483.8,268.5,483,267.4,481.8L267.4,481.8z
					"/>
				<path class="st0" d="M278.8,480v-6.2h1.6v6c0,1.8,0.5,2.6,1.8,2.6c1,0,1.7-0.5,2.6-1.7v-6.9h1.6v9.8h-1.4l-0.1-1.5h0
					c-0.9,1.1-1.9,1.8-3.2,1.8C279.8,483.8,278.8,482.4,278.8,480L278.8,480z"/>
				<path class="st0" d="M289.9,473.8h1.4l0.1,1.1h0c0.9-0.7,2-1.4,3.1-1.4c2.5,0,3.9,2,3.9,5c0,3.4-2,5.3-4.2,5.3
					c-0.9,0-1.8-0.4-2.7-1.1l0,1.7v3.3h-1.6V473.8L289.9,473.8z M296.7,478.5c0-2.2-0.7-3.6-2.6-3.6c-0.8,0-1.7,0.5-2.6,1.4v5.1
					c0.9,0.8,1.8,1,2.4,1C295.5,482.4,296.7,480.9,296.7,478.5z"/>
				<path class="st0" d="M301,473.8h1.4l0.1,1.1h0c0.9-0.7,2-1.4,3.1-1.4c2.5,0,3.9,2,3.9,5c0,3.4-2,5.3-4.2,5.3
					c-0.9,0-1.8-0.4-2.7-1.1l0,1.7v3.3H301V473.8L301,473.8z M307.9,478.5c0-2.2-0.7-3.6-2.6-3.6c-0.8,0-1.7,0.5-2.6,1.4v5.1
					c0.9,0.8,1.8,1,2.4,1C306.7,482.4,307.9,480.9,307.9,478.5z"/>
				<path class="st0" d="M311.5,478.6c0-3.3,2.1-5.1,4.5-5.1s4.5,1.9,4.5,5.1s-2.1,5.1-4.5,5.1S311.5,481.9,311.5,478.6z
					 M318.8,478.6c0-2.2-1.1-3.8-2.8-3.8s-2.8,1.5-2.8,3.8s1.1,3.8,2.8,3.8S318.8,480.9,318.8,478.6z"/>
				<path class="st0" d="M323.1,473.8h1.4l0.1,1.8h0c0.7-1.2,1.7-2,2.8-2c0.4,0,0.7,0,1,0.2l-0.3,1.4c-0.3-0.1-0.6-0.2-1-0.2
					c-0.8,0-1.8,0.6-2.5,2.2v6.3h-1.6L323.1,473.8L323.1,473.8z"/>
				<path class="st0" d="M330.4,480.5v-5.4h-1.5v-1.2l1.5-0.1l0.2-2.7h1.4v2.7h2.6v1.3H332v5.5c0,1.2,0.4,1.9,1.5,1.9
					c0.3,0,0.8-0.1,1.1-0.2l0.3,1.2c-0.6,0.2-1.2,0.4-1.8,0.4C331.1,483.8,330.4,482.5,330.4,480.5L330.4,480.5z"/>
				<path class="st0" d="M336.6,470.7c0-0.7,0.5-1.1,1.1-1.1s1.1,0.4,1.1,1.1c0,0.6-0.5,1.1-1.1,1.1S336.6,471.3,336.6,470.7z
					 M336.9,473.8h1.6v9.8h-1.6V473.8z"/>
				<path class="st0" d="M341.8,473.8h1.4l0.1,1.4h0c0.9-0.9,1.9-1.7,3.3-1.7c2,0,3,1.3,3,3.8v6.2H348v-6c0-1.8-0.6-2.6-1.9-2.6
					c-1,0-1.7,0.5-2.7,1.5v7.1h-1.6L341.8,473.8L341.8,473.8z"/>
				<path class="st0" d="M352.1,485.4c0-0.8,0.5-1.6,1.5-2.2v-0.1c-0.5-0.3-0.9-0.8-0.9-1.6s0.6-1.5,1.1-1.8v-0.1
					c-0.6-0.5-1.3-1.5-1.3-2.6c0-2.1,1.7-3.5,3.7-3.5c0.5,0,1,0.1,1.4,0.2h3.4v1.3h-2c0.5,0.5,0.8,1.2,0.8,2c0,2.1-1.6,3.4-3.6,3.4
					c-0.5,0-1-0.1-1.5-0.3c-0.4,0.3-0.6,0.6-0.6,1.2c0,0.6,0.4,1.1,1.7,1.1h1.9c2.3,0,3.4,0.7,3.4,2.3c0,1.8-1.9,3.4-4.9,3.4
					C353.7,488,352.1,487.1,352.1,485.4L352.1,485.4z M359.5,484.9c0-0.9-0.7-1.2-2-1.2h-1.7c-0.4,0-0.8,0-1.3-0.2
					c-0.7,0.5-1,1.1-1,1.7c0,1,1.1,1.7,2.8,1.7C358.2,486.9,359.5,485.9,359.5,484.9L359.5,484.9z M358.2,477c0-1.4-0.9-2.3-2.1-2.3
					s-2.1,0.9-2.1,2.3s1,2.3,2.1,2.3S358.2,478.4,358.2,477z"/>
				<path class="st0" d="M367.1,478.1v-7.7h1.7v7.8c0,3.2,1.4,4.2,3.1,4.2s3.1-1,3.1-4.2v-7.8h1.6v7.7c0,4.2-2,5.7-4.8,5.7
					S367.1,482.3,367.1,478.1L367.1,478.1z"/>
				<path class="st0" d="M380,473.8h1.4l0.1,1.4h0c0.9-0.9,1.9-1.7,3.3-1.7c2,0,3,1.3,3,3.8v6.2h-1.6v-6c0-1.8-0.6-2.6-1.9-2.6
					c-1,0-1.7,0.5-2.7,1.5v7.1H380L380,473.8L380,473.8z"/>
				<path class="st0" d="M390.6,470.7c0-0.7,0.5-1.1,1.1-1.1s1.1,0.4,1.1,1.1c0,0.6-0.5,1.1-1.1,1.1S390.6,471.3,390.6,470.7z
					 M391,473.8h1.6v9.8H391V473.8z"/>
				<path class="st0" d="M396.2,480.5v-5.4h-1.5v-1.2l1.5-0.1l0.2-2.7h1.4v2.7h2.6v1.3h-2.6v5.5c0,1.2,0.4,1.9,1.5,1.9
					c0.3,0,0.8-0.1,1.1-0.2l0.3,1.2c-0.6,0.2-1.2,0.4-1.8,0.4C396.9,483.8,396.2,482.5,396.2,480.5L396.2,480.5z"/>
				<path class="st0" d="M401.4,482.4l0.8-1.1c0.9,0.7,1.7,1.1,2.9,1.1c1.3,0,1.9-0.7,1.9-1.5c0-1-1.1-1.4-2.2-1.9
					c-1.4-0.5-2.9-1.2-2.9-2.8c0-1.5,1.2-2.8,3.4-2.8c1.2,0,2.3,0.5,3,1.1l-0.8,1.1c-0.7-0.5-1.4-0.9-2.2-0.9
					c-1.2,0-1.8,0.6-1.8,1.4c0,0.9,1.1,1.3,2.2,1.7c1.4,0.5,3,1.1,3,3c0,1.6-1.3,2.9-3.6,2.9C403.7,483.8,402.3,483.2,401.4,482.4
					L401.4,482.4z"/>
			</g>
		</g>
	</g>
</g>
<g>
	<line class="st3" x1="335.7" y1="42.1" x2="335.9" y2="222.4"/>
	<path class="st3" d="M155.2,112.5V90.8c0.1-4.3,4.3-7.8,9.3-7.8h346.9c5.2,0,9.3,3.6,9.3,8v21.4"/>
	<path class="st4" d="M411.2,197.5H264.8c-2.8,0-5-2.2-5-5v-22c0-2.8,2.2-5,5-5h146.4c2.8,0,5,2.2,5,5v22
		C416.2,195.3,414,197.5,411.2,197.5z"/>
	<g>
		<path class="st0" d="M275.1,181.8c0-4.3,2.5-6.9,5.9-6.9c1.6,0,2.9,0.8,3.6,1.6l-0.9,1.1c-0.7-0.7-1.6-1.3-2.7-1.3
			c-2.5,0-4.2,2.1-4.2,5.4s1.6,5.4,4.1,5.4c1.3,0,2.2-0.6,3.1-1.5l0.9,1c-1,1.2-2.3,1.9-4,1.9C277.6,188.6,275.1,186,275.1,181.8
			L275.1,181.8z"/>
		<path class="st0" d="M287.2,174h1.6v3.9l0,2c0.9-0.9,1.9-1.6,3.2-1.6c2,0,3,1.3,3,3.8v6.2h-1.6v-6c0-1.8-0.6-2.6-1.9-2.6
			c-1,0-1.7,0.5-2.7,1.5v7.1h-1.6L287.2,174L287.2,174z"/>
		<path class="st0" d="M297.8,175.5c0-0.7,0.5-1.1,1.1-1.1s1.1,0.4,1.1,1.1c0,0.6-0.5,1.1-1.1,1.1S297.8,176.1,297.8,175.5z
			 M298.1,178.6h1.6v9.8h-1.6V178.6z"/>
		<path class="st0" d="M302.4,183.5c0-3.2,2.1-5.1,4.4-5.1c2.5,0,3.9,1.8,3.9,4.6c0,0.4,0,0.7-0.1,0.9H304c0.1,2.1,1.4,3.4,3.2,3.4
			c1,0,1.7-0.3,2.5-0.8l0.6,1.1c-0.9,0.6-1.9,1-3.2,1C304.4,188.6,302.4,186.7,302.4,183.5L302.4,183.5z M309.2,182.7
			c0-2-0.9-3-2.4-3c-1.4,0-2.6,1.1-2.8,3H309.2z"/>
		<path class="st0" d="M317.5,175.3c-0.4-0.2-0.8-0.2-1.1-0.2c-0.9,0-1.4,0.7-1.4,1.9v1.6h2.1v1.3H315v8.4h-1.6v-8.4H312v-1.2
			l1.3-0.1V177c0-2,0.9-3.2,2.8-3.2c0.6,0,1.2,0.1,1.6,0.3L317.5,175.3L317.5,175.3z"/>
		<path class="st0" d="M322.1,186.6l1-1.1c1,1,2.3,1.6,3.7,1.6c1.7,0,2.8-0.9,2.8-2.2s-1-1.8-2.2-2.3l-1.9-0.8
			c-1.2-0.5-2.7-1.5-2.7-3.4c0-2,1.8-3.5,4.2-3.5c1.6,0,3,0.7,3.9,1.6l-0.9,1.1c-0.8-0.8-1.8-1.2-3-1.2c-1.5,0-2.5,0.8-2.5,1.9
			c0,1.3,1.1,1.8,2.2,2.2l1.9,0.8c1.5,0.7,2.7,1.6,2.7,3.5c0,2.1-1.7,3.8-4.5,3.8C324.9,188.6,323.3,187.8,322.1,186.6L322.1,186.6z
			"/>
		<path class="st0" d="M333,183.5c0-3.2,2.1-5.1,4.4-5.1c2.5,0,3.9,1.8,3.9,4.6c0,0.4,0,0.7-0.1,0.9h-6.6c0.1,2.1,1.4,3.4,3.2,3.4
			c1,0,1.7-0.3,2.5-0.8l0.6,1.1c-0.9,0.6-1.9,1-3.2,1C335,188.6,333,186.7,333,183.5L333,183.5z M339.8,182.7c0-2-0.9-3-2.4-3
			c-1.4,0-2.6,1.1-2.8,3H339.8z"/>
		<path class="st0" d="M342.9,183.5c0-3.3,2.2-5.1,4.7-5.1c1.3,0,2.2,0.5,2.9,1.1l-0.9,1.1c-0.6-0.5-1.2-0.9-2-0.9
			c-1.8,0-3.1,1.5-3.1,3.8s1.2,3.8,3,3.8c0.9,0,1.7-0.4,2.3-1l0.7,1.1c-0.9,0.8-2,1.2-3.1,1.2C344.9,188.6,342.9,186.7,342.9,183.5
			L342.9,183.5z"/>
		<path class="st0" d="M352.8,178.6h1.4l0.1,1.8h0c0.7-1.2,1.7-2,2.8-2c0.4,0,0.7,0.1,1,0.2l-0.3,1.4c-0.3-0.1-0.6-0.2-1-0.2
			c-0.8,0-1.8,0.6-2.5,2.2v6.3h-1.6L352.8,178.6L352.8,178.6z"/>
		<path class="st0" d="M358.9,183.5c0-3.2,2.1-5.1,4.4-5.1c2.5,0,3.9,1.8,3.9,4.6c0,0.4,0,0.7-0.1,0.9h-6.6c0.1,2.1,1.4,3.4,3.2,3.4
			c1,0,1.7-0.3,2.5-0.8l0.6,1.1c-0.9,0.6-1.9,1-3.2,1C361,188.6,358.9,186.7,358.9,183.5L358.9,183.5z M365.7,182.7c0-2-0.9-3-2.4-3
			c-1.4,0-2.6,1.1-2.8,3H365.7z"/>
		<path class="st0" d="M369.7,185.3v-5.4h-1.5v-1.2l1.5-0.1l0.2-2.7h1.4v2.7h2.6v1.3h-2.6v5.5c0,1.2,0.4,1.9,1.5,1.9
			c0.3,0,0.8-0.1,1.1-0.2l0.3,1.2c-0.6,0.2-1.2,0.4-1.8,0.4C370.4,188.6,369.7,187.3,369.7,185.3L369.7,185.3z"/>
		<path class="st0" d="M375.1,185.8c0-2.1,1.9-3.2,6-3.7c0-1.3-0.4-2.5-2-2.5c-1.1,0-2.2,0.5-2.9,1l-0.6-1.1
			c0.9-0.6,2.3-1.3,3.9-1.3c2.4,0,3.4,1.6,3.4,4v6h-1.4l-0.1-1.2h0c-0.9,0.8-2,1.4-3.2,1.4C376.4,188.6,375.1,187.5,375.1,185.8
			L375.1,185.8z M381.1,186v-2.7c-3.3,0.4-4.4,1.2-4.4,2.5c0,1.1,0.8,1.6,1.7,1.6S380.2,186.8,381.1,186z"/>
		<path class="st0" d="M385.9,178.6h1.4l0.1,1.8h0c0.7-1.2,1.7-2,2.8-2c0.4,0,0.7,0.1,1,0.2l-0.3,1.4c-0.3-0.1-0.6-0.2-1-0.2
			c-0.8,0-1.8,0.6-2.5,2.2v6.3h-1.6L385.9,178.6L385.9,178.6z"/>
		<path class="st0" d="M392.4,192.4l0.3-1.3c0.2,0.1,0.5,0.2,0.7,0.2c1.1,0,1.8-0.9,2.2-2.1l0.2-0.7l-3.9-9.8h1.7l2,5.4
			c0.3,0.9,0.6,1.9,0.9,2.7h0.1c0.3-0.9,0.6-1.9,0.8-2.7l1.8-5.4h1.6l-3.7,10.6c-0.7,1.9-1.7,3.4-3.6,3.4
			C393.1,192.6,392.7,192.5,392.4,192.4L392.4,192.4z"/>
	</g>
	<g>
		<path class="st5" d="M22.7,108.8h265c2.8,0,5,2.2,5,5v21.7c0,2.8-2.2,5-5,5h-265c-2.8,0-5-2.2-5-5v-21.7
			C17.7,111,20,108.8,22.7,108.8z"/>
		<path class="st5" d="M388.3,108.8h265c2.8,0,5,2.2,5,5v21.7c0,2.8-2.2,5-5,5h-265c-2.8,0-5-2.2-5-5v-21.7
			C383.3,111,385.5,108.8,388.3,108.8z"/>
		<g>
			<path class="st0" d="M35.7,118.2H39c4,0,6.2,2.4,6.2,6.6c0,4.2-2.2,6.6-6.2,6.6h-3.4V118.2L35.7,118.2z M38.9,130
				c3.1,0,4.7-1.9,4.7-5.3s-1.5-5.2-4.7-5.2h-1.5V130H38.9z"/>
			<path class="st0" d="M49,126.5c0-3.2,2.1-5.2,4.4-5.2c2.5,0,3.9,1.8,3.9,4.6c0,0.4,0,0.7-0.1,0.9h-6.6c0.1,2.1,1.4,3.4,3.2,3.4
				c1,0,1.7-0.3,2.5-0.8l0.6,1.1c-0.9,0.6-1.9,1-3.2,1C51.1,131.6,49,129.8,49,126.5L49,126.5z M55.9,125.7c0-2-0.9-3-2.4-3
				c-1.4,0-2.6,1.1-2.8,3C50.6,125.7,55.8,125.7,55.9,125.7z"/>
			<path class="st0" d="M61.5,121.6h1.3l0.1,1.1h0c0.9-0.7,2-1.4,3.1-1.4c2.5,0,3.9,2,3.9,5c0,3.4-2,5.3-4.2,5.3
				c-0.9,0-1.8-0.4-2.7-1.1l0,1.7v3.3h-1.6L61.5,121.6L61.5,121.6z M68.3,126.4c0-2.2-0.7-3.6-2.6-3.6c-0.8,0-1.7,0.5-2.6,1.3v5.1
				c0.9,0.8,1.7,1,2.4,1C67.1,130.3,68.3,128.8,68.3,126.4L68.3,126.4z"/>
			<path class="st0" d="M74.3,127.8v-6.2H76v6c0,1.8,0.5,2.6,1.8,2.6c1,0,1.7-0.5,2.7-1.7v-6.9h1.6v9.8h-1.4l-0.1-1.5h-0.1
				c-0.9,1.1-1.9,1.8-3.2,1.8C75.3,131.6,74.3,130.3,74.3,127.8L74.3,127.8z"/>
			<path class="st0" d="M87.5,128.4V123H86v-1.2l1.5-0.1l0.2-2.7h1.4v2.7h2.7v1.3h-2.7v5.5c0,1.2,0.4,1.9,1.5,1.9
				c0.3,0,0.8-0.1,1.1-0.2l0.3,1.2c-0.6,0.2-1.2,0.4-1.8,0.4C88.2,131.6,87.5,130.3,87.5,128.4L87.5,128.4z"/>
			<path class="st0" d="M94.8,135.4l0.3-1.3c0.2,0.1,0.5,0.2,0.7,0.2c1.1,0,1.8-0.9,2.2-2.1l0.2-0.7l-3.9-9.8H96l2,5.4
				c0.3,0.8,0.6,1.8,0.9,2.7h0.1c0.3-0.9,0.6-1.9,0.8-2.7l1.8-5.4h1.6l-3.7,10.6c-0.7,1.9-1.7,3.4-3.6,3.4
				C95.5,135.6,95.1,135.6,94.8,135.4z"/>
			<path class="st0" d="M112.9,118.2h3.3c4.1,0,6.2,2.4,6.2,6.6c0,4.2-2.2,6.6-6.2,6.6h-3.4L112.9,118.2L112.9,118.2z M116.1,130
				c3.1,0,4.7-1.9,4.7-5.3s-1.5-5.2-4.7-5.2h-1.5V130H116.1z"/>
			<path class="st0" d="M126.6,118.6c0-0.7,0.5-1.1,1.1-1.1c0.6,0,1.1,0.4,1.1,1.1c0,0.6-0.5,1.1-1.1,1.1S126.6,119.2,126.6,118.6z
				 M126.9,121.6h1.6v9.8h-1.6V121.6z"/>
			<path class="st0" d="M133.7,121.6h1.4l0.1,1.8h0.1c0.7-1.2,1.7-2,2.8-2c0.4,0,0.7,0.1,1,0.2l-0.3,1.4c-0.3-0.1-0.6-0.2-0.9-0.2
				c-0.8,0-1.8,0.6-2.5,2.2v6.3h-1.6L133.7,121.6L133.7,121.6z"/>
			<path class="st0" d="M141.5,126.5c0-3.2,2.1-5.2,4.4-5.2c2.5,0,3.9,1.8,3.9,4.6c0,0.4,0,0.7-0.1,0.9h-6.6
				c0.1,2.1,1.4,3.4,3.2,3.4c0.9,0,1.7-0.3,2.4-0.8l0.6,1.1c-0.9,0.6-1.9,1-3.2,1C143.6,131.6,141.5,129.8,141.5,126.5L141.5,126.5z
				 M148.4,125.7c0-2-0.9-3-2.4-3c-1.4,0-2.6,1.1-2.8,3H148.4L148.4,125.7z"/>
			<path class="st0" d="M153.3,126.5c0-3.3,2.2-5.2,4.7-5.2c1.3,0,2.2,0.5,2.9,1.2l-0.9,1.1c-0.6-0.5-1.2-0.9-2-0.9
				c-1.8,0-3.1,1.5-3.1,3.8s1.2,3.8,3,3.8c0.9,0,1.7-0.4,2.3-1l0.7,1.1c-0.9,0.8-2,1.2-3.1,1.2C155.3,131.7,153.3,129.8,153.3,126.5
				L153.3,126.5z"/>
			<path class="st0" d="M165.1,128.4V123h-1.5v-1.2l1.5-0.1l0.2-2.7h1.4v2.7h2.6v1.3h-2.6v5.5c0,1.2,0.4,1.9,1.5,1.9
				c0.3,0,0.8-0.1,1.1-0.2l0.3,1.2c-0.6,0.2-1.2,0.4-1.8,0.4C165.8,131.6,165.1,130.3,165.1,128.4L165.1,128.4z"/>
			<path class="st0" d="M172.4,126.5c0-3.3,2.1-5.2,4.5-5.2s4.5,1.9,4.5,5.2c0,3.3-2.1,5.1-4.5,5.1S172.4,129.8,172.4,126.5z
				 M179.8,126.5c0-2.2-1.1-3.8-2.8-3.8s-2.8,1.5-2.8,3.8s1.1,3.8,2.8,3.8S179.8,128.8,179.8,126.5z"/>
			<path class="st0" d="M185.8,121.6h1.4l0.1,1.8h0.1c0.7-1.2,1.7-2,2.8-2c0.4,0,0.7,0.1,1,0.2l-0.3,1.4c-0.3-0.1-0.6-0.2-0.9-0.2
				c-0.8,0-1.8,0.6-2.5,2.2v6.3h-1.6L185.8,121.6L185.8,121.6z"/>
			<path class="st0" d="M193.3,125.7h4.6v1.3h-4.6V125.7z"/>
			<path class="st0" d="M201.6,124.8c0-4.3,2.6-6.9,6.1-6.9c1.8,0,3,0.8,3.8,1.6l-0.9,1.1c-0.7-0.7-1.5-1.3-2.9-1.3
				c-2.6,0-4.4,2.1-4.4,5.3s1.6,5.4,4.4,5.4c1,0,1.9-0.3,2.4-0.8V126h-2.8v-1.4h4.3v5.5c-0.9,0.9-2.3,1.5-4.1,1.5
				C204,131.6,201.6,129.1,201.6,124.8L201.6,124.8z"/>
			<path class="st0" d="M215.6,126.5c0-3.2,2.1-5.2,4.4-5.2c2.5,0,3.9,1.8,3.9,4.6c0,0.4,0,0.7-0.1,0.9h-6.6
				c0.1,2.1,1.4,3.4,3.2,3.4c0.9,0,1.7-0.3,2.4-0.8l0.6,1.1c-0.9,0.6-1.9,1-3.2,1C217.7,131.6,215.6,129.8,215.6,126.5L215.6,126.5z
				 M222.5,125.7c0-2-0.9-3-2.4-3c-1.4,0-2.6,1.1-2.8,3H222.5L222.5,125.7z"/>
			<path class="st0" d="M228.2,121.6h1.4l0.1,1.4h0.1c0.9-0.9,1.9-1.7,3.3-1.7c2.1,0,3,1.3,3,3.8v6.2h-1.6v-6c0-1.8-0.6-2.6-1.9-2.6
				c-1,0-1.7,0.5-2.7,1.5v7.1h-1.6L228.2,121.6L228.2,121.6z"/>
			<path class="st0" d="M240.2,126.5c0-3.2,2.1-5.2,4.4-5.2c2.5,0,3.9,1.8,3.9,4.6c0,0.4,0,0.7-0.1,0.9h-6.6
				c0.1,2.1,1.4,3.4,3.2,3.4c0.9,0,1.7-0.3,2.4-0.8l0.6,1.1c-0.9,0.6-1.9,1-3.2,1C242.3,131.6,240.2,129.8,240.2,126.5L240.2,126.5z
				 M247.1,125.7c0-2-0.9-3-2.4-3c-1.4,0-2.6,1.1-2.8,3H247.1L247.1,125.7z"/>
			<path class="st0" d="M252.7,121.6h1.4l0.1,1.8h0.1c0.7-1.2,1.7-2,2.8-2c0.4,0,0.7,0.1,1,0.2l-0.3,1.4c-0.3-0.1-0.6-0.2-1-0.2
				c-0.8,0-1.8,0.6-2.5,2.2v6.3h-1.6L252.7,121.6L252.7,121.6z"/>
			<path class="st0" d="M260.4,128.9c0-2.1,1.9-3.2,6-3.7c0-1.3-0.4-2.5-2-2.5c-1.1,0-2.2,0.5-2.9,1l-0.6-1.1
				c0.9-0.6,2.3-1.3,3.9-1.3c2.4,0,3.4,1.6,3.4,4v6h-1.4l-0.1-1.2h0c-0.9,0.8-2,1.4-3.2,1.4C261.6,131.6,260.4,130.6,260.4,128.9
				L260.4,128.9z M266.4,129v-2.7c-3.3,0.4-4.4,1.2-4.4,2.5c0,1.1,0.8,1.6,1.7,1.6S265.5,129.9,266.4,129z"/>
			<path class="st0" d="M273,129.5v-12.4h1.6v12.5c0,0.5,0.2,0.7,0.5,0.7c0.1,0,0.2,0,0.3,0l0.2,1.3c-0.2,0.1-0.5,0.1-1,0.1
				C273.5,131.6,273,130.9,273,129.5L273,129.5z"/>
		</g>
		<g>
			<path class="st0" d="M400.8,118.2h3.3c4,0,6.2,2.4,6.2,6.6c0,4.2-2.2,6.6-6.2,6.6h-3.4L400.8,118.2L400.8,118.2z M404,130
				c3.1,0,4.6-1.9,4.6-5.3s-1.5-5.2-4.6-5.2h-1.5V130H404z"/>
			<path class="st0" d="M414.1,126.5c0-3.2,2.1-5.2,4.4-5.2c2.5,0,3.9,1.8,3.9,4.6c0,0.4,0,0.7-0.1,0.9h-6.6
				c0.1,2.1,1.4,3.4,3.2,3.4c1,0,1.7-0.3,2.5-0.8l0.6,1.1c-0.9,0.6-1.9,1-3.2,1C416.2,131.6,414.1,129.8,414.1,126.5L414.1,126.5z
				 M420.9,125.7c0-2-0.9-3-2.4-3c-1.4,0-2.6,1.1-2.8,3H420.9z"/>
			<path class="st0" d="M426.6,121.6h1.4l0.1,1.1h0c0.9-0.7,2-1.4,3.1-1.4c2.5,0,3.9,2,3.9,5c0,3.4-2,5.3-4.2,5.3
				c-0.9,0-1.8-0.4-2.7-1.1l0,1.7v3.3h-1.6L426.6,121.6L426.6,121.6z M433.4,126.4c0-2.2-0.7-3.6-2.6-3.6c-0.8,0-1.7,0.5-2.6,1.3
				v5.1c0.9,0.8,1.8,1,2.4,1C432.2,130.3,433.4,128.8,433.4,126.4L433.4,126.4z"/>
			<path class="st0" d="M439.4,127.8v-6.2h1.6v6c0,1.8,0.5,2.6,1.8,2.6c1,0,1.7-0.5,2.6-1.7v-6.9h1.6v9.8h-1.4l-0.1-1.5h0
				c-0.9,1.1-1.9,1.8-3.2,1.8C440.4,131.6,439.4,130.3,439.4,127.8L439.4,127.8z"/>
			<path class="st0" d="M452.6,128.4V123h-1.5v-1.2l1.5-0.1l0.2-2.7h1.4v2.7h2.6v1.3h-2.6v5.5c0,1.2,0.4,1.9,1.5,1.9
				c0.3,0,0.8-0.1,1.1-0.2l0.3,1.2c-0.6,0.2-1.2,0.4-1.8,0.4C453.3,131.7,452.6,130.4,452.6,128.4L452.6,128.4z"/>
			<path class="st0" d="M459.9,135.4l0.3-1.3c0.2,0.1,0.5,0.2,0.7,0.2c1.1,0,1.8-0.9,2.2-2.1l0.2-0.7l-3.9-9.8h1.7l2,5.4
				c0.3,0.8,0.6,1.8,0.9,2.7h0.1c0.3-0.9,0.6-1.9,0.8-2.7l1.8-5.4h1.6l-3.7,10.6c-0.7,1.9-1.7,3.4-3.6,3.4
				C460.5,135.6,460.2,135.6,459.9,135.4L459.9,135.4z"/>
			<path class="st0" d="M478,118.2h3.3c4,0,6.2,2.4,6.2,6.6c0,4.2-2.2,6.6-6.2,6.6H478V118.2L478,118.2z M481.2,130
				c3.1,0,4.6-1.9,4.6-5.3s-1.5-5.2-4.6-5.2h-1.5V130H481.2z"/>
			<path class="st0" d="M491.7,118.6c0-0.7,0.5-1.1,1.1-1.1s1.1,0.4,1.1,1.1c0,0.6-0.5,1.1-1.1,1.1S491.7,119.2,491.7,118.6z
				 M492,121.6h1.6v9.8H492V121.6z"/>
			<path class="st0" d="M498.8,121.6h1.4l0.1,1.8h0c0.7-1.2,1.7-2,2.8-2c0.4,0,0.7,0.1,1,0.2l-0.3,1.4c-0.3-0.1-0.6-0.2-1-0.2
				c-0.8,0-1.8,0.6-2.5,2.2v6.3h-1.6L498.8,121.6L498.8,121.6z"/>
			<path class="st0" d="M506.6,126.5c0-3.2,2.1-5.2,4.4-5.2c2.5,0,3.9,1.8,3.9,4.6c0,0.4,0,0.7-0.1,0.9h-6.6
				c0.1,2.1,1.4,3.4,3.2,3.4c0.9,0,1.7-0.3,2.4-0.8l0.6,1.1c-0.9,0.6-1.9,1-3.2,1C508.7,131.6,506.6,129.8,506.6,126.5L506.6,126.5z
				 M513.5,125.7c0-2-0.9-3-2.4-3c-1.4,0-2.6,1.1-2.8,3H513.5z"/>
			<path class="st0" d="M518.4,126.5c0-3.3,2.2-5.2,4.7-5.2c1.3,0,2.2,0.5,2.9,1.2l-0.8,1.1c-0.6-0.5-1.2-0.9-2-0.9
				c-1.8,0-3.1,1.5-3.1,3.8s1.2,3.8,3,3.8c0.9,0,1.7-0.4,2.3-1l0.7,1.1c-0.9,0.8-2,1.2-3.2,1.2C520.4,131.7,518.4,129.8,518.4,126.5
				L518.4,126.5z"/>
			<path class="st0" d="M530.2,128.4V123h-1.5v-1.2l1.5-0.1l0.2-2.7h1.4v2.7h2.7v1.3h-2.7v5.5c0,1.2,0.4,1.9,1.5,1.9
				c0.3,0,0.8-0.1,1.1-0.2l0.3,1.2c-0.6,0.2-1.2,0.4-1.8,0.4C530.9,131.7,530.2,130.4,530.2,128.4L530.2,128.4z"/>
			<path class="st0" d="M537.5,126.5c0-3.3,2.1-5.2,4.5-5.2s4.5,1.9,4.5,5.2c0,3.3-2.1,5.1-4.5,5.1S537.5,129.8,537.5,126.5z
				 M544.9,126.5c0-2.2-1.2-3.8-2.8-3.8s-2.8,1.5-2.8,3.8s1.1,3.8,2.8,3.8S544.9,128.8,544.9,126.5z"/>
			<path class="st0" d="M550.9,121.6h1.3l0.1,1.8h0c0.7-1.2,1.7-2,2.8-2c0.4,0,0.7,0.1,1,0.2L556,123c-0.3-0.1-0.6-0.2-1-0.2
				c-0.8,0-1.8,0.6-2.5,2.2v6.3h-1.6L550.9,121.6L550.9,121.6z"/>
			<path class="st0" d="M558.4,125.7h4.6v1.3h-4.6V125.7z"/>
			<path class="st0" d="M566.7,124.8c0-4.3,2.6-6.9,6-6.9c1.8,0,3,0.8,3.8,1.6l-0.9,1.1c-0.7-0.7-1.5-1.3-2.9-1.3
				c-2.7,0-4.4,2.1-4.4,5.3s1.6,5.4,4.4,5.4c1,0,1.9-0.3,2.4-0.8V126h-2.8v-1.4h4.3v5.5c-0.8,0.9-2.3,1.5-4.1,1.5
				C569.1,131.6,566.7,129.1,566.7,124.8L566.7,124.8z"/>
			<path class="st0" d="M580.7,126.5c0-3.2,2.1-5.2,4.4-5.2c2.5,0,3.9,1.8,3.9,4.6c0,0.4,0,0.7-0.1,0.9h-6.6
				c0.1,2.1,1.4,3.4,3.2,3.4c1,0,1.7-0.3,2.5-0.8l0.6,1.1c-0.9,0.6-1.9,1-3.2,1C582.8,131.6,580.7,129.8,580.7,126.5L580.7,126.5z
				 M587.6,125.7c0-2-0.9-3-2.4-3c-1.4,0-2.6,1.1-2.8,3H587.6z"/>
			<path class="st0" d="M593.2,121.6h1.3l0.1,1.4h0c0.9-0.9,1.9-1.7,3.3-1.7c2,0,3,1.3,3,3.8v6.2h-1.6v-6c0-1.8-0.6-2.6-1.8-2.6
				c-1,0-1.7,0.5-2.7,1.5v7.1h-1.6V121.6L593.2,121.6z"/>
			<path class="st0" d="M605.3,126.5c0-3.2,2.1-5.2,4.4-5.2c2.5,0,3.9,1.8,3.9,4.6c0,0.4,0,0.7-0.1,0.9h-6.6
				c0.1,2.1,1.4,3.4,3.2,3.4c1,0,1.7-0.3,2.5-0.8l0.6,1.1c-0.9,0.6-1.9,1-3.2,1C607.4,131.6,605.3,129.8,605.3,126.5L605.3,126.5z
				 M612.2,125.7c0-2-0.9-3-2.4-3c-1.4,0-2.6,1.1-2.8,3H612.2z"/>
			<path class="st0" d="M617.8,121.6h1.3l0.1,1.8h0c0.7-1.2,1.7-2,2.8-2c0.4,0,0.7,0.1,1,0.2l-0.3,1.4c-0.3-0.1-0.6-0.2-1-0.2
				c-0.8,0-1.8,0.6-2.5,2.2v6.3h-1.6L617.8,121.6L617.8,121.6z"/>
			<path class="st0" d="M625.5,128.9c0-2.1,1.8-3.2,6-3.7c0-1.3-0.4-2.5-2-2.5c-1.1,0-2.2,0.5-2.9,1l-0.7-1.1
				c0.9-0.6,2.3-1.3,3.8-1.3c2.4,0,3.4,1.6,3.4,4v6h-1.3l-0.1-1.2h0c-0.9,0.8-2,1.4-3.2,1.4C626.7,131.6,625.5,130.6,625.5,128.9
				L625.5,128.9z M631.5,129v-2.7c-3.3,0.4-4.4,1.2-4.4,2.5c0,1.1,0.8,1.6,1.7,1.6S630.6,129.9,631.5,129z"/>
			<path class="st0" d="M638.1,129.5v-12.4h1.6v12.5c0,0.5,0.2,0.7,0.5,0.7c0.1,0,0.2,0,0.3,0l0.2,1.3c-0.2,0.1-0.5,0.1-1,0.1
				C638.6,131.6,638.1,130.9,638.1,129.5L638.1,129.5z"/>
		</g>
	</g>
	<path class="st6" d="M243.1,25.7h184.2c2.8,0,5,2.2,5,5v22c0,2.8-2.2,5-5,5H243.1c-2.8,0-5-2.2-5-5v-22
		C238.1,27.9,240.4,25.7,243.1,25.7z"/>
	<g>
		<path class="st0" d="M254.6,34.4h3.3c4,0,6.2,2.4,6.2,6.5s-2.2,6.6-6.2,6.6h-3.4L254.6,34.4L254.6,34.4z M257.7,46.2
			c3.1,0,4.6-2,4.6-5.3s-1.5-5.2-4.6-5.2h-1.5v10.5H257.7z"/>
		<path class="st0" d="M268.3,34.8c0-0.7,0.5-1.1,1.1-1.1s1.1,0.4,1.1,1.1c0,0.6-0.5,1.1-1.1,1.1S268.3,35.4,268.3,34.8z
			 M268.6,37.8h1.6v9.8h-1.6V37.8z"/>
		<path class="st0" d="M275.3,37.8h1.4l0.1,1.8h0c0.7-1.2,1.7-2,2.8-2c0.4,0,0.7,0,1,0.2l-0.3,1.4c-0.3-0.1-0.6-0.2-1-0.2
			c-0.8,0-1.8,0.6-2.5,2.2v6.3h-1.6L275.3,37.8L275.3,37.8z"/>
		<path class="st0" d="M283.2,42.7c0-3.2,2.1-5.2,4.4-5.2c2.5,0,3.9,1.8,3.9,4.6c0,0.4,0,0.7-0.1,0.9h-6.6c0.1,2.1,1.4,3.4,3.2,3.4
			c1,0,1.7-0.3,2.5-0.8l0.6,1.1c-0.9,0.6-1.9,1-3.2,1C285.3,47.8,283.2,46,283.2,42.7L283.2,42.7z M290,41.9c0-2-0.9-3-2.4-3
			c-1.4,0-2.6,1.1-2.8,3H290z"/>
		<path class="st0" d="M295,42.7c0-3.3,2.2-5.2,4.7-5.2c1.3,0,2.2,0.5,2.9,1.2l-0.9,1.1c-0.6-0.5-1.2-0.9-2-0.9
			c-1.8,0-3.1,1.5-3.1,3.8s1.2,3.8,3,3.8c0.9,0,1.7-0.4,2.3-1l0.7,1.1c-0.9,0.8-2,1.2-3.1,1.2C296.9,47.8,294.9,46,295,42.7
			L295,42.7z"/>
		<path class="st0" d="M306.8,44.6v-5.4h-1.5v-1.2l1.5-0.1l0.2-2.7h1.4v2.7h2.6v1.3h-2.6v5.5c0,1.2,0.4,1.9,1.5,1.9
			c0.3,0,0.8-0.1,1.1-0.2l0.3,1.2c-0.6,0.2-1.2,0.4-1.8,0.4C307.5,47.8,306.8,46.5,306.8,44.6L306.8,44.6z"/>
		<path class="st0" d="M314,42.7c0-3.3,2.1-5.2,4.5-5.2s4.5,1.9,4.5,5.2s-2.1,5.1-4.5,5.1S314,46,314,42.7z M321.4,42.7
			c0-2.2-1.1-3.8-2.8-3.8s-2.8,1.5-2.8,3.8s1.1,3.8,2.8,3.8S321.4,45,321.4,42.7z"/>
		<path class="st0" d="M327.5,37.8h1.4l0.1,1.8h0c0.7-1.2,1.7-2,2.8-2c0.4,0,0.7,0,1,0.2l-0.3,1.4c-0.3-0.1-0.6-0.2-1-0.2
			c-0.8,0-1.8,0.6-2.5,2.2v6.3h-1.6L327.5,37.8L327.5,37.8z"/>
		<path class="st0" d="M335,41.9h4.6v1.3H335V41.9z"/>
		<path class="st0" d="M343.2,41c0-4.3,2.6-6.9,6-6.9c1.8,0,3,0.8,3.8,1.6l-0.9,1.1c-0.7-0.7-1.5-1.3-2.9-1.3c-2.6,0-4.4,2-4.4,5.3
			s1.6,5.4,4.4,5.4c1,0,1.9-0.3,2.4-0.8v-3.5h-2.8v-1.4h4.3v5.5c-0.9,0.9-2.3,1.5-4.1,1.5C345.7,47.8,343.2,45.3,343.2,41L343.2,41z
			"/>
		<path class="st0" d="M357.3,42.7c0-3.2,2.1-5.2,4.4-5.2c2.5,0,3.9,1.8,3.9,4.6c0,0.4,0,0.7-0.1,0.9h-6.6c0.1,2.1,1.4,3.4,3.2,3.4
			c1,0,1.7-0.3,2.5-0.8l0.6,1.1c-0.9,0.6-1.9,1-3.2,1C359.4,47.8,357.3,46,357.3,42.7L357.3,42.7z M364.2,41.9c0-2-0.9-3-2.4-3
			c-1.4,0-2.6,1.1-2.8,3H364.2z"/>
		<path class="st0" d="M369.8,37.8h1.4l0.1,1.4h0c0.9-0.9,1.9-1.7,3.3-1.7c2,0,3,1.3,3,3.8v6.2H376v-6c0-1.8-0.6-2.6-1.9-2.6
			c-1,0-1.7,0.5-2.7,1.5v7.1h-1.6L369.8,37.8L369.8,37.8z"/>
		<path class="st0" d="M381.9,42.7c0-3.2,2.1-5.2,4.4-5.2c2.5,0,3.9,1.8,3.9,4.6c0,0.4,0,0.7-0.1,0.9h-6.6c0.1,2.1,1.4,3.4,3.2,3.4
			c1,0,1.7-0.3,2.5-0.8l0.6,1.1c-0.9,0.6-1.9,1-3.2,1C384,47.8,381.9,46,381.9,42.7L381.9,42.7z M388.7,41.9c0-2-0.9-3-2.4-3
			c-1.4,0-2.6,1.1-2.8,3H388.7z"/>
		<path class="st0" d="M394.4,37.8h1.4l0.1,1.8h0c0.7-1.2,1.7-2,2.8-2c0.4,0,0.7,0,1,0.2l-0.3,1.4c-0.3-0.1-0.6-0.2-1-0.2
			c-0.8,0-1.8,0.6-2.5,2.2v6.3h-1.6L394.4,37.8L394.4,37.8z"/>
		<path class="st0" d="M402.1,45.1c0-2.1,1.9-3.2,6-3.7c0-1.3-0.4-2.5-2-2.5c-1.1,0-2.2,0.5-2.9,1l-0.6-1.1c0.9-0.6,2.3-1.3,3.9-1.3
			c2.4,0,3.4,1.6,3.4,4v6h-1.4l-0.1-1.2h0c-0.9,0.8-2,1.4-3.2,1.4C403.3,47.8,402.1,46.8,402.1,45.1L402.1,45.1z M408.1,45.2v-2.7
			c-3.3,0.4-4.4,1.2-4.4,2.5c0,1.1,0.8,1.6,1.7,1.6S407.1,46.1,408.1,45.2z"/>
		<path class="st0" d="M414.6,45.7V33.3h1.6v12.5c0,0.5,0.2,0.7,0.5,0.7c0.1,0,0.2,0,0.3,0l0.2,1.3c-0.2,0.1-0.5,0.1-1,0.1
			C415.1,47.8,414.6,47,414.6,45.7L414.6,45.7z"/>
	</g>
</g>
</svg>
