<?xml version="1.0" encoding="utf-8"?>
<!-- Generator: Adobe Illustrator 26.3.1, SVG Export Plug-In . SVG Version: 6.00 Build 0)  -->
<svg version="1.1" id="圖層_1" xmlns="http://www.w3.org/2000/svg" xmlns:xlink="http://www.w3.org/1999/xlink" x="0px" y="0px"
	 width="320px" height="62px" viewBox="0 0 320 62" style="enable-background:new 0 0 320 62;" xml:space="preserve">
<style type="text/css">
	.st0{fill:#262626;}
	.st1{fill:url(#SVGID_1_);}
	.st2{fill:url(#SVGID_00000176013683971443158280000011651032242638044847_);}
	.st3{fill:url(#SVGID_00000099655526964574169650000001842474290955236526_);}
	.st4{fill:url(#SVGID_00000058566289992618008120000008259105923001453958_);}
	.st5{fill:url(#SVGID_00000099660866111074198810000011673322380482663823_);}
	.st6{fill:url(#SVGID_00000168831152510962494810000006750779223901688734_);}
	.st7{fill:url(#SVGID_00000178188679729488509240000007821007528028978091_);}
	.st8{fill:#231815;}
</style>
<path class="st0" d="M1.7,35h2c0.2,0,0.5,0.1,0.7,0.2h-2C2.2,35.1,1.9,35,1.7,35L1.7,35z"/>
<path class="st0" d="M1.8,35h2c0.1,0,0.2,0,0.2,0H2C1.9,35,1.9,35,1.8,35"/>
<path class="st0" d="M2,35h2c0.1,0,0.3,0.1,0.4,0.2h-2C2.3,35.1,2.2,35.1,2,35"/>
<path class="st0" d="M2.4,35.2h2L7.5,37h-2L2.4,35.2z"/>
<path class="st0" d="M11.7,17.5h2c0.2,0,0.5,0.1,0.7,0.2h-2C12.2,17.6,12,17.5,11.7,17.5L11.7,17.5z"/>
<path class="st0" d="M11.8,17.5h2c0.1,0,0.2,0,0.3,0.1h-2C12,17.5,11.9,17.5,11.8,17.5"/>
<path class="st0" d="M12.1,17.6h2c0.1,0,0.3,0.1,0.4,0.2h-2C12.3,17.7,12.2,17.6,12.1,17.6"/>
<path class="st0" d="M12.4,17.7h2l3.9,2.2h-2L12.4,17.7z"/>
<path class="st0" d="M5.5,37h2c1,0.6,1.8,1.5,2.3,2.6c0.1,0.3,2.4,6,5.5,9.5c2.1,2.1,4.5,3.9,7,5.5c0.5,0.3,1,0.4,1.5,0.4h-2
	c-0.5,0-1.1-0.1-1.5-0.4c-2.5-1.6-4.9-3.5-7-5.5c-3.1-3.5-5.4-9.1-5.5-9.5C7.3,38.5,6.5,37.6,5.5,37L5.5,37z"/>
<path class="st0" d="M5.5,37h2c1,0.6,1.8,1.5,2.3,2.6c0.1,0.3,2.4,6,5.5,9.5c2.1,2.1,4.5,3.9,7,5.5c0.2,0.1,0.4,0.2,0.6,0.3h-2
	c-0.2-0.1-0.4-0.2-0.6-0.3c-2.5-1.6-4.9-3.5-7-5.5c-3.1-3.5-5.4-9.1-5.5-9.5C7.3,38.5,6.5,37.6,5.5,37"/>
<path class="st0" d="M20.9,54.8h2c0.2,0.1,0.5,0.1,0.7,0.1h-2C21.3,54.9,21.1,54.9,20.9,54.8"/>
<path class="st0" d="M22.3,61.1h2c-0.2,0.1-0.4,0.1-0.5,0.1h-2C21.9,61.2,22.1,61.2,22.3,61.1L22.3,61.1z"/>
<path class="st0" d="M22.3,61.1h2c-0.2,0.1-0.4,0.1-0.5,0.1h-2C21.9,61.2,22.1,61.2,22.3,61.1"/>
<path class="st0" d="M22.9,60.8h2l-0.6,0.3h-2L22.9,60.8z"/>
<path class="st0" d="M22.9,60.8h2l-0.6,0.3h-2L22.9,60.8z"/>
<path class="st0" d="M16.3,19.9h2L37,36.6h-2L16.3,19.9z"/>
<path class="st0" d="M16.3,19.9h2l19.9,11.3h-2L16.3,19.9z"/>
<path class="st0" d="M36,39.2h2c0.2,0.8,0.3,1.6,0.2,2.4c0,1.6-0.2,3.2-0.7,4.7c-1.3,4.4-12.6,14.5-12.6,14.5h-2
	c0,0,11.4-10.2,12.6-14.5c0.4-1.5,0.7-3.1,0.7-4.7C36.3,40.8,36.2,40,36,39.2L36,39.2z"/>
<path class="st0" d="M36,39.2h2c0.2,0.8,0.3,1.6,0.2,2.4c0,1.6-0.2,3.2-0.7,4.7c-1.3,4.4-12.6,14.5-12.6,14.5h-2
	c0,0,11.4-10.2,12.6-14.5c0.4-1.5,0.7-3.1,0.7-4.7C36.3,40.8,36.2,40,36,39.2"/>
<path class="st0" d="M36.2,31.2h2l3.2,1.8h-2L36.2,31.2z"/>
<path class="st0" d="M36.2,31.2h2l3.2,1.8h-2L36.2,31.2z"/>
<path class="st0" d="M39.4,33h2L43,34h-2L39.4,33z"/>
<path class="st0" d="M42.3,36.5h2L44,37.3c-0.2,0.9-0.5,1.8-0.8,2.8c-1.5,4.6-3.9,8.8-7,12.4c-2.8,3.2-9.4,7.2-9.8,7.4
	c-0.5,0.3-1.1,0.6-1.5,0.9h-2c0.4-0.2,1-0.6,1.5-0.9c0.3-0.2,6.9-4.2,9.8-7.4c3.2-3.6,5.5-7.8,7-12.4c0.3-0.9,0.6-1.9,0.8-2.8
	L42.3,36.5z"/>
<path class="st0" d="M42.3,36.5h2L44,37.3c-0.2,0.9-0.5,1.8-0.8,2.8c-1.5,4.6-3.9,8.8-7,12.4c-2.8,3.2-9.4,7.2-9.8,7.4
	c-0.5,0.3-1.1,0.6-1.5,0.9h-2c0.4-0.2,1-0.6,1.5-0.9c0.3-0.2,6.9-4.2,9.8-7.4c3.2-3.6,5.5-7.8,7-12.4c0.3-0.9,0.6-1.9,0.8-2.8
	L42.3,36.5"/>
<path class="st0" d="M41,34h2c0.4,0.3,0.8,0.6,1,1.1c0.2,0.4,0.3,1,0.2,1.5h-2c0.1-0.5,0-1-0.2-1.5C41.8,34.6,41.5,34.2,41,34L41,34
	z"/>
<path class="st0" d="M41,34h2c0.4,0.3,0.8,0.6,1,1.1c0.2,0.4,0.3,1,0.2,1.5h-2c0.1-0.5,0-1-0.2-1.5C41.8,34.6,41.5,34.2,41,34"/>
<path class="st0" d="M7.3,16.8h-2v5.9h2V16.8z"/>
<path class="st0" d="M5.3,22.7h2c-0.1,0.6,0,1.2,0.3,1.7c0.3,0.5,0.7,0.9,1.3,1.2h-2c-0.6-0.2-1-0.7-1.3-1.2
	C5.3,23.9,5.2,23.3,5.3,22.7z"/>
<path class="st0" d="M5.3,22.7h2c-0.1,0.6,0,1.2,0.3,1.7c0.3,0.5,0.7,0.9,1.3,1.2h-2c-0.6-0.2-1-0.7-1.3-1.2
	C5.3,23.9,5.2,23.3,5.3,22.7"/>
<path class="st0" d="M7,14.2h2c-0.5,0.2-0.9,0.6-1.2,1.1c-0.3,0.5-0.5,1-0.5,1.5h-2c0-0.5,0.2-1.1,0.5-1.5C6.1,14.8,6.5,14.4,7,14.2
	L7,14.2z"/>
<path class="st0" d="M7,14.2h2c-0.5,0.2-0.9,0.6-1.2,1.1c-0.3,0.5-0.5,1-0.5,1.5h-2c0-0.5,0.2-1.1,0.5-1.5C6.1,14.8,6.5,14.4,7,14.2
	"/>
<path class="st0" d="M21.6,0h2C21.7,2.6,14.7,7.8,12,9.6c-0.8,0.5-1.5,1.2-2,2c-0.5,0.8-0.9,1.7-1,2.7h-2c0.1-0.9,0.5-1.9,1-2.7
	s1.2-1.5,2-2C12.7,7.8,19.7,2.6,21.6,0z"/>
<path class="st0" d="M21.6,0h2C21.7,2.6,14.7,7.8,12,9.6c-0.8,0.5-1.5,1.2-2,2c-0.5,0.8-0.9,1.7-1,2.7h-2c0.1-0.9,0.5-1.9,1-2.7
	s1.2-1.5,2-2C12.7,7.8,19.7,2.6,21.6,0z"/>
<path class="st0" d="M21.8,6.7h2c-0.5,0-1.1,0.1-1.5,0.4c-0.1,0-1.2,0.8-3.2,2c-3.3,2-9.7,4.8-10.1,5h-2c0.3-0.2,6.8-3,10.1-5
	c2-1.2,3.2-2,3.3-2C20.7,6.9,21.2,6.7,21.8,6.7z"/>
<path class="st0" d="M21.8,6.7h2c-0.5,0-1.1,0.1-1.5,0.4c-0.1,0-1.2,0.8-3.2,2c-3.3,2-9.7,4.8-10.1,5h-2c0.3-0.2,6.8-3,10.1-5
	c2-1.2,3.2-2,3.3-2C20.7,6.9,21.2,6.7,21.8,6.7z"/>
<path class="st0" d="M21.8,11h2c0.1,0,0.1,0,0.2,0h-2C21.9,11,21.8,11,21.8,11z"/>
<path class="st0" d="M6.9,25.6h2l18.7,16.7h-2L6.9,25.6z"/>
<path class="st0" d="M22,11h2l4.1,2.4h-2L22,11z"/>
<path class="st0" d="M26,13.4h2c0.1,0,0.1,0.1,0.2,0.2c0,0.1,0,0.2,0,0.3c0,0.1-0.1,0.2-0.2,0.2c-0.1,0.1-0.2,0.1-0.3,0.1h-2
	c0.1,0,0.2,0,0.3-0.1c0.1-0.1,0.1-0.1,0.2-0.2c0-0.1,0-0.2,0-0.3C26.2,13.5,26.1,13.5,26,13.4L26,13.4z"/>
<path class="st0" d="M26,13.4h2c0.1,0,0.1,0.1,0.2,0.2c0,0.1,0,0.2,0,0.3c0,0.1-0.1,0.2-0.2,0.2c-0.1,0.1-0.2,0.1-0.3,0.1h-2
	c0.1,0,0.2,0,0.3-0.1c0.1-0.1,0.1-0.1,0.1-0.2c0-0.1,0-0.2,0-0.3C26.2,13.5,26.1,13.5,26,13.4"/>
<path class="st0" d="M6.9,25.6h2l20.9,11.9h-2L6.9,25.6z"/>
<path class="st0" d="M29.4,42.6h2c0,0.7-0.4,1.1-0.9,1.1h-2C29,43.8,29.4,43.3,29.4,42.6z"/>
<path class="st0" d="M29.4,42.6h2c0,0.7-0.4,1.1-0.9,1.1h-2C29,43.8,29.4,43.3,29.4,42.6z"/>
<path class="st0" d="M27.8,37.5h2c0.5,0.3,0.8,0.7,1.1,1.2c0.3,0.5,0.4,1,0.5,1.6h-2c0-0.6-0.2-1.1-0.5-1.6
	C28.7,38.2,28.3,37.8,27.8,37.5L27.8,37.5z"/>
<path class="st0" d="M27.8,37.5h2c0.5,0.3,0.8,0.7,1.1,1.2c0.3,0.5,0.4,1,0.5,1.6h-2c0-0.6-0.2-1.1-0.5-1.6
	C28.7,38.2,28.3,37.8,27.8,37.5"/>
<path class="st0" d="M31.4,40.2h-2v2.4h2V40.2z"/>
<path class="st0" d="M21.8,0h2c0.3,0,0.5,0.1,0.8,0.2l0.8,0.6l0.4,0.3l1.2,0.8c1,0.7,2.5,1.7,4.3,2.7c3.5,1.9,7,3.6,10.7,5.2
	c0.9,0.4,2.1,0.8,2.6,1c0.5,0.2,0.9,1.1,0.9,2.1h-2c0-1-0.4-2-0.9-2.1c-0.5-0.2-1.7-0.6-2.6-1c-3.7-1.5-7.2-3.3-10.7-5.2
	c-1.8-1.1-3.2-2-4.3-2.7l-1.2-0.8l-0.4-0.3l-0.8-0.6C22.3,0.1,22,0,21.8,0L21.8,0z"/>
<path class="st0" d="M21.8,0h2c0.1,0,0.2,0,0.3,0.1h-2C22,0,21.9,0,21.8,0"/>
<path class="st0" d="M22.1,0.1h2c0.1,0,0.3,0.1,0.4,0.2l0.8,0.6l0.4,0.3l1.2,0.8c1,0.7,2.5,1.7,4.3,2.7c3.5,1.9,7.1,3.6,10.7,5.2
	c0.9,0.4,2.1,0.8,2.6,1c0.5,0.2,0.9,1.1,0.9,2.1h-2c0-1-0.4-2-0.9-2.1c-0.5-0.2-1.7-0.6-2.6-1c-3.7-1.5-7.2-3.3-10.7-5.2
	c-1.8-1.1-3.2-2-4.3-2.7l-1.2-0.8l-0.4-0.3l-0.8-0.6C22.4,0.1,22.3,0.1,22.1,0.1"/>
<path class="st0" d="M45.5,12.9h-2v9.6h2V12.9z"/>
<path class="st0" d="M43.5,25.2h2v0.9c0,0.8,0,1.3,0,1.3c0,0.7-0.4,1.1-1,1.1h-2c0.5,0,0.9-0.4,1-1.1c0,0,0-0.5,0-1.3V25.2z"/>
<path class="st0" d="M43.5,25.2h2v0.9c0,0.8,0,1.3,0,1.3c0,0.7-0.4,1.1-1,1.1h-2c0.5,0,0.9-0.4,1-1.1c0,0,0-0.5,0-1.3V25.2z"/>
<path class="st0" d="M43.5,22.5h2c0,1,0,2.2,0,2.7h-2C43.5,24.7,43.5,23.5,43.5,22.5z"/>
<path class="st0" d="M43.5,22.5h2c0,1,0,2.2,0,2.7h-2C43.5,24.7,43.4,23.5,43.5,22.5"/>
<linearGradient id="SVGID_1_" gradientUnits="userSpaceOnUse" x1="42.239" y1="73.6869" x2="6.5767" y2="5.2603" gradientTransform="matrix(1 0 0 -1 0 64)">
	<stop  offset="0" style="stop-color:#B5B5B6"/>
	<stop  offset="0.16" style="stop-color:#F4F4F4"/>
	<stop  offset="0.33" style="stop-color:#9FA0A0"/>
	<stop  offset="0.5" style="stop-color:#FFFFFF"/>
	<stop  offset="0.56" style="stop-color:#E1E1E1"/>
	<stop  offset="0.67" style="stop-color:#9FA0A0"/>
	<stop  offset="0.84" style="stop-color:#FFFFFF"/>
	<stop  offset="1" style="stop-color:#898989"/>
</linearGradient>
<path class="st1" d="M11.7,17.5c0.2,0,0.5,0.1,0.7,0.2l3.9,2.2L35,36.6L12.4,23.8c-0.5-0.3-0.8-0.7-1.1-1.2c-0.3-0.5-0.4-1-0.5-1.6
	v-2.4C10.8,17.9,11.2,17.5,11.7,17.5z"/>
<linearGradient id="SVGID_00000167357981233965086810000011439792135436209082_" gradientUnits="userSpaceOnUse" x1="44.1986" y1="72.6751" x2="8.5263" y2="4.2485" gradientTransform="matrix(1 0 0 -1 0 64)">
	<stop  offset="0" style="stop-color:#B5B5B6"/>
	<stop  offset="0.16" style="stop-color:#F4F4F4"/>
	<stop  offset="0.33" style="stop-color:#9FA0A0"/>
	<stop  offset="0.5" style="stop-color:#FFFFFF"/>
	<stop  offset="0.56" style="stop-color:#E1E1E1"/>
	<stop  offset="0.67" style="stop-color:#9FA0A0"/>
	<stop  offset="0.84" style="stop-color:#FFFFFF"/>
	<stop  offset="1" style="stop-color:#898989"/>
</linearGradient>
<path style="fill:url(#SVGID_00000167357981233965086810000011439792135436209082_);" d="M1.7,35c0.2,0,0.5,0.1,0.7,0.2L5.5,37
	c1,0.6,1.8,1.5,2.3,2.6c0.1,0.3,2.4,6,5.5,9.5c2.1,2.1,4.5,3.9,7,5.5c0.5,0.3,1,0.4,1.5,0.4s1.1-0.1,1.5-0.4c2.5-1.6,4.8-3.5,7-5.5
	c2.2-2.6,4-5.5,5.3-8.7c0.4-1,0.4-1.1,0.4-1.1c0.2,0.8,0.3,1.6,0.2,2.4c0,1.6-0.3,3.2-0.7,4.7c-1.2,4.4-12.6,14.5-12.6,14.5
	l-0.6,0.3c-0.2,0.1-0.4,0.1-0.5,0.1c-0.2,0-0.4,0-0.5-0.1c-0.3-0.1-1.2-0.7-2.1-1.2c-0.3-0.2-6.9-4.2-9.8-7.4
	c-2.6-3-4.7-6.5-6.2-10.2c-0.8-2-1.4-4.1-1.9-6.2C1,35.4,1.3,35,1.7,35z"/>
<linearGradient id="SVGID_00000153683279271095343430000002025374664773714349_" gradientUnits="userSpaceOnUse" x1="48.1199" y1="70.6205" x2="12.4476" y2="2.204" gradientTransform="matrix(1 0 0 -1 0 64)">
	<stop  offset="0" style="stop-color:#B5B5B6"/>
	<stop  offset="0.16" style="stop-color:#F4F4F4"/>
	<stop  offset="0.33" style="stop-color:#9FA0A0"/>
	<stop  offset="0.5" style="stop-color:#FFFFFF"/>
	<stop  offset="0.56" style="stop-color:#E1E1E1"/>
	<stop  offset="0.67" style="stop-color:#9FA0A0"/>
	<stop  offset="0.84" style="stop-color:#FFFFFF"/>
	<stop  offset="1" style="stop-color:#898989"/>
</linearGradient>
<path style="fill:url(#SVGID_00000153683279271095343430000002025374664773714349_);" d="M16.3,19.9l19.9,11.3l3.2,1.8l1.7,0.9
	c0.4,0.3,0.8,0.6,1,1.1c0.2,0.4,0.3,0.9,0.2,1.4L42,37.3c-0.2,0.9-0.5,1.8-0.8,2.8c-1.5,4.6-3.9,8.8-7,12.4
	c-2.8,3.2-9.4,7.2-9.8,7.4c-0.5,0.3-1.1,0.6-1.5,0.9c0,0,11.4-10.2,12.6-14.5c0.4-1.5,0.7-3.1,0.7-4.7c0-0.8-0.1-1.6-0.3-2.4
	c0.1-0.5,0.1-1-0.1-1.5c-0.2-0.5-0.5-0.9-0.9-1.2L16.3,19.9z"/>
<linearGradient id="SVGID_00000072983215372752647340000006365173961414750640_" gradientUnits="userSpaceOnUse" x1="34.2205" y1="77.8739" x2="-1.4519" y2="9.4474" gradientTransform="matrix(1 0 0 -1 0 64)">
	<stop  offset="0" style="stop-color:#B5B5B6"/>
	<stop  offset="0.16" style="stop-color:#F4F4F4"/>
	<stop  offset="0.33" style="stop-color:#9FA0A0"/>
	<stop  offset="0.5" style="stop-color:#FFFFFF"/>
	<stop  offset="0.56" style="stop-color:#E1E1E1"/>
	<stop  offset="0.67" style="stop-color:#9FA0A0"/>
	<stop  offset="0.84" style="stop-color:#FFFFFF"/>
	<stop  offset="1" style="stop-color:#898989"/>
</linearGradient>
<path style="fill:url(#SVGID_00000072983215372752647340000006365173961414750640_);" d="M21.6,0c-1.9,2.6-8.9,7.8-11.7,9.6
	c-0.8,0.5-1.5,1.2-2,2s-0.9,1.7-1,2.7c-0.5,0.2-0.9,0.6-1.2,1.1c-0.3,0.5-0.5,1-0.5,1.5v5.9c-0.1,0.6,0,1.2,0.3,1.7
	c0.3,0.5,0.7,0.9,1.3,1.2l18.7,16.7L4.2,30.2l-2.9-1.7c-0.4-0.2-0.7-0.5-0.9-0.8C0.2,27.4,0.1,27,0,26.6v-1.4c0-0.5,0.1-1.7,0.1-2.7
	v-9.6c0-1,0.4-2,0.9-2.1c0.5-0.2,1.7-0.6,2.6-1c3.5-1.5,7-3.1,10.4-4.9c3.5-2.1,6-3.9,6.2-4L21,0.3C21.2,0.1,21.4,0,21.6,0L21.6,0z"
	/>
<linearGradient id="SVGID_00000067219317867216643490000009852251953959889033_" gradientUnits="userSpaceOnUse" x1="35.8595" y1="77.0138" x2="0.1872" y2="8.5974" gradientTransform="matrix(1 0 0 -1 0 64)">
	<stop  offset="0" style="stop-color:#B5B5B6"/>
	<stop  offset="0.16" style="stop-color:#F4F4F4"/>
	<stop  offset="0.33" style="stop-color:#9FA0A0"/>
	<stop  offset="0.5" style="stop-color:#FFFFFF"/>
	<stop  offset="0.56" style="stop-color:#E1E1E1"/>
	<stop  offset="0.67" style="stop-color:#9FA0A0"/>
	<stop  offset="0.84" style="stop-color:#FFFFFF"/>
	<stop  offset="1" style="stop-color:#898989"/>
</linearGradient>
<path style="fill:url(#SVGID_00000067219317867216643490000009852251953959889033_);" d="M21.8,11c0.1,0,0.1,0,0.2,0l4,2.4
	c0.1,0,0.1,0.1,0.2,0.2c0,0.1,0,0.2,0,0.3c0,0.1-0.1,0.2-0.1,0.2c-0.1,0.1-0.2,0.1-0.3,0.1H18c-0.1,0-0.2,0-0.3-0.1
	c-0.1-0.1-0.1-0.1-0.2-0.2c0-0.1,0-0.2,0-0.3c0-0.1,0.1-0.2,0.2-0.2l3.7-2.3C21.6,11,21.7,11,21.8,11z"/>
<linearGradient id="SVGID_00000154412168699288716050000012672357994711959974_" gradientUnits="userSpaceOnUse" x1="41.326" y1="74.164" x2="5.6638" y2="5.7374" gradientTransform="matrix(1 0 0 -1 0 64)">
	<stop  offset="0" style="stop-color:#B5B5B6"/>
	<stop  offset="0.16" style="stop-color:#F4F4F4"/>
	<stop  offset="0.33" style="stop-color:#9FA0A0"/>
	<stop  offset="0.5" style="stop-color:#FFFFFF"/>
	<stop  offset="0.56" style="stop-color:#E1E1E1"/>
	<stop  offset="0.67" style="stop-color:#9FA0A0"/>
	<stop  offset="0.84" style="stop-color:#FFFFFF"/>
	<stop  offset="1" style="stop-color:#898989"/>
</linearGradient>
<path style="fill:url(#SVGID_00000154412168699288716050000012672357994711959974_);" d="M6.9,25.6l20.9,11.9
	c0.5,0.3,0.8,0.7,1.1,1.2c0.3,0.5,0.4,1,0.5,1.6v2.4c0,0.7-0.4,1.1-0.9,1.1c-0.2,0-0.5-0.1-0.7-0.2l-2.2-1.2L6.9,25.6z"/>
<linearGradient id="SVGID_00000164503829099577185820000018105222005311990428_" gradientUnits="userSpaceOnUse" x1="41.2475" y1="74.2038" x2="5.5852" y2="5.7772" gradientTransform="matrix(1 0 0 -1 0 64)">
	<stop  offset="0" style="stop-color:#B5B5B6"/>
	<stop  offset="0.16" style="stop-color:#F4F4F4"/>
	<stop  offset="0.33" style="stop-color:#9FA0A0"/>
	<stop  offset="0.5" style="stop-color:#FFFFFF"/>
	<stop  offset="0.56" style="stop-color:#E1E1E1"/>
	<stop  offset="0.67" style="stop-color:#9FA0A0"/>
	<stop  offset="0.84" style="stop-color:#FFFFFF"/>
	<stop  offset="1" style="stop-color:#898989"/>
</linearGradient>
<path style="fill:url(#SVGID_00000164503829099577185820000018105222005311990428_);" d="M21.8,0c0.3,0,0.5,0.1,0.8,0.2l0.8,0.6
	l0.4,0.3l1.2,0.8c1,0.7,2.5,1.7,4.3,2.7c3.5,1.9,7.1,3.6,10.7,5.2c0.9,0.4,2.1,0.8,2.6,1s0.9,1.1,0.9,2.1v9.6c0,1,0,2.2,0.1,2.7v0.9
	c0,0.8,0,1.3,0,1.3c0,0.7-0.4,1.1-1,1.1c-0.2,0-0.5-0.1-0.7-0.2l-1.9-1.1c-0.5-0.3-0.8-0.6-1.1-1.1c-0.3-0.4-0.5-0.9-0.5-1.5
	c0-0.1,0-0.9,0-1.9v-5.9c0-0.5-0.2-1.1-0.5-1.5c-0.3-0.5-0.7-0.8-1.2-1.1c-0.3-0.2-6.7-3-10.1-5c-2-1.2-3.2-2-3.2-2
	c-0.5-0.3-1-0.4-1.5-0.4c-0.5,0-1.1,0.1-1.5,0.4c-0.1,0-1.3,0.8-3.3,2c-3.3,2-9.7,4.8-10.1,5c0.1-0.9,0.5-1.9,1-2.7s1.2-1.5,2-2
	c2.8-1.8,9.7-7,11.7-9.6L21.8,0z"/>
<g>
	<g>
		<path class="st8" d="M57.8,29.6l5.9-15.4h2.2l6.3,15.4h-2.3l-1.8-4.7h-6.4L60,29.6H57.8z M62.3,23.2h5.2L65.9,19
			c-0.5-1.3-0.8-2.4-1.1-3.2c-0.2,1-0.5,2-0.8,2.9L62.3,23.2z"/>
		<path class="st8" d="M81.1,29.6v-1.4c-0.3,0.5-0.8,1-1.3,1.3c-0.5,0.3-1.2,0.4-1.8,0.4c-0.9,0-1.7-0.2-2.5-0.7
			c-0.8-0.5-1.4-1.2-1.7-2c-0.4-1-0.6-2-0.6-3c0-1,0.2-2.1,0.6-3c0.3-0.8,0.9-1.6,1.7-2.1c0.7-0.5,1.6-0.7,2.5-0.7
			c0.6,0,1.2,0.1,1.8,0.4c0.5,0.3,0.9,0.6,1.3,1.1v-5.6h1.9v15.4H81.1z M75.1,24c-0.1,1.1,0.2,2.3,0.9,3.2c0.3,0.3,0.6,0.6,0.9,0.8
			c0.4,0.2,0.8,0.3,1.2,0.3c0.4,0,0.8-0.1,1.1-0.3c0.4-0.2,0.7-0.4,0.9-0.7c0.6-0.9,0.9-2,0.9-3c0.1-1.2-0.2-2.4-0.9-3.4
			c-0.3-0.3-0.6-0.6-0.9-0.8c-0.4-0.2-0.8-0.3-1.2-0.3c-0.4,0-0.8,0.1-1.2,0.3c-0.4,0.2-0.7,0.4-0.9,0.8C75.3,21.8,75,22.9,75.1,24
			L75.1,24z"/>
		<path class="st8" d="M86,29.6V18.4h1.7v1.5c0.4-0.5,0.8-1,1.4-1.3c0.6-0.3,1.3-0.5,2-0.5c0.7,0,1.4,0.1,2,0.5
			c0.5,0.4,0.9,0.9,1.1,1.5c0.4-0.6,0.9-1.1,1.5-1.4c0.6-0.3,1.3-0.5,2-0.5c0.5,0,0.9,0,1.4,0.2c0.4,0.2,0.8,0.4,1.2,0.7
			c0.7,0.8,1,1.8,0.9,2.8v7.7h-1.9v-7.1c0-0.5,0-1-0.2-1.5c-0.1-0.3-0.4-0.6-0.7-0.8c-0.3-0.2-0.7-0.3-1.1-0.3
			c-0.4,0-0.7,0.1-1.1,0.2c-0.3,0.1-0.6,0.3-0.9,0.6c-0.6,0.7-0.9,1.6-0.8,2.5v6.5h-1.9v-7.3c0-0.7-0.1-1.3-0.5-1.9
			c-0.2-0.2-0.4-0.4-0.7-0.5c-0.3-0.1-0.6-0.2-0.8-0.1c-0.5,0-1.1,0.1-1.5,0.4c-0.5,0.3-0.8,0.7-1,1.2c-0.2,0.8-0.4,1.5-0.3,2.3v5.8
			H86z"/>
		<path class="st8" d="M104.1,16.3v-2.2h1.9v2.2H104.1z M104.1,29.6V18.4h1.9v11.2H104.1z"/>
		<path class="st8" d="M109.1,29.6V18.4h1.7V20c0.4-0.6,0.9-1.1,1.5-1.4c0.6-0.3,1.3-0.5,2-0.4c0.6,0,1.3,0.1,1.8,0.3
			c0.5,0.2,0.9,0.5,1.3,1c0.3,0.4,0.5,0.9,0.6,1.4c0.1,0.6,0.1,1.2,0.1,1.8v6.9h-1.9v-6.8c0-0.6,0-1.2-0.2-1.7
			c-0.2-0.4-0.4-0.7-0.8-0.9c-0.4-0.2-0.9-0.3-1.3-0.3c-0.8,0-1.5,0.3-2.1,0.8c-0.3,0.4-0.6,0.9-0.7,1.4c-0.2,0.5-0.2,1-0.1,1.6v6.1
			L109.1,29.6z"/>
		<path class="st8" d="M121.3,16.3v-2.2h1.9v2.2H121.3z M121.3,29.6V18.4h1.9v11.2H121.3z"/>
		<path class="st8" d="M125.6,26.2l1.9-0.3c0.1,0.7,0.4,1.3,0.9,1.7c0.6,0.4,1.3,0.6,2,0.6c0.7,0,1.4-0.1,1.9-0.5
			c0.2-0.1,0.3-0.3,0.5-0.6c0.1-0.2,0.2-0.5,0.2-0.7c0-0.2,0-0.4-0.1-0.6c-0.1-0.2-0.2-0.3-0.4-0.4c-0.6-0.3-1.3-0.5-1.9-0.6
			c-1-0.2-2-0.5-2.9-0.9c-0.5-0.2-0.9-0.6-1.2-1.1c-0.2-0.4-0.4-0.9-0.4-1.4c0-0.5,0.1-1,0.4-1.4c0.2-0.4,0.5-0.8,0.9-1.1
			c0.4-0.2,0.8-0.4,1.2-0.5c0.5-0.2,1.1-0.2,1.6-0.2c0.8,0,1.6,0.1,2.3,0.4c0.6,0.2,1.1,0.5,1.5,1c0.3,0.5,0.6,1.1,0.7,1.7l-1.8,0.2
			c-0.1-0.5-0.3-1-0.7-1.3c-0.5-0.3-1.1-0.5-1.7-0.5c-0.7-0.1-1.3,0.1-1.9,0.4c-0.2,0.1-0.3,0.3-0.4,0.4c-0.1,0.2-0.2,0.4-0.2,0.6
			c0,0.2,0.1,0.5,0.2,0.7c0.2,0.2,0.4,0.4,0.7,0.5c0.2,0,0.7,0.2,1.7,0.5c0.9,0.2,1.9,0.5,2.8,0.9c0.5,0.2,0.9,0.6,1.2,1
			c0.3,0.5,0.5,1,0.5,1.6c0,0.6-0.2,1.3-0.6,1.8c-0.4,0.6-0.9,1-1.5,1.3c-0.7,0.3-1.5,0.5-2.3,0.5c-1.2,0.1-2.3-0.2-3.3-0.9
			C126.4,28.3,125.8,27.3,125.6,26.2L125.6,26.2z"/>
		<path class="st8" d="M141.4,27.9l0.3,1.7c-0.5,0.1-0.9,0.2-1.4,0.2c-0.6,0-1.1-0.1-1.6-0.3c-0.4-0.2-0.6-0.5-0.8-0.8
			c-0.2-0.7-0.3-1.5-0.2-2.2v-6.4h-1.4v-1.5h1.4v-2.7l1.9-1.1v3.9h1.9v1.5h-1.9v6.5c0,0.4,0,0.7,0.1,1c0.1,0.2,0.2,0.3,0.3,0.4
			c0.2,0.1,0.4,0.1,0.7,0.1C140.8,28,141.1,27.9,141.4,27.9L141.4,27.9z"/>
		<path class="st8" d="M143.4,29.6V18.4h1.7v1.7c0.3-0.6,0.7-1.1,1.2-1.5c0.4-0.3,0.8-0.4,1.2-0.4c0.7,0,1.4,0.2,1.9,0.6l-0.7,1.8
			c-0.4-0.3-0.9-0.4-1.4-0.4c-0.4,0-0.8,0.1-1.1,0.4c-0.3,0.3-0.6,0.6-0.7,1c-0.2,0.7-0.3,1.5-0.3,2.2v5.9L143.4,29.6z"/>
		<path class="st8" d="M158.1,28.2c-0.6,0.5-1.3,1-2,1.3c-0.7,0.2-1.4,0.4-2.1,0.4c-1,0.1-2-0.2-2.8-0.9c-0.5-0.5-0.8-1.1-0.9-1.8
			c-0.1-0.7,0-1.4,0.3-2c0.2-0.4,0.6-0.8,1-1.1c0.4-0.3,0.9-0.5,1.4-0.6c0.6-0.1,1.1-0.2,1.7-0.3c1.1-0.1,2.3-0.3,3.4-0.7V22
			c0-0.3,0-0.6-0.1-0.9c-0.1-0.3-0.3-0.5-0.5-0.7c-0.6-0.5-1.4-0.7-2.2-0.7c-0.7-0.1-1.4,0.1-2,0.5c-0.5,0.4-0.8,1-1,1.7l-1.8-0.3
			c0.1-0.7,0.4-1.3,0.8-1.9c0.4-0.5,1-0.9,1.7-1.1c0.8-0.3,1.7-0.4,2.5-0.4c0.8,0,1.6,0.1,2.3,0.3c0.5,0.2,1,0.5,1.3,0.8
			c0.3,0.4,0.5,0.8,0.6,1.3c0.1,0.6,0.1,1.2,0.1,1.7v2.5c0,1.1,0,2.2,0.1,3.3c0.1,0.5,0.2,0.9,0.5,1.3h-2
			C158.3,29.1,158.1,28.7,158.1,28.2L158.1,28.2z M158,24c-1,0.4-2,0.6-3,0.7c-0.6,0.1-1.1,0.2-1.6,0.4c-0.3,0.1-0.6,0.3-0.8,0.6
			c-0.2,0.3-0.3,0.6-0.3,0.9c0,0.2,0,0.5,0.1,0.7c0.1,0.2,0.2,0.4,0.4,0.6c0.5,0.4,1.1,0.5,1.7,0.5c0.7,0,1.3-0.2,1.9-0.5
			c0.5-0.3,1-0.7,1.2-1.3c0.2-0.6,0.4-1.2,0.3-1.9L158,24z"/>
		<path class="st8" d="M167.1,27.9l0.3,1.7c-0.5,0.1-0.9,0.2-1.4,0.2c-0.6,0-1.1-0.1-1.6-0.3c-0.3-0.2-0.6-0.5-0.8-0.8
			c-0.2-0.7-0.3-1.5-0.2-2.2v-6.4h-1.4v-1.5h1.4v-2.7l1.9-1.1v3.9h1.9v1.5h-1.9v6.5c0,0.4,0,0.7,0.1,1c0.1,0.2,0.2,0.3,0.3,0.4
			c0.2,0.1,0.4,0.1,0.6,0.1C166.5,28,166.8,27.9,167.1,27.9z"/>
		<path class="st8" d="M169.2,16.3v-2.2h1.9v2.2H169.2z M169.2,29.6V18.4h1.9v11.2H169.2z"/>
		<path class="st8" d="M173.5,24c-0.1-0.8,0.1-1.7,0.4-2.5c0.3-0.8,0.8-1.5,1.4-2.1c1-0.8,2.2-1.3,3.5-1.2c0.7,0,1.4,0.1,2,0.4
			c0.6,0.3,1.2,0.7,1.7,1.2c0.5,0.6,0.9,1.2,1.2,1.9c0.3,0.7,0.4,1.5,0.3,2.2c0.1,1.2-0.2,2.3-0.7,3.4c-0.4,0.8-1.1,1.5-1.9,1.9
			c-0.8,0.5-1.8,0.7-2.7,0.7c-0.7,0-1.4-0.1-2.1-0.4c-0.7-0.3-1.2-0.7-1.7-1.2c-0.5-0.6-0.9-1.3-1.2-2
			C173.5,25.6,173.4,24.8,173.5,24L173.5,24z M175.4,24c-0.1,1.1,0.2,2.3,0.9,3.2c0.3,0.3,0.7,0.6,1.1,0.8c0.4,0.2,0.8,0.3,1.3,0.3
			c0.4,0,0.9-0.1,1.3-0.3c0.4-0.2,0.8-0.5,1.1-0.8c0.7-0.9,1-2.1,0.9-3.3c0.1-1.1-0.2-2.2-0.9-3.1c-0.3-0.3-0.6-0.6-1-0.8
			c-0.4-0.2-0.8-0.3-1.3-0.3c-0.4,0-0.9,0.1-1.3,0.3c-0.4,0.2-0.8,0.5-1.1,0.8C175.7,21.7,175.3,22.9,175.4,24z"/>
		<path class="st8" d="M186.4,29.6V18.4h1.7V20c0.4-0.6,0.9-1.1,1.5-1.4c0.6-0.3,1.3-0.5,2-0.4c0.6,0,1.3,0.1,1.9,0.3
			c0.5,0.2,0.9,0.5,1.3,1c0.3,0.4,0.5,0.9,0.6,1.4c0.1,0.6,0.1,1.2,0.1,1.8v6.9h-1.9v-6.8c0-0.6,0-1.2-0.2-1.7
			c-0.1-0.4-0.4-0.7-0.8-0.9c-0.4-0.2-0.9-0.3-1.3-0.3c-0.8,0-1.5,0.3-2.1,0.8c-0.3,0.4-0.6,0.9-0.7,1.4c-0.2,0.5-0.2,1-0.1,1.6v6.1
			L186.4,29.6z"/>
	</g>
	<g>
		<path class="st8" d="M205.2,29.6v-9.7h-1.7v-1.5h1.7v-1.2c0-0.6,0-1.1,0.2-1.7c0.2-0.5,0.5-0.9,1-1.2c0.6-0.3,1.3-0.5,1.9-0.5
			c0.6,0,1.2,0.1,1.8,0.2l-0.3,1.7c-0.4-0.1-0.7-0.1-1.1-0.1c-0.2,0-0.4,0-0.6,0.1c-0.2,0.1-0.4,0.2-0.6,0.3
			c-0.3,0.4-0.4,0.9-0.4,1.4v1h2.2v1.5h-2.2v9.7H205.2z"/>
		<path class="st8" d="M210.2,24c-0.1-0.8,0-1.7,0.3-2.5c0.3-0.8,0.7-1.5,1.3-2.1c1-0.8,2.2-1.3,3.5-1.2c0.7,0,1.4,0.1,2,0.4
			c0.6,0.3,1.2,0.7,1.7,1.2c0.5,0.6,0.9,1.2,1.2,1.9c0.3,0.7,0.4,1.5,0.3,2.2c0.1,1.2-0.2,2.3-0.7,3.4c-0.4,0.8-1.1,1.5-1.9,1.9
			c-0.8,0.5-1.8,0.7-2.7,0.7c-0.7,0-1.4-0.1-2.1-0.4c-0.7-0.3-1.2-0.7-1.7-1.2c-0.5-0.6-0.9-1.3-1.2-2
			C210.3,25.6,210.2,24.8,210.2,24L210.2,24z M212.2,24c-0.1,1.1,0.2,2.3,0.9,3.2c0.3,0.3,0.7,0.6,1.1,0.8s0.8,0.3,1.3,0.3
			c0.4,0,0.9-0.1,1.3-0.3c0.4-0.2,0.8-0.5,1.1-0.8c0.7-0.9,1-2.1,0.9-3.3c0.1-1.1-0.3-2.2-1-3.1c-0.3-0.3-0.6-0.6-1-0.8
			c-0.4-0.2-0.8-0.3-1.3-0.3c-0.4,0-0.9,0.1-1.3,0.3c-0.4,0.2-0.8,0.5-1.1,0.8C212.4,21.7,212.1,22.9,212.2,24z"/>
		<path class="st8" d="M223.1,29.6V18.4h1.7v1.7c0.3-0.6,0.7-1.1,1.2-1.5c0.4-0.3,0.8-0.4,1.2-0.4c0.7,0,1.4,0.2,1.9,0.6l-0.6,1.7
			c-0.4-0.3-0.9-0.4-1.4-0.4c-0.4,0-0.8,0.1-1.1,0.4c-0.3,0.3-0.6,0.6-0.7,1c-0.2,0.7-0.3,1.5-0.3,2.2v5.9H223.1z"/>
	</g>
	<g>
		<path class="st8" d="M247.9,24.2l2,0.5c-0.3,1.5-1.1,2.9-2.3,3.9c-1.2,0.9-2.6,1.4-4.1,1.3c-1.4,0.1-2.8-0.3-4-1
			c-1.1-0.7-1.9-1.7-2.4-2.9c-0.6-1.3-0.8-2.7-0.8-4.1c0-1.5,0.3-2.9,0.9-4.2c0.6-1.2,1.5-2.1,2.6-2.7c1.1-0.6,2.4-0.9,3.7-0.9
			c1.4,0,2.8,0.4,3.9,1.2c1.1,0.8,1.9,1.9,2.3,3.3l-2,0.5c-0.2-1-0.8-1.8-1.5-2.4c-0.7-0.5-1.6-0.8-2.6-0.8c-1.1,0-2.1,0.2-3,0.8
			c-0.8,0.6-1.4,1.4-1.7,2.3c-0.3,1-0.5,2-0.5,3c0,1.2,0.2,2.3,0.6,3.4c0.3,0.9,1,1.7,1.8,2.2c0.8,0.5,1.7,0.7,2.6,0.7
			c1.1,0,2.1-0.3,2.9-1C247.2,26.4,247.7,25.3,247.9,24.2L247.9,24.2z"/>
		<path class="st8" d="M252.3,33.9l-0.2-1.8c0.3,0.1,0.7,0.2,1.1,0.2c0.3,0,0.7-0.1,1-0.2c0.3-0.1,0.5-0.3,0.6-0.6
			c0.2-0.5,0.4-0.9,0.6-1.4c0-0.1,0.1-0.3,0.2-0.5l-4.2-11.2h2l2.3,6.5c0.3,0.8,0.6,1.7,0.8,2.6c0.2-0.9,0.5-1.7,0.8-2.5l2.4-6.5
			h1.9l-4.3,11.4c-0.3,0.9-0.7,1.7-1.1,2.5c-0.3,0.5-0.7,1-1.1,1.4c-0.5,0.3-1,0.4-1.5,0.4C253.2,34.1,252.7,34,252.3,33.9z"/>
		<path class="st8" d="M265.1,29.6h-1.8V14.2h1.9v5.5c0.4-0.5,0.8-0.9,1.3-1.1c0.5-0.3,1.1-0.4,1.7-0.4c0.7,0,1.3,0.1,1.9,0.4
			c0.6,0.3,1.1,0.7,1.5,1.2c0.4,0.5,0.7,1.2,0.9,1.8c0.2,0.7,0.3,1.5,0.3,2.3c0.1,1.6-0.4,3.2-1.4,4.4c-0.4,0.5-0.9,0.9-1.5,1.1
			c-0.6,0.3-1.2,0.4-1.9,0.4c-0.6,0-1.2-0.1-1.8-0.4c-0.5-0.3-1-0.7-1.3-1.2L265.1,29.6z M265.1,23.9c-0.1,1,0.1,2,0.6,2.9
			c0.2,0.5,0.6,0.8,1,1.1c0.4,0.3,0.9,0.4,1.4,0.4c0.4,0,0.8-0.1,1.2-0.3c0.4-0.2,0.7-0.5,1-0.8c0.6-1,0.9-2.1,0.9-3.2
			c0-1.1-0.3-2.2-0.9-3.2c-0.2-0.3-0.6-0.6-0.9-0.8c-0.4-0.2-0.8-0.3-1.2-0.3c-0.4,0-0.8,0.1-1.2,0.3c-0.4,0.2-0.7,0.5-1,0.8
			C265.3,21.7,265,22.8,265.1,23.9L265.1,23.9z"/>
		<path class="st8" d="M283.2,26l2,0.2c-0.2,1.1-0.8,2-1.7,2.7c-1.1,0.7-2.4,1-3.6,0.9c-1.3-0.1-2.5-0.6-3.4-1.5
			c-1-1.2-1.6-2.7-1.5-4.2c-0.1-1.6,0.5-3.2,1.5-4.4c0.5-0.5,1.1-0.9,1.7-1.2c0.6-0.3,1.3-0.4,2-0.4c0.7,0,1.4,0.1,2,0.4
			c0.6,0.3,1.2,0.7,1.7,1.2c1,1.2,1.5,2.7,1.4,4.3c0,0.1,0,0.3,0,0.5h-8.3c0,1,0.4,2,1,2.8c0.3,0.3,0.7,0.6,1.1,0.7
			c0.4,0.2,0.8,0.3,1.3,0.2c0.6,0,1.3-0.2,1.8-0.5C282.6,27.3,283,26.7,283.2,26L283.2,26z M277,23h6.2c0-0.8-0.3-1.5-0.7-2.1
			c-0.3-0.4-0.6-0.6-1-0.8c-0.4-0.2-0.9-0.3-1.3-0.3c-0.4,0-0.8,0.1-1.2,0.2c-0.4,0.2-0.7,0.4-1,0.7C277.4,21.2,277,22.1,277,23
			L277,23z"/>
		<path class="st8" d="M287.7,29.6V18.4h1.7v1.7c0.3-0.6,0.7-1.1,1.2-1.5c0.4-0.3,0.8-0.4,1.2-0.4c0.7,0,1.4,0.2,1.9,0.6l-0.7,1.8
			c-0.4-0.3-0.9-0.4-1.4-0.4c-0.4,0-0.8,0.1-1.1,0.4c-0.3,0.3-0.6,0.6-0.7,1c-0.2,0.7-0.3,1.5-0.3,2.2v5.9L287.7,29.6z"/>
	</g>
	<g>
		<g>
			<path class="st8" d="M57.8,46.7l1.9-0.2c0.1,0.7,0.3,1.3,0.6,1.9c0.4,0.5,0.9,1,1.5,1.2c0.7,0.3,1.6,0.5,2.4,0.5
				c0.7,0,1.4-0.1,2.1-0.3c0.5-0.2,1-0.5,1.3-1c0.3-0.4,0.4-0.8,0.4-1.3c0-0.5-0.1-0.9-0.4-1.3c-0.4-0.4-0.9-0.7-1.4-0.9
				c-0.9-0.3-1.8-0.6-2.7-0.8c-1-0.2-2.1-0.5-3-1c-0.7-0.3-1.2-0.8-1.6-1.4c-0.4-0.6-0.6-1.2-0.5-1.9c0-0.8,0.2-1.5,0.7-2.2
				c0.5-0.7,1.2-1.2,1.9-1.5c0.9-0.3,1.9-0.5,2.8-0.5c1,0,2.1,0.2,3,0.5c0.8,0.3,1.5,0.9,2,1.6c0.5,0.7,0.7,1.6,0.8,2.4l-2,0.1
				c0-0.4-0.1-0.8-0.3-1.2c-0.2-0.4-0.4-0.7-0.8-1c-0.8-0.6-1.7-0.8-2.7-0.8c-0.9,0-1.9,0.2-2.6,0.7c-0.3,0.2-0.5,0.4-0.6,0.7
				c-0.1,0.3-0.2,0.6-0.2,0.9c0,0.3,0,0.5,0.1,0.8c0.1,0.2,0.3,0.4,0.5,0.6c0.9,0.6,2,1,3,1.1c1.2,0.2,2.3,0.6,3.4,1
				c0.8,0.3,1.5,0.8,2,1.5c0.4,0.7,0.7,1.4,0.6,2.2c0,0.8-0.3,1.6-0.7,2.3c-0.5,0.8-1.2,1.3-2,1.7c-1,0.4-2,0.6-3,0.6
				c-1.2,0-2.4-0.2-3.5-0.6c-0.9-0.4-1.7-1-2.2-1.8C58.1,48.6,57.8,47.6,57.8,46.7L57.8,46.7z"/>
			<path class="st8" d="M80.5,48l2,0.2c-0.2,1.1-0.8,2-1.7,2.7c-1.1,0.7-2.4,1-3.6,0.9c-1.3-0.1-2.5-0.6-3.4-1.5
				c-1-1.2-1.5-2.7-1.4-4.2c-0.1-1.6,0.5-3.2,1.5-4.4c0.5-0.5,1.1-0.9,1.7-1.2c0.6-0.3,1.3-0.4,2-0.4c0.7,0,1.4,0.1,2,0.4
				c0.6,0.3,1.2,0.7,1.7,1.2c1,1.2,1.4,2.8,1.3,4.3v0.5h-8.3c0,1,0.4,2,1,2.8c0.3,0.3,0.7,0.6,1.1,0.7c0.4,0.2,0.8,0.3,1.3,0.2
				c0.6,0,1.3-0.2,1.8-0.5C79.8,49.4,80.3,48.7,80.5,48L80.5,48z M74.3,45h6.2c0-0.8-0.3-1.5-0.7-2.1c-0.3-0.4-0.6-0.6-1-0.8
				c-0.4-0.2-0.9-0.3-1.3-0.3c-0.4,0-0.8,0.1-1.2,0.2c-0.4,0.2-0.7,0.4-1,0.7C74.6,43.3,74.3,44.1,74.3,45L74.3,45z"/>
			<path class="st8" d="M92.3,47.6l1.9,0.2c-0.1,1.2-0.7,2.2-1.5,3c-0.8,0.7-1.9,1.1-3,1.1c-0.7,0-1.4-0.1-2-0.4
				c-0.6-0.3-1.2-0.7-1.7-1.2c-1-1.2-1.5-2.7-1.4-4.3c0-1.1,0.2-2.2,0.6-3.2c0.4-0.9,1-1.6,1.8-2c0.8-0.4,1.7-0.7,2.7-0.7
				c1.1-0.1,2.2,0.3,3,0.9c0.8,0.7,1.3,1.6,1.5,2.6l-1.8,0.3c-0.1-0.7-0.4-1.2-0.9-1.7c-0.4-0.4-1-0.6-1.6-0.6
				c-0.4,0-0.9,0.1-1.3,0.3c-0.4,0.2-0.8,0.4-1.1,0.8c-0.7,0.9-1,2.1-0.9,3.2c-0.1,1.2,0.2,2.3,0.9,3.3c0.3,0.3,0.6,0.6,1,0.8
				c0.4,0.2,0.8,0.3,1.2,0.2c0.7,0,1.3-0.2,1.8-0.7C92,49.1,92.3,48.3,92.3,47.6L92.3,47.6z"/>
			<path class="st8" d="M103.3,51.6V50c-0.4,0.6-0.9,1.1-1.5,1.4c-0.6,0.3-1.3,0.5-2,0.5c-0.6,0-1.3-0.1-1.8-0.4
				c-0.5-0.2-0.9-0.5-1.3-1c-0.3-0.4-0.5-0.9-0.6-1.5c-0.1-0.6-0.1-1.2-0.1-1.8v-6.9h1.9v6.2c0,0.7,0,1.3,0.1,2
				c0.1,0.5,0.4,0.9,0.8,1.2c0.4,0.3,0.9,0.4,1.4,0.4c0.6,0,1.1-0.2,1.6-0.4c0.5-0.3,0.8-0.7,1.1-1.2c0.2-0.7,0.3-1.4,0.3-2.2v-6.1
				h1.9v11.2L103.3,51.6z"/>
			<path class="st8" d="M108.2,51.6V40.4h1.7v1.7c0.3-0.6,0.7-1.1,1.2-1.5c0.4-0.2,0.8-0.4,1.2-0.4c0.7,0,1.4,0.2,2,0.6l-0.7,1.8
				c-0.4-0.3-0.9-0.4-1.4-0.4c-0.4,0-0.8,0.1-1.1,0.4c-0.3,0.3-0.6,0.6-0.7,1c-0.2,0.7-0.3,1.5-0.3,2.2v5.9L108.2,51.6z"/>
			<path class="st8" d="M115.6,38.4v-2.2h1.9v2.2H115.6z M115.6,51.6V40.4h1.9v11.2H115.6z"/>
			<path class="st8" d="M124.7,49.9l0.3,1.7c-0.5,0.1-1,0.2-1.4,0.2c-0.5,0-1.1-0.1-1.6-0.3c-0.4-0.2-0.6-0.5-0.8-0.8
				c-0.2-0.7-0.3-1.5-0.2-2.2v-6.4h-1.4v-1.5h1.4v-2.7l1.9-1.1v3.9h1.9V42h-1.9v6.5c0,0.4,0,0.7,0.1,1c0.1,0.2,0.2,0.3,0.3,0.4
				c0.2,0.1,0.4,0.2,0.7,0.1C124.1,50,124.4,50,124.7,49.9z"/>
			<path class="st8" d="M126.6,55.9l-0.2-1.8c0.4,0.1,0.7,0.2,1.1,0.2c0.3,0,0.7,0,1-0.2c0.3-0.1,0.5-0.3,0.6-0.6
				c0.2-0.5,0.4-0.9,0.6-1.4c0-0.1,0.1-0.3,0.2-0.5l-4.2-11.2h2l2.3,6.5c0.3,0.8,0.6,1.7,0.8,2.6c0.2-0.9,0.5-1.7,0.8-2.5l2.4-6.5
				h1.9l-4.2,11.4c-0.3,0.9-0.7,1.7-1.1,2.5c-0.3,0.5-0.7,1-1.2,1.4c-0.5,0.3-1,0.4-1.5,0.4C127.5,56.2,127,56.1,126.6,55.9
				L126.6,55.9z"/>
			<path class="st8" d="M138.2,51.6v-2.2h2.2v2.2c0,0.7-0.1,1.3-0.4,1.9c-0.3,0.5-0.8,0.9-1.3,1.1l-0.5-0.8c0.4-0.2,0.7-0.4,0.9-0.8
				c0.2-0.5,0.3-1,0.3-1.5L138.2,51.6z"/>
		</g>
		<g>
			<path class="st8" d="M150.1,51.6V40.4h1.7V42c0.3-0.5,0.8-1,1.4-1.3c0.6-0.3,1.3-0.5,2-0.5c0.7,0,1.4,0.1,2,0.5
				c0.5,0.4,0.9,0.9,1.1,1.5c0.4-0.6,0.9-1.1,1.5-1.4c0.6-0.3,1.3-0.5,2-0.5c0.5,0,0.9,0,1.4,0.2c0.4,0.2,0.8,0.4,1.2,0.7
				c0.7,0.8,1,1.8,0.9,2.8v7.7h-1.9v-7.1c0-0.5,0-1-0.2-1.5c-0.1-0.3-0.4-0.6-0.7-0.8c-0.3-0.2-0.7-0.3-1.1-0.3
				c-0.4,0-0.7,0.1-1.1,0.2c-0.3,0.1-0.6,0.3-0.9,0.6c-0.3,0.3-0.5,0.7-0.6,1.2c-0.1,0.4-0.2,0.9-0.1,1.3v6.5h-1.9v-7.3
				c0-0.7-0.1-1.3-0.5-1.9c-0.2-0.2-0.4-0.4-0.7-0.5c-0.3-0.1-0.6-0.2-0.8-0.1c-0.5,0-1.1,0.1-1.5,0.4c-0.5,0.3-0.8,0.7-1,1.2
				c-0.2,0.8-0.3,1.5-0.3,2.3v5.8H150.1z"/>
			<path class="st8" d="M167.5,46.1c-0.1-0.8,0.1-1.7,0.4-2.5c0.3-0.8,0.8-1.5,1.4-2.1c1-0.8,2.2-1.3,3.5-1.2c0.7,0,1.4,0.1,2,0.4
				c0.6,0.3,1.2,0.7,1.7,1.2c0.5,0.6,0.9,1.2,1.2,1.9c0.3,0.7,0.4,1.5,0.3,2.2c0.1,1.2-0.2,2.3-0.7,3.4c-0.4,0.8-1.1,1.5-1.9,1.9
				c-0.8,0.5-1.8,0.7-2.7,0.7c-0.7,0-1.4-0.1-2.1-0.4c-0.7-0.3-1.2-0.7-1.7-1.2C167.9,49.2,167.4,47.7,167.5,46.1L167.5,46.1z
				 M169.4,46.1c-0.1,1.1,0.2,2.3,0.9,3.2c0.3,0.3,0.7,0.6,1.1,0.8c0.4,0.2,0.8,0.3,1.3,0.3s0.9-0.1,1.3-0.3
				c0.4-0.2,0.8-0.5,1.1-0.8c0.7-0.9,1-2.1,0.9-3.3c0.1-1.1-0.3-2.2-0.9-3.1c-0.3-0.3-0.7-0.6-1.1-0.8c-0.4-0.2-0.8-0.3-1.3-0.3
				s-0.9,0.1-1.3,0.3c-0.4,0.2-0.8,0.4-1.1,0.8C169.7,43.8,169.4,44.9,169.4,46.1L169.4,46.1z"/>
			<path class="st8" d="M187.6,51.6v-1.4c-0.3,0.5-0.8,1-1.3,1.3c-0.5,0.3-1.2,0.4-1.8,0.4c-0.9,0-1.7-0.2-2.4-0.7
				c-0.8-0.5-1.4-1.2-1.7-2c-0.4-1-0.6-2-0.6-3c0-1,0.2-2.1,0.6-3c0.3-0.9,0.9-1.6,1.7-2.1c0.7-0.5,1.6-0.7,2.5-0.7
				c0.6,0,1.2,0.1,1.8,0.4c0.5,0.3,0.9,0.6,1.3,1.1v-5.6h1.9v15.4H187.6z M181.6,46.1c-0.1,1.1,0.2,2.3,0.9,3.2
				c0.3,0.3,0.6,0.6,0.9,0.8c0.4,0.2,0.8,0.3,1.2,0.3c0.4,0,0.8-0.1,1.2-0.3c0.4-0.2,0.7-0.4,0.9-0.8c0.6-0.9,0.9-2,0.9-3
				c0.1-1.2-0.2-2.4-0.9-3.4c-0.3-0.3-0.6-0.6-1-0.8c-0.4-0.2-0.8-0.3-1.2-0.3c-0.4,0-0.8,0.1-1.2,0.3c-0.4,0.2-0.7,0.4-0.9,0.8
				C181.9,43.8,181.6,44.9,181.6,46.1L181.6,46.1z"/>
			<path class="st8" d="M199.8,50.2c-0.6,0.5-1.3,1-2,1.3c-0.7,0.2-1.4,0.4-2.1,0.4c-1,0.1-2-0.2-2.8-0.9c-0.3-0.3-0.6-0.6-0.8-1
				c-0.2-0.4-0.3-0.8-0.2-1.3c0-0.5,0.1-1.1,0.4-1.5c0.2-0.4,0.6-0.8,1-1.1c0.4-0.3,0.9-0.5,1.3-0.6c0.6-0.1,1.1-0.2,1.7-0.3
				c1.1-0.1,2.3-0.3,3.4-0.7c0-0.3,0-0.4,0-0.5c0-0.3,0-0.6-0.1-0.9c-0.1-0.3-0.2-0.5-0.5-0.8c-0.6-0.5-1.4-0.7-2.2-0.7
				c-0.7-0.1-1.4,0.1-2,0.5c-0.5,0.4-0.8,1-0.9,1.7l-1.8-0.3c0.1-0.7,0.4-1.3,0.8-1.9c0.4-0.5,1-0.9,1.7-1.1
				c0.8-0.3,1.7-0.4,2.5-0.4c0.8,0,1.6,0.1,2.3,0.3c0.5,0.2,1,0.5,1.3,0.8c0.3,0.4,0.5,0.8,0.6,1.3c0.1,0.6,0.1,1.2,0.1,1.7v2.5
				c0,1.1,0,2.2,0.1,3.3c0.1,0.5,0.3,0.9,0.5,1.3h-2C200,51.2,199.9,50.7,199.8,50.2L199.8,50.2z M199.7,46c-1,0.4-2,0.6-3,0.7
				c-0.6,0.1-1.1,0.2-1.6,0.4c-0.3,0.1-0.6,0.3-0.7,0.6c-0.2,0.3-0.3,0.7-0.2,1.1c0.1,0.4,0.2,0.8,0.5,1c0.5,0.4,1.1,0.5,1.7,0.5
				c0.7,0,1.3-0.2,1.9-0.5c0.5-0.3,1-0.7,1.3-1.3c0.2-0.6,0.3-1.2,0.3-1.9L199.7,46z"/>
		</g>
	</g>
</g>
</svg>
