<?xml version="1.0" encoding="utf-8"?>
<!-- Generator: Adobe Illustrator 24.2.1, SVG Export Plug-In . SVG Version: 6.00 Build 0)  -->
<svg version="1.1" id="圖層_1" xmlns="http://www.w3.org/2000/svg" xmlns:xlink="http://www.w3.org/1999/xlink" x="0px" y="0px"
	 width="413px" height="79px" viewBox="0 0 413 79" style="enable-background:new 0 0 413 79;" xml:space="preserve">
<style type="text/css">
	.st0{fill:#FFFFFF;}
	.st1{fill:url(#SVGID_1_);}
	.st2{fill:url(#SVGID_2_);}
	.st3{fill:url(#SVGID_3_);}
	.st4{fill:url(#SVGID_4_);}
	.st5{fill:url(#SVGID_5_);}
	.st6{fill:url(#SVGID_6_);}
	.st7{fill:url(#SVGID_7_);}
</style>
<g>
	<g>
		<g>
			<path class="st0" d="M74.4,38.2L82,18.4h2.8l8.1,19.8h-3l-2.3-6h-8.2l-2.2,6C77.2,38.2,74.4,38.2,74.4,38.2z M80.2,30h6.7
				l-2.1-5.4c-0.6-1.7-1-3.1-1.4-4.1c-0.3,1.3-0.6,2.6-1,3.7L80.2,30z"/>
			<path class="st0" d="M104.3,38.2v-1.8c-0.4,0.6-1,1.3-1.7,1.7c-0.6,0.4-1.5,0.5-2.3,0.5c-1.2,0-2.2-0.3-3.2-0.9s-1.8-1.5-2.2-2.6
				c-0.5-1.3-0.8-2.6-0.8-3.9c0-1.3,0.3-2.7,0.8-3.9c0.4-1,1.2-2.1,2.2-2.7c0.9-0.6,2.1-0.9,3.2-0.9c0.8,0,1.5,0.1,2.3,0.5
				c0.6,0.4,1.2,0.8,1.7,1.4v-7.2h2.4v19.8H104.3L104.3,38.2z M96.6,31c-0.1,1.4,0.3,3,1.2,4.1c0.4,0.4,0.8,0.8,1.2,1
				c0.5,0.3,1,0.4,1.5,0.4s1-0.1,1.4-0.4c0.5-0.3,0.9-0.5,1.2-0.9c0.8-1.2,1.2-2.6,1.2-3.9c0.1-1.5-0.3-3.1-1.2-4.4
				c-0.4-0.4-0.8-0.8-1.2-1c-0.5-0.3-1-0.4-1.5-0.4s-1,0.1-1.5,0.4s-0.9,0.5-1.2,1C96.9,28.2,96.5,29.6,96.6,31L96.6,31z"/>
			<path class="st0" d="M110.7,38.2V23.8h2.2v1.9c0.5-0.6,1-1.3,1.8-1.7c0.8-0.4,1.7-0.6,2.6-0.6s1.8,0.1,2.6,0.6
				c0.6,0.5,1.2,1.2,1.4,1.9c0.5-0.8,1.2-1.4,1.9-1.8c0.8-0.4,1.7-0.6,2.6-0.6c0.6,0,1.2,0,1.8,0.3c0.5,0.3,1,0.5,1.5,0.9
				c0.9,1,1.3,2.3,1.2,3.6v9.9h-2.4v-9.1c0-0.6,0-1.3-0.3-1.9c-0.1-0.4-0.5-0.8-0.9-1c-0.4-0.3-0.9-0.4-1.4-0.4s-0.9,0.1-1.4,0.3
				c-0.4,0.1-0.8,0.4-1.2,0.8c-0.8,0.9-1.2,2.1-1,3.2v8.4h-2.4v-9.4c0-0.9-0.1-1.7-0.6-2.4c-0.3-0.3-0.5-0.5-0.9-0.6s-0.8-0.3-1-0.1
				c-0.6,0-1.4,0.1-1.9,0.5c-0.6,0.4-1,0.9-1.3,1.5c-0.3,1-0.5,1.9-0.4,3v7.5C113,38.2,110.7,38.2,110.7,38.2z"/>
			<path class="st0" d="M133.9,21.1v-2.8h2.4v2.8H133.9z M133.9,38.2V23.8h2.4v14.4C136.4,38.2,133.9,38.2,133.9,38.2z"/>
			<path class="st0" d="M140.4,38.2V23.8h2.2v2.1c0.5-0.8,1.2-1.4,1.9-1.8s1.7-0.6,2.6-0.5c0.8,0,1.7,0.1,2.3,0.4s1.2,0.6,1.7,1.3
				c0.4,0.5,0.6,1.2,0.8,1.8c0.1,0.8,0.1,1.5,0.1,2.3v8.9h-2.4v-8.7c0-0.8,0-1.5-0.3-2.2c-0.3-0.5-0.5-0.9-1-1.2
				c-0.5-0.3-1.2-0.4-1.7-0.4c-1,0-1.9,0.4-2.7,1c-0.4,0.5-0.8,1.2-0.9,1.8c-0.3,0.6-0.3,1.3-0.1,2.1v7.8L140.4,38.2z"/>
			<path class="st0" d="M156.1,21.1v-2.8h2.4v2.8H156.1z M156.1,38.2V23.8h2.4v14.4C158.5,38.2,156.1,38.2,156.1,38.2z"/>
			<path class="st0" d="M161.6,33.8l2.4-0.4c0.1,0.9,0.5,1.7,1.2,2.2c0.8,0.5,1.7,0.8,2.6,0.8s1.8-0.1,2.4-0.6
				c0.3-0.1,0.4-0.4,0.6-0.8c0.1-0.3,0.3-0.6,0.3-0.9c0-0.3,0-0.5-0.1-0.8s-0.3-0.4-0.5-0.5c-0.8-0.4-1.7-0.6-2.4-0.8
				c-1.3-0.3-2.6-0.6-3.7-1.2c-0.6-0.3-1.2-0.8-1.5-1.4c-0.3-0.5-0.5-1.2-0.5-1.8c0-0.6,0.1-1.3,0.5-1.8c0.3-0.5,0.6-1,1.2-1.4
				c0.5-0.3,1-0.5,1.5-0.6c0.6-0.3,1.4-0.3,2.1-0.3c1,0,2.1,0.1,3,0.5c0.8,0.3,1.4,0.6,1.9,1.3c0.4,0.6,0.8,1.4,0.9,2.2l-2.3,0.3
				c-0.1-0.6-0.4-1.3-0.9-1.7c-0.6-0.4-1.4-0.6-2.2-0.6c-0.9-0.1-1.7,0.1-2.4,0.5c-0.3,0.1-0.4,0.4-0.5,0.5
				c-0.1,0.3-0.3,0.5-0.3,0.8s0.1,0.6,0.3,0.9c0.3,0.3,0.5,0.5,0.9,0.6c0.3,0,0.9,0.3,2.2,0.6c1.2,0.3,2.4,0.6,3.6,1.2
				c0.6,0.3,1.2,0.8,1.5,1.3c0.4,0.6,0.6,1.3,0.6,2.1s-0.3,1.7-0.8,2.3c-0.5,0.8-1.2,1.3-1.9,1.7c-0.9,0.4-1.9,0.6-3,0.6
				c-1.5,0.1-3-0.3-4.2-1.2C162.6,36.5,161.9,35.3,161.6,33.8L161.6,33.8z"/>
			<path class="st0" d="M181.9,36l0.4,2.2c-0.6,0.1-1.2,0.3-1.8,0.3c-0.8,0-1.4-0.1-2.1-0.4c-0.5-0.3-0.8-0.6-1-1
				c-0.3-0.9-0.4-1.9-0.3-2.8V26h-1.8v-1.9h1.8v-3.5l2.4-1.4v5h2.4v1.9h-2.4v8.4c0,0.5,0,0.9,0.1,1.3c0.1,0.3,0.3,0.4,0.4,0.5
				c0.3,0.1,0.5,0.1,0.9,0.1C181.2,36.2,181.5,36,181.9,36L181.9,36z"/>
			<path class="st0" d="M184.5,38.2V23.8h2.2V26c0.4-0.8,0.9-1.4,1.5-1.9c0.5-0.4,1-0.5,1.5-0.5c0.9,0,1.8,0.3,2.4,0.8l-0.9,2.3
				c-0.5-0.4-1.2-0.5-1.8-0.5c-0.5,0-1,0.1-1.4,0.5s-0.8,0.8-0.9,1.3c-0.3,0.9-0.4,1.9-0.4,2.8v7.6L184.5,38.2z"/>
			<path class="st0" d="M203.4,36.4c-0.8,0.6-1.7,1.3-2.6,1.7c-0.9,0.3-1.8,0.5-2.7,0.5c-1.3,0.1-2.6-0.3-3.6-1.2
				c-0.6-0.6-1-1.4-1.2-2.3c-0.1-0.9,0-1.8,0.4-2.6c0.3-0.5,0.8-1,1.3-1.4s1.2-0.6,1.8-0.8c0.8-0.1,1.4-0.3,2.2-0.4
				c1.4-0.1,3-0.4,4.4-0.9v-0.6c0-0.4,0-0.8-0.1-1.2c-0.1-0.4-0.4-0.6-0.6-0.9c-0.8-0.6-1.8-0.9-2.8-0.9c-0.9-0.1-1.8,0.1-2.6,0.6
				c-0.6,0.5-1,1.3-1.3,2.2l-2.3-0.4c0.1-0.9,0.5-1.7,1-2.4c0.5-0.6,1.3-1.2,2.2-1.4c1-0.4,2.2-0.5,3.2-0.5s2.1,0.1,3,0.4
				c0.6,0.3,1.3,0.6,1.7,1c0.4,0.5,0.6,1,0.8,1.7c0.1,0.8,0.1,1.5,0.1,2.2V32c0,1.4,0,2.8,0.1,4.2c0.1,0.6,0.3,1.2,0.6,1.7h-2.6
				C203.7,37.6,203.4,37.1,203.4,36.4L203.4,36.4z M203.3,31c-1.3,0.5-2.6,0.8-3.9,0.9c-0.8,0.1-1.4,0.3-2.1,0.5
				c-0.4,0.1-0.8,0.4-1,0.8S196,34,196,34.4c0,0.3,0,0.6,0.1,0.9c0.1,0.3,0.3,0.5,0.5,0.8c0.6,0.5,1.4,0.6,2.2,0.6
				c0.9,0,1.7-0.3,2.4-0.6c0.6-0.4,1.3-0.9,1.5-1.7c0.3-0.8,0.5-1.5,0.4-2.4L203.3,31z"/>
			<path class="st0" d="M215,36l0.4,2.2c-0.6,0.1-1.2,0.3-1.8,0.3c-0.8,0-1.4-0.1-2.1-0.4c-0.4-0.3-0.8-0.6-1-1
				c-0.3-0.9-0.4-1.9-0.3-2.8V26h-1.8v-1.9h1.8v-3.5l2.4-1.4v5h2.4v1.9h-2.4v8.4c0,0.5,0,0.9,0.1,1.3c0.1,0.3,0.3,0.4,0.4,0.5
				c0.3,0.1,0.5,0.1,0.8,0.1C214.2,36.2,214.6,36,215,36z"/>
			<path class="st0" d="M217.7,21.1v-2.8h2.4v2.8H217.7z M217.7,38.2V23.8h2.4v14.4C220.1,38.2,217.7,38.2,217.7,38.2z"/>
			<path class="st0" d="M223.2,31c-0.1-1,0.1-2.2,0.5-3.2s1-1.9,1.8-2.7c1.3-1,2.8-1.7,4.5-1.5c0.9,0,1.8,0.1,2.6,0.5
				s1.5,0.9,2.2,1.5c0.6,0.8,1.2,1.5,1.5,2.4c0.4,0.9,0.5,1.9,0.4,2.8c0.1,1.5-0.3,3-0.9,4.4c-0.5,1-1.4,1.9-2.4,2.4
				c-1,0.6-2.3,0.9-3.5,0.9c-0.9,0-1.8-0.1-2.7-0.5s-1.5-0.9-2.2-1.5c-0.6-0.8-1.2-1.7-1.5-2.6C223.2,33.1,223.1,32,223.2,31
				L223.2,31z M225.7,31c-0.1,1.4,0.3,3,1.2,4.1c0.4,0.4,0.9,0.8,1.4,1c0.5,0.3,1,0.4,1.7,0.4c0.5,0,1.2-0.1,1.7-0.4
				c0.5-0.3,1-0.6,1.4-1c0.9-1.2,1.3-2.7,1.2-4.2c0.1-1.4-0.3-2.8-1.2-4c-0.4-0.4-0.8-0.8-1.3-1c-0.5-0.3-1-0.4-1.7-0.4
				c-0.5,0-1.2,0.1-1.7,0.4s-1,0.6-1.4,1C226.1,28,225.5,29.6,225.7,31z"/>
			<path class="st0" d="M239.8,38.2V23.8h2.2v2.1c0.5-0.8,1.2-1.4,1.9-1.8c0.8-0.4,1.7-0.6,2.6-0.5c0.8,0,1.7,0.1,2.4,0.4
				c0.6,0.3,1.2,0.6,1.7,1.3c0.4,0.5,0.6,1.2,0.8,1.8c0.1,0.8,0.1,1.5,0.1,2.3v8.9h-2.4v-8.7c0-0.8,0-1.5-0.3-2.2
				c-0.1-0.5-0.5-0.9-1-1.2c-0.5-0.3-1.2-0.4-1.7-0.4c-1,0-1.9,0.4-2.7,1c-0.4,0.5-0.8,1.2-0.9,1.8c-0.3,0.6-0.3,1.3-0.1,2.1v7.8
				L239.8,38.2z"/>
		</g>
		<g>
			<path class="st0" d="M264,38.2V25.7h-2.2v-1.9h2.2v-1.5c0-0.8,0-1.4,0.3-2.2c0.3-0.6,0.6-1.2,1.3-1.5c0.8-0.4,1.7-0.6,2.4-0.6
				c0.8,0,1.5,0.1,2.3,0.3l-0.4,2.2c-0.5-0.1-0.9-0.1-1.4-0.1c-0.3,0-0.5,0-0.8,0.1s-0.5,0.3-0.8,0.4c-0.4,0.5-0.5,1.2-0.5,1.8V24
				h2.8v1.9h-2.8v12.5C266.5,38.2,264,38.2,264,38.2z"/>
			<path class="st0" d="M270.5,31c-0.1-1,0-2.2,0.4-3.2s0.9-1.9,1.7-2.7c1.3-1,2.8-1.7,4.5-1.5c0.9,0,1.8,0.1,2.6,0.5
				c0.8,0.4,1.5,0.9,2.2,1.5c0.6,0.8,1.2,1.5,1.5,2.4c0.4,0.9,0.5,1.9,0.4,2.8c0.1,1.5-0.3,3-0.9,4.4c-0.5,1-1.4,1.9-2.4,2.4
				c-1,0.6-2.3,0.9-3.5,0.9c-0.9,0-1.8-0.1-2.7-0.5c-0.9-0.4-1.5-0.9-2.2-1.5c-0.6-0.8-1.2-1.7-1.5-2.6
				C270.6,33.1,270.5,32,270.5,31L270.5,31z M273,31c-0.1,1.4,0.3,3,1.2,4.1c0.4,0.4,0.9,0.8,1.4,1c0.5,0.3,1,0.4,1.7,0.4
				c0.5,0,1.2-0.1,1.7-0.4c0.5-0.3,1-0.6,1.4-1c0.9-1.2,1.3-2.7,1.2-4.2c0.1-1.4-0.4-2.8-1.3-4c-0.4-0.4-0.8-0.8-1.3-1
				c-0.5-0.3-1-0.4-1.7-0.4c-0.5,0-1.2,0.1-1.7,0.4s-1,0.6-1.4,1C273.3,28,272.9,29.6,273,31z"/>
			<path class="st0" d="M287.1,38.2V23.8h2.2V26c0.4-0.8,0.9-1.4,1.5-1.9c0.5-0.4,1-0.5,1.5-0.5c0.9,0,1.8,0.3,2.4,0.8l-0.8,2.2
				c-0.5-0.4-1.2-0.5-1.8-0.5c-0.5,0-1,0.1-1.4,0.5s-0.8,0.8-0.9,1.3c-0.3,0.9-0.4,1.9-0.4,2.8v7.6
				C289.5,38.2,287.1,38.2,287.1,38.2z"/>
		</g>
		<g>
			<path class="st0" d="M319,31.3l2.6,0.6c-0.4,1.9-1.4,3.7-3,5c-1.5,1.2-3.3,1.8-5.3,1.7c-1.8,0.1-3.6-0.4-5.1-1.3
				c-1.4-0.9-2.4-2.2-3.1-3.7c-0.8-1.7-1-3.5-1-5.3c0-1.9,0.4-3.7,1.2-5.4c0.8-1.5,1.9-2.7,3.3-3.5s3.1-1.2,4.8-1.2
				c1.8,0,3.6,0.5,5,1.5s2.4,2.4,3,4.2l-2.6,0.6c-0.3-1.3-1-2.3-1.9-3.1c-0.9-0.6-2.1-1-3.3-1c-1.4,0-2.7,0.3-3.9,1
				c-1,0.8-1.8,1.8-2.2,3c-0.4,1.3-0.6,2.6-0.6,3.9c0,1.5,0.3,3,0.8,4.4c0.4,1.2,1.3,2.2,2.3,2.8s2.2,0.9,3.3,0.9
				c1.4,0,2.7-0.4,3.7-1.3C318.1,34.1,318.7,32.7,319,31.3L319,31.3z"/>
			<path class="st0" d="M324.6,43.7l-0.3-2.3c0.4,0.1,0.9,0.3,1.4,0.3c0.4,0,0.9-0.1,1.3-0.3c0.4-0.1,0.6-0.4,0.8-0.8
				c0.3-0.6,0.5-1.2,0.8-1.8c0-0.1,0.1-0.4,0.3-0.6l-5.4-14.4h2.6l3,8.4c0.4,1,0.8,2.2,1,3.3c0.3-1.2,0.6-2.2,1-3.2l3.1-8.4h2.4
				l-5.5,14.7c-0.4,1.2-0.9,2.2-1.4,3.2c-0.4,0.6-0.9,1.3-1.4,1.8c-0.6,0.4-1.3,0.5-1.9,0.5C325.8,44,325.1,43.9,324.6,43.7z"/>
			<path class="st0" d="M341.1,38.2h-2.3V18.4h2.4v7.1c0.5-0.6,1-1.2,1.7-1.4c0.6-0.4,1.4-0.5,2.2-0.5c0.9,0,1.7,0.1,2.4,0.5
				c0.8,0.4,1.4,0.9,1.9,1.5s0.9,1.5,1.2,2.3c0.3,0.9,0.4,1.9,0.4,3c0.1,2.1-0.5,4.1-1.8,5.7c-0.5,0.6-1.2,1.2-1.9,1.4
				c-0.8,0.4-1.5,0.5-2.4,0.5c-0.8,0-1.5-0.1-2.3-0.5c-0.6-0.4-1.3-0.9-1.7-1.5L341.1,38.2z M341.1,30.9c-0.1,1.3,0.1,2.6,0.8,3.7
				c0.3,0.6,0.8,1,1.3,1.4s1.2,0.5,1.8,0.5c0.5,0,1-0.1,1.5-0.4c0.5-0.3,0.9-0.6,1.3-1c0.8-1.3,1.2-2.7,1.2-4.1s-0.4-2.8-1.2-4.1
				c-0.3-0.4-0.8-0.8-1.2-1c-0.5-0.3-1-0.4-1.5-0.4s-1,0.1-1.5,0.4s-0.9,0.6-1.3,1C341.3,28,341,29.5,341.1,30.9L341.1,30.9z"/>
			<path class="st0" d="M364.4,33.6l2.6,0.3c-0.3,1.4-1,2.6-2.2,3.5c-1.4,0.9-3.1,1.3-4.6,1.2c-1.7-0.1-3.2-0.8-4.4-1.9
				c-1.3-1.5-2.1-3.5-1.9-5.4c-0.1-2.1,0.6-4.1,1.9-5.7c0.6-0.6,1.4-1.2,2.2-1.5s1.7-0.5,2.6-0.5s1.8,0.1,2.6,0.5
				c0.8,0.4,1.5,0.9,2.2,1.5c1.3,1.5,1.9,3.5,1.8,5.5c0,0.1,0,0.4,0,0.6h-10.7c0,1.3,0.5,2.6,1.3,3.6c0.4,0.4,0.9,0.8,1.4,0.9
				c0.5,0.3,1,0.4,1.7,0.3c0.8,0,1.7-0.3,2.3-0.6C363.6,35.3,364.1,34.5,364.4,33.6L364.4,33.6z M356.4,29.7h8c0-1-0.4-1.9-0.9-2.7
				c-0.4-0.5-0.8-0.8-1.3-1c-0.5-0.3-1.2-0.4-1.7-0.4s-1,0.1-1.5,0.3c-0.5,0.3-0.9,0.5-1.3,0.9C356.9,27.4,356.4,28.6,356.4,29.7
				L356.4,29.7z"/>
			<path class="st0" d="M370.2,38.2V23.8h2.2V26c0.4-0.8,0.9-1.4,1.5-1.9c0.5-0.4,1-0.5,1.5-0.5c0.9,0,1.8,0.3,2.4,0.8l-0.9,2.3
				c-0.5-0.4-1.2-0.5-1.8-0.5c-0.5,0-1,0.1-1.4,0.5s-0.8,0.8-0.9,1.3c-0.3,0.9-0.4,1.9-0.4,2.8v7.6L370.2,38.2z"/>
		</g>
		<g>
			<g>
				<path class="st0" d="M74.4,60.2l2.4-0.3c0.1,0.9,0.4,1.7,0.8,2.4c0.5,0.6,1.2,1.3,1.9,1.5c0.9,0.4,2.1,0.6,3.1,0.6
					c0.9,0,1.8-0.1,2.7-0.4c0.6-0.3,1.3-0.6,1.7-1.3c0.4-0.5,0.5-1,0.5-1.7s-0.1-1.2-0.5-1.7c-0.5-0.5-1.2-0.9-1.8-1.2
					c-1.2-0.4-2.3-0.8-3.5-1c-1.3-0.3-2.7-0.6-3.9-1.3c-0.9-0.4-1.5-1-2.1-1.8c-0.5-0.8-0.8-1.5-0.6-2.4c0-1,0.3-1.9,0.9-2.8
					c0.6-0.9,1.5-1.5,2.4-1.9c1.2-0.4,2.4-0.6,3.6-0.6c1.3,0,2.7,0.3,3.9,0.6c1,0.4,1.9,1.2,2.6,2.1c0.6,0.9,0.9,2.1,1,3.1L87,52.4
					c0-0.5-0.1-1-0.4-1.5s-0.5-0.9-1-1.3c-1-0.8-2.2-1-3.5-1c-1.2,0-2.4,0.3-3.3,0.9c-0.4,0.3-0.6,0.5-0.8,0.9
					c-0.1,0.4-0.3,0.8-0.3,1.2s0,0.6,0.1,1c0.1,0.3,0.4,0.5,0.6,0.8c1.2,0.8,2.6,1.3,3.9,1.4c1.5,0.3,3,0.8,4.4,1.3
					c1,0.4,1.9,1,2.6,1.9c0.5,0.9,0.9,1.8,0.8,2.8c0,1-0.4,2.1-0.9,3c-0.6,1-1.5,1.7-2.6,2.2c-1.3,0.5-2.6,0.8-3.9,0.8
					c-1.5,0-3.1-0.3-4.5-0.8c-1.2-0.5-2.2-1.3-2.8-2.3C74.8,62.7,74.4,61.4,74.4,60.2L74.4,60.2z"/>
				<path class="st0" d="M103.6,61.9l2.6,0.3c-0.3,1.4-1,2.6-2.2,3.5c-1.4,0.9-3.1,1.3-4.6,1.2c-1.7-0.1-3.2-0.8-4.4-1.9
					c-1.3-1.5-1.9-3.5-1.8-5.4c-0.1-2.1,0.6-4.1,1.9-5.7c0.6-0.6,1.4-1.2,2.2-1.5c0.8-0.4,1.7-0.5,2.6-0.5s1.8,0.1,2.6,0.5
					c0.8,0.4,1.5,0.9,2.2,1.5c1.3,1.5,1.8,3.6,1.7,5.5V60H95.6c0,1.3,0.5,2.6,1.3,3.6c0.4,0.4,0.9,0.8,1.4,0.9
					c0.5,0.3,1,0.4,1.7,0.3c0.8,0,1.7-0.3,2.3-0.6C102.7,63.7,103.3,62.8,103.6,61.9L103.6,61.9z M95.6,58h8c0-1-0.4-1.9-0.9-2.7
					c-0.4-0.5-0.8-0.8-1.3-1c-0.5-0.3-1.2-0.4-1.7-0.4s-1,0.1-1.5,0.3c-0.5,0.3-0.9,0.5-1.3,0.9C96,55.8,95.6,56.9,95.6,58L95.6,58z
					"/>
				<path class="st0" d="M118.8,61.4l2.4,0.3c-0.1,1.5-0.9,2.8-1.9,3.9c-1,0.9-2.4,1.4-3.9,1.4c-0.9,0-1.8-0.1-2.6-0.5
					c-0.8-0.4-1.5-0.9-2.2-1.5c-1.3-1.5-1.9-3.5-1.8-5.5c0-1.4,0.3-2.8,0.8-4.1c0.5-1.2,1.3-2.1,2.3-2.6s2.2-0.9,3.5-0.9
					c1.4-0.1,2.8,0.4,3.9,1.2c1,0.9,1.7,2.1,1.9,3.3l-2.3,0.4c-0.1-0.9-0.5-1.5-1.2-2.2c-0.5-0.5-1.3-0.8-2.1-0.8
					c-0.5,0-1.2,0.1-1.7,0.4c-0.5,0.3-1,0.5-1.4,1c-0.9,1.2-1.3,2.7-1.2,4.1c-0.1,1.5,0.3,3,1.2,4.2c0.4,0.4,0.8,0.8,1.3,1
					c0.5,0.3,1,0.4,1.5,0.3c0.9,0,1.7-0.3,2.3-0.9C118.4,63.3,118.8,62.3,118.8,61.4L118.8,61.4z"/>
				<path class="st0" d="M132.9,66.5v-2.1c-0.5,0.8-1.2,1.4-1.9,1.8c-0.8,0.4-1.7,0.6-2.6,0.6c-0.8,0-1.7-0.1-2.3-0.5
					c-0.6-0.3-1.2-0.6-1.7-1.3c-0.4-0.5-0.6-1.2-0.8-1.9c-0.1-0.8-0.1-1.5-0.1-2.3V52h2.4v8c0,0.9,0,1.7,0.1,2.6
					c0.1,0.6,0.5,1.2,1,1.5c0.5,0.4,1.2,0.5,1.8,0.5c0.8,0,1.4-0.3,2.1-0.5c0.6-0.4,1-0.9,1.4-1.5c0.3-0.9,0.4-1.8,0.4-2.8V52h2.4
					v14.4L132.9,66.5z"/>
				<path class="st0" d="M139.2,66.5V52.1h2.2v2.2c0.4-0.8,0.9-1.4,1.5-1.9c0.5-0.3,1-0.5,1.5-0.5c0.9,0,1.8,0.3,2.6,0.8l-0.9,2.3
					c-0.5-0.4-1.2-0.5-1.8-0.5c-0.5,0-1,0.1-1.4,0.5s-0.8,0.8-0.9,1.3c-0.3,0.9-0.4,1.9-0.4,2.8v7.6L139.2,66.5z"/>
				<path class="st0" d="M148.7,49.5v-2.8h2.4v2.8H148.7z M148.7,66.5V52.1h2.4v14.4C151.2,66.5,148.7,66.5,148.7,66.5z"/>
				<path class="st0" d="M160.4,64.3l0.4,2.2c-0.6,0.1-1.3,0.3-1.8,0.3c-0.6,0-1.4-0.1-2.1-0.4c-0.5-0.3-0.8-0.6-1-1
					c-0.3-0.9-0.4-1.9-0.3-2.8v-8.2h-1.8v-1.9h1.8V49l2.4-1.4v5h2.4v1.7H158v8.4c0,0.5,0,0.9,0.1,1.3c0.1,0.3,0.3,0.4,0.4,0.5
					c0.3,0.1,0.5,0.3,0.9,0.1C159.7,64.5,160.1,64.5,160.4,64.3z"/>
				<path class="st0" d="M162.9,72.1l-0.3-2.3c0.5,0.1,0.9,0.3,1.4,0.3c0.4,0,0.9,0,1.3-0.3c0.4-0.1,0.6-0.4,0.8-0.8
					c0.3-0.6,0.5-1.2,0.8-1.8c0-0.1,0.1-0.4,0.3-0.6l-5.4-14.4h2.6l3,8.4c0.4,1,0.8,2.2,1,3.3c0.3-1.2,0.6-2.2,1-3.2l3.1-8.4h2.4
					L169.5,67c-0.4,1.2-0.9,2.2-1.4,3.2c-0.4,0.6-0.9,1.3-1.5,1.8c-0.6,0.4-1.3,0.5-1.9,0.5C164,72.4,163.4,72.3,162.9,72.1
					L162.9,72.1z"/>
				<path class="st0" d="M177.8,66.5v-2.8h2.8v2.8c0,0.9-0.1,1.7-0.5,2.4c-0.4,0.6-1,1.2-1.7,1.4l-0.6-1c0.5-0.3,0.9-0.5,1.2-1
					c0.3-0.6,0.4-1.3,0.4-1.9L177.8,66.5z"/>
			</g>
			<g>
				<path class="st0" d="M193.1,66.5V52.1h2.2v2.1c0.4-0.6,1-1.3,1.8-1.7s1.7-0.6,2.6-0.6s1.8,0.1,2.6,0.6c0.6,0.5,1.2,1.2,1.4,1.9
					c0.5-0.8,1.2-1.4,1.9-1.8c0.8-0.4,1.7-0.6,2.6-0.6c0.6,0,1.2,0,1.8,0.3c0.5,0.3,1,0.5,1.5,0.9c0.9,1,1.3,2.3,1.2,3.6v9.9h-2.4
					v-9.1c0-0.6,0-1.3-0.3-1.9c-0.1-0.4-0.5-0.8-0.9-1c-0.4-0.3-0.9-0.4-1.4-0.4s-0.9,0.1-1.4,0.3c-0.4,0.1-0.8,0.4-1.2,0.8
					c-0.4,0.4-0.6,0.9-0.8,1.5c-0.1,0.5-0.3,1.2-0.1,1.7V67h-2.4v-9.4c0-0.9-0.1-1.7-0.6-2.4c-0.3-0.3-0.5-0.5-0.9-0.6
					s-0.8-0.3-1-0.1c-0.6,0-1.4,0.1-1.9,0.5c-0.6,0.4-1,0.9-1.3,1.5c-0.3,1-0.4,1.9-0.4,3V67h-2.4v-0.5H193.1z"/>
				<path class="st0" d="M215.5,59.4c-0.1-1,0.1-2.2,0.5-3.2s1-1.9,1.8-2.7c1.3-1,2.8-1.7,4.5-1.5c0.9,0,1.8,0.1,2.6,0.5
					s1.5,0.9,2.2,1.5c0.6,0.8,1.2,1.5,1.5,2.4s0.5,1.9,0.4,2.8c0.1,1.5-0.3,3-0.9,4.4c-0.5,1-1.4,1.9-2.4,2.4
					c-1,0.6-2.3,0.9-3.5,0.9c-0.9,0-1.8-0.1-2.7-0.5s-1.5-0.9-2.2-1.5C216,63.4,215.4,61.5,215.5,59.4L215.5,59.4z M218,59.4
					c-0.1,1.4,0.3,3,1.2,4.1c0.4,0.4,0.9,0.8,1.4,1c0.5,0.3,1,0.4,1.7,0.4c0.6,0,1.2-0.1,1.7-0.4s1-0.6,1.4-1
					c0.9-1.2,1.3-2.7,1.2-4.2c0.1-1.4-0.4-2.8-1.2-4c-0.4-0.4-0.9-0.8-1.4-1c-0.5-0.3-1-0.4-1.7-0.4c-0.6,0-1.2,0.1-1.7,0.4
					c-0.5,0.3-1,0.5-1.4,1C218.3,56.5,218,57.9,218,59.4L218,59.4z"/>
				<path class="st0" d="M241.4,66.5v-1.8c-0.4,0.6-1,1.3-1.7,1.7c-0.6,0.4-1.5,0.5-2.3,0.5c-1.2,0-2.2-0.3-3.1-0.9
					c-1-0.6-1.8-1.5-2.2-2.6c-0.5-1.3-0.8-2.6-0.8-3.9s0.3-2.7,0.8-3.9c0.4-1.2,1.2-2.1,2.2-2.7c0.9-0.6,2.1-0.9,3.2-0.9
					c0.8,0,1.5,0.1,2.3,0.5c0.6,0.4,1.2,0.8,1.7,1.4v-7.2h2.4v19.8h-2.6v0H241.4z M233.7,59.4c-0.1,1.4,0.3,3,1.2,4.1
					c0.4,0.4,0.8,0.8,1.2,1c0.5,0.3,1,0.4,1.5,0.4s1-0.1,1.5-0.4s0.9-0.5,1.2-1c0.8-1.2,1.2-2.6,1.2-3.9c0.1-1.5-0.3-3.1-1.2-4.4
					c-0.4-0.4-0.8-0.8-1.3-1c-0.5-0.3-1-0.4-1.5-0.4s-1,0.1-1.5,0.4c-0.5,0.3-0.9,0.5-1.2,1C234,56.5,233.7,57.9,233.7,59.4
					L233.7,59.4z"/>
				<path class="st0" d="M257.1,64.7c-0.8,0.6-1.7,1.3-2.6,1.7c-0.9,0.3-1.8,0.5-2.7,0.5c-1.3,0.1-2.6-0.3-3.6-1.2
					c-0.4-0.4-0.8-0.8-1-1.3c-0.3-0.5-0.4-1-0.3-1.7c0-0.6,0.1-1.4,0.5-1.9c0.3-0.5,0.8-1,1.3-1.4s1.2-0.6,1.7-0.8
					c0.8-0.1,1.4-0.3,2.2-0.4c1.4-0.1,3-0.4,4.4-0.9c0-0.4,0-0.5,0-0.6c0-0.4,0-0.8-0.1-1.2s-0.3-0.6-0.6-1
					c-0.8-0.6-1.8-0.9-2.8-0.9c-0.9-0.1-1.8,0.1-2.6,0.6c-0.6,0.5-1,1.3-1.2,2.2l-2.3-0.4c0.1-0.9,0.5-1.7,1-2.4
					c0.5-0.6,1.3-1.2,2.2-1.4c1-0.4,2.2-0.5,3.2-0.5s2.1,0.1,3,0.4c0.6,0.3,1.3,0.6,1.7,1c0.4,0.5,0.6,1,0.8,1.7
					c0.1,0.8,0.1,1.5,0.1,2.2v3.2c0,1.4,0,2.8,0.1,4.2c0.1,0.6,0.4,1.2,0.6,1.7h-2.6C257.3,66,257.2,65.4,257.1,64.7L257.1,64.7z
					 M256.9,59.3c-1.3,0.5-2.6,0.8-3.9,0.9c-0.8,0.1-1.4,0.3-2.1,0.5c-0.4,0.1-0.8,0.4-0.9,0.8c-0.3,0.4-0.4,0.9-0.3,1.4
					c0.1,0.5,0.3,1,0.6,1.3c0.6,0.5,1.4,0.6,2.2,0.6c0.9,0,1.7-0.3,2.4-0.6c0.6-0.4,1.3-0.9,1.7-1.7c0.3-0.8,0.4-1.5,0.4-2.4
					L256.9,59.3z"/>
			</g>
		</g>
	</g>
</g>
<g>
	<path class="st0" d="M2.2,45.1h2.6c0.3,0,0.6,0.1,0.9,0.3H3.1C2.8,45.3,2.5,45.2,2.2,45.1z"/>
	<path class="st0" d="M2.2,45.2h2.6c0.1,0,0.2,0,0.3,0H2.6C2.5,45.1,2.4,45.1,2.2,45.2"/>
	<path class="st0" d="M2.6,45.2h2.6c0.2,0.1,0.3,0.1,0.5,0.2H3.1C2.9,45.3,2.8,45.3,2.6,45.2z"/>
	<path class="st0" d="M3.1,45.4h2.6l4,2.3H7.1L3.1,45.4z"/>
	<path class="st0" d="M15.1,22.6h2.6c0.3,0,0.6,0.1,0.9,0.3H16C15.7,22.7,15.4,22.6,15.1,22.6z"/>
	<path class="st0" d="M15.2,22.6h2.6c0.1,0,0.2,0,0.4,0.1h-2.6C15.5,22.6,15.3,22.6,15.2,22.6"/>
	<path class="st0" d="M15.6,22.7h2.6c0.2,0.1,0.3,0.1,0.5,0.2h-2.6C15.9,22.8,15.7,22.7,15.6,22.7z"/>
	<path class="st0" d="M16,22.9h2.6l5,2.8H21L16,22.9z"/>
	<path class="st0" d="M7.1,47.7h2.6c1.3,0.8,2.3,2,2.9,3.4c0.2,0.4,3.1,7.7,7.1,12.2c2.7,2.7,5.7,5.1,9,7.2c0.6,0.3,1.3,0.5,2,0.5
		H28c-0.7,0-1.4-0.2-2-0.5c-3.2-2.1-6.3-4.5-9-7.2c-4-4.5-6.9-11.8-7.1-12.2C9.4,49.7,8.3,48.5,7.1,47.7z"/>
	<path class="st0" d="M7.1,47.7h2.6c1.3,0.8,2.3,2,2.9,3.4c0.2,0.4,3.1,7.7,7.1,12.2c2.7,2.7,5.7,5.1,9,7.2c0.3,0.2,0.5,0.3,0.8,0.4
		h-2.6c-0.3-0.1-0.6-0.2-0.8-0.4c-3.2-2.1-6.3-4.5-9-7.2c-4-4.5-6.9-11.8-7.1-12.2C9.4,49.7,8.3,48.5,7.1,47.7"/>
	<path class="st0" d="M26.9,70.8h2.6c0.3,0.1,0.6,0.1,0.9,0.2h-2.6C27.5,70.9,27.2,70.8,26.9,70.8"/>
	<path class="st0" d="M28.8,78.9h2.6C31.1,79,30.9,79,30.7,79h-2.6C28.3,79,28.5,79,28.8,78.9z"/>
	<path class="st0" d="M28.8,78.9h2.6C31.1,79,30.9,79,30.7,79h-2.6C28.3,79,28.5,79,28.8,78.9z"/>
	<path class="st0" d="M29.5,78.5h2.6l-0.8,0.4h-2.6L29.5,78.5z"/>
	<path class="st0" d="M29.5,78.5h2.6l-0.8,0.4h-2.6L29.5,78.5z"/>
	<path class="st0" d="M21,25.7h2.6l24.1,21.5h-2.6L21,25.7z"/>
	<path class="st0" d="M21,25.7h2.6l25.7,14.6h-2.6L21,25.7z"/>
	<path class="st0" d="M46.4,50.6H49c0.2,1,0.3,2,0.3,3.1c0,2-0.3,4.1-0.9,6c-1.6,5.6-16.3,18.8-16.3,18.8h-2.6
		c0,0,14.7-13.1,16.3-18.8c0.6-2,0.9-4,0.9-6C46.8,52.6,46.7,51.6,46.4,50.6z"/>
	<path class="st0" d="M46.4,50.6H49c0.2,1,0.3,2,0.3,3.1c0,2-0.3,4.1-0.9,6c-1.6,5.6-16.3,18.8-16.3,18.8h-2.6
		c0,0,14.7-13.1,16.3-18.8c0.6-2,0.9-4,0.9-6C46.8,52.6,46.7,51.6,46.4,50.6"/>
	<path class="st0" d="M46.7,40.3h2.6l4.1,2.3h-2.6L46.7,40.3z"/>
	<path class="st0" d="M46.7,40.3h2.6l4.1,2.3h-2.6L46.7,40.3z"/>
	<path class="st0" d="M50.8,42.6h2.6l2.1,1.2h-2.6L50.8,42.6z"/>
	<path class="st0" d="M54.5,47.1h2.6l-0.3,1.1c-0.3,1.2-0.7,2.4-1.1,3.6c-1.9,5.9-5,11.3-9.1,16C43,72,34.5,77.1,34.1,77.3
		c-0.7,0.4-1.4,0.8-1.9,1.1h-2.6c0.5-0.3,1.3-0.7,2-1.1c0.4-0.3,8.9-5.4,12.6-9.6c4.1-4.7,7.2-10.1,9.1-16c0.4-1.2,0.8-2.4,1.1-3.6
		L54.5,47.1z"/>
	<path class="st0" d="M54.5,47.1h2.6l-0.3,1.1c-0.3,1.2-0.7,2.4-1.1,3.6c-1.9,5.9-5,11.3-9.1,16C43,72,34.5,77.1,34.1,77.3
		c-0.7,0.4-1.4,0.8-1.9,1.1h-2.6c0.5-0.3,1.3-0.7,2-1.1c0.4-0.3,8.9-5.4,12.6-9.6c4.1-4.7,7.2-10.1,9.1-16c0.4-1.2,0.8-2.4,1.1-3.6
		L54.5,47.1z"/>
	<path class="st0" d="M52.9,43.8h2.6c0.6,0.3,1,0.8,1.3,1.4c0.3,0.6,0.4,1.2,0.3,1.9h-2.6c0.1-0.6,0-1.3-0.3-1.9
		C53.9,44.6,53.5,44.1,52.9,43.8z"/>
	<path class="st0" d="M52.9,43.8h2.6c0.6,0.3,1,0.8,1.3,1.4c0.3,0.6,0.4,1.2,0.3,1.9h-2.6c0.1-0.6,0-1.3-0.3-1.9
		C53.9,44.6,53.5,44.1,52.9,43.8z"/>
	<path class="st0" d="M9.4,21.7H6.8v7.7h2.6V21.7z"/>
	<path class="st0" d="M6.8,29.3h2.6c-0.1,0.8,0,1.6,0.4,2.2c0.4,0.7,1,1.2,1.7,1.5H8.9c-0.7-0.3-1.3-0.8-1.7-1.5
		C6.8,30.9,6.7,30.1,6.8,29.3z"/>
	<path class="st0" d="M6.8,29.3h2.6c-0.1,0.8,0,1.6,0.4,2.2c0.4,0.7,1,1.2,1.7,1.5H8.9c-0.7-0.3-1.3-0.8-1.7-1.5
		C6.8,30.9,6.7,30.1,6.8,29.3"/>
	<path class="st0" d="M9,18.3h2.6c-0.6,0.3-1.1,0.8-1.5,1.4c-0.4,0.6-0.6,1.3-0.6,2H6.8c0-0.7,0.3-1.4,0.6-2
		C7.8,19.1,8.4,18.6,9,18.3z"/>
	<path class="st0" d="M9,18.3h2.6c-0.6,0.3-1.1,0.8-1.5,1.4c-0.4,0.6-0.6,1.3-0.6,2H6.8c0-0.7,0.3-1.4,0.6-2
		C7.8,19.1,8.4,18.6,9,18.3z"/>
	<path class="st0" d="M27.9,0h2.6C28,3.3,19,10.1,15.4,12.4c-1.1,0.6-2,1.5-2.6,2.5c-0.7,1-1.1,2.2-1.3,3.4H8.9
		c0.2-1.2,0.6-2.4,1.3-3.4c0.7-1,1.6-1.9,2.6-2.5C16.4,10.1,25.4,3.3,27.9,0z"/>
	<path class="st0" d="M27.9,0h2.6C28,3.3,19,10.1,15.4,12.4c-1.1,0.6-2,1.5-2.6,2.5c-0.7,1-1.1,2.2-1.3,3.4H8.9
		c0.2-1.2,0.6-2.4,1.3-3.4c0.7-1,1.6-1.9,2.6-2.5C16.4,10.1,25.4,3.3,27.9,0z"/>
	<path class="st0" d="M28.1,8.7h2.6c-0.7,0-1.4,0.2-2,0.5c-0.1,0-1.6,1.1-4.2,2.6c-4.2,2.5-12.5,6.3-13,6.5H8.9
		c0.4-0.2,8.7-3.9,13-6.5c2.6-1.5,4.1-2.6,4.2-2.6C26.7,8.9,27.4,8.7,28.1,8.7z"/>
	<path class="st0" d="M28.1,8.7h2.6c-0.7,0-1.4,0.2-2,0.5c-0.1,0-1.6,1.1-4.2,2.6c-4.2,2.5-12.5,6.3-13,6.5H8.9
		c0.4-0.2,8.7-3.9,13-6.5c2.6-1.5,4.1-2.6,4.2-2.6C26.7,8.9,27.4,8.7,28.1,8.7z"/>
	<path class="st0" d="M28.1,14.2h2.6c0.1,0,0.2,0,0.3,0h-2.6C28.3,14.1,28.2,14.1,28.1,14.2z"/>
	<path class="st0" d="M8.9,33.1h2.6l24.1,21.5H33L8.9,33.1z"/>
	<path class="st0" d="M28.3,14.2h2.6l5.2,3.1h-2.6L28.3,14.2z"/>
	<path class="st0" d="M33.6,17.3h2.6c0.1,0.1,0.2,0.1,0.2,0.3c0,0.1,0.1,0.2,0,0.3c0,0.1-0.1,0.2-0.2,0.3c-0.1,0.1-0.2,0.1-0.3,0.1
		h-2.6c0.1,0,0.2,0,0.3-0.1c0.1-0.1,0.2-0.2,0.2-0.3c0-0.1,0-0.2,0-0.3C33.8,17.5,33.7,17.4,33.6,17.3z"/>
	<path class="st0" d="M33.6,17.3h2.6c0.1,0.1,0.2,0.1,0.2,0.3c0,0.1,0.1,0.2,0,0.3c0,0.1-0.1,0.2-0.2,0.3c-0.1,0.1-0.2,0.1-0.3,0.1
		h-2.6c0.1,0,0.2,0,0.3-0.1c0.1-0.1,0.2-0.2,0.2-0.3c0-0.1,0-0.2,0-0.3C33.7,17.5,33.7,17.4,33.6,17.3"/>
	<path class="st0" d="M8.9,33.1h2.6l27,15.3h-2.6L8.9,33.1z"/>
	<path class="st0" d="M37.9,55h2.6c0,0.9-0.5,1.5-1.2,1.5h-2.6C37.4,56.5,37.9,55.9,37.9,55z"/>
	<path class="st0" d="M37.9,55h2.6c0,0.9-0.5,1.5-1.2,1.5h-2.6C37.4,56.5,37.9,55.9,37.9,55z"/>
	<path class="st0" d="M35.9,48.4h2.6c0.6,0.4,1.1,0.9,1.4,1.5c0.4,0.6,0.6,1.3,0.6,2h-2.6c0-0.7-0.2-1.4-0.6-2
		C37,49.3,36.5,48.8,35.9,48.4z"/>
	<path class="st0" d="M35.9,48.4h2.6c0.6,0.4,1.1,0.9,1.4,1.5c0.4,0.6,0.6,1.3,0.6,2h-2.6c0-0.7-0.2-1.4-0.6-2
		C37,49.3,36.5,48.8,35.9,48.4z"/>
	<path class="st0" d="M40.5,51.9h-2.6V55h2.6V51.9z"/>
	<path class="st0" d="M28.1,0h2.6c0.4,0,0.7,0.1,1,0.3l1,0.7l0.5,0.4l1.6,1.1C36,3.4,38,4.6,40.3,6c4.5,2.5,9.1,4.7,13.8,6.7
		c1.2,0.5,2.7,1.1,3.4,1.3c0.6,0.2,1.2,1.4,1.2,2.7h-2.6c0-1.3-0.5-2.5-1.2-2.7c-0.6-0.2-2.2-0.8-3.4-1.3c-4.7-2-9.4-4.2-13.9-6.7
		c-2.3-1.4-4.2-2.6-5.5-3.5l-1.6-1.1L30.1,1l-1-0.7C28.8,0.1,28.4,0,28.1,0z"/>
	<path class="st0" d="M28.2,0h2.6c0.1,0,0.3,0,0.4,0.1h-2.6C28.4,0,28.3,0,28.2,0"/>
	<path class="st0" d="M28.6,0.1h2.6c0.2,0,0.3,0.1,0.5,0.2l1,0.7l0.5,0.4l1.6,1.1C36,3.4,38,4.6,40.3,6c4.5,2.5,9.1,4.7,13.8,6.7
		c1.2,0.5,2.7,1.1,3.4,1.3c0.6,0.2,1.2,1.4,1.2,2.7h-2.6c0-1.3-0.5-2.5-1.2-2.7c-0.6-0.2-2.2-0.8-3.4-1.3c-4.7-2-9.4-4.2-13.9-6.7
		c-2.3-1.4-4.2-2.6-5.5-3.5l-1.6-1.1L30.1,1l-1-0.7C28.9,0.2,28.7,0.1,28.6,0.1z"/>
	<path class="st0" d="M58.7,16.7h-2.6v12.4h2.6V16.7z"/>
	<path class="st0" d="M56.1,32.5h2.6v1.1c0,1.1,0,1.7,0,1.7c0,0.9-0.6,1.5-1.3,1.5h-2.6c0.7,0,1.2-0.5,1.3-1.5c0,0,0-0.6,0-1.7V32.5
		z"/>
	<path class="st0" d="M56.1,32.5h2.6v1.1c0,1.1,0,1.7,0,1.7c0,0.9-0.6,1.5-1.3,1.5h-2.6c0.7,0,1.2-0.5,1.3-1.5c0,0,0-0.6,0-1.7V32.5
		z"/>
	<path class="st0" d="M56.1,29.1h2.6c0,1.3,0,2.9,0,3.5h-2.6C56.1,31.9,56.1,30.4,56.1,29.1z"/>
	<path class="st0" d="M56.1,29.1h2.6c0,1.3,0,2.9,0,3.5h-2.6C56.1,31.9,56,30.4,56.1,29.1"/>
	
		<linearGradient id="SVGID_1_" gradientUnits="userSpaceOnUse" x1="54.4998" y1="91.5014" x2="8.4735" y2="3.189" gradientTransform="matrix(1 0 0 -1 0 79)">
		<stop  offset="0" style="stop-color:#B5B5B6"/>
		<stop  offset="0.16" style="stop-color:#F4F4F4"/>
		<stop  offset="0.33" style="stop-color:#9FA0A0"/>
		<stop  offset="0.5" style="stop-color:#FFFFFF"/>
		<stop  offset="0.56" style="stop-color:#E1E1E1"/>
		<stop  offset="0.67" style="stop-color:#9FA0A0"/>
		<stop  offset="0.84" style="stop-color:#FFFFFF"/>
		<stop  offset="1" style="stop-color:#898989"/>
	</linearGradient>
	<path class="st1" d="M15.1,22.6c0.3,0,0.6,0.1,0.9,0.3l5,2.8l24.1,21.5L16,30.7c-0.6-0.4-1.1-0.9-1.5-1.5c-0.4-0.6-0.6-1.3-0.6-2
		v-3.1C14,23.2,14.4,22.6,15.1,22.6z"/>
	
		<linearGradient id="SVGID_2_" gradientUnits="userSpaceOnUse" x1="57.0289" y1="90.1955" x2="10.9897" y2="1.8831" gradientTransform="matrix(1 0 0 -1 0 79)">
		<stop  offset="0" style="stop-color:#B5B5B6"/>
		<stop  offset="0.16" style="stop-color:#F4F4F4"/>
		<stop  offset="0.33" style="stop-color:#9FA0A0"/>
		<stop  offset="0.5" style="stop-color:#FFFFFF"/>
		<stop  offset="0.56" style="stop-color:#E1E1E1"/>
		<stop  offset="0.67" style="stop-color:#9FA0A0"/>
		<stop  offset="0.84" style="stop-color:#FFFFFF"/>
		<stop  offset="1" style="stop-color:#898989"/>
	</linearGradient>
	<path class="st2" d="M2.2,45.1c0.3,0,0.6,0.1,0.9,0.3l4,2.3c1.3,0.8,2.3,2,2.9,3.4c0.2,0.4,3.1,7.7,7.1,12.2c2.7,2.7,5.8,5.1,9,7.2
		c0.6,0.3,1.3,0.5,2,0.5c0.7,0,1.4-0.2,2-0.5c3.2-2.1,6.3-4.5,9-7.2c2.9-3.3,5.2-7.1,6.8-11.2c0.5-1.2,0.6-1.4,0.6-1.5
		c0.2,1,0.4,2.1,0.3,3.1c0,2-0.3,4.1-0.9,6c-1.6,5.6-16.3,18.8-16.3,18.8l-0.8,0.4C28.5,79,28.3,79,28,79c-0.2,0-0.5,0-0.7-0.1
		c-0.4-0.2-1.6-0.9-2.7-1.5c-0.4-0.3-8.9-5.4-12.6-9.6c-3.4-3.9-6.1-8.3-8-13.1c-1-2.6-1.8-5.3-2.5-8.1C1.3,45.7,1.6,45.1,2.2,45.1z
		"/>
	
		<linearGradient id="SVGID_3_" gradientUnits="userSpaceOnUse" x1="62.0897" y1="87.5438" x2="16.0505" y2="-0.7555" gradientTransform="matrix(1 0 0 -1 0 79)">
		<stop  offset="0" style="stop-color:#B5B5B6"/>
		<stop  offset="0.16" style="stop-color:#F4F4F4"/>
		<stop  offset="0.33" style="stop-color:#9FA0A0"/>
		<stop  offset="0.5" style="stop-color:#FFFFFF"/>
		<stop  offset="0.56" style="stop-color:#E1E1E1"/>
		<stop  offset="0.67" style="stop-color:#9FA0A0"/>
		<stop  offset="0.84" style="stop-color:#FFFFFF"/>
		<stop  offset="1" style="stop-color:#898989"/>
	</linearGradient>
	<path class="st3" d="M21,25.7l25.7,14.6l4.1,2.3l2.1,1.2c0.5,0.3,1,0.8,1.3,1.4c0.3,0.6,0.4,1.2,0.3,1.8l-0.3,1.1
		c-0.3,1.2-0.6,2.4-1.1,3.6c-1.9,5.9-5,11.3-9.1,16c-3.7,4.2-12.2,9.3-12.6,9.6c-0.7,0.4-1.4,0.8-2,1.1c0,0,14.7-13.1,16.3-18.8
		c0.6-2,0.9-4,0.9-6c0-1-0.1-2.1-0.3-3.1c0.2-0.6,0.2-1.3-0.1-1.9c-0.2-0.6-0.7-1.1-1.2-1.5L21,25.7z"/>
	
		<linearGradient id="SVGID_4_" gradientUnits="userSpaceOnUse" x1="44.151" y1="96.9053" x2="-1.8883" y2="8.5929" gradientTransform="matrix(1 0 0 -1 0 79)">
		<stop  offset="0" style="stop-color:#B5B5B6"/>
		<stop  offset="0.16" style="stop-color:#F4F4F4"/>
		<stop  offset="0.33" style="stop-color:#9FA0A0"/>
		<stop  offset="0.5" style="stop-color:#FFFFFF"/>
		<stop  offset="0.56" style="stop-color:#E1E1E1"/>
		<stop  offset="0.67" style="stop-color:#9FA0A0"/>
		<stop  offset="0.84" style="stop-color:#FFFFFF"/>
		<stop  offset="1" style="stop-color:#898989"/>
	</linearGradient>
	<path class="st4" d="M27.9,0c-2.5,3.3-11.5,10.1-15.1,12.4c-1.1,0.6-2,1.5-2.6,2.5c-0.7,1-1.1,2.2-1.3,3.4
		c-0.6,0.3-1.1,0.8-1.5,1.4c-0.4,0.6-0.6,1.3-0.6,2v7.7c-0.1,0.8,0,1.6,0.4,2.2c0.4,0.7,1,1.2,1.7,1.5L33,54.6L5.4,39l-3.7-2.2
		c-0.5-0.3-0.8-0.6-1.1-1.1S0.1,34.8,0,34.3v-1.8c0-0.6,0.1-2.2,0.1-3.5V16.7c0-1.3,0.5-2.5,1.2-2.7c0.6-0.2,2.2-0.8,3.4-1.3
		c4.6-1.9,9-4,13.4-6.4c4.5-2.7,7.8-5,8-5.2l1-0.7C27.3,0.1,27.6,0,27.9,0L27.9,0z"/>
	
		<linearGradient id="SVGID_5_" gradientUnits="userSpaceOnUse" x1="46.2664" y1="95.7952" x2="0.2271" y2="7.4959" gradientTransform="matrix(1 0 0 -1 0 79)">
		<stop  offset="0" style="stop-color:#B5B5B6"/>
		<stop  offset="0.16" style="stop-color:#F4F4F4"/>
		<stop  offset="0.33" style="stop-color:#9FA0A0"/>
		<stop  offset="0.5" style="stop-color:#FFFFFF"/>
		<stop  offset="0.56" style="stop-color:#E1E1E1"/>
		<stop  offset="0.67" style="stop-color:#9FA0A0"/>
		<stop  offset="0.84" style="stop-color:#FFFFFF"/>
		<stop  offset="1" style="stop-color:#898989"/>
	</linearGradient>
	<path class="st5" d="M28.1,14.2c0.1,0,0.2,0,0.3,0l5.2,3.1c0.1,0.1,0.2,0.1,0.2,0.3c0,0.1,0.1,0.2,0,0.3c0,0.1-0.1,0.2-0.2,0.3
		c-0.1,0.1-0.2,0.1-0.3,0.1h-10c-0.1,0-0.2,0-0.3-0.1s-0.2-0.2-0.2-0.3c0-0.1,0-0.2,0-0.3c0-0.1,0.1-0.2,0.2-0.3l4.8-3
		C27.9,14.2,28,14.2,28.1,14.2z"/>
	
		<linearGradient id="SVGID_6_" gradientUnits="userSpaceOnUse" x1="53.3214" y1="92.1172" x2="7.2951" y2="3.8047" gradientTransform="matrix(1 0 0 -1 0 79)">
		<stop  offset="0" style="stop-color:#B5B5B6"/>
		<stop  offset="0.16" style="stop-color:#F4F4F4"/>
		<stop  offset="0.33" style="stop-color:#9FA0A0"/>
		<stop  offset="0.5" style="stop-color:#FFFFFF"/>
		<stop  offset="0.56" style="stop-color:#E1E1E1"/>
		<stop  offset="0.67" style="stop-color:#9FA0A0"/>
		<stop  offset="0.84" style="stop-color:#FFFFFF"/>
		<stop  offset="1" style="stop-color:#898989"/>
	</linearGradient>
	<path class="st6" d="M8.9,33.1l27,15.3c0.6,0.4,1.1,0.9,1.5,1.5c0.4,0.6,0.6,1.3,0.6,2V55c0,0.9-0.5,1.5-1.2,1.5
		c-0.3,0-0.6-0.1-0.9-0.3L33,54.6L8.9,33.1z"/>
	
		<linearGradient id="SVGID_7_" gradientUnits="userSpaceOnUse" x1="53.22" y1="92.1686" x2="7.1937" y2="3.8561" gradientTransform="matrix(1 0 0 -1 0 79)">
		<stop  offset="0" style="stop-color:#B5B5B6"/>
		<stop  offset="0.16" style="stop-color:#F4F4F4"/>
		<stop  offset="0.33" style="stop-color:#9FA0A0"/>
		<stop  offset="0.5" style="stop-color:#FFFFFF"/>
		<stop  offset="0.56" style="stop-color:#E1E1E1"/>
		<stop  offset="0.67" style="stop-color:#9FA0A0"/>
		<stop  offset="0.84" style="stop-color:#FFFFFF"/>
		<stop  offset="1" style="stop-color:#898989"/>
	</linearGradient>
	<path class="st7" d="M28.1,0c0.4,0,0.7,0.1,1,0.3l1,0.7l0.5,0.4l1.6,1.1c1.3,0.9,3.3,2.2,5.5,3.5c4.5,2.5,9.1,4.7,13.8,6.7
		c1.2,0.5,2.7,1.1,3.4,1.3c0.6,0.2,1.2,1.4,1.2,2.7v12.4c0,1.3,0,2.9,0.1,3.5v1.1c0,1.1,0,1.7,0,1.7c0,0.9-0.6,1.5-1.3,1.5
		c-0.3,0-0.6-0.1-0.9-0.3l-2.5-1.5c-0.6-0.3-1.1-0.8-1.4-1.4c-0.4-0.6-0.6-1.2-0.6-1.9c0-0.1,0-1.2,0-2.5v-7.7c0-0.7-0.3-1.4-0.6-2
		c-0.4-0.6-0.9-1.1-1.5-1.4c-0.4-0.2-8.7-3.9-13-6.5c-2.6-1.5-4.1-2.6-4.2-2.6c-0.6-0.4-1.3-0.5-1.9-0.5c-0.7,0-1.4,0.2-1.9,0.5
		c-0.1,0-1.6,1.1-4.2,2.6c-4.2,2.5-12.5,6.3-13,6.5c0.2-1.2,0.6-2.4,1.3-3.4c0.7-1,1.6-1.9,2.6-2.5c3.6-2.3,12.6-9,15.1-12.4L28.1,0
		z"/>
</g>
</svg>
