<?xml version="1.0" encoding="utf-8"?>
<!-- Generator: Adobe Illustrator 24.2.1, SVG Export Plug-In . SVG Version: 6.00 Build 0)  -->
<svg version="1.1" id="圖層_1" xmlns="http://www.w3.org/2000/svg" xmlns:xlink="http://www.w3.org/1999/xlink" x="0px" y="0px"
	 width="413px" height="79px" viewBox="0 0 413 79" style="enable-background:new 0 0 413 79;" xml:space="preserve">
<style type="text/css">
	.st0{clip-path:url(#SVGID_2_);}
	.st1{fill:#262626;}
	.st2{fill:#FFFFFF;}
	.st3{fill:url(#SVGID_3_);}
	.st4{fill:url(#SVGID_4_);}
	.st5{fill:url(#SVGID_5_);}
	.st6{fill:url(#SVGID_6_);}
	.st7{fill:url(#SVGID_7_);}
	.st8{fill:url(#SVGID_8_);}
	.st9{fill:url(#SVGID_9_);}
</style>
<g>
	<defs>
		<rect id="SVGID_1_" width="413" height="79"/>
	</defs>
	<clipPath id="SVGID_2_">
		<use xlink:href="#SVGID_1_"  style="overflow:visible;"/>
	</clipPath>
	<g class="st0">
		<path class="st1" d="M28.2,0h2.6c0.1,0,0.3,0,0.4,0.1h-2.6C28.4,0,28.3,0,28.2,0"/>
		<path class="st2" d="M89.9,14.3v-1.9c0-0.1,0.1-0.2,0.4-0.2c1.5,0,2.3,0.1,2.3,0.4c0,0.2-0.1,0.4-0.3,0.4S92,13.2,92,13.6v0.7h5.6
			c0.3,0,0.5,0.1,0.5,0.4v3.2h1.5c0.1,0,0.2,0.1,0.2,0.4v1c0,0.3-0.1,0.4-0.2,0.4h-1.5v3.2c0,0.3-0.2,0.4-0.5,0.4H92v1.6h5.8
			c0.3,0,0.5,0.1,0.5,0.4v0.5c0.2-0.4,0.4-0.8,0.6-1.2c0.7-1.2,1.2-2.6,1.6-3.9c0.5-1.6,0.8-3.2,1.1-4.8c0.2-1.1,0.3-2.2,0.3-3.2
			c0-0.2,0-0.3,0.1-0.3l2.6,0.8c0.1,0,0.2,0.1,0.2,0.2c0.1,0.1,0.1,0.2,0.1,0.3c0,0.1-0.2,0.4-0.6,0.6c-0.3,1.5-0.6,2.8-0.9,3.9h7.8
			c0.3,0,0.4,0.2,0.4,0.5v1c0,0.4-0.1,0.5-0.4,0.5h-1.5c0,3-0.3,6-0.8,9c-0.4,2.3-1.1,4.4-2.2,6.5c0.3,0.5,0.6,0.9,1,1.3
			c1.2,1.4,2.6,2.6,4.1,3.6c0,0.1-0.1,0.2-0.3,0.4c-0.2,0.1-0.8,0.6-1.3,0.9c-0.2,0.1-0.4,0.2-0.6,0.2c-1-0.8-2-1.7-2.9-2.7
			c-0.5-0.5-0.9-1.1-1.3-1.7c-0.5,0.6-1.1,1.1-1.7,1.6c-1.2,1.1-2.6,2-4.1,2.7c-0.4-0.4-0.6-0.7-0.9-1c-0.3,0.2-0.7,0.5-1.4,1
			c-0.1,0-0.3,0-0.4-0.1c-1.3-1-2.7-1.8-4.2-2.4c-0.1,0-0.1-0.1-0.2-0.1c-0.9,0.5-1.8,0.9-2.7,1.3c-1.5,0.6-3.1,1-4.7,1.4
			c-0.2,0-0.4-0.1-0.4-0.2c-0.3-0.4-0.6-0.8-0.9-1.4c-0.1,0-0.1-0.1-0.2-0.2c0-0.1-0.1-0.1-0.1-0.2c0.5,0,1-0.1,1.4-0.2
			c0.8-0.1,1.6-0.3,2.5-0.5c0.9-0.3,1.8-0.6,2.7-0.9l-0.3-0.1c-1.1-0.4-2.3-0.8-3.6-1.1c-0.2,0.3-0.4,0.5-0.6,0.7
			c-0.2,0-0.4,0-0.4-0.2c-0.4-0.2-0.8-0.3-1.3-0.5c-0.1,0-0.1-0.1-0.1-0.3c0.9-1.1,1.6-2,2.2-2.8h-3.7c-0.2,0-0.3-0.1-0.3-0.4v-1
			c0-0.3,0-0.4,0.3-0.4h5c0.3-0.5,0.6-1.1,0.9-1.6c0-0.1,0.1-0.2,0.1-0.2h-3.9c-0.4,0-0.5-0.1-0.5-0.4v-4.8c0-0.3,0.2-0.4,0.5-0.4
			h5.2v-1.6h-5.2c-0.4,0-0.5-0.1-0.5-0.4v-3.2h-1.6c-0.2,0-0.3-0.1-0.3-0.4v-1c0-0.3,0-0.4,0.3-0.4h1.7v-3.2c0-0.3,0.2-0.4,0.5-0.4
			L89.9,14.3z M89.9,17.9V16h-3.6v1.8L89.9,17.9z M89.9,19.7h-3.6v1.8h3.6V19.7z M89.9,26.7h-3.6v1.9h3.6V26.7z M94.1,35.5
			c0.3-0.4,0.6-0.8,0.8-1.3h-6c-0.1,0.1-0.1,0.1-0.2,0.2c-0.3,0.4-0.5,0.8-0.9,1.1c1.1,0.3,2.1,0.7,3.2,1.1c0.5,0.2,1,0.4,1.4,0.6
			C93.1,36.7,93.7,36.1,94.1,35.5L94.1,35.5z M101.4,38.4c1-0.8,2-1.8,2.7-2.9c-0.8-1.5-1.4-3.1-1.8-4.8c-0.5-1.8-0.8-3.7-0.9-5.5
			c-0.3,0.7-0.6,1.3-0.8,1.9c-0.3,0-0.5-0.1-0.8-0.2c-0.5-0.2-0.9-0.4-1.4-0.5c-0.1,0-0.1-0.1-0.1-0.1v3.8c0,0.3-0.2,0.4-0.5,0.4
			h-6.5l0.4,0.2c0,0.1,0.1,0.2,0.1,0.3c0,0,0,0.1,0,0.1s0,0.1-0.1,0.1c0,0-0.1,0.1-0.1,0.1c0,0-0.1,0-0.1,0
			c-0.6,0.1-0.9,0.2-0.9,0.3l-0.4,0.7h10.4c0.2,0,0.3,0.1,0.3,0.4v1c0,0.3-0.1,0.4-0.3,0.4h-3.3c-0.2,0.6-0.5,1.1-0.8,1.6
			c-0.4,0.8-0.9,1.5-1.5,2.1l-0.3,0.2c0.5,0.3,1,0.6,1.5,0.8c0.8,0.4,1.6,0.9,2.3,1.4C99.5,39.8,100.5,39.1,101.4,38.4L101.4,38.4z
			 M92,17.9h4V16h-4V17.9z M96,19.7h-4v1.8h4V19.7z M96.1,26.7H92v1.9h4.1L96.1,26.7z M102.9,23.4c0.4,0,0.7,0.2,0.7,0.5
			c0,1.8,0.2,3.6,0.6,5.4c0.3,1.3,0.8,2.5,1.3,3.8c0.6-1.4,1-2.9,1.3-4.4c0.5-2.8,0.7-5.6,0.8-8.5h-4.5c-0.2,0.8-0.4,1.6-0.5,2.2
			c-0.1,0.4-0.3,0.7-0.4,1H102.9z"/>
		<path class="st2" d="M126.3,14.3c0,0.2-0.1,0.3-0.3,0.3c-0.2,0-0.3,0-0.4,0.1s-0.3,0.2-0.4,0.3c-0.8,2-1.8,4-2.9,5.9v20.8
			c0,0.3-0.2,0.4-0.5,0.4h-1.3c-0.4,0-0.5-0.1-0.5-0.4V23.9c-0.8,0.9-1.8,2-2.9,3.3c-0.1,0-0.3,0-0.4-0.1c-0.1-0.1-0.2-0.1-0.3-0.2
			c-0.3-0.3-0.7-0.5-1-0.8c-0.1,0-0.1-0.1-0.2-0.2c0-0.1-0.1-0.1-0.1-0.2c1-1,2-2.1,2.9-3.2c1.3-1.5,2.4-3.1,3.3-4.9
			c0.8-1.5,1.5-3.1,1.9-4.7c0-0.2,0.1-0.3,0.3-0.3C124.6,13,125.5,13.6,126.3,14.3z M142.6,23.6c0.2,0.1,0.3,0.2,0.3,0.3
			s-0.1,0.4-0.3,0.4c-0.2,0-0.6,0.2-0.7,0.4c-0.6,2.4-1.3,5-2.3,8c-0.7,2-1.3,3.9-2,5.8h7.9c0.2,0,0.4,0.2,0.4,0.5v1
			c0,0.3-0.1,0.5-0.4,0.5h-20.8c-0.3,0-0.4-0.2-0.4-0.5V39c0-0.3,0.1-0.5,0.4-0.5h10.6c0.9-2.3,1.7-4.6,2.6-7.1
			c0.8-2.8,1.5-5.6,2-8.4c0-0.2,0.2-0.3,0.2-0.3L142.6,23.6z M137,12.6c0,0.3-0.1,0.5-0.3,0.5c-0.2,0-0.3,0.3-0.3,0.7v4.7h8.3
			c0.3,0,0.4,0.2,0.4,0.5v1c0,0.3-0.1,0.5-0.4,0.5h-19c-0.3,0-0.4-0.2-0.4-0.5V19c0-0.3,0.1-0.5,0.4-0.5h8.4v-5.9
			c0-0.2,0.2-0.4,0.5-0.4C136.2,12.2,137,12.3,137,12.6L137,12.6z M131.4,30.2c0.5,1.9,0.9,4,1.3,6.1c-0.7,0.3-1.4,0.5-2.2,0.6
			c-0.2-1.8-0.6-3.5-1-5.2c-0.6-2.5-1.2-4.9-2.1-7.2c0-0.2,0.6-0.6,1.8-1.1C130.2,25.7,130.9,28,131.4,30.2L131.4,30.2z"/>
		<path class="st2" d="M162.6,13.2c0.2,0,0.4,0.1,0.5,0.2c0.3,0.2,0.5,0.5,0.6,0.8c-0.5,1.1-1,2.1-1.7,3c-0.6,0.8-1.2,1.6-2,2.3
			c-0.8,0.7-1.7,1.2-2.6,1.7l-1.3,0.6h5.3c0.3,0,0.5,0.1,0.5,0.4v7c0,0.1,0,0.1,0,0.2c0,0.1-0.1,0.1-0.1,0.2
			c-0.1,0.1-0.1,0.1-0.2,0.1c-0.1,0-0.1,0-0.2,0h-6.6c-0.1,0.9-0.3,1.7-0.4,2.4h7.3c0.3,0,0.4,0.1,0.4,0.4c0,1.8-0.1,3.7-0.4,5.5
			c-0.2,1-0.5,2-0.9,3c-0.4,0.7-1.4,1.1-3,1.1c-1.6,0-2.5-0.2-2.6-0.7c-0.2-0.7-0.5-1.3-1-1.8v-0.2c1.2,0.2,2.4,0.4,3.6,0.4
			c0.3,0,0.6,0,0.8-0.1c0.3-0.1,0.5-0.3,0.6-0.5c0.4-0.6,0.6-1.3,0.6-2.1c0.2-1,0.3-2,0.3-3h-6.2c-0.2,0.5-0.3,1.1-0.5,1.5
			c0,0.2-0.1,0.3-0.2,0.3c-0.2,0-0.4,0-0.5,0c-0.5-0.1-1-0.2-1.5-0.3c-0.2,0-0.3-0.1-0.3-0.2c0.4-0.9,0.6-1.6,0.7-2.1
			c0.3-0.9,0.5-1.8,0.7-2.7c0.2-1.1,0.4-2.1,0.5-3.3c0-0.2,0-0.3,0.2-0.3c0.7,0.3,1.3,0.6,1.9,0.9h4.7V24h-6.1
			c-0.3,0-0.4-0.2-0.4-0.5v-0.5c-1.1,0.3-2.2,0.6-3.3,0.7c-0.3,0-0.5,0-0.6-0.2c-0.2-0.3-0.5-0.6-0.7-1c-0.1,0-0.1-0.1-0.1-0.1
			c0-0.1,0-0.1,0-0.2c0-0.1,0-0.1,0.2-0.1c0.9-0.1,1.8-0.3,2.7-0.5c1.3-0.3,2.5-0.7,3.7-1.3c-0.5-0.5-1.1-0.9-1.6-1.3
			c-0.8-0.5-1.4-0.9-1.9-1.1c0.2-0.5,0.5-0.9,0.9-1.3c0-0.1,0.1-0.1,0.1-0.1c0,0,0.1-0.1,0.2-0.1c0.9,0.5,1.8,1,2.6,1.6
			c0.6,0.5,1.1,0.9,1.6,1.3c0.5-0.3,1-0.6,1.5-1c0.7-0.6,1.3-1.3,1.8-2.1c0.2-0.3,0.4-0.6,0.6-0.9h-7.2c-0.2,0-0.3-0.2-0.3-0.5v-1
			c0-0.3,0-0.4,0.3-0.4L162.6,13.2z M174.9,31.1c0.2,0,0.4,0.1,0.5,0.2c0.3,0.2,0.5,0.5,0.6,0.8c-0.4,1.1-0.9,2.2-1.4,3.3
			c-0.5,0.9-1,1.7-1.7,2.4c-0.2,0.3-0.5,0.5-0.7,0.8c0.5,0.3,1.1,0.5,1.6,0.7c1.3,0.5,2.7,0.8,4.1,1.1c0.2,0,0.3,0.1,0.3,0.2
			c0,0.1-0.1,0.3-0.2,0.4c-0.4,0.3-0.8,0.7-1.1,1.1c-0.2,0.2-0.3,0.3-0.4,0.3c-0.2,0-0.4-0.1-0.5-0.2l-2.6-0.8c-1-0.4-2.1-0.8-3-1.3
			c-0.9,0.5-1.8,1-2.7,1.4c-1,0.4-2,0.7-3,0.9c-0.1,0-0.2,0-0.3-0.1s-0.2-0.1-0.2-0.2c-0.3-0.3-0.5-0.7-0.7-1
			c-0.1-0.1-0.2-0.2-0.2-0.3c0-0.1,0-0.2,0.2-0.2c0.8-0.2,1.5-0.4,2.3-0.6c1-0.3,2-0.8,2.9-1.3c-0.3-0.2-0.5-0.4-0.8-0.7
			c-0.7-0.6-1.3-1.4-1.8-2.3c-0.6-0.9-1-1.8-1.3-2.8h-0.8c-0.2,0-0.3-0.2-0.3-0.5v-1.1c0-0.2,0.1-0.4,0.3-0.4H174.9z M173.3,21.9
			c0.3,0,0.5,0.1,0.5,0.4V27c0,0.2,0,0.3,0.2,0.3c0.2,0.1,0.5,0.2,0.7,0.1h0.3c0.1,0,0.2,0,0.3-0.1c0.1-0.1,0.2-0.2,0.2-0.3
			c0.1-0.6,0.3-1.2,0.3-1.8c0-0.1,0.1-0.1,0.2-0.1c0.1,0,0.3,0.1,0.4,0.1c0.4,0.2,0.7,0.3,1.1,0.4c0.1,0,0.2,0.1,0.3,0.2
			c0.1,0.1,0.1,0.2,0.1,0.3c-0.2,1-0.5,1.9-0.8,2.8c-0.1,0.2-0.3,0.4-0.6,0.6c-0.2,0.1-0.5,0.2-0.8,0.1h-2.2c-0.6,0-1.1-0.1-1.7-0.3
			c-0.1-0.1-0.2-0.1-0.3-0.3c-0.1-0.1-0.1-0.2-0.1-0.4v-5h-3.8v0.6c0,0.9-0.1,1.8-0.3,2.7c-0.2,0.7-0.5,1.3-1,1.9
			c-0.4,0.4-0.8,0.8-1.3,1.1c-0.1,0-0.2,0-0.3,0c-0.1,0-0.2-0.1-0.3-0.2c-0.3-0.4-0.6-0.7-0.9-1.1c-0.1,0-0.1-0.1-0.1-0.2
			c0-0.1-0.1-0.1-0.1-0.2c0.8-0.5,1.5-1.3,1.8-2.2c0.2-0.7,0.2-1.4,0.2-2.1v-1.9c0-0.3,0.1-0.4,0.4-0.4H173.3z M166.8,12.7
			c0.6,1,1.3,1.9,2.1,2.8l0.3-0.2c0.5-0.3,1-0.6,1.4-1c0.4-0.4,0.7-0.8,1-1.3c0-0.1,0.1-0.1,0.2-0.1l1.7,1.3
			c0.1,0.1,0.2,0.1,0.2,0.2c0.1,0.1,0.1,0.2,0.1,0.3c0,0.2-0.1,0.3-0.3,0.3c-0.2,0-0.3,0-0.5,0.1c-0.8,0.7-1.7,1.4-2.6,2
			c0.7,0.6,1.4,1.2,2.2,1.7c0.2-0.1,0.3-0.2,0.5-0.4c0.5-0.3,1-0.7,1.4-1.2c0.4-0.4,0.7-0.8,1.1-1.3c0-0.1,0.1-0.2,0.2-0.2l1.7,1.3
			c0.1,0,0.2,0.1,0.3,0.2c0.1,0.1,0.1,0.2,0.1,0.3c0,0.2-0.1,0.3-0.4,0.3c-0.1,0-0.2,0-0.3,0c-0.1,0-0.2,0.1-0.2,0.1
			c-0.7,0.7-1.5,1.3-2.4,1.9c0.6,0.3,1.3,0.6,2,0.9c1.1,0.5,2.2,0.8,3.3,1.1c0,0.1,0,0.1-0.1,0.2c0,0.1-0.1,0.1-0.2,0.1
			c-0.3,0.3-0.7,0.7-0.9,1.1c0,0.1-0.2,0.2-0.5,0.2c-1.5-0.4-3-1-4.3-1.6c-1.2-0.6-2.3-1.3-3.3-2.1c-1-0.8-2-1.6-2.8-2.6
			c-1-1.2-1.9-2.4-2.7-3.8c0-0.1,0.6-0.4,1.8-0.8C166.6,12.7,166.7,12.7,166.8,12.7L166.8,12.7z M167.4,34.2c0.4,0.8,1,1.6,1.6,2.2
			c0.4,0.4,0.8,0.7,1.3,1c0.4-0.3,0.7-0.7,1-1c0.6-0.7,1.1-1.5,1.5-2.3c0.2-0.3,0.3-0.7,0.5-1.1h-6.5
			C167,33.4,167.2,33.8,167.4,34.2L167.4,34.2z"/>
		<path class="st2" d="M187.7,23.4c0,2.5-0.1,4.6-0.3,6.4h6.8v-3.4h-4.5c-0.3,0-0.4-0.2-0.4-0.5v-1c0-0.3,0.1-0.5,0.4-0.5h4.5v-2.6
			c0-0.3,0.2-0.4,0.5-0.4c1.6,0,2.4,0.1,2.4,0.4s-0.1,0.5-0.3,0.5c-0.2,0-0.3,0.3-0.3,0.7v1.4h6.4v-2.6c0-0.3,0.2-0.4,0.5-0.4
			c1.6,0,2.4,0.1,2.4,0.4s-0.1,0.5-0.3,0.5c-0.2,0-0.3,0.3-0.3,0.7v1.4h5c0.3,0,0.4,0.2,0.4,0.5v1c0,0.3-0.1,0.5-0.4,0.5h-5v3.5h6.5
			c0.3,0,0.4,0.2,0.4,0.5v1.1c0,0.3-0.1,0.5-0.4,0.5h-10.4c0.4,0.8,0.9,1.7,1.4,2.4c0.6,0.9,1.3,1.7,2.2,2.4c0,0,0,0.1,0.1,0.1
			c1.2-0.9,2.3-1.8,3.4-2.8c0.2-0.1,0.4-0.2,0.6-0.3c0.2,0,0.3,0.1,0.5,0.2c1.2,0.9,1.8,1.5,1.8,1.7c0,0.1,0,0.1,0,0.1
			c0,0,0,0.1-0.1,0.1c0,0-0.1,0.1-0.1,0.1s-0.1,0-0.1,0l-0.8-0.1c-0.3,0-0.5,0.1-0.7,0.3c-0.8,0.6-1.7,1.2-2.7,2
			c0.2,0.2,0.4,0.3,0.6,0.4c0.8,0.5,1.7,0.9,2.6,1.2c0.5,0.1,1,0.3,1.7,0.5c0.2,0,0.3,0,0.3,0.2c0,0.1,0,0.2-0.1,0.3
			c-0.1,0.1-0.1,0.2-0.2,0.2l-0.9,1.1c-0.1,0.1-0.1,0.2-0.2,0.2c-0.1,0.1-0.2,0.1-0.3,0.1c-1.4-0.4-2.8-1.1-4-1.8
			c-0.9-0.6-1.8-1.2-2.6-1.9c-0.9-0.8-1.6-1.6-2.3-2.6c-0.8-1.3-1.6-2.6-2.2-4h-4.2v6.7c2-0.3,3.9-0.7,5.7-1.1h0.2c0,0,0.1,0,0.1,0
			c0,0,0.1,0,0.1,0.1c0,0,0,0.1,0.1,0.1c0,0,0,0.1,0,0.1c0,0.6,0,1.2-0.1,1.8c-3.5,0.7-7.1,1.3-10.7,1.8c-0.3,0.6-0.6,0.9-0.8,0.9
			c-0.2,0-0.6-0.9-1.3-2.7c1.3-0.1,2.8-0.3,4.5-0.6v-7.1h-5.3c-0.1,0.3-0.1,0.7-0.1,0.9c-0.3,2-0.8,3.9-1.5,5.7
			c-0.4,1.2-1,2.3-1.7,3.3c-0.1,0-0.3,0-0.4-0.1c-0.3-0.4-0.7-0.6-1.2-0.9c-0.1-0.1-0.1-0.3-0.1-0.5c0.8-1.3,1.4-2.6,1.8-4
			c0.5-1.8,0.9-3.7,1.1-5.6c0.2-2,0.3-4.5,0.3-7.4v-9.7c0-0.3,0.2-0.5,0.5-0.5h23.9c0.3,0,0.5,0.1,0.5,0.4v6.2
			c0,0.4-0.2,0.5-0.5,0.5h-22.1V23.4z M187.7,18.3H208v-3h-20.3V18.3z M202.9,29.8v-3.4h-6.4v3.5L202.9,29.8z"/>
		<path class="st2" d="M233.1,25.5c0.3,0,0.4,0.2,0.4,0.5v1c0,0.3-0.1,0.5-0.4,0.5h-16.6c-0.3,0-0.4-0.2-0.4-0.5v-1
			c0-0.3,0.1-0.5,0.4-0.5L233.1,25.5z M226.7,12.5c0,0.3-0.1,0.5-0.3,0.5c-0.2,0-0.3,0.3-0.3,0.7v2.6h6.3c0.2,0,0.4,0.2,0.4,0.5v1.1
			c0,0.3-0.1,0.5-0.4,0.5h-15.2c-0.3,0-0.4-0.2-0.4-0.5v-1.1c0-0.3,0.1-0.5,0.4-0.5h6.6v-3.8c0-0.2,0.2-0.4,0.5-0.4
			C225.9,12.1,226.7,12.2,226.7,12.5L226.7,12.5z M230.8,30.1c0.3,0,0.5,0.1,0.5,0.4v11c0,0.3-0.2,0.4-0.5,0.4h-1.3
			c-0.4,0-0.5-0.1-0.5-0.4v-1.6h-8.7v1.5c0,0.3-0.2,0.4-0.5,0.4h-1.3c-0.4,0-0.5-0.1-0.5-0.4V30.6c0-0.1,0-0.1,0-0.2
			c0-0.1,0.1-0.1,0.1-0.2c0.1-0.1,0.1-0.1,0.2-0.1c0.1,0,0.1,0,0.2,0L230.8,30.1z M221.9,21.9c0.3,0.9,0.6,1.8,0.8,2.7
			c-0.7,0.3-1.4,0.5-2.2,0.7c-0.1-0.8-0.3-1.5-0.6-2.2c-0.3-1-0.7-2-1.2-3c0-0.1,0.6-0.5,1.8-1.1C221.1,19.9,221.5,20.9,221.9,21.9
			L221.9,21.9z M229,37.9v-5.8h-8.7v5.8L229,37.9z M230.9,19.4c0.3,0.2,0.5,0.3,0.5,0.5c0,0.1,0,0.2-0.1,0.2c0,0.1-0.1,0.1-0.2,0.1
			c-0.1,0-0.1,0-0.2,0c-0.1,0-0.1,0-0.1,0.1c0,0-0.1,0.1-0.1,0.1c0,0,0,0.1,0,0.2c-0.5,1.5-1.1,2.9-1.9,4.3
			c-0.2,0.2-0.3,0.3-0.4,0.3c-0.2,0-0.4-0.1-0.5-0.2l-1.3-0.6c-0.2-0.1-0.3-0.1-0.3-0.1c0-0.1,0.1-0.2,0.1-0.3
			c0.5-0.8,0.9-1.6,1.3-2.4c0.4-0.9,0.7-1.8,0.9-2.7c0.1-0.3,0.1-0.4,0.2-0.4L230.9,19.4z M237.1,41.5c0,0.3-0.2,0.4-0.5,0.4h-1.3
			c-0.3,0-0.5-0.1-0.5-0.4V13.8c0-0.2,0.2-0.4,0.5-0.4h8.9c0.3,0,0.6,0,0.8,0.2c0.5,0.4,0.8,0.7,0.8,0.8l-4.6,9.2
			c-0.1,0.2-0.1,0.3-0.1,0.5c0,0.1,0,0.2,0.1,0.3s0.1,0.2,0.2,0.2c1.1,1.2,2.1,2.6,2.8,4.1c0.7,1.6,1.1,3.3,1.1,5c0,1-0.2,2-0.7,3
			c-0.4,0.8-1.2,1.5-2.1,1.8c-0.9,0.5-1.9,0.7-2.9,0.6c-0.6,0-0.8-0.2-0.8-0.6c-0.1-0.6-0.3-1.2-0.6-1.8c0-0.2,0.1-0.4,0.4-0.4
			l1.5,0.3c0.4,0,0.8,0,1.2-0.2c0.4-0.2,0.7-0.4,1-0.7c0.5-0.6,0.7-1.3,0.7-2c0-1.4-0.3-2.7-0.9-4c-0.8-1.8-2-3.4-3.3-4.8
			c-0.1,0-0.1-0.1-0.2-0.2c0-0.1-0.1-0.2-0.1-0.3c0-0.2,0.1-0.4,0.1-0.5l4.6-8.7h-6.1L237.1,41.5z"/>
		<path class="st2" d="M257.9,18.8c0.5,1,0.7,1.6,0.7,1.7c0,0.1-0.1,0.1-0.2,0.2c-1.2,1-2.5,1.9-3.8,2.7c-0.7,0.4-1.4,0.9-2.4,1.4
			c-0.1,0.1-0.2,0.1-0.2,0.2c0,0.1-0.1,0.2-0.1,0.3c0,0.3-0.1,0.4-0.3,0.4c-0.7-0.5-1.3-1.1-1.9-1.8c-0.1,0-0.1-0.1-0.1-0.2
			c0-0.1-0.1-0.1-0.1-0.2c0-0.1,0.1-0.1,0.2-0.2c0.8-0.3,1.5-0.6,2.3-1c1.1-0.6,2.1-1.2,3.1-1.9c0.9-0.6,1.6-1.1,2.3-1.7
			c0.1-0.1,0.1-0.1,0.2-0.1C257.8,18.6,257.8,18.7,257.9,18.8z M273.3,23.8c0.3,0,0.5,0.1,0.5,0.4v13.4c0,0.3-0.2,0.4-0.5,0.4h-2.6
			c0.9,0.4,1.8,0.8,2.8,1.1c1.3,0.4,2.6,0.7,3.9,0.9c0.2,0.1,0.4,0.2,0.4,0.2c0,0.1-0.5,0.8-1.4,1.8h-0.5c-2.5-0.6-5-1.5-7.3-2.6
			c-0.1,0-0.2-0.1-0.2-0.2c0-0.2,0.4-0.6,1.1-1.3h-8.7c0.7,0.7,1.1,1,1.1,1.1c0,0.1-0.1,0.2-0.3,0.2c-0.4,0-0.6,0-0.7,0.2
			c-3,1.1-6.1,2.1-9.2,2.8c-0.1,0-0.2,0-0.3-0.1c-0.1-0.1-0.2-0.1-0.2-0.2c-0.2-0.3-0.4-0.6-0.7-0.8c-0.1-0.1-0.2-0.2-0.2-0.4
			c0-0.1,0.1-0.2,0.4-0.2c1.6-0.4,3.1-0.8,4.3-1.2c1.2-0.4,2.4-0.8,3.6-1.4h-2.7c-0.4,0-0.5-0.1-0.5-0.4V24.2c0-0.3,0.2-0.4,0.5-0.4
			H273.3z M257.4,13.4c0,0,0.1,0,0.1,0c0,0,0.1,0,0.1,0.1c0,0,0.1,0.1,0.1,0.1c0,0,0,0.1,0,0.1v1.3c0,0.4-0.1,0.5-0.4,0.5h-6.6
			c-0.3,0-0.4-0.2-0.4-0.5v-1.3c0-0.2,0.1-0.4,0.4-0.4H257.4z M271.5,28v-2.2h-14V28L271.5,28z M271.5,31.9v-2h-14V32L271.5,31.9z
			 M271.5,33.8h-14V36h14V33.8z M266.4,13c0,0.2-0.1,0.3-0.2,0.3c-0.1,0-0.3,0-0.4,0.1c-0.1,0.1-0.2,0.1-0.3,0.2
			c-0.1,0.3-0.3,0.5-0.4,0.7h11.4c0.2,0,0.4,0,0.6,0.1c0.5,0.3,0.7,0.6,0.7,0.8l-3.3,4.3c0,0-0.1,0.1-0.1,0.1c0,0-0.1,0-0.1,0
			c-1.2-0.3-1.8-0.6-1.8-0.9l1.9-2.4h-4.5c0.1,0.3,0.2,0.6,0.3,0.9c0.3,0.6,0.6,1.1,1.1,1.6c0.5,0.6,1,1.1,1.7,1.5
			c0.5,0.4,1,0.7,1.5,0.9c0.8,0.4,1.7,0.8,2.7,1c0.5,0.1,1.1,0.2,1.7,0.3c0.1,0.1,0.2,0.1,0.2,0.1s-0.1,0.4-0.2,0.4
			c-0.4,0.4-0.8,0.8-1.1,1.3c-0.1,0.1-0.2,0.1-0.3,0.2c-0.1,0-0.2,0.1-0.3,0.1c-1.1-0.2-2.1-0.5-3-1.1c-0.8-0.4-1.7-0.9-2.4-1.5
			c-0.6-0.5-1.2-1-1.8-1.6c-0.5-0.6-1-1.2-1.3-1.9c-0.1-0.1-0.1-0.1-0.1-0.2c-0.1,0.2-0.2,0.4-0.4,0.7c-0.4,0.6-0.8,1.1-1.3,1.6
			c-0.5,0.5-1.1,1-1.7,1.4c-0.6,0.4-1.2,0.7-1.8,1c-0.6,0.2-1.2,0.4-1.8,0.6c-0.1,0-0.2,0-0.2-0.1c-0.1,0-0.1-0.1-0.2-0.1
			c-0.3-0.5-0.7-0.9-1-1.3c-0.1-0.1-0.2-0.2-0.2-0.3c0,0,0-0.1,0.1-0.1c0.6-0.1,1.2-0.3,1.8-0.5c0.5-0.2,1-0.4,1.5-0.7
			c0.6-0.3,1.2-0.7,1.7-1.2c0.5-0.4,0.9-0.8,1.3-1.3c0.3-0.4,0.6-0.8,0.8-1.3c0.1-0.1,0.1-0.3,0.2-0.4h-3.6
			c-0.2,0.2-0.4,0.5-0.6,0.7c-0.7,0.7-1.4,1.4-2.2,2c-0.1,0-0.2,0-0.3-0.1c-0.1,0-0.2-0.1-0.2-0.2c-0.3-0.2-0.6-0.4-0.8-0.7
			c-0.1,0-0.1-0.1-0.1-0.1c0-0.1-0.1-0.1-0.1-0.2c0.5-0.5,1.1-0.9,1.6-1.4c0.7-0.7,1.3-1.4,1.8-2.2c0.4-0.7,0.8-1.4,1-2.1
			c0,0,0-0.1,0-0.1c0,0,0.1,0,0.1,0C264.9,12.2,265.7,12.6,266.4,13L266.4,13z"/>
		<path class="st2" d="M289.7,27.4c0.3,0,0.5,0.1,0.5,0.4v8.4c0,0.6,0.1,1.2,0.4,1.7c0.2,0.4,0.4,0.7,0.8,0.9
			c0.5,0.3,1.1,0.5,1.7,0.6c1,0.1,1.9,0.2,2.9,0.2h6.9c3.2,0,6.4-0.3,9.6-0.9c0.1-0.1,0.3-0.1,0.5-0.1c0.1,0,0.2,0.1,0.2,0.1
			c-0.3,0.9-0.5,1.7-0.6,2.6c-0.1,0.4-0.2,0.6-0.6,0.6h-16.1c-0.8,0-1.5-0.1-2.3-0.2c-0.7-0.1-1.4-0.3-2.2-0.5
			c-0.6-0.2-1.2-0.6-1.7-0.9c-0.5-0.5-0.9-1.1-1.1-1.7l-0.1-0.1c-0.1,0-0.2,0-0.2,0.1c-2.1,1.7-3.3,2.8-3.6,3.4
			c0,0.1-0.1,0.1-0.1,0.2c-0.1,0-0.1,0.1-0.2,0.1c-0.1,0-0.6-0.6-1.3-1.7c-0.1-0.2-0.2-0.4-0.2-0.7c1.7-0.8,3.2-1.9,4.7-3
			c0.1-0.1,0.2-0.3,0.2-0.7v-6.7h-4.1c-0.3,0-0.4-0.2-0.4-0.5v-1c0-0.3,0.1-0.5,0.4-0.5H289.7z M288,21.4c0.9,0.7,1.6,1.3,2.3,1.8
			c0,0.1-0.1,0.2-0.2,0.3c-0.6,0.9-1,1.4-1,1.4c-1-0.8-2-1.6-3.1-2.3c-0.7-0.5-1.4-0.8-2.2-1.2c0.3-0.5,0.6-1,1-1.4
			c0.1-0.1,0.2-0.2,0.3-0.2C286.1,20.3,287.1,20.8,288,21.4z M288.6,14.5c0.9,0.6,1.6,1.1,2.2,1.6c0,0.1-0.1,0.2-0.2,0.3l-1,1.4
			c-1-0.7-2-1.4-3-2c-0.7-0.4-1.4-0.8-2.1-1.1c0.3-0.5,0.6-1,1-1.4c0.1-0.1,0.2-0.2,0.3-0.2C286.8,13.4,287.7,13.9,288.6,14.5z
			 M308.8,13.2c0.2,0,0.4,0,0.6,0.1c0.5,0.3,0.7,0.6,0.7,0.8l-6.5,4.4c0.5,0.3,1,0.5,1.4,0.7c0,0.1,0,0.1-0.2,0.3
			c-0.2,0.1-0.3,0.4-0.4,0.5h5.7c0.1,0,0.2,0,0.2,0c0.1,0,0.2,0.1,0.2,0.1c0.1,0.1,0.1,0.1,0.1,0.2c0,0.1,0,0.2,0,0.2v15.5
			c0,0.7-0.4,1.1-1.3,1.5c-1,0.3-2,0.5-3.1,0.6c-0.3,0-0.4-0.1-0.4-0.4c-0.1-0.7-0.4-1.3-0.7-2c0-0.1,0.1-0.1,0.3-0.1
			c0.9,0.1,1.8,0,2.6-0.2c0.2,0,0.3-0.1,0.4-0.3c0.1-0.1,0.1-0.3,0.1-0.4v-2.4h-5.5v5.5c0,0.3-0.2,0.4-0.5,0.4h-1.3
			c-0.4,0-0.5-0.1-0.5-0.4v-5.5h-5.1v5.2c0,0.3-0.2,0.4-0.5,0.4h-1.3c-0.3,0-0.4-0.1-0.4-0.4V20.5c0-0.3,0.1-0.5,0.4-0.5h8.3
			c-0.9-0.4-1.9-0.8-2.8-1.2c-1.3-0.5-2.3-0.8-3.1-1c0.2-0.5,0.5-0.9,0.9-1.3c0-0.1,0.1-0.1,0.1-0.1c0,0,0.1-0.1,0.2-0.1
			c1.6,0.5,2.9,0.9,3.9,1.3l3.9-2.5h-11.5c-0.3,0-0.4-0.2-0.4-0.5v-1c0-0.1,0-0.1,0-0.2c0-0.1,0-0.1,0.1-0.1c0,0,0.1-0.1,0.1-0.1
			s0.1,0,0.2,0L308.8,13.2z M300.9,25.2V22h-5.1v3.2H300.9z M300.9,30.4v-3.3h-5.1v3.3L300.9,30.4z M303.2,25.2h5.5V22h-5.5V25.2z
			 M303.2,30.4h5.5v-3.3h-5.5V30.4z"/>
		<path class="st2" d="M333.4,21.3c0.1,0.1,0.1,0.2,0.2,0.4c0,0.2-0.1,0.3-0.4,0.4c-0.6,0-0.9,0.2-1,0.4c-0.6,1.1-1.3,2.2-2,3.3
			h15.4c0.3,0,0.4,0.1,0.4,0.4v1.3c0,0.4-0.1,0.5-0.4,0.5h-6.4c-0.4,1.1-0.8,2.2-1.4,3.2c-0.6,1.3-1.4,2.6-2.3,3.7
			c-0.2,0.2-0.4,0.4-0.6,0.6c0.4,0.2,0.7,0.3,1,0.5c3.4,1.7,6.2,3.2,8.6,4.6l-0.2,0.3l-1.1,1.5c-3.2-2-6.6-3.7-10.1-5.3
			c-0.3,0.2-0.6,0.4-0.9,0.6c-1.4,0.9-2.8,1.7-4.3,2.3c-2.4,1-4.9,1.8-7.4,2.4c-0.3,0-0.4-0.1-0.4-0.2c-0.4-0.5-0.7-1-1-1.5
			c-0.1,0-0.1-0.1-0.2-0.2c0-0.1-0.1-0.2-0.1-0.2c0.8-0.1,1.5-0.2,2.3-0.4c1.4-0.3,2.7-0.6,4-1c1.7-0.6,3.3-1.4,4.9-2.2
			c0.3-0.2,0.6-0.4,0.8-0.6c-2.5-1-4.6-1.9-6.4-2.4l-1.5,1.8c-0.1,0-0.2,0-0.3,0c-0.1,0-0.2-0.1-0.2-0.2c-0.4-0.2-0.8-0.4-1.3-0.5
			c-0.1,0-0.2-0.1-0.2-0.3c2-2.4,3.5-4.3,4.6-5.9c0.1-0.1,0.1-0.2,0.2-0.3h-8.6c-0.3,0-0.4-0.2-0.4-0.5v-1.3c0-0.2,0.1-0.4,0.4-0.4
			h10.1c0.8-1.1,1.4-2.3,2.1-3.5c0.4-0.8,0.8-1.6,1.1-2.4c0-0.2,0.2-0.3,0.3-0.3L333.4,21.3z M333.4,13c0,0.3-0.1,0.5-0.3,0.5
			c-0.2,0-0.3,0.3-0.3,0.7v1.7H344c0.3,0,0.5,0.1,0.5,0.4v6.4c0,0.3-0.2,0.4-0.5,0.4h-1.3c-0.3,0-0.5-0.1-0.5-0.4v-4.7h-22.2v4.7
			c0,0.3-0.2,0.4-0.5,0.4h-1.3c-0.3,0-0.5-0.1-0.5-0.4v-6.3c0-0.1,0-0.1,0-0.2c0-0.1,0.1-0.1,0.1-0.2c0-0.1,0.1-0.1,0.2-0.1
			c0.1,0,0.1,0,0.2,0h12.1V13c0-0.3,0.2-0.4,0.5-0.4C332.6,12.6,333.5,12.7,333.4,13L333.4,13z M328.7,27.9V28
			c-0.8,1.1-1.7,2.3-2.8,3.7c2.6,0.9,4.9,1.8,6.8,2.6c0.1,0,0.1-0.1,0.1-0.1c1-0.9,1.8-2,2.5-3.2c0.6-1,1.1-2.1,1.5-3.2L328.7,27.9z
			"/>
		<path class="st2" d="M358,15.4c-0.3,0-0.4-0.2-0.4-0.5v-1.3c0-0.3,0.1-0.4,0.4-0.4h7.4c0.1,0,0.3,0,0.4,0.1
			c0.1,0.1,0.2,0.1,0.3,0.2c1,2.3,2.5,4.4,4.4,6.1c1.8,1.8,4.8,3.1,8.8,3.9c0.5,0.1,0.7,0.2,0.7,0.4c0,0.2-0.1,0.2-0.2,0.4
			c-0.5,0.4-0.8,0.7-1.1,1.1c-0.1,0.1-0.1,0.2-0.2,0.3c-0.1,0.1-0.2,0.1-0.3,0.1c-1.1-0.3-2.2-0.7-3.2-1.1v0.9
			c0,0.3-0.1,0.5-0.4,0.5H366v5.1h8.3c0,0,0.1,0,0.1,0c0,0,0.1,0,0.1,0.1c0,0,0.1,0.1,0.1,0.1c0,0,0,0.1,0,0.1v1.3
			c0,0.4-0.1,0.5-0.4,0.5H366V39h12c0.1,0,0.1,0,0.2,0c0.1,0,0.1,0,0.1,0.1c0,0,0.1,0.1,0.1,0.1c0,0.1,0,0.1,0,0.2v1.3
			c0,0.3-0.1,0.5-0.4,0.5h-26.7c-0.3,0-0.4-0.2-0.4-0.5v-1.3c0-0.3,0.1-0.4,0.4-0.4h12.2v-5.6h-8.5c-0.3,0-0.4-0.2-0.4-0.5v-1.3
			c0-0.1,0-0.1,0-0.2c0,0,0-0.1,0.1-0.1c0,0,0.1-0.1,0.1-0.1c0,0,0.1,0,0.2,0h8.5v-5.1h-8.9c-0.3,0-0.4-0.2-0.4-0.5v-0.7
			c-0.9,0.6-1.9,1-2.9,1.3c-0.1,0-0.3-0.1-0.4-0.4c-0.3-0.4-0.7-0.8-1.1-1.2c-0.2-0.2-0.3-0.3-0.3-0.4c1.9-0.6,3.7-1.4,5.4-2.3
			c1.6-0.9,3.1-2,4.5-3.3c1-1,1.9-2.1,2.7-3.2H358z M373.2,24c-1.6-0.7-3.1-1.6-4.4-2.7c-1.7-1.6-3.1-3.5-4.1-5.6
			c-0.7,1.1-1.4,2-2.3,2.9c-1,1.2-2.1,2.3-3.3,3.3c-1,0.8-2,1.5-3,2.1L373.2,24z"/>
		<path class="st2" d="M396.2,22.4v-1.5c0-0.3,0.2-0.4,0.5-0.4c1.6,0,2.4,0.1,2.4,0.4c0,0.3-0.1,0.5-0.3,0.5c-0.2,0-0.3,0.3-0.3,0.7
			v0.4h5.3c0.2,0,0.3,0.1,0.3,0.4v1c0.3-0.2,0.5-0.4,0.7-0.7c0.9-0.8,1.7-1.7,2.5-2.6c0.1-0.2,0.3-0.3,0.4-0.3
			c0.2,0,0.4,0.1,0.5,0.2c0.6,0.5,1.2,1,1.8,1.6c0,0.1,0,0.1,0,0.2c0,0.1,0,0.1-0.1,0.1c0,0-0.1,0.1-0.1,0.1c-0.1,0-0.1,0-0.2,0
			l-0.5-0.1c-0.1,0-0.3,0.1-0.4,0.1c-0.1,0.1-0.2,0.2-0.3,0.3c-2,1.8-3.6,3.1-4.8,4.1h8.5c0.2,0,0.3,0.1,0.3,0.4v1
			c0,0.3-0.1,0.5-0.3,0.5h-11.2c-0.7,0.5-1.4,0.9-2.1,1.3c-0.7,0.4-1.3,0.7-2,1h12c0.3,0,0.5,0.1,0.5,0.4v10.4
			c0,0.3-0.2,0.4-0.5,0.4h-1.3c-0.4,0-0.5-0.1-0.5-0.4v-0.7h-13v0.7c0,0.3-0.2,0.4-0.5,0.4h-1.3c-0.4,0-0.5-0.1-0.5-0.4v-8.6
			c-1.9,0.7-3.9,1.3-6.2,1.8c-0.4,0-0.6-0.1-0.7-0.2c-0.3-0.5-0.7-0.9-1.1-1.2c-0.1,0-0.1-0.1-0.1-0.2c0-0.1-0.1-0.1-0.1-0.2
			c0-0.1,0.1-0.2,0.4-0.2c1.6-0.2,2.8-0.4,3.4-0.5c1.4-0.3,2.8-0.6,4.2-1.1c1.7-0.6,3.4-1.3,5-2.1l0.9-0.5h-12.3
			c-0.2,0-0.2-0.2-0.2-0.5v-1c0-0.3,0-0.4,0.2-0.4h11.3v-2.6h-7.3c-0.2,0-0.2-0.2-0.2-0.5v-1c0-0.3,0.1-0.4,0.2-0.4L396.2,22.4z
			 M411,13.1c0.3,0,0.5,0.1,0.5,0.4v6.1c0,0.3-0.2,0.4-0.5,0.4h-25.1c-0.4,0-0.5-0.1-0.5-0.4v-6.1c0-0.3,0.2-0.4,0.5-0.4H411z
			 M393.1,15h-5.5v3h5.5V15z M406.9,35.2V33h-13v2.2H406.9z M406.9,39.3v-2.2h-13v2.2H406.9z M401.3,15h-5.8v3h5.8V15z M401,26.3
			c0.9-0.7,1.8-1.3,2.5-2h-5.1v2.6h1.7C400.5,26.7,400.8,26.5,401,26.3z M409.2,15h-5.6v3h5.6V15z"/>
		<path class="st2" d="M80.8,68.5l5.1-13.2h1.9l5.4,13.2h-2l-1.6-4h-5.5l-1.5,4H80.8z M84.6,63.1h4.5l-1.4-3.7
			c-0.4-1.1-0.7-2-0.9-2.7c-0.2,0.9-0.4,1.7-0.7,2.5L84.6,63.1z"/>
		<path class="st2" d="M100.7,68.5v-1.2c-0.3,0.5-0.7,0.8-1.1,1.1c-0.5,0.2-1,0.4-1.5,0.3c-0.7,0-1.5-0.2-2.1-0.6
			c-0.7-0.4-1.2-1-1.5-1.8c-0.4-0.8-0.5-1.7-0.5-2.6c0-0.9,0.1-1.8,0.5-2.6c0.3-0.7,0.8-1.4,1.4-1.8c0.6-0.4,1.4-0.6,2.1-0.6
			c0.5,0,1.1,0.1,1.5,0.4c0.4,0.2,0.8,0.6,1.1,0.9v-4.8h1.6v13.2H100.7z M95.6,63.7c-0.1,1,0.2,2,0.8,2.8c0.2,0.3,0.5,0.5,0.8,0.7
			c0.3,0.2,0.7,0.2,1,0.2c0.3,0,0.7-0.1,1-0.2c0.3-0.2,0.6-0.4,0.8-0.6c0.5-0.8,0.8-1.7,0.7-2.6c0.1-1-0.2-2.1-0.7-2.9
			c-0.2-0.3-0.5-0.5-0.8-0.7c-0.3-0.2-0.7-0.2-1-0.2c-0.4,0-0.7,0.1-1,0.2c-0.3,0.2-0.6,0.4-0.8,0.7C95.8,61.8,95.5,62.8,95.6,63.7z
			"/>
		<path class="st2" d="M105,68.5v-9.6h1.5v1.3c0.3-0.5,0.7-0.9,1.2-1.1c0.5-0.3,1.1-0.4,1.7-0.4c0.6,0,1.2,0.1,1.7,0.4
			c0.5,0.3,0.8,0.8,1,1.3c0.3-0.5,0.7-0.9,1.3-1.2c0.5-0.3,1.1-0.4,1.7-0.4c0.4,0,0.8,0,1.2,0.2c0.4,0.1,0.7,0.3,1,0.6
			c0.6,0.7,0.8,1.6,0.8,2.4v6.6h-1.7v-6.1c0-0.4,0-0.9-0.2-1.3c-0.1-0.3-0.3-0.5-0.6-0.7c-0.3-0.2-0.6-0.3-1-0.3
			c-0.3,0-0.6,0-0.9,0.2c-0.3,0.1-0.5,0.3-0.8,0.5c-0.5,0.6-0.7,1.4-0.7,2.1v5.6h-1.6v-6.3c0-0.6-0.1-1.1-0.4-1.6
			c-0.2-0.2-0.4-0.3-0.6-0.4c-0.2-0.1-0.5-0.1-0.7-0.1c-0.5,0-0.9,0.1-1.3,0.4c-0.4,0.2-0.7,0.6-0.8,1.1c-0.2,0.6-0.3,1.3-0.3,2v5
			H105z"/>
		<path class="st2" d="M120.5,57.1v-1.9h1.6v1.9H120.5z M120.5,68.5v-9.6h1.6v9.6H120.5z"/>
		<path class="st2" d="M124.8,68.5v-9.6h1.5v1.4c0.3-0.5,0.8-0.9,1.3-1.2c0.5-0.3,1.1-0.4,1.7-0.4c0.5,0,1.1,0.1,1.6,0.3
			c0.4,0.2,0.8,0.5,1.1,0.8c0.2,0.4,0.4,0.8,0.5,1.2c0.1,0.5,0.1,1,0.1,1.6v5.9H131v-5.8c0-0.5,0-1-0.2-1.5
			c-0.1-0.3-0.4-0.6-0.7-0.8c-0.3-0.2-0.7-0.3-1.1-0.3c-0.7,0-1.3,0.2-1.8,0.7c-0.3,0.3-0.5,0.7-0.6,1.2c-0.1,0.4-0.2,0.9-0.1,1.3
			v5.2L124.8,68.5z"/>
		<path class="st2" d="M135.3,57.1v-1.9h1.6v1.9H135.3z M135.3,68.5v-9.6h1.6v9.6H135.3z"/>
		<path class="st2" d="M138.9,65.6l1.6-0.2c0.1,0.6,0.3,1.1,0.8,1.5c0.5,0.4,1.1,0.5,1.7,0.5c0.6,0,1.2-0.1,1.7-0.5
			c0.2-0.1,0.3-0.3,0.4-0.5s0.1-0.4,0.1-0.6c0-0.2,0-0.3-0.1-0.5c-0.1-0.2-0.2-0.3-0.3-0.4c-0.5-0.2-1.1-0.4-1.7-0.5
			c-0.8-0.2-1.7-0.4-2.5-0.8c-0.4-0.2-0.8-0.5-1-0.9c-0.2-0.4-0.3-0.8-0.3-1.2s0.1-0.9,0.3-1.2c0.2-0.4,0.5-0.7,0.8-0.9
			c0.3-0.2,0.7-0.4,1-0.5c0.5-0.1,0.9-0.2,1.4-0.2c0.7,0,1.3,0.1,2,0.3c0.5,0.2,1,0.5,1.3,0.9c0.3,0.4,0.5,1,0.6,1.5l-1.6,0.2
			c-0.1-0.5-0.3-0.9-0.6-1.2c-0.4-0.3-0.9-0.4-1.5-0.4c-0.6-0.1-1.1,0.1-1.6,0.4c-0.1,0.1-0.3,0.2-0.3,0.4c-0.1,0.1-0.1,0.3-0.1,0.5
			c0,0.2,0.1,0.4,0.2,0.6c0.2,0.2,0.4,0.4,0.6,0.4c0.2,0,0.6,0.2,1.4,0.4c0.8,0.2,1.6,0.5,2.4,0.8c0.4,0.2,0.8,0.5,1.1,0.9
			c0.3,0.4,0.4,0.9,0.4,1.4c0,0.5-0.2,1.1-0.5,1.5c-0.3,0.5-0.8,0.9-1.3,1.1c-0.6,0.3-1.3,0.4-2,0.4c-1,0.1-2-0.2-2.8-0.8
			C139.6,67.4,139.1,66.6,138.9,65.6z"/>
		<path class="st2" d="M152.5,67l0.2,1.4c-0.4,0.1-0.8,0.1-1.2,0.1c-0.5,0-0.9-0.1-1.4-0.3c-0.3-0.2-0.5-0.4-0.7-0.7
			c-0.2-0.6-0.2-1.3-0.2-1.9v-5.5H148v-1.3h1.2v-2.3l1.6-1v3.3h1.6v1.3h-1.6v5.6c0,0.3,0,0.6,0.1,0.9c0.1,0.1,0.2,0.2,0.3,0.3
			c0.2,0.1,0.4,0.1,0.6,0.1C152,67.1,152.2,67.1,152.5,67z"/>
		<path class="st2" d="M154.2,68.5v-9.6h1.5v1.5c0.2-0.5,0.6-0.9,1-1.3c0.3-0.2,0.7-0.3,1-0.3c0.6,0,1.2,0.2,1.7,0.5l-0.6,1.5
			c-0.4-0.2-0.8-0.4-1.2-0.4c-0.3,0-0.7,0.1-0.9,0.3c-0.3,0.2-0.5,0.5-0.6,0.9c-0.2,0.6-0.3,1.2-0.3,1.9v5L154.2,68.5z"/>
		<path class="st2" d="M166.8,67.3c-0.5,0.5-1.1,0.8-1.7,1.1c-0.6,0.2-1.2,0.3-1.8,0.3c-0.9,0.1-1.7-0.2-2.4-0.8
			c-0.4-0.4-0.7-0.9-0.8-1.5s0-1.2,0.3-1.7c0.2-0.4,0.5-0.7,0.8-0.9c0.4-0.2,0.8-0.4,1.2-0.5c0.5-0.1,1-0.2,1.4-0.2
			c1-0.1,2-0.3,2.9-0.6V62c0-0.3,0-0.5-0.1-0.7c-0.1-0.2-0.2-0.5-0.4-0.6c-0.5-0.4-1.2-0.6-1.8-0.6c-0.6,0-1.2,0.1-1.7,0.4
			c-0.4,0.4-0.7,0.9-0.8,1.4l-1.6-0.2c0.1-0.6,0.4-1.2,0.7-1.6c0.4-0.5,0.9-0.8,1.4-1c0.7-0.2,1.4-0.4,2.2-0.3c0.7,0,1.3,0.1,2,0.3
			c0.4,0.1,0.8,0.4,1.1,0.7c0.3,0.3,0.4,0.7,0.5,1.1c0.1,0.5,0.1,1,0.1,1.5v2.2c0,1,0,1.9,0.1,2.9c0.1,0.4,0.2,0.8,0.4,1.1h-1.7
			C166.9,68.1,166.8,67.7,166.8,67.3z M166.7,63.7c-0.8,0.3-1.7,0.5-2.6,0.6c-0.5,0.1-1,0.2-1.4,0.3c-0.3,0.1-0.5,0.3-0.6,0.5
			c-0.1,0.2-0.2,0.5-0.2,0.8c0,0.2,0,0.4,0.1,0.6c0.1,0.2,0.2,0.4,0.4,0.5c0.4,0.3,0.9,0.5,1.4,0.4c0.6,0,1.2-0.1,1.7-0.4
			c0.5-0.2,0.8-0.6,1.1-1.1c0.2-0.5,0.3-1.1,0.3-1.6L166.7,63.7z"/>
		<path class="st2" d="M174.6,67l0.2,1.4c-0.4,0.1-0.8,0.1-1.2,0.1c-0.5,0-0.9-0.1-1.4-0.3c-0.3-0.2-0.5-0.4-0.7-0.7
			c-0.2-0.6-0.2-1.3-0.2-1.9v-5.5h-1.2v-1.3h1.2v-2.3l1.6-1v3.3h1.6v1.3h-1.6v5.6c0,0.3,0,0.6,0.1,0.9c0.1,0.1,0.2,0.2,0.3,0.3
			c0.2,0.1,0.4,0.1,0.5,0.1C174.1,67.1,174.3,67.1,174.6,67z"/>
		<path class="st2" d="M176.3,57.1v-1.9h1.6v1.9H176.3z M176.3,68.5v-9.6h1.6v9.6H176.3z"/>
		<path class="st2" d="M180,63.7c-0.1-0.7,0.1-1.4,0.3-2.1c0.3-0.7,0.6-1.3,1.2-1.8c0.8-0.7,1.9-1.1,3-1.1c0.6,0,1.2,0.1,1.7,0.3
			c0.6,0.2,1.1,0.6,1.5,1c0.4,0.5,0.8,1,1,1.7c0.2,0.6,0.3,1.3,0.3,1.9c0.1,1-0.1,2-0.6,2.9c-0.4,0.7-0.9,1.3-1.6,1.6
			c-0.7,0.4-1.5,0.6-2.3,0.6c-0.6,0-1.2-0.1-1.8-0.3c-0.6-0.2-1.1-0.6-1.5-1c-0.5-0.5-0.8-1.1-1-1.8C180,65.1,180,64.4,180,63.7z
			 M181.7,63.7c-0.1,1,0.2,2,0.8,2.8c0.3,0.3,0.6,0.5,0.9,0.7s0.7,0.2,1.1,0.2c0.4,0,0.8-0.1,1.1-0.2s0.7-0.4,0.9-0.7
			c0.6-0.8,0.9-1.8,0.8-2.8c0.1-1-0.2-1.9-0.8-2.7c-0.2-0.3-0.6-0.5-0.9-0.7c-0.3-0.2-0.7-0.2-1.1-0.2c-0.4,0-0.8,0.1-1.1,0.2
			c-0.3,0.2-0.7,0.4-0.9,0.7C181.9,61.8,181.6,62.7,181.7,63.7z"/>
		<path class="st2" d="M191,68.5v-9.6h1.5v1.4c0.3-0.5,0.8-0.9,1.3-1.2c0.5-0.3,1.1-0.4,1.7-0.4c0.5,0,1.1,0.1,1.6,0.3
			c0.4,0.2,0.8,0.5,1.1,0.8c0.3,0.4,0.4,0.8,0.5,1.2c0.1,0.5,0.1,1,0.1,1.6v5.9h-1.6v-5.8c0-0.5,0-1-0.2-1.5
			c-0.1-0.3-0.4-0.6-0.7-0.8c-0.3-0.2-0.7-0.3-1.1-0.3c-0.7,0-1.3,0.2-1.8,0.7c-0.3,0.3-0.5,0.7-0.6,1.2c-0.1,0.4-0.2,0.9-0.1,1.3
			v5.2L191,68.5z"/>
		<path class="st2" d="M207.2,68.5v-8.3h-1.4v-1.3h1.4v-1c0-0.5,0-1,0.2-1.4c0.2-0.4,0.4-0.8,0.8-1c0.5-0.3,1.1-0.4,1.6-0.4
			c0.5,0,1,0.1,1.5,0.2l-0.2,1.4c-0.3-0.1-0.6-0.1-1-0.1c-0.2,0-0.4,0-0.6,0.1c-0.2,0.1-0.3,0.1-0.5,0.3c-0.2,0.3-0.4,0.8-0.3,1.2
			v0.9h1.9v1.3h-1.9v8.3H207.2z"/>
		<path class="st2" d="M211.5,63.7c-0.1-0.7,0-1.4,0.3-2.1c0.2-0.7,0.6-1.3,1.1-1.8c0.8-0.7,1.9-1.1,3-1.1c0.6,0,1.2,0.1,1.7,0.3
			s1.1,0.6,1.5,1c0.4,0.5,0.8,1,1,1.7c0.2,0.6,0.3,1.3,0.3,1.9c0.1,1-0.1,2-0.6,2.9c-0.4,0.7-0.9,1.3-1.6,1.6
			c-0.7,0.4-1.5,0.6-2.3,0.6c-0.6,0-1.2-0.1-1.8-0.3c-0.6-0.2-1.1-0.6-1.5-1c-0.4-0.5-0.8-1.1-1-1.8
			C211.5,65.1,211.4,64.4,211.5,63.7z M213.2,63.7c-0.1,1,0.2,2,0.8,2.8c0.3,0.3,0.6,0.5,0.9,0.7s0.7,0.2,1.1,0.2
			c0.4,0,0.8-0.1,1.1-0.2s0.7-0.4,0.9-0.7c0.6-0.8,0.9-1.8,0.8-2.8c0.1-1-0.2-1.9-0.8-2.7c-0.2-0.3-0.6-0.5-0.9-0.7
			c-0.3-0.2-0.7-0.2-1.1-0.2c-0.4,0-0.8,0.1-1.1,0.2c-0.3,0.2-0.7,0.4-0.9,0.7C213.4,61.8,213.1,62.7,213.2,63.7z"/>
		<path class="st2" d="M222.5,68.5v-9.6h1.5v1.5c0.2-0.5,0.6-0.9,1-1.3c0.3-0.2,0.7-0.3,1-0.3c0.6,0,1.2,0.2,1.7,0.5l-0.5,1.5
			c-0.4-0.2-0.8-0.4-1.2-0.4c-0.3,0-0.7,0.1-1,0.3c-0.3,0.2-0.5,0.5-0.6,0.9c-0.2,0.6-0.3,1.2-0.3,1.9v5H222.5z"/>
		<path class="st2" d="M243.8,63.9l1.7,0.4c-0.3,1.3-1,2.5-2,3.3c-1,0.8-2.2,1.2-3.5,1.1c-1.2,0.1-2.4-0.2-3.5-0.9
			c-0.9-0.6-1.6-1.5-2-2.5c-0.5-1.1-0.7-2.3-0.7-3.5c0-1.2,0.2-2.5,0.8-3.6c0.5-1,1.3-1.8,2.2-2.3c1-0.5,2.1-0.8,3.2-0.8
			c1.2,0,2.4,0.3,3.3,1c0.9,0.7,1.6,1.7,1.9,2.8l-1.7,0.4c-0.2-0.8-0.7-1.5-1.3-2.1c-0.6-0.5-1.4-0.7-2.2-0.7
			c-0.9,0-1.8,0.2-2.6,0.7c-0.7,0.5-1.2,1.2-1.4,2c-0.3,0.8-0.4,1.7-0.4,2.6c0,1,0.1,2,0.5,3c0.3,0.8,0.8,1.4,1.5,1.9
			c0.7,0.4,1.4,0.6,2.2,0.6c0.9,0,1.8-0.3,2.5-0.8C243.2,65.8,243.7,64.8,243.8,63.9z"/>
		<path class="st2" d="M247.6,72.2l-0.2-1.5c0.3,0.1,0.6,0.1,0.9,0.1c0.3,0,0.6,0,0.9-0.2c0.2-0.1,0.4-0.3,0.5-0.5
			c0.2-0.4,0.4-0.8,0.5-1.2c0-0.1,0.1-0.2,0.1-0.4l-3.6-9.6h1.7l2,5.6c0.3,0.7,0.5,1.4,0.7,2.2c0.2-0.7,0.4-1.5,0.7-2.2l2.1-5.6h1.6
			l-3.7,9.7c-0.3,0.7-0.6,1.5-0.9,2.2c-0.2,0.5-0.6,0.9-1,1.2c-0.4,0.2-0.8,0.4-1.3,0.4C248.3,72.4,247.9,72.3,247.6,72.2z"/>
		<path class="st2" d="M258.6,68.5h-1.5V55.3h1.6V60c0.3-0.4,0.7-0.7,1.1-1c0.5-0.2,0.9-0.3,1.5-0.3c0.6,0,1.1,0.1,1.7,0.4
			c0.5,0.2,1,0.6,1.3,1c0.4,0.5,0.6,1,0.8,1.6c0.2,0.6,0.3,1.3,0.3,2c0.1,1.4-0.3,2.7-1.2,3.8c-0.4,0.4-0.8,0.7-1.3,1
			c-0.5,0.2-1,0.3-1.6,0.3c-0.5,0-1-0.1-1.5-0.4c-0.5-0.2-0.9-0.6-1.1-1.1L258.6,68.5z M258.6,63.6c-0.1,0.9,0.1,1.7,0.5,2.5
			c0.2,0.4,0.5,0.7,0.8,0.9c0.4,0.2,0.8,0.4,1.2,0.4c0.4,0,0.7-0.1,1-0.2c0.3-0.2,0.6-0.4,0.8-0.7c0.5-0.8,0.8-1.8,0.8-2.8
			c0-1-0.3-1.9-0.8-2.8c-0.2-0.3-0.5-0.5-0.8-0.7c-0.3-0.2-0.7-0.2-1-0.2c-0.4,0-0.7,0.1-1,0.2c-0.3,0.2-0.6,0.4-0.8,0.7
			C258.8,61.8,258.5,62.7,258.6,63.6L258.6,63.6z"/>
		<path class="st2" d="M274.1,65.4l1.7,0.2c-0.2,0.9-0.7,1.7-1.5,2.3c-0.9,0.6-2,0.9-3.1,0.8c-1.1-0.1-2.1-0.5-2.9-1.3
			c-0.9-1-1.4-2.3-1.3-3.6c-0.1-1.4,0.4-2.7,1.3-3.8c0.4-0.4,0.9-0.8,1.5-1c0.6-0.2,1.2-0.3,1.7-0.3c0.6,0,1.2,0.1,1.7,0.3
			c0.5,0.2,1,0.6,1.4,1c0.9,1,1.3,2.3,1.2,3.7c0,0.1,0,0.2,0,0.4h-7.1c0,0.9,0.3,1.7,0.9,2.4c0.3,0.3,0.6,0.5,0.9,0.6
			s0.7,0.2,1.1,0.2c0.5,0,1.1-0.1,1.5-0.5C273.5,66.5,273.9,66,274.1,65.4z M268.7,62.8h5.3c0-0.7-0.2-1.3-0.6-1.8
			c-0.2-0.3-0.5-0.5-0.9-0.7c-0.3-0.2-0.7-0.2-1.1-0.2c-0.3,0-0.7,0.1-1,0.2c-0.3,0.1-0.6,0.3-0.9,0.6
			C269.1,61.3,268.8,62,268.7,62.8L268.7,62.8z"/>
		<path class="st2" d="M277.9,68.5v-9.6h1.5v1.5c0.2-0.5,0.6-0.9,1-1.3c0.3-0.2,0.7-0.3,1-0.3c0.6,0,1.2,0.2,1.7,0.5l-0.6,1.5
			c-0.4-0.2-0.8-0.4-1.2-0.4c-0.3,0-0.7,0.1-1,0.3c-0.3,0.2-0.5,0.5-0.6,0.9c-0.2,0.6-0.3,1.2-0.3,1.9v5L277.9,68.5z"/>
		<path class="st2" d="M289.2,64.2l1.6-0.1c0,0.6,0.2,1.1,0.5,1.6c0.3,0.5,0.8,0.8,1.3,1c0.6,0.3,1.3,0.4,2,0.4
			c0.6,0,1.2-0.1,1.8-0.3c0.5-0.2,0.8-0.4,1.1-0.8c0.2-0.3,0.4-0.7,0.4-1.1c0-0.4-0.1-0.8-0.4-1.1c-0.3-0.4-0.7-0.6-1.2-0.8
			c-0.8-0.3-1.6-0.5-2.3-0.7c-0.9-0.2-1.8-0.5-2.6-0.8c-0.6-0.3-1.1-0.7-1.4-1.2c-0.3-0.5-0.5-1.1-0.5-1.7c0-0.7,0.2-1.3,0.6-1.9
			c0.4-0.6,1-1,1.7-1.3c0.8-0.3,1.6-0.4,2.4-0.4c0.9,0,1.8,0.1,2.6,0.5c0.7,0.3,1.3,0.7,1.8,1.4c0.4,0.6,0.6,1.3,0.6,2.1l-1.7,0.1
			c0-0.4-0.1-0.7-0.3-1c-0.2-0.3-0.4-0.6-0.6-0.9c-0.7-0.5-1.5-0.7-2.3-0.7c-0.8,0-1.6,0.2-2.3,0.6c-0.2,0.2-0.4,0.4-0.5,0.6
			c-0.1,0.2-0.2,0.5-0.2,0.8c0,0.2,0,0.4,0.1,0.6c0.1,0.2,0.2,0.4,0.4,0.5c0.8,0.5,1.7,0.8,2.6,0.9c1,0.2,2,0.5,2.9,0.8
			c0.7,0.3,1.3,0.7,1.7,1.3c0.4,0.6,0.6,1.2,0.5,1.9c0,0.7-0.2,1.4-0.6,2c-0.4,0.6-1,1.2-1.7,1.5c-0.8,0.4-1.7,0.5-2.6,0.5
			c-1,0-2-0.1-3-0.5c-0.8-0.3-1.4-0.9-1.9-1.6C289.4,65.9,289.2,65.1,289.2,64.2z"/>
		<path class="st2" d="M308.6,65.4l1.7,0.2c-0.2,0.9-0.7,1.7-1.5,2.3c-0.9,0.6-2,0.9-3.1,0.8s-2.1-0.5-2.9-1.3
			c-0.9-1-1.3-2.3-1.2-3.6c-0.1-1.4,0.4-2.7,1.3-3.8c0.4-0.4,0.9-0.8,1.5-1c0.6-0.2,1.2-0.3,1.7-0.3c0.6,0,1.2,0.1,1.7,0.3
			c0.5,0.2,1,0.6,1.4,1c0.8,1,1.2,2.4,1.1,3.7v0.4h-7.1c0,0.9,0.3,1.7,0.9,2.4c0.3,0.3,0.6,0.5,0.9,0.6s0.7,0.2,1.1,0.2
			c0.5,0,1.1-0.1,1.5-0.5C308.1,66.6,308.4,66,308.6,65.4z M303.3,62.8h5.3c0-0.7-0.2-1.3-0.6-1.8c-0.2-0.3-0.5-0.5-0.9-0.7
			c-0.3-0.2-0.7-0.2-1.1-0.2c-0.3,0-0.7,0.1-1,0.2c-0.3,0.1-0.6,0.3-0.9,0.6C303.6,61.3,303.3,62,303.3,62.8L303.3,62.8z"/>
		<path class="st2" d="M318.8,65l1.6,0.2c-0.1,1-0.6,1.9-1.3,2.6c-0.7,0.6-1.6,0.9-2.6,0.9c-0.6,0-1.2-0.1-1.7-0.3
			c-0.5-0.2-1-0.6-1.4-1c-0.9-1-1.3-2.4-1.2-3.7c0-0.9,0.2-1.8,0.5-2.7c0.3-0.7,0.9-1.4,1.6-1.8c0.7-0.4,1.5-0.6,2.3-0.6
			c0.9-0.1,1.8,0.2,2.6,0.8c0.7,0.6,1.2,1.4,1.3,2.2l-1.6,0.2c-0.1-0.6-0.4-1.1-0.8-1.5c-0.4-0.3-0.9-0.5-1.4-0.5
			c-0.4,0-0.8,0.1-1.1,0.2c-0.3,0.2-0.7,0.4-0.9,0.7c-0.6,0.8-0.8,1.8-0.8,2.8c-0.1,1,0.2,2,0.7,2.8c0.2,0.3,0.5,0.5,0.9,0.7
			c0.3,0.2,0.7,0.2,1.1,0.2c0.6,0,1.2-0.2,1.6-0.6C318.5,66.3,318.8,65.7,318.8,65z"/>
		<path class="st2" d="M328.2,68.5v-1.4c-0.3,0.5-0.8,0.9-1.3,1.2c-0.5,0.3-1.1,0.4-1.7,0.4c-0.5,0-1.1-0.1-1.6-0.3
			c-0.4-0.2-0.8-0.5-1.1-0.8c-0.3-0.4-0.4-0.8-0.5-1.2c-0.1-0.5-0.1-1-0.1-1.5v-5.9h1.6v5.3c0,0.6,0,1.1,0.1,1.7
			c0.1,0.4,0.3,0.8,0.6,1c0.4,0.3,0.8,0.4,1.2,0.4c0.5,0,0.9-0.1,1.4-0.4c0.4-0.2,0.7-0.6,0.9-1c0.2-0.6,0.3-1.2,0.3-1.9v-5.2h1.6
			v9.6L328.2,68.5z"/>
		<path class="st2" d="M332.4,68.5v-9.6h1.5v1.5c0.2-0.5,0.6-0.9,1-1.3c0.3-0.2,0.7-0.3,1-0.3c0.6,0,1.2,0.2,1.7,0.5l-0.6,1.5
			c-0.4-0.2-0.8-0.4-1.2-0.4c-0.3,0-0.7,0.1-0.9,0.3c-0.3,0.2-0.5,0.5-0.6,0.9c-0.2,0.6-0.3,1.2-0.3,1.9v5L332.4,68.5z"/>
		<path class="st2" d="M338.7,57.1v-1.9h1.6v1.9H338.7z M338.7,68.5v-9.6h1.6v9.6H338.7z"/>
		<path class="st2" d="M346.5,67l0.2,1.4c-0.4,0.1-0.8,0.1-1.2,0.1c-0.5,0-0.9-0.1-1.4-0.3c-0.3-0.2-0.5-0.4-0.7-0.7
			c-0.2-0.6-0.2-1.3-0.2-1.9v-5.5h-1.2v-1.3h1.2v-2.3l1.6-1v3.3h1.6v1.3h-1.6v5.6c0,0.3,0,0.6,0.1,0.9c0.1,0.1,0.1,0.2,0.3,0.3
			c0.2,0.1,0.4,0.1,0.6,0.1C346,67.1,346.3,67.1,346.5,67z"/>
		<path class="st2" d="M348.2,72.2l-0.2-1.5c0.3,0.1,0.6,0.1,0.9,0.1c0.3,0,0.6,0,0.9-0.2c0.2-0.1,0.4-0.3,0.5-0.5
			c0.2-0.4,0.4-0.8,0.5-1.2c0-0.1,0.1-0.2,0.1-0.4l-3.6-9.6h1.7l2,5.6c0.3,0.7,0.5,1.4,0.7,2.2c0.2-0.7,0.4-1.5,0.7-2.2l2.1-5.6h1.6
			l-3.6,9.7c-0.3,0.7-0.6,1.5-0.9,2.2c-0.2,0.5-0.6,0.9-1,1.2c-0.4,0.3-0.8,0.4-1.3,0.4C348.9,72.4,348.5,72.3,348.2,72.2z"/>
		<path class="st2" d="M358.1,68.5v-1.8h1.8v1.8c0,0.6-0.1,1.1-0.4,1.7c-0.3,0.4-0.7,0.8-1.1,1l-0.5-0.7c0.3-0.1,0.6-0.4,0.8-0.7
			c0.2-0.4,0.3-0.9,0.3-1.3L358.1,68.5z"/>
		<path class="st2" d="M368.3,68.5v-9.6h1.5v1.3c0.3-0.5,0.7-0.9,1.2-1.1c0.5-0.3,1.1-0.4,1.7-0.4c0.6,0,1.2,0.1,1.7,0.4
			c0.5,0.3,0.8,0.8,1,1.3c0.3-0.5,0.7-0.9,1.3-1.2c0.5-0.3,1.1-0.4,1.7-0.4c0.4,0,0.8,0,1.2,0.2c0.4,0.1,0.7,0.3,1,0.6
			c0.6,0.7,0.8,1.6,0.8,2.4v6.6h-1.6v-6.1c0-0.4,0-0.9-0.2-1.3c-0.1-0.3-0.3-0.5-0.6-0.7c-0.3-0.2-0.6-0.3-1-0.3
			c-0.3,0-0.6,0-0.9,0.2c-0.3,0.1-0.5,0.3-0.8,0.5c-0.2,0.3-0.4,0.6-0.6,1c-0.1,0.4-0.2,0.8-0.1,1.1v5.6H374v-6.3
			c0-0.6-0.1-1.1-0.4-1.6c-0.2-0.2-0.4-0.3-0.6-0.4c-0.2-0.1-0.5-0.1-0.7-0.1c-0.5,0-0.9,0.1-1.3,0.4c-0.4,0.2-0.7,0.6-0.8,1.1
			c-0.2,0.6-0.3,1.3-0.3,2v5H368.3z"/>
		<path class="st2" d="M383.2,63.7c-0.1-0.7,0.1-1.4,0.3-2.1c0.3-0.7,0.7-1.3,1.2-1.8c0.8-0.7,1.9-1.1,3-1.1c0.6,0,1.2,0.1,1.8,0.3
			c0.6,0.2,1.1,0.6,1.5,1c0.4,0.5,0.8,1,1,1.7c0.2,0.6,0.3,1.3,0.3,1.9c0.1,1-0.1,2-0.6,2.9c-0.4,0.7-0.9,1.3-1.6,1.6
			c-0.7,0.4-1.5,0.6-2.3,0.6c-0.6,0-1.2-0.1-1.8-0.3c-0.6-0.2-1.1-0.6-1.5-1C383.6,66.4,383.2,65.1,383.2,63.7z M384.9,63.7
			c-0.1,1,0.2,2,0.8,2.8c0.3,0.3,0.6,0.5,0.9,0.7c0.3,0.2,0.7,0.2,1.1,0.2c0.4,0,0.8-0.1,1.1-0.2c0.3-0.2,0.7-0.4,0.9-0.7
			c0.6-0.8,0.9-1.8,0.8-2.8c0.1-1-0.2-1.9-0.8-2.7c-0.3-0.3-0.6-0.5-0.9-0.7c-0.3-0.2-0.7-0.2-1.1-0.2c-0.4,0-0.8,0.1-1.1,0.2
			c-0.3,0.2-0.7,0.4-0.9,0.7C385.1,61.8,384.8,62.7,384.9,63.7z"/>
		<path class="st2" d="M400.5,68.5v-1.2c-0.3,0.5-0.7,0.8-1.1,1.1c-0.5,0.2-1,0.4-1.5,0.3c-0.7,0-1.5-0.2-2.1-0.6
			c-0.7-0.4-1.2-1-1.5-1.8c-0.4-0.8-0.5-1.7-0.5-2.6c0-0.9,0.2-1.8,0.5-2.6c0.3-0.7,0.8-1.4,1.4-1.8c0.6-0.4,1.4-0.6,2.1-0.6
			c0.5,0,1.1,0.1,1.5,0.4c0.4,0.2,0.8,0.6,1.1,0.9v-4.8h1.6v13.2H400.5z M395.4,63.7c-0.1,1,0.2,2,0.8,2.8c0.2,0.3,0.5,0.5,0.8,0.7
			c0.3,0.2,0.7,0.2,1,0.2c0.3,0,0.7-0.1,1-0.2c0.3-0.2,0.6-0.4,0.8-0.6c0.5-0.8,0.8-1.7,0.7-2.6c0.1-1-0.2-2-0.8-2.9
			c-0.2-0.3-0.5-0.5-0.8-0.7c-0.3-0.2-0.7-0.2-1-0.2c-0.3,0-0.7,0.1-1,0.2c-0.3,0.2-0.6,0.4-0.8,0.7
			C395.6,61.8,395.3,62.8,395.4,63.7z"/>
		<path class="st2" d="M411,67.3c-0.5,0.5-1.1,0.8-1.7,1.1c-0.6,0.2-1.2,0.3-1.8,0.3c-0.9,0.1-1.7-0.2-2.4-0.8
			c-0.3-0.2-0.5-0.5-0.6-0.9s-0.2-0.7-0.2-1.1c0-0.5,0.1-0.9,0.3-1.3c0.2-0.4,0.5-0.7,0.8-0.9c0.4-0.2,0.7-0.4,1.2-0.5
			c0.5-0.1,1-0.2,1.4-0.2c1-0.1,2-0.3,2.9-0.6c0-0.2,0-0.4,0-0.4c0-0.3,0-0.5-0.1-0.7c-0.1-0.2-0.2-0.5-0.4-0.6
			c-0.5-0.4-1.2-0.6-1.8-0.6c-0.6,0-1.2,0.1-1.7,0.4c-0.4,0.4-0.7,0.9-0.8,1.4l-1.6-0.2c0.1-0.6,0.3-1.2,0.7-1.6
			c0.4-0.5,0.9-0.8,1.4-1c0.7-0.2,1.4-0.4,2.2-0.3c0.7,0,1.3,0.1,2,0.3c0.4,0.1,0.8,0.4,1.1,0.7c0.3,0.3,0.4,0.7,0.5,1.1
			c0.1,0.5,0.1,1,0.1,1.5v2.2c0,1,0,1.9,0.1,2.9c0.1,0.4,0.2,0.8,0.4,1.1h-1.7C411.1,68.1,411,67.7,411,67.3z M410.8,63.7
			c-0.8,0.3-1.7,0.5-2.6,0.6c-0.5,0.1-1,0.2-1.4,0.3c-0.3,0.1-0.5,0.3-0.6,0.5c-0.2,0.3-0.3,0.6-0.2,1c0,0.3,0.2,0.7,0.5,0.9
			c0.4,0.3,0.9,0.5,1.4,0.4c0.6,0,1.2-0.1,1.7-0.4c0.5-0.2,0.8-0.6,1.1-1.1c0.2-0.5,0.3-1.1,0.3-1.6L410.8,63.7z"/>
	</g>
</g>
<g>
	<path class="st2" d="M2.2,45h2.6c0.3,0,0.6,0.1,0.9,0.3H3C2.8,45.2,2.5,45.1,2.2,45z"/>
	<path class="st2" d="M2.2,45.1h2.6c0.1,0,0.2,0,0.3,0H2.6C2.5,45,2.4,45,2.2,45.1"/>
	<path class="st2" d="M2.6,45.1h2.6c0.2,0.1,0.3,0.1,0.5,0.2H3.1C2.9,45.2,2.8,45.2,2.6,45.1z"/>
	<path class="st2" d="M3,45.3h2.6l4,2.3H7.1L3,45.3z"/>
	<path class="st2" d="M15.1,22.6h2.6c0.3,0,0.6,0.1,0.9,0.3H16C15.7,22.7,15.4,22.6,15.1,22.6z"/>
	<path class="st2" d="M15.2,22.6h2.6c0.1,0,0.2,0,0.3,0.1h-2.6C15.4,22.6,15.3,22.6,15.2,22.6"/>
	<path class="st2" d="M15.5,22.6h2.6c0.2,0.1,0.3,0.1,0.5,0.2H16C15.9,22.8,15.7,22.7,15.5,22.6z"/>
	<path class="st2" d="M16,22.8h2.6l5,2.8h-2.6L16,22.8z"/>
	<path class="st2" d="M7.1,47.6h2.6c1.3,0.8,2.3,2,2.9,3.3c0.2,0.4,3.1,7.7,7.1,12.2c2.7,2.7,5.7,5.1,9,7.1c0.6,0.3,1.3,0.5,2,0.5
		H28c-0.7,0-1.4-0.2-2-0.5c-3.2-2.1-6.2-4.4-9-7.1c-4-4.5-6.9-11.8-7.1-12.2C9.3,49.6,8.3,48.4,7.1,47.6z"/>
	<path class="st2" d="M7.1,47.6h2.6c1.3,0.8,2.3,2,2.9,3.3c0.2,0.4,3.1,7.7,7.1,12.2c2.7,2.7,5.7,5.1,9,7.1c0.3,0.2,0.5,0.3,0.8,0.4
		h-2.6c-0.3-0.1-0.6-0.2-0.8-0.4c-3.2-2.1-6.2-4.4-9-7.1c-4-4.5-6.9-11.8-7.1-12.2C9.3,49.6,8.3,48.4,7.1,47.6"/>
	<path class="st2" d="M26.9,70.6h2.6c0.3,0.1,0.6,0.1,0.9,0.2h-2.6C27.5,70.8,27.2,70.7,26.9,70.6"/>
	<path class="st2" d="M28.7,78.7h2.6c-0.2,0.1-0.5,0.1-0.7,0.1H28C28.2,78.8,28.5,78.8,28.7,78.7z"/>
	<path class="st2" d="M28.7,78.7h2.6c-0.2,0.1-0.5,0.1-0.7,0.1H28C28.2,78.8,28.5,78.8,28.7,78.7z"/>
	<path class="st2" d="M29.5,78.3h2.6l-0.8,0.4h-2.6L29.5,78.3z"/>
	<path class="st2" d="M29.5,78.3h2.6l-0.8,0.4h-2.6L29.5,78.3z"/>
	<path class="st2" d="M20.9,25.7h2.6l24.1,21.5H45L20.9,25.7z"/>
	<path class="st2" d="M20.9,25.7h2.6l25.6,14.5h-2.6L20.9,25.7z"/>
	<path class="st2" d="M46.3,50.5h2.6c0.2,1,0.3,2,0.3,3c0,2-0.3,4.1-0.9,6c-1.6,5.6-16.3,18.7-16.3,18.7h-2.6
		c0,0,14.7-13.1,16.3-18.7c0.6-2,0.9-4,0.9-6C46.7,52.5,46.6,51.5,46.3,50.5z"/>
	<path class="st2" d="M46.3,50.5h2.6c0.2,1,0.3,2,0.3,3c0,2-0.3,4.1-0.9,6c-1.6,5.6-16.3,18.7-16.3,18.7h-2.6
		c0,0,14.7-13.1,16.3-18.7c0.6-2,0.9-4,0.9-6C46.7,52.5,46.6,51.5,46.3,50.5"/>
	<path class="st2" d="M46.6,40.2h2.6l4.1,2.3h-2.6L46.6,40.2z"/>
	<path class="st2" d="M46.6,40.2h2.6l4.1,2.3h-2.6L46.6,40.2z"/>
	<path class="st2" d="M50.7,42.5h2.6l2.1,1.2h-2.6L50.7,42.5z"/>
	<path class="st2" d="M54.4,47H57l-0.3,1.1c-0.3,1.2-0.7,2.4-1.1,3.6c-1.9,5.9-5,11.3-9.1,15.9c-3.7,4.2-12.1,9.3-12.6,9.5
		c-0.7,0.4-1.4,0.8-1.9,1.1h-2.6c0.5-0.3,1.3-0.7,2-1.1c0.4-0.3,8.9-5.4,12.6-9.5c4.1-4.7,7.1-10.1,9.1-15.9
		c0.4-1.2,0.8-2.4,1.1-3.6L54.4,47z"/>
	<path class="st2" d="M54.4,47H57l-0.3,1.1c-0.3,1.2-0.7,2.4-1.1,3.6c-1.9,5.9-5,11.3-9.1,15.9c-3.7,4.2-12.1,9.3-12.6,9.5
		c-0.7,0.4-1.4,0.8-1.9,1.1h-2.6c0.5-0.3,1.3-0.7,2-1.1c0.4-0.3,8.9-5.4,12.6-9.5c4.1-4.7,7.1-10.1,9.1-15.9
		c0.4-1.2,0.8-2.4,1.1-3.6L54.4,47z"/>
	<path class="st2" d="M52.8,43.7h2.6c0.6,0.3,1,0.8,1.3,1.4c0.3,0.6,0.4,1.2,0.3,1.9h-2.6c0.1-0.6,0-1.3-0.3-1.9
		C53.8,44.5,53.4,44.1,52.8,43.7z"/>
	<path class="st2" d="M52.8,43.7h2.6c0.6,0.3,1,0.8,1.3,1.4c0.3,0.6,0.4,1.2,0.3,1.9h-2.6c0.1-0.6,0-1.3-0.3-1.9
		C53.8,44.5,53.4,44.1,52.8,43.7z"/>
	<path class="st2" d="M9.4,21.6H6.8v7.6h2.6V21.6z"/>
	<path class="st2" d="M6.8,29.3h2.6c-0.1,0.8,0,1.6,0.3,2.2c0.4,0.7,1,1.2,1.7,1.5H8.8c-0.7-0.3-1.3-0.8-1.7-1.5
		C6.8,30.8,6.7,30,6.8,29.3z"/>
	<path class="st2" d="M6.8,29.3h2.6c-0.1,0.8,0,1.6,0.3,2.2c0.4,0.7,1,1.2,1.7,1.5H8.8c-0.7-0.3-1.3-0.8-1.7-1.5
		C6.8,30.8,6.7,30,6.8,29.3"/>
	<path class="st2" d="M9,18.3h2.6c-0.6,0.3-1.1,0.8-1.5,1.4c-0.4,0.6-0.6,1.3-0.6,2H6.8c0-0.7,0.3-1.4,0.6-2
		C7.8,19.1,8.3,18.6,9,18.3z"/>
	<path class="st2" d="M9,18.3h2.6c-0.6,0.3-1.1,0.8-1.5,1.4c-0.4,0.6-0.6,1.3-0.6,2H6.8c0-0.7,0.3-1.4,0.6-2
		C7.8,19.1,8.3,18.6,9,18.3z"/>
	<path class="st2" d="M27.8,0h2.6c-2.5,3.3-11.5,10-15,12.3c-1.1,0.6-2,1.5-2.6,2.5c-0.7,1-1.1,2.2-1.3,3.4H8.9
		c0.2-1.2,0.6-2.4,1.3-3.4c0.7-1,1.6-1.9,2.6-2.5C16.4,10,25.3,3.3,27.8,0z"/>
	<path class="st2" d="M27.8,0h2.6c-2.5,3.3-11.5,10-15,12.3c-1.1,0.6-2,1.5-2.6,2.5c-0.7,1-1.1,2.2-1.3,3.4H8.9
		c0.2-1.2,0.6-2.4,1.3-3.4c0.7-1,1.6-1.9,2.6-2.5C16.4,10,25.3,3.3,27.8,0z"/>
	<path class="st2" d="M28,8.7h2.6c-0.7,0-1.4,0.2-2,0.5c-0.1,0-1.6,1.1-4.2,2.6c-4.2,2.5-12.5,6.2-13,6.5H8.9
		c0.4-0.2,8.7-3.9,13-6.5c2.6-1.5,4.1-2.6,4.2-2.6C26.6,8.8,27.3,8.7,28,8.7z"/>
	<path class="st2" d="M28,8.7h2.6c-0.7,0-1.4,0.2-2,0.5c-0.1,0-1.6,1.1-4.2,2.6c-4.2,2.5-12.5,6.2-13,6.5H8.9
		c0.4-0.2,8.7-3.9,13-6.5c2.6-1.5,4.1-2.6,4.2-2.6C26.6,8.8,27.3,8.7,28,8.7z"/>
	<path class="st2" d="M28,14.1h2.6c0.1,0,0.2,0,0.3,0h-2.6C28.2,14.1,28.1,14.1,28,14.1z"/>
	<path class="st2" d="M8.8,33h2.6l24.1,21.5h-2.6L8.8,33z"/>
	<path class="st2" d="M28.3,14.2h2.6l5.2,3.1h-2.6L28.3,14.2z"/>
	<path class="st2" d="M33.5,17.3h2.6c0.1,0.1,0.2,0.1,0.2,0.3c0,0.1,0.1,0.2,0,0.3c0,0.1-0.1,0.2-0.2,0.3c-0.1,0.1-0.2,0.1-0.3,0.1
		h-2.6c0.1,0,0.2,0,0.3-0.1c0.1-0.1,0.2-0.2,0.2-0.3c0-0.1,0-0.2,0-0.3C33.7,17.4,33.6,17.4,33.5,17.3z"/>
	<path class="st2" d="M33.5,17.3h2.6c0.1,0.1,0.2,0.1,0.2,0.3c0,0.1,0.1,0.2,0,0.3c0,0.1-0.1,0.2-0.2,0.3c-0.1,0.1-0.2,0.1-0.3,0.1
		h-2.6c0.1,0,0.2,0,0.3-0.1c0.1-0.1,0.2-0.2,0.2-0.3c0-0.1,0-0.2,0-0.3C33.7,17.4,33.6,17.4,33.5,17.3"/>
	<path class="st2" d="M8.8,33h2.6l27,15.3h-2.6L8.8,33z"/>
	<path class="st2" d="M37.8,54.9h2.6c0,0.9-0.5,1.5-1.2,1.5h-2.6C37.4,56.4,37.8,55.8,37.8,54.9z"/>
	<path class="st2" d="M37.8,54.9h2.6c0,0.9-0.5,1.5-1.2,1.5h-2.6C37.4,56.4,37.8,55.8,37.8,54.9z"/>
	<path class="st2" d="M35.8,48.3h2.6c0.6,0.4,1.1,0.9,1.4,1.5c0.4,0.6,0.6,1.3,0.6,2h-2.6c0-0.7-0.2-1.4-0.6-2
		C36.9,49.2,36.4,48.7,35.8,48.3z"/>
	<path class="st2" d="M35.8,48.3h2.6c0.6,0.4,1.1,0.9,1.4,1.5c0.4,0.6,0.6,1.3,0.6,2h-2.6c0-0.7-0.2-1.4-0.6-2
		C36.9,49.2,36.4,48.7,35.8,48.3z"/>
	<path class="st2" d="M40.4,51.8h-2.6v3.1h2.6V51.8z"/>
	<path class="st2" d="M28,0h2.6c0.4,0,0.7,0.1,1,0.3l1,0.7l0.5,0.4l1.6,1.1C36,3.4,37.9,4.6,40.2,6c4.5,2.5,9.1,4.7,13.8,6.7
		c1.2,0.5,2.7,1.1,3.4,1.3c0.6,0.2,1.2,1.4,1.2,2.7h-2.6c0-1.3-0.5-2.5-1.2-2.7c-0.6-0.2-2.2-0.8-3.4-1.3c-4.7-2-9.3-4.2-13.8-6.7
		c-2.3-1.4-4.2-2.6-5.5-3.5l-1.6-1.1L30,1l-1-0.7C28.7,0.1,28.4,0,28,0z"/>
	<path class="st2" d="M28.1,0h2.6c0.1,0,0.3,0,0.4,0.1h-2.6C28.4,0,28.2,0,28.1,0"/>
	<path class="st2" d="M28.5,0.1h2.6c0.2,0,0.3,0.1,0.5,0.2l1,0.7l0.5,0.4l1.6,1.1c1.3,0.9,3.3,2.2,5.5,3.5c4.5,2.5,9.1,4.7,13.8,6.7
		c1.2,0.5,2.7,1.1,3.4,1.3c0.6,0.2,1.2,1.4,1.2,2.7h-2.6c0-1.3-0.5-2.5-1.2-2.7c-0.6-0.2-2.2-0.8-3.4-1.3c-4.7-2-9.3-4.2-13.8-6.7
		c-2.3-1.4-4.2-2.6-5.5-3.5l-1.6-1.1L30,1l-1-0.7C28.9,0.2,28.7,0.1,28.5,0.1z"/>
	<path class="st2" d="M58.5,16.7H56V29h2.6V16.7z"/>
	<path class="st2" d="M56,32.4h2.6v1.1c0,1.1,0,1.6,0,1.7c0,0.9-0.6,1.5-1.3,1.5h-2.6c0.7,0,1.2-0.5,1.3-1.5c0,0,0-0.6,0-1.7V32.4z"
		/>
	<path class="st2" d="M56,32.4h2.6v1.1c0,1.1,0,1.6,0,1.7c0,0.9-0.6,1.5-1.3,1.5h-2.6c0.7,0,1.2-0.5,1.3-1.5c0,0,0-0.6,0-1.7V32.4z"
		/>
	<path class="st2" d="M56,29h2.6c0,1.3,0,2.9,0,3.5H56C56,31.9,56,30.3,56,29z"/>
	<path class="st2" d="M56,29h2.6c0,1.3,0,2.9,0,3.5H56C56,31.9,55.9,30.3,56,29"/>
	
		<linearGradient id="SVGID_3_" gradientUnits="userSpaceOnUse" x1="54.3885" y1="91.4759" x2="8.4562" y2="3.3438" gradientTransform="matrix(1 0 0 -1 0 79)">
		<stop  offset="0" style="stop-color:#B5B5B6"/>
		<stop  offset="0.16" style="stop-color:#F4F4F4"/>
		<stop  offset="0.33" style="stop-color:#9FA0A0"/>
		<stop  offset="0.5" style="stop-color:#FFFFFF"/>
		<stop  offset="0.56" style="stop-color:#E1E1E1"/>
		<stop  offset="0.67" style="stop-color:#9FA0A0"/>
		<stop  offset="0.84" style="stop-color:#FFFFFF"/>
		<stop  offset="1" style="stop-color:#898989"/>
	</linearGradient>
	<path class="st3" d="M15.1,22.6c0.3,0,0.6,0.1,0.9,0.3l5,2.8L45,47.1L16,30.6c-0.6-0.4-1.1-0.9-1.4-1.5c-0.4-0.6-0.6-1.3-0.6-2V24
		C13.9,23.1,14.4,22.6,15.1,22.6z"/>
	
		<linearGradient id="SVGID_4_" gradientUnits="userSpaceOnUse" x1="56.9125" y1="90.1727" x2="10.9672" y2="2.0406" gradientTransform="matrix(1 0 0 -1 0 79)">
		<stop  offset="0" style="stop-color:#B5B5B6"/>
		<stop  offset="0.16" style="stop-color:#F4F4F4"/>
		<stop  offset="0.33" style="stop-color:#9FA0A0"/>
		<stop  offset="0.5" style="stop-color:#FFFFFF"/>
		<stop  offset="0.56" style="stop-color:#E1E1E1"/>
		<stop  offset="0.67" style="stop-color:#9FA0A0"/>
		<stop  offset="0.84" style="stop-color:#FFFFFF"/>
		<stop  offset="1" style="stop-color:#898989"/>
	</linearGradient>
	<path class="st4" d="M2.2,45c0.3,0,0.6,0.1,0.9,0.3l4,2.3c1.3,0.8,2.3,2,2.9,3.3c0.2,0.4,3.1,7.7,7.1,12.2c2.7,2.7,5.7,5.1,9,7.1
		c0.6,0.3,1.3,0.5,2,0.5c0.7,0,1.4-0.2,2-0.5c3.2-2.1,6.2-4.4,9-7.1c2.9-3.3,5.2-7.1,6.8-11.2c0.5-1.2,0.6-1.4,0.6-1.5
		c0.2,1,0.4,2.1,0.3,3.1c0,2-0.3,4.1-0.9,6c-1.6,5.6-16.3,18.7-16.3,18.7l-0.8,0.4c-0.2,0.1-0.5,0.1-0.7,0.1c-0.2,0-0.5,0-0.7-0.1
		c-0.4-0.2-1.6-0.9-2.7-1.5c-0.4-0.3-8.9-5.4-12.6-9.5c-3.4-3.9-6.1-8.3-8-13.1c-1-2.6-1.8-5.3-2.5-8C1.3,45.6,1.6,45,2.2,45z"/>
	
		<linearGradient id="SVGID_5_" gradientUnits="userSpaceOnUse" x1="61.963" y1="87.5264" x2="16.0177" y2="-0.5927" gradientTransform="matrix(1 0 0 -1 0 79)">
		<stop  offset="0" style="stop-color:#B5B5B6"/>
		<stop  offset="0.16" style="stop-color:#F4F4F4"/>
		<stop  offset="0.33" style="stop-color:#9FA0A0"/>
		<stop  offset="0.5" style="stop-color:#FFFFFF"/>
		<stop  offset="0.56" style="stop-color:#E1E1E1"/>
		<stop  offset="0.67" style="stop-color:#9FA0A0"/>
		<stop  offset="0.84" style="stop-color:#FFFFFF"/>
		<stop  offset="1" style="stop-color:#898989"/>
	</linearGradient>
	<path class="st5" d="M20.9,25.7l25.7,14.6l4.1,2.3l2.1,1.2c0.5,0.3,1,0.8,1.3,1.4c0.3,0.6,0.4,1.2,0.3,1.8l-0.3,1.1
		c-0.3,1.2-0.6,2.4-1.1,3.6c-1.9,5.9-5,11.3-9.1,15.9c-3.7,4.2-12.1,9.3-12.6,9.5c-0.7,0.4-1.4,0.8-2,1.1c0,0,14.7-13.1,16.3-18.7
		c0.6-2,0.9-4,0.9-6c0-1-0.1-2.1-0.3-3c0.2-0.6,0.2-1.3-0.1-1.9C46,48,45.6,47.5,45,47.1L20.9,25.7z"/>
	
		<linearGradient id="SVGID_6_" gradientUnits="userSpaceOnUse" x1="44.0608" y1="96.8687" x2="-1.8844" y2="8.7367" gradientTransform="matrix(1 0 0 -1 0 79)">
		<stop  offset="0" style="stop-color:#B5B5B6"/>
		<stop  offset="0.16" style="stop-color:#F4F4F4"/>
		<stop  offset="0.33" style="stop-color:#9FA0A0"/>
		<stop  offset="0.5" style="stop-color:#FFFFFF"/>
		<stop  offset="0.56" style="stop-color:#E1E1E1"/>
		<stop  offset="0.67" style="stop-color:#9FA0A0"/>
		<stop  offset="0.84" style="stop-color:#FFFFFF"/>
		<stop  offset="1" style="stop-color:#898989"/>
	</linearGradient>
	<path class="st6" d="M27.8,0c-2.5,3.3-11.4,10-15,12.3c-1.1,0.6-2,1.5-2.6,2.5c-0.7,1-1.1,2.2-1.3,3.4c-0.6,0.3-1.1,0.8-1.5,1.4
		c-0.4,0.6-0.6,1.3-0.6,2v7.6c-0.1,0.8,0,1.6,0.4,2.2c0.4,0.7,1,1.2,1.7,1.5l24.1,21.5L5.4,38.9l-3.7-2.2c-0.5-0.3-0.8-0.6-1.1-1.1
		S0.1,34.8,0,34.2v-1.8c0-0.6,0.1-2.2,0.1-3.5V16.7c0-1.3,0.5-2.5,1.2-2.7c0.6-0.2,2.2-0.8,3.4-1.3c4.6-1.9,9-4,13.4-6.4
		c4.5-2.7,7.8-5,8-5.2l1-0.7C27.2,0.1,27.5,0,27.8,0L27.8,0z"/>
	
		<linearGradient id="SVGID_7_" gradientUnits="userSpaceOnUse" x1="46.1719" y1="95.7609" x2="0.2267" y2="7.6419" gradientTransform="matrix(1 0 0 -1 0 79)">
		<stop  offset="0" style="stop-color:#B5B5B6"/>
		<stop  offset="0.16" style="stop-color:#F4F4F4"/>
		<stop  offset="0.33" style="stop-color:#9FA0A0"/>
		<stop  offset="0.5" style="stop-color:#FFFFFF"/>
		<stop  offset="0.56" style="stop-color:#E1E1E1"/>
		<stop  offset="0.67" style="stop-color:#9FA0A0"/>
		<stop  offset="0.84" style="stop-color:#FFFFFF"/>
		<stop  offset="1" style="stop-color:#898989"/>
	</linearGradient>
	<path class="st7" d="M28,14.1c0.1,0,0.2,0,0.3,0l5.2,3.1c0.1,0.1,0.2,0.1,0.2,0.3c0,0.1,0.1,0.2,0,0.3c0,0.1-0.1,0.2-0.2,0.3
		c-0.1,0.1-0.2,0.1-0.3,0.1h-10c-0.1,0-0.2,0-0.3-0.1c-0.1-0.1-0.2-0.2-0.2-0.3c0-0.1,0-0.2,0-0.3c0-0.1,0.1-0.2,0.2-0.3l4.8-3
		C27.8,14.2,27.9,14.2,28,14.1z"/>
	
		<linearGradient id="SVGID_8_" gradientUnits="userSpaceOnUse" x1="53.2125" y1="92.0904" x2="7.2802" y2="3.9583" gradientTransform="matrix(1 0 0 -1 0 79)">
		<stop  offset="0" style="stop-color:#B5B5B6"/>
		<stop  offset="0.16" style="stop-color:#F4F4F4"/>
		<stop  offset="0.33" style="stop-color:#9FA0A0"/>
		<stop  offset="0.5" style="stop-color:#FFFFFF"/>
		<stop  offset="0.56" style="stop-color:#E1E1E1"/>
		<stop  offset="0.67" style="stop-color:#9FA0A0"/>
		<stop  offset="0.84" style="stop-color:#FFFFFF"/>
		<stop  offset="1" style="stop-color:#898989"/>
	</linearGradient>
	<path class="st8" d="M8.8,33l26.9,15.3c0.6,0.4,1.1,0.9,1.5,1.5c0.4,0.6,0.6,1.3,0.6,2v3.1c0,0.9-0.5,1.5-1.2,1.5
		c-0.3,0-0.6-0.1-0.9-0.3l-2.9-1.6L8.8,33z"/>
	
		<linearGradient id="SVGID_9_" gradientUnits="userSpaceOnUse" x1="53.1113" y1="92.1417" x2="7.179" y2="4.0096" gradientTransform="matrix(1 0 0 -1 0 79)">
		<stop  offset="0" style="stop-color:#B5B5B6"/>
		<stop  offset="0.16" style="stop-color:#F4F4F4"/>
		<stop  offset="0.33" style="stop-color:#9FA0A0"/>
		<stop  offset="0.5" style="stop-color:#FFFFFF"/>
		<stop  offset="0.56" style="stop-color:#E1E1E1"/>
		<stop  offset="0.67" style="stop-color:#9FA0A0"/>
		<stop  offset="0.84" style="stop-color:#FFFFFF"/>
		<stop  offset="1" style="stop-color:#898989"/>
	</linearGradient>
	<path class="st9" d="M28,0c0.4,0,0.7,0.1,1,0.3L30,1l0.5,0.4l1.6,1.1c1.3,0.9,3.3,2.2,5.5,3.5c4.5,2.5,9.1,4.7,13.8,6.7
		c1.2,0.5,2.7,1.1,3.4,1.3c0.6,0.2,1.2,1.4,1.2,2.7V29c0,1.3,0,2.9,0.1,3.5v1.1c0,1.1,0,1.6,0,1.7c0,0.9-0.6,1.5-1.3,1.5
		c-0.3,0-0.6-0.1-0.9-0.3L51.3,35c-0.6-0.3-1.1-0.8-1.4-1.4c-0.4-0.6-0.6-1.2-0.6-1.9c0-0.1,0-1.2,0-2.5v-7.6c0-0.7-0.3-1.4-0.6-2
		c-0.4-0.6-0.9-1.1-1.5-1.4c-0.4-0.2-8.7-3.9-13-6.5c-2.6-1.5-4.1-2.6-4.2-2.6c-0.6-0.4-1.3-0.5-1.9-0.5c-0.7,0-1.4,0.2-1.9,0.5
		c-0.1,0-1.6,1.1-4.2,2.6c-4.2,2.5-12.5,6.2-13,6.5c0.2-1.2,0.6-2.4,1.3-3.4c0.7-1,1.6-1.9,2.6-2.5c3.6-2.3,12.5-9,15-12.3L28,0z"/>
</g>
</svg>
