<?xml version="1.0" encoding="utf-8"?>
<!-- Generator: Adobe Illustrator 26.5.0, SVG Export Plug-In . SVG Version: 6.00 Build 0)  -->
<svg version="1.1" id="_層_1" xmlns="http://www.w3.org/2000/svg" xmlns:xlink="http://www.w3.org/1999/xlink" x="0px" y="0px"
	 viewBox="0 0 860 496.3" style="enable-background:new 0 0 860 496.3;" xml:space="preserve">
<style type="text/css">
	.st0{fill:#FFFFFF;}
	.st1{fill:#DA8B41;}
	.st2{fill:#B3B3B3;}
	.st3{fill:none;stroke:#4D4D4D;stroke-miterlimit:10;}
	.st4{fill:#95C1AC;}
	.st5{fill:#71AD91;}
	.st6{fill:#4E9875;}
</style>
<rect x="-3" y="-6.4" class="st0" width="866" height="509"/>
<g>
	<g>
		<g>
			<path class="st1" d="M394.1,260v21.7c0,2.8-2.2,5-5,5h-360c-2.8,0-5-2.2-5-5V260c0-2.8,2.2-5,5-5h360
				C391.8,255,394.1,257.2,394.1,260z"/>
			<g>
				<path class="st0" d="M118.9,263.7h1.7v13.2h-1.7V263.7z"/>
				<path class="st0" d="M124.1,267.1h1.3l0.1,1.4h0.1c0.8-0.9,1.9-1.7,3-1.7c1.5,0,2.3,0.7,2.7,1.9c1-1.1,2-1.9,3.2-1.9
					c2,0,3,1.3,3,3.8v6.2h-1.6v-6c0-1.8-0.6-2.6-1.8-2.6c-0.8,0-1.6,0.5-2.5,1.5v7.1H130v-6c0-1.8-0.6-2.6-1.8-2.6
					c-0.7,0-1.6,0.5-2.5,1.5v7.1H124L124.1,267.1L124.1,267.1z"/>
				<path class="st0" d="M140.7,267.1h1.4l0.1,1.1h0.1c0.9-0.7,2-1.4,3.1-1.4c2.5,0,3.9,2,3.9,5c0,3.4-2,5.3-4.2,5.3
					c-0.9,0-1.8-0.4-2.7-1.1l0,1.7v3.3h-1.6V267.1L140.7,267.1z M147.6,271.9c0-2.2-0.7-3.6-2.6-3.6c-0.8,0-1.7,0.5-2.6,1.4v5.1
					c0.9,0.8,1.8,1,2.4,1C146.4,275.8,147.6,274.3,147.6,271.9L147.6,271.9z"/>
				<path class="st0" d="M151.9,275v-12.4h1.6v12.5c0,0.5,0.2,0.7,0.5,0.7c0.1,0,0.2,0,0.3,0l0.2,1.3c-0.2,0.1-0.5,0.1-0.9,0.1
					C152.4,277.1,151.9,276.4,151.9,275L151.9,275z"/>
				<path class="st0" d="M156.3,272c0-3.2,2.1-5.1,4.4-5.1c2.5,0,3.9,1.8,3.9,4.6c0,0.4,0,0.7-0.1,0.9h-6.6c0.1,2.1,1.4,3.4,3.2,3.4
					c0.9,0,1.7-0.3,2.4-0.8l0.6,1.1c-0.9,0.6-1.9,1-3.2,1C158.4,277.2,156.3,275.3,156.3,272L156.3,272z M163.1,271.2
					c0-2-0.9-3-2.4-3c-1.4,0-2.6,1.1-2.8,3H163.1L163.1,271.2z"/>
				<path class="st0" d="M167,267.1h1.4l0.1,1.4h0.1c0.9-0.9,1.9-1.7,3-1.7c1.5,0,2.3,0.7,2.7,1.9c1-1.1,2-1.9,3.2-1.9
					c2,0,3,1.3,3,3.8v6.2h-1.6v-6c0-1.8-0.6-2.6-1.8-2.6c-0.8,0-1.6,0.5-2.5,1.5v7.1h-1.6v-6c0-1.8-0.6-2.6-1.8-2.6
					c-0.7,0-1.6,0.5-2.5,1.5v7.1H167L167,267.1L167,267.1z"/>
				<path class="st0" d="M182.9,272c0-3.2,2.1-5.1,4.4-5.1c2.5,0,3.9,1.8,3.9,4.6c0,0.4,0,0.7-0.1,0.9h-6.6c0.1,2.1,1.4,3.4,3.2,3.4
					c0.9,0,1.7-0.3,2.4-0.8l0.6,1.1c-0.9,0.6-1.9,1-3.2,1C185,277.2,182.9,275.3,182.9,272L182.9,272z M189.8,271.2c0-2-0.9-3-2.4-3
					c-1.4,0-2.6,1.1-2.8,3H189.8L189.8,271.2z"/>
				<path class="st0" d="M193.6,267.1h1.4l0.1,1.4h0.1c0.9-0.9,1.9-1.7,3.3-1.7c2.1,0,3,1.3,3,3.8v6.2h-1.6v-6
					c0-1.8-0.6-2.6-1.9-2.6c-1,0-1.7,0.5-2.7,1.5v7.1h-1.6L193.6,267.1L193.6,267.1z"/>
				<path class="st0" d="M204.9,273.9v-5.4h-1.5v-1.2l1.5-0.1l0.2-2.7h1.4v2.7h2.6v1.3h-2.6v5.5c0,1.2,0.4,1.9,1.5,1.9
					c0.3,0,0.8-0.1,1.1-0.2l0.3,1.2c-0.6,0.2-1.2,0.4-1.8,0.4C205.6,277.1,204.9,275.8,204.9,273.9L204.9,273.9z"/>
				<path class="st0" d="M210.4,274.4c0-2.1,1.9-3.2,6-3.7c0-1.3-0.4-2.5-2-2.5c-1.1,0-2.2,0.5-2.9,1l-0.6-1.1
					c0.9-0.6,2.3-1.3,3.9-1.3c2.4,0,3.4,1.6,3.4,4v6h-1.4l-0.1-1.2h-0.1c-0.9,0.8-2,1.4-3.2,1.4
					C211.6,277.1,210.4,276.1,210.4,274.4L210.4,274.4z M216.4,274.5v-2.7c-3.3,0.4-4.4,1.2-4.4,2.5c0,1.1,0.8,1.6,1.7,1.6
					S215.4,275.4,216.4,274.5L216.4,274.5z"/>
				<path class="st0" d="M221.1,273.9v-5.4h-1.5v-1.2l1.5-0.1l0.2-2.7h1.4v2.7h2.6v1.3h-2.6v5.5c0,1.2,0.4,1.9,1.5,1.9
					c0.3,0,0.8-0.1,1.1-0.2l0.3,1.2c-0.6,0.2-1.2,0.4-1.8,0.4C221.8,277.1,221.1,275.8,221.1,273.9L221.1,273.9z"/>
				<path class="st0" d="M227.4,264c0-0.7,0.5-1.1,1.1-1.1s1.1,0.4,1.1,1.1c0,0.6-0.5,1.1-1.1,1.1S227.4,264.7,227.4,264z
					 M227.7,267.1h1.6v9.8h-1.6V267.1z"/>
				<path class="st0" d="M231.9,272c0-3.3,2.1-5.1,4.5-5.1s4.5,1.9,4.5,5.1s-2.1,5.1-4.5,5.1S231.9,275.3,231.9,272z M239.2,272
					c0-2.2-1.1-3.8-2.8-3.8s-2.8,1.5-2.8,3.8s1.1,3.8,2.8,3.8S239.2,274.3,239.2,272z"/>
				<path class="st0" d="M243.5,267.1h1.4l0.1,1.4h0.1c0.9-0.9,1.9-1.7,3.3-1.7c2.1,0,3,1.3,3,3.8v6.2h-1.6v-6
					c0-1.8-0.6-2.6-1.9-2.6c-1,0-1.7,0.5-2.7,1.5v7.1h-1.6L243.5,267.1L243.5,267.1z"/>
				<path class="st0" d="M258.6,271.5v-7.7h1.7v7.8c0,3.2,1.4,4.2,3.1,4.2s3.1-1,3.1-4.2v-7.8h1.6v7.7c0,4.2-2,5.7-4.8,5.7
					S258.6,275.7,258.6,271.5L258.6,271.5z"/>
				<path class="st0" d="M271.5,267.1h1.4l0.1,1.4h0c0.9-0.9,1.9-1.7,3.3-1.7c2,0,3,1.3,3,3.8v6.2h-1.6v-6c0-1.8-0.6-2.6-1.9-2.6
					c-1,0-1.7,0.5-2.7,1.5v7.1h-1.6L271.5,267.1L271.5,267.1z"/>
				<path class="st0" d="M282.2,264c0-0.7,0.5-1.1,1.1-1.1s1.1,0.4,1.1,1.1c0,0.6-0.5,1.1-1.1,1.1S282.2,264.7,282.2,264z
					 M282.5,267.1h1.6v9.8h-1.6V267.1z"/>
				<path class="st0" d="M287.8,273.9v-5.4h-1.5v-1.2l1.5-0.1l0.2-2.7h1.4v2.7h2.6v1.3h-2.6v5.5c0,1.2,0.4,1.9,1.5,1.9
					c0.3,0,0.8-0.1,1.1-0.2l0.3,1.2c-0.6,0.2-1.2,0.4-1.8,0.4C288.5,277.1,287.8,275.8,287.8,273.9L287.8,273.9z"/>
				<path class="st0" d="M293,275.8l0.8-1.1c0.9,0.7,1.7,1.1,2.9,1.1c1.3,0,1.9-0.7,1.9-1.5c0-1-1.1-1.4-2.2-1.9
					c-1.4-0.5-2.9-1.2-2.9-2.8c0-1.5,1.2-2.8,3.4-2.8c1.2,0,2.3,0.5,3,1.1l-0.8,1.1c-0.7-0.5-1.4-0.9-2.2-0.9
					c-1.2,0-1.8,0.6-1.8,1.4c0,0.9,1.1,1.3,2.2,1.7c1.4,0.5,3,1.1,3,3c0,1.6-1.3,2.9-3.6,2.9C295.2,277.1,293.9,276.6,293,275.8
					L293,275.8z"/>
			</g>
		</g>
		<g>
			<path class="st2" d="M43.5,297.5l10.6,6.8v0.1l-10.6,6.8h0L43.5,297.5L43.5,297.5L43.5,297.5z"/>
			<path d="M64.3,297.2h3.8c3,0,4.9,1,4.9,3.9s-2,4.1-4.9,4.1H66v5.2h-1.7V297.2L64.3,297.2z M68,303.8c2.3,0,3.4-0.9,3.4-2.7
				s-1.2-2.5-3.5-2.5H66v5.3L68,303.8L68,303.8z"/>
			<path d="M75.6,308.5v-12.4h1.6v12.5c0,0.5,0.2,0.7,0.5,0.7c0.1,0,0.2,0,0.3,0l0.2,1.3c-0.2,0.1-0.5,0.1-0.9,0.1
				C76.1,310.7,75.6,309.9,75.6,308.5L75.6,308.5z"/>
			<path d="M80.1,307.9c0-2.1,1.8-3.2,6-3.7c0-1.3-0.4-2.5-2-2.5c-1.1,0-2.2,0.5-2.9,1l-0.7-1.1c0.9-0.6,2.3-1.3,3.8-1.3
				c2.4,0,3.4,1.6,3.4,4v6h-1.3l-0.1-1.2h-0.1c-0.9,0.8-2,1.4-3.2,1.4C81.3,310.6,80.1,309.6,80.1,307.9L80.1,307.9z M86.1,308.1
				v-2.7c-3.3,0.4-4.4,1.2-4.4,2.5c0,1.1,0.8,1.6,1.7,1.6S85.2,308.9,86.1,308.1L86.1,308.1z"/>
			<path d="M90.8,300.6h1.3l0.1,1.4h0.1c0.9-0.9,1.9-1.7,3.3-1.7c2.1,0,3,1.3,3,3.8v6.2H97v-6c0-1.8-0.6-2.6-1.8-2.6
				c-1,0-1.7,0.5-2.7,1.5v7.1h-1.6V300.6L90.8,300.6z"/>
			<path d="M101.8,300.6h1.3l0.1,1.4h0.1c0.9-0.9,1.9-1.7,3.3-1.7c2.1,0,3,1.3,3,3.8v6.2H108v-6c0-1.8-0.6-2.6-1.8-2.6
				c-1,0-1.7,0.5-2.7,1.5v7.1h-1.6V300.6L101.8,300.6z"/>
			<path d="M112.5,297.6c0-0.7,0.5-1.1,1.1-1.1s1.1,0.4,1.1,1.1c0,0.6-0.5,1.1-1.1,1.1S112.5,298.2,112.5,297.6z M112.8,300.6h1.6
				v9.8h-1.6V300.6z"/>
			<path d="M117.8,300.6h1.3l0.1,1.4h0.1c0.9-0.9,1.9-1.7,3.3-1.7c2.1,0,3,1.3,3,3.8v6.2H124v-6c0-1.8-0.6-2.6-1.8-2.6
				c-1,0-1.7,0.5-2.7,1.5v7.1h-1.6V300.6L117.8,300.6z"/>
			<path d="M128,312.3c0-0.8,0.5-1.6,1.5-2.2V310c-0.5-0.3-0.9-0.8-0.9-1.6s0.6-1.5,1.1-1.8v-0.1c-0.6-0.5-1.3-1.5-1.3-2.6
				c0-2.1,1.7-3.5,3.7-3.5c0.5,0,1,0.1,1.4,0.2h3.4v1.3h-2c0.5,0.5,0.8,1.2,0.8,2c0,2.1-1.6,3.4-3.6,3.4c-0.5,0-1-0.1-1.5-0.3
				c-0.4,0.3-0.6,0.6-0.6,1.2c0,0.6,0.4,1.1,1.7,1.1h1.9c2.3,0,3.4,0.7,3.4,2.3c0,1.8-1.9,3.4-4.9,3.4
				C129.7,314.9,128,314,128,312.3L128,312.3z M135.4,311.8c0-0.9-0.7-1.2-2-1.2h-1.7c-0.4,0-0.8,0-1.3-0.2c-0.7,0.5-1,1.1-1,1.7
				c0,1,1.1,1.7,2.8,1.7C134.2,313.8,135.4,312.8,135.4,311.8L135.4,311.8z M134.2,303.9c0-1.4-0.9-2.3-2.1-2.3s-2.1,0.9-2.1,2.3
				s0.9,2.3,2.1,2.3S134.2,305.3,134.2,303.9z"/>
			<path d="M143.1,297.2h3.3c4.1,0,6.2,2.4,6.2,6.5s-2.2,6.6-6.2,6.6h-3.4L143.1,297.2L143.1,297.2z M146.3,309.1
				c3.1,0,4.6-1.9,4.6-5.3s-1.5-5.2-4.6-5.2h-1.5v10.5H146.3z"/>
			<path d="M155,297.6c0-0.7,0.5-1.1,1.1-1.1s1.1,0.4,1.1,1.1c0,0.6-0.5,1.1-1.1,1.1S155,298.2,155,297.6z M155.3,300.6h1.6v9.8
				h-1.6V300.6z"/>
			<path d="M158.9,300.6h1.7l1.8,5.6c0.3,1,0.6,2,0.9,2.9h0.1c0.3-0.9,0.6-1.9,0.9-2.9l1.9-5.6h1.6l-3.5,9.8h-1.9L158.9,300.6z"/>
			<path d="M169.4,297.6c0-0.7,0.5-1.1,1.1-1.1s1.1,0.4,1.1,1.1c0,0.6-0.5,1.1-1.1,1.1S169.4,298.2,169.4,297.6z M169.7,300.6h1.6
				v9.8h-1.6V300.6z"/>
			<path d="M173.5,309.3l0.8-1.1c0.9,0.7,1.7,1.1,2.9,1.1c1.3,0,1.9-0.7,1.9-1.5c0-1-1.1-1.4-2.2-1.9c-1.4-0.5-2.9-1.2-2.9-2.8
				c0-1.5,1.2-2.8,3.4-2.8c1.2,0,2.3,0.5,3,1.1l-0.8,1.1c-0.7-0.5-1.4-0.9-2.2-0.9c-1.2,0-1.8,0.6-1.8,1.4c0,0.9,1.1,1.3,2.2,1.7
				c1.4,0.5,3,1.1,3,3c0,1.6-1.3,2.9-3.6,2.9C175.8,310.7,174.4,310.1,173.5,309.3L173.5,309.3z"/>
			<path d="M182.7,297.6c0-0.7,0.5-1.1,1.1-1.1s1.1,0.4,1.1,1.1c0,0.6-0.5,1.1-1.1,1.1S182.7,298.2,182.7,297.6z M183,300.6h1.6v9.8
				H183V300.6z"/>
			<path d="M187.2,305.5c0-3.3,2.1-5.1,4.5-5.1s4.5,1.9,4.5,5.1s-2.1,5.1-4.5,5.1S187.2,308.8,187.2,305.5z M194.6,305.5
				c0-2.2-1.1-3.8-2.8-3.8s-2.8,1.5-2.8,3.8s1.1,3.8,2.8,3.8S194.6,307.8,194.6,305.5z"/>
			<path d="M198.9,300.6h1.4l0.1,1.4h0.1c0.9-0.9,1.9-1.7,3.3-1.7c2.1,0,3,1.3,3,3.8v6.2h-1.6v-6c0-1.8-0.6-2.6-1.9-2.6
				c-1,0-1.7,0.5-2.7,1.5v7.1h-1.6L198.9,300.6L198.9,300.6z"/>
			<path class="st2" d="M43.5,327.5l10.6,6.8v0.1l-10.6,6.8h0L43.5,327.5L43.5,327.5L43.5,327.5z"/>
			<path d="M64.3,327.2H66v13.2h-1.7V327.2z"/>
			<path d="M69.5,330.6h1.3L71,332H71c0.9-0.9,1.9-1.7,3.3-1.7c2.1,0,3,1.3,3,3.8v6.2h-1.6v-6c0-1.8-0.6-2.6-1.8-2.6
				c-1,0-1.7,0.5-2.7,1.5v7.1h-1.6V330.6L69.5,330.6z"/>
			<path d="M79.7,335.5c0-3.3,2.2-5.1,4.7-5.1c1.3,0,2.2,0.5,2.9,1.1l-0.8,1.1c-0.6-0.5-1.2-0.9-2-0.9c-1.8,0-3.1,1.5-3.1,3.8
				s1.2,3.8,3,3.8c0.9,0,1.7-0.4,2.3-1l0.7,1.1c-0.9,0.8-2,1.2-3.2,1.2C81.7,340.7,79.7,338.8,79.7,335.5L79.7,335.5z"/>
			<path d="M89.3,327.6c0-0.7,0.5-1.1,1.1-1.1s1.1,0.4,1.1,1.1c0,0.6-0.5,1.1-1.1,1.1S89.3,328.2,89.3,327.6z M89.6,330.6h1.6v9.8
				h-1.6V330.6z"/>
			<path d="M93.9,335.5c0-3.2,2-5.1,4.2-5.1c1.2,0,1.9,0.4,2.8,1.1l-0.1-1.7v-3.8h1.6v14.3h-1.3l-0.2-1.1h0c-0.8,0.8-1.8,1.4-3,1.4
				C95.5,340.7,93.9,338.8,93.9,335.5L93.9,335.5z M100.8,337.9v-5.1c-0.8-0.7-1.6-1-2.4-1c-1.6,0-2.8,1.5-2.8,3.8
				c0,2.4,1,3.8,2.7,3.8C99.2,339.3,100,338.8,100.8,337.9L100.8,337.9z"/>
			<path d="M105,335.5c0-3.2,2.1-5.1,4.4-5.1c2.5,0,3.9,1.8,3.9,4.6c0,0.4,0,0.7-0.1,0.9h-6.6c0.1,2.1,1.4,3.4,3.2,3.4
				c0.9,0,1.7-0.3,2.4-0.8l0.6,1.1c-0.9,0.6-1.9,1-3.2,1C107.1,340.7,105,338.8,105,335.5L105,335.5z M111.9,334.8c0-2-0.9-3-2.4-3
				c-1.4,0-2.6,1.1-2.8,3H111.9z"/>
			<path d="M115.7,330.6h1.3l0.1,1.4h0.1c0.9-0.9,1.9-1.7,3.3-1.7c2.1,0,3,1.3,3,3.8v6.2h-1.6v-6c0-1.8-0.6-2.6-1.8-2.6
				c-1,0-1.7,0.5-2.7,1.5v7.1h-1.6V330.6L115.7,330.6z"/>
			<path d="M127,337.4V332h-1.5v-1.2l1.5-0.1l0.2-2.7h1.4v2.7h2.6v1.3h-2.6v5.5c0,1.2,0.4,1.9,1.5,1.9c0.3,0,0.8-0.1,1.1-0.2
				l0.3,1.2c-0.6,0.2-1.2,0.4-1.8,0.4C127.7,340.7,127,339.4,127,337.4L127,337.4z"/>
			<path d="M137.7,327.2h1.7l4.8,8.3l1.4,2.7h0.1c-0.1-1.3-0.2-2.8-0.2-4.2v-6.9h1.6v13.2h-1.7l-4.8-8.3l-1.4-2.7H139
				c0.1,1.3,0.2,2.7,0.2,4.1v6.9h-1.6L137.7,327.2L137.7,327.2z"/>
			<path d="M149.8,335.5c0-3.3,2.1-5.1,4.5-5.1s4.5,1.9,4.5,5.1s-2.1,5.1-4.5,5.1S149.8,338.8,149.8,335.5z M157.2,335.5
				c0-2.2-1.1-3.8-2.8-3.8s-2.8,1.5-2.8,3.8s1.1,3.8,2.8,3.8S157.2,337.8,157.2,335.5z"/>
			<path d="M161.4,337.4V332h-1.5v-1.2l1.5-0.1l0.2-2.7h1.4v2.7h2.6v1.3H163v5.5c0,1.2,0.4,1.9,1.5,1.9c0.3,0,0.8-0.1,1.1-0.2
				l0.3,1.2c-0.6,0.2-1.2,0.4-1.8,0.4C162.1,340.7,161.4,339.4,161.4,337.4L161.4,337.4z"/>
			<path d="M167.6,327.6c0-0.7,0.5-1.1,1.1-1.1s1.1,0.4,1.1,1.1c0,0.6-0.5,1.1-1.1,1.1S167.6,328.2,167.6,327.6z M167.9,330.6h1.6
				v9.8h-1.6V330.6z"/>
			<path d="M173.1,329.1c0-2,0.9-3.2,2.8-3.2c0.6,0,1.2,0.1,1.6,0.3l-0.4,1.2c-0.4-0.2-0.8-0.2-1.1-0.2c-0.9,0-1.4,0.7-1.4,1.9v1.5
				h2.1v1.3h-2.1v8.4h-1.6V332h-1.3v-1.2l1.3-0.1L173.1,329.1L173.1,329.1z M181,327.6c0,0.6-0.5,1.1-1.1,1.1s-1.1-0.5-1.1-1.1
				c0-0.7,0.5-1.1,1.1-1.1S181,326.9,181,327.6z M179,330.7h1.7v9.8H179V330.7z"/>
			<path d="M183.2,335.5c0-3.3,2.2-5.1,4.7-5.1c1.3,0,2.2,0.5,2.9,1.1l-0.9,1.1c-0.6-0.5-1.2-0.9-2-0.9c-1.8,0-3.1,1.5-3.1,3.8
				s1.2,3.8,3,3.8c0.9,0,1.7-0.4,2.3-1l0.7,1.1c-0.9,0.8-2,1.2-3.1,1.2C185.2,340.7,183.2,338.8,183.2,335.5L183.2,335.5z"/>
			<path d="M192.3,337.9c0-2.1,1.9-3.2,6-3.7c0-1.3-0.4-2.5-2-2.5c-1.1,0-2.2,0.5-2.9,1l-0.6-1.1c0.9-0.6,2.3-1.3,3.9-1.3
				c2.4,0,3.4,1.6,3.4,4v6h-1.4l-0.1-1.2h-0.1c-0.9,0.8-2,1.4-3.2,1.4C193.5,340.6,192.3,339.6,192.3,337.9L192.3,337.9z
				 M198.3,338.1v-2.7c-3.3,0.4-4.4,1.2-4.4,2.5c0,1.1,0.8,1.6,1.7,1.6S197.4,338.9,198.3,338.1L198.3,338.1z"/>
			<path d="M203.1,337.4V332h-1.5v-1.2l1.5-0.1l0.2-2.7h1.4v2.7h2.6v1.3h-2.6v5.5c0,1.2,0.4,1.9,1.5,1.9c0.3,0,0.8-0.1,1.1-0.2
				l0.3,1.2c-0.6,0.2-1.2,0.4-1.8,0.4C203.8,340.7,203.1,339.4,203.1,337.4L203.1,337.4z"/>
			<path d="M209.3,327.6c0-0.7,0.5-1.1,1.1-1.1s1.1,0.4,1.1,1.1c0,0.6-0.5,1.1-1.1,1.1S209.3,328.2,209.3,327.6z M209.6,330.6h1.6
				v9.8h-1.6V330.6z"/>
			<path d="M213.8,335.5c0-3.3,2.1-5.1,4.5-5.1s4.5,1.9,4.5,5.1s-2.1,5.1-4.5,5.1S213.8,338.8,213.8,335.5z M221.2,335.5
				c0-2.2-1.1-3.8-2.8-3.8s-2.8,1.5-2.8,3.8s1.1,3.8,2.8,3.8S221.2,337.8,221.2,335.5z"/>
			<path d="M225.5,330.6h1.4l0.1,1.4h0.1c0.9-0.9,1.9-1.7,3.3-1.7c2.1,0,3,1.3,3,3.8v6.2h-1.6v-6c0-1.8-0.6-2.6-1.9-2.6
				c-1,0-1.7,0.5-2.7,1.5v7.1h-1.6L225.5,330.6L225.5,330.6z"/>
			<path d="M239.9,337.9c0-2.1,1.9-3.2,6-3.7c0-1.3-0.4-2.5-2-2.5c-1.1,0-2.2,0.5-2.9,1l-0.6-1.1c0.9-0.6,2.3-1.3,3.9-1.3
				c2.4,0,3.4,1.6,3.4,4v6h-1.4l-0.1-1.2H246c-0.9,0.8-2,1.4-3.2,1.4C241.1,340.6,239.9,339.6,239.9,337.9L239.9,337.9z
				 M245.9,338.1v-2.7c-3.3,0.4-4.4,1.2-4.4,2.5c0,1.1,0.8,1.6,1.7,1.6S245,338.9,245.9,338.1L245.9,338.1z"/>
			<path d="M250.7,330.6h1.4l0.1,1.4h0.1c0.9-0.9,1.9-1.7,3.3-1.7c2,0,3,1.3,3,3.8v6.2h-1.6v-6c0-1.8-0.6-2.6-1.9-2.6
				c-1,0-1.7,0.5-2.7,1.5v7.1h-1.6L250.7,330.6L250.7,330.6z"/>
			<path d="M261,335.5c0-3.2,2-5.1,4.2-5.1c1.1,0,1.9,0.4,2.8,1.1l-0.1-1.7v-3.8h1.6v14.3h-1.3l-0.2-1.1h0c-0.8,0.8-1.8,1.4-3,1.4
				C262.5,340.7,261,338.8,261,335.5L261,335.5z M267.9,337.9v-5.1c-0.8-0.7-1.6-1-2.4-1c-1.6,0-2.8,1.5-2.8,3.8
				c0,2.4,1,3.8,2.7,3.8C266.2,339.3,267,338.8,267.9,337.9L267.9,337.9z"/>
			<path d="M284.2,340.4l-3.2-5.6h-2.4v5.6H277v-13.2h4.1c2.7,0,4.6,1,4.6,3.7c0,2-1.2,3.3-3,3.7l3.4,5.8L284.2,340.4L284.2,340.4z
				 M278.7,333.5h2.2c2.1,0,3.2-0.8,3.2-2.5s-1.1-2.4-3.2-2.4h-2.2V333.5z"/>
			<path d="M287.3,335.5c0-3.2,2.1-5.1,4.4-5.1c2.5,0,3.9,1.8,3.9,4.6c0,0.4,0,0.7-0.1,0.9H289c0.1,2.1,1.4,3.4,3.2,3.4
				c1,0,1.7-0.3,2.5-0.8l0.6,1.1c-0.9,0.6-1.9,1-3.2,1C289.4,340.7,287.3,338.8,287.3,335.5L287.3,335.5z M294.2,334.8
				c0-2-0.9-3-2.4-3c-1.4,0-2.6,1.1-2.8,3H294.2z"/>
			<path d="M297,339.3l0.8-1.1c0.9,0.7,1.7,1.1,2.9,1.1c1.3,0,1.9-0.7,1.9-1.5c0-1-1.1-1.4-2.2-1.9c-1.4-0.5-2.9-1.2-2.9-2.8
				c0-1.5,1.2-2.8,3.4-2.8c1.2,0,2.3,0.5,3,1.1l-0.8,1.1c-0.7-0.5-1.4-0.9-2.2-0.9c-1.2,0-1.8,0.6-1.8,1.4c0,0.9,1.1,1.3,2.2,1.7
				c1.4,0.5,3,1.1,3,3c0,1.6-1.3,2.9-3.6,2.9C299.2,340.7,297.9,340.1,297,339.3L297,339.3z"/>
			<path d="M306.5,330.6h1.4l0.1,1.1h0c0.9-0.7,2-1.4,3.1-1.4c2.5,0,3.9,2,3.9,5c0,3.4-2,5.3-4.2,5.3c-0.9,0-1.8-0.4-2.7-1.1l0,1.7
				v3.3h-1.6V330.6L306.5,330.6z M313.3,335.4c0-2.2-0.7-3.6-2.6-3.6c-0.8,0-1.7,0.5-2.6,1.4v5.1c0.9,0.8,1.8,1,2.4,1
				C312.1,339.3,313.3,337.8,313.3,335.4L313.3,335.4z"/>
			<path d="M316.9,335.5c0-3.3,2.1-5.1,4.5-5.1s4.5,1.9,4.5,5.1s-2.1,5.1-4.5,5.1S316.9,338.8,316.9,335.5z M324.3,335.5
				c0-2.2-1.1-3.8-2.8-3.8s-2.8,1.5-2.8,3.8s1.1,3.8,2.8,3.8S324.3,337.8,324.3,335.5z"/>
			<path d="M328.5,330.6h1.4l0.1,1.4h0c0.9-0.9,1.9-1.7,3.3-1.7c2,0,3,1.3,3,3.8v6.2h-1.6v-6c0-1.8-0.6-2.6-1.9-2.6
				c-1,0-1.7,0.5-2.7,1.5v7.1h-1.6L328.5,330.6L328.5,330.6z"/>
			<path d="M338.5,339.3l0.8-1.1c0.9,0.7,1.7,1.1,2.9,1.1c1.3,0,1.9-0.7,1.9-1.5c0-1-1.1-1.4-2.2-1.9c-1.4-0.5-2.9-1.2-2.9-2.8
				c0-1.5,1.2-2.8,3.4-2.8c1.2,0,2.3,0.5,3,1.1l-0.8,1.1c-0.7-0.5-1.4-0.9-2.2-0.9c-1.2,0-1.8,0.6-1.8,1.4c0,0.9,1.1,1.3,2.2,1.7
				c1.4,0.5,3,1.1,3,3c0,1.6-1.3,2.9-3.6,2.9C340.7,340.7,339.4,340.1,338.5,339.3L338.5,339.3z"/>
			<path d="M347.2,335.5c0-3.2,2.1-5.1,4.4-5.1c2.5,0,3.9,1.8,3.9,4.6c0,0.4,0,0.7-0.1,0.9h-6.6c0.1,2.1,1.4,3.4,3.2,3.4
				c1,0,1.7-0.3,2.5-0.8l0.6,1.1c-0.9,0.6-1.9,1-3.2,1C349.3,340.7,347.2,338.8,347.2,335.5L347.2,335.5z M354.1,334.8
				c0-2-0.9-3-2.4-3c-1.4,0-2.6,1.1-2.8,3H354.1z"/>
			<path d="M65.5,347.2h3.3c4.1,0,6.2,2.4,6.2,6.5s-2.2,6.6-6.2,6.6h-3.4L65.5,347.2L65.5,347.2z M68.6,359.1c3.1,0,4.7-1.9,4.7-5.3
				s-1.5-5.2-4.7-5.2h-1.5v10.5H68.6z"/>
			<path d="M77.4,347.6c0-0.7,0.5-1.1,1.1-1.1s1.1,0.4,1.1,1.1c0,0.6-0.5,1.1-1.1,1.1S77.4,348.2,77.4,347.6z M77.7,350.6h1.6v9.8
				h-1.6V350.6z"/>
			<path d="M81.2,350.6h1.7l1.8,5.6c0.3,1,0.6,2,0.9,2.9h0.1c0.3-0.9,0.6-1.9,0.9-2.9l1.8-5.6h1.6l-3.5,9.8h-1.9
				C84.7,360.4,81.2,350.6,81.2,350.6z"/>
			<path d="M91.7,347.6c0-0.7,0.5-1.1,1.1-1.1s1.1,0.4,1.1,1.1c0,0.6-0.5,1.1-1.1,1.1S91.7,348.2,91.7,347.6z M92,350.6h1.6v9.8H92
				V350.6z"/>
			<path d="M95.9,359.3l0.8-1.1c0.8,0.7,1.7,1.1,2.9,1.1c1.3,0,1.9-0.7,1.9-1.5c0-1-1.2-1.4-2.2-1.9c-1.4-0.5-2.9-1.2-2.9-2.8
				c0-1.5,1.2-2.8,3.4-2.8c1.2,0,2.3,0.5,3,1.1l-0.8,1.1c-0.7-0.5-1.4-0.9-2.2-0.9c-1.2,0-1.8,0.6-1.8,1.4c0,0.9,1.1,1.3,2.2,1.7
				c1.4,0.5,3,1.1,3,3c0,1.6-1.3,2.9-3.6,2.9C98.1,360.7,96.8,360.1,95.9,359.3L95.9,359.3z"/>
			<path d="M105.1,347.6c0-0.7,0.5-1.1,1.1-1.1s1.1,0.4,1.1,1.1c0,0.6-0.5,1.1-1.1,1.1S105.1,348.2,105.1,347.6z M105.4,350.6h1.6
				v9.8h-1.6V350.6z"/>
			<path d="M109.6,355.5c0-3.3,2.1-5.1,4.5-5.1s4.5,1.9,4.5,5.1s-2.1,5.1-4.5,5.1S109.6,358.8,109.6,355.5z M117,355.5
				c0-2.2-1.2-3.8-2.8-3.8s-2.8,1.5-2.8,3.8s1.1,3.8,2.8,3.8S117,357.8,117,355.5z"/>
			<path d="M121.2,350.6h1.3l0.1,1.4h0.1c0.9-0.9,1.9-1.7,3.3-1.7c2,0,3,1.3,3,3.8v6.2h-1.6v-6c0-1.8-0.6-2.6-1.8-2.6
				c-1,0-1.7,0.5-2.7,1.5v7.1h-1.6V350.6L121.2,350.6z"/>
			<path class="st2" d="M43.5,377.5l10.6,6.8v0.1l-10.6,6.8h0L43.5,377.5L43.5,377.5L43.5,377.5z"/>
			<path d="M67.1,378.6h-4v-1.4h9.7v1.4h-4v11.8h-1.7V378.6z"/>
			<path d="M74,380.6h1.3l0.1,1.8h0.1c0.7-1.2,1.7-2,2.8-2c0.4,0,0.7,0,1,0.2l-0.3,1.4c-0.3-0.1-0.6-0.2-0.9-0.2
				c-0.8,0-1.8,0.6-2.5,2.2v6.3H74L74,380.6L74,380.6z"/>
			<path d="M79.9,387.9c0-2.1,1.8-3.2,6-3.7c0-1.3-0.4-2.5-2-2.5c-1.1,0-2.2,0.5-2.9,1l-0.7-1.1c0.9-0.6,2.3-1.3,3.8-1.3
				c2.4,0,3.4,1.6,3.4,4v6h-1.3l-0.1-1.2H86c-0.9,0.8-2,1.4-3.2,1.4C81.1,390.6,79.9,389.6,79.9,387.9L79.9,387.9z M85.9,388.1v-2.7
				c-3.3,0.4-4.4,1.2-4.4,2.5c0,1.1,0.8,1.6,1.7,1.6S85,388.9,85.9,388.1L85.9,388.1z"/>
			<path d="M90.4,377.6c0-0.7,0.5-1.1,1.1-1.1s1.1,0.4,1.1,1.1c0,0.6-0.5,1.1-1.1,1.1S90.4,378.2,90.4,377.6z M90.7,380.6h1.6v9.8
				h-1.6V380.6z"/>
			<path d="M95.6,380.6H97l0.1,1.4h0.1c0.9-0.9,1.9-1.7,3.3-1.7c2.1,0,3,1.3,3,3.8v6.2h-1.6v-6c0-1.8-0.6-2.6-1.8-2.6
				c-1,0-1.7,0.5-2.7,1.5v7.1h-1.6V380.6L95.6,380.6z"/>
			<path d="M106.3,377.6c0-0.7,0.5-1.1,1.1-1.1s1.1,0.4,1.1,1.1c0,0.6-0.5,1.1-1.1,1.1S106.3,378.2,106.3,377.6z M106.6,380.6h1.6
				v9.8h-1.6V380.6z"/>
			<path d="M111.6,380.6h1.3l0.1,1.4h0.1c0.9-0.9,1.9-1.7,3.3-1.7c2.1,0,3,1.3,3,3.8v6.2h-1.6v-6c0-1.8-0.6-2.6-1.8-2.6
				c-1,0-1.7,0.5-2.7,1.5v7.1h-1.6V380.6L111.6,380.6z"/>
			<path d="M121.8,392.3c0-0.8,0.5-1.6,1.5-2.2V390c-0.5-0.3-0.9-0.8-0.9-1.6s0.6-1.5,1.1-1.8v-0.1c-0.7-0.5-1.3-1.5-1.3-2.6
				c0-2.1,1.7-3.5,3.7-3.5c0.5,0,1,0.1,1.4,0.2h3.4v1.3h-2c0.5,0.5,0.8,1.2,0.8,2c0,2.1-1.6,3.4-3.6,3.4c-0.5,0-1-0.1-1.5-0.3
				c-0.4,0.3-0.6,0.6-0.6,1.2c0,0.6,0.4,1.1,1.7,1.1h1.9c2.3,0,3.4,0.7,3.4,2.3c0,1.8-1.9,3.4-4.9,3.4
				C123.5,394.9,121.8,394,121.8,392.3L121.8,392.3z M129.2,391.8c0-0.9-0.7-1.2-2-1.2h-1.7c-0.4,0-0.8,0-1.3-0.2
				c-0.7,0.5-1,1.1-1,1.7c0,1,1.1,1.7,2.8,1.7C128,393.8,129.2,392.8,129.2,391.8L129.2,391.8z M127.9,383.9c0-1.4-0.9-2.3-2.1-2.3
				s-2.1,0.9-2.1,2.3s0.9,2.3,2.1,2.3S127.9,385.3,127.9,383.9z"/>
			<path d="M136.9,377.2h3.3c4.1,0,6.2,2.4,6.2,6.5s-2.2,6.6-6.2,6.6h-3.4L136.9,377.2L136.9,377.2z M140.1,389.1
				c3.1,0,4.6-1.9,4.6-5.3s-1.5-5.2-4.6-5.2h-1.5v10.5H140.1z"/>
			<path d="M148.8,377.6c0-0.7,0.5-1.1,1.1-1.1s1.1,0.4,1.1,1.1c0,0.6-0.5,1.1-1.1,1.1S148.8,378.2,148.8,377.6z M149.1,380.6h1.6
				v9.8h-1.6V380.6z"/>
			<path d="M152.6,380.6h1.7l1.8,5.6c0.3,1,0.6,2,0.9,2.9h0.1c0.3-0.9,0.6-1.9,0.9-2.9l1.9-5.6h1.6l-3.5,9.8h-1.9L152.6,380.6z"/>
			<path d="M163.1,377.6c0-0.7,0.5-1.1,1.1-1.1s1.1,0.4,1.1,1.1c0,0.6-0.5,1.1-1.1,1.1S163.1,378.2,163.1,377.6z M163.4,380.6h1.6
				v9.8h-1.6V380.6z"/>
			<path d="M167.3,389.3l0.8-1.1c0.9,0.7,1.7,1.1,2.9,1.1c1.3,0,1.9-0.7,1.9-1.5c0-1-1.1-1.4-2.2-1.9c-1.4-0.5-2.9-1.2-2.9-2.8
				c0-1.5,1.2-2.8,3.4-2.8c1.2,0,2.3,0.5,3,1.1l-0.8,1.1c-0.7-0.5-1.4-0.9-2.2-0.9c-1.2,0-1.8,0.6-1.8,1.4c0,0.9,1.1,1.3,2.2,1.7
				c1.4,0.5,3,1.1,3,3c0,1.6-1.3,2.9-3.6,2.9C169.6,390.7,168.2,390.1,167.3,389.3L167.3,389.3z"/>
			<path d="M176.5,377.6c0-0.7,0.5-1.1,1.1-1.1s1.1,0.4,1.1,1.1c0,0.6-0.5,1.1-1.1,1.1S176.5,378.2,176.5,377.6z M176.8,380.6h1.6
				v9.8h-1.6V380.6z"/>
			<path d="M181,385.5c0-3.3,2.1-5.1,4.5-5.1s4.5,1.9,4.5,5.1s-2.1,5.1-4.5,5.1S181,388.8,181,385.5z M188.4,385.5
				c0-2.2-1.1-3.8-2.8-3.8s-2.8,1.5-2.8,3.8s1.1,3.8,2.8,3.8S188.4,387.8,188.4,385.5z"/>
			<path d="M192.7,380.6h1.4l0.1,1.4h0.1c0.9-0.9,1.9-1.7,3.3-1.7c2.1,0,3,1.3,3,3.8v6.2h-1.6v-6c0-1.8-0.6-2.6-1.9-2.6
				c-1,0-1.7,0.5-2.7,1.5v7.1h-1.6L192.7,380.6L192.7,380.6z"/>
			<path class="st2" d="M43.5,407.5l10.6,6.8v0.1l-10.6,6.8h0L43.5,407.5L43.5,407.5L43.5,407.5z"/>
			<path d="M63.6,413.8c0-4.3,2.5-6.9,5.8-6.9c1.6,0,2.9,0.8,3.6,1.6l-0.9,1.1c-0.7-0.7-1.6-1.3-2.7-1.3c-2.5,0-4.2,2-4.2,5.4
				s1.6,5.4,4.1,5.4c1.3,0,2.2-0.6,3.1-1.5l0.9,1c-1,1.2-2.3,1.9-4.1,1.9C66.1,420.7,63.6,418.1,63.6,413.8L63.6,413.8z"/>
			<path d="M74.4,424.4l0.3-1.3c0.2,0.1,0.5,0.2,0.7,0.2c1.1,0,1.8-0.9,2.2-2.1l0.2-0.7l-3.9-9.8h1.7l2,5.4c0.3,0.9,0.6,1.9,0.9,2.7
				h0.1c0.3-0.9,0.6-1.9,0.8-2.7l1.8-5.4h1.6l-3.7,10.6c-0.7,1.9-1.7,3.4-3.6,3.4C75.1,424.6,74.7,424.6,74.4,424.4L74.4,424.4z"/>
			<path d="M86.3,419.4L86.3,419.4l-0.2,1h-1.3v-14.3h1.6v3.9l-0.1,1.8c0.9-0.8,2-1.4,3.1-1.4c2.5,0,3.9,2,3.9,5
				c0,3.4-2,5.3-4.2,5.3C88.2,420.7,87.2,420.2,86.3,419.4L86.3,419.4z M91.6,415.4c0-2.2-0.7-3.6-2.6-3.6c-0.8,0-1.7,0.5-2.6,1.4
				v5.1c0.9,0.8,1.8,1,2.4,1C90.4,419.3,91.6,417.8,91.6,415.4L91.6,415.4z"/>
			<path d="M95.2,415.5c0-3.2,2.1-5.1,4.4-5.1c2.5,0,3.9,1.8,3.9,4.6c0,0.4,0,0.7-0.1,0.9h-6.6c0.1,2.1,1.4,3.4,3.2,3.4
				c0.9,0,1.7-0.3,2.4-0.8l0.6,1.1c-0.9,0.6-1.9,1-3.2,1C97.3,420.7,95.2,418.8,95.2,415.5L95.2,415.5z M102,414.8c0-2-0.9-3-2.4-3
				c-1.4,0-2.6,1.1-2.8,3H102z"/>
			<path d="M105.9,410.6h1.3l0.1,1.8h0.1c0.7-1.2,1.7-2,2.8-2c0.4,0,0.7,0,1,0.2l-0.3,1.4c-0.3-0.1-0.6-0.2-0.9-0.2
				c-0.8,0-1.8,0.6-2.5,2.2v6.3h-1.6L105.9,410.6L105.9,410.6z"/>
			<path d="M116.1,418.7l1-1.1c0.9,1,2.3,1.6,3.7,1.6c1.7,0,2.8-0.9,2.8-2.2s-0.9-1.8-2.2-2.3l-1.9-0.8c-1.2-0.5-2.7-1.5-2.7-3.4
				c0-2,1.8-3.5,4.2-3.5c1.6,0,2.9,0.7,3.9,1.6l-0.9,1.1c-0.8-0.8-1.8-1.2-3-1.2c-1.5,0-2.5,0.8-2.5,1.9c0,1.3,1.2,1.8,2.2,2.2
				l1.9,0.8c1.5,0.7,2.7,1.6,2.7,3.5c0,2.1-1.7,3.8-4.5,3.8C118.8,420.7,117.2,419.9,116.1,418.7L116.1,418.7z"/>
			<path d="M126.9,415.5c0-3.2,2.1-5.1,4.4-5.1c2.5,0,3.9,1.8,3.9,4.6c0,0.4,0,0.7-0.1,0.9h-6.6c0.1,2.1,1.4,3.4,3.2,3.4
				c0.9,0,1.7-0.3,2.4-0.8l0.6,1.1c-0.9,0.6-1.9,1-3.2,1C129,420.7,126.9,418.8,126.9,415.5L126.9,415.5z M133.8,414.8
				c0-2-0.9-3-2.4-3c-1.4,0-2.6,1.1-2.8,3H133.8L133.8,414.8z"/>
			<path d="M136.9,415.5c0-3.3,2.2-5.1,4.7-5.1c1.3,0,2.2,0.5,2.9,1.1l-0.9,1.1c-0.6-0.5-1.2-0.9-2-0.9c-1.8,0-3.1,1.5-3.1,3.8
				s1.2,3.8,3,3.8c0.9,0,1.7-0.4,2.3-1l0.7,1.1c-0.9,0.8-2,1.2-3.1,1.2C138.9,420.7,136.9,418.8,136.9,415.5L136.9,415.5z"/>
			<path d="M146.6,416.9v-6.2h1.6v6c0,1.8,0.5,2.6,1.8,2.6c1,0,1.7-0.5,2.6-1.7v-6.9h1.6v9.8H153l-0.1-1.5h-0.1
				c-0.9,1.1-1.9,1.8-3.2,1.8C147.6,420.7,146.7,419.3,146.6,416.9L146.6,416.9z"/>
			<path d="M157.7,410.6h1.4l0.1,1.8h0.1c0.7-1.2,1.7-2,2.8-2c0.4,0,0.7,0,1,0.2l-0.3,1.4c-0.3-0.1-0.6-0.2-0.9-0.2
				c-0.8,0-1.8,0.6-2.5,2.2v6.3h-1.6L157.7,410.6L157.7,410.6z"/>
			<path d="M164.4,407.6c0-0.7,0.5-1.1,1.1-1.1s1.1,0.4,1.1,1.1c0,0.6-0.5,1.1-1.1,1.1S164.4,408.2,164.4,407.6z M164.7,410.6h1.6
				v9.8h-1.6V410.6z"/>
			<path d="M169.9,417.4V412h-1.5v-1.2l1.5-0.1l0.2-2.7h1.4v2.7h2.6v1.3h-2.6v5.5c0,1.2,0.4,1.9,1.5,1.9c0.3,0,0.8-0.1,1.1-0.2
				l0.3,1.2c-0.6,0.2-1.2,0.4-1.8,0.4C170.6,420.7,169.9,419.4,169.9,417.4L169.9,417.4z"/>
			<path d="M175.4,424.4l0.3-1.3c0.2,0.1,0.5,0.2,0.7,0.2c1.1,0,1.8-0.9,2.2-2.1l0.2-0.7l-3.9-9.8h1.7l2,5.4
				c0.3,0.9,0.6,1.9,0.9,2.7h0.1c0.3-0.9,0.6-1.9,0.8-2.7l1.8-5.4h1.6l-3.7,10.6c-0.7,1.9-1.7,3.4-3.6,3.4
				C176.1,424.6,175.7,424.6,175.4,424.4L175.4,424.4z"/>
			<path d="M196,416.4h-4.8l-1.3,4h-1.7l4.5-13.2h1.9l4.5,13.2h-1.8L196,416.4L196,416.4z M195.6,415.1l-0.6-2
				c-0.5-1.5-0.9-2.9-1.3-4.5h-0.1c-0.4,1.5-0.9,3-1.3,4.5l-0.6,2H195.6L195.6,415.1z"/>
			<path d="M200.5,416.9v-6.2h1.6v6c0,1.8,0.5,2.6,1.8,2.6c1,0,1.7-0.5,2.6-1.7v-6.9h1.6v9.8h-1.4l-0.1-1.5h-0.1
				c-0.9,1.1-1.9,1.8-3.2,1.8C201.4,420.7,200.5,419.3,200.5,416.9L200.5,416.9z"/>
			<path d="M210.9,415.5c0-3.2,2-5.1,4.2-5.1c1.1,0,1.9,0.4,2.8,1.1l-0.1-1.7v-3.8h1.6v14.3h-1.3l-0.2-1.1h0c-0.8,0.8-1.8,1.4-3,1.4
				C212.4,420.7,210.9,418.8,210.9,415.5L210.9,415.5z M217.8,417.9v-5.1c-0.8-0.7-1.6-1-2.4-1c-1.6,0-2.8,1.5-2.8,3.8
				c0,2.4,1,3.8,2.7,3.8C216.1,419.3,216.9,418.8,217.8,417.9L217.8,417.9z"/>
			<path d="M222.4,407.6c0-0.7,0.5-1.1,1.1-1.1s1.1,0.4,1.1,1.1c0,0.6-0.5,1.1-1.1,1.1S222.4,408.2,222.4,407.6z M222.7,410.6h1.6
				v9.8h-1.6V410.6z"/>
			<path d="M228,417.4V412h-1.5v-1.2l1.5-0.1l0.2-2.7h1.4v2.7h2.6v1.3h-2.6v5.5c0,1.2,0.4,1.9,1.5,1.9c0.3,0,0.8-0.1,1.1-0.2
				l0.3,1.2c-0.6,0.2-1.2,0.4-1.8,0.4C228.7,420.7,228,419.4,228,417.4L228,417.4z"/>
			<path d="M238.6,407.2h3.3c4.1,0,6.2,2.4,6.2,6.5s-2.2,6.6-6.2,6.6h-3.4L238.6,407.2L238.6,407.2z M241.8,419.1
				c3.1,0,4.6-1.9,4.6-5.3s-1.5-5.2-4.6-5.2h-1.5v10.5H241.8z"/>
			<path d="M250.6,407.6c0-0.7,0.5-1.1,1.1-1.1s1.1,0.4,1.1,1.1c0,0.6-0.5,1.1-1.1,1.1S250.6,408.2,250.6,407.6z M250.9,410.6h1.6
				v9.8h-1.6V410.6z"/>
			<path d="M254.4,410.6h1.7l1.8,5.6c0.3,1,0.6,2,0.9,2.9h0.1c0.3-0.9,0.6-1.9,0.9-2.9l1.9-5.6h1.6l-3.5,9.8h-1.9L254.4,410.6z"/>
			<path d="M264.9,407.6c0-0.7,0.5-1.1,1.1-1.1s1.1,0.4,1.1,1.1c0,0.6-0.5,1.1-1.1,1.1S264.9,408.2,264.9,407.6z M265.2,410.6h1.6
				v9.8h-1.6V410.6z"/>
			<path d="M269,419.3l0.8-1.1c0.9,0.7,1.7,1.1,2.9,1.1c1.3,0,1.9-0.7,1.9-1.5c0-1-1.1-1.4-2.2-1.9c-1.4-0.5-2.9-1.2-2.9-2.8
				c0-1.5,1.2-2.8,3.4-2.8c1.2,0,2.3,0.5,3,1.1l-0.8,1.1c-0.7-0.5-1.4-0.9-2.2-0.9c-1.2,0-1.8,0.6-1.8,1.4c0,0.9,1.1,1.3,2.2,1.7
				c1.4,0.5,3,1.1,3,3c0,1.6-1.3,2.9-3.6,2.9C271.3,420.7,270,420.1,269,419.3L269,419.3z"/>
			<path d="M278.2,407.6c0-0.7,0.5-1.1,1.1-1.1s1.1,0.4,1.1,1.1c0,0.6-0.5,1.1-1.1,1.1S278.2,408.2,278.2,407.6z M278.6,410.6h1.6
				v9.8h-1.6V410.6z"/>
			<path d="M282.8,415.5c0-3.3,2.1-5.1,4.5-5.1s4.5,1.9,4.5,5.1s-2.1,5.1-4.5,5.1S282.8,418.8,282.8,415.5z M290.1,415.5
				c0-2.2-1.1-3.8-2.8-3.8s-2.8,1.5-2.8,3.8s1.1,3.8,2.8,3.8S290.1,417.8,290.1,415.5z"/>
			<path d="M294.4,410.6h1.4l0.1,1.4h0c0.9-0.9,1.9-1.7,3.3-1.7c2,0,3,1.3,3,3.8v6.2h-1.6v-6c0-1.8-0.6-2.6-1.9-2.6
				c-1,0-1.7,0.5-2.7,1.5v7.1h-1.6L294.4,410.6L294.4,410.6z"/>
			<path class="st2" d="M43.5,437.5l10.6,6.8v0.1l-10.6,6.8h0L43.5,437.5L43.5,437.5L43.5,437.5z"/>
			<path d="M71.6,450.4l-3.2-5.6H66v5.6h-1.7v-13.2h4.1c2.7,0,4.6,1,4.6,3.7c0,2-1.2,3.3-3,3.7l3.4,5.8L71.6,450.4L71.6,450.4z
				 M66,443.5h2.2c2.1,0,3.2-0.8,3.2-2.5s-1.1-2.4-3.2-2.4H66V443.5z"/>
			<path d="M74.7,445.5c0-3.2,2.1-5.1,4.4-5.1c2.5,0,3.9,1.8,3.9,4.6c0,0.4,0,0.7-0.1,0.9h-6.6c0.1,2.1,1.4,3.4,3.2,3.4
				c0.9,0,1.7-0.3,2.4-0.8l0.6,1.1c-0.9,0.6-1.9,1-3.2,1C76.8,450.7,74.7,448.8,74.7,445.5L74.7,445.5z M81.6,444.8c0-2-0.9-3-2.4-3
				c-1.4,0-2.6,1.1-2.8,3H81.6z"/>
			<path d="M84.4,452.3c0-0.8,0.5-1.6,1.5-2.2V450c-0.5-0.3-0.9-0.8-0.9-1.6s0.6-1.5,1.1-1.8v-0.1c-0.7-0.5-1.3-1.5-1.3-2.6
				c0-2.1,1.7-3.5,3.7-3.5c0.5,0,1,0.1,1.4,0.2h3.4v1.3h-2c0.5,0.5,0.8,1.2,0.8,2c0,2.1-1.6,3.4-3.6,3.4c-0.5,0-1-0.1-1.5-0.3
				c-0.4,0.3-0.6,0.6-0.6,1.2c0,0.6,0.4,1.1,1.7,1.1H90c2.3,0,3.4,0.7,3.4,2.3c0,1.8-1.9,3.4-4.9,3.4
				C86.1,454.9,84.4,454,84.4,452.3L84.4,452.3z M91.8,451.8c0-0.9-0.7-1.2-2-1.2h-1.7c-0.4,0-0.8,0-1.3-0.2c-0.7,0.5-1,1.1-1,1.7
				c0,1,1.1,1.7,2.8,1.7C90.6,453.8,91.8,452.8,91.8,451.8L91.8,451.8z M90.6,443.9c0-1.4-0.9-2.3-2.1-2.3s-2.1,0.9-2.1,2.3
				s0.9,2.3,2.1,2.3S90.6,445.3,90.6,443.9z"/>
			<path d="M95.2,446.9v-6.2h1.6v6c0,1.8,0.5,2.6,1.8,2.6c1,0,1.7-0.5,2.7-1.7v-6.9h1.6v9.8h-1.4l-0.1-1.5h-0.1
				c-0.9,1.1-1.9,1.8-3.2,1.8C96.1,450.7,95.2,449.3,95.2,446.9L95.2,446.9z"/>
			<path d="M106.3,448.5v-12.4h1.6v12.5c0,0.5,0.2,0.7,0.5,0.7c0.1,0,0.2,0,0.3,0l0.2,1.3c-0.2,0.1-0.5,0.1-0.9,0.1
				C106.8,450.7,106.3,449.9,106.3,448.5L106.3,448.5z"/>
			<path d="M110.8,447.9c0-2.1,1.8-3.2,6-3.7c0-1.3-0.4-2.5-2-2.5c-1.1,0-2.2,0.5-2.9,1l-0.7-1.1c0.9-0.6,2.3-1.3,3.8-1.3
				c2.4,0,3.4,1.6,3.4,4v6h-1.3l-0.1-1.2h-0.1c-0.9,0.8-2,1.4-3.2,1.4C112,450.6,110.8,449.6,110.8,447.9L110.8,447.9z M116.8,448.1
				v-2.7c-3.3,0.4-4.4,1.2-4.4,2.5c0,1.1,0.8,1.6,1.7,1.6S115.8,448.9,116.8,448.1L116.8,448.1z"/>
			<path d="M121.6,447.4V442h-1.5v-1.2l1.5-0.1l0.2-2.7h1.4v2.7h2.7v1.3h-2.7v5.5c0,1.2,0.4,1.9,1.5,1.9c0.3,0,0.8-0.1,1.1-0.2
				l0.3,1.2c-0.6,0.2-1.2,0.4-1.8,0.4C122.3,450.7,121.6,449.4,121.6,447.4L121.6,447.4z"/>
			<path d="M127.8,437.6c0-0.7,0.5-1.1,1.1-1.1s1.1,0.4,1.1,1.1c0,0.6-0.5,1.1-1.1,1.1S127.8,438.2,127.8,437.6z M128.1,440.6h1.6
				v9.8h-1.6V440.6z"/>
			<path d="M132.3,445.5c0-3.3,2.1-5.1,4.5-5.1s4.5,1.9,4.5,5.1s-2.1,5.1-4.5,5.1S132.3,448.8,132.3,445.5z M139.7,445.5
				c0-2.2-1.1-3.8-2.8-3.8s-2.8,1.5-2.8,3.8s1.1,3.8,2.8,3.8S139.7,447.8,139.7,445.5z"/>
			<path d="M143.9,440.6h1.4l0.1,1.4h0.1c0.9-0.9,1.9-1.7,3.3-1.7c2.1,0,3,1.3,3,3.8v6.2h-1.6v-6c0-1.8-0.6-2.6-1.9-2.6
				c-1,0-1.7,0.5-2.7,1.5v7.1h-1.6L143.9,440.6L143.9,440.6z"/>
			<path d="M158.3,447.9c0-2.1,1.9-3.2,6-3.7c0-1.3-0.4-2.5-2-2.5c-1.1,0-2.2,0.5-2.9,1l-0.6-1.1c0.9-0.6,2.3-1.3,3.9-1.3
				c2.4,0,3.4,1.6,3.4,4v6h-1.4l-0.1-1.2h-0.1c-0.9,0.8-2,1.4-3.2,1.4C159.6,450.6,158.3,449.6,158.3,447.9L158.3,447.9z
				 M164.3,448.1v-2.7c-3.3,0.4-4.4,1.2-4.4,2.5c0,1.1,0.8,1.6,1.7,1.6S163.4,448.9,164.3,448.1L164.3,448.1z"/>
			<path d="M169.1,440.6h1.4l0.1,1.4h0.1c0.9-0.9,1.9-1.7,3.3-1.7c2.1,0,3,1.3,3,3.8v6.2h-1.6v-6c0-1.8-0.6-2.6-1.9-2.6
				c-1,0-1.7,0.5-2.7,1.5v7.1h-1.6L169.1,440.6L169.1,440.6z"/>
			<path d="M179.4,445.5c0-3.2,2-5.1,4.2-5.1c1.1,0,1.9,0.4,2.8,1.1l-0.1-1.7v-3.8h1.6v14.3h-1.3l-0.2-1.1h0c-0.8,0.8-1.8,1.4-3,1.4
				C181,450.7,179.4,448.8,179.4,445.5L179.4,445.5z M186.3,447.9v-5.1c-0.8-0.7-1.6-1-2.4-1c-1.6,0-2.8,1.5-2.8,3.8
				c0,2.4,1,3.8,2.7,3.8C184.7,449.3,185.5,448.8,186.3,447.9L186.3,447.9z"/>
			<path d="M195.4,437.2h1.7v13.2h-1.7V437.2z"/>
			<path d="M200.6,440.6h1.4l0.1,1.4h0.1c0.9-0.9,1.9-1.7,3.3-1.7c2.1,0,3,1.3,3,3.8v6.2h-1.6v-6c0-1.8-0.6-2.6-1.9-2.6
				c-1,0-1.7,0.5-2.7,1.5v7.1h-1.6L200.6,440.6L200.6,440.6z"/>
			<path d="M211.9,447.4V442h-1.5v-1.2l1.5-0.1l0.2-2.7h1.4v2.7h2.6v1.3h-2.6v5.5c0,1.2,0.4,1.9,1.5,1.9c0.3,0,0.8-0.1,1.1-0.2
				l0.3,1.2c-0.6,0.2-1.2,0.4-1.8,0.4C212.5,450.7,211.8,449.4,211.9,447.4L211.9,447.4z"/>
			<path d="M217.3,445.5c0-3.2,2.1-5.1,4.4-5.1c2.5,0,3.9,1.8,3.9,4.6c0,0.4,0,0.7-0.1,0.9H219c0.1,2.1,1.4,3.4,3.2,3.4
				c0.9,0,1.7-0.3,2.4-0.8l0.6,1.1c-0.9,0.6-1.9,1-3.2,1C219.4,450.7,217.3,448.8,217.3,445.5L217.3,445.5z M224.2,444.8
				c0-2-0.9-3-2.4-3c-1.4,0-2.6,1.1-2.8,3H224.2L224.2,444.8z"/>
			<path d="M228.1,440.6h1.4l0.1,1.8h0.1c0.7-1.2,1.7-2,2.8-2c0.4,0,0.7,0,1,0.2l-0.3,1.4c-0.3-0.1-0.6-0.2-0.9-0.2
				c-0.8,0-1.8,0.6-2.5,2.2v6.3H228L228.1,440.6L228.1,440.6z"/>
			<path d="M235,440.6h1.4l0.1,1.4h0.1c0.9-0.9,1.9-1.7,3.3-1.7c2.1,0,3,1.3,3,3.8v6.2h-1.6v-6c0-1.8-0.6-2.6-1.9-2.6
				c-1,0-1.7,0.5-2.7,1.5v7.1H235L235,440.6L235,440.6z"/>
			<path d="M245.4,447.9c0-2.1,1.9-3.2,6-3.7c0-1.3-0.4-2.5-2-2.5c-1.1,0-2.2,0.5-2.9,1l-0.6-1.1c0.9-0.6,2.3-1.3,3.9-1.3
				c2.4,0,3.4,1.6,3.4,4v6h-1.4l-0.1-1.2h-0.1c-0.9,0.8-2,1.4-3.2,1.4C246.6,450.6,245.4,449.6,245.4,447.9L245.4,447.9z
				 M251.4,448.1v-2.7c-3.3,0.4-4.4,1.2-4.4,2.5c0,1.1,0.8,1.6,1.7,1.6S250.5,448.9,251.4,448.1L251.4,448.1z"/>
			<path d="M256.2,447.4V442h-1.5v-1.2l1.5-0.1l0.2-2.7h1.4v2.7h2.6v1.3h-2.6v5.5c0,1.2,0.4,1.9,1.5,1.9c0.3,0,0.8-0.1,1.1-0.2
				l0.3,1.2c-0.6,0.2-1.2,0.4-1.8,0.4C256.9,450.7,256.2,449.4,256.2,447.4L256.2,447.4z"/>
			<path d="M262.4,437.6c0-0.7,0.5-1.1,1.1-1.1s1.1,0.4,1.1,1.1c0,0.6-0.5,1.1-1.1,1.1S262.4,438.2,262.4,437.6z M262.7,440.6h1.6
				v9.8h-1.6V440.6z"/>
			<path d="M266.9,445.5c0-3.3,2.1-5.1,4.5-5.1s4.5,1.9,4.5,5.1s-2.1,5.1-4.5,5.1S266.9,448.8,266.9,445.5z M274.3,445.5
				c0-2.2-1.1-3.8-2.8-3.8s-2.8,1.5-2.8,3.8s1.1,3.8,2.8,3.8S274.3,447.8,274.3,445.5z"/>
			<path d="M278.6,440.6h1.4l0.1,1.4h0c0.9-0.9,1.9-1.7,3.3-1.7c2,0,3,1.3,3,3.8v6.2h-1.6v-6c0-1.8-0.6-2.6-1.9-2.6
				c-1,0-1.7,0.5-2.7,1.5v7.1h-1.6L278.6,440.6L278.6,440.6z"/>
			<path d="M288.9,447.9c0-2.1,1.9-3.2,6-3.7c0-1.3-0.4-2.5-2-2.5c-1.1,0-2.2,0.5-2.9,1l-0.6-1.1c0.9-0.6,2.3-1.3,3.9-1.3
				c2.4,0,3.4,1.6,3.4,4v6h-1.4l-0.1-1.2h0c-0.9,0.8-2,1.4-3.2,1.4C290.2,450.6,288.9,449.6,288.9,447.9L288.9,447.9z M295,448.1
				v-2.7c-3.3,0.4-4.4,1.2-4.4,2.5c0,1.1,0.8,1.6,1.7,1.6S294,448.9,295,448.1L295,448.1z"/>
			<path d="M299.7,448.5v-12.4h1.6v12.5c0,0.5,0.2,0.7,0.5,0.7c0.1,0,0.2,0,0.3,0l0.2,1.3c-0.2,0.1-0.5,0.1-1,0.1
				C300.2,450.7,299.7,449.9,299.7,448.5L299.7,448.5z"/>
			<path d="M64.7,463.8c0-4.3,2.5-6.9,5.8-6.9c1.6,0,2.9,0.8,3.6,1.6l-0.9,1.1c-0.7-0.7-1.6-1.3-2.7-1.3c-2.5,0-4.2,2-4.2,5.4
				s1.6,5.4,4.1,5.4c1.3,0,2.2-0.6,3.1-1.5l0.9,1c-1,1.2-2.3,1.9-4.1,1.9C67.2,470.7,64.7,468.1,64.7,463.8L64.7,463.8z"/>
			<path d="M76.1,465.5c0-3.3,2.1-5.1,4.5-5.1s4.5,1.9,4.5,5.1s-2.1,5.1-4.5,5.1S76.1,468.8,76.1,465.5z M83.4,465.5
				c0-2.2-1.2-3.8-2.8-3.8s-2.8,1.5-2.8,3.8s1.1,3.8,2.8,3.8S83.4,467.8,83.4,465.5z"/>
			<path d="M87,465.5c0-3.3,2.1-5.1,4.5-5.1s4.5,1.9,4.5,5.1s-2.1,5.1-4.5,5.1S87,468.8,87,465.5z M94.4,465.5
				c0-2.2-1.2-3.8-2.8-3.8s-2.8,1.5-2.8,3.8s1.1,3.8,2.8,3.8S94.4,467.8,94.4,465.5z"/>
			<path d="M98.6,460.6h1.3l0.1,1.1h0.1c0.9-0.7,2-1.4,3.1-1.4c2.5,0,3.9,2,3.9,5c0,3.4-2,5.3-4.2,5.3c-0.9,0-1.8-0.4-2.7-1.1l0,1.7
				v3.3h-1.6L98.6,460.6L98.6,460.6z M105.5,465.4c0-2.2-0.7-3.6-2.6-3.6c-0.8,0-1.7,0.5-2.6,1.4v5.1c0.9,0.8,1.8,1,2.4,1
				C104.3,469.3,105.5,467.8,105.5,465.4L105.5,465.4z"/>
			<path d="M109.1,465.5c0-3.2,2.1-5.1,4.4-5.1c2.5,0,3.9,1.8,3.9,4.6c0,0.4,0,0.7-0.1,0.9h-6.6c0.1,2.1,1.4,3.4,3.2,3.4
				c0.9,0,1.7-0.3,2.4-0.8l0.6,1.1c-0.9,0.6-1.9,1-3.2,1C111.1,470.7,109,468.8,109.1,465.5L109.1,465.5z M115.9,464.8
				c0-2-0.9-3-2.4-3c-1.4,0-2.6,1.1-2.8,3H115.9z"/>
			<path d="M119.8,460.6h1.3l0.1,1.8h0.1c0.7-1.2,1.7-2,2.8-2c0.4,0,0.7,0,1,0.2l-0.3,1.4c-0.3-0.1-0.6-0.2-0.9-0.2
				c-0.8,0-1.8,0.6-2.5,2.2v6.3h-1.6L119.8,460.6L119.8,460.6z"/>
			<path d="M125.6,467.9c0-2.1,1.8-3.2,6-3.7c0-1.3-0.4-2.5-2-2.5c-1.1,0-2.2,0.5-2.9,1l-0.7-1.1c0.9-0.6,2.3-1.3,3.8-1.3
				c2.4,0,3.4,1.6,3.4,4v6h-1.4l-0.1-1.2h-0.1c-0.9,0.8-2,1.4-3.2,1.4C126.8,470.6,125.6,469.6,125.6,467.9L125.6,467.9z
				 M131.6,468.1v-2.7c-3.3,0.4-4.4,1.2-4.4,2.5c0,1.1,0.8,1.6,1.7,1.6C129.9,469.4,130.7,468.9,131.6,468.1L131.6,468.1z"/>
			<path d="M136.4,467.4V462H135v-1.2l1.5-0.1l0.2-2.7h1.4v2.7h2.6v1.3h-2.6v5.5c0,1.2,0.4,1.9,1.5,1.9c0.3,0,0.8-0.1,1.1-0.2
				l0.3,1.2c-0.6,0.2-1.2,0.4-1.8,0.4C137.1,470.7,136.4,469.4,136.4,467.4L136.4,467.4z"/>
			<path d="M142.6,457.6c0-0.7,0.5-1.1,1.1-1.1s1.1,0.4,1.1,1.1c0,0.6-0.5,1.1-1.1,1.1S142.6,458.2,142.6,457.6z M142.9,460.6h1.6
				v9.8h-1.6V460.6z"/>
			<path d="M147.1,465.5c0-3.3,2.1-5.1,4.5-5.1s4.5,1.9,4.5,5.1s-2.1,5.1-4.5,5.1S147.1,468.8,147.1,465.5z M154.5,465.5
				c0-2.2-1.1-3.8-2.8-3.8s-2.8,1.5-2.8,3.8s1.1,3.8,2.8,3.8S154.5,467.8,154.5,465.5z"/>
			<path d="M158.8,460.6h1.4l0.1,1.4h0.1c0.9-0.9,1.9-1.7,3.3-1.7c2.1,0,3,1.3,3,3.8v6.2H165v-6c0-1.8-0.6-2.6-1.9-2.6
				c-1,0-1.7,0.5-2.7,1.5v7.1h-1.6L158.8,460.6L158.8,460.6z"/>
			<path d="M174,457.2h3.3c4.1,0,6.2,2.4,6.2,6.5s-2.2,6.6-6.2,6.6H174L174,457.2L174,457.2z M177.1,469.1c3.1,0,4.6-1.9,4.6-5.3
				s-1.5-5.2-4.6-5.2h-1.5v10.5H177.1z"/>
			<path d="M185.9,457.6c0-0.7,0.5-1.1,1.1-1.1s1.1,0.4,1.1,1.1c0,0.6-0.5,1.1-1.1,1.1S185.9,458.2,185.9,457.6z M186.2,460.6h1.6
				v9.8h-1.6V460.6z"/>
			<path d="M189.7,460.6h1.7l1.8,5.6c0.3,1,0.6,2,0.9,2.9h0.1c0.3-0.9,0.6-1.9,0.9-2.9l1.9-5.6h1.6l-3.5,9.8h-1.9L189.7,460.6z"/>
			<path d="M200.2,457.6c0-0.7,0.5-1.1,1.1-1.1s1.1,0.4,1.1,1.1c0,0.6-0.5,1.1-1.1,1.1S200.2,458.2,200.2,457.6z M200.5,460.6h1.6
				v9.8h-1.6V460.6z"/>
			<path d="M204.4,469.3l0.8-1.1c0.9,0.7,1.7,1.1,2.9,1.1c1.3,0,1.9-0.7,1.9-1.5c0-1-1.1-1.4-2.2-1.9c-1.4-0.5-2.9-1.2-2.9-2.8
				c0-1.5,1.2-2.8,3.4-2.8c1.2,0,2.3,0.5,3,1.1l-0.8,1.1c-0.7-0.5-1.4-0.9-2.2-0.9c-1.2,0-1.8,0.6-1.8,1.4c0,0.9,1.1,1.3,2.2,1.7
				c1.4,0.5,3,1.1,3,3c0,1.6-1.3,2.9-3.6,2.9C206.6,470.7,205.3,470.1,204.4,469.3L204.4,469.3z"/>
			<path d="M213.6,457.6c0-0.7,0.5-1.1,1.1-1.1s1.1,0.4,1.1,1.1c0,0.6-0.5,1.1-1.1,1.1S213.6,458.2,213.6,457.6z M213.9,460.6h1.6
				v9.8h-1.6V460.6z"/>
			<path d="M218.1,465.5c0-3.3,2.1-5.1,4.5-5.1s4.5,1.9,4.5,5.1s-2.1,5.1-4.5,5.1S218.1,468.8,218.1,465.5z M225.5,465.5
				c0-2.2-1.1-3.8-2.8-3.8s-2.8,1.5-2.8,3.8s1.1,3.8,2.8,3.8S225.5,467.8,225.5,465.5z"/>
			<path d="M229.7,460.6h1.4l0.1,1.4h0.1c0.9-0.9,1.9-1.7,3.3-1.7c2.1,0,3,1.3,3,3.8v6.2h-1.6v-6c0-1.8-0.6-2.6-1.9-2.6
				c-1,0-1.7,0.5-2.7,1.5v7.1h-1.6L229.7,460.6L229.7,460.6z"/>
		</g>
	</g>
	<g>
		<g>
			<path class="st2" d="M484.9,297.9l10.6,6.8v0.1l-10.6,6.8h0L484.9,297.9L484.9,297.9L484.9,297.9z"/>
			<path d="M504.8,309l1-1.1c1,1,2.3,1.6,3.6,1.6c1.7,0,2.8-0.9,2.8-2.2s-1-1.8-2.2-2.3l-1.9-0.8c-1.2-0.5-2.7-1.5-2.7-3.4
				c0-2,1.8-3.5,4.2-3.5c1.6,0,3,0.7,3.9,1.6l-0.9,1.1c-0.8-0.8-1.8-1.2-3-1.2c-1.5,0-2.5,0.8-2.5,1.9c0,1.3,1.1,1.8,2.2,2.2
				l1.9,0.8c1.5,0.7,2.7,1.6,2.7,3.5c0,2.1-1.7,3.8-4.5,3.8C507.5,311,505.9,310.3,504.8,309L504.8,309z"/>
			<path d="M515.6,305.9c0-3.2,2.1-5.1,4.4-5.1c2.5,0,3.9,1.8,3.9,4.6c0,0.4,0,0.7-0.1,0.9h-6.6c0.1,2.1,1.4,3.4,3.2,3.4
				c1,0,1.7-0.3,2.5-0.8l0.6,1.1c-0.9,0.6-1.9,1-3.2,1C517.7,311,515.6,309.1,515.6,305.9L515.6,305.9z M522.4,305.1
				c0-2-0.9-3-2.4-3c-1.4,0-2.6,1.1-2.8,3H522.4z"/>
			<path d="M525.5,305.9c0-3.3,2.2-5.1,4.7-5.1c1.3,0,2.2,0.5,2.9,1.1l-0.8,1.1c-0.6-0.5-1.2-0.9-2-0.9c-1.8,0-3.1,1.5-3.1,3.8
				s1.2,3.8,3,3.8c0.9,0,1.7-0.4,2.3-1l0.7,1.1c-0.9,0.8-2,1.2-3.2,1.2C527.5,311,525.5,309.1,525.5,305.9L525.5,305.9z"/>
			<path d="M535.5,301h1.3l0.1,1.8h0c0.7-1.2,1.7-2,2.8-2c0.4,0,0.7,0,1,0.2l-0.3,1.4c-0.3-0.1-0.6-0.2-1-0.2
				c-0.8,0-1.8,0.6-2.5,2.2v6.3h-1.6L535.5,301L535.5,301z"/>
			<path d="M541.5,305.9c0-3.2,2.1-5.1,4.4-5.1c2.5,0,3.9,1.8,3.9,4.6c0,0.4,0,0.7-0.1,0.9h-6.6c0.1,2.1,1.4,3.4,3.2,3.4
				c1,0,1.7-0.3,2.5-0.8l0.6,1.1c-0.9,0.6-1.9,1-3.2,1C543.6,311,541.5,309.1,541.5,305.9L541.5,305.9z M548.3,305.1
				c0-2-0.9-3-2.4-3c-1.4,0-2.6,1.1-2.8,3H548.3z"/>
			<path d="M552.3,307.8v-5.4h-1.5v-1.2l1.5-0.1l0.2-2.7h1.4v2.7h2.7v1.3h-2.7v5.5c0,1.2,0.4,1.9,1.5,1.9c0.3,0,0.8-0.1,1.1-0.2
				l0.3,1.2c-0.6,0.2-1.2,0.4-1.8,0.4C553,311,552.3,309.7,552.3,307.8L552.3,307.8z"/>
			<path d="M557.8,308.2c0-2.1,1.8-3.2,6-3.7c0-1.3-0.4-2.5-2-2.5c-1.1,0-2.2,0.5-2.9,1l-0.7-1.1c0.9-0.6,2.3-1.3,3.8-1.3
				c2.4,0,3.4,1.6,3.4,4v6H564l-0.1-1.2h0c-0.9,0.8-2,1.4-3.2,1.4C559,311,557.8,310,557.8,308.2L557.8,308.2z M563.8,308.4v-2.7
				c-3.3,0.4-4.4,1.2-4.4,2.5c0,1.1,0.8,1.6,1.7,1.6S562.8,309.2,563.8,308.4L563.8,308.4z"/>
			<path d="M568.5,301h1.3l0.1,1.8h0c0.7-1.2,1.7-2,2.8-2c0.4,0,0.7,0,1,0.2l-0.3,1.4c-0.3-0.1-0.6-0.2-1-0.2
				c-0.8,0-1.8,0.6-2.5,2.2v6.3h-1.6L568.5,301L568.5,301z"/>
			<path d="M575.2,297.9c0-0.7,0.5-1.1,1.1-1.1s1.1,0.4,1.1,1.1c0,0.6-0.5,1.1-1.1,1.1S575.2,298.5,575.2,297.9z M575.5,301h1.6v9.8
				h-1.6V301z"/>
			<path d="M579.8,308.2c0-2.1,1.8-3.2,6-3.7c0-1.3-0.4-2.5-2-2.5c-1.1,0-2.2,0.5-2.9,1l-0.7-1.1c0.9-0.6,2.3-1.3,3.8-1.3
				c2.4,0,3.4,1.6,3.4,4v6h-1.3l-0.1-1.2h0c-0.9,0.8-2,1.4-3.2,1.4C581,311,579.8,310,579.8,308.2L579.8,308.2z M585.8,308.4v-2.7
				c-3.3,0.4-4.4,1.2-4.4,2.5c0,1.1,0.8,1.6,1.7,1.6S584.9,309.2,585.8,308.4L585.8,308.4z"/>
			<path d="M590.6,307.8v-5.4h-1.5v-1.2l1.5-0.1l0.2-2.7h1.4v2.7h2.7v1.3h-2.7v5.5c0,1.2,0.4,1.9,1.5,1.9c0.3,0,0.8-0.1,1.1-0.2
				l0.3,1.2c-0.6,0.2-1.2,0.4-1.8,0.4C591.3,311,590.6,309.7,590.6,307.8L590.6,307.8z"/>
			<path class="st2" d="M484.9,327.9l10.6,6.8v0.1l-10.6,6.8h0L484.9,327.9L484.9,327.9L484.9,327.9z"/>
			<path d="M505.7,327.6h3.8c3,0,4.9,1,4.9,3.9s-2,4.1-4.9,4.1h-2.2v5.2h-1.7V327.6L505.7,327.6z M509.4,334.2
				c2.3,0,3.4-0.9,3.4-2.7s-1.2-2.5-3.5-2.5h-1.9v5.3L509.4,334.2L509.4,334.2z"/>
			<path d="M515.7,335.9c0-3.2,2.1-5.1,4.4-5.1c2.5,0,3.9,1.8,3.9,4.6c0,0.4,0,0.7-0.1,0.9h-6.6c0.1,2.1,1.4,3.4,3.2,3.4
				c1,0,1.7-0.3,2.5-0.8l0.6,1.1c-0.9,0.6-1.9,1-3.2,1C517.8,341,515.7,339.1,515.7,335.9L515.7,335.9z M522.6,335.1
				c0-2-0.9-3-2.4-3c-1.4,0-2.6,1.1-2.8,3H522.6z"/>
			<path d="M526.4,331h1.3l0.1,1.8h0c0.7-1.2,1.7-2,2.8-2c0.4,0,0.7,0,1,0.2l-0.3,1.4c-0.3-0.1-0.6-0.2-1-0.2
				c-0.8,0-1.8,0.6-2.5,2.2v6.3h-1.6L526.4,331L526.4,331z"/>
			<path d="M532.2,339.7l0.8-1.1c0.8,0.7,1.7,1.1,2.9,1.1c1.3,0,1.9-0.7,1.9-1.5c0-1-1.2-1.4-2.2-1.9c-1.4-0.5-2.9-1.2-2.9-2.8
				c0-1.5,1.2-2.8,3.4-2.8c1.2,0,2.3,0.5,3,1.1l-0.8,1.1c-0.7-0.5-1.4-0.9-2.2-0.9c-1.2,0-1.8,0.6-1.8,1.4c0,0.9,1.1,1.3,2.2,1.7
				c1.4,0.5,3,1.1,3,3c0,1.6-1.3,2.9-3.6,2.9C534.5,341,533.2,340.4,532.2,339.7L532.2,339.7z"/>
			<path d="M541,335.9c0-3.3,2.1-5.1,4.5-5.1s4.5,1.9,4.5,5.1s-2.1,5.1-4.5,5.1S541,339.1,541,335.9z M548.4,335.9
				c0-2.2-1.2-3.8-2.8-3.8s-2.8,1.5-2.8,3.8s1.1,3.8,2.8,3.8S548.4,338.2,548.4,335.9z"/>
			<path d="M552.7,331h1.3l0.1,1.4h0c0.9-0.9,1.9-1.7,3.3-1.7c2,0,3,1.3,3,3.8v6.2h-1.6v-6c0-1.8-0.6-2.6-1.8-2.6
				c-1,0-1.7,0.5-2.7,1.5v7.1h-1.6V331L552.7,331z"/>
			<path d="M563.7,331h1.3l0.1,1.4h0c0.9-0.9,1.9-1.7,3.3-1.7c2,0,3,1.3,3,3.8v6.2h-1.6v-6c0-1.8-0.6-2.6-1.8-2.6
				c-1,0-1.7,0.5-2.7,1.5v7.1h-1.6V331L563.7,331z"/>
			<path d="M573.9,335.9c0-3.2,2.1-5.1,4.4-5.1c2.5,0,3.9,1.8,3.9,4.6c0,0.4,0,0.7-0.1,0.9h-6.6c0.1,2.1,1.4,3.4,3.2,3.4
				c1,0,1.7-0.3,2.5-0.8l0.6,1.1c-0.9,0.6-1.9,1-3.2,1C576,341,573.9,339.1,573.9,335.9L573.9,335.9z M580.8,335.1c0-2-0.9-3-2.4-3
				c-1.4,0-2.6,1.1-2.8,3H580.8z"/>
			<path d="M584.6,338.8v-12.4h1.6v12.5c0,0.5,0.2,0.7,0.5,0.7c0.1,0,0.2,0,0.3,0l0.2,1.3c-0.2,0.1-0.5,0.1-1,0.1
				C585.2,341,584.6,340.2,584.6,338.8L584.6,338.8z"/>
			<path d="M593.2,334.1c0-4.2,2.3-6.8,5.6-6.8s5.6,2.6,5.6,6.8s-2.3,6.9-5.6,6.9S593.2,338.4,593.2,334.1z M602.8,334.1
				c0-3.3-1.6-5.4-3.9-5.4s-3.9,2-3.9,5.4s1.5,5.4,3.9,5.4S602.8,337.4,602.8,334.1z"/>
			<path d="M613.2,329.4c0-2,0.9-3.2,2.9-3.2c0.6,0,1.2,0.1,1.6,0.3l-0.4,1.2c-0.4-0.2-0.8-0.2-1.1-0.2c-0.9,0-1.4,0.7-1.4,1.9v1.5
				h2.1v1.3h-2.1v8.4h-1.6v-8.4H609v8.4h-1.6v-8.4h-1.3v-1.2l1.3-0.1v-1.3c0-2,1-3.3,3-3.3c0.7,0,1.3,0.1,1.8,0.3l-0.3,1.3
				c-0.4-0.2-0.8-0.3-1.3-0.3c-1,0-1.5,0.7-1.5,2v1.3h4.1L613.2,329.4L613.2,329.4z M620.7,327.9c0,0.6-0.5,1.1-1.2,1.1
				s-1.1-0.5-1.1-1.1c0-0.7,0.5-1.1,1.1-1.1S620.7,327.3,620.7,327.9z M618.8,331h1.6v9.8h-1.6V331z"/>
			<path d="M622.9,335.9c0-3.3,2.2-5.1,4.7-5.1c1.3,0,2.2,0.5,2.9,1.1l-0.8,1.1c-0.6-0.5-1.2-0.9-2-0.9c-1.8,0-3.1,1.5-3.1,3.8
				s1.2,3.8,3,3.8c0.9,0,1.7-0.4,2.3-1l0.7,1.1c-0.9,0.8-2,1.2-3.2,1.2C624.9,341,622.9,339.1,622.9,335.9L622.9,335.9z"/>
			<path d="M631.7,335.9c0-3.2,2.1-5.1,4.4-5.1c2.5,0,3.9,1.8,3.9,4.6c0,0.4,0,0.7-0.1,0.9h-6.6c0.1,2.1,1.4,3.4,3.2,3.4
				c1,0,1.7-0.3,2.5-0.8l0.6,1.1c-0.9,0.6-1.9,1-3.2,1C633.8,341,631.7,339.1,631.7,335.9L631.7,335.9z M638.5,335.1
				c0-2-0.9-3-2.4-3c-1.4,0-2.6,1.1-2.8,3H638.5z"/>
			<path class="st2" d="M484.9,357.9l10.6,6.8v0.1l-10.6,6.8h0L484.9,357.9L484.9,357.9L484.9,357.9z"/>
			<path d="M511.8,366.8h-4.8l-1.3,4H504l4.5-13.2h1.9l4.5,13.2H513L511.8,366.8L511.8,366.8z M511.4,365.4l-0.6-2
				c-0.5-1.5-0.9-2.9-1.3-4.5h-0.1c-0.4,1.5-0.9,3-1.3,4.5l-0.6,2H511.4L511.4,365.4z"/>
			<path d="M515.8,365.9c0-3.3,2.2-5.1,4.7-5.1c1.3,0,2.2,0.5,2.9,1.1l-0.8,1.1c-0.6-0.5-1.2-0.9-2-0.9c-1.8,0-3.1,1.5-3.1,3.8
				s1.2,3.8,3,3.8c0.9,0,1.7-0.4,2.3-1l0.7,1.1c-0.9,0.8-2,1.2-3.2,1.2C517.7,371,515.7,369.1,515.8,365.9L515.8,365.9z"/>
			<path d="M524.5,365.9c0-3.3,2.2-5.1,4.7-5.1c1.3,0,2.2,0.5,2.9,1.1l-0.8,1.1c-0.6-0.5-1.2-0.9-2-0.9c-1.8,0-3.1,1.5-3.1,3.8
				s1.2,3.8,3,3.8c0.9,0,1.7-0.4,2.3-1l0.7,1.1c-0.9,0.8-2,1.2-3.2,1.2C526.5,371,524.5,369.1,524.5,365.9L524.5,365.9z"/>
			<path d="M533.2,365.9c0-3.3,2.1-5.1,4.5-5.1s4.5,1.9,4.5,5.1s-2.1,5.1-4.5,5.1S533.2,369.1,533.2,365.9z M540.6,365.9
				c0-2.2-1.2-3.8-2.8-3.8s-2.8,1.5-2.8,3.8s1.1,3.8,2.8,3.8S540.6,368.2,540.6,365.9z"/>
			<path d="M544.7,367.2V361h1.6v6c0,1.8,0.5,2.6,1.8,2.6c1,0,1.7-0.5,2.7-1.7V361h1.6v9.8h-1.4l-0.1-1.5h0
				c-0.9,1.1-1.9,1.8-3.2,1.8C545.7,371,544.8,369.7,544.7,367.2L544.7,367.2z"/>
			<path d="M555.8,361h1.3l0.1,1.4h0c0.9-0.9,1.9-1.7,3.3-1.7c2,0,3,1.3,3,3.8v6.2H562v-6c0-1.8-0.6-2.6-1.8-2.6
				c-1,0-1.7,0.5-2.7,1.5v7.1h-1.6V361L555.8,361z"/>
			<path d="M567.1,367.8v-5.4h-1.5v-1.2l1.5-0.1l0.2-2.7h1.4v2.7h2.7v1.3h-2.7v5.5c0,1.2,0.4,1.9,1.5,1.9c0.3,0,0.8-0.1,1.1-0.2
				l0.3,1.2c-0.6,0.2-1.2,0.4-1.8,0.4C567.8,371,567.1,369.7,567.1,367.8L567.1,367.8z"/>
			<path d="M573.3,357.9c0-0.7,0.5-1.1,1.1-1.1s1.1,0.4,1.1,1.1c0,0.6-0.5,1.1-1.1,1.1S573.3,358.5,573.3,357.9z M573.6,361h1.6v9.8
				h-1.6V361z"/>
			<path d="M578.5,361h1.3l0.1,1.4h0c0.9-0.9,1.9-1.7,3.3-1.7c2,0,3,1.3,3,3.8v6.2h-1.6v-6c0-1.8-0.6-2.6-1.8-2.6
				c-1,0-1.7,0.5-2.7,1.5v7.1h-1.6V361L578.5,361z"/>
			<path d="M588.8,372.6c0-0.8,0.5-1.6,1.5-2.2v-0.1c-0.5-0.3-0.9-0.8-0.9-1.6s0.6-1.5,1.1-1.8v-0.1c-0.7-0.5-1.3-1.5-1.3-2.6
				c0-2.1,1.7-3.5,3.7-3.5c0.5,0,1,0.1,1.4,0.2h3.4v1.3h-2c0.5,0.5,0.8,1.2,0.8,2c0,2.1-1.6,3.4-3.6,3.4c-0.5,0-1-0.1-1.5-0.3
				c-0.4,0.3-0.6,0.6-0.6,1.2c0,0.6,0.4,1.1,1.7,1.1h1.9c2.3,0,3.4,0.7,3.4,2.3c0,1.8-1.9,3.4-4.9,3.4
				C590.4,375.3,588.7,374.4,588.8,372.6L588.8,372.6z M596.2,372.1c0-0.9-0.7-1.2-2-1.2h-1.7c-0.4,0-0.8,0-1.3-0.2
				c-0.7,0.5-1,1.1-1,1.7c0,1,1.1,1.7,2.8,1.7C594.9,374.2,596.2,373.2,596.2,372.1L596.2,372.1z M594.9,364.2
				c0-1.4-0.9-2.3-2.1-2.3s-2.1,0.9-2.1,2.3s1,2.3,2.1,2.3S594.9,365.7,594.9,364.2z"/>
			<path d="M603.1,368.2c0-2.1,1.8-3.2,6-3.7c0-1.3-0.4-2.5-2-2.5c-1.1,0-2.2,0.5-2.9,1l-0.7-1.1c0.9-0.6,2.3-1.3,3.8-1.3
				c2.4,0,3.4,1.6,3.4,4v6h-1.3l-0.1-1.2h0c-0.9,0.8-2,1.4-3.2,1.4C604.3,371,603.1,370,603.1,368.2L603.1,368.2z M609.1,368.4v-2.7
				c-3.3,0.4-4.4,1.2-4.4,2.5c0,1.1,0.8,1.6,1.7,1.6S608.1,369.2,609.1,368.4L609.1,368.4z"/>
			<path d="M613.8,361h1.3l0.1,1.4h0c0.9-0.9,1.9-1.7,3.3-1.7c2,0,3,1.3,3,3.8v6.2H620v-6c0-1.8-0.6-2.6-1.8-2.6
				c-1,0-1.7,0.5-2.7,1.5v7.1h-1.6V361L613.8,361z"/>
			<path d="M624.1,365.9c0-3.2,2-5.1,4.2-5.1c1.2,0,1.9,0.4,2.8,1.1l-0.1-1.7v-3.8h1.6v14.3h-1.3l-0.2-1.1h0c-0.8,0.8-1.8,1.4-3,1.4
				C625.7,371,624.1,369.2,624.1,365.9L624.1,365.9z M631,368.3v-5.1c-0.8-0.7-1.6-1-2.4-1c-1.6,0-2.8,1.5-2.8,3.8
				c0,2.4,1,3.8,2.7,3.8C629.4,369.6,630.2,369.2,631,368.3L631,368.3z"/>
			<path d="M639.2,369l1-1.1c1,1,2.3,1.6,3.7,1.6c1.7,0,2.8-0.9,2.8-2.2s-1-1.8-2.2-2.3l-1.9-0.8c-1.2-0.5-2.7-1.5-2.7-3.4
				c0-2,1.8-3.5,4.2-3.5c1.6,0,3,0.7,3.9,1.6L647,360c-0.8-0.8-1.8-1.2-3-1.2c-1.5,0-2.5,0.8-2.5,1.9c0,1.3,1.2,1.8,2.2,2.2l1.9,0.8
				c1.5,0.7,2.7,1.6,2.7,3.5c0,2.1-1.7,3.8-4.5,3.8C642,371,640.4,370.3,639.2,369L639.2,369z"/>
			<path d="M650.6,367.8v-5.4h-1.5v-1.2l1.5-0.1l0.2-2.7h1.4v2.7h2.7v1.3h-2.7v5.5c0,1.2,0.4,1.9,1.5,1.9c0.3,0,0.8-0.1,1.1-0.2
				l0.3,1.2c-0.6,0.2-1.2,0.4-1.8,0.4C651.3,371,650.6,369.7,650.6,367.8L650.6,367.8z"/>
			<path d="M656,368.2c0-2.1,1.8-3.2,6-3.7c0-1.3-0.4-2.5-2-2.5c-1.1,0-2.2,0.5-2.9,1l-0.7-1.1c0.9-0.6,2.3-1.3,3.8-1.3
				c2.4,0,3.4,1.6,3.4,4v6h-1.3l-0.1-1.2h0c-0.9,0.8-2,1.4-3.2,1.4C657.2,371,656,370,656,368.2L656,368.2z M662,368.4v-2.7
				c-3.3,0.4-4.4,1.2-4.4,2.5c0,1.1,0.8,1.6,1.7,1.6S661.1,369.2,662,368.4L662,368.4z"/>
			<path d="M666.8,367.8v-5.4h-1.5v-1.2l1.5-0.1l0.2-2.7h1.4v2.7h2.7v1.3h-2.7v5.5c0,1.2,0.4,1.9,1.5,1.9c0.3,0,0.8-0.1,1.1-0.2
				l0.3,1.2c-0.6,0.2-1.2,0.4-1.8,0.4C667.5,371,666.8,369.7,666.8,367.8L666.8,367.8z"/>
			<path d="M673,357.9c0-0.7,0.5-1.1,1.1-1.1s1.1,0.4,1.1,1.1c0,0.6-0.5,1.1-1.1,1.1S673,358.5,673,357.9z M673.3,361h1.6v9.8h-1.6
				V361z"/>
			<path d="M677.2,369.7l0.8-1.1c0.8,0.7,1.7,1.1,2.9,1.1c1.3,0,1.9-0.7,1.9-1.5c0-1-1.2-1.4-2.2-1.9c-1.4-0.5-2.9-1.2-2.9-2.8
				c0-1.5,1.2-2.8,3.4-2.8c1.2,0,2.3,0.5,3,1.1l-0.8,1.1c-0.7-0.5-1.4-0.9-2.2-0.9c-1.2,0-1.8,0.6-1.8,1.4c0,0.9,1.1,1.3,2.2,1.7
				c1.4,0.5,3,1.1,3,3c0,1.6-1.3,2.9-3.6,2.9C679.4,371,678.1,370.4,677.2,369.7L677.2,369.7z"/>
			<path d="M686.6,367.8v-5.4h-1.5v-1.2l1.5-0.1l0.2-2.7h1.4v2.7h2.7v1.3h-2.7v5.5c0,1.2,0.4,1.9,1.5,1.9c0.3,0,0.8-0.1,1.1-0.2
				l0.3,1.2c-0.6,0.2-1.2,0.4-1.8,0.4C687.3,371,686.6,369.7,686.6,367.8L686.6,367.8z"/>
			<path d="M692.8,357.9c0-0.7,0.5-1.1,1.1-1.1s1.1,0.4,1.1,1.1c0,0.6-0.5,1.1-1.1,1.1S692.8,358.5,692.8,357.9z M693.1,361h1.6v9.8
				h-1.6V361z"/>
			<path d="M697.3,365.9c0-3.3,2.2-5.1,4.7-5.1c1.3,0,2.2,0.5,2.9,1.1L704,363c-0.6-0.5-1.2-0.9-2-0.9c-1.8,0-3.1,1.5-3.1,3.8
				s1.2,3.8,3,3.8c0.9,0,1.7-0.4,2.3-1l0.7,1.1c-0.9,0.8-2,1.2-3.2,1.2C699.3,371,697.3,369.1,697.3,365.9L697.3,365.9z"/>
			<path d="M706.1,369.7l0.8-1.1c0.8,0.7,1.7,1.1,2.9,1.1c1.3,0,1.9-0.7,1.9-1.5c0-1-1.2-1.4-2.2-1.9c-1.4-0.5-2.9-1.2-2.9-2.8
				c0-1.5,1.2-2.8,3.4-2.8c1.2,0,2.3,0.5,3,1.1l-0.8,1.1c-0.7-0.5-1.4-0.9-2.2-0.9c-1.2,0-1.8,0.6-1.8,1.4c0,0.9,1.1,1.3,2.2,1.7
				c1.4,0.5,3,1.1,3,3c0,1.6-1.3,2.9-3.6,2.9C708.4,371,707,370.4,706.1,369.7L706.1,369.7z"/>
			<path d="M719,364.1c0-4.2,2.3-6.8,5.6-6.8s5.6,2.6,5.6,6.8s-2.3,6.9-5.6,6.9S719,368.4,719,364.1z M728.6,364.1
				c0-3.3-1.6-5.4-3.9-5.4s-3.9,2-3.9,5.4s1.5,5.4,3.9,5.4S728.6,367.4,728.6,364.1z"/>
			<path d="M739,359.4c0-2,0.9-3.2,2.9-3.2c0.6,0,1.2,0.1,1.6,0.3l-0.4,1.2c-0.4-0.2-0.8-0.2-1.1-0.2c-0.9,0-1.4,0.7-1.4,1.9v1.5
				h2.1v1.3h-2.1v8.4H739v-8.4h-4.1v8.4h-1.6v-8.4h-1.3v-1.2l1.3-0.1v-1.3c0-2,1-3.3,3-3.3c0.7,0,1.3,0.1,1.8,0.3l-0.3,1.3
				c-0.4-0.2-0.8-0.3-1.3-0.3c-1,0-1.5,0.7-1.5,2v1.3h4.1L739,359.4L739,359.4z M746.5,357.9c0,0.6-0.5,1.1-1.2,1.1
				s-1.1-0.5-1.1-1.1c0-0.7,0.5-1.1,1.1-1.1S746.5,357.3,746.5,357.9z M744.6,361h1.6v9.8h-1.6V361z"/>
			<path d="M748.8,365.9c0-3.3,2.2-5.1,4.7-5.1c1.3,0,2.2,0.5,2.9,1.1l-0.8,1.1c-0.6-0.5-1.2-0.9-2-0.9c-1.8,0-3.1,1.5-3.1,3.8
				s1.2,3.8,3,3.8c0.9,0,1.7-0.4,2.3-1l0.7,1.1c-0.9,0.8-2,1.2-3.2,1.2C750.8,371,748.8,369.1,748.8,365.9L748.8,365.9z"/>
			<path d="M757.5,365.9c0-3.2,2.1-5.1,4.4-5.1c2.5,0,3.9,1.8,3.9,4.6c0,0.4,0,0.7-0.1,0.9h-6.6c0.1,2.1,1.4,3.4,3.2,3.4
				c1,0,1.7-0.3,2.5-0.8l0.6,1.1c-0.9,0.6-1.9,1-3.2,1C759.6,371,757.5,369.1,757.5,365.9L757.5,365.9z M764.4,365.1
				c0-2-0.9-3-2.4-3c-1.4,0-2.6,1.1-2.8,3H764.4z"/>
			<path class="st2" d="M484.9,387.9l10.6,6.8v0.1l-10.6,6.8h0L484.9,387.9L484.9,387.9L484.9,387.9z"/>
			<path d="M505,394.2c0-4.3,2.5-6.9,5.9-6.9c1.6,0,2.9,0.8,3.6,1.6l-0.9,1.1c-0.7-0.7-1.6-1.3-2.7-1.3c-2.5,0-4.2,2-4.2,5.4
				s1.6,5.4,4.1,5.4c1.3,0,2.2-0.6,3.1-1.5l0.9,1c-1,1.2-2.3,1.9-4,1.9C507.4,401,505,398.5,505,394.2L505,394.2z"/>
			<path d="M516.7,387.9c0-0.7,0.5-1.1,1.1-1.1s1.1,0.4,1.1,1.1c0,0.6-0.5,1.1-1.1,1.1S516.7,388.5,516.7,387.9z M517,391h1.6v9.8
				H517V391z"/>
			<path d="M520.6,391h1.7l1.8,5.6c0.3,1,0.6,2,0.9,2.9h0.1c0.3-0.9,0.6-1.9,0.9-2.9l1.8-5.6h1.6l-3.5,9.8h-1.9L520.6,391L520.6,391
				z"/>
			<path d="M531.1,387.9c0-0.7,0.5-1.1,1.1-1.1s1.1,0.4,1.1,1.1c0,0.6-0.5,1.1-1.1,1.1S531.1,388.5,531.1,387.9z M531.4,391h1.6v9.8
				h-1.6V391z"/>
			<path d="M536.3,398.8v-12.4h1.6v12.5c0,0.5,0.2,0.7,0.5,0.7c0.1,0,0.2,0,0.3,0l0.2,1.3c-0.2,0.1-0.5,0.1-1,0.1
				C536.8,401,536.3,400.2,536.3,398.8L536.3,398.8z"/>
			<path d="M544.7,399l1-1.1c1,1,2.3,1.6,3.7,1.6c1.7,0,2.8-0.9,2.8-2.2s-1-1.8-2.2-2.3l-1.9-0.8c-1.2-0.5-2.7-1.5-2.7-3.4
				c0-2,1.8-3.5,4.2-3.5c1.6,0,3,0.7,3.9,1.6l-0.9,1.1c-0.8-0.8-1.8-1.2-3-1.2c-1.5,0-2.5,0.8-2.5,1.9c0,1.3,1.2,1.8,2.2,2.2
				l1.9,0.8c1.5,0.7,2.7,1.6,2.7,3.5c0,2.1-1.7,3.8-4.5,3.8C547.4,401,545.8,400.3,544.7,399L544.7,399z"/>
			<path d="M555.5,395.9c0-3.2,2.1-5.1,4.4-5.1c2.5,0,3.9,1.8,3.9,4.6c0,0.4,0,0.7-0.1,0.9h-6.6c0.1,2.1,1.4,3.4,3.2,3.4
				c1,0,1.7-0.3,2.5-0.8l0.6,1.1c-0.9,0.6-1.9,1-3.2,1C557.6,401,555.5,399.1,555.5,395.9L555.5,395.9z M562.4,395.1
				c0-2-0.9-3-2.4-3c-1.4,0-2.6,1.1-2.8,3H562.4z"/>
			<path d="M566.2,391h1.3l0.1,1.8h0c0.7-1.2,1.7-2,2.8-2c0.4,0,0.7,0,1,0.2l-0.3,1.4c-0.3-0.1-0.6-0.2-1-0.2
				c-0.8,0-1.8,0.6-2.5,2.2v6.3h-1.6L566.2,391L566.2,391z"/>
			<path d="M572.3,391h1.7l1.8,5.6c0.3,1,0.6,2,0.9,2.9h0.1c0.3-0.9,0.6-1.9,0.9-2.9l1.8-5.6h1.6l-3.5,9.8h-1.9L572.3,391L572.3,391
				z"/>
			<path d="M582.8,387.9c0-0.7,0.5-1.1,1.1-1.1s1.1,0.4,1.1,1.1c0,0.6-0.5,1.1-1.1,1.1S582.8,388.5,582.8,387.9z M583.1,391h1.6v9.8
				h-1.6V391z"/>
			<path d="M587.3,395.9c0-3.3,2.2-5.1,4.7-5.1c1.3,0,2.2,0.5,2.9,1.1L594,393c-0.6-0.5-1.2-0.9-2-0.9c-1.8,0-3.1,1.5-3.1,3.8
				s1.2,3.8,3,3.8c0.9,0,1.7-0.4,2.3-1l0.7,1.1c-0.9,0.8-2,1.2-3.2,1.2C589.3,401,587.3,399.1,587.3,395.9L587.3,395.9z"/>
			<path d="M596,395.9c0-3.2,2.1-5.1,4.4-5.1c2.5,0,3.9,1.8,3.9,4.6c0,0.4,0,0.7-0.1,0.9h-6.6c0.1,2.1,1.4,3.4,3.2,3.4
				c1,0,1.7-0.3,2.5-0.8l0.6,1.1c-0.9,0.6-1.9,1-3.2,1C598.1,401,596,399.1,596,395.9L596,395.9z M602.9,395.1c0-2-0.9-3-2.4-3
				c-1.4,0-2.6,1.1-2.8,3H602.9z"/>
			<path d="M610.9,387.6h7.6v1.4h-5.9v4.1h5v1.4h-5v4.8h6.1v1.4h-7.8L610.9,387.6L610.9,387.6z"/>
			<path d="M621.2,397.8v-5.4h-1.5v-1.2l1.5-0.1l0.2-2.7h1.4v2.7h2.7v1.3h-2.7v5.5c0,1.2,0.4,1.9,1.5,1.9c0.3,0,0.8-0.1,1.1-0.2
				l0.3,1.2c-0.6,0.2-1.2,0.4-1.8,0.4C621.9,401,621.2,399.7,621.2,397.8L621.2,397.8z"/>
			<path d="M627.7,386.5h1.6v3.9l0,2c0.9-0.9,1.9-1.6,3.2-1.6c2,0,3,1.3,3,3.8v6.2h-1.6v-6c0-1.8-0.6-2.6-1.8-2.6
				c-1,0-1.7,0.5-2.7,1.5v7.1h-1.6L627.7,386.5L627.7,386.5z"/>
			<path d="M638.3,387.9c0-0.7,0.5-1.1,1.1-1.1s1.1,0.4,1.1,1.1c0,0.6-0.5,1.1-1.1,1.1S638.3,388.5,638.3,387.9z M638.6,391h1.6v9.8
				h-1.6V391z"/>
			<path d="M642.8,395.9c0-3.3,2.2-5.1,4.7-5.1c1.3,0,2.2,0.5,2.9,1.1l-0.8,1.1c-0.6-0.5-1.2-0.9-2-0.9c-1.8,0-3.1,1.5-3.1,3.8
				s1.2,3.8,3,3.8c0.9,0,1.7-0.4,2.3-1l0.7,1.1c-0.9,0.8-2,1.2-3.2,1.2C644.8,401,642.8,399.1,642.8,395.9L642.8,395.9z"/>
			<path d="M651.6,399.7l0.8-1.1c0.8,0.7,1.7,1.1,2.9,1.1c1.3,0,1.9-0.7,1.9-1.5c0-1-1.2-1.4-2.2-1.9c-1.4-0.5-2.9-1.2-2.9-2.8
				c0-1.5,1.2-2.8,3.4-2.8c1.2,0,2.3,0.5,3,1.1l-0.8,1.1c-0.7-0.5-1.4-0.9-2.2-0.9c-1.2,0-1.8,0.6-1.8,1.4c0,0.9,1.1,1.3,2.2,1.7
				c1.4,0.5,3,1.1,3,3c0,1.6-1.3,2.9-3.6,2.9C653.9,401,652.5,400.4,651.6,399.7L651.6,399.7z"/>
			<path d="M664.5,394.1c0-4.2,2.3-6.8,5.6-6.8s5.6,2.6,5.6,6.8s-2.3,6.9-5.6,6.9S664.5,398.4,664.5,394.1z M674.1,394.1
				c0-3.3-1.6-5.4-3.9-5.4s-3.9,2-3.9,5.4s1.5,5.4,3.9,5.4S674.1,397.4,674.1,394.1z"/>
			<path d="M684.5,389.4c0-2,0.9-3.2,2.9-3.2c0.6,0,1.2,0.1,1.6,0.3l-0.4,1.2c-0.4-0.2-0.8-0.2-1.1-0.2c-0.9,0-1.4,0.7-1.4,1.9v1.5
				h2.1v1.3h-2.1v8.4h-1.6v-8.4h-4.1v8.4h-1.6v-8.4h-1.3v-1.2l1.3-0.1v-1.3c0-2,1-3.3,3-3.3c0.7,0,1.3,0.1,1.8,0.3l-0.3,1.3
				c-0.4-0.2-0.8-0.3-1.3-0.3c-1,0-1.5,0.7-1.5,2v1.3h4.1L684.5,389.4L684.5,389.4z M692.1,387.9c0,0.6-0.5,1.1-1.2,1.1
				s-1.1-0.5-1.1-1.1c0-0.7,0.5-1.1,1.1-1.1S692.1,387.3,692.1,387.9z M690.1,391h1.6v9.8h-1.6V391z"/>
			<path d="M694.3,395.9c0-3.3,2.2-5.1,4.7-5.1c1.3,0,2.2,0.5,2.9,1.1L701,393c-0.6-0.5-1.2-0.9-2-0.9c-1.8,0-3.1,1.5-3.1,3.8
				s1.2,3.8,3,3.8c0.9,0,1.7-0.4,2.3-1l0.7,1.1c-0.9,0.8-2,1.2-3.2,1.2C696.3,401,694.3,399.1,694.3,395.9L694.3,395.9z"/>
			<path d="M703,395.9c0-3.2,2.1-5.1,4.4-5.1c2.5,0,3.9,1.8,3.9,4.6c0,0.4,0,0.7-0.1,0.9h-6.6c0.1,2.1,1.4,3.4,3.2,3.4
				c1,0,1.7-0.3,2.5-0.8l0.6,1.1c-0.9,0.6-1.9,1-3.2,1C705.1,401,703,399.1,703,395.9L703,395.9z M709.9,395.1c0-2-0.9-3-2.4-3
				c-1.4,0-2.6,1.1-2.8,3H709.9z"/>
		</g>
		<g>
			<path class="st1" d="M835.9,260v21.7c0,2.8-2.2,5-5,5h-360c-2.8,0-5-2.2-5-5V260c0-2.8,2.2-5,5-5h360
				C833.7,255,835.9,257.2,835.9,260z"/>
			<g>
				<path class="st0" d="M580.3,275.2l1-1.1c1,1,2.3,1.6,3.7,1.6c1.7,0,2.8-0.9,2.8-2.2s-1-1.8-2.2-2.3l-1.9-0.8
					c-1.2-0.5-2.7-1.5-2.7-3.4c0-2,1.8-3.5,4.2-3.5c1.6,0,3,0.7,3.9,1.6l-0.9,1.1c-0.8-0.8-1.8-1.2-3-1.2c-1.5,0-2.5,0.8-2.5,1.9
					c0,1.3,1.2,1.8,2.2,2.2l1.9,0.8c1.5,0.7,2.7,1.6,2.7,3.5c0,2.1-1.7,3.8-4.5,3.8C583.1,277.2,581.5,276.4,580.3,275.2
					L580.3,275.2z"/>
				<path class="st0" d="M591.8,273.3v-6.2h1.6v6c0,1.8,0.5,2.6,1.8,2.6c1,0,1.7-0.5,2.7-1.7v-6.9h1.6v9.8h-1.4l-0.1-1.5h0
					c-0.9,1.1-1.9,1.8-3.2,1.8C592.7,277.1,591.8,275.8,591.8,273.3L591.8,273.3z"/>
				<path class="st0" d="M602.8,267.1h1.3l0.1,1.1h0c0.9-0.7,2-1.4,3.1-1.4c2.5,0,3.9,2,3.9,5c0,3.4-2,5.3-4.2,5.3
					c-0.9,0-1.8-0.4-2.7-1.1l0,1.7v3.3h-1.6L602.8,267.1L602.8,267.1z M609.6,271.9c0-2.2-0.7-3.6-2.6-3.6c-0.8,0-1.7,0.5-2.6,1.4
					v5.1c0.9,0.8,1.8,1,2.4,1C608.5,275.8,609.6,274.3,609.6,271.9z"/>
				<path class="st0" d="M614,267.1h1.3l0.1,1.1h0c0.9-0.7,2-1.4,3.1-1.4c2.5,0,3.9,2,3.9,5c0,3.4-2,5.3-4.2,5.3
					c-0.9,0-1.8-0.4-2.7-1.1l0,1.7v3.3H614L614,267.1L614,267.1z M620.8,271.9c0-2.2-0.7-3.6-2.6-3.6c-0.8,0-1.7,0.5-2.6,1.4v5.1
					c0.9,0.8,1.8,1,2.4,1C619.6,275.8,620.8,274.3,620.8,271.9z"/>
				<path class="st0" d="M624.4,272c0-3.3,2.1-5.1,4.5-5.1s4.5,1.9,4.5,5.1s-2.1,5.1-4.5,5.1S624.4,275.3,624.4,272z M631.8,272
					c0-2.2-1.2-3.8-2.8-3.8s-2.8,1.5-2.8,3.8s1.1,3.8,2.8,3.8S631.8,274.3,631.8,272z"/>
				<path class="st0" d="M636,267.1h1.3l0.1,1.8h0c0.7-1.2,1.7-2,2.8-2c0.4,0,0.7,0,1,0.2l-0.3,1.4c-0.3-0.1-0.6-0.2-1-0.2
					c-0.8,0-1.8,0.6-2.5,2.2v6.3H636L636,267.1L636,267.1z"/>
				<path class="st0" d="M643.3,273.9v-5.4h-1.5v-1.2l1.5-0.1l0.2-2.7h1.4v2.7h2.7v1.3h-2.7v5.5c0,1.2,0.4,1.9,1.5,1.9
					c0.3,0,0.8-0.1,1.1-0.2l0.3,1.2c-0.6,0.2-1.2,0.4-1.8,0.4C644,277.1,643.3,275.8,643.3,273.9L643.3,273.9z"/>
				<path class="st0" d="M649.5,264c0-0.7,0.5-1.1,1.1-1.1s1.1,0.4,1.1,1.1c0,0.6-0.5,1.1-1.1,1.1S649.5,264.7,649.5,264z
					 M649.8,267.1h1.6v9.8h-1.6V267.1z"/>
				<path class="st0" d="M654.8,267.1h1.3l0.1,1.4h0c0.9-0.9,1.9-1.7,3.3-1.7c2,0,3,1.3,3,3.8v6.2h-1.6v-6c0-1.8-0.6-2.6-1.8-2.6
					c-1,0-1.7,0.5-2.7,1.5v7.1h-1.6V267.1L654.8,267.1z"/>
				<path class="st0" d="M665,278.8c0-0.8,0.5-1.6,1.5-2.2v-0.1c-0.5-0.3-0.9-0.8-0.9-1.6s0.6-1.5,1.1-1.8V273
					c-0.7-0.5-1.3-1.5-1.3-2.6c0-2.1,1.7-3.5,3.7-3.5c0.5,0,1,0.1,1.4,0.2h3.4v1.3h-2c0.5,0.5,0.8,1.2,0.8,2c0,2.1-1.6,3.4-3.6,3.4
					c-0.5,0-1-0.1-1.5-0.3c-0.4,0.3-0.6,0.6-0.6,1.2c0,0.6,0.4,1.1,1.7,1.1h1.9c2.3,0,3.4,0.7,3.4,2.3c0,1.8-1.9,3.4-4.9,3.4
					C666.6,281.4,665,280.5,665,278.8L665,278.8z M672.4,278.3c0-0.9-0.7-1.2-2-1.2h-1.7c-0.4,0-0.8,0-1.3-0.2c-0.7,0.5-1,1.1-1,1.7
					c0,1,1.1,1.7,2.8,1.7C671.1,280.3,672.4,279.3,672.4,278.3L672.4,278.3z M671.1,270.4c0-1.4-0.9-2.3-2.1-2.3s-2.1,0.9-2.1,2.3
					s1,2.3,2.1,2.3S671.1,271.8,671.1,270.4z"/>
				<path class="st0" d="M680,271.5v-7.7h1.7v7.8c0,3.2,1.3,4.2,3.1,4.2s3.2-1,3.2-4.2v-7.8h1.6v7.7c0,4.2-2,5.7-4.8,5.7
					S680,275.7,680,271.5L680,271.5z"/>
				<path class="st0" d="M692.9,267.1h1.3l0.1,1.4h0c0.9-0.9,1.9-1.7,3.3-1.7c2,0,3,1.3,3,3.8v6.2h-1.6v-6c0-1.8-0.6-2.6-1.8-2.6
					c-1,0-1.7,0.5-2.7,1.5v7.1h-1.6V267.1L692.9,267.1z"/>
				<path class="st0" d="M703.6,264c0-0.7,0.5-1.1,1.1-1.1s1.1,0.4,1.1,1.1c0,0.6-0.5,1.1-1.1,1.1S703.6,264.7,703.6,264z
					 M703.9,267.1h1.6v9.8h-1.6V267.1z"/>
				<path class="st0" d="M709.1,273.9v-5.4h-1.5v-1.2l1.5-0.1l0.2-2.7h1.4v2.7h2.7v1.3h-2.7v5.5c0,1.2,0.4,1.9,1.5,1.9
					c0.3,0,0.8-0.1,1.1-0.2l0.3,1.2c-0.6,0.2-1.2,0.4-1.8,0.4C709.8,277.1,709.1,275.8,709.1,273.9L709.1,273.9z"/>
				<path class="st0" d="M714.3,275.8l0.8-1.1c0.8,0.7,1.7,1.1,2.9,1.1c1.3,0,1.9-0.7,1.9-1.5c0-1-1.2-1.4-2.2-1.9
					c-1.4-0.5-2.9-1.2-2.9-2.8c0-1.5,1.2-2.8,3.4-2.8c1.2,0,2.3,0.5,3,1.1l-0.8,1.1c-0.7-0.5-1.4-0.9-2.2-0.9
					c-1.2,0-1.8,0.6-1.8,1.4c0,0.9,1.1,1.3,2.2,1.7c1.4,0.5,3,1.1,3,3c0,1.6-1.3,2.9-3.6,2.9C716.6,277.1,715.3,276.6,714.3,275.8
					L714.3,275.8z"/>
			</g>
		</g>
	</g>
	<path class="st3" d="M209.9,252.2v-23.1c0.1-3.9,3.8-6.9,8.3-6.9h423.8c4.6,0,8.3,3.2,8.3,7.1v22.9"/>
</g>
<g>
	<line class="st3" x1="427.7" y1="42.1" x2="427.9" y2="222.4"/>
	<path class="st3" d="M247.2,112.5V90.8c0.1-4.3,4.3-7.8,9.3-7.8h346.9c5.2,0,9.3,3.6,9.3,8v21.4"/>
	<path class="st4" d="M503.2,197.5H356.8c-2.8,0-5-2.2-5-5v-22c0-2.8,2.2-5,5-5h146.4c2.8,0,5,2.2,5,5v22
		C508.2,195.3,506,197.5,503.2,197.5z"/>
	<g>
		<path class="st0" d="M367.1,181.8c0-4.3,2.5-6.9,5.9-6.9c1.6,0,2.9,0.8,3.6,1.6l-0.9,1.1c-0.7-0.7-1.6-1.3-2.7-1.3
			c-2.5,0-4.2,2.1-4.2,5.4s1.6,5.4,4.1,5.4c1.3,0,2.2-0.6,3.1-1.5l0.9,1c-1,1.2-2.3,1.9-4,1.9C369.6,188.6,367.1,186,367.1,181.8
			L367.1,181.8z"/>
		<path class="st0" d="M379.2,174h1.6v3.9l0,2c0.9-0.9,1.9-1.6,3.2-1.6c2,0,3,1.3,3,3.8v6.2h-1.6v-6c0-1.8-0.6-2.6-1.9-2.6
			c-1,0-1.7,0.5-2.7,1.5v7.1h-1.6L379.2,174L379.2,174z"/>
		<path class="st0" d="M389.8,175.5c0-0.7,0.5-1.1,1.1-1.1s1.1,0.4,1.1,1.1c0,0.6-0.5,1.1-1.1,1.1S389.8,176.1,389.8,175.5z
			 M390.1,178.6h1.6v9.8h-1.6V178.6z"/>
		<path class="st0" d="M394.4,183.5c0-3.2,2.1-5.1,4.4-5.1c2.5,0,3.9,1.8,3.9,4.6c0,0.4,0,0.7-0.1,0.9H396c0.1,2.1,1.4,3.4,3.2,3.4
			c1,0,1.7-0.3,2.5-0.8l0.6,1.1c-0.9,0.6-1.9,1-3.2,1C396.4,188.6,394.4,186.7,394.4,183.5L394.4,183.5z M401.2,182.7
			c0-2-0.9-3-2.4-3c-1.4,0-2.6,1.1-2.8,3H401.2z"/>
		<path class="st0" d="M409.5,175.3c-0.4-0.2-0.8-0.2-1.1-0.2c-0.9,0-1.4,0.7-1.4,1.9v1.6h2.1v1.3H407v8.4h-1.6v-8.4H404v-1.2
			l1.3-0.1V177c0-2,0.9-3.2,2.8-3.2c0.6,0,1.2,0.1,1.6,0.3L409.5,175.3L409.5,175.3z"/>
		<path class="st0" d="M414.1,186.6l1-1.1c1,1,2.3,1.6,3.7,1.6c1.7,0,2.8-0.9,2.8-2.2s-1-1.8-2.2-2.3l-1.9-0.8
			c-1.2-0.5-2.7-1.5-2.7-3.4c0-2,1.8-3.5,4.2-3.5c1.6,0,3,0.7,3.9,1.6l-0.9,1.1c-0.8-0.8-1.8-1.2-3-1.2c-1.5,0-2.5,0.8-2.5,1.9
			c0,1.3,1.1,1.8,2.2,2.2l1.9,0.8c1.5,0.7,2.7,1.6,2.7,3.5c0,2.1-1.7,3.8-4.5,3.8C416.9,188.6,415.3,187.8,414.1,186.6L414.1,186.6z
			"/>
		<path class="st0" d="M425,183.5c0-3.2,2.1-5.1,4.4-5.1c2.5,0,3.9,1.8,3.9,4.6c0,0.4,0,0.7-0.1,0.9h-6.6c0.1,2.1,1.4,3.4,3.2,3.4
			c1,0,1.7-0.3,2.5-0.8l0.6,1.1c-0.9,0.6-1.9,1-3.2,1C427,188.6,425,186.7,425,183.5L425,183.5z M431.8,182.7c0-2-0.9-3-2.4-3
			c-1.4,0-2.6,1.1-2.8,3H431.8z"/>
		<path class="st0" d="M434.9,183.5c0-3.3,2.2-5.1,4.7-5.1c1.3,0,2.2,0.5,2.9,1.1l-0.9,1.1c-0.6-0.5-1.2-0.9-2-0.9
			c-1.8,0-3.1,1.5-3.1,3.8s1.2,3.8,3,3.8c0.9,0,1.7-0.4,2.3-1l0.7,1.1c-0.9,0.8-2,1.2-3.1,1.2C436.9,188.6,434.9,186.7,434.9,183.5
			L434.9,183.5z"/>
		<path class="st0" d="M444.8,178.6h1.4l0.1,1.8h0c0.7-1.2,1.7-2,2.8-2c0.4,0,0.7,0.1,1,0.2l-0.3,1.4c-0.3-0.1-0.6-0.2-1-0.2
			c-0.8,0-1.8,0.6-2.5,2.2v6.3h-1.6L444.8,178.6L444.8,178.6z"/>
		<path class="st0" d="M450.9,183.5c0-3.2,2.1-5.1,4.4-5.1c2.5,0,3.9,1.8,3.9,4.6c0,0.4,0,0.7-0.1,0.9h-6.6c0.1,2.1,1.4,3.4,3.2,3.4
			c1,0,1.7-0.3,2.5-0.8l0.6,1.1c-0.9,0.6-1.9,1-3.2,1C453,188.6,450.9,186.7,450.9,183.5L450.9,183.5z M457.7,182.7c0-2-0.9-3-2.4-3
			c-1.4,0-2.6,1.1-2.8,3H457.7z"/>
		<path class="st0" d="M461.7,185.3v-5.4h-1.5v-1.2l1.5-0.1l0.2-2.7h1.4v2.7h2.6v1.3h-2.6v5.5c0,1.2,0.4,1.9,1.5,1.9
			c0.3,0,0.8-0.1,1.1-0.2l0.3,1.2c-0.6,0.2-1.2,0.4-1.8,0.4C462.4,188.6,461.7,187.3,461.7,185.3L461.7,185.3z"/>
		<path class="st0" d="M467.1,185.8c0-2.1,1.9-3.2,6-3.7c0-1.3-0.4-2.5-2-2.5c-1.1,0-2.2,0.5-2.9,1l-0.6-1.1
			c0.9-0.6,2.3-1.3,3.9-1.3c2.4,0,3.4,1.6,3.4,4v6h-1.4l-0.1-1.2h0c-0.9,0.8-2,1.4-3.2,1.4C468.4,188.6,467.1,187.5,467.1,185.8
			L467.1,185.8z M473.1,186v-2.7c-3.3,0.4-4.4,1.2-4.4,2.5c0,1.1,0.8,1.6,1.7,1.6S472.2,186.8,473.1,186z"/>
		<path class="st0" d="M477.9,178.6h1.4l0.1,1.8h0c0.7-1.2,1.7-2,2.8-2c0.4,0,0.7,0.1,1,0.2l-0.3,1.4c-0.3-0.1-0.6-0.2-1-0.2
			c-0.8,0-1.8,0.6-2.5,2.2v6.3h-1.6L477.9,178.6L477.9,178.6z"/>
		<path class="st0" d="M484.4,192.4l0.3-1.3c0.2,0.1,0.5,0.2,0.7,0.2c1.1,0,1.8-0.9,2.2-2.1l0.2-0.7l-3.9-9.8h1.7l2,5.4
			c0.3,0.9,0.6,1.9,0.9,2.7h0.1c0.3-0.9,0.6-1.9,0.8-2.7l1.8-5.4h1.6l-3.7,10.6c-0.7,1.9-1.7,3.4-3.6,3.4
			C485.1,192.6,484.7,192.5,484.4,192.4L484.4,192.4z"/>
	</g>
	<g>
		<path class="st5" d="M114.7,108.8h265c2.8,0,5,2.2,5,5v21.7c0,2.8-2.2,5-5,5h-265c-2.8,0-5-2.2-5-5v-21.7
			C109.7,111,112,108.8,114.7,108.8z"/>
		<path class="st5" d="M480.3,108.8h265c2.8,0,5,2.2,5,5v21.7c0,2.8-2.2,5-5,5h-265c-2.8,0-5-2.2-5-5v-21.7
			C475.3,111,477.5,108.8,480.3,108.8z"/>
		<g>
			<path class="st0" d="M127.7,118.2h3.3c4.1,0,6.2,2.4,6.2,6.6c0,4.2-2.2,6.6-6.2,6.6h-3.4V118.2L127.7,118.2z M130.9,130
				c3.1,0,4.6-1.9,4.6-5.3s-1.5-5.2-4.6-5.2h-1.5V130H130.9z"/>
			<path class="st0" d="M141,126.5c0-3.2,2.1-5.2,4.4-5.2c2.5,0,3.9,1.8,3.9,4.6c0,0.4,0,0.7-0.1,0.9h-6.6c0.1,2.1,1.4,3.4,3.2,3.4
				c0.9,0,1.7-0.3,2.4-0.8l0.6,1.1c-0.9,0.6-1.9,1-3.2,1C143.1,131.6,141,129.8,141,126.5L141,126.5z M147.9,125.7c0-2-0.9-3-2.4-3
				c-1.4,0-2.6,1.1-2.8,3H147.9L147.9,125.7z"/>
			<path class="st0" d="M153.5,121.6h1.4l0.1,1.1h0.1c0.9-0.7,2-1.4,3.1-1.4c2.5,0,3.9,2,3.9,5c0,3.4-2,5.3-4.2,5.3
				c-0.9,0-1.8-0.4-2.7-1.1l0,1.7v3.3h-1.6L153.5,121.6L153.5,121.6z M160.3,126.4c0-2.2-0.7-3.6-2.6-3.6c-0.8,0-1.7,0.5-2.6,1.3
				v5.1c0.9,0.8,1.8,1,2.4,1C159.1,130.3,160.3,128.8,160.3,126.4L160.3,126.4z"/>
			<path class="st0" d="M166.3,127.8v-6.2h1.6v6c0,1.8,0.5,2.6,1.8,2.6c1,0,1.7-0.5,2.6-1.7v-6.9h1.6v9.8h-1.4l-0.1-1.5h-0.1
				c-0.9,1.1-1.9,1.8-3.2,1.8C167.3,131.6,166.3,130.3,166.3,127.8L166.3,127.8z"/>
			<path class="st0" d="M179.5,128.4V123H178v-1.2l1.5-0.1l0.2-2.7h1.4v2.7h2.6v1.3h-2.6v5.5c0,1.2,0.4,1.9,1.5,1.9
				c0.3,0,0.8-0.1,1.1-0.2l0.3,1.2c-0.6,0.2-1.2,0.4-1.8,0.4C180.2,131.6,179.5,130.3,179.5,128.4L179.5,128.4z"/>
			<path class="st0" d="M186.8,135.4l0.3-1.3c0.2,0.1,0.5,0.2,0.7,0.2c1.1,0,1.8-0.9,2.2-2.1l0.2-0.7l-3.9-9.8h1.7l2,5.4
				c0.3,0.8,0.6,1.8,0.9,2.7h0.1c0.3-0.9,0.6-1.9,0.8-2.7l1.8-5.4h1.6l-3.7,10.6c-0.7,1.9-1.7,3.4-3.6,3.4
				C187.5,135.6,187.1,135.6,186.8,135.4L186.8,135.4z"/>
			<path class="st0" d="M204.9,118.2h3.3c4.1,0,6.2,2.4,6.2,6.6c0,4.2-2.2,6.6-6.2,6.6h-3.4L204.9,118.2L204.9,118.2z M208.1,130
				c3.1,0,4.6-1.9,4.6-5.3s-1.5-5.2-4.6-5.2h-1.5V130H208.1z"/>
			<path class="st0" d="M218.6,118.6c0-0.7,0.5-1.1,1.1-1.1s1.1,0.4,1.1,1.1c0,0.6-0.5,1.1-1.1,1.1S218.6,119.2,218.6,118.6z
				 M218.9,121.6h1.6v9.8h-1.6V121.6z"/>
			<path class="st0" d="M225.7,121.6h1.4l0.1,1.8h0.1c0.7-1.2,1.7-2,2.8-2c0.4,0,0.7,0.1,1,0.2l-0.3,1.4c-0.3-0.1-0.6-0.2-0.9-0.2
				c-0.8,0-1.8,0.6-2.5,2.2v6.3h-1.6L225.7,121.6L225.7,121.6z"/>
			<path class="st0" d="M233.5,126.5c0-3.2,2.1-5.2,4.4-5.2c2.5,0,3.9,1.8,3.9,4.6c0,0.4,0,0.7-0.1,0.9h-6.6
				c0.1,2.1,1.4,3.4,3.2,3.4c0.9,0,1.7-0.3,2.4-0.8l0.6,1.1c-0.9,0.6-1.9,1-3.2,1C235.6,131.6,233.5,129.8,233.5,126.5L233.5,126.5z
				 M240.4,125.7c0-2-0.9-3-2.4-3c-1.4,0-2.6,1.1-2.8,3H240.4L240.4,125.7z"/>
			<path class="st0" d="M245.3,126.5c0-3.3,2.2-5.2,4.7-5.2c1.3,0,2.2,0.5,2.9,1.2l-0.9,1.1c-0.6-0.5-1.2-0.9-2-0.9
				c-1.8,0-3.1,1.5-3.1,3.8s1.2,3.8,3,3.8c0.9,0,1.7-0.4,2.3-1l0.7,1.1c-0.9,0.8-2,1.2-3.1,1.2C247.3,131.7,245.3,129.8,245.3,126.5
				L245.3,126.5z"/>
			<path class="st0" d="M257.1,128.4V123h-1.5v-1.2l1.5-0.1l0.2-2.7h1.4v2.7h2.6v1.3h-2.6v5.5c0,1.2,0.4,1.9,1.5,1.9
				c0.3,0,0.8-0.1,1.1-0.2l0.3,1.2c-0.6,0.2-1.2,0.4-1.8,0.4C257.8,131.6,257.1,130.3,257.1,128.4L257.1,128.4z"/>
			<path class="st0" d="M264.4,126.5c0-3.3,2.1-5.2,4.5-5.2s4.5,1.9,4.5,5.2c0,3.3-2.1,5.1-4.5,5.1S264.4,129.8,264.4,126.5z
				 M271.8,126.5c0-2.2-1.1-3.8-2.8-3.8s-2.8,1.5-2.8,3.8s1.1,3.8,2.8,3.8S271.8,128.8,271.8,126.5z"/>
			<path class="st0" d="M277.8,121.6h1.4l0.1,1.8h0c0.7-1.2,1.7-2,2.8-2c0.4,0,0.7,0.1,1,0.2l-0.3,1.4c-0.3-0.1-0.6-0.2-1-0.2
				c-0.8,0-1.8,0.6-2.5,2.2v6.3h-1.6L277.8,121.6L277.8,121.6z"/>
			<path class="st0" d="M285.3,125.7h4.6v1.3h-4.6V125.7z"/>
			<path class="st0" d="M293.6,124.8c0-4.3,2.6-6.9,6-6.9c1.8,0,3,0.8,3.8,1.6l-0.9,1.1c-0.7-0.7-1.5-1.3-2.9-1.3
				c-2.6,0-4.4,2.1-4.4,5.3s1.6,5.4,4.4,5.4c1,0,1.9-0.3,2.4-0.8V126h-2.8v-1.4h4.3v5.5c-0.9,0.9-2.3,1.5-4.1,1.5
				C296,131.6,293.6,129.1,293.6,124.8z"/>
			<path class="st0" d="M307.6,126.5c0-3.2,2.1-5.2,4.4-5.2c2.5,0,3.9,1.8,3.9,4.6c0,0.4,0,0.7-0.1,0.9h-6.6
				c0.1,2.1,1.4,3.4,3.2,3.4c1,0,1.7-0.3,2.5-0.8l0.6,1.1c-0.9,0.6-1.9,1-3.2,1C309.7,131.6,307.7,129.8,307.6,126.5L307.6,126.5z
				 M314.5,125.7c0-2-0.9-3-2.4-3c-1.4,0-2.6,1.1-2.8,3H314.5z"/>
			<path class="st0" d="M320.2,121.6h1.4l0.1,1.4h0c0.9-0.9,1.9-1.7,3.3-1.7c2,0,3,1.3,3,3.8v6.2h-1.6v-6c0-1.8-0.6-2.6-1.9-2.6
				c-1,0-1.7,0.5-2.7,1.5v7.1h-1.6L320.2,121.6L320.2,121.6z"/>
			<path class="st0" d="M332.2,126.5c0-3.2,2.1-5.2,4.4-5.2c2.5,0,3.9,1.8,3.9,4.6c0,0.4,0,0.7-0.1,0.9h-6.6
				c0.1,2.1,1.4,3.4,3.2,3.4c1,0,1.7-0.3,2.5-0.8l0.6,1.1c-0.9,0.6-1.9,1-3.2,1C334.3,131.6,332.2,129.8,332.2,126.5L332.2,126.5z
				 M339.1,125.7c0-2-0.9-3-2.4-3c-1.4,0-2.6,1.1-2.8,3H339.1z"/>
			<path class="st0" d="M344.7,121.6h1.4l0.1,1.8h0c0.7-1.2,1.7-2,2.8-2c0.4,0,0.7,0.1,1,0.2l-0.3,1.4c-0.3-0.1-0.6-0.2-1-0.2
				c-0.8,0-1.8,0.6-2.5,2.2v6.3h-1.6L344.7,121.6L344.7,121.6z"/>
			<path class="st0" d="M352.4,128.9c0-2.1,1.9-3.2,6-3.7c0-1.3-0.4-2.5-2-2.5c-1.1,0-2.2,0.5-2.9,1l-0.6-1.1
				c0.9-0.6,2.3-1.3,3.9-1.3c2.4,0,3.4,1.6,3.4,4v6h-1.4l-0.1-1.2h0c-0.9,0.8-2,1.4-3.2,1.4C353.6,131.6,352.4,130.6,352.4,128.9
				L352.4,128.9z M358.4,129v-2.7c-3.3,0.4-4.4,1.2-4.4,2.5c0,1.1,0.8,1.6,1.7,1.6S357.5,129.9,358.4,129z"/>
			<path class="st0" d="M365,129.5v-12.4h1.6v12.5c0,0.5,0.2,0.7,0.5,0.7c0.1,0,0.2,0,0.3,0l0.2,1.3c-0.2,0.1-0.5,0.1-1,0.1
				C365.5,131.6,365,130.9,365,129.5L365,129.5z"/>
		</g>
		<g>
			<path class="st0" d="M492.8,118.2h3.3c4,0,6.2,2.4,6.2,6.6c0,4.2-2.2,6.6-6.2,6.6h-3.4L492.8,118.2L492.8,118.2z M496,130
				c3.1,0,4.6-1.9,4.6-5.3s-1.5-5.2-4.6-5.2h-1.5V130H496z"/>
			<path class="st0" d="M506.1,126.5c0-3.2,2.1-5.2,4.4-5.2c2.5,0,3.9,1.8,3.9,4.6c0,0.4,0,0.7-0.1,0.9h-6.6
				c0.1,2.1,1.4,3.4,3.2,3.4c1,0,1.7-0.3,2.4-0.8l0.6,1.1c-0.9,0.6-1.9,1-3.2,1C508.2,131.6,506.1,129.8,506.1,126.5L506.1,126.5z
				 M512.9,125.7c0-2-0.9-3-2.4-3c-1.4,0-2.6,1.1-2.8,3H512.9z"/>
			<path class="st0" d="M518.6,121.6h1.3l0.1,1.1h0c0.9-0.7,2-1.4,3.1-1.4c2.5,0,3.9,2,3.9,5c0,3.4-2,5.3-4.2,5.3
				c-0.9,0-1.8-0.4-2.7-1.1l0,1.7v3.3h-1.6L518.6,121.6L518.6,121.6z M525.4,126.4c0-2.2-0.7-3.6-2.6-3.6c-0.8,0-1.7,0.5-2.6,1.3
				v5.1c0.9,0.8,1.8,1,2.4,1C524.3,130.3,525.4,128.8,525.4,126.4L525.4,126.4z"/>
			<path class="st0" d="M531.4,127.8v-6.2h1.6v6c0,1.8,0.5,2.6,1.8,2.6c1,0,1.7-0.5,2.7-1.7v-6.9h1.6v9.8h-1.4l-0.1-1.5h0
				c-0.9,1.1-1.9,1.8-3.2,1.8C532.4,131.6,531.4,130.3,531.4,127.8L531.4,127.8z"/>
			<path class="st0" d="M544.6,128.4V123h-1.5v-1.2l1.5-0.1l0.2-2.7h1.4v2.7h2.7v1.3h-2.7v5.5c0,1.2,0.4,1.9,1.5,1.9
				c0.3,0,0.8-0.1,1.1-0.2l0.3,1.2c-0.6,0.2-1.2,0.4-1.8,0.4C545.3,131.7,544.6,130.4,544.6,128.4L544.6,128.4z"/>
			<path class="st0" d="M551.9,135.4l0.3-1.3c0.2,0.1,0.5,0.2,0.7,0.2c1.1,0,1.8-0.9,2.2-2.1l0.2-0.7l-3.9-9.8h1.7l2,5.4
				c0.3,0.8,0.6,1.8,0.9,2.7h0.1c0.3-0.9,0.6-1.9,0.8-2.7l1.8-5.4h1.6l-3.7,10.6c-0.7,1.9-1.7,3.4-3.6,3.4
				C552.6,135.6,552.2,135.6,551.9,135.4z"/>
			<path class="st0" d="M570,118.2h3.3c4,0,6.2,2.4,6.2,6.6c0,4.2-2.2,6.6-6.2,6.6H570V118.2L570,118.2z M573.2,130
				c3.1,0,4.7-1.9,4.7-5.3s-1.5-5.2-4.7-5.2h-1.5V130H573.2z"/>
			<path class="st0" d="M583.7,118.6c0-0.7,0.5-1.1,1.1-1.1s1.1,0.4,1.1,1.1c0,0.6-0.5,1.1-1.1,1.1S583.7,119.2,583.7,118.6z
				 M584,121.6h1.6v9.8H584V121.6z"/>
			<path class="st0" d="M590.8,121.6h1.3l0.1,1.8h0c0.7-1.2,1.7-2,2.8-2c0.4,0,0.7,0.1,1,0.2l-0.3,1.4c-0.3-0.1-0.6-0.2-1-0.2
				c-0.8,0-1.8,0.6-2.5,2.2v6.3h-1.6L590.8,121.6L590.8,121.6z"/>
			<path class="st0" d="M598.6,126.5c0-3.2,2.1-5.2,4.4-5.2c2.5,0,3.9,1.8,3.9,4.6c0,0.4,0,0.7-0.1,0.9h-6.6
				c0.1,2.1,1.4,3.4,3.2,3.4c1,0,1.7-0.3,2.5-0.8l0.6,1.1c-0.9,0.6-1.9,1-3.2,1C600.7,131.6,598.6,129.8,598.6,126.5L598.6,126.5z
				 M605.5,125.7c0-2-0.9-3-2.4-3c-1.4,0-2.6,1.1-2.8,3H605.5z"/>
			<path class="st0" d="M610.4,126.5c0-3.3,2.2-5.2,4.7-5.2c1.3,0,2.2,0.5,2.9,1.2l-0.8,1.1c-0.6-0.5-1.2-0.9-2-0.9
				c-1.8,0-3.1,1.5-3.1,3.8s1.2,3.8,3,3.8c0.9,0,1.7-0.4,2.3-1l0.7,1.1c-0.9,0.8-2,1.2-3.2,1.2C612.4,131.7,610.4,129.8,610.4,126.5
				L610.4,126.5z"/>
			<path class="st0" d="M622.2,128.4V123h-1.5v-1.2l1.5-0.1l0.2-2.7h1.4v2.7h2.7v1.3h-2.7v5.5c0,1.2,0.4,1.9,1.5,1.9
				c0.3,0,0.8-0.1,1.1-0.2l0.3,1.2c-0.6,0.2-1.2,0.4-1.8,0.4C622.9,131.7,622.2,130.4,622.2,128.4L622.2,128.4z"/>
			<path class="st0" d="M629.5,126.5c0-3.3,2.1-5.2,4.5-5.2s4.5,1.9,4.5,5.2c0,3.3-2.1,5.1-4.5,5.1S629.5,129.8,629.5,126.5z
				 M636.9,126.5c0-2.2-1.2-3.8-2.8-3.8s-2.8,1.5-2.8,3.8s1.1,3.8,2.8,3.8S636.9,128.8,636.9,126.5z"/>
			<path class="st0" d="M642.9,121.6h1.3l0.1,1.8h0c0.7-1.2,1.7-2,2.8-2c0.4,0,0.7,0.1,1,0.2L648,123c-0.3-0.1-0.6-0.2-1-0.2
				c-0.8,0-1.8,0.6-2.5,2.2v6.3h-1.6L642.9,121.6L642.9,121.6z"/>
			<path class="st0" d="M650.4,125.7h4.6v1.3h-4.6V125.7z"/>
			<path class="st0" d="M658.7,124.8c0-4.3,2.6-6.9,6-6.9c1.8,0,3,0.8,3.8,1.6l-0.9,1.1c-0.7-0.7-1.5-1.3-2.9-1.3
				c-2.7,0-4.4,2.1-4.4,5.3s1.6,5.4,4.4,5.4c1,0,1.9-0.3,2.4-0.8V126h-2.8v-1.4h4.3v5.5c-0.8,0.9-2.3,1.5-4.1,1.5
				C661.1,131.6,658.7,129.1,658.7,124.8L658.7,124.8z"/>
			<path class="st0" d="M672.7,126.5c0-3.2,2.1-5.2,4.4-5.2c2.5,0,3.9,1.8,3.9,4.6c0,0.4,0,0.7-0.1,0.9h-6.6
				c0.1,2.1,1.4,3.4,3.2,3.4c1,0,1.7-0.3,2.5-0.8l0.6,1.1c-0.9,0.6-1.9,1-3.2,1C674.8,131.6,672.7,129.8,672.7,126.5L672.7,126.5z
				 M679.6,125.7c0-2-0.9-3-2.4-3c-1.4,0-2.6,1.1-2.8,3H679.6z"/>
			<path class="st0" d="M685.2,121.6h1.3l0.1,1.4h0c0.9-0.9,1.9-1.7,3.3-1.7c2,0,3,1.3,3,3.8v6.2h-1.6v-6c0-1.8-0.6-2.6-1.8-2.6
				c-1,0-1.7,0.5-2.7,1.5v7.1h-1.6V121.6L685.2,121.6z"/>
			<path class="st0" d="M697.3,126.5c0-3.2,2.1-5.2,4.4-5.2c2.5,0,3.9,1.8,3.9,4.6c0,0.4,0,0.7-0.1,0.9h-6.6
				c0.1,2.1,1.4,3.4,3.2,3.4c1,0,1.7-0.3,2.5-0.8l0.6,1.1c-0.9,0.6-1.9,1-3.2,1C699.4,131.6,697.3,129.8,697.3,126.5L697.3,126.5z
				 M704.2,125.7c0-2-0.9-3-2.4-3c-1.4,0-2.6,1.1-2.8,3H704.2z"/>
			<path class="st0" d="M709.8,121.6h1.3l0.1,1.8h0c0.7-1.2,1.7-2,2.8-2c0.4,0,0.7,0.1,1,0.2l-0.3,1.4c-0.3-0.1-0.6-0.2-1-0.2
				c-0.8,0-1.8,0.6-2.5,2.2v6.3h-1.6L709.8,121.6L709.8,121.6z"/>
			<path class="st0" d="M717.5,128.9c0-2.1,1.8-3.2,6-3.7c0-1.3-0.4-2.5-2-2.5c-1.1,0-2.2,0.5-2.9,1l-0.7-1.1
				c0.9-0.6,2.3-1.3,3.8-1.3c2.4,0,3.4,1.6,3.4,4v6h-1.3l-0.1-1.2h0c-0.9,0.8-2,1.4-3.2,1.4C718.7,131.6,717.5,130.6,717.5,128.9
				L717.5,128.9z M723.5,129v-2.7c-3.3,0.4-4.4,1.2-4.4,2.5c0,1.1,0.8,1.6,1.7,1.6S722.6,129.9,723.5,129z"/>
			<path class="st0" d="M730.1,129.5v-12.4h1.6v12.5c0,0.5,0.2,0.7,0.5,0.7c0.1,0,0.2,0,0.3,0l0.2,1.3c-0.2,0.1-0.5,0.1-1,0.1
				C730.6,131.6,730.1,130.9,730.1,129.5L730.1,129.5z"/>
		</g>
	</g>
	<path class="st6" d="M335.1,25.7h184.2c2.8,0,5,2.2,5,5v22c0,2.8-2.2,5-5,5H335.1c-2.8,0-5-2.2-5-5v-22
		C330.1,27.9,332.4,25.7,335.1,25.7z"/>
	<g>
		<path class="st0" d="M346.6,34.4h3.3c4,0,6.2,2.4,6.2,6.5s-2.2,6.6-6.2,6.6h-3.4L346.6,34.4L346.6,34.4z M349.7,46.2
			c3.1,0,4.6-2,4.6-5.3s-1.5-5.2-4.6-5.2h-1.5v10.5H349.7z"/>
		<path class="st0" d="M360.3,34.8c0-0.7,0.5-1.1,1.1-1.1s1.1,0.4,1.1,1.1c0,0.6-0.5,1.1-1.1,1.1S360.3,35.4,360.3,34.8z
			 M360.6,37.8h1.6v9.8h-1.6V37.8z"/>
		<path class="st0" d="M367.3,37.8h1.4l0.1,1.8h0c0.7-1.2,1.7-2,2.8-2c0.4,0,0.7,0,1,0.2l-0.3,1.4c-0.3-0.1-0.6-0.2-1-0.2
			c-0.8,0-1.8,0.6-2.5,2.2v6.3h-1.6L367.3,37.8L367.3,37.8z"/>
		<path class="st0" d="M375.2,42.7c0-3.2,2.1-5.2,4.4-5.2c2.5,0,3.9,1.8,3.9,4.6c0,0.4,0,0.7-0.1,0.9h-6.6c0.1,2.1,1.4,3.4,3.2,3.4
			c1,0,1.7-0.3,2.5-0.8l0.6,1.1c-0.9,0.6-1.9,1-3.2,1C377.3,47.8,375.2,46,375.2,42.7L375.2,42.7z M382,41.9c0-2-0.9-3-2.4-3
			c-1.4,0-2.6,1.1-2.8,3H382z"/>
		<path class="st0" d="M387,42.7c0-3.3,2.2-5.2,4.7-5.2c1.3,0,2.2,0.5,2.9,1.2l-0.9,1.1c-0.6-0.5-1.2-0.9-2-0.9
			c-1.8,0-3.1,1.5-3.1,3.8s1.2,3.8,3,3.8c0.9,0,1.7-0.4,2.3-1l0.7,1.1c-0.9,0.8-2,1.2-3.1,1.2C388.9,47.8,386.9,46,387,42.7
			L387,42.7z"/>
		<path class="st0" d="M398.8,44.6v-5.4h-1.5v-1.2l1.5-0.1l0.2-2.7h1.4v2.7h2.6v1.3h-2.6v5.5c0,1.2,0.4,1.9,1.5,1.9
			c0.3,0,0.8-0.1,1.1-0.2l0.3,1.2c-0.6,0.2-1.2,0.4-1.8,0.4C399.5,47.8,398.8,46.5,398.8,44.6L398.8,44.6z"/>
		<path class="st0" d="M406,42.7c0-3.3,2.1-5.2,4.5-5.2s4.5,1.9,4.5,5.2s-2.1,5.1-4.5,5.1S406,46,406,42.7z M413.4,42.7
			c0-2.2-1.1-3.8-2.8-3.8s-2.8,1.5-2.8,3.8s1.1,3.8,2.8,3.8S413.4,45,413.4,42.7z"/>
		<path class="st0" d="M419.5,37.8h1.4l0.1,1.8h0c0.7-1.2,1.7-2,2.8-2c0.4,0,0.7,0,1,0.2l-0.3,1.4c-0.3-0.1-0.6-0.2-1-0.2
			c-0.8,0-1.8,0.6-2.5,2.2v6.3h-1.6L419.5,37.8L419.5,37.8z"/>
		<path class="st0" d="M427,41.9h4.6v1.3H427V41.9z"/>
		<path class="st0" d="M435.2,41c0-4.3,2.6-6.9,6-6.9c1.8,0,3,0.8,3.8,1.6l-0.9,1.1c-0.7-0.7-1.5-1.3-2.9-1.3c-2.6,0-4.4,2-4.4,5.3
			s1.6,5.4,4.4,5.4c1,0,1.9-0.3,2.4-0.8v-3.5h-2.8v-1.4h4.3v5.5c-0.9,0.9-2.3,1.5-4.1,1.5C437.7,47.8,435.2,45.3,435.2,41L435.2,41z
			"/>
		<path class="st0" d="M449.3,42.7c0-3.2,2.1-5.2,4.4-5.2c2.5,0,3.9,1.8,3.9,4.6c0,0.4,0,0.7-0.1,0.9h-6.6c0.1,2.1,1.4,3.4,3.2,3.4
			c1,0,1.7-0.3,2.5-0.8l0.6,1.1c-0.9,0.6-1.9,1-3.2,1C451.4,47.8,449.3,46,449.3,42.7L449.3,42.7z M456.2,41.9c0-2-0.9-3-2.4-3
			c-1.4,0-2.6,1.1-2.8,3H456.2z"/>
		<path class="st0" d="M461.8,37.8h1.4l0.1,1.4h0c0.9-0.9,1.9-1.7,3.3-1.7c2,0,3,1.3,3,3.8v6.2H468v-6c0-1.8-0.6-2.6-1.9-2.6
			c-1,0-1.7,0.5-2.7,1.5v7.1h-1.6L461.8,37.8L461.8,37.8z"/>
		<path class="st0" d="M473.9,42.7c0-3.2,2.1-5.2,4.4-5.2c2.5,0,3.9,1.8,3.9,4.6c0,0.4,0,0.7-0.1,0.9h-6.6c0.1,2.1,1.4,3.4,3.2,3.4
			c1,0,1.7-0.3,2.5-0.8l0.6,1.1c-0.9,0.6-1.9,1-3.2,1C476,47.8,473.9,46,473.9,42.7L473.9,42.7z M480.7,41.9c0-2-0.9-3-2.4-3
			c-1.4,0-2.6,1.1-2.8,3H480.7z"/>
		<path class="st0" d="M486.4,37.8h1.4l0.1,1.8h0c0.7-1.2,1.7-2,2.8-2c0.4,0,0.7,0,1,0.2l-0.3,1.4c-0.3-0.1-0.6-0.2-1-0.2
			c-0.8,0-1.8,0.6-2.5,2.2v6.3h-1.6L486.4,37.8L486.4,37.8z"/>
		<path class="st0" d="M494.1,45.1c0-2.1,1.9-3.2,6-3.7c0-1.3-0.4-2.5-2-2.5c-1.1,0-2.2,0.5-2.9,1l-0.6-1.1c0.9-0.6,2.3-1.3,3.9-1.3
			c2.4,0,3.4,1.6,3.4,4v6h-1.4l-0.1-1.2h0c-0.9,0.8-2,1.4-3.2,1.4C495.3,47.8,494.1,46.8,494.1,45.1L494.1,45.1z M500.1,45.2v-2.7
			c-3.3,0.4-4.4,1.2-4.4,2.5c0,1.1,0.8,1.6,1.7,1.6S499.1,46.1,500.1,45.2z"/>
		<path class="st0" d="M506.6,45.7V33.3h1.6v12.5c0,0.5,0.2,0.7,0.5,0.7c0.1,0,0.2,0,0.3,0l0.2,1.3c-0.2,0.1-0.5,0.1-1,0.1
			C507.1,47.8,506.6,47,506.6,45.7L506.6,45.7z"/>
	</g>
</g>
</svg>
