<?xml version="1.0" encoding="UTF-8"?>
<svg id="_層_1" data-name="圖層 1" xmlns="http://www.w3.org/2000/svg" width="676" height="630" viewBox="0 0 676 630">
  <defs>
    <style>
      .cls-1 {
        fill: #fff;
      }

      .cls-2 {
        fill: #da8b41;
      }

      .cls-3 {
        fill: #71ad91;
      }

      .cls-4 {
        fill: #95c1ac;
      }

      .cls-5 {
        fill: #4e9875;
      }

      .cls-6 {
        fill: none;
        stroke: #4d4d4d;
        stroke-miterlimit: 10;
      }

      .cls-7 {
        fill: #b3b3b3;
      }
    </style>
  </defs>
  <g>
    <g>
      <g>
        <rect class="cls-2" x="322.17" y="52.95" width="31.66" height="370" rx="5" ry="5" transform="translate(575.95 -100.05) rotate(90)"/>
        <g>
          <path class="cls-1" d="M247.86,230.85h1.67v13.2h-1.67v-13.2Z"/>
          <path class="cls-1" d="M252.99,234.27h1.35l.14,1.42h.05c.85-.94,1.87-1.67,3.04-1.67,1.49,0,2.3,.72,2.7,1.87,1.01-1.1,2.04-1.87,3.22-1.87,2.02,0,2.97,1.33,2.97,3.83v6.19h-1.64v-5.98c0-1.84-.58-2.61-1.82-2.61-.76,0-1.55,.49-2.47,1.49v7.09h-1.64v-5.98c0-1.84-.58-2.61-1.82-2.61-.74,0-1.57,.49-2.47,1.49v7.09h-1.64v-9.78Z"/>
          <path class="cls-1" d="M269.66,234.27h1.35l.14,1.12h.05c.88-.72,1.98-1.37,3.12-1.37,2.52,0,3.89,1.98,3.89,4.99,0,3.35-2,5.28-4.25,5.28-.88,0-1.82-.41-2.7-1.13l.04,1.71v3.31h-1.64v-13.9Zm6.84,4.75c0-2.16-.72-3.62-2.57-3.62-.83,0-1.67,.47-2.63,1.35v5.13c.88,.76,1.75,1.03,2.39,1.03,1.62,0,2.81-1.46,2.81-3.89Z"/>
          <path class="cls-1" d="M280.82,242.1v-12.39h1.64v12.5c0,.5,.22,.7,.47,.7,.09,0,.16,0,.34-.04l.23,1.26c-.23,.09-.52,.14-.95,.14-1.22,0-1.73-.79-1.73-2.18Z"/>
          <path class="cls-1" d="M285.21,239.17c0-3.17,2.14-5.15,4.41-5.15,2.48,0,3.89,1.8,3.89,4.59,0,.36-.04,.7-.07,.94h-6.59c.11,2.09,1.39,3.42,3.24,3.42,.95,0,1.73-.29,2.45-.77l.59,1.08c-.86,.56-1.91,1.01-3.24,1.01-2.59,0-4.68-1.89-4.68-5.11Zm6.86-.79c0-1.98-.9-3.04-2.43-3.04-1.39,0-2.61,1.12-2.81,3.04h5.24Z"/>
          <path class="cls-1" d="M295.92,234.27h1.35l.14,1.42h.05c.85-.94,1.87-1.67,3.04-1.67,1.49,0,2.3,.72,2.7,1.87,1.01-1.1,2.04-1.87,3.22-1.87,2.02,0,2.97,1.33,2.97,3.83v6.19h-1.64v-5.98c0-1.84-.58-2.61-1.82-2.61-.76,0-1.55,.49-2.47,1.49v7.09h-1.64v-5.98c0-1.84-.58-2.61-1.82-2.61-.74,0-1.57,.49-2.47,1.49v7.09h-1.64v-9.78Z"/>
          <path class="cls-1" d="M311.85,239.17c0-3.17,2.14-5.15,4.41-5.15,2.49,0,3.89,1.8,3.89,4.59,0,.36-.04,.7-.07,.94h-6.59c.11,2.09,1.39,3.42,3.24,3.42,.95,0,1.73-.29,2.45-.77l.59,1.08c-.86,.56-1.91,1.01-3.24,1.01-2.59,0-4.68-1.89-4.68-5.11Zm6.86-.79c0-1.98-.9-3.04-2.43-3.04-1.39,0-2.61,1.12-2.81,3.04h5.24Z"/>
          <path class="cls-1" d="M322.56,234.27h1.35l.14,1.4h.05c.94-.92,1.94-1.66,3.28-1.66,2.05,0,2.99,1.33,2.99,3.83v6.19h-1.64v-5.98c0-1.84-.56-2.61-1.85-2.61-1.01,0-1.69,.5-2.68,1.49v7.09h-1.64v-9.78Z"/>
          <path class="cls-1" d="M333.85,241.02v-5.42h-1.46v-1.24l1.53-.09,.2-2.74h1.37v2.74h2.65v1.33h-2.65v5.46c0,1.21,.38,1.89,1.51,1.89,.34,0,.79-.13,1.12-.25l.32,1.22c-.56,.18-1.21,.36-1.8,.36-2.09,0-2.79-1.3-2.79-3.26Z"/>
          <path class="cls-1" d="M339.3,241.51c0-2.12,1.85-3.19,6.01-3.66,0-1.26-.41-2.47-2.02-2.47-1.13,0-2.16,.52-2.94,1.04l-.65-1.13c.9-.58,2.29-1.28,3.85-1.28,2.38,0,3.38,1.6,3.38,4.02v6.01h-1.35l-.14-1.17h-.05c-.94,.77-2.04,1.4-3.24,1.4-1.64,0-2.86-1.01-2.86-2.77Zm6.01,.16v-2.74c-3.29,.4-4.41,1.21-4.41,2.47,0,1.12,.76,1.57,1.73,1.57s1.73-.45,2.68-1.3Z"/>
          <path class="cls-1" d="M350.08,241.02v-5.42h-1.46v-1.24l1.53-.09,.2-2.74h1.37v2.74h2.65v1.33h-2.65v5.46c0,1.21,.38,1.89,1.51,1.89,.34,0,.79-.13,1.12-.25l.32,1.22c-.56,.18-1.21,.36-1.8,.36-2.09,0-2.79-1.3-2.79-3.26Z"/>
          <path class="cls-1" d="M356.27,231.19c0-.67,.49-1.06,1.13-1.06s1.13,.4,1.13,1.06c0,.61-.49,1.06-1.13,1.06s-1.13-.45-1.13-1.06Zm.31,3.08h1.64v9.78h-1.64v-9.78Z"/>
          <path class="cls-1" d="M360.79,239.17c0-3.26,2.14-5.15,4.54-5.15s4.54,1.89,4.54,5.15-2.14,5.11-4.54,5.11-4.54-1.87-4.54-5.11Zm7.38,0c0-2.25-1.15-3.78-2.84-3.78s-2.83,1.53-2.83,3.78,1.13,3.75,2.83,3.75,2.84-1.49,2.84-3.75Z"/>
          <path class="cls-1" d="M372.44,234.27h1.35l.14,1.4h.05c.94-.92,1.94-1.66,3.28-1.66,2.05,0,2.99,1.33,2.99,3.83v6.19h-1.64v-5.98c0-1.84-.56-2.61-1.85-2.61-1.01,0-1.69,.5-2.68,1.49v7.09h-1.64v-9.78Z"/>
          <path class="cls-1" d="M387.56,238.59v-7.74h1.67v7.8c0,3.19,1.35,4.18,3.06,4.18s3.15-.99,3.15-4.18v-7.8h1.6v7.74c0,4.25-2.05,5.69-4.75,5.69s-4.74-1.44-4.74-5.69Z"/>
          <path class="cls-1" d="M400.45,234.27h1.35l.14,1.4h.05c.94-.92,1.94-1.66,3.28-1.66,2.05,0,2.99,1.33,2.99,3.83v6.19h-1.64v-5.98c0-1.84-.56-2.61-1.85-2.61-1.01,0-1.69,.5-2.68,1.49v7.09h-1.64v-9.78Z"/>
          <path class="cls-1" d="M411.14,231.19c0-.67,.49-1.06,1.13-1.06s1.13,.4,1.13,1.06c0,.61-.49,1.06-1.13,1.06s-1.13-.45-1.13-1.06Zm.31,3.08h1.64v9.78h-1.64v-9.78Z"/>
          <path class="cls-1" d="M416.68,241.02v-5.42h-1.46v-1.24l1.53-.09,.2-2.74h1.37v2.74h2.65v1.33h-2.65v5.46c0,1.21,.38,1.89,1.51,1.89,.34,0,.79-.13,1.12-.25l.32,1.22c-.56,.18-1.21,.36-1.8,.36-2.09,0-2.79-1.3-2.79-3.26Z"/>
          <path class="cls-1" d="M421.88,242.93l.81-1.08c.85,.68,1.73,1.15,2.9,1.15,1.3,0,1.93-.68,1.93-1.53,0-.99-1.15-1.44-2.23-1.85-1.37-.5-2.92-1.17-2.92-2.83,0-1.55,1.24-2.77,3.37-2.77,1.21,0,2.27,.5,3.04,1.1l-.79,1.06c-.68-.5-1.37-.86-2.25-.86-1.22,0-1.78,.65-1.78,1.4,0,.94,1.06,1.28,2.16,1.69,1.42,.54,2.99,1.12,2.99,2.97,0,1.58-1.26,2.9-3.57,2.9-1.39,0-2.72-.58-3.65-1.35Z"/>
        </g>
      </g>
      <g>
        <path class="cls-7" d="M172.42,264.65l10.64,6.75v.07l-10.64,6.75h-.03v-13.56h.03Z"/>
        <path d="M193.27,264.37h3.76c2.97,0,4.95,.99,4.95,3.87s-1.98,4.09-4.86,4.09h-2.18v5.24h-1.67v-13.2Zm3.64,6.61c2.32,0,3.42-.85,3.42-2.74s-1.17-2.52-3.49-2.52h-1.89v5.26h1.96Z"/>
        <path d="M204.5,275.62v-12.39h1.64v12.5c0,.5,.22,.7,.47,.7,.09,0,.16,0,.34-.04l.23,1.26c-.23,.09-.52,.14-.95,.14-1.22,0-1.73-.79-1.73-2.18Z"/>
        <path d="M209.02,275.03c0-2.12,1.85-3.19,6.01-3.66,0-1.26-.41-2.47-2.02-2.47-1.13,0-2.16,.52-2.94,1.04l-.65-1.13c.9-.58,2.29-1.28,3.85-1.28,2.38,0,3.38,1.6,3.38,4.02v6.01h-1.35l-.14-1.17h-.05c-.94,.77-2.04,1.4-3.24,1.4-1.64,0-2.86-1.01-2.86-2.77Zm6.01,.16v-2.74c-3.29,.4-4.41,1.21-4.41,2.47,0,1.12,.76,1.57,1.73,1.57s1.73-.45,2.68-1.3Z"/>
        <path d="M219.78,267.79h1.35l.14,1.4h.05c.94-.92,1.94-1.66,3.28-1.66,2.05,0,2.99,1.33,2.99,3.83v6.19h-1.64v-5.98c0-1.84-.56-2.61-1.85-2.61-1.01,0-1.69,.5-2.68,1.49v7.09h-1.64v-9.78Z"/>
        <path d="M230.78,267.79h1.35l.14,1.4h.05c.94-.92,1.94-1.66,3.28-1.66,2.05,0,2.99,1.33,2.99,3.83v6.19h-1.64v-5.98c0-1.84-.56-2.61-1.85-2.61-1.01,0-1.69,.5-2.68,1.49v7.09h-1.64v-9.78Z"/>
        <path d="M241.47,264.71c0-.67,.49-1.06,1.13-1.06s1.13,.4,1.13,1.06c0,.61-.49,1.06-1.13,1.06s-1.13-.45-1.13-1.06Zm.31,3.08h1.64v9.78h-1.64v-9.78Z"/>
        <path d="M246.73,267.79h1.35l.14,1.4h.05c.94-.92,1.94-1.66,3.28-1.66,2.05,0,2.99,1.33,2.99,3.83v6.19h-1.64v-5.98c0-1.84-.56-2.61-1.85-2.61-1.01,0-1.69,.5-2.68,1.49v7.09h-1.64v-9.78Z"/>
        <path d="M256.97,279.44c0-.83,.54-1.62,1.46-2.21v-.07c-.52-.31-.9-.83-.9-1.6s.59-1.46,1.1-1.82v-.07c-.65-.52-1.28-1.46-1.28-2.63,0-2.14,1.69-3.49,3.67-3.49,.54,0,1.03,.13,1.37,.25h3.4v1.26h-2c.47,.45,.79,1.17,.79,2.02,0,2.09-1.58,3.4-3.57,3.4-.49,0-1.03-.13-1.46-.34-.36,.31-.63,.63-.63,1.17,0,.63,.4,1.06,1.71,1.06h1.91c2.27,0,3.4,.72,3.4,2.32,0,1.82-1.91,3.39-4.93,3.39-2.39,0-4.05-.94-4.05-2.63Zm7.4-.5c0-.9-.7-1.21-2-1.21h-1.69c-.36,0-.83-.05-1.26-.16-.7,.5-1.01,1.08-1.01,1.66,0,1.04,1.06,1.73,2.84,1.73,1.87,0,3.12-.99,3.12-2.02Zm-1.28-7.9c0-1.42-.92-2.29-2.07-2.29s-2.09,.85-2.09,2.29,.95,2.32,2.09,2.32,2.07-.9,2.07-2.32Z"/>
        <path d="M272.04,264.37h3.31c4.05,0,6.23,2.36,6.23,6.55s-2.18,6.64-6.16,6.64h-3.38v-13.2Zm3.17,11.83c3.11,0,4.65-1.94,4.65-5.28s-1.53-5.2-4.65-5.2h-1.5v10.48h1.5Z"/>
        <path d="M283.95,264.71c0-.67,.49-1.06,1.13-1.06s1.13,.4,1.13,1.06c0,.61-.49,1.06-1.13,1.06s-1.13-.45-1.13-1.06Zm.31,3.08h1.64v9.78h-1.64v-9.78Z"/>
        <path d="M287.79,267.79h1.71l1.84,5.56c.31,.95,.61,1.96,.92,2.88h.07c.29-.92,.61-1.93,.9-2.88l1.85-5.56h1.62l-3.47,9.78h-1.91l-3.53-9.78Z"/>
        <path d="M298.28,264.71c0-.67,.49-1.06,1.13-1.06s1.13,.4,1.13,1.06c0,.61-.49,1.06-1.13,1.06s-1.13-.45-1.13-1.06Zm.31,3.08h1.64v9.78h-1.64v-9.78Z"/>
        <path d="M302.44,276.45l.81-1.08c.85,.68,1.73,1.15,2.9,1.15,1.3,0,1.93-.68,1.93-1.53,0-.99-1.15-1.44-2.23-1.85-1.37-.5-2.92-1.17-2.92-2.83,0-1.55,1.24-2.77,3.37-2.77,1.21,0,2.27,.5,3.04,1.1l-.79,1.06c-.68-.5-1.37-.86-2.25-.86-1.22,0-1.78,.65-1.78,1.4,0,.94,1.06,1.28,2.16,1.69,1.42,.54,2.99,1.12,2.99,2.97,0,1.58-1.26,2.9-3.57,2.9-1.39,0-2.72-.58-3.65-1.35Z"/>
        <path d="M311.65,264.71c0-.67,.49-1.06,1.13-1.06s1.13,.4,1.13,1.06c0,.61-.49,1.06-1.13,1.06s-1.13-.45-1.13-1.06Zm.31,3.08h1.64v9.78h-1.64v-9.78Z"/>
        <path d="M316.17,272.68c0-3.26,2.14-5.15,4.54-5.15s4.54,1.89,4.54,5.15-2.14,5.11-4.54,5.11-4.54-1.87-4.54-5.11Zm7.38,0c0-2.25-1.15-3.78-2.84-3.78s-2.83,1.53-2.83,3.78,1.13,3.75,2.83,3.75,2.84-1.49,2.84-3.75Z"/>
        <path d="M327.82,267.79h1.35l.14,1.4h.05c.94-.92,1.94-1.66,3.28-1.66,2.05,0,2.99,1.33,2.99,3.83v6.19h-1.64v-5.98c0-1.84-.56-2.61-1.85-2.61-1.01,0-1.69,.5-2.68,1.49v7.09h-1.64v-9.78Z"/>
        <path class="cls-7" d="M172.42,294.65l10.64,6.75v.07l-10.64,6.75h-.03v-13.56h.03Z"/>
        <path d="M193.27,294.37h1.67v13.2h-1.67v-13.2Z"/>
        <path d="M198.4,297.79h1.35l.14,1.4h.05c.94-.92,1.94-1.66,3.28-1.66,2.05,0,2.99,1.33,2.99,3.83v6.19h-1.64v-5.98c0-1.84-.56-2.61-1.85-2.61-1.01,0-1.69,.5-2.68,1.49v7.09h-1.64v-9.78Z"/>
        <path d="M208.66,302.68c0-3.26,2.21-5.15,4.72-5.15,1.28,0,2.16,.54,2.86,1.15l-.85,1.1c-.58-.52-1.17-.88-1.96-.88-1.76,0-3.06,1.53-3.06,3.78s1.22,3.75,3.02,3.75c.9,0,1.69-.41,2.3-.97l.7,1.1c-.86,.79-1.98,1.24-3.15,1.24-2.59,0-4.59-1.87-4.59-5.11Z"/>
        <path d="M218.25,294.71c0-.67,.49-1.06,1.13-1.06s1.13,.4,1.13,1.06c0,.61-.49,1.06-1.13,1.06s-1.13-.45-1.13-1.06Zm.31,3.08h1.64v9.78h-1.64v-9.78Z"/>
        <path d="M222.8,302.68c0-3.17,2-5.15,4.23-5.15,1.15,0,1.89,.43,2.75,1.15l-.09-1.69v-3.76h1.64v14.33h-1.33l-.16-1.15h-.04c-.77,.76-1.8,1.39-2.97,1.39-2.45,0-4.03-1.85-4.03-5.11Zm6.9,2.39v-5.13c-.83-.74-1.57-1.03-2.38-1.03-1.58,0-2.83,1.51-2.83,3.75,0,2.36,.97,3.76,2.7,3.76,.9,0,1.69-.45,2.5-1.35Z"/>
        <path d="M233.93,302.68c0-3.17,2.14-5.15,4.41-5.15,2.49,0,3.89,1.8,3.89,4.59,0,.36-.04,.7-.07,.94h-6.59c.11,2.09,1.39,3.42,3.24,3.42,.95,0,1.73-.29,2.45-.77l.59,1.08c-.86,.56-1.91,1.01-3.24,1.01-2.59,0-4.68-1.89-4.68-5.11Zm6.86-.79c0-1.98-.9-3.04-2.43-3.04-1.39,0-2.61,1.12-2.81,3.04h5.24Z"/>
        <path d="M244.64,297.79h1.35l.14,1.4h.05c.94-.92,1.94-1.66,3.28-1.66,2.05,0,2.99,1.33,2.99,3.83v6.19h-1.64v-5.98c0-1.84-.56-2.61-1.85-2.61-1.01,0-1.69,.5-2.68,1.49v7.09h-1.64v-9.78Z"/>
        <path d="M255.92,304.54v-5.42h-1.46v-1.24l1.53-.09,.2-2.74h1.37v2.74h2.65v1.33h-2.65v5.46c0,1.21,.38,1.89,1.51,1.89,.34,0,.79-.13,1.12-.25l.32,1.22c-.56,.18-1.21,.36-1.8,.36-2.09,0-2.79-1.3-2.79-3.26Z"/>
        <path d="M266.6,294.37h1.73l4.81,8.32,1.4,2.72h.09c-.09-1.33-.22-2.81-.22-4.18v-6.86h1.58v13.2h-1.71l-4.81-8.34-1.42-2.72h-.07c.07,1.33,.2,2.74,.2,4.12v6.93h-1.58v-13.2Z"/>
        <path d="M278.71,302.68c0-3.26,2.14-5.15,4.54-5.15s4.54,1.89,4.54,5.15-2.14,5.11-4.54,5.11-4.54-1.87-4.54-5.11Zm7.38,0c0-2.25-1.15-3.78-2.84-3.78s-2.83,1.53-2.83,3.78,1.13,3.75,2.83,3.75,2.84-1.49,2.84-3.75Z"/>
        <path d="M290.31,304.54v-5.42h-1.46v-1.24l1.53-.09,.2-2.74h1.37v2.74h2.65v1.33h-2.65v5.46c0,1.21,.38,1.89,1.51,1.89,.34,0,.79-.13,1.12-.25l.32,1.22c-.56,.18-1.21,.36-1.8,.36-2.09,0-2.79-1.3-2.79-3.26Z"/>
        <path d="M296.5,294.71c0-.67,.49-1.06,1.13-1.06s1.13,.4,1.13,1.06c0,.61-.49,1.06-1.13,1.06s-1.13-.45-1.13-1.06Zm.31,3.08h1.64v9.78h-1.64v-9.78Z"/>
        <path d="M302.02,296.22c0-1.98,.9-3.22,2.84-3.22,.59,0,1.17,.13,1.64,.32l-.36,1.24c-.36-.16-.76-.25-1.1-.25-.94,0-1.39,.67-1.39,1.93v1.55h2.07v1.33h-2.07v8.44h-1.64v-8.44h-1.33v-1.24l1.33-.09v-1.57Zm7.92-1.51c0,.61-.5,1.06-1.15,1.06s-1.12-.45-1.12-1.06c0-.67,.49-1.06,1.12-1.06s1.15,.4,1.15,1.06Zm-1.98,3.08h1.66v9.78h-1.66v-9.78Z"/>
        <path d="M312.18,302.68c0-3.26,2.21-5.15,4.72-5.15,1.28,0,2.16,.54,2.86,1.15l-.85,1.1c-.58-.52-1.17-.88-1.96-.88-1.76,0-3.06,1.53-3.06,3.78s1.22,3.75,3.02,3.75c.9,0,1.69-.41,2.3-.97l.7,1.1c-.86,.79-1.98,1.24-3.15,1.24-2.59,0-4.59-1.87-4.59-5.11Z"/>
        <path d="M321.27,305.03c0-2.12,1.85-3.19,6.01-3.66,0-1.26-.41-2.47-2.02-2.47-1.13,0-2.16,.52-2.94,1.04l-.65-1.13c.9-.58,2.29-1.28,3.85-1.28,2.38,0,3.38,1.6,3.38,4.02v6.01h-1.35l-.14-1.17h-.05c-.94,.77-2.04,1.4-3.24,1.4-1.64,0-2.86-1.01-2.86-2.77Zm6.01,.16v-2.74c-3.29,.4-4.41,1.21-4.41,2.47,0,1.12,.76,1.57,1.73,1.57s1.73-.45,2.68-1.3Z"/>
        <path d="M332.05,304.54v-5.42h-1.46v-1.24l1.53-.09,.2-2.74h1.37v2.74h2.65v1.33h-2.65v5.46c0,1.21,.38,1.89,1.51,1.89,.34,0,.79-.13,1.12-.25l.32,1.22c-.56,.18-1.21,.36-1.8,.36-2.09,0-2.79-1.3-2.79-3.26Z"/>
        <path d="M338.24,294.71c0-.67,.49-1.06,1.13-1.06s1.13,.4,1.13,1.06c0,.61-.49,1.06-1.13,1.06s-1.13-.45-1.13-1.06Zm.31,3.08h1.64v9.78h-1.64v-9.78Z"/>
        <path d="M342.76,302.68c0-3.26,2.14-5.15,4.54-5.15s4.54,1.89,4.54,5.15-2.14,5.11-4.54,5.11-4.54-1.87-4.54-5.11Zm7.38,0c0-2.25-1.15-3.78-2.84-3.78s-2.83,1.53-2.83,3.78,1.13,3.75,2.83,3.75,2.84-1.49,2.84-3.75Z"/>
        <path d="M354.41,297.79h1.35l.14,1.4h.05c.94-.92,1.94-1.66,3.28-1.66,2.05,0,2.99,1.33,2.99,3.83v6.19h-1.64v-5.98c0-1.84-.56-2.61-1.85-2.61-1.01,0-1.69,.5-2.68,1.49v7.09h-1.64v-9.78Z"/>
        <path d="M368.82,305.03c0-2.12,1.85-3.19,6.01-3.66,0-1.26-.42-2.47-2.02-2.47-1.13,0-2.16,.52-2.93,1.04l-.65-1.13c.9-.58,2.29-1.28,3.85-1.28,2.38,0,3.38,1.6,3.38,4.02v6.01h-1.35l-.14-1.17h-.05c-.94,.77-2.04,1.4-3.24,1.4-1.64,0-2.86-1.01-2.86-2.77Zm6.01,.16v-2.74c-3.3,.4-4.41,1.21-4.41,2.47,0,1.12,.76,1.57,1.73,1.57s1.73-.45,2.68-1.3Z"/>
        <path d="M379.59,297.79h1.35l.14,1.4h.05c.94-.92,1.94-1.66,3.28-1.66,2.05,0,2.99,1.33,2.99,3.83v6.19h-1.64v-5.98c0-1.84-.56-2.61-1.85-2.61-1.01,0-1.69,.5-2.68,1.49v7.09h-1.64v-9.78Z"/>
        <path d="M389.88,302.68c0-3.17,2-5.15,4.23-5.15,1.15,0,1.89,.43,2.75,1.15l-.09-1.69v-3.76h1.64v14.33h-1.33l-.16-1.15h-.04c-.77,.76-1.8,1.39-2.97,1.39-2.45,0-4.03-1.85-4.03-5.11Zm6.9,2.39v-5.13c-.83-.74-1.57-1.03-2.38-1.03-1.58,0-2.83,1.51-2.83,3.75,0,2.36,.97,3.76,2.7,3.76,.9,0,1.69-.45,2.5-1.35Z"/>
        <path d="M413.18,307.56l-3.21-5.6h-2.38v5.6h-1.67v-13.2h4.14c2.68,0,4.61,.95,4.61,3.71,0,2.05-1.19,3.28-2.99,3.71l3.38,5.78h-1.89Zm-5.58-6.95h2.21c2.07,0,3.21-.83,3.21-2.54s-1.13-2.36-3.21-2.36h-2.21v4.9Z"/>
        <path d="M416.27,302.68c0-3.17,2.14-5.15,4.41-5.15,2.48,0,3.89,1.8,3.89,4.59,0,.36-.04,.7-.07,.94h-6.59c.11,2.09,1.39,3.42,3.24,3.42,.95,0,1.73-.29,2.45-.77l.59,1.08c-.86,.56-1.91,1.01-3.24,1.01-2.59,0-4.68-1.89-4.68-5.11Zm6.86-.79c0-1.98-.9-3.04-2.43-3.04-1.39,0-2.61,1.12-2.81,3.04h5.24Z"/>
        <path d="M425.88,306.45l.81-1.08c.85,.68,1.73,1.15,2.9,1.15,1.3,0,1.93-.68,1.93-1.53,0-.99-1.15-1.44-2.23-1.85-1.37-.5-2.92-1.17-2.92-2.83,0-1.55,1.24-2.77,3.37-2.77,1.21,0,2.27,.5,3.04,1.1l-.79,1.06c-.68-.5-1.37-.86-2.25-.86-1.22,0-1.78,.65-1.78,1.4,0,.94,1.06,1.28,2.16,1.69,1.42,.54,2.99,1.12,2.99,2.97,0,1.58-1.26,2.9-3.57,2.9-1.39,0-2.72-.58-3.65-1.35Z"/>
        <path d="M435.41,297.79h1.35l.14,1.12h.05c.88-.72,1.98-1.37,3.12-1.37,2.52,0,3.89,1.98,3.89,4.99,0,3.35-2,5.28-4.25,5.28-.88,0-1.82-.41-2.7-1.13l.04,1.71v3.31h-1.64v-13.9Zm6.84,4.75c0-2.16-.72-3.62-2.58-3.62-.83,0-1.67,.47-2.63,1.35v5.13c.88,.76,1.75,1.03,2.39,1.03,1.62,0,2.81-1.46,2.81-3.89Z"/>
        <path d="M445.83,302.68c0-3.26,2.14-5.15,4.54-5.15s4.54,1.89,4.54,5.15-2.14,5.11-4.54,5.11-4.54-1.87-4.54-5.11Zm7.38,0c0-2.25-1.15-3.78-2.84-3.78s-2.83,1.53-2.83,3.78,1.13,3.75,2.83,3.75,2.84-1.49,2.84-3.75Z"/>
        <path d="M457.47,297.79h1.35l.14,1.4h.05c.94-.92,1.94-1.66,3.28-1.66,2.05,0,2.99,1.33,2.99,3.83v6.19h-1.64v-5.98c0-1.84-.56-2.61-1.85-2.61-1.01,0-1.69,.5-2.68,1.49v7.09h-1.64v-9.78Z"/>
        <path d="M467.37,306.45l.81-1.08c.85,.68,1.73,1.15,2.9,1.15,1.3,0,1.93-.68,1.93-1.53,0-.99-1.15-1.44-2.23-1.85-1.37-.5-2.92-1.17-2.92-2.83,0-1.55,1.24-2.77,3.37-2.77,1.21,0,2.27,.5,3.04,1.1l-.79,1.06c-.68-.5-1.37-.86-2.25-.86-1.22,0-1.78,.65-1.78,1.4,0,.94,1.06,1.28,2.16,1.69,1.42,.54,2.99,1.12,2.99,2.97,0,1.58-1.26,2.9-3.57,2.9-1.39,0-2.72-.58-3.65-1.35Z"/>
        <path d="M476.16,302.68c0-3.17,2.14-5.15,4.41-5.15,2.49,0,3.89,1.8,3.89,4.59,0,.36-.04,.7-.07,.94h-6.59c.11,2.09,1.39,3.42,3.24,3.42,.95,0,1.73-.29,2.45-.77l.59,1.08c-.86,.56-1.91,1.01-3.24,1.01-2.59,0-4.68-1.89-4.68-5.11Zm6.86-.79c0-1.98-.9-3.04-2.43-3.04-1.39,0-2.61,1.12-2.81,3.04h5.24Z"/>
        <path d="M194.4,314.37h3.31c4.05,0,6.23,2.36,6.23,6.55s-2.18,6.64-6.16,6.64h-3.38v-13.2Zm3.17,11.83c3.11,0,4.65-1.94,4.65-5.28s-1.53-5.2-4.65-5.2h-1.5v10.48h1.5Z"/>
        <path d="M206.31,314.71c0-.67,.49-1.06,1.13-1.06s1.13,.4,1.13,1.06c0,.61-.49,1.06-1.13,1.06s-1.13-.45-1.13-1.06Zm.31,3.08h1.64v9.78h-1.64v-9.78Z"/>
        <path d="M210.15,317.79h1.71l1.84,5.56c.31,.95,.61,1.96,.92,2.88h.07c.29-.92,.61-1.93,.9-2.88l1.85-5.56h1.62l-3.47,9.78h-1.91l-3.53-9.78Z"/>
        <path d="M220.64,314.71c0-.67,.49-1.06,1.13-1.06s1.13,.4,1.13,1.06c0,.61-.49,1.06-1.13,1.06s-1.13-.45-1.13-1.06Zm.31,3.08h1.64v9.78h-1.64v-9.78Z"/>
        <path d="M224.8,326.45l.81-1.08c.85,.68,1.73,1.15,2.9,1.15,1.3,0,1.93-.68,1.93-1.53,0-.99-1.15-1.44-2.23-1.85-1.37-.5-2.92-1.17-2.92-2.83,0-1.55,1.24-2.77,3.37-2.77,1.21,0,2.27,.5,3.04,1.1l-.79,1.06c-.68-.5-1.37-.86-2.25-.86-1.22,0-1.78,.65-1.78,1.4,0,.94,1.06,1.28,2.16,1.69,1.42,.54,2.99,1.12,2.99,2.97,0,1.58-1.26,2.9-3.57,2.9-1.39,0-2.72-.58-3.65-1.35Z"/>
        <path d="M234.01,314.71c0-.67,.49-1.06,1.13-1.06s1.13,.4,1.13,1.06c0,.61-.49,1.06-1.13,1.06s-1.13-.45-1.13-1.06Zm.31,3.08h1.64v9.78h-1.64v-9.78Z"/>
        <path d="M238.53,322.68c0-3.26,2.14-5.15,4.54-5.15s4.54,1.89,4.54,5.15-2.14,5.11-4.54,5.11-4.54-1.87-4.54-5.11Zm7.38,0c0-2.25-1.15-3.78-2.84-3.78s-2.83,1.53-2.83,3.78,1.13,3.75,2.83,3.75,2.84-1.49,2.84-3.75Z"/>
        <path d="M250.18,317.79h1.35l.14,1.4h.05c.94-.92,1.94-1.66,3.28-1.66,2.05,0,2.99,1.33,2.99,3.83v6.19h-1.64v-5.98c0-1.84-.56-2.61-1.85-2.61-1.01,0-1.69,.5-2.68,1.49v7.09h-1.64v-9.78Z"/>
        <path class="cls-7" d="M172.42,344.65l10.64,6.75v.07l-10.64,6.75h-.03v-13.56h.03Z"/>
        <path d="M196.02,345.77h-4v-1.4h9.67v1.4h-4v11.79h-1.67v-11.79Z"/>
        <path d="M202.97,347.79h1.35l.14,1.78h.05c.68-1.24,1.67-2.03,2.77-2.03,.43,0,.74,.05,1.04,.22l-.31,1.44c-.32-.13-.56-.16-.95-.16-.81,0-1.82,.58-2.47,2.25v6.28h-1.64v-9.78Z"/>
        <path d="M208.85,355.03c0-2.12,1.85-3.19,6.01-3.66,0-1.26-.41-2.47-2.02-2.47-1.13,0-2.16,.52-2.94,1.04l-.65-1.13c.9-.58,2.29-1.28,3.85-1.28,2.38,0,3.38,1.6,3.38,4.02v6.01h-1.35l-.14-1.17h-.05c-.94,.77-2.04,1.4-3.24,1.4-1.64,0-2.86-1.01-2.86-2.77Zm6.01,.16v-2.74c-3.29,.4-4.41,1.21-4.41,2.47,0,1.12,.76,1.57,1.73,1.57s1.73-.45,2.68-1.3Z"/>
        <path d="M219.31,344.71c0-.67,.49-1.06,1.13-1.06s1.13,.4,1.13,1.06c0,.61-.49,1.06-1.13,1.06s-1.13-.45-1.13-1.06Zm.31,3.08h1.64v9.78h-1.64v-9.78Z"/>
        <path d="M224.57,347.79h1.35l.14,1.4h.05c.94-.92,1.94-1.66,3.28-1.66,2.05,0,2.99,1.33,2.99,3.83v6.19h-1.64v-5.98c0-1.84-.56-2.61-1.85-2.61-1.01,0-1.69,.5-2.68,1.49v7.09h-1.64v-9.78Z"/>
        <path d="M235.26,344.71c0-.67,.49-1.06,1.13-1.06s1.13,.4,1.13,1.06c0,.61-.49,1.06-1.13,1.06s-1.13-.45-1.13-1.06Zm.31,3.08h1.64v9.78h-1.64v-9.78Z"/>
        <path d="M240.52,347.79h1.35l.14,1.4h.05c.94-.92,1.94-1.66,3.28-1.66,2.05,0,2.99,1.33,2.99,3.83v6.19h-1.64v-5.98c0-1.84-.56-2.61-1.85-2.61-1.01,0-1.69,.5-2.68,1.49v7.09h-1.64v-9.78Z"/>
        <path d="M250.76,359.44c0-.83,.54-1.62,1.46-2.21v-.07c-.52-.31-.9-.83-.9-1.6s.59-1.46,1.1-1.82v-.07c-.65-.52-1.28-1.46-1.28-2.63,0-2.14,1.69-3.49,3.67-3.49,.54,0,1.03,.13,1.37,.25h3.4v1.26h-2c.47,.45,.79,1.17,.79,2.02,0,2.09-1.58,3.4-3.57,3.4-.49,0-1.03-.13-1.46-.34-.36,.31-.63,.63-.63,1.17,0,.63,.4,1.06,1.71,1.06h1.91c2.27,0,3.4,.72,3.4,2.32,0,1.82-1.91,3.39-4.93,3.39-2.39,0-4.05-.94-4.05-2.63Zm7.4-.5c0-.9-.7-1.21-2-1.21h-1.69c-.36,0-.83-.05-1.26-.16-.7,.5-1.01,1.08-1.01,1.66,0,1.04,1.06,1.73,2.84,1.73,1.87,0,3.12-.99,3.12-2.02Zm-1.28-7.9c0-1.42-.92-2.29-2.07-2.29s-2.09,.85-2.09,2.29,.95,2.32,2.09,2.32,2.07-.9,2.07-2.32Z"/>
        <path d="M265.83,344.37h3.31c4.05,0,6.23,2.36,6.23,6.55s-2.18,6.64-6.16,6.64h-3.38v-13.2Zm3.17,11.83c3.11,0,4.65-1.94,4.65-5.28s-1.53-5.2-4.65-5.2h-1.5v10.48h1.5Z"/>
        <path d="M277.74,344.71c0-.67,.49-1.06,1.13-1.06s1.13,.4,1.13,1.06c0,.61-.49,1.06-1.13,1.06s-1.13-.45-1.13-1.06Zm.31,3.08h1.64v9.78h-1.64v-9.78Z"/>
        <path d="M281.58,347.79h1.71l1.84,5.56c.31,.95,.61,1.96,.92,2.88h.07c.29-.92,.61-1.93,.9-2.88l1.85-5.56h1.62l-3.47,9.78h-1.91l-3.53-9.78Z"/>
        <path d="M292.07,344.71c0-.67,.49-1.06,1.13-1.06s1.13,.4,1.13,1.06c0,.61-.49,1.06-1.13,1.06s-1.13-.45-1.13-1.06Zm.31,3.08h1.64v9.78h-1.64v-9.78Z"/>
        <path d="M296.23,356.45l.81-1.08c.85,.68,1.73,1.15,2.9,1.15,1.3,0,1.93-.68,1.93-1.53,0-.99-1.15-1.44-2.23-1.85-1.37-.5-2.92-1.17-2.92-2.83,0-1.55,1.24-2.77,3.37-2.77,1.21,0,2.27,.5,3.04,1.1l-.79,1.06c-.68-.5-1.37-.86-2.25-.86-1.22,0-1.78,.65-1.78,1.4,0,.94,1.06,1.28,2.16,1.69,1.42,.54,2.99,1.12,2.99,2.97,0,1.58-1.26,2.9-3.57,2.9-1.39,0-2.72-.58-3.65-1.35Z"/>
        <path d="M305.44,344.71c0-.67,.49-1.06,1.13-1.06s1.13,.4,1.13,1.06c0,.61-.49,1.06-1.13,1.06s-1.13-.45-1.13-1.06Zm.31,3.08h1.64v9.78h-1.64v-9.78Z"/>
        <path d="M309.96,352.68c0-3.26,2.14-5.15,4.54-5.15s4.54,1.89,4.54,5.15-2.14,5.11-4.54,5.11-4.54-1.87-4.54-5.11Zm7.38,0c0-2.25-1.15-3.78-2.84-3.78s-2.83,1.53-2.83,3.78,1.13,3.75,2.83,3.75,2.84-1.49,2.84-3.75Z"/>
        <path d="M321.61,347.79h1.35l.14,1.4h.05c.94-.92,1.94-1.66,3.28-1.66,2.05,0,2.99,1.33,2.99,3.83v6.19h-1.64v-5.98c0-1.84-.56-2.61-1.85-2.61-1.01,0-1.69,.5-2.68,1.49v7.09h-1.64v-9.78Z"/>
        <path class="cls-7" d="M172.42,374.65l10.64,6.75v.07l-10.64,6.75h-.03v-13.56h.03Z"/>
        <path d="M192.51,380.97c0-4.27,2.5-6.86,5.85-6.86,1.6,0,2.86,.79,3.62,1.64l-.9,1.08c-.68-.74-1.57-1.26-2.7-1.26-2.5,0-4.16,2.05-4.16,5.35s1.58,5.42,4.11,5.42c1.26,0,2.21-.56,3.06-1.48l.92,1.04c-1.04,1.21-2.34,1.89-4.05,1.89-3.28,0-5.74-2.54-5.74-6.82Z"/>
        <path d="M203.35,391.58l.32-1.31c.2,.07,.49,.16,.74,.16,1.12,0,1.82-.9,2.21-2.11l.22-.74-3.92-9.79h1.71l2,5.44c.29,.85,.63,1.85,.94,2.74h.09c.27-.88,.56-1.87,.83-2.74l1.75-5.44h1.6l-3.69,10.59c-.68,1.93-1.69,3.4-3.64,3.4-.47,0-.85-.07-1.15-.2Z"/>
        <path d="M215.23,386.56h-.05l-.14,1.01h-1.31v-14.33h1.64v3.92l-.05,1.76c.88-.77,1.98-1.39,3.06-1.39,2.54,0,3.91,1.98,3.91,4.97,0,3.37-2,5.29-4.25,5.29-.9,0-1.93-.45-2.79-1.24Zm5.33-4.02c0-2.16-.72-3.62-2.58-3.62-.83,0-1.69,.47-2.63,1.35v5.13c.86,.76,1.75,1.03,2.39,1.03,1.62,0,2.81-1.46,2.81-3.89Z"/>
        <path d="M224.1,382.68c0-3.17,2.14-5.15,4.41-5.15,2.48,0,3.89,1.8,3.89,4.59,0,.36-.04,.7-.07,.94h-6.59c.11,2.09,1.39,3.42,3.24,3.42,.95,0,1.73-.29,2.45-.77l.59,1.08c-.86,.56-1.91,1.01-3.24,1.01-2.59,0-4.68-1.89-4.68-5.11Zm6.86-.79c0-1.98-.9-3.04-2.43-3.04-1.39,0-2.61,1.12-2.81,3.04h5.24Z"/>
        <path d="M234.81,377.79h1.35l.14,1.78h.05c.68-1.24,1.67-2.03,2.77-2.03,.43,0,.74,.05,1.04,.22l-.31,1.44c-.32-.13-.56-.16-.95-.16-.81,0-1.82,.58-2.47,2.25v6.28h-1.64v-9.78Z"/>
        <path d="M245.02,385.84l.99-1.13c.95,.99,2.29,1.64,3.65,1.64,1.73,0,2.77-.86,2.77-2.16s-.95-1.78-2.2-2.34l-1.91-.83c-1.22-.52-2.68-1.46-2.68-3.39,0-2.03,1.76-3.51,4.16-3.51,1.57,0,2.95,.67,3.89,1.64l-.88,1.06c-.81-.76-1.78-1.24-3.01-1.24-1.49,0-2.47,.76-2.47,1.94,0,1.28,1.15,1.76,2.18,2.2l1.89,.81c1.53,.67,2.72,1.57,2.72,3.53,0,2.09-1.73,3.75-4.48,3.75-1.87,0-3.47-.76-4.63-1.96Z"/>
        <path d="M255.83,382.68c0-3.17,2.14-5.15,4.41-5.15,2.49,0,3.89,1.8,3.89,4.59,0,.36-.04,.7-.07,.94h-6.59c.11,2.09,1.39,3.42,3.24,3.42,.95,0,1.73-.29,2.45-.77l.59,1.08c-.86,.56-1.91,1.01-3.24,1.01-2.59,0-4.68-1.89-4.68-5.11Zm6.86-.79c0-1.98-.9-3.04-2.43-3.04-1.39,0-2.61,1.12-2.81,3.04h5.24Z"/>
        <path d="M265.8,382.68c0-3.26,2.21-5.15,4.72-5.15,1.28,0,2.16,.54,2.86,1.15l-.85,1.1c-.58-.52-1.17-.88-1.96-.88-1.76,0-3.06,1.53-3.06,3.78s1.22,3.75,3.02,3.75c.9,0,1.69-.41,2.3-.97l.7,1.1c-.86,.79-1.98,1.24-3.15,1.24-2.59,0-4.59-1.87-4.59-5.11Z"/>
        <path d="M275.58,383.98v-6.19h1.64v6c0,1.82,.54,2.59,1.84,2.59,1.01,0,1.71-.49,2.65-1.66v-6.93h1.64v9.78h-1.37l-.13-1.53h-.05c-.92,1.06-1.89,1.76-3.24,1.76-2.05,0-2.97-1.33-2.97-3.82Z"/>
        <path d="M286.63,377.79h1.35l.14,1.78h.05c.68-1.24,1.67-2.03,2.77-2.03,.43,0,.74,.05,1.04,.22l-.31,1.44c-.32-.13-.56-.16-.95-.16-.81,0-1.82,.58-2.47,2.25v6.28h-1.64v-9.78Z"/>
        <path d="M293.31,374.71c0-.67,.49-1.06,1.13-1.06s1.13,.4,1.13,1.06c0,.61-.49,1.06-1.13,1.06s-1.13-.45-1.13-1.06Zm.31,3.08h1.64v9.78h-1.64v-9.78Z"/>
        <path d="M298.85,384.54v-5.42h-1.46v-1.24l1.53-.09,.2-2.74h1.37v2.74h2.65v1.33h-2.65v5.46c0,1.21,.38,1.89,1.51,1.89,.34,0,.79-.13,1.12-.25l.32,1.22c-.56,.18-1.21,.36-1.8,.36-2.09,0-2.79-1.3-2.79-3.26Z"/>
        <path d="M304.36,391.58l.32-1.31c.2,.07,.49,.16,.74,.16,1.12,0,1.82-.9,2.21-2.11l.22-.74-3.92-9.79h1.71l2,5.44c.29,.85,.63,1.85,.94,2.74h.09c.27-.88,.56-1.87,.83-2.74l1.75-5.44h1.6l-3.69,10.59c-.68,1.93-1.69,3.4-3.64,3.4-.47,0-.85-.07-1.15-.2Z"/>
        <path d="M324.95,383.53h-4.83l-1.28,4.03h-1.69l4.48-13.2h1.85l4.48,13.2h-1.76l-1.26-4.03Zm-.41-1.33l-.63-2.02c-.49-1.49-.9-2.93-1.33-4.47h-.07c-.41,1.55-.85,2.97-1.31,4.47l-.65,2.02h4Z"/>
        <path d="M329.43,383.98v-6.19h1.64v6c0,1.82,.54,2.59,1.84,2.59,1.01,0,1.71-.49,2.65-1.66v-6.93h1.64v9.78h-1.37l-.13-1.53h-.05c-.92,1.06-1.89,1.76-3.24,1.76-2.05,0-2.97-1.33-2.97-3.82Z"/>
        <path d="M339.78,382.68c0-3.17,2-5.15,4.23-5.15,1.15,0,1.89,.43,2.75,1.15l-.09-1.69v-3.76h1.64v14.33h-1.33l-.16-1.15h-.04c-.77,.76-1.8,1.39-2.97,1.39-2.45,0-4.03-1.85-4.03-5.11Zm6.9,2.39v-5.13c-.83-.74-1.57-1.03-2.38-1.03-1.58,0-2.83,1.51-2.83,3.75,0,2.36,.97,3.76,2.7,3.76,.9,0,1.69-.45,2.5-1.35Z"/>
        <path d="M351.34,374.71c0-.67,.49-1.06,1.13-1.06s1.13,.4,1.13,1.06c0,.61-.49,1.06-1.13,1.06s-1.13-.45-1.13-1.06Zm.31,3.08h1.64v9.78h-1.64v-9.78Z"/>
        <path d="M356.88,384.54v-5.42h-1.46v-1.24l1.53-.09,.2-2.74h1.37v2.74h2.65v1.33h-2.65v5.46c0,1.21,.38,1.89,1.51,1.89,.34,0,.79-.13,1.12-.25l.32,1.22c-.56,.18-1.21,.36-1.8,.36-2.09,0-2.79-1.3-2.79-3.26Z"/>
        <path d="M367.56,374.37h3.31c4.05,0,6.23,2.36,6.23,6.55s-2.18,6.64-6.16,6.64h-3.38v-13.2Zm3.17,11.83c3.11,0,4.65-1.94,4.65-5.28s-1.53-5.2-4.65-5.2h-1.5v10.48h1.5Z"/>
        <path d="M379.48,374.71c0-.67,.49-1.06,1.13-1.06s1.13,.4,1.13,1.06c0,.61-.49,1.06-1.13,1.06s-1.13-.45-1.13-1.06Zm.31,3.08h1.64v9.78h-1.64v-9.78Z"/>
        <path d="M383.31,377.79h1.71l1.84,5.56c.31,.95,.61,1.96,.92,2.88h.07c.29-.92,.61-1.93,.9-2.88l1.85-5.56h1.62l-3.47,9.78h-1.91l-3.53-9.78Z"/>
        <path d="M393.8,374.71c0-.67,.49-1.06,1.13-1.06s1.13,.4,1.13,1.06c0,.61-.49,1.06-1.13,1.06s-1.13-.45-1.13-1.06Zm.31,3.08h1.64v9.78h-1.64v-9.78Z"/>
        <path d="M397.96,386.45l.81-1.08c.85,.68,1.73,1.15,2.9,1.15,1.3,0,1.93-.68,1.93-1.53,0-.99-1.15-1.44-2.23-1.85-1.37-.5-2.92-1.17-2.92-2.83,0-1.55,1.24-2.77,3.37-2.77,1.21,0,2.27,.5,3.04,1.1l-.79,1.06c-.68-.5-1.37-.86-2.25-.86-1.22,0-1.78,.65-1.78,1.4,0,.94,1.06,1.28,2.16,1.69,1.42,.54,2.99,1.12,2.99,2.97,0,1.58-1.26,2.9-3.57,2.9-1.39,0-2.72-.58-3.65-1.35Z"/>
        <path d="M407.18,374.71c0-.67,.49-1.06,1.13-1.06s1.13,.4,1.13,1.06c0,.61-.49,1.06-1.13,1.06s-1.13-.45-1.13-1.06Zm.31,3.08h1.64v9.78h-1.64v-9.78Z"/>
        <path d="M411.7,382.68c0-3.26,2.14-5.15,4.54-5.15s4.54,1.89,4.54,5.15-2.14,5.11-4.54,5.11-4.54-1.87-4.54-5.11Zm7.38,0c0-2.25-1.15-3.78-2.84-3.78s-2.83,1.53-2.83,3.78,1.13,3.75,2.83,3.75,2.84-1.49,2.84-3.75Z"/>
        <path d="M423.34,377.79h1.35l.14,1.4h.05c.94-.92,1.94-1.66,3.28-1.66,2.05,0,2.99,1.33,2.99,3.83v6.19h-1.64v-5.98c0-1.84-.56-2.61-1.85-2.61-1.01,0-1.69,.5-2.68,1.49v7.09h-1.64v-9.78Z"/>
        <path class="cls-7" d="M172.42,404.65l10.64,6.75v.07l-10.64,6.75h-.03v-13.56h.03Z"/>
        <path d="M200.52,417.56l-3.21-5.6h-2.38v5.6h-1.67v-13.2h4.14c2.68,0,4.61,.95,4.61,3.71,0,2.05-1.19,3.28-2.99,3.71l3.38,5.78h-1.89Zm-5.58-6.95h2.21c2.07,0,3.21-.83,3.21-2.54s-1.13-2.36-3.21-2.36h-2.21v4.9Z"/>
        <path d="M203.62,412.68c0-3.17,2.14-5.15,4.41-5.15,2.48,0,3.89,1.8,3.89,4.59,0,.36-.04,.7-.07,.94h-6.59c.11,2.09,1.39,3.42,3.24,3.42,.95,0,1.73-.29,2.45-.77l.59,1.08c-.86,.56-1.91,1.01-3.24,1.01-2.59,0-4.68-1.89-4.68-5.11Zm6.86-.79c0-1.98-.9-3.04-2.43-3.04-1.39,0-2.61,1.12-2.81,3.04h5.24Z"/>
        <path d="M213.37,419.44c0-.83,.54-1.62,1.46-2.21v-.07c-.52-.31-.9-.83-.9-1.6s.59-1.46,1.1-1.82v-.07c-.65-.52-1.28-1.46-1.28-2.63,0-2.14,1.69-3.49,3.67-3.49,.54,0,1.03,.13,1.37,.25h3.4v1.26h-2c.47,.45,.79,1.17,.79,2.02,0,2.09-1.58,3.4-3.57,3.4-.49,0-1.03-.13-1.46-.34-.36,.31-.63,.63-.63,1.17,0,.63,.4,1.06,1.71,1.06h1.91c2.27,0,3.4,.72,3.4,2.32,0,1.82-1.91,3.39-4.93,3.39-2.39,0-4.05-.94-4.05-2.63Zm7.4-.5c0-.9-.7-1.21-2-1.21h-1.69c-.36,0-.83-.05-1.26-.16-.7,.5-1.01,1.08-1.01,1.66,0,1.04,1.06,1.73,2.84,1.73,1.87,0,3.12-.99,3.12-2.02Zm-1.28-7.9c0-1.42-.92-2.29-2.07-2.29s-2.09,.85-2.09,2.29,.95,2.32,2.09,2.32,2.07-.9,2.07-2.32Z"/>
        <path d="M224.14,413.98v-6.19h1.64v6c0,1.82,.54,2.59,1.84,2.59,1.01,0,1.71-.49,2.65-1.66v-6.93h1.64v9.78h-1.37l-.13-1.53h-.05c-.92,1.06-1.89,1.76-3.24,1.76-2.05,0-2.97-1.33-2.97-3.82Z"/>
        <path d="M235.19,415.62v-12.39h1.64v12.5c0,.5,.22,.7,.47,.7,.09,0,.16,0,.34-.04l.23,1.26c-.23,.09-.52,.14-.95,.14-1.22,0-1.73-.79-1.73-2.18Z"/>
        <path d="M239.7,415.03c0-2.12,1.85-3.19,6.01-3.66,0-1.26-.41-2.47-2.02-2.47-1.13,0-2.16,.52-2.94,1.04l-.65-1.13c.9-.58,2.29-1.28,3.85-1.28,2.38,0,3.38,1.6,3.38,4.02v6.01h-1.35l-.14-1.17h-.05c-.94,.77-2.04,1.4-3.24,1.4-1.64,0-2.86-1.01-2.86-2.77Zm6.01,.16v-2.74c-3.29,.4-4.41,1.21-4.41,2.47,0,1.12,.76,1.57,1.73,1.57s1.73-.45,2.68-1.3Z"/>
        <path d="M250.49,414.54v-5.42h-1.46v-1.24l1.53-.09,.2-2.74h1.37v2.74h2.65v1.33h-2.65v5.46c0,1.21,.38,1.89,1.51,1.89,.34,0,.79-.13,1.12-.25l.32,1.22c-.56,.18-1.21,.36-1.8,.36-2.09,0-2.79-1.3-2.79-3.26Z"/>
        <path d="M256.68,404.71c0-.67,.49-1.06,1.13-1.06s1.13,.4,1.13,1.06c0,.61-.49,1.06-1.13,1.06s-1.13-.45-1.13-1.06Zm.31,3.08h1.64v9.78h-1.64v-9.78Z"/>
        <path d="M261.2,412.68c0-3.26,2.14-5.15,4.54-5.15s4.54,1.89,4.54,5.15-2.14,5.11-4.54,5.11-4.54-1.87-4.54-5.11Zm7.38,0c0-2.25-1.15-3.78-2.84-3.78s-2.83,1.53-2.83,3.78,1.13,3.75,2.83,3.75,2.84-1.49,2.84-3.75Z"/>
        <path d="M272.84,407.79h1.35l.14,1.4h.05c.94-.92,1.94-1.66,3.28-1.66,2.05,0,2.99,1.33,2.99,3.83v6.19h-1.64v-5.98c0-1.84-.56-2.61-1.85-2.61-1.01,0-1.69,.5-2.68,1.49v7.09h-1.64v-9.78Z"/>
        <path d="M287.26,415.03c0-2.12,1.85-3.19,6.01-3.66,0-1.26-.42-2.47-2.02-2.47-1.13,0-2.16,.52-2.93,1.04l-.65-1.13c.9-.58,2.29-1.28,3.85-1.28,2.38,0,3.38,1.6,3.38,4.02v6.01h-1.35l-.14-1.17h-.05c-.94,.77-2.04,1.4-3.24,1.4-1.64,0-2.86-1.01-2.86-2.77Zm6.01,.16v-2.74c-3.3,.4-4.41,1.21-4.41,2.47,0,1.12,.76,1.57,1.73,1.57s1.73-.45,2.68-1.3Z"/>
        <path d="M298.03,407.79h1.35l.14,1.4h.05c.94-.92,1.94-1.66,3.28-1.66,2.05,0,2.99,1.33,2.99,3.83v6.19h-1.64v-5.98c0-1.84-.56-2.61-1.85-2.61-1.01,0-1.69,.5-2.68,1.49v7.09h-1.64v-9.78Z"/>
        <path d="M308.32,412.68c0-3.17,2-5.15,4.23-5.15,1.15,0,1.89,.43,2.75,1.15l-.09-1.69v-3.76h1.64v14.33h-1.33l-.16-1.15h-.04c-.77,.76-1.8,1.39-2.97,1.39-2.45,0-4.03-1.85-4.03-5.11Zm6.9,2.39v-5.13c-.83-.74-1.57-1.03-2.38-1.03-1.58,0-2.83,1.51-2.83,3.75,0,2.36,.97,3.76,2.7,3.76,.9,0,1.69-.45,2.5-1.35Z"/>
        <path d="M324.36,404.37h1.67v13.2h-1.67v-13.2Z"/>
        <path d="M329.49,407.79h1.35l.14,1.4h.05c.94-.92,1.94-1.66,3.28-1.66,2.05,0,2.99,1.33,2.99,3.83v6.19h-1.64v-5.98c0-1.84-.56-2.61-1.85-2.61-1.01,0-1.69,.5-2.68,1.49v7.09h-1.64v-9.78Z"/>
        <path d="M340.78,414.54v-5.42h-1.46v-1.24l1.53-.09,.2-2.74h1.37v2.74h2.65v1.33h-2.65v5.46c0,1.21,.38,1.89,1.51,1.89,.34,0,.79-.13,1.12-.25l.32,1.22c-.56,.18-1.21,.36-1.8,.36-2.09,0-2.79-1.3-2.79-3.26Z"/>
        <path d="M346.27,412.68c0-3.17,2.14-5.15,4.41-5.15,2.48,0,3.89,1.8,3.89,4.59,0,.36-.04,.7-.07,.94h-6.59c.11,2.09,1.39,3.42,3.24,3.42,.95,0,1.73-.29,2.45-.77l.59,1.08c-.86,.56-1.91,1.01-3.24,1.01-2.59,0-4.68-1.89-4.68-5.11Zm6.86-.79c0-1.98-.9-3.04-2.43-3.04-1.39,0-2.61,1.12-2.81,3.04h5.24Z"/>
        <path d="M356.98,407.79h1.35l.14,1.78h.05c.68-1.24,1.67-2.03,2.77-2.03,.43,0,.74,.05,1.04,.22l-.31,1.44c-.32-.13-.56-.16-.95-.16-.81,0-1.82,.58-2.47,2.25v6.28h-1.64v-9.78Z"/>
        <path d="M363.96,407.79h1.35l.14,1.4h.05c.94-.92,1.94-1.66,3.28-1.66,2.05,0,2.99,1.33,2.99,3.83v6.19h-1.64v-5.98c0-1.84-.56-2.61-1.85-2.61-1.01,0-1.69,.5-2.68,1.49v7.09h-1.64v-9.78Z"/>
        <path d="M374.35,415.03c0-2.12,1.85-3.19,6.01-3.66,0-1.26-.42-2.47-2.02-2.47-1.13,0-2.16,.52-2.93,1.04l-.65-1.13c.9-.58,2.29-1.28,3.85-1.28,2.38,0,3.38,1.6,3.38,4.02v6.01h-1.35l-.14-1.17h-.05c-.94,.77-2.04,1.4-3.24,1.4-1.64,0-2.86-1.01-2.86-2.77Zm6.01,.16v-2.74c-3.3,.4-4.41,1.21-4.41,2.47,0,1.12,.76,1.57,1.73,1.57s1.73-.45,2.68-1.3Z"/>
        <path d="M385.13,414.54v-5.42h-1.46v-1.24l1.53-.09,.2-2.74h1.37v2.74h2.65v1.33h-2.65v5.46c0,1.21,.38,1.89,1.51,1.89,.34,0,.79-.13,1.12-.25l.32,1.22c-.56,.18-1.21,.36-1.8,.36-2.09,0-2.79-1.3-2.79-3.26Z"/>
        <path d="M391.32,404.71c0-.67,.49-1.06,1.13-1.06s1.13,.4,1.13,1.06c0,.61-.49,1.06-1.13,1.06s-1.13-.45-1.13-1.06Zm.31,3.08h1.64v9.78h-1.64v-9.78Z"/>
        <path d="M395.84,412.68c0-3.26,2.14-5.15,4.54-5.15s4.54,1.89,4.54,5.15-2.14,5.11-4.54,5.11-4.54-1.87-4.54-5.11Zm7.38,0c0-2.25-1.15-3.78-2.84-3.78s-2.83,1.53-2.83,3.78,1.13,3.75,2.83,3.75,2.84-1.49,2.84-3.75Z"/>
        <path d="M407.49,407.79h1.35l.14,1.4h.05c.94-.92,1.94-1.66,3.28-1.66,2.05,0,2.99,1.33,2.99,3.83v6.19h-1.64v-5.98c0-1.84-.56-2.61-1.85-2.61-1.01,0-1.69,.5-2.68,1.49v7.09h-1.64v-9.78Z"/>
        <path d="M417.87,415.03c0-2.12,1.85-3.19,6.01-3.66,0-1.26-.42-2.47-2.02-2.47-1.13,0-2.16,.52-2.93,1.04l-.65-1.13c.9-.58,2.29-1.28,3.85-1.28,2.38,0,3.38,1.6,3.38,4.02v6.01h-1.35l-.14-1.17h-.05c-.94,.77-2.04,1.4-3.24,1.4-1.64,0-2.86-1.01-2.86-2.77Zm6.01,.16v-2.74c-3.3,.4-4.41,1.21-4.41,2.47,0,1.12,.76,1.57,1.73,1.57s1.73-.45,2.68-1.3Z"/>
        <path d="M428.64,415.62v-12.39h1.64v12.5c0,.5,.22,.7,.47,.7,.09,0,.16,0,.34-.04l.23,1.26c-.23,.09-.52,.14-.95,.14-1.22,0-1.73-.79-1.73-2.18Z"/>
        <path d="M193.64,430.97c0-4.27,2.5-6.86,5.85-6.86,1.6,0,2.86,.79,3.62,1.64l-.9,1.08c-.68-.74-1.57-1.26-2.7-1.26-2.5,0-4.16,2.05-4.16,5.35s1.58,5.42,4.11,5.42c1.26,0,2.21-.56,3.06-1.48l.92,1.04c-1.04,1.21-2.34,1.89-4.05,1.89-3.28,0-5.74-2.54-5.74-6.82Z"/>
        <path d="M205,432.68c0-3.26,2.14-5.15,4.54-5.15s4.54,1.89,4.54,5.15-2.14,5.11-4.54,5.11-4.54-1.87-4.54-5.11Zm7.38,0c0-2.25-1.15-3.78-2.84-3.78s-2.83,1.53-2.83,3.78,1.13,3.75,2.83,3.75,2.84-1.49,2.84-3.75Z"/>
        <path d="M215.91,432.68c0-3.26,2.14-5.15,4.54-5.15s4.54,1.89,4.54,5.15-2.14,5.11-4.54,5.11-4.54-1.87-4.54-5.11Zm7.38,0c0-2.25-1.15-3.78-2.84-3.78s-2.83,1.53-2.83,3.78,1.13,3.75,2.83,3.75,2.84-1.49,2.84-3.75Z"/>
        <path d="M227.55,427.79h1.35l.14,1.12h.05c.88-.72,1.98-1.37,3.12-1.37,2.52,0,3.89,1.98,3.89,4.99,0,3.35-2,5.28-4.25,5.28-.88,0-1.82-.41-2.7-1.13l.04,1.71v3.31h-1.64v-13.9Zm6.84,4.75c0-2.16-.72-3.62-2.58-3.62-.83,0-1.67,.47-2.63,1.35v5.13c.88,.76,1.75,1.03,2.39,1.03,1.62,0,2.81-1.46,2.81-3.89Z"/>
        <path d="M237.97,432.68c0-3.17,2.14-5.15,4.41-5.15,2.49,0,3.89,1.8,3.89,4.59,0,.36-.04,.7-.07,.94h-6.59c.11,2.09,1.39,3.42,3.24,3.42,.95,0,1.73-.29,2.45-.77l.59,1.08c-.86,.56-1.91,1.01-3.24,1.01-2.59,0-4.68-1.89-4.68-5.11Zm6.86-.79c0-1.98-.9-3.04-2.43-3.04-1.39,0-2.61,1.12-2.81,3.04h5.24Z"/>
        <path d="M248.68,427.79h1.35l.14,1.78h.05c.68-1.24,1.67-2.03,2.77-2.03,.43,0,.74,.05,1.04,.22l-.31,1.44c-.32-.13-.56-.16-.95-.16-.81,0-1.82,.58-2.47,2.25v6.28h-1.64v-9.78Z"/>
        <path d="M254.57,435.03c0-2.12,1.85-3.19,6.01-3.66,0-1.26-.41-2.47-2.02-2.47-1.13,0-2.16,.52-2.94,1.04l-.65-1.13c.9-.58,2.29-1.28,3.85-1.28,2.38,0,3.38,1.6,3.38,4.02v6.01h-1.35l-.14-1.17h-.05c-.94,.77-2.04,1.4-3.24,1.4-1.64,0-2.86-1.01-2.86-2.77Zm6.01,.16v-2.74c-3.29,.4-4.41,1.21-4.41,2.47,0,1.12,.76,1.57,1.73,1.57s1.73-.45,2.68-1.3Z"/>
        <path d="M265.35,434.54v-5.42h-1.46v-1.24l1.53-.09,.2-2.74h1.37v2.74h2.65v1.33h-2.65v5.46c0,1.21,.38,1.89,1.51,1.89,.34,0,.79-.13,1.12-.25l.32,1.22c-.56,.18-1.21,.36-1.8,.36-2.09,0-2.79-1.3-2.79-3.26Z"/>
        <path d="M271.54,424.71c0-.67,.49-1.06,1.13-1.06s1.13,.4,1.13,1.06c0,.61-.49,1.06-1.13,1.06s-1.13-.45-1.13-1.06Zm.31,3.08h1.64v9.78h-1.64v-9.78Z"/>
        <path d="M276.06,432.68c0-3.26,2.14-5.15,4.54-5.15s4.54,1.89,4.54,5.15-2.14,5.11-4.54,5.11-4.54-1.87-4.54-5.11Zm7.38,0c0-2.25-1.15-3.78-2.84-3.78s-2.83,1.53-2.83,3.78,1.13,3.75,2.83,3.75,2.84-1.49,2.84-3.75Z"/>
        <path d="M287.71,427.79h1.35l.14,1.4h.05c.94-.92,1.94-1.66,3.28-1.66,2.05,0,2.99,1.33,2.99,3.83v6.19h-1.64v-5.98c0-1.84-.56-2.61-1.85-2.61-1.01,0-1.69,.5-2.68,1.49v7.09h-1.64v-9.78Z"/>
        <path d="M302.88,424.37h3.31c4.05,0,6.23,2.36,6.23,6.55s-2.18,6.64-6.16,6.64h-3.38v-13.2Zm3.17,11.83c3.11,0,4.65-1.94,4.65-5.28s-1.53-5.2-4.65-5.2h-1.5v10.48h1.5Z"/>
        <path d="M314.8,424.71c0-.67,.49-1.06,1.13-1.06s1.13,.4,1.13,1.06c0,.61-.49,1.06-1.13,1.06s-1.13-.45-1.13-1.06Zm.31,3.08h1.64v9.78h-1.64v-9.78Z"/>
        <path d="M318.63,427.79h1.71l1.84,5.56c.31,.95,.61,1.96,.92,2.88h.07c.29-.92,.61-1.93,.9-2.88l1.85-5.56h1.62l-3.47,9.78h-1.91l-3.53-9.78Z"/>
        <path d="M329.13,424.71c0-.67,.49-1.06,1.13-1.06s1.13,.4,1.13,1.06c0,.61-.49,1.06-1.13,1.06s-1.13-.45-1.13-1.06Zm.31,3.08h1.64v9.78h-1.64v-9.78Z"/>
        <path d="M333.29,436.45l.81-1.08c.85,.68,1.73,1.15,2.9,1.15,1.3,0,1.93-.68,1.93-1.53,0-.99-1.15-1.44-2.23-1.85-1.37-.5-2.92-1.17-2.92-2.83,0-1.55,1.24-2.77,3.37-2.77,1.21,0,2.27,.5,3.04,1.1l-.79,1.06c-.68-.5-1.37-.86-2.25-.86-1.22,0-1.78,.65-1.78,1.4,0,.94,1.06,1.28,2.16,1.69,1.42,.54,2.99,1.12,2.99,2.97,0,1.58-1.26,2.9-3.57,2.9-1.39,0-2.72-.58-3.65-1.35Z"/>
        <path d="M342.5,424.71c0-.67,.49-1.06,1.13-1.06s1.13,.4,1.13,1.06c0,.61-.49,1.06-1.13,1.06s-1.13-.45-1.13-1.06Zm.31,3.08h1.64v9.78h-1.64v-9.78Z"/>
        <path d="M347.02,432.68c0-3.26,2.14-5.15,4.54-5.15s4.54,1.89,4.54,5.15-2.14,5.11-4.54,5.11-4.54-1.87-4.54-5.11Zm7.38,0c0-2.25-1.15-3.78-2.84-3.78s-2.83,1.53-2.83,3.78,1.13,3.75,2.83,3.75,2.84-1.49,2.84-3.75Z"/>
        <path d="M358.66,427.79h1.35l.14,1.4h.05c.94-.92,1.94-1.66,3.28-1.66,2.05,0,2.99,1.33,2.99,3.83v6.19h-1.64v-5.98c0-1.84-.56-2.61-1.85-2.61-1.01,0-1.69,.5-2.68,1.49v7.09h-1.64v-9.78Z"/>
      </g>
    </g>
    <g>
      <g>
        <path class="cls-7" d="M171.94,504.49l10.64,6.75v.07l-10.64,6.75h-.03v-13.56h.03Z"/>
        <path d="M191.83,515.67l.99-1.13c.95,.99,2.29,1.64,3.65,1.64,1.73,0,2.77-.86,2.77-2.16s-.95-1.78-2.2-2.34l-1.91-.83c-1.22-.52-2.68-1.46-2.68-3.39,0-2.03,1.76-3.51,4.16-3.51,1.57,0,2.95,.67,3.89,1.64l-.88,1.06c-.81-.76-1.78-1.24-3.01-1.24-1.49,0-2.47,.76-2.47,1.94,0,1.28,1.15,1.76,2.18,2.2l1.89,.81c1.53,.67,2.72,1.57,2.72,3.53,0,2.09-1.73,3.75-4.48,3.75-1.87,0-3.47-.76-4.63-1.96Z"/>
        <path d="M202.65,512.52c0-3.17,2.14-5.15,4.41-5.15,2.49,0,3.89,1.8,3.89,4.59,0,.36-.04,.7-.07,.94h-6.59c.11,2.09,1.39,3.42,3.24,3.42,.95,0,1.73-.29,2.45-.77l.59,1.08c-.86,.56-1.91,1.01-3.24,1.01-2.59,0-4.68-1.89-4.68-5.11Zm6.86-.79c0-1.98-.9-3.04-2.43-3.04-1.39,0-2.61,1.12-2.81,3.04h5.24Z"/>
        <path d="M212.62,512.52c0-3.26,2.21-5.15,4.72-5.15,1.28,0,2.16,.54,2.86,1.15l-.85,1.1c-.58-.52-1.17-.88-1.96-.88-1.76,0-3.06,1.53-3.06,3.78s1.22,3.75,3.02,3.75c.9,0,1.69-.41,2.3-.97l.7,1.1c-.86,.79-1.98,1.24-3.15,1.24-2.59,0-4.59-1.87-4.59-5.11Z"/>
        <path d="M222.52,507.62h1.35l.14,1.78h.05c.68-1.24,1.67-2.03,2.77-2.03,.43,0,.74,.05,1.04,.22l-.31,1.44c-.32-.13-.56-.16-.95-.16-.81,0-1.82,.58-2.47,2.25v6.28h-1.64v-9.78Z"/>
        <path d="M228.57,512.52c0-3.17,2.14-5.15,4.41-5.15,2.48,0,3.89,1.8,3.89,4.59,0,.36-.04,.7-.07,.94h-6.59c.11,2.09,1.39,3.42,3.24,3.42,.95,0,1.73-.29,2.45-.77l.59,1.08c-.86,.56-1.91,1.01-3.24,1.01-2.59,0-4.68-1.89-4.68-5.11Zm6.86-.79c0-1.98-.9-3.04-2.43-3.04-1.39,0-2.61,1.12-2.81,3.04h5.24Z"/>
        <path d="M239.37,514.38v-5.42h-1.46v-1.24l1.53-.09,.2-2.74h1.37v2.74h2.65v1.33h-2.65v5.46c0,1.21,.38,1.89,1.51,1.89,.34,0,.79-.13,1.12-.25l.32,1.22c-.56,.18-1.21,.36-1.8,.36-2.09,0-2.79-1.3-2.79-3.26Z"/>
        <path d="M244.82,514.86c0-2.12,1.85-3.19,6.01-3.66,0-1.26-.42-2.47-2.02-2.47-1.13,0-2.16,.52-2.93,1.04l-.65-1.13c.9-.58,2.29-1.28,3.85-1.28,2.38,0,3.38,1.6,3.38,4.02v6.01h-1.35l-.14-1.17h-.05c-.94,.77-2.04,1.4-3.24,1.4-1.64,0-2.86-1.01-2.86-2.77Zm6.01,.16v-2.74c-3.3,.4-4.41,1.21-4.41,2.47,0,1.12,.76,1.57,1.73,1.57s1.73-.45,2.68-1.3Z"/>
        <path d="M255.58,507.62h1.35l.14,1.78h.05c.68-1.24,1.67-2.03,2.77-2.03,.43,0,.74,.05,1.04,.22l-.31,1.44c-.32-.13-.56-.16-.95-.16-.81,0-1.82,.58-2.47,2.25v6.28h-1.64v-9.78Z"/>
        <path d="M262.26,504.54c0-.67,.49-1.06,1.13-1.06s1.13,.4,1.13,1.06c0,.61-.49,1.06-1.13,1.06s-1.13-.45-1.13-1.06Zm.31,3.08h1.64v9.78h-1.64v-9.78Z"/>
        <path d="M266.91,514.86c0-2.12,1.85-3.19,6.01-3.66,0-1.26-.41-2.47-2.02-2.47-1.13,0-2.16,.52-2.94,1.04l-.65-1.13c.9-.58,2.29-1.28,3.85-1.28,2.38,0,3.38,1.6,3.38,4.02v6.01h-1.35l-.14-1.17h-.05c-.94,.77-2.04,1.4-3.24,1.4-1.64,0-2.86-1.01-2.86-2.77Zm6.01,.16v-2.74c-3.29,.4-4.41,1.21-4.41,2.47,0,1.12,.76,1.57,1.73,1.57s1.73-.45,2.68-1.3Z"/>
        <path d="M277.69,514.38v-5.42h-1.46v-1.24l1.53-.09,.2-2.74h1.37v2.74h2.65v1.33h-2.65v5.46c0,1.21,.38,1.89,1.51,1.89,.34,0,.79-.13,1.12-.25l.32,1.22c-.56,.18-1.21,.36-1.8,.36-2.09,0-2.79-1.3-2.79-3.26Z"/>
        <path class="cls-7" d="M171.94,534.49l10.64,6.75v.07l-10.64,6.75h-.03v-13.56h.03Z"/>
        <path d="M192.78,534.2h3.76c2.97,0,4.95,.99,4.95,3.87s-1.98,4.09-4.86,4.09h-2.18v5.24h-1.67v-13.2Zm3.64,6.61c2.32,0,3.42-.85,3.42-2.74s-1.17-2.52-3.49-2.52h-1.89v5.26h1.96Z"/>
        <path d="M202.79,542.52c0-3.17,2.14-5.15,4.41-5.15,2.48,0,3.89,1.8,3.89,4.59,0,.36-.04,.7-.07,.94h-6.59c.11,2.09,1.39,3.42,3.24,3.42,.95,0,1.73-.29,2.45-.77l.59,1.08c-.86,.56-1.91,1.01-3.24,1.01-2.59,0-4.68-1.89-4.68-5.11Zm6.86-.79c0-1.98-.9-3.04-2.43-3.04-1.39,0-2.61,1.12-2.81,3.04h5.24Z"/>
        <path d="M213.5,537.62h1.35l.14,1.78h.05c.68-1.24,1.67-2.03,2.77-2.03,.43,0,.74,.05,1.04,.22l-.31,1.44c-.32-.13-.56-.16-.95-.16-.81,0-1.82,.58-2.47,2.25v6.28h-1.64v-9.78Z"/>
        <path d="M219.32,546.28l.81-1.08c.85,.68,1.73,1.15,2.9,1.15,1.3,0,1.93-.68,1.93-1.53,0-.99-1.15-1.44-2.23-1.85-1.37-.5-2.92-1.17-2.92-2.83,0-1.55,1.24-2.77,3.37-2.77,1.21,0,2.27,.5,3.04,1.1l-.79,1.06c-.68-.5-1.37-.86-2.25-.86-1.22,0-1.78,.65-1.78,1.4,0,.94,1.06,1.28,2.16,1.69,1.42,.54,2.99,1.12,2.99,2.97,0,1.58-1.26,2.9-3.57,2.9-1.39,0-2.72-.58-3.65-1.35Z"/>
        <path d="M228.1,542.52c0-3.26,2.14-5.15,4.54-5.15s4.54,1.89,4.54,5.15-2.14,5.11-4.54,5.11-4.54-1.87-4.54-5.11Zm7.38,0c0-2.25-1.15-3.78-2.84-3.78s-2.83,1.53-2.83,3.78,1.13,3.75,2.83,3.75,2.84-1.49,2.84-3.75Z"/>
        <path d="M239.75,537.62h1.35l.14,1.4h.05c.94-.92,1.94-1.66,3.28-1.66,2.05,0,2.99,1.33,2.99,3.83v6.19h-1.64v-5.98c0-1.84-.56-2.61-1.85-2.61-1.01,0-1.69,.5-2.68,1.49v7.09h-1.64v-9.78Z"/>
        <path d="M250.74,537.62h1.35l.14,1.4h.05c.94-.92,1.94-1.66,3.28-1.66,2.05,0,2.99,1.33,2.99,3.83v6.19h-1.64v-5.98c0-1.84-.56-2.61-1.85-2.61-1.01,0-1.69,.5-2.68,1.49v7.09h-1.64v-9.78Z"/>
        <path d="M261,542.52c0-3.17,2.14-5.15,4.41-5.15,2.48,0,3.89,1.8,3.89,4.59,0,.36-.04,.7-.07,.94h-6.59c.11,2.09,1.39,3.42,3.24,3.42,.95,0,1.73-.29,2.45-.77l.59,1.08c-.86,.56-1.91,1.01-3.24,1.01-2.59,0-4.68-1.89-4.68-5.11Zm6.86-.79c0-1.98-.9-3.04-2.43-3.04-1.39,0-2.61,1.12-2.81,3.04h5.24Z"/>
        <path d="M271.71,545.46v-12.39h1.64v12.5c0,.5,.22,.7,.47,.7,.09,0,.16,0,.34-.04l.23,1.26c-.23,.09-.52,.14-.95,.14-1.22,0-1.73-.79-1.73-2.18Z"/>
        <path d="M280.26,540.76c0-4.23,2.32-6.81,5.64-6.81s5.64,2.58,5.64,6.81-2.32,6.88-5.64,6.88-5.64-2.65-5.64-6.88Zm9.56,0c0-3.31-1.57-5.35-3.93-5.35s-3.92,2.03-3.92,5.35,1.55,5.42,3.92,5.42,3.93-2.12,3.93-5.42Z"/>
        <path d="M300.23,536.06c0-1.98,.9-3.22,2.86-3.22,.58,0,1.17,.13,1.62,.32l-.36,1.24c-.36-.16-.76-.25-1.1-.25-.94,0-1.39,.67-1.39,1.93v1.55h2.07v1.33h-2.07v8.44h-1.64v-8.44h-4.09v8.44h-1.64v-8.44h-1.33v-1.24l1.33-.09v-1.31c0-2.02,1.01-3.28,3.02-3.28,.65,0,1.3,.13,1.8,.34l-.34,1.26c-.43-.2-.83-.29-1.31-.29-.97,0-1.53,.72-1.53,2.02v1.26h4.09v-1.57Zm7.56-1.51c0,.61-.5,1.06-1.15,1.06s-1.13-.45-1.13-1.06c0-.67,.5-1.06,1.13-1.06s1.15,.4,1.15,1.06Zm-1.96,3.08h1.64v9.78h-1.64v-9.78Z"/>
        <path d="M310.02,542.52c0-3.26,2.21-5.15,4.72-5.15,1.28,0,2.16,.54,2.86,1.15l-.85,1.1c-.58-.52-1.17-.88-1.96-.88-1.76,0-3.06,1.53-3.06,3.78s1.22,3.75,3.02,3.75c.9,0,1.69-.41,2.3-.97l.7,1.1c-.86,.79-1.98,1.24-3.15,1.24-2.59,0-4.59-1.87-4.59-5.11Z"/>
        <path d="M318.75,542.52c0-3.17,2.14-5.15,4.41-5.15,2.49,0,3.89,1.8,3.89,4.59,0,.36-.04,.7-.07,.94h-6.59c.11,2.09,1.39,3.42,3.24,3.42,.95,0,1.73-.29,2.45-.77l.59,1.08c-.86,.56-1.91,1.01-3.24,1.01-2.59,0-4.68-1.89-4.68-5.11Zm6.86-.79c0-1.98-.9-3.04-2.43-3.04-1.39,0-2.61,1.12-2.81,3.04h5.24Z"/>
        <path class="cls-7" d="M171.94,564.49l10.64,6.75v.07l-10.64,6.75h-.03v-13.56h.03Z"/>
        <path d="M198.83,573.37h-4.83l-1.28,4.03h-1.69l4.48-13.2h1.85l4.48,13.2h-1.76l-1.26-4.03Zm-.41-1.33l-.63-2.02c-.49-1.49-.9-2.93-1.33-4.47h-.07c-.41,1.55-.85,2.97-1.31,4.47l-.65,2.02h4Z"/>
        <path d="M202.83,572.52c0-3.26,2.21-5.15,4.72-5.15,1.28,0,2.16,.54,2.86,1.15l-.85,1.1c-.58-.52-1.17-.88-1.96-.88-1.76,0-3.06,1.53-3.06,3.78s1.22,3.75,3.02,3.75c.9,0,1.69-.41,2.3-.97l.7,1.1c-.86,.79-1.98,1.24-3.15,1.24-2.59,0-4.59-1.87-4.59-5.11Z"/>
        <path d="M211.56,572.52c0-3.26,2.21-5.15,4.72-5.15,1.28,0,2.16,.54,2.86,1.15l-.85,1.1c-.58-.52-1.17-.88-1.96-.88-1.76,0-3.06,1.53-3.06,3.78s1.22,3.75,3.02,3.75c.9,0,1.69-.41,2.3-.97l.7,1.1c-.86,.79-1.98,1.24-3.15,1.24-2.59,0-4.59-1.87-4.59-5.11Z"/>
        <path d="M220.29,572.52c0-3.26,2.14-5.15,4.54-5.15s4.54,1.89,4.54,5.15-2.14,5.11-4.54,5.11-4.54-1.87-4.54-5.11Zm7.38,0c0-2.25-1.15-3.78-2.84-3.78s-2.83,1.53-2.83,3.78,1.13,3.75,2.83,3.75,2.84-1.49,2.84-3.75Z"/>
        <path d="M231.81,573.82v-6.19h1.64v6c0,1.82,.54,2.59,1.84,2.59,1.01,0,1.71-.49,2.65-1.66v-6.93h1.64v9.78h-1.37l-.13-1.53h-.05c-.92,1.06-1.89,1.76-3.24,1.76-2.05,0-2.97-1.33-2.97-3.82Z"/>
        <path d="M242.86,567.62h1.35l.14,1.4h.05c.94-.92,1.94-1.66,3.28-1.66,2.05,0,2.99,1.33,2.99,3.83v6.19h-1.64v-5.98c0-1.84-.56-2.61-1.85-2.61-1.01,0-1.69,.5-2.68,1.49v7.09h-1.64v-9.78Z"/>
        <path d="M254.15,574.38v-5.42h-1.46v-1.24l1.53-.09,.2-2.74h1.37v2.74h2.65v1.33h-2.65v5.46c0,1.21,.38,1.89,1.51,1.89,.34,0,.79-.13,1.12-.25l.32,1.22c-.56,.18-1.21,.36-1.8,.36-2.09,0-2.79-1.3-2.79-3.26Z"/>
        <path d="M260.34,564.54c0-.67,.49-1.06,1.13-1.06s1.13,.4,1.13,1.06c0,.61-.49,1.06-1.13,1.06s-1.13-.45-1.13-1.06Zm.31,3.08h1.64v9.78h-1.64v-9.78Z"/>
        <path d="M265.59,567.62h1.35l.14,1.4h.05c.94-.92,1.94-1.66,3.28-1.66,2.05,0,2.99,1.33,2.99,3.83v6.19h-1.64v-5.98c0-1.84-.56-2.61-1.85-2.61-1.01,0-1.69,.5-2.68,1.49v7.09h-1.64v-9.78Z"/>
        <path d="M275.83,579.27c0-.83,.54-1.62,1.46-2.21v-.07c-.52-.31-.9-.83-.9-1.6s.59-1.46,1.1-1.82v-.07c-.65-.52-1.28-1.46-1.28-2.63,0-2.14,1.69-3.49,3.67-3.49,.54,0,1.03,.13,1.37,.25h3.4v1.26h-2c.47,.45,.79,1.17,.79,2.02,0,2.09-1.58,3.4-3.57,3.4-.49,0-1.03-.13-1.46-.34-.36,.31-.63,.63-.63,1.17,0,.63,.4,1.06,1.71,1.06h1.91c2.27,0,3.4,.72,3.4,2.32,0,1.82-1.91,3.39-4.93,3.39-2.39,0-4.05-.94-4.05-2.63Zm7.4-.5c0-.9-.7-1.21-2-1.21h-1.69c-.36,0-.83-.05-1.26-.16-.7,.5-1.01,1.08-1.01,1.66,0,1.04,1.06,1.73,2.84,1.73,1.87,0,3.12-.99,3.12-2.02Zm-1.28-7.9c0-1.42-.92-2.29-2.07-2.29s-2.09,.85-2.09,2.29,.95,2.32,2.09,2.32,2.07-.9,2.07-2.32Z"/>
        <path d="M290.14,574.86c0-2.12,1.85-3.19,6.01-3.66,0-1.26-.41-2.47-2.02-2.47-1.13,0-2.16,.52-2.94,1.04l-.65-1.13c.9-.58,2.29-1.28,3.85-1.28,2.38,0,3.38,1.6,3.38,4.02v6.01h-1.35l-.14-1.17h-.05c-.94,.77-2.04,1.4-3.24,1.4-1.64,0-2.86-1.01-2.86-2.77Zm6.01,.16v-2.74c-3.29,.4-4.41,1.21-4.41,2.47,0,1.12,.76,1.57,1.73,1.57s1.73-.45,2.68-1.3Z"/>
        <path d="M300.91,567.62h1.35l.14,1.4h.05c.94-.92,1.94-1.66,3.28-1.66,2.05,0,2.99,1.33,2.99,3.83v6.19h-1.64v-5.98c0-1.84-.56-2.61-1.85-2.61-1.01,0-1.69,.5-2.68,1.49v7.09h-1.64v-9.78Z"/>
        <path d="M311.2,572.52c0-3.17,2-5.15,4.23-5.15,1.15,0,1.89,.43,2.75,1.15l-.09-1.69v-3.76h1.64v14.33h-1.33l-.16-1.15h-.04c-.77,.76-1.8,1.39-2.97,1.39-2.45,0-4.03-1.85-4.03-5.11Zm6.9,2.39v-5.13c-.83-.74-1.57-1.03-2.38-1.03-1.58,0-2.83,1.51-2.83,3.75,0,2.36,.97,3.76,2.7,3.76,.9,0,1.69-.45,2.5-1.35Z"/>
        <path d="M326.29,575.67l.99-1.13c.95,.99,2.29,1.64,3.65,1.64,1.73,0,2.77-.86,2.77-2.16s-.95-1.78-2.2-2.34l-1.91-.83c-1.22-.52-2.68-1.46-2.68-3.39,0-2.03,1.76-3.51,4.16-3.51,1.57,0,2.95,.67,3.89,1.64l-.88,1.06c-.81-.76-1.78-1.24-3.01-1.24-1.49,0-2.47,.76-2.47,1.94,0,1.28,1.15,1.76,2.18,2.2l1.89,.81c1.53,.67,2.72,1.57,2.72,3.53,0,2.09-1.73,3.75-4.48,3.75-1.87,0-3.47-.76-4.63-1.96Z"/>
        <path d="M337.65,574.38v-5.42h-1.46v-1.24l1.53-.09,.2-2.74h1.37v2.74h2.65v1.33h-2.65v5.46c0,1.21,.38,1.89,1.51,1.89,.34,0,.79-.13,1.12-.25l.32,1.22c-.56,.18-1.21,.36-1.8,.36-2.09,0-2.79-1.3-2.79-3.26Z"/>
        <path d="M343.1,574.86c0-2.12,1.85-3.19,6.01-3.66,0-1.26-.42-2.47-2.02-2.47-1.13,0-2.16,.52-2.93,1.04l-.65-1.13c.9-.58,2.29-1.28,3.85-1.28,2.38,0,3.38,1.6,3.38,4.02v6.01h-1.35l-.14-1.17h-.05c-.94,.77-2.04,1.4-3.24,1.4-1.64,0-2.86-1.01-2.86-2.77Zm6.01,.16v-2.74c-3.3,.4-4.41,1.21-4.41,2.47,0,1.12,.76,1.57,1.73,1.57s1.73-.45,2.68-1.3Z"/>
        <path d="M353.88,574.38v-5.42h-1.46v-1.24l1.53-.09,.2-2.74h1.37v2.74h2.65v1.33h-2.65v5.46c0,1.21,.38,1.89,1.51,1.89,.34,0,.79-.13,1.12-.25l.32,1.22c-.56,.18-1.21,.36-1.8,.36-2.09,0-2.79-1.3-2.79-3.26Z"/>
        <path d="M360.08,564.54c0-.67,.49-1.06,1.13-1.06s1.13,.4,1.13,1.06c0,.61-.49,1.06-1.13,1.06s-1.13-.45-1.13-1.06Zm.31,3.08h1.64v9.78h-1.64v-9.78Z"/>
        <path d="M364.23,576.28l.81-1.08c.85,.68,1.73,1.15,2.9,1.15,1.3,0,1.93-.68,1.93-1.53,0-.99-1.15-1.44-2.23-1.85-1.37-.5-2.92-1.17-2.92-2.83,0-1.55,1.24-2.77,3.37-2.77,1.21,0,2.27,.5,3.04,1.1l-.79,1.06c-.68-.5-1.37-.86-2.25-.86-1.22,0-1.78,.65-1.78,1.4,0,.94,1.06,1.28,2.16,1.69,1.42,.54,2.99,1.12,2.99,2.97,0,1.58-1.26,2.9-3.57,2.9-1.39,0-2.72-.58-3.65-1.35Z"/>
        <path d="M373.65,574.38v-5.42h-1.46v-1.24l1.53-.09,.2-2.74h1.37v2.74h2.65v1.33h-2.65v5.46c0,1.21,.38,1.89,1.51,1.89,.34,0,.79-.13,1.12-.25l.32,1.22c-.56,.18-1.21,.36-1.8,.36-2.09,0-2.79-1.3-2.79-3.26Z"/>
        <path d="M379.84,564.54c0-.67,.49-1.06,1.13-1.06s1.13,.4,1.13,1.06c0,.61-.49,1.06-1.13,1.06s-1.13-.45-1.13-1.06Zm.31,3.08h1.64v9.78h-1.64v-9.78Z"/>
        <path d="M384.36,572.52c0-3.26,2.21-5.15,4.72-5.15,1.28,0,2.16,.54,2.86,1.15l-.85,1.1c-.58-.52-1.17-.88-1.96-.88-1.76,0-3.06,1.53-3.06,3.78s1.22,3.75,3.02,3.75c.9,0,1.69-.41,2.3-.97l.7,1.1c-.86,.79-1.98,1.24-3.15,1.24-2.59,0-4.59-1.87-4.59-5.11Z"/>
        <path d="M393.16,576.28l.81-1.08c.85,.68,1.73,1.15,2.9,1.15,1.3,0,1.93-.68,1.93-1.53,0-.99-1.15-1.44-2.23-1.85-1.37-.5-2.92-1.17-2.92-2.83,0-1.55,1.24-2.77,3.37-2.77,1.21,0,2.27,.5,3.04,1.1l-.79,1.06c-.68-.5-1.37-.86-2.25-.86-1.22,0-1.78,.65-1.78,1.4,0,.94,1.06,1.28,2.16,1.69,1.42,.54,2.99,1.12,2.99,2.97,0,1.58-1.26,2.9-3.57,2.9-1.39,0-2.72-.58-3.65-1.35Z"/>
        <path d="M406.1,570.76c0-4.23,2.32-6.81,5.64-6.81s5.64,2.58,5.64,6.81-2.32,6.88-5.64,6.88-5.64-2.65-5.64-6.88Zm9.56,0c0-3.31-1.57-5.35-3.93-5.35s-3.92,2.03-3.92,5.35,1.55,5.42,3.92,5.42,3.93-2.12,3.93-5.42Z"/>
        <path d="M426.06,566.06c0-1.98,.9-3.22,2.86-3.22,.58,0,1.17,.13,1.62,.32l-.36,1.24c-.36-.16-.76-.25-1.1-.25-.94,0-1.39,.67-1.39,1.93v1.55h2.07v1.33h-2.07v8.44h-1.64v-8.44h-4.09v8.44h-1.64v-8.44h-1.33v-1.24l1.33-.09v-1.31c0-2.02,1.01-3.28,3.02-3.28,.65,0,1.3,.13,1.8,.34l-.34,1.26c-.43-.2-.83-.29-1.31-.29-.97,0-1.53,.72-1.53,2.02v1.26h4.09v-1.57Zm7.56-1.51c0,.61-.5,1.06-1.15,1.06s-1.13-.45-1.13-1.06c0-.67,.5-1.06,1.13-1.06s1.15,.4,1.15,1.06Zm-1.96,3.08h1.64v9.78h-1.64v-9.78Z"/>
        <path d="M435.85,572.52c0-3.26,2.21-5.15,4.72-5.15,1.28,0,2.16,.54,2.86,1.15l-.85,1.1c-.58-.52-1.17-.88-1.96-.88-1.76,0-3.06,1.53-3.06,3.78s1.22,3.75,3.02,3.75c.9,0,1.69-.41,2.3-.97l.7,1.1c-.86,.79-1.98,1.24-3.15,1.24-2.59,0-4.59-1.87-4.59-5.11Z"/>
        <path d="M444.58,572.52c0-3.17,2.14-5.15,4.41-5.15,2.49,0,3.89,1.8,3.89,4.59,0,.36-.04,.7-.07,.94h-6.59c.11,2.09,1.39,3.42,3.24,3.42,.95,0,1.73-.29,2.45-.77l.59,1.08c-.86,.56-1.91,1.01-3.24,1.01-2.59,0-4.68-1.89-4.68-5.11Zm6.86-.79c0-1.98-.9-3.04-2.43-3.04-1.39,0-2.61,1.12-2.81,3.04h5.24Z"/>
        <path class="cls-7" d="M171.94,594.49l10.64,6.75v.07l-10.64,6.75h-.03v-13.56h.03Z"/>
        <path d="M192.03,600.81c0-4.27,2.5-6.86,5.85-6.86,1.6,0,2.86,.79,3.62,1.64l-.9,1.08c-.68-.74-1.57-1.26-2.7-1.26-2.5,0-4.16,2.05-4.16,5.35s1.58,5.42,4.11,5.42c1.26,0,2.21-.56,3.06-1.48l.92,1.04c-1.04,1.21-2.34,1.89-4.05,1.89-3.28,0-5.74-2.54-5.74-6.82Z"/>
        <path d="M203.82,594.54c0-.67,.49-1.06,1.13-1.06s1.13,.4,1.13,1.06c0,.61-.49,1.06-1.13,1.06s-1.13-.45-1.13-1.06Zm.31,3.08h1.64v9.78h-1.64v-9.78Z"/>
        <path d="M207.65,597.62h1.71l1.84,5.56c.31,.95,.61,1.96,.92,2.88h.07c.29-.92,.61-1.93,.9-2.88l1.85-5.56h1.62l-3.47,9.78h-1.91l-3.53-9.78Z"/>
        <path d="M218.15,594.54c0-.67,.49-1.06,1.13-1.06s1.13,.4,1.13,1.06c0,.61-.49,1.06-1.13,1.06s-1.13-.45-1.13-1.06Zm.31,3.08h1.64v9.78h-1.64v-9.78Z"/>
        <path d="M223.4,605.46v-12.39h1.64v12.5c0,.5,.22,.7,.47,.7,.09,0,.16,0,.34-.04l.23,1.26c-.23,.09-.52,.14-.95,.14-1.22,0-1.73-.79-1.73-2.18Z"/>
        <path d="M231.75,605.67l.99-1.13c.95,.99,2.29,1.64,3.65,1.64,1.73,0,2.77-.86,2.77-2.16s-.95-1.78-2.2-2.34l-1.91-.83c-1.22-.52-2.68-1.46-2.68-3.39,0-2.03,1.76-3.51,4.16-3.51,1.57,0,2.95,.67,3.89,1.64l-.88,1.06c-.81-.76-1.78-1.24-3.01-1.24-1.49,0-2.47,.76-2.47,1.94,0,1.28,1.15,1.76,2.18,2.2l1.89,.81c1.53,.67,2.72,1.57,2.72,3.53,0,2.09-1.73,3.75-4.48,3.75-1.87,0-3.47-.76-4.63-1.96Z"/>
        <path d="M242.57,602.52c0-3.17,2.14-5.15,4.41-5.15,2.48,0,3.89,1.8,3.89,4.59,0,.36-.04,.7-.07,.94h-6.59c.11,2.09,1.39,3.42,3.24,3.42,.95,0,1.73-.29,2.45-.77l.59,1.08c-.86,.56-1.91,1.01-3.24,1.01-2.59,0-4.68-1.89-4.68-5.11Zm6.86-.79c0-1.98-.9-3.04-2.43-3.04-1.39,0-2.61,1.12-2.81,3.04h5.24Z"/>
        <path d="M253.28,597.62h1.35l.14,1.78h.05c.68-1.24,1.67-2.03,2.77-2.03,.43,0,.74,.05,1.04,.22l-.31,1.44c-.32-.13-.56-.16-.95-.16-.81,0-1.82,.58-2.47,2.25v6.28h-1.64v-9.78Z"/>
        <path d="M259.36,597.62h1.71l1.84,5.56c.31,.95,.61,1.96,.92,2.88h.07c.29-.92,.61-1.93,.9-2.88l1.85-5.56h1.62l-3.47,9.78h-1.91l-3.53-9.78Z"/>
        <path d="M269.86,594.54c0-.67,.49-1.06,1.13-1.06s1.13,.4,1.13,1.06c0,.61-.49,1.06-1.13,1.06s-1.13-.45-1.13-1.06Zm.31,3.08h1.64v9.78h-1.64v-9.78Z"/>
        <path d="M274.38,602.52c0-3.26,2.21-5.15,4.72-5.15,1.28,0,2.16,.54,2.86,1.15l-.85,1.1c-.58-.52-1.17-.88-1.96-.88-1.76,0-3.06,1.53-3.06,3.78s1.22,3.75,3.02,3.75c.9,0,1.69-.41,2.3-.97l.7,1.1c-.86,.79-1.98,1.24-3.15,1.24-2.59,0-4.59-1.87-4.59-5.11Z"/>
        <path d="M283.11,602.52c0-3.17,2.14-5.15,4.41-5.15,2.48,0,3.89,1.8,3.89,4.59,0,.36-.04,.7-.07,.94h-6.59c.11,2.09,1.39,3.42,3.24,3.42,.95,0,1.73-.29,2.45-.77l.59,1.08c-.86,.56-1.91,1.01-3.24,1.01-2.59,0-4.68-1.89-4.68-5.11Zm6.86-.79c0-1.98-.9-3.04-2.43-3.04-1.39,0-2.61,1.12-2.81,3.04h5.24Z"/>
        <path d="M297.99,594.2h7.62v1.4h-5.94v4.14h5.01v1.42h-5.01v4.81h6.14v1.42h-7.81v-13.2Z"/>
        <path d="M308.23,604.38v-5.42h-1.46v-1.24l1.53-.09,.2-2.74h1.37v2.74h2.65v1.33h-2.65v5.46c0,1.21,.38,1.89,1.51,1.89,.34,0,.79-.13,1.12-.25l.32,1.22c-.56,.18-1.21,.36-1.8,.36-2.09,0-2.79-1.3-2.79-3.26Z"/>
        <path d="M314.73,593.07h1.64v3.92l-.05,2.02c.9-.9,1.91-1.64,3.24-1.64,2.05,0,2.99,1.33,2.99,3.83v6.19h-1.64v-5.98c0-1.84-.56-2.61-1.85-2.61-1.01,0-1.69,.5-2.68,1.49v7.09h-1.64v-14.33Z"/>
        <path d="M325.35,594.54c0-.67,.49-1.06,1.13-1.06s1.13,.4,1.13,1.06c0,.61-.49,1.06-1.13,1.06s-1.13-.45-1.13-1.06Zm.31,3.08h1.64v9.78h-1.64v-9.78Z"/>
        <path d="M329.87,602.52c0-3.26,2.21-5.15,4.72-5.15,1.28,0,2.16,.54,2.86,1.15l-.85,1.1c-.58-.52-1.17-.88-1.96-.88-1.76,0-3.06,1.53-3.06,3.78s1.22,3.75,3.02,3.75c.9,0,1.69-.41,2.3-.97l.7,1.1c-.86,.79-1.98,1.24-3.15,1.24-2.59,0-4.59-1.87-4.59-5.11Z"/>
        <path d="M338.67,606.28l.81-1.08c.85,.68,1.73,1.15,2.9,1.15,1.3,0,1.93-.68,1.93-1.53,0-.99-1.15-1.44-2.23-1.85-1.37-.5-2.92-1.17-2.92-2.83,0-1.55,1.24-2.77,3.37-2.77,1.21,0,2.27,.5,3.04,1.1l-.79,1.06c-.68-.5-1.37-.86-2.25-.86-1.22,0-1.78,.65-1.78,1.4,0,.94,1.06,1.28,2.16,1.69,1.42,.54,2.99,1.12,2.99,2.97,0,1.58-1.26,2.9-3.57,2.9-1.39,0-2.72-.58-3.65-1.35Z"/>
        <path d="M351.61,600.76c0-4.23,2.32-6.81,5.64-6.81s5.64,2.58,5.64,6.81-2.32,6.88-5.64,6.88-5.64-2.65-5.64-6.88Zm9.56,0c0-3.31-1.57-5.35-3.93-5.35s-3.92,2.03-3.92,5.35,1.55,5.42,3.92,5.42,3.93-2.12,3.93-5.42Z"/>
        <path d="M371.58,596.06c0-1.98,.9-3.22,2.86-3.22,.58,0,1.17,.13,1.62,.32l-.36,1.24c-.36-.16-.76-.25-1.1-.25-.94,0-1.39,.67-1.39,1.93v1.55h2.07v1.33h-2.07v8.44h-1.64v-8.44h-4.09v8.44h-1.64v-8.44h-1.33v-1.24l1.33-.09v-1.31c0-2.02,1.01-3.28,3.02-3.28,.65,0,1.3,.13,1.8,.34l-.34,1.26c-.43-.2-.83-.29-1.31-.29-.97,0-1.53,.72-1.53,2.02v1.26h4.09v-1.57Zm7.56-1.51c0,.61-.5,1.06-1.15,1.06s-1.13-.45-1.13-1.06c0-.67,.5-1.06,1.13-1.06s1.15,.4,1.15,1.06Zm-1.96,3.08h1.64v9.78h-1.64v-9.78Z"/>
        <path d="M381.37,602.52c0-3.26,2.21-5.15,4.72-5.15,1.28,0,2.16,.54,2.86,1.15l-.85,1.1c-.58-.52-1.17-.88-1.96-.88-1.76,0-3.06,1.53-3.06,3.78s1.22,3.75,3.02,3.75c.9,0,1.69-.41,2.3-.97l.7,1.1c-.86,.79-1.98,1.24-3.15,1.24-2.59,0-4.59-1.87-4.59-5.11Z"/>
        <path d="M390.1,602.52c0-3.17,2.14-5.15,4.41-5.15,2.49,0,3.89,1.8,3.89,4.59,0,.36-.04,.7-.07,.94h-6.59c.11,2.09,1.39,3.42,3.24,3.42,.95,0,1.73-.29,2.45-.77l.59,1.08c-.86,.56-1.91,1.01-3.24,1.01-2.59,0-4.68-1.89-4.68-5.11Zm6.86-.79c0-1.98-.9-3.04-2.43-3.04-1.39,0-2.61,1.12-2.81,3.04h5.24Z"/>
      </g>
      <g>
        <rect class="cls-2" x="322.17" y="292.44" width="31.66" height="370" rx="5" ry="5" transform="translate(815.44 139.44) rotate(90)"/>
        <g>
          <path class="cls-1" d="M267.39,481.8l.99-1.13c.95,.99,2.29,1.64,3.65,1.64,1.73,0,2.77-.86,2.77-2.16s-.95-1.78-2.2-2.34l-1.91-.83c-1.22-.52-2.68-1.46-2.68-3.39,0-2.03,1.76-3.51,4.16-3.51,1.57,0,2.95,.67,3.89,1.64l-.88,1.06c-.81-.76-1.78-1.24-3.01-1.24-1.49,0-2.47,.76-2.47,1.94,0,1.28,1.15,1.76,2.18,2.2l1.89,.81c1.53,.67,2.72,1.57,2.72,3.53,0,2.09-1.73,3.75-4.48,3.75-1.87,0-3.47-.76-4.63-1.96Z"/>
          <path class="cls-1" d="M278.82,479.95v-6.19h1.64v6c0,1.82,.54,2.59,1.84,2.59,1.01,0,1.71-.49,2.65-1.66v-6.93h1.64v9.78h-1.37l-.13-1.53h-.05c-.92,1.06-1.89,1.76-3.24,1.76-2.05,0-2.97-1.33-2.97-3.82Z"/>
          <path class="cls-1" d="M289.87,473.75h1.35l.14,1.12h.05c.88-.72,1.98-1.37,3.12-1.37,2.52,0,3.89,1.98,3.89,4.99,0,3.35-2,5.28-4.25,5.28-.88,0-1.82-.41-2.7-1.13l.04,1.71v3.31h-1.64v-13.9Zm6.84,4.75c0-2.16-.72-3.62-2.57-3.62-.83,0-1.67,.47-2.63,1.35v5.13c.88,.76,1.75,1.03,2.39,1.03,1.62,0,2.81-1.46,2.81-3.89Z"/>
          <path class="cls-1" d="M301.03,473.75h1.35l.14,1.12h.05c.88-.72,1.98-1.37,3.12-1.37,2.52,0,3.89,1.98,3.89,4.99,0,3.35-2,5.28-4.25,5.28-.88,0-1.82-.41-2.7-1.13l.04,1.71v3.31h-1.64v-13.9Zm6.84,4.75c0-2.16-.72-3.62-2.57-3.62-.83,0-1.67,.47-2.63,1.35v5.13c.88,.76,1.75,1.03,2.39,1.03,1.62,0,2.81-1.46,2.81-3.89Z"/>
          <path class="cls-1" d="M311.45,478.65c0-3.26,2.14-5.15,4.54-5.15s4.54,1.89,4.54,5.15-2.14,5.11-4.54,5.11-4.54-1.87-4.54-5.11Zm7.38,0c0-2.25-1.15-3.78-2.84-3.78s-2.83,1.53-2.83,3.78,1.13,3.75,2.83,3.75,2.84-1.49,2.84-3.75Z"/>
          <path class="cls-1" d="M323.1,473.75h1.35l.14,1.78h.05c.68-1.24,1.67-2.03,2.77-2.03,.43,0,.74,.05,1.04,.22l-.31,1.44c-.32-.13-.56-.16-.95-.16-.81,0-1.82,.58-2.47,2.25v6.28h-1.64v-9.78Z"/>
          <path class="cls-1" d="M330.37,480.5v-5.42h-1.46v-1.24l1.53-.09,.2-2.74h1.37v2.74h2.65v1.33h-2.65v5.46c0,1.21,.38,1.89,1.51,1.89,.34,0,.79-.13,1.12-.25l.32,1.22c-.56,.18-1.21,.36-1.8,.36-2.09,0-2.79-1.3-2.79-3.26Z"/>
          <path class="cls-1" d="M336.56,470.67c0-.67,.49-1.06,1.13-1.06s1.13,.4,1.13,1.06c0,.61-.49,1.06-1.13,1.06s-1.13-.45-1.13-1.06Zm.31,3.08h1.64v9.78h-1.64v-9.78Z"/>
          <path class="cls-1" d="M341.82,473.75h1.35l.14,1.4h.05c.94-.92,1.94-1.66,3.28-1.66,2.05,0,2.99,1.33,2.99,3.83v6.19h-1.64v-5.98c0-1.84-.56-2.61-1.85-2.61-1.01,0-1.69,.5-2.68,1.49v7.09h-1.64v-9.78Z"/>
          <path class="cls-1" d="M352.06,485.4c0-.83,.54-1.62,1.46-2.21v-.07c-.52-.31-.9-.83-.9-1.6s.59-1.46,1.1-1.82v-.07c-.65-.52-1.28-1.46-1.28-2.63,0-2.14,1.69-3.49,3.67-3.49,.54,0,1.03,.13,1.37,.25h3.4v1.26h-2c.47,.45,.79,1.17,.79,2.02,0,2.09-1.58,3.4-3.57,3.4-.49,0-1.03-.13-1.46-.34-.36,.31-.63,.63-.63,1.17,0,.63,.4,1.06,1.71,1.06h1.91c2.27,0,3.4,.72,3.4,2.32,0,1.82-1.91,3.39-4.93,3.39-2.39,0-4.05-.94-4.05-2.63Zm7.4-.5c0-.9-.7-1.21-2-1.21h-1.69c-.36,0-.83-.05-1.26-.16-.7,.5-1.01,1.08-1.01,1.66,0,1.04,1.06,1.73,2.84,1.73,1.87,0,3.12-.99,3.12-2.02Zm-1.28-7.9c0-1.42-.92-2.29-2.07-2.29s-2.09,.85-2.09,2.29,.95,2.32,2.09,2.32,2.07-.9,2.07-2.32Z"/>
          <path class="cls-1" d="M367.07,478.07v-7.74h1.67v7.8c0,3.19,1.35,4.18,3.06,4.18s3.15-.99,3.15-4.18v-7.8h1.6v7.74c0,4.25-2.05,5.69-4.75,5.69s-4.74-1.44-4.74-5.69Z"/>
          <path class="cls-1" d="M379.96,473.75h1.35l.14,1.4h.05c.94-.92,1.94-1.66,3.28-1.66,2.05,0,2.99,1.33,2.99,3.83v6.19h-1.64v-5.98c0-1.84-.56-2.61-1.85-2.61-1.01,0-1.69,.5-2.68,1.49v7.09h-1.64v-9.78Z"/>
          <path class="cls-1" d="M390.65,470.67c0-.67,.49-1.06,1.13-1.06s1.13,.4,1.13,1.06c0,.61-.49,1.06-1.13,1.06s-1.13-.45-1.13-1.06Zm.31,3.08h1.64v9.78h-1.64v-9.78Z"/>
          <path class="cls-1" d="M396.2,480.5v-5.42h-1.46v-1.24l1.53-.09,.2-2.74h1.37v2.74h2.65v1.33h-2.65v5.46c0,1.21,.38,1.89,1.51,1.89,.34,0,.79-.13,1.12-.25l.32,1.22c-.56,.18-1.21,.36-1.8,.36-2.09,0-2.79-1.3-2.79-3.26Z"/>
          <path class="cls-1" d="M401.4,482.41l.81-1.08c.85,.68,1.73,1.15,2.9,1.15,1.3,0,1.93-.68,1.93-1.53,0-.99-1.15-1.44-2.23-1.85-1.37-.5-2.92-1.17-2.92-2.83,0-1.55,1.24-2.77,3.37-2.77,1.21,0,2.27,.5,3.04,1.1l-.79,1.06c-.68-.5-1.37-.86-2.25-.86-1.22,0-1.78,.65-1.78,1.4,0,.94,1.06,1.28,2.16,1.69,1.42,.54,2.99,1.12,2.99,2.97,0,1.58-1.26,2.9-3.57,2.9-1.39,0-2.72-.58-3.65-1.35Z"/>
        </g>
      </g>
    </g>
  </g>
  <g>
    <line class="cls-6" x1="335.69" y1="42.1" x2="335.86" y2="222.38"/>
    <path class="cls-6" d="M155.22,112.46v-21.61c.13-4.33,4.28-7.79,9.34-7.79H511.43c5.16,0,9.35,3.58,9.35,8v21.4"/>
    <rect class="cls-4" x="259.79" y="165.52" width="156.42" height="32" rx="5" ry="5" transform="translate(676 363.05) rotate(-180)"/>
    <g>
      <path class="cls-1" d="M275.12,181.75c0-4.27,2.5-6.86,5.85-6.86,1.6,0,2.86,.79,3.62,1.64l-.9,1.08c-.68-.74-1.57-1.26-2.7-1.26-2.5,0-4.16,2.05-4.16,5.35s1.58,5.42,4.1,5.42c1.26,0,2.21-.56,3.06-1.48l.92,1.04c-1.04,1.21-2.34,1.89-4.05,1.89-3.28,0-5.74-2.54-5.74-6.82Z"/>
      <path class="cls-1" d="M287.21,174h1.64v3.92l-.05,2.02c.9-.9,1.91-1.64,3.24-1.64,2.05,0,2.99,1.33,2.99,3.83v6.19h-1.64v-5.98c0-1.84-.56-2.61-1.85-2.61-1.01,0-1.69,.5-2.68,1.5v7.09h-1.64v-14.33Z"/>
      <path class="cls-1" d="M297.83,175.48c0-.67,.49-1.06,1.13-1.06s1.13,.4,1.13,1.06c0,.61-.49,1.06-1.13,1.06s-1.13-.45-1.13-1.06Zm.31,3.08h1.64v9.78h-1.64v-9.78Z"/>
      <path class="cls-1" d="M302.35,183.46c0-3.17,2.14-5.15,4.41-5.15,2.48,0,3.89,1.8,3.89,4.59,0,.36-.04,.7-.07,.94h-6.59c.11,2.09,1.39,3.42,3.24,3.42,.95,0,1.73-.29,2.45-.77l.59,1.08c-.86,.56-1.91,1.01-3.24,1.01-2.59,0-4.68-1.89-4.68-5.11Zm6.86-.79c0-1.98-.9-3.04-2.43-3.04-1.39,0-2.61,1.12-2.81,3.04h5.24Z"/>
      <path class="cls-1" d="M317.45,175.34c-.36-.16-.76-.25-1.1-.25-.94,0-1.39,.67-1.39,1.93v1.55h2.07v1.33h-2.07v8.44h-1.64v-8.44h-1.33v-1.24l1.33-.09v-1.57c0-1.98,.9-3.22,2.84-3.22,.59,0,1.17,.13,1.64,.32l-.36,1.24Z"/>
      <path class="cls-1" d="M322.13,186.61l.99-1.13c.95,.99,2.29,1.64,3.66,1.64,1.73,0,2.77-.86,2.77-2.16s-.95-1.78-2.2-2.34l-1.91-.83c-1.22-.52-2.68-1.46-2.68-3.38,0-2.04,1.76-3.51,4.16-3.51,1.57,0,2.95,.67,3.89,1.64l-.88,1.06c-.81-.76-1.78-1.24-3.01-1.24-1.49,0-2.47,.76-2.47,1.94,0,1.28,1.15,1.76,2.18,2.2l1.89,.81c1.53,.67,2.72,1.57,2.72,3.53,0,2.09-1.73,3.75-4.48,3.75-1.87,0-3.48-.76-4.63-1.96Z"/>
      <path class="cls-1" d="M332.95,183.46c0-3.17,2.14-5.15,4.41-5.15,2.48,0,3.89,1.8,3.89,4.59,0,.36-.04,.7-.07,.94h-6.59c.11,2.09,1.39,3.42,3.24,3.42,.95,0,1.73-.29,2.45-.77l.59,1.08c-.86,.56-1.91,1.01-3.24,1.01-2.59,0-4.68-1.89-4.68-5.11Zm6.86-.79c0-1.98-.9-3.04-2.43-3.04-1.39,0-2.61,1.12-2.81,3.04h5.24Z"/>
      <path class="cls-1" d="M342.92,183.46c0-3.26,2.21-5.15,4.72-5.15,1.28,0,2.16,.54,2.86,1.15l-.85,1.1c-.58-.52-1.17-.88-1.96-.88-1.76,0-3.06,1.53-3.06,3.78s1.22,3.75,3.02,3.75c.9,0,1.69-.41,2.3-.97l.7,1.1c-.86,.79-1.98,1.24-3.15,1.24-2.59,0-4.59-1.87-4.59-5.11Z"/>
      <path class="cls-1" d="M352.82,178.56h1.35l.14,1.78h.05c.68-1.24,1.67-2.04,2.77-2.04,.43,0,.74,.05,1.04,.22l-.31,1.44c-.32-.13-.56-.16-.95-.16-.81,0-1.82,.58-2.47,2.25v6.28h-1.64v-9.78Z"/>
      <path class="cls-1" d="M358.87,183.46c0-3.17,2.14-5.15,4.41-5.15,2.48,0,3.89,1.8,3.89,4.59,0,.36-.04,.7-.07,.94h-6.59c.11,2.09,1.39,3.42,3.24,3.42,.95,0,1.73-.29,2.45-.77l.59,1.08c-.86,.56-1.91,1.01-3.24,1.01-2.59,0-4.68-1.89-4.68-5.11Zm6.86-.79c0-1.98-.9-3.04-2.43-3.04-1.39,0-2.61,1.12-2.81,3.04h5.24Z"/>
      <path class="cls-1" d="M369.67,185.31v-5.42h-1.46v-1.24l1.53-.09,.2-2.74h1.37v2.74h2.65v1.33h-2.65v5.46c0,1.21,.38,1.89,1.51,1.89,.34,0,.79-.13,1.12-.25l.32,1.22c-.56,.18-1.21,.36-1.8,.36-2.09,0-2.79-1.3-2.79-3.26Z"/>
      <path class="cls-1" d="M375.13,185.8c0-2.12,1.85-3.19,6.01-3.66,0-1.26-.41-2.47-2.02-2.47-1.13,0-2.16,.52-2.94,1.04l-.65-1.13c.9-.58,2.29-1.28,3.85-1.28,2.38,0,3.39,1.6,3.39,4.02v6.01h-1.35l-.14-1.17h-.05c-.94,.77-2.03,1.4-3.24,1.4-1.64,0-2.86-1.01-2.86-2.77Zm6.01,.16v-2.74c-3.29,.4-4.41,1.21-4.41,2.47,0,1.12,.76,1.57,1.73,1.57s1.73-.45,2.68-1.3Z"/>
      <path class="cls-1" d="M385.89,178.56h1.35l.14,1.78h.05c.68-1.24,1.67-2.04,2.77-2.04,.43,0,.74,.05,1.04,.22l-.31,1.44c-.32-.13-.56-.16-.95-.16-.81,0-1.82,.58-2.47,2.25v6.28h-1.64v-9.78Z"/>
      <path class="cls-1" d="M392.4,192.35l.32-1.31c.2,.07,.49,.16,.74,.16,1.12,0,1.82-.9,2.21-2.11l.22-.74-3.93-9.79h1.71l2,5.44c.29,.85,.63,1.85,.94,2.74h.09c.27-.88,.56-1.87,.83-2.74l1.75-5.44h1.6l-3.69,10.59c-.68,1.93-1.69,3.4-3.64,3.4-.47,0-.85-.07-1.15-.2Z"/>
    </g>
    <g>
      <rect class="cls-3" x="17.72" y="108.79" width="275" height="31.66" rx="5" ry="5"/>
      <rect class="cls-3" x="383.28" y="108.79" width="275" height="31.66" rx="5" ry="5"/>
      <g>
        <path class="cls-1" d="M35.7,118.21h3.31c4.05,0,6.23,2.36,6.23,6.55s-2.18,6.64-6.16,6.64h-3.38v-13.2Zm3.17,11.83c3.12,0,4.65-1.94,4.65-5.28s-1.53-5.2-4.65-5.2h-1.49v10.48h1.49Z"/>
        <path class="cls-1" d="M48.99,126.53c0-3.17,2.14-5.15,4.41-5.15,2.48,0,3.89,1.8,3.89,4.59,0,.36-.04,.7-.07,.94h-6.59c.11,2.09,1.39,3.42,3.24,3.42,.95,0,1.73-.29,2.45-.77l.59,1.08c-.86,.56-1.91,1.01-3.24,1.01-2.59,0-4.68-1.89-4.68-5.11Zm6.86-.79c0-1.98-.9-3.04-2.43-3.04-1.39,0-2.61,1.12-2.81,3.04h5.24Z"/>
        <path class="cls-1" d="M61.5,121.63h1.35l.14,1.12h.05c.88-.72,1.98-1.37,3.12-1.37,2.52,0,3.89,1.98,3.89,4.99,0,3.35-2,5.28-4.25,5.28-.88,0-1.82-.41-2.7-1.13l.04,1.71v3.31h-1.64v-13.9Zm6.84,4.75c0-2.16-.72-3.62-2.58-3.62-.83,0-1.67,.47-2.63,1.35v5.13c.88,.76,1.75,1.03,2.39,1.03,1.62,0,2.81-1.46,2.81-3.89Z"/>
        <path class="cls-1" d="M74.33,127.83v-6.19h1.64v6c0,1.82,.54,2.59,1.84,2.59,1.01,0,1.71-.49,2.65-1.66v-6.93h1.64v9.78h-1.37l-.13-1.53h-.05c-.92,1.06-1.89,1.76-3.24,1.76-2.05,0-2.97-1.33-2.97-3.82Z"/>
        <path class="cls-1" d="M87.47,128.38v-5.42h-1.46v-1.24l1.53-.09,.2-2.74h1.37v2.74h2.65v1.33h-2.65v5.46c0,1.21,.38,1.89,1.51,1.89,.34,0,.79-.13,1.12-.25l.32,1.22c-.56,.18-1.21,.36-1.8,.36-2.09,0-2.79-1.3-2.79-3.26Z"/>
        <path class="cls-1" d="M94.78,135.43l.32-1.31c.2,.07,.49,.16,.74,.16,1.12,0,1.82-.9,2.21-2.11l.22-.74-3.93-9.79h1.71l2,5.44c.29,.85,.63,1.85,.94,2.74h.09c.27-.88,.56-1.87,.83-2.74l1.75-5.44h1.6l-3.69,10.59c-.68,1.93-1.69,3.4-3.64,3.4-.47,0-.85-.07-1.15-.2Z"/>
        <path class="cls-1" d="M112.92,118.21h3.31c4.05,0,6.23,2.36,6.23,6.55s-2.18,6.64-6.16,6.64h-3.39v-13.2Zm3.17,11.83c3.12,0,4.65-1.94,4.65-5.28s-1.53-5.2-4.65-5.2h-1.49v10.48h1.49Z"/>
        <path class="cls-1" d="M126.64,118.55c0-.67,.49-1.06,1.13-1.06s1.13,.4,1.13,1.06c0,.61-.49,1.06-1.13,1.06s-1.13-.45-1.13-1.06Zm.31,3.08h1.64v9.78h-1.64v-9.78Z"/>
        <path class="cls-1" d="M133.7,121.63h1.35l.14,1.78h.05c.68-1.24,1.67-2.04,2.77-2.04,.43,0,.74,.05,1.04,.22l-.31,1.44c-.32-.13-.56-.16-.95-.16-.81,0-1.82,.58-2.47,2.25v6.28h-1.64v-9.78Z"/>
        <path class="cls-1" d="M141.54,126.53c0-3.17,2.14-5.15,4.41-5.15,2.49,0,3.89,1.8,3.89,4.59,0,.36-.04,.7-.07,.94h-6.59c.11,2.09,1.39,3.42,3.24,3.42,.95,0,1.73-.29,2.45-.77l.59,1.08c-.86,.56-1.91,1.01-3.24,1.01-2.59,0-4.68-1.89-4.68-5.11Zm6.86-.79c0-1.98-.9-3.04-2.43-3.04-1.39,0-2.61,1.12-2.81,3.04h5.24Z"/>
        <path class="cls-1" d="M153.32,126.53c0-3.26,2.21-5.15,4.72-5.15,1.28,0,2.16,.54,2.86,1.15l-.85,1.1c-.58-.52-1.17-.88-1.96-.88-1.76,0-3.06,1.53-3.06,3.78s1.22,3.75,3.03,3.75c.9,0,1.69-.41,2.3-.97l.7,1.1c-.86,.79-1.98,1.24-3.15,1.24-2.59,0-4.59-1.87-4.59-5.11Z"/>
        <path class="cls-1" d="M165.11,128.38v-5.42h-1.46v-1.24l1.53-.09,.2-2.74h1.37v2.74h2.65v1.33h-2.65v5.46c0,1.21,.38,1.89,1.51,1.89,.34,0,.79-.13,1.12-.25l.32,1.22c-.56,.18-1.21,.36-1.8,.36-2.09,0-2.79-1.3-2.79-3.26Z"/>
        <path class="cls-1" d="M172.4,126.53c0-3.26,2.14-5.15,4.54-5.15s4.54,1.89,4.54,5.15-2.14,5.11-4.54,5.11-4.54-1.87-4.54-5.11Zm7.38,0c0-2.25-1.15-3.78-2.84-3.78s-2.83,1.53-2.83,3.78,1.13,3.75,2.83,3.75,2.84-1.49,2.84-3.75Z"/>
        <path class="cls-1" d="M185.84,121.63h1.35l.14,1.78h.05c.68-1.24,1.67-2.04,2.77-2.04,.43,0,.74,.05,1.04,.22l-.31,1.44c-.32-.13-.56-.16-.95-.16-.81,0-1.82,.58-2.47,2.25v6.28h-1.64v-9.78Z"/>
        <path class="cls-1" d="M193.31,125.74h4.61v1.26h-4.61v-1.26Z"/>
        <path class="cls-1" d="M201.57,124.82c0-4.27,2.56-6.86,6.05-6.86,1.84,0,3.04,.83,3.8,1.64l-.9,1.08c-.67-.7-1.51-1.26-2.86-1.26-2.65,0-4.38,2.05-4.38,5.35s1.57,5.42,4.39,5.42c.96,0,1.87-.29,2.4-.77v-3.46h-2.79v-1.39h4.32v5.54c-.85,.88-2.3,1.53-4.09,1.53-3.47,0-5.94-2.54-5.94-6.82Z"/>
        <path class="cls-1" d="M215.65,126.53c0-3.17,2.14-5.15,4.41-5.15,2.48,0,3.89,1.8,3.89,4.59,0,.36-.04,.7-.07,.94h-6.59c.11,2.09,1.39,3.42,3.24,3.42,.95,0,1.73-.29,2.45-.77l.59,1.08c-.86,.56-1.91,1.01-3.24,1.01-2.59,0-4.68-1.89-4.68-5.11Zm6.86-.79c0-1.98-.9-3.04-2.43-3.04-1.39,0-2.61,1.12-2.81,3.04h5.24Z"/>
        <path class="cls-1" d="M228.16,121.63h1.35l.14,1.41h.05c.94-.92,1.94-1.66,3.28-1.66,2.05,0,2.99,1.33,2.99,3.84v6.19h-1.64v-5.98c0-1.84-.56-2.61-1.85-2.61-1.01,0-1.69,.5-2.68,1.5v7.09h-1.64v-9.78Z"/>
        <path class="cls-1" d="M240.22,126.53c0-3.17,2.14-5.15,4.41-5.15,2.49,0,3.89,1.8,3.89,4.59,0,.36-.04,.7-.07,.94h-6.59c.11,2.09,1.39,3.42,3.24,3.42,.95,0,1.73-.29,2.45-.77l.59,1.08c-.86,.56-1.91,1.01-3.24,1.01-2.59,0-4.68-1.89-4.68-5.11Zm6.86-.79c0-1.98-.9-3.04-2.43-3.04-1.39,0-2.61,1.12-2.81,3.04h5.24Z"/>
        <path class="cls-1" d="M252.73,121.63h1.35l.14,1.78h.05c.68-1.24,1.67-2.04,2.77-2.04,.43,0,.74,.05,1.04,.22l-.31,1.44c-.32-.13-.56-.16-.95-.16-.81,0-1.82,.58-2.47,2.25v6.28h-1.64v-9.78Z"/>
        <path class="cls-1" d="M260.41,128.87c0-2.12,1.85-3.19,6.01-3.65,0-1.26-.41-2.47-2.02-2.47-1.13,0-2.16,.52-2.93,1.04l-.65-1.13c.9-.58,2.29-1.28,3.85-1.28,2.38,0,3.38,1.6,3.38,4.02v6.01h-1.35l-.14-1.17h-.05c-.94,.77-2.03,1.4-3.24,1.4-1.64,0-2.86-1.01-2.86-2.77Zm6.01,.16v-2.74c-3.29,.4-4.41,1.21-4.41,2.47,0,1.12,.76,1.57,1.73,1.57s1.73-.45,2.68-1.3Z"/>
        <path class="cls-1" d="M272.98,129.47v-12.39h1.64v12.5c0,.5,.22,.7,.47,.7,.09,0,.16,0,.34-.04l.23,1.26c-.23,.09-.52,.14-.95,.14-1.22,0-1.73-.79-1.73-2.18Z"/>
      </g>
      <g>
        <path class="cls-1" d="M400.79,118.21h3.31c4.05,0,6.23,2.36,6.23,6.55s-2.18,6.64-6.16,6.64h-3.39v-13.2Zm3.17,11.83c3.12,0,4.65-1.95,4.65-5.28s-1.53-5.2-4.65-5.2h-1.49v10.48h1.49Z"/>
        <path class="cls-1" d="M414.08,126.53c0-3.17,2.14-5.15,4.41-5.15,2.48,0,3.89,1.8,3.89,4.59,0,.36-.04,.7-.07,.94h-6.59c.11,2.09,1.39,3.42,3.24,3.42,.95,0,1.73-.29,2.45-.77l.59,1.08c-.86,.56-1.91,1.01-3.24,1.01-2.59,0-4.68-1.89-4.68-5.11Zm6.86-.79c0-1.98-.9-3.04-2.43-3.04-1.39,0-2.61,1.12-2.81,3.04h5.24Z"/>
        <path class="cls-1" d="M426.59,121.63h1.35l.14,1.12h.05c.88-.72,1.98-1.37,3.11-1.37,2.52,0,3.89,1.98,3.89,4.99,0,3.35-2,5.28-4.25,5.28-.88,0-1.82-.41-2.7-1.13l.04,1.71v3.31h-1.64v-13.9Zm6.84,4.75c0-2.16-.72-3.62-2.57-3.62-.83,0-1.67,.47-2.63,1.35v5.13c.88,.76,1.75,1.03,2.4,1.03,1.62,0,2.81-1.46,2.81-3.89Z"/>
        <path class="cls-1" d="M439.42,127.83v-6.19h1.64v6c0,1.82,.54,2.59,1.84,2.59,1.01,0,1.71-.49,2.65-1.66v-6.93h1.64v9.78h-1.37l-.13-1.53h-.05c-.92,1.06-1.89,1.76-3.24,1.76-2.05,0-2.97-1.33-2.97-3.82Z"/>
        <path class="cls-1" d="M452.56,128.39v-5.42h-1.46v-1.24l1.53-.09,.2-2.74h1.37v2.74h2.65v1.33h-2.65v5.46c0,1.21,.38,1.89,1.51,1.89,.34,0,.79-.13,1.12-.25l.32,1.22c-.56,.18-1.21,.36-1.8,.36-2.09,0-2.79-1.3-2.79-3.26Z"/>
        <path class="cls-1" d="M459.87,135.43l.32-1.31c.2,.07,.49,.16,.74,.16,1.12,0,1.82-.9,2.21-2.11l.22-.74-3.93-9.79h1.71l2,5.44c.29,.85,.63,1.85,.94,2.74h.09c.27-.88,.56-1.87,.83-2.74l1.75-5.44h1.6l-3.69,10.59c-.68,1.93-1.69,3.4-3.64,3.4-.47,0-.85-.07-1.15-.2Z"/>
        <path class="cls-1" d="M478.01,118.21h3.31c4.05,0,6.23,2.36,6.23,6.55s-2.18,6.64-6.16,6.64h-3.38v-13.2Zm3.17,11.83c3.11,0,4.65-1.95,4.65-5.28s-1.53-5.2-4.65-5.2h-1.49v10.48h1.49Z"/>
        <path class="cls-1" d="M491.73,118.55c0-.67,.49-1.06,1.13-1.06s1.13,.4,1.13,1.06c0,.61-.49,1.06-1.13,1.06s-1.13-.45-1.13-1.06Zm.31,3.08h1.64v9.78h-1.64v-9.78Z"/>
        <path class="cls-1" d="M498.78,121.63h1.35l.14,1.78h.05c.68-1.24,1.67-2.04,2.77-2.04,.43,0,.74,.05,1.04,.22l-.31,1.44c-.32-.13-.56-.16-.95-.16-.81,0-1.82,.58-2.47,2.25v6.28h-1.64v-9.78Z"/>
        <path class="cls-1" d="M506.63,126.53c0-3.17,2.14-5.15,4.41-5.15,2.48,0,3.89,1.8,3.89,4.59,0,.36-.04,.7-.07,.94h-6.59c.11,2.09,1.39,3.42,3.24,3.42,.95,0,1.73-.29,2.45-.77l.59,1.08c-.86,.56-1.91,1.01-3.24,1.01-2.59,0-4.68-1.89-4.68-5.11Zm6.86-.79c0-1.98-.9-3.04-2.43-3.04-1.39,0-2.61,1.12-2.81,3.04h5.24Z"/>
        <path class="cls-1" d="M518.4,126.53c0-3.26,2.21-5.15,4.72-5.15,1.28,0,2.16,.54,2.86,1.15l-.85,1.1c-.58-.52-1.17-.88-1.96-.88-1.76,0-3.06,1.53-3.06,3.78s1.22,3.75,3.02,3.75c.9,0,1.69-.41,2.3-.97l.7,1.1c-.86,.79-1.98,1.24-3.15,1.24-2.59,0-4.59-1.87-4.59-5.11Z"/>
        <path class="cls-1" d="M530.19,128.39v-5.42h-1.46v-1.24l1.53-.09,.2-2.74h1.37v2.74h2.65v1.33h-2.65v5.46c0,1.21,.38,1.89,1.51,1.89,.34,0,.79-.13,1.12-.25l.32,1.22c-.56,.18-1.21,.36-1.8,.36-2.09,0-2.79-1.3-2.79-3.26Z"/>
        <path class="cls-1" d="M537.48,126.53c0-3.26,2.14-5.15,4.54-5.15s4.54,1.89,4.54,5.15-2.14,5.11-4.54,5.11-4.54-1.87-4.54-5.11Zm7.38,0c0-2.25-1.15-3.78-2.84-3.78s-2.83,1.53-2.83,3.78,1.13,3.75,2.83,3.75,2.84-1.49,2.84-3.75Z"/>
        <path class="cls-1" d="M550.93,121.63h1.35l.14,1.78h.05c.68-1.24,1.67-2.04,2.77-2.04,.43,0,.74,.05,1.04,.22l-.31,1.44c-.32-.13-.56-.16-.95-.16-.81,0-1.82,.58-2.47,2.25v6.28h-1.64v-9.78Z"/>
        <path class="cls-1" d="M558.4,125.74h4.61v1.26h-4.61v-1.26Z"/>
        <path class="cls-1" d="M566.66,124.82c0-4.27,2.56-6.86,6.05-6.86,1.84,0,3.04,.83,3.8,1.64l-.9,1.08c-.67-.7-1.51-1.26-2.86-1.26-2.65,0-4.38,2.05-4.38,5.35s1.57,5.42,4.39,5.42c.95,0,1.87-.29,2.4-.77v-3.46h-2.79v-1.39h4.32v5.55c-.85,.88-2.3,1.53-4.09,1.53-3.48,0-5.94-2.54-5.94-6.82Z"/>
        <path class="cls-1" d="M580.74,126.53c0-3.17,2.14-5.15,4.41-5.15,2.48,0,3.89,1.8,3.89,4.59,0,.36-.04,.7-.07,.94h-6.59c.11,2.09,1.39,3.42,3.24,3.42,.95,0,1.73-.29,2.45-.77l.59,1.08c-.86,.56-1.91,1.01-3.24,1.01-2.59,0-4.68-1.89-4.68-5.11Zm6.86-.79c0-1.98-.9-3.04-2.43-3.04-1.39,0-2.61,1.12-2.81,3.04h5.24Z"/>
        <path class="cls-1" d="M593.25,121.63h1.35l.14,1.41h.05c.94-.92,1.94-1.66,3.28-1.66,2.05,0,2.99,1.33,2.99,3.83v6.19h-1.64v-5.98c0-1.84-.56-2.61-1.85-2.61-1.01,0-1.69,.5-2.68,1.5v7.09h-1.64v-9.78Z"/>
        <path class="cls-1" d="M605.31,126.53c0-3.17,2.14-5.15,4.41-5.15,2.48,0,3.89,1.8,3.89,4.59,0,.36-.04,.7-.07,.94h-6.59c.11,2.09,1.39,3.42,3.24,3.42,.95,0,1.73-.29,2.45-.77l.59,1.08c-.86,.56-1.91,1.01-3.24,1.01-2.59,0-4.68-1.89-4.68-5.11Zm6.86-.79c0-1.98-.9-3.04-2.43-3.04-1.39,0-2.61,1.12-2.81,3.04h5.24Z"/>
        <path class="cls-1" d="M617.81,121.63h1.35l.14,1.78h.05c.68-1.24,1.67-2.04,2.77-2.04,.43,0,.74,.05,1.04,.22l-.31,1.44c-.32-.13-.56-.16-.95-.16-.81,0-1.82,.58-2.47,2.25v6.28h-1.64v-9.78Z"/>
        <path class="cls-1" d="M625.5,128.87c0-2.12,1.85-3.19,6.01-3.66,0-1.26-.41-2.47-2.02-2.47-1.13,0-2.16,.52-2.94,1.04l-.65-1.13c.9-.58,2.29-1.28,3.85-1.28,2.38,0,3.39,1.6,3.39,4.02v6.01h-1.35l-.14-1.17h-.05c-.94,.77-2.03,1.4-3.24,1.4-1.64,0-2.86-1.01-2.86-2.77Zm6.01,.16v-2.74c-3.29,.4-4.41,1.21-4.41,2.47,0,1.12,.76,1.57,1.73,1.57s1.73-.45,2.68-1.3Z"/>
        <path class="cls-1" d="M638.06,129.47v-12.39h1.64v12.5c0,.5,.22,.7,.47,.7,.09,0,.16,0,.34-.04l.23,1.26c-.23,.09-.52,.14-.95,.14-1.22,0-1.73-.79-1.73-2.18Z"/>
      </g>
    </g>
    <rect class="cls-5" x="238.13" y="25.71" width="194.18" height="32" rx="5" ry="5"/>
    <g>
      <path class="cls-1" d="M254.57,34.41h3.31c4.05,0,6.23,2.36,6.23,6.55s-2.18,6.64-6.16,6.64h-3.39v-13.2Zm3.17,11.83c3.12,0,4.65-1.95,4.65-5.28s-1.53-5.2-4.65-5.2h-1.49v10.48h1.49Z"/>
      <path class="cls-1" d="M268.29,34.75c0-.67,.49-1.06,1.13-1.06s1.13,.4,1.13,1.06c0,.61-.49,1.06-1.13,1.06s-1.13-.45-1.13-1.06Zm.31,3.08h1.64v9.78h-1.64v-9.78Z"/>
      <path class="cls-1" d="M275.34,37.83h1.35l.14,1.78h.05c.68-1.24,1.67-2.04,2.77-2.04,.43,0,.74,.05,1.04,.22l-.31,1.44c-.32-.13-.56-.16-.95-.16-.81,0-1.82,.58-2.47,2.25v6.28h-1.64v-9.78Z"/>
      <path class="cls-1" d="M283.19,42.73c0-3.17,2.14-5.15,4.41-5.15,2.49,0,3.89,1.8,3.89,4.59,0,.36-.04,.7-.07,.94h-6.59c.11,2.09,1.39,3.42,3.24,3.42,.95,0,1.73-.29,2.45-.77l.59,1.08c-.86,.56-1.91,1.01-3.24,1.01-2.59,0-4.68-1.89-4.68-5.11Zm6.86-.79c0-1.98-.9-3.04-2.43-3.04-1.39,0-2.61,1.12-2.81,3.04h5.24Z"/>
      <path class="cls-1" d="M294.96,42.73c0-3.26,2.21-5.15,4.72-5.15,1.28,0,2.16,.54,2.86,1.15l-.85,1.1c-.58-.52-1.17-.88-1.96-.88-1.76,0-3.06,1.53-3.06,3.78s1.22,3.75,3.02,3.75c.9,0,1.69-.41,2.3-.97l.7,1.1c-.86,.79-1.98,1.24-3.15,1.24-2.59,0-4.59-1.87-4.59-5.11Z"/>
      <path class="cls-1" d="M306.75,44.58v-5.42h-1.46v-1.24l1.53-.09,.2-2.74h1.37v2.74h2.65v1.33h-2.65v5.46c0,1.21,.38,1.89,1.51,1.89,.34,0,.79-.13,1.12-.25l.32,1.22c-.56,.18-1.21,.36-1.8,.36-2.09,0-2.79-1.3-2.79-3.26Z"/>
      <path class="cls-1" d="M314.04,42.73c0-3.26,2.14-5.15,4.54-5.15s4.54,1.89,4.54,5.15-2.14,5.11-4.54,5.11-4.54-1.87-4.54-5.11Zm7.38,0c0-2.25-1.15-3.78-2.84-3.78s-2.83,1.53-2.83,3.78,1.13,3.75,2.83,3.75,2.84-1.49,2.84-3.75Z"/>
      <path class="cls-1" d="M327.49,37.83h1.35l.14,1.78h.05c.68-1.24,1.67-2.04,2.77-2.04,.43,0,.74,.05,1.04,.22l-.31,1.44c-.32-.13-.56-.16-.95-.16-.81,0-1.82,.58-2.47,2.25v6.28h-1.64v-9.78Z"/>
      <path class="cls-1" d="M334.96,41.94h4.61v1.26h-4.61v-1.26Z"/>
      <path class="cls-1" d="M343.22,41.02c0-4.27,2.56-6.86,6.05-6.86,1.84,0,3.04,.83,3.8,1.64l-.9,1.08c-.67-.7-1.51-1.26-2.86-1.26-2.65,0-4.38,2.05-4.38,5.35s1.57,5.42,4.39,5.42c.95,0,1.87-.29,2.39-.77v-3.46h-2.79v-1.39h4.32v5.55c-.85,.88-2.3,1.53-4.09,1.53-3.47,0-5.94-2.54-5.94-6.82Z"/>
      <path class="cls-1" d="M357.3,42.73c0-3.17,2.14-5.15,4.41-5.15,2.48,0,3.89,1.8,3.89,4.59,0,.36-.04,.7-.07,.94h-6.59c.11,2.09,1.39,3.42,3.24,3.42,.95,0,1.73-.29,2.45-.77l.59,1.08c-.86,.56-1.91,1.01-3.24,1.01-2.59,0-4.68-1.89-4.68-5.11Zm6.86-.79c0-1.98-.9-3.04-2.43-3.04-1.39,0-2.61,1.12-2.81,3.04h5.24Z"/>
      <path class="cls-1" d="M369.81,37.83h1.35l.14,1.41h.05c.94-.92,1.94-1.66,3.28-1.66,2.05,0,2.99,1.33,2.99,3.83v6.19h-1.64v-5.98c0-1.84-.56-2.61-1.86-2.61-1.01,0-1.69,.5-2.68,1.5v7.09h-1.64v-9.78Z"/>
      <path class="cls-1" d="M381.87,42.73c0-3.17,2.14-5.15,4.41-5.15,2.48,0,3.89,1.8,3.89,4.59,0,.36-.04,.7-.07,.94h-6.59c.11,2.09,1.39,3.42,3.24,3.42,.95,0,1.73-.29,2.45-.77l.59,1.08c-.86,.56-1.91,1.01-3.24,1.01-2.59,0-4.68-1.89-4.68-5.11Zm6.86-.79c0-1.98-.9-3.04-2.43-3.04-1.39,0-2.61,1.12-2.81,3.04h5.24Z"/>
      <path class="cls-1" d="M394.38,37.83h1.35l.14,1.78h.05c.68-1.24,1.67-2.04,2.77-2.04,.43,0,.74,.05,1.04,.22l-.31,1.44c-.32-.13-.56-.16-.95-.16-.81,0-1.82,.58-2.47,2.25v6.28h-1.64v-9.78Z"/>
      <path class="cls-1" d="M402.06,45.07c0-2.12,1.85-3.19,6.01-3.66,0-1.26-.41-2.47-2.02-2.47-1.13,0-2.16,.52-2.93,1.04l-.65-1.13c.9-.58,2.29-1.28,3.85-1.28,2.38,0,3.38,1.6,3.38,4.02v6.01h-1.35l-.14-1.17h-.05c-.94,.77-2.03,1.4-3.24,1.4-1.64,0-2.86-1.01-2.86-2.77Zm6.01,.16v-2.74c-3.29,.4-4.41,1.21-4.41,2.47,0,1.12,.76,1.57,1.73,1.57s1.73-.45,2.68-1.3Z"/>
      <path class="cls-1" d="M414.62,45.66v-12.39h1.64v12.5c0,.5,.22,.7,.47,.7,.09,0,.16,0,.34-.04l.23,1.26c-.23,.09-.52,.14-.96,.14-1.22,0-1.73-.79-1.73-2.18Z"/>
    </g>
  </g>
</svg>