<svg width="413" height="79" viewBox="0 0 413 79" fill="none" xmlns="http://www.w3.org/2000/svg">
<g clip-path="url(#clip0_734_3169)">
<path d="M2.20874 45.1373H4.80522C5.11089 45.1561 5.40631 45.2547 5.66206 45.4234H3.06558C2.80905 45.2563 2.51406 45.1578 2.20874 45.1373Z" fill="#262626"/>
<path d="M2.26074 45.1502H4.85723C4.95599 45.1327 5.05706 45.1327 5.15582 45.1502H2.61127C2.50816 45.1325 2.4028 45.1325 2.29969 45.1502" fill="#262626"/>
<path d="M2.61133 45.2023H5.20781C5.38571 45.2529 5.556 45.3273 5.71413 45.4233H3.11764C2.95952 45.3273 2.78922 45.2529 2.61133 45.2023Z" fill="#262626"/>
<path d="M3.06567 45.4233H5.64918L9.67373 47.6991H7.09022L3.06567 45.4233Z" fill="#262626"/>
<path d="M15.1392 22.6141H17.7356C18.0523 22.6287 18.3603 22.7226 18.6314 22.8872H16.0349C15.7646 22.721 15.4561 22.627 15.1392 22.6141Z" fill="#262626"/>
<path d="M15.2041 22.6141H17.8006C17.9194 22.6232 18.0369 22.645 18.1511 22.6792H15.5936C15.4794 22.645 15.3619 22.6232 15.243 22.6141" fill="#262626"/>
<path d="M15.5935 22.6792H18.19C18.3559 22.7343 18.5166 22.804 18.6703 22.8873H16.0739C15.9201 22.804 15.7594 22.7343 15.5935 22.6792Z" fill="#262626"/>
<path d="M16.0349 22.8872H18.6184L23.5907 25.7091H21.0072L16.0349 22.8872Z" fill="#262626"/>
<path d="M7.09009 47.6991H9.68657C10.961 48.5141 11.9748 49.6786 12.6076 51.0542C12.7634 51.4443 15.7104 58.7656 19.683 63.252C22.417 65.9473 25.4284 68.3448 28.6669 70.4043C29.2706 70.7525 29.9566 70.9321 30.6532 70.9244H28.0567C27.3601 70.9321 26.6741 70.7525 26.0704 70.4043C22.8247 68.3494 19.8085 65.9516 17.0736 63.252C13.1139 58.7656 10.1539 51.4443 9.99815 51.0542C9.37389 49.6771 8.36357 48.5115 7.09009 47.6991Z" fill="#262626"/>
<path d="M7.09017 47.6991H9.68666C10.961 48.5141 11.9749 49.6786 12.6077 51.0542C12.7635 51.4443 15.7105 58.7656 19.6831 63.252C22.4171 65.9473 25.4285 68.3448 28.667 70.4043C28.9266 70.562 29.206 70.6844 29.4978 70.7684H26.9013C26.6086 70.6869 26.3289 70.5643 26.0705 70.4043C22.8247 68.3494 19.8085 65.9516 17.0737 63.252C13.114 58.7656 10.154 51.4443 9.99824 51.0542C9.36698 49.6737 8.3473 48.5077 7.06421 47.6991" fill="#262626"/>
<path d="M26.9272 70.7684H29.5237C29.8301 70.8478 30.1429 70.9 30.4585 70.9245H27.862C27.5507 70.9003 27.2422 70.8481 26.9402 70.7684" fill="#262626"/>
<path d="M28.7838 78.87H31.3803C31.1564 78.9553 30.9188 78.9994 30.6792 79H28.0828C28.3224 78.9994 28.5599 78.9553 28.7838 78.87Z" fill="#262626"/>
<path d="M28.7838 78.87H31.3803C31.1564 78.9553 30.9188 78.9994 30.6792 79H28.0828C28.3224 78.9994 28.5599 78.9553 28.7838 78.87Z" fill="#262626"/>
<path d="M29.5497 78.4539H32.1461L31.3802 78.87H28.7837L29.5497 78.4539Z" fill="#262626"/>
<path d="M29.5497 78.4539H32.1461L31.3802 78.87H28.7837L29.5497 78.4539Z" fill="#262626"/>
<path d="M21.0073 25.7091H23.5908L47.6992 47.2049H45.1287L21.0073 25.7091Z" fill="#262626"/>
<path d="M21.0073 25.7091H23.5908L49.283 40.2867H46.6995L21.0073 25.7091Z" fill="#262626"/>
<path d="M46.4397 50.6119H49.0362C49.2755 51.6121 49.3803 52.6399 49.3478 53.6679C49.329 55.711 49.0275 57.7416 48.452 59.7018C46.8292 65.3196 32.1331 78.4538 32.1331 78.4538H29.5366C29.5366 78.4538 44.2457 65.3196 45.8555 59.7018C46.4343 57.742 46.7401 55.7115 46.7643 53.6679C46.7973 52.6391 46.6881 51.6107 46.4397 50.6119Z" fill="#262626"/>
<path d="M46.4397 50.6119H49.0362C49.2755 51.6121 49.3803 52.6399 49.3478 53.6679C49.329 55.711 49.0275 57.7416 48.452 59.7018C46.8292 65.3196 32.1331 78.4538 32.1331 78.4538H29.5366C29.5366 78.4538 44.2457 65.3196 45.8555 59.7018C46.4343 57.742 46.7401 55.7115 46.7643 53.6679C46.7931 52.6385 46.6795 51.6101 46.4268 50.6119" fill="#262626"/>
<path d="M46.7515 40.3127H49.3479L53.4504 42.6405H50.8539L46.7515 40.3127Z" fill="#262626"/>
<path d="M46.7515 40.3127H49.3479L53.4504 42.6405H50.8539L46.7515 40.3127Z" fill="#262626"/>
<path d="M50.802 42.6145H53.3855L55.5276 43.8239H52.9441L50.802 42.6145Z" fill="#262626"/>
<path d="M54.5408 47.0879H57.1372L56.8516 48.1802C56.553 49.3506 56.1895 50.56 55.7871 51.7824C53.8577 57.6659 50.7673 63.101 46.6994 67.7644C43.0254 71.9518 34.5349 77.0624 34.0805 77.3225C33.4054 77.7386 32.6784 78.1547 32.1331 78.4538H29.5366C30.0819 78.1547 30.8349 77.7386 31.497 77.3225C31.9384 77.0624 40.4289 71.9518 44.1029 67.7644C48.1708 63.101 51.2612 57.6659 53.1906 51.7824C53.606 50.56 53.9566 49.3506 54.2551 48.1802L54.5408 47.0879Z" fill="#262626"/>
<path d="M54.5408 47.0879H57.1372L56.8516 48.1802C56.553 49.3506 56.1895 50.56 55.7871 51.7824C53.8577 57.6659 50.7673 63.101 46.6994 67.7644C43.0254 71.9518 34.5349 77.0624 34.0805 77.3225C33.4054 77.7386 32.6784 78.1547 32.1331 78.4538H29.5366C30.0819 78.1547 30.8349 77.7386 31.497 77.3225C31.9384 77.0624 40.4289 71.9518 44.1029 67.7644C48.1708 63.101 51.2612 57.6659 53.1906 51.7824C53.606 50.56 53.9566 49.3506 54.2551 48.1802L54.5408 47.0879Z" fill="#262626"/>
<path d="M52.9441 43.8239H55.5406C56.0986 44.1493 56.548 44.6329 56.8322 45.2138C57.1164 45.7946 57.2226 46.4467 57.1374 47.0879H54.5409C54.6261 46.4467 54.5199 45.7946 54.2357 45.2138C53.9516 44.6329 53.5021 44.1493 52.9441 43.8239Z" fill="#262626"/>
<path d="M52.9441 43.8239H55.5406C56.0986 44.1493 56.548 44.6329 56.8322 45.2138C57.1164 45.7946 57.2226 46.4467 57.1374 47.0879H54.5409C54.6261 46.4467 54.5199 45.7946 54.2357 45.2138C53.9516 44.6329 53.5021 44.1493 52.9441 43.8239Z" fill="#262626"/>
<path d="M9.42701 21.6519H6.84351V29.3113H9.42701V21.6519Z" fill="#262626"/>
<path d="M6.84335 29.3113H9.43984C9.29843 30.0769 9.42207 30.868 9.79032 31.5537C10.1586 32.2394 10.7494 32.7787 11.4651 33.0825H8.86861C8.15289 32.7787 7.56208 32.2394 7.19383 31.5537C6.82559 30.868 6.70195 30.0769 6.84335 29.3113Z" fill="#262626"/>
<path d="M6.84344 29.3113H9.43992C9.29852 30.0769 9.42215 30.868 9.7904 31.5537C10.1586 32.2394 10.7495 32.7787 11.4652 33.0825H8.8687C8.15057 32.7809 7.55692 32.2425 7.1862 31.5566C6.81548 30.8707 6.68996 30.0785 6.83045 29.3113" fill="#262626"/>
<path d="M8.9856 18.3098H11.5821C10.9658 18.6322 10.444 19.1101 10.0684 19.6962C9.69272 20.2823 9.47613 20.9563 9.43999 21.6519H6.84351C6.87965 20.9563 7.09623 20.2823 7.47189 19.6962C7.84754 19.1101 8.36928 18.6322 8.9856 18.3098Z" fill="#262626"/>
<path d="M8.9856 18.3098H11.5821C10.9658 18.6322 10.444 19.1101 10.0684 19.6962C9.69272 20.2823 9.47613 20.9563 9.43999 21.6519H6.84351C6.87965 20.9563 7.09623 20.2823 7.47189 19.6962C7.84754 19.1101 8.36928 18.6322 8.9856 18.3098Z" fill="#262626"/>
<path d="M27.8879 0H30.4844C27.9788 3.31605 19.008 10.0522 15.4248 12.3539C14.3679 12.9835 13.468 13.8457 12.7932 14.8754C12.1184 15.9051 11.6864 17.0751 11.5301 18.2968H8.93359C9.08993 17.0751 9.52187 15.9051 10.1967 14.8754C10.8715 13.8457 11.7714 12.9835 12.8283 12.3539C16.4245 10.0652 25.3953 3.32905 27.8879 0Z" fill="#262626"/>
<path d="M27.8879 0H30.4844C27.9788 3.31605 19.008 10.0522 15.4248 12.3539C14.3679 12.9835 13.468 13.8457 12.7932 14.8754C12.1184 15.9051 11.6864 17.0751 11.5301 18.2968H8.93359C9.08993 17.0751 9.52187 15.9051 10.1967 14.8754C10.8715 13.8457 11.7714 12.9835 12.8283 12.3539C16.4245 10.0522 25.3953 3.31605 27.8879 0Z" fill="#262626"/>
<path d="M28.0827 8.68669H30.6791C29.9825 8.67414 29.2972 8.86383 28.7058 9.23286C28.6279 9.23286 27.096 10.3122 24.5125 11.8337C20.2932 14.3565 12.0234 18.0887 11.5301 18.3357H8.93359C9.375 18.1407 17.6578 14.4345 21.916 11.8337C24.5125 10.2862 26.0314 9.23286 26.1223 9.23286C26.7081 8.86208 27.3899 8.67214 28.0827 8.68669Z" fill="#262626"/>
<path d="M28.0827 8.68669H30.6791C29.9825 8.67414 29.2972 8.86383 28.7058 9.23286C28.6279 9.23286 27.096 10.3122 24.5125 11.8337C20.2932 14.3565 12.0234 18.0887 11.5301 18.3357H8.93359C9.375 18.1407 17.6578 14.4345 21.916 11.8337C24.5125 10.2862 26.0314 9.23286 26.1223 9.23286C26.7081 8.86208 27.3899 8.67214 28.0827 8.68669Z" fill="#262626"/>
<path d="M28.0957 14.1614H30.6922C30.7818 14.1404 30.8752 14.1404 30.9648 14.1614H28.3683C28.2787 14.1404 28.1854 14.1404 28.0957 14.1614Z" fill="#262626"/>
<path d="M8.88159 33.0824H11.4521L35.5734 54.5782H33.0029L8.88159 33.0824Z" fill="#262626"/>
<path d="M28.3552 14.2395H30.9387L36.1706 17.3345H33.5871L28.3552 14.2395Z" fill="#262626"/>
<path d="M33.5873 17.3345H36.1838C36.2892 17.3918 36.3721 17.4832 36.4192 17.5937C36.4663 17.7041 36.4748 17.8273 36.4432 17.9432C36.4116 18.0591 36.3419 18.161 36.2454 18.2322C36.1488 18.3035 36.031 18.34 35.9112 18.3358H33.3147C33.4346 18.34 33.5523 18.3035 33.6489 18.2322C33.7454 18.161 33.8152 18.0591 33.8467 17.9432C33.8783 17.8273 33.8698 17.7041 33.8227 17.5937C33.7757 17.4832 33.6927 17.3918 33.5873 17.3345Z" fill="#262626"/>
<path d="M33.5873 17.3345H36.1838C36.2892 17.3918 36.3721 17.4832 36.4192 17.5937C36.4663 17.7041 36.4748 17.8273 36.4432 17.9432C36.4116 18.0591 36.3419 18.161 36.2454 18.2322C36.1488 18.3035 36.031 18.34 35.9112 18.3358H33.3147C33.4334 18.3369 33.5491 18.2982 33.6433 18.2259C33.7376 18.1536 33.805 18.0518 33.8348 17.9367C33.8647 17.8216 33.8553 17.6998 33.8081 17.5907C33.7609 17.4816 33.6786 17.3914 33.5743 17.3345" fill="#262626"/>
<path d="M8.88159 33.0824H11.4521L38.4685 48.4012H35.885L8.88159 33.0824Z" fill="#262626"/>
<path d="M37.9364 55.0073H40.5329C40.5329 55.9436 40.0526 56.4898 39.3775 56.4898H36.781C37.4561 56.4898 37.9364 55.9176 37.9364 55.0073Z" fill="#262626"/>
<path d="M37.9364 55.0073H40.5329C40.5329 55.9436 40.0526 56.4898 39.3775 56.4898H36.781C37.4561 56.4898 37.9364 55.9436 37.9364 55.0073Z" fill="#262626"/>
<path d="M35.885 48.4012H38.4815C39.0774 48.7873 39.5738 49.3089 39.9302 49.9236C40.2867 50.5383 40.4931 51.2286 40.5327 51.9384H37.9362C37.8997 51.2279 37.6946 50.5364 37.3379 49.9212C36.9811 49.306 36.4831 48.785 35.885 48.4012Z" fill="#262626"/>
<path d="M35.885 48.4012H38.4815C39.0774 48.7873 39.5738 49.3089 39.9302 49.9236C40.2867 50.5383 40.4931 51.2286 40.5327 51.9384H37.9362C37.8997 51.2279 37.6946 50.5364 37.3379 49.9212C36.9811 49.306 36.4831 48.785 35.885 48.4012Z" fill="#262626"/>
<path d="M40.5198 51.9384H37.9363V55.0203H40.5198V51.9384Z" fill="#262626"/>
<path d="M28.0828 -2.17666e-05H30.6792C31.0317 -0.00944648 31.3778 0.0954631 31.6659 0.299073L32.6656 1.0273L33.1849 1.40442L34.7427 2.47076C36.041 3.38105 38.0273 4.64245 40.2992 6.00788C44.786 8.46824 49.3965 10.6949 54.1125 12.679C55.3069 13.1862 56.8258 13.7583 57.475 13.9794C58.1241 14.2005 58.6693 15.4229 58.6693 16.7233H56.0729C56.0729 15.4229 55.5276 14.1875 54.8785 13.9794C54.2294 13.7713 52.7104 13.1992 51.516 12.679C46.7892 10.6909 42.1659 8.46431 37.6638 6.00788C35.3919 4.64245 33.4705 3.40706 32.1203 2.47076L30.5624 1.40442L30.0691 1.0273L29.0824 0.299073C28.7895 0.0953027 28.4393 -0.00948174 28.0828 -2.17666e-05Z" fill="#262626"/>
<path d="M28.1865 0H30.783C30.915 0.01387 31.0453 0.0399905 31.1725 0.0780247H28.576C28.4489 0.0399905 28.3185 0.01387 28.1865 0" fill="#262626"/>
<path d="M28.5759 0.0780029H31.1724C31.3424 0.116641 31.502 0.192097 31.6398 0.299073L32.6394 1.0273L33.1587 1.40442L34.7166 2.47076C36.0149 3.38105 38.0012 4.64245 40.2731 6.00788C44.7683 8.46905 49.3875 10.6957 54.1123 12.679C55.3067 13.1861 56.8257 13.7583 57.4748 13.9794C58.1239 14.2005 58.6692 15.4229 58.6692 16.7233H56.0727C56.0727 15.4229 55.5274 14.1875 54.8783 13.9794C54.2292 13.7713 52.7102 13.1992 51.5159 12.679C46.789 10.6909 42.1657 8.46431 37.6636 6.00788C35.3917 4.64245 33.4703 3.40706 32.1201 2.47076L30.5622 1.40442L30.0689 1.0273L29.0822 0.299073C28.9313 0.189859 28.7586 0.114462 28.5759 0.0780029Z" fill="#262626"/>
<path d="M58.6692 16.7103H56.0857V29.0642H58.6692V16.7103Z" fill="#262626"/>
<path d="M56.1508 32.5103H58.7473V33.6546C58.7473 34.7079 58.7473 35.3061 58.7473 35.3452C58.7473 36.2684 58.189 36.8146 57.449 36.8146H54.8525C55.5536 36.8146 56.0599 36.2684 56.1508 35.3452C56.1508 35.3452 56.1508 34.7079 56.1508 33.6546V32.5103Z" fill="#262626"/>
<path d="M56.1508 32.5103H58.7473V33.6546C58.7473 34.7079 58.7473 35.3061 58.7473 35.3452C58.7473 36.2684 58.189 36.8146 57.449 36.8146H54.8525C55.5536 36.8146 56.0599 36.2684 56.1508 35.3452C56.1508 35.3452 56.1508 34.7079 56.1508 33.6546V32.5103Z" fill="#262626"/>
<path d="M56.0857 29.0642H58.6822C58.6822 30.3646 58.6822 31.9251 58.6822 32.5363H56.0857C56.1117 31.9251 56.0857 30.3646 56.0857 29.0642Z" fill="#262626"/>
<path d="M56.0857 29.0642H58.6821C58.6821 30.3646 58.6821 31.9251 58.6821 32.5363H56.0857C56.0857 31.9251 56.0208 30.3646 56.0208 29.0642" fill="#262626"/>
<path d="M15.1391 22.6141C15.4561 22.627 15.7645 22.721 16.0349 22.8872L21.0071 25.7091L45.1285 47.2049L16.0349 30.7027C15.4383 30.3174 14.9413 29.796 14.5848 29.1811C14.2282 28.5663 14.0222 27.8756 13.9836 27.1656V24.0966C13.9836 23.1603 14.451 22.6141 15.1391 22.6141Z" fill="url(#paint0_linear_734_3169)"/>
<path d="M2.20865 45.1372C2.51843 45.1555 2.81816 45.2541 3.07847 45.4233L7.09004 47.699C8.37313 48.5076 9.3928 49.6736 10.0241 51.0541C10.1799 51.4442 13.1398 58.7655 17.0995 63.2519C19.8344 65.9515 22.8506 68.3493 26.0963 70.4042C26.7031 70.7448 27.387 70.9236 28.0826 70.9236C28.7782 70.9236 29.4621 70.7448 30.0689 70.4042C33.3122 68.3459 36.3281 65.9484 39.0657 63.2519C41.9624 59.9272 44.2639 56.1261 45.8685 52.0164C46.3748 50.781 46.4398 50.5729 46.4398 50.5599C46.6886 51.5762 46.7935 52.6224 46.7513 53.6679C46.7272 55.7115 46.4213 57.742 45.8426 59.7018C44.2327 65.3196 29.5366 78.4538 29.5237 78.4538L28.7577 78.8699C28.5338 78.9552 28.2962 78.9993 28.0566 78.9999C27.8169 79.0005 27.5792 78.9564 27.3556 78.8699C26.9661 78.6878 25.7458 77.9986 24.6293 77.3224C24.1879 77.0623 15.6844 71.9517 12.0104 67.7644C8.62052 63.8673 5.91632 59.4217 4.0132 54.6172C3.01167 51.988 2.1876 49.2945 1.54654 46.5547C1.31286 45.6704 1.62444 45.1372 2.20865 45.1372Z" fill="url(#paint1_linear_734_3169)"/>
<path d="M21.0071 25.7091L46.7512 40.3127L50.8537 42.6405L52.9958 43.8498C53.5398 44.1806 53.9757 44.6631 54.2501 45.2382C54.5245 45.8133 54.6255 46.4561 54.5407 47.0879L54.2551 48.1802C53.9565 49.3506 53.6059 50.56 53.1905 51.7824C51.2612 57.6659 48.1707 63.1009 44.1028 67.7644C40.4288 71.9517 31.9383 77.0624 31.4969 77.3224C30.8088 77.7386 30.0818 78.1547 29.5365 78.4538C29.5365 78.4538 44.2456 65.3196 45.8554 59.7019C46.4342 57.7421 46.74 55.7116 46.7642 53.668C46.793 52.6386 46.6794 51.6102 46.4267 50.612C46.6089 49.9799 46.5808 49.3056 46.3466 48.6909C46.1123 48.0762 45.6848 47.5546 45.1284 47.2049L21.0071 25.7091Z" fill="url(#paint2_linear_734_3169)"/>
<path d="M27.8879 -0.00012207C25.3953 3.31593 16.4244 10.0521 12.8283 12.3538C11.7714 12.9833 10.8714 13.8456 10.1966 14.8753C9.52185 15.9049 9.08991 17.075 8.93357 18.2967C8.31725 18.6191 7.79551 19.0969 7.41985 19.683C7.0442 20.2691 6.82761 20.9432 6.79147 21.6387V29.2982C6.65098 30.0653 6.7765 30.8576 7.14722 31.5435C7.51794 32.2294 8.11159 32.7678 8.82971 33.0693L33.003 54.6172L5.42832 39.0122L1.71535 36.8405C1.25947 36.5735 0.869735 36.2067 0.575241 35.7676C0.280747 35.3285 0.089111 34.8284 0.0146484 34.3047L0.0146484 32.5102C0.0146484 31.899 0.0795605 30.3385 0.0795605 29.0381V16.6842C0.0795605 15.3837 0.61184 14.1484 1.26096 13.9403C1.91008 13.7322 3.42903 13.16 4.62341 12.6399C9.19895 10.7552 13.6712 8.62821 18.0213 6.26786C22.5132 3.60202 25.8107 1.27428 26.0574 1.06622L27.083 0.324981C27.3158 0.143659 27.5946 0.0310636 27.8879 -0.00012207V-0.00012207Z" fill="url(#paint3_linear_734_3169)"/>
<path d="M28.0956 14.1614C28.1811 14.1423 28.2697 14.1423 28.3552 14.1614L33.5482 17.2694C33.6524 17.3263 33.7347 17.4165 33.7819 17.5256C33.8291 17.6347 33.8385 17.7565 33.8087 17.8716C33.7788 17.9867 33.7114 18.0885 33.6172 18.1608C33.5229 18.2331 33.4073 18.2718 33.2885 18.2707H23.2661C23.1493 18.2726 23.0352 18.2359 22.9412 18.1664C22.8473 18.0968 22.7788 17.9982 22.7463 17.8859C22.7139 17.7735 22.7192 17.6535 22.7615 17.5444C22.8038 17.4354 22.8808 17.3433 22.9805 17.2824L27.797 14.3044C27.8811 14.2295 27.9846 14.1799 28.0956 14.1614Z" fill="url(#paint4_linear_734_3169)"/>
<path d="M8.88159 33.0824L35.885 48.4012C36.4831 48.785 36.9812 49.306 37.3379 49.9212C37.6946 50.5364 37.8998 51.2279 37.9362 51.9384V55.0073C37.9362 55.9436 37.4559 56.4898 36.7808 56.4898C36.4638 56.4769 36.1554 56.3829 35.885 56.2167L33.0029 54.6172L8.88159 33.0824Z" fill="url(#paint5_linear_734_3169)"/>
<path d="M28.0827 -2.17666e-05C28.4392 -0.00948174 28.7894 0.0953027 29.0823 0.299073L30.069 1.0273L30.6012 1.40442L32.1591 2.47076C33.4574 3.38105 35.4307 4.64245 37.7026 6.00788C42.1962 8.46352 46.8109 10.6901 51.5289 12.679C52.7233 13.1862 54.2422 13.7583 54.8914 13.9794C55.5405 14.2005 56.0857 15.4229 56.0857 16.7233V29.0772C56.0857 30.3776 56.0857 31.9381 56.1507 32.5493V33.6936C56.1507 34.747 56.1507 35.3452 56.1507 35.3842C56.1507 36.3075 55.5924 36.8536 54.8524 36.8536C54.5311 36.8424 54.2181 36.7483 53.9436 36.5806L51.438 35.1111C50.8522 34.7703 50.3566 34.2936 49.9929 33.7211C49.6291 33.1486 49.4079 32.497 49.3479 31.821C49.3479 31.717 49.3479 30.6117 49.3479 29.3113V21.6518C49.3092 20.9553 49.0901 20.2809 48.7122 19.6949C48.3344 19.1089 47.8107 18.6315 47.1928 18.3098C46.7644 18.1147 38.4816 14.4085 34.2104 11.8077C31.6139 10.2602 30.0949 9.20689 30.017 9.20689C29.4286 8.85397 28.7556 8.66758 28.0697 8.66758C27.3838 8.66758 26.7108 8.85397 26.1223 9.20689C26.0314 9.20689 24.4995 10.2862 21.916 11.8077C17.7097 14.3305 9.42693 18.0627 8.93359 18.3098C9.08993 17.0881 9.52187 15.918 10.1967 14.8884C10.8715 13.8587 11.7714 12.9964 12.8283 12.3669C16.4244 10.0652 25.3953 3.32903 27.8879 0.0129823L28.0827 -2.17666e-05Z" fill="url(#paint6_linear_734_3169)"/>
<path d="M89.8919 14.3045V12.4449C89.8919 12.3148 90.0217 12.2108 90.2813 12.2108C91.7743 12.2108 92.5662 12.3409 92.5662 12.5749C92.5662 12.809 92.4624 13.0041 92.3066 13.0041C92.1508 13.0041 92.0339 13.2251 92.0339 13.6153V14.3045H97.6553C97.9799 14.3045 98.1746 14.4345 98.1746 14.6946V17.8676H99.7066C99.8364 17.8676 99.9402 17.9976 99.9402 18.2577V19.272C99.9402 19.5321 99.8364 19.6622 99.7066 19.6622H98.1746V22.8742C98.1746 23.1343 97.9799 23.2643 97.6553 23.2643H92.0339V24.8378H97.7852C98.1097 24.8378 98.3045 24.9679 98.3045 25.2279V25.7481C98.4992 25.384 98.7329 24.9939 98.9276 24.5387C99.5861 23.2889 100.133 21.9834 100.563 20.6375C101.016 19.0473 101.376 17.432 101.641 15.8C101.848 14.7323 101.965 13.6492 101.991 12.5619C101.991 12.3929 101.991 12.3018 102.134 12.3018L104.731 13.0561C104.823 13.0793 104.906 13.1328 104.965 13.2082C105.023 13.2836 105.055 13.3765 105.055 13.4722C105.055 13.6023 104.822 13.8363 104.406 14.0964C104.069 15.6049 103.809 16.9053 103.549 17.9976H111.339C111.598 17.9976 111.728 18.1927 111.728 18.5178V19.5321C111.728 19.8962 111.598 20.0653 111.339 20.0653H109.859C109.823 23.0764 109.558 26.0803 109.067 29.0511C108.662 31.3105 107.937 33.5001 106.912 35.5532C107.194 36.0169 107.52 36.4524 107.885 36.8536C109.115 38.2259 110.505 39.4441 112.027 40.4818C112.027 40.6118 111.897 40.7158 111.702 40.8459C111.508 40.9759 110.884 41.4311 110.404 41.7952C110.241 41.9347 110.034 42.0129 109.82 42.0163C108.778 41.1863 107.798 40.2823 106.886 39.3114C106.394 38.7752 105.951 38.1964 105.562 37.5818C105.046 38.1748 104.482 38.7229 103.874 39.2204C102.648 40.3249 101.271 41.2488 99.7845 41.9642C99.4339 41.5741 99.1353 41.249 98.8757 40.9889C98.616 41.184 98.1617 41.5091 97.4736 41.9642C97.3463 41.9682 97.2205 41.9366 97.1101 41.8732C95.8082 40.9177 94.4065 40.1067 92.9297 39.4544C92.874 39.4047 92.8073 39.369 92.735 39.3504C91.8545 39.8498 90.939 40.2844 89.9957 40.6508C88.4504 41.228 86.8671 41.6973 85.2571 42.0553C85.0234 42.0553 84.8936 41.9642 84.8936 41.8342C84.634 41.4441 84.3094 40.9889 83.9848 40.3907C83.9111 40.3543 83.8483 40.2991 83.8027 40.2306C83.7572 40.1621 83.7304 40.0828 83.7252 40.0006C84.2113 39.9635 84.6934 39.8852 85.1662 39.7665C85.9452 39.6365 86.7631 39.4804 87.6719 39.2464C88.5956 38.9884 89.5019 38.6713 90.3852 38.2971L90.0866 38.167C88.9441 37.7769 87.7757 37.4128 86.5294 37.0227C86.2957 37.2827 86.101 37.5168 85.9063 37.7119C85.7115 37.7119 85.5557 37.7119 85.4908 37.5428C85.0883 37.3868 84.6989 37.2177 84.1926 37.0877C84.1017 37.0877 84.0627 36.9576 84.0627 36.8016C84.9715 35.6832 85.6985 34.773 86.2178 34.0187H82.4789C82.2842 34.0187 82.2192 33.8887 82.2192 33.6156V32.6143C82.2192 32.3412 82.2192 32.2241 82.4789 32.2241H87.5031C87.8276 31.691 88.1522 31.1708 88.4118 30.6507C88.445 30.5674 88.4886 30.4888 88.5417 30.4166H84.647C84.2964 30.4166 84.1277 30.2865 84.1277 30.0265V25.2279C84.1277 24.9679 84.2964 24.8378 84.647 24.8378H89.8399V23.1993H84.647C84.2964 23.1993 84.1277 23.0693 84.1277 22.8092V19.5972H82.4789C82.2842 19.5972 82.2192 19.4671 82.2192 19.207V18.2057C82.2192 17.9456 82.2192 17.8156 82.4789 17.8156H84.1406V14.6296C84.1406 14.3695 84.3094 14.2395 84.6599 14.2395L89.8919 14.3045ZM89.8919 17.8676V16.034H86.2957V17.8026L89.8919 17.8676ZM89.8919 19.6622H86.2957V21.4697H89.8919V19.6622ZM89.8919 26.6974H86.2957V28.609H89.8919V26.6974ZM94.0592 35.4882C94.3863 35.0916 94.6612 34.6545 94.8771 34.1878H88.9052C88.8464 34.2564 88.7942 34.3304 88.7494 34.4088C88.4768 34.773 88.2171 35.1631 87.8926 35.5532C88.9441 35.8783 89.9827 36.2424 91.0992 36.6325C91.5796 36.8276 92.0729 37.0357 92.5273 37.1917C93.136 36.6952 93.6543 36.0968 94.0592 35.4232V35.4882ZM101.381 38.4011C102.43 37.583 103.353 36.6147 104.121 35.5272C103.314 34.0193 102.699 32.4159 102.29 30.7547C101.808 28.9476 101.512 27.0956 101.407 25.2279C101.148 25.8781 100.849 26.5283 100.589 27.0875C100.32 27.1041 100.054 27.0259 99.8364 26.8665C99.3783 26.6602 98.8996 26.5032 98.4083 26.3983C98.3434 26.3983 98.3045 26.3333 98.3045 26.3073V30.1305C98.3045 30.3906 98.1097 30.5206 97.7852 30.5206H91.2939L91.6445 30.7547C91.6942 30.8514 91.7376 30.9513 91.7743 31.0538C91.7744 31.0988 91.7653 31.1433 91.7474 31.1845C91.7295 31.2257 91.7032 31.2628 91.6703 31.2934C91.6373 31.3239 91.5984 31.3473 91.556 31.362C91.5135 31.3767 91.4685 31.3825 91.4238 31.3789C90.8655 31.4439 90.5669 31.5349 90.502 31.665L90.0866 32.3282H100.473C100.641 32.3282 100.732 32.4452 100.732 32.7183V33.7196C100.732 33.9927 100.641 34.1227 100.473 34.1227H97.136C96.9167 34.6769 96.6518 35.2119 96.3441 35.7223C95.9402 36.4906 95.4383 37.2031 94.8511 37.8419L94.5915 38.076C95.1108 38.3361 95.6041 38.6352 96.0845 38.8953C96.8945 39.317 97.6791 39.786 98.4343 40.2997C99.5057 39.7903 100.498 39.129 101.381 38.3361V38.4011ZM92.0339 17.8676H95.9936V16.034H92.0339V17.8676ZM95.9936 19.6622H92.0339V21.4697H95.9936V19.6622ZM96.1234 26.6974H92.0339V28.609H96.0845L96.1234 26.6974ZM102.874 23.3553C103.303 23.3553 103.536 23.5634 103.536 23.8885C103.549 25.7062 103.767 27.5166 104.185 29.2852C104.532 30.5661 104.966 31.8218 105.484 33.0434C106.067 31.6315 106.502 30.1628 106.782 28.661C107.258 25.8634 107.519 23.0331 107.561 20.1953H103.069C102.874 21.0406 102.68 21.7558 102.524 22.354C102.394 22.7441 102.264 23.0693 102.16 23.3553H102.874Z" fill="#231815"/>
<path d="M126.295 14.3045C126.295 14.4995 126.191 14.6036 126.035 14.6036C125.885 14.5969 125.735 14.6252 125.598 14.6861C125.461 14.747 125.339 14.8389 125.243 14.9547C124.445 16.9861 123.472 18.9441 122.335 20.8065V41.6131C122.335 41.8732 122.14 42.0032 121.816 42.0032H120.517C120.154 42.0032 119.998 41.8732 119.998 41.6131V23.8885C119.219 24.7988 118.233 25.9172 117.064 27.1525C116.936 27.1521 116.81 27.1226 116.696 27.0663C116.581 27.0099 116.481 26.9283 116.402 26.8274C116.077 26.5674 115.727 26.3073 115.389 26.0082C115.32 25.9699 115.263 25.9131 115.224 25.8443C115.185 25.7754 115.166 25.6971 115.169 25.6181C116.142 24.6428 117.129 23.5634 118.103 22.406C119.394 20.9099 120.501 19.264 121.4 17.5035C122.199 16.0144 122.852 14.4509 123.348 12.835C123.348 12.666 123.49 12.5749 123.62 12.5749C124.598 13.0054 125.501 13.5893 126.295 14.3045ZM142.64 23.5634C142.847 23.6934 142.977 23.7845 142.977 23.8885C142.977 23.9925 142.873 24.2786 142.678 24.3046C142.484 24.3307 142.055 24.4997 141.99 24.7338C141.406 27.0875 140.692 29.7794 139.641 32.7833C138.991 34.812 138.342 36.6846 137.654 38.5702H145.548C145.781 38.5702 145.911 38.7652 145.911 39.0903V40.1046C145.911 40.4297 145.781 40.6248 145.548 40.6248H124.776C124.516 40.6248 124.373 40.4297 124.373 40.1046V39.0123C124.373 38.6872 124.516 38.4921 124.776 38.4921H135.343C136.2 36.2294 137.044 33.8757 137.94 31.3919C138.76 28.6333 139.414 25.8281 139.9 22.9912C139.9 22.7962 140.069 22.6661 140.134 22.6661L142.64 23.5634ZM136.992 12.64C136.992 12.926 136.862 13.0951 136.668 13.1341C136.473 13.1731 136.343 13.3942 136.343 13.7843V18.5178H144.639C144.898 18.5178 145.028 18.7129 145.028 19.051V20.0653C145.028 20.3904 144.898 20.5465 144.639 20.5465H125.633C125.373 20.5465 125.243 20.3904 125.243 20.0653V18.986C125.243 18.6479 125.373 18.4528 125.633 18.4528H134.058V12.5749C134.058 12.3409 134.227 12.2108 134.577 12.2108C136.187 12.2108 136.992 12.3409 136.992 12.5749V12.64ZM131.449 30.1565C131.968 32.0551 132.396 34.1227 132.747 36.2814C132.056 36.5761 131.333 36.7857 130.592 36.9056C130.364 35.155 130.039 33.4185 129.618 31.704C129.068 29.2539 128.37 26.8394 127.528 24.4737C127.528 24.3046 128.112 23.9145 129.294 23.3293C130.176 25.6831 130.89 28.0108 131.449 30.0915V30.1565Z" fill="#231815"/>
<path d="M162.567 13.2251C162.753 13.2292 162.934 13.288 163.087 13.3942C163.342 13.6378 163.552 13.9237 163.71 14.2394C163.245 15.3077 162.675 16.327 162.009 17.2824C161.43 18.1136 160.764 18.8809 160.023 19.5711C159.226 20.237 158.354 20.8087 157.426 21.2746L156.128 21.8858H161.438C161.775 21.8858 161.97 22.0159 161.97 22.289V29.3112C161.979 29.3827 161.971 29.4554 161.947 29.5234C161.923 29.5914 161.884 29.653 161.833 29.7033C161.781 29.7537 161.719 29.7914 161.65 29.8136C161.582 29.8358 161.509 29.8419 161.438 29.8314H154.817C154.687 30.7546 154.518 31.5349 154.388 32.2631H161.698C161.97 32.2631 162.1 32.3802 162.1 32.6532C162.095 34.5013 161.973 36.3472 161.737 38.18C161.585 39.2137 161.265 40.2154 160.789 41.1449C160.399 41.8732 159.387 42.2243 157.751 42.2243C156.115 42.2243 155.245 42.0032 155.154 41.5741C154.942 40.9189 154.607 40.31 154.168 39.7795V39.5454C155.34 39.774 156.531 39.8959 157.725 39.9095C158.002 39.9441 158.282 39.9017 158.537 39.787C158.791 39.6723 159.009 39.4897 159.166 39.2593C159.521 38.6237 159.734 37.9181 159.789 37.1917C159.952 36.1849 160.048 35.1683 160.075 34.1487H153.869C153.713 34.6819 153.545 35.2021 153.415 35.6962C153.415 35.8913 153.285 35.9563 153.259 35.9563C153.083 35.9897 152.903 35.9897 152.727 35.9563C152.246 35.8783 151.753 35.7612 151.234 35.6312C151.039 35.6312 150.974 35.5272 150.974 35.3971C151.325 34.4738 151.558 33.7586 151.688 33.3035C151.987 32.4057 152.225 31.489 152.402 30.5596C152.597 29.5063 152.766 28.4269 152.896 27.2825C152.896 27.0875 152.896 26.9574 153.129 26.9574C153.785 27.2166 154.427 27.5118 155.051 27.8417H159.789V23.9535H153.648C153.389 23.9535 153.259 23.7844 153.259 23.4333V22.9392C152.182 23.2762 151.079 23.5241 149.961 23.6804C149.702 23.6804 149.507 23.6804 149.403 23.4333C149.155 23.1173 148.926 22.7873 148.715 22.445C148.665 22.4132 148.625 22.3688 148.597 22.3163C148.57 22.2638 148.557 22.2051 148.559 22.1459C148.559 22.0809 148.559 22.0549 148.754 22.0159C149.655 21.8952 150.548 21.7215 151.428 21.4957C152.72 21.2222 153.973 20.7852 155.154 20.1953C154.622 19.7402 154.077 19.311 153.519 18.8949C152.727 18.3747 152.117 18.0106 151.623 17.7505C151.87 17.2866 152.166 16.8506 152.506 16.4501C152.529 16.3984 152.566 16.3534 152.611 16.3193C152.656 16.2852 152.71 16.2631 152.766 16.2551C153.658 16.7472 154.525 17.2854 155.362 17.8676C155.946 18.3877 156.466 18.8169 156.92 19.168C157.437 18.8858 157.932 18.5641 158.4 18.2057C159.102 17.6027 159.699 16.8862 160.166 16.086C160.383 15.7844 160.579 15.4671 160.75 15.1367H153.571C153.376 15.1367 153.311 14.9677 153.311 14.6425V13.6282C153.311 13.3681 153.311 13.2381 153.571 13.2381L162.567 13.2251ZM174.94 31.1058C175.126 31.1099 175.306 31.1686 175.459 31.2748C175.711 31.521 175.921 31.8065 176.082 32.1201C175.693 33.2505 175.211 34.3466 174.641 35.3971C174.176 36.2585 173.604 37.058 172.94 37.7769C172.71 38.0562 172.463 38.3211 172.2 38.5701C172.724 38.8271 173.267 39.0445 173.823 39.2203C175.144 39.6848 176.498 40.0499 177.874 40.3127C178.068 40.3127 178.172 40.4037 178.172 40.4687C178.161 40.6062 178.101 40.7352 178.004 40.8328C177.591 41.181 177.209 41.5639 176.861 41.9772C176.705 42.1723 176.575 42.2633 176.498 42.2633C176.32 42.2277 176.146 42.1755 175.978 42.1072L173.382 41.314C172.343 40.9451 171.328 40.5108 170.344 40.0136C169.481 40.5424 168.578 41.0033 167.644 41.392C166.656 41.7744 165.64 42.0787 164.606 42.3023C164.498 42.3124 164.389 42.2937 164.291 42.248C164.193 42.2023 164.109 42.1313 164.047 42.0422C163.796 41.7196 163.566 41.3808 163.359 41.0279C163.23 40.8979 163.204 40.8328 163.204 40.7678C163.204 40.7028 163.204 40.6118 163.359 40.6118C164.112 40.4427 164.865 40.2477 165.618 40.0526C166.623 39.7148 167.593 39.2793 168.513 38.7522C168.234 38.5604 167.973 38.3427 167.734 38.102C166.992 37.4819 166.39 36.7106 165.969 35.8393C165.402 34.9712 164.965 34.0249 164.671 33.0304H163.918C163.723 33.0304 163.658 32.8743 163.658 32.5492V31.4699C163.658 31.2358 163.723 31.1058 163.918 31.1058H174.94ZM173.278 21.8858C173.602 21.8858 173.758 22.0159 173.758 22.289V27.0485C173.758 27.2565 173.758 27.3476 173.953 27.3866C174.18 27.4936 174.43 27.5385 174.68 27.5166H174.94C175.063 27.5237 175.185 27.4925 175.289 27.4273C175.394 27.3621 175.476 27.2661 175.524 27.1525C175.67 26.5619 175.779 25.9625 175.848 25.3579C175.848 25.2929 175.913 25.2279 176.082 25.2279C176.215 25.2609 176.345 25.3044 176.472 25.3579C176.823 25.5088 177.183 25.639 177.549 25.7481C177.667 25.7665 177.775 25.8262 177.854 25.9167C177.932 26.0071 177.976 26.1224 177.978 26.2422C177.778 27.1955 177.513 28.1339 177.186 29.0511C177.056 29.2907 176.855 29.4836 176.611 29.6026C176.366 29.7216 176.09 29.7607 175.822 29.7143H173.628C173.061 29.7539 172.492 29.6604 171.967 29.4412C171.849 29.3878 171.751 29.299 171.686 29.1872C171.62 29.0753 171.592 28.946 171.603 28.817V23.8235H167.786V24.4086C167.798 25.3098 167.702 26.2092 167.501 27.0875C167.304 27.7811 166.969 28.4271 166.514 28.9861C166.128 29.3982 165.691 29.7608 165.216 30.0654C165.11 30.0736 165.004 30.0606 164.904 30.0271C164.804 29.9936 164.711 29.9403 164.632 29.8704C164.307 29.5063 164.008 29.1421 163.749 28.817C163.692 28.7684 163.645 28.7088 163.612 28.6418C163.578 28.5748 163.559 28.5017 163.554 28.4269C164.385 27.9395 165.019 27.1756 165.346 26.2682C165.499 25.594 165.577 24.905 165.579 24.2136V22.289C165.579 22.0159 165.709 21.8858 165.969 21.8858H173.278ZM166.787 12.7049C167.414 13.6912 168.112 14.63 168.877 15.5138L169.201 15.2798C169.696 14.9827 170.157 14.634 170.578 14.2394C170.959 13.8424 171.299 13.4065 171.59 12.939C171.59 12.874 171.681 12.809 171.746 12.809L173.447 14.1094C173.537 14.1745 173.613 14.258 173.668 14.3543C173.724 14.4507 173.759 14.5577 173.771 14.6686C173.771 14.8636 173.641 14.9286 173.421 14.9286C173.246 14.9132 173.072 14.9592 172.927 15.0587C172.137 15.8077 171.266 16.4663 170.331 17.0223C170.993 17.6582 171.715 18.2286 172.486 18.7258C172.657 18.613 172.821 18.4915 172.979 18.3617C173.499 18.0278 173.978 17.6351 174.407 17.1914C174.794 16.7884 175.146 16.3533 175.459 15.8909C175.459 15.7869 175.55 15.7219 175.628 15.7219L177.315 17.0223C177.422 17.0693 177.512 17.1456 177.577 17.2424C177.641 17.3391 177.677 17.4522 177.679 17.5685C177.679 17.7765 177.549 17.8416 177.289 17.8416C177.197 17.8302 177.103 17.8382 177.013 17.8651C176.924 17.8919 176.841 17.9371 176.77 17.9976C176.028 18.6853 175.239 19.3197 174.407 19.8962C175.044 20.2275 175.698 20.5227 176.368 20.7805C177.451 21.2422 178.566 21.6247 179.704 21.9249C179.701 21.9997 179.674 22.0716 179.628 22.1301C179.581 22.1886 179.517 22.2306 179.445 22.25C179.103 22.5882 178.794 22.9583 178.523 23.3553C178.523 23.4984 178.302 23.5634 178.042 23.5634C176.545 23.1537 175.089 22.6051 173.693 21.9249C172.534 21.3132 171.423 20.6133 170.37 19.8312C169.332 19.0684 168.379 18.1965 167.527 17.2304C166.503 16.0624 165.586 14.8046 164.787 13.4722C164.787 13.3421 165.372 13.0821 166.579 12.6919C166.644 12.6855 166.71 12.6899 166.774 12.7049H166.787ZM167.41 34.2137C167.836 35.025 168.383 35.7662 169.033 36.4114C169.419 36.8056 169.855 37.1467 170.331 37.4258C170.72 37.0877 171.045 36.7626 171.369 36.4374C171.981 35.753 172.489 34.9818 172.875 34.1487C173.044 33.8236 173.2 33.4725 173.395 33.0044H166.904C166.999 33.4324 167.166 33.8413 167.397 34.2137H167.41Z" fill="#231815"/>
<path d="M187.74 23.4073C187.74 25.8911 187.636 28.0498 187.481 29.8053H194.232V26.3723H189.766C189.506 26.3723 189.402 26.2032 189.402 25.8781V24.8378C189.402 24.4997 189.506 24.3436 189.766 24.3436H194.232V21.7428C194.232 21.4827 194.4 21.3527 194.764 21.3527C196.361 21.3527 197.179 21.4827 197.179 21.7428C197.179 22.0029 197.049 22.1979 196.854 22.1979C196.659 22.1979 196.516 22.497 196.516 22.8872V24.2916H202.917V21.6908C202.917 21.4307 203.086 21.3007 203.41 21.3007C205.007 21.3007 205.825 21.4307 205.825 21.6908C205.825 21.9509 205.721 22.1459 205.526 22.1459C205.332 22.1459 205.202 22.445 205.202 22.8351V24.2396H210.161C210.434 24.2396 210.563 24.3956 210.563 24.7337V25.7741C210.563 26.0992 210.434 26.2682 210.161 26.2682H205.202V29.7273H211.693C211.953 29.7273 212.082 29.8964 212.082 30.2215V31.2748C212.082 31.5999 211.953 31.756 211.693 31.756H201.307C201.71 32.598 202.179 33.4067 202.709 34.1747C203.312 35.0889 204.052 35.9046 204.903 36.5935C204.903 36.5935 204.903 36.6585 204.994 36.6585C206.188 35.7781 207.332 34.8317 208.421 33.8236C208.586 33.6783 208.789 33.5835 209.006 33.5505C209.181 33.5818 209.343 33.6631 209.473 33.7846C210.68 34.7079 211.303 35.2541 211.303 35.4621C211.309 35.5125 211.304 35.5636 211.288 35.6117C211.272 35.6598 211.246 35.704 211.211 35.741C211.177 35.7781 211.135 35.8073 211.088 35.8265C211.041 35.8457 210.99 35.8545 210.94 35.8523L210.148 35.7092C209.885 35.7339 209.636 35.8382 209.434 36.0083C208.616 36.5675 207.707 37.2177 206.695 37.9719C206.887 38.125 207.096 38.2559 207.318 38.3621C208.151 38.8321 209.019 39.2364 209.914 39.5714C210.382 39.7015 210.927 39.8315 211.589 40.0266C211.745 40.0266 211.849 40.0266 211.849 40.1956C211.836 40.2943 211.803 40.3892 211.751 40.4742C211.7 40.5593 211.631 40.6327 211.55 40.6898L210.602 41.8342C210.542 41.9261 210.459 42.0007 210.361 42.0509C210.263 42.101 210.154 42.1249 210.044 42.1202C208.638 41.6749 207.287 41.0684 206.02 40.3127C205.098 39.76 204.229 39.1245 203.423 38.4141C202.557 37.6449 201.79 36.7713 201.138 35.8132C200.301 34.5504 199.58 33.2142 198.983 31.821H194.803V38.5571C196.802 38.232 198.697 37.8679 200.489 37.4778H200.684C200.719 37.4736 200.754 37.4774 200.788 37.489C200.821 37.5006 200.852 37.5197 200.877 37.5447C200.902 37.5697 200.921 37.6001 200.932 37.6336C200.944 37.667 200.948 37.7027 200.943 37.7379C200.981 38.3392 200.937 38.9428 200.814 39.5324C197.282 40.1956 193.699 40.8328 190.103 41.301C189.779 41.8862 189.545 42.2113 189.35 42.2113C189.155 42.2113 188.701 41.301 188.052 39.5324C189.35 39.4024 190.817 39.2073 192.518 38.9472V31.86H187.195C187.13 32.1851 187.104 32.5232 187.065 32.7833C186.79 34.7545 186.276 36.6848 185.533 38.5311C185.119 39.6971 184.561 40.8067 183.872 41.8342C183.747 41.842 183.622 41.8197 183.508 41.7691C183.164 41.4189 182.77 41.121 182.34 40.8849C182.244 40.7532 182.198 40.592 182.21 40.4297C182.976 39.1742 183.574 37.8231 183.988 36.4114C184.488 34.5761 184.857 32.7074 185.092 30.8197C185.287 28.791 185.429 26.3463 185.429 23.4073V13.7193C185.429 13.3942 185.585 13.2251 185.949 13.2251H209.81C210.135 13.2251 210.291 13.3551 210.291 13.6152V19.8572C210.291 20.2213 210.135 20.3904 209.81 20.3904H187.74V23.4073ZM187.74 18.2967H208.006V15.2537H187.74V18.2967ZM202.917 29.8053V26.3723H196.516V29.8314L202.917 29.8053Z" fill="#231815"/>
<path d="M233.062 25.4879C233.322 25.4879 233.452 25.657 233.452 25.9821V27.0224C233.452 27.3475 233.322 27.5166 233.062 27.5166H216.471C216.211 27.5166 216.081 27.3475 216.081 27.0224V26.0081C216.081 25.683 216.211 25.5139 216.471 25.5139L233.062 25.4879ZM226.688 12.4838C226.688 12.8089 226.558 12.965 226.363 12.965C226.168 12.965 226.039 13.2251 226.039 13.6542V16.255H232.309C232.53 16.255 232.66 16.4241 232.66 16.7492V17.8025C232.66 18.1276 232.53 18.2837 232.309 18.2837H217.133C216.873 18.2837 216.73 18.1276 216.73 17.8025V16.7492C216.73 16.4241 216.873 16.255 217.133 16.255H223.754V12.4448C223.754 12.2107 223.922 12.0807 224.247 12.0807C225.909 12.0807 226.688 12.2107 226.688 12.4448V12.4838ZM230.777 30.1044C231.102 30.1044 231.258 30.2344 231.258 30.4945V41.483C231.258 41.7431 231.102 41.8731 230.777 41.8731H229.479C229.115 41.8731 228.947 41.7431 228.947 41.483V39.9095H220.261V41.444C220.261 41.7041 220.106 41.8341 219.781 41.8341H218.483C218.119 41.8341 217.964 41.7041 217.964 41.444V30.5855C217.952 30.5147 217.958 30.4422 217.98 30.3741C218.003 30.3059 218.04 30.2439 218.091 30.1932C218.142 30.1425 218.204 30.1045 218.272 30.0823C218.34 30.0601 218.412 30.0543 218.483 30.0654L230.777 30.1044ZM221.897 21.9248C222.222 22.7831 222.481 23.6934 222.741 24.6167C222.052 24.9453 221.316 25.1647 220.56 25.2669C220.412 24.5165 220.226 23.7742 220.002 23.0432C219.668 22.0155 219.265 21.0119 218.794 20.0392C218.794 19.8962 219.379 19.506 220.56 18.8948C221.061 19.8663 221.507 20.8648 221.897 21.8858V21.9248ZM228.973 37.9199V32.12H220.287V37.8809L228.973 37.9199ZM230.933 19.415C231.232 19.5711 231.387 19.7401 231.387 19.8962C231.389 19.9767 231.364 20.0554 231.317 20.121C231.271 20.1865 231.204 20.2353 231.128 20.2603C231.076 20.2528 231.023 20.2566 230.973 20.2715C230.922 20.2864 230.876 20.312 230.836 20.3466C230.797 20.3812 230.765 20.424 230.744 20.4719C230.723 20.5198 230.712 20.5719 230.712 20.6244C230.207 22.1158 229.572 23.5604 228.817 24.9418C228.648 25.1628 228.518 25.2669 228.453 25.2669C228.266 25.2502 228.086 25.1828 227.934 25.0718L226.636 24.5126C226.441 24.4476 226.376 24.4216 226.376 24.3826C226.393 24.2897 226.428 24.2012 226.48 24.1225C226.961 23.3519 227.394 22.5528 227.778 21.7297C228.192 20.8654 228.509 19.9584 228.726 19.0249C228.791 18.7648 228.856 18.6218 228.947 18.6218L230.933 19.415ZM237.139 41.522C237.139 41.7821 236.944 41.9121 236.619 41.9121H235.321C234.983 41.9121 234.828 41.7821 234.828 41.522V13.8492C234.828 13.6152 234.983 13.4851 235.321 13.4851H244.266C244.548 13.4762 244.828 13.5341 245.084 13.6542C245.629 14.0703 245.928 14.3694 245.928 14.4995L241.319 23.7194C241.241 23.8729 241.197 24.0414 241.189 24.2135C241.191 24.3104 241.216 24.4055 241.261 24.4913C241.306 24.5771 241.37 24.6512 241.449 24.7077C242.571 25.918 243.5 27.2955 244.201 28.791C244.899 30.3682 245.266 32.0724 245.279 33.7976C245.295 34.8244 245.068 35.8404 244.616 36.7625C244.189 37.6116 243.456 38.2669 242.565 38.5961C241.668 39.0549 240.66 39.2489 239.657 39.1553C239.073 39.1553 238.813 38.9992 238.813 38.5961C238.747 37.9793 238.557 37.3823 238.255 36.8405C238.255 36.6065 238.385 36.4764 238.645 36.4764L240.176 36.7365C240.584 36.7798 240.997 36.7177 241.374 36.5561C241.751 36.3944 242.081 36.1387 242.332 35.8132C242.788 35.2432 243.023 34.5274 242.994 33.7976C242.952 32.4232 242.652 31.0689 242.111 29.8053C241.271 28.04 240.143 26.4271 238.774 25.0328C238.696 24.9857 238.63 24.9191 238.585 24.8394C238.539 24.7596 238.515 24.6695 238.515 24.5776C238.533 24.3947 238.576 24.2152 238.645 24.0445L243.253 15.3837H237.113L237.139 41.522Z" fill="#231815"/>
<path d="M257.91 18.8169C258.365 19.8572 258.624 20.4164 258.624 20.4814C258.624 20.5464 258.52 20.6114 258.391 20.6765C257.191 21.6674 255.93 22.5796 254.613 23.4073C253.951 23.8235 253.172 24.2786 252.263 24.7728C252.179 24.8241 252.111 24.8971 252.065 24.9841C252.02 25.0711 251.998 25.1688 252.003 25.2669C252.003 25.527 251.899 25.657 251.731 25.657C251.029 25.1362 250.404 24.519 249.874 23.8235C249.82 23.7813 249.774 23.7284 249.741 23.668C249.707 23.6077 249.686 23.5411 249.679 23.4724C249.679 23.4073 249.744 23.3293 249.874 23.2643C250.644 22.9801 251.398 22.6545 252.133 22.289C253.192 21.719 254.215 21.0849 255.197 20.3904C256.08 19.8052 256.833 19.246 257.482 18.7258C257.545 18.6649 257.628 18.6281 257.716 18.6218C257.78 18.5828 257.845 18.6868 257.91 18.8169ZM273.281 23.8235C273.606 23.8235 273.801 23.9535 273.801 24.2136V37.6208C273.801 37.8809 273.606 38.0109 273.281 38.0109H270.685C271.578 38.4586 272.507 38.8284 273.463 39.1163C274.745 39.4976 276.045 39.8144 277.358 40.0656C277.579 40.1306 277.708 40.2347 277.708 40.2997C277.708 40.3647 277.228 41.0799 276.306 42.0942H275.852C273.329 41.4509 270.87 40.5804 268.504 39.4934C268.426 39.4437 268.352 39.3871 268.283 39.3244C268.283 39.1293 268.634 38.7002 269.387 38.024H260.702C261.39 38.6742 261.753 39.0643 261.753 39.1683C261.753 39.2724 261.623 39.4024 261.429 39.4024C261 39.4024 260.779 39.4024 260.74 39.5584C257.752 40.7074 254.685 41.6375 251.562 42.3413C251.46 42.3557 251.355 42.3336 251.268 42.279C251.18 42.2243 251.114 42.1405 251.082 42.0422C250.888 41.7294 250.642 41.4523 250.355 41.223C250.248 41.118 250.18 40.9809 250.16 40.8328C250.16 40.7028 250.29 40.6118 250.549 40.6118C252.185 40.2216 253.626 39.8185 254.833 39.4284C256.054 39.0544 257.244 38.5849 258.391 38.024H255.651C255.288 38.024 255.132 37.8939 255.132 37.6338V24.2136C255.132 23.9535 255.288 23.8235 255.651 23.8235H273.281ZM257.352 13.4202C257.401 13.4138 257.451 13.4188 257.498 13.4349C257.545 13.4509 257.588 13.4775 257.623 13.5127C257.658 13.5479 257.685 13.5907 257.701 13.6377C257.717 13.6848 257.722 13.735 257.716 13.7843V15.0847C257.716 15.4488 257.586 15.6049 257.352 15.6049H250.718C250.458 15.6049 250.329 15.4488 250.329 15.0847V13.7843C250.329 13.5502 250.458 13.4202 250.718 13.4202H257.352ZM271.49 27.9718V25.7481H257.482V28.0368L271.49 27.9718ZM271.49 31.873V29.9094H257.482V31.99L271.49 31.873ZM271.49 33.8106H257.482V35.9693H271.49V33.8106ZM266.388 13.004C266.388 13.1991 266.297 13.3031 266.167 13.3031C266.04 13.2956 265.913 13.3217 265.799 13.3788C265.685 13.4358 265.588 13.5218 265.518 13.6282C265.388 13.8883 265.245 14.0834 265.154 14.2784H276.54C276.747 14.2673 276.953 14.3122 277.137 14.4085C277.592 14.7336 277.812 15.0067 277.812 15.1627L274.554 19.5061C274.527 19.5501 274.489 19.5856 274.443 19.6086C274.397 19.6316 274.345 19.6412 274.294 19.6361C273.113 19.311 272.529 19.0249 272.529 18.7649L274.424 16.3331H269.945C270.021 16.6405 270.135 16.9374 270.283 17.2174C270.542 17.8039 270.907 18.3374 271.36 18.7909C271.828 19.3817 272.389 19.8913 273.022 20.2993C273.484 20.6851 274 21.0005 274.554 21.2356C275.403 21.6796 276.3 22.0243 277.228 22.263C277.721 22.393 278.28 22.484 278.929 22.5881C279.059 22.6531 279.163 22.6791 279.163 22.7181C279.163 22.7571 279.098 23.0822 278.994 23.1082C278.602 23.5138 278.242 23.9485 277.916 24.4086C277.847 24.4889 277.761 24.5536 277.665 24.5985C277.569 24.6433 277.464 24.6672 277.358 24.6687C276.296 24.4817 275.27 24.1261 274.32 23.6154C273.473 23.1834 272.665 22.6787 271.905 22.1069C271.279 21.6214 270.681 21.1004 270.114 20.5464C269.589 19.9912 269.152 19.3599 268.816 18.6738C268.756 18.615 268.719 18.5365 268.712 18.4528C268.596 18.6779 268.466 18.8951 268.322 19.103C267.944 19.6782 267.509 20.2141 267.024 20.7025C266.513 21.2219 265.947 21.6841 265.336 22.0809C264.759 22.4653 264.146 22.7919 263.506 23.0562C262.931 23.2944 262.341 23.4943 261.74 23.6544C261.659 23.6542 261.579 23.6368 261.505 23.6031C261.431 23.5695 261.365 23.5205 261.312 23.4593C260.999 23.0071 260.661 22.5729 260.299 22.1589C260.201 22.0746 260.132 21.9605 260.104 21.8338C260.104 21.8338 260.104 21.7688 260.208 21.7038C260.832 21.6079 261.445 21.4511 262.039 21.2356C262.546 21.064 263.037 20.8464 263.506 20.5854C264.113 20.2482 264.679 19.8424 265.193 19.3761C265.675 18.9948 266.111 18.5584 266.492 18.0756C266.798 17.6767 267.051 17.2396 267.245 16.7752C267.317 16.6356 267.382 16.4924 267.439 16.3461H263.843C263.639 16.5956 263.423 16.8343 263.194 17.0613C262.514 17.7606 261.794 18.4205 261.039 19.0379C260.937 19.0437 260.836 19.0227 260.745 18.9771C260.654 18.9315 260.576 18.8628 260.52 18.7779C260.235 18.5635 259.961 18.3335 259.702 18.0886C259.647 18.053 259.6 18.0052 259.567 17.9488C259.533 17.8924 259.513 17.8291 259.507 17.7635C260.026 17.2954 260.585 16.8403 261.104 16.3201C261.803 15.6572 262.418 14.9103 262.935 14.0964C263.353 13.4368 263.701 12.735 263.973 12.0027C263.976 11.9692 263.991 11.9378 264.014 11.914C264.038 11.8903 264.069 11.8756 264.103 11.8727C264.925 12.1558 265.696 12.5684 266.388 13.0951V13.004Z" fill="#231815"/>
<path d="M289.678 27.3865C290.003 27.3865 290.159 27.5166 290.159 27.7767V36.2163C290.13 36.8145 290.255 37.41 290.522 37.9459C290.677 38.3378 290.967 38.6609 291.34 38.8562C291.872 39.1451 292.446 39.347 293.041 39.4543C293.991 39.5908 294.95 39.656 295.91 39.6494H302.83C306.037 39.6005 309.236 39.3048 312.398 38.7651C312.545 38.6839 312.71 38.6393 312.878 38.6351C313.008 38.6351 313.112 38.7001 313.112 38.7651C312.85 39.6157 312.655 40.4853 312.527 41.366C312.463 41.7301 312.294 41.9251 311.969 41.9251H295.91C295.153 41.927 294.397 41.8618 293.651 41.7301C292.924 41.6082 292.204 41.4432 291.496 41.2359C290.881 40.9973 290.3 40.678 289.769 40.2866C289.297 39.7909 288.911 39.2195 288.627 38.5961L288.497 38.466C288.367 38.466 288.263 38.466 288.263 38.5571C286.121 40.2346 284.914 41.366 284.706 41.9641C284.686 42.0252 284.648 42.0788 284.597 42.1181C284.546 42.1575 284.485 42.1808 284.421 42.1852C284.291 42.1852 283.862 41.626 283.122 40.5207C283.007 40.3243 282.953 40.0979 282.966 39.8705C284.627 39.0243 286.201 38.0183 287.666 36.8665C287.757 36.8015 287.822 36.5674 287.822 36.1773V29.4412H283.745C283.486 29.4412 283.356 29.2851 283.356 28.921V27.9067C283.356 27.5816 283.486 27.3865 283.745 27.3865H289.678ZM288.004 21.4306C288.886 22.0808 289.639 22.7311 290.302 23.1992C290.255 23.2917 290.198 23.3789 290.133 23.4593C289.484 24.3826 289.146 24.8377 289.146 24.8377C288.16 24.0078 287.114 23.2515 286.017 22.575C285.314 22.1191 284.571 21.7274 283.797 21.4046C284.057 20.8734 284.399 20.3863 284.81 19.9612C284.914 19.8311 285.005 19.7401 285.07 19.7401C286.078 20.25 287.057 20.8143 288.004 21.4306ZM288.627 14.4604C289.484 15.0586 290.198 15.5788 290.821 16.0339C290.783 16.1312 290.725 16.2197 290.652 16.294L289.678 17.7115C288.719 16.9716 287.713 16.294 286.666 15.6828C285.994 15.2685 285.286 14.916 284.55 14.6295C284.814 14.1004 285.155 13.6138 285.563 13.186C285.654 13.069 285.758 12.965 285.823 12.965C286.783 13.4141 287.719 13.9133 288.627 14.4604ZM308.802 13.225C309.005 13.2115 309.207 13.2567 309.386 13.3551C309.853 13.6802 310.074 13.9403 310.074 14.1093L303.583 18.5177C304.102 18.7778 304.556 19.0119 305.011 19.2069C305.011 19.272 305.011 19.337 304.855 19.467C304.699 19.5971 304.556 19.8571 304.465 20.0002H310.139C310.222 19.99 310.306 19.9987 310.386 20.0256C310.465 20.0525 310.537 20.097 310.597 20.1557C310.657 20.2144 310.703 20.2858 310.731 20.3647C310.76 20.4436 310.77 20.5279 310.762 20.6114V36.0863C310.762 36.7365 310.333 37.2306 309.464 37.5557C308.471 37.881 307.442 38.0777 306.4 38.1409C306.127 38.1409 305.997 38.0369 305.997 37.7768C305.849 37.0891 305.6 36.4273 305.257 35.8132C305.257 35.7482 305.322 35.7222 305.517 35.7222C306.389 35.8015 307.269 35.7222 308.113 35.4881C308.265 35.4438 308.397 35.3485 308.487 35.2182C308.577 35.088 308.619 34.9307 308.607 34.7729V32.3801H303.128V37.8808C303.128 38.1409 302.933 38.245 302.596 38.245H301.298C300.947 38.245 300.778 38.1409 300.778 37.8808V32.3801H295.689V37.5818C295.689 37.8418 295.495 37.9719 295.17 37.9719H293.872C293.612 37.9719 293.508 37.8418 293.508 37.5818V20.4813C293.508 20.1562 293.612 20.0002 293.872 20.0002H302.219C301.311 19.5711 300.363 19.1809 299.454 18.8168C298.156 18.3617 297.13 17.9976 296.312 17.8025C296.559 17.3385 296.855 16.9025 297.195 16.5021C297.219 16.4503 297.255 16.4053 297.3 16.3712C297.345 16.3371 297.399 16.3151 297.455 16.307C299.052 16.8012 300.363 17.2563 301.35 17.6074L305.244 15.0846H293.755C293.495 15.0846 293.365 14.9156 293.365 14.5905V13.5762C293.359 13.5234 293.365 13.4699 293.382 13.4198C293.4 13.3696 293.428 13.324 293.466 13.2864C293.503 13.2489 293.549 13.2203 293.599 13.2029C293.649 13.1855 293.702 13.1798 293.755 13.186L308.802 13.225ZM300.869 25.2278V22.0158H295.78V25.2278H300.869ZM300.869 30.4295V27.1525H295.78V30.4555L300.869 30.4295ZM303.193 25.2278H308.672V22.0158H303.193V25.2278ZM303.193 30.4295H308.672V27.1525H303.193V30.4295Z" fill="#231815"/>
<path d="M333.429 21.3007C333.492 21.4168 333.545 21.5388 333.585 21.6648C333.585 21.8815 333.455 22.0116 333.195 22.0549C332.572 22.0549 332.248 22.224 332.183 22.406C331.56 23.4594 330.884 24.5777 330.157 25.7481H345.568C345.827 25.7481 345.957 25.8781 345.957 26.1122V27.4126C345.957 27.7637 345.827 27.9328 345.568 27.9328H339.167C338.797 29.0246 338.341 30.0856 337.804 31.1058C337.193 32.4304 336.402 33.6643 335.454 34.7729C335.247 34.994 335.052 35.1891 334.896 35.3841C335.247 35.5532 335.584 35.7222 335.87 35.8393C339.232 37.5428 342.075 39.0773 344.425 40.4557L344.256 40.7548L343.153 42.2503C339.908 40.2772 336.549 38.5011 333.091 36.9316C332.767 37.1527 332.481 37.3478 332.157 37.5428C330.807 38.445 329.372 39.2116 327.873 39.8315C325.458 40.8016 322.981 41.6096 320.46 42.2503C320.2 42.2503 320.07 42.1593 320.044 42.0292C319.685 41.5333 319.356 41.0165 319.058 40.4817C318.985 40.4375 318.923 40.3768 318.878 40.3045C318.833 40.2323 318.806 40.1505 318.798 40.0656C319.574 40.0129 320.341 39.8689 321.083 39.6365C322.437 39.3688 323.776 39.0302 325.094 38.6222C326.783 38.0103 328.424 37.2713 330.002 36.4115C330.287 36.2164 330.586 36.0213 330.846 35.8263C328.366 34.7859 326.237 33.9667 324.484 33.4075L323.017 35.1761C322.928 35.1835 322.839 35.1683 322.757 35.1319C322.675 35.0956 322.604 35.0392 322.55 34.968C322.134 34.7859 321.706 34.6169 321.252 34.4478C321.122 34.4478 321.083 34.3308 321.083 34.1227C323.043 31.769 324.549 29.7794 325.653 28.2059C325.724 28.0931 325.802 27.9846 325.886 27.8808H317.266C317.006 27.8808 316.876 27.7117 316.876 27.3606V26.0602C316.876 25.8261 317.006 25.6961 317.266 25.6961H327.353C328.103 24.5703 328.788 23.4023 329.404 22.198C329.843 21.4334 330.217 20.633 330.521 19.8052C330.521 19.6492 330.677 19.5451 330.781 19.5451L333.429 21.3007ZM333.429 12.965C333.429 13.2511 333.299 13.4202 333.104 13.4592C332.91 13.4982 332.78 13.7193 332.78 14.1094V15.7739H344.049C344.373 15.7739 344.568 15.904 344.568 16.1641V22.5491C344.568 22.8092 344.373 22.9392 344.049 22.9392H342.75C342.426 22.9392 342.257 22.8092 342.257 22.5491V17.8026H320.057V22.5491C320.057 22.8092 319.862 22.9392 319.538 22.9392H318.24C317.915 22.9392 317.746 22.8092 317.746 22.5491V16.2941C317.736 16.2257 317.742 16.1559 317.762 16.0899C317.783 16.0239 317.819 15.9636 317.866 15.9135C317.914 15.8633 317.972 15.8247 318.037 15.8005C318.102 15.7763 318.171 15.7672 318.24 15.7739H330.352V13.0041C330.352 12.744 330.508 12.6139 330.872 12.6139C332.611 12.5749 333.455 12.705 333.455 13.0041L333.429 12.965ZM328.69 27.9068V28.0108C327.899 29.1162 326.99 30.3515 325.912 31.73C328.509 32.6793 330.768 33.5636 332.728 34.3308C332.781 34.3105 332.826 34.2741 332.858 34.2268C333.825 33.2844 334.652 32.2069 335.311 31.0278C335.93 30.0295 336.435 28.9652 336.817 27.8548L328.69 27.9068Z" fill="#231815"/>
<path d="M358.018 15.3838C357.745 15.3838 357.615 15.2147 357.615 14.8896V13.5892C357.615 13.3291 357.745 13.1991 358.018 13.1991H365.392C365.533 13.2007 365.672 13.2303 365.801 13.2861C365.93 13.3419 366.047 13.4228 366.145 13.5242C367.152 15.8611 368.653 17.9509 370.546 19.6491C372.376 21.4697 375.31 22.7441 379.361 23.5504C379.815 23.6154 380.049 23.7844 380.049 23.9795C380.049 24.1746 379.984 24.2006 379.854 24.3436C379.4 24.7337 379.036 25.0849 378.712 25.41C378.66 25.5155 378.581 25.6051 378.483 25.6692C378.385 25.7333 378.271 25.7696 378.154 25.7741C377.068 25.4794 376.002 25.119 374.96 24.6947V25.644C374.96 25.9691 374.817 26.1382 374.557 26.1382H366.041V31.2098H374.337C374.385 31.2055 374.434 31.2122 374.479 31.2291C374.524 31.2461 374.565 31.2731 374.599 31.308C374.633 31.3429 374.658 31.3849 374.673 31.4309C374.688 31.4769 374.693 31.5258 374.687 31.5739V32.8743C374.687 33.2384 374.557 33.3945 374.337 33.3945H366.041V39.0123H378.024C378.076 39.006 378.13 39.0118 378.18 39.0292C378.23 39.0465 378.276 39.0751 378.313 39.1126C378.351 39.1502 378.379 39.1958 378.396 39.246C378.414 39.2962 378.42 39.3496 378.413 39.4024V40.7028C378.413 41.0409 378.283 41.197 378.024 41.197H351.358C351.085 41.197 350.994 41.0409 350.994 40.7028V39.4024C350.994 39.1423 351.085 39.0123 351.358 39.0123H363.6V33.3945H355.071C354.811 33.3945 354.681 33.2384 354.681 32.8743V31.5739C354.677 31.5226 354.684 31.471 354.702 31.4229C354.721 31.3749 354.75 31.3316 354.787 31.2965C354.825 31.2614 354.87 31.2353 354.919 31.2203C354.968 31.2053 355.02 31.2017 355.071 31.2098H363.6V26.1122H354.681C354.422 26.1122 354.292 25.9431 354.292 25.618V24.9028C353.372 25.4574 352.386 25.8943 351.358 26.2032C351.228 26.2032 351.059 26.0732 350.929 25.7741C350.605 25.41 350.241 25.0198 349.852 24.5647C349.657 24.3956 349.592 24.2786 349.592 24.1746C351.459 23.553 353.27 22.7743 355.006 21.8468C356.612 20.9238 358.114 19.8295 359.485 18.5828C360.469 17.5798 361.384 16.511 362.224 15.3838H358.018ZM373.22 23.9535C371.608 23.2846 370.11 22.3676 368.78 21.2356C367.103 19.5973 365.704 17.6953 364.639 15.6049C363.977 16.6654 363.202 17.6509 362.328 18.5438C361.322 19.7476 360.205 20.8535 358.992 21.8468C358.032 22.6309 357.017 23.3437 355.954 23.9795L373.22 23.9535Z" fill="#231815"/>
<path d="M396.173 22.406V20.8716C396.173 20.6115 396.342 20.4814 396.705 20.4814C398.302 20.4814 399.12 20.6115 399.12 20.8716C399.12 21.1316 398.99 21.3397 398.796 21.3657C398.601 21.3917 398.458 21.6258 398.458 22.0159V22.406H403.768C403.924 22.406 404.027 22.5491 404.027 22.8092V23.8495C404.284 23.6536 404.522 23.436 404.741 23.1993C405.656 22.4205 406.487 21.5489 407.221 20.5985C407.364 20.4034 407.494 20.3124 407.624 20.3124C407.811 20.3432 407.994 20.3956 408.169 20.4684C408.816 20.9574 409.416 21.506 409.96 22.1069C409.967 22.1614 409.96 22.2165 409.942 22.2683C409.924 22.32 409.895 22.367 409.856 22.4058C409.818 22.4445 409.771 22.474 409.719 22.4921C409.667 22.5102 409.612 22.5163 409.558 22.5101L409.078 22.367C408.931 22.3777 408.788 22.4192 408.658 22.4886C408.529 22.558 408.415 22.654 408.325 22.7702C406.299 24.5387 404.702 25.8781 403.521 26.8534H411.986C412.141 26.8534 412.245 26.9835 412.245 27.2436V28.2579C412.245 28.583 412.141 28.752 411.986 28.752H400.821C400.094 29.2072 399.406 29.6363 398.692 30.0525C397.978 30.4686 397.393 30.7417 396.731 31.0668H408.688C409.013 31.0668 409.207 31.1968 409.207 31.4309V41.8342C409.207 42.0943 409.013 42.2243 408.688 42.2243H407.39C407.026 42.2243 406.858 42.0943 406.858 41.8342V41.184H393.875V41.8342C393.875 42.0943 393.68 42.2243 393.356 42.2243H392.058C391.707 42.2243 391.538 42.0943 391.538 41.8342V33.2385C389.643 33.8887 387.644 34.5389 385.307 35.072C384.917 35.072 384.684 34.994 384.619 34.838C384.305 34.3838 383.919 33.9841 383.476 33.6546C383.418 33.607 383.371 33.5476 383.337 33.4804C383.304 33.4132 383.285 33.3396 383.281 33.2645C383.281 33.1344 383.372 33.0824 383.645 33.0824C385.268 32.8744 386.41 32.6793 387.059 32.5492C388.475 32.2692 389.871 31.9 391.24 31.4439C392.949 30.8599 394.611 30.147 396.212 29.3112L397.121 28.7911H384.787C384.619 28.7911 384.554 28.622 384.554 28.2969V27.3086C384.554 27.0485 384.554 26.9185 384.787 26.9185H396.134V24.3176H388.864C388.695 24.3176 388.63 24.1486 388.63 23.7975V22.7832C388.63 22.5231 388.695 22.38 388.864 22.38L396.173 22.406ZM410.973 13.0951C411.298 13.0951 411.492 13.2251 411.492 13.4852V19.5971C411.492 19.8572 411.298 20.0003 410.973 20.0003H385.865C385.501 20.0003 385.346 19.8572 385.346 19.5971V13.4852C385.346 13.2251 385.501 13.0951 385.865 13.0951H410.973ZM393.109 15.0197H387.631V18.0627H393.109V15.0197ZM406.884 35.2021V33.0044H393.901V35.2021H406.884ZM406.884 39.2854V37.0877H393.901V39.2854H406.884ZM401.275 15.0197H395.433V18.0627H401.275V15.0197ZM401.015 26.3333C401.924 25.6831 402.768 25.0329 403.521 24.3437H398.458V26.9445H400.198C400.457 26.7234 400.756 26.5283 401.015 26.3333ZM409.207 15.0197H403.586V18.0627H409.207V15.0197Z" fill="#231815"/>
<path d="M80.8171 68.4926L85.8803 55.2675H87.7627L93.1764 68.4926H91.1771L89.5933 64.4874H84.1277L82.6736 68.4926H80.8171ZM84.621 63.0569H89.0999L87.7238 59.4028C87.3083 58.2844 86.9968 57.3741 86.789 56.6589C86.6192 57.5177 86.3805 58.3614 86.075 59.1817L84.621 63.0569Z" fill="#231815"/>
<path d="M100.745 68.4926V67.2833C100.468 67.7386 100.073 68.1107 99.6024 68.3601C99.1318 68.6096 98.6026 68.7273 98.0708 68.7007C97.3237 68.704 96.5923 68.4869 95.9676 68.0765C95.3162 67.6458 94.8024 67.0364 94.4876 66.321C94.1209 65.5039 93.9391 64.6158 93.9553 63.7201C93.9416 62.8299 94.1049 61.9457 94.4357 61.1193C94.7213 60.3912 95.2189 59.766 95.8638 59.3247C96.5013 58.9122 97.247 58.6994 98.0059 58.7135C98.5393 58.701 99.0669 58.8264 99.5378 59.0777C99.9721 59.3071 100.349 59.6316 100.641 60.027V55.2675H102.251V68.4926H100.745ZM95.6301 63.7201C95.5509 64.701 95.8223 65.6781 96.396 66.477C96.6124 66.7577 96.8896 66.9855 97.2067 67.1432C97.5238 67.3009 97.8725 67.3844 98.2266 67.3873C98.5661 67.3805 98.8998 67.2975 99.2031 67.1445C99.5064 66.9914 99.7716 66.7722 99.9792 66.503C100.518 65.7478 100.78 64.8287 100.719 63.9022C100.82 62.8662 100.559 61.8273 99.9792 60.9633C99.762 60.6825 99.4835 60.4552 99.1651 60.2988C98.8467 60.1425 98.4968 60.0612 98.1422 60.0612C97.7876 60.0612 97.4376 60.1425 97.1192 60.2988C96.8008 60.4552 96.5224 60.6825 96.3052 60.9633C95.781 61.7817 95.5435 62.7516 95.6301 63.7201Z" fill="#231815"/>
<path d="M104.978 68.4926V58.9086H106.471V60.209C106.772 59.7407 107.181 59.3525 107.665 59.0776C108.187 58.7811 108.779 58.6328 109.379 58.6485C109.989 58.6218 110.594 58.7755 111.118 59.0906C111.582 59.3968 111.922 59.8575 112.079 60.391C112.383 59.8795 112.814 59.4559 113.331 59.1618C113.848 58.8677 114.432 58.7132 115.026 58.7135C115.425 58.6883 115.826 58.7444 116.203 58.8785C116.58 59.0126 116.926 59.2219 117.22 59.4938C117.78 60.1745 118.054 61.0462 117.986 61.9255V68.5056H116.324V62.4197C116.336 61.9809 116.283 61.5428 116.168 61.1193C116.065 60.829 115.863 60.5848 115.597 60.4301C115.304 60.2532 114.966 60.163 114.623 60.17C114.313 60.162 114.004 60.218 113.716 60.3343C113.428 60.4506 113.167 60.6248 112.949 60.8462C112.453 61.4454 112.215 62.217 112.287 62.9919V68.5576H110.664V62.2636C110.704 61.6987 110.568 61.1352 110.274 60.6511C110.119 60.461 109.919 60.3119 109.693 60.2167C109.467 60.1215 109.221 60.0831 108.976 60.1049C108.517 60.0959 108.066 60.2226 107.678 60.4691C107.288 60.714 106.995 61.086 106.847 61.5224C106.637 62.1683 106.545 62.8465 106.574 63.525V68.4926H104.978Z" fill="#231815"/>
<path d="M120.543 57.14V55.2675H122.166V57.14H120.543ZM120.543 68.4926V58.9086H122.166V68.4926H120.543Z" fill="#231815"/>
<path d="M124.814 68.4926V58.9086H126.268V60.274C126.594 59.7663 127.048 59.3535 127.583 59.0773C128.119 58.801 128.718 58.6711 129.319 58.7005C129.862 58.6967 130.4 58.7982 130.903 58.9996C131.333 59.1705 131.71 59.4534 131.994 59.8189C132.239 60.1852 132.411 60.596 132.5 61.0282C132.571 61.5496 132.602 62.0757 132.591 62.6017V68.4926H130.968V62.6668C130.992 62.1649 130.926 61.6629 130.773 61.1843C130.64 60.8538 130.403 60.5755 130.098 60.391C129.756 60.1904 129.365 60.0912 128.969 60.1049C128.315 60.0897 127.68 60.3219 127.19 60.7552C126.898 61.0983 126.68 61.4986 126.55 61.9307C126.42 62.3628 126.382 62.8172 126.437 63.2649V68.4666L124.814 68.4926Z" fill="#231815"/>
<path d="M135.265 57.14V55.2675H136.888V57.14H135.265ZM135.265 68.4926V58.9086H136.888V68.4926H135.265Z" fill="#231815"/>
<path d="M138.927 65.6316L140.523 65.3846C140.584 65.9547 140.852 66.4826 141.276 66.867C141.773 67.2368 142.385 67.4167 143.003 67.3742C143.592 67.4163 144.179 67.2558 144.665 66.919C144.827 66.7925 144.96 66.6311 145.052 66.4465C145.144 66.2619 145.194 66.059 145.197 65.8527C145.201 65.6794 145.16 65.508 145.078 65.3552C144.996 65.2025 144.876 65.0737 144.73 64.9814C144.199 64.734 143.641 64.5506 143.068 64.4353C142.22 64.2473 141.391 63.9863 140.588 63.655C140.16 63.4612 139.798 63.1444 139.55 62.7447C139.345 62.3652 139.238 61.9406 139.238 61.5093C139.238 61.078 139.345 60.6535 139.55 60.2739C139.746 59.9133 140.021 59.602 140.355 59.3637C140.668 59.1522 141.015 58.994 141.38 58.8955C141.836 58.7626 142.308 58.6969 142.782 58.7004C143.454 58.6854 144.124 58.7957 144.756 59.0256C145.266 59.1793 145.718 59.4828 146.054 59.8968C146.353 60.3456 146.544 60.8574 146.612 61.3923L145.028 61.6004C144.975 61.1491 144.753 60.7351 144.405 60.443C143.976 60.1448 143.46 59.9984 142.938 60.0269C142.379 59.9764 141.819 60.1087 141.341 60.404C141.2 60.4994 141.083 60.6268 140.999 60.7759C140.916 60.9249 140.868 61.0915 140.861 61.2623C140.857 61.4722 140.931 61.6762 141.069 61.8344C141.229 62.0363 141.446 62.1856 141.692 62.2636C141.848 62.2636 142.328 62.4716 143.12 62.6797C143.934 62.8838 144.736 63.1357 145.522 63.4339C145.952 63.6114 146.321 63.9094 146.586 64.2922C146.857 64.6993 146.994 65.1816 146.976 65.6707C146.976 66.2194 146.808 66.755 146.495 67.2051C146.182 67.6952 145.73 68.0801 145.197 68.3105C144.562 68.5852 143.876 68.7183 143.185 68.7006C142.178 68.7742 141.175 68.5037 140.342 67.9334C139.593 67.3764 139.086 66.5523 138.927 65.6316Z" fill="#231815"/>
<path d="M152.48 67.0362L152.714 68.4796C152.313 68.5663 151.904 68.6142 151.493 68.6227C151.018 68.6447 150.545 68.5463 150.117 68.3366C149.817 68.1732 149.576 67.9182 149.429 67.6083C149.261 66.9816 149.195 66.3316 149.235 65.6837V60.17H148.014V58.8696H149.196V56.5418L150.805 55.5665V58.9086H152.441V60.209H150.805V65.8138C150.789 66.1158 150.82 66.4184 150.896 66.7111C150.95 66.8426 151.046 66.9525 151.169 67.0232C151.342 67.1099 151.534 67.1502 151.727 67.1402C151.981 67.1289 152.233 67.0941 152.48 67.0362Z" fill="#231815"/>
<path d="M154.233 68.4926V58.9086H155.687V60.365C155.933 59.8604 156.288 59.4164 156.725 59.0646C157.027 58.847 157.392 58.7329 157.764 58.7395C158.356 58.7527 158.932 58.933 159.426 59.2597L158.867 60.7682C158.511 60.5394 158.096 60.4176 157.673 60.4171C157.329 60.4129 156.994 60.5277 156.725 60.7422C156.432 60.9632 156.218 61.2734 156.115 61.6264C155.927 62.2371 155.835 62.8732 155.842 63.512V68.5316L154.233 68.4926Z" fill="#231815"/>
<path d="M166.813 67.3092C166.305 67.7675 165.72 68.1328 165.086 68.3886C164.512 68.5992 163.905 68.705 163.294 68.7007C162.417 68.7626 161.55 68.4884 160.867 67.9335C160.435 67.5243 160.15 66.984 160.056 66.3962C159.962 65.8084 160.065 65.206 160.347 64.6824C160.544 64.3072 160.829 63.9858 161.178 63.7461C161.536 63.5063 161.931 63.3263 162.347 63.213C162.821 63.1012 163.303 63.023 163.788 62.9789C164.769 62.8818 165.738 62.6901 166.683 62.4067V61.9906C166.705 61.7368 166.672 61.4813 166.587 61.2412C166.502 61.0012 166.366 60.7822 166.19 60.5991C165.669 60.1829 165.009 59.9827 164.346 60.0399C163.755 59.9931 163.165 60.1342 162.658 60.4431C162.233 60.8087 161.944 61.3087 161.84 61.8605L160.257 61.6395C160.373 61.0478 160.617 60.4886 160.971 60.0009C161.35 59.5497 161.85 59.2159 162.412 59.0386C163.108 58.7965 163.843 58.6819 164.58 58.7005C165.254 58.6763 165.926 58.7732 166.566 58.9866C167 59.1259 167.389 59.3771 167.695 59.7148C167.945 60.0403 168.119 60.4182 168.202 60.8202C168.267 61.3159 168.293 61.8159 168.28 62.3157V64.4874C168.257 65.4422 168.292 66.3976 168.384 67.3483C168.455 67.749 168.591 68.1355 168.786 68.4926H167.098C166.935 68.1178 166.838 67.7174 166.813 67.3092ZM166.683 63.6811C165.843 63.9823 164.972 64.1873 164.086 64.2923C163.602 64.3444 163.127 64.458 162.671 64.6304C162.406 64.7319 162.179 64.9137 162.022 65.1506C161.877 65.3848 161.801 65.6551 161.801 65.9308C161.799 66.136 161.842 66.3392 161.927 66.5258C162.013 66.7124 162.138 66.8778 162.295 67.0102C162.707 67.324 163.219 67.4765 163.736 67.4393C164.316 67.4466 164.889 67.3032 165.398 67.0232C165.863 66.7747 166.237 66.3825 166.462 65.9048C166.672 65.3897 166.765 64.8346 166.735 64.2793L166.683 63.6811Z" fill="#231815"/>
<path d="M174.55 67.0362L174.784 68.4796C174.383 68.567 173.974 68.6149 173.564 68.6227C173.088 68.6436 172.615 68.5453 172.187 68.3366C171.89 68.1725 171.654 67.9172 171.512 67.6083C171.337 66.9827 171.267 66.3324 171.305 65.6837V60.17H170.084V58.8696H171.266V56.5418L172.888 55.5665V58.9086H174.511V60.209H172.888V65.8138C172.871 66.1151 172.897 66.4174 172.966 66.7111C173.029 66.8411 173.128 66.9498 173.252 67.0232C173.42 67.11 173.608 67.1504 173.797 67.1402C174.051 67.1295 174.303 67.0946 174.55 67.0362Z" fill="#231815"/>
<path d="M176.329 57.14V55.2675H177.952V57.14H176.329ZM176.329 68.4926V58.9086H177.952V68.4926H176.329Z" fill="#231815"/>
<path d="M180.003 63.72C179.952 63.0023 180.057 62.2821 180.311 61.6087C180.564 60.9354 180.959 60.3248 181.47 59.8188C182.312 59.1114 183.383 58.7368 184.482 58.7655C185.079 58.746 185.674 58.8516 186.229 59.0755C186.783 59.2994 187.285 59.6367 187.701 60.0659C188.145 60.5452 188.488 61.1085 188.711 61.7226C188.934 62.3368 189.032 62.9893 189 63.642C189.05 64.6438 188.859 65.643 188.441 66.5549C188.081 67.2507 187.52 67.8216 186.832 68.1934C186.127 68.5898 185.329 68.7918 184.521 68.7786C183.919 68.8042 183.318 68.7016 182.759 68.4774C182.199 68.2532 181.693 67.9127 181.275 67.4782C180.824 66.9684 180.478 66.3733 180.26 65.7279C180.042 65.0825 179.954 64.3998 180.003 63.72ZM181.665 63.72C181.593 64.7061 181.879 65.6848 182.47 66.4769C182.721 66.7641 183.03 66.9943 183.377 67.152C183.724 67.3097 184.101 67.3913 184.482 67.3913C184.863 67.3913 185.24 67.3097 185.587 67.152C185.934 66.9943 186.243 66.7641 186.494 66.4769C187.086 65.666 187.367 64.6691 187.286 63.668C187.361 62.7017 187.074 61.7421 186.481 60.9762C186.235 60.6873 185.928 60.4561 185.582 60.2989C185.237 60.1416 184.861 60.0621 184.482 60.0659C184.1 60.0601 183.722 60.1388 183.374 60.2961C183.026 60.4534 182.718 60.6856 182.47 60.9762C181.88 61.7637 181.594 62.7381 181.665 63.72Z" fill="#231815"/>
<path d="M191.038 68.4926V58.9086H192.505V60.274C192.829 59.7683 193.281 59.3567 193.814 59.0806C194.347 58.8045 194.943 58.6734 195.543 58.7005C196.089 58.6979 196.631 58.7994 197.14 58.9996C197.568 59.1662 197.942 59.45 198.217 59.8189C198.473 60.1795 198.646 60.5926 198.723 61.0283C198.801 61.5489 198.832 62.0756 198.814 62.6018V68.4926H197.192V62.6668C197.215 62.1649 197.149 61.6629 196.997 61.1843C196.872 60.8522 196.639 60.5724 196.335 60.3911C195.992 60.1936 195.601 60.0947 195.205 60.105C194.548 60.0928 193.91 60.3244 193.414 60.7552C193.121 61.0983 192.903 61.4986 192.773 61.9307C192.644 62.3628 192.605 62.8172 192.661 63.265V68.4666L191.038 68.4926Z" fill="#231815"/>
<path d="M207.175 68.4926V60.1699H205.747V58.8695H207.175V57.8552C207.152 57.3723 207.209 56.8888 207.344 56.4248C207.497 55.998 207.79 55.6358 208.175 55.3974C208.674 55.1086 209.248 54.9729 209.824 55.0073C210.329 55.0123 210.833 55.0645 211.33 55.1634L211.096 56.5808C210.779 56.5201 210.458 56.4897 210.135 56.4898C209.949 56.4719 209.761 56.4915 209.583 56.5473C209.405 56.6031 209.239 56.6941 209.097 56.8149C208.85 57.152 208.738 57.5698 208.785 57.9853V58.8695H210.654V60.1699H208.785V68.4926H207.175Z" fill="#231815"/>
<path d="M211.498 63.72C211.443 63.0052 211.541 62.2867 211.788 61.6136C212.034 60.9404 212.423 60.3282 212.926 59.8188C213.768 59.1114 214.84 58.7368 215.938 58.7655C216.536 58.746 217.131 58.8516 217.685 59.0755C218.239 59.2994 218.741 59.6367 219.158 60.0659C219.601 60.5452 219.945 61.1085 220.167 61.7226C220.39 62.3368 220.489 62.9893 220.456 63.642C220.506 64.6438 220.315 65.643 219.898 66.5549C219.538 67.2507 218.977 67.8216 218.288 68.1934C217.583 68.5898 216.786 68.7918 215.977 68.7786C215.375 68.8042 214.774 68.7016 214.215 68.4774C213.655 68.2532 213.15 67.9127 212.732 67.4782C212.287 66.9653 211.949 66.3688 211.737 65.7235C211.525 65.0782 211.444 64.3971 211.498 63.72ZM213.16 63.72C213.088 64.7061 213.374 65.6848 213.965 66.4769C214.216 66.7641 214.525 66.9943 214.872 67.152C215.219 67.3097 215.596 67.3913 215.977 67.3913C216.358 67.3913 216.735 67.3097 217.082 67.152C217.429 66.9943 217.738 66.7641 217.989 66.4769C218.586 65.6678 218.871 64.6708 218.794 63.668C218.865 62.7001 218.574 61.7403 217.976 60.9762C217.73 60.6873 217.423 60.4561 217.078 60.2989C216.732 60.1416 216.357 60.0621 215.977 60.0659C215.596 60.0601 215.217 60.1388 214.87 60.2961C214.522 60.4534 214.213 60.6856 213.965 60.9762C213.375 61.7637 213.089 62.7381 213.16 63.72Z" fill="#231815"/>
<path d="M222.52 68.4926V58.9086H223.974V60.365C224.221 59.8604 224.575 59.4164 225.013 59.0646C225.316 58.8486 225.68 58.7348 226.051 58.7395C226.643 58.7512 227.22 58.9317 227.713 59.2597L227.207 60.7292C226.855 60.5008 226.445 60.3789 226.026 60.378C225.677 60.3719 225.338 60.4868 225.065 60.7031C224.771 60.9214 224.561 61.2333 224.468 61.5874C224.28 62.1981 224.188 62.8342 224.195 63.473V68.4926H222.52Z" fill="#231815"/>
<path d="M243.798 63.8501L245.538 64.2922C245.274 65.5933 244.579 66.7667 243.565 67.6213C242.566 68.3913 241.332 68.7911 240.072 68.7526C238.857 68.8067 237.652 68.5038 236.606 67.8814C235.683 67.2711 234.971 66.3899 234.568 65.3586C234.096 64.2398 233.857 63.0361 233.867 61.8214C233.84 60.5746 234.111 59.3394 234.659 58.2193C235.152 57.2281 235.936 56.4114 236.905 55.8786C237.884 55.3438 238.983 55.0706 240.098 55.0853C241.292 55.0436 242.466 55.4004 243.435 56.0996C244.379 56.786 245.065 57.7709 245.382 58.8955L243.669 59.2986C243.464 58.4825 243.01 57.7506 242.37 57.205C241.733 56.7457 240.961 56.5124 240.176 56.5418C239.255 56.4992 238.345 56.7545 237.58 57.27C236.902 57.7536 236.397 58.4417 236.139 59.2336C235.857 60.0715 235.717 60.9504 235.723 61.8344C235.705 62.8405 235.872 63.8413 236.217 64.7864C236.497 65.5684 237.038 66.2297 237.749 66.659C238.42 67.0712 239.194 67.2873 239.982 67.2832C240.887 67.3133 241.773 67.0129 242.474 66.4379C243.198 65.752 243.665 64.8388 243.798 63.8501Z" fill="#231815"/>
<path d="M247.602 72.1728L247.42 70.6513C247.719 70.743 248.03 70.7912 248.342 70.7943C248.641 70.8091 248.94 70.7511 249.212 70.6253C249.431 70.5061 249.615 70.3312 249.744 70.1181C249.937 69.7271 250.102 69.323 250.238 68.9087C250.238 68.8177 250.315 68.6877 250.38 68.5056L246.758 58.9086H248.498L250.484 64.4613C250.744 65.1635 250.978 65.9048 251.185 66.672C251.373 65.9356 251.603 65.2105 251.873 64.5003L253.925 58.9086H255.534L251.873 68.6487C251.619 69.3961 251.315 70.1259 250.965 70.8333C250.738 71.2998 250.399 71.7022 249.978 72.0037C249.591 72.2527 249.14 72.3837 248.68 72.3808C248.311 72.3797 247.945 72.3091 247.602 72.1728Z" fill="#231815"/>
<path d="M258.572 68.4926H257.066V55.2675H258.689V59.988C258.99 59.5827 259.382 59.2539 259.833 59.028C260.284 58.8021 260.781 58.6855 261.286 58.6875C261.858 58.6844 262.425 58.8042 262.947 59.0387C263.457 59.2587 263.903 59.6029 264.246 60.04C264.61 60.5044 264.883 61.034 265.051 61.6005C265.24 62.2333 265.336 62.8904 265.336 63.5511C265.424 64.9299 264.988 66.291 264.116 67.3613C263.754 67.7757 263.306 68.1065 262.804 68.331C262.302 68.5555 261.758 68.6683 261.208 68.6617C260.681 68.6779 260.159 68.557 259.692 68.3109C259.226 68.0647 258.831 67.7017 258.546 67.2573L258.572 68.4926ZM258.572 63.6291C258.514 64.4848 258.68 65.3409 259.053 66.1129C259.242 66.5009 259.535 66.8282 259.9 67.058C260.264 67.2878 260.686 67.4109 261.117 67.4133C261.474 67.4098 261.826 67.3249 262.145 67.1649C262.465 67.0049 262.743 66.7741 262.96 66.49C263.454 65.6529 263.714 64.6987 263.714 63.7266C263.714 62.7546 263.454 61.8003 262.96 60.9633C262.751 60.685 262.481 60.4592 262.17 60.3035C261.859 60.1478 261.516 60.0665 261.169 60.066C260.812 60.0694 260.46 60.1544 260.141 60.3144C259.821 60.4743 259.542 60.7052 259.325 60.9893C258.767 61.7514 258.491 62.6851 258.546 63.6291H258.572Z" fill="#231815"/>
<path d="M274.061 65.4107L275.735 65.6057C275.526 66.5158 275.007 67.3248 274.268 67.8944C273.346 68.4934 272.252 68.7708 271.155 68.6838C270.059 68.5968 269.023 68.1503 268.206 67.4133C267.313 66.4222 266.847 65.1185 266.907 63.7851C266.837 62.4112 267.303 61.0637 268.206 60.027C268.62 59.5945 269.121 59.255 269.676 59.0309C270.231 58.8067 270.827 58.703 271.425 58.7265C272.011 58.7058 272.595 58.8111 273.137 59.0354C273.679 59.2598 274.166 59.5979 274.567 60.027C275.432 61.0503 275.869 62.3687 275.787 63.7071C275.787 63.8112 275.787 63.9542 275.787 64.1493H268.647C268.648 65.0329 268.965 65.8868 269.543 66.555C269.795 66.832 270.105 67.051 270.45 67.1969C270.795 67.3428 271.168 67.4122 271.542 67.4003C272.086 67.4173 272.621 67.2527 273.061 66.9321C273.539 66.5369 273.887 66.0068 274.061 65.4107ZM268.738 62.8098H274.087C274.068 62.1558 273.855 61.5222 273.476 60.9893C273.235 60.6889 272.928 60.4482 272.579 60.2858C272.23 60.1235 271.849 60.0438 271.464 60.053C271.116 60.0458 270.77 60.1089 270.446 60.2384C270.123 60.368 269.829 60.5614 269.582 60.8072C269.074 61.3432 268.779 62.0458 268.751 62.7838L268.738 62.8098Z" fill="#231815"/>
<path d="M277.942 68.4926V58.9086H279.396V60.365C279.643 59.8604 279.997 59.4164 280.435 59.0646C280.738 58.8486 281.101 58.7348 281.473 58.7395C282.065 58.7512 282.642 58.9317 283.135 59.2597L282.577 60.7682C282.225 60.5398 281.815 60.4179 281.395 60.4171C281.047 60.4109 280.708 60.5258 280.435 60.7422C280.141 60.9632 279.927 61.2734 279.825 61.6264C279.648 62.2391 279.56 62.8742 279.565 63.512V68.5316L277.942 68.4926Z" fill="#231815"/>
<path d="M289.198 64.2403L290.847 64.0972C290.895 64.6752 291.082 65.233 291.392 65.7227C291.719 66.1846 292.169 66.5452 292.69 66.7631C293.333 67.0257 294.021 67.1583 294.716 67.1532C295.317 67.161 295.915 67.0597 296.481 66.8541C296.931 66.7003 297.324 66.4149 297.611 66.0348C297.858 65.7098 297.99 65.3119 297.987 64.9035C297.995 64.5104 297.871 64.1261 297.637 63.8111C297.313 63.4538 296.901 63.189 296.442 63.0439C295.673 62.7803 294.888 62.5632 294.092 62.3937C293.198 62.2165 292.327 61.9373 291.496 61.5614C290.925 61.2865 290.436 60.8647 290.081 60.339C289.769 59.8455 289.606 59.2717 289.613 58.6875C289.615 58.0204 289.813 57.3687 290.185 56.8149C290.595 56.2232 291.174 55.7698 291.846 55.5145C292.616 55.2146 293.436 55.0646 294.261 55.0724C295.149 55.0548 296.032 55.2139 296.858 55.5405C297.567 55.8067 298.178 56.283 298.61 56.9059C299.018 57.5292 299.243 58.2546 299.259 58.9996L297.585 59.1166C297.567 58.7575 297.477 58.4056 297.321 58.0817C297.165 57.7578 296.945 57.4686 296.676 57.231C296.008 56.7546 295.196 56.5248 294.378 56.5808C293.576 56.5392 292.782 56.7631 292.119 57.218C291.897 57.3795 291.716 57.5905 291.59 57.8343C291.464 58.0781 291.396 58.3479 291.392 58.6225C291.386 58.844 291.429 59.0642 291.519 59.2667C291.609 59.4693 291.743 59.6491 291.911 59.7928C292.702 60.2853 293.586 60.6085 294.508 60.7421C295.505 60.9336 296.483 61.2166 297.429 61.5874C298.108 61.8555 298.701 62.3053 299.143 62.8878C299.51 63.4468 299.7 64.1042 299.688 64.7734C299.684 65.4822 299.471 66.1741 299.078 66.7631C298.658 67.4086 298.057 67.9154 297.351 68.2195C296.533 68.5755 295.647 68.7486 294.755 68.7267C293.73 68.7596 292.709 68.5826 291.756 68.2065C290.977 67.8846 290.312 67.3366 289.847 66.633C289.413 65.9112 289.188 65.0827 289.198 64.2403Z" fill="#231815"/>
<path d="M308.62 65.4107L310.295 65.6057C310.085 66.5158 309.566 67.3248 308.827 67.8944C307.905 68.4934 306.811 68.7708 305.715 68.6838C304.619 68.5968 303.582 68.1503 302.765 67.4133C301.896 66.4121 301.453 65.1096 301.531 63.7851C301.461 62.4112 301.927 61.0637 302.83 60.027C303.244 59.5945 303.745 59.255 304.3 59.0309C304.855 58.8067 305.451 58.703 306.049 58.7265C306.635 58.7058 307.219 58.8111 307.761 59.0354C308.303 59.2598 308.791 59.5979 309.191 60.027C310.017 61.071 310.412 62.3929 310.295 63.7201V64.1623H303.154C303.155 65.0459 303.473 65.8998 304.05 66.568C304.303 66.845 304.612 67.064 304.957 67.2099C305.302 67.3558 305.675 67.4252 306.049 67.4133C306.593 67.4304 307.128 67.2657 307.568 66.9451C308.068 66.5538 308.435 66.0181 308.62 65.4107ZM303.297 62.8098H308.646C308.621 62.1569 308.409 61.525 308.036 60.9893C307.794 60.6889 307.487 60.4482 307.139 60.2858C306.79 60.1235 306.408 60.0438 306.023 60.053C305.675 60.0458 305.329 60.1089 305.006 60.2384C304.682 60.368 304.388 60.5614 304.141 60.8072C303.624 61.3378 303.323 62.0427 303.297 62.7838V62.8098Z" fill="#231815"/>
<path d="M318.759 65.0205L320.356 65.2286C320.246 66.2227 319.786 67.1449 319.058 67.8294C318.333 68.4438 317.41 68.7721 316.461 68.7527C315.873 68.777 315.286 68.6734 314.741 68.4489C314.197 68.2244 313.707 67.8844 313.306 67.4523C312.447 66.4217 312.019 65.0984 312.112 63.7591C312.092 62.8321 312.264 61.911 312.618 61.0542C312.933 60.3107 313.486 59.6932 314.189 59.2987C314.891 58.9184 315.677 58.7216 316.474 58.7265C317.404 58.6747 318.323 58.9508 319.071 59.5067C319.762 60.0736 320.224 60.8734 320.369 61.7565L318.785 62.0035C318.687 61.4445 318.409 60.933 317.993 60.5471C317.611 60.2187 317.121 60.0428 316.617 60.0529C316.24 60.0459 315.865 60.1214 315.52 60.2741C315.175 60.4268 314.867 60.6531 314.618 60.9372C314.041 61.7446 313.77 62.7308 313.852 63.7201C313.767 64.7139 314.028 65.7064 314.592 66.529C314.827 66.8121 315.123 67.0377 315.458 67.1887C315.793 67.3397 316.159 67.4121 316.526 67.4002C317.11 67.4203 317.679 67.2102 318.11 66.8151C318.522 66.3074 318.751 65.6749 318.759 65.0205Z" fill="#231815"/>
<path d="M328.184 68.4926V67.0881C327.862 67.5955 327.414 68.0107 326.884 68.2932C326.354 68.5758 325.76 68.7161 325.159 68.7006C324.616 68.7052 324.077 68.599 323.575 68.3885C323.146 68.2176 322.769 67.9348 322.485 67.5693C322.23 67.1939 322.057 66.7683 321.979 66.3209C321.903 65.8218 321.873 65.3169 321.888 64.8124V58.9085H323.511V64.2272C323.491 64.8009 323.522 65.3753 323.601 65.9438C323.695 66.3428 323.925 66.6968 324.251 66.9451C324.611 67.1983 325.044 67.3262 325.484 67.3092C325.964 67.307 326.434 67.1768 326.847 66.9321C327.255 66.7057 327.575 66.3485 327.756 65.9177C327.953 65.3141 328.041 64.6799 328.015 64.0452V58.8435H329.638V68.4275L328.184 68.4926Z" fill="#231815"/>
<path d="M332.365 68.4926V58.9086H333.832V60.365C334.078 59.8643 334.428 59.4212 334.857 59.0646C335.161 58.851 335.524 58.7374 335.896 58.7395C336.492 58.7523 337.072 58.9326 337.57 59.2597L337.012 60.7682C336.656 60.5394 336.241 60.4176 335.818 60.4171C335.474 60.4107 335.138 60.5258 334.87 60.7422C334.572 60.9591 334.357 61.2709 334.26 61.6264C334.072 62.2371 333.98 62.8732 333.987 63.512V68.5316L332.365 68.4926Z" fill="#231815"/>
<path d="M338.7 57.14V55.2675H340.323V57.14H338.7ZM338.7 68.4926V58.9086H340.323V68.4926H338.7Z" fill="#231815"/>
<path d="M346.515 67.0362L346.749 68.4796C346.343 68.5667 345.931 68.6146 345.516 68.6227C345.045 68.6436 344.576 68.5452 344.153 68.3366C343.849 68.177 343.607 67.9208 343.465 67.6083C343.296 66.9816 343.23 66.3316 343.27 65.6837V60.17H342.075V58.8696H343.27V56.5418L344.88 55.5665V58.9086H346.515V60.209H344.88V65.8138C344.858 66.1159 344.888 66.4195 344.97 66.7111C345.024 66.8426 345.12 66.9525 345.243 67.0232C345.415 67.1117 345.608 67.1521 345.801 67.1402C346.042 67.1266 346.281 67.0918 346.515 67.0362Z" fill="#231815"/>
<path d="M348.203 72.1728L348.021 70.6513C348.324 70.7439 348.639 70.7921 348.956 70.7943C349.251 70.8096 349.546 70.7516 349.813 70.6253C350.035 70.5111 350.22 70.335 350.345 70.1181C350.544 69.7298 350.709 69.3252 350.838 68.9087C350.838 68.8177 350.916 68.6877 350.981 68.5056L347.359 58.9086H349.099L351.098 64.4613C351.358 65.1635 351.578 65.9048 351.786 66.672C351.968 65.9308 352.202 65.2026 352.448 64.5003L354.499 58.9086H356.122L352.487 68.6487C352.23 69.3969 351.922 70.1268 351.565 70.8333C351.339 71.2998 351 71.7022 350.579 72.0037C350.193 72.2548 349.741 72.386 349.281 72.3808C348.912 72.3782 348.546 72.3076 348.203 72.1728Z" fill="#231815"/>
<path d="M358.109 68.4926V66.646H359.952V68.4926C359.977 69.0655 359.852 69.6349 359.589 70.1441C359.326 70.5839 358.924 70.9228 358.446 71.1064L357.992 70.4172C358.312 70.2844 358.58 70.0518 358.758 69.754C358.942 69.3455 359.035 68.9017 359.03 68.4536L358.109 68.4926Z" fill="#231815"/>
<path d="M368.3 68.4926V58.9086H369.754V60.209C370.051 59.7376 370.462 59.3486 370.948 59.0776C371.465 58.7797 372.053 58.6311 372.649 58.6485C373.26 58.6218 373.865 58.7755 374.389 59.0906C374.856 59.3925 375.198 59.8549 375.349 60.391C375.654 59.8776 376.088 59.4528 376.607 59.1586C377.126 58.8644 377.713 58.711 378.309 58.7135C378.707 58.687 379.105 58.7425 379.481 58.8768C379.856 59.011 380.2 59.221 380.49 59.4938C381.05 60.1745 381.325 61.0462 381.256 61.9255V68.5056H379.646V62.4197C379.658 61.9809 379.606 61.5428 379.491 61.1193C379.388 60.829 379.185 60.5848 378.919 60.4301C378.624 60.2563 378.288 60.1664 377.946 60.17C377.635 60.1597 377.325 60.2145 377.037 60.3309C376.749 60.4474 376.488 60.6229 376.271 60.8462C376.023 61.1419 375.836 61.4836 375.72 61.8518C375.605 62.2199 375.562 62.6073 375.596 62.9919V68.5576H373.986V62.2636C374.023 61.6972 373.883 61.1333 373.584 60.6511C373.429 60.4601 373.229 60.3104 373.003 60.2151C372.776 60.1198 372.53 60.082 372.285 60.1049C371.826 60.0911 371.373 60.2182 370.987 60.4691C370.59 60.7092 370.291 61.0824 370.143 61.5224C369.939 62.1693 369.851 62.8474 369.884 63.525V68.4926H368.3Z" fill="#231815"/>
<path d="M383.243 63.7201C383.191 63.0011 383.297 62.2796 383.553 61.6058C383.808 60.932 384.207 60.3221 384.723 59.8188C385.559 59.1102 386.627 58.7352 387.722 58.7655C388.321 58.7458 388.918 58.8513 389.474 59.0751C390.031 59.299 390.535 59.6364 390.954 60.0659C391.395 60.5469 391.737 61.1104 391.96 61.7242C392.183 62.3379 392.282 62.9897 392.252 63.6421C392.303 64.6439 392.111 65.643 391.694 66.555C391.341 67.2557 390.778 67.8285 390.084 68.1935C389.38 68.5917 388.582 68.7937 387.774 68.7787C387.171 68.8043 386.571 68.7016 386.011 68.4775C385.452 68.2533 384.946 67.9127 384.528 67.4783C383.62 66.4452 383.158 65.0938 383.243 63.7201ZM384.904 63.7201C384.833 64.7061 385.119 65.6849 385.709 66.477C385.96 66.7642 386.27 66.9943 386.617 67.152C386.964 67.3097 387.341 67.3913 387.722 67.3913C388.103 67.3913 388.479 67.3097 388.826 67.152C389.173 66.9943 389.483 66.7642 389.734 66.477C390.33 65.6679 390.616 64.6708 390.539 63.6681C390.606 62.7026 390.32 61.7456 389.734 60.9762C389.482 60.6909 389.172 60.4624 388.825 60.3059C388.478 60.1494 388.102 60.0685 387.722 60.0685C387.341 60.0685 386.965 60.1494 386.618 60.3059C386.271 60.4624 385.961 60.6909 385.709 60.9762C385.12 61.7637 384.834 62.7382 384.904 63.7201Z" fill="#231815"/>
<path d="M400.483 68.4926V67.2833C400.206 67.7386 399.811 68.1107 399.34 68.3601C398.87 68.6096 398.341 68.7273 397.809 68.7007C397.066 68.7046 396.338 68.4873 395.719 68.0765C395.06 67.65 394.541 67.0397 394.226 66.321C393.859 65.5039 393.677 64.6158 393.693 63.7201C393.686 62.8304 393.849 61.9475 394.174 61.1193C394.463 60.3895 394.965 59.764 395.615 59.3247C396.248 58.9125 396.989 58.6996 397.744 58.7135C398.281 58.7028 398.813 58.828 399.289 59.0777C399.717 59.3109 400.089 59.6348 400.379 60.027V55.2675H401.989V68.4926H400.483ZM395.368 63.7201C395.296 64.7003 395.566 65.6752 396.134 66.477C396.35 66.7577 396.628 66.9855 396.945 67.1432C397.262 67.3009 397.611 67.3844 397.965 67.3873C398.312 67.3899 398.655 67.3127 398.968 67.1616C399.281 67.0106 399.555 66.7897 399.769 66.516C400.318 65.7652 400.58 64.8428 400.509 63.9152C400.594 62.895 400.329 61.8763 399.756 61.0283C399.541 60.7387 399.261 60.5041 398.938 60.3436C398.616 60.1832 398.26 60.1014 397.9 60.105C397.551 60.102 397.206 60.1803 396.893 60.3338C396.58 60.4872 396.307 60.7117 396.095 60.9893C395.552 61.7912 395.296 62.7537 395.368 63.7201Z" fill="#231815"/>
<path d="M410.96 67.3092C410.454 67.7701 409.869 68.1357 409.233 68.3885C408.66 68.5992 408.053 68.7049 407.442 68.7006C406.568 68.7645 405.704 68.4898 405.027 67.9334C404.748 67.6897 404.527 67.3873 404.379 67.0478C404.231 66.7083 404.16 66.3401 404.17 65.9698C404.168 65.5159 404.279 65.0687 404.495 64.6694C404.695 64.2926 404.985 63.9711 405.339 63.7331C405.691 63.491 406.082 63.3107 406.494 63.1999C406.969 63.0902 407.45 63.012 407.935 62.9658C408.916 62.8687 409.886 62.6771 410.83 62.3936C410.83 62.1726 410.83 62.0425 410.83 61.9775C410.858 61.7255 410.831 61.4704 410.75 61.2301C410.669 60.9898 410.537 60.77 410.363 60.5861C409.843 60.1698 409.183 59.9696 408.519 60.0269C407.928 59.9801 407.338 60.1211 406.832 60.43C406.406 60.7935 406.121 61.2952 406.027 61.8475L404.443 61.6264C404.547 61.0311 404.792 60.4693 405.157 59.9879C405.531 59.537 406.027 59.2031 406.585 59.0256C407.282 58.7842 408.016 58.6697 408.753 58.6875C409.427 58.6633 410.1 58.7602 410.739 58.9736C411.175 59.1088 411.566 59.3606 411.869 59.7018C412.129 60.021 412.303 60.4015 412.375 60.8071C412.44 61.3028 412.466 61.8028 412.453 62.3026V64.4743C412.431 65.4292 412.465 66.3845 412.557 67.3352C412.633 67.7366 412.773 68.123 412.972 68.4796H411.272C411.101 68.1105 410.995 67.7144 410.96 67.3092ZM410.83 63.681C409.991 63.9852 409.12 64.1903 408.234 64.2922C407.75 64.346 407.275 64.4595 406.819 64.6303C406.556 64.7302 406.333 64.9127 406.183 65.1505C406.002 65.4421 405.93 65.7876 405.977 66.1273C406.025 66.4669 406.189 66.7792 406.442 67.0101C406.855 67.3228 407.367 67.4753 407.883 67.4392C408.464 67.4483 409.037 67.3049 409.545 67.0231C410.014 66.7754 410.392 66.3834 410.623 65.9047C410.82 65.3867 410.909 64.8332 410.882 64.2792L410.83 63.681Z" fill="#231815"/>
</g>
<defs>
<linearGradient id="paint0_linear_734_3169" x1="54.4498" y1="-12.536" x2="8.42325" y2="75.7771" gradientUnits="userSpaceOnUse">
<stop stop-color="#B5B5B6"/>
<stop offset="0.16" stop-color="#F4F4F4"/>
<stop offset="0.33" stop-color="#9FA0A0"/>
<stop offset="0.5" stop-color="white"/>
<stop offset="0.56" stop-color="#E1E1E1"/>
<stop offset="0.67" stop-color="#9FA0A0"/>
<stop offset="0.84" stop-color="white"/>
<stop offset="1" stop-color="#898989"/>
</linearGradient>
<linearGradient id="paint1_linear_734_3169" x1="56.9685" y1="-11.2356" x2="10.9289" y2="77.0774" gradientUnits="userSpaceOnUse">
<stop stop-color="#B5B5B6"/>
<stop offset="0.16" stop-color="#F4F4F4"/>
<stop offset="0.33" stop-color="#9FA0A0"/>
<stop offset="0.5" stop-color="white"/>
<stop offset="0.56" stop-color="#E1E1E1"/>
<stop offset="0.67" stop-color="#9FA0A0"/>
<stop offset="0.84" stop-color="white"/>
<stop offset="1" stop-color="#898989"/>
</linearGradient>
<linearGradient id="paint2_linear_734_3169" x1="62.0315" y1="-8.58275" x2="15.9919" y2="79.7173" gradientUnits="userSpaceOnUse">
<stop stop-color="#B5B5B6"/>
<stop offset="0.16" stop-color="#F4F4F4"/>
<stop offset="0.33" stop-color="#9FA0A0"/>
<stop offset="0.5" stop-color="white"/>
<stop offset="0.56" stop-color="#E1E1E1"/>
<stop offset="0.67" stop-color="#9FA0A0"/>
<stop offset="0.84" stop-color="white"/>
<stop offset="1" stop-color="#898989"/>
</linearGradient>
<linearGradient id="paint3_linear_734_3169" x1="44.09" y1="-17.9458" x2="-1.94962" y2="70.3672" gradientUnits="userSpaceOnUse">
<stop stop-color="#B5B5B6"/>
<stop offset="0.16" stop-color="#F4F4F4"/>
<stop offset="0.33" stop-color="#9FA0A0"/>
<stop offset="0.5" stop-color="white"/>
<stop offset="0.56" stop-color="#E1E1E1"/>
<stop offset="0.67" stop-color="#9FA0A0"/>
<stop offset="0.84" stop-color="white"/>
<stop offset="1" stop-color="#898989"/>
</linearGradient>
<linearGradient id="paint4_linear_734_3169" x1="46.271" y1="-16.8014" x2="0.231384" y2="71.4986" gradientUnits="userSpaceOnUse">
<stop stop-color="#B5B5B6"/>
<stop offset="0.16" stop-color="#F4F4F4"/>
<stop offset="0.33" stop-color="#9FA0A0"/>
<stop offset="0.5" stop-color="white"/>
<stop offset="0.56" stop-color="#E1E1E1"/>
<stop offset="0.67" stop-color="#9FA0A0"/>
<stop offset="0.84" stop-color="white"/>
<stop offset="1" stop-color="#898989"/>
</linearGradient>
<linearGradient id="paint5_linear_734_3169" x1="53.2555" y1="-13.1602" x2="7.22891" y2="75.1528" gradientUnits="userSpaceOnUse">
<stop stop-color="#B5B5B6"/>
<stop offset="0.16" stop-color="#F4F4F4"/>
<stop offset="0.33" stop-color="#9FA0A0"/>
<stop offset="0.5" stop-color="white"/>
<stop offset="0.56" stop-color="#E1E1E1"/>
<stop offset="0.67" stop-color="#9FA0A0"/>
<stop offset="0.84" stop-color="white"/>
<stop offset="1" stop-color="#898989"/>
</linearGradient>
<linearGradient id="paint6_linear_734_3169" x1="53.1777" y1="-13.1992" x2="7.15109" y2="75.1138" gradientUnits="userSpaceOnUse">
<stop stop-color="#B5B5B6"/>
<stop offset="0.16" stop-color="#F4F4F4"/>
<stop offset="0.33" stop-color="#9FA0A0"/>
<stop offset="0.5" stop-color="white"/>
<stop offset="0.56" stop-color="#E1E1E1"/>
<stop offset="0.67" stop-color="#9FA0A0"/>
<stop offset="0.84" stop-color="white"/>
<stop offset="1" stop-color="#898989"/>
</linearGradient>
<clipPath id="clip0_734_3169">
<rect width="413" height="79" fill="white"/>
</clipPath>
</defs>
</svg>
