<svg width="264" height="264" viewBox="0 0 264 264" fill="none" xmlns="http://www.w3.org/2000/svg">
<path d="M147.37 80.9773C148.06 80.9773 148.68 81.5373 149.19 83.0273C149.09 83.2573 149.72 83.5173 150.5 83.8573C151.27 85.5973 153.08 85.6573 154.64 86.4873C155.64 87.2773 157.26 87.3873 157.4 89.1573C157.84 89.4373 158.7 89.5773 158.8 90.3473C156.16 92.3473 152.72 96.7173 154.94 100.707C157.22 103.247 153.74 106.787 152.64 109.517C152.623 110.389 152.345 111.236 151.843 111.949C151.34 112.662 150.636 113.208 149.82 113.517C149.75 114.287 149.65 115.067 149.54 115.867H155.05C156.398 114.513 157.272 112.759 157.54 110.867C157.72 110.527 157.96 110.127 158.19 109.737C159.6 107.347 162.46 102.517 159.25 98.1073C159.12 97.2873 160.34 95.4773 161.82 94.3473L164.15 92.5873L163.76 89.7073C163.661 88.9334 163.408 88.1872 163.016 87.5124C162.625 86.8375 162.103 86.2476 161.48 85.7773C160.611 84.3845 159.347 83.2812 157.85 82.6073L157.62 82.4873L157.39 82.3073L156.99 82.0973C156.348 81.7546 155.679 81.4636 154.99 81.2273L154.8 81.1473L154.33 80.0773L153.12 79.5573C152.584 78.4972 151.767 77.6047 150.758 76.9769C149.75 76.3492 148.588 76.0103 147.4 75.9973C144.26 75.9973 142.12 78.1973 140.4 79.9973C140.04 80.3673 139.54 80.8773 139.19 81.1773C131.85 82.6373 125.63 88.3973 123.85 95.0973C119.3 99.0973 116.54 104.097 113.85 109.027C112.93 110.727 112.05 112.337 111.11 113.887C110.54 114.597 110.03 115.277 109.54 115.937H115.24V116.707C119.32 110.067 122.12 102.557 128.39 97.8273C129.06 91.9773 134.66 87.1173 140.27 86.0573C142.53 85.9973 145.28 80.9773 147.37 80.9773Z" fill="white"/>
<path d="M127.86 181.747C127.76 182.047 127.65 182.177 127.52 182.177C126.99 182.177 126.26 179.877 125.65 179.797C125.58 180.627 125.37 180.957 125.1 180.957C124.15 180.957 122.45 176.957 123.25 175.847C124.14 173.907 121.71 171.417 121.67 170.467C120.58 169.467 117.85 165.887 116.48 164.717C116.408 164.818 116.314 164.902 116.205 164.961C116.095 165.02 115.974 165.053 115.85 165.057C114.92 165.057 113.85 163.327 112.85 163.207C111.11 162.097 112.78 162.367 112.25 161.737H106.32C106.539 162.222 106.793 162.69 107.08 163.137C107.247 164.033 107.609 164.882 108.142 165.622C108.674 166.362 109.363 166.975 110.16 167.417L111.1 168.017H111.16C112.098 168.914 113.247 169.561 114.5 169.897L115.61 171.197C116.29 172.007 116.84 172.657 117.32 173.197C117.52 173.617 117.74 173.997 117.94 174.347C118.02 174.507 118.14 174.707 118.25 174.907C117.49 177.797 118.88 180.907 119.41 181.907C120.8 184.587 122.56 185.567 124.04 185.857C124.988 186.712 126.223 187.18 127.5 187.167C128.656 187.154 129.776 186.768 130.695 186.067C131.613 185.367 132.282 184.388 132.6 183.277L132.7 182.947L132.76 182.597C133.16 180.317 133.4 178.007 133.62 175.767C134.17 170.377 134.62 165.557 137.21 161.767H131.52C128.71 167.937 129.01 175.207 127.86 181.747Z" fill="white"/>
<path d="M87.6301 136.287L77.5501 118.867H68.5701V158.737H78.8501V140.477L89.3301 158.737H97.9101V118.867H87.6301V136.287Z" fill="white"/>
<path d="M112.23 158.737V120.687V118.867H107.46H101.95V135.177V149.807V158.737H105.59H110.59H112.23Z" fill="white"/>
<path d="M116.27 125.207V152.457C116.27 157.047 118.57 158.737 123.11 158.737H139.71V149.607H126.55V128.057L139.72 128.007V118.837H123.11C118.57 118.837 116.27 120.617 116.27 125.207Z" fill="white"/>
<path d="M159.53 134.097H153.05V128.007H165.21V118.837H149.71H148.96C144.9 119.027 142.73 120.837 142.73 125.347V136.927C142.64 138.362 143.012 139.788 143.79 140.997C144.62 142.127 146.05 142.897 148.36 143.107C148.77 143.107 149.2 143.167 149.66 143.167H156.25V149.547H142.77V158.677H159.58C164.07 158.677 166.58 156.987 166.58 152.397V140.837C166.57 136.087 164.32 134.097 159.53 134.097Z" fill="white"/>
<path d="M168.57 118.867H168.21V127.997H168.57H176.74V158.737H187.02V127.997H195.55V118.867H168.57Z" fill="white"/>
</svg>
