<?xml version="1.0" encoding="UTF-8"?>
<svg id="_層_1" data-name="圖層 1" xmlns="http://www.w3.org/2000/svg" width="416.23" height="339.54" viewBox="0 0 416.23 339.54">
  <defs>
    <style>
      .cls-1 {
        fill: #fff;
      }

      .cls-2 {
        fill: #da8b41;
      }

      .cls-3 {
        fill: #71ad91;
      }

      .cls-4 {
        fill: #95c1ac;
      }

      .cls-5 {
        fill: #4e9875;
      }

      .cls-6 {
        fill: none;
        stroke: #4d4d4d;
        stroke-miterlimit: 10;
      }
    </style>
  </defs>
  <g>
    <path d="M395.12,218.35c-.49,2.99-1.21,5.4-2.38,7.36,.97,1.49,2.2,2.65,3.75,3.37-.29,.27-.7,.79-.92,1.13-1.48-.77-2.67-1.91-3.62-3.31-1.03,1.35-2.36,2.47-4.05,3.35-.14-.31-.52-.88-.77-1.17,1.76-.85,3.08-1.96,4.09-3.4-.79-1.48-1.39-3.21-1.85-5.11-.36,.72-.76,1.39-1.17,1.96-.22-.23-.77-.68-1.06-.88l.09-.13h-2.02v4.57l3.08-.7,.13,1.21c-2.95,.72-6.14,1.48-8.37,1.98l-.25-1.33,1.06-.22v-7.99h1.22v7.72l1.84-.4v-10.03h-3.82v-1.3h8.23v1.3h-3.11v3.93h2.45v.63c1.21-1.87,2.02-4.43,2.5-7.13l1.33,.23c-.22,1.06-.49,2.12-.77,3.1h5.62v1.26h-1.21Zm-4.95,.31c.41,2.12,.99,4.09,1.82,5.74,.86-1.66,1.42-3.67,1.78-6.05h-3.48l-.13,.31Z"/>
    <path d="M394.22,232.75c-.02,6.7,.02,14.04,1.06,14.04,.22,0,.32-1.19,.36-2.75,.23,.34,.56,.74,.81,.94-.13,2.3-.4,3.22-1.31,3.22-2.18,0-2.14-6.36-2.21-14.21h-9.7v4.54c0,2.9-.31,7-2.34,9.7-.22-.25-.76-.59-1.06-.76,1.93-2.56,2.12-6.19,2.12-8.95v-5.78h12.28Zm-3.28,10.6c.92,1.21,1.82,2.84,2.12,3.94l-1.08,.4c-.11-.41-.31-.88-.54-1.37-2.99,.22-6.07,.41-8.19,.58l-.09-1.21c1.12-.05,2.59-.14,4.2-.25v-2.52h-3.12v-4.9h3.12v-1.73h-3.37v-1.12h8.05v1.12h-3.49v1.73h3.19v4.9h-3.19v2.45l2.34-.14c-.31-.52-.63-1.06-.97-1.51l1.03-.36Zm-3.58-1.49v-2.75h-2.03v2.75h2.03Zm1.19-2.75v2.75h2.05v-2.75h-2.05Z"/>
    <path d="M396.07,264.49v1.21h-15.86v-1.21h7.22v-2.38h-5.58v-1.19h5.58v-1.89h1.35v1.89h5.71v1.19h-5.71v2.38h7.29Zm-14.35-9.97h-1.3v-3.17h7.24c-.2-.45-.47-.97-.7-1.39l1.28-.38c.32,.54,.7,1.24,.92,1.76h6.66v3.17h-1.35v-1.93h-12.75v1.93Zm11.81,5.06c-.25-.32-.59-.74-1.03-1.15-8.53,.67-9.38,.72-9.94,.95-.07-.27-.25-.88-.4-1.22,.34-.05,.76-.29,1.22-.65,.4-.27,1.48-1.13,2.48-2.16h-3.64v-1.17h11.87v1.17h-6.5c-.95,.95-2,1.85-3.04,2.61l6.95-.49c-.49-.45-.99-.88-1.46-1.26l.99-.63c1.22,.95,2.77,2.32,3.53,3.26l-1.04,.74Z"/>
    <path d="M351.11,228.31v1.31h-15.92v-1.31h7.2v-4.41h-5.55v-1.3h5.55v-3.94h-6.37v-1.31h7.9c-.7-.83-1.98-1.96-3.06-2.75l1.08-.76c1.15,.83,2.59,2.05,3.29,2.9l-.85,.61h5.82v1.31h-6.39v3.94h5.65v1.3h-5.65v4.41h7.29Z"/>
    <path d="M342.72,235.92h-7.4v-1.1h7.4v1.1Zm-6.61,1.26h5.85v1.06h-5.85v-1.06Zm5.8,3.4h-5.8v-1.06h5.8v1.06Zm.05,6.54h-4.54v.85h-1.17v-6.05h5.71v5.2Zm-4.54-4.09v2.97h3.35v-2.97h-3.35Zm1.35-8.41c-.25-.65-.83-1.66-1.31-2.4l1.01-.52c.54,.74,1.12,1.67,1.39,2.3l-1.08,.61Zm12.48,4.66h-3.69v8.93h-1.35v-8.93h-3.53v-1.31h3.53v-5.87h1.35v5.87h3.69v1.31Z"/>
    <path d="M351.07,264.49v1.21h-15.86v-1.21h7.22v-2.38h-5.58v-1.19h5.58v-1.89h1.35v1.89h5.71v1.19h-5.71v2.38h7.29Zm-14.35-9.97h-1.3v-3.17h7.24c-.2-.45-.47-.97-.7-1.39l1.28-.38c.32,.54,.7,1.24,.92,1.76h6.66v3.17h-1.35v-1.93h-12.75v1.93Zm11.81,5.06c-.25-.32-.59-.74-1.03-1.15-8.53,.67-9.38,.72-9.94,.95-.07-.27-.25-.88-.4-1.22,.34-.05,.76-.29,1.22-.65,.4-.27,1.48-1.13,2.48-2.16h-3.64v-1.17h11.87v1.17h-6.5c-.95,.95-2,1.85-3.04,2.61l6.95-.49c-.49-.45-.99-.88-1.46-1.26l.99-.63c1.22,.95,2.77,2.32,3.53,3.26l-1.04,.74Z"/>
    <path d="M298.83,213.83c-.02,.65-.04,1.55-.13,2.61,.27,2.14,1.35,9.67,7.71,12.5-.38,.31-.77,.76-.97,1.13-4.5-2.11-6.43-6.55-7.29-9.9-.83,3.6-2.74,7.63-7.13,9.98-.23-.36-.67-.76-1.08-1.04,7.47-3.78,7.36-12.53,7.42-15.27h1.48Z"/>
    <path d="M306.23,243.11h-1.85v3.19h-1.33v-.81h-4.32v1.24c0,.83-.25,1.13-.79,1.33-.56,.2-1.49,.22-2.99,.22-.07-.34-.29-.83-.47-1.13,1.08,.04,2.16,.02,2.47,.02,.34-.02,.45-.13,.45-.43v-1.24h-5.82v-1.03h5.82v-1.35h-7.36v-1.06h7.36v-1.26h-5.65v-.99h5.65v-1.26h-5.15v-3.17h5.15v-1.04h-7.02v-1.1h7.02v-1.44h1.33v1.44h7.17v1.1h-7.17v1.04h5.37v3.17h-5.37v1.26h5.65v2.25h1.85v1.06Zm-8.84-5.51v-1.3h-3.87v1.3h3.87Zm1.33-1.3v1.3h4.03v-1.3h-4.03Zm0,5.74h4.32v-1.26h-4.32v1.26Zm4.32,1.06h-4.32v1.35h4.32v-1.35Z"/>
    <path d="M306.07,264.49v1.21h-15.86v-1.21h7.22v-2.38h-5.58v-1.19h5.58v-1.89h1.35v1.89h5.71v1.19h-5.71v2.38h7.29Zm-14.35-9.97h-1.3v-3.17h7.24c-.2-.45-.47-.97-.7-1.39l1.28-.38c.32,.54,.7,1.24,.92,1.76h6.66v3.17h-1.35v-1.93h-12.75v1.93Zm11.81,5.06c-.25-.32-.59-.74-1.03-1.15-8.53,.67-9.38,.72-9.94,.95-.07-.27-.25-.88-.4-1.22,.34-.05,.76-.29,1.22-.65,.4-.27,1.48-1.13,2.48-2.16h-3.64v-1.17h11.87v1.17h-6.5c-.95,.95-2,1.85-3.04,2.61l6.95-.49c-.49-.45-.99-.88-1.46-1.26l.99-.63c1.22,.95,2.77,2.32,3.53,3.26l-1.04,.74Z"/>
    <path d="M250.12,224.6c-.23-.54-.76-1.55-1.22-2.39v8.03h-1.26v-7.47c-.61,1.67-1.39,3.29-2.16,4.32-.13-.38-.47-.95-.7-1.28,1.01-1.3,2.11-3.62,2.72-5.65h-2.32v-1.26h2.47v-2.9c-.63,.14-1.28,.27-1.87,.38-.07-.31-.25-.76-.4-1.06,1.67-.32,3.64-.85,4.77-1.4l.83,1.08c-.59,.27-1.31,.5-2.07,.72v3.19h2.07v1.26h-2.07v.4c.45,.59,1.76,2.48,2.05,2.97l-.83,1.08Zm10.05,1.06c-.22-1.46-.92-3.66-1.69-5.33-.92,2.21-2.03,4.2-3.35,5.92v1.76c0,.72,.11,.85,.77,.85h2.12c.61,0,.72-.47,.79-2.68,.29,.25,.81,.47,1.15,.52-.14,2.57-.49,3.33-1.84,3.33h-2.4c-1.49,0-1.89-.43-1.89-2.03v-.23c-.72,.77-1.49,1.49-2.32,2.12-.22-.25-.77-.7-1.08-.92,1.28-.9,2.39-1.98,3.4-3.19v-8.16h1.28v6.41c1.69-2.59,2.93-5.71,3.87-9.16l1.28,.25c-.52,1.84-1.1,3.56-1.78,5.19l1.13-.34c.79,1.69,1.51,3.89,1.75,5.33l-1.21,.36Zm-9.63-.63c.72-1.4,1.13-3.73,1.31-5.55l1.03,.23c-.22,1.84-.59,4.29-1.3,5.71l-1.04-.4Zm6.34-7.67c-.72-.77-2.23-1.94-3.44-2.72l.81-.88c1.21,.72,2.74,1.82,3.48,2.59l-.85,1.01Z"/>
    <path d="M261.05,240.82v1.01h-15.9v-1.01h7.2v-1.06h-6v-.9h6v-.92h-5.51v-.9h5.51v-1.12h-7.18v-1.01h7.18v-1.01h-5.29v-.9h5.29v-1.26h1.33v1.26h5.15v1.91h2.14v1.01h-2.14v2.02h-5.15v.92h6.09v.9h-6.09v1.06h7.36Zm-13.61,1.89h11.49v5.58h-1.33v-.63h-8.86v.63h-1.3v-5.58Zm1.3,.92v1.08h8.86v-1.08h-8.86Zm8.86,3.1v-1.13h-8.86v1.13h8.86Zm-3.91-11.81h3.82v-1.01h-3.82v1.01Zm0,2.12h3.82v-1.12h-3.82v1.12Z"/>
    <path d="M261.07,264.49v1.21h-15.86v-1.21h7.22v-2.38h-5.58v-1.19h5.58v-1.89h1.35v1.89h5.71v1.19h-5.71v2.38h7.29Zm-14.35-9.97h-1.3v-3.17h7.24c-.2-.45-.47-.97-.7-1.39l1.28-.38c.32,.54,.7,1.24,.92,1.76h6.66v3.17h-1.35v-1.93h-12.75v1.93Zm11.81,5.06c-.25-.32-.59-.74-1.03-1.15-8.53,.67-9.38,.72-9.94,.95-.07-.27-.25-.88-.4-1.22,.34-.05,.76-.29,1.22-.65,.4-.27,1.48-1.13,2.48-2.16h-3.64v-1.17h11.87v1.17h-6.5c-.95,.95-2,1.85-3.04,2.61l6.95-.49c-.49-.45-.99-.88-1.46-1.26l.99-.63c1.22,.95,2.77,2.32,3.53,3.26l-1.04,.74Z"/>
    <path d="M203.25,221.72c-.74-.61-2.16-1.42-3.33-1.94l.72-.97c1.13,.45,2.61,1.22,3.35,1.8l-.74,1.12Zm-2.72,7.35c.95-1.37,2.38-3.73,3.4-5.76l.97,.88c-.94,1.89-2.2,4.12-3.26,5.78l-1.12-.9Zm1.08-15.11c1.19,.49,2.66,1.3,3.42,1.87l-.77,1.12c-.72-.61-2.18-1.48-3.37-2.02l.72-.97Zm13.2,16.22c-.18-.5-.49-1.12-.83-1.78-6.68,.83-7.44,.95-7.92,1.19-.07-.31-.29-.97-.45-1.33,.34-.09,.7-.52,1.15-1.17,.4-.54,1.58-2.45,2.48-4.47h-4.02v-1.28h4.63v-3.21h-3.83v-1.28h3.83v-3.1h1.33v3.1h3.98v1.28h-3.98v3.21h4.72v1.28h-5.08c-.94,1.91-2.05,3.82-3.17,5.33l5.69-.63c-.5-.81-1.04-1.62-1.6-2.32l1.08-.5c1.26,1.57,2.61,3.71,3.15,5.1l-1.17,.59Z"/>
    <path d="M206.09,245.73c-.43-.72-1.53-2.18-2.32-3.22-.41,2-1.3,3.94-2.99,5.46-.18-.27-.61-.7-.94-.94,2.2-1.78,2.83-4.5,3.01-6.91h-2.9v-1.22h2.95c.02-.4,.02-.79,.02-1.15v-1.78h-2.59v-1.21h2.59v-2.79h1.26v2.79h2.5v1.21h-2.5v1.78c0,.36,0,.76-.02,1.15h2.86v1.22h-2.92c-.04,.32-.07,.67-.11,1.01,.7,.76,2.59,3.04,3.01,3.62l-.92,.99Zm8.77,.97c.32,0,.41-.18,.45-1.44,.23,.2,.76,.4,1.12,.49-.13,1.69-.49,2.14-1.44,2.14h-1.49c-1.22,0-1.51-.36-1.51-1.62v-3.85h-1.3c-.34,2.72-1.28,4.68-4.3,5.78-.14-.31-.49-.79-.76-1.01,2.72-.9,3.49-2.56,3.78-4.77h-1.71v-9.96h7.67v9.96h-2.14v3.85c0,.38,.05,.43,.43,.43h1.21Zm-5.92-11.27h5.13v-1.75h-5.13v1.75Zm0,2.9h5.13v-1.78h-5.13v1.78Zm0,2.88h5.13v-1.78h-5.13v1.78Z"/>
    <path d="M215.49,256.08c-.76,2.92-2.14,5.1-3.96,6.73,1.37,.97,3.01,1.69,4.86,2.14-.31,.31-.72,.86-.92,1.26-1.96-.54-3.64-1.37-5.06-2.5-1.67,1.24-3.64,2.07-5.71,2.63-.16-.38-.49-.95-.76-1.22,1.94-.45,3.8-1.21,5.4-2.34-1.57-1.53-2.74-3.49-3.56-5.78h-.67c-.36,2.92-1.4,6.14-4.32,8.9-.2-.36-.68-.88-.97-1.13,3.82-3.55,4.12-8.03,4.12-11.22v-1.62h-3.15v-1.31h11.04c-.36,1.66-.83,3.67-1.22,5.13h3.69l.25-.07,.94,.41Zm-10.19-2.54c0,.68-.02,1.42-.07,2.2h3.94c.32-1.12,.68-2.52,.97-3.82h-4.84v1.62Zm1.78,3.46c.74,1.94,1.87,3.6,3.35,4.93,1.46-1.26,2.59-2.9,3.29-4.93h-6.64Z"/>
    <path d="M215.51,268.61v15.63h-1.33v-.79h-12.28v.79h-1.28v-15.63h14.89Zm-1.33,13.61v-12.37h-12.28v12.37h12.28Zm-5.98-2.72c-1.87,.36-3.78,.72-5.26,.99l-.23-1.01c1.39-.22,3.39-.56,5.4-.9l.09,.92Zm4.41-5.26c-.45,1.67-1.13,3.13-2,4.38,.4,.97,.85,1.58,1.4,1.67,.23,.05,.41-.68,.52-1.84,.23,.23,.63,.49,.9,.61-.22,1.93-.79,2.63-1.76,2.32-.76-.16-1.35-.79-1.84-1.76-.7,.81-1.51,1.53-2.41,2.11-.16-.23-.56-.65-.79-.86,1.08-.61,2-1.42,2.75-2.4-.45-1.42-.76-3.26-.97-5.26h-5.53v-1.03h5.42c-.05-.63-.11-1.28-.14-1.93h1.15c.04,.65,.07,1.3,.13,1.93h3.85v1.03h-3.76c.16,1.51,.38,2.92,.67,4.07,.56-.97,1.01-2.05,1.31-3.26l1.1,.22Zm-5.08,.07v3.53h-4.02v-3.53h4.02Zm-.99,.85h-2.09v1.85h2.09v-1.85Zm5.69-3.13c-.38-.41-1.21-.97-1.91-1.3l.63-.68c.68,.31,1.51,.81,1.93,1.22l-.65,.76Z"/>
    <path d="M209.57,286.3c-.18,.29-.38,.54-.58,.81,2.11,2.23,4.61,3.71,7.47,4.92-.34,.29-.72,.79-.92,1.21-1.03-.5-2-1.01-2.92-1.6v1.22h-9.02v-.92c-.9,.54-1.82,1.04-2.75,1.46-.23-.36-.59-.86-.97-1.17,3.4-1.35,6.7-3.73,8.52-6.5l1.17,.58Zm-6.9,8.71h11.09v7.09h-1.39v-.94h-8.35v1.01h-1.35v-7.17Zm1.35,1.19v3.73h8.35v-3.73h-8.35Zm8.57-4.59c-1.58-.97-3.02-2.11-4.38-3.55-1.17,1.35-2.59,2.54-4.12,3.55h8.5Z"/>
    <path d="M205.84,314.62c-.05-.29-.13-.67-.23-1.08-4.27,.65-4.84,.77-5.2,.97-.07-.27-.27-.94-.41-1.26,.36-.09,.81-.54,1.37-1.19,.31-.31,.94-1.08,1.64-2.07-2.03,.25-2.45,.34-2.72,.47-.05-.27-.25-.86-.4-1.21,.31-.07,.63-.43,1.03-.99,.4-.52,1.73-2.57,2.52-4.56l1.22,.52c-.85,1.71-1.89,3.44-2.94,4.79l2.11-.18c.49-.76,.99-1.57,1.4-2.36l1.15,.7c-1.26,2.07-2.74,4.12-4.27,5.74l3.19-.41c-.18-.59-.4-1.17-.58-1.67l1.03-.31c.49,1.21,1.01,2.77,1.21,3.73l-1.12,.36Zm-3.96,.85c-.2,1.55-.54,3.24-.9,4.36-.27-.14-.81-.32-1.1-.41,.41-1.12,.68-2.68,.86-4.12l1.13,.18Zm2.05-.23c.23,1.21,.45,2.79,.52,3.85l-1.13,.22c-.04-1.04-.23-2.67-.45-3.87l1.06-.2Zm1.93-.47c.4,.97,.79,2.23,.95,3.06l-1.06,.36c-.14-.85-.54-2.12-.88-3.1l.99-.32Zm10.44,3.85v1.22h-9.96v-1.22h1.58v-13.94h7.17v13.94h1.21Zm-7.13-12.71v3.35h4.65v-3.35h-4.65Zm4.65,4.56h-4.65v3.44h4.65v-3.44Zm-4.65,8.16h4.65v-3.51h-4.65v3.51Z"/>
    <path d="M158.88,221.31c.54,.56,1.94,2.18,2.27,2.61l-.72,1.1c-.31-.54-.99-1.57-1.55-2.38v7.58h-1.26v-7.8c-.65,1.8-1.49,3.57-2.3,4.66-.13-.38-.43-.95-.65-1.28,1.03-1.3,2.14-3.62,2.77-5.65h-2.43v-1.26h2.61v-2.86c-.74,.18-1.48,.31-2.2,.41-.04-.31-.2-.77-.34-1.08,1.76-.31,3.84-.85,5.01-1.44l.77,1.12c-.58,.27-1.26,.49-1.98,.68v3.17h2.03v1.26h-2.03v1.15Zm8.68-1.85c-1.35,0-1.67-.29-1.67-1.39v-1.19h-.32c-.41,1.01-1.35,1.98-3.31,2.74h1.06v1.15c2.21-.16,4.68-.41,6.07-.76l.85,.77c-1.8,.43-4.54,.7-6.91,.83v.34c0,.49,.11,.65,.76,.65h4.59c.56,0,1.51-.02,1.91-.11,.04,.34,.09,.72,.13,.99-.34,.09-1.15,.09-1.93,.09h-4.81c-1.49,0-1.89-.45-1.89-1.64v-2.25c-.16,.05-.32,.11-.47,.16-.11-.29-.38-.79-.59-1.03,1.75-.56,2.68-1.24,3.17-1.94h-3.04v-1.03h3.48c.05-.25,.07-.49,.07-.72v-1.35h1.21v1.37c0,.23-.02,.47-.04,.7h3.33c-.56-.45-1.51-1.04-2.27-1.39l.7-.7c.83,.38,1.84,.97,2.4,1.37l-.67,.72h1.71v1.03h-4.02v1.17c0,.36,.11,.4,.65,.4h1.91c.41,0,.5-.11,.54-1.08,.25,.18,.7,.32,1.01,.4-.11,1.33-.43,1.69-1.39,1.69h-2.2Zm-5.53,4.97h8.23v5.73h-1.31v-.58h-5.65v.59h-1.26v-5.74Zm1.26,.94v1.17h5.65v-1.17h-5.65Zm5.65,3.24v-1.17h-5.65v1.17h5.65Z"/>
    <path d="M160.19,241.3c-.25-.56-.81-1.6-1.3-2.48v9.38h-1.28v-8.59c-.58,1.94-1.35,3.8-2.16,4.95-.13-.4-.45-.97-.7-1.3,1.12-1.49,2.23-4.34,2.77-6.79h-2.3v-1.26h2.4v-3.46h1.28v3.46h2.03v1.26h-2.03v.7c.49,.67,1.8,2.68,2.11,3.19l-.81,.94Zm10.7-.65c-.74,1.3-1.69,2.47-2.83,3.53,1.19,.95,2.61,2.14,3.33,2.95l-1.03,.88c-.68-.79-2.05-2.03-3.24-3.02-1.67,1.35-3.69,2.45-5.94,3.22-.16-.31-.54-.83-.79-1.1,4.18-1.35,7.6-3.93,9.13-6.95l1.37,.49Zm-1.42-3.24c-1.53,2.74-4.25,5.29-7.42,6.81-.14-.29-.5-.76-.76-1.01,1.8-.83,3.48-2.03,4.81-3.38-3.22,.22-3.75,.32-4.09,.43-.04-.31-.25-.97-.36-1.26,.34-.07,.85-.2,1.15-.52,.34-.36,1.35-1.98,1.96-3.02h-3.42v-1.24h4.7c-.2-.65-.54-1.48-.9-2.14l1.24-.38c.45,.76,.9,1.78,1.04,2.45l-.18,.07h4.03v1.24h-5.08c-.61,1.01-1.48,2.38-2.12,3.37l3.06-.18c.41-.54,.79-1.12,1.06-1.67l1.26,.45Z"/>
    <path d="M159.64,259.63c-.22-.56-.76-1.6-1.21-2.47v9.04h-1.1v-8.93c-.5,1.98-1.19,3.89-1.87,5.08-.13-.38-.4-.97-.59-1.31,.92-1.44,1.84-4.18,2.29-6.55h-1.96v-1.26h2.14v-3.46h1.1v3.46h1.64v.95c2.12-1.13,4.05-2.88,5.02-4.52l1.3,.41c-.13,.2-.25,.41-.4,.61,1.35,1.22,3.6,2.45,5.44,3.1-.22,.32-.49,.86-.59,1.21-1.85-.79-4.02-2.12-5.53-3.46-.7,.83-1.53,1.6-2.45,2.29h5.31v1.08h-5.37v-1.04c-.61,.47-1.26,.88-1.93,1.26-.16-.23-.54-.61-.81-.85v.22h-1.64v1.17c.45,.65,1.58,2.5,1.85,2.97l-.65,1.01Zm4.03,1.53c-.14,.47-.31,.9-.5,1.33,.74,.47,1.58,1.12,2.03,1.57l-.72,.9c-.38-.43-1.12-1.03-1.84-1.55-.7,1.17-1.64,2.14-2.68,2.86-.2-.23-.63-.67-.92-.88,1.64-.97,2.86-2.52,3.44-4.47l1.19,.23Zm-2.72-4.97h4.02v4.32h-4.02v-4.32Zm1.03,3.35h1.93v-2.36h-1.93v2.36Zm6.73,1.53c-.13,.56-.27,1.08-.47,1.58,1.13,.72,2.43,1.69,3.11,2.38l-.81,.92c-.61-.63-1.73-1.55-2.77-2.27-.54,1.03-1.28,1.89-2.2,2.54-.16-.23-.63-.67-.9-.88,1.46-.95,2.43-2.48,2.81-4.43l1.22,.16Zm-2.63-4.88h4.12v4.32h-4.12v-4.32Zm1.04,3.35h1.98v-2.36h-1.98v2.36Z"/>
    <path d="M171.05,271.24h-5.8c2.09,1.24,4.45,2.75,5.76,3.84l-.86,.94c-1.39-1.19-4.12-3.02-6.43-4.39v3.37h-1.31v-3.65c-1.62,2.11-4.29,3.96-6.72,4.93-.22-.31-.61-.81-.88-1.06,2.2-.76,4.61-2.27,6.14-3.96h-5.76v-1.19h7.22v-2.27h1.31v2.27h7.33v1.19Zm-15.56,11.2h15.3v1.21h-15.3v-1.21Zm12.57-6.91v5.83h-9.94v-5.83h9.94Zm-1.37,.95h-7.26v1.49h7.26v-1.49Zm0,2.43h-7.26v1.49h7.26v-1.49Z"/>
    <path d="M160.84,296.62c-.05-.29-.13-.67-.23-1.08-4.27,.65-4.84,.77-5.2,.97-.07-.27-.27-.94-.41-1.26,.36-.09,.81-.54,1.37-1.19,.31-.31,.94-1.08,1.64-2.07-2.03,.25-2.45,.34-2.72,.47-.05-.27-.25-.86-.4-1.21,.31-.07,.63-.43,1.03-.99,.4-.52,1.73-2.57,2.52-4.56l1.22,.52c-.85,1.71-1.89,3.44-2.94,4.79l2.11-.18c.49-.76,.99-1.57,1.4-2.36l1.15,.7c-1.26,2.07-2.74,4.12-4.27,5.74l3.19-.41c-.18-.59-.4-1.17-.58-1.67l1.03-.31c.49,1.21,1.01,2.77,1.21,3.73l-1.12,.36Zm-3.96,.85c-.2,1.55-.54,3.24-.9,4.36-.27-.14-.81-.32-1.1-.41,.41-1.12,.68-2.68,.86-4.12l1.13,.18Zm2.05-.23c.23,1.21,.45,2.79,.52,3.85l-1.13,.22c-.04-1.04-.23-2.67-.45-3.87l1.06-.2Zm1.93-.47c.4,.97,.79,2.23,.95,3.06l-1.06,.36c-.14-.85-.54-2.12-.88-3.1l.99-.32Zm10.44,3.85v1.22h-9.96v-1.22h1.58v-13.94h7.17v13.94h1.21Zm-7.13-12.71v3.35h4.65v-3.35h-4.65Zm4.65,4.56h-4.65v3.44h4.65v-3.44Zm-4.65,8.16h4.65v-3.51h-4.65v3.51Z"/>
    <path d="M114.26,225.86h3.12v1.21h-3.12v3.19h-1.21v-3.19h-3.17v-1.21h3.17v-1.42h-2.52v-6.25h2.52v-1.31h-2.94v-1.17h2.94v-1.96h1.19v1.96h2.88v1.17h-2.88v1.31h2.65v6.25h-2.63v1.42Zm-2.74-5.04h1.66v-1.62h-1.66v1.62Zm0,2.61h1.66v-1.66h-1.66v1.66Zm4.34-4.23h-1.73v1.62h1.73v-1.62Zm0,2.57h-1.73v1.66h1.73v-1.66Zm6.52-4.32v1.62h3.49v9.67c0,.63-.11,1.01-.5,1.22-.41,.2-1.03,.22-1.89,.22-.05-.34-.22-.9-.4-1.22,.59,.04,1.15,.02,1.33,.02s.23-.05,.23-.23v-2.54h-2.27v3.84h-1.19v-3.84h-2.23v3.94h-1.21v-11.07h3.44v-1.62h-3.76v-1.19h3.76v-2.5h1.19v2.5h2.9c-.47-.56-1.4-1.33-2.2-1.87l.76-.65c.79,.5,1.76,1.28,2.23,1.82l-.72,.7h.9v1.19h-3.87Zm-3.42,2.79v1.82h2.23v-1.82h-2.23Zm2.23,4.81v-1.87h-2.23v1.87h2.23Zm1.19-4.81v1.82h2.27v-1.82h-2.27Zm2.27,4.81v-1.87h-2.27v1.87h2.27Z"/>
    <path d="M114.55,236.93c-.34,1.04-.85,2.12-1.42,2.99,.4,.14,.77,.43,1.44,.79,1.08,.58,2.68,.65,4.65,.65,2.23,0,5.26-.11,7.17-.34-.14,.34-.34,.92-.36,1.26-1.62,.11-4.99,.2-6.82,.2-2.11,0-3.71-.13-4.88-.76-.67-.38-1.17-.81-1.53-.81-.49,0-1.26,.85-1.96,1.76l-.74-1.04c.47-.5,.97-.95,1.46-1.3h-.02c.59-.65,1.17-1.64,1.51-2.59h-2.45c.47-.72,1.01-1.69,1.48-2.63h-2.05v-1.03h3.83c-.43,.86-.95,1.82-1.42,2.63h1.26l.18-.05,.68,.27Zm7.83,6.63h3.62v1.06h-3.62v2.2c0,.7-.14,1.04-.72,1.24-.56,.2-1.48,.18-2.95,.18-.05-.34-.27-.81-.43-1.15,1.13,.05,2.14,.04,2.43,.02,.31-.02,.38-.07,.38-.31v-2.18h-7.08c.94,.56,2.09,1.4,2.65,2.05l-.97,.85c-.5-.67-1.66-1.57-2.63-2.16l.9-.74h-3.78v-1.06h10.91v-.97h1.3v.97Zm-10.68-9.54c-.18-.5-.52-1.3-.76-1.93l1.1-.32c.27,.59,.63,1.35,.79,1.84l-1.13,.41Zm7.27,1.28c.13-.29,.23-.59,.34-.9h-4.61v-.97h2.99c-.18-.43-.5-.95-.81-1.35l1.08-.34c.38,.47,.81,1.15,.97,1.62l-.23,.07h2.9c.32-.5,.72-1.19,.94-1.64l1.26,.27c-.31,.47-.63,.95-.94,1.37h2.99v.97h-5.22c-.16,.32-.32,.63-.49,.9h4.32v5.35h-8.57v-5.35h3.08Zm4.19,.72h-6.01v.83h6.01v-.83Zm0,1.53h-6.01v.83h6.01v-.83Zm0,1.53h-6.01v.85h6.01v-.85Z"/>
    <path d="M113.3,261.23c.68-.27,1.39-.56,2.09-.83l.25,1.24c-1.87,.77-3.87,1.57-5.4,2.18l-.41-1.35c.63-.22,1.42-.49,2.27-.81v-6.27h-2.14v-1.26h2.14v-4.16h1.21v4.16h2.03v1.26h-2.03v5.83Zm13.02-4.41v1.22h-11.06v-1.22h6.7c.45-1.04,.99-2.59,1.26-3.67l1.26,.32c-.4,1.1-.88,2.36-1.31,3.35h3.15Zm-.56-3.8h-9.83v-1.21h4.38c-.11-.59-.31-1.33-.5-1.94l1.19-.18c.25,.67,.5,1.53,.63,2.12h4.14v1.21Zm-8.95,6.59h8.07v6.54h-1.28v-.72h-5.56v.77h-1.22v-6.59Zm1.33-3.01c-.13-.83-.54-2.11-.99-3.08l1.1-.31c.47,.94,.9,2.2,1.03,3.02l-1.13,.36Zm-.11,4.21v3.4h5.56v-3.4h-5.56Z"/>
    <path d="M116.38,271.92h-6.48v-1.1h6.48v1.1Zm-.61,2.32h-5.15v-1.06h5.15v1.06Zm-5.15,1.28h5.15v1.06h-5.15v-1.06Zm1.13,7.6v.85h-1.13v-6.05h5.28v5.2h-4.14Zm0-4.09v2.97h2.99v-2.97h-2.99Zm1.46-8.41c-.27-.65-.83-1.66-1.31-2.4l.99-.52c.52,.74,1.12,1.67,1.37,2.3l-1.04,.61Zm4.84-2.32h1.26v6.27c0,3.48-.23,6.95-2.34,9.76-.27-.23-.83-.56-1.19-.72,2.05-2.61,2.27-5.82,2.27-9.06v-6.25Zm3.15,.74h1.22v13.38h-1.22v-13.38Zm4.56-.9v16.08h-1.3v-16.08h1.3Z"/>
    <path d="M115.84,296.62c-.05-.29-.13-.67-.23-1.08-4.27,.65-4.84,.77-5.2,.97-.07-.27-.27-.94-.41-1.26,.36-.09,.81-.54,1.37-1.19,.31-.31,.94-1.08,1.64-2.07-2.03,.25-2.45,.34-2.72,.47-.05-.27-.25-.86-.4-1.21,.31-.07,.63-.43,1.03-.99,.4-.52,1.73-2.57,2.52-4.56l1.22,.52c-.85,1.71-1.89,3.44-2.94,4.79l2.11-.18c.49-.76,.99-1.57,1.4-2.36l1.15,.7c-1.26,2.07-2.74,4.12-4.27,5.74l3.19-.41c-.18-.59-.4-1.17-.58-1.67l1.03-.31c.49,1.21,1.01,2.77,1.21,3.73l-1.12,.36Zm-3.96,.85c-.2,1.55-.54,3.24-.9,4.36-.27-.14-.81-.32-1.1-.41,.41-1.12,.68-2.68,.86-4.12l1.13,.18Zm2.05-.23c.23,1.21,.45,2.79,.52,3.85l-1.13,.22c-.04-1.04-.23-2.67-.45-3.87l1.06-.2Zm1.93-.47c.4,.97,.79,2.23,.95,3.06l-1.06,.36c-.14-.85-.54-2.12-.88-3.1l.99-.32Zm10.44,3.85v1.22h-9.96v-1.22h1.58v-13.94h7.17v13.94h1.21Zm-7.13-12.71v3.35h4.65v-3.35h-4.65Zm4.65,4.56h-4.65v3.44h4.65v-3.44Zm-4.65,8.16h4.65v-3.51h-4.65v3.51Z"/>
    <path d="M69.31,222.37c-.34,1.58-.86,3.33-1.49,4.65,.36,.2,.77,.54,1.46,.94,1.26,.77,2.9,.9,5.02,.9,2.32,0,5.22-.18,7.24-.38-.18,.36-.36,.99-.4,1.39-1.35,.09-4.75,.2-6.9,.2-2.36,0-3.94-.2-5.26-.99-.72-.43-1.4-1.04-1.8-1.04s-1.01,1.13-1.51,2.27l-.94-1.21c.63-.9,1.24-1.64,1.8-2,.54-1.03,1.01-2.45,1.28-3.75h-2.34c.49-1.06,1.06-2.59,1.55-4.02h-2.02v-1.21h3.69c-.43,1.3-1.01,2.81-1.48,4.05h1.24l.22-.05,.63,.25Zm-2.45-5.2c-.2-.77-.61-2.02-.92-2.95l1.19-.34c.32,.94,.72,2.12,.95,2.9l-1.22,.4Zm5.08,10.37h-1.28v-9.27h5.15c-1.08-.52-2.36-1.1-3.44-1.49l.85-.74c.77,.25,1.66,.61,2.5,.97,.86-.38,1.75-.92,2.47-1.42h-7.51v-1.06h8.79l.27-.07,.81,.63c-.95,.92-2.3,1.82-3.64,2.47,.52,.27,1.01,.5,1.39,.72h2.27v7.92c0,.67-.14,.97-.61,1.17-.47,.2-1.22,.22-2.43,.22-.05-.34-.2-.79-.36-1.12,.85,.04,1.6,.02,1.82,.02,.23,0,.31-.07,.31-.31v-1.64h-3.13v2.94h-1.21v-2.94h-3.01v3.01Zm0-8.25v1.58h3.01v-1.58h-3.01Zm3.01,4.21v-1.64h-3.01v1.64h3.01Zm4.34-4.21h-3.13v1.58h3.13v-1.58Zm0,4.21v-1.64h-3.13v1.64h3.13Z"/>
    <path d="M69.62,243.39h3.21v1.15h-3.21v3.6h-1.24v-3.6h-3.37v-1.15h3.37v-1.94h-2.97v-1.17h1.67c-.11-.61-.49-1.51-.85-2.2l.99-.27c.41,.65,.79,1.55,.92,2.14l-.9,.32h2.23c.47-.77,.95-1.82,1.24-2.54l1.15,.31c-.38,.74-.81,1.55-1.21,2.23h1.8v1.17h-2.84v1.94Zm3.17-5.65h-7.76v-1.17h3.35v-1.8h-2.83v-1.15h2.83v-1.82h1.24v1.82h2.72v1.15h-2.72v1.8h3.17v1.17Zm8.08,1.17c-.4,2.12-1.12,4.1-2.2,5.83,.83,.97,1.8,1.75,2.86,2.27-.31,.25-.7,.74-.92,1.08-1.01-.56-1.89-1.35-2.7-2.29-.76,.95-1.62,1.8-2.63,2.45-.14-.22-.36-.47-.59-.67v.59h-1.22v-15.59h6.97v3.46c0,.68-.13,1.03-.68,1.22-.56,.2-1.46,.22-2.83,.22-.05-.38-.23-.83-.41-1.19,1.12,.04,2.05,.04,2.32,.02,.29-.02,.36-.07,.36-.29v-2.21h-4.5v4.84h5.11l.22-.05,.85,.31Zm-6.18,8.23c.94-.63,1.75-1.44,2.45-2.38-.99-1.46-1.75-3.17-2.29-4.99h-.16v7.36Zm1.31-7.36c.43,1.39,1.06,2.72,1.84,3.89,.72-1.21,1.22-2.54,1.55-3.89h-3.39Z"/>
    <path d="M81.2,251.19v1.12h-13.83v4.34c1.24-1.1,2.43-2.65,3.17-4.2l1.13,.32c-.34,.67-.72,1.31-1.15,1.94v6.23h-1.15v-4.68c-.43,.52-.9,.99-1.33,1.4-.14-.16-.43-.47-.67-.67-.02,2.75-.29,6.59-1.64,9.22-.2-.23-.74-.65-1.01-.79,1.3-2.59,1.4-6.27,1.4-8.88v-5.37h7.2c-.25-.45-.54-.95-.85-1.35l1.15-.4c.4,.52,.83,1.21,1.08,1.75h6.48Zm-13.88,13.95c.99-.76,1.67-2.05,2.05-3.21l1.08,.4c-.43,1.24-1.08,2.61-2.11,3.46l-1.03-.65Zm5.11-8.93c-.32,.4-.65,.77-.97,1.08-.2-.18-.67-.56-.94-.74,1.15-1.04,2.23-2.61,2.88-4.14l1.13,.31c-.2,.45-.43,.9-.67,1.33h2.68c-.23-.41-.59-.92-.94-1.3l.94-.41c.45,.45,.92,1.08,1.15,1.49l-.43,.22h3.31v.88h-3.1v.97h2.63v.77h-2.63v.99h2.68v.79h-2.68v1.04h3.4v.9h-7.31v.54h-1.15v-4.74Zm3.85,8.77c.59,0,.72-.18,.77-1.55,.27,.2,.77,.36,1.1,.43-.13,1.78-.52,2.21-1.75,2.21h-2.88c-1.6,0-2-.32-2-1.55v-2.52h1.22v2.5c0,.4,.13,.47,.88,.47h2.65Zm-.27-1.66c-.61-.56-1.87-1.35-2.92-1.87l.76-.74c1.06,.49,2.34,1.22,2.99,1.78l-.83,.83Zm.34-8.39h-2.77v.97h2.77v-.97Zm0,1.75h-2.77v.99h2.77v-.99Zm0,1.78h-2.77v1.04h2.77v-1.04Zm2.25,3.29c1.01,1.03,2.12,2.43,2.59,3.42l-1.08,.56c-.43-.97-1.51-2.43-2.52-3.49l1.01-.49Z"/>
    <path d="M78.28,279.65c-.86,.99-2.03,1.78-3.37,2.41,1.98,.56,4.25,.9,6.46,1.1-.23,.29-.54,.76-.68,1.1-2.54-.27-5.1-.77-7.35-1.55-2.36,.83-5.13,1.3-7.85,1.62-.13-.31-.41-.85-.63-1.13,2.39-.2,4.81-.54,6.9-1.13-1.17-.5-2.23-1.12-3.1-1.84-.86,.68-1.82,1.22-2.75,1.64-.14-.23-.56-.77-.79-.99,1.87-.76,3.76-1.96,4.74-3.46l1.17,.36c-.18,.29-.4,.56-.59,.83h10.25v1.04h-2.39Zm-11.83-4.39c-.14,1.04-.38,2.21-.67,3.01-.18-.11-.56-.36-.77-.47,.29-.76,.43-1.76,.54-2.72l.9,.18Zm3.06-.52c-.04-.2-.11-.45-.18-.72-3.13,.47-3.6,.56-3.87,.68-.05-.2-.22-.7-.32-.97,.31-.04,.67-.32,1.08-.74,.22-.2,.67-.68,1.19-1.3-1.4,.11-1.75,.18-1.94,.25-.05-.22-.22-.72-.34-.97,.25-.05,.49-.25,.74-.54,.25-.31,1.13-1.51,1.62-2.68l1.01,.36c-.54,1.01-1.19,2-1.8,2.75l1.44-.07c.34-.43,.7-.92,.97-1.39l.97,.43c-.95,1.37-2.05,2.67-3.12,3.67l2.14-.25c-.13-.38-.29-.77-.45-1.1l.81-.22c.4,.83,.77,1.91,.9,2.54l-.85,.25Zm-2.11,3.04c0-.68-.16-1.73-.32-2.54l.83-.18c.2,.81,.36,1.85,.4,2.52l-.9,.2Zm1.91-.38c-.09-.61-.32-1.55-.56-2.27l.79-.22c.25,.7,.52,1.64,.61,2.23l-.85,.25Zm.27,2.25c.95,.76,2.23,1.39,3.73,1.93,1.33-.52,2.47-1.13,3.33-1.93h-7.06Zm6.28-9.51h-5.56v-.83h2.36c-.16-.41-.38-.86-.61-1.26l1.01-.32c.32,.45,.63,1.12,.79,1.58h2.02v.83Zm-.38,1.6h-4.81v-.79h4.81v.79Zm-.02,1.64h-4.79v-.83h4.79v.83Zm-4.7,4.12v-3.22h4.61v3.22h-4.61Zm.88-.81h2.81v-1.6h-2.81v1.6Zm8.68-1.98c-.04-.22-.09-.5-.18-.79-3.21,.43-3.67,.54-3.94,.68-.05-.22-.2-.7-.32-.95,.32-.05,.67-.34,1.08-.74,.22-.2,.67-.68,1.17-1.3-1.44,.13-1.78,.2-1.98,.29-.05-.23-.22-.72-.32-.97,.23-.05,.47-.25,.72-.54,.25-.31,1.13-1.49,1.64-2.65l.99,.36c-.52,1.01-1.19,2-1.84,2.74l1.48-.07c.36-.43,.7-.94,.99-1.4l.95,.41c-.95,1.33-2,2.61-3.02,3.62l2.16-.25c-.13-.38-.29-.77-.45-1.12l.85-.2c.4,.83,.79,1.94,.9,2.63l-.86,.25Zm-3.06,.5c-.14,.94-.38,2.05-.61,2.77-.18-.13-.59-.36-.81-.47,.25-.74,.4-1.67,.5-2.54l.92,.23Zm1.01,2.48c0-.68-.13-1.75-.32-2.56l.83-.14c.22,.79,.36,1.85,.38,2.52l-.88,.18Zm2.02-.13c-.11-.7-.4-1.78-.65-2.61l.79-.22c.31,.83,.58,1.91,.7,2.59l-.85,.23Z"/>
    <path d="M70.84,296.62c-.05-.29-.13-.67-.23-1.08-4.27,.65-4.84,.77-5.2,.97-.07-.27-.27-.94-.41-1.26,.36-.09,.81-.54,1.37-1.19,.31-.31,.94-1.08,1.64-2.07-2.03,.25-2.45,.34-2.72,.47-.05-.27-.25-.86-.4-1.21,.31-.07,.63-.43,1.03-.99,.4-.52,1.73-2.57,2.52-4.56l1.22,.52c-.85,1.71-1.89,3.44-2.94,4.79l2.11-.18c.49-.76,.99-1.57,1.4-2.36l1.15,.7c-1.26,2.07-2.74,4.12-4.27,5.74l3.19-.41c-.18-.59-.4-1.17-.58-1.67l1.03-.31c.49,1.21,1.01,2.77,1.21,3.73l-1.12,.36Zm-3.96,.85c-.2,1.55-.54,3.24-.9,4.36-.27-.14-.81-.32-1.1-.41,.41-1.12,.68-2.68,.86-4.12l1.13,.18Zm2.05-.23c.23,1.21,.45,2.79,.52,3.85l-1.13,.22c-.04-1.04-.23-2.67-.45-3.87l1.06-.2Zm1.93-.47c.4,.97,.79,2.23,.95,3.06l-1.06,.36c-.14-.85-.54-2.12-.88-3.1l.99-.32Zm10.44,3.85v1.22h-9.96v-1.22h1.58v-13.94h7.17v13.94h1.21Zm-7.13-12.71v3.35h4.65v-3.35h-4.65Zm4.65,4.56h-4.65v3.44h4.65v-3.44Zm-4.65,8.16h4.65v-3.51h-4.65v3.51Z"/>
    <path d="M21.65,225.45c-.2,1.55-.52,3.24-.9,4.36-.22-.13-.72-.29-1.01-.38,.43-1.1,.72-2.7,.86-4.16l1.04,.18Zm3.1-.86c-.04-.31-.11-.67-.2-1.08-3.42,.67-3.94,.79-4.23,.99-.07-.27-.27-.85-.41-1.17,.38-.09,.74-.52,1.26-1.21,.25-.31,.81-1.12,1.44-2.14-1.8,.27-2.18,.36-2.41,.49-.07-.27-.27-.85-.41-1.19,.31-.07,.59-.43,.9-.99,.34-.52,1.46-2.59,2.05-4.52l1.21,.47c-.67,1.69-1.57,3.46-2.47,4.83l1.82-.18c.41-.74,.85-1.55,1.19-2.34l1.13,.56c-1.1,2.07-2.41,4.19-3.76,5.83l2.47-.41c-.11-.54-.27-1.08-.43-1.58l.95-.23c.4,1.15,.81,2.68,.94,3.57l-1.03,.32Zm-1.46,.67c.23,1.22,.45,2.77,.5,3.83l-1.01,.23c-.05-1.04-.25-2.65-.45-3.87l.95-.2Zm1.66-.41c.4,.95,.85,2.16,1.03,2.95l-.95,.34c-.2-.81-.63-2.05-.99-3.01l.92-.29Zm4.57,.45c-.68,1.31-1.71,2.83-2.54,3.82-.23-.2-.76-.59-1.04-.76,.85-.92,1.76-2.27,2.38-3.42l1.21,.36Zm2.32-1.66v6.52h-1.31v-6.52h-4.29v-1.19h9.78v1.19h-4.18Zm-4.03-4.61h-1.21v-2.99h4.12c-.22-.61-.5-1.37-.77-1.96l1.24-.32c.36,.7,.74,1.62,.95,2.29h3.78v2.99h-1.26v-1.82h-6.86v1.82Zm.2,1.42v-1.17h6.46v1.17h-6.46Zm6.01,4.45c.81,1.1,1.78,2.63,2.23,3.55l-1.15,.54c-.45-.94-1.39-2.5-2.16-3.66l1.08-.43Z"/>
    <path d="M29.57,232.3c-.18,.29-.38,.54-.58,.81,2.11,2.23,4.61,3.71,7.47,4.92-.34,.29-.72,.79-.92,1.21-1.03-.5-2-1.01-2.92-1.6v1.22h-9.02v-.92c-.9,.54-1.82,1.04-2.75,1.46-.23-.36-.59-.86-.97-1.17,3.4-1.35,6.7-3.73,8.52-6.5l1.17,.58Zm-6.9,8.71h11.09v7.09h-1.39v-.94h-8.35v1.01h-1.35v-7.17Zm1.35,1.19v3.73h8.35v-3.73h-8.35Zm8.57-4.59c-1.58-.97-3.02-2.11-4.38-3.55-1.17,1.35-2.59,2.54-4.12,3.55h8.5Z"/>
    <path d="M26.09,263.73c-.43-.72-1.53-2.18-2.32-3.22-.41,2-1.3,3.94-2.99,5.46-.18-.27-.61-.7-.94-.94,2.2-1.78,2.83-4.5,3.01-6.91h-2.9v-1.22h2.95c.02-.4,.02-.79,.02-1.15v-1.78h-2.59v-1.21h2.59v-2.79h1.26v2.79h2.5v1.21h-2.5v1.78c0,.36,0,.76-.02,1.15h2.86v1.22h-2.92c-.04,.32-.07,.67-.11,1.01,.7,.76,2.59,3.04,3.01,3.62l-.92,.99Zm8.77,.97c.32,0,.41-.18,.45-1.44,.23,.2,.76,.4,1.12,.49-.13,1.69-.49,2.14-1.44,2.14h-1.49c-1.22,0-1.51-.36-1.51-1.62v-3.85h-1.3c-.34,2.72-1.28,4.68-4.3,5.78-.14-.31-.49-.79-.76-1.01,2.72-.9,3.49-2.56,3.78-4.77h-1.71v-9.96h7.67v9.96h-2.14v3.85c0,.38,.05,.43,.43,.43h1.21Zm-5.92-11.27h5.13v-1.75h-5.13v1.75Zm0,2.9h5.13v-1.78h-5.13v1.78Zm0,2.88h5.13v-1.78h-5.13v1.78Z"/>
    <path d="M19.9,282.67c2.5-.09,6.48-.29,10.28-.47l-.04,1.04c-3.69,.2-7.58,.41-10.12,.54l-.13-1.12Zm9.22-11.99h1.06v.92h-1.06v1.84h-3.51v.77h3.76v.85h-3.76v.83h4.52v.94h-10.1v-.94h4.36v-.83h-3.53v-.85h3.53v-.77h-3.4v-.86h3.4v-.97h-4.47v-.92h4.47v-.9h-3.33v-.85h3.33v-1.15h1.22v1.15h3.51v1.75Zm0,6.9v3.98h-8.03v-3.98h8.03Zm-6.93,1.64h2.32v-.88h-2.32v.88Zm0,1.58h2.32v-.9h-2.32v.9Zm3.42-10.12h2.34v-.9h-2.34v.9Zm2.34,.92h-2.34v.97h2.34v-.97Zm.04,6.73h-2.3v.88h2.3v-.88Zm0,1.57h-2.3v.9h2.3v-.9Zm4.16-.13h-1.22v-9.85h1.22v9.85Zm3.44-11.63v14.39c0,.81-.22,1.19-.74,1.4-.52,.2-1.39,.23-2.77,.22-.05-.32-.25-.9-.45-1.24,1.04,.04,2,.04,2.27,.02,.31,0,.41-.09,.41-.4v-14.39h1.28Z"/>
    <path d="M25.84,296.62c-.05-.29-.13-.67-.23-1.08-4.27,.65-4.84,.77-5.2,.97-.07-.27-.27-.94-.41-1.26,.36-.09,.81-.54,1.37-1.19,.31-.31,.94-1.08,1.64-2.07-2.03,.25-2.45,.34-2.72,.47-.05-.27-.25-.86-.4-1.21,.31-.07,.63-.43,1.03-.99,.4-.52,1.73-2.57,2.52-4.56l1.22,.52c-.85,1.71-1.89,3.44-2.94,4.79l2.11-.18c.49-.76,.99-1.57,1.4-2.36l1.15,.7c-1.26,2.07-2.74,4.12-4.27,5.74l3.19-.41c-.18-.59-.4-1.17-.58-1.67l1.03-.31c.49,1.21,1.01,2.77,1.21,3.73l-1.12,.36Zm-3.96,.85c-.2,1.55-.54,3.24-.9,4.36-.27-.14-.81-.32-1.1-.41,.41-1.12,.68-2.68,.86-4.12l1.13,.18Zm2.05-.23c.23,1.21,.45,2.79,.52,3.85l-1.13,.22c-.04-1.04-.23-2.67-.45-3.87l1.06-.2Zm1.93-.47c.4,.97,.79,2.23,.95,3.06l-1.06,.36c-.14-.85-.54-2.12-.88-3.1l.99-.32Zm10.44,3.85v1.22h-9.96v-1.22h1.58v-13.94h7.17v13.94h1.21Zm-7.13-12.71v3.35h4.65v-3.35h-4.65Zm4.65,4.56h-4.65v3.44h4.65v-3.44Zm-4.65,8.16h4.65v-3.51h-4.65v3.51Z"/>
  </g>
  <g>
    <line class="cls-6" x1="235.13" y1="159.06" x2="207.58" y2="159.06"/>
    <line class="cls-6" x1="207.94" y1="33.68" x2="208.12" y2="202.89"/>
    <path class="cls-6" d="M130.09,105.04l.7-22.61c.13-4.33,4.28-7.79,9.34-7.79h133.91c5.16,0,9.35,3.58,9.35,8v22.4"/>
    <rect class="cls-3" x="74.87" y="88.87" width="110" height="31.66" rx="5" ry="5"/>
    <rect class="cls-4" x="228.25" y="143.06" width="110" height="32" rx="5" ry="5" transform="translate(566.51 318.12) rotate(-180)"/>
    <rect class="cls-3" x="228.25" y="88.87" width="110" height="31.66" rx="5" ry="5"/>
    <g>
      <path class="cls-1" d="M102.12,97.26h9.87v1.17h-9.87v-1.17Zm.49,7.92h9.11v7.44h-1.28v-.77h-6.61v.99h-1.22v-7.65Zm8.35-5.47v4.18h-7.72v-4.18h7.72Zm-7.13,6.54v1.69h2.7v-1.69h-2.7Zm2.7,4.54v-1.8h-2.7v1.8h2.7Zm3.15-9.99h-5.22v2.02h5.22v-2.02Zm.76,5.46h-2.68v1.69h2.68v-1.69Zm0,4.54v-1.8h-2.68v1.8h2.68Zm3.91-2.27h-1.19v-9.9h1.19v9.9Zm3.22-11.72v14.35c0,.86-.22,1.26-.76,1.48-.56,.23-1.48,.27-3.01,.25-.05-.36-.25-.95-.45-1.33,1.15,.05,2.18,.04,2.47,.02,.32,0,.45-.11,.45-.41v-14.35h1.3Z"/>
      <path class="cls-1" d="M131.93,105.63c-.83,.43-1.67,.85-2.56,1.21h6.77v5.96h-1.3v-.52h-7.94v.58h-1.26v-4.61c-1.13,.36-2.3,.68-3.46,.97-.13-.29-.47-.88-.67-1.15,2.63-.56,5.31-1.37,7.74-2.43h-7.36v-1.1h6.73v-1.35h-4.95v-1.08h4.95v-1.26h-5.71v-3.69h13.94v3.69h-6.93v1.26h4.03v.92c.68-.49,1.3-1.01,1.85-1.55l1.04,.67c-.88,.87-1.93,1.67-3.06,2.4h4v1.1h-5.87Zm-4.86-7.51h-2.86v1.73h2.86v-1.73Zm7.78,9.72h-7.94v1.19h7.94v-1.19Zm0,3.42v-1.31h-7.94v1.31h7.94Zm-3.58-11.42v-1.73h-2.95v1.73h2.95Zm.25,4.68c.79-.41,1.53-.88,2.21-1.35h-3.8v1.35h1.58Zm.99-4.68h3.04v-1.73h-3.04v1.73Z"/>
      <path class="cls-1" d="M156.85,107.14c-1.13,.83-2.59,1.71-3.89,2.36,1.37,.99,3.08,1.67,5.1,2.05-.27,.31-.65,.83-.83,1.19-4.11-.9-6.91-3.1-8.46-6.48h-2.88v4.83l4.86-1.17c-.02,.34-.05,.88-.04,1.17-5.04,1.28-5.92,1.53-6.34,1.75l-.07,.05c-.11-.32-.38-.97-.61-1.31,.36-.18,.88-.56,.88-1.28v-4.03h-2.92v-1.21h3.15v-7.9h11.07v1.13h-9.72v1.55h9.18v1.1h-9.18v1.5h9.18v1.08h-9.18v1.55h11.47v1.21h-7.51c.5,.95,1.13,1.8,1.93,2.52,1.28-.68,2.77-1.64,3.69-2.38l1.12,.74Z"/>
    </g>
    <g>
      <path class="cls-1" d="M261.54,165.35v1.31h-15.92v-1.31h7.2v-4.41h-5.55v-1.3h5.55v-3.94h-6.37v-1.31h7.9c-.7-.83-1.98-1.96-3.06-2.75l1.08-.76c1.15,.83,2.59,2.05,3.29,2.9l-.85,.61h5.82v1.31h-6.39v3.94h5.65v1.3h-5.65v4.41h7.29Z"/>
      <path class="cls-1" d="M270.99,151.33c-.54,1.3-1.19,2.59-1.93,3.8v12.1h-1.31v-10.12c-.68,.92-1.39,1.75-2.14,2.45-.14-.32-.56-1.01-.83-1.33,1.94-1.73,3.8-4.46,4.9-7.29l1.31,.4Zm5.6,8.5v5.46h4.63v1.3h-10.55v-1.3h4.59v-5.46h-5.15v-1.3h5.15v-4.74h-3.96v-1.28h9.58v1.28h-4.29v4.74h5.02v1.3h-5.02Z"/>
      <path class="cls-1" d="M290.16,161.64c-.23-.54-.76-1.55-1.22-2.39v8.03h-1.26v-7.47c-.61,1.67-1.39,3.29-2.16,4.32-.13-.38-.47-.96-.7-1.28,1.01-1.3,2.11-3.62,2.72-5.65h-2.32v-1.26h2.47v-2.9c-.63,.14-1.28,.27-1.87,.38-.07-.31-.25-.76-.4-1.06,1.67-.32,3.64-.85,4.77-1.4l.83,1.08c-.59,.27-1.31,.5-2.07,.72v3.19h2.07v1.26h-2.07v.4c.45,.59,1.76,2.48,2.05,2.97l-.83,1.08Zm10.05,1.06c-.22-1.46-.92-3.66-1.69-5.33-.92,2.21-2.03,4.2-3.35,5.92v1.76c0,.72,.11,.85,.77,.85h2.12c.61,0,.72-.47,.79-2.68,.29,.25,.81,.47,1.15,.52-.14,2.58-.49,3.33-1.84,3.33h-2.4c-1.49,0-1.89-.43-1.89-2.03v-.23c-.72,.77-1.49,1.5-2.32,2.12-.22-.25-.77-.7-1.08-.92,1.28-.9,2.39-1.98,3.4-3.19v-8.16h1.28v6.41c1.69-2.59,2.94-5.71,3.87-9.17l1.28,.25c-.52,1.84-1.1,3.57-1.78,5.19l1.13-.34c.79,1.69,1.51,3.89,1.75,5.33l-1.21,.36Zm-9.63-.63c.72-1.4,1.13-3.73,1.31-5.55l1.03,.23c-.22,1.84-.59,4.29-1.3,5.71l-1.04-.4Zm6.34-7.67c-.72-.77-2.23-1.94-3.44-2.72l.81-.88c1.21,.72,2.74,1.82,3.47,2.59l-.85,1.01Z"/>
      <path class="cls-1" d="M320.89,159.86v1.01h-15.9v-1.01h7.2v-1.06h-6v-.9h6v-.92h-5.51v-.9h5.51v-1.12h-7.18v-1.01h7.18v-1.01h-5.29v-.9h5.29v-1.26h1.33v1.26h5.15v1.91h2.14v1.01h-2.14v2.02h-5.15v.92h6.09v.9h-6.09v1.06h7.36Zm-13.61,1.89h11.49v5.58h-1.33v-.63h-8.86v.63h-1.3v-5.58Zm1.3,.92v1.08h8.86v-1.08h-8.86Zm8.86,3.1v-1.13h-8.86v1.13h8.86Zm-3.91-11.81h3.82v-1.01h-3.82v1.01Zm0,2.12h3.82v-1.12h-3.82v1.12Z"/>
    </g>
    <g>
      <path class="cls-1" d="M255.04,97.26h9.87v1.17h-9.87v-1.17Zm.49,7.92h9.11v7.44h-1.28v-.77h-6.61v.99h-1.22v-7.65Zm8.35-5.47v4.18h-7.72v-4.18h7.72Zm-7.13,6.54v1.69h2.7v-1.69h-2.7Zm2.7,4.54v-1.8h-2.7v1.8h2.7Zm3.15-9.99h-5.22v2.02h5.22v-2.02Zm.76,5.46h-2.68v1.69h2.68v-1.69Zm0,4.54v-1.8h-2.68v1.8h2.68Zm3.91-2.27h-1.19v-9.9h1.19v9.9Zm3.22-11.72v14.35c0,.86-.22,1.26-.76,1.48-.56,.23-1.48,.27-3.01,.25-.05-.36-.25-.95-.45-1.33,1.15,.05,2.18,.04,2.47,.02,.32,0,.45-.11,.45-.41v-14.35h1.3Z"/>
      <path class="cls-1" d="M284.85,105.63c-.83,.43-1.67,.85-2.56,1.21h6.77v5.96h-1.3v-.52h-7.94v.58h-1.26v-4.61c-1.13,.36-2.3,.68-3.46,.97-.13-.29-.47-.88-.67-1.15,2.63-.56,5.31-1.37,7.74-2.43h-7.36v-1.1h6.73v-1.35h-4.95v-1.08h4.95v-1.26h-5.71v-3.69h13.94v3.69h-6.93v1.26h4.03v.92c.68-.49,1.3-1.01,1.85-1.55l1.04,.67c-.88,.86-1.93,1.67-3.06,2.39h4v1.1h-5.87Zm-4.86-7.51h-2.86v1.73h2.86v-1.73Zm7.78,9.72h-7.94v1.19h7.94v-1.19Zm0,3.42v-1.31h-7.94v1.31h7.94Zm-3.58-11.42v-1.73h-2.95v1.73h2.95Zm.25,4.68c.79-.41,1.53-.88,2.21-1.35h-3.8v1.35h1.58Zm.99-4.68h3.04v-1.73h-3.04v1.73Z"/>
      <path class="cls-1" d="M309.76,107.14c-1.13,.83-2.59,1.71-3.89,2.36,1.37,.99,3.08,1.67,5.1,2.05-.27,.31-.65,.83-.83,1.19-4.11-.9-6.91-3.1-8.46-6.48h-2.88v4.83l4.86-1.17c-.02,.34-.05,.88-.04,1.17-5.04,1.28-5.92,1.53-6.34,1.75l-.07,.05c-.11-.32-.38-.97-.61-1.31,.36-.18,.88-.56,.88-1.28v-4.03h-2.92v-1.21h3.15v-7.9h11.07v1.13h-9.72v1.55h9.18v1.1h-9.18v1.49h9.18v1.08h-9.18v1.55h11.47v1.21h-7.51c.5,.95,1.13,1.8,1.93,2.52,1.28-.68,2.77-1.64,3.69-2.38l1.12,.74Z"/>
    </g>
    <rect class="cls-5" x="158.6" y="17.28" width="97.74" height="32" rx="5" ry="5"/>
    <g>
      <path class="cls-1" d="M190,33.32c-.83,.43-1.67,.85-2.56,1.21h6.77v5.96h-1.3v-.52h-7.94v.58h-1.26v-4.61c-1.13,.36-2.3,.68-3.46,.97-.13-.29-.47-.88-.67-1.15,2.63-.56,5.31-1.37,7.74-2.43h-7.36v-1.1h6.73v-1.35h-4.95v-1.08h4.95v-1.26h-5.71v-3.69h13.94v3.69h-6.93v1.26h4.03v.92c.68-.49,1.3-1.01,1.85-1.55l1.04,.67c-.88,.86-1.93,1.67-3.06,2.39h4v1.1h-5.87Zm-4.86-7.51h-2.86v1.73h2.86v-1.73Zm7.78,9.72h-7.94v1.19h7.94v-1.19Zm0,3.42v-1.31h-7.94v1.31h7.94Zm-3.58-11.42v-1.73h-2.95v1.73h2.95Zm.25,4.68c.79-.41,1.53-.88,2.21-1.35h-3.8v1.35h1.58Zm.99-4.68h3.04v-1.73h-3.04v1.73Z"/>
      <path class="cls-1" d="M234.71,34.83c-1.13,.83-2.59,1.71-3.89,2.36,1.37,.99,3.08,1.67,5.1,2.05-.27,.31-.65,.83-.83,1.19-4.11-.9-6.91-3.1-8.46-6.48h-2.88v4.83l4.86-1.17c-.02,.34-.05,.88-.04,1.17-5.04,1.28-5.92,1.53-6.34,1.75l-.07,.05c-.11-.32-.38-.97-.61-1.31,.36-.18,.88-.56,.88-1.28v-4.03h-2.92v-1.21h3.15v-7.9h11.07v1.13h-9.72v1.55h9.18v1.1h-9.18v1.49h9.18v1.08h-9.18v1.55h11.47v1.21h-7.51c.5,.95,1.13,1.8,1.93,2.52,1.28-.68,2.77-1.64,3.69-2.38l1.12,.74Z"/>
    </g>
  </g>
  <rect class="cls-2" x="203.94" y="6.77" width="8.36" height="392.23" rx="4.18" ry="4.18" transform="translate(411 -5.23) rotate(90)"/>
</svg>