<svg width="110" height="110" viewBox="0 0 110 110" fill="none" xmlns="http://www.w3.org/2000/svg">
<path d="M31.4375 32C33.2637 32 34.875 33.6071 34.875 35.4286V71.4286C34.875 72.3929 35.627 73.1429 36.5938 73.1429H79.5625C81.3887 73.1429 83 74.75 83 76.5714C83 78.5 81.3887 80 79.5625 80H36.5938C31.7598 80 28 76.25 28 71.4286V35.4286C28 33.6071 29.5039 32 31.4375 32ZM45.1875 52.5714C47.0137 52.5714 48.625 54.1786 48.625 56V62.8571C48.625 64.7857 47.0137 66.2857 45.1875 66.2857C43.2539 66.2857 41.75 64.7857 41.75 62.8571V56C41.75 54.1786 43.2539 52.5714 45.1875 52.5714ZM58.9375 62.8571C58.9375 64.7857 57.3262 66.2857 55.5 66.2857C53.5664 66.2857 52.0625 64.7857 52.0625 62.8571V45.7143C52.0625 43.8929 53.5664 42.2857 55.5 42.2857C57.3262 42.2857 58.9375 43.8929 58.9375 45.7143V62.8571ZM65.8125 49.1429C67.6387 49.1429 69.25 50.75 69.25 52.5714V62.8571C69.25 64.7857 67.6387 66.2857 65.8125 66.2857C63.8789 66.2857 62.375 64.7857 62.375 62.8571V52.5714C62.375 50.75 63.8789 49.1429 65.8125 49.1429ZM79.5625 62.8571C79.5625 64.7857 77.9512 66.2857 76.125 66.2857C74.1914 66.2857 72.6875 64.7857 72.6875 62.8571V38.8571C72.6875 37.0357 74.1914 35.4286 76.125 35.4286C77.9512 35.4286 79.5625 37.0357 79.5625 38.8571V62.8571Z" fill="white"/>
</svg>
