<svg width="264" height="264" viewBox="0 0 264 264" fill="none" xmlns="http://www.w3.org/2000/svg">
<g clip-path="url(#clip0_825_837)">
<g clip-path="url(#clip1_825_837)">
<path d="M117.797 136.626C116.705 136.643 115.653 137.034 114.819 137.734C113.984 138.433 113.419 139.398 113.219 140.465C113.018 141.531 113.195 142.633 113.719 143.585C114.243 144.537 115.083 145.279 116.095 145.686C117.107 146.093 118.229 146.14 119.272 145.819C120.315 145.497 121.214 144.828 121.816 143.923C122.419 143.019 122.688 141.935 122.579 140.855C122.469 139.776 121.987 138.768 121.215 138.001C120.768 137.554 120.235 137.202 119.648 136.966C119.06 136.73 118.431 136.614 117.797 136.626Z" fill="white"/>
<path d="M98.5912 117.612C97.4996 117.629 96.4473 118.02 95.6129 118.72C94.7784 119.42 94.2131 120.384 94.0127 121.451C93.8123 122.517 93.9891 123.619 94.5133 124.571C95.0375 125.523 95.8767 126.265 96.8887 126.672C97.9007 127.079 99.0232 127.126 100.066 126.805C101.109 126.483 102.008 125.814 102.61 124.909C103.213 124.005 103.483 122.921 103.373 121.842C103.263 120.762 102.781 119.754 102.009 118.987C101.562 118.54 101.029 118.188 100.442 117.952C99.8544 117.716 99.2249 117.6 98.5912 117.612V117.612Z" fill="white"/>
<path d="M117.797 117.612C116.705 117.629 115.653 118.02 114.819 118.72C113.984 119.42 113.419 120.384 113.219 121.451C113.018 122.517 113.195 123.619 113.719 124.571C114.243 125.523 115.083 126.265 116.095 126.672C117.107 127.079 118.229 127.126 119.272 126.805C120.315 126.483 121.214 125.814 121.816 124.909C122.419 124.005 122.688 122.921 122.579 121.842C122.469 120.762 121.987 119.754 121.215 118.987C120.768 118.54 120.235 118.188 119.648 117.952C119.06 117.716 118.431 117.6 117.797 117.612Z" fill="white"/>
<path d="M98.5912 136.626C97.4996 136.643 96.4473 137.034 95.6129 137.734C94.7784 138.433 94.2131 139.398 94.0127 140.465C93.8123 141.531 93.9891 142.633 94.5133 143.585C95.0375 144.537 95.8767 145.279 96.8887 145.686C97.9007 146.093 99.0232 146.14 100.066 145.819C101.109 145.497 102.008 144.828 102.61 143.923C103.213 143.019 103.483 141.935 103.373 140.855C103.263 139.776 102.781 138.768 102.009 138.001C101.562 137.554 101.029 137.202 100.442 136.966C99.8544 136.73 99.2249 136.614 98.5912 136.626V136.626Z" fill="white"/>
<path d="M141.818 122.314C141.796 121.238 141.4 120.202 140.697 119.382C139.995 118.562 139.029 118.008 137.963 117.814C136.897 117.62 135.796 117.798 134.846 118.317C133.897 118.836 133.157 119.665 132.752 120.664C132.346 121.662 132.3 122.77 132.622 123.798C132.943 124.826 133.612 125.713 134.515 126.308C135.419 126.903 136.501 127.17 137.58 127.063C138.658 126.957 139.667 126.484 140.435 125.724C140.886 125.278 141.241 124.747 141.479 124.16C141.717 123.574 141.832 122.946 141.818 122.314V122.314Z" fill="white"/>
<path d="M188.256 136.86C187.771 136.317 187.177 135.882 186.512 135.583C185.846 135.285 185.125 135.13 184.395 135.128H184.312C177.393 135.128 170.862 132.969 166.85 129.34C166.072 128.632 165.091 128.183 164.043 128.057C162.996 127.932 161.935 128.135 161.01 128.638V89.1809C160.998 88.3527 160.797 87.538 160.423 86.7977C160.05 86.0573 159.512 85.4104 158.852 84.9052C157.453 83.695 155.655 83.0392 153.801 83.0629H145.969V76.9449H138.165V83.0629H97.3874V76.9449H89.5833V83.0629H81.7792C79.929 83.0387 78.1352 83.6948 76.7425 84.9052C76.0793 85.409 75.5394 86.0553 75.1632 86.7957C74.787 87.5362 74.5842 88.3516 74.5701 89.1809V152.423C74.5821 153.255 74.7839 154.073 75.1602 154.816C75.5365 155.559 76.0775 156.207 76.7425 156.712C78.1372 157.918 79.9308 158.569 81.7792 158.541H139.992L140.877 171.396C140.935 172.238 141.198 173.054 141.644 173.772C142.09 174.491 142.705 175.091 143.437 175.52L161.564 186.161C162.347 186.629 163.244 186.876 164.158 186.876C165.072 186.876 165.969 186.629 166.753 186.161L184.879 175.52C185.612 175.091 186.229 174.491 186.677 173.773C187.126 173.054 187.392 172.239 187.453 171.396L189.556 140.696C189.645 139.297 189.178 137.92 188.256 136.86V136.86ZM180.562 170.172L164.124 179.796L147.671 170.172L146.883 158.637L146.454 152.519L145.72 141.919C148.449 141.705 151.146 141.189 153.76 140.38C156.29 139.609 158.713 138.524 160.969 137.149C161.799 136.646 162.598 136.095 163.363 135.499C168.923 139.559 175.601 141.833 182.499 142.016L180.562 170.172ZM81.7377 89.2359H153.76V102.489H81.7792L81.7377 89.2359ZM81.7377 152.478V108.635H153.76V133.093C150.547 134.354 147.139 135.052 143.686 135.155C142.975 135.186 142.277 135.362 141.637 135.672C140.997 135.982 140.427 136.419 139.964 136.956C139.062 138.009 138.61 139.371 138.705 140.751L139.521 152.519L81.7377 152.478Z" fill="white"/>
<path d="M160.997 146.69V152.588V152.684H160.983H154.964V158.541V158.967H160.997V164.961H167.32V158.967H173.353V152.684H167.32V146.69H160.997Z" fill="white"/>
</g>
</g>
<defs>
<clipPath id="clip0_825_837">
<rect width="216.43" height="231.53" fill="white" transform="translate(24 16)"/>
</clipPath>
<clipPath id="clip1_825_837">
<rect width="115" height="110" fill="white" transform="translate(74.5701 77)"/>
</clipPath>
</defs>
</svg>
