<svg id="圖層_1" data-name="圖層 1" xmlns="http://www.w3.org/2000/svg" width="246" height="246" viewBox="0 0 246 246">
  <defs>
    <style>
      .cls-1 {
        fill: #fff;
      }
    </style>
  </defs>
  <g>
    <path class="cls-1" d="M123,176.18a43,43,0,0,1,0-86V95a38.14,38.14,0,1,0,17.21,4.09l2.18-4.31A43,43,0,0,1,123,176.18Z"/>
    <path class="cls-1" d="M123,116.4c-12.6,0-24.46-2.48-32.54-6.8l2.27-4.26c7.41,4,18.44,6.24,30.27,6.24s22.86-2.28,30.27-6.24l2.27,4.26C147.46,113.92,135.6,116.4,123,116.4Z"/>
    <path class="cls-1" d="M153,161.32c-7.41-3.89-18.36-6.12-30-6.12s-22.42,2.19-29.82,6L91,156.91c8.06-4.15,19.73-6.53,32-6.53s24.2,2.43,32.28,6.66Z"/>
    <rect class="cls-1" x="120.59" y="141.63" width="4.83" height="32.13"/>
    <rect class="cls-1" x="131.57" y="130.77" width="32.02" height="4.83"/>
    <path class="cls-1" d="M125.53,124.73H120.7V72.23a2.39,2.39,0,0,1,1.24-2.1,2.42,2.42,0,0,1,2.44,0l31,19a2.41,2.41,0,0,1-.28,4.26l-29.61,13.17Zm0-48.19v24.79L149,90.9Z"/>
    <path class="cls-1" d="M123.12,144.05A10.87,10.87,0,1,1,134,133.18,10.88,10.88,0,0,1,123.12,144.05Zm0-16.91a6,6,0,1,0,6,6A6,6,0,0,0,123.12,127.14Z"/>
    <rect class="cls-1" x="82.87" y="130.77" width="32.02" height="4.83"/>
  </g>
</svg>
