<svg width="110" height="110" viewBox="0 0 110 110" fill="none" xmlns="http://www.w3.org/2000/svg">
<path d="M85.9573 66.7046C85.6007 50.7073 75.392 37.3963 61.8211 33.9956C61.1633 32.6899 60.1469 31.5931 58.8881 30.8305C57.6293 30.068 56.1787 29.6703 54.7019 29.6828C53.2252 29.6954 51.7818 30.1178 50.5364 30.9018C49.2911 31.6857 48.2941 32.7996 47.6592 34.1163C44.717 34.9285 41.922 36.1915 39.3761 37.8591C39.2533 37.9211 39.1373 37.9953 39.0297 38.0805C30.2473 43.9764 24.3075 54.5708 24.0426 66.7046C22.8562 67.2674 21.8547 68.1495 21.1536 69.2495C20.4524 70.3496 20.0801 71.6227 20.0793 72.9225V73.4155C20.082 75.2452 20.8193 76.9992 22.1294 78.293C23.4396 79.5868 25.2157 80.3148 27.0686 80.3175H82.9314C84.7842 80.3148 86.5604 79.5868 87.8705 78.293C89.1807 76.9992 89.9179 75.2452 89.9206 73.4155V72.9426C89.9237 71.6394 89.5532 70.362 88.8518 69.258C88.1504 68.1541 87.1469 67.2689 85.9573 66.7046ZM50.9603 37.4667C51.0108 36.5011 51.4349 35.5915 52.1449 34.9256C52.8549 34.2598 53.7967 33.8886 54.7758 33.8886C55.755 33.8886 56.6968 34.2598 57.4068 34.9256C58.1168 35.5915 58.5408 36.5011 58.5914 37.4667V47.1054C58.5408 48.071 58.1168 48.9806 57.4068 49.6465C56.6968 50.3123 55.755 50.6836 54.7758 50.6836C53.7967 50.6836 52.8549 50.3123 52.1449 49.6465C51.4349 48.9806 51.0108 48.071 50.9603 47.1054V37.4667ZM38.2656 43.8154V52.8705C38.2656 53.4041 38.4803 53.916 38.8624 54.2933C39.2445 54.6707 39.7628 54.8827 40.3032 54.8827C40.8437 54.8827 41.362 54.6707 41.7441 54.2933C42.1262 53.916 42.3409 53.4041 42.3409 52.8705V40.7467C43.778 39.871 45.3003 39.1396 46.8849 38.5634V47.0853C46.9584 49.1035 47.8219 51.0148 49.2937 52.417C50.7655 53.8191 52.7308 54.6027 54.7758 54.6027C56.8209 54.6027 58.7861 53.8191 60.2579 52.417C61.7298 51.0148 62.5933 49.1035 62.6667 47.0853V38.4326C64.0768 38.916 65.4406 39.522 66.7421 40.2436V52.8805C66.7421 53.4142 66.9567 53.926 67.3389 54.3034C67.721 54.6808 68.2393 54.8928 68.7797 54.8928C69.3202 54.8928 69.8384 54.6808 70.2206 54.3034C70.6027 53.926 70.8174 53.4142 70.8174 52.8805V43.0407C74.1577 45.9147 76.8604 49.4396 78.7557 53.3942C80.6509 57.3487 81.698 61.6474 81.831 66.0205H28.1281C28.4061 57.5874 32.0503 49.6051 38.2656 43.8154ZM85.8452 73.4155C85.8452 74.1787 85.5382 74.9106 84.9918 75.4502C84.4453 75.9898 83.7042 76.293 82.9314 76.293H27.0686C26.6859 76.293 26.307 76.2186 25.9535 76.074C25.5999 75.9294 25.2787 75.7174 25.0081 75.4502C24.7376 75.183 24.5229 74.8658 24.3765 74.5167C24.2301 74.1676 24.1547 73.7934 24.1547 73.4155V72.9426C24.1547 72.5647 24.2301 72.1905 24.3765 71.8414C24.5229 71.4923 24.7376 71.1751 25.0081 70.9079C25.2787 70.6407 25.5999 70.4287 25.9535 70.2841C26.307 70.1395 26.6859 70.0651 27.0686 70.0651H82.9314C83.7042 70.0651 84.4453 70.3683 84.9918 70.9079C85.5382 71.4475 85.8452 72.1794 85.8452 72.9426V73.4155Z" fill="white"/>
</svg>
