<?xml version="1.0" encoding="utf-8"?>
<!-- Generator: Adobe Illustrator 24.2.1, SVG Export Plug-In . SVG Version: 6.00 Build 0)  -->
<svg version="1.1" id="圖層_1" xmlns="http://www.w3.org/2000/svg" xmlns:xlink="http://www.w3.org/1999/xlink" x="0px" y="0px"
	 width="320px" height="61.2px" viewBox="0 0 320 61.2" style="enable-background:new 0 0 320 61.2;" xml:space="preserve">
<style type="text/css">
	.st0{clip-path:url(#SVGID_2_);}
	.st1{fill:#262626;}
	.st2{fill:url(#SVGID_3_);}
	.st3{fill:url(#SVGID_4_);}
	.st4{fill:url(#SVGID_5_);}
	.st5{fill:url(#SVGID_6_);}
	.st6{fill:url(#SVGID_7_);}
	.st7{fill:url(#SVGID_8_);}
	.st8{fill:url(#SVGID_9_);}
	.st9{fill:#231815;}
</style>
<g>
	<defs>
		<rect id="SVGID_1_" width="320" height="61.2"/>
	</defs>
	<clipPath id="SVGID_2_">
		<use xlink:href="#SVGID_1_"  style="overflow:visible;"/>
	</clipPath>
	<g class="st0">
		<path class="st1" d="M1.7,35h2c0.2,0,0.5,0.1,0.7,0.2h-2C2.2,35.1,1.9,35,1.7,35z"/>
		<path class="st1" d="M1.8,35h2c0.1,0,0.2,0,0.2,0H2C1.9,35,1.9,35,1.8,35"/>
		<path class="st1" d="M2,35h2c0.1,0,0.3,0.1,0.4,0.2h-2C2.3,35.1,2.2,35.1,2,35z"/>
		<path class="st1" d="M2.4,35.2h2L7.5,37h-2L2.4,35.2z"/>
		<path class="st1" d="M11.7,17.5h2c0.2,0,0.5,0.1,0.7,0.2h-2C12.2,17.6,12,17.5,11.7,17.5z"/>
		<path class="st1" d="M11.8,17.5h2c0.1,0,0.2,0,0.3,0.1h-2C12,17.5,11.9,17.5,11.8,17.5"/>
		<path class="st1" d="M12.1,17.6h2c0.1,0,0.3,0.1,0.4,0.2h-2C12.3,17.7,12.2,17.6,12.1,17.6z"/>
		<path class="st1" d="M12.4,17.7h2l3.9,2.2h-2L12.4,17.7z"/>
		<path class="st1" d="M5.5,37h2c1,0.6,1.8,1.5,2.3,2.6c0.1,0.3,2.4,6,5.5,9.5c2.1,2.1,4.5,3.9,7,5.5c0.5,0.3,1,0.4,1.5,0.4h-2
			c-0.5,0-1.1-0.1-1.5-0.4c-2.5-1.6-4.9-3.5-7-5.5c-3.1-3.5-5.4-9.1-5.5-9.5C7.3,38.5,6.5,37.6,5.5,37z"/>
		<path class="st1" d="M5.5,37h2c1,0.6,1.8,1.5,2.3,2.6c0.1,0.3,2.4,6,5.5,9.5c2.1,2.1,4.5,3.9,7,5.5c0.2,0.1,0.4,0.2,0.6,0.3h-2
			c-0.2-0.1-0.4-0.2-0.6-0.3c-2.5-1.6-4.9-3.5-7-5.5c-3.1-3.5-5.4-9.1-5.5-9.5C7.3,38.5,6.5,37.6,5.5,37"/>
		<path class="st1" d="M20.9,54.8h2c0.2,0.1,0.5,0.1,0.7,0.1h-2C21.3,54.9,21.1,54.9,20.9,54.8"/>
		<path class="st1" d="M22.3,61.1h2c-0.2,0.1-0.4,0.1-0.5,0.1h-2C21.9,61.2,22.1,61.2,22.3,61.1z"/>
		<path class="st1" d="M22.3,61.1h2c-0.2,0.1-0.4,0.1-0.5,0.1h-2C21.9,61.2,22.1,61.2,22.3,61.1z"/>
		<path class="st1" d="M22.9,60.8h2l-0.6,0.3h-2L22.9,60.8z"/>
		<path class="st1" d="M22.9,60.8h2l-0.6,0.3h-2L22.9,60.8z"/>
		<path class="st1" d="M16.3,19.9h2L37,36.6h-2L16.3,19.9z"/>
		<path class="st1" d="M16.3,19.9h2l19.9,11.3h-2L16.3,19.9z"/>
		<path class="st1" d="M36,39.2h2c0.2,0.8,0.3,1.6,0.2,2.4c0,1.6-0.2,3.2-0.7,4.7c-1.3,4.4-12.6,14.5-12.6,14.5h-2
			c0,0,11.4-10.2,12.6-14.5c0.4-1.5,0.7-3.1,0.7-4.7C36.3,40.8,36.2,40,36,39.2z"/>
		<path class="st1" d="M36,39.2h2c0.2,0.8,0.3,1.6,0.2,2.4c0,1.6-0.2,3.2-0.7,4.7c-1.3,4.4-12.6,14.5-12.6,14.5h-2
			c0,0,11.4-10.2,12.6-14.5c0.4-1.5,0.7-3.1,0.7-4.7C36.3,40.8,36.2,40,36,39.2"/>
		<path class="st1" d="M36.2,31.2h2l3.2,1.8h-2L36.2,31.2z"/>
		<path class="st1" d="M36.2,31.2h2l3.2,1.8h-2L36.2,31.2z"/>
		<path class="st1" d="M39.4,33h2L43,34h-2L39.4,33z"/>
		<path class="st1" d="M42.3,36.5h2l-0.2,0.8c-0.2,0.9-0.5,1.8-0.8,2.8c-1.5,4.6-3.9,8.8-7,12.4c-2.8,3.2-9.4,7.2-9.8,7.4
			c-0.5,0.3-1.1,0.6-1.5,0.9h-2c0.4-0.2,1-0.6,1.5-0.9c0.3-0.2,6.9-4.2,9.8-7.4c3.2-3.6,5.5-7.8,7-12.4c0.3-0.9,0.6-1.9,0.8-2.8
			L42.3,36.5z"/>
		<path class="st1" d="M42.3,36.5h2l-0.2,0.8c-0.2,0.9-0.5,1.8-0.8,2.8c-1.5,4.6-3.9,8.8-7,12.4c-2.8,3.2-9.4,7.2-9.8,7.4
			c-0.5,0.3-1.1,0.6-1.5,0.9h-2c0.4-0.2,1-0.6,1.5-0.9c0.3-0.2,6.9-4.2,9.8-7.4c3.2-3.6,5.5-7.8,7-12.4c0.3-0.9,0.6-1.9,0.8-2.8
			L42.3,36.5z"/>
		<path class="st1" d="M41,34h2c0.4,0.3,0.8,0.6,1,1.1c0.2,0.5,0.3,1,0.2,1.5h-2c0.1-0.5,0-1-0.2-1.5C41.8,34.6,41.5,34.2,41,34z"/>
		<path class="st1" d="M41,34h2c0.4,0.3,0.8,0.6,1,1.1c0.2,0.5,0.3,1,0.2,1.5h-2c0.1-0.5,0-1-0.2-1.5C41.8,34.6,41.5,34.2,41,34z"/>
		<path class="st1" d="M7.3,16.8h-2v5.9h2V16.8z"/>
		<path class="st1" d="M5.3,22.7h2c-0.1,0.6,0,1.2,0.3,1.7c0.3,0.5,0.7,0.9,1.3,1.2h-2c-0.6-0.2-1-0.7-1.3-1.2
			C5.3,23.9,5.2,23.3,5.3,22.7z"/>
		<path class="st1" d="M5.3,22.7h2c-0.1,0.6,0,1.2,0.3,1.7c0.3,0.5,0.7,0.9,1.3,1.2h-2c-0.6-0.2-1-0.7-1.3-1.2
			C5.3,23.9,5.2,23.3,5.3,22.7"/>
		<path class="st1" d="M7,14.2h2c-0.5,0.2-0.9,0.6-1.2,1.1c-0.3,0.5-0.5,1-0.5,1.5h-2c0-0.5,0.2-1.1,0.5-1.5
			C6.1,14.8,6.5,14.4,7,14.2z"/>
		<path class="st1" d="M7,14.2h2c-0.5,0.2-0.9,0.6-1.2,1.1c-0.3,0.5-0.5,1-0.5,1.5h-2c0-0.5,0.2-1.1,0.5-1.5
			C6.1,14.8,6.5,14.4,7,14.2z"/>
		<path class="st1" d="M21.6,0h2C21.7,2.6,14.7,7.8,12,9.6c-0.8,0.5-1.5,1.2-2,2c-0.5,0.8-0.9,1.7-1,2.7h-2c0.1-0.9,0.5-1.9,1-2.7
			c0.5-0.8,1.2-1.5,2-2C12.7,7.8,19.7,2.6,21.6,0z"/>
		<path class="st1" d="M21.6,0h2C21.7,2.6,14.7,7.8,12,9.6c-0.8,0.5-1.5,1.2-2,2c-0.5,0.8-0.9,1.7-1,2.7h-2c0.1-0.9,0.5-1.9,1-2.7
			c0.5-0.8,1.2-1.5,2-2C12.7,7.8,19.7,2.6,21.6,0z"/>
		<path class="st1" d="M21.8,6.7h2c-0.5,0-1.1,0.1-1.5,0.4c-0.1,0-1.2,0.8-3.2,2c-3.3,2-9.7,4.8-10.1,5h-2c0.3-0.2,6.8-3,10.1-5
			c2-1.2,3.2-2,3.3-2C20.7,6.9,21.2,6.7,21.8,6.7z"/>
		<path class="st1" d="M21.8,6.7h2c-0.5,0-1.1,0.1-1.5,0.4c-0.1,0-1.2,0.8-3.2,2c-3.3,2-9.7,4.8-10.1,5h-2c0.3-0.2,6.8-3,10.1-5
			c2-1.2,3.2-2,3.3-2C20.7,6.9,21.2,6.7,21.8,6.7z"/>
		<path class="st1" d="M21.8,11h2c0.1,0,0.1,0,0.2,0h-2C21.9,11,21.8,11,21.8,11z"/>
		<path class="st1" d="M6.9,25.6h2l18.7,16.7h-2L6.9,25.6z"/>
		<path class="st1" d="M22,11h2l4.1,2.4h-2L22,11z"/>
		<path class="st1" d="M26,13.4h2c0.1,0,0.1,0.1,0.2,0.2c0,0.1,0,0.2,0,0.3c0,0.1-0.1,0.2-0.2,0.2c-0.1,0.1-0.2,0.1-0.3,0.1h-2
			c0.1,0,0.2,0,0.3-0.1c0.1-0.1,0.1-0.1,0.2-0.2c0-0.1,0-0.2,0-0.3C26.2,13.5,26.1,13.5,26,13.4z"/>
		<path class="st1" d="M26,13.4h2c0.1,0,0.1,0.1,0.2,0.2c0,0.1,0,0.2,0,0.3c0,0.1-0.1,0.2-0.2,0.2c-0.1,0.1-0.2,0.1-0.3,0.1h-2
			c0.1,0,0.2,0,0.3-0.1c0.1-0.1,0.1-0.1,0.1-0.2c0-0.1,0-0.2,0-0.3C26.2,13.5,26.1,13.5,26,13.4"/>
		<path class="st1" d="M6.9,25.6h2l20.9,11.9h-2L6.9,25.6z"/>
		<path class="st1" d="M29.4,42.6h2c0,0.7-0.4,1.1-0.9,1.1h-2C29,43.8,29.4,43.3,29.4,42.6z"/>
		<path class="st1" d="M29.4,42.6h2c0,0.7-0.4,1.1-0.9,1.1h-2C29,43.8,29.4,43.3,29.4,42.6z"/>
		<path class="st1" d="M27.8,37.5h2c0.5,0.3,0.8,0.7,1.1,1.2c0.3,0.5,0.4,1,0.5,1.6h-2c0-0.6-0.2-1.1-0.5-1.6
			C28.7,38.2,28.3,37.8,27.8,37.5z"/>
		<path class="st1" d="M27.8,37.5h2c0.5,0.3,0.8,0.7,1.1,1.2c0.3,0.5,0.4,1,0.5,1.6h-2c0-0.6-0.2-1.1-0.5-1.6
			C28.7,38.2,28.3,37.8,27.8,37.5z"/>
		<path class="st1" d="M31.4,40.2h-2v2.4h2V40.2z"/>
		<path class="st1" d="M21.8,0h2c0.3,0,0.5,0.1,0.8,0.2l0.8,0.6l0.4,0.3l1.2,0.8c1,0.7,2.5,1.7,4.3,2.7c3.5,1.9,7,3.6,10.7,5.2
			c0.9,0.4,2.1,0.8,2.6,1C45,11,45.5,12,45.5,13h-2c0-1-0.4-2-0.9-2.1c-0.5-0.2-1.7-0.6-2.6-1c-3.7-1.5-7.2-3.3-10.7-5.2
			c-1.8-1.1-3.2-2-4.3-2.7l-1.2-0.8l-0.4-0.3l-0.8-0.6C22.3,0.1,22,0,21.8,0z"/>
		<path class="st1" d="M21.8,0h2c0.1,0,0.2,0,0.3,0.1h-2C22,0,21.9,0,21.8,0"/>
		<path class="st1" d="M22.1,0.1h2c0.1,0,0.3,0.1,0.4,0.2l0.8,0.6l0.4,0.3l1.2,0.8c1,0.7,2.5,1.7,4.3,2.7c3.5,1.9,7.1,3.6,10.7,5.2
			c0.9,0.4,2.1,0.8,2.6,1C45,11,45.5,12,45.5,13h-2c0-1-0.4-2-0.9-2.1c-0.5-0.2-1.7-0.6-2.6-1c-3.7-1.5-7.2-3.3-10.7-5.2
			c-1.8-1.1-3.2-2-4.3-2.7l-1.2-0.8l-0.4-0.3l-0.8-0.6C22.4,0.1,22.3,0.1,22.1,0.1z"/>
		<path class="st1" d="M45.5,12.9h-2v9.6h2V12.9z"/>
		<path class="st1" d="M43.5,25.2h2v0.9c0,0.8,0,1.3,0,1.3c0,0.7-0.4,1.1-1,1.1h-2c0.5,0,0.9-0.4,1-1.1c0,0,0-0.5,0-1.3V25.2z"/>
		<path class="st1" d="M43.5,25.2h2v0.9c0,0.8,0,1.3,0,1.3c0,0.7-0.4,1.1-1,1.1h-2c0.5,0,0.9-0.4,1-1.1c0,0,0-0.5,0-1.3V25.2z"/>
		<path class="st1" d="M43.5,22.5h2c0,1,0,2.2,0,2.7h-2C43.5,24.7,43.5,23.5,43.5,22.5z"/>
		<path class="st1" d="M43.5,22.5h2c0,1,0,2.2,0,2.7h-2C43.5,24.7,43.4,23.5,43.5,22.5"/>
		
			<linearGradient id="SVGID_3_" gradientUnits="userSpaceOnUse" x1="42.2411" y1="88.6874" x2="6.5771" y2="20.2573" gradientTransform="matrix(1 0 0 -1 0 79)">
			<stop  offset="0" style="stop-color:#B5B5B6"/>
			<stop  offset="0.16" style="stop-color:#F4F4F4"/>
			<stop  offset="0.33" style="stop-color:#9FA0A0"/>
			<stop  offset="0.5" style="stop-color:#FFFFFF"/>
			<stop  offset="0.56" style="stop-color:#E1E1E1"/>
			<stop  offset="0.67" style="stop-color:#9FA0A0"/>
			<stop  offset="0.84" style="stop-color:#FFFFFF"/>
			<stop  offset="1" style="stop-color:#898989"/>
		</linearGradient>
		<path class="st2" d="M11.7,17.5c0.2,0,0.5,0.1,0.7,0.2l3.9,2.2L35,36.6L12.4,23.8c-0.5-0.3-0.8-0.7-1.1-1.2
			c-0.3-0.5-0.4-1-0.5-1.6v-2.4C10.8,17.9,11.2,17.5,11.7,17.5z"/>
		
			<linearGradient id="SVGID_4_" gradientUnits="userSpaceOnUse" x1="44.201" y1="87.6755" x2="8.5268" y2="19.2455" gradientTransform="matrix(1 0 0 -1 0 79)">
			<stop  offset="0" style="stop-color:#B5B5B6"/>
			<stop  offset="0.16" style="stop-color:#F4F4F4"/>
			<stop  offset="0.33" style="stop-color:#9FA0A0"/>
			<stop  offset="0.5" style="stop-color:#FFFFFF"/>
			<stop  offset="0.56" style="stop-color:#E1E1E1"/>
			<stop  offset="0.67" style="stop-color:#9FA0A0"/>
			<stop  offset="0.84" style="stop-color:#FFFFFF"/>
			<stop  offset="1" style="stop-color:#898989"/>
		</linearGradient>
		<path class="st3" d="M1.7,35c0.2,0,0.5,0.1,0.7,0.2L5.5,37c1,0.6,1.8,1.5,2.3,2.6c0.1,0.3,2.4,6,5.5,9.5c2.1,2.1,4.5,3.9,7,5.5
			c0.5,0.3,1,0.4,1.5,0.4s1.1-0.1,1.5-0.4c2.5-1.6,4.8-3.5,7-5.5c2.2-2.6,4-5.5,5.3-8.7c0.4-1,0.4-1.1,0.4-1.1
			c0.2,0.8,0.3,1.6,0.2,2.4c0,1.6-0.3,3.2-0.7,4.7c-1.2,4.4-12.6,14.5-12.6,14.5l-0.6,0.3c-0.2,0.1-0.4,0.1-0.5,0.1
			c-0.2,0-0.4,0-0.5-0.1c-0.3-0.1-1.2-0.7-2.1-1.2c-0.3-0.2-6.9-4.2-9.8-7.4c-2.6-3-4.7-6.5-6.2-10.2c-0.8-2-1.4-4.1-1.9-6.2
			C1,35.4,1.3,35,1.7,35z"/>
		
			<linearGradient id="SVGID_5_" gradientUnits="userSpaceOnUse" x1="48.1224" y1="85.6208" x2="12.4482" y2="17.2008" gradientTransform="matrix(1 0 0 -1 0 79)">
			<stop  offset="0" style="stop-color:#B5B5B6"/>
			<stop  offset="0.16" style="stop-color:#F4F4F4"/>
			<stop  offset="0.33" style="stop-color:#9FA0A0"/>
			<stop  offset="0.5" style="stop-color:#FFFFFF"/>
			<stop  offset="0.56" style="stop-color:#E1E1E1"/>
			<stop  offset="0.67" style="stop-color:#9FA0A0"/>
			<stop  offset="0.84" style="stop-color:#FFFFFF"/>
			<stop  offset="1" style="stop-color:#898989"/>
		</linearGradient>
		<path class="st4" d="M16.3,19.9l19.9,11.3l3.2,1.8l1.7,0.9c0.4,0.3,0.8,0.6,1,1.1c0.2,0.4,0.3,0.9,0.2,1.4L42,37.3
			c-0.2,0.9-0.5,1.8-0.8,2.8c-1.5,4.6-3.9,8.8-7,12.4c-2.8,3.2-9.4,7.2-9.8,7.4c-0.5,0.3-1.1,0.6-1.5,0.9c0,0,11.4-10.2,12.6-14.5
			c0.4-1.5,0.7-3.1,0.7-4.7c0-0.8-0.1-1.6-0.3-2.4c0.1-0.5,0.1-1-0.1-1.5c-0.2-0.5-0.5-0.9-0.9-1.2L16.3,19.9z"/>
		
			<linearGradient id="SVGID_6_" gradientUnits="userSpaceOnUse" x1="34.2223" y1="92.8747" x2="-1.4518" y2="24.4448" gradientTransform="matrix(1 0 0 -1 0 79)">
			<stop  offset="0" style="stop-color:#B5B5B6"/>
			<stop  offset="0.16" style="stop-color:#F4F4F4"/>
			<stop  offset="0.33" style="stop-color:#9FA0A0"/>
			<stop  offset="0.5" style="stop-color:#FFFFFF"/>
			<stop  offset="0.56" style="stop-color:#E1E1E1"/>
			<stop  offset="0.67" style="stop-color:#9FA0A0"/>
			<stop  offset="0.84" style="stop-color:#FFFFFF"/>
			<stop  offset="1" style="stop-color:#898989"/>
		</linearGradient>
		<path class="st5" d="M21.6,0c-1.9,2.6-8.9,7.8-11.7,9.6c-0.8,0.5-1.5,1.2-2,2c-0.5,0.8-0.9,1.7-1,2.7c-0.5,0.2-0.9,0.6-1.2,1.1
			c-0.3,0.5-0.5,1-0.5,1.5v5.9c-0.1,0.6,0,1.2,0.3,1.7c0.3,0.5,0.7,0.9,1.3,1.2l18.7,16.7L4.2,30.2l-2.9-1.7
			c-0.4-0.2-0.7-0.5-0.9-0.8C0.2,27.4,0.1,27,0,26.6v-1.4c0-0.5,0.1-1.7,0.1-2.7v-9.6c0-1,0.4-2,0.9-2.1s1.7-0.6,2.6-1
			c3.5-1.5,7-3.1,10.4-4.9c3.5-2.1,6-3.9,6.2-4L21,0.3C21.2,0.1,21.4,0,21.6,0L21.6,0z"/>
		
			<linearGradient id="SVGID_7_" gradientUnits="userSpaceOnUse" x1="35.8615" y1="92.0145" x2="0.1873" y2="23.5946" gradientTransform="matrix(1 0 0 -1 0 79)">
			<stop  offset="0" style="stop-color:#B5B5B6"/>
			<stop  offset="0.16" style="stop-color:#F4F4F4"/>
			<stop  offset="0.33" style="stop-color:#9FA0A0"/>
			<stop  offset="0.5" style="stop-color:#FFFFFF"/>
			<stop  offset="0.56" style="stop-color:#E1E1E1"/>
			<stop  offset="0.67" style="stop-color:#9FA0A0"/>
			<stop  offset="0.84" style="stop-color:#FFFFFF"/>
			<stop  offset="1" style="stop-color:#898989"/>
		</linearGradient>
		<path class="st6" d="M21.8,11c0.1,0,0.1,0,0.2,0l4,2.4c0.1,0,0.1,0.1,0.2,0.2c0,0.1,0,0.2,0,0.3c0,0.1-0.1,0.2-0.1,0.2
			c-0.1,0.1-0.2,0.1-0.3,0.1H18c-0.1,0-0.2,0-0.3-0.1c-0.1-0.1-0.1-0.1-0.2-0.2c0-0.1,0-0.2,0-0.3c0-0.1,0.1-0.2,0.2-0.2l3.7-2.3
			C21.6,11,21.7,11,21.8,11z"/>
		
			<linearGradient id="SVGID_8_" gradientUnits="userSpaceOnUse" x1="41.3282" y1="89.1646" x2="5.6641" y2="20.7346" gradientTransform="matrix(1 0 0 -1 0 79)">
			<stop  offset="0" style="stop-color:#B5B5B6"/>
			<stop  offset="0.16" style="stop-color:#F4F4F4"/>
			<stop  offset="0.33" style="stop-color:#9FA0A0"/>
			<stop  offset="0.5" style="stop-color:#FFFFFF"/>
			<stop  offset="0.56" style="stop-color:#E1E1E1"/>
			<stop  offset="0.67" style="stop-color:#9FA0A0"/>
			<stop  offset="0.84" style="stop-color:#FFFFFF"/>
			<stop  offset="1" style="stop-color:#898989"/>
		</linearGradient>
		<path class="st7" d="M6.9,25.6l20.9,11.9c0.5,0.3,0.8,0.7,1.1,1.2c0.3,0.5,0.4,1,0.5,1.6v2.4c0,0.7-0.4,1.1-0.9,1.1
			c-0.2,0-0.5-0.1-0.7-0.2l-2.2-1.2L6.9,25.6z"/>
		
			<linearGradient id="SVGID_9_" gradientUnits="userSpaceOnUse" x1="41.2496" y1="89.2043" x2="5.5855" y2="20.7743" gradientTransform="matrix(1 0 0 -1 0 79)">
			<stop  offset="0" style="stop-color:#B5B5B6"/>
			<stop  offset="0.16" style="stop-color:#F4F4F4"/>
			<stop  offset="0.33" style="stop-color:#9FA0A0"/>
			<stop  offset="0.5" style="stop-color:#FFFFFF"/>
			<stop  offset="0.56" style="stop-color:#E1E1E1"/>
			<stop  offset="0.67" style="stop-color:#9FA0A0"/>
			<stop  offset="0.84" style="stop-color:#FFFFFF"/>
			<stop  offset="1" style="stop-color:#898989"/>
		</linearGradient>
		<path class="st8" d="M21.8,0c0.3,0,0.5,0.1,0.8,0.2l0.8,0.6l0.4,0.3l1.2,0.8c1,0.7,2.5,1.7,4.3,2.7c3.5,1.9,7.1,3.6,10.7,5.2
			c0.9,0.4,2.1,0.8,2.6,1C43,11,43.5,12,43.5,13v9.6c0,1,0,2.2,0.1,2.7v0.9c0,0.8,0,1.3,0,1.3c0,0.7-0.4,1.1-1,1.1
			c-0.2,0-0.5-0.1-0.7-0.2l-1.9-1.1c-0.5-0.3-0.8-0.6-1.1-1.1c-0.3-0.4-0.5-0.9-0.5-1.5c0-0.1,0-0.9,0-1.9v-5.9
			c0-0.5-0.2-1.1-0.5-1.5c-0.3-0.5-0.7-0.8-1.2-1.1c-0.3-0.2-6.7-3-10.1-5c-2-1.2-3.2-2-3.2-2c-0.5-0.3-1-0.4-1.5-0.4
			c-0.5,0-1.1,0.1-1.5,0.4c-0.1,0-1.3,0.8-3.3,2c-3.3,2-9.7,4.8-10.1,5c0.1-0.9,0.5-1.9,1-2.7c0.5-0.8,1.2-1.5,2-2
			c2.8-1.8,9.7-7,11.7-9.6L21.8,0z"/>
		<path class="st9" d="M69.7,11.1V9.6c0-0.1,0.1-0.2,0.3-0.2c1.2,0,1.8,0.1,1.8,0.3c0,0.2-0.1,0.3-0.2,0.3s-0.2,0.2-0.2,0.5v0.5h4.4
			c0.3,0,0.4,0.1,0.4,0.3v2.5h1.2c0.1,0,0.2,0.1,0.2,0.3v0.8c0,0.2-0.1,0.3-0.2,0.3h-1.2v2.5c0,0.2-0.2,0.3-0.4,0.3h-4.4v1.2h4.5
			c0.3,0,0.4,0.1,0.4,0.3V20c0.2-0.3,0.3-0.6,0.5-0.9c0.5-1,0.9-2,1.3-3c0.4-1.2,0.6-2.5,0.8-3.7c0.2-0.8,0.3-1.7,0.3-2.5
			c0-0.1,0-0.2,0.1-0.2l2,0.6c0.1,0,0.1,0.1,0.2,0.1c0,0.1,0.1,0.1,0.1,0.2c0,0.1-0.2,0.3-0.5,0.5c-0.3,1.2-0.5,2.2-0.7,3h6
			c0.2,0,0.3,0.2,0.3,0.4v0.8c0,0.3-0.1,0.4-0.3,0.4h-1.1c0,2.3-0.2,4.7-0.6,7c-0.3,1.8-0.9,3.4-1.7,5c0.2,0.4,0.5,0.7,0.8,1
			c1,1.1,2,2,3.2,2.8c0,0.1-0.1,0.2-0.3,0.3c-0.2,0.1-0.6,0.5-1,0.7c-0.1,0.1-0.3,0.2-0.5,0.2c-0.8-0.6-1.6-1.3-2.3-2.1
			c-0.4-0.4-0.7-0.9-1-1.3c-0.4,0.5-0.8,0.9-1.3,1.3c-0.9,0.9-2,1.6-3.2,2.1c-0.3-0.3-0.5-0.6-0.7-0.8c-0.2,0.2-0.6,0.4-1.1,0.8
			c-0.1,0-0.2,0-0.3-0.1c-1-0.7-2.1-1.4-3.2-1.9c0,0-0.1-0.1-0.2-0.1c-0.7,0.4-1.4,0.7-2.1,1c-1.2,0.4-2.4,0.8-3.7,1.1
			c-0.2,0-0.3-0.1-0.3-0.2c-0.2-0.3-0.5-0.7-0.7-1.1c-0.1,0-0.1-0.1-0.1-0.1c0-0.1-0.1-0.1-0.1-0.2c0.4,0,0.8-0.1,1.1-0.2
			c0.6-0.1,1.2-0.2,1.9-0.4c0.7-0.2,1.4-0.4,2.1-0.7l-0.2-0.1C68.9,29.3,68,29,67,28.7c-0.2,0.2-0.3,0.4-0.5,0.5
			c-0.2,0-0.3,0-0.3-0.1c-0.3-0.1-0.6-0.3-1-0.4c-0.1,0-0.1-0.1-0.1-0.2c0.7-0.9,1.3-1.6,1.7-2.2h-2.9c-0.2,0-0.2-0.1-0.2-0.3v-0.8
			c0-0.2,0-0.3,0.2-0.3h3.9c0.3-0.4,0.5-0.8,0.7-1.2c0-0.1,0.1-0.1,0.1-0.2h-3c-0.3,0-0.4-0.1-0.4-0.3v-3.7c0-0.2,0.1-0.3,0.4-0.3h4
			V18h-4c-0.3,0-0.4-0.1-0.4-0.3v-2.5h-1.3c-0.2,0-0.2-0.1-0.2-0.3v-0.8c0-0.2,0-0.3,0.2-0.3h1.3v-2.5c0-0.2,0.1-0.3,0.4-0.3
			L69.7,11.1z M69.7,13.8v-1.4h-2.8v1.4L69.7,13.8z M69.7,15.2h-2.8v1.4h2.8V15.2z M69.7,20.7h-2.8v1.5h2.8V20.7z M72.9,27.5
			c0.3-0.3,0.5-0.6,0.6-1h-4.6c0,0.1-0.1,0.1-0.1,0.2c-0.2,0.3-0.4,0.6-0.7,0.9c0.8,0.3,1.6,0.5,2.5,0.8c0.4,0.2,0.8,0.3,1.1,0.4
			C72.2,28.4,72.6,28,72.9,27.5L72.9,27.5z M78.6,29.8c0.8-0.6,1.5-1.4,2.1-2.2c-0.6-1.2-1.1-2.4-1.4-3.7c-0.4-1.4-0.6-2.8-0.7-4.3
			c-0.2,0.5-0.4,1-0.6,1.4c-0.2,0-0.4,0-0.6-0.2c-0.4-0.2-0.7-0.3-1.1-0.4c-0.1,0-0.1-0.1-0.1-0.1v3c0,0.2-0.2,0.3-0.4,0.3h-5
			l0.3,0.2c0,0.1,0.1,0.2,0.1,0.2c0,0,0,0.1,0,0.1s0,0.1-0.1,0.1c0,0-0.1,0-0.1,0.1c0,0-0.1,0-0.1,0c-0.4,0.1-0.7,0.1-0.7,0.2
			L69.8,25h8c0.1,0,0.2,0.1,0.2,0.3v0.8c0,0.2-0.1,0.3-0.2,0.3h-2.6c-0.2,0.4-0.4,0.8-0.6,1.2c-0.3,0.6-0.7,1.1-1.2,1.6l-0.2,0.2
			c0.4,0.2,0.8,0.4,1.2,0.6c0.6,0.3,1.2,0.7,1.8,1.1C77.1,30.8,77.9,30.3,78.6,29.8L78.6,29.8z M71.3,13.8h3.1v-1.4h-3.1V13.8z
			 M74.4,15.2h-3.1v1.4h3.1V15.2z M74.5,20.7h-3.2v1.5h3.1L74.5,20.7z M79.7,18.1c0.3,0,0.5,0.2,0.5,0.4c0,1.4,0.2,2.8,0.5,4.2
			c0.3,1,0.6,2,1,2.9c0.5-1.1,0.8-2.2,1-3.4c0.4-2.2,0.6-4.4,0.6-6.6h-3.5c-0.2,0.7-0.3,1.2-0.4,1.7c-0.1,0.3-0.2,0.6-0.3,0.8H79.7z
			"/>
		<path class="st9" d="M97.9,11.1c0,0.2-0.1,0.2-0.2,0.2c-0.1,0-0.2,0-0.3,0.1s-0.2,0.1-0.3,0.2c-0.6,1.6-1.4,3.1-2.3,4.5v16.1
			c0,0.2-0.2,0.3-0.4,0.3h-1c-0.3,0-0.4-0.1-0.4-0.3V18.5c-0.6,0.7-1.4,1.6-2.3,2.5c-0.1,0-0.2,0-0.3-0.1c-0.1,0-0.2-0.1-0.2-0.2
			c-0.3-0.2-0.5-0.4-0.8-0.6c-0.1,0-0.1-0.1-0.1-0.1c0-0.1,0-0.1,0-0.2c0.8-0.8,1.5-1.6,2.3-2.5c1-1.2,1.9-2.4,2.6-3.8
			c0.6-1.2,1.1-2.4,1.5-3.6c0-0.1,0.1-0.2,0.2-0.2C96.5,10.1,97.2,10.5,97.9,11.1z M110.5,18.3c0.2,0.1,0.3,0.2,0.3,0.3
			c0,0.1-0.1,0.3-0.2,0.3c-0.2,0-0.5,0.2-0.5,0.3c-0.5,1.8-1,3.9-1.8,6.2c-0.5,1.6-1,3-1.5,4.5h6.1c0.2,0,0.3,0.2,0.3,0.4v0.8
			c0,0.3-0.1,0.4-0.3,0.4H96.7c-0.2,0-0.3-0.2-0.3-0.4v-0.8c0-0.3,0.1-0.4,0.3-0.4h8.2c0.7-1.8,1.3-3.6,2-5.5
			c0.6-2.1,1.1-4.3,1.5-6.5c0-0.2,0.1-0.3,0.2-0.3L110.5,18.3z M106.1,9.8c0,0.2-0.1,0.4-0.3,0.4c-0.2,0-0.3,0.2-0.3,0.5v3.7h6.4
			c0.2,0,0.3,0.2,0.3,0.4v0.8c0,0.3-0.1,0.4-0.3,0.4H97.3c-0.2,0-0.3-0.1-0.3-0.4v-0.8c0-0.3,0.1-0.4,0.3-0.4h6.5V9.7
			c0-0.2,0.1-0.3,0.4-0.3C105.5,9.5,106.1,9.6,106.1,9.8L106.1,9.8z M101.9,23.4c0.4,1.5,0.7,3.1,1,4.7c-0.5,0.2-1.1,0.4-1.7,0.5
			c-0.2-1.4-0.4-2.7-0.8-4c-0.4-1.9-1-3.8-1.6-5.6c0-0.1,0.5-0.4,1.4-0.9C100.9,19.9,101.4,21.7,101.9,23.4L101.9,23.4z"/>
		<path class="st9" d="M126,10.2c0.1,0,0.3,0,0.4,0.1c0.2,0.2,0.4,0.4,0.5,0.7c-0.4,0.8-0.8,1.6-1.3,2.4c-0.4,0.6-1,1.2-1.5,1.8
			c-0.6,0.5-1.3,1-2,1.3l-1,0.5h4.1c0.3,0,0.4,0.1,0.4,0.3v5.4c0,0.1,0,0.1,0,0.2c0,0.1,0,0.1-0.1,0.1c0,0-0.1,0.1-0.1,0.1
			c-0.1,0-0.1,0-0.2,0H120c-0.1,0.7-0.2,1.3-0.3,1.9h5.7c0.2,0,0.3,0.1,0.3,0.3c0,1.4-0.1,2.9-0.3,4.3c-0.1,0.8-0.4,1.6-0.7,2.3
			c-0.3,0.6-1.1,0.8-2.4,0.8c-1.3,0-1.9-0.2-2-0.5c-0.2-0.5-0.4-1-0.8-1.4v-0.2c0.9,0.2,1.8,0.3,2.8,0.3c0.2,0,0.4,0,0.6-0.1
			c0.2-0.1,0.4-0.2,0.5-0.4c0.3-0.5,0.4-1,0.5-1.6c0.1-0.8,0.2-1.6,0.2-2.4h-4.8c-0.1,0.4-0.3,0.8-0.4,1.2c0,0.2-0.1,0.2-0.1,0.2
			c-0.1,0-0.3,0-0.4,0c-0.4-0.1-0.8-0.2-1.2-0.3c-0.2,0-0.2-0.1-0.2-0.2c0.3-0.7,0.5-1.3,0.6-1.6c0.2-0.7,0.4-1.4,0.6-2.1
			c0.2-0.8,0.3-1.7,0.4-2.5c0-0.2,0-0.3,0.2-0.3c0.5,0.2,1,0.4,1.5,0.7h3.7v-3h-4.8c-0.2,0-0.3-0.1-0.3-0.4v-0.4
			c-0.8,0.3-1.7,0.5-2.6,0.6c-0.2,0-0.4,0-0.4-0.2c-0.2-0.2-0.4-0.5-0.5-0.8c0,0-0.1-0.1-0.1-0.1c0,0,0-0.1,0-0.1
			c0-0.1,0-0.1,0.2-0.1c0.7-0.1,1.4-0.2,2.1-0.4c1-0.2,2-0.6,2.9-1c-0.4-0.4-0.8-0.7-1.3-1c-0.6-0.4-1.1-0.7-1.5-0.9
			c0.2-0.4,0.4-0.7,0.7-1c0,0,0-0.1,0.1-0.1c0,0,0.1,0,0.1,0c0.7,0.4,1.4,0.8,2,1.2c0.5,0.4,0.9,0.7,1.2,1c0.4-0.2,0.8-0.5,1.1-0.7
			c0.5-0.5,1-1,1.4-1.6c0.2-0.2,0.3-0.5,0.5-0.7H119c-0.2,0-0.2-0.1-0.2-0.4v-0.8c0-0.2,0-0.3,0.2-0.3L126,10.2z M135.6,24.1
			c0.1,0,0.3,0,0.4,0.1c0.2,0.2,0.4,0.4,0.5,0.7c-0.3,0.9-0.7,1.7-1.1,2.5c-0.4,0.7-0.8,1.3-1.3,1.8c-0.2,0.2-0.4,0.4-0.6,0.6
			c0.4,0.2,0.8,0.4,1.3,0.5c1,0.4,2.1,0.6,3.1,0.8c0.2,0,0.2,0.1,0.2,0.1c0,0.1-0.1,0.2-0.1,0.3c-0.3,0.3-0.6,0.6-0.9,0.9
			c-0.1,0.2-0.2,0.2-0.3,0.2c-0.1,0-0.3-0.1-0.4-0.1l-2-0.6c-0.8-0.3-1.6-0.6-2.4-1c-0.7,0.4-1.4,0.8-2.1,1.1
			c-0.8,0.3-1.6,0.5-2.4,0.7c-0.1,0-0.2,0-0.2,0s-0.1-0.1-0.2-0.2c-0.2-0.2-0.4-0.5-0.5-0.8c-0.1-0.1-0.1-0.2-0.1-0.2
			c0-0.1,0-0.1,0.1-0.1c0.6-0.1,1.2-0.3,1.8-0.4c0.8-0.3,1.5-0.6,2.2-1c-0.2-0.1-0.4-0.3-0.6-0.5c-0.6-0.5-1-1.1-1.4-1.8
			c-0.4-0.7-0.8-1.4-1-2.2H127c-0.2,0-0.2-0.1-0.2-0.4v-0.8c0-0.2,0.1-0.3,0.2-0.3H135.6z M134.3,17c0.3,0,0.4,0.1,0.4,0.3V21
			c0,0.2,0,0.2,0.2,0.3c0.2,0.1,0.4,0.1,0.6,0.1h0.2c0.1,0,0.2,0,0.3-0.1c0.1-0.1,0.1-0.1,0.2-0.2c0.1-0.5,0.2-0.9,0.3-1.4
			c0-0.1,0.1-0.1,0.2-0.1c0.1,0,0.2,0.1,0.3,0.1c0.3,0.1,0.6,0.2,0.8,0.3c0.1,0,0.2,0.1,0.2,0.1c0.1,0.1,0.1,0.2,0.1,0.3
			c-0.2,0.7-0.4,1.5-0.6,2.2c-0.1,0.2-0.3,0.3-0.4,0.4c-0.2,0.1-0.4,0.1-0.6,0.1h-1.7c-0.4,0-0.9,0-1.3-0.2c-0.1,0-0.2-0.1-0.2-0.2
			c-0.1-0.1-0.1-0.2-0.1-0.3v-3.9h-3v0.5c0,0.7-0.1,1.4-0.2,2.1c-0.2,0.5-0.4,1-0.8,1.5c-0.3,0.3-0.6,0.6-1,0.8c-0.1,0-0.2,0-0.2,0
			c-0.1,0-0.1-0.1-0.2-0.1c-0.3-0.3-0.5-0.6-0.7-0.8c0,0-0.1-0.1-0.1-0.1c0-0.1,0-0.1,0-0.2c0.6-0.4,1.1-1,1.4-1.7
			c0.1-0.5,0.2-1.1,0.2-1.6v-1.5c0-0.2,0.1-0.3,0.3-0.3H134.3z M129.2,9.8c0.5,0.8,1,1.5,1.6,2.2l0.3-0.2c0.4-0.2,0.7-0.5,1.1-0.8
			c0.3-0.3,0.6-0.6,0.8-1c0-0.1,0.1-0.1,0.1-0.1l1.3,1c0.1,0.1,0.1,0.1,0.2,0.2c0,0.1,0.1,0.2,0.1,0.2c0,0.2-0.1,0.2-0.3,0.2
			c-0.1,0-0.3,0-0.4,0.1c-0.6,0.6-1.3,1.1-2,1.5c0.5,0.5,1.1,0.9,1.7,1.3c0.1-0.1,0.3-0.2,0.4-0.3c0.4-0.3,0.8-0.6,1.1-0.9
			c0.3-0.3,0.6-0.6,0.8-1c0-0.1,0.1-0.1,0.1-0.1l1.3,1c0.1,0,0.2,0.1,0.2,0.2c0,0.1,0.1,0.2,0.1,0.3c0,0.2-0.1,0.2-0.3,0.2
			c-0.1,0-0.1,0-0.2,0c-0.1,0-0.1,0.1-0.2,0.1c-0.6,0.5-1.2,1-1.8,1.5c0.5,0.3,1,0.5,1.5,0.7c0.8,0.4,1.7,0.7,2.6,0.9
			c0,0.1,0,0.1-0.1,0.2c0,0-0.1,0.1-0.1,0.1c-0.3,0.3-0.5,0.5-0.7,0.9c0,0.1-0.2,0.2-0.4,0.2c-1.2-0.3-2.3-0.7-3.4-1.3
			c-0.9-0.5-1.8-1-2.6-1.6c-0.8-0.6-1.5-1.3-2.2-2c-0.8-0.9-1.5-1.9-2.1-2.9c0-0.1,0.5-0.3,1.4-0.6C129.1,9.8,129.2,9.8,129.2,9.8
			L129.2,9.8z M129.7,26.5c0.3,0.6,0.8,1.2,1.3,1.7c0.3,0.3,0.6,0.6,1,0.8c0.3-0.3,0.6-0.5,0.8-0.8c0.5-0.5,0.9-1.1,1.2-1.8
			c0.1-0.3,0.3-0.5,0.4-0.9h-5C129.4,25.9,129.5,26.2,129.7,26.5L129.7,26.5z"/>
		<path class="st9" d="M145.5,18.1c0,1.9-0.1,3.6-0.2,5h5.2v-2.7H147c-0.2,0-0.3-0.1-0.3-0.4v-0.8c0-0.3,0.1-0.4,0.3-0.4h3.5v-2
			c0-0.2,0.1-0.3,0.4-0.3c1.2,0,1.9,0.1,1.9,0.3s-0.1,0.4-0.3,0.4c-0.2,0-0.3,0.2-0.3,0.5v1.1h5v-2c0-0.2,0.1-0.3,0.4-0.3
			c1.2,0,1.9,0.1,1.9,0.3s-0.1,0.4-0.2,0.4c-0.2,0-0.3,0.2-0.3,0.5v1.1h3.8c0.2,0,0.3,0.1,0.3,0.4V20c0,0.3-0.1,0.4-0.3,0.4H159V23
			h5c0.2,0,0.3,0.1,0.3,0.4v0.8c0,0.3-0.1,0.4-0.3,0.4h-8c0.3,0.7,0.7,1.3,1.1,1.9c0.5,0.7,1,1.3,1.7,1.9c0,0,0,0.1,0.1,0.1
			c0.9-0.7,1.8-1.4,2.7-2.2c0.1-0.1,0.3-0.2,0.5-0.2c0.1,0,0.3,0.1,0.4,0.2c0.9,0.7,1.4,1.1,1.4,1.3c0,0,0,0.1,0,0.1
			c0,0,0,0.1-0.1,0.1c0,0-0.1,0.1-0.1,0.1c0,0-0.1,0-0.1,0l-0.6-0.1c-0.2,0-0.4,0.1-0.6,0.2c-0.6,0.4-1.3,0.9-2.1,1.5
			c0.1,0.1,0.3,0.2,0.5,0.3c0.6,0.4,1.3,0.7,2,0.9c0.4,0.1,0.8,0.2,1.3,0.4c0.1,0,0.2,0,0.2,0.1c0,0.1,0,0.2-0.1,0.2
			c0,0.1-0.1,0.1-0.2,0.2l-0.7,0.9c0,0.1-0.1,0.1-0.2,0.2c-0.1,0-0.2,0.1-0.2,0.1c-1.1-0.3-2.1-0.8-3.1-1.4c-0.7-0.4-1.4-0.9-2-1.5
			c-0.7-0.6-1.3-1.3-1.8-2c-0.6-1-1.2-2-1.7-3.1h-3.2v5.2c1.5-0.3,3-0.5,4.4-0.8h0.2c0,0,0.1,0,0.1,0c0,0,0,0,0.1,0c0,0,0,0,0,0.1
			c0,0,0,0.1,0,0.1c0,0.5,0,0.9-0.1,1.4c-2.7,0.5-5.5,1-8.3,1.4c-0.3,0.5-0.4,0.7-0.6,0.7c-0.2,0-0.5-0.7-1-2.1
			c1-0.1,2.1-0.3,3.5-0.5v-5.5H145c-0.1,0.3-0.1,0.5-0.1,0.7c-0.2,1.5-0.6,3-1.2,4.5c-0.3,0.9-0.8,1.8-1.3,2.6c-0.1,0-0.2,0-0.3-0.1
			c-0.3-0.3-0.6-0.5-0.9-0.7c-0.1-0.1-0.1-0.2-0.1-0.4c0.6-1,1.1-2,1.4-3.1c0.4-1.4,0.7-2.9,0.9-4.3c0.2-1.6,0.3-3.5,0.3-5.7v-7.5
			c0-0.3,0.1-0.4,0.4-0.4h18.5c0.3,0,0.4,0.1,0.4,0.3v4.8c0,0.3-0.1,0.4-0.4,0.4h-17.1V18.1z M145.5,14.2h15.7v-2.4h-15.7V14.2z
			 M157.2,23.1v-2.7h-5v2.7L157.2,23.1z"/>
		<path class="st9" d="M180.6,19.7c0.2,0,0.3,0.1,0.3,0.4v0.8c0,0.3-0.1,0.4-0.3,0.4h-12.9c-0.2,0-0.3-0.1-0.3-0.4v-0.8
			c0-0.3,0.1-0.4,0.3-0.4L180.6,19.7z M175.7,9.7c0,0.3-0.1,0.4-0.3,0.4c-0.2,0-0.3,0.2-0.3,0.5v2h4.9c0.2,0,0.3,0.1,0.3,0.4v0.8
			c0,0.3-0.1,0.4-0.3,0.4h-11.8c-0.2,0-0.3-0.1-0.3-0.4V13c0-0.3,0.1-0.4,0.3-0.4h5.1v-3c0-0.2,0.1-0.3,0.4-0.3
			C175,9.4,175.7,9.5,175.7,9.7L175.7,9.7z M178.8,23.3c0.3,0,0.4,0.1,0.4,0.3v8.5c0,0.2-0.1,0.3-0.4,0.3h-1c-0.3,0-0.4-0.1-0.4-0.3
			v-1.2h-6.7v1.2c0,0.2-0.1,0.3-0.4,0.3h-1c-0.3,0-0.4-0.1-0.4-0.3v-8.4c0-0.1,0-0.1,0-0.2c0-0.1,0-0.1,0.1-0.1s0.1-0.1,0.1-0.1
			c0.1,0,0.1,0,0.2,0L178.8,23.3z M171.9,17c0.3,0.7,0.5,1.4,0.7,2.1c-0.5,0.3-1.1,0.4-1.7,0.5c-0.1-0.6-0.3-1.2-0.4-1.7
			c-0.3-0.8-0.6-1.6-0.9-2.3c0-0.1,0.5-0.4,1.4-0.9C171.3,15.4,171.6,16.2,171.9,17L171.9,17z M177.4,29.4v-4.5h-6.7v4.5L177.4,29.4
			z M178.9,15c0.2,0.1,0.4,0.3,0.4,0.4c0,0.1,0,0.1-0.1,0.2c0,0.1-0.1,0.1-0.1,0.1c0,0-0.1,0-0.1,0c0,0-0.1,0-0.1,0.1
			c0,0-0.1,0.1-0.1,0.1c0,0,0,0.1,0,0.1c-0.4,1.2-0.9,2.3-1.5,3.3c-0.1,0.2-0.2,0.3-0.3,0.3c-0.1,0-0.3-0.1-0.4-0.2l-1-0.4
			c-0.2-0.1-0.2-0.1-0.2-0.1c0-0.1,0-0.1,0.1-0.2c0.4-0.6,0.7-1.2,1-1.9c0.3-0.7,0.6-1.4,0.7-2.1c0.1-0.2,0.1-0.3,0.2-0.3L178.9,15z
			 M183.7,32.2c0,0.2-0.2,0.3-0.4,0.3h-1c-0.3,0-0.4-0.1-0.4-0.3V10.7c0-0.2,0.1-0.3,0.4-0.3h6.9c0.2,0,0.4,0,0.6,0.1
			c0.4,0.3,0.7,0.6,0.7,0.7l-3.6,7.1c-0.1,0.1-0.1,0.2-0.1,0.4c0,0.1,0,0.1,0.1,0.2s0.1,0.1,0.1,0.2c0.9,0.9,1.6,2,2.1,3.2
			c0.5,1.2,0.8,2.5,0.8,3.9c0,0.8-0.2,1.6-0.5,2.3c-0.3,0.7-0.9,1.2-1.6,1.4c-0.7,0.4-1.5,0.5-2.3,0.4c-0.5,0-0.7-0.1-0.7-0.4
			c-0.1-0.5-0.2-0.9-0.4-1.4c0-0.2,0.1-0.3,0.3-0.3l1.2,0.2c0.3,0,0.6,0,0.9-0.1c0.3-0.1,0.5-0.3,0.7-0.6c0.4-0.4,0.5-1,0.5-1.6
			c0-1.1-0.3-2.1-0.7-3.1c-0.7-1.4-1.5-2.6-2.6-3.7c-0.1,0-0.1-0.1-0.1-0.1c0-0.1-0.1-0.1-0.1-0.2c0-0.1,0-0.3,0.1-0.4l3.6-6.7h-4.8
			L183.7,32.2z"/>
		<path class="st9" d="M199.8,14.6c0.4,0.8,0.6,1.2,0.6,1.3c0,0.1-0.1,0.1-0.2,0.2c-0.9,0.8-1.9,1.5-2.9,2.1
			c-0.5,0.3-1.1,0.7-1.8,1.1c-0.1,0-0.1,0.1-0.2,0.2c0,0.1-0.1,0.1,0,0.2c0,0.2-0.1,0.3-0.2,0.3c-0.5-0.4-1-0.9-1.4-1.4
			c0,0-0.1-0.1-0.1-0.1c0,0,0-0.1,0-0.2c0-0.1,0.1-0.1,0.2-0.2c0.6-0.2,1.2-0.5,1.8-0.8c0.8-0.4,1.6-0.9,2.4-1.5
			c0.7-0.5,1.3-0.9,1.8-1.3c0,0,0.1-0.1,0.2-0.1C199.7,14.4,199.8,14.5,199.8,14.6z M211.8,18.5c0.3,0,0.4,0.1,0.4,0.3v10.4
			c0,0.2-0.2,0.3-0.4,0.3h-2c0.7,0.3,1.4,0.6,2.2,0.9c1,0.3,2,0.5,3,0.7c0.2,0.1,0.3,0.1,0.3,0.2c0,0.1-0.4,0.6-1.1,1.4h-0.4
			c-2-0.5-3.9-1.2-5.7-2c-0.1,0-0.1-0.1-0.2-0.1c0-0.2,0.3-0.5,0.9-1H202c0.5,0.5,0.8,0.8,0.8,0.9c0,0.1-0.1,0.2-0.3,0.2
			c-0.3,0-0.5,0-0.5,0.1c-2.3,0.9-4.7,1.6-7.1,2.2c-0.1,0-0.2,0-0.2,0c-0.1,0-0.1-0.1-0.1-0.2c-0.2-0.2-0.3-0.5-0.6-0.6
			c-0.1-0.1-0.1-0.2-0.2-0.3c0-0.1,0.1-0.2,0.3-0.2c1.3-0.3,2.4-0.6,3.3-0.9c0.9-0.3,1.9-0.7,2.8-1.1h-2.1c-0.3,0-0.4-0.1-0.4-0.3
			V18.8c0-0.2,0.1-0.3,0.4-0.3H211.8z M199.4,10.4c0,0,0.1,0,0.1,0c0,0,0.1,0,0.1,0.1c0,0,0,0.1,0.1,0.1c0,0,0,0.1,0,0.1v1
			c0,0.3-0.1,0.4-0.3,0.4h-5.1c-0.2,0-0.3-0.1-0.3-0.4v-1c0-0.2,0.1-0.3,0.3-0.3H199.4z M210.4,21.7V20h-10.9v1.8L210.4,21.7z
			 M210.4,24.7v-1.5h-10.9v1.6L210.4,24.7z M210.4,26.2h-10.9v1.7h10.9V26.2z M206.4,10.1c0,0.2-0.1,0.2-0.2,0.2
			c-0.1,0-0.2,0-0.3,0.1c-0.1,0-0.2,0.1-0.2,0.2c-0.1,0.2-0.2,0.4-0.3,0.5h8.8c0.2,0,0.3,0,0.5,0.1c0.4,0.3,0.5,0.5,0.5,0.6
			l-2.5,3.4c0,0-0.1,0.1-0.1,0.1c0,0-0.1,0-0.1,0c-0.9-0.3-1.4-0.5-1.4-0.7l1.5-1.9h-3.5c0.1,0.2,0.1,0.5,0.3,0.7
			c0.2,0.5,0.5,0.9,0.8,1.2c0.4,0.5,0.8,0.9,1.3,1.2c0.4,0.3,0.8,0.5,1.2,0.7c0.7,0.3,1.4,0.6,2.1,0.8c0.4,0.1,0.8,0.2,1.3,0.3
			c0.1,0.1,0.2,0.1,0.2,0.1c0,0-0.1,0.3-0.1,0.3c-0.3,0.3-0.6,0.7-0.8,1c-0.1,0.1-0.1,0.1-0.2,0.1c-0.1,0-0.2,0.1-0.2,0.1
			c-0.8-0.1-1.6-0.4-2.4-0.8c-0.7-0.3-1.3-0.7-1.9-1.2c-0.5-0.4-0.9-0.8-1.4-1.2c-0.4-0.4-0.7-0.9-1-1.5c0,0-0.1-0.1-0.1-0.2
			c-0.1,0.2-0.2,0.3-0.3,0.5c-0.3,0.4-0.6,0.9-1,1.2c-0.4,0.4-0.8,0.8-1.3,1.1c-0.4,0.3-0.9,0.6-1.4,0.8c-0.4,0.2-0.9,0.3-1.4,0.5
			c-0.1,0-0.1,0-0.2,0c-0.1,0-0.1-0.1-0.1-0.1c-0.2-0.4-0.5-0.7-0.8-1c-0.1-0.1-0.1-0.2-0.2-0.3c0,0,0-0.1,0.1-0.1
			c0.5-0.1,1-0.2,1.4-0.4c0.4-0.1,0.8-0.3,1.1-0.5c0.5-0.3,0.9-0.6,1.3-0.9c0.4-0.3,0.7-0.6,1-1c0.2-0.3,0.4-0.6,0.6-1
			c0.1-0.1,0.1-0.2,0.2-0.3h-2.8c-0.2,0.2-0.3,0.4-0.5,0.6c-0.5,0.5-1.1,1.1-1.7,1.5c-0.1,0-0.2,0-0.2,0c-0.1,0-0.1-0.1-0.2-0.2
			c-0.2-0.2-0.4-0.3-0.6-0.5c0,0-0.1-0.1-0.1-0.1c0,0,0-0.1,0-0.1c0.4-0.4,0.8-0.7,1.2-1.1c0.5-0.5,1-1.1,1.4-1.7
			c0.3-0.5,0.6-1.1,0.8-1.6c0,0,0-0.1,0-0.1c0,0,0,0,0.1,0C205.3,9.4,205.9,9.7,206.4,10.1L206.4,10.1z"/>
		<path class="st9" d="M224.5,21.2c0.3,0,0.4,0.1,0.4,0.3v6.5c0,0.5,0.1,0.9,0.3,1.3c0.1,0.3,0.3,0.6,0.6,0.7
			c0.4,0.2,0.9,0.4,1.3,0.5c0.7,0.1,1.5,0.2,2.2,0.2h5.4c2.5,0,5-0.3,7.4-0.7c0.1-0.1,0.2-0.1,0.4-0.1c0.1,0,0.2,0.1,0.2,0.1
			c-0.2,0.7-0.4,1.3-0.5,2c0,0.3-0.2,0.4-0.4,0.4h-12.4c-0.6,0-1.2,0-1.8-0.2c-0.6-0.1-1.1-0.2-1.7-0.4c-0.5-0.2-0.9-0.4-1.3-0.7
			c-0.4-0.4-0.7-0.8-0.9-1.3l-0.1-0.1c-0.1,0-0.2,0-0.2,0.1c-1.7,1.3-2.6,2.2-2.8,2.6c0,0,0,0.1-0.1,0.1c0,0-0.1,0-0.1,0.1
			c-0.1,0-0.4-0.4-1-1.3c-0.1-0.2-0.1-0.3-0.1-0.5c1.3-0.7,2.5-1.4,3.6-2.3c0.1-0.1,0.1-0.2,0.1-0.5v-5.2h-3.2
			c-0.2,0-0.3-0.1-0.3-0.4v-0.8c0-0.3,0.1-0.4,0.3-0.4H224.5z M223.2,16.6c0.7,0.5,1.3,1,1.8,1.4c0,0.1-0.1,0.1-0.1,0.2
			c-0.5,0.7-0.8,1.1-0.8,1.1c-0.8-0.6-1.6-1.2-2.4-1.8c-0.5-0.4-1.1-0.7-1.7-0.9c0.2-0.4,0.5-0.8,0.8-1.1c0.1-0.1,0.2-0.2,0.2-0.2
			C221.7,15.7,222.4,16.1,223.2,16.6z M223.6,11.2c0.7,0.5,1.2,0.9,1.7,1.2c0,0.1-0.1,0.1-0.1,0.2l-0.8,1.1
			c-0.7-0.6-1.5-1.1-2.3-1.6c-0.5-0.3-1.1-0.6-1.6-0.8c0.2-0.4,0.5-0.8,0.8-1.1c0.1-0.1,0.2-0.2,0.2-0.2
			C222.2,10.4,222.9,10.8,223.6,11.2z M239.3,10.2c0.2,0,0.3,0,0.5,0.1c0.4,0.3,0.5,0.5,0.5,0.6l-5,3.4c0.4,0.2,0.8,0.4,1.1,0.5
			c0,0.1,0,0.1-0.1,0.2c-0.1,0.1-0.2,0.3-0.3,0.4h4.4c0.1,0,0.1,0,0.2,0c0.1,0,0.1,0.1,0.2,0.1c0,0,0.1,0.1,0.1,0.2
			c0,0.1,0,0.1,0,0.2v12c0,0.5-0.3,0.9-1,1.1c-0.8,0.3-1.6,0.4-2.4,0.5c-0.2,0-0.3-0.1-0.3-0.3c-0.1-0.5-0.3-1-0.6-1.5
			c0-0.1,0.1-0.1,0.2-0.1c0.7,0.1,1.4,0,2-0.2c0.1,0,0.2-0.1,0.3-0.2c0.1-0.1,0.1-0.2,0.1-0.3v-1.9h-4.2v4.3c0,0.2-0.2,0.3-0.4,0.3
			h-1c-0.3,0-0.4-0.1-0.4-0.3v-4.3h-3.9v4c0,0.2-0.2,0.3-0.4,0.3h-1c-0.2,0-0.3-0.1-0.3-0.3V15.9c0-0.3,0.1-0.4,0.3-0.4h6.5
			c-0.7-0.3-1.4-0.6-2.1-0.9c-1-0.4-1.8-0.6-2.4-0.8c0.2-0.4,0.4-0.7,0.7-1c0,0,0-0.1,0.1-0.1c0,0,0.1,0,0.1,0c1.2,0.4,2.3,0.7,3,1
			l3-2h-8.9c-0.2,0-0.3-0.1-0.3-0.4v-0.8c0,0,0-0.1,0-0.1c0,0,0-0.1,0.1-0.1c0,0,0.1-0.1,0.1-0.1c0,0,0.1,0,0.1,0L239.3,10.2z
			 M233.1,19.5v-2.5h-3.9v2.5H233.1z M233.1,23.6V21h-3.9v2.6L233.1,23.6z M234.9,19.5h4.2v-2.5h-4.2V19.5z M234.9,23.6h4.2V21h-4.2
			V23.6z"/>
		<path class="st9" d="M258.4,16.5c0,0.1,0.1,0.2,0.1,0.3c0,0.2-0.1,0.3-0.3,0.3c-0.5,0-0.7,0.1-0.8,0.3c-0.5,0.8-1,1.7-1.6,2.6
			h11.9c0.2,0,0.3,0.1,0.3,0.3v1c0,0.3-0.1,0.4-0.3,0.4h-5c-0.3,0.8-0.6,1.7-1.1,2.5c-0.5,1-1.1,2-1.8,2.8c-0.2,0.2-0.3,0.3-0.4,0.5
			c0.3,0.1,0.5,0.3,0.8,0.4c2.6,1.3,4.8,2.5,6.6,3.6l-0.1,0.2l-0.9,1.2c-2.5-1.5-5.1-2.9-7.8-4.1c-0.3,0.2-0.5,0.3-0.7,0.5
			c-1,0.7-2.2,1.3-3.3,1.8c-1.9,0.8-3.8,1.4-5.7,1.9c-0.2,0-0.3-0.1-0.3-0.2c-0.3-0.4-0.5-0.8-0.8-1.2c-0.1,0-0.1-0.1-0.1-0.1
			c0-0.1-0.1-0.1-0.1-0.2c0.6,0,1.2-0.2,1.8-0.3c1-0.2,2.1-0.5,3.1-0.8c1.3-0.5,2.6-1,3.8-1.7c0.2-0.2,0.5-0.3,0.7-0.5
			c-1.9-0.8-3.6-1.4-4.9-1.9l-1.1,1.4c-0.1,0-0.1,0-0.2,0c-0.1,0-0.1-0.1-0.2-0.1c-0.3-0.1-0.7-0.3-1-0.4c-0.1,0-0.1-0.1-0.1-0.3
			c1.5-1.8,2.7-3.4,3.5-4.6c0.1-0.1,0.1-0.2,0.2-0.3h-6.7c-0.2,0-0.3-0.1-0.3-0.4v-1c0-0.2,0.1-0.3,0.3-0.3h7.8
			c0.6-0.9,1.1-1.8,1.6-2.7c0.3-0.6,0.6-1.2,0.9-1.9c0-0.1,0.1-0.2,0.2-0.2L258.4,16.5z M258.4,10c0,0.2-0.1,0.4-0.3,0.4
			c-0.2,0-0.3,0.2-0.3,0.5v1.3h8.7c0.3,0,0.4,0.1,0.4,0.3v4.9c0,0.2-0.2,0.3-0.4,0.3h-1c-0.3,0-0.4-0.1-0.4-0.3v-3.7H248v3.7
			c0,0.2-0.2,0.3-0.4,0.3h-1c-0.3,0-0.4-0.1-0.4-0.3v-4.8c0-0.1,0-0.1,0-0.2c0-0.1,0-0.1,0.1-0.1c0,0,0.1-0.1,0.1-0.1s0.1,0,0.2,0
			h9.4v-2.1c0-0.2,0.1-0.3,0.4-0.3C257.7,9.7,258.4,9.8,258.4,10L258.4,10z M254.7,21.6L254.7,21.6c-0.6,0.9-1.3,1.9-2.2,3
			c2,0.7,3.8,1.4,5.3,2c0,0,0.1,0,0.1-0.1c0.7-0.7,1.4-1.6,1.9-2.5c0.5-0.8,0.9-1.6,1.2-2.5L254.7,21.6z"/>
		<path class="st9" d="M277.4,11.9c-0.2,0-0.3-0.1-0.3-0.4v-1c0-0.2,0.1-0.3,0.3-0.3h5.7c0.1,0,0.2,0,0.3,0.1c0.1,0,0.2,0.1,0.3,0.2
			c0.8,1.8,1.9,3.4,3.4,4.7c1.4,1.4,3.7,2.4,6.8,3c0.4,0.1,0.5,0.2,0.5,0.3s-0.1,0.2-0.2,0.3c-0.4,0.3-0.6,0.6-0.9,0.8
			c0,0.1-0.1,0.2-0.2,0.2S293.1,20,293,20c-0.8-0.2-1.7-0.5-2.5-0.8v0.7c0,0.3-0.1,0.4-0.3,0.4h-6.6v3.9h6.4c0,0,0.1,0,0.1,0
			c0,0,0.1,0,0.1,0.1s0,0.1,0.1,0.1c0,0,0,0.1,0,0.1v1c0,0.3-0.1,0.4-0.3,0.4h-6.4v4.4h9.3c0,0,0.1,0,0.1,0c0,0,0.1,0,0.1,0.1
			c0,0,0.1,0.1,0.1,0.1c0,0,0,0.1,0,0.1v1c0,0.3-0.1,0.4-0.3,0.4h-20.7c-0.2,0-0.3-0.1-0.3-0.4v-1c0-0.2,0.1-0.3,0.3-0.3h9.5v-4.4
			h-6.6c-0.2,0-0.3-0.1-0.3-0.4v-1c0,0,0-0.1,0-0.1c0,0,0-0.1,0.1-0.1c0,0,0.1,0,0.1-0.1s0.1,0,0.1,0h6.6v-3.9h-6.9
			c-0.2,0-0.3-0.1-0.3-0.4v-0.6c-0.7,0.4-1.5,0.8-2.3,1c-0.1,0-0.2-0.1-0.3-0.3c-0.3-0.3-0.5-0.6-0.8-0.9c-0.2-0.1-0.2-0.2-0.2-0.3
			c1.4-0.5,2.8-1.1,4.2-1.8c1.2-0.7,2.4-1.6,3.5-2.5c0.8-0.8,1.5-1.6,2.1-2.5H277.4z M289.2,18.6c-1.2-0.5-2.4-1.2-3.4-2.1
			c-1.3-1.3-2.4-2.7-3.2-4.4c-0.5,0.8-1.1,1.6-1.8,2.3c-0.8,0.9-1.6,1.8-2.6,2.6c-0.7,0.6-1.5,1.2-2.4,1.7L289.2,18.6z"/>
		<path class="st9" d="M307,17.4v-1.2c0-0.2,0.1-0.3,0.4-0.3c1.2,0,1.9,0.1,1.9,0.3c0,0.2-0.1,0.4-0.3,0.4c-0.2,0-0.3,0.2-0.3,0.5
			v0.3h4.1c0.1,0,0.2,0.1,0.2,0.3v0.8c0.2-0.2,0.4-0.3,0.6-0.5c0.7-0.6,1.4-1.3,1.9-2c0.1-0.2,0.2-0.2,0.3-0.2
			c0.1,0,0.3,0.1,0.4,0.1c0.5,0.4,1,0.8,1.4,1.3c0,0,0,0.1,0,0.1c0,0,0,0.1-0.1,0.1c0,0-0.1,0.1-0.1,0.1s-0.1,0-0.1,0l-0.4-0.1
			c-0.1,0-0.2,0-0.3,0.1c-0.1,0.1-0.2,0.1-0.3,0.2c-1.6,1.4-2.8,2.4-3.7,3.2h6.6c0.1,0,0.2,0.1,0.2,0.3v0.8c0,0.3-0.1,0.4-0.2,0.4
			h-8.7c-0.6,0.4-1.1,0.7-1.6,1c-0.6,0.3-1,0.5-1.5,0.8h9.3c0.3,0,0.4,0.1,0.4,0.3v8.1c0,0.2-0.2,0.3-0.4,0.3h-1
			c-0.3,0-0.4-0.1-0.4-0.3v-0.5h-10.1v0.5c0,0.2-0.2,0.3-0.4,0.3h-1c-0.3,0-0.4-0.1-0.4-0.3v-6.7c-1.5,0.5-3,1-4.8,1.4
			c-0.3,0-0.5-0.1-0.5-0.2c-0.2-0.4-0.5-0.7-0.9-0.9c0,0-0.1-0.1-0.1-0.1c0-0.1,0-0.1,0-0.2c0-0.1,0.1-0.1,0.3-0.1
			c1.3-0.2,2.1-0.3,2.6-0.4c1.1-0.2,2.2-0.5,3.2-0.9c1.3-0.5,2.6-1,3.9-1.7l0.7-0.4h-9.6c-0.1,0-0.2-0.1-0.2-0.4v-0.8
			c0-0.2,0-0.3,0.2-0.3h8.8v-2h-5.6c-0.1,0-0.2-0.1-0.2-0.4v-0.8c0-0.2,0.1-0.3,0.2-0.3L307,17.4z M318.4,10.1
			c0.3,0,0.4,0.1,0.4,0.3v4.7c0,0.2-0.2,0.3-0.4,0.3H299c-0.3,0-0.4-0.1-0.4-0.3v-4.7c0-0.2,0.1-0.3,0.4-0.3H318.4z M304.6,11.6
			h-4.2V14h4.2V11.6z M315.3,27.3v-1.7h-10.1v1.7H315.3z M315.3,30.4v-1.7h-10.1v1.7H315.3z M310.9,11.6h-4.5V14h4.5V11.6z
			 M310.7,20.4c0.7-0.5,1.4-1,1.9-1.5h-3.9v2h1.3C310.3,20.7,310.5,20.6,310.7,20.4z M317.1,11.6h-4.4V14h4.4V11.6z"/>
		<path class="st9" d="M62.6,53.1l3.9-10.2H68l4.2,10.2h-1.5L69.4,50h-4.2l-1.1,3.1H62.6z M65.6,48.9H69L68,46
			c-0.3-0.9-0.6-1.6-0.7-2.1c-0.1,0.7-0.3,1.3-0.6,2L65.6,48.9z"/>
		<path class="st9" d="M78.1,53.1v-0.9c-0.2,0.4-0.5,0.6-0.9,0.8c-0.4,0.2-0.8,0.3-1.2,0.3c-0.6,0-1.1-0.2-1.6-0.5
			c-0.5-0.3-0.9-0.8-1.1-1.4c-0.3-0.6-0.4-1.3-0.4-2c0-0.7,0.1-1.4,0.4-2c0.2-0.6,0.6-1,1.1-1.4c0.5-0.3,1.1-0.5,1.7-0.5
			c0.4,0,0.8,0.1,1.2,0.3c0.3,0.2,0.6,0.4,0.9,0.7v-3.7h1.2v10.2H78.1z M74.1,49.4c-0.1,0.8,0.1,1.5,0.6,2.1
			c0.2,0.2,0.4,0.4,0.6,0.5c0.2,0.1,0.5,0.2,0.8,0.2c0.3,0,0.5-0.1,0.8-0.2c0.2-0.1,0.4-0.3,0.6-0.5c0.4-0.6,0.6-1.3,0.6-2
			c0.1-0.8-0.1-1.6-0.6-2.3c-0.2-0.2-0.4-0.4-0.6-0.5c-0.2-0.1-0.5-0.2-0.8-0.2c-0.3,0-0.5,0.1-0.8,0.2c-0.2,0.1-0.5,0.3-0.6,0.5
			C74.2,47.9,74,48.6,74.1,49.4z"/>
		<path class="st9" d="M81.3,53.1v-7.4h1.2v1c0.2-0.4,0.6-0.7,0.9-0.9c0.4-0.2,0.9-0.3,1.3-0.3c0.5,0,0.9,0.1,1.3,0.3
			c0.4,0.2,0.6,0.6,0.7,1c0.2-0.4,0.6-0.7,1-1c0.4-0.2,0.9-0.3,1.3-0.3c0.3,0,0.6,0,0.9,0.1c0.3,0.1,0.6,0.3,0.8,0.5
			c0.4,0.5,0.6,1.2,0.6,1.9v5.1h-1.3v-4.7c0-0.3,0-0.7-0.1-1c-0.1-0.2-0.2-0.4-0.4-0.5c-0.2-0.1-0.5-0.2-0.8-0.2
			c-0.2,0-0.5,0-0.7,0.1c-0.2,0.1-0.4,0.2-0.6,0.4c-0.4,0.5-0.6,1.1-0.5,1.7v4.3h-1.3v-4.9c0-0.4-0.1-0.9-0.3-1.2
			c-0.1-0.1-0.3-0.3-0.5-0.3s-0.4-0.1-0.6-0.1c-0.4,0-0.7,0.1-1,0.3c-0.3,0.2-0.5,0.5-0.6,0.8c-0.2,0.5-0.2,1-0.2,1.6v3.8H81.3z"/>
		<path class="st9" d="M93.4,44.3v-1.5h1.3v1.5H93.4z M93.4,53.1v-7.4h1.3v7.4H93.4z"/>
		<path class="st9" d="M96.7,53.1v-7.4h1.1v1.1c0.3-0.4,0.6-0.7,1-0.9c0.4-0.2,0.9-0.3,1.3-0.3c0.4,0,0.8,0.1,1.2,0.2
			c0.3,0.1,0.6,0.4,0.8,0.6c0.2,0.3,0.3,0.6,0.4,0.9c0.1,0.4,0.1,0.8,0.1,1.2v4.6h-1.3v-4.5c0-0.4,0-0.8-0.2-1.1
			c-0.1-0.3-0.3-0.5-0.5-0.6c-0.3-0.2-0.6-0.2-0.9-0.2c-0.5,0-1,0.2-1.4,0.5c-0.2,0.3-0.4,0.6-0.5,0.9s-0.1,0.7-0.1,1v4L96.7,53.1z"
			/>
		<path class="st9" d="M104.8,44.3v-1.5h1.3v1.5H104.8z M104.8,53.1v-7.4h1.3v7.4H104.8z"/>
		<path class="st9" d="M107.6,50.9l1.2-0.2c0,0.4,0.3,0.9,0.6,1.1c0.4,0.3,0.9,0.4,1.3,0.4c0.5,0,0.9-0.1,1.3-0.4
			c0.1-0.1,0.2-0.2,0.3-0.4c0.1-0.1,0.1-0.3,0.1-0.5c0-0.1,0-0.3-0.1-0.4c-0.1-0.1-0.2-0.2-0.3-0.3c-0.4-0.2-0.8-0.3-1.3-0.4
			c-0.7-0.1-1.3-0.3-1.9-0.6c-0.3-0.2-0.6-0.4-0.8-0.7c-0.2-0.3-0.2-0.6-0.2-1c0-0.3,0.1-0.7,0.2-1c0.2-0.3,0.4-0.5,0.6-0.7
			c0.2-0.2,0.5-0.3,0.8-0.4c0.4-0.1,0.7-0.2,1.1-0.2c0.5,0,1,0.1,1.5,0.3c0.4,0.1,0.7,0.4,1,0.7c0.2,0.3,0.4,0.7,0.4,1.2l-1.2,0.2
			c0-0.3-0.2-0.7-0.5-0.9c-0.3-0.2-0.7-0.3-1.1-0.3c-0.4,0-0.9,0.1-1.2,0.3c-0.1,0.1-0.2,0.2-0.3,0.3c-0.1,0.1-0.1,0.2-0.1,0.4
			c0,0.2,0.1,0.3,0.2,0.4c0.1,0.2,0.3,0.3,0.5,0.3c0.1,0,0.5,0.2,1.1,0.3c0.6,0.2,1.3,0.4,1.9,0.6c0.3,0.1,0.6,0.4,0.8,0.7
			c0.2,0.3,0.3,0.7,0.3,1.1c0,0.4-0.1,0.8-0.4,1.2c-0.2,0.4-0.6,0.7-1,0.9c-0.5,0.2-1,0.3-1.6,0.3c-0.8,0.1-1.6-0.2-2.2-0.6
			C108.2,52.2,107.8,51.6,107.6,50.9z"/>
		<path class="st9" d="M118.2,51.9l0.2,1.1c-0.3,0.1-0.6,0.1-0.9,0.1c-0.4,0-0.7-0.1-1.1-0.2c-0.2-0.1-0.4-0.3-0.5-0.6
			c-0.1-0.5-0.2-1-0.2-1.5v-4.3h-0.9v-1h0.9v-1.8l1.2-0.8v2.6h1.3v1h-1.3V51c0,0.2,0,0.5,0.1,0.7c0,0.1,0.1,0.2,0.2,0.2
			c0.1,0.1,0.3,0.1,0.4,0.1C117.8,52,118,52,118.2,51.9z"/>
		<path class="st9" d="M119.5,53.1v-7.4h1.1v1.1c0.2-0.4,0.5-0.7,0.8-1c0.2-0.2,0.5-0.3,0.8-0.3c0.5,0,0.9,0.1,1.3,0.4l-0.4,1.2
			c-0.3-0.2-0.6-0.3-0.9-0.3c-0.3,0-0.5,0.1-0.7,0.3c-0.2,0.2-0.4,0.4-0.5,0.7c-0.1,0.5-0.2,1-0.2,1.5v3.9L119.5,53.1z"/>
		<path class="st9" d="M129.3,52.2c-0.4,0.4-0.8,0.6-1.3,0.8c-0.4,0.2-0.9,0.2-1.4,0.2c-0.7,0-1.4-0.2-1.9-0.6
			c-0.3-0.3-0.6-0.7-0.6-1.2c-0.1-0.5,0-0.9,0.2-1.3c0.2-0.3,0.4-0.5,0.6-0.7c0.3-0.2,0.6-0.3,0.9-0.4c0.4-0.1,0.7-0.1,1.1-0.2
			c0.8-0.1,1.5-0.2,2.2-0.4V48c0-0.2,0-0.4-0.1-0.6c-0.1-0.2-0.2-0.4-0.3-0.5c-0.4-0.3-0.9-0.5-1.4-0.4c-0.5,0-0.9,0.1-1.3,0.3
			c-0.3,0.3-0.6,0.7-0.6,1.1l-1.2-0.2c0.1-0.5,0.3-0.9,0.6-1.3c0.3-0.3,0.7-0.6,1.1-0.7c0.5-0.2,1.1-0.3,1.7-0.3
			c0.5,0,1,0.1,1.5,0.2c0.3,0.1,0.6,0.3,0.9,0.6c0.2,0.3,0.3,0.5,0.4,0.9c0.1,0.4,0.1,0.8,0.1,1.2V50c0,0.7,0,1.5,0.1,2.2
			c0.1,0.3,0.2,0.6,0.3,0.9h-1.3C129.4,52.8,129.3,52.5,129.3,52.2z M129.2,49.3c-0.7,0.2-1.3,0.4-2,0.5c-0.4,0-0.7,0.1-1.1,0.3
			c-0.2,0.1-0.4,0.2-0.5,0.4c-0.1,0.2-0.2,0.4-0.2,0.6c0,0.2,0,0.3,0.1,0.5c0.1,0.1,0.2,0.3,0.3,0.4c0.3,0.2,0.7,0.4,1.1,0.3
			c0.4,0,0.9-0.1,1.3-0.3c0.4-0.2,0.7-0.5,0.8-0.9c0.2-0.4,0.2-0.8,0.2-1.3L129.2,49.3z"/>
		<path class="st9" d="M135.3,51.9l0.2,1.1c-0.3,0.1-0.6,0.1-0.9,0.1c-0.4,0-0.7-0.1-1.1-0.2c-0.2-0.1-0.4-0.3-0.5-0.6
			c-0.1-0.5-0.2-1-0.2-1.5v-4.3h-0.9v-1h0.9v-1.8l1.3-0.8v2.6h1.3v1H134V51c0,0.2,0,0.5,0.1,0.7c0,0.1,0.1,0.2,0.2,0.2
			c0.1,0.1,0.3,0.1,0.4,0.1C134.9,52,135.1,52,135.3,51.9z"/>
		<path class="st9" d="M136.6,44.3v-1.5h1.3v1.5H136.6z M136.6,53.1v-7.4h1.3v7.4H136.6z"/>
		<path class="st9" d="M139.5,49.4c0-0.6,0-1.1,0.2-1.6c0.2-0.5,0.5-1,0.9-1.4c0.7-0.5,1.5-0.8,2.3-0.8c0.5,0,0.9,0.1,1.4,0.2
			c0.4,0.2,0.8,0.4,1.1,0.8c0.3,0.4,0.6,0.8,0.8,1.3c0.2,0.5,0.2,1,0.2,1.5c0,0.8-0.1,1.6-0.4,2.3c-0.3,0.5-0.7,1-1.2,1.3
			c-0.5,0.3-1.2,0.5-1.8,0.5c-0.5,0-0.9-0.1-1.4-0.2c-0.4-0.2-0.8-0.4-1.1-0.8c-0.3-0.4-0.6-0.9-0.8-1.4
			C139.5,50.4,139.4,49.9,139.5,49.4z M140.8,49.4c-0.1,0.8,0.2,1.5,0.6,2.1c0.2,0.2,0.4,0.4,0.7,0.5c0.3,0.1,0.6,0.2,0.9,0.2
			s0.6-0.1,0.9-0.2c0.3-0.1,0.5-0.3,0.7-0.5c0.5-0.6,0.7-1.4,0.6-2.2c0.1-0.7-0.2-1.5-0.6-2.1c-0.2-0.2-0.4-0.4-0.7-0.5
			c-0.3-0.1-0.6-0.2-0.9-0.2c-0.3,0-0.6,0.1-0.9,0.2c-0.3,0.1-0.5,0.3-0.7,0.5C140.9,47.9,140.7,48.6,140.8,49.4z"/>
		<path class="st9" d="M148,53.1v-7.4h1.1v1.1c0.3-0.4,0.6-0.7,1-0.9c0.4-0.2,0.9-0.3,1.3-0.3c0.4,0,0.8,0.1,1.2,0.2
			c0.3,0.1,0.6,0.3,0.8,0.6c0.2,0.3,0.3,0.6,0.4,0.9c0.1,0.4,0.1,0.8,0.1,1.2v4.6h-1.3v-4.5c0-0.4,0-0.8-0.2-1.1
			c-0.1-0.3-0.3-0.5-0.5-0.6c-0.3-0.2-0.6-0.2-0.9-0.2c-0.5,0-1,0.2-1.4,0.5c-0.2,0.3-0.4,0.6-0.5,0.9c-0.1,0.3-0.1,0.7-0.1,1v4
			L148,53.1z"/>
		<path class="st9" d="M160.5,53.1v-6.4h-1.1v-1h1.1v-0.8c0-0.4,0-0.7,0.1-1.1c0.1-0.3,0.3-0.6,0.6-0.8c0.4-0.2,0.8-0.3,1.3-0.3
			c0.4,0,0.8,0,1.2,0.1l-0.2,1.1c-0.2,0-0.5-0.1-0.7-0.1c-0.1,0-0.3,0-0.4,0c-0.1,0-0.3,0.1-0.4,0.2c-0.2,0.3-0.3,0.6-0.2,0.9v0.7
			h1.4v1h-1.4v6.4H160.5z"/>
		<path class="st9" d="M163.9,49.4c0-0.6,0-1.1,0.2-1.6c0.2-0.5,0.5-1,0.9-1.4c0.7-0.5,1.5-0.8,2.3-0.8c0.5,0,0.9,0.1,1.4,0.2
			c0.4,0.2,0.8,0.4,1.1,0.8c0.3,0.4,0.6,0.8,0.8,1.3c0.2,0.5,0.2,1,0.2,1.5c0,0.8-0.1,1.6-0.4,2.3c-0.3,0.5-0.7,1-1.2,1.3
			c-0.5,0.3-1.2,0.5-1.8,0.5c-0.5,0-0.9-0.1-1.4-0.2c-0.4-0.2-0.8-0.4-1.1-0.8c-0.3-0.4-0.6-0.9-0.8-1.4
			C163.9,50.4,163.8,49.9,163.9,49.4z M165.2,49.4c-0.1,0.8,0.2,1.5,0.6,2.1c0.2,0.2,0.4,0.4,0.7,0.5c0.3,0.1,0.6,0.2,0.9,0.2
			c0.3,0,0.6-0.1,0.9-0.2c0.3-0.1,0.5-0.3,0.7-0.5c0.5-0.6,0.7-1.4,0.6-2.2c0.1-0.7-0.2-1.5-0.6-2.1c-0.2-0.2-0.4-0.4-0.7-0.5
			c-0.3-0.1-0.6-0.2-0.9-0.2c-0.3,0-0.6,0.1-0.9,0.2c-0.3,0.1-0.5,0.3-0.7,0.5C165.3,47.9,165.1,48.6,165.2,49.4z"/>
		<path class="st9" d="M172.4,53.1v-7.4h1.1v1.1c0.2-0.4,0.5-0.7,0.8-1c0.2-0.2,0.5-0.3,0.8-0.3c0.5,0,0.9,0.1,1.3,0.4l-0.4,1.1
			c-0.3-0.2-0.6-0.3-0.9-0.3c-0.3,0-0.5,0.1-0.7,0.3c-0.2,0.2-0.4,0.4-0.5,0.7c-0.1,0.5-0.2,1-0.2,1.5v3.9H172.4z"/>
		<path class="st9" d="M188.9,49.5l1.3,0.3c-0.2,1-0.7,1.9-1.5,2.6c-0.8,0.6-1.7,0.9-2.7,0.9c-0.9,0-1.9-0.2-2.7-0.7
			c-0.7-0.5-1.3-1.2-1.6-2c-0.4-0.9-0.6-1.8-0.5-2.7c0-1,0.2-1.9,0.6-2.8c0.4-0.8,1-1.4,1.7-1.8c0.8-0.4,1.6-0.6,2.5-0.6
			c0.9,0,1.8,0.2,2.6,0.8c0.7,0.5,1.3,1.3,1.5,2.2l-1.3,0.3c-0.2-0.6-0.5-1.2-1-1.6c-0.5-0.4-1.1-0.5-1.7-0.5c-0.7,0-1.4,0.2-2,0.6
			c-0.5,0.4-0.9,0.9-1.1,1.5c-0.2,0.6-0.3,1.3-0.3,2c0,0.8,0.1,1.6,0.4,2.3c0.2,0.6,0.6,1.1,1.2,1.5c0.5,0.3,1.1,0.5,1.7,0.5
			c0.7,0,1.4-0.2,1.9-0.7C188.4,50.9,188.8,50.2,188.9,49.5z"/>
		<path class="st9" d="M191.9,55.9l-0.1-1.2c0.2,0.1,0.5,0.1,0.7,0.1c0.2,0,0.5,0,0.7-0.1c0.2-0.1,0.3-0.2,0.4-0.4
			c0.1-0.3,0.3-0.6,0.4-0.9c0-0.1,0.1-0.2,0.1-0.3l-2.8-7.4h1.3l1.5,4.3c0.2,0.5,0.4,1.1,0.5,1.7c0.1-0.6,0.3-1.1,0.5-1.7l1.6-4.3
			h1.2l-2.8,7.5c-0.2,0.6-0.4,1.1-0.7,1.7c-0.2,0.4-0.4,0.7-0.8,0.9c-0.3,0.2-0.6,0.3-1,0.3C192.4,56.1,192.1,56,191.9,55.9z"/>
		<path class="st9" d="M200.4,53.1h-1.2V42.8h1.3v3.7c0.2-0.3,0.5-0.6,0.9-0.7c0.3-0.2,0.7-0.3,1.1-0.3c0.4,0,0.9,0.1,1.3,0.3
			c0.4,0.2,0.7,0.4,1,0.8c0.3,0.4,0.5,0.8,0.6,1.2c0.1,0.5,0.2,1,0.2,1.5c0.1,1.1-0.3,2.1-0.9,3c-0.3,0.3-0.6,0.6-1,0.8
			c-0.4,0.2-0.8,0.3-1.2,0.3c-0.4,0-0.8-0.1-1.2-0.3c-0.4-0.2-0.7-0.5-0.9-0.8L200.4,53.1z M200.4,49.3c0,0.7,0.1,1.3,0.4,1.9
			c0.1,0.3,0.4,0.6,0.7,0.7c0.3,0.2,0.6,0.3,0.9,0.3c0.3,0,0.5-0.1,0.8-0.2c0.2-0.1,0.5-0.3,0.6-0.5c0.4-0.6,0.6-1.4,0.6-2.1
			c0-0.8-0.2-1.5-0.6-2.1c-0.2-0.2-0.4-0.4-0.6-0.5c-0.2-0.1-0.5-0.2-0.8-0.2c-0.3,0-0.5,0.1-0.8,0.2c-0.2,0.1-0.5,0.3-0.6,0.5
			C200.5,47.8,200.3,48.6,200.4,49.3L200.4,49.3z"/>
		<path class="st9" d="M212.4,50.7l1.3,0.2c-0.2,0.7-0.6,1.3-1.1,1.8c-0.7,0.5-1.6,0.7-2.4,0.6c-0.8-0.1-1.7-0.4-2.3-1
			c-0.7-0.8-1.1-1.8-1-2.8c-0.1-1.1,0.3-2.1,1-2.9c0.3-0.3,0.7-0.6,1.1-0.8c0.4-0.2,0.9-0.3,1.4-0.2c0.5,0,0.9,0.1,1.3,0.2
			c0.4,0.2,0.8,0.4,1.1,0.8c0.7,0.8,1,1.8,0.9,2.9c0,0.1,0,0.2,0,0.3h-5.5c0,0.7,0.2,1.3,0.7,1.9c0.2,0.2,0.4,0.4,0.7,0.5
			c0.3,0.1,0.6,0.2,0.8,0.2c0.4,0,0.8-0.1,1.2-0.4C212,51.6,212.2,51.1,212.4,50.7z M208.2,48.7h4.1c0-0.5-0.2-1-0.5-1.4
			c-0.2-0.2-0.4-0.4-0.7-0.5c-0.3-0.1-0.6-0.2-0.9-0.2c-0.3,0-0.5,0-0.8,0.1c-0.3,0.1-0.5,0.3-0.7,0.4
			C208.5,47.5,208.3,48.1,208.2,48.7L208.2,48.7z"/>
		<path class="st9" d="M215.4,53.1v-7.4h1.1v1.1c0.2-0.4,0.5-0.7,0.8-1c0.2-0.2,0.5-0.3,0.8-0.3c0.5,0,0.9,0.1,1.3,0.4l-0.4,1.2
			c-0.3-0.2-0.6-0.3-0.9-0.3c-0.3,0-0.5,0.1-0.7,0.3c-0.2,0.2-0.4,0.4-0.5,0.7c-0.1,0.5-0.2,1-0.2,1.5v3.9L215.4,53.1z"/>
		<path class="st9" d="M224.1,49.8l1.3-0.1c0,0.4,0.2,0.9,0.4,1.3c0.3,0.4,0.6,0.6,1,0.8c0.5,0.2,1,0.3,1.6,0.3
			c0.5,0,0.9-0.1,1.4-0.2c0.3-0.1,0.7-0.3,0.9-0.6c0.2-0.3,0.3-0.6,0.3-0.9c0-0.3-0.1-0.6-0.3-0.8c-0.3-0.3-0.6-0.5-0.9-0.6
			c-0.6-0.2-1.2-0.4-1.8-0.5c-0.7-0.1-1.4-0.4-2-0.6c-0.4-0.2-0.8-0.5-1.1-0.9c-0.2-0.4-0.4-0.8-0.4-1.3c0-0.5,0.2-1,0.4-1.5
			c0.3-0.5,0.8-0.8,1.3-1c0.6-0.2,1.2-0.3,1.9-0.3c0.7,0,1.4,0.1,2,0.4c0.5,0.2,1,0.6,1.4,1.1c0.3,0.5,0.5,1,0.5,1.6l-1.3,0.1
			c0-0.3-0.1-0.6-0.2-0.8c-0.1-0.3-0.3-0.5-0.5-0.7c-0.5-0.4-1.1-0.5-1.8-0.5c-0.6,0-1.2,0.1-1.8,0.5c-0.2,0.1-0.3,0.3-0.4,0.5
			c-0.1,0.2-0.2,0.4-0.2,0.6c0,0.2,0,0.3,0.1,0.5c0.1,0.2,0.2,0.3,0.3,0.4c0.6,0.4,1.3,0.6,2,0.7c0.8,0.1,1.5,0.4,2.3,0.7
			c0.5,0.2,1,0.6,1.3,1c0.3,0.4,0.4,0.9,0.4,1.5c0,0.5-0.2,1.1-0.5,1.5c-0.3,0.5-0.8,0.9-1.3,1.1c-0.6,0.3-1.3,0.4-2,0.4
			c-0.8,0-1.6-0.1-2.3-0.4c-0.6-0.2-1.1-0.7-1.5-1.2C224.3,51.1,224.1,50.4,224.1,49.8z"/>
		<path class="st9" d="M239.1,50.7l1.3,0.2c-0.2,0.7-0.6,1.3-1.1,1.8c-0.7,0.5-1.6,0.7-2.4,0.6c-0.8-0.1-1.7-0.4-2.3-1
			c-0.7-0.8-1-1.8-1-2.8c-0.1-1.1,0.3-2.1,1-2.9c0.3-0.3,0.7-0.6,1.1-0.8c0.4-0.2,0.9-0.3,1.4-0.2c0.5,0,0.9,0.1,1.3,0.2
			c0.4,0.2,0.8,0.4,1.1,0.8c0.6,0.8,0.9,1.8,0.9,2.9v0.3h-5.5c0,0.7,0.2,1.3,0.7,1.9c0.2,0.2,0.4,0.4,0.7,0.5
			c0.3,0.1,0.6,0.2,0.8,0.2c0.4,0,0.8-0.1,1.2-0.4C238.7,51.6,239,51.2,239.1,50.7z M235,48.7h4.1c0-0.5-0.2-1-0.5-1.4
			c-0.2-0.2-0.4-0.4-0.7-0.5c-0.3-0.1-0.6-0.2-0.9-0.2c-0.3,0-0.5,0-0.8,0.1c-0.3,0.1-0.5,0.3-0.7,0.4C235.3,47.5,235,48.1,235,48.7
			L235,48.7z"/>
		<path class="st9" d="M247,50.4l1.2,0.2c-0.1,0.8-0.4,1.5-1,2c-0.6,0.5-1.3,0.7-2,0.7c-0.5,0-0.9-0.1-1.3-0.2
			c-0.4-0.2-0.8-0.4-1.1-0.8c-0.7-0.8-1-1.8-0.9-2.9c0-0.7,0.1-1.4,0.4-2.1c0.2-0.6,0.7-1.1,1.2-1.4c0.5-0.3,1.2-0.4,1.8-0.4
			c0.7,0,1.4,0.2,2,0.6c0.5,0.4,0.9,1.1,1,1.7L247,48c-0.1-0.4-0.3-0.8-0.6-1.1c-0.3-0.3-0.7-0.4-1.1-0.4c-0.3,0-0.6,0.1-0.9,0.2
			c-0.3,0.1-0.5,0.3-0.7,0.5c-0.4,0.6-0.7,1.4-0.6,2.2c-0.1,0.8,0.1,1.5,0.6,2.2c0.2,0.2,0.4,0.4,0.7,0.5s0.5,0.2,0.8,0.2
			c0.5,0,0.9-0.1,1.2-0.5C246.8,51.4,247,50.9,247,50.4z"/>
		<path class="st9" d="M254.3,53.1V52c-0.2,0.4-0.6,0.7-1,0.9c-0.4,0.2-0.9,0.3-1.3,0.3c-0.4,0-0.8-0.1-1.2-0.2
			c-0.3-0.1-0.6-0.4-0.8-0.6c-0.2-0.3-0.3-0.6-0.4-1c-0.1-0.4-0.1-0.8-0.1-1.2v-4.6h1.3v4.1c0,0.4,0,0.9,0.1,1.3
			c0.1,0.3,0.3,0.6,0.5,0.8c0.3,0.2,0.6,0.3,1,0.3c0.4,0,0.7-0.1,1.1-0.3c0.3-0.2,0.6-0.5,0.7-0.8c0.2-0.5,0.2-1,0.2-1.5v-4h1.3V53
			L254.3,53.1z"/>
		<path class="st9" d="M257.5,53.1v-7.4h1.1v1.1c0.2-0.4,0.5-0.7,0.8-1c0.2-0.2,0.5-0.3,0.8-0.3c0.5,0,0.9,0.1,1.3,0.4l-0.4,1.2
			c-0.3-0.2-0.6-0.3-0.9-0.3c-0.3,0-0.5,0.1-0.7,0.3c-0.2,0.2-0.4,0.4-0.5,0.7c-0.1,0.5-0.2,1-0.2,1.5v3.9L257.5,53.1z"/>
		<path class="st9" d="M262.4,44.3v-1.5h1.3v1.5H262.4z M262.4,53.1v-7.4h1.3v7.4H262.4z"/>
		<path class="st9" d="M268.5,51.9l0.2,1.1c-0.3,0.1-0.6,0.1-1,0.1c-0.4,0-0.7-0.1-1.1-0.2c-0.2-0.1-0.4-0.3-0.5-0.6
			c-0.1-0.5-0.2-1-0.2-1.5v-4.3h-0.9v-1h0.9v-1.8l1.2-0.8v2.6h1.3v1h-1.3V51c0,0.2,0,0.5,0.1,0.7c0,0.1,0.1,0.2,0.2,0.2
			c0.1,0.1,0.3,0.1,0.4,0.1C268.1,52,268.3,52,268.5,51.9z"/>
		<path class="st9" d="M269.8,55.9l-0.1-1.2c0.2,0.1,0.5,0.1,0.7,0.1c0.2,0,0.5,0,0.7-0.1c0.2-0.1,0.3-0.2,0.4-0.4
			c0.2-0.3,0.3-0.6,0.4-0.9c0-0.1,0.1-0.2,0.1-0.3l-2.8-7.4h1.3l1.5,4.3c0.2,0.5,0.4,1.1,0.5,1.7c0.1-0.6,0.3-1.1,0.5-1.7l1.6-4.3
			h1.3l-2.8,7.5c-0.2,0.6-0.4,1.1-0.7,1.7c-0.2,0.4-0.4,0.7-0.8,0.9c-0.3,0.2-0.6,0.3-1,0.3C270.4,56.1,270.1,56,269.8,55.9z"/>
		<path class="st9" d="M277.5,53.1v-1.4h1.4v1.4c0,0.4-0.1,0.9-0.3,1.3c-0.2,0.3-0.5,0.6-0.9,0.7l-0.4-0.5c0.2-0.1,0.5-0.3,0.6-0.5
			c0.1-0.3,0.2-0.7,0.2-1L277.5,53.1z"/>
		<path class="st9" d="M285.4,53.1v-7.4h1.1v1c0.2-0.4,0.5-0.7,0.9-0.9c0.4-0.2,0.9-0.3,1.3-0.3c0.5,0,0.9,0.1,1.3,0.3
			c0.4,0.2,0.6,0.6,0.7,1c0.2-0.4,0.6-0.7,1-1c0.4-0.2,0.9-0.3,1.3-0.3c0.3,0,0.6,0,0.9,0.1c0.3,0.1,0.6,0.3,0.8,0.5
			c0.4,0.5,0.6,1.2,0.6,1.9v5.1h-1.2v-4.7c0-0.3,0-0.7-0.1-1c-0.1-0.2-0.2-0.4-0.4-0.5c-0.2-0.1-0.5-0.2-0.8-0.2
			c-0.2,0-0.5,0-0.7,0.1c-0.2,0.1-0.4,0.2-0.6,0.4c-0.2,0.2-0.3,0.5-0.4,0.8c-0.1,0.3-0.1,0.6-0.1,0.9v4.3h-1.2v-4.9
			c0-0.4-0.1-0.9-0.3-1.2c-0.1-0.1-0.3-0.3-0.5-0.3c-0.2-0.1-0.4-0.1-0.6-0.1c-0.4,0-0.7,0.1-1,0.3c-0.3,0.2-0.5,0.5-0.7,0.8
			c-0.2,0.5-0.2,1-0.2,1.6v3.8H285.4z"/>
		<path class="st9" d="M297,49.4c0-0.6,0-1.1,0.2-1.6c0.2-0.5,0.5-1,0.9-1.4c0.6-0.5,1.5-0.8,2.3-0.8c0.5,0,0.9,0.1,1.4,0.2
			c0.4,0.2,0.8,0.4,1.1,0.8c0.3,0.4,0.6,0.8,0.8,1.3c0.2,0.5,0.2,1,0.2,1.5c0,0.8-0.1,1.6-0.4,2.3c-0.3,0.5-0.7,1-1.2,1.3
			c-0.5,0.3-1.2,0.5-1.8,0.5c-0.5,0-0.9-0.1-1.4-0.2c-0.4-0.2-0.8-0.4-1.1-0.8C297.3,51.5,296.9,50.4,297,49.4z M298.2,49.4
			c-0.1,0.8,0.2,1.5,0.6,2.1c0.2,0.2,0.4,0.4,0.7,0.5c0.3,0.1,0.6,0.2,0.9,0.2c0.3,0,0.6-0.1,0.9-0.2c0.3-0.1,0.5-0.3,0.7-0.5
			c0.5-0.6,0.7-1.4,0.6-2.2c0.1-0.7-0.2-1.5-0.6-2.1c-0.2-0.2-0.4-0.4-0.7-0.5c-0.3-0.1-0.6-0.2-0.9-0.2c-0.3,0-0.6,0.1-0.9,0.2
			c-0.3,0.1-0.5,0.3-0.7,0.5C298.4,47.9,298.2,48.6,298.2,49.4z"/>
		<path class="st9" d="M310.3,53.1v-0.9c-0.2,0.4-0.5,0.6-0.9,0.8c-0.4,0.2-0.8,0.3-1.2,0.3c-0.6,0-1.1-0.2-1.6-0.5
			c-0.5-0.3-0.9-0.8-1.2-1.4c-0.3-0.6-0.4-1.3-0.4-2c0-0.7,0.1-1.4,0.4-2c0.2-0.6,0.6-1.1,1.1-1.4c0.5-0.3,1.1-0.5,1.6-0.5
			c0.4,0,0.8,0.1,1.2,0.3c0.3,0.2,0.6,0.4,0.8,0.7v-3.7h1.2v10.2H310.3z M306.4,49.4c-0.1,0.8,0.2,1.5,0.6,2.1
			c0.2,0.2,0.4,0.4,0.6,0.5c0.2,0.1,0.5,0.2,0.8,0.2c0.3,0,0.5-0.1,0.8-0.2c0.2-0.1,0.5-0.3,0.6-0.5c0.4-0.6,0.6-1.3,0.6-2
			c0.1-0.8-0.1-1.6-0.6-2.2c-0.2-0.2-0.4-0.4-0.6-0.5c-0.2-0.1-0.5-0.2-0.8-0.2c-0.3,0-0.5,0.1-0.8,0.2c-0.2,0.1-0.5,0.3-0.6,0.5
			C306.5,47.9,306.3,48.6,306.4,49.4z"/>
		<path class="st9" d="M318.4,52.2c-0.4,0.4-0.8,0.6-1.3,0.8c-0.4,0.2-0.9,0.2-1.4,0.2c-0.7,0-1.3-0.2-1.9-0.6
			c-0.2-0.2-0.4-0.4-0.5-0.7c-0.1-0.3-0.2-0.5-0.2-0.8c0-0.4,0.1-0.7,0.3-1c0.2-0.3,0.4-0.5,0.7-0.7c0.3-0.2,0.6-0.3,0.9-0.4
			c0.4-0.1,0.7-0.1,1.1-0.2c0.8-0.1,1.5-0.2,2.2-0.4c0-0.2,0-0.3,0-0.3c0-0.2,0-0.4-0.1-0.6c-0.1-0.2-0.2-0.4-0.3-0.5
			c-0.4-0.3-0.9-0.5-1.4-0.4c-0.5,0-0.9,0.1-1.3,0.3c-0.3,0.3-0.6,0.7-0.6,1.1l-1.2-0.2c0.1-0.5,0.3-0.9,0.6-1.3
			c0.3-0.3,0.7-0.6,1.1-0.7c0.5-0.2,1.1-0.3,1.7-0.3c0.5,0,1,0.1,1.5,0.2c0.3,0.1,0.6,0.3,0.9,0.6c0.2,0.2,0.3,0.5,0.4,0.9
			c0.1,0.4,0.1,0.8,0.1,1.2V50c0,0.7,0,1.5,0.1,2.2c0.1,0.3,0.2,0.6,0.3,0.9h-1.3C318.5,52.8,318.5,52.5,318.4,52.2z M318.3,49.3
			c-0.7,0.2-1.3,0.4-2,0.5c-0.4,0-0.7,0.1-1.1,0.3c-0.2,0.1-0.4,0.2-0.5,0.4c-0.1,0.2-0.2,0.5-0.2,0.8c0,0.3,0.2,0.5,0.4,0.7
			c0.3,0.2,0.7,0.4,1.1,0.3c0.5,0,0.9-0.1,1.3-0.3c0.4-0.2,0.7-0.5,0.8-0.9c0.2-0.4,0.2-0.8,0.2-1.3L318.3,49.3z"/>
	</g>
</g>
</svg>
