<?xml version="1.0" encoding="utf-8"?>
<!-- Generator: Adobe Illustrator 26.5.0, SVG Export Plug-In . SVG Version: 6.00 Build 0)  -->
<svg version="1.1" id="_層_1" xmlns="http://www.w3.org/2000/svg" xmlns:xlink="http://www.w3.org/1999/xlink" x="0px" y="0px"
	 viewBox="0 0 416.2 380.6" style="enable-background:new 0 0 416.2 380.6;" xml:space="preserve">
<style type="text/css">
	.st0{fill:#FFFFFF;}
	.st1{fill:none;stroke:#4D4D4D;stroke-miterlimit:10;}
	.st2{fill:#71AD91;}
	.st3{fill:#95C1AC;}
	.st4{fill:#4E9875;}
	.st5{fill:none;stroke:#4D4D4D;stroke-width:1.01;stroke-miterlimit:10;}
	.st6{fill:#DA8B41;}
</style>
<rect x="-2.4" y="-3.2" class="st0" width="421" height="387"/>
<g>
	<line class="st1" x1="235.1" y1="159.1" x2="207.6" y2="159.1"/>
	<line class="st1" x1="207.9" y1="33.7" x2="208.1" y2="198.7"/>
	<path class="st1" d="M130.1,105l0.7-22.6c0.1-4.3,4.3-7.8,9.3-7.8H274c5.2,0,9.4,3.6,9.4,8V105"/>
	<path class="st2" d="M79.9,88.9h100c2.8,0,5,2.2,5,5v21.7c0,2.8-2.2,5-5,5h-100c-2.8,0-5-2.2-5-5V93.9
		C74.9,91.1,77.1,88.9,79.9,88.9z"/>
	<path class="st3" d="M333.3,175.1h-100c-2.8,0-5-2.2-5-5v-22c0-2.8,2.2-5,5-5h100c2.8,0,5,2.2,5,5v22
		C338.3,172.8,336,175.1,333.3,175.1z"/>
	<path class="st2" d="M233.2,88.9h100c2.8,0,5,2.2,5,5v21.7c0,2.8-2.2,5-5,5h-100c-2.8,0-5-2.2-5-5V93.9
		C228.2,91.1,230.5,88.9,233.2,88.9z"/>
	<g>
		<path class="st0" d="M102.1,97.3h9.9v1.2h-9.9V97.3z M102.6,105.2h9.1v7.4h-1.3v-0.8h-6.6v1h-1.2V105.2L102.6,105.2z M111,99.7
			v4.2h-7.7v-4.2H111z M103.8,106.2v1.7h2.7v-1.7H103.8z M106.5,110.8V109h-2.7v1.8H106.5z M109.7,100.8h-5.2v2h5.2V100.8z
			 M110.4,106.3h-2.7v1.7h2.7V106.3z M110.4,110.8V109h-2.7v1.8H110.4z M114.4,108.5h-1.2v-9.9h1.2V108.5z M117.6,96.8v14.3
			c0,0.9-0.2,1.3-0.8,1.5c-0.6,0.2-1.5,0.3-3,0.2c-0.1-0.4-0.2-0.9-0.4-1.3c1.2,0.1,2.2,0,2.5,0c0.3,0,0.4-0.1,0.4-0.4V96.8
			L117.6,96.8L117.6,96.8z"/>
		<path class="st0" d="M131.9,105.6c-0.8,0.4-1.7,0.8-2.6,1.2h6.8v6h-1.3v-0.5h-7.9v0.6h-1.3v-4.6c-1.1,0.4-2.3,0.7-3.5,1
			c-0.1-0.3-0.5-0.9-0.7-1.2c2.6-0.6,5.3-1.4,7.7-2.4h-7.4v-1.1h6.7v-1.3h-4.9v-1.1h4.9v-1.3h-5.7v-3.7h13.9v3.7h-6.9v1.3h4v0.9
			c0.7-0.5,1.3-1,1.9-1.6l1,0.7c-0.9,0.9-1.9,1.7-3.1,2.4h4v1.1L131.9,105.6L131.9,105.6z M127.1,98.1h-2.9v1.7h2.9V98.1z
			 M134.8,107.8h-7.9v1.2h7.9V107.8z M134.8,111.3v-1.3h-7.9v1.3H134.8z M131.3,99.8v-1.7h-2.9v1.7H131.3z M131.5,104.5
			c0.8-0.4,1.5-0.9,2.2-1.3h-3.8v1.3H131.5L131.5,104.5z M132.5,99.8h3v-1.7h-3V99.8z"/>
		<path class="st0" d="M156.9,107.1c-1.1,0.8-2.6,1.7-3.9,2.4c1.4,1,3.1,1.7,5.1,2.1c-0.3,0.3-0.6,0.8-0.8,1.2
			c-4.1-0.9-6.9-3.1-8.5-6.5h-2.9v4.8l4.9-1.2c0,0.3-0.1,0.9,0,1.2c-5,1.3-5.9,1.5-6.3,1.8l-0.1,0.1c-0.1-0.3-0.4-1-0.6-1.3
			c0.4-0.2,0.9-0.6,0.9-1.3v-4h-2.9v-1.2h3.1v-7.9h11.1v1.1h-9.7v1.6h9.2v1.1h-9.2v1.5h9.2v1.1h-9.2v1.6h11.5v1.2h-7.5
			c0.5,0.9,1.1,1.8,1.9,2.5c1.3-0.7,2.8-1.6,3.7-2.4L156.9,107.1L156.9,107.1z"/>
	</g>
	<g>
		<path class="st0" d="M261.5,165.4v1.3h-15.9v-1.3h7.2v-4.4h-5.6v-1.3h5.6v-3.9h-6.4v-1.3h7.9c-0.7-0.8-2-2-3.1-2.8l1.1-0.8
			c1.1,0.8,2.6,2.1,3.3,2.9l-0.9,0.6h5.8v1.3h-6.4v3.9h5.7v1.3h-5.6v4.4H261.5L261.5,165.4z"/>
		<path class="st0" d="M271,151.3c-0.5,1.3-1.2,2.6-1.9,3.8v12.1h-1.3v-10.1c-0.7,0.9-1.4,1.8-2.1,2.4c-0.1-0.3-0.6-1-0.8-1.3
			c1.9-1.7,3.8-4.5,4.9-7.3L271,151.3L271,151.3z M276.6,159.8v5.5h4.6v1.3h-10.5v-1.3h4.6v-5.5h-5.1v-1.3h5.1v-4.7h-4v-1.3h9.6v1.3
			h-4.3v4.7h5v1.3H276.6z"/>
		<path class="st0" d="M290.2,161.6c-0.2-0.5-0.8-1.6-1.2-2.4v8h-1.3v-7.5c-0.6,1.7-1.4,3.3-2.2,4.3c-0.1-0.4-0.5-1-0.7-1.3
			c1-1.3,2.1-3.6,2.7-5.6h-2.3v-1.3h2.5V153c-0.6,0.1-1.3,0.3-1.9,0.4c-0.1-0.3-0.2-0.8-0.4-1.1c1.7-0.3,3.6-0.9,4.8-1.4l0.8,1.1
			c-0.6,0.3-1.3,0.5-2.1,0.7v3.2h2.1v1.3h-2.1v0.4c0.5,0.6,1.8,2.5,2,3L290.2,161.6L290.2,161.6z M300.2,162.7
			c-0.2-1.5-0.9-3.7-1.7-5.3c-0.9,2.2-2,4.2-3.4,5.9v1.8c0,0.7,0.1,0.9,0.8,0.9h2.1c0.6,0,0.7-0.5,0.8-2.7c0.3,0.2,0.8,0.5,1.1,0.5
			c-0.1,2.6-0.5,3.3-1.8,3.3h-2.4c-1.5,0-1.9-0.4-1.9-2v-0.2c-0.7,0.8-1.5,1.5-2.3,2.1c-0.2-0.2-0.8-0.7-1.1-0.9
			c1.3-0.9,2.4-2,3.4-3.2v-8.2h1.3v6.4c1.7-2.6,2.9-5.7,3.9-9.2l1.3,0.2c-0.5,1.8-1.1,3.6-1.8,5.2l1.1-0.3c0.8,1.7,1.5,3.9,1.8,5.3
			L300.2,162.7L300.2,162.7z M290.6,162.1c0.7-1.4,1.1-3.7,1.3-5.6l1,0.2c-0.2,1.8-0.6,4.3-1.3,5.7L290.6,162.1L290.6,162.1z
			 M296.9,154.4c-0.7-0.8-2.2-1.9-3.4-2.7l0.8-0.9c1.2,0.7,2.7,1.8,3.5,2.6L296.9,154.4L296.9,154.4z"/>
		<path class="st0" d="M320.9,159.9v1H305v-1h7.2v-1.1h-6v-0.9h6V157h-5.5v-0.9h5.5V155H305v-1h7.2v-1h-5.3V152h5.3v-1.3h1.3v1.3
			h5.1v1.9h2.1v1h-2.1v2h-5.1v0.9h6.1v0.9h-6.1v1.1L320.9,159.9L320.9,159.9z M307.3,161.8h11.5v5.6h-1.3v-0.6h-8.9v0.6h-1.3
			L307.3,161.8L307.3,161.8z M308.6,162.7v1.1h8.9v-1.1H308.6z M317.4,165.8v-1.1h-8.9v1.1H317.4z M313.5,154h3.8v-1h-3.8V154z
			 M313.5,156.1h3.8V155h-3.8V156.1z"/>
	</g>
	<g>
		<path class="st0" d="M255,97.3h9.9v1.2H255L255,97.3L255,97.3z M255.5,105.2h9.1v7.4h-1.3v-0.8h-6.6v1h-1.2V105.2L255.5,105.2z
			 M263.9,99.7v4.2h-7.7v-4.2H263.9z M256.8,106.2v1.7h2.7v-1.7H256.8z M259.5,110.8V109h-2.7v1.8H259.5z M262.6,100.8h-5.2v2h5.2
			V100.8z M263.4,106.3h-2.7v1.7h2.7V106.3z M263.4,110.8V109h-2.7v1.8H263.4z M267.3,108.5h-1.2v-9.9h1.2V108.5z M270.5,96.8v14.3
			c0,0.9-0.2,1.3-0.8,1.5c-0.6,0.2-1.5,0.3-3,0.2c0-0.4-0.2-0.9-0.5-1.3c1.1,0.1,2.2,0,2.5,0c0.3,0,0.5-0.1,0.5-0.4V96.8L270.5,96.8
			L270.5,96.8z"/>
		<path class="st0" d="M284.9,105.6c-0.8,0.4-1.7,0.8-2.6,1.2h6.8v6h-1.3v-0.5h-7.9v0.6h-1.3v-4.6c-1.1,0.4-2.3,0.7-3.5,1
			c-0.1-0.3-0.5-0.9-0.7-1.2c2.6-0.6,5.3-1.4,7.7-2.4h-7.4v-1.1h6.7v-1.3h-5v-1.1h5v-1.3h-5.7v-3.7h13.9v3.7h-6.9v1.3h4v0.9
			c0.7-0.5,1.3-1,1.9-1.6l1,0.7c-0.9,0.9-1.9,1.7-3.1,2.4h4v1.1L284.9,105.6L284.9,105.6z M280,98.1h-2.9v1.7h2.9V98.1z
			 M287.8,107.8h-7.9v1.2h7.9V107.8z M287.8,111.3v-1.3h-7.9v1.3H287.8z M284.2,99.8v-1.7h-3v1.7H284.2z M284.4,104.5
			c0.8-0.4,1.5-0.9,2.2-1.3h-3.8v1.3H284.4L284.4,104.5z M285.4,99.8h3v-1.7h-3V99.8z"/>
		<path class="st0" d="M309.8,107.1c-1.1,0.8-2.6,1.7-3.9,2.4c1.4,1,3.1,1.7,5.1,2.1c-0.3,0.3-0.6,0.8-0.8,1.2
			c-4.1-0.9-6.9-3.1-8.5-6.5h-2.9v4.8l4.9-1.2c0,0.3,0,0.9,0,1.2c-5,1.3-5.9,1.5-6.3,1.8l-0.1,0.1c-0.1-0.3-0.4-1-0.6-1.3
			c0.4-0.2,0.9-0.6,0.9-1.3v-4h-2.9v-1.2h3.1v-7.9h11.1v1.1h-9.7v1.6h9.2v1.1h-9.2v1.5h9.2v1.1h-9.2v1.6h11.5v1.2H303
			c0.5,0.9,1.1,1.8,1.9,2.5c1.3-0.7,2.8-1.6,3.7-2.4L309.8,107.1L309.8,107.1z"/>
	</g>
	<path class="st4" d="M163.6,17.3h87.7c2.8,0,5,2.2,5,5v22c0,2.8-2.2,5-5,5h-87.7c-2.8,0-5-2.2-5-5v-22
		C158.6,19.5,160.8,17.3,163.6,17.3z"/>
	<g>
		<path class="st0" d="M190,33.3c-0.8,0.4-1.7,0.8-2.6,1.2h6.8v6h-1.3V40H185v0.6h-1.3v-4.6c-1.1,0.4-2.3,0.7-3.5,1
			c-0.1-0.3-0.5-0.9-0.7-1.2c2.6-0.6,5.3-1.4,7.7-2.4H180v-1.1h6.7v-1.4h-4.9v-1.1h4.9v-1.3H181v-3.7h13.9v3.7H188v1.3h4v0.9
			c0.7-0.5,1.3-1,1.9-1.5l1,0.7c-0.9,0.9-1.9,1.7-3.1,2.4h4v1.1L190,33.3L190,33.3z M185.1,25.8h-2.9v1.7h2.9V25.8z M192.9,35.5H185
			v1.2h7.9V35.5z M192.9,38.9v-1.3H185v1.3H192.9z M189.3,27.5v-1.7h-2.9v1.7H189.3z M189.6,32.2c0.8-0.4,1.5-0.9,2.2-1.4H188v1.4
			H189.6L189.6,32.2z M190.6,27.5h3v-1.7h-3V27.5z"/>
		<path class="st0" d="M234.7,34.8c-1.1,0.8-2.6,1.7-3.9,2.4c1.4,1,3.1,1.7,5.1,2c-0.3,0.3-0.6,0.8-0.8,1.2
			c-4.1-0.9-6.9-3.1-8.5-6.5h-2.9v4.8l4.9-1.2c0,0.3-0.1,0.9,0,1.2c-5,1.3-5.9,1.5-6.3,1.8l-0.1,0c-0.1-0.3-0.4-1-0.6-1.3
			c0.4-0.2,0.9-0.6,0.9-1.3v-4h-2.9v-1.2h3.1v-7.9h11.1V26H224v1.5h9.2v1.1H224v1.5h9.2v1.1H224v1.6h11.5V34H228
			c0.5,1,1.1,1.8,1.9,2.5c1.3-0.7,2.8-1.6,3.7-2.4L234.7,34.8L234.7,34.8z"/>
	</g>
</g>
<g>
	<path class="st5" d="M94.1,216.8v-9c0-5.5,3.8-10,8.5-10h210.9c4.7,0,8.5,4.5,8.5,10v9"/>
	<path class="st6" d="M174.1,225.1v22c0,2.8-2.2,5-5,5h-150c-2.8,0-5-2.2-5-5v-22c0-2.8,2.2-5,5-5h150
		C171.9,220.1,174.1,222.3,174.1,225.1z"/>
	<path class="st6" d="M402.1,225.1v22c0,2.8-2.2,5-5,5h-150c-2.8,0-5-2.2-5-5v-22c0-2.8,2.2-5,5-5h150
		C399.9,220.1,402.1,222.3,402.1,225.1z"/>
	<g>
		<g>
			<path d="M26.6,273.3c-0.2,1.5-0.5,3.2-0.9,4.4c-0.2-0.1-0.7-0.3-1-0.4c0.4-1.1,0.7-2.7,0.9-4.2L26.6,273.3L26.6,273.3z
				 M29.7,272.4c0-0.3-0.1-0.7-0.2-1.1c-3.4,0.7-3.9,0.8-4.2,1c-0.1-0.3-0.3-0.9-0.4-1.2c0.4-0.1,0.7-0.5,1.3-1.2
				c0.2-0.3,0.8-1.1,1.4-2.1c-1.8,0.3-2.2,0.4-2.4,0.5c-0.1-0.3-0.3-0.9-0.4-1.2c0.3-0.1,0.6-0.4,0.9-1c0.3-0.5,1.5-2.6,2-4.5
				l1.2,0.5c-0.7,1.7-1.6,3.5-2.5,4.8l1.8-0.2c0.4-0.7,0.9-1.5,1.2-2.3l1.1,0.6c-1.1,2.1-2.4,4.2-3.8,5.8l2.5-0.4
				c-0.1-0.5-0.3-1.1-0.4-1.6l1-0.2c0.4,1.1,0.8,2.7,0.9,3.6L29.7,272.4L29.7,272.4z M28.2,273.1c0.2,1.2,0.5,2.8,0.5,3.8l-1,0.2
				c0-1-0.2-2.6-0.5-3.9L28.2,273.1L28.2,273.1z M29.9,272.7c0.4,1,0.9,2.2,1,3l-1,0.3c-0.2-0.8-0.6-2-1-3L29.9,272.7L29.9,272.7z
				 M34.5,273.1c-0.7,1.3-1.7,2.8-2.5,3.8c-0.2-0.2-0.8-0.6-1-0.8c0.9-0.9,1.8-2.3,2.4-3.4L34.5,273.1L34.5,273.1z M36.8,271.5v6.5
				h-1.3v-6.5h-4.3v-1.2H41v1.2C41,271.5,36.8,271.5,36.8,271.5z M32.8,266.9h-1.2v-3h4.1c-0.2-0.6-0.5-1.4-0.8-2l1.2-0.3
				c0.4,0.7,0.7,1.6,1,2.3h3.8v3h-1.3v-1.8h-6.9L32.8,266.9L32.8,266.9z M33,268.3v-1.2h6.5v1.2H33z M39,272.7
				c0.8,1.1,1.8,2.6,2.2,3.5l-1.2,0.5c-0.5-0.9-1.4-2.5-2.2-3.7L39,272.7z"/>
			<path d="M34.5,280.1c-0.2,0.3-0.4,0.5-0.6,0.8c2.1,2.2,4.6,3.7,7.5,4.9c-0.3,0.3-0.7,0.8-0.9,1.2c-1-0.5-2-1-2.9-1.6v1.2h-9v-0.9
				c-0.9,0.5-1.8,1-2.8,1.5c-0.2-0.4-0.6-0.9-1-1.2c3.4-1.4,6.7-3.7,8.5-6.5L34.5,280.1L34.5,280.1z M27.6,288.9h11.1v7.1h-1.4V295
				H29v1h-1.4L27.6,288.9L27.6,288.9z M29,290v3.7h8.4V290C37.3,290,29,290,29,290z M37.5,285.5c-1.6-1-3-2.1-4.4-3.5
				c-1.2,1.4-2.6,2.5-4.1,3.5H37.5z"/>
			<path d="M31,311.6c-0.4-0.7-1.5-2.2-2.3-3.2c-0.4,2-1.3,3.9-3,5.5c-0.2-0.3-0.6-0.7-0.9-0.9c2.2-1.8,2.8-4.5,3-6.9h-2.9v-1.2h3
				c0-0.4,0-0.8,0-1.1v-1.8h-2.6v-1.2h2.6v-2.8h1.3v2.8h2.5v1.2h-2.5v1.8c0,0.4,0,0.8,0,1.1H32v1.2h-2.9c0,0.3-0.1,0.7-0.1,1
				c0.7,0.8,2.6,3,3,3.6L31,311.6L31,311.6z M39.8,312.5c0.3,0,0.4-0.2,0.5-1.4c0.2,0.2,0.8,0.4,1.1,0.5c-0.1,1.7-0.5,2.1-1.4,2.1
				h-1.5c-1.2,0-1.5-0.4-1.5-1.6v-3.9h-1.3c-0.3,2.7-1.3,4.7-4.3,5.8c-0.1-0.3-0.5-0.8-0.8-1c2.7-0.9,3.5-2.6,3.8-4.8h-1.7v-10h7.7
				v10h-2.1v3.9c0,0.4,0,0.4,0.4,0.4H39.8L39.8,312.5z M33.9,301.3H39v-1.8h-5.1V301.3z M33.9,304.2H39v-1.8h-5.1V304.2z
				 M33.9,307.1H39v-1.8h-5.1V307.1z"/>
			<path d="M24.9,330.5c2.5-0.1,6.5-0.3,10.3-0.5l0,1c-3.7,0.2-7.6,0.4-10.1,0.5L24.9,330.5L24.9,330.5z M34.1,318.5h1.1v0.9h-1.1
				v1.8h-3.5v0.8h3.8v0.9h-3.8v0.8h4.5v0.9H25v-0.9h4.4v-0.8h-3.5v-0.9h3.5v-0.8H26v-0.9h3.4v-1h-4.5v-0.9h4.5v-0.9H26v-0.9h3.3
				v-1.1h1.2v1.1h3.5L34.1,318.5L34.1,318.5z M34.1,325.4v4h-8v-4H34.1z M27.2,327.1h2.3v-0.9h-2.3V327.1z M27.2,328.6h2.3v-0.9
				h-2.3V328.6z M30.6,318.5h2.3v-0.9h-2.3C30.6,317.6,30.6,318.5,30.6,318.5z M32.9,319.4h-2.3v1h2.3V319.4z M33,326.2h-2.3v0.9H33
				V326.2z M33,327.7h-2.3v0.9H33V327.7z M37.1,327.6h-1.2v-9.9h1.2V327.6z M40.5,316v14.4c0,0.8-0.2,1.2-0.7,1.4
				c-0.5,0.2-1.4,0.2-2.8,0.2c0-0.3-0.2-0.9-0.5-1.2c1,0,2,0,2.3,0c0.3,0,0.4-0.1,0.4-0.4V316C39.3,316,40.5,316,40.5,316z"/>
			<path d="M30.8,344.5c0-0.3-0.1-0.7-0.2-1.1c-4.3,0.6-4.8,0.8-5.2,1c-0.1-0.3-0.3-0.9-0.4-1.3c0.4-0.1,0.8-0.5,1.4-1.2
				c0.3-0.3,0.9-1.1,1.6-2.1c-2,0.2-2.5,0.3-2.7,0.5c0-0.3-0.2-0.9-0.4-1.2c0.3-0.1,0.6-0.4,1-1c0.4-0.5,1.7-2.6,2.5-4.6l1.2,0.5
				c-0.9,1.7-1.9,3.4-2.9,4.8l2.1-0.2c0.5-0.8,1-1.6,1.4-2.4l1.1,0.7c-1.3,2.1-2.7,4.1-4.3,5.7l3.2-0.4c-0.2-0.6-0.4-1.2-0.6-1.7
				l1-0.3c0.5,1.2,1,2.8,1.2,3.7L30.8,344.5L30.8,344.5z M26.8,345.3c-0.2,1.5-0.5,3.2-0.9,4.4c-0.3-0.1-0.8-0.3-1.1-0.4
				c0.4-1.1,0.7-2.7,0.9-4.1L26.8,345.3L26.8,345.3z M28.9,345.1c0.2,1.2,0.5,2.8,0.5,3.9l-1.1,0.2c0-1-0.2-2.7-0.5-3.9L28.9,345.1z
				 M30.8,344.6c0.4,1,0.8,2.2,1,3.1l-1.1,0.4c-0.1-0.9-0.5-2.1-0.9-3.1L30.8,344.6L30.8,344.6z M41.3,348.5v1.2h-10v-1.2h1.6v-13.9
				h7.2v13.9C40.1,348.5,41.3,348.5,41.3,348.5z M34.1,335.8v3.4h4.7v-3.4H34.1z M38.8,340.3h-4.7v3.4h4.7V340.3z M34.1,348.5h4.7
				V345h-4.7V348.5z"/>
		</g>
		<g>
			<path d="M60.1,270.2c-0.3,1.6-0.9,3.3-1.5,4.6c0.4,0.2,0.8,0.5,1.5,0.9c1.3,0.8,2.9,0.9,5,0.9c2.3,0,5.2-0.2,7.2-0.4
				c-0.2,0.4-0.4,1-0.4,1.4c-1.3,0.1-4.8,0.2-6.9,0.2c-2.4,0-3.9-0.2-5.3-1c-0.7-0.4-1.4-1-1.8-1s-1,1.1-1.5,2.3l-0.9-1.2
				c0.6-0.9,1.2-1.6,1.8-2c0.5-1,1-2.5,1.3-3.8h-2.3c0.5-1.1,1.1-2.6,1.5-4h-2V266h3.7c-0.4,1.3-1,2.8-1.5,4h1.2l0.2,0L60.1,270.2
				L60.1,270.2z M57.7,265c-0.2-0.8-0.6-2-0.9-3l1.2-0.3c0.3,0.9,0.7,2.1,1,2.9L57.7,265L57.7,265z M62.8,275.4h-1.3v-9.3h5.2
				c-1.1-0.5-2.4-1.1-3.4-1.5l0.9-0.7c0.8,0.2,1.7,0.6,2.5,1c0.9-0.4,1.8-0.9,2.5-1.4h-7.5v-1.1h8.8l0.3-0.1l0.8,0.6
				c-0.9,0.9-2.3,1.8-3.6,2.5c0.5,0.3,1,0.5,1.4,0.7h2.3v7.9c0,0.7-0.1,1-0.6,1.2s-1.2,0.2-2.4,0.2c-0.1-0.3-0.2-0.8-0.4-1.1
				c0.8,0,1.6,0,1.8,0c0.2,0,0.3-0.1,0.3-0.3v-1.6H67v2.9h-1.2v-2.9h-3L62.8,275.4L62.8,275.4z M62.8,267.1v1.6h3v-1.6
				C65.8,267.1,62.8,267.1,62.8,267.1z M65.8,271.3v-1.6h-3v1.6H65.8z M70.1,267.1H67v1.6h3.1V267.1z M70.1,271.3v-1.6H67v1.6H70.1z
				"/>
			<path d="M60.4,291.2h3.2v1.1h-3.2v3.6h-1.2v-3.6h-3.4v-1.1h3.4v-1.9h-3v-1.2h1.7c-0.1-0.6-0.5-1.5-0.8-2.2l1-0.3
				c0.4,0.6,0.8,1.5,0.9,2.1l-0.9,0.3h2.2c0.5-0.8,1-1.8,1.2-2.5l1.2,0.3c-0.4,0.7-0.8,1.5-1.2,2.2h1.8v1.2h-2.8L60.4,291.2
				L60.4,291.2z M63.6,285.6h-7.8v-1.2h3.3v-1.8h-2.8v-1.1h2.8v-1.8h1.2v1.8h2.7v1.1h-2.7v1.8h3.2V285.6z M71.7,286.8
				c-0.4,2.1-1.1,4.1-2.2,5.8c0.8,1,1.8,1.8,2.9,2.3c-0.3,0.2-0.7,0.7-0.9,1.1c-1-0.6-1.9-1.4-2.7-2.3c-0.8,1-1.6,1.8-2.6,2.5
				c-0.1-0.2-0.4-0.5-0.6-0.7v0.6h-1.2v-15.6h7v3.5c0,0.7-0.1,1-0.7,1.2c-0.6,0.2-1.5,0.2-2.8,0.2c-0.1-0.4-0.2-0.8-0.4-1.2
				c1.1,0,2.1,0,2.3,0c0.3,0,0.4-0.1,0.4-0.3v-2.2h-4.5v4.8h5.1l0.2,0L71.7,286.8L71.7,286.8z M65.5,295c0.9-0.6,1.8-1.4,2.4-2.4
				c-1-1.5-1.8-3.2-2.3-5h-0.2L65.5,295L65.5,295z M66.8,287.6c0.4,1.4,1.1,2.7,1.8,3.9c0.7-1.2,1.2-2.5,1.6-3.9H66.8z"/>
			<path d="M72,299v1.1H58.2v4.3c1.2-1.1,2.4-2.6,3.2-4.2l1.1,0.3c-0.3,0.7-0.7,1.3-1.2,1.9v6.2h-1.2v-4.7c-0.4,0.5-0.9,1-1.3,1.4
				c-0.1-0.2-0.4-0.5-0.7-0.7c0,2.8-0.3,6.6-1.6,9.2c-0.2-0.2-0.7-0.6-1-0.8c1.3-2.6,1.4-6.3,1.4-8.9V299h7.2
				c-0.2-0.5-0.5-1-0.8-1.4l1.2-0.4c0.4,0.5,0.8,1.2,1.1,1.8L72,299L72,299z M58.1,313c1-0.8,1.7-2,2-3.2l1.1,0.4
				c-0.4,1.2-1.1,2.6-2.1,3.5L58.1,313L58.1,313z M63.2,304c-0.3,0.4-0.7,0.8-1,1.1c-0.2-0.2-0.7-0.6-0.9-0.7c1.2-1,2.2-2.6,2.9-4.1
				l1.1,0.3c-0.2,0.5-0.4,0.9-0.7,1.3h2.7c-0.2-0.4-0.6-0.9-0.9-1.3l0.9-0.4c0.4,0.5,0.9,1.1,1.2,1.5l-0.4,0.2h3.3v0.9h-3.1v1h2.6
				v0.8h-2.6v1H71v0.8h-2.7v1h3.4v0.9h-7.3v0.5h-1.2L63.2,304L63.2,304z M67.1,312.8c0.6,0,0.7-0.2,0.8-1.5c0.3,0.2,0.8,0.4,1.1,0.4
				c-0.1,1.8-0.5,2.2-1.8,2.2h-2.9c-1.6,0-2-0.3-2-1.5v-2.5h1.2v2.5c0,0.4,0.1,0.5,0.9,0.5L67.1,312.8L67.1,312.8z M66.8,311.1
				c-0.6-0.6-1.9-1.4-2.9-1.9l0.8-0.7c1.1,0.5,2.3,1.2,3,1.8L66.8,311.1z M67.2,302.8h-2.8v1h2.8V302.8z M67.2,304.5h-2.8v1h2.8
				V304.5z M67.2,306.3h-2.8v1h2.8V306.3z M69.4,309.6c1,1,2.1,2.4,2.6,3.4l-1.1,0.6c-0.4-1-1.5-2.4-2.5-3.5L69.4,309.6L69.4,309.6z
				"/>
			<path d="M69.1,327.5c-0.9,1-2,1.8-3.4,2.4c2,0.6,4.2,0.9,6.5,1.1c-0.2,0.3-0.5,0.8-0.7,1.1c-2.5-0.3-5.1-0.8-7.3-1.5
				c-2.4,0.8-5.1,1.3-7.8,1.6c-0.1-0.3-0.4-0.9-0.6-1.1c2.4-0.2,4.8-0.5,6.9-1.1c-1.2-0.5-2.2-1.1-3.1-1.8c-0.9,0.7-1.8,1.2-2.8,1.6
				c-0.1-0.2-0.6-0.8-0.8-1c1.9-0.8,3.8-2,4.7-3.5l1.2,0.4c-0.2,0.3-0.4,0.6-0.6,0.8h10.3v1L69.1,327.5L69.1,327.5z M57.3,323.1
				c-0.1,1-0.4,2.2-0.7,3c-0.2-0.1-0.6-0.4-0.8-0.5c0.3-0.8,0.4-1.8,0.5-2.7C56.4,322.9,57.3,323.1,57.3,323.1z M60.3,322.6
				c0-0.2-0.1-0.5-0.2-0.7c-3.1,0.5-3.6,0.6-3.9,0.7c0-0.2-0.2-0.7-0.3-1c0.3,0,0.7-0.3,1.1-0.7c0.2-0.2,0.7-0.7,1.2-1.3
				c-1.4,0.1-1.8,0.2-1.9,0.2c0-0.2-0.2-0.7-0.3-1c0.2,0,0.5-0.2,0.7-0.5c0.2-0.3,1.1-1.5,1.6-2.7l1,0.4c-0.5,1-1.2,2-1.8,2.8
				l1.4-0.1c0.3-0.4,0.7-0.9,1-1.4l1,0.4c-1,1.4-2,2.7-3.1,3.7l2.1-0.2c-0.1-0.4-0.3-0.8-0.5-1.1l0.8-0.2c0.4,0.8,0.8,1.9,0.9,2.5
				L60.3,322.6L60.3,322.6z M58.2,325.6c0-0.7-0.2-1.7-0.3-2.5l0.8-0.2c0.2,0.8,0.4,1.9,0.4,2.5L58.2,325.6L58.2,325.6z M60.1,325.2
				c-0.1-0.6-0.3-1.5-0.6-2.3l0.8-0.2c0.2,0.7,0.5,1.6,0.6,2.2L60.1,325.2L60.1,325.2z M60.4,327.5c1,0.8,2.2,1.4,3.7,1.9
				c1.3-0.5,2.5-1.1,3.3-1.9H60.4z M66.7,318h-5.6v-0.8h2.4c-0.2-0.4-0.4-0.9-0.6-1.3l1-0.3c0.3,0.5,0.6,1.1,0.8,1.6h2L66.7,318
				L66.7,318z M66.3,319.6h-4.8v-0.8h4.8V319.6z M66.3,321.2h-4.8v-0.8h4.8V321.2z M61.6,325.3v-3.2h4.6v3.2
				C66.2,325.3,61.6,325.3,61.6,325.3z M62.5,324.5h2.8v-1.6h-2.8C62.5,322.9,62.5,324.5,62.5,324.5z M71.1,322.5
				c0-0.2-0.1-0.5-0.2-0.8c-3.2,0.4-3.7,0.5-3.9,0.7c-0.1-0.2-0.2-0.7-0.3-1c0.3,0,0.7-0.3,1.1-0.7c0.2-0.2,0.7-0.7,1.2-1.3
				c-1.4,0.1-1.8,0.2-2,0.3c-0.1-0.2-0.2-0.7-0.3-1c0.2,0,0.5-0.2,0.7-0.5c0.2-0.3,1.1-1.5,1.6-2.6l1,0.4c-0.5,1-1.2,2-1.8,2.7
				l1.5-0.1c0.4-0.4,0.7-0.9,1-1.4l0.9,0.4c-0.9,1.3-2,2.6-3,3.6l2.2-0.2c-0.1-0.4-0.3-0.8-0.4-1.1l0.8-0.2c0.4,0.8,0.8,1.9,0.9,2.6
				L71.1,322.5L71.1,322.5z M68.1,323c-0.1,0.9-0.4,2-0.6,2.8c-0.2-0.1-0.6-0.4-0.8-0.5c0.2-0.7,0.4-1.7,0.5-2.5L68.1,323L68.1,323z
				 M69.1,325.5c0-0.7-0.1-1.8-0.3-2.6l0.8-0.1c0.2,0.8,0.4,1.9,0.4,2.5L69.1,325.5L69.1,325.5z M71.1,325.4
				c-0.1-0.7-0.4-1.8-0.7-2.6l0.8-0.2c0.3,0.8,0.6,1.9,0.7,2.6L71.1,325.4L71.1,325.4z"/>
			<path d="M61.7,344.5c0-0.3-0.1-0.7-0.2-1.1c-4.3,0.6-4.8,0.8-5.2,1c-0.1-0.3-0.3-0.9-0.4-1.3c0.4-0.1,0.8-0.5,1.4-1.2
				c0.3-0.3,0.9-1.1,1.6-2.1c-2,0.2-2.5,0.3-2.7,0.5c0-0.3-0.2-0.9-0.4-1.2c0.3-0.1,0.6-0.4,1-1c0.4-0.5,1.7-2.6,2.5-4.6l1.2,0.5
				c-0.8,1.7-1.9,3.4-2.9,4.8l2.1-0.2c0.5-0.8,1-1.6,1.4-2.4l1.2,0.7c-1.3,2.1-2.7,4.1-4.3,5.7l3.2-0.4c-0.2-0.6-0.4-1.2-0.6-1.7
				l1-0.3c0.5,1.2,1,2.8,1.2,3.7L61.7,344.5L61.7,344.5z M57.7,345.3c-0.2,1.5-0.5,3.2-0.9,4.4c-0.3-0.1-0.8-0.3-1.1-0.4
				c0.4-1.1,0.7-2.7,0.9-4.1L57.7,345.3L57.7,345.3z M59.8,345.1c0.2,1.2,0.5,2.8,0.5,3.9l-1.1,0.2c0-1-0.2-2.7-0.5-3.9L59.8,345.1z
				 M61.7,344.6c0.4,1,0.8,2.2,1,3.1l-1.1,0.4c-0.1-0.9-0.5-2.1-0.9-3.1L61.7,344.6L61.7,344.6z M72.1,348.5v1.2h-10v-1.2h1.6v-13.9
				h7.2v13.9H72.1z M65,335.8v3.4h4.7v-3.4H65z M69.6,340.3H65v3.4h4.7V340.3z M65,348.5h4.7V345H65V348.5z"/>
		</g>
		<g>
			<path d="M90.9,273.7h3.1v1.2h-3.1v3.2h-1.2v-3.2h-3.2v-1.2h3.2v-1.4h-2.5V266h2.5v-1.3h-2.9v-1.2h2.9v-2h1.2v2h2.9v1.2h-2.9v1.3
				h2.7v6.2h-2.6C90.9,272.3,90.9,273.7,90.9,273.7z M88.2,268.7h1.7V267h-1.7V268.7z M88.2,271.3h1.7v-1.7h-1.7V271.3z M92.5,267
				h-1.7v1.6h1.7V267z M92.5,269.6h-1.7v1.7h1.7V269.6z M99,265.3v1.6h3.5v9.7c0,0.6-0.1,1-0.5,1.2c-0.4,0.2-1,0.2-1.9,0.2
				c-0.1-0.3-0.2-0.9-0.4-1.2c0.6,0,1.2,0,1.3,0s0.2,0,0.2-0.2V274H99v3.8h-1.2V274h-2.2v3.9h-1.2v-11.1h3.4v-1.6h-3.8v-1.2h3.8
				v-2.5H99v2.5h2.9c-0.5-0.6-1.4-1.3-2.2-1.9l0.8-0.6c0.8,0.5,1.8,1.3,2.2,1.8l-0.7,0.7h0.9v1.2L99,265.3L99,265.3z M95.6,268.1
				v1.8h2.2v-1.8H95.6z M97.9,272.9V271h-2.2v1.9H97.9z M99.1,268.1v1.8h2.3v-1.8H99.1z M101.3,272.9V271h-2.3v1.9H101.3z"/>
			<path d="M91.2,284.8c-0.3,1-0.8,2.1-1.4,3c0.4,0.1,0.8,0.4,1.4,0.8c1.1,0.6,2.7,0.6,4.7,0.6c2.2,0,5.3-0.1,7.2-0.3
				c-0.1,0.3-0.3,0.9-0.4,1.3c-1.6,0.1-5,0.2-6.8,0.2c-2.1,0-3.7-0.1-4.9-0.8c-0.7-0.4-1.2-0.8-1.5-0.8c-0.5,0-1.3,0.9-2,1.8l-0.7-1
				c0.5-0.5,1-1,1.5-1.3h0c0.6-0.6,1.2-1.6,1.5-2.6h-2.4c0.5-0.7,1-1.7,1.5-2.6h-2.1v-1h3.8c-0.4,0.9-0.9,1.8-1.4,2.6h1.3l0.2,0
				L91.2,284.8L91.2,284.8z M99.1,291.4h3.6v1.1h-3.6v2.2c0,0.7-0.1,1-0.7,1.2c-0.6,0.2-1.5,0.2-2.9,0.2c-0.1-0.3-0.3-0.8-0.4-1.1
				c1.1,0,2.1,0,2.4,0c0.3,0,0.4-0.1,0.4-0.3v-2.2h-7.1c0.9,0.6,2.1,1.4,2.7,2l-1,0.9c-0.5-0.7-1.7-1.6-2.6-2.2l0.9-0.7h-3.8v-1.1
				h10.9v-1h1.3L99.1,291.4L99.1,291.4z M88.4,281.9c-0.2-0.5-0.5-1.3-0.8-1.9l1.1-0.3c0.3,0.6,0.6,1.4,0.8,1.8L88.4,281.9z
				 M95.6,283.1c0.1-0.3,0.2-0.6,0.3-0.9h-4.6v-1h3c-0.2-0.4-0.5-1-0.8-1.4l1.1-0.3c0.4,0.5,0.8,1.1,1,1.6l-0.2,0.1h2.9
				c0.3-0.5,0.7-1.2,0.9-1.6l1.3,0.3c-0.3,0.5-0.6,1-0.9,1.4h3v1h-5.2c-0.2,0.3-0.3,0.6-0.5,0.9h4.3v5.4h-8.6v-5.4L95.6,283.1
				L95.6,283.1z M99.8,283.9h-6v0.8h6V283.9z M99.8,285.4h-6v0.8h6V285.4z M99.8,286.9h-6v0.9h6V286.9z"/>
			<path d="M90,309.1c0.7-0.3,1.4-0.6,2.1-0.8l0.2,1.2c-1.9,0.8-3.9,1.6-5.4,2.2l-0.4-1.4c0.6-0.2,1.4-0.5,2.3-0.8v-6.3h-2.1V302
				h2.1v-4.2H90v4.2h2v1.3h-2L90,309.1L90,309.1z M103,304.7v1.2H91.9v-1.2h6.7c0.4-1,1-2.6,1.3-3.7l1.3,0.3
				c-0.4,1.1-0.9,2.4-1.3,3.4C99.9,304.7,103,304.7,103,304.7z M102.4,300.9h-9.8v-1.2H97c-0.1-0.6-0.3-1.3-0.5-1.9l1.2-0.2
				c0.2,0.7,0.5,1.5,0.6,2.1h4.1L102.4,300.9L102.4,300.9z M93.5,307.5h8.1v6.5h-1.3v-0.7h-5.6v0.8h-1.2L93.5,307.5L93.5,307.5z
				 M94.8,304.4c-0.1-0.8-0.5-2.1-1-3.1l1.1-0.3c0.5,0.9,0.9,2.2,1,3L94.8,304.4L94.8,304.4z M94.7,308.6v3.4h5.6v-3.4H94.7z"/>
			<path d="M93.1,319.8h-6.5v-1.1h6.5V319.8z M92.4,322.1h-5.2V321h5.2V322.1z M87.3,323.4h5.2v1.1h-5.2V323.4z M88.4,331v0.9h-1.1
				v-6h5.3v5.2L88.4,331L88.4,331z M88.4,326.9v3h3v-3H88.4z M89.9,318.5c-0.3-0.6-0.8-1.7-1.3-2.4l1-0.5c0.5,0.7,1.1,1.7,1.4,2.3
				L89.9,318.5L89.9,318.5z M94.7,316.1H96v6.3c0,3.5-0.2,7-2.3,9.8c-0.3-0.2-0.8-0.6-1.2-0.7c2.1-2.6,2.3-5.8,2.3-9.1V316.1z
				 M97.9,316.9h1.2v13.4h-1.2V316.9z M102.4,316v16.1h-1.3V316H102.4z"/>
			<path d="M92.5,344.5c-0.1-0.3-0.1-0.7-0.2-1.1c-4.3,0.6-4.8,0.8-5.2,1c-0.1-0.3-0.3-0.9-0.4-1.3c0.4-0.1,0.8-0.5,1.4-1.2
				c0.3-0.3,0.9-1.1,1.6-2.1c-2,0.2-2.4,0.3-2.7,0.5c-0.1-0.3-0.2-0.9-0.4-1.2c0.3-0.1,0.6-0.4,1-1c0.4-0.5,1.7-2.6,2.5-4.6l1.2,0.5
				c-0.8,1.7-1.9,3.4-2.9,4.8l2.1-0.2c0.5-0.8,1-1.6,1.4-2.4l1.2,0.7c-1.3,2.1-2.7,4.1-4.3,5.7l3.2-0.4c-0.2-0.6-0.4-1.2-0.6-1.7
				l1-0.3c0.5,1.2,1,2.8,1.2,3.7L92.5,344.5L92.5,344.5z M88.6,345.3c-0.2,1.5-0.5,3.2-0.9,4.4c-0.3-0.1-0.8-0.3-1.1-0.4
				c0.4-1.1,0.7-2.7,0.9-4.1L88.6,345.3L88.6,345.3z M90.6,345.1c0.2,1.2,0.4,2.8,0.5,3.9l-1.1,0.2c0-1-0.2-2.7-0.4-3.9L90.6,345.1z
				 M92.5,344.6c0.4,1,0.8,2.2,0.9,3.1l-1.1,0.4c-0.1-0.9-0.5-2.1-0.9-3.1L92.5,344.6L92.5,344.6z M103,348.5v1.2H93v-1.2h1.6v-13.9
				h7.2v13.9H103z M95.8,335.8v3.4h4.7v-3.4H95.8z M100.5,340.3h-4.7v3.4h4.7V340.3z M95.8,348.5h4.7V345h-4.7V348.5z"/>
		</g>
		<g>
			<path d="M121.4,269.1c0.5,0.6,1.9,2.2,2.3,2.6l-0.7,1.1c-0.3-0.5-1-1.6-1.6-2.4v7.6h-1.3v-7.8c-0.7,1.8-1.5,3.6-2.3,4.7
				c-0.1-0.4-0.4-1-0.7-1.3c1-1.3,2.1-3.6,2.8-5.6h-2.4v-1.3h2.6v-2.9c-0.7,0.2-1.5,0.3-2.2,0.4c0-0.3-0.2-0.8-0.3-1.1
				c1.8-0.3,3.8-0.9,5-1.4l0.8,1.1c-0.6,0.3-1.3,0.5-2,0.7v3.2h2v1.3h-2L121.4,269.1L121.4,269.1z M130.1,267.3
				c-1.4,0-1.7-0.3-1.7-1.4v-1.2h-0.3c-0.4,1-1.3,2-3.3,2.7h1.1v1.1c2.2-0.2,4.7-0.4,6.1-0.8l0.9,0.8c-1.8,0.4-4.5,0.7-6.9,0.8v0.3
				c0,0.5,0.1,0.6,0.8,0.6h4.6c0.6,0,1.5,0,1.9-0.1c0,0.3,0.1,0.7,0.1,1c-0.3,0.1-1.1,0.1-1.9,0.1h-4.8c-1.5,0-1.9-0.5-1.9-1.6v-2.2
				c-0.2,0-0.3,0.1-0.5,0.2c-0.1-0.3-0.4-0.8-0.6-1c1.8-0.6,2.7-1.2,3.2-1.9h-3v-1h3.5c0.1-0.2,0.1-0.5,0.1-0.7v-1.4h1.2v1.4
				c0,0.2,0,0.5,0,0.7h3.3c-0.6-0.5-1.5-1-2.3-1.4l0.7-0.7c0.8,0.4,1.8,1,2.4,1.4l-0.7,0.7h1.7v1h-4v1.2c0,0.4,0.1,0.4,0.6,0.4h1.9
				c0.4,0,0.5-0.1,0.5-1.1c0.2,0.2,0.7,0.3,1,0.4c-0.1,1.3-0.4,1.7-1.4,1.7L130.1,267.3L130.1,267.3z M124.6,272.3h8.2v5.7h-1.3
				v-0.6h-5.7v0.6h-1.3L124.6,272.3L124.6,272.3z M125.8,273.2v1.2h5.7v-1.2H125.8z M131.5,276.4v-1.2h-5.7v1.2H131.5z"/>
			<path d="M122.7,289.1c-0.2-0.6-0.8-1.6-1.3-2.5v9.4h-1.3v-8.6c-0.6,1.9-1.3,3.8-2.2,5c-0.1-0.4-0.4-1-0.7-1.3
				c1.1-1.5,2.2-4.3,2.8-6.8h-2.3v-1.3h2.4v-3.5h1.3v3.5h2v1.3h-2v0.7c0.5,0.7,1.8,2.7,2.1,3.2L122.7,289.1L122.7,289.1z
				 M133.4,288.5c-0.7,1.3-1.7,2.5-2.8,3.5c1.2,1,2.6,2.1,3.3,3l-1,0.9c-0.7-0.8-2.1-2-3.2-3c-1.7,1.4-3.7,2.5-5.9,3.2
				c-0.2-0.3-0.5-0.8-0.8-1.1c4.2-1.4,7.6-3.9,9.1-7L133.4,288.5L133.4,288.5z M132,285.3c-1.5,2.7-4.2,5.3-7.4,6.8
				c-0.1-0.3-0.5-0.8-0.8-1c1.8-0.8,3.5-2,4.8-3.4c-3.2,0.2-3.8,0.3-4.1,0.4c0-0.3-0.2-1-0.4-1.3c0.3-0.1,0.8-0.2,1.2-0.5
				c0.3-0.4,1.3-2,2-3h-3.4v-1.2h4.7c-0.2-0.6-0.5-1.5-0.9-2.1l1.2-0.4c0.4,0.8,0.9,1.8,1,2.5l-0.2,0.1h4v1.2h-5.1
				c-0.6,1-1.5,2.4-2.1,3.4l3.1-0.2c0.4-0.5,0.8-1.1,1.1-1.7L132,285.3L132,285.3z"/>
			<path d="M122.2,307.5c-0.2-0.6-0.8-1.6-1.2-2.5v9h-1.1v-8.9c-0.5,2-1.2,3.9-1.9,5.1c-0.1-0.4-0.4-1-0.6-1.3
				c0.9-1.4,1.8-4.2,2.3-6.5h-2v-1.3h2.1v-3.5h1.1v3.5h1.6v1c2.1-1.1,4.1-2.9,5-4.5l1.3,0.4c-0.1,0.2-0.2,0.4-0.4,0.6
				c1.4,1.2,3.6,2.5,5.4,3.1c-0.2,0.3-0.5,0.9-0.6,1.2c-1.9-0.8-4-2.1-5.5-3.5c-0.7,0.8-1.5,1.6-2.4,2.3h5.3v1.1h-5.4v-1
				c-0.6,0.5-1.3,0.9-1.9,1.3c-0.2-0.2-0.5-0.6-0.8-0.9v0.2H121v1.2c0.4,0.6,1.6,2.5,1.8,3L122.2,307.5L122.2,307.5z M126.2,309
				c-0.1,0.5-0.3,0.9-0.5,1.3c0.7,0.5,1.6,1.1,2,1.6l-0.7,0.9c-0.4-0.4-1.1-1-1.8-1.5c-0.7,1.2-1.6,2.1-2.7,2.9
				c-0.2-0.2-0.6-0.7-0.9-0.9c1.6-1,2.9-2.5,3.4-4.5L126.2,309L126.2,309z M123.5,304h4v4.3h-4V304z M124.5,307.4h1.9V305h-1.9
				V307.4z M131.2,308.9c-0.1,0.6-0.3,1.1-0.5,1.6c1.1,0.7,2.4,1.7,3.1,2.4l-0.8,0.9c-0.6-0.6-1.7-1.5-2.8-2.3
				c-0.5,1-1.3,1.9-2.2,2.5c-0.2-0.2-0.6-0.7-0.9-0.9c1.5-1,2.4-2.5,2.8-4.4L131.2,308.9L131.2,308.9z M128.6,304h4.1v4.3h-4.1V304z
				 M129.6,307.4h2V305h-2V307.4z"/>
			<path d="M133.6,319.1h-5.8c2.1,1.2,4.4,2.8,5.8,3.8l-0.9,0.9c-1.4-1.2-4.1-3-6.4-4.4v3.4h-1.3v-3.6c-1.6,2.1-4.3,4-6.7,4.9
				c-0.2-0.3-0.6-0.8-0.9-1.1c2.2-0.8,4.6-2.3,6.1-4h-5.8v-1.2h7.2v-2.3h1.3v2.3h7.3L133.6,319.1L133.6,319.1z M118,330.3h15.3v1.2
				H118V330.3z M130.6,323.4v5.8h-9.9v-5.8H130.6z M129.2,324.3H122v1.5h7.3V324.3z M129.2,326.8H122v1.5h7.3V326.8z"/>
			<path d="M123.4,344.5c-0.1-0.3-0.1-0.7-0.2-1.1c-4.3,0.6-4.8,0.8-5.2,1c-0.1-0.3-0.3-0.9-0.4-1.3c0.4-0.1,0.8-0.5,1.4-1.2
				c0.3-0.3,0.9-1.1,1.6-2.1c-2,0.2-2.4,0.3-2.7,0.5c-0.1-0.3-0.2-0.9-0.4-1.2c0.3-0.1,0.6-0.4,1-1c0.4-0.5,1.7-2.6,2.5-4.6l1.2,0.5
				c-0.8,1.7-1.9,3.4-2.9,4.8l2.1-0.2c0.5-0.8,1-1.6,1.4-2.4l1.2,0.7c-1.3,2.1-2.7,4.1-4.3,5.7l3.2-0.4c-0.2-0.6-0.4-1.2-0.6-1.7
				l1-0.3c0.5,1.2,1,2.8,1.2,3.7L123.4,344.5L123.4,344.5z M119.4,345.3c-0.2,1.5-0.5,3.2-0.9,4.4c-0.3-0.1-0.8-0.3-1.1-0.4
				c0.4-1.1,0.7-2.7,0.9-4.1L119.4,345.3L119.4,345.3z M121.5,345.1c0.2,1.2,0.4,2.8,0.5,3.9l-1.1,0.2c0-1-0.2-2.7-0.4-3.9
				L121.5,345.1z M123.4,344.6c0.4,1,0.8,2.2,0.9,3.1l-1.1,0.4c-0.1-0.9-0.5-2.1-0.9-3.1L123.4,344.6L123.4,344.6z M133.8,348.5v1.2
				h-10v-1.2h1.6v-13.9h7.2v13.9H133.8L133.8,348.5z M126.7,335.8v3.4h4.7v-3.4H126.7z M131.4,340.3h-4.7v3.4h4.7V340.3z
				 M126.7,348.5h4.7V345h-4.7V348.5z"/>
		</g>
		<g>
			<path d="M151.6,269.6c-0.7-0.6-2.2-1.4-3.3-1.9l0.7-1c1.1,0.5,2.6,1.2,3.4,1.8L151.6,269.6L151.6,269.6z M148.9,276.9
				c0.9-1.4,2.4-3.7,3.4-5.8l1,0.9c-0.9,1.9-2.2,4.1-3.3,5.8L148.9,276.9L148.9,276.9z M150,261.8c1.2,0.5,2.7,1.3,3.4,1.9l-0.8,1.1
				c-0.7-0.6-2.2-1.5-3.4-2L150,261.8z M163.2,278c-0.2-0.5-0.5-1.1-0.8-1.8c-6.7,0.8-7.4,1-7.9,1.2c-0.1-0.3-0.3-1-0.4-1.3
				c0.3-0.1,0.7-0.5,1.1-1.2c0.4-0.5,1.6-2.5,2.5-4.5h-4v-1.3h4.6V266h-3.8v-1.3h3.8v-3.1h1.3v3.1h4v1.3h-4v3.2h4.7v1.3h-5.1
				c-0.9,1.9-2.1,3.8-3.2,5.3l5.7-0.6c-0.5-0.8-1-1.6-1.6-2.3l1.1-0.5c1.3,1.6,2.6,3.7,3.1,5.1L163.2,278L163.2,278z"/>
			<path d="M154.5,293.6c-0.4-0.7-1.5-2.2-2.3-3.2c-0.4,2-1.3,3.9-3,5.5c-0.2-0.3-0.6-0.7-0.9-0.9c2.2-1.8,2.8-4.5,3-6.9h-2.9v-1.2
				h2.9c0-0.4,0-0.8,0-1.1v-1.8h-2.6v-1.2h2.6v-2.8h1.3v2.8h2.5v1.2h-2.5v1.8c0,0.4,0,0.8,0,1.1h2.9v1.2h-2.9c0,0.3-0.1,0.7-0.1,1
				c0.7,0.8,2.6,3,3,3.6L154.5,293.6L154.5,293.6z M163.2,294.5c0.3,0,0.4-0.2,0.4-1.4c0.2,0.2,0.8,0.4,1.1,0.5
				c-0.1,1.7-0.5,2.1-1.4,2.1h-1.5c-1.2,0-1.5-0.4-1.5-1.6v-3.9h-1.3c-0.3,2.7-1.3,4.7-4.3,5.8c-0.1-0.3-0.5-0.8-0.8-1
				c2.7-0.9,3.5-2.6,3.8-4.8h-1.7v-10h7.7v10h-2.1v3.9c0,0.4,0.1,0.4,0.4,0.4H163.2L163.2,294.5z M157.3,283.3h5.1v-1.8h-5.1V283.3z
				 M157.3,286.2h5.1v-1.8h-5.1V286.2z M157.3,289.1h5.1v-1.8h-5.1V289.1z"/>
			<path d="M163.9,303.9c-0.8,2.9-2.1,5.1-4,6.7c1.4,1,3,1.7,4.9,2.1c-0.3,0.3-0.7,0.9-0.9,1.3c-2-0.5-3.6-1.4-5.1-2.5
				c-1.7,1.2-3.6,2.1-5.7,2.6c-0.2-0.4-0.5-1-0.8-1.2c1.9-0.5,3.8-1.2,5.4-2.3c-1.6-1.5-2.7-3.5-3.6-5.8h-0.7
				c-0.4,2.9-1.4,6.1-4.3,8.9c-0.2-0.4-0.7-0.9-1-1.1c3.8-3.5,4.1-8,4.1-11.2v-1.6h-3.1v-1.3h11c-0.4,1.7-0.8,3.7-1.2,5.1h3.7
				l0.2-0.1L163.9,303.9L163.9,303.9z M153.7,301.4c0,0.7,0,1.4-0.1,2.2h3.9c0.3-1.1,0.7-2.5,1-3.8h-4.8V301.4z M155.5,304.8
				c0.7,1.9,1.9,3.6,3.4,4.9c1.5-1.3,2.6-2.9,3.3-4.9H155.5z"/>
			<path d="M163.9,316.5v15.6h-1.3v-0.8h-12.3v0.8H149v-15.6H163.9z M162.6,330.1v-12.4h-12.3v12.4H162.6z M156.6,327.3
				c-1.9,0.4-3.8,0.7-5.3,1l-0.2-1c1.4-0.2,3.4-0.6,5.4-0.9L156.6,327.3z M161,322.1c-0.4,1.7-1.1,3.1-2,4.4c0.4,1,0.9,1.6,1.4,1.7
				c0.2,0,0.4-0.7,0.5-1.8c0.2,0.2,0.6,0.5,0.9,0.6c-0.2,1.9-0.8,2.6-1.8,2.3c-0.8-0.2-1.4-0.8-1.8-1.8c-0.7,0.8-1.5,1.5-2.4,2.1
				c-0.2-0.2-0.6-0.6-0.8-0.9c1.1-0.6,2-1.4,2.8-2.4c-0.4-1.4-0.8-3.3-1-5.3h-5.5v-1h5.4c-0.1-0.6-0.1-1.3-0.1-1.9h1.1
				c0,0.6,0.1,1.3,0.1,1.9h3.9v1h-3.8c0.2,1.5,0.4,2.9,0.7,4.1c0.6-1,1-2,1.3-3.3L161,322.1L161,322.1z M155.9,322.1v3.5h-4v-3.5
				H155.9z M154.9,323h-2.1v1.9h2.1V323z M160.6,319.9c-0.4-0.4-1.2-1-1.9-1.3l0.6-0.7c0.7,0.3,1.5,0.8,1.9,1.2L160.6,319.9
				L160.6,319.9z"/>
			<path d="M157.9,334.1c-0.2,0.3-0.4,0.5-0.6,0.8c2.1,2.2,4.6,3.7,7.5,4.9c-0.3,0.3-0.7,0.8-0.9,1.2c-1-0.5-2-1-2.9-1.6v1.2h-9
				v-0.9c-0.9,0.5-1.8,1-2.8,1.5c-0.2-0.4-0.6-0.9-1-1.2c3.4-1.4,6.7-3.7,8.5-6.5L157.9,334.1L157.9,334.1z M151.1,342.9h11.1v7.1
				h-1.4V349h-8.4v1H151L151.1,342.9L151.1,342.9z M152.4,344v3.7h8.4V344H152.4z M161,339.5c-1.6-1-3-2.1-4.4-3.5
				c-1.2,1.4-2.6,2.5-4.1,3.5H161z"/>
			<path d="M154.2,362.5c-0.1-0.3-0.1-0.7-0.2-1.1c-4.3,0.6-4.8,0.8-5.2,1c-0.1-0.3-0.3-0.9-0.4-1.3c0.4-0.1,0.8-0.5,1.4-1.2
				c0.3-0.3,0.9-1.1,1.6-2.1c-2,0.2-2.4,0.3-2.7,0.5c-0.1-0.3-0.2-0.9-0.4-1.2c0.3-0.1,0.6-0.4,1-1c0.4-0.5,1.7-2.6,2.5-4.6l1.2,0.5
				c-0.9,1.7-1.9,3.4-2.9,4.8l2.1-0.2c0.5-0.8,1-1.6,1.4-2.4l1.1,0.7c-1.3,2.1-2.7,4.1-4.3,5.7l3.2-0.4c-0.2-0.6-0.4-1.2-0.6-1.7
				l1-0.3c0.5,1.2,1,2.8,1.2,3.7L154.2,362.5L154.2,362.5z M150.3,363.3c-0.2,1.5-0.5,3.2-0.9,4.4c-0.3-0.1-0.8-0.3-1.1-0.4
				c0.4-1.1,0.7-2.7,0.9-4.1L150.3,363.3L150.3,363.3z M152.3,363.1c0.2,1.2,0.4,2.8,0.5,3.9l-1.1,0.2c0-1-0.2-2.7-0.4-3.9
				L152.3,363.1z M154.2,362.6c0.4,1,0.8,2.2,0.9,3.1l-1.1,0.4c-0.1-0.9-0.5-2.1-0.9-3.1L154.2,362.6L154.2,362.6z M164.7,366.5v1.2
				h-10v-1.2h1.6v-13.9h7.2v13.9H164.7z M157.6,353.8v3.4h4.6v-3.4H157.6z M162.2,358.3h-4.6v3.4h4.6V358.3z M157.6,366.5h4.6V363
				h-4.6V366.5z"/>
		</g>
	</g>
	<g>
		<path class="st0" d="M62.9,240.9c-1.3,1-3.7,1.9-5.5,2.3c-0.2-0.3-0.5-0.8-0.8-1c1.8-0.3,4.1-1,5.3-1.8L62.9,240.9L62.9,240.9z
			 M72.3,238.4v1.1h-7.2v4.3h-1.3v-4.3h-7.1v-1.1h7.1v-1.4h-5.4v-1h5.4v-1.3h-6.3v-1.1h3.9c-0.2-0.5-0.5-1.2-0.9-1.7l1-0.2h-4.7
			v-1.1h2.9c-0.3-0.7-0.9-1.8-1.4-2.6l1.1-0.4c0.6,0.8,1.3,1.9,1.5,2.6l-0.9,0.4h2.2v-3.2h1.3v3.2h2.1v-3.2h1.3v3.2H69l-0.7-0.2
			c0.5-0.7,1.1-1.9,1.4-2.7L71,228c-0.5,0.9-1.1,1.9-1.6,2.6h2.8v1.1h-4.7l1.2,0.3c-0.4,0.6-0.8,1.2-1.2,1.7h4.1v1.1h-6.5v1.3h5.6v1
			h-5.6v1.4L72.3,238.4L72.3,238.4z M61.7,231.7c0.4,0.6,0.8,1.3,1,1.8l-0.7,0.2h5l-0.6-0.2c0.4-0.5,0.8-1.3,1.1-1.8H61.7
			L61.7,231.7z M67,240.4c1.7,0.6,4,1.4,5.2,2l-0.8,0.9c-1.2-0.6-3.5-1.5-5.2-2.1L67,240.4L67,240.4z"/>
		<path class="st0" d="M90.9,230.4c-0.5,1.2-1.2,2.2-2.1,3.1c1.2,0.7,2.5,1.3,3.9,1.6c-0.3,0.3-0.7,0.8-0.9,1.1
			c-1.5-0.4-2.9-1.1-4.1-1.9c-1.2,0.8-2.5,1.4-4,1.9c-0.1-0.2-0.3-0.5-0.4-0.7c-0.3,1.1-0.7,2.1-1.1,2.8l-0.9-0.5
			c0.4-0.8,0.7-1.9,1-2.9h-1.7v7.4c0,0.7-0.1,1-0.6,1.2c-0.5,0.2-1.2,0.2-2.2,0.2c-0.1-0.3-0.2-0.9-0.4-1.2c0.8,0,1.5,0,1.7,0
			c0.2,0,0.3-0.1,0.3-0.3v-5.7c-0.7,1.7-1.6,3.4-2.6,4.4c-0.1-0.4-0.5-0.9-0.7-1.3c1.1-1.1,2.2-3,2.9-4.8h-2.7v-1.2H81
			c-0.9-0.8-2.6-1.8-4-2.4l0.8-0.9c0.6,0.2,1.2,0.5,1.8,0.9c0.7-0.5,1.4-1.2,1.9-1.8h-5.1v-1.2h6.1l0.2-0.1l0.9,0.6
			c-0.7,1.1-1.8,2.2-2.9,3.1c0.6,0.4,1.1,0.7,1.5,1.1l-0.6,0.7h1.2l0.2-0.1l0.8,0.3c-0.1,0.3-0.2,0.6-0.3,1c1.2-0.4,2.3-0.8,3.3-1.4
			c-0.7-0.6-1.4-1.4-1.9-2.2c-0.5,0.5-0.9,1-1.4,1.4c-0.2-0.2-0.7-0.7-1-0.9c1.4-1.1,2.8-2.7,3.5-4.4l1.3,0.3
			c-0.2,0.5-0.5,1-0.8,1.6h6v1.1L90.9,230.4L90.9,230.4z M90.5,237.4h1.3c0,0,0,0.4-0.1,0.6c-0.3,3.4-0.7,4.7-1.2,5.2
			c-0.3,0.3-0.7,0.4-1.2,0.5c-0.4,0-1.2,0-2,0c0-0.3-0.1-0.9-0.4-1.2c0.8,0.1,1.6,0.1,1.9,0.1c0.3,0,0.4,0,0.6-0.2
			c0.4-0.3,0.6-1.4,0.9-3.9h-3c-0.6,2.3-1.9,4.2-4.8,5.4c-0.2-0.3-0.6-0.9-0.8-1.1c2.5-0.9,3.7-2.4,4.2-4.3h-2.8v-1.1h3.1
			c0.1-0.6,0.2-1.2,0.2-1.8h1.3c-0.1,0.6-0.1,1.2-0.2,1.8L90.5,237.4L90.5,237.4L90.5,237.4z M85.7,230.4c0.5,0.9,1.2,1.7,2,2.3
			c0.7-0.6,1.3-1.4,1.7-2.3H85.7z"/>
		<path class="st0" d="M112,241.3h-7.3v2.5h-1.3v-2.5h-7.2v-1.2h7.2v-1.4h-5.4v-6.3h12.4v6.3h-5.7v1.4h7.3V241.3z M103.4,231.6h-5.9
			v-3.5h5.9V231.6z M102.1,229h-3.5v1.7h3.5V229z M99.2,235.1h4.1v-1.5h-4.1V235.1z M103.3,237.7v-1.6h-4.1v1.6H103.3z M108.9,233.6
			h-4.3v1.5h4.3V233.6z M108.9,236.1h-4.3v1.6h4.3V236.1z M110.8,231.6h-6v-3.5h6V231.6z M109.5,229H106v1.7h3.5V229z"/>
		<path class="st0" d="M121.3,227.8c-0.5,1.3-1.1,2.6-1.8,3.8v12.1h-1.3v-10.1c-0.6,0.8-1.2,1.5-1.8,2.2c-0.1-0.3-0.5-1-0.8-1.3
			c1.8-1.7,3.4-4.4,4.4-7.1L121.3,227.8z M131.9,241.8v1.3h-11.2v-1.3h6.3c0.7-2.4,1.4-6.2,1.7-8.9l1.4,0.2
			c-0.5,2.8-1.2,6.3-1.9,8.7H131.9z M131.2,231.9h-9.7v-1.3h9.7V231.9z M123.9,241c-0.1-1.9-0.7-5.2-1.2-7.7l1.2-0.3
			c0.6,2.5,1.1,5.7,1.3,7.6L123.9,241L123.9,241z M125.9,230.4c-0.1-0.8-0.5-2-0.8-2.9l1.3-0.3c0.3,0.9,0.7,2.1,0.9,2.8L125.9,230.4
			L125.9,230.4z"/>
	</g>
	<g>
		<g>
			<path d="M345.1,276.1v1.3h-15.9v-1.3h7.2v-4.4h-5.5v-1.3h5.5v-3.9H330v-1.3h7.9c-0.7-0.8-2-2-3.1-2.8l1.1-0.8
				c1.1,0.8,2.6,2,3.3,2.9l-0.9,0.6h5.8v1.3h-6.4v3.9h5.6v1.3h-5.6v4.4L345.1,276.1L345.1,276.1z"/>
			<path d="M336.7,283.8h-7.4v-1.1h7.4V283.8z M330.1,285h5.9v1.1h-5.9V285z M335.9,288.4h-5.8v-1.1h5.8V288.4z M335.9,295h-4.5v0.9
				h-1.2v-6h5.7L335.9,295L335.9,295z M331.4,290.9v3h3.4v-3H331.4z M332.8,282.5c-0.2-0.6-0.8-1.7-1.3-2.4l1-0.5
				c0.5,0.7,1.1,1.7,1.4,2.3L332.8,282.5L332.8,282.5z M345.2,287.1h-3.7v8.9h-1.4v-8.9h-3.5v-1.3h3.5v-5.9h1.4v5.9h3.7V287.1z"/>
			<path d="M345.1,312.3v1.2h-15.9v-1.2h7.2v-2.4h-5.6v-1.2h5.6v-1.9h1.4v1.9h5.7v1.2h-5.7v2.4H345.1L345.1,312.3z M330.7,302.4
				h-1.3v-3.2h7.2c-0.2-0.5-0.5-1-0.7-1.4l1.3-0.4c0.3,0.5,0.7,1.2,0.9,1.8h6.7v3.2h-1.4v-1.9h-12.8V302.4L330.7,302.4z
				 M342.5,307.4c-0.2-0.3-0.6-0.7-1-1.1c-8.5,0.7-9.4,0.7-9.9,1c-0.1-0.3-0.2-0.9-0.4-1.2c0.3,0,0.8-0.3,1.2-0.6
				c0.4-0.3,1.5-1.1,2.5-2.2h-3.6V302h11.9v1.2h-6.5c-1,1-2,1.9-3,2.6l7-0.5c-0.5-0.5-1-0.9-1.5-1.3l1-0.6c1.2,1,2.8,2.3,3.5,3.3
				L342.5,307.4L342.5,307.4z"/>
		</g>
		<g>
			<path d="M272.4,272.5c-0.2-0.5-0.8-1.5-1.2-2.4v8h-1.3v-7.5c-0.6,1.7-1.4,3.3-2.2,4.3c-0.1-0.4-0.5-1-0.7-1.3
				c1-1.3,2.1-3.6,2.7-5.6h-2.3v-1.3h2.5v-2.9c-0.6,0.1-1.3,0.3-1.9,0.4c-0.1-0.3-0.2-0.8-0.4-1.1c1.7-0.3,3.6-0.9,4.8-1.4l0.8,1.1
				c-0.6,0.3-1.3,0.5-2.1,0.7v3.2h2.1v1.3h-2.1v0.4c0.5,0.6,1.8,2.5,2,3L272.4,272.5L272.4,272.5z M282.4,273.6
				c-0.2-1.5-0.9-3.7-1.7-5.3c-0.9,2.2-2,4.2-3.4,5.9v1.8c0,0.7,0.1,0.9,0.8,0.9h2.1c0.6,0,0.7-0.5,0.8-2.7c0.3,0.2,0.8,0.5,1.1,0.5
				c-0.1,2.6-0.5,3.3-1.8,3.3H278c-1.5,0-1.9-0.4-1.9-2v-0.2c-0.7,0.8-1.5,1.5-2.3,2.1c-0.2-0.2-0.8-0.7-1.1-0.9
				c1.3-0.9,2.4-2,3.4-3.2v-8.2h1.3v6.4c1.7-2.6,2.9-5.7,3.9-9.2l1.3,0.2c-0.5,1.8-1.1,3.6-1.8,5.2l1.1-0.3c0.8,1.7,1.5,3.9,1.8,5.3
				L282.4,273.6L282.4,273.6z M272.8,272.9c0.7-1.4,1.1-3.7,1.3-5.5l1,0.2c-0.2,1.8-0.6,4.3-1.3,5.7L272.8,272.9L272.8,272.9z
				 M279.2,265.3c-0.7-0.8-2.2-2-3.4-2.7l0.8-0.9c1.2,0.7,2.7,1.8,3.5,2.6L279.2,265.3z"/>
			<path d="M283.3,288.7v1h-15.9v-1h7.2v-1.1h-6v-0.9h6v-0.9h-5.5V285h5.5v-1.1h-7.2v-1h7.2v-1h-5.3v-0.9h5.3v-1.3h1.3v1.3h5.1v1.9
				h2.1v1h-2.1v2H276v0.9h6.1v0.9H276v1.1H283.3L283.3,288.7z M269.7,290.6h11.5v5.6h-1.3v-0.6H271v0.6h-1.3L269.7,290.6
				L269.7,290.6z M271,291.5v1.1h8.9v-1.1H271z M279.9,294.6v-1.1H271v1.1H279.9z M276,282.8h3.8v-1H276V282.8z M276,285h3.8v-1.1
				H276V285z"/>
			<path d="M283.3,312.4v1.2h-15.9v-1.2h7.2V310h-5.6v-1.2h5.6v-1.9h1.4v1.9h5.7v1.2h-5.7v2.4H283.3L283.3,312.4z M269,302.4h-1.3
				v-3.2h7.2c-0.2-0.5-0.5-1-0.7-1.4l1.3-0.4c0.3,0.5,0.7,1.2,0.9,1.8h6.7v3.2h-1.4v-1.9H269V302.4L269,302.4z M280.8,307.5
				c-0.2-0.3-0.6-0.7-1-1.1c-8.5,0.7-9.4,0.7-9.9,1c-0.1-0.3-0.2-0.9-0.4-1.2c0.3,0,0.8-0.3,1.2-0.6c0.4-0.3,1.5-1.1,2.5-2.2h-3.6
				v-1.2h11.9v1.2h-6.5c-1,1-2,1.9-3,2.6l7-0.5c-0.5-0.5-1-0.9-1.5-1.3l1-0.6c1.2,1,2.8,2.3,3.5,3.3L280.8,307.5L280.8,307.5z"/>
		</g>
		<g>
			<path d="M307,261.7c0,0.6,0,1.5-0.1,2.6c0.3,2.1,1.4,9.7,7.7,12.5c-0.4,0.3-0.8,0.8-1,1.1c-4.5-2.1-6.4-6.5-7.3-9.9
				c-0.8,3.6-2.7,7.6-7.1,10c-0.2-0.4-0.7-0.8-1.1-1c7.5-3.8,7.4-12.5,7.4-15.3L307,261.7L307,261.7z"/>
			<path d="M314.4,291h-1.9v3.2h-1.3v-0.8h-4.3v1.2c0,0.8-0.2,1.1-0.8,1.3c-0.6,0.2-1.5,0.2-3,0.2c-0.1-0.3-0.3-0.8-0.5-1.1
				c1.1,0,2.2,0,2.5,0c0.3,0,0.5-0.1,0.5-0.4v-1.2h-5.8v-1h5.8V291h-7.4v-1.1h7.4v-1.3h-5.6v-1h5.6v-1.3h-5.1v-3.2h5.1v-1h-7v-1.1h7
				v-1.4h1.3v1.4h7.2v1.1h-7.2v1h5.4v3.2h-5.4v1.3h5.6v2.2h1.9V291L314.4,291z M305.5,285.4v-1.3h-3.9v1.3H305.5z M306.8,284.1v1.3
				h4v-1.3H306.8z M306.8,289.9h4.3v-1.3h-4.3V289.9z M311.2,290.9h-4.3v1.4h4.3V290.9z"/>
			<path d="M314.2,312.4v1.2h-15.9v-1.2h7.2V310H300v-1.2h5.6v-1.9h1.4v1.9h5.7v1.2h-5.7v2.4H314.2L314.2,312.4z M299.9,302.4h-1.3
				v-3.2h7.2c-0.2-0.5-0.5-1-0.7-1.4l1.3-0.4c0.3,0.5,0.7,1.2,0.9,1.8h6.7v3.2h-1.4v-1.9h-12.8V302.4L299.9,302.4z M311.7,307.4
				c-0.2-0.3-0.6-0.7-1-1.1c-8.5,0.7-9.4,0.7-9.9,1c-0.1-0.3-0.2-0.9-0.4-1.2c0.3,0,0.8-0.3,1.2-0.6c0.4-0.3,1.5-1.1,2.5-2.2h-3.6
				V302h11.9v1.2h-6.5c-1,1-2,1.9-3,2.6l7-0.5c-0.5-0.5-1-0.9-1.5-1.3l1-0.6c1.2,1,2.8,2.3,3.5,3.3L311.7,307.4L311.7,307.4z"/>
		</g>
		<g>
			<path d="M375.8,266.2c-0.5,3-1.2,5.4-2.4,7.4c1,1.5,2.2,2.6,3.8,3.4c-0.3,0.3-0.7,0.8-0.9,1.1c-1.5-0.8-2.7-1.9-3.6-3.3
				c-1,1.4-2.4,2.5-4,3.4c-0.1-0.3-0.5-0.9-0.8-1.2c1.8-0.9,3.1-2,4.1-3.4c-0.8-1.5-1.4-3.2-1.9-5.1c-0.4,0.7-0.8,1.4-1.2,2
				c-0.2-0.2-0.8-0.7-1.1-0.9l0.1-0.1h-2v4.6l3.1-0.7l0.1,1.2c-3,0.7-6.1,1.5-8.4,2l-0.2-1.3l1.1-0.2v-8h1.2v7.7l1.8-0.4v-10h-3.8
				v-1.3h8.2v1.3h-3.1v3.9h2.5v0.6c1.2-1.9,2-4.4,2.5-7.1l1.3,0.2c-0.2,1.1-0.5,2.1-0.8,3.1h5.6v1.3L375.8,266.2L375.8,266.2z
				 M370.9,266.5c0.4,2.1,1,4.1,1.8,5.7c0.9-1.7,1.4-3.7,1.8-6H371L370.9,266.5L370.9,266.5z"/>
			<path d="M374.9,280.6c0,6.7,0,14,1.1,14c0.2,0,0.3-1.2,0.4-2.8c0.2,0.3,0.6,0.7,0.8,0.9c-0.1,2.3-0.4,3.2-1.3,3.2
				c-2.2,0-2.1-6.4-2.2-14.2h-9.7v4.5c0,2.9-0.3,7-2.3,9.7c-0.2-0.2-0.8-0.6-1.1-0.8c1.9-2.6,2.1-6.2,2.1-9v-5.8L374.9,280.6
				L374.9,280.6z M371.6,291.2c0.9,1.2,1.8,2.8,2.1,3.9l-1.1,0.4c-0.1-0.4-0.3-0.9-0.5-1.4c-3,0.2-6.1,0.4-8.2,0.6l-0.1-1.2
				c1.1,0,2.6-0.1,4.2-0.2v-2.5h-3.1v-4.9h3.1v-1.7h-3.4V283h8v1.1h-3.5v1.7h3.2v4.9h-3.2v2.5l2.3-0.1c-0.3-0.5-0.6-1.1-1-1.5
				L371.6,291.2L371.6,291.2z M368.1,289.7V287h-2v2.8H368.1z M369.3,287v2.8h2V287H369.3z"/>
			<path d="M376.8,312.3v1.2h-15.9v-1.2h7.2v-2.4h-5.6v-1.2h5.6v-1.9h1.4v1.9h5.7v1.2h-5.7v2.4H376.8L376.8,312.3z M362.4,302.4
				h-1.3v-3.2h7.2c-0.2-0.5-0.5-1-0.7-1.4l1.3-0.4c0.3,0.5,0.7,1.2,0.9,1.8h6.7v3.2h-1.4v-1.9h-12.8V302.4L362.4,302.4z
				 M374.2,307.4c-0.2-0.3-0.6-0.7-1-1.1c-8.5,0.7-9.4,0.7-9.9,1c-0.1-0.3-0.2-0.9-0.4-1.2c0.3,0,0.8-0.3,1.2-0.6
				c0.4-0.3,1.5-1.1,2.5-2.2h-3.6V302h11.9v1.2h-6.5c-1,1-2,1.9-3,2.6l7-0.5c-0.5-0.5-1-0.9-1.5-1.3l1-0.6c1.2,1,2.8,2.3,3.5,3.3
				L374.2,307.4L374.2,307.4z"/>
		</g>
	</g>
	<g>
		<path class="st0" d="M288.5,239.5h3.1v1.2h-3.1v3.2h-1.2v-3.2h-3.2v-1.2h3.2v-1.4h-2.5v-6.2h2.5v-1.3h-2.9v-1.2h2.9v-2h1.2v2h2.9
			v1.2h-2.9v1.3h2.6v6.2h-2.6V239.5z M285.8,234.5h1.7v-1.6h-1.7V234.5z M285.8,237.1h1.7v-1.7h-1.7V237.1z M290.1,232.8h-1.7v1.6
			h1.7V232.8z M290.1,235.4h-1.7v1.7h1.7V235.4z M296.7,231.1v1.6h3.5v9.7c0,0.6-0.1,1-0.5,1.2c-0.4,0.2-1,0.2-1.9,0.2
			c0-0.3-0.2-0.9-0.4-1.2c0.6,0,1.1,0,1.3,0s0.2-0.1,0.2-0.2v-2.5h-2.3v3.8h-1.2v-3.8h-2.2v3.9H292v-11.1h3.4v-1.6h-3.8v-1.2h3.8
			v-2.5h1.2v2.5h2.9c-0.5-0.6-1.4-1.3-2.2-1.9l0.8-0.6c0.8,0.5,1.8,1.3,2.2,1.8l-0.7,0.7h0.9v1.2L296.7,231.1L296.7,231.1z
			 M293.2,233.9v1.8h2.2v-1.8H293.2z M295.5,238.7v-1.9h-2.2v1.9H295.5z M296.7,233.9v1.8h2.3v-1.8H296.7z M298.9,238.7v-1.9h-2.3
			v1.9H298.9z"/>
		<path class="st0" d="M312.1,240.2c-2.8,0.7-5.8,1.4-8,1.9l-0.2-1.4l1.3-0.2v-12.2h5.9v11l1-0.2L312.1,240.2L312.1,240.2z
			 M306.4,229.5v2.6h3.4v-2.6H306.4z M309.8,233.3h-3.4v2.6h3.4V233.3z M306.4,240.2c1-0.2,2.2-0.5,3.4-0.7v-2.4h-3.4V240.2z
			 M319.9,231.5c0,0,0,0.5,0,0.7c-0.2,7.5-0.4,10.1-1,10.9c-0.3,0.5-0.7,0.6-1.3,0.7c-0.5,0.1-1.5,0-2.5,0c0-0.4-0.2-0.9-0.4-1.3
			c1,0.1,2,0.1,2.3,0.1c0.3,0,0.5,0,0.7-0.3c0.5-0.5,0.6-2.9,0.8-9.5h-2.8c-0.3,4.7-1.3,8.7-4.9,11.1c-0.2-0.3-0.6-0.8-1-1
			c3.4-2.1,4.3-5.9,4.6-10.1h-2.9v-1.3h2.9c0-1.3,0-2.7,0-4.1h1.3c0,1.4,0,2.7,0,4.1L319.9,231.5L319.9,231.5z"/>
		<path class="st0" d="M339.9,241.3h-7.3v2.5h-1.4v-2.5h-7.1v-1.2h7.1v-1.4h-5.4v-6.3h12.4v6.3h-5.6v1.4h7.3V241.3z M331.4,231.6
			h-5.9v-3.5h5.9V231.6z M330.1,229h-3.5v1.7h3.5V229z M327.2,235.1h4.1v-1.5h-4.1V235.1z M331.3,237.7v-1.6h-4.1v1.6H331.3z
			 M336.9,233.6h-4.3v1.5h4.3V233.6z M336.9,236.1h-4.3v1.6h4.3V236.1z M338.8,231.6h-6v-3.5h6V231.6z M337.5,229H334v1.7h3.5V229z"
			/>
		<path class="st0" d="M349.2,227.8c-0.5,1.3-1.1,2.6-1.8,3.8v12.1h-1.3v-10.1c-0.6,0.8-1.2,1.5-1.8,2.2c-0.1-0.3-0.5-1-0.8-1.3
			c1.8-1.7,3.4-4.4,4.4-7.1L349.2,227.8z M359.9,241.8v1.3h-11.2v-1.3h6.3c0.6-2.4,1.4-6.2,1.7-8.9l1.4,0.2
			c-0.5,2.8-1.2,6.3-1.9,8.7H359.9z M359.2,231.9h-9.7v-1.3h9.7V231.9z M351.9,241c-0.1-1.9-0.7-5.2-1.2-7.7l1.2-0.3
			c0.6,2.5,1.1,5.7,1.3,7.6L351.9,241L351.9,241z M353.9,230.4c-0.1-0.8-0.5-2-0.9-2.9l1.3-0.3c0.3,0.9,0.7,2.1,0.9,2.8L353.9,230.4
			L353.9,230.4z"/>
	</g>
</g>
</svg>
