<?xml version="1.0" encoding="utf-8"?>
<!-- Generator: Adobe Illustrator 26.3.1, SVG Export Plug-In . SVG Version: 6.00 Build 0)  -->
<svg version="1.1" id="圖層_1" xmlns="http://www.w3.org/2000/svg" xmlns:xlink="http://www.w3.org/1999/xlink" x="0px" y="0px"
	 width="413px" height="79px" viewBox="0 0 413 79" style="enable-background:new 0 0 413 79;" xml:space="preserve">
<style type="text/css">
	.st0{fill:#262626;}
	.st1{fill:url(#SVGID_1_);}
	.st2{fill:url(#SVGID_00000009570288246943022230000014520299418339240599_);}
	.st3{fill:url(#SVGID_00000075855198304818718690000008707725676769899939_);}
	.st4{fill:url(#SVGID_00000164477243444901202000000013318676690137568683_);}
	.st5{fill:url(#SVGID_00000175299168261278970500000010723326388923837833_);}
	.st6{fill:url(#SVGID_00000022560580605097811420000009369960800807970968_);}
	.st7{fill:url(#SVGID_00000036232060174530041780000005956118512792677517_);}
	.st8{fill:#231815;}
</style>
<g>
	<path class="st0" d="M2.2,45.2h2.6c0.3,0,0.6,0.1,0.9,0.3H3.1C2.8,45.3,2.4,45.2,2.2,45.2L2.2,45.2z"/>
	<path class="st0" d="M2.3,45.2h2.6c0.1,0,0.3,0,0.3,0H2.6C2.4,45.2,2.4,45.2,2.3,45.2"/>
	<path class="st0" d="M2.6,45.2h2.6c0.1,0,0.4,0.1,0.5,0.3H3.1C3,45.3,2.8,45.3,2.6,45.2"/>
	<path class="st0" d="M3.1,45.4h2.6l4,2.3H7.1L3.1,45.4z"/>
	<path class="st0" d="M15.1,22.6h2.6c0.3,0,0.6,0.1,0.9,0.3H16C15.7,22.8,15.4,22.6,15.1,22.6L15.1,22.6z"/>
	<path class="st0" d="M15.2,22.6h2.6c0.1,0,0.3,0,0.4,0.1h-2.6C15.4,22.6,15.3,22.6,15.2,22.6"/>
	<path class="st0" d="M15.6,22.8h2.6c0.1,0,0.4,0.1,0.5,0.3h-2.6C15.8,22.9,15.7,22.8,15.6,22.8"/>
	<path class="st0" d="M16,22.9h2.6l5,2.8H21L16,22.9z"/>
	<path class="st0" d="M7.1,47.7h2.6c1.3,0.8,2.3,1.9,3,3.3c0.1,0.4,3.1,7.7,7.1,12.2c2.7,2.7,5.8,5,9,7.1c0.6,0.4,1.3,0.5,1.9,0.5
		H28c-0.6,0-1.4-0.1-1.9-0.5c-3.2-2.1-6.3-4.5-9-7.1c-4-4.5-6.9-11.7-7.1-12.2C9.4,49.7,8.4,48.5,7.1,47.7L7.1,47.7z"/>
	<path class="st0" d="M7.1,47.7h2.6c1.3,0.8,2.3,1.9,3,3.3c0.1,0.4,3.1,7.7,7.1,12.2c2.7,2.7,5.8,5,9,7.1c0.3,0.1,0.5,0.3,0.8,0.4
		h-2.6c-0.3-0.1-0.5-0.3-0.8-0.4c-3.2-2.1-6.3-4.5-9-7.1c-4-4.5-6.9-11.7-7.1-12.2C9.4,49.7,8.4,48.5,7.1,47.7"/>
	<path class="st0" d="M26.9,70.6h2.6c0.3,0.1,0.6,0.1,0.9,0.1h-2.6C27.4,70.8,27.1,70.8,26.9,70.6"/>
	<path class="st0" d="M28.7,78.7h2.6c-0.3,0.1-0.5,0.1-0.6,0.1H28C28.2,78.9,28.4,78.9,28.7,78.7L28.7,78.7z"/>
	<path class="st0" d="M28.7,78.7h2.6c-0.3,0.1-0.5,0.1-0.6,0.1H28C28.2,78.9,28.4,78.9,28.7,78.7"/>
	<path class="st0" d="M29.5,78.4H32l-0.8,0.4h-2.6L29.5,78.4z"/>
	<path class="st0" d="M29.5,78.4H32l-0.8,0.4h-2.6L29.5,78.4z"/>
	<path class="st0" d="M21,25.7h2.6l24.1,21.5H45L21,25.7z"/>
	<path class="st0" d="M21,25.7h2.6l25.6,14.5h-2.6L21,25.7z"/>
	<path class="st0" d="M46.3,50.6h2.6c0.3,1,0.4,2.1,0.3,3.1c0,2.1-0.3,4.1-0.9,6C46.6,65.4,32,78.4,32,78.4h-2.6
		c0,0,14.7-13.1,16.2-18.7c0.5-1.9,0.9-4,0.9-6C46.7,52.6,46.6,51.6,46.3,50.6L46.3,50.6z"/>
	<path class="st0" d="M46.3,50.6h2.6c0.3,1,0.4,2.1,0.3,3.1c0,2.1-0.3,4.1-0.9,6C46.6,65.4,32,78.4,32,78.4h-2.6
		c0,0,14.7-13.1,16.2-18.7c0.5-1.9,0.9-4,0.9-6C46.7,52.6,46.6,51.6,46.3,50.6"/>
	<path class="st0" d="M46.6,40.3h2.6l4.1,2.3h-2.6L46.6,40.3z"/>
	<path class="st0" d="M46.6,40.3h2.6l4.1,2.3h-2.6L46.6,40.3z"/>
	<path class="st0" d="M50.7,42.6h2.6l2.1,1.3h-2.6L50.7,42.6z"/>
	<path class="st0" d="M54.4,47.1H57l-0.4,1c-0.3,1.2-0.6,2.3-1,3.6c-1.9,5.9-5,11.3-9,16C43,71.8,34.5,76.9,34,77.2
		c-0.6,0.4-1.4,0.8-1.9,1.2h-2.6c0.5-0.3,1.3-0.8,1.9-1.2c0.4-0.3,8.9-5.4,12.6-9.5c4.1-4.6,7.1-10,9-16c0.4-1.2,0.8-2.4,1-3.6
		L54.4,47.1z"/>
	<path class="st0" d="M54.4,47.1H57l-0.4,1c-0.3,1.2-0.6,2.3-1,3.6c-1.9,5.9-5,11.3-9,16C43,71.8,34.5,76.9,34,77.2
		c-0.6,0.4-1.4,0.8-1.9,1.2h-2.6c0.5-0.3,1.3-0.8,1.9-1.2c0.4-0.3,8.9-5.4,12.6-9.5c4.1-4.6,7.1-10,9-16c0.4-1.2,0.8-2.4,1-3.6
		L54.4,47.1"/>
	<path class="st0" d="M52.8,43.9h2.6c0.5,0.4,1,0.8,1.3,1.4c0.3,0.5,0.4,1.3,0.3,1.9h-2.6c0.1-0.6,0-1.3-0.3-1.9
		C53.8,44.6,53.4,44.1,52.8,43.9L52.8,43.9z"/>
	<path class="st0" d="M52.8,43.9h2.6c0.5,0.4,1,0.8,1.3,1.4c0.3,0.5,0.4,1.3,0.3,1.9h-2.6c0.1-0.6,0-1.3-0.3-1.9
		C53.8,44.6,53.4,44.1,52.8,43.9"/>
	<path class="st0" d="M9.4,21.7H6.8v7.6h2.6V21.7z"/>
	<path class="st0" d="M6.8,29.3h2.6c-0.1,0.8,0,1.5,0.4,2.2c0.4,0.6,0.9,1.2,1.7,1.5H8.9c-0.8-0.3-1.3-0.9-1.7-1.5
		C6.8,30.9,6.7,30.1,6.8,29.3z"/>
	<path class="st0" d="M6.8,29.3h2.6c-0.1,0.8,0,1.5,0.4,2.2c0.4,0.6,0.9,1.2,1.7,1.5H8.9c-0.8-0.3-1.3-0.9-1.7-1.5
		C6.8,30.9,6.7,30.1,6.8,29.3"/>
	<path class="st0" d="M9,18.4h2.6c-0.6,0.3-1.2,0.8-1.5,1.4c-0.4,0.6-0.6,1.3-0.6,1.9H6.8c0-0.6,0.3-1.4,0.6-1.9
		C7.8,19.2,8.4,18.7,9,18.4L9,18.4z"/>
	<path class="st0" d="M9,18.4h2.6c-0.6,0.3-1.2,0.8-1.5,1.4c-0.4,0.6-0.6,1.3-0.6,1.9H6.8c0-0.6,0.3-1.4,0.6-1.9
		C7.8,19.2,8.4,18.7,9,18.4"/>
	<path class="st0" d="M27.8,0.1h2.6c-2.4,3.3-11.5,10-14.9,12.4c-1,0.6-1.9,1.5-2.6,2.6c-0.6,1-1.2,2.2-1.3,3.5H9
		c0.1-1.2,0.6-2.4,1.3-3.5c0.6-1,1.5-1.9,2.6-2.6C16.3,10.2,25.3,3.5,27.8,0.1z"/>
	<path class="st0" d="M27.8,0.1h2.6c-2.4,3.3-11.5,10-14.9,12.4c-1,0.6-1.9,1.5-2.6,2.6c-0.6,1-1.2,2.2-1.3,3.5H9
		c0.1-1.2,0.6-2.4,1.3-3.5c0.6-1,1.5-1.9,2.6-2.6C16.3,10.2,25.3,3.5,27.8,0.1z"/>
	<path class="st0" d="M28,8.7h2.6c-0.6,0-1.4,0.1-1.9,0.5c-0.1,0-1.5,1-4.1,2.6c-4.2,2.6-12.5,6.2-13,6.4H9c0.4-0.3,8.7-3.9,13-6.4
		c2.6-1.5,4.1-2.6,4.2-2.6C26.6,9,27.3,8.7,28,8.7z"/>
	<path class="st0" d="M28,8.7h2.6c-0.6,0-1.4,0.1-1.9,0.5c-0.1,0-1.5,1-4.1,2.6c-4.2,2.6-12.5,6.2-13,6.4H9c0.4-0.3,8.7-3.9,13-6.4
		c2.6-1.5,4.1-2.6,4.2-2.6C26.6,9,27.3,8.7,28,8.7z"/>
	<path class="st0" d="M28,14.3h2.6c0.1,0,0.1,0,0.3,0h-2.6C28.2,14.3,28,14.3,28,14.3z"/>
	<path class="st0" d="M8.9,33.1h2.6l24.1,21.5h-2.6L8.9,33.1z"/>
	<path class="st0" d="M28.3,14.3h2.6l5.3,3.1h-2.6L28.3,14.3z"/>
	<path class="st0" d="M33.5,17.4H36c0.1,0,0.1,0.1,0.3,0.3c0,0.1,0,0.3,0,0.4c0,0.1-0.1,0.3-0.3,0.3c-0.1,0.1-0.3,0.1-0.4,0.1h-2.6
		c0.1,0,0.3,0,0.4-0.1c0.1-0.1,0.1-0.1,0.3-0.3c0-0.1,0-0.3,0-0.4S33.6,17.5,33.5,17.4L33.5,17.4z"/>
	<path class="st0" d="M33.5,17.4H36c0.1,0,0.1,0.1,0.3,0.3c0,0.1,0,0.3,0,0.4c0,0.1-0.1,0.3-0.3,0.3c-0.1,0.1-0.3,0.1-0.4,0.1h-2.6
		c0.1,0,0.3,0,0.4-0.1c0.1-0.1,0.1-0.1,0.1-0.3c0-0.1,0-0.3,0-0.4C33.7,17.5,33.6,17.5,33.5,17.4"/>
	<path class="st0" d="M8.9,33.1h2.6l26.9,15.3h-2.6L8.9,33.1z"/>
	<path class="st0" d="M37.8,54.9h2.6c0,0.9-0.5,1.4-1.2,1.4h-2.6C37.3,56.5,37.8,55.8,37.8,54.9z"/>
	<path class="st0" d="M37.8,54.9h2.6c0,0.9-0.5,1.4-1.2,1.4h-2.6C37.3,56.5,37.8,55.8,37.8,54.9z"/>
	<path class="st0" d="M35.8,48.4h2.6c0.6,0.4,1,0.9,1.4,1.5s0.5,1.3,0.6,2.1h-2.6c0-0.8-0.3-1.4-0.6-2.1
		C36.9,49.3,36.4,48.8,35.8,48.4L35.8,48.4z"/>
	<path class="st0" d="M35.8,48.4h2.6c0.6,0.4,1,0.9,1.4,1.5s0.5,1.3,0.6,2.1h-2.6c0-0.8-0.3-1.4-0.6-2.1
		C36.9,49.3,36.4,48.8,35.8,48.4"/>
	<path class="st0" d="M40.4,51.9h-2.6v3.1h2.6V51.9z"/>
	<path class="st0" d="M28,0.1h2.6c0.4,0,0.6,0.1,1,0.3l1,0.8l0.5,0.4l1.5,1C36,3.5,38,4.8,40.3,6c4.5,2.4,9,4.6,13.8,6.7
		c1.2,0.5,2.7,1,3.3,1.3c0.6,0.3,1.2,1.4,1.2,2.7H56c0-1.3-0.5-2.6-1.2-2.7c-0.6-0.3-2.2-0.8-3.3-1.3c-4.8-1.9-9.3-4.2-13.8-6.7
		c-2.3-1.4-4.1-2.6-5.5-3.5l-1.5-1l-0.5-0.4l-1-0.8C28.7,0.3,28.3,0.1,28,0.1L28,0.1z"/>
	<path class="st0" d="M28,0.1h2.6c0.1,0,0.3,0,0.4,0.1h-2.6C28.3,0.1,28.2,0.1,28,0.1"/>
	<path class="st0" d="M28.4,0.3H31c0.1,0,0.4,0.1,0.5,0.3l1,0.8l0.5,0.4l1.5,1c1.3,0.9,3.2,2.2,5.5,3.5c4.5,2.4,9.1,4.6,13.8,6.7
		c1.2,0.5,2.7,1,3.3,1.3c0.6,0.3,1.2,1.4,1.2,2.7h-2.6c0-1.3-0.5-2.6-1.2-2.7c-0.6-0.3-2.2-0.8-3.3-1.3c-4.8-1.9-9.3-4.2-13.8-6.7
		c-2.3-1.4-4.1-2.6-5.5-3.5l-1.5-1L30,1.3l-1-0.8C28.8,0.3,28.7,0.3,28.4,0.3"/>
	<path class="st0" d="M58.5,16.7H56v12.4h2.6V16.7z"/>
	<path class="st0" d="M56,32.6h2.6v1.2c0,1,0,1.7,0,1.7c0,0.9-0.5,1.4-1.3,1.4h-2.6c0.6,0,1.2-0.5,1.3-1.4c0,0,0-0.6,0-1.7V32.6z"/>
	<path class="st0" d="M56,32.6h2.6v1.2c0,1,0,1.7,0,1.7c0,0.9-0.5,1.4-1.3,1.4h-2.6c0.6,0,1.2-0.5,1.3-1.4c0,0,0-0.6,0-1.7V32.6z"/>
	<path class="st0" d="M56,29.1h2.6c0,1.3,0,2.8,0,3.5H56C56,31.9,56,30.4,56,29.1z"/>
	<path class="st0" d="M56,29.1h2.6c0,1.3,0,2.8,0,3.5H56C56,31.9,55.8,30.4,56,29.1"/>
	
		<linearGradient id="SVGID_1_" gradientUnits="userSpaceOnUse" x1="54.346" y1="55.6647" x2="8.4613" y2="143.7055" gradientTransform="matrix(1 0 0 1 0 -68)">
		<stop  offset="0" style="stop-color:#B5B5B6"/>
		<stop  offset="0.16" style="stop-color:#F4F4F4"/>
		<stop  offset="0.33" style="stop-color:#9FA0A0"/>
		<stop  offset="0.5" style="stop-color:#FFFFFF"/>
		<stop  offset="0.56" style="stop-color:#E1E1E1"/>
		<stop  offset="0.67" style="stop-color:#9FA0A0"/>
		<stop  offset="0.84" style="stop-color:#FFFFFF"/>
		<stop  offset="1" style="stop-color:#898989"/>
	</linearGradient>
	<path class="st1" d="M15.1,22.6c0.3,0,0.6,0.1,0.9,0.3l5,2.8L45,47.2L16,30.8c-0.6-0.4-1-0.9-1.4-1.5c-0.4-0.6-0.5-1.3-0.6-2.1
		v-3.1C13.9,23.2,14.4,22.6,15.1,22.6z"/>
	
		<linearGradient id="SVGID_00000141451531001080261130000002667784211658645893_" gradientUnits="userSpaceOnUse" x1="56.9218" y1="56.995" x2="11.0242" y2="145.0357" gradientTransform="matrix(1 0 0 1 0 -68)">
		<stop  offset="0" style="stop-color:#B5B5B6"/>
		<stop  offset="0.16" style="stop-color:#F4F4F4"/>
		<stop  offset="0.33" style="stop-color:#9FA0A0"/>
		<stop  offset="0.5" style="stop-color:#FFFFFF"/>
		<stop  offset="0.56" style="stop-color:#E1E1E1"/>
		<stop  offset="0.67" style="stop-color:#9FA0A0"/>
		<stop  offset="0.84" style="stop-color:#FFFFFF"/>
		<stop  offset="1" style="stop-color:#898989"/>
	</linearGradient>
	<path style="fill:url(#SVGID_00000141451531001080261130000002667784211658645893_);" d="M2.2,45.2c0.3,0,0.6,0.1,0.9,0.3l4,2.3
		c1.3,0.8,2.3,1.9,3,3.3c0.1,0.4,3.1,7.7,7.1,12.2c2.7,2.7,5.8,5,9,7.1c0.6,0.4,1.3,0.5,1.9,0.5s1.4-0.1,1.9-0.5
		c3.2-2.1,6.2-4.5,9-7.1c2.8-3.3,5.1-7.1,6.8-11.2c0.5-1.3,0.5-1.4,0.5-1.4c0.3,1,0.4,2.1,0.3,3.1c0,2.1-0.4,4.1-0.9,6
		c-1.5,5.7-16.2,18.7-16.2,18.7l-0.8,0.4C28.4,79,28.2,79,28,79c-0.3,0-0.5,0-0.6-0.1c-0.4-0.1-1.5-0.9-2.7-1.5
		c-0.4-0.3-8.9-5.4-12.6-9.5c-3.3-3.9-6-8.4-8-13.1c-1-2.6-1.8-5.3-2.4-8C1.3,45.7,1.7,45.2,2.2,45.2z"/>
	
		<linearGradient id="SVGID_00000098917405716911726070000010296061521992374706_" gradientUnits="userSpaceOnUse" x1="61.9136" y1="59.6106" x2="16.016" y2="147.6383" gradientTransform="matrix(1 0 0 1 0 -68)">
		<stop  offset="0" style="stop-color:#B5B5B6"/>
		<stop  offset="0.16" style="stop-color:#F4F4F4"/>
		<stop  offset="0.33" style="stop-color:#9FA0A0"/>
		<stop  offset="0.5" style="stop-color:#FFFFFF"/>
		<stop  offset="0.56" style="stop-color:#E1E1E1"/>
		<stop  offset="0.67" style="stop-color:#9FA0A0"/>
		<stop  offset="0.84" style="stop-color:#FFFFFF"/>
		<stop  offset="1" style="stop-color:#898989"/>
	</linearGradient>
	<path style="fill:url(#SVGID_00000098917405716911726070000010296061521992374706_);" d="M21,25.7l25.6,14.5l4.1,2.3l2.2,1.2
		c0.5,0.4,1,0.8,1.3,1.4c0.3,0.5,0.4,1.2,0.3,1.8L54,48.1c-0.3,1.2-0.6,2.3-1,3.6c-1.9,5.9-5,11.3-9,16c-3.6,4.1-12.1,9.3-12.6,9.5
		c-0.6,0.4-1.4,0.8-1.9,1.2c0,0,14.7-13.1,16.2-18.7c0.5-1.9,0.9-4,0.9-6c0-1-0.1-2.1-0.4-3.1c0.1-0.6,0.1-1.3-0.1-1.9
		c-0.3-0.6-0.6-1.2-1.2-1.5L21,25.7z"/>
	
		<linearGradient id="SVGID_00000149343229734771115720000010492949029193359790_" gradientUnits="userSpaceOnUse" x1="44.0213" y1="50.2735" x2="-1.8765" y2="138.3141" gradientTransform="matrix(1 0 0 1 0 -68)">
		<stop  offset="0" style="stop-color:#B5B5B6"/>
		<stop  offset="0.16" style="stop-color:#F4F4F4"/>
		<stop  offset="0.33" style="stop-color:#9FA0A0"/>
		<stop  offset="0.5" style="stop-color:#FFFFFF"/>
		<stop  offset="0.56" style="stop-color:#E1E1E1"/>
		<stop  offset="0.67" style="stop-color:#9FA0A0"/>
		<stop  offset="0.84" style="stop-color:#FFFFFF"/>
		<stop  offset="1" style="stop-color:#898989"/>
	</linearGradient>
	<path style="fill:url(#SVGID_00000149343229734771115720000010492949029193359790_);" d="M27.8,0.1c-2.4,3.3-11.5,10-15.1,12.4
		c-1,0.6-1.9,1.5-2.6,2.6c-0.6,1-1.2,2.2-1.3,3.5c-0.6,0.3-1.2,0.8-1.5,1.4c-0.4,0.6-0.6,1.3-0.6,1.9v7.6c-0.1,0.8,0,1.5,0.4,2.2
		c0.4,0.6,0.9,1.2,1.7,1.5l24.1,21.5L5.4,39l-3.7-2.2c-0.5-0.3-0.9-0.6-1.2-1c-0.3-0.4-0.4-0.9-0.5-1.4v-1.8c0-0.6,0.1-2.2,0.1-3.5
		V16.7c0-1.3,0.5-2.6,1.2-2.7c0.6-0.3,2.2-0.8,3.3-1.3c4.5-1.9,9-4,13.4-6.3c4.5-2.7,7.7-5,8-5.1l1-0.8C27.3,0.3,27.5,0.1,27.8,0.1
		L27.8,0.1z"/>
	
		<linearGradient id="SVGID_00000003796440997268012310000003866904507350144432_" gradientUnits="userSpaceOnUse" x1="46.0845" y1="51.3564" x2="0.1869" y2="139.384" gradientTransform="matrix(1 0 0 1 0 -68)">
		<stop  offset="0" style="stop-color:#B5B5B6"/>
		<stop  offset="0.16" style="stop-color:#F4F4F4"/>
		<stop  offset="0.33" style="stop-color:#9FA0A0"/>
		<stop  offset="0.5" style="stop-color:#FFFFFF"/>
		<stop  offset="0.56" style="stop-color:#E1E1E1"/>
		<stop  offset="0.67" style="stop-color:#9FA0A0"/>
		<stop  offset="0.84" style="stop-color:#FFFFFF"/>
		<stop  offset="1" style="stop-color:#898989"/>
	</linearGradient>
	<path style="fill:url(#SVGID_00000003796440997268012310000003866904507350144432_);" d="M28,14.3c0.1,0,0.1,0,0.3,0l5.1,3.1
		c0.1,0,0.1,0.1,0.3,0.3c0,0.1,0,0.3,0,0.4c0,0.1-0.1,0.3-0.1,0.3c-0.1,0.1-0.3,0.1-0.4,0.1h-10c-0.1,0-0.3,0-0.4-0.1
		c-0.1-0.1-0.1-0.1-0.3-0.3c0-0.1,0-0.3,0-0.4c0-0.1,0.1-0.3,0.3-0.3l4.8-3C27.8,14.3,27.9,14.3,28,14.3z"/>
	
		<linearGradient id="SVGID_00000054983798262773380960000001573279606525577142_" gradientUnits="userSpaceOnUse" x1="53.186" y1="55.0586" x2="7.3014" y2="143.0993" gradientTransform="matrix(1 0 0 1 0 -68)">
		<stop  offset="0" style="stop-color:#B5B5B6"/>
		<stop  offset="0.16" style="stop-color:#F4F4F4"/>
		<stop  offset="0.33" style="stop-color:#9FA0A0"/>
		<stop  offset="0.5" style="stop-color:#FFFFFF"/>
		<stop  offset="0.56" style="stop-color:#E1E1E1"/>
		<stop  offset="0.67" style="stop-color:#9FA0A0"/>
		<stop  offset="0.84" style="stop-color:#FFFFFF"/>
		<stop  offset="1" style="stop-color:#898989"/>
	</linearGradient>
	<path style="fill:url(#SVGID_00000054983798262773380960000001573279606525577142_);" d="M8.9,33.1l26.9,15.3
		c0.6,0.4,1,0.9,1.4,1.5c0.4,0.6,0.5,1.3,0.6,2.1v3.1c0,0.9-0.5,1.4-1.2,1.4c-0.3,0-0.6-0.1-0.9-0.3l-2.8-1.5L8.9,33.1z"/>
	
		<linearGradient id="SVGID_00000019660195054170883950000003084580855719517572_" gradientUnits="userSpaceOnUse" x1="53.1593" y1="55.0461" x2="7.2746" y2="143.0868" gradientTransform="matrix(1 0 0 1 0 -68)">
		<stop  offset="0" style="stop-color:#B5B5B6"/>
		<stop  offset="0.16" style="stop-color:#F4F4F4"/>
		<stop  offset="0.33" style="stop-color:#9FA0A0"/>
		<stop  offset="0.5" style="stop-color:#FFFFFF"/>
		<stop  offset="0.56" style="stop-color:#E1E1E1"/>
		<stop  offset="0.67" style="stop-color:#9FA0A0"/>
		<stop  offset="0.84" style="stop-color:#FFFFFF"/>
		<stop  offset="1" style="stop-color:#898989"/>
	</linearGradient>
	<path style="fill:url(#SVGID_00000019660195054170883950000003084580855719517572_);" d="M28,0.1c0.4,0,0.6,0.1,1,0.3l1,0.8
		l0.5,0.4l1.5,1c1.3,0.9,3.2,2.2,5.5,3.5c4.5,2.4,9.1,4.6,13.8,6.7c1.2,0.5,2.7,1,3.3,1.3c0.6,0.3,1.2,1.4,1.2,2.7v12.4
		c0,1.3,0,2.8,0.1,3.5v1.2c0,1,0,1.7,0,1.7c0,0.9-0.5,1.4-1.3,1.4c-0.3,0-0.6-0.1-0.9-0.3l-2.4-1.4c-0.6-0.4-1-0.8-1.4-1.4
		c-0.4-0.5-0.6-1.2-0.6-1.9c0-0.1,0-1.2,0-2.4v-7.6c0-0.6-0.3-1.4-0.6-1.9c-0.4-0.6-0.9-1-1.5-1.4c-0.4-0.3-8.6-3.9-13-6.4
		c-2.6-1.5-4.1-2.6-4.1-2.6c-0.6-0.4-1.3-0.5-1.9-0.5S26.8,9,26.2,9.4c-0.1,0-1.7,1-4.2,2.6c-4.2,2.6-12.5,6.2-13,6.4
		c0.1-1.2,0.6-2.4,1.3-3.5c0.6-1,1.5-1.9,2.6-2.6C16.5,10,25.3,3.3,27.9,0L28,0.1z"/>
	<g>
		<g>
			<path class="st8" d="M74.4,38.2L82,18.4h2.8l8.1,19.8h-3l-2.3-6h-8.2l-2.2,6H74.4z M80.2,30h6.7l-2.1-5.4c-0.6-1.7-1-3.1-1.4-4.1
				c-0.3,1.3-0.6,2.6-1,3.7L80.2,30z"/>
			<path class="st8" d="M104.3,38.2v-1.8c-0.4,0.6-1,1.3-1.7,1.7c-0.6,0.4-1.5,0.5-2.3,0.5c-1.2,0-2.2-0.3-3.2-0.9s-1.8-1.5-2.2-2.6
				c-0.5-1.3-0.8-2.6-0.8-3.9c0-1.3,0.3-2.7,0.8-3.9c0.4-1,1.2-2.1,2.2-2.7c0.9-0.6,2.1-0.9,3.2-0.9c0.8,0,1.5,0.1,2.3,0.5
				c0.6,0.4,1.2,0.8,1.7,1.4v-7.2h2.4v19.8h-2.4V38.2z M96.6,31c-0.1,1.4,0.3,3,1.2,4.1c0.4,0.4,0.8,0.8,1.2,1
				c0.5,0.3,1,0.4,1.5,0.4c0.5,0,1-0.1,1.4-0.4c0.5-0.3,0.9-0.5,1.2-0.9c0.8-1.2,1.2-2.6,1.2-3.9c0.1-1.5-0.3-3.1-1.2-4.4
				c-0.4-0.4-0.8-0.8-1.2-1c-0.5-0.3-1-0.4-1.5-0.4c-0.5,0-1,0.1-1.5,0.4c-0.5,0.3-0.9,0.5-1.2,1C96.9,28.2,96.5,29.6,96.6,31
				L96.6,31z"/>
			<path class="st8" d="M110.7,38.2V23.8h2.2v1.9c0.5-0.6,1-1.3,1.8-1.7c0.8-0.4,1.7-0.6,2.6-0.6c0.9,0,1.8,0.1,2.6,0.6
				c0.6,0.5,1.2,1.2,1.4,1.9c0.5-0.8,1.2-1.4,1.9-1.8c0.8-0.4,1.7-0.6,2.6-0.6c0.6,0,1.2,0,1.8,0.3c0.5,0.3,1,0.5,1.5,0.9
				c0.9,1,1.3,2.3,1.2,3.6v9.9h-2.4v-9.1c0-0.6,0-1.3-0.3-1.9c-0.1-0.4-0.5-0.8-0.9-1c-0.4-0.3-0.9-0.4-1.4-0.4
				c-0.5,0-0.9,0.1-1.4,0.3c-0.4,0.1-0.8,0.4-1.2,0.8c-0.8,0.9-1.2,2.1-1,3.2v8.4h-2.4v-9.4c0-0.9-0.1-1.7-0.6-2.4
				c-0.3-0.3-0.5-0.5-0.9-0.6c-0.4-0.1-0.8-0.3-1-0.1c-0.6,0-1.4,0.1-1.9,0.5c-0.6,0.4-1,0.9-1.3,1.5c-0.3,1-0.5,1.9-0.4,3v7.5
				C113,38.2,110.7,38.2,110.7,38.2z"/>
			<path class="st8" d="M133.9,21.1v-2.8h2.4v2.8H133.9z M133.9,38.2V23.8h2.4v14.4C136.4,38.2,133.9,38.2,133.9,38.2z"/>
			<path class="st8" d="M140.4,38.2V23.8h2.2v2.1c0.5-0.8,1.2-1.4,1.9-1.8s1.7-0.6,2.6-0.5c0.8,0,1.7,0.1,2.3,0.4
				c0.6,0.3,1.2,0.6,1.7,1.3c0.4,0.5,0.6,1.2,0.8,1.8c0.1,0.8,0.1,1.5,0.1,2.3v8.9h-2.4v-8.7c0-0.8,0-1.5-0.3-2.2
				c-0.3-0.5-0.5-0.9-1-1.2c-0.5-0.3-1.2-0.4-1.7-0.4c-1,0-1.9,0.4-2.7,1c-0.4,0.5-0.8,1.2-0.9,1.8c-0.3,0.6-0.3,1.3-0.1,2.1v7.8
				L140.4,38.2z"/>
			<path class="st8" d="M156.1,21.1v-2.8h2.4v2.8H156.1z M156.1,38.2V23.8h2.4v14.4C158.5,38.2,156.1,38.2,156.1,38.2z"/>
			<path class="st8" d="M161.6,33.8l2.4-0.4c0.1,0.9,0.5,1.7,1.2,2.2c0.8,0.5,1.7,0.8,2.6,0.8s1.8-0.1,2.4-0.6
				c0.3-0.1,0.4-0.4,0.6-0.8c0.1-0.3,0.3-0.6,0.3-0.9c0-0.3,0-0.5-0.1-0.8c-0.1-0.3-0.3-0.4-0.5-0.5c-0.8-0.4-1.7-0.6-2.4-0.8
				c-1.3-0.3-2.6-0.6-3.7-1.2c-0.6-0.3-1.2-0.8-1.5-1.4c-0.3-0.5-0.5-1.2-0.5-1.8c0-0.6,0.1-1.3,0.5-1.8c0.3-0.5,0.6-1,1.2-1.4
				c0.5-0.3,1-0.5,1.5-0.6c0.6-0.3,1.4-0.3,2.1-0.3c1,0,2.1,0.1,3,0.5c0.8,0.3,1.4,0.6,1.9,1.3c0.4,0.6,0.8,1.4,0.9,2.2l-2.3,0.3
				c-0.1-0.6-0.4-1.3-0.9-1.7c-0.6-0.4-1.4-0.6-2.2-0.6c-0.9-0.1-1.7,0.1-2.4,0.5c-0.3,0.1-0.4,0.4-0.5,0.5
				c-0.1,0.3-0.3,0.5-0.3,0.8s0.1,0.6,0.3,0.9c0.3,0.3,0.5,0.5,0.9,0.6c0.3,0,0.9,0.3,2.2,0.6c1.2,0.3,2.4,0.6,3.6,1.2
				c0.6,0.3,1.2,0.8,1.5,1.3c0.4,0.6,0.6,1.3,0.6,2.1c0,0.8-0.3,1.7-0.8,2.3c-0.5,0.8-1.2,1.3-1.9,1.7c-0.9,0.4-1.9,0.6-3,0.6
				c-1.5,0.1-3-0.3-4.2-1.2C162.6,36.5,161.9,35.3,161.6,33.8L161.6,33.8z"/>
			<path class="st8" d="M181.9,36l0.4,2.2c-0.6,0.1-1.2,0.3-1.8,0.3c-0.8,0-1.4-0.1-2.1-0.4c-0.5-0.3-0.8-0.6-1-1
				c-0.3-0.9-0.4-1.9-0.3-2.8V26h-1.8v-1.9h1.8v-3.5l2.4-1.4v5h2.4v1.9h-2.4v8.4c0,0.5,0,0.9,0.1,1.3c0.1,0.3,0.3,0.4,0.4,0.5
				c0.3,0.1,0.5,0.1,0.9,0.1C181.2,36.2,181.5,36,181.9,36L181.9,36z"/>
			<path class="st8" d="M184.5,38.2V23.8h2.2V26c0.4-0.8,0.9-1.4,1.5-1.9c0.5-0.4,1-0.5,1.5-0.5c0.9,0,1.8,0.3,2.4,0.8l-0.9,2.3
				c-0.5-0.4-1.2-0.5-1.8-0.5c-0.5,0-1,0.1-1.4,0.5s-0.8,0.8-0.9,1.3c-0.3,0.9-0.4,1.9-0.4,2.8v7.6L184.5,38.2z"/>
			<path class="st8" d="M203.4,36.4c-0.8,0.6-1.7,1.3-2.6,1.7c-0.9,0.3-1.8,0.5-2.7,0.5c-1.3,0.1-2.6-0.3-3.6-1.2
				c-0.6-0.6-1-1.4-1.2-2.3c-0.1-0.9,0-1.8,0.4-2.6c0.3-0.5,0.8-1,1.3-1.4c0.5-0.4,1.2-0.6,1.8-0.8c0.8-0.1,1.4-0.3,2.2-0.4
				c1.4-0.1,3-0.4,4.4-0.9v-0.6c0-0.4,0-0.8-0.1-1.2c-0.1-0.4-0.4-0.6-0.6-0.9c-0.8-0.6-1.8-0.9-2.8-0.9c-0.9-0.1-1.8,0.1-2.6,0.6
				c-0.6,0.5-1,1.3-1.3,2.2l-2.3-0.4c0.1-0.9,0.5-1.7,1-2.4c0.5-0.6,1.3-1.2,2.2-1.4c1-0.4,2.2-0.5,3.2-0.5c1,0,2.1,0.1,3,0.4
				c0.6,0.3,1.3,0.6,1.7,1c0.4,0.5,0.6,1,0.8,1.7c0.1,0.8,0.1,1.5,0.1,2.2V32c0,1.4,0,2.8,0.1,4.2c0.1,0.6,0.3,1.2,0.6,1.7h-2.6
				C203.7,37.6,203.4,37.1,203.4,36.4L203.4,36.4z M203.3,31c-1.3,0.5-2.6,0.8-3.9,0.9c-0.8,0.1-1.4,0.3-2.1,0.5
				c-0.4,0.1-0.8,0.4-1,0.8S196,34,196,34.4c0,0.3,0,0.6,0.1,0.9c0.1,0.3,0.3,0.5,0.5,0.8c0.6,0.5,1.4,0.6,2.2,0.6
				c0.9,0,1.7-0.3,2.4-0.6c0.6-0.4,1.3-0.9,1.5-1.7c0.3-0.8,0.5-1.5,0.4-2.4L203.3,31z"/>
			<path class="st8" d="M215,36l0.4,2.2c-0.6,0.1-1.2,0.3-1.8,0.3c-0.8,0-1.4-0.1-2.1-0.4c-0.4-0.3-0.8-0.6-1-1
				c-0.3-0.9-0.4-1.9-0.3-2.8V26h-1.8v-1.9h1.8v-3.5l2.4-1.4v5h2.4v1.9h-2.4v8.4c0,0.5,0,0.9,0.1,1.3c0.1,0.3,0.3,0.4,0.4,0.5
				c0.3,0.1,0.5,0.1,0.8,0.1C214.2,36.2,214.6,36,215,36z"/>
			<path class="st8" d="M217.7,21.1v-2.8h2.4v2.8H217.7z M217.7,38.2V23.8h2.4v14.4C220.1,38.2,217.7,38.2,217.7,38.2z"/>
			<path class="st8" d="M223.2,31c-0.1-1,0.1-2.2,0.5-3.2c0.4-1,1-1.9,1.8-2.7c1.3-1,2.8-1.7,4.5-1.5c0.9,0,1.8,0.1,2.6,0.5
				c0.8,0.4,1.5,0.9,2.2,1.5c0.6,0.8,1.2,1.5,1.5,2.4c0.4,0.9,0.5,1.9,0.4,2.8c0.1,1.5-0.3,3-0.9,4.4c-0.5,1-1.4,1.9-2.4,2.4
				c-1,0.6-2.3,0.9-3.5,0.9c-0.9,0-1.8-0.1-2.7-0.5c-0.9-0.4-1.5-0.9-2.2-1.5c-0.6-0.8-1.2-1.7-1.5-2.6
				C223.2,33.1,223.1,32,223.2,31L223.2,31z M225.7,31c-0.1,1.4,0.3,3,1.2,4.1c0.4,0.4,0.9,0.8,1.4,1c0.5,0.3,1,0.4,1.7,0.4
				c0.5,0,1.2-0.1,1.7-0.4c0.5-0.3,1-0.6,1.4-1c0.9-1.2,1.3-2.7,1.2-4.2c0.1-1.4-0.3-2.8-1.2-4c-0.4-0.4-0.8-0.8-1.3-1
				c-0.5-0.3-1-0.4-1.7-0.4c-0.5,0-1.2,0.1-1.7,0.4c-0.5,0.3-1,0.6-1.4,1C226.1,28,225.5,29.6,225.7,31z"/>
			<path class="st8" d="M239.8,38.2V23.8h2.2v2.1c0.5-0.8,1.2-1.4,1.9-1.8c0.8-0.4,1.7-0.6,2.6-0.5c0.8,0,1.7,0.1,2.4,0.4
				c0.6,0.3,1.2,0.6,1.7,1.3c0.4,0.5,0.6,1.2,0.8,1.8c0.1,0.8,0.1,1.5,0.1,2.3v8.9h-2.4v-8.7c0-0.8,0-1.5-0.3-2.2
				c-0.1-0.5-0.5-0.9-1-1.2c-0.5-0.3-1.2-0.4-1.7-0.4c-1,0-1.9,0.4-2.7,1c-0.4,0.5-0.8,1.2-0.9,1.8c-0.3,0.6-0.3,1.3-0.1,2.1v7.8
				L239.8,38.2z"/>
		</g>
		<g>
			<path class="st8" d="M264,38.2V25.7h-2.2v-1.9h2.2v-1.5c0-0.8,0-1.4,0.3-2.2c0.3-0.6,0.6-1.2,1.3-1.5c0.8-0.4,1.7-0.6,2.4-0.6
				c0.8,0,1.5,0.1,2.3,0.3l-0.4,2.2c-0.5-0.1-0.9-0.1-1.4-0.1c-0.3,0-0.5,0-0.8,0.1c-0.3,0.1-0.5,0.3-0.8,0.4
				c-0.4,0.5-0.5,1.2-0.5,1.8v1.3h2.8v1.9h-2.8v12.5C266.5,38.2,264,38.2,264,38.2z"/>
			<path class="st8" d="M270.5,31c-0.1-1,0-2.2,0.4-3.2c0.4-1,0.9-1.9,1.7-2.7c1.3-1,2.8-1.7,4.5-1.5c0.9,0,1.8,0.1,2.6,0.5
				c0.8,0.4,1.5,0.9,2.2,1.5c0.6,0.8,1.2,1.5,1.5,2.4c0.4,0.9,0.5,1.9,0.4,2.8c0.1,1.5-0.3,3-0.9,4.4c-0.5,1-1.4,1.9-2.4,2.4
				c-1,0.6-2.3,0.9-3.5,0.9c-0.9,0-1.8-0.1-2.7-0.5c-0.9-0.4-1.5-0.9-2.2-1.5c-0.6-0.8-1.2-1.7-1.5-2.6
				C270.6,33.1,270.5,32,270.5,31L270.5,31z M273,31c-0.1,1.4,0.3,3,1.2,4.1c0.4,0.4,0.9,0.8,1.4,1c0.5,0.3,1,0.4,1.7,0.4
				c0.5,0,1.2-0.1,1.7-0.4c0.5-0.3,1-0.6,1.4-1c0.9-1.2,1.3-2.7,1.2-4.2c0.1-1.4-0.4-2.8-1.3-4c-0.4-0.4-0.8-0.8-1.3-1
				c-0.5-0.3-1-0.4-1.7-0.4c-0.5,0-1.2,0.1-1.7,0.4c-0.5,0.3-1,0.6-1.4,1C273.3,28,272.9,29.6,273,31z"/>
			<path class="st8" d="M287.1,38.2V23.8h2.2V26c0.4-0.8,0.9-1.4,1.5-1.9c0.5-0.4,1-0.5,1.5-0.5c0.9,0,1.8,0.3,2.4,0.8l-0.8,2.2
				c-0.5-0.4-1.2-0.5-1.8-0.5c-0.5,0-1,0.1-1.4,0.5c-0.4,0.4-0.8,0.8-0.9,1.3c-0.3,0.9-0.4,1.9-0.4,2.8v7.6
				C289.5,38.2,287.1,38.2,287.1,38.2z"/>
		</g>
		<g>
			<path class="st8" d="M319,31.3l2.6,0.6c-0.4,1.9-1.4,3.7-3,5c-1.5,1.2-3.3,1.8-5.3,1.7c-1.8,0.1-3.6-0.4-5.1-1.3
				c-1.4-0.9-2.4-2.2-3.1-3.7c-0.8-1.7-1-3.5-1-5.3c0-1.9,0.4-3.7,1.2-5.4c0.8-1.5,1.9-2.7,3.3-3.5s3.1-1.2,4.8-1.2
				c1.8,0,3.6,0.5,5,1.5c1.4,1,2.4,2.4,3,4.2l-2.6,0.6c-0.3-1.3-1-2.3-1.9-3.1c-0.9-0.6-2.1-1-3.3-1c-1.4,0-2.7,0.3-3.9,1
				c-1,0.8-1.8,1.8-2.2,3c-0.4,1.3-0.6,2.6-0.6,3.9c0,1.5,0.3,3,0.8,4.4c0.4,1.2,1.3,2.2,2.3,2.8c1,0.6,2.2,0.9,3.3,0.9
				c1.4,0,2.7-0.4,3.7-1.3C318.1,34.1,318.7,32.7,319,31.3L319,31.3z"/>
			<path class="st8" d="M324.6,43.7l-0.3-2.3c0.4,0.1,0.9,0.3,1.4,0.3c0.4,0,0.9-0.1,1.3-0.3c0.4-0.1,0.6-0.4,0.8-0.8
				c0.3-0.6,0.5-1.2,0.8-1.8c0-0.1,0.1-0.4,0.3-0.6l-5.4-14.4h2.6l3,8.4c0.4,1,0.8,2.2,1,3.3c0.3-1.2,0.6-2.2,1-3.2l3.1-8.4h2.4
				l-5.5,14.7c-0.4,1.2-0.9,2.2-1.4,3.2c-0.4,0.6-0.9,1.3-1.4,1.8c-0.6,0.4-1.3,0.5-1.9,0.5C325.8,44,325.1,43.9,324.6,43.7z"/>
			<path class="st8" d="M341.1,38.2h-2.3V18.4h2.4v7.1c0.5-0.6,1-1.2,1.7-1.4c0.6-0.4,1.4-0.5,2.2-0.5c0.9,0,1.7,0.1,2.4,0.5
				c0.8,0.4,1.4,0.9,1.9,1.5c0.5,0.6,0.9,1.5,1.2,2.3c0.3,0.9,0.4,1.9,0.4,3c0.1,2.1-0.5,4.1-1.8,5.7c-0.5,0.6-1.2,1.2-1.9,1.4
				c-0.8,0.4-1.5,0.5-2.4,0.5c-0.8,0-1.5-0.1-2.3-0.5c-0.6-0.4-1.3-0.9-1.7-1.5L341.1,38.2z M341.1,30.9c-0.1,1.3,0.1,2.6,0.8,3.7
				c0.3,0.6,0.8,1,1.3,1.4s1.2,0.5,1.8,0.5c0.5,0,1-0.1,1.5-0.4c0.5-0.3,0.9-0.6,1.3-1c0.8-1.3,1.2-2.7,1.2-4.1s-0.4-2.8-1.2-4.1
				c-0.3-0.4-0.8-0.8-1.2-1c-0.5-0.3-1-0.4-1.5-0.4c-0.5,0-1,0.1-1.5,0.4c-0.5,0.3-0.9,0.6-1.3,1C341.3,28,341,29.5,341.1,30.9
				L341.1,30.9z"/>
			<path class="st8" d="M364.4,33.6l2.6,0.3c-0.3,1.4-1,2.6-2.2,3.5c-1.4,0.9-3.1,1.3-4.6,1.2c-1.7-0.1-3.2-0.8-4.4-1.9
				c-1.3-1.5-2.1-3.5-1.9-5.4c-0.1-2.1,0.6-4.1,1.9-5.7c0.6-0.6,1.4-1.2,2.2-1.5s1.7-0.5,2.6-0.5c0.9,0,1.8,0.1,2.6,0.5
				c0.8,0.4,1.5,0.9,2.2,1.5c1.3,1.5,1.9,3.5,1.8,5.5c0,0.1,0,0.4,0,0.6h-10.7c0,1.3,0.5,2.6,1.3,3.6c0.4,0.4,0.9,0.8,1.4,0.9
				c0.5,0.3,1,0.4,1.7,0.3c0.8,0,1.7-0.3,2.3-0.6C363.6,35.3,364.1,34.5,364.4,33.6L364.4,33.6z M356.4,29.7h8c0-1-0.4-1.9-0.9-2.7
				c-0.4-0.5-0.8-0.8-1.3-1c-0.5-0.3-1.2-0.4-1.7-0.4c-0.5,0-1,0.1-1.5,0.3c-0.5,0.3-0.9,0.5-1.3,0.9
				C356.9,27.4,356.4,28.6,356.4,29.7L356.4,29.7z"/>
			<path class="st8" d="M370.2,38.2V23.8h2.2V26c0.4-0.8,0.9-1.4,1.5-1.9c0.5-0.4,1-0.5,1.5-0.5c0.9,0,1.8,0.3,2.4,0.8l-0.9,2.3
				c-0.5-0.4-1.2-0.5-1.8-0.5c-0.5,0-1,0.1-1.4,0.5c-0.4,0.4-0.8,0.8-0.9,1.3c-0.3,0.9-0.4,1.9-0.4,2.8v7.6L370.2,38.2z"/>
		</g>
		<g>
			<g>
				<path class="st8" d="M74.4,60.2l2.4-0.3c0.1,0.9,0.4,1.7,0.8,2.4c0.5,0.6,1.2,1.3,1.9,1.5c0.9,0.4,2.1,0.6,3.1,0.6
					c0.9,0,1.8-0.1,2.7-0.4c0.6-0.3,1.3-0.6,1.7-1.3c0.4-0.5,0.5-1,0.5-1.7s-0.1-1.2-0.5-1.7c-0.5-0.5-1.2-0.9-1.8-1.2
					c-1.2-0.4-2.3-0.8-3.5-1c-1.3-0.3-2.7-0.6-3.9-1.3c-0.9-0.4-1.5-1-2.1-1.8c-0.5-0.8-0.8-1.5-0.6-2.4c0-1,0.3-1.9,0.9-2.8
					c0.6-0.9,1.5-1.5,2.4-1.9c1.2-0.4,2.4-0.6,3.6-0.6c1.3,0,2.7,0.3,3.9,0.6c1,0.4,1.9,1.2,2.6,2.1c0.6,0.9,0.9,2.1,1,3.1L87,52.4
					c0-0.5-0.1-1-0.4-1.5c-0.3-0.5-0.5-0.9-1-1.3c-1-0.8-2.2-1-3.5-1c-1.2,0-2.4,0.3-3.3,0.9c-0.4,0.3-0.6,0.5-0.8,0.9
					c-0.1,0.4-0.3,0.8-0.3,1.2c0,0.4,0,0.6,0.1,1c0.1,0.3,0.4,0.5,0.6,0.8c1.2,0.8,2.6,1.3,3.9,1.4c1.5,0.3,3,0.8,4.4,1.3
					c1,0.4,1.9,1,2.6,1.9c0.5,0.9,0.9,1.8,0.8,2.8c0,1-0.4,2.1-0.9,3c-0.6,1-1.5,1.7-2.6,2.2c-1.3,0.5-2.6,0.8-3.9,0.8
					c-1.5,0-3.1-0.3-4.5-0.8c-1.2-0.5-2.2-1.3-2.8-2.3C74.8,62.7,74.4,61.4,74.4,60.2L74.4,60.2z"/>
				<path class="st8" d="M103.6,61.9l2.6,0.3c-0.3,1.4-1,2.6-2.2,3.5c-1.4,0.9-3.1,1.3-4.6,1.2c-1.7-0.1-3.2-0.8-4.4-1.9
					c-1.3-1.5-1.9-3.5-1.8-5.4c-0.1-2.1,0.6-4.1,1.9-5.7c0.6-0.6,1.4-1.2,2.2-1.5c0.8-0.4,1.7-0.5,2.6-0.5c0.9,0,1.8,0.1,2.6,0.5
					c0.8,0.4,1.5,0.9,2.2,1.5c1.3,1.5,1.8,3.6,1.7,5.5V60H95.6c0,1.3,0.5,2.6,1.3,3.6c0.4,0.4,0.9,0.8,1.4,0.9
					c0.5,0.3,1,0.4,1.7,0.3c0.8,0,1.7-0.3,2.3-0.6C102.7,63.7,103.3,62.8,103.6,61.9L103.6,61.9z M95.6,58h8c0-1-0.4-1.9-0.9-2.7
					c-0.4-0.5-0.8-0.8-1.3-1c-0.5-0.3-1.2-0.4-1.7-0.4c-0.5,0-1,0.1-1.5,0.3c-0.5,0.3-0.9,0.5-1.3,0.9C96,55.8,95.6,56.9,95.6,58
					L95.6,58z"/>
				<path class="st8" d="M118.8,61.4l2.4,0.3c-0.1,1.5-0.9,2.8-1.9,3.9c-1,0.9-2.4,1.4-3.9,1.4c-0.9,0-1.8-0.1-2.6-0.5
					c-0.8-0.4-1.5-0.9-2.2-1.5c-1.3-1.5-1.9-3.5-1.8-5.5c0-1.4,0.3-2.8,0.8-4.1c0.5-1.2,1.3-2.1,2.3-2.6s2.2-0.9,3.5-0.9
					c1.4-0.1,2.8,0.4,3.9,1.2c1,0.9,1.7,2.1,1.9,3.3l-2.3,0.4c-0.1-0.9-0.5-1.5-1.2-2.2c-0.5-0.5-1.3-0.8-2.1-0.8
					c-0.5,0-1.2,0.1-1.7,0.4c-0.5,0.3-1,0.5-1.4,1c-0.9,1.2-1.3,2.7-1.2,4.1c-0.1,1.5,0.3,3,1.2,4.2c0.4,0.4,0.8,0.8,1.3,1
					c0.5,0.3,1,0.4,1.5,0.3c0.9,0,1.7-0.3,2.3-0.9C118.4,63.3,118.8,62.3,118.8,61.4L118.8,61.4z"/>
				<path class="st8" d="M132.9,66.5v-2.1c-0.5,0.8-1.2,1.4-1.9,1.8c-0.8,0.4-1.7,0.6-2.6,0.6c-0.8,0-1.7-0.1-2.3-0.5
					c-0.6-0.3-1.2-0.6-1.7-1.3c-0.4-0.5-0.6-1.2-0.8-1.9c-0.1-0.8-0.1-1.5-0.1-2.3V52h2.4v8c0,0.9,0,1.7,0.1,2.6
					c0.1,0.6,0.5,1.2,1,1.5c0.5,0.4,1.2,0.5,1.8,0.5c0.8,0,1.4-0.3,2.1-0.5c0.6-0.4,1-0.9,1.4-1.5c0.3-0.9,0.4-1.8,0.4-2.8v-7.8h2.4
					v14.4L132.9,66.5z"/>
				<path class="st8" d="M139.2,66.5V52.1h2.2v2.2c0.4-0.8,0.9-1.4,1.5-1.9c0.5-0.3,1-0.5,1.5-0.5c0.9,0,1.8,0.3,2.6,0.8l-0.9,2.3
					c-0.5-0.4-1.2-0.5-1.8-0.5c-0.5,0-1,0.1-1.4,0.5c-0.4,0.4-0.8,0.8-0.9,1.3c-0.3,0.9-0.4,1.9-0.4,2.8v7.6L139.2,66.5z"/>
				<path class="st8" d="M148.7,49.5v-2.8h2.4v2.8H148.7z M148.7,66.5V52.1h2.4v14.4C151.2,66.5,148.7,66.5,148.7,66.5z"/>
				<path class="st8" d="M160.4,64.3l0.4,2.2c-0.6,0.1-1.3,0.3-1.8,0.3c-0.6,0-1.4-0.1-2.1-0.4c-0.5-0.3-0.8-0.6-1-1
					c-0.3-0.9-0.4-1.9-0.3-2.8v-8.2h-1.8v-1.9h1.8v-3.5l2.4-1.4v5h2.4v1.7h-2.4v8.4c0,0.5,0,0.9,0.1,1.3c0.1,0.3,0.3,0.4,0.4,0.5
					c0.3,0.1,0.5,0.3,0.9,0.1C159.7,64.5,160.1,64.5,160.4,64.3z"/>
				<path class="st8" d="M162.9,72.1l-0.3-2.3c0.5,0.1,0.9,0.3,1.4,0.3c0.4,0,0.9,0,1.3-0.3c0.4-0.1,0.6-0.4,0.8-0.8
					c0.3-0.6,0.5-1.2,0.8-1.8c0-0.1,0.1-0.4,0.3-0.6l-5.4-14.4h2.6l3,8.4c0.4,1,0.8,2.2,1,3.3c0.3-1.2,0.6-2.2,1-3.2l3.1-8.4h2.4
					l-5.4,14.7c-0.4,1.2-0.9,2.2-1.4,3.2c-0.4,0.6-0.9,1.3-1.5,1.8c-0.6,0.4-1.3,0.5-1.9,0.5C164,72.4,163.4,72.3,162.9,72.1
					L162.9,72.1z"/>
				<path class="st8" d="M177.8,66.5v-2.8h2.8v2.8c0,0.9-0.1,1.7-0.5,2.4c-0.4,0.6-1,1.2-1.7,1.4l-0.6-1c0.5-0.3,0.9-0.5,1.2-1
					c0.3-0.6,0.4-1.3,0.4-1.9L177.8,66.5z"/>
			</g>
			<g>
				<path class="st8" d="M193.1,66.5V52.1h2.2v2.1c0.4-0.6,1-1.3,1.8-1.7c0.8-0.4,1.7-0.6,2.6-0.6s1.8,0.1,2.6,0.6
					c0.6,0.5,1.2,1.2,1.4,1.9c0.5-0.8,1.2-1.4,1.9-1.8c0.8-0.4,1.7-0.6,2.6-0.6c0.6,0,1.2,0,1.8,0.3c0.5,0.3,1,0.5,1.5,0.9
					c0.9,1,1.3,2.3,1.2,3.6v9.9h-2.4v-9.1c0-0.6,0-1.3-0.3-1.9c-0.1-0.4-0.5-0.8-0.9-1c-0.4-0.3-0.9-0.4-1.4-0.4
					c-0.5,0-0.9,0.1-1.4,0.3c-0.4,0.1-0.8,0.4-1.2,0.8c-0.4,0.4-0.6,0.9-0.8,1.5c-0.1,0.5-0.3,1.2-0.1,1.7v8.4h-2.4v-9.4
					c0-0.9-0.1-1.7-0.6-2.4c-0.3-0.3-0.5-0.5-0.9-0.6c-0.4-0.1-0.8-0.3-1-0.1c-0.6,0-1.4,0.1-1.9,0.5c-0.6,0.4-1,0.9-1.3,1.5
					c-0.3,1-0.4,1.9-0.4,3v7.5h-2.4V66.5z"/>
				<path class="st8" d="M215.5,59.4c-0.1-1,0.1-2.2,0.5-3.2c0.4-1,1-1.9,1.8-2.7c1.3-1,2.8-1.7,4.5-1.5c0.9,0,1.8,0.1,2.6,0.5
					c0.8,0.4,1.5,0.9,2.2,1.5c0.6,0.8,1.2,1.5,1.5,2.4s0.5,1.9,0.4,2.8c0.1,1.5-0.3,3-0.9,4.4c-0.5,1-1.4,1.9-2.4,2.4
					c-1,0.6-2.3,0.9-3.5,0.9c-0.9,0-1.8-0.1-2.7-0.5c-0.9-0.4-1.5-0.9-2.2-1.5C216,63.4,215.4,61.5,215.5,59.4L215.5,59.4z
					 M218,59.4c-0.1,1.4,0.3,3,1.2,4.1c0.4,0.4,0.9,0.8,1.4,1c0.5,0.3,1,0.4,1.7,0.4c0.6,0,1.2-0.1,1.7-0.4c0.5-0.3,1-0.6,1.4-1
					c0.9-1.2,1.3-2.7,1.2-4.2c0.1-1.4-0.4-2.8-1.2-4c-0.4-0.4-0.9-0.8-1.4-1c-0.5-0.3-1-0.4-1.7-0.4c-0.6,0-1.2,0.1-1.7,0.4
					c-0.5,0.3-1,0.5-1.4,1C218.3,56.5,218,57.9,218,59.4L218,59.4z"/>
				<path class="st8" d="M241.4,66.5v-1.8c-0.4,0.6-1,1.3-1.7,1.7c-0.6,0.4-1.5,0.5-2.3,0.5c-1.2,0-2.2-0.3-3.1-0.9
					c-1-0.6-1.8-1.5-2.2-2.6c-0.5-1.3-0.8-2.6-0.8-3.9s0.3-2.7,0.8-3.9c0.4-1.2,1.2-2.1,2.2-2.7c0.9-0.6,2.1-0.9,3.2-0.9
					c0.8,0,1.5,0.1,2.3,0.5c0.6,0.4,1.2,0.8,1.7,1.4v-7.2h2.4v19.8h-2.6V66.5z M233.7,59.4c-0.1,1.4,0.3,3,1.2,4.1
					c0.4,0.4,0.8,0.8,1.2,1c0.5,0.3,1,0.4,1.5,0.4s1-0.1,1.5-0.4s0.9-0.5,1.2-1c0.8-1.2,1.2-2.6,1.2-3.9c0.1-1.5-0.3-3.1-1.2-4.4
					c-0.4-0.4-0.8-0.8-1.3-1c-0.5-0.3-1-0.4-1.5-0.4s-1,0.1-1.5,0.4c-0.5,0.3-0.9,0.5-1.2,1C234,56.5,233.7,57.9,233.7,59.4
					L233.7,59.4z"/>
				<path class="st8" d="M257.1,64.7c-0.8,0.6-1.7,1.3-2.6,1.7c-0.9,0.3-1.8,0.5-2.7,0.5c-1.3,0.1-2.6-0.3-3.6-1.2
					c-0.4-0.4-0.8-0.8-1-1.3c-0.3-0.5-0.4-1-0.3-1.7c0-0.6,0.1-1.4,0.5-1.9c0.3-0.5,0.8-1,1.3-1.4s1.2-0.6,1.7-0.8
					c0.8-0.1,1.4-0.3,2.2-0.4c1.4-0.1,3-0.4,4.4-0.9c0-0.4,0-0.5,0-0.6c0-0.4,0-0.8-0.1-1.2c-0.1-0.4-0.3-0.6-0.6-1
					c-0.8-0.6-1.8-0.9-2.8-0.9c-0.9-0.1-1.8,0.1-2.6,0.6c-0.6,0.5-1,1.3-1.2,2.2l-2.3-0.4c0.1-0.9,0.5-1.7,1-2.4
					c0.5-0.6,1.3-1.2,2.2-1.4c1-0.4,2.2-0.5,3.2-0.5c1,0,2.1,0.1,3,0.4c0.6,0.3,1.3,0.6,1.7,1c0.4,0.5,0.6,1,0.8,1.7
					c0.1,0.8,0.1,1.5,0.1,2.2v3.2c0,1.4,0,2.8,0.1,4.2c0.1,0.6,0.4,1.2,0.6,1.7h-2.6C257.3,66,257.2,65.4,257.1,64.7L257.1,64.7z
					 M256.9,59.3c-1.3,0.5-2.6,0.8-3.9,0.9c-0.8,0.1-1.4,0.3-2.1,0.5c-0.4,0.1-0.8,0.4-0.9,0.8c-0.3,0.4-0.4,0.9-0.3,1.4
					c0.1,0.5,0.3,1,0.6,1.3c0.6,0.5,1.4,0.6,2.2,0.6c0.9,0,1.7-0.3,2.4-0.6c0.6-0.4,1.3-0.9,1.7-1.7c0.3-0.8,0.4-1.5,0.4-2.4
					L256.9,59.3z"/>
			</g>
		</g>
	</g>
</g>
</svg>
