<svg width="110" height="110" viewBox="0 0 110 110" fill="none" xmlns="http://www.w3.org/2000/svg">
<path d="M30.5557 78.1347V73.5515H36.8721V50.1773C36.8228 46.0564 38.1361 42.0379 40.6018 38.7652C42.9757 35.4873 46.4755 33.2353 50.4072 32.4557V30.2405C50.3949 29.695 50.4987 29.1532 50.7115 28.6523C50.9244 28.1513 51.2412 27.7029 51.6404 27.3378C52.4581 26.5729 53.5371 26.1618 54.6482 26.192C55.7594 26.1618 56.8384 26.5729 57.6561 27.3378C58.0552 27.7029 58.3721 28.1513 58.5849 28.6523C58.7978 29.1532 58.9016 29.695 58.8893 30.2405V32.4557C62.8293 33.2456 66.3399 35.4942 68.7398 38.7652C71.2215 42.0311 72.5462 46.0519 72.4996 50.1773V73.5515H78.6807V78.1347H30.5557ZM54.6182 87.301C53.8341 87.3058 53.057 87.15 52.3335 86.8429C51.61 86.5358 50.9549 86.0837 50.4072 85.5136C49.8288 84.9587 49.3698 84.288 49.0592 83.5439C48.7486 82.7997 48.5931 81.9983 48.6025 81.1901H60.6338C60.6446 81.9944 60.4942 82.7924 60.1917 83.5357C59.8892 84.279 59.4409 84.9519 58.8742 85.5136C58.3213 86.0893 57.6588 86.5446 56.9271 86.8519C56.1954 87.1592 55.4098 87.312 54.6182 87.301ZM41.3838 73.5515H67.9277V50.1773C67.9614 48.3931 67.6389 46.6205 66.9798 44.9664C66.3207 43.3122 65.3386 41.8108 64.0928 40.5527C62.8819 39.2659 61.4212 38.2485 59.8033 37.5648C58.1854 36.8811 56.4454 36.546 54.6934 36.5806C52.935 36.5488 51.1891 36.8851 49.5643 37.5685C47.9395 38.2518 46.4705 39.2676 45.2488 40.5527C43.9962 41.8071 43.0076 43.3072 42.3432 44.9617C41.6787 46.6162 41.3523 48.3907 41.3838 50.1773V73.5515Z" fill="white"/>
<path d="M45.8334 54.4544H62.639V59.0377H45.8334V54.4544Z" fill="white"/>
<path d="M56.5279 48.3433V65.1488H51.9446L51.9446 48.3433H56.5279Z" fill="white"/>
</svg>
