<svg width="350" height="77" viewBox="0 0 350 77" fill="none" xmlns="http://www.w3.org/2000/svg">
<g clip-path="url(#clip0_244_408)">
<path d="M14.4522 36.3732C14.4649 30.6325 16.751 25.1305 20.8103 21.0711C24.8697 17.0118 30.3717 14.7256 36.1124 14.7129H44.4336V0.0922552C37.7791 0.050138 35.9199 -0.352987 29.0729 0.916546C29.0059 0.934896 28.9374 0.94698 28.8683 0.952645C20.7174 2.63488 13.3953 7.07452 8.1349 13.5239C2.87454 19.9734 -0.00264224 28.0385 -0.012085 36.3612C-0.012085 56.2886 16.2331 72.6903 36.1545 72.6903H72.6762V0.0922552H58.579V58.1297L36.1365 58.0335C30.3916 58.0271 24.8834 55.7438 20.8189 51.6838C16.7543 47.6237 14.4649 42.1181 14.4522 36.3732Z" fill="#1F333D"/>
<path d="M28.2906 36.7523C28.2906 41.3852 31.7563 44.4597 36.3892 44.4597H44.4577V28.3289H36.7141C34.4801 28.3289 32.3375 29.2163 30.7578 30.796C29.1781 32.3757 28.2906 34.5183 28.2906 36.7523Z" fill="#B3C33E"/>
<path d="M96.8876 26.3132H80.6364V72.7986H96.8876V26.3132Z" fill="#1F333D"/>
<path d="M80.7927 0.0861816H94.8719V4.16553H84.7939V12.1979H94.8719V16.199H80.7927V0.0861816Z" fill="#B3C33E"/>
<path d="M100.901 6.02478H86.8215V10.1041H96.8996V18.1365H86.8215V22.1376H100.901V6.02478Z" fill="#1F333D"/>
<path d="M152.873 22.9318H150.088C148.932 31.1346 147.105 37.765 144.606 42.8231C146.881 47.2354 149.717 50.4564 153.114 52.486C152.141 53.3336 151.3 54.3211 150.617 55.4162C147.234 53.1067 144.463 50.0094 142.543 46.3911C140.12 50.0331 136.961 53.1279 133.271 55.4763C132.711 54.39 132.016 53.3791 131.201 52.468C135.172 50.1291 138.469 46.7996 140.768 42.8051C139.036 38.5776 137.748 34.1819 136.923 29.6886C136.179 31.5656 135.261 33.3685 134.179 35.0736C133.549 34.3438 132.858 33.6676 132.116 33.0519V37.1854H120.774C120.299 38.1481 119.769 39.1529 119.192 40.1938C122.457 40.1617 127.629 40.0815 134.709 39.9532L134.564 42.7389L129.474 42.8352C128.798 45.3048 127.47 47.5471 125.63 49.3273C127.433 50.2238 129.181 51.2284 130.864 52.3356L128.56 54.5919C126.787 53.4196 124.942 52.3605 123.036 51.4211C120.184 53.2421 116.019 54.636 110.54 55.6027C110.275 54.5582 109.802 53.5779 109.15 52.7207C113.662 52.1751 117.234 51.2125 119.866 49.8326C117.86 48.9341 116.193 48.2462 114.866 47.7689L114.047 49.1648L111.039 48.2502C111.905 46.8744 112.93 45.1596 114.113 43.1059L108.013 43.2022L107.916 40.3202C111.153 40.3202 113.732 40.3041 115.654 40.272C115.81 39.9531 116.051 39.5019 116.376 38.9303C116.791 38.1301 117.092 37.5525 117.284 37.1975H110.058V28.9846H119.288V26.7464H111.31V21.4637H107.916V18.72H111.328V13.4855H119.288V10.4771H122.459V13.4855H130.96V18.72H134.42V21.4637H130.96V26.7464H122.459V29.0027H132.116V31.5056C134.835 26.6922 136.841 19.6727 138.132 10.447L141.592 10.9765C141.079 14.4381 140.567 17.272 140.058 19.4782H152.885L152.873 22.9318ZM113.163 31.4394V34.7065H119.288V31.4394H113.163ZM119.264 16.0125H114.36V18.7983H119.264V16.0125ZM114.36 24.1833H119.264V21.3313H114.36V24.1833ZM126.087 42.8713L117.627 43.0157C117.471 43.3406 117.194 43.8219 116.809 44.4597C116.556 44.9109 116.364 45.2298 116.207 45.4224C118.289 46.1283 120.403 46.9606 122.549 47.9193C124.124 46.5468 125.346 44.8153 126.111 42.8713H126.087ZM127.772 16.0125H122.489V18.7983H127.772V16.0125ZM122.489 24.1833H127.772V21.3313H122.489V24.1833ZM128.927 34.7065V31.4394H122.489V34.7065H128.927ZM146.562 22.9318H139.161L139.017 23.5334C139.71 28.7138 140.984 33.7998 142.813 38.6956C144.558 34.3716 145.798 29.117 146.532 22.9318H146.562Z" fill="#1F333D"/>
<path d="M168.974 10.5854L172.338 11.6865C170.918 15.1676 169.249 18.5417 167.344 21.7826V55.2237H163.872V27.0653C162.244 29.3309 160.444 31.4672 158.487 33.4551C157.891 32.192 157.184 30.984 156.375 29.8451C160.931 25.5056 164.616 20.3371 167.235 14.6167C167.881 13.2449 168.461 11.9011 168.974 10.5854ZM190.743 49.6461H202.518V53.1058H170.226V49.6461H187.235C189.699 42.6613 191.625 35.4986 192.999 28.2205C193.125 27.5767 193.24 26.969 193.336 26.4155L197.229 27.0894C195.54 34.7363 193.373 42.2699 190.743 49.6461ZM171.429 20.128H184.16V11.0186H187.861V20.128H201.266V23.5395H171.429V20.128ZM182.716 46.6017L179.161 47.3718C178.639 41.2766 177.595 35.2376 176.038 29.3216C175.845 28.6537 175.671 28.0099 175.508 27.4023L178.727 26.8006C180.537 32.8998 181.84 39.1384 182.62 45.4525C182.656 45.8556 182.686 46.2226 182.716 46.6017Z" fill="#1F333D"/>
<path d="M241.055 26.4877H251.337V29.4961H214.485V34.3516C214.457 43.6735 212.728 50.8014 209.298 55.7351C208.538 54.8432 207.625 54.0935 206.603 53.5209C206.55 53.4967 206.501 53.4642 206.458 53.4247C209.471 49.1047 210.977 42.7309 210.977 34.3035V26.4817H216.597C216.219 25.7617 215.786 25.0718 215.303 24.418C219.15 23.7505 222.954 22.8523 226.693 21.7284C223.043 20.6053 219.982 19.755 217.511 19.1774L219.581 17.4987H210.255V14.5204H227.409V10.5012H231.019V14.5385H248.943V17.5167H240.441L241.253 17.9981C239.114 19.4118 236.845 20.6205 234.478 21.6081C237.174 22.5347 239.982 23.5916 242.902 24.7789L241.055 26.4877ZM235.243 45.3983V51.3068H250.952V54.3813H216.121V51.3068H231.639V45.3983H220.538V42.5103H231.639V37.5645H222.27C221.243 39.1758 220.069 40.6884 218.763 42.0831C217.944 41.3308 217.022 40.6988 216.025 40.2059C218.776 37.4631 220.877 34.1386 222.174 30.4768L225.393 31.1507C225.076 32.0452 224.595 33.1823 223.949 34.5622H231.639V30.6212H235.249V34.5682H248.173V37.5766H235.249V42.5223H247.023V45.3983H235.243ZM218.233 26.5118H239.713C237.122 25.3927 234.113 24.2394 230.688 23.0521C226.626 24.4997 222.463 25.648 218.233 26.4877V26.5118ZM237.168 17.5288H220.875C223.149 18.0703 226.464 19.0309 230.82 20.4108C233.03 19.6611 235.157 18.6874 237.168 17.5047V17.5288Z" fill="#1F333D"/>
<path d="M300.163 43.6895H283.828C287.703 46.7661 292.682 49.1367 298.767 50.8013C299.67 51.0601 300.572 51.2827 301.415 51.4752C300.395 52.3969 299.561 53.5061 298.96 54.7423C293.208 53.1461 287.811 50.4713 283.058 46.8604C282.153 46.1725 281.288 45.4353 280.464 44.6522V55.3681H276.854V44.8929C272.915 48.4789 267.725 51.393 261.283 53.6352C260.326 53.9902 259.394 54.2911 258.497 54.5498C257.87 53.4141 257.077 52.3779 256.145 51.4752C261.552 50.2834 266.708 48.1534 271.379 45.1817C272.143 44.6703 272.847 44.1709 273.491 43.6895H257.444V40.615H276.854V36.9749H262.053V34.141H276.854V30.5851H259.604V27.5767H270.32C269.758 25.8348 268.948 24.1831 267.914 22.6731L269.646 22.3361H257.613V19.1653H265.435C264.424 16.6485 263.117 14.2611 261.542 12.0535L264.616 11.0006C266.375 13.1954 267.794 15.6413 268.828 18.2568L266.331 19.1653H272.384V10.441H275.783V19.1352H281.602V10.441H285.055V19.1352H291.018L289.213 18.5335C290.693 16.1589 291.948 13.651 292.961 11.0427L296.71 12.0475C295.407 14.4849 293.963 16.8435 292.384 19.1112H299.977V22.282H290.176C289.373 23.8223 288.348 25.5691 287.101 27.5225H298.298V30.5309H280.471V34.0868H295.843V36.9749H280.471V40.627H300.169L300.163 43.6895ZM286.084 22.306H271.644C272.726 23.7944 273.556 25.4512 274.099 27.2097L272.51 27.5466H284.093L283.563 27.4022C284.509 25.7577 285.351 24.0557 286.084 22.306Z" fill="#1F333D"/>
<path d="M333.899 35.4766C331.597 36.68 329.274 37.7851 326.932 38.7919H345.433V55.0792H341.877V53.6352H320.157V55.2236H316.745V42.6306C315.175 43.1119 313.605 43.5812 312.04 44.0264C310.476 44.4717 308.882 44.8928 307.281 45.2779C307.036 44.7305 306.754 44.1998 306.439 43.6895C306.042 43.0156 305.711 42.4862 305.458 42.1071C309.098 41.3634 312.697 40.4316 316.24 39.3153C319.77 38.2111 323.242 36.9299 326.643 35.4766H306.511V32.4683H324.916V28.7921H311.366V25.8138H324.916V22.3541H309.273V12.264H347.383V22.3541H328.454V25.8138H339.459V28.3167C340.385 27.6709 341.274 26.989 342.124 26.271C342.974 25.553 343.777 24.825 344.531 24.087L347.365 25.892C344.827 28.37 342.024 30.5612 339.007 32.4262H349.964V35.4345L333.899 35.4766ZM320.662 14.9595H312.841V19.6646H320.662V14.9595ZM341.901 41.5295H320.181V44.7966H341.901V41.5295ZM341.901 50.8976V47.2875H320.181V50.8976H341.901ZM332.148 19.6646V14.9595H324.026V19.6646H332.148ZM332.822 32.4442C333.909 31.9027 334.958 31.3191 335.969 30.6933C336.98 30.0676 337.948 29.4338 338.875 28.7921H328.496V32.4442H332.822ZM335.512 19.6646H343.773V14.9595H335.464L335.512 19.6646Z" fill="#1F333D"/>
<path d="M107.916 72.6782L112.531 62.0286H113.933L118.506 72.6782H116.821L115.738 70.0669H110.684L109.619 72.6842L107.916 72.6782ZM115.136 68.7493L113.151 63.7614L111.153 68.7493H115.136Z" fill="#1F333D"/>
<path d="M124.354 72.5338C123.899 72.7556 123.399 72.8708 122.892 72.8707C122.379 72.8795 121.871 72.779 121.4 72.5759C120.973 72.3914 120.589 72.1187 120.275 71.7757C119.958 71.4257 119.712 71.0168 119.553 70.5724C119.378 70.1007 119.29 69.6012 119.294 69.0982C119.289 68.5971 119.377 68.0994 119.553 67.6302C119.714 67.1852 119.961 66.7763 120.281 66.4268C120.601 66.0867 120.988 65.8164 121.418 65.6326C121.878 65.4386 122.374 65.3423 122.874 65.3498C123.405 65.3356 123.93 65.4623 124.396 65.7168C124.796 65.938 125.145 66.2415 125.419 66.6073V61.3005H126.833V72.6722H125.461V71.541H125.431C125.173 71.9673 124.8 72.3116 124.354 72.5338ZM120.918 70.0669C121.017 70.3672 121.17 70.6467 121.37 70.8912C121.573 71.1401 121.825 71.3448 122.11 71.4929C122.425 71.6338 122.766 71.7066 123.112 71.7066C123.457 71.7066 123.798 71.6338 124.113 71.4929C124.403 71.3571 124.663 71.1648 124.877 70.9273C125.094 70.6751 125.26 70.3828 125.365 70.0669C125.597 69.4359 125.597 68.7426 125.365 68.1115C125.255 67.8069 125.09 67.5253 124.877 67.2812C124.665 67.0402 124.405 66.8456 124.113 66.7096C123.806 66.5673 123.471 66.4953 123.133 66.499C122.78 66.4917 122.431 66.5636 122.11 66.7096C121.826 66.846 121.573 67.0408 121.37 67.2812C121.168 67.527 121.015 67.8088 120.918 68.1115C120.718 68.7376 120.718 69.4108 120.918 70.0369V70.0669Z" fill="#1F333D"/>
<path d="M131.574 65.7529C131.993 65.4819 132.483 65.3435 132.982 65.3558C133.436 65.3489 133.884 65.461 134.282 65.6807C134.698 65.9374 135.017 66.3245 135.19 66.7817C135.415 66.3368 135.767 65.9683 136.201 65.7228C136.631 65.4774 137.119 65.3507 137.615 65.3558C138.028 65.341 138.439 65.4191 138.818 65.5844C139.134 65.7249 139.417 65.9299 139.649 66.1861C139.87 66.4554 140.036 66.7664 140.136 67.1006C140.244 67.4678 140.297 67.8491 140.292 68.2318V72.6541H138.878V68.6951C138.88 68.4187 138.855 68.1428 138.806 67.8708C138.76 67.6272 138.672 67.3933 138.547 67.1789C138.43 66.9804 138.265 66.8148 138.066 66.6975C137.833 66.5682 137.569 66.5058 137.302 66.517C137.012 66.5089 136.725 66.5796 136.472 66.7216C136.247 66.8503 136.056 67.0295 135.912 67.245C135.762 67.4658 135.653 67.7127 135.593 67.9731C135.528 68.245 135.496 68.5238 135.497 68.8034V72.6541H134.083V68.4123C134.086 68.1534 134.06 67.895 134.005 67.6421C133.966 67.4254 133.88 67.22 133.752 67.0405C133.632 66.8746 133.473 66.7404 133.289 66.6494C133.067 66.5466 132.824 66.4971 132.579 66.505C132.327 66.5012 132.078 66.557 131.853 66.6679C131.627 66.7787 131.43 66.9415 131.279 67.1428C130.912 67.6341 130.729 68.2389 130.762 68.8515V72.6421H129.348V67.0585C129.348 66.866 129.348 66.6193 129.348 66.3185C129.348 66.0176 129.348 65.7529 129.306 65.5243H130.642C130.642 65.7048 130.678 65.9093 130.69 66.1259C130.702 66.3425 130.69 66.5411 130.69 66.6915H130.738C130.93 66.3109 131.218 65.9872 131.574 65.7529Z" fill="#1F333D"/>
<path d="M144.059 63.6229C143.878 63.7924 143.639 63.8852 143.391 63.8817C143.269 63.8837 143.147 63.8614 143.033 63.816C142.92 63.7705 142.816 63.7029 142.729 63.617C142.642 63.5352 142.573 63.4363 142.527 63.3265C142.48 63.2167 142.457 63.0984 142.458 62.9791C142.455 62.857 142.477 62.7355 142.524 62.6225C142.571 62.5095 142.641 62.4076 142.729 62.3233C142.816 62.2374 142.92 62.1698 143.033 62.1243C143.147 62.0788 143.269 62.0565 143.391 62.0586C143.514 62.0567 143.637 62.0791 143.751 62.1246C143.866 62.17 143.97 62.2375 144.059 62.3233C144.15 62.406 144.223 62.5074 144.271 62.6205C144.32 62.7337 144.344 62.856 144.342 62.9791C144.344 63.1006 144.32 63.2211 144.271 63.3322C144.222 63.4434 144.15 63.5426 144.059 63.6229ZM142.687 72.6782V65.5483H144.101V72.6782H142.687Z" fill="#1F333D"/>
<path d="M147.892 66.156C147.892 66.3847 147.892 66.5712 147.892 66.7216H147.94C148.033 66.5249 148.157 66.3442 148.307 66.1861C148.466 66.0196 148.646 65.874 148.842 65.7529C149.048 65.6247 149.271 65.5255 149.504 65.4581C149.748 65.3871 150.002 65.3526 150.256 65.3558C150.669 65.341 151.081 65.4191 151.459 65.5844C151.775 65.7249 152.058 65.9299 152.29 66.1861C152.512 66.4554 152.677 66.7664 152.777 67.1006C152.883 67.4684 152.935 67.8492 152.934 68.2318V72.6541H151.52V68.6951C151.52 68.419 151.498 68.1433 151.453 67.8708C151.413 67.6272 151.33 67.3928 151.207 67.1789C151.084 66.9783 150.912 66.8126 150.707 66.6975C150.457 66.5679 150.177 66.5056 149.895 66.517C149.632 66.5109 149.371 66.5652 149.132 66.6757C148.893 66.7863 148.683 66.9502 148.517 67.1548C148.144 67.6435 147.956 68.2492 147.988 68.8636V72.6541H146.574V67.0585C146.574 66.866 146.574 66.6193 146.574 66.3185C146.574 66.0176 146.574 65.7529 146.532 65.5243H147.867C147.867 65.7288 147.879 65.9334 147.892 66.156Z" fill="#1F333D"/>
<path d="M156.712 63.623C156.531 63.7914 156.292 63.884 156.044 63.8817C155.922 63.8841 155.8 63.862 155.686 63.8165C155.573 63.771 155.469 63.7032 155.382 63.617C155.295 63.5353 155.226 63.4364 155.18 63.3266C155.133 63.2168 155.11 63.0985 155.112 62.9792C155.108 62.857 155.131 62.7355 155.177 62.6225C155.224 62.5096 155.294 62.4076 155.382 62.3234C155.469 62.2372 155.573 62.1693 155.686 62.1239C155.8 62.0784 155.922 62.0562 156.044 62.0587C156.293 62.0555 156.533 62.1506 156.712 62.3234C156.803 62.4064 156.874 62.5079 156.922 62.6211C156.97 62.7343 156.992 62.8564 156.989 62.9792C156.992 63.1002 156.969 63.2205 156.922 63.3317C156.874 63.4429 156.802 63.5423 156.712 63.623ZM155.334 72.6782V65.5484H156.748V72.6782H155.334Z" fill="#1F333D"/>
<path d="M162.386 66.7156C162.09 66.5453 161.753 66.458 161.411 66.4629C161.249 66.4631 161.088 66.4812 160.93 66.517C160.779 66.5484 160.634 66.6054 160.503 66.6855C160.381 66.7536 160.277 66.8507 160.202 66.9683C160.121 67.0957 160.081 67.2448 160.087 67.3955C160.084 67.5353 160.12 67.6731 160.193 67.7926C160.265 67.9121 160.371 68.0082 160.497 68.0694C160.879 68.2531 161.283 68.3866 161.7 68.4665C162.021 68.5394 162.336 68.6339 162.645 68.7493C162.917 68.852 163.174 68.9917 163.409 69.1644C163.617 69.3261 163.788 69.5315 163.908 69.7661C164.034 70.018 164.096 70.2969 164.089 70.5783C164.102 70.9482 164.019 71.3151 163.848 71.6433C163.695 71.9294 163.477 72.1749 163.21 72.3593C162.936 72.5502 162.628 72.6852 162.302 72.7564C161.956 72.836 161.603 72.8764 161.249 72.8767C160.704 72.8771 160.164 72.7708 159.66 72.5639C159.157 72.3595 158.715 72.0277 158.379 71.6012L159.383 70.7408C159.588 71.0351 159.858 71.2781 160.172 71.4508C160.51 71.639 160.891 71.7364 161.279 71.7336C161.453 71.7343 161.626 71.7161 161.796 71.6794C161.955 71.6508 162.108 71.5938 162.247 71.511C162.381 71.4338 162.493 71.324 162.572 71.1921C162.657 71.0418 162.699 70.8711 162.693 70.6987C162.697 70.5419 162.654 70.3875 162.569 70.2555C162.484 70.1235 162.362 70.0201 162.217 69.9586C161.772 69.758 161.306 69.6067 160.827 69.5074C160.587 69.4472 160.346 69.375 160.099 69.2908C159.859 69.209 159.634 69.0891 159.432 68.9358C159.21 68.7791 159.031 68.5691 158.913 68.3251C158.794 68.0811 158.738 67.811 158.752 67.5399C158.742 67.2147 158.814 66.8923 158.961 66.6021C159.108 66.312 159.326 66.0634 159.594 65.8793C159.854 65.7001 160.143 65.5678 160.448 65.4882C160.775 65.4037 161.11 65.3612 161.447 65.3618C161.956 65.36 162.46 65.4624 162.927 65.6627C163.372 65.8359 163.755 66.1375 164.028 66.5291L163.054 67.3594C162.891 67.0903 162.661 66.8684 162.386 66.7156Z" fill="#1F333D"/>
<path d="M167.482 66.7036V70.4219C167.451 70.7476 167.536 71.0737 167.723 71.3425C167.821 71.443 167.941 71.5204 168.073 71.5693C168.205 71.6182 168.346 71.6373 168.487 71.6253C168.628 71.6231 168.77 71.607 168.908 71.5771C169.05 71.5513 169.187 71.5067 169.317 71.4448L169.359 72.6C169.177 72.6637 168.99 72.712 168.8 72.7444C168.587 72.7811 168.372 72.7992 168.156 72.7985C167.874 72.8172 167.592 72.7771 167.327 72.6808C167.062 72.5845 166.82 72.434 166.616 72.239C166.229 71.7736 166.039 71.1757 166.086 70.5724V66.7036H164.714V65.5484H166.086V63.5027H167.482V65.5484H169.377V66.7036H167.482Z" fill="#1F333D"/>
<path d="M170.827 66.3426C170.827 66.0418 170.827 65.777 170.785 65.5484H172.121C172.121 65.7289 172.157 65.9395 172.169 66.1501C172.181 66.3607 172.169 66.5773 172.169 66.7518H172.217C172.411 66.3384 172.715 65.9865 173.096 65.7349C173.481 65.482 173.934 65.35 174.395 65.3559C174.581 65.3525 174.767 65.3707 174.949 65.41L174.889 66.7217C174.678 66.6701 174.462 66.6439 174.245 66.6435C173.939 66.6362 173.636 66.7022 173.36 66.836C173.124 66.9537 172.918 67.1247 172.759 67.3354C172.588 67.553 172.463 67.8026 172.392 68.0694C172.308 68.3485 172.268 68.6386 172.271 68.9298V72.6783H170.857V67.0586C170.849 66.8821 170.839 66.6435 170.827 66.3426Z" fill="#1F333D"/>
<path d="M180.045 66.8781C179.676 66.608 179.226 66.4721 178.769 66.493C178.378 66.4905 177.991 66.5705 177.632 66.7277C177.3 66.8708 176.998 67.0749 176.742 67.3294L175.99 66.4269C176.361 66.0834 176.796 65.8175 177.271 65.6447C177.793 65.4517 178.346 65.3558 178.902 65.3619C179.357 65.3525 179.809 65.4259 180.238 65.5785C180.584 65.7099 180.899 65.9152 181.158 66.1802C181.4 66.4347 181.585 66.7384 181.7 67.0707C181.822 67.4227 181.883 67.7931 181.88 68.1657V71.2703C181.88 71.511 181.88 71.7637 181.88 72.0285C181.89 72.249 181.919 72.4683 181.964 72.6843H180.719C180.641 72.3489 180.6 72.0058 180.599 71.6614H180.556C180.305 72.0329 179.966 72.3367 179.57 72.5459C179.134 72.7665 178.65 72.8761 178.162 72.8648C177.866 72.8604 177.571 72.8221 177.283 72.7505C176.987 72.678 176.706 72.5537 176.453 72.3834C176.204 72.2043 175.999 71.972 175.851 71.7035C175.676 71.3878 175.59 71.0297 175.605 70.6687C175.58 70.1999 175.735 69.7393 176.038 69.3811C176.355 69.0515 176.747 68.8037 177.181 68.6591C177.698 68.4873 178.233 68.3782 178.776 68.3342C179.365 68.286 179.967 68.262 180.581 68.262V68.0634C180.593 67.8373 180.551 67.6116 180.458 67.4052C180.365 67.1989 180.223 67.0181 180.045 66.8781ZM179.094 69.3209C178.748 69.3455 178.405 69.406 178.072 69.5014C177.79 69.5797 177.529 69.7194 177.307 69.9105C177.208 70.0019 177.13 70.1138 177.078 70.2385C177.026 70.3631 177.001 70.4976 177.007 70.6326C177.001 70.8159 177.047 70.9971 177.139 71.156C177.222 71.2973 177.338 71.4168 177.476 71.505C177.618 71.5951 177.775 71.6583 177.939 71.6915C178.113 71.7277 178.291 71.7458 178.469 71.7456C178.752 71.763 179.035 71.7182 179.299 71.6142C179.563 71.5103 179.802 71.3497 179.997 71.144C180.357 70.73 180.547 70.1943 180.526 69.6458V69.2728H180.183C179.834 69.2788 179.467 69.2908 179.094 69.3209Z" fill="#1F333D"/>
<path d="M185.634 63.6229C185.453 63.7913 185.214 63.8839 184.967 63.8817C184.844 63.8837 184.723 63.8614 184.609 63.816C184.495 63.7705 184.392 63.7029 184.305 63.617C184.218 63.5352 184.149 63.4363 184.102 63.3265C184.056 63.2167 184.032 63.0984 184.034 62.9791C184.031 62.857 184.053 62.7355 184.1 62.6225C184.146 62.5095 184.216 62.4076 184.305 62.3233C184.392 62.2374 184.495 62.1698 184.609 62.1243C184.723 62.0788 184.844 62.0565 184.967 62.0586C185.215 62.0554 185.455 62.1506 185.634 62.3233C185.725 62.4063 185.797 62.5079 185.844 62.6211C185.892 62.7342 185.915 62.8564 185.911 62.9791C185.915 63.1001 185.892 63.2205 185.844 63.3317C185.796 63.4429 185.725 63.5423 185.634 63.6229ZM184.263 72.6782V65.5483H185.677V72.6782H184.263Z" fill="#1F333D"/>
<path d="M195.069 70.6145C194.88 71.0653 194.603 71.4731 194.252 71.8134C193.901 72.1537 193.485 72.4192 193.029 72.594C192.05 72.963 190.97 72.963 189.991 72.594C189.54 72.4179 189.131 72.1518 188.787 71.8118C188.44 71.4693 188.166 71.0599 187.981 70.6085C187.78 70.1287 187.679 69.6125 187.686 69.0922C187.678 68.5738 187.779 68.0594 187.981 67.582C188.164 67.1297 188.439 66.72 188.787 66.3787C189.133 66.0444 189.542 65.7825 189.991 65.6086C190.97 65.2395 192.05 65.2395 193.029 65.6086C193.475 65.7867 193.884 66.048 194.232 66.3787C194.581 66.7213 194.857 67.1305 195.045 67.582C195.242 68.0607 195.341 68.5745 195.334 69.0922C195.348 69.6122 195.258 70.1298 195.069 70.6145ZM193.727 68.1175C193.628 67.8182 193.473 67.5405 193.27 67.2993C193.063 67.0609 192.809 66.8683 192.524 66.7337C192.204 66.5947 191.859 66.523 191.51 66.523C191.161 66.523 190.816 66.5947 190.496 66.7337C190.211 66.8683 189.957 67.0609 189.75 67.2993C189.547 67.5405 189.392 67.8182 189.293 68.1175C189.186 68.4333 189.133 68.7649 189.136 69.0983C189.132 69.4297 189.185 69.7594 189.293 70.073C189.392 70.376 189.547 70.6578 189.75 70.9033C189.952 71.156 190.206 71.3614 190.496 71.505C190.816 71.6439 191.161 71.7156 191.51 71.7156C191.859 71.7156 192.204 71.6439 192.524 71.505C192.813 71.3614 193.068 71.156 193.27 70.9033C193.473 70.6578 193.628 70.376 193.727 70.073C193.834 69.7594 193.887 69.4297 193.883 69.0983C193.887 68.7649 193.834 68.4333 193.727 68.1175Z" fill="#1F333D"/>
<path d="M198.637 66.1561C198.637 66.3847 198.637 66.5713 198.637 66.7217H198.679C198.774 66.5248 198.9 66.3441 199.052 66.1862C199.209 66.0198 199.387 65.8742 199.581 65.753C199.788 65.6258 200.01 65.5267 200.243 65.4582C200.488 65.3876 200.741 65.3531 200.995 65.3559C201.408 65.3412 201.82 65.4194 202.199 65.5845C202.513 65.7238 202.794 65.929 203.023 66.1862C203.249 66.4536 203.417 66.7651 203.516 67.1007C203.622 67.4685 203.674 67.8493 203.673 68.2319V72.6542H202.259V68.6951C202.259 68.419 202.237 68.1434 202.193 67.8709C202.151 67.6269 202.065 67.3925 201.94 67.1789C201.82 66.9786 201.65 66.8128 201.447 66.6976C201.196 66.568 200.916 66.5057 200.634 66.5171C200.371 66.51 200.11 66.5639 199.871 66.6746C199.632 66.7852 199.421 66.9496 199.256 67.1549C198.881 67.6428 198.691 68.2485 198.721 68.8636V72.6542H197.307V67.0586C197.307 66.8661 197.307 66.6194 197.307 66.3186C197.307 66.0177 197.307 65.753 197.265 65.5243H198.601C198.613 65.7289 198.631 65.9335 198.637 66.1561Z" fill="#1F333D"/>
<path d="M211.531 66.7035V72.6782H210.117V66.7035H208.703V65.5483H210.117V64.0502C210.113 63.6564 210.162 63.2639 210.261 62.8829C210.346 62.5441 210.505 62.2279 210.724 61.9564C210.952 61.6951 211.236 61.4892 211.555 61.3547C211.935 61.1951 212.345 61.1172 212.758 61.126C213.058 61.1208 213.358 61.1572 213.649 61.2343L213.48 62.4377C213.371 62.4073 213.261 62.3832 213.149 62.3655C213.026 62.3423 212.901 62.3322 212.776 62.3354C212.549 62.3269 212.324 62.3744 212.12 62.4738C211.96 62.5652 211.827 62.6983 211.735 62.8589C211.642 63.0288 211.581 63.2144 211.555 63.4064C211.525 63.6197 211.511 63.8348 211.513 64.0502V65.5363H213.209V66.6915L211.531 66.7035Z" fill="#1F333D"/>
<path d="M221.416 70.6145C221.232 71.0677 220.955 71.4775 220.604 71.8178C220.259 72.1565 219.85 72.4225 219.4 72.6C218.915 72.7875 218.399 72.8814 217.878 72.8768C217.36 72.882 216.845 72.7881 216.362 72.6C215.907 72.4272 215.492 72.1622 215.144 71.8215C214.796 71.4809 214.523 71.072 214.34 70.6205C214.139 70.1407 214.039 69.6246 214.046 69.1043C214.038 68.5858 214.138 68.0714 214.34 67.5941C214.523 67.1431 214.796 66.7338 215.141 66.3907C215.488 66.0583 215.897 65.7967 216.344 65.6206C216.827 65.4325 217.342 65.3386 217.86 65.3438C218.381 65.3392 218.897 65.4331 219.382 65.6206C219.83 65.7967 220.239 66.0583 220.586 66.3907C220.938 66.7301 221.215 67.1402 221.398 67.5941C221.601 68.0714 221.701 68.5858 221.693 69.1043C221.705 69.6213 221.611 70.1353 221.416 70.6145ZM220.08 68.1175C219.981 67.8182 219.826 67.5405 219.623 67.2993C219.415 67.0623 219.161 66.8699 218.877 66.7337C218.557 66.5948 218.212 66.5231 217.863 66.5231C217.514 66.5231 217.169 66.5948 216.849 66.7337C216.563 66.8667 216.309 67.0596 216.103 67.2993C215.9 67.5405 215.745 67.8182 215.646 68.1175C215.537 68.433 215.482 68.7646 215.484 69.0983C215.482 69.4301 215.537 69.7597 215.646 70.073C215.745 70.3761 215.9 70.6578 216.103 70.9033C216.304 71.1575 216.559 71.3632 216.849 71.505C217.169 71.6439 217.514 71.7156 217.863 71.7156C218.212 71.7156 218.557 71.6439 218.877 71.505C219.166 71.3598 219.42 71.1547 219.623 70.9033C219.826 70.6578 219.982 70.3761 220.08 70.073C220.185 69.7587 220.238 69.4295 220.237 69.0983C220.237 68.7651 220.184 68.434 220.08 68.1175Z" fill="#1F333D"/>
<path d="M223.654 66.3426C223.654 66.0418 223.654 65.777 223.612 65.5484H224.948C224.948 65.7289 224.984 65.9395 224.99 66.1501C224.996 66.3607 224.99 66.5773 224.99 66.7518H225.032C225.228 66.3382 225.534 65.9864 225.917 65.7349C226.302 65.482 226.755 65.35 227.216 65.3559C227.402 65.3525 227.588 65.3707 227.77 65.41L227.71 66.7217C227.499 66.6701 227.283 66.6439 227.066 66.6435C226.758 66.6369 226.453 66.7028 226.175 66.836C225.939 66.9546 225.734 67.1254 225.574 67.3354C225.404 67.5541 225.277 67.8032 225.201 68.0694C225.12 68.3492 225.08 68.6388 225.08 68.9298V72.6783H223.666V67.0586C223.666 66.8902 223.666 66.6435 223.654 66.3426Z" fill="#1F333D"/>
<path d="M236.602 62.0286C237.295 62.0307 237.984 62.132 238.648 62.3294C239.321 62.5234 239.951 62.8462 240.501 63.28C241.062 63.7252 241.518 64.288 241.837 64.9286C242.194 65.6794 242.37 66.504 242.348 67.3353C242.369 68.155 242.194 68.9679 241.837 69.7059C241.514 70.3445 241.059 70.9066 240.501 71.3545C239.949 71.7929 239.321 72.1254 238.648 72.3352C237.987 72.549 237.297 72.6586 236.602 72.6601H232.95V62.0105L236.602 62.0286ZM236.302 71.3665C236.914 71.3753 237.524 71.2839 238.107 71.0958C238.626 70.9332 239.107 70.6671 239.52 70.3136C239.924 69.9708 240.241 69.538 240.447 69.0501C240.676 68.5142 240.789 67.936 240.778 67.3534C240.791 66.755 240.679 66.1604 240.447 65.6085C240.24 65.1234 239.922 64.6929 239.52 64.351C239.106 64.0033 238.625 63.7433 238.107 63.5869C237.523 63.4038 236.913 63.3144 236.302 63.3221H234.436V71.3665H236.302Z" fill="#1F333D"/>
<path d="M245.7 63.6229C245.518 63.7913 245.279 63.8839 245.032 63.8817C244.909 63.8837 244.788 63.8614 244.674 63.816C244.561 63.7705 244.457 63.7029 244.37 63.617C244.283 63.5352 244.214 63.4363 244.168 63.3265C244.121 63.2167 244.098 63.0984 244.099 62.9791C244.096 62.857 244.118 62.7355 244.165 62.6225C244.212 62.5095 244.281 62.4076 244.37 62.3233C244.457 62.2374 244.561 62.1698 244.674 62.1243C244.788 62.0788 244.909 62.0565 245.032 62.0586C245.281 62.0554 245.521 62.1506 245.7 62.3233C245.79 62.4063 245.862 62.5079 245.91 62.6211C245.957 62.7342 245.98 62.8564 245.976 62.9791C245.98 63.1001 245.957 63.2205 245.909 63.3317C245.861 63.4429 245.79 63.5423 245.7 63.6229ZM244.322 72.6782V65.5483H245.736V72.6782H244.322Z" fill="#1F333D"/>
<path d="M249.941 74.736C250.39 74.9439 250.879 75.0527 251.373 75.0548C251.784 75.0662 252.193 74.9967 252.577 74.8503C252.876 74.7303 253.14 74.538 253.347 74.2907C253.548 74.0492 253.692 73.7654 253.768 73.4604C253.859 73.1211 253.904 72.7709 253.9 72.4195V71.505C253.636 71.9038 253.265 72.2206 252.829 72.4195C252.378 72.6312 251.884 72.7402 251.385 72.7384C250.877 72.7451 250.374 72.6468 249.905 72.4496C249.476 72.2717 249.088 72.0052 248.768 71.6674C248.456 71.3299 248.211 70.9357 248.046 70.5062C247.707 69.5754 247.707 68.555 248.046 67.6242C248.208 67.1809 248.453 66.7726 248.768 66.4208C249.086 66.0795 249.471 65.8071 249.899 65.6206C250.365 65.4229 250.867 65.3245 251.373 65.3318C251.879 65.3305 252.378 65.4414 252.835 65.6567C253.298 65.8742 253.684 66.2266 253.943 66.6675V65.5243H255.326V72.2932C255.328 72.7973 255.262 73.2993 255.128 73.7853C255.004 74.2506 254.778 74.6824 254.466 75.0489C254.136 75.4301 253.725 75.7324 253.263 75.9333C252.669 76.1662 252.035 76.2767 251.397 76.2582C250.759 76.2571 250.125 76.143 249.526 75.9213C248.928 75.7164 248.378 75.3931 247.908 74.9706L248.81 73.8696C249.121 74.2357 249.507 74.5311 249.941 74.736ZM249.34 69.9827C249.44 70.2774 249.597 70.5493 249.803 70.783C250.012 71.0162 250.265 71.2045 250.549 71.3365C250.859 71.4835 251.199 71.5556 251.542 71.5471C251.882 71.5501 252.22 71.4847 252.535 71.3546C252.823 71.2293 253.083 71.0472 253.299 70.8191C253.511 70.5886 253.677 70.3188 253.786 70.0248C253.906 69.7098 253.965 69.375 253.961 69.0381C253.965 68.709 253.906 68.3821 253.786 68.0754C253.676 67.7776 253.508 67.5049 253.291 67.2734C253.074 67.0419 252.813 66.8563 252.523 66.7277C252.07 66.5192 251.563 66.4593 251.075 66.5566C250.586 66.6538 250.141 66.9033 249.803 67.2692C249.595 67.5011 249.437 67.7735 249.34 68.0694C249.23 68.3804 249.175 68.7082 249.177 69.0381C249.186 69.3618 249.251 69.6816 249.37 69.9827H249.34Z" fill="#1F333D"/>
<path d="M259.117 63.6229C258.934 63.7922 258.693 63.8848 258.443 63.8817C258.321 63.8837 258.199 63.8614 258.086 63.816C257.972 63.7705 257.868 63.7029 257.781 63.617C257.694 63.5352 257.625 63.4363 257.579 63.3265C257.532 63.2167 257.509 63.0984 257.511 62.9791C257.507 62.857 257.53 62.7355 257.576 62.6225C257.623 62.5095 257.693 62.4076 257.781 62.3233C257.868 62.2374 257.972 62.1698 258.086 62.1243C258.199 62.0788 258.321 62.0565 258.443 62.0586C258.694 62.0545 258.936 62.1497 259.117 62.3233C259.206 62.4073 259.277 62.509 259.325 62.622C259.373 62.7349 259.396 62.8566 259.394 62.9791C259.396 63.1 259.373 63.2199 259.325 63.331C259.277 63.442 259.206 63.5415 259.117 63.6229ZM257.733 72.6782V65.5483H259.147V72.6782H257.733Z" fill="#1F333D"/>
<path d="M263.214 66.7036V70.4219C263.183 70.7476 263.269 71.0737 263.455 71.3425C263.554 71.4433 263.673 71.521 263.805 71.5699C263.937 71.6188 264.079 71.6377 264.219 71.6253C264.361 71.6231 264.502 71.607 264.64 71.5771C264.782 71.5513 264.92 71.5067 265.05 71.4448L265.092 72.6C264.908 72.6644 264.719 72.7127 264.526 72.7444C264.316 72.7811 264.102 72.7992 263.888 72.7985C263.607 72.8172 263.325 72.7771 263.059 72.6808C262.794 72.5845 262.552 72.434 262.348 72.239C261.959 71.7745 261.767 71.1765 261.813 70.5724V66.7036H260.447V65.5484H261.813V63.5027H263.214V65.5484H265.11V66.7036H263.214Z" fill="#1F333D"/>
<path d="M270.525 66.8781C270.153 66.6089 269.702 66.4732 269.243 66.4931C268.852 66.4912 268.465 66.5712 268.106 66.7277C267.774 66.8708 267.472 67.0749 267.216 67.3294L266.463 66.4269C266.834 66.0834 267.27 65.8175 267.745 65.6447C268.269 65.4516 268.823 65.3557 269.382 65.3619C269.834 65.3524 270.285 65.4258 270.711 65.5785C271.06 65.7098 271.376 65.9151 271.638 66.1802C271.88 66.4347 272.065 66.7384 272.179 67.0707C272.302 67.4227 272.363 67.7931 272.36 68.1657V71.2703C272.36 71.511 272.36 71.7637 272.36 72.0285C272.37 72.249 272.398 72.4683 272.444 72.6843H271.169C271.087 72.3494 271.047 72.006 271.048 71.6615H271C270.749 72.033 270.41 72.3367 270.013 72.5459C269.58 72.7672 269.098 72.8768 268.611 72.8648C268.313 72.8608 268.016 72.8224 267.727 72.7505C267.431 72.6769 267.15 72.5527 266.897 72.3834C266.65 72.2027 266.444 71.9708 266.295 71.7035C266.122 71.3867 266.037 71.0294 266.048 70.6687C266.023 70.1999 266.178 69.7394 266.482 69.3811C266.8 69.0528 267.192 68.8053 267.625 68.6591C268.141 68.4879 268.677 68.3788 269.219 68.3342C269.821 68.286 270.422 68.262 271.024 68.262V68.0634C271.04 67.8405 271.002 67.6172 270.916 67.4113C270.829 67.2054 270.695 67.0228 270.525 66.8781ZM269.568 69.3209C269.222 69.3455 268.879 69.406 268.545 69.5014C268.265 69.5784 268.005 69.7183 267.787 69.9106C267.686 70.0009 267.607 70.1126 267.555 70.2375C267.503 70.3625 267.479 70.4974 267.486 70.6326C267.479 70.8154 267.523 70.9965 267.613 71.156C267.696 71.2973 267.811 71.4168 267.95 71.505C268.093 71.5952 268.252 71.6584 268.419 71.6915C268.591 71.728 268.766 71.7461 268.942 71.7457C269.226 71.763 269.509 71.7182 269.773 71.6142C270.037 71.5103 270.275 71.3498 270.471 71.144C270.833 70.7306 271.024 70.1951 271.006 69.6458V69.2728H270.657C270.308 69.2788 269.941 69.2908 269.568 69.3209Z" fill="#1F333D"/>
<path d="M274.749 72.6782V61.3065H276.162V72.6782H274.749Z" fill="#1F333D"/>
<path d="M282.468 72.6782V62.0286H283.954V72.6782H282.468Z" fill="#1F333D"/>
<path d="M287.817 66.156C287.817 66.3847 287.817 66.5712 287.817 66.7216H287.865C287.958 66.5249 288.082 66.3442 288.232 66.1861C288.391 66.0196 288.571 65.874 288.768 65.7529C288.974 65.6247 289.196 65.5255 289.429 65.4581C289.674 65.3871 289.927 65.3526 290.182 65.3558C290.595 65.341 291.006 65.4191 291.385 65.5844C291.701 65.7249 291.983 65.9299 292.215 66.1861C292.437 66.4554 292.603 66.7664 292.703 67.1006C292.808 67.4684 292.861 67.8492 292.859 68.2318V72.6541H291.427V68.6951C291.427 68.419 291.405 68.1433 291.361 67.8708C291.321 67.6272 291.237 67.3928 291.114 67.1789C290.992 66.9783 290.82 66.8126 290.615 66.6975C290.364 66.5679 290.084 66.5056 289.802 66.517C289.539 66.5109 289.278 66.5652 289.039 66.6757C288.801 66.7863 288.59 66.9502 288.425 67.1548C288.051 67.6435 287.863 68.2492 287.895 68.8636V72.6541H286.481V67.0585C286.481 66.866 286.481 66.6193 286.481 66.3185C286.481 66.0176 286.481 65.7529 286.439 65.5243H287.775C287.769 65.7288 287.781 65.9334 287.817 66.156Z" fill="#1F333D"/>
<path d="M299.802 72.5338C299.344 72.755 298.843 72.8702 298.334 72.8707C297.823 72.8802 297.316 72.7796 296.848 72.5759C296.419 72.3915 296.033 72.1189 295.717 71.7757C295.402 71.4239 295.157 71.0155 294.995 70.5724C294.825 70.0996 294.739 69.6006 294.742 69.0982C294.738 68.5978 294.824 68.1006 294.995 67.6302C295.156 67.1852 295.404 66.7763 295.723 66.4268C296.044 66.088 296.431 65.8179 296.86 65.6326C297.322 65.4378 297.82 65.3414 298.322 65.3498C298.851 65.3367 299.374 65.4633 299.838 65.7168C300.24 65.9363 300.589 66.2401 300.861 66.6073V61.3005H302.275V72.6722H300.903V71.541C300.638 71.9701 300.256 72.3145 299.802 72.5338ZM296.367 70.0609C296.462 70.3643 296.618 70.6454 296.825 70.8873C297.032 71.1291 297.285 71.3269 297.57 71.4688C297.889 71.6197 298.24 71.6939 298.593 71.6854C298.933 71.689 299.27 71.6171 299.58 71.4749C299.867 71.3373 300.124 71.1452 300.338 70.9093C300.55 70.6695 300.715 70.3919 300.825 70.091C301.058 69.4599 301.058 68.7666 300.825 68.1355C300.716 67.8309 300.55 67.5493 300.338 67.3052C300.125 67.0663 299.868 66.872 299.58 66.7337C299.27 66.5914 298.933 66.5195 298.593 66.5231C298.24 66.5157 297.891 66.5877 297.57 66.7337C297.288 66.8702 297.037 67.065 296.836 67.3052C296.63 67.5482 296.477 67.8308 296.385 68.1355C296.184 68.7616 296.184 69.4348 296.385 70.0609H296.367Z" fill="#1F333D"/>
<path d="M309.754 72.0645C309.754 71.8439 309.754 71.6574 309.754 71.5049C309.552 71.9094 309.236 72.246 308.845 72.4736C308.419 72.7378 307.927 72.8755 307.425 72.8707C307.013 72.8826 306.603 72.8067 306.222 72.6481C305.902 72.5147 305.618 72.3087 305.392 72.0464C305.174 71.7709 305.011 71.4565 304.911 71.1199C304.805 70.7542 304.752 70.3753 304.754 69.9947V65.5724H306.168V69.4653C306.168 69.7453 306.191 70.0249 306.234 70.3016C306.276 70.5474 306.362 70.7838 306.487 70.9995C306.607 71.1998 306.777 71.3657 306.98 71.4808C307.231 71.6105 307.511 71.6727 307.792 71.6614C308.057 71.6691 308.32 71.615 308.561 71.5032C308.801 71.3914 309.012 71.2252 309.176 71.0176C309.546 70.5296 309.732 69.9264 309.7 69.3148V65.5243H311.114V71.1199C311.114 71.3064 311.114 71.553 311.114 71.8539C311.114 72.1547 311.114 72.4195 311.156 72.6541H309.82C309.778 72.4736 309.76 72.2931 309.754 72.0645Z" fill="#1F333D"/>
<path d="M316.697 66.7156C316.401 66.5453 316.064 66.458 315.723 66.4629C315.561 66.4631 315.399 66.4812 315.241 66.5171C315.09 66.5484 314.946 66.6054 314.814 66.6856C314.692 66.7536 314.589 66.8507 314.513 66.9683C314.432 67.0957 314.393 67.2448 314.399 67.3955C314.395 67.5353 314.432 67.6732 314.504 67.7927C314.577 67.9121 314.682 68.0082 314.808 68.0694C315.191 68.2522 315.595 68.3857 316.011 68.4665C316.334 68.5403 316.651 68.6347 316.962 68.7493C317.232 68.8533 317.487 68.9929 317.72 69.1644C317.93 69.3248 318.101 69.5305 318.219 69.7661C318.345 70.018 318.407 70.2969 318.4 70.5784C318.412 70.9474 318.331 71.3135 318.165 71.6433C318.009 71.9284 317.788 72.1734 317.522 72.3593C317.248 72.5503 316.939 72.6852 316.613 72.7564C316.268 72.836 315.914 72.8764 315.56 72.8768C315.015 72.8771 314.476 72.7708 313.972 72.5639C313.468 72.3595 313.027 72.0278 312.69 71.6012L313.695 70.7408C313.902 71.0332 314.171 71.2757 314.483 71.4508C314.821 71.639 315.203 71.7364 315.59 71.7336C315.764 71.7343 315.938 71.7161 316.108 71.6794C316.267 71.6508 316.42 71.5938 316.559 71.511C316.692 71.4338 316.804 71.3241 316.884 71.1921C316.968 71.0418 317.01 70.8711 317.004 70.6987C317.008 70.5419 316.965 70.3875 316.88 70.2555C316.796 70.1236 316.673 70.0201 316.529 69.9587C316.083 69.758 315.617 69.6067 315.139 69.5074C314.898 69.4472 314.658 69.375 314.411 69.2908C314.171 69.209 313.945 69.0891 313.743 68.9358C313.521 68.7792 313.343 68.5691 313.224 68.3251C313.105 68.0811 313.05 67.811 313.063 67.5399C313.053 67.2147 313.125 66.8923 313.272 66.6022C313.42 66.312 313.637 66.0635 313.905 65.8793C314.167 65.6989 314.458 65.5665 314.766 65.4882C315.09 65.4033 315.424 65.3608 315.759 65.3619C316.267 65.3593 316.771 65.4617 317.239 65.6627C317.684 65.8359 318.067 66.1375 318.34 66.5291L317.365 67.3594C317.202 67.0903 316.972 66.8684 316.697 66.7156Z" fill="#1F333D"/>
<path d="M321.799 66.7036V70.4219C321.768 70.7476 321.854 71.0737 322.04 71.3425C322.14 71.4434 322.26 71.5211 322.394 71.57C322.527 71.6189 322.669 71.6378 322.81 71.6253C322.95 71.6228 323.089 71.6066 323.225 71.5771C323.367 71.5513 323.505 71.5067 323.635 71.4448L323.677 72.6C323.494 72.6637 323.307 72.712 323.117 72.7444C322.907 72.7808 322.693 72.7989 322.479 72.7985C322.197 72.8177 321.914 72.7778 321.647 72.6815C321.381 72.5852 321.138 72.4344 320.933 72.239C320.546 71.7736 320.356 71.1757 320.404 70.5724V66.7036H319.032V65.5484H320.404V63.5027H321.799V65.5484H323.695V66.7036H321.799Z" fill="#1F333D"/>
<path d="M325.121 66.3426C325.121 66.0418 325.121 65.777 325.079 65.5484H326.414C326.414 65.7289 326.45 65.9395 326.456 66.1501C326.462 66.3607 326.456 66.5773 326.456 66.7518H326.505C326.698 66.3384 327.002 65.9865 327.383 65.7349C327.769 65.482 328.221 65.35 328.683 65.3559C328.869 65.3525 329.054 65.3707 329.236 65.41L329.176 66.7217C328.965 66.6701 328.749 66.6439 328.532 66.6435C328.224 66.6369 327.919 66.7028 327.642 66.836C327.406 66.9546 327.2 67.1254 327.04 67.3354C326.87 67.553 326.745 67.8026 326.673 68.0694C326.59 68.3485 326.549 68.6386 326.553 68.9298V72.6783H325.139V67.0586C325.151 66.8821 325.145 66.6435 325.121 66.3426Z" fill="#1F333D"/>
<path d="M331.992 63.623C331.811 63.7914 331.572 63.884 331.324 63.8817C331.202 63.8841 331.08 63.862 330.966 63.8165C330.853 63.771 330.749 63.7032 330.662 63.617C330.575 63.5353 330.506 63.4364 330.46 63.3266C330.413 63.2168 330.39 63.0985 330.391 62.9792C330.388 62.857 330.41 62.7355 330.457 62.6225C330.504 62.5096 330.574 62.4076 330.662 62.3234C330.749 62.2372 330.853 62.1693 330.966 62.1239C331.08 62.0784 331.202 62.0562 331.324 62.0587C331.573 62.0555 331.813 62.1506 331.992 62.3234C332.082 62.4064 332.154 62.5079 332.202 62.6211C332.25 62.7343 332.272 62.8564 332.269 62.9792C332.272 63.1002 332.249 63.2205 332.202 63.3317C332.154 63.4429 332.082 63.5423 331.992 63.623ZM330.614 72.6782V65.5484H332.028V72.6782H330.614Z" fill="#1F333D"/>
<path d="M341.143 69.2908C341.149 69.3709 341.149 69.4513 341.143 69.5314H335.494C335.499 69.8271 335.566 70.1183 335.692 70.3858C335.814 70.6451 335.986 70.8781 336.198 71.0717C336.41 71.2698 336.656 71.4269 336.926 71.535C337.271 71.6637 337.639 71.7169 338.007 71.691C338.374 71.665 338.732 71.5606 339.056 71.3846C339.384 71.1928 339.666 70.9296 339.88 70.6144L340.873 71.4147C340.524 71.8876 340.063 72.2661 339.531 72.5158C338.507 72.958 337.352 72.9882 336.306 72.6C335.857 72.4327 335.447 72.1747 335.102 71.8419C334.763 71.4978 334.497 71.0884 334.32 70.6385C334.125 70.1509 334.029 69.6294 334.037 69.1043C334.031 68.5818 334.125 68.063 334.314 67.576C334.485 67.1307 334.746 66.7258 335.082 66.3871C335.418 66.0484 335.82 65.7833 336.264 65.6086C336.726 65.42 337.221 65.3259 337.72 65.3318C338.205 65.3252 338.687 65.411 339.14 65.5845C339.552 65.7436 339.922 65.9947 340.223 66.3185C340.527 66.6578 340.76 67.0547 340.909 67.4858C341.076 67.9816 341.158 68.5026 341.149 69.0261L341.143 69.2908ZM339.573 67.6903C339.494 67.453 339.364 67.2355 339.194 67.0525C339.027 66.8673 338.822 66.7214 338.592 66.6254C338.318 66.5117 338.023 66.4564 337.726 66.4629C337.435 66.461 337.147 66.5162 336.877 66.6254C336.622 66.722 336.387 66.867 336.186 67.0525C335.988 67.234 335.824 67.4502 335.704 67.6903C335.579 67.9354 335.505 68.2037 335.488 68.4785H339.699C339.694 68.2102 339.647 67.9444 339.561 67.6903H339.573Z" fill="#1F333D"/>
<path d="M346.288 66.7156C345.989 66.5451 345.651 66.4578 345.307 66.4629C345.145 66.4634 344.984 66.4816 344.826 66.5171C344.675 66.5495 344.531 66.6064 344.398 66.6856C344.278 66.7553 344.175 66.8521 344.098 66.9683C344.022 67.0975 343.984 67.2457 343.989 67.3955C343.984 67.5348 344.02 67.6725 344.091 67.7921C344.163 67.9116 344.267 68.0079 344.392 68.0694C344.775 68.2522 345.179 68.3857 345.596 68.4665C345.919 68.5394 346.236 68.6339 346.546 68.7493C346.816 68.8533 347.071 68.9929 347.304 69.1644C347.516 69.3246 347.689 69.5302 347.81 69.7661C347.935 70.018 347.998 70.2969 347.99 70.5784C348.003 70.9482 347.921 71.3151 347.75 71.6433C347.595 71.9281 347.377 72.1732 347.112 72.3593C346.835 72.5492 346.525 72.684 346.197 72.7564C345.852 72.8364 345.499 72.8767 345.144 72.8768C344.602 72.8771 344.064 72.7708 343.562 72.5639C343.057 72.3597 342.613 72.028 342.274 71.6012L343.285 70.7408C343.488 71.0366 343.758 71.28 344.073 71.4508C344.41 71.6383 344.789 71.7357 345.174 71.7336C345.35 71.7341 345.526 71.7159 345.698 71.6794C345.857 71.6487 346.009 71.5918 346.149 71.511C346.279 71.4318 346.389 71.3224 346.468 71.1921C346.556 71.0429 346.597 70.8714 346.588 70.6987C346.592 70.5428 346.55 70.3892 346.466 70.2574C346.383 70.1257 346.262 70.0217 346.119 69.9587C345.671 69.7591 345.203 69.6078 344.723 69.5074C344.489 69.4472 344.242 69.375 343.995 69.2908C343.755 69.209 343.53 69.0891 343.327 68.9358C343.128 68.7851 342.962 68.5945 342.84 68.3763C342.708 68.1179 342.643 67.83 342.653 67.5399C342.646 67.197 342.724 66.8577 342.882 66.5532C343.029 66.2857 343.235 66.0552 343.484 65.8793C343.743 65.699 344.032 65.5666 344.338 65.4882C344.662 65.4033 344.996 65.3608 345.331 65.3619C345.84 65.3593 346.344 65.4617 346.811 65.6627C347.257 65.8365 347.642 66.1378 347.918 66.5291L346.937 67.3594C346.78 67.0926 346.556 66.8709 346.288 66.7156Z" fill="#1F333D"/>
</g>
<defs>
<clipPath id="clip0_244_408">
<rect width="350" height="76.2901" fill="white"/>
</clipPath>
</defs>
</svg>
