<?xml version="1.0" encoding="utf-8"?>
<!-- Generator: Adobe Illustrator 26.3.1, SVG Export Plug-In . SVG Version: 6.00 Build 0)  -->
<svg version="1.1" id="圖層_1" xmlns="http://www.w3.org/2000/svg" xmlns:xlink="http://www.w3.org/1999/xlink" x="0px" y="0px"
	 viewBox="0 0 416.2 339.5" style="enable-background:new 0 0 416.2 339.5;" xml:space="preserve">
<style type="text/css">
	.st0{fill:none;stroke:#4D4D4D;stroke-miterlimit:10;}
	.st1{fill:#71AD91;}
	.st2{fill:#95C1AC;}
	.st3{fill:#FFFFFF;}
	.st4{fill:#4E9875;}
	.st5{fill:#DA8B41;}
</style>
<g>
	<g>
		<path d="M381.6,225.4c-0.2,1.5-0.5,3.2-0.9,4.4c-0.2-0.1-0.7-0.3-1-0.4c0.4-1.1,0.7-2.7,0.9-4.2L381.6,225.4z M384.7,224.6
			c0-0.3-0.1-0.7-0.2-1.1c-3.4,0.7-3.9,0.8-4.2,1c-0.1-0.3-0.3-0.8-0.4-1.2c0.4-0.1,0.7-0.5,1.3-1.2c0.3-0.3,0.8-1.1,1.4-2.1
			c-1.8,0.3-2.2,0.4-2.4,0.5c-0.1-0.3-0.3-0.8-0.4-1.2c0.3-0.1,0.6-0.4,0.9-1c0.3-0.5,1.5-2.6,2.1-4.5l1.2,0.5
			c-0.7,1.7-1.6,3.5-2.5,4.8l1.8-0.2c0.4-0.7,0.8-1.5,1.2-2.3l1.1,0.6c-1.1,2.1-2.4,4.2-3.8,5.8l2.5-0.4c-0.1-0.5-0.3-1.1-0.4-1.6
			l1-0.2c0.4,1.2,0.8,2.7,0.9,3.6L384.7,224.6z M383.3,225.3c0.2,1.2,0.5,2.8,0.5,3.8l-1,0.2c-0.1-1-0.3-2.6-0.4-3.9L383.3,225.3z
			 M384.9,224.8c0.4,1,0.8,2.2,1,3l-1,0.3c-0.2-0.8-0.6-2.1-1-3L384.9,224.8z M389.5,225.3c-0.7,1.3-1.7,2.8-2.5,3.8
			c-0.2-0.2-0.8-0.6-1-0.8c0.8-0.9,1.8-2.3,2.4-3.4L389.5,225.3z M391.8,223.6v6.5h-1.3v-6.5h-4.3v-1.2h9.8v1.2H391.8z M387.8,219
			h-1.2v-3h4.1c-0.2-0.6-0.5-1.4-0.8-2l1.2-0.3c0.4,0.7,0.7,1.6,1,2.3h3.8v3h-1.3v-1.8h-6.9V219z M388,220.4v-1.2h6.5v1.2H388z
			 M394,224.9c0.8,1.1,1.8,2.6,2.2,3.5l-1.2,0.5c-0.5-0.9-1.4-2.5-2.2-3.7L394,224.9z"/>
		<path d="M389.6,232.3c-0.2,0.3-0.4,0.5-0.6,0.8c2.1,2.2,4.6,3.7,7.5,4.9c-0.3,0.3-0.7,0.8-0.9,1.2c-1-0.5-2-1-2.9-1.6v1.2h-9v-0.9
			c-0.9,0.5-1.8,1-2.8,1.5c-0.2-0.4-0.6-0.9-1-1.2c3.4-1.4,6.7-3.7,8.5-6.5L389.6,232.3z M382.7,241h11.1v7.1h-1.4v-0.9H384v1h-1.4
			V241z M384,242.2v3.7h8.4v-3.7H384z M392.6,237.6c-1.6-1-3-2.1-4.4-3.5c-1.2,1.4-2.6,2.5-4.1,3.5H392.6z"/>
		<path d="M386.1,263.7c-0.4-0.7-1.5-2.2-2.3-3.2c-0.4,2-1.3,3.9-3,5.5c-0.2-0.3-0.6-0.7-0.9-0.9c2.2-1.8,2.8-4.5,3-6.9H380v-1.2h3
			c0-0.4,0-0.8,0-1.2V254h-2.6v-1.2h2.6V250h1.3v2.8h2.5v1.2h-2.5v1.8c0,0.4,0,0.8,0,1.2h2.9v1.2h-2.9c0,0.3-0.1,0.7-0.1,1
			c0.7,0.8,2.6,3,3,3.6L386.1,263.7z M394.9,264.7c0.3,0,0.4-0.2,0.5-1.4c0.2,0.2,0.8,0.4,1.1,0.5c-0.1,1.7-0.5,2.1-1.4,2.1h-1.5
			c-1.2,0-1.5-0.4-1.5-1.6v-3.9h-1.3c-0.3,2.7-1.3,4.7-4.3,5.8c-0.1-0.3-0.5-0.8-0.8-1c2.7-0.9,3.5-2.6,3.8-4.8h-1.7v-10h7.7v10
			h-2.1v3.9c0,0.4,0.1,0.4,0.4,0.4H394.9z M388.9,253.4h5.1v-1.7h-5.1V253.4z M388.9,256.3h5.1v-1.8h-5.1V256.3z M388.9,259.2h5.1
			v-1.8h-5.1V259.2z"/>
		<path d="M379.9,282.7c2.5-0.1,6.5-0.3,10.3-0.5l0,1c-3.7,0.2-7.6,0.4-10.1,0.5L379.9,282.7z M389.1,270.7h1.1v0.9h-1.1v1.8h-3.5
			v0.8h3.8v0.8h-3.8v0.8h4.5v0.9H380v-0.9h4.4v-0.8h-3.5v-0.8h3.5v-0.8H381v-0.9h3.4v-1h-4.5v-0.9h4.5v-0.9h-3.3v-0.8h3.3v-1.2h1.2
			v1.2h3.5V270.7z M389.1,277.6v4h-8v-4H389.1z M382.2,279.2h2.3v-0.9h-2.3V279.2z M382.2,280.8h2.3v-0.9h-2.3V280.8z M385.6,270.7
			h2.3v-0.9h-2.3V270.7z M387.9,271.6h-2.3v1h2.3V271.6z M388,278.3h-2.3v0.9h2.3V278.3z M388,279.9h-2.3v0.9h2.3V279.9z
			 M392.1,279.8h-1.2v-9.8h1.2V279.8z M395.6,268.1v14.4c0,0.8-0.2,1.2-0.7,1.4c-0.5,0.2-1.4,0.2-2.8,0.2c-0.1-0.3-0.3-0.9-0.5-1.2
			c1,0,2,0,2.3,0c0.3,0,0.4-0.1,0.4-0.4v-14.4H395.6z"/>
		<path d="M385.8,296.6c-0.1-0.3-0.1-0.7-0.2-1.1c-4.3,0.6-4.8,0.8-5.2,1c-0.1-0.3-0.3-0.9-0.4-1.3c0.4-0.1,0.8-0.5,1.4-1.2
			c0.3-0.3,0.9-1.1,1.6-2.1c-2,0.3-2.4,0.3-2.7,0.5c-0.1-0.3-0.3-0.9-0.4-1.2c0.3-0.1,0.6-0.4,1-1c0.4-0.5,1.7-2.6,2.5-4.6l1.2,0.5
			c-0.8,1.7-1.9,3.4-2.9,4.8l2.1-0.2c0.5-0.8,1-1.6,1.4-2.4l1.2,0.7c-1.3,2.1-2.7,4.1-4.3,5.7l3.2-0.4c-0.2-0.6-0.4-1.2-0.6-1.7
			l1-0.3c0.5,1.2,1,2.8,1.2,3.7L385.8,296.6z M381.9,297.5c-0.2,1.5-0.5,3.2-0.9,4.4c-0.3-0.1-0.8-0.3-1.1-0.4
			c0.4-1.1,0.7-2.7,0.9-4.1L381.9,297.5z M383.9,297.2c0.2,1.2,0.5,2.8,0.5,3.9l-1.1,0.2c0-1-0.2-2.7-0.5-3.9L383.9,297.2z
			 M385.9,296.8c0.4,1,0.8,2.2,1,3.1l-1.1,0.4c-0.1-0.8-0.5-2.1-0.9-3.1L385.9,296.8z M396.3,300.6v1.2h-10v-1.2h1.6v-13.9h7.2v13.9
			H396.3z M389.2,287.9v3.3h4.6v-3.3H389.2z M393.8,292.5h-4.6v3.4h4.6V292.5z M389.2,300.6h4.6v-3.5h-4.6V300.6z"/>
		<path d="M339.3,222.4c-0.3,1.6-0.9,3.3-1.5,4.6c0.4,0.2,0.8,0.5,1.5,0.9c1.3,0.8,2.9,0.9,5,0.9c2.3,0,5.2-0.2,7.2-0.4
			c-0.2,0.4-0.4,1-0.4,1.4c-1.4,0.1-4.8,0.2-6.9,0.2c-2.4,0-3.9-0.2-5.3-1c-0.7-0.4-1.4-1-1.8-1c-0.4,0-1,1.1-1.5,2.3l-0.9-1.2
			c0.6-0.9,1.2-1.6,1.8-2c0.5-1,1-2.4,1.3-3.7h-2.3c0.5-1.1,1.1-2.6,1.5-4h-2v-1.2h3.7c-0.4,1.3-1,2.8-1.5,4.1h1.2l0.2-0.1
			L339.3,222.4z M336.9,217.2c-0.2-0.8-0.6-2-0.9-3l1.2-0.3c0.3,0.9,0.7,2.1,1,2.9L336.9,217.2z M341.9,227.5h-1.3v-9.3h5.1
			c-1.1-0.5-2.4-1.1-3.4-1.5l0.8-0.7c0.8,0.3,1.7,0.6,2.5,1c0.9-0.4,1.7-0.9,2.5-1.4h-7.5v-1.1h8.8l0.3-0.1l0.8,0.6
			c-1,0.9-2.3,1.8-3.6,2.5c0.5,0.3,1,0.5,1.4,0.7h2.3v7.9c0,0.7-0.1,1-0.6,1.2c-0.5,0.2-1.2,0.2-2.4,0.2c-0.1-0.3-0.2-0.8-0.4-1.1
			c0.8,0,1.6,0,1.8,0c0.2,0,0.3-0.1,0.3-0.3v-1.6h-3.1v2.9h-1.2v-2.9h-3V227.5z M341.9,219.3v1.6h3v-1.6H341.9z M344.9,223.5v-1.6
			h-3v1.6H344.9z M349.3,219.3h-3.1v1.6h3.1V219.3z M349.3,223.5v-1.6h-3.1v1.6H349.3z"/>
		<path d="M339.6,243.4h3.2v1.2h-3.2v3.6h-1.2v-3.6H335v-1.2h3.4v-1.9h-3v-1.2h1.7c-0.1-0.6-0.5-1.5-0.8-2.2l1-0.3
			c0.4,0.6,0.8,1.5,0.9,2.1l-0.9,0.3h2.2c0.5-0.8,1-1.8,1.2-2.5l1.2,0.3c-0.4,0.7-0.8,1.5-1.2,2.2h1.8v1.2h-2.8V243.4z M342.8,237.7
			H335v-1.2h3.3v-1.8h-2.8v-1.2h2.8v-1.8h1.2v1.8h2.7v1.2h-2.7v1.8h3.2V237.7z M350.9,238.9c-0.4,2.1-1.1,4.1-2.2,5.8
			c0.8,1,1.8,1.7,2.9,2.3c-0.3,0.3-0.7,0.7-0.9,1.1c-1-0.6-1.9-1.4-2.7-2.3c-0.8,1-1.6,1.8-2.6,2.4c-0.1-0.2-0.4-0.5-0.6-0.7v0.6
			h-1.2v-15.6h7v3.5c0,0.7-0.1,1-0.7,1.2c-0.6,0.2-1.5,0.2-2.8,0.2c-0.1-0.4-0.2-0.8-0.4-1.2c1.1,0,2.1,0,2.3,0
			c0.3,0,0.4-0.1,0.4-0.3v-2.2h-4.5v4.8h5.1l0.2-0.1L350.9,238.9z M344.7,247.1c0.9-0.6,1.7-1.4,2.4-2.4c-1-1.5-1.7-3.2-2.3-5h-0.2
			V247.1z M346,239.8c0.4,1.4,1.1,2.7,1.8,3.9c0.7-1.2,1.2-2.5,1.5-3.9H346z"/>
		<path d="M351.2,251.2v1.1h-13.8v4.2v0.1c1.2-1.1,2.4-2.6,3.2-4.2l1.1,0.3c-0.3,0.7-0.7,1.3-1.2,1.9v6.2h-1.2v-4.7
			c-0.4,0.5-0.9,1-1.3,1.4c-0.1-0.2-0.4-0.5-0.7-0.7c0,2.8-0.3,6.6-1.6,9.2c-0.2-0.2-0.7-0.6-1-0.8c1.3-2.6,1.4-6.3,1.4-8.9v-5.4
			h7.2c-0.3-0.5-0.5-1-0.8-1.4l1.2-0.4c0.4,0.5,0.8,1.2,1.1,1.7H351.2z M337.3,265.1c1-0.8,1.7-2.1,2.1-3.2l1.1,0.4
			c-0.4,1.2-1.1,2.6-2.1,3.5L337.3,265.1z M342.4,256.2c-0.3,0.4-0.6,0.8-1,1.1c-0.2-0.2-0.7-0.6-0.9-0.7c1.2-1,2.2-2.6,2.9-4.1
			l1.1,0.3c-0.2,0.5-0.4,0.9-0.7,1.3h2.7c-0.2-0.4-0.6-0.9-0.9-1.3l0.9-0.4c0.4,0.5,0.9,1.1,1.2,1.5l-0.4,0.2h3.3v0.9h-3.1v1h2.6
			v0.8h-2.6v1h2.7v0.8h-2.7v1h3.4v0.9h-7.3v0.5h-1.2V256.2z M346.3,265c0.6,0,0.7-0.2,0.8-1.5c0.3,0.2,0.8,0.4,1.1,0.4
			c-0.1,1.8-0.5,2.2-1.7,2.2h-2.9c-1.6,0-2-0.3-2-1.5V262h1.2v2.5c0,0.4,0.1,0.5,0.9,0.5H346.3z M346,263.3
			c-0.6-0.6-1.9-1.4-2.9-1.9l0.8-0.7c1.1,0.5,2.3,1.2,3,1.8L346,263.3z M346.4,254.9h-2.8v1h2.8V254.9z M346.4,256.7h-2.8v1h2.8
			V256.7z M346.4,258.5h-2.8v1h2.8V258.5z M348.6,261.8c1,1,2.1,2.4,2.6,3.4l-1.1,0.6c-0.4-1-1.5-2.4-2.5-3.5L348.6,261.8z"/>
		<path d="M348.3,279.6c-0.9,1-2,1.8-3.4,2.4c2,0.6,4.2,0.9,6.5,1.1c-0.2,0.3-0.5,0.8-0.7,1.1c-2.5-0.3-5.1-0.8-7.3-1.5
			c-2.4,0.8-5.1,1.3-7.9,1.6c-0.1-0.3-0.4-0.8-0.6-1.1c2.4-0.2,4.8-0.5,6.9-1.1c-1.2-0.5-2.2-1.1-3.1-1.8c-0.9,0.7-1.8,1.2-2.8,1.6
			c-0.1-0.2-0.6-0.8-0.8-1c1.9-0.8,3.8-2,4.7-3.5l1.2,0.4c-0.2,0.3-0.4,0.6-0.6,0.8h10.2v1H348.3z M336.4,275.3
			c-0.1,1-0.4,2.2-0.7,3c-0.2-0.1-0.6-0.4-0.8-0.5c0.3-0.8,0.4-1.8,0.5-2.7L336.4,275.3z M339.5,274.7c0-0.2-0.1-0.5-0.2-0.7
			c-3.1,0.5-3.6,0.6-3.9,0.7c-0.1-0.2-0.2-0.7-0.3-1c0.3,0,0.7-0.3,1.1-0.7c0.2-0.2,0.7-0.7,1.2-1.3c-1.4,0.1-1.7,0.2-1.9,0.3
			c-0.1-0.2-0.2-0.7-0.3-1c0.3-0.1,0.5-0.3,0.7-0.5c0.3-0.3,1.1-1.5,1.6-2.7l1,0.4c-0.5,1-1.2,2-1.8,2.8l1.4-0.1
			c0.3-0.4,0.7-0.9,1-1.4l1,0.4c-1,1.4-2.1,2.7-3.1,3.7l2.1-0.3c-0.1-0.4-0.3-0.8-0.5-1.1l0.8-0.2c0.4,0.8,0.8,1.9,0.9,2.5
			L339.5,274.7z M337.4,277.8c0-0.7-0.2-1.7-0.3-2.5l0.8-0.2c0.2,0.8,0.4,1.9,0.4,2.5L337.4,277.8z M339.3,277.4
			c-0.1-0.6-0.3-1.5-0.6-2.3l0.8-0.2c0.3,0.7,0.5,1.6,0.6,2.2L339.3,277.4z M339.6,279.6c1,0.8,2.2,1.4,3.7,1.9
			c1.3-0.5,2.5-1.1,3.3-1.9H339.6z M345.9,270.1h-5.6v-0.8h2.4c-0.2-0.4-0.4-0.9-0.6-1.3l1-0.3c0.3,0.5,0.6,1.1,0.8,1.6h2V270.1z
			 M345.5,271.7h-4.8v-0.8h4.8V271.7z M345.5,273.4h-4.8v-0.8h4.8V273.4z M340.8,277.5v-3.2h4.6v3.2H340.8z M341.7,276.7h2.8v-1.6
			h-2.8V276.7z M350.3,274.7c0-0.2-0.1-0.5-0.2-0.8c-3.2,0.4-3.7,0.5-3.9,0.7c-0.1-0.2-0.2-0.7-0.3-1c0.3-0.1,0.7-0.3,1.1-0.7
			c0.2-0.2,0.7-0.7,1.2-1.3c-1.4,0.1-1.8,0.2-2,0.3c-0.1-0.2-0.2-0.7-0.3-1c0.2-0.1,0.5-0.3,0.7-0.5c0.3-0.3,1.1-1.5,1.6-2.6l1,0.4
			c-0.5,1-1.2,2-1.8,2.7l1.5-0.1c0.4-0.4,0.7-0.9,1-1.4l1,0.4c-1,1.3-2,2.6-3,3.6l2.2-0.3c-0.1-0.4-0.3-0.8-0.4-1.1l0.8-0.2
			c0.4,0.8,0.8,1.9,0.9,2.6L350.3,274.7z M347.3,275.2c-0.1,0.9-0.4,2.1-0.6,2.8c-0.2-0.1-0.6-0.4-0.8-0.5c0.3-0.7,0.4-1.7,0.5-2.5
			L347.3,275.2z M348.3,277.7c0-0.7-0.1-1.7-0.3-2.6l0.8-0.1c0.2,0.8,0.4,1.9,0.4,2.5L348.3,277.7z M350.3,277.6
			c-0.1-0.7-0.4-1.8-0.6-2.6l0.8-0.2c0.3,0.8,0.6,1.9,0.7,2.6L350.3,277.6z"/>
		<path d="M340.8,296.6c-0.1-0.3-0.1-0.7-0.2-1.1c-4.3,0.6-4.8,0.8-5.2,1c-0.1-0.3-0.3-0.9-0.4-1.3c0.4-0.1,0.8-0.5,1.4-1.2
			c0.3-0.3,0.9-1.1,1.6-2.1c-2,0.3-2.4,0.3-2.7,0.5c-0.1-0.3-0.3-0.9-0.4-1.2c0.3-0.1,0.6-0.4,1-1c0.4-0.5,1.7-2.6,2.5-4.6l1.2,0.5
			c-0.8,1.7-1.9,3.4-2.9,4.8l2.1-0.2c0.5-0.8,1-1.6,1.4-2.4l1.2,0.7c-1.3,2.1-2.7,4.1-4.3,5.7l3.2-0.4c-0.2-0.6-0.4-1.2-0.6-1.7
			l1-0.3c0.5,1.2,1,2.8,1.2,3.7L340.8,296.6z M336.9,297.5c-0.2,1.5-0.5,3.2-0.9,4.4c-0.3-0.1-0.8-0.3-1.1-0.4
			c0.4-1.1,0.7-2.7,0.9-4.1L336.9,297.5z M338.9,297.2c0.2,1.2,0.5,2.8,0.5,3.9l-1.1,0.2c0-1-0.2-2.7-0.5-3.9L338.9,297.2z
			 M340.9,296.8c0.4,1,0.8,2.2,1,3.1l-1.1,0.4c-0.1-0.8-0.5-2.1-0.9-3.1L340.9,296.8z M351.3,300.6v1.2h-10v-1.2h1.6v-13.9h7.2v13.9
			H351.3z M344.2,287.9v3.3h4.6v-3.3H344.2z M348.8,292.5h-4.6v3.4h4.6V292.5z M344.2,300.6h4.6v-3.5h-4.6V300.6z"/>
		<path d="M294.3,225.9h3.1v1.2h-3.1v3.2h-1.2v-3.2h-3.2v-1.2h3.2v-1.4h-2.5v-6.2h2.5v-1.3h-2.9v-1.2h2.9v-2h1.2v2h2.9v1.2h-2.9v1.3
			h2.6v6.2h-2.6V225.9z M291.5,220.8h1.7v-1.6h-1.7V220.8z M291.5,223.4h1.7v-1.7h-1.7V223.4z M295.9,219.2h-1.7v1.6h1.7V219.2z
			 M295.9,221.8h-1.7v1.7h1.7V221.8z M302.4,217.5v1.6h3.5v9.7c0,0.6-0.1,1-0.5,1.2c-0.4,0.2-1,0.2-1.9,0.2
			c-0.1-0.3-0.2-0.9-0.4-1.2c0.6,0,1.2,0,1.3,0c0.2,0,0.2-0.1,0.2-0.2v-2.5h-2.3v3.8h-1.2v-3.8H299v3.9h-1.2v-11.1h3.4v-1.6h-3.8
			v-1.2h3.8v-2.5h1.2v2.5h2.9c-0.5-0.6-1.4-1.3-2.2-1.9l0.8-0.6c0.8,0.5,1.8,1.3,2.2,1.8l-0.7,0.7h0.9v1.2H302.4z M299,220.2v1.8
			h2.2v-1.8H299z M301.2,225.1v-1.9H299v1.9H301.2z M302.4,220.2v1.8h2.3v-1.8H302.4z M304.6,225.1v-1.9h-2.3v1.9H304.6z"/>
		<path d="M294.5,236.9c-0.3,1-0.8,2.1-1.4,3c0.4,0.1,0.8,0.4,1.4,0.8c1.1,0.6,2.7,0.6,4.6,0.6c2.2,0,5.3-0.1,7.2-0.3
			c-0.1,0.3-0.3,0.9-0.4,1.3c-1.6,0.1-5,0.2-6.8,0.2c-2.1,0-3.7-0.1-4.9-0.8c-0.7-0.4-1.2-0.8-1.5-0.8c-0.5,0-1.3,0.8-2,1.8l-0.7-1
			c0.5-0.5,1-1,1.5-1.3h0c0.6-0.6,1.2-1.6,1.5-2.6h-2.4c0.5-0.7,1-1.7,1.5-2.6H290v-1h3.8c-0.4,0.9-1,1.8-1.4,2.6h1.3l0.2-0.1
			L294.5,236.9z M302.4,243.6h3.6v1.1h-3.6v2.2c0,0.7-0.1,1-0.7,1.2c-0.6,0.2-1.5,0.2-3,0.2c-0.1-0.3-0.3-0.8-0.4-1.2
			c1.1,0.1,2.1,0,2.4,0c0.3,0,0.4-0.1,0.4-0.3v-2.2H294c0.9,0.6,2.1,1.4,2.6,2.1l-1,0.8c-0.5-0.7-1.7-1.6-2.6-2.2l0.9-0.7h-3.8v-1.1
			h10.9v-1h1.3V243.6z M291.7,234c-0.2-0.5-0.5-1.3-0.8-1.9l1.1-0.3c0.3,0.6,0.6,1.4,0.8,1.8L291.7,234z M299,235.3
			c0.1-0.3,0.2-0.6,0.3-0.9h-4.6v-1h3c-0.2-0.4-0.5-1-0.8-1.4l1.1-0.3c0.4,0.5,0.8,1.2,1,1.6l-0.2,0.1h2.9c0.3-0.5,0.7-1.2,0.9-1.6
			l1.3,0.3c-0.3,0.5-0.6,1-0.9,1.4h3v1h-5.2c-0.2,0.3-0.3,0.6-0.5,0.9h4.3v5.3h-8.6v-5.3H299z M303.2,236h-6v0.8h6V236z
			 M303.2,237.5h-6v0.8h6V237.5z M303.2,239.1h-6v0.8h6V239.1z"/>
		<path d="M293.3,261.2c0.7-0.3,1.4-0.6,2.1-0.8l0.3,1.2c-1.9,0.8-3.9,1.6-5.4,2.2l-0.4-1.4c0.6-0.2,1.4-0.5,2.3-0.8v-6.3H290v-1.3
			h2.1V250h1.2v4.2h2v1.3h-2V261.2z M306.3,256.8v1.2h-11.1v-1.2h6.7c0.5-1,1-2.6,1.3-3.7l1.3,0.3c-0.4,1.1-0.9,2.4-1.3,3.3H306.3z
			 M305.8,253h-9.8v-1.2h4.4c-0.1-0.6-0.3-1.3-0.5-1.9l1.2-0.2c0.3,0.7,0.5,1.5,0.6,2.1h4.1V253z M296.8,259.6h8.1v6.5h-1.3v-0.7
			H298v0.8h-1.2V259.6z M298.1,256.6c-0.1-0.8-0.5-2.1-1-3.1l1.1-0.3c0.5,0.9,0.9,2.2,1,3L298.1,256.6z M298,260.8v3.4h5.6v-3.4H298
			z"/>
		<path d="M296.4,271.9h-6.5v-1.1h6.5V271.9z M295.8,274.2h-5.1v-1.1h5.1V274.2z M290.6,275.5h5.1v1.1h-5.1V275.5z M291.8,283.1v0.8
			h-1.1v-6h5.3v5.2H291.8z M291.8,279v3h3v-3H291.8z M293.2,270.6c-0.3-0.6-0.8-1.7-1.3-2.4l1-0.5c0.5,0.7,1.1,1.7,1.4,2.3
			L293.2,270.6z M298.1,268.3h1.3v6.3c0,3.5-0.2,7-2.3,9.8c-0.3-0.2-0.8-0.6-1.2-0.7c2.1-2.6,2.3-5.8,2.3-9.1V268.3z M301.2,269h1.2
			v13.4h-1.2V269z M305.8,268.1v16.1h-1.3v-16.1H305.8z"/>
		<path d="M295.8,296.6c-0.1-0.3-0.1-0.7-0.2-1.1c-4.3,0.6-4.8,0.8-5.2,1c-0.1-0.3-0.3-0.9-0.4-1.3c0.4-0.1,0.8-0.5,1.4-1.2
			c0.3-0.3,0.9-1.1,1.6-2.1c-2,0.3-2.4,0.3-2.7,0.5c-0.1-0.3-0.3-0.9-0.4-1.2c0.3-0.1,0.6-0.4,1-1c0.4-0.5,1.7-2.6,2.5-4.6l1.2,0.5
			c-0.8,1.7-1.9,3.4-2.9,4.8l2.1-0.2c0.5-0.8,1-1.6,1.4-2.4l1.2,0.7c-1.3,2.1-2.7,4.1-4.3,5.7l3.2-0.4c-0.2-0.6-0.4-1.2-0.6-1.7
			l1-0.3c0.5,1.2,1,2.8,1.2,3.7L295.8,296.6z M291.9,297.5c-0.2,1.5-0.5,3.2-0.9,4.4c-0.3-0.1-0.8-0.3-1.1-0.4
			c0.4-1.1,0.7-2.7,0.9-4.1L291.9,297.5z M293.9,297.2c0.2,1.2,0.5,2.8,0.5,3.9l-1.1,0.2c0-1-0.2-2.7-0.5-3.9L293.9,297.2z
			 M295.9,296.8c0.4,1,0.8,2.2,1,3.1l-1.1,0.4c-0.1-0.8-0.5-2.1-0.9-3.1L295.9,296.8z M306.3,300.6v1.2h-10v-1.2h1.6v-13.9h7.2v13.9
			H306.3z M299.2,287.9v3.3h4.6v-3.3H299.2z M303.8,292.5h-4.6v3.4h4.6V292.5z M299.2,300.6h4.6v-3.5h-4.6V300.6z"/>
		<path d="M248.9,221.3c0.5,0.6,1.9,2.2,2.3,2.6l-0.7,1.1c-0.3-0.5-1-1.6-1.5-2.4v7.6h-1.3v-7.8c-0.6,1.8-1.5,3.6-2.3,4.7
			c-0.1-0.4-0.4-1-0.6-1.3c1-1.3,2.1-3.6,2.8-5.7H245v-1.3h2.6V216c-0.7,0.2-1.5,0.3-2.2,0.4c0-0.3-0.2-0.8-0.3-1.1
			c1.8-0.3,3.8-0.8,5-1.4l0.8,1.1c-0.6,0.3-1.3,0.5-2,0.7v3.2h2v1.3h-2V221.3z M257.6,219.5c-1.4,0-1.7-0.3-1.7-1.4v-1.2h-0.3
			c-0.4,1-1.4,2-3.3,2.7h1.1v1.2c2.2-0.2,4.7-0.4,6.1-0.8l0.8,0.8c-1.8,0.4-4.5,0.7-6.9,0.8v0.3c0,0.5,0.1,0.6,0.8,0.6h4.6
			c0.6,0,1.5,0,1.9-0.1c0,0.3,0.1,0.7,0.1,1c-0.3,0.1-1.2,0.1-1.9,0.1H254c-1.5,0-1.9-0.4-1.9-1.6v-2.3c-0.2,0.1-0.3,0.1-0.5,0.2
			c-0.1-0.3-0.4-0.8-0.6-1c1.7-0.6,2.7-1.2,3.2-1.9h-3v-1h3.5c0.1-0.3,0.1-0.5,0.1-0.7v-1.4h1.2v1.4c0,0.2,0,0.5,0,0.7h3.3
			c-0.6-0.5-1.5-1-2.3-1.4l0.7-0.7c0.8,0.4,1.8,1,2.4,1.4l-0.7,0.7h1.7v1h-4v1.2c0,0.4,0.1,0.4,0.6,0.4h1.9c0.4,0,0.5-0.1,0.5-1.1
			c0.3,0.2,0.7,0.3,1,0.4c-0.1,1.3-0.4,1.7-1.4,1.7H257.6z M252,224.4h8.2v5.7h-1.3v-0.6h-5.7v0.6H252V224.4z M253.3,225.4v1.2h5.7
			v-1.2H253.3z M258.9,228.6v-1.2h-5.7v1.2H258.9z"/>
		<path d="M250.2,241.3c-0.3-0.6-0.8-1.6-1.3-2.5v9.4h-1.3v-8.6c-0.6,1.9-1.4,3.8-2.2,5c-0.1-0.4-0.5-1-0.7-1.3
			c1.1-1.5,2.2-4.3,2.8-6.8h-2.3v-1.3h2.4v-3.5h1.3v3.5h2v1.3h-2v0.7c0.5,0.7,1.8,2.7,2.1,3.2L250.2,241.3z M260.9,240.7
			c-0.7,1.3-1.7,2.5-2.8,3.5c1.2,1,2.6,2.1,3.3,3l-1,0.9c-0.7-0.8-2.1-2-3.2-3c-1.7,1.4-3.7,2.4-5.9,3.2c-0.2-0.3-0.5-0.8-0.8-1.1
			c4.2-1.4,7.6-3.9,9.1-7L260.9,240.7z M259.5,237.4c-1.5,2.7-4.2,5.3-7.4,6.8c-0.1-0.3-0.5-0.8-0.8-1c1.8-0.8,3.5-2,4.8-3.4
			c-3.2,0.2-3.7,0.3-4.1,0.4c0-0.3-0.3-1-0.4-1.3c0.3-0.1,0.8-0.2,1.2-0.5c0.3-0.4,1.4-2,2-3h-3.4v-1.2h4.7
			c-0.2-0.6-0.5-1.5-0.9-2.1l1.2-0.4c0.5,0.8,0.9,1.8,1,2.4l-0.2,0.1h4v1.2h-5.1c-0.6,1-1.5,2.4-2.1,3.4l3.1-0.2
			c0.4-0.5,0.8-1.1,1.1-1.7L259.5,237.4z"/>
		<path d="M249.6,259.6c-0.2-0.6-0.8-1.6-1.2-2.5v9h-1.1v-8.9c-0.5,2-1.2,3.9-1.9,5.1c-0.1-0.4-0.4-1-0.6-1.3
			c0.9-1.4,1.8-4.2,2.3-6.6h-2v-1.3h2.1v-3.5h1.1v3.5h1.6v1c2.1-1.1,4.1-2.9,5-4.5l1.3,0.4c-0.1,0.2-0.3,0.4-0.4,0.6
			c1.4,1.2,3.6,2.4,5.4,3.1c-0.2,0.3-0.5,0.9-0.6,1.2c-1.9-0.8-4-2.1-5.5-3.5c-0.7,0.8-1.5,1.6-2.4,2.3h5.3v1.1h-5.4v-1
			c-0.6,0.5-1.3,0.9-1.9,1.3c-0.2-0.2-0.5-0.6-0.8-0.8v0.2h-1.6v1.2c0.5,0.6,1.6,2.5,1.9,3L249.6,259.6z M253.7,261.2
			c-0.1,0.5-0.3,0.9-0.5,1.3c0.7,0.5,1.6,1.1,2,1.6l-0.7,0.9c-0.4-0.4-1.1-1-1.8-1.5c-0.7,1.2-1.6,2.1-2.7,2.9
			c-0.2-0.2-0.6-0.7-0.9-0.9c1.6-1,2.9-2.5,3.4-4.5L253.7,261.2z M251,256.2h4v4.3h-4V256.2z M252,259.5h1.9v-2.4H252V259.5z
			 M258.7,261.1c-0.1,0.6-0.3,1.1-0.5,1.6c1.1,0.7,2.4,1.7,3.1,2.4l-0.8,0.9c-0.6-0.6-1.7-1.5-2.8-2.3c-0.5,1-1.3,1.9-2.2,2.5
			c-0.2-0.2-0.6-0.7-0.9-0.9c1.5-1,2.4-2.5,2.8-4.4L258.7,261.1z M256.1,256.2h4.1v4.3h-4.1V256.2z M257.1,259.5h2v-2.4h-2V259.5z"
			/>
		<path d="M261.1,271.2h-5.8c2.1,1.2,4.4,2.8,5.8,3.8l-0.9,0.9c-1.4-1.2-4.1-3-6.4-4.4v3.4h-1.3v-3.7c-1.6,2.1-4.3,4-6.7,4.9
			c-0.2-0.3-0.6-0.8-0.9-1.1c2.2-0.8,4.6-2.3,6.1-4h-5.8V270h7.2v-2.3h1.3v2.3h7.3V271.2z M245.5,282.4h15.3v1.2h-15.3V282.4z
			 M258.1,275.5v5.8h-9.9v-5.8H258.1z M256.7,276.5h-7.3v1.5h7.3V276.5z M256.7,278.9h-7.3v1.5h7.3V278.9z"/>
		<path d="M250.8,296.6c-0.1-0.3-0.1-0.7-0.2-1.1c-4.3,0.6-4.8,0.8-5.2,1c-0.1-0.3-0.3-0.9-0.4-1.3c0.4-0.1,0.8-0.5,1.4-1.2
			c0.3-0.3,0.9-1.1,1.6-2.1c-2,0.3-2.4,0.3-2.7,0.5c-0.1-0.3-0.3-0.9-0.4-1.2c0.3-0.1,0.6-0.4,1-1c0.4-0.5,1.7-2.6,2.5-4.6l1.2,0.5
			c-0.8,1.7-1.9,3.4-2.9,4.8l2.1-0.2c0.5-0.8,1-1.6,1.4-2.4l1.2,0.7c-1.3,2.1-2.7,4.1-4.3,5.7l3.2-0.4c-0.2-0.6-0.4-1.2-0.6-1.7
			l1-0.3c0.5,1.2,1,2.8,1.2,3.7L250.8,296.6z M246.9,297.5c-0.2,1.5-0.5,3.2-0.9,4.4c-0.3-0.1-0.8-0.3-1.1-0.4
			c0.4-1.1,0.7-2.7,0.9-4.1L246.9,297.5z M248.9,297.2c0.2,1.2,0.5,2.8,0.5,3.9l-1.1,0.2c0-1-0.2-2.7-0.5-3.9L248.9,297.2z
			 M250.9,296.8c0.4,1,0.8,2.2,1,3.1l-1.1,0.4c-0.1-0.8-0.5-2.1-0.9-3.1L250.9,296.8z M261.3,300.6v1.2h-10v-1.2h1.6v-13.9h7.2v13.9
			H261.3z M254.2,287.9v3.3h4.6v-3.3H254.2z M258.8,292.5h-4.6v3.4h4.6V292.5z M254.2,300.6h4.6v-3.5h-4.6V300.6z"/>
		<path d="M203.2,221.7c-0.7-0.6-2.2-1.4-3.3-1.9l0.7-1c1.1,0.4,2.6,1.2,3.3,1.8L203.2,221.7z M200.5,229.1c1-1.4,2.4-3.7,3.4-5.8
			l1,0.9c-0.9,1.9-2.2,4.1-3.3,5.8L200.5,229.1z M201.6,214c1.2,0.5,2.7,1.3,3.4,1.9l-0.8,1.1c-0.7-0.6-2.2-1.5-3.4-2L201.6,214z
			 M214.8,230.2c-0.2-0.5-0.5-1.1-0.8-1.8c-6.7,0.8-7.4,1-7.9,1.2c-0.1-0.3-0.3-1-0.5-1.3c0.3-0.1,0.7-0.5,1.2-1.2
			c0.4-0.5,1.6-2.4,2.5-4.5h-4v-1.3h4.6v-3.2H206v-1.3h3.8v-3.1h1.3v3.1h4v1.3h-4v3.2h4.7v1.3h-5.1c-0.9,1.9-2.1,3.8-3.2,5.3
			l5.7-0.6c-0.5-0.8-1-1.6-1.6-2.3l1.1-0.5c1.3,1.6,2.6,3.7,3.2,5.1L214.8,230.2z"/>
		<path d="M206.1,245.7c-0.4-0.7-1.5-2.2-2.3-3.2c-0.4,2-1.3,3.9-3,5.5c-0.2-0.3-0.6-0.7-0.9-0.9c2.2-1.8,2.8-4.5,3-6.9H200v-1.2h3
			c0-0.4,0-0.8,0-1.2V236h-2.6v-1.2h2.6V232h1.3v2.8h2.5v1.2h-2.5v1.8c0,0.4,0,0.8,0,1.2h2.9v1.2h-2.9c0,0.3-0.1,0.7-0.1,1
			c0.7,0.8,2.6,3,3,3.6L206.1,245.7z M214.9,246.7c0.3,0,0.4-0.2,0.5-1.4c0.2,0.2,0.8,0.4,1.1,0.5c-0.1,1.7-0.5,2.1-1.4,2.1h-1.5
			c-1.2,0-1.5-0.4-1.5-1.6v-3.9h-1.3c-0.3,2.7-1.3,4.7-4.3,5.8c-0.1-0.3-0.5-0.8-0.8-1c2.7-0.9,3.5-2.6,3.8-4.8h-1.7v-10h7.7v10
			h-2.1v3.9c0,0.4,0.1,0.4,0.4,0.4H214.9z M208.9,235.4h5.1v-1.7h-5.1V235.4z M208.9,238.3h5.1v-1.8h-5.1V238.3z M208.9,241.2h5.1
			v-1.8h-5.1V241.2z"/>
		<path d="M215.5,256.1c-0.8,2.9-2.1,5.1-4,6.7c1.4,1,3,1.7,4.9,2.1c-0.3,0.3-0.7,0.9-0.9,1.3c-2-0.5-3.6-1.4-5.1-2.5
			c-1.7,1.2-3.6,2.1-5.7,2.6c-0.2-0.4-0.5-1-0.8-1.2c1.9-0.5,3.8-1.2,5.4-2.3c-1.6-1.5-2.7-3.5-3.6-5.8h-0.7
			c-0.4,2.9-1.4,6.1-4.3,8.9c-0.2-0.4-0.7-0.9-1-1.1c3.8-3.5,4.1-8,4.1-11.2v-1.6h-3.2v-1.3h11c-0.4,1.7-0.8,3.7-1.2,5.1h3.7
			l0.3-0.1L215.5,256.1z M205.3,253.5c0,0.7,0,1.4-0.1,2.2h3.9c0.3-1.1,0.7-2.5,1-3.8h-4.8V253.5z M207.1,257
			c0.7,1.9,1.9,3.6,3.3,4.9c1.5-1.3,2.6-2.9,3.3-4.9H207.1z"/>
		<path d="M215.5,268.6v15.6h-1.3v-0.8h-12.3v0.8h-1.3v-15.6H215.5z M214.2,282.2v-12.4h-12.3v12.4H214.2z M208.2,279.5
			c-1.9,0.4-3.8,0.7-5.3,1l-0.2-1c1.4-0.2,3.4-0.6,5.4-0.9L208.2,279.5z M212.6,274.2c-0.5,1.7-1.1,3.1-2,4.4c0.4,1,0.8,1.6,1.4,1.7
			c0.2,0.1,0.4-0.7,0.5-1.8c0.2,0.2,0.6,0.5,0.9,0.6c-0.2,1.9-0.8,2.6-1.8,2.3c-0.8-0.2-1.4-0.8-1.8-1.8c-0.7,0.8-1.5,1.5-2.4,2.1
			c-0.2-0.2-0.6-0.6-0.8-0.9c1.1-0.6,2-1.4,2.8-2.4c-0.5-1.4-0.8-3.3-1-5.3h-5.5v-1h5.4c-0.1-0.6-0.1-1.3-0.1-1.9h1.2
			c0,0.6,0.1,1.3,0.1,1.9h3.9v1h-3.8c0.2,1.5,0.4,2.9,0.7,4.1c0.6-1,1-2.1,1.3-3.3L212.6,274.2z M207.5,274.3v3.5h-4v-3.5H207.5z
			 M206.5,275.2h-2.1v1.9h2.1V275.2z M212.2,272c-0.4-0.4-1.2-1-1.9-1.3l0.6-0.7c0.7,0.3,1.5,0.8,1.9,1.2L212.2,272z"/>
		<path d="M209.6,286.3c-0.2,0.3-0.4,0.5-0.6,0.8c2.1,2.2,4.6,3.7,7.5,4.9c-0.3,0.3-0.7,0.8-0.9,1.2c-1-0.5-2-1-2.9-1.6v1.2h-9v-0.9
			c-0.9,0.5-1.8,1-2.8,1.5c-0.2-0.4-0.6-0.9-1-1.2c3.4-1.4,6.7-3.7,8.5-6.5L209.6,286.3z M202.7,295h11.1v7.1h-1.4v-0.9H204v1h-1.4
			V295z M204,296.2v3.7h8.4v-3.7H204z M212.6,291.6c-1.6-1-3-2.1-4.4-3.5c-1.2,1.4-2.6,2.5-4.1,3.5H212.6z"/>
		<path d="M205.8,314.6c-0.1-0.3-0.1-0.7-0.2-1.1c-4.3,0.6-4.8,0.8-5.2,1c-0.1-0.3-0.3-0.9-0.4-1.3c0.4-0.1,0.8-0.5,1.4-1.2
			c0.3-0.3,0.9-1.1,1.6-2.1c-2,0.3-2.4,0.3-2.7,0.5c-0.1-0.3-0.3-0.9-0.4-1.2c0.3-0.1,0.6-0.4,1-1c0.4-0.5,1.7-2.6,2.5-4.6l1.2,0.5
			c-0.8,1.7-1.9,3.4-2.9,4.8l2.1-0.2c0.5-0.8,1-1.6,1.4-2.4l1.2,0.7c-1.3,2.1-2.7,4.1-4.3,5.7l3.2-0.4c-0.2-0.6-0.4-1.2-0.6-1.7
			l1-0.3c0.5,1.2,1,2.8,1.2,3.7L205.8,314.6z M201.9,315.5c-0.2,1.5-0.5,3.2-0.9,4.4c-0.3-0.1-0.8-0.3-1.1-0.4
			c0.4-1.1,0.7-2.7,0.9-4.1L201.9,315.5z M203.9,315.2c0.2,1.2,0.5,2.8,0.5,3.9l-1.1,0.2c0-1-0.2-2.7-0.5-3.9L203.9,315.2z
			 M205.9,314.8c0.4,1,0.8,2.2,1,3.1l-1.1,0.4c-0.1-0.8-0.5-2.1-0.9-3.1L205.9,314.8z M216.3,318.6v1.2h-10v-1.2h1.6v-13.9h7.2v13.9
			H216.3z M209.2,305.9v3.3h4.6v-3.3H209.2z M213.8,310.5h-4.6v3.4h4.6V310.5z M209.2,318.6h4.6v-3.5h-4.6V318.6z"/>
		<path d="M160.1,224.6c-0.2-0.5-0.8-1.5-1.2-2.4v8h-1.3v-7.5c-0.6,1.7-1.4,3.3-2.2,4.3c-0.1-0.4-0.5-1-0.7-1.3
			c1-1.3,2.1-3.6,2.7-5.7h-2.3v-1.3h2.5V216c-0.6,0.1-1.3,0.3-1.9,0.4c-0.1-0.3-0.3-0.8-0.4-1.1c1.7-0.3,3.6-0.8,4.8-1.4l0.8,1.1
			c-0.6,0.3-1.3,0.5-2.1,0.7v3.2h2.1v1.3h-2.1v0.4c0.5,0.6,1.8,2.5,2.1,3L160.1,224.6z M170.2,225.7c-0.2-1.5-0.9-3.7-1.7-5.3
			c-0.9,2.2-2,4.2-3.3,5.9v1.8c0,0.7,0.1,0.8,0.8,0.8h2.1c0.6,0,0.7-0.5,0.8-2.7c0.3,0.3,0.8,0.5,1.2,0.5c-0.1,2.6-0.5,3.3-1.8,3.3
			h-2.4c-1.5,0-1.9-0.4-1.9-2v-0.2c-0.7,0.8-1.5,1.5-2.3,2.1c-0.2-0.3-0.8-0.7-1.1-0.9c1.3-0.9,2.4-2,3.4-3.2v-8.2h1.3v6.4
			c1.7-2.6,2.9-5.7,3.9-9.2l1.3,0.3c-0.5,1.8-1.1,3.6-1.8,5.2l1.1-0.3c0.8,1.7,1.5,3.9,1.7,5.3L170.2,225.7z M160.5,225
			c0.7-1.4,1.1-3.7,1.3-5.5l1,0.2c-0.2,1.8-0.6,4.3-1.3,5.7L160.5,225z M166.9,217.4c-0.7-0.8-2.2-1.9-3.4-2.7l0.8-0.9
			c1.2,0.7,2.7,1.8,3.5,2.6L166.9,217.4z"/>
		<path d="M171.1,240.8v1h-15.9v-1h7.2v-1.1h-6v-0.9h6v-0.9h-5.5V237h5.5v-1.1h-7.2v-1h7.2v-1h-5.3V233h5.3v-1.3h1.3v1.3h5.1v1.9
			h2.1v1h-2.1v2h-5.1v0.9h6.1v0.9h-6.1v1.1H171.1z M157.4,242.7h11.5v5.6h-1.3v-0.6h-8.9v0.6h-1.3V242.7z M158.7,243.6v1.1h8.9v-1.1
			H158.7z M167.6,246.7v-1.1h-8.9v1.1H167.6z M163.7,234.9h3.8v-1h-3.8V234.9z M163.7,237h3.8v-1.1h-3.8V237z"/>
		<path d="M171.1,264.5v1.2h-15.9v-1.2h7.2v-2.4h-5.6v-1.2h5.6V259h1.4v1.9h5.7v1.2h-5.7v2.4H171.1z M156.7,254.5h-1.3v-3.2h7.2
			c-0.2-0.5-0.5-1-0.7-1.4l1.3-0.4c0.3,0.5,0.7,1.2,0.9,1.8h6.7v3.2h-1.4v-1.9h-12.7V254.5z M168.5,259.6c-0.3-0.3-0.6-0.7-1-1.2
			c-8.5,0.7-9.4,0.7-9.9,1c-0.1-0.3-0.3-0.9-0.4-1.2c0.3-0.1,0.8-0.3,1.2-0.6c0.4-0.3,1.5-1.1,2.5-2.2h-3.6v-1.2h11.9v1.2h-6.5
			c-1,1-2,1.9-3,2.6l7-0.5c-0.5-0.5-1-0.9-1.5-1.3l1-0.6c1.2,1,2.8,2.3,3.5,3.3L168.5,259.6z"/>
		<path d="M118.8,213.8c0,0.6,0,1.5-0.1,2.6c0.3,2.1,1.4,9.7,7.7,12.5c-0.4,0.3-0.8,0.8-1,1.1c-4.5-2.1-6.4-6.6-7.3-9.9
			c-0.8,3.6-2.7,7.6-7.1,10c-0.2-0.4-0.7-0.8-1.1-1c7.5-3.8,7.4-12.5,7.4-15.3H118.8z"/>
		<path d="M126.2,243.1h-1.9v3.2H123v-0.8h-4.3v1.2c0,0.8-0.3,1.1-0.8,1.3c-0.6,0.2-1.5,0.2-3,0.2c-0.1-0.3-0.3-0.8-0.5-1.1
			c1.1,0,2.2,0,2.5,0c0.3,0,0.4-0.1,0.4-0.4v-1.2h-5.8v-1h5.8v-1.4H110V242h7.4v-1.3h-5.7v-1h5.7v-1.3h-5.1v-3.2h5.1v-1h-7v-1.1h7
			v-1.4h1.3v1.4h7.2v1.1h-7.2v1h5.4v3.2h-5.4v1.3h5.7v2.3h1.9V243.1z M117.4,237.6v-1.3h-3.9v1.3H117.4z M118.7,236.3v1.3h4v-1.3
			H118.7z M118.7,242h4.3v-1.3h-4.3V242z M123,243.1h-4.3v1.4h4.3V243.1z"/>
		<path d="M126.1,264.5v1.2h-15.9v-1.2h7.2v-2.4h-5.6v-1.2h5.6V259h1.4v1.9h5.7v1.2h-5.7v2.4H126.1z M111.7,254.5h-1.3v-3.2h7.2
			c-0.2-0.5-0.5-1-0.7-1.4l1.3-0.4c0.3,0.5,0.7,1.2,0.9,1.8h6.7v3.2h-1.4v-1.9h-12.7V254.5z M123.5,259.6c-0.3-0.3-0.6-0.7-1-1.2
			c-8.5,0.7-9.4,0.7-9.9,1c-0.1-0.3-0.3-0.9-0.4-1.2c0.3-0.1,0.8-0.3,1.2-0.6c0.4-0.3,1.5-1.1,2.5-2.2h-3.6v-1.2h11.9v1.2h-6.5
			c-1,1-2,1.9-3,2.6l7-0.5c-0.5-0.5-1-0.9-1.5-1.3l1-0.6c1.2,1,2.8,2.3,3.5,3.3L123.5,259.6z"/>
		<path d="M81.1,228.3v1.3H65.2v-1.3h7.2v-4.4h-5.5v-1.3h5.5v-3.9H66v-1.3h7.9c-0.7-0.8-2-2-3.1-2.8l1.1-0.8
			c1.2,0.8,2.6,2.1,3.3,2.9l-0.8,0.6h5.8v1.3h-6.4v3.9h5.7v1.3h-5.7v4.4H81.1z"/>
		<path d="M72.7,235.9h-7.4v-1.1h7.4V235.9z M66.1,237.2H72v1.1h-5.9V237.2z M71.9,240.6h-5.8v-1.1h5.8V240.6z M72,247.1h-4.5v0.8
			h-1.2v-6H72V247.1z M67.4,243v3h3.3v-3H67.4z M68.8,234.6c-0.3-0.6-0.8-1.7-1.3-2.4l1-0.5c0.5,0.7,1.1,1.7,1.4,2.3L68.8,234.6z
			 M81.2,239.3h-3.7v8.9h-1.4v-8.9h-3.5V238h3.5v-5.9h1.4v5.9h3.7V239.3z"/>
		<path d="M81.1,264.5v1.2H65.2v-1.2h7.2v-2.4h-5.6v-1.2h5.6V259h1.4v1.9h5.7v1.2h-5.7v2.4H81.1z M66.7,254.5h-1.3v-3.2h7.2
			c-0.2-0.5-0.5-1-0.7-1.4l1.3-0.4c0.3,0.5,0.7,1.2,0.9,1.8h6.7v3.2h-1.4v-1.9H66.7V254.5z M78.5,259.6c-0.3-0.3-0.6-0.7-1-1.2
			c-8.5,0.7-9.4,0.7-9.9,1c-0.1-0.3-0.3-0.9-0.4-1.2c0.3-0.1,0.8-0.3,1.2-0.6c0.4-0.3,1.5-1.1,2.5-2.2h-3.6v-1.2h11.9v1.2h-6.5
			c-1,1-2,1.9-3,2.6l7-0.5c-0.5-0.5-1-0.9-1.5-1.3l1-0.6c1.2,1,2.8,2.3,3.5,3.3L78.5,259.6z"/>
		<path d="M35.1,218.4c-0.5,3-1.2,5.4-2.4,7.4c1,1.5,2.2,2.6,3.7,3.4c-0.3,0.3-0.7,0.8-0.9,1.1c-1.5-0.8-2.7-1.9-3.6-3.3
			c-1,1.4-2.4,2.5-4.1,3.3c-0.1-0.3-0.5-0.9-0.8-1.2c1.8-0.8,3.1-2,4.1-3.4c-0.8-1.5-1.4-3.2-1.9-5.1c-0.4,0.7-0.8,1.4-1.2,2
			c-0.2-0.2-0.8-0.7-1.1-0.9l0.1-0.1h-2v4.6l3.1-0.7l0.1,1.2c-3,0.7-6.1,1.5-8.4,2l-0.3-1.3l1.1-0.2v-8h1.2v7.7l1.8-0.4v-10h-3.8
			V215h8.2v1.3h-3.1v3.9h2.4v0.6c1.2-1.9,2-4.4,2.5-7.1l1.3,0.2c-0.2,1.1-0.5,2.1-0.8,3.1h5.6v1.3H35.1z M30.2,218.7
			c0.4,2.1,1,4.1,1.8,5.7c0.9-1.7,1.4-3.7,1.8-6h-3.5L30.2,218.7z"/>
		<path d="M34.2,232.8c0,6.7,0,14,1.1,14c0.2,0,0.3-1.2,0.4-2.8c0.2,0.3,0.6,0.7,0.8,0.9c-0.1,2.3-0.4,3.2-1.3,3.2
			c-2.2,0-2.1-6.4-2.2-14.2h-9.7v4.5c0,2.9-0.3,7-2.3,9.7c-0.2-0.3-0.8-0.6-1.1-0.8c1.9-2.6,2.1-6.2,2.1-8.9v-5.8H34.2z M30.9,243.4
			c0.9,1.2,1.8,2.8,2.1,3.9l-1.1,0.4c-0.1-0.4-0.3-0.9-0.5-1.4c-3,0.2-6.1,0.4-8.2,0.6l-0.1-1.2c1.1-0.1,2.6-0.1,4.2-0.3v-2.5h-3.1
			V238h3.1v-1.7H24v-1.1h8v1.1h-3.5v1.7h3.2v4.9h-3.2v2.4l2.3-0.1c-0.3-0.5-0.6-1.1-1-1.5L30.9,243.4z M27.4,241.9v-2.8h-2v2.8H27.4
			z M28.5,239.1v2.8h2.1v-2.8H28.5z"/>
		<path d="M36.1,264.5v1.2H20.2v-1.2h7.2v-2.4h-5.6v-1.2h5.6V259h1.4v1.9h5.7v1.2h-5.7v2.4H36.1z M21.7,254.5h-1.3v-3.2h7.2
			c-0.2-0.5-0.5-1-0.7-1.4l1.3-0.4c0.3,0.5,0.7,1.2,0.9,1.8h6.7v3.2h-1.4v-1.9H21.7V254.5z M33.5,259.6c-0.3-0.3-0.6-0.7-1-1.2
			c-8.5,0.7-9.4,0.7-9.9,1c-0.1-0.3-0.3-0.9-0.4-1.2c0.3-0.1,0.8-0.3,1.2-0.6c0.4-0.3,1.5-1.1,2.5-2.2h-3.6v-1.2h11.9v1.2h-6.5
			c-1,1-2,1.9-3,2.6l7-0.5c-0.5-0.5-1-0.9-1.5-1.3l1-0.6c1.2,1,2.8,2.3,3.5,3.3L33.5,259.6z"/>
	</g>
</g>
<g>
	<line class="st0" x1="235.1" y1="159.1" x2="207.6" y2="159.1"/>
	<line class="st0" x1="207.9" y1="33.7" x2="208.1" y2="202.9"/>
	<path class="st0" d="M130.1,105l0.7-22.6c0.1-4.3,4.3-7.8,9.3-7.8H274c5.2,0,9.3,3.6,9.3,8V105"/>
	<path class="st1" d="M179.9,120.5h-100c-2.8,0-5-2.2-5-5V93.9c0-2.8,2.2-5,5-5h100c2.8,0,5,2.2,5,5v21.7
		C184.9,118.3,182.6,120.5,179.9,120.5z"/>
	<path class="st2" d="M233.3,175.1h100c2.8,0,5-2.2,5-5v-22c0-2.8-2.2-5-5-5h-100c-2.8,0-5,2.2-5,5v22
		C228.3,172.8,230.5,175.1,233.3,175.1z"/>
	<path class="st1" d="M333.3,120.5h-100c-2.8,0-5-2.2-5-5V93.9c0-2.8,2.2-5,5-5h100c2.8,0,5,2.2,5,5v21.7
		C338.3,118.3,336,120.5,333.3,120.5z"/>
	<g>
		<g>
			<path class="st3" d="M102.1,97.3h9.9v1.2h-9.9V97.3z M102.6,105.2h9.1v7.4h-1.3v-0.8h-6.6v1h-1.2V105.2z M111,99.7v4.2h-7.7v-4.2
				H111z M103.8,106.2v1.7h2.7v-1.7H103.8z M106.5,110.8V109h-2.7v1.8H106.5z M109.7,100.8h-5.2v2h5.2V100.8z M110.4,106.2h-2.7v1.7
				h2.7V106.2z M110.4,110.8V109h-2.7v1.8H110.4z M114.3,108.5h-1.2v-9.9h1.2V108.5z M117.6,96.8v14.3c0,0.9-0.2,1.3-0.8,1.5
				c-0.6,0.2-1.5,0.3-3,0.3c-0.1-0.4-0.3-1-0.5-1.3c1.2,0.1,2.2,0,2.5,0c0.3,0,0.5-0.1,0.5-0.4V96.8H117.6z"/>
			<path class="st3" d="M131.9,105.6c-0.8,0.4-1.7,0.8-2.6,1.2h6.8v6h-1.3v-0.5h-7.9v0.6h-1.3v-4.6c-1.1,0.4-2.3,0.7-3.5,1
				c-0.1-0.3-0.5-0.9-0.7-1.2c2.6-0.6,5.3-1.4,7.7-2.4h-7.4v-1.1h6.7v-1.4h-5v-1.1h5v-1.3h-5.7v-3.7h13.9v3.7h-6.9v1.3h4v0.9
				c0.7-0.5,1.3-1,1.9-1.5l1,0.7c-0.9,0.9-1.9,1.7-3.1,2.4h4v1.1H131.9z M127.1,98.1h-2.9v1.7h2.9V98.1z M134.9,107.8h-7.9v1.2h7.9
				V107.8z M134.9,111.3v-1.3h-7.9v1.3H134.9z M131.3,99.8v-1.7h-3v1.7H131.3z M131.5,104.5c0.8-0.4,1.5-0.9,2.2-1.4h-3.8v1.4H131.5
				z M132.5,99.8h3v-1.7h-3V99.8z"/>
			<path class="st3" d="M156.8,107.1c-1.1,0.8-2.6,1.7-3.9,2.4c1.4,1,3.1,1.7,5.1,2.1c-0.3,0.3-0.6,0.8-0.8,1.2
				c-4.1-0.9-6.9-3.1-8.5-6.5h-2.9v4.8l4.9-1.2c0,0.3-0.1,0.9,0,1.2c-5,1.3-5.9,1.5-6.3,1.7l-0.1,0.1c-0.1-0.3-0.4-1-0.6-1.3
				c0.4-0.2,0.9-0.6,0.9-1.3v-4h-2.9v-1.2h3.2v-7.9h11.1v1.1h-9.7v1.5h9.2v1.1h-9.2v1.5h9.2v1.1h-9.2v1.5h11.5v1.2h-7.5
				c0.5,1,1.1,1.8,1.9,2.5c1.3-0.7,2.8-1.6,3.7-2.4L156.8,107.1z"/>
		</g>
	</g>
	<g>
		<g>
			<path class="st3" d="M261.5,165.4v1.3h-15.9v-1.3h7.2v-4.4h-5.5v-1.3h5.5v-3.9h-6.4v-1.3h7.9c-0.7-0.8-2-2-3.1-2.8l1.1-0.8
				c1.2,0.8,2.6,2.1,3.3,2.9l-0.8,0.6h5.8v1.3h-6.4v3.9h5.7v1.3h-5.7v4.4H261.5z"/>
			<path class="st3" d="M271,151.3c-0.5,1.3-1.2,2.6-1.9,3.8v12.1h-1.3v-10.1c-0.7,0.9-1.4,1.7-2.1,2.4c-0.1-0.3-0.6-1-0.8-1.3
				c1.9-1.7,3.8-4.5,4.9-7.3L271,151.3z M276.6,159.8v5.5h4.6v1.3h-10.6v-1.3h4.6v-5.5h-5.1v-1.3h5.1v-4.7h-4v-1.3h9.6v1.3h-4.3v4.7
				h5v1.3H276.6z"/>
			<path class="st3" d="M290.2,161.6c-0.2-0.5-0.8-1.5-1.2-2.4v8h-1.3v-7.5c-0.6,1.7-1.4,3.3-2.2,4.3c-0.1-0.4-0.5-1-0.7-1.3
				c1-1.3,2.1-3.6,2.7-5.7h-2.3v-1.3h2.5V153c-0.6,0.1-1.3,0.3-1.9,0.4c-0.1-0.3-0.3-0.8-0.4-1.1c1.7-0.3,3.6-0.8,4.8-1.4l0.8,1.1
				c-0.6,0.3-1.3,0.5-2.1,0.7v3.2h2.1v1.3h-2.1v0.4c0.5,0.6,1.8,2.5,2.1,3L290.2,161.6z M300.2,162.7c-0.2-1.5-0.9-3.7-1.7-5.3
				c-0.9,2.2-2,4.2-3.3,5.9v1.8c0,0.7,0.1,0.8,0.8,0.8h2.1c0.6,0,0.7-0.5,0.8-2.7c0.3,0.3,0.8,0.5,1.2,0.5c-0.1,2.6-0.5,3.3-1.8,3.3
				h-2.4c-1.5,0-1.9-0.4-1.9-2v-0.2c-0.7,0.8-1.5,1.5-2.3,2.1c-0.2-0.3-0.8-0.7-1.1-0.9c1.3-0.9,2.4-2,3.4-3.2v-8.2h1.3v6.4
				c1.7-2.6,2.9-5.7,3.9-9.2l1.3,0.3c-0.5,1.8-1.1,3.6-1.8,5.2l1.1-0.3c0.8,1.7,1.5,3.9,1.7,5.3L300.2,162.7z M290.6,162.1
				c0.7-1.4,1.1-3.7,1.3-5.5l1,0.2c-0.2,1.8-0.6,4.3-1.3,5.7L290.6,162.1z M296.9,154.4c-0.7-0.8-2.2-1.9-3.4-2.7l0.8-0.9
				c1.2,0.7,2.7,1.8,3.5,2.6L296.9,154.4z"/>
			<path class="st3" d="M320.9,159.9v1H305v-1h7.2v-1.1h-6v-0.9h6V157h-5.5v-0.9h5.5V155H305v-1h7.2v-1h-5.3V152h5.3v-1.3h1.3v1.3
				h5.1v1.9h2.1v1h-2.1v2h-5.1v0.9h6.1v0.9h-6.1v1.1H320.9z M307.3,161.8h11.5v5.6h-1.3v-0.6h-8.9v0.6h-1.3V161.8z M308.6,162.7v1.1
				h8.9v-1.1H308.6z M317.4,165.8v-1.1h-8.9v1.1H317.4z M313.5,154h3.8v-1h-3.8V154z M313.5,156.1h3.8V155h-3.8V156.1z"/>
		</g>
	</g>
	<g>
		<g>
			<path class="st3" d="M255,97.3h9.9v1.2H255V97.3z M255.5,105.2h9.1v7.4h-1.3v-0.8h-6.6v1h-1.2V105.2z M263.9,99.7v4.2h-7.7v-4.2
				H263.9z M256.8,106.2v1.7h2.7v-1.7H256.8z M259.5,110.8V109h-2.7v1.8H259.5z M262.6,100.8h-5.2v2h5.2V100.8z M263.4,106.2h-2.7
				v1.7h2.7V106.2z M263.4,110.8V109h-2.7v1.8H263.4z M267.3,108.5h-1.2v-9.9h1.2V108.5z M270.5,96.8v14.3c0,0.9-0.2,1.3-0.8,1.5
				c-0.6,0.2-1.5,0.3-3,0.3c-0.1-0.4-0.3-1-0.5-1.3c1.2,0.1,2.2,0,2.5,0c0.3,0,0.5-0.1,0.5-0.4V96.8H270.5z"/>
			<path class="st3" d="M284.9,105.6c-0.8,0.4-1.7,0.8-2.6,1.2h6.8v6h-1.3v-0.5h-7.9v0.6h-1.3v-4.6c-1.1,0.4-2.3,0.7-3.5,1
				c-0.1-0.3-0.5-0.9-0.7-1.2c2.6-0.6,5.3-1.4,7.7-2.4h-7.4v-1.1h6.7v-1.4h-5v-1.1h5v-1.3h-5.7v-3.7h13.9v3.7h-6.9v1.3h4v0.9
				c0.7-0.5,1.3-1,1.9-1.5l1,0.7c-0.9,0.9-1.9,1.7-3.1,2.4h4v1.1H284.9z M280,98.1h-2.9v1.7h2.9V98.1z M287.8,107.8h-7.9v1.2h7.9
				V107.8z M287.8,111.3v-1.3h-7.9v1.3H287.8z M284.2,99.8v-1.7h-3v1.7H284.2z M284.4,104.5c0.8-0.4,1.5-0.9,2.2-1.4h-3.8v1.4H284.4
				z M285.4,99.8h3v-1.7h-3V99.8z"/>
			<path class="st3" d="M309.8,107.1c-1.1,0.8-2.6,1.7-3.9,2.4c1.4,1,3.1,1.7,5.1,2.1c-0.3,0.3-0.6,0.8-0.8,1.2
				c-4.1-0.9-6.9-3.1-8.5-6.5h-2.9v4.8l4.9-1.2c0,0.3-0.1,0.9,0,1.2c-5,1.3-5.9,1.5-6.3,1.7l-0.1,0.1c-0.1-0.3-0.4-1-0.6-1.3
				c0.4-0.2,0.9-0.6,0.9-1.3v-4h-2.9v-1.2h3.2v-7.9h11.1v1.1h-9.7v1.5h9.2v1.1h-9.2v1.5h9.2v1.1h-9.2v1.5h11.5v1.2H303
				c0.5,1,1.1,1.8,1.9,2.5c1.3-0.7,2.8-1.6,3.7-2.4L309.8,107.1z"/>
		</g>
	</g>
	<path class="st4" d="M251.3,49.3h-87.7c-2.8,0-5-2.2-5-5v-22c0-2.8,2.2-5,5-5h87.7c2.8,0,5,2.2,5,5v22
		C256.3,47,254.1,49.3,251.3,49.3z"/>
	<g>
		<g>
			<path class="st3" d="M190,33.3c-0.8,0.4-1.7,0.8-2.6,1.2h6.8v6h-1.3V40H185v0.6h-1.3v-4.6c-1.1,0.4-2.3,0.7-3.5,1
				c-0.1-0.3-0.5-0.9-0.7-1.2c2.6-0.6,5.3-1.4,7.7-2.4H180v-1.1h6.7v-1.4h-5v-1.1h5v-1.3H181v-3.7h13.9v3.7H188v1.3h4v0.9
				c0.7-0.5,1.3-1,1.9-1.5l1,0.7c-0.9,0.9-1.9,1.7-3.1,2.4h4v1.1H190z M185.1,25.8h-2.9v1.7h2.9V25.8z M192.9,35.5H185v1.2h7.9V35.5
				z M192.9,39v-1.3H185V39H192.9z M189.3,27.5v-1.7h-3v1.7H189.3z M189.6,32.2c0.8-0.4,1.5-0.9,2.2-1.4H188v1.4H189.6z M190.6,27.5
				h3v-1.7h-3V27.5z"/>
			<path class="st3" d="M234.7,34.8c-1.1,0.8-2.6,1.7-3.9,2.4c1.4,1,3.1,1.7,5.1,2.1c-0.3,0.3-0.6,0.8-0.8,1.2
				c-4.1-0.9-6.9-3.1-8.5-6.5h-2.9v4.8l4.9-1.2c0,0.3-0.1,0.9,0,1.2c-5,1.3-5.9,1.5-6.3,1.7l-0.1,0.1c-0.1-0.3-0.4-1-0.6-1.3
				c0.4-0.2,0.9-0.6,0.9-1.3v-4h-2.9v-1.2h3.2v-7.9h11.1V26H224v1.5h9.2v1.1H224v1.5h9.2v1.1H224v1.5h11.5v1.2H228
				c0.5,1,1.1,1.8,1.9,2.5c1.3-0.7,2.8-1.6,3.7-2.4L234.7,34.8z"/>
		</g>
	</g>
</g>
<path class="st5" d="M12,202.9L12,202.9c0-2.3,1.9-4.2,4.2-4.2h383.9c2.3,0,4.2,1.9,4.2,4.2l0,0c0,2.3-1.9,4.2-4.2,4.2H16.2
	C13.9,207.1,12,205.2,12,202.9z"/>
</svg>
