<svg width="264" height="264" viewBox="0 0 264 264" fill="none" xmlns="http://www.w3.org/2000/svg">
<path d="M188.7 132.543H169.377V114.761H174.425C175.151 114.767 175.858 114.531 176.435 114.091C177.012 113.651 177.427 113.032 177.615 112.33C177.802 111.629 177.752 110.886 177.471 110.216C177.19 109.547 176.695 108.99 176.064 108.632L128.192 81.8363C127.694 81.5487 127.129 81.3972 126.553 81.3972C125.978 81.3972 125.413 81.5487 124.915 81.8363L77.0757 108.632C76.4443 108.99 75.9495 109.547 75.6689 110.216C75.3882 110.886 75.3377 111.629 75.5252 112.33C75.7126 113.032 76.1275 113.651 76.7047 114.091C77.282 114.531 77.9889 114.767 78.7146 114.761H83.7624V158.274H80.5666C79.6972 158.274 78.8635 158.619 78.2488 159.234C77.6341 159.848 77.2888 160.682 77.2888 161.551V173.024C77.2888 173.893 77.6341 174.727 78.2488 175.341C78.8635 175.956 79.6972 176.301 80.5666 176.301H153.087C153.661 177.949 154.732 179.378 156.153 180.391C157.574 181.404 159.274 181.951 161.019 181.955H188.7C190.935 181.955 193.08 181.068 194.662 179.489C196.244 177.91 197.136 175.767 197.14 173.532V140.984C197.136 138.746 196.245 136.602 194.663 135.02C193.081 133.438 190.937 132.548 188.7 132.543V132.543ZM190.584 173.515C190.58 174.012 190.38 174.487 190.027 174.837C189.674 175.187 189.197 175.384 188.7 175.384H161.035C160.538 175.384 160.062 175.187 159.709 174.837C159.356 174.487 159.155 174.012 159.151 173.515V140.984C159.155 140.485 159.355 140.008 159.708 139.656C160.06 139.303 160.537 139.103 161.035 139.099H188.716C189.215 139.103 189.692 139.303 190.044 139.656C190.397 140.008 190.597 140.485 190.601 140.984L190.584 173.515ZM162.822 132.543H161.035C158.798 132.548 156.654 133.438 155.072 135.02C153.49 136.602 152.6 138.746 152.595 140.984V158.274H149.563V114.761H162.773L162.822 132.543ZM110.05 114.761H123.341V158.274H110.116L110.05 114.761ZM129.831 114.761H143.008V158.274H129.897L129.831 114.761ZM126.553 88.4574L161.855 108.206H91.252L126.553 88.4574ZM90.2851 114.761H103.494V158.274H90.2851V114.761ZM83.8443 164.829H152.579V169.746H83.8443V164.829Z" fill="white"/>
<path d="M182.767 146.031H165.493C164.841 146.031 164.216 146.29 163.755 146.751C163.294 147.212 163.035 147.838 163.035 148.49C163.035 149.142 163.294 149.767 163.755 150.228C164.216 150.689 164.841 150.948 165.493 150.948H182.767C183.419 150.948 184.044 150.689 184.505 150.228C184.966 149.767 185.225 149.142 185.225 148.49C185.225 147.838 184.966 147.212 184.505 146.751C184.044 146.29 183.419 146.031 182.767 146.031V146.031Z" fill="white"/>
<path d="M182.767 155.766H165.493C164.841 155.766 164.216 156.025 163.755 156.486C163.294 156.947 163.035 157.572 163.035 158.224V158.224C163.048 158.864 163.311 159.472 163.767 159.919C164.224 160.367 164.838 160.617 165.477 160.617H182.751C183.403 160.617 184.028 160.358 184.489 159.897C184.95 159.436 185.209 158.811 185.209 158.159C185.209 157.507 184.95 156.882 184.489 156.421C184.028 155.96 183.403 155.701 182.751 155.701L182.767 155.766Z" fill="white"/>
<path d="M177.178 165.485H165.493C164.841 165.485 164.216 165.744 163.755 166.205C163.294 166.666 163.035 167.291 163.035 167.943C163.034 168.266 163.098 168.586 163.221 168.884C163.345 169.182 163.527 169.453 163.756 169.68C164.218 170.14 164.842 170.399 165.493 170.401H177.178C177.83 170.401 178.456 170.142 178.917 169.681C179.378 169.22 179.637 168.595 179.637 167.943C179.637 167.291 179.378 166.666 178.917 166.205C178.456 165.744 177.83 165.485 177.178 165.485V165.485Z" fill="white"/>
</svg>
