<svg width="25" height="26" viewBox="0 0 25 26" fill="none" xmlns="http://www.w3.org/2000/svg">
<path d="M12.7162 25.4315C9.13511 25.4315 6.1565 24.2491 3.78038 21.8842C1.40425 19.5193 0.216187 16.5464 0.216187 12.9653C0.216187 10.15 0.953799 7.67811 2.42902 5.54973C3.90425 3.42136 6.07204 1.90672 8.9324 1.00582C10.1486 0.713023 11.0157 0.803113 11.5338 1.27609C12.0518 1.74906 12.2207 2.51483 12.0405 3.57338C12.018 4.04636 11.9842 4.50807 11.9392 4.95852C11.8941 5.40897 11.8716 5.80311 11.8716 6.14095C11.8716 8.30311 12.6148 10.1274 14.1013 11.6139C15.5878 13.1004 17.4121 13.8437 19.5743 13.8437C19.9797 13.8437 20.402 13.838 20.8412 13.8268C21.2804 13.8155 21.7139 13.7986 22.1419 13.7761C23.2455 13.6184 24.0056 13.793 24.4223 14.2997C24.8389 14.8065 24.9009 15.6567 24.6081 16.8504C23.6847 19.3729 22.2151 21.4337 20.1993 23.0328C18.1835 24.6319 15.6892 25.4315 12.7162 25.4315ZM12.7162 22.3572C14.7432 22.3572 16.5394 21.7603 18.1047 20.5666C19.67 19.3729 20.6892 17.954 21.1621 16.3099C20.7342 16.4901 20.2669 16.6196 19.7601 16.6984C19.2533 16.7772 18.7635 16.8054 18.2905 16.7828C15.813 16.4901 13.7015 15.4934 11.9561 13.793C10.2106 12.0925 9.18015 9.936 8.86483 7.32338C8.86483 6.98555 8.89862 6.57451 8.96619 6.09028C9.03375 5.60604 9.18015 5.03735 9.40537 4.38419C7.6261 5.05987 6.16776 6.19163 5.03038 7.77947C3.89299 9.3673 3.32429 11.0959 3.32429 12.9653C3.32429 15.6004 4.23083 17.8245 6.04389 19.6376C7.85695 21.4506 10.0811 22.3572 12.7162 22.3572Z" fill="white"/>
</svg>
