<svg width="110" height="110" viewBox="0 0 110 110" fill="none" xmlns="http://www.w3.org/2000/svg">
<path d="M73.5707 38.2089H73.4819C66.2189 38.2089 59.2223 35.9735 54.8725 32.221C54.5796 31.9688 54.2059 31.8301 53.8194 31.8301C53.4329 31.8301 53.0592 31.9688 52.7663 32.221C48.6425 35.7718 42.3156 37.9507 35.4158 38.1847C35.1981 38.1917 34.984 38.2427 34.7865 38.3347C34.589 38.4266 34.4121 38.5576 34.2666 38.7197C34.1211 38.8818 34.0099 39.0717 33.9397 39.278C33.8695 39.4842 33.8418 39.7025 33.8583 39.9198L35.8596 67.4626C35.8775 67.7277 35.9605 67.9842 36.1013 68.2094C36.2421 68.4346 36.4363 68.6216 36.6666 68.7538L53.7266 78.2926C53.9726 78.432 54.2509 78.5043 54.5336 78.5024C54.8163 78.5043 55.0946 78.432 55.3406 78.2926L72.4005 68.7538C72.6309 68.6216 72.8251 68.4346 72.9659 68.2094C73.1066 67.9842 73.1897 67.7277 73.2075 67.4626L75.2008 39.9359C75.2164 39.7147 75.1861 39.4926 75.112 39.2835C75.0378 39.0745 74.9214 38.8829 74.77 38.7209C74.6185 38.5588 74.4353 38.4297 74.2317 38.3417C74.0282 38.2536 73.8086 38.2084 73.5868 38.2089H73.5707ZM70.036 66.3651L54.5255 75.0081L39.015 66.3328L37.1993 41.3159C43.6553 40.8236 49.5383 38.7577 53.8154 35.5216C58.4314 39.024 64.8551 41.1141 71.8356 41.4047L70.036 66.3651Z" fill="white"/>
<path d="M80.2447 33.3105C79.6637 32.7604 78.9794 32.3309 78.2314 32.047C77.4834 31.763 76.6866 31.6301 75.8869 31.6561C75.4673 31.6561 75.0396 31.6561 74.6038 31.6561C67.8089 31.6561 61.4336 29.5337 57.9554 26.1282C56.8477 25.0486 55.3622 24.4445 53.8155 24.4445C52.2688 24.4445 50.7832 25.0486 49.6756 26.1282C46.1974 29.5337 39.8141 31.6561 33.0111 31.6561C32.2305 31.6529 31.457 31.804 30.735 32.1008C30.013 32.3976 29.3568 32.8341 28.8041 33.3853C28.2514 33.9365 27.8131 34.5915 27.5143 35.3127C27.2156 36.0339 27.0624 36.807 27.0635 37.5876V37.7005L29.3231 68.9959C29.3558 70.0164 29.6506 71.0112 30.1792 71.8847C30.7079 72.7582 31.4524 73.4809 32.3413 73.9832L51.5882 84.7486C52.495 85.2758 53.5251 85.5542 54.5741 85.5556C55.5968 85.548 56.5992 85.2696 57.4793 84.7486L76.8472 73.9186C77.7105 73.4169 78.4335 72.706 78.9497 71.8513C79.4659 70.9966 79.7586 70.0258 79.8009 69.0282L82.0201 37.8861V37.6198C82.0296 36.819 81.8772 36.0245 81.5721 35.284C81.267 34.5435 80.8155 33.8722 80.2447 33.3105V33.3105ZM76.5729 68.9314C76.5589 69.3876 76.4304 69.8329 76.1991 70.2264C75.9678 70.6199 75.6412 70.9488 75.2494 71.1829L55.8814 82.0128C55.4671 82.2402 55.0009 82.356 54.5284 82.3489C54.0559 82.3418 53.5933 82.2121 53.186 81.9725L33.8988 71.2152C33.4838 70.9775 33.1377 70.6362 32.8943 70.2245C32.651 69.8128 32.5188 69.345 32.5107 68.8668L30.2511 37.5633C30.268 36.8527 30.5634 36.177 31.0736 35.6819C31.5837 35.1869 32.2679 34.912 32.9788 34.9164C40.5888 34.9164 47.8437 32.4389 51.8948 28.4604C52.3981 27.9704 53.0727 27.6962 53.7751 27.6962C54.4775 27.6962 55.1522 27.9704 55.6554 28.4604C59.6904 32.4308 66.9534 34.9164 74.5634 34.9164C75.0395 34.9164 75.5157 34.9164 75.9757 34.9164C76.7129 34.8951 77.4288 35.1647 77.969 35.6669C78.4759 36.1657 78.7658 36.8442 78.776 37.5553L76.5729 68.9314Z" fill="white"/>
<path d="M60.3683 55.9871L54.9694 59.1344C54.8337 59.21 54.6809 59.2497 54.5256 59.2497C54.3702 59.2497 54.2174 59.21 54.0817 59.1344L48.6829 55.9871C48.5484 55.9112 48.3963 55.8718 48.2418 55.8728C48.0874 55.8737 47.9358 55.9149 47.8022 55.9923C47.6685 56.0697 47.5573 56.1807 47.4797 56.3142C47.402 56.4478 47.3606 56.5993 47.3594 56.7537V60.1835C47.3582 60.3383 47.3978 60.4907 47.4743 60.6254C47.5508 60.76 47.6615 60.872 47.7952 60.9501L54.0817 64.6058C54.2174 64.6814 54.3702 64.7211 54.5256 64.7211C54.6809 64.7211 54.8337 64.6814 54.9694 64.6058L61.2479 60.9501C61.3825 60.8724 61.4944 60.7607 61.5723 60.6261C61.6502 60.4916 61.6914 60.3389 61.6917 60.1835V56.7537C61.6906 56.5993 61.6491 56.4478 61.5715 56.3142C61.4938 56.1807 61.3827 56.0697 61.249 55.9923C61.1153 55.9149 60.9638 55.8737 60.8093 55.8728C60.6549 55.8718 60.5028 55.9112 60.3683 55.9871Z" fill="white"/>
<path d="M45.4307 51.6858L54.0817 56.657C54.2149 56.7358 54.3668 56.7774 54.5215 56.7774C54.6763 56.7774 54.8282 56.7358 54.9613 56.657L63.6204 51.6858C63.7544 51.6077 63.8655 51.4957 63.9428 51.3612C64.02 51.2267 64.0606 51.0743 64.0606 50.9192C64.0606 50.7641 64.02 50.6117 63.9428 50.4772C63.8655 50.3427 63.7544 50.2307 63.6204 50.1525L54.9613 45.1492C54.8282 45.0703 54.6763 45.0287 54.5215 45.0287C54.3668 45.0287 54.2149 45.0703 54.0817 45.1492L45.4307 50.1203C45.2889 50.1961 45.1705 50.3089 45.0879 50.4468C45.0052 50.5846 44.9616 50.7423 44.9616 50.9031C44.9616 51.0638 45.0052 51.2215 45.0879 51.3593C45.1705 51.4972 45.2889 51.6101 45.4307 51.6858V51.6858Z" fill="white"/>
</svg>
