<svg width="26" height="26" viewBox="0 0 26 26" fill="none" xmlns="http://www.w3.org/2000/svg">
<path d="M10.5786 21.1145C12.5531 21.1095 14.4849 20.5395 16.1459 19.4719L16.334 19.3465L21.801 24.9639C22.1859 25.3318 22.6979 25.5371 23.2304 25.5371C23.7629 25.5371 24.2749 25.3318 24.6599 24.9639C25.0404 24.583 25.2542 24.0666 25.2542 23.5282C25.2542 22.9898 25.0404 22.4734 24.6599 22.0925L19.1553 16.4374L19.2681 16.2493C20.4819 14.3155 21.0192 12.0334 20.7958 9.76119C20.5723 7.48896 19.6007 5.35524 18.0335 3.69491C16.4662 2.03458 14.3921 0.941624 12.1365 0.587579C9.88093 0.233533 7.57165 0.63844 5.57108 1.73875C3.57052 2.83906 1.99192 4.57249 1.08304 6.66698C0.174169 8.76147 -0.0135349 11.0985 0.549393 13.3112C1.11232 15.5239 2.39401 17.487 4.19332 18.8925C5.99262 20.298 8.20767 21.0663 10.4908 21.0768L10.5786 21.1145ZM10.5786 4.52542C11.8186 4.52542 13.0307 4.89312 14.0617 5.58202C15.0928 6.27092 15.8963 7.25007 16.3709 8.39567C16.8454 9.54127 16.9695 10.8019 16.7276 12.018C16.4857 13.2342 15.8886 14.3513 15.0118 15.2281C14.135 16.1049 13.0179 16.702 11.8017 16.9439C10.5856 17.1858 9.32498 17.0617 8.17938 16.5871C7.03379 16.1126 6.05463 15.309 5.36573 14.278C4.67683 13.247 4.30913 12.0349 4.30913 10.7949C4.30913 9.13213 4.96966 7.53746 6.14542 6.36171C7.32117 5.18595 8.91584 4.52542 10.5786 4.52542V4.52542Z" fill="black"/>
</svg>
