<?xml version="1.0" encoding="utf-8"?>
<!-- Generator: Adobe Illustrator 24.2.1, SVG Export Plug-In . SVG Version: 6.00 Build 0)  -->
<svg version="1.1" id="圖層_1" xmlns="http://www.w3.org/2000/svg" xmlns:xlink="http://www.w3.org/1999/xlink" x="0px" y="0px"
	 width="290.3px" height="328.6px" viewBox="0 0 290.3 328.6" style="enable-background:new 0 0 290.3 328.6;" xml:space="preserve"
	>
<style type="text/css">
	.st0{fill:#FFFFFF;}
	.st1{fill:#221714;}
	.st2{fill:#6868AC;}
	.st3{fill:#F4CD21;}
	.st4{fill:#A2C8C9;}
</style>
<g>
	<g>
		<path class="st0" d="M132,294.3c0,0-37-57.2-85.7-58.8C46.3,235.6,60.7,277.7,132,294.3z"/>
		<path class="st1" d="M132,296.8c-0.2,0-0.4,0-0.6-0.1c-71.9-16.7-86.9-58.6-87.5-60.4c-0.3-0.8-0.1-1.6,0.4-2.3s1.3-1,2.1-1
			c49.5,1.6,86.2,57.5,87.7,59.9c0.6,0.9,0.5,2-0.1,2.8C133.6,296.4,132.8,296.8,132,296.8z M50.3,238.3c5.1,9.9,23.8,38,75.7,51.9
			C115.9,276.7,86.5,241.9,50.3,238.3z"/>
	</g>
	<g>
		<circle class="st2" cx="33.4" cy="224.5" r="17.5"/>
		<path class="st1" d="M33.4,244.6c-11,0-20-9-20-20s9-20,20-20s20,9,20,20S44.4,244.6,33.4,244.6z M33.4,209.5c-8.3,0-15,6.7-15,15
			s6.7,15,15,15s15-6.7,15-15C48.4,216.3,41.7,209.5,33.4,209.5z"/>
	</g>
	<g id="XMLID_00000039833388311670155000000013855023860780407961_">
		<g>
			<path class="st2" d="M39.8,269.7c-24.2,3.1-26.2,16.3-22.6,31.7c3.6,15.4,11.5,27.3,35.7,24.2c6.2-0.8,14.4-2.4,22.9-4.7
				c-1.1-1.7,7.4-30.5-12.4-52.9C54.4,268.2,46,268.9,39.8,269.7z"/>
			<path class="st0" d="M63.5,268c0,0,22.3,22.3,8.7,53.7c0,0,56.4-13.7,53.7-34.3C123.7,270.7,89.8,267.5,63.5,268z"/>
			<path class="st0" d="M75.9,321L75.9,321C75.9,321,76,321,75.9,321L75.9,321z"/>
		</g>
		<g>
			<path class="st1" d="M76.6,323.4l-1.3-4.8c24-6.4,51.1-18.2,48.2-30.5c-2.7-11.7-25.1-18.2-59.9-17.5l-0.1-5
				c22.2-0.5,60.3,1.6,64.9,21.3C132.9,306.2,93.6,318.8,76.6,323.4z"/>
			<path class="st1" d="M45.6,328.6c-21.6,0-27.8-14-30.8-26.6c-1.6-6.7-3.1-16.4,2.1-23.9c4.1-5.9,11.4-9.4,22.6-10.9
				c7.2-0.9,15.7-1.5,23.9-1.7l0.1,5c-8.1,0.2-16.4,0.8-23.4,1.7c-9.6,1.2-15.9,4.1-19.1,8.8c-3.1,4.4-3.5,10.8-1.4,19.9
				c3.1,13.4,9.3,25.3,32.9,22.3c6.5-0.8,14.5-2.5,22.6-4.6l1.3,4.8c-8.3,2.2-16.6,3.9-23.3,4.7C50.5,328.5,48,328.6,45.6,328.6z"/>
			<path class="st1" d="M73.9,322.5c0-0.1-0.1-0.1-0.1-0.2c-0.7-1.1-0.6-2.2-0.1-5.7c1.3-9.7,4.4-32.3-11.9-46.7
				c-0.6-0.5-0.9-1.3-0.8-2.1c0.1-0.8,0.5-1.5,1.2-1.9l1.3,2.1l1.7-1.9c18.3,16.2,14.8,41.6,13.5,51.2c-0.2,1.3-0.4,2.7-0.4,3.1
				c0,0,0-0.4-0.3-0.8l-2.1,1.4L73.9,322.5z"/>
		</g>
	</g>
	<g id="XMLID_00000139276946641066222130000002242072400379484289_">
		<g>
			<path class="st2" d="M264,261.8c23.9,3.1,25.9,16.1,22.3,31.4s-11.4,27-35.3,23.9c-6.1-0.8-14.2-2.4-22.7-4.6
				c1.1-1.6-7.4-30.2,12.3-52.4C249.6,260.3,257.9,261,264,261.8z"/>
			<path class="st0" d="M240.6,260.1c0,0-22.1,22-8.6,53.1c0,0-55.8-13.6-53.1-34C181,262.8,214.6,259.6,240.6,260.1z"/>
			<path class="st0" d="M228.3,312.5L228.3,312.5C228.3,312.5,228.3,312.6,228.3,312.5L228.3,312.5z"/>
		</g>
		<g>
			<path class="st1" d="M227.6,314.9c-16.9-4.5-55.7-17-51.2-36.2c4.6-19.5,42.2-21.6,64.2-21.1l-0.1,5
				c-34.4-0.8-56.5,5.7-59.2,17.2c-2.9,12.2,23.9,23.9,47.6,30.2L227.6,314.9z"/>
			<path class="st1" d="M258.3,320.1c-2.3,0-4.8-0.2-7.6-0.5c-6.6-0.9-14.8-2.5-23-4.7l1.3-4.8c8,2.1,15.9,3.7,22.4,4.6
				c23.4,3,29.4-8.8,32.6-22c2.1-9,1.7-15.3-1.3-19.7c-3.2-4.6-9.3-7.4-18.9-8.6c-6.9-0.9-15.1-1.5-23.2-1.7l0.1-5
				c8.2,0.2,16.6,0.8,23.7,1.7c11,1.4,18.3,4.9,22.3,10.8c5.1,7.4,3.7,17.1,2.1,23.7C285.8,306.3,279.6,320.1,258.3,320.1z"/>
			<path class="st1" d="M230.3,314l-1.4-1.1l-2.8-1.7c-0.2,0.4-0.2,0.7-0.2,0.7c0-0.4-0.2-1.8-0.4-3.1c-1.3-9.5-4.8-34.6,13.4-50.7
				l1.7,1.9l1.5-2c0.6,0.5,1,1.2,1,1.9c0,0.8-0.3,1.5-0.8,2c-16.1,14.2-13.1,36.7-11.7,46.2c0.5,3.4,0.6,4.5-0.1,5.6
				C230.4,313.9,230.3,314,230.3,314z M226.2,311.1C226.2,311.2,226.2,311.2,226.2,311.1L226.2,311.1L226.2,311.1z"/>
		</g>
	</g>
	<g id="XMLID_00000169527490523027304690000002052408297855933885_">
		<g>
			<path class="st2" d="M245.4,129.9c18.9-19.4,28.4-17.8,35.4-11.1c6.9,6.8,8.7,16.3-10.2,35.6c-4.9,5-11.6,11.4-19,18
				c-0.3-1.3-4.9-23.1-23.8-23.2C234.2,141.6,240.5,134.8,245.4,129.9z"/>
			<path class="st0" d="M227.7,149.1L227.7,149.1c19,0.1,23.6,21.9,23.8,23.2l0,0L227.7,149.1z"/>
			<path class="st0" d="M227.7,149.1l23.8,23.2c-21.5,19.1-49.1,39.9-55.7,33.4C188.3,198.6,208.9,170.9,227.7,149.1z"/>
			<path class="st0" d="M251.5,172.4L251.5,172.4L251.5,172.4L251.5,172.4z"/>
		</g>
		<g>
			<path class="st1" d="M199.2,209.5c-2.2,0-3.9-0.6-5.2-1.9c-4.4-4.3-2.6-12.6,5.7-26c7.3-11.8,18.2-25,26-34.1l3.8,3.3
				c-27.4,31.6-35.8,49.5-32.1,53.2c2.8,2.7,19-4,52.3-33.5l3.3,3.7c-12.4,11-24.4,20.4-33.7,26.5
				C210.4,206.6,203.8,209.5,199.2,209.5z"/>
			<path class="st1" d="M253.2,174.2l-3.3-3.7c7-6.3,13.7-12.6,18.9-17.8c21-21.5,13.7-28.7,10.2-32.1s-10.8-10.5-31.8,11
				c-5.5,5.6-11.7,12.4-17.6,19.2l-3.8-3.3c5.9-6.8,12.2-13.7,17.8-19.4c17-17.4,29-20.8,38.9-11.1s6.8,21.8-10.2,39.1
				C267.1,161.5,260.3,167.9,253.2,174.2z"/>
			<path class="st1" d="M249.1,173.1v-0.2l0,0c-0.2-0.9-4.4-21.1-21.4-21.2v-2.5l-1.3-2.1c0.4-0.2,0.8-0.4,1.3-0.4l0,0
				c16.8,0.1,24.4,15.9,26.3,25.2c0,0.1,0,0.2,0,0.3l-2.1,0.2L249.1,173.1z"/>
		</g>
	</g>
	<g>
		<path class="st0" d="M109.3,184.3c0,0-51.9,115.9,27,122.1s75.6-52.3,57.4-124.4L109.3,184.3z"/>
		<path class="st1" d="M147.3,309.3c-3.6,0-7.3-0.2-11.3-0.5c-18-1.4-31-8.5-38.5-21.2c-21-35.5,8.2-101.6,9.4-104.4
			c0.4-0.9,1.3-1.5,2.2-1.5l84.4-2.3c1.2-0.1,2.2,0.8,2.5,1.9c10.9,43.5,18.3,87-1.6,110.6C184.7,303.6,169.2,309.3,147.3,309.3z
			 M111,186.7c-4.1,9.9-27.2,67.9-9.1,98.4c6.6,11.2,18.3,17.5,34.6,18.7c26.2,2,43.9-2.9,54.2-15.2c18.2-21.5,10.9-64.5,1.1-104.2
			L111,186.7z"/>
	</g>
	<g id="XMLID_00000084532213501072040850000011279146535132931713_">
		<g>
			<path d="M197.8,198.8c0,0.1,0,0.1-0.1,0.2c-8.1,3.5-16.1,5.9-23.9,7.5v-0.1v-0.2c7.7-1.6,15.7-4,23.7-7.4l-3.4-10.5l-22.2,1.4
				v-0.1c0-0.1-0.1-0.1-0.1-0.1l22.4-1.4c0.1,0,0.1,0,0.1,0.1L197.8,198.8z"/>
			<path class="st2" d="M194.1,188.2l3.4,10.5c-8,3.4-16,5.8-23.7,7.4l-1.9-16.6L194.1,188.2z"/>
			<path d="M173.7,206.4v0.1c-10.4,2.2-20.3,2.9-29,2.9c-1.8,0-3.6,0-5.4-0.1c0-0.2,0-0.3,0.1-0.3l0,0c0.1,0,0.1,0.1,0.1,0
				c9.8,0.3,21.6-0.2,34.1-2.8L173.7,206.4L173.7,206.4z"/>
			<path class="st3" d="M171.6,189.6l2.1,16.6c-12.6,2.6-24.3,3.2-34.1,2.8l0,0v-17.4L171.6,189.6z"/>
			<path d="M139.4,191.3l32.3-2c-0.1,0-0.1,0.1-0.1,0.2v0.1l-32.1,2v-0.1C139.6,191.4,139.5,191.4,139.4,191.3L139.4,191.3z"/>
			<path d="M139.4,191.3L139.4,191.3c-0.1,0-0.1,0.1-0.1,0.2v0.1l-33.4,2.1l-3.5,9.3c1.4,0.4,13,4.1,29.7,5.5
				c2.3,0.2,4.7,0.3,7.3,0.4v0.3c-2.6-0.1-5-0.2-7.3-0.4c-17.7-1.5-29.8-5.5-29.9-5.6c0,0-0.1,0-0.1-0.1V203l3.6-9.6l0.1-0.1
				L139.4,191.3z"/>
			<path class="st2" d="M139.3,191.6V209c-2.6-0.1-5-0.2-7.3-0.4c-16.7-1.4-28.3-5.1-29.7-5.5l3.5-9.3L139.3,191.6z"/>
		</g>
		<g>
			<path d="M144.8,211.1c-1.8,0-3.5,0-5.3-0.1h-0.1c-0.1,0-0.1,0-0.2,0c-2.4-0.1-4.8-0.2-7.3-0.4c-17.1-1.4-28.9-5.2-30.1-5.6
				l-2-0.7l4.7-12.5l91.1-5.7l4.4,13.7l-1.7,0.7c-7.6,3.3-15.6,5.8-24,7.5l-0.4,0.1l0,0C164.5,210.1,154.8,211.1,144.8,211.1z
				 M139.4,207v2.2V209l0.1-2C139.5,207,139.5,207,139.4,207z M139.6,207c11.7,0.4,23-0.5,33.7-2.8h0.2c7.5-1.6,14.7-3.8,21.5-6.6
				l-2.3-7.3l-85.4,5.3l-2.3,6.1c4.1,1.2,14,3.7,27.2,4.8c2.5,0.2,4.8,0.3,7.2,0.4L139.6,207L139.6,207z"/>
			<path d="M138.1,209.2c1.3,0,2.4,0.2,3.4,0.5v-0.5v-17.7c0-1.2-1-2.1-2.1-2.1c-1.2,0-2.1,1-2.1,2.1v17.7
				C137.6,209.2,137.8,209.2,138.1,209.2z"/>
			<path d="M171.7,206.3v0.9c1.1-0.8,2.5-1.4,4.1-1.6l-1.9-16.2v-0.1c-0.1-1.1-1-2-2.1-2v2.1l-0.3-2.1c-1.2,0.2-2,1.3-1.8,2.4
				L171.7,206.3z"/>
			<path d="M169.9,189.7v0.1V189.7z"/>
			<path d="M173.6,189.2L173.6,189.2L173.6,189.2z"/>
		</g>
	</g>
	<g id="XMLID_00000095323162364875559370000009109801750371356806_">
		<g>
			<path class="st2" d="M213.1,76.8c-2.8-0.4-5.6-0.4-8.5,0.2c-15.4,3.3-24.5,22-20.3,41.7s20.2,33.1,35.6,29.8
				c6-1.3,11-4.9,14.7-9.9L213,77.2L213.1,76.8z"/>
			<path class="st4" d="M213.1,76.8l-0.1,0.4c0,0,22.8,23.4,21.6,61.4c5.8-8,8.2-19.7,5.6-31.8C236.8,90.6,225.6,78.8,213.1,76.8z"
				/>
			<path class="st2" d="M213.1,77.2l21.6,61.4C235.9,100.6,213.1,77.2,213.1,77.2z"/>
		</g>
		<g>
			<path class="st1" d="M215.2,151.5c-15,0-29.3-13.4-33.3-32.2c-4.5-21.1,5.5-41.1,22.2-44.7c3.1-0.7,6.2-0.7,9.4-0.2l0,0
				c13.8,2.2,25.6,15.1,29.2,31.9c2.6,12.3,0.4,24.9-6,33.8c-4.2,5.8-9.8,9.5-16.2,10.9C218.7,151.3,217,151.5,215.2,151.5z
				 M209.4,79c-1.4,0-2.8,0.1-4.2,0.4c-14.1,3-22.3,20.4-18.4,38.8c3.9,18.4,18.6,30.9,32.6,27.8c5.2-1.1,9.7-4.2,13.2-9
				c5.6-7.7,7.5-18.9,5.2-29.8c-3.1-14.6-13.4-26.1-25.1-28C211.6,79,210.5,79,209.4,79z"/>
			<path class="st1" d="M237.1,138.6l-5-0.2c1.2-36.5-20.7-59.3-20.9-59.5l3.6-3.5C215.8,76.4,238.4,100.1,237.1,138.6z"/>
		</g>
	</g>
	<g>
		<path class="st2" d="M194.3,31.2c10.6,24.5,20.3,61.1,13.8,63.9s-26.6-29.3-37.2-53.7s-9.2-35.5-2.7-38.3
			C174.6,0.2,183.7,6.7,194.3,31.2z"/>
		<path class="st1" d="M207.2,97.8c-3.1,0-8.4-3.1-18.3-17.9c-7.2-10.8-15.1-25.2-20.4-37.5c-5.1-11.8-7.8-21.3-8-28.2
			c-0.2-8.6,3.4-12.1,6.6-13.4c3.1-1.4,8.1-1.7,14.3,4.4c5,4.9,10.1,13.3,15.2,25.1l0,0c5.3,12.3,10.5,27.8,13.4,40.5
			c5,21.4,1.8,25.5-1,26.7C208.6,97.6,208,97.8,207.2,97.8z M171.1,4.9c-0.7,0-1.3,0.1-1.9,0.4c-2.5,1.1-3.7,4-3.6,8.7
			c0.2,6.3,2.7,15.2,7.5,26.4c5.1,11.7,12.2,24.9,19.1,35.5c8.8,13.4,13.5,16.7,14.8,16.9c0.7-1.1,1.5-6.8-2.2-22.4
			c-3-12.3-7.8-26.6-12.8-38.2l0,0c-4.8-11.2-9.6-19.1-14.1-23.5C175.4,6.1,173.1,4.9,171.1,4.9z"/>
	</g>
	<g>
		<path class="st0" d="M225.7,127.9c4.5,47.6-21.5,63.1-66,69.5c-52.4,7.5-92.1-14.2-96.1-52.7s17.7-79.9,73-85.6
			C189.2,53.6,222.1,89.4,225.7,127.9z"/>
		<path class="st1" d="M139.5,201.3c-22.5,0-42.1-5.8-56.4-16.9c-12.7-9.9-20.3-23.6-21.9-39.5c-2.2-21,3.1-41.2,14.8-56.8
			c13.4-17.9,34.3-28.8,60.5-31.5c24.4-2.6,46.4,3.5,63.4,17.4c16,13.2,26.4,32.7,28.4,53.6c5.1,54.1-29.7,66.7-68.1,72.2
			C153,200.8,146.1,201.3,139.5,201.3z M147.2,61c-3.3,0-6.8,0.2-10.2,0.5C112.2,64.1,92.5,74.3,80,91
			c-10.9,14.7-15.8,33.6-13.8,53.3c1.5,14.5,8.4,27,20,36c17.4,13.6,43.4,18.7,73.2,14.4c41.6-5.9,68.3-19.6,63.9-66.7l0,0
			c-1.9-19.6-11.5-37.9-26.6-50.2C183.1,66.8,166.2,61,147.2,61z"/>
	</g>
	<g>
		<ellipse class="st3" cx="117.1" cy="117.9" rx="6.9" ry="9.3"/>
		<path class="st1" d="M117.1,129.7c-5.3,0-9.4-5.2-9.4-11.8c0-6.6,4.1-11.8,9.4-11.8s9.4,5.2,9.4,11.8S122.4,129.7,117.1,129.7z
			 M117.1,111.1c-2.4,0-4.4,3.1-4.4,6.8c0,3.7,2,6.8,4.4,6.8s4.4-3.1,4.4-6.8S119.5,111.1,117.1,111.1z"/>
	</g>
	<g>
		<ellipse transform="matrix(0.9765 -0.2155 0.2155 0.9765 -19.3045 45.0013)" class="st3" cx="196.7" cy="111" rx="6.9" ry="9.3"/>
		<path class="st1" d="M197.5,122.7c-4.5,0-8.7-4-10-9.7c-1.4-6.5,1.5-12.4,6.6-13.6c2.5-0.6,5.3,0.2,7.5,2.2c2,1.8,3.5,4.4,4.2,7.4
			l0,0c1.4,6.5-1.5,12.4-6.6,13.6C198.6,122.6,198.1,122.7,197.5,122.7z M195.8,104.2c-0.2,0-0.4,0-0.6,0.1c-2.3,0.5-3.6,4-2.8,7.6
			s3.4,6.2,5.7,5.7s3.6-4,2.8-7.6l0,0c-0.4-1.9-1.4-3.6-2.6-4.7C197.8,104.9,196.9,104.2,195.8,104.2z"/>
	</g>
	<g>
		<path class="st2" d="M40.5,52.7C61.6,69,87.7,96.5,83.4,102c-4.3,5.6-37.5-12.8-58.5-29.1S-0.3,46.2,4,40.6S19.4,36.4,40.5,52.7z"
			/>
		<path class="st1" d="M80.6,105.5c-3.7,0-10-1.8-21.3-7.6c-11.6-6-25.3-14.8-35.9-23C13.2,67,6.3,60,2.8,54
			C-1.6,46.5,0,41.8,2,39.1s6.3-5.4,14.6-3.1c6.7,1.9,15.2,6.8,25.4,14.7l0,0c10.6,8.2,22.6,19.3,31.3,29
			c14.7,16.3,13.9,21.4,12,23.8C84.6,104.6,83.3,105.5,80.6,105.5z M10.8,40.1c-2.2,0-3.8,0.7-4.8,2c-1.7,2.1-1.3,5.3,1.1,9.3
			c3.2,5.5,9.7,12,19.3,19.5c10.1,7.8,22.7,15.9,33.9,21.9c14.2,7.5,19.9,8.1,21.1,7.7c0.1-1.3-1.9-6.7-12.8-18.5
			C60.1,72.7,49,62.5,38.9,54.7c-9.6-7.5-17.6-12.1-23.7-13.8C13.6,40.4,12.1,40.1,10.8,40.1z"/>
	</g>
	<path class="st1" d="M151.9,143.8c-5.4,0-9.8-3.2-10-3.4c-1.1-0.8-1.3-2.4-0.5-3.5s2.4-1.3,3.5-0.5c0,0,4.6,3.3,9,2.2
		c2.7-0.7,4.9-3,6.6-6.8c0.4-0.8,1.1-1.4,2-1.5s1.7,0.3,2.3,1c2.5,3.3,5.2,5,8,5.1c4.6,0.1,8.3-4.1,8.3-4.2c0.9-1,2.5-1.2,3.5-0.3
		s1.2,2.5,0.3,3.5c-0.2,0.2-5.1,6-11.9,6c-0.1,0-0.2,0-0.3,0c-3.4-0.1-6.5-1.5-9.3-4.3c-2.1,3.3-4.9,5.4-8.1,6.3
		C154,143.6,152.9,143.8,151.9,143.8z"/>
	<g>
		<path class="st4" d="M213.3,92.5c0,0-15.1-56.3-85.4-41S64.5,123,64.5,123s5.1-45.9,65.5-58.7S213.3,92.5,213.3,92.5z"/>
		<path class="st1" d="M64.5,125.5c-1.3,0-2.3-0.9-2.5-2.2c-0.1-0.6-1.8-14.9,5.5-31.4C74.2,76.8,90,57.1,127.3,49
			c37.4-8.1,59.5,3.9,71.4,15.4c12.9,12.5,16.8,26.8,17,27.4c0.3,1.2-0.3,2.5-1.5,3s-2.5,0-3.1-1.1l0,0c-0.1-0.1-5.7-10-18.5-18.2
			c-17-11-38-13.9-62.2-8.8c-23.9,5.1-42.5,16.5-53.6,32.9C68.3,112,67,123.1,67,123.2C66.8,124.5,65.8,125.5,64.5,125.5L64.5,125.5
			z M150.9,51.3c-7,0-14.6,0.9-22.6,2.6C100.1,60,81.1,73.4,72.1,93.7c-1.4,3.2-2.5,6.3-3.3,9.2c1-1.9,2.2-3.9,3.6-5.9
			c8.3-12.3,24.9-28.4,56.9-35.2s53.6,1.5,66.2,9.6c2.6,1.7,4.9,3.4,6.9,5.1c-2-2.9-4.5-5.9-7.5-8.7
			C183.6,56.8,168.8,51.3,150.9,51.3z"/>
	</g>
	<g>
		<g>
			<ellipse class="st2" cx="69" cy="125.6" rx="25.8" ry="36.6"/>
			<path class="st1" d="M69,164.7c-15.6,0-28.3-17.5-28.3-39.1c0-21.5,12.7-39.1,28.3-39.1s28.3,17.5,28.3,39.1
				C97.4,147.2,84.7,164.7,69,164.7z M69,91.6c-12.9,0-23.3,15.3-23.3,34.1s10.5,34.1,23.3,34.1c12.9,0,23.3-15.3,23.3-34.1
				S81.9,91.6,69,91.6z"/>
		</g>
		<g>
			<ellipse class="st4" cx="63.1" cy="125.6" rx="19.9" ry="28.1"/>
			<path class="st1" d="M63.1,156.3c-12.3,0-22.4-13.7-22.4-30.6s10-30.6,22.4-30.6s22.4,13.7,22.4,30.6S75.4,156.3,63.1,156.3z
				 M63.1,100c-9.6,0-17.4,11.5-17.4,25.6s7.8,25.6,17.4,25.6s17.4-11.5,17.4-25.6C80.4,111.5,72.6,100,63.1,100z"/>
		</g>
	</g>
	<path class="st1" d="M131.2,170.6c-0.8,0-1.5,0-2.2,0c-21.9-0.5-42.4-14.3-43.2-14.9l2.8-4.1c0.2,0.1,20.2,13.5,40.6,14.1
		c20.9,0.5,50.7-7.1,51-7.2l1.2,4.8C180.1,163.5,152.5,170.6,131.2,170.6z"/>
	<g>
		
			<ellipse transform="matrix(0.9765 -0.2155 0.2155 0.9765 -30.9153 40.9225)" class="st2" cx="172.2" cy="162.2" rx="15.2" ry="9.5"/>
		<path class="st1" d="M169.1,174.6c-7.2,0-13.1-3.3-14.2-8.5l0,0c-1.4-6.6,5-13.4,14.7-15.5s18.4,1.3,19.9,7.9
			c1.5,6.6-5,13.4-14.7,15.5C172.8,174.4,170.9,174.6,169.1,174.6z M159.8,164.9c0.7,3.2,6.6,5.7,13.9,4.1
			c7.3-1.6,11.6-6.3,10.9-9.6c-0.7-3.2-6.6-5.7-13.9-4.1C163.4,157,159.1,161.7,159.8,164.9L159.8,164.9z"/>
	</g>
	<g>
		<path class="st4" d="M143.9,233c1.5-0.2,2.7,0.4,3.6,1.7c0.9,1.3,1.7,3.6,2.2,6.8l2.1,12.3c0.1,0.7,0.1,1.3-0.1,1.9
			s-0.5,0.8-0.9,0.9l-1.9,0.2c-0.4,0-0.8-0.2-1.2-0.6c-0.4-0.5-0.6-1.1-0.7-1.7l-2.1-12.3c-0.2-1-0.4-1.7-0.6-2
			c-0.2-0.3-0.6-0.5-1-0.4c-0.3,0-0.6,0.3-0.9,0.7c-0.2,0.4-0.3,0.8-0.3,1.2l2.2,13.2c0.1,0.7,0.1,1.3-0.1,1.9
			c-0.2,0.5-0.5,0.8-0.9,0.9l-1.9,0.2c-0.4,0-0.8-0.2-1.2-0.6c-0.4-0.5-0.6-1.1-0.7-1.7l-2.1-12.3c-0.2-1-0.4-1.7-0.6-2
			c-0.2-0.3-0.6-0.5-1-0.4c-0.3,0-0.6,0.3-0.9,0.7c-0.2,0.4-0.3,0.8-0.3,1.2l2.2,13.2c0.1,0.7,0.1,1.3-0.1,1.9
			c-0.2,0.5-0.5,0.8-0.9,0.9l-2,0.2c-0.4,0-0.8-0.2-1.2-0.6c-0.4-0.5-0.6-1.1-0.8-1.7l-3.1-18.3c-0.1-0.7-0.1-1.3,0.1-1.9
			c0.2-0.5,0.5-0.8,0.9-0.9l1.6-0.2c0.4-0.1,0.8,0.2,1.2,0.6c0.4,0.5,0.6,1,0.8,1.8l0.1,0.5c0,0,0,0,0,0c0,0,0,0,0-0.1
			c0.3-1.2,0.7-2.1,1.2-2.8c0.5-0.7,1.1-1.1,1.8-1.2c0.8-0.1,1.5,0.1,2,0.5c0.6,0.4,1.2,1.2,1.8,2.4c0,0,0,0,0,0c0,0,0.1,0,0.1-0.1
			C141.5,234.4,142.6,233.1,143.9,233z"/>
		<path class="st4" d="M152.8,235.1c0.9-2.3,2.4-3.6,4.7-3.9c2.2-0.3,4.1,0.6,5.7,2.6c1.6,2,2.7,4.9,3.4,8.7
			c0.7,3.8,0.5,6.9-0.3,9.2c-0.9,2.3-2.4,3.6-4.7,3.9c-2.2,0.3-4.1-0.6-5.7-2.6c-1.6-2-2.7-4.9-3.4-8.7
			C151.8,240.5,151.9,237.4,152.8,235.1z M158.8,248.5c0.5,0.9,1.1,1.3,1.8,1.2c0.7-0.1,1.2-0.6,1.4-1.6c0.2-1,0.1-2.6-0.3-4.9
			c-0.4-2.3-0.8-3.9-1.3-4.8c-0.5-0.9-1.1-1.3-1.8-1.2c-0.7,0.1-1.2,0.6-1.4,1.6c-0.2,1-0.1,2.6,0.3,4.9
			C157.8,246,158.3,247.6,158.8,248.5z"/>
		<path class="st4" d="M177.3,218.7c0.4,0,0.8,0.2,1.2,0.6c0.4,0.5,0.6,1.1,0.8,1.7l4.9,28.6c0.1,0.7,0.1,1.3-0.1,1.9
			c-0.2,0.5-0.5,0.8-0.9,0.9l-1.6,0.2c-0.4,0.1-0.8-0.2-1.2-0.6c-0.4-0.5-0.6-1-0.8-1.8l-0.1-0.4c0,0,0,0,0,0c0,0,0,0,0,0.1
			c-0.7,2.4-1.9,3.7-3.6,3.9c-1.5,0.2-2.9-0.7-4.3-2.7c-1.3-2-2.3-4.9-3-8.8c-0.7-3.9-0.7-7-0.1-9.2c0.6-2.2,1.7-3.4,3.3-3.6
			c1.4-0.2,2.8,0.6,4.3,2.2c0,0,0,0,0.1,0c0,0,0,0,0,0l-1.7-10c-0.1-0.7-0.1-1.3,0.1-1.9c0.2-0.5,0.5-0.8,0.9-0.9L177.3,218.7z
			 M178.1,243.7l-0.8-4.9c-0.1-0.9-0.5-1.6-1.1-2.3c-0.6-0.6-1.1-0.9-1.7-0.8c-1.5,0.2-1.9,2.2-1.2,6.1c0.3,1.9,0.8,3.4,1.3,4.3
			c0.6,0.9,1.2,1.3,1.9,1.3c0.6-0.1,1.1-0.5,1.4-1.2C178.2,245.3,178.3,244.5,178.1,243.7z"/>
		<path class="st4" d="M189.8,227.3c2.3-0.3,4.1,0.2,5.4,1.5c1.3,1.3,2.2,3.5,2.7,6.6l2.1,12.3c0.1,0.7,0.1,1.3-0.1,1.9
			c-0.2,0.5-0.5,0.8-0.9,0.9l-1.6,0.2c-0.4,0.1-0.8-0.2-1.2-0.6c-0.4-0.5-0.6-1-0.8-1.8l-0.1-0.4c0,0,0,0,0,0c0,0,0,0,0,0.1
			c-0.7,2.4-1.9,3.7-3.6,3.9c-1.2,0.2-2.3-0.4-3.3-1.6c-1-1.2-1.7-2.9-2.1-5c-0.9-5.4,1-8.4,5.7-9l0.8-0.1c0.2,0,0.2-0.2,0.2-0.4
			l0,0c-0.3-1.8-1.1-2.6-2.3-2.5c-1,0.1-2.3,0.6-3.9,1.3c-0.3,0.2-0.7,0.1-1.1-0.3c-0.4-0.4-0.6-0.9-0.7-1.5l-0.1-0.7
			c-0.1-0.7-0.1-1.4,0.1-2.1s0.5-1,0.8-1.2C187.2,227.9,188.6,227.4,189.8,227.3z M193.8,241.5l0-0.3c0-0.3-0.1-0.4-0.3-0.4
			l-0.8,0.1c-1.7,0.2-2.5,1.2-2.2,3c0.2,1.3,0.8,2,1.7,1.9c0.7-0.1,1.2-0.5,1.5-1.3C194,243.7,194,242.7,193.8,241.5z"/>
	</g>
	<g id="XMLID_00000160910092588198064750000006724051381828058508_">
		<g>
			<path class="st2" d="M144.7,288c6.4,26.3,0,33.5-9.4,35.8s-18.4-1.3-24.8-27.5c-1.6-6.8-3.5-15.8-5.1-25.6
				c1.3,0.5,22.2,8.1,32.3-7.9C140.7,272.3,143.1,281.2,144.7,288z"/>
			<path class="st0" d="M137.7,262.7L137.7,262.7c-10.2,16-31.1,8.4-32.3,7.9l0,0L137.7,262.7z"/>
			<path class="st0" d="M137.7,262.7l-32.3,7.9c-4.8-28.3-7.8-62.8,1.2-65C116.7,203.2,129.3,235.3,137.7,262.7z"/>
			<path class="st0" d="M105.4,270.6L105.4,270.6L105.4,270.6L105.4,270.6z"/>
		</g>
		<g>
			<path class="st1" d="M102.9,271c-2.8-16.4-4.4-31.5-4.6-42.7c-0.3-15.8,2.2-23.8,7.7-25.1c6-1.5,12,4.5,19,18.7
				c6.1,12.5,11.6,28.7,15.1,40.1l-4.8,1.5c-12.3-40-23-56.6-28.1-55.4c-3.8,0.9-6.7,18.2,0.6,62.1L102.9,271z"/>
			<path class="st1" d="M130.9,326.9c-10.6,0-17.8-9.5-22.7-30c-1.8-7.2-3.6-16.4-5.2-25.8l4.9-0.8c1.6,9.3,3.4,18.3,5.1,25.5
				c7.1,29.3,17,26.9,21.8,25.7c4.8-1.2,14.6-3.6,7.5-32.8c-1.9-7.7-4.3-16.6-6.9-25.1l4.8-1.5c2.6,8.6,5.1,17.6,7,25.4
				c5.7,23.6,2.3,35.6-11.2,38.9C134.1,326.7,132.5,326.9,130.9,326.9z"/>
			<path class="st1" d="M117.8,275.4c-5.1,0-9.8-1.1-13.3-2.4c-0.1,0-0.2-0.1-0.3-0.1l1-1.9l0.9-2.7l0.2,0.1l0,0
				c0.8,0.3,20.2,7.4,29.3-6.9l2.1,1.3l2.5,0.4c-0.1,0.3-0.2,0.7-0.4,0.9C134.4,272.7,125.8,275.4,117.8,275.4z"/>
		</g>
	</g>
</g>
</svg>
