<svg width="320" height="62" viewBox="0 0 320 62" fill="none" xmlns="http://www.w3.org/2000/svg">
<g clip-path="url(#clip0_963_1568)">
<path d="M1.7113 34.9734H3.72311C3.95994 34.9879 4.18884 35.0643 4.387 35.1951H2.3752C2.17643 35.0656 1.94787 34.9893 1.7113 34.9734Z" fill="white"/>
<path d="M1.75159 34.9833H3.76339C3.83992 34.9698 3.91822 34.9698 3.99475 34.9833H2.02318C1.94329 34.9696 1.86165 34.9696 1.78176 34.9833" fill="white"/>
<path d="M2.02319 35.0236H4.035C4.17283 35.0628 4.30478 35.1204 4.4273 35.1949H2.4155C2.29298 35.1204 2.16103 35.0628 2.02319 35.0236Z" fill="white"/>
<path d="M2.37524 35.1948H4.37699L7.49528 36.9581H5.49354L2.37524 35.1948Z" fill="white"/>
<path d="M11.7301 17.5219H13.7419C13.9873 17.5331 14.2259 17.6059 14.436 17.7334H12.4242C12.2147 17.6047 11.9757 17.5318 11.7301 17.5219Z" fill="white"/>
<path d="M11.7804 17.5219H13.7922C13.8843 17.5288 13.9753 17.5457 14.0638 17.5722H12.0822C11.9937 17.5457 11.9026 17.5288 11.8106 17.5219" fill="white"/>
<path d="M12.0822 17.5723H14.094C14.2225 17.615 14.347 17.6689 14.4661 17.7335H12.4543C12.3352 17.6689 12.2107 17.615 12.0822 17.5723Z" fill="white"/>
<path d="M12.4242 17.7334H14.4259L18.2785 19.9199H16.2768L12.4242 17.7334Z" fill="white"/>
<path d="M5.49353 36.9581H7.50533C8.49275 37.5896 9.27832 38.4919 9.76861 39.5577C9.88932 39.86 12.1727 45.5327 15.2508 49.0088C17.3691 51.0972 19.7024 52.9548 22.2116 54.5505C22.6794 54.8203 23.2109 54.9595 23.7507 54.9536H21.7388C21.1991 54.9595 20.6676 54.8203 20.1998 54.5505C17.685 52.9584 15.348 51.1005 13.2289 49.0088C10.1609 45.5327 7.86746 39.86 7.74675 39.5577C7.26307 38.4907 6.48025 37.5876 5.49353 36.9581Z" fill="white"/>
<path d="M5.49351 36.9581H7.50531C8.49273 37.5896 9.2783 38.4919 9.76859 39.5577C9.8893 39.86 12.1727 45.5327 15.2508 49.0088C17.3691 51.0972 19.7024 52.9548 22.2116 54.5505C22.4128 54.6727 22.6292 54.7676 22.8554 54.8326H20.8436C20.6168 54.7695 20.4 54.6745 20.1998 54.5505C17.6849 52.9584 15.3479 51.1005 13.2289 49.0088C10.1609 45.5327 7.86744 39.86 7.74673 39.5577C7.25762 38.4881 6.46755 37.5846 5.47339 36.9581" fill="white"/>
<path d="M20.8636 54.8326H22.8755C23.1129 54.8941 23.3552 54.9346 23.5997 54.9536H21.5879C21.3467 54.9348 21.1077 54.8944 20.8737 54.8326" fill="white"/>
<path d="M22.3021 61.1099H24.3139C24.1404 61.176 23.9564 61.2101 23.7707 61.2106H21.7589C21.9446 61.2101 22.1286 61.176 22.3021 61.1099Z" fill="white"/>
<path d="M22.3021 61.1099H24.3139C24.1404 61.176 23.9564 61.2101 23.7707 61.2106H21.7589C21.9446 61.2101 22.1286 61.176 22.3021 61.1099Z" fill="white"/>
<path d="M22.8956 60.7875H24.9074L24.3139 61.1099H22.3021L22.8956 60.7875Z" fill="white"/>
<path d="M22.8956 60.7875H24.9074L24.3139 61.1099H22.3021L22.8956 60.7875Z" fill="white"/>
<path d="M16.2767 19.9199H18.2785L36.9581 36.5753H34.9664L16.2767 19.9199Z" fill="white"/>
<path d="M16.2767 19.9199H18.2785L38.1853 31.2149H36.1835L16.2767 19.9199Z" fill="white"/>
<path d="M35.9823 39.2151H37.9941C38.1795 39.9901 38.2607 40.7864 38.2356 41.5829C38.221 43.1659 37.9874 44.7393 37.5415 46.2581C36.2841 50.6109 24.8973 60.7874 24.8973 60.7874H22.8855C22.8855 60.7874 34.2824 50.6109 35.5297 46.2581C35.9781 44.7396 36.2151 43.1663 36.2338 41.5829C36.2594 40.7858 36.1748 39.989 35.9823 39.2151Z" fill="white"/>
<path d="M35.9823 39.2151H37.9941C38.1795 39.9901 38.2607 40.7864 38.2356 41.5829C38.221 43.1659 37.9874 44.7393 37.5415 46.2581C36.2841 50.6109 24.8973 60.7874 24.8973 60.7874H22.8855C22.8855 60.7874 34.2824 50.6109 35.5297 46.2581C35.9781 44.7396 36.2151 43.1663 36.2338 41.5829C36.2561 40.7853 36.1681 39.9885 35.9723 39.2151" fill="white"/>
<path d="M36.2238 31.2351H38.2356L41.4142 33.0387H39.4024L36.2238 31.2351Z" fill="white"/>
<path d="M36.2238 31.2351H38.2356L41.4142 33.0387H39.4024L36.2238 31.2351Z" fill="white"/>
<path d="M39.3622 33.0184H41.3639L43.0237 33.9555H41.0219L39.3622 33.0184Z" fill="white"/>
<path d="M42.2592 36.4846H44.271L44.0497 37.331C43.8183 38.2378 43.5367 39.1749 43.2248 40.122C41.7299 44.6807 39.3354 48.8918 36.1835 52.5052C33.3368 55.7496 26.7582 59.7094 26.4062 59.9109C25.8831 60.2333 25.3198 60.5558 24.8973 60.7875H22.8855C23.308 60.5558 23.8914 60.2333 24.4044 59.9109C24.7464 59.7094 31.325 55.7496 34.1717 52.5052C37.3236 48.8918 39.7181 44.6807 41.213 40.122C41.5349 39.1749 41.8065 38.2378 42.0379 37.331L42.2592 36.4846Z" fill="white"/>
<path d="M42.2592 36.4846H44.271L44.0497 37.331C43.8183 38.2378 43.5367 39.1749 43.2248 40.122C41.7299 44.6807 39.3354 48.8918 36.1835 52.5052C33.3368 55.7496 26.7582 59.7094 26.4062 59.9109C25.8831 60.2333 25.3198 60.5558 24.8973 60.7875H22.8855C23.308 60.5558 23.8914 60.2333 24.4044 59.9109C24.7464 59.7094 31.325 55.7496 34.1717 52.5052C37.3236 48.8918 39.7181 44.6807 41.213 40.122C41.5349 39.1749 41.8065 38.2378 42.0379 37.331L42.2592 36.4846Z" fill="white"/>
<path d="M41.022 33.9556H43.0338C43.4662 34.2077 43.8144 34.5825 44.0345 35.0325C44.2547 35.4825 44.337 35.9878 44.271 36.4846H42.2592C42.3252 35.9878 42.2429 35.4825 42.0227 35.0325C41.8026 34.5825 41.4544 34.2077 41.022 33.9556Z" fill="white"/>
<path d="M41.022 33.9556H43.0338C43.4662 34.2077 43.8144 34.5825 44.0345 35.0325C44.2547 35.4825 44.337 35.9878 44.271 36.4846H42.2592C42.3252 35.9878 42.2429 35.4825 42.0227 35.0325C41.8026 34.5825 41.4544 34.2077 41.022 33.9556Z" fill="white"/>
<path d="M7.30411 16.7762H5.30237V22.7109H7.30411V16.7762Z" fill="white"/>
<path d="M5.30245 22.7109H7.31425C7.20469 23.3042 7.30048 23.9171 7.58581 24.4484C7.87113 24.9797 8.3289 25.3975 8.88346 25.6329H6.87165C6.3171 25.3975 5.85933 24.9797 5.57401 24.4484C5.28868 23.9171 5.19288 23.3042 5.30245 22.7109Z" fill="white"/>
<path d="M5.30238 22.7109H7.31419C7.20462 23.3042 7.30042 23.9171 7.58574 24.4484C7.87107 24.9797 8.32884 25.3975 8.88339 25.6329H6.87159C6.31517 25.3993 5.8552 24.9821 5.56796 24.4507C5.28072 23.9192 5.18346 23.3054 5.29232 22.7109" fill="white"/>
<path d="M6.96211 14.1868H8.97391C8.49637 14.4366 8.09212 14.8068 7.80105 15.2609C7.50999 15.715 7.34217 16.2373 7.31417 16.7763H5.30237C5.33037 16.2373 5.49818 15.715 5.78925 15.2609C6.08031 14.8068 6.48456 14.4366 6.96211 14.1868Z" fill="white"/>
<path d="M6.96211 14.1868H8.97391C8.49637 14.4366 8.09212 14.8068 7.80105 15.2609C7.50999 15.715 7.34217 16.2373 7.31417 16.7763H5.30237C5.33037 16.2373 5.49818 15.715 5.78925 15.2609C6.08031 14.8068 6.48456 14.4366 6.96211 14.1868Z" fill="white"/>
<path d="M21.608 0H23.6198C21.6785 2.56934 14.7277 7.78862 11.9514 9.57204C11.1325 10.0598 10.4352 10.7279 9.91233 11.5257C9.38949 12.3235 9.05481 13.2301 8.93368 14.1767H6.92188C7.04301 13.2301 7.37768 12.3235 7.90053 11.5257C8.42338 10.7279 9.12068 10.0598 9.93958 9.57204C12.7259 7.79869 19.6767 2.57941 21.608 0Z" fill="white"/>
<path d="M21.608 0H23.6198C21.6785 2.56934 14.7277 7.78862 11.9514 9.57204C11.1325 10.0598 10.4352 10.7279 9.91233 11.5257C9.38949 12.3235 9.05481 13.2301 8.93368 14.1767H6.92188C7.04301 13.2301 7.37768 12.3235 7.90053 11.5257C8.42338 10.7279 9.12068 10.0598 9.93958 9.57204C12.7259 7.78862 19.6767 2.56934 21.608 0Z" fill="white"/>
<path d="M21.7589 6.73058H23.7707C23.231 6.72086 22.7 6.86783 22.2418 7.15377C22.1814 7.15377 20.9944 7.99006 18.9927 9.16893C15.7235 11.1236 9.31592 14.0154 8.93368 14.2068H6.92188C7.26388 14.0557 13.6815 11.1841 16.9809 9.16893C18.9927 7.96991 20.1696 7.15377 20.24 7.15377C20.6939 6.86648 21.2221 6.71931 21.7589 6.73058Z" fill="white"/>
<path d="M21.7589 6.73058H23.7707C23.231 6.72086 22.7 6.86783 22.2418 7.15377C22.1814 7.15377 20.9944 7.99006 18.9927 9.16893C15.7235 11.1236 9.31592 14.0154 8.93368 14.2068H6.92188C7.26388 14.0557 13.6815 11.1841 16.9809 9.16893C18.9927 7.96991 20.1696 7.15377 20.24 7.15377C20.6939 6.86648 21.2221 6.71931 21.7589 6.73058Z" fill="white"/>
<path d="M21.769 10.9726H23.7808C23.8503 10.9562 23.9226 10.9562 23.9921 10.9726H21.9803C21.9108 10.9562 21.8385 10.9562 21.769 10.9726Z" fill="white"/>
<path d="M6.88159 25.6328H8.87328L27.5629 42.2882H25.5712L6.88159 25.6328Z" fill="white"/>
<path d="M21.9702 11.033H23.972L28.0257 13.431H26.024L21.9702 11.033Z" fill="white"/>
<path d="M26.024 13.431H28.0358C28.1174 13.4755 28.1817 13.5462 28.2182 13.6318C28.2547 13.7175 28.2612 13.8129 28.2368 13.9027C28.2123 13.9925 28.1583 14.0714 28.0835 14.1266C28.0087 14.1818 27.9174 14.2101 27.8245 14.2069H25.8127C25.9056 14.2101 25.9969 14.1818 26.0717 14.1266C26.1465 14.0714 26.2005 13.9925 26.225 13.9027C26.2494 13.8129 26.2429 13.7175 26.2064 13.6318C26.1699 13.5462 26.1056 13.4755 26.024 13.431Z" fill="white"/>
<path d="M26.024 13.431H28.0358C28.1174 13.4755 28.1817 13.5462 28.2182 13.6318C28.2547 13.7175 28.2612 13.8129 28.2368 13.9027C28.2123 13.9925 28.1583 14.0714 28.0835 14.1266C28.0087 14.1818 27.9174 14.2101 27.8245 14.2069H25.8127C25.9047 14.2077 25.9944 14.1778 26.0674 14.1217C26.1404 14.0657 26.1926 13.9868 26.2158 13.8976C26.2389 13.8085 26.2316 13.7141 26.195 13.6295C26.1584 13.545 26.0947 13.4751 26.0139 13.431" fill="white"/>
<path d="M6.88159 25.6328H8.87328L29.8061 37.5021H27.8044L6.88159 25.6328Z" fill="white"/>
<path d="M29.3938 42.6207H31.4056C31.4056 43.3462 31.0334 43.7694 30.5103 43.7694H28.4985C29.0216 43.7694 29.3938 43.326 29.3938 42.6207Z" fill="white"/>
<path d="M29.3938 42.6207H31.4056C31.4056 43.3462 31.0334 43.7694 30.5103 43.7694H28.4985C29.0216 43.7694 29.3938 43.3462 29.3938 42.6207Z" fill="white"/>
<path d="M27.8044 37.5022H29.8162C30.2779 37.8013 30.6626 38.2055 30.9387 38.6818C31.2149 39.158 31.3749 39.6929 31.4056 40.2428H29.3938C29.3655 39.6923 29.2066 39.1565 28.9302 38.6799C28.6537 38.2032 28.2678 37.7995 27.8044 37.5022Z" fill="white"/>
<path d="M27.8044 37.5022H29.8162C30.2779 37.8013 30.6626 38.2055 30.9387 38.6818C31.2149 39.158 31.3749 39.6929 31.4056 40.2428H29.3938C29.3655 39.6923 29.2066 39.1565 28.9302 38.6799C28.6537 38.2032 28.2678 37.7995 27.8044 37.5022Z" fill="white"/>
<path d="M31.3954 40.2428H29.3937V42.6308H31.3954V40.2428Z" fill="white"/>
<path d="M21.7589 -3.22348e-05H23.7707C24.0438 -0.00733467 24.312 0.0739512 24.5352 0.231712L25.3097 0.795958L25.7121 1.08816L26.9192 1.91438C27.9251 2.61968 29.4641 3.59704 31.2244 4.655C34.7009 6.56133 38.2732 8.2866 41.9272 9.8239C42.8527 10.2169 44.0296 10.6602 44.5325 10.8315C45.0355 11.0028 45.458 11.9499 45.458 12.9575H43.4462C43.4462 11.9499 43.0237 10.9927 42.5207 10.8315C42.0178 10.6703 40.8409 10.2269 39.9154 9.8239C36.253 8.28347 32.6707 6.55829 29.1825 4.655C27.4221 3.59704 25.9334 2.63983 24.8873 1.91438L23.6802 1.08816L23.2979 0.795958L22.5335 0.231712C22.3065 0.0738269 22.0351 -0.007362 21.7589 -3.22348e-05Z" fill="white"/>
<path d="M21.8394 0H23.8512C23.9534 0.0107468 24.0544 0.0309854 24.1529 0.060455H22.1411C22.0426 0.0309854 21.9416 0.0107468 21.8394 0" fill="white"/>
<path d="M22.1411 0.0604248H24.1529C24.2847 0.0903619 24.4083 0.148827 24.515 0.231714L25.2896 0.79596L25.6919 1.08816L26.899 1.91438C27.9049 2.61969 29.444 3.59704 31.2043 4.655C34.6873 6.56196 38.2663 8.28723 41.9272 9.8239C42.8526 10.2169 44.0295 10.6602 44.5325 10.8315C45.0354 11.0028 45.4579 11.9499 45.4579 12.9575H43.4461C43.4461 11.9499 43.0236 10.9927 42.5207 10.8315C42.0177 10.6703 40.8408 10.2269 39.9154 9.8239C36.2529 8.28347 32.6707 6.55829 29.1824 4.655C27.4221 3.59704 25.9334 2.63984 24.8872 1.91438L23.6801 1.08816L23.2979 0.79596L22.5334 0.231714C22.4164 0.147093 22.2826 0.0886743 22.1411 0.0604248Z" fill="white"/>
<path d="M45.458 12.9474H43.4563V22.5194H45.458V12.9474Z" fill="white"/>
<path d="M43.5065 25.1896H45.5183V26.0762C45.5183 26.8924 45.5183 27.3559 45.5183 27.3861C45.5183 28.1015 45.0858 28.5247 44.5124 28.5247H42.5006C43.0438 28.5247 43.4361 28.1015 43.5065 27.3861C43.5065 27.3861 43.5065 26.8924 43.5065 26.0762V25.1896Z" fill="white"/>
<path d="M43.5065 25.1896H45.5183V26.0762C45.5183 26.8924 45.5183 27.3559 45.5183 27.3861C45.5183 28.1015 45.0858 28.5247 44.5124 28.5247H42.5006C43.0438 28.5247 43.4361 28.1015 43.5065 27.3861C43.5065 27.3861 43.5065 26.8924 43.5065 26.0762V25.1896Z" fill="white"/>
<path d="M43.4563 22.5194H45.4681C45.4681 23.527 45.4681 24.7361 45.4681 25.2097H43.4563C43.4764 24.7361 43.4563 23.527 43.4563 22.5194Z" fill="white"/>
<path d="M43.4563 22.5194H45.4681C45.4681 23.527 45.4681 24.7361 45.4681 25.2097H43.4563C43.4563 24.7361 43.406 23.527 43.406 22.5194" fill="white"/>
<path d="M11.7301 17.5219C11.9757 17.5318 12.2147 17.6047 12.4242 17.7334L16.2768 19.9199L34.9664 36.5752L12.4242 23.789C11.9619 23.4905 11.5769 23.0865 11.3006 22.6101C11.0243 22.1337 10.8647 21.5985 10.8348 21.0484V18.6705C10.8348 17.945 11.197 17.5219 11.7301 17.5219Z" fill="url(#paint0_linear_963_1568)"/>
<path d="M1.71129 34.9731C1.95132 34.9873 2.18355 35.0637 2.38525 35.1948L5.49348 36.9581C6.48764 37.5846 7.27771 38.488 7.76682 39.5576C7.88753 39.8599 10.181 45.5326 13.249 49.0088C15.368 51.1005 17.705 52.9583 20.2199 54.5505C20.6901 54.8144 21.22 54.9529 21.7589 54.9529C22.2979 54.9529 22.8278 54.8144 23.2979 54.5505C25.8109 52.9557 28.1477 51.098 30.2688 49.0088C32.5133 46.4327 34.2965 43.4875 35.5398 40.3033C35.9321 39.3461 35.9824 39.1848 35.9824 39.1748C36.1752 39.9622 36.2564 40.7728 36.2238 41.5829C36.2051 43.1663 35.9681 44.7396 35.5197 46.2581C34.2723 50.6108 22.8855 60.7874 22.8755 60.7874L22.282 61.1098C22.1085 61.176 21.9244 61.2101 21.7388 61.2106C21.5531 61.211 21.3689 61.1768 21.1956 61.1098C20.8938 60.9688 19.9483 60.4348 19.0832 59.9108C18.7412 59.7093 12.1526 55.7495 9.30585 52.5051C6.67933 49.4856 4.58406 46.041 3.1095 42.3184C2.33349 40.2813 1.69498 38.1943 1.19828 36.0714C1.01722 35.3863 1.25864 34.9731 1.71129 34.9731Z" fill="url(#paint1_linear_963_1568)"/>
<path d="M16.2767 19.9199L36.2238 31.2351L39.4024 33.0387L41.0622 33.9757C41.4837 34.232 41.8214 34.6058 42.034 35.0514C42.2466 35.497 42.3249 35.9951 42.2592 36.4846L42.0379 37.331C41.8065 38.2378 41.5349 39.1748 41.213 40.122C39.7181 44.6806 37.3236 48.8918 34.1717 52.5051C31.325 55.7496 24.7464 59.7094 24.4044 59.9109C23.8713 60.2333 23.308 60.5557 22.8855 60.7875C22.8855 60.7875 34.2824 50.6109 35.5297 46.2581C35.9781 44.7396 36.2151 43.1664 36.2338 41.583C36.2561 40.7854 36.1681 39.9885 35.9723 39.2151C36.1135 38.7254 36.0917 38.2029 35.9102 37.7266C35.7288 37.2504 35.3975 36.8462 34.9664 36.5753L16.2767 19.9199Z" fill="url(#paint2_linear_963_1568)"/>
<path d="M21.6081 0C19.6767 2.56934 12.726 7.78861 9.9396 9.57204C9.1207 10.0598 8.4234 10.7279 7.90055 11.5257C7.37771 12.3235 7.04303 13.2301 6.9219 14.1767C6.44436 14.4265 6.04011 14.7967 5.74904 15.2509C5.45798 15.705 5.29016 16.2273 5.26216 16.7662V22.7008C5.1533 23.2953 5.25056 23.9091 5.5378 24.4406C5.82504 24.972 6.28501 25.3892 6.84143 25.6228L25.5713 42.3185L4.20596 30.2275L1.32908 28.5448C0.975867 28.3379 0.673889 28.0537 0.44571 27.7135C0.217531 27.3733 0.0690475 26.9858 0.0113525 26.58L0.0113525 25.1896C0.0113525 24.716 0.0616476 23.5069 0.0616476 22.4993V12.9273C0.0616476 11.9197 0.474067 10.9625 0.977018 10.8013C1.47997 10.6401 2.65687 10.1967 3.5823 9.7937C7.12752 8.33344 10.5927 6.68539 13.9632 4.85655C17.4436 2.791 19.9986 0.987431 20.1897 0.826218L20.9844 0.251896C21.1648 0.111404 21.3808 0.0241633 21.6081 0V0Z" fill="url(#paint3_linear_963_1568)"/>
<path d="M21.769 10.9725C21.8352 10.9577 21.9039 10.9577 21.9702 10.9725L25.9938 13.3806C26.0746 13.4247 26.1383 13.4946 26.1749 13.5791C26.2114 13.6637 26.2187 13.7581 26.1956 13.8472C26.1725 13.9364 26.1203 14.0153 26.0472 14.0713C25.9742 14.1274 25.8846 14.1573 25.7926 14.1565H18.027C17.9365 14.1579 17.8481 14.1295 17.7753 14.0756C17.7025 14.0217 17.6495 13.9454 17.6243 13.8583C17.5991 13.7712 17.6033 13.6782 17.636 13.5938C17.6688 13.5093 17.7285 13.4379 17.8057 13.3907L21.5376 11.0833C21.6028 11.0253 21.683 10.9869 21.769 10.9725Z" fill="url(#paint4_linear_963_1568)"/>
<path d="M6.88159 25.6329L27.8043 37.5023C28.2677 37.7996 28.6537 38.2033 28.9301 38.68C29.2065 39.1566 29.3654 39.6924 29.3937 40.2429V42.6208C29.3937 43.3462 29.0215 43.7694 28.4984 43.7694C28.2528 43.7595 28.0139 43.6866 27.8043 43.5578L25.5712 42.3185L6.88159 25.6329Z" fill="url(#paint5_linear_963_1568)"/>
<path d="M21.7589 -3.22348e-05C22.0352 -0.007362 22.3065 0.0738269 22.5335 0.231712L23.298 0.795958L23.7104 1.08816L24.9175 1.91438C25.9234 2.61968 27.4523 3.59704 29.2127 4.655C32.6944 6.55768 36.2699 8.28285 39.9255 9.8239C40.8509 10.2169 42.0279 10.6602 42.5308 10.8315C43.0338 11.0028 43.4562 11.9499 43.4562 12.9575V22.5295C43.4562 23.5371 43.4562 24.7462 43.5065 25.2198V26.1064C43.5065 26.9226 43.5065 27.3861 43.5065 27.4163C43.5065 28.1317 43.074 28.5549 42.5006 28.5549C42.2517 28.5462 42.0091 28.4733 41.7965 28.3433L39.8551 27.2047C39.4012 26.9407 39.0172 26.5713 38.7353 26.1277C38.4535 25.6841 38.2822 25.1792 38.2356 24.6555C38.2356 24.5749 38.2356 23.7185 38.2356 22.7109V16.7762C38.2056 16.2365 38.0359 15.714 37.7431 15.2599C37.4503 14.8059 37.0446 14.436 36.5658 14.1867C36.2339 14.0356 29.8162 11.164 26.5068 9.14882C24.495 7.9498 23.3181 7.13365 23.2577 7.13365C22.8018 6.8602 22.2803 6.71578 21.7489 6.71578C21.2174 6.71578 20.696 6.8602 20.24 7.13365C20.1696 7.13365 18.9826 7.96995 16.9809 9.14882C13.7218 11.1035 7.30412 13.9953 6.92188 14.1867C7.04301 13.2401 7.37768 12.3336 7.90053 11.5358C8.42338 10.738 9.12068 10.0699 9.93958 9.58208C12.7259 7.79866 19.6767 2.57938 21.608 0.0100436L21.7589 -3.22348e-05Z" fill="url(#paint6_linear_963_1568)"/>
<path d="M69.6498 11.0834V9.64255C69.6498 9.54179 69.7504 9.46118 69.9516 9.46118C71.1084 9.46118 71.722 9.56194 71.722 9.7433C71.722 9.92467 71.6415 10.0758 71.5208 10.0758C71.4001 10.0758 71.3096 10.2471 71.3096 10.5494V11.0834H75.6651C75.9166 11.0834 76.0675 11.1841 76.0675 11.3857V13.8442H77.2545C77.355 13.8442 77.4355 13.9449 77.4355 14.1464V14.9324C77.4355 15.1339 77.355 15.2346 77.2545 15.2346H76.0675V17.7234C76.0675 17.9249 75.9166 18.0256 75.6651 18.0256H71.3096V19.2448H75.7657C76.0172 19.2448 76.1681 19.3456 76.1681 19.5471V19.9501C76.319 19.668 76.5 19.3657 76.6509 19.0131C77.1611 18.0447 77.5852 17.0332 77.9183 15.9903C78.269 14.7582 78.5478 13.5067 78.7532 12.2421C78.9134 11.4149 79.0043 10.5756 79.0248 9.73323C79.0248 9.60224 79.0248 9.53171 79.1355 9.53171L81.1473 10.1161C81.2191 10.1341 81.2828 10.1756 81.3284 10.234C81.374 10.2924 81.3987 10.3644 81.3988 10.4385C81.3988 10.5393 81.2177 10.7207 80.8958 10.9222C80.6343 12.091 80.4331 13.0986 80.2319 13.9449H86.2673C86.4685 13.9449 86.5691 14.0961 86.5691 14.348V15.1339C86.5691 15.416 86.4685 15.547 86.2673 15.547H85.1206C85.0929 17.88 84.8877 20.2076 84.507 22.5094C84.1936 24.26 83.6313 25.9565 82.8372 27.5473C83.0559 27.9066 83.3085 28.244 83.5916 28.5549C84.5442 29.6181 85.6216 30.562 86.8005 31.366C86.8005 31.4668 86.6999 31.5474 86.549 31.6482C86.3981 31.7489 85.9153 32.1016 85.5431 32.3837C85.4167 32.4918 85.2566 32.5524 85.0904 32.555C84.2834 31.9119 83.5237 31.2115 82.8171 30.4592C82.4362 30.0438 82.0929 29.5953 81.7911 29.1191C81.3918 29.5786 80.9543 30.0033 80.4834 30.3887C79.5334 31.2445 78.4665 31.9604 77.3148 32.5147C77.0432 32.2124 76.8119 31.9605 76.6107 31.759C76.4095 31.9101 76.0574 32.162 75.5243 32.5147C75.4257 32.5177 75.3282 32.4933 75.2427 32.4441C74.2339 31.7038 73.1479 31.0754 72.0036 30.57C71.9605 30.5315 71.9088 30.5039 71.8528 30.4894C71.1706 30.8763 70.4612 31.2131 69.7303 31.497C68.533 31.9442 67.3062 32.3078 66.0588 32.5852C65.8777 32.5852 65.7771 32.5147 65.7771 32.4139C65.5759 32.1116 65.3245 31.759 65.073 31.2955C65.0159 31.2673 64.9672 31.2245 64.9319 31.1714C64.8966 31.1183 64.8758 31.0569 64.8718 30.9932C65.2484 30.9645 65.622 30.9038 65.9884 30.8119C66.5919 30.7111 67.2256 30.5902 67.9297 30.4088C68.6455 30.2089 69.3477 29.9632 70.0321 29.6733L69.8007 29.5725C68.9155 29.2703 68.0102 28.9881 67.0446 28.6859C66.8635 28.8874 66.7126 29.0687 66.5617 29.2199C66.4108 29.2199 66.2901 29.2199 66.2398 29.0889C65.928 28.968 65.6262 28.837 65.2339 28.7362C65.1635 28.7362 65.1333 28.6355 65.1333 28.5146C65.8375 27.6481 66.4008 26.9427 66.8031 26.3583H63.9061C63.7553 26.3583 63.705 26.2576 63.705 26.046V25.2702C63.705 25.0586 63.705 24.9679 63.9061 24.9679H67.799C68.0505 24.5548 68.3019 24.1517 68.5031 23.7487C68.5288 23.6842 68.5626 23.6233 68.6037 23.5673H65.586C65.3144 23.5673 65.1836 23.4666 65.1836 23.2651V19.5471C65.1836 19.3456 65.3144 19.2448 65.586 19.2448H69.6096V17.9753H65.586C65.3144 17.9753 65.1836 17.8745 65.1836 17.673V15.1843H63.9061C63.7553 15.1843 63.705 15.0835 63.705 14.882V14.1061C63.705 13.9046 63.705 13.8039 63.9061 13.8039H65.1937V11.3353C65.1937 11.1338 65.3245 11.033 65.596 11.033L69.6498 11.0834ZM69.6498 13.8442V12.4235H66.8635V13.7938L69.6498 13.8442ZM69.6498 15.2346H66.8635V16.6352H69.6498V15.2346ZM69.6498 20.6857H66.8635V22.1668H69.6498V20.6857ZM72.8788 27.4969C73.1322 27.1896 73.3452 26.851 73.5125 26.4893H68.8854C68.8398 26.5425 68.7994 26.5998 68.7646 26.6606C68.5534 26.9427 68.3522 27.245 68.1008 27.5473C68.9155 27.7992 69.7203 28.0813 70.5853 28.3836C70.9575 28.5347 71.3398 28.6959 71.6918 28.8168C72.1634 28.4321 72.565 27.9685 72.8788 27.4465V27.4969ZM78.5521 29.7539C79.3648 29.12 80.08 28.3697 80.6745 27.5271C80.0492 26.3588 79.5727 25.1165 79.2562 23.8293C78.8824 22.4291 78.6532 20.9942 78.5722 19.5471C78.371 20.0509 78.1397 20.5547 77.9385 20.9879C77.73 21.0008 77.5236 20.9402 77.355 20.8166C77.0001 20.6568 76.6292 20.5352 76.2486 20.4539C76.1983 20.4539 76.1681 20.4035 76.1681 20.3834V23.3457C76.1681 23.5472 76.0172 23.6479 75.7657 23.6479H70.7362L71.0078 23.8293C71.0464 23.9043 71.08 23.9817 71.1084 24.0611C71.1085 24.0959 71.1014 24.1304 71.0875 24.1623C71.0736 24.1943 71.0533 24.223 71.0278 24.2467C71.0022 24.2704 70.9721 24.2885 70.9392 24.2999C70.9064 24.3113 70.8715 24.3157 70.8368 24.313C70.4043 24.3633 70.1729 24.4339 70.1226 24.5346L69.8007 25.0485H77.8479C77.9787 25.0485 78.0491 25.1392 78.0491 25.3508V26.1266C78.0491 26.3382 77.9787 26.439 77.8479 26.439H75.2628C75.0928 26.8683 74.8876 27.2829 74.6492 27.6783C74.3362 28.2736 73.9474 28.8257 73.4924 29.3206L73.2912 29.502C73.6936 29.7035 74.0758 29.9353 74.448 30.1368C75.0756 30.4636 75.6835 30.8269 76.2687 31.225C77.0988 30.8303 77.8678 30.3179 78.5521 29.7035V29.7539ZM71.3096 13.8442H74.3776V12.4235H71.3096V13.8442ZM74.3776 15.2346H71.3096V16.6352H74.3776V15.2346ZM74.4782 20.6857H71.3096V22.1668H74.448L74.4782 20.6857ZM79.7089 18.0962C80.0408 18.0962 80.2219 18.2574 80.2219 18.5093C80.2315 19.9176 80.4003 21.3204 80.7248 22.6907C80.9934 23.6832 81.3295 24.6561 81.7307 25.6027C82.1823 24.5087 82.5194 23.3707 82.7366 22.2071C83.1058 20.0394 83.3076 17.8465 83.3402 15.6477H79.8597C79.7089 16.3027 79.558 16.8568 79.4373 17.3203C79.3367 17.6226 79.2361 17.8745 79.1556 18.0962H79.7089Z" fill="white"/>
<path d="M97.8554 11.0834C97.8554 11.2345 97.7749 11.3151 97.6542 11.3151C97.5379 11.31 97.422 11.3319 97.3156 11.3791C97.2091 11.4263 97.115 11.4975 97.0406 11.5872C96.4223 13.1612 95.6684 14.6783 94.7874 16.1213V32.2426C94.7874 32.4441 94.6365 32.5449 94.385 32.5449H93.3791C93.0975 32.5449 92.9768 32.4441 92.9768 32.2426V18.5093C92.3732 19.2146 91.6087 20.0811 90.7034 21.0383C90.6045 21.0379 90.5069 21.0151 90.418 20.9715C90.3291 20.9278 90.2513 20.8646 90.1904 20.7864C89.9389 20.5849 89.6674 20.3834 89.4058 20.1516C89.3523 20.1219 89.3079 20.078 89.2778 20.0246C89.2476 19.9713 89.2327 19.9106 89.2348 19.8494C89.9892 19.0937 90.7537 18.2574 91.5082 17.3606C92.5085 16.2014 93.3663 14.9261 94.0631 13.562C94.6823 12.4083 95.1876 11.1968 95.572 9.94482C95.572 9.81384 95.6826 9.7433 95.7832 9.7433C96.5407 10.0769 97.2401 10.5292 97.8554 11.0834ZM110.52 18.2574C110.681 18.3581 110.781 18.4287 110.781 18.5093C110.781 18.5899 110.701 18.8116 110.55 18.8317C110.399 18.8519 110.067 18.9828 110.017 19.1642C109.564 20.9879 109.011 23.0736 108.196 25.4011C107.693 26.973 107.19 28.4239 106.657 29.8849H112.773C112.954 29.8849 113.055 30.036 113.055 30.2879V31.0738C113.055 31.3257 112.954 31.4769 112.773 31.4769H96.6785C96.4773 31.4769 96.3667 31.3257 96.3667 31.0738V30.2275C96.3667 29.9756 96.4773 29.8244 96.6785 29.8244H104.867C105.53 28.0712 106.184 26.2475 106.878 24.323C107.514 22.1856 108.021 20.0121 108.397 17.814C108.397 17.6629 108.528 17.5621 108.578 17.5621L110.52 18.2574ZM106.144 9.79368C106.144 10.0154 106.043 10.1463 105.893 10.1766C105.742 10.2068 105.641 10.3781 105.641 10.6804V14.348H112.069C112.27 14.348 112.371 14.4991 112.371 14.7611V15.547C112.371 15.7989 112.27 15.9198 112.069 15.9198H97.3424C97.1412 15.9198 97.0406 15.7989 97.0406 15.547V14.7107C97.0406 14.4487 97.1412 14.2976 97.3424 14.2976H103.871V9.7433C103.871 9.56194 104.001 9.46118 104.273 9.46118C105.52 9.46118 106.144 9.56194 106.144 9.7433V9.79368ZM101.849 23.3658C102.251 24.8369 102.583 26.4389 102.855 28.1115C102.32 28.3399 101.759 28.5023 101.185 28.5952C101.008 27.2388 100.756 25.8932 100.431 24.5648C100.004 22.6665 99.4631 20.7957 98.811 18.9627C98.811 18.8317 99.2637 18.5294 100.179 18.076C100.863 19.8997 101.416 21.7033 101.849 23.3154V23.3658Z" fill="white"/>
<path d="M125.96 10.2471C126.104 10.2503 126.244 10.2958 126.363 10.3781C126.56 10.5668 126.723 10.7884 126.845 11.033C126.485 11.8607 126.044 12.6505 125.528 13.3908C125.079 14.0348 124.563 14.6293 123.989 15.1641C123.371 15.6801 122.696 16.123 121.977 16.484L120.971 16.9576H125.085C125.347 16.9576 125.498 17.0584 125.498 17.27V22.7109C125.504 22.7663 125.498 22.8226 125.48 22.8753C125.461 22.928 125.431 22.9757 125.391 23.0147C125.351 23.0538 125.303 23.083 125.25 23.1002C125.197 23.1174 125.14 23.1221 125.085 23.1139H119.955C119.854 23.8293 119.724 24.4339 119.623 24.9981H125.286C125.498 24.9981 125.598 25.0888 125.598 25.3004C125.594 26.7323 125.5 28.1625 125.316 29.5826C125.199 30.3836 124.951 31.1597 124.582 31.8799C124.28 32.4441 123.496 32.7162 122.228 32.7162C120.961 32.7162 120.287 32.5449 120.217 32.2124C120.052 31.7048 119.792 31.233 119.452 30.8219V30.6406C120.36 30.8177 121.283 30.9121 122.208 30.9227C122.423 30.9494 122.64 30.9166 122.837 30.8277C123.034 30.7389 123.203 30.5974 123.325 30.4189C123.6 29.9264 123.765 29.3797 123.808 28.8169C123.934 28.0368 124.008 27.2491 124.029 26.4591H119.221C119.1 26.8722 118.969 27.2752 118.869 27.6581C118.869 27.8093 118.768 27.8596 118.748 27.8596C118.612 27.8855 118.472 27.8855 118.335 27.8596C117.963 27.7992 117.581 27.7085 117.179 27.6078C117.028 27.6078 116.978 27.5271 116.978 27.4264C117.249 26.711 117.43 26.1568 117.531 25.8042C117.762 25.1086 117.947 24.3983 118.084 23.6782C118.235 22.862 118.366 22.0257 118.466 21.1391C118.466 20.9879 118.466 20.8872 118.647 20.8872C119.156 21.088 119.653 21.3167 120.136 21.5723H123.808V18.5597H119.05C118.849 18.5597 118.748 18.4287 118.748 18.1566V17.7737C117.913 18.0349 117.059 18.2269 116.193 18.3481C115.992 18.3481 115.841 18.3481 115.76 18.1566C115.568 17.9118 115.39 17.6561 115.227 17.3909C115.189 17.3662 115.157 17.3318 115.136 17.2911C115.115 17.2505 115.105 17.205 115.107 17.1591C115.107 17.1087 115.107 17.0886 115.257 17.0584C115.955 16.9649 116.647 16.8303 117.33 16.6553C118.331 16.4434 119.301 16.1048 120.217 15.6477C119.804 15.2951 119.382 14.9626 118.949 14.6402C118.335 14.2371 117.863 13.955 117.48 13.7535C117.672 13.394 117.901 13.0562 118.164 12.7459C118.183 12.7058 118.211 12.6709 118.246 12.6445C118.281 12.6181 118.322 12.601 118.366 12.5948C119.057 12.9761 119.729 13.3931 120.377 13.8442C120.83 14.2472 121.232 14.5797 121.585 14.8518C121.985 14.6331 122.369 14.3839 122.731 14.1061C123.276 13.6389 123.738 13.0838 124.099 12.4638C124.268 12.2301 124.419 11.9842 124.552 11.7282H118.989C118.838 11.7282 118.788 11.5973 118.788 11.3454V10.5595C118.788 10.3579 118.788 10.2572 118.989 10.2572L125.96 10.2471ZM135.546 24.1014C135.691 24.1045 135.83 24.1501 135.949 24.2323C136.144 24.4231 136.307 24.6443 136.432 24.8873C136.13 25.7632 135.757 26.6125 135.315 27.4264C134.955 28.0938 134.512 28.7133 133.997 29.2703C133.819 29.4867 133.628 29.692 133.424 29.8849C133.83 30.084 134.25 30.2524 134.681 30.3887C135.705 30.7485 136.754 31.0314 137.82 31.2351C137.971 31.2351 138.051 31.3056 138.051 31.356C138.042 31.4625 137.996 31.5624 137.92 31.6381C137.601 31.9079 137.305 32.2045 137.035 32.5248C136.915 32.6759 136.814 32.7464 136.754 32.7464C136.616 32.7189 136.481 32.6784 136.351 32.6255L134.339 32.0109C133.534 31.7251 132.748 31.3885 131.986 31.0033C131.317 31.413 130.617 31.7701 129.893 32.0713C129.128 32.3676 128.341 32.6034 127.539 32.7766C127.456 32.7845 127.372 32.77 127.296 32.7345C127.22 32.6991 127.155 32.6441 127.107 32.5751C126.912 32.3252 126.734 32.0626 126.574 31.7892C126.473 31.6885 126.453 31.6381 126.453 31.5877C126.453 31.5373 126.453 31.4668 126.574 31.4668C127.157 31.3358 127.741 31.1847 128.324 31.0335C129.103 30.7718 129.854 30.4343 130.567 30.0259C130.351 29.8773 130.149 29.7087 129.964 29.5222C129.389 29.0417 128.922 28.4441 128.596 27.769C128.157 27.0964 127.818 26.3632 127.59 25.5926H127.006C126.855 25.5926 126.805 25.4717 126.805 25.2198V24.3835C126.805 24.2021 126.855 24.1014 127.006 24.1014H135.546ZM134.259 16.9576C134.51 16.9576 134.631 17.0584 134.631 17.27V20.9577C134.631 21.1189 134.631 21.1894 134.782 21.2197C134.958 21.3026 135.152 21.3374 135.345 21.3204H135.546C135.642 21.3259 135.736 21.3017 135.817 21.2512C135.898 21.2007 135.962 21.1264 135.999 21.0383C136.113 20.5807 136.197 20.1163 136.251 19.6478C136.251 19.5975 136.301 19.5471 136.432 19.5471C136.535 19.5726 136.636 19.6063 136.733 19.6478C137.006 19.7647 137.284 19.8656 137.568 19.9501C137.66 19.9644 137.743 20.0107 137.804 20.0808C137.865 20.1508 137.899 20.2402 137.9 20.333C137.745 21.0716 137.54 21.7987 137.287 22.5094C137.187 22.695 137.031 22.8445 136.841 22.9367C136.652 23.0289 136.438 23.0592 136.23 23.0233H134.531C134.091 23.0539 133.65 22.9814 133.243 22.8117C133.152 22.7703 133.076 22.7015 133.025 22.6148C132.975 22.5282 132.952 22.4279 132.961 22.328V18.4589H130.004V18.9123C130.013 19.6106 129.939 20.3074 129.783 20.9879C129.631 21.5253 129.37 22.0259 129.018 22.459C128.719 22.7783 128.381 23.0593 128.012 23.2953C127.931 23.3017 127.848 23.2916 127.771 23.2656C127.693 23.2396 127.621 23.1984 127.56 23.1442C127.308 22.862 127.077 22.5799 126.876 22.328C126.832 22.2903 126.795 22.2442 126.77 22.1922C126.744 22.1403 126.728 22.0837 126.725 22.0257C127.369 21.6481 127.86 21.0562 128.113 20.3532C128.231 19.8308 128.292 19.2969 128.294 18.7612V17.27C128.294 17.0584 128.395 16.9576 128.596 16.9576H134.259ZM129.229 9.84407C129.715 10.6083 130.257 11.3357 130.849 12.0204L131.1 11.8391C131.483 11.609 131.841 11.3388 132.167 11.033C132.462 10.7254 132.725 10.3877 132.951 10.0254C132.951 9.97505 133.022 9.92467 133.072 9.92467L134.39 10.9323C134.46 10.9827 134.518 11.0474 134.562 11.122C134.605 11.1967 134.632 11.2797 134.641 11.3655C134.641 11.5167 134.541 11.567 134.37 11.567C134.234 11.555 134.099 11.5907 133.987 11.6678C133.375 12.2482 132.7 12.7584 131.976 13.1892C132.489 13.6819 133.048 14.1239 133.645 14.5092C133.777 14.4217 133.905 14.3276 134.028 14.2271C134.43 13.9683 134.801 13.6641 135.134 13.3202C135.434 13.008 135.706 12.6709 135.949 12.3126C135.949 12.232 136.019 12.1817 136.08 12.1817L137.387 13.1892C137.47 13.2256 137.54 13.2848 137.59 13.3597C137.64 13.4347 137.667 13.5224 137.669 13.6124C137.669 13.7736 137.568 13.824 137.367 13.824C137.295 13.8152 137.223 13.8214 137.153 13.8422C137.084 13.863 137.02 13.898 136.965 13.9449C136.39 14.4777 135.778 14.9693 135.134 15.416C135.627 15.6727 136.134 15.9014 136.653 16.1012C137.492 16.4589 138.356 16.7552 139.238 16.9878C139.236 17.0458 139.215 17.1015 139.179 17.1469C139.143 17.1922 139.093 17.2247 139.037 17.2397C138.772 17.5018 138.533 17.7886 138.323 18.0962C138.323 18.207 138.152 18.2574 137.951 18.2574C136.79 17.9399 135.662 17.5149 134.581 16.9878C133.682 16.5139 132.821 15.9716 132.006 15.3656C131.202 14.7746 130.463 14.099 129.803 13.3505C129.01 12.4455 128.299 11.4709 127.68 10.4385C127.68 10.3378 128.133 10.1363 129.068 9.83399C129.119 9.82904 129.17 9.83244 129.219 9.84407H129.229ZM129.712 26.5095C130.042 27.1381 130.466 27.7124 130.97 28.2123C131.269 28.5177 131.607 28.782 131.976 28.9982C132.277 28.7362 132.529 28.4843 132.78 28.2325C133.254 27.7021 133.647 27.1046 133.947 26.4591C134.078 26.2072 134.199 25.9352 134.349 25.5724H129.32C129.394 25.9041 129.523 26.2209 129.702 26.5095H129.712Z" fill="white"/>
<path d="M145.465 18.1364C145.465 20.0609 145.384 21.7335 145.264 23.0938H150.494V20.4337H147.034C146.833 20.4337 146.752 20.3027 146.752 20.0509V19.2448C146.752 18.9828 146.833 18.8619 147.034 18.8619H150.494V16.8467C150.494 16.6452 150.625 16.5445 150.907 16.5445C152.144 16.5445 152.778 16.6452 152.778 16.8467C152.778 17.0483 152.677 17.1994 152.526 17.1994C152.375 17.1994 152.265 17.4311 152.265 17.7334V18.8216H157.224V16.8064C157.224 16.6049 157.355 16.5042 157.606 16.5042C158.843 16.5042 159.477 16.6049 159.477 16.8064C159.477 17.008 159.397 17.1591 159.246 17.1591C159.095 17.1591 158.994 17.3908 158.994 17.6931V18.7813H162.837C163.048 18.7813 163.149 18.9022 163.149 19.1642V19.9702C163.149 20.2221 163.048 20.3531 162.837 20.3531H158.994V23.0333H164.024C164.225 23.0333 164.325 23.1643 164.325 23.4162V24.2323C164.325 24.4842 164.225 24.6051 164.024 24.6051H155.976C156.289 25.2575 156.652 25.8842 157.063 26.4792C157.53 27.1875 158.104 27.8196 158.763 28.3533C158.763 28.3533 158.763 28.4037 158.833 28.4037C159.758 27.7216 160.645 26.9883 161.489 26.2072C161.616 26.0946 161.773 26.0211 161.941 25.9956C162.077 26.0198 162.203 26.0828 162.304 26.177C163.239 26.8923 163.722 27.3155 163.722 27.4767C163.726 27.5158 163.722 27.5553 163.71 27.5926C163.698 27.6299 163.677 27.6641 163.651 27.6928C163.624 27.7216 163.591 27.7441 163.555 27.759C163.519 27.7739 163.479 27.7807 163.44 27.779L162.827 27.6682C162.623 27.6873 162.43 27.7681 162.273 27.8999C161.64 28.3332 160.936 28.837 160.151 29.4214C160.3 29.54 160.462 29.6414 160.634 29.7236C161.279 30.0878 161.952 30.4011 162.646 30.6607C163.008 30.7615 163.43 30.8622 163.943 31.0134C164.064 31.0134 164.144 31.0134 164.144 31.1443C164.134 31.2208 164.109 31.2943 164.069 31.3602C164.029 31.4261 163.976 31.483 163.913 31.5272L163.179 32.4139C163.132 32.4851 163.067 32.543 162.992 32.5818C162.916 32.6207 162.831 32.6392 162.746 32.6356C161.656 32.2905 160.61 31.8205 159.628 31.235C158.914 30.8068 158.241 30.3144 157.616 29.764C156.945 29.168 156.351 28.4911 155.846 27.7488C155.197 26.7703 154.638 25.735 154.176 24.6555H150.937V29.8748C152.486 29.6229 153.955 29.3408 155.343 29.0385H155.494C155.521 29.0352 155.548 29.0382 155.574 29.0472C155.6 29.0562 155.624 29.0709 155.643 29.0903C155.662 29.1097 155.677 29.1333 155.686 29.1592C155.695 29.1851 155.698 29.2128 155.695 29.24C155.724 29.7059 155.69 30.1736 155.594 30.6305C152.858 31.1443 150.082 31.6381 147.295 32.0008C147.044 32.4542 146.863 32.7061 146.712 32.7061C146.561 32.7061 146.209 32.0008 145.706 30.6305C146.712 30.5297 147.849 30.3786 149.166 30.1771V24.6857H145.042C144.992 24.9376 144.972 25.1996 144.942 25.4011C144.729 26.9285 144.33 28.4241 143.755 29.8546C143.434 30.7581 143.001 31.6178 142.467 32.4139C142.371 32.42 142.274 32.4027 142.186 32.3635C141.919 32.0922 141.614 31.8614 141.28 31.6784C141.206 31.5764 141.171 31.4515 141.18 31.3257C141.773 30.3529 142.237 29.3061 142.558 28.2123C142.945 26.7902 143.231 25.3423 143.413 23.8797C143.564 22.3078 143.674 20.4136 143.674 18.1364V10.63C143.674 10.3781 143.795 10.2471 144.077 10.2471H162.565C162.817 10.2471 162.937 10.3478 162.937 10.5493V15.3857C162.937 15.6679 162.817 15.7989 162.565 15.7989H145.465V18.1364ZM145.465 14.1766H161.167V11.8189H145.465V14.1766ZM157.224 23.0938V20.4337H152.265V23.1139L157.224 23.0938Z" fill="white"/>
<path d="M180.581 19.7487C180.782 19.7487 180.883 19.8796 180.883 20.1315V20.9376C180.883 21.1895 180.782 21.3205 180.581 21.3205H167.725C167.524 21.3205 167.424 21.1895 167.424 20.9376V20.1517C167.424 19.8998 167.524 19.7688 167.725 19.7688L180.581 19.7487ZM175.642 9.67282C175.642 9.92472 175.541 10.0456 175.39 10.0456C175.239 10.0456 175.139 10.2471 175.139 10.5796V12.5948H179.997C180.168 12.5948 180.269 12.7258 180.269 12.9777V13.7938C180.269 14.0457 180.168 14.1666 179.997 14.1666H168.238C168.037 14.1666 167.927 14.0457 167.927 13.7938V12.9777C167.927 12.7258 168.037 12.5948 168.238 12.5948H173.368V9.6426C173.368 9.46123 173.499 9.36047 173.751 9.36047C175.038 9.36047 175.642 9.46123 175.642 9.6426V9.67282ZM178.81 23.3256C179.062 23.3256 179.183 23.4263 179.183 23.6278V32.1419C179.183 32.3434 179.062 32.4442 178.81 32.4442H177.804C177.523 32.4442 177.392 32.3434 177.392 32.1419V30.9227H170.663V32.1117C170.663 32.3132 170.542 32.414 170.29 32.414H169.285C169.003 32.414 168.882 32.3132 168.882 32.1117V23.6984C168.874 23.6435 168.878 23.5873 168.895 23.5345C168.912 23.4817 168.942 23.4337 168.981 23.3944C169.02 23.3551 169.068 23.3256 169.121 23.3084C169.174 23.2912 169.23 23.2867 169.285 23.2953L178.81 23.3256ZM171.93 16.9879C172.182 17.6529 172.383 18.3582 172.584 19.0736C172.05 19.3282 171.48 19.4982 170.894 19.5774C170.78 18.9959 170.635 18.4208 170.461 17.8544C170.203 17.0582 169.89 16.2805 169.526 15.5269C169.526 15.416 169.979 15.1138 170.894 14.6402C171.282 15.3929 171.628 16.1666 171.93 16.9576V16.9879ZM177.412 29.3811V24.8873H170.683V29.3509L177.412 29.3811ZM178.931 15.0432C179.162 15.1642 179.283 15.2951 179.283 15.416C179.284 15.4784 179.265 15.5395 179.229 15.5902C179.193 15.641 179.141 15.6788 179.082 15.6982C179.042 15.6924 179.001 15.6953 178.962 15.7069C178.923 15.7184 178.887 15.7383 178.856 15.7651C178.826 15.7919 178.801 15.825 178.785 15.8621C178.768 15.8993 178.76 15.9396 178.76 15.9803C178.368 17.1359 177.877 18.2551 177.291 19.3255C177.161 19.4968 177.06 19.5774 177.01 19.5774C176.865 19.5644 176.725 19.5122 176.607 19.4262L175.602 18.993C175.451 18.9426 175.4 18.9224 175.4 18.8922C175.413 18.8202 175.441 18.7516 175.481 18.6907C175.853 18.0936 176.189 17.4745 176.487 16.8367C176.807 16.167 177.053 15.4643 177.221 14.741C177.271 14.5394 177.322 14.4286 177.392 14.4286L178.931 15.0432ZM183.739 32.1721C183.739 32.3737 183.588 32.4744 183.337 32.4744H182.331C182.07 32.4744 181.949 32.3737 181.949 32.1721V10.7308C181.949 10.5494 182.07 10.4487 182.331 10.4487H189.262C189.48 10.4417 189.697 10.4866 189.895 10.5796C190.318 10.9021 190.549 11.1338 190.549 11.2346L186.978 18.3783C186.918 18.4973 186.884 18.6279 186.878 18.7612C186.879 18.8363 186.898 18.91 186.933 18.9765C186.968 19.0429 187.018 19.1003 187.079 19.1441C187.949 20.0819 188.668 21.1492 189.211 22.3079C189.752 23.53 190.036 24.8504 190.046 26.1871C190.059 26.9827 189.883 27.77 189.533 28.4844C189.202 29.1423 188.634 29.65 187.944 29.9051C187.249 30.2606 186.468 30.4109 185.691 30.3383C185.238 30.3383 185.037 30.2174 185.037 29.9051C184.985 29.4272 184.838 28.9647 184.604 28.5449C184.604 28.3635 184.705 28.2627 184.906 28.2627L186.093 28.4642C186.409 28.4978 186.729 28.4497 187.021 28.3244C187.313 28.1992 187.569 28.001 187.763 27.7489C188.116 27.3072 188.298 26.7526 188.276 26.1871C188.243 25.1222 188.011 24.0729 187.592 23.0938C186.941 21.7261 186.067 20.4764 185.007 19.396C184.946 19.3596 184.895 19.3079 184.86 19.2461C184.825 19.1844 184.806 19.1145 184.806 19.0433C184.82 18.9016 184.853 18.7625 184.906 18.6302L188.477 11.9197H183.719L183.739 32.1721Z" fill="white"/>
<path d="M199.834 14.5797C200.186 15.3858 200.387 15.819 200.387 15.8694C200.387 15.9198 200.306 15.9702 200.206 16.0206C199.277 16.7884 198.299 17.4951 197.279 18.1365C196.766 18.4589 196.162 18.8116 195.458 19.1944C195.393 19.2342 195.34 19.2908 195.305 19.3582C195.27 19.4256 195.253 19.5013 195.257 19.5773C195.257 19.7788 195.176 19.8796 195.046 19.8796C194.502 19.4761 194.018 18.9978 193.607 18.4589C193.565 18.4262 193.53 18.3853 193.504 18.3385C193.478 18.2917 193.462 18.2401 193.456 18.1869C193.456 18.1365 193.507 18.076 193.607 18.0256C194.204 17.8055 194.788 17.5532 195.357 17.27C196.178 16.8283 196.971 16.337 197.731 15.7989C198.415 15.3455 198.999 14.9122 199.502 14.5092C199.551 14.462 199.615 14.4335 199.683 14.4286C199.733 14.3983 199.783 14.479 199.834 14.5797ZM211.744 18.4589C211.995 18.4589 212.146 18.5597 212.146 18.7612V29.1494C212.146 29.3509 211.995 29.4516 211.744 29.4516H209.732C210.423 29.7985 211.144 30.085 211.884 30.3081C212.877 30.6035 213.885 30.849 214.902 31.0436C215.073 31.094 215.174 31.1746 215.174 31.225C215.174 31.2754 214.802 31.8295 214.087 32.6154H213.735C211.781 32.1169 209.875 31.4425 208.042 30.6003C207.981 30.5617 207.924 30.5179 207.871 30.4693C207.871 30.3182 208.142 29.9856 208.726 29.4617H201.996C202.53 29.9655 202.811 30.2678 202.811 30.3484C202.811 30.429 202.711 30.5297 202.56 30.5297C202.228 30.5297 202.057 30.5297 202.027 30.6507C199.711 31.5409 197.334 32.2615 194.915 32.8069C194.836 32.818 194.755 32.8009 194.687 32.7586C194.619 32.7162 194.568 32.6513 194.543 32.5751C194.393 32.3328 194.202 32.1181 193.979 31.9404C193.897 31.8591 193.844 31.7528 193.828 31.6381C193.828 31.5373 193.929 31.4668 194.13 31.4668C195.398 31.1645 196.514 30.8522 197.45 30.5499C198.396 30.2602 199.317 29.8963 200.206 29.4617H198.083C197.802 29.4617 197.681 29.3609 197.681 29.1594V18.7612C197.681 18.5597 197.802 18.4589 198.083 18.4589H211.744ZM199.401 10.3982C199.439 10.3933 199.478 10.3972 199.515 10.4096C199.551 10.4221 199.584 10.4427 199.611 10.4699C199.638 10.4972 199.659 10.5303 199.671 10.5668C199.684 10.6033 199.688 10.6421 199.683 10.6804V11.6879C199.683 11.9701 199.582 12.091 199.401 12.091H194.261C194.06 12.091 193.959 11.9701 193.959 11.6879V10.6804C193.959 10.499 194.06 10.3982 194.261 10.3982H199.401ZM210.355 21.6731V19.9501H199.502V21.7235L210.355 21.6731ZM210.355 24.6958V23.1744H199.502V24.7865L210.355 24.6958ZM210.355 26.1971H199.502V27.8697H210.355V26.1971ZM206.402 10.0758C206.402 10.227 206.332 10.3076 206.231 10.3076C206.133 10.3017 206.034 10.3219 205.946 10.3661C205.858 10.4104 205.783 10.477 205.728 10.5595C205.628 10.761 205.517 10.9121 205.447 11.0632H214.268C214.429 11.0546 214.589 11.0894 214.731 11.164C215.083 11.4159 215.254 11.6275 215.254 11.7484L212.729 15.1137C212.709 15.1478 212.679 15.1753 212.643 15.1932C212.608 15.211 212.568 15.2184 212.528 15.2145C211.613 14.9626 211.16 14.7409 211.16 14.5394L212.629 12.6552H209.158C209.218 12.8934 209.305 13.1235 209.42 13.3404C209.621 13.7949 209.904 14.2082 210.255 14.5596C210.617 15.0173 211.052 15.4122 211.542 15.7284C211.9 16.0272 212.3 16.2717 212.729 16.4538C213.387 16.7978 214.083 17.0649 214.802 17.2498C215.184 17.3506 215.616 17.4211 216.119 17.5017C216.22 17.5521 216.3 17.5722 216.3 17.6025C216.3 17.6327 216.25 17.8846 216.17 17.9047C215.866 18.2189 215.587 18.5558 215.335 18.9123C215.281 18.9745 215.214 19.0247 215.14 19.0594C215.065 19.0941 214.984 19.1127 214.902 19.1138C214.079 18.9689 213.285 18.6934 212.548 18.2977C211.892 17.963 211.266 17.5719 210.677 17.1289C210.192 16.7527 209.729 16.349 209.289 15.9198C208.883 15.4896 208.544 15.0005 208.283 14.4689C208.237 14.4233 208.208 14.3625 208.203 14.2976C208.113 14.472 208.013 14.6403 207.901 14.8014C207.608 15.2471 207.271 15.6623 206.895 16.0407C206.499 16.4432 206.061 16.8013 205.587 17.1087C205.141 17.4065 204.665 17.6597 204.169 17.8644C203.724 18.049 203.267 18.2038 202.801 18.3279C202.738 18.3278 202.676 18.3142 202.619 18.2882C202.562 18.2621 202.511 18.2241 202.469 18.1768C202.227 17.8263 201.965 17.4899 201.685 17.1692C201.608 17.1038 201.555 17.0154 201.534 16.9173C201.534 16.9173 201.534 16.8669 201.614 16.8165C202.098 16.7422 202.573 16.6207 203.032 16.4538C203.426 16.3208 203.806 16.1522 204.169 15.95C204.639 15.6887 205.078 15.3743 205.477 15.013C205.85 14.7176 206.188 14.3794 206.483 14.0054C206.72 13.6963 206.916 13.3576 207.066 12.9978C207.122 12.8896 207.172 12.7787 207.217 12.6653H204.431C204.273 12.8586 204.105 13.0436 203.928 13.2195C203.401 13.7613 202.843 14.2726 202.258 14.751C202.179 14.7555 202.101 14.7392 202.03 14.7039C201.959 14.6685 201.899 14.6153 201.856 14.5495C201.635 14.3834 201.423 14.2051 201.222 14.0155C201.179 13.9879 201.143 13.9508 201.117 13.9071C201.091 13.8634 201.075 13.8143 201.071 13.7636C201.473 13.4008 201.906 13.0482 202.308 12.6452C202.85 12.1316 203.326 11.5528 203.727 10.9222C204.051 10.4111 204.32 9.86739 204.531 9.29998C204.534 9.27402 204.545 9.24969 204.563 9.23126C204.582 9.21283 204.606 9.20149 204.632 9.19922C205.269 9.41856 205.866 9.73829 206.402 10.1463V10.0758Z" fill="white"/>
<path d="M224.448 21.2196C224.7 21.2196 224.82 21.3204 224.82 21.5219V28.0611C224.798 28.5246 224.895 28.986 225.102 29.4012C225.222 29.7049 225.447 29.9552 225.736 30.1065C226.147 30.3304 226.592 30.4868 227.053 30.57C227.79 30.6757 228.533 30.7262 229.276 30.7211H234.638C237.123 30.6832 239.601 30.4542 242.051 30.036C242.166 29.973 242.293 29.9385 242.424 29.9352C242.524 29.9352 242.605 29.9856 242.605 30.036C242.402 30.695 242.251 31.3688 242.152 32.0511C242.102 32.3333 241.971 32.4844 241.719 32.4844H229.276C228.69 32.4859 228.104 32.4353 227.526 32.3333C226.963 32.2389 226.405 32.111 225.856 31.9504C225.38 31.7655 224.93 31.5181 224.519 31.2148C224.153 30.8308 223.853 30.388 223.633 29.905L223.533 29.8042C223.432 29.8042 223.352 29.8042 223.352 29.8748C221.692 31.1745 220.756 32.0511 220.596 32.5146C220.58 32.5619 220.55 32.6034 220.511 32.6339C220.471 32.6644 220.424 32.6825 220.374 32.6859C220.274 32.6859 219.942 32.2527 219.368 31.3962C219.279 31.2441 219.237 31.0686 219.248 30.8924C220.534 30.2368 221.754 29.4573 222.889 28.5649C222.959 28.5145 223.01 28.3332 223.01 28.0309V22.8116H219.851C219.65 22.8116 219.549 22.6907 219.549 22.4086V21.6227C219.549 21.3708 219.65 21.2196 219.851 21.2196H224.448ZM223.151 16.6049C223.835 17.1087 224.418 17.6125 224.931 17.9752C224.895 18.0469 224.851 18.1144 224.8 18.1767C224.297 18.8921 224.036 19.2448 224.036 19.2448C223.272 18.6017 222.461 18.0158 221.611 17.4916C221.066 17.1383 220.491 16.8348 219.891 16.5847C220.093 16.1731 220.358 15.7957 220.676 15.4663C220.756 15.3656 220.827 15.295 220.877 15.295C221.658 15.6901 222.417 16.1273 223.151 16.6049ZM223.633 11.2043C224.297 11.6677 224.85 12.0708 225.333 12.4234C225.304 12.4988 225.259 12.5674 225.203 12.6249L224.448 13.7232C223.705 13.1499 222.925 12.6249 222.114 12.1514C221.594 11.8304 221.045 11.5572 220.475 11.3352C220.679 10.9253 220.944 10.5483 221.259 10.2168C221.33 10.1261 221.41 10.0455 221.461 10.0455C222.205 10.3936 222.93 10.7803 223.633 11.2043ZM239.265 10.247C239.422 10.2366 239.58 10.2716 239.718 10.3478C240.08 10.5997 240.251 10.8012 240.251 10.9322L235.221 14.3479C235.624 14.5494 235.976 14.7308 236.328 14.8819C236.328 14.9323 236.328 14.9827 236.207 15.0834C236.086 15.1842 235.976 15.3857 235.905 15.4966H240.301C240.366 15.4887 240.431 15.4954 240.492 15.5163C240.554 15.5371 240.61 15.5716 240.656 15.617C240.703 15.6625 240.738 15.7179 240.76 15.779C240.782 15.8401 240.79 15.9054 240.784 15.9701V27.9604C240.784 28.4641 240.452 28.847 239.778 29.0989C239.009 29.3509 238.212 29.5033 237.404 29.5523C237.193 29.5523 237.092 29.4717 237.092 29.2702C236.978 28.7374 236.784 28.2246 236.519 27.7488C236.519 27.6984 236.569 27.6782 236.72 27.6782C237.396 27.7397 238.078 27.6782 238.732 27.4969C238.85 27.4625 238.952 27.3887 239.021 27.2878C239.091 27.1868 239.124 27.065 239.114 26.9427V25.0887H234.869V29.3508C234.869 29.5523 234.718 29.6329 234.457 29.6329H233.451C233.179 29.6329 233.049 29.5523 233.049 29.3508V25.0887H229.105V29.1191C229.105 29.3206 228.955 29.4213 228.703 29.4213H227.697C227.496 29.4213 227.416 29.3206 227.416 29.1191V15.8694C227.416 15.6175 227.496 15.4966 227.697 15.4966H234.165C233.461 15.1641 232.727 14.8618 232.023 14.5797C231.017 14.227 230.222 13.9449 229.588 13.7937C229.78 13.4343 230.009 13.0964 230.272 12.7862C230.29 12.7461 230.318 12.7112 230.354 12.6848C230.389 12.6584 230.43 12.6412 230.473 12.635C231.711 13.0179 232.727 13.3706 233.491 13.6426L236.509 11.6879H227.607C227.405 11.6879 227.305 11.5569 227.305 11.305V10.5191C227.3 10.4782 227.305 10.4368 227.318 10.3979C227.331 10.359 227.353 10.3237 227.383 10.2946C227.412 10.2655 227.447 10.2434 227.486 10.2299C227.525 10.2164 227.566 10.212 227.607 10.2168L239.265 10.247ZM233.119 19.547V17.0583H229.176V19.547H233.119ZM233.119 23.5774V21.0383H229.176V23.5975L233.119 23.5774ZM234.92 19.547H239.164V17.0583H234.92V19.547ZM234.92 23.5774H239.164V21.0383H234.92V23.5774Z" fill="white"/>
<path d="M258.347 16.5042C258.396 16.5942 258.436 16.6887 258.468 16.7863C258.468 16.9542 258.367 17.055 258.166 17.0886C257.683 17.0886 257.432 17.2196 257.381 17.3606C256.898 18.1768 256.375 19.0433 255.812 19.9501H267.752C267.953 19.9501 268.054 20.0509 268.054 20.2323V21.2398C268.054 21.5119 267.953 21.6429 267.752 21.6429H262.793C262.506 22.4888 262.153 23.3109 261.737 24.1014C261.263 25.1277 260.65 26.0838 259.916 26.9428C259.755 27.114 259.604 27.2652 259.484 27.4163C259.755 27.5473 260.017 27.6783 260.238 27.769C262.843 29.0889 265.046 30.2779 266.867 31.3459L266.736 31.5776L265.881 32.7364C263.367 31.2076 260.764 29.8314 258.085 28.6153C257.834 28.7866 257.613 28.9378 257.361 29.0889C256.316 29.7879 255.204 30.3819 254.042 30.8622C252.171 31.6139 250.252 32.2399 248.298 32.7364C248.097 32.7364 247.996 32.6658 247.976 32.5651C247.698 32.1808 247.443 31.7804 247.212 31.366C247.155 31.3317 247.108 31.2847 247.073 31.2287C247.038 31.1727 247.017 31.1094 247.01 31.0436C247.612 31.0028 248.206 30.8912 248.781 30.7111C249.83 30.5037 250.867 30.2414 251.889 29.9252C253.198 29.4511 254.469 28.8785 255.691 28.2123C255.913 28.0612 256.144 27.91 256.345 27.7589C254.424 26.9528 252.774 26.3181 251.416 25.8848L250.28 27.2551C250.211 27.2608 250.141 27.2491 250.078 27.2209C250.015 27.1927 249.96 27.1491 249.918 27.0939C249.596 26.9528 249.264 26.8218 248.912 26.6909C248.811 26.6909 248.781 26.6002 248.781 26.439C250.3 24.6152 251.467 23.0736 252.322 21.8545C252.377 21.7671 252.438 21.683 252.503 21.6026H245.823C245.622 21.6026 245.522 21.4716 245.522 21.1995V20.1919C245.522 20.0106 245.622 19.9098 245.823 19.9098H253.639C254.22 19.0375 254.751 18.1326 255.229 17.1994C255.569 16.607 255.858 15.9868 256.094 15.3455C256.094 15.2246 256.214 15.144 256.295 15.144L258.347 16.5042ZM258.347 10.0456C258.347 10.2673 258.246 10.3982 258.096 10.4285C257.945 10.4587 257.844 10.63 257.844 10.9323V12.222H266.575C266.827 12.222 266.978 12.3227 266.978 12.5242V17.4715C266.978 17.673 266.827 17.7737 266.575 17.7737H265.569C265.318 17.7737 265.187 17.673 265.187 17.4715V13.7938H247.986V17.4715C247.986 17.673 247.835 17.7737 247.584 17.7737H246.578C246.326 17.7737 246.196 17.673 246.196 17.4715V12.625C246.188 12.572 246.192 12.5179 246.208 12.4668C246.224 12.4157 246.252 12.3689 246.289 12.3301C246.325 12.2912 246.371 12.2613 246.421 12.2426C246.471 12.2238 246.525 12.2168 246.578 12.222H255.963V10.0758C255.963 9.8743 256.084 9.77354 256.365 9.77354C257.713 9.74331 258.367 9.84407 258.367 10.0758L258.347 10.0456ZM254.675 21.6227V21.7033C254.062 22.5598 253.358 23.517 252.523 24.585C254.535 25.3205 256.285 26.0057 257.804 26.6002C257.845 26.5844 257.88 26.5563 257.904 26.5196C258.654 25.7894 259.294 24.9545 259.806 24.0409C260.285 23.2674 260.676 22.4428 260.972 21.5824L254.675 21.6227Z" fill="white"/>
<path d="M277.399 11.9197C277.188 11.9197 277.087 11.7887 277.087 11.5368V10.5292C277.087 10.3277 277.188 10.2269 277.399 10.2269H283.112C283.221 10.2282 283.329 10.2511 283.429 10.2944C283.529 10.3376 283.62 10.4003 283.696 10.4788C284.476 12.2895 285.639 13.9087 287.106 15.2245C288.524 16.6352 290.797 17.6226 293.936 18.2473C294.288 18.2977 294.469 18.4287 294.469 18.5798C294.469 18.7309 294.419 18.7511 294.318 18.8619C293.966 19.1642 293.684 19.4362 293.433 19.6881C293.393 19.7699 293.332 19.8393 293.255 19.889C293.179 19.9387 293.091 19.9668 293 19.9703C292.159 19.7419 291.333 19.4627 290.526 19.134V19.8695C290.526 20.1214 290.415 20.2524 290.214 20.2524H283.615V24.1819H290.043C290.08 24.1787 290.118 24.1838 290.153 24.1969C290.188 24.2101 290.22 24.231 290.246 24.258C290.272 24.2851 290.292 24.3176 290.304 24.3533C290.315 24.3889 290.319 24.4268 290.315 24.4641V25.4717C290.315 25.7538 290.214 25.8747 290.043 25.8747H283.615V30.2274H292.9C292.941 30.2226 292.982 30.2271 293.021 30.2405C293.06 30.254 293.095 30.2761 293.124 30.3052C293.153 30.3343 293.175 30.3696 293.188 30.4085C293.202 30.4474 293.206 30.4889 293.202 30.5297V31.5373C293.202 31.7993 293.101 31.9202 292.9 31.9202H272.239C272.027 31.9202 271.957 31.7993 271.957 31.5373V30.5297C271.957 30.3282 272.027 30.2274 272.239 30.2274H281.724V25.8747H275.115C274.914 25.8747 274.814 25.7538 274.814 25.4717V24.4641C274.81 24.4244 274.816 24.3843 274.83 24.3471C274.844 24.3098 274.867 24.2763 274.896 24.2491C274.925 24.2219 274.96 24.2017 274.998 24.1901C275.036 24.1784 275.076 24.1757 275.115 24.1819H281.724V20.2322H274.814C274.612 20.2322 274.512 20.1012 274.512 19.8493V19.2952C273.799 19.7249 273.035 20.0634 272.239 20.3028C272.138 20.3028 272.007 20.202 271.907 19.9703C271.655 19.6881 271.373 19.3859 271.072 19.0332C270.921 18.9022 270.87 18.8115 270.87 18.7309C272.317 18.2493 273.72 17.646 275.065 16.9274C276.31 16.2122 277.473 15.3643 278.535 14.3983C279.298 13.6212 280.007 12.7931 280.658 11.9197H277.399ZM289.178 18.5596C287.929 18.0414 286.768 17.3309 285.738 16.4538C284.438 15.1844 283.354 13.7107 282.529 12.091C282.016 12.9127 281.416 13.6762 280.738 14.3681C279.959 15.3008 279.093 16.1577 278.153 16.9274C277.41 17.5349 276.623 18.0872 275.799 18.5798L289.178 18.5596Z" fill="white"/>
<path d="M306.962 17.3607V16.1717C306.962 15.9702 307.093 15.8694 307.375 15.8694C308.612 15.8694 309.246 15.9702 309.246 16.1717C309.246 16.3732 309.145 16.5344 308.994 16.5546C308.843 16.5747 308.733 16.7561 308.733 17.0584V17.3607H312.847C312.967 17.3607 313.048 17.4715 313.048 17.673V18.4791C313.246 18.3273 313.431 18.1587 313.601 17.9753C314.309 17.3719 314.953 16.6966 315.522 15.9601C315.633 15.809 315.734 15.7384 315.834 15.7384C315.979 15.7623 316.121 15.8029 316.257 15.8594C316.758 16.2382 317.223 16.6633 317.645 17.1289C317.65 17.1711 317.645 17.2138 317.631 17.2539C317.617 17.294 317.594 17.3304 317.564 17.3605C317.534 17.3905 317.498 17.4133 317.458 17.4273C317.418 17.4413 317.375 17.4461 317.333 17.4413L316.961 17.3304C316.847 17.3387 316.737 17.3708 316.636 17.4246C316.536 17.4784 316.448 17.5527 316.377 17.6428C314.808 19.0131 313.571 20.0509 312.656 20.8066H319.214C319.335 20.8066 319.415 20.9073 319.415 21.1089V21.8948C319.415 22.1467 319.335 22.2777 319.214 22.2777H310.563C310 22.6303 309.467 22.9628 308.914 23.2852C308.36 23.6077 307.908 23.8193 307.395 24.0712H316.659C316.911 24.0712 317.061 24.1719 317.061 24.3533V32.4139C317.061 32.6155 316.911 32.7162 316.659 32.7162H315.653C315.372 32.7162 315.241 32.6155 315.241 32.4139V31.9102H305.182V32.4139C305.182 32.6155 305.031 32.7162 304.779 32.7162H303.774C303.502 32.7162 303.371 32.6155 303.371 32.4139V25.7538C301.903 26.2576 300.353 26.7614 298.543 27.1745C298.241 27.1745 298.06 27.1141 298.01 26.9931C297.766 26.6413 297.467 26.3316 297.125 26.0762C297.08 26.0394 297.043 25.9934 297.017 25.9413C296.991 25.8892 296.976 25.8322 296.974 25.774C296.974 25.6732 297.044 25.6329 297.255 25.6329C298.513 25.4717 299.398 25.3206 299.901 25.2198C300.997 25.0028 302.079 24.7167 303.14 24.3634C304.464 23.9109 305.752 23.3585 306.992 22.7109L307.697 22.3079H298.14C298.01 22.3079 297.959 22.1769 297.959 21.925V21.1592C297.959 20.9577 297.959 20.857 298.14 20.857H306.932V18.8418H301.299C301.168 18.8418 301.118 18.7108 301.118 18.4388V17.6529C301.118 17.4513 301.168 17.3405 301.299 17.3405L306.962 17.3607ZM318.43 10.1464C318.681 10.1464 318.832 10.2471 318.832 10.4486V15.1843C318.832 15.3858 318.681 15.4966 318.43 15.4966H298.975C298.694 15.4966 298.573 15.3858 298.573 15.1843V10.4486C298.573 10.2471 298.694 10.1464 298.975 10.1464H318.43ZM304.588 11.6376H300.343V13.9953H304.588V11.6376ZM315.261 27.2753V25.5725H305.202V27.2753H315.261ZM315.261 30.4391V28.7363H305.202V30.4391H315.261ZM310.915 11.6376H306.389V13.9953H310.915V11.6376ZM310.714 20.4036C311.418 19.8998 312.072 19.396 312.656 18.862H308.733V20.8771H310.081C310.282 20.7058 310.513 20.5547 310.714 20.4036ZM317.061 11.6376H312.706V13.9953H317.061V11.6376Z" fill="white"/>
<path d="M62.6187 53.0694L66.5417 42.8223H68.0002L72.1948 53.0694H70.6457L69.4185 49.966H65.1837L64.0571 53.0694H62.6187ZM65.5659 48.8577H69.0363L67.97 46.0264C67.6482 45.1599 67.4067 44.4545 67.2458 43.9004C67.1142 44.5658 66.9292 45.2195 66.6926 45.8551L65.5659 48.8577Z" fill="white"/>
<path d="M78.0592 53.0694V52.1323C77.8444 52.4852 77.5385 52.7734 77.1738 52.9667C76.8092 53.16 76.3992 53.2512 75.9871 53.2306C75.4083 53.2332 74.8415 53.065 74.3575 52.747C73.8528 52.4133 73.4547 51.941 73.2108 51.3867C72.9266 50.7537 72.7858 50.0655 72.7984 49.3716C72.7877 48.6818 72.9143 47.9967 73.1706 47.3564C73.3919 46.7923 73.7774 46.3078 74.2771 45.9659C74.771 45.6463 75.3489 45.4814 75.9368 45.4924C76.3501 45.4826 76.7589 45.5798 77.1238 45.7745C77.4603 45.9523 77.7525 46.2037 77.9788 46.51V42.8223H79.2261V53.0694H78.0592ZM74.096 49.3716C74.0346 50.1316 74.245 50.8887 74.6895 51.5076C74.8571 51.7251 75.0719 51.9016 75.3176 52.0238C75.5633 52.146 75.8335 52.2107 76.1078 52.2129C76.3709 52.2077 76.6294 52.1434 76.8644 52.0248C77.0995 51.9062 77.3049 51.7364 77.4658 51.5278C77.8836 50.9426 78.0862 50.2305 78.0391 49.5126C78.1175 48.7099 77.9148 47.9049 77.4658 47.2355C77.2975 47.0179 77.0817 46.8418 76.835 46.7207C76.5883 46.5995 76.3172 46.5365 76.0424 46.5365C75.7676 46.5365 75.4965 46.5995 75.2498 46.7207C75.0031 46.8418 74.7873 47.0179 74.6191 47.2355C74.2129 47.8697 74.0289 48.6211 74.096 49.3716Z" fill="white"/>
<path d="M81.3385 53.0694V45.6435H82.4953V46.6511C82.7285 46.2883 83.0461 45.9875 83.4207 45.7745C83.8249 45.5448 84.284 45.4298 84.7485 45.442C85.2216 45.4213 85.6904 45.5404 86.0964 45.7846C86.4556 46.0218 86.7193 46.3788 86.8408 46.7922C87.0762 46.3958 87.4105 46.0676 87.8108 45.8397C88.2112 45.6119 88.6637 45.4922 89.1242 45.4924C89.4336 45.4728 89.7438 45.5163 90.036 45.6202C90.3282 45.7241 90.5963 45.8863 90.8242 46.0969C91.258 46.6244 91.4708 47.2998 91.4176 47.9811V53.0795H90.1301V48.364C90.1391 48.024 90.0985 47.6846 90.0094 47.3564C89.9296 47.1315 89.7728 46.9423 89.5668 46.8224C89.3393 46.6853 89.0778 46.6155 88.8124 46.6209C88.5718 46.6147 88.3325 46.6581 88.1094 46.7482C87.8862 46.8383 87.6838 46.9733 87.5147 47.1448C87.1308 47.6091 86.9463 48.207 87.0017 48.8073V53.1198H85.7444V48.2431C85.7755 47.8053 85.6701 47.3687 85.4426 46.9937C85.322 46.8464 85.1674 46.7308 84.992 46.6571C84.8167 46.5833 84.6261 46.5536 84.4367 46.5705C84.081 46.5635 83.7311 46.6616 83.4308 46.8526C83.1288 47.0424 82.9015 47.3306 82.787 47.6688C82.6246 48.1692 82.553 48.6947 82.5758 49.2204V53.0694H81.3385Z" fill="white"/>
<path d="M93.3993 44.2732V42.8223H94.6567V44.2732H93.3993ZM93.3993 53.0694V45.6435H94.6567V53.0694H93.3993Z" fill="white"/>
<path d="M96.7086 53.0694V45.6435H97.8352V46.7015C98.0875 46.3081 98.4389 45.9883 98.8539 45.7742C99.2689 45.5602 99.7329 45.4595 100.199 45.4823C100.619 45.4793 101.036 45.558 101.426 45.714C101.759 45.8465 102.051 46.0656 102.271 46.3488C102.462 46.6327 102.595 46.9509 102.664 47.2859C102.719 47.6898 102.742 48.0974 102.734 48.505V53.0694H101.477V48.5554C101.495 48.1666 101.444 47.7776 101.326 47.4068C101.222 47.1507 101.039 46.9351 100.803 46.7922C100.538 46.6367 100.234 46.5598 99.9275 46.5705C99.4212 46.5587 98.9291 46.7386 98.5494 47.0743C98.3228 47.3401 98.1539 47.6503 98.0534 47.9851C97.953 48.3199 97.9232 48.672 97.966 49.0189V53.0492L96.7086 53.0694Z" fill="white"/>
<path d="M104.806 44.2732V42.8223H106.064V44.2732H104.806ZM104.806 53.0694V45.6435H106.064V53.0694H104.806Z" fill="white"/>
<path d="M107.643 50.8527L108.88 50.6612C108.927 51.103 109.134 51.512 109.464 51.8099C109.848 52.0964 110.323 52.2358 110.801 52.2028C111.258 52.2355 111.712 52.1111 112.089 51.8502C112.215 51.7522 112.318 51.627 112.389 51.484C112.46 51.341 112.499 51.1838 112.501 51.024C112.504 50.8897 112.473 50.7568 112.409 50.6385C112.346 50.5202 112.253 50.4204 112.139 50.3489C111.728 50.1572 111.296 50.0151 110.852 49.9257C110.195 49.7801 109.552 49.5778 108.93 49.3211C108.598 49.171 108.318 48.9255 108.126 48.6158C107.967 48.3218 107.884 47.9928 107.884 47.6586C107.884 47.3244 107.967 46.9955 108.126 46.7014C108.277 46.422 108.491 46.1808 108.749 45.9961C108.992 45.8323 109.261 45.7097 109.544 45.6334C109.897 45.5304 110.263 45.4795 110.63 45.4822C111.151 45.4706 111.67 45.556 112.159 45.7341C112.555 45.8533 112.905 46.0884 113.165 46.4092C113.397 46.7569 113.545 47.1535 113.598 47.5679L112.371 47.7292C112.33 47.3795 112.157 47.0587 111.888 46.8324C111.555 46.6014 111.155 46.4879 110.751 46.51C110.318 46.4709 109.884 46.5734 109.514 46.8022C109.404 46.8761 109.313 46.9748 109.249 47.0903C109.184 47.2058 109.147 47.3349 109.142 47.4672C109.138 47.6299 109.196 47.7879 109.303 47.9105C109.427 48.0669 109.595 48.1826 109.785 48.243C109.906 48.243 110.278 48.4042 110.892 48.5655C111.523 48.7236 112.144 48.9187 112.753 49.1498C113.086 49.2873 113.372 49.5183 113.578 49.8149C113.788 50.1302 113.893 50.504 113.879 50.8829C113.88 51.308 113.75 51.7231 113.507 52.0718C113.265 52.4515 112.914 52.7498 112.501 52.9283C112.01 53.1411 111.478 53.2443 110.942 53.2306C110.162 53.2876 109.385 53.078 108.739 52.6361C108.159 52.2046 107.766 51.566 107.643 50.8527Z" fill="white"/>
<path d="M118.144 51.9408L118.325 53.0593C118.015 53.1264 117.698 53.1635 117.38 53.1701C117.012 53.1872 116.645 53.1109 116.314 52.9484C116.081 52.8219 115.894 52.6242 115.781 52.3842C115.65 51.8986 115.599 51.3949 115.63 50.8929V46.6208H114.684V45.6132H115.599V43.8096L116.847 43.054V45.6434H118.114V46.651H116.847V50.9937C116.834 51.2277 116.858 51.4622 116.917 51.6889C116.959 51.7909 117.033 51.876 117.128 51.9308C117.262 51.998 117.411 52.0292 117.561 52.0214C117.758 52.0127 117.953 51.9857 118.144 51.9408Z" fill="white"/>
<path d="M119.502 53.0694V45.6435H120.629V46.772C120.82 46.381 121.095 46.037 121.434 45.7644C121.668 45.5958 121.95 45.5074 122.238 45.5125C122.697 45.5227 123.143 45.6624 123.526 45.9156L123.094 47.0844C122.817 46.9071 122.496 46.8127 122.168 46.8123C121.902 46.8091 121.642 46.898 121.434 47.0642C121.206 47.2355 121.041 47.4759 120.961 47.7494C120.816 48.2225 120.744 48.7154 120.75 49.2104V53.0996L119.502 53.0694Z" fill="white"/>
<path d="M129.25 52.1525C128.856 52.5075 128.403 52.7906 127.912 52.9888C127.467 53.152 126.997 53.2339 126.524 53.2306C125.844 53.2786 125.172 53.0661 124.643 52.6361C124.308 52.3191 124.087 51.9005 124.015 51.445C123.942 50.9896 124.021 50.5229 124.24 50.1172C124.393 49.8264 124.614 49.5774 124.884 49.3917C125.161 49.2059 125.467 49.0664 125.789 48.9786C126.157 48.892 126.53 48.8314 126.906 48.7973C127.666 48.722 128.417 48.5735 129.149 48.3539V48.0315C129.166 47.8349 129.141 47.6369 129.075 47.4509C129.009 47.2649 128.904 47.0953 128.767 46.9534C128.364 46.6309 127.852 46.4757 127.338 46.5201C126.881 46.4838 126.423 46.5931 126.031 46.8325C125.701 47.1158 125.477 47.5031 125.397 47.9307L124.17 47.7594C124.26 47.301 124.449 46.8678 124.723 46.4899C125.017 46.1402 125.404 45.8816 125.84 45.7443C126.379 45.5566 126.948 45.4679 127.519 45.4823C128.042 45.4636 128.563 45.5386 129.058 45.704C129.395 45.8119 129.696 46.0065 129.934 46.2682C130.127 46.5204 130.261 46.8132 130.326 47.1247C130.376 47.5087 130.397 47.8962 130.386 48.2834V49.966C130.369 50.7059 130.396 51.4461 130.467 52.1827C130.522 52.4933 130.627 52.7927 130.779 53.0694H129.471C129.344 52.779 129.269 52.4687 129.25 52.1525ZM129.149 49.3413C128.498 49.5747 127.823 49.7335 127.137 49.8149C126.762 49.8553 126.394 49.9433 126.041 50.0769C125.835 50.1555 125.659 50.2964 125.538 50.4799C125.425 50.6614 125.366 50.8709 125.367 51.0845C125.365 51.2435 125.398 51.4009 125.464 51.5455C125.531 51.6901 125.628 51.8182 125.749 51.9208C126.068 52.1639 126.465 52.2821 126.866 52.2533C127.315 52.2589 127.759 52.1478 128.153 51.9308C128.514 51.7383 128.803 51.4345 128.978 51.0643C129.14 50.6652 129.212 50.2351 129.189 49.8048L129.149 49.3413Z" fill="white"/>
<path d="M135.245 51.9408L135.426 53.0593C135.115 53.1269 134.798 53.164 134.48 53.1701C134.112 53.1863 133.745 53.1101 133.414 52.9484C133.184 52.8213 133 52.6235 132.891 52.3842C132.755 51.8994 132.701 51.3955 132.73 50.8929V46.6208H131.784V45.6132H132.7V43.8096L133.957 43.054V45.6434H135.215V46.651H133.957V50.9937C133.943 51.2272 133.964 51.4614 134.018 51.6889C134.066 51.7897 134.143 51.8739 134.239 51.9308C134.369 51.9981 134.515 52.0294 134.661 52.0214C134.858 52.0131 135.053 51.9861 135.245 51.9408Z" fill="white"/>
<path d="M136.623 44.2732V42.8223H137.88V44.2732H136.623ZM136.623 53.0694V45.6435H137.88V53.0694H136.623Z" fill="white"/>
<path d="M139.47 49.3715C139.43 48.8154 139.512 48.2574 139.708 47.7357C139.904 47.214 140.211 46.7409 140.606 46.3488C141.259 45.8007 142.089 45.5105 142.94 45.5326C143.403 45.5176 143.864 45.5994 144.293 45.7729C144.723 45.9464 145.112 46.2077 145.435 46.5402C145.778 46.9116 146.044 47.3481 146.217 47.8239C146.39 48.2998 146.466 48.8054 146.44 49.3111C146.479 50.0873 146.331 50.8615 146.008 51.5681C145.729 52.1071 145.294 52.5495 144.761 52.8376C144.214 53.1448 143.596 53.3012 142.97 53.291C142.504 53.3109 142.038 53.2313 141.605 53.0576C141.171 52.8839 140.779 52.6201 140.455 52.2835C140.105 51.8884 139.838 51.4273 139.669 50.9272C139.499 50.4272 139.432 49.8982 139.47 49.3715ZM140.757 49.3715C140.702 50.1355 140.923 50.8939 141.381 51.5076C141.575 51.7302 141.815 51.9085 142.084 52.0307C142.353 52.1529 142.645 52.2161 142.94 52.2161C143.235 52.2161 143.527 52.1529 143.796 52.0307C144.065 51.9085 144.305 51.7302 144.499 51.5076C144.958 50.8793 145.175 50.1069 145.113 49.3312C145.171 48.5825 144.948 47.839 144.489 47.2455C144.298 47.0217 144.06 46.8426 143.793 46.7208C143.525 46.5989 143.234 46.5373 142.94 46.5402C142.644 46.5358 142.351 46.5967 142.082 46.7186C141.812 46.8405 141.573 47.0204 141.381 47.2455C140.924 47.8557 140.702 48.6107 140.757 49.3715Z" fill="white"/>
<path d="M148.02 53.0694V45.6435H149.156V46.7015C149.408 46.3096 149.758 45.9908 150.171 45.7768C150.584 45.5629 151.046 45.4613 151.51 45.4823C151.934 45.4803 152.353 45.559 152.748 45.7141C153.08 45.8431 153.369 46.0631 153.582 46.3488C153.781 46.6283 153.915 46.9483 153.975 47.2859C154.035 47.6893 154.059 48.0974 154.045 48.5051V53.0694H152.788V48.5554C152.806 48.1666 152.755 47.7777 152.637 47.4068C152.541 47.1495 152.36 46.9327 152.124 46.7922C151.858 46.6392 151.555 46.5625 151.249 46.5705C150.74 46.5611 150.245 46.7405 149.861 47.0743C149.634 47.3401 149.465 47.6503 149.365 47.9851C149.264 48.3199 149.234 48.672 149.277 49.0189V53.0493L148.02 53.0694Z" fill="white"/>
<path d="M160.523 53.0694V46.6209H159.417V45.6133H160.523V44.8274C160.505 44.4532 160.549 44.0786 160.654 43.719C160.772 43.3883 160.999 43.1077 161.298 42.923C161.685 42.6992 162.129 42.5941 162.575 42.6208C162.967 42.6246 163.358 42.6651 163.742 42.7417L163.561 43.8399C163.316 43.7929 163.066 43.7693 162.817 43.7694C162.672 43.7556 162.527 43.7707 162.389 43.814C162.251 43.8572 162.122 43.9277 162.012 44.0213C161.821 44.2825 161.734 44.6062 161.77 44.9281V45.6133H163.219V46.6209H161.77V53.0694H160.523Z" fill="white"/>
<path d="M163.873 49.3715C163.83 48.8177 163.906 48.261 164.097 47.7394C164.288 47.2178 164.589 46.7435 164.979 46.3488C165.632 45.8007 166.462 45.5105 167.313 45.5326C167.776 45.5176 168.237 45.5994 168.666 45.7729C169.096 45.9464 169.485 46.2077 169.808 46.5402C170.151 46.9116 170.417 47.3481 170.59 47.8239C170.763 48.2998 170.839 48.8054 170.813 49.3111C170.852 50.0873 170.704 50.8615 170.381 51.5681C170.102 52.1071 169.667 52.5495 169.134 52.8376C168.587 53.1448 167.969 53.3012 167.343 53.291C166.877 53.3109 166.411 53.2313 165.978 53.0576C165.544 52.8839 165.152 52.6201 164.828 52.2835C164.484 51.8861 164.222 51.4239 164.058 50.9239C163.894 50.4239 163.831 49.8962 163.873 49.3715ZM165.16 49.3715C165.105 50.1355 165.326 50.8939 165.784 51.5076C165.978 51.7302 166.218 51.9085 166.487 52.0307C166.756 52.1529 167.048 52.2161 167.343 52.2161C167.638 52.2161 167.93 52.1529 168.199 52.0307C168.468 51.9085 168.708 51.7302 168.902 51.5076C169.364 50.8807 169.586 50.1082 169.526 49.3312C169.581 48.5812 169.355 47.8376 168.892 47.2455C168.701 47.0217 168.463 46.8426 168.196 46.7208C167.928 46.5989 167.637 46.5373 167.343 46.5402C167.047 46.5358 166.754 46.5967 166.485 46.7186C166.215 46.8405 165.976 47.0204 165.784 47.2455C165.327 47.8557 165.105 48.6107 165.16 49.3715Z" fill="white"/>
<path d="M172.413 53.0693V45.6434H173.539V46.7719C173.731 46.3809 174.005 46.0369 174.344 45.7643C174.579 45.597 174.861 45.5088 175.149 45.5124C175.608 45.5215 176.054 45.6613 176.436 45.9155L176.044 47.054C175.771 46.8771 175.454 46.7827 175.129 46.782C174.859 46.7772 174.596 46.8663 174.384 47.0339C174.157 47.203 173.994 47.4447 173.922 47.719C173.776 48.1922 173.705 48.685 173.71 49.18V53.0693H172.413Z" fill="white"/>
<path d="M188.9 49.4722L190.247 49.8148C190.043 50.8229 189.504 51.7321 188.719 52.3942C187.945 52.9909 186.989 53.3006 186.013 53.2708C185.071 53.3127 184.137 53.0781 183.327 52.5957C182.612 52.1229 182.06 51.4401 181.748 50.641C181.382 49.7742 181.197 48.8415 181.204 47.9004C181.183 46.9343 181.394 45.9772 181.818 45.1094C182.2 44.3414 182.807 43.7086 183.558 43.2958C184.317 42.8814 185.169 42.6697 186.033 42.6811C186.958 42.6488 187.867 42.9253 188.618 43.467C189.35 43.9989 189.881 44.762 190.127 45.6333L188.799 45.9457C188.64 45.3133 188.289 44.7462 187.793 44.3235C187.299 43.9677 186.701 43.7868 186.093 43.8096C185.379 43.7766 184.674 43.9745 184.081 44.3739C183.556 44.7486 183.165 45.2817 182.965 45.8953C182.747 46.5445 182.638 47.2255 182.643 47.9105C182.628 48.69 182.758 49.4654 183.025 50.1977C183.243 50.8036 183.662 51.316 184.212 51.6486C184.733 51.968 185.332 52.1355 185.942 52.1323C186.644 52.1556 187.33 51.9229 187.874 51.4773C188.434 50.9459 188.796 50.2383 188.9 49.4722Z" fill="white"/>
<path d="M191.847 55.9208L191.706 54.7419C191.938 54.813 192.178 54.8503 192.42 54.8527C192.652 54.8642 192.883 54.8193 193.094 54.7218C193.264 54.6294 193.406 54.4939 193.507 54.3288C193.656 54.0258 193.784 53.7127 193.889 53.3917C193.889 53.3212 193.949 53.2205 193.999 53.0794L191.193 45.6434H192.541L194.08 49.9458C194.281 50.4899 194.462 51.0642 194.623 51.6587C194.769 51.0881 194.947 50.5263 195.156 49.976L196.746 45.6434H197.993L195.156 53.1902C194.959 53.7693 194.724 54.3348 194.452 54.883C194.277 55.2444 194.014 55.5561 193.688 55.7898C193.388 55.9827 193.038 56.0842 192.682 56.082C192.396 56.0811 192.113 56.0264 191.847 55.9208Z" fill="white"/>
<path d="M200.347 53.0694H199.18V42.8223H200.437V46.4798C200.67 46.1658 200.974 45.911 201.323 45.736C201.673 45.561 202.058 45.4706 202.449 45.4722C202.893 45.4698 203.332 45.5626 203.737 45.7443C204.131 45.9147 204.477 46.1814 204.743 46.5201C205.025 46.88 205.237 47.2903 205.366 47.7292C205.513 48.2195 205.587 48.7287 205.588 49.2406C205.656 50.3089 205.318 51.3635 204.642 52.1928C204.361 52.5139 204.015 52.7702 203.626 52.9441C203.237 53.1181 202.815 53.2055 202.389 53.2004C201.98 53.2129 201.576 53.1193 201.215 52.9285C200.853 52.7378 200.547 52.4566 200.327 52.1122L200.347 53.0694ZM200.347 49.301C200.302 49.964 200.43 50.6274 200.719 51.2255C200.865 51.5261 201.093 51.7798 201.375 51.9578C201.658 52.1359 201.984 52.2312 202.318 52.2331C202.595 52.2304 202.868 52.1646 203.115 52.0406C203.363 51.9167 203.579 51.7378 203.747 51.5177C204.129 50.8691 204.331 50.1298 204.331 49.3766C204.331 48.6234 204.129 47.8841 203.747 47.2355C203.585 47.0199 203.375 46.8449 203.134 46.7243C202.893 46.6036 202.628 46.5406 202.359 46.5402C202.082 46.5429 201.809 46.6087 201.562 46.7327C201.314 46.8567 201.098 47.0355 200.93 47.2556C200.497 47.8461 200.284 48.5696 200.327 49.301H200.347Z" fill="white"/>
<path d="M212.347 50.6814L213.645 50.8325C213.482 51.5377 213.081 52.1645 212.508 52.6059C211.793 53.0699 210.945 53.2849 210.096 53.2175C209.247 53.1501 208.444 52.8041 207.811 52.2331C207.119 51.4651 206.758 50.455 206.805 49.4219C206.75 48.3574 207.111 47.3133 207.811 46.51C208.132 46.1749 208.52 45.9119 208.95 45.7382C209.38 45.5645 209.842 45.4842 210.305 45.5024C210.759 45.4863 211.212 45.568 211.631 45.7418C212.051 45.9156 212.429 46.1775 212.739 46.51C213.41 47.3029 213.749 48.3244 213.685 49.3615C213.685 49.4421 213.685 49.5529 213.685 49.704H208.153C208.153 50.3887 208.399 51.0503 208.847 51.5681C209.042 51.7827 209.282 51.9524 209.55 52.0654C209.817 52.1785 210.106 52.2322 210.396 52.223C210.817 52.2362 211.231 52.1086 211.573 51.8603C211.943 51.554 212.213 51.1433 212.347 50.6814ZM208.223 48.6662H212.367C212.353 48.1595 212.188 47.6685 211.895 47.2556C211.708 47.0229 211.47 46.8364 211.199 46.7106C210.929 46.5848 210.633 46.523 210.335 46.5302C210.066 46.5246 209.797 46.5735 209.547 46.6739C209.296 46.7743 209.068 46.9241 208.877 47.1145C208.484 47.5299 208.255 48.0742 208.233 48.6461L208.223 48.6662Z" fill="white"/>
<path d="M215.355 53.0693V45.6434H216.481V46.7719C216.672 46.3809 216.947 46.0369 217.286 45.7643C217.521 45.597 217.803 45.5088 218.091 45.5124C218.549 45.5215 218.996 45.6613 219.378 45.9155L218.946 47.0843C218.673 46.9073 218.355 46.8129 218.03 46.8122C217.761 46.8075 217.498 46.8965 217.286 47.0641C217.059 47.2354 216.893 47.4758 216.813 47.7493C216.676 48.224 216.608 48.7161 216.612 49.2103V53.0995L215.355 53.0693Z" fill="white"/>
<path d="M224.076 49.7745L225.353 49.6637C225.391 50.1115 225.536 50.5437 225.776 50.9232C226.029 51.2811 226.378 51.5604 226.782 51.7292C227.28 51.9328 227.813 52.0355 228.351 52.0315C228.817 52.0376 229.281 51.9591 229.719 51.7998C230.068 51.6806 230.372 51.4595 230.594 51.165C230.786 50.9131 230.888 50.6049 230.886 50.2884C230.892 49.9839 230.796 49.6861 230.614 49.442C230.364 49.1651 230.045 48.96 229.689 48.8475C229.093 48.6433 228.485 48.4751 227.868 48.3438C227.175 48.2065 226.5 47.9901 225.856 47.6989C225.414 47.4859 225.035 47.1591 224.76 46.7518C224.518 46.3693 224.392 45.9248 224.398 45.4721C224.399 44.9553 224.553 44.4503 224.84 44.0212C225.158 43.5627 225.607 43.2114 226.128 43.0136C226.724 42.7813 227.359 42.665 227.999 42.6711C228.687 42.6575 229.371 42.7808 230.011 43.0338C230.56 43.24 231.034 43.6091 231.369 44.0917C231.685 44.5746 231.859 45.1367 231.872 45.714L230.574 45.8046C230.56 45.5264 230.491 45.2537 230.37 45.0028C230.249 44.7518 230.079 44.5277 229.87 44.3436C229.352 43.9745 228.723 43.7964 228.089 43.8399C227.468 43.8076 226.853 43.9811 226.339 44.3336C226.167 44.4587 226.027 44.6222 225.929 44.8111C225.832 44.9999 225.779 45.209 225.776 45.4218C225.771 45.5934 225.805 45.764 225.874 45.9209C225.944 46.0779 226.048 46.2172 226.178 46.3286C226.791 46.7101 227.476 46.9605 228.19 47.0641C228.963 47.2125 229.721 47.4317 230.453 47.719C230.98 47.9267 231.439 48.2753 231.781 48.7266C232.066 49.1598 232.213 49.6691 232.204 50.1876C232.2 50.7368 232.036 51.2729 231.731 51.7292C231.406 52.2294 230.94 52.6221 230.393 52.8577C229.759 53.1336 229.072 53.2677 228.381 53.2507C227.587 53.2762 226.797 53.139 226.058 52.8476C225.454 52.5982 224.939 52.1736 224.579 51.6285C224.243 51.0692 224.069 50.4273 224.076 49.7745Z" fill="white"/>
<path d="M239.124 50.6814L240.422 50.8325C240.259 51.5377 239.858 52.1645 239.285 52.6059C238.57 53.0699 237.723 53.2849 236.873 53.2175C236.024 53.1501 235.221 52.8041 234.588 52.2331C233.914 51.4573 233.571 50.4481 233.632 49.4219C233.578 48.3574 233.938 47.3133 234.638 46.51C234.959 46.1749 235.347 45.9119 235.777 45.7382C236.207 45.5645 236.669 45.4842 237.133 45.5024C237.587 45.4863 238.039 45.568 238.459 45.7418C238.879 45.9156 239.257 46.1775 239.567 46.51C240.207 47.3189 240.513 48.3432 240.422 49.3715V49.7141H234.889C234.89 50.3988 235.136 51.0604 235.583 51.5781C235.779 51.7928 236.019 51.9624 236.286 52.0755C236.554 52.1885 236.842 52.2423 237.133 52.2331C237.554 52.2463 237.968 52.1187 238.309 51.8703C238.696 51.5671 238.981 51.1521 239.124 50.6814ZM235 48.6662H239.144C239.125 48.1603 238.961 47.6707 238.672 47.2556C238.485 47.0229 238.247 46.8364 237.977 46.7106C237.706 46.5848 237.41 46.523 237.112 46.5302C236.843 46.5246 236.574 46.5735 236.324 46.6739C236.073 46.7743 235.845 46.9241 235.654 47.1145C235.253 47.5257 235.02 48.0718 235 48.6461V48.6662Z" fill="white"/>
<path d="M246.98 50.3792L248.218 50.5404C248.132 51.3106 247.776 52.0252 247.212 52.5555C246.65 53.0316 245.935 53.286 245.2 53.2709C244.744 53.2898 244.289 53.2095 243.867 53.0356C243.445 52.8616 243.066 52.5982 242.755 52.2633C242.09 51.4649 241.758 50.4395 241.83 49.4018C241.815 48.6835 241.948 47.9699 242.222 47.306C242.466 46.73 242.894 46.2515 243.44 45.9458C243.983 45.6511 244.592 45.4986 245.21 45.5025C245.93 45.4623 246.642 45.6762 247.222 46.107C247.757 46.5462 248.115 47.1659 248.228 47.8501L247 48.0416C246.924 47.6084 246.709 47.2121 246.387 46.9131C246.09 46.6586 245.711 46.5223 245.321 46.5302C245.028 46.5247 244.738 46.5832 244.471 46.7016C244.203 46.8199 243.964 46.9952 243.771 47.2153C243.325 47.8409 243.114 48.6051 243.178 49.3716C243.112 50.1416 243.315 50.9106 243.751 51.5479C243.933 51.7673 244.163 51.9422 244.423 52.0591C244.683 52.1761 244.965 52.2322 245.25 52.223C245.703 52.2386 246.143 52.0758 246.477 51.7696C246.797 51.3763 246.974 50.8862 246.98 50.3792Z" fill="white"/>
<path d="M254.283 53.0694V51.9812C254.033 52.3743 253.686 52.696 253.276 52.915C252.865 53.1339 252.405 53.2426 251.939 53.2306C251.518 53.2341 251.101 53.1519 250.712 52.9888C250.379 52.8564 250.088 52.6372 249.867 52.354C249.669 52.0631 249.536 51.7334 249.475 51.3867C249.417 51 249.393 50.6089 249.405 50.2179V45.6435H250.662V49.7645C250.647 50.2091 250.671 50.6541 250.732 51.0945C250.805 51.4037 250.983 51.678 251.235 51.8704C251.515 52.0666 251.85 52.1657 252.191 52.1525C252.563 52.1508 252.927 52.05 253.247 51.8603C253.563 51.6849 253.811 51.4081 253.951 51.0744C254.104 50.6067 254.172 50.1153 254.152 49.6235V45.5931H255.41V53.019L254.283 53.0694Z" fill="white"/>
<path d="M257.522 53.0693V45.6435H258.659V46.772C258.85 46.3839 259.121 46.0406 259.454 45.7644C259.689 45.5989 259.97 45.5108 260.258 45.5125C260.72 45.5224 261.17 45.662 261.556 45.9155L261.123 47.0843C260.847 46.9071 260.526 46.8127 260.198 46.8123C259.931 46.8073 259.671 46.8965 259.464 47.0642C259.233 47.2322 259.066 47.4738 258.991 47.7493C258.845 48.2224 258.774 48.7153 258.78 49.2103V53.0996L257.522 53.0693Z" fill="white"/>
<path d="M262.431 44.2732V42.8223H263.688V44.2732H262.431ZM262.431 53.0694V45.6435H263.688V53.0694H262.431Z" fill="white"/>
<path d="M268.487 51.9408L268.668 53.0593C268.353 53.1267 268.033 53.1638 267.712 53.1701C267.347 53.1863 266.984 53.1101 266.656 52.9484C266.421 52.8248 266.233 52.6263 266.123 52.3842C265.992 51.8986 265.941 51.3949 265.972 50.8929V46.6208H265.046V45.6132H265.972V43.8096L267.219 43.054V45.6434H268.487V46.651H267.219V50.9937C267.202 51.2278 267.226 51.4631 267.29 51.6889C267.331 51.7909 267.405 51.876 267.501 51.9308C267.634 51.9994 267.784 52.0307 267.933 52.0214C268.12 52.0109 268.305 51.9839 268.487 51.9408Z" fill="white"/>
<path d="M269.794 55.9208L269.653 54.7419C269.888 54.8137 270.132 54.851 270.378 54.8527C270.606 54.8646 270.834 54.8196 271.042 54.7218C271.214 54.6333 271.357 54.4968 271.454 54.3288C271.608 54.0279 271.736 53.7144 271.836 53.3917C271.836 53.3212 271.897 53.2205 271.947 53.0794L269.14 45.6434H270.488L272.037 49.9458C272.239 50.4899 272.41 51.0642 272.571 51.6587C272.711 51.0844 272.892 50.5201 273.084 49.976L274.673 45.6434H275.93L273.114 53.1902C272.914 53.77 272.676 54.3356 272.4 54.883C272.224 55.2444 271.961 55.5561 271.635 55.7898C271.336 55.9843 270.986 56.086 270.629 56.082C270.343 56.0799 270.06 56.0253 269.794 55.9208Z" fill="white"/>
<path d="M277.469 53.0693V51.6385H278.898V53.0693C278.917 53.5132 278.82 53.9544 278.616 54.3489C278.413 54.6897 278.101 54.9523 277.731 55.0946L277.379 54.5605C277.627 54.4576 277.835 54.2774 277.972 54.0467C278.115 53.7302 278.187 53.3863 278.183 53.0391L277.469 53.0693Z" fill="white"/>
<path d="M285.366 53.0694V45.6435H286.492V46.6511C286.723 46.2859 287.041 45.9845 287.418 45.7745C287.818 45.5437 288.274 45.4286 288.735 45.442C289.209 45.4213 289.677 45.5404 290.083 45.7846C290.446 46.0185 290.71 46.3767 290.828 46.7922C291.064 46.3943 291.4 46.0652 291.802 45.8372C292.204 45.6093 292.659 45.4904 293.121 45.4924C293.429 45.4718 293.738 45.5149 294.029 45.6189C294.319 45.7229 294.586 45.8856 294.811 46.0969C295.245 46.6244 295.458 47.2998 295.405 47.9811V53.0795H294.157V48.364C294.166 48.024 294.126 47.6846 294.036 47.3564C293.957 47.1315 293.8 46.9423 293.594 46.8224C293.365 46.6878 293.105 46.6181 292.839 46.6209C292.599 46.6129 292.359 46.6554 292.135 46.7456C291.912 46.8358 291.71 46.9718 291.542 47.1448C291.35 47.3739 291.205 47.6387 291.115 47.924C291.025 48.2092 290.993 48.5094 291.019 48.8073V53.1198H289.771V48.2431C289.8 47.8042 289.691 47.3673 289.46 46.9937C289.34 46.8457 289.185 46.7297 289.01 46.6558C288.834 46.582 288.643 46.5527 288.454 46.5705C288.098 46.5598 287.747 46.6582 287.448 46.8526C287.14 47.0387 286.909 47.3278 286.794 47.6688C286.636 48.17 286.568 48.6954 286.593 49.2204V53.0694H285.366Z" fill="white"/>
<path d="M296.944 49.3716C296.904 48.8145 296.986 48.2554 297.184 47.7334C297.382 47.2113 297.691 46.7388 298.09 46.3488C298.738 45.7998 299.566 45.5092 300.414 45.5327C300.878 45.5174 301.341 45.5991 301.772 45.7726C302.203 45.9461 302.594 46.2075 302.919 46.5403C303.26 46.9129 303.525 47.3496 303.698 47.8251C303.87 48.3006 303.947 48.8057 303.924 49.3111C303.963 50.0873 303.815 50.8615 303.492 51.5681C303.218 52.111 302.782 52.5548 302.245 52.8377C301.699 53.1462 301.081 53.3027 300.454 53.2911C299.988 53.3109 299.522 53.2314 299.089 53.0577C298.655 52.884 298.263 52.6201 297.939 52.2835C297.236 51.483 296.878 50.436 296.944 49.3716ZM298.231 49.3716C298.176 50.1356 298.397 50.894 298.855 51.5077C299.049 51.7302 299.289 51.9085 299.558 52.0307C299.827 52.1529 300.119 52.2161 300.414 52.2161C300.709 52.2161 301.001 52.1529 301.27 52.0307C301.539 51.9085 301.779 51.7302 301.973 51.5077C302.435 50.8808 302.656 50.1082 302.597 49.3313C302.649 48.5832 302.427 47.8417 301.973 47.2456C301.778 47.0245 301.538 46.8475 301.269 46.7262C301 46.605 300.709 46.5423 300.414 46.5423C300.119 46.5423 299.828 46.605 299.559 46.7262C299.29 46.8475 299.05 47.0245 298.855 47.2456C298.398 47.8558 298.176 48.6108 298.231 49.3716Z" fill="white"/>
<path d="M310.302 53.0694V52.1323C310.087 52.4852 309.781 52.7734 309.417 52.9667C309.052 53.16 308.642 53.2512 308.23 53.2306C307.654 53.2336 307.09 53.0653 306.61 52.747C306.1 52.4165 305.698 51.9436 305.453 51.3867C305.169 50.7537 305.028 50.0655 305.041 49.3716C305.035 48.6822 305.162 47.9981 305.413 47.3564C305.637 46.7909 306.026 46.3063 306.53 45.9659C307.02 45.6465 307.595 45.4816 308.179 45.4924C308.596 45.484 309.008 45.581 309.376 45.7745C309.708 45.9552 309.997 46.2062 310.221 46.51V42.8223H311.469V53.0694H310.302ZM306.339 49.3716C306.283 50.131 306.492 50.8864 306.932 51.5076C307.1 51.7251 307.315 51.9016 307.56 52.0238C307.806 52.146 308.076 52.2107 308.35 52.2129C308.62 52.2149 308.885 52.1551 309.128 52.0381C309.37 51.9211 309.583 51.7499 309.749 51.5379C310.174 50.9561 310.377 50.2414 310.322 49.5227C310.388 48.7322 310.182 47.943 309.739 47.2859C309.572 47.0615 309.355 46.8797 309.105 46.7554C308.855 46.6311 308.579 46.5677 308.3 46.5705C308.03 46.5681 307.763 46.6288 307.52 46.7477C307.278 46.8667 307.066 47.0405 306.902 47.2556C306.481 47.877 306.283 48.6228 306.339 49.3716Z" fill="white"/>
<path d="M318.42 52.1524C318.027 52.5095 317.574 52.7928 317.082 52.9887C316.637 53.152 316.167 53.2339 315.694 53.2306C315.017 53.2801 314.347 53.0672 313.823 52.6361C313.607 52.4473 313.435 52.213 313.32 51.9499C313.206 51.6868 313.15 51.4016 313.159 51.1146C313.157 50.763 313.243 50.4165 313.41 50.107C313.565 49.8152 313.79 49.566 314.064 49.3816C314.337 49.194 314.64 49.0543 314.959 48.9685C315.327 48.8835 315.7 48.8229 316.076 48.7871C316.836 48.7119 317.587 48.5634 318.319 48.3438C318.319 48.1725 318.319 48.0717 318.319 48.0214C318.341 47.8261 318.319 47.6284 318.257 47.4422C318.194 47.256 318.092 47.0857 317.957 46.9432C317.554 46.6207 317.042 46.4656 316.528 46.51C316.071 46.4737 315.613 46.583 315.221 46.8223C314.891 47.104 314.67 47.4927 314.597 47.9206L313.37 47.7493C313.451 47.288 313.64 46.8528 313.923 46.4798C314.213 46.1304 314.597 45.8717 315.03 45.7341C315.57 45.5471 316.138 45.4584 316.709 45.4722C317.232 45.4534 317.753 45.5285 318.249 45.6938C318.586 45.7986 318.889 45.9937 319.124 46.2581C319.325 46.5054 319.46 46.8002 319.516 47.1145C319.566 47.4986 319.587 47.886 319.576 48.2732V49.9559C319.559 50.6958 319.586 51.436 319.657 52.1726C319.716 52.4836 319.824 52.783 319.979 53.0593H318.661C318.529 52.7733 318.447 52.4664 318.42 52.1524ZM318.319 49.3413C317.669 49.5769 316.994 49.7359 316.307 49.8148C315.932 49.8565 315.564 49.9445 315.211 50.0768C315.007 50.1542 314.834 50.2956 314.718 50.4799C314.578 50.7058 314.522 50.9735 314.559 51.2367C314.595 51.4998 314.723 51.7418 314.919 51.9207C315.239 52.163 315.635 52.2811 316.036 52.2532C316.485 52.2603 316.929 52.1491 317.323 51.9308C317.687 51.7388 317.979 51.4351 318.158 51.0643C318.311 50.6628 318.38 50.234 318.359 49.8048L318.319 49.3413Z" fill="white"/>
</g>
<defs>
<linearGradient id="paint0_linear_963_1568" x1="42.1888" y1="-9.71311" x2="6.52654" y2="58.7135" gradientUnits="userSpaceOnUse">
<stop stop-color="#B5B5B6"/>
<stop offset="0.16" stop-color="#F4F4F4"/>
<stop offset="0.33" stop-color="#9FA0A0"/>
<stop offset="0.5" stop-color="white"/>
<stop offset="0.56" stop-color="#E1E1E1"/>
<stop offset="0.67" stop-color="#9FA0A0"/>
<stop offset="0.84" stop-color="white"/>
<stop offset="1" stop-color="#898989"/>
</linearGradient>
<linearGradient id="paint1_linear_963_1568" x1="44.1402" y1="-8.70556" x2="8.46791" y2="59.721" gradientUnits="userSpaceOnUse">
<stop stop-color="#B5B5B6"/>
<stop offset="0.16" stop-color="#F4F4F4"/>
<stop offset="0.33" stop-color="#9FA0A0"/>
<stop offset="0.5" stop-color="white"/>
<stop offset="0.56" stop-color="#E1E1E1"/>
<stop offset="0.67" stop-color="#9FA0A0"/>
<stop offset="0.84" stop-color="white"/>
<stop offset="1" stop-color="#898989"/>
</linearGradient>
<linearGradient id="paint2_linear_963_1568" x1="48.0632" y1="-6.65004" x2="12.3909" y2="61.7664" gradientUnits="userSpaceOnUse">
<stop stop-color="#B5B5B6"/>
<stop offset="0.16" stop-color="#F4F4F4"/>
<stop offset="0.33" stop-color="#9FA0A0"/>
<stop offset="0.5" stop-color="white"/>
<stop offset="0.56" stop-color="#E1E1E1"/>
<stop offset="0.67" stop-color="#9FA0A0"/>
<stop offset="0.84" stop-color="white"/>
<stop offset="1" stop-color="#898989"/>
</linearGradient>
<linearGradient id="paint3_linear_963_1568" x1="34.1617" y1="-13.9046" x2="-1.5106" y2="54.5219" gradientUnits="userSpaceOnUse">
<stop stop-color="#B5B5B6"/>
<stop offset="0.16" stop-color="#F4F4F4"/>
<stop offset="0.33" stop-color="#9FA0A0"/>
<stop offset="0.5" stop-color="white"/>
<stop offset="0.56" stop-color="#E1E1E1"/>
<stop offset="0.67" stop-color="#9FA0A0"/>
<stop offset="0.84" stop-color="white"/>
<stop offset="1" stop-color="#898989"/>
</linearGradient>
<linearGradient id="paint4_linear_963_1568" x1="35.8516" y1="-13.018" x2="0.179301" y2="55.3984" gradientUnits="userSpaceOnUse">
<stop stop-color="#B5B5B6"/>
<stop offset="0.16" stop-color="#F4F4F4"/>
<stop offset="0.33" stop-color="#9FA0A0"/>
<stop offset="0.5" stop-color="white"/>
<stop offset="0.56" stop-color="#E1E1E1"/>
<stop offset="0.67" stop-color="#9FA0A0"/>
<stop offset="0.84" stop-color="white"/>
<stop offset="1" stop-color="#898989"/>
</linearGradient>
<linearGradient id="paint5_linear_963_1568" x1="41.2633" y1="-10.1967" x2="5.60107" y2="58.2299" gradientUnits="userSpaceOnUse">
<stop stop-color="#B5B5B6"/>
<stop offset="0.16" stop-color="#F4F4F4"/>
<stop offset="0.33" stop-color="#9FA0A0"/>
<stop offset="0.5" stop-color="white"/>
<stop offset="0.56" stop-color="#E1E1E1"/>
<stop offset="0.67" stop-color="#9FA0A0"/>
<stop offset="0.84" stop-color="white"/>
<stop offset="1" stop-color="#898989"/>
</linearGradient>
<linearGradient id="paint6_linear_963_1568" x1="41.203" y1="-10.227" x2="5.54076" y2="58.1996" gradientUnits="userSpaceOnUse">
<stop stop-color="#B5B5B6"/>
<stop offset="0.16" stop-color="#F4F4F4"/>
<stop offset="0.33" stop-color="#9FA0A0"/>
<stop offset="0.5" stop-color="white"/>
<stop offset="0.56" stop-color="#E1E1E1"/>
<stop offset="0.67" stop-color="#9FA0A0"/>
<stop offset="0.84" stop-color="white"/>
<stop offset="1" stop-color="#898989"/>
</linearGradient>
<clipPath id="clip0_963_1568">
<rect width="320" height="61.2107" fill="white"/>
</clipPath>
</defs>
</svg>
