<?xml version="1.0" encoding="utf-8"?>
<!-- Generator: Adobe Illustrator 24.2.1, SVG Export Plug-In . SVG Version: 6.00 Build 0)  -->
<svg version="1.1" id="圖層_1" xmlns="http://www.w3.org/2000/svg" xmlns:xlink="http://www.w3.org/1999/xlink" x="0px" y="0px"
	 width="388.8px" height="110px" viewBox="0 0 388.8 110" style="enable-background:new 0 0 388.8 110;" xml:space="preserve">
<style type="text/css">
	.st0{opacity:0.1;clip-path:url(#SVGID_2_);}
	.st1{fill:#FFFFFF;}
</style>
<g>
	<defs>
		<path id="SVGID_1_" d="M378.8,110H10c-5.5,0-10-4.5-10-10V10C0,4.5,4.5,0,10,0h368.8c5.5,0,10,4.5,10,10v90
			C388.8,105.5,384.4,110,378.8,110z"/>
	</defs>
	<clipPath id="SVGID_2_">
		<use xlink:href="#SVGID_1_"  style="overflow:visible;"/>
	</clipPath>
	<g class="st0">
		<path class="st1" d="M184.9,73c-21.2,0-21.9,32.3,0,32.3C206.8,105.3,206.2,73,184.9,73z M184.9,101.1c-15.6-0.3-15.6-23.5,0-23.8
			C200.6,77.6,200.6,100.8,184.9,101.1z"/>
		<path class="st1" d="M236,29.3c-1.2,0-2.2,1-2.2,2.2v16.1c-2.5-3.2-6.4-5.4-11.8-5.4c-10.6,0-16.1,8.1-16.2,16.1
			c0.1,8.1,5.5,16.1,16.2,16.1c5.4,0,9.2-2.2,11.8-5.4v2.7c0,1.2,1,2.2,2.2,2.2c1.2,0,2.2-1,2.2-2.2V31.5
			C238.2,30.3,237.2,29.3,236,29.3z M222,70.2c-7.8-0.1-11.7-6-11.7-11.9c0-5.9,3.9-11.8,11.7-11.9c7.8,0.1,11.7,6,11.7,11.9
			C233.7,64.2,229.8,70.1,222,70.2z"/>
		<path class="st1" d="M279.4,5.2c-1.2,0-2.2,1-2.2,2.2V10c-2.5-3.1-6.4-5.4-11.7-5.4c-10.6,0-16.1,8.1-16.2,16.1
			c0.1,8.1,5.5,16.1,16.2,16.1c5.3,0,9.2-2.2,11.7-5.4v2.7c0,1.2,1,2.2,2.2,2.2s2.2-1,2.2-2.2V7.4C281.6,6.2,280.6,5.2,279.4,5.2z
			 M265.5,32.7c-7.8-0.1-11.7-6-11.7-11.9c0-5.9,3.9-11.8,11.7-11.9c7.8,0.1,11.7,6,11.7,11.9C277.2,26.7,273.3,32.6,265.5,32.7z"/>
		<path class="st1" d="M135.7,73.5c-6.8,0-11.4,3.3-13.9,7.7c-2.5-4.5-7.2-7.7-13.9-7.7c-4.9,0-9.1,2.1-11.7,5.7v-2.7
			c0-1.2-1-2.2-2.2-2.2c-1.2,0-2.2,1-2.2,2.2V87v2.7v13.5c0,1.2,1,2.2,2.2,2.2c1.2,0,2.2-1,2.2-2.2c0.1-2.6-0.2-13.3,0.2-17.1
			c0.1-0.8,0.3-1.3,0.4-1.6c1.7-4,5.6-6.5,11.1-6.6c7.8,0.1,11.7,6,11.7,11.9v13.5c0,1.2,1,2.2,2.2,2.2c1.2,0,2.2-1,2.2-2.2V89.6h0
			c0-5.9,3.9-11.7,11.7-11.9c5.1,0,8.4,2.4,10.2,5.7c1,2,1.5,4.5,1.5,7.6l0,3.2v8.9c0,1.2,1,2.2,2.2,2.2c1.2,0,2.2-1,2.2-2.2v-8.9
			v-4.6C151.8,80.2,145.6,73.7,135.7,73.5z"/>
	</g>
</g>
</svg>
