<svg width="26" height="24" viewBox="0 0 26 24" fill="none" xmlns="http://www.w3.org/2000/svg">
<path d="M2.70002 23.0401C2.20002 23.0401 1.70001 22.8401 1.30001 22.5401C0.500015 21.7401 0.500015 20.5401 1.20002 19.7401L11.8 8.44009C12.2 8.04009 12.7 7.84009 13.3 7.84009C13.9 7.84009 14.4 8.04009 14.8 8.44009L25.4 19.7401C26.2 20.5401 26.1 21.8401 25.3 22.5401C24.5 23.3401 23.2 23.2401 22.5 22.4401L13.4 12.7401L4.20002 22.4401C3.70002 22.7401 3.20002 23.0401 2.70002 23.0401Z" fill="white"/>
<path d="M23.9001 4.24011H2.70007C1.60007 4.24011 0.700073 3.34011 0.700073 2.24011C0.700073 1.14011 1.60007 0.240112 2.70007 0.240112H23.9001C25.0001 0.240112 25.9001 1.14011 25.9001 2.24011C25.9001 3.34011 25.0001 4.24011 23.9001 4.24011Z" fill="white"/>
</svg>
