<svg xmlns="http://www.w3.org/2000/svg" width="55.42" height="53.83" viewBox="0 0 55.42 53.83">
  <defs>
    <style>
      .cls-1 {
        fill: none;
      }

      .cls-2 {
        fill: #fff;
      }
    </style>
  </defs>
  <g id="圖層_2" data-name="圖層 2">
    <g id="圖層_1-2" data-name="圖層 1">
      <g>
        <circle class="cls-1" cx="15.79" cy="28.68" r="3.88"/>
        <g>
          <path class="cls-2" d="M26.91,27.31a1.11,1.11,0,0,1-.72-.81,10.65,10.65,0,0,0-.7-2.18,1.1,1.1,0,0,1,.09-1.07l1.5-2.15c-.19-.28-.39-.56-.6-.83L24,21a1.12,1.12,0,0,1-1-.23,10.46,10.46,0,0,0-1.85-1.35,1.1,1.1,0,0,1-.55-.92l-.05-2.63c-.32-.11-.64-.22-1-.31l-1.58,2.09a1.08,1.08,0,0,1-1,.43,9.75,9.75,0,0,0-2.29,0,1.09,1.09,0,0,1-1-.43l-1.58-2.09c-.33.09-.65.2-1,.31l0,2.63a1.06,1.06,0,0,1-.55.92A10.84,10.84,0,0,0,8.65,20.8,1.11,1.11,0,0,1,7.6,21l-2.51-.76c-.21.27-.41.55-.6.83L6,23.25a1.08,1.08,0,0,1,.1,1.07,10.1,10.1,0,0,0-.71,2.18,1.12,1.12,0,0,1-.71.81l-2.48.86c0,.16,0,.33,0,.51s0,.34,0,.51L4.67,30a1.12,1.12,0,0,1,.71.81A10.1,10.1,0,0,0,6.09,33,1.08,1.08,0,0,1,6,34.1l-1.5,2.15c.19.29.39.56.6.83l2.51-.76a1.11,1.11,0,0,1,1.05.23A10.69,10.69,0,0,0,10.5,37.9a1.06,1.06,0,0,1,.55.93l0,2.62c.32.12.64.22,1,.31l1.58-2.09a1.14,1.14,0,0,1,1-.43,9.75,9.75,0,0,0,2.29,0h.12a1.1,1.1,0,0,1,.87.43l1.58,2.09c.33-.09.65-.19,1-.31l.05-2.62a1.1,1.1,0,0,1,.55-.93,10.77,10.77,0,0,0,1.86-1.35,1.09,1.09,0,0,1,1-.23l2.51.76c.21-.27.41-.54.6-.83l-1.5-2.15A1.1,1.1,0,0,1,25.49,33a10.65,10.65,0,0,0,.7-2.18,1.08,1.08,0,0,1,.72-.8l2.47-.86c0-.17,0-.34,0-.51s0-.35,0-.51ZM15.79,34.74a6.07,6.07,0,1,1,6.06-6.06A6.07,6.07,0,0,1,15.79,34.74Z"/>
          <path class="cls-2" d="M38.59,15.3c.41.28,3.18,1.88,3.62,2.09a1.1,1.1,0,0,1,.69.88l.17,1.3a5.24,5.24,0,0,0,1,0l.16-1.3a1.09,1.09,0,0,1,.69-.88c.45-.22,3.21-1.81,3.62-2.09a1.11,1.11,0,0,1,1.11-.16l1.21.51a3.66,3.66,0,0,0,.26-.41l.23-.43-1-.79a1.11,1.11,0,0,1-.42-1c0-.49,0-3.69,0-4.18a1.11,1.11,0,0,1,.42-1l1-.79a4.94,4.94,0,0,0-.48-.84l-1.21.5a1.09,1.09,0,0,1-1.11-.16C48.1,6.2,45.34,4.6,44.9,4.39a1.1,1.1,0,0,1-.7-.89L44,2.21a3.94,3.94,0,0,0-1,0l-.17,1.3a1.09,1.09,0,0,1-.69.88C41.76,4.6,39,6.2,38.59,6.47a1.06,1.06,0,0,1-1.11.16l-1.21-.5c-.08.12-.16.24-.26.41s-.16.29-.22.42l1,.8a1.09,1.09,0,0,1,.42,1c0,.49,0,3.68,0,4.18a1.07,1.07,0,0,1-.42,1l-1,.8a4.94,4.94,0,0,0,.48.84l1.21-.5A1.08,1.08,0,0,1,38.59,15.3ZM40.31,9a3.74,3.74,0,1,1,1.37,5.11A3.73,3.73,0,0,1,40.31,9Z"/>
          <path class="cls-2" d="M42.77,12.24a1.56,1.56,0,0,0,2.13-.57,1.53,1.53,0,0,0,.16-1.18,1.57,1.57,0,0,0-1.51-1.16,1.83,1.83,0,0,0-.4.05,1.58,1.58,0,0,0-.95.73A1.57,1.57,0,0,0,42.77,12.24Z"/>
          <path class="cls-2" d="M46,41.59a1.61,1.61,0,0,0-.77-.2,1.44,1.44,0,0,0-.41,0,1.5,1.5,0,0,0-.94.73,1.56,1.56,0,0,0,1.75,2.28A1.56,1.56,0,0,0,46,41.59Z"/>
          <path class="cls-2" d="M52,46.07a1.1,1.1,0,0,1-.41-1c0-.49,0-3.68,0-4.17a1.07,1.07,0,0,1,.41-1l1-.8a5.1,5.1,0,0,0-.49-.84l-1.21.51a1.09,1.09,0,0,1-1.1-.16c-.41-.28-3.18-1.87-3.62-2.09a1.09,1.09,0,0,1-.69-.88l-.17-1.3a5.24,5.24,0,0,0-1,0l-.17,1.3a1.07,1.07,0,0,1-.69.88c-.44.22-3.21,1.81-3.61,2.09a1.09,1.09,0,0,1-1.11.16L38,38.18a3.66,3.66,0,0,0-.26.41,4.8,4.8,0,0,0-.23.43l1.05.8a1.07,1.07,0,0,1,.41,1c0,.49,0,3.68,0,4.17a1.08,1.08,0,0,1-.41,1l-1,.79a4.75,4.75,0,0,0,.48.85l1.21-.51a1.07,1.07,0,0,1,1.1.16c.41.27,3.18,1.87,3.62,2.09a1.09,1.09,0,0,1,.69.88l.17,1.3a5.24,5.24,0,0,0,1,0l.17-1.3a1.1,1.1,0,0,1,.69-.89c.44-.21,3.21-1.81,3.62-2.08a1.07,1.07,0,0,1,1.1-.16l1.22.51.26-.41c.09-.17.16-.3.22-.43Zm-3.47-1.25a3.74,3.74,0,0,1-2.28,1.74,3.6,3.6,0,0,1-1,.13A3.75,3.75,0,0,1,42,41.07a3.75,3.75,0,0,1,6.49,3.75Z"/>
        </g>
        <g>
          <path d="M30.78,26.34l-2.59-.9A12.73,12.73,0,0,0,27.72,24l1.57-2.25a1.09,1.09,0,0,0,0-1.19,15.54,15.54,0,0,0-1.65-2.26A1.11,1.11,0,0,0,26.54,18l-2.62.8a13.77,13.77,0,0,0-1.23-.89l-.05-2.75a1.1,1.1,0,0,0-.66-1,15.71,15.71,0,0,0-2.67-.86,1.08,1.08,0,0,0-1.11.4l-1.66,2.19a12.68,12.68,0,0,0-1.51,0l-1.66-2.19a1.07,1.07,0,0,0-1.11-.4,15.6,15.6,0,0,0-2.66.86,1.09,1.09,0,0,0-.67,1l0,2.75c-.42.28-.83.57-1.22.89L5,18a1.1,1.1,0,0,0-1.14.33,16.32,16.32,0,0,0-1.65,2.26,1.11,1.11,0,0,0,0,1.19L3.85,24a12.66,12.66,0,0,0-.46,1.44l-2.6.9a1.11,1.11,0,0,0-.73.94c0,.46-.06.92-.06,1.4s0,.93.06,1.39A1.11,1.11,0,0,0,.79,31l2.6.9a12.06,12.06,0,0,0,.46,1.44L2.28,35.6a1.11,1.11,0,0,0,0,1.19,16.32,16.32,0,0,0,1.65,2.26A1.1,1.1,0,0,0,5,39.38l2.63-.8a13.1,13.1,0,0,0,1.22.89l0,2.75a1.09,1.09,0,0,0,.67,1,15.6,15.6,0,0,0,2.66.86,1.07,1.07,0,0,0,1.11-.4L15,41.47a12.68,12.68,0,0,0,1.51,0l1.66,2.19a1.1,1.1,0,0,0,.87.43l.24,0A15.71,15.71,0,0,0,22,43.2a1.1,1.1,0,0,0,.66-1l.05-2.75a10.89,10.89,0,0,0,1.22-.89l2.63.8a1.09,1.09,0,0,0,1.14-.33,15.54,15.54,0,0,0,1.65-2.26,1.09,1.09,0,0,0,0-1.19l-1.57-2.25a12.11,12.11,0,0,0,.47-1.44l2.59-.9a1.09,1.09,0,0,0,.73-.94c0-.46.06-.92.06-1.39s0-.94-.06-1.4A1.09,1.09,0,0,0,30.78,26.34Zm-1.4,2.85-2.47.86a1.08,1.08,0,0,0-.72.8,10.65,10.65,0,0,1-.7,2.18,1.1,1.1,0,0,0,.09,1.07l1.5,2.15c-.19.29-.39.56-.6.83L24,36.32a1.09,1.09,0,0,0-1,.23,10.77,10.77,0,0,1-1.86,1.35,1.1,1.1,0,0,0-.55.93l-.05,2.62c-.32.12-.64.22-1,.31l-1.58-2.09a1.1,1.1,0,0,0-.87-.43h-.12a9.75,9.75,0,0,1-2.29,0,1.14,1.14,0,0,0-1,.43l-1.58,2.09c-.33-.09-.65-.19-1-.31l0-2.62a1.06,1.06,0,0,0-.55-.93,10.69,10.69,0,0,1-1.85-1.35,1.11,1.11,0,0,0-1.05-.23l-2.51.76c-.21-.27-.41-.54-.6-.83L6,34.1A1.08,1.08,0,0,0,6.09,33a10.1,10.1,0,0,1-.71-2.18A1.12,1.12,0,0,0,4.67,30l-2.48-.85c0-.17,0-.34,0-.51s0-.35,0-.51l2.48-.86a1.12,1.12,0,0,0,.71-.81,10.1,10.1,0,0,1,.71-2.18A1.08,1.08,0,0,0,6,23.25L4.49,21.1c.19-.28.39-.56.6-.83L7.6,21a1.11,1.11,0,0,0,1.05-.23,10.84,10.84,0,0,1,1.85-1.35,1.06,1.06,0,0,0,.55-.92l0-2.63c.32-.11.64-.22,1-.31l1.58,2.09a1.09,1.09,0,0,0,1,.43,9.75,9.75,0,0,1,2.29,0,1.08,1.08,0,0,0,1-.43l1.58-2.09c.33.09.65.2,1,.31l.05,2.63a1.1,1.1,0,0,0,.55.92,10.46,10.46,0,0,1,1.85,1.35A1.12,1.12,0,0,0,24,21l2.51-.76c.21.27.41.55.6.83l-1.5,2.15a1.1,1.1,0,0,0-.09,1.07,10.65,10.65,0,0,1,.7,2.18,1.11,1.11,0,0,0,.72.81l2.47.86c0,.16,0,.33,0,.51S29.39,29,29.38,29.19Z"/>
          <path d="M15.79,22.61a6.07,6.07,0,1,0,6.06,6.07A6.07,6.07,0,0,0,15.79,22.61Zm-3.88,6.07a3.88,3.88,0,1,1,3.88,3.88A3.88,3.88,0,0,1,11.91,28.68Z"/>
          <path d="M36.35,18l1.46-.6c.81.51,2.15,1.28,3,1.73l.2,1.56a1.1,1.1,0,0,0,.89.94,9.23,9.23,0,0,0,1.64.17,8.91,8.91,0,0,0,1.67-.18,1.08,1.08,0,0,0,.89-.93l.2-1.56c.85-.46,2.18-1.23,3-1.73l1.46.6A1.11,1.11,0,0,0,52,17.67a8.55,8.55,0,0,0,1-1.34,7.74,7.74,0,0,0,.68-1.52,1.1,1.1,0,0,0-.37-1.24l-1.25-1c0-1,0-2.5,0-3.46l1.25-1A1.08,1.08,0,0,0,53.66,7,8.07,8.07,0,0,0,52,4.1a1.1,1.1,0,0,0-1.26-.31L49.3,4.4c-.82-.51-2.15-1.28-3-1.73l-.2-1.56a1.08,1.08,0,0,0-.89-.94,8,8,0,0,0-3.31,0,1.1,1.1,0,0,0-.89.94l-.2,1.56c-.85.46-2.18,1.22-3,1.73l-1.46-.61a1.09,1.09,0,0,0-1.25.31,8.6,8.6,0,0,0-1,1.34A9,9,0,0,0,33.44,7a1.1,1.1,0,0,0,.37,1.24l1.25,1c0,1,0,2.5,0,3.46l-1.25,1a1.1,1.1,0,0,0-.37,1.24,8.09,8.09,0,0,0,1.66,2.87A1.06,1.06,0,0,0,36.35,18Zm.48-4a1.07,1.07,0,0,0,.42-1c0-.5,0-3.69,0-4.18a1.09,1.09,0,0,0-.42-1l-1-.8c.06-.13.13-.26.22-.42s.18-.29.26-.41l1.21.5a1.06,1.06,0,0,0,1.11-.16C39,6.2,41.76,4.6,42.21,4.39a1.09,1.09,0,0,0,.69-.88l.17-1.3a3.94,3.94,0,0,1,1,0L44.2,3.5a1.1,1.1,0,0,0,.7.89c.44.21,3.2,1.81,3.61,2.08a1.09,1.09,0,0,0,1.11.16l1.21-.5a4.94,4.94,0,0,1,.48.84l-1,.79a1.11,1.11,0,0,0-.42,1c0,.49,0,3.69,0,4.18a1.11,1.11,0,0,0,.42,1l1,.79-.23.43a3.66,3.66,0,0,1-.26.41l-1.21-.51a1.11,1.11,0,0,0-1.11.16c-.41.28-3.17,1.87-3.62,2.09a1.09,1.09,0,0,0-.69.88L44,19.57a5.24,5.24,0,0,1-1,0l-.17-1.3a1.1,1.1,0,0,0-.69-.88c-.44-.21-3.21-1.81-3.62-2.09a1.08,1.08,0,0,0-1.11-.15l-1.21.5a4.94,4.94,0,0,1-.48-.84Z"/>
          <path d="M41.68,14.13a3.74,3.74,0,1,0,3.74-6.48,3.74,3.74,0,0,0-3.74,6.48Zm2.65-4.59a1.55,1.55,0,0,1,.73,1,1.53,1.53,0,0,1-.16,1.18,1.56,1.56,0,1,1-2.7-1.56,1.58,1.58,0,0,1,.95-.73,1.83,1.83,0,0,1,.4-.05A1.55,1.55,0,0,1,44.33,9.54Z"/>
          <path d="M53.73,44.67c0-1,0-2.49,0-3.46l1.26-1A1.08,1.08,0,0,0,55.35,39a7.92,7.92,0,0,0-1.65-2.87,1.1,1.1,0,0,0-1.26-.3L51,36.46c-.82-.51-2.15-1.28-3-1.74l-.2-1.56a1.1,1.1,0,0,0-.89-.94,8.2,8.2,0,0,0-3.31,0,1.08,1.08,0,0,0-.89.94l-.2,1.56c-.85.45-2.18,1.22-3,1.73l-1.45-.61a1.12,1.12,0,0,0-1.27.32A8.09,8.09,0,0,0,35.14,39a1.09,1.09,0,0,0,.36,1.24l1.26,1c0,1,0,2.5,0,3.46l-1.26,1a1.09,1.09,0,0,0-.36,1.24,8.07,8.07,0,0,0,1.65,2.87,1.11,1.11,0,0,0,1.26.3l1.45-.61c.82.51,2.15,1.28,3,1.73l.2,1.57a1.08,1.08,0,0,0,.89.93,8.54,8.54,0,0,0,1.64.17,8.75,8.75,0,0,0,1.67-.17,1.08,1.08,0,0,0,.89-.94l.2-1.56c.85-.45,2.18-1.22,3-1.73l1.45.61a1.13,1.13,0,0,0,1.27-.31,9.28,9.28,0,0,0,1-1.34,8.22,8.22,0,0,0,.67-1.52A1.08,1.08,0,0,0,55,45.63Zm-1.2,3-1.22-.51a1.07,1.07,0,0,0-1.1.16c-.41.27-3.18,1.87-3.62,2.08a1.1,1.1,0,0,0-.69.89l-.17,1.3a5.24,5.24,0,0,1-1,0l-.17-1.3a1.09,1.09,0,0,0-.69-.88c-.44-.22-3.21-1.82-3.62-2.09a1.07,1.07,0,0,0-1.1-.16L38,47.71a4.75,4.75,0,0,1-.48-.85l1-.79a1.08,1.08,0,0,0,.41-1c0-.49,0-3.68,0-4.17a1.07,1.07,0,0,0-.41-1L37.48,39a4.8,4.8,0,0,1,.23-.43,3.66,3.66,0,0,1,.26-.41l1.21.51a1.09,1.09,0,0,0,1.11-.16c.4-.28,3.17-1.87,3.61-2.09a1.07,1.07,0,0,0,.69-.88l.17-1.3a5.24,5.24,0,0,1,1,0l.17,1.3a1.09,1.09,0,0,0,.69.88c.44.22,3.21,1.81,3.62,2.09a1.09,1.09,0,0,0,1.1.16l1.21-.51A5.1,5.1,0,0,1,53,39l-1,.8a1.07,1.07,0,0,0-.41,1c0,.49,0,3.68,0,4.17a1.1,1.1,0,0,0,.41,1l1,.8c-.06.13-.13.26-.22.43Z"/>
          <path d="M47.12,39.7a3.74,3.74,0,1,0-1.88,7,3.6,3.6,0,0,0,1-.13,3.74,3.74,0,0,0,.91-6.86Zm-.52,4a1.58,1.58,0,0,1-1,.73,1.55,1.55,0,0,1-1.75-2.28,1.5,1.5,0,0,1,.94-.73,1.44,1.44,0,0,1,.41,0,1.61,1.61,0,0,1,.77.2A1.57,1.57,0,0,1,46.6,43.72Z"/>
        </g>
      </g>
    </g>
  </g>
</svg>
