<?xml version="1.0" encoding="utf-8"?>
<!-- Generator: Adobe Illustrator 24.2.1, SVG Export Plug-In . SVG Version: 6.00 Build 0)  -->
<svg version="1.1" id="圖層_1" xmlns="http://www.w3.org/2000/svg" xmlns:xlink="http://www.w3.org/1999/xlink" x="0px" y="0px"
	 width="40px" height="40px" viewBox="0 0 40 40" style="enable-background:new 0 0 40 40;" xml:space="preserve">
<style type="text/css">
	.st0{fill:#6868AB;}
</style>
<g>
	<g>
		<path class="st0" d="M20,23.9c-2.1,0-3.9-1.7-3.9-3.9c0-2.1,1.7-3.9,3.9-3.9s3.9,1.7,3.9,3.9C23.9,22.1,22.1,23.9,20,23.9z
			 M20,17.8c-1.2,0-2.2,1-2.2,2.2s1,2.2,2.2,2.2s2.2-1,2.2-2.2S21.2,17.8,20,17.8z"/>
	</g>
	<path class="st0" d="M7.6,35.3c-0.2,0-0.4-0.1-0.6-0.2C2.6,31.3,0,25.8,0,20C0,14.2,2.6,8.7,7,4.9C7.4,4.6,7.9,4.6,8.2,5
		c0.3,0.4,0.3,0.9-0.1,1.2c-4,3.5-6.4,8.5-6.4,13.8c0,5.3,2.3,10.3,6.4,13.8c0.4,0.3,0.4,0.9,0.1,1.2C8,35.2,7.8,35.3,7.6,35.3z"/>
	<path class="st0" d="M32.4,35.3c-0.2,0-0.5-0.1-0.7-0.3c-0.3-0.4-0.3-0.9,0.1-1.2c4-3.5,6.4-8.5,6.4-13.8c0-5.3-2.3-10.3-6.4-13.8
		c-0.4-0.3-0.4-0.9-0.1-1.2c0.3-0.4,0.9-0.4,1.2-0.1c4.4,3.8,7,9.3,7,15.1c0,5.8-2.5,11.3-7,15.1C32.8,35.3,32.6,35.3,32.4,35.3z"/>
	<path class="st0" d="M11,31.3c-0.2,0-0.4-0.1-0.6-0.2C7.2,28.3,5.3,24.3,5.3,20s1.9-8.3,5.1-11.1c0.4-0.3,0.9-0.3,1.2,0.1
		c0.3,0.4,0.3,0.9-0.1,1.2C8.7,12.7,7,16.2,7,20s1.6,7.3,4.5,9.8c0.4,0.3,0.4,0.9,0.1,1.2C11.5,31.2,11.2,31.3,11,31.3z"/>
	<path class="st0" d="M29,31.3c-0.2,0-0.5-0.1-0.7-0.3c-0.3-0.4-0.3-0.9,0.1-1.2c2.9-2.5,4.5-6,4.5-9.8c0-3.8-1.6-7.3-4.5-9.8
		C28.1,9.9,28,9.3,28.4,9c0.3-0.4,0.9-0.4,1.2-0.1c3.2,2.8,5.1,6.9,5.1,11.1c0,4.3-1.9,8.3-5.1,11.1C29.4,31.3,29.2,31.3,29,31.3z"
		/>
	<path class="st0" d="M14.4,27.3c-0.2,0-0.4-0.1-0.6-0.2c-2.1-1.8-3.3-4.4-3.3-7.1c0-2.7,1.2-5.3,3.3-7.1c0.4-0.3,0.9-0.3,1.2,0.1
		c0.3,0.4,0.3,0.9-0.1,1.2c-1.7,1.5-2.7,3.6-2.7,5.8c0,2.2,1,4.4,2.7,5.8c0.4,0.3,0.4,0.9,0.1,1.2C14.9,27.2,14.7,27.3,14.4,27.3z"
		/>
	<path class="st0" d="M25.6,27.3c-0.2,0-0.5-0.1-0.7-0.3c-0.3-0.4-0.3-0.9,0.1-1.2c1.7-1.5,2.7-3.6,2.7-5.8s-1-4.4-2.7-5.8
		c-0.4-0.3-0.4-0.9-0.1-1.2c0.3-0.4,0.9-0.4,1.2-0.1c2.1,1.8,3.3,4.4,3.3,7.1c0,2.7-1.2,5.3-3.3,7.1C26,27.3,25.8,27.3,25.6,27.3z"
		/>
</g>
</svg>
