<svg xmlns="http://www.w3.org/2000/svg" width="51.54" height="56.03" viewBox="0 0 51.54 56.03">
  <defs>
    <style>
      .cls-1 {
        fill: #6868ac;
      }

      .cls-2 {
        fill: #fff;
      }
    </style>
  </defs>
  <g id="圖層_2" data-name="圖層 2">
    <g id="圖層_1-2" data-name="圖層 1">
      <g>
        <path class="cls-1" d="M28.31,20.75A2.27,2.27,0,1,0,30.58,23,2.28,2.28,0,0,0,28.31,20.75Z"/>
        <path class="cls-1" d="M33.47,13.22a1.09,1.09,0,0,1,.5,1.47l-.89,1.78a2.27,2.27,0,1,0-2-1L32,13.71A1.1,1.1,0,0,1,33.47,13.22Z"/>
        <path class="cls-1" d="M33,16.48h.1L34,14.69a1.1,1.1,0,0,0-2-1l-.89,1.78A2.27,2.27,0,0,0,33,16.48Z"/>
        <path class="cls-1" d="M20.82,30.13a1.11,1.11,0,0,1-.86-.41,1.09,1.09,0,0,1,.17-1.54l1.54-1.25a2.19,2.19,0,0,0-.85-.17A2.28,2.28,0,1,0,23.09,29a1.72,1.72,0,0,0,0-.39l-1.54,1.25A1.11,1.11,0,0,1,20.82,30.13Z"/>
        <path class="cls-1" d="M21.67,26.93l-1.54,1.25A1.09,1.09,0,0,0,20,29.72a1.11,1.11,0,0,0,1.55.17l1.54-1.25A2.26,2.26,0,0,0,21.67,26.93Z"/>
        <g>
          <path class="cls-2" d="M27.67,2.2A21.71,21.71,0,0,0,6.05,22.38,12.53,12.53,0,0,1,5.25,26l-3,7.71,5.34.45a2.09,2.09,0,0,1,1.88,1.72l.21.81a1.1,1.1,0,0,1,0,.57l-.32,1.17a7.26,7.26,0,0,1,.46.59c.58.81.68,3.14.66,5l.19.89a.57.57,0,0,0,.54.55h0l7.6-.25h.08a2.41,2.41,0,0,1,2.41,2.41v6.13l17.92.07.07-7.92a7.83,7.83,0,0,1,2.51-5.69,25.52,25.52,0,0,0,7.53-18C49.34,10.82,40,2.2,27.67,2.2ZM36.36,27a2.89,2.89,0,0,1-2.78-2.11l-1.15-.13a4.5,4.5,0,0,1-2,2.15l.71,2.71a3.18,3.18,0,1,1-2.13.55l-.71-2.68h0a4.44,4.44,0,0,1-2.7-.92l-.74.6a4.46,4.46,0,1,1-4.05-2.61,4.4,4.4,0,0,1,2.66.9l.76-.61A4.34,4.34,0,0,1,23.83,23a4.78,4.78,0,0,1,.07-.65l-2.76-1.25a3.16,3.16,0,0,1-2.27.95,3.2,3.2,0,1,1,3.2-3.2,2,2,0,0,1,0,.24l2.71,1.23a4.51,4.51,0,0,1,.9-.9l-1.06-2.65a2.9,2.9,0,1,1,2.93-2.9A2.87,2.87,0,0,1,26.63,16l1.05,2.64a4.34,4.34,0,0,1,.63-.06,4.28,4.28,0,0,1,1.19.18l.58-1.16A4.44,4.44,0,1,1,33,18.68a4.17,4.17,0,0,1-.94-.11l-.62,1.25a4.41,4.41,0,0,1,1.31,2.76l1.11.13A2.89,2.89,0,1,1,36.36,27Z"/>
          <path class="cls-2" d="M29.88,32.79a1,1,0,1,0,1-1A1,1,0,0,0,29.88,32.79Z"/>
          <path class="cls-2" d="M18.87,17.87a1,1,0,1,0,1,1A1,1,0,0,0,18.87,17.87Z"/>
          <circle class="cls-2" cx="24.62" cy="13.89" r="0.7"/>
          <circle class="cls-2" cx="36.36" cy="24.11" r="0.7"/>
        </g>
        <g>
          <path d="M27.67,0A23.93,23.93,0,0,0,3.85,22.23a10.1,10.1,0,0,1-.65,3L.14,33.06a2.09,2.09,0,0,0,1.77,2.83l5.41.45v0l.15.58-.41,1.51a1.15,1.15,0,0,0,.41,1.18,3,3,0,0,1,.52.59,16.84,16.84,0,0,1,.28,3.89,1.94,1.94,0,0,0,0,.24l.21.93a2.74,2.74,0,0,0,2.72,2.37h0l7.63-.25a.22.22,0,0,1,.16.06.21.21,0,0,1,.06.15v6.13A2.27,2.27,0,0,0,21.38,56H39.23a2.27,2.27,0,0,0,2.27-2.27V45.91a5.61,5.61,0,0,1,1.81-4.08c5-4.64,8.23-12.33,8.23-19.57C51.54,9.57,41.27,0,27.67,0ZM39.23,53.83l-17.92-.07V47.63a2.41,2.41,0,0,0-2.41-2.41h-.08l-7.6.25h0a.57.57,0,0,1-.54-.55L10.48,44c0-1.87-.08-4.2-.66-5a7.26,7.26,0,0,0-.46-.59l.32-1.17a1.1,1.1,0,0,0,0-.57l-.21-.81a2.09,2.09,0,0,0-1.88-1.72l-5.34-.45,3-7.71a12.53,12.53,0,0,0,.8-3.62A21.71,21.71,0,0,1,27.67,2.2C40,2.2,49.34,10.82,49.34,22.26a25.52,25.52,0,0,1-7.53,18,7.83,7.83,0,0,0-2.51,5.69Z"/>
          <path d="M36.36,21.21a2.89,2.89,0,0,0-2.52,1.5l-1.11-.13a4.41,4.41,0,0,0-1.31-2.76L32,18.57a4.17,4.17,0,0,0,.94.11,4.55,4.55,0,1,0-2.9-1.11l-.58,1.16a4.28,4.28,0,0,0-1.19-.18,4.34,4.34,0,0,0-.63.06L26.63,16a2.87,2.87,0,0,0,.89-2.08,2.9,2.9,0,1,0-2.93,2.9l1.06,2.65a4.51,4.51,0,0,0-.9.9L22,19.11a2,2,0,0,0,0-.24,3.21,3.21,0,1,0-3.2,3.2,3.16,3.16,0,0,0,2.27-.95l2.76,1.25a4.78,4.78,0,0,0-.07.65,4.34,4.34,0,0,0,.41,1.83l-.76.61a4.4,4.4,0,0,0-2.66-.9,4.51,4.51,0,1,0,4.05,2.61l.74-.6a4.44,4.44,0,0,0,2.7.92h0l.71,2.68a3.21,3.21,0,1,0,2.13-.55l-.71-2.71a4.5,4.5,0,0,0,2-2.15l1.15.13a2.89,2.89,0,1,0,2.78-3.68Zm-5.65-7a2.28,2.28,0,1,1,2.37,2.27H33a2.28,2.28,0,0,1-2.27-2.28Zm-6.09-1a.7.7,0,1,1-.69.69A.69.69,0,0,1,24.62,13.2Zm-5.75,6.68a1,1,0,1,1,0-2,1,1,0,0,1,0,2Zm13,12.91a1,1,0,1,1-1-1A1,1,0,0,1,31.88,32.79Zm4.48-9.38a.7.7,0,1,1-.7.7A.69.69,0,0,1,36.36,23.41ZM26,23a2.28,2.28,0,1,1,2.28,2.27A2.28,2.28,0,0,1,26,23Zm-2.94,6a2.28,2.28,0,1,1-2.27-2.27,2.19,2.19,0,0,1,.85.17,2.26,2.26,0,0,1,1.38,1.71A1.72,1.72,0,0,1,23.09,29Z"/>
        </g>
      </g>
    </g>
  </g>
</svg>
