<?xml version="1.0" encoding="utf-8"?>
<!-- Generator: Adobe Illustrator 24.2.1, SVG Export Plug-In . SVG Version: 6.00 Build 0)  -->
<svg version="1.1" id="圖層_1" xmlns="http://www.w3.org/2000/svg" xmlns:xlink="http://www.w3.org/1999/xlink" x="0px" y="0px"
	 width="15.7px" height="17px" viewBox="0 0 15.7 17" style="enable-background:new 0 0 15.7 17;" xml:space="preserve">
<style type="text/css">
	.st0{fill:#737D82;}
</style>
<path class="st0" d="M0.5,0.8L0.5,0.8c-0.7,0.7-0.7,1.7,0,2.4l4.1,4.1C5.3,8,5.3,9,4.6,9.7l-4.1,4.1c-0.7,0.7-0.7,1.7,0,2.4l0,0
	c0.7,0.7,1.7,0.7,2.4,0l6.5-6.5C10,9,10,8,9.3,7.3L2.8,0.8C2.2,0.2,1.1,0.2,0.5,0.8z"/>
<path class="st0" d="M14.1,0c0.9,0,1.6,0.7,1.6,1.6v13.8c0,0.9-0.7,1.6-1.6,1.6s-1.6-0.7-1.6-1.6V1.6C12.5,0.7,13.2,0,14.1,0z"/>
</svg>
