<?xml version="1.0" encoding="utf-8"?>
<!-- Generator: Adobe Illustrator 24.2.1, SVG Export Plug-In . SVG Version: 6.00 Build 0)  -->
<svg version="1.1" id="圖層_1" xmlns="http://www.w3.org/2000/svg" xmlns:xlink="http://www.w3.org/1999/xlink" x="0px" y="0px"
	 width="77.1px" height="70px" viewBox="0 0 77.1 70" style="enable-background:new 0 0 77.1 70;" xml:space="preserve">
<style type="text/css">
	.st0{fill:none;stroke:#FFFFFF;stroke-width:2.1805;stroke-linecap:round;stroke-linejoin:round;stroke-miterlimit:10;}
</style>
<g>
	<path class="st0" d="M40,31.4c0,2.6-2.1,4.7-4.7,4.7c-2.6,0-4.7-2.1-4.7-4.7s2.1-4.7,4.7-4.7C37.9,26.7,40,28.8,40,31.4z"/>
	<circle class="st0" cx="19.5" cy="6.7" r="4.7"/>
	<path class="st0" d="M75.2,9.6c0,2.6-2.1,4.7-4.7,4.7s-4.7-2.1-4.7-4.7c0-2.6,2.1-4.7,4.7-4.7S75.2,7,75.2,9.6z"/>
	<circle class="st0" cx="71.3" cy="51.5" r="4.7"/>
	<path class="st0" d="M26.5,63.3c0,2.6-2.1,4.7-4.7,4.7c-2.6,0-4.7-2.1-4.7-4.7c0-2.6,2.1-4.7,4.7-4.7
		C24.4,58.6,26.5,60.7,26.5,63.3z"/>
	<circle class="st0" cx="5.8" cy="35" r="4.7"/>
	<line class="st0" x1="28.9" y1="21.7" x2="25.3" y2="15.8"/>
	<line class="st0" x1="62.2" y1="17.1" x2="45.8" y2="25.5"/>
	<line class="st0" x1="31.3" y1="41.5" x2="26.8" y2="53.3"/>
	<line class="st0" x1="16.6" y1="34.1" x2="23.8" y2="33.3"/>
	<line class="st0" x1="45" y1="36.7" x2="61.4" y2="46.2"/>
</g>
</svg>
