<?xml version="1.0" encoding="utf-8"?>
<!-- Generator: Adobe Illustrator 24.2.1, SVG Export Plug-In . SVG Version: 6.00 Build 0)  -->
<svg version="1.1" id="圖層_1" xmlns="http://www.w3.org/2000/svg" xmlns:xlink="http://www.w3.org/1999/xlink" x="0px" y="0px"
	 width="25px" height="25.9px" viewBox="0 0 25 25.9" style="enable-background:new 0 0 25 25.9;" xml:space="preserve">
<g id="圖層_2_1_">
	<g id="圖層_1-2">
		<g>
			<path d="M25,9.3V5.1c0-1.6-1.3-2.9-2.9-2.9h-1.4v3.2c0,0.8-0.7,1.5-1.5,1.5l0,0h-2.6c-0.8,0-1.5-0.7-1.5-1.5V2.3H9.9v3.1
				c0,0.8-0.7,1.5-1.5,1.5H5.8c-0.8,0-1.5-0.7-1.5-1.5l0,0V2.3H2.9C1.3,2.3,0,3.6,0,5.1v4.2l0,0v13.5c0,1.7,1.4,3.1,3.1,3.1h18.7
				c1.7,0,3.1-1.4,3.1-3.1V9.3z M2.5,9.6L2.5,9.6V9.1h20.1v0.5l0,0v13.2c0,0.4-0.3,0.7-0.7,0.7H3.1c-0.4,0-0.7-0.3-0.7-0.7l0,0V9.6z
				"/>
			<polygon points="8.3,11.7 8.3,11.7 8.3,11.7 8.3,11.7 5.2,11.7 5.2,14.7 8.3,14.7 			"/>
			<rect x="11" y="11.7" width="3.1" height="3.1"/>
			<polygon points="16.8,14.7 16.8,14.7 19.8,14.7 19.8,11.7 16.8,11.7 16.8,14.7 			"/>
			<polygon points="8.3,17.2 8.3,17.2 8.3,17.2 8.3,17.2 5.2,17.2 5.2,20.2 8.3,20.2 			"/>
			<rect x="11" y="17.2" width="3.1" height="3"/>
			<polygon points="16.8,20.2 19.8,20.2 19.8,17.2 16.8,17.2 16.8,20.2 16.8,20.2 16.8,20.2 			"/>
			<path d="M5.8,5.9h2.6c0.2,0,0.4-0.2,0.4-0.4V1.4C8.8,0.6,8.2,0,7.5,0c0,0,0,0,0,0H6.7C5.9,0,5.3,0.6,5.3,1.4v4.1
				C5.3,5.7,5.5,5.9,5.8,5.9L5.8,5.9z"/>
			<path d="M16.6,5.9h2.6c0.2,0,0.4-0.2,0.4-0.4V1.4c0-0.7-0.6-1.4-1.4-1.4h-0.8c-0.8,0-1.4,0.6-1.4,1.4c0,0,0,0,0,0v4.1
				C16.2,5.7,16.4,5.9,16.6,5.9z"/>
		</g>
	</g>
</g>
</svg>
