<svg xmlns="http://www.w3.org/2000/svg" width="51.98" height="49.12" viewBox="0 0 51.98 49.12">
  <defs>
    <style>
      .cls-1 {
        fill: none;
      }

      .cls-2 {
        fill: #fff;
      }

      .cls-3 {
        fill: #737d82;
      }
    </style>
  </defs>
  <g id="圖層_2" data-name="圖層 2">
    <g id="圖層_1-2" data-name="圖層 1">
      <g>
        <path class="cls-1" d="M8.51,25.68c-.13,0-.51,0-.51.64v2.33c0,.63.38.63.51.63.32,0,.49-.21.49-.63V26.32C9,25.9,8.83,25.68,8.51,25.68Z"/>
        <path class="cls-1" d="M8.05,5.21c.33,0,.5-.21.5-.63V2.25c0-.42-.17-.64-.5-.64-.12,0-.5,0-.5.64V4.58C7.55,5,7.72,5.21,8.05,5.21Z"/>
        <path class="cls-1" d="M8.51,9.78q-.51,0-.51.63v2.34c0,.63.38.63.51.63.32,0,.49-.21.49-.63V10.41C9,10,8.83,9.78,8.51,9.78Z"/>
        <path class="cls-1" d="M2.24,9.78q-.51,0-.51.63v2.34c0,.63.38.63.51.63.32,0,.49-.21.49-.63V10.41C2.73,10,2.56,9.78,2.24,9.78Z"/>
        <path class="cls-1" d="M31.46,5.21c.32,0,.49-.21.49-.63V2.25c0-.42-.17-.64-.49-.64-.13,0-.51,0-.51.64V4.58Q31,5.21,31.46,5.21Z"/>
        <path class="cls-1" d="M14.75,5.21c.33,0,.5-.21.5-.63V2.25c0-.42-.17-.64-.5-.64-.12,0-.5,0-.5.64V4.58C14.25,5.21,14.63,5.21,14.75,5.21Z"/>
        <path class="cls-1" d="M2.24,25.68c-.13,0-.51,0-.51.64v2.33c0,.63.38.63.51.63.32,0,.49-.21.49-.63V26.32C2.73,25.9,2.56,25.68,2.24,25.68Z"/>
        <path class="cls-1" d="M8.05,21.11c.33,0,.5-.21.5-.63V18.15c0-.42-.17-.64-.5-.64-.12,0-.5,0-.5.64v2.33C7.55,21.11,7.93,21.11,8.05,21.11Z"/>
        <g>
          <path class="cls-2" d="M1,2.44a.42.42,0,0,0,.39,0l.26-.19V6.38A.38.38,0,0,0,2,6.75H3a.37.37,0,0,0,.37-.37V.45A.36.36,0,0,0,3,.08H2.1a.33.33,0,0,0-.21.07L1,.8a.37.37,0,0,0-.16.3v1A.38.38,0,0,0,1,2.44Z"/>
          <path class="cls-2" d="M8.05,6.83a2.11,2.11,0,0,0,2.24-2.19V2.18A2.07,2.07,0,0,0,8.05,0,2.08,2.08,0,0,0,5.81,2.19V4.64A2.11,2.11,0,0,0,8.05,6.83Zm-.5-2.25V2.25c0-.64.38-.64.5-.64.33,0,.5.22.5.64V4.58c0,.42-.17.63-.5.63S7.55,5,7.55,4.58Z"/>
          <path class="cls-2" d="M2.24,8.17A2.08,2.08,0,0,0,0,10.36v2.45A2.09,2.09,0,0,0,2.24,15a2.09,2.09,0,0,0,2.23-2.18V10.35A2.07,2.07,0,0,0,2.24,8.17Zm-.51,2.24q0-.63.51-.63c.32,0,.49.21.49.63v2.34c0,.42-.17.63-.49.63-.13,0-.51,0-.51-.63Z"/>
          <path class="cls-2" d="M8.51,8.17a2.08,2.08,0,0,0-2.24,2.19v2.45A2.09,2.09,0,0,0,8.51,15a2.09,2.09,0,0,0,2.23-2.18V10.35A2.07,2.07,0,0,0,8.51,8.17ZM9,10.41v2.34c0,.42-.17.63-.49.63-.13,0-.51,0-.51-.63V10.41q0-.63.51-.63C8.83,9.78,9,10,9,10.41Z"/>
          <path class="cls-2" d="M14.75,6.83A2.1,2.1,0,0,0,17,4.64V2.18A2.07,2.07,0,0,0,14.75,0a2.07,2.07,0,0,0-2.23,2.19V4.64A2.1,2.1,0,0,0,14.75,6.83Zm-.5-2.25V2.25c0-.64.38-.64.5-.64.33,0,.5.22.5.64V4.58c0,.42-.17.63-.5.63C14.63,5.21,14.25,5.21,14.25,4.58Z"/>
          <path class="cls-2" d="M19.23,2.44a.39.39,0,0,0,.38,0l.27-.19V6.38a.38.38,0,0,0,.37.37h1a.38.38,0,0,0,.37-.37V.45a.37.37,0,0,0-.37-.37h-.94a.36.36,0,0,0-.22.07L19.18.8a.38.38,0,0,0-.15.3v1A.38.38,0,0,0,19.23,2.44Z"/>
          <path class="cls-2" d="M24.43,2.44a.39.39,0,0,0,.38,0l.27-.19V6.38a.37.37,0,0,0,.37.37h1a.38.38,0,0,0,.37-.37V.45a.37.37,0,0,0-.37-.37h-.94a.36.36,0,0,0-.22.07L24.38.8a.36.36,0,0,0-.15.3v1A.36.36,0,0,0,24.43,2.44Z"/>
          <path class="cls-2" d="M31.46,6.83a2.1,2.1,0,0,0,2.23-2.19V2.18A2.07,2.07,0,0,0,31.46,0a2.08,2.08,0,0,0-2.24,2.19V4.64A2.1,2.1,0,0,0,31.46,6.83ZM31,4.58V2.25c0-.64.38-.64.51-.64.32,0,.49.22.49.64V4.58c0,.42-.17.63-.49.63S31,5,31,4.58Z"/>
          <path class="cls-2" d="M14.07,14.58c.13-.16.24-.33.37-.48l.37-.41c.08-.09.17-.18.25-.28s.24-.27.37-.41l.38-.37v-4a.37.37,0,0,0-.38-.37H14.5a.34.34,0,0,0-.22.07L13.37,9a.37.37,0,0,0-.16.3v1a.38.38,0,0,0,.2.33.39.39,0,0,0,.39,0l.26-.18v4.14S14.07,14.57,14.07,14.58Z"/>
          <path class="cls-2" d="M18.78,10.25l.34-.2.51-.32c.12-.06.22-.14.33-.2l.3-.15.37-.18L21,9v-.4a.36.36,0,0,0-.37-.37h-.94a.33.33,0,0,0-.21.07L18.57,9a.37.37,0,0,0-.16.3v1a.34.34,0,0,0,.05.17Z"/>
          <path class="cls-2" d="M2,22.65H3a.37.37,0,0,0,.37-.37V16.35A.37.37,0,0,0,3,16H2.1a.33.33,0,0,0-.21.07L1,16.7a.37.37,0,0,0-.16.3v1a.38.38,0,0,0,.2.33.37.37,0,0,0,.39,0l.26-.19v4.15A.38.38,0,0,0,2,22.65Z"/>
          <path class="cls-2" d="M8.05,22.73a2.11,2.11,0,0,0,2.24-2.19V18.09A2.08,2.08,0,0,0,8.05,15.9a2.08,2.08,0,0,0-2.24,2.19v2.45A2.11,2.11,0,0,0,8.05,22.73Zm-.5-2.25V18.15c0-.64.38-.64.5-.64.33,0,.5.22.5.64v2.33c0,.42-.17.63-.5.63C7.93,21.11,7.55,21.11,7.55,20.48Z"/>
          <path class="cls-2" d="M2.24,24.07A2.08,2.08,0,0,0,0,26.26v2.45A2.1,2.1,0,0,0,2.24,30.9a2.1,2.1,0,0,0,2.23-2.19V26.25A2.07,2.07,0,0,0,2.24,24.07Zm-.51,2.25c0-.64.38-.64.51-.64.32,0,.49.22.49.64v2.33c0,.42-.17.63-.49.63-.13,0-.51,0-.51-.63Z"/>
          <path class="cls-2" d="M10,26.29c0-.36,0-.72.06-1.08,0-.18,0-.37,0-.56a2.28,2.28,0,0,0-1.61-.58,2.08,2.08,0,0,0-2.24,2.19v2.45A2.1,2.1,0,0,0,8.51,30.9,2.22,2.22,0,0,0,10.39,30c0-.23-.07-.46-.1-.68A19.67,19.67,0,0,1,10,26.29Zm-1,0v2.33c0,.42-.17.63-.49.63-.13,0-.51,0-.51-.63V26.32c0-.64.38-.64.51-.64C8.83,25.68,9,25.9,9,26.32Z"/>
          <path class="cls-2" d="M34.14,10.27l-.38-.1-.39-.1L33.09,10l-.42-.11c-.46-.09-.92-.16-1.39-.22l-.39-.06-.29,0-.41,0-.38,0-.66,0c-.47,0-.93,0-1.39.07l-.39,0L27,9.67l-.27,0-.39.06-.45.07c-.22,0-.43.1-.64.16l-.43.11-.38.09-.27.07-.38.14-.37.14A16.9,16.9,0,0,0,21,11.64l-.37.23-.37.22-.25.15-.38.25-.37.28a16.8,16.8,0,0,0-3.43,3.36l-.23.31c-.07.1-.16.2-.23.31l-.09.12c-.08.11-.14.22-.21.33l-.2.34c-.22.35-.43.7-.62,1.07s-.25.52-.37.78-.26.59-.37.89-.15.39-.22.58-.13.38-.19.58-.09.33-.13.5a16.43,16.43,0,0,0-.59,4.35,16.78,16.78,0,1,0,21.76-16Zm-5,29.36A13.36,13.36,0,0,1,15.81,26.29a13.21,13.21,0,0,1,.76-4.38c.12-.34.24-.68.39-1A13.28,13.28,0,0,1,19,17.63l.37-.41c.25-.27.52-.53.79-.78s.34-.32.51-.46a13.48,13.48,0,0,1,3.08-1.89l.35-.15.38-.14.21-.07.4-.15a12.28,12.28,0,0,1,1.29-.34l.41-.07.28,0c.13,0,.25-.05.38-.06l.38-.05c.42,0,.85-.07,1.29-.07l.54,0,.38,0,.37,0,.27,0,.38.06.41.06.67.14.42.11.36.09.26.08.35.13.36.13a13.33,13.33,0,0,1-4.77,25.78Z"/>
          <path class="cls-2" d="M32.44,25h0a.86.86,0,0,0-.7.3,1.19,1.19,0,0,0-.2.51,1.73,1.73,0,0,0,0,.32v3.48a1.8,1.8,0,0,0,0,.31.8.8,0,0,0,0,.15,1,1,0,0,0,.21.4A.92.92,0,0,0,33.33,30c0-.11,0-.22,0-.31V26.17C33.35,25.75,33.23,25.05,32.44,25Z"/>
          <path class="cls-2" d="M23.64,25.21a.88.88,0,0,0-.55-.17c-.81,0-.93.71-.93,1.13v3.48c0,.42.12,1.12.93,1.12a.81.81,0,0,0,.84-.59,1.71,1.71,0,0,0,.08-.53h0V26.17a1.6,1.6,0,0,0-.11-.62A.86.86,0,0,0,23.64,25.21Z"/>
          <path class="cls-2" d="M31.75,18.6l.2,0a.75.75,0,0,0,.37-.17,1,1,0,0,0,.33-.6,1.94,1.94,0,0,0,0-.33v-1.6a10.19,10.19,0,0,0-1.85-.44v2a1.57,1.57,0,0,0,.13.65A.82.82,0,0,0,31.75,18.6Z"/>
          <path class="cls-2" d="M34.9,16.94v.63a2.95,2.95,0,0,1-1.58,2.71,2.43,2.43,0,0,1-.37.16l-.26.07c-.12,0-.25.07-.38.09l-.38,0h-.18a3.56,3.56,0,0,1-.79-.1,2.34,2.34,0,0,1-.38-.09,2.43,2.43,0,0,1-.37-.16L30,20.16a3.19,3.19,0,0,1-.38-.26,3.41,3.41,0,0,1-.37-.39,3.08,3.08,0,0,1-.61-1.94V15.32a11.11,11.11,0,0,0-3.95.94v3.89a.36.36,0,0,1-.37.37H22.81a.37.37,0,0,1-.38-.37V17.61q-.42.33-.81.69l-.37.36-.37.42-.26.28c-.13.16-.25.33-.37.5s-.25.36-.37.55a10.86,10.86,0,0,0-1.72,5.88A11,11,0,1,0,34.9,16.94ZM23.09,32.81a3,3,0,0,1-3-2c0-.12-.08-.24-.11-.37a4.07,4.07,0,0,1-.07-.71V26.09a5.07,5.07,0,0,1,0-.56,2.73,2.73,0,0,1,.16-.64,1.76,1.76,0,0,1,.17-.37,2.3,2.3,0,0,1,.23-.37A3.07,3.07,0,0,1,23.09,23a3.07,3.07,0,0,1,2.49,1.08,2.81,2.81,0,0,1,.26.38,2.12,2.12,0,0,1,.19.4c0,.05,0,.11,0,.16a2.61,2.61,0,0,1,.11.5,3.33,3.33,0,0,1,0,.56v3.66c0,.05,0,.09,0,.14a1.1,1.1,0,0,1,0,.18,2.71,2.71,0,0,1,0,.4c0,.14-.08.27-.12.4A3,3,0,0,1,23.09,32.81Zm12.49-3.07a3,3,0,0,1-3.15,3.07,3,3,0,0,1-3.15-3.07V26.09A2.93,2.93,0,0,1,32.43,23a2.92,2.92,0,0,1,3.15,3.08Z"/>
        </g>
        <g>
          <path class="cls-3" d="M22.81,20.52h1.48a.36.36,0,0,0,.37-.37V16.26l-.37.18c-.12.07-.25.12-.37.18s-.5.3-.74.45-.25.17-.37.26l-.38.28v2.54A.37.37,0,0,0,22.81,20.52Z"/>
          <path class="cls-3" d="M30,20.16l.24.13a2.43,2.43,0,0,0,.37.16,2.34,2.34,0,0,0,.38.09,3.56,3.56,0,0,0,.79.1h.18l.38,0c.13,0,.26-.06.38-.09l.26-.07a2.43,2.43,0,0,0,.37-.16,2.95,2.95,0,0,0,1.58-2.71v-.63c-.12-.08-.24-.16-.37-.23l-.37-.2c-.25-.12-.49-.25-.74-.35L33.05,16l-.38-.14v1.6a1.94,1.94,0,0,1,0,.33,1,1,0,0,1-.33.6.75.75,0,0,1-.37.17l-.2,0a.82.82,0,0,1-.8-.47,1.57,1.57,0,0,1-.13-.65v-2c-.12,0-.24,0-.37-.06l-.37,0c-.24,0-.48,0-.73,0H29l-.37,0v2.25a3.08,3.08,0,0,0,.61,1.94,3.41,3.41,0,0,0,.37.39A3.19,3.19,0,0,0,30,20.16Z"/>
          <path class="cls-3" d="M26.08,25c0-.05,0-.11,0-.16a2.12,2.12,0,0,0-.19-.4,2.81,2.81,0,0,0-.26-.38A3.07,3.07,0,0,0,23.09,23a3.07,3.07,0,0,0-2.54,1.15,2.3,2.3,0,0,0-.23.37,1.76,1.76,0,0,0-.17.37,2.73,2.73,0,0,0-.16.64,5.07,5.07,0,0,0,0,.56v3.65a4.07,4.07,0,0,0,.07.71c0,.13.07.25.11.37a3,3,0,0,0,3,2,3,3,0,0,0,3-2c0-.13.09-.26.12-.4a2.71,2.71,0,0,0,0-.4,1.1,1.1,0,0,0,0-.18c0-.05,0-.09,0-.14V26.08a3.33,3.33,0,0,0,0-.56A2.61,2.61,0,0,0,26.08,25Zm-2.15,5.16a.81.81,0,0,1-.84.59c-.81,0-.93-.7-.93-1.12V26.17c0-.42.12-1.13.93-1.13a.88.88,0,0,1,.55.17.86.86,0,0,1,.26.34,1.6,1.6,0,0,1,.11.62v3.48h0A1.71,1.71,0,0,1,23.93,30.18Z"/>
          <path class="cls-3" d="M32.43,23a2.93,2.93,0,0,0-3.15,3.09v3.65a3,3,0,0,0,3.15,3.07,3,3,0,0,0,3.15-3.07V26.08A2.92,2.92,0,0,0,32.43,23Zm0,7.77a.86.86,0,0,1-.66-.26,1,1,0,0,1-.21-.4.8.8,0,0,1,0-.15,1.8,1.8,0,0,1,0-.31V26.17a1.73,1.73,0,0,1,0-.32,1.19,1.19,0,0,1,.2-.51.86.86,0,0,1,.7-.3h0c.79,0,.91.71.91,1.13v3.48c0,.09,0,.2,0,.31A.86.86,0,0,1,32.43,30.77Z"/>
        </g>
        <g>
          <path d="M51.64,47.12l-8.19-8.18A19.08,19.08,0,0,0,21,9l-.37.18-.37.18-.3.15c-.11.06-.21.14-.33.2l-.51.32-.34.2-.32.2a19.08,19.08,0,0,0-2.65,2.18l-.38.37c-.13.14-.24.28-.37.41s-.17.19-.25.28l-.37.41c-.13.15-.24.32-.37.48a19,19,0,0,0-4,10.07c0,.19,0,.38,0,.56,0,.36-.06.72-.06,1.08a19.67,19.67,0,0,0,.26,3c0,.22.06.45.1.68A19.08,19.08,0,0,0,41.8,40.59L50,48.78a1.18,1.18,0,0,0,1.66,0A1.19,1.19,0,0,0,51.64,47.12ZM12.38,26.29A16.43,16.43,0,0,1,13,21.94c0-.17.08-.34.13-.5s.13-.39.19-.58.14-.39.22-.58.24-.6.37-.89.24-.52.37-.78.4-.72.62-1.07l.2-.34c.07-.11.13-.22.21-.33l.09-.12c.07-.11.16-.21.23-.31l.23-.31a16.8,16.8,0,0,1,3.43-3.36l.37-.28.38-.25.25-.15.37-.22.37-.23a16.9,16.9,0,0,1,2.41-1.09l.37-.14.38-.14.27-.07.38-.09.43-.11c.21-.06.42-.12.64-.16l.45-.07.39-.06.27,0,.38-.06.39,0c.46,0,.92-.07,1.39-.07l.66,0,.38,0,.41,0,.29,0,.39.06c.47.06.93.13,1.39.22l.42.11.28.07.39.1.38.1a16.78,16.78,0,1,1-21.76,16Z"/>
          <path d="M33.92,13.85l-.36-.13-.35-.13L33,13.51l-.36-.09-.42-.11-.67-.14-.41-.06-.38-.06-.27,0-.37,0-.38,0-.54,0c-.44,0-.87,0-1.29.07l-.38.05c-.13,0-.25,0-.38.06l-.28,0-.41.07a12.28,12.28,0,0,0-1.29.34l-.4.15-.21.07-.38.14-.35.15A13.48,13.48,0,0,0,20.7,16c-.17.14-.34.3-.51.46s-.54.51-.79.78l-.37.41A13.28,13.28,0,0,0,17,20.91c-.15.32-.27.66-.39,1a13.21,13.21,0,0,0-.76,4.38A13.34,13.34,0,1,0,33.92,13.85ZM18.16,26.29a10.86,10.86,0,0,1,1.72-5.88c.12-.19.24-.37.37-.55s.24-.34.37-.5l.26-.28.37-.42.37-.36q.39-.36.81-.69l.38-.28c.12-.09.24-.18.37-.26s.48-.31.74-.45.25-.11.37-.18l.37-.18a11.11,11.11,0,0,1,3.95-.94l.37,0h.37c.25,0,.49,0,.73,0l.37,0c.13,0,.25,0,.37.06a10.19,10.19,0,0,1,1.85.44l.38.14.37.14c.25.1.49.23.74.35l.37.2c.13.07.25.15.37.23a11,11,0,1,1-16.74,9.35Z"/>
        </g>
      </g>
    </g>
  </g>
</svg>
