<svg xmlns="http://www.w3.org/2000/svg" width="52.63" height="57.22" viewBox="0 0 52.63 57.22">
  <defs>
    <style>
      .cls-1 {
        fill: #fff;
      }
    </style>
  </defs>
  <g id="圖層_2" data-name="圖層 2">
    <g id="圖層_1-2" data-name="圖層 1">
      <g>
        <path class="cls-1" d="M36.25,27.56a1.13,1.13,0,0,1,1.13,1.13v1.4h3.35v2.28h2.08l.11,0h.24a7.15,7.15,0,0,0,1.9-14.06,1.13,1.13,0,0,1-.82-1.26,13.78,13.78,0,0,0,.14-1.92,12.86,12.86,0,0,0-23.65-7,1.13,1.13,0,0,1-1.33.45A8.84,8.84,0,0,0,7.6,16.92c0,.1,0,.2,0,.3v.18a1.11,1.11,0,0,1-.73,1.12,7.16,7.16,0,0,0,2,13.83l.16,0h4.11V30.09h3.23v-1.4a1.14,1.14,0,0,1,2.27,0v1.4h2v-1.4a1.14,1.14,0,0,1,2.27,0v1.4h2.85v-1.4a1.14,1.14,0,0,1,2.27,0v1.4h2.85v-1.4a1.14,1.14,0,0,1,2.27,0v1.4h2v-1.4A1.13,1.13,0,0,1,36.25,27.56Z"/>
        <path class="cls-1" d="M25.21,53.27a1.68,1.68,0,1,0,1.68-1.68A1.68,1.68,0,0,0,25.21,53.27Z"/>
        <path class="cls-1" d="M37.38,50.46a1.68,1.68,0,1,0,1.68-1.68A1.68,1.68,0,0,0,37.38,50.46Z"/>
        <path class="cls-1" d="M13,50.46a1.68,1.68,0,1,0,1.67-1.68A1.68,1.68,0,0,0,13,50.46Z"/>
        <path class="cls-1" d="M5.5,39.76a1.68,1.68,0,1,0,1.68-1.68A1.68,1.68,0,0,0,5.5,39.76Z"/>
        <path class="cls-1" d="M44.85,39.76a1.68,1.68,0,1,0,1.68-1.68A1.68,1.68,0,0,0,44.85,39.76Z"/>
        <g>
          <path d="M9.12,34.64h4V32.37H9.05l-.16,0a7.16,7.16,0,0,1-2-13.83,1.11,1.11,0,0,0,.73-1.12v-.18c0-.1,0-.2,0-.3A8.84,8.84,0,0,1,19.4,8.58a1.13,1.13,0,0,0,1.33-.45,12.86,12.86,0,0,1,23.65,7,13.78,13.78,0,0,1-.14,1.92,1.13,1.13,0,0,0,.82,1.26,7.15,7.15,0,0,1-1.9,14.06h-.24l-.11,0H40.73v2.27H43.2a9.42,9.42,0,0,0,3.39-18.21c0-.43.06-.87.06-1.3a15.13,15.13,0,0,0-27.33-9,11.11,11.11,0,0,0-14,10.55A9.42,9.42,0,0,0,8.74,34.61,2.34,2.34,0,0,0,9.12,34.64Z"/>
          <path d="M28,49.51V28.69a1.14,1.14,0,0,0-2.27,0V49.51a3.95,3.95,0,1,0,2.27,0ZM26.89,55a1.68,1.68,0,1,1,1.67-1.68A1.68,1.68,0,0,1,26.89,55Z"/>
          <path d="M40.19,46.7V41.81a1.13,1.13,0,0,0-1.13-1.13H33.14v-12a1.14,1.14,0,0,0-2.27,0V41.81A1.13,1.13,0,0,0,32,42.94h5.92V46.7a3.95,3.95,0,1,0,2.27,0Zm-1.13,5.44a1.68,1.68,0,1,1,1.68-1.68A1.68,1.68,0,0,1,39.06,52.14Z"/>
          <path d="M11,38.84l6.92-2.6a1.13,1.13,0,0,0,.74-1.06V28.69a1.14,1.14,0,0,0-2.27,0v5.7L9.83,36.86a4,4,0,1,0,1.17,2Zm-3.82,2.6a1.68,1.68,0,1,1,1.67-1.68A1.68,1.68,0,0,1,7.18,41.44Z"/>
          <path d="M46.53,35.82a3.92,3.92,0,0,0-2.63,1l-6.52-2.45v-5.7a1.14,1.14,0,0,0-2.27,0v6.49a1.15,1.15,0,0,0,.74,1.06l6.86,2.57a4.26,4.26,0,0,0-.12.95,3.95,3.95,0,1,0,3.94-3.94Zm0,5.62a1.68,1.68,0,1,1,1.68-1.68A1.68,1.68,0,0,1,46.53,41.44Z"/>
          <path d="M21.77,27.56a1.13,1.13,0,0,0-1.14,1.13v12H14.71a1.13,1.13,0,0,0-1.13,1.13V46.7a3.95,3.95,0,1,0,2.27,0V42.94h5.92a1.13,1.13,0,0,0,1.13-1.13V28.69A1.13,1.13,0,0,0,21.77,27.56ZM14.71,52.14a1.68,1.68,0,1,1,1.68-1.68A1.68,1.68,0,0,1,14.71,52.14Z"/>
        </g>
      </g>
    </g>
  </g>
</svg>
