<svg width="123" height="66" viewBox="0 0 123 66" fill="none" xmlns="http://www.w3.org/2000/svg">
<path d="M60.0754 44.4457C46.4278 44.4457 46.0182 65.2457 60.0754 65.2457C74.1326 65.2457 73.733 44.4457 60.0754 44.4457ZM60.0754 62.5057C50.0046 62.3257 50.0046 47.3757 60.0754 47.1957C70.1363 47.3757 70.1363 62.3257 60.0754 62.5057Z" fill="black"/>
<path d="M92.9655 16.3057C92.5884 16.3057 92.2265 16.4549 91.9588 16.721C91.6912 16.987 91.5395 17.3481 91.5368 17.7257V28.0957C90.6339 26.9657 89.4802 26.0619 88.1673 25.4561C86.8545 24.8503 85.4186 24.5591 83.9737 24.6057C77.1499 24.6057 73.6331 29.8057 73.5832 35.0057C73.5332 40.2057 77.1 45.3957 83.9737 45.3957C85.4096 45.4364 86.8353 45.1433 88.1389 44.5395C89.4425 43.9356 90.5885 43.0375 91.4869 41.9157V43.6357C91.4704 43.8328 91.4949 44.0313 91.559 44.2185C91.623 44.4057 91.7252 44.5775 91.859 44.7231C91.9928 44.8688 92.1554 44.985 92.3364 45.0646C92.5174 45.1441 92.7129 45.1851 92.9106 45.1851C93.1083 45.1851 93.3038 45.1441 93.4848 45.0646C93.6658 44.985 93.8284 44.8688 93.9622 44.7231C94.096 44.5775 94.1982 44.4057 94.2622 44.2185C94.3263 44.0313 94.3508 43.8328 94.3343 43.6357V17.7257C94.3321 17.3583 94.1886 17.0059 93.9338 16.7415C93.679 16.4771 93.3323 16.3211 92.9655 16.3057ZM83.9737 42.6557C82.9686 42.6796 81.9691 42.4973 81.0371 42.1199C80.105 41.7425 79.2601 41.178 78.5543 40.4613C77.8485 39.7445 77.2968 38.8907 76.9333 37.9524C76.5698 37.0141 76.4021 36.0113 76.4406 35.0057C76.4037 33.9917 76.5714 32.9808 76.9336 32.0331C77.2958 31.0855 77.8451 30.2207 78.5487 29.4903C79.2524 28.7599 80.0958 28.179 81.0288 27.7822C81.9617 27.3854 82.965 27.1809 83.9787 27.1809C84.9924 27.1809 85.9957 27.3854 86.9286 27.7822C87.8616 28.179 88.7051 28.7599 89.4087 29.4903C90.1123 30.2207 90.6616 31.0855 91.0239 32.0331C91.3861 32.9808 91.5537 33.9917 91.5169 35.0057C91.5539 36.0118 91.385 37.0148 91.0203 37.9532C90.6556 38.8915 90.103 39.7452 89.3965 40.4617C88.6899 41.1783 87.8443 41.7426 86.9117 42.1199C85.9792 42.4972 84.9793 42.6795 83.9737 42.6557Z" fill="black"/>
<path d="M120.84 0.77567C120.461 0.77567 120.098 0.92633 119.83 1.19451C119.562 1.46268 119.411 1.82641 119.411 2.20567V3.91567C118.508 2.79334 117.356 1.89655 116.047 1.29608C114.738 0.695616 113.307 0.407909 111.868 0.45567C105.044 0.45567 101.528 5.65567 101.478 10.8557C101.428 16.0557 105.044 21.2557 111.868 21.2557C113.307 21.3011 114.737 21.0124 116.046 20.4121C117.354 19.8118 118.506 18.9162 119.411 17.7957V19.5157C119.411 19.8949 119.562 20.2587 119.83 20.5268C120.098 20.795 120.461 20.9457 120.84 20.9457C121.219 20.9457 121.582 20.795 121.85 20.5268C122.118 20.2587 122.269 19.8949 122.269 19.5157V2.20567C122.269 1.82641 122.118 1.46268 121.85 1.19451C121.582 0.92633 121.219 0.77567 120.84 0.77567ZM111.848 18.4957C110.843 18.5182 109.843 18.3346 108.911 17.9561C107.979 17.5775 107.134 17.0121 106.428 16.2946C105.723 15.5771 105.171 14.7226 104.808 13.7838C104.444 12.845 104.277 11.8417 104.315 10.8357C104.278 9.82174 104.446 8.81076 104.808 7.86314C105.17 6.91552 105.72 6.05069 106.423 5.32032C107.127 4.58995 107.97 4.00902 108.903 3.61223C109.836 3.21544 110.84 3.01094 111.853 3.01094C112.867 3.01094 113.87 3.21544 114.803 3.61223C115.736 4.00902 116.58 4.58995 117.283 5.32032C117.987 6.05069 118.536 6.91552 118.898 7.86314C119.261 8.81076 119.428 9.82174 119.391 10.8357C119.43 11.8409 119.262 12.8433 118.9 13.7814C118.537 14.7196 117.986 15.5735 117.282 16.2909C116.577 17.0083 115.733 17.5739 114.802 17.9531C113.872 18.3322 112.873 18.5168 111.868 18.4957H111.848Z" fill="black"/>
<path d="M28.3742 44.7557C26.5601 44.6756 24.7593 45.1005 23.172 45.9832C21.5846 46.8658 20.2728 48.1717 19.3824 49.7557C18.4902 48.1732 17.178 46.8686 15.5911 45.9862C14.0042 45.1038 12.2043 44.6779 10.3906 44.7557C8.93599 44.7178 7.49343 45.0284 6.18307 45.6615C4.87272 46.2947 3.73249 47.2321 2.8574 48.3957V46.6557C2.8574 46.2764 2.70688 45.9127 2.43895 45.6445C2.17101 45.3763 1.80762 45.2257 1.4287 45.2257C1.04979 45.2257 0.68639 45.3763 0.418457 45.6445C0.150523 45.9127 0 46.2764 0 46.6557V63.8257C0 64.2049 0.150523 64.5687 0.418457 64.8368C0.68639 65.105 1.04979 65.2557 1.4287 65.2557C1.80762 65.2557 2.17101 65.105 2.43895 64.8368C2.70688 64.5687 2.8574 64.2049 2.8574 63.8257C2.90736 62.1557 2.72752 55.2757 2.98728 52.8257C3.04256 52.485 3.12953 52.1502 3.24705 51.8257C4.32607 49.2857 6.85377 47.6757 10.3906 47.5657C11.3983 47.5284 12.4031 47.6984 13.3426 48.0652C14.2821 48.432 15.1365 48.9878 15.8528 49.6982C16.5692 50.4087 17.1324 51.2587 17.5075 52.1957C17.8826 53.1326 18.0616 54.1367 18.0336 55.1457V63.8157C18.0336 64.1949 18.1841 64.5587 18.4521 64.8268C18.72 65.095 19.0834 65.2457 19.4623 65.2457C19.8412 65.2457 20.2046 65.095 20.4726 64.8268C20.7405 64.5587 20.891 64.1949 20.891 63.8157V55.1557C20.8526 54.1496 21.0203 53.1463 21.3837 52.2075C21.7471 51.2687 22.2986 50.4142 23.0042 49.6967C23.7099 48.9792 24.5547 48.4138 25.4868 48.0353C26.4189 47.6567 27.4185 47.4731 28.4242 47.4957C29.7475 47.4193 31.0652 47.721 32.2238 48.3654C33.3824 49.0099 34.3342 49.9706 34.9682 51.1357C35.6758 52.6695 36.0178 54.3469 35.9673 56.0357V63.8157C35.9673 64.1949 36.1178 64.5587 36.3858 64.8268C36.6537 65.095 37.0171 65.2457 37.396 65.2457C37.7749 65.2457 38.1383 65.095 38.4062 64.8268C38.6742 64.5587 38.8247 64.1949 38.8247 63.8157V55.1557C38.7748 49.0557 34.7984 44.9157 28.3742 44.7557Z" fill="black"/>
</svg>
