<svg xmlns="http://www.w3.org/2000/svg" width="140" height="79.26" viewBox="0 0 140 79.26">
  <defs>
    <style>
      .cls-1 {
        fill: #838383;
      }
    </style>
  </defs>
  <g id="圖層_2" data-name="圖層 2">
    <g id="圖層_1-2" data-name="圖層 1">
      <g>
        <g>
          <g>
            <path class="cls-1" d="M37.89.32a4,4,0,0,0,3.69,2.41c2.5-.13,3.24-2.11,1.88-2A9.46,9.46,0,0,1,39.29.51C38.57.2,37.72-.35,37.89.32Z"/>
            <path class="cls-1" d="M39.62,7.25A8.83,8.83,0,0,1,36.91,9c-.56.27-.41,1.81,1.06,1.44a9.48,9.48,0,0,0,3.27-1.93c0,1.43,0,5.68,0,5.68a2.83,2.83,0,0,1-2,2.64c-2.15.94-3.16.34-4,1.13s.68,3.39,3.27,1.5,3.92-2.63,3.92-5.11,0-8.24,0-8.24S41.92,5,39.62,7.25Z"/>
            <path class="cls-1" d="M52.83.85a6.11,6.11,0,0,0-3.72.83c-1.74,1.09-.68,2.4,1.39,1.16a9.42,9.42,0,0,1,3.39-.41c1.16,0,2.33-.17,2.63-1.07S53.73.89,52.83.85Z"/>
            <path class="cls-1" d="M46.25,7.11c-.85.7-1.68,1.81-1.08,2.49s2.3-.34,2.94-1.25,2.42-1,3.36-.92V18s-.15,1.55,1,1.55,1.09-.71,1.09-1.62V7.58A10.86,10.86,0,0,1,56,7.85c.38.22,2.44,1,3.39-.23s.42-2.56-.62-2c-1.36.76-4.26.4-6.21.4S47.53,6.06,46.25,7.11Z"/>
          </g>
          <g>
            <path class="cls-1" d="M67.12,6.33c-1-.12-3-.71-3.52-.17s-1.64,1.93.79,2c1.76,0,1.84-.33,1.84-.33l0,7.1-1.76.48-.08-4.78a.52.52,0,0,0-.51-.42c-.41,0-.83.09-.83.84s0,4,0,4-.42,1-.76,1.22c-.78.46-.79,2.74,1.7,1.38a10.64,10.64,0,0,1,4.84-1.19c.92-.13,2.36-1.79,1.48-2.3-.61-.35-1.07,1-2.53.91,0-3.81,0-3.16,0-3.16s3.73-.64,2.57-1.7c-.49-.46-.76.56-2.57.49,0-2.39,0-3.1,0-3.1s.8-.09,2.09-.17,2.06-1.47.51-1.3A12.22,12.22,0,0,1,67.12,6.33Z"/>
            <path class="cls-1" d="M77.29,4.28c-1.43-1.38-2.17,1.59-2.76,2.43a6,6,0,0,1-2.14,1.92c-1.46.63-1,2.52.8,1.3a5.24,5.24,0,0,1,3.69-1.3h4.4s.54.13.5-.67-2.18-.58-2.64-.54S76,7.33,76,7.33s-.5-.16.33-.71S78,5,77.29,4.28Z"/>
            <path class="cls-1" d="M73.19,11c-.46.06-1.85.64-.63,1.3a30.47,30.47,0,0,1,5.78,4.18c1.55,1.59,1.93,2.4,3.77,2.27a3.15,3.15,0,0,0,2.64-1.09c.51-.46.42-1-.58-1a8.13,8.13,0,0,1-4.74-1.3c-1.88-1.26-4.94-3.69-4.94-3.69A1.82,1.82,0,0,0,73.19,11Z"/>
            <path class="cls-1" d="M76.41,11.23a6.12,6.12,0,0,1-1.5,4.32c-1.56,1.55-4,.84-3.94,2.09s2.93,1.47,4.1-.41a26.15,26.15,0,0,0,3-5.91C78.43,9.68,76.54,9,76.41,11.23Z"/>
          </g>
          <g>
            <path class="cls-1" d="M86.68,7.8c-.07,1.17,0,8.25,0,8.25s-.42,2.68.8,2.73.92-1.39.92-3.48V11.9s2,.76,2.56-2.34.37-4-2.39-4.06c-1.64.08.48.69.75,1.92.21,1,.46,3.31-.38,3.35s-.67-.54-.62-1,.92-1.93,0-2.6S86.76,6.25,86.68,7.8Z"/>
            <path class="cls-1" d="M103.65,15.17c-.5,1.26-.92,2.35-2.72,2.35-1.6,0-2.35-.42-2.39-1.43A3.08,3.08,0,0,1,99,14c.42-.46.46-1.14-.25-1.3s-1.26-.63-.08-.88,2.64-1,1.93-1.89c-.41-.47-1.1-.54-.72-.92s-.12-1.84-1.76-1.09-3.73,1.84-3.6.88a3.24,3.24,0,0,1,1.51-2,5.39,5.39,0,0,1,3.22-1.46c1.51,0,2.1.12,1.26.54s-1.94,1,0,1c2.77,0,3.81-2.6,1.55-2.56s-3.89.55-4.1,0,.12-1.6-2.52-1.18c-.29,0-1.21.51-.67.84S96,4.82,95.27,5,92,6.5,92.21,8.26C92.3,9.43,94,9.6,94.27,9.64s-.09.63,1.17.47,4.9-.85,3.1.33a6.38,6.38,0,0,1-4.19,1.25c-1.42,0-2,.3-2,1.14s1.67,1,2.43.79c-2,2.18-4.91,4.15-4.07,5s4.07-2.47,5-3.77S97.15,13,97.45,13s.21.79.12,1.92-.12,3.73,2.77,3.82,4.44-.34,4.61-2.06S104.15,13.91,103.65,15.17ZM93.39,7.72C93,7.34,94.11,6.37,94.64,6c.84-.59,1.13,0,.55.58S93.8,8.09,93.39,7.72Z"/>
          </g>
        </g>
        <path class="cls-1" d="M83.65,42.08H77.8v1.25h5.85ZM136,76.54V52.24h-2.21V48.7H112.48v3.54h-22V49.35H84.53v29h5.69v-.88H140v-.92ZM85.12,55.14h2.09V60H85.12Zm2.15,19.63h-2.1v-6h2.1Zm0-8.21h-2.1V61.68h2.1Zm.52-11.42h2.1V60h-2.1Zm2.15,19.63H87.85v-6h2.09Zm0-8.21H87.85V61.68h2.09Zm1.58-11.42h2.1V60h-2.1Zm2.15,19.63H91.58v-6h2.09Zm0-8.21H91.58V61.68h2.09Zm.53-11.42h2.1V60H94.2Zm2.15,19.63h-2.1v-6h2.1Zm0-8.21h-2.1V61.68h2.1Zm1.58-11.42H100V60h-2.1Zm2.15,19.63H98v-6h2.1Zm0-8.21H98V61.68h2.1Zm.53-11.42h2.09V60h-2.09Zm2.15,19.63h-2.1v-6h2.1v6Zm0-8.21h-2.1V61.68h2.1v4.88Zm1.58-11.42h2.09V60h-2.09Zm2.15,19.63h-2.1v-6h2.1Zm0-8.21h-2.1V61.68h2.1ZM107,55.14h2.1V60H107Zm2.15,19.63h-2.09v-6h2.09Zm0-8.21h-2.09V61.68h2.09Zm1.58-11.42h2.1V60h-2.1Zm2.15,19.63H110.8v-6h2.09Zm0-8.21H110.8V61.68h2.09Zm.53-11.42h2.1V60h-2.1Zm2.15,19.63h-2.1v-6h2.1Zm0-8.21h-2.1V61.68h2.1Zm1.58-11.42h2.09V60h-2.09Zm2.15,19.63h-2.09v-6h2.09Zm0-8.21h-2.09V61.68h2.09Zm.53-11.42h2.09V60h-2.09ZM122,74.77h-2.1v-6H122Zm0-8.21h-2.1V61.68H122Zm1.58-11.42h2.09V60h-2.09Zm2.15,11.42h-2.1V61.68h2.1Zm.52-11.42h2.1V60h-2.1Zm2.15,11.42h-2.09V61.68h2.09Zm3.67,8.13H130v-6h2.09Zm0-7.85H130V62h2.09Zm0-6.88H130V55.09h2.09ZM62.35,42.08H56.51v1.25h5.84Zm71.79,5.82h-22v.6h22ZM49.75,79.26H90.24v-.59H49.75Zm6-.92h5.87V67.73h1.17V46.6H77.12v.18h0v21h1.34v10.6h5.88V49.16h6.76v-.59H84.33V43.48H77.12V46H62.75V43.48h-7v4.6h0v.49H48.91v.59H55.7ZM80,50h2.1v3.74H80Zm0,5.17h2.1V60H80Zm0,6.54h2.1v4.88H80Zm0,7.1h2.1v6H80ZM58.34,50h2.1v3.74h-2.1Zm0,5.17h2.1V60h-2.1Zm0,6.54h2.1v4.88h-2.1Zm0,7.1h2.1v6h-2.1Zm-2.86,9.56v-29H49.54v2.89H27.48V48.7H6.14v3.54H4v24.3H0v.92H49.75v.88ZM10,74.69H7.86v-6H10Zm0-7.85H7.86V62H10ZM10,60H7.86V55.09H10Zm3.68,6.6h-2.1V61.68h2.1Zm0-6.55h-2.1V55.14h2.1Zm2.67,6.55H14.22V61.68h2.09v4.88Zm0-6.55H14.22V55.14h2.09V60ZM20,74.77H18v-6H20Zm0-8.21H18V61.68H20ZM20,60H18V55.14H20Zm2.68,14.76h-2.1v-6h2.1Zm0-8.21h-2.1V61.68h2.1Zm0-6.55h-2.1V55.14h2.1Zm3.73,14.76h-2.1v-6h2.1Zm0-8.21h-2.1V61.68h2.1Zm0-6.55h-2.1V55.14h2.1Zm2.68,14.76H27v-6h2.1Zm0-8.21H27V61.68h2.1Zm0-6.55H27V55.14h2.1Zm3.73,14.76h-2.1v-6h2.1Zm0-8.21h-2.1V61.68h2.1Zm0-6.55h-2.1V55.14h2.1Zm2.67,14.76H33.44v-6h2.09Zm0-8.21H33.44V61.68h2.09Zm0-6.55H33.44V55.14h2.09Zm3.73,14.76H37.17v-6h2.09Zm0-8.21H37.17V61.68h2.09Zm0-6.55H37.17V55.14h2.09Zm2.68,14.76H39.85v-6h2.09Zm0-8.21H39.85V61.68h2.09Zm0-6.55H39.85V55.14h2.09Zm3.73,14.76h-2.1v-6h2.1Zm0-8.21h-2.1V61.68h2.1Zm0-6.55h-2.1V55.14h2.1Zm2.68,14.76h-2.1v-6h2.1Zm0-8.21h-2.1V61.68h2.1Zm0-6.55h-2.1V55.14h2.1Zm4.31-4.87h2.09V60H52.66Zm0,6.54h2.09v4.88H52.66Zm0,7.1h2.09v6H52.66ZM50,55.14h2.1V60H50Zm0,6.54h2.1v4.88H50Zm0,7.1h2.1v6H50ZM27.83,47.9h-22v.6h22ZM78,78.34V71.43H62v6.91h.44V72.08h3.73v6.26H67V72.08h6.16v6.26h.65V72.08h3.74v6.26Zm0-10.18H62v3H78ZM62.94,46.77v21h14v-21Zm.82,3.3h3.67v5.45H63.76Zm3.7,16.49H63.9V57h3.56Zm4.37,0H68.26V57h3.57Zm.09-11H68.24V50.07h3.68Zm4.19,11H72.54V57h3.57Zm.21-11H72.65V50.07h3.67Z"/>
        <g>
          <path class="cls-1" d="M40.91,23.7v1H37v2h3.64v1H37v2.15h4v1H35.82V23.7Z"/>
          <path class="cls-1" d="M44.81,28.28l1.83,2.62H45.21l-1.1-1.6L43,30.9H41.58l1.83-2.62-1.82-2.64H43l1.11,1.61,1.1-1.61h1.42Z"/>
          <path class="cls-1" d="M48.08,28.6a1.94,1.94,0,0,0,.13.54,1.68,1.68,0,0,0,.27.45,1.07,1.07,0,0,0,.37.3.89.89,0,0,0,.45.12,1.11,1.11,0,0,0,.75-.25,1.65,1.65,0,0,0,.47-.73h1.13a2.46,2.46,0,0,1-.34.83,2.18,2.18,0,0,1-.54.62,2.28,2.28,0,0,1-1.48.52,2.28,2.28,0,0,1-1-.22,2.42,2.42,0,0,1-.77-.61,2.77,2.77,0,0,1-.5-.89,3.47,3.47,0,0,1-.17-1.07,3.06,3.06,0,0,1,.17-1,2.63,2.63,0,0,1,.5-.86,2.34,2.34,0,0,1,1.8-.8,2.47,2.47,0,0,1,1,.2,2.19,2.19,0,0,1,.76.54,2.4,2.4,0,0,1,.48.82,2.88,2.88,0,0,1,.17,1v.48Zm2.38-.93a1.37,1.37,0,0,0-.13-.45,1.07,1.07,0,0,0-.25-.34,1,1,0,0,0-.36-.23,1.22,1.22,0,0,0-.47-.08,1,1,0,0,0-.43.09,1,1,0,0,0-.35.23,1.28,1.28,0,0,0-.26.35,1.64,1.64,0,0,0-.13.43Z"/>
          <path class="cls-1" d="M55.68,27.51a1.6,1.6,0,0,0-.38-.74.88.88,0,0,0-.62-.23.92.92,0,0,0-.5.14,1.16,1.16,0,0,0-.37.36,1.58,1.58,0,0,0-.23.53,2.18,2.18,0,0,0-.08.63,2.91,2.91,0,0,0,.08.66,2.07,2.07,0,0,0,.23.59,1.29,1.29,0,0,0,.37.4.75.75,0,0,0,.48.16.72.72,0,0,0,.38-.1,1.13,1.13,0,0,0,.29-.25,2,2,0,0,0,.21-.38,3.09,3.09,0,0,0,.13-.46h1.26a3,3,0,0,1-.24.91,2.5,2.5,0,0,1-.48.69,2,2,0,0,1-.7.44,2.6,2.6,0,0,1-1.62,0,2.2,2.2,0,0,1-.59-.31,1.79,1.79,0,0,1-.45-.46,2.75,2.75,0,0,1-.32-.58,3.58,3.58,0,0,1-.19-.66,4,4,0,0,1-.06-.69,3.33,3.33,0,0,1,.17-1.07,2.48,2.48,0,0,1,.49-.84,2.09,2.09,0,0,1,.76-.55,2.43,2.43,0,0,1,1-.2,2.31,2.31,0,0,1,.86.15,2.06,2.06,0,0,1,.66.42,2.2,2.2,0,0,1,.45.62,3.43,3.43,0,0,1,.27.78Z"/>
          <path class="cls-1" d="M62.26,30.9H61v-.59a2.8,2.8,0,0,1-.38.33,2.4,2.4,0,0,1-.37.22,1.65,1.65,0,0,1-.36.11,2.47,2.47,0,0,1-.39,0,2,2,0,0,1-.71-.11,1.72,1.72,0,0,1-.53-.34A1.46,1.46,0,0,1,58,30a1.85,1.85,0,0,1-.11-.69V25.64h1.21v3.6a.91.91,0,0,0,.06.35.61.61,0,0,0,.15.23.59.59,0,0,0,.22.12.86.86,0,0,0,.28,0,1.12,1.12,0,0,0,.47-.11,1.73,1.73,0,0,0,.41-.3,1.86,1.86,0,0,0,.29-.44,1.36,1.36,0,0,0,.11-.53v-3h1.21V30.9Z"/>
          <path class="cls-1" d="M65,24.2v1.44h1v1H65V29.5a.57.57,0,0,0,.1.36.32.32,0,0,0,.28.15l.23,0a1.89,1.89,0,0,0,.47-.14v1a2.12,2.12,0,0,1-.61.16L65,31a1.18,1.18,0,0,1-.46-.09,1.21,1.21,0,0,1-.39-.28,1.12,1.12,0,0,1-.27-.43,1.48,1.48,0,0,1-.1-.57v-3h-.75v-1h.75V24.2Z"/>
          <path class="cls-1" d="M68,23.7v1.22H66.75V23.7Zm0,1.94V30.9H66.75V25.64Z"/>
          <path class="cls-1" d="M71,29.2l1.25-3.56h1.26L71.6,30.9H70.45l-2-5.26h1.28Z"/>
          <path class="cls-1" d="M75.05,28.6a2,2,0,0,0,.14.54,1.66,1.66,0,0,0,.26.45,1.17,1.17,0,0,0,.37.3.93.93,0,0,0,.46.12,1.09,1.09,0,0,0,.74-.25A1.66,1.66,0,0,0,77.5,29h1.12a2.67,2.67,0,0,1-.33.83,2.34,2.34,0,0,1-.54.62,2.55,2.55,0,0,1-.7.39,2.28,2.28,0,0,1-.78.13,2.32,2.32,0,0,1-1-.22,2.42,2.42,0,0,1-.77-.61,2.57,2.57,0,0,1-.49-.89,3.21,3.21,0,0,1-.18-1.07,2.83,2.83,0,0,1,.18-1,2.6,2.6,0,0,1,.49-.86,2.28,2.28,0,0,1,.78-.58,2.25,2.25,0,0,1,1-.22,2.48,2.48,0,0,1,1,.2,2.4,2.4,0,0,1,.76.54,2.57,2.57,0,0,1,.48.82,3.12,3.12,0,0,1,.17,1v.48Zm2.38-.93a1.66,1.66,0,0,0-.12-.45,1.25,1.25,0,0,0-.25-.34,1.1,1.1,0,0,0-.37-.23,1.19,1.19,0,0,0-.47-.08,1.07,1.07,0,0,0-.43.09,1,1,0,0,0-.35.23,1.48,1.48,0,0,0-.25.35,1.36,1.36,0,0,0-.14.43Z"/>
          <path class="cls-1" d="M84.76,26.89l1.81-3.19H88l-2.61,4.35V30.9H84.12V28.05l-2.6-4.35H82.9Z"/>
          <path class="cls-1" d="M93.15,30.9H91.93v-.59a2.85,2.85,0,0,1-.39.33,2.32,2.32,0,0,1-.36.22,1.58,1.58,0,0,1-.37.11,2.34,2.34,0,0,1-.38,0,2,2,0,0,1-.71-.11,1.66,1.66,0,0,1-.54-.34,1.32,1.32,0,0,1-.33-.53,1.85,1.85,0,0,1-.12-.69V25.64H90v3.6a1.18,1.18,0,0,0,0,.35.76.76,0,0,0,.15.23.63.63,0,0,0,.23.12.82.82,0,0,0,.28,0,1.19,1.19,0,0,0,.47-.11,1.68,1.68,0,0,0,.4-.3,1.6,1.6,0,0,0,.29-.44,1.36,1.36,0,0,0,.11-.53v-3h1.22Z"/>
          <path class="cls-1" d="M99.13,30.76l-.26.14-.21.08-.15,0h-.12a.88.88,0,0,1-.33-.06.91.91,0,0,1-.27-.18,1.09,1.09,0,0,1-.21-.26,2.92,2.92,0,0,1-.14-.31,5,5,0,0,1-.43.4,2.66,2.66,0,0,1-.41.25,2.32,2.32,0,0,1-.4.13,3,3,0,0,1-.42,0,1.85,1.85,0,0,1-.67-.11,1.65,1.65,0,0,1-.53-.31,1.53,1.53,0,0,1-.36-.5,1.62,1.62,0,0,1-.13-.64,1,1,0,0,1,.14-.52,1.33,1.33,0,0,1,.36-.39,2.48,2.48,0,0,1,.51-.28l.59-.22.58-.18a4.23,4.23,0,0,0,.51-.19,1.23,1.23,0,0,0,.36-.22.37.37,0,0,0,.14-.29.45.45,0,0,0-.09-.28.63.63,0,0,0-.21-.18,2.11,2.11,0,0,0-.3-.1,1.63,1.63,0,0,0-.31,0,1.19,1.19,0,0,0-.32.05,1,1,0,0,0-.28.13,1.21,1.21,0,0,0-.21.24.8.8,0,0,0-.11.35H94.21A1.81,1.81,0,0,1,94.93,26a2,2,0,0,1,.67-.33,2.87,2.87,0,0,1,.77-.11,3.44,3.44,0,0,1,.8.09,1.83,1.83,0,0,1,.68.3,1.35,1.35,0,0,1,.47.51,1.49,1.49,0,0,1,.18.75v2.55a.26.26,0,0,0,.07.19.22.22,0,0,0,.19.09l.11,0a.79.79,0,0,0,.26-.1v.86Zm-1.85-2.38a1.31,1.31,0,0,1-.31.13l-.42.12-.44.12a3.19,3.19,0,0,0-.41.16.94.94,0,0,0-.29.21.4.4,0,0,0-.12.29.68.68,0,0,0,0,.27.45.45,0,0,0,.14.19.44.44,0,0,0,.19.1.57.57,0,0,0,.22,0,1.29,1.29,0,0,0,.72-.24,2.17,2.17,0,0,0,.67-.73Z"/>
          <path class="cls-1" d="M99.75,25.64H101v.62a2.23,2.23,0,0,1,.72-.55,1.87,1.87,0,0,1,.76-.17,2.11,2.11,0,0,1,.73.12,1.5,1.5,0,0,1,.54.34,1.56,1.56,0,0,1,.34.52,2.17,2.17,0,0,1,.12.69V30.9H103V27.41a1,1,0,0,0-.06-.36.76.76,0,0,0-.16-.26.55.55,0,0,0-.23-.17.87.87,0,0,0-.28-.05,1.1,1.1,0,0,0-.47.1,1.41,1.41,0,0,0-.4.27,1.29,1.29,0,0,0-.28.38,1.07,1.07,0,0,0-.11.46V30.9H99.75V25.64Z"/>
        </g>
      </g>
    </g>
  </g>
</svg>
