<svg xmlns="http://www.w3.org/2000/svg" width="124.28" height="66.32" viewBox="0 0 124.28 66.32">
  <defs>
    <style>
      .cls-1 {
        fill: none;
        stroke: #fff;
        stroke-miterlimit: 10;
        stroke-width: 4.28px;
      }

      .cls-2 {
        fill: #5f5f5f;
      }

      .cls-3 {
        fill: #565656;
      }

      .cls-4 {
        fill: #686868;
      }
    </style>
  </defs>
  <g id="圖層_2" data-name="圖層 2">
    <g id="圖層_1-2" data-name="圖層 1">
      <g>
        <g>
          <rect class="cls-1" x="2.14" y="17.07" width="12.42" height="47.11"/>
          <g>
            <path class="cls-1" d="M68.11,42.05a16.59,16.59,0,0,0,2.28-8.89c0-5.25-1.61-9.22-4.92-12.14a16.39,16.39,0,0,0-3.79-2.53V47.91A15,15,0,0,0,68.11,42.05Z"/>
            <path class="cls-1" d="M116.35,33.16c4.65-5.38,4.47-9.55,4.43-13-.07-5.69-2.19-10.21-6.55-13.38S104.9,2.17,97,2.17l-23.43,0h-6a30,30,0,0,1,15,12.42H96c3.87,0,6.51-.13,8.31.42a5.9,5.9,0,0,1,4.07,5.76,6,6,0,0,1-3.62,5.54c-2.38.85-4.33.67-7.64.67H87a42.82,42.82,0,0,1,.44,6.21,41.39,41.39,0,0,1-.45,6.2H98.45c3.31,0,5.83,0,7.64.68a6,6,0,0,1,3.63,5.53c-.16,2.89-1.75,5-3.7,5.6s-3.2.58-8.69.58H82.59a30.53,30.53,0,0,1-15,12.43H97.33c5.15,0,9.79-.19,13.54-1.58,7.63-2.85,11.27-8.87,11.27-17C122.14,40.69,120.24,35.94,116.35,33.16Z"/>
            <polygon class="cls-1" points="14.56 14.56 14.56 2.14 14.44 2.14 12.42 2.14 2.14 2.14 2.14 14.56 14.44 14.56 14.56 14.56"/>
          </g>
          <path class="cls-1" d="M54,2.14h-37V14.58H54a23.53,23.53,0,0,1,4.35.38,18,18,0,0,1,6.46,2.62A17.78,17.78,0,0,1,70,23a19.08,19.08,0,0,1,2.63,10.2A18.76,18.76,0,0,1,70,43.35q-5.28,8.49-16,8.48H39.27V27.05H26.86V64.18H54c9.29,0,16.78-2.78,22.48-8.47s8.54-13.19,8.54-22.48a44.48,44.48,0,0,0-.54-6.82,30.58,30.58,0,0,0-3.79-10.32,27.53,27.53,0,0,0-7.9-8.47,26.57,26.57,0,0,0-7.63-3.84c-.79-.25-1.6-.47-2.41-.66a38.49,38.49,0,0,0-8.75-1"/>
        </g>
        <g>
          <rect class="cls-2" x="2.14" y="17.07" width="12.42" height="47.11"/>
          <g>
            <path class="cls-3" d="M68.11,42.05a16.59,16.59,0,0,0,2.28-8.89c0-5.25-1.61-9.22-4.92-12.14a16.39,16.39,0,0,0-3.79-2.53V47.91A15,15,0,0,0,68.11,42.05Z"/>
            <path class="cls-3" d="M116.35,33.16c4.65-5.38,4.47-9.55,4.43-13-.07-5.69-2.19-10.21-6.55-13.38S104.9,2.17,97,2.17l-23.43,0h-6a30,30,0,0,1,15,12.42H96c3.87,0,6.51-.13,8.31.42a5.9,5.9,0,0,1,4.07,5.76,6,6,0,0,1-3.62,5.54c-2.38.85-4.33.67-7.64.67H87a42.82,42.82,0,0,1,.44,6.21,41.39,41.39,0,0,1-.45,6.2H98.45c3.31,0,5.83,0,7.64.68a6,6,0,0,1,3.63,5.53c-.16,2.89-1.75,5-3.7,5.6s-3.2.58-8.69.58H82.59a30.53,30.53,0,0,1-15,12.43H97.33c5.15,0,9.79-.19,13.54-1.58,7.63-2.85,11.27-8.87,11.27-17C122.14,40.69,120.24,35.94,116.35,33.16Z"/>
            <polygon class="cls-3" points="14.56 14.56 14.56 2.14 14.44 2.14 12.42 2.14 2.14 2.14 2.14 14.56 14.44 14.56 14.56 14.56"/>
          </g>
          <path class="cls-4" d="M54,2.14h-37V14.58H54a23.53,23.53,0,0,1,4.35.38,18,18,0,0,1,6.46,2.62A17.78,17.78,0,0,1,70,23a19.08,19.08,0,0,1,2.63,10.2A18.76,18.76,0,0,1,70,43.35q-5.28,8.49-16,8.48H39.27V27.05H26.86V64.18H54c9.29,0,16.78-2.78,22.48-8.47s8.54-13.19,8.54-22.48a44.48,44.48,0,0,0-.54-6.82,30.58,30.58,0,0,0-3.79-10.32,27.53,27.53,0,0,0-7.9-8.47,26.57,26.57,0,0,0-7.63-3.84c-.79-.25-1.6-.47-2.41-.66a38.49,38.49,0,0,0-8.75-1"/>
        </g>
      </g>
    </g>
  </g>
</svg>
