<?xml version="1.0" encoding="utf-8"?>
<!-- Generator: Adobe Illustrator 24.2.1, SVG Export Plug-In . SVG Version: 6.00 Build 0)  -->
<svg version="1.1" id="圖層_1" xmlns="http://www.w3.org/2000/svg" xmlns:xlink="http://www.w3.org/1999/xlink" x="0px" y="0px"
	 width="464px" height="85.2px" viewBox="0 0 464 85.2" style="enable-background:new 0 0 464 85.2;" xml:space="preserve">
<style type="text/css">
	.st0{fill:#FFFFFF;}
</style>
<path class="st0" d="M66.6,51.9c-5.4,0-8.4-1.7-8.4-8.3V33.1h-5.5c0,13-7,17.6-17,20.7L34,50.9c7.3-3.9,8.1-7.1,8.1-21.2h19.7
	c-7.5-4.2-13.9-10-18.9-17c-4.8,7.7-11.1,12.9-19.4,17h11.2v16.7H20.1l-2,10.7h16.5c-0.2,5.6-0.9,11.2-2,16.8
	c-1.6,6.6-3.7,11.3-11.8,11.3c-3.9,0-9.1-1-16.3-3.4v-3.6c5,1.1,8.3,1.8,10.7,1.8c4.4,0,5.2-2.1,6.4-6.5c0.9-4.2,1.5-8.5,1.6-12.9
	H6.9l3.4-17.4h13.9V32.9h-8.7c-4.2,1.5-8.8,2.8-14,4.1L0,34c8.7-3.1,15.9-7,21.5-11.7c-4.7-1.4-9.5-2.5-14.4-3.3l6.8-9.6
	c4.1,2.6,7.9,5.9,11.1,9.6c3-3.2,5.5-6.8,7.3-10.8h-25V4.7h38.3v3.4c-0.2,0.6-0.5,1.2-0.9,1.7c1.3,1.2,2.6,2.3,4.1,3.3
	c3.9-3.6,7.2-7.8,9.7-12.5l10.4,6.9c-5.5,3.1-11.2,5.6-17.1,7.7c2.6,1.7,5.4,3.2,8.3,4.4c4.4-2.9,8.5-6.3,11.9-10.3l10.4,8
	c-5.6,1.7-11.3,3.1-17,4.1c6.1,2,12.7,2.9,20,3.6l-5.4,12.1c-4.1-1.2-8.1-2.6-12-4.4v9.4c0,1.1,0.2,1.8,1.7,1.8h2.7
	c1.6,0,2.2-0.7,2.9-5.5l3.4,1.2c-0.5,9.1-1.2,12.2-6.9,12.2L66.6,51.9z M78.2,85.2c-8-0.3-15.7-3.1-22.1-7.9
	c-7.6,4.2-15.9,6.8-24.4,7.9l-1.1-3.3c7.2-1.9,14-5.2,19.8-9.9c-3.5-4.1-6.5-8.6-8.8-13.4h-5.2v-3.4h37.3v3.8
	c-2.4,4.7-5.6,9-9.5,12.6c4.4,1,9,1.5,13.5,1.4c1.7,0,3.4,0,5.2-0.1L78.2,85.2z M44.7,58.5c3,3.4,6.5,6.5,10.3,9
	c2.4-2.7,4.4-5.7,5.9-9H44.7z"/>
<path class="st0" d="M174,85.1c-18.3-2.4-27.5-15.9-31.9-31.8h-9.2v18.7c4.6-0.4,9.5-1,14.8-1.6l0.4,2.3c-10.7,5.2-22,9.4-33.5,12.4
	L112,72.8c3.2,0,6.4-0.1,9.7-0.2V53.3h-8.5c-2.1,12.8-6.8,24.9-16.3,31.9l-2.1-1.7c6.8-11.9,8.4-28.9,8.4-47.4V4.7h68.8v18.9h-57.6
	v11.8h11.3v-9.8h10.8v9.8h13v-9.8h10.8v9.8h14.1v3.4h-14.1v11.1h17.5v3.4h-13.5l9.5,6.7c-5.3,3.1-11.1,5.3-17.1,6.5
	c6.3,4.2,13.6,6,23.2,6.1L174,85.1z M125.8,38.8h-11.3c-0.1,3.7-0.3,7.4-0.9,11.1h12.1L125.8,38.8z M160.9,8.1h-46.4v12.1h46.4V8.1z
	 M149.5,38.8h-13v11.1h13V38.8z M145,53.3c2.3,4.1,5.3,7.9,8.9,11c3.5-3.2,6.4-6.9,8.6-11H145z"/>
<path class="st0" d="M199.2,32.4v-3.1c-2.5,2.4-5.2,4.6-8,6.6l-1.7-2.2c7.4-9.4,11.5-21.9,13.7-33.6L216.4,3c-0.7,1.7-1.4,3.4-2.3,5
	c6.2,3.7,12.2,7.7,18,12.1l-8.3,9.6c-3.2-6.5-6.9-12.8-11.2-18.7c-3.4,6.6-7.9,12.6-13.2,17.9h23v3.5H199.2z M200.7,83.3V44h-8.3
	v-3.5h35.9v21.9c0,6.3-2,10.3-7.7,10.3c-2.4,0-5.5-0.8-9.5-2.4v13L200.7,83.3z M217.9,44h-6.8v22.6c1.4,0.5,2.8,0.9,4.3,0.9
	c2.4,0,2.6-1.8,2.6-5.2V44z M223.6,82.6c6-3.2,12.9-9.3,16.1-14.9l10.3,8.7c-6.5,4.2-16,7.3-25.1,8.6L223.6,82.6z M232.7,67.3V17.5
	h11.7c0.5-3.4,0.8-6.9,0.8-10.3h-17.3V3.7h46.4v3.4h-16.1c-2.8,3.9-6.2,7.4-9.9,10.3h21.7v49.8L232.7,67.3z M259.5,20.9h-16.4v11.5
	h16.4L259.5,20.9z M259.5,35.9h-16.4V48h16.4L259.5,35.9z M259.5,51.4h-16.4v12.5h16.4L259.5,51.4z M267.6,85.2
	c-4.1-5.2-8.8-9.9-14-13.9l1.3-2.6c5.1,0.8,13.6,2.4,19.7,4.9L267.6,85.2z"/>
<path class="st0" d="M311.6,42.9l-2.6,0.8v25.5h-6.3V45.4l-2.3,0.6c-0.5,15.8-3.2,29.2-14.5,39.1l-1.8-1.9
	c5.4-9.8,6.6-21.5,6.9-34.9l-5.5,1.3l-1.5-10.5c2.5,0,4.8,0,7.1-0.1V10.8h8c1.1-3.4,2.6-7.4,2.7-10.6L316.2,2
	c-4.1,3.4-8.6,6.4-13.4,8.8h18.4v25.4l3.9-0.6v3l-3.9,1.4v33.2c0,7.6-2.7,11.1-8.5,11.1c-3.1,0-7.2-0.9-12.2-2.8v-3.1
	c2.3,0.9,4.8,1.4,7.3,1.5c3.1,0,3.8-1.8,3.8-6.3L311.6,42.9z M311.6,31.2l-7.3,3.4c-0.2-5.6-0.8-11.1-2-16.6l1.6-0.9
	c2.9,3.7,5.5,7.7,7.7,11.9v-15h-11v24.4c3.7-0.3,7.4-0.7,11-1L311.6,31.2z M358.3,83.2c-6.9,0-9.8-1.7-9.8-9.9V34.3h-7.7v11.8
	c0,17.2-3.4,30.4-17.9,39l-1.7-1.7c8-9.2,9.1-19.4,9.1-37.3V30.9H359v41.4c0,1,0.5,1.3,1.4,1.3h1.4c2.1,0,3.1-1.4,4.7-13.8l3.7,1.3
	c-0.8,17.9-2.9,22.1-8.9,22.1L358.3,83.2z M323.4,18.8v-3.4H339v-14h11v14h17.5v3.4L323.4,18.8z"/>
<path class="st0" d="M439.6,85.2v-6.1h-32.1v6.1h-12.2V53.5c-4.5,1.5-9.9,2.9-15.2,4.3l-1.2-3.1c16.4-6.4,30.9-13.5,43-21.9h-40.7
	v-3.4H412V15.4h-20.4V12H412V0h12.3v12h16.3v3.4h-16.3v13.9h1.9c8.6-6.8,16.2-14.7,22.6-23.5l10.5,8c-4.9,5.6-10.3,10.8-16,15.5H464
	v3.4h-25.1c-5.9,4.3-12.1,8-18.6,11.2h31.4v41.3H439.6z M439.6,47.3h-26.9c-1.7,0.8-3.4,1.5-5.2,2.1v10h32.1L439.6,47.3z
	 M439.6,62.7h-32.1v13.2h32.1V62.7z"/>
</svg>
