<svg width="246" height="246" viewBox="0 0 246 246" fill="none" xmlns="http://www.w3.org/2000/svg">
<path d="M118.169 120.463C117.629 119.823 117.299 119.053 116.789 118.323C114.509 115.073 110.879 113.293 106.919 113.433C102.959 113.573 99.5089 115.663 97.4789 119.033C95.5289 122.273 95.2889 126.083 96.8089 129.533L92.1589 131.583C89.5789 132.723 86.5589 131.493 85.3589 128.883L71.6489 99.2031C70.8589 97.4831 71.1689 95.5131 72.1189 94.0431C73.0689 92.5731 74.3389 92.0431 75.8289 91.3831L101.879 79.8131C103.489 79.0931 104.989 78.5831 106.739 79.1631C108.489 79.7431 109.459 81.1431 110.189 82.7531L113.579 90.2631C114.849 89.7231 116.029 89.2331 117.269 88.6131C120.309 87.1031 123.879 87.1431 126.629 89.1431C129.379 91.1431 130.689 94.1531 130.129 97.4831C129.619 100.553 127.359 103.023 124.219 104.023C122.959 104.423 121.839 105.163 120.599 105.643L124.169 113.363C125.269 115.743 123.769 118.173 121.409 119.143L118.149 120.483L118.169 120.463ZM139.999 121.513C140.379 125.943 143.019 129.833 147.139 131.353C151.259 132.873 156.039 131.553 158.869 128.073C160.409 126.183 161.339 124.053 161.469 121.493C162.559 121.423 163.649 121.403 164.709 121.463C169.549 121.713 172.989 117.973 172.969 113.223L172.789 79.7831C172.769 76.1331 169.389 73.0631 165.859 73.0531L133.469 73.0031C131.199 73.0031 129.109 74.8731 129.099 77.0831L129.079 86.4331C132.969 89.2031 130.859 89.8731 134.569 89.7531C137.599 89.6531 140.349 91.1731 141.539 93.7331C142.829 96.5031 142.299 99.6331 140.159 101.783C136.899 105.083 133.029 103.373 131.579 104.143C130.679 104.623 129.619 105.643 129.149 106.503L129.039 115.943C129.009 118.533 130.549 121.313 133.339 121.373L139.979 121.503L139.999 121.513ZM143.979 117.573L134.019 117.543C133.319 117.543 133.029 116.733 133.029 116.113L133.109 107.743C137.719 108.243 142.089 106.453 144.459 102.713C147.669 97.6431 146.379 91.2131 141.459 87.8331C139.039 86.1731 136.219 85.6131 133.129 85.8831L133.049 77.5331C133.049 77.0931 133.369 76.8431 133.849 76.8431H165.299C167.239 76.8531 168.939 78.3231 168.949 80.3431L168.989 113.593C168.989 115.673 167.649 117.503 165.509 117.523L157.609 117.563C157.419 120.973 158.139 123.453 155.279 126.193C153.489 127.903 150.959 128.503 148.459 127.653C146.489 126.973 144.699 125.113 144.139 122.663C143.759 120.993 143.889 119.363 143.979 117.573ZM169.159 168.453C172.469 168.453 174.799 165.953 174.799 162.673L174.739 131.033C174.739 128.543 172.699 126.563 170.359 126.303C168.319 126.073 166.429 126.273 164.399 126.263C162.899 130.163 160.069 133.283 156.209 134.893C148.469 138.133 140.109 134.003 137.039 126.333C135.249 126.913 133.689 128.443 133.679 130.423L133.629 139.493L126.859 139.633C122.359 139.723 119.029 144.073 119.489 148.603C119.899 152.713 123.349 156.023 127.439 156.033L133.599 156.053L133.709 163.853C133.749 166.653 136.119 168.483 138.969 168.483L169.179 168.463L169.159 168.453ZM116.789 153.273C115.009 149.803 115.019 145.873 116.789 142.423C119.219 137.663 124.209 135.003 129.609 135.543L129.659 127.363C129.679 123.543 126.569 121.363 125.079 121.963L116.159 125.573L113.859 121.053C112.479 118.353 109.429 117.193 106.409 117.493C103.999 117.733 102.039 119.193 100.969 120.943C99.6289 123.133 99.4289 125.613 100.329 127.833C100.859 129.143 101.599 130.223 102.049 131.573L92.1889 135.913L89.8789 136.103C89.2589 136.153 89.6889 136.903 89.8789 137.323L104.539 169.313C106.109 172.733 109.339 173.843 112.779 172.343L129.669 164.993L129.589 160.093C124.129 160.613 119.199 157.933 116.809 153.263L116.789 153.273Z" fill="white"/>
</svg>
