<svg xmlns="http://www.w3.org/2000/svg" width="130.15" height="71.97" viewBox="0 0 130.15 71.97">
  <defs>
    <style>
      .cls-1 {
        fill: #fff;
      }
    </style>
  </defs>
  <g id="圖層_2" data-name="圖層 2">
    <g id="圖層_1-2" data-name="圖層 1">
      <g id="Bradn">
        <g>
          <path class="cls-1" d="M36.4,31.31c.36.36.72.54,1.08.18.18-.36.54-.9.36-1.26a1.21,1.21,0,0,0-.9-.54l-.36.18c0,.36,0,.54-.18.54S36,31.13,36.4,31.31Z"/>
          <path class="cls-1" d="M30.28,25.19c-.18.36.18.36.18.54.18.18,0,.18,0,.36s-.54,0,.36.18a4.16,4.16,0,0,0,2.16,0c.36-.18.54-.9,0-1.08a1.56,1.56,0,0,0-.9-.18c0-.18-.36-.18-.72-.18C30.82,24.83,30.46,24.83,30.28,25.19Z"/>
          <path class="cls-1" d="M17.87,21.59h.36a17.9,17.9,0,0,1,2.16-1.26c.54-.18,1.08-.72,1.08-.36s-.9.72-1.08.9-.9.54-.54.72c.18.18.18,0,.18,0,1.08,0,2.16-.18,2,.9s-.72,1.08-.54,1.62a2,2,0,0,1,.18,1.08,6.84,6.84,0,0,0,1.26,2.88c.18.18.9,0,1.08.18.18,0,.18.36.54.36.18-.18.71,0,.89-.72s0-1.8.54-1.8c.72-.18,1.62-.18,1.8-.54a4.25,4.25,0,0,1,1.8-.9.9.9,0,0,0,.73-1v0c-.36-.72,0-.9.18-1.26s-.36-.72-.9-1.08-.36-.9-.36-1.26-.54-.36-.9-.36-.36-.36-.9-.36a1,1,0,0,0-.9-.36,9.71,9.71,0,0,0-2.15.18,9,9,0,0,0-2.16.72s1.62-.72.9-.72a19.81,19.81,0,0,0-3.6.54c-.36.18,0,.18-.54.18-.36,0-1.8.72-1.62.9a.5.5,0,0,0,.36.18s-.72,0-.72.36S17.87,21.59,17.87,21.59Z"/>
          <path class="cls-1" d="M63.57,40.84c1.44,1.44,3.06,7.38,3.06,7.38,2.52-14.93-5-23.93-5-23.93A38.22,38.22,0,0,1,51.06,34.7,26.5,26.5,0,0,0,36.13,19.3c7.59-7,15-10.92,23.12-11.56,9.36-.9,11.88,8.09,11.88,8.09l8.1-4.49C77.25,5.22,73.65,0,63.93,0S41.22,5.33,28.56,17.5c-.74-.06-1.48-.1-2.24-.1a26.31,26.31,0,0,0-18.55,45C9.19,68.13,13.31,72,21.11,72a32.74,32.74,0,0,0,14-3.43,26.19,26.19,0,0,0,9.32-5.71C55,54.87,62.59,44.12,63.57,40.84Zm-13,.9A11.52,11.52,0,0,1,51.45,44c0,.24,0,.49,0,.73l-.09.13a8.14,8.14,0,0,0-.7-3.07Zm5-5a39.13,39.13,0,0,1-3,6.11,26.77,26.77,0,0,0-1.06-6.56ZM41.32,23.6c-.35,0-.52,0-.78-.21-.36-.54-.72-.72-.9-.72s-.36.18-.54.36c-.36.72.18,1.44.18,2s-.72.36-.54,1.44,1.26,2.34,1.8,2,1.62.18,1.26.36-1.08-.9-1.08,0a9.21,9.21,0,0,1-.18,2.34c0,.18-.18.36-.54.36.18-.18,0-.54,0-.54-.36-.72-.36-.54-.54-.72s-.18-.36-.36-.54,0-.18-.36-.18-.54-.36-.54-.72,0-.54-.36-.72-.9,0-.9.36,0,.9.36,1.08,1.08.36.9.72c0,.36-.36.72-.18.9s.36.18.36.54.36.36.9,0a2.33,2.33,0,0,1,.9-.18c-.54.36-1.26.54-1.08,1.08.18.72.72.36.9,1.08s.9,1.26,0,1.26-2.52-.54-2.52,0a3,3,0,0,1,.36,1.8c-.18.72,0,1.08.54,1.26a2,2,0,0,1,.72.36,2.92,2.92,0,0,1,.72-.18c.18-.18.72,0,.9-.18s.72-.54.54-.9c0-.36,0-.9.36-1.08s.18-.54.36-.72a.63.63,0,0,1,.54-.18c.18,0,.18-.36.54-.36.18,0,0,0,.54.54s1.26.54,1.62.9c.54.54.54.72.18.9s-.9.54-.54.72c.54.18,1.08.54.9.18,0-.36.18-1.08.18-1.26s.54-.54-.18-.72-1.62-1.26-1.8-1.44c0,0-.54-.72,0-.54a9.28,9.28,0,0,1,2,1.44l.72,1.44c.18.18.72,1.26.9,1.08s0-1.08-.18-1.26c-.18-.36.18-.9.36-.36.18.72.36,1.62.9,1.8.54,0,1.08-.54,1.08-.18a2.71,2.71,0,0,1,.18,1.26c0,.54,0,.9-.54.9-.36.17-.18.54-.36.54s-.72-.9-1.08-.9c-.36-.18-.9-.54-1.08,0s-.18,1.07-.54.9c-.54-.18-.9-.9-1.44-1.08s-.54-.54-.54-1.08,0-.72-.9-.54-2.34,0-2.7.54c-.54.36-1.44.18-2,.54-.36.54-1.26.54-1.26,1.25s.18,1.26-.72,1.8a3.33,3.33,0,0,0-1.26,1.8c-.18.54-.54.72-.36,1.44.18.54.54,1.08.18,1.8a1.63,1.63,0,0,0,.18,2c.36.54,1.08,1.26,1.08,1.62.18.36.36.18.9.72.36.36,1.62.36,2.16.36.54-.18,1.62-.9,2.34-.72a.73.73,0,0,1,.55.86v0s1.08-.72,1.08-.18-.9,1.62-.54,2.16a2.46,2.46,0,0,1,.36.77c-6.28,6.59-13.8,12.06-20.28,13.35a2.91,2.91,0,0,1-.41-1,7.2,7.2,0,0,1,2.69-5.94A12.63,12.63,0,0,0,29,56.32c.18-.9-.72-1.62-2.7-2.34a17,17,0,0,0-3.95-.54.77.77,0,0,0,.36-1,1.08,1.08,0,0,0-.18-.24,15.5,15.5,0,0,0-3.78-2c-.72-.36-.36-.9-1.8-.9a31,31,0,0,0-3.6-.18c-.54.18-.72.9-1.62.72s-1.62-.36-1.8-1.26c-.36-.9-.54-1.44-1.08-1.44s-.36-.18-.54-.9c0-.9-1.08-1.62-1.44-.9-.18,1.08-.9,1.08-.9-.18,0-1.08-.18-2.52.9-2.52A4.68,4.68,0,0,1,9.23,43c.72.36,1.44.9,1.26-.18s.36-2.33,1.8-4.13,2.52-3.06,3.24-3.06,1.26.36,2.34-.54.9-1.62,0-1.62-1.62-.36-1.08-.72a2.53,2.53,0,0,1,2-.18c.36,0,0,1.26,0,1.44s2.16.54,2.52.18-.18-1.26-.54-1.62c-.54-.36.54-.9,0-1.44s-2.16-.9-2.16-1.44.36-1.44-.36-1.62c-.54-.36-.9.54-1.26.54-.18.18-.18-.18-.54-.72a2.3,2.3,0,0,0-2-.72,9.31,9.31,0,0,0-.9,2.16c-1.26.54-.9,1.44-1.26,2-.18.36-.54.72-.36-.18.18-1.08-.54-.54-1.08-.72-.36-.36-2.16-1.26-1.08-1.8s1.8-1.8,2.34-1.62a4.89,4.89,0,0,0,1.62,0c.36,0,.18-.54,0-.72s.54-.54.72-.72.36-1.62.72-1.44c.54,0,1.26.18,1.26.54,0,.54-.72,1.08-1.08,1.26-.36,0-1.08.54-1.08.72s1.08-.18,1.08,0a1.89,1.89,0,0,0,1.08.9c.72.18,2,0,1.8-.72-.18-.54-.54-1.26-.18-1.08.18.18,1.44.18,1.44-.18s-1.26-.9-1.26-.9.54-.18.54-.36a2.85,2.85,0,0,0-.9-1.26c0-.36-.9-.9-1.44-.9.54,0,1.26.18,1.44-.18,0-.36-.54-.36-.9-.36s-.18-.36-.36-.36h-.36c-.18,0-.36,0-.36.18s.18.36,0,.36-.18-.36-.36-.36c-.36,0-.72.18-.72.36s0,.36.36.36h1.08c-.36.36-1.44.72-1.62,1.26s-1.08,1.08-.72.36,1.8-1.08,1.44-1.44c-.36-.18-.9.18-1.26.36a4.83,4.83,0,0,0-1.26,1.44c0,.36-1.44,1.26-1.08.72a23.69,23.69,0,0,1,1.62-2c.18-.18-.54-.18-.54-.18a.67.67,0,0,0,.06-.15A24.94,24.94,0,0,1,41.32,23.6Zm-31.23,1,.41-.34s0,0,0,.07c0,.18-.18.9-.36.9S10.05,24.79,10.09,24.56ZM1.64,39.06h0v1.44a15.68,15.68,0,0,0,.54,4.31c.36.54.9,1.08.72.36s-.54-2.7-.18-1.44c.36,1.08.9,2.34.9,2.34,1.62,2.34,3.78,2.88,5.22,4a7.44,7.44,0,0,0,2.88,1.26c.36.18-.18,1.08,0,2.88,0,1.44,3.24,4.68,4.5,5.22s1.44,2.16,2.16,4a12.64,12.64,0,0,0,3.92,4.89c-.36.06-.72.09-1.07.12A25.19,25.19,0,0,1,1.19,43.72,24.71,24.71,0,0,1,1.64,39.06ZM8,62.56l.28.27c.91,1.88,3.39,5.47,9.37,5.73h0C11.28,68.36,8.79,64.36,8,62.56Z"/>
          <polygon class="cls-1" points="124.93 35.99 109.27 63.7 107.83 35.99 102.98 35.99 82.82 71.97 88.22 71.97 103.7 44.26 105.14 71.97 109.99 71.97 130.15 35.99 124.93 35.99"/>
          <path class="cls-1" d="M83.9,56.14a9.76,9.76,0,0,0-5.57-5,5,5,0,0,1-3.24-3.42,6.73,6.73,0,0,1,2-5.58c5-5.21,12.41-1.8,14.57.18l1.8,1.62,2.34-4.13L94.7,38.69c-3.42-3.06-13.68-7.56-21,.18a10.47,10.47,0,0,0-3.24,9.71,9.26,9.26,0,0,0,6.12,6.84,4.61,4.61,0,0,1,3,2.34,4.11,4.11,0,0,1-.53,3.06,11.77,11.77,0,0,1-8.46,5.94,11.58,11.58,0,0,1-10.44-3.6l-1.62-1.62-2.34,4.14.72.72a16.71,16.71,0,0,0,11.88,5.21,13.57,13.57,0,0,0,2.7-.18A16.4,16.4,0,0,0,83.18,63,8.53,8.53,0,0,0,83.9,56.14Z"/>
        </g>
      </g>
    </g>
  </g>
</svg>
