<?xml version="1.0" encoding="utf-8"?>
<!-- Generator: Adobe Illustrator 26.5.0, SVG Export Plug-In . SVG Version: 6.00 Build 0)  -->
<svg version="1.1" id="_層_1" xmlns="http://www.w3.org/2000/svg" xmlns:xlink="http://www.w3.org/1999/xlink" x="0px" y="0px"
	 viewBox="0 0 610.8 631.7" style="enable-background:new 0 0 610.8 631.7;" xml:space="preserve">
<style type="text/css">
	.st0{fill:#FFFFFF;}
	.st1{fill:#42BA92;}
	.st2{fill:none;stroke:#4D4D4D;stroke-width:1.01;stroke-miterlimit:10;}
	.st3{fill:none;stroke:#4D4D4D;stroke-miterlimit:10;stroke-dasharray:0,0,3,5;}
	.st4{fill:none;stroke:#4D4D4D;stroke-miterlimit:10;}
	.st5{fill:#44B3C1;}
	.st6{fill:#4E6DAE;}
	.st7{fill:#465F97;}
	.st8{fill:#6161BC;}
	.st9{fill:#FFB31A;}
</style>
<rect x="-6.1" y="-6.2" class="st0" width="623" height="644"/>
<g>
	<g>
		<path d="M419.3,456h-5.1v-1.1h5.1V456z M420.7,465.2c-1.4,0.9-3.7,1.7-5.5,2.2c-0.2-0.3-0.7-0.8-1-1c1.8-0.4,4-1,5.3-1.7
			L420.7,465.2L420.7,465.2z M418.8,453.1h-4.3v-1h4.3V453.1z M416.5,457.4h11.6v7.2h-11.6V457.4z M417.8,459.5h9v-1.2h-9V459.5z
			 M417.8,461.6h9v-1.2h-9V461.6z M417.8,463.7h9v-1.3h-9V463.7z M422.1,453.3c-0.4,0.7-0.9,1.3-1.4,1.8c-0.2-0.2-0.7-0.5-1-0.7
			c0.9-0.9,1.7-2.1,2.1-3.4l1.2,0.3c-0.1,0.3-0.2,0.7-0.4,1h6l0.2,0l0.9,0.3c-0.5,0.9-1,2-1.5,2.6l-1.1-0.4c0.3-0.4,0.6-0.9,0.9-1.4
			h-2.9v0.2c0,0.2,0,0.4,0,0.6c1,1.1,2.9,1.8,5.3,2c-0.2,0.2-0.6,0.7-0.8,1.1c-2-0.3-3.8-1-4.9-2.1c-0.6,0.9-2,1.7-5.2,2.2
			c-0.1-0.3-0.5-0.8-0.7-1c4.7-0.6,5.1-1.9,5.1-2.8v-0.2H422.1L422.1,453.3z M424.8,464.7c1.9,0.6,4,1.4,5.3,2l-1.2,0.8
			c-1.1-0.6-3.1-1.4-5-2L424.8,464.7z"/>
		<path d="M420.6,473.1h-6.5V472h6.5V473.1z M419.9,484.4h-4v0.9h-1.1v-6h5.1L419.9,484.4L419.9,484.4z M414.8,475.5v-1.1h5.1v1.1
			H414.8z M414.8,476.8h5.1v1.1h-5.1V476.8z M415.9,480.3v3h2.9v-3H415.9z M417.3,471.9c-0.2-0.6-0.8-1.7-1.3-2.4l1-0.5
			c0.5,0.7,1,1.7,1.3,2.3L417.3,471.9L417.3,471.9z M428.6,470c-0.1,7.3-0.1,13.5,0.9,13.8c0.1,0,0.2-1.1,0.3-2.4
			c0.2,0.3,0.6,0.8,0.8,1c-0.2,2.5-0.8,3.1-1.6,2.8c-1.8-0.5-1.7-6.4-1.7-13.8h-3v5.3h2.4v1.2h-2.4v7.6H423v-7.6h-2.4v-1.2h2.4v-5.3
			h-2.2V470L428.6,470L428.6,470z"/>
		<path d="M430.2,500.7v1.3h-16.1v-1.3h7.2v-10.3h-6.3V489h14.2v1.4h-6.5v10.3H430.2z"/>
		<path d="M420.6,518.5c-1.3,1-3.7,1.9-5.5,2.3c-0.2-0.3-0.5-0.8-0.8-1c1.9-0.3,4.1-1,5.3-1.8L420.6,518.5L420.6,518.5z M430,516
			v1.1h-7.2v4.3h-1.3v-4.3h-7.1V516h7.1v-1.3h-5.4v-1h5.4v-1.3h-6.3v-1.1h3.9c-0.2-0.5-0.5-1.2-0.9-1.7l1-0.2h-4.6v-1.1h2.9
			c-0.3-0.7-0.9-1.8-1.4-2.6l1.1-0.4c0.6,0.8,1.3,1.9,1.5,2.6l-0.9,0.4h2.2V505h1.3v3.2h2.1V505h1.3v3.2h2.2L426,508
			c0.5-0.7,1.1-1.9,1.4-2.7l1.4,0.4c-0.5,0.9-1.1,1.9-1.6,2.6h2.8v1.1h-4.7l1.2,0.3c-0.4,0.6-0.9,1.2-1.2,1.7h4.1v1.1h-6.5v1.3h5.6
			v1h-5.6v1.3H430L430,516z M419.4,509.3c0.4,0.6,0.8,1.3,1,1.8l-0.7,0.2h5l-0.6-0.2c0.4-0.5,0.8-1.3,1.1-1.8H419.4L419.4,509.3z
			 M424.8,518c1.7,0.6,4,1.4,5.2,2l-0.8,0.8c-1.2-0.6-3.5-1.5-5.2-2.1L424.8,518L424.8,518z"/>
		<path d="M423,533.6c1.4,1.6,4.3,3.3,7.5,4c-0.3,0.3-0.6,0.8-0.9,1.2c-2.8-0.7-5.1-2.2-6.7-3.7v4.3h-1.4v-4.4
			c-1.8,1.7-4.2,3.1-6.7,3.8c-0.2-0.3-0.5-0.8-0.9-1.1c3-0.7,6-2.3,7.6-4.2v-1.5h-4.4v3.5h-1.4v-4.6h5.8v-1.4h-7.1v-1.2h7.1v-1.1
			h1.4v1.1h6.9v1.2H423v1.4h5.8v3.3c0,0.7-0.1,0.9-0.6,1.1c-0.5,0.2-1.2,0.2-2.2,0.2c-0.1-0.3-0.3-0.8-0.5-1.1c0.7,0,1.4,0,1.6,0
			c0.2,0,0.3-0.1,0.3-0.2V532H423L423,533.6L423,533.6z M416.9,525.4c-0.6,0.9-1.2,1.7-1.9,2.3c-0.2-0.2-0.6-0.7-0.9-0.9
			c1.1-1,2.1-2.4,2.7-3.9l1.2,0.3c-0.1,0.4-0.3,0.7-0.5,1.1h4.6v1.1h-3.4c0.6,0.5,1.3,1.2,1.6,1.6l-0.9,0.8
			c-0.3-0.5-1.1-1.3-1.7-1.8l0.7-0.5L416.9,525.4L416.9,525.4z M424.3,525.4c-0.4,0.6-0.9,1.2-1.4,1.7c-0.2-0.2-0.7-0.6-1-0.8
			c1-0.8,1.8-2,2.2-3.3l1.2,0.3c-0.1,0.4-0.3,0.7-0.5,1.1h5.4v1.1h-3.9c0.6,0.5,1.4,1.2,1.8,1.6l-0.9,0.8c-0.4-0.5-1.2-1.2-1.9-1.8
			l0.8-0.6H424.3z"/>
		<path d="M418.4,549.6c-0.3,1.6-0.9,3.3-1.5,4.7c0.3,0.2,0.8,0.5,1.4,0.9c1.3,0.8,2.9,0.9,5,0.9c2.3,0,5.2-0.2,7.2-0.4
			c-0.2,0.4-0.4,1-0.4,1.4c-1.3,0.1-4.8,0.2-6.9,0.2c-2.4,0-3.9-0.2-5.3-1c-0.7-0.4-1.4-1-1.8-1s-1,1.1-1.5,2.3l-0.9-1.2
			c0.6-0.9,1.3-1.6,1.8-2c0.5-1,1-2.5,1.3-3.8h-2.4c0.5-1.1,1.1-2.6,1.5-4h-2v-1.2h3.7c-0.5,1.3-1,2.8-1.5,4h1.2l0.2,0L418.4,549.6
			L418.4,549.6z M415.9,544.4c-0.2-0.8-0.6-2-0.9-3l1.2-0.4c0.3,0.9,0.7,2.1,1,2.9L415.9,544.4L415.9,544.4z M420.1,546.4
			c-0.4,0.6-0.9,1.1-1.3,1.5c-0.2-0.3-0.6-0.9-0.8-1.2c1.6-1.4,2.9-3.5,3.7-5.8l1.2,0.3c-0.3,0.9-0.7,1.8-1.2,2.6h3.6
			c-0.3-0.7-0.7-1.5-1.1-2.2l1.2-0.4c0.5,0.8,1,1.8,1.3,2.6h3.1v1.2H426v1.8h3.3v1.1H426v1.8h3.2v1.1H426v1.9h4.2v1.2h-8.8v1h-1.3
			L420.1,546.4L420.1,546.4z M424.7,545.1h-3.4v1.8h3.4V545.1z M424.7,548h-3.4v1.8h3.4V548z M424.7,550.9h-3.4v1.9h3.4V550.9z"/>
		<path d="M423.2,559.4c-0.1,0.1-0.2,0.2-0.2,0.3c1.7,1.6,4.8,3.1,7.6,3.8c-0.3,0.2-0.6,0.7-0.9,1c-1.5-0.4-3-1-4.4-1.8v0.6h-6.2
			v-0.5c-1.4,0.8-2.9,1.4-4.4,1.8c-0.1-0.2-0.5-0.8-0.8-1c3.3-0.9,6.5-2.5,8.1-4.6L423.2,559.4L423.2,559.4z M416.2,564.1h12v4.5
			h-12V564.1z M417.2,569.5h10.1v5.8H426v-0.5h-7.5v0.6h-1.3L417.2,569.5L417.2,569.5z M417.3,567.7h4.2v-2.7h-4.2V567.7z
			 M419.4,565.3c0.5,0.6,0.9,1.5,1.1,2l-1,0.4c-0.1-0.6-0.6-1.4-1-2.1L419.4,565.3L419.4,565.3z M418.5,570.5v1.2h7.5v-1.2H418.5z
			 M426,573.9v-1.2h-7.5v1.2H426z M424.6,562.3c-0.9-0.5-1.7-1.2-2.4-1.8c-0.7,0.7-1.5,1.3-2.3,1.8H424.6z M427,565.1h-4.3v2.7h4.3
			V565.1z M423.9,567.3c0.3-0.6,0.8-1.5,1-2.2l1.1,0.4c-0.4,0.8-0.9,1.6-1.2,2.1L423.9,567.3z"/>
	</g>
	<g>
		<path d="M453.8,454h-5.6v2.9h-1.3v-3.9h6.9v-1.1h-6.1v-1h13.6v1h-6.2v1.1h7v3.9h-1.3V454h-5.7v4.1h-1.3V454z M460.4,465.4
			c1,0,1.1-0.3,1.2-2.1c0.3,0.2,0.8,0.4,1.2,0.4c-0.2,2.2-0.6,2.7-2.3,2.7h-4.1c-2,0-2.6-0.4-2.6-1.8v-0.6h-4v0.9h-1.3v-6.2h12.1
			v5.3h-5.6v0.6c0,0.6,0.2,0.7,1.3,0.7H460.4L460.4,465.4z M448.5,457.1c1.1-0.1,2.7-0.3,4.3-0.6l0,0.9c-1.4,0.3-2.8,0.6-3.9,0.8
			L448.5,457.1L448.5,457.1z M449.4,454.4c1.1,0.2,2.6,0.6,3.5,0.9l-0.4,0.8c-0.8-0.4-2.3-0.8-3.5-1L449.4,454.4L449.4,454.4z
			 M449.8,459.7v1.2h4v-1.2H449.8z M453.8,463.1v-1.2h-4v1.2H453.8z M459.3,459.7H455v1.2h4.2V459.7z M459.3,463.1v-1.2H455v1.2
			H459.3z M460.1,458.2c-1-0.3-2.8-0.8-4.2-1l0.3-0.8c1.4,0.2,3.2,0.5,4.2,0.9L460.1,458.2L460.1,458.2z M460.1,455
			c-1,0.4-2.5,0.8-3.5,1l-0.5-0.7c1-0.2,2.5-0.8,3.4-1.1L460.1,455L460.1,455z"/>
		<path d="M451.4,468.7c-0.4,1.2-0.9,2.4-1.5,3.5v12.5h-1.2v-10.4c-0.5,0.9-1.1,1.6-1.7,2.3c-0.1-0.3-0.5-0.9-0.7-1.2
			c1.6-1.8,3.1-4.4,4-7.1L451.4,468.7L451.4,468.7z M462.5,471.2v1.1h-11.4v-1.1H462.5z M452.2,478.9h9.1v5.7h-1.2V484h-6.8v0.7
			h-1.2L452.2,478.9L452.2,478.9z M461.1,474.9h-8.7v-1.1h8.7V474.9z M452.4,476.3h8.7v1.1h-8.7V476.3z M453.3,480v2.9h6.8V480
			H453.3z M456.5,471.1c-0.2-0.6-0.8-1.7-1.2-2.4l1.1-0.5c0.5,0.8,1.1,1.7,1.3,2.3L456.5,471.1L456.5,471.1z"/>
		<path d="M452.2,495.3c-0.7,0.2-1.5,0.4-2.2,0.6v5.1c0,0.8-0.2,1.1-0.7,1.3c-0.5,0.2-1.2,0.2-2.4,0.2c0-0.3-0.2-0.9-0.4-1.2
			c0.9,0,1.6,0,1.9,0c0.3,0,0.4-0.1,0.4-0.3v-4.7l-2.2,0.6l-0.4-1.3c0.7-0.2,1.6-0.4,2.5-0.6v-3.9h-2.3v-1.3h2.3v-3.6h1.3v3.6h2v1.3
			h-2v3.6c0.6-0.2,1.3-0.4,2-0.6L452.2,495.3L452.2,495.3z M461.8,493.3c-0.8,2.5-2,4.4-3.7,5.9c1.3,1.1,2.8,1.8,4.6,2.3
			c-0.3,0.3-0.7,0.8-0.9,1.1c-1.9-0.6-3.5-1.4-4.8-2.6c-1.5,1.2-3.3,2-5.1,2.6c-0.1-0.4-0.5-0.9-0.7-1.2c1.8-0.5,3.4-1.2,4.9-2.3
			c-1.3-1.4-2.2-3-3-4.9l0,0h-0.6V493h3.9v-2.7h-4.2v-1.2h4.2v-2.8h1.3v2.8h4.3v1.2h-4.3v2.7h2.9l0.2,0L461.8,493.3L461.8,493.3z
			 M454.5,494.2c0.6,1.6,1.5,3,2.6,4.1c1.2-1.1,2.2-2.5,2.9-4.1H454.5z"/>
		<path d="M451,508.2c-0.4,0.9-1,1.8-1.5,2.7v9.8h-1.2v-8.1c-0.5,0.6-1,1.1-1.5,1.6c-0.1-0.3-0.6-0.9-0.8-1.2c1.5-1.2,3-3.2,3.9-5.2
			L451,508.2L451,508.2z M450.6,504.7c-0.9,1.5-2.3,3.1-3.6,4.2c-0.1-0.3-0.5-0.7-0.7-1c1.2-0.9,2.5-2.4,3.1-3.6L450.6,504.7
			L450.6,504.7z M452.7,511c0,3.5-0.2,5.8-1.6,7.2c-0.1-0.2-0.5-0.6-0.7-0.8c1.1-1.2,1.3-3.2,1.3-6.4L452.7,511L452.7,511z
			 M454.8,509.8v10.8h-1.2v-10.8H451v-1.2h2.7v-4.2h1.2v4.2h3v1.2L454.8,509.8L454.8,509.8z M457.1,508.1c-0.3-0.6-1-1.7-1.6-2.4
			l0.9-0.5c0.6,0.7,1.3,1.7,1.6,2.4L457.1,508.1L457.1,508.1z M457.7,516.7c0.2,0,0.4,0,0.6,0c0,0.3,0.1,0.7,0.1,1
			c-0.2,0-0.4,0.1-0.7,0.1h-0.6c-1,0-1.2-0.4-1.2-1.6v-5h1v5c0,0.5,0,0.6,0.2,0.6L457.7,516.7L457.7,516.7z M462.7,511.1h-1.6v7.8
			c0,0.8-0.1,1.1-0.6,1.3c-0.5,0.2-1.3,0.2-2.6,0.2c0-0.4-0.2-0.9-0.4-1.3c0.9,0,1.8,0,2,0c0.2,0,0.3-0.1,0.3-0.3v-7.8h-2.1v-1.2h5
			V511.1L462.7,511.1z M462.5,506.9h-4.3v-1.2h4.3V506.9z"/>
		<path d="M461.7,525.4v8.4h-1.4v-1h-5.2v5.8h-1.4v-5.8h-5.1v1.1h-1.3v-8.5h6.5v-3.2h1.4v3.2L461.7,525.4L461.7,525.4z M453.8,531.5
			v-4.8h-5.1v4.8H453.8z M460.3,531.5v-4.8h-5.2v4.8H460.3z"/>
		<path d="M449.3,546.8c-0.3,2.1-0.9,5.2-1.6,7.1l-1.3-0.6c0.8-1.8,1.4-4.7,1.6-6.8L449.3,546.8L449.3,546.8z M452.2,545.2v8.9
			c0,0.8,0.2,1,1.2,1h3.4c1.1,0,1.3-0.6,1.4-3.7c0.3,0.2,0.9,0.5,1.3,0.6c-0.2,3.4-0.6,4.4-2.6,4.4h-3.6c-1.9,0-2.5-0.5-2.5-2.3
			v-8.9L452.2,545.2L452.2,545.2z M452.6,540.9c1.7,1.2,3.8,2.8,4.8,4l-1,1c-1-1.1-3.1-2.9-4.8-4.1L452.6,540.9L452.6,540.9z
			 M460.4,546.1c1,2.1,2,4.9,2.4,6.8l-1.3,0.5c-0.4-1.8-1.3-4.7-2.3-6.8L460.4,546.1L460.4,546.1z"/>
	</g>
	<g>
		<path d="M489.7,453c1.8,1.5,3.8,3.7,4.8,5.2l-1.1,0.8c-0.3-0.5-0.6-1-1.1-1.5c-10.3,0.6-11.3,0.6-12,0.9c0-0.3-0.3-1-0.4-1.3
			c0.4-0.1,0.9-0.5,1.5-1.1c0.6-0.6,2.7-2.8,4.1-5.1l1.3,0.6c-1.4,1.9-3,3.8-4.6,5.3l9.2-0.5c-0.8-0.9-1.8-1.9-2.6-2.6L489.7,453
			L489.7,453z M481.1,459.9h11.5v7.5h-1.4v-0.9h-8.7v1h-1.4V459.9L481.1,459.9z M482.5,461.1v4h8.7v-4H482.5z"/>
		<path d="M481.1,476.8c-0.5-0.6-1.7-1.4-2.6-1.9l0.8-0.9c0.9,0.5,2.1,1.2,2.6,1.8L481.1,476.8L481.1,476.8z M478.9,484.5
			c0.6-1.4,1.6-3.7,2.2-5.7l1,0.7c-0.6,1.9-1.4,4.1-2.1,5.7L478.9,484.5L478.9,484.5z M481.4,472.1c-0.5-0.6-1.6-1.4-2.5-2l0.8-0.9
			c0.9,0.5,2,1.3,2.5,1.9L481.4,472.1L481.4,472.1z M483.4,475.6c-0.2,0.9-0.5,1.9-0.8,2.5c-0.1-0.1-0.5-0.3-0.7-0.4
			c0.3-0.6,0.5-1.4,0.7-2.2L483.4,475.6L483.4,475.6z M485.8,474.9c0-0.2-0.1-0.4-0.2-0.6c-2.5,0.3-2.9,0.4-3.1,0.6
			c0-0.2-0.2-0.5-0.3-0.7c0.3,0,0.5-0.3,0.8-0.6c0.2-0.2,0.6-0.7,1.1-1.4c-1.2,0.1-1.5,0.2-1.7,0.2c0-0.2-0.2-0.5-0.3-0.7
			c0.2,0,0.4-0.2,0.6-0.5c0.2-0.2,0.8-1.3,1.1-2.2l0.9,0.3c-0.3,0.8-0.8,1.5-1.2,2.1l1.2-0.1c0.2-0.3,0.3-0.5,0.5-0.8l0.8,0.3
			c-0.6,1-1.4,2-2.2,2.9l1.6-0.2c-0.1-0.2-0.2-0.4-0.3-0.6l0.7-0.2c0.4,0.6,0.7,1.3,0.9,1.8L485.8,474.9L485.8,474.9z M494.2,481.8
			c0,0,0,0.4-0.1,0.5c-0.3,1.5-0.7,2.3-1.2,2.7c-0.4,0.3-0.8,0.3-1.4,0.3c-0.5,0-1.6,0-2.8-0.1c0-0.3-0.2-0.7-0.4-1
			c1.1,0.1,2.3,0.1,2.8,0.1c0.4,0,0.6,0,0.8-0.1c0.3-0.2,0.5-0.7,0.8-1.5h-9.5c0.3-0.8,0.6-1.8,0.8-2.7h8.1v-0.9h-8.8v-0.9h10v2.7
			h-8.3c-0.1,0.3-0.2,0.6-0.2,0.9L494.2,481.8L494.2,481.8z M484.2,477.8c0-0.6-0.2-1.5-0.4-2.2l0.7-0.2c0.2,0.7,0.4,1.6,0.4,2.1
			L484.2,477.8L484.2,477.8z M485.8,475.1c0.3,0.6,0.6,1.4,0.6,1.9l-0.7,0.3c-0.1-0.5-0.3-1.4-0.6-2L485.8,475.1L485.8,475.1z
			 M490.6,471.6h-4.3v-0.8h1.9c-0.1-0.4-0.5-1-0.7-1.4l0.9-0.2c0.3,0.4,0.6,1,0.8,1.4l-0.8,0.2h2.2L490.6,471.6L490.6,471.6z
			 M486.8,474.9h3.4v2.6h-3.4V474.9z M490.1,473h-3.3v-0.8h3.3V473z M486.8,473.5h3.3v0.7h-3.3V473.5z M487.7,476.9h1.6v-1.2h-1.6
			V476.9z M491.8,475.5c-0.2,0.9-0.5,1.8-0.8,2.5c-0.1-0.1-0.5-0.4-0.7-0.5c0.4-0.6,0.6-1.4,0.7-2.2L491.8,475.5L491.8,475.5z
			 M494.3,474.9c0-0.2-0.1-0.4-0.2-0.7c-2.5,0.3-2.9,0.5-3.1,0.5c0-0.1-0.2-0.5-0.3-0.7c0.3,0,0.5-0.2,0.9-0.6
			c0.2-0.2,0.6-0.7,1.1-1.4c-1.2,0.1-1.5,0.2-1.7,0.3c0-0.2-0.2-0.5-0.3-0.7c0.2,0,0.3-0.2,0.5-0.5c0.2-0.2,0.8-1.3,1.1-2.2l0.9,0.3
			c-0.3,0.7-0.8,1.5-1.2,2.1l1.2-0.1c0.2-0.3,0.3-0.5,0.5-0.8l0.8,0.4c-0.6,1-1.4,2-2.2,2.9l1.6-0.2c-0.1-0.2-0.2-0.4-0.3-0.6
			l0.6-0.2c0.4,0.6,0.8,1.4,0.9,1.9L494.3,474.9L494.3,474.9z M492.6,477.9c0-0.6-0.2-1.6-0.5-2.4l0.7-0.2c0.2,0.8,0.4,1.8,0.5,2.3
			L492.6,477.9L492.6,477.9z M494.1,475c0.4,0.7,0.7,1.7,0.8,2.3l-0.7,0.3c-0.1-0.6-0.4-1.6-0.7-2.4L494.1,475z"/>
		<path d="M480.5,498.6c-0.2,1.6-0.5,3.2-0.9,4.3c-0.2-0.1-0.7-0.3-1-0.4c0.4-1.1,0.7-2.7,0.9-4.1L480.5,498.6L480.5,498.6z
			 M484,493.8c0.5,1.1,1,2.6,1.2,3.4l-1,0.4c0-0.2-0.1-0.6-0.2-0.9c-4,0.6-4.6,0.8-4.9,0.9c0-0.3-0.2-0.9-0.4-1.2
			c0.4-0.1,0.8-0.5,1.3-1.2c0.3-0.3,0.9-1.1,1.5-2.1c-1.9,0.2-2.2,0.3-2.5,0.4c-0.1-0.2-0.2-0.9-0.4-1.1c0.3-0.1,0.6-0.5,1-1
			c0.4-0.5,1.6-2.6,2.3-4.5l1.1,0.5c-0.8,1.7-1.7,3.5-2.7,4.8l1.9-0.2c0.5-0.8,0.9-1.6,1.3-2.5l1,0.6c-1.1,2.1-2.5,4.3-3.9,6
			l3.1-0.4c-0.2-0.6-0.4-1.1-0.6-1.7L484,493.8L484,493.8z M482.2,498.4c0.2,1.2,0.5,2.7,0.5,3.8l-1,0.2c0-1.1-0.2-2.6-0.4-3.9
			L482.2,498.4z M484.1,497.9c0.4,1.1,0.9,2.5,1.1,3.5l-0.9,0.3c-0.2-1-0.6-2.4-1-3.5L484.1,497.9L484.1,497.9z M494.6,501.9
			c0,0.7-0.1,1.1-0.6,1.3c-0.4,0.2-1.2,0.2-2.3,0.2c0-0.3-0.2-0.9-0.3-1.2c0.8,0,1.5,0,1.7,0c0.2,0,0.3-0.1,0.3-0.3V489h-6.7v14.4
			h-1.2v-15.6h9.2L494.6,501.9L494.6,501.9z M491.7,498.9c0.3,0,0.8,0,1.1-0.1c0,0.3,0.1,0.7,0.1,1c-0.2,0.1-0.7,0.1-1.1,0.1h-2.3
			c-1.2,0-1.5-0.4-1.5-1.6v-1.8h-0.7v-1.1h2.5c-0.2-0.5-0.5-1.1-0.7-1.6l0.8-0.3h-2.8v-1.1h3.4c0.3-0.9,0.7-2.1,0.9-3l1,0.3
			c-0.3,0.9-0.6,1.9-0.9,2.7h1.5v1.1h-3c0.3,0.5,0.6,1.2,0.8,1.6l-0.6,0.3h2.7v1.1h-3.7v1.8c0,0.5,0,0.6,0.4,0.6H491.7L491.7,498.9z
			 M488.6,489.5c0.5,0.8,0.9,1.9,1,2.6l-0.9,0.3c-0.1-0.7-0.5-1.8-0.9-2.6L488.6,489.5L488.6,489.5z"/>
		<path d="M493.8,507.1c-0.6,1.9-1.5,3.5-2.6,4.8c1.1,1.1,2.5,2,4.1,2.6c-0.3,0.2-0.6,0.8-0.8,1.1c-0.2-0.1-0.4-0.2-0.6-0.2v5.9
			h-1.3v-0.6h-4.5v0.7h-1.2v-6c-0.4,0.2-0.7,0.3-1.1,0.5c-0.1-0.3-0.4-0.6-0.6-0.9h-1.9v3.2c0.8-0.2,1.6-0.4,2.4-0.6l0.1,1.2
			c-2.5,0.6-5,1.2-6.9,1.7l-0.2-1.3l0.9-0.2v-6.1h1.1v5.9l1.4-0.3v-7.3h-2.5v-5.5h5.8v4.8c1.4-1.4,2.6-3.4,3.3-5.5l1.3,0.3
			c-0.2,0.5-0.4,1-0.6,1.5h3.5l0.2,0L493.8,507.1L493.8,507.1z M480.7,510h3.4v-3.1h-3.4V510z M485.5,514.7c1.4-0.6,2.9-1.6,4.1-2.8
			c-0.7-0.8-1.2-1.7-1.7-2.5c-0.5,0.8-1.1,1.5-1.6,2.1c-0.2-0.2-0.6-0.6-0.9-0.8v0.5h-2.1v2.6h2.2L485.5,514.7L485.5,514.7z
			 M493,514.9c-1-0.6-1.9-1.3-2.7-2.1c-0.8,0.8-1.8,1.5-2.7,2.1H493L493,514.9z M492.6,519.5v-3.5h-4.5v3.5H492.6z M488.7,508
			l-0.2,0.3c0.5,0.9,1,1.8,1.8,2.7c0.8-0.9,1.4-1.9,1.8-3H488.7z"/>
		<path d="M483.9,527.9h-5.1v-1.1h5.1V527.9z M485.3,537.2c-1.4,0.9-3.7,1.7-5.5,2.2c-0.2-0.3-0.7-0.8-1-1c1.8-0.4,4-1,5.3-1.7
			L485.3,537.2L485.3,537.2z M483.5,525.1h-4.3v-1h4.3V525.1z M481.1,529.3h11.6v7.2h-11.6V529.3z M482.4,531.4h9v-1.2h-9V531.4z
			 M482.4,533.5h9v-1.2h-9V533.5z M482.4,535.6h9v-1.3h-9V535.6z M486.7,525.2c-0.4,0.7-0.9,1.3-1.4,1.8c-0.2-0.2-0.7-0.5-1-0.7
			c0.9-0.8,1.7-2.1,2.1-3.4l1.2,0.3c-0.1,0.3-0.2,0.7-0.4,1h6l0.2,0l0.9,0.3c-0.5,0.9-1,2-1.5,2.6l-1.1-0.4c0.3-0.4,0.6-0.9,0.9-1.4
			h-2.9v0.2c0,0.2,0,0.4,0,0.6c1,1.1,2.9,1.8,5.3,2c-0.2,0.2-0.6,0.7-0.8,1.1c-2-0.3-3.8-1-4.9-2.1c-0.6,0.9-2,1.7-5.2,2.2
			c-0.1-0.3-0.5-0.8-0.7-1c4.7-0.6,5.1-1.8,5.1-2.8v-0.2L486.7,525.2L486.7,525.2z M489.4,536.6c1.9,0.6,4,1.4,5.3,2l-1.2,0.8
			c-1.1-0.6-3.1-1.3-5-2L489.4,536.6L489.4,536.6z"/>
		<path d="M485.2,545.1h-6.5V544h6.5V545.1z M484.5,556.3h-4v0.8h-1.1v-6h5.1L484.5,556.3L484.5,556.3z M479.5,547.4v-1.1h5.1v1.1
			H479.5z M479.5,548.7h5.1v1.1h-5.1V548.7z M480.5,552.2v3h2.9v-3H480.5z M481.9,543.8c-0.2-0.7-0.8-1.7-1.3-2.4l1-0.5
			c0.5,0.7,1,1.7,1.3,2.3L481.9,543.8z M493.2,542c-0.1,7.3-0.1,13.5,0.9,13.8c0.1,0,0.2-1.1,0.3-2.4c0.2,0.3,0.6,0.8,0.8,1
			c-0.2,2.5-0.8,3.1-1.6,2.8c-1.8-0.5-1.7-6.4-1.7-13.8h-3v5.3h2.4v1.2h-2.4v7.6h-1.3v-7.6h-2.4v-1.2h2.4v-5.3h-2.2V542L493.2,542
			L493.2,542z"/>
		<path d="M494,562.2v8.4h-1.4v-1h-5.2v5.8h-1.4v-5.8h-5.1v1.1h-1.3v-8.5h6.5v-3.2h1.4v3.2L494,562.2L494,562.2z M486.1,568.2v-4.8
			h-5.1v4.8H486.1z M492.6,568.2v-4.8h-5.2v4.8H492.6z"/>
		<path d="M481.6,583.5c-0.3,2.1-0.9,5.2-1.6,7.1l-1.3-0.6c0.8-1.8,1.4-4.7,1.6-6.8L481.6,583.5L481.6,583.5z M484.5,582v8.9
			c0,0.8,0.2,1,1.2,1h3.4c1.1,0,1.3-0.6,1.4-3.7c0.3,0.2,0.9,0.5,1.3,0.6c-0.2,3.4-0.6,4.4-2.6,4.4h-3.6c-1.9,0-2.5-0.5-2.5-2.3
			v-8.9L484.5,582L484.5,582z M484.9,577.6c1.7,1.2,3.8,2.8,4.8,4l-1,1c-1-1.1-3.1-2.9-4.8-4.1L484.9,577.6L484.9,577.6z
			 M492.7,582.8c1,2.1,2,4.9,2.4,6.8l-1.3,0.5c-0.4-1.8-1.3-4.7-2.3-6.8L492.7,582.8L492.7,582.8z"/>
	</g>
</g>
<g>
	<path d="M162.4,451v15.6h-1.3v-0.8h-12.3v0.8h-1.3V451H162.4z M161.1,464.6v-12.4h-12.3v12.4H161.1z M155.1,461.8
		c-1.9,0.4-3.8,0.7-5.3,1l-0.2-1c1.4-0.2,3.4-0.6,5.4-0.9L155.1,461.8z M159.5,456.6c-0.4,1.7-1.1,3.1-2,4.4c0.4,1,0.9,1.6,1.4,1.7
		c0.2,0,0.4-0.7,0.5-1.8c0.2,0.2,0.6,0.5,0.9,0.6c-0.2,1.9-0.8,2.6-1.8,2.3c-0.8-0.2-1.4-0.8-1.8-1.8c-0.7,0.8-1.5,1.5-2.4,2.1
		c-0.2-0.2-0.6-0.6-0.8-0.9c1.1-0.6,2-1.4,2.8-2.4c-0.4-1.4-0.8-3.3-1-5.3h-5.5v-1h5.4c-0.1-0.6-0.1-1.3-0.1-1.9h1.1
		c0,0.6,0.1,1.3,0.1,1.9h3.9v1h-3.8c0.2,1.5,0.4,2.9,0.7,4.1c0.6-1,1-2,1.3-3.3L159.5,456.6L159.5,456.6z M154.4,456.7v3.5h-4v-3.5
		H154.4z M153.4,457.5h-2.1v1.9h2.1V457.5z M159.1,454.4c-0.4-0.4-1.2-1-1.9-1.3l0.6-0.7c0.7,0.3,1.5,0.8,1.9,1.2L159.1,454.4
		L159.1,454.4z"/>
	<path d="M161.3,475.4c-0.8,0.7-1.8,1.4-2.8,2c0.8,2.4,2.5,4.4,4.8,5.3c-0.3,0.2-0.7,0.8-0.9,1.1c-2.3-1-4-3.1-5-5.7
		c-0.3,0.2-0.6,0.4-0.9,0.5c0.6,2.3,0.2,4.5-0.8,5.3c-0.6,0.5-1,0.6-1.8,0.6c-0.4,0-1,0-1.6,0c0-0.4-0.1-0.9-0.3-1.3
		c0.6,0,1.2,0.1,1.6,0.1c0.5,0,0.8,0,1.1-0.4c0.5-0.4,0.9-1.6,0.7-3.1c-2.1,1.6-5.1,3.1-7.7,3.9c-0.1-0.3-0.4-0.8-0.7-1.1
		c2.9-0.7,6.4-2.3,8.2-4c-0.1-0.4-0.3-0.9-0.5-1.3c-1.8,1.2-4.5,2.5-6.7,3.1c-0.1-0.3-0.4-0.8-0.7-1c2.2-0.5,5.3-1.8,6.8-3
		c-0.2-0.4-0.5-0.7-0.9-1.1c-1.6,0.9-3.5,1.6-5.2,2.1c-0.1-0.3-0.5-0.8-0.7-1.1c2.3-0.5,4.7-1.4,6.4-2.6h-4.1v-1.2h10.4v1.2h-4.5
		c-0.4,0.3-0.8,0.6-1.3,1c0.8,0.8,1.5,1.8,1.8,2.8c1.4-0.9,2.9-2.1,3.9-3L161.3,475.4L161.3,475.4z M148.9,473.4h-1.3v-3.7h6.8
		c-0.2-0.5-0.4-0.9-0.7-1.3l1.4-0.4c0.3,0.5,0.7,1.2,0.9,1.7h6.6v3.7h-1.4v-2.5h-12.3L148.9,473.4L148.9,473.4z"/>
	<path d="M152.1,491.1H147V490h5.1V491.1z M153.5,500.4c-1.4,0.9-3.7,1.7-5.5,2.2c-0.2-0.3-0.7-0.8-1-1c1.8-0.4,4-1,5.3-1.7
		L153.5,500.4L153.5,500.4z M151.7,488.2h-4.3v-1h4.3V488.2z M149.3,492.5H161v7.2h-11.6V492.5z M150.6,494.6h9v-1.2h-9V494.6z
		 M150.6,496.7h9v-1.2h-9V496.7z M150.6,498.8h9v-1.3h-9V498.8z M154.9,488.4c-0.4,0.7-0.9,1.3-1.4,1.8c-0.2-0.2-0.7-0.5-1-0.7
		c0.9-0.9,1.7-2.1,2.1-3.4l1.2,0.3c-0.1,0.3-0.2,0.7-0.4,1h6l0.2,0l0.9,0.3c-0.4,0.9-1,2-1.5,2.6l-1.1-0.4c0.3-0.4,0.6-0.9,0.9-1.4
		H158v0.2c0,0.2,0,0.4-0.1,0.6c0.9,1.1,2.9,1.8,5.3,2c-0.2,0.2-0.6,0.7-0.8,1.1c-2.1-0.3-3.8-1-4.9-2.1c-0.6,0.9-2,1.7-5.2,2.2
		c-0.1-0.3-0.5-0.8-0.7-1c4.7-0.6,5.1-1.9,5.1-2.8v-0.2H154.9L154.9,488.4z M157.6,499.8c1.9,0.6,4,1.4,5.3,2l-1.2,0.8
		c-1.1-0.6-3.1-1.4-5-2L157.6,499.8z"/>
	<path d="M151.2,512.7c-0.3,1.6-0.9,3.3-1.5,4.7c0.4,0.2,0.8,0.5,1.5,0.9c1.3,0.8,2.9,0.9,5,0.9c2.3,0,5.2-0.2,7.2-0.4
		c-0.2,0.4-0.4,1-0.4,1.4c-1.4,0.1-4.8,0.2-6.9,0.2c-2.4,0-3.9-0.2-5.3-1c-0.7-0.4-1.4-1-1.8-1s-1,1.1-1.5,2.3l-0.9-1.2
		c0.6-0.9,1.2-1.6,1.8-2c0.5-1,1-2.5,1.3-3.8h-2.3c0.5-1.1,1.1-2.6,1.6-4h-2v-1.2h3.7c-0.4,1.3-1,2.8-1.5,4h1.2l0.2,0L151.2,512.7
		L151.2,512.7z M148.8,507.5c-0.2-0.8-0.6-2-0.9-3l1.2-0.3c0.3,0.9,0.7,2.1,0.9,2.9L148.8,507.5L148.8,507.5z M153.8,517.9h-1.3
		v-9.3h5.1c-1.1-0.5-2.4-1.1-3.4-1.5l0.9-0.7c0.8,0.2,1.7,0.6,2.5,1c0.9-0.4,1.8-0.9,2.5-1.4h-7.5v-1.1h8.8l0.3-0.1l0.8,0.6
		c-0.9,0.9-2.3,1.8-3.6,2.5c0.5,0.3,1,0.5,1.4,0.7h2.3v7.9c0,0.7-0.1,1-0.6,1.2s-1.2,0.2-2.4,0.2c-0.1-0.3-0.2-0.8-0.4-1.1
		c0.9,0,1.6,0,1.8,0c0.2,0,0.3-0.1,0.3-0.3v-1.6h-3.1v2.9h-1.2v-2.9h-3L153.8,517.9L153.8,517.9z M153.8,509.6v1.6h3v-1.6H153.8z
		 M156.9,513.8v-1.6h-3v1.6H156.9z M161.2,509.6h-3.1v1.6h3.1V509.6z M161.2,513.8v-1.6h-3.1v1.6H161.2z"/>
	<path d="M159.1,530.6c-0.5,1.6-1.2,2.9-2.1,4c2.2,0.9,4.2,1.9,5.5,2.8l-1,1.2c-1.3-0.9-3.4-2-5.6-2.9c-1.8,1.5-4.3,2.4-7.7,3
		c-0.1-0.4-0.6-1-0.9-1.3c3.1-0.4,5.4-1.1,7.1-2.3c-1.7-0.7-3.4-1.3-5-1.8c0.5-0.7,1.1-1.6,1.7-2.5h-3.9v-1.3h4.6
		c0.6-1.1,1.1-2.2,1.5-3.1l1.5,0.3c-0.4,0.9-0.8,1.9-1.4,2.9h4.4c0.1-0.6,0.2-1.2,0.3-1.8l1.6,0.1c-0.1,0.6-0.2,1.1-0.3,1.6h3.3v1.3
		H159.1L159.1,530.6z M149.1,527.8h-1.3v-3.6h6.7c-0.2-0.6-0.6-1.3-0.9-1.8l1.4-0.4c0.4,0.7,0.9,1.6,1.1,2.2h6.2v3.6h-1.4v-2.4
		h-11.8L149.1,527.8L149.1,527.8z M152.8,530.6c-0.4,0.7-0.8,1.3-1.2,1.9c1.3,0.4,2.7,0.9,4,1.5c0.9-0.9,1.5-2,1.9-3.4H152.8z"/>
	<path d="M155.7,540.6c1.7,2.5,4.8,5,7.6,6.1c-0.3,0.3-0.8,0.8-1,1.1c-2.7-1.3-5.5-3.6-7.4-6c-1.9,2.3-4.9,4.8-7.5,6.2
		c-0.2-0.4-0.5-0.8-0.8-1.1c2.3-1.1,5-3.1,6.8-5.1h-3.2v-1.3L155.7,540.6L155.7,540.6z M155.6,554.8h6.9v1.2h-15.2v-1.2h6.8v-3h-5
		v-1.2h5v-2.7H150v-1.2h10v1.2h-4.4v2.7h5.1v1.2h-5.1L155.6,554.8L155.6,554.8z"/>
	<path d="M147,559.1h6.3v1.2h-2.8c-0.3,1.5-0.7,2.9-1.1,4.3h3.6v7.7h-3.6v1.4h-1.1v-6.5c-0.3,0.5-0.6,1-0.9,1.5
		c-0.1-0.3-0.4-1.1-0.6-1.4c1.3-1.7,2.1-4.2,2.6-7H147L147,559.1L147,559.1z M151.8,565.8h-2.4v5.3h2.4V565.8z M163.2,566.8h-2v7.7
		h-1.3v-7.7H157c-0.1,2.7-0.5,5.7-2.6,7.8c-0.2-0.2-0.7-0.6-1-0.8c1.8-1.9,2.2-4.7,2.3-7.1h-2v-1.3h2v-5.2h-1.5v-1.3h8.6v1.3h-1.7
		v5.2h2V566.8z M159.9,565.5v-5.2H157v5.2H159.9z"/>
	<path d="M161.4,590.9c0.5,0,0.6-0.3,0.7-2.7c0.3,0.2,0.9,0.5,1.3,0.6c-0.1,2.7-0.5,3.4-1.8,3.4h-2.1c-1.4,0-1.8-0.4-1.8-1.9v-3.5
		h-3.1c-0.3,2.1-1.8,4.5-6.7,5.9c-0.2-0.4-0.6-0.8-0.9-1.1c4.4-1.2,5.8-3.1,6.2-4.7h-5v-1.2h5.1v-2.2h1.4v2.2h4.4v4.8
		c0,0.5,0.1,0.6,0.6,0.6L161.4,590.9L161.4,590.9z M148.8,581.1h-1.3v-3.2h7c-0.2-0.5-0.4-1.1-0.6-1.5l1.4-0.2
		c0.2,0.5,0.5,1.2,0.7,1.8h6.7v3.1h-1.4v-1.9h-3.7v3c0,0.5,0.1,0.7,0.5,0.7h2.7c0.4,0,1,0,1.4-0.1c0,0.3,0.1,0.8,0.1,1.1
		c-0.3,0.1-0.9,0.1-1.4,0.1h-2.9c-1.4,0-1.8-0.5-1.8-1.8v-3h-2.7c-0.4,2.7-1.5,4.2-5.3,4.9c-0.1-0.3-0.5-0.8-0.7-1.1
		c3.4-0.6,4.3-1.7,4.6-3.8h-3.5L148.8,581.1L148.8,581.1z"/>
	<path d="M152.6,595.3c-0.5,1.5-1.2,3.2-1.8,4.7c1.3,1.5,1.6,2.8,1.6,3.9c0,1-0.2,1.8-0.7,2.1c-0.2,0.2-0.6,0.3-0.9,0.3
		c-0.4,0-0.8,0-1.2,0c0-0.3-0.1-0.8-0.3-1.2c0.4,0,0.8,0,1,0c0.2,0,0.4,0,0.6-0.2c0.3-0.2,0.4-0.7,0.4-1.3c0-1-0.3-2.2-1.6-3.6
		c0.5-1.3,1-2.8,1.4-4h-2.4v14.5h-1.2v-15.7h4.1l0.2,0L152.6,595.3L152.6,595.3z M161.7,609.2c0.4,0,0.5-0.3,0.5-2.3
		c0.3,0.2,0.8,0.4,1.1,0.5c-0.1,2.3-0.4,2.9-1.5,2.9h-1.6c-1.3,0-1.6-0.4-1.6-1.7V604h-1.9c-0.3,3.3-1.2,5.4-4.6,6.6
		c-0.1-0.3-0.5-0.8-0.8-1.1c3.1-1,3.8-2.7,4.1-5.5H153v-1.2h10.1v1.2H160v4.7c0,0.5,0.1,0.5,0.5,0.5L161.7,609.2L161.7,609.2z
		 M154.2,599.5h-1.2v-3.1h4.6c-0.2-0.6-0.6-1.4-1-2l1.2-0.4c0.5,0.7,0.9,1.6,1.2,2.2l-0.4,0.1h4.5v3.1h-1.3v-2h-7.6V599.5
		L154.2,599.5z M154.4,600.7v-1.2h7.2v1.2H154.4z"/>
</g>
<g>
	<g>
		<path d="M320.8,462.8c-0.2,0.8-0.6,1.6-1.5,2.4c0.8,0.4,1.5,0.7,2.1,1.1l-0.9,0.8c-0.6-0.4-1.4-0.8-2.2-1.2
			c-1.1,0.6-2.8,1.1-5,1.5c-0.1-0.3-0.4-0.7-0.6-0.9c1.9-0.3,3.3-0.7,4.3-1.2c-0.9-0.4-1.9-0.7-2.8-1c0.3-0.4,0.6-0.8,0.9-1.2
			l-2.1,0.1l-0.1-1c0.8,0,1.8-0.1,2.9-0.1c0.3-0.5,0.6-1,0.8-1.4h-2.9v-2.9h3.4V457h-2.9v-1.9H313v-1h1.2v-1.8h2.9V451h1.1v1.3h3.1
			v1.8h1.2v1h-1.2v1.9h-3.1v0.7h3.5v2.9h-3.8c-0.2,0.5-0.5,0.9-0.8,1.4c0.9,0,1.8-0.1,2.7-0.1v-0.9h1.1v0.8l0.9,0l0,0.9L320.8,462.8
			L320.8,462.8z M314.8,459.8h2.2v-1.1h-2.2V459.8z M315.3,453.2v1h1.8v-1H315.3z M317,456.1V455h-1.8v1.1H317z M316.4,463
			c-0.2,0.3-0.4,0.6-0.6,0.8c0.7,0.2,1.5,0.5,2.2,0.8c0.9-0.6,1.3-1.2,1.5-1.8L316.4,463L316.4,463z M318.1,453.1v1h1.9v-1H318.1z
			 M320,456.1V455h-1.9v1.1H320z M318.1,458.7v1.1h2.3v-1.1H318.1z M327.9,455.6c-0.3,2.7-0.8,5-1.6,6.9c0.8,1.6,1.8,2.9,3,3.8
			c-0.3,0.2-0.6,0.6-0.8,1c-1.2-0.8-2.1-2-2.8-3.4c-0.8,1.5-1.9,2.7-3.3,3.7c-0.1-0.2-0.5-0.8-0.7-1c1.5-1,2.6-2.4,3.4-4
			c-0.6-1.4-1-3-1.3-4.8c-0.3,0.7-0.6,1.4-1,2c-0.2-0.2-0.6-0.6-0.9-0.8c1.2-1.9,1.9-4.8,2.3-7.8l1.1,0.2c-0.1,1-0.3,2.1-0.6,3.1
			h4.4v1.2L327.9,455.6L327.9,455.6z M324.4,455.6c0.3,1.9,0.7,3.7,1.2,5.3c0.5-1.5,0.8-3.3,1-5.3H324.4z"/>
		<path d="M318.5,469.4c-0.5,1.3-1.1,2.6-1.8,3.8v12.1h-1.3v-10.1c-0.6,0.8-1.2,1.5-1.8,2.2c-0.1-0.3-0.5-1-0.8-1.3
			c1.8-1.7,3.4-4.4,4.4-7.1L318.5,469.4z M329.1,483.4v1.3h-11.2v-1.3h6.3c0.6-2.4,1.4-6.2,1.7-8.9l1.4,0.2
			c-0.5,2.8-1.2,6.3-1.9,8.7H329.1z M328.4,473.5h-9.7v-1.3h9.7V473.5z M321.1,482.6c-0.1-1.9-0.7-5.2-1.2-7.7l1.2-0.3
			c0.6,2.5,1.1,5.7,1.3,7.6L321.1,482.6L321.1,482.6z M323.1,472c-0.1-0.8-0.5-2-0.9-2.9l1.3-0.3c0.3,0.9,0.7,2,0.9,2.8L323.1,472
			L323.1,472z"/>
		<path d="M315.6,494.2v2.7c0,2-0.3,4.8-1.9,6.6c-0.2-0.2-0.7-0.7-1-0.9c1.5-1.7,1.6-4,1.6-5.8v-3.8h2.3c-0.2-0.2-0.5-0.5-0.6-0.7
			c1.4-0.3,3.1-0.6,4.6-1.1c-1.4-0.4-2.8-0.8-4-1l0.8-0.6h-2.9v-1.1h6.6c-0.3-0.5-0.6-0.9-1-1.3l1-0.5c0.5,0.5,1,1.3,1.4,1.8h6v1.1
			h-2.7l0.7,0.4c-0.8,0.4-1.7,0.9-2.8,1.2c1.3,0.4,2.5,0.8,3.4,1.1l-0.7,0.7h2.6v1.1L315.6,494.2L315.6,494.2z M329.2,501.7v1.1
			h-13.3v-1.1h5.9v-1.8h-4.2v-1.1h4.2v-1.6H318c-0.5,0.9-1.1,1.6-1.7,2.2c-0.1-0.2-0.5-0.9-0.7-1.1c1-0.9,1.9-2.3,2.4-3.8l1.1,0.3
			c-0.2,0.4-0.3,0.8-0.5,1.2h3.1v-1.5h1.3v1.5h4.8v1.1h-4.8v1.6h4.5v1.1h-4.5v1.8L329.2,501.7L329.2,501.7z M325.9,493.1
			c-1-0.4-2.4-0.8-3.8-1.3c-1.6,0.5-3.3,0.9-4.9,1.3H325.9z M317.7,489.7c1.4,0.3,3,0.8,4.5,1.2c1.1-0.4,2.2-0.8,3-1.2H317.7z"/>
		<path d="M319.5,518.5c-1.3,1-3.6,1.9-5.5,2.3c-0.2-0.3-0.5-0.8-0.8-1c1.9-0.3,4.1-1,5.3-1.8L319.5,518.5L319.5,518.5z M328.9,516
			v1.1h-7.2v4.3h-1.3v-4.3h-7.1V516h7.1v-1.3h-5.4v-1h5.4v-1.3H314v-1.1h3.9c-0.2-0.5-0.5-1.2-0.9-1.7l1-0.2h-4.6v-1.1h2.9
			c-0.3-0.7-0.9-1.8-1.4-2.6l1.1-0.4c0.6,0.8,1.3,1.9,1.5,2.6l-0.9,0.4h2.2V505h1.3v3.2h2.1V505h1.3v3.2h2.2l-0.7-0.2
			c0.5-0.7,1.1-1.9,1.4-2.7l1.4,0.4c-0.5,0.9-1.1,1.9-1.6,2.6h2.8v1.1h-4.7l1.2,0.3c-0.4,0.6-0.9,1.2-1.2,1.7h4.1v1.1h-6.5v1.3h5.6
			v1h-5.6v1.3H328.9L328.9,516z M318.3,509.3c0.4,0.6,0.8,1.3,1,1.8l-0.7,0.2h5l-0.6-0.2c0.4-0.5,0.8-1.3,1.1-1.8H318.3L318.3,509.3
			z M323.6,518c1.7,0.6,4,1.4,5.2,2l-0.8,0.8c-1.2-0.6-3.5-1.5-5.2-2.1L323.6,518L323.6,518z"/>
		<path d="M323.1,532.2c-0.8,0.4-1.7,0.8-2.6,1.2h6.8v6H326v-0.5h-7.9v0.6h-1.3v-4.6c-1.1,0.4-2.3,0.7-3.5,1
			c-0.1-0.3-0.5-0.9-0.7-1.2c2.6-0.6,5.3-1.4,7.7-2.4h-7.4v-1.1h6.7v-1.3h-5v-1.1h5v-1.3h-5.7v-3.7H328v3.7h-6.9v1.3h4v0.9
			c0.7-0.5,1.3-1,1.9-1.5l1,0.7c-0.9,0.9-1.9,1.7-3.1,2.4h4v1.1L323.1,532.2L323.1,532.2z M318.3,524.6h-2.9v1.7h2.9V524.6z
			 M326,534.4h-7.9v1.2h7.9V534.4z M326,537.8v-1.3h-7.9v1.3H326z M322.5,526.4v-1.7h-3v1.7H322.5z M322.7,531
			c0.8-0.4,1.5-0.9,2.2-1.3h-3.8v1.3H322.7L322.7,531z M323.7,526.4h3v-1.7h-3V526.4z"/>
	</g>
	<g>
		<path d="M285.8,456h-5.1v-1.1h5.1V456z M287.2,465.2c-1.4,0.9-3.7,1.7-5.5,2.2c-0.2-0.3-0.7-0.8-1-1c1.8-0.4,4-1,5.3-1.7
			L287.2,465.2L287.2,465.2z M285.3,453.1H281v-1h4.3V453.1z M283,457.4h11.6v7.2H283V457.4z M284.3,459.5h9v-1.2h-9V459.5z
			 M284.3,461.6h9v-1.2h-9V461.6z M284.3,463.7h9v-1.3h-9V463.7z M288.6,453.3c-0.4,0.7-0.9,1.3-1.4,1.8c-0.2-0.2-0.7-0.5-1-0.7
			c0.9-0.9,1.7-2.1,2.1-3.4l1.2,0.3c-0.1,0.3-0.2,0.7-0.4,1h6l0.2,0l0.9,0.3c-0.5,0.9-1,2-1.5,2.6l-1.1-0.4c0.3-0.4,0.6-0.9,0.9-1.4
			h-2.9v0.2c0,0.2,0,0.4,0,0.6c1,1.1,2.9,1.8,5.3,2c-0.2,0.2-0.6,0.7-0.8,1.1c-2-0.3-3.8-1-4.9-2.1c-0.6,0.9-2,1.7-5.2,2.2
			c-0.1-0.3-0.5-0.8-0.7-1c4.7-0.6,5.1-1.9,5.1-2.8v-0.2H288.6L288.6,453.3z M291.3,464.7c1.9,0.6,4,1.4,5.3,2l-1.2,0.8
			c-1.1-0.6-3.1-1.4-5-2L291.3,464.7z"/>
		<path d="M284.9,477.6c-0.3,1.6-0.9,3.3-1.5,4.6c0.4,0.2,0.8,0.5,1.5,0.9c1.3,0.8,2.9,0.9,5,0.9c2.3,0,5.2-0.2,7.2-0.4
			c-0.2,0.4-0.4,1-0.4,1.4c-1.4,0.1-4.8,0.2-6.9,0.2c-2.4,0-3.9-0.2-5.3-1c-0.7-0.4-1.4-1-1.8-1s-1,1.1-1.5,2.3l-0.9-1.2
			c0.6-0.9,1.2-1.6,1.8-2c0.5-1,1-2.5,1.3-3.8H281c0.5-1.1,1.1-2.6,1.5-4h-2v-1.2h3.7c-0.4,1.3-1,2.8-1.5,4h1.2l0.2,0L284.9,477.6
			L284.9,477.6z M282.4,472.4c-0.2-0.8-0.6-2-0.9-3l1.2-0.3c0.3,0.9,0.7,2.1,1,2.9L282.4,472.4L282.4,472.4z M287.5,482.8h-1.3v-9.3
			h5.1c-1.1-0.5-2.4-1.1-3.4-1.5l0.9-0.7c0.8,0.2,1.7,0.6,2.5,1c0.9-0.4,1.8-0.9,2.5-1.4h-7.5v-1.1h8.8l0.3-0.1l0.8,0.6
			c-1,0.9-2.3,1.8-3.6,2.5c0.5,0.3,1,0.5,1.4,0.7h2.3v7.9c0,0.7-0.1,1-0.6,1.2s-1.2,0.2-2.4,0.2c0-0.3-0.2-0.8-0.4-1.1
			c0.9,0,1.6,0,1.8,0c0.2,0,0.3-0.1,0.3-0.3v-1.6h-3.1v2.9h-1.2v-2.9h-3L287.5,482.8L287.5,482.8z M287.5,474.5v1.6h3v-1.6H287.5z
			 M290.5,478.7v-1.6h-3v1.6H290.5z M294.9,474.5h-3.1v1.6h3.1V474.5z M294.9,478.7v-1.6h-3.1v1.6H294.9z"/>
		<path d="M292.8,495.5c-0.5,1.6-1.2,2.9-2.1,4c2.2,0.9,4.2,1.9,5.5,2.8l-1,1.2c-1.3-0.9-3.4-2-5.6-2.9c-1.8,1.5-4.3,2.4-7.7,3
			c-0.1-0.4-0.6-1-0.9-1.3c3.1-0.4,5.4-1.1,7.1-2.3c-1.7-0.7-3.4-1.3-5-1.8c0.5-0.7,1.1-1.6,1.7-2.5H281v-1.3h4.6
			c0.6-1.1,1.1-2.2,1.5-3.1l1.5,0.3c-0.4,0.9-0.8,1.9-1.4,2.9h4.4c0.1-0.6,0.2-1.1,0.3-1.8l1.6,0.1c-0.1,0.6-0.2,1.1-0.3,1.6h3.3
			v1.3H292.8L292.8,495.5z M282.8,492.7h-1.3v-3.6h6.7c-0.2-0.6-0.6-1.3-0.9-1.8l1.4-0.4c0.4,0.7,0.9,1.6,1.1,2.2h6.2v3.6h-1.4v-2.4
			h-11.8L282.8,492.7L282.8,492.7z M286.5,495.5c-0.4,0.7-0.8,1.4-1.2,1.9c1.3,0.4,2.7,0.9,4,1.5c0.9-0.9,1.5-2,1.9-3.4L286.5,495.5
			L286.5,495.5z"/>
		<path d="M289.4,505.5c1.7,2.5,4.8,5,7.6,6.1c-0.3,0.3-0.8,0.8-1,1.1c-2.7-1.3-5.5-3.6-7.4-6c-1.9,2.3-4.9,4.8-7.5,6.2
			c-0.2-0.4-0.5-0.8-0.8-1.1c2.3-1.1,5-3.1,6.8-5.1h-3.2v-1.3L289.4,505.5L289.4,505.5z M289.3,519.7h7v1.2h-15.2v-1.2h6.8v-3h-5
			v-1.2h5v-2.7h-4.3v-1.2h10v1.2h-4.4v2.7h5.1v1.2h-5.1L289.3,519.7L289.3,519.7z"/>
		<path d="M290.8,532.2c-0.8,0.4-1.7,0.8-2.6,1.2h6.8v6h-1.3v-0.5h-7.9v0.6h-1.3v-4.6c-1.1,0.4-2.3,0.7-3.5,1
			c-0.1-0.3-0.5-0.9-0.7-1.2c2.6-0.6,5.3-1.4,7.7-2.4h-7.4v-1.1h6.7v-1.3h-5v-1.1h5v-1.3h-5.7v-3.7h13.9v3.7h-6.9v1.3h4v0.9
			c0.7-0.5,1.3-1,1.9-1.5l1,0.7c-0.9,0.9-1.9,1.7-3.1,2.4h4v1.1L290.8,532.2L290.8,532.2z M285.9,524.7h-2.9v1.7h2.9V524.7z
			 M293.7,534.4h-7.9v1.2h7.9V534.4z M293.7,537.8v-1.3h-7.9v1.3H293.7z M290.1,526.4v-1.7h-3v1.7H290.1z M290.4,531.1
			c0.8-0.4,1.5-0.9,2.2-1.3h-3.8v1.3H290.4L290.4,531.1z M291.4,526.4h3v-1.7h-3V526.4z"/>
	</g>
</g>
<path class="st1" d="M357.9,410.8v22.5c0,2.6-2.1,4.7-4.7,4.7h-96.7c-2.6,0-4.7-2.1-4.7-4.7v-22.5c0-2.6,2.1-4.7,4.7-4.7h96.7
	C355.8,406,357.9,408.1,357.9,410.8z"/>
<path class="st2" d="M125.1,225.1v-9c0-5.5,3.8-10,8.5-10h343.5c4.7,0,8.5,4.5,8.5,10v9"/>
<path class="st3" d="M304.9,383.6h137c7.1,0,12.8,4.5,12.8,10V421"/>
<path class="st4" d="M304.9,383.6h-137c-7.1,0-12.8,4.5-12.8,10v9"/>
<path class="st5" d="M223,233.4v22c0,2.8-2.2,5-5,5H32.3c-2.8,0-5-2.2-5-5v-22c0-2.8,2.2-5,5-5H218C220.8,228.4,223,230.6,223,233.4
	z"/>
<path class="st5" d="M583.5,233.4v22c0,2.8-2.2,5-5,5H392.8c-2.8,0-5-2.2-5-5v-22c0-2.8,2.2-5,5-5h185.7
	C581.3,228.4,583.5,230.6,583.5,233.4z"/>
<g>
	<g>
		<path d="M79.4,276h-8.6V275h2.4c0.1-0.4,0.2-0.9,0.4-1.5h-1.9v-1.1h2.2c0.1-0.5,0.2-1,0.3-1.4l1.2,0.1c-0.1,0.4-0.2,0.9-0.3,1.3
			h3.1v2.5h1.3L79.4,276L79.4,276z M76.4,285.2v2.2h-1.3v-2.2h-3.8c0.2-0.7,0.4-1.8,0.5-2.7h-0.9v-1h4.2v-0.9h-3.4V277h6.7v3.5h-2
			v0.9h2.5v1h-2.5v1.7h2.7v1.1H76.4L76.4,285.2z M75.1,284.1v-1.7h-2.1c-0.1,0.5-0.2,1.1-0.3,1.7C72.7,284.1,75.1,284.1,75.1,284.1z
			 M72.9,279.5h4.1v-1.6h-4.1V279.5z M74.7,273.5c-0.1,0.5-0.2,1-0.4,1.5h2.5v-1.5H74.7z M86.5,272.8c-0.2,9.6-0.4,12.7-0.9,13.6
			c-0.3,0.5-0.7,0.6-1.2,0.7c-0.5,0.1-1.3,0-2,0c0-0.4-0.1-0.9-0.4-1.2c0.8,0.1,1.6,0.1,1.9,0.1c0.2,0,0.4,0,0.6-0.3
			c0.4-0.6,0.7-3.7,0.8-12.4h-1.9c-0.1,4.9-0.5,10.8-4.1,14c-0.2-0.3-0.6-0.6-0.9-0.8c1.8-1.5,2.7-3.7,3.2-6.1
			c-0.6-1-1.6-2.4-2.4-3.5l0.9-0.5c0.6,0.7,1.2,1.6,1.8,2.4c0.2-1.8,0.3-3.7,0.3-5.4h-2.7v-1.1h7L86.5,272.8L86.5,272.8z"/>
		<path d="M70.4,297c0.5-1.2,0.8-3.1,0.9-4.6l1,0.1c-0.1,1.5-0.4,3.5-0.9,4.8L70.4,297L70.4,297z M73,289h1.3v16.4H73V289z
			 M75.4,291.9c0.5,1,1.1,2.2,1.3,3l-1,0.5c-0.2-0.8-0.7-2.1-1.2-3.1L75.4,291.9L75.4,291.9z M86.9,303.6v1.3h-11v-1.3H81v-4.5h-3.8
			v-1.2H81v-3.7h-2.6c-0.4,1.1-0.8,2-1.3,2.8c-0.3-0.2-0.9-0.5-1.2-0.6c1-1.6,1.8-4,2.2-6.4l1.3,0.2c-0.2,0.9-0.4,1.9-0.7,2.8H81
			v-3.7h1.3v3.7h4.1v1.3h-4.1v3.7H86v1.2h-3.7v4.5L86.9,303.6L86.9,303.6z"/>
		<path d="M75.9,313.3c-0.3,2.6-0.8,4.6-1.6,6.3c1.8,1.8,4.2,2.2,7.3,2.2c0.7,0,4.6,0,5.5,0c-0.2,0.3-0.4,0.9-0.5,1.2h-5
			c-3.3,0-5.9-0.5-7.8-2.3c-0.7,1.1-1.4,2-2.2,2.6c-0.2-0.3-0.7-0.7-1-0.9c0.9-0.6,1.7-1.6,2.4-2.7c-0.7-0.9-1.2-2-1.6-3.5l1-0.4
			c0.3,1.1,0.7,1.9,1.2,2.7c0.5-1.2,0.8-2.6,1.1-4.2h-2.9c0.8-1.3,1.8-3.3,2.6-5H71v-1.2h5.1c-0.8,1.6-1.7,3.5-2.5,5h1.3l0.2,0
			L75.9,313.3L75.9,313.3z M80.4,309.7H77v-1.1h3.5v-1.5h1.3v1.5h3.9v2.4h1.2v1.1h-1.2v2.4h-3.9v1.4h4.2v1h-4.2v1.5h4.9v1.1h-4.9
			v1.8h-1.3v-1.8h-4.5v-1.1h4.5v-1.5h-3.7v-1h3.7v-1.4h-3.6v-1.1h3.6v-1.3h-4.6V311h4.6V309.7L80.4,309.7z M81.7,309.7v1.3h2.7v-1.3
			H81.7z M84.4,312.1h-2.7v1.3h2.7V312.1z"/>
		<path d="M77.6,329.2h-6.8v-1.1h6.8V329.2z M86.1,333.3c-0.7,2.2-1.8,3.9-3.2,5.2c1.2,0.8,2.7,1.4,4.2,1.8
			c-0.3,0.3-0.7,0.8-0.8,1.2c-1.7-0.5-3.2-1.2-4.5-2.1c-1.3,1-2.8,1.7-4.5,2.2c-0.1-0.3-0.4-0.8-0.6-1.1h-4.1v0.9h-1.2v-6h5.3v5.1
			c1.4-0.4,2.8-1,4-1.8c-1.1-1.1-2-2.5-2.7-4l0.8-0.3h-1.6v-1.3H85l0.2,0L86.1,333.3L86.1,333.3z M76.8,330.5v1.1h-5.3v-1.1H76.8z
			 M71.5,332.8h5.3v1.1h-5.3V332.8z M75.6,336.3h-2.9v3h2.9V336.3z M74.1,327.9c-0.3-0.6-0.8-1.7-1.3-2.4l1-0.5
			c0.5,0.7,1.1,1.7,1.4,2.3L74.1,327.9z M80.4,327.7c0,1.6-0.5,3.5-2.6,4.8c-0.2-0.3-0.6-0.8-0.9-1c1.9-1.1,2.2-2.6,2.2-3.9v-2h5.5
			v4.2c0,0.5,0,0.7,0.3,0.7h1.1c0.2,0,0.6,0,0.8-0.1c0,0.3,0.1,0.9,0.1,1.1c-0.2,0.1-0.5,0.1-0.9,0.1h-1.2c-1.2,0-1.4-0.5-1.4-1.9
			v-2.9h-3L80.4,327.7L80.4,327.7z M79.3,334.2c0.6,1.3,1.5,2.5,2.5,3.4c1.1-0.9,1.9-2.1,2.5-3.4H79.3z"/>
		<path d="M85.8,357.5c0,0.9-0.2,1.4-0.8,1.6c-0.6,0.2-1.8,0.2-3.3,0.2c-0.1-0.4-0.2-1.1-0.5-1.4c1.2,0,2.5,0,2.8,0
			c0.3,0,0.4-0.1,0.4-0.5v-12H71.5v-1.3h14.3L85.8,357.5L85.8,357.5z M82.4,348.6H71.6v-1.2h10.8V348.6z M74,356.2v1.3h-1.3v-7h8.4
			v5.7H74L74,356.2z M74,351.7v3.4h5.8v-3.4H74z"/>
	</g>
	<g>
		<path d="M106.8,276h-5.2v-1.1h5.2V276z M108.2,285.3c-1.4,0.9-3.7,1.7-5.5,2.2c-0.2-0.3-0.7-0.8-1-1c1.8-0.4,4-1,5.3-1.7
			L108.2,285.3L108.2,285.3z M106.3,273.2H102v-1h4.3V273.2z M104,277.4h11.7v7.2H104V277.4z M105.3,279.5h9v-1.2h-9
			C105.3,278.3,105.3,279.5,105.3,279.5z M105.3,281.6h9v-1.2h-9C105.3,280.4,105.3,281.6,105.3,281.6z M105.3,283.7h9v-1.3h-9
			C105.3,282.5,105.3,283.7,105.3,283.7z M109.6,273.3c-0.4,0.7-0.9,1.3-1.3,1.8c-0.2-0.2-0.7-0.5-1-0.7c0.9-0.9,1.7-2.1,2.1-3.4
			l1.2,0.3c-0.1,0.3-0.2,0.7-0.4,1h6l0.2,0l0.9,0.3c-0.4,0.9-1,2-1.5,2.6l-1.1-0.4c0.3-0.4,0.6-0.9,0.8-1.4h-2.9v0.2
			c0,0.2,0,0.4-0.1,0.6c0.9,1.1,2.9,1.8,5.3,2c-0.2,0.2-0.6,0.7-0.8,1.1c-2.1-0.3-3.8-1-4.9-2.1c-0.6,0.9-2,1.7-5.2,2.2
			c-0.1-0.3-0.5-0.8-0.7-1c4.7-0.6,5.1-1.9,5.1-2.8v-0.2H109.6L109.6,273.3z M112.3,284.7c1.9,0.6,4,1.4,5.3,1.9l-1.2,0.8
			c-1.2-0.6-3.1-1.4-5-2L112.3,284.7L112.3,284.7z"/>
		<path d="M104.5,296.9c-0.7-0.5-2-1.4-3-1.9l0.8-0.9c1,0.5,2.3,1.3,3,1.8L104.5,296.9L104.5,296.9z M105.6,299.5
			c-0.7,1.9-1.8,4.1-2.6,5.8l-1.2-0.7c0.8-1.4,1.9-3.8,2.7-5.8L105.6,299.5z M105.3,292.2c-0.7-0.5-2-1.4-3-2l0.8-0.9
			c1,0.6,2.3,1.4,3,1.9L105.3,292.2z M108.1,294.8c0,3.1-0.3,7.6-2.4,10.6c-0.2-0.2-0.8-0.6-1.1-0.7c2-2.9,2.2-6.9,2.2-9.9v-4.9
			h10.9v1.2h-9.6V294.8L108.1,294.8z M111,300.7c-0.6,1.3-1.5,2.8-2.3,3.7c-0.2-0.2-0.8-0.5-1.1-0.7c0.8-0.9,1.6-2.1,2.1-3.3
			L111,300.7L111,300.7z M113.6,299.4v4.7c0,0.7-0.1,1-0.6,1.2c-0.5,0.2-1.2,0.2-2.4,0.2c-0.1-0.3-0.2-0.8-0.4-1.1
			c0.9,0,1.7,0,1.8,0c0.2,0,0.3-0.1,0.3-0.3v-4.7h-3.2v-6.2h2.7c0.2-0.6,0.4-1.3,0.5-1.8l1.5,0.3c-0.2,0.5-0.5,1-0.7,1.5h3.9v6.2
			L113.6,299.4L113.6,299.4z M110.3,295.8h5.5v-1.6h-5.5V295.8z M110.3,298.4h5.5v-1.6h-5.5V298.4z M116,300.3
			c0.7,1.1,1.6,2.6,2.1,3.4l-1.2,0.5c-0.4-0.9-1.3-2.4-2-3.5L116,300.3z"/>
		<path d="M104.3,309.4c-0.6,0.9-1.2,1.7-1.9,2.3c-0.2-0.2-0.7-0.7-0.9-0.9c1.1-1,2.1-2.4,2.8-3.9l1.2,0.3c-0.2,0.4-0.3,0.7-0.5,1.1
			h4.7v1.1h-3.4c0.6,0.5,1.2,1.1,1.6,1.6l-0.9,0.7c-0.4-0.5-1.1-1.2-1.7-1.8l0.7-0.5H104.3L104.3,309.4z M109.8,310.7
			c0.2,0.4,0.6,0.9,0.7,1.4h6.6v2.9h-1.3v-1.9h-11.9v1.9h-1.3v-2.9h6.6c-0.2-0.4-0.3-0.8-0.5-1.1L109.8,310.7L109.8,310.7z
			 M105.9,319h10v4.4h-1.3v-0.6h-8.7v0.6h-1.3v-9.2h10.4v3.6h-9L105.9,319L105.9,319z M105.9,315.2v1.5h7.7v-1.5H105.9z
			 M105.9,320.1v1.7h8.7v-1.7C114.5,320.1,105.9,320.1,105.9,320.1z M117.8,308.3v1.1h-3.9c0.7,0.5,1.4,1.2,1.8,1.7l-0.9,0.8
			c-0.4-0.5-1.2-1.3-1.9-1.8l0.8-0.6h-2.1c-0.4,0.6-0.8,1.1-1.3,1.5c-0.2-0.2-0.7-0.6-1-0.8c1-0.8,1.8-1.9,2.2-3.2l1.2,0.3
			c-0.1,0.4-0.3,0.8-0.5,1.1H117.8L117.8,308.3z"/>
		<path d="M107.3,337.8c-1.9,0.6-4,1.4-5.6,1.9l-0.3-1.4c0.7-0.2,1.5-0.5,2.4-0.8v-4.8h-2.1v-1.3h2.1v-3.9h-2.2v-1.3h5.6v1.3h-2.1
			v3.9h1.8v1.3h-1.8v4.5l2-0.6L107.3,337.8L107.3,337.8z M118,339.7v1.2h-11.6v-1.2h5.5v-2.5h-4.1V336h4.1v-2.1H108v-8h9.2v8h-3.9
			v2.1h4.2v1.2h-4.2v2.5H118L118,339.7z M109.3,329.3h2.7V327h-2.7V329.3z M109.3,332.7h2.7v-2.3h-2.7V332.7z M115.9,327h-2.8v2.3
			h2.8V327z M115.9,330.4h-2.8v2.3h2.8V330.4z"/>
		<path d="M116.6,357.5c0,0.9-0.2,1.4-0.8,1.6c-0.6,0.2-1.8,0.2-3.3,0.2c-0.1-0.4-0.2-1.1-0.5-1.4c1.2,0,2.5,0,2.8,0
			c0.3,0,0.4-0.1,0.4-0.5v-12h-12.9v-1.3h14.3L116.6,357.5L116.6,357.5z M113.2,348.6h-10.8v-1.2h10.8V348.6z M104.9,356.2v1.3h-1.3
			v-7h8.4v5.7H104.9L104.9,356.2z M104.9,351.7v3.4h5.8v-3.4H104.9z"/>
	</g>
	<g>
		<path d="M47.8,282.9c-0.2,0.8-0.6,1.6-1.5,2.4c0.8,0.4,1.5,0.7,2.1,1.1l-0.9,0.8c-0.6-0.4-1.3-0.8-2.2-1.2c-1.2,0.6-2.8,1.1-5,1.5
			c-0.1-0.3-0.4-0.7-0.6-0.9c1.9-0.3,3.3-0.7,4.3-1.2c-0.9-0.4-1.9-0.7-2.8-1c0.3-0.4,0.6-0.8,0.9-1.2l-2.1,0.1l-0.1-1
			c0.8,0,1.8-0.1,2.9-0.1c0.3-0.5,0.6-1,0.8-1.4h-2.9v-2.9H44v-0.7h-2.9v-1.9h-1.2v-1h1.2v-1.8H44V271h1.1v1.3h3.1v1.8h1.2v1h-1.2
			v1.9h-3.1v0.7h3.5v2.9h-3.8c-0.2,0.5-0.5,0.9-0.8,1.4c0.9,0,1.8-0.1,2.7-0.1v-0.9h1.1v0.8l0.9,0l0,0.9L47.8,282.9L47.8,282.9z
			 M41.8,279.9H44v-1.1h-2.2V279.9z M42.3,273.2v1H44v-1H42.3z M44,276.2v-1.1h-1.8v1.1H44z M43.4,283.1c-0.2,0.3-0.4,0.6-0.6,0.8
			c0.7,0.2,1.5,0.5,2.2,0.8c0.9-0.6,1.3-1.2,1.5-1.8L43.4,283.1L43.4,283.1z M45.1,273.2v1h1.9v-1H45.1z M46.9,276.2v-1.1h-1.9v1.1
			H46.9z M45.1,278.8v1.1h2.3v-1.1H45.1z M54.9,275.7c-0.3,2.7-0.8,5-1.6,6.9c0.8,1.6,1.8,2.9,3,3.8c-0.3,0.2-0.6,0.6-0.8,1
			c-1.2-0.8-2.1-2-2.8-3.4c-0.8,1.5-1.8,2.7-3.3,3.7c-0.1-0.2-0.5-0.8-0.7-1c1.5-1,2.6-2.4,3.4-4c-0.6-1.4-1-3-1.3-4.8
			c-0.3,0.7-0.6,1.4-1,2c-0.2-0.2-0.7-0.6-0.9-0.8c1.2-1.9,1.9-4.8,2.3-7.8l1.1,0.2c-0.1,1-0.3,2.1-0.6,3.1h4.4v1.2L54.9,275.7
			L54.9,275.7z M51.4,275.7c0.3,1.9,0.7,3.7,1.2,5.3c0.5-1.5,0.8-3.3,1-5.3H51.4z"/>
		<path d="M45.4,289.5c-0.5,1.3-1.1,2.6-1.8,3.8v12.1h-1.3v-10.1c-0.6,0.8-1.2,1.5-1.8,2.2c-0.1-0.3-0.5-1-0.8-1.3
			c1.8-1.7,3.4-4.4,4.4-7.1L45.4,289.5L45.4,289.5z M56.1,303.5v1.3H44.9v-1.3h6.3c0.7-2.4,1.4-6.2,1.7-8.9l1.4,0.2
			c-0.5,2.8-1.2,6.3-1.8,8.7C52.4,303.5,56.1,303.5,56.1,303.5z M55.3,293.6h-9.7v-1.3h9.7V293.6z M48,302.6
			c-0.1-1.9-0.7-5.2-1.2-7.7l1.2-0.3c0.6,2.5,1.1,5.7,1.3,7.6L48,302.6L48,302.6z M50.1,292.1c-0.1-0.8-0.5-2-0.8-2.9l1.3-0.3
			c0.3,0.9,0.7,2,0.9,2.8L50.1,292.1L50.1,292.1z"/>
		<path d="M48.8,317.7c1.4,1.6,4.3,3.3,7.5,4c-0.3,0.3-0.7,0.8-0.8,1.2c-2.8-0.7-5.2-2.2-6.7-3.7v4.3h-1.4v-4.4
			c-1.8,1.7-4.2,3.1-6.7,3.8c-0.2-0.3-0.5-0.9-0.8-1.1c3-0.7,6-2.3,7.6-4.2V316h-4.4v3.5h-1.4v-4.6h5.8v-1.4h-7.1v-1.2h7.1v-1.1h1.4
			v1.1h6.9v1.2h-6.9v1.4h5.8v3.3c0,0.6-0.1,0.9-0.6,1.1c-0.5,0.2-1.2,0.2-2.2,0.2c-0.1-0.3-0.3-0.8-0.5-1.1c0.7,0,1.4,0,1.6,0
			c0.2,0,0.3-0.1,0.3-0.2V316h-4.5L48.8,317.7L48.8,317.7z M42.7,309.4c-0.6,0.9-1.2,1.7-1.8,2.3c-0.2-0.2-0.7-0.7-0.9-0.9
			c1.1-1,2.1-2.4,2.7-3.9l1.2,0.3c-0.1,0.4-0.3,0.7-0.5,1.1h4.6v1.1h-3.4c0.6,0.5,1.3,1.2,1.6,1.6l-0.9,0.8
			c-0.3-0.5-1.1-1.3-1.7-1.9l0.7-0.5H42.7z M50.1,309.4c-0.4,0.6-0.9,1.2-1.4,1.7c-0.2-0.2-0.7-0.6-1-0.8c1-0.8,1.8-2,2.2-3.4
			l1.2,0.3c-0.1,0.4-0.3,0.7-0.5,1.1h5.4v1.1h-3.9c0.6,0.5,1.4,1.1,1.8,1.6l-0.9,0.8c-0.4-0.5-1.2-1.2-1.8-1.8l0.8-0.6L50.1,309.4
			L50.1,309.4z"/>
		<path d="M46.2,338.3h-4.7v1.3h-1.1v-13.2h5.8L46.2,338.3L46.2,338.3z M41.5,327.6v4h1.4v-4H41.5z M41.5,337.1h1.4v-4.4h-1.4V337.1
			z M45.2,327.6h-1.4v4h1.4V327.6z M45.2,337.1v-4.4h-1.4v4.4H45.2z M55.8,327.3c-0.7,1.8-1.9,3.3-3.2,4.5c1.1,0.9,2.4,1.6,3.9,2
			c-0.2,0.3-0.4,0.9-0.4,1.3c-1.6-0.6-3.2-1.4-4.4-2.5c-1.4,1.1-3.1,1.9-4.7,2.5c-0.1-0.3-0.4-1-0.6-1.2c1.5-0.5,3.1-1.2,4.4-2.2
			c-0.7-0.7-1.3-1.6-1.8-2.5c-0.5,0.7-1.1,1.4-1.7,1.9c-0.1-0.2-0.6-0.8-0.8-1c1.4-1.3,2.7-3.2,3.5-5.2l1.2,0.3
			c-0.2,0.5-0.5,1.1-0.7,1.6h4.4l0.2,0L55.8,327.3L55.8,327.3z M48.1,334.7h7.1v6.5h-1.2v-0.9h-4.7v0.9h-1.2V334.7L48.1,334.7z
			 M49.3,335.9v3.3h4.7v-3.3H49.3z M49.6,328.2c0.5,1,1.2,2,2,2.8c1-0.9,1.8-1.8,2.4-2.9L49.6,328.2L49.6,328.2L49.6,328.2z"/>
		<path d="M54.9,357.5c0,0.9-0.2,1.4-0.8,1.6c-0.6,0.2-1.8,0.2-3.3,0.2c0-0.4-0.2-1.1-0.5-1.4c1.2,0,2.5,0,2.8,0
			c0.3,0,0.4-0.1,0.4-0.5v-12h-13v-1.3h14.3L54.9,357.5L54.9,357.5z M51.5,348.6H40.7v-1.2h10.8V348.6z M43.2,356.2v1.3h-1.3v-7h8.4
			v5.7H43.2L43.2,356.2z M43.2,351.7v3.4H49v-3.4H43.2z"/>
	</g>
	<g>
		<path d="M140.3,282.9c-0.2,0.8-0.6,1.6-1.6,2.4c0.8,0.4,1.5,0.7,2.1,1.1l-0.9,0.8c-0.6-0.4-1.4-0.8-2.2-1.2
			c-1.1,0.6-2.8,1.1-5,1.5c-0.1-0.3-0.4-0.7-0.6-0.9c1.9-0.3,3.3-0.7,4.3-1.2c-0.9-0.4-1.9-0.7-2.8-1c0.3-0.4,0.6-0.8,0.9-1.2
			l-2.1,0.1l-0.1-1c0.8,0,1.8-0.1,2.9-0.1c0.3-0.5,0.6-1,0.8-1.4h-2.9v-2.9h3.4v-0.7h-2.9v-1.9h-1.2v-1h1.2v-1.8h2.9V271h1.1v1.3
			h3.1v1.8h1.2v1h-1.2v1.9h-3.1v0.7h3.5v2.9h-3.8c-0.2,0.5-0.5,0.9-0.8,1.4c0.9,0,1.8-0.1,2.7-0.1v-0.9h1.1v0.8l0.9,0l0,0.9
			L140.3,282.9L140.3,282.9z M134.3,279.9h2.2v-1.1h-2.2V279.9z M134.8,273.2v1h1.8v-1H134.8z M136.6,276.2v-1.1h-1.8v1.1H136.6z
			 M136,283.1c-0.2,0.3-0.4,0.6-0.6,0.8c0.7,0.2,1.5,0.5,2.2,0.8c0.9-0.6,1.3-1.2,1.5-1.8L136,283.1L136,283.1z M137.6,273.2v1h1.9
			v-1H137.6z M139.5,276.2v-1.1h-1.9v1.1H139.5z M137.6,278.8v1.1h2.3v-1.1H137.6z M147.4,275.7c-0.3,2.7-0.8,5-1.6,6.9
			c0.8,1.6,1.8,2.9,3,3.8c-0.3,0.2-0.6,0.6-0.8,1c-1.2-0.8-2.1-2-2.8-3.4c-0.8,1.5-1.9,2.7-3.3,3.7c-0.1-0.2-0.5-0.8-0.7-1
			c1.5-1,2.6-2.4,3.4-4c-0.6-1.4-1-3-1.3-4.8c-0.3,0.7-0.6,1.4-0.9,2c-0.2-0.2-0.6-0.6-0.9-0.8c1.2-1.9,1.9-4.8,2.3-7.8l1.1,0.2
			c-0.1,1-0.3,2.1-0.6,3.1h4.4v1.2L147.4,275.7L147.4,275.7z M144,275.7c0.3,1.9,0.7,3.7,1.2,5.3c0.5-1.5,0.8-3.3,1-5.3H144z"/>
		<path d="M138,289.5c-0.5,1.3-1.1,2.6-1.8,3.8v12.1h-1.3v-10.1c-0.6,0.8-1.2,1.5-1.8,2.2c-0.1-0.3-0.5-1-0.8-1.3
			c1.8-1.7,3.4-4.4,4.4-7.1L138,289.5L138,289.5z M148.7,303.5v1.3h-11.2v-1.3h6.3c0.6-2.4,1.4-6.2,1.7-8.9l1.4,0.2
			c-0.5,2.8-1.2,6.3-1.9,8.7H148.7z M147.9,293.6h-9.7v-1.3h9.7V293.6z M140.6,302.6c-0.1-1.9-0.7-5.2-1.2-7.7l1.2-0.3
			c0.6,2.5,1.1,5.7,1.3,7.6L140.6,302.6L140.6,302.6z M142.6,292.1c-0.1-0.8-0.5-2-0.9-2.9l1.3-0.3c0.3,0.9,0.7,2,0.9,2.8
			L142.6,292.1L142.6,292.1z"/>
		<path d="M147.6,311.6c-0.5,3-1.2,5.4-2.4,7.4c1,1.5,2.2,2.6,3.8,3.4c-0.3,0.3-0.7,0.8-0.9,1.1c-1.5-0.8-2.7-1.9-3.6-3.3
			c-1,1.4-2.4,2.5-4.1,3.4c-0.1-0.3-0.5-0.9-0.8-1.2c1.8-0.9,3.1-2,4.1-3.4c-0.8-1.5-1.4-3.2-1.9-5.1c-0.4,0.7-0.8,1.4-1.2,2
			c-0.2-0.2-0.8-0.7-1.1-0.9l0.1-0.1h-2v4.6l3.1-0.7l0.1,1.2c-2.9,0.7-6.1,1.5-8.4,2l-0.2-1.3l1.1-0.2v-8h1.2v7.7l1.8-0.4v-10h-3.8
			v-1.3h8.2v1.3h-3.1v3.9h2.4v0.6c1.2-1.9,2-4.4,2.5-7.1l1.3,0.2c-0.2,1.1-0.5,2.1-0.8,3.1h5.6v1.3L147.6,311.6L147.6,311.6z
			 M142.6,311.9c0.4,2.1,1,4.1,1.8,5.7c0.9-1.7,1.4-3.7,1.8-6h-3.5L142.6,311.9L142.6,311.9z"/>
		<path d="M135,328.2v5.3c0,2.4-0.2,5.9-1.5,8c-0.2-0.2-0.8-0.6-1.1-0.8c1.2-2,1.3-5,1.3-7.3V327h7.2c-0.2-0.6-0.5-1.2-0.8-1.8
			l1.3-0.4c0.4,0.7,0.8,1.5,1,2.1h6.2v1.2H135L135,328.2z M140,329c-0.3,1-0.8,2-1.3,3v9.5h-1.3V334c-0.4,0.6-0.9,1.1-1.4,1.6
			c-0.1-0.3-0.4-0.9-0.6-1.2c1.5-1.4,2.7-3.8,3.3-5.8L140,329L140,329z M148.6,332.7h-2.1v7.1c0,0.8-0.2,1.2-0.7,1.4
			c-0.6,0.2-1.5,0.2-2.8,0.2c-0.1-0.4-0.3-0.9-0.4-1.3c1,0,2,0,2.3,0c0.3,0,0.4-0.1,0.4-0.4v-7.1h-5.4v-1.3h5.4v-2.7h1.3v2.7h2.1
			L148.6,332.7L148.6,332.7z M141.6,334c0.8,1.1,1.7,2.6,2.1,3.5l-1.1,0.6c-0.4-1-1.3-2.5-2-3.6L141.6,334L141.6,334z"/>
		<path d="M147.5,357.5c0,0.9-0.2,1.4-0.8,1.6c-0.6,0.2-1.8,0.2-3.4,0.2c-0.1-0.4-0.2-1.1-0.5-1.4c1.2,0,2.5,0,2.8,0
			c0.3,0,0.4-0.1,0.4-0.5v-12h-12.9v-1.3h14.3L147.5,357.5L147.5,357.5z M144.1,348.6h-10.8v-1.2h10.8V348.6z M135.8,356.2v1.3h-1.3
			v-7h8.4v5.7H135.8L135.8,356.2z M135.8,351.7v3.4h5.8v-3.4H135.8z"/>
	</g>
	<g>
		<path d="M173.4,281.1c0.9,2.9,2.6,4.8,4.2,4.8c0.5,0,0.7-0.7,0.8-2.6c0.3,0.3,0.8,0.5,1.2,0.6c-0.2,2.6-0.8,3.3-2.1,3.3
			c-2.4,0-4.5-2.5-5.5-6.1h-5.4v4.5l4.3-1c0,0.4,0.1,1,0.1,1.2c-4.9,1.3-5.6,1.5-6,1.8c-0.1-0.4-0.4-1-0.6-1.2
			c0.3-0.2,0.8-0.6,0.8-1.3V272h12.7v5.2h-5.3c0.1,1,0.2,1.9,0.4,2.7h6.2v1.3L173.4,281.1L173.4,281.1z M166.6,273.2v2.7h10v-2.7
			H166.6z M171.7,279.9c-0.2-0.9-0.3-1.8-0.4-2.7h-4.7v2.7H171.7z"/>
		<path d="M179.4,303.6v1.3h-15.9v-1.3h7.2v-4.4h-5.6v-1.3h5.6v-3.9h-6.4v-1.3h7.9c-0.7-0.8-2-2-3.1-2.8l1.1-0.8
			c1.1,0.8,2.6,2,3.3,2.9l-0.9,0.6h5.8v1.3h-6.4v3.9h5.6v1.3h-5.6v4.4L179.4,303.6L179.4,303.6z"/>
		<path d="M165,318.7c-0.2,1.6-0.5,3.2-0.9,4.3c-0.2-0.1-0.7-0.3-1-0.4c0.4-1.1,0.7-2.7,0.9-4.1L165,318.7L165,318.7z M168.6,313.9
			c0.5,1.1,1,2.6,1.2,3.4l-1,0.4c-0.1-0.2-0.1-0.6-0.2-0.9c-4,0.6-4.6,0.8-4.9,0.9c0-0.3-0.2-0.9-0.4-1.2c0.4-0.1,0.8-0.5,1.3-1.2
			c0.3-0.3,0.9-1.1,1.5-2.1c-1.9,0.2-2.2,0.3-2.5,0.4c-0.1-0.2-0.2-0.9-0.4-1.1c0.3-0.1,0.6-0.5,0.9-1c0.4-0.5,1.6-2.6,2.3-4.5
			l1.1,0.5c-0.8,1.7-1.7,3.5-2.7,4.8l1.9-0.2c0.4-0.8,0.9-1.6,1.3-2.5l1,0.6c-1.1,2.1-2.5,4.3-3.9,6l3.1-0.4
			c-0.2-0.6-0.4-1.1-0.6-1.7L168.6,313.9L168.6,313.9z M166.8,318.5c0.2,1.2,0.4,2.7,0.5,3.8l-1,0.2c0-1.1-0.2-2.6-0.4-3.9
			L166.8,318.5L166.8,318.5z M168.7,318c0.4,1.1,0.9,2.5,1.1,3.5l-0.9,0.3c-0.2-1-0.6-2.4-1-3.5L168.7,318L168.7,318z M179.2,322
			c0,0.7-0.1,1.1-0.6,1.3c-0.4,0.2-1.2,0.2-2.3,0.2c0-0.3-0.2-0.9-0.3-1.2c0.8,0,1.5,0,1.7,0c0.2,0,0.3-0.1,0.3-0.3v-12.9h-6.7v14.4
			H170v-15.6h9.2V322z M176.3,319c0.3,0,0.8,0,1.1-0.1c0,0.3,0.1,0.7,0.1,1c-0.2,0.1-0.7,0.1-1.1,0.1H174c-1.2,0-1.5-0.4-1.5-1.6
			v-1.8h-0.7v-1.1h2.4c-0.2-0.5-0.4-1.1-0.7-1.6l0.8-0.3h-2.8v-1.1h3.4c0.3-0.9,0.7-2.1,0.9-3l1,0.3c-0.3,0.9-0.6,1.9-0.9,2.7h1.5
			v1.1h-3c0.3,0.5,0.6,1.2,0.8,1.6l-0.6,0.3h2.7v1.1h-3.7v1.8c0,0.5,0.1,0.6,0.4,0.6H176.3L176.3,319z M173.2,309.6
			c0.4,0.8,0.9,1.9,1,2.6l-0.9,0.3c-0.1-0.7-0.5-1.8-0.9-2.6L173.2,309.6L173.2,309.6z"/>
		<path d="M168.5,335.9c-0.1-0.3-0.1-0.6-0.2-1.1c-3.7,0.6-4.2,0.7-4.6,0.9c-0.1-0.2-0.3-0.9-0.4-1.3c0.4,0,0.8-0.5,1.3-1.1
			c0.3-0.3,0.9-1.1,1.6-2.1c-1.9,0.2-2.3,0.3-2.6,0.5c-0.1-0.3-0.3-0.9-0.4-1.2c0.3-0.1,0.6-0.4,1-1c0.4-0.5,1.7-2.6,2.5-4.5
			l1.2,0.5c-0.9,1.7-1.9,3.5-2.9,4.8l1.9-0.1c0.5-0.8,1-1.6,1.4-2.4l1.1,0.7c-1.2,2-2.6,4.2-4.1,5.8l2.7-0.4
			c-0.2-0.6-0.4-1.2-0.6-1.8l1-0.2c0.5,1.2,0.9,2.8,1.1,3.7L168.5,335.9L168.5,335.9z M165.1,336.7c-0.2,1.6-0.5,3.3-0.9,4.4
			c-0.2-0.1-0.8-0.3-1.1-0.4c0.4-1.1,0.7-2.7,0.9-4.1L165.1,336.7L165.1,336.7z M167,336.5c0.2,1.2,0.4,2.8,0.5,3.9l-1.1,0.2
			c0-1.1-0.2-2.7-0.4-3.9L167,336.5z M168.7,336.1c0.4,1.1,0.9,2.4,1,3.3l-1,0.3c-0.2-0.9-0.6-2.3-0.9-3.4L168.7,336.1L168.7,336.1z
			 M178.8,327.3c-0.7,1.8-1.8,3.3-3,4.6c1.1,1,2.5,1.8,4,2.4c-0.3,0.2-0.7,0.8-0.9,1.1c-0.1,0-0.3-0.1-0.4-0.2v6.1h-1.3v-0.6h-5v0.6
			h-1.3v-6c-0.2,0.1-0.4,0.2-0.6,0.3c-0.2-0.3-0.5-0.8-0.8-1.1c1.5-0.6,3.1-1.5,4.4-2.7c-0.8-0.8-1.4-1.7-1.9-2.5
			c-0.5,0.7-1.1,1.3-1.8,1.8c-0.2-0.2-0.7-0.7-1-0.9c1.7-1.2,3.1-3.1,3.9-5.2l1.3,0.3c-0.2,0.6-0.5,1.1-0.8,1.6h3.9l0.2-0.1
			L178.8,327.3L178.8,327.3z M178,334.9c-1.1-0.6-2.1-1.3-3-2.2c-0.9,0.9-2,1.6-3.1,2.2H178z M177.3,339.6v-3.5h-5v3.5H177.3z
			 M173,328.4c0.5,0.9,1.1,1.8,2,2.7c0.9-0.9,1.6-1.9,2.1-3h-3.9L173,328.4L173,328.4z"/>
		<path d="M178.4,357.5c0,0.9-0.2,1.4-0.8,1.6c-0.6,0.2-1.8,0.2-3.4,0.2c-0.1-0.4-0.2-1.1-0.5-1.4c1.2,0,2.5,0,2.8,0
			c0.3,0,0.4-0.1,0.4-0.5v-12H164v-1.3h14.3L178.4,357.5L178.4,357.5z M175,348.6h-10.8v-1.2H175V348.6z M166.6,356.2v1.3h-1.3v-7
			h8.4v5.7H166.6L166.6,356.2z M166.6,351.7v3.4h5.8v-3.4H166.6z"/>
	</g>
	<g>
		<path d="M210.2,279.4c-2.5,5.3-8.6,7.4-15,8.1c-0.1-0.4-0.3-1-0.5-1.3c3-0.3,5.9-0.9,8.4-2c-0.6-0.7-1.6-1.5-2.5-2.2
			c-0.9,0.5-1.8,0.9-2.8,1.3c-0.2-0.3-0.5-0.8-0.9-1c3.6-1.3,6.2-3.3,7.5-5.1l1.5,0.3c-0.4,0.5-0.7,0.9-1.2,1.3h4.3l0.3-0.1
			L210.2,279.4L210.2,279.4z M207.5,273.1c-2.3,4-7.5,6.4-12.2,7.4c-0.1-0.4-0.4-0.9-0.6-1.2c2-0.4,4.1-1,6-1.9
			c-0.6-0.6-1.5-1.4-2.4-2c-0.6,0.4-1.4,0.8-2.1,1.1c-0.2-0.3-0.6-0.7-0.9-0.9c2.9-1.2,5-3,6.2-4.4l1.5,0.3
			c-0.3,0.4-0.7,0.9-1.2,1.3h4.7l0.2,0L207.5,273.1L207.5,273.1z M200.4,273.8c-0.3,0.3-0.7,0.5-1.1,0.8c0.9,0.6,1.9,1.4,2.6,2.1
			c1.4-0.8,2.7-1.8,3.6-2.9L200.4,273.8L200.4,273.8z M203.3,280.1c-0.5,0.4-1.1,0.8-1.7,1.2c0.9,0.7,2,1.6,2.7,2.3
			c1.6-0.9,2.9-2,3.9-3.5H203.3z"/>
		<path d="M208.3,303.9c0.7,0,0.8-0.5,0.9-3.2c0.3,0.2,0.9,0.5,1.2,0.6c-0.1,3.1-0.5,3.9-2.1,3.9h-2.6c-1.6,0-2-0.5-2-2v-6.4h-3.4
			c-0.3,3.9-1.2,7-5.4,8.7c-0.2-0.3-0.5-0.8-0.9-1c3.8-1.5,4.5-4.3,4.8-7.6h-4.6v-1.3h15.8v1.3h-5.1v6.4c0,0.6,0.1,0.7,0.9,0.7
			L208.3,303.9L208.3,303.9z M208.7,291.7H196v-1.3h12.7L208.7,291.7L208.7,291.7z"/>
		<path d="M196.6,317.8c-0.2,1.7-0.7,3.5-1.6,4.9c-0.2-0.2-0.8-0.5-1.1-0.6c1.4-2.1,1.6-5.1,1.6-7.1v-2.4h7.4v5.3L196.6,317.8
			L196.6,317.8z M200.2,307.6c-0.1,0.1-0.2,0.3-0.3,0.4c1.4,0.9,3.1,1.9,4,2.6l-0.7,1.1c-0.9-0.7-2.5-1.9-4-2.8
			c-1.2,1.5-2.9,2.8-4.5,3.6c-0.1-0.3-0.5-0.9-0.7-1.2c2-1,4-2.5,5.1-4.3L200.2,307.6L200.2,307.6z M196.6,318.7h6.7v4.7h-1.2v-0.7
			h-4.3v0.7h-1.1V318.7L196.6,318.7z M201.6,316.8v-1.2h-4.8c0,0.4,0,0.8-0.1,1.2H201.6L201.6,316.8z M196.8,313.6v1.1h4.8v-1.1
			H196.8z M201.3,310.8v0.9h-3.8v-0.9H201.3z M197.8,319.7v1.9h4.3v-1.9H197.8z M206.2,318.9h-1.3V309h1.3V318.9z M209.6,307.1v14.6
			c0,0.9-0.2,1.3-0.7,1.5c-0.5,0.2-1.4,0.3-2.9,0.3c-0.1-0.4-0.3-1-0.4-1.3c1.1,0,2.1,0,2.3,0c0.3,0,0.4-0.1,0.4-0.4v-14.6
			L209.6,307.1L209.6,307.1z"/>
		<path d="M196.9,336.4c-0.4,1.3-1.2,2.7-1.9,3.6c-0.2-0.2-0.7-0.5-0.9-0.6c0.7-0.9,1.3-2.1,1.7-3.2L196.9,336.4z M199.1,335.2v6.2
			h-1.3v-6.2h-3.6V334h3.6v-1.9h-3.7V331h5c0.3-0.8,0.8-2,1-2.8l1.2,0.2c-0.3,0.9-0.7,1.8-1,2.6h2.3v1.1h-3.5v1.9h3.3v1.1H199.1z
			 M202.3,328h-7.9v-1.1h3.5c-0.2-0.5-0.5-1.1-0.8-1.6l1.3-0.3c0.4,0.6,0.8,1.4,1,2h2.8V328z M196.3,330.9c-0.1-0.7-0.4-1.7-0.7-2.5
			l1.1-0.2c0.4,0.8,0.7,1.8,0.7,2.5L196.3,330.9L196.3,330.9z M200.9,336c0.6,0.9,1.2,2,1.5,2.8l-1,0.5c-0.3-0.8-0.9-2-1.5-2.9
			L200.9,336L200.9,336z M210.5,332.3h-2v9.1h-1.3v-9.1h-2.5v0.6c0,2.6-0.2,6.1-1.9,8.4c-0.2-0.2-0.7-0.7-1-0.8
			c1.5-2.2,1.7-5.2,1.7-7.6v-6.2c2-0.3,4.3-0.9,5.6-1.4l1.1,1c-1.5,0.6-3.6,1-5.4,1.3v3.4h5.7L210.5,332.3L210.5,332.3z"/>
		<path d="M209.2,357.5c0,0.9-0.2,1.4-0.8,1.6c-0.6,0.2-1.8,0.2-3.4,0.2c-0.1-0.4-0.2-1.1-0.5-1.4c1.2,0,2.5,0,2.8,0
			c0.3,0,0.4-0.1,0.4-0.5v-12h-12.9v-1.3h14.3L209.2,357.5L209.2,357.5z M205.8,348.6H195v-1.2h10.8V348.6z M197.5,356.2v1.3h-1.3
			v-7h8.4v5.7H197.5L197.5,356.2z M197.5,351.7v3.4h5.8v-3.4H197.5z"/>
	</g>
</g>
<g>
	<line class="st4" x1="332.4" y1="167.6" x2="304.9" y2="167.6"/>
	<line class="st4" x1="305.2" y1="42.2" x2="305.4" y2="402.6"/>
	<path class="st4" d="M227.4,113.6l0.7-22.6c0.1-4.3,4.3-7.8,9.3-7.8h133.9c5.2,0,9.4,3.6,9.4,8v22.4"/>
	<path class="st6" d="M177.1,97.4h100c2.8,0,5,2.2,5,5v21.7c0,2.8-2.2,5-5,5h-100c-2.8,0-5-2.2-5-5v-21.7
		C172.1,99.7,174.4,97.4,177.1,97.4z"/>
	<path class="st7" d="M430.5,183.6h-100c-2.8,0-5-2.2-5-5v-22c0-2.8,2.2-5,5-5h100c2.8,0,5,2.2,5,5v22
		C435.5,181.4,433.3,183.6,430.5,183.6z"/>
	<path class="st6" d="M330.5,97.4h100c2.8,0,5,2.2,5,5v21.7c0,2.8-2.2,5-5,5h-100c-2.8,0-5-2.2-5-5v-21.7
		C325.5,99.7,327.8,97.4,330.5,97.4z"/>
	<g>
		<path class="st0" d="M204.4,109.6c-0.5,3-1.2,5.4-2.4,7.4c1,1.5,2.2,2.7,3.8,3.4c-0.3,0.3-0.7,0.8-0.9,1.1
			c-1.5-0.8-2.7-1.9-3.6-3.3c-1,1.3-2.4,2.5-4.1,3.3c-0.1-0.3-0.5-0.9-0.8-1.2c1.8-0.8,3.1-2,4.1-3.4c-0.8-1.5-1.4-3.2-1.9-5.1
			c-0.4,0.7-0.8,1.4-1.2,2c-0.2-0.2-0.8-0.7-1.1-0.9l0.1-0.1h-2v4.6l3.1-0.7l0.1,1.2c-2.9,0.7-6.1,1.5-8.4,2l-0.2-1.3l1.1-0.2v-8
			h1.2v7.7l1.8-0.4v-10h-3.8v-1.3h8.2v1.3h-3.1v3.9h2.4v0.6c1.2-1.9,2-4.4,2.5-7.1l1.3,0.2c-0.2,1.1-0.5,2.1-0.8,3.1h5.6v1.3
			L204.4,109.6L204.4,109.6z M199.5,109.9c0.4,2.1,1,4.1,1.8,5.7c0.9-1.7,1.4-3.7,1.8-6.1h-3.5L199.5,109.9L199.5,109.9z"/>
		<path class="st0" d="M223.9,108c-0.5,1.2-1.2,2.2-2.1,3.1c1.1,0.7,2.5,1.3,3.9,1.6c-0.3,0.3-0.7,0.8-0.9,1.1
			c-1.5-0.4-2.9-1.1-4.1-1.9c-1.1,0.8-2.5,1.4-4,1.9c-0.1-0.2-0.3-0.5-0.4-0.7c-0.3,1.1-0.7,2.1-1.1,2.8l-0.9-0.5
			c0.4-0.8,0.7-1.9,1-2.9h-1.7v7.4c0,0.7-0.1,1-0.6,1.2c-0.5,0.2-1.2,0.2-2.2,0.2c-0.1-0.3-0.2-0.9-0.4-1.2c0.8,0,1.5,0,1.7,0
			c0.2,0,0.3-0.1,0.3-0.3v-5.7c-0.7,1.7-1.6,3.3-2.6,4.4c-0.1-0.4-0.5-0.9-0.7-1.3c1.1-1.1,2.2-3,2.9-4.8h-2.7v-1.2h4.8
			c-0.9-0.8-2.6-1.8-4-2.4l0.8-0.9c0.6,0.2,1.2,0.5,1.8,0.9c0.7-0.5,1.4-1.2,1.9-1.8h-5.1v-1.2h6.1l0.2-0.1l0.9,0.6
			c-0.7,1.1-1.9,2.2-2.9,3.1c0.6,0.4,1.1,0.7,1.5,1.1l-0.6,0.7h1.2l0.2-0.1l0.8,0.3c-0.1,0.3-0.2,0.7-0.3,1c1.2-0.4,2.3-0.8,3.3-1.4
			c-0.7-0.7-1.4-1.4-1.9-2.2c-0.5,0.5-0.9,1-1.4,1.4c-0.2-0.2-0.7-0.7-1-0.9c1.4-1.1,2.8-2.7,3.5-4.4l1.3,0.3
			c-0.2,0.5-0.5,1-0.8,1.6h6v1.1L223.9,108L223.9,108z M223.5,115h1.4c0,0,0,0.4-0.1,0.6c-0.3,3.3-0.7,4.7-1.2,5.2
			c-0.3,0.3-0.7,0.4-1.2,0.5c-0.4,0-1.2,0-2,0c0-0.3-0.1-0.8-0.4-1.2c0.8,0.1,1.6,0.1,1.9,0.1c0.3,0,0.4,0,0.6-0.2
			c0.4-0.3,0.6-1.4,0.9-3.8h-3c-0.6,2.3-1.9,4.2-4.8,5.4c-0.2-0.3-0.6-0.8-0.9-1.1c2.5-0.9,3.7-2.4,4.2-4.3h-2.8V115h3.1
			c0.1-0.6,0.2-1.2,0.2-1.8h1.4c-0.1,0.6-0.1,1.2-0.2,1.8L223.5,115L223.5,115L223.5,115z M218.6,108c0.5,0.9,1.2,1.7,2,2.3
			c0.7-0.7,1.3-1.4,1.7-2.3H218.6z"/>
		<path class="st0" d="M234.6,116.5H229v-1.3h5.6V116.5z M234.1,109.1h-4.7v-1.3h4.7V109.1z M239.4,111.5c0,0.3,0,0.5,0,0.8
			c0.8,3.8,2.6,6.7,5.9,7.8c-0.3,0.3-0.7,0.8-0.9,1.2c-2.7-1.1-4.4-3.2-5.4-6.1c-0.6,2.2-2.1,4.5-5.6,6.3c-0.2-0.3-0.7-0.8-1-1
			c5.2-2.6,5.6-6.4,5.6-8.9v-1.4h1.4L239.4,111.5L239.4,111.5z M236.5,109.4c-0.6,1.5-1.2,2.8-1.9,3.8c-0.3-0.2-0.9-0.6-1.3-0.8
			c1.4-1.8,2.4-4.6,2.9-7.4l1.4,0.3c-0.2,0.9-0.4,1.9-0.7,2.8h6.5l0.2-0.1l1,0.5c-0.5,1.8-1.3,3.6-1.9,4.9c-0.3-0.2-0.8-0.4-1.1-0.6
			c0.4-0.8,1-2.2,1.3-3.4L236.5,109.4L236.5,109.4z"/>
		<path class="st0" d="M264,115.7c-1.1,0.8-2.6,1.7-3.9,2.4c1.4,1,3.1,1.7,5.1,2.1c-0.3,0.3-0.6,0.8-0.8,1.2
			c-4.1-0.9-6.9-3.1-8.5-6.5h-2.9v4.8l4.9-1.2c0,0.3,0,0.9,0,1.2c-5,1.3-5.9,1.5-6.3,1.8l-0.1,0.1c-0.1-0.3-0.4-1-0.6-1.3
			c0.4-0.2,0.9-0.6,0.9-1.3v-4h-2.9v-1.2h3.1v-7.9H263v1.1h-9.7v1.6h9.2v1.1h-9.2v1.5h9.2v1.1h-9.2v1.6h11.5v1.2h-7.5
			c0.5,0.9,1.1,1.8,1.9,2.5c1.3-0.7,2.8-1.6,3.7-2.4L264,115.7L264,115.7z"/>
	</g>
	<g>
		<path class="st0" d="M358.8,173.9v1.3h-15.9v-1.3h7.2v-4.4h-5.5v-1.3h5.5v-3.9h-6.4v-1.3h7.9c-0.7-0.8-2-2-3.1-2.8l1.1-0.8
			c1.1,0.8,2.6,2.1,3.3,2.9l-0.9,0.6h5.8v1.3h-6.4v3.9h5.6v1.3h-5.6v4.4H358.8L358.8,173.9z"/>
		<path class="st0" d="M368.3,159.9c-0.5,1.3-1.2,2.6-1.9,3.8v12.1H365v-10.1c-0.7,0.9-1.4,1.8-2.1,2.4c-0.1-0.3-0.6-1-0.8-1.3
			c1.9-1.7,3.8-4.5,4.9-7.3L368.3,159.9L368.3,159.9z M373.9,168.4v5.5h4.6v1.3H368v-1.3h4.6v-5.5h-5.1v-1.3h5.1v-4.7h-4v-1.3h9.6
			v1.3h-4.3v4.7h5v1.3H373.9z"/>
		<path class="st0" d="M387.4,170.2c-0.2-0.5-0.8-1.6-1.2-2.4v8H385v-7.5c-0.6,1.7-1.4,3.3-2.2,4.3c-0.1-0.4-0.5-1-0.7-1.3
			c1-1.3,2.1-3.6,2.7-5.6h-2.3v-1.3h2.5v-2.9c-0.6,0.1-1.3,0.3-1.9,0.4c-0.1-0.3-0.2-0.8-0.4-1.1c1.7-0.3,3.6-0.9,4.8-1.4l0.8,1.1
			c-0.6,0.3-1.3,0.5-2.1,0.7v3.2h2.1v1.3h-2.1v0.4c0.5,0.6,1.8,2.5,2,3L387.4,170.2L387.4,170.2z M397.5,171.2
			c-0.2-1.5-0.9-3.7-1.7-5.3c-0.9,2.2-2,4.2-3.4,5.9v1.8c0,0.7,0.1,0.9,0.8,0.9h2.1c0.6,0,0.7-0.5,0.8-2.7c0.3,0.2,0.8,0.5,1.1,0.5
			c-0.1,2.6-0.5,3.3-1.8,3.3H393c-1.5,0-1.9-0.4-1.9-2v-0.2c-0.7,0.8-1.5,1.5-2.3,2.1c-0.2-0.2-0.8-0.7-1.1-0.9
			c1.3-0.9,2.4-2,3.4-3.2v-8.2h1.3v6.4c1.7-2.6,2.9-5.7,3.9-9.2l1.3,0.2c-0.5,1.8-1.1,3.6-1.8,5.2l1.1-0.3c0.8,1.7,1.5,3.9,1.8,5.3
			L397.5,171.2L397.5,171.2z M387.9,170.6c0.7-1.4,1.1-3.7,1.3-5.6l1,0.2c-0.2,1.8-0.6,4.3-1.3,5.7L387.9,170.6L387.9,170.6z
			 M394.2,162.9c-0.7-0.8-2.2-1.9-3.4-2.7l0.8-0.9c1.2,0.7,2.7,1.8,3.5,2.6L394.2,162.9L394.2,162.9z"/>
		<path class="st0" d="M418.2,168.4v1h-15.9v-1h7.2v-1.1h-6v-0.9h6v-0.9H404v-0.9h5.5v-1.1h-7.2v-1h7.2v-1h-5.3v-0.9h5.3v-1.3h1.3
			v1.3h5.1v1.9h2.1v1h-2.1v2h-5.1v0.9h6.1v0.9h-6.1v1.1L418.2,168.4L418.2,168.4z M404.6,170.3H416v5.6h-1.3v-0.6h-8.9v0.6h-1.3
			L404.6,170.3L404.6,170.3z M405.9,171.2v1.1h8.9v-1.1H405.9z M414.7,174.3v-1.1h-8.9v1.1H414.7z M410.8,162.5h3.8v-1h-3.8V162.5z
			 M410.8,164.6h3.8v-1.1h-3.8V164.6z"/>
	</g>
	<g>
		<path class="st0" d="M357.9,111.6h-1.3v-2.7h-12.3v2.7h-1.3v-3.8h2.9c-0.3-0.6-0.9-1.5-1.4-2.1l1.2-0.5c0.6,0.6,1.2,1.5,1.5,2.1
			l-1.1,0.5h3.8V105h1.4v2.8h6.7L357.9,111.6L357.9,111.6z M356.8,119.2c0,0.7-0.1,1.1-0.7,1.3c-0.6,0.2-1.5,0.2-2.9,0.2
			c-0.1-0.4-0.3-0.9-0.5-1.2c1.1,0,2,0,2.3,0c0.3,0,0.4-0.1,0.4-0.3v-2.5h-4.2v4.7h-1.4v-4.7h-4.5v3.9h-1.3v-5.2h5.8V114h-4.2v-3.8
			h9.4v3.8h-3.9v1.5h5.5L356.8,119.2L356.8,119.2z M347,113h6.8v-1.8H347V113z M356.4,105.6c-0.6,0.8-1.3,1.6-1.8,2.2l-1.1-0.4
			c0.5-0.6,1.1-1.6,1.5-2.2L356.4,105.6L356.4,105.6z"/>
		<path class="st0" d="M376.8,108c-0.5,1.2-1.2,2.2-2.1,3.1c1.1,0.7,2.5,1.3,3.9,1.6c-0.3,0.3-0.7,0.8-0.9,1.1
			c-1.5-0.4-2.9-1.1-4-1.9c-1.1,0.8-2.5,1.4-4,1.9c-0.1-0.2-0.3-0.5-0.5-0.7c-0.3,1.1-0.7,2.1-1.1,2.8l-0.9-0.5
			c0.4-0.8,0.7-1.9,1-2.9h-1.7v7.4c0,0.7-0.1,1-0.6,1.2c-0.5,0.2-1.2,0.2-2.2,0.2c-0.1-0.3-0.2-0.9-0.4-1.2c0.8,0,1.5,0,1.7,0
			c0.2,0,0.3-0.1,0.3-0.3v-5.7c-0.7,1.7-1.6,3.3-2.6,4.4c-0.1-0.4-0.5-0.9-0.7-1.3c1.1-1.1,2.2-3,2.9-4.8H362v-1.2h4.8
			c-1-0.8-2.6-1.8-4-2.4l0.8-0.9c0.6,0.2,1.2,0.5,1.8,0.9c0.7-0.5,1.4-1.2,1.9-1.8h-5.1v-1.2h6.1l0.2-0.1l0.9,0.6
			c-0.7,1.1-1.9,2.2-2.9,3.1c0.6,0.4,1.1,0.7,1.5,1.1l-0.6,0.7h1.2l0.2-0.1l0.8,0.3c-0.1,0.3-0.2,0.7-0.3,1c1.2-0.4,2.3-0.8,3.3-1.4
			c-0.7-0.7-1.4-1.4-1.9-2.2c-0.5,0.5-1,1-1.4,1.4c-0.2-0.2-0.7-0.7-1-0.9c1.4-1.1,2.8-2.7,3.5-4.4l1.3,0.3c-0.2,0.5-0.5,1-0.8,1.6
			h6v1.1L376.8,108L376.8,108z M376.4,115h1.4c0,0,0,0.4,0,0.6c-0.3,3.3-0.7,4.7-1.2,5.2c-0.3,0.3-0.7,0.4-1.2,0.5c-0.4,0-1.2,0-2,0
			c0-0.3-0.1-0.8-0.4-1.2c0.8,0.1,1.5,0.1,1.9,0.1c0.3,0,0.5,0,0.6-0.2c0.4-0.3,0.6-1.4,0.9-3.8h-3c-0.6,2.3-1.9,4.2-4.8,5.4
			c-0.2-0.3-0.6-0.8-0.9-1.1c2.5-0.9,3.7-2.4,4.2-4.3h-2.8V115h3.1c0.1-0.6,0.2-1.2,0.2-1.8h1.4c0,0.6-0.1,1.2-0.2,1.8L376.4,115
			L376.4,115L376.4,115z M371.5,108c0.5,0.9,1.2,1.7,2,2.3c0.7-0.7,1.3-1.4,1.7-2.3H371.5z"/>
		<path class="st0" d="M387.5,116.5h-5.6v-1.3h5.6V116.5z M387,109.1h-4.7v-1.3h4.7V109.1z M392.3,111.5c0,0.3,0,0.5,0,0.8
			c0.8,3.8,2.6,6.7,5.9,7.8c-0.3,0.3-0.7,0.8-0.9,1.2c-2.7-1.1-4.4-3.2-5.4-6.1c-0.6,2.2-2.1,4.5-5.5,6.3c-0.2-0.3-0.7-0.8-1-1
			c5.2-2.6,5.6-6.4,5.6-8.9v-1.4h1.4L392.3,111.5L392.3,111.5z M389.4,109.4c-0.6,1.5-1.2,2.8-1.9,3.8c-0.3-0.2-1-0.6-1.3-0.8
			c1.4-1.8,2.4-4.6,2.9-7.4l1.4,0.3c-0.2,0.9-0.4,1.9-0.7,2.8h6.5l0.2-0.1l1,0.5c-0.5,1.8-1.3,3.6-1.9,4.9c-0.3-0.2-0.8-0.4-1.1-0.6
			c0.4-0.8,1-2.2,1.3-3.4L389.4,109.4L389.4,109.4z"/>
		<path class="st0" d="M416.9,115.7c-1.1,0.8-2.6,1.7-3.9,2.4c1.4,1,3.1,1.7,5.1,2.1c-0.3,0.3-0.6,0.8-0.8,1.2
			c-4.1-0.9-6.9-3.1-8.5-6.5H406v4.8l4.9-1.2c0,0.3,0,0.9,0,1.2c-5,1.3-5.9,1.5-6.3,1.8l-0.1,0.1c-0.1-0.3-0.4-1-0.6-1.3
			c0.4-0.2,0.9-0.6,0.9-1.3v-4h-2.9v-1.2h3.1v-7.9H416v1.1h-9.7v1.6h9.2v1.1h-9.2v1.5h9.2v1.1h-9.2v1.6h11.5v1.2h-7.5
			c0.5,0.9,1.1,1.8,1.9,2.5c1.3-0.7,2.8-1.6,3.7-2.4L416.9,115.7L416.9,115.7z"/>
	</g>
	<path class="st8" d="M260.9,25.8h87.7c2.8,0,5,2.2,5,5v22c0,2.8-2.2,5-5,5h-87.7c-2.8,0-5-2.2-5-5v-22
		C255.9,28.1,258.1,25.8,260.9,25.8z"/>
	<g>
		<path class="st0" d="M285.3,36.4c-0.4,1-0.9,2.3-1.4,3.2h2.6v1.2h-9.4v-1.2h5.5c0.5-1,1-2.5,1.3-3.5L285.3,36.4L285.3,36.4z
			 M286.1,36h-8.4v-1.2h3.7c-0.2-0.6-0.5-1.3-0.7-1.8l1.2-0.3c0.4,0.7,0.7,1.6,1,2.2h3.3L286.1,36L286.1,36z M278.2,42.5h7.5v6.4
			h-1.3v-0.7h-4.9V49h-1.3V42.5L278.2,42.5z M279.9,39.5c-0.2-0.8-0.6-2.1-1.1-3.1l1.1-0.3c0.5,0.9,1,2.2,1.2,3L279.9,39.5
			L279.9,39.5z M279.5,43.7v3.3h4.9v-3.3H279.5z M293.2,34.2c-0.6,1.6-1.5,3.7-2.2,5.3c1.6,1.7,2,3.1,2,4.3c0,1-0.2,1.9-0.8,2.3
			c-0.3,0.2-0.7,0.3-1.1,0.4c-0.5,0-1,0-1.5,0c0-0.4-0.1-0.9-0.4-1.3c0.5,0,1,0,1.4,0c0.3,0,0.5-0.1,0.7-0.2
			c0.4-0.2,0.5-0.8,0.5-1.4c0-1.1-0.5-2.4-2-4.1c0.7-1.5,1.4-3.4,1.9-4.8h-2.9v14.2h-1.2V33.6h4.6l0.2-0.1L293.2,34.2L293.2,34.2z"
			/>
		<path class="st0" d="M332,43.4c-1.1,0.8-2.6,1.7-3.9,2.4c1.4,1,3.1,1.7,5.1,2c-0.3,0.3-0.6,0.8-0.8,1.2c-4.1-0.9-6.9-3.1-8.5-6.5
			H321v4.8l4.9-1.2c0,0.3,0,0.9,0,1.2c-5,1.3-5.9,1.5-6.3,1.8l-0.1,0c-0.1-0.3-0.4-1-0.6-1.3c0.4-0.2,0.9-0.6,0.9-1.3v-4h-2.9v-1.2
			h3.1v-7.9H331v1.1h-9.7v1.5h9.2v1.1h-9.2v1.5h9.2v1.1h-9.2v1.5h11.5v1.2h-7.5c0.5,1,1.1,1.8,1.9,2.5c1.3-0.7,2.8-1.6,3.7-2.4
			L332,43.4L332,43.4z"/>
	</g>
</g>
<g>
	<path class="st0" d="M93.9,249.2c-1.3,1-3.7,1.9-5.5,2.3c-0.2-0.3-0.5-0.8-0.8-1c1.8-0.3,4.1-1,5.3-1.8L93.9,249.2L93.9,249.2z
		 M103.3,246.7v1.1h-7.2v4.3h-1.3v-4.3h-7.1v-1.1h7.1v-1.4h-5.4v-1h5.4v-1.3h-6.3V242h3.9c-0.2-0.5-0.5-1.2-0.9-1.7l0.9-0.2h-4.7
		v-1.1h2.9c-0.3-0.7-0.9-1.8-1.4-2.6l1.1-0.4c0.6,0.8,1.3,1.9,1.5,2.6l-0.9,0.4h2.2v-3.2h1.3v3.2h2.1v-3.2h1.3v3.2h2.2l-0.7-0.2
		c0.5-0.7,1.1-1.9,1.4-2.7l1.4,0.4c-0.5,0.9-1.1,1.9-1.6,2.6h2.8v1.1h-4.7l1.2,0.3c-0.4,0.6-0.8,1.2-1.2,1.7h4.1v1.1H96v1.3h5.6v1
		H96v1.4L103.3,246.7L103.3,246.7z M92.7,240c0.4,0.6,0.8,1.3,0.9,1.8l-0.7,0.2h5l-0.6-0.2c0.4-0.5,0.8-1.3,1.1-1.8H92.7L92.7,240z
		 M98,248.7c1.7,0.6,4,1.4,5.2,2l-0.8,0.9c-1.2-0.6-3.5-1.5-5.2-2.1L98,248.7L98,248.7z"/>
	<path class="st0" d="M121.9,238.7c-0.5,1.2-1.2,2.2-2.1,3.1c1.2,0.7,2.5,1.3,3.9,1.6c-0.3,0.3-0.7,0.8-0.9,1.1
		c-1.5-0.4-2.9-1.1-4.1-1.9c-1.2,0.8-2.5,1.4-4,1.9c-0.1-0.2-0.3-0.5-0.4-0.7c-0.3,1.1-0.7,2.1-1.1,2.8l-0.9-0.5
		c0.4-0.8,0.7-1.9,1-2.9h-1.7v7.4c0,0.7-0.1,1-0.6,1.2c-0.5,0.2-1.2,0.2-2.2,0.2c-0.1-0.3-0.2-0.9-0.4-1.2c0.8,0,1.5,0,1.7,0
		c0.2,0,0.3-0.1,0.3-0.3v-5.7c-0.7,1.7-1.6,3.4-2.6,4.4c-0.1-0.4-0.5-0.9-0.7-1.3c1.1-1.1,2.2-3,2.9-4.8h-2.7V242h4.8
		c-0.9-0.8-2.6-1.8-4-2.4l0.8-0.9c0.6,0.2,1.2,0.5,1.8,0.9c0.7-0.5,1.4-1.2,1.9-1.8h-5.1v-1.2h6.1l0.2-0.1l0.9,0.6
		c-0.7,1.1-1.8,2.2-2.9,3.1c0.6,0.4,1.1,0.7,1.5,1.1l-0.6,0.7h1.2l0.2-0.1l0.8,0.3c-0.1,0.3-0.2,0.6-0.3,1c1.2-0.4,2.3-0.8,3.3-1.4
		c-0.7-0.6-1.4-1.4-1.9-2.2c-0.5,0.5-0.9,1-1.4,1.4c-0.2-0.2-0.7-0.7-1-0.9c1.4-1.1,2.8-2.7,3.5-4.4l1.3,0.3c-0.2,0.5-0.5,1-0.8,1.6
		h6v1.1L121.9,238.7L121.9,238.7z M121.5,245.7h1.3c0,0,0,0.4-0.1,0.6c-0.3,3.4-0.7,4.7-1.2,5.2c-0.3,0.3-0.7,0.4-1.2,0.5
		c-0.4,0-1.2,0-2,0c0-0.3-0.1-0.9-0.4-1.2c0.8,0.1,1.6,0.1,1.9,0.1c0.3,0,0.4,0,0.6-0.2c0.4-0.3,0.6-1.4,0.9-3.9h-3
		c-0.6,2.3-1.9,4.2-4.8,5.4c-0.2-0.3-0.6-0.9-0.8-1.1c2.5-0.9,3.7-2.4,4.2-4.3h-2.8v-1.1h3.1c0.1-0.6,0.2-1.2,0.2-1.8h1.3
		c-0.1,0.6-0.1,1.2-0.2,1.8L121.5,245.7L121.5,245.7L121.5,245.7z M116.7,238.7c0.5,0.9,1.2,1.7,2,2.3c0.7-0.6,1.3-1.4,1.7-2.3
		H116.7z"/>
	<path class="st0" d="M142.9,249.6h-7.3v2.5h-1.4v-2.5h-7.2v-1.2h7.2v-1.4h-5.4v-6.3h12.4v6.3h-5.6v1.4h7.3V249.6z M134.4,239.9
		h-5.9v-3.5h5.9V239.9z M133.1,237.3h-3.5v1.7h3.5V237.3z M130.2,243.4h4.1v-1.5h-4.1V243.4z M134.3,246v-1.6h-4.1v1.6H134.3z
		 M139.9,241.9h-4.3v1.5h4.3V241.9z M139.9,244.4h-4.3v1.6h4.3V244.4z M141.8,239.9h-6v-3.5h6V239.9z M140.5,237.3H137v1.7h3.5
		V237.3z"/>
	<path class="st0" d="M152.3,236.1c-0.5,1.3-1.1,2.6-1.8,3.8v12.1h-1.3V242c-0.6,0.8-1.2,1.5-1.8,2.2c-0.1-0.3-0.5-1-0.8-1.3
		c1.8-1.7,3.4-4.4,4.4-7.1L152.3,236.1L152.3,236.1z M162.9,250.1v1.3h-11.2v-1.3h6.3c0.6-2.4,1.4-6.2,1.7-8.9l1.4,0.2
		c-0.5,2.8-1.2,6.3-1.9,8.7H162.9z M162.2,240.2h-9.7v-1.3h9.7V240.2z M154.9,249.3c-0.1-1.9-0.7-5.2-1.2-7.7l1.2-0.3
		c0.6,2.5,1.1,5.7,1.3,7.6L154.9,249.3L154.9,249.3z M156.9,238.8c-0.1-0.8-0.5-2-0.9-2.9l1.3-0.3c0.3,0.9,0.7,2.1,0.9,2.8
		L156.9,238.8L156.9,238.8z"/>
</g>
<g>
	<path class="st0" d="M273,425.4h-5.6v-1.3h5.6V425.4z M272.5,418h-4.7v-1.3h4.7V418z M277.8,420.4c0,0.3,0,0.5,0,0.8
		c0.8,3.8,2.6,6.7,5.9,7.8c-0.3,0.3-0.7,0.8-0.9,1.2c-2.7-1.1-4.4-3.2-5.4-6.1c-0.6,2.2-2.1,4.5-5.5,6.3c-0.2-0.3-0.7-0.8-1-1
		c5.2-2.6,5.6-6.4,5.6-8.9V419h1.4L277.8,420.4L277.8,420.4z M274.9,418.3c-0.6,1.5-1.2,2.8-1.9,3.8c-0.3-0.2-1-0.6-1.3-0.8
		c1.4-1.8,2.4-4.6,2.9-7.4l1.4,0.3c-0.2,1-0.4,1.9-0.7,2.8h6.5l0.2-0.1l1,0.5c-0.5,1.8-1.3,3.6-1.9,4.9c-0.3-0.2-0.8-0.4-1.1-0.6
		c0.4-0.9,1-2.2,1.3-3.4L274.9,418.3L274.9,418.3z"/>
	<path class="st0" d="M293.1,424.6c0-0.3-0.1-0.6-0.3-1c-4.2,0.6-4.7,0.8-5.1,1c-0.1-0.3-0.3-0.9-0.4-1.3c0.4-0.1,0.8-0.5,1.3-1.2
		c0.3-0.3,0.9-1.1,1.5-2c-1.9,0.2-2.3,0.3-2.5,0.4c-0.1-0.2-0.3-0.9-0.4-1.2c0.3-0.1,0.6-0.5,1-1c0.4-0.5,1.6-2.6,2.4-4.5l1.3,0.5
		c-0.8,1.7-1.8,3.4-2.8,4.8l1.9-0.2c0.5-0.8,1-1.6,1.4-2.4l1.1,0.7c-1.2,2.1-2.6,4.1-4,5.8l3.1-0.5c-0.2-0.6-0.5-1.1-0.7-1.6l1-0.3
		c0.6,1.2,1.1,2.7,1.3,3.7L293.1,424.6L293.1,424.6z M289.1,425.6c-0.2,1.5-0.5,3.2-0.9,4.3c-0.2-0.1-0.8-0.3-1-0.4
		c0.4-1.1,0.7-2.7,0.9-4.1L289.1,425.6L289.1,425.6z M291,425.3c0.2,1.1,0.4,2.6,0.5,3.6l-1,0.2c0-1-0.2-2.5-0.4-3.6L291,425.3
		L291,425.3z M292.9,424.9c0.4,0.9,0.8,2.1,0.9,2.9l-1,0.3c-0.1-0.8-0.5-2-0.9-3L292.9,424.9L292.9,424.9z M302.9,420.1
		c-0.5,2.6-1.4,4.8-2.6,6.5c0.9,1.1,1.9,2,3.2,2.5c-0.3,0.2-0.7,0.8-0.9,1.1c-1.2-0.6-2.2-1.5-3.1-2.6c-0.9,1.1-2,2-3.2,2.7
		c-0.2-0.3-0.5-0.8-0.9-1c1.2-0.6,2.3-1.6,3.3-2.8c-0.9-1.5-1.5-3.2-2-5.1c-0.3,3.6-1,6.5-2.7,8.8c-0.2-0.2-0.9-0.7-1.2-0.8
		c2.4-2.9,2.7-7.5,2.8-13.4H294v-1.3h6.4l0.2-0.1l0.9,0.1c-0.2,1.5-0.5,3.4-0.8,5h1.3l0.2,0L302.9,420.1z M297,416
		c0,1.4-0.1,2.6-0.1,3.9h2.5c0.2-1.2,0.5-2.7,0.7-3.9H297L297,416z M297.8,421.1c0.4,1.6,1,3.1,1.8,4.4c0.8-1.3,1.4-2.7,1.8-4.4
		H297.8z"/>
	<path class="st0" d="M311,423.5c-0.2-0.5-0.6-1.3-1-2.1v8.9h-1.2v-8.6c-0.5,1.9-1.1,3.6-1.7,4.7c-0.1-0.4-0.4-1-0.6-1.3
		c0.9-1.5,1.7-4.2,2.2-6.6H307v-1.3h1.9v-3.5h1.2v3.5h1.4v1.3h-1.4v1.2c0.4,0.6,1.4,2.3,1.6,2.7L311,423.5L311,423.5z M322,424.8
		c-0.6,1.1-1.3,2-2.2,2.9c0.5,0.8,1.1,1.2,1.9,1.3c0.4,0,0.6-0.6,0.8-1.9c0.2,0.2,0.7,0.6,0.9,0.7c-0.3,2-0.9,2.6-1.6,2.6
		c-1.2-0.1-2.1-0.7-2.8-1.8c-0.9,0.7-2,1.3-3.1,1.8c-0.1-0.2-0.5-0.6-0.7-0.9c1.2-0.5,2.4-1.1,3.4-1.9c-0.4-0.9-0.8-2-1-3.3h-2.9
		v0.3c0,0.1,0,0.3,0,0.4c0.9,0.7,1.9,1.6,2.5,2.1l-0.8,0.8c-0.4-0.4-1.1-1.1-1.8-1.7c-0.3,1.4-1.1,3-2.6,4.2
		c-0.2-0.2-0.6-0.7-0.9-0.8c2.1-1.5,2.6-3.6,2.6-5.1v-0.2h-1.4v-1.1h5.3c-0.4-2.6-0.7-5.7-0.8-9.1h1.1c0.1,3.5,0.3,6.6,0.8,9.1h2.6
		c-0.4-0.4-1.1-0.8-1.6-1.1l0.7-0.6c0.6,0.4,1.5,0.9,1.9,1.3l-0.5,0.5h1.5v1.1h-4.3c0.2,1,0.5,1.8,0.8,2.5c0.7-0.7,1.2-1.5,1.6-2.3
		L322,424.8L322,424.8z M315.6,422.1c0-0.2-0.1-0.5-0.2-0.8c-2.6,0.4-3,0.5-3.2,0.6c0-0.2-0.2-0.7-0.3-1c0.2,0,0.6-0.4,0.9-0.8
		c0.2-0.2,0.6-0.9,1.1-1.6c-1.4,0.2-1.8,0.3-1.9,0.4c0-0.2-0.2-0.7-0.3-1c0.2,0,0.4-0.3,0.7-0.7c0.2-0.4,1.1-1.8,1.5-3.1l1,0.3
		c-0.5,1.2-1.1,2.4-1.8,3.3l1.4-0.1c0.2-0.4,0.4-0.8,0.6-1.2l1,0.4c-0.8,1.4-1.8,2.9-2.7,4l1.8-0.2c-0.1-0.4-0.3-0.8-0.4-1.1
		l0.9-0.2c0.4,0.9,0.8,2,0.9,2.7L315.6,422.1L315.6,422.1z M322.1,421.8c0-0.2-0.1-0.5-0.2-0.8c-2.6,0.4-3,0.5-3.3,0.6
		c-0.1-0.2-0.2-0.8-0.4-1c0.3,0,0.6-0.4,0.9-0.8c0.2-0.2,0.6-0.8,1.1-1.6c-1.3,0.2-1.6,0.3-1.8,0.4c0-0.2-0.2-0.7-0.3-1
		c0.2,0,0.4-0.2,0.6-0.6c0.2-0.3,0.9-1.6,1.3-2.8l1,0.3c-0.5,1.1-1,2.1-1.6,3l1.3-0.1c0.2-0.4,0.5-0.8,0.6-1.2l1,0.4
		c-0.8,1.5-1.7,2.9-2.6,4l1.8-0.2c-0.1-0.4-0.3-0.7-0.4-1.1l0.8-0.2c0.4,0.9,0.8,2,1,2.7L322.1,421.8L322.1,421.8z"/>
	<path class="st0" d="M333.7,423c0.4,0.6,0.8,1.5,1,2l-0.6,0.2h0.2v1.6c0,1.4-0.3,2.6-2.6,3.4c-0.1-0.2-0.4-0.6-0.6-0.8
		c1.1-0.4,1.7-0.9,2-1.4h-2.4v-2.5h0.9v1.7h1.7c0-0.1,0-0.2,0-0.4v-1.6h0.7c0-0.1-0.1-0.3-0.2-0.6c-2.8,0.3-3.3,0.4-3.5,0.5
		c0-0.2-0.2-0.6-0.3-0.9c0.3,0,0.6-0.2,1-0.5c0.2-0.1,0.6-0.5,1.1-0.9c-1.2,0.1-1.5,0.1-1.7,0.2c-0.1-0.2-0.2-0.7-0.3-0.9
		c0.2,0,0.4-0.1,0.6-0.3c0.2-0.2,0.9-0.9,1.3-1.6h-3.1v10.2h-1.3v-15.7h6.5v5.5h-1.9l0.6,0.3c-0.4,0.6-0.9,1.2-1.4,1.6l1.3,0
		c0.3-0.3,0.6-0.6,0.8-0.9l0.8,0.5c-0.9,0.9-1.8,1.8-2.7,2.5l1.8-0.1c-0.1-0.2-0.2-0.5-0.4-0.7L333.7,423L333.7,423z M328.7,415.6
		v1.4h4v-1.4H328.7z M328.7,419.1h4v-1.3h-4V419.1z M342.3,428.6c0,0.7-0.1,1.1-0.6,1.4c-0.5,0.2-1.2,0.3-2.3,0.3
		c-0.1-0.4-0.2-1-0.4-1.3c0.8,0,1.5,0,1.8,0c0.2,0,0.3-0.1,0.3-0.3v-8.5h-4l0.7,0.3c-0.4,0.6-0.9,1.2-1.4,1.6l1.3-0.1
		c0.3-0.3,0.5-0.6,0.8-0.9l0.8,0.5c-0.9,0.9-1.8,1.8-2.7,2.5l1.8-0.1c-0.1-0.2-0.2-0.5-0.4-0.7l0.7-0.2c0.4,0.6,0.8,1.5,1,1.9
		l-0.7,0.3c-0.1-0.2-0.2-0.4-0.3-0.6c-2.8,0.3-3.3,0.3-3.5,0.5c0-0.2-0.2-0.6-0.3-0.9c0.3,0,0.6-0.2,1-0.5c0.2-0.1,0.6-0.5,1.1-1
		c-1.2,0.1-1.5,0.1-1.7,0.2c0-0.2-0.2-0.7-0.3-0.9c0.2,0,0.4-0.1,0.6-0.3s0.9-0.9,1.3-1.7h-1.1v-5.5h6.7L342.3,428.6L342.3,428.6z
		 M338.1,428.6V428h-1.7v2h-1v-4.8h1v1.9h1.7v-1.7h1v3.1L338.1,428.6L338.1,428.6z M336.9,415.6v1.4h4.1v-1.4H336.9z M341,419.2
		v-1.3h-4.1v1.3H341z"/>
</g>
<path class="st9" d="M208.1,410.8v22.5c0,2.6-2.1,4.7-4.7,4.7h-96.7c-2.6,0-4.7-2.1-4.7-4.7v-22.5c0-2.6,2.1-4.7,4.7-4.7h96.7
	C206,406,208.1,408.1,208.1,410.8z"/>
<g>
	<path class="st0" d="M123.3,418.2c-0.6,0.9-1.2,1.8-2,2.7v9.5H120v-8c-0.7,0.7-1.4,1.3-2.1,1.9c-0.2-0.3-0.7-0.9-1-1.1
		c1.9-1.3,3.8-3.4,5.1-5.4L123.3,418.2L123.3,418.2z M122.6,414.4c-1.2,1.6-3,3.4-4.7,4.5c-0.2-0.3-0.6-0.8-0.8-1.1
		c1.5-1,3.3-2.6,4.2-3.9L122.6,414.4z M133.5,421.2h-2.7v7.4c0,0.8-0.2,1.2-0.8,1.4c-0.6,0.2-1.6,0.2-3.3,0.2
		c-0.1-0.3-0.3-0.9-0.5-1.2c1.3,0,2.5,0,2.8,0c0.3,0,0.4-0.1,0.4-0.4v-7.4h-6v-1.3h10L133.5,421.2L133.5,421.2z M133.1,416.2h-8.8
		V415h8.8V416.2z"/>
	<path class="st0" d="M152.3,418.5c-0.5,3-1.2,5.4-2.4,7.4c1,1.5,2.2,2.6,3.8,3.4c-0.3,0.3-0.7,0.8-0.9,1.1
		c-1.5-0.8-2.7-1.9-3.6-3.3c-1,1.4-2.4,2.5-4.1,3.4c-0.1-0.3-0.5-0.9-0.8-1.2c1.8-0.9,3.1-2,4.1-3.4c-0.8-1.5-1.4-3.2-1.9-5.1
		c-0.4,0.7-0.8,1.4-1.2,2c-0.2-0.2-0.8-0.7-1.1-0.9l0.1-0.1h-2v4.6l3.1-0.7l0.1,1.2c-2.9,0.7-6.1,1.5-8.4,2l-0.2-1.3l1.1-0.2v-8h1.2
		v7.7l1.8-0.4v-10h-3.8v-1.3h8.2v1.3h-3.1v3.9h2.4v0.6c1.2-1.9,2-4.4,2.5-7.1l1.3,0.2c-0.2,1.1-0.5,2.1-0.8,3.1h5.6v1.3L152.3,418.5
		L152.3,418.5z M147.3,418.8c0.4,2.1,1,4.1,1.8,5.7c0.9-1.7,1.4-3.7,1.8-6h-3.5L147.3,418.8L147.3,418.8z"/>
	<path class="st0" d="M160.2,421.8c-0.7-0.6-2.2-1.4-3.3-1.9l0.7-1c1.1,0.5,2.6,1.2,3.4,1.8L160.2,421.8L160.2,421.8z M157.5,429.2
		c0.9-1.4,2.4-3.7,3.4-5.8l1,0.9c-0.9,1.9-2.2,4.1-3.3,5.8L157.5,429.2L157.5,429.2z M158.6,414.1c1.2,0.5,2.7,1.3,3.4,1.9l-0.8,1.1
		c-0.7-0.6-2.2-1.5-3.4-2L158.6,414.1z M171.8,430.3c-0.2-0.5-0.5-1.1-0.8-1.8c-6.7,0.8-7.4,1-7.9,1.2c-0.1-0.3-0.3-1-0.4-1.3
		c0.3-0.1,0.7-0.5,1.1-1.2c0.4-0.5,1.6-2.5,2.5-4.5h-4v-1.3h4.6v-3.2H163V417h3.8v-3.1h1.3v3.1h4v1.3h-4v3.2h4.7v1.3h-5.1
		c-0.9,1.9-2.1,3.8-3.2,5.3l5.7-0.6c-0.5-0.8-1-1.6-1.6-2.3l1.1-0.5c1.3,1.6,2.6,3.7,3.1,5.1L171.8,430.3L171.8,430.3z"/>
	<path class="st0" d="M185.6,413.9c0,0.6,0,1.5-0.1,2.6c0.3,2.1,1.4,9.7,7.7,12.5c-0.4,0.3-0.8,0.8-1,1.1c-4.5-2.1-6.4-6.5-7.3-9.9
		c-0.8,3.6-2.7,7.6-7.1,10c-0.2-0.4-0.7-0.8-1.1-1c7.5-3.8,7.4-12.5,7.4-15.3L185.6,413.9L185.6,413.9z"/>
</g>
<path class="st9" d="M508.5,410.8v22.5c0,2.6-2.1,4.7-4.7,4.7H407c-2.6,0-4.7-2.1-4.7-4.7v-22.5c0-2.6,2.1-4.7,4.7-4.7h96.7
	C506.4,406,508.5,408.1,508.5,410.8z"/>
<g>
	<path class="st0" d="M420.9,426.5c-0.6,1.5-1.5,3-2.5,4c-0.2-0.2-0.7-0.7-1-0.9c1-0.9,1.8-2.1,2.2-3.4L420.9,426.5L420.9,426.5z
		 M424.7,425.8h-6.3v-11.2h6.3V425.8z M423.4,415.7h-3.8v2.3h3.8V415.7z M423.4,419h-3.8v2.3h3.8V419z M423.4,422.3h-3.8v2.3h3.8
		V422.3z M423.2,426.1c0.8,0.9,1.6,2.1,2,2.9l-1.1,0.7c-0.4-0.8-1.2-2.1-1.9-3L423.2,426.1L423.2,426.1z M434.1,419.4h-2.4v9.2
		c0,0.8-0.2,1.2-0.7,1.4c-0.5,0.2-1.4,0.2-2.7,0.2c-0.1-0.3-0.3-0.9-0.5-1.3c1,0,1.9,0,2.2,0c0.3,0,0.4-0.1,0.4-0.4v-7.5
		c-1.2,2.6-2.9,5-4.7,6.4c-0.2-0.3-0.6-0.8-0.9-1c2-1.5,4-4.3,5.1-7.1h-4.6v-1.3h5.1v-4.2h1.3v4.2h2.4L434.1,419.4L434.1,419.4z"/>
	<path class="st0" d="M452.9,414.7v15.5h-1.3v-0.9h-11.9v0.9h-1.2v-15.6H452.9z M451.6,428.3v-12.5h-11.9v12.5H451.6z M451,425.4
		h-2.6v1.7c0,0.5-0.1,0.7-0.5,0.8c-0.4,0.1-1.1,0.1-2.1,0.1c0-0.2-0.2-0.5-0.3-0.8c0.7,0,1.4,0,1.6,0c0.2,0,0.3,0,0.3-0.2v-1.6h-7
		v-0.8h7v-0.7h1.1v0.7h2.6L451,425.4L451,425.4z M445,417.7h-4.5v-0.8h4.5V416h1.1v0.9h4.6v0.8h-4.6v0.8h4v3.6h-1.4
		c0.7,0.5,1.5,1.2,1.9,1.8l-0.8,0.6c-0.2-0.2-0.4-0.5-0.7-0.8c-3.1,0.1-6.3,0.2-8.6,0.2l0-0.9c1.2,0,2.8,0,4.5,0v-0.9h-3.8v-3.6h3.8
		L445,417.7L445,417.7z M443,425.4c0.6,0.5,1.3,1.1,1.6,1.6l-0.9,0.5c-0.3-0.5-1-1.2-1.5-1.7L443,425.4L443,425.4z M442.2,419.9h2.8
		v-0.8h-2.8V419.9z M445,421.4v-0.8h-2.8v0.8H445z M446.1,419.2v0.8h2.9v-0.8H446.1z M449,420.6h-2.9v0.8h2.9V420.6z M448.3,422.9
		c-0.1-0.1-0.3-0.2-0.4-0.3l0.7-0.5h-2.5v0.9L448.3,422.9L448.3,422.9z"/>
	<path class="st0" d="M460.6,421.8c-0.7-0.6-2.2-1.4-3.3-1.9l0.7-1c1.1,0.5,2.6,1.2,3.4,1.8L460.6,421.8L460.6,421.8z M457.8,429.2
		c1-1.4,2.4-3.7,3.4-5.8l1,0.9c-0.9,1.9-2.2,4.1-3.3,5.8L457.8,429.2L457.8,429.2z M458.9,414.1c1.2,0.5,2.7,1.3,3.4,1.9l-0.8,1.1
		c-0.7-0.6-2.2-1.5-3.4-2L458.9,414.1L458.9,414.1z M472.1,430.3c-0.2-0.5-0.5-1.1-0.8-1.8c-6.7,0.8-7.4,1-7.9,1.2
		c-0.1-0.3-0.3-1-0.5-1.3c0.3-0.1,0.7-0.5,1.1-1.2c0.4-0.5,1.6-2.5,2.5-4.5h-4v-1.3h4.6v-3.2h-3.8V417h3.8v-3.1h1.3v3.1h4v1.3h-4
		v3.2h4.7v1.3h-5.1c-0.9,1.9-2,3.8-3.2,5.3l5.7-0.6c-0.5-0.8-1-1.6-1.6-2.3l1.1-0.5c1.3,1.6,2.6,3.7,3.1,5.1L472.1,430.3
		L472.1,430.3z"/>
	<path class="st0" d="M485.9,413.9c0,0.6,0,1.5-0.1,2.6c0.3,2.1,1.4,9.7,7.7,12.5c-0.4,0.3-0.8,0.8-1,1.1c-4.5-2.1-6.4-6.5-7.3-9.9
		c-0.8,3.6-2.7,7.6-7.1,10c-0.2-0.4-0.7-0.8-1.1-1c7.5-3.8,7.4-12.5,7.4-15.3L485.9,413.9L485.9,413.9z"/>
</g>
<g>
	<g>
		<path d="M528.6,274.8h-5.2v-1.1h5.2V274.8z M530,284.1c-1.4,0.9-3.7,1.7-5.5,2.2c-0.2-0.3-0.7-0.8-1-1c1.8-0.4,4-1,5.3-1.7
			L530,284.1L530,284.1z M528.2,272h-4.3v-1h4.3V272z M525.8,276.2h11.7v7.2h-11.7V276.2z M527.1,278.4h9v-1.2h-9V278.4z
			 M527.1,280.5h9v-1.2h-9V280.5z M527.1,282.6h9v-1.3h-9V282.6z M531.4,272.1c-0.4,0.7-0.9,1.3-1.3,1.8c-0.2-0.2-0.7-0.5-1-0.7
			c0.9-0.9,1.7-2.1,2.1-3.4l1.2,0.3c-0.1,0.3-0.2,0.7-0.4,1h6l0.2,0l0.9,0.3c-0.5,0.9-1,2-1.5,2.6l-1.1-0.4c0.3-0.4,0.6-0.9,0.8-1.4
			h-2.9v0.2c0,0.2,0,0.4,0,0.6c1,1.1,2.9,1.8,5.3,2c-0.2,0.2-0.6,0.7-0.8,1.1c-2-0.3-3.8-1-4.9-2.1c-0.6,0.9-2,1.7-5.2,2.2
			c-0.1-0.3-0.5-0.8-0.7-1c4.7-0.6,5.1-1.9,5.1-2.8v-0.2H531.4L531.4,272.1z M534.1,283.6c1.9,0.6,4,1.4,5.3,1.9l-1.2,0.8
			c-1.2-0.6-3.1-1.4-5-2L534.1,283.6L534.1,283.6z"/>
		<path d="M529.9,292h-6.5v-1.1h6.5V292z M529.2,303.2h-4v0.9h-1.1v-6h5.1L529.2,303.2L529.2,303.2z M524.2,294.4v-1.1h5.1v1.1
			H524.2z M524.2,295.6h5.1v1.1h-5.1V295.6z M525.2,299.2v3h2.9v-3H525.2z M526.6,290.8c-0.2-0.6-0.8-1.7-1.3-2.4l1-0.5
			c0.5,0.7,1,1.7,1.3,2.3L526.6,290.8L526.6,290.8z M537.9,288.9c-0.1,7.3-0.1,13.5,0.9,13.8c0.1,0,0.2-1.1,0.3-2.4
			c0.2,0.3,0.6,0.8,0.8,1c-0.2,2.5-0.8,3.1-1.6,2.8c-1.8-0.5-1.7-6.4-1.7-13.8h-3v5.3h2.4v1.2h-2.4v7.6h-1.3v-7.6h-2.4v-1.2h2.4
			v-5.3h-2.2v-1.3L537.9,288.9L537.9,288.9z"/>
		<path d="M532,315.5c-0.3,1.8-1,3.1-1.8,4.2c1.3,1.1,3,1.3,5.1,1.3c0.6,0,3.9,0,4.6,0c-0.2,0.3-0.4,0.8-0.4,1.1h-4.3
			c-2.5,0-4.4-0.3-5.8-1.6c-1,0.9-2.1,1.5-3.3,2c-0.1-0.3-0.4-0.7-0.6-0.9c1.2-0.4,2.3-1,3.2-1.9c-0.4-0.5-0.7-1.2-1-2
			c-0.4,0.5-0.8,0.9-1.2,1.3c-0.1-0.2-0.5-0.5-0.8-0.7c-0.2,1.5-0.7,3-1.4,4.2c-0.2-0.2-0.8-0.7-1-0.8c1.4-2.3,1.5-5.6,1.5-8v-4.4
			h5.9v-3.3h1.3v1.1h6.2v1H532v1.1h6.3l0.2,0l0.9,0.2c-0.4,1-0.8,2.2-1.2,2.9l-1.1-0.3c0.2-0.4,0.5-1.1,0.7-1.7h-5.9v1.1l4.6-0.3
			l0,0.9l-4.6,0.3v0.4c0,0.5,0.1,0.7,0.7,0.7h4.2c0.5,0,1.5,0,1.8-0.1c0,0.3,0,0.7,0.1,1c-0.3,0.1-1.1,0.1-1.8,0.1h-4.4
			c-1.5,0-1.8-0.5-1.8-1.6v-0.3l-3.6,0.2l0-0.9l3.6-0.2v-1.2h-4.6v3.4c0,1.3-0.1,2.9-0.3,4.4c1.2-1,2.2-2.5,2.7-4.2l1.1,0.3
			c-0.1,0.4-0.3,0.8-0.5,1.2h2l0.2,0L532,315.5L532,315.5z M528.5,316.3c-0.1,0.1-0.1,0.2-0.2,0.4c0.2,0.9,0.6,1.6,1,2.2
			c0.6-0.7,1-1.6,1.3-2.6H528.5z M537.1,320c-0.9,0-1.2-0.2-1.2-1.1v-2.5h-1.8v0.4c0,1.2-0.3,2.6-1.7,3.7c-0.2-0.2-0.6-0.6-0.8-0.8
			c1.2-0.9,1.4-2,1.4-2.9v-1.4h4v3.5c0,0.3,0,0.4,0.3,0.4h0.7c0.2,0,0.3-0.2,0.3-1.1c0.2,0.1,0.6,0.3,0.8,0.3
			c-0.1,1.2-0.3,1.6-1,1.6L537.1,320L537.1,320z"/>
	</g>
	<g>
		<path d="M405.1,280.7c-0.2-0.5-0.8-1.5-1.2-2.4v8h-1.3v-7.5c-0.6,1.7-1.4,3.3-2.2,4.3c-0.1-0.4-0.5-1-0.7-1.3
			c1-1.3,2.1-3.6,2.7-5.6h-2.3V275h2.5v-2.9c-0.6,0.1-1.3,0.3-1.9,0.4c-0.1-0.3-0.2-0.8-0.4-1.1c1.7-0.3,3.6-0.9,4.8-1.4l0.8,1.1
			c-0.6,0.3-1.3,0.5-2.1,0.7v3.2h2.1v1.3h-2.1v0.4c0.5,0.6,1.8,2.5,2,3L405.1,280.7L405.1,280.7z M415.1,281.8
			c-0.2-1.5-0.9-3.7-1.7-5.3c-0.9,2.2-2,4.2-3.4,5.9v1.8c0,0.7,0.1,0.9,0.8,0.9h2.1c0.6,0,0.7-0.5,0.8-2.7c0.3,0.2,0.8,0.5,1.1,0.5
			c-0.1,2.6-0.5,3.3-1.8,3.3h-2.4c-1.5,0-1.9-0.4-1.9-2v-0.2c-0.7,0.8-1.5,1.5-2.3,2.1c-0.2-0.2-0.8-0.7-1.1-0.9
			c1.3-0.9,2.4-2,3.4-3.2v-8.2h1.3v6.4c1.7-2.6,2.9-5.7,3.9-9.2l1.3,0.2c-0.5,1.8-1.1,3.6-1.8,5.2l1.1-0.3c0.8,1.7,1.5,3.9,1.8,5.3
			L415.1,281.8L415.1,281.8z M405.5,281.1c0.7-1.4,1.1-3.7,1.3-5.5l1,0.2c-0.2,1.8-0.6,4.3-1.3,5.7L405.5,281.1L405.5,281.1z
			 M411.9,273.5c-0.7-0.8-2.2-1.9-3.4-2.7l0.8-0.9c1.2,0.7,2.7,1.8,3.5,2.6L411.9,273.5z"/>
		<path d="M416,296.9v1h-15.9v-1h7.2v-1.1h-6V295h6V294h-5.5v-0.9h5.5V292h-7.2v-1h7.2v-1H402v-0.9h5.3v-1.3h1.3v1.3h5.1v1.9h2.1v1
			h-2.1v2h-5.1v0.9h6.1v0.9h-6.1v1.1H416L416,296.9z M402.4,298.8h11.5v5.6h-1.3v-0.6h-8.9v0.6h-1.3L402.4,298.8L402.4,298.8z
			 M403.7,299.7v1.1h8.9v-1.1H403.7z M412.6,302.8v-1.1h-8.9v1.1H412.6z M408.7,291h3.8v-1h-3.8V291z M408.7,293.2h3.8V292h-3.8
			V293.2z"/>
		<path d="M408.5,315.4c-0.3,1.8-1,3.1-1.8,4.2c1.3,1.1,3,1.3,5.1,1.3c0.6,0,3.9,0,4.6,0c-0.2,0.3-0.4,0.8-0.4,1.1h-4.3
			c-2.5,0-4.4-0.3-5.8-1.6c-1,0.9-2.1,1.5-3.3,2c-0.1-0.3-0.4-0.7-0.6-0.9c1.2-0.4,2.3-1,3.2-1.9c-0.4-0.5-0.7-1.2-1-2
			c-0.4,0.5-0.8,0.9-1.2,1.3c-0.1-0.2-0.5-0.5-0.8-0.7c-0.2,1.5-0.7,3-1.4,4.2c-0.2-0.2-0.8-0.7-1-0.8c1.4-2.3,1.5-5.6,1.5-8v-4.4
			h5.9v-3.3h1.3v1.1h6.2v1h-6.2v1.1h6.3l0.2,0l0.9,0.2c-0.4,1-0.8,2.2-1.2,2.9l-1.1-0.3c0.2-0.4,0.5-1.1,0.7-1.7h-5.9v1.1l4.6-0.3
			l0,0.9l-4.6,0.3v0.4c0,0.5,0.1,0.7,0.7,0.7h4.2c0.5,0,1.5,0,1.9-0.1c0,0.3,0,0.7,0.1,1c-0.3,0.1-1.1,0.1-1.9,0.1h-4.4
			c-1.5,0-1.9-0.5-1.9-1.6v-0.3l-3.6,0.2l0-0.9l3.6-0.2v-1.2h-4.6v3.4c0,1.3-0.1,2.9-0.3,4.4c1.2-1,2.2-2.5,2.7-4.2l1.1,0.3
			c-0.1,0.4-0.3,0.8-0.5,1.2h2l0.2,0L408.5,315.4L408.5,315.4z M405.1,316.3c-0.1,0.1-0.1,0.2-0.2,0.4c0.2,0.9,0.6,1.6,1,2.2
			c0.6-0.7,1-1.6,1.3-2.6H405.1z M413.7,320c-0.9,0-1.1-0.2-1.1-1.1v-2.5h-1.8v0.4c0,1.2-0.3,2.6-1.7,3.7c-0.2-0.2-0.6-0.6-0.8-0.8
			c1.2-0.9,1.4-2,1.4-2.9v-1.4h4v3.5c0,0.3,0,0.4,0.3,0.4h0.7c0.2,0,0.3-0.2,0.3-1.1c0.2,0.1,0.6,0.3,0.8,0.3
			c-0.1,1.2-0.3,1.6-1,1.6L413.7,320L413.7,320z"/>
	</g>
	<g>
		<path d="M439.7,269.9c0,0.6,0,1.5-0.1,2.6c0.3,2.1,1.4,9.7,7.7,12.5c-0.4,0.3-0.8,0.8-1,1.1c-4.5-2.1-6.4-6.5-7.3-9.9
			c-0.8,3.6-2.7,7.6-7.1,10c-0.2-0.4-0.7-0.8-1.1-1c7.5-3.8,7.4-12.5,7.4-15.3L439.7,269.9L439.7,269.9z"/>
		<path d="M447.1,299.2h-1.9v3.2h-1.3v-0.8h-4.3v1.2c0,0.8-0.2,1.1-0.8,1.3c-0.6,0.2-1.5,0.2-3,0.2c-0.1-0.3-0.3-0.8-0.5-1.1
			c1.1,0,2.2,0,2.5,0c0.3,0,0.5-0.1,0.5-0.4v-1.2h-5.8v-1h5.8v-1.4h-7.4v-1.1h7.4v-1.3h-5.6v-1h5.6v-1.3h-5.1v-3.2h5.1v-1h-7v-1.1h7
			v-1.4h1.3v1.4h7.2v1.1h-7.2v1h5.4v3.2h-5.4v1.3h5.6v2.2h1.9V299.2L447.1,299.2z M438.2,293.7v-1.3h-3.9v1.3H438.2z M439.6,292.4
			v1.3h4v-1.3H439.6z M439.6,298.1h4.3v-1.3h-4.3V298.1z M443.9,299.2h-4.3v1.4h4.3V299.2z"/>
		<path d="M439.4,315.4c-0.3,1.8-1,3.1-1.8,4.2c1.3,1.1,3,1.3,5.1,1.3c0.6,0,3.9,0,4.6,0c-0.2,0.3-0.4,0.8-0.4,1.1h-4.3
			c-2.5,0-4.4-0.3-5.8-1.6c-1,0.9-2.1,1.5-3.3,2c-0.1-0.3-0.4-0.7-0.6-0.9c1.2-0.4,2.3-1,3.2-1.9c-0.4-0.5-0.7-1.2-1-2
			c-0.4,0.5-0.8,0.9-1.2,1.3c-0.1-0.2-0.5-0.5-0.8-0.7c-0.2,1.5-0.7,3-1.4,4.2c-0.2-0.2-0.8-0.7-1-0.8c1.4-2.3,1.5-5.6,1.5-8v-4.4
			h5.9v-3.3h1.3v1.1h6.2v1h-6.2v1.1h6.3l0.2,0l0.9,0.2c-0.4,1-0.8,2.2-1.2,2.9l-1.1-0.3c0.2-0.4,0.5-1.1,0.7-1.7h-5.9v1.1l4.6-0.3
			l0,0.9l-4.6,0.3v0.4c0,0.5,0.1,0.7,0.7,0.7h4.2c0.5,0,1.5,0,1.9-0.1c0,0.3,0,0.7,0.1,1c-0.3,0.1-1.1,0.1-1.9,0.1h-4.4
			c-1.5,0-1.9-0.5-1.9-1.6v-0.3l-3.6,0.2l0-0.9l3.6-0.2v-1.2h-4.6v3.4c0,1.3-0.1,2.9-0.3,4.4c1.2-1,2.2-2.5,2.7-4.2l1.1,0.3
			c-0.1,0.4-0.3,0.8-0.5,1.2h2l0.2,0L439.4,315.4L439.4,315.4z M436,316.2c-0.1,0.1-0.1,0.2-0.2,0.4c0.2,0.9,0.6,1.6,1,2.2
			c0.6-0.7,1-1.6,1.3-2.6H436z M444.6,319.9c-0.9,0-1.1-0.2-1.1-1.1v-2.5h-1.8v0.4c0,1.2-0.3,2.6-1.7,3.7c-0.2-0.2-0.6-0.6-0.8-0.8
			c1.2-0.9,1.4-2,1.4-2.9v-1.4h4v3.5c0,0.3,0,0.4,0.3,0.4h0.7c0.2,0,0.3-0.2,0.3-1.1c0.2,0.1,0.6,0.3,0.8,0.3
			c-0.1,1.2-0.3,1.6-1,1.6L444.6,319.9L444.6,319.9z"/>
	</g>
	<g>
		<path d="M476.8,274.6c-0.5,3-1.2,5.4-2.4,7.4c1,1.5,2.2,2.6,3.8,3.4c-0.3,0.3-0.7,0.8-0.9,1.1c-1.5-0.8-2.7-1.9-3.6-3.3
			c-1,1.4-2.4,2.5-4,3.4c-0.1-0.3-0.5-0.9-0.8-1.2c1.8-0.9,3.1-2,4.1-3.4c-0.8-1.5-1.4-3.2-1.9-5.1c-0.4,0.7-0.8,1.4-1.2,2
			c-0.2-0.2-0.8-0.7-1.1-0.9l0.1-0.1h-2v4.6l3.1-0.7l0.1,1.2c-3,0.7-6.1,1.5-8.4,2l-0.2-1.3l1.1-0.2v-8h1.2v7.7l1.8-0.4v-10h-3.8
			v-1.3h8.2v1.3h-3.1v3.9h2.5v0.6c1.2-1.9,2-4.4,2.5-7.1l1.3,0.2c-0.2,1.1-0.5,2.1-0.8,3.1h5.6v1.3L476.8,274.6L476.8,274.6z
			 M471.9,274.9c0.4,2.1,1,4.1,1.8,5.7c0.9-1.7,1.4-3.7,1.8-6H472L471.9,274.9L471.9,274.9z"/>
		<path d="M475.9,289c0,6.7,0,14,1.1,14c0.2,0,0.3-1.2,0.4-2.8c0.2,0.3,0.6,0.7,0.8,0.9c-0.1,2.3-0.4,3.2-1.3,3.2
			c-2.2,0-2.1-6.4-2.2-14.2h-9.7v4.5c0,2.9-0.3,7-2.3,9.7c-0.2-0.2-0.8-0.6-1.1-0.8c1.9-2.6,2.1-6.2,2.1-9v-5.8L475.9,289L475.9,289
			z M472.6,299.6c0.9,1.2,1.8,2.8,2.1,3.9l-1.1,0.4c-0.1-0.4-0.3-0.9-0.5-1.4c-3,0.2-6.1,0.4-8.2,0.6l-0.1-1.2
			c1.1,0,2.6-0.1,4.2-0.2v-2.5h-3.1v-4.9h3.1v-1.7h-3.4v-1.1h8v1.1h-3.5v1.7h3.2v4.9h-3.2v2.5l2.3-0.1c-0.3-0.5-0.6-1.1-1-1.5
			L472.6,299.6L472.6,299.6z M469.1,298.1v-2.8h-2v2.8H469.1z M470.2,295.3v2.8h2v-2.8H470.2z"/>
		<path d="M470.3,315.5c-0.3,1.8-1,3.1-1.8,4.2c1.3,1.1,3,1.3,5.1,1.3c0.6,0,3.9,0,4.6,0c-0.2,0.3-0.4,0.8-0.4,1.1h-4.3
			c-2.5,0-4.4-0.3-5.8-1.6c-1,0.9-2.1,1.5-3.3,2c-0.1-0.3-0.4-0.7-0.6-0.9c1.2-0.4,2.3-1,3.2-1.9c-0.4-0.5-0.7-1.2-1-2
			c-0.4,0.5-0.8,0.9-1.2,1.3c-0.1-0.2-0.5-0.5-0.8-0.7c-0.2,1.5-0.7,3-1.4,4.2c-0.2-0.2-0.8-0.7-1-0.8c1.4-2.3,1.5-5.6,1.5-8v-4.4
			h5.9V306h1.3v1.1h6.2v1h-6.2v1.1h6.3l0.2,0l0.9,0.2c-0.4,1-0.8,2.2-1.2,2.9l-1.1-0.3c0.2-0.4,0.5-1.1,0.7-1.7h-5.9v1.1l4.6-0.3
			l0,0.9l-4.6,0.3v0.4c0,0.5,0.1,0.7,0.7,0.7h4.2c0.5,0,1.5,0,1.9-0.1c0,0.3,0,0.7,0.1,1c-0.3,0.1-1.1,0.1-1.9,0.1h-4.4
			c-1.5,0-1.9-0.5-1.9-1.6v-0.3l-3.6,0.2l0-0.9l3.6-0.2v-1.2h-4.6v3.4c0,1.3-0.1,2.9-0.3,4.4c1.2-1,2.2-2.5,2.7-4.2l1.1,0.3
			c-0.1,0.4-0.3,0.8-0.5,1.2h2l0.2,0L470.3,315.5L470.3,315.5z M466.8,316.3c-0.1,0.1-0.1,0.2-0.2,0.4c0.2,0.9,0.6,1.6,1,2.2
			c0.6-0.7,1-1.6,1.3-2.6H466.8z M475.4,320c-0.9,0-1.1-0.2-1.1-1.1v-2.5h-1.8v0.4c0,1.2-0.3,2.6-1.7,3.7c-0.2-0.2-0.6-0.6-0.8-0.8
			c1.2-0.9,1.4-2,1.4-2.9v-1.4h4v3.5c0,0.3,0,0.4,0.3,0.4h0.7c0.2,0,0.3-0.2,0.3-1.1c0.2,0.1,0.6,0.3,0.8,0.3
			c-0.1,1.2-0.3,1.6-1,1.6L475.4,320L475.4,320z"/>
	</g>
	<g>
		<path d="M508.7,284.5v1.3h-15.9v-1.3h7.2V280h-5.5v-1.3h5.5v-3.9h-6.4v-1.3h7.9c-0.7-0.8-2-2-3.1-2.8l1.1-0.8
			c1.1,0.8,2.6,2,3.3,2.9l-0.9,0.6h5.8v1.3h-6.4v3.9h5.6v1.3h-5.6v4.4L508.7,284.5L508.7,284.5z"/>
		<path d="M500.3,292.1h-7.4V291h7.4V292.1z M493.7,293.3h5.9v1.1h-5.9V293.3z M499.5,296.7h-5.8v-1.1h5.8V296.7z M499.5,303.3H495
			v0.9h-1.2v-6h5.7L499.5,303.3L499.5,303.3z M495,299.2v3h3.4v-3H495z M496.3,290.8c-0.2-0.6-0.8-1.7-1.3-2.4l1-0.5
			c0.5,0.7,1.1,1.7,1.4,2.3L496.3,290.8L496.3,290.8z M508.8,295.4h-3.7v8.9h-1.4v-8.9h-3.5v-1.3h3.5v-5.9h1.4v5.9h3.7V295.4z"/>
		<path d="M501.1,315.5c-0.3,1.8-1,3.1-1.8,4.2c1.3,1.1,3,1.3,5.1,1.3c0.6,0,3.9,0,4.6,0c-0.2,0.3-0.4,0.8-0.4,1.1h-4.3
			c-2.5,0-4.4-0.3-5.8-1.6c-1,0.9-2.1,1.5-3.3,2c-0.1-0.3-0.4-0.7-0.6-0.9c1.2-0.4,2.3-1,3.2-1.9c-0.4-0.5-0.7-1.2-1-2
			c-0.4,0.5-0.8,0.9-1.2,1.3c-0.1-0.2-0.5-0.5-0.8-0.7c-0.2,1.5-0.7,3-1.4,4.2c-0.2-0.2-0.8-0.7-1-0.8c1.4-2.3,1.5-5.6,1.5-8v-4.4
			h5.9v-3.3h1.3v1.1h6.2v1h-6.2v1.1h6.3l0.2,0l0.9,0.2c-0.4,1-0.8,2.2-1.2,2.9l-1.1-0.3c0.2-0.4,0.5-1.1,0.7-1.7h-5.9v1.1l4.6-0.3
			l0,0.9l-4.6,0.3v0.4c0,0.5,0.1,0.7,0.7,0.7h4.2c0.5,0,1.5,0,1.9-0.1c0,0.3,0,0.7,0.1,1c-0.3,0.1-1.1,0.1-1.9,0.1h-4.4
			c-1.5,0-1.9-0.5-1.9-1.6v-0.3l-3.6,0.2l0-0.9l3.6-0.2v-1.2h-4.6v3.4c0,1.3-0.1,2.9-0.3,4.4c1.2-1,2.2-2.5,2.7-4.2l1.1,0.3
			c-0.1,0.4-0.3,0.8-0.5,1.2h2l0.2,0L501.1,315.5L501.1,315.5z M497.7,316.3c-0.1,0.1-0.1,0.2-0.2,0.4c0.2,0.9,0.6,1.6,1,2.2
			c0.6-0.7,1-1.6,1.3-2.6H497.7z M506.3,320c-0.9,0-1.1-0.2-1.1-1.1v-2.5h-1.8v0.4c0,1.2-0.3,2.6-1.7,3.7c-0.2-0.2-0.6-0.6-0.8-0.8
			c1.2-0.9,1.4-2,1.4-2.9v-1.4h4v3.5c0,0.3,0,0.4,0.3,0.4h0.7c0.2,0,0.3-0.2,0.3-1.1c0.2,0.1,0.6,0.3,0.8,0.3
			c-0.1,1.2-0.3,1.6-1,1.6L506.3,320L506.3,320z"/>
	</g>
	<g>
		<path d="M558.4,277.9c-0.7-0.6-2.2-1.4-3.3-1.9l0.7-1c1.1,0.5,2.6,1.2,3.3,1.8L558.4,277.9L558.4,277.9z M555.7,285.2
			c1-1.4,2.4-3.7,3.4-5.8l1,0.9c-0.9,1.9-2.2,4.1-3.3,5.8L555.7,285.2L555.7,285.2z M556.7,270.1c1.2,0.5,2.7,1.3,3.4,1.9l-0.8,1.1
			c-0.7-0.6-2.2-1.5-3.4-2L556.7,270.1L556.7,270.1z M569.9,286.3c-0.2-0.5-0.5-1.1-0.8-1.8c-6.7,0.8-7.4,1-7.9,1.2
			c-0.1-0.3-0.3-1-0.5-1.3c0.3-0.1,0.7-0.5,1.2-1.2c0.4-0.5,1.6-2.5,2.5-4.5h-4v-1.3h4.6v-3.2h-3.8V273h3.8v-3.1h1.3v3.1h4v1.3h-4
			v3.2h4.7v1.3h-5.1c-0.9,1.9-2,3.8-3.2,5.3l5.7-0.6c-0.5-0.8-1-1.6-1.6-2.3l1.1-0.5c1.3,1.6,2.6,3.7,3.2,5.1L569.9,286.3
			L569.9,286.3z"/>
		<path d="M560.8,293.6h4.3v1.2h-4.3v1.8h3.7v4.9c0,0.6-0.1,1-0.5,1.2c-0.4,0.2-1.1,0.2-2.1,0.2c0-0.4-0.2-0.8-0.4-1.2
			c0.8,0,1.4,0,1.5,0c0.2,0,0.2,0,0.2-0.2v-3.7h-2.5v6.5h-1.3v-6.5h-2.3v5h-1.2v-6.2h3.5v-1.8h-4.4v-1.2h4.4v-1.9h-2.3
			c-0.3,0.7-0.6,1.4-0.9,1.9c-0.3-0.2-0.9-0.4-1.2-0.5c0.8-1.2,1.4-3,1.8-4.7l1.3,0.2c-0.2,0.6-0.3,1.3-0.5,1.9h1.9V288h1.3v2.5h3.6
			v1.2h-3.6L560.8,293.6L560.8,293.6z M567.7,299.4h-1.3v-9.9h1.3V299.4z M570.9,288.1v14.4c0,0.9-0.2,1.3-0.7,1.5
			c-0.6,0.2-1.5,0.3-2.9,0.3c-0.1-0.4-0.2-1-0.4-1.4c1.1,0,2.1,0,2.4,0c0.3,0,0.4-0.1,0.4-0.4v-14.4H570.9L570.9,288.1z"/>
		<path d="M563.7,315.5c-0.3,1.8-1,3.1-1.8,4.2c1.3,1.1,3,1.3,5.1,1.3c0.6,0,3.9,0,4.6,0c-0.2,0.3-0.4,0.8-0.4,1.1h-4.3
			c-2.5,0-4.4-0.3-5.8-1.6c-1,0.9-2.1,1.5-3.3,2c-0.1-0.3-0.4-0.7-0.6-0.9c1.2-0.4,2.3-1,3.2-1.9c-0.4-0.5-0.7-1.2-1-2
			c-0.4,0.5-0.8,0.9-1.2,1.3c-0.1-0.2-0.5-0.5-0.8-0.7c-0.2,1.5-0.7,3-1.4,4.2c-0.2-0.2-0.8-0.7-1-0.8c1.4-2.3,1.5-5.6,1.5-8v-4.4
			h5.9v-3.3h1.3v1.1h6.2v1h-6.2v1.1h6.3l0.2,0l0.9,0.2c-0.4,1-0.8,2.2-1.2,2.9l-1.1-0.3c0.2-0.4,0.5-1.1,0.7-1.7h-5.9v1.1l4.6-0.3
			l0,0.9l-4.6,0.3v0.4c0,0.5,0.1,0.7,0.7,0.7h4.2c0.5,0,1.5,0,1.8-0.1c0,0.3,0,0.7,0.1,1c-0.3,0.1-1.1,0.1-1.8,0.1h-4.4
			c-1.5,0-1.8-0.5-1.8-1.6v-0.3l-3.6,0.2l0-0.9l3.6-0.2v-1.2h-4.6v3.4c0,1.3-0.1,2.9-0.3,4.4c1.2-1,2.2-2.5,2.7-4.2l1.1,0.3
			c-0.1,0.4-0.3,0.8-0.5,1.2h2l0.2,0L563.7,315.5L563.7,315.5z M560.3,316.3c-0.1,0.1-0.1,0.2-0.2,0.4c0.2,0.9,0.6,1.6,1,2.2
			c0.6-0.7,1-1.6,1.3-2.6H560.3z M568.9,320c-0.9,0-1.2-0.2-1.2-1.1v-2.5h-1.8v0.4c0,1.2-0.3,2.6-1.7,3.7c-0.2-0.2-0.6-0.6-0.8-0.8
			c1.2-0.9,1.4-2,1.4-2.9v-1.4h4v3.5c0,0.3,0,0.4,0.3,0.4h0.7c0.2,0,0.3-0.2,0.3-1.1c0.2,0.1,0.6,0.3,0.8,0.3
			c-0.1,1.2-0.3,1.6-1,1.6L568.9,320L568.9,320z"/>
	</g>
</g>
<g>
	<path class="st0" d="M452.1,247.8h3.1v1.2h-3.1v3.2h-1.2V249h-3.2v-1.2h3.2v-1.4h-2.5v-6.2h2.5v-1.3H448v-1.2h2.9v-2h1.2v2h2.9v1.2
		h-2.9v1.3h2.6v6.2h-2.6V247.8z M449.4,242.8h1.7v-1.6h-1.7V242.8z M449.4,245.4h1.7v-1.7h-1.7V245.4z M453.7,241.1H452v1.6h1.7
		V241.1z M453.7,243.7H452v1.7h1.7V243.7z M460.2,239.4v1.6h3.5v9.7c0,0.6-0.1,1-0.5,1.2c-0.4,0.2-1,0.2-1.9,0.2
		c0-0.3-0.2-0.9-0.4-1.2c0.6,0,1.1,0,1.3,0s0.2-0.1,0.2-0.2v-2.5h-2.3v3.8H459v-3.8h-2.2v3.9h-1.2V241h3.4v-1.6h-3.8v-1.2h3.8v-2.5
		h1.2v2.5h2.9c-0.5-0.6-1.4-1.3-2.2-1.9l0.8-0.6c0.8,0.5,1.8,1.3,2.2,1.8l-0.7,0.7h0.9v1.2L460.2,239.4L460.2,239.4z M456.8,242.2
		v1.8h2.2v-1.8H456.8z M459,247v-1.9h-2.2v1.9H459z M460.2,242.2v1.8h2.3v-1.8H460.2z M462.5,247v-1.9h-2.3v1.9H462.5z"/>
	<path class="st0" d="M475.7,248.5c-2.8,0.7-5.8,1.4-8,1.9l-0.2-1.4l1.3-0.2v-12.2h5.9v11l1-0.2L475.7,248.5L475.7,248.5z
		 M470,237.8v2.6h3.4v-2.6H470z M473.3,241.6H470v2.6h3.4V241.6z M470,248.5c1-0.2,2.2-0.5,3.4-0.7v-2.4H470V248.5z M483.5,239.8
		c0,0,0,0.5,0,0.7c-0.2,7.5-0.4,10.1-1,10.9c-0.3,0.5-0.7,0.6-1.3,0.7c-0.5,0.1-1.5,0-2.5,0c0-0.4-0.2-0.9-0.4-1.3
		c1,0.1,2,0.1,2.3,0.1c0.3,0,0.5,0,0.7-0.3c0.5-0.5,0.6-2.9,0.8-9.5h-2.8c-0.3,4.7-1.3,8.7-4.9,11.1c-0.2-0.3-0.6-0.8-1-1
		c3.4-2.1,4.3-5.9,4.6-10.1h-2.9v-1.3h2.9c0-1.3,0-2.7,0-4.1h1.3c0,1.4,0,2.7,0,4.1L483.5,239.8L483.5,239.8z"/>
	<path class="st0" d="M503.5,249.6h-7.3v2.5h-1.4v-2.5h-7.1v-1.2h7.1v-1.4h-5.4v-6.3h12.4v6.3h-5.6v1.4h7.3V249.6z M494.9,239.9H489
		v-3.5h5.9V239.9z M493.7,237.3h-3.5v1.7h3.5V237.3z M490.8,243.4h4.1v-1.5h-4.1V243.4z M494.8,246v-1.6h-4.1v1.6H494.8z
		 M500.5,241.9h-4.3v1.5h4.3V241.9z M500.5,244.4h-4.3v1.6h4.3V244.4z M502.3,239.9h-6v-3.5h6V239.9z M501.1,237.3h-3.5v1.7h3.5
		V237.3z"/>
	<path class="st0" d="M512.8,236.1c-0.5,1.3-1.1,2.6-1.8,3.8v12.1h-1.3V242c-0.6,0.8-1.2,1.5-1.8,2.2c-0.1-0.3-0.5-1-0.8-1.3
		c1.8-1.7,3.4-4.4,4.4-7.1L512.8,236.1L512.8,236.1z M523.5,250.1v1.3h-11.2v-1.3h6.3c0.7-2.4,1.4-6.2,1.7-8.9l1.4,0.2
		c-0.5,2.8-1.2,6.3-1.8,8.7H523.5L523.5,250.1z M522.7,240.2H513v-1.3h9.7V240.2z M515.4,249.3c-0.1-1.9-0.7-5.2-1.2-7.7l1.2-0.3
		c0.6,2.5,1.1,5.7,1.3,7.6L515.4,249.3L515.4,249.3z M517.5,238.8c-0.1-0.8-0.5-2-0.8-2.9l1.3-0.3c0.3,0.9,0.7,2.1,0.9,2.8
		L517.5,238.8L517.5,238.8z"/>
</g>
</svg>
