<svg id="圖層_1" data-name="圖層 1" xmlns="http://www.w3.org/2000/svg" width="246" height="246" viewBox="0 0 246 246">
  <defs>
    <style>
      .cls-1 {
        fill: #fff;
      }
    </style>
  </defs>
  <g>
    <path class="cls-1" d="M98.71,139.17q-5.38,6-14.23,6t-14.24-6q-5.38-6-5.39-16.4t5.36-16.14q5.37-5.8,14.27-5.81t14.26,5.81q5.37,5.81,5.36,16.14T98.71,139.17Zm-20.89-6.46a7.91,7.91,0,0,0,13.34,0q2.45-3.69,2.44-9.92t-2.44-9.68a8.09,8.09,0,0,0-13.34,0q-2.41,3.51-2.41,9.68T77.82,132.71Z"/>
    <path class="cls-1" d="M115.28,144.4a3.36,3.36,0,0,1-3.31-3.32V104.92a3.36,3.36,0,0,1,3.31-3.32h9q10.23,0,16,5.2t5.73,16a28.23,28.23,0,0,1-1.52,9.64,16.8,16.8,0,0,1-4.35,6.79,18.41,18.41,0,0,1-6.65,3.9,26.49,26.49,0,0,1-8.59,1.3Zm7-8.71a.4.4,0,0,0,.45.45h1q5.61,0,8.7-3.09t3.09-10.28a20.74,20.74,0,0,0-.84-6.31,8.69,8.69,0,0,0-2.5-4,10.39,10.39,0,0,0-3.68-2,16.48,16.48,0,0,0-4.77-.62h-1c-.3,0-.45.14-.45.4Z"/>
    <path class="cls-1" d="M157.17,144.4a3.36,3.36,0,0,1-3.31-3.32V104.92a3.36,3.36,0,0,1,3.31-3.32h20.67a3.16,3.16,0,0,1,2.36,1,3.24,3.24,0,0,1,1,2.33v1.91a3.26,3.26,0,0,1-1,2.33,3.19,3.19,0,0,1-2.36,1H164.58q-.45,0-.45.39v8.54a.4.4,0,0,0,.45.45h10.84a3.25,3.25,0,0,1,3.31,3.31v1.91a3.25,3.25,0,0,1-3.31,3.31H164.58a.4.4,0,0,0-.45.45v12.58a3.2,3.2,0,0,1-.95,2.33,3.15,3.15,0,0,1-2.36,1Z"/>
  </g>
</svg>
