<?xml version="1.0" encoding="utf-8"?>
<!-- Generator: $$$/GeneralStr/196=Adobe Illustrator 27.6.0, SVG Export Plug-In . SVG Version: 6.00 Build 0)  -->
<svg version="1.1" id="圖層_1" xmlns="http://www.w3.org/2000/svg" xmlns:xlink="http://www.w3.org/1999/xlink" x="0px" y="0px"
	 width="52px" height="40px" viewBox="0 0 52 40" style="enable-background:new 0 0 52 40;" xml:space="preserve">
<style type="text/css">
	.st0{fill:#FFFFFF;}
</style>
<g>
	<path class="st0" d="M30.5,15.5V11H17v13.5h4.5V29H35V15.5H30.5z M20,20.8v-1.5c0.5,0,0.9,0,1.3-0.1c-0.4-0.3-0.7-0.6-0.9-0.9
		C20.1,17.8,20,17.4,20,17h1.5c0,0.4,0.2,0.7,0.7,1c0.2,0.1,0.4,0.2,0.7,0.3c0.4-0.5,0.7-1.1,0.8-2H20v-1.5h2.2V14h1.5v0.8H26v1.5
		h-0.8c-0.1,0.9-0.3,1.7-0.7,2.3V20c-0.4,0-0.8,0-1.2-0.1C22.4,20.5,21.3,20.7,20,20.8L20,20.8z M33.5,27.5H23v-3.4l7.1-7.1h3.4
		V27.5z"/>
	<path class="st0" d="M29,18.4l-0.7,2.1L26.8,25l0,0.1V26h1.5v-0.7l0-0.1h1.5l0,0.1V26h1.5v-0.9L31.2,25l-1.5-4.5L29,18.4L29,18.4z
		 M28.5,23.7l0.5-1.6l0.5,1.6H28.5z"/>
</g>
</svg>
