<svg id="圖層_1" data-name="圖層 1" xmlns="http://www.w3.org/2000/svg" width="246" height="246" viewBox="0 0 246 246">
  <defs>
    <style>
      .cls-1 {
        fill: #fff;
      }
    </style>
  </defs>
  <g id="圖稿_12" data-name="圖稿 12">
    <g>
      <path class="cls-1" d="M169,115.45h-5.21a43,43,0,0,0-1.7-6.31l4.56-2.58a4.57,4.57,0,0,0,1.84-2.4,4.37,4.37,0,0,0-.41-3l-3.64-6.26a3.89,3.89,0,0,0-2.4-1.85,4,4,0,0,0-3,.37l-4.56,2.67A44.39,44.39,0,0,0,150,91.4l2.62-4.47a4.08,4.08,0,0,0,.37-3,3.67,3.67,0,0,0-1.84-2.35l-6.26-3.68a4,4,0,0,0-5.39,1.47l-2.63,4.52a53.94,53.94,0,0,0-6.26-1.71v-5.2a4,4,0,0,0-4-4h-7.28a4,4,0,0,0-4,4v5.2a50.75,50.75,0,0,0-6.22,1.71l-2.63-4.52a4,4,0,0,0-5.39-1.47l-6.31,3.68A3.71,3.71,0,0,0,93,83.89a4.08,4.08,0,0,0,.37,3L96,91.4a50.55,50.55,0,0,0-4.61,4.65l-4.56-2.67a4,4,0,0,0-5.38,1.48l-3.64,6.26a4,4,0,0,0,1.47,5.44l4.51,2.58a38.33,38.33,0,0,0-1.65,6.31H76.92A3.91,3.91,0,0,0,73,119.36v7.28a4,4,0,0,0,3.92,4h5.25a37.77,37.77,0,0,0,1.65,6.26l-4.51,2.58a4,4,0,0,0-1.47,5.44l3.64,6.26a4,4,0,0,0,5.38,1.48L91.42,150A48.43,48.43,0,0,0,96,154.55l-2.62,4.56a3.78,3.78,0,0,0-.42,3,3.71,3.71,0,0,0,1.84,2.35l6.31,3.63a3.64,3.64,0,0,0,3,.42,3.82,3.82,0,0,0,2.44-1.84l2.63-4.52a50.75,50.75,0,0,0,6.22,1.71v5.2a4,4,0,0,0,4,4h7.28a4,4,0,0,0,4-4v-5.2a53.94,53.94,0,0,0,6.26-1.71l2.63,4.52a3.73,3.73,0,0,0,2.39,1.84,3.78,3.78,0,0,0,3-.42l6.26-3.63a3.67,3.67,0,0,0,1.84-2.35,4,4,0,0,0-.37-3L150,154.55a42.68,42.68,0,0,0,4.56-4.56l4.56,2.63a4,4,0,0,0,3,.37,3.89,3.89,0,0,0,2.4-1.85l3.64-6.26a4.27,4.27,0,0,0,.41-3,4.5,4.5,0,0,0-1.84-2.45l-4.56-2.58a42.36,42.36,0,0,0,1.7-6.26H169a4,4,0,0,0,4-4v-7.28a4,4,0,0,0-4-3.91m.92,11.19a.92.92,0,0,1-.92.92h-6.5a1.54,1.54,0,0,0-1.52,1.29,39.05,39.05,0,0,1-2.16,8.11,1.55,1.55,0,0,0,.64,1.89l5.62,3.27a.91.91,0,0,1,.46.55,1,1,0,0,1-.09.64l-3.64,6.31a1.07,1.07,0,0,1-.55.46,1.19,1.19,0,0,1-.69-.09l-5.67-3.27A1.54,1.54,0,0,0,153,147a38.13,38.13,0,0,1-6,6,1.55,1.55,0,0,0-.32,1.94l3.27,5.66a1.15,1.15,0,0,1,.09.69,1.3,1.3,0,0,1-.41.56l-6.31,3.63a.94.94,0,0,1-.69.1.87.87,0,0,1-.56-.42l-3.27-5.66a1.48,1.48,0,0,0-1.89-.65,39,39,0,0,1-8.1,2.17,1.56,1.56,0,0,0-1.29,1.47v6.54a.92.92,0,0,1-.92.92h-7.28a.92.92,0,0,1-.92-.92v-6.54a1.52,1.52,0,0,0-1.29-1.47,39.08,39.08,0,0,1-8.11-2.17,1.25,1.25,0,0,0-.55-.14,1.54,1.54,0,0,0-1.34.79l-3.27,5.66a.77.77,0,0,1-.51.42.89.89,0,0,1-.69-.1l-6.31-3.63a.82.82,0,0,1-.41-.56.74.74,0,0,1,.09-.69L99.26,155a1.46,1.46,0,0,0-.37-1.94,40.12,40.12,0,0,1-6-6,1.54,1.54,0,0,0-1.93-.32L85.39,150a1.36,1.36,0,0,1-.74.09,1.07,1.07,0,0,1-.55-.46l-3.59-6.31a.83.83,0,0,1,.27-1.19l5.67-3.27a1.63,1.63,0,0,0,.69-1.89,36.31,36.31,0,0,1-2.21-8.11,1.49,1.49,0,0,0-1.47-1.29H76.92a.93.93,0,0,1-.93-.92v-7.28a.93.93,0,0,1,.93-.92h6.54a1.49,1.49,0,0,0,1.47-1.29A36.31,36.31,0,0,1,87.14,109a1.63,1.63,0,0,0-.69-1.89l-5.67-3.22a.9.9,0,0,1-.27-1.24l3.59-6.31a1.07,1.07,0,0,1,.55-.46,1.09,1.09,0,0,1,.74.13L91,99.28a1.49,1.49,0,0,0,1.93-.37,40,40,0,0,1,6-5.9,1.46,1.46,0,0,0,.37-1.93L96,85.41a1,1,0,0,1,.32-1.29l6.31-3.63a.88.88,0,0,1,1.2.32l3.27,5.66a1.59,1.59,0,0,0,1.89.69A39.2,39.2,0,0,1,117.13,85a1.45,1.45,0,0,0,1.29-1.47V76.94a.92.92,0,0,1,.92-.92h7.28a.92.92,0,0,1,.92.92v6.54A1.48,1.48,0,0,0,128.83,85a39.11,39.11,0,0,1,8.1,2.21,1.55,1.55,0,0,0,1.89-.69l3.27-5.66a.93.93,0,0,1,1.25-.32l6.31,3.63a1.3,1.3,0,0,1,.41.56,1.28,1.28,0,0,1-.09.73l-3.27,5.67A1.55,1.55,0,0,0,147,93a38,38,0,0,1,6,5.9,1.49,1.49,0,0,0,1.93.37l5.67-3.23a1,1,0,0,1,.69-.13,1.07,1.07,0,0,1,.55.46l3.64,6.31a1.08,1.08,0,0,1,.09.69,1.07,1.07,0,0,1-.46.55l-5.62,3.22a1.55,1.55,0,0,0-.64,1.89,39.05,39.05,0,0,1,2.16,8.11,1.54,1.54,0,0,0,1.52,1.29H169a.92.92,0,0,1,.92.92Z"/>
      <path class="cls-1" d="M123,151.78A28.75,28.75,0,0,1,108.08,98.4l.64,1.29,3.41-5-6-.46.64,1.38A31.83,31.83,0,0,0,123,154.82a1.5,1.5,0,0,0,1.52-1.52,1.53,1.53,0,0,0-1.52-1.52"/>
      <path class="cls-1" d="M123,92.18a1.5,1.5,0,0,0-1.52,1.52A1.46,1.46,0,0,0,123,95.17a28.82,28.82,0,0,1,14.88,53.48l-.65-1.38-3.41,5.07,6,.37-.65-1.34A31.83,31.83,0,0,0,123,92.18"/>
      <path class="cls-1" d="M134.78,138l3.19-3.19a4.5,4.5,0,0,0,0-6.39L132.59,123l5.41-5.41a4.54,4.54,0,0,0,0-6.42L134.74,108a4.51,4.51,0,0,0-6.38,0L123,113.39,117.58,108a4.49,4.49,0,0,0-6.38,0L108,111.2a4.56,4.56,0,0,0,0,6.42l5.38,5.38L108,128.34a4.52,4.52,0,0,0,0,6.41L111.2,138a4.53,4.53,0,0,0,6.44,0l5.35-5.34,5.37,5.37a4.56,4.56,0,0,0,6.42,0m-10.72-8.57a1.58,1.58,0,0,0-2.15,0l-6.42,6.42a1.51,1.51,0,0,1-2.18,0l-3.22-3.22a1.5,1.5,0,0,1,.06-2.15l6.42-6.42a1.57,1.57,0,0,0,0-2.15l-6.45-6.45a1.5,1.5,0,0,1,0-2.12l3.2-3.19a1.49,1.49,0,0,1,2.11,0l6.45,6.45a1.53,1.53,0,0,0,2.15,0l6.45-6.45a1.53,1.53,0,0,1,2.12,0l3.22,3.22a1.53,1.53,0,0,1,0,2.15l-6.45,6.45a1.55,1.55,0,0,0,0,2.15l6.45,6.45a1.49,1.49,0,0,1,0,2.12l-3.19,3.19a1.5,1.5,0,0,1-2.12,0Z"/>
    </g>
  </g>
</svg>
