<svg width="30" height="36" viewBox="0 0 30 36" fill="none" xmlns="http://www.w3.org/2000/svg">
<path d="M18.75 7.6875H25.3125V28.3125H4.6875V15.5977L5.15625 15.334L9.84375 12.5215L11.25 11.6426V14.4844L14.5312 12.5215L15.9375 11.6426V14.4844L18.75 12.8145V7.6875ZM20.625 9.5625V13.8398L20.1562 14.1035L15.4688 16.916L14.0625 17.7949V14.9531L10.7812 16.916L9.375 17.7949V14.9531L6.5625 16.623V26.4375H23.4375V9.5625H20.625ZM8.4375 18.9375H10.3125V20.8125H8.4375V18.9375ZM12.1875 18.9375H14.0625V20.8125H12.1875V18.9375ZM15.9375 18.9375H17.8125V20.8125H15.9375V18.9375ZM19.6875 18.9375H21.5625V20.8125H19.6875V18.9375ZM8.4375 22.6875H10.3125V24.5625H8.4375V22.6875ZM12.1875 22.6875H14.0625V24.5625H12.1875V22.6875ZM15.9375 22.6875H17.8125V24.5625H15.9375V22.6875ZM19.6875 22.6875H21.5625V24.5625H19.6875V22.6875Z" fill="black"/>
</svg>
