<svg xmlns="http://www.w3.org/2000/svg" width="90" height="100" viewBox="0 0 90 100">
  <defs>
    <style>
      .cls-1 {
        fill: #fff;
      }
    </style>
  </defs>
  <g id="圖層_1" data-name="圖層 1">
    <g>
      <g>
        <path class="cls-1" d="M45.29,73.8A39.06,39.06,0,0,1,9.58,50.5l-.36-.81.36-.8a39,39,0,0,1,71.42,0l.36.8L81,50.5A39.05,39.05,0,0,1,45.29,73.8ZM13.61,49.69a35,35,0,0,0,63.37,0,35,35,0,0,0-63.37,0Z"/>
        <path class="cls-1" d="M48.74,65a1.5,1.5,0,0,1-.36-3c.29-.07.58-.15.86-.24a1.5,1.5,0,1,1,.92,2.85c-.34.11-.7.21-1,.3A1.57,1.57,0,0,1,48.74,65Zm-7.83-.3a1.39,1.39,0,0,1-.44-.07l-1-.35a1.5,1.5,0,0,1,1.07-2.81,7.55,7.55,0,0,0,.84.29,1.5,1.5,0,0,1-.44,2.94Zm15.28-4.37a1.46,1.46,0,0,1-1-.35A1.5,1.5,0,0,1,55,57.87c.19-.23.38-.46.55-.7A1.5,1.5,0,0,1,58,58.93c-.22.3-.44.59-.67.87A1.53,1.53,0,0,1,56.19,60.33Zm-22.43-.71A1.49,1.49,0,0,1,32.54,59c-.21-.29-.41-.6-.6-.91a1.5,1.5,0,0,1,2.56-1.56c.15.25.31.49.49.74a1.5,1.5,0,0,1-.36,2.09A1.46,1.46,0,0,1,33.76,59.62Zm25.73-7.44h-.11A1.5,1.5,0,0,1,58,50.58c0-.29,0-.59,0-.89a1.52,1.52,0,0,1,1.5-1.53A1.47,1.47,0,0,1,61,49.63v.06c0,.37,0,.73,0,1.1A1.49,1.49,0,0,1,59.49,52.18Zm-28.35-1a1.49,1.49,0,0,1-1.5-1.49v0c0-.35,0-.7,0-1.06a1.52,1.52,0,0,1,1.59-1.4,1.5,1.5,0,0,1,1.41,1.59q0,.43,0,.87A1.52,1.52,0,0,1,31.14,51.21Zm26.19-7.6a1.51,1.51,0,0,1-1.27-.7c-.16-.25-.32-.5-.5-.74A1.5,1.5,0,0,1,58,40.4c.22.29.42.6.62.91a1.51,1.51,0,0,1-.47,2.07A1.54,1.54,0,0,1,57.33,43.61Zm-23.6-.8a1.5,1.5,0,0,1-1.23-2.36c.22-.3.44-.59.67-.88a1.5,1.5,0,0,1,2.32,1.91c-.19.23-.36.46-.53.7A1.51,1.51,0,0,1,33.73,42.81ZM50.58,38a1.55,1.55,0,0,1-.56-.11c-.27-.11-.55-.21-.83-.3a1.5,1.5,0,0,1,.91-2.86c.35.12.7.24,1,.38A1.5,1.5,0,0,1,50.58,38Zm-9.73-.28a1.5,1.5,0,0,1-.44-2.93c.34-.11.69-.2,1-.29a1.5,1.5,0,1,1,.72,2.91l-.87.24A1.41,1.41,0,0,1,40.85,37.7Z"/>
        <path class="cls-1" d="M45.29,59.71a10,10,0,1,1,10-10A10,10,0,0,1,45.29,59.71Zm0-16a6,6,0,1,0,6,6A6,6,0,0,0,45.29,43.68Z"/>
      </g>
      <g>
        <path class="cls-1" d="M6.36,33.17a2.5,2.5,0,0,1-2.5-2.5V16.76a8.51,8.51,0,0,1,8.5-8.5H26.27a2.5,2.5,0,0,1,0,5H12.36a3.5,3.5,0,0,0-3.5,3.5V30.67A2.5,2.5,0,0,1,6.36,33.17Z"/>
        <path class="cls-1" d="M78.23,91.13H64.31a2.5,2.5,0,0,1,0-5H78.23a3.5,3.5,0,0,0,3.5-3.5V68.71a2.5,2.5,0,0,1,5,0V82.63A8.52,8.52,0,0,1,78.23,91.13Z"/>
        <path class="cls-1" d="M84.23,33.17a2.5,2.5,0,0,1-2.5-2.5V16.76a3.5,3.5,0,0,0-3.5-3.5H64.31a2.5,2.5,0,0,1,0-5H78.23a8.51,8.51,0,0,1,8.5,8.5V30.67A2.5,2.5,0,0,1,84.23,33.17Z"/>
        <path class="cls-1" d="M26.27,91.13H12.36a8.51,8.51,0,0,1-8.5-8.5V68.71a2.5,2.5,0,0,1,5,0V82.63a3.5,3.5,0,0,0,3.5,3.5H26.27a2.5,2.5,0,0,1,0,5Z"/>
      </g>
      <path class="cls-1" d="M45.29,23a2,2,0,0,1-2-2V14.79a2,2,0,0,1,4,0V21A2,2,0,0,1,45.29,23Z"/>
      <path class="cls-1" d="M30.8,25.81a2,2,0,0,1-1.55-.75l-4.36-5.4A2,2,0,0,1,28,17.15l4.36,5.4a2,2,0,0,1-.3,2.82A2.06,2.06,0,0,1,30.8,25.81Z"/>
      <path class="cls-1" d="M61.12,25.81a2,2,0,0,1-1.55-3.26l4.36-5.4A2,2,0,0,1,67,19.66l-4.36,5.4A2,2,0,0,1,61.12,25.81Z"/>
      <path class="cls-1" d="M45.29,86.6a2,2,0,0,1-2-2V78.35a2,2,0,0,1,4,0V84.6A2,2,0,0,1,45.29,86.6Z"/>
      <path class="cls-1" d="M26.44,83a2,2,0,0,1-1.55-3.26l4.36-5.4a2,2,0,0,1,3.11,2.51L28,82.23A2,2,0,0,1,26.44,83Z"/>
      <path class="cls-1" d="M65.48,83a2,2,0,0,1-1.55-.75l-4.36-5.4a2,2,0,1,1,3.11-2.51L67,79.72a2,2,0,0,1-.3,2.82A2.06,2.06,0,0,1,65.48,83Z"/>
    </g>
  </g>
</svg>
