<?xml version="1.0" encoding="utf-8"?>
<!-- Generator: Adobe Illustrator 24.2.1, SVG Export Plug-In . SVG Version: 6.00 Build 0)  -->
<svg version="1.1" id="圖層_1" xmlns="http://www.w3.org/2000/svg" xmlns:xlink="http://www.w3.org/1999/xlink" x="0px" y="0px"
	 width="246px" height="246px" viewBox="0 0 246 246" style="enable-background:new 0 0 246 246;" xml:space="preserve">
<style type="text/css">
	.st0{fill:none;stroke:#FFFFFF;stroke-width:4;stroke-linecap:round;stroke-linejoin:round;stroke-miterlimit:10;}
	.st1{fill:none;stroke:#FFFFFF;stroke-width:4;stroke-miterlimit:10;}
	.st2{display:none;}
	.st3{display:inline;}
	.st4{fill:none;stroke:#FFFFFF;stroke-width:4;stroke-linecap:round;stroke-miterlimit:10;}
	.st5{display:inline;fill:none;stroke:#FFFFFF;stroke-width:4;stroke-linecap:round;stroke-miterlimit:10;}
	.st6{display:inline;fill:none;stroke:#FFFFFF;stroke-width:4;stroke-miterlimit:10;}
	.st7{display:inline;fill:none;stroke:#FFFFFF;stroke-width:4;stroke-linecap:round;stroke-linejoin:round;stroke-miterlimit:10;}
</style>
<g>
	<path class="st0" d="M123,174.2c-1.3,0-2.7-0.3-3.9-1l-34.1-19.1c-2.3-1.4-3.8-3.8-3.9-6.4l-4-55.5c0-2.1,0.8-4,2.3-5.4
		c1.4-1.4,3.4-2.2,5.4-2.2c0,0,0,0,0,0c12.8,0,24.8-4.1,31.5-10.6c2.9-2.9,7.7-2.9,10.7,0h0c6.7,6.5,18.7,10.6,31.5,10.6
		c0.8,0,1.6,0,2.4,0c2.1-0.1,4.1,0.7,5.6,2.1c1.5,1.4,2.3,3.4,2.3,5.5l0,0.4l-4,55.2c-0.1,2.6-1.5,5.1-3.8,6.4l-34.2,19.2
		C125.6,173.9,124.3,174.2,123,174.2z M91.1,146l31.9,17.8l31.9-17.8l3.7-51.5c-0.1,0-0.1,0-0.2,0c-14.5,0-28.1-4.4-36.8-11.9
		c-8.2,7.1-20.7,11.4-34.3,11.9L91.1,146z"/>
	<circle class="st1" cx="123" cy="123" r="14.4"/>
	<polyline class="st0" points="117.4,122.3 122.5,127.1 128.6,118.9 	"/>
</g>
<g class="st2">
	<g class="st3">
		<path class="st4" d="M77.7,133.7c-0.4,2.9-0.6,5.9-0.3,9c1.5,19.9,18,35.7,38,36.5c22.6,0.9,41.2-17.2,41.2-39.6
			c0-2-0.1-3.9-0.4-5.8c-0.5-3.2-3.3-5.6-6.5-5.6H84.2C80.9,128.1,78.1,130.5,77.7,133.7z"/>
		<path class="st4" d="M122.6,147.8c0-3.2-2.6-5.7-5.7-5.7c-3.2,0-5.7,2.6-5.7,5.7c0,2.1,1.2,4,2.9,5v9.7c0,1.6,1.3,2.8,2.8,2.8
			c1.6,0,2.8-1.3,2.8-2.8v-9.7C121.4,151.8,122.6,149.9,122.6,147.8z"/>
		<path class="st4" d="M96.7,127.7V115c0-10.9,8.8-19.7,19.7-19.7s19.7,8.8,19.7,19.7v12.7h7.2V115c0-14.9-12.1-27-27-27
			s-27,12.1-27,27v12.7H96.7z"/>
	</g>
	<path class="st5" d="M141.4,66.8c7.1,0.7,14,4,19.2,9.6c5.2,5.6,7.9,12.7,8.2,19.8"/>
	<path class="st5" d="M138.5,74.9c5.7,0.7,11.1,3.3,15.3,7.8c4.2,4.5,6.4,10.1,6.6,15.8"/>
	<path class="st5" d="M135.6,83.1c4.2,0.6,8.2,2.6,11.4,6s4.8,7.5,5.1,11.8"/>
</g>
<g class="st2">
	<line class="st5" x1="112.9" y1="84" x2="124.7" y2="84"/>
	<path class="st6" d="M129.4,125.9h-21.1c-2.2,0-4-1.8-4-4V78.6c0-2.2,1.8-4,4-4h21.1c2.2,0,4,1.8,4,4v43.3
		C133.4,124.1,131.6,125.9,129.4,125.9z"/>
	<line class="st5" x1="112.9" y1="92.6" x2="124.7" y2="92.6"/>
	<circle class="st5" cx="118.8" cy="110.9" r="6.4"/>
	<line class="st5" x1="118.8" y1="125.9" x2="118.8" y2="146.9"/>
	<line class="st5" x1="137.7" y1="151.8" x2="124.7" y2="151.8"/>
	<line class="st5" x1="113.6" y1="151.8" x2="87.6" y2="151.8"/>
	<circle class="st5" cx="118.8" cy="151.8" r="4.8"/>
	<path class="st6" d="M170.7,164.9h-29.5c-1.8,0-3.2-1.5-3.2-3.2v-19.8c0-1.8,1.5-3.2,3.2-3.2h29.5c1.8,0,3.2,1.5,3.2,3.2v19.8
		C173.9,163.4,172.4,164.9,170.7,164.9z"/>
	<line class="st5" x1="133.1" y1="171.4" x2="178.7" y2="171.4"/>
	<path class="st5" d="M83.2,171.4H71.7c-2.4,0-4.4-2-4.4-4.4v-24c0-2.4,2-4.4,4.4-4.4h11.5c2.4,0,4.4,2,4.4,4.4v24
		C87.6,169.5,85.6,171.4,83.2,171.4z"/>
	<circle class="st5" cx="77.4" cy="162.6" r="3.4"/>
	<circle class="st7" cx="155.9" cy="114.6" r="14.4"/>
	<polyline class="st7" points="150.3,113.9 155.4,118.8 161.5,110.5 	"/>
</g>
<g class="st2">
	<path class="st7" d="M123,110.8l-38.6,30h11v32.8H114v-18.7c0-4.9,4-9,9-9c4.9,0,9,4,9,9v18.7h18.6v-32.8h11L123,110.8z"/>
	<path class="st5" d="M94.1,82.2c8-6.5,18.2-10.2,29.3-9.8c11.1,0.4,21,4.9,28.5,11.9"/>
	<path class="st5" d="M99.9,93.4c6.4-5.1,14.6-7.9,23.5-7.6c8.8,0.3,16.8,3.8,22.8,9.3"/>
	<path class="st5" d="M105.6,104.6c4.9-3.7,11-5.7,17.6-5.5s12.6,2.8,17.2,6.8"/>
</g>
<g class="st2">
	<path class="st5" d="M149.6,164.4H96.4c-5.7,0-10.3-4.7-10.3-10.3V91.9c0-5.7,4.7-10.3,10.3-10.3h53.3c5.7,0,10.3,4.7,10.3,10.3
		v62.2C160,159.8,155.3,164.4,149.6,164.4z"/>
	<g class="st3">
		<line class="st4" x1="99.1" y1="102" x2="146.9" y2="102"/>
		<line class="st4" x1="99.1" y1="116" x2="146.9" y2="116"/>
		<line class="st4" x1="99.1" y1="130" x2="146.9" y2="130"/>
		<line class="st4" x1="99.1" y1="144" x2="133.7" y2="144"/>
	</g>
</g>
</svg>
