<svg xmlns="http://www.w3.org/2000/svg" width="131.71" height="55.42" viewBox="0 0 131.71 55.42">
  <defs>
    <style>
      .cls-1 {
        fill: #fff;
      }
    </style>
  </defs>
  <g id="圖層_2" data-name="圖層 2">
    <g id="圖層_1-2" data-name="圖層 1">
      <g>
        <path class="cls-1" d="M27.49,55.42H24.38V32.81H15.85V30H35.91v2.77H27.38V55.42Z"/>
        <path class="cls-1" d="M50.32,52.76h0l-1,1a8.73,8.73,0,0,1-1.33.88,8.77,8.77,0,0,1-1.66.56,12.24,12.24,0,0,1-2,.22A6.52,6.52,0,0,1,41.79,55a4.79,4.79,0,0,1-2-1.22,6.36,6.36,0,0,1-1.33-2A6.73,6.73,0,0,1,38,49.1a5.11,5.11,0,0,1,.55-2.55A4.13,4.13,0,0,1,40,44.67a8.45,8.45,0,0,1,2.22-1.22c1.77-.78,6-.89,7.87-.89h.11a6.9,6.9,0,0,0-.11-1.44c-.11-.33-.22-.77-.33-1.11a4.49,4.49,0,0,0-1.67-1.55A7.44,7.44,0,0,0,45,37.8a23.49,23.49,0,0,0-2.77.22,17.27,17.27,0,0,0-2.55.77V36.13a4.66,4.66,0,0,1,1.11-.44l1.33-.33a7.52,7.52,0,0,1,1.55-.22c.55,0,1.11-.11,1.66-.11a9.91,9.91,0,0,1,4.77,1,5.87,5.87,0,0,1,2.66,2.77,5.64,5.64,0,0,1,.44,1.44,8.53,8.53,0,0,1,.11,1.67V54.75H50.65Zm-.22-7.65c-.55-.11-6.21-.11-7.76,1.44a3.44,3.44,0,0,0-1.11,2.66,3.53,3.53,0,0,0,.33,1.55,4.09,4.09,0,0,0,.78,1.11,2.58,2.58,0,0,0,1.22.67,6.52,6.52,0,0,0,1.44.22,5.7,5.7,0,0,0,1.89-.33c.55-.22,1-.45,1.55-.67A10.66,10.66,0,0,0,49.55,51a2,2,0,0,0,.66-.67Z"/>
        <path class="cls-1" d="M108.84,52.76h0l-1,1a9.84,9.84,0,0,1-1.33.88,9.11,9.11,0,0,1-1.67.56,12.24,12.24,0,0,1-2,.22,6.55,6.55,0,0,1-2.55-.44,4.79,4.79,0,0,1-2-1.22,6.53,6.53,0,0,1-1.33-2,6.73,6.73,0,0,1-.44-2.66,5,5,0,0,1,.56-2.55,4.06,4.06,0,0,1,1.44-1.88,8.39,8.39,0,0,1,2.21-1.22c1.78-.78,6-.89,7.87-.89h.11a6.9,6.9,0,0,0-.11-1.44c-.11-.33-.22-.77-.33-1.11a4.46,4.46,0,0,0-1.66-1.55,7.52,7.52,0,0,0-3.11-.66,23.66,23.66,0,0,0-2.77.22,17.64,17.64,0,0,0-2.55.77V36.13a4.83,4.83,0,0,1,1.11-.44l1.33-.33a7.62,7.62,0,0,1,1.55-.22c.56,0,1.11-.11,1.67-.11a9.9,9.9,0,0,1,4.76,1,5.87,5.87,0,0,1,2.66,2.77,5.65,5.65,0,0,1,.45,1.44,8.53,8.53,0,0,1,.11,1.67V54.75h-2.66Zm-.22-7.65c-.55-.11-6.2-.11-7.76,1.44a3.47,3.47,0,0,0-1.1,2.66,3.53,3.53,0,0,0,.33,1.55,3.86,3.86,0,0,0,.77,1.11,2.63,2.63,0,0,0,1.22.67,6.62,6.62,0,0,0,1.44.22,5.7,5.7,0,0,0,1.89-.33c.55-.22,1-.45,1.55-.67a9.69,9.69,0,0,0,1.11-.77,2,2,0,0,0,.66-.67Z"/>
        <path class="cls-1" d="M58.74,54.87V35.69h3.11V54.87Z"/>
        <path class="cls-1" d="M79.58,38.79c-.44,1.78-.77,3.33-1.11,4.55l-3.1,11.53H72.16L66,35.69h3.1l3.55,12c.44,1.55.89,2.88,1.11,3.77h.11c.22-1,.55-2.33,1.11-4.21l3.21-11.53h3.11l3.54,11.53c.45,1.55.89,3,1.22,4.21h.11c.33-1.22.67-2.55,1.11-3.77l3.55-12h3.1L87.45,54.87H84.13L80.91,43.45c-.44-1.44-.77-2.88-1.33-4.66Z"/>
        <path class="cls-1" d="M118.93,38.35h0a12.76,12.76,0,0,1,1.22-1.22,4.4,4.4,0,0,1,1.44-1,4.91,4.91,0,0,1,1.77-.66,9.11,9.11,0,0,1,4.55.11,4.56,4.56,0,0,1,2,1.22,5.16,5.16,0,0,1,1.33,2.1,7.73,7.73,0,0,1,.45,3.22V55h-3.11V42.56a5.12,5.12,0,0,0-1-3.54,3.85,3.85,0,0,0-2.77-1.11,6,6,0,0,0-3.11.88A11.15,11.15,0,0,0,119,41.23V54.87h-3.1V35.69H119Z"/>
        <path class="cls-1" d="M13.19,55.42s-4.43-5.1-5.32-6a2.89,2.89,0,0,1-.11-3.88,2.85,2.85,0,0,1,3.77.23,4.68,4.68,0,0,1,1.77,3c1.22-3.44,2.55-4.43,4-4.43a2.75,2.75,0,0,1,2.55,3v.11C19.62,50,16.07,51.65,13.19,55.42Z"/>
        <path class="cls-1" d="M84.24,10,81,13.19a29.42,29.42,0,0,0-41.67,0L36.13,10A34,34,0,0,1,84.24,10Z"/>
        <path class="cls-1" d="M77.92,16.29l-3.21,3.22a20.47,20.47,0,0,0-28.93,0l-3.22-3.22A25,25,0,0,1,77.92,16.29Z"/>
        <path class="cls-1" d="M71.6,22.72l-3.21,3.22a11.54,11.54,0,0,0-16.3,0l-3.21-3.22a16,16,0,0,1,22.72,0Z"/>
        <path class="cls-1" d="M65.17,29,60.3,33.92l-5-5A7,7,0,0,1,65.17,29Z"/>
        <path class="cls-1" d="M113.83,27.27a17.72,17.72,0,0,1-.55,2.32l-.89,3.66h-1.55l-2.66-8.2h1.66l1,3.32c.33,1,.55,2,.78,2.78h0c.22-.89.44-1.78.66-2.78l.89-3.32h1.55l.89,3.32c.22.89.44,1.89.66,2.78h0a19.15,19.15,0,0,1,.78-2.78l1-3.32h1.67l-2.66,8.2h-1.78l-.88-3.66c-.23-.77-.34-1.55-.56-2.32Z"/>
        <path class="cls-1" d="M120.37,24.38h1.55v1.56h-1.55Zm0,3h1.44v6h-1.44Z"/>
        <path class="cls-1" d="M125.25,33.36H123.7v-8.2h5.21v1.22h-3.66v2.11h3.21V29.7h-3.21Z"/>
        <path class="cls-1" d="M130.13,24.38h1.55v1.56h-1.55Zm0,3h1.44v6h-1.44Z"/>
        <path class="cls-1" d="M0,27.38H5.32v4.87H0Zm.11,7.53h5.1V55.09H.11Z"/>
      </g>
    </g>
  </g>
</svg>
