<?xml version="1.0" encoding="UTF-8"?>
<svg id="_圖層_1" data-name="圖層 1" xmlns="http://www.w3.org/2000/svg" width="15.5mm" height="16.9mm" version="1.1" viewBox="0 0 44 48">
  <defs>
    <style>
      .cls-1 {
        fill: #a4a4cd;
        stroke-width: 0px;
      }
    </style>
  </defs>
  <path class="cls-1" d="M31.8,22.3v4.6h4.4v3.8c-.6.4-1.6.6-2.6.6-5.1,0-7.5-2.7-7.5-7.4s2.9-7.3,7-7.3,3.7.8,5.1,1.8l3.5-3.6c-1.9-1.6-4.8-3.1-8.8-3.1s-9.4,2-11.7,5.8v6.9h2.1c.6,0,1,.4,1,1v4.4c0,.6-.4,1-1,1h-2.1c2.3,3.6,6.7,5.5,11.8,5.5s7.2-1.3,9.2-2.9v-11h-10.2Z"/>
  <path class="cls-1" d="M23.2,25.4h-3.1v-13.7h-8.3L2,25.8v4h11.8v6h6.3v-6h3.1v-4.4ZM13.8,21.9v3.5h-5.4l3.2-4.8c.8-1.4,1.5-2.7,2.3-4.1h.2c0,1.5-.3,3.8-.3,5.3Z"/>
</svg>