<svg width="44" height="48" viewBox="0 0 44 48" fill="none" xmlns="http://www.w3.org/2000/svg">
<path d="M41.3066 23.875C41.3066 25.1055 40.2812 26.0625 39.1191 26.0625H36.9316L37 37C37 39.4609 35.0176 41.375 32.625 41.375H10.75C8.28906 41.375 6.375 39.4609 6.375 37V26.0625H4.1875C2.95703 26.0625 2 25.1055 2 23.875C2 23.2598 2.20508 22.7129 2.68359 22.2344L20.1836 6.99023C20.6621 6.51172 21.209 6.375 21.6875 6.375C22.166 6.375 22.7129 6.58008 23.123 6.92188L30.4375 13.2793V10.75C30.4375 9.58789 31.3945 8.5625 32.625 8.5625H34.8125C35.9746 8.5625 37 9.58789 37 10.75V19.0215L40.5547 22.2344C41.1016 22.7129 41.375 23.2598 41.3066 23.875ZM18.9531 19.5C17.9961 19.5 17.3125 20.252 17.3125 21.1406V26.6094C17.3125 27.5664 17.9961 28.25 18.9531 28.25H24.4219C25.3105 28.25 26.0625 27.5664 26.0625 26.6094V21.1406C26.0625 20.252 25.3105 19.5 24.4219 19.5H18.9531Z" fill="#A4A4CD"/>
</svg>
