<svg width="30" height="36" viewBox="0 0 30 36" fill="none" xmlns="http://www.w3.org/2000/svg">
<path d="M2.8125 8.15625H12.1875C12.7344 8.15625 13.252 8.27344 13.7402 8.50781C14.2285 8.72266 14.6484 9.02539 15 9.41602C15.3516 9.02539 15.7715 8.72266 16.2598 8.50781C16.748 8.27344 17.2656 8.15625 17.8125 8.15625H27.1875V25.9688H17.8125C17.3047 25.9688 16.8652 26.1543 16.4941 26.5254C16.123 26.8965 15.9375 27.3359 15.9375 27.8438H14.0625C14.0625 27.3359 13.877 26.8965 13.5059 26.5254C13.1348 26.1543 12.6953 25.9688 12.1875 25.9688H2.8125V8.15625ZM4.6875 10.0312V24.0938H12.1875C12.7344 24.0938 13.252 24.2109 13.7402 24.4453C14.2285 24.6602 14.6484 24.9629 15 25.3535C15.3516 24.9629 15.7715 24.6602 16.2598 24.4453C16.748 24.2109 17.2656 24.0938 17.8125 24.0938H25.3125V10.0312H17.8125C17.3047 10.0312 16.8652 10.2168 16.4941 10.5879C16.123 10.959 15.9375 11.3984 15.9375 11.9062H14.0625C14.0625 11.3984 13.877 10.959 13.5059 10.5879C13.1348 10.2168 12.6953 10.0312 12.1875 10.0312H4.6875ZM14.0625 13.7812H15.9375V15.6562H14.0625V13.7812ZM14.0625 17.5312H15.9375V19.4062H14.0625V17.5312ZM14.0625 21.2812H15.9375V23.1562H14.0625V21.2812Z" fill="black"/>
</svg>
