<svg xmlns="http://www.w3.org/2000/svg" width="217" height="42.576" viewBox="0 0 217 42.576">
  <g id="Bradn" transform="translate(-120 -29.576)">
    <text id="政府網際服務網" transform="translate(197 67.152)" fill="#fff" font-size="20" font-family="MicrosoftJhengHeiBold, Microsoft JhengHei"><tspan x="0" y="0">政府網際服務網</tspan></text>
    <g id="gsn-logo" transform="translate(120 29.576)">
      <path id="Path_311" data-name="Path 311" d="M43.7,6.3,39.2,8.8s-1.4-5-6.6-4.5c-6.3.5-11.8,4.5-17.9,11.8C7.7,24.4,4,38,11.1,38h.3c-6,.9-7.3-3.4-7.4-3.7H4C2.9,28.4,6.9,19,13.3,12,21,3.6,29.3,0,35.2,0,40.6,0,42.6,2.9,43.7,6.3Z" fill="#f27235"/>
      <circle id="circle14688_2_" cx="14.3" cy="14.3" r="14.3" transform="translate(0 10)" fill="#3ec6e0"/>
      <path id="path14690_2_" d="M14.4,10.5a5.284,5.284,0,0,0-1.2.1A4.931,4.931,0,0,0,12,11s.9-.4.5-.4a10.58,10.58,0,0,0-2,.3c-.2.1,0,.1-.3.1-.2,0-1,.4-.9.5a.31.31,0,0,0,.2.1s-.4,0-.4.2.5.2.5.2h.2a9.666,9.666,0,0,1,1.2-.7c.3-.1.6-.4.6-.2s-.5.4-.6.5-.5.3-.3.4c.1.1.1,0,.1,0,.6,0,1.2-.1,1.1.5s-.4.6-.3.9a1.083,1.083,0,0,1,.1.6,3.9,3.9,0,0,0,.7,1.6c.1.1.5,0,.6.1.1,0,.1.2.3.2.1-.1.4,0,.5-.4s0-1,.3-1c.4-.1.9-.1,1-.3a2.355,2.355,0,0,1,1-.5.5.5,0,0,0,.4-.6c-.2-.4,0-.5.1-.7s-.2-.4-.5-.6-.2-.5-.2-.7-.3-.2-.5-.2-.2-.2-.5-.2a.551.551,0,0,0-.5-.2ZM8.7,11.8c-.1,0-.2,0-.2.1s.1.2,0,.2-.1-.2-.2-.2c-.2,0-.4.1-.4.2s0,.2.2.2h.7c.3,0,.7.1.8-.1,0-.2-.3-.2-.5-.2s-.1-.2-.2-.2Zm.1.5H8.7c-.2.2-.8.4-.9.7s-.6.6-.4.2,1-.6.8-.8c-.2-.1-.5.1-.7.2a2.7,2.7,0,0,0-.7.8c0,.2-.8.7-.6.4a13.5,13.5,0,0,1,.9-1.1c.1-.1-.3-.1-.3-.1s.1-.2,0-.2-1.2.5-1.2.7-.1.2-.1.4c0,.1-.1.5-.2.5-.1-.1,0-.4,0-.5l-.4.2a13.149,13.149,0,0,0-2.2,2.5L1,19.1a27.585,27.585,0,0,0-.8,2.7,1.034,1.034,0,0,0,.4-.1v.8a8.751,8.751,0,0,0,.3,2.4c.2.3.5.6.4.2s-.3-1.5-.1-.8c.2.6.5,1.3.5,1.3.9,1.3,2.1,1.6,2.9,2.2a4.238,4.238,0,0,0,1.6.7c.2.1-.1.6,0,1.6,0,.8,1.8,2.6,2.5,2.9s.8,1.2,1.2,2.2a7.067,7.067,0,0,0,2.4,2.9,1.125,1.125,0,0,0,1.1,0s-.8.4-1.1-.8A4,4,0,0,1,13.8,34a7.024,7.024,0,0,0,2-2.7c.1-.5-.4-.9-1.5-1.3a9.482,9.482,0,0,0-2.2-.3.425.425,0,0,0,.1-.7,8.421,8.421,0,0,0-2.1-1.1c-.4-.2-.2-.5-1-.5a17.223,17.223,0,0,0-2-.1c-.3.1-.4.5-.9.4s-.9-.2-1-.7c-.2-.5-.3-.8-.6-.8s-.2-.1-.3-.5c0-.5-.6-.9-.8-.5-.1.6-.5.6-.5-.1,0-.6-.1-1.4.5-1.4a2.549,2.549,0,0,1,1.3.2c.4.2.8.5.7-.1s.2-1.3,1-2.3,1.4-1.7,1.8-1.7.7.2,1.3-.3.5-.9,0-.9-.9-.2-.6-.4a1.417,1.417,0,0,1,1.1-.1c.2,0,0,.7,0,.8s1.2.3,1.4.1-.1-.7-.3-.9c-.3-.2.3-.5,0-.8s-1.2-.5-1.2-.8.2-.8-.2-.9c-.3-.2-.5.3-.7.3-.1.1-.1-.1-.3-.4a1.277,1.277,0,0,0-1.1-.4,5.133,5.133,0,0,0-.5,1.2c-.7.3-.5.8-.7,1.1-.1.2-.3.4-.2-.1.1-.6-.3-.3-.6-.4-.2-.2-1.2-.7-.6-1s1-1,1.3-.9a2.719,2.719,0,0,0,.9,0c.2,0,.1-.3,0-.4s.3-.3.4-.4.2-.9.4-.8c.3,0,.7.1.7.3,0,.3-.4.6-.6.7-.2,0-.6.3-.6.4s.6-.1.6,0a1.046,1.046,0,0,0,.6.5c.4.1,1.1,0,1-.4-.1-.3-.3-.7-.1-.6.1.1.8.1.8-.1s-.7-.5-.7-.5.3-.1.3-.2a1.531,1.531,0,0,0-.5-.7c0-.2-.5-.5-.8-.5Zm12.9.3h0c-.1,0-.2.1-.3.2-.2.4.1.8.1,1.1s-.4.2-.3.8.7,1.3,1,1.1.9.1.7.2-.6-.5-.6,0a4.888,4.888,0,0,1-.1,1.3c0,.1-.1.2-.3.2.1-.1,0-.3,0-.3-.2-.4-.2-.3-.3-.4s-.1-.2-.2-.3,0-.1-.2-.1-.3-.2-.3-.4,0-.3-.2-.4-.5,0-.5.2,0,.5.2.6.6.2.5.4c0,.2-.2.4-.1.5s.2.1.2.3.2.2.5,0a1.338,1.338,0,0,1,.5-.1c-.3.2-.7.3-.6.6.1.4.4.2.5.6s.5.7,0,.7-1.4-.3-1.4,0a1.645,1.645,0,0,1,.2,1c-.1.4,0,.6.3.7a1.1,1.1,0,0,1,.4.2,2.268,2.268,0,0,1,.4-.1c.1-.1.4,0,.5-.1s.4-.3.3-.5c0-.2,0-.5.2-.6s.1-.3.2-.4a.367.367,0,0,1,.3-.1c.1,0,.1-.2.3-.2.1,0,0,0,.3.3s.7.3.9.5c.3.3.3.4.1.5s-.5.3-.3.4c.3.1.6.3.5.1,0-.2.1-.6.1-.7s.3-.3-.1-.4-.9-.7-1-.8c0,0-.3-.4,0-.3a5.223,5.223,0,0,1,1.1.8l.4.8c.1.1.4.7.5.6s0-.6-.1-.7c-.1-.2.1-.5.2-.2.1.4.2.9.5,1,.3,0,.6-.3.6-.1a1.483,1.483,0,0,1,.1.7c0,.3,0,.5-.3.5-.2.1-.1.3-.2.3s-.4-.5-.6-.5c-.2-.1-.5-.3-.6,0s-.1.6-.3.5c-.3-.1-.5-.5-.8-.6s-.3-.3-.3-.6,0-.4-.5-.3-1.3,0-1.5.3c-.3.2-.8.1-1.1.3-.2.3-.7.3-.7.7s.1.7-.4,1a1.824,1.824,0,0,0-.7,1c-.1.3-.3.4-.2.8.1.3.3.6.1,1a.9.9,0,0,0,.1,1.1c.2.3.6.7.6.9.1.2.2.1.5.4.2.2.9.2,1.2.2.3-.1.9-.5,1.3-.4a.4.4,0,0,1,.3.5s.6-.4.6-.1-.5.9-.3,1.2a1.427,1.427,0,0,1,.2,1.3c-.2.5-.9.9-.9,1.3a3.422,3.422,0,0,1-.2,1.3c-.3.6-.3,1-.6,1.3s-.4.8.2.5a7.359,7.359,0,0,0,1.6-1.1,7.272,7.272,0,0,1,.9-.8,5.739,5.739,0,0,1,.8-.9c.1-.2.3-.3.5-.5l.6-.9a4.179,4.179,0,0,1,.4-1,17.775,17.775,0,0,0,.8-1.8c.1-.5.3-.9.4-1.4,0-.6-.2-1.8-.2-2a10.4,10.4,0,0,1-.3-2.1,5.958,5.958,0,0,1,.6,2c-.1.5-.1,1.2,0,1.2h.1a13.4,13.4,0,0,0,.1-2A14.355,14.355,0,0,0,23,13.1h-.1c-.4,0-.5.1-.7-.1-.2-.3-.4-.4-.5-.4Zm-4.6,1.2c-.3,0-.5,0-.6.2s.1.2.1.3c.1.1,0,.1,0,.2s-.3,0,.2.1a2.356,2.356,0,0,0,1.2,0c.2-.1.3-.5,0-.6a.9.9,0,0,0-.5-.1c0-.1-.2-.1-.4-.1ZM20,16.6h0c0,.2,0,.3-.1.3s-.2.4,0,.5c.2.2.4.3.6.1.1-.2.3-.5.2-.7a.683.683,0,0,0-.5-.3l-.2.1Z" fill="#fff"/>
      <path id="Path_312" data-name="Path 312" d="M27.7,23c-.1,0,.3,1.7.3,2.1,0,.3.2,1.4.2,2a2.2,2.2,0,0,0,.1-.8h-.1c-.1,0,0-.8,0-1.2A4.562,4.562,0,0,0,27.7,23Z" fill="#3ec6e0"/>
      <path id="Path_313" data-name="Path 313" d="M27.1,30.3a4.179,4.179,0,0,0-.4,1,15.016,15.016,0,0,0,1.5-4.2,7.366,7.366,0,0,1-.4,1.4C27.6,29.2,27.2,30,27.1,30.3Z" fill="#3ec6e0"/>
      <path id="Path_314" data-name="Path 314" d="M1,19l1.5-2.8A15.089,15.089,0,0,0,1,19Z" fill="#3ec6e0"/>
      <path id="Path_315" data-name="Path 315" d="M25.6,32.7a7.272,7.272,0,0,1-.8.9c-.3.3-.6.5-.9.8a4.38,4.38,0,0,1-1.6,1.1c-.6.3-.5-.2-.2-.5s.3-.7.6-1.3a2.177,2.177,0,0,0,.2-1.3c.1-.5.7-.8.9-1.3s-.1-.9-.2-1.3c-.2-.3.3-.9.3-1.2s-.6.1-.6.1,0-.4-.3-.5-1,.3-1.3.4a1.637,1.637,0,0,1-1.2-.2c-.2-.2-.4-.1-.5-.4-.1-.2-.4-.6-.6-.9a1.073,1.073,0,0,1-.1-1.1c.2-.4,0-.7-.1-1s.1-.5.2-.8a1.353,1.353,0,0,1,.7-1c.5-.3.4-.6.4-1s.4-.4.7-.7.8-.1,1.1-.3a6.641,6.641,0,0,1,1.5-.3c.5-.1.5.1.5.3s-.1.5.3.6c.3.1.5.5.8.6s.2-.2.3-.5.3-.1.6,0,.5.5.6.5-.1-.2.2-.3a.55.55,0,0,0,.3-.5,1.483,1.483,0,0,0-.1-.7c-.1-.2-.4.1-.6.1-.3,0-.4-.6-.5-1s-.3,0-.2.2.2.6.1.7-.4-.4-.5-.6a2.01,2.01,0,0,1-.4-.8c0-.2-.8-.8-1.1-.8-.3-.1,0,.2,0,.3a5.471,5.471,0,0,0,1,.8c.4.2.1.3.1.4s-.2.4-.1.7c0,.2-.3,0-.5-.1s.1-.2.3-.4c.2-.1.1-.2-.1-.5-.3-.3-.6-.2-.9-.5s-.2-.3-.3-.3-.2.2-.3.2a.367.367,0,0,0-.3.1c-.1.1,0,.3-.2.4s-.2.3-.2.6c0,.2-.2.5-.3.5-.1.1-.4,0-.5.1s-.3.2-.4.1a1.1,1.1,0,0,0-.4-.2c-.3-.1-.4-.3-.3-.7s-.2-.7-.2-1c-.1-.3.9,0,1.4,0s.1-.3,0-.7-.4-.2-.5-.6c-.1-.3.3-.4.6-.6-.1.1-.2,0-.5.1s-.5.1-.5,0c0-.2-.1-.2-.2-.3s0-.3.1-.5c0-.2-.3-.3-.5-.4a.481.481,0,0,1-.2-.6c0-.2.3-.3.5-.2s.2.2.2.4.1.4.3.4.1,0,.2.1.1.2.2.3.2,0,.3.4c0,0,.1.2,0,.3a1.439,1.439,0,0,1,.3-.2,4.888,4.888,0,0,0,.1-1.3c0-.5.5.2.6,0s-.5-.4-.7-.2c-.3.2-.9-.5-1-1.1s.2-.6.3-.8c0-.3-.3-.7-.1-1.1.1-.1.2-.2.3-.2h0a.758.758,0,0,1,.4.2c.2.2.3.2.7.1h.1a14.364,14.364,0,0,0-8.6-2.9A13.908,13.908,0,0,0,5,13.3a.31.31,0,0,1,.2-.1c.1.2-.1.5,0,.5.1.1.2-.3.2-.5,0-.1.1-.2.1-.4s1.1-.8,1.2-.7c.1,0,0,.2,0,.2s.4,0,.3.1a13.5,13.5,0,0,0-.9,1.1c-.2.3.5-.2.6-.4a1.337,1.337,0,0,1,.7-.8c.2-.1.6-.3.7-.2s-.6.3-.8.8c-.2.4.4.1.4-.2.1-.3.8-.5.9-.7H8c-.2,0-.2-.1-.2-.2s.2-.2.4-.2c.1,0,.1.2.2.2s0-.1,0-.2.1-.1.2-.1h.2c.1,0,0,.2.2.2s.6,0,.5.2c0,.2-.4.1-.8.1h0a1.884,1.884,0,0,1,.9.4,2.308,2.308,0,0,1,.5.7,4.331,4.331,0,0,1-.1.5s.7.3.7.5-.7.2-.8.1.1.2.1.6c.1.3-.6.4-1,.4a1.046,1.046,0,0,1-.6-.5c-.1-.1-.6.1-.6,0s.4-.4.6-.4.6-.3.5-.6c0-.3-.5-.3-.7-.3-.3,0-.3.7-.4.8s-.5.3-.4.4.2.4,0,.4a2.769,2.769,0,0,1-.9-.1c-.2-.1-.7.6-1.3.9-.5.4.4.9.6,1,.2.2.6-.1.5.5s.1.4.2.1c.1-.2,0-.8.7-1.1a5.133,5.133,0,0,1,.5-1.2c.2-.2.9,0,1.1.4s.2.5.4.5c.1-.1.3-.5.7-.3.3.2.1.6.2.9,0,.3.9.5,1.2.8s-.3.6,0,.8.5.7.3.9-1.3,0-1.4-.1c0-.1.2-.8,0-.8a4.1,4.1,0,0,0-1.1.1c-.2.2.1.4.6.4s.6.4,0,.9-.9.3-1.3.3-1,.6-1.8,1.7-1.1,1.7-1,2.3-.3.3-.7.1a3.194,3.194,0,0,0-1.4-.3c-.6,0-.5.8-.5,1.4s.5.7.7.2c.2-.4.7.1.8.5s0,.5.3.5.4.3.6.8a1.2,1.2,0,0,0,1,.7c.5.1.5-.3.9-.4.3-.1,1.1.2,2,.1.8,0,.6.2,1,.5a21.16,21.16,0,0,1,2.1,1.1.425.425,0,0,1-.1.7,5.706,5.706,0,0,1,2.2.3c1.1.3,1.6.7,1.5,1.3a5.816,5.816,0,0,1-2,2.7,3.748,3.748,0,0,0-1.5,3.3c.2,1.2,1.1.8,1.1.8a1.125,1.125,0,0,1-1.1,0,7.067,7.067,0,0,1-2.4-2.9c-.4-1-.7-1.9-1.4-2.3-.7-.3-2.5-2.1-2.6-3s.2-1.4,0-1.6-.7-.1-1.6-.7-2-.9-2.9-2.2c0,0-.3-.7-.5-1.3s0,.4.1.8-.2.2-.4-.2a15.692,15.692,0,0,1-.3-2.4v-.8a1.034,1.034,0,0,1-.4.1c0,.9-.1,1.7-.1,2.6A14.3,14.3,0,0,0,14.3,38.6a14.142,14.142,0,0,0,11.8-6.3C25.9,32.4,25.8,32.6,25.6,32.7ZM19.8,16.9c.1,0,.1-.1.1-.3H20a.914.914,0,0,1,.5.3c.1.2-.1.5-.2.7s-.4.1-.6-.1C19.6,17.3,19.8,16.9,19.8,16.9Zm-3.4-4.1c.2.4-.3.5-.4.6a2.355,2.355,0,0,0-1,.5c-.1.2-.6.3-1,.3-.4.1-.3.6-.3,1-.1.4-.3.4-.5.4-.1.1-.2-.1-.3-.2a1.486,1.486,0,0,1-.6-.1,5.929,5.929,0,0,1-.7-1.6c0-.3.1-.3-.1-.6-.1-.2.2-.3.3-.9s-.5-.5-1.1-.5h-.1c-.1-.1.2-.3.3-.4s.6-.3.6-.5-.3.1-.6.2a4.394,4.394,0,0,1-1.1,1H9.6c-.1,0-.5,0-.5-.2s.4-.2.4-.2a.31.31,0,0,1-.2-.1c-.1-.1.7-.5.9-.5s.1-.1.3-.1a9.431,9.431,0,0,1,2-.3c.4,0-.5.4-.5.4a9.1,9.1,0,0,1,1.2-.3,4.869,4.869,0,0,1,1.2-.1h.5c.3,0,.3.3.5.2s.5,0,.5.2a.952.952,0,0,0,.2.7c.3.2.5.4.5.6S16.3,12.4,16.4,12.8ZM18,14.6a1.6,1.6,0,0,1-1.2,0c-.5-.1-.2,0-.2-.1s.1-.1,0-.2-.2-.1-.1-.3c0-.1.3-.2.6-.2h.5a.9.9,0,0,1,.5.1C18.3,14,18.2,14.4,18,14.6Z" fill="#3ec6e0"/>
      <path id="Path_316" data-name="Path 316" d="M28.5,24.3Z" fill="#3ec6e0"/>
      <path id="Path_317" data-name="Path 317" d="M33.9,13.5s4.2,5,2.8,13.3c0,0-.9-3.3-1.7-4.1C34.1,25.7,23.2,40,11.4,40c-4.5,0-6.8-2.3-7.5-5.7.1.2,1.4,4.6,7.4,3.7h0c6.9-.3,16.7-10.7,19.3-17.6L26.9,20A21.294,21.294,0,0,0,33.9,13.5Z" fill="#ffc446"/>
      <path id="Path_318" data-name="Path 318" d="M58.1,40l-.8-15.4L48.7,40h-3L56.9,20h2.7l.8,15.4L69.1,20H72L60.8,40Z" fill="#fff"/>
      <path id="Path_319" data-name="Path 319" d="M52.9,22.1l-1.3,2.3-1-.9c-1.2-1.1-5.3-3-8.1-.1a3.759,3.759,0,0,0-1.1,3.1,2.786,2.786,0,0,0,1.8,1.9,5.42,5.42,0,0,1,3.1,2.8,4.752,4.752,0,0,1-.4,3.8,9.12,9.12,0,0,1-6.5,4.7,7.569,7.569,0,0,1-1.5.1,9.282,9.282,0,0,1-6.6-2.9l-.4-.4,1.3-2.3.9.9a6.429,6.429,0,0,0,5.8,2,6.516,6.516,0,0,0,4.7-3.3,2.281,2.281,0,0,0,.3-1.7,2.567,2.567,0,0,0-1.7-1.3A5.157,5.157,0,0,1,38.8,27a5.828,5.828,0,0,1,1.8-5.4c4.1-4.3,9.8-1.8,11.7-.1Z" fill="#9fc939"/>
    </g>
  </g>
</svg>
