<svg width="132" height="47" viewBox="0 0 132 47" fill="none" xmlns="http://www.w3.org/2000/svg">
<path d="M14.7644 47C12.3857 47 10.2736 46.7129 8.42801 46.1387C6.62347 45.5646 5.024 44.8058 3.62958 43.8626C2.23517 42.8783 1.02531 41.8325 0 40.7251L3.44503 36.1728C4.79843 37.4852 6.33639 38.6335 8.0589 39.6178C9.78141 40.6021 11.8115 41.0942 14.1492 41.0942C15.8717 41.0942 17.3687 40.8072 18.6401 40.233C19.9114 39.6178 20.8957 38.7565 21.5929 37.6492C22.3312 36.5419 22.7003 35.1885 22.7003 33.589C22.7003 31.9485 22.2901 30.5131 21.4699 29.2827C20.6907 28.0113 19.3168 27.0476 17.3482 26.3914C15.4206 25.6942 12.7548 25.3455 9.35079 25.3455V20.055C12.3447 20.055 14.6824 19.7269 16.3639 19.0707C18.0864 18.3735 19.3168 17.4302 20.055 16.2408C20.8342 15.0515 21.2238 13.6981 21.2238 12.1806C21.2238 10.212 20.6086 8.65358 19.3783 7.50524C18.1479 6.31588 16.4459 5.72121 14.2723 5.72121C12.5497 5.72121 10.9298 6.11082 9.4123 6.89005C7.93586 7.62827 6.54145 8.63307 5.22906 9.90445L1.53796 5.47513C3.3425 3.83464 5.31108 2.52225 7.44372 1.53796C9.57635 0.512653 11.9346 0 14.5183 0C17.2251 0 19.6243 0.471641 21.716 1.41492C23.8076 2.31719 25.4481 3.62958 26.6374 5.35209C27.8268 7.07461 28.4215 9.18674 28.4215 11.6885C28.4215 14.2723 27.7038 16.4664 26.2683 18.2709C24.8739 20.0755 22.9873 21.4289 20.6086 22.3312V22.5772C22.3312 23.0284 23.8896 23.7666 25.284 24.7919C26.7195 25.7762 27.8473 27.0476 28.6675 28.606C29.4878 30.1645 29.8979 31.9485 29.8979 33.9581C29.8979 36.6649 29.2007 39.0026 27.8063 40.9712C26.4529 42.8988 24.6278 44.3957 22.3312 45.462C20.0345 46.4873 17.5122 47 14.7644 47Z" fill="#525B9E"/>
<path d="M43.9457 27.4H70.4657V30.34H43.9457V27.4ZM58.8857 28.57C59.5257 30.93 60.3857 33.13 61.4657 35.17C62.5657 37.21 63.9057 39 65.4857 40.54C67.0857 42.06 68.9357 43.26 71.0357 44.14C70.7957 44.34 70.5357 44.6 70.2557 44.92C69.9957 45.24 69.7457 45.56 69.5057 45.88C69.2657 46.22 69.0657 46.52 68.9057 46.78C66.6857 45.74 64.7457 44.37 63.0857 42.67C61.4457 40.95 60.0557 38.96 58.9157 36.7C57.7757 34.44 56.8157 31.96 56.0357 29.26L58.8857 28.57ZM55.5857 19.03H58.6757C58.6757 20.45 58.6357 21.98 58.5557 23.62C58.4957 25.24 58.3457 26.91 58.1057 28.63C57.8657 30.35 57.4757 32.07 56.9357 33.79C56.3957 35.51 55.6457 37.17 54.6857 38.77C53.7257 40.37 52.4957 41.86 50.9957 43.24C49.4957 44.6 47.6657 45.79 45.5057 46.81C45.2657 46.43 44.9457 46.01 44.5457 45.55C44.1457 45.11 43.7457 44.74 43.3457 44.44C45.4257 43.5 47.1757 42.41 48.5957 41.17C50.0357 39.91 51.1957 38.55 52.0757 37.09C52.9757 35.61 53.6657 34.08 54.1457 32.5C54.6257 30.92 54.9657 29.34 55.1657 27.76C55.3657 26.18 55.4857 24.65 55.5257 23.17C55.5657 21.69 55.5857 20.31 55.5857 19.03Z" fill="#525B9E"/>
<path d="M73.4357 36.04C74.3357 35.84 75.3557 35.62 76.4957 35.38C77.6557 35.12 78.8757 34.85 80.1557 34.57C81.4357 34.27 82.7157 33.97 83.9957 33.67L84.2657 36.28C82.5457 36.74 80.7957 37.2 79.0157 37.66C77.2357 38.12 75.6257 38.53 74.1857 38.89L73.4357 36.04ZM78.4757 19.03H81.2057V46.87H78.4757V19.03ZM74.9657 21.28L77.1557 21.61C77.0157 22.93 76.8457 24.24 76.6457 25.54C76.4457 26.82 76.2057 28.03 75.9257 29.17C75.6657 30.31 75.3557 31.32 74.9957 32.2C74.8557 32.1 74.6557 32 74.3957 31.9C74.1357 31.78 73.8757 31.68 73.6157 31.6C73.3557 31.5 73.1257 31.42 72.9257 31.36C73.3057 30.54 73.6257 29.58 73.8857 28.48C74.1457 27.38 74.3657 26.21 74.5457 24.97C74.7257 23.73 74.8657 22.5 74.9657 21.28ZM75.4157 25.06H84.0257V27.76H74.8757L75.4157 25.06ZM85.0157 22.03H100.196V24.61H85.0157V22.03ZM86.2157 27.88H99.2657V30.52H86.2157V27.88ZM84.8057 33.76H100.856V36.4H84.8057V33.76ZM91.0757 19H93.8657V29.32H91.0757V19ZM94.8257 31.24H97.6457V43.54C97.6457 44.3 97.5557 44.89 97.3757 45.31C97.1957 45.73 96.8357 46.06 96.2957 46.3C95.7757 46.52 95.1157 46.65 94.3157 46.69C93.5357 46.75 92.6057 46.78 91.5257 46.78C91.4657 46.36 91.3457 45.89 91.1657 45.37C91.0057 44.85 90.8257 44.38 90.6257 43.96C91.4057 43.98 92.1457 44 92.8457 44.02C93.5457 44.02 94.0157 44.02 94.2557 44.02C94.4757 44 94.6257 43.96 94.7057 43.9C94.7857 43.84 94.8257 43.71 94.8257 43.51V31.24ZM86.4557 38.23L88.5857 36.94C89.0457 37.4 89.5157 37.91 89.9957 38.47C90.4757 39.03 90.9257 39.59 91.3457 40.15C91.7657 40.69 92.0957 41.17 92.3357 41.59L90.0857 43.06C89.8457 42.62 89.5257 42.12 89.1257 41.56C88.7457 41 88.3157 40.43 87.8357 39.85C87.3757 39.25 86.9157 38.71 86.4557 38.23Z" fill="#525B9E"/>
<path d="M117.956 33.25H129.956V46.72H127.256V35.83H120.566V46.84H117.956V33.25ZM122.156 19.06H124.916V34H122.156V19.06ZM123.806 25.45H131.096V28.09H123.806V25.45ZM119.306 42.97H128.546V45.55H119.306V42.97ZM106.496 22.03V28.96H114.326V22.03H106.496ZM104.306 20.05H116.576V30.94H104.306V20.05ZM106.706 23.41L107.996 23.05C108.236 23.77 108.446 24.55 108.626 25.39C108.806 26.21 108.916 26.92 108.956 27.52L107.606 27.91C107.586 27.31 107.486 26.59 107.306 25.75C107.146 24.91 106.946 24.13 106.706 23.41ZM107.726 40.81L109.556 40.63C109.716 41.45 109.826 42.35 109.886 43.33C109.966 44.31 109.996 45.15 109.976 45.85L108.086 46.09C108.126 45.37 108.106 44.52 108.026 43.54C107.966 42.56 107.866 41.65 107.726 40.81ZM110.786 40.78L112.526 40.48C112.846 41.24 113.126 42.08 113.366 43C113.626 43.9 113.796 44.68 113.876 45.34L112.046 45.76C111.986 45.08 111.836 44.28 111.596 43.36C111.356 42.42 111.086 41.56 110.786 40.78ZM113.846 40.75L115.616 40.12C116.056 40.84 116.466 41.64 116.846 42.52C117.226 43.4 117.496 44.17 117.656 44.83L115.796 45.55C115.656 44.89 115.396 44.11 115.016 43.21C114.656 42.31 114.266 41.49 113.846 40.75ZM104.936 40.12L106.886 40.81C106.686 41.75 106.436 42.75 106.136 43.81C105.856 44.87 105.486 45.76 105.026 46.48L103.016 45.64C103.336 45.16 103.616 44.61 103.856 43.99C104.116 43.37 104.336 42.72 104.516 42.04C104.696 41.36 104.836 40.72 104.936 40.12ZM112.736 22.99L114.266 23.53C113.986 24.29 113.696 25.09 113.396 25.93C113.116 26.77 112.846 27.48 112.586 28.06L111.476 27.61C111.616 27.19 111.766 26.71 111.926 26.17C112.086 25.61 112.236 25.05 112.376 24.49C112.536 23.93 112.656 23.43 112.736 22.99ZM104.216 32.68H116.666V34.9H104.216V32.68ZM109.406 21.01H111.236V30.04H111.596V37.81H109.076V30.04H109.406V21.01ZM103.646 36.88H117.056V39.07H103.646V36.88Z" fill="#525B9E"/>
</svg>
