<svg id="圖層_1" data-name="圖層 1" xmlns="http://www.w3.org/2000/svg" width="246" height="246" viewBox="0 0 246 246">
  <defs>
    <style>
      .cls-1 {
        fill: #fff;
      }
    </style>
  </defs>
  <g>
    <path class="cls-1" d="M135.54,103.34l.37,0Z"/>
    <path class="cls-1" d="M111.43,113.92a122.87,122.87,0,0,1,22.91-10.5,68.48,68.48,0,0,0-16,3A72.44,72.44,0,0,0,111.43,113.92Z"/>
    <path class="cls-1" d="M134.34,103.42l.27,0Z"/>
    <path class="cls-1" d="M96.46,113.76c0-3.2.9-33.73,27-23.13a9.68,9.68,0,0,1,.93.44,107.66,107.66,0,0,1,11.43-4.85,55.59,55.59,0,0,0-8-6.51s-12.32-9.3-22.91-.82c0,0-14.25,9.23-8.5,34.93Z"/>
    <path class="cls-1" d="M132.91,152.07l-.07,0-.08,0-.09,0-.11.06-.11.06-.13.06-.12.06-.16.08-.14.07-.17.08-.16.08-.19.09-.18.08-.21.1-.19.08-.23.11-.2.09-.25.1-.21.1-.28.12-.21.08-.33.14-.19.08-.41.16-.14,0-.57.22-.16.05-.43.16-.23.09-.39.13-.26.09-.37.12-.29.09-.37.12-.29.09-.38.11-.31.09-.39.1-.31.09-.39.1-.32.08-.4.09-.33.07-.4.09-.34.07-.4.07-.34.06-.42.07-.33.06-.44.06-.33,0-.45.05-.31,0-.53,0-.24,0c-.26,0-.51,0-.77,0h-1.49l-.73,0h-.18l-.54-.05-.26,0-.45-.06-.29,0-.42-.07-.3-.06-.41-.09-.3-.07-.39-.11-.31-.09-.38-.12-.3-.1-.38-.14-.3-.12-.37-.16-.29-.13-.37-.19-.28-.14-.37-.22-.27-.15-.37-.25-.25-.16-.39-.29-.21-.16-.45-.37-.14-.12q-.28-.25-.57-.54a.46.46,0,0,0-.07-.07c-.16-.17-.32-.33-.47-.51l-.18-.2-.35-.43c-.07-.08-.13-.17-.19-.25l-.31-.42-.2-.3-.28-.42-.2-.33-.26-.44c-.06-.12-.12-.24-.19-.36l-.24-.47-.18-.38c-.07-.16-.15-.33-.22-.5s-.11-.27-.17-.4-.14-.35-.2-.53-.11-.28-.16-.43-.13-.37-.19-.56-.09-.3-.14-.45-.12-.4-.17-.6-.09-.31-.13-.47-.11-.43-.16-.65-.07-.32-.11-.48-.1-.47-.14-.72l-.09-.46c0-.28-.09-.56-.14-.84l-.06-.41c-.06-.43-.12-.86-.16-1.31a12,12,0,0,1-.06-1.52c-4-1.75-7.46-3.5-10.28-5A56.22,56.22,0,0,0,88,140.57s-2.36,15.26,10.12,20.58l.1,0,.07,0a.23.23,0,0,0,.1.05l.1.05.14.06.15.07.17.07.19.08.21.08.24.09.24.08.27.09.29.1.3.09.32.09.34.09.36.09.38.09.38.08.41.08.42.08.45.07.44.06.49.06.47,0,.52,0,.5,0,.56,0h1.1l.62,0,.58,0,.65,0,.61-.06.68-.07.65-.08.7-.12.67-.11.73-.16.7-.15.75-.19.73-.2.78-.24.74-.24.81-.29.77-.29c.28-.1.56-.23.84-.34l.78-.34c.29-.12.58-.26.87-.4l.79-.38.91-.48.8-.43c.31-.17.63-.36.94-.55s.53-.3.8-.47.67-.43,1-.64l.79-.52c.35-.23.71-.5,1.07-.75l.75-.53,1.2-.93.65-.51c.61-.49,1.22-1,1.84-1.53l.05,0-.15.08Z"/>
    <path class="cls-1" d="M93.39,128.91q3.69,1.22,7.24,2.23a.53.53,0,0,1,0-.12c.06-.25.12-.49.19-.75.16-.56.35-1.16.55-1.77s.47-1.37.75-2.09l.46-1.13c.39-.9.82-1.84,1.31-2.8.32-.64.67-1.3,1-2l.58-1c.61-1,1.28-2.08,2-3.16h0l.74-1c.52-.73,1.07-1.46,1.66-2.2s1.2-1.49,1.85-2.25q1.34-1.56,2.88-3.16l.28-.3A99.87,99.87,0,0,1,129.89,95h0q2.67-1.81,5.64-3.65c1.05-.64,2.12-1.29,3.23-1.93,2.19-1.27,4.5-2.54,7-3.8a8.75,8.75,0,0,0,.73,1.47,8.29,8.29,0,1,0-1.22-5.33,8.47,8.47,0,0,0,0,1.59,7.85,7.85,0,0,0,.29,1.62h0c-1.3.33-3,.8-5.05,1.44-.63.2-1.3.41-2,.64l-1.4.48-.75.26c-1.84.66-3.83,1.43-5.92,2.32l-1.84.81c-.67.3-1.33.6-2,.93l-.46.22-.86.41q-1.32.66-2.67,1.38c-.9.47-1.8,1-2.71,1.5-.45.26-.9.52-1.35.8q-2,1.22-4.08,2.6c-1.35.93-2.69,1.9-4,2.93-.88.69-1.75,1.4-2.61,2.14s-1.71,1.5-2.54,2.29-1.64,1.6-2.44,2.45c-.4.42-.79.85-1.18,1.28-.78.87-1.53,1.77-2.26,2.7q-.56.69-1.08,1.41c-.71,1-1.39,1.93-2,3-.33.5-.65,1-1,1.54-.63,1-1.22,2.11-1.78,3.21-.47.94-.92,1.9-1.34,2.87-.15.34-.29.69-.44,1-.32.8-.64,1.62-.93,2.46.81.28,1.62.56,2.42.82Z"/>
    <path class="cls-1" d="M176.42,124.74a12.26,12.26,0,0,0-.28-1.94,14.47,14.47,0,0,0-1.1-3.15,13.74,13.74,0,0,0-1.26-2.41,21,21,0,0,0-1.3-1.86,28,28,0,0,0-2.67-3c-.27-.26-.55-.53-.85-.8a37.11,37.11,0,0,0-4.24-3.28,46.2,46.2,0,0,0-8.7-4.44q-.59-.24-1.2-.45a63.12,63.12,0,0,0-8.54-2.44h0c-.2-.41-.41-.82-.61-1.2l-.36-.68h0l-.13-.25-.24-.43c-.21-.4-.43-.79-.66-1.19s-.39-.67-.51-.87l-.2-.34h0a53.59,53.59,0,0,0-3.74-5.34c-3.16,1.83-6,3.65-8.69,5.46,5.89,5.78,13.49,17,16.52,37.89a34,34,0,0,0,5-1.9,76.26,76.26,0,0,0-3.81-24.82.09.09,0,0,0,0,0,24.47,24.47,0,0,0-1-2.86c-.31-.78-.66-1.56-1-2.31h0c1,.45,2.08,1,3.23,1.61s2.07,1.15,3.13,1.82l.59.38c.29.18.57.37.85.57l.38.26c.53.37,1,.75,1.55,1.15l.24.2c.56.44,1.1.91,1.62,1.38l.58.56c5.24,5.17,7.7,12.17-.81,20.51h0l0,0,0,0-.07,0,0,0-.32.27,0,0-.17.14-.07.05-.2.16-.07,0-.68.47-.08.06-.32.2-.12.08-.34.21-.12.07c-.32.19-.67.39-1.05.59l-.13.06-.47.25-.17.08-.5.24-.16.08-.33.15h0c-.36.16-.73.33-1.13.49l-.18.07-.62.24-.25.09-.64.22-.23.09-.89.29h0l-.79.24h0l-.19,0-.24.07-.78.21-.33.08-.78.19-.32.07-1,.22-.11,0-1.19.22-.33.05c-.3.06-.61.11-.92.15l-.43.07-.92.12-.42,0-1.18.13-.2,0c-.46.05-.94.09-1.43.12l-.41,0-1.08.06-.53,0-1.07,0h-.52l-1.36,0h-.27l-2,0h-.51l-1.91-.08h-.19l-2.15-.15-.55-.05c-.69,0-1.39-.12-2.11-.2l-.18,0c-.77-.08-1.55-.17-2.34-.28l-.62-.08c-.75-.1-1.52-.22-2.3-.34l-.18,0c-.83-.13-1.68-.28-2.54-.43l-.67-.13c-.83-.15-1.66-.31-2.52-.49l-.17,0-2.75-.61-.71-.17c-.91-.21-1.83-.43-2.76-.67l-.14,0c-.89-.23-1.8-.47-2.72-.73l-.25-.06-.76-.22-.59-.16h0c-.8-.22-1.6-.45-2.43-.7l-.09,0c-1-.31-2.12-.65-3.2-1l-.82-.27-3.28-1.09,0,0-.11,0h0l-1.53-.54L87,128.41l-.86-.32-.19-.07h0a7.35,7.35,0,0,0,.2-1.06c0-.2,0-.4,0-.6a8.3,8.3,0,0,0-14.66-5.64l-.3.39A8.29,8.29,0,1,0,85,130.23a8,8,0,0,0,.69-1.51h0l.44.26.21.12c.31.19.64.37,1,.57h0l1,.58.05,0,.24.13,1.17.64,0,0h0l1.27.68.28.15,1.41.74.06,0,1.44.73.33.16,1.59.78.06,0,1.61.76.37.17,1.44.64.32.15.09,0,1.19.51.54.23.41.18,1.9.78.13,0,1.83.72.46.17,2,.75.16.05c.63.23,1.28.45,1.93.67l.48.17,2.13.69.2.06,2,.6.52.14c.73.21,1.47.42,2.21.61l.24.06c.68.18,1.36.35,2,.51l.54.13,2.28.5.28.05c.69.14,1.39.28,2.09.4l.55.1c.78.13,1.56.26,2.34.37l.3,0c.71.1,1.41.19,2.12.27l.57.07c.79.08,1.58.16,2.38.22l.32,0,2.14.13.57,0c.8,0,1.6.05,2.41.05h2l.69,0,.88,0h.15l.8-.06.87-.06,1-.09.85-.08,1-.13.84-.11.22,0h0l.77-.12.82-.14,1-.19.58-.11.22-.05,1-.23.78-.18,1-.27c.26-.07.52-.13.77-.21s.69-.2,1-.31l.75-.23c.35-.11.69-.24,1-.36l.73-.25,1-.4.72-.28,1-.45c.24-.1.48-.19.71-.3l1-.5.68-.33c.37-.18.74-.38,1.11-.58l.6-.32c.48-.26.95-.54,1.43-.83l.26-.15a19.84,19.84,0,0,0,6.12-5.42,14.33,14.33,0,0,0,1.22-2c.11-.24.23-.49.33-.74a11.67,11.67,0,0,0,.84-3.27A11.09,11.09,0,0,0,176.42,124.74Z"/>
    <path class="cls-1" d="M150.47,155.07c-.15,0-.31,0-.47,0,.53-2.29,1.16-5.4,1.67-9.09-.95.18-1.9.35-2.86.49q.19,4.09.16,8.6a8.3,8.3,0,1,0,1.5,0Z"/>
  </g>
</svg>
