<svg xmlns="http://www.w3.org/2000/svg" width="132.38" height="44.97" viewBox="0 0 132.38 44.97">
  <defs>
    <style>
      .cls-1 {
        fill: #fff;
      }
    </style>
  </defs>
  <g id="圖層_2" data-name="圖層 2">
    <g id="圖層_1-2" data-name="圖層 1">
      <g>
        <polygon class="cls-1" points="44.35 0.03 32.68 0.03 22.18 14.77 11.67 0.03 0 0.03 16.34 22.95 0.64 44.97 12.31 44.97 22.18 31.13 32.04 44.97 43.71 44.97 28.01 22.95 44.35 0.03"/>
        <path class="cls-1" d="M82.34,44.87H55.22a7,7,0,0,1-7-7V7a7,7,0,0,1,7-7H82.34V9H57.22V35.87H82.34Z"/>
        <path class="cls-1" d="M120.71,45h11.67L114,.28l.1-.25H102.26l.1.25L84,45H95.67l4.14-10.09h16.76Zm-17-19.53,4.5-11,4.5,11Z"/>
      </g>
    </g>
  </g>
</svg>
