<svg xmlns="http://www.w3.org/2000/svg" width="128.24" height="84.3" viewBox="0 0 128.24 84.3">
  <defs>
    <style>
      .cls-1 {
        fill: #fff;
      }
    </style>
  </defs>
  <g id="圖層_2" data-name="圖層 2">
    <g id="圖層_1-2" data-name="圖層 1">
      <g>
        <g>
          <path class="cls-1" d="M22.31,76.49V62.67a29.94,29.94,0,0,1,4.46-.31q4.5,0,6.46,1.88a6.55,6.55,0,0,1,2,4.92A7.07,7.07,0,0,1,33,74.73q-2.24,2-6.88,2A29.73,29.73,0,0,1,22.31,76.49ZM25.54,65v9.16a6.93,6.93,0,0,0,1.17.06,5.18,5.18,0,0,0,3.73-1.26,4.82,4.82,0,0,0,1.32-3.64A4.35,4.35,0,0,0,30.56,66a4.89,4.89,0,0,0-3.47-1.14A7.28,7.28,0,0,0,25.54,65Z"/>
          <path class="cls-1" d="M45.93,72.88H41.72l-1,3.67H37.31l4.45-14.07H46l4.58,14.07H47.08ZM42.2,70.5h3.23c-.85-2.75-1.4-4.63-1.65-5.66h0l-.67,2.67Z"/>
          <path class="cls-1" d="M56.32,76.55V65.18H52.38v-2.7H63.57v2.7h-4V76.55Z"/>
          <path class="cls-1" d="M73.46,72.88H69.24l-1,3.67H64.84l4.44-14.07h4.26l4.57,14.07h-3.5ZM69.72,70.5H73c-.85-2.75-1.4-4.63-1.65-5.66h0l-.67,2.67Z"/>
        </g>
        <g>
          <path class="cls-1" d="M113.59,35.59l13.77-6.17a1.18,1.18,0,0,0,.88-1c0-.53-.49-1-1.17-1.11-3.89-.93-29.14,3.09-40.58,15.68V42.9C65.9,29.41,17.79,21.85,5.19,22H5c-2.78,0-5,.84-5,1.88,0,.67.94,1.26,2.35,1.6h0l.09,0,.32.06L22.3,29.67C40,35.19,64.87,44.18,77.51,59,94.5,86.16,67,76.54,60.74,78.66S81.55,87.81,90,82.13s-1.43-22.65-1.43-22.65C85.94,52.31,101.37,42.43,113.59,35.59Z"/>
          <path class="cls-1" d="M22.3,59.61H35.07V36.76C30.91,35,26.65,33.43,22.3,32.05Z"/>
          <path class="cls-1" d="M40.18,0H22.3V20.69a154.16,154.16,0,0,1,27.17,4.5Z"/>
          <path class="cls-1" d="M73.39,23.42v8.64a109.7,109.7,0,0,1,12.77,6.57V0H68.28L58,26.64c4.22,1.36,8.4,2.65,12.48,4.4Z"/>
          <path class="cls-1" d="M58.68,48.82C53.07,45,47.21,42.44,41.13,39.51l7.57,20.1H59.77l2.76-8.1Q60.68,50.18,58.68,48.82Z"/>
        </g>
      </g>
    </g>
  </g>
</svg>
