<?xml version="1.0" encoding="utf-8"?>
<!-- Generator: Adobe Illustrator 27.4.1, SVG Export Plug-In . SVG Version: 6.00 Build 0)  -->
<svg version="1.1" id="圖層_1" xmlns="http://www.w3.org/2000/svg" xmlns:xlink="http://www.w3.org/1999/xlink" x="0px" y="0px"
	 width="30px" height="30px" viewBox="0 0 30 30" style="enable-background:new 0 0 30 30;" xml:space="preserve">
<style type="text/css">
	.st0{fill:#6E777C;}
</style>
<path class="st0" d="M15,0C6.7,0,0,6.7,0,15s6.7,15,15,15s15-6.7,15-15S23.3,0,15,0z M9.9,22c-1,0-1.9-0.8-1.9-1.9
	c0-1,0.8-1.9,1.9-1.9c1,0,1.9,0.8,1.9,1.9C11.8,21.1,10.9,22,9.9,22z M16.9,22c-0.8,0-1.4-0.6-1.4-1.4c0-3.4-2.7-6.1-6.1-6.1
	c-0.8,0-1.4-0.6-1.4-1.4c0-0.8,0.6-1.4,1.4-1.4c4.9,0,8.9,4,8.9,8.9C18.3,21.4,17.7,22,16.9,22z M22.6,22c-0.8,0-1.4-0.6-1.4-1.4
	c0-6.5-5.3-11.7-11.7-11.7C8.6,8.8,8,8.2,8,7.4C8,6.6,8.6,6,9.4,6c8,0,14.6,6.5,14.6,14.6C24,21.4,23.4,22,22.6,22z"/>
</svg>
