<svg width="50" height="50" viewBox="0 0 50 50" fill="none" xmlns="http://www.w3.org/2000/svg">
<g clip-path="url(#clip0_2186_17665)">
<path d="M7.63281 21.1536L7.66586 22.1578C7.66586 22.1578 8.03448 22.1578 8.65477 22.0866V20.9375L7.63281 21.1536Z" fill="#2B2E56"/>
<path d="M11.7843 17.9727V20.2505C11.7843 20.2505 9.99972 20.8809 7.21094 21.3436V19.3353C7.21094 19.3353 8.932 18.8167 11.7843 17.9727Z" fill="#2B2E56"/>
<path d="M9.03906 20.9387V22.014C9.03906 22.014 9.46361 21.9505 10.0305 21.8005V20.6133L9.03906 20.9361V20.9387Z" fill="#2B2E56"/>
<path d="M10.4141 20.4366V21.7306C10.4141 21.7306 10.8259 21.639 11.3725 21.4077V20.0781L10.4141 20.4366Z" fill="#2B2E56"/>
<path d="M7.4375 23.0785V24.5174C7.4375 24.5174 9.65175 24.1869 11.7541 23.7344V22.293C11.7541 22.293 9.44583 22.7379 7.4375 23.0785Z" fill="#2B2E56"/>
<path d="M9.05469 22.2928C9.05469 22.2928 9.48178 22.2241 10.0156 22.125V27.4585C10.0156 27.4585 9.74871 27.3162 9.05469 27.3517V22.2928Z" fill="#2B2E56"/>
<path d="M9.1014 23.8789C9.1014 23.8789 8.65397 25.1195 7.17188 25.3763V27.105C7.17188 27.105 9.20309 26.9778 9.71915 25.361L9.09886 23.8814L9.1014 23.8789Z" fill="#2B2E56"/>
<path d="M10.0817 23.8016C10.0817 23.8016 10.3079 24.7728 11.6019 24.5974V26.2167C11.6019 26.2167 10.6104 26.8574 9.58594 25.6371V23.7305L10.0817 23.8016Z" fill="#2B2E56"/>
<path d="M12.1328 19.8996V22.208C12.1328 22.208 13.8208 21.5038 15.3004 20.4106V17.9727C15.3004 17.9727 13.8539 18.9895 12.1328 19.8996Z" fill="#2B2E56"/>
<path d="M12.1016 22.9899V24.2838C12.1016 24.2838 13.787 23.6381 15.3022 22.5729V21.2383C15.3022 21.2383 13.8557 22.1916 12.1016 22.9899Z" fill="#2B2E56"/>
<path d="M11.9297 25.0556V27.4529C11.9297 27.4529 13.849 26.8732 15.2956 25.9301V23.3828C15.2956 23.3828 14.1948 24.1175 11.9297 25.0556Z" fill="#2B2E56"/>
<path d="M16.0938 20.0078V22.9796H16.7471V20.0892L16.0938 20.0078Z" fill="#2B2E56"/>
<path d="M16.0938 19.6909V21.656C16.0938 21.656 17.7462 21.5365 19.5384 21.3866V19.457C19.5384 19.457 17.9546 19.574 16.0938 19.6909Z" fill="#2B2E56"/>
<path d="M16.0938 22.5126V24.2718C16.0938 24.2718 17.6445 24.1523 19.5384 24.0023V22.2812C19.5384 22.2812 17.9546 22.3982 16.0938 22.5151V22.5126Z" fill="#2B2E56"/>
<path d="M18.8828 20.2422V23.4021H19.5387V20.3286L18.8828 20.2422Z" fill="#2B2E56"/>
<path d="M16.0938 25.4267V27.3206C16.0938 27.3206 17.8148 27.4249 19.0554 27.041L18.8139 25.1445C18.8139 25.1445 18.3309 25.3581 16.0938 25.4267Z" fill="#2B2E56"/>
<path d="M18.5703 24.4988L19.3991 24.3945L19.7067 27.3104L18.8474 27.4579L18.5703 24.4988Z" fill="#2B2E56"/>
<path d="M17.2969 25.7843V18.1679C17.2969 18.1679 17.9502 18.1959 18.2604 18.0586V25.7843H17.2969Z" fill="#2B2E56"/>
<path d="M19.8828 18.3398V20.5007C19.8828 20.5007 21.7412 20.5007 23.9808 20.5007V18.3576C23.9808 18.3576 22.1225 18.3678 19.8828 18.3398Z" fill="#2B2E56"/>
<path d="M19.8463 25.2772L20.0853 27.344C20.0853 27.344 21.9106 27.3567 24.1833 27.3338V25.2695C24.1833 25.2695 22.4622 25.2568 19.8438 25.2772H19.8463Z" fill="#2B2E56"/>
<path d="M22.4992 20.5H21.3984V25.4166H22.4992V20.5Z" fill="#2B2E56"/>
<path d="M25.0781 18.3338V20.4871C25.0781 20.4871 28.8685 20.5049 32.4505 20.4871V18.3008C32.4505 18.3008 28.8711 18.3364 25.0781 18.3364V18.3338Z" fill="#2B2E56"/>
<path d="M24.7344 22.4315V24.5847C24.7344 24.5847 29.2112 24.6025 32.7931 24.5847V22.3984C32.7931 22.3984 28.4536 22.434 24.7344 22.434V22.4315Z" fill="#2B2E56"/>
<path d="M28.0547 27.4263V20.0234H29.2877V27.5305C29.2877 27.5305 28.7945 27.3577 28.0547 27.4263Z" fill="#2B2E56"/>
<path d="M27.1451 22.6734H25.9401L25.7266 20.332H26.929L27.1451 22.6734Z" fill="#2B2E56"/>
<path d="M31.4759 22.6378H30.2734L30.4895 20.332H31.6945L31.4759 22.6378Z" fill="#2B2E56"/>
<path d="M21.0469 29.869V32.0222C21.0469 32.0222 24.8373 32.04 28.4192 32.0222V29.8359C28.4192 29.8359 24.8398 29.8715 21.0469 29.8715V29.869Z" fill="#2B2E56"/>
<path d="M20.7031 33.9666V36.1199C20.7031 36.1199 25.1799 36.1377 28.7619 36.1199V33.9336C28.7619 33.9336 24.4224 33.9692 20.7031 33.9692V33.9666Z" fill="#2B2E56"/>
<path d="M24.0234 38.9615V31.5586H25.2564V39.0657C25.2564 39.0657 24.7632 38.8928 24.0234 38.9615Z" fill="#2B2E56"/>
<path d="M23.1139 34.2085H21.9089L21.6953 31.8672H22.9003L23.1139 34.2085Z" fill="#2B2E56"/>
<path d="M27.4446 34.173H26.2422L26.4583 31.8672H27.6633L27.4446 34.173Z" fill="#2B2E56"/>
<path d="M33.7891 19.771V21.6751C33.7891 21.6751 34.9966 21.6751 36.316 21.487V19.5117C36.316 19.5117 35.0652 19.6744 33.7891 19.771Z" fill="#2B2E56"/>
<path d="M34.6172 27.4206V18.1289H35.5553V27.4943C35.5553 27.4943 35.2731 27.385 34.6172 27.4206Z" fill="#2B2E56"/>
<path d="M33.375 23.2954V25.1944C33.375 25.1944 34.7859 25.6724 34.9791 23.8191V21.793H34.6385C34.6385 21.793 34.6156 23.1225 33.375 23.2929V23.2954Z" fill="#2B2E56"/>
<path d="M36.247 21.9336V23.6343C36.247 23.6343 35.7182 23.8911 35.375 23.6369V21.9361C35.375 21.9361 35.6343 22.0836 36.247 21.9336Z" fill="#2B2E56"/>
<path d="M41.8115 18.3845V19.6378C41.8115 19.6378 40.8811 19.6403 39.4219 19.6378V18.1328H40.0371V18.3896C40.0371 18.3896 40.5735 18.4023 41.8115 18.387V18.3845Z" fill="#2B2E56"/>
<path d="M36.6562 18.3845V19.6378C36.6562 19.6378 37.5867 19.6403 39.0459 19.6378V18.1328H38.4307V18.3896C38.4307 18.3896 37.8943 18.4023 36.6562 18.387V18.3845Z" fill="#2B2E56"/>
<path d="M35.8906 23.0982V24.4964C35.8906 24.4964 38.1633 24.4608 38.1633 22.0508H36.7855C36.7855 22.0508 36.7855 23.0499 35.8906 23.0956V23.0982Z" fill="#2B2E56"/>
<path d="M36.5859 23.6652V27.4531C36.5859 27.4531 37.0588 27.3895 37.4732 27.4937V23.2305L36.5859 23.6652Z" fill="#2B2E56"/>
<path d="M36.9219 24.7852C36.9219 24.7852 39.7793 24.7852 41.6427 24.7852V25.5453C41.6427 25.5453 39.642 25.5453 36.9956 25.5504L36.9244 24.7852H36.9219Z" fill="#2B2E56"/>
<path d="M36.9219 23.625C36.9219 23.625 39.7793 23.625 41.6427 23.625V24.3851C41.6427 24.3851 39.642 24.3851 36.9956 24.3902L36.9244 23.625H36.9219Z" fill="#2B2E56"/>
<path d="M37.0938 22.3945C37.0938 22.3945 39.9512 22.3945 41.8146 22.3945V23.2233C41.8146 23.2233 39.8139 23.2233 37.1675 23.2284L37.0963 22.3945H37.0938Z" fill="#2B2E56"/>
<path d="M36.9219 25.9453C36.9219 25.9453 38.404 25.9453 41.8131 25.9453V27.3181C41.8131 27.3181 39.8149 27.3206 36.9981 27.3156L36.9244 25.9453H36.9219Z" fill="#2B2E56"/>
<path d="M39.8589 23.1875H39.0938V26.6296H39.8589V23.1875Z" fill="#2B2E56"/>
<path d="M39.3665 22.7885C39.3309 22.5317 39.2979 22.3258 39.125 22.0156H39.9868C40.1317 22.2317 40.1876 22.4834 40.2842 22.7732L39.3665 22.7885Z" fill="#2B2E56"/>
<path d="M7.20312 31.3169V33.4193C7.20312 33.4193 11.1003 33.4879 15.3636 33.4168V31.3118C15.3636 31.3118 11.2656 31.2839 7.20312 31.3169Z" fill="#2B2E56"/>
<path d="M10.4243 29.6172H12.2344V31.6967C12.2344 34.0406 11.9242 37.137 7.79316 39.0309L7 37.048C7 37.048 10.3404 35.8634 10.3735 32.5585C10.3786 32.0424 10.4421 30.4917 10.4243 29.6172Z" fill="#2B2E56"/>
<path d="M12.4041 33.0391C12.4041 33.0391 12.7142 35.8965 15.5386 36.9312C15.5386 36.9312 14.9539 37.9862 14.6082 39.031C14.6082 39.031 11.405 38.2048 10.8203 33.6924L12.4041 33.0391Z" fill="#2B2E56"/>
<path d="M36.3834 29.5391L34.4844 32.5439L36.0097 32.7982L37.7892 30.0017L36.3834 29.5391Z" fill="#2B2E56"/>
<path d="M33.7891 31.9617V34.0743L40.8335 33.5607L40.7115 31.5117C38.7565 31.6922 37.0965 31.7405 33.7891 31.9617Z" fill="#2B2E56"/>
<path d="M38.8203 30.5607L40.249 30.2734L42.0819 33.3647L40.6863 33.9901L38.8203 30.5607Z" fill="#2B2E56"/>
<path d="M35.6111 35.6719H34.3984V38.0437H35.6111V35.6719Z" fill="#2B2E56"/>
<path d="M41.2751 35.5352H40.0625V38.0443H41.2751V35.5352Z" fill="#2B2E56"/>
<path d="M41.2649 34.3242H34.3984V36.3631H41.2649V34.3242Z" fill="#2B2E56"/>
<path d="M41.2649 36.8477H34.3984V38.8865H41.2649V36.8477Z" fill="#2B2E56"/>
<path d="M36.6562 19.9492V21.8177C37.6147 21.8126 37.6121 21.8126 39.0459 21.8177V19.9518C39.0459 19.9518 38.2299 19.9518 36.6562 19.9492ZM38.4383 21.0195H37.302V20.8466H38.4383V21.0195Z" fill="#2B2E56"/>
<path d="M39.4219 19.9492V21.8177C40.6447 21.8126 40.6396 21.8126 41.8115 21.8177V19.9518C41.8115 19.9518 40.848 19.9518 39.4219 19.9492ZM41.1938 21.0195H40.0574V20.8466H41.1938V21.0195Z" fill="#2B2E56"/>
<path d="M10.8084 10.9336C8.71362 10.9336 7.00781 12.6369 7.00781 14.7316V15.7892H9.12037V14.7316C9.12037 13.8012 9.87795 13.0462 10.8058 13.0462C11.7337 13.0462 12.4481 13.7631 12.4888 14.6579C12.5091 13.669 12.9057 12.7716 13.5463 12.1055C12.8549 11.3861 11.8837 10.9336 10.8084 10.9336Z" fill="#FF436C"/>
<path d="M16.2848 10.9336C15.2095 10.9336 14.2384 11.3861 13.5469 12.1055C14.185 12.7716 14.5841 13.669 14.6044 14.6579C14.6426 13.7631 15.3823 13.0462 16.2874 13.0462C17.1924 13.0462 17.9296 13.7631 17.9703 14.6579C17.9906 13.669 18.3872 12.7716 19.0278 12.1055C18.3364 11.3836 17.3652 10.9336 16.2899 10.9336H16.2848Z" fill="#FF8C2E"/>
<path d="M12.4895 14.6578C12.4895 14.6833 12.492 14.7061 12.492 14.7316V15.7891H14.5969V14.7316C14.5969 14.7061 14.5995 14.6833 14.5995 14.6578C14.5791 13.6689 14.1826 12.7715 13.5419 12.1055C12.9038 12.7715 12.5047 13.6689 12.4844 14.6578H12.4895Z" fill="#EA3F2B"/>
<path d="M21.7614 10.9336C20.686 10.9336 19.7149 11.3861 19.0234 12.1055C19.6615 12.7716 20.0607 13.669 20.0784 14.6579C20.1166 13.7631 20.8564 13.0462 21.7614 13.0462C22.6664 13.0462 23.4469 13.8037 23.4469 14.7316C23.4469 13.7148 23.8511 12.7919 24.5019 12.1106C23.8104 11.3861 22.8367 10.9336 21.7588 10.9336H21.7614Z" fill="#FCD517"/>
<path d="M17.9713 14.6578C17.9713 14.6833 17.9738 14.7061 17.9738 14.7316V15.7891H20.0788V14.7316C20.0788 14.7061 20.0813 14.6833 20.0813 14.6578C20.061 13.6689 19.6644 12.7715 19.0263 12.1055C18.3882 12.7715 17.9891 13.6689 17.9688 14.6578H17.9713Z" fill="#EC7C30"/>
<path d="M29.999 12.1157C29.3075 11.3886 28.3313 10.9336 27.2508 10.9336C26.1704 10.9336 25.2018 11.3861 24.5078 12.1106C25.1612 12.7919 25.5654 13.7148 25.5654 14.7316C25.5654 13.8012 26.3229 13.0462 27.2508 13.0462C28.1787 13.0462 28.9363 13.8037 28.9363 14.7316V15.7892H28.9465V14.7316C28.9465 13.7173 29.3481 12.797 29.9964 12.1157H29.999Z" fill="#0BD38B"/>
<path d="M23.4531 14.7304V15.7879H25.5657V14.7304C25.5657 13.7135 25.1615 12.7907 24.5081 12.1094C23.8548 12.7907 23.4531 13.7135 23.4531 14.7304Z" fill="#51AD36"/>
<path d="M32.7481 10.9336C31.6677 10.9336 30.6915 11.3886 30 12.1157C30.6483 12.797 31.0499 13.7173 31.0499 14.7316V15.7892H31.0601V14.7316C31.0601 13.8012 31.8177 13.0462 32.7456 13.0462C33.6735 13.0462 34.3878 13.7631 34.4285 14.6579C34.4488 13.669 34.8454 12.7716 35.4861 12.1055C34.7946 11.3836 33.8235 10.9336 32.7481 10.9336Z" fill="#2D5EE8"/>
<path d="M29.9952 12.1172C29.347 12.7985 28.9453 13.7188 28.9453 14.7331V15.7907H31.0477V14.7331C31.0477 13.7188 30.646 12.7985 29.9978 12.1172H29.9952Z" fill="#2856BC"/>
<path d="M34.4244 14.6578C34.4244 14.6833 34.427 14.7061 34.427 14.7316V15.7891H36.5319V14.7316C36.5319 14.7061 36.5344 14.6807 36.5344 14.6578C36.5141 13.6689 36.1175 12.7715 35.4794 12.1055C34.8413 12.7715 34.4422 13.6689 34.4219 14.6578H34.4244Z" fill="#804ABA"/>
<path d="M39.8315 11.2946C39.3434 11.0632 38.7969 10.9336 38.2223 10.9336C37.147 10.9336 36.1759 11.3861 35.4844 12.1055C36.1225 12.7716 36.5216 13.669 36.5394 14.6579C36.5775 13.7631 37.3173 13.0462 38.2223 13.0462C38.4816 13.0462 38.7231 13.1072 38.9443 13.2114C38.9443 12.4437 39.2926 11.7573 39.8341 11.2946H39.8315Z" fill="#AC63E5"/>
<path d="M41.4812 14.7397C42.3208 14.7397 43.0014 14.0591 43.0014 13.2195C43.0014 12.3798 42.3208 11.6992 41.4812 11.6992C40.6416 11.6992 39.9609 12.3798 39.9609 13.2195C39.9609 14.0591 40.6416 14.7397 41.4812 14.7397Z" fill="#AC63E5"/>
</g>
<defs>
<clipPath id="clip0_2186_17665">
<rect width="36" height="28.1319" fill="white" transform="translate(7 10.9336)"/>
</clipPath>
</defs>
</svg>
