<svg width="376" height="190" viewBox="0 0 376 190" fill="none" xmlns="http://www.w3.org/2000/svg">
<rect width="376" height="190" fill="white"/>
<g clip-path="url(#clip0_2322_16906)">
<path d="M187.411 106.789C174.131 106.789 173.721 127.009 187.411 127.009C201.101 127.009 200.691 106.789 187.411 106.789ZM187.411 124.339C177.631 124.169 177.631 109.629 187.411 109.449C197.191 109.629 197.191 124.159 187.411 124.339Z" fill="black"/>
<path d="M219.366 79.4219C218.606 79.4219 217.986 80.0419 217.986 80.8019V90.8819C216.406 88.9019 213.976 87.4919 210.626 87.4919C203.986 87.4919 200.566 92.5419 200.516 97.6019C200.566 102.652 203.986 107.712 210.626 107.712C213.976 107.712 216.406 106.302 217.986 104.322V106.002C217.986 106.762 218.606 107.382 219.366 107.382C220.126 107.382 220.746 106.762 220.746 106.002V80.8119C220.746 80.0519 220.126 79.4319 219.366 79.4319V79.4219ZM210.616 105.052C205.726 104.962 203.276 101.282 203.276 97.6119C203.276 93.9319 205.726 90.2519 210.616 90.1719C215.506 90.2619 217.956 93.9419 217.956 97.6119C217.956 101.292 215.506 104.972 210.616 105.052Z" fill="black"/>
<path d="M246.533 64.33C245.763 64.33 245.143 64.95 245.143 65.72V67.36C243.563 65.39 241.143 64 237.813 64C231.173 64 227.753 69.05 227.703 74.11C227.753 79.16 231.173 84.22 237.813 84.22C241.143 84.22 243.563 82.83 245.153 80.86V82.53C245.153 83.3 245.773 83.92 246.543 83.92C247.313 83.92 247.933 83.3 247.933 82.53V65.72C247.933 64.95 247.313 64.33 246.543 64.33H246.533ZM237.813 81.55C232.923 81.46 230.473 77.78 230.473 74.11C230.473 70.43 232.923 66.75 237.813 66.67C242.703 66.76 245.153 70.44 245.153 74.11C245.153 77.79 242.703 81.47 237.813 81.55Z" fill="black"/>
<path d="M156.562 107.08C152.332 107.08 149.412 109.13 147.842 111.92C146.262 109.13 143.342 107.08 139.112 107.08C136.052 107.08 133.402 108.4 131.772 110.62V108.93C131.772 108.16 131.152 107.54 130.382 107.54C129.612 107.54 128.992 108.16 128.992 108.93V125.62C128.992 126.39 129.612 127.01 130.382 127.01C131.152 127.01 131.772 126.39 131.772 125.62C131.822 124 131.652 117.31 131.902 114.91C131.982 114.41 132.092 114.07 132.152 113.89C133.212 111.41 135.672 109.85 139.112 109.74C144.002 109.83 146.452 113.5 146.452 117.18V125.61C146.452 126.38 147.072 127 147.842 127C148.612 127 149.232 126.38 149.232 125.61V117.18C149.232 113.5 151.682 109.83 156.572 109.74C159.752 109.74 161.832 111.25 162.942 113.28C163.572 114.52 163.892 116.11 163.912 118.04V120.05V125.61C163.912 126.38 164.532 127 165.302 127C166.072 127 166.692 126.38 166.692 125.61V117.18C166.692 111.26 162.822 107.18 156.572 107.07L156.562 107.08Z" fill="black"/>
</g>
<defs>
<clipPath id="clip0_2322_16906">
<rect width="118.92" height="63" fill="white" transform="translate(129 64)"/>
</clipPath>
</defs>
</svg>
