<?xml version="1.0" encoding="UTF-8"?>
<svg id="_圖層_1" data-name="圖層 1" xmlns="http://www.w3.org/2000/svg" viewBox="0 0 50 50">
  <defs>
    <style>
      .cls-1 {
        fill: #3d3939;
      }
    </style>
  </defs>
  <path class="cls-1" d="M44.74,28.61c-.37,2.05-1.09,3.98-2.05,5.73-1.3,2.34-3.04,4.41-5.1,6-.8.61-1.65,1.18-2.55,1.67-2.36.82-7.29,1.27-9.46-.99-1.51-1.55-.94-3.58-.45-4.39.73-.8,1.13-1.91,1.01-3.09-.21-2.19-2.19-3.8-4.39-3.56-2.19.21-3.7,2.31-3.66,4.91.05,2.22.87,4.41,2.57,6.11,1.42,1.63,3.33,2.81,5.57,3.3-3.21-.21-8.68-1.91-9.16-9.77-.12-2.03,1.79-5.92,4.65-7.58.05,0,.07-.03.14-.09,2.06-.78,3.12-3,2.39-4.93-.73-1.96-3-2.92-5.04-2.15-.33.12-.57.28-.97.48-.94.49-2.62,1.91-3.7,3.24-2.29,2.85-3.21,6.32-2.85,9.65.37,3.33,2.03,6.49,4.91,8.71.76.59,1.54,1.06,2.36,1.46-.85-.31-1.7-.69-2.5-1.11-.31-.21-.54-.37-.76-.54-7.22-5.83-6.58-17.08.71-22.03,1.79-1.22,5.47-3.16,9.37-2.31.97.4,2.05.42,3.09.05,2.22-.82,3.33-3.3,2.48-5.52-.61-1.63-1.89-2.43-2.88-2.64-3.16-.69-6.56-.42-9.82.8-4.63,1.75-8.09,5.19-9.98,9.37-1.89,4.18-2.17,9.06-.45,13.68.85,2.27,2.12,4.25,3.68,5.92-.64-.61-1.21-1.25-1.75-1.94-1.15-1.49-2.1-3.12-2.79-4.86-.31-.78-.59-1.67-.85-2.69-.19-.82-.33-1.77-.45-2.79-.07-1.09-.09-1.98-.05-2.85.07-1.06.19-1.98.37-2.81.37-1.82,1.04-3.61,1.94-5.26,1.75-3.28,4.43-6.04,7.62-7.83.19-.12.37-.21.57-.31l.59-.31c.12-.05.24-.09.36-.16.31-.14.57-.26.88-.37.7-.28,1.46-.54,2.48-.8l.31-.07c.33-.07.64-.14.94-.19.07-.03.16-.03.24-.05.12-.03.26-.05.37-.07l.94-.12.97-.07h.4c.28,0,.57-.03.85,0,1.67.03,3.28.26,4.77.66,1.46.4,2.88.94,4.2,1.65,2.28,1.22,4.39,2.97,6.04,5.05,1.27,1.55,2.27,3.35,3,5.31.48,1.25.8,2.5,1.01,3.82.05.31.09.57.09.78,0,.09.03.19.03.26l.05.36.03.33c0,.07,0,.16.03.26.03.21.03.48.03.8.02,1.3-.1,2.57-.34,3.9M46.23,24.7c0-.36-.03-.64-.03-.87,0-.09,0-.16-.03-.24l-.03-.37-.49.03.49-.05-.05-.37c0-.07-.03-.14-.03-.24-.03-.24-.05-.52-.12-.85-.21-1.39-.54-2.71-1.04-4.03-.28-.8-.69-1.7-1.22-2.71-.53-1.01-1.18-2-1.91-2.95-1.7-2.19-3.89-4.1-6.34-5.49-1.39-.8-2.9-1.44-4.46-1.89-1.61-.48-3.33-.76-5.12-.85-.31-.03-.61-.03-.94-.03h-.4l-1.04.05-1.01.09c-.16.03-.31.05-.48.07l-.19.03c-.36.05-.73.12-1.06.19l-.33.07c-1.11.26-1.98.52-2.73.8-.36.12-.66.26-.99.4-.12.05-.24.09-.36.14l-.66.31c-.21.09-.45.21-.66.33-1.74.92-3.36,2.1-4.82,3.51-1.46,1.42-2.71,3.07-3.73,4.88-2.05,3.61-2.97,7.92-2.62,12.15.37,4.22,2,8.33,4.62,11.53,1.32,1.63,2.83,3.02,4.51,4.18,1.67,1.15,3.49,2.03,5.33,2.64.24.09.49.16.7.24l.69.19h.03c.12.03.26.05.37.09.33.07.69.16,1.01.21.82.16,1.72.26,2.85.33h.31c.36,0,.73.03,1.09,0h.24c.16,0,.31,0,.48-.03l.66-.05c.07,0,.14,0,.21-.03.24-.03.48-.05.69-.07.14-.03.31-.05.45-.05h.05c.12-.03.26-.05.37-.07.31-.05.61-.09.92-.16,1.77-.37,3.42-.97,4.91-1.7,1.44-.7,2.81-1.61,4.06-2.62,2.19-1.79,4.01-4.06,5.31-6.49.54-1.04,1.01-2.12,1.39-3.24.36-1.11.61-2.05.76-2.88.29-1.41.41-2.78.38-4.14"/>
</svg>