<svg id="圖層_1" data-name="圖層 1" xmlns="http://www.w3.org/2000/svg" width="246" height="246" viewBox="0 0 246 246">
  <defs>
    <style>
      .cls-1 {
        fill: #fff;
      }
    </style>
  </defs>
  <g>
    <path class="cls-1" d="M191.87,101.38a4,4,0,0,0-4,4v35a4,4,0,0,0,8,0v-35A4,4,0,0,0,191.87,101.38Z"/>
    <path class="cls-1" d="M163,119.13l10.92-10.92a4,4,0,1,0-5.66-5.66l-18.69,18.69V105.38a4,4,0,0,0-8,0v35a4,4,0,0,0,8,0v-7.8l7.69-7.69,12.61,18a4,4,0,0,0,3.28,1.71,4.05,4.05,0,0,0,2.29-.72,4,4,0,0,0,1-5.57Z"/>
    <path class="cls-1" d="M119.21,102.48H104a2.92,2.92,0,0,0-1.74.59,4,4,0,0,0-2.26,3.59v33.7a4,4,0,0,0,8,0V127.05h11.17A11.77,11.77,0,0,0,131,115.29v-1.05A11.77,11.77,0,0,0,119.21,102.48Zm4,12.81a6,6,0,0,1-6,6H108v-13h9.17a6,6,0,0,1,6,5.95Z"/>
    <path class="cls-1" d="M85.09,120.77H73.9a3.89,3.89,0,1,0,0,7.78h7.29v4.57a25.61,25.61,0,0,1-12.38,2.81c-6.52,0-10.9-5.23-10.9-13,0-9.12,4.34-13.75,12.89-13.75,7.85,0,9,3.25,9.41,4.1a4.38,4.38,0,0,0,4.86,2.63,3.39,3.39,0,0,0,2.75-4.26c-.79-3.88-5.37-10.26-17-10.26-12.95,0-20.67,8.05-20.67,21.54,0,12,7.85,20.79,18.68,20.79,12.09,0,18.51-5.28,18.78-5.51a3.89,3.89,0,0,0,1.39-3V124.66A3.89,3.89,0,0,0,85.09,120.77Z"/>
  </g>
</svg>
