<?xml version="1.0" encoding="UTF-8"?>
<svg id="_圖層_1" data-name="圖層 1" xmlns="http://www.w3.org/2000/svg" width="37" height="36" viewBox="0 0 37 36">
  <defs>
    <style>
      .cls-1 {
        fill: #6364a2;
      }
    </style>
  </defs>
  <path class="cls-1" d="m22.4,27.37h-7.77c-4.09,0-7.42-3.33-7.42-7.42s3.33-7.42,7.42-7.42h7.77c4.09,0,7.42,3.33,7.42,7.42s-3.33,7.42-7.42,7.42Zm-7.77-13.4c-3.3,0-5.98,2.68-5.98,5.98s2.68,5.98,5.98,5.98h7.77c3.3,0,5.98-2.68,5.98-5.98s-2.68-5.98-5.98-5.98h-7.77Z"/>
  <g>
    <path class="cls-1" d="m18.52,23.24c-1.23,0-2.3-.37-2.86-.98-.27-.29-.25-.75.05-1.02.29-.27.75-.25,1.02.05.23.25.93.51,1.8.51s1.57-.26,1.8-.51c.27-.29.72-.31,1.02-.05.29.27.31.72.05,1.02-.56.61-1.63.98-2.86.98Z"/>
    <path class="cls-1" d="m13.6,20.93c-1.18,0-2.14-.96-2.14-2.14s.96-2.14,2.14-2.14,2.14.96,2.14,2.14-.96,2.14-2.14,2.14Zm0-2.83c-.38,0-.7.31-.7.7s.31.7.7.7.7-.31.7-.7-.31-.7-.7-.7Z"/>
    <path class="cls-1" d="m23.43,20.93c-1.18,0-2.14-.96-2.14-2.14s.96-2.14,2.14-2.14,2.14.96,2.14,2.14-.96,2.14-2.14,2.14Zm0-2.83c-.38,0-.7.31-.7.7s.31.7.7.7.7-.31.7-.7-.31-.7-.7-.7Z"/>
  </g>
  <path class="cls-1" d="m18.52,6.53c-1.8,0-3.26-1.46-3.26-3.26s1.46-3.26,3.26-3.26,3.27,1.46,3.27,3.26-1.46,3.26-3.27,3.26Zm0-5.09c-1.01,0-1.82.82-1.82,1.82s.82,1.82,1.82,1.82,1.83-.82,1.83-1.82-.82-1.82-1.83-1.82Z"/>
  <path class="cls-1" d="m9.9,36c-.1,0-.19-.02-.29-.06-.26-.11-.43-.37-.43-.66v-4.97c-2.67-.27-4.77-2.53-4.77-5.28v-10.15c0-2.93,2.38-5.31,5.31-5.31h17.61c2.92,0,5.31,2.38,5.31,5.31v10.15c0,2.93-2.38,5.31-5.31,5.31h-11.06l-5.87,5.47c-.14.13-.31.19-.49.19Zm-.18-24.99c-2.13,0-3.87,1.73-3.87,3.87v10.15c0,2.13,1.73,3.87,3.87,3.87h.18c.4,0,.72.32.72.72v4.01l4.87-4.54c.13-.12.31-.19.49-.19h11.35c2.13,0,3.87-1.73,3.87-3.87v-10.15c0-2.13-1.73-3.87-3.87-3.87H9.71Z"/>
  <rect class="cls-1" x="17.76" y="5.81" width="1.44" height="4.44"/>
  <path class="cls-1" d="m34.77,25.58h-2.87c-.4,0-.72-.32-.72-.72v-9.31c0-.4.32-.72.72-.72h2.87c.4,0,.72.32.72.72v9.31c0,.4-.32.72-.72.72Zm-2.15-1.44h1.42v-7.87h-1.42v7.87Z"/>
  <path class="cls-1" d="m5.09,25.58h-2.86c-.4,0-.72-.32-.72-.72v-9.31c0-.4.32-.72.72-.72h2.86c.4,0,.72.32.72.72v9.31c0,.4-.32.72-.72.72Zm-2.14-1.44h1.42v-7.87h-1.42v7.87Z"/>
</svg>