<svg width="117" height="47" viewBox="0 0 117 47" fill="none" xmlns="http://www.w3.org/2000/svg">
<path d="M0.727469 46.8883V42.2453C5.2328 38.2455 8.99414 34.5962 12.0115 31.2974C15.0288 27.9574 17.2815 24.8647 18.7695 22.0195C20.2988 19.1743 21.0635 16.5146 21.0635 14.0405C21.0635 12.3911 20.7741 10.9479 20.1955 9.71086C19.6581 8.43257 18.8108 7.46355 17.6535 6.80379C16.5375 6.10279 15.1115 5.7523 13.3755 5.7523C11.5981 5.7523 9.96547 6.24712 8.47747 7.23676C6.98947 8.18516 5.62547 9.36036 4.38547 10.7624L0.355469 6.80379C2.29814 4.65956 4.34414 2.98954 6.49347 1.79373C8.68414 0.597909 11.2881 0 14.3055 0C17.0748 0 19.4928 0.577291 21.5595 1.73187C23.6261 2.84522 25.2175 4.43277 26.3335 6.49452C27.4908 8.51504 28.0695 10.9067 28.0695 13.6694C28.0695 16.5971 27.3461 19.566 25.8995 22.5762C24.4528 25.5451 22.4688 28.5553 19.9475 31.6067C17.4261 34.6168 14.5535 37.6682 11.3295 40.7609C12.5281 40.6372 13.7888 40.5341 15.1115 40.4516C16.4755 40.3279 17.6948 40.266 18.7695 40.266H30.2395V46.8883H0.727469Z" fill="#CD436A"/>
<path d="M48.4123 16.0782H79.5883V19.526H48.4123V16.0782ZM65.9443 27.2117L68.5363 25.0209C69.5683 25.7152 70.6483 26.4694 71.7763 27.2835C72.9283 28.0975 74.0683 28.9475 75.1963 29.8334C76.3243 30.6954 77.3683 31.5453 78.3283 32.3833C79.3123 33.2213 80.1283 33.9875 80.7763 34.6819L77.9323 37.3036C77.3323 36.5853 76.5643 35.8072 75.6283 34.9692C74.6923 34.1072 73.6723 33.2213 72.5683 32.3115C71.4883 31.4017 70.3723 30.5158 69.2203 29.6538C68.0923 28.768 67.0003 27.9539 65.9443 27.2117ZM64.9363 17.2993L68.6803 18.664C67.3363 21.1302 65.7043 23.5484 63.7843 25.9187C61.8883 28.2891 59.7523 30.4799 57.3763 32.4911C55.0243 34.4783 52.4803 36.1903 49.7443 37.6268C49.5763 37.3395 49.3483 37.0163 49.0603 36.6572C48.7723 36.2741 48.4843 35.9029 48.1963 35.5438C47.9323 35.1607 47.6683 34.8495 47.4043 34.61C49.3723 33.6523 51.2323 32.527 52.9843 31.2341C54.7363 29.9412 56.3683 28.5405 57.8803 27.0321C59.4163 25.4997 60.7723 23.9075 61.9483 22.2555C63.1483 20.6034 64.1443 18.9513 64.9363 17.2993ZM62.1283 25.1286L65.8363 21.4654V46.8568H62.1283V25.1286Z" fill="#CD436A"/>
<path d="M84.0883 29.2229H115.984V32.2397H84.0883V29.2229ZM100.144 35.6515H113.644V38.6324H100.144V35.6515ZM98.6323 30.6594H102.052V44.1274H98.6323V30.6594ZM92.2243 36.4417C92.9203 38.3092 93.8923 39.7218 95.1403 40.6796C96.3883 41.6373 97.9003 42.2837 99.6763 42.6189C101.452 42.9302 103.468 43.0858 105.724 43.0858C106.06 43.0858 106.576 43.0858 107.272 43.0858C107.992 43.0858 108.796 43.0858 109.684 43.0858C110.596 43.0858 111.508 43.0858 112.42 43.0858C113.356 43.0858 114.208 43.0858 114.976 43.0858C115.768 43.0619 116.38 43.0499 116.812 43.0499C116.644 43.2893 116.476 43.6006 116.308 43.9837C116.164 44.3907 116.032 44.7978 115.912 45.2048C115.792 45.6118 115.696 45.971 115.624 46.2822H105.544C103.456 46.2822 101.572 46.1625 99.8923 45.9231C98.2123 45.6836 96.7123 45.2407 95.3923 44.5942C94.0963 43.9717 92.9443 43.0858 91.9363 41.9366C90.9523 40.7873 90.1003 39.2909 89.3803 37.4473L92.2243 36.4417ZM89.9923 33.2094L93.3763 33.7122C92.8003 36.6811 91.8643 39.2789 90.5683 41.5056C89.2723 43.7323 87.6283 45.5639 85.6363 47.0005C85.4683 46.7611 85.2283 46.4857 84.9163 46.1745C84.6283 45.8872 84.3043 45.5879 83.9443 45.2766C83.6083 44.9893 83.3203 44.7618 83.0803 44.5942C84.9523 43.421 86.4523 41.8647 87.5803 39.9254C88.7323 37.986 89.5363 35.7473 89.9923 33.2094ZM91.0003 22.1836V24.6258H108.784V22.1836H91.0003ZM91.0003 17.4429V19.8492H108.784V17.4429H91.0003ZM87.6883 14.9648H112.24V27.1398H87.6883V14.9648Z" fill="#CD436A"/>
</svg>
