<svg width="65" height="48" fill="none" xmlns="http://www.w3.org/2000/svg"><path d="M18.688 6.658c0 3.133-2.641 5.659-5.688 5.659-3.148 0-5.688-2.526-5.688-5.659C7.313 3.628 9.852 1 13 1c3.047 0 5.688 2.627 5.688 5.658zM6.5 22.623a6.306 6.306 0 00-1.625 4.244c0 1.718.61 3.234 1.625 4.345v-8.588zm14.625-4.95c-3.047 2.627-4.875 6.567-4.875 10.81 0 3.537 1.219 6.669 3.25 9.195V39.8c0 1.819-1.523 3.233-3.25 3.233h-6.5c-1.828 0-3.25-1.414-3.25-3.233v-2.627A11.37 11.37 0 010 26.867C0 20.704 5.078 15.55 11.375 15.55h3.25c2.438 0 4.672.809 6.5 2.122zM45.5 39.8v-2.122c2.031-2.526 3.25-5.658 3.25-9.195 0-4.244-1.93-8.185-4.977-10.812a11.419 11.419 0 016.602-2.122h3.25C59.82 15.55 65 20.704 65 26.867c0 4.547-2.742 8.488-6.5 10.307V39.8c0 1.819-1.523 3.233-3.25 3.233h-6.5c-1.828 0-3.25-1.414-3.25-3.233zM57.688 6.658c0 3.133-2.641 5.659-5.688 5.659-3.148 0-5.688-2.526-5.688-5.659C46.313 3.628 48.852 1 52 1c3.047 0 5.688 2.627 5.688 5.658zm.812 15.965v8.59a6.307 6.307 0 001.625-4.245c0-1.717-.61-3.233-1.625-4.345zm-26-8.69c-3.656 0-6.5-2.829-6.5-6.466A6.463 6.463 0 0132.5 1C36.055 1 39 3.93 39 7.467c0 3.637-2.945 6.467-6.5 6.467zm-8.125 14.551c0 1.718.61 3.132 1.625 4.345V24.24a6.306 6.306 0 00-1.625 4.244zM39 24.24v8.589a6.307 6.307 0 001.625-4.244c0-1.718-.61-3.233-1.625-4.345zm6.5 4.244c0 4.547-2.742 8.488-6.5 10.307v4.243c0 1.82-1.523 3.234-3.25 3.234h-6.5c-1.828 0-3.25-1.415-3.25-3.234v-4.243a11.369 11.369 0 01-6.5-10.307c0-6.164 5.078-11.317 11.375-11.317h3.25c6.195 0 11.375 5.153 11.375 11.317z" fill="#fff" fill-opacity=".5"/></svg>