<svg id="圖層_1" data-name="圖層 1" xmlns="http://www.w3.org/2000/svg" width="246" height="246" viewBox="0 0 246 246">
  <defs>
    <style>
      .cls-1 {
        fill: #fff;
      }
    </style>
  </defs>
  <g>
    <path class="cls-1" d="M150.72,92.06a1.5,1.5,0,0,1-1.1-.47,40.41,40.41,0,0,0-58.15-.33,1.52,1.52,0,1,1-2.17-2.12,43.43,43.43,0,0,1,62.51.35,1.52,1.52,0,0,1-.05,2.15A1.5,1.5,0,0,1,150.72,92.06Z"/>
    <path class="cls-1" d="M142.87,99.91a1.51,1.51,0,0,1-1.11-.48,29.43,29.43,0,0,0-21.37-9.27,29.07,29.07,0,0,0-21.06,9A1.52,1.52,0,0,1,97.14,97a32.11,32.11,0,0,1,23.25-9.87A32.46,32.46,0,0,1,144,97.35a1.51,1.51,0,0,1-1.1,2.56Z"/>
    <path class="cls-1" d="M135,107.75a1.53,1.53,0,0,1-1.13-.5,18.25,18.25,0,0,0-13.51-6,18.06,18.06,0,0,0-13.22,5.69,1.52,1.52,0,1,1-2.2-2.09,21.07,21.07,0,0,1,15.42-6.64,21.35,21.35,0,0,1,15.77,7,1.52,1.52,0,0,1-1.13,2.54Z"/>
    <path class="cls-1" d="M169.4,154.14H71.69a18,18,0,0,1,0-35.92H169.4a18,18,0,1,1,0,35.92ZM71.69,121.26a14.92,14.92,0,0,0,0,29.84H169.4a14.92,14.92,0,1,0,0-29.84Z"/>
    <g>
      <path class="cls-1" d="M91.43,141.54H89.61l-1-2.77H84.36l-1,2.77H81.6l4-10.64h1.83Zm-3.27-4.14-1.49-4.19a4.67,4.67,0,0,1-.16-.81h-.05a4.12,4.12,0,0,1-.17.79l-1.48,4.21Z"/>
      <path class="cls-1" d="M94.33,140.52V145H92.72v-11.1h1.61v1.27h0a2.8,2.8,0,0,1,2.55-1.45,2.77,2.77,0,0,1,2.28,1,4.15,4.15,0,0,1,.83,2.74,4.63,4.63,0,0,1-.94,3,3.06,3.06,0,0,1-2.52,1.15,2.45,2.45,0,0,1-2.2-1.2Zm0-2.18a2.13,2.13,0,0,0,.55,1.49,1.93,1.93,0,0,0,2.95-.18,3.58,3.58,0,0,0,.56-2.14,2.79,2.79,0,0,0-.52-1.81,1.73,1.73,0,0,0-1.44-.64,1.9,1.9,0,0,0-1.51.67,2.49,2.49,0,0,0-.59,1.7Z"/>
      <path class="cls-1" d="M103.44,140.52V145h-1.62v-11.1h1.62v1.27h0a2.8,2.8,0,0,1,2.55-1.45,2.77,2.77,0,0,1,2.28,1,4.15,4.15,0,0,1,.84,2.74,4.69,4.69,0,0,1-.94,3,3.09,3.09,0,0,1-2.53,1.15,2.45,2.45,0,0,1-2.2-1.2Zm0-2.18a2.13,2.13,0,0,0,.55,1.49,1.93,1.93,0,0,0,3-.18,3.51,3.51,0,0,0,.56-2.14,2.85,2.85,0,0,0-.51-1.81,1.76,1.76,0,0,0-1.45-.64,1.9,1.9,0,0,0-1.51.67,2.49,2.49,0,0,0-.59,1.7Z"/>
      <path class="cls-1" d="M110.91,141.54V130.29h1.61v11.25Z"/>
      <path class="cls-1" d="M114.62,131.33a.91.91,0,0,1,.28-.67,1,1,0,0,1,.71-.26,1.05,1.05,0,0,1,.71.26.88.88,0,0,1,.28.67.86.86,0,0,1-.28.67,1,1,0,0,1-.71.27,1,1,0,0,1-.7-.27A.88.88,0,0,1,114.62,131.33Zm.16,10.21v-7.6h1.62v7.6Z"/>
      <path class="cls-1" d="M124.06,141.22a4.2,4.2,0,0,1-2.15.5,3.62,3.62,0,0,1-2.7-1.05,3.79,3.79,0,0,1-1-2.75,4.13,4.13,0,0,1,1.11-3,4,4,0,0,1,2.95-1.13,4,4,0,0,1,1.83.37v1.51a2.94,2.94,0,0,0-1.75-.58,2.32,2.32,0,0,0-1.8.74,2.79,2.79,0,0,0-.7,2,2.69,2.69,0,0,0,.66,1.93,2.32,2.32,0,0,0,1.76.7,3.08,3.08,0,0,0,1.82-.62Z"/>
      <path class="cls-1" d="M126,134.45a5.18,5.18,0,0,1,2.69-.69c1.92,0,2.88,1,2.88,3v4.8H130v-1.15h0a2.53,2.53,0,0,1-2.31,1.33,2.42,2.42,0,0,1-1.76-.61,2.11,2.11,0,0,1-.65-1.62c0-1.43.85-2.27,2.55-2.5l2.21-.31c0-1.13-.5-1.69-1.49-1.69a4,4,0,0,0-2.52.88ZM128.3,138a2.07,2.07,0,0,0-1.16.42,1.14,1.14,0,0,0-.34.9,1,1,0,0,0,.36.82,1.32,1.32,0,0,0,.93.33,1.79,1.79,0,0,0,1.35-.58,2,2,0,0,0,.54-1.44v-.68Z"/>
      <path class="cls-1" d="M137.57,141.46a2.59,2.59,0,0,1-1.28.25c-1.44,0-2.16-.78-2.16-2.35v-4.14h-1.29v-1.28h1.29v-1.78l1.6-.48v2.26h1.84v1.28h-1.84v3.86a1.69,1.69,0,0,0,.25,1,1,1,0,0,0,.81.32,1.27,1.27,0,0,0,.78-.25Z"/>
      <path class="cls-1" d="M138.92,131.33a.88.88,0,0,1,.28-.67,1,1,0,0,1,.7-.26,1,1,0,0,1,.71.26.88.88,0,0,1,.29.67.87.87,0,0,1-.29.67,1,1,0,0,1-.71.27,1,1,0,0,1-.7-.27A.88.88,0,0,1,138.92,131.33Zm.16,10.21v-7.6h1.61v7.6Z"/>
      <path class="cls-1" d="M142.48,137.81a4,4,0,0,1,1.07-3,3.91,3.91,0,0,1,2.91-1.09,3.62,3.62,0,0,1,2.74,1.05,4,4,0,0,1,1,2.88,4,4,0,0,1-1.06,2.93,3.79,3.79,0,0,1-2.84,1.1,3.71,3.71,0,0,1-2.79-1.07A3.89,3.89,0,0,1,142.48,137.81Zm1.64,0a2.87,2.87,0,0,0,.61,1.95,2.09,2.09,0,0,0,1.65.7q2.19,0,2.19-2.7a3.08,3.08,0,0,0-.56-2,2,2,0,0,0-1.63-.68,2,2,0,0,0-1.66.72A3.06,3.06,0,0,0,144.12,137.78Z"/>
      <path class="cls-1" d="M158.68,141.54h-1.61v-4.29c0-1.46-.53-2.19-1.6-2.19a1.68,1.68,0,0,0-1.32.6,2.29,2.29,0,0,0-.53,1.54v4.34H152v-7.6h1.61v1.25h0a2.73,2.73,0,0,1,2.48-1.43c1.7,0,2.55,1.05,2.55,3.14Z"/>
    </g>
    <g>
      <polygon class="cls-1" points="166.42 136.8 165.38 168.44 175.68 157.44 190.75 157.06 166.42 136.8"/>
      <path class="cls-1" d="M165.38,170a1.62,1.62,0,0,1-.58-.11,1.53,1.53,0,0,1-.94-1.46l1-31.64a1.53,1.53,0,0,1,2.49-1.12l24.33,20.26a1.52,1.52,0,0,1-.93,2.69l-14.44.36-9.86,10.54A1.55,1.55,0,0,1,165.38,170Zm2.46-30L167,164.45l7.54-8a1.5,1.5,0,0,1,1.07-.48l11-.28Z"/>
    </g>
  </g>
</svg>
