<?xml version="1.0" encoding="UTF-8"?>
<svg id="_層_1" data-name="圖層 1" xmlns="http://www.w3.org/2000/svg" width="56" height="56" viewBox="0 0 56 56">
  <defs>
    <style>
      .cls-1 {
        fill: #fff;
      }
    </style>
  </defs>
  <g>
    <path class="cls-1" d="M29.93,25.97c-.34-.32-.67-.65-.97-1l-2.17,1.29c.21,.26,.42,.51,.65,.75,.31,.33,.64,.64,.98,.94,.53,.47,1.1,.91,1.69,1.3,.24,.16,.49,.3,.74,.44,1.11-.53,2.28-.93,3.49-1.18-1.63-.51-3.14-1.38-4.4-2.54h0Z"/>
    <path d="M28.96,24.97c.31,.35,.63,.68,.97,1h0c1.26,1.16,2.76,2.03,4.4,2.54-1.21,.25-2.38,.65-3.49,1.18-.25-.14-.5-.28-.74-.44-.59-.39-1.16-.83-1.69-1.3-.34-.3-.67-.61-.98-.94-.22-.24-.44-.49-.65-.75l2.17-1.29m.4-2.53l-1.41,.84-2.17,1.29-1.93,1.15,1.4,1.76c.23,.29,.48,.58,.75,.87,.31,.34,.67,.68,1.11,1.07,.6,.53,1.24,1.03,1.91,1.47,.3,.19,.58,.35,.86,.51l.89,.5,.92-.44c.97-.46,1.99-.81,3.04-1.03l7.39-1.54-7.2-2.26c-1.35-.42-2.61-1.15-3.66-2.11l-.19-.18c-.22-.21-.43-.44-.63-.67l-1.08-1.23h0Z"/>
  </g>
  <g>
    <path class="cls-1" d="M24.4,22.11l2.17-1.3c-.07-.21-.14-.41-.2-.62-.09-.33-.16-.66-.23-.99-.18-.98-.25-1.98-.19-2.97,.02-.33,.05-.65,.1-.98,.18-1.29,.56-2.54,1.12-3.71,1-2.08,2.57-3.83,4.54-5.04h0c.27-.16,.54-.31,.8-.45l.27-.12c.19-.09,.37-.17,.54-.26l.31-.12c.18-.07,.37-.13,.54-.2l.31-.1c.2-.06,.4-.11,.61-.16l.26-.07c.29-.06,.58-.11,.87-.15h.08c.27-.03,.54-.06,.8-.07h.84c.23,0,.46,0,.69,.03h.35c.31,.03,.62,.08,.94,.14h.09c.34,.07,.68,.15,1.02,.24l.3,.1c.23,.07,.46,.15,.69,.23l.36,.15c.21,.09,.41,.18,.61,.28s.24,.12,.36,.19c.2,.1,.39,.22,.59,.33,.11,.07,.23,.14,.34,.22,.21,.13,.4,.28,.6,.42l.28,.21c.28,.23,.54,.47,.82,.72,.06,.06,.13,.11,.2,.15l.07,.04s.1,.05,.15,.08h.09s.09,.03,.14,.04c.03,0,.07,0,.1,0h.27s.07,0,.1,0c.05-.01,.09-.02,.14-.04l.1-.03,.18-.08,.08-.04c.07-.04,.13-.09,.18-.15h0c.48-.5,.46-1.29-.03-1.77-.32-.31-.66-.6-1-.87-.11-.09-.23-.17-.34-.26-.23-.18-.47-.35-.72-.54l-.42-.26c-.23-.15-.47-.28-.7-.41-.15-.08-.3-.16-.45-.23-.24-.12-.49-.23-.74-.34l-.44-.18c-.28-.1-.54-.2-.83-.28-.12-.04-.25-.09-.37-.12-.41-.12-.82-.22-1.23-.3h-.1c-.38-.07-.76-.12-1.15-.16h-.42c-.28,0-.54-.04-.85-.04s-.45,0-.67,0h-.35c-.33,0-.65,.05-.98,.09h-.09c-.35,.05-.71,.11-1.06,.19l-.33,.08c-.24,.06-.49,.12-.73,.2l-.39,.12c-.22,.07-.45,.15-.67,.23l-.37,.15c-.23,.1-.46,.2-.69,.31l-.32,.15c-.33,.17-.66,.35-.97,.54h0c-.85,.52-1.63,1.13-2.35,1.81-3.95,3.76-5.52,9.39-4.09,14.66,.15,.45,.29,.88,.45,1.29Z"/>
    <path d="M37.74,2.28c.07,0,.16,0,.26,0,.3,0,.56,.04,.85,.04h.42c.39,.04,.77,.09,1.15,.16h.1c.41,.08,.83,.18,1.23,.3,.12,.03,.25,.08,.37,.12,.29,.09,.55,.18,.83,.28l.44,.18c.25,.11,.49,.22,.74,.34,.15,.07,.3,.15,.45,.23,.23,.12,.47,.26,.7,.41l.42,.26c.24,.19,.48,.36,.72,.54,.11,.09,.23,.16,.34,.26,.34,.27,.68,.56,1,.87,.49,.48,.51,1.27,.03,1.77-.05,.06-.11,.11-.18,.15l-.08,.04-.18,.08-.1,.03s-.09,.03-.14,.04c-.02,0-.03,0-.05,0s-.03,0-.05,0h-.27s-.03,0-.05,0-.03,0-.05,0c-.05,0-.1-.02-.14-.04h-.09c-.05-.02-.1-.05-.15-.08l-.07-.04c-.07-.04-.14-.09-.2-.15-.28-.26-.54-.49-.82-.72l-.28-.21c-.2-.15-.39-.29-.6-.42-.11-.08-.22-.15-.34-.22-.2-.11-.39-.23-.59-.33-.12-.07-.16-.09-.36-.19-.2-.1-.4-.19-.61-.28l-.36-.15c-.23-.09-.46-.16-.69-.23l-.3-.1c-.34-.09-.67-.17-1.02-.24h-.09c-.31-.06-.62-.1-.94-.14h-.35c-.23-.03-.46-.03-.69-.03h-.84c-.26,.01-.54,.04-.8,.07h-.08c-.29,.04-.58,.09-.87,.15l-.26,.07c-.21,.05-.41,.1-.61,.16l-.31,.1c-.18,.06-.36,.13-.54,.2l-.31,.12c-.17,.08-.35,.16-.54,.26l-.27,.12c-.26,.14-.54,.29-.8,.45-1.96,1.21-3.54,2.96-4.54,5.04-.56,1.17-.94,2.42-1.12,3.71-.04,.33-.08,.65-.1,.98-.06,.99,0,1.99,.19,2.97,.07,.33,.14,.66,.23,.99,.06,.21,.13,.42,.2,.62l-2.17,1.3c-.16-.41-.3-.85-.45-1.29-1.43-5.27,.14-10.9,4.09-14.66,.72-.69,1.51-1.29,2.35-1.81,.31-.2,.64-.37,.97-.54l.32-.15c.23-.11,.46-.21,.69-.31l.37-.15c.22-.08,.45-.16,.67-.23l.39-.12c.24-.07,.48-.14,.73-.2l.33-.08c.35-.08,.71-.14,1.06-.19h.09c.33-.04,.65-.09,.98-.09h.35c.15,0,.26,0,.41,0m0-1.97h-.76c-.41,0-.78,.05-1.11,.09h-.1l-.13,.02c-.38,.05-.77,.12-1.2,.22l-.36,.08c-.29,.07-.57,.15-.84,.22l-.41,.13c-.26,.08-.51,.17-.76,.27h-.03l-.03,.02-.37,.15c-.28,.12-.54,.23-.8,.36l-.32,.15c-.46,.23-.82,.44-1.17,.65-.95,.59-1.86,1.28-2.67,2.06-4.48,4.27-6.25,10.63-4.63,16.6l.02,.06,.02,.06,.1,.3c.12,.36,.24,.72,.37,1.05l.84,2.19,2.01-1.21,2.17-1.3,1.36-.82-.51-1.51c-.06-.17-.12-.34-.17-.52-.07-.26-.13-.54-.19-.83-.15-.8-.2-1.64-.16-2.48,.02-.26,.05-.54,.08-.83,.15-1.08,.47-2.13,.94-3.12,.84-1.74,2.15-3.2,3.8-4.22,.2-.12,.4-.23,.6-.34l.06-.03,.22-.1,.28-.13,.21-.1,.26-.11c.12-.04,.29-.1,.45-.16l.26-.08c.13-.04,.3-.08,.47-.12l.24-.06c.19-.04,.38-.08,.58-.1h.18c.2-.04,.41-.06,.61-.07h.8c.17,0,.32,0,.42,.01l.14,.02h.38c.24,.03,.46,.06,.68,.1l.18,.03h.07c.22,.05,.43,.1,.65,.16l.25,.08h.03l.03,.02c.18,.05,.36,.11,.53,.18l.33,.14c.17,.07,.34,.15,.51,.23,.11,.06,.16,.08,.21,.11l.07,.04c.18,.09,.31,.17,.44,.25l.09,.06s.12,.07,.2,.13l.04,.03,.04,.02c.16,.1,.31,.22,.47,.33l.26,.19c.24,.19,.46,.4,.69,.61,.16,.14,.32,.27,.5,.38l.1,.06c.12,.07,.25,.13,.38,.19l.37,.15h.24s.06,.01,.08,.01l.15,.02h.2s.09,0,.14,0h.24c.07,0,.13,0,.2,0h.14l.14-.04c.12-.03,.23-.06,.35-.1l.08-.03,.07-.02,.07-.03,.18-.08,.11-.05,.1-.06,.08-.04,.05-.03,.05-.03c.2-.13,.39-.29,.55-.47,1.19-1.25,1.15-3.28-.11-4.51-.34-.33-.71-.65-1.13-.99-.1-.08-.21-.16-.31-.24l-.08-.06-.32-.24c-.12-.09-.25-.19-.38-.29l-.09-.07-.09-.06-.42-.26c-.21-.14-.48-.29-.8-.46-.15-.09-.34-.18-.52-.27-.26-.13-.53-.25-.81-.37l-.46-.19-.04-.02h-.04c-.32-.13-.62-.24-.95-.34l-.09-.03c-.11-.04-.22-.07-.33-.1-.43-.13-.9-.24-1.38-.33l-.19-.04h-.12c-.38-.07-.75-.12-1.13-.15h-.61c-.1,0-.19-.02-.29-.03-.17-.01-.34-.02-.52-.03h-.29Z"/>
  </g>
  <g>
    <path class="cls-1" d="M26.59,48.96c-.52-1.19-.86-2.46-.99-3.76-.03-.33-.05-.65-.06-.97-.02-1.1,.1-2.19,.36-3.26-.86,.82-1.81,1.54-2.84,2.14-.06,1.16,0,2.33,.21,3.47,.28,1.55,.8,3.04,1.55,4.43,.19,.35,.39,.68,.61,1.02,.44,.67,.93,1.31,1.48,1.9l.1,.09c.47,.43,1.2,.43,1.67,0,.18-.17,.31-.39,.37-.63,.1-.4-.02-.83-.3-1.13-.9-.98-1.63-2.09-2.16-3.3Z"/>
    <path d="M25.91,40.96c-.26,1.07-.39,2.16-.36,3.26,0,.33,.03,.65,.06,.97,.13,1.3,.46,2.57,.99,3.76,.54,1.21,1.27,2.33,2.16,3.3,.28,.3,.4,.73,.3,1.13-.06,.24-.19,.46-.37,.63-.24,.22-.54,.33-.84,.33s-.6-.11-.84-.33l-.1-.09c-.54-.59-1.04-1.23-1.48-1.9-.22-.34-.42-.67-.61-1.02-.75-1.39-1.27-2.88-1.55-4.43-.2-1.15-.27-2.31-.21-3.47,1.03-.6,1.98-1.32,2.84-2.14m3.54-6.11l-4.9,4.69c-.75,.72-1.58,1.34-2.47,1.87l-.91,.53-.06,1.06c-.07,1.31,0,2.63,.24,3.92,.32,1.76,.91,3.45,1.75,5.02,.22,.4,.44,.77,.69,1.15,.5,.77,1.07,1.5,1.68,2.17l.07,.07,.07,.07,.1,.09c.57,.52,1.34,.82,2.14,.82s1.57-.3,2.16-.84c.48-.44,.8-1,.95-1.62,.25-1.06-.04-2.15-.77-2.94-.74-.81-1.35-1.74-1.8-2.76-.44-1-.72-2.07-.83-3.16-.03-.3-.05-.56-.05-.81-.02-.93,.08-1.86,.31-2.75l1.63-6.58h0Z"/>
  </g>
  <g>
    <path class="cls-1" d="M41.41,29.88h0c-.36-.1-.72-.19-1.09-.27-.05,0-.11,0-.17-.03h-.18c-.25-.05-.5-.09-.75-.12l-.39-.05h-.12l-.59-.04h-1.48c-.35,0-.7,.05-1.05,.1l-.19,.03c-.29,.04-.54,.09-.85,.15l-.34,.08-.71,.18-.34,.1c-.26,.08-.51,.17-.77,.27l-.23,.09h0c-.32,.13-.64,.27-.94,.42l-.24,.12-.14,.08c-.18,.1-.37,.2-.54,.3l-.31,.19c-.21,.12-.41,.26-.61,.4l-.29,.21c-.24,.17-.48,.36-.71,.54l-.14,.11c-.27,.23-.54,.47-.79,.72l-.22,.23c-.18,.18-.36,.37-.54,.57l-.14,.16,2.17,1.3,.28-.29,.18-.18c.21-.21,.43-.41,.65-.6,.03-.03,.07-.05,.1-.08,.2-.16,.39-.31,.59-.46l.24-.16c.17-.11,.34-.23,.51-.33l.25-.16c.2-.11,.39-.22,.59-.31,.06-.04,.13-.07,.19-.1,.26-.13,.54-.25,.79-.36l.18-.07c.21-.08,.42-.16,.64-.23l.28-.08h.08l.51-.14,.28-.06c.23-.05,.46-.09,.69-.12l.17-.03c.29-.04,.58-.07,.87-.09h1.21c.2,0,.39,0,.58,.04l.34,.04c.21,0,.41,.06,.61,.09h.04l.24,.04c.3,.06,.6,.13,.9,.22,4.14,1.24,7.31,4.59,8.31,8.8,.16,.65,.26,1.31,.31,1.97,.03,.33,.04,.67,.04,1.01,0,.17,.03,.33,.09,.49,.19,.46,.64,.77,1.15,.77h0c.69,0,1.25-.56,1.25-1.25v-.02c.07-6.53-4.2-12.32-10.46-14.19Z"/>
    <path d="M38.13,29.37l.59,.04h.12l.39,.05c.25,.03,.5,.07,.75,.12h.18c.05,.03,.11,.03,.17,.03,.36,.08,.73,.16,1.09,.27,6.26,1.87,10.53,7.66,10.46,14.19v.02c0,.69-.56,1.25-1.25,1.25-.5,0-.95-.31-1.15-.77-.06-.15-.1-.32-.09-.49,0-.34-.01-.68-.04-1.01-.05-.66-.15-1.32-.31-1.97-1-4.21-4.16-7.56-8.31-8.8-.3-.09-.6-.16-.9-.22l-.24-.04h-.04c-.21-.03-.41-.09-.61-.09l-.34-.04c-.2-.04-.39-.04-.58-.04h-1.21c-.29,.02-.58,.04-.87,.09l-.17,.03c-.23,.03-.47,.08-.69,.12l-.28,.06-.51,.14h-.08l-.28,.08c-.22,.07-.43,.15-.64,.23l-.18,.07c-.25,.11-.53,.23-.79,.36-.06,.03-.13,.06-.19,.1-.2,.1-.39,.21-.59,.31l-.25,.16c-.17,.1-.34,.22-.51,.33l-.24,.16c-.2,.15-.4,.3-.59,.46-.03,.03-.07,.05-.1,.08-.22,.19-.44,.39-.65,.6l-.18,.18-.28,.29-2.17-1.3,.14-.16c.18-.2,.36-.39,.54-.57l.22-.23c.24-.25,.52-.49,.79-.72l.14-.11c.23-.18,.47-.37,.71-.54l.29-.21c.2-.14,.41-.27,.61-.4l.31-.19c.17-.11,.36-.21,.54-.3l.14-.08,.24-.12c.3-.15,.62-.29,.94-.42l.23-.09c.26-.1,.51-.19,.77-.27l.34-.1,.71-.18,.34-.08c.31-.06,.56-.11,.85-.15l.19-.03c.35-.04,.7-.1,1.05-.1h1.48m.06-1.97h-1.55c-.42,0-.79,.05-1.12,.09l-.17,.02h-.09l-.19,.05c-.28,.04-.55,.09-.89,.16l-.4,.09h-.04l-.04,.02-.71,.18h-.04l-.03,.02-.34,.1c-.32,.1-.61,.21-.9,.32l-.22,.08h-.03l-.03,.02c-.43,.17-.77,.33-1.08,.48l-.26,.13-.18,.1c-.21,.11-.44,.23-.65,.37l-.3,.18c-.22,.14-.46,.29-.69,.44l-.33,.24c-.27,.19-.53,.39-.79,.6l-.14,.12c-.42,.35-.71,.61-.96,.88l-.24,.25c-.16,.17-.34,.35-.51,.54l-.04,.04-.07,.08-.14,.16-1.47,1.77,1.98,1.18,2.17,1.3,1.34,.8,1.08-1.13,.28-.29,.15-.15c.16-.15,.33-.31,.5-.46,.05-.04,.09-.07,.14-.11,.15-.12,.3-.24,.45-.36l.21-.14c.13-.09,.27-.18,.41-.27l.25-.16,.05-.03c.13-.07,.26-.15,.4-.21l.07-.03,.06-.04,.04-.02,.05-.02c.19-.1,.4-.18,.59-.27l.04-.02,.12-.04c.21-.08,.38-.14,.55-.2h.05l.25-.07,.46-.12,.23-.05c.19-.04,.37-.08,.56-.1l.21-.03c.2-.03,.41-.05,.63-.06h1.14s.07,0,.11,0,.07,0,.11,0h.08l.06,.02,.34,.04h.17s.06,.02,.09,.03c.09,.02,.18,.04,.28,.05l.15,.02h.1c.22,.06,.46,.12,.69,.18,3.44,1.03,6.11,3.85,6.94,7.36,.14,.55,.22,1.1,.26,1.66,.02,.28,.03,.56,.03,.87,0,.4,.07,.83,.24,1.24,.49,1.2,1.65,1.98,2.96,1.99,1.78,0,3.22-1.44,3.22-3.22v-.06c.07-7.31-4.81-13.93-11.87-16.04-.35-.1-.71-.19-1.09-.27l-.18-.11h-.54c-.23-.04-.45-.07-.68-.1l-.39-.05-.12-.02h-.18l-.52-.03h-.06Z"/>
  </g>
  <g>
    <path class="cls-1" d="M23.22,41.69h0c.93-.62,1.77-1.35,2.53-2.17h0l-1.68-1h0l-.54-.3s-.04,.03-.06,.05c-.21,.21-.42,.4-.65,.59h-.03s-.08,.06-.11,.09c-.18,.15-.36,.29-.54,.42l-.17,.12c-.23,.16-.47,.32-.72,.47h-.05c-.23,.14-.47,.27-.71,.39l-.19,.09c-.26,.12-.51,.23-.78,.34l-.07,.03c-.24,.09-.49,.18-.74,.26l-.2,.06c-.27,.08-.54,.15-.81,.21-.03,0-.06,0-.09,0-.25,.05-.5,.1-.75,.13l-.21,.03c-.28,.03-.54,.06-.84,.07h-1.08c-.28,0-.54-.03-.84-.07h-.09c-.26-.03-.51-.07-.77-.12l-.21-.04c-.28-.06-.54-.12-.84-.21h-.05c-.26-.08-.52-.16-.78-.26l-.21-.08c-.28-.11-.54-.22-.81-.35s-.6-.3-.88-.47c-5.8-3.52-7.64-11.08-4.12-16.87,.39-.65,.85-1.26,1.35-1.82,.22-.24,.44-.47,.67-.69,1.9-1.8,4.34-2.92,6.94-3.19,.69-.07,1.19-.68,1.12-1.37h0c-.01-.08-.03-.16-.05-.23,0-.03-.01-.05-.03-.08l-.06-.15-.05-.08s-.05-.08-.08-.12l-.07-.07-.09-.1-.08-.06s-.07-.05-.11-.07l-.09-.05s-.08-.04-.12-.05l-.1-.03h-.24c-.07,0-.13,0-.2,0-.7,.07-1.4,.2-2.08,.37-.21,.05-.42,.11-.63,.18-.41,.12-.81,.27-1.21,.43-4.67,1.92-8.02,6.1-8.88,11.08-.07,.4-.12,.81-.16,1.21-.1,1.19-.06,2.39,.12,3.58,.12,.78,.3,1.54,.54,2.29,.24,.75,.54,1.47,.89,2.17,1.43,2.84,3.75,5.12,6.6,6.52,.39,.18,.78,.35,1.17,.49,.28,.11,.54,.21,.86,.3l.4,.11c.71,.2,1.44,.34,2.17,.42,.52,.06,1.04,.08,1.57,.09,.77,0,1.53-.06,2.29-.18,.76-.12,1.5-.31,2.23-.54,1.23-.41,2.4-.99,3.47-1.71v-.07Z"/>
    <path d="M13.95,14.94s.07,0,.1,0h.24l.1,.03s.08,.03,.12,.05l.09,.05s.07,.04,.11,.07l.08,.06,.09,.1,.07,.07s.06,.08,.08,.12l.05,.08,.06,.15s.02,.05,.03,.08c.02,.07,.04,.15,.05,.23h0c.07,.69-.43,1.3-1.12,1.37-2.6,.27-5.04,1.39-6.94,3.19-.23,.22-.46,.45-.67,.69-.51,.56-.96,1.17-1.35,1.82-3.52,5.8-1.68,13.35,4.12,16.87,.28,.17,.61,.35,.88,.47,.27,.12,.54,.24,.81,.35l.21,.08c.26,.1,.52,.18,.78,.26h.05c.29,.08,.55,.15,.84,.21l.21,.04c.26,.05,.51,.09,.77,.12h.09c.3,.03,.56,.07,.84,.07h1.08c.29-.01,.56-.04,.84-.07l.21-.03c.26-.03,.5-.08,.75-.13,.01,0,.03,0,.04,0s.03,0,.04,0c.27-.05,.55-.13,.81-.21l.2-.06c.25-.08,.5-.16,.74-.26l.07-.03c.27-.1,.52-.22,.78-.34l.19-.09c.24-.12,.48-.24,.71-.39h.05c.24-.15,.48-.3,.72-.47l.17-.12c.18-.13,.36-.28,.54-.42,.04-.03,.08-.06,.11-.09h.03c.22-.19,.43-.39,.65-.59,.02-.02,.04-.04,.06-.05l.54,.3,1.68,1c-.76,.82-1.6,1.55-2.53,2.17v.07c-1.09,.72-2.26,1.3-3.49,1.71-.73,.24-1.47,.42-2.23,.54-.76,.12-1.52,.18-2.29,.18-.52,0-1.05-.03-1.57-.09-.73-.08-1.46-.22-2.17-.42l-.4-.11c-.31-.09-.58-.19-.86-.3-.39-.15-.78-.31-1.17-.49-2.85-1.39-5.17-3.68-6.6-6.52-.35-.7-.65-1.43-.89-2.17-.24-.75-.42-1.51-.54-2.29-.18-1.18-.22-2.38-.12-3.58,.04-.4,.09-.81,.16-1.21,.86-4.97,4.21-9.16,8.88-11.08,.4-.16,.8-.3,1.21-.43,.21-.07,.42-.12,.63-.18,.68-.18,1.38-.3,2.08-.37,.03,0,.07,0,.1,0m0-1.97c-.09,0-.17,0-.26,.01-.84,.09-1.64,.23-2.42,.43-.24,.06-.47,.13-.71,.2-.5,.15-.95,.31-1.38,.49C3.85,16.3,.09,20.99-.89,26.67c-.07,.4-.13,.85-.18,1.36-.12,1.36-.07,2.73,.13,4.06,.14,.88,.34,1.75,.61,2.59,.27,.84,.61,1.67,1.01,2.46,1.61,3.2,4.27,5.82,7.5,7.39,.43,.21,.86,.39,1.34,.57,.3,.11,.61,.23,1,.34l.42,.12c.82,.23,1.65,.39,2.49,.49,.6,.06,1.19,.1,1.78,.1,.88,0,1.75-.07,2.61-.21,.86-.14,1.71-.35,2.53-.62,1.41-.47,2.74-1.13,3.96-1.95l.71-.47,.02-.1c.78-.59,1.51-1.25,2.17-1.97l1.64-1.78-2.08-1.24-1.68-1-.59-.33-1.06-.59-1,.68c-.13,.09-.26,.19-.37,.31h-.05l-.51,.49s-.06,.05-.1,.08c-.12,.1-.28,.22-.43,.34l-.15,.11c-.08,.06-.17,.11-.26,.17l-.38,.21c-.19,.11-.38,.21-.57,.31l-.17,.08c-.19,.09-.4,.19-.63,.27l-.07,.03c-.2,.07-.4,.14-.6,.2l-.19,.06c-.12,.04-.26,.07-.4,.11h-.05l-.31,.06c-.19,.04-.39,.08-.59,.1h-.06l-.17,.03c-.2,.02-.4,.04-.61,.05h-1.04c-.14,0-.32-.02-.54-.04h-.09l-.11-.02h-.07c-.17-.02-.35-.05-.52-.08l-.19-.04c-.23-.05-.45-.1-.71-.17l-.26-.07h-.03c-.13-.04-.26-.09-.39-.14l-.17-.07c-.25-.1-.48-.2-.71-.3-.18-.08-.44-.22-.69-.37-2.34-1.42-4-3.68-4.65-6.36-.65-2.68-.23-5.45,1.2-7.8,.33-.54,.71-1.06,1.13-1.53,.18-.19,.37-.39,.57-.58,1.57-1.49,3.62-2.43,5.78-2.65,.85-.08,1.62-.5,2.17-1.16,.54-.66,.8-1.5,.71-2.36v-.07c-.03-.16-.06-.32-.11-.47-.03-.12-.07-.24-.12-.35l-.04-.1-.07-.17-.1-.15-.03-.05c-.07-.11-.14-.22-.22-.32l-.04-.05-.05-.05-.07-.07-.11-.11-.12-.13-.14-.11-.06-.05c-.11-.09-.24-.17-.36-.23l-.1-.05c-.16-.08-.3-.14-.45-.19l-.1-.03-.29-.09h-.48c-.05,0-.11,0-.16,0h0Z"/>
  </g>
  <g>
    <path class="cls-1" d="M37.68,36.82c-2.01,0-3.92,.89-5.21,2.43l-3.49-2.07-.99-.59h0l-2.17-1.28h0l-.98-.58-3.26-1.93c.56-1.54,.56-3.23,0-4.77l3.52-2.1,.99-.59,2.17-1.28,.99-.59,3.22-1.91c1.3,1.54,3.21,2.43,5.22,2.44,3.86,.06,7.04-3.03,7.1-6.89,.06-3.86-3.03-7.04-6.89-7.1-3.86-.06-7.04,3.03-7.1,6.89,0,.03,0,.07,0,.1,0,.81,.14,1.62,.42,2.39l-3.24,1.9-.99,.59-2.17,1.28-.99,.59-3.52,2.1c-1.3-1.54-3.21-2.44-5.22-2.44-3.86,.11-6.91,3.33-6.8,7.19,.1,3.71,3.09,6.7,6.8,6.8,2.02,0,3.93-.9,5.22-2.44l3.01,1.79,.21,.12,.8,.48h0l.18,.1h0l1.87,1.11,.29,.17,.71,.42,.28,.17,3.52,2.09c-1.26,3.58,.63,7.5,4.21,8.76,3.58,1.26,7.5-.63,8.76-4.21,1.26-3.58-.63-7.5-4.21-8.76-.74-.26-1.51-.39-2.29-.39h.03Zm0-24.3c2.48-.06,4.54,1.91,4.6,4.39,.06,2.48-1.91,4.54-4.39,4.6-2.48,.06-4.54-1.91-4.6-4.39,0-.04,0-.07,0-.11-.02-2.45,1.94-4.46,4.39-4.49ZM15.11,34.9c-2.48,.06-4.54-1.91-4.6-4.39-.06-2.48,1.91-4.54,4.39-4.6,2.48-.06,4.54,1.91,4.6,4.39,0,.03,0,.07,0,.1,.03,2.45-1.94,4.47-4.39,4.5Zm22.57,13.4c-2.45-.03-4.42-2.04-4.39-4.49,0-.76,.18-1.5,.54-2.17,.02-.03,.05-.06,.07-.09,0-.04,.04-.09,.07-.14,.79-1.3,2.19-2.1,3.71-2.11,2.48,.09,4.42,2.17,4.34,4.65-.08,2.36-1.98,4.25-4.34,4.34h0Z"/>
    <path d="M37.79,10.02s.07,0,.11,0c3.86,.06,6.95,3.23,6.89,7.1-.06,3.83-3.18,6.89-6.99,6.89-.04,0-.07,0-.11,0-2.01,0-3.93-.9-5.22-2.44l-3.22,1.91-.99,.59-2.17,1.28-.99,.59-3.52,2.1c.56,1.54,.56,3.23,0,4.77l3.26,1.93,.98,.58,2.17,1.28,.99,.59,3.49,2.07c1.29-1.54,3.2-2.43,5.21-2.43h0c.77,0,1.54,.13,2.28,.39,3.58,1.26,5.47,5.18,4.21,8.76-.99,2.83-3.65,4.6-6.49,4.6-.75,0-1.52-.13-2.28-.39-3.58-1.26-5.47-5.18-4.21-8.76l-3.52-2.09-.28-.17-.71-.42-.29-.17-1.87-1.11-.18-.1-.8-.48-.21-.12-3.01-1.79c-1.3,1.54-3.21,2.44-5.22,2.44-3.71-.1-6.7-3.09-6.8-6.8-.11-3.86,2.94-7.08,6.8-7.19,2.02,0,3.93,.9,5.22,2.44l3.52-2.1,.99-.59,2.17-1.28,.99-.59,3.24-1.9c-.28-.77-.42-1.57-.42-2.39,0-.03,0-.07,0-.1,.06-3.83,3.18-6.89,6.99-6.89m-.01,11.49s.07,0,.11,0c2.48-.06,4.45-2.12,4.39-4.6-.06-2.45-2.06-4.39-4.49-4.39-.03,0-.07,0-.11,0-2.45,.03-4.42,2.04-4.39,4.49,0,.04,0,.07,0,.11,.06,2.45,2.06,4.39,4.49,4.39m-22.78,13.4s.07,0,.11,0c2.45-.03,4.42-2.04,4.39-4.5,0-.03,0-.07,0-.1-.06-2.45-2.06-4.39-4.49-4.39-.03,0-.07,0-.11,0-2.48,.06-4.45,2.12-4.39,4.6,.06,2.45,2.06,4.39,4.49,4.39m22.68,13.4h0c2.36-.09,4.25-1.98,4.34-4.34,.09-2.48-1.86-4.56-4.34-4.65-1.52,0-2.93,.81-3.71,2.11-.02,.04-.07,.09-.07,.14-.02,.03-.04,.06-.07,.09-.36,.67-.55,1.41-.54,2.17-.02,2.45,1.94,4.46,4.39,4.49m.11-40.25h0c-4.87,0-8.89,3.96-8.96,8.83v.13c0,.49,.04,.97,.12,1.44l-1.96,1.15-1,.6-2.16,1.28-.99,.59-2.23,1.33c-1.55-1.25-3.48-1.95-5.51-1.95h-.06c-4.94,.14-8.85,4.27-8.71,9.21,.13,4.75,3.96,8.58,8.71,8.71h.06c2.03,0,3.96-.7,5.51-1.95l1.72,1.02,.22,.13,.78,.47,.21,.12,1.85,1.1,.3,.17,.71,.42,.28,.17,2.27,1.35c-.27,1.75,0,3.53,.78,5.16,1.02,2.13,2.81,3.73,5.04,4.51,.95,.33,1.93,.5,2.93,.5,3.75,0,7.1-2.38,8.34-5.92,1.61-4.6-.82-9.66-5.42-11.27-.94-.33-1.93-.5-2.93-.5-2.02,0-3.95,.7-5.49,1.94l-2.2-1.3-1-.59-2.17-1.28-.97-.58-1.99-1.18c.16-.96,.16-1.94,0-2.9l2.26-1.34,.99-.59,2.17-1.28,.99-.59,1.93-1.14c1.55,1.25,3.48,1.94,5.51,1.95h.11c4.87,0,8.89-3.96,8.96-8.83,.04-2.39-.86-4.66-2.53-6.37-1.67-1.72-3.9-2.68-6.3-2.72h-.13Zm-.01,11.49c-1.36,0-2.49-1.11-2.53-2.47v-.06c-.01-1.38,1.08-2.51,2.45-2.52h.08c1.36,0,2.49,1.11,2.53,2.47,.03,1.39-1.08,2.55-2.47,2.59h-.06Zm-22.78,13.4c-1.36,0-2.49-1.11-2.53-2.47-.02-.68,.23-1.32,.7-1.8,.47-.49,1.1-.77,1.77-.78h.06c1.36,0,2.49,1.11,2.53,2.47h0v.08c.02,1.37-1.08,2.49-2.45,2.51h-.08Zm20.86,9.2c.44-.52,1.09-.84,1.78-.85,.66,.03,1.27,.32,1.72,.8,.46,.49,.7,1.14,.68,1.81-.05,1.32-1.12,2.39-2.44,2.44h-.01c-1.31-.07-2.35-1.17-2.34-2.5,0-.41,.09-.8,.25-1.15l.03-.05,.33-.49h0Z"/>
  </g>
</svg>