<?xml version="1.0" encoding="utf-8"?>
<!-- Generator: $$$/GeneralStr/196=Adobe Illustrator 27.6.0, SVG Export Plug-In . SVG Version: 6.00 Build 0)  -->
<svg version="1.1" id="圖層_1" xmlns="http://www.w3.org/2000/svg" xmlns:xlink="http://www.w3.org/1999/xlink" x="0px" y="0px"
	 width="38px" height="38px" viewBox="0 0 38 38" style="enable-background:new 0 0 38 38;" xml:space="preserve">
<style type="text/css">
	.st0{fill:#FFFFFF;}
</style>
<g>
	<path class="st0" d="M23.5,14.5V10H10v13.5h4.5V28H28V14.5H23.5z M13,19.8v-1.5c0.5,0,0.9,0,1.3-0.1c-0.4-0.3-0.7-0.6-0.9-0.9
		C13.1,16.8,13,16.4,13,16h1.5c0,0.4,0.2,0.7,0.7,1c0.2,0.1,0.4,0.2,0.7,0.3c0.4-0.5,0.7-1.1,0.8-2H13v-1.5h2.2V13h1.5v0.8H19v1.5
		h-0.8c-0.1,0.9-0.3,1.7-0.7,2.3V19c-0.4,0-0.8,0-1.2-0.1C15.4,19.5,14.3,19.7,13,19.8L13,19.8z M26.5,26.5H16v-3.4l7.1-7.1h3.4
		V26.5z"/>
	<path class="st0" d="M22,17.4l-0.7,2.1L19.8,24l0,0.1V25h1.5v-0.7l0-0.1h1.5l0,0.1V25h1.5v-0.9L24.2,24l-1.5-4.5L22,17.4L22,17.4z
		 M21.5,22.7l0.5-1.6l0.5,1.6H21.5z"/>
</g>
</svg>
