<svg xmlns="http://www.w3.org/2000/svg" width="74.12" height="73.84" viewBox="0 0 74.12 73.84">
  <defs>
    <style>
      .cls-1 {
        fill: #fff;
      }
    </style>
  </defs>
  <g id="圖層_2" data-name="圖層 2">
    <g id="圖層_1-2" data-name="圖層 1">
      <g>
        <path class="cls-1" d="M33.34,7.45V22.73h7.44V7.45l33.34-.06V0H0V7.39Z"/>
        <path class="cls-1" d="M66.67,16.23V59.92L40.78,42.66l-3.71-2.59-3.73,2.59L7.45,59.92V16.23H0V73.84L37.06,49.13,74.12,73.84V16.23Z"/>
        <g>
          <path class="cls-1" d="M14.24,30c.82-1.3,2.93-1.62,4.33-1.62l8.21,0V26.69H23.92l-3.75,0-2.18,0c-.67,0-1.41.07-2.21.14C13,27.09,10.14,29,10.7,32.1c.61,3.22,3.92,3.88,6.67,4.11,1.13.09,2.06.15,2.77.18s1.51,0,2.36,0l2-.06,1.18,0a6.69,6.69,0,0,0,.74-.06l.29-.07V30.57h-8.9v1.67h5.41v2.49c-1.13,0-2.19,0-3.17-.08-2.22-.11-6.82-.54-6.13-3.9A2.37,2.37,0,0,1,14.24,30Z"/>
          <path class="cls-1" d="M42.34,27.71a12.16,12.16,0,0,0-5.67-1.06,12.85,12.85,0,0,0-6.2,1.45c-1.83,1-2.75,2.16-2.75,3.44,0,1.43.91,2.61,2.7,3.51A14.5,14.5,0,0,0,37,36.37a12.84,12.84,0,0,0,6-1.31c1.73-.9,2.61-2.05,2.61-3.43a3.25,3.25,0,0,0-.68-2A8.21,8.21,0,0,0,42.34,27.71ZM40.8,33.79a7,7,0,0,1-3.66,1,9.18,9.18,0,0,1-4.35-.94,2.57,2.57,0,0,1-1.65-2.23,2.78,2.78,0,0,1,1.5-2.26,7.43,7.43,0,0,1,4.13-1,7.12,7.12,0,0,1,4,1.07,2.83,2.83,0,0,1,1.59,2.27A2.62,2.62,0,0,1,40.8,33.79Z"/>
          <path class="cls-1" d="M59.84,26.71l-6,7.48-6.2-7.48-3.94,0,.46.54,7.85,9.16H55.8l7.76-9.69Z"/>
        </g>
      </g>
    </g>
  </g>
</svg>
