<?xml version="1.0" encoding="UTF-8"?>
<svg id="_層_1" data-name="圖層 1" xmlns="http://www.w3.org/2000/svg" width="610.79" height="631.69" viewBox="0 0 610.79 631.69">
  <defs>
    <style>
      .cls-1 {
        fill: #ffb31a;
      }

      .cls-2 {
        fill: #fff;
      }

      .cls-3 {
        stroke-width: 1.01px;
      }

      .cls-3, .cls-4, .cls-5 {
        fill: none;
        stroke: #4d4d4d;
        stroke-miterlimit: 10;
      }

      .cls-4 {
        stroke-dasharray: 0 0 3 5;
      }

      .cls-6 {
        fill: #4e6dae;
      }

      .cls-7 {
        fill: #44b3c1;
      }

      .cls-8 {
        fill: #6161bc;
      }

      .cls-9 {
        fill: #465f97;
      }

      .cls-10 {
        fill: #42ba92;
      }
    </style>
  </defs>
  <g>
    <g>
      <path d="M419.27,455.95h-5.15v-1.08h5.15v1.08Zm1.42,9.29c-1.44,.86-3.71,1.71-5.49,2.2-.23-.27-.68-.77-.99-1.01,1.84-.38,4-1.03,5.28-1.73l1.21,.54Zm-1.87-12.12h-4.3v-1.04h4.3v1.04Zm-2.34,4.23h11.65v7.22h-11.65v-7.22Zm1.3,2.12h9.02v-1.22h-9.02v1.22Zm0,2.09h9.02v-1.22h-9.02v1.22Zm0,2.12h9.02v-1.26h-9.02v1.26Zm4.32-10.42c-.4,.68-.86,1.31-1.35,1.8-.22-.2-.72-.54-1.01-.68,.94-.85,1.67-2.11,2.07-3.42l1.21,.27c-.11,.34-.25,.67-.38,.99h6.03l.22-.05,.9,.31c-.45,.92-1.03,1.96-1.51,2.59l-1.06-.38c.27-.38,.59-.9,.85-1.42h-2.86v.23c0,.18-.02,.38-.05,.59,.95,1.08,2.92,1.78,5.28,1.98-.25,.25-.59,.74-.76,1.06-2.05-.29-3.78-1.01-4.9-2.11-.59,.88-2.02,1.71-5.19,2.2-.14-.29-.49-.77-.72-.99,4.66-.63,5.09-1.85,5.09-2.79v-.18h-1.85Zm2.7,11.42c1.93,.59,4.03,1.37,5.29,1.95l-1.17,.77c-1.15-.58-3.1-1.35-5.04-2l.92-.72Z"/>
      <path d="M420.57,473.15h-6.46v-1.1h6.46v1.1Zm-.67,11.2h-4.02v.85h-1.08v-6.05h5.1v5.2Zm-5.08-8.88v-1.06h5.06v1.06h-5.06Zm0,1.28h5.09v1.06h-5.09v-1.06Zm1.06,3.51v2.97h2.92v-2.97h-2.92Zm1.39-8.41c-.25-.65-.81-1.66-1.26-2.39l.96-.54c.49,.74,1.04,1.69,1.3,2.32l-.99,.61Zm11.31-1.84c-.11,7.27-.14,13.52,.86,13.77,.11,.04,.23-1.12,.31-2.41,.22,.34,.58,.79,.77,.97-.2,2.52-.77,3.1-1.6,2.75-1.76-.54-1.71-6.43-1.69-13.81h-2.99v5.31h2.38v1.24h-2.38v7.58h-1.26v-7.58h-2.43v-1.24h2.43v-5.31h-2.23v-1.28h7.83Z"/>
      <path d="M430.24,500.73v1.33h-16.06v-1.33h7.24v-10.34h-6.3v-1.37h14.22v1.37h-6.46v10.34h7.36Z"/>
      <path d="M420.64,518.55c-1.3,.97-3.66,1.89-5.53,2.32-.18-.32-.54-.76-.81-1.01,1.85-.31,4.14-1.01,5.33-1.78l1.01,.47Zm9.4-2.5v1.13h-7.22v4.27h-1.31v-4.27h-7.11v-1.13h7.11v-1.35h-5.42v-1.03h5.42v-1.3h-6.34v-1.08h3.89c-.18-.5-.54-1.21-.92-1.73l.95-.25h-4.65v-1.12h2.9c-.27-.72-.88-1.8-1.44-2.61l1.13-.4c.63,.81,1.28,1.93,1.53,2.65l-.9,.36h2.2v-3.19h1.26v3.19h2.14v-3.19h1.28v3.19h2.18l-.72-.23c.5-.74,1.08-1.93,1.39-2.74l1.37,.38c-.5,.92-1.1,1.91-1.57,2.59h2.77v1.12h-4.68l1.17,.32c-.41,.59-.85,1.21-1.24,1.66h4.12v1.08h-6.52v1.3h5.64v1.03h-5.64v1.35h7.22Zm-10.6-6.73c.41,.56,.79,1.3,.95,1.78l-.74,.2h4.97l-.63-.2c.36-.5,.81-1.26,1.06-1.78h-5.62Zm5.35,8.68c1.69,.56,3.98,1.42,5.22,2l-.83,.85c-1.19-.58-3.47-1.5-5.19-2.12l.79-.72Z"/>
      <path d="M422.98,533.64c1.42,1.58,4.27,3.26,7.54,3.98-.27,.29-.65,.83-.85,1.17-2.75-.74-5.15-2.21-6.7-3.67v4.32h-1.4v-4.36c-1.76,1.73-4.23,3.1-6.72,3.78-.16-.34-.54-.85-.85-1.12,2.97-.68,5.98-2.29,7.56-4.25v-1.55h-4.43v3.46h-1.39v-4.63h5.82v-1.39h-7.11v-1.19h7.11v-1.12h1.4v1.12h6.86v1.19h-6.86v1.39h5.83v3.31c0,.65-.13,.92-.59,1.12-.45,.18-1.17,.18-2.18,.18-.07-.34-.29-.76-.45-1.06,.72,.04,1.42,.02,1.62,.02,.22,0,.27-.07,.27-.25v-2.14h-4.5v1.69Zm-6.12-8.28c-.56,.9-1.21,1.73-1.85,2.34-.2-.23-.65-.67-.94-.88,1.1-.99,2.11-2.43,2.72-3.93l1.17,.32c-.14,.36-.31,.7-.49,1.06h4.61v1.08h-3.4c.59,.5,1.28,1.17,1.62,1.62l-.88,.76c-.34-.52-1.1-1.3-1.73-1.85l.7-.52h-1.53Zm7.42,0c-.43,.63-.9,1.21-1.4,1.67-.22-.22-.7-.61-.99-.79,.97-.83,1.78-2.05,2.23-3.35l1.22,.29c-.13,.38-.29,.74-.47,1.12h5.44v1.06h-3.87c.63,.5,1.39,1.15,1.78,1.62l-.88,.77c-.4-.49-1.21-1.24-1.85-1.76l.77-.63h-1.98Z"/>
      <path d="M418.37,549.6c-.34,1.58-.86,3.33-1.48,4.65,.34,.2,.77,.54,1.44,.94,1.28,.77,2.9,.9,5.04,.9,2.3,0,5.22-.18,7.24-.38-.18,.36-.38,.99-.41,1.39-1.33,.09-4.75,.2-6.88,.2-2.38,0-3.94-.2-5.28-.99-.72-.43-1.39-1.04-1.8-1.04s-1.01,1.13-1.53,2.27l-.92-1.21c.63-.9,1.26-1.64,1.8-2,.54-1.03,1.01-2.45,1.3-3.75h-2.36c.5-1.06,1.06-2.59,1.55-4.02h-2v-1.21h3.69c-.45,1.3-1.01,2.81-1.49,4.05h1.24l.23-.05,.61,.25Zm-2.43-5.19c-.22-.79-.63-2.02-.92-2.95l1.17-.36c.32,.94,.74,2.12,.95,2.9l-1.21,.41Zm4.14,2.03c-.43,.56-.88,1.06-1.33,1.51-.16-.27-.58-.88-.83-1.15,1.57-1.37,2.92-3.51,3.73-5.78l1.22,.34c-.32,.88-.72,1.76-1.17,2.59h3.58c-.27-.68-.7-1.53-1.08-2.21l1.22-.36c.5,.79,1.04,1.82,1.31,2.58h3.15v1.17h-3.87v1.75h3.28v1.13h-3.28v1.78h3.24v1.13h-3.24v1.87h4.18v1.15h-8.82v1.04h-1.3v-8.55Zm4.66-1.31h-3.37v1.75h3.37v-1.75Zm0,2.88h-3.37v1.78h3.37v-1.78Zm0,2.92h-3.37v1.87h3.37v-1.87Z"/>
      <path d="M423.25,559.37c-.09,.11-.18,.23-.25,.34,1.67,1.64,4.79,3.08,7.6,3.75-.27,.23-.65,.7-.85,1.03-1.46-.41-3.01-1.03-4.41-1.8v.56h-6.23v-.49c-1.39,.76-2.92,1.37-4.41,1.84-.14-.23-.52-.77-.76-1.03,3.26-.86,6.45-2.45,8.14-4.63l1.17,.43Zm-7.08,4.75h12.03v4.54h-12.03v-4.54Zm1.04,5.38h10.12v5.85h-1.35v-.54h-7.45v.59h-1.31v-5.91Zm.11-1.76h4.25v-2.68h-4.25v2.68Zm2.04-2.48c.47,.63,.92,1.46,1.08,2.04l-1.03,.38c-.14-.58-.56-1.44-1.01-2.11l.95-.31Zm-.83,5.2v1.22h7.45v-1.22h-7.45Zm7.45,3.4v-1.22h-7.45v1.22h7.45Zm-1.35-11.6c-.86-.54-1.69-1.15-2.38-1.8-.68,.67-1.48,1.28-2.32,1.8h4.7Zm2.36,2.79h-4.29v2.68h4.29v-2.68Zm-3.13,2.29c.32-.59,.79-1.55,.99-2.16l1.13,.36c-.4,.77-.85,1.58-1.22,2.12l-.9-.32Z"/>
    </g>
    <g>
      <path d="M453.81,454.02h-5.6v2.9h-1.28v-3.85h6.88v-1.15h-6.1v-.95h13.58v.95h-6.18v1.15h7v3.85h-1.31v-2.9h-5.69v4.09h-1.3v-4.09Zm6.57,11.34c.95,0,1.13-.31,1.22-2.09,.31,.2,.79,.36,1.17,.43-.2,2.18-.59,2.74-2.3,2.74h-4.14c-2,0-2.58-.36-2.58-1.8v-.56h-3.98v.94h-1.3v-6.25h12.14v5.31h-5.56v.56c0,.61,.22,.72,1.33,.72h4Zm-11.85-8.25c1.13-.11,2.68-.34,4.27-.59l.05,.85c-1.39,.29-2.75,.58-3.92,.79l-.4-1.04Zm.86-2.74c1.15,.18,2.65,.59,3.46,.94l-.4,.83c-.79-.38-2.29-.81-3.48-1.04l.41-.72Zm.38,5.37v1.22h3.98v-1.22h-3.98Zm3.98,3.37v-1.24h-3.98v1.24h3.98Zm5.55-3.37h-4.25v1.22h4.25v-1.22Zm0,3.37v-1.24h-4.25v1.24h4.25Zm.76-4.9c-.97-.34-2.79-.77-4.2-.99l.32-.81c1.37,.16,3.21,.54,4.18,.88l-.31,.92Zm.02-3.17c-1.03,.43-2.49,.81-3.51,1.03l-.47-.7c1.03-.22,2.54-.77,3.4-1.08l.58,.76Z"/>
      <path d="M451.36,468.67c-.41,1.21-.94,2.41-1.51,3.55v12.53h-1.24v-10.37c-.54,.86-1.13,1.64-1.71,2.32-.13-.29-.5-.94-.74-1.24,1.62-1.75,3.1-4.43,4.01-7.15l1.19,.36Zm11.16,2.54v1.13h-11.4v-1.13h11.4Zm-10.35,7.71h9.11v5.73h-1.19v-.65h-6.75v.7h-1.17v-5.78Zm8.93-4.03h-8.68v-1.1h8.68v1.1Zm-8.68,1.42h8.68v1.1h-8.68v-1.1Zm.92,3.73v2.85h6.75v-2.85h-6.75Zm3.17-8.93c-.23-.63-.79-1.66-1.24-2.39l1.13-.47c.52,.76,1.06,1.71,1.31,2.34l-1.21,.52Z"/>
      <path d="M452.24,495.33c-.72,.22-1.46,.43-2.16,.65v5.1c0,.76-.2,1.12-.67,1.33-.45,.22-1.21,.25-2.43,.23-.05-.34-.25-.86-.43-1.22,.86,.02,1.64,.02,1.85,0,.27,0,.36-.09,.36-.34v-4.7l-2.16,.63-.38-1.31c.72-.16,1.58-.38,2.54-.65v-3.93h-2.3v-1.26h2.3v-3.6h1.31v3.6h2v1.26h-2v3.57c.65-.18,1.33-.38,2-.58l.16,1.22Zm9.58-2.02c-.76,2.47-2.03,4.43-3.66,5.92,1.3,1.06,2.84,1.84,4.65,2.32-.29,.27-.67,.79-.86,1.15-1.87-.58-3.47-1.44-4.81-2.61-1.53,1.17-3.28,2-5.11,2.57-.14-.36-.47-.92-.72-1.21,1.75-.47,3.42-1.22,4.88-2.29-1.26-1.35-2.25-3.01-2.95-4.93l.05-.02h-.59v-1.24h3.85v-2.68h-4.21v-1.24h4.21v-2.83h1.31v2.83h4.3v1.24h-4.3v2.68h2.86l.22-.05,.88,.38Zm-7.27,.92c.61,1.57,1.51,2.99,2.65,4.14,1.24-1.12,2.25-2.5,2.9-4.14h-5.55Z"/>
      <path d="M451.04,508.25c-.43,.92-.95,1.84-1.55,2.7v9.76h-1.24v-8.14c-.5,.59-1.03,1.13-1.55,1.6-.14-.27-.56-.9-.79-1.17,1.51-1.24,3.01-3.19,3.93-5.17l1.21,.41Zm-.45-3.56c-.85,1.49-2.29,3.13-3.64,4.18-.14-.27-.5-.74-.72-.99,1.21-.9,2.5-2.39,3.13-3.6l1.22,.41Zm2.09,6.34c-.04,3.47-.25,5.8-1.62,7.18-.14-.22-.49-.61-.72-.79,1.15-1.21,1.3-3.24,1.33-6.39h1.01Zm2.16-1.19v10.8h-1.19v-10.8h-2.67v-1.24h2.67v-4.2h1.19v4.2h2.97v1.24h-2.97Zm2.23-1.71c-.31-.65-.99-1.66-1.6-2.39l.85-.49c.63,.72,1.33,1.71,1.64,2.36l-.88,.52Zm.65,8.52c.18,0,.41,0,.59-.05,.02,.27,.07,.72,.09,.97-.16,.05-.41,.07-.68,.07h-.65c-1.03,0-1.22-.4-1.22-1.58v-5.02h1.03v5.04c0,.47,.02,.58,.18,.58h.67Zm5.01-5.56h-1.6v7.83c0,.76-.14,1.12-.63,1.35-.52,.22-1.33,.23-2.59,.23-.05-.38-.22-.92-.4-1.3,.94,.02,1.76,.02,2.02,.02,.25-.02,.32-.07,.32-.31v-7.83h-2.07v-1.21h4.95v1.21Zm-.25-4.18h-4.27v-1.21h4.27v1.21Z"/>
      <path d="M461.69,525.44v8.43h-1.37v-1.03h-5.17v5.83h-1.39v-5.83h-5.15v1.12h-1.31v-8.52h6.46v-3.21h1.39v3.21h6.54Zm-7.92,6.09v-4.77h-5.15v4.77h5.15Zm6.55,0v-4.77h-5.17v4.77h5.17Z"/>
      <path d="M449.29,546.83c-.29,2.11-.85,5.15-1.58,7.06l-1.33-.56c.77-1.84,1.37-4.65,1.62-6.75l1.3,.25Zm2.92-1.6v8.88c0,.83,.22,.99,1.24,.99h3.44c1.12,0,1.28-.63,1.42-3.73,.32,.25,.88,.49,1.26,.59-.2,3.4-.61,4.39-2.61,4.39h-3.62c-1.94,0-2.48-.49-2.48-2.27v-8.86h1.35Zm.38-4.36c1.67,1.15,3.82,2.84,4.84,3.98l-.95,.99c-.99-1.12-3.08-2.88-4.77-4.09l.88-.88Zm7.83,5.24c1.04,2.14,2.03,4.9,2.41,6.75l-1.31,.52c-.36-1.85-1.33-4.68-2.34-6.79l1.24-.49Z"/>
    </g>
    <g>
      <path d="M494.72,466.01v.99h-15.74v-.99h7.15v-.96h-5.42v-.88h5.42v-.88c-3.51,.09-4.03,.13-4.39,.23-.04-.22-.18-.7-.29-.97,.27-.02,.59-.09,.97-.23,.29-.11,1.01-.43,1.76-.88h-3.1v-.83h11.42v.83h-2.05c.97,.56,1.96,1.26,2.56,1.76l-.83,.7c-.22-.22-.54-.47-.88-.74l-3.85,.09v.92h5.64v.88h-5.64v.96h7.27Zm-8.59-13.05h-7.13v-.94h7.13v-1.06h1.31v1.06h7.26v.94h-7.26v.94h5.92v.88h-13.05v-.88h5.82v-.94Zm6.95,8.5v-1.62h-12.53v1.62h-1.21v-2.56h15v2.56h-1.26Zm-.47-5.92v2.61h-11.49v-2.61h11.49Zm-1.31,.79h-8.93v1.03h8.93v-1.03Zm-5.53,5.11c-.63,.42-1.26,.76-1.89,1.04l6.28-.09c-.47-.31-.95-.58-1.39-.81l.16-.14h-3.17Z"/>
      <path d="M481.12,476.75c-.52-.58-1.66-1.39-2.57-1.89l.76-.9c.94,.45,2.07,1.22,2.63,1.78l-.81,1.01Zm-2.23,7.74c.65-1.39,1.58-3.71,2.25-5.73l1.04,.7c-.59,1.87-1.39,4.07-2.09,5.71l-1.21-.68Zm2.54-12.41c-.49-.59-1.58-1.44-2.48-2l.77-.88c.9,.5,2.02,1.31,2.52,1.91l-.81,.97Zm2,3.51c-.18,.88-.45,1.85-.79,2.49-.14-.13-.49-.34-.67-.43,.34-.65,.54-1.44,.68-2.23l.77,.18Zm2.41-.72c-.05-.16-.13-.36-.22-.56-2.45,.34-2.86,.43-3.11,.56-.04-.16-.2-.52-.31-.7,.27-.04,.52-.27,.83-.63,.2-.18,.65-.7,1.12-1.35-1.17,.11-1.48,.18-1.66,.25-.05-.16-.2-.52-.31-.68,.2-.04,.36-.2,.56-.45,.16-.25,.83-1.28,1.1-2.23l.85,.31c-.31,.76-.77,1.51-1.21,2.11l1.19-.07c.18-.27,.34-.54,.49-.81l.81,.34c-.63,1.03-1.4,2.05-2.21,2.88l1.58-.2c-.11-.22-.23-.4-.34-.59l.68-.23c.36,.56,.72,1.31,.86,1.78l-.7,.29Zm8.35,6.93s-.02,.38-.07,.54c-.34,1.55-.7,2.34-1.19,2.7-.38,.27-.76,.34-1.35,.34-.54,.02-1.62,0-2.75-.07-.04-.31-.18-.74-.38-1.03,1.15,.11,2.32,.13,2.77,.13,.4,0,.58-.02,.76-.14,.31-.2,.54-.67,.77-1.55h-9.47c.29-.76,.56-1.8,.77-2.68h8.12v-.94h-8.77v-.86h10.01v2.66h-8.34c-.07,.31-.16,.61-.25,.9h9.36Zm-9.99-4.03c-.02-.58-.18-1.51-.4-2.21l.7-.18c.23,.7,.41,1.58,.43,2.14l-.74,.25Zm1.6-2.68c.29,.63,.56,1.44,.65,1.93l-.68,.31c-.07-.52-.34-1.35-.63-2.02l.67-.22Zm4.79-3.51h-4.32v-.83h1.91c-.13-.43-.45-1.01-.7-1.42l.92-.23c.29,.41,.61,1.04,.77,1.42l-.79,.23h2.21v.83Zm-3.83,3.37h3.38v2.65h-3.38v-2.65Zm3.37-1.98h-3.31v-.76h3.31v.76Zm-3.31,.58h3.31v.74h-3.31v-.74Zm.83,3.31h1.58v-1.19h-1.58v1.19Zm4.12-1.33c-.16,.88-.45,1.82-.77,2.49-.14-.13-.5-.36-.7-.47,.36-.63,.56-1.42,.7-2.2l.77,.18Zm2.48-.59c-.05-.2-.14-.41-.25-.67-2.47,.34-2.92,.45-3.15,.54-.05-.13-.2-.5-.31-.7,.27-.04,.52-.25,.85-.59,.2-.2,.63-.72,1.12-1.37-1.19,.13-1.49,.18-1.67,.27-.05-.16-.2-.52-.31-.7,.22-.02,.34-.18,.54-.45,.2-.25,.83-1.26,1.12-2.21l.85,.31c-.31,.74-.76,1.5-1.21,2.09l1.19-.07c.18-.27,.34-.54,.49-.81l.83,.36c-.63,1.01-1.42,2.02-2.21,2.86l1.57-.2c-.11-.22-.22-.4-.32-.58l.65-.25c.4,.59,.79,1.39,.94,1.89l-.68,.29Zm-1.69,2.99c-.02-.61-.2-1.62-.45-2.4l.72-.18c.25,.77,.43,1.75,.45,2.34l-.72,.23Zm1.57-2.88c.38,.74,.68,1.69,.77,2.27l-.68,.32c-.09-.63-.4-1.6-.74-2.36l.65-.23Z"/>
      <path d="M480.46,498.64c-.18,1.57-.52,3.22-.88,4.34-.22-.13-.74-.29-.99-.36,.4-1.12,.67-2.7,.85-4.14l1.03,.16Zm3.56-4.84c.47,1.13,.99,2.58,1.21,3.44l-1.01,.4c-.05-.25-.14-.56-.22-.86-4.02,.63-4.56,.76-4.9,.94-.04-.27-.23-.85-.38-1.17,.36-.07,.76-.52,1.28-1.21,.29-.34,.85-1.12,1.48-2.11-1.87,.22-2.25,.31-2.48,.43-.07-.25-.25-.85-.38-1.15,.29-.07,.59-.45,.95-.99,.38-.54,1.6-2.59,2.3-4.54l1.13,.49c-.76,1.69-1.73,3.46-2.72,4.83l1.89-.18c.45-.77,.94-1.64,1.31-2.48l1.04,.63c-1.13,2.12-2.52,4.27-3.94,5.98l3.1-.43c-.2-.58-.43-1.15-.63-1.67l.95-.32Zm-1.8,4.61c.25,1.19,.45,2.74,.5,3.78l-1.01,.25c-.04-1.06-.23-2.63-.43-3.85l.94-.18Zm1.89-.47c.41,1.12,.88,2.54,1.06,3.46l-.94,.34c-.18-.95-.61-2.39-1.01-3.49l.88-.31Zm10.52,3.96c0,.74-.14,1.06-.61,1.28-.43,.22-1.17,.23-2.27,.23-.04-.32-.2-.86-.34-1.19,.76,.04,1.48,.02,1.69,.02,.23-.02,.31-.09,.31-.34v-12.89h-6.73v14.42h-1.21v-15.61h9.16v14.08Zm-2.9-2.97c.29,0,.79-.02,1.06-.09,.04,.31,.07,.72,.11,.99-.23,.07-.7,.09-1.15,.09h-2.3c-1.19,0-1.46-.43-1.46-1.62v-1.75h-.67v-1.06h2.45c-.16-.49-.45-1.12-.7-1.58l.83-.32h-2.75v-1.06h3.42c.32-.85,.68-2.11,.85-2.97l.97,.29c-.27,.88-.59,1.91-.88,2.68h1.53v1.06h-3.02c.31,.52,.63,1.22,.79,1.62l-.65,.29h2.67v1.06h-3.71v1.76c0,.47,.05,.61,.43,.61h2.2Zm-3.15-9.42c.45,.79,.86,1.85,.97,2.56l-.86,.31c-.13-.7-.5-1.78-.94-2.57l.83-.29Z"/>
      <path d="M493.8,507.12c-.58,1.87-1.51,3.46-2.63,4.79,1.12,1.08,2.48,2.03,4.11,2.65-.27,.25-.65,.77-.83,1.1-.18-.09-.38-.16-.58-.25v5.92h-1.28v-.59h-4.5v.65h-1.24v-6c-.36,.18-.72,.34-1.08,.5-.13-.27-.4-.63-.65-.9h-1.89v3.22c.77-.18,1.57-.36,2.36-.56l.13,1.21c-2.45,.59-5.01,1.21-6.9,1.67l-.25-1.3,.92-.2v-6.14h1.13v5.91l1.39-.32v-7.27h-2.52v-5.49h5.82v4.77c1.42-1.35,2.59-3.37,3.26-5.53l1.28,.31c-.18,.52-.38,1.04-.58,1.53h3.47l.23-.05,.83,.38Zm-13.13,2.92h3.39v-3.15h-3.39v3.15Zm4.79,4.63c1.44-.61,2.86-1.57,4.07-2.81-.67-.81-1.21-1.66-1.66-2.47-.5,.79-1.06,1.48-1.64,2.07-.2-.2-.61-.58-.94-.79v.54h-2.07v2.59h2.23v.86Zm7.56,.25c-1.01-.59-1.89-1.35-2.66-2.12-.83,.83-1.75,1.55-2.7,2.12h5.37Zm-.43,4.63v-3.46h-4.5v3.46h4.5Zm-3.89-11.58l-.18,.34c.45,.88,1.04,1.82,1.78,2.7,.76-.92,1.39-1.93,1.84-3.04h-3.44Z"/>
      <path d="M483.91,527.91h-5.15v-1.08h5.15v1.08Zm1.42,9.29c-1.44,.86-3.71,1.71-5.49,2.2-.23-.27-.68-.77-.99-1.01,1.84-.38,4-1.03,5.28-1.73l1.21,.54Zm-1.87-12.12h-4.3v-1.04h4.3v1.04Zm-2.34,4.23h11.65v7.22h-11.65v-7.22Zm1.3,2.12h9.02v-1.22h-9.02v1.22Zm0,2.09h9.02v-1.22h-9.02v1.22Zm0,2.12h9.02v-1.26h-9.02v1.26Zm4.32-10.42c-.4,.68-.86,1.31-1.35,1.8-.22-.2-.72-.54-1.01-.68,.94-.85,1.67-2.11,2.07-3.42l1.21,.27c-.11,.34-.25,.67-.38,.99h6.03l.22-.05,.9,.31c-.45,.92-1.03,1.96-1.51,2.59l-1.06-.38c.27-.38,.59-.9,.85-1.42h-2.86v.23c0,.18-.02,.38-.05,.59,.95,1.08,2.92,1.78,5.28,1.98-.25,.25-.59,.74-.76,1.06-2.05-.29-3.78-1.01-4.9-2.11-.59,.88-2.02,1.71-5.19,2.2-.14-.29-.49-.77-.72-.99,4.66-.63,5.1-1.85,5.1-2.79v-.18h-1.85Zm2.7,11.42c1.93,.59,4.03,1.37,5.29,1.95l-1.17,.77c-1.15-.58-3.1-1.35-5.04-2l.92-.72Z"/>
      <path d="M485.21,545.12h-6.46v-1.1h6.46v1.1Zm-.67,11.2h-4.02v.85h-1.08v-6.05h5.1v5.2Zm-5.08-8.88v-1.06h5.06v1.06h-5.06Zm0,1.28h5.1v1.06h-5.1v-1.06Zm1.06,3.51v2.97h2.92v-2.97h-2.92Zm1.39-8.41c-.25-.65-.81-1.66-1.26-2.39l.95-.54c.49,.74,1.04,1.69,1.3,2.32l-.99,.61Zm11.31-1.84c-.11,7.27-.14,13.52,.86,13.77,.11,.04,.23-1.12,.31-2.41,.22,.34,.58,.79,.77,.97-.2,2.52-.77,3.1-1.6,2.75-1.76-.54-1.71-6.43-1.69-13.81h-2.99v5.31h2.38v1.24h-2.38v7.58h-1.26v-7.58h-2.43v-1.24h2.43v-5.31h-2.23v-1.28h7.83Z"/>
      <path d="M494.01,562.16v8.43h-1.37v-1.03h-5.17v5.83h-1.39v-5.83h-5.15v1.12h-1.31v-8.52h6.46v-3.21h1.39v3.21h6.54Zm-7.92,6.09v-4.77h-5.15v4.77h5.15Zm6.55,0v-4.77h-5.17v4.77h5.17Z"/>
      <path d="M481.61,583.55c-.29,2.11-.85,5.15-1.58,7.06l-1.33-.56c.77-1.84,1.37-4.65,1.62-6.75l1.3,.25Zm2.92-1.6v8.88c0,.83,.22,.99,1.24,.99h3.44c1.12,0,1.28-.63,1.42-3.73,.32,.25,.88,.49,1.26,.59-.2,3.4-.61,4.39-2.61,4.39h-3.62c-1.94,0-2.48-.49-2.48-2.27v-8.86h1.35Zm.38-4.36c1.67,1.15,3.82,2.84,4.84,3.98l-.95,.99c-.99-1.12-3.08-2.88-4.77-4.09l.88-.88Zm7.83,5.24c1.04,2.14,2.03,4.9,2.41,6.75l-1.31,.52c-.36-1.85-1.33-4.68-2.34-6.79l1.24-.49Z"/>
    </g>
  </g>
  <g>
    <path d="M162.41,450.96v15.63h-1.33v-.79h-12.28v.79h-1.28v-15.63h14.89Zm-1.33,13.61v-12.37h-12.28v12.37h12.28Zm-5.98-2.72c-1.87,.36-3.78,.72-5.26,.99l-.23-1.01c1.39-.22,3.39-.56,5.4-.9l.09,.92Zm4.41-5.26c-.45,1.67-1.13,3.13-2,4.38,.4,.97,.85,1.58,1.4,1.67,.23,.05,.41-.68,.52-1.84,.23,.23,.63,.49,.9,.61-.22,1.93-.79,2.63-1.76,2.32-.76-.16-1.35-.79-1.84-1.76-.7,.81-1.51,1.53-2.41,2.11-.16-.23-.56-.65-.79-.86,1.08-.61,2-1.42,2.75-2.39-.45-1.42-.76-3.26-.97-5.26h-5.53v-1.03h5.42c-.05-.63-.11-1.28-.14-1.93h1.15c.04,.65,.07,1.3,.13,1.93h3.85v1.03h-3.76c.16,1.51,.38,2.92,.67,4.07,.56-.97,1.01-2.05,1.31-3.26l1.1,.22Zm-5.08,.07v3.53h-4.02v-3.53h4.02Zm-.99,.85h-2.09v1.85h2.09v-1.85Zm5.69-3.13c-.38-.42-1.21-.97-1.91-1.3l.63-.68c.68,.31,1.51,.81,1.93,1.22l-.65,.76Z"/>
    <path d="M161.3,475.4c-.81,.67-1.8,1.39-2.77,2.03,.83,2.38,2.54,4.41,4.79,5.28-.29,.25-.68,.76-.86,1.1-2.29-1.03-4-3.11-4.97-5.71-.27,.18-.58,.36-.85,.5,.61,2.32,.16,4.54-.81,5.29-.58,.49-1.04,.63-1.84,.63-.41,0-.97-.02-1.55-.04,0-.38-.14-.9-.34-1.26,.65,.05,1.24,.09,1.62,.09,.47,0,.81-.05,1.15-.38,.54-.4,.86-1.64,.7-3.1-2.05,1.57-5.13,3.06-7.71,3.85-.14-.34-.45-.83-.7-1.13,2.88-.67,6.37-2.34,8.16-3.96-.13-.41-.27-.85-.49-1.26-1.76,1.21-4.54,2.47-6.68,3.13-.14-.29-.43-.77-.68-1.04,2.25-.54,5.26-1.82,6.82-2.99-.23-.38-.52-.72-.86-1.06-1.6,.9-3.46,1.6-5.19,2.12-.13-.27-.5-.81-.74-1.06,2.27-.54,4.72-1.44,6.43-2.61h-4.1v-1.17h10.35v1.17h-4.47c-.4,.34-.81,.65-1.28,.95,.83,.83,1.46,1.78,1.84,2.75,1.37-.88,2.92-2.07,3.93-3.01l1.1,.86Zm-12.42-2h-1.3v-3.69h6.75c-.2-.45-.43-.92-.67-1.31l1.37-.4c.32,.5,.68,1.19,.88,1.71h6.64v3.69h-1.35v-2.45h-12.33v2.45Z"/>
    <path d="M152.1,491.06h-5.15v-1.08h5.15v1.08Zm1.42,9.29c-1.44,.86-3.71,1.71-5.49,2.2-.23-.27-.68-.77-.99-1.01,1.84-.38,4-1.03,5.28-1.73l1.21,.54Zm-1.87-12.12h-4.3v-1.04h4.3v1.04Zm-2.34,4.23h11.65v7.22h-11.65v-7.22Zm1.3,2.12h9.02v-1.22h-9.02v1.22Zm0,2.09h9.02v-1.22h-9.02v1.22Zm0,2.12h9.02v-1.26h-9.02v1.26Zm4.32-10.42c-.4,.68-.86,1.31-1.35,1.8-.22-.2-.72-.54-1.01-.68,.94-.85,1.67-2.11,2.07-3.42l1.21,.27c-.11,.34-.25,.67-.38,.99h6.03l.22-.05,.9,.31c-.45,.92-1.03,1.96-1.51,2.59l-1.06-.38c.27-.38,.59-.9,.85-1.42h-2.86v.23c0,.18-.02,.38-.05,.59,.95,1.08,2.92,1.78,5.28,1.98-.25,.25-.59,.74-.76,1.06-2.05-.29-3.78-1.01-4.9-2.11-.59,.88-2.02,1.71-5.19,2.2-.14-.29-.49-.77-.72-.99,4.66-.63,5.1-1.85,5.1-2.79v-.18h-1.85Zm2.7,11.42c1.93,.59,4.03,1.37,5.29,1.95l-1.17,.77c-1.15-.58-3.1-1.35-5.04-2l.92-.72Z"/>
    <path d="M151.21,512.72c-.34,1.58-.86,3.33-1.49,4.65,.36,.2,.77,.54,1.46,.94,1.26,.77,2.9,.9,5.02,.9,2.32,0,5.22-.18,7.24-.38-.18,.36-.36,.99-.4,1.39-1.35,.09-4.75,.2-6.9,.2-2.36,0-3.94-.2-5.26-.99-.72-.43-1.4-1.04-1.8-1.04s-1.01,1.13-1.51,2.27l-.94-1.21c.63-.9,1.24-1.64,1.8-2,.54-1.03,1.01-2.45,1.28-3.75h-2.34c.49-1.06,1.06-2.59,1.55-4.02h-2.02v-1.21h3.69c-.43,1.3-1.01,2.81-1.48,4.05h1.24l.22-.05,.63,.25Zm-2.45-5.2c-.2-.77-.61-2.02-.92-2.95l1.19-.34c.32,.94,.72,2.12,.95,2.9l-1.22,.4Zm5.08,10.37h-1.28v-9.27h5.15c-1.08-.52-2.36-1.1-3.44-1.49l.85-.74c.77,.25,1.66,.61,2.5,.97,.86-.38,1.75-.92,2.47-1.42h-7.51v-1.06h8.79l.27-.07,.81,.63c-.95,.92-2.3,1.82-3.64,2.47,.52,.27,1.01,.5,1.39,.72h2.27v7.92c0,.67-.14,.97-.61,1.17s-1.22,.22-2.43,.22c-.05-.34-.2-.79-.36-1.12,.85,.04,1.6,.02,1.82,.02,.23,0,.31-.07,.31-.31v-1.64h-3.13v2.94h-1.21v-2.94h-3.01v3.01Zm0-8.25v1.58h3.01v-1.58h-3.01Zm3.01,4.21v-1.64h-3.01v1.64h3.01Zm4.34-4.21h-3.13v1.58h3.13v-1.58Zm0,4.21v-1.64h-3.13v1.64h3.13Z"/>
    <path d="M159.14,530.61c-.5,1.6-1.19,2.92-2.11,3.96,2.16,.92,4.16,1.93,5.53,2.81l-1.01,1.17c-1.33-.9-3.35-1.96-5.58-2.93-1.82,1.53-4.34,2.41-7.71,2.99-.13-.36-.56-.99-.85-1.33,3.1-.4,5.42-1.08,7.09-2.29-1.67-.7-3.42-1.33-4.99-1.84,.52-.7,1.1-1.58,1.67-2.54h-3.91v-1.28h4.61c.59-1.08,1.12-2.16,1.49-3.13l1.49,.27c-.36,.92-.83,1.89-1.35,2.86h4.38c.13-.56,.23-1.15,.32-1.78l1.57,.14c-.09,.58-.2,1.13-.32,1.64h3.3v1.28h-3.64Zm-10.06-2.81h-1.33v-3.6h6.7c-.25-.58-.58-1.28-.88-1.84l1.42-.36c.38,.68,.85,1.57,1.12,2.2h6.19v3.6h-1.39v-2.36h-11.83v2.36Zm3.76,2.81c-.41,.7-.81,1.35-1.21,1.93,1.3,.41,2.66,.94,4.02,1.46,.85-.9,1.48-2.02,1.94-3.39h-4.75Z"/>
    <path d="M155.72,540.63c1.67,2.5,4.79,4.95,7.63,6.14-.32,.27-.77,.77-.99,1.13-2.7-1.3-5.53-3.62-7.36-6-1.85,2.3-4.92,4.81-7.49,6.21-.18-.36-.5-.83-.81-1.13,2.29-1.06,4.97-3.1,6.75-5.1h-3.2v-1.26h5.47Zm-.07,14.22h6.95v1.22h-15.16v-1.22h6.82v-3.01h-5.04v-1.19h5.04v-2.74h-4.27v-1.21h10.01v1.21h-4.36v2.74h5.1v1.19h-5.1v3.01Z"/>
    <path d="M146.98,559.1h6.3v1.22h-2.79c-.29,1.48-.67,2.93-1.12,4.27h3.58v7.71h-3.62v1.44h-1.13v-6.5c-.31,.52-.59,1.03-.95,1.46-.07-.31-.38-1.06-.59-1.42,1.26-1.69,2.09-4.21,2.57-6.95h-2.25v-1.22Zm4.79,6.68h-2.43v5.31h2.43v-5.31Zm11.47,1.03h-2.03v7.74h-1.28v-7.74h-2.93c-.05,2.74-.52,5.73-2.56,7.83-.22-.23-.7-.61-1.01-.77,1.84-1.93,2.23-4.65,2.29-7.06h-1.96v-1.28h1.98v-5.17h-1.48v-1.26h8.62v1.26h-1.67v5.17h2.03v1.28Zm-3.31-1.28v-5.17h-2.92v5.17h2.92Z"/>
    <path d="M161.37,590.88c.54,0,.63-.34,.68-2.68,.31,.25,.9,.49,1.28,.59-.14,2.74-.52,3.4-1.82,3.4h-2.07c-1.42,0-1.84-.41-1.84-1.87v-3.55h-3.08c-.32,2.14-1.75,4.45-6.73,5.87-.2-.36-.61-.85-.92-1.13,4.43-1.22,5.83-3.08,6.21-4.74h-5.01v-1.24h5.15v-2.2h1.39v2.2h4.38v4.77c0,.49,.09,.58,.63,.58h1.75Zm-12.59-9.76h-1.31v-3.24h7c-.16-.5-.36-1.08-.56-1.55l1.35-.23c.23,.54,.52,1.24,.72,1.78h6.73v3.08h-1.39v-1.86h-3.69v2.99c0,.47,.07,.65,.52,.65h2.74c.4,0,1.04-.04,1.37-.11,.04,.34,.07,.81,.11,1.13-.29,.07-.85,.07-1.42,.07h-2.86c-1.44,0-1.76-.47-1.76-1.76v-2.97h-2.66c-.36,2.7-1.48,4.16-5.29,4.93-.13-.34-.47-.83-.72-1.1,3.42-.59,4.3-1.67,4.61-3.84h-3.48v2.02Z"/>
    <path d="M152.64,595.32c-.54,1.48-1.19,3.22-1.8,4.66,1.31,1.48,1.62,2.77,1.62,3.89,0,.95-.22,1.75-.7,2.09-.25,.2-.58,.31-.94,.34-.36,.05-.81,.05-1.21,.04-.02-.34-.13-.85-.34-1.19,.41,.04,.76,.05,1.04,.02,.22-.02,.41-.05,.56-.16,.29-.2,.38-.7,.38-1.26,0-.97-.32-2.2-1.6-3.62,.5-1.3,1.04-2.84,1.42-4.05h-2.38v14.46h-1.21v-15.68h4.07l.22-.05,.86,.52Zm9.07,13.86c.4,0,.47-.31,.5-2.27,.29,.22,.79,.43,1.15,.49-.11,2.34-.45,2.93-1.53,2.93h-1.58c-1.26,0-1.55-.38-1.55-1.66v-4.72h-1.89c-.31,3.29-1.17,5.4-4.57,6.59-.14-.32-.5-.81-.77-1.06,3.1-.97,3.82-2.74,4.05-5.53h-2.5v-1.22h10.14v1.22h-3.19v4.7c0,.45,.07,.52,.47,.52h1.28Zm-7.53-9.69h-1.24v-3.13h4.57c-.2-.61-.59-1.39-.97-1.98l1.21-.4c.47,.7,.95,1.64,1.17,2.23l-.38,.14h4.48v3.13h-1.28v-1.96h-7.56v1.96Zm.2,1.22v-1.19h7.18v1.19h-7.18Z"/>
  </g>
  <g>
    <g>
      <path d="M320.8,462.79c-.16,.79-.56,1.6-1.55,2.38,.81,.36,1.53,.72,2.07,1.06l-.88,.77c-.58-.36-1.35-.77-2.21-1.17-1.15,.59-2.77,1.13-5.04,1.55-.11-.27-.36-.67-.56-.9,1.91-.32,3.33-.74,4.34-1.19-.92-.4-1.87-.74-2.77-.99,.29-.36,.61-.76,.92-1.19l-2.12,.11-.13-.99c.81-.02,1.82-.07,2.92-.11,.27-.49,.56-.95,.81-1.42h-2.93v-2.93h3.4v-.74h-2.9v-1.94h-1.21v-1.03h1.21v-1.84h2.9v-1.26h1.06v1.26h3.06v1.84h1.22v1.03h-1.22v1.94h-3.06v.74h3.49v2.93h-3.8c-.22,.45-.47,.9-.76,1.35,.88-.04,1.8-.09,2.74-.14v-.85h1.1v.79l.9-.05-.02,.94-.97,.05Zm-6-2.99h2.25v-1.12h-2.25v1.12Zm.5-6.64v.95h1.75v-.95h-1.75Zm1.75,2.93v-1.08h-1.75v1.08h1.75Zm-.63,6.93c-.18,.29-.38,.56-.56,.81,.74,.23,1.51,.52,2.25,.83,.9-.58,1.31-1.22,1.51-1.8l-3.21,.16Zm1.69-9.87v.95h1.87v-.95h-1.87Zm1.87,2.93v-1.08h-1.87v1.08h1.87Zm-1.87,2.59v1.12h2.3v-1.12h-2.3Zm9.79-3.08c-.34,2.68-.81,4.97-1.64,6.9,.79,1.62,1.76,2.94,3.04,3.75-.27,.23-.63,.63-.81,.95-1.17-.81-2.11-1.98-2.83-3.4-.81,1.48-1.85,2.72-3.26,3.71-.11-.25-.49-.77-.74-1.01,1.53-1.01,2.61-2.36,3.38-4.05-.58-1.4-.99-3.01-1.31-4.75-.29,.74-.59,1.41-.95,1.98-.2-.18-.65-.63-.92-.81,1.19-1.89,1.89-4.81,2.3-7.76l1.13,.18c-.14,1.04-.34,2.11-.58,3.11h4.39v1.21h-1.22Zm-3.46,0c.27,1.91,.67,3.73,1.21,5.33,.52-1.55,.83-3.33,1.04-5.33h-2.25Z"/>
      <path d="M318.45,469.41c-.49,1.31-1.12,2.59-1.82,3.82v12.15h-1.33v-10.07c-.56,.81-1.17,1.53-1.78,2.18-.13-.32-.5-1.01-.76-1.31,1.76-1.73,3.44-4.41,4.43-7.15l1.26,.38Zm10.66,13.97v1.3h-11.2v-1.3h6.28c.65-2.41,1.37-6.23,1.71-8.91l1.39,.25c-.47,2.75-1.21,6.27-1.85,8.66h3.67Zm-.74-9.87h-9.7v-1.3h9.7v1.3Zm-7.31,9.04c-.14-1.87-.67-5.17-1.22-7.67l1.21-.27c.59,2.5,1.13,5.73,1.33,7.56l-1.31,.38Zm2.03-10.53c-.14-.76-.5-1.96-.85-2.86l1.26-.32c.32,.9,.74,2.05,.9,2.79l-1.31,.4Z"/>
      <path d="M315.57,494.25v2.68c0,2.04-.31,4.79-1.93,6.64-.2-.25-.72-.7-1.01-.86,1.46-1.67,1.64-4,1.64-5.8v-3.78h2.27c-.18-.23-.47-.5-.65-.67,1.42-.27,3.06-.63,4.61-1.06-1.37-.4-2.77-.76-4.05-1.04l.79-.65h-2.88v-1.1h6.64c-.31-.45-.65-.94-.97-1.33l.95-.49c.47,.54,1.03,1.26,1.37,1.82h6.03v1.1h-2.74l.72,.43c-.79,.43-1.73,.85-2.75,1.21,1.31,.4,2.54,.79,3.44,1.12l-.72,.67h2.61v1.12h-13.38Zm13.67,7.45v1.12h-13.34v-1.12h5.89v-1.82h-4.2v-1.08h4.2v-1.6h-3.76c-.5,.86-1.1,1.64-1.71,2.21-.13-.23-.47-.86-.7-1.1,.99-.94,1.85-2.32,2.38-3.76l1.15,.32c-.16,.41-.32,.81-.5,1.22h3.15v-1.53h1.31v1.53h4.84v1.1h-4.84v1.6h4.45v1.08h-4.45v1.82h6.14Zm-3.33-8.57c-1.04-.4-2.36-.83-3.82-1.28-1.62,.52-3.33,.94-4.86,1.28h8.68Zm-8.26-3.42c1.4,.34,2.99,.76,4.52,1.21,1.15-.38,2.2-.77,3.01-1.21h-7.53Z"/>
      <path d="M319.46,518.52c-1.3,.97-3.65,1.89-5.53,2.32-.18-.32-.54-.76-.81-1.01,1.85-.31,4.14-1.01,5.33-1.78l1.01,.47Zm9.4-2.5v1.13h-7.22v4.27h-1.31v-4.27h-7.11v-1.13h7.11v-1.35h-5.42v-1.03h5.42v-1.3h-6.34v-1.08h3.89c-.18-.5-.54-1.21-.92-1.73l.95-.25h-4.65v-1.12h2.9c-.27-.72-.88-1.8-1.44-2.61l1.13-.4c.63,.81,1.28,1.93,1.53,2.65l-.9,.36h2.2v-3.19h1.26v3.19h2.14v-3.19h1.28v3.19h2.18l-.72-.23c.5-.74,1.08-1.93,1.39-2.74l1.37,.38c-.5,.92-1.1,1.91-1.57,2.59h2.77v1.12h-4.68l1.17,.32c-.41,.59-.85,1.21-1.24,1.66h4.12v1.08h-6.52v1.3h5.64v1.03h-5.64v1.35h7.22Zm-10.6-6.73c.41,.56,.79,1.3,.95,1.78l-.74,.2h4.97l-.63-.2c.36-.5,.81-1.26,1.06-1.78h-5.62Zm5.35,8.68c1.69,.56,3.98,1.42,5.22,2l-.83,.85c-1.19-.58-3.48-1.5-5.19-2.12l.79-.72Z"/>
      <path d="M323.12,532.16c-.83,.43-1.67,.85-2.56,1.21h6.77v5.96h-1.3v-.52h-7.94v.58h-1.26v-4.61c-1.13,.36-2.3,.68-3.46,.97-.13-.29-.47-.88-.67-1.15,2.63-.56,5.31-1.37,7.74-2.43h-7.36v-1.1h6.73v-1.35h-4.95v-1.08h4.95v-1.26h-5.71v-3.69h13.94v3.69h-6.93v1.26h4.03v.92c.68-.49,1.3-1.01,1.85-1.55l1.04,.67c-.88,.87-1.93,1.67-3.06,2.4h4v1.1h-5.87Zm-4.86-7.51h-2.86v1.73h2.86v-1.73Zm7.78,9.72h-7.94v1.19h7.94v-1.19Zm0,3.42v-1.31h-7.94v1.31h7.94Zm-3.58-11.42v-1.73h-2.95v1.73h2.95Zm.25,4.68c.79-.41,1.53-.88,2.21-1.35h-3.8v1.35h1.58Zm.99-4.68h3.04v-1.73h-3.04v1.73Z"/>
    </g>
    <g>
      <path d="M285.78,455.95h-5.15v-1.08h5.15v1.08Zm1.42,9.29c-1.44,.86-3.71,1.71-5.49,2.2-.23-.27-.68-.77-.99-1.01,1.84-.38,4-1.03,5.28-1.73l1.21,.54Zm-1.87-12.12h-4.3v-1.04h4.3v1.04Zm-2.34,4.23h11.65v7.22h-11.65v-7.22Zm1.3,2.12h9.02v-1.22h-9.02v1.22Zm0,2.09h9.02v-1.22h-9.02v1.22Zm0,2.12h9.02v-1.26h-9.02v1.26Zm4.32-10.42c-.4,.68-.86,1.31-1.35,1.8-.22-.2-.72-.54-1.01-.68,.94-.85,1.67-2.11,2.07-3.42l1.21,.27c-.11,.34-.25,.67-.38,.99h6.03l.22-.05,.9,.31c-.45,.92-1.03,1.96-1.51,2.59l-1.06-.38c.27-.38,.59-.9,.85-1.42h-2.86v.23c0,.18-.02,.38-.05,.59,.95,1.08,2.92,1.78,5.28,1.98-.25,.25-.59,.74-.76,1.06-2.05-.29-3.78-1.01-4.9-2.11-.59,.88-2.02,1.71-5.19,2.2-.14-.29-.49-.77-.72-.99,4.66-.63,5.1-1.85,5.1-2.79v-.18h-1.85Zm2.7,11.42c1.93,.59,4.03,1.37,5.29,1.95l-1.17,.77c-1.15-.58-3.1-1.35-5.04-2l.92-.72Z"/>
      <path d="M284.89,477.6c-.34,1.58-.86,3.33-1.49,4.65,.36,.2,.77,.54,1.46,.94,1.26,.77,2.9,.9,5.02,.9,2.32,0,5.22-.18,7.24-.38-.18,.36-.36,.99-.4,1.39-1.35,.09-4.75,.2-6.9,.2-2.36,0-3.94-.2-5.26-.99-.72-.43-1.4-1.04-1.8-1.04s-1.01,1.13-1.51,2.27l-.94-1.21c.63-.9,1.24-1.64,1.8-2,.54-1.03,1.01-2.45,1.28-3.75h-2.34c.49-1.06,1.06-2.59,1.55-4.02h-2.02v-1.21h3.69c-.43,1.3-1.01,2.81-1.48,4.05h1.24l.22-.05,.63,.25Zm-2.45-5.2c-.2-.77-.61-2.02-.92-2.95l1.19-.34c.32,.94,.72,2.12,.95,2.9l-1.22,.4Zm5.08,10.37h-1.28v-9.27h5.15c-1.08-.52-2.36-1.1-3.44-1.49l.85-.74c.77,.25,1.66,.61,2.5,.97,.86-.38,1.75-.92,2.47-1.42h-7.51v-1.06h8.79l.27-.07,.81,.63c-.95,.92-2.3,1.82-3.64,2.47,.52,.27,1.01,.5,1.39,.72h2.27v7.92c0,.67-.14,.97-.61,1.17s-1.22,.22-2.43,.22c-.05-.34-.2-.79-.36-1.12,.85,.04,1.6,.02,1.82,.02,.23,0,.31-.07,.31-.31v-1.64h-3.13v2.94h-1.21v-2.94h-3.01v3.01Zm0-8.25v1.58h3.01v-1.58h-3.01Zm3.01,4.21v-1.64h-3.01v1.64h3.01Zm4.34-4.21h-3.13v1.58h3.13v-1.58Zm0,4.21v-1.64h-3.13v1.64h3.13Z"/>
      <path d="M292.82,495.49c-.5,1.6-1.19,2.92-2.11,3.96,2.16,.92,4.16,1.93,5.53,2.81l-1.01,1.17c-1.33-.9-3.35-1.96-5.58-2.93-1.82,1.53-4.34,2.41-7.71,2.99-.13-.36-.56-.99-.85-1.33,3.1-.4,5.42-1.08,7.09-2.29-1.67-.7-3.42-1.33-4.99-1.84,.52-.7,1.1-1.58,1.67-2.54h-3.91v-1.28h4.61c.59-1.08,1.12-2.16,1.49-3.13l1.49,.27c-.36,.92-.83,1.89-1.35,2.86h4.38c.13-.56,.23-1.15,.32-1.78l1.57,.14c-.09,.58-.2,1.13-.32,1.64h3.3v1.28h-3.64Zm-10.06-2.81h-1.33v-3.6h6.7c-.25-.58-.58-1.28-.88-1.84l1.42-.36c.38,.68,.85,1.57,1.12,2.2h6.19v3.6h-1.39v-2.36h-11.83v2.36Zm3.76,2.81c-.41,.7-.81,1.35-1.21,1.93,1.3,.41,2.66,.94,4.02,1.46,.85-.9,1.48-2.02,1.94-3.39h-4.75Z"/>
      <path d="M289.39,505.52c1.67,2.5,4.79,4.95,7.63,6.14-.32,.27-.77,.77-.99,1.13-2.7-1.3-5.53-3.62-7.36-6-1.85,2.3-4.92,4.81-7.49,6.21-.18-.36-.5-.83-.81-1.13,2.29-1.06,4.97-3.1,6.75-5.1h-3.2v-1.26h5.47Zm-.07,14.22h6.95v1.22h-15.16v-1.22h6.82v-3.01h-5.04v-1.19h5.04v-2.74h-4.27v-1.21h10.01v1.21h-4.36v2.74h5.1v1.19h-5.1v3.01Z"/>
      <path d="M290.8,532.19c-.83,.43-1.67,.85-2.56,1.21h6.77v5.96h-1.3v-.52h-7.94v.58h-1.26v-4.61c-1.13,.36-2.3,.68-3.46,.97-.13-.29-.47-.88-.67-1.15,2.63-.56,5.31-1.37,7.74-2.43h-7.36v-1.1h6.73v-1.35h-4.95v-1.08h4.95v-1.26h-5.71v-3.69h13.94v3.69h-6.93v1.26h4.03v.92c.68-.49,1.3-1.01,1.85-1.55l1.04,.67c-.88,.87-1.93,1.67-3.06,2.4h4v1.1h-5.87Zm-4.86-7.51h-2.86v1.73h2.86v-1.73Zm7.78,9.72h-7.94v1.19h7.94v-1.19Zm0,3.42v-1.31h-7.94v1.31h7.94Zm-3.58-11.42v-1.73h-2.95v1.73h2.95Zm.25,4.68c.79-.41,1.53-.88,2.21-1.35h-3.8v1.35h1.58Zm.99-4.68h3.04v-1.73h-3.04v1.73Z"/>
    </g>
  </g>
  <rect class="cls-10" x="288.85" y="368.92" width="32" height="106.18" rx="4.74" ry="4.74" transform="translate(726.87 117.17) rotate(90)"/>
  <path class="cls-3" d="M125.13,225.12v-9c0-5.52,3.82-10,8.54-10H477.12c4.72,0,8.54,4.48,8.54,10v9"/>
  <path class="cls-4" d="M304.89,383.6h136.98c7.09,0,12.84,4.48,12.84,10v27.38"/>
  <path class="cls-5" d="M304.89,383.6H167.92c-7.09,0-12.84,4.48-12.84,10v9"/>
  <rect class="cls-7" x="109.13" y="146.53" width="32" height="195.72" rx="5" ry="5" transform="translate(369.52 119.27) rotate(90)"/>
  <rect class="cls-7" x="469.66" y="146.53" width="32" height="195.72" rx="5" ry="5" transform="translate(730.05 -241.27) rotate(90)"/>
  <g>
    <g>
      <path d="M79.37,276.03h-8.64v-1.08h2.39c.13-.43,.25-.94,.38-1.46h-1.94v-1.06h2.18c.13-.49,.22-.99,.31-1.42l1.22,.11c-.09,.41-.18,.86-.29,1.31h3.08v2.52h1.31v1.08Zm-3.01,9.13v2.23h-1.28v-2.23h-3.82c.18-.74,.36-1.8,.5-2.72h-.92v-1.03h4.23v-.94h-3.4v-3.51h6.68v3.51h-2v.94h2.48v1.03h-2.48v1.66h2.7v1.06h-2.7Zm-1.28-1.06v-1.66h-2.14c-.07,.54-.18,1.13-.27,1.66h2.41Zm-2.14-4.56h4.12v-1.64h-4.12v1.64Zm1.8-6.05c-.13,.52-.25,1.03-.38,1.46h2.52v-1.46h-2.14Zm11.74-.65c-.2,9.65-.36,12.71-.95,13.58-.32,.5-.68,.65-1.19,.72-.5,.07-1.28,.05-2.03,.02-.02-.36-.14-.88-.36-1.24,.81,.07,1.55,.07,1.89,.07,.25,0,.43-.05,.59-.32,.45-.63,.65-3.66,.83-12.37h-1.91c-.11,4.93-.52,10.84-4.05,14.01-.22-.27-.61-.63-.94-.79,1.75-1.51,2.66-3.73,3.19-6.14-.58-.95-1.6-2.43-2.41-3.53l.88-.54c.58,.74,1.24,1.64,1.78,2.43,.25-1.84,.32-3.71,.34-5.44h-2.68v-1.15h7.02v.7Z"/>
      <path d="M70.4,297.04c.49-1.19,.81-3.15,.94-4.61l1.01,.14c-.09,1.48-.43,3.51-.9,4.83l-1.04-.36Zm2.59-8.01h1.33v16.44h-1.33v-16.44Zm2.4,2.88c.54,.97,1.1,2.25,1.31,3.01l-1.01,.49c-.2-.77-.74-2.07-1.24-3.06l.94-.43Zm11.47,11.67v1.28h-10.98v-1.28h5.15v-4.5h-3.82v-1.24h3.82v-3.73h-2.63c-.36,1.08-.77,2.02-1.26,2.79-.27-.18-.86-.47-1.19-.61,1.04-1.57,1.76-3.98,2.18-6.43l1.3,.22c-.18,.94-.4,1.87-.65,2.75h2.25v-3.73h1.33v3.73h4.07v1.28h-4.07v3.73h3.67v1.24h-3.67v4.5h4.5Z"/>
      <path d="M75.87,313.33c-.29,2.56-.81,4.65-1.55,6.32,1.75,1.76,4.23,2.16,7.29,2.16,.7,0,4.57,0,5.49-.02-.2,.31-.43,.88-.5,1.24h-5.02c-3.33,0-5.94-.47-7.8-2.29-.65,1.1-1.39,1.96-2.23,2.63-.22-.27-.68-.74-.99-.92,.92-.65,1.71-1.57,2.36-2.7-.67-.9-1.19-2.03-1.62-3.46l.99-.4c.31,1.06,.7,1.94,1.17,2.66,.49-1.21,.85-2.61,1.08-4.23h-2.92c.77-1.31,1.76-3.26,2.57-4.99h-3.15v-1.19h5.06c-.76,1.58-1.71,3.49-2.5,4.99h1.28l.23-.04,.76,.22Zm4.54-3.67h-3.46v-1.06h3.46v-1.48h1.26v1.48h3.91v2.38h1.24v1.1h-1.24v2.41h-3.91v1.35h4.25v1.03h-4.25v1.46h4.92v1.1h-4.92v1.78h-1.26v-1.78h-4.47v-1.1h4.47v-1.46h-3.71v-1.03h3.71v-1.35h-3.58v-1.08h3.58v-1.33h-4.63v-1.1h4.63v-1.31Zm1.26,0v1.31h2.7v-1.31h-2.7Zm2.7,2.41h-2.7v1.33h2.7v-1.33Z"/>
      <path d="M77.55,329.19h-6.81v-1.1h6.81v1.1Zm8.55,4.07c-.67,2.18-1.78,3.87-3.21,5.19,1.22,.83,2.65,1.44,4.25,1.8-.27,.29-.65,.83-.83,1.21-1.69-.45-3.19-1.17-4.47-2.14-1.33,.99-2.85,1.71-4.47,2.2-.13-.34-.38-.81-.61-1.12h-4.11v.85h-1.17v-6.05h5.31v5.08c1.42-.38,2.81-.99,4.02-1.82-1.12-1.1-2.03-2.45-2.68-3.98l.77-.27h-1.57v-1.26h7.67l.23-.05,.85,.38Zm-9.29-2.81v1.06h-5.29v-1.06h5.29Zm-5.29,2.34h5.31v1.06h-5.31v-1.06Zm4.11,3.51h-2.95v2.97h2.95v-2.97Zm-1.58-8.41c-.27-.65-.85-1.66-1.35-2.41l1.04-.52c.52,.74,1.1,1.67,1.39,2.32l-1.08,.61Zm6.3-.2c0,1.62-.47,3.53-2.61,4.79-.18-.27-.63-.77-.86-.97,1.93-1.1,2.23-2.57,2.23-3.85v-1.98h5.47v4.18c0,.5,.04,.67,.29,.67h1.06c.23,0,.58-.04,.79-.09,.02,.34,.07,.85,.09,1.15-.18,.07-.54,.09-.88,.09h-1.17c-1.17,0-1.42-.5-1.42-1.85v-2.88h-2.99v.76Zm-1.03,6.5c.59,1.33,1.46,2.48,2.54,3.44,1.06-.94,1.94-2.07,2.54-3.44h-5.08Z"/>
      <path d="M85.77,357.48c0,.92-.2,1.39-.81,1.62-.63,.23-1.75,.25-3.35,.25-.05-.4-.25-1.06-.47-1.44,1.24,.04,2.48,.04,2.84,.02,.34-.02,.43-.11,.43-.45v-12.01h-12.95v-1.28h14.3v13.29Zm-3.4-8.93h-10.77v-1.21h10.77v1.21Zm-8.32,7.65v1.31h-1.31v-7.04h8.41v5.73h-7.09Zm0-4.54v3.35h5.78v-3.35h-5.78Z"/>
    </g>
    <g>
      <path d="M106.78,275.98h-5.15v-1.08h5.15v1.08Zm1.42,9.29c-1.44,.86-3.71,1.71-5.49,2.2-.23-.27-.68-.77-.99-1.01,1.84-.38,4-1.03,5.28-1.73l1.21,.54Zm-1.87-12.12h-4.3v-1.04h4.3v1.04Zm-2.34,4.23h11.65v7.22h-11.65v-7.22Zm1.3,2.12h9.02v-1.22h-9.02v1.22Zm0,2.09h9.02v-1.22h-9.02v1.22Zm0,2.12h9.02v-1.26h-9.02v1.26Zm4.32-10.42c-.4,.68-.86,1.31-1.35,1.8-.22-.2-.72-.54-1.01-.68,.94-.85,1.67-2.11,2.07-3.42l1.21,.27c-.11,.34-.25,.67-.38,.99h6.03l.22-.05,.9,.31c-.45,.92-1.03,1.96-1.51,2.59l-1.06-.38c.27-.38,.59-.9,.85-1.42h-2.86v.23c0,.18-.02,.38-.05,.59,.95,1.08,2.92,1.78,5.28,1.98-.25,.25-.59,.74-.76,1.06-2.05-.29-3.78-1.01-4.9-2.11-.59,.88-2.02,1.71-5.19,2.2-.14-.29-.49-.77-.72-.99,4.66-.63,5.1-1.85,5.1-2.79v-.18h-1.85Zm2.7,11.42c1.93,.59,4.03,1.37,5.29,1.94l-1.17,.77c-1.15-.58-3.1-1.35-5.04-2l.92-.72Z"/>
      <path d="M104.46,296.91c-.68-.52-2.02-1.37-3.02-1.93l.77-.94c.97,.54,2.34,1.3,3.04,1.78l-.79,1.08Zm1.13,2.54c-.74,1.89-1.75,4.11-2.59,5.76l-1.19-.74c.79-1.39,1.91-3.75,2.74-5.76l1.04,.74Zm-.29-7.24c-.68-.54-2.02-1.42-2.99-2.05l.77-.92c.97,.56,2.32,1.39,3.01,1.91l-.79,1.06Zm2.81,2.61c0,3.13-.31,7.58-2.43,10.59-.22-.23-.79-.58-1.1-.7,2.03-2.88,2.21-6.93,2.21-9.89v-4.92h10.95v1.22h-9.63v3.69Zm2.86,5.89c-.59,1.31-1.49,2.75-2.27,3.69-.25-.2-.76-.5-1.08-.68,.83-.86,1.62-2.14,2.14-3.33l1.21,.32Zm2.66-1.33v4.7c0,.67-.11,1.01-.61,1.21-.49,.2-1.24,.2-2.45,.18-.05-.34-.22-.81-.38-1.15,.86,.04,1.66,.02,1.85,.02,.23-.02,.31-.07,.31-.27v-4.68h-3.22v-6.18h2.72c.2-.58,.41-1.31,.52-1.82l1.49,.31c-.25,.52-.5,1.04-.74,1.51h3.92v6.18h-3.42Zm-3.29-3.58h5.47v-1.57h-5.47v1.57Zm0,2.56h5.47v-1.58h-5.47v1.58Zm5.65,1.89c.7,1.1,1.6,2.57,2.05,3.44l-1.22,.54c-.4-.9-1.28-2.39-1.98-3.53l1.15-.45Z"/>
      <path d="M104.33,309.4c-.58,.9-1.22,1.71-1.87,2.32-.2-.22-.65-.67-.94-.88,1.12-.99,2.14-2.43,2.75-3.93l1.19,.32c-.16,.36-.32,.72-.52,1.08h4.65v1.08h-3.4c.56,.49,1.22,1.15,1.57,1.57l-.88,.74c-.36-.47-1.1-1.22-1.67-1.78l.68-.52h-1.55Zm5.49,1.28c.25,.41,.56,.94,.72,1.39h6.55v2.93h-1.33v-1.87h-11.9v1.87h-1.3v-2.93h6.61c-.16-.38-.34-.79-.54-1.13l1.19-.25Zm-3.94,8.37h9.98v4.39h-1.31v-.58h-8.66v.61h-1.33v-9.25h10.37v3.58h-9.04v1.24Zm0-3.8v1.53h7.72v-1.53h-7.72Zm0,4.84v1.73h8.66v-1.73h-8.66Zm11.94-11.76v1.06h-3.87c.65,.52,1.44,1.21,1.85,1.67l-.9,.79c-.41-.5-1.24-1.28-1.91-1.84l.77-.63h-2.05c-.41,.56-.85,1.08-1.31,1.48-.22-.2-.7-.61-1.01-.79,.97-.77,1.78-1.94,2.23-3.17l1.22,.31c-.14,.38-.31,.76-.5,1.12h5.47Z"/>
      <path d="M107.29,337.76c-1.93,.65-3.98,1.35-5.58,1.87l-.31-1.35c.67-.2,1.49-.45,2.41-.76v-4.84h-2.05v-1.26h2.05v-3.91h-2.23v-1.26h5.58v1.26h-2.07v3.91h1.82v1.26h-1.82v4.45l1.96-.65,.23,1.28Zm10.75,1.91v1.22h-11.6v-1.22h5.47v-2.47h-4.09v-1.22h4.09v-2.11h-3.87v-8.01h9.15v8.01h-3.93v2.11h4.2v1.22h-4.2v2.47h4.77Zm-8.77-10.37h2.74v-2.27h-2.74v2.27Zm0,3.4h2.74v-2.3h-2.74v2.3Zm6.64-5.67h-2.75v2.27h2.75v-2.27Zm0,3.37h-2.75v2.3h2.75v-2.3Z"/>
      <path d="M116.63,357.48c0,.92-.2,1.39-.81,1.62-.63,.23-1.75,.25-3.35,.25-.05-.4-.25-1.06-.47-1.44,1.24,.04,2.48,.04,2.84,.02,.34-.02,.43-.11,.43-.45v-12.01h-12.95v-1.28h14.3v13.29Zm-3.4-8.93h-10.77v-1.21h10.77v1.21Zm-8.32,7.65v1.31h-1.31v-7.04h8.41v5.73h-7.09Zm0-4.54v3.35h5.78v-3.35h-5.78Z"/>
    </g>
    <g>
      <path d="M47.77,282.86c-.16,.79-.56,1.6-1.55,2.38,.81,.36,1.53,.72,2.07,1.06l-.88,.77c-.58-.36-1.35-.77-2.21-1.17-1.15,.59-2.77,1.13-5.04,1.55-.11-.27-.36-.67-.56-.9,1.91-.32,3.33-.74,4.34-1.19-.92-.4-1.87-.74-2.77-.99,.29-.36,.61-.76,.92-1.19l-2.12,.11-.13-.99c.81-.02,1.82-.07,2.92-.11,.27-.49,.56-.95,.81-1.42h-2.93v-2.94h3.4v-.74h-2.9v-1.94h-1.21v-1.03h1.21v-1.84h2.9v-1.26h1.06v1.26h3.06v1.84h1.22v1.03h-1.22v1.94h-3.06v.74h3.49v2.94h-3.8c-.22,.45-.47,.9-.76,1.35,.88-.04,1.8-.09,2.74-.14v-.85h1.1v.79l.9-.05-.02,.94-.97,.05Zm-6-2.99h2.25v-1.12h-2.25v1.12Zm.5-6.64v.95h1.75v-.95h-1.75Zm1.75,2.94v-1.08h-1.75v1.08h1.75Zm-.63,6.93c-.18,.29-.38,.56-.56,.81,.74,.23,1.51,.52,2.25,.83,.9-.58,1.31-1.22,1.51-1.8l-3.21,.16Zm1.69-9.87v.95h1.87v-.95h-1.87Zm1.87,2.94v-1.08h-1.87v1.08h1.87Zm-1.87,2.59v1.12h2.3v-1.12h-2.3Zm9.79-3.08c-.34,2.68-.81,4.97-1.64,6.9,.79,1.62,1.76,2.93,3.04,3.75-.27,.23-.63,.63-.81,.95-1.17-.81-2.11-1.98-2.83-3.4-.81,1.48-1.85,2.72-3.26,3.71-.11-.25-.49-.77-.74-1.01,1.53-1.01,2.61-2.36,3.38-4.05-.58-1.4-.99-3.01-1.31-4.75-.29,.74-.59,1.4-.95,1.98-.2-.18-.65-.63-.92-.81,1.19-1.89,1.89-4.81,2.3-7.76l1.13,.18c-.14,1.04-.34,2.11-.58,3.12h4.39v1.21h-1.22Zm-3.46,0c.27,1.91,.67,3.73,1.21,5.33,.52-1.55,.83-3.33,1.04-5.33h-2.25Z"/>
      <path d="M45.43,289.48c-.49,1.31-1.12,2.59-1.82,3.82v12.15h-1.33v-10.06c-.56,.81-1.17,1.53-1.78,2.18-.13-.32-.5-1.01-.76-1.31,1.76-1.73,3.44-4.41,4.43-7.15l1.26,.38Zm10.66,13.97v1.3h-11.2v-1.3h6.28c.65-2.41,1.37-6.23,1.71-8.91l1.39,.25c-.47,2.75-1.21,6.27-1.85,8.66h3.67Zm-.74-9.87h-9.7v-1.3h9.7v1.3Zm-7.31,9.04c-.14-1.87-.67-5.17-1.22-7.67l1.21-.27c.59,2.5,1.13,5.73,1.33,7.56l-1.31,.38Zm2.03-10.53c-.14-.76-.5-1.96-.85-2.86l1.26-.32c.32,.9,.74,2.05,.9,2.79l-1.31,.4Z"/>
      <path d="M48.78,317.67c1.42,1.58,4.27,3.26,7.54,3.98-.27,.29-.65,.83-.85,1.17-2.75-.74-5.15-2.21-6.7-3.67v4.32h-1.4v-4.36c-1.76,1.73-4.23,3.1-6.72,3.78-.16-.34-.54-.85-.85-1.12,2.97-.68,5.98-2.29,7.56-4.25v-1.55h-4.43v3.46h-1.39v-4.63h5.82v-1.39h-7.11v-1.19h7.11v-1.12h1.4v1.12h6.86v1.19h-6.86v1.39h5.83v3.31c0,.65-.13,.92-.59,1.12-.45,.18-1.17,.18-2.18,.18-.07-.34-.29-.76-.45-1.06,.72,.04,1.42,.02,1.62,.02,.22,0,.27-.07,.27-.25v-2.14h-4.5v1.69Zm-6.12-8.28c-.56,.9-1.21,1.73-1.85,2.34-.2-.23-.65-.67-.94-.88,1.1-.99,2.11-2.43,2.72-3.93l1.17,.32c-.14,.36-.31,.7-.49,1.06h4.61v1.08h-3.4c.59,.5,1.28,1.17,1.62,1.62l-.88,.76c-.34-.52-1.1-1.3-1.73-1.85l.7-.52h-1.53Zm7.42,0c-.43,.63-.9,1.21-1.4,1.67-.22-.22-.7-.61-.99-.79,.97-.83,1.78-2.05,2.23-3.35l1.22,.29c-.13,.38-.29,.74-.47,1.12h5.44v1.06h-3.87c.63,.5,1.39,1.15,1.78,1.62l-.88,.77c-.4-.49-1.21-1.24-1.85-1.76l.77-.63h-1.98Z"/>
      <path d="M46.2,338.31h-4.74v1.31h-1.06v-13.2h5.8v11.88Zm-4.74-10.69v4.05h1.42v-4.05h-1.42Zm0,9.52h1.42v-4.43h-1.42v4.43Zm3.71-9.52h-1.39v4.05h1.39v-4.05Zm0,9.52v-4.43h-1.39v4.43h1.39Zm10.62-9.85c-.72,1.76-1.87,3.26-3.22,4.5,1.1,.86,2.43,1.57,3.87,2-.18,.32-.36,.9-.41,1.26-1.64-.59-3.15-1.44-4.39-2.48-1.44,1.08-3.08,1.93-4.74,2.52-.11-.34-.4-.95-.56-1.22,1.55-.49,3.06-1.21,4.39-2.16-.74-.74-1.35-1.57-1.82-2.45-.54,.7-1.08,1.35-1.66,1.87-.14-.23-.56-.76-.79-.99,1.42-1.26,2.72-3.21,3.51-5.22l1.15,.34c-.22,.54-.47,1.08-.74,1.6h4.39l.25-.05,.76,.49Zm-7.71,7.45h7.11v6.54h-1.24v-.86h-4.68v.88h-1.19v-6.55Zm1.19,1.21v3.28h4.68v-3.28h-4.68Zm.36-7.78c.47,1.04,1.17,1.98,2.02,2.83,.97-.85,1.8-1.82,2.39-2.92h-4.34l-.07,.09Z"/>
      <path d="M54.92,357.48c0,.92-.2,1.39-.81,1.62-.63,.23-1.75,.25-3.35,.25-.05-.4-.25-1.06-.47-1.44,1.24,.04,2.48,.04,2.84,.02,.34-.02,.43-.11,.43-.45v-12.01h-12.95v-1.28h14.3v13.29Zm-3.4-8.93h-10.77v-1.21h10.77v1.21Zm-8.32,7.65v1.31h-1.31v-7.04h8.41v5.73h-7.09Zm0-4.54v3.35h5.78v-3.35h-5.78Z"/>
    </g>
    <g>
      <path d="M140.34,282.86c-.16,.79-.56,1.6-1.55,2.38,.81,.36,1.53,.72,2.07,1.06l-.88,.77c-.58-.36-1.35-.77-2.21-1.17-1.15,.59-2.77,1.13-5.04,1.55-.11-.27-.36-.67-.56-.9,1.91-.32,3.33-.74,4.34-1.19-.92-.4-1.87-.74-2.77-.99,.29-.36,.61-.76,.92-1.19l-2.12,.11-.13-.99c.81-.02,1.82-.07,2.92-.11,.27-.49,.56-.95,.81-1.42h-2.93v-2.94h3.4v-.74h-2.9v-1.94h-1.21v-1.03h1.21v-1.84h2.9v-1.26h1.06v1.26h3.06v1.84h1.22v1.03h-1.22v1.94h-3.06v.74h3.49v2.94h-3.8c-.22,.45-.47,.9-.76,1.35,.88-.04,1.8-.09,2.74-.14v-.85h1.1v.79l.9-.05-.02,.94-.97,.05Zm-6-2.99h2.25v-1.12h-2.25v1.12Zm.5-6.64v.95h1.75v-.95h-1.75Zm1.75,2.94v-1.08h-1.75v1.08h1.75Zm-.63,6.93c-.18,.29-.38,.56-.56,.81,.74,.23,1.51,.52,2.25,.83,.9-.58,1.31-1.22,1.51-1.8l-3.21,.16Zm1.69-9.87v.95h1.87v-.95h-1.87Zm1.87,2.94v-1.08h-1.87v1.08h1.87Zm-1.87,2.59v1.12h2.3v-1.12h-2.3Zm9.79-3.08c-.34,2.68-.81,4.97-1.64,6.9,.79,1.62,1.76,2.93,3.04,3.75-.27,.23-.63,.63-.81,.95-1.17-.81-2.11-1.98-2.83-3.4-.81,1.48-1.85,2.72-3.26,3.71-.11-.25-.49-.77-.74-1.01,1.53-1.01,2.61-2.36,3.38-4.05-.58-1.4-.99-3.01-1.31-4.75-.29,.74-.59,1.4-.95,1.98-.2-.18-.65-.63-.92-.81,1.19-1.89,1.89-4.81,2.3-7.76l1.13,.18c-.14,1.04-.34,2.11-.58,3.12h4.39v1.21h-1.22Zm-3.46,0c.27,1.91,.67,3.73,1.21,5.33,.52-1.55,.83-3.33,1.04-5.33h-2.25Z"/>
      <path d="M138,289.48c-.49,1.31-1.12,2.59-1.82,3.82v12.15h-1.33v-10.06c-.56,.81-1.17,1.53-1.78,2.18-.13-.32-.5-1.01-.76-1.31,1.76-1.73,3.44-4.41,4.43-7.15l1.26,.38Zm10.66,13.97v1.3h-11.2v-1.3h6.28c.65-2.41,1.37-6.23,1.71-8.91l1.39,.25c-.47,2.75-1.21,6.27-1.85,8.66h3.67Zm-.74-9.87h-9.7v-1.3h9.7v1.3Zm-7.31,9.04c-.14-1.87-.67-5.17-1.22-7.67l1.21-.27c.59,2.5,1.13,5.73,1.33,7.56l-1.31,.38Zm2.03-10.53c-.14-.76-.5-1.96-.85-2.86l1.26-.32c.32,.9,.74,2.05,.9,2.79l-1.31,.4Z"/>
      <path d="M147.56,311.62c-.49,2.99-1.21,5.4-2.38,7.36,.97,1.49,2.2,2.65,3.75,3.37-.29,.27-.7,.79-.92,1.13-1.48-.77-2.67-1.91-3.62-3.31-1.03,1.35-2.36,2.47-4.05,3.35-.14-.31-.52-.88-.77-1.17,1.76-.85,3.08-1.96,4.09-3.4-.79-1.48-1.39-3.21-1.85-5.11-.36,.72-.76,1.39-1.17,1.96-.22-.23-.77-.68-1.06-.88l.09-.13h-2.02v4.57l3.08-.7,.13,1.21c-2.95,.72-6.14,1.48-8.37,1.98l-.25-1.33,1.06-.22v-7.99h1.22v7.72l1.84-.4v-10.03h-3.82v-1.3h8.23v1.3h-3.11v3.92h2.45v.63c1.21-1.87,2.02-4.43,2.5-7.13l1.33,.23c-.22,1.06-.49,2.12-.77,3.1h5.62v1.26h-1.21Zm-4.95,.31c.41,2.12,.99,4.09,1.82,5.74,.86-1.66,1.42-3.67,1.78-6.05h-3.48l-.13,.31Z"/>
      <path d="M134.99,328.23v5.29c0,2.43-.2,5.85-1.53,8.05-.25-.25-.83-.65-1.13-.77,1.22-2.03,1.33-5.02,1.33-7.27v-6.54h7.17c-.22-.58-.52-1.24-.81-1.76l1.31-.38c.36,.67,.77,1.51,1.04,2.14h6.23v1.24h-13.61Zm5.04,.74c-.34,.99-.79,2.02-1.33,3.01v9.51h-1.26v-7.54c-.43,.59-.92,1.15-1.42,1.64-.13-.32-.43-.9-.61-1.21,1.5-1.44,2.72-3.82,3.33-5.76l1.3,.36Zm8.59,3.76h-2.05v7.08c0,.81-.18,1.19-.72,1.42-.56,.22-1.46,.23-2.83,.23-.05-.38-.27-.94-.45-1.33,1.04,.05,2.02,.04,2.29,.04,.29-.02,.4-.09,.4-.38v-7.06h-5.38v-1.26h5.38v-2.68h1.31v2.68h2.05v1.26Zm-7.02,1.24c.79,1.12,1.67,2.58,2.09,3.51l-1.13,.56c-.41-.95-1.3-2.47-2.02-3.6l1.06-.47Z"/>
      <path d="M147.49,357.48c0,.92-.2,1.39-.81,1.62-.63,.23-1.75,.25-3.35,.25-.05-.4-.25-1.06-.47-1.44,1.24,.04,2.48,.04,2.84,.02,.34-.02,.43-.11,.43-.45v-12.01h-12.95v-1.28h14.3v13.29Zm-3.4-8.93h-10.77v-1.21h10.77v1.21Zm-8.32,7.65v1.31h-1.31v-7.04h8.41v5.73h-7.09Zm0-4.54v3.35h5.78v-3.35h-5.78Z"/>
    </g>
    <g>
      <path d="M173.39,281.15c.94,2.86,2.59,4.83,4.2,4.81,.52-.02,.74-.74,.83-2.63,.31,.27,.81,.52,1.17,.63-.22,2.63-.76,3.31-2.07,3.31-2.41,.02-4.48-2.54-5.53-6.12h-5.42v4.5l4.32-1.04c0,.36,.07,.95,.14,1.22-4.9,1.31-5.56,1.48-6,1.75-.11-.36-.4-.95-.63-1.22,.32-.16,.79-.58,.79-1.31v-13.07h12.73v5.2h-5.26c.05,.95,.2,1.85,.4,2.72h6.19v1.26h-5.87Zm-6.82-7.92v2.68h10.03v-2.68h-10.03Zm5.1,6.66c-.16-.86-.31-1.76-.36-2.72h-4.74v2.72h5.1Z"/>
      <path d="M179.41,303.58v1.31h-15.92v-1.31h7.2v-4.41h-5.55v-1.3h5.55v-3.94h-6.37v-1.31h7.9c-.7-.83-1.98-1.96-3.06-2.75l1.08-.76c1.15,.83,2.59,2.05,3.29,2.9l-.85,.61h5.82v1.31h-6.39v3.94h5.65v1.3h-5.65v4.41h7.29Z"/>
      <path d="M165.04,318.71c-.18,1.57-.52,3.22-.88,4.34-.22-.13-.74-.29-.99-.36,.4-1.12,.67-2.7,.85-4.14l1.03,.16Zm3.56-4.84c.47,1.13,.99,2.57,1.21,3.44l-1.01,.4c-.05-.25-.14-.56-.22-.86-4.02,.63-4.56,.76-4.9,.94-.04-.27-.23-.85-.38-1.17,.36-.07,.76-.52,1.28-1.21,.29-.34,.85-1.12,1.48-2.11-1.87,.22-2.25,.31-2.48,.43-.07-.25-.25-.85-.38-1.15,.29-.07,.59-.45,.95-.99,.38-.54,1.6-2.59,2.3-4.54l1.13,.49c-.76,1.69-1.73,3.46-2.72,4.83l1.89-.18c.45-.77,.94-1.64,1.31-2.48l1.04,.63c-1.13,2.12-2.52,4.27-3.94,5.98l3.1-.43c-.2-.58-.43-1.15-.63-1.67l.95-.32Zm-1.8,4.61c.25,1.19,.45,2.74,.5,3.78l-1.01,.25c-.04-1.06-.23-2.63-.43-3.85l.94-.18Zm1.89-.47c.41,1.12,.88,2.54,1.06,3.46l-.94,.34c-.18-.95-.61-2.39-1.01-3.49l.88-.31Zm10.52,3.96c0,.74-.14,1.06-.61,1.28-.43,.22-1.17,.23-2.27,.23-.04-.32-.2-.86-.34-1.19,.76,.04,1.48,.02,1.69,.02,.23-.02,.31-.09,.31-.34v-12.89h-6.73v14.42h-1.21v-15.61h9.16v14.08Zm-2.9-2.97c.29,0,.79-.02,1.06-.09,.04,.31,.07,.72,.11,.99-.23,.07-.7,.09-1.15,.09h-2.3c-1.19,0-1.46-.43-1.46-1.62v-1.75h-.67v-1.06h2.45c-.16-.49-.45-1.12-.7-1.58l.83-.32h-2.75v-1.06h3.42c.32-.85,.68-2.11,.85-2.97l.97,.29c-.27,.88-.59,1.91-.88,2.68h1.53v1.06h-3.02c.31,.52,.63,1.22,.79,1.62l-.65,.29h2.67v1.06h-3.71v1.76c0,.47,.05,.61,.43,.61h2.2Zm-3.15-9.42c.45,.79,.86,1.85,.97,2.56l-.86,.31c-.13-.7-.5-1.78-.94-2.57l.83-.29Z"/>
      <path d="M168.48,335.92c-.05-.31-.13-.65-.23-1.06-3.73,.61-4.25,.72-4.59,.9-.07-.25-.27-.9-.41-1.26,.38-.05,.79-.5,1.33-1.15,.29-.32,.88-1.08,1.55-2.07-1.93,.23-2.32,.32-2.57,.45-.07-.27-.27-.86-.41-1.21,.29-.07,.63-.43,1.01-.97,.4-.52,1.69-2.57,2.47-4.54l1.22,.52c-.85,1.71-1.87,3.46-2.92,4.81l1.94-.14c.47-.79,.97-1.62,1.35-2.43l1.15,.68c-1.17,2.05-2.61,4.16-4.09,5.8l2.7-.4c-.16-.59-.38-1.19-.58-1.75l1.01-.23c.47,1.19,.95,2.77,1.13,3.71l-1.06,.34Zm-3.37,.81c-.18,1.57-.52,3.26-.9,4.38-.23-.14-.79-.32-1.08-.41,.41-1.12,.68-2.7,.86-4.14l1.12,.18Zm1.89-.23c.23,1.22,.45,2.81,.5,3.87l-1.08,.22c-.04-1.06-.23-2.68-.45-3.91l1.03-.18Zm1.73-.41c.41,1.06,.85,2.41,1.03,3.33l-1.01,.34c-.16-.92-.59-2.32-.95-3.38l.94-.29Zm10.12-8.75c-.68,1.75-1.75,3.28-2.99,4.57,1.13,.97,2.48,1.84,4.02,2.41-.27,.23-.67,.77-.85,1.12-.13-.05-.27-.11-.4-.18v6.1h-1.3v-.58h-4.99v.61h-1.26v-6.05c-.22,.11-.4,.2-.61,.27-.16-.31-.5-.81-.79-1.06,1.49-.56,3.06-1.49,4.39-2.66-.76-.83-1.37-1.69-1.87-2.52-.54,.67-1.15,1.26-1.75,1.75-.22-.23-.7-.7-1.01-.92,1.66-1.22,3.12-3.15,3.94-5.22l1.26,.34c-.23,.56-.5,1.12-.81,1.64h3.91l.23-.07,.86,.45Zm-.86,7.6c-1.12-.59-2.14-1.33-3.02-2.16-.95,.86-2.02,1.58-3.08,2.16h6.1Zm-.65,4.66v-3.46h-4.99v3.46h4.99Zm-4.38-11.22c.49,.88,1.15,1.8,2,2.67,.86-.88,1.62-1.89,2.14-2.95h-3.94l-.2,.29Z"/>
      <path d="M178.35,357.48c0,.92-.2,1.39-.81,1.62-.63,.23-1.75,.25-3.35,.25-.05-.4-.25-1.06-.47-1.44,1.24,.04,2.48,.04,2.84,.02,.34-.02,.43-.11,.43-.45v-12.01h-12.95v-1.28h14.3v13.29Zm-3.4-8.93h-10.77v-1.21h10.77v1.21Zm-8.32,7.65v1.31h-1.31v-7.04h8.41v5.73h-7.09Zm0-4.54v3.35h5.78v-3.35h-5.78Z"/>
    </g>
    <g>
      <path d="M210.21,279.38c-2.5,5.29-8.64,7.38-14.98,8.14-.09-.38-.31-.97-.54-1.3,2.99-.29,5.92-.9,8.41-2-.63-.68-1.6-1.53-2.52-2.23-.86,.47-1.8,.92-2.83,1.31-.16-.29-.54-.77-.85-.99,3.64-1.31,6.19-3.31,7.51-5.08l1.48,.32c-.36,.45-.74,.9-1.19,1.33h4.34l.27-.07,.9,.56Zm-2.67-6.3c-2.27,3.98-7.51,6.39-12.17,7.36-.11-.36-.4-.92-.63-1.21,2-.36,4.11-1.01,6.01-1.93-.59-.63-1.53-1.42-2.41-2.05-.65,.4-1.37,.76-2.11,1.12-.2-.31-.61-.72-.9-.94,2.86-1.21,5-2.95,6.16-4.43l1.46,.31c-.34,.43-.74,.85-1.17,1.28h4.66l.23-.05,.86,.54Zm-7.13,.72c-.32,.29-.68,.54-1.06,.81,.94,.63,1.94,1.42,2.58,2.11,1.42-.81,2.68-1.8,3.56-2.92h-5.08Zm2.93,6.32c-.5,.43-1.08,.83-1.67,1.22,.95,.68,2,1.58,2.66,2.27,1.62-.9,2.95-2.05,3.87-3.49h-4.86Z"/>
      <path d="M208.29,303.88c.72,0,.83-.47,.92-3.22,.31,.25,.88,.49,1.24,.59-.14,3.06-.5,3.91-2.07,3.91h-2.57c-1.6,0-2.04-.47-2.04-2v-6.41h-3.37c-.34,3.85-1.21,7-5.35,8.68-.16-.32-.54-.81-.85-1.04,3.83-1.46,4.5-4.27,4.77-7.63h-4.56v-1.3h15.75v1.3h-5.06v6.39c0,.61,.14,.74,.85,.74h2.32Zm.38-12.15h-12.68v-1.28h12.68v1.28Z"/>
      <path d="M196.64,317.83c-.22,1.69-.67,3.47-1.57,4.9-.25-.2-.81-.47-1.13-.59,1.41-2.14,1.6-5.11,1.6-7.13v-2.43h7.35v5.26h-6.25Zm3.6-10.19c-.09,.14-.2,.29-.29,.43,1.4,.85,3.08,1.89,3.96,2.61l-.7,1.1c-.88-.74-2.54-1.85-3.98-2.75-1.22,1.49-2.9,2.77-4.52,3.65-.14-.31-.5-.94-.74-1.22,1.98-.95,3.98-2.48,5.06-4.29l1.21,.47Zm-3.62,11.02h6.68v4.66h-1.19v-.7h-4.34v.74h-1.15v-4.7Zm5.02-1.82v-1.22h-4.84c-.02,.38-.04,.81-.07,1.22h4.92Zm-4.84-3.28v1.15h4.84v-1.15h-4.84Zm4.46-2.77v.88h-3.78v-.88h3.78Zm-3.49,8.88v1.89h4.34v-1.89h-4.34Zm8.41-.77h-1.26v-9.87h1.26v9.87Zm3.4-11.78v14.57c0,.85-.22,1.26-.72,1.48-.54,.23-1.42,.27-2.88,.27-.07-.36-.27-.95-.45-1.33,1.08,.04,2.05,.04,2.34,.02,.31-.02,.41-.11,.41-.41v-14.58h1.3Z"/>
      <path d="M196.92,336.42c-.43,1.28-1.19,2.68-1.85,3.58-.22-.16-.67-.5-.94-.65,.7-.85,1.33-2.07,1.69-3.24l1.1,.31Zm2.21-1.26v6.25h-1.31v-6.25h-3.58v-1.15h3.58v-1.89h-3.67v-1.13h4.97c.34-.83,.76-2.02,.97-2.84l1.22,.25c-.32,.86-.67,1.84-1.01,2.59h2.29v1.13h-3.46v1.89h3.26v1.15h-3.26Zm3.19-7.13h-7.89v-1.12h3.53c-.23-.54-.54-1.15-.79-1.64l1.3-.34c.38,.61,.77,1.39,1.01,1.98h2.84v1.12Zm-6.03,2.88c-.09-.67-.38-1.71-.68-2.5l1.06-.25c.36,.77,.67,1.78,.74,2.45l-1.12,.31Zm4.57,5.1c.58,.88,1.21,2.05,1.51,2.83l-.96,.54c-.29-.77-.94-2.02-1.48-2.88l.92-.49Zm9.6-3.69h-1.98v9.07h-1.3v-9.07h-2.47v.63c0,2.57-.23,6.1-1.87,8.44-.22-.25-.74-.67-1.03-.81,1.51-2.16,1.66-5.24,1.66-7.63v-6.19c2.02-.32,4.32-.86,5.6-1.4l1.08,.99c-1.48,.56-3.55,1.01-5.44,1.3v3.42h5.74v1.26Z"/>
      <path d="M209.2,357.48c0,.92-.2,1.39-.81,1.62-.63,.23-1.75,.25-3.35,.25-.05-.4-.25-1.06-.47-1.44,1.24,.04,2.48,.04,2.84,.02,.34-.02,.43-.11,.43-.45v-12.01h-12.95v-1.28h14.3v13.29Zm-3.4-8.93h-10.77v-1.21h10.77v1.21Zm-8.32,7.65v1.31h-1.31v-7.04h8.41v5.73h-7.09Zm0-4.54v3.35h5.78v-3.35h-5.78Z"/>
    </g>
  </g>
  <g>
    <line class="cls-5" x1="332.41" y1="167.61" x2="304.86" y2="167.61"/>
    <line class="cls-5" x1="305.22" y1="42.23" x2="305.39" y2="402.6"/>
    <path class="cls-5" d="M227.37,113.59l.7-22.61c.13-4.33,4.28-7.79,9.34-7.79h133.91c5.16,0,9.35,3.58,9.35,8v22.4"/>
    <rect class="cls-6" x="172.15" y="97.43" width="110" height="31.66" rx="5" ry="5"/>
    <rect class="cls-9" x="325.53" y="151.61" width="110" height="32" rx="5" ry="5" transform="translate(761.06 335.23) rotate(-180)"/>
    <rect class="cls-6" x="325.53" y="97.43" width="110" height="31.66" rx="5" ry="5"/>
    <g>
      <path class="cls-2" d="M204.41,109.57c-.49,2.99-1.21,5.4-2.38,7.36,.97,1.5,2.2,2.65,3.75,3.37-.29,.27-.7,.79-.92,1.13-1.48-.77-2.67-1.91-3.62-3.31-1.03,1.35-2.36,2.47-4.05,3.35-.14-.31-.52-.88-.77-1.17,1.76-.85,3.08-1.96,4.09-3.4-.79-1.48-1.39-3.2-1.85-5.11-.36,.72-.76,1.39-1.17,1.96-.22-.23-.77-.68-1.06-.88l.09-.13h-2.02v4.57l3.08-.7,.13,1.21c-2.95,.72-6.14,1.48-8.37,1.98l-.25-1.33,1.06-.22v-7.99h1.22v7.72l1.84-.4v-10.03h-3.82v-1.3h8.23v1.3h-3.11v3.93h2.45v.63c1.21-1.87,2.02-4.43,2.5-7.13l1.33,.23c-.22,1.06-.49,2.12-.77,3.1h5.62v1.26h-1.21Zm-4.95,.31c.41,2.12,.99,4.09,1.82,5.74,.86-1.66,1.42-3.67,1.78-6.05h-3.48l-.13,.31Z"/>
      <path class="cls-2" d="M223.85,108.02c-.5,1.22-1.22,2.25-2.12,3.1,1.15,.7,2.48,1.26,3.91,1.58-.29,.27-.67,.77-.86,1.13-1.49-.41-2.86-1.06-4.05-1.91-1.15,.83-2.52,1.42-4.03,1.89-.09-.18-.27-.47-.45-.74-.34,1.06-.72,2.09-1.12,2.83l-.92-.5c.38-.76,.74-1.87,1.03-2.93h-1.73v7.4c0,.68-.13,1.03-.59,1.24-.47,.18-1.17,.2-2.25,.2-.07-.34-.23-.86-.41-1.19,.77,.02,1.48,.02,1.71,.02,.22-.02,.29-.07,.29-.27v-5.67c-.7,1.69-1.62,3.35-2.59,4.36-.14-.4-.49-.92-.72-1.26,1.13-1.1,2.23-3.01,2.9-4.83h-2.72v-1.19h4.83c-.95-.83-2.59-1.8-4-2.41l.79-.86c.58,.25,1.21,.54,1.8,.88,.68-.52,1.37-1.19,1.89-1.82h-5.11v-1.17h6.07l.23-.05,.88,.58c-.68,1.06-1.85,2.21-2.93,3.06,.59,.36,1.12,.74,1.49,1.08l-.61,.72h1.24l.2-.07,.81,.32c-.09,.32-.18,.65-.29,.99,1.22-.36,2.34-.81,3.28-1.42-.74-.65-1.37-1.41-1.87-2.21-.47,.52-.95,1.01-1.44,1.4-.22-.23-.74-.67-1.04-.86,1.44-1.06,2.75-2.68,3.49-4.43l1.28,.34c-.23,.52-.5,1.04-.81,1.55h6v1.13h-1.42Zm-.36,6.99h1.35s-.02,.4-.05,.59c-.31,3.35-.67,4.7-1.19,5.22-.34,.34-.68,.43-1.22,.47-.43,.04-1.21,.02-2.02-.02-.02-.34-.14-.85-.36-1.17,.79,.07,1.55,.09,1.89,.09,.27,0,.45-.04,.61-.18,.36-.34,.63-1.4,.9-3.85h-2.99c-.61,2.32-1.87,4.23-4.79,5.37-.18-.32-.56-.85-.85-1.1,2.54-.9,3.69-2.43,4.25-4.27h-2.83v-1.13h3.1c.11-.58,.18-1.19,.23-1.8h1.35c-.05,.61-.13,1.22-.23,1.8h2.84v-.02Zm-4.86-6.99c.5,.86,1.19,1.66,2.03,2.34,.74-.65,1.31-1.42,1.73-2.34h-3.76Z"/>
      <path class="cls-2" d="M234.61,116.5h-5.65v-1.31h5.65v1.31Zm-.54-7.4h-4.72v-1.3h4.72v1.3Zm5.33,2.43c0,.27,0,.54-.02,.79,.83,3.8,2.61,6.68,5.89,7.81-.27,.27-.68,.79-.88,1.17-2.7-1.1-4.38-3.24-5.4-6.14-.63,2.2-2.11,4.5-5.55,6.3-.22-.31-.7-.81-1.01-1.04,5.17-2.61,5.56-6.36,5.56-8.93v-1.37h1.4v1.4Zm-2.88-2.16c-.56,1.46-1.17,2.75-1.89,3.78-.29-.23-.95-.59-1.31-.76,1.37-1.75,2.36-4.56,2.9-7.4l1.44,.27c-.18,.95-.43,1.89-.7,2.79h6.52l.25-.07,.99,.52c-.47,1.75-1.26,3.64-1.89,4.88-.29-.16-.79-.43-1.12-.58,.43-.85,.97-2.2,1.33-3.44h-6.52Z"/>
      <path class="cls-2" d="M264.02,115.69c-1.13,.83-2.59,1.71-3.89,2.36,1.37,.99,3.08,1.67,5.1,2.05-.27,.31-.65,.83-.83,1.19-4.11-.9-6.91-3.1-8.46-6.48h-2.88v4.83l4.86-1.17c-.02,.34-.05,.88-.04,1.17-5.04,1.28-5.92,1.53-6.34,1.75l-.07,.05c-.11-.32-.38-.97-.61-1.31,.36-.18,.88-.56,.88-1.28v-4.03h-2.92v-1.21h3.15v-7.9h11.07v1.13h-9.72v1.55h9.18v1.1h-9.18v1.5h9.18v1.08h-9.18v1.55h11.47v1.21h-7.51c.5,.95,1.13,1.8,1.93,2.52,1.28-.68,2.77-1.64,3.69-2.38l1.12,.74Z"/>
    </g>
    <g>
      <path class="cls-2" d="M358.82,173.9v1.31h-15.92v-1.31h7.2v-4.41h-5.55v-1.3h5.55v-3.94h-6.37v-1.31h7.9c-.7-.83-1.98-1.96-3.06-2.75l1.08-.76c1.15,.83,2.59,2.05,3.29,2.9l-.85,.61h5.82v1.31h-6.39v3.94h5.65v1.3h-5.65v4.41h7.29Z"/>
      <path class="cls-2" d="M368.27,159.88c-.54,1.3-1.19,2.59-1.93,3.8v12.1h-1.31v-10.12c-.68,.92-1.39,1.75-2.14,2.45-.14-.32-.56-1.01-.83-1.33,1.94-1.73,3.8-4.46,4.9-7.29l1.31,.4Zm5.6,8.5v5.46h4.63v1.3h-10.55v-1.3h4.59v-5.46h-5.15v-1.3h5.15v-4.74h-3.96v-1.28h9.58v1.28h-4.29v4.74h5.02v1.3h-5.02Z"/>
      <path class="cls-2" d="M387.44,170.19c-.23-.54-.76-1.55-1.22-2.39v8.03h-1.26v-7.47c-.61,1.67-1.39,3.29-2.16,4.32-.13-.38-.47-.96-.7-1.28,1.01-1.3,2.11-3.62,2.72-5.65h-2.32v-1.26h2.47v-2.9c-.63,.14-1.28,.27-1.87,.38-.07-.31-.25-.76-.4-1.06,1.67-.32,3.64-.85,4.77-1.4l.83,1.08c-.59,.27-1.31,.5-2.07,.72v3.19h2.07v1.26h-2.07v.4c.45,.59,1.76,2.48,2.05,2.97l-.83,1.08Zm10.05,1.06c-.22-1.46-.92-3.66-1.69-5.33-.92,2.21-2.03,4.2-3.35,5.92v1.76c0,.72,.11,.85,.77,.85h2.12c.61,0,.72-.47,.79-2.68,.29,.25,.81,.47,1.15,.52-.14,2.58-.49,3.33-1.84,3.33h-2.4c-1.49,0-1.89-.43-1.89-2.03v-.23c-.72,.77-1.49,1.5-2.32,2.12-.22-.25-.77-.7-1.08-.92,1.28-.9,2.39-1.98,3.4-3.19v-8.16h1.28v6.41c1.69-2.59,2.94-5.71,3.87-9.17l1.28,.25c-.52,1.84-1.1,3.57-1.78,5.19l1.13-.34c.79,1.69,1.51,3.89,1.75,5.33l-1.21,.36Zm-9.63-.63c.72-1.4,1.13-3.73,1.31-5.55l1.03,.23c-.22,1.84-.59,4.29-1.3,5.71l-1.04-.4Zm6.34-7.67c-.72-.77-2.23-1.94-3.44-2.72l.81-.88c1.21,.72,2.74,1.82,3.47,2.59l-.85,1.01Z"/>
      <path class="cls-2" d="M418.16,168.41v1.01h-15.9v-1.01h7.2v-1.06h-6v-.9h6v-.92h-5.51v-.9h5.51v-1.12h-7.18v-1.01h7.18v-1.01h-5.29v-.9h5.29v-1.26h1.33v1.26h5.15v1.91h2.14v1.01h-2.14v2.02h-5.15v.92h6.09v.9h-6.09v1.06h7.36Zm-13.61,1.89h11.49v5.58h-1.33v-.63h-8.86v.63h-1.3v-5.58Zm1.3,.92v1.08h8.86v-1.08h-8.86Zm8.86,3.1v-1.13h-8.86v1.13h8.86Zm-3.91-11.81h3.82v-1.01h-3.82v1.01Zm0,2.12h3.82v-1.12h-3.82v1.12Z"/>
    </g>
    <g>
      <path class="cls-2" d="M357.85,111.62h-1.31v-2.68h-12.33v2.68h-1.28v-3.85h2.88c-.27-.59-.88-1.48-1.4-2.12l1.19-.49c.59,.63,1.22,1.51,1.53,2.11l-1.12,.5h3.76v-2.79h1.35v2.79h6.73v3.85Zm-1.1,7.62c0,.7-.14,1.06-.7,1.26-.56,.22-1.46,.22-2.85,.22-.07-.38-.29-.86-.47-1.22,1.08,.04,2.03,.04,2.3,.02,.27-.02,.36-.07,.36-.29v-2.52h-4.18v4.74h-1.35v-4.74h-4.45v3.92h-1.33v-5.15h5.78v-1.48h-4.18v-3.78h9.4v3.78h-3.87v1.48h5.53v3.76Zm-9.78-6.25h6.79v-1.76h-6.79v1.76Zm9.42-7.38c-.59,.79-1.28,1.62-1.8,2.16l-1.08-.45c.5-.59,1.15-1.55,1.49-2.2l1.39,.49Z"/>
      <path class="cls-2" d="M376.76,108.02c-.5,1.22-1.22,2.25-2.12,3.1,1.15,.7,2.48,1.26,3.91,1.58-.29,.27-.67,.77-.86,1.13-1.49-.41-2.86-1.06-4.05-1.91-1.15,.83-2.52,1.42-4.03,1.89-.09-.18-.27-.47-.45-.74-.34,1.06-.72,2.09-1.12,2.83l-.92-.5c.38-.76,.74-1.87,1.03-2.93h-1.73v7.4c0,.68-.13,1.03-.59,1.24-.47,.18-1.17,.2-2.25,.2-.07-.34-.23-.86-.41-1.19,.77,.02,1.48,.02,1.71,.02,.22-.02,.29-.07,.29-.27v-5.67c-.7,1.69-1.62,3.35-2.59,4.36-.14-.4-.49-.92-.72-1.26,1.13-1.1,2.23-3.01,2.9-4.83h-2.72v-1.19h4.83c-.95-.83-2.59-1.8-4-2.41l.79-.86c.58,.25,1.21,.54,1.8,.88,.68-.52,1.37-1.19,1.89-1.82h-5.11v-1.17h6.07l.23-.05,.88,.58c-.68,1.06-1.85,2.21-2.94,3.06,.59,.36,1.12,.74,1.49,1.08l-.61,.72h1.24l.2-.07,.81,.32c-.09,.32-.18,.65-.29,.99,1.22-.36,2.34-.81,3.28-1.42-.74-.65-1.37-1.41-1.87-2.21-.47,.52-.95,1.01-1.44,1.4-.22-.23-.74-.67-1.04-.86,1.44-1.06,2.75-2.68,3.49-4.43l1.28,.34c-.23,.52-.5,1.04-.81,1.55h6v1.13h-1.42Zm-.36,6.99h1.35s-.02,.4-.05,.59c-.31,3.35-.67,4.7-1.19,5.22-.34,.34-.68,.43-1.22,.47-.43,.04-1.21,.02-2.02-.02-.02-.34-.14-.85-.36-1.17,.79,.07,1.55,.09,1.89,.09,.27,0,.45-.04,.61-.18,.36-.34,.63-1.4,.9-3.85h-2.99c-.61,2.32-1.87,4.23-4.79,5.37-.18-.32-.56-.85-.85-1.1,2.54-.9,3.69-2.43,4.25-4.27h-2.83v-1.13h3.1c.11-.58,.18-1.19,.23-1.8h1.35c-.05,.61-.13,1.22-.23,1.8h2.84v-.02Zm-4.86-6.99c.5,.86,1.19,1.66,2.03,2.34,.74-.65,1.31-1.42,1.73-2.34h-3.76Z"/>
      <path class="cls-2" d="M387.53,116.5h-5.65v-1.31h5.65v1.31Zm-.54-7.4h-4.72v-1.3h4.72v1.3Zm5.33,2.43c0,.27,0,.54-.02,.79,.83,3.8,2.61,6.68,5.89,7.81-.27,.27-.68,.79-.88,1.17-2.7-1.1-4.38-3.24-5.4-6.14-.63,2.2-2.11,4.5-5.55,6.3-.22-.31-.7-.81-1.01-1.04,5.17-2.61,5.56-6.36,5.56-8.93v-1.37h1.4v1.4Zm-2.88-2.16c-.56,1.46-1.17,2.75-1.89,3.78-.29-.23-.95-.59-1.31-.76,1.37-1.75,2.36-4.56,2.9-7.4l1.44,.27c-.18,.95-.43,1.89-.7,2.79h6.52l.25-.07,.99,.52c-.47,1.75-1.26,3.64-1.89,4.88-.29-.16-.79-.43-1.12-.58,.43-.85,.97-2.2,1.33-3.44h-6.52Z"/>
      <path class="cls-2" d="M416.94,115.69c-1.13,.83-2.59,1.71-3.89,2.36,1.37,.99,3.08,1.67,5.1,2.05-.27,.31-.65,.83-.83,1.19-4.11-.9-6.91-3.1-8.46-6.48h-2.88v4.83l4.86-1.17c-.02,.34-.05,.88-.04,1.17-5.04,1.28-5.92,1.53-6.34,1.75l-.07,.05c-.11-.32-.38-.97-.61-1.31,.36-.18,.88-.56,.88-1.28v-4.03h-2.92v-1.21h3.15v-7.9h11.07v1.13h-9.72v1.55h9.18v1.1h-9.18v1.49h9.18v1.08h-9.18v1.55h11.47v1.21h-7.51c.5,.95,1.13,1.8,1.93,2.52,1.28-.68,2.77-1.64,3.69-2.38l1.12,.74Z"/>
    </g>
    <rect class="cls-8" x="255.88" y="25.83" width="97.74" height="32" rx="5" ry="5"/>
    <g>
      <path class="cls-2" d="M285.31,36.41c-.4,1.04-.9,2.27-1.35,3.21h2.56v1.22h-9.36v-1.22h5.51c.49-1.01,1.03-2.49,1.31-3.49l1.33,.29Zm.79-.4h-8.43v-1.22h3.73c-.2-.59-.49-1.3-.74-1.85l1.17-.34c.38,.7,.74,1.58,.95,2.2h3.31v1.22Zm-7.92,6.46h7.49v6.37h-1.31v-.72h-4.9v.86h-1.28v-6.52Zm1.71-2.93c-.16-.83-.63-2.11-1.12-3.08l1.15-.29c.52,.94,1.01,2.2,1.19,3.04l-1.22,.32Zm-.43,4.14v3.26h4.9v-3.26h-4.9Zm13.72-9.51c-.65,1.64-1.48,3.69-2.23,5.35,1.6,1.69,2,3.08,2,4.34,0,1.03-.23,1.91-.81,2.29-.31,.22-.7,.34-1.12,.38-.45,.05-1.03,.05-1.53,.04-.02-.36-.14-.9-.36-1.28,.52,.05,1.03,.05,1.39,.04,.27-.02,.52-.07,.72-.18,.36-.23,.49-.79,.47-1.4,0-1.13-.45-2.43-2.05-4.07,.67-1.51,1.37-3.42,1.85-4.81h-2.86v14.22h-1.21v-15.45h4.61l.22-.07,.92,.61Z"/>
      <path class="cls-2" d="M331.99,43.38c-1.13,.83-2.59,1.71-3.89,2.36,1.37,.99,3.08,1.67,5.1,2.05-.27,.31-.65,.83-.83,1.19-4.11-.9-6.91-3.1-8.46-6.48h-2.88v4.83l4.86-1.17c-.02,.34-.05,.88-.04,1.17-5.04,1.28-5.92,1.53-6.34,1.75l-.07,.05c-.11-.32-.38-.97-.61-1.31,.36-.18,.88-.56,.88-1.28v-4.03h-2.92v-1.21h3.15v-7.9h11.07v1.13h-9.72v1.55h9.18v1.1h-9.18v1.49h9.18v1.08h-9.18v1.55h11.47v1.21h-7.51c.5,.95,1.13,1.8,1.93,2.52,1.28-.68,2.77-1.64,3.69-2.38l1.12,.74Z"/>
    </g>
  </g>
  <g>
    <path class="cls-2" d="M93.88,249.24c-1.3,.97-3.65,1.89-5.53,2.32-.18-.32-.54-.76-.81-1.01,1.85-.31,4.14-1.01,5.33-1.78l1.01,.47Zm9.4-2.5v1.13h-7.22v4.27h-1.31v-4.27h-7.11v-1.13h7.11v-1.35h-5.42v-1.03h5.42v-1.3h-6.34v-1.08h3.89c-.18-.5-.54-1.21-.92-1.73l.95-.25h-4.65v-1.12h2.9c-.27-.72-.88-1.8-1.44-2.61l1.13-.4c.63,.81,1.28,1.93,1.53,2.65l-.9,.36h2.2v-3.19h1.26v3.19h2.14v-3.19h1.28v3.19h2.18l-.72-.23c.5-.74,1.08-1.93,1.39-2.74l1.37,.38c-.5,.92-1.1,1.91-1.57,2.59h2.77v1.12h-4.68l1.17,.32c-.41,.59-.85,1.21-1.24,1.66h4.12v1.08h-6.52v1.3h5.64v1.03h-5.64v1.35h7.22Zm-10.6-6.73c.41,.56,.79,1.3,.95,1.78l-.74,.2h4.97l-.63-.2c.36-.5,.81-1.26,1.06-1.78h-5.62Zm5.35,8.68c1.69,.56,3.98,1.42,5.22,2l-.83,.85c-1.19-.58-3.48-1.49-5.19-2.12l.79-.72Z"/>
    <path class="cls-2" d="M121.87,238.73c-.5,1.22-1.22,2.25-2.12,3.1,1.15,.7,2.48,1.26,3.91,1.58-.29,.27-.67,.77-.86,1.13-1.49-.41-2.86-1.06-4.05-1.91-1.15,.83-2.52,1.42-4.03,1.89-.09-.18-.27-.47-.45-.74-.34,1.06-.72,2.09-1.12,2.83l-.92-.5c.38-.76,.74-1.87,1.03-2.93h-1.73v7.4c0,.68-.13,1.03-.59,1.24-.47,.18-1.17,.2-2.25,.2-.07-.34-.23-.86-.41-1.19,.77,.02,1.48,.02,1.71,.02,.22-.02,.29-.07,.29-.27v-5.67c-.7,1.69-1.62,3.35-2.59,4.36-.14-.4-.49-.92-.72-1.26,1.13-1.1,2.23-3.01,2.9-4.83h-2.72v-1.19h4.83c-.95-.83-2.59-1.8-4-2.41l.79-.86c.58,.25,1.21,.54,1.8,.88,.68-.52,1.37-1.19,1.89-1.82h-5.11v-1.17h6.07l.23-.05,.88,.58c-.68,1.06-1.85,2.21-2.93,3.06,.59,.36,1.12,.74,1.49,1.08l-.61,.72h1.24l.2-.07,.81,.32c-.09,.32-.18,.65-.29,.99,1.22-.36,2.34-.81,3.28-1.42-.74-.65-1.37-1.4-1.87-2.21-.47,.52-.95,1.01-1.44,1.4-.22-.23-.74-.67-1.04-.86,1.44-1.06,2.75-2.68,3.49-4.43l1.28,.34c-.23,.52-.5,1.04-.81,1.55h6v1.13h-1.42Zm-.36,6.99h1.35s-.02,.4-.05,.59c-.31,3.35-.67,4.7-1.19,5.22-.34,.34-.68,.43-1.22,.47-.43,.04-1.21,.02-2.02-.02-.02-.34-.14-.85-.36-1.17,.79,.07,1.55,.09,1.89,.09,.27,0,.45-.04,.61-.18,.36-.34,.63-1.4,.9-3.85h-2.99c-.61,2.32-1.87,4.23-4.79,5.37-.18-.32-.56-.85-.85-1.1,2.54-.9,3.69-2.43,4.25-4.27h-2.83v-1.13h3.1c.11-.58,.18-1.19,.23-1.8h1.35c-.05,.61-.13,1.22-.23,1.8h2.84v-.02Zm-4.86-6.99c.5,.86,1.19,1.66,2.03,2.34,.74-.65,1.31-1.42,1.73-2.34h-3.76Z"/>
    <path class="cls-2" d="M142.95,249.6h-7.31v2.52h-1.35v-2.52h-7.15v-1.19h7.15v-1.35h-5.37v-6.28h12.37v6.28h-5.65v1.35h7.31v1.19Zm-8.55-9.67h-5.94v-3.53h5.94v3.53Zm-1.28-2.63h-3.46v1.71h3.46v-1.71Zm-2.9,6.09h4.07v-1.53h-4.07v1.53Zm4.07,2.59v-1.57h-4.07v1.57h4.07Zm5.64-4.12h-4.29v1.53h4.29v-1.53Zm0,2.56h-4.29v1.57h4.29v-1.57Zm1.85-4.48h-5.98v-3.53h5.98v3.53Zm-1.26-2.63h-3.51v1.71h3.51v-1.71Z"/>
    <path class="cls-2" d="M152.27,236.14c-.49,1.31-1.12,2.59-1.82,3.82v12.15h-1.33v-10.07c-.56,.81-1.17,1.53-1.78,2.18-.13-.32-.5-1.01-.76-1.31,1.76-1.73,3.44-4.41,4.43-7.15l1.26,.38Zm10.66,13.97v1.3h-11.2v-1.3h6.28c.65-2.41,1.37-6.23,1.71-8.91l1.39,.25c-.47,2.75-1.21,6.27-1.85,8.66h3.67Zm-.74-9.87h-9.7v-1.3h9.7v1.3Zm-7.31,9.04c-.14-1.87-.67-5.17-1.22-7.67l1.21-.27c.59,2.5,1.13,5.73,1.33,7.56l-1.31,.38Zm2.03-10.53c-.14-.76-.5-1.96-.85-2.86l1.26-.32c.32,.9,.74,2.05,.9,2.79l-1.31,.4Z"/>
  </g>
  <g>
    <path class="cls-2" d="M273.04,425.39h-5.65v-1.31h5.65v1.31Zm-.54-7.4h-4.72v-1.3h4.72v1.3Zm5.33,2.43c0,.27,0,.54-.02,.79,.83,3.8,2.61,6.68,5.89,7.81-.27,.27-.68,.79-.88,1.17-2.7-1.1-4.38-3.24-5.4-6.14-.63,2.2-2.11,4.5-5.55,6.3-.22-.31-.7-.81-1.01-1.04,5.17-2.61,5.56-6.36,5.56-8.93v-1.37h1.4v1.4Zm-2.88-2.16c-.56,1.46-1.17,2.75-1.89,3.78-.29-.23-.95-.59-1.31-.76,1.37-1.75,2.36-4.56,2.9-7.4l1.44,.27c-.18,.95-.43,1.89-.7,2.79h6.52l.25-.07,.99,.52c-.47,1.75-1.26,3.64-1.89,4.88-.29-.16-.79-.43-1.12-.58,.43-.85,.97-2.2,1.33-3.44h-6.52Z"/>
    <path class="cls-2" d="M293.09,424.64c-.05-.31-.14-.65-.27-1.04-4.16,.65-4.72,.79-5.08,.99-.07-.27-.27-.9-.41-1.26,.38-.07,.79-.52,1.33-1.17,.29-.32,.86-1.06,1.51-2.03-1.91,.23-2.29,.32-2.54,.43-.07-.25-.29-.9-.43-1.22,.31-.07,.63-.45,1.01-.99,.38-.52,1.62-2.57,2.36-4.52l1.26,.52c-.79,1.69-1.78,3.4-2.77,4.77l1.89-.18c.49-.77,.95-1.6,1.37-2.41l1.15,.68c-1.19,2.07-2.59,4.14-4.05,5.8l3.1-.45c-.22-.56-.45-1.13-.67-1.64l.95-.34c.59,1.19,1.15,2.72,1.33,3.66l-1.04,.41Zm-3.94,.94c-.18,1.53-.54,3.22-.92,4.34-.22-.13-.76-.31-1.03-.4,.41-1.1,.68-2.7,.86-4.14l1.08,.2Zm1.82-.27c.22,1.13,.43,2.59,.49,3.58l-1.03,.23c-.05-.97-.23-2.47-.43-3.62l.97-.2Zm1.93-.43c.36,.94,.76,2.12,.92,2.9l-1.01,.34c-.13-.79-.52-2.02-.86-2.95l.95-.29Zm10.05-4.79c-.49,2.63-1.39,4.79-2.56,6.52,.86,1.1,1.91,1.96,3.17,2.52-.31,.25-.72,.76-.92,1.12-1.21-.61-2.21-1.49-3.06-2.57-.94,1.12-2.02,2.02-3.19,2.66-.18-.32-.54-.79-.85-1.01,1.19-.63,2.3-1.57,3.26-2.77-.88-1.46-1.55-3.21-2.03-5.1-.34,3.58-1.04,6.48-2.67,8.75-.22-.22-.85-.67-1.17-.83,2.36-2.94,2.74-7.54,2.79-13.38h-1.76v-1.26h6.36l.22-.07,.92,.14c-.2,1.48-.5,3.44-.83,5.04h1.26l.23-.05,.83,.29Zm-5.91-4.09c-.04,1.35-.07,2.65-.14,3.85h2.47c.23-1.21,.49-2.7,.67-3.85h-2.99Zm.79,5.06c.41,1.6,.99,3.1,1.76,4.38,.79-1.26,1.42-2.74,1.84-4.38h-3.6Z"/>
    <path class="cls-2" d="M311,423.48c-.18-.49-.58-1.33-.95-2.09v8.91h-1.17v-8.57c-.45,1.85-1.06,3.62-1.69,4.72-.11-.38-.41-.97-.58-1.3,.86-1.46,1.73-4.21,2.16-6.57h-1.8v-1.26h1.91v-3.46h1.17v3.46h1.42v1.26h-1.42v1.17c.4,.63,1.37,2.3,1.6,2.74l-.65,.99Zm11.02,1.33c-.56,1.08-1.3,2.03-2.21,2.88,.52,.79,1.15,1.22,1.87,1.3,.38,.04,.61-.65,.76-1.94,.22,.25,.67,.56,.9,.68-.34,1.96-.9,2.63-1.62,2.57-1.17-.07-2.11-.72-2.84-1.84-.94,.68-2,1.28-3.15,1.75-.14-.23-.47-.63-.72-.85,1.24-.49,2.39-1.12,3.35-1.87-.41-.92-.76-2.03-1.04-3.29h-2.94v.27c0,.13,0,.27-.02,.41,.86,.67,1.94,1.58,2.48,2.14l-.83,.81c-.41-.43-1.12-1.1-1.82-1.69-.31,1.44-1.06,2.99-2.65,4.2-.18-.25-.63-.67-.88-.81,2.11-1.55,2.56-3.56,2.56-5.08v-.25h-1.37v-1.08h5.26c-.43-2.56-.67-5.67-.77-9.11h1.15c.09,3.51,.34,6.64,.79,9.11h2.57c-.43-.38-1.08-.83-1.6-1.15l.68-.63c.63,.36,1.46,.92,1.87,1.3l-.47,.49h1.49v1.08h-4.34c.23,.95,.47,1.78,.77,2.47,.67-.68,1.22-1.46,1.6-2.27l1.15,.41Zm-6.37-2.7c-.05-.22-.13-.47-.2-.76-2.57,.4-2.99,.47-3.24,.61-.04-.22-.18-.74-.31-1.01,.25-.05,.56-.36,.92-.81,.18-.22,.65-.85,1.15-1.62-1.4,.2-1.75,.29-1.93,.38-.04-.22-.2-.74-.31-.99,.22-.05,.43-.29,.67-.67,.25-.36,1.06-1.75,1.51-3.1l1.01,.32c-.5,1.17-1.15,2.36-1.8,3.26l1.42-.14c.22-.4,.43-.79,.61-1.21l.97,.38c-.79,1.44-1.75,2.86-2.7,3.98l1.75-.23c-.13-.4-.27-.77-.41-1.13l.85-.23c.38,.86,.77,2,.92,2.67l-.88,.31Zm6.5-.31c-.05-.22-.13-.5-.23-.81-2.61,.41-3.04,.5-3.26,.63-.07-.22-.23-.77-.36-1.04,.29-.05,.56-.36,.9-.79,.2-.23,.61-.83,1.08-1.6-1.33,.18-1.64,.27-1.82,.36-.05-.23-.22-.72-.34-1.01,.22-.02,.41-.25,.63-.59,.2-.31,.94-1.62,1.3-2.83l1.01,.31c-.45,1.06-1.01,2.12-1.57,2.95l1.31-.14c.23-.4,.45-.83,.63-1.24l1.03,.38c-.77,1.48-1.71,2.9-2.63,4.03l1.8-.25c-.14-.36-.29-.74-.43-1.08l.81-.23c.4,.85,.83,2,1.01,2.67l-.86,.31Z"/>
    <path class="cls-2" d="M333.7,423.01c.36,.63,.79,1.46,.97,1.96l-.65,.25h.18v1.6c0,1.35-.32,2.57-2.56,3.37-.13-.23-.43-.61-.65-.79,1.15-.36,1.73-.85,2-1.39h-2.39v-2.52h.92v1.67h1.69c.02-.13,.02-.23,.02-.36v-1.58h.68c-.05-.14-.14-.34-.22-.56-2.84,.27-3.28,.36-3.55,.45-.02-.18-.16-.65-.27-.88,.27-.02,.59-.22,.97-.5,.2-.14,.61-.47,1.08-.94-1.21,.09-1.51,.14-1.67,.22-.07-.22-.18-.67-.31-.92,.2-.04,.38-.13,.59-.32,.18-.18,.86-.9,1.28-1.64h-3.1v10.19h-1.28v-15.68h6.55v5.49h-1.87l.61,.32c-.41,.61-.92,1.19-1.4,1.64l1.33-.05c.29-.31,.56-.61,.79-.94l.79,.52c-.86,.92-1.8,1.8-2.72,2.48l1.82-.14c-.13-.25-.25-.5-.38-.72l.72-.23Zm-4.97-7.4v1.35h4.02v-1.35h-4.02Zm0,3.53h4.02v-1.28h-4.02v1.28Zm13.59,9.49c0,.74-.14,1.15-.63,1.37-.47,.23-1.22,.27-2.34,.27-.07-.36-.23-.99-.41-1.33,.79,.04,1.55,.04,1.78,.02,.23,0,.31-.09,.31-.32v-8.5h-4.03l.67,.34c-.43,.61-.94,1.17-1.4,1.64l1.33-.07c.29-.31,.54-.61,.79-.94l.77,.5c-.85,.94-1.78,1.82-2.72,2.5l1.8-.14c-.13-.25-.25-.5-.38-.72l.68-.23c.4,.61,.83,1.46,1.04,1.94l-.72,.32c-.07-.18-.16-.38-.29-.61-2.83,.29-3.28,.34-3.51,.47-.04-.2-.18-.65-.27-.9,.27-.04,.58-.2,.95-.49,.2-.14,.59-.5,1.1-.95-1.24,.09-1.53,.14-1.69,.23-.05-.22-.2-.67-.32-.92,.22-.04,.4-.13,.59-.32s.86-.9,1.3-1.66h-1.12v-5.49h6.72v13.99Zm-4.23-.05v-.56h-1.73v2.03h-1.01v-4.83h1.01v1.94h1.73v-1.66h.95v3.06h-.95Zm-1.21-12.96v1.35h4.14v-1.35h-4.14Zm4.14,3.53v-1.28h-4.14v1.28h4.14Z"/>
  </g>
  <rect class="cls-1" x="139.04" y="368.92" width="32" height="106.18" rx="4.74" ry="4.74" transform="translate(577.05 266.98) rotate(90)"/>
  <g>
    <path class="cls-2" d="M123.26,418.17c-.56,.9-1.22,1.82-1.96,2.7v9.51h-1.35v-8.01c-.68,.7-1.39,1.33-2.05,1.87-.2-.29-.68-.85-.97-1.1,1.87-1.31,3.83-3.4,5.08-5.44l1.26,.47Zm-.68-3.8c-1.19,1.6-3.03,3.37-4.66,4.5-.18-.29-.58-.81-.83-1.06,1.53-.99,3.29-2.63,4.19-3.94l1.3,.5Zm10.96,6.79h-2.66v7.42c0,.83-.22,1.19-.83,1.4-.63,.18-1.64,.2-3.3,.18-.07-.34-.29-.88-.49-1.22,1.26,.04,2.47,.04,2.81,.02,.34-.02,.43-.09,.43-.4v-7.4h-6v-1.28h10.03v1.28Zm-.43-4.93h-8.82v-1.26h8.82v1.26Z"/>
    <path class="cls-2" d="M152.26,418.46c-.49,2.99-1.21,5.4-2.38,7.36,.97,1.49,2.2,2.65,3.75,3.37-.29,.27-.7,.79-.92,1.13-1.48-.77-2.67-1.91-3.62-3.31-1.03,1.35-2.36,2.47-4.05,3.35-.14-.31-.52-.88-.77-1.17,1.76-.85,3.08-1.96,4.09-3.4-.79-1.48-1.39-3.21-1.85-5.11-.36,.72-.76,1.39-1.17,1.96-.22-.23-.77-.68-1.06-.88l.09-.13h-2.02v4.57l3.08-.7,.13,1.21c-2.95,.72-6.14,1.48-8.37,1.98l-.25-1.33,1.06-.22v-7.99h1.22v7.72l1.84-.4v-10.03h-3.82v-1.3h8.23v1.3h-3.11v3.93h2.45v.63c1.21-1.87,2.02-4.43,2.5-7.13l1.33,.23c-.22,1.06-.49,2.12-.77,3.1h5.62v1.26h-1.21Zm-4.95,.31c.41,2.12,.99,4.09,1.82,5.74,.86-1.66,1.42-3.67,1.78-6.05h-3.48l-.13,.31Z"/>
    <path class="cls-2" d="M160.2,421.83c-.74-.61-2.16-1.42-3.33-1.94l.72-.97c1.13,.45,2.61,1.22,3.35,1.8l-.74,1.12Zm-2.72,7.35c.95-1.37,2.38-3.73,3.4-5.76l.97,.88c-.94,1.89-2.2,4.12-3.26,5.78l-1.12-.9Zm1.08-15.11c1.19,.49,2.66,1.3,3.42,1.87l-.77,1.12c-.72-.61-2.18-1.48-3.37-2.02l.72-.97Zm13.2,16.22c-.18-.5-.49-1.12-.83-1.78-6.68,.83-7.44,.95-7.92,1.19-.07-.31-.29-.97-.45-1.33,.34-.09,.7-.52,1.15-1.17,.4-.54,1.58-2.45,2.48-4.47h-4.02v-1.28h4.63v-3.21h-3.83v-1.28h3.83v-3.1h1.33v3.1h3.98v1.28h-3.98v3.21h4.72v1.28h-5.08c-.94,1.91-2.05,3.82-3.17,5.33l5.69-.63c-.5-.81-1.04-1.62-1.6-2.32l1.08-.5c1.26,1.57,2.61,3.71,3.15,5.1l-1.17,.59Z"/>
    <path class="cls-2" d="M185.58,413.94c-.02,.65-.04,1.55-.13,2.61,.27,2.14,1.35,9.67,7.71,12.5-.38,.31-.77,.76-.97,1.13-4.5-2.11-6.43-6.55-7.29-9.9-.83,3.6-2.74,7.63-7.13,9.98-.23-.36-.67-.76-1.08-1.04,7.47-3.78,7.36-12.53,7.42-15.27h1.48Z"/>
  </g>
  <rect class="cls-1" x="439.4" y="368.92" width="32" height="106.18" rx="4.74" ry="4.74" transform="translate(877.41 -33.38) rotate(90)"/>
  <g>
    <path class="cls-2" d="M420.94,426.49c-.56,1.49-1.49,2.99-2.47,3.96-.2-.23-.72-.67-1.03-.88,.95-.85,1.75-2.11,2.21-3.4l1.28,.32Zm3.78-.74h-6.3v-11.2h6.3v11.2Zm-1.3-10.08h-3.75v2.27h3.75v-2.27Zm0,3.33h-3.75v2.3h3.75v-2.3Zm0,3.33h-3.75v2.34h3.75v-2.34Zm-.2,3.76c.77,.9,1.58,2.09,1.98,2.88l-1.12,.67c-.38-.83-1.19-2.09-1.91-2.99l1.04-.56Zm10.88-6.7h-2.36v9.17c0,.83-.2,1.21-.72,1.44-.5,.2-1.35,.23-2.7,.23-.07-.34-.29-.94-.47-1.3,.99,.04,1.91,.04,2.18,.02,.29,0,.4-.09,.4-.4v-7.47c-1.22,2.63-2.9,5.01-4.7,6.43-.23-.31-.63-.76-.92-.97,2.02-1.46,3.98-4.29,5.11-7.15h-4.65v-1.26h5.15v-4.2h1.31v4.2h2.36v1.26Z"/>
    <path class="cls-2" d="M452.86,414.7v15.54h-1.28v-.85h-11.94v.94h-1.24v-15.63h14.46Zm-1.28,13.61v-12.55h-11.94v12.55h11.94Zm-.59-2.95h-2.57v1.67c0,.52-.11,.72-.52,.83-.4,.13-1.06,.13-2.14,.13-.05-.25-.2-.54-.32-.76,.72,.02,1.4,.02,1.58,0,.22,0,.27-.05,.27-.23v-1.64h-7.02v-.83h7.02v-.67h1.13v.67h2.57v.83Zm-6-7.63h-4.52v-.83h4.52v-.85h1.13v.85h4.61v.83h-4.61v.76h3.98v3.6h-1.44c.72,.5,1.55,1.24,1.94,1.76l-.76,.56c-.18-.23-.43-.5-.72-.79-3.11,.11-6.34,.2-8.57,.25l-.05-.85c1.19,0,2.77-.02,4.48-.04v-.9h-3.82v-3.6h3.82v-.76Zm-1.96,7.72c.59,.45,1.3,1.15,1.6,1.62l-.92,.54c-.29-.5-.97-1.21-1.55-1.71l.86-.45Zm-.79-5.51h2.75v-.77h-2.75v.77Zm2.75,1.46v-.79h-2.75v.79h2.75Zm1.13-2.23v.77h2.86v-.77h-2.86Zm2.86,1.44h-2.86v.79h2.86v-.79Zm-.65,2.3c-.14-.13-.29-.23-.43-.34l.72-.49h-2.5v.88l2.21-.05Z"/>
    <path class="cls-2" d="M460.56,421.83c-.74-.61-2.16-1.42-3.33-1.94l.72-.97c1.13,.45,2.61,1.22,3.35,1.8l-.74,1.12Zm-2.72,7.35c.95-1.37,2.38-3.73,3.4-5.76l.97,.88c-.94,1.89-2.2,4.12-3.26,5.78l-1.12-.9Zm1.08-15.11c1.19,.49,2.66,1.3,3.42,1.87l-.77,1.12c-.72-.61-2.18-1.48-3.37-2.02l.72-.97Zm13.2,16.22c-.18-.5-.49-1.12-.83-1.78-6.68,.83-7.44,.95-7.92,1.19-.07-.31-.29-.97-.45-1.33,.34-.09,.7-.52,1.15-1.17,.4-.54,1.58-2.45,2.48-4.47h-4.02v-1.28h4.63v-3.21h-3.83v-1.28h3.83v-3.1h1.33v3.1h3.98v1.28h-3.98v3.21h4.72v1.28h-5.08c-.94,1.91-2.05,3.82-3.17,5.33l5.69-.63c-.5-.81-1.04-1.62-1.6-2.32l1.08-.5c1.26,1.57,2.61,3.71,3.15,5.1l-1.17,.59Z"/>
    <path class="cls-2" d="M485.94,413.94c-.02,.65-.04,1.55-.13,2.61,.27,2.14,1.35,9.67,7.71,12.5-.38,.31-.77,.76-.97,1.13-4.5-2.11-6.43-6.55-7.29-9.9-.83,3.6-2.74,7.63-7.13,9.98-.23-.36-.67-.76-1.08-1.04,7.47-3.78,7.36-12.53,7.42-15.27h1.48Z"/>
  </g>
  <g>
    <g>
      <path d="M528.61,274.84h-5.15v-1.08h5.15v1.08Zm1.42,9.29c-1.44,.86-3.71,1.71-5.49,2.2-.23-.27-.68-.77-.99-1.01,1.84-.38,4-1.03,5.28-1.73l1.21,.54Zm-1.87-12.12h-4.3v-1.04h4.3v1.04Zm-2.34,4.23h11.65v7.22h-11.65v-7.22Zm1.3,2.12h9.02v-1.22h-9.02v1.22Zm0,2.09h9.02v-1.22h-9.02v1.22Zm0,2.12h9.02v-1.26h-9.02v1.26Zm4.32-10.42c-.4,.68-.86,1.31-1.35,1.8-.22-.2-.72-.54-1.01-.68,.94-.85,1.67-2.11,2.07-3.42l1.21,.27c-.11,.34-.25,.67-.38,.99h6.03l.22-.05,.9,.31c-.45,.92-1.03,1.96-1.51,2.59l-1.06-.38c.27-.38,.59-.9,.85-1.42h-2.86v.23c0,.18-.02,.38-.05,.59,.95,1.08,2.92,1.78,5.28,1.98-.25,.25-.59,.74-.76,1.06-2.05-.29-3.78-1.01-4.9-2.11-.59,.88-2.02,1.71-5.19,2.2-.14-.29-.49-.77-.72-.99,4.66-.63,5.1-1.85,5.1-2.79v-.18h-1.85Zm2.7,11.42c1.93,.59,4.03,1.37,5.29,1.94l-1.17,.77c-1.15-.58-3.1-1.35-5.04-2l.92-.72Z"/>
      <path d="M529.9,292.05h-6.46v-1.1h6.46v1.1Zm-.67,11.2h-4.02v.85h-1.08v-6.05h5.1v5.2Zm-5.08-8.88v-1.06h5.06v1.06h-5.06Zm0,1.28h5.1v1.06h-5.1v-1.06Zm1.06,3.51v2.97h2.92v-2.97h-2.92Zm1.39-8.41c-.25-.65-.81-1.66-1.26-2.4l.95-.54c.49,.74,1.04,1.69,1.3,2.32l-.99,.61Zm11.31-1.84c-.11,7.27-.14,13.52,.86,13.77,.11,.04,.23-1.12,.31-2.41,.22,.34,.58,.79,.77,.97-.2,2.52-.77,3.1-1.6,2.75-1.76-.54-1.71-6.43-1.69-13.81h-2.99v5.31h2.38v1.24h-2.38v7.58h-1.26v-7.58h-2.43v-1.24h2.43v-5.31h-2.23v-1.28h7.83Z"/>
      <path d="M531.97,315.45c-.34,1.75-.99,3.12-1.82,4.18,1.28,1.08,3.01,1.33,5.1,1.33,.56,0,3.89,0,4.63-.02-.18,.27-.36,.81-.41,1.13h-4.27c-2.45,0-4.36-.32-5.78-1.64-.95,.9-2.07,1.53-3.33,1.98-.13-.27-.4-.72-.63-.94,1.22-.36,2.34-.99,3.24-1.87-.38-.54-.74-1.19-1.04-2-.36,.5-.77,.94-1.19,1.3-.14-.16-.5-.52-.76-.72-.25,1.49-.68,2.99-1.42,4.2-.22-.25-.77-.68-1.04-.81,1.4-2.34,1.55-5.62,1.55-7.98v-4.39h5.87v-3.29h1.31v1.13h6.16v1.01h-6.16v1.15h6.28l.22-.05,.94,.25c-.38,1.03-.81,2.2-1.24,2.92l-1.1-.34c.25-.43,.49-1.08,.72-1.71h-5.87v1.08l4.57-.29,.05,.9-4.63,.31v.41c0,.5,.11,.67,.72,.67h4.2c.52,0,1.48-.04,1.85-.11,.04,.34,.05,.7,.11,.99-.32,.09-1.12,.09-1.85,.09h-4.43c-1.51,0-1.85-.47-1.85-1.64v-.32l-3.57,.23-.05-.92,3.62-.23v-1.17h-4.59v3.35c0,1.28-.07,2.86-.32,4.43,1.19-1.01,2.18-2.52,2.72-4.2l1.06,.27c-.14,.41-.29,.79-.47,1.19h2.02l.22-.04,.68,.18Zm-3.42,.83c-.07,.13-.14,.25-.2,.38,.25,.88,.61,1.6,1.04,2.18,.56-.7,.97-1.57,1.28-2.56h-2.12Zm8.59,3.69c-.9,0-1.15-.23-1.15-1.13v-2.52h-1.84v.41c0,1.19-.31,2.61-1.69,3.66-.16-.22-.61-.63-.83-.77,1.21-.88,1.42-1.98,1.42-2.92v-1.4h3.98v3.55c0,.34,.04,.4,.27,.4h.7c.22,0,.27-.2,.32-1.15,.2,.14,.56,.27,.83,.32-.07,1.22-.34,1.57-1.01,1.57h-1.01Z"/>
    </g>
    <g>
      <path d="M405.1,280.71c-.23-.54-.76-1.55-1.22-2.39v8.03h-1.26v-7.47c-.61,1.67-1.39,3.29-2.16,4.32-.13-.38-.47-.95-.7-1.28,1.01-1.3,2.11-3.62,2.72-5.65h-2.32v-1.26h2.47v-2.9c-.63,.14-1.28,.27-1.87,.38-.07-.31-.25-.76-.4-1.06,1.67-.32,3.64-.85,4.77-1.4l.83,1.08c-.59,.27-1.31,.5-2.07,.72v3.19h2.07v1.26h-2.07v.4c.45,.59,1.76,2.48,2.05,2.97l-.83,1.08Zm10.05,1.06c-.22-1.46-.92-3.66-1.69-5.33-.92,2.21-2.03,4.2-3.35,5.92v1.76c0,.72,.11,.85,.77,.85h2.12c.61,0,.72-.47,.79-2.68,.29,.25,.81,.47,1.15,.52-.14,2.57-.49,3.33-1.84,3.33h-2.4c-1.49,0-1.89-.43-1.89-2.03v-.23c-.72,.77-1.49,1.49-2.32,2.12-.22-.25-.77-.7-1.08-.92,1.28-.9,2.39-1.98,3.4-3.19v-8.16h1.28v6.41c1.69-2.59,2.93-5.71,3.87-9.16l1.28,.25c-.52,1.84-1.1,3.56-1.78,5.19l1.13-.34c.79,1.69,1.51,3.89,1.75,5.33l-1.21,.36Zm-9.63-.63c.72-1.4,1.13-3.73,1.31-5.55l1.03,.23c-.22,1.84-.59,4.29-1.3,5.71l-1.04-.4Zm6.34-7.67c-.72-.77-2.23-1.94-3.44-2.72l.81-.88c1.21,.72,2.74,1.82,3.48,2.59l-.85,1.01Z"/>
      <path d="M416.03,296.93v1.01h-15.9v-1.01h7.2v-1.06h-6v-.9h6v-.92h-5.51v-.9h5.51v-1.12h-7.18v-1.01h7.18v-1.01h-5.29v-.9h5.29v-1.26h1.33v1.26h5.15v1.91h2.14v1.01h-2.14v2.02h-5.15v.92h6.09v.9h-6.09v1.06h7.36Zm-13.61,1.89h11.49v5.58h-1.33v-.63h-8.86v.63h-1.3v-5.58Zm1.3,.92v1.08h8.86v-1.08h-8.86Zm8.86,3.1v-1.13h-8.86v1.13h8.86Zm-3.91-11.81h3.82v-1.01h-3.82v1.01Zm0,2.12h3.82v-1.12h-3.82v1.12Z"/>
      <path d="M408.54,315.44c-.34,1.75-.99,3.12-1.82,4.18,1.28,1.08,3.01,1.33,5.1,1.33,.56,0,3.89,0,4.63-.02-.18,.27-.36,.81-.41,1.13h-4.27c-2.45,0-4.36-.32-5.78-1.64-.95,.9-2.07,1.53-3.33,1.98-.13-.27-.4-.72-.63-.94,1.22-.36,2.34-.99,3.24-1.87-.38-.54-.74-1.19-1.04-2-.36,.5-.77,.94-1.19,1.3-.14-.16-.5-.52-.76-.72-.25,1.49-.68,2.99-1.42,4.2-.22-.25-.77-.68-1.04-.81,1.4-2.34,1.55-5.62,1.55-7.98v-4.39h5.87v-3.29h1.31v1.13h6.16v1.01h-6.16v1.15h6.28l.22-.05,.94,.25c-.38,1.03-.81,2.2-1.24,2.92l-1.1-.34c.25-.43,.49-1.08,.72-1.71h-5.87v1.08l4.57-.29,.05,.9-4.63,.31v.41c0,.5,.11,.67,.72,.67h4.2c.52,0,1.48-.04,1.85-.11,.04,.34,.05,.7,.11,.99-.32,.09-1.12,.09-1.85,.09h-4.43c-1.51,0-1.85-.47-1.85-1.64v-.32l-3.57,.23-.05-.92,3.62-.23v-1.17h-4.59v3.35c0,1.28-.07,2.86-.32,4.43,1.19-1.01,2.18-2.52,2.72-4.2l1.06,.27c-.14,.41-.29,.79-.47,1.19h2.02l.22-.04,.68,.18Zm-3.42,.83c-.07,.13-.14,.25-.2,.38,.25,.88,.61,1.6,1.04,2.18,.56-.7,.97-1.57,1.28-2.56h-2.12Zm8.59,3.69c-.9,0-1.15-.23-1.15-1.13v-2.52h-1.84v.41c0,1.19-.31,2.61-1.69,3.66-.16-.22-.61-.63-.83-.77,1.21-.88,1.42-1.98,1.42-2.92v-1.4h3.98v3.55c0,.34,.04,.4,.27,.4h.7c.22,0,.27-.2,.32-1.15,.2,.14,.56,.27,.83,.32-.07,1.22-.34,1.57-1.01,1.57h-1.01Z"/>
    </g>
    <g>
      <path d="M439.67,269.93c-.02,.65-.04,1.55-.13,2.61,.27,2.14,1.35,9.67,7.71,12.5-.38,.31-.77,.76-.97,1.13-4.5-2.11-6.43-6.55-7.29-9.9-.83,3.6-2.74,7.63-7.13,9.98-.23-.36-.67-.76-1.08-1.04,7.47-3.78,7.36-12.53,7.42-15.27h1.48Z"/>
      <path d="M447.07,299.2h-1.85v3.19h-1.33v-.81h-4.32v1.24c0,.83-.25,1.13-.79,1.33-.56,.2-1.49,.22-2.99,.22-.07-.34-.29-.83-.47-1.13,1.08,.04,2.16,.02,2.47,.02,.34-.02,.45-.13,.45-.43v-1.24h-5.82v-1.03h5.82v-1.35h-7.36v-1.06h7.36v-1.26h-5.65v-.99h5.65v-1.26h-5.15v-3.17h5.15v-1.04h-7.02v-1.1h7.02v-1.44h1.33v1.44h7.17v1.1h-7.17v1.04h5.37v3.17h-5.37v1.26h5.65v2.25h1.85v1.06Zm-8.84-5.51v-1.3h-3.87v1.3h3.87Zm1.33-1.3v1.3h4.03v-1.3h-4.03Zm0,5.74h4.32v-1.26h-4.32v1.26Zm4.32,1.06h-4.32v1.35h4.32v-1.35Z"/>
      <path d="M439.4,315.42c-.34,1.75-.99,3.12-1.82,4.18,1.28,1.08,3.01,1.33,5.1,1.33,.56,0,3.89,0,4.63-.02-.18,.27-.36,.81-.41,1.13h-4.27c-2.45,0-4.36-.32-5.78-1.64-.95,.9-2.07,1.53-3.33,1.98-.13-.27-.4-.72-.63-.94,1.22-.36,2.34-.99,3.24-1.87-.38-.54-.74-1.19-1.04-2-.36,.5-.77,.94-1.19,1.3-.14-.16-.5-.52-.76-.72-.25,1.49-.68,2.99-1.42,4.2-.22-.25-.77-.68-1.04-.81,1.4-2.34,1.55-5.62,1.55-7.98v-4.39h5.87v-3.3h1.31v1.13h6.16v1.01h-6.16v1.15h6.28l.22-.05,.94,.25c-.38,1.03-.81,2.2-1.24,2.92l-1.1-.34c.25-.43,.49-1.08,.72-1.71h-5.87v1.08l4.57-.29,.05,.9-4.63,.31v.41c0,.5,.11,.67,.72,.67h4.2c.52,0,1.48-.04,1.85-.11,.04,.34,.05,.7,.11,.99-.32,.09-1.12,.09-1.85,.09h-4.43c-1.51,0-1.85-.47-1.85-1.64v-.32l-3.57,.23-.05-.92,3.62-.23v-1.17h-4.59v3.35c0,1.28-.07,2.86-.32,4.43,1.19-1.01,2.18-2.52,2.72-4.2l1.06,.27c-.14,.41-.29,.79-.47,1.19h2.02l.22-.04,.68,.18Zm-3.42,.83c-.07,.13-.14,.25-.2,.38,.25,.88,.61,1.6,1.04,2.18,.56-.7,.97-1.57,1.28-2.56h-2.12Zm8.59,3.69c-.9,0-1.15-.23-1.15-1.13v-2.52h-1.84v.41c0,1.19-.31,2.61-1.69,3.66-.16-.22-.61-.63-.83-.77,1.21-.88,1.42-1.98,1.42-2.92v-1.4h3.98v3.55c0,.34,.04,.4,.27,.4h.7c.22,0,.27-.2,.32-1.15,.2,.14,.56,.27,.83,.32-.07,1.22-.34,1.57-1.01,1.57h-1.01Z"/>
    </g>
    <g>
      <path d="M476.81,274.56c-.49,2.99-1.21,5.4-2.38,7.36,.97,1.49,2.2,2.65,3.75,3.37-.29,.27-.7,.79-.92,1.13-1.48-.77-2.67-1.91-3.62-3.31-1.03,1.35-2.36,2.47-4.05,3.35-.14-.31-.52-.88-.77-1.17,1.76-.85,3.08-1.96,4.09-3.4-.79-1.48-1.39-3.21-1.85-5.11-.36,.72-.76,1.39-1.17,1.96-.22-.23-.77-.68-1.06-.88l.09-.13h-2.02v4.57l3.08-.7,.13,1.21c-2.95,.72-6.14,1.48-8.37,1.98l-.25-1.33,1.06-.22v-7.99h1.22v7.72l1.84-.4v-10.03h-3.82v-1.3h8.23v1.3h-3.11v3.92h2.45v.63c1.21-1.87,2.02-4.43,2.5-7.13l1.33,.23c-.22,1.06-.49,2.12-.77,3.1h5.62v1.26h-1.21Zm-4.95,.31c.41,2.12,.99,4.09,1.82,5.74,.86-1.66,1.42-3.67,1.78-6.05h-3.48l-.13,.31Z"/>
      <path d="M475.91,288.95c-.02,6.7,.02,14.04,1.06,14.04,.22,0,.32-1.19,.36-2.75,.23,.34,.56,.74,.81,.94-.13,2.3-.4,3.22-1.31,3.22-2.18,0-2.14-6.36-2.21-14.21h-9.7v4.54c0,2.9-.31,7-2.34,9.7-.22-.25-.76-.59-1.06-.76,1.93-2.56,2.12-6.19,2.12-8.95v-5.78h12.28Zm-3.28,10.6c.92,1.21,1.82,2.84,2.12,3.94l-1.08,.4c-.11-.41-.31-.88-.54-1.37-2.99,.22-6.07,.41-8.19,.58l-.09-1.21c1.12-.05,2.59-.14,4.2-.25v-2.52h-3.12v-4.9h3.12v-1.73h-3.37v-1.12h8.05v1.12h-3.49v1.73h3.19v4.9h-3.19v2.45l2.34-.14c-.31-.52-.63-1.06-.97-1.51l1.03-.36Zm-3.58-1.49v-2.75h-2.03v2.75h2.03Zm1.19-2.75v2.75h2.05v-2.75h-2.05Z"/>
      <path d="M470.26,315.52c-.34,1.75-.99,3.12-1.82,4.18,1.28,1.08,3.01,1.33,5.1,1.33,.56,0,3.89,0,4.63-.02-.18,.27-.36,.81-.41,1.13h-4.27c-2.45,0-4.36-.32-5.78-1.64-.95,.9-2.07,1.53-3.33,1.98-.13-.27-.4-.72-.63-.94,1.22-.36,2.34-.99,3.24-1.87-.38-.54-.74-1.19-1.04-2-.36,.5-.77,.94-1.19,1.3-.14-.16-.5-.52-.76-.72-.25,1.49-.68,2.99-1.42,4.2-.22-.25-.77-.68-1.04-.81,1.4-2.34,1.55-5.62,1.55-7.98v-4.39h5.87v-3.29h1.31v1.13h6.16v1.01h-6.16v1.15h6.28l.22-.05,.94,.25c-.38,1.03-.81,2.2-1.24,2.92l-1.1-.34c.25-.43,.49-1.08,.72-1.71h-5.87v1.08l4.57-.29,.05,.9-4.63,.31v.41c0,.5,.11,.67,.72,.67h4.2c.52,0,1.48-.04,1.85-.11,.04,.34,.05,.7,.11,.99-.32,.09-1.12,.09-1.85,.09h-4.43c-1.51,0-1.85-.47-1.85-1.64v-.32l-3.57,.23-.05-.92,3.62-.23v-1.17h-4.59v3.35c0,1.28-.07,2.86-.32,4.43,1.19-1.01,2.18-2.52,2.72-4.2l1.06,.27c-.14,.41-.29,.79-.47,1.19h2.02l.22-.04,.68,.18Zm-3.42,.83c-.07,.13-.14,.25-.2,.38,.25,.88,.61,1.6,1.04,2.18,.56-.7,.97-1.57,1.28-2.56h-2.12Zm8.59,3.69c-.9,0-1.15-.23-1.15-1.13v-2.52h-1.84v.41c0,1.19-.31,2.61-1.69,3.66-.16-.22-.61-.63-.83-.77,1.21-.88,1.42-1.98,1.42-2.92v-1.4h3.98v3.55c0,.34,.04,.4,.27,.4h.7c.22,0,.27-.2,.32-1.15,.2,.14,.56,.27,.83,.32-.07,1.22-.34,1.57-1.01,1.57h-1.01Z"/>
    </g>
    <g>
      <path d="M508.66,284.46v1.31h-15.92v-1.31h7.2v-4.41h-5.55v-1.3h5.55v-3.94h-6.37v-1.31h7.9c-.7-.83-1.98-1.96-3.06-2.75l1.08-.76c1.15,.83,2.59,2.05,3.29,2.9l-.85,.61h5.82v1.31h-6.39v3.94h5.65v1.3h-5.65v4.41h7.29Z"/>
      <path d="M500.27,292.07h-7.4v-1.1h7.4v1.1Zm-6.61,1.26h5.85v1.06h-5.85v-1.06Zm5.8,3.4h-5.8v-1.06h5.8v1.06Zm.05,6.54h-4.54v.85h-1.17v-6.05h5.71v5.2Zm-4.54-4.09v2.97h3.35v-2.97h-3.35Zm1.35-8.41c-.25-.65-.83-1.66-1.31-2.4l1.01-.52c.54,.74,1.12,1.67,1.39,2.3l-1.08,.61Zm12.48,4.66h-3.69v8.93h-1.35v-8.93h-3.53v-1.31h3.53v-5.87h1.35v5.87h3.69v1.31Z"/>
      <path d="M501.12,315.47c-.34,1.75-.99,3.12-1.82,4.18,1.28,1.08,3.01,1.33,5.1,1.33,.56,0,3.89,0,4.63-.02-.18,.27-.36,.81-.41,1.13h-4.27c-2.45,0-4.36-.32-5.78-1.64-.95,.9-2.07,1.53-3.33,1.98-.13-.27-.4-.72-.63-.94,1.22-.36,2.34-.99,3.24-1.87-.38-.54-.74-1.19-1.04-2-.36,.5-.77,.94-1.19,1.3-.14-.16-.5-.52-.76-.72-.25,1.49-.68,2.99-1.42,4.2-.22-.25-.77-.68-1.04-.81,1.4-2.34,1.55-5.62,1.55-7.98v-4.39h5.87v-3.3h1.31v1.13h6.16v1.01h-6.16v1.15h6.28l.22-.05,.94,.25c-.38,1.03-.81,2.2-1.24,2.92l-1.1-.34c.25-.43,.49-1.08,.72-1.71h-5.87v1.08l4.57-.29,.05,.9-4.63,.31v.41c0,.5,.11,.67,.72,.67h4.2c.52,0,1.48-.04,1.85-.11,.04,.34,.05,.7,.11,.99-.32,.09-1.12,.09-1.85,.09h-4.43c-1.51,0-1.85-.47-1.85-1.64v-.32l-3.57,.23-.05-.92,3.62-.23v-1.17h-4.59v3.35c0,1.28-.07,2.86-.32,4.43,1.19-1.01,2.18-2.52,2.72-4.2l1.06,.27c-.14,.41-.29,.79-.47,1.19h2.02l.22-.04,.68,.18Zm-3.42,.83c-.07,.13-.14,.25-.2,.38,.25,.88,.61,1.6,1.04,2.18,.56-.7,.97-1.57,1.28-2.56h-2.12Zm8.59,3.69c-.9,0-1.15-.23-1.15-1.13v-2.52h-1.84v.41c0,1.19-.31,2.61-1.69,3.66-.16-.22-.61-.63-.83-.77,1.21-.88,1.42-1.98,1.42-2.92v-1.4h3.98v3.55c0,.34,.04,.4,.27,.4h.7c.22,0,.27-.2,.32-1.15,.2,.14,.56,.27,.83,.32-.07,1.22-.34,1.57-1.01,1.57h-1.01Z"/>
    </g>
    <g>
      <path d="M558.37,277.85c-.74-.61-2.16-1.42-3.33-1.94l.72-.97c1.13,.45,2.61,1.22,3.35,1.8l-.74,1.12Zm-2.72,7.35c.95-1.37,2.38-3.73,3.4-5.76l.97,.88c-.94,1.89-2.2,4.12-3.26,5.78l-1.12-.9Zm1.08-15.11c1.19,.49,2.66,1.3,3.42,1.87l-.77,1.12c-.72-.61-2.18-1.48-3.37-2.02l.72-.97Zm13.2,16.22c-.18-.5-.49-1.12-.83-1.78-6.68,.83-7.44,.95-7.92,1.19-.07-.31-.29-.97-.45-1.33,.34-.09,.7-.52,1.15-1.17,.4-.54,1.58-2.45,2.48-4.47h-4.02v-1.28h4.63v-3.21h-3.83v-1.28h3.83v-3.1h1.33v3.1h3.98v1.28h-3.98v3.21h4.72v1.28h-5.08c-.94,1.91-2.05,3.82-3.17,5.33l5.69-.63c-.5-.81-1.04-1.62-1.6-2.32l1.08-.5c1.26,1.57,2.61,3.71,3.15,5.1l-1.17,.59Z"/>
      <path d="M560.75,293.6h4.34v1.22h-4.34v1.8h3.71v4.92c0,.61-.09,.95-.54,1.17-.41,.2-1.1,.22-2.09,.22-.05-.36-.22-.83-.4-1.17,.77,.02,1.37,.02,1.55,0,.2,0,.25-.05,.25-.23v-3.67h-2.48v6.46h-1.28v-6.46h-2.32v5.02h-1.22v-6.25h3.55v-1.8h-4.38v-1.22h4.38v-1.89h-2.34c-.29,.7-.59,1.35-.9,1.85-.27-.16-.86-.4-1.19-.5,.81-1.21,1.44-3.01,1.8-4.74l1.26,.25c-.16,.63-.34,1.3-.54,1.91h1.91v-2.52h1.28v2.52h3.64v1.22h-3.64v1.89Zm6.9,5.83h-1.26v-9.9h1.26v9.9Zm3.22-11.34v14.4c0,.88-.2,1.28-.74,1.51-.56,.23-1.55,.27-2.88,.27-.07-.38-.25-.99-.43-1.4,1.06,.04,2.07,.04,2.38,.04,.29-.02,.38-.09,.38-.4v-14.42h1.3Z"/>
      <path d="M563.68,315.45c-.34,1.75-.99,3.12-1.82,4.18,1.28,1.08,3.01,1.33,5.1,1.33,.56,0,3.89,0,4.63-.02-.18,.27-.36,.81-.41,1.13h-4.27c-2.45,0-4.36-.32-5.78-1.64-.95,.9-2.07,1.53-3.33,1.98-.13-.27-.4-.72-.63-.94,1.22-.36,2.34-.99,3.24-1.87-.38-.54-.74-1.19-1.04-2-.36,.5-.77,.94-1.19,1.3-.14-.16-.5-.52-.76-.72-.25,1.49-.68,2.99-1.42,4.2-.22-.25-.77-.68-1.04-.81,1.4-2.34,1.55-5.62,1.55-7.98v-4.39h5.87v-3.29h1.31v1.13h6.16v1.01h-6.16v1.15h6.28l.22-.05,.94,.25c-.38,1.03-.81,2.2-1.24,2.92l-1.1-.34c.25-.43,.49-1.08,.72-1.71h-5.87v1.08l4.57-.29,.05,.9-4.63,.31v.41c0,.5,.11,.67,.72,.67h4.2c.52,0,1.48-.04,1.85-.11,.04,.34,.05,.7,.11,.99-.32,.09-1.12,.09-1.85,.09h-4.43c-1.51,0-1.85-.47-1.85-1.64v-.32l-3.57,.23-.05-.92,3.62-.23v-1.17h-4.59v3.35c0,1.28-.07,2.86-.32,4.43,1.19-1.01,2.18-2.52,2.72-4.2l1.06,.27c-.14,.41-.29,.79-.47,1.19h2.02l.22-.04,.68,.18Zm-3.42,.83c-.07,.13-.14,.25-.2,.38,.25,.88,.61,1.6,1.04,2.18,.56-.7,.97-1.57,1.28-2.56h-2.12Zm8.59,3.69c-.9,0-1.15-.23-1.15-1.13v-2.52h-1.84v.41c0,1.19-.31,2.61-1.69,3.66-.16-.22-.61-.63-.83-.77,1.21-.88,1.42-1.98,1.42-2.92v-1.4h3.98v3.55c0,.34,.04,.4,.27,.4h.7c.22,0,.27-.2,.32-1.15,.2,.14,.56,.27,.83,.32-.07,1.22-.34,1.57-1.01,1.57h-1.01Z"/>
    </g>
  </g>
  <g>
    <path class="cls-2" d="M452.11,247.79h3.12v1.21h-3.12v3.19h-1.21v-3.19h-3.17v-1.21h3.17v-1.42h-2.52v-6.25h2.52v-1.31h-2.94v-1.17h2.94v-1.96h1.19v1.96h2.88v1.17h-2.88v1.31h2.65v6.25h-2.63v1.42Zm-2.74-5.04h1.66v-1.62h-1.66v1.62Zm0,2.61h1.66v-1.66h-1.66v1.66Zm4.34-4.23h-1.73v1.62h1.73v-1.62Zm0,2.57h-1.73v1.66h1.73v-1.66Zm6.52-4.32v1.62h3.49v9.67c0,.63-.11,1.01-.5,1.22-.41,.2-1.03,.22-1.89,.22-.05-.34-.22-.9-.4-1.22,.59,.04,1.15,.02,1.33,.02s.23-.05,.23-.23v-2.54h-2.27v3.84h-1.19v-3.84h-2.23v3.94h-1.21v-11.07h3.44v-1.62h-3.76v-1.19h3.76v-2.5h1.19v2.5h2.9c-.47-.56-1.4-1.33-2.2-1.87l.76-.65c.79,.5,1.76,1.28,2.23,1.82l-.72,.7h.9v1.19h-3.87Zm-3.42,2.79v1.82h2.23v-1.82h-2.23Zm2.23,4.81v-1.87h-2.23v1.87h2.23Zm1.19-4.81v1.82h2.27v-1.82h-2.27Zm2.27,4.81v-1.87h-2.27v1.87h2.27Z"/>
    <path class="cls-2" d="M475.66,248.52c-2.81,.67-5.83,1.37-7.98,1.85l-.23-1.35,1.28-.25v-12.21h5.85v10.97l.99-.22,.09,1.21Zm-5.71-10.73v2.63h3.37v-2.63h-3.37Zm3.37,3.83h-3.37v2.59h3.37v-2.59Zm-3.37,6.9c1.04-.22,2.18-.47,3.37-.72v-2.38h-3.37v3.1Zm13.5-8.77s-.02,.5-.02,.67c-.18,7.54-.36,10.1-.95,10.89-.34,.47-.72,.61-1.3,.68-.54,.05-1.51,.02-2.47-.02-.04-.4-.16-.94-.4-1.28,1.03,.07,1.96,.07,2.34,.07,.31,.02,.5-.04,.67-.27,.45-.54,.65-2.92,.81-9.47h-2.81c-.27,4.68-1.26,8.73-4.9,11.15-.2-.32-.63-.79-.97-.99,3.42-2.14,4.32-5.85,4.57-10.15h-2.86v-1.28h2.92c.05-1.31,.05-2.66,.05-4.05h1.3c0,1.39,0,2.74-.05,4.05h4.07Z"/>
    <path class="cls-2" d="M503.49,249.6h-7.31v2.52h-1.35v-2.52h-7.15v-1.19h7.15v-1.35h-5.37v-6.28h12.37v6.28h-5.65v1.35h7.31v1.19Zm-8.55-9.67h-5.94v-3.53h5.94v3.53Zm-1.28-2.63h-3.46v1.71h3.46v-1.71Zm-2.9,6.09h4.07v-1.53h-4.07v1.53Zm4.07,2.59v-1.57h-4.07v1.57h4.07Zm5.64-4.12h-4.29v1.53h4.29v-1.53Zm0,2.56h-4.29v1.57h4.29v-1.57Zm1.85-4.48h-5.98v-3.53h5.98v3.53Zm-1.26-2.63h-3.51v1.71h3.51v-1.71Z"/>
    <path class="cls-2" d="M512.81,236.14c-.49,1.31-1.12,2.59-1.82,3.82v12.15h-1.33v-10.07c-.56,.81-1.17,1.53-1.78,2.18-.13-.32-.5-1.01-.76-1.31,1.76-1.73,3.44-4.41,4.43-7.15l1.26,.38Zm10.66,13.97v1.3h-11.2v-1.3h6.28c.65-2.41,1.37-6.23,1.71-8.91l1.39,.25c-.47,2.75-1.21,6.27-1.85,8.66h3.67Zm-.74-9.87h-9.7v-1.3h9.7v1.3Zm-7.31,9.04c-.14-1.87-.67-5.17-1.22-7.67l1.21-.27c.59,2.5,1.13,5.73,1.33,7.56l-1.31,.38Zm2.03-10.53c-.14-.76-.5-1.96-.85-2.86l1.26-.32c.32,.9,.74,2.05,.9,2.79l-1.31,.4Z"/>
  </g>
</svg>