<svg width="14" height="18" viewBox="0 0 14 18" fill="none" xmlns="http://www.w3.org/2000/svg">
<path d="M6.97455 0.129011C5.12581 0.132375 3.35377 0.868271 2.04651 2.17552C0.739261 3.48278 0.0033644 5.25483 0 7.10356C0 13.1745 6.97455 17.8708 6.97455 17.8708C6.97455 17.8708 14 13.1745 14 7.10356C13.9983 6.18382 13.8151 5.27347 13.4608 4.42471C13.1066 3.57595 12.5882 2.80548 11.9355 2.1575C11.2828 1.50952 10.5086 0.996774 9.65724 0.648678C8.80593 0.300582 7.89426 0.123983 6.97455 0.129011ZM6.97455 9.91628C6.41824 9.91628 5.87443 9.75132 5.41188 9.44225C4.94933 9.13319 4.58881 8.6939 4.37592 8.17994C4.16304 7.66598 4.10733 7.10044 4.21586 6.55482C4.32439 6.0092 4.59228 5.50802 4.98565 5.11466C5.37901 4.72129 5.88019 4.4534 6.42581 4.34487C6.97143 4.23634 7.53697 4.29205 8.05093 4.50493C8.56489 4.71782 9.00418 5.07834 9.31324 5.54089C9.62231 6.00344 9.78727 6.54725 9.78727 7.10356C9.78727 7.84954 9.49093 8.56497 8.96344 9.09245C8.43596 9.61994 7.72053 9.91628 6.97455 9.91628Z" fill="#6868AC"/>
</svg>
