<?xml version="1.0" encoding="utf-8"?>
<!-- Generator: Adobe Illustrator 26.5.0, SVG Export Plug-In . SVG Version: 6.00 Build 0)  -->
<svg version="1.1" id="_層_1" xmlns="http://www.w3.org/2000/svg" xmlns:xlink="http://www.w3.org/1999/xlink" x="0px" y="0px"
	 viewBox="0 0 429.8 1167.1" style="enable-background:new 0 0 429.8 1167.1;" xml:space="preserve">
<style type="text/css">
	.st0{fill:#FFFFFF;}
	.st1{fill:none;stroke:#4D4D4D;stroke-width:1.01;stroke-miterlimit:10;}
	.st2{fill:none;stroke:#4D4D4D;stroke-miterlimit:10;}
	.st3{fill:none;stroke:#4D4D4D;stroke-miterlimit:10;stroke-dasharray:0,0,3.01,5.01;}
	.st4{fill:#4E6DAE;}
	.st5{fill:#465F97;}
	.st6{fill:#6161BC;}
	.st7{fill:#44B3C1;}
	.st8{fill:#42BA92;}
	.st9{fill:#FFB31A;}
</style>
<rect x="-8" y="-6.6" class="st0" width="444.3" height="1182.6"/>
<path class="st1" d="M180.4,797.8V332.4c0-4.7,4.5-8.5,10-8.5h9"/>
<path class="st1" d="M199.4,946.1h-9c-5.5,0-10-3.8-10-8.5V797.8"/>
<g>
	<line class="st2" x1="199.4" y1="1090.8" x2="197.9" y2="1090.8"/>
	<path class="st3" d="M192.9,1090.8h-2.5c-5.5,0-10-3.8-10-8.5V941.6"/>
	<line class="st2" x1="180.4" y1="939" x2="180.4" y2="937.5"/>
</g>
<g>
	<line class="st2" x1="183.7" y1="165.2" x2="156.2" y2="165.2"/>
	<path class="st2" d="M156.5,39.8l0.2,644.6c0,5.5,4.5,10,10,10h13.7"/>
	<path class="st2" d="M78.7,111.2l0.7-22.6c0.1-4.3,4.3-7.8,9.3-7.8h133.9c5.2,0,9.4,3.6,9.4,8v22.4"/>
	<path class="st4" d="M28.7,95.5h100c2.8,0,5,2.2,5,5v21.7c0,2.8-2.2,5-5,5h-100c-2.8,0-5-2.2-5-5v-21.7
		C23.7,97.7,25.9,95.5,28.7,95.5z"/>
	<path class="st5" d="M282,181.2H182c-2.8,0-5-2.2-5-5v-22c0-2.8,2.2-5,5-5h100c2.8,0,5,2.2,5,5v22C287,178.9,284.7,181.2,282,181.2
		z"/>
	<path class="st4" d="M182,95.2h100c2.8,0,5,2.2,5,5v21.7c0,2.8-2.2,5-5,5H182c-2.8,0-5-2.2-5-5v-21.7C177,97.4,179.2,95.2,182,95.2
		z"/>
	<g>
		<path class="st0" d="M55.5,106.8c-0.5,3-1.2,5.4-2.4,7.4c1,1.5,2.2,2.7,3.8,3.4c-0.3,0.3-0.7,0.8-0.9,1.1
			c-1.5-0.8-2.7-1.9-3.6-3.3c-1,1.3-2.4,2.5-4,3.3c-0.1-0.3-0.5-0.9-0.8-1.2c1.8-0.8,3.1-2,4.1-3.4c-0.8-1.5-1.4-3.2-1.8-5.1
			c-0.4,0.7-0.8,1.4-1.2,2c-0.2-0.2-0.8-0.7-1.1-0.9l0.1-0.1h-2v4.6l3.1-0.7l0.1,1.2c-3,0.7-6.1,1.5-8.4,2l-0.2-1.3l1.1-0.2v-8h1.2
			v7.7l1.8-0.4v-10h-3.8v-1.3h8.2v1.3h-3.1v3.9H48v0.6c1.2-1.9,2-4.4,2.5-7.1l1.3,0.2c-0.2,1.1-0.5,2.1-0.8,3.1h5.6v1.3L55.5,106.8
			L55.5,106.8z M50.5,107.1c0.4,2.1,1,4.1,1.8,5.7c0.9-1.7,1.4-3.7,1.8-6.1h-3.5L50.5,107.1L50.5,107.1z"/>
		<path class="st0" d="M74.9,105.2c-0.5,1.2-1.2,2.2-2.1,3.1c1.2,0.7,2.5,1.3,3.9,1.6c-0.3,0.3-0.7,0.8-0.9,1.1
			c-1.5-0.4-2.9-1.1-4.1-1.9c-1.2,0.8-2.5,1.4-4,1.9c-0.1-0.2-0.3-0.5-0.4-0.7c-0.3,1.1-0.7,2.1-1.1,2.8l-0.9-0.5
			c0.4-0.8,0.7-1.9,1-2.9h-1.7v7.4c0,0.7-0.1,1-0.6,1.2c-0.5,0.2-1.2,0.2-2.2,0.2c-0.1-0.3-0.2-0.9-0.4-1.2c0.8,0,1.5,0,1.7,0
			c0.2,0,0.3-0.1,0.3-0.3v-5.7c-0.7,1.7-1.6,3.3-2.6,4.4c-0.1-0.4-0.5-0.9-0.7-1.3c1.1-1.1,2.2-3,2.9-4.8h-2.7v-1.2H65
			c-0.9-0.8-2.6-1.8-4-2.4l0.8-0.9c0.6,0.2,1.2,0.5,1.8,0.9c0.7-0.5,1.4-1.2,1.9-1.8h-5.1v-1.2h6.1l0.2-0.1l0.9,0.6
			c-0.7,1.1-1.8,2.2-2.9,3.1c0.6,0.4,1.1,0.7,1.5,1.1l-0.6,0.7h1.2l0.2-0.1l0.8,0.3c-0.1,0.3-0.2,0.7-0.3,1c1.2-0.4,2.3-0.8,3.3-1.4
			c-0.7-0.7-1.4-1.4-1.9-2.2c-0.5,0.5-0.9,1-1.4,1.4c-0.2-0.2-0.7-0.7-1-0.9c1.4-1.1,2.8-2.7,3.5-4.4l1.3,0.3
			c-0.2,0.5-0.5,1-0.8,1.6h6v1.1L74.9,105.2L74.9,105.2z M74.6,112.2h1.3c0,0,0,0.4-0.1,0.6c-0.3,3.3-0.7,4.7-1.2,5.2
			c-0.3,0.3-0.7,0.4-1.2,0.5c-0.4,0-1.2,0-2,0c0-0.3-0.1-0.8-0.4-1.2c0.8,0.1,1.6,0.1,1.9,0.1c0.3,0,0.4,0,0.6-0.2
			c0.4-0.3,0.6-1.4,0.9-3.8h-3c-0.6,2.3-1.9,4.2-4.8,5.4c-0.2-0.3-0.6-0.8-0.8-1.1c2.5-0.9,3.7-2.4,4.2-4.3h-2.8v-1.1h3.1
			c0.1-0.6,0.2-1.2,0.2-1.8h1.3c-0.1,0.6-0.1,1.2-0.2,1.8L74.6,112.2L74.6,112.2L74.6,112.2z M69.7,105.2c0.5,0.9,1.2,1.7,2,2.3
			c0.7-0.7,1.3-1.4,1.7-2.3H69.7z"/>
		<path class="st0" d="M85.7,113.7H80v-1.3h5.7V113.7z M85.2,106.3h-4.7V105h4.7V106.3z M90.5,108.8c0,0.3,0,0.5,0,0.8
			c0.8,3.8,2.6,6.7,5.9,7.8c-0.3,0.3-0.7,0.8-0.9,1.2c-2.7-1.1-4.4-3.2-5.4-6.1c-0.6,2.2-2.1,4.5-5.6,6.3c-0.2-0.3-0.7-0.8-1-1
			c5.2-2.6,5.6-6.4,5.6-8.9v-1.4h1.4L90.5,108.8L90.5,108.8z M87.6,106.6c-0.6,1.5-1.2,2.8-1.9,3.8c-0.3-0.2-0.9-0.6-1.3-0.8
			c1.4-1.8,2.4-4.6,2.9-7.4l1.4,0.3c-0.2,0.9-0.4,1.9-0.7,2.8h6.5l0.2-0.1l1,0.5c-0.5,1.8-1.3,3.6-1.9,4.9c-0.3-0.2-0.8-0.4-1.1-0.6
			c0.4-0.8,1-2.2,1.3-3.4L87.6,106.6L87.6,106.6z"/>
		<path class="st0" d="M115.1,112.9c-1.1,0.8-2.6,1.7-3.9,2.4c1.4,1,3.1,1.7,5.1,2.1c-0.3,0.3-0.7,0.8-0.8,1.2
			c-4.1-0.9-6.9-3.1-8.5-6.5h-2.9v4.8l4.9-1.2c0,0.3-0.1,0.9,0,1.2c-5,1.3-5.9,1.5-6.3,1.8l-0.1,0.1c-0.1-0.3-0.4-1-0.6-1.3
			c0.4-0.2,0.9-0.6,0.9-1.3v-4h-2.9v-1.2h3.2v-7.9h11.1v1.1h-9.7v1.6h9.2v1.1h-9.2v1.5h9.2v1.1h-9.2v1.6h11.5v1.2h-7.5
			c0.5,0.9,1.1,1.8,1.9,2.5c1.3-0.7,2.8-1.6,3.7-2.4L115.1,112.9L115.1,112.9z"/>
	</g>
	<g>
		<path class="st0" d="M210.1,171.5v1.3h-15.9v-1.3h7.2v-4.4h-5.6v-1.3h5.6v-3.9H195v-1.3h7.9c-0.7-0.8-2-2-3.1-2.8l1.1-0.8
			c1.1,0.8,2.6,2.1,3.3,2.9l-0.9,0.6h5.8v1.3h-6.4v3.9h5.6v1.3h-5.6v4.4H210.1L210.1,171.5z"/>
		<path class="st0" d="M219.5,157.4c-0.5,1.3-1.2,2.6-1.9,3.8v12.1h-1.3v-10.1c-0.7,0.9-1.4,1.8-2.1,2.4c-0.1-0.3-0.6-1-0.8-1.3
			c1.9-1.7,3.8-4.5,4.9-7.3L219.5,157.4L219.5,157.4z M225.1,165.9v5.5h4.6v1.3h-10.6v-1.3h4.6v-5.5h-5.1v-1.3h5.1v-4.7h-4v-1.3h9.6
			v1.3h-4.3v4.7h5v1.3H225.1z"/>
		<path class="st0" d="M238.7,167.8c-0.2-0.5-0.8-1.6-1.2-2.4v8h-1.3v-7.5c-0.6,1.7-1.4,3.3-2.2,4.3c-0.1-0.4-0.5-1-0.7-1.3
			c1-1.3,2.1-3.6,2.7-5.6h-2.3v-1.3h2.5v-2.9c-0.6,0.1-1.3,0.3-1.9,0.4c-0.1-0.3-0.2-0.8-0.4-1.1c1.7-0.3,3.6-0.9,4.8-1.4l0.8,1.1
			c-0.6,0.3-1.3,0.5-2.1,0.7v3.2h2.1v1.3h-2.1v0.4c0.4,0.6,1.8,2.5,2.1,3L238.7,167.8L238.7,167.8z M248.7,168.8
			c-0.2-1.5-0.9-3.7-1.7-5.3c-0.9,2.2-2,4.2-3.4,5.9v1.8c0,0.7,0.1,0.9,0.8,0.9h2.1c0.6,0,0.7-0.5,0.8-2.7c0.3,0.2,0.8,0.5,1.1,0.5
			c-0.1,2.6-0.5,3.3-1.8,3.3h-2.4c-1.5,0-1.9-0.4-1.9-2v-0.2c-0.7,0.8-1.5,1.5-2.3,2.1c-0.2-0.2-0.8-0.7-1.1-0.9
			c1.3-0.9,2.4-2,3.4-3.2v-8.2h1.3v6.4c1.7-2.6,2.9-5.7,3.9-9.2l1.3,0.2c-0.5,1.8-1.1,3.6-1.8,5.2l1.1-0.3c0.8,1.7,1.5,3.9,1.8,5.3
			L248.7,168.8L248.7,168.8z M239.1,168.2c0.7-1.4,1.1-3.7,1.3-5.6l1,0.2c-0.2,1.8-0.6,4.3-1.3,5.7L239.1,168.2L239.1,168.2z
			 M245.4,160.5c-0.7-0.8-2.2-1.9-3.4-2.7l0.8-0.9c1.2,0.7,2.7,1.8,3.5,2.6L245.4,160.5L245.4,160.5z"/>
		<path class="st0" d="M269.4,166v1h-15.9v-1h7.2v-1.1h-6V164h6v-0.9h-5.5v-0.9h5.5v-1.1h-7.2v-1h7.2v-1h-5.3v-0.9h5.3v-1.3h1.3v1.3
			h5.1v1.9h2.1v1h-2.1v2H262v0.9h6.1v0.9H262v1.1L269.4,166L269.4,166z M255.8,167.9h11.5v5.6H266v-0.6h-8.9v0.6h-1.3L255.8,167.9
			L255.8,167.9z M257.1,168.8v1.1h8.9v-1.1H257.1z M266,171.9v-1.1h-8.9v1.1H266z M262,160.1h3.8v-1H262V160.1z M262,162.2h3.8v-1.1
			H262V162.2z"/>
	</g>
	<g>
		<path class="st0" d="M208.9,108.8h-1.3v-2.7h-12.3v2.7H194V105h2.9c-0.3-0.6-0.9-1.5-1.4-2.1l1.2-0.5c0.6,0.6,1.2,1.5,1.5,2.1
			l-1.1,0.5h3.8v-2.8h1.4v2.8h6.7L208.9,108.8L208.9,108.8z M207.8,116.5c0,0.7-0.1,1.1-0.7,1.3c-0.6,0.2-1.5,0.2-2.9,0.2
			c-0.1-0.4-0.3-0.9-0.5-1.2c1.1,0,2,0,2.3,0c0.3,0,0.4-0.1,0.4-0.3v-2.5h-4.2v4.7H201v-4.7h-4.4v3.9h-1.3v-5.2h5.8v-1.5h-4.2v-3.8
			h9.4v3.8h-3.9v1.5h5.5L207.8,116.5L207.8,116.5z M198.1,110.2h6.8v-1.8h-6.8V110.2z M207.5,102.8c-0.6,0.8-1.3,1.6-1.8,2.2
			l-1.1-0.4c0.5-0.6,1.1-1.6,1.5-2.2C206.1,102.4,207.5,102.8,207.5,102.8z"/>
		<path class="st0" d="M227.9,105.2c-0.5,1.2-1.2,2.2-2.1,3.1c1.1,0.7,2.5,1.3,3.9,1.6c-0.3,0.3-0.7,0.8-0.9,1.1
			c-1.5-0.4-2.9-1.1-4.1-1.9c-1.1,0.8-2.5,1.4-4,1.9c-0.1-0.2-0.3-0.5-0.4-0.7c-0.3,1.1-0.7,2.1-1.1,2.8l-0.9-0.5
			c0.4-0.8,0.7-1.9,1-2.9h-1.7v7.4c0,0.7-0.1,1-0.6,1.2c-0.5,0.2-1.2,0.2-2.2,0.2c-0.1-0.3-0.2-0.9-0.4-1.2c0.8,0,1.5,0,1.7,0
			c0.2,0,0.3-0.1,0.3-0.3v-5.7c-0.7,1.7-1.6,3.3-2.6,4.4c-0.1-0.4-0.5-0.9-0.7-1.3c1.1-1.1,2.2-3,2.9-4.8h-2.7v-1.2h4.8
			c-0.9-0.8-2.6-1.8-4-2.4l0.8-0.9c0.6,0.2,1.2,0.5,1.8,0.9c0.7-0.5,1.4-1.2,1.9-1.8h-5.1v-1.2h6.1l0.2-0.1l0.9,0.6
			c-0.7,1.1-1.9,2.2-2.9,3.1c0.6,0.4,1.1,0.7,1.5,1.1l-0.6,0.7h1.2l0.2-0.1l0.8,0.3c-0.1,0.3-0.2,0.7-0.3,1c1.2-0.4,2.3-0.8,3.3-1.4
			c-0.7-0.7-1.4-1.4-1.9-2.2c-0.5,0.5-0.9,1-1.4,1.4c-0.2-0.2-0.7-0.7-1-0.9c1.4-1.1,2.8-2.7,3.5-4.4l1.3,0.3
			c-0.2,0.5-0.5,1-0.8,1.6h6v1.1L227.9,105.2L227.9,105.2z M227.5,112.2h1.4c0,0,0,0.4-0.1,0.6c-0.3,3.3-0.7,4.7-1.2,5.2
			c-0.3,0.3-0.7,0.4-1.2,0.5c-0.4,0-1.2,0-2,0c0-0.3-0.1-0.8-0.4-1.2c0.8,0.1,1.6,0.1,1.9,0.1c0.3,0,0.4,0,0.6-0.2
			c0.4-0.3,0.6-1.4,0.9-3.8h-3c-0.6,2.3-1.9,4.2-4.8,5.4c-0.2-0.3-0.6-0.8-0.9-1.1c2.5-0.9,3.7-2.4,4.2-4.3h-2.8v-1.1h3.1
			c0.1-0.6,0.2-1.2,0.2-1.8h1.4c-0.1,0.6-0.1,1.2-0.2,1.8L227.5,112.2L227.5,112.2L227.5,112.2z M222.6,105.2c0.5,0.9,1.2,1.7,2,2.3
			c0.7-0.7,1.3-1.4,1.7-2.3H222.6z"/>
		<path class="st0" d="M238.6,113.7H233v-1.3h5.6V113.7z M238.1,106.3h-4.7V105h4.7V106.3z M243.4,108.8c0,0.3,0,0.5,0,0.8
			c0.8,3.8,2.6,6.7,5.9,7.8c-0.3,0.3-0.7,0.8-0.9,1.2c-2.7-1.1-4.4-3.2-5.4-6.1c-0.6,2.2-2.1,4.5-5.6,6.3c-0.2-0.3-0.7-0.8-1-1
			c5.2-2.6,5.6-6.4,5.6-8.9v-1.4h1.4L243.4,108.8L243.4,108.8z M240.5,106.6c-0.6,1.5-1.2,2.8-1.9,3.8c-0.3-0.2-0.9-0.6-1.3-0.8
			c1.4-1.8,2.4-4.6,2.9-7.4l1.4,0.3c-0.2,0.9-0.4,1.9-0.7,2.8h6.5l0.2-0.1l1,0.5c-0.5,1.8-1.3,3.6-1.9,4.9c-0.3-0.2-0.8-0.4-1.1-0.6
			c0.4-0.8,1-2.2,1.3-3.4L240.5,106.6L240.5,106.6z"/>
		<path class="st0" d="M268,112.9c-1.1,0.8-2.6,1.7-3.9,2.4c1.4,1,3.1,1.7,5.1,2.1c-0.3,0.3-0.6,0.8-0.8,1.2
			c-4.1-0.9-6.9-3.1-8.5-6.5h-2.9v4.8l4.9-1.2c0,0.3,0,0.9,0,1.2c-5,1.3-5.9,1.5-6.3,1.8l-0.1,0.1c-0.1-0.3-0.4-1-0.6-1.3
			c0.4-0.2,0.9-0.6,0.9-1.3v-4h-2.9v-1.2h3.1v-7.9h11.1v1.1h-9.7v1.6h9.2v1.1h-9.2v1.5h9.2v1.1h-9.2v1.6h11.5v1.2h-7.5
			c0.5,0.9,1.1,1.8,1.9,2.5c1.3-0.7,2.8-1.6,3.7-2.4L268,112.9L268,112.9z"/>
	</g>
	<path class="st6" d="M112.2,23.4h87.7c2.8,0,5,2.2,5,5v22c0,2.8-2.2,5-5,5h-87.7c-2.8,0-5-2.2-5-5v-22
		C107.2,25.6,109.4,23.4,112.2,23.4z"/>
	<g>
		<path class="st0" d="M136.6,34c-0.4,1-0.9,2.3-1.4,3.2h2.6v1.2h-9.4v-1.2h5.5c0.5-1,1-2.5,1.3-3.5L136.6,34L136.6,34z M137.4,33.6
			H129v-1.2h3.7c-0.2-0.6-0.5-1.3-0.7-1.9l1.2-0.3c0.4,0.7,0.7,1.6,0.9,2.2h3.3L137.4,33.6L137.4,33.6z M129.5,40h7.5v6.4h-1.3v-0.7
			h-4.9v0.9h-1.3L129.5,40L129.5,40z M131.2,37.1c-0.2-0.8-0.6-2.1-1.1-3.1l1.1-0.3c0.5,0.9,1,2.2,1.2,3L131.2,37.1L131.2,37.1z
			 M130.8,41.2v3.3h4.9v-3.3H130.8z M144.5,31.7c-0.6,1.6-1.5,3.7-2.2,5.4c1.6,1.7,2,3.1,2,4.3c0,1-0.2,1.9-0.8,2.3
			c-0.3,0.2-0.7,0.3-1.1,0.4c-0.4,0-1,0-1.5,0c0-0.4-0.1-0.9-0.4-1.3c0.5,0,1,0,1.4,0c0.3,0,0.5-0.1,0.7-0.2
			c0.4-0.2,0.5-0.8,0.5-1.4c0-1.1-0.4-2.4-2.1-4.1c0.7-1.5,1.4-3.4,1.9-4.8H140v14.2h-1.2V31.2h4.6l0.2-0.1L144.5,31.7L144.5,31.7z"
			/>
		<path class="st0" d="M183.3,40.9c-1.1,0.8-2.6,1.7-3.9,2.4c1.4,1,3.1,1.7,5.1,2c-0.3,0.3-0.6,0.8-0.8,1.2
			c-4.1-0.9-6.9-3.1-8.5-6.5h-2.9v4.8l4.9-1.2c0,0.3-0.1,0.9,0,1.2c-5,1.3-5.9,1.5-6.3,1.8l-0.1,0c-0.1-0.3-0.4-1-0.6-1.3
			c0.4-0.2,0.9-0.6,0.9-1.3v-4h-2.9v-1.2h3.1V31h11.1v1.1h-9.7v1.5h9.2v1.1h-9.2v1.5h9.2v1.1h-9.2v1.5h11.5v1.2h-7.5
			c0.5,1,1.1,1.8,1.9,2.5c1.3-0.7,2.8-1.6,3.7-2.4L183.3,40.9L183.3,40.9z"/>
	</g>
</g>
<g>
	<path class="st7" d="M207.7,208h22c2.8,0,5,2.2,5,5v221.3c0,2.8-2.2,5-5,5h-22c-2.8,0-5-2.2-5-5V213
		C202.7,210.2,204.9,208,207.7,208z"/>
	<g>
		<path class="st0" d="M217.1,298.4c-1.3,1-3.6,1.9-5.5,2.3c-0.2-0.3-0.5-0.8-0.8-1c1.9-0.3,4.1-1,5.3-1.8L217.1,298.4z
			 M226.5,295.9v1.1h-7.2v4.3H218V297h-7.1v-1.1h7.1v-1.4h-5.4v-1h5.4v-1.3h-6.3v-1.1h3.9c-0.2-0.5-0.5-1.2-0.9-1.7l0.9-0.2h-4.6
			V288h2.9c-0.3-0.7-0.9-1.8-1.4-2.6l1.1-0.4c0.6,0.8,1.3,1.9,1.5,2.6l-0.9,0.4h2.2v-3.2h1.3v3.2h2.1v-3.2h1.3v3.2h2.2l-0.7-0.2
			c0.5-0.7,1.1-1.9,1.4-2.7l1.4,0.4c-0.5,0.9-1.1,1.9-1.6,2.6h2.8v1.1h-4.7l1.2,0.3c-0.4,0.6-0.9,1.2-1.2,1.7h4.1v1.1h-6.5v1.3h5.6
			v1h-5.6v1.4H226.5L226.5,295.9z M215.9,289.1c0.4,0.6,0.8,1.3,0.9,1.8l-0.7,0.2h5l-0.6-0.2c0.4-0.5,0.8-1.3,1.1-1.8H215.9
			L215.9,289.1z M221.3,297.8c1.7,0.6,4,1.4,5.2,2l-0.8,0.9c-1.2-0.6-3.5-1.5-5.2-2.1L221.3,297.8L221.3,297.8z"/>
		<path class="st0" d="M225.3,307.7c-0.5,1.2-1.2,2.2-2.1,3.1c1.1,0.7,2.5,1.3,3.9,1.6c-0.3,0.3-0.7,0.8-0.9,1.1
			c-1.5-0.4-2.9-1.1-4.1-1.9c-1.1,0.8-2.5,1.4-4,1.9c-0.1-0.2-0.3-0.5-0.4-0.7c-0.3,1.1-0.7,2.1-1.1,2.8l-0.9-0.5
			c0.4-0.8,0.7-1.9,1-2.9H215v7.4c0,0.7-0.1,1-0.6,1.2c-0.5,0.2-1.2,0.2-2.2,0.2c-0.1-0.3-0.2-0.9-0.4-1.2c0.8,0,1.5,0,1.7,0
			c0.2,0,0.3-0.1,0.3-0.3v-5.7c-0.7,1.7-1.6,3.4-2.6,4.4c-0.1-0.4-0.5-0.9-0.7-1.3c1.1-1.1,2.2-3,2.9-4.8h-2.7v-1.2h4.8
			c-0.9-0.8-2.6-1.8-4-2.4l0.8-0.9c0.6,0.2,1.2,0.5,1.8,0.9c0.7-0.5,1.4-1.2,1.9-1.8h-5.1v-1.2h6.1l0.2,0l0.9,0.6
			c-0.7,1.1-1.9,2.2-2.9,3.1c0.6,0.4,1.1,0.7,1.5,1.1l-0.6,0.7h1.2l0.2-0.1l0.8,0.3c-0.1,0.3-0.2,0.6-0.3,1c1.2-0.4,2.3-0.8,3.3-1.4
			c-0.7-0.6-1.4-1.4-1.9-2.2c-0.5,0.5-0.9,1-1.4,1.4c-0.2-0.2-0.7-0.7-1-0.9c1.4-1.1,2.8-2.7,3.5-4.4l1.3,0.3
			c-0.2,0.5-0.5,1-0.8,1.5h6v1.1L225.3,307.7L225.3,307.7z M225,314.6h1.4c0,0,0,0.4-0.1,0.6c-0.3,3.4-0.7,4.7-1.2,5.2
			c-0.3,0.3-0.7,0.4-1.2,0.5c-0.4,0-1.2,0-2,0c0-0.3-0.1-0.9-0.4-1.2c0.8,0.1,1.6,0.1,1.9,0.1c0.3,0,0.4,0,0.6-0.2
			c0.4-0.3,0.6-1.4,0.9-3.9h-3c-0.6,2.3-1.9,4.2-4.8,5.4c-0.2-0.3-0.6-0.9-0.9-1.1c2.5-0.9,3.7-2.4,4.2-4.3h-2.8v-1.1h3.1
			c0.1-0.6,0.2-1.2,0.2-1.8h1.4c-0.1,0.6-0.1,1.2-0.2,1.8L225,314.6L225,314.6L225,314.6z M220.1,307.7c0.5,0.9,1.2,1.7,2,2.3
			c0.7-0.6,1.3-1.4,1.7-2.3H220.1z"/>
		<path class="st0" d="M226.6,338.3h-7.3v2.5h-1.4v-2.5h-7.1v-1.2h7.1v-1.4h-5.4v-6.3h12.4v6.3h-5.6v1.4h7.3V338.3z M218.1,328.7
			h-5.9v-3.5h5.9V328.7z M216.8,326h-3.5v1.7h3.5V326z M213.9,332.1h4.1v-1.5h-4.1V332.1z M217.9,334.7v-1.6h-4.1v1.6H217.9z
			 M223.6,330.6h-4.3v1.5h4.3V330.6z M223.6,333.2h-4.3v1.6h4.3V333.2z M225.4,328.7h-6v-3.5h6V328.7z M224.2,326h-3.5v1.7h3.5V326z
			"/>
		<path class="st0" d="M216.1,344.7c-0.5,1.3-1.1,2.6-1.8,3.8v12.1H213v-10.1c-0.6,0.8-1.2,1.5-1.8,2.2c-0.1-0.3-0.5-1-0.8-1.3
			c1.8-1.7,3.4-4.4,4.4-7.1L216.1,344.7L216.1,344.7z M226.8,358.6v1.3h-11.2v-1.3h6.3c0.6-2.4,1.4-6.2,1.7-8.9l1.4,0.2
			c-0.5,2.8-1.2,6.3-1.9,8.7H226.8z M226,348.8h-9.7v-1.3h9.7V348.8z M218.7,357.8c-0.1-1.9-0.7-5.2-1.2-7.7l1.2-0.3
			c0.6,2.5,1.1,5.7,1.3,7.6L218.7,357.8L218.7,357.8z M220.8,347.3c-0.1-0.8-0.5-2-0.9-2.9l1.3-0.3c0.3,0.9,0.7,2,0.9,2.8
			L220.8,347.3L220.8,347.3z"/>
	</g>
	<g>
		<g>
			<path d="M253.6,265.9H245v-1.1h2.4c0.1-0.4,0.2-0.9,0.4-1.5h-1.9v-1.1h2.2c0.1-0.5,0.2-1,0.3-1.4l1.2,0.1
				c-0.1,0.4-0.2,0.9-0.3,1.3h3.1v2.5h1.3V265.9L253.6,265.9z M250.6,275.1v2.2h-1.3v-2.2h-3.8c0.2-0.7,0.4-1.8,0.5-2.7h-0.9v-1h4.2
				v-0.9h-3.4v-3.5h6.7v3.5h-2v0.9h2.5v1h-2.5v1.7h2.7v1.1H250.6L250.6,275.1z M249.3,274v-1.7h-2.1c-0.1,0.5-0.2,1.1-0.3,1.7H249.3
				z M247.2,269.4h4.1v-1.6h-4.1V269.4z M249,263.4c-0.1,0.5-0.2,1-0.4,1.5h2.5v-1.5H249z M260.7,262.7c-0.2,9.6-0.4,12.7-1,13.6
				c-0.3,0.5-0.7,0.6-1.2,0.7c-0.5,0.1-1.3,0-2,0c0-0.4-0.1-0.9-0.4-1.2c0.8,0.1,1.5,0.1,1.9,0.1c0.2,0,0.4,0,0.6-0.3
				c0.5-0.6,0.6-3.7,0.8-12.4h-1.9c-0.1,4.9-0.5,10.8-4.1,14c-0.2-0.3-0.6-0.6-0.9-0.8c1.8-1.5,2.7-3.7,3.2-6.1
				c-0.6-1-1.6-2.4-2.4-3.5l0.9-0.5c0.6,0.7,1.2,1.6,1.8,2.4c0.2-1.8,0.3-3.7,0.3-5.4h-2.7V262h7V262.7L260.7,262.7z"/>
			<path d="M262.7,268.9c0.5-1.2,0.8-3.1,0.9-4.6l1,0.1c-0.1,1.5-0.4,3.5-0.9,4.8L262.7,268.9L262.7,268.9z M265.2,260.9h1.3v16.4
				h-1.3V260.9z M267.6,263.8c0.5,1,1.1,2.2,1.3,3l-1,0.5c-0.2-0.8-0.7-2.1-1.2-3.1L267.6,263.8L267.6,263.8z M279.1,275.5v1.3h-11
				v-1.3h5.1V271h-3.8v-1.2h3.8V266h-2.6c-0.4,1.1-0.8,2-1.3,2.8c-0.3-0.2-0.9-0.5-1.2-0.6c1-1.6,1.8-4,2.2-6.4l1.3,0.2
				c-0.2,0.9-0.4,1.9-0.6,2.8h2.2V261h1.3v3.7h4.1v1.3h-4.1v3.7h3.7v1.2h-3.7v4.5L279.1,275.5L279.1,275.5z"/>
			<path d="M286.1,267.2c-0.3,2.6-0.8,4.6-1.5,6.3c1.8,1.8,4.2,2.2,7.3,2.2c0.7,0,4.6,0,5.5,0c-0.2,0.3-0.4,0.9-0.5,1.2h-5
				c-3.3,0-5.9-0.5-7.8-2.3c-0.6,1.1-1.4,2-2.2,2.6c-0.2-0.3-0.7-0.7-1-0.9c0.9-0.6,1.7-1.6,2.4-2.7c-0.7-0.9-1.2-2-1.6-3.5l1-0.4
				c0.3,1.1,0.7,1.9,1.2,2.7c0.5-1.2,0.9-2.6,1.1-4.2h-2.9c0.8-1.3,1.8-3.3,2.6-5h-3.1V262h5.1c-0.8,1.6-1.7,3.5-2.5,5h1.3l0.2,0
				L286.1,267.2L286.1,267.2z M290.7,263.5h-3.5v-1.1h3.5V261h1.3v1.5h3.9v2.4h1.2v1.1h-1.2v2.4h-3.9v1.4h4.2v1h-4.2v1.5h4.9v1.1
				h-4.9v1.8h-1.3v-1.8h-4.5v-1.1h4.5v-1.5H287v-1h3.7v-1.4h-3.6v-1.1h3.6V266h-4.6v-1.1h4.6V263.5L290.7,263.5z M291.9,263.5v1.3
				h2.7v-1.3H291.9z M294.6,265.9h-2.7v1.3h2.7V265.9z"/>
			<path d="M305.8,265.1H299V264h6.8V265.1z M314.4,269.1c-0.7,2.2-1.8,3.9-3.2,5.2c1.2,0.8,2.6,1.4,4.2,1.8
				c-0.3,0.3-0.6,0.8-0.8,1.2c-1.7-0.5-3.2-1.2-4.5-2.1c-1.3,1-2.9,1.7-4.5,2.2c-0.1-0.3-0.4-0.8-0.6-1.1h-4.1v0.9h-1.2v-6h5.3v5.1
				c1.4-0.4,2.8-1,4-1.8c-1.1-1.1-2-2.5-2.7-4l0.8-0.3h-1.6v-1.3h7.7l0.2,0L314.4,269.1L314.4,269.1z M305.1,266.3v1.1h-5.3v-1.1
				H305.1z M299.8,268.7h5.3v1.1h-5.3V268.7z M303.9,272.2h-3v3h3V272.2z M302.3,263.8c-0.3-0.6-0.9-1.7-1.4-2.4l1-0.5
				c0.5,0.7,1.1,1.7,1.4,2.3L302.3,263.8L302.3,263.8z M308.6,263.6c0,1.6-0.5,3.5-2.6,4.8c-0.2-0.3-0.6-0.8-0.9-1
				c1.9-1.1,2.2-2.6,2.2-3.9v-2h5.5v4.2c0,0.5,0,0.7,0.3,0.7h1.1c0.2,0,0.6,0,0.8-0.1c0,0.3,0.1,0.9,0.1,1.1
				c-0.2,0.1-0.5,0.1-0.9,0.1H313c-1.2,0-1.4-0.5-1.4-1.9v-2.9h-3L308.6,263.6L308.6,263.6z M307.6,270.1c0.6,1.3,1.5,2.5,2.5,3.4
				c1.1-0.9,1.9-2.1,2.5-3.4H307.6L307.6,270.1z"/>
			<path d="M332,275.4c0,0.9-0.2,1.4-0.8,1.6c-0.6,0.2-1.8,0.2-3.4,0.2c0-0.4-0.2-1.1-0.5-1.4c1.2,0,2.5,0,2.8,0
				c0.3,0,0.4-0.1,0.4-0.5v-12h-13v-1.3H332L332,275.4L332,275.4z M328.6,266.4h-10.8v-1.2h10.8V266.4z M320.3,274.1v1.3H319v-7h8.4
				v5.7H320.3L320.3,274.1z M320.3,269.5v3.4h5.8v-3.4H320.3z"/>
		</g>
		<g>
			<path d="M250.2,302.2H245v-1.1h5.1V302.2z M251.6,311.5c-1.4,0.9-3.7,1.7-5.5,2.2c-0.2-0.3-0.7-0.8-1-1c1.8-0.4,4-1,5.3-1.7
				L251.6,311.5L251.6,311.5z M249.7,299.4h-4.3v-1h4.3V299.4z M247.4,303.6h11.7v7.2h-11.6L247.4,303.6L247.4,303.6z M248.7,305.7
				h9v-1.2h-9L248.7,305.7L248.7,305.7z M248.7,307.8h9v-1.2h-9L248.7,307.8L248.7,307.8z M248.7,309.9h9v-1.3h-9L248.7,309.9
				L248.7,309.9z M253,299.5c-0.4,0.7-0.9,1.3-1.4,1.8c-0.2-0.2-0.7-0.5-1-0.7c0.9-0.9,1.7-2.1,2.1-3.4l1.2,0.3
				c-0.1,0.3-0.2,0.7-0.4,1h6l0.2,0l0.9,0.3c-0.5,0.9-1,2-1.5,2.6l-1.1-0.4c0.3-0.4,0.6-0.9,0.9-1.4h-2.9v0.2c0,0.2,0,0.4,0,0.6
				c1,1.1,2.9,1.8,5.3,2c-0.2,0.2-0.6,0.7-0.8,1.1c-2-0.3-3.8-1-4.9-2.1c-0.6,0.9-2,1.7-5.2,2.2c-0.1-0.3-0.5-0.8-0.7-1
				c4.7-0.6,5.1-1.9,5.1-2.8v-0.2H253L253,299.5z M255.7,310.9c1.9,0.6,4,1.4,5.3,1.9l-1.2,0.8c-1.1-0.6-3.1-1.4-5-2L255.7,310.9
				L255.7,310.9z"/>
			<path d="M265.9,305.1c-0.7-0.5-2-1.4-3-1.9l0.8-0.9c1,0.5,2.3,1.3,3,1.8L265.9,305.1L265.9,305.1z M267,307.7
				c-0.7,1.9-1.8,4.1-2.6,5.8l-1.2-0.7c0.8-1.4,1.9-3.8,2.7-5.8L267,307.7z M266.7,300.4c-0.7-0.5-2-1.4-3-2l0.8-0.9
				c1,0.6,2.3,1.4,3,1.9L266.7,300.4z M269.5,303.1c0,3.1-0.3,7.6-2.4,10.6c-0.2-0.2-0.8-0.6-1.1-0.7c2-2.9,2.2-6.9,2.2-9.9v-4.9h11
				v1.2h-9.6V303.1L269.5,303.1z M272.4,308.9c-0.6,1.3-1.5,2.8-2.3,3.7c-0.2-0.2-0.8-0.5-1.1-0.7c0.8-0.9,1.6-2.1,2.1-3.3
				L272.4,308.9L272.4,308.9z M275,307.6v4.7c0,0.7-0.1,1-0.6,1.2c-0.5,0.2-1.2,0.2-2.5,0.2c0-0.3-0.2-0.8-0.4-1.1
				c0.9,0,1.7,0,1.9,0c0.2,0,0.3-0.1,0.3-0.3v-4.7h-3.2v-6.2h2.7c0.2-0.6,0.4-1.3,0.5-1.8l1.5,0.3c-0.2,0.5-0.5,1-0.7,1.5h3.9v6.2
				L275,307.6L275,307.6z M271.7,304h5.5v-1.6h-5.5V304z M271.7,306.6h5.5V305h-5.5V306.6z M277.4,308.5c0.7,1.1,1.6,2.6,2,3.4
				l-1.2,0.5c-0.4-0.9-1.3-2.4-2-3.5L277.4,308.5L277.4,308.5z"/>
			<path d="M283.7,299.6c-0.6,0.9-1.2,1.7-1.9,2.3c-0.2-0.2-0.6-0.7-0.9-0.9c1.1-1,2.1-2.4,2.8-3.9l1.2,0.3
				c-0.2,0.4-0.3,0.7-0.5,1.1h4.6v1.1h-3.4c0.6,0.5,1.2,1.1,1.6,1.6l-0.9,0.7c-0.4-0.5-1.1-1.2-1.7-1.8l0.7-0.5H283.7L283.7,299.6z
				 M289.2,300.9c0.2,0.4,0.6,0.9,0.7,1.4h6.5v2.9h-1.3v-1.9h-11.9v1.9H282v-2.9h6.6c-0.2-0.4-0.3-0.8-0.5-1.1L289.2,300.9
				L289.2,300.9z M285.3,309.3h10v4.4H294v-0.6h-8.7v0.6H284v-9.2h10.4v3.6h-9L285.3,309.3L285.3,309.3z M285.3,305.5v1.5h7.7v-1.5
				H285.3z M285.3,310.3v1.7h8.7v-1.7H285.3z M297.2,298.6v1.1h-3.9c0.6,0.5,1.4,1.2,1.9,1.7l-0.9,0.8c-0.4-0.5-1.2-1.3-1.9-1.8
				l0.8-0.6h-2c-0.4,0.6-0.9,1.1-1.3,1.5c-0.2-0.2-0.7-0.6-1-0.8c1-0.8,1.8-1.9,2.2-3.2l1.2,0.3c-0.1,0.4-0.3,0.8-0.5,1.1H297.2
				L297.2,298.6z"/>
			<path d="M304.7,310c-1.9,0.6-4,1.4-5.6,1.9l-0.3-1.4c0.7-0.2,1.5-0.5,2.4-0.8v-4.8h-2v-1.3h2v-3.9H299v-1.3h5.6v1.3h-2.1v3.9h1.8
				v1.3h-1.8v4.5l2-0.6L304.7,310L304.7,310z M315.5,311.9v1.2h-11.6v-1.2h5.5v-2.5h-4.1v-1.2h4.1v-2.1h-3.9v-8h9.1v8h-3.9v2.1h4.2
				v1.2h-4.2v2.5H315.5L315.5,311.9z M306.7,301.5h2.7v-2.3h-2.7V301.5z M306.7,304.9h2.7v-2.3h-2.7V304.9z M313.3,299.2h-2.8v2.3
				h2.8V299.2z M313.3,302.6h-2.8v2.3h2.8V302.6z"/>
			<path d="M332,311.7c0,0.9-0.2,1.4-0.8,1.6c-0.6,0.2-1.8,0.2-3.4,0.2c0-0.4-0.2-1.1-0.5-1.4c1.2,0,2.5,0,2.8,0
				c0.3,0,0.4-0.1,0.4-0.5v-12h-13v-1.3H332L332,311.7L332,311.7z M328.6,302.8h-10.8v-1.2h10.8V302.8z M320.3,310.4v1.3H319v-7h8.4
				v5.7H320.3L320.3,310.4z M320.3,305.9v3.4h5.8v-3.4H320.3z"/>
		</g>
		<g>
			<path d="M252.9,345.4c-0.2,0.8-0.6,1.6-1.6,2.4c0.8,0.4,1.5,0.7,2.1,1.1l-0.9,0.8c-0.6-0.4-1.4-0.8-2.2-1.2
				c-1.1,0.6-2.8,1.1-5,1.5c-0.1-0.3-0.4-0.7-0.6-0.9c1.9-0.3,3.3-0.7,4.3-1.2c-0.9-0.4-1.9-0.7-2.8-1c0.3-0.4,0.6-0.8,0.9-1.2
				l-2.1,0.1l-0.1-1c0.8,0,1.8-0.1,2.9-0.1c0.3-0.5,0.6-1,0.8-1.4h-2.9v-2.9h3.4v-0.7h-2.9v-1.9H245v-1h1.2v-1.8h2.9v-1.3h1.1v1.3
				h3.1v1.8h1.2v1h-1.2v1.9h-3.1v0.7h3.5v2.9h-3.8c-0.2,0.5-0.5,0.9-0.8,1.4c0.9,0,1.8-0.1,2.7-0.1v-0.9h1.1v0.8l0.9,0l0,0.9
				L252.9,345.4L252.9,345.4z M246.9,342.4h2.2v-1.1h-2.2V342.4z M247.4,335.8v1h1.8v-1H247.4z M249.1,338.7v-1.1h-1.8v1.1H249.1z
				 M248.5,345.7c-0.2,0.3-0.4,0.6-0.6,0.8c0.7,0.2,1.5,0.5,2.2,0.8c0.9-0.6,1.3-1.2,1.5-1.8L248.5,345.7L248.5,345.7z M250.2,335.8
				v1h1.9v-1H250.2z M252.1,338.7v-1.1h-1.9v1.1H252.1z M250.2,341.3v1.1h2.3v-1.1H250.2z M260,338.2c-0.3,2.7-0.8,5-1.6,6.9
				c0.8,1.6,1.8,2.9,3,3.8c-0.3,0.2-0.6,0.6-0.8,1c-1.2-0.8-2.1-2-2.8-3.4c-0.8,1.5-1.9,2.7-3.3,3.7c-0.1-0.2-0.5-0.8-0.7-1
				c1.5-1,2.6-2.4,3.4-4c-0.6-1.4-1-3-1.3-4.8c-0.3,0.7-0.6,1.4-0.9,2c-0.2-0.2-0.6-0.6-0.9-0.8c1.2-1.9,1.9-4.8,2.3-7.8l1.1,0.2
				c-0.1,1-0.3,2.1-0.6,3.1h4.4v1.2L260,338.2L260,338.2z M256.5,338.2c0.3,1.9,0.7,3.7,1.2,5.3c0.5-1.5,0.8-3.3,1-5.3H256.5z"/>
			<path d="M268.5,334c-0.5,1.3-1.1,2.6-1.8,3.8V350h-1.3v-10.1c-0.6,0.8-1.2,1.5-1.8,2.2c-0.1-0.3-0.5-1-0.8-1.3
				c1.8-1.7,3.4-4.4,4.4-7.1L268.5,334z M279.2,348v1.3H268V348h6.3c0.6-2.4,1.4-6.2,1.7-8.9l1.4,0.2c-0.5,2.8-1.2,6.3-1.9,8.7
				H279.2z M278.5,338.1h-9.7v-1.3h9.7V338.1z M271.2,347.2c-0.1-1.9-0.7-5.2-1.2-7.7l1.2-0.3c0.6,2.5,1.1,5.7,1.3,7.6L271.2,347.2
				L271.2,347.2z M273.2,336.7c-0.1-0.8-0.5-2-0.9-2.9l1.3-0.3c0.3,0.9,0.7,2,0.9,2.8L273.2,336.7L273.2,336.7z"/>
			<path d="M296.1,338.2c-0.5,3-1.2,5.4-2.4,7.4c1,1.5,2.2,2.6,3.8,3.4c-0.3,0.3-0.7,0.8-0.9,1.1c-1.5-0.8-2.7-1.9-3.6-3.3
				c-1,1.4-2.4,2.5-4,3.4c-0.1-0.3-0.5-0.9-0.8-1.2c1.8-0.9,3.1-2,4.1-3.4c-0.8-1.5-1.4-3.2-1.9-5.1c-0.4,0.7-0.8,1.4-1.2,2
				c-0.2-0.2-0.8-0.7-1.1-0.9l0.1-0.1h-2v4.6l3.1-0.7l0.1,1.2c-3,0.7-6.1,1.5-8.4,2l-0.2-1.3l1.1-0.2v-8h1.2v7.7l1.8-0.4v-10h-3.8
				v-1.3h8.2v1.3h-3.1v3.9h2.5v0.6c1.2-1.9,2-4.4,2.5-7.1l1.3,0.2c-0.2,1.1-0.5,2.1-0.8,3.1h5.6v1.3L296.1,338.2L296.1,338.2z
				 M291.2,338.5c0.4,2.1,1,4.1,1.8,5.7c0.9-1.7,1.4-3.7,1.8-6h-3.5L291.2,338.5L291.2,338.5z"/>
			<path d="M301.5,336.8v5.3c0,2.4-0.2,5.9-1.5,8c-0.2-0.2-0.8-0.6-1.1-0.8c1.2-2,1.3-5,1.3-7.3v-6.5h7.2c-0.2-0.6-0.5-1.2-0.8-1.8
				l1.3-0.4c0.4,0.7,0.8,1.5,1,2.1h6.2v1.2H301.5L301.5,336.8z M306.6,337.5c-0.3,1-0.8,2-1.3,3v9.5H304v-7.5
				c-0.4,0.6-0.9,1.1-1.4,1.6c-0.1-0.3-0.4-0.9-0.6-1.2c1.5-1.4,2.7-3.8,3.3-5.8L306.6,337.5L306.6,337.5z M315.2,341.3h-2v7.1
				c0,0.8-0.2,1.2-0.7,1.4c-0.6,0.2-1.5,0.2-2.8,0.2c0-0.4-0.3-0.9-0.5-1.3c1,0,2,0,2.3,0c0.3,0,0.4-0.1,0.4-0.4v-7.1h-5.4V340h5.4
				v-2.7h1.3v2.7h2V341.3L315.2,341.3z M308.2,342.5c0.8,1.1,1.7,2.6,2.1,3.5l-1.1,0.6c-0.4-1-1.3-2.5-2-3.6L308.2,342.5z"/>
			<path d="M332,348c0,0.9-0.2,1.4-0.8,1.6c-0.6,0.2-1.8,0.2-3.4,0.2c0-0.4-0.2-1.1-0.5-1.4c1.2,0,2.5,0,2.8,0
				c0.3,0,0.4-0.1,0.4-0.5v-12h-13v-1.3H332L332,348L332,348z M328.6,339.1h-10.8v-1.2h10.8V339.1z M320.3,346.8v1.3H319v-7h8.4v5.7
				H320.3L320.3,346.8z M320.3,342.2v3.4h5.8v-3.4H320.3z"/>
		</g>
		<g>
			<path d="M255.1,380c0.9,2.9,2.6,4.8,4.2,4.8c0.5,0,0.7-0.7,0.8-2.6c0.3,0.3,0.8,0.5,1.2,0.6c-0.2,2.6-0.8,3.3-2.1,3.3
				c-2.4,0-4.5-2.5-5.5-6.1h-5.4v4.5l4.3-1c0,0.4,0.1,1,0.1,1.2c-4.9,1.3-5.6,1.5-6,1.8c-0.1-0.4-0.4-1-0.6-1.2
				c0.3-0.2,0.8-0.6,0.8-1.3v-13.1h12.7v5.2h-5.3c0.1,1,0.2,1.9,0.4,2.7h6.2v1.3L255.1,380L255.1,380z M248.3,372.1v2.7h10v-2.7
				H248.3z M253.4,378.8c-0.2-0.9-0.3-1.8-0.4-2.7h-4.7v2.7H253.4z"/>
			<path d="M279.1,384.5v1.3h-15.9v-1.3h7.2v-4.4h-5.5v-1.3h5.5v-3.9H264v-1.3h7.9c-0.7-0.8-2-2-3.1-2.8l1.1-0.8
				c1.1,0.8,2.6,2,3.3,2.9l-0.9,0.6h5.8v1.3h-6.4v3.9h5.6v1.3h-5.6v4.4L279.1,384.5L279.1,384.5z"/>
			<path d="M282.7,381.6c-0.2,1.6-0.5,3.2-0.9,4.3c-0.2-0.1-0.7-0.3-1-0.4c0.4-1.1,0.7-2.7,0.9-4.1L282.7,381.6L282.7,381.6z
				 M286.3,376.8c0.5,1.1,1,2.6,1.2,3.4l-1,0.4c0-0.2-0.1-0.6-0.2-0.9c-4,0.6-4.6,0.8-4.9,0.9c0-0.3-0.2-0.9-0.4-1.2
				c0.4-0.1,0.8-0.5,1.3-1.2c0.3-0.3,0.9-1.1,1.5-2.1c-1.9,0.2-2.2,0.3-2.5,0.4c-0.1-0.2-0.2-0.9-0.4-1.1c0.3-0.1,0.6-0.5,1-1
				c0.4-0.5,1.6-2.6,2.3-4.5l1.1,0.5c-0.8,1.7-1.7,3.5-2.7,4.8l1.9-0.2c0.5-0.8,0.9-1.6,1.3-2.5l1,0.6c-1.1,2.1-2.5,4.3-3.9,6
				l3.1-0.4c-0.2-0.6-0.4-1.1-0.6-1.7L286.3,376.8L286.3,376.8z M284.5,381.4c0.2,1.2,0.5,2.7,0.5,3.8l-1,0.2c0-1.1-0.2-2.6-0.4-3.9
				L284.5,381.4z M286.4,380.9c0.4,1.1,0.9,2.5,1.1,3.5l-0.9,0.3c-0.2-1-0.6-2.4-1-3.5L286.4,380.9L286.4,380.9z M296.9,384.9
				c0,0.7-0.1,1.1-0.6,1.3c-0.4,0.2-1.2,0.2-2.3,0.2c0-0.3-0.2-0.9-0.3-1.2c0.8,0,1.5,0,1.7,0c0.2,0,0.3-0.1,0.3-0.3V372H289v14.4
				h-1.2v-15.6h9.2L296.9,384.9L296.9,384.9z M294,381.9c0.3,0,0.8,0,1.1-0.1c0,0.3,0.1,0.7,0.1,1c-0.2,0.1-0.7,0.1-1.1,0.1h-2.3
				c-1.2,0-1.5-0.4-1.5-1.6v-1.8h-0.7v-1.1h2.5c-0.2-0.5-0.5-1.1-0.7-1.6l0.8-0.3h-2.8v-1.1h3.4c0.3-0.9,0.7-2.1,0.9-3l1,0.3
				c-0.3,0.9-0.6,1.9-0.9,2.7h1.5v1.1h-3c0.3,0.5,0.6,1.2,0.8,1.6l-0.6,0.3h2.7v1.1h-3.7v1.8c0,0.5,0,0.6,0.4,0.6H294L294,381.9z
				 M290.9,372.5c0.5,0.8,0.9,1.9,1,2.6l-0.9,0.3c-0.1-0.7-0.5-1.8-0.9-2.6L290.9,372.5L290.9,372.5z"/>
			<path d="M304.2,380.8c0-0.3-0.1-0.6-0.2-1.1c-3.7,0.6-4.2,0.7-4.6,0.9c-0.1-0.2-0.3-0.9-0.4-1.3c0.4,0,0.8-0.5,1.3-1.1
				c0.3-0.3,0.9-1.1,1.5-2.1c-1.9,0.2-2.3,0.3-2.6,0.5c-0.1-0.3-0.3-0.9-0.4-1.2c0.3-0.1,0.6-0.4,1-1c0.4-0.5,1.7-2.6,2.5-4.5
				l1.2,0.5c-0.9,1.7-1.9,3.5-2.9,4.8l1.9-0.1c0.5-0.8,1-1.6,1.4-2.4l1.1,0.7c-1.2,2-2.6,4.2-4.1,5.8l2.7-0.4
				c-0.2-0.6-0.4-1.2-0.6-1.8l1-0.2c0.5,1.2,1,2.8,1.1,3.7L304.2,380.8L304.2,380.8z M300.8,381.6c-0.2,1.6-0.5,3.3-0.9,4.4
				c-0.2-0.1-0.8-0.3-1.1-0.4c0.4-1.1,0.7-2.7,0.9-4.1L300.8,381.6L300.8,381.6z M302.7,381.4c0.2,1.2,0.5,2.8,0.5,3.9l-1.1,0.2
				c0-1.1-0.2-2.7-0.5-3.9L302.7,381.4z M304.4,381c0.4,1.1,0.9,2.4,1,3.3l-1,0.3c-0.2-0.9-0.6-2.3-1-3.4L304.4,381L304.4,381z
				 M314.5,372.2c-0.7,1.8-1.8,3.3-3,4.6c1.1,1,2.5,1.8,4,2.4c-0.3,0.2-0.7,0.8-0.9,1.1c-0.1,0-0.3-0.1-0.4-0.2v6.1H313v-0.6h-5v0.6
				h-1.3v-6c-0.2,0.1-0.4,0.2-0.6,0.3c-0.2-0.3-0.5-0.8-0.8-1.1c1.5-0.6,3.1-1.5,4.4-2.7c-0.8-0.8-1.4-1.7-1.9-2.5
				c-0.5,0.7-1.1,1.3-1.8,1.8c-0.2-0.2-0.7-0.7-1-0.9c1.7-1.2,3.1-3.1,3.9-5.2l1.3,0.3c-0.2,0.6-0.5,1.1-0.8,1.6h3.9l0.2-0.1
				L314.5,372.2L314.5,372.2z M313.7,379.8c-1.1-0.6-2.1-1.3-3-2.2c-1,0.9-2,1.6-3.1,2.2H313.7L313.7,379.8z M313,384.5V381h-5v3.5
				H313z M308.7,373.3c0.5,0.9,1.1,1.8,2,2.7c0.9-0.9,1.6-1.9,2.1-3h-3.9L308.7,373.3L308.7,373.3z"/>
			<path d="M332,384.4c0,0.9-0.2,1.4-0.8,1.6c-0.6,0.2-1.8,0.2-3.4,0.2c0-0.4-0.2-1.1-0.5-1.4c1.2,0,2.5,0,2.8,0
				c0.3,0,0.4-0.1,0.4-0.5v-12h-13v-1.3H332L332,384.4L332,384.4z M328.6,375.5h-10.8v-1.2h10.8V375.5z M320.3,383.1v1.3H319v-7h8.4
				v5.7H320.3L320.3,383.1z M320.3,378.6v3.4h5.8v-3.4H320.3z"/>
		</g>
		<g>
			<path d="M261,414.6c-2.5,5.3-8.6,7.4-15,8.1c-0.1-0.4-0.3-1-0.5-1.3c3-0.3,5.9-0.9,8.4-2c-0.6-0.7-1.6-1.5-2.5-2.2
				c-0.9,0.5-1.8,0.9-2.8,1.3c-0.2-0.3-0.5-0.8-0.9-1c3.6-1.3,6.2-3.3,7.5-5.1l1.5,0.3c-0.4,0.5-0.7,0.9-1.2,1.3h4.3l0.3-0.1
				L261,414.6L261,414.6z M258.4,408.3c-2.3,4-7.5,6.4-12.2,7.4c-0.1-0.4-0.4-0.9-0.6-1.2c2-0.4,4.1-1,6-1.9c-0.6-0.6-1.5-1.4-2.4-2
				c-0.6,0.4-1.4,0.8-2.1,1.1c-0.2-0.3-0.6-0.7-0.9-0.9c2.9-1.2,5-3,6.2-4.4l1.5,0.3c-0.3,0.4-0.7,0.9-1.2,1.3h4.7l0.2,0
				L258.4,408.3L258.4,408.3z M251.3,409.1c-0.3,0.3-0.7,0.5-1.1,0.8c0.9,0.6,1.9,1.4,2.6,2.1c1.4-0.8,2.7-1.8,3.6-2.9L251.3,409.1
				L251.3,409.1z M254.2,415.4c-0.5,0.4-1.1,0.8-1.7,1.2c0.9,0.7,2,1.6,2.7,2.3c1.6-0.9,2.9-2,3.9-3.5H254.2L254.2,415.4z"/>
			<path d="M277.1,421.1c0.7,0,0.8-0.5,0.9-3.2c0.3,0.2,0.9,0.5,1.2,0.6c-0.1,3.1-0.5,3.9-2.1,3.9h-2.6c-1.6,0-2-0.5-2-2V414h-3.4
				c-0.3,3.9-1.2,7-5.4,8.7c-0.2-0.3-0.5-0.8-0.9-1c3.8-1.5,4.5-4.3,4.8-7.6h-4.6v-1.3H279v1.3h-5.1v6.4c0,0.6,0.1,0.7,0.9,0.7
				L277.1,421.1L277.1,421.1z M277.5,409h-12.7v-1.3h12.7V409z"/>
			<path d="M283.5,417.1c-0.2,1.7-0.7,3.5-1.6,4.9c-0.2-0.2-0.8-0.5-1.1-0.6c1.4-2.1,1.6-5.1,1.6-7.1v-2.4h7.4v5.3L283.5,417.1
				L283.5,417.1z M287.1,406.9c-0.1,0.1-0.2,0.3-0.3,0.4c1.4,0.9,3.1,1.9,4,2.6L290,411c-0.9-0.7-2.5-1.9-4-2.8
				c-1.2,1.5-2.9,2.8-4.5,3.6c-0.1-0.3-0.5-0.9-0.7-1.2c2-1,4-2.5,5.1-4.3L287.1,406.9L287.1,406.9z M283.5,417.9h6.7v4.7h-1.2v-0.7
				h-4.3v0.7h-1.1V417.9L283.5,417.9z M288.5,416.1v-1.2h-4.8c0,0.4,0,0.8-0.1,1.2H288.5L288.5,416.1z M283.6,412.8v1.1h4.8v-1.1
				H283.6z M288.1,410v0.9h-3.8V410H288.1z M284.6,418.9v1.9h4.3v-1.9H284.6z M293,418.1h-1.3v-9.9h1.3V418.1z M296.4,406.4v14.6
				c0,0.9-0.2,1.3-0.7,1.5c-0.5,0.2-1.4,0.3-2.9,0.3c-0.1-0.4-0.3-1-0.5-1.3c1.1,0,2,0,2.3,0c0.3,0,0.4-0.1,0.4-0.4v-14.6
				L296.4,406.4L296.4,406.4z"/>
			<path d="M301.8,417.7c-0.4,1.3-1.2,2.7-1.9,3.6c-0.2-0.2-0.7-0.5-0.9-0.6c0.7-0.9,1.3-2.1,1.7-3.2L301.8,417.7z M304,416.4v6.2
				h-1.3v-6.2h-3.6v-1.1h3.6v-1.9H299v-1.1h5c0.3-0.8,0.8-2,1-2.8l1.2,0.2c-0.3,0.9-0.7,1.8-1,2.6h2.3v1.1H304v1.9h3.3v1.1H304z
				 M307.2,409.3h-7.9v-1.1h3.5c-0.2-0.5-0.5-1.1-0.8-1.6l1.3-0.3c0.4,0.6,0.8,1.4,1,2h2.8L307.2,409.3L307.2,409.3z M301.1,412.2
				c-0.1-0.7-0.4-1.7-0.7-2.5l1.1-0.2c0.4,0.8,0.7,1.8,0.7,2.5L301.1,412.2L301.1,412.2z M305.7,417.3c0.6,0.9,1.2,2,1.5,2.8l-1,0.5
				c-0.3-0.8-0.9-2-1.5-2.9L305.7,417.3z M315.3,413.6h-2v9.1H312v-9.1h-2.5v0.6c0,2.6-0.2,6.1-1.9,8.4c-0.2-0.2-0.7-0.7-1-0.8
				c1.5-2.2,1.7-5.2,1.7-7.6V408c2-0.3,4.3-0.9,5.6-1.4l1.1,1c-1.5,0.6-3.5,1-5.4,1.3v3.4h5.7L315.3,413.6L315.3,413.6z"/>
			<path d="M332,420.7c0,0.9-0.2,1.4-0.8,1.6c-0.6,0.2-1.8,0.2-3.4,0.2c0-0.4-0.2-1.1-0.5-1.4c1.2,0,2.5,0,2.8,0
				c0.3,0,0.4-0.1,0.4-0.5v-12h-13v-1.3H332L332,420.7L332,420.7z M328.6,411.8h-10.8v-1.2h10.8V411.8z M320.3,419.5v1.3H319v-7h8.4
				v5.7H320.3L320.3,419.5z M320.3,414.9v3.4h5.8v-3.4H320.3z"/>
		</g>
		<g>
			<path d="M252.9,236.5c-0.2,0.8-0.6,1.6-1.6,2.4c0.8,0.4,1.5,0.7,2.1,1.1l-0.9,0.8c-0.6-0.4-1.4-0.8-2.2-1.2
				c-1.1,0.6-2.8,1.1-5,1.6c-0.1-0.3-0.4-0.7-0.6-0.9c1.9-0.3,3.3-0.7,4.3-1.2c-0.9-0.4-1.9-0.7-2.8-1c0.3-0.4,0.6-0.8,0.9-1.2
				l-2.1,0.1l-0.1-1c0.8,0,1.8-0.1,2.9-0.1c0.3-0.5,0.6-0.9,0.8-1.4h-2.9v-2.9h3.4v-0.7h-2.9v-1.9h-1.2v-1h1.2v-1.8h2.9v-1.3h1.1
				v1.3h3.1v1.8h1.2v1h-1.2v1.9h-3.1v0.7h3.5v2.9h-3.8c-0.2,0.4-0.5,0.9-0.8,1.4c0.9,0,1.8-0.1,2.7-0.1v-0.9h1.1v0.8l0.9-0.1l0,0.9
				L252.9,236.5L252.9,236.5z M246.9,233.5h2.2v-1.1h-2.2V233.5z M247.4,226.9v0.9h1.8v-0.9H247.4z M249.1,229.8v-1.1h-1.8v1.1
				H249.1z M248.5,236.7c-0.2,0.3-0.4,0.6-0.6,0.8c0.7,0.2,1.5,0.5,2.2,0.8c0.9-0.6,1.3-1.2,1.5-1.8L248.5,236.7L248.5,236.7z
				 M250.2,226.9v0.9h1.9v-0.9H250.2z M252.1,229.8v-1.1h-1.9v1.1H252.1z M250.2,232.4v1.1h2.3v-1.1H250.2z M260,229.3
				c-0.3,2.7-0.8,5-1.6,6.9c0.8,1.6,1.8,2.9,3,3.8c-0.3,0.2-0.6,0.6-0.8,0.9c-1.2-0.8-2.1-2-2.8-3.4c-0.8,1.5-1.9,2.7-3.3,3.7
				c-0.1-0.2-0.5-0.8-0.7-1c1.5-1,2.6-2.4,3.4-4.1c-0.6-1.4-1-3-1.3-4.8c-0.3,0.7-0.6,1.4-0.9,2c-0.2-0.2-0.6-0.6-0.9-0.8
				c1.2-1.9,1.9-4.8,2.3-7.8l1.1,0.2c-0.1,1-0.3,2.1-0.6,3.1h4.4v1.2L260,229.3L260,229.3z M256.5,229.3c0.3,1.9,0.7,3.7,1.2,5.3
				c0.5-1.6,0.8-3.3,1-5.3H256.5z"/>
			<path d="M268.6,225.1c-0.5,1.3-1.1,2.6-1.8,3.8v12.1h-1.3V231c-0.6,0.8-1.2,1.5-1.8,2.2c-0.1-0.3-0.5-1-0.8-1.3
				c1.8-1.7,3.4-4.4,4.4-7.1L268.6,225.1L268.6,225.1z M279.2,239.1v1.3H268v-1.3h6.3c0.6-2.4,1.4-6.2,1.7-8.9l1.4,0.2
				c-0.5,2.8-1.2,6.3-1.9,8.7H279.2z M278.5,229.2h-9.7v-1.3h9.7V229.2z M271.2,238.2c-0.1-1.9-0.7-5.2-1.2-7.7l1.2-0.3
				c0.6,2.5,1.1,5.7,1.3,7.6L271.2,238.2L271.2,238.2z M273.2,227.7c-0.1-0.8-0.5-2-0.9-2.9l1.3-0.3c0.3,0.9,0.7,2.1,0.9,2.8
				L273.2,227.7L273.2,227.7z"/>
			<path d="M289.9,235.3c1.4,1.6,4.3,3.3,7.5,4c-0.3,0.3-0.6,0.8-0.9,1.2c-2.8-0.7-5.1-2.2-6.7-3.7v4.3h-1.4v-4.4
				c-1.8,1.7-4.2,3.1-6.7,3.8c-0.2-0.3-0.5-0.9-0.9-1.1c3-0.7,6-2.3,7.6-4.2v-1.6h-4.4v3.5h-1.4v-4.6h5.8V231h-7.1v-1.2h7.1v-1.1
				h1.4v1.1h6.9v1.2h-6.9v1.4h5.8v3.3c0,0.6-0.1,0.9-0.6,1.1c-0.5,0.2-1.2,0.2-2.2,0.2c-0.1-0.3-0.3-0.8-0.5-1.1c0.7,0,1.4,0,1.6,0
				c0.2,0,0.3-0.1,0.3-0.2v-2.1h-4.5L289.9,235.3L289.9,235.3z M283.8,227c-0.6,0.9-1.2,1.7-1.9,2.3c-0.2-0.2-0.6-0.7-0.9-0.9
				c1.1-1,2.1-2.4,2.7-3.9l1.2,0.3c-0.1,0.4-0.3,0.7-0.5,1.1h4.6v1.1h-3.4c0.6,0.5,1.3,1.2,1.6,1.6l-0.9,0.8
				c-0.3-0.5-1.1-1.3-1.7-1.9l0.7-0.5L283.8,227L283.8,227z M291.2,227c-0.4,0.6-0.9,1.2-1.4,1.7c-0.2-0.2-0.7-0.6-1-0.8
				c1-0.8,1.8-2.1,2.2-3.4l1.2,0.3c-0.1,0.4-0.3,0.7-0.5,1.1h5.4v1.1h-3.9c0.6,0.5,1.4,1.1,1.8,1.6l-0.9,0.8
				c-0.4-0.5-1.2-1.2-1.9-1.8l0.8-0.6L291.2,227L291.2,227z"/>
			<path d="M305.3,237.9h-4.7v1.3h-1.1v-13.2h5.8V237.9L305.3,237.9z M300.6,227.2v4.1h1.4v-4.1H300.6z M300.6,236.8h1.4v-4.4h-1.4
				V236.8z M304.3,227.2h-1.4v4.1h1.4V227.2z M304.3,236.8v-4.4h-1.4v4.4H304.3z M314.9,226.9c-0.7,1.8-1.9,3.3-3.2,4.5
				c1.1,0.9,2.4,1.6,3.9,2c-0.2,0.3-0.4,0.9-0.4,1.3c-1.6-0.6-3.1-1.4-4.4-2.5c-1.4,1.1-3.1,1.9-4.7,2.5c-0.1-0.3-0.4-0.9-0.6-1.2
				c1.5-0.5,3.1-1.2,4.4-2.2c-0.7-0.7-1.4-1.6-1.8-2.4c-0.5,0.7-1.1,1.4-1.7,1.9c-0.1-0.2-0.6-0.8-0.8-1c1.4-1.3,2.7-3.2,3.5-5.2
				l1.1,0.3c-0.2,0.5-0.5,1.1-0.7,1.6h4.4l0.2-0.1L314.9,226.9L314.9,226.9z M307.2,234.4h7.1v6.5h-1.2V240h-4.7v0.9h-1.2V234.4
				L307.2,234.4z M308.4,235.6v3.3h4.7v-3.3H308.4z M308.8,227.8c0.5,1,1.2,2,2,2.8c1-0.9,1.8-1.8,2.4-2.9L308.8,227.8L308.8,227.8z
				"/>
			<path d="M332,239.1c0,0.9-0.2,1.4-0.8,1.6c-0.6,0.2-1.8,0.2-3.4,0.2c0-0.4-0.2-1.1-0.5-1.4c1.2,0,2.5,0,2.8,0
				c0.3,0,0.4-0.1,0.4-0.4v-12h-13v-1.3H332L332,239.1L332,239.1z M328.6,230.2h-10.8V229h10.8V230.2z M320.3,237.8v1.3H319v-7h8.4
				v5.7H320.3L320.3,237.8z M320.3,233.3v3.4h5.8v-3.4H320.3z"/>
		</g>
	</g>
</g>
<g>
	<path class="st7" d="M207.7,474.9h22c2.8,0,5,2.2,5,5v221.3c0,2.8-2.2,5-5,5h-22c-2.8,0-5-2.2-5-5V479.9
		C202.7,477.2,204.9,474.9,207.7,474.9z"/>
	<g>
		<path class="st0" d="M214.8,563.9h3.1v1.2h-3.1v3.2h-1.2v-3.2h-3.2v-1.2h3.2v-1.4h-2.5v-6.2h2.5v-1.3h-2.9v-1.2h2.9v-2h1.2v2h2.9
			v1.2h-2.9v1.3h2.6v6.2h-2.6L214.8,563.9L214.8,563.9z M212.1,558.8h1.7v-1.6h-1.7V558.8z M212.1,561.4h1.7v-1.7h-1.7V561.4z
			 M216.4,557.2h-1.7v1.6h1.7V557.2z M216.4,559.8h-1.7v1.7h1.7V559.8z M222.9,555.5v1.6h3.5v9.7c0,0.6-0.1,1-0.5,1.2
			c-0.4,0.2-1,0.2-1.9,0.2c-0.1-0.3-0.2-0.9-0.4-1.2c0.6,0,1.1,0,1.3,0s0.2,0,0.2-0.2v-2.5h-2.3v3.8h-1.2v-3.8h-2.2v3.9h-1.2v-11.1
			h3.4v-1.6H218v-1.2h3.8v-2.5h1.2v2.5h2.9c-0.5-0.6-1.4-1.3-2.2-1.9l0.8-0.7c0.8,0.5,1.8,1.3,2.2,1.8l-0.7,0.7h0.9v1.2L222.9,555.5
			L222.9,555.5z M219.5,558.2v1.8h2.2v-1.8H219.5z M221.8,563v-1.9h-2.2v1.9H221.8z M222.9,558.2v1.8h2.3v-1.8H222.9z M225.2,563
			v-1.9h-2.3v1.9H225.2z"/>
		<path class="st0" d="M218.6,584.4c-2.8,0.7-5.8,1.4-8,1.8l-0.2-1.3l1.3-0.2v-12.2h5.9v11l1-0.2L218.6,584.4L218.6,584.4z
			 M212.9,573.7v2.6h3.4v-2.6H212.9z M216.2,577.5h-3.4v2.6h3.4V577.5z M212.9,584.4c1-0.2,2.2-0.5,3.4-0.7v-2.4h-3.4V584.4z
			 M226.4,575.6c0,0,0,0.5,0,0.7c-0.2,7.5-0.4,10.1-0.9,10.9c-0.3,0.5-0.7,0.6-1.3,0.7c-0.5,0-1.5,0-2.5,0c0-0.4-0.2-0.9-0.4-1.3
			c1,0.1,2,0.1,2.3,0.1c0.3,0,0.5,0,0.7-0.3c0.4-0.5,0.6-2.9,0.8-9.5h-2.8c-0.3,4.7-1.3,8.7-4.9,11.2c-0.2-0.3-0.6-0.8-1-1
			c3.4-2.1,4.3-5.8,4.6-10.2h-2.9v-1.3h2.9c0.1-1.3,0.1-2.7,0.1-4h1.3c0,1.4,0,2.7-0.1,4L226.4,575.6L226.4,575.6z"/>
		<path class="st0" d="M226.6,605.3h-7.3v2.5h-1.4v-2.5h-7.1v-1.2h7.1v-1.3h-5.4v-6.3h12.4v6.3h-5.6v1.3h7.3V605.3z M218.1,595.6
			h-5.9v-3.5h5.9V595.6z M216.8,593h-3.5v1.7h3.5V593z M213.9,599.1h4.1v-1.5h-4.1V599.1z M217.9,601.7v-1.6h-4.1v1.6H217.9z
			 M223.6,597.5h-4.3v1.5h4.3V597.5z M223.6,600.1h-4.3v1.6h4.3V600.1z M225.4,595.6h-6v-3.5h6V595.6z M224.2,593h-3.5v1.7h3.5V593z
			"/>
		<path class="st0" d="M216.1,611.6c-0.5,1.3-1.1,2.6-1.8,3.8v12.2H213v-10.1c-0.6,0.8-1.2,1.5-1.8,2.2c-0.1-0.3-0.5-1-0.8-1.3
			c1.8-1.7,3.4-4.4,4.4-7.2L216.1,611.6L216.1,611.6z M226.8,625.6v1.3h-11.2v-1.3h6.3c0.6-2.4,1.4-6.2,1.7-8.9l1.4,0.2
			c-0.5,2.8-1.2,6.3-1.9,8.7H226.8z M226,615.7h-9.7v-1.3h9.7V615.7z M218.7,624.7c-0.1-1.9-0.7-5.2-1.2-7.7l1.2-0.3
			c0.6,2.5,1.1,5.7,1.3,7.6L218.7,624.7L218.7,624.7z M220.8,614.2c-0.1-0.8-0.5-2-0.9-2.9l1.3-0.3c0.3,0.9,0.7,2,0.9,2.8
			L220.8,614.2L220.8,614.2z"/>
	</g>
	<g>
		<g>
			<path d="M250.1,502.3c-0.2-0.5-0.8-1.5-1.2-2.4v8h-1.3v-7.5c-0.6,1.7-1.4,3.3-2.2,4.3c-0.1-0.4-0.5-1-0.7-1.3
				c1-1.3,2.1-3.6,2.7-5.6h-2.3v-1.3h2.5v-2.9c-0.6,0.1-1.3,0.3-1.9,0.4c-0.1-0.3-0.2-0.8-0.4-1.1c1.7-0.3,3.6-0.9,4.8-1.4l0.8,1.1
				c-0.6,0.3-1.3,0.5-2.1,0.7v3.2h2.1v1.3h-2.1v0.4c0.4,0.6,1.8,2.5,2.1,3L250.1,502.3L250.1,502.3z M260.2,503.4
				c-0.2-1.5-0.9-3.7-1.7-5.3c-0.9,2.2-2,4.2-3.4,5.9v1.8c0,0.7,0.1,0.9,0.8,0.9h2.1c0.6,0,0.7-0.5,0.8-2.7c0.3,0.2,0.8,0.5,1.1,0.5
				c-0.1,2.6-0.5,3.3-1.8,3.3h-2.4c-1.5,0-1.9-0.4-1.9-2v-0.2c-0.7,0.8-1.5,1.5-2.3,2.1c-0.2-0.2-0.8-0.7-1.1-0.9
				c1.3-0.9,2.4-2,3.4-3.2v-8.2h1.3v6.4c1.7-2.6,2.9-5.7,3.9-9.2l1.3,0.2c-0.5,1.8-1.1,3.6-1.8,5.2l1.1-0.3c0.8,1.7,1.5,3.9,1.8,5.3
				L260.2,503.4L260.2,503.4z M250.5,502.8c0.7-1.4,1.1-3.7,1.3-5.5l1,0.2c-0.2,1.8-0.6,4.3-1.3,5.7L250.5,502.8L250.5,502.8z
				 M256.9,495.1c-0.7-0.8-2.2-1.9-3.4-2.7l0.8-0.9c1.2,0.7,2.7,1.8,3.5,2.6L256.9,495.1z"/>
			<path d="M279,500.5v1h-15.9v-1h7.2v-1.1h-6v-0.9h6v-0.9h-5.5v-0.9h5.5v-1.1h-7.2v-1h7.2v-1h-5.3v-0.9h5.3v-1.3h1.3v1.3h5.1v1.9
				h2.1v1h-2.1v2h-5.1v0.9h6.1v0.9h-6.1v1.1H279L279,500.5z M265.4,502.4h11.5v5.6h-1.3v-0.6h-8.9v0.6h-1.3L265.4,502.4L265.4,502.4
				z M266.7,503.4v1.1h8.9v-1.1H266.7z M275.6,506.5v-1.1h-8.9v1.1H275.6z M271.7,494.6h3.8v-1h-3.8V494.6z M271.7,496.8h3.8v-1.1
				h-3.8V496.8z"/>
			<path d="M289.6,501c-0.3,1.8-1,3.1-1.8,4.2c1.3,1.1,3,1.3,5.1,1.3c0.6,0,3.9,0,4.6,0c-0.2,0.3-0.4,0.8-0.4,1.1h-4.3
				c-2.5,0-4.4-0.3-5.8-1.6c-1,0.9-2.1,1.5-3.3,2c-0.1-0.3-0.4-0.7-0.6-0.9c1.2-0.4,2.3-1,3.2-1.9c-0.4-0.5-0.7-1.2-1-2
				c-0.4,0.5-0.8,0.9-1.2,1.3c-0.1-0.2-0.5-0.5-0.8-0.7c-0.2,1.5-0.7,3-1.4,4.2c-0.2-0.2-0.8-0.7-1-0.8c1.4-2.3,1.5-5.6,1.5-8v-4.4
				h5.9v-3.3h1.3v1.1h6.2v1h-6.2v1.1h6.3l0.2,0l0.9,0.2c-0.4,1-0.8,2.2-1.2,2.9l-1.1-0.3c0.2-0.4,0.5-1.1,0.7-1.7h-5.9v1.1l4.6-0.3
				l0,0.9l-4.6,0.3v0.4c0,0.5,0.1,0.7,0.7,0.7h4.2c0.5,0,1.5,0,1.9-0.1c0,0.3,0,0.7,0.1,1c-0.3,0.1-1.1,0.1-1.9,0.1h-4.4
				c-1.5,0-1.9-0.5-1.9-1.6V498l-3.6,0.2l0-0.9l3.6-0.2v-1.2h-4.6v3.4c0,1.3-0.1,2.9-0.3,4.4c1.2-1,2.2-2.5,2.7-4.2l1.1,0.3
				c-0.1,0.4-0.3,0.8-0.5,1.2h2l0.2,0L289.6,501L289.6,501z M286.1,501.9c-0.1,0.1-0.1,0.2-0.2,0.4c0.2,0.9,0.6,1.6,1,2.2
				c0.6-0.7,1-1.6,1.3-2.6H286.1z M294.7,505.6c-0.9,0-1.1-0.2-1.1-1.1v-2.5h-1.8v0.4c0,1.2-0.3,2.6-1.7,3.7
				c-0.2-0.2-0.6-0.6-0.8-0.8c1.2-0.9,1.4-2,1.4-2.9v-1.4h4v3.5c0,0.3,0,0.4,0.3,0.4h0.7c0.2,0,0.3-0.2,0.3-1.1
				c0.2,0.1,0.6,0.3,0.8,0.3c-0.1,1.2-0.3,1.6-1,1.6L294.7,505.6L294.7,505.6z"/>
		</g>
		<g>
			<path d="M253.8,527.9c0,0.7,0,1.5-0.1,2.6c0.3,2.1,1.4,9.7,7.7,12.5c-0.4,0.3-0.8,0.8-1,1.1c-4.5-2.1-6.4-6.5-7.3-9.9
				c-0.8,3.6-2.7,7.6-7.1,10c-0.2-0.4-0.7-0.8-1.1-1c7.5-3.8,7.4-12.5,7.4-15.3L253.8,527.9L253.8,527.9z"/>
			<path d="M279.2,539.2h-1.9v3.2h-1.3v-0.8h-4.3v1.2c0,0.8-0.2,1.1-0.8,1.3c-0.6,0.2-1.5,0.2-3,0.2c-0.1-0.3-0.3-0.8-0.5-1.1
				c1.1,0,2.2,0,2.5,0c0.3,0,0.5-0.1,0.5-0.4v-1.2h-5.8v-1h5.8v-1.3H263v-1.1h7.4v-1.3h-5.6v-1h5.6v-1.3h-5.1v-3.2h5.1v-1h-7v-1.1h7
				v-1.4h1.3v1.4h7.2v1.1h-7.2v1h5.4v3.2h-5.4v1.3h5.6v2.2h1.9V539.2L279.2,539.2z M270.4,533.7v-1.3h-3.9v1.3H270.4z M271.7,532.4
				v1.3h4v-1.3H271.7z M271.7,538.1h4.3v-1.3h-4.3V538.1z M276,539.2h-4.3v1.3h4.3V539.2z"/>
			<path d="M289.6,537.4c-0.3,1.8-1,3.1-1.8,4.2c1.3,1.1,3,1.3,5.1,1.3c0.6,0,3.9,0,4.6,0c-0.2,0.3-0.4,0.8-0.4,1.1h-4.3
				c-2.5,0-4.4-0.3-5.8-1.6c-1,0.9-2.1,1.5-3.3,2c-0.1-0.3-0.4-0.7-0.6-0.9c1.2-0.4,2.3-1,3.2-1.9c-0.4-0.5-0.7-1.2-1-2
				c-0.4,0.5-0.8,0.9-1.2,1.3c-0.1-0.2-0.5-0.5-0.8-0.7c-0.2,1.5-0.7,3-1.4,4.2c-0.2-0.2-0.8-0.7-1-0.8c1.4-2.3,1.5-5.6,1.5-8v-4.4
				h5.9v-3.3h1.3v1.1h6.2v1h-6.2v1.2h6.3l0.2,0l0.9,0.2c-0.4,1-0.8,2.2-1.2,2.9l-1.1-0.3c0.2-0.4,0.5-1.1,0.7-1.7h-5.9v1.1l4.6-0.3
				l0,0.9l-4.6,0.3v0.4c0,0.5,0.1,0.7,0.7,0.7h4.2c0.5,0,1.5,0,1.9-0.1c0,0.3,0,0.7,0.1,1c-0.3,0.1-1.1,0.1-1.9,0.1h-4.4
				c-1.5,0-1.9-0.5-1.9-1.6v-0.3l-3.6,0.2l0-0.9l3.6-0.2v-1.2h-4.6v3.3c0,1.3-0.1,2.9-0.3,4.4c1.2-1,2.2-2.5,2.7-4.2l1.1,0.3
				c-0.1,0.4-0.3,0.8-0.5,1.2h2l0.2,0L289.6,537.4L289.6,537.4z M286.1,538.2c-0.1,0.1-0.1,0.2-0.2,0.4c0.2,0.9,0.6,1.6,1,2.2
				c0.6-0.7,1-1.6,1.3-2.6H286.1z M294.7,541.9c-0.9,0-1.1-0.2-1.1-1.1v-2.5h-1.8v0.4c0,1.2-0.3,2.6-1.7,3.7
				c-0.2-0.2-0.6-0.6-0.8-0.8c1.2-0.9,1.4-2,1.4-2.9v-1.4h4v3.5c0,0.3,0,0.4,0.3,0.4h0.7c0.2,0,0.3-0.2,0.3-1.2
				c0.2,0.1,0.6,0.3,0.8,0.3c-0.1,1.2-0.3,1.6-1,1.6L294.7,541.9L294.7,541.9z"/>
		</g>
		<g>
			<path d="M260.1,568.8c-0.5,3-1.2,5.4-2.4,7.4c1,1.5,2.2,2.7,3.8,3.4c-0.3,0.3-0.7,0.8-0.9,1.1c-1.5-0.8-2.7-1.9-3.6-3.3
				c-1,1.3-2.4,2.5-4.1,3.3c-0.1-0.3-0.5-0.9-0.8-1.2c1.8-0.8,3.1-2,4.1-3.4c-0.8-1.5-1.4-3.2-1.9-5.1c-0.4,0.7-0.8,1.4-1.2,2
				c-0.2-0.2-0.8-0.7-1.1-0.9l0.1-0.1h-2v4.6l3.1-0.7l0.1,1.2c-2.9,0.7-6.1,1.5-8.4,2l-0.2-1.3l1.1-0.2v-8h1.2v7.7l1.8-0.4v-10h-3.8
				v-1.3h8.2v1.3h-3.1v3.9h2.4v0.6c1.2-1.9,2-4.4,2.5-7.1l1.3,0.2c-0.2,1.1-0.5,2.1-0.8,3.1h5.6v1.3L260.1,568.8L260.1,568.8z
				 M255.2,569.1c0.4,2.1,1,4.1,1.8,5.7c0.9-1.7,1.4-3.7,1.8-6h-3.5L255.2,569.1L255.2,569.1z"/>
			<path d="M277.2,565.2c0,6.7,0,14,1.1,14c0.2,0,0.3-1.2,0.4-2.8c0.2,0.3,0.6,0.7,0.8,0.9c-0.1,2.3-0.4,3.2-1.3,3.2
				c-2.2,0-2.1-6.4-2.2-14.2h-9.7v4.5c0,2.9-0.3,7-2.3,9.7c-0.2-0.2-0.8-0.6-1.1-0.8c1.9-2.6,2.1-6.2,2.1-9v-5.8L277.2,565.2
				L277.2,565.2z M273.9,575.8c0.9,1.2,1.8,2.8,2.1,3.9l-1.1,0.4c-0.1-0.4-0.3-0.9-0.5-1.4c-3,0.2-6.1,0.4-8.2,0.6l-0.1-1.2
				c1.1,0,2.6-0.1,4.2-0.2v-2.5h-3.1v-4.9h3.1v-1.7H267v-1.1h8v1.1h-3.5v1.7h3.2v4.9h-3.2v2.5l2.3-0.1c-0.3-0.5-0.6-1.1-1-1.5
				L273.9,575.8L273.9,575.8z M270.4,574.3v-2.8h-2v2.8H270.4z M271.5,571.5v2.8h2v-2.8H271.5z"/>
			<path d="M289.6,573.7c-0.3,1.8-1,3.1-1.8,4.2c1.3,1.1,3,1.3,5.1,1.3c0.6,0,3.9,0,4.6,0c-0.2,0.3-0.4,0.8-0.4,1.1h-4.3
				c-2.5,0-4.4-0.3-5.8-1.6c-1,0.9-2.1,1.5-3.3,2c-0.1-0.3-0.4-0.7-0.6-0.9c1.2-0.4,2.3-1,3.2-1.9c-0.4-0.5-0.7-1.2-1-2
				c-0.4,0.5-0.8,0.9-1.2,1.3c-0.1-0.2-0.5-0.5-0.8-0.7c-0.2,1.5-0.7,3-1.4,4.2c-0.2-0.2-0.8-0.7-1-0.8c1.4-2.3,1.5-5.6,1.5-8v-4.4
				h5.9v-3.3h1.3v1.1h6.2v1h-6.2v1.2h6.3l0.2,0l0.9,0.2c-0.4,1-0.8,2.2-1.2,2.9l-1.1-0.3c0.2-0.4,0.5-1.1,0.7-1.7h-5.9v1.1l4.6-0.3
				l0,0.9l-4.6,0.3v0.4c0,0.5,0.1,0.7,0.7,0.7h4.2c0.5,0,1.5,0,1.9-0.1c0,0.3,0,0.7,0.1,1c-0.3,0.1-1.1,0.1-1.9,0.1h-4.4
				c-1.5,0-1.9-0.5-1.9-1.6v-0.3l-3.6,0.2l0-0.9l3.6-0.2v-1.2h-4.6v3.3c0,1.3-0.1,2.9-0.3,4.4c1.2-1,2.2-2.5,2.7-4.2l1.1,0.3
				c-0.1,0.4-0.3,0.8-0.5,1.2h2l0.2,0L289.6,573.7L289.6,573.7z M286.1,574.6c-0.1,0.1-0.1,0.2-0.2,0.4c0.2,0.9,0.6,1.6,1,2.2
				c0.6-0.7,1-1.6,1.3-2.6H286.1z M294.7,578.2c-0.9,0-1.1-0.2-1.1-1.1v-2.5h-1.8v0.4c0,1.2-0.3,2.6-1.7,3.7
				c-0.2-0.2-0.6-0.6-0.8-0.8c1.2-0.9,1.4-2,1.4-2.9v-1.4h4v3.5c0,0.3,0,0.4,0.3,0.4h0.7c0.2,0,0.3-0.2,0.3-1.2
				c0.2,0.1,0.6,0.3,0.8,0.3c-0.1,1.2-0.3,1.6-1,1.6L294.7,578.2L294.7,578.2z"/>
		</g>
		<g>
			<path d="M261.1,615.1v1.3h-15.9v-1.3h7.2v-4.4h-5.6v-1.3h5.6v-3.9H246v-1.3h7.9c-0.7-0.8-2-2-3.1-2.8l1.1-0.8
				c1.1,0.8,2.6,2,3.3,2.9l-0.9,0.6h5.8v1.3h-6.4v3.9h5.7v1.3h-5.6v4.4H261.1L261.1,615.1z"/>
			<path d="M270.7,604.7h-7.4v-1.1h7.4V604.7z M264.1,605.9h5.9v1.1h-5.9V605.9z M269.9,609.3h-5.8v-1.1h5.8V609.3z M269.9,615.9
				h-4.5v0.8h-1.2v-6h5.7L269.9,615.9L269.9,615.9z M265.4,611.8v3h3.4v-3H265.4z M266.8,603.4c-0.2-0.7-0.8-1.7-1.3-2.4l1-0.5
				c0.5,0.7,1.1,1.7,1.4,2.3L266.8,603.4L266.8,603.4z M279.2,608h-3.7v8.9h-1.4V608h-3.5v-1.3h3.5v-5.9h1.4v5.9h3.7V608z"/>
			<path d="M289.6,610.1c-0.3,1.8-1,3.1-1.8,4.2c1.3,1.1,3,1.3,5.1,1.3c0.6,0,3.9,0,4.6,0c-0.2,0.3-0.4,0.8-0.4,1.1h-4.3
				c-2.5,0-4.4-0.3-5.8-1.6c-1,0.9-2.1,1.5-3.3,2c-0.1-0.3-0.4-0.7-0.6-0.9c1.2-0.4,2.3-1,3.2-1.9c-0.4-0.5-0.7-1.2-1-2
				c-0.4,0.5-0.8,0.9-1.2,1.3c-0.1-0.2-0.5-0.5-0.8-0.7c-0.2,1.5-0.7,3-1.4,4.2c-0.2-0.2-0.8-0.7-1-0.8c1.4-2.3,1.5-5.6,1.5-8v-4.4
				h5.9v-3.3h1.3v1.1h6.2v1h-6.2v1.2h6.3l0.2,0l0.9,0.2c-0.4,1-0.8,2.2-1.2,2.9l-1.1-0.3c0.2-0.4,0.5-1.1,0.7-1.7h-5.9v1.1l4.6-0.3
				l0,0.9l-4.6,0.3v0.4c0,0.5,0.1,0.7,0.7,0.7h4.2c0.5,0,1.5,0,1.9-0.1c0,0.3,0,0.7,0.1,1c-0.3,0.1-1.1,0.1-1.9,0.1h-4.4
				c-1.5,0-1.9-0.5-1.9-1.6V607l-3.6,0.2l0-0.9l3.6-0.2v-1.2h-4.6v3.3c0,1.3-0.1,2.9-0.3,4.4c1.2-1,2.2-2.5,2.7-4.2l1.1,0.3
				c-0.1,0.4-0.3,0.8-0.5,1.2h2l0.2,0L289.6,610.1L289.6,610.1z M286.1,610.9c-0.1,0.1-0.1,0.2-0.2,0.4c0.2,0.9,0.6,1.6,1,2.2
				c0.6-0.7,1-1.6,1.3-2.6H286.1z M294.7,614.6c-0.9,0-1.1-0.2-1.1-1.1v-2.5h-1.8v0.4c0,1.2-0.3,2.6-1.7,3.7
				c-0.2-0.2-0.6-0.6-0.8-0.8c1.2-0.9,1.4-2,1.4-2.9v-1.4h4v3.5c0,0.3,0,0.4,0.3,0.4h0.7c0.2,0,0.3-0.2,0.3-1.2
				c0.2,0.1,0.6,0.3,0.8,0.3c-0.1,1.2-0.3,1.6-1,1.6L294.7,614.6L294.7,614.6z"/>
		</g>
		<g>
			<path d="M250.2,641.8H245v-1.1h5.1V641.8z M251.6,651.1c-1.4,0.9-3.7,1.7-5.5,2.2c-0.2-0.3-0.7-0.8-1-1c1.8-0.4,4-1,5.3-1.7
				L251.6,651.1L251.6,651.1z M249.7,639h-4.3v-1h4.3V639z M247.4,643.2h11.7v7.2h-11.6L247.4,643.2L247.4,643.2z M248.7,645.3h9
				v-1.2h-9L248.7,645.3L248.7,645.3z M248.7,647.4h9v-1.2h-9L248.7,647.4L248.7,647.4z M248.7,649.5h9v-1.3h-9L248.7,649.5
				L248.7,649.5z M253,639.1c-0.4,0.7-0.9,1.3-1.4,1.8c-0.2-0.2-0.7-0.5-1-0.7c0.9-0.8,1.7-2.1,2.1-3.4l1.2,0.3
				c-0.1,0.3-0.2,0.7-0.4,1h6l0.2,0l0.9,0.3c-0.5,0.9-1,2-1.5,2.6l-1.1-0.4c0.3-0.4,0.6-0.9,0.9-1.4h-2.9v0.2c0,0.2,0,0.4,0,0.6
				c1,1.1,2.9,1.8,5.3,2c-0.2,0.2-0.6,0.7-0.8,1.1c-2-0.3-3.8-1-4.9-2.1c-0.6,0.9-2,1.7-5.2,2.2c-0.1-0.3-0.5-0.8-0.7-1
				c4.7-0.6,5.1-1.8,5.1-2.8v-0.2L253,639.1L253,639.1z M255.7,650.5c1.9,0.6,4,1.4,5.3,1.9l-1.2,0.8c-1.1-0.6-3.1-1.3-5-2
				L255.7,650.5L255.7,650.5z"/>
			<path d="M269.5,641H263v-1.1h6.5V641z M268.8,652.2h-4v0.8h-1.1v-6h5.1L268.8,652.2L268.8,652.2z M263.7,643.3v-1.1h5.1v1.1
				H263.7z M263.7,644.6h5.1v1.1h-5.1V644.6z M264.8,648.1v3h2.9v-3H264.8z M266.2,639.7c-0.2-0.7-0.8-1.7-1.3-2.4l1-0.5
				c0.5,0.7,1,1.7,1.3,2.3L266.2,639.7L266.2,639.7z M277.5,637.9c-0.1,7.3-0.1,13.5,0.9,13.8c0.1,0,0.2-1.1,0.3-2.4
				c0.2,0.3,0.6,0.8,0.8,1c-0.2,2.5-0.8,3.1-1.6,2.8c-1.8-0.5-1.7-6.4-1.7-13.8h-3v5.3h2.4v1.2h-2.4v7.6h-1.3v-7.6h-2.4v-1.2h2.4
				v-5.3h-2.2v-1.3L277.5,637.9L277.5,637.9z"/>
			<path d="M289.6,646.4c-0.3,1.8-1,3.1-1.8,4.2c1.3,1.1,3,1.3,5.1,1.3c0.6,0,3.9,0,4.6,0c-0.2,0.3-0.4,0.8-0.4,1.1h-4.3
				c-2.5,0-4.4-0.3-5.8-1.6c-1,0.9-2.1,1.5-3.3,2c-0.1-0.3-0.4-0.7-0.6-0.9c1.2-0.4,2.3-1,3.2-1.9c-0.4-0.5-0.7-1.2-1-2
				c-0.4,0.5-0.8,0.9-1.2,1.3c-0.1-0.2-0.5-0.5-0.8-0.7c-0.2,1.5-0.7,3-1.4,4.2c-0.2-0.2-0.8-0.7-1-0.8c1.4-2.3,1.5-5.6,1.5-8v-4.4
				h5.9v-3.3h1.3v1.1h6.2v1h-6.2v1.2h6.3l0.2,0l0.9,0.2c-0.4,1-0.8,2.2-1.2,2.9l-1.1-0.3c0.2-0.4,0.5-1.1,0.7-1.7h-5.9v1.1l4.6-0.3
				l0,0.9l-4.6,0.3v0.4c0,0.5,0.1,0.7,0.7,0.7h4.2c0.5,0,1.5,0,1.9-0.1c0,0.3,0,0.7,0.1,1c-0.3,0.1-1.1,0.1-1.9,0.1h-4.4
				c-1.5,0-1.9-0.5-1.9-1.6v-0.3l-3.6,0.2l0-0.9l3.6-0.2v-1.2h-4.6v3.3c0,1.3-0.1,2.9-0.3,4.4c1.2-1,2.2-2.5,2.7-4.2l1.1,0.3
				c-0.1,0.4-0.3,0.8-0.5,1.2h2l0.2,0L289.6,646.4L289.6,646.4z M286.1,647.2c-0.1,0.1-0.1,0.2-0.2,0.4c0.2,0.9,0.6,1.6,1,2.2
				c0.6-0.7,1-1.6,1.3-2.6H286.1z M294.7,650.9c-0.9,0-1.1-0.2-1.1-1.1v-2.5h-1.8v0.4c0,1.2-0.3,2.6-1.7,3.7
				c-0.2-0.2-0.6-0.6-0.8-0.8c1.2-0.9,1.4-2,1.4-2.9v-1.4h4v3.5c0,0.3,0,0.4,0.3,0.4h0.7c0.2,0,0.3-0.2,0.3-1.2
				c0.2,0.1,0.6,0.3,0.8,0.3c-0.1,1.2-0.3,1.6-1,1.6L294.7,650.9L294.7,650.9z"/>
		</g>
		<g>
			<path d="M248.2,681.2c-0.7-0.6-2.2-1.4-3.3-1.9l0.7-1c1.1,0.5,2.6,1.2,3.4,1.8L248.2,681.2L248.2,681.2z M245.5,688.5
				c0.9-1.4,2.4-3.7,3.4-5.8l1,0.9c-0.9,1.9-2.2,4.1-3.3,5.8L245.5,688.5L245.5,688.5z M246.6,673.4c1.2,0.5,2.7,1.3,3.4,1.9
				l-0.8,1.1c-0.7-0.6-2.2-1.5-3.4-2L246.6,673.4z M259.8,689.6c-0.2-0.5-0.5-1.1-0.8-1.8c-6.7,0.8-7.4,1-7.9,1.2
				c-0.1-0.3-0.3-1-0.4-1.3c0.3-0.1,0.7-0.5,1.1-1.2c0.4-0.5,1.6-2.5,2.5-4.5h-4v-1.3h4.6v-3.2H251v-1.3h3.8v-3.1h1.3v3.1h4v1.3h-4
				v3.2h4.7v1.3h-5.1c-0.9,1.9-2.1,3.8-3.2,5.3l5.7-0.6c-0.5-0.8-1-1.6-1.6-2.3l1.1-0.5c1.3,1.6,2.6,3.7,3.1,5.1L259.8,689.6
				L259.8,689.6z"/>
			<path d="M268.6,678.9h4.3v1.2h-4.3v1.8h3.7v4.9c0,0.6-0.1,1-0.5,1.2c-0.4,0.2-1.1,0.2-2.1,0.2c0-0.4-0.2-0.8-0.4-1.2
				c0.8,0,1.4,0,1.5,0c0.2,0,0.2,0,0.2-0.2v-3.7h-2.5v6.5h-1.3v-6.5H265v5h-1.2v-6.2h3.5v-1.8H263v-1.2h4.4V677H265
				c-0.3,0.7-0.6,1.3-0.9,1.8c-0.3-0.2-0.9-0.4-1.2-0.5c0.8-1.2,1.4-3,1.8-4.7l1.3,0.2c-0.2,0.6-0.3,1.3-0.5,1.9h1.9v-2.5h1.3v2.5
				h3.6v1.2h-3.6L268.6,678.9L268.6,678.9z M275.5,684.7h-1.3v-9.9h1.3V684.7z M278.7,673.4v14.4c0,0.9-0.2,1.3-0.7,1.5
				c-0.6,0.2-1.5,0.3-2.9,0.3c-0.1-0.4-0.2-1-0.4-1.4c1.1,0,2.1,0,2.4,0c0.3,0,0.4-0.1,0.4-0.4v-14.4H278.7L278.7,673.4z"/>
			<path d="M289.6,682.8c-0.3,1.8-1,3.1-1.8,4.2c1.3,1.1,3,1.3,5.1,1.3c0.6,0,3.9,0,4.6,0c-0.2,0.3-0.4,0.8-0.4,1.1h-4.3
				c-2.5,0-4.4-0.3-5.8-1.6c-1,0.9-2.1,1.5-3.3,2c-0.1-0.3-0.4-0.7-0.6-0.9c1.2-0.4,2.3-1,3.2-1.9c-0.4-0.5-0.7-1.2-1-2
				c-0.4,0.5-0.8,0.9-1.2,1.3c-0.1-0.2-0.5-0.5-0.8-0.7c-0.2,1.5-0.7,3-1.4,4.2c-0.2-0.2-0.8-0.7-1-0.8c1.4-2.3,1.5-5.6,1.5-8v-4.4
				h5.9v-3.3h1.3v1.1h6.2v1h-6.2v1.2h6.3l0.2,0l0.9,0.2c-0.4,1-0.8,2.2-1.2,2.9l-1.1-0.3c0.2-0.4,0.5-1.1,0.7-1.7h-5.9v1.1l4.6-0.3
				l0,0.9l-4.6,0.3v0.4c0,0.5,0.1,0.7,0.7,0.7h4.2c0.5,0,1.5,0,1.9-0.1c0,0.3,0,0.7,0.1,1c-0.3,0.1-1.1,0.1-1.9,0.1h-4.4
				c-1.5,0-1.9-0.5-1.9-1.6v-0.3l-3.6,0.2l0-0.9l3.6-0.2v-1.2h-4.6v3.3c0,1.3-0.1,2.9-0.3,4.4c1.2-1,2.2-2.5,2.7-4.2l1.1,0.3
				c-0.1,0.4-0.3,0.8-0.5,1.2h2l0.2,0L289.6,682.8L289.6,682.8z M286.1,683.6c-0.1,0.1-0.1,0.2-0.2,0.4c0.2,0.9,0.6,1.6,1,2.2
				c0.6-0.7,1-1.6,1.3-2.6H286.1z M294.7,687.3c-0.9,0-1.1-0.2-1.1-1.1v-2.5h-1.8v0.4c0,1.2-0.3,2.6-1.7,3.7
				c-0.2-0.2-0.6-0.6-0.8-0.8c1.2-0.9,1.4-2,1.4-2.9v-1.4h4v3.5c0,0.3,0,0.4,0.3,0.4h0.7c0.2,0,0.3-0.2,0.3-1.2
				c0.2,0.1,0.6,0.3,0.8,0.3c-0.1,1.2-0.3,1.6-1,1.6L294.7,687.3L294.7,687.3z"/>
		</g>
	</g>
	<line class="st2" x1="180.4" y1="590.6" x2="199.4" y2="590.6"/>
</g>
<g>
	<path class="st8" d="M207.6,741.9h22c2.8,0,5,2.2,5,5v102c0,2.8-2.2,5-5,5h-22c-2.8,0-5-2.2-5-5v-102
		C202.6,744.1,204.9,741.9,207.6,741.9z"/>
	<g>
		<path class="st0" d="M216.3,770.6h-5.6v-1.3h5.6V770.6z M215.8,763.2h-4.7v-1.3h4.7V763.2z M221.1,765.6c0,0.3,0,0.5,0,0.8
			c0.8,3.8,2.6,6.7,5.9,7.8c-0.3,0.3-0.7,0.8-0.9,1.2c-2.7-1.1-4.4-3.2-5.4-6.1c-0.6,2.2-2.1,4.5-5.6,6.3c-0.2-0.3-0.7-0.8-1-1
			c5.2-2.6,5.6-6.4,5.6-8.9v-1.4h1.4L221.1,765.6L221.1,765.6z M218.2,763.5c-0.6,1.5-1.2,2.8-1.9,3.8c-0.3-0.2-0.9-0.6-1.3-0.8
			c1.4-1.8,2.4-4.6,2.9-7.4l1.4,0.3c-0.2,1-0.4,1.9-0.7,2.8h6.5l0.2-0.1l1,0.5c-0.5,1.8-1.3,3.6-1.9,4.9c-0.3-0.2-0.8-0.4-1.1-0.6
			c0.4-0.8,1-2.2,1.3-3.4L218.2,763.5L218.2,763.5z"/>
		<path class="st0" d="M216.6,789.6c-0.1-0.3-0.1-0.7-0.3-1c-4.2,0.7-4.7,0.8-5.1,1c-0.1-0.3-0.3-0.9-0.4-1.3
			c0.4-0.1,0.8-0.5,1.3-1.2c0.3-0.3,0.9-1.1,1.5-2c-1.9,0.2-2.3,0.3-2.5,0.4c-0.1-0.2-0.3-0.9-0.4-1.2c0.3-0.1,0.6-0.5,1-1
			c0.4-0.5,1.6-2.6,2.4-4.5l1.3,0.5c-0.8,1.7-1.8,3.4-2.8,4.8l1.9-0.2c0.5-0.8,0.9-1.6,1.4-2.4l1.1,0.7c-1.2,2.1-2.6,4.1-4.1,5.8
			l3.1-0.5c-0.2-0.6-0.4-1.1-0.7-1.6l0.9-0.3c0.6,1.2,1.1,2.7,1.3,3.7L216.6,789.6L216.6,789.6z M212.6,790.6
			c-0.2,1.5-0.5,3.2-0.9,4.3c-0.2-0.1-0.8-0.3-1-0.4c0.4-1.1,0.7-2.7,0.9-4.1L212.6,790.6L212.6,790.6z M214.4,790.3
			c0.2,1.1,0.4,2.6,0.5,3.6l-1,0.2c-0.1-1-0.2-2.5-0.4-3.6L214.4,790.3L214.4,790.3z M216.4,789.9c0.4,0.9,0.8,2.1,0.9,2.9l-1,0.3
			c-0.1-0.8-0.5-2-0.9-3L216.4,789.9L216.4,789.9z M226.4,785.1c-0.5,2.6-1.4,4.8-2.6,6.5c0.9,1.1,1.9,2,3.2,2.5
			c-0.3,0.2-0.7,0.8-0.9,1.1c-1.2-0.6-2.2-1.5-3.1-2.6c-0.9,1.1-2,2-3.2,2.7c-0.2-0.3-0.5-0.8-0.9-1c1.2-0.6,2.3-1.6,3.3-2.8
			c-0.9-1.5-1.6-3.2-2-5.1c-0.3,3.6-1,6.5-2.7,8.8c-0.2-0.2-0.9-0.7-1.2-0.8c2.4-2.9,2.7-7.5,2.8-13.4h-1.8v-1.3h6.4l0.2-0.1
			l0.9,0.1c-0.2,1.5-0.5,3.4-0.8,5h1.3l0.2,0L226.4,785.1L226.4,785.1z M220.5,781c0,1.3-0.1,2.7-0.1,3.8h2.5
			c0.2-1.2,0.5-2.7,0.7-3.8H220.5L220.5,781z M221.3,786c0.4,1.6,1,3.1,1.8,4.4c0.8-1.3,1.4-2.7,1.8-4.4H221.3L221.3,786z"/>
		<path class="st0" d="M214.7,808.3c-0.2-0.5-0.6-1.3-0.9-2.1v8.9h-1.2v-8.6c-0.4,1.8-1.1,3.6-1.7,4.7c-0.1-0.4-0.4-1-0.6-1.3
			c0.9-1.5,1.7-4.2,2.2-6.6h-1.8v-1.3h1.9v-3.5h1.2v3.5h1.4v1.3h-1.4v1.2c0.4,0.6,1.4,2.3,1.6,2.7L214.7,808.3L214.7,808.3z
			 M225.7,809.6c-0.6,1.1-1.3,2-2.2,2.9c0.5,0.8,1.1,1.2,1.9,1.3c0.4,0,0.6-0.7,0.8-1.9c0.2,0.2,0.7,0.6,0.9,0.7
			c-0.3,2-0.9,2.6-1.6,2.6c-1.2-0.1-2.1-0.7-2.8-1.8c-0.9,0.7-2,1.3-3.1,1.8c-0.1-0.2-0.5-0.6-0.7-0.8c1.2-0.5,2.4-1.1,3.4-1.9
			c-0.4-0.9-0.8-2-1-3.3h-2.9v0.3c0,0.1,0,0.3,0,0.4c0.9,0.7,1.9,1.6,2.5,2.1l-0.8,0.8c-0.4-0.4-1.1-1.1-1.8-1.7
			c-0.3,1.4-1.1,3-2.6,4.2c-0.2-0.2-0.6-0.7-0.9-0.8c2.1-1.5,2.6-3.6,2.6-5.1V809h-1.4v-1.1h5.3c-0.4-2.6-0.7-5.7-0.8-9.1h1.1
			c0.1,3.5,0.3,6.6,0.8,9.1h2.6c-0.4-0.4-1.1-0.8-1.6-1.2l0.7-0.6c0.6,0.4,1.5,0.9,1.9,1.3l-0.5,0.5h1.5v1.1h-4.3
			c0.2,1,0.5,1.8,0.8,2.5c0.7-0.7,1.2-1.5,1.6-2.3L225.7,809.6L225.7,809.6z M219.3,806.9c-0.1-0.2-0.1-0.5-0.2-0.8
			c-2.6,0.4-3,0.5-3.2,0.6c0-0.2-0.2-0.7-0.3-1c0.2,0,0.6-0.4,0.9-0.8c0.2-0.2,0.6-0.8,1.1-1.6c-1.4,0.2-1.8,0.3-1.9,0.4
			c0-0.2-0.2-0.7-0.3-1c0.2,0,0.4-0.3,0.7-0.7c0.2-0.4,1.1-1.8,1.5-3.1l1,0.3c-0.5,1.2-1.1,2.4-1.8,3.3l1.4-0.1
			c0.2-0.4,0.4-0.8,0.6-1.2l1,0.4c-0.8,1.4-1.8,2.9-2.7,4l1.8-0.2c-0.1-0.4-0.3-0.8-0.4-1.1l0.9-0.2c0.4,0.9,0.8,2,0.9,2.7
			L219.3,806.9L219.3,806.9z M225.8,806.6c-0.1-0.2-0.1-0.5-0.2-0.8c-2.6,0.4-3,0.5-3.3,0.6c-0.1-0.2-0.2-0.8-0.4-1
			c0.3,0,0.6-0.4,0.9-0.8c0.2-0.2,0.6-0.8,1.1-1.6c-1.3,0.2-1.6,0.3-1.8,0.4c-0.1-0.2-0.2-0.7-0.3-1c0.2,0,0.4-0.2,0.6-0.6
			c0.2-0.3,0.9-1.6,1.3-2.8l1,0.3c-0.4,1.1-1,2.1-1.6,3l1.3-0.1c0.2-0.4,0.4-0.8,0.6-1.2l1,0.4c-0.8,1.5-1.7,2.9-2.6,4l1.8-0.2
			c-0.1-0.4-0.3-0.7-0.4-1.1l0.8-0.2c0.4,0.8,0.8,2,1,2.7L225.8,806.6L225.8,806.6z"/>
		<path class="st0" d="M217.6,827.6c0.4,0.6,0.8,1.5,1,2l-0.6,0.2h0.2v1.6c0,1.3-0.3,2.6-2.6,3.4c-0.1-0.2-0.4-0.6-0.6-0.8
			c1.1-0.4,1.7-0.8,2-1.4h-2.4v-2.5h0.9v1.7h1.7c0-0.1,0-0.2,0-0.4v-1.6h0.7c-0.1-0.1-0.1-0.3-0.2-0.6c-2.8,0.3-3.3,0.4-3.6,0.5
			c0-0.2-0.2-0.7-0.3-0.9c0.3,0,0.6-0.2,1-0.5c0.2-0.1,0.6-0.5,1.1-0.9c-1.2,0.1-1.5,0.1-1.7,0.2c-0.1-0.2-0.2-0.7-0.3-0.9
			c0.2,0,0.4-0.1,0.6-0.3c0.2-0.2,0.9-0.9,1.3-1.6h-3.1v10.2h-1.3v-15.7h6.6v5.5H216l0.6,0.3c-0.4,0.6-0.9,1.2-1.4,1.6l1.3,0
			c0.3-0.3,0.6-0.6,0.8-0.9l0.8,0.5c-0.9,0.9-1.8,1.8-2.7,2.5l1.8-0.1c-0.1-0.2-0.2-0.5-0.4-0.7L217.6,827.6L217.6,827.6z
			 M212.6,820.2v1.3h4v-1.3H212.6z M212.6,823.7h4v-1.3h-4V823.7z M226.2,833.2c0,0.7-0.1,1.2-0.6,1.4c-0.5,0.2-1.2,0.3-2.3,0.3
			c-0.1-0.4-0.2-1-0.4-1.3c0.8,0,1.6,0,1.8,0c0.2,0,0.3-0.1,0.3-0.3v-8.5h-4l0.7,0.3c-0.4,0.6-0.9,1.2-1.4,1.6l1.3-0.1
			c0.3-0.3,0.5-0.6,0.8-0.9l0.8,0.5c-0.9,0.9-1.8,1.8-2.7,2.5l1.8-0.1c-0.1-0.2-0.2-0.5-0.4-0.7l0.7-0.2c0.4,0.6,0.8,1.5,1,1.9
			l-0.7,0.3c-0.1-0.2-0.2-0.4-0.3-0.6c-2.8,0.3-3.3,0.3-3.5,0.5c0-0.2-0.2-0.7-0.3-0.9c0.3,0,0.6-0.2,0.9-0.5c0.2-0.1,0.6-0.5,1.1-1
			c-1.2,0.1-1.5,0.1-1.7,0.2c-0.1-0.2-0.2-0.7-0.3-0.9c0.2,0,0.4-0.1,0.6-0.3s0.9-0.9,1.3-1.7h-1.1v-5.5h6.7L226.2,833.2
			L226.2,833.2z M222,833.2v-0.6h-1.7v2h-1v-4.8h1v1.9h1.7v-1.7h0.9v3.1L222,833.2L222,833.2z M220.8,820.2v1.3h4.1v-1.3H220.8z
			 M224.9,823.8v-1.3h-4.1v1.3H224.9z"/>
	</g>
	<g>
		<g>
			<path d="M252.9,783.4c-0.2,0.8-0.6,1.6-1.6,2.4c0.8,0.4,1.5,0.7,2.1,1.1l-0.9,0.8c-0.6-0.4-1.4-0.8-2.2-1.2
				c-1.1,0.6-2.8,1.1-5,1.5c-0.1-0.3-0.4-0.7-0.6-0.9c1.9-0.3,3.3-0.7,4.3-1.2c-0.9-0.4-1.9-0.7-2.8-1c0.3-0.4,0.6-0.8,0.9-1.2
				l-2.1,0.1l-0.1-1c0.8,0,1.8-0.1,2.9-0.1c0.3-0.5,0.6-1,0.8-1.4h-2.9v-2.9h3.4v-0.7h-2.9v-1.9H245v-1h1.2v-1.8h2.9v-1.3h1.1v1.3
				h3.1v1.8h1.2v1h-1.2v1.9h-3.1v0.7h3.5v2.9h-3.8c-0.2,0.5-0.5,0.9-0.8,1.3c0.9,0,1.8-0.1,2.7-0.1v-0.8h1.1v0.8l0.9,0l0,0.9
				L252.9,783.4L252.9,783.4z M246.9,780.4h2.2v-1.1h-2.2V780.4z M247.4,773.7v1h1.8v-1H247.4z M249.1,776.7v-1.1h-1.8v1.1H249.1z
				 M248.5,783.6c-0.2,0.3-0.4,0.6-0.6,0.8c0.7,0.2,1.5,0.5,2.2,0.8c0.9-0.6,1.3-1.2,1.5-1.8L248.5,783.6L248.5,783.6z M250.2,773.7
				v1h1.9v-1H250.2z M252.1,776.7v-1.1h-1.9v1.1H252.1z M250.2,779.3v1.1h2.3v-1.1H250.2z M260,776.2c-0.3,2.7-0.8,5-1.6,6.9
				c0.8,1.6,1.8,2.9,3,3.8c-0.3,0.2-0.6,0.6-0.8,1c-1.2-0.8-2.1-2-2.8-3.4c-0.8,1.5-1.9,2.7-3.3,3.7c-0.1-0.2-0.5-0.8-0.7-1
				c1.5-1,2.6-2.4,3.4-4c-0.6-1.4-1-3-1.3-4.8c-0.3,0.7-0.6,1.4-0.9,2c-0.2-0.2-0.6-0.6-0.9-0.8c1.2-1.9,1.9-4.8,2.3-7.8l1.1,0.2
				c-0.1,1-0.3,2.1-0.6,3.1h4.4v1.2L260,776.2L260,776.2z M256.5,776.2c0.3,1.9,0.7,3.7,1.2,5.3c0.5-1.5,0.8-3.3,1-5.3H256.5z"/>
			<path d="M268.5,772c-0.5,1.3-1.1,2.6-1.8,3.8V788h-1.3v-10.1c-0.6,0.8-1.2,1.5-1.8,2.2c-0.1-0.3-0.5-1-0.8-1.3
				c1.8-1.7,3.4-4.4,4.4-7.2L268.5,772z M279.2,786v1.3H268V786h6.3c0.6-2.4,1.4-6.2,1.7-8.9l1.4,0.2c-0.5,2.8-1.2,6.3-1.9,8.7
				H279.2z M278.5,776.1h-9.7v-1.3h9.7V776.1z M271.2,785.1c-0.1-1.9-0.7-5.2-1.2-7.7l1.2-0.3c0.6,2.5,1.1,5.7,1.3,7.6L271.2,785.1
				L271.2,785.1z M273.2,774.6c-0.1-0.8-0.5-2-0.9-2.9l1.3-0.3c0.3,0.9,0.7,2,0.9,2.8L273.2,774.6L273.2,774.6z"/>
			<path d="M283.7,778.8v2.7c0,2-0.3,4.8-1.9,6.6c-0.2-0.2-0.7-0.7-1-0.9c1.5-1.7,1.6-4,1.6-5.8v-3.8h2.3c-0.2-0.2-0.5-0.5-0.6-0.7
				c1.4-0.3,3.1-0.6,4.6-1.1c-1.4-0.4-2.8-0.8-4-1l0.8-0.7h-2.9v-1.1h6.6c-0.3-0.5-0.6-0.9-1-1.3l1-0.5c0.5,0.5,1,1.3,1.4,1.8h6v1.1
				h-2.7l0.7,0.4c-0.8,0.4-1.7,0.8-2.8,1.2c1.3,0.4,2.5,0.8,3.4,1.1l-0.7,0.7h2.6v1.1L283.7,778.8L283.7,778.8z M297.3,786.3v1.1
				H284v-1.1h5.9v-1.8h-4.2v-1.1h4.2v-1.6h-3.8c-0.5,0.9-1.1,1.6-1.7,2.2c-0.1-0.2-0.5-0.9-0.7-1.1c1-0.9,1.9-2.3,2.4-3.8l1.1,0.3
				c-0.2,0.4-0.3,0.8-0.5,1.2h3.1v-1.5h1.3v1.5h4.8v1.1h-4.8v1.6h4.5v1.1h-4.5v1.8L297.3,786.3L297.3,786.3z M294,777.7
				c-1-0.4-2.4-0.8-3.8-1.3c-1.6,0.5-3.3,0.9-4.9,1.3H294z M285.8,774.3c1.4,0.3,3,0.8,4.5,1.2c1.1-0.4,2.2-0.8,3-1.2H285.8z"/>
			<path d="M305.6,785.1c-1.3,1-3.6,1.9-5.5,2.3c-0.2-0.3-0.5-0.8-0.8-1c1.9-0.3,4.1-1,5.3-1.8L305.6,785.1L305.6,785.1z M315,782.6
				v1.1h-7.2v4.3h-1.3v-4.3h-7.1v-1.1h7.1v-1.3H301v-1h5.4v-1.3h-6.3v-1.1h3.9c-0.2-0.5-0.5-1.2-0.9-1.7l1-0.2h-4.6v-1.1h2.9
				c-0.3-0.7-0.9-1.8-1.4-2.6l1.1-0.4c0.6,0.8,1.3,1.9,1.5,2.7l-0.9,0.4h2.2v-3.2h1.3v3.2h2.1v-3.2h1.3v3.2h2.2l-0.7-0.2
				c0.5-0.7,1.1-1.9,1.4-2.7l1.4,0.4c-0.5,0.9-1.1,1.9-1.6,2.6h2.8v1.1h-4.7l1.2,0.3c-0.4,0.6-0.9,1.2-1.2,1.7h4.1v1.1h-6.5v1.3h5.6
				v1h-5.6v1.3L315,782.6L315,782.6z M304.4,775.9c0.4,0.6,0.8,1.3,1,1.8l-0.7,0.2h5l-0.6-0.2c0.4-0.5,0.8-1.3,1.1-1.8H304.4
				L304.4,775.9z M309.7,784.5c1.7,0.6,4,1.4,5.2,2l-0.8,0.8c-1.2-0.6-3.5-1.5-5.2-2.1L309.7,784.5L309.7,784.5z"/>
			<path d="M327.2,780.8c-0.8,0.4-1.7,0.8-2.6,1.2h6.8v6h-1.3v-0.5h-7.9v0.6h-1.3v-4.6c-1.1,0.4-2.3,0.7-3.5,1
				c-0.1-0.3-0.5-0.9-0.7-1.2c2.6-0.6,5.3-1.4,7.7-2.4h-7.4v-1.1h6.7v-1.3h-5v-1.1h5V776h-5.7v-3.7h13.9v3.7h-6.9v1.3h4v0.9
				c0.7-0.5,1.3-1,1.9-1.5l1,0.7c-0.9,0.9-1.9,1.7-3.1,2.4h4v1.1L327.2,780.8L327.2,780.8z M322.4,773.2h-2.9v1.7h2.9V773.2z
				 M330.1,783h-7.9v1.2h7.9V783z M330.1,786.4v-1.3h-7.9v1.3H330.1z M326.6,775v-1.7h-3v1.7H326.6z M326.8,779.6
				c0.8-0.4,1.5-0.9,2.2-1.3h-3.8v1.3H326.8L326.8,779.6z M327.8,775h3v-1.7h-3V775z"/>
		</g>
		<g>
			<path d="M250.2,812.8H245v-1.1h5.1V812.8z M251.6,822.1c-1.4,0.9-3.7,1.7-5.5,2.2c-0.2-0.3-0.7-0.8-1-1c1.8-0.4,4-1,5.3-1.7
				L251.6,822.1L251.6,822.1z M249.7,810h-4.3v-1h4.3V810z M247.4,814.2h11.7v7.2h-11.6L247.4,814.2L247.4,814.2z M248.7,816.4h9
				v-1.2h-9L248.7,816.4L248.7,816.4z M248.7,818.5h9v-1.2h-9L248.7,818.5L248.7,818.5z M248.7,820.6h9v-1.3h-9L248.7,820.6
				L248.7,820.6z M253,810.2c-0.4,0.7-0.9,1.3-1.4,1.8c-0.2-0.2-0.7-0.5-1-0.7c0.9-0.8,1.7-2.1,2.1-3.4l1.2,0.3
				c-0.1,0.3-0.2,0.7-0.4,1h6l0.2,0l0.9,0.3c-0.5,0.9-1,2-1.5,2.6l-1.1-0.4c0.3-0.4,0.6-0.9,0.9-1.4h-2.9v0.2c0,0.2,0,0.4,0,0.6
				c1,1.1,2.9,1.8,5.3,2c-0.2,0.2-0.6,0.7-0.8,1.1c-2-0.3-3.8-1-4.9-2.1c-0.6,0.9-2,1.7-5.2,2.2c-0.1-0.3-0.5-0.8-0.7-1
				c4.7-0.6,5.1-1.8,5.1-2.8v-0.2L253,810.2L253,810.2z M255.7,821.6c1.9,0.6,4,1.4,5.3,1.9l-1.2,0.8c-1.1-0.6-3.1-1.3-5-2
				L255.7,821.6L255.7,821.6z"/>
			<path d="M267.3,816.5c-0.3,1.6-0.9,3.3-1.5,4.7c0.4,0.2,0.8,0.5,1.5,0.9c1.3,0.8,2.9,0.9,5,0.9c2.3,0,5.2-0.2,7.2-0.4
				c-0.2,0.4-0.4,1-0.4,1.4c-1.4,0.1-4.8,0.2-6.9,0.2c-2.4,0-3.9-0.2-5.3-1c-0.7-0.4-1.4-1-1.8-1s-1,1.1-1.5,2.3l-0.9-1.2
				c0.6-0.9,1.2-1.6,1.8-2c0.5-1,1-2.5,1.3-3.8h-2.3c0.5-1.1,1.1-2.6,1.5-4h-2v-1.2h3.7c-0.4,1.3-1,2.8-1.5,4h1.2l0.2,0L267.3,816.5
				L267.3,816.5z M264.9,811.3c-0.2-0.8-0.6-2-0.9-3l1.2-0.3c0.3,0.9,0.7,2.1,1,2.9L264.9,811.3L264.9,811.3z M269.9,821.7h-1.3
				v-9.3h5.1c-1.1-0.5-2.4-1.1-3.4-1.5l0.9-0.7c0.8,0.2,1.7,0.6,2.5,1c0.9-0.4,1.8-0.9,2.5-1.4h-7.5v-1.1h8.8l0.3-0.1l0.8,0.6
				c-1,0.9-2.3,1.8-3.6,2.5c0.5,0.3,1,0.5,1.4,0.7h2.3v7.9c0,0.7-0.1,1-0.6,1.2c-0.5,0.2-1.2,0.2-2.4,0.2c0-0.3-0.2-0.8-0.4-1.1
				c0.9,0,1.6,0,1.8,0c0.2,0,0.3-0.1,0.3-0.3v-1.6h-3.1v2.9H273v-2.9h-3L269.9,821.7L269.9,821.7z M269.9,813.4v1.6h3v-1.6H269.9z
				 M272.9,817.6V816h-3v1.6H272.9z M277.3,813.4h-3.1v1.6h3.1V813.4z M277.3,817.6V816h-3.1v1.6H277.3z"/>
			<path d="M293.2,816.4c-0.5,1.6-1.2,2.9-2.1,4c2.2,0.9,4.2,1.9,5.5,2.8l-1,1.2c-1.3-0.9-3.4-2-5.6-2.9c-1.8,1.5-4.3,2.4-7.7,3
				c-0.1-0.4-0.6-1-0.9-1.3c3.1-0.4,5.4-1.1,7.1-2.3c-1.7-0.7-3.4-1.3-5-1.8c0.5-0.7,1.1-1.6,1.7-2.5h-3.9v-1.3h4.6
				c0.6-1.1,1.1-2.2,1.5-3.1l1.5,0.3c-0.4,0.9-0.8,1.9-1.4,2.9h4.4c0.1-0.6,0.2-1.2,0.3-1.8l1.6,0.1c-0.1,0.6-0.2,1.1-0.3,1.6h3.3
				v1.3H293.2L293.2,816.4z M283.2,813.6h-1.3V810h6.7c-0.2-0.6-0.6-1.3-0.9-1.8l1.4-0.4c0.4,0.7,0.9,1.6,1.1,2.2h6.2v3.6H295v-2.4
				h-11.8L283.2,813.6L283.2,813.6z M286.9,816.4c-0.4,0.7-0.8,1.3-1.2,1.9c1.3,0.4,2.7,0.9,4,1.5c0.9-0.9,1.5-2,1.9-3.4
				L286.9,816.4L286.9,816.4z"/>
			<path d="M307.8,808.4c1.7,2.5,4.8,5,7.6,6.1c-0.3,0.3-0.8,0.8-1,1.1c-2.7-1.3-5.5-3.6-7.4-6c-1.9,2.3-4.9,4.8-7.5,6.2
				c-0.2-0.4-0.5-0.8-0.8-1.1c2.3-1.1,5-3.1,6.8-5.1h-3.2v-1.3L307.8,808.4L307.8,808.4z M307.7,822.6h7v1.2h-15.2v-1.2h6.8v-3h-5
				v-1.2h5v-2.7h-4.3v-1.2h10v1.2h-4.4v2.7h5.1v1.2h-5.1L307.7,822.6L307.7,822.6z"/>
			<path d="M327.2,817.1c-0.8,0.4-1.7,0.8-2.6,1.2h6.8v6h-1.3v-0.5h-7.9v0.6h-1.3v-4.6c-1.1,0.4-2.3,0.7-3.5,1
				c-0.1-0.3-0.5-0.9-0.7-1.2c2.6-0.6,5.3-1.4,7.7-2.4h-7.4V816h6.7v-1.3h-5v-1.1h5v-1.3h-5.7v-3.7h13.9v3.7h-6.9v1.3h4v0.9
				c0.7-0.5,1.3-1,1.9-1.5l1,0.7c-0.9,0.9-1.9,1.7-3.1,2.4h4v1.1L327.2,817.1L327.2,817.1z M322.4,809.6h-2.9v1.7h2.9V809.6z
				 M330.1,819.3h-7.9v1.2h7.9V819.3z M330.1,822.7v-1.3h-7.9v1.3H330.1z M326.6,811.3v-1.7h-3v1.7H326.6z M326.8,816
				c0.8-0.4,1.5-0.9,2.2-1.3h-3.8v1.3H326.8L326.8,816z M327.8,811.3h3v-1.7h-3V811.3z"/>
		</g>
	</g>
	<line class="st2" x1="180.4" y1="797.8" x2="199.4" y2="797.8"/>
</g>
<g>
	<g>
		<path d="M250.2,1050.9H245v-1.1h5.1V1050.9z M251.6,1060.2c-1.4,0.9-3.7,1.7-5.5,2.2c-0.2-0.3-0.7-0.8-1-1c1.8-0.4,4-1,5.3-1.7
			L251.6,1060.2L251.6,1060.2z M249.7,1048h-4.3v-1h4.3V1048z M247.4,1052.3h11.7v7.2h-11.6L247.4,1052.3L247.4,1052.3z
			 M248.7,1054.4h9v-1.2h-9L248.7,1054.4L248.7,1054.4z M248.7,1056.5h9v-1.2h-9L248.7,1056.5L248.7,1056.5z M248.7,1058.6h9v-1.3
			h-9L248.7,1058.6L248.7,1058.6z M253,1048.2c-0.4,0.7-0.9,1.3-1.4,1.8c-0.2-0.2-0.7-0.5-1-0.7c0.9-0.8,1.7-2.1,2.1-3.4l1.2,0.3
			c-0.1,0.3-0.2,0.7-0.4,1h6l0.2-0.1l0.9,0.3c-0.5,0.9-1,2-1.5,2.6l-1.1-0.4c0.3-0.4,0.6-0.9,0.9-1.4h-2.9v0.2c0,0.2,0,0.4,0,0.6
			c1,1.1,2.9,1.8,5.3,2c-0.2,0.2-0.6,0.7-0.8,1.1c-2-0.3-3.8-1-4.9-2.1c-0.6,0.9-2,1.7-5.2,2.2c-0.1-0.3-0.5-0.8-0.7-1
			c4.7-0.6,5.1-1.8,5.1-2.8v-0.2L253,1048.2L253,1048.2z M255.7,1059.6c1.9,0.6,4,1.4,5.3,1.9l-1.2,0.8c-1.1-0.6-3.1-1.3-5-2
			L255.7,1059.6L255.7,1059.6z"/>
		<path d="M269.5,1050.1H263v-1.1h6.5V1050.1z M268.8,1061.3h-4v0.8h-1.1v-6.1h5.1L268.8,1061.3L268.8,1061.3z M263.7,1052.4v-1.1
			h5.1v1.1H263.7z M263.7,1053.7h5.1v1.1h-5.1V1053.7z M264.8,1057.2v3h2.9v-3H264.8z M266.2,1048.8c-0.2-0.7-0.8-1.7-1.3-2.4l1-0.5
			c0.5,0.7,1,1.7,1.3,2.3L266.2,1048.8L266.2,1048.8z M277.5,1046.9c-0.1,7.3-0.1,13.5,0.9,13.8c0.1,0,0.2-1.1,0.3-2.4
			c0.2,0.3,0.6,0.8,0.8,1c-0.2,2.5-0.8,3.1-1.6,2.8c-1.8-0.5-1.7-6.4-1.7-13.8h-3v5.3h2.4v1.2h-2.4v7.6h-1.3v-7.6h-2.4v-1.2h2.4
			v-5.3h-2.2v-1.3L277.5,1046.9L277.5,1046.9z"/>
		<path d="M297.2,1059.6v1.3h-16.1v-1.3h7.2v-10.3H282v-1.4h14.2v1.4h-6.5v10.3H297.2z"/>
		<path d="M305.6,1059.5c-1.3,1-3.6,1.9-5.5,2.3c-0.2-0.3-0.5-0.8-0.8-1c1.9-0.3,4.1-1,5.3-1.8L305.6,1059.5L305.6,1059.5z
			 M315,1057v1.1h-7.2v4.3h-1.3v-4.3h-7.1v-1.1h7.1v-1.3H301v-1h5.4v-1.3h-6.3v-1.1h3.9c-0.2-0.5-0.5-1.2-0.9-1.7l1-0.2h-4.6v-1.1
			h2.9c-0.3-0.7-0.9-1.8-1.4-2.6l1.1-0.4c0.6,0.8,1.3,1.9,1.5,2.7l-0.9,0.4h2.2v-3.2h1.3v3.2h2.1v-3.2h1.3v3.2h2.2l-0.7-0.2
			c0.5-0.7,1.1-1.9,1.4-2.7l1.4,0.4c-0.5,0.9-1.1,1.9-1.6,2.6h2.8v1.1h-4.7l1.2,0.3c-0.4,0.6-0.9,1.2-1.2,1.7h4.1v1.1h-6.5v1.3h5.6
			v1h-5.6v1.3H315L315,1057z M304.4,1050.2c0.4,0.6,0.8,1.3,1,1.8l-0.7,0.2h5l-0.6-0.2c0.4-0.5,0.8-1.3,1.1-1.8H304.4L304.4,1050.2z
			 M309.7,1058.9c1.7,0.6,4,1.4,5.2,2l-0.8,0.8c-1.2-0.6-3.5-1.5-5.2-2.1L309.7,1058.9L309.7,1058.9z"/>
		<path d="M325.9,1056.6c1.4,1.6,4.3,3.3,7.5,4c-0.3,0.3-0.6,0.8-0.9,1.2c-2.8-0.7-5.1-2.2-6.7-3.7v4.3h-1.4v-4.4
			c-1.8,1.7-4.2,3.1-6.7,3.8c-0.2-0.3-0.5-0.8-0.9-1.1c3-0.7,6-2.3,7.6-4.2v-1.6H320v3.5h-1.4v-4.6h5.8v-1.4h-7.1v-1.2h7.1v-1.1h1.4
			v1.1h6.9v1.2h-6.9v1.4h5.8v3.3c0,0.7-0.1,0.9-0.6,1.1c-0.5,0.2-1.2,0.2-2.2,0.2c-0.1-0.3-0.3-0.8-0.5-1.1c0.7,0,1.4,0,1.6,0
			c0.2,0,0.3-0.1,0.3-0.2v-2.1h-4.5L325.9,1056.6L325.9,1056.6z M319.8,1048.3c-0.6,0.9-1.2,1.7-1.9,2.3c-0.2-0.2-0.6-0.7-0.9-0.9
			c1.1-1,2.1-2.4,2.7-3.9l1.2,0.3c-0.1,0.4-0.3,0.7-0.5,1.1h4.6v1.1h-3.4c0.6,0.5,1.3,1.2,1.6,1.6l-0.9,0.8
			c-0.3-0.5-1.1-1.3-1.7-1.8l0.7-0.5L319.8,1048.3L319.8,1048.3z M327.2,1048.3c-0.4,0.6-0.9,1.2-1.4,1.7c-0.2-0.2-0.7-0.6-1-0.8
			c1-0.8,1.8-2.1,2.2-3.3l1.2,0.3c-0.1,0.4-0.3,0.7-0.5,1.1h5.4v1.1h-3.9c0.6,0.5,1.4,1.2,1.8,1.6l-0.9,0.8
			c-0.4-0.5-1.2-1.2-1.9-1.8l0.8-0.6L327.2,1048.3L327.2,1048.3z"/>
		<path d="M339.3,1054.5c-0.3,1.6-0.9,3.3-1.5,4.7c0.3,0.2,0.8,0.5,1.4,0.9c1.3,0.8,2.9,0.9,5,0.9c2.3,0,5.2-0.2,7.2-0.4
			c-0.2,0.4-0.4,1-0.4,1.4c-1.3,0.1-4.8,0.2-6.9,0.2c-2.4,0-3.9-0.2-5.3-1c-0.7-0.4-1.4-1-1.8-1s-1,1.1-1.5,2.3l-0.9-1.2
			c0.6-0.9,1.3-1.6,1.8-2c0.5-1,1-2.4,1.3-3.8h-2.4c0.5-1.1,1.1-2.6,1.5-4h-2v-1.2h3.7c-0.5,1.3-1,2.8-1.5,4.1h1.2l0.2-0.1
			L339.3,1054.5L339.3,1054.5z M336.9,1049.3c-0.2-0.8-0.6-2-0.9-2.9l1.2-0.4c0.3,0.9,0.7,2.1,1,2.9L336.9,1049.3L336.9,1049.3z
			 M341,1051.4c-0.4,0.6-0.9,1.1-1.3,1.5c-0.2-0.3-0.6-0.9-0.8-1.2c1.6-1.4,2.9-3.5,3.7-5.8l1.2,0.3c-0.3,0.9-0.7,1.8-1.2,2.6h3.6
			c-0.3-0.7-0.7-1.5-1.1-2.2l1.2-0.4c0.5,0.8,1,1.8,1.3,2.6h3.1v1.2h-3.9v1.8h3.3v1.1h-3.3v1.8h3.2v1.1h-3.2v1.9h4.2v1.2h-8.8v1H341
			L341,1051.4L341,1051.4z M345.7,1050.1h-3.4v1.8h3.4V1050.1z M345.7,1052.9h-3.4v1.8h3.4V1052.9z M345.7,1055.9h-3.4v1.9h3.4
			V1055.9z"/>
		<path d="M362.2,1046.3c-0.1,0.1-0.2,0.2-0.2,0.3c1.7,1.6,4.8,3.1,7.6,3.8c-0.3,0.2-0.6,0.7-0.9,1c-1.5-0.4-3-1-4.4-1.8v0.6H358
			v-0.5c-1.4,0.8-2.9,1.4-4.4,1.8c-0.1-0.2-0.5-0.8-0.8-1c3.3-0.9,6.5-2.4,8.1-4.6L362.2,1046.3z M355.1,1051h12v4.5h-12V1051z
			 M356.1,1056.4h10.1v5.8h-1.4v-0.5h-7.5v0.6h-1.3L356.1,1056.4L356.1,1056.4z M356.2,1054.7h4.2v-2.7h-4.2V1054.7z M358.3,1052.2
			c0.5,0.6,0.9,1.5,1.1,2l-1,0.4c-0.1-0.6-0.6-1.4-1-2.1L358.3,1052.2L358.3,1052.2z M357.4,1057.4v1.2h7.5v-1.2H357.4z
			 M364.9,1060.8v-1.2h-7.5v1.2H364.9z M363.5,1049.2c-0.9-0.5-1.7-1.2-2.4-1.8c-0.7,0.7-1.5,1.3-2.3,1.8H363.5z M365.9,1052h-4.3
			v2.7h4.3V1052z M362.8,1054.3c0.3-0.6,0.8-1.6,1-2.2l1.1,0.4c-0.4,0.8-0.9,1.6-1.2,2.1L362.8,1054.3z"/>
	</g>
	<g>
		<path d="M252.4,1086h-5.6v2.9h-1.3v-3.8h6.9v-1.2h-6.1v-0.9h13.6v0.9h-6.2v1.2h7v3.8h-1.3v-2.9h-5.7v4.1h-1.3L252.4,1086
			L252.4,1086z M259,1097.4c1,0,1.1-0.3,1.2-2.1c0.3,0.2,0.8,0.4,1.2,0.4c-0.2,2.2-0.6,2.7-2.3,2.7h-4.1c-2,0-2.6-0.4-2.6-1.8v-0.6
			h-4v0.9h-1.3v-6.2h12.1v5.3h-5.6v0.6c0,0.6,0.2,0.7,1.3,0.7H259L259,1097.4z M247.1,1089.1c1.1-0.1,2.7-0.3,4.3-0.6l0.1,0.8
			c-1.4,0.3-2.8,0.6-3.9,0.8L247.1,1089.1L247.1,1089.1z M248,1086.4c1.1,0.2,2.6,0.6,3.5,0.9l-0.4,0.8c-0.8-0.4-2.3-0.8-3.5-1
			L248,1086.4L248,1086.4z M248.4,1091.8v1.2h4v-1.2H248.4z M252.4,1095.1v-1.2h-4v1.2H252.4z M257.9,1091.8h-4.2v1.2h4.2V1091.8z
			 M257.9,1095.1v-1.2h-4.2v1.2H257.9z M258.7,1090.2c-1-0.3-2.8-0.8-4.2-1l0.3-0.8c1.4,0.2,3.2,0.5,4.2,0.9L258.7,1090.2
			L258.7,1090.2z M258.7,1087c-1,0.4-2.5,0.8-3.5,1l-0.5-0.7c1-0.2,2.5-0.8,3.4-1.1L258.7,1087L258.7,1087z"/>
		<path d="M268,1082.7c-0.4,1.2-0.9,2.4-1.5,3.6v12.5h-1.2v-10.4c-0.5,0.9-1.1,1.6-1.7,2.3c-0.1-0.3-0.5-0.9-0.7-1.2
			c1.6-1.8,3.1-4.4,4-7.2L268,1082.7L268,1082.7z M279.1,1085.2v1.1h-11.4v-1.1H279.1z M268.8,1092.9h9.1v5.7h-1.2v-0.7h-6.8v0.7
			h-1.2L268.8,1092.9L268.8,1092.9z M277.7,1088.9H269v-1.1h8.7V1088.9z M269,1090.3h8.7v1.1H269V1090.3z M269.9,1094.1v2.8h6.8
			v-2.8H269.9z M273.1,1085.1c-0.2-0.6-0.8-1.7-1.2-2.4l1.1-0.5c0.5,0.8,1.1,1.7,1.3,2.3L273.1,1085.1L273.1,1085.1z"/>
		<path d="M286.8,1091.3c-0.7,0.2-1.5,0.4-2.2,0.7v5.1c0,0.8-0.2,1.1-0.7,1.3c-0.5,0.2-1.2,0.2-2.4,0.2c0-0.3-0.2-0.9-0.4-1.2
			c0.9,0,1.6,0,1.9,0c0.3,0,0.4-0.1,0.4-0.3v-4.7l-2.2,0.6l-0.4-1.3c0.7-0.2,1.6-0.4,2.5-0.7v-3.9h-2.3v-1.3h2.3v-3.6h1.3v3.6h2v1.3
			h-2v3.6c0.6-0.2,1.3-0.4,2-0.6L286.8,1091.3L286.8,1091.3z M296.4,1089.3c-0.8,2.5-2,4.4-3.7,5.9c1.3,1.1,2.8,1.8,4.6,2.3
			c-0.3,0.3-0.7,0.8-0.9,1.2c-1.9-0.6-3.5-1.4-4.8-2.6c-1.5,1.2-3.3,2-5.1,2.6c-0.1-0.4-0.5-0.9-0.7-1.2c1.8-0.5,3.4-1.2,4.9-2.3
			c-1.3-1.3-2.2-3-3-4.9l0,0h-0.6v-1.2h3.9v-2.7h-4.2v-1.2h4.2v-2.8h1.3v2.8h4.3v1.2h-4.3v2.7h2.9l0.2-0.1L296.4,1089.3
			L296.4,1089.3z M289.1,1090.2c0.6,1.6,1.5,3,2.6,4.1c1.2-1.1,2.2-2.5,2.9-4.1H289.1z"/>
		<path d="M303.6,1086.3c-0.4,0.9-1,1.8-1.5,2.7v9.8h-1.2v-8.1c-0.5,0.6-1,1.1-1.5,1.6c-0.1-0.3-0.6-0.9-0.8-1.2
			c1.5-1.2,3-3.2,3.9-5.2L303.6,1086.3L303.6,1086.3z M303.2,1082.7c-0.9,1.5-2.3,3.1-3.6,4.2c-0.1-0.3-0.5-0.7-0.7-1
			c1.2-0.9,2.5-2.4,3.1-3.6L303.2,1082.7L303.2,1082.7z M305.3,1089c0,3.5-0.2,5.8-1.6,7.2c-0.1-0.2-0.5-0.6-0.7-0.8
			c1.1-1.2,1.3-3.2,1.3-6.4H305.3z M307.4,1087.8v10.8h-1.2v-10.8h-2.7v-1.2h2.7v-4.2h1.2v4.2h3v1.2H307.4z M309.7,1086.1
			c-0.3-0.7-1-1.7-1.6-2.4l0.9-0.5c0.6,0.7,1.3,1.7,1.6,2.4L309.7,1086.1L309.7,1086.1z M310.3,1094.7c0.2,0,0.4,0,0.6-0.1
			c0,0.3,0.1,0.7,0.1,1c-0.2,0.1-0.4,0.1-0.7,0.1h-0.6c-1,0-1.2-0.4-1.2-1.6v-5h1v5c0,0.5,0,0.6,0.2,0.6L310.3,1094.7L310.3,1094.7z
			 M315.3,1089.1h-1.6v7.8c0,0.8-0.1,1.1-0.6,1.3c-0.5,0.2-1.3,0.2-2.6,0.2c0-0.4-0.2-0.9-0.4-1.3c0.9,0,1.8,0,2,0
			c0.2,0,0.3-0.1,0.3-0.3v-7.8h-2.1v-1.2h5V1089.1L315.3,1089.1z M315.1,1084.9h-4.3v-1.2h4.3V1084.9z"/>
		<path d="M332.3,1085.4v8.4h-1.4v-1h-5.2v5.8h-1.4v-5.8h-5.1v1.1h-1.3v-8.5h6.5v-3.2h1.4v3.2H332.3z M324.4,1091.5v-4.8h-5.1v4.8
			H324.4z M330.9,1091.5v-4.8h-5.2v4.8H330.9z"/>
		<path d="M337.9,1088.8c-0.3,2.1-0.9,5.2-1.6,7.1l-1.3-0.6c0.8-1.8,1.4-4.7,1.6-6.8L337.9,1088.8L337.9,1088.8z M340.8,1087.2v8.9
			c0,0.8,0.2,1,1.2,1h3.4c1.1,0,1.3-0.6,1.4-3.7c0.3,0.2,0.9,0.5,1.3,0.6c-0.2,3.4-0.6,4.4-2.6,4.4h-3.6c-1.9,0-2.5-0.5-2.5-2.3
			v-8.9L340.8,1087.2L340.8,1087.2z M341.2,1082.9c1.7,1.2,3.8,2.8,4.8,4l-1,1c-1-1.1-3.1-2.9-4.8-4.1L341.2,1082.9z M349,1088.1
			c1,2.1,2,4.9,2.4,6.8l-1.3,0.5c-0.4-1.8-1.3-4.7-2.3-6.8L349,1088.1L349,1088.1z"/>
	</g>
	<g>
		<path d="M255.9,1120.6c1.8,1.5,3.8,3.7,4.8,5.2l-1.1,0.8c-0.3-0.5-0.6-1-1.1-1.6c-10.3,0.6-11.3,0.6-12,0.9
			c-0.1-0.3-0.3-1-0.4-1.3c0.4-0.1,0.9-0.5,1.5-1.1c0.6-0.6,2.7-2.8,4.1-5.1l1.3,0.6c-1.4,1.9-3,3.8-4.6,5.3l9.2-0.4
			c-0.8-0.9-1.8-1.9-2.6-2.7L255.9,1120.6L255.9,1120.6z M247.4,1127.5h11.4v7.5h-1.4v-0.9h-8.7v1h-1.4V1127.5L247.4,1127.5z
			 M248.7,1128.8v4h8.7v-4H248.7z"/>
		<path d="M265.4,1126.4c-0.5-0.6-1.7-1.4-2.6-1.9l0.8-0.9c0.9,0.4,2.1,1.2,2.6,1.8L265.4,1126.4L265.4,1126.4z M263.2,1134.1
			c0.6-1.4,1.6-3.7,2.2-5.7l1,0.7c-0.6,1.9-1.4,4.1-2.1,5.7L263.2,1134.1L263.2,1134.1z M265.7,1121.7c-0.5-0.6-1.6-1.4-2.5-2
			l0.8-0.9c0.9,0.5,2,1.3,2.5,1.9L265.7,1121.7L265.7,1121.7z M267.7,1125.2c-0.2,0.9-0.5,1.8-0.8,2.5c-0.1-0.1-0.5-0.3-0.7-0.4
			c0.3-0.7,0.5-1.4,0.7-2.2L267.7,1125.2L267.7,1125.2z M270.1,1124.5c0-0.2-0.1-0.4-0.2-0.6c-2.5,0.3-2.9,0.4-3.1,0.6
			c0-0.2-0.2-0.5-0.3-0.7c0.3,0,0.5-0.3,0.8-0.6c0.2-0.2,0.6-0.7,1.1-1.3c-1.2,0.1-1.5,0.2-1.7,0.2c0-0.2-0.2-0.5-0.3-0.7
			c0.2,0,0.4-0.2,0.6-0.4c0.2-0.2,0.8-1.3,1.1-2.2l0.9,0.3c-0.3,0.8-0.8,1.5-1.2,2.1l1.2-0.1c0.2-0.3,0.3-0.5,0.5-0.8l0.8,0.3
			c-0.6,1-1.4,2.1-2.2,2.9l1.6-0.2c-0.1-0.2-0.2-0.4-0.3-0.6l0.7-0.2c0.4,0.6,0.7,1.3,0.9,1.8L270.1,1124.5L270.1,1124.5z
			 M278.5,1131.4c0,0,0,0.4-0.1,0.5c-0.3,1.6-0.7,2.3-1.2,2.7c-0.4,0.3-0.8,0.3-1.4,0.3c-0.5,0-1.6,0-2.8-0.1c0-0.3-0.2-0.7-0.4-1
			c1.1,0.1,2.3,0.1,2.8,0.1c0.4,0,0.6,0,0.8-0.1c0.3-0.2,0.5-0.7,0.8-1.6h-9.5c0.3-0.8,0.6-1.8,0.8-2.7h8.1v-0.9h-8.8v-0.9h10v2.7
			h-8.3c-0.1,0.3-0.2,0.6-0.2,0.9H278.5L278.5,1131.4z M268.5,1127.4c0-0.6-0.2-1.5-0.4-2.2l0.7-0.2c0.2,0.7,0.4,1.6,0.4,2.1
			L268.5,1127.4L268.5,1127.4z M270.1,1124.7c0.3,0.6,0.6,1.4,0.6,1.9l-0.7,0.3c-0.1-0.5-0.3-1.3-0.6-2L270.1,1124.7L270.1,1124.7z
			 M274.9,1121.2h-4.3v-0.8h1.9c-0.1-0.4-0.5-1-0.7-1.4l0.9-0.2c0.3,0.4,0.6,1,0.8,1.4l-0.8,0.2h2.2L274.9,1121.2L274.9,1121.2z
			 M271,1124.6h3.4v2.7H271V1124.6z M274.4,1122.6h-3.3v-0.8h3.3V1122.6z M271.1,1123.2h3.3v0.7h-3.3V1123.2z M271.9,1126.5h1.6
			v-1.2h-1.6V1126.5z M276.1,1125.2c-0.2,0.9-0.5,1.8-0.8,2.5c-0.1-0.1-0.5-0.4-0.7-0.5c0.4-0.6,0.6-1.4,0.7-2.2L276.1,1125.2
			L276.1,1125.2z M278.5,1124.6c0-0.2-0.1-0.4-0.2-0.7c-2.5,0.3-2.9,0.4-3.1,0.5c0-0.1-0.2-0.5-0.3-0.7c0.3,0,0.5-0.2,0.9-0.6
			c0.2-0.2,0.6-0.7,1.1-1.4c-1.2,0.1-1.5,0.2-1.7,0.3c0-0.2-0.2-0.5-0.3-0.7c0.2,0,0.3-0.2,0.5-0.4c0.2-0.2,0.8-1.3,1.1-2.2l0.9,0.3
			c-0.3,0.7-0.8,1.5-1.2,2.1l1.2-0.1c0.2-0.3,0.3-0.5,0.5-0.8l0.8,0.4c-0.6,1-1.4,2-2.2,2.9l1.6-0.2c-0.1-0.2-0.2-0.4-0.3-0.6
			l0.6-0.2c0.4,0.6,0.8,1.4,0.9,1.9L278.5,1124.6L278.5,1124.6z M276.8,1127.6c0-0.6-0.2-1.6-0.5-2.4l0.7-0.2
			c0.2,0.8,0.4,1.8,0.5,2.3L276.8,1127.6L276.8,1127.6z M278.4,1124.7c0.4,0.7,0.7,1.7,0.8,2.3l-0.7,0.3c-0.1-0.6-0.4-1.6-0.7-2.4
			L278.4,1124.7z"/>
		<path d="M282.7,1130.3c-0.2,1.6-0.5,3.2-0.9,4.3c-0.2-0.1-0.7-0.3-1-0.4c0.4-1.1,0.7-2.7,0.9-4.1L282.7,1130.3L282.7,1130.3z
			 M286.3,1125.4c0.5,1.1,1,2.6,1.2,3.4l-1,0.4c0-0.2-0.1-0.6-0.2-0.9c-4,0.6-4.6,0.8-4.9,0.9c0-0.3-0.2-0.8-0.4-1.2
			c0.4-0.1,0.8-0.5,1.3-1.2c0.3-0.3,0.9-1.1,1.5-2.1c-1.9,0.2-2.2,0.3-2.5,0.4c-0.1-0.2-0.2-0.8-0.4-1.2c0.3-0.1,0.6-0.4,1-1
			c0.4-0.5,1.6-2.6,2.3-4.5l1.1,0.5c-0.8,1.7-1.7,3.5-2.7,4.8l1.9-0.2c0.5-0.8,0.9-1.6,1.3-2.5l1,0.6c-1.1,2.1-2.5,4.3-3.9,6
			l3.1-0.4c-0.2-0.6-0.4-1.2-0.6-1.7L286.3,1125.4L286.3,1125.4z M284.5,1130c0.2,1.2,0.5,2.7,0.5,3.8l-1,0.2c0-1.1-0.2-2.6-0.4-3.8
			L284.5,1130z M286.4,1129.6c0.4,1.1,0.9,2.5,1.1,3.5l-0.9,0.3c-0.2-0.9-0.6-2.4-1-3.5L286.4,1129.6L286.4,1129.6z M296.9,1133.5
			c0,0.7-0.1,1.1-0.6,1.3c-0.4,0.2-1.2,0.2-2.3,0.2c0-0.3-0.2-0.9-0.3-1.2c0.8,0,1.5,0,1.7,0c0.2,0,0.3-0.1,0.3-0.3v-12.9H289v14.4
			h-1.2v-15.6h9.2L296.9,1133.5L296.9,1133.5z M294,1130.6c0.3,0,0.8,0,1.1-0.1c0,0.3,0.1,0.7,0.1,1c-0.2,0.1-0.7,0.1-1.1,0.1h-2.3
			c-1.2,0-1.5-0.4-1.5-1.6v-1.8h-0.7v-1.1h2.5c-0.2-0.5-0.5-1.1-0.7-1.6l0.8-0.3h-2.8v-1.1h3.4c0.3-0.8,0.7-2.1,0.9-3l1,0.3
			c-0.3,0.9-0.6,1.9-0.9,2.7h1.5v1.1h-3c0.3,0.5,0.6,1.2,0.8,1.6l-0.6,0.3h2.7v1.1h-3.7v1.8c0,0.5,0,0.6,0.4,0.6L294,1130.6
			L294,1130.6z M290.9,1121.1c0.5,0.8,0.9,1.8,1,2.6l-0.9,0.3c-0.1-0.7-0.5-1.8-0.9-2.6L290.9,1121.1L290.9,1121.1z"/>
		<path d="M314.1,1120.8c-0.6,1.9-1.5,3.5-2.6,4.8c1.1,1.1,2.5,2,4.1,2.7c-0.3,0.2-0.6,0.8-0.8,1.1c-0.2-0.1-0.4-0.2-0.6-0.2v5.9
			h-1.3v-0.6h-4.5v0.7h-1.2v-6c-0.4,0.2-0.7,0.3-1.1,0.5c-0.1-0.3-0.4-0.6-0.6-0.9h-1.9v3.2c0.8-0.2,1.6-0.4,2.4-0.6l0.1,1.2
			c-2.5,0.6-5,1.2-6.9,1.7l-0.2-1.3l0.9-0.2v-6.1h1.1v5.9l1.4-0.3v-7.3h-2.5v-5.5h5.8v4.8c1.4-1.3,2.6-3.4,3.3-5.5l1.3,0.3
			c-0.2,0.5-0.4,1-0.6,1.5h3.5l0.2-0.1L314.1,1120.8L314.1,1120.8z M300.9,1123.7h3.4v-3.2h-3.4V1123.7z M305.7,1128.3
			c1.4-0.6,2.9-1.6,4.1-2.8c-0.7-0.8-1.2-1.7-1.7-2.5c-0.5,0.8-1.1,1.5-1.6,2.1c-0.2-0.2-0.6-0.6-0.9-0.8v0.5h-2.1v2.6h2.2
			L305.7,1128.3L305.7,1128.3z M313.3,1128.6c-1-0.6-1.9-1.3-2.7-2.1c-0.8,0.8-1.8,1.6-2.7,2.1H313.3L313.3,1128.6z M312.9,1133.2
			v-3.5h-4.5v3.5H312.9z M309,1121.6l-0.2,0.3c0.5,0.9,1,1.8,1.8,2.7c0.8-0.9,1.4-1.9,1.8-3L309,1121.6L309,1121.6z"/>
		<path d="M322.2,1123.5H317v-1.1h5.1V1123.5z M323.6,1132.8c-1.4,0.9-3.7,1.7-5.5,2.2c-0.2-0.3-0.7-0.8-1-1c1.8-0.4,4-1,5.3-1.7
			L323.6,1132.8L323.6,1132.8z M321.7,1120.7h-4.3v-1h4.3V1120.7z M319.4,1124.9h11.6v7.2h-11.6V1124.9z M320.7,1127.1h9v-1.2h-9
			V1127.1z M320.7,1129.2h9v-1.2h-9V1129.2z M320.7,1131.3h9v-1.3h-9V1131.3z M325,1120.8c-0.4,0.7-0.9,1.3-1.4,1.8
			c-0.2-0.2-0.7-0.5-1-0.7c0.9-0.8,1.7-2.1,2.1-3.4l1.2,0.3c-0.1,0.3-0.2,0.7-0.4,1h6l0.2-0.1l0.9,0.3c-0.5,0.9-1,2-1.5,2.6
			l-1.1-0.4c0.3-0.4,0.6-0.9,0.9-1.4h-2.9v0.2c0,0.2,0,0.4,0,0.6c1,1.1,2.9,1.8,5.3,2c-0.2,0.2-0.6,0.7-0.8,1.1
			c-2-0.3-3.8-1-4.9-2.1c-0.6,0.9-2,1.7-5.2,2.2c-0.1-0.3-0.5-0.8-0.7-1c4.7-0.6,5.1-1.8,5.1-2.8v-0.2L325,1120.8L325,1120.8z
			 M327.7,1132.3c1.9,0.6,4,1.4,5.3,1.9l-1.2,0.8c-1.1-0.6-3.1-1.3-5-2L327.7,1132.3z"/>
		<path d="M341.5,1122.7H335v-1.1h6.5V1122.7z M340.8,1133.9h-4v0.8h-1.1v-6.1h5.1L340.8,1133.9L340.8,1133.9z M335.7,1125.1v-1.1
			h5.1v1.1H335.7z M335.7,1126.3h5.1v1.1h-5.1V1126.3z M336.8,1129.8v3h2.9v-3H336.8z M338.2,1121.4c-0.2-0.7-0.8-1.7-1.3-2.4l1-0.5
			c0.5,0.7,1,1.7,1.3,2.3L338.2,1121.4L338.2,1121.4z M349.5,1119.6c-0.1,7.3-0.1,13.5,0.9,13.8c0.1,0,0.2-1.1,0.3-2.4
			c0.2,0.3,0.6,0.8,0.8,1c-0.2,2.5-0.8,3.1-1.6,2.8c-1.8-0.5-1.7-6.4-1.7-13.8h-3v5.3h2.4v1.2h-2.4v7.6h-1.3v-7.6h-2.4v-1.2h2.4
			v-5.3h-2.2v-1.3L349.5,1119.6L349.5,1119.6z"/>
		<path d="M368.3,1121.8v8.4h-1.4v-1h-5.2v5.8h-1.4v-5.8h-5.1v1.1h-1.3v-8.5h6.5v-3.2h1.4v3.2H368.3z M360.4,1127.9v-4.8h-5.1v4.8
			H360.4z M366.9,1127.9v-4.8h-5.2v4.8H366.9z"/>
		<path d="M373.9,1125.2c-0.3,2.1-0.9,5.2-1.6,7.1l-1.3-0.6c0.8-1.8,1.4-4.7,1.6-6.8L373.9,1125.2L373.9,1125.2z M376.8,1123.6v8.9
			c0,0.8,0.2,1,1.2,1h3.4c1.1,0,1.3-0.6,1.4-3.7c0.3,0.2,0.9,0.5,1.3,0.6c-0.2,3.4-0.6,4.4-2.6,4.4h-3.6c-1.9,0-2.5-0.5-2.5-2.3
			v-8.9L376.8,1123.6L376.8,1123.6z M377.2,1119.2c1.7,1.2,3.8,2.8,4.8,4l-1,1c-1-1.1-3.1-2.9-4.8-4.1L377.2,1119.2z M385,1124.5
			c1,2.1,2,4.9,2.4,6.8l-1.3,0.5c-0.4-1.8-1.3-4.7-2.3-6.8L385,1124.5L385,1124.5z"/>
	</g>
</g>
<g>
	<path d="M260.5,938.4V954h-1.3v-0.8h-12.3v0.8h-1.3v-15.6H260.5L260.5,938.4z M259.2,952v-12.4h-12.3V952H259.2z M253.2,949.3
		c-1.9,0.4-3.8,0.7-5.3,1l-0.2-1c1.4-0.2,3.4-0.6,5.4-0.9L253.2,949.3L253.2,949.3z M257.6,944c-0.5,1.7-1.1,3.1-2,4.4
		c0.4,1,0.9,1.6,1.4,1.7c0.2,0,0.4-0.7,0.5-1.8c0.2,0.2,0.6,0.5,0.9,0.6c-0.2,1.9-0.8,2.6-1.8,2.3c-0.8-0.2-1.4-0.8-1.8-1.8
		c-0.7,0.8-1.5,1.5-2.4,2.1c-0.2-0.2-0.6-0.7-0.8-0.9c1.1-0.6,2-1.4,2.8-2.4c-0.4-1.4-0.8-3.3-1-5.3h-5.5v-1h5.4
		c-0.1-0.6-0.1-1.3-0.1-1.9h1.1c0,0.7,0.1,1.3,0.1,1.9h3.8v1h-3.8c0.2,1.5,0.4,2.9,0.7,4.1c0.6-1,1-2,1.3-3.3L257.6,944L257.6,944z
		 M252.5,944.1v3.5h-4v-3.5H252.5z M251.5,945h-2.1v1.8h2.1V945z M257.2,941.8c-0.4-0.4-1.2-1-1.9-1.3l0.6-0.7
		c0.7,0.3,1.5,0.8,1.9,1.2L257.2,941.8z"/>
	<path d="M277.4,944.9c-0.8,0.7-1.8,1.4-2.8,2c0.8,2.4,2.5,4.4,4.8,5.3c-0.3,0.2-0.7,0.8-0.9,1.1c-2.3-1-4-3.1-5-5.7
		c-0.3,0.2-0.6,0.4-0.9,0.5c0.6,2.3,0.2,4.5-0.8,5.3c-0.6,0.5-1,0.6-1.8,0.6c-0.4,0-1,0-1.5,0c0-0.4-0.1-0.9-0.3-1.3
		c0.6,0,1.2,0.1,1.6,0.1c0.5,0,0.8,0,1.1-0.4c0.5-0.4,0.9-1.6,0.7-3.1c-2,1.6-5.1,3.1-7.7,3.8c-0.1-0.3-0.5-0.8-0.7-1.1
		c2.9-0.7,6.4-2.3,8.2-4c-0.1-0.4-0.3-0.8-0.5-1.3c-1.8,1.2-4.5,2.5-6.7,3.1c-0.1-0.3-0.4-0.8-0.7-1c2.2-0.5,5.3-1.8,6.8-3
		c-0.2-0.4-0.5-0.7-0.9-1.1c-1.6,0.9-3.5,1.6-5.2,2.1c-0.1-0.3-0.5-0.8-0.7-1.1c2.3-0.5,4.7-1.4,6.4-2.6h-4.1v-1.2h10.4v1.2h-4.5
		c-0.4,0.3-0.8,0.7-1.3,1c0.8,0.8,1.5,1.8,1.8,2.8c1.4-0.9,2.9-2.1,3.9-3L277.4,944.9L277.4,944.9z M265,942.9h-1.3v-3.7h6.8
		c-0.2-0.5-0.4-0.9-0.7-1.3l1.4-0.4c0.3,0.5,0.7,1.2,0.9,1.7h6.6v3.7h-1.4v-2.5H265L265,942.9L265,942.9z"/>
	<path d="M286.2,942.5H281v-1.1h5.1V942.5z M287.6,951.8c-1.4,0.9-3.7,1.7-5.5,2.2c-0.2-0.3-0.7-0.8-1-1c1.8-0.4,4-1,5.3-1.7
		L287.6,951.8L287.6,951.8z M285.7,939.7h-4.3v-1h4.3V939.7z M283.4,943.9h11.6v7.2h-11.6V943.9z M284.7,946h9v-1.2h-9V946z
		 M284.7,948.1h9v-1.2h-9V948.1z M284.7,950.3h9V949h-9V950.3z M289,939.8c-0.4,0.7-0.9,1.3-1.4,1.8c-0.2-0.2-0.7-0.5-1-0.7
		c0.9-0.8,1.7-2.1,2.1-3.4l1.2,0.3c-0.1,0.3-0.2,0.7-0.4,1h6l0.2,0l0.9,0.3c-0.5,0.9-1,2-1.5,2.6l-1.1-0.4c0.3-0.4,0.6-0.9,0.9-1.4
		h-2.9v0.2c0,0.2,0,0.4,0,0.6c1,1.1,2.9,1.8,5.3,2c-0.2,0.2-0.6,0.7-0.8,1.1c-2-0.3-3.8-1-4.9-2.1c-0.6,0.9-2,1.7-5.2,2.2
		c-0.1-0.3-0.5-0.8-0.7-1c4.7-0.6,5.1-1.8,5.1-2.8v-0.2L289,939.8L289,939.8z M291.7,951.3c1.9,0.6,4,1.4,5.3,1.9l-1.2,0.8
		c-1.1-0.6-3.1-1.3-5-2L291.7,951.3L291.7,951.3z"/>
	<path d="M303.3,946.2c-0.3,1.6-0.9,3.3-1.5,4.7c0.4,0.2,0.8,0.5,1.5,0.9c1.3,0.8,2.9,0.9,5,0.9c2.3,0,5.2-0.2,7.2-0.4
		c-0.2,0.4-0.4,1-0.4,1.4c-1.4,0.1-4.8,0.2-6.9,0.2c-2.4,0-3.9-0.2-5.3-1c-0.7-0.4-1.4-1-1.8-1s-1,1.1-1.5,2.3l-0.9-1.2
		c0.6-0.9,1.2-1.6,1.8-2c0.5-1,1-2.5,1.3-3.8h-2.3c0.5-1.1,1.1-2.6,1.5-4h-2V942h3.7c-0.4,1.3-1,2.8-1.5,4h1.2l0.2,0L303.3,946.2
		L303.3,946.2z M300.9,941c-0.2-0.8-0.6-2-0.9-3l1.2-0.3c0.3,0.9,0.7,2.1,1,2.9L300.9,941L300.9,941z M305.9,951.4h-1.3v-9.3h5.1
		c-1.1-0.5-2.4-1.1-3.4-1.5l0.9-0.7c0.8,0.2,1.7,0.6,2.5,1c0.9-0.4,1.8-0.9,2.5-1.4h-7.5v-1.1h8.8l0.3-0.1l0.8,0.6
		c-1,0.9-2.3,1.8-3.6,2.5c0.5,0.3,1,0.5,1.4,0.7h2.3v7.9c0,0.7-0.1,1-0.6,1.2s-1.2,0.2-2.4,0.2c0-0.3-0.2-0.8-0.4-1.1
		c0.9,0,1.6,0,1.8,0c0.2,0,0.3-0.1,0.3-0.3v-1.6h-3.1v2.9H309v-2.9h-3L305.9,951.4L305.9,951.4z M305.9,943.1v1.6h3v-1.6H305.9z
		 M308.9,947.3v-1.6h-3v1.6H308.9z M313.3,943.1h-3.1v1.6h3.1V943.1z M313.3,947.3v-1.6h-3.1v1.6H313.3z"/>
	<path d="M329.2,946.1c-0.5,1.6-1.2,2.9-2.1,4c2.2,0.9,4.2,1.9,5.5,2.8l-1,1.2c-1.3-0.9-3.4-2-5.6-2.9c-1.8,1.5-4.3,2.4-7.7,3
		c-0.1-0.4-0.6-1-0.9-1.3c3.1-0.4,5.4-1.1,7.1-2.3c-1.7-0.7-3.4-1.3-5-1.8c0.5-0.7,1.1-1.6,1.7-2.5h-3.9v-1.3h4.6
		c0.6-1.1,1.1-2.2,1.5-3.1l1.5,0.3c-0.4,0.9-0.8,1.9-1.4,2.9h4.4c0.1-0.6,0.2-1.2,0.3-1.8l1.6,0.1c-0.1,0.6-0.2,1.1-0.3,1.6h3.3v1.3
		H329.2L329.2,946.1z M319.2,943.3h-1.3v-3.6h6.7c-0.2-0.6-0.6-1.3-0.9-1.8l1.4-0.4c0.4,0.7,0.9,1.6,1.1,2.2h6.2v3.6H331v-2.4h-11.8
		L319.2,943.3L319.2,943.3z M322.9,946.1c-0.4,0.7-0.8,1.3-1.2,1.9c1.3,0.4,2.7,0.9,4,1.5c0.9-0.9,1.5-2,1.9-3.4L322.9,946.1
		L322.9,946.1z"/>
	<path d="M343.8,938.1c1.7,2.5,4.8,5,7.6,6.1c-0.3,0.3-0.8,0.8-1,1.1c-2.7-1.3-5.5-3.6-7.4-6c-1.9,2.3-4.9,4.8-7.5,6.2
		c-0.2-0.4-0.5-0.8-0.8-1.1c2.3-1.1,5-3.1,6.8-5.1h-3.2v-1.3L343.8,938.1L343.8,938.1z M343.7,952.3h7v1.2h-15.2v-1.2h6.8v-3h-5
		v-1.2h5v-2.7h-4.3v-1.2h10v1.2h-4.4v2.7h5.1v1.2h-5.1L343.7,952.3L343.7,952.3z"/>
	<path d="M353.1,938.6h6.3v1.2h-2.8c-0.3,1.5-0.7,2.9-1.1,4.3h3.6v7.7h-3.6v1.4h-1.1v-6.5c-0.3,0.5-0.6,1-1,1.5
		c-0.1-0.3-0.4-1.1-0.6-1.4c1.3-1.7,2.1-4.2,2.6-7h-2.2L353.1,938.6L353.1,938.6z M357.9,945.2h-2.4v5.3h2.4V945.2z M369.3,946.3h-2
		v7.7H366v-7.7h-2.9c0,2.7-0.5,5.7-2.6,7.8c-0.2-0.2-0.7-0.6-1-0.8c1.8-1.9,2.2-4.6,2.3-7.1h-2V945h2v-5.2h-1.5v-1.3h8.6v1.3h-1.7
		v5.2h2V946.3z M366,945v-5.2h-2.9v5.2H366z"/>
	<path d="M385.5,952.3c0.5,0,0.6-0.3,0.7-2.7c0.3,0.2,0.9,0.5,1.3,0.6c-0.1,2.7-0.5,3.4-1.8,3.4h-2.1c-1.4,0-1.8-0.4-1.8-1.9v-3.5
		h-3.1c-0.3,2.1-1.8,4.5-6.7,5.9c-0.2-0.4-0.6-0.8-0.9-1.1c4.4-1.2,5.8-3.1,6.2-4.7h-5V947h5.1v-2.2h1.4v2.2h4.4v4.8
		c0,0.5,0.1,0.6,0.6,0.6L385.5,952.3L385.5,952.3z M372.9,942.6h-1.3v-3.2h7c-0.2-0.5-0.4-1.1-0.6-1.5l1.4-0.2
		c0.2,0.5,0.5,1.2,0.7,1.8h6.7v3.1h-1.4v-1.8h-3.7v3c0,0.5,0.1,0.7,0.5,0.7h2.7c0.4,0,1,0,1.4-0.1c0,0.3,0.1,0.8,0.1,1.1
		c-0.3,0.1-0.9,0.1-1.4,0.1h-2.9c-1.4,0-1.8-0.5-1.8-1.8v-3h-2.7c-0.4,2.7-1.5,4.2-5.3,4.9c-0.1-0.3-0.5-0.8-0.7-1.1
		c3.4-0.6,4.3-1.7,4.6-3.8h-3.5L372.9,942.6L372.9,942.6z"/>
	<path d="M394.7,938.8c-0.5,1.5-1.2,3.2-1.8,4.7c1.3,1.5,1.6,2.8,1.6,3.9c0,1-0.2,1.8-0.7,2.1c-0.2,0.2-0.6,0.3-0.9,0.3
		c-0.4,0-0.8,0-1.2,0c0-0.3-0.1-0.8-0.3-1.2c0.4,0,0.8,0,1,0c0.2,0,0.4,0,0.6-0.2c0.3-0.2,0.4-0.7,0.4-1.3c0-1-0.3-2.2-1.6-3.6
		c0.5-1.3,1-2.8,1.4-4h-2.4V954h-1.2v-15.7h4.1l0.2,0L394.7,938.8L394.7,938.8z M403.8,952.6c0.4,0,0.5-0.3,0.5-2.3
		c0.3,0.2,0.8,0.4,1.1,0.5c-0.1,2.3-0.5,2.9-1.5,2.9h-1.6c-1.3,0-1.5-0.4-1.5-1.7v-4.7h-1.9c-0.3,3.3-1.2,5.4-4.6,6.6
		c-0.1-0.3-0.5-0.8-0.8-1.1c3.1-1,3.8-2.7,4-5.5h-2.5v-1.2h10.1v1.2h-3.2v4.7c0,0.5,0.1,0.5,0.5,0.5L403.8,952.6L403.8,952.6z
		 M396.3,943H395v-3.1h4.6c-0.2-0.6-0.6-1.4-1-2l1.2-0.4c0.5,0.7,1,1.6,1.2,2.2l-0.4,0.1h4.5v3.1h-1.3v-2h-7.6L396.3,943L396.3,943z
		 M396.5,944.2V943h7.2v1.2H396.5z"/>
</g>
<path class="st9" d="M207.6,889.8h22c2.8,0,5,2.2,5,5v102c0,2.8-2.2,5-5,5h-22c-2.8,0-5-2.2-5-5v-102
	C202.6,892,204.9,889.8,207.6,889.8z"/>
<g>
	<path class="st0" d="M216.5,912.2c-0.6,0.9-1.2,1.8-2,2.7v9.5h-1.4v-8c-0.7,0.7-1.4,1.3-2.1,1.9c-0.2-0.3-0.7-0.8-1-1.1
		c1.9-1.3,3.8-3.4,5.1-5.4L216.5,912.2L216.5,912.2z M215.8,908.4c-1.2,1.6-3,3.4-4.7,4.5c-0.2-0.3-0.6-0.8-0.8-1.1
		c1.5-1,3.3-2.6,4.2-3.9L215.8,908.4z M226.8,915.2h-2.7v7.4c0,0.8-0.2,1.2-0.8,1.4c-0.6,0.2-1.6,0.2-3.3,0.2
		c-0.1-0.3-0.3-0.9-0.5-1.2c1.3,0,2.5,0,2.8,0c0.3,0,0.4-0.1,0.4-0.4v-7.4h-6v-1.3h10L226.8,915.2L226.8,915.2z M226.4,910.2h-8.8
		V909h8.8V910.2z"/>
	<path class="st0" d="M225.7,932.3c-0.5,3-1.2,5.4-2.4,7.4c1,1.5,2.2,2.7,3.8,3.4c-0.3,0.3-0.7,0.8-0.9,1.1
		c-1.5-0.8-2.7-1.9-3.6-3.3c-1,1.3-2.4,2.5-4.1,3.3c-0.1-0.3-0.5-0.9-0.8-1.2c1.8-0.8,3.1-2,4.1-3.4c-0.8-1.5-1.4-3.2-1.9-5.1
		c-0.4,0.7-0.8,1.4-1.2,2c-0.2-0.2-0.8-0.7-1.1-0.9l0.1-0.1h-2v4.6l3.1-0.7l0.1,1.2c-2.9,0.7-6.1,1.5-8.4,2l-0.2-1.3l1.1-0.2v-8h1.2
		v7.7l1.8-0.4v-10h-3.8V929h8.2v1.3h-3.1v3.9h2.4v0.6c1.2-1.9,2-4.4,2.5-7.1l1.3,0.2c-0.2,1.1-0.5,2.1-0.8,3.1h5.6v1.3L225.7,932.3
		L225.7,932.3z M220.8,932.6c0.4,2.1,1,4.1,1.8,5.7c0.9-1.7,1.4-3.7,1.8-6h-3.5L220.8,932.6L220.8,932.6z"/>
	<path class="st0" d="M213.9,955.4c-0.7-0.6-2.2-1.4-3.3-1.9l0.7-1c1.1,0.5,2.6,1.2,3.4,1.8L213.9,955.4L213.9,955.4z M211.1,962.8
		c0.9-1.4,2.4-3.7,3.4-5.8l1,0.9c-0.9,1.9-2.2,4.1-3.3,5.8L211.1,962.8L211.1,962.8z M212.2,947.7c1.2,0.5,2.7,1.3,3.4,1.9l-0.8,1.1
		c-0.7-0.6-2.2-1.5-3.4-2L212.2,947.7z M225.4,963.9c-0.2-0.5-0.5-1.1-0.8-1.8c-6.7,0.8-7.4,1-7.9,1.2c-0.1-0.3-0.3-1-0.4-1.3
		c0.3-0.1,0.7-0.5,1.1-1.2c0.4-0.5,1.6-2.5,2.5-4.5h-4v-1.3h4.6v-3.2h-3.8v-1.3h3.8v-3.1h1.3v3.1h4v1.3h-4v3.2h4.7v1.3h-5.1
		c-0.9,1.9-2.1,3.8-3.2,5.3l5.7-0.6c-0.5-0.8-1-1.6-1.6-2.3l1.1-0.5c1.3,1.6,2.6,3.7,3.1,5.1L225.4,963.9L225.4,963.9z"/>
	<path class="st0" d="M219.4,967.4c0,0.7,0,1.5-0.1,2.6c0.3,2.1,1.4,9.7,7.7,12.5c-0.4,0.3-0.8,0.8-1,1.1c-4.5-2.1-6.4-6.5-7.3-9.9
		c-0.8,3.6-2.7,7.6-7.1,10c-0.2-0.4-0.7-0.8-1.1-1c7.5-3.8,7.4-12.5,7.4-15.3L219.4,967.4L219.4,967.4z"/>
</g>
<path class="st9" d="M207.7,1034.5h22c2.8,0,5,2.2,5,5v102c0,2.8-2.2,5-5,5h-22c-2.8,0-5-2.2-5-5v-102
	C202.7,1036.8,204.9,1034.5,207.7,1034.5z"/>
<g>
	<path class="st0" d="M213.8,1065.3c-0.6,1.5-1.5,3-2.5,4c-0.2-0.2-0.7-0.7-1-0.9c0.9-0.8,1.8-2.1,2.2-3.4L213.8,1065.3
		L213.8,1065.3z M217.6,1064.5h-6.3v-11.2h6.3V1064.5z M216.3,1054.4h-3.8v2.3h3.8V1054.4z M216.3,1057.8h-3.8v2.3h3.8V1057.8z
		 M216.3,1061.1h-3.8v2.3h3.8V1061.1z M216.1,1064.9c0.8,0.9,1.6,2.1,2,2.9l-1.1,0.7c-0.4-0.8-1.2-2.1-1.9-3L216.1,1064.9
		L216.1,1064.9z M227,1058.2h-2.4v9.2c0,0.8-0.2,1.2-0.7,1.4c-0.5,0.2-1.4,0.2-2.7,0.2c-0.1-0.3-0.3-0.9-0.5-1.3c1,0,1.9,0,2.2,0
		c0.3,0,0.4-0.1,0.4-0.4v-7.5c-1.2,2.6-2.9,5-4.7,6.4c-0.2-0.3-0.6-0.8-0.9-1c2-1.5,4-4.3,5.1-7.2h-4.6v-1.3h5.1v-4.2h1.3v4.2h2.4
		L227,1058.2L227,1058.2z"/>
	<path class="st0" d="M225.9,1073.3v15.5h-1.3v-0.8h-11.9v0.9h-1.2v-15.6H225.9z M224.7,1086.9v-12.6h-11.9v12.6H224.7z
		 M224.1,1083.9h-2.6v1.7c0,0.5-0.1,0.7-0.5,0.8c-0.4,0.1-1.1,0.1-2.1,0.1c-0.1-0.2-0.2-0.5-0.3-0.8c0.7,0,1.4,0,1.6,0
		c0.2,0,0.3-0.1,0.3-0.2v-1.6h-7v-0.8h7v-0.7h1.1v0.7h2.6V1083.9z M218.1,1076.3h-4.5v-0.8h4.5v-0.8h1.1v0.8h4.6v0.8h-4.6v0.8h4v3.6
		h-1.4c0.7,0.5,1.6,1.2,1.9,1.8l-0.8,0.6c-0.2-0.2-0.4-0.5-0.7-0.8c-3.1,0.1-6.3,0.2-8.6,0.2l-0.1-0.8c1.2,0,2.8,0,4.5,0v-0.9h-3.8
		v-3.6h3.8L218.1,1076.3L218.1,1076.3z M216.1,1084c0.6,0.4,1.3,1.2,1.6,1.6l-0.9,0.5c-0.3-0.5-1-1.2-1.6-1.7L216.1,1084L216.1,1084
		z M215.3,1078.5h2.8v-0.8h-2.8V1078.5z M218.1,1080v-0.8h-2.8v0.8H218.1z M219.2,1077.7v0.8h2.9v-0.8H219.2z M222.1,1079.2h-2.9
		v0.8h2.9V1079.2z M221.4,1081.5c-0.1-0.1-0.3-0.2-0.4-0.3l0.7-0.5h-2.5v0.9L221.4,1081.5L221.4,1081.5z"/>
	<path class="st0" d="M213.8,1100.2c-0.7-0.6-2.2-1.4-3.3-1.9l0.7-1c1.1,0.4,2.6,1.2,3.4,1.8L213.8,1100.2L213.8,1100.2z
		 M211.1,1107.5c0.9-1.4,2.4-3.7,3.4-5.8l1,0.9c-0.9,1.9-2.2,4.1-3.3,5.8L211.1,1107.5L211.1,1107.5z M212.2,1092.4
		c1.2,0.5,2.7,1.3,3.4,1.9l-0.8,1.1c-0.7-0.6-2.2-1.5-3.4-2L212.2,1092.4z M225.4,1108.7c-0.2-0.5-0.5-1.1-0.8-1.8
		c-6.7,0.8-7.4,0.9-7.9,1.2c-0.1-0.3-0.3-1-0.4-1.3c0.3-0.1,0.7-0.5,1.1-1.2c0.4-0.5,1.6-2.4,2.5-4.5h-4v-1.3h4.6v-3.2h-3.8v-1.3
		h3.8v-3.1h1.3v3.1h4v1.3h-4v3.2h4.7v1.3h-5.1c-0.9,1.9-2.1,3.8-3.2,5.3l5.7-0.6c-0.5-0.8-1-1.6-1.6-2.3l1.1-0.5
		c1.3,1.6,2.6,3.7,3.1,5.1L225.4,1108.7L225.4,1108.7z"/>
	<path class="st0" d="M219.4,1112.1c0,0.7,0,1.6-0.1,2.6c0.3,2.1,1.4,9.7,7.7,12.5c-0.4,0.3-0.8,0.8-1,1.1c-4.5-2.1-6.4-6.6-7.3-9.9
		c-0.8,3.6-2.7,7.6-7.1,10c-0.2-0.4-0.7-0.8-1.1-1c7.5-3.8,7.4-12.5,7.4-15.3L219.4,1112.1L219.4,1112.1z"/>
</g>
</svg>
