<svg width="30" height="36" viewBox="0 0 30 36" fill="none" xmlns="http://www.w3.org/2000/svg">
<path d="M15 6.75C17.0312 6.75 18.9258 7.26758 20.6836 8.30273C22.3828 9.2793 23.7305 10.6172 24.7266 12.3164C25.7422 14.0742 26.25 15.9688 26.25 18C26.25 20.0312 25.7422 21.9258 24.7266 23.6836C23.7305 25.3828 22.3828 26.7305 20.6836 27.7266C18.9258 28.7422 17.0312 29.25 15 29.25C12.9688 29.25 11.0742 28.7422 9.31641 27.7266C7.61719 26.7305 6.2793 25.3828 5.30273 23.6836C4.26758 21.9258 3.75 20.0312 3.75 18C3.75 15.9688 4.26758 14.0742 5.30273 12.3164C6.2793 10.6172 7.61719 9.2793 9.31641 8.30273C11.0742 7.26758 12.9688 6.75 15 6.75ZM15.3809 8.6543L15.6738 8.91797L14.502 10.4121L12.3926 10.5293L13.1543 12.4043L12.041 13.0781L12.1582 14.3672L11.25 15.6562L11.5137 16.9453L10.8984 17.4434L9.75586 16.623L9.05273 17.3262L9.25781 18.0879L8.58398 17.7656L7.85156 16.6523L7.11914 16.5645L7.5 17.5605L7.44141 18.2637L6.15234 18.8789L7.29492 19.5234L6.5332 20.8125L7.85156 24.0645C8.73047 25.0996 9.77539 25.9004 10.9863 26.4668C12.2559 27.0723 13.5938 27.375 15 27.375C16.2109 27.375 17.373 27.1504 18.4863 26.7012C19.5605 26.2715 20.5273 25.6562 21.3867 24.8555L21.5039 24.416L22.9102 22.1895L23.1738 21.457L22.793 20.9004L22.6172 19.377L23.1152 19.2012L23.3496 18.6152L24.2578 18.2344L24.3457 18.4102L24.375 18C24.375 17.3555 24.3262 16.7695 24.2285 16.2422L23.1445 15.9492L22.6172 16.5938L23.1738 18.1465L21.7383 17.2383L20.127 15.041L19.3945 11.6426L17.4023 11.3789L17.8711 10.4414L17.5195 9.70898L17.959 9.09375C17.1973 8.83984 16.3379 8.69336 15.3809 8.6543ZM14.0625 17.6191L15.1465 19.0547L15.8789 17.8828L16.875 19.8164L17.373 21.1055L16.582 22.9805L15.8203 23.1855L14.5605 21.8379L13.8281 21.6328L12.3926 22.3945L11.748 21.8379L11.5723 19.4941L14.0625 17.6191ZM18.75 21.5742L19.1602 23.1562L18.5742 23.8301L18.1055 23.3906L18.5156 22.834L18.5742 21.6328L18.75 21.5742ZM17.7246 23.8594L18.252 24.2402L16.8457 25.5879L16.5234 25.2363L17.7246 23.8594Z" fill="black"/>
</svg>
