<svg xmlns="http://www.w3.org/2000/svg" width="148.6" height="59.64" viewBox="0 0 148.6 59.64">
  <defs>
    <style>
      .cls-1 {
        fill: #fff;
      }
    </style>
  </defs>
  <g id="圖層_2" data-name="圖層 2">
    <g id="圖層_1-2" data-name="圖層 1">
      <g>
        <path class="cls-1" d="M95.09,18a3,3,0,0,1-2.7-1.63,19.18,19.18,0,0,0-33.59-.59,3.05,3.05,0,1,1-5.29-3,25.28,25.28,0,0,1,44.28.78A3.07,3.07,0,0,1,95.09,18Z"/>
        <path class="cls-1" d="M101.12,59.64a3,3,0,0,1-3.05-3V25.27A25.24,25.24,0,1,1,108.8,45.94a3.05,3.05,0,1,1,3.52-5,19.16,19.16,0,1,0-8.15-15.68V56.59A3,3,0,0,1,101.12,59.64Z"/>
        <path class="cls-1" d="M75.43,50.53A25.26,25.26,0,0,1,51,31.62a3.05,3.05,0,1,1,5.91-1.53,19.17,19.17,0,0,0,35,5.05,3.05,3.05,0,1,1,5.23,3.15A25.08,25.08,0,0,1,75.43,50.53Z"/>
        <path class="cls-1" d="M36.34,27.13A3.05,3.05,0,0,0,32,31.44l7.08,7.1A19.15,19.15,0,1,1,34.37,8.4a2.19,2.19,0,0,0,.38.17c.09,0,8.18,3.41,15.16,20.46a4.43,4.43,0,0,1,2.91-2.45,4.35,4.35,0,0,1,2.76.19C48.07,8.39,38.89,3.7,37.12,3a25.27,25.27,0,1,0,8.56,37.2,3,3,0,0,0-.3-3.95Z"/>
      </g>
    </g>
  </g>
</svg>
