<?xml version="1.0" encoding="UTF-8"?>
<svg id="_層_1" data-name="圖層 1" xmlns="http://www.w3.org/2000/svg" width="56" height="56" viewBox="0 0 56 56">
  <defs>
    <style>
      .cls-1 {
        fill: #fff;
      }
    </style>
  </defs>
  <path class="cls-1" d="M34.09,18.47h0Zm-11.68,5.13c3.52-2.07,7.24-3.78,11.1-5.09-2.63,.17-5.23,.66-7.75,1.45-1.2,1.13-2.32,2.35-3.35,3.63Zm11.1-5.09h0Zm-18.35,5.01c0-1.55,.44-16.34,13.08-11.21,.15,.06,.3,.13,.45,.21,1.8-.89,3.65-1.67,5.54-2.35-1.19-1.17-2.49-2.23-3.88-3.15,0,0-5.97-4.51-11.1-.4,0,0-6.9,4.47-4.12,16.92l.02-.03Zm17.66,18.56h-.12l-.05,.03-.05,.03-.06,.03-.06,.03-.08,.04-.07,.03-.08,.04-.08,.04-.09,.04-.09,.04-.1,.05-.09,.04-.11,.05-.1,.04-.12,.05-.1,.05-.14,.06-.1,.04-.16,.07-.09,.04-.2,.08h-.07l-.28,.11-.08,.02-.21,.08-.11,.04-.19,.06-.13,.04-.18,.06-.14,.04-.18,.06-.14,.04-.18,.05-.15,.04-.19,.05-.15,.04-.19,.05-.16,.04-.19,.04-.16,.03-.19,.04-.16,.03-.19,.03-.16,.03-.2,.03-.16,.03-.21,.03h-.16l-.22,.02h-2.06l-.26-.02h-.13l-.22-.03h-.14l-.2-.03-.15-.03-.2-.04-.15-.03-.19-.05-.15-.04-.18-.06-.15-.05-.18-.07-.15-.06-.18-.08-.14-.06-.18-.09-.14-.07-.18-.11-.13-.07-.18-.12-.12-.08-.19-.14-.1-.08-.22-.18-.07-.06c-.09-.08-.18-.17-.28-.26-.01-.01-.02-.02-.03-.03-.08-.08-.16-.16-.23-.25l-.09-.1-.17-.21s-.06-.08-.09-.12l-.15-.2-.1-.15-.14-.2-.1-.16-.13-.21c-.03-.06-.06-.12-.09-.17l-.12-.23-.09-.18c-.03-.08-.07-.16-.11-.24s-.05-.13-.08-.19-.07-.17-.1-.26-.05-.14-.08-.21-.06-.18-.09-.27-.04-.15-.07-.22-.06-.19-.08-.29-.04-.15-.06-.23-.05-.21-.08-.31-.03-.16-.05-.23-.05-.23-.07-.35l-.04-.22c0-.14-.04-.27-.07-.41l-.03-.2c-.03-.21-.06-.42-.08-.63-.03-.24-.03-.49-.03-.74-1.94-.85-3.61-1.7-4.98-2.42-.32,1.29-.55,2.59-.68,3.91,0,0-1.14,7.39,4.9,9.97h.08s.03,.02,.05,.02l.05,.02,.07,.03,.07,.03,.08,.03,.09,.04,.1,.04,.12,.04,.12,.04,.13,.04,.14,.05,.15,.04,.16,.04,.16,.04,.17,.04,.18,.04,.18,.04,.2,.04,.2,.04,.22,.03,.21,.03,.24,.03h2.42l.3-.03,.33-.03,.31-.04,.34-.06,.32-.05,.35-.08,.34-.07,.36-.09,.35-.1,.38-.12,.36-.12,.39-.14,.37-.14c.14-.05,.27-.11,.41-.16l.38-.16c.14-.06,.28-.13,.42-.19l.38-.18,.44-.23,.39-.21c.15-.08,.31-.17,.46-.27s.26-.15,.39-.23,.32-.21,.48-.31l.38-.25c.17-.11,.34-.24,.52-.36l.36-.26,.58-.45,.31-.25c.3-.24,.59-.48,.89-.74h.02l-.07,.04v.07ZM13.66,30.86c1.19,.39,2.36,.75,3.51,1.08,0-.02,0-.04,0-.06,.03-.12,.06-.24,.09-.36,.08-.27,.17-.56,.27-.86s.23-.66,.36-1.01l.22-.55c.19-.44,.4-.89,.63-1.36,.16-.31,.32-.63,.48-.97l.28-.48c.3-.48,.62-1.01,.97-1.53h0l.36-.48c.25-.35,.52-.71,.8-1.07s.58-.72,.9-1.09c.43-.5,.9-1.01,1.4-1.53l.14-.15c2.22-2.24,4.66-4.25,7.27-6.01h0c.86-.58,1.77-1.17,2.73-1.77,.51-.31,1.03-.63,1.56-.94,1.06-.62,2.18-1.23,3.39-1.84,.1,.25,.21,.49,.35,.71,1.18,1.88,3.66,2.44,5.54,1.26,1.88-1.18,2.44-3.66,1.26-5.54-1.18-1.88-3.66-2.44-5.54-1.26-1.04,.65-1.72,1.74-1.85,2.96-.02,.26-.02,.51,0,.77,.02,.27,.07,.53,.14,.78h0c-.63,.16-1.45,.39-2.45,.7-.31,.1-.63,.2-.97,.31l-.68,.23-.36,.13c-.89,.32-1.86,.69-2.87,1.12l-.89,.39c-.32,.15-.64,.29-.97,.45l-.22,.11-.42,.2c-.43,.21-.86,.44-1.29,.67-.44,.23-.87,.48-1.31,.73-.22,.13-.44,.25-.65,.39-.65,.39-1.3,.81-1.98,1.26-.65,.45-1.3,.92-1.94,1.42-.43,.33-.85,.68-1.26,1.04s-.83,.73-1.23,1.11-.79,.78-1.18,1.19c-.19,.2-.38,.41-.57,.62-.38,.42-.74,.86-1.09,1.31-.18,.22-.36,.45-.52,.68-.34,.48-.67,.94-.97,1.45-.16,.24-.31,.48-.48,.75-.31,.48-.59,1.02-.86,1.56-.23,.46-.45,.92-.65,1.39-.07,.16-.14,.33-.21,.48-.16,.39-.31,.78-.45,1.19,.39,.14,.78,.27,1.17,.4l.05,.02Zm40.23-2.02c-.02-.32-.07-.63-.14-.94-.12-.53-.3-1.04-.53-1.53-.16-.41-.37-.8-.61-1.17-.19-.31-.4-.61-.63-.9-.4-.51-.83-1-1.29-1.45-.13-.13-.27-.26-.41-.39-.65-.58-1.33-1.11-2.05-1.59-1.33-.86-2.74-1.59-4.22-2.15-.19-.08-.38-.15-.58-.22-1.35-.49-2.73-.89-4.14-1.18h0c-.1-.2-.2-.4-.3-.58l-.17-.33h0l-.06-.12-.12-.21c-.1-.19-.21-.38-.32-.58s-.19-.32-.25-.42l-.1-.16h0c-.55-.9-1.16-1.76-1.81-2.59-1.53,.89-2.91,1.77-4.21,2.65,2.85,2.8,6.54,8.24,8,18.36,.83-.24,1.64-.55,2.42-.92,.05-4.08-.57-8.15-1.85-12.03h0c-.13-.47-.29-.93-.48-1.39-.15-.38-.32-.76-.48-1.12h0c.48,.22,1.01,.48,1.56,.78s1,.56,1.52,.88l.29,.18c.14,.09,.28,.18,.41,.28l.18,.13c.26,.18,.48,.36,.75,.56l.12,.1c.27,.21,.53,.44,.78,.67l.28,.27c2.54,2.5,3.73,5.9-.39,9.94h-.03l-.16,.13h0l-.08,.07-.03,.02-.1,.08h-.03l-.33,.23-.04,.03-.16,.1-.06,.04-.16,.1-.06,.03c-.16,.09-.32,.19-.51,.29l-.06,.03-.23,.12-.08,.04-.24,.12-.08,.04-.16,.07h0c-.17,.08-.35,.16-.55,.24l-.09,.03-.3,.12-.12,.04-.31,.11-.11,.04-.43,.14h0l-.38,.12h-.09l-.12,.03-.38,.1-.16,.04-.38,.09-.16,.03-.48,.11h-.05l-.58,.11-.16,.02c-.15,.03-.3,.05-.45,.07l-.21,.03-.45,.06h-.2l-.57,.06h-.1c-.22,.02-.46,.04-.69,.06h-.2l-.52,.03h-3.03l-.93-.04h-.09l-1.04-.07-.27-.02c-.33,0-.67-.06-1.02-.1h-.09c-.37-.04-.75-.08-1.13-.14l-.3-.04c-.36-.05-.74-.11-1.11-.16h-.09c-.4-.06-.81-.14-1.23-.21l-.32-.06c-.4-.07-.8-.15-1.22-.24h-.08l-1.33-.3-.34-.08c-.44-.1-.89-.21-1.34-.32h-.07c-.43-.11-.87-.23-1.32-.35l-.12-.03-.37-.11-.29-.08h0c-.39-.11-.78-.22-1.18-.34h-.04c-.48-.15-1.03-.31-1.55-.48l-.4-.13-1.59-.53h-.05l-.74-.26-.98-.17-.42-.16-.09-.03h0c.04-.17,.08-.34,.1-.51v-.29c.08-2.22-1.65-4.09-3.87-4.17-1.24-.05-2.44,.48-3.24,1.44l-.15,.19c-1.33,1.77-.97,4.29,.8,5.62,1.77,1.33,4.29,.97,5.62-.8,.1-.13,.19-.26,.27-.41,.14-.23,.25-.48,.33-.73h0l.21,.13,.1,.06c.15,.09,.31,.18,.48,.28h0l.48,.28h.02l.12,.06,.57,.31h0l.62,.33,.14,.07,.68,.36h.03l.7,.35,.16,.08,.77,.38h.03l.78,.37,.18,.08,.7,.31,.16,.07h.04l.58,.25,.26,.11,.2,.09,.92,.38h.06l.89,.35,.22,.08,.97,.36,.08,.02c.31,.11,.62,.22,.94,.32l.23,.08,1.03,.33,.1,.03,.97,.29,.25,.07c.35,.1,.71,.2,1.07,.3l.12,.03c.33,.09,.66,.17,.97,.25l.26,.06,1.1,.24,.14,.02c.33,.07,.67,.14,1.01,.19l.27,.05c.38,.06,.76,.13,1.13,.18h.15c.34,.05,.68,.09,1.03,.13l.28,.03c.38,.04,.77,.08,1.15,.11h.16l1.04,.06h.28c.39,0,.78,.02,1.17,.02h1.8l.39-.03,.42-.03,.48-.04,.41-.04,.48-.06,.41-.05h.11l.37-.06,.4-.07,.48-.09,.28-.05,.11-.02,.48-.11,.38-.09,.48-.13c.13-.03,.25-.06,.37-.1s.33-.1,.48-.15l.36-.11c.17-.05,.33-.12,.48-.17l.35-.12,.48-.19,.35-.14,.48-.22c.12-.05,.23-.09,.34-.15l.48-.24,.33-.16c.18-.09,.36-.18,.54-.28l.29-.16c.23-.13,.46-.26,.69-.4l.13-.07c1.16-.66,2.17-1.55,2.97-2.63,.22-.31,.42-.63,.59-.97,.05-.12,.11-.24,.16-.36,.21-.51,.35-1.04,.41-1.58,.08-.27,.15-.54,.19-.81Zm-12.57,14.69h-.23c.26-1.11,.56-2.62,.81-4.4-.46,.09-.92,.17-1.39,.24,.06,1.32,.09,2.71,.08,4.17-2.21,.2-3.84,2.16-3.64,4.37,.2,2.21,2.16,3.84,4.37,3.64s3.84-2.16,3.64-4.37c-.18-1.93-1.71-3.47-3.64-3.64h0Z"/>
  <path d="M42.79,4.44c1.34,0,2.64,.67,3.4,1.88,1.18,1.88,.61,4.36-1.26,5.54-.66,.42-1.4,.62-2.13,.62-1.34,0-2.64-.67-3.4-1.88-.14-.23-.26-.46-.35-.71-1.21,.61-2.33,1.23-3.39,1.84-.54,.31-1.06,.63-1.56,.94-.96,.59-1.87,1.18-2.73,1.77-2.61,1.76-5.05,3.78-7.27,6.01l-.14,.15c-.5,.52-.96,1.03-1.4,1.53-.31,.37-.61,.73-.9,1.09s-.55,.71-.8,1.07l-.36,.48c-.35,.52-.67,1.05-.97,1.53l-.28,.48c-.16,.34-.33,.66-.48,.97-.24,.47-.45,.92-.63,1.36l-.22,.55c-.14,.35-.27,.72-.36,1.01-.1,.3-.19,.59-.27,.86-.03,.13-.06,.24-.09,.36,0,.02,0,.04,0,.06-1.15-.33-2.32-.69-3.51-1.08l-.05-.02c-.39-.13-.78-.26-1.17-.4,.14-.41,.3-.8,.45-1.19,.07-.15,.14-.32,.21-.48,.2-.47,.42-.94,.65-1.39,.27-.53,.56-1.07,.86-1.56,.17-.26,.32-.5,.48-.75,.3-.52,.63-.97,.97-1.45,.17-.23,.34-.46,.52-.68,.35-.45,.72-.89,1.09-1.31,.19-.21,.38-.42,.57-.62,.39-.41,.78-.8,1.18-1.19,.4-.38,.81-.75,1.23-1.11,.42-.36,.84-.7,1.26-1.04,.63-.5,1.28-.97,1.94-1.42,.67-.45,1.33-.87,1.98-1.26,.22-.14,.44-.26,.65-.39,.44-.24,.88-.5,1.31-.73,.44-.23,.87-.46,1.29-.67l.42-.2,.22-.11c.32-.16,.64-.31,.97-.45l.89-.39c1.01-.43,1.98-.8,2.87-1.12l.36-.13,.68-.23c.34-.11,.66-.21,.97-.31,.99-.31,1.82-.54,2.45-.7-.07-.26-.12-.52-.14-.78-.02-.26-.02-.51,0-.77,.14-1.22,.82-2.3,1.85-2.96,.66-.42,1.4-.62,2.13-.62m-18.68,.45c3.43,0,6.24,2.13,6.24,2.13,1.39,.93,2.68,1.98,3.88,3.15-1.89,.68-3.74,1.46-5.54,2.35-.15-.08-.3-.15-.45-.21-1.86-.75-3.45-1.08-4.82-1.08-7.95,0-8.26,10.96-8.26,12.28l-.02,.03c-2.79-12.45,4.12-16.92,4.12-16.92,1.61-1.29,3.3-1.73,4.86-1.73m12.06,7.44c.66,.82,1.26,1.69,1.81,2.59l.1,.16c.06,.1,.14,.23,.25,.42s.22,.38,.32,.58l.12,.21,.06,.12,.17,.33c.1,.18,.2,.38,.3,.58,1.41,.3,2.79,.69,4.14,1.18,.2,.07,.39,.14,.58,.22,1.48,.57,2.89,1.29,4.22,2.15,.72,.48,1.41,1.01,2.05,1.59,.15,.13,.28,.26,.41,.39,.47,.45,.9,.94,1.29,1.45,.23,.29,.44,.59,.63,.9,.24,.37,.45,.76,.61,1.17,.24,.49,.41,1,.53,1.53,.07,.31,.12,.62,.14,.94-.04,.28-.1,.55-.19,.81-.06,.55-.2,1.08-.41,1.58-.05,.12-.11,.24-.16,.36-.17,.34-.37,.66-.59,.97-.8,1.07-1.81,1.97-2.97,2.63l-.13,.07c-.23,.14-.46,.28-.69,.4l-.29,.16c-.18,.1-.36,.19-.54,.28l-.33,.16-.48,.24c-.11,.05-.23,.1-.34,.15l-.48,.22-.35,.14-.48,.19-.35,.12c-.15,.06-.31,.12-.48,.17l-.36,.11c-.15,.05-.36,.11-.48,.15-.12,.04-.25,.07-.37,.1l-.48,.13-.38,.09-.48,.11-.11,.02-.28,.05-.48,.09-.4,.07-.37,.06h-.11l-.41,.05-.48,.06-.41,.04-.48,.04-.42,.03-.39,.03h-1.8c-.39,0-.78-.02-1.17-.02h-.28l-1.04-.06h-.16c-.39-.03-.77-.07-1.15-.11l-.28-.03c-.34-.04-.68-.08-1.03-.13h-.15c-.38-.05-.76-.12-1.13-.18l-.27-.05c-.34-.06-.68-.13-1.01-.19l-.14-.02-1.1-.24-.26-.06c-.31-.08-.64-.16-.97-.25l-.12-.03c-.36-.09-.72-.19-1.07-.3l-.25-.07-.97-.29-.1-.03-1.03-.33-.23-.08c-.31-.11-.63-.21-.94-.32l-.08-.02-.97-.36-.22-.08-.89-.35h-.06l-.92-.38-.2-.09-.26-.11-.58-.25h-.04l-.16-.07-.7-.31-.18-.08-.78-.37h-.03l-.77-.38-.16-.08-.7-.35h-.03l-.68-.36-.14-.07-.62-.33-.57-.31-.12-.06h-.02l-.48-.28c-.17-.1-.33-.18-.48-.28l-.1-.06-.21-.13c-.09,.25-.2,.5-.33,.73-.08,.14-.17,.28-.27,.41-.79,1.05-1.99,1.6-3.21,1.6-.84,0-1.69-.26-2.41-.81-1.77-1.33-2.13-3.85-.8-5.62l.15-.19c.77-.92,1.9-1.44,3.08-1.44,.05,0,.1,0,.15,0,2.22,.08,3.95,1.95,3.87,4.17v.29c-.02,.17-.05,.34-.1,.51l.09,.03,.42,.16,.98,.17,.74,.26h.05l1.59,.53,.4,.13c.52,.17,1.07,.33,1.55,.48h.04c.4,.12,.79,.23,1.18,.34l.29,.08,.37,.11,.12,.03c.45,.13,.89,.24,1.32,.35h.07c.45,.12,.9,.22,1.34,.32l.34,.08,1.33,.3h.08c.42,.09,.82,.16,1.22,.24l.32,.06c.42,.07,.83,.15,1.23,.21h.09c.38,.06,.75,.12,1.11,.16l.3,.04c.38,.05,.76,.1,1.13,.14h.09c.35,.04,.69,.1,1.02,.1l.27,.02,1.04,.07h.09l.93,.04h3.03l.52-.03h.2c.24-.01,.47-.03,.69-.06h.1l.57-.06h.2l.45-.06,.21-.03c.15-.02,.3-.04,.45-.07l.16-.02,.58-.11h.05l.48-.11,.16-.03,.38-.09,.16-.04,.38-.1,.12-.03h.09l.38-.12,.43-.14,.11-.04,.31-.11,.12-.04,.3-.12,.09-.03c.19-.08,.37-.16,.55-.24l.16-.07,.08-.04,.24-.12,.08-.04,.23-.12,.06-.03c.18-.1,.35-.19,.51-.29l.06-.03,.16-.1,.06-.04,.16-.1,.04-.03,.33-.23h.03l.1-.08,.03-.02,.08-.07,.16-.13h.03c4.12-4.04,2.93-7.43,.39-9.94l-.28-.27c-.25-.23-.51-.46-.78-.67l-.12-.1c-.27-.19-.49-.38-.75-.56l-.18-.13c-.14-.1-.27-.19-.41-.28l-.29-.18c-.51-.32-.96-.59-1.52-.88-.56-.3-1.08-.56-1.56-.78,.16,.36,.33,.74,.48,1.12,.19,.45,.35,.91,.48,1.39,1.28,3.88,1.9,7.94,1.85,12.03-.78,.37-1.59,.68-2.42,.92-1.47-10.12-5.15-15.56-8-18.36,1.3-.88,2.68-1.76,4.21-2.65m-1.9,6.14h0m-.63,.04h0m-.13,0h0m0,0c-3.86,1.31-7.58,3.02-11.1,5.09,1.03-1.29,2.15-2.5,3.35-3.63,2.52-.79,5.12-1.28,7.75-1.45m-21.77,14.09c1.37,.73,3.04,1.57,4.98,2.42,0,.25,0,.49,.03,.74,.02,.22,.05,.43,.08,.63l.03,.2c.02,.14,.07,.27,.07,.41l.04,.22c.02,.12,.05,.27,.07,.35s.03,.13,.05,.23c.02,.11,.06,.24,.08,.31,.02,.08,.04,.13,.06,.23,.02,.1,.06,.22,.08,.29,.02,.07,.04,.13,.07,.22,.03,.09,.07,.2,.09,.27,.02,.07,.05,.12,.08,.21,.03,.09,.07,.19,.1,.26,.03,.06,.05,.11,.08,.19,.03,.08,.07,.16,.11,.24l.09,.18,.12,.23c.03,.06,.06,.12,.09,.17l.13,.21,.1,.16,.14,.2,.1,.15,.15,.2s.06,.08,.09,.12l.17,.21,.09,.1c.07,.09,.15,.16,.23,.25,.01,.01,.02,.02,.03,.03,.09,.09,.19,.18,.28,.26l.07,.06,.22,.18,.1,.08,.19,.14,.12,.08,.18,.12,.13,.07,.18,.11,.14,.07,.18,.09,.14,.06,.18,.08,.15,.06,.18,.07,.15,.05,.18,.06,.15,.04,.19,.05,.15,.03,.2,.04,.15,.03,.2,.03h.14l.22,.03h.13l.26,.02h2.06l.22-.02h.16l.21-.03,.16-.03,.2-.03,.16-.03,.19-.03,.16-.03,.19-.04,.16-.03,.19-.04,.16-.04,.19-.05,.15-.04,.19-.05,.15-.04,.18-.05,.14-.04,.18-.06,.14-.04,.18-.06,.13-.04,.19-.06,.11-.04,.21-.08,.08-.02,.28-.11h.07l.2-.08,.09-.04,.16-.07,.1-.04,.14-.06,.1-.05,.12-.05,.1-.04,.11-.05,.09-.04,.1-.05,.09-.04,.09-.04,.08-.04,.08-.04,.07-.03,.08-.04,.06-.03,.06-.03,.05-.03,.05-.03h.05c-.26,.22-.51,.43-.77,.63l-.31,.25-.58,.45-.36,.26c-.17,.12-.35,.25-.52,.36l-.38,.25c-.16,.1-.35,.23-.48,.31-.13,.08-.24,.14-.39,.23-.15,.09-.31,.18-.46,.27l-.39,.21-.44,.23-.38,.18c-.14,.07-.28,.14-.42,.19l-.38,.16c-.14,.05-.27,.12-.41,.16l-.37,.14-.39,.14-.36,.12-.38,.12-.35,.1-.36,.09-.34,.07-.35,.08-.32,.05-.34,.06-.31,.04-.33,.03-.3,.03h-2.42l-.24-.03-.21-.03-.22-.03-.2-.04-.2-.04-.18-.04-.18-.04-.17-.04-.16-.04-.16-.04-.15-.04-.14-.05-.13-.04-.12-.04-.12-.04-.1-.04-.09-.04-.08-.03-.07-.03-.07-.03-.05-.02s-.03-.01-.05-.02h-.08c-6.05-2.58-4.9-9.97-4.9-9.97,.13-1.32,.36-2.62,.68-3.91m30.17,6.53c-.25,1.79-.55,3.29-.81,4.4h.23c1.93,.18,3.47,1.71,3.64,3.64,.2,2.21-1.43,4.17-3.64,4.37-.12,.01-.25,.02-.37,.02-2.06,0-3.81-1.57-4-3.66-.2-2.21,1.43-4.17,3.64-4.37,0-1.46-.02-2.85-.08-4.17,.47-.07,.93-.15,1.39-.24m-9.01,2.84l-.06,.03,.04-.03h.02m-.06,.03h0m0,0v.06h-.08l.08-.06M42.79,2.33c-1.15,0-2.28,.32-3.26,.94-1.59,1-2.62,2.64-2.83,4.51,0,.08-.01,.15-.02,.22-.27,.08-.54,.16-.82,.25l-.2,.06c-.08,.03-.17,.05-.25,.08-1.19-1.14-2.49-2.18-3.86-3.1-.48-.35-3.62-2.51-7.45-2.51h0c-2.26,0-4.31,.72-6.11,2.14-1.01,.71-7.83,6.07-4.92,19.08,.02,.08,.04,.15,.06,.22-.05,.07-.09,.14-.14,.21l-.14,.22c-.39,.61-.72,1.25-.97,1.75-.07,.14-.14,.28-.2,.42-.26-.55-.61-1.07-1.04-1.53-1.11-1.2-2.63-1.9-4.26-1.96-.08,0-.15,0-.23,0-1.82,0-3.53,.8-4.7,2.2-.02,.02-.04,.04-.05,.07l-.15,.19c-2.04,2.72-1.5,6.57,1.2,8.59,1.07,.8,2.34,1.23,3.68,1.23,1.07,0,2.11-.28,3.02-.8-.07,.48-.13,.95-.18,1.43-.46,3.14,.23,9.64,6.17,12.17,.1,.04,.19,.07,.3,.1l.05,.02,.08,.03,.08,.03s.04,.02,.07,.03l.1,.04,.13,.05s.05,.02,.07,.03l.12,.04,.13,.04,.12,.04s.05,.02,.08,.03l.15,.04,.19,.05,.2,.05,.2,.05,.21,.05,.24,.05,.23,.05,.21,.04s.05,0,.07,.01l.22,.03,.25,.03,.27,.03c.09,.01,.17,.02,.26,.02h2.42c.07,0,.14,0,.21-.01l.3-.03,.34-.03,.36-.04s.07,0,.1-.01l.34-.06,.31-.05s.07-.01,.11-.02l.35-.08,.33-.07s.05-.01,.08-.02l.36-.09,.39-.11s.04-.01,.06-.02l.38-.12,.39-.13s.04-.01,.06-.02l.39-.14,.41-.15c.08-.03,.2-.08,.32-.13l.11-.05s.05-.02,.07-.03l.38-.16c.14-.06,.32-.14,.49-.23l.38-.18s.05-.02,.07-.04l.44-.23,.4-.22c.19-.11,.38-.22,.56-.33l.13-.08c.09-.05,.18-.1,.28-.16l.28-.18,.21-.14,.41-.27c.13-.08,.26-.18,.39-.27l.17-.12,.38-.27s.05-.04,.07-.06l.58-.45,.32-.25c.22-.18,.43-.35,.64-.53,.14-.09,.27-.19,.39-.31,.57-.51,.82-1.31,.63-2.07-.06-.23-.15-.45-.28-.64h.08c.17,0,.34,0,.51,.01,.22,0,.43,.01,.65,.01h1.8c.05,0,.11,0,.16,0l.39-.03h.21c.01,.36,.02,.74,.02,1.12-2.34,1.03-3.87,3.48-3.63,6.16,.29,3.18,2.91,5.58,6.1,5.58,.18,0,.37,0,.56-.03,1.63-.15,3.11-.92,4.15-2.18,1.05-1.26,1.54-2.85,1.4-4.48-.2-2.22-1.57-4.09-3.49-4.99,.13-.69,.25-1.39,.35-2.09h.03l.09-.03c.13-.03,.25-.07,.37-.11l.12-.04c.12-.04,.26-.08,.38-.12l.33-.1c.21-.07,.41-.14,.59-.21l.32-.11s.07-.02,.1-.04l.48-.19,.33-.13s.07-.03,.1-.04l.48-.22h.03c.12-.06,.24-.11,.36-.17l.52-.26,.31-.15c.21-.1,.41-.21,.62-.32l.28-.15c.27-.15,.53-.3,.79-.46l.09-.05c1.41-.8,2.63-1.88,3.6-3.2,.3-.41,.56-.84,.78-1.28,.01-.02,.02-.05,.03-.07l.03-.07c.06-.13,.12-.26,.17-.39,.25-.6,.43-1.26,.52-1.94,.09-.31,.15-.62,.2-.93,.02-.15,.03-.3,.02-.45-.03-.43-.09-.86-.18-1.27-.15-.66-.37-1.3-.66-1.91-.21-.51-.47-1.01-.78-1.47-.2-.33-.46-.7-.73-1.04-.44-.58-.95-1.14-1.48-1.67-.16-.15-.31-.3-.47-.44-.72-.65-1.49-1.24-2.3-1.78-1.46-.95-3.01-1.75-4.63-2.36-.19-.08-.42-.16-.65-.24-1.09-.4-2.24-.74-3.4-1.03l-.03-.06-.06-.11-.03-.05-.12-.21c-.09-.17-.21-.38-.33-.6-.12-.21-.2-.35-.27-.46l-.09-.15-.04-.07c.91,.52,1.95,.8,3.04,.8,1.15,0,2.28-.32,3.26-.94,1.39-.87,2.35-2.23,2.71-3.82,.36-1.59,.08-3.24-.79-4.62-1.13-1.79-3.07-2.87-5.19-2.87h0Zm-24.71,15.87c.78-2.47,2.32-4.87,5.34-4.87,.31,0,.64,.02,.98,.07-.55,.34-1.12,.7-1.69,1.08-.79,.54-1.46,1.03-2.08,1.52-.45,.35-.9,.72-1.34,1.1-.45,.39-.85,.75-1.22,1.1h0Zm4.33,7.5c.37,0,.73-.1,1.07-.29,3.24-1.91,6.67-3.5,10.22-4.74,1.6,2.73,3.1,6.52,3.99,11.75l-.25,.05-.13,.02s-.07,.01-.1,.02c-.1,.02-.2,.04-.3,.05-.02,0-.05,0-.07,.01l-.18,.03-.28,.04h-.07c-.08,0-.15,0-.23,.01l-.46,.05c-.07,0-.14,0-.21,.01-.17,.02-.35,.03-.53,.05h-.13s-.08,0-.12,0l-.46,.03h-2.93l-.88-.04s-.06,0-.09,0h-.02l-.97-.07-.22-.02c-.06,0-.13,0-.19,0-.11,0-.29-.02-.48-.05l-.31-.04c-.07,0-.14-.01-.21-.01-.31-.03-.63-.07-.95-.12l-.32-.04c-.31-.04-.64-.09-.97-.14h-.09c-.08-.03-.15-.03-.23-.04-.31-.05-.62-.1-.93-.16l-.12-.02-.29-.06c-.41-.07-.79-.15-1.19-.23-.08-.02-.16-.03-.25-.04l-1.14-.25-.31-.07c-.44-.1-.87-.2-1.3-.32-.05-.01-.1-.02-.15-.03,.07-.2,.15-.41,.23-.62l.21-.52c.18-.42,.37-.82,.56-1.19l.16-.31c.11-.21,.21-.42,.32-.63l.24-.41c.25-.41,.55-.89,.87-1.38l.2-.27h0Zm21.99,3.58c-.15-2.23-.49-4.43-1.02-6.6,.13,.11,.25,.21,.36,.32l.26,.25c1.1,1.09,1.67,2.16,1.67,3.18,0,.88-.43,1.84-1.26,2.86h0Zm-24.66,9.86l-.03-.07-.04-.1c-.05-.13-.08-.19-.12-.27v-.04c-.04-.09-.07-.16-.09-.22l-.04-.1-.04-.12-.02-.08-.05-.17s-.03-.09-.04-.13c-.02-.08-.04-.15-.06-.21l-.02-.08-.02-.07,.13,.05,.96,.36s.07,.03,.11,.04h.03c.31,.12,.62,.23,.93,.33l.2,.07,1.09,.35,.14,.04,.97,.29,.31,.08c.34,.1,.72,.2,1.09,.3l.13,.03c.31,.08,.65,.17,.97,.25l.28,.07,1.15,.25s.05,.01,.08,.02l.14,.02c.31,.06,.67,.13,1.03,.2l.25,.04c.43,.07,.82,.14,1.22,.19,.1,.01,.2,.02,.29,.02,.13,.02,.26,.03,.39,.05h-.03l-.05,.04s-.06,.03-.09,.04l-.11,.05-.09,.04s-.08,.03-.12,.05l-.06,.03-.06,.02-.06,.02s-.05,.02-.07,.03l-.16,.07h0c-.1,.02-.2,.05-.29,.09l-.21,.08h-.01s-.07,.03-.11,.04l-.21,.08-.09,.04-.14,.05-.15,.05-.14,.04-.12,.04-.2,.07-.12,.04-.15,.04-.12,.03-.16,.04s-.04,.01-.06,.02l-.12,.03-.16,.04-.14,.04-.15,.03-.13,.03-.22,.05-.09,.02-.17,.03-.17,.03-.18,.03-.14,.03h-.04c-.08,0-.16,0-.23,.02h-2.11c-.06,0-.12-.01-.18-.01h-.08c-.08-.02-.16-.03-.24-.03l-.11-.02-.16-.04-.07-.02-.14-.04-.13-.04-.14-.04-.08-.03-.16-.06-.09-.04-.13-.06-.06-.03-.13-.07-.09-.04-.11-.07-.05-.03-.05-.03-.1-.07-.1-.06-.13-.1-.05-.04-.19-.16-.03-.03s-.09-.09-.16-.15h0l-.02-.02-.04-.04s-.05-.05-.08-.08c-.01-.01-.04-.05-.05-.06l-.05-.06-.14-.17h0l-.04-.06-.11-.15-.07-.1-.11-.17-.07-.12-.08-.13c-.03-.05-.06-.11-.09-.16l-.08-.16-.06-.14h0Zm22.16,2.09h0Z"/>
</svg>