<svg width="507" height="451" viewBox="0 0 507 451" fill="none" xmlns="http://www.w3.org/2000/svg">
<g clip-path="url(#clip0_3460_1055)">
<path d="M125.481 149.929C126.242 149.338 126.833 148.746 127.171 148.493C126.073 149.253 125.566 149.676 125.481 149.929Z" fill="#EAEDF9"/>
<path d="M150.832 122.213C150.832 122.044 150.917 121.96 150.917 121.875C150.832 122.044 150.832 122.129 150.832 122.213Z" fill="#EAEDF9"/>
<path d="M152.69 275.243C152.69 275.834 152.69 276.172 152.69 276.341C152.775 275.665 152.775 275.158 152.69 275.243Z" fill="#EAEDF9"/>
<path d="M100.977 171.561C101.23 171.308 101.399 171.139 101.653 170.885C101.484 171.054 101.23 171.308 100.977 171.561Z" fill="#EAEDF9"/>
<path d="M435.85 224.796C435.681 224.289 435.428 224.627 435.259 225.05C435.259 222.599 435.259 221.416 435.343 219.811C435.428 220.74 435.512 221.67 435.597 222.599C435.512 218.881 435.174 216.008 434.667 213.135C434.583 212.375 434.414 211.699 434.245 210.938C434.076 210.178 433.907 209.417 433.653 208.657C433.484 207.896 433.146 207.051 432.893 206.206C432.555 205.361 432.301 204.516 431.879 203.587C431.456 202.573 431.034 201.897 430.78 201.559C430.527 201.221 430.358 201.052 430.358 201.136C430.273 201.221 430.442 201.981 430.527 202.488C430.189 201.812 429.851 201.052 429.344 200.376C428.921 199.7 428.499 199.024 427.992 198.348L428.33 199.024C428.076 198.855 427.738 198.517 427.4 198.094C426.978 197.672 426.555 197.08 425.964 196.489C424.865 195.306 423.513 194.038 422.246 193.193C422.33 193.024 423.936 194.123 423.851 193.954C422.837 193.024 421.316 191.926 419.795 191.165C418.274 190.405 416.669 189.898 415.57 189.644C415.57 189.475 417.683 189.56 420.64 191.334C420.978 191.588 420.725 191.503 421.063 191.757C422.753 192.686 424.358 193.785 425.795 195.137C423.344 192.855 420.978 191.503 419.457 190.574C417.852 189.644 417.007 189.137 417.176 188.968C415.57 188.461 415.063 188.377 415.148 188.461C415.232 188.546 415.824 188.715 416.331 188.968C416.922 189.222 417.429 189.475 417.26 189.475C417.176 189.475 417.007 189.475 416.584 189.306C416.162 189.137 415.486 188.968 414.556 188.715C412.106 187.785 409.655 187.363 407.289 187.025C404.923 186.771 402.726 186.602 400.614 186.518C396.473 186.349 392.924 186.18 390.389 185.335C388.192 185.25 385.742 185.081 383.122 184.574C381.77 184.321 380.503 183.983 379.066 183.476C378.39 183.222 377.714 182.884 376.954 182.546C376.278 182.124 375.602 181.786 374.841 181.363C374.757 181.532 373.827 180.941 372.982 180.265C372.137 179.589 371.377 178.997 371.461 179.42C373.743 181.786 376.447 183.222 379.151 184.152C381.855 185.081 384.559 185.504 387.178 186.18C390.136 186.433 389.206 185.926 390.558 185.926C393.178 186.095 395.713 186.264 396.051 186.518C392.924 186.518 392.502 186.687 391.826 186.771C391.234 186.856 390.305 187.109 386.418 186.518C386.925 186.771 388.699 187.025 390.812 187.278C392.924 187.447 395.206 187.532 396.642 187.701C395.797 187.87 396.642 188.039 398.501 188.292C398.332 188.292 398.079 188.292 397.825 188.377C390.22 188.039 382.531 187.701 375.94 184.236C373.151 182.8 370.785 180.856 368.757 178.659C368.757 178.659 368.757 178.659 368.673 178.575C366.898 176.631 365.377 174.35 364.11 171.984C364.194 172.153 364.363 172.322 364.448 172.406C364.11 171.815 363.772 171.223 363.434 170.547C363.18 170.04 362.927 169.533 362.673 169.026C363.772 170.716 364.279 170.801 366.307 173.589C364.701 171.054 363.265 167.759 362.251 164.548C361.237 161.337 360.645 158.295 360.223 156.436C360.223 154.915 360.392 154.239 360.814 154.83C360.138 151.957 359.969 149.591 359.969 147.31C359.969 145.028 360.054 142.916 359.885 140.296C359.378 134.719 359.716 145.873 359.124 141.902C359.209 140.381 359.04 137.846 358.871 136.24C359.04 138.437 358.955 143.676 359.124 147.394C358.955 144.352 358.617 144.69 358.364 143.845C358.448 145.535 358.533 147.225 358.617 148.915C358.026 148.662 358.195 142.662 357.857 140.296C358.364 141.817 358.364 140.972 358.871 142.409C358.448 138.015 358.279 131.339 358.11 127.537C358.11 125.255 358.533 129.396 358.702 130.579C358.955 129.565 358.195 126.1 358.448 125.255C358.786 125.931 358.786 128.044 358.955 129.565C358.702 125.171 358.195 120.777 357.181 116.467C357.35 116.383 358.11 119.678 358.364 121.791C357.941 117.819 357.181 114.777 354.984 110.552C354.308 108.355 353.378 106.074 352.702 104.553C352.026 103.032 351.688 102.102 352.195 102.778C351.688 101.849 351.519 101.764 351.435 101.849C351.435 101.933 351.519 102.356 351.435 102.356C350.674 101.004 349.998 99.9899 349.407 99.2294C348.815 98.4689 348.308 97.8774 347.801 97.2859C347.548 97.0324 347.379 96.7789 347.125 96.5254C346.872 96.2719 346.703 96.0184 346.449 95.8494C345.942 95.3424 345.52 94.8354 344.928 94.0749L346.449 96.4409C345.604 95.2579 345.097 94.5819 344.759 94.2439C344.421 93.9059 344.252 93.8214 344.083 93.8214C343.83 93.7369 343.576 93.7369 341.886 91.7089C342.731 92.0469 342.816 91.5399 342.393 90.6949C341.971 90.5259 341.21 89.7654 340.365 88.9204C339.436 88.0754 338.422 87.1459 337.577 86.3854C338.506 87.4839 333.521 83.6814 336.225 86.2164C335.718 85.8784 335.211 85.4559 334.704 85.2024C334.197 84.8644 333.774 84.6109 333.352 84.2729C332.507 83.6814 331.746 83.1744 330.986 82.7519C330.225 82.3294 329.549 81.9069 328.789 81.4844C328.028 81.1464 327.183 80.8084 326.338 80.4704C327.352 81.0619 326.338 80.6394 325.24 80.2169C324.141 79.8789 322.958 79.5409 323.888 80.0479C319.325 78.1889 316.029 77.0904 317.381 77.0059C319.071 77.4284 321.606 78.5269 321.606 78.1889L319.409 77.4284C318.649 77.1749 317.888 77.0059 317.212 76.8369C315.776 76.4144 314.17 76.2454 312.734 75.9074C311.635 75.6539 310.368 75.4004 309.269 75.2314C308.171 75.0624 307.41 74.8934 307.241 74.6399C306.481 74.7244 305.551 74.6399 304.537 74.7244C303.523 74.7244 302.425 74.6399 301.411 74.7244C300.397 74.7244 299.298 74.7244 298.453 74.8934C297.524 74.9779 296.763 75.1469 296.256 75.4004C297.777 75.0624 299.214 74.8934 300.397 74.8934C301.58 74.8934 302.509 74.9779 303.101 74.9779C302.594 74.9779 302.171 75.0624 301.664 75.0624C301.833 75.0624 302.087 75.0624 302.425 75.0624C301.073 75.4004 299.805 75.6539 298.538 75.9919C300.397 75.9074 300.566 75.9074 300.904 75.6539C301.242 75.4849 301.833 75.2314 304.537 75.2314C305.72 75.4004 305.636 75.5694 304.96 75.6539C304.622 75.7384 304.115 75.7384 303.523 75.8229C302.932 75.9074 302.34 75.9074 301.664 76.0764C300.65 76.1609 299.636 76.3299 298.876 76.4989C294.482 76.9214 290.172 77.8509 286.032 79.2874C286.539 78.9494 287.215 78.6114 286.961 78.4424C286.539 78.6114 286.201 78.6959 285.778 78.8649C285.356 79.0339 285.018 79.2029 284.595 79.3719C283.835 79.7099 283.159 79.9634 282.652 80.2169C281.807 80.6394 281.469 80.9774 281.976 80.8084C281.384 81.0619 280.877 81.3154 280.286 81.5689C280.032 81.6534 279.863 81.7379 279.61 81.8224L276.821 83.1744C276.652 83.1744 278.596 82.1604 279.356 81.7379C277.497 82.5829 274.455 84.5264 273.019 85.7094C271.582 86.7234 270.23 87.7374 268.878 88.9204C268.709 89.0049 268.625 89.0894 268.456 89.1739C264.231 92.3849 263.808 91.4554 258.992 95.0044C256.626 97.5394 251.725 99.4829 247.669 103.116C249.781 101.088 242.261 106.665 245.81 103.539C243.782 104.553 236.599 110.552 232.881 112.665C233.388 112.158 233.219 112.158 233.98 111.566C229.248 115.2 230.431 113.763 226.882 116.129L227.304 116.467C225.952 117.481 225.361 117.397 224.178 118.157C225.192 117.735 227.389 116.636 226.375 117.481C224.769 118.58 223.333 119.425 221.305 120.016C221.22 119.847 222.572 119.34 223.417 118.918C223.417 118.918 222.403 119.34 221.305 119.678C220.206 119.932 219.108 120.016 218.939 119.847C219.699 119.763 220.544 119.509 221.305 119.256C222.065 119.002 222.826 118.58 223.417 118.157C222.065 118.749 221.389 118.833 221.051 118.918C220.713 119.002 220.713 118.918 220.882 118.918C220.967 118.833 221.136 118.749 221.136 118.664C221.136 118.58 220.967 118.58 220.291 118.664C220.713 118.833 219.615 119.256 218.009 119.256C217.249 119.256 216.404 119.087 215.559 118.918C215.136 118.749 214.714 118.664 214.376 118.495C214.038 118.326 213.615 118.157 213.362 117.988C213.277 117.819 213.7 117.988 214.291 118.326C214.545 118.495 214.883 118.58 215.136 118.664C215.39 118.749 215.643 118.833 215.812 118.833C215.559 118.664 215.221 118.495 214.967 118.411C214.798 118.326 214.714 118.242 214.545 118.242C214.46 118.157 214.291 118.073 214.207 117.988C213.953 117.819 213.7 117.65 213.446 117.566C213.193 117.397 213.024 117.228 212.77 117.059C212.263 116.805 211.841 116.383 211.418 116.045C210.996 115.707 210.489 115.284 210.066 114.946C209.137 114.101 208.207 113.256 207.109 112.158C206.01 111.059 204.912 109.707 203.391 108.102C203.56 108.186 204.32 108.947 204.658 109.285C201.87 106.412 199.926 103.877 197.138 102.694C195.194 101.68 195.11 101.426 194.687 101.173C194.265 100.919 193.589 100.328 190.124 99.8209C190.631 99.9899 190.378 100.074 189.702 99.9899C189.364 99.9899 188.941 99.9054 188.434 99.9054C187.927 99.9054 187.42 99.9054 186.829 99.9054C186.575 99.9054 186.237 99.9054 185.984 99.9054C185.73 99.9054 185.392 99.9899 185.139 99.9899C184.632 100.074 184.04 100.159 183.618 100.243C182.773 100.497 182.181 100.666 182.181 100.835C180.576 101.088 178.97 101.595 177.365 102.102C175.506 103.201 175.844 103.285 175.759 103.623C175.759 103.792 175.506 103.961 174.914 104.384C174.323 104.806 173.309 105.482 171.703 106.665C170.182 107.764 169.506 108.271 169.168 108.44C168.83 108.609 168.915 108.355 168.999 108.102C169.084 107.848 169.337 107.426 169.253 107.341C169.168 107.257 168.915 107.341 167.985 108.017C167.563 108.524 167.225 109.031 166.887 109.538L165.535 110.806L164.267 112.158L164.605 111.735C163.253 113.51 160.972 116.721 160.887 116.636C160.972 116.214 162.239 114.27 162.324 113.932C161.394 115.453 159.282 118.411 157.507 121.453C155.733 124.495 154.212 127.537 153.874 129.311C152.86 131.086 151.001 134.635 151.001 134.043C150.747 134.888 149.733 136.832 148.55 138.775C147.959 139.705 147.283 140.634 146.776 141.479C146.184 142.324 145.677 143.085 145.339 143.592C145.424 143.254 143.818 145.028 142.635 146.549C144.41 144.69 143.48 146.042 142.551 147.479C142.128 147.817 141.537 148.408 140.861 149.084C140.185 149.76 139.509 150.521 138.748 151.197C137.312 152.633 135.875 153.816 135.284 153.985C132.749 156.605 133.932 155.929 133.594 156.774C131.65 158.126 125.82 162.858 126.496 161.59C128.186 160.407 131.65 157.619 130.805 157.872C127.679 160.154 129.622 159.055 127.172 161.083C127.256 160.83 125.228 162.182 125.651 161.675C124.214 162.858 122.102 164.548 119.905 166.153C123.454 163.703 117.961 168.097 120.158 166.745L123.116 163.956C127.003 160.914 124.13 163.534 125.651 162.52C122.271 165.224 121.003 166.407 119.82 167.59C118.637 168.773 117.454 169.956 114.328 172.66C113.06 173.589 110.863 175.279 110.187 175.871C112.3 174.012 111.539 174.012 110.272 174.941C107.314 178.068 104.441 180.18 101.822 182.715C102.498 182.039 102.667 181.955 102.667 182.124C102.582 182.293 102.16 182.969 101.822 183.476C99.2024 186.687 98.7799 187.363 98.5264 187.447C98.2729 187.532 98.3574 187.194 97.1744 188.546C95.3154 191.165 93.7099 193.7 92.4424 196.151C91.0904 198.601 90.1609 201.052 89.3159 203.587C88.9779 204.854 88.5554 206.037 88.3864 207.305C88.3019 207.896 88.1329 208.572 88.0484 209.164L87.7949 211.023C87.7104 211.614 87.7104 212.29 87.7104 212.966C87.7104 213.642 87.6259 214.234 87.7104 214.91C87.7949 216.177 87.7949 217.529 88.0484 218.881V217.614L88.1329 216.346C88.2174 215.501 88.2174 214.656 88.3019 213.811L87.8794 212.121C88.2174 210.178 88.4709 210.347 88.6399 211.361C88.7244 212.29 88.9779 214.065 89.1469 215.163C89.1469 215.332 89.1469 215.839 89.1469 216.431C89.1469 217.107 89.1469 217.867 89.2314 218.543C89.3159 219.895 89.4004 220.909 89.1469 219.642C89.2314 220.656 89.5694 221.754 89.7384 222.768C89.9919 223.782 90.3299 224.796 90.6679 225.81C90.6679 225.303 90.3299 224.12 90.1609 223.36C90.0764 223.022 90.0764 222.684 90.0764 222.768C90.0764 222.768 90.1609 223.106 90.4144 223.782C90.4989 224.289 90.6679 225.05 90.9214 225.895C91.1749 226.74 91.4284 227.5 91.6819 228.176C91.8509 228.852 92.1044 229.275 92.1044 229.359C92.1044 229.444 91.8509 229.106 91.4284 228.176C91.6819 228.937 92.1889 229.782 92.5269 230.542C92.8649 231.303 93.4564 232.063 93.7944 232.655C93.9634 232.993 94.1324 233.246 94.3859 233.415C94.5549 233.669 94.7239 233.838 94.8929 233.922C95.1464 234.176 95.2309 234.26 95.2309 234.091C95.6534 234.683 95.9069 235.021 96.1604 235.359C96.3294 235.612 96.4984 235.781 96.4984 235.866C96.5829 236.035 96.2449 235.866 95.8224 235.443C95.3999 235.021 94.8084 234.429 94.3014 233.753C93.7099 233.077 93.2874 232.401 92.9494 231.894C94.0479 233.838 94.6394 234.683 94.6394 234.936C94.7239 235.19 94.3014 234.852 93.8789 234.345C95.1464 236.035 96.4984 237.725 98.1039 239.077C96.9209 238.232 96.8364 238.316 95.8224 237.387C96.1604 237.809 96.4984 238.147 96.8364 238.57C97.1744 238.908 97.5969 239.246 97.9349 239.584C98.2729 239.922 98.6954 240.175 99.0334 240.429C99.3714 240.682 99.7939 240.936 100.132 241.189C101.568 242.203 103.005 243.048 104.61 243.893C105.117 243.978 105.709 244.147 106.216 244.147C108.835 245.245 110.863 245.752 112.384 246.09C113.99 246.428 115.088 246.597 116.271 246.766C118.553 247.02 120.75 247.273 125.482 247.273L123.876 247.02C127.425 246.851 128.693 246.935 130.214 247.104C130.974 247.189 131.819 247.273 133.002 247.358C134.185 247.442 135.706 247.527 137.819 247.696C142.635 248.034 145.424 249.048 145.001 248.372C146.269 248.71 147.029 249.048 147.621 249.386C148.212 249.639 148.466 249.977 148.973 250.315C149.48 250.484 149.987 250.738 150.663 251.076C151.254 251.414 151.93 251.836 152.606 252.343C153.874 253.357 154.972 254.794 155.564 256.146C154.465 254.456 153.367 253.273 151.93 252.09C152.015 252.428 153.198 253.442 154.212 254.963C155.31 256.484 156.071 258.512 156.324 260.117C156.662 261.131 157.254 263.497 157.254 266.455C157.338 269.328 157.085 272.623 156.747 274.989C157.507 272.961 157.93 273.806 157.338 278.2C157.254 277.862 156.916 279.214 156.409 281.242C155.986 283.186 155.564 285.636 155.226 287.242C155.226 286.481 154.803 288.171 154.634 289.354C154.55 289.946 154.465 290.368 154.381 290.199C154.296 290.03 154.296 289.27 154.465 287.58C154.803 285.636 155.31 284.791 155.648 282.172C155.141 283.693 153.958 287.833 153.705 292.481C153.536 292.143 153.367 289.692 153.705 287.326C153.705 288.594 153.874 287.918 153.958 287.749C154.127 285.636 154.212 284.707 154.127 284.538C154.127 284.284 153.958 284.707 153.789 285.383C153.451 286.65 153.029 288.932 152.944 288.256C152.86 289.354 152.775 291.213 152.86 292.396C152.86 293.41 152.944 294.002 153.029 293.579C152.86 295.861 153.198 299.325 154.55 302.705C155.226 304.48 156.155 306.254 157.338 307.775C157.592 308.113 157.845 308.536 158.183 308.874C158.437 309.212 158.775 309.55 159.028 309.888C159.535 310.564 160.127 311.071 160.634 311.662C160.718 311.747 160.211 311.155 160.042 310.902C159.958 310.733 159.958 310.733 160.211 310.817C160.38 310.986 160.803 311.324 161.563 311.831C162.662 312.676 163.591 313.268 164.267 313.606C164.943 314.028 165.366 314.282 165.788 314.535C166.549 314.958 166.887 315.296 167.901 315.718C168.661 315.972 171.027 316.563 173.055 316.901C175.083 317.239 176.773 317.408 176.351 317.408C177.956 317.493 177.111 317.239 176.435 316.986C175.759 316.732 175.252 316.479 177.534 316.563C180.576 316.394 184.632 316.986 188.181 316.732C190.293 316.817 189.279 316.901 187.42 316.986C185.646 317.07 183.026 316.986 182.181 317.07C186.237 317.155 190.209 316.986 194.18 316.479C197.729 316.31 192.659 317.155 189.11 317.239C193.927 317.408 200.095 316.141 201.363 315.465C204.32 314.958 205.841 314.535 208.63 313.859C207.278 314.366 206.686 314.704 205.926 315.127C205.165 315.549 204.151 315.972 201.954 316.479C194.687 317.746 204.489 315.549 198.321 316.479L197.814 316.901C195.11 317.07 193.082 317.577 190.209 317.746C188.603 317.746 190.547 317.577 191.645 317.493C189.026 317.662 186.744 317.746 184.547 317.662C182.35 317.662 180.407 317.577 178.379 317.662C181.843 318.169 186.322 318.169 190.209 318C194.096 317.746 197.476 317.324 198.997 317.239C203.56 316.31 208.038 315.042 212.432 313.352C212.348 313.183 207.7 314.366 211.334 312.93C213.024 312.93 216.995 311.747 221.812 309.55C220.798 309.719 222.741 308.789 224.431 307.775C226.206 306.846 227.811 305.916 226.544 306.254C224.516 307.522 223.164 307.691 222.91 307.775C227.389 305.578 223.333 307.099 225.783 305.832C233.895 301.86 225.699 306.254 233.642 302.452C232.036 303.466 228.065 306.085 223.671 308.451C224.093 308.536 228.149 306.254 230.093 305.494C227.389 306.592 231.698 304.142 229.501 305.156C232.628 303.466 236.008 301.522 239.472 299.663C241.247 298.734 243.021 297.889 244.965 297.044C246.824 296.283 248.767 295.523 250.711 294.931C250.204 295.438 246.908 296.621 244.204 297.889C241.5 299.156 239.219 300.424 240.571 300.255C242.43 299.325 243.275 298.818 244.12 298.396C244.965 297.973 245.641 297.551 247.162 297.044C248.514 296.79 250.795 296.03 253.33 295.438C255.95 294.762 258.823 294.255 261.442 294.086C260.682 294.002 259.921 294.002 259.076 294.086C260.09 293.917 261.527 293.748 262.963 293.748C263.301 293.748 263.724 293.748 264.062 293.748C264.4 293.748 264.822 293.833 265.16 293.833C265.836 293.833 266.512 294.002 267.104 294.086H266.512C267.273 294.086 268.033 294.171 268.709 294.255C269.047 294.34 269.132 294.34 269.132 294.424C270.315 294.593 272.512 295.016 274.709 296.03C276.906 297.044 279.272 298.565 281.131 300.086C281.215 300.001 280.962 299.748 280.624 299.494C280.286 299.156 279.694 298.734 279.103 298.396C278.765 298.227 278.511 297.973 278.173 297.804C277.835 297.635 277.497 297.466 277.159 297.213C276.483 296.79 275.892 296.537 275.385 296.283C275.131 296.114 274.033 295.607 273.188 295.185C272.343 294.847 271.836 294.593 272.934 294.762C275.723 295.692 278.004 296.875 280.201 298.396C282.398 299.917 284.595 301.776 286.961 304.48C286.454 303.888 286.032 303.297 285.525 302.705C287.299 304.142 289.243 306.592 291.355 309.381C293.214 312 292.369 311.155 291.355 310.057C290.341 308.958 289.158 307.606 290.257 309.212C289.327 308.367 288.313 307.015 287.384 305.916C286.454 304.818 285.609 303.973 285.187 303.888C285.947 304.902 286.708 306.001 287.384 307.099C289.75 309.381 291.524 312.676 293.045 314.535L291.693 312.338C292.285 312.507 293.468 314.535 294.144 315.549L293.552 313.859C291.44 310.817 289.496 309.127 288.06 306.93C290.172 309.381 291.017 310.31 292.031 311.324C293.045 312.423 294.059 313.606 296.51 316.817C296.51 317.239 295.496 315.634 294.904 315.042C295.665 316.225 296.594 317.239 297.608 318.507C298.707 319.774 299.89 321.211 301.411 322.985C299.552 321.126 296.763 317.915 298.622 320.788C299.298 321.295 299.89 321.887 300.566 322.394C301.918 323.999 301.242 323.492 301.833 324.168C302.847 325.267 302.847 325.098 302.932 325.013C303.016 325.013 303.27 325.098 304.96 326.788C305.467 327.295 306.565 328.478 305.974 328.055C308.086 329.914 308.678 330.252 309.269 330.59C309.523 330.759 309.776 330.928 310.283 331.182C310.79 331.435 311.466 331.858 312.649 332.534C311.635 331.942 310.875 331.351 310.452 331.013C310.03 330.59 309.776 330.337 309.861 330.252C309.861 330.168 310.199 330.252 310.706 330.59C311.213 330.844 311.973 331.351 313.072 331.942C316.029 333.717 318.902 334.646 321.522 335.153C322.198 335.238 322.789 335.407 323.465 335.491C324.141 335.576 324.733 335.66 325.324 335.66C325.916 335.66 326.592 335.66 327.183 335.745C327.775 335.829 328.451 335.745 329.042 335.745C330.141 335.576 331.155 335.153 332.169 334.815C331.662 335.069 331.746 335.069 332.084 335.069C332.422 334.984 333.098 334.731 333.943 334.477C334.704 334.224 335.549 333.717 336.394 333.379C337.154 332.956 337.915 332.534 338.422 332.28C338.844 332.28 336.647 333.717 333.943 334.731C333.267 334.984 332.591 335.238 332 335.407C331.324 335.576 330.732 335.745 330.225 335.914C329.127 336.167 328.451 336.336 328.451 336.505C329.042 336.421 329.549 336.421 329.972 336.336C330.394 336.336 330.648 336.252 330.901 336.167C331.324 336.083 331.493 336.083 331.493 336.167C331.408 336.252 330.479 336.674 329.718 336.843C332.338 336.336 332.76 335.998 332.845 335.829C332.929 335.66 332.591 335.576 333.69 335.069C333.69 335.069 334.281 334.984 334.957 334.646C335.295 334.477 335.718 334.308 336.14 334.139C336.394 334.055 336.563 333.97 336.816 333.886C336.985 333.801 337.239 333.632 337.408 333.548C339.013 332.703 340.196 331.858 339.013 332.956C340.872 331.773 341.717 330.844 342.562 329.999C343.323 329.154 343.999 328.478 345.013 327.295C344.844 327.802 344.59 328.309 345.013 328.224C345.097 328.055 345.858 327.21 346.618 326.365C346.956 325.943 347.379 325.436 347.717 325.098C347.97 324.675 348.224 324.337 348.393 324.253C348.139 324.506 348.308 324.168 348.224 324.168C348.224 324.168 348.139 324.253 347.886 324.506C347.717 324.76 347.379 325.267 346.787 325.943C346.956 325.52 348.308 323.746 349.322 321.971C349.829 321.126 350.336 320.281 350.59 319.605C350.928 319.014 351.097 318.591 351.012 318.591C351.266 318.507 352.195 316.732 352.956 314.451C353.801 312.169 354.392 309.465 354.815 307.606C354.561 307.691 354.392 308.113 354.223 308.789C354.054 309.465 353.885 310.31 353.716 311.24C353.378 313.014 352.787 315.042 352.195 315.465C352.956 313.014 354.139 308.958 354.815 304.48C355.491 300.001 355.829 295.185 355.829 291.382C356.42 284.791 356.167 291.382 356.589 290.03C356.336 296.199 355.998 297.72 355.491 303.128C355.998 300.17 356.336 296.283 356.505 292.565C356.674 288.932 356.758 285.467 356.758 283.355C356.927 280.228 357.35 278.538 357.772 276.764C358.026 275.919 358.195 274.989 358.533 273.891C358.786 272.792 359.124 271.44 359.631 269.835C359.378 270.173 359.209 270.342 359.04 270.68C358.871 271.018 358.702 271.44 358.364 272.539C358.702 270.68 359.462 268.652 360.307 266.962C360.476 266.455 360.054 267.046 359.8 267.469C359.547 267.976 359.293 268.314 359.8 267.046C360.054 266.624 360.476 265.863 360.814 265.356C361.152 264.849 361.49 264.596 361.49 264.765L361.237 265.103C362.082 263.835 362.758 263.075 363.349 262.652C363.603 262.399 363.941 262.23 364.194 262.145C364.448 261.976 364.617 261.892 364.87 261.807C365.293 261.638 365.715 261.385 366.307 261.131C366.56 260.962 366.898 260.793 367.321 260.624C367.743 260.371 368.25 260.202 368.842 259.948C368.588 259.948 368.25 260.033 367.743 260.202C367.49 260.286 367.236 260.371 366.983 260.54C366.729 260.624 366.391 260.793 366.138 260.878C365.884 260.962 365.884 260.878 366.053 260.709C366.222 260.54 366.476 260.286 366.983 260.117C367.828 259.61 369.264 259.103 370.532 258.934C370.363 259.103 370.87 258.934 371.715 258.934C372.137 258.85 372.644 258.85 373.151 258.85C373.658 258.85 374.165 258.85 374.672 258.85C375.264 259.019 374.081 259.019 372.729 259.103C371.292 259.188 369.687 259.441 369.264 259.695C370.87 259.357 372.475 259.272 374.165 259.272C373.827 259.272 373.489 259.272 373.067 259.188C374.926 259.019 376.785 259.019 378.728 259.272C376.7 259.019 376.278 258.934 376.531 258.85C376.785 258.765 377.714 258.681 378.644 258.85C380.672 259.188 382.615 259.695 384.052 260.117C385.488 260.54 386.333 260.962 386.08 261.047C386.671 260.793 391.657 262.399 395.459 263.244C391.403 262.061 395.037 262.821 396.22 262.99C398.248 263.582 400.36 264.089 402.473 264.342C400.783 264.258 400.022 264.173 399.769 264.173C399.515 264.173 399.853 264.258 400.36 264.427C401.374 264.68 403.064 264.849 402.219 264.934C401.205 265.103 399.6 264.934 397.91 264.596C396.22 264.258 394.361 263.751 392.671 263.244C395.882 264.511 398.417 264.849 400.783 265.018C403.233 265.103 405.515 265.018 408.81 264.68C408.81 264.849 408.303 265.272 405.43 265.356C405.684 265.356 406.191 265.356 406.867 265.272C407.543 265.187 408.388 265.018 409.317 264.849C411.176 264.427 413.373 263.666 415.401 262.821C414.894 262.99 413.965 263.244 413.711 263.244C413.627 263.244 413.627 263.159 413.965 262.99C414.303 262.821 414.894 262.483 415.824 261.976C417.514 261.3 419.204 260.371 420.809 259.357C421.485 258.85 421.908 258.427 422.33 258.089C422.668 257.751 423.006 257.498 423.175 257.244C423.598 256.822 423.682 256.568 423.767 256.399C423.936 255.977 424.02 255.723 425.626 253.611C424.781 254.456 424.02 255.216 423.091 255.977C423.091 255.808 423.429 255.385 423.851 254.878C424.274 254.371 424.865 253.695 425.372 253.019C426.471 251.667 427.316 250.315 427.147 250.146C426.302 251.498 425.626 252.512 424.865 253.526C424.105 254.54 423.26 255.554 421.992 256.653C421.401 256.906 422.161 256.23 423.175 255.132C423.682 254.625 424.189 253.949 424.696 253.357C425.119 252.766 425.541 252.174 425.795 251.752C426.809 250.4 427.485 249.386 427.992 248.625C428.499 247.865 428.752 247.273 429.09 246.766C429.682 245.752 430.189 244.992 431.203 242.626C431.541 242.626 431.034 244.738 430.358 246.682C429.682 248.625 428.837 250.484 429.513 250.146C431.287 247.104 432.893 243.048 433.822 239.246C434.836 235.443 435.259 231.894 435.597 229.697C436.188 226.655 436.019 225.303 435.85 224.796ZM328.028 81.9069C328.028 81.8224 328.197 81.8224 328.62 81.9069C329.042 82.0759 329.634 82.3294 330.563 82.8364C332 83.5124 332.591 84.1039 333.267 84.6109C333.859 85.1179 334.45 85.6249 335.464 86.3854C334.197 85.4559 332.845 85.1179 331.239 83.7659V83.9349C330.225 83.3434 329.211 82.7519 328.113 82.1604C328.028 82.0759 327.944 81.9069 328.028 81.9069ZM305.551 75.9919H304.706C307.157 75.9074 309.607 75.9919 312.058 76.2454C312.396 76.4989 310.114 76.4144 310.114 76.4144C314.508 76.9214 316.959 77.7664 319.494 78.5269C319.578 78.5269 319.663 78.6114 319.747 78.6114C319.578 78.5269 319.325 78.4424 319.156 78.4424C314.001 76.9214 308.678 76.1609 303.354 76.2454C303.861 76.1609 304.453 76.0764 305.551 75.9919ZM272.258 86.8924C272.174 86.9769 272.089 86.9769 272.089 87.0614C271.413 87.5684 270.653 88.0754 269.977 88.5824C269.892 88.6669 269.723 88.7514 269.554 88.8359L272.258 86.8924Z" fill="#EAEDF9"/>
<path d="M268.033 282.848C268.287 282.848 268.878 282.932 268.878 282.848C268.456 282.763 268.118 282.763 268.033 282.848Z" fill="#EAEDF9"/>
<path d="M344.76 316.394C344.675 316.479 344.591 316.479 344.591 316.479C344.506 316.563 344.591 316.563 344.76 316.394Z" fill="#EAEDF9"/>
<path d="M301.073 63.3169C300.481 63.3169 300.143 63.4014 299.383 63.4859L301.073 63.3169Z" fill="#EAEDF9"/>
<path d="M237.276 194.376C235.417 200.46 232.206 205.868 227.981 210.431C227.305 211.107 226.291 211.276 225.446 210.854L218.263 206.713C215.221 209.333 211.757 211.361 207.954 212.628V220.994C207.954 221.923 207.278 222.768 206.349 222.937C200.434 224.289 194.096 224.289 187.843 222.937C186.914 222.768 186.238 221.923 186.238 220.994V212.628C182.435 211.276 178.971 209.333 175.929 206.713L168.746 210.854C167.901 211.361 166.887 211.192 166.211 210.431C161.986 205.868 158.86 200.46 156.916 194.376C156.663 193.447 157.001 192.517 157.846 192.01L165.028 187.87C164.268 183.898 164.268 179.927 165.028 175.955L157.846 171.815C157.001 171.308 156.663 170.378 156.916 169.449C158.775 163.449 161.986 157.957 166.211 153.394C166.887 152.718 167.901 152.549 168.746 152.971L175.929 157.112C178.971 154.492 182.435 152.464 186.238 151.197V142.916C186.238 141.986 186.914 141.141 187.843 140.972C193.758 139.62 200.096 139.62 206.349 140.972C207.278 141.141 207.954 141.986 207.954 142.916V151.197C211.757 152.549 215.221 154.492 218.263 157.112L225.446 152.971C226.291 152.464 227.305 152.633 227.981 153.394C232.206 157.957 235.332 163.365 237.276 169.449C237.529 170.378 237.191 171.308 236.346 171.815L229.164 175.955C229.924 179.927 229.924 183.898 229.164 187.87L236.346 192.01C237.107 192.517 237.529 193.447 237.276 194.376ZM210.658 181.955C210.658 174.519 204.574 168.435 197.138 168.435C189.702 168.435 183.618 174.519 183.618 181.955C183.618 189.391 189.702 195.475 197.138 195.475C204.574 195.475 210.658 189.391 210.658 181.955Z" fill="#C4CEE7"/>
<path d="M370.955 240.682C369.265 246.09 366.392 250.991 362.589 255.047C361.998 255.723 361.068 255.808 360.308 255.385L353.801 251.667C351.097 254.033 347.886 255.808 344.506 256.991V264.511C344.506 265.356 343.915 266.117 343.07 266.286C337.746 267.469 332 267.553 326.423 266.286C325.578 266.117 324.987 265.356 324.987 264.511V256.991C321.607 255.808 318.48 253.949 315.692 251.667L309.185 255.385C308.425 255.808 307.495 255.639 306.904 255.047C303.101 250.991 300.228 246.09 298.538 240.682C298.285 239.837 298.623 238.992 299.383 238.57L305.89 234.852C305.214 231.303 305.214 227.669 305.89 224.12L299.383 220.402C298.623 219.98 298.285 219.135 298.538 218.29C300.228 212.882 303.101 207.981 306.904 203.925C307.495 203.249 308.425 203.164 309.185 203.587L315.692 207.305C318.396 204.939 321.607 203.164 324.987 201.981V194.461C324.987 193.616 325.578 192.855 326.423 192.686C331.747 191.503 337.493 191.419 343.07 192.686C343.915 192.855 344.506 193.616 344.506 194.461V201.897C347.886 203.08 351.013 204.939 353.801 207.22L360.308 203.502C361.068 203.08 361.998 203.249 362.589 203.84C366.392 207.896 369.265 212.797 370.955 218.205C371.208 219.05 370.87 219.895 370.11 220.318L363.603 224.036C364.279 227.585 364.279 231.218 363.603 234.767L370.11 238.485C370.87 238.992 371.208 239.837 370.955 240.682ZM347.041 229.444C347.041 222.684 341.549 217.276 334.873 217.276C328.198 217.276 322.705 222.768 322.705 229.444C322.705 236.119 328.198 241.612 334.873 241.612C341.549 241.612 347.041 236.204 347.041 229.444Z" fill="#C4CEE7"/>
<path d="M323.381 139.705C322.029 144.014 319.748 147.901 316.79 151.112C316.368 151.619 315.607 151.704 315.016 151.366L309.861 148.408C307.664 150.267 305.214 151.704 302.51 152.633V158.548C302.51 159.224 302.003 159.816 301.411 159.985C297.186 160.914 292.623 160.999 288.229 159.985C287.553 159.816 287.131 159.224 287.131 158.548V152.633C284.427 151.704 281.976 150.267 279.779 148.408L274.625 151.366C274.033 151.704 273.273 151.619 272.85 151.112C269.893 147.901 267.611 144.014 266.259 139.705C266.09 139.029 266.344 138.353 266.935 138.015L272.09 135.057C271.583 132.269 271.583 129.396 272.09 126.607L266.935 123.65C266.344 123.312 266.09 122.636 266.259 121.96C267.611 117.65 269.893 113.763 272.85 110.552C273.273 110.045 274.033 109.961 274.625 110.299L279.779 113.256C281.976 111.397 284.427 109.961 287.131 109.031V103.116C287.131 102.44 287.638 101.849 288.229 101.68C292.454 100.75 297.017 100.666 301.411 101.68C302.087 101.849 302.51 102.44 302.51 103.116V109.031C305.214 109.961 307.664 111.397 309.861 113.256L315.016 110.299C315.607 109.961 316.368 110.045 316.79 110.552C319.748 113.763 322.029 117.65 323.381 121.96C323.55 122.636 323.297 123.312 322.705 123.65L317.551 126.607C318.058 129.396 318.058 132.269 317.551 135.057L322.705 138.015C323.297 138.353 323.55 139.113 323.381 139.705ZM304.369 130.832C304.369 125.509 300.059 121.199 294.736 121.199C289.412 121.199 285.103 125.509 285.103 130.832C285.103 136.156 289.412 140.465 294.736 140.465C300.059 140.465 304.369 136.156 304.369 130.832Z" fill="#C4CEE7"/>
<path d="M463.06 307.86H422.077C418.528 307.86 415.655 304.987 415.655 301.438C415.655 297.889 418.528 295.016 422.077 295.016H463.06C466.609 295.016 469.482 297.889 469.482 301.438C469.482 304.987 466.609 307.86 463.06 307.86Z" fill="#E7EBF8"/>
<path d="M85 117.171L85 60.8289C85 55.9498 89.6974 52 95.5 52C101.303 52 106 55.9498 106 60.8289L106 117.171C106 122.05 101.303 126 95.5 126C89.6974 126 85 122.05 85 117.171Z" fill="#0093E5"/>
<path d="M463.06 328.985H422.077C418.528 328.985 415.655 326.112 415.655 322.563C415.655 319.014 418.528 316.141 422.077 316.141H463.06C466.609 316.141 469.482 319.014 469.482 322.563C469.482 326.196 466.609 328.985 463.06 328.985Z" fill="#E7EBF8"/>
<path d="M56 118.961L56 74.0393C56 70.1491 60.4737 67 66 67C71.5263 67 76 70.1491 76 74.0393L76 118.961C76 122.851 71.5263 126 66 126C60.3421 126 56 122.851 56 118.961Z" fill="#F6D62C"/>
<path d="M463.06 352.983H422.077C418.528 352.983 415.655 350.11 415.655 346.561C415.655 343.012 418.528 340.139 422.077 340.139H463.06C466.609 340.139 469.482 343.012 469.482 346.561C469.482 350.11 466.609 352.983 463.06 352.983Z" fill="#E7EBF8"/>
<path d="M25 121.347L25 91.6531C25 89.0816 29.6974 87 35.5 87C41.3026 87 46 89.0816 46 91.6531L46 121.347C46 123.918 41.3026 126 35.5 126C29.6974 126 25 123.918 25 121.347Z" fill="#F6D62C"/>
<path opacity="0.86" d="M475.92 324.71C477.104 319.715 474.014 314.706 469.018 313.522C464.023 312.338 459.014 315.428 457.83 320.424C456.646 325.419 459.736 330.428 464.731 331.612C469.727 332.796 474.736 329.706 475.92 324.71Z" fill="#E22D4E"/>
<path d="M426.218 295.946L417.261 290.791L408.304 295.946V306.255L417.261 311.494L426.218 306.255V295.946Z" fill="#514FC3"/>
<path d="M49.3481 167.421L54.5871 172.322C55.2631 172.998 56.2771 173.251 57.2066 173.082L64.2201 171.561C66.5861 171.054 68.6141 173.505 67.5156 175.702L64.4736 182.208C64.0511 183.053 64.1356 184.152 64.6426 184.997L68.2761 191.165C69.5436 193.278 67.7691 195.897 65.4031 195.644L58.3051 194.799C57.3756 194.714 56.3616 195.052 55.7701 195.813L51.0381 201.221C49.4326 203.08 46.3906 202.235 45.8836 199.784L44.5316 192.771C44.3626 191.841 43.6866 190.996 42.8416 190.658L36.2506 187.785C33.9691 186.771 33.8846 183.645 35.9971 182.462L42.2501 178.997C43.0951 178.49 43.6866 177.645 43.7711 176.716L44.4471 169.618C44.6161 166.914 47.4891 165.731 49.3481 167.421Z" fill="#EAEDF9"/>
<path d="M478.354 377.488L478.946 384.67C479.03 385.6 479.537 386.529 480.382 387.036L486.551 390.585C488.663 391.853 488.494 394.979 486.213 395.909L479.622 398.697C478.692 399.035 478.101 399.88 477.847 400.81L476.326 407.823C475.819 410.189 472.777 411.034 471.172 409.175L466.524 403.767C465.933 403.007 464.919 402.669 463.989 402.753L456.891 403.514C454.441 403.767 452.751 401.148 454.018 399.035L457.736 392.951C458.243 392.106 458.328 391.092 457.905 390.163L454.948 383.656C453.934 381.375 455.962 379.009 458.328 379.6L465.257 381.29C466.186 381.544 467.2 381.29 467.961 380.614L473.284 375.798C475.228 373.939 478.101 375.122 478.354 377.488Z" fill="#0093E5"/>
<path d="M36.7572 15.1519L37.1797 20.3064C37.2642 20.9824 37.6022 21.6584 38.2782 21.9964L42.7567 24.6159C44.2777 25.4609 44.1087 27.7424 42.5032 28.4184L37.7712 30.3619C37.0952 30.6154 36.6727 31.2069 36.5037 31.8829L35.4052 36.9529C35.0672 38.6429 32.8702 39.2344 31.6872 37.8824L28.3072 33.9954C27.8847 33.4884 27.1242 33.1504 26.4482 33.2349L21.2937 33.7419C19.5192 33.9109 18.3362 32.0519 19.2657 30.5309L21.9697 26.1369C22.3077 25.5454 22.3922 24.7849 22.1387 24.1934L20.0262 19.4614C19.2657 17.8559 20.7867 16.0814 22.4767 16.5039L27.4622 17.6869C28.1382 17.8559 28.8987 17.6869 29.4057 17.1799L33.2082 13.7154C34.4757 12.5324 36.5882 13.3774 36.7572 15.1519Z" fill="#EAEDF9"/>
<path d="M422.922 45.9945L420.64 49.8815C420.302 50.3885 420.302 51.0645 420.556 51.5715L422.415 55.6275C423.091 57.064 421.823 58.585 420.302 58.1625L415.908 57.1485C415.317 56.9795 414.725 57.1485 414.218 57.571L410.923 60.613C409.824 61.627 407.965 60.951 407.796 59.43L407.374 54.9515C407.289 54.36 406.951 53.7685 406.444 53.515L402.557 51.318C401.205 50.5575 401.374 48.614 402.726 48.0225L406.867 46.248C407.458 45.9945 407.796 45.4875 407.965 44.896L408.895 40.502C409.233 38.981 411.092 38.474 412.106 39.657L415.063 43.037C415.486 43.4595 416.077 43.713 416.669 43.6285L421.147 43.1215C422.668 43.037 423.682 44.727 422.922 45.9945Z" fill="#C4CEE7"/>
<path d="M284.934 186.518L268.625 202.235C268.625 202.235 269.724 205.784 271.836 207.474L272.005 207.643L290.257 189.982C290.173 189.982 287.131 186.687 284.934 186.518Z" fill="white"/>
<path d="M291.102 191.166L274.117 209.333L275.216 209.925L291.862 192.349L291.102 191.166Z" fill="white"/>
<path d="M37.0106 360.757H25.6031L11.7451 336.505V360.757H-1.85938V307.86H10.0551L23.4061 330.928V307.86H37.0106V360.757Z" fill="#514FC3"/>
<path d="M76.3034 360.757H51.6294C45.7144 360.757 42.4189 358.475 42.4189 352.391V316.563C42.4189 310.31 45.6299 307.86 51.7139 307.86H71.7404V319.943L56.0234 320.028V348.589H67V342H62.6989V333.21H76.3034V360.757Z" fill="#F7D62C"/>
<path d="M116.948 352.391C116.948 358.306 113.906 360.757 107.906 360.757H90.0767C84.4152 360.757 81.0352 358.475 81.0352 352.391V316.31C81.0352 310.648 84.0772 307.944 90.0767 307.944H107.906C113.652 307.944 116.948 310.31 116.948 316.31V352.391ZM103.343 348.589V320.028H94.6397V348.589H103.343Z" fill="#E22D4E"/>
<path d="M398.586 162.013H384.559L367.405 132.184V162.013H350.59V96.8633H365.293L381.77 125.34V96.8633H398.586V162.013Z" fill="#E22D4E"/>
<path d="M449.455 135.48C449.455 143.254 445.399 145.958 437.963 145.958H421.992V161.928H405.177V96.7788H437.963C445.399 96.7788 449.455 99.7363 449.455 107.426V135.48ZM432.639 131.086V111.651H421.992V131.086H432.639Z" fill="#514FC3"/>
<path d="M499.563 151.704C499.563 158.971 495.845 162.013 488.409 162.013H466.439C459.426 162.013 455.285 159.14 455.285 151.704V107.172C455.285 100.243 459.003 96.7788 466.439 96.7788H488.409C495.507 96.7788 499.563 99.7363 499.563 107.172V151.704ZM482.748 147.056V111.82H472.101V147.056H482.748Z" fill="#F7D62C"/>
<path d="M244.289 330.506C244.289 330.506 254.091 374.108 229.079 399.12H313.41C313.41 399.12 286.539 360.419 296.679 330.506H244.289Z" fill="#C8CFE6"/>
<path d="M271.244 125.762L254.851 154.154H287.552L271.244 125.762Z" fill="#221F4A"/>
<path d="M309.86 313.268H232.543C227.135 313.268 222.656 308.789 222.656 303.381V186.433C222.656 181.025 227.135 176.547 232.543 176.547H309.86C315.268 176.547 319.747 181.025 319.747 186.433V303.381C319.747 308.789 315.353 313.268 309.86 313.268Z" fill="#514FC3"/>
<path d="M271.244 260.202C249.105 260.202 230.938 242.035 230.938 219.896V186.941C230.938 164.802 249.105 146.634 271.244 146.634C293.383 146.634 311.551 164.802 311.551 186.941V219.896C311.551 242.035 293.383 260.202 271.244 260.202Z" fill="#514FC3"/>
<path d="M355.152 319.606L312.48 296.453C311.973 296.199 311.635 295.608 311.635 295.016V267.385C311.635 266.455 312.395 265.779 313.24 265.779H355.913C356.842 265.779 357.518 266.54 357.518 267.385V318.169C357.603 319.437 356.251 320.282 355.152 319.606Z" fill="#514FC3"/>
<path d="M184.8 319.606L227.473 296.453C227.98 296.199 228.318 295.608 228.318 295.016V267.385C228.318 266.455 227.557 265.779 226.712 265.779H184.04C183.11 265.779 182.434 266.54 182.434 267.385V318.169C182.35 319.437 183.702 320.282 184.8 319.606Z" fill="#514FC3"/>
<path d="M263.555 223.444H238.627C236.853 223.444 235.416 222.008 235.416 220.233V206.544C235.416 204.77 236.853 203.333 238.627 203.333H263.555C265.329 203.333 266.766 204.77 266.766 206.544V220.233C266.681 222.008 265.245 223.444 263.555 223.444Z" fill="#C4CEE7"/>
<path d="M303.861 223.444H278.934C277.159 223.444 275.723 222.008 275.723 220.233V206.544C275.723 204.77 277.159 203.333 278.934 203.333H303.861C305.636 203.333 307.072 204.77 307.072 206.544V220.233C307.072 222.008 305.636 223.444 303.861 223.444Z" fill="#C4CEE7"/>
<path d="M222.741 248.287H319.747" stroke="#E7EBF8" stroke-miterlimit="10"/>
<path d="M222.741 282.003H319.747" stroke="#E7EBF8" stroke-miterlimit="10"/>
<path d="M232.121 248.287V282.003" stroke="#E7EBF8" stroke-miterlimit="10"/>
<path d="M247.753 248.287V282.003" stroke="#E7EBF8" stroke-miterlimit="10"/>
<path d="M263.386 248.287V282.003" stroke="#E7EBF8" stroke-miterlimit="10"/>
<path d="M279.103 248.287V282.003" stroke="#E7EBF8" stroke-miterlimit="10"/>
<path d="M294.735 248.287V282.003" stroke="#E7EBF8" stroke-miterlimit="10"/>
<path d="M310.368 248.287V282.003" stroke="#E7EBF8" stroke-miterlimit="10"/>
<path d="M232.543 176.547H309.86" stroke="#221F4A" stroke-miterlimit="10"/>
<path d="M319.747 265.103V299.072" stroke="#221F4A" stroke-miterlimit="10"/>
<path d="M316.958 337.266H225.529L235.669 321.718H306.818L316.958 337.266Z" fill="#514FC3"/>
<path d="M307.072 313.521H235.416V323.83H307.072V313.521Z" fill="#514FC3"/>
<path d="M426.893 406.979C409.739 406.979 395.121 417.71 389.375 432.92C384.558 428.104 378.221 424.724 371.123 423.794C371.123 423.541 371.123 423.287 371.123 423.034C371.123 396.163 349.322 374.362 322.451 374.362C310.114 374.362 298.875 378.925 290.341 386.53C284.595 365.996 265.836 350.955 243.528 350.955C218.769 350.955 198.32 369.461 195.278 393.374C191.307 391.6 186.913 390.67 182.265 390.67C169.337 390.67 158.183 398.275 153.028 409.26C146.015 403.261 136.889 399.627 126.918 399.627C107.567 399.627 91.3433 413.316 87.4563 431.568C85.5128 430.892 83.4848 430.554 81.3723 430.554C70.8943 430.554 62.4443 439.004 62.4443 449.482C62.4443 449.82 62.4443 450.074 62.5288 450.412H199.419H282.313H466.777C466.861 449.313 466.946 448.215 466.946 447.116C466.946 424.893 449.032 406.979 426.893 406.979Z" fill="#EAEDF9"/>
<path d="M157 425.822C155.564 425.822 154.212 425.906 152.86 426.16C152.437 404.021 134.354 386.276 112.131 386.276C94.3012 386.276 79.1757 397.683 73.6832 413.654C71.0637 412.724 68.3597 412.217 65.4023 412.217C52.2202 412.217 41.4042 422.526 40.7282 435.624C38.9537 435.032 37.0103 434.694 34.9823 434.694C25.8563 434.694 18.3357 441.623 17.4062 450.496H44.6152H52.4737H78.6687H86.1048H128.355H145.508H185.561C183.449 436.469 171.45 425.822 157 425.822Z" fill="#C8CFE6"/>
<path d="M306.481 430.892C307.579 430.892 308.678 430.977 309.776 431.146C310.114 413.57 324.479 399.458 342.14 399.458C356.251 399.458 368.335 408.499 372.729 421.174C374.757 420.414 376.954 420.076 379.32 420.076C389.798 420.076 398.417 428.273 398.924 438.666C400.36 438.159 401.881 437.905 403.487 437.905C410.754 437.905 416.669 443.398 417.429 450.412H395.797H389.544H368.757H362.842H329.296H315.691H283.835C285.525 439.342 294.989 430.892 306.481 430.892Z" fill="#C8CFE6"/>
<path d="M417.599 218.29L419.458 219.895C419.711 220.149 420.049 220.233 420.387 220.149L422.753 219.557C423.598 219.388 424.274 220.149 423.936 220.994L422.922 223.275C422.753 223.613 422.838 223.951 423.007 224.205L424.274 226.317C424.697 226.993 424.105 227.923 423.345 227.838L420.894 227.585C420.556 227.585 420.218 227.669 420.049 227.923L418.444 229.782C417.937 230.458 416.838 230.204 416.669 229.359L416.162 226.909C416.078 226.571 415.824 226.317 415.571 226.148L413.289 225.219C412.529 224.881 412.444 223.782 413.12 223.36L415.233 222.092C415.486 221.923 415.74 221.585 415.74 221.247L415.909 218.797C415.993 218.121 417.007 217.698 417.599 218.29Z" fill="white"/>
<path d="M406.952 231.894L409.402 234.091C409.74 234.345 410.163 234.514 410.585 234.429L413.712 233.669C414.81 233.415 415.74 234.514 415.233 235.528L413.965 238.485C413.796 238.908 413.796 239.33 414.05 239.753L415.74 242.541C416.331 243.471 415.571 244.654 414.472 244.569L411.261 244.231C410.839 244.147 410.416 244.4 410.078 244.738L407.966 247.189C407.29 248.034 405.853 247.696 405.6 246.597L404.924 243.471C404.839 243.048 404.501 242.71 404.163 242.541L401.121 241.274C400.107 240.851 400.023 239.415 400.952 238.908L403.741 237.302C404.163 237.049 404.332 236.711 404.417 236.204L404.67 232.993C404.839 231.641 406.191 231.134 406.952 231.894Z" fill="#C4CEE7"/>
<path d="M132.242 226.824L131.82 229.275C131.735 229.613 131.82 229.951 132.073 230.204L133.848 231.979C134.439 232.57 134.101 233.584 133.256 233.669L130.806 234.007C130.468 234.007 130.214 234.26 130.045 234.514L128.947 236.711C128.524 237.471 127.51 237.471 127.088 236.711L126.074 234.514C125.905 234.176 125.651 234.007 125.313 233.922L122.863 233.5C122.018 233.331 121.68 232.317 122.356 231.725L124.13 230.035C124.384 229.782 124.468 229.444 124.468 229.106L124.13 226.655C123.961 225.81 124.891 225.219 125.651 225.641L127.848 226.824C128.102 226.993 128.524 226.993 128.778 226.824L130.975 225.726C131.566 225.303 132.411 225.979 132.242 226.824Z" fill="#C4CEE7"/>
<path d="M143.143 234.683L142.889 236.035C142.889 236.204 142.889 236.457 143.058 236.542L144.072 237.556C144.41 237.894 144.241 238.485 143.734 238.57L142.298 238.739C142.129 238.739 141.96 238.908 141.875 239.077L141.199 240.344C140.946 240.767 140.354 240.767 140.185 240.344L139.594 239.077C139.509 238.908 139.34 238.739 139.171 238.739L137.735 238.485C137.228 238.401 137.059 237.809 137.397 237.471L138.411 236.542C138.58 236.373 138.58 236.204 138.58 236.035L138.326 234.598C138.242 234.091 138.749 233.753 139.171 234.007L140.439 234.683C140.608 234.767 140.777 234.767 140.946 234.683L142.213 234.007C142.72 233.838 143.227 234.176 143.143 234.683Z" fill="white"/>
<path d="M139.594 214.741L139.34 216.093C139.34 216.262 139.34 216.515 139.509 216.6L140.523 217.614C140.861 217.952 140.692 218.543 140.185 218.628L138.749 218.797C138.58 218.797 138.411 218.966 138.326 219.135L137.65 220.402C137.397 220.825 136.805 220.825 136.636 220.402L136.045 219.135C135.96 218.966 135.791 218.797 135.622 218.797L134.186 218.543C133.679 218.459 133.51 217.867 133.848 217.529L134.862 216.6C135.031 216.431 135.031 216.262 135.031 216.093L134.777 214.656C134.693 214.149 135.2 213.811 135.622 214.065L136.89 214.741C137.059 214.825 137.228 214.825 137.397 214.741L138.664 214.065C139.171 213.896 139.678 214.234 139.594 214.741Z" fill="white"/>
<path d="M181.473 246.239L182.656 247.591C182.825 247.76 183.079 247.845 183.332 247.845L185.191 247.676C185.867 247.591 186.205 248.267 185.867 248.774L184.853 250.295C184.684 250.464 184.684 250.718 184.769 250.971L185.445 252.661C185.698 253.253 185.107 253.844 184.515 253.675L182.741 253.253C182.487 253.168 182.234 253.253 182.065 253.422L180.628 254.605C180.121 255.027 179.361 254.689 179.361 254.098L179.276 252.323C179.276 252.07 179.107 251.816 178.938 251.732L177.333 250.802C176.826 250.464 176.91 249.704 177.502 249.45L179.276 248.774C179.53 248.69 179.699 248.521 179.783 248.267L180.206 246.493C180.29 245.986 181.051 245.817 181.473 246.239Z" fill="white"/>
<path d="M193.473 241.239L194.656 242.591C194.825 242.76 195.079 242.845 195.332 242.845L197.191 242.676C197.867 242.591 198.205 243.267 197.867 243.774L196.853 245.295C196.684 245.464 196.684 245.718 196.769 245.971L197.445 247.661C197.698 248.253 197.107 248.844 196.515 248.675L194.741 248.253C194.487 248.168 194.234 248.253 194.065 248.422L192.628 249.605C192.121 250.027 191.361 249.689 191.361 249.098L191.276 247.323C191.276 247.07 191.107 246.816 190.938 246.732L189.333 245.802C188.826 245.464 188.91 244.704 189.502 244.45L191.276 243.774C191.53 243.69 191.699 243.521 191.783 243.267L192.206 241.493C192.29 240.986 193.051 240.817 193.473 241.239Z" fill="#C4CEE7"/>
<path d="M151.339 383.487H106.301V392.444H151.339V383.487Z" fill="#0093E5"/>
<path d="M161.817 396.162H106.301V405.119H161.817V396.162Z" fill="#0093E5"/>
<path d="M167.225 408.837H106.301V417.794H167.225V408.837Z" fill="#0093E5"/>
<path d="M194.097 85.2867L193.59 84.9487L217.841 50.0502L258.232 62.0492L297.356 14.9827L297.778 15.3207L258.486 62.8097L218.095 50.8107L194.097 85.2867Z" fill="#221F4A"/>
<path d="M297.525 25.4608C303.218 25.4608 307.834 20.8453 307.834 15.1518C307.834 9.45827 303.218 4.84277 297.525 4.84277C291.831 4.84277 287.216 9.45827 287.216 15.1518C287.216 20.8453 291.831 25.4608 297.525 25.4608Z" fill="#E22D4E"/>
<path d="M258.401 72.6964C264.094 72.6964 268.71 68.0809 268.71 62.3874C268.71 56.6939 264.094 52.0784 258.401 52.0784C252.707 52.0784 248.092 56.6939 248.092 62.3874C248.092 68.0809 252.707 72.6964 258.401 72.6964Z" fill="#514FC3"/>
<path d="M218.01 60.7818C223.704 60.7818 228.319 56.1663 228.319 50.4728C228.319 44.7793 223.704 40.1638 218.01 40.1638C212.317 40.1638 207.701 44.7793 207.701 50.4728C207.701 56.1663 212.317 60.7818 218.01 60.7818Z" fill="#514FC3"/>
<path d="M193.843 95.4268C199.537 95.4268 204.152 90.8113 204.152 85.1178C204.152 79.4243 199.537 74.8088 193.843 74.8088C188.15 74.8088 183.534 79.4243 183.534 85.1178C183.534 90.8113 188.15 95.4268 193.843 95.4268Z" fill="#0093E5"/>
</g>
<defs>
<clipPath id="clip0_3460_1055">
<rect width="507" height="450.216" fill="white" transform="translate(0 0.11084)"/>
</clipPath>
</defs>
</svg>
