<svg id="圖層_1" data-name="圖層 1" xmlns="http://www.w3.org/2000/svg" width="246" height="246" viewBox="0 0 246 246">
  <defs>
    <style>
      .cls-1 {
        fill: #fff;
      }
    </style>
  </defs>
  <g>
    <path class="cls-1" d="M124.68,86H112.93a2,2,0,0,1,0-4h11.75a2,2,0,0,1,0,4Z"/>
    <path class="cls-1" d="M129.36,127.87H108.25a6,6,0,0,1-6-6V78.55a6,6,0,0,1,6-6h21.11a6,6,0,0,1,6,6v43.32A6,6,0,0,1,129.36,127.87ZM108.25,76.55a2,2,0,0,0-2,2v43.32a2,2,0,0,0,2,2h21.11a2,2,0,0,0,2-2V78.55a2,2,0,0,0-2-2Z"/>
    <path class="cls-1" d="M124.68,94.55H112.93a2,2,0,0,1,0-4h11.75a2,2,0,0,1,0,4Z"/>
    <path class="cls-1" d="M118.8,119.29a8.41,8.41,0,1,1,8.41-8.4A8.41,8.41,0,0,1,118.8,119.29Zm0-12.81a4.41,4.41,0,1,0,4.41,4.41A4.42,4.42,0,0,0,118.8,106.48Z"/>
    <path class="cls-1" d="M118.8,148.94a2,2,0,0,1-2-2V125.87a2,2,0,0,1,4,0v21.07A2,2,0,0,1,118.8,148.94Z"/>
    <path class="cls-1" d="M137.69,153.75h-13a2,2,0,0,1,0-4h13a2,2,0,0,1,0,4Z"/>
    <path class="cls-1" d="M113.59,153.75h-26a2,2,0,0,1,0-4h26a2,2,0,1,1,0,4Z"/>
    <path class="cls-1" d="M118.8,158.54a6.79,6.79,0,1,1,6.79-6.79A6.79,6.79,0,0,1,118.8,158.54Zm0-9.57a2.79,2.79,0,1,0,2.79,2.78A2.79,2.79,0,0,0,118.8,149Z"/>
    <path class="cls-1" d="M170.66,166.87H141.18a5.24,5.24,0,0,1-5.23-5.23V141.87a5.24,5.24,0,0,1,5.23-5.23h29.48a5.24,5.24,0,0,1,5.23,5.23v19.77A5.24,5.24,0,0,1,170.66,166.87Zm-29.48-26.23a1.25,1.25,0,0,0-1.23,1.23v19.77a1.25,1.25,0,0,0,1.23,1.23h29.48a1.26,1.26,0,0,0,1.23-1.23V141.87a1.26,1.26,0,0,0-1.23-1.23Z"/>
    <path class="cls-1" d="M178.74,173.45H133.1a2,2,0,1,1,0-4h45.64a2,2,0,0,1,0,4Z"/>
    <path class="cls-1" d="M83.16,173.45H71.67A6.42,6.42,0,0,1,65.26,167v-24a6.42,6.42,0,0,1,6.41-6.41H83.16a6.41,6.41,0,0,1,6.4,6.41v24A6.41,6.41,0,0,1,83.16,173.45ZM71.67,140.64a2.41,2.41,0,0,0-2.41,2.41v24a2.41,2.41,0,0,0,2.41,2.41H83.16a2.41,2.41,0,0,0,2.4-2.41v-24a2.41,2.41,0,0,0-2.4-2.41Z"/>
    <path class="cls-1" d="M77.41,168a5.36,5.36,0,1,1,5.36-5.35A5.36,5.36,0,0,1,77.41,168Zm0-6.71a1.36,1.36,0,1,0,1.36,1.36A1.35,1.35,0,0,0,77.41,161.27Z"/>
    <path class="cls-1" d="M155.92,131.06a16.43,16.43,0,1,1,16.42-16.42A16.44,16.44,0,0,1,155.92,131.06Zm0-28.85a12.43,12.43,0,1,0,12.42,12.43A12.45,12.45,0,0,0,155.92,102.21Z"/>
    <path class="cls-1" d="M155.42,120.75a2,2,0,0,1-1.37-.55l-5.12-4.85a2,2,0,1,1,2.75-2.9l3.48,3.3,4.77-6.42a2,2,0,0,1,3.21,2.39L157,119.94a2,2,0,0,1-1.44.8Z"/>
  </g>
</svg>
