<svg id="圖層_1" data-name="圖層 1" xmlns="http://www.w3.org/2000/svg" width="246" height="246" viewBox="0 0 246 246">
  <defs>
    <style>
      .cls-1 {
        fill: #fff;
      }
    </style>
  </defs>
  <g>
    <path class="cls-1" d="M169.36,105.05C165,95.31,146.94,93.53,126.2,99.8a51,51,0,0,1,4.64,4.33c17.2-4.89,31.79-3.53,35.21,4.19,1.48,3.32.69,7.4-1.9,11.72l2.33.64C170.14,115,171.33,109.51,169.36,105.05Z"/>
    <path class="cls-1" d="M131.55,144.49q-2.58,1.09-5.13,2-1.36,1.92-2.84,3.72c2.68-.93,5.39-2,8.11-3.17C131.66,146.2,131.6,145.35,131.55,144.49Z"/>
    <path class="cls-1" d="M143,138.77c0,.91-.1,1.8-.18,2.69A90.36,90.36,0,0,0,156,132.27L154.23,131A82.38,82.38,0,0,1,143,138.77Z"/>
    <path class="cls-1" d="M109.91,150.79c-12.61,1.88-22.45-.23-25.18-6.39-4.08-9.17,9.13-24,29.83-34a56.47,56.47,0,0,0-1.57-5.47l-.28,0c-25.08,11.4-41.18,29.76-36.07,41.3,3.5,7.87,16,10.54,31.62,8C108.84,153,109.39,151.91,109.91,150.79Z"/>
    <polygon class="cls-1" points="156.71 130.61 161.78 142.92 165.07 121.22 144.1 125.29 156.71 130.61"/>
    <path class="cls-1" d="M124.29,100.41q-.5-.41-1-.78a17.93,17.93,0,0,1-1.84,1.75,16.2,16.2,0,0,1-6.76,3.23q.8,2.37,1.44,5c2.57,10.65,2.87,24.66-4.24,40.85-.48,1.1-1,2.21-1.57,3.33a94.45,94.45,0,0,1-8.25,13.62,99.48,99.48,0,0,0,18.45-16.18c1-1.2,2.09-2.46,3.09-3.76a49.46,49.46,0,0,0,8.17-15,99.65,99.65,0,0,1,1.42,11.29c0,.84.12,1.67.16,2.53a110.73,110.73,0,0,1-1.89,25.57A82.5,82.5,0,0,0,141,142.46c.1-.89.17-1.8.23-2.71.77-11.58-1.74-24.41-12.21-35.09A49.49,49.49,0,0,0,124.29,100.41Z"/>
    <path class="cls-1" d="M100,98a14.9,14.9,0,0,0,3.11,2.82,14.64,14.64,0,0,0,8.16,2.49c.39,0,.78,0,1.16-.06a16.17,16.17,0,0,0,1.72-.23h.06a14.55,14.55,0,0,0,7.38-4c.13-.12.24-.26.36-.39h0a13.44,13.44,0,0,0,1.07-1.3,5.74,5.74,0,0,0,.35-.47,13.8,13.8,0,0,0,1.35-2.48,14.54,14.54,0,0,0-1.35-13.84,14.2,14.2,0,0,0-1.78-2.16,14.55,14.55,0,0,0-7.38-4,15,15,0,0,0-2.94-.3,14.48,14.48,0,0,0-5.68,1.15,13.8,13.8,0,0,0-2.48,1.35A14.37,14.37,0,0,0,100,79.43a15.24,15.24,0,0,0-1.57,2.32,14.64,14.64,0,0,0,0,13.92A14.85,14.85,0,0,0,100,98Z"/>
  </g>
</svg>
