<?xml version="1.0" encoding="utf-8"?>
<!-- Generator: Adobe Illustrator 27.0.0, SVG Export Plug-In . SVG Version: 6.00 Build 0)  -->
<svg version="1.1" id="_圖層_2" xmlns="http://www.w3.org/2000/svg" xmlns:xlink="http://www.w3.org/1999/xlink" x="0px" y="0px"
	 viewBox="0 0 1902.7 554.9" style="enable-background:new 0 0 1902.7 554.9;" xml:space="preserve">
<style type="text/css">
	.st0{fill:#ECF0F2;}
	.st1{clip-path:url(#SVGID_00000140014729316620153200000018134553863075920771_);}
	.st2{fill:#3E4346;}
	.st3{fill:#FFFFFF;}
	.st4{fill:#231815;}
	.st5{fill:#F1846D;}
	.st6{fill:#21111D;}
	.st7{fill:#A29F50;}
	.st8{fill:#C9D1D3;}
	.st9{enable-background:new    ;}
	.st10{fill:#FF6F57;}
	.st11{fill:#8B9920;}
</style>
<g>
	<path class="st0" d="M1880.3,165.7c-44.1-61.9-146.7-109.2-224.8-111.9c-165.7-5.8-309.1,50.4-474.7,50.3
		c-306.2-0.2-602-80.3-907.4-45.1C211,66.1,137.3,80.5,81.7,126.2c-78,64-102.7,170.5-62.9,259c24.3,54,90.2,71.6,143.9,84.2
		C281.4,497.1,401,449.1,520.1,449c135,0,267.3,86.6,401.7,67.2c89.3-12.9,86.9-57,176.4-66.8c124.7-13.7,241.9,60.6,365.3,69.9
		c105.2,7.9,212.4-11.3,308-56.5c72.2-34.1,127.3-129.2,131-211.7C1904.2,215.1,1895.7,187.2,1880.3,165.7z"/>
</g>
<g id="_圖層_1-2">
	<g>
		<g>
			<g>
				<g>
					<g>
						<defs>
							<path id="SVGID_1_" d="M1754.4,37.7c-199.1-41.6-404.7,42.8-605,42.6c-287.3-0.2-568.6-44.1-860.4-52
								c-59.1-1.6-143.5-1.4-195.7,50.5C53,118.9,37.5,137.9,25.5,224.9c-3.4,85.5,25.4,149,77.2,178.9
								c135.8,78.4,285.4-7.3,427.1-7.3c126.7,0,250.8,98.6,376.9,76.5c83.8-14.7,163.5-82.1,247.4-93.3
								c93.4-12.4,185,45.3,277.7,69.6c76.1,19.9,167.4,33.7,243,8.4c41.4-13.8,115.9-62.8,150.9-107.7s65.7-116.8,65.7-197.7
								C1891.5,88,1784.1,43.9,1754.4,37.7L1754.4,37.7z"/>
						</defs>
						<clipPath id="SVGID_00000144337407959625618850000016714085575763578044_">
							<use xlink:href="#SVGID_1_"  style="overflow:visible;"/>
						</clipPath>
						<g style="clip-path:url(#SVGID_00000144337407959625618850000016714085575763578044_);">
							<g>
								<path class="st2" d="M347.9,872.5c0,0,50.9,16.2,53.1,20.5s0,13.6,0,13.6l-111.6,0.1l3.4-28.6L347.9,872.5L347.9,872.5z"/>
								<g>
									<path class="st3" d="M107.6,458c23.6,38.5,101,37.2,113.6,26.5c0.5-0.5,1.2-1.4,1.9-2.8c7.3-14.1,24.2-74.5,41.1-138.6
										c22.3-84.5,44.5-175.5,44.5-175.5s0.9-23.2-30-25.5c-3.1-0.2-7.1-0.6-11.9-1c-42.1-3.5-140.4-10.8-153.5,16.2
										c-7.5,15.5-10.5,38.6-9.2,63.7c1.2,23.3,6,48.5,14.4,70.9C135.8,338.1,84,419.4,107.6,458L107.6,458z"/>
									<path class="st4" d="M278.8,141.1c-3.1-0.2-7.1-0.6-11.8-0.9c-0.1,0-0.3,0-0.4,0c-0.2,0-0.4,0-0.6,0s-0.4,0-0.7,0
										c-8.4-0.7-17.3-1.3-26.2-1.9c-3-0.2-6-0.4-9-0.5s-6.1-0.3-9.1-0.4c-6-0.3-12.1-0.4-18-0.5c-10.6-0.2-21,0-30.8,0.5
										c-3.1,0.1-6.1,0.4-9.1,0.6c-0.4,0-0.8,0.1-1.2,0.1c-24.7,2.2-43.7,7.7-49.1,18.9c-6.1,12.6-9.4,30.3-9.6,50.9
										c0,2.5,0,5,0,7.7c0.1,1.8,0.1,3.7,0.2,5.5c0,1.1,0.1,2.2,0.2,3.3c0,0.4,0,0.9,0.1,1.2c0.1,1.8,0.3,3.6,0.5,5.3
										c0,0.6,0.1,1.1,0.1,1.6c2.1,20.6,6.8,41.3,13.5,59.6c1.5,3.9,2.4,8,2.9,12.3c0,0.3,0.1,0.6,0.1,0.9s0,0.5,0.1,0.8
										c1.4,13.6-1,29-4.5,44.9c-1.7,7.7-3.7,15.6-5.7,23.3c-2.9,11.6-5.8,23-7.8,33.8c0,0.3-0.1,0.6-0.1,0.9
										c-0.1,0.3-0.1,0.6-0.2,0.8c-3.3,18.9-3.5,35.9,4.3,48.6c13.2,21.5,41.6,29,57.3,31.5c6.6,1.1,13.2,1.7,19.4,1.9
										c0.8,0,1.7,0,2.5,0c0.6,0,1.2,0,1.8,0c2.5,0,4.9-0.1,7.2-0.2c3.6-0.2,7-0.6,10.1-1.1h0.3c0.2,0,0.4,0,0.6-0.1
										c0.3,0,0.6-0.1,0.9-0.1c0.3,0,0.6-0.1,0.9-0.2c0.9-0.2,1.8-0.4,2.6-0.5c5.2-1.2,9.1-2.7,11.2-4.5c0.6-0.5,1.3-1.5,2.1-3.1
										c0.2-0.4,0.4-0.7,0.5-1.1c0.2-0.4,0.4-0.7,0.5-1.1c1.1-2.4,2.3-5.5,3.7-9.3c3.3-9.3,7.6-23.1,12.9-41.2
										c0.1-0.3,0.2-0.6,0.3-0.9s0.2-0.6,0.3-0.9c0.4-1.1,0.7-2.2,1-3.3c0.1-0.5,0.3-1.1,0.5-1.6c0.1-0.6,0.3-1.2,0.5-1.8
										c5.5-19.4,12-43.1,19.4-71.1c0.3-1,0.6-2.1,0.8-3.2v-0.1c0.3-1,0.5-2.1,0.8-3.1c0-0.1,0.1-0.3,0.1-0.4
										c10.9-41.3,21.8-84.4,30.1-117.5c0-0.2,0.1-0.4,0.1-0.7s0.1-0.4,0.2-0.6c2.6-10.3,4.9-19.6,6.9-27.5
										c4.4-17.6,7-28.6,7.1-28.9v-0.2C309.5,167.3,310.1,143.5,278.8,141.1L278.8,141.1z M293.7,224.6c0,0.2-0.1,0.4-0.2,0.7
										c-7.8,31.3-18,71.5-28.3,110.6c-0.3,1.2-0.6,2.3-0.9,3.5v0.1c-0.3,1.1-0.5,2.1-0.8,3.2c0,0,0,0.1,0,0.2
										c-7.7,29.4-14.5,54.3-20.3,74.6c-0.2,0.6-0.4,1.2-0.5,1.8c-0.1,0.5-0.3,1.1-0.5,1.6c-0.7,2.4-1.3,4.8-2,7
										c-0.1,0.3-0.2,0.6-0.3,0.9s-0.2,0.6-0.3,0.9c-5.2,18-9.5,31.6-12.8,40.8c-1,2.8-1.9,5.1-2.7,7c-0.2,0.4-0.3,0.8-0.5,1.2
										s-0.4,0.8-0.5,1.1c-0.2,0.5-0.5,1.1-0.7,1.5c-0.8,1.6-1.4,2.3-1.7,2.5c-2.2,1.9-6.6,3.4-12.4,4.5c-0.3,0.1-0.6,0.1-0.9,0.2
										c-0.3,0-0.6,0.1-0.9,0.2c-3.7,0.6-7.9,1-12.4,1.2h-0.4c-2.3,0.1-4.6,0.1-7,0.1c-0.4,0-0.8,0-1.2,0h-1.6
										c-6.1-0.2-12.6-0.8-19.2-1.8c-15.5-2.5-43.3-9.8-56.1-30.7c-7.5-12.1-7.3-28.5-4.2-46.9c0-0.3,0.1-0.5,0.2-0.8
										c0-0.3,0.1-0.6,0.1-0.9c2-10.8,4.9-22.3,7.9-34.1c2-8,4-16,5.8-23.9c3.6-16.1,5.9-31.7,4.3-45.4c0-0.3,0-0.6-0.1-0.8
										c0-0.3,0-0.6-0.1-0.9c-0.5-4.3-1.5-8.4-2.9-12.2c-6.9-18.7-11.7-40-13.6-60.9c-0.2-1.7-0.3-3.5-0.4-5.2
										c-0.1-1.2-0.2-2.3-0.2-3.5l0,0c0-0.4-0.1-0.7-0.1-1c0-0.8-0.1-1.6-0.1-2.4c0-0.3,0-0.6,0-0.8v-0.5c0-2-0.1-3.9-0.1-5.8
										c0-1.3,0-2.7,0-4c0.2-20.1,3.4-37.4,9.3-49.6c5.3-11,25.8-16.1,50.6-18.2l0,0c4.3-0.4,8.7-0.6,13.2-0.8l0,0
										c3.4-0.1,6.8-0.2,10.2-0.3c11.1-0.2,22.4,0.1,33.1,0.5c2.2,0.1,4.4,0.2,6.5,0.3c2.2,0.1,4.3,0.2,6.4,0.3
										c3.1,0.2,6.1,0.4,9,0.6c8.7,0.6,16.3,1.2,22.1,1.6c0.2,0,0.4,0,0.7,0c0.2,0,0.4,0,0.7,0.1h0.2c0.3,0,0.6,0,0.9,0.1
										c4.3,0.3,8,0.6,10.9,0.8c29,2.2,29.3,22.9,29.2,24.6c-0.3,1.2-3,12.1-7.2,29.4c-2,7.9-4.3,17.1-6.8,27.2
										C293.8,224.2,293.7,224.4,293.7,224.6L293.7,224.6z"/>
								</g>
								<g>
									<path class="st0" d="M104.1,223c0.2,0.6,0.3,2.4,0.3,2.4s11.7-74.7,41.7-60.7S189,313.3,189,313.3L184.5,491l38.6-0.6
										l39.4-6.2l1.7-135.9l2.6-207.1c-42.1-3.5-140.4-11.1-153.5,16.6C105.9,173.6,102.9,197.3,104.1,223L104.1,223z"/>
									<path class="st4" d="M266.9,140.3c-0.1,0-0.3,0-0.4,0c-0.2,0-0.4,0-0.6,0s-0.4,0-0.7,0c-8.4-0.7-17.3-1.4-26.2-2
										c-3-0.2-6-0.4-9-0.5s-6.1-0.3-9.1-0.4c-6-0.3-12.1-0.4-18-0.5c-10.6-0.2-21,0-30.8,0.5c-3.1,0.1-6.1,0.4-9.1,0.6
										c-0.4,0-0.8,0.1-1.2,0.1c-24.7,2.3-43.7,8-49.1,19.4c-5.9,12.5-9.2,30.1-9.6,50.4c0,2.5,0,5,0,7.7c0,2.5,0.1,5,0.2,7.6v0.2
										c0,0.2,0.1,0.6,0.1,1s0,0.9,0.1,1.2l0.4,5.3l0.2,2.3l0.1-0.7l0.3-1.7l0.3-1.6l0.5-3.5c0,0,0-0.1,0-0.2
										c0.5-3.4,8.6-50.1,26.8-59.8c4.3-2.3,8.9-2.3,13.7,0c16.3,7.6,27.5,52.2,34.3,90.5c1.5,8.3,2.8,16.4,3.8,23.6
										c0,0.3,0.1,0.6,0.2,0.9c0,0.3,0,0.6,0.1,0.9c2.6,18.3,3.9,31.4,3.9,31.9l-0.1,3.2l-1.9,75.1v2.4v2.4l-2.3,93.8v0.8v0.1v0.8
										v0.1h2.5l9-0.1l10.9-0.2h0.8h0.9l15.5-0.3l3.3-0.5l0.8-0.1l0.8-0.1l35.1-5.6v-2.5v-2.5l0.1-8.6l0.6-44.8v-1.7l1-81.8v-3.6
										l0,0v-3.4l1.6-126.2v-1v-1.1l0.3-21.5l0.6-44V141L266.9,140.3L266.9,140.3z M265.8,159.9l-0.3,24.7l0,0l-0.3,20.1v1.2v1.2
										l-1.7,135.5v3.4l0,0v3.6l-0.9,75.1v0.8v0.9l-0.6,44.7v3.8v2.5v2.5v3.2l-33.9,5.4l-0.8,0.1l-0.8,0.1l-2.9,0.4l-12.6,0.2
										h-2.5h-0.9h-0.9h-0.8l-11.4,0.2h-0.4l-7,0.1h-1.2l0,0l2.3-89.5v-2.4v-2.4l2-79.3l0.1-3.3c-0.2-1.6-1.4-14.1-3.8-31.4
										c0-0.3-0.1-0.6-0.1-0.9s-0.1-0.6-0.1-0.9c-1.2-8.3-2.7-17.6-4.4-27.3c-6.9-38-18.2-81.1-34.9-88.8
										c-2.6-1.2-5.2-1.8-7.7-1.8s-5.1,0.7-7.5,2c-15.4,8.1-23.5,40-26.4,54.3c0,0,0,0.1,0,0.2V217c0-2-0.1-3.9-0.1-5.8
										c0-1.3,0-2.7,0-4c0.4-19.9,3.6-37,9.3-49.2c5.3-11.3,25.8-16.5,50.6-18.6l0,0c4.3-0.4,8.7-0.6,13.2-0.8l0,0
										c3.4-0.1,6.8-0.2,10.2-0.3c11.1-0.2,22.4,0.1,33.1,0.5c2.2,0.1,4.4,0.2,6.5,0.3c2.2,0.1,4.3,0.2,6.4,0.3
										c3.1,0.2,6.1,0.4,9,0.6c8.7,0.6,16.3,1.3,22.1,1.7c0.2,0,0.4,0,0.7,0l-0.2,12.5v0.2v5.4L265.8,159.9L265.8,159.9z"/>
								</g>
								<path class="st5" d="M91.7,253.8c1.4-1.6,1.7-3.8,1.6-5.9c-1.4,0.1-2.3,0.1-2.6,0c-1.2-0.5-1.3-13.9-1.3-13.9
									c0.5-1.4,22.1-4.4,23.3-4.1c1.2,0.4,5.3,13,4.8,14.6c-0.1,0.3-0.8,0.5-2.1,0.8c1,4.9,2.5,5.1,10.7,8.1
									c7.8,2.9,11.4,8.9,13.7,16.7c2.1,6.9,3.1,15.2,5.1,24.1c1.4,6.3,2.6,12.8,3.5,18.8c1.9,12.7,2.5,23.4,1.5,27
									c-2.8,10.1-52.5,13.8-56.6,11.3c-1.9-1.2-5.3-13.7-8.3-28.6c-3-14.5-5.6-31.3-6.4-41.8c-0.1-1.5-0.2-2.9-0.2-4.1
									C78.4,261.8,86.2,259.8,91.7,253.8L91.7,253.8z"/>
								<g>
									<path class="st3" d="M147.4,290.9c0,0-38.5,27.4-72.3,21.8c0,0,0.2,99.3,36.9,98.5C177.7,409.7,147.4,290.9,147.4,290.9
										L147.4,290.9z"/>
									<path class="st4" d="M148.2,290.7l-0.3-1.2l-1,0.7c0,0-0.8,0.6-2.2,1.5c-3.7,2.4-12,7.4-22.4,12c-0.3,0.1-0.5,0.2-0.8,0.4
										c-0.3,0.1-0.5,0.2-0.8,0.3c-11,4.6-24.2,8.5-37.2,8.3c-2.8,0-5.5-0.3-8.2-0.8l-1-0.2v1c0,2.9,0.4,71.3,22.5,92.9
										c1.9,1.8,3.8,3.2,5.9,4.2c0.3,0.2,0.5,0.3,0.8,0.4c0.2,0.1,0.5,0.2,0.8,0.3c2.3,0.9,4.8,1.4,7.3,1.4h0.4
										c13.2-0.3,23.5-5.3,30.7-14.8C166.8,365.3,149,293.7,148.2,290.7L148.2,290.7z M111.9,410.3c-2.6,0-5.1-0.4-7.4-1.5
										c-0.3-0.1-0.5-0.2-0.8-0.4c-0.3-0.1-0.6-0.2-0.8-0.4c-1.7-0.9-3.4-2.2-5-3.7c-20.2-19.7-21.8-82-21.9-90.7
										c2.6,0.4,5.2,0.6,7.8,0.6c12.9,0.2,26.2-3.6,37.1-8.2c0.3-0.1,0.6-0.2,0.8-0.4c0.3-0.1,0.5-0.2,0.8-0.3
										c10.3-4.4,18.5-9.3,22.6-11.9c0.8-0.5,1.4-0.9,1.8-1.2c2.3,9.6,16.5,74.8-5.6,103.9C134.4,405.3,124.5,410,111.9,410.3
										L111.9,410.3z"/>
								</g>
								<path class="st2" d="M209.4,874.7c0,0-0.5,6.2,1.5,9.3s7.3,5.9,9.2,14c2,8.1,1.1,14.8,1.1,14.8s-37.3,3-49.1-0.3
									c-3.6-1-11.2-7.3-11.4-9.8s3.1-33.2,3.1-33.2L209.4,874.7L209.4,874.7z"/>
								<g>
									<path class="st3" d="M215.7,435.3c0,0-23.1,151.8-43.2,257.2c-20.7,108.6-29.4,184.9-29.4,184.9s30.9,2.7,53.5,0.5
										s27.5-2.8,27.5-2.8s28-138.6,45.2-204.4c18-68.8,26.5-122.4,26.5-122.4l45.9,122.3c0,0-7.5,24.3-25.9,78.8
										C296.9,805.3,283,879.8,283,879.8l85.4-1.9c0,0,57.5-182.7,58.6-205.3c3-63.6-54.7-238.7-52.7-233.9
										C374.2,438.8,290.9,409.5,215.7,435.3L215.7,435.3z"/>
									<path class="st4" d="M296.2,547.1l-0.8-2l-0.3,2.1l-0.2,1c0,0-0.1,0.5-0.2,1.3c0.3,0,0.6,0,0.9-0.1c0.1-0.7,0.2-1,0.2-1
										l0.4,0.9c0.3,0,0.6,0,0.8-0.1L296.2,547.1z M296.2,547.1l-0.8-2l-0.3,2.1l-0.2,1c0,0-0.1,0.5-0.2,1.3c0.3,0,0.6,0,0.9-0.1
										c0.1-0.7,0.2-1,0.2-1l0.4,0.9c0.3,0,0.6,0,0.8-0.1L296.2,547.1z M402.3,532c-0.2-0.7-0.4-1.5-0.6-2.2
										c-0.2-0.8-0.4-1.5-0.6-2.3c-4.6-16.9-9.7-34.9-15.4-53.9c-2.9-9.6-5.9-19.4-9-29.5c-0.5-1.6-0.9-3-1.2-4l0.2,0.1l-1-2.6
										l-0.6,0.2c-5.3-1.8-54.6-17.6-109.9-13.2c-0.3,0-0.6,0-0.8,0.1c-0.3,0-0.6,0-0.8,0c-5.6,0.5-11.2,1.2-16.9,2.1
										c-0.3,0-0.6,0.1-0.9,0.1c-0.3,0-0.6,0.1-0.8,0.2c-0.6,0.1-1.2,0.2-1.8,0.3c-0.3,0.1-0.6,0.1-0.9,0.2l0,0
										c-0.3,0.1-0.6,0.1-0.9,0.2c-8.3,1.6-16.5,3.7-24.7,6.5l-0.5,0.2l-0.1,0.5c0,0.3-1,6.8-2.8,17.8c0,0.4-0.1,0.9-0.2,1.4
										c0,0.4-0.1,0.9-0.2,1.4c-0.7,4.2-1.4,9-2.2,14.4c-0.9,5.6-1.9,11.8-3,18.5c0,0.3,0,0.6-0.1,0.9v0.1c0,0.2-0.1,0.5-0.1,0.8
										v0.1c0,0.3-0.1,0.6-0.1,0.9c-3.1,19.2-6.8,42.1-10.8,66.5c-0.2,0.8-0.3,1.6-0.4,2.4c-0.1,0.8-0.3,1.6-0.4,2.4
										c-7.1,42.8-15.2,89.6-22.8,129.6c-4.7,24.9-8.8,48.1-12.3,69.1c-11.7,69.8-17,115.3-17,115.9l-0.1,0.8l0.9,0.1
										c0.2,0,8.5,0.7,19.6,1.1c10.4,0.4,23.2,0.4,34-0.6c5.1-0.5,9.3-0.9,12.8-1.2c11.7-1.2,14.7-1.6,14.8-1.6l0.6-0.1l0.1-0.6
										c0.2-0.8,11.1-54.7,23.4-111c7.4-34,15.4-68.9,21.8-93.4c15.4-58.7,23.9-106.9,26-119.3l44.7,119
										c-0.9,2.9-8.7,27.7-25.8,78.6c-2,5.7-3.8,11.7-5.6,17.7c-15.7,52.2-27,112.1-27.1,112.7l-0.2,1l10.6-0.2l74.5-1.6h1.9
										l0.2-0.6c1.2-4,17.6-55.9,32.7-106.8c13.2-44.5,25.5-88.2,25.9-98.7C429.1,646.9,420.2,598.1,402.3,532L402.3,532z
										 M426.1,672.6c-0.4,10.2-12.8,54.1-26,98.6c-14.7,49.5-30.5,99.8-32.3,105.8l-5.4,0.1l0,0l-69.6,1.5l-8.7,0.2
										c1.6-8.2,12.3-63.5,27-111.9c1.8-5.9,3.6-11.7,5.5-17.2c18.2-53.9,25.8-78.6,25.9-78.8l0.1-0.3L297,549.2l-0.8-2.1l-0.8-2
										l-0.3,2.1l-0.2,1c0,0-0.1,0.5-0.2,1.3c-1.4,8.5-10,58.9-26.3,121c-6.5,24.6-14.5,59.7-21.9,93.8
										c-11.6,53.1-21.9,103.9-23.2,110.1c-1.3,0.2-5.2,0.6-14,1.4c-3.5,0.4-7.7,0.8-12.9,1.3c-10.7,1-23.4,0.9-33.7,0.6
										c-9.1-0.3-16.3-0.8-18.7-1.1c0.8-6.7,6.1-50.5,17-115.2c3.5-21,7.6-44,12.3-68.8c7.7-40.1,15.8-87.2,22.9-130.1
										c0.1-0.8,0.3-1.6,0.4-2.4c0.1-0.8,0.3-1.6,0.4-2.4c4-24.3,7.7-47.2,10.8-66.3c0-0.3,0.1-0.6,0.1-0.8c0-0.1,0-0.3,0-0.4
										c0-0.2,0-0.3,0.1-0.5c0-0.1,0-0.3,0-0.4c0-0.3,0.1-0.6,0.2-0.9c1-6.5,2-12.6,2.8-18.2c0.7-4.3,1.3-8.3,1.9-11.8
										c0-0.5,0.1-0.9,0.2-1.4c0-0.4,0.1-0.9,0.2-1.4c1.6-10.8,2.7-17.7,3-19.6c7.7-2.6,15.4-4.6,23.2-6.2
										c0.3-0.1,0.6-0.1,0.9-0.2c0.3-0.1,0.6-0.1,0.9-0.2c0.9-0.1,1.8-0.3,2.8-0.5c0.3,0,0.6-0.1,0.9-0.1c0.3,0,0.6-0.1,0.9-0.2
										c5.5-0.9,11-1.6,16.4-2.1c0.3,0,0.6,0,0.8-0.1c0.3,0,0.6,0,0.9,0c55.3-4.5,104.5,11.5,109.4,13.1c0.2,0.9,0.7,2.5,1.6,5.2
										c3.1,9.9,6,19.5,8.8,28.9c5.7,19.1,10.9,37.2,15.5,54.2c0.2,0.8,0.4,1.5,0.6,2.3s0.4,1.5,0.6,2.2
										C418.5,598.4,427.4,646.9,426.1,672.6L426.1,672.6z M296.2,547.1l-0.8-2l-0.3,2.1l-0.2,1c0,0-0.1,0.5-0.2,1.3
										c0.3,0,0.6,0,0.9-0.1c0.1-0.7,0.2-1,0.2-1l0.4,0.9c0.3,0,0.6,0,0.8-0.1L296.2,547.1z"/>
								</g>
								<g>
									<g>
										<path class="st3" d="M349.9,127.8c0.1-14.8-5.9-30-8.8-44.2l-75.3,0.5c0.3,6.9,1.9,14.9,0.8,21.7
											c-4.5-0.7-8.9-0.1-12.5,2.9c-6.4,5.5-6.3,17.3-0.2,23.1c2.9,2.8,9.5,2.2,10.7,4.2c2,3.3,1.2,11.1,1.6,15
											c0,0-5.6,40.2-3.7,48.6s13.9,25.2,36.1,25.2c7,0,13.2-1.2,18.4-2.9c10.6-3.4,17.2-14,15.8-25.2l-3.6-29.9
											c-0.1-0.5,6.2-5.2,7-6.1c2.5-2.6,4.8-5.6,6.7-8.7c3.6-6,6-12.8,6.7-19.8C349.8,130.8,349.9,129.3,349.9,127.8L349.9,127.8
											z"/>
										<path class="st4" d="M266.7,147.8v4.7c0.1-0.8,0.2-1.4,0.2-1.4C266.8,150.1,266.8,149,266.7,147.8L266.7,147.8z
											 M266.7,147.8v4.7c0.1-0.8,0.2-1.4,0.2-1.4C266.8,150.1,266.8,149,266.7,147.8L266.7,147.8z M345.2,97.4
											c0-0.1,0-0.1,0-0.2c-1.3-4.8-2.5-9.3-3.5-13.7l-0.1-0.5l-75.8,0.5h-0.7v0.7c0.1,2.1,0.3,4.3,0.5,6.7
											c0.5,4.8,1,9.8,0.4,14.3c-1.9-0.3-3.6-0.3-5.3,0c-1.1,0.2-1.1,0.2-0.1,0c-2.7,0.4-5,1.4-6.9,3.2c-3.1,2.6-4.9,6.8-5,11.5
											c-0.1,4.9,1.7,9.6,4.8,12.6c1.6,1.6,4.3,2.1,6.5,2.6c1.8,0.4,3.6,0.8,4,1.5c0.5,0.9,0.8,2.2,1,3.7c0.1,1,0.1,1,0,0.1
											c0,0.2,0,0.5,0.1,0.8v0.1c0,0.2,0,0.5,0,0.8v0.1c0.1,1.6,0.1,3.2,0.1,4.8c0,1.7,0,3.3,0.2,4.4c-0.1,1.1-2.5,18.5-3.6,32.5
											c0,0.2,0,0.5,0,0.7c-0.3,3.5-0.4,6.8-0.4,9.5l0,0c0,2.6,0.1,4.7,0.4,6c0.4,2,1.5,4.6,3.2,7.4c0.3,0.4,0.5,0.8,0.8,1.2
											c0.2,0.4,0.5,0.8,0.8,1.2c5,6.9,13.8,14.1,26.7,15.6c0.3,0,0.6,0.1,0.8,0.1c0.3,0,0.6,0,0.9,0.1c1.1,0.1,2.3,0.1,3.4,0.1
											c6.3,0,12.6-1,18.6-2.9c10.8-3.5,17.7-14.3,16.3-25.8c0,0-0.4-3.2-0.9-7.5v-0.1c-0.1-1.1-0.3-2.2-0.4-3.4
											c0-0.3-0.1-0.6-0.1-0.8l0,0c-1-7.7-2.1-16.5-2.2-17.9c0.5-0.6,2.8-2.4,4.2-3.6c1.4-1.2,2.3-1.8,2.6-2.2
											c2.6-2.7,4.9-5.6,6.8-8.8c3.7-6.2,6.1-13.2,6.8-20.2c0.2-1.5,0.3-3.1,0.3-4.6C350.7,117.7,347.9,107.4,345.2,97.4
											L345.2,97.4z M349.3,127.8c0,1.5-0.1,3.1-0.3,4.5c-0.7,6.8-3,13.6-6.7,19.6c-1.9,3.1-4.1,6-6.6,8.5
											c-0.3,0.3-1.3,1.2-2.4,2.1c-4.4,3.5-4.8,4-4.7,4.5l2.2,18.4c0.4,3.2,0.8,7,1.4,11.5c1.3,10.9-5.2,21.2-15.4,24.5
											c-5.9,1.9-12,2.8-18.2,2.8c-1.1,0-2.1,0-3.1-0.1c-0.3,0-0.6,0-0.9,0s-0.6,0-0.8-0.1c-13.5-1.6-22.3-9.4-27-16.5
											c-0.4-0.4-0.6-0.8-0.9-1.3v-0.1c-0.3-0.5-0.5-0.9-0.8-1.4c-1-2-1.7-3.8-2-5.2c-0.5-2.4-0.4-7.4,0-13.3l0,0
											c0-0.8,0.1-1.7,0.2-2.6c0-0.1,0-0.2,0-0.4c0.6-7.9,1.6-16.9,2.4-23.3l0,0c0.4-3.2,0.8-5.6,0.9-7.2v-0.3
											c0.1-0.8,0.2-1.4,0.2-1.4c-0.1-0.9-0.2-2-0.2-3.2v-1.2c0-1.6,0-3.2-0.1-4.7c0-0.3-0.1-0.5-0.1-0.8l0,0
											c0-0.3,0-0.5-0.1-0.8v-0.1c-0.2-1.8-0.6-3.3-1.2-4.5c-0.7-1.2-2.7-1.6-4.9-2.1c-2.1-0.4-4.5-0.9-5.9-2.2
											c-2.8-2.7-4.5-7.1-4.4-11.6c0.1-4.3,1.8-8.1,4.6-10.5c2-1.7,4.4-2.7,7.2-3c0.5,0,1.1-0.1,1.6-0.1c1,0,2.1,0.1,3.2,0.3
											l0.6,0.1l0.1-0.6c0.8-4.8,0.2-10.1-0.3-15.2c-0.2-2.1-0.4-4-0.5-6l74.1-0.4c0.9,4.4,2.1,8.9,3.3,13.3c0,0,0,0.1,0,0.2
											c2.6,9.7,5.3,19.8,5.3,29.6L349.3,127.8L349.3,127.8z M266.7,147.8v4.7c0.1-0.8,0.2-1.4,0.2-1.4
											C266.8,150.1,266.8,149,266.7,147.8L266.7,147.8z"/>
									</g>
									<path d="M301.6,119.8c0.2-1.5,1.5-2.7,3.1-2.5c1.5,0.2,2.6,1.5,2.5,3.1c-0.2,1.5-1.5,2.7-3.1,2.5
										C302.5,122.8,301.4,121.4,301.6,119.8L301.6,119.8z"/>
									<path d="M331.2,120.2c0.2-1.5,1.5-2.7,3.1-2.5c1.5,0.2,2.6,1.5,2.5,3.1s-1.5,2.7-3.1,2.5
										C332.2,123.1,331.1,121.8,331.2,120.2L331.2,120.2z"/>
									<path class="st6" d="M320.3,128c0.7,0.7,1.3,1.3,2,2c0.3,0.3,0.6,0.6,0.9,1c0.1,0.1,0.2,0.2,0.2,0.2c0-0.1,0,0.1,0,0.1
										c0-0.1,0,0.1,0,0.1c-0.6,1.2-1.9,2.3-3.2,3c-1.2,0.7-0.1,2.5,1.1,1.8c0.9-0.5,1.7-1.1,2.4-1.8c0.7-0.7,1.5-1.6,1.8-2.6
										c0.3-1.2-0.5-2.1-1.3-2.9c-0.8-0.8-1.6-1.7-2.4-2.5C320.8,125.5,319.3,127,320.3,128L320.3,128L320.3,128z"/>
									<path class="st6" d="M312.6,111.7c-3.9-1.8-8.5-2.1-12.5-0.5c-0.5,0.2-0.9,0.7-0.7,1.3c0.1,0.5,0.8,0.9,1.3,0.7
										c3.5-1.3,7.5-1.3,10.9,0.3c0.5,0.2,1.1,0.1,1.5-0.4C313.3,112.7,313.2,112,312.6,111.7L312.6,111.7z"/>
									<path class="st6" d="M328.4,114.1c2.7-2.1,6.5-2.2,9.3-0.2c0.5,0.3,1.2,0.1,1.5-0.4s0.1-1.1-0.4-1.5
										c-3.3-2.3-8.2-2.2-11.4,0.2c-0.5,0.4-0.7,0.9-0.4,1.5C327.2,114.1,327.9,114.4,328.4,114.1L328.4,114.1L328.4,114.1z"/>
									<path class="st6" d="M329.6,140.4c-5.4,4-13.4,3.8-18.4-0.8c-1-0.9-2.5,0.6-1.5,1.5c5.7,5.2,14.8,5.7,21,1.1
										C331.7,141.4,330.7,139.6,329.6,140.4L329.6,140.4L329.6,140.4z"/>
								</g>
								<path class="st7" d="M330.9,185.5c0,0-34.3,27.2-67.1-2.2c0,0-26.1,3.5-38.3,13c-12.2,9.6-17.7,273.9-17.7,273.9l186,3.6
									c0,0-1.3-217.5-38.3-268.3C355.5,205.4,350.6,190.5,330.9,185.5L330.9,185.5z"/>
								<g>
									<path class="st3" d="M258.3,467.7c-8.5-12.7-29.8-104.2-29.2-109.4c1.1-9.7-1.7-19.8,1.4-67.1L173.3,278
										c0,0-2.2,63.4,3.1,85.7c3.5,14.9,22.3,67.7,38.6,96.3c10.4,18.3,12,30.5,16.4,43.8c5.4,16,16.3,36.2,21.8,35.8
										c4.6-0.3,3.1-6.1,3.1-6.1s3.6,6.7,7.7,5.2c3.9-1.4,1.4-8,1.4-8s3.6,6.1,8.1,4.8c4.1-1.2,1.6-8.8,1.6-8.8s4.4,5.7,7.7,1.7
										c3.7-4.5-9.4-20.7-14.6-32.3L258.3,467.7L258.3,467.7z"/>
									<path class="st4" d="M276.1,508.7c-2.7-4.4-5.4-9-7.1-12.9l-5.6-16l-0.8-2.4l-0.8-2.4l-1.3-3.9l-1.3-3.7l-0.1-0.2
										c-3.2-4.8-8.2-20.6-13-38.7c-0.1-0.3-0.2-0.6-0.2-0.8c-0.1-0.3-0.1-0.5-0.2-0.8c-0.5-2.1-1.1-4.1-1.6-6.1
										c-0.1-0.5-0.3-1.1-0.4-1.6c-0.1-0.5-0.3-1.1-0.4-1.7c-7.2-27.8-13.4-56.9-13.2-59c0.4-3.5,0.3-6.9,0.1-12.1
										c-0.1-4.9-0.4-11.7-0.2-21.6c0-1.5,0.1-3,0.1-4.6c0.1-4.6,0.3-9.9,0.6-15.9c0.2-4,0.4-8.2,0.8-12.8v-0.7l-16.9-3.9
										l-28.8-6.6l-1-0.2l-0.9-0.2l-11.4-2.6v1c0,0.4-0.6,17.5-0.4,37.1c0.2,18.1,1,38.3,3.5,48.9c1.4,5.9,5.2,18,10.5,32.3
										c0.3,0.7,0.5,1.3,0.8,2.1v0.1c0.2,0.7,0.5,1.4,0.8,2.2c5.9,15.9,13.3,33.9,20.6,48.7c1.1,2.3,2.3,4.5,3.4,6.5
										c0.2,0.4,0.4,0.9,0.7,1.3s0.5,0.8,0.7,1.2c0.4,0.8,0.8,1.5,1.2,2.2c2,3.5,3.7,6.8,5.1,9.8c1.5,3.3,2.8,6.5,3.8,9.4
										c0.2,0.4,0.3,0.8,0.4,1.2c0.2,0.4,0.3,0.8,0.4,1.1c0.8,2.4,1.5,4.7,2.2,6.9c0.1,0.3,0.1,0.6,0.3,0.8c0,0.3,0.1,0.5,0.2,0.8
										c0.3,1,0.5,1.9,0.8,2.9c1,3.6,2,7,3.2,10.6c5.2,15.4,16.1,36.3,22.5,36.3h0.2c1.4-0.1,2.5-0.7,3.2-1.6
										c0.5-0.7,0.8-1.5,0.8-2.3c1.6,1.9,4.1,4,6.9,3c1-0.4,1.8-1.1,2.2-2.1c0.5-1.1,0.6-2.3,0.5-3.5c1.6,1.6,4,3.1,6.7,2.3
										c1.1-0.3,1.8-0.9,2.4-1.9c0.8-1.5,0.7-3.5,0.5-5.2c1,0.8,2.2,1.4,3.5,1.4s2.4-0.6,3.4-1.8
										C286.2,525.5,281.5,517.7,276.1,508.7L276.1,508.7z M282.1,527.8c-0.6,0.8-1.3,1.1-2.1,1.1c-1.8,0-3.7-2-4.3-2.8l-3-4
										l1.6,4.8c0.4,1.2,1.2,4.8,0.3,6.7c-0.3,0.5-0.7,0.9-1.3,1.1c-3.8,1.1-7.1-4.4-7.1-4.4l-1.5,0.7c0.4,1,1.2,4,0.3,5.7
										c-0.3,0.6-0.7,1-1.2,1.2c-3.3,1.2-6.6-4.8-6.7-4.8l-3.3-6.1l1.8,6.7c0.2,0.8,0.5,2.9-0.4,4.1c-0.4,0.6-1.1,0.9-2,0.9
										c-4.4,0.4-15-17.4-21-35.2c-1.2-3.5-2.1-6.9-3.2-10.5c-0.3-0.9-0.5-1.8-0.8-2.7c-0.1-0.3-0.1-0.5-0.3-0.8
										c0-0.3-0.1-0.5-0.2-0.8c-0.8-2.8-1.7-5.8-2.8-8.9c-0.1-0.4-0.2-0.8-0.4-1.2c-0.1-0.4-0.3-0.8-0.4-1.2
										c-0.9-2.3-1.8-4.6-3-7.1c-1.5-3.3-3.2-6.9-5.4-10.7c-0.8-1.3-1.5-2.7-2.3-4.1c-0.2-0.4-0.5-0.8-0.7-1.2l0,0
										c-0.2-0.4-0.4-0.8-0.7-1.3c-1.2-2.4-2.5-4.9-3.7-7.5c-7.5-15.4-14.9-33.8-20.6-49.6c-0.3-0.7-0.5-1.4-0.8-2.1l0,0
										c-0.3-0.8-0.5-1.5-0.8-2.2c-4.4-12.4-7.7-22.7-8.9-27.9c-2.5-10.5-3.3-30.3-3.4-48.3c-0.2-16.9,0.2-32.1,0.4-36.1l10.1,2.3
										l0.8,0.2l1,0.2l28.4,6.5l15.2,3.5c-0.4,5.6-0.7,10.8-0.9,15.4c-0.2,4-0.3,7.6-0.4,10.9v0.1c0,0.5,0,1,0,1.5
										c-0.4,12.7-0.1,20.7,0,26.4c0.2,5.2,0.3,8.5-0.1,11.9c-0.4,3.6,6.4,34.4,13.9,62.6c0.2,0.6,0.3,1.1,0.4,1.6l0,0
										c0.2,0.5,0.3,1.1,0.4,1.6c0.3,1,0.6,2.1,0.8,3.1c0,0.3,0.1,0.5,0.2,0.8c0.1,0.3,0.2,0.6,0.2,0.8
										c5.1,18.4,10.1,34.4,13.3,39.2l1.1,3l3.1,9l0.8,2.4v0.1l0.8,2.3l4,11.6c1.8,4.1,4.6,8.7,7.3,13.1
										C279.1,517,284.1,525.4,282.1,527.8L282.1,527.8z"/>
								</g>
								<path class="st7" d="M263.8,183.2l-28.9,137.2l-75.6-6.5c7.9-22.8,15.6-45.7,24.8-68.1c5-12.3,9.2-26.4,17.4-37.4
									c7.6-10.2,18.9-14.8,30.9-17.7C234.9,190.2,263.4,184.9,263.8,183.2L263.8,183.2z"/>
								<g>
									<path class="st3" d="M546.8,190.4c-13.8,6.6-107.4,14.5-112.5,13.1c-9.4-2.5-19.8-1.2-66.2-11.1l-21.3,54.7
										c0,0,62.5,11.3,85.2,9.3c15.2-1.3,70.2-12.3,100.9-24.3c19.6-7.7,31.9-7.4,45.7-9.9c16.6-3,38.2-10.9,38.6-16.4
										c0.3-4.6-5.6-3.9-5.6-3.9s7.1-2.6,6.2-6.9c-0.8-4-7.7-2.6-7.7-2.6s6.5-2.7,5.9-7.3c-0.6-4.3-8.5-2.9-8.5-2.9
										s6.3-3.5,2.8-7.4c-4-4.3-21.8,6.3-34,9.7L546.8,190.4L546.8,190.4z"/>
									<path class="st4" d="M618.1,205.9c0.1-1.4-0.3-2.6-1.2-3.4c-0.6-0.6-1.4-1-2.1-1.1c2.1-1.3,4.6-3.5,4-6.4
										c-0.2-1.1-0.8-1.9-1.8-2.5c-0.9-0.6-2.2-0.9-3.3-1c1.8-1.4,3.6-3.5,3.2-6.3c-0.2-1.1-0.6-1.9-1.6-2.6c-1.3-1-3.3-1.2-5-1.2
										c0.9-0.8,1.7-2,1.9-3.3s-0.2-2.5-1.2-3.6c-3-3.2-11.4,0.3-21.1,4.3c-4.7,2-9.6,4-13.8,5.2l-29.5,5.7l-0.2,0.1
										c-14,6.7-108.1,14.1-111.8,13.1c-3.2-0.8-6.4-1.2-11.1-1.8c-0.3-0.1-0.6-0.1-0.9-0.1c-9.1-1-24.3-2.8-54.2-9.2l-0.7-0.1
										l-21.9,56.4l1,0.2c0.5,0.1,37,6.7,64.2,8.9c8.4,0.7,15.9,1,21.3,0.5c14.9-1.3,70-12.2,101.1-24.4
										c14.2-5.6,24.6-6.9,34.6-8.2c3.7-0.5,7.3-1,11-1.6C594.9,220.3,617.6,212.3,618.1,205.9L618.1,205.9z M567.6,223.1
										c-10.1,1.3-20.5,2.7-35,8.3c-31,12.1-85.8,22.9-100.6,24.2c-5.2,0.4-12.5,0.2-20.8-0.5c-24.6-2-57.1-7.6-63.2-8.7
										l20.7-53.1c29.6,6.3,44.6,8.1,53.7,9.1c0.3,0.1,0.5,0.1,0.8,0.1c4.7,0.5,7.9,0.9,11,1.7c6.2,1.6,99.1-6.7,112.9-13.1
										l29.5-5.7c4.3-1.2,9.2-3.3,14-5.3c7.8-3.2,16.7-6.9,19-4.8l0.1,0.1c0.6,0.8,0.9,1.5,0.8,2.2c-0.3,1.7-2.6,3.4-3.4,3.8
										l-4.3,2.5l4.9-0.9c1.3-0.2,4.9-0.5,6.7,0.7c0.5,0.4,0.8,0.8,0.9,1.4c0.5,3.9-5.3,6.4-5.4,6.4l0.5,1.6
										c1-0.2,4.1-0.6,5.7,0.5c0.5,0.4,0.9,0.8,1,1.5c0.7,3.4-5.7,5.9-5.7,5.9l-6.5,2.4l7-0.8c0.8-0.1,3-0.1,4,0.9
										c0.5,0.5,0.8,1.2,0.7,2.1c-0.3,4.4-19.4,12.3-37.8,15.6C574.8,222.1,571.3,222.6,567.6,223.1L567.6,223.1z"/>
								</g>
								<path class="st2" d="M253.1,83.2c1.6-6.6,6.4-12.5,12.5-15.3c0.3-0.2,0.7-0.3,1-0.4c4.5-8.4,10.5-13.1,22.6-13.8
									c16.6-1,35.6,4.6,44.3,2.5c4.8-2.2,9.7-5.8,10.8-11.7c0,0,4.2,9.7-0.3,17.4c4.5,1.8,8.2,7,10.2,10.9
									c2.7,5.4,2.4,11.6,0.4,17.1c-2.5,6.5-9,7.6-15.2,8.9c-6.7,1.4-13.5,2.3-20.2,2.7c-6.3,0.4-12.7,0.3-19.1-0.2
									c-5.9-0.5-12.4-0.9-17.4-4.3c-0.1,0-0.1-0.1-0.2-0.1c-2.6,7.8-8.4,26.7-5.3,33.9c3.9,9.2-6.6,3.2-7-7.1
									c-0.2-5.9-5.6-11.4-8.9-18.6c-1.2,0.1-2.3-0.3-3.1-1.2C253.3,98.1,251.3,90.5,253.1,83.2L253.1,83.2z"/>
								<polygon class="st7" points="330.8,185.4 439.9,185.8 449.4,273.3 349.3,293.2 								"/>
								<path class="st2" d="M242.6,188.8c5,2.9,8.8,20.3,10.4,25.2c11.7,36.5,10.6,78.2-18.2,106.5l-5.9,4.9l-1.4-14.8
									c-0.2-1.6,2.6-5.3,3.2-6.7c2.9-6.4,5.4-12.9,7.4-19.6c10-32.6-1.3-61-10.1-92.3C228.1,192,231.2,182.3,242.6,188.8
									L242.6,188.8z"/>
								<path class="st2" d="M346.8,178.2c5.1,0.8,13.8,14.4,16.7,18c21.3,27.2,33.8,62.8,19.2,95.7l-1.3,2.4
									c-0.4-2.6-0.7-5.4-1.2-8c-1.2-5.7-2.6-11.7-4.1-17.5c-3.2-12.9-4.3-25.8-9.9-38c-5.9-13-14.6-24.5-23.1-35.9
									c-2.4-3.2-4.8-6.4-7.2-9.6C335.8,185.4,335.3,176.3,346.8,178.2L346.8,178.2z"/>
							</g>
							<g>
								<g>
									<path class="st7" d="M1720,122c0-0.7,0.1-1.5,0.1-2.2c0-24.6-22.1-44.5-49.3-44.5c-22,0-40.6,13-47,30.8
										c-15.3,2.7-25.5,8.3-26.5,16.1c-1.3,10.6,14.8,22,38.8,29.3c8.2,2.5,17.3,4.5,26.9,5.8c11.1,1.5,21.7,2,31.3,1.6
										c23-1.1,39.5-7.6,40.8-17.6C1735.9,134.8,1730.1,128,1720,122L1720,122z"/>
									<path class="st4" d="M1720.6,121.7c0-0.6,0-1.3,0-1.9c0-24.9-22.4-45.1-49.9-45.1c-21.6,0-40.6,12.4-47.4,30.9
										c-16,2.8-25.6,8.8-26.6,16.5c-0.9,7.2,6,15,18.5,21.6l0,0c2.9,1.5,6,3,9.5,4.4c0.2,0,0.3,0.1,0.5,0.2
										c0.2,0,0.4,0.1,0.6,0.2c3.1,1.2,6.5,2.4,10.1,3.5c0.5,0.2,1,0.3,1.5,0.4l0,0c1.2,0.4,2.4,0.7,3.7,1.1l0,0
										c6.9,1.8,14.2,3.3,21.7,4.3c1.5,0.2,2.9,0.4,4.3,0.5c0.3,0.1,0.6,0.1,0.9,0.1c5.2,0.6,10.3,1,15.2,1
										c1.3,0.1,2.5,0.1,3.7,0.1c2.4,0,4.9-0.1,7.2-0.2c3-0.1,5.9-0.4,8.6-0.7c0.2,0,0.4,0,0.6-0.1c0.2,0,0.4,0,0.6-0.1
										c6.1-0.8,11.5-2,16-3.5c7-2.4,11.8-5.7,14.2-9.7c0.8-1.3,1.2-2.7,1.4-4.1C1736.5,134.9,1731.1,127.9,1720.6,121.7
										L1720.6,121.7z M1734.5,141.2c-0.2,1.3-0.6,2.5-1.3,3.7c-2.2,3.7-6.8,6.8-13.5,9.1c-4.5,1.5-9.7,2.7-15.8,3.5
										c-0.2,0-0.4,0.1-0.6,0.1s-0.4,0-0.6,0.1c-2.7,0.3-5.5,0.5-8.4,0.7c-3.6,0.2-7.4,0.2-11.1,0.1c-6.5-0.1-13.2-0.7-20-1.6
										c-9.4-1.3-18.5-3.3-26.8-5.8c-3.6-1.1-7-2.3-10.1-3.5c-0.2-0.1-0.4-0.2-0.5-0.2c-0.2-0.1-0.4-0.2-0.6-0.2
										c-3.6-1.4-6.8-2.9-9.8-4.5c-11.8-6.3-18.3-13.6-17.4-20.2c0.9-7.2,10.4-12.9,26-15.6h0.4l0.1-0.3
										c6.5-18.2,25.1-30.5,46.4-30.5c26.9,0,48.8,19.7,48.8,44c0,0.7,0,1.5-0.1,2.2v0.4l0.3,0.2
										C1730,128.5,1735.3,135.2,1734.5,141.2L1734.5,141.2z"/>
								</g>
								<path class="st2" d="M1651.4,102.6c4.4-2.1,8-5.3,12.9-6.3c5.5-1.1,11.4,0,16.4,2.6c8.5,4.5,14.4,12.5,20.1,20.2
									s11.6,15.7,20.1,20.2c6.1,3.2,13.4,4.6,18.2,9.6c10.1,10.6,2.2,29.6,10.4,41.8c5.2,7.7,15.1,10.2,23.9,13.1
									c8.8,2.8,18.5,7.8,20.4,16.8c1.6,7.6-3.2,15.4-9.7,19.6c-6.5,4.2-14.4,5.5-22.1,6.6c-12.5,1.7-25.1,2.9-37.6,1.1
									c-12.4-1.8-24.8-6.8-33.4-15.9c-8.3-8.6-13.2-20.8-23.6-26.8c-8.1-4.6-17.9-4.5-27.1-5.5c-9.3-1-19.4-3.9-24.1-12
									c-5.2-8.9-1.6-20.1-0.8-30.4c0.6-8.5-0.8-17.3,1-25.6C1620.1,113.6,1635.8,107.6,1651.4,102.6L1651.4,102.6L1651.4,102.6z"
									/>
								<g>
									<path class="st3" d="M1622.9,167.5c-0.1-13.2,4.7-26.8,7.1-39.5l60.4,0.4c-0.3,6.2-1.5,13.3-0.6,19.4
										c3.6-0.6,7.2-0.1,10,2.6c5.2,4.9,5,15.5,0.1,20.7c-2.3,2.5-7.6,1.9-8.6,3.8c-4.2,7.9-4.6,17.2-3,25.9
										c1.4,7.6,7.8,15.8,6.2,23.5c-1.5,7.5-15.5,41.1-33.3,41.1c-5.6,0-14.4,1.5-18.5,0c-8.5-3-4.2-24.9-3.1-34.8l1.9-27.6
										c0-0.5-4.9-4.7-5.6-5.4c-6.7-7.8-11.8-15.4-12.8-25.9C1623,170.3,1622.9,168.9,1622.9,167.5L1622.9,167.5z"/>
									<path class="st4" d="M1680.6,128.4l-0.4,0.6h1.4c0-0.2,0.1-0.4,0.1-0.6H1680.6L1680.6,128.4z M1680.6,128.4l-0.4,0.6h1.4
										c0-0.2,0.1-0.4,0.1-0.6H1680.6L1680.6,128.4z M1691.9,175.2c0.4-0.7,1.7-1,3.2-1.4c1.9-0.4,4-0.9,5.3-2.3
										c3.1-3.2,4.3-8.3,3.7-12.9c0-0.2,0-0.4,0-0.6c0-0.2-0.1-0.4-0.1-0.6c-0.5-2.9-1.8-5.5-3.7-7.4c-2.5-2.5-5.9-3.4-9.9-2.9
										c-0.5-4-0.1-8.4,0.3-12.8c0.2-2.1,0.4-4,0.4-5.9v-0.6l-9.1-0.1h-0.8l-51.5-0.4l-0.1,0.5c-0.8,4-1.7,8-2.8,12.3
										c-0.3,1.1-0.5,2.2-0.8,3.3c-0.3,1.2-0.5,2.3-0.8,3.5c0,0.2-0.1,0.4-0.1,0.6s-0.1,0.4-0.1,0.6c-1.4,6.3-2.5,12.6-2.5,18.9
										v0.5c0,1.4,0.1,2.8,0.2,4.1c1,10.4,5.9,18,13,26.3c0.2,0.2,0.7,0.7,1.5,1.4l0,0c0.2,0.2,0.3,0.3,0.5,0.5
										c1.2,1,3,2.7,3.4,3.2c0,0.7-0.3,3.8-0.6,7.8c0,0.8-0.1,1.5-0.2,2.4c0,0.4-0.1,0.9-0.1,1.4c0,0.2,0,0.5,0,0.8v0.1
										c0,0.2,0,0.5-0.1,0.7c-0.2,3.4-0.5,6.9-0.6,9.6l0,0c-0.2,2.8-0.4,4.7-0.4,4.7c-0.1,1.4-0.4,3-0.6,4.7
										c-0.6,4.5-1.3,9.8-1.4,14.9l0,0c-0.2,7.5,0.8,14.1,5.5,15.8c1.2,0.4,2.6,0.6,4.2,0.6c0.4,0,0.9,0,1.4,0
										c2.2,0,4.6-0.2,7-0.4c2.2-0.2,4.3-0.3,6.1-0.3c0.5,0,1,0,1.6-0.1c10.2-1.1,18.9-12.2,24.6-22.9c0.3-0.6,0.6-1.2,0.9-1.7
										c0.4-0.7,0.7-1.3,1-2c1-2.1,2-4.2,2.7-6c1.6-3.9,2.7-7.2,3-8.9c0.8-4.2-0.6-8.4-2.3-12.6c-0.1-0.2-0.2-0.5-0.3-0.8
										c-0.1-0.3-0.2-0.6-0.3-0.8c-0.1-0.2-0.2-0.5-0.3-0.7c-1.3-3.1-2.5-5.9-3-8.8c-1.2-6.6-1.7-16.1,2.6-24.7
										C1691.6,175.7,1691.7,175.4,1691.9,175.2L1691.9,175.2z M1690.7,174.9c-4.7,9-4.3,19.1-3,26c0.5,2.9,1.7,5.8,2.9,8.6
										c0,0.1,0.1,0.3,0.2,0.4c0.1,0.3,0.2,0.6,0.4,0.8l0,0c0.1,0.2,0.2,0.5,0.4,0.8c1.7,4.2,3.2,8.6,2.4,12.7
										c-0.4,1.8-1.3,4.7-2.7,8.2c-0.8,2-1.8,4.1-2.9,6.3c-0.3,0.6-0.6,1.3-1,1.9c-0.3,0.6-0.6,1.2-1,1.7
										c-5.8,10.7-14.6,21.8-24.3,22.4c-0.3,0-0.6,0-0.9,0c-1.8,0-3.9,0.1-6.2,0.3c-3.2,0.2-6.4,0.4-9,0.2l0,0
										c-1.2-0.1-2.2-0.2-3.1-0.6c-3.7-1.3-4.8-6.6-4.8-12.8c0-5.4,0.8-11.6,1.5-16.6c0.2-1.7,0.4-3.4,0.6-4.8
										c0.1-0.9,0.1-1.8,0.2-2.6l0,0c0.4-4.5,0.6-8.2,0.8-11.2c0-0.2,0.1-0.5,0.1-0.7v-0.1c0-0.3,0-0.6,0.1-0.9
										c0-0.4,0-0.8,0.1-1.2c0-0.8,0.1-1.6,0.2-2.3c0.6-8.1,0.6-8.4,0.6-8.4c0-0.4-0.2-0.8-3.1-3.4c-0.2-0.2-0.5-0.4-0.7-0.6
										c-0.8-0.8-1.7-1.6-2-1.8c-6.9-8.1-11.7-15.5-12.7-25.6c-0.1-1.3-0.2-2.7-0.2-4.1c0-6.2,1-12.6,2.4-19
										c0-0.2,0.1-0.4,0.1-0.6c0-0.2,0.1-0.4,0.1-0.6c0.3-1.3,0.6-2.5,0.9-3.8c0.3-1,0.5-2.1,0.8-3.1c1-3.9,2-8,2.7-11.9l49.6,0.3
										h1.4h8.2c-0.1,1.7-0.2,3.5-0.4,5.3c-0.4,4.6-0.8,9.3-0.2,13.6l0.1,0.6l0.6-0.1c3.9-0.7,7.1,0.2,9.5,2.5
										c1.7,1.7,2.9,4.1,3.3,6.7c0.1,0.2,0.1,0.4,0.1,0.6c0,0.2,0.1,0.4,0.1,0.6c0.5,4.3-0.6,9-3.4,12c-1.1,1.2-3,1.6-4.7,2
										c-1.8,0.4-3.3,0.8-3.9,1.9C1690.8,174.7,1690.7,174.8,1690.7,174.9L1690.7,174.9z M1680.6,128.4l-0.4,0.6h1.4
										c0-0.2,0.1-0.4,0.1-0.6H1680.6L1680.6,128.4z"/>
								</g>
								<path d="M1666.2,160.5c-0.1-1.4-1.4-2.4-2.7-2.2s-2.3,1.4-2.2,2.8c0.1,1.4,1.4,2.4,2.7,2.2
									C1665.4,163.1,1666.3,161.8,1666.2,160.5L1666.2,160.5z"/>
								<path d="M1639.6,160.8c-0.1-1.4-1.4-2.4-2.7-2.2c-1.4,0.1-2.3,1.4-2.2,2.8c0.1,1.4,1.4,2.4,2.7,2.2
									C1638.8,163.4,1639.8,162.2,1639.6,160.8L1639.6,160.8z"/>
								<path class="st6" d="M1648.1,166.4c-0.7,0.7-1.4,1.4-2.1,2.2c-0.7,0.7-1.5,1.5-1.2,2.6c0.2,0.9,0.9,1.7,1.6,2.3
									c0.6,0.6,1.4,1.2,2.2,1.7c1.1,0.6,2-1,1-1.6c-1.1-0.6-2.3-1.5-2.8-2.7c-0.1-0.1-0.1-0.1,0-0.2c-0.1,0.1,0.1-0.1,0-0.1
									l0.1-0.1c0.3-0.3,0.6-0.6,0.8-0.9c0.6-0.6,1.2-1.2,1.8-1.9C1650.3,166.9,1648.9,165.5,1648.1,166.4L1648.1,166.4
									L1648.1,166.4z"/>
								<path class="st6" d="M1660.5,154.6c1.8-0.8,3.8-0.9,5.7-0.1c0.5,0.2,1-0.2,1.2-0.7c0.1-0.5-0.2-1-0.7-1.2
									c-2.3-0.9-4.9-0.7-7.2,0.3c-0.5,0.2-0.6,0.9-0.3,1.3C1659.5,154.7,1660,154.8,1660.5,154.6L1660.5,154.6L1660.5,154.6z"/>
								<path class="st6" d="M1634.4,155c1.8-0.8,3.8-0.9,5.7-0.1c0.5,0.2,1-0.2,1.2-0.7c0.1-0.5-0.2-1-0.7-1.2
									c-2.3-0.9-4.9-0.7-7.2,0.3c-0.5,0.2-0.6,0.9-0.3,1.3C1633.4,155.1,1633.9,155.2,1634.4,155L1634.4,155L1634.4,155z"/>
								<path class="st6" d="M1642.3,182.5c4.3,3.2,10.6,2.7,14.5-0.8c0.9-0.8-0.4-2.2-1.4-1.4c-3.3,3-8.6,3.2-12.2,0.5
									c-0.4-0.3-1.1-0.1-1.3,0.3C1641.7,181.6,1641.9,182.2,1642.3,182.5L1642.3,182.5z"/>
								<path class="st2" d="M1592.3,786.8c0,0-45.5,14.5-47.5,18.4c-1.9,3.8,0,12.2,0,12.2l99.8,0.1l-4.8-39.8L1592.3,786.8
									L1592.3,786.8z"/>
								<path class="st2" d="M1743.7,782.3c0,0,0.5,5.6-1.3,8.3c-1.7,2.7-6.5,5.2-8.2,12.5c-1.7,7.2-0.9,13.2-0.9,13.2
									s33.3,2.7,43.9-0.3c3.2-0.9,10-6.5,10.2-8.7s-2.7-29.7-2.7-29.7L1743.7,782.3L1743.7,782.3z"/>
								<path class="st5" d="M1601.9,399.8l-21.9,93.8c-10.7,33.1-16.9,67.8-18.4,102.8L1563,791l83.1-0.9l-11-222.6l30.8-72.2
									l18,84.3c2.8,13,41.9,206.9,41.9,206.9l89.1-6.8l-63-229l-9.2-148.6L1601.9,399.8L1601.9,399.8z"/>
								<g>
									<path class="st3" d="M1832.5,485.2c0.2-0.2,0.6-0.1,0.8,0l7.4,6c1.2,1,3,0.9,4-0.2c1.1-1.2,1-3.1-0.3-4.2l-1-0.8
										c-4.1-3.3-7.5-7.3-10.1-11.8l-9.1-15.6c-3.9,2.4-6.1,3.8-19.7,13.9c-1.6,0.6-3.4,1.7-3.6,2.7l-2,18.4
										c-0.4,1.5,0.6,3.1,2.2,3.4c1.5,0.4,3.1-0.6,3.4-2.2l3.3-7.6c1.9,3,12.5,23,12.5,23c0.7,1.5,2.5,2.1,4,1.3
										c1.3-0.7,1.8-2.4,1.2-3.8l-6.2-13.5c-0.1-0.3,0-0.7,0.3-0.9l0.6-0.4c0.3-0.2,0.8-0.1,1,0.2l8.5,13.5
										c0.9,1.4,2.8,1.8,4.1,0.8c1.2-0.9,1.5-2.6,0.7-3.9l-8.5-13.4c-0.2-0.3-0.1-0.8,0.2-1l0.2-0.1c0.3-0.2,0.6-0.1,0.9,0.1
										l9.9,10.4c1.1,1.2,3.1,1.4,4.5,0.6c1.4-0.9,1.6-2.5,0.5-3.7l-9.7-10.2C1832,486,1832.1,485.5,1832.5,485.2L1832.5,485.2z"
										/>
									<path class="st4" d="M1845.2,491.6c0.7-0.8,1-1.7,1-2.7c-0.1-1-0.6-1.9-1.4-2.5l-1-0.8c-3.1-2.5-5.8-5.4-8-8.6
										c-0.7-1-1.3-2-1.9-3l-1.4-2.4l0,0l-3.1-5.3l-0.4-0.7l-0.4-0.7l-3.5-5.9l-0.7-1.2l-0.7,0.4c-0.2,0.2-0.4,0.3-0.7,0.4
										c-2.3,1.4-4.2,2.7-8.9,6.1c-0.9,0.6-1.9,1.4-3.1,2.3c-1.4,1-3.1,2.3-5,3.7c-0.6,0.5-1.3,1-2,1.5c-1.4,0.5-3.7,1.7-4,3.3
										l-0.2,1.6l-0.1,0.8l-0.1,0.9l-1.6,15c-0.4,2,0.8,3.9,2.7,4.3c2,0.4,3.9-0.8,4.3-2.6l2.7-6.2c3,5.2,11.6,21.6,11.7,21.7
										c0.4,0.9,1.2,1.6,2.2,2c0.4,0.1,0.8,0.2,1.2,0.2c0.6,0,1.2-0.1,1.7-0.4c1.7-0.9,2.3-3,1.5-4.8l-6.2-13.4l0.5-0.4l8.6,13.5
										c0.5,0.8,1.4,1.4,2.4,1.6s2,0,2.8-0.6c1.5-1.1,1.9-3.3,0.9-5l-8.5-13.3l0.1-0.1l9.9,10.4c1.4,1.4,3.8,1.7,5.4,0.7
										c0.8-0.6,1.4-1.4,1.5-2.3c0.1-1-0.2-1.9-0.9-2.6l-9.1-9.6l6.8,5.4C1841.7,493.1,1844,493,1845.2,491.6L1845.2,491.6z
										 M1841.1,499.5c-1,0.7-2.7,0.5-3.5-0.4l-9.9-10.4c-0.5-0.5-1.2-0.6-1.8-0.2l-0.2,0.1c-0.7,0.4-0.9,1.3-0.5,2l8.5,13.4
										c0.6,1,0.4,2.3-0.5,2.9c-0.5,0.4-1,0.5-1.6,0.4s-1.1-0.4-1.4-0.9l-8.5-13.5c-0.2-0.3-0.6-0.6-0.9-0.6
										c-0.4-0.1-0.8,0-1.1,0.2l-0.6,0.4c-0.6,0.4-0.8,1.2-0.5,1.9l6.2,13.5c0.5,1,0.1,2.3-0.8,2.8c-0.6,0.3-1.1,0.3-1.7,0.1
										c-0.6-0.2-1-0.6-1.2-1.2c-0.4-0.8-10.7-20.1-12.6-23.1l-0.8-1.2l-3.9,9.1c-0.2,1.2-1.4,1.8-2.5,1.6
										c-1.1-0.2-1.8-1.4-1.5-2.6l1.6-15.6l0.1-0.9l0.1-0.8l0.1-1c0.1-0.6,1.4-1.5,3.1-2.1l0.2-0.1c1.1-0.8,2.1-1.5,3.1-2.3l0,0
										c2-1.4,3.5-2.7,5-3.7c0.9-0.6,1.6-1.2,2.3-1.7c4.5-3.2,6.3-4.4,8.6-5.8l3.4,5.8l0.4,0.7l0.4,0.7l2.4,4.2l0,0l2.1,3.7
										c0.4,0.6,0.8,1.2,1.2,1.8l0,0c2.5,3.9,5.5,7.2,9.1,10.1l1,0.8c0.5,0.4,0.8,0.9,0.8,1.5s-0.2,1.2-0.6,1.6
										c-0.8,0.8-2,0.9-2.9,0.1l-7.4-6c-0.3-0.2-0.6-0.3-0.9-0.3s-0.6,0-0.8,0.2c-0.4,0.2-0.6,0.6-0.6,1c-0.1,0.4,0.1,0.9,0.4,1.2
										l9.7,10.2c0.4,0.4,0.6,0.9,0.5,1.4C1841.9,498.8,1841.6,499.2,1841.1,499.5L1841.1,499.5z"/>
								</g>
								<g>
									<path class="st3" d="M1457.3,320.6c-0.1,0.3-0.3,0.6-0.7,0.6l-10.8,1.5c-1.7,0.2-3.1,1.8-2.9,3.5c0.1,1.9,1.9,3.3,3.8,3
										l1.5-0.2c5.9-0.9,12-0.6,17.8,0.7l20.2,4.5c1-5.1,1.5-8.1,3.7-27.4c0.8-1.8,1.2-4.1,0.6-5.1l-13.9-16
										c-1-1.5-3.1-1.9-4.6-0.9s-1.9,3.1-0.9,4.6l3.8,8.7c-4-0.7-29.1-7.5-29.1-7.5c-1.8-0.6-3.7,0.5-4.2,2.3
										c-0.4,1.7,0.6,3.4,2.3,4l16.2,5.3c0.4,0.1,0.6,0.5,0.5,0.9l-0.2,0.8c-0.1,0.4-0.5,0.7-0.9,0.6l-18-3.4
										c-1.9-0.4-3.6,0.9-3.9,2.8c-0.2,1.7,1,3.3,2.8,3.6l17.9,3.4c0.4,0.1,0.7,0.5,0.6,0.9l-0.1,0.3c-0.1,0.4-0.4,0.6-0.8,0.7
										l-16.4,0.2c-1.8,0-3.6,1.5-4,3.3c-0.3,1.8,0.9,3.3,2.7,3.3l16.1-0.2C1457,319.6,1457.4,320,1457.3,320.6L1457.3,320.6z"/>
									<path class="st4" d="M1491,301.3l-2.8-3.3l-0.7-0.8l-0.7-0.8l-9.6-11.1c-0.6-0.9-1.5-1.5-2.6-1.7s-2.2,0-3.1,0.6
										c-1.8,1.2-2.3,3.8-1.1,5.5l3.2,7.4c-6.6-1.5-27.4-7.1-27.6-7.2c-1-0.4-2.2-0.2-3.2,0.3c-1,0.6-1.7,1.5-2,2.6
										c-0.5,2,0.7,4.2,2.8,4.9l16.2,5.4l-0.2,0.9l-18-3.4c-1.1-0.2-2.2,0.1-3.1,0.7c-0.9,0.7-1.5,1.7-1.6,2.8
										c-0.2,2.1,1.2,4.1,3.4,4.5l17.9,3.4l-0.1,0.3l-16.4,0.2c-2.2,0-4.3,1.8-4.7,4c-0.2,1.1,0.1,2.2,0.7,2.9
										c0.7,0.8,1.7,1.2,2.8,1.2l16.1-0.1l0,0l-10.8,1.5c-2.2,0.3-3.7,2.2-3.6,4.3c0.1,1.2,0.6,2.2,1.5,2.9c0.9,0.7,2,1,3.1,0.8
										l1.5-0.2c5.9-0.8,11.8-0.6,17.5,0.7l17,3.8l0.7,0.2l0.8,0.2l2.5,0.6l0.2-0.8c1-5.1,1.5-7.9,3.7-27.4
										C1491.3,305.5,1492.1,302.8,1491,301.3L1491,301.3z M1489.1,306.8c-2,18.5-2.5,22-3.5,26.6l-1.2-0.3l-0.7-0.2l-0.8-0.2
										l-16.8-3.8c-3.6-0.8-7.2-1.2-10.9-1.2c-2.4,0-4.8,0.2-7.2,0.5l-1.5,0.2c-0.7,0.1-1.4-0.1-1.9-0.5c-0.6-0.4-0.9-1.1-1-1.8
										c-0.1-1.3,0.9-2.5,2.3-2.7l10.8-1.5c0.7-0.1,1.2-0.6,1.3-1.2c0.1-0.5,0-1-0.3-1.3c-0.3-0.4-0.8-0.6-1.2-0.6l0,0l-16.1,0.2
										c-0.6,0-1.2-0.2-1.6-0.7c-0.4-0.4-0.5-1-0.4-1.7c0.3-1.5,1.7-2.7,3.2-2.7l16.4-0.2c0.8,0,1.4-0.6,1.5-1.3v-0.3
										c0.1-0.4,0-0.8-0.2-1.2c-0.2-0.4-0.6-0.6-1-0.7l-17.9-3.4c-1.4-0.2-2.3-1.5-2.2-2.8c0.1-0.7,0.4-1.3,1-1.7
										c0.6-0.4,1.3-0.6,2-0.4l18,3.4c0.4,0.1,0.8,0,1.2-0.2c0.4-0.2,0.6-0.6,0.6-1l0.2-0.8c0.2-0.8-0.3-1.5-1-1.8l-16.2-5.3
										c-1.4-0.4-2.1-1.8-1.8-3.1c0.2-0.7,0.6-1.2,1.2-1.6c0.6-0.3,1.4-0.4,2-0.2c1,0.3,25.2,6.8,29.2,7.5l1.4,0.3l-4.5-10.1
										c-0.8-1.2-0.5-2.7,0.7-3.5c0.6-0.4,1.2-0.5,1.9-0.4c0.6,0.2,1.2,0.5,1.7,1.2l10.6,12.2l0.7,0.8l0.7,0.8l1.8,2.1
										c0.4,0.6,0.2,2.4-0.6,4.4L1489.1,306.8L1489.1,306.8z"/>
								</g>
								<g>
									<path class="st3" d="M1840.7,457.9c0,0-36.9,26.5-56.6,19.3c0,0-27.5-126.6-30-135.7c-1.2-4.4-10.2-15.3-19.6-27l8.3,93.6
										c-2.4,2-11.9,8.5-15.1,9.6c-10.1,3.6-24.2,3.9-36.9,4.3c-44.1,1.2-94.4-15.3-94.4-15.3s4-45.6,6.4-80.6
										c-11,8.5-30.8,28-46.9,29.1c-25.1,1.8-72.6-17.3-72.6-17.3c2.5-21.2,4.8-44.8,4.8-44.8s64.7,15,69.2,11.9
										c3.6-2.5,6.1-8.7,8.4-12.3c5-8.1,9.8-16.3,14.7-24.5c6.4-10.7,12.1-21.9,19.7-31.8c3.8-5,8.1-9.6,13-13.4
										c5.3-4.1,11.7-4.9,18.1-6.1c3.1-0.6,6.1-1,9.2-1.4c8.6,6.3,29.8,17.7,50.3-4.8c0.6,0.6,12.4,1.6,14.7,1.9
										c5.4,0.7,10.7,1.8,15.9,3.5c10.5,3.4,17.7,8.9,24.2,17.7c12.5,17,23.1,35,32.7,53.8c8,15.6,16.1,31.8,21.1,48.7
										C1806.9,362,1840.7,457.9,1840.7,457.9L1840.7,457.9z"/>
									<path class="st4" d="M1778.3,447.4c-0.5-2.1-1-4.3-1.4-6.5c-8.3-38.2-20.5-93.7-22.1-99.6c-1.2-4.2-8.8-13.6-17.6-24.6
										l-0.3-0.4l-3.4-4.3l0.2,2.4l0,0l3.8,43.3l0.1,1l0,0l0.1,1l0.6,7.3l0.4,4.7l1.2,13.8l0.4,4.7v0.1l1,11.6l0.5,5.7
										c-2.9,2.3-11.6,8.2-14.5,9.2c-2.5,0.9-5.3,1.6-8.3,2.1c-0.3,0.1-0.6,0.1-0.9,0.2c-0.3,0-0.6,0.1-1,0.2
										c-1,0.2-2.1,0.3-3.2,0.4c-4.3,0.6-8.7,0.8-13.1,1h-0.1c0,0,0,0,0.1,0l0.9,0.4l0.7,0.3h0.1l0.2,0.1l1.4,0.6l0,0
										c4.4-0.2,8.7-0.6,12.8-1.2l0,0c0.2,0,0.3,0,0.5-0.1c0.3,0,0.6-0.1,1-0.1c0.3,0,0.6-0.1,0.9-0.2c3.1-0.6,5.9-1.3,8.6-2.2
										c3.3-1.2,12.8-7.6,15.4-9.7l0.1-0.1l0.2-0.2l-1.2-13.7l0,0l-0.4-4.7l-1.7-20l-0.1-1.4l-0.8-8.2l-0.1-1.1l-0.1-1.1
										l-3.7-41.3l0.4,0.6l0.1,0.2c8.4,10.4,16.3,20.2,17.4,24.1c1.5,5.8,13.6,60.5,21.9,98.7c0.5,2.2,1,4.4,1.4,6.5
										c0.3,0.1,0.5,0.2,0.8,0.2l0,0c0.2,1.1,0.4,2.1,0.7,3.1c0.3,0.3,0.6,0.6,1,0.9C1778.9,450,1778.6,448.8,1778.3,447.4
										L1778.3,447.4z M1778.3,447.4c-0.5-2.1-1-4.3-1.4-6.5c-8.3-38.2-20.5-93.7-22.1-99.6c-1.2-4.2-8.8-13.6-17.6-24.6l-0.3-0.4
										l-3.4-4.3l0.2,2.4l0,0l3.8,43.3l0.1,1l0,0l0.1,1l0.6,7.3l0.4,4.7l1.2,13.8l0.4,4.7v0.1l1,11.6l0.5,5.7
										c-2.9,2.3-11.6,8.2-14.5,9.2c-2.5,0.9-5.3,1.6-8.3,2.1c-0.3,0.1-0.6,0.1-0.9,0.2c-0.3,0-0.6,0.1-1,0.2
										c-1,0.2-2.1,0.3-3.2,0.4c-4.3,0.6-8.7,0.8-13.1,1h-0.1c0,0,0,0,0.1,0l0.9,0.4l0.7,0.3h0.1l0.2,0.1l1.4,0.6l0,0
										c4.4-0.2,8.7-0.6,12.8-1.2l0,0c0.2,0,0.3,0,0.5-0.1c0.3,0,0.6-0.1,1-0.1c0.3,0,0.6-0.1,0.9-0.2c3.1-0.6,5.9-1.3,8.6-2.2
										c3.3-1.2,12.8-7.6,15.4-9.7l0.1-0.1l0.2-0.2l-1.2-13.7l0,0l-0.4-4.7l-1.7-20l-0.1-1.4l-0.8-8.2l-0.1-1.1l-0.1-1.1
										l-3.7-41.3l0.4,0.6l0.1,0.2c8.4,10.4,16.3,20.2,17.4,24.1c1.5,5.8,13.6,60.5,21.9,98.7c0.5,2.2,1,4.4,1.4,6.5
										c0.3,0.1,0.5,0.2,0.8,0.2l0,0c0.2,1.1,0.4,2.1,0.7,3.1c0.3,0.3,0.6,0.6,1,0.9C1778.9,450,1778.6,448.8,1778.3,447.4
										L1778.3,447.4z M1841.4,457.7c0-0.1-0.2-0.6-0.6-1.6c-4.5-12.7-33.9-96.4-40.8-120.1c-2.5-8.5-5.9-16.8-9.5-24.9
										c-0.6-1.2-1.1-2.5-1.7-3.7c-0.6-1.3-1.2-2.6-1.9-3.9c-2.7-5.6-5.4-11.1-8.1-16.3c-2.4-4.7-4.8-9.2-7.2-13.6l0,0
										c-5.1-9.2-10.2-17.8-15.5-25.9c-3.3-5-6.6-9.8-10-14.4c-6.6-9-14.2-14.6-24.5-18c-4.8-1.6-10.1-2.7-16-3.5
										c-0.7-0.1-2.2-0.2-3.9-0.4c-2.7-0.2-7.4-0.8-9.4-1.1c-0.3,0-0.5-0.1-0.7-0.1s-0.3,0-0.3-0.1l-0.6-0.5l-0.5,0.6
										c-3.3,3.6-6.6,6.3-9.8,8.2c-6.6,4-13,5.1-18.7,4.7c-2.2-0.2-4.2-0.6-6.1-1.1c-6-1.6-11-4.5-14.2-6.8
										c-0.2-0.1-0.3-0.2-0.5-0.3h-0.1l-0.2-0.2l-0.4,0.1l-0.8,0.1c-0.1,0-0.2,0-0.4,0c-1.7,0.3-3.6,0.5-5.4,0.8
										c-0.8,0.1-1.7,0.3-2.5,0.4l-1.5,0.2c-2.8,0.5-5.7,1-8.5,1.8c-3,0.9-5.9,2.1-8.5,4.1c-4.6,3.6-8.9,8-13.1,13.6
										c-5.5,7.2-10,15-14.4,22.7c-1.7,3-3.5,6.2-5.4,9.2c-1.7,2.8-3.3,5.6-5,8.4c-3.2,5.4-6.4,10.8-9.7,16.1
										c-0.6,1-1.2,2.1-1.8,3.3c-1.8,3.3-3.8,7.1-6.3,8.8c-3.1,2.1-43.7-6.2-68.6-12l-0.8-0.2l-0.1,0.8c0,0-0.1,1.4-0.4,3.5
										c0,0.3,0,0.7-0.1,1c0,0.3-0.1,0.6-0.1,1c-0.7,7.4-2.2,20.9-3.7,34.2c0,0.2-0.1,0.5-0.1,0.8c0,0.2-0.1,0.5-0.1,0.8
										c-0.2,1.2-0.3,2.3-0.4,3.5v0.6l0.5,0.2c0.5,0.2,48,19,73,17.3c13.2-0.9,28.8-13.9,40.1-23.4c2.1-1.7,4.1-3.4,5.9-4.9
										c-2.4,34.4-6.3,78.4-6.3,78.9v0.6l0.6,0.2c0,0,0.3,0.1,0.8,0.2c0.6,0.2,1.7,0.5,3.1,1c9.7,2.9,36.5,10.3,65,13.1
										c4.3,0.4,8.6,0.8,12.8,0.9l0,0l0,0l0,0l0,0l0,0c1.4,0,2.7,0.1,4,0.1l0,0c2.9,0.1,5.8,0.1,8.7,0h1.1c2.1,0,4.2-0.1,6.4-0.2
										c2-0.1,4-0.2,6-0.3l0,0c4.4-0.2,8.7-0.6,12.8-1.2l0,0c0.2,0,0.3,0,0.5-0.1c0.3,0,0.6-0.1,1-0.1c0.3,0,0.6-0.1,0.9-0.2
										c3.1-0.6,5.9-1.3,8.6-2.2c3.3-1.2,12.8-7.6,15.4-9.7l0.1-0.1l0.2-0.2l-1.2-13.7l0,0l-0.4-4.7l-1.7-20l-0.1-1.4l-0.8-8.2
										l-0.1-1.1l-0.1-1.1l-3.7-41.3l0.4,0.6l0.1,0.2c8.4,10.4,16.3,20.2,17.4,24.1c1.5,5.8,13.6,60.5,21.9,98.7
										c0.5,2.2,1,4.4,1.4,6.5c0.2,0.8,0.4,1.7,0.5,2.5c0.8,3.4,1.4,6.5,2.1,9.4l0,0c0.4,1.8,0.8,3.5,1.1,5.1
										c1.7,8,2.9,13.1,2.9,13.4l0.1,0.4l0.4,0.2c2.5,0.9,5.2,1.3,8,1.3c2.5,0,5.2-0.3,7.9-0.8c0.3-0.1,0.6-0.1,0.8-0.2
										c0.3,0,0.5-0.1,0.8-0.2c5-1.2,10.1-3.1,15-5.2l0,0c2.3-1.1,4.7-2.2,6.8-3.4h0.1c1.7-0.8,3.3-1.7,4.8-2.6
										c0.2-0.1,0.5-0.2,0.7-0.4c0.2-0.2,0.5-0.3,0.7-0.4c1.4-0.8,2.7-1.6,3.9-2.3c1.4-0.9,2.7-1.7,3.8-2.5l0,0
										c2.3-1.5,3.8-2.5,4.1-2.7l0.5-0.3L1841.4,457.7L1841.4,457.7z M1834.8,460.8c-0.8,0.6-1.9,1.2-2.9,1.9l0,0
										c-1,0.6-2.2,1.3-3.3,2c-0.2,0.1-0.4,0.2-0.7,0.4c-0.2,0.1-0.4,0.2-0.6,0.4c-2,1.2-4.3,2.3-6.6,3.5c-2.2,1.2-4.6,2.3-7,3.3
										c-4,1.7-8.2,3.2-12.2,4.2c-0.3,0.1-0.5,0.1-0.8,0.2c-0.3,0-0.5,0.1-0.8,0.2c-5.5,1.2-10.8,1.4-15.2-0.1
										c-0.3-1.3-1.2-5.7-2.6-12.1l0,0c-0.4-1.6-0.8-3.3-1.2-5.1l0,0c-0.6-2.5-1.2-5.2-1.8-8.1c-0.2-1.2-0.5-2.5-0.8-3.8
										c-0.5-2.1-1-4.3-1.4-6.5c-8.3-38.2-20.5-93.7-22.1-99.6c-1.2-4.2-8.8-13.6-17.6-24.6l-0.3-0.4l-3.4-4.3l0.2,2.4l0,0
										l3.8,43.3l0.1,1l0,0l0.1,1l0.6,7.3l0.4,4.7l1.2,13.8l0.4,4.7v0.1l1,11.6l0.5,5.7c-2.9,2.3-11.6,8.2-14.5,9.2
										c-2.5,0.9-5.3,1.6-8.3,2.1c-0.3,0.1-0.6,0.1-0.9,0.2c-0.3,0-0.6,0.1-1,0.2c-1,0.2-2.1,0.3-3.2,0.4c-4.3,0.6-8.7,0.8-13.1,1
										h-0.1c-1.3,0.1-2.6,0.1-3.9,0.2l0,0c-1.7,0.1-3.4,0.1-5.1,0.2h-1.1c-3.3,0.1-6.6,0.1-9.9,0c-2.1-0.1-4.2-0.2-6.3-0.3h-0.1
										c-4.5-0.3-8.9-0.7-13.4-1.2c-26.9-3.1-51.5-9.9-60.7-12.7l0,0c-0.8-0.2-1.5-0.4-2-0.6s-0.9-0.3-1.2-0.4
										c0.5-5.5,4.2-47.6,6.4-80l0.1-1.7l-1.4,1c-0.1,0-0.2,0.1-0.2,0.2c-2.1,1.6-4.5,3.6-7,5.8c-11.2,9.3-26.5,22.2-39.3,23
										c-23.2,1.6-66.4-14.9-71.7-17c0.1-0.9,0.2-1.8,0.3-2.7c0-0.2,0.1-0.5,0.1-0.8l0,0c0-0.2,0.1-0.5,0.1-0.8
										c1.5-12.6,2.8-25.4,3.6-33c0-0.4,0.1-0.7,0.1-1c0-0.4,0-0.7,0.1-1.1c0.2-1.8,0.3-3.2,0.4-4.1c9.7,2.2,64.5,14.6,69,11.5
										c2.8-2,4.9-5.9,6.8-9.3c0.6-1.2,1.2-2.3,1.8-3.2c3.3-5.4,6.5-10.7,9.7-16.1c1.7-2.8,3.3-5.6,5.1-8.4c1.8-3,3.6-6.2,5.4-9.2
										c4.4-7.6,8.9-15.4,14.3-22.5c4.2-5.4,8.4-9.8,12.8-13.3c2.3-1.7,4.7-2.9,7.3-3.7c2.9-0.9,5.9-1.4,9-2l1.5-0.3
										c1.2-0.2,2.3-0.4,3.5-0.6c1.6-0.2,3.2-0.5,4.8-0.7l0.5-0.1h0.2c0.1,0.1,0.3,0.2,0.4,0.3c0.2,0.1,0.3,0.2,0.5,0.4
										c2.9,2,7,4.4,11.9,6c0,0,0.1,0,0.2,0c2,0.6,4.2,1.2,6.4,1.4c1.5,0.2,3.2,0.4,4.8,0.3c5.3-0.1,11-1.4,16.8-5
										c3.2-2,6.5-4.6,9.7-8.1c0.2,0,0.4,0.1,0.6,0.1c0.2,0.1,0.4,0.1,0.6,0.1c0.2,0.1,0.4,0.1,0.7,0.2c1.6,0.2,4.3,0.5,8.6,1
										c1.7,0.2,3.2,0.3,3.9,0.4c5.9,0.8,11,1.9,15.7,3.5c10.1,3.3,17.3,8.5,23.8,17.4c3.3,4.4,6.4,8.9,9.5,13.7
										c5.5,8.3,10.8,17.1,16,26.5c2.4,4.3,4.8,8.8,7.1,13.4c2.3,4.4,4.6,9,6.9,13.8c0.6,1.3,1.3,2.7,2,4c0.6,1.2,1.1,2.4,1.7,3.7
										c4.1,8.7,7.8,17.9,10.5,27.1c6.8,23.2,35.2,104.2,40.5,119.4c0.3,0.8,0.5,1.5,0.7,1.9
										C1838.9,458.2,1837.2,459.4,1834.8,460.8L1834.8,460.8L1834.8,460.8z M1778.3,447.4c-0.5-2.1-1-4.3-1.4-6.5
										c-8.3-38.2-20.5-93.7-22.1-99.6c-1.2-4.2-8.8-13.6-17.6-24.6l-0.3-0.4l-3.4-4.3l0.2,2.4l0,0l3.8,43.3l0.1,1l0,0l0.1,1
										l0.6,7.3l0.4,4.7l1.2,13.8l0.4,4.7v0.1l1,11.6l0.5,5.7c-2.9,2.3-11.6,8.2-14.5,9.2c-2.5,0.9-5.3,1.6-8.3,2.1
										c-0.3,0.1-0.6,0.1-0.9,0.2c-0.3,0-0.6,0.1-1,0.2c-1,0.2-2.1,0.3-3.2,0.4c-4.3,0.6-8.7,0.8-13.1,1h-0.1c0,0,0,0,0.1,0
										l0.9,0.4l0.7,0.3h0.1l0.2,0.1l1.4,0.6l0,0c4.4-0.2,8.7-0.6,12.8-1.2l0,0c0.2,0,0.3,0,0.5-0.1c0.3,0,0.6-0.1,1-0.1
										c0.3,0,0.6-0.1,0.9-0.2c3.1-0.6,5.9-1.3,8.6-2.2c3.3-1.2,12.8-7.6,15.4-9.7l0.1-0.1l0.2-0.2l-1.2-13.7l0,0l-0.4-4.7
										l-1.7-20l-0.1-1.4l-0.8-8.2l-0.1-1.1l-0.1-1.1l-3.7-41.3l0.4,0.6l0.1,0.2c8.4,10.4,16.3,20.2,17.4,24.1
										c1.5,5.8,13.6,60.5,21.9,98.7c0.5,2.2,1,4.4,1.4,6.5c0.3,0.1,0.5,0.2,0.8,0.2l0,0c0.2,1.1,0.4,2.1,0.7,3.1
										c0.3,0.3,0.6,0.6,1,0.9C1778.9,450,1778.6,448.7,1778.3,447.4L1778.3,447.4z"/>
								</g>
								
									<rect x="1727.4" y="291.4" transform="matrix(0.8083 -0.5888 0.5888 0.8083 151.3156 1076.141)" class="st4" width="1.5" height="28.6"/>
								<path class="st2" d="M1625.8,119.5c0,0-6.6,18.3-4.7,23.7l45.4,2.8l15.9-19.9L1625.8,119.5L1625.8,119.5z"/>
								<path class="st2" d="M1710.4,193.5c0,0-31.3-15.7-29.8-56.4c1.4-40.6,35.6,6.6,35.6,6.6l10.4,31L1710.4,193.5L1710.4,193.5z
									"/>
								
									<rect x="1585.1" y="306" transform="matrix(8.019221e-02 -0.9968 0.9968 8.019221e-02 1169.9346 1881.3496)" class="st4" width="38.6" height="1.5"/>
								<path class="st7" d="M1617.5,123c0,0,30.7-40.3,95.4,10l-8.8-29.9l-22.5-13.8l-20,5.1l-22,4.6L1617.5,123L1617.5,123z"/>
								<path class="st2" d="M1631.8,214.3c5.1,3,7,11.5,9.7,16.1c4,7.1,8.1,14.1,12.4,21.1c11.1,18.3,22.8,36.2,35.5,53.4
									c5.2,7,9.7,14.3,14.7,21.4c2.2,3.2,34.8,44.4,36.8,42.6l-9.5,13.1c0,0-46.6-43-109.8-159.2c-3-5.4,2.4-10.6,7.9-9.4
									C1630.4,213.6,1631.1,213.9,1631.8,214.3L1631.8,214.3z"/>
								<path class="st6" d="M1665.3,160c-0.1,0-0.1,0-0.2-0.1c-0.2-0.1-0.3-0.3-0.2-0.5c0.1-0.2,0.3-0.3,0.5-0.2
									c0.7,0.3,1.8-0.7,2.1-1c0.2-0.2,0.4-0.2,0.6,0c0.2,0.1,0.2,0.4,0,0.6C1668,158.9,1666.6,160.4,1665.3,160L1665.3,160z"/>
								<path class="st6" d="M1636,160c0.1,0,0.1,0,0.2-0.1c0.2-0.1,0.3-0.3,0.2-0.5c-0.1-0.2-0.3-0.3-0.5-0.2
									c-0.7,0.3-1.8-0.7-2.1-1c-0.2-0.2-0.4-0.2-0.6,0c-0.2,0.1-0.2,0.4,0,0.6C1633.2,158.9,1634.6,160.4,1636,160L1636,160z"/>
								<g>
									<path class="st3" d="M1748.9,373.6c-1-3.4-2.1-6.9-4.3-9.8c-1.5-2-3.8-4-6.2-4.8c-5.8-1.9-14,3.9-16.6,8.7
										c-1.9,3.6-2.6,7.7-3.2,11.7c-2.4,16.5-2.6,33.6,1.6,49.8c1.5,5.9,3.8,11.8,8.3,15.9c4.4,4.1,11.5,6,16.7,2.9
										c5.4-3.2,7.1-10.2,7.9-16.5C1755.4,412.3,1754.2,392.4,1748.9,373.6L1748.9,373.6z"/>
									<path class="st4" d="M1749.8,373.4c-1.8-6.2-5-14.3-12.3-15.5c-5.5-1-11.3,2.9-14.7,6.8c-4.6,5.5-5.1,13.7-5.9,20.5
										c-0.9,8.3-1.3,16.7-0.7,25.1c0.5,7.9,1.8,15.9,4.3,23.4c2.1,6.1,5.6,12.3,11.6,15.2c5.4,2.6,12.1,2.4,16.4-2.2
										c4.4-4.7,5.2-11.7,5.8-17.8C1756.3,410.2,1754.9,391.3,1749.8,373.4c-0.3-1.2-2.2-0.7-1.8,0.5c4,14.1,5.7,28.8,5.2,43.5
										c-0.2,6.7-0.5,13.7-2.2,20.2c-1.6,5.9-5.3,11.2-12,11.1c-14.5-0.4-18.3-19-20-30.2c-1.1-7.4-1.4-14.8-1-22.2
										c0.3-7.3,0.9-14.8,2.5-21.9c0.8-3.4,2-6.7,4.5-9.3c2.2-2.3,5.1-4.3,8.3-5.1c8.6-2.4,12.8,7.3,14.7,13.9
										C1748.3,375,1750.1,374.5,1749.8,373.4L1749.8,373.4z"/>
								</g>
								
									<rect x="1740" y="358.6" transform="matrix(0.914 -0.4056 0.4056 0.914 -8.7306 739.6451)" class="st4" width="1.5" height="63.6"/>
							</g>
							<g>
								<g>
									<path class="st5" d="M572,196.9c-1.8,0-3.6-0.6-5.1-1.8c-19.3-15.4-31.9-31.5-37.7-47.9c-2.3-5.5-3.4-11.4-3.4-17.3
										c0-25.2,20.6-45.7,46-45.7s46,20.5,46,45.7v0.1c0.1,9.7-3.7,35.4-40.8,65.1C575.7,196.2,573.9,196.9,572,196.9L572,196.9
										L572,196.9z"/>
									<path class="st2" d="M618.2,127.6c0-1.1-0.1-2.1-0.3-3.1c-0.1-0.9-0.2-1.9-0.4-2.8l0,0c-0.2-1.1-0.4-2.1-0.7-3.2
										c-5.1-19.9-23.3-34.6-45-34.6s-41.4,16-45.6,37.3c-0.2,1.1-0.4,2.2-0.5,3.3c-0.2,1.2-0.3,2.4-0.3,3.7c0,0.6,0,1.2,0,1.8
										c0,0.2,0,0.3,0,0.5c0,0.9,0,1.7,0.1,2.6c0.3,5.1,1.5,9.9,3.4,14.4c4.4,12.5,14.6,29.5,37.8,48c1.5,1.2,3.4,1.8,5.3,1.8
										s3.7-0.6,5.3-1.8c37-29.5,41-55.2,41-65.2V130C618.3,129.1,618.3,128.3,618.2,127.6L618.2,127.6z M572,196.5
										c-1.7,0-3.5-0.6-4.8-1.7c-19.2-15.3-31.8-31.4-37.6-47.7l0,0l0,0c-1.8-4.5-3-9.3-3.3-14.1c-0.1-0.9-0.1-1.7-0.1-2.6v-0.5
										c0-0.5,0-1,0-1.5c0-1.4,0.1-2.7,0.3-4c0.1-1.1,0.3-2.2,0.5-3.3c4.1-20.8,22.6-36.5,44.8-36.5S611,99,616.1,118.5
										c0.3,1,0.5,2.1,0.7,3.2c0.1,0.7,0.1,0.7,0,0c0.2,0.8,0.3,1.7,0.4,2.5c0.2,1.1,0.3,2.3,0.3,3.4c0,0.7,0.1,1.5,0.1,2.3v0.3
										c0,9.8-4,35.3-40.7,64.5C575.5,195.9,573.8,196.5,572,196.5L572,196.5z"/>
								</g>
								<g>
									<circle class="st3" cx="571.9" cy="131" r="34.9"/>
									<path class="st2" d="M607.1,128.6c-0.1-2.1-0.4-4-0.9-6c-0.3-1.1-0.6-2.2-0.9-3.2c-4.8-13.8-17.9-23.7-33.3-23.7
										c-15.4,0-29.7,10.8-33.9,25.6c-0.3,1.1-0.6,2.1-0.8,3.2c0,0.2-0.1,0.4-0.1,0.7c-0.3,1.7-0.4,3.5-0.5,5.3v0.4
										c0,0.7,0,1.5,0.1,2.2c1.1,18.5,16.5,33.1,35.2,33.1s35.2-15.7,35.3-35.1V131C607.2,130.2,607.1,129.4,607.1,128.6
										L607.1,128.6z M571.9,165.5c-18.3,0-33.3-14.3-34.4-32.4c0-0.7-0.1-1.4-0.1-2.2v-0.4c0-1.7,0.2-3.4,0.4-5
										c0-0.3,0.1-0.6,0.2-1c0.2-1.1,0.4-2.2,0.8-3.2c4.2-14.3,17.4-24.8,33.1-24.8s27.8,9.6,32.5,23c0.4,1,0.7,2.1,1,3.2
										c0.5,1.8,0.8,3.7,0.9,5.7c0,0.1,0,0.2,0,0.3c0.1,0.8,0.1,1.6,0.1,2.4v0.2C606.2,150.2,590.8,165.5,571.9,165.5L571.9,165.5
										z"/>
								</g>
								<g>
									<path class="st2" d="M572.2,114.5c2.4,0,4.9,0.3,7.2,0.9c1.7,0.5,3.4,1,5.1,1.7c2.7,1.2,5.3,2.7,7.6,4.6
										c1.5,1.3,2.9,2.7,4,4.4c1.3,1.9,0.4,4.9-2.1,5.7c-1.5,0.4-3.1-0.1-4.2-1.4c-2-2.4-4.3-4.3-7.1-5.7
										c-1.2-0.6-2.5-1.1-3.8-1.5c-1.7-0.5-3.4-0.8-5.1-1c-1-0.1-2,0-3.1,0c-1.3,0-2.6,0.2-3.9,0.5c-2.7,0.6-5.2,1.6-7.5,3.1
										c-1.9,1.2-3.6,2.6-5,4.3c-0.5,0.6-1,1.1-1.6,1.5c-1.5,1-3.3,0.6-4.5-0.8c-0.6-0.8-1-1.6-1-2.6c0-0.7,0.2-1.3,0.6-1.8
										c1-1.4,2.2-2.7,3.6-3.9c1.3-1.2,2.7-2.3,4.2-3.2c2.9-1.8,6-3.2,9.3-3.9C567.3,114.8,569.7,114.4,572.2,114.5L572.2,114.5z"
										/>
									<path class="st2" d="M572.1,127.6c2.6,0,5.2,0.7,7.6,1.8c2.3,1,4.3,2.5,6.2,4.1c2.1,1.7,1.6,5.4-1,6.4
										c-1.2,0.5-2.4,0.2-3.5-0.5c-0.6-0.4-1.1-0.9-1.6-1.3c-1.8-1.4-3.8-2.4-6.1-2.8c-1.7-0.3-3.4-0.1-5.1,0.4
										c-2.2,0.7-4.1,1.8-5.8,3.3c-0.6,0.5-1.2,0.9-2,1.1c-0.9,0.2-1.7-0.1-2.4-0.6c-1.2-0.8-2.1-2.3-1.8-3.9
										c0.2-0.9,0.7-1.5,1.3-2.1c2.2-2.1,4.8-3.6,7.7-4.7C567.7,128,569.9,127.5,572.1,127.6L572.1,127.6z"/>
									<path class="st2" d="M565.6,146.7c0.1-2.1,1-3.8,2.7-5.1c1.3-1,2.8-1.4,4.4-1.3c1.9,0.1,3.5,0.9,4.7,2.4
										c1.1,1.3,1.5,2.8,1.4,4.5c-0.2,2.7-2.3,5-5,5.7c-3.6,0.9-7.3-1.4-8-5.1C565.6,147.4,565.6,147.1,565.6,146.7z"/>
								</g>
							</g>
							<g>
								<g>
									<path class="st5" d="M1473.1,305.2c-1.8,0-3.6-0.6-5.1-1.8c-19.3-15.4-31.9-31.5-37.7-47.9c-2.3-5.5-3.4-11.4-3.4-17.3
										c0-25.2,20.6-45.7,46-45.7s46,20.5,46,45.7v0.1c0.1,9.7-3.7,35.4-40.8,65.1C1476.8,304.5,1475,305.2,1473.1,305.2
										L1473.1,305.2z"/>
									<path class="st2" d="M1516.7,222.7c-0.2-0.4-0.3-0.8-0.4-1.1c-0.2-0.4-0.3-0.8-0.5-1.1c-6.4-15.1-20.5-26.1-37.5-28
										c-1.7-0.2-3.6-0.3-5.4-0.3c-7.3,0-14.2,1.7-20.4,4.7c-0.1,0-0.2,0.1-0.3,0.2c-0.1,0-0.2,0.1-0.3,0.1
										c-3.5,1.7-6.7,3.9-9.6,6.5c-0.1,0.1-0.2,0.2-0.3,0.3c-0.1,0.1-0.2,0.2-0.3,0.3c-1.4,1.2-2.7,2.5-3.9,3.9
										c-4.6,5.2-7.9,11.4-9.8,18.2c-0.1,0.4-0.2,0.8-0.3,1.3c-0.1,0.4-0.2,0.8-0.3,1.2c-0.7,3.1-1,6.3-1,9.6
										c0,6.2,1.2,12.1,3.4,17.4c4.4,12.5,14.6,29.5,37.8,48c1.5,1.2,3.4,1.8,5.3,1.8s3.7-0.6,5.3-1.8
										c37.3-29.7,41.1-55.6,41-65.4v-0.1C1519.4,232.8,1518.4,227.6,1516.7,222.7L1516.7,222.7z M1518.6,238.3
										c0.1,9.6-3.6,35.2-40.7,64.8c-1.3,1.1-3.1,1.7-4.8,1.7s-3.5-0.6-4.8-1.7c-19.2-15.3-31.9-31.3-37.6-47.7l0,0l0,0
										c-2.2-5.5-3.4-11.3-3.4-17.2c0-3.3,0.3-6.6,1.1-9.7c0.1-0.4,0.2-0.8,0.3-1.2c0.1-0.4,0.2-0.8,0.3-1.3
										c1.9-6.7,5.3-12.9,9.9-18c0.9-1,1.9-2,2.9-3c0.1-0.1,0.2-0.2,0.3-0.3c0.1-0.1,0.2-0.2,0.3-0.3c2.9-2.6,6.2-4.9,9.7-6.7
										c0.1,0,0.2-0.1,0.3-0.1c0.1-0.1,0.2-0.1,0.3-0.1c6.1-3,13-4.7,20.3-4.7c1.7,0,3.3,0.1,4.9,0.3
										c16.7,1.8,30.7,12.5,37.1,27.3c0.2,0.4,0.3,0.7,0.5,1.1c0.2,0.4,0.3,0.7,0.4,1.1c1.8,4.8,2.8,10,2.8,15.5L1518.6,238.3
										L1518.6,238.3z"/>
								</g>
								<g>
									<circle class="st3" cx="1473" cy="239.3" r="34.9"/>
									<path class="st2" d="M1504.1,222.8c-0.2-0.4-0.4-0.8-0.6-1.1c-0.2-0.4-0.4-0.7-0.7-1.1c-6.2-9.9-17.3-16.5-29.9-16.5
										c-3.4,0-6.7,0.5-9.8,1.4h-0.1c-1.3,0.4-2.6,0.8-3.8,1.4h-0.1c-1.9,0.8-3.8,1.8-5.5,3c-0.1,0-0.2,0.1-0.3,0.2
										s-0.2,0.1-0.3,0.2c-4.7,3.2-8.5,7.5-11.2,12.5c-0.1,0.2-0.2,0.4-0.3,0.6c-0.1,0.2-0.2,0.4-0.3,0.6
										c-0.1,0.2-0.2,0.4-0.3,0.6c-0.2,0.4-0.4,0.8-0.6,1.3c-0.2,0.4-0.3,0.8-0.5,1.2c-1.4,3.8-2.2,8-2.2,12.3
										c0,4.7,0.9,9.3,2.7,13.4c0.1,0.2,0.2,0.4,0.2,0.6l0,0c0.1,0.2,0.2,0.4,0.3,0.6c1.1,2.3,2.4,4.5,3.9,6.6
										c0.1,0.1,0.2,0.2,0.2,0.3c0.1,0.1,0.1,0.2,0.2,0.3c6.4,8.2,16.5,13.5,27.7,13.5c19.5,0,35.3-15.8,35.3-35.3
										C1508.2,233.4,1506.8,227.7,1504.1,222.8L1504.1,222.8z M1473,273.8c-10.8,0-20.4-5-26.8-12.8c-0.1-0.1-0.2-0.2-0.2-0.3
										c-0.1-0.1-0.2-0.2-0.2-0.3c-2-2.5-3.6-5.3-4.8-8.4c-0.1-0.2-0.2-0.4-0.3-0.7s-0.2-0.5-0.3-0.7c-1.3-3.6-1.9-7.4-1.9-11.4
										c0-4.4,0.8-8.6,2.3-12.4c0.1-0.3,0.3-0.7,0.4-1l0,0c0-0.1,0.1-0.2,0.1-0.2c0.1-0.2,0.1-0.3,0.2-0.4l0,0
										c0.1-0.2,0.2-0.4,0.3-0.7v-0.1c2.6-5.4,6.5-10,11.3-13.3c0.1-0.1,0.2-0.2,0.3-0.2c0.1-0.1,0.2-0.1,0.3-0.2
										c5.5-3.7,12.2-5.9,19.3-5.9c12.1,0,22.8,6.3,28.9,15.7c0.2,0.4,0.5,0.7,0.7,1.1c0.2,0.4,0.4,0.7,0.7,1.1
										c2.7,4.9,4.2,10.5,4.2,16.5C1507.5,258.3,1492,273.7,1473,273.8L1473,273.8z"/>
								</g>
								<g>
									<path class="st2" d="M1452.1,245.9h4.7c1,0,1.8,0.8,1.8,1.8v7h-8.4v-7C1450.3,246.8,1451.1,245.9,1452.1,245.9z"/>
									<path class="st2" d="M1463.2,237.1c-1,0-1.8,0.9-1.8,1.9v15.8h8.4V239c0-1-0.8-1.9-1.8-1.9H1463.2L1463.2,237.1z"/>
									<path class="st2" d="M1474.4,228.3c-1,0-1.8,0.9-1.8,1.9v24.6h8.4v-24.6c0-1-0.8-1.9-1.8-1.9H1474.4L1474.4,228.3z"/>
									<path class="st2" d="M1485.6,219.4c-1,0-1.8,0.9-1.8,1.9v33.5h8.4v-33.5c0-1-0.8-1.9-1.8-1.9H1485.6L1485.6,219.4z"/>
								</g>
							</g>
						</g>
					</g>
				</g>
			</g>
		</g>
	</g>
</g>
<g>
	<g>
		<path class="st8" d="M1370.4,323.9c4.6-2.2,6.9-6.3,6.9-8.7c-0.3,0.2-0.9,0.4-1.7,0.4c-3.1,0-5.2-2.4-5.2-5.5
			c0-2.9,2.1-5.6,5.9-5.6s6.6,3.5,6.6,8.1c0,7.4-4.9,12.7-10.4,15.2L1370.4,323.9z M1385.7,323.9c4.5-2.2,6.8-6.3,6.8-8.7
			c-0.3,0.2-0.9,0.4-1.6,0.4c-3.2,0-5.3-2.4-5.3-5.5c0-2.9,2.2-5.6,5.9-5.6c3.8,0,6.6,3.5,6.6,8.1c0,7.4-4.9,12.7-10.4,15.2
			L1385.7,323.9z"/>
	</g>
	<g>
		<path class="st8" d="M1057.1,302.3c-4.5,2.2-6.8,6.3-6.8,8.7c0.3-0.2,0.9-0.4,1.6-0.4c3.2,0,5.3,2.4,5.3,5.5
			c0,2.9-2.2,5.6-5.9,5.6c-3.8,0-6.6-3.5-6.6-8.1c0-7.4,4.9-12.7,10.4-15.2L1057.1,302.3z M1072.4,302.3c-4.6,2.2-6.9,6.3-6.9,8.7
			c0.3-0.2,0.9-0.4,1.7-0.4c3.1,0,5.2,2.4,5.2,5.5c0,2.9-2.1,5.6-5.9,5.6s-6.6-3.5-6.6-8.1c0-7.4,4.9-12.7,10.4-15.2L1072.4,302.3z"
			/>
	</g>
	<g>
		<path class="st8" d="M900.6,323.9c4.6-2.2,6.9-6.3,6.9-8.7c-0.3,0.2-0.9,0.4-1.7,0.4c-3.1,0-5.2-2.4-5.2-5.5
			c0-2.9,2.1-5.6,5.9-5.6c3.8,0,6.6,3.5,6.6,8.1c0,7.4-4.9,12.7-10.4,15.2L900.6,323.9z M916,323.9c4.5-2.2,6.8-6.3,6.8-8.7
			c-0.3,0.2-0.9,0.4-1.6,0.4c-3.2,0-5.3-2.4-5.3-5.5c0-2.9,2.2-5.6,5.9-5.6c3.8,0,6.6,3.5,6.6,8.1c0,7.4-4.9,12.7-10.4,15.2
			L916,323.9z"/>
	</g>
	<g>
		<path class="st8" d="M583.1,304.9c-4.5,2.2-6.8,6.3-6.8,8.7c0.3-0.2,0.9-0.4,1.6-0.4c3.2,0,5.3,2.4,5.3,5.5c0,2.9-2.2,5.6-5.9,5.6
			c-3.8,0-6.6-3.5-6.6-8.1c0-7.4,4.9-12.7,10.4-15.2L583.1,304.9z M598.5,304.9c-4.6,2.2-6.9,6.3-6.9,8.7c0.3-0.2,0.9-0.4,1.7-0.4
			c3.1,0,5.2,2.4,5.2,5.5c0,2.9-2.1,5.6-5.9,5.6c-3.8,0-6.6-3.5-6.6-8.1c0-7.4,4.9-12.7,10.4-15.2L598.5,304.9z"/>
	</g>
	<g class="st9">
		<path d="M507.3,326.8c-0.7,2.4-1.5,4.8-2.5,7.1v26.2h-3.1v-19.9c-0.7,1.3-1.5,2.4-2.3,3.4c-0.2-0.8-1.1-2.8-1.6-3.6
			c2.7-3.5,5-8.7,6.3-14.1L507.3,326.8z M515.5,339.6c-0.5,5.4-1.4,9.7-2.8,13.1c3.2,3.3,7.4,3.9,12.1,4c1.3,0,6,0,7.6,0
			c-0.5,0.7-1,2.1-1.1,3h-6.6c-5.3,0-9.9-0.8-13.4-4.2c-1.2,2-2.5,3.5-4.1,4.7c-0.5-0.7-1.6-1.8-2.3-2.2c1.8-1.2,3.2-2.8,4.4-5
			c-1.2-1.9-2.3-4.1-3.1-7.1l2.5-0.9c0.5,1.9,1.2,3.5,1.9,4.9c0.8-2.2,1.3-4.9,1.7-7.9h-3.8c-0.6,0.3-1.1,0.7-1.1,1
			c-0.3-0.6-1-1.9-1.4-2.5c0.7-0.2,1.6-1.2,2.4-2.4c0.6-0.9,2-3.7,3.2-6.8h-4.4v-3h5.6l1-0.4l2,1.3c-1.4,3.6-3.1,7.1-4.7,9.9h2.1
			h0.6L515.5,339.6z M521.1,331.3h-4.4v-2.5h4.4V326h2.9v2.8h6v4.9h2.5v2.6H530v5.1h-6v2.3h6.4v2.7H524v2.4h7.5v2.7H524v4h-2.9v-4
			h-5.7v-2.7h5.7v-2.4h-4.8v-2.7h4.8v-2.3h-4.4v-2.5h4.4v-2.5h-6v-2.6h6V331.3z M524,331.3v2.4h3.3v-2.4H524z M527.3,336.3H524v2.5
			h3.3V336.3z"/>
		<path d="M555.3,356h14.2v3.1H538V356h13.7v-5.5h-10.1v-3h10.1v-5.1h-8.4v-3c-1.6,1.2-3.3,2.2-4.9,3c-0.5-0.9-1.4-2.1-2.2-2.8
			c4.4-1.9,9.6-5.6,13.2-9.4h-5.9v-3.3h11.9c3.3,5,9.6,9.8,15.6,12.2c-0.7,0.7-1.8,2.2-2.4,3.1c-1.6-0.7-3.3-1.7-4.8-2.7v2.9h-8.6
			v5.1h10.2v3h-10.2v5.5L555.3,356L555.3,356z M543.3,339.4h20.3c-3.8-2.6-7.4-5.9-10.1-9.2C550.9,333.4,547.1,336.7,543.3,339.4z"
			/>
	</g>
	<g class="st9">
		<path class="st10" d="M644.1,329.3c-0.8,7-2,12.9-4.1,17.9c1.9,3.6,4.3,6.5,7.5,8.4c-1.1,0.8-2.5,2.6-3.2,3.9
			c-2.9-1.9-5-4.4-6.9-7.5c-2.1,3.4-5,6.1-8.5,8.4c-0.3-0.8-1.3-2.3-2.1-3.4l-3,2.6c-1.6-1-3.8-2.2-6.1-3.3
			c-3.1,1.4-7.4,2.7-13.3,3.5c-0.4-1.1-1.3-2.7-2-3.6c4.2-0.6,7.5-1.3,10-2.1c-2.1-0.9-4.3-1.6-6.3-2.2c0.7-0.8,1.4-1.7,2.1-2.8
			l-4.3,0.2l-0.4-3.8c2.1-0.1,4.6-0.2,7.3-0.3c0.6-1,1.2-2,1.7-3h-7v-8.6h8.5v-1.3h-7.2v-5H603v-4h3.6v-4.8h7.2v-2.9h4.3v2.9h7.7
			v4.8h3.2v4h-3.2v5h-7.7v1.3h8.7v3.5c3.1-5.1,4.7-13.2,5.6-21.4l4.8,0.6c-0.3,2.7-0.7,5.3-1.2,7.9h11.3v5L644.1,329.3L644.1,329.3z
			 M609.9,338.9h3.9v-1.8h-3.9V338.9z M611.3,322.1v1.5h2.6v-1.5H611.3z M613.8,328.8v-1.7h-2.6v1.7H613.8z M612.5,350.1
			c1.6,0.5,3.2,1.1,4.8,1.7c1.8-1,2.8-2.2,3.3-3.4l-7.2,0.4L612.5,350.1z M625.5,348.2c-0.4,1.9-1.5,3.8-3.6,5.6
			c1.7,0.8,3.2,1.5,4.6,2.2c3.8-2.2,6.6-5.2,8.5-9.1c-1.1-2.9-2-6-2.8-9.5c-0.5,1.2-1.1,2.4-1.8,3.5c-0.7-0.9-2.4-2.7-3.5-3.5v4.9
			h-9.5c-0.5,0.9-1,1.8-1.5,2.8l5.6-0.3v-1.7h4.4v1.5l1.5-0.1v3.6L625.5,348.2z M618.1,322.1v1.5h2.8v-1.5H618.1z M620.9,328.8v-1.7
			h-2.8v1.7H620.9z M618.1,337.1v1.8h3.8v-1.8H618.1z M634.9,329.3c0.6,4,1.4,7.9,2.4,11.4c1-3.4,1.6-7.2,2-11.4H634.9z"/>
		<path class="st10" d="M668.6,317.5c-1.2,3.2-2.7,6.5-4.4,9.6V360h-5.7v-24c-1,1.2-2,2.4-3,3.5c-0.5-1.4-2.1-4.5-3-5.9
			c4.3-4.3,8.4-11,10.9-17.8L668.6,317.5z M696.3,352.8v5.5h-29.8v-5.5H683c1.6-6.2,3.2-15.4,3.9-22.3l5.9,0.9
			c-1.2,7.1-3,15.4-4.6,21.4H696.3z M679.3,323.6c-0.3-2-1.3-5.1-2.1-7.3l5.4-1.3c1,2.3,1.9,5.3,2.4,7.2l-5,1.4h14.7v5.5h-26.5v-5.5
			L679.3,323.6L679.3,323.6z M673.8,351.5c-0.4-5-1.5-13.3-2.8-19.7l5.1-1.1c1.4,6.2,2.8,14.4,3.2,19.2L673.8,351.5z"/>
		<path class="st10" d="M737.7,342.6c2.5,2.3,5.9,4.3,9.3,5.5c-1.2,1-3,3-3.8,4.4c-2.6-1.2-5.1-3-7.5-5v3.5H727v3.1h15.5v4.7h-36.2
			v-4.7h14.9V351h-8.4v-3c-2.3,2-4.9,3.7-7.6,4.9c-0.8-1.3-2.4-3.3-3.6-4.3c3.5-1.3,7-3.5,9.6-6H702V338h9.1v-14.2h-6.6v-4.6h6.6
			v-3.6h5.7v3.6h14.9v-3.6h5.8v3.6h6.5v4.6h-6.5V338h8.8v4.6H737.7z M734.7,346.6c-1.3-1.2-2.4-2.6-3.4-4h-13.4
			c-1,1.4-2.1,2.7-3.4,4h6.9v-3h5.8v3H734.7z M716.9,323.8v2.1h14.9v-2.1H716.9z M716.9,331.9h14.9v-2.1h-14.9V331.9z M716.9,338
			h14.9v-2.1h-14.9V338z"/>
		<path class="st10" d="M758.9,354.4v3.5h-4v-15.8c-0.7,1.1-1.4,2.2-2.2,3.1c-0.2-1.4-1.2-4.8-1.9-6.3c2.9-4,4.9-9.8,6.1-16h-4.5
			v-5.1h14.4v5.1h-4.9c-0.7,3.2-1.5,6.5-2.6,9.6h7v21.9L758.9,354.4L758.9,354.4z M762.5,337.5h-3.6v11.9h3.6V337.5z M783.7,354.3
			c1,0.1,2,0.1,3,0.1c1.5,0,7.9,0,10,0c-0.6,1.1-1.3,3.4-1.5,4.8h-8.8c-6,0-10.4-1.1-13.5-5.6c-1,2.7-2.4,5-4.7,6.8l-3.8-3.6
			c3.8-2.9,5.2-7.9,5.7-13.9l4.7,0.8c-0.1,1.3-0.3,2.7-0.5,4c1,2.5,2.4,4.2,4.2,5.1v-11.1h-11.3v-4.6h24.3l0.8-0.2l3.7,1.1
			c-0.8,2.5-2,5.5-2.9,7.4l-4.3-1.4c0.2-0.6,0.5-1.5,0.8-2.3h-6v4h10.6v4.5h-10.6L783.7,354.3L783.7,354.3z M772.4,329.9
			c-1.3,2.1-2.7,4.1-4.2,5.5c-0.5-1-1.5-2.9-2.3-3.8c1.9-1.5,3.9-4.3,5.1-7h-3.5v-4.3h4.9v-4.5h4.4v4.5h4v4.3h-3.9
			c1.2,1,4,4,4.7,4.8l-2.7,3.3c-0.5-0.8-1.2-2-2.1-3.2v6.6h-4.4V329.9z M786,331.1c-1.1,1.9-2.5,3.5-3.9,4.7c-0.5-1-1.4-2.7-2.2-3.6
			c2.1-1.6,4.2-4.5,5.5-7.6h-3.8v-4.3h4.3v-4.5h4.4v4.5h5.2v4.3h-4.4c1.6,1.7,4.6,5.1,5.4,6.1l-3.1,3.8c-0.6-1.3-1.9-3.5-3.1-5.4v7
			H786V331.1z"/>
		<path class="st10" d="M816.3,332.3c-0.6,7-1.9,12.7-3.7,17.3c4.4,3.8,10.3,4.6,17.3,4.6c2.8,0,12.6,0,15.9-0.1
			c-0.8,1.2-1.7,3.7-2,5.2h-14c-8,0-14.5-1-19.4-5.1c-1.5,2.5-3.2,4.4-5.2,6c-0.8-1.1-2.9-3-4.1-3.7c2.3-1.6,4.1-3.7,5.7-6.3
			c-1.6-2.5-3-5.5-4.2-9.2l4.1-1.4c0.6,2.1,1.4,4,2.3,5.5c0.9-2.4,1.4-5.2,1.9-8.4h-7.6c1.9-3.5,4.3-8.6,6.3-13.4h-7v-4.9h14.7
			c-1.8,4.3-4,9.3-6,13.4h1.1l1-0.1L816.3,332.3z M826.3,323.6h-8.1v-4.3h8.1v-3.6h5.3v3.6H842v6.4h2.6v4.3H842v6.3h-10.4v2.3h10.9
			v4.1h-10.9v2.3h12.5v4.5h-12.5v3.2h-5.3v-3.2h-10.5V345h10.5v-2.3h-8.6v-4.1h8.6v-2.3H818V332h8.3v-2h-10.7v-4.3h10.7V323.6z
			 M831.6,323.6v2.1h5.5v-2.1H831.6z M837.1,330.1h-5.5v2h5.5V330.1z"/>
		<path class="st10" d="M869.8,328h-18.6v-4.5h7.9c-0.7-1.8-2-4.2-3-6l4.4-2c1.3,2,2.8,4.6,3.5,6.3l-3.2,1.7h9L869.8,328L869.8,328z
			 M867.8,331.2c4.7-2.6,5.2-5.9,5.2-9v-5.1h16v10.4c0,1.4,0.1,2,0.7,2h1.9c0.7,0,1.7-0.1,2.3-0.3c0.1,1.4,0.2,3.4,0.4,4.7
			c-0.7,0.3-1.7,0.3-2.7,0.3h-2.5c-4.5,0-5.3-2-5.3-6.7v-5.1h-5.7l0,0c0,4.6-1.3,10-7.3,13.1c-0.5-0.9-2-2.6-3.1-3.5v2.3h-14.6V330
			h14.6L867.8,331.2L867.8,331.2z M867.9,340.8h-14.7v-4.3h14.7V340.8z M893.4,337.5c-1.6,5.9-4.2,10.4-7.6,13.9
			c2.9,1.5,6.2,2.7,9.9,3.4c-1.2,1.1-2.7,3.6-3.5,5.1c-4.2-1-7.9-2.6-11-4.7c-3.2,2.1-7,3.7-11,4.8c-0.5-1.2-1.3-2.9-2.2-4.2v1.7
			h-9.8v2h-4.8v-16.4H868v11.8c3.2-0.8,6.1-1.9,8.8-3.4c-2.5-2.5-4.6-5.5-6.2-8.9l3.1-1.1h-4.4v-5.3h19.9l1-0.2L893.4,337.5z
			 M863,347.6h-4.9v5.3h4.9V347.6z M875.5,341.5c1.4,2.6,3.3,4.8,5.6,6.8c2.1-1.9,3.8-4.1,5.1-6.8H875.5z"/>
	</g>
	<g class="st9">
		<path d="M970.9,350.4c-0.3,3.2-1,6.7-1.7,9c-0.6-0.3-1.8-0.7-2.4-0.9c0.8-2.2,1.3-5.5,1.6-8.6L970.9,350.4z M987.2,335.2
			c-0.5,2-1.2,4.1-2.1,6.2v18.7h-2.8v-12.9c-0.5,0.8-1,1.6-1.6,2.2c-0.4-0.6-1.2-1.8-1.8-2.3l0.2-0.3l-1.6,0.7
			c0-0.3-0.1-0.6-0.2-0.9c-7.4,1.2-8.6,1.5-9.2,1.9c-0.1-0.6-0.6-2.1-1-2.9c0.8-0.2,1.6-1.1,2.7-2.5c0.5-0.6,1.6-2.1,2.7-3.9
			c-3.4,0.4-4.1,0.6-4.7,0.9c-0.1-0.6-0.6-2.1-0.9-2.9c0.6-0.2,1.2-0.9,1.9-2c0.8-1.1,3.2-5.3,4.5-9.3l2.7,1.2
			c-1.4,3.3-3.3,6.8-5.2,9.6l3.3-0.3c1-1.7,1.9-3.5,2.7-5.2l2.5,1.6c-2.2,4.2-4.9,8.5-7.8,12l5-0.7c-0.4-1.2-0.8-2.4-1.3-3.5
			l2.2-0.8c0.9,1.9,1.8,4.3,2.2,6.1c2.2-3.3,3.7-7.8,4.5-11.4L987.2,335.2z M974.6,349.7c0.4,2.5,0.9,5.7,1,7.8l-2.4,0.7
			c-0.1-2.2-0.5-5.4-0.9-7.9L974.6,349.7z M978.3,348.7c0.9,2.3,1.7,5.2,2.1,7.1l-2.3,0.9c-0.3-2-1.2-5-1.9-7.2L978.3,348.7z
			 M983.2,335.8h-3.1v-6.4h9.1c-0.4-0.9-0.9-1.8-1.4-2.6l2.8-1.2c0.9,1.1,1.6,2.6,2.1,3.7h8.2v5.9h-3.2v-3h-14.4L983.2,335.8
			L983.2,335.8z M995.6,338.9c-0.3,1.2-0.6,2.2-0.9,3.3h5.6v17.7h-3v-1.4h-6.6v1.6h-2.9v-17.9h3.8c0.2-1,0.4-2.2,0.6-3.3H987v-2.8
			h13.9v2.8L995.6,338.9L995.6,338.9z M997.2,344.9h-6.6v3.9h6.6V344.9z M997.2,355.7v-4.1h-6.6v4.1H997.2z"/>
		<path d="M1011.4,342.3c-1.3-1.2-3.9-2.8-6.1-3.7l1.9-2.5c2.1,0.9,4.8,2.2,6.2,3.4L1011.4,342.3z M1013.6,347.1
			c-1.3,4.1-3.1,8.7-4.7,12.4l-3.1-1.8c1.5-3,3.6-8,5.1-12.4L1013.6,347.1z M1013.1,332.5c-1.3-1.2-3.9-2.9-6.1-3.9l2-2.5
			c2.1,0.9,4.8,2.4,6.1,3.6L1013.1,332.5z M1038.9,338.1c-1.1,4.9-2.7,9.1-4.9,12.7c0.7,3.2,1.6,5.2,2.5,5.2c0.6,0,1.1-1.9,1.3-5.5
			c0.5,0.7,1.9,1.5,2.5,1.8c-0.8,6.3-2.4,7.8-3.8,7.8c-2.2,0-3.7-2.1-4.9-5.8c-1.8,2.2-3.8,4-6.1,5.6c-0.4-0.6-1.7-1.8-2.3-2.3
			c3-1.8,5.5-4.2,7.4-7.1c-0.9-4.2-1.4-9.7-1.7-15.9h-10.6v7c0,5.5-0.5,13.3-3.9,18.5c-0.5-0.5-1.9-1.5-2.6-1.8
			c3.1-4.8,3.4-11.7,3.4-16.7v-10.1h13.5c-0.1-1.7-0.1-3.5-0.2-5.3h3.2c0,1.8,0.1,3.6,0.1,5.3h5.3c-1-1.2-3-2.8-4.7-3.8l1.9-1.8
			c1.8,1,3.8,2.6,4.9,3.8l-1.8,1.8h1.8v3.1h-7.1c0.3,4.2,0.6,8.1,1,11.4c1.2-2.5,2.1-5.3,2.7-8.4L1038.9,338.1z M1028.2,339.8h-8.4
			v-2.6h8.4V339.8z M1022.2,352.5v2.2h-2.4v-12.3h8.4v10.1L1022.2,352.5L1022.2,352.5z M1022.2,345v4.9h3.6V345H1022.2z"/>
	</g>
	<g class="st9">
		<path class="st11" d="M1115.7,333c-1.5,6.2-3.6,11.8-6.5,16.3c0.8,3.1,1.6,5,2.5,5c0.7,0,1.1-2.2,1.2-7.1c1,1.2,2.7,2.4,4,3
			c-0.7,7.3-2.2,9.4-5.9,9.4c-2.3,0-4.1-2-5.5-5.3c-2,2.3-4.2,4.2-6.7,5.9c-0.8-1-2.8-3-4-3.8c3.5-2.1,6.4-4.8,8.9-8
			c-1.2-5.8-1.9-13.2-2.2-21h-9.3v5.1h8.5c0,0,0,1.3,0,1.9c-0.1,10.6-0.3,14.9-1.3,16.1c-0.8,1-1.5,1.5-2.6,1.7
			c-1,0.2-2.5,0.2-4.1,0.2c-0.1-1.4-0.5-3.3-1.2-4.5c-0.8,4.6-2.3,9-5.3,12.3c-0.8-1-2.9-2.8-4.1-3.5c1.9-2.1,3.1-4.8,3.8-7.4
			c-4.2,1.7-8.7,3.6-12.3,5l-1.8-5.7c1.4-0.4,3.1-1,5-1.6v-15h-4.1v-5.2h4.1v-10.7h5.2v10.7h3.7v5.2h-3.7v13.1l3.7-1.3l0.7,3.5
			c0.7-3.2,0.8-6.6,0.8-9.5V322h14.3c0-2.2-0.1-4.4-0.1-6.6h5.3c0,2.2,0,4.4,0,6.6h3.7c-1-1.5-2.3-3.2-3.6-4.5l3.9-2.3
			c1.8,1.7,3.8,4,4.6,5.6l-2,1.2h2.6v5.1h-9.1c0.2,5,0.6,9.7,1.1,13.8c1.2-2.8,2.1-5.8,2.8-9L1115.7,333z M1092.2,337.1v1
			c0,3-0.1,6.4-0.7,9.8c1.2,0.1,2.1,0.1,2.6,0.1s0.9-0.1,1.2-0.6c0.4-0.7,0.6-3.2,0.7-10.3H1092.2z"/>
		<path class="st11" d="M1147.4,343.9c1.5,4,3.2,9.1,3.8,12.3l-4.6,1.8c-0.1-0.9-0.4-2-0.7-3c-7.3,2.4-8.7,3-9.6,3.6
			c-0.2-1.1-1.1-3-1.8-3.8c0.9-0.5,2.1-1.4,2.1-3.3v-14.3c-1.6,10.4-5.3,17.8-12.5,22.4c-0.5-1-1.9-3-2.8-3.8
			c4.4-2.6,7.3-6.4,9-11.5c-5.4,0.8-6.6,1.1-7.4,1.4c-0.2-0.9-1-3.2-1.6-4.4c1-0.2,2-1.3,3.2-3c0.6-0.8,2-2.8,3.4-5.4
			c-3.1,0.4-4.1,0.7-4.8,1c-0.3-1-1-3.3-1.6-4.6c0.8-0.2,1.5-1.1,2.2-2.4c0.7-1.2,2.9-6.1,4-10.7l5.2,1.2c-1.3,3.9-3.3,7.9-5.1,11.1
			l2.5-0.2c0.6-1.3,1.2-2.7,1.8-4l4.6,1.8v-5.8h4.6c-0.5-1.1-1.2-2.3-1.8-3.2l4.5-1.6c1,1.5,2.1,3.3,2.8,4.8h3.3v22.1h-8.5v8.9
			l3.1-1c-0.6-1.8-1.1-3.6-1.8-5.2L1147.4,343.9z M1136.7,336.5v-10.2c-2.3,4.9-5.3,9.8-8.2,13.8l3.2-0.4c0.2-1.2,0.4-2.4,0.6-3.8
			L1136.7,336.5z M1141.5,325.2v4.2h4v-4.2H1141.5z M1145.5,337.8v-4h-4v4H1145.5z M1165.9,320c-1.3,4.6-3,10.3-4.4,14.3
			c3,4.2,3.6,8,3.6,11.1c0,3.3-0.6,5.6-2.1,6.8c-0.8,0.6-1.7,1-2.7,1.1c-0.9,0.1-2,0.1-3,0.1c0-1.4-0.4-3.6-1.1-5c0.8,0,1.5,0,2.1,0
			c0.4,0,0.9-0.1,1.3-0.4c0.6-0.5,0.9-1.7,0.9-3.3c0-2.6-0.7-6-3.5-9.9c1.1-3.5,2.2-8.4,3.1-12h-3.8V360h-4.7v-42h10.1l0.8-0.2
			L1165.9,320z"/>
		<path class="st11" d="M1212.3,329.3c-0.8,7-2,12.9-4.1,17.9c1.9,3.6,4.3,6.5,7.5,8.4c-1.1,0.8-2.5,2.6-3.2,3.9
			c-2.9-1.9-5-4.4-6.9-7.5c-2.1,3.4-5,6.1-8.5,8.4c-0.3-0.8-1.3-2.3-2.1-3.4l-3,2.6c-1.6-1-3.8-2.2-6.1-3.3
			c-3.1,1.4-7.4,2.7-13.3,3.5c-0.4-1.1-1.3-2.7-2-3.6c4.2-0.6,7.5-1.3,10-2.1c-2.1-0.9-4.3-1.6-6.3-2.2c0.7-0.8,1.4-1.7,2.1-2.8
			l-4.3,0.2l-0.4-3.8c2.1-0.1,4.6-0.2,7.3-0.3c0.6-1,1.2-2,1.7-3h-7v-8.6h8.5v-1.3h-7.2v-5h-3.6v-4h3.6v-4.8h7.2v-2.9h4.3v2.9h7.7
			v4.8h3.2v4h-3.2v5h-7.7v1.3h8.7v3.5c3.1-5.1,4.7-13.2,5.6-21.4l4.8,0.6c-0.3,2.7-0.7,5.3-1.2,7.9h11.3v5L1212.3,329.3
			L1212.3,329.3z M1178.1,338.9h3.9v-1.8h-3.9V338.9z M1179.5,322.1v1.5h2.6v-1.5H1179.5z M1182,328.8v-1.7h-2.6v1.7H1182z
			 M1180.8,350.1c1.6,0.5,3.2,1.1,4.8,1.7c1.8-1,2.8-2.2,3.3-3.4l-7.2,0.4L1180.8,350.1z M1193.7,348.2c-0.4,1.9-1.5,3.8-3.6,5.6
			c1.7,0.8,3.2,1.5,4.6,2.2c3.8-2.2,6.6-5.2,8.5-9.1c-1.1-2.9-2-6-2.8-9.5c-0.5,1.2-1.1,2.4-1.8,3.5c-0.7-0.9-2.4-2.7-3.5-3.5v4.9
			h-9.5c-0.5,0.9-1,1.8-1.5,2.8l5.6-0.3v-1.7h4.4v1.5l1.5-0.1v3.6L1193.7,348.2z M1186.3,322.1v1.5h2.8v-1.5H1186.3z M1189.1,328.8
			v-1.7h-2.8v1.7H1189.1z M1186.3,337.1v1.8h3.8v-1.8H1186.3z M1203.1,329.3c0.6,4,1.4,7.9,2.4,11.4c1-3.4,1.6-7.2,2-11.4H1203.1z"
			/>
		<path class="st11" d="M1236.8,317.5c-1.2,3.2-2.7,6.5-4.4,9.6V360h-5.7v-24c-1,1.2-2,2.4-3,3.5c-0.5-1.4-2.1-4.5-3-5.9
			c4.3-4.3,8.4-11,10.9-17.8L1236.8,317.5z M1264.5,352.8v5.5h-29.8v-5.5h16.6c1.6-6.2,3.2-15.4,3.9-22.3l5.9,0.9
			c-1.2,7.1-3,15.4-4.6,21.4H1264.5z M1247.5,323.6c-0.3-2-1.3-5.1-2.1-7.3l5.4-1.3c1,2.3,1.9,5.3,2.4,7.2l-5,1.4h14.7v5.5h-26.5
			v-5.5L1247.5,323.6L1247.5,323.6z M1242,351.5c-0.4-5-1.5-13.3-2.8-19.7l5.1-1.1c1.4,6.2,2.8,14.4,3.2,19.2L1242,351.5z"/>
		<path class="st11" d="M1278.3,343.9c-1.8-1.3-5.4-3.7-8-5.2l3.3-3.8c2.5,1.4,6.2,3.5,8.1,4.8L1278.3,343.9z M1271.1,355.7
			c2.6-2.5,6.4-6.8,9.6-10.8l3.3,4.1c-2.7,3.7-5.8,7.6-8.8,11L1271.1,355.7z M1280.9,323.3h-9.5v-5h9.5v-2.6h5.5v2.6h4.9v5h-4.9v3.1
			h-5.5V323.3z M1276.5,325.6c2.4,1.4,6.2,3.4,8.2,4.6l-3.3,4.2c-1.9-1.2-5.6-3.5-8.1-5L1276.5,325.6z M1312,330.5c-2,3-4.8,5.7-8,8
			c3.5,1.3,7.5,2.2,11.5,2.9c-1.1,1.1-2.6,3.2-3.3,4.7c-0.7-0.1-1.5-0.3-2.2-0.5v14.6h-5.6v-1.9h-12.7v1.9h-5.3v-13.9
			c-0.6,0.2-1.3,0.3-1.9,0.5c-0.5-1.3-1.8-3.5-2.8-4.5c4-0.8,8.3-2,12.1-3.7c-1.3-0.9-2.5-1.9-3.7-3c-1.4,1.4-2.9,2.7-4.5,4
			c-0.9-1-2.7-2.7-3.9-3.4c4.7-3.1,8.4-7.3,10.5-10.7l5.4,1.1c-0.5,0.7-1,1.4-1.5,2.1h11.3l0.9-0.2L1312,330.5z M1309.2,345.2
			c-3.6-1-7-2.2-10.2-3.8c-3,1.6-6.2,2.8-9.4,3.8H1309.2z M1304.5,353.8v-4.3h-12.7v4.3H1304.5z M1293.7,332.6c1.3,1.2,3,2.4,5,3.4
			c1.8-1,3.5-2.2,4.9-3.4H1293.7z M1298.5,323.2h-4.7v-5h4.7v-2.6h5.5v2.6h9.6v5h-9.6v3.2h-5.5V323.2z"/>
		<path class="st11" d="M1363.3,335.8v5h-27.6c-2.1,8.4-6,15.1-11.4,19.3c-1-1-3.4-3-4.8-3.9c5-3.3,8.3-8.8,10-15.4h-8.6v-5h18.2
			v-2.5h-13.7v-4.7h13.7v-2.5H1323v-4.9h8.3c-0.6-1.2-1.4-2.5-2.2-3.6l4.9-1.9c1.3,1.6,2.7,3.8,3.2,5.3l-0.3,0.1h10.1
			c1-1.6,2.1-4,2.7-5.6l6.2,1.5c-1,1.5-2,3-2.9,4.1h8.6v4.9H1345v2.5h14.1v4.7H1345v2.5h18.3V335.8z M1349.2,354.2h13.4v4.9h-32.1
			v-4.9h12.9v-6h-8.3v-4.9h24.2v4.9h-10.1V354.2z"/>
	</g>
</g>
<g>
	<path d="M831.2,187.2l0.1-0.3l-7.9-2.5l-0.1,0.2c-4.4,10.7-12.1,21.4-19.9,27.9l-0.2,0.2l0.2,0.2c1.7,1.3,4.8,4.2,6,5.6l0.2,0.2
		l0.2-0.2C817.8,211,826,199,831.2,187.2z"/>
	<path d="M853.1,184.5l-0.1-0.2h-18.3v7.4h12.8c4.4,11.2,11.3,21,19,26.8l0.2,0.2l0.1-0.2c1.2-2.1,3.6-5.1,5.2-6.7l0.2-0.2l-0.3-0.2
		C863.9,206.3,856.6,196,853.1,184.5z"/>
	<path d="M851.7,221l-0.1-0.2l-7,3.2l0.2,0.2c2.9,4.2,5.6,8.1,7.9,11.6l-29.6,1.9c7-8.1,14.2-18.5,20.2-29.2l0.1-0.2l-8.4-3.6
		l-0.1,0.2c-5.7,12-14.8,24.7-18.2,28.1c-2.6,3.2-4.7,5.5-6.8,6l-0.3,0.1l0.1,0.3c1,2,2.3,5.8,2.7,7.3l0.1,0.3l0.3-0.1
		c3.1-1.1,7.4-1.4,40.7-3.9l3.3-0.2c1.4,2.3,2.6,4.6,3.8,6.9l0.1,0.2l7.3-4l-0.1-0.2C864.1,238.5,856.8,227.9,851.7,221z"/>
	<path d="M905,227.9l4.4-6l-0.1-0.1c-1.6-1.9-8.7-9.5-11-11.8v-0.2h11.4v-6.9h-11.4v-10.4c4.2-0.9,7.9-1.9,10.9-3l0.3-0.1l-4.1-6.1
		l-0.2,0.1c-5.7,2.3-15.6,4.7-26.4,6.3l-0.4,0.1l0.2,0.3c0.8,1.5,1.7,3.8,1.9,5.2l0,0.2l0.2,0c3.4-0.4,6.9-0.9,10.4-1.5v9h-12.3v6.9
		h11.1c-3.5,8.1-8.7,16.3-13.3,21l-0.1,0.1l0.1,0.2c0.6,0.9,2.6,4.2,3.4,6.5l0.1,0.4l0.3-0.3c3.6-4,7.4-10.2,10.7-17.2V250h7.1
		v-32.1c2.4,3.3,5.3,7.4,6.6,9.7L905,227.9z"/>
	<path d="M933.1,212.6l-0.1-0.2l-6.7,2.4l0.1,0.2c2,4.8,4.9,12,7.2,18.8l-18.6,2.6c5.3-14.6,10.1-32.9,13.2-50.3l0-0.2l-7.7-1.4
		l0,0.3c-3,18.5-9.1,39.2-11,44.3c-1.8,5.1-3.4,9.1-5.3,9.8l-0.2,0.1l0.1,0.2c0.8,1.9,2,5.2,2.4,6.6l0.1,0.3l0.3-0.1
		c2.3-1.1,6-1.9,28.9-5.5c0.9,2.8,1.6,5.3,2.1,7.6l0.1,0.3l7.3-3l0-0.2C943.1,236.4,937.6,222.5,933.1,212.6z"/>
	<path d="M1007.7,213.2l0-0.3h-6.5l0,0.2c-0.1,2.3-0.1,4.8-0.3,7.1h-6.4v5.8h5.9c-1.1,9.2-3.7,15.1-8.6,19.1l-0.2,0.2
		c0.8-3.1,1.2-9.4,1.6-22.3c0.1-0.7,0.1-2.4,0.1-2.4v-0.2h-9.9c0.1-2.3,0.2-4.7,0.3-6.9l0-0.3h-5c9.3-3.7,14.7-9,17.4-17.1h12
		c-0.5,5.4-1.2,8.6-2.2,9.5c-0.5,0.4-1.1,0.5-2.1,0.5c-1,0-3.8-0.1-6.8-0.3l-0.5,0l0.3,0.4c0.9,1.4,1.6,3.8,1.6,5.6l0,0.2l0.2,0
		c3.4,0.2,6.4,0.1,7.9-0.1c1.9-0.1,3.4-0.6,4.8-2.1c1.8-1.9,2.8-6.4,3.6-17.1c0.1-0.8,0.2-2.4,0.2-2.4l0-0.3h-17.7
		c0.4-2.2,0.7-4.7,0.8-7.3l0-0.3h-6.9l0,0.2c-0.1,2.6-0.4,5.1-0.8,7.4h-13.4v6H989c-2.5,5.9-7,9.6-14.5,12.2l-0.4,0.1l0.3,0.3
		c1.2,1,2.6,3.1,3.3,4.5h-0.2l0,0.2c-0.1,2.2-0.1,4.7-0.3,6.9h-6.7v5.8h6.3c-1.1,9.4-3.6,15.4-8.3,19.4l-0.2,0.2l0.2,0.2
		c1.2,1,3,2.9,3.7,4.2l0.2,0.3l0.2-0.2c5.9-5.2,9.1-12.6,10.4-24h4.2c-0.4,11.8-0.8,16.4-1.6,17.6c-0.4,0.6-0.8,0.7-1.5,0.7
		c-0.9,0-2.3,0-4.2-0.2l-0.5-0.1l0.2,0.4c0.8,1.4,1.3,3.7,1.4,5.2l0,0.2l0.2,0c2.6,0.1,4.5,0,5.6-0.1c1.6-0.2,2.8-0.7,3.9-2.2
		c0.4-0.5,0.7-1.2,1-2.2l0.2,0.2c1.3,0.9,3,2.9,3.7,4.2l0.1,0.3l0.2-0.2c6.1-5.2,9.5-12.5,10.9-23.8h4.7
		c-0.4,11.7-0.8,16.3-1.6,17.4c-0.4,0.5-0.7,0.7-1.6,0.7c-0.8,0-2.5,0-4.5-0.3l-0.5-0.1l0.2,0.4c0.8,1.5,1.3,3.8,1.4,5.5l0,0.2
		l0.2,0c2.9,0.1,4.8,0,6-0.1c1.9-0.2,3-0.8,4-2.2c1.4-2,2-7.5,2.5-24.5c0.1-0.8,0.1-2.4,0.1-2.5v-0.2h-10.4
		C1007.5,218,1007.6,215.5,1007.7,213.2z"/>
	<polygon points="974.8,201.2 966.7,201.2 966.7,182.5 959.7,182.5 959.7,201.2 951.2,201.2 951.2,207.9 959.7,207.9 959.7,250 
		966.7,250 966.7,207.9 974.8,207.9 	"/>
	<path d="M1058.8,198v-15.3h-7.7V198h-23v7.4h22.6c-1,11.3-4.7,27.6-24.7,39l-0.3,0.2l0.3,0.2c1.6,1.2,4.1,3.8,5.2,5.4l0.1,0.2
		l0.2-0.1c22-13,25.9-31.8,26.9-45h22.4c-1.2,23.1-2.7,33.5-5.2,35.8c-0.8,0.8-1.5,1-3.2,1c-1.9,0-6.3,0-11.1-0.4l-0.5,0l0.3,0.4
		c1.2,1.9,2.2,4.8,2.4,6.9l0,0.2l0.2,0c5.1,0.3,9.3,0.3,11.7,0c2.8-0.3,4.8-0.9,6.9-3.4c3.2-3.7,4.6-13.6,6.3-44.3
		c0.1-0.9,0.1-3.3,0.1-3.4l0-0.3H1058.8z"/>
</g>
</svg>
