<svg width="41" height="34" viewBox="0 0 41 34" fill="none" xmlns="http://www.w3.org/2000/svg">
<path d="M31.5377 14.3424C32.3239 14.2795 33.0472 13.8393 33.7075 13.0216C34.6509 11.921 35.5472 10.6789 36.3962 9.29523C34.8239 8.50907 33.3931 8.06881 32.1038 7.97447C30.8145 7.84869 29.7767 8.08454 28.9906 8.68202C28.456 9.09083 28.1258 9.64114 28 10.333C29.2264 9.76693 30.217 9.37385 30.9717 9.15372L31.8208 12.0311C31.0975 12.2512 30.2327 12.5971 29.2264 13.0688C27.2453 13.9808 25.6415 15.0028 24.4151 16.1349C22.717 17.7386 21.8679 19.4682 21.8679 21.3235V23.5877C23 23.8707 23.9434 24.421 24.6981 25.2386C25.2642 24.9871 25.8616 24.8613 26.4906 24.8613C27.5283 24.8613 28.4403 25.16 29.2264 25.7575C30.044 26.355 30.6101 27.1254 30.9245 28.0688C31.4277 27.943 31.9308 27.8801 32.434 27.8801C33.5346 27.8801 34.5409 28.1474 35.4528 28.682C36.3962 29.2166 37.1352 29.9556 37.6698 30.899C38.2044 31.811 38.4717 32.8172 38.4717 33.9179H35.4528C35.4528 33.1003 35.1541 32.3927 34.5566 31.7952C33.9591 31.1977 33.2516 30.899 32.434 30.899C31.6792 30.899 31.0189 31.1663 30.4528 31.7009L28 30.0499C28.0629 29.8613 28.0943 29.6726 28.0943 29.4839C28.0943 29.0437 27.9371 28.6663 27.6226 28.3518C27.3082 28.0374 26.9308 27.8801 26.4906 27.8801C26.0503 27.8801 25.6887 28.0374 25.4057 28.3518L23 27.9745C22.7484 27.4713 22.3711 27.0782 21.8679 26.7952C21.3962 26.5122 20.8774 26.3707 20.3113 26.3707C19.7453 26.3707 19.2107 26.5279 18.7075 26.8424C18.2358 27.1569 17.8742 27.5814 17.6226 28.116L15.1698 28.5405C14.7296 28.1003 14.195 27.8801 13.566 27.8801C12.9371 27.8801 12.4025 28.1003 11.9623 28.5405C11.522 28.9808 11.3019 29.5154 11.3019 30.1443L8.89623 31.3707C8.48742 31.0562 8.03145 30.899 7.5283 30.899C6.89937 30.899 6.36478 31.1191 5.92453 31.5594C5.48428 31.9996 5.26415 32.5342 5.26415 33.1632V33.9179H2.24528V33.1632C2.24528 32.2198 2.48113 31.3393 2.95283 30.5216C3.42453 29.704 4.06918 29.0594 4.88679 28.5877C5.7044 28.116 6.58491 27.8801 7.5283 27.8801C7.93711 27.8801 8.33019 27.9273 8.70755 28.0216C9.1478 27.0782 9.79245 26.3235 10.6415 25.7575C11.522 25.16 12.4969 24.8613 13.566 24.8613C14.3836 24.8613 15.1541 25.0342 15.8774 25.3801C16.6635 24.4996 17.6541 23.9021 18.8491 23.5877V18.8235C18.8491 17.2198 18.1258 15.5845 16.6792 13.9179C15.5157 12.6286 13.9591 11.3864 12.0094 10.1915C10.5314 9.27951 9.11635 8.57196 7.76415 8.06881L8.84906 5.23863C9.44654 5.45875 10.2327 5.82039 11.2075 6.32353C12.8742 7.17259 14.3836 8.10026 15.7358 9.10655C15.8931 8.41473 15.8145 7.70718 15.5 6.98391C15.1855 6.26064 14.6981 5.63171 14.0377 5.09712C13.1572 4.37385 12.0723 3.93359 10.783 3.77636C8.77044 3.52479 6.52201 3.99649 4.03774 5.19146C4.98113 8.05309 6.08176 10.1757 7.33962 11.5594C7.96855 12.2512 8.69182 12.66 9.50943 12.7858C10.0755 12.8487 10.673 12.7543 11.3019 12.5028C11.6164 12.377 11.8679 12.2512 12.0566 12.1254L14.0377 14.3424C13.6604 14.7198 13.1258 15.0342 12.434 15.2858C11.5849 15.6317 10.7358 15.8047 9.88679 15.8047H9.5566C7.82704 15.7103 6.34906 14.9713 5.12264 13.5877C3.92767 12.2669 2.85849 10.443 1.91509 8.11598C1.41195 6.88957 1.03459 5.78894 0.783019 4.8141L0.5 3.68202L1.53774 3.11598C4.99686 1.19775 8.18868 0.411582 11.1132 0.757494C13 0.97762 14.6195 1.638 15.9717 2.73863C17.1352 3.68202 17.9528 4.84554 18.4245 6.22919C18.9277 7.61284 18.9906 8.94932 18.6132 10.2386L18.5189 10.5216C18.456 10.8047 18.3774 11.0562 18.283 11.2764C19.5723 12.5971 20.5157 13.9493 21.1132 15.333C22.1195 14.0751 23.4245 12.943 25.0283 11.9367C24.8082 10.8676 24.8868 9.82982 25.2642 8.82353C25.6415 7.7858 26.2704 6.93674 27.1509 6.27636C28.2516 5.45875 29.588 5.00278 31.1604 4.90844C33.5818 4.78265 36.2862 5.61598 39.2736 7.40844L40.5 8.16315L39.7925 9.43674C38.7233 11.3864 37.4811 13.226 36.066 14.9556C35.4057 15.7103 34.6667 16.3078 33.8491 16.7481C33.0629 17.1569 32.2453 17.3613 31.3962 17.3613H31.1132C30.4528 17.2984 29.8553 17.1411 29.3208 16.8896C28.7862 16.6066 28.3774 16.2449 28.0943 15.8047L30.6415 14.1537C30.673 14.1852 30.7673 14.2323 30.9245 14.2952C31.1132 14.3267 31.3176 14.3424 31.5377 14.3424ZM16.5849 9.48391H16.5377L16.3491 9.53108L16.5849 9.71976V9.48391Z" fill="#514FC3"/>
</svg>
