<svg width="37" height="37" fill="none" xmlns="http://www.w3.org/2000/svg"><path d="M14.513 13.89l-8.05 23.108H5.05l8.087-23.18c1.454-4.213-1.156-9.11-5.7-10.694l-.15-.053.43-1.249.151.053c5.218 1.848 8.26 7.348 6.645 12.014v.002zM7.217 3.739l-.155-.054-.39 1.217.147.051a6.839 6.839 0 013.947 3.532 6.928 6.928 0 01.319 5.303L3 36.997h1.346l8.085-23.115c1.232-4.234-1.058-8.692-5.214-10.144zM25.865 35.04H34v-1.298h-8.135v1.298zm0-21.362v1.298H34v-1.298h-8.135zm0 3.256H34v-1.298h-8.135v1.298zm0 .66H34v1.298h-1.465v12.895H34v1.297h-8.135v-1.298h1.465V18.892h-1.465v-1.298zm4.715 14.192h.66V18.892h-.66v12.895zm-1.955 0h.66V18.892h-.66v12.895zm-2.76 5.212H34V35.7h-8.135v1.298zm-8.767-23.184L25.207 37h-1.413l-7.641-21.901-.35.992L23.124 37H21.71l-6.596-18.892-.32.92L21.005 37h-1.378l-1.694-4.893H10.21L8.517 37H7.17l7.986-23.211c1.85-5.386-2.162-10.822-7.066-12.521l-.147-.051L8.334 0l.155.053c5.133 1.782 9.404 7.167 8.256 12.701l.352 1.06zm.18 16.333h-6.382l-.22.66h6.822l-.22-.66zm-.683-1.958h-5.014l-.22.66h5.454l-.22-.66zm-2.493-7.207l-2.055 5.91h4.081l-2.024-5.91h-.002z" fill="#6868AC"/></svg>