<svg width="1903" height="728" viewBox="0 0 1903 728" fill="none" xmlns="http://www.w3.org/2000/svg">
<rect width="1903" height="728" fill="url(#paint0_radial_5317_1686)"/>
<g opacity="0.4">
<path d="M758.637 172.328H756.106V163.938L753.637 164.745V162.965L758.369 161.328H758.637V172.328Z" fill="white"/>
<path d="M79.8457 149.177H76.302V135.449L72.8457 136.77V133.856L79.4714 131.177H79.8457V149.177Z" fill="white"/>
<path d="M202.857 259.965H200.326V251.575L197.857 252.382V250.602L202.59 248.965H202.857V259.965Z" fill="white"/>
<path d="M559.395 479.56H556.863V471.17L554.395 471.978V470.197L559.127 468.56H559.395V479.56Z" fill="white"/>
<path d="M732.697 524.051H725.61V495.832L718.697 498.547V492.558L731.949 487.051H732.697V524.051Z" fill="white"/>
<path d="M859.529 524.477H856.998V516.088L854.529 516.895V515.114L859.262 513.477H859.529V524.477Z" fill="white"/>
<path d="M139 596H134.444V579.984L130 581.525V578.126L138.519 575H139V596Z" fill="white"/>
<path d="M1459.86 339.965H1452.77V311.745L1445.86 314.46V308.471L1459.11 302.965H1459.86V339.965Z" fill="white"/>
<path d="M1201.94 348.49H1194.85V320.27L1187.94 322.986V316.997L1201.19 311.49H1201.94V348.49Z" fill="white"/>
<path d="M1756.91 107H1749.83V78.7805L1742.91 81.4959V75.5069L1756.17 70H1756.91V107Z" fill="white"/>
<path d="M1652.51 376.685H1648.97V362.956L1645.51 364.277V361.364L1652.14 358.685H1652.51V376.685Z" fill="white"/>
<path d="M1837.15 443.981H1833.6V430.253L1830.15 431.574V428.66L1836.77 425.981H1837.15V443.981Z" fill="white"/>
<path d="M1540.18 170.036H1537.64V161.646L1535.18 162.454V160.673L1539.91 159.036H1540.18V170.036Z" fill="white"/>
<path d="M1430.61 98.5149H1428.08V90.1253L1425.61 90.9326V89.1521L1430.34 87.5149H1430.61V98.5149Z" fill="white"/>
<path d="M1222.31 159.515H1219.78V151.125L1217.31 151.932V150.152L1222.04 148.515H1222.31V159.515Z" fill="white"/>
<path d="M1680.86 606H1677.31V592.272L1673.86 593.593V590.679L1680.48 588H1680.86V606Z" fill="white"/>
<path d="M1031.07 410.193C1031.07 417.73 1029.73 423.495 1027.04 427.488C1024.38 431.48 1020.57 433.477 1015.61 433.477C1010.7 433.477 1006.9 431.543 1004.21 427.675C1001.55 423.782 1000.17 418.217 1000.07 410.979V400.685C1000.07 393.174 1001.41 387.434 1004.07 383.466C1006.73 379.473 1010.55 377.477 1015.54 377.477C1020.52 377.477 1024.34 379.448 1027.01 383.391C1029.67 387.334 1031.03 392.962 1031.07 400.274V410.193ZM1020.67 399.151C1020.67 394.858 1020.25 391.639 1019.42 389.493C1018.59 387.347 1017.3 386.274 1015.54 386.274C1012.24 386.274 1010.53 390.204 1010.41 398.065V411.653C1010.41 416.045 1010.82 419.315 1011.65 421.461C1012.51 423.607 1013.83 424.68 1015.61 424.68C1017.3 424.68 1018.54 423.682 1019.35 421.685C1020.18 419.664 1020.62 416.582 1020.67 412.439V399.151Z" fill="white"/>
<path d="M1783.02 518.236C1783.02 522.408 1782.28 525.599 1780.81 527.809C1779.35 530.02 1777.26 531.125 1774.54 531.125C1771.85 531.125 1769.76 530.054 1768.29 527.913C1766.83 525.758 1766.07 522.677 1766.02 518.671V512.973C1766.02 508.814 1766.75 505.637 1768.21 503.441C1769.67 501.23 1771.76 500.125 1774.5 500.125C1777.23 500.125 1779.33 501.216 1780.79 503.399C1782.25 505.582 1782.99 508.697 1783.02 512.745V518.236ZM1777.31 512.123C1777.31 509.747 1777.08 507.965 1776.63 506.777C1776.17 505.589 1775.46 504.995 1774.5 504.995C1772.69 504.995 1771.75 507.17 1771.68 511.522V519.044C1771.68 521.475 1771.91 523.285 1772.37 524.473C1772.84 525.661 1773.56 526.255 1774.54 526.255C1775.46 526.255 1776.15 525.703 1776.59 524.598C1777.04 523.479 1777.28 521.773 1777.31 519.479V512.123Z" fill="white"/>
<path d="M1366.03 182.342C1366.03 189.878 1364.68 195.643 1361.99 199.636C1359.33 203.629 1355.52 205.625 1350.56 205.625C1345.65 205.625 1341.85 203.691 1339.17 199.823C1336.5 195.93 1335.12 190.365 1335.03 183.128V172.834C1335.03 165.322 1336.36 159.582 1339.02 155.614C1341.68 151.621 1345.51 149.625 1350.49 149.625C1355.47 149.625 1359.3 151.596 1361.96 155.539C1364.62 159.482 1365.98 165.11 1366.03 172.422V182.342ZM1355.62 171.299C1355.62 167.006 1355.2 163.787 1354.37 161.641C1353.54 159.495 1352.25 158.422 1350.49 158.422C1347.19 158.422 1345.48 162.352 1345.36 170.213V183.801C1345.36 188.194 1345.77 191.463 1346.6 193.609C1347.46 195.755 1348.78 196.828 1350.56 196.828C1352.25 196.828 1353.49 195.83 1354.3 193.834C1355.13 191.812 1355.57 188.73 1355.62 184.588V171.299Z" fill="white"/>
<path d="M476.857 345.681C476.857 353.218 475.514 358.982 472.827 362.975C470.164 366.968 466.353 368.965 461.394 368.965C456.484 368.965 452.685 367.031 449.998 363.162C447.335 359.269 445.955 353.704 445.857 346.467V336.173C445.857 328.662 447.189 322.922 449.852 318.954C452.514 314.961 456.337 312.965 461.321 312.965C466.304 312.965 470.127 314.936 472.79 318.879C475.453 322.822 476.809 328.449 476.857 335.761V345.681ZM466.451 334.638C466.451 330.346 466.036 327.127 465.205 324.981C464.374 322.834 463.08 321.761 461.321 321.761C458.023 321.761 456.313 325.692 456.191 333.553V347.141C456.191 351.533 456.606 354.802 457.437 356.949C458.292 359.095 459.611 360.168 461.394 360.168C463.08 360.168 464.326 359.17 465.132 357.173C465.962 355.152 466.402 352.07 466.451 347.927V334.638Z" fill="white"/>
<path d="M85.8555 394H75.7307V353.578L65.8555 357.467V348.888L84.7859 341H85.8555V394Z" fill="white"/>
<path d="M365.857 100.076C365.857 104.248 365.121 107.439 363.647 109.649C362.187 111.859 360.097 112.965 357.378 112.965C354.685 112.965 352.602 111.894 351.128 109.753C349.668 107.598 348.911 104.517 348.857 100.511V94.8122C348.857 90.654 349.588 87.4766 351.048 85.2801C352.508 83.0698 354.604 81.9646 357.337 81.9646C360.07 81.9646 362.167 83.056 363.627 85.2387C365.087 87.4214 365.831 90.5366 365.857 94.5843V100.076ZM360.151 93.9626C360.151 91.5865 359.923 89.8044 359.467 88.6163C359.012 87.4283 358.302 86.8343 357.337 86.8343C355.529 86.8343 354.591 89.0101 354.524 93.3617V100.884C354.524 103.315 354.752 105.125 355.207 106.313C355.676 107.501 356.4 108.095 357.378 108.095C358.302 108.095 358.985 107.542 359.427 106.437C359.883 105.318 360.124 103.612 360.151 101.319V93.9626Z" fill="white"/>
<path d="M532.855 192.111C532.855 196.283 532.119 199.474 530.645 201.684C529.185 203.895 527.095 205 524.376 205C521.683 205 519.6 203.929 518.126 201.788C516.666 199.633 515.909 196.552 515.855 192.546V186.848C515.855 182.689 516.586 179.512 518.046 177.316C519.506 175.105 521.603 174 524.335 174C527.068 174 529.165 175.091 530.625 177.274C532.085 179.457 532.829 182.572 532.855 186.62V192.111ZM527.149 185.998C527.149 183.622 526.921 181.84 526.465 180.652C526.01 179.464 525.3 178.87 524.335 178.87C522.527 178.87 521.589 181.045 521.522 185.397V192.919C521.522 195.35 521.75 197.16 522.205 198.348C522.674 199.536 523.398 200.13 524.376 200.13C525.3 200.13 525.983 199.578 526.425 198.473C526.881 197.354 527.122 195.648 527.149 193.354V185.998Z" fill="white"/>
<path d="M538.855 608.111C538.855 612.283 538.119 615.474 536.645 617.684C535.185 619.895 533.095 621 530.376 621C527.683 621 525.6 619.929 524.126 617.788C522.666 615.633 521.909 612.552 521.855 608.546V602.848C521.855 598.689 522.586 595.512 524.046 593.316C525.506 591.105 527.603 590 530.335 590C533.068 590 535.165 591.091 536.625 593.274C538.085 595.457 538.829 598.572 538.855 602.62V608.111ZM533.149 601.998C533.149 599.622 532.921 597.84 532.465 596.652C532.01 595.464 531.3 594.87 530.335 594.87C528.527 594.87 527.589 597.045 527.522 601.397V608.919C527.522 611.35 527.75 613.16 528.205 614.348C528.674 615.536 529.398 616.13 530.376 616.13C531.3 616.13 531.983 615.578 532.425 614.473C532.881 613.354 533.122 611.648 533.149 609.354V601.998Z" fill="white"/>
<path d="M1438.86 448.402C1438.86 451.497 1438.29 453.865 1437.17 455.505C1436.05 457.145 1434.45 457.965 1432.37 457.965C1430.31 457.965 1428.72 457.17 1427.59 455.582C1426.48 453.983 1425.9 451.697 1425.86 448.725V444.497C1425.86 441.412 1426.42 439.054 1427.53 437.424C1428.65 435.785 1430.25 434.965 1432.34 434.965C1434.43 434.965 1436.04 435.774 1437.15 437.394C1438.27 439.013 1438.84 441.324 1438.86 444.328V448.402ZM1434.49 443.866C1434.49 442.103 1434.32 440.781 1433.97 439.9C1433.62 439.018 1433.08 438.578 1432.34 438.578C1430.96 438.578 1430.24 440.192 1430.19 443.42V449.001C1430.19 450.805 1430.36 452.148 1430.71 453.029C1431.07 453.911 1431.62 454.352 1432.37 454.352C1433.08 454.352 1433.6 453.942 1433.94 453.122C1434.29 452.291 1434.47 451.026 1434.49 449.324V443.866Z" fill="white"/>
<path d="M1313.21 560.226C1313.21 563.322 1312.64 565.689 1311.52 567.329C1310.4 568.969 1308.8 569.789 1306.72 569.789C1304.66 569.789 1303.07 568.995 1301.94 567.406C1300.83 565.807 1300.25 563.521 1300.21 560.549V556.321C1300.21 553.236 1300.77 550.879 1301.88 549.249C1303 547.609 1304.6 546.789 1306.69 546.789C1308.78 546.789 1310.38 547.599 1311.5 549.218C1312.62 550.838 1313.19 553.149 1313.21 556.152V560.226ZM1308.84 555.691C1308.84 553.928 1308.67 552.606 1308.32 551.724C1307.97 550.843 1307.43 550.402 1306.69 550.402C1305.31 550.402 1304.59 552.016 1304.54 555.245V560.826C1304.54 562.63 1304.71 563.972 1305.06 564.854C1305.42 565.735 1305.97 566.176 1306.72 566.176C1307.43 566.176 1307.95 565.766 1308.29 564.946C1308.64 564.116 1308.82 562.85 1308.84 561.149V555.691Z" fill="white"/>
<path d="M730.553 285.83C730.553 290.002 729.816 293.194 728.342 295.404C726.882 297.614 724.792 298.719 722.073 298.719C719.38 298.719 717.297 297.649 715.823 295.508C714.363 293.353 713.606 290.272 713.553 286.266V280.567C713.553 276.409 714.283 273.232 715.743 271.035C717.203 268.825 719.3 267.719 722.033 267.719C724.766 267.719 726.862 268.811 728.322 270.994C729.782 273.176 730.526 276.291 730.553 280.339V285.83ZM724.846 279.717C724.846 277.341 724.618 275.559 724.163 274.371C723.707 273.183 722.997 272.589 722.033 272.589C720.224 272.589 719.286 274.765 719.219 279.117V286.639C719.219 289.07 719.447 290.88 719.903 292.068C720.371 293.256 721.095 293.85 722.073 293.85C722.997 293.85 723.68 293.297 724.122 292.192C724.578 291.073 724.819 289.367 724.846 287.074V279.717Z" fill="white"/>
<path d="M1701.92 251.456C1701.92 254.551 1701.36 256.919 1700.23 258.559C1699.11 260.198 1697.51 261.018 1695.44 261.018C1693.38 261.018 1691.78 260.224 1690.66 258.635C1689.54 257.036 1688.96 254.751 1688.92 251.778V247.551C1688.92 244.465 1689.48 242.108 1690.59 240.478C1691.71 238.838 1693.31 238.018 1695.4 238.018C1697.49 238.018 1699.1 238.828 1700.21 240.448C1701.33 242.067 1701.9 244.378 1701.92 247.381V251.456ZM1697.56 246.92C1697.56 245.157 1697.38 243.835 1697.03 242.954C1696.69 242.072 1696.14 241.631 1695.4 241.631C1694.02 241.631 1693.3 243.246 1693.25 246.474V252.055C1693.25 253.859 1693.43 255.202 1693.78 256.083C1694.13 256.965 1694.69 257.405 1695.44 257.405C1696.14 257.405 1696.66 256.995 1697 256.176C1697.35 255.345 1697.54 254.079 1697.56 252.378V246.92Z" fill="white"/>
<path d="M243.631 456.065H240.087V442.337L236.631 443.658V440.744L243.257 438.065H243.631V456.065Z" fill="white"/>
</g>
<defs>
<radialGradient id="paint0_radial_5317_1686" cx="0" cy="0" r="1" gradientTransform="matrix(-835.439 486.891 -452.738 -898.462 1147.6 98.9922)" gradientUnits="userSpaceOnUse">
<stop stop-color="#4323B7"/>
<stop offset="1" stop-color="#014866"/>
</radialGradient>
</defs>
</svg>
