<?xml version="1.0" encoding="UTF-8"?>
<svg id="_圖層_1" data-name="圖層 1" xmlns="http://www.w3.org/2000/svg" viewBox="0 0 50 50">
  <defs>
    <style>
      .cls-1 {
        opacity: .23;
      }

      .cls-1, .cls-2, .cls-3, .cls-4, .cls-5, .cls-6, .cls-7 {
        fill: #d61518;
      }

      .cls-1, .cls-2, .cls-3, .cls-4, .cls-5, .cls-6, .cls-7, .cls-8 {
        fill-rule: evenodd;
      }

      .cls-9 {
        fill: #fff;
      }

      .cls-2 {
        opacity: .21;
      }

      .cls-10 {
        fill: #e60012;
      }

      .cls-3 {
        opacity: .5;
      }

      .cls-5 {
        opacity: .4;
      }

      .cls-6 {
        opacity: .35;
      }

      .cls-7 {
        opacity: .45;
      }
    </style>
  </defs>
  <g>
    <path class="cls-2" d="M9.19,20.59c-.99.05-1.97.26-2.86.71-.71.36-1.33.9-1.76,1.57-.39.6-.62,1.3-.66,2.02-.04.7.12,1.41.45,2.03.35.66.89,1.22,1.55,1.58.79.44,1.67.63,2.56.63.76,0,1.51-.13,2.24-.33.4-.11.8-.25,1.19-.41.4-.16.81-.3,1.23-.37,0,0,0,0,.02,0-.32.41-.76.7-1.2.97-.03.02-.07.04-.1.06-.43.26-.87.51-1.33.73-.05.02-.69.3-.7.31-.05.1-.07.25-.11.36-.13.12-.27.23-.41.34.1.06.2.11.3.17.39.14,1.11,0,1.49-.08.54-.11,1.1-.31,1.6-.55.81-.4,1.49-.92,1.98-1.68.1-.15.17-.35.22-.52.05-.2.07-.41.04-.61-.03-.23-.13-.46-.29-.63-.15-.17-.35-.31-.57-.38-.4-.13-.77-.12-1.18-.05-.03,0-.06.01-.09.02-.55.12-1.05.31-1.56.54-.91.41-1.85.71-2.85.76-.66.03-1.34-.08-1.93-.38-2.36-1.21-1.62-4.14.44-5.31,1.64-.83,4.36-1.02,6.03-.96-1.23-.43-2.45-.61-3.77-.54h0ZM13.52,28.02s.04,0,.03.01c0,0-.02,0-.03-.01Z"/>
    <path class="cls-5" d="M10.38,30.1c0-.09.14-.17.2-.2.24-.15.51-.28.75-.43.22-.13.42-.27.63-.42.3-.22.61-.43.89-.68.15-.13.29-.27.41-.43-.07,0-.13,0-.16.01-.44.05-.86.19-1.27.34-1.11.41-2.2.68-3.38.65-.34,0-.7-.05-1.03-.13-1.25-.3-2.26-.81-2.82-2.02-.82-1.78.16-3.78.29-3.6-.48,1.86-.4,3.57,1.47,4.47.27.12.56.16.84.23.39.09.81.12,1.21.09,1.03-.07,1.97-.4,2.91-.82.5-.22.99-.41,1.53-.52.13-.02.27-.04.41-.05.26-.01.52.01.77.1.18.07.35.18.48.33.13.15.21.34.24.54.02.18,0,.36-.04.53-.04.16-.12.33-.21.46-.47.71-1.09,1.17-1.83,1.58-.02.01-.04.02-.07.04-.42.21-.84.39-1.29.52-.14.04-.28.08-.42.1-.1.02-.2.03-.3.03-.16,0-.34,0-.49-.07-.04-.01-.09-.04-.09-.09,0-.05.08-.1.12-.12.02-.01.32-.19.26-.25v-.2h0ZM13.53,27.94l.04.02s-.02-.02-.04-.02Z"/>
    <path class="cls-7" d="M10.74,30.06c0-.08.12-.15.17-.19.22-.15.45-.27.67-.42.15-.1.3-.2.44-.31.14-.1.27-.21.41-.31.18-.13.35-.27.51-.42.17-.15.32-.3.45-.48.02-.03.05-.07.07-.11-.13-.01-.28,0-.37.01-.45.06-.87.2-1.29.35-1.1.4-2.17.66-3.34.63-.05,0-.1,0-.16,0-.79-.07-1.53-.25-2.2-.67-.41-.26-.79-.61-1.03-1.03,0-.01-.03-.05-.02-.07,0-.02.03,0,.04,0,.08.04.16.1.23.15.31.22.64.4,1,.54.53.2,1.08.28,1.65.3.15,0,.31,0,.46,0,1.05-.08,1.98-.4,2.93-.83.49-.22.98-.42,1.51-.52.23-.05.47-.06.7-.05.15.01.31.04.45.1.18.07.34.18.47.32.12.15.2.33.23.52.02.17,0,.35-.04.51-.04.15-.11.32-.2.46-.43.65-1,1.1-1.67,1.48-.07.04-.14.08-.21.12-.33.17-.68.32-1.03.44-.19.06-.4.12-.6.13-.14.01-.31,0-.44-.04-.03-.01-.08-.04-.09-.08,0-.05.07-.09.1-.11.02-.01.28-.18.22-.24,0-.06,0-.12,0-.18h0ZM13.56,27.84s0,0,0,0c.01.01.06.03.04.02-.01,0-.03-.02-.05-.02Z"/>
    <path class="cls-7" d="M10.17,30.23c0-.07.12-.13.17-.16.21-.12.43-.22.64-.32.19-.1.38-.21.56-.32.16-.1.33-.19.49-.28.11-.06.22-.13.33-.2.43-.27.82-.55,1.13-.96.04-.05.08-.12.1-.18,0,0,.01-.04.02-.06-.16-.06-.39-.04-.55-.02-.45.06-.89.2-1.32.35-.56.21-1.14.38-1.73.48-.51.09-1.05.14-1.57.11-.61-.03-1.23-.14-1.77-.42-.01,0-.03-.02-.04-.03,0,0-.01-.01-.01-.02,0-.02.04-.02.06-.02.12,0,.25.01.37.02.46.03.92.01,1.38-.04.37-.05.75-.12,1.11-.21.64-.15,1.25-.39,1.85-.67.48-.22.97-.42,1.49-.53.37-.08.76-.1,1.12.02.17.06.34.17.45.3.12.14.2.31.22.5.02.17,0,.33-.04.5,0,.03-.02.06-.03.08-.04.12-.1.26-.17.36-.48.71-1.12,1.19-1.87,1.59-.18.1-.37.18-.55.26-.36.15-.72.27-1.09.37-.12.03-.23.05-.35.07-.08.01-.17.02-.25.02-.13,0-.27-.01-.39-.06-.03-.01-.07-.04-.07-.07,0-.04.06-.08.1-.1.02-.01.26-.15.21-.2,0-.05,0-.11,0-.16h0ZM13.63,27.75s.02.02.02.02h0s-.01-.02-.02-.02Z"/>
    <path class="cls-7" d="M10.16,30.23c0-.06.1-.12.15-.14.19-.11.39-.19.58-.29.2-.1.39-.21.58-.32.19-.11.38-.2.57-.31.04-.02.08-.04.12-.07.53-.3,1-.61,1.37-1.1.04-.06.08-.13.11-.2.01-.02.02-.06.03-.08,0,0,.02,0,.02,0,.02,0-.02-.03-.03-.03-.17-.08-.43-.06-.61-.04-.46.06-.9.2-1.33.35-.25.09-.49.18-.75.24-.84.22-1.66.37-2.53.33-.17,0-.34-.03-.51-.06-.01,0-.03,0-.05-.01,0,0-.01,0,0-.02.01-.02.06-.03.08-.03.15-.04.32-.06.47-.1.33-.07.66-.15.98-.24.36-.11.72-.23,1.07-.35.32-.11.63-.25.94-.39.47-.22.95-.42,1.47-.53.36-.08.72-.1,1.07.01.16.05.31.15.42.28.11.13.18.29.21.45.02.16,0,.32-.03.47-.04.15-.11.3-.19.43-.04.07-.08.13-.13.19-.47.59-1.05,1.01-1.71,1.37-.23.12-.48.23-.72.33-.32.12-.65.23-.98.31-.1.02-.21.05-.31.06-.07.01-.15.02-.22.02-.11,0-.24-.01-.35-.06-.03-.01-.07-.03-.07-.07,0-.04.06-.07.09-.09.02-.01.24-.13.19-.18,0-.05,0-.1,0-.15Z"/>
    <path class="cls-1" d="M13.45,27.75s0,0,0,0c0,0,0,.01,0,.02,0,0,0,0,0-.01h0ZM13.55,27.89l.05.02s-.03-.02-.05-.02h0ZM13.43,27.87c-.12,0-.27.01-.33.02-.44.06-.86.21-1.27.37-1.09.43-2.2.74-3.37.75-.88,0-1.73-.17-2.51-.61-.2-.11-.4-.25-.57-.4-.37-.33-.68-.71-.9-1.15-.31-.6-.45-1.28-.41-1.96.04-.69.22-1.39.6-1.97.45-.69,1.08-1.23,1.81-1.61,1.36-.71,3.16-.74,4.65-.54.62.08,2.3.42.49.29-2.13-.07-5.15.15-6.36,2.23-.04.07-.08.15-.12.22-.2.44-.31.9-.31,1.38,0,.52.15,1.04.42,1.49.29.47.68.82,1.17,1.08.15.08.32.15.48.2.48.15.99.21,1.49.19,1.02-.05,1.96-.36,2.89-.76.5-.22,1-.41,1.54-.52.41-.08.81-.09,1.21.04.2.06.39.2.52.35.14.17.23.36.26.58,0,.06.01.13.01.19,0,.12-.02.25-.05.37-.05.16-.12.35-.21.49-.49.74-1.15,1.25-1.96,1.61-.38.17-.8.3-1.21.35-.16.02-.44.05-.59-.03-.19-.11-.07-.31.03-.44.08-.1.19-.2.29-.28.06-.05.12-.09.19-.13.07-.04.14-.09.21-.12.18-.1.36-.2.53-.31.51-.34,1.04-.76,1.32-1.32,0-.02.02-.04.03-.07Z"/>
    <path class="cls-1" d="M13.59,27.8s0,0,.01,0c.02.01.05.02.02,0-.01,0-.02-.01-.03-.02h0ZM13.53,27.79c-.14-.03-.33,0-.45,0-.45.06-.87.22-1.29.38-1.07.43-2.17.74-3.34.75-.69,0-1.38-.11-2.01-.39-.15-.07-.3-.14-.44-.23-.61-.38-1.1-.86-1.44-1.51-.55-1.05-.53-2.42-.01-3.48.4-.81,1.19-1.48,1.97-1.89,1.57-.83,3.99-.78,5.41-.42,0,0-3.34-.06-5.09.96-1.59.97-2.57,2.79-1.55,4.46.29.48.62.85,1.12,1.1.41.21.86.32,1.31.37.23.02.47.03.69.02,1.03-.06,1.97-.36,2.91-.77.5-.22.99-.41,1.53-.52.4-.08.8-.09,1.19.04.19.06.37.19.5.34.14.16.22.35.25.56.03.17.01.35-.03.52-.04.17-.12.36-.21.5-.48.74-1.14,1.24-1.94,1.6-.32.14-.67.25-1.01.3-.13.02-.37.05-.5-.02-.18-.09-.07-.28.02-.4.07-.1.17-.18.26-.26.05-.04.11-.09.17-.13.06-.04.12-.08.19-.12.14-.08.27-.16.4-.24.52-.35,1.06-.78,1.35-1.35.03-.05.05-.13.06-.19Z"/>
    <path class="cls-1" d="M13.03,28.6c.21-.16.4-.35.55-.56.04-.06.08-.14.11-.21.01-.03.02-.07.02-.1,0-.01,0,0,.01,0,.01,0-.04-.03-.04-.03-.18-.08-.43-.05-.62-.02-.46.07-.89.23-1.31.4-.98.39-1.97.69-3.03.72-.09,0-.17,0-.26,0-.84-.03-1.66-.16-2.4-.59-.59-.34-1.06-.79-1.38-1.39-1.69-3.32,1.49-6.26,4.72-5.82-1.94.22-4.74,1.82-4.68,3.97.02.56.13,1.05.42,1.53.09.15.2.29.31.42.26.29.58.54.94.71.65.31,1.33.4,2.04.37.39-.02.78-.08,1.16-.17.61-.14,1.19-.36,1.76-.61.49-.22.99-.41,1.52-.52.39-.08.78-.09,1.17.03.18.06.36.18.48.33.13.15.22.34.24.54.03.18.01.36-.04.53-.04.16-.11.33-.2.47-.2.35-.47.65-.77.91-.34.29-.71.55-1.11.75-.54.27-1.12.47-1.73.55-.19.02-.59.07-.76-.05-.15-.1-.03-.26.06-.35.07-.08.17-.15.26-.21.05-.03.11-.06.17-.09.06-.03.12-.06.18-.08.46-.18.9-.4,1.32-.67.32-.21.63-.45.9-.73Z"/>
    <path class="cls-3" d="M12.21,27.82c.28-.06.57-.1.85-.1.08,0,.24,0,.37.03,0,0,0,0,0,0-.04.04-.07.09-.1.14-.05.07-.11.13-.17.2-.36.36-.76.67-1.2.93-.01,0-.03.01-.04.02-.2.11-.4.22-.61.33-.17.09-.34.19-.51.28-.22.12-.45.21-.67.33-.1.05-.2.1-.3.15-.05.03-.11.06-.08.12.03.09.01.13-.02.22-.06.14-.41.22-.4.35,0,.13.39.16.49.18.18.03.33.03.52.02.8-.06,1.56-.31,2.29-.63.02-.01.05-.02.07-.04.44-.21.85-.46,1.21-.79.3-.26.55-.56.73-.92.08-.16.15-.34.19-.52.04-.19.04-.38,0-.57-.04-.21-.14-.4-.29-.56-.14-.14-.32-.25-.52-.29-.21-.05-.41-.05-.62-.02-.17.02-.35.06-.52.12-.46.16-1.02.42-1.37.77-.02.02-.03.04-.04.06-.03.04-.07.1-.02.14.04.04.13.05.18.05.19.01.38,0,.57-.02h0ZM13.48,27.77c.06.02.11.04.13.08.03.03-.05.01-.06,0-.03-.02-.06-.05-.08-.08Z"/>
    <path class="cls-3" d="M13.07,27.44c.21,0,.47.01.65.13.03.02.06.06.06.09,0,.02-.02.04-.02.05-.02.04-.04.08-.06.11-.04.07-.09.13-.14.19-.19.21-.41.39-.64.56-.28.21-.58.4-.88.58-.13.08-.27.15-.41.22-.19.09-.39.18-.58.27-.16.08-.32.16-.48.23-.2.1-.42.18-.62.28-.09.05-.19.08-.28.13-.04.02-.1.05-.08.11.03.08,0,.12-.02.2-.05.12-.37.19-.37.31,0,.12.35.15.44.17.16.03.3.04.47.03.72-.04,1.42-.23,2.09-.48.18-.07.36-.15.53-.24.46-.24.89-.52,1.25-.89.26-.26.47-.55.62-.89.07-.16.12-.34.15-.51.03-.18.02-.36-.01-.54-.01-.06-.03-.13-.06-.18-.05-.12-.12-.23-.21-.32-.13-.13-.3-.23-.47-.27-.37-.09-.74-.03-1.09.11-.13.05-.4.16-.47.28-.04.03-.07.08-.03.13.04.04.12.06.17.07.14.03.29.04.44.06.02,0,.04,0,.06,0Z"/>
    <path class="cls-3" d="M13.62,27.35c.05.02.1.04.15.06.06.03.11.08.13.14.02.04.02.09.02.14,0,.06-.03.12-.06.18-.04.08-.1.16-.16.23-.27.29-.59.52-.92.74-.22.15-.45.29-.68.42-.17.1-.35.19-.53.28-.18.08-.36.16-.53.24-.15.07-.3.14-.44.21-.19.09-.38.16-.57.25-.08.04-.17.07-.25.12-.04.02-.09.05-.07.1.03.07,0,.11-.02.17-.05.11-.33.18-.33.28,0,.11.32.13.4.15.15.02.27.03.42.02.64-.04,1.28-.21,1.88-.42.23-.08.45-.18.67-.29.27-.14.53-.3.77-.48.18-.14.36-.3.51-.48.22-.26.39-.53.52-.84.04-.1.08-.21.11-.32.02-.06.03-.11.04-.17.03-.17.03-.33,0-.5-.04-.17-.12-.34-.25-.46-.12-.12-.28-.21-.44-.24-.2-.04-.4-.04-.59,0-.08.02-.21.06-.27.12-.05.03-.09.08-.03.13.05.05.14.07.2.1.12.04.23.08.35.13Z"/>
    <path class="cls-2" d="M2.67,20.91c1.16-.39,2.38-.68,3.6-.84,1.09-.15,2.2-.2,3.29-.07.09.01.18.02.27.04.76.12,1.45.31,2.18.55.19.06.39.1.58.14.02,0,.29.06.3.06.06-.04.12-.11.17-.15.08-.02.17-.04.25-.06,0-.06,0-.12-.01-.17-.04-.15-.29-.35-.41-.44-1.91-1.53-4.76-1.23-6.81-.7-.98.25-1.91.69-2.82,1.11l-1.14.65c.18-.05.37-.08.55-.12Z"/>
    <path class="cls-6" d="M12.74,20.61s-.08.04-.13.04c-.11,0-.23-.03-.34-.05-.12-.02-.25-.04-.37-.06-.13-.03-.26-.07-.38-.12-.56-.2-1.1-.37-1.69-.48-.47-.09-.89-.21-1.36-.25-1.4-.11-3.51.33-3.15.17,1.42-.62,3.1-.71,4.57-.73.3.01.61.04.9.11.51.12,1,.27,1.47.48.17.08.33.16.49.25.05.03.1.06.14.1.03.03.06.05.09.09.04.05.08.12.1.19,0,.02,0,.05-.01.07-.02.02-.05.03-.08.03-.03,0-.16,0-.17.05-.03.03-.05.07-.08.1Z"/>
    <path class="cls-7" d="M12.64,20.51s-.08.04-.12.04c-.1,0-.21-.03-.31-.04-.11-.02-.23-.03-.34-.06-.12-.03-.23-.07-.35-.1-.57-.2-1.1-.37-1.69-.48-.37-.07-.75-.12-1.12-.16-.48-.05-.97-.04-1.45-.09,0,0-.02,0-.03,0,0,0,0,0,0-.02,0-.02.04-.04.05-.05.09-.06.2-.1.3-.13.31-.11.64-.19.97-.21.44-.03.89-.05,1.33-.03.33.01.67.04.99.12.45.11.89.25,1.32.44.15.07.3.14.44.22.04.03.09.05.13.08.03.02.06.05.08.07.04.05.08.11.09.17,0,.02,0,.05,0,.07-.02.02-.04.03-.07.03-.03,0-.14,0-.15.05-.02.03-.05.06-.07.1Z"/>
    <path class="cls-7" d="M12.85,20.61s-.07.03-.11.03c-.09,0-.19-.03-.28-.05-.1-.02-.2-.04-.3-.07-.1-.03-.21-.07-.31-.11-.67-.28-1.3-.49-2.01-.63-.16-.03-.32-.06-.49-.09-.43-.07-.87-.09-1.3-.16,0,0-.02,0-.02,0,0,0,0,0,0-.01,0-.02.03-.03.05-.04.08-.05.18-.08.28-.11.29-.08.58-.14.88-.14.21,0,.43,0,.64,0,.48.02.98.06,1.44.2.4.12.79.27,1.16.46.13.07.26.14.39.22.04.02.08.05.11.08.03.02.05.04.07.07.03.05.06.1.07.16,0,.02,0,.04-.01.06-.02.02-.04.02-.06.02-.03,0-.13,0-.14.04-.02.03-.04.06-.07.08Z"/>
    <path class="cls-7" d="M12.85,20.62s-.06.03-.1.03c-.08,0-.17-.03-.25-.05-.09-.02-.18-.04-.27-.06-.09-.03-.19-.07-.28-.1-.7-.31-1.36-.53-2.11-.69-.04,0-.08-.02-.12-.02-.39-.08-.78-.11-1.16-.18,0,0-.02,0-.02,0,0,0,0,0,0-.01,0-.01.03-.03.05-.03.08-.04.17-.06.25-.09.26-.07.52-.1.79-.1.08,0,.16,0,.24,0,.54.02,1.1.07,1.62.23.35.11.7.26,1.03.43.12.06.23.13.34.2.03.02.07.05.1.07.02.02.05.04.06.06.03.04.06.09.07.14,0,.02,0,.04,0,.05-.01.02-.04.02-.06.02-.02,0-.11,0-.12.04-.02.02-.04.05-.06.08Z"/>
    <path class="cls-1" d="M11.01,20.2c-.38-.14-.79-.22-1.18-.27-.75-.1-1.47-.08-2.22-.07-.46,0-.92.04-1.37.1-.39.05-.78.11-1.17.19-.49.1-.98.24-1.46.38-.24.07-.47.14-.71.21-.07.02-.14.04-.22.06-.02,0-.04,0-.06,0,0,0,0,0-.01,0,0,0,0,0,0,0,0,0,0,0,0-.01,0,0,.01-.01.02-.02.02-.02.05-.03.08-.05.09-.05.18-.1.28-.14.29-.14.58-.27.87-.39.67-.27,1.58-.67,2.28-.84.63-.15,1.41-.31,2.05-.37,1.38-.13,3.07,0,4.25.82.1.07.19.15.27.24.04.05.09.12.09.18,0,.11-.09.18-.18.21-.06.02-.12.03-.18.04-.03,0-.06,0-.09,0-.03,0-.06-.01-.09-.02-.41-.13-.82-.21-1.25-.26Z"/>
    <path class="cls-1" d="M11.09,20.16c-.4-.15-.84-.24-1.26-.29-.6-.08-1.2-.08-1.8-.09-.6,0-1.2.04-1.8.12-.16.02-.33.05-.49.08-.45.08-.89.18-1.33.29-.22.05-.43.11-.65.17-.06.02-.13.03-.2.04-.02,0-.03,0-.05,0,0,0,0,0-.01,0,0,0,0,0,0,0,0,0,0,0,0,0,0,0,.01,0,.02-.01.02-.01.04-.03.07-.04.08-.04.16-.08.24-.11.25-.11.5-.21.75-.3.53-.2,1.2-.51,1.75-.64,1.24-.29,2.37-.48,3.63-.4.74.05,1.88.24,2.43.84.09.06.18.13.24.22.03.04.08.11.08.16,0,.1-.08.16-.16.19-.05.02-.11.03-.16.03-.03,0-.06,0-.09,0-.03,0-.06,0-.08-.02-.37-.11-.75-.19-1.13-.24Z"/>
    <path class="cls-1" d="M11.59,20.23c-.55-.25-1.16-.38-1.75-.45-.32-.04-.65-.06-.98-.09-.69-.06-1.39-.03-2.07.04-.19.02-.39.05-.58.08-.33.05-.66.12-.98.18-.35.07-1.71.5-.65.06.33-.14.68-.26,1.04-.37.55-.17,1.13-.35,1.71-.44,1.05-.17,1.75-.28,3.22-.1.65.08,1.74.46,2.23.85.08.06.15.13.21.21.03.04.06.1.06.15,0,.09-.08.14-.16.16-.05.02-.1.02-.15.02-.03,0-.05,0-.08,0-.03,0-.05-.01-.08-.02-.33-.12-.66-.22-1-.29Z"/>
    <path class="cls-3" d="M10.82,20.08c.17.09.34.19.53.26.21.08.42.14.63.22.08.03.17.06.26.09.07.02.15.04.22.05.1.02.19.05.29.06.04,0,.09.01.13.02.03,0,.06,0,.07-.04.02-.05.05-.07.09-.11.07-.05.2,0,.25-.07.05-.07-.03-.18-.06-.23-.04-.07-.07-.11-.13-.17-.22-.21-.49-.38-.76-.53-.19-.1-.39-.19-.6-.25-.14-.04-.29-.07-.43-.08-.09,0-.24-.02-.38-.03-.29-.02-2.23-.04-1.86.31.64.2,1.11.19,1.73.51Z"/>
    <path class="cls-3" d="M10.59,19.77c.19.08.36.18.54.28.15.09.31.18.47.25.19.08.38.14.57.22.08.03.16.06.24.09.07.02.14.04.21.05.09.02.17.05.26.06.04,0,.08.01.12.02.03,0,.05,0,.07-.03.02-.04.05-.07.09-.09.06-.05.18,0,.23-.06.05-.06-.02-.16-.05-.21-.03-.06-.06-.1-.11-.16-.19-.19-.44-.35-.67-.49-.17-.1-.35-.18-.53-.25-.12-.04-.25-.08-.39-.09-.16-.02-.31,0-.47,0-.14,0-.29,0-.43.02-.06,0-.13.02-.19.04-.03,0-.09.03-.11.05-.03.02-.04.05-.03.09.01.04.04.07.07.1.04.04.09.08.14.12Z"/>
    <path class="cls-3" d="M10.83,19.76c.17.08.32.17.48.26.14.08.28.17.42.24.17.08.34.14.51.21.07.03.14.06.21.08.06.02.12.03.19.05.08.02.16.04.24.05.04,0,.07.01.11.02.03,0,.05,0,.06-.03.02-.04.04-.06.08-.09.06-.04.16,0,.2-.05.04-.05-.02-.14-.05-.19-.03-.06-.06-.09-.1-.14-.17-.17-.39-.32-.6-.44-.15-.09-.31-.17-.47-.23-.11-.04-.23-.07-.34-.09-.14-.02-.28,0-.42,0-.13,0-.26,0-.39.01-.06,0-.12.01-.17.03-.03,0-.08.02-.1.05-.03.02-.04.04-.03.08,0,.03.03.07.06.09.04.04.08.08.12.11Z"/>
    <path class="cls-4" d="M15.94,20.78s-.03-.01-.05-.02c-.24-.11-.48-.2-.73-.29-.38-.13-.78-.23-1.16-.37-.14-.05-.29-.11-.41-.2-.04-.03-.09-.06-.12-.11-.01-.02-.02-.03-.03-.05,0-.02-.01-.04-.01-.05,0-.02,0-.04.01-.05,0-.02.02-.04.03-.05.03-.04.07-.07.12-.1.13-.08.28-.14.42-.18.43-.12.88-.17,1.32-.15.36.02.71.09,1.05.23.02.01.05.02.07.03.21.11.42.23.58.42.04.05.09.11.11.18.02.04.03.09.03.14,0,.04-.01.07-.03.11-.02.03-.04.06-.07.09-.06.06-.13.12-.19.19-.06.07-.12.15-.18.22-.03.03-.06.06-.09.09-.03.03-.06.05-.09.06-.03.02-.07.03-.11.03-.04,0-.08,0-.12-.01-.13-.03-.25-.1-.37-.16Z"/>
  </g>
  <g>
    <path class="cls-8" d="M20.63,28.59c0,1.42-1.15,2.57-2.57,2.57s-2.57-1.15-2.57-2.57,1.15-2.57,2.57-2.57,2.57,1.15,2.57,2.57Z"/>
    <rect x="18.05" y="26.02" width="27.73" height="5.15"/>
  </g>
  <g>
    <path class="cls-9" d="M17.39,27.5c.21.14.4.31.57.5l-.36.44c-.18-.21-.38-.4-.59-.55l.37-.39ZM17.57,28.67l.47.16c-.14.72-.3,1.32-.47,1.8l-.5-.27c.22-.57.39-1.13.5-1.69ZM17.66,26.52c.19.11.37.23.53.37l-.35.45c-.18-.17-.36-.31-.55-.43l.37-.39ZM18.25,26.59h1.3v.39h-.31c0,.15-.02.28-.04.41h.32v.39h-.18v.44c.08-.02.15-.04.22-.06l.05.32c-.18.09-.39.16-.6.23l-.12-.37s.06-.01.09-.02v-.22c-.17.26-.4.48-.71.64l-.21-.36c.29-.15.51-.35.64-.58,0,0,0-.02.01-.03h-.16l-.02.1h-.39l.15-.83h.39l-.06.34h.2c.02-.12.03-.26.04-.41h-.61v-.39ZM20.82,28.76v1.87h-.48v-.14h-1.46v.14h-.48v-1.87h2.42ZM18.89,29.42h1.46v-.23h-1.46v.23ZM18.89,30.08h1.46v-.25h-1.46v.25ZM19.66,26.59h1.37v.39h-.36c0,.15-.02.3-.03.43h.38v.41h-.46s-.01.05-.02.07h.12v.29c0,.06,0,.1.02.12.02.02.04.03.06.03.02,0,.04,0,.05,0,0,0,.02-.01.02-.03,0-.02.01-.1.02-.23l.32.15c0,.11-.02.22-.05.32-.02.06-.05.1-.1.12-.05.02-.14.02-.26.02-.14,0-.22-.01-.25-.04-.12-.01-.18-.12-.18-.32-.12.15-.27.29-.44.4l-.21-.36c.22-.14.39-.31.49-.52h-.16v.07h-.4l.18-.83h.39l-.08.36h.19c.02-.12.03-.27.04-.43h-.63v-.39Z"/>
    <path class="cls-9" d="M22.4,26.5l.55.18c-.05.16-.13.33-.22.52-.03.05-.05.1-.08.15.18-.03.36-.06.54-.1-.06-.1-.13-.2-.2-.3l.43-.27c.22.3.39.62.53.96l-.45.27c-.03-.08-.06-.16-.09-.24-.45.12-.96.19-1.52.22l-.11-.49c.1,0,.19,0,.28,0,.05-.1.1-.2.14-.31.09-.19.15-.38.2-.58ZM23.78,27.98v2.03c0,.39-.2.59-.61.59-.1,0-.23-.02-.37-.06l-.1-.51c.18.06.33.09.48.09.06,0,.09-.08.09-.23v-.09h-.82v.81h-.52v-2.62h1.85ZM22.44,28.67h.82v-.22h-.82v.22ZM22.44,29.35h.82v-.23h-.82v.23ZM23.99,26.52h.51v.54c.32-.1.61-.22.89-.35l.32.47c-.37.15-.78.27-1.21.38v.17c0,.09.05.14.16.15.07.02.22.03.47.03.1,0,.16-.02.18-.04.02-.02.04-.07.05-.14.01-.05.02-.13.04-.23l.48.27c-.06.3-.13.48-.23.54-.02.03-.09.05-.19.06-.05.01-.16.02-.32.02-.26,0-.47-.02-.61-.04-.35-.03-.53-.2-.53-.52v-1.3ZM24.03,28.51h.52v.6c.37-.12.72-.25,1.05-.4l.32.44c-.42.17-.88.32-1.37.44v.33c0,.1.04.15.12.16.05.02.18.03.37.03.14,0,.22-.01.24-.04.03-.03.05-.08.07-.16.01-.05.03-.14.04-.25l.48.27c-.06.33-.15.52-.25.59-.03.03-.1.06-.22.07-.05.01-.18.02-.37.02-.23,0-.42-.02-.55-.05-.31-.03-.46-.2-.46-.52v-1.51Z"/>
    <path class="cls-9" d="M27.33,27.16c.11.08.22.18.32.29.17-.12.33-.26.47-.41h-1.33v-.47h2v.17c.08.06.16.12.24.18.21-.11.4-.24.57-.41l.37.31c-.15.14-.31.27-.49.38.07.04.15.09.22.12.18-.1.35-.24.5-.41l.41.32c-.12.12-.25.24-.4.33.18.08.36.14.53.2l-.27.48c-.18-.07-.36-.15-.53-.24v.16c0,.11.01.18.04.2.02,0,.04.01.06.01s.04,0,.05,0c.02,0,.03-.01.04-.02.01-.02.03-.07.03-.16l.48.23c-.02.19-.07.31-.17.36-.05.02-.11.04-.17.04-.09,0-.18,0-.26,0-.22,0-.35-.02-.4-.07-.13-.03-.19-.19-.19-.48v-.12h-.33c-.03.22-.08.39-.16.49-.07.1-.18.19-.34.26h1.83v.36c-.14.26-.3.48-.48.65.2.07.43.13.7.16l-.2.52c-.38-.06-.71-.17-1-.33-.28.16-.6.27-.97.35l-.24-.47c.3-.05.56-.12.78-.21-.15-.15-.29-.34-.41-.57h-.21v-.46h.08l-.2-.36v.43h-.96l-.03.23h1.05c-.04.64-.13,1.04-.26,1.19-.12.13-.28.2-.5.2-.14,0-.3-.02-.48-.06l-.13-.53c.21.04.38.05.52.05.11,0,.18-.02.22-.05.07-.05.11-.17.14-.34h-.61v.08h-.52l.15-1.24h.93v-.29h-.45v-.08c-.23.11-.45.18-.67.23l-.16-.41c.21-.06.42-.14.61-.23-.08-.09-.17-.18-.27-.27l.46-.32ZM28.31,28.48c.1-.04.17-.1.22-.17.07-.09.1-.29.1-.6h.76c-.26-.16-.51-.33-.75-.51-.21.23-.43.43-.64.59h.31v.7ZM29.18,29.38c.1.12.21.23.33.32.13-.1.24-.2.33-.32h-.66Z"/>
    <path class="cls-9" d="M34.54,28.79h.89v.48h-.43l.21.34c-.16.1-.32.18-.48.24.21.1.47.19.76.25l-.27.52c-.44-.12-.81-.32-1.12-.58-.26-.21-.47-.47-.63-.77h-.31v.69c.19-.03.37-.06.53-.09l.14.44c-.42.1-.9.19-1.44.27l-.22-.5c.16-.02.32-.04.47-.06v-.76h-.48c-.02.12-.03.25-.06.37-.06.31-.16.62-.3.93l-.44-.27c.15-.39.24-.73.3-1.01.05-.35.08-.71.08-1.06v-1.69h3.51v1.16h-.69v.29h.69v.48h-.69v.32ZM32.2,27.71v.76c0,.11,0,.22,0,.33h.68v-.32h-.59v-.48h.59v-.29h-.67ZM34.73,27.04h-2.53v.2h2.53v-.2ZM34.03,28v-.29h-.65v.29h.65ZM33.38,28.79h.65v-.32h-.65v.32ZM34.24,29.55c.17-.07.33-.16.48-.27h-.73c.07.1.15.19.25.27Z"/>
    <path class="cls-9" d="M39.97,27.23v2.36h-.53v-.3h-1v1.33h-.53v-1.33h-1.01v.3h-.53v-2.36h1.55v-.72h.53v.72h1.53ZM36.89,28.79h1.01v-1.06h-1.01v1.06ZM38.44,27.73v1.06h1v-1.06h-1Z"/>
    <path class="cls-9" d="M41.29,27.87l.52.18c-.13.77-.27,1.42-.43,1.94l-.52-.26c.18-.62.32-1.24.42-1.86ZM42.05,27.61h.54v2.17c0,.12.08.18.24.19.07,0,.18,0,.3,0,.3,0,.47-.01.53-.03.06-.04.09-.11.11-.2.02-.05.04-.22.04-.52l.53.31c-.03.43-.1.7-.21.81-.07.06-.17.09-.3.11-.08.03-.32.04-.71.04-.18,0-.34,0-.48-.02-.4-.01-.6-.18-.6-.52v-2.34ZM42.66,26.57c.37.21.71.46,1.02.75l-.41.5c-.31-.34-.65-.62-1-.85l.39-.4ZM44.54,27.82c.21.51.39,1.08.54,1.69l-.55.23c-.12-.63-.28-1.19-.46-1.69l.48-.23Z"/>
  </g>
  <g>
    <path d="M11.97,22.43h1.16v.14s0,0,.01-.01c.3-.29.47-.64.5-1.04h.53c-.01.15-.04.3-.08.45.16.19.35.37.56.55v-.09h1.16v.46h-.63c.24.14.5.26.79.36l-.25.47c-.15-.05-.29-.11-.43-.18v1.45c0,.42-.2.63-.6.63-.14,0-.3-.01-.48-.04l-.11-.53c.21.05.41.07.58.07.06,0,.09-.07.09-.21h-1.82v.71h-.52v-2.05c-.13.05-.27.1-.41.14l-.24-.47c.33-.09.63-.21.88-.36h-.7v-.46ZM12.03,21.79h1.21v.46h-1.21v-.46ZM12.96,23.8h1.82v-.2h-1.82v.2ZM12.96,24.44h1.82v-.18h-1.82v.18ZM14.59,23.13c-.24-.17-.48-.4-.72-.67-.08.14-.18.27-.29.39-.1.1-.2.19-.32.28h1.32ZM14.49,21.79h1.25v.46h-1.25v-.46Z"/>
    <path d="M18.17,21.56v.36l.2-.2c.14.07.28.15.39.25v-.25h.45c.04-.08.08-.16.12-.24l.41.08c-.02.06-.04.11-.06.16h.98v.41h-1.2s-.03.05-.04.08c-.01.02-.02.03-.04.05h1.16v.36h-.52v.12h.64v.35h-1.67v-.35h.57v-.12h-.36v-.14c-.11.13-.23.24-.36.34l-.32-.31c.15-.11.28-.24.4-.37h-.16v-.09l-.26.33c-.1-.1-.21-.19-.32-.27v.6h.16v.2l.2-.2c.16.09.3.2.43.32l-.3.38c-.1-.12-.21-.22-.32-.31v.29h-.2v1.73c.09-.03.17-.05.25-.08v-1.05h-.17v-.48h.64v1.46c.13.09.28.14.44.15.13.02.44.03.94.03.23,0,.41-.02.57-.07-.08.15-.14.32-.19.49h-.78c-.32,0-.57-.02-.77-.07-.14-.04-.27-.11-.41-.21-.1.11-.2.21-.31.32-.07-.13-.15-.25-.23-.37-.05.25-.22.37-.5.37-.04,0-.08,0-.14-.02l-.11-.5c.09.03.17.05.25.05.05,0,.08-.08.08-.23v-.04h-.5v.75h-.44v-2.24h-.18v-.68h.16v-1.14h1.44ZM17.01,23.26h.88v-.12h-.88v.12ZM17.17,22.69h.09v-.59h.46v-.1h-.56v.69ZM17.19,23.87h.5v-.14h-.5v.14ZM17.19,24.44h.5v-.14h-.5v.14ZM17.6,22.69h.13v-.2h-.13v.2ZM20.62,23.2v1.4c0,.31-.17.47-.51.47-.08,0-.17-.01-.27-.04l-.09-.41c.13.05.25.07.36.07.03,0,.05-.05.05-.14h-.73v.42h-.46v-1.77h1.65ZM19.43,23.71h.73v-.12h-.73v.12ZM19.43,24.19h.73v-.12h-.73v.12Z"/>
    <path d="M21.4,22.25h.48v-.73h.49v.73h.39v.52h-.39v.57c.1-.04.19-.07.29-.12l.07.43c-.12.07-.23.13-.36.18v1.09c0,.27-.03.45-.1.55-.08.11-.23.16-.45.16-.12,0-.23-.01-.33-.04l-.09-.55c.12.04.24.05.36.05.05,0,.08-.02.1-.06.02-.05.03-.13.03-.24v-.74c-.11.04-.22.08-.34.12l-.18-.52c.18-.04.35-.09.52-.14v-.74h-.48v-.52ZM22.83,22.75h2.56v2.15h-.6c.09.04.19.08.29.11.15.05.29.09.43.12l-.29.5c-.16-.05-.32-.12-.47-.19-.18-.09-.35-.19-.51-.29l.31-.24h-.84l.31.24c-.3.2-.66.36-1.09.48l-.26-.48c.29-.06.55-.14.8-.24h-.64v-2.15ZM22.95,21.57h2.32v1.07h-2.32v-1.07ZM23.32,23.34h1.57v-.13h-1.57v.13ZM23.32,23.89h1.57v-.14h-1.57v.14ZM23.32,24.44h1.57v-.14h-1.57v.14ZM23.45,22.2h1.32v-.18h-1.32v.18Z"/>
    <path d="M26.91,21.52l.5.15c-.07.24-.16.48-.25.73v3.22h-.51v-2.19c-.08.12-.16.24-.24.34l-.27-.52c.36-.54.61-1.12.76-1.73ZM27.68,21.48l.45.09s-.02.07-.02.11h2.04v.41h-2.17s-.03.06-.04.09c0,.01-.01.02-.02.04h2.1v1.3h-2.36v-.86s-.05.06-.07.09l-.36-.34c.09-.12.18-.25.26-.4.08-.15.14-.33.2-.52ZM27.29,23.6h2.99v.39h-1.84s-.04.08-.07.11h1.82c0,.76-.04,1.21-.13,1.33-.07.13-.24.2-.51.2-.1,0-.2-.01-.31-.04l-.08-.48c.16.03.29.05.39.05.06,0,.1-.02.11-.06.03-.07.05-.27.05-.61h-.26c-.08.23-.19.42-.32.59-.19.23-.41.41-.66.55l-.26-.41c.2-.1.38-.23.52-.39.09-.1.17-.22.23-.34h-.21c-.09.18-.21.34-.35.47-.21.2-.46.35-.74.47l-.27-.41c.24-.08.44-.18.61-.31.09-.07.16-.15.23-.22h-.2c-.14.12-.29.23-.46.32l-.33-.41c.21-.09.39-.19.54-.31.04-.04.08-.07.12-.1h-.59v-.39ZM28.12,22.69h1.41v-.1h-1.41v.1ZM28.12,23.14h1.41v-.09h-1.41v.09Z"/>
  </g>
  <path class="cls-10" d="M43.36,22.16c-.75.43-1.01,1.38-.58,2.13.43.75,1.38,1,2.13.58.75-.43,1-1.38.58-2.13-.43-.75-1.38-1.01-2.12-.58ZM43.77,22.16v.03c-.08.02-.17.06-.26.11v-.03c.08-.05.17-.08.26-.11ZM44.14,22.11v.03c-.12,0-.23.01-.34.04v-.03c.11-.03.22-.04.34-.04ZM45.27,22.85s0,0,0,.01c.06.1.1.2.13.31l-.77.13.64-.45ZM44.3,23.5s0-.05-.02-.08c-.01-.02-.02-.03-.03-.04l.3-.05-.25.17ZM45.4,23.19c.03.11.04.22.04.33l-1.16.1v-.02s.01-.04.01-.07l.29-.2.82-.13ZM44.18,23.68h0s.02,0,.03-.01c0,0,0,0,0,0l.07.02.02.09-.11-.09ZM44.29,23.81v.05s-.07-.11-.07-.11l.07.06ZM44.24,23.64h.02s0,.03,0,.03h-.04s.01-.02.02-.03ZM45.44,23.54c0,.15-.03.29-.08.43l-1.07-.29v-.04s1.15-.1,1.15-.1ZM45.36,23.98c-.07.17-.16.32-.29.45l-.75-.63-.02-.11,1.06.29ZM45.05,24.45c-.06.06-.14.12-.22.17l-.5-.72v-.07s.72.62.72.62ZM44.81,24.63s-.02.01-.03.02c-.1.06-.21.1-.31.13l-.14-.83.48.68ZM44.45,24.78c-.1.03-.2.04-.31.04l-.1-1.14s.07.02.1,0h0s.15.22.15.22l.14.87ZM44.13,24.82c-.11,0-.22-.02-.32-.04l.2-1.09h.03s.1,1.13.1,1.13ZM43.79,24.77c-.21-.06-.41-.17-.57-.33l.55-.65.22-.1-.19,1.08ZM44.01,23.66h0s0,0,0,0h0ZM43.2,24.42c-.08-.08-.14-.17-.2-.26,0,0,0,0,0-.01l.72-.33-.52.61ZM43.79,23.76l.11-.13h.08s0,.01,0,.01v.03s-.2.09-.2.09ZM43.92,23.61l.03-.03s0,.02.01.03c0,0,0,0,0,0h-.05ZM44.06,23.42c.05-.03.12-.01.15.04.03.05.01.12-.04.15-.05.03-.12.01-.15-.04-.03-.05-.01-.12.04-.15ZM44.03,23.36s-.01,0-.02.02l-.47-1.02c.09-.05.18-.08.27-.1l.26.74-.04.37s0,0,0,0ZM43.82,22.24c.1-.03.21-.04.31-.04l-.07.73-.25-.69ZM44.16,22.2c.11,0,.21.02.32.04l-.33.9-.06-.16.07-.78ZM44.13,23.17l-.06.16s-.01,0-.02,0l.03-.32.05.15ZM44.14,23.2l.04.1-.03.03s-.04,0-.05,0l.05-.13ZM44.19,23.33v.02s0,0-.01,0h.01ZM43.94,23.53l-.09-.04.09-.03h0s0,.05,0,.07ZM43.9,23.6l-.28-.03.21-.07.11.05-.04.05ZM43.57,23.57l-.73-.07c0-.15.03-.3.08-.44l.89.42-.23.08ZM42.91,23.05c.06-.17.16-.33.3-.46l.71.86-.1.03-.91-.43ZM43.23,22.58c.08-.08.16-.14.26-.2,0,0,.02,0,.03-.01l.47,1.02s-.03.03-.04.05h-.01s-.72-.86-.72-.86ZM44.51,22.16v.03c-.12-.03-.23-.04-.34-.05v-.03c.12,0,.23.02.34.05ZM45.1,22.54c-.17-.17-.37-.28-.59-.35v-.03c.24.07.45.19.62.36l-.03.02ZM45.06,22.58l-.86.71-.04-.12.34-.92c.21.06.4.17.56.33ZM45.3,22.8c-.05-.09-.12-.17-.19-.24l.03-.02c.07.07.13.15.19.24l-.03.02ZM45.26,22.83l-.67.47-.36.06-.02-.05.87-.72c.07.07.13.15.18.24ZM45.49,23.15h-.03c-.03-.11-.07-.22-.13-.32,0,0,0-.01-.01-.02l.03-.02s0,.01.01.02c.06.11.11.22.14.34ZM45.54,23.51h-.03c0-.11-.01-.22-.04-.33h.03c.03.11.04.22.04.33ZM45.46,23.99h-.03c.05-.15.08-.3.08-.46h.03c0,.15-.03.31-.08.46ZM45.14,24.49l-.03-.02c.14-.14.24-.3.31-.47h.03c-.07.19-.17.35-.31.5ZM44.88,24.69l-.02-.03c.09-.05.16-.11.23-.18l.03.02c-.07.07-.15.13-.24.19ZM44.49,24.87v-.03c.11-.03.22-.07.33-.14.01,0,.02-.01.03-.02l.02.03s-.02.01-.03.02c-.11.06-.23.11-.35.14ZM44.15,24.91v-.03c.1,0,.21-.01.31-.04v.03c-.1.02-.2.04-.31.04ZM43.79,24.87v-.03c.11.03.23.04.34.04v.03c-.11,0-.23-.02-.34-.04ZM43.18,24.48c.17.17.38.28.6.34v.03c-.23-.06-.45-.18-.62-.35l.02-.03ZM42.91,24.19h.03s0,0,0,0c.06.1.13.2.21.28l-.02.03c-.08-.08-.16-.18-.22-.29,0,0,0-.01-.01-.02ZM42.99,24.13c-.05-.09-.09-.19-.11-.29l.7-.25.31.03-.13.16-.76.35ZM42.78,23.87h.03c.03.09.06.19.12.28h-.03c-.05-.08-.09-.18-.12-.28ZM42.87,23.82c-.02-.1-.04-.2-.04-.29l.69.06-.65.23ZM42.74,23.52h.03c0,.11.01.22.04.32h-.03c-.03-.1-.04-.21-.04-.32ZM43.15,22.52l.02.03c-.14.14-.24.3-.31.48h-.03s0,0,0,0h.03c-.05.16-.08.31-.08.47h-.03s0,0,0,0c0-.36.15-.72.41-.98ZM43.17,22.5c.08-.08.17-.15.28-.21.01,0,.02-.01.04-.02v.03s0,.01-.02.02c-.1.06-.19.13-.27.21l-.02-.03Z"/>
  <path class="cls-10" d="M32.69,25.07c-.67,0-1.21-.54-1.21-1.21h0v-2.11c0-.6-.49-1.09-1.09-1.09h-11.82v-.11h11.82c.67,0,1.21.54,1.21,1.21h0v2.11c0,.6.49,1.09,1.09,1.09h11.49v.12h-11.49Z"/>
</svg>