<svg width="90" height="60" viewBox="0 0 90 60" fill="none" xmlns="http://www.w3.org/2000/svg">
<path d="M54.2305 38.8103V22.1404C54.2305 18.8126 53.1603 16.3379 51.4131 14.6873C49.6521 13.0236 46.9828 11.99 43.4102 11.99H16.8203C13.2421 11.99 10.5728 13.0242 8.81348 14.6873C7.06798 16.3373 6 18.8116 6 22.1404V39.0603C6.00007 42.3888 7.06811 44.8624 8.81348 46.5125C10.5728 48.1755 13.2421 49.2097 16.8203 49.2097H43.4102C46.9598 49.2097 49.6255 48.13 51.3945 46.408C53.1583 44.691 54.2304 42.1425 54.2305 38.8103ZM58.2305 38.8103C58.2304 43.0277 56.8515 46.6788 54.1855 49.2742C51.5246 51.8645 47.7803 53.2097 43.4102 53.2097H16.8203C12.4786 53.2097 8.73704 51.944 6.06641 49.4197C3.38213 46.8823 2.00007 43.2813 2 39.0603V22.1404C2 17.9193 3.38206 14.3174 6.06641 11.78C8.73703 9.25576 12.4787 7.98999 16.8203 7.98999H43.4102C47.7474 7.99002 51.4888 9.25628 54.1602 11.78C56.8452 14.3169 58.2305 17.9183 58.2305 22.1404V38.8103Z" fill="#6E777C"/>
<path d="M27.6504 19.6201L27.7529 19.625C28.257 19.6764 28.6504 20.1025 28.6504 20.6201V31.4902C28.6503 32.0424 28.2026 32.4902 27.6504 32.4902H8.74023C8.18799 32.4902 7.7403 32.0425 7.74023 31.4902V20.6201L7.74512 20.5176C7.79645 20.0134 8.22256 19.6201 8.74023 19.6201H27.6504ZM9.74023 30.4902H26.6504V21.6201H9.74023V30.4902Z" fill="#6E777C"/>
<path d="M51.1904 19.6201L51.293 19.625C51.797 19.6764 52.1904 20.1025 52.1904 20.6201V31.4902C52.1904 32.0424 51.7426 32.4902 51.1904 32.4902H32.2803C31.728 32.4902 31.2803 32.0425 31.2803 31.4902V20.6201L31.2852 20.5176C31.3365 20.0134 31.7626 19.6201 32.2803 19.6201H51.1904ZM33.2803 30.4902H50.1904V21.6201H33.2803V30.4902Z" fill="#6E777C"/>
<path d="M18.9102 41.47C18.9101 39.7223 17.4879 38.3 15.7402 38.3C13.9926 38.3001 12.5704 39.7223 12.5703 41.47C12.5703 43.2177 13.9926 44.6398 15.7402 44.6399C17.488 44.6399 18.9102 43.2177 18.9102 41.47ZM20.9102 41.47C20.9102 44.3223 18.5925 46.6399 15.7402 46.6399C12.888 46.6398 10.5703 44.3222 10.5703 41.47C10.5704 38.6177 12.888 36.3001 15.7402 36.3C18.5925 36.3 20.9101 38.6177 20.9102 41.47Z" fill="#6E777C"/>
<path d="M48.1899 41.47C48.1899 39.7223 46.7677 38.3 45.02 38.3C43.2724 38.3001 41.8501 39.7223 41.8501 41.47C41.8501 43.2177 43.2723 44.6398 45.02 44.6399C46.7677 44.6399 48.1899 43.2177 48.1899 41.47ZM50.1899 41.47C50.1899 44.3223 47.8723 46.6399 45.02 46.6399C42.1678 46.6398 39.8501 44.3222 39.8501 41.47C39.8501 38.6177 42.1678 36.3001 45.02 36.3C47.8723 36.3 50.1899 38.6177 50.1899 41.47Z" fill="#6E777C"/>
<path d="M11.5036 49.6063C12.5639 48.9124 13.9986 49.1209 14.8132 50.1268C15.6819 51.1997 15.5166 52.7735 14.4441 53.6425L9.13352 57.9432L8.92649 58.0936C7.86627 58.7873 6.43247 58.5789 5.6179 57.5731C4.74901 56.5001 4.91411 54.9264 5.98704 54.0575L11.2966 49.7577L11.5036 49.6063Z" fill="#6E777C"/>
<path d="M54.7741 54.0573C55.8467 54.9262 56.0119 56.5001 55.1432 57.5729C54.2743 58.6459 52.6996 58.812 51.6266 57.943L54.7741 54.0573ZM45.9479 50.1266C46.7625 49.1209 48.1963 48.9125 49.2565 49.6061L49.4635 49.7575L54.7741 54.0573L51.6266 57.943L46.3171 53.6423L46.1266 53.4714C45.2276 52.5785 45.1334 51.1325 45.9479 50.1266Z" fill="#6E777C"/>
<path d="M46.7402 6C46.7402 8.76 44.5002 11 41.7402 11H17.7402C14.9802 11 12.7402 8.76 12.7402 6C12.7402 3.24 14.9802 1 17.7402 1H41.7402C44.5002 1 46.7402 3.24 46.7402 6Z" fill="#6E777C"/>
</svg>
