<?xml version="1.0" encoding="utf-8"?>
<!-- Generator: Adobe Illustrator 28.1.0, SVG Export Plug-In . SVG Version: 6.00 Build 0)  -->
<svg version="1.1" id="圖層_2_00000096047020759149315790000010682498898407128230_"
	 xmlns="http://www.w3.org/2000/svg" xmlns:xlink="http://www.w3.org/1999/xlink" x="0px" y="0px" width="1903px" height="406px"
	 viewBox="0 0 1903 406" style="enable-background:new 0 0 1903 406;" xml:space="preserve">
<style type="text/css">
	.st0{opacity:0.4;fill:#514FC3;enable-background:new    ;}
	.st1{opacity:0.4;fill:#FFA834;enable-background:new    ;}
	.st2{opacity:0.4;fill:#C8CFE6;enable-background:new    ;}
	.st3{opacity:0.4;fill:#0093E5;enable-background:new    ;}
	.st4{opacity:0.4;fill:#E22D4E;enable-background:new    ;}
</style>
<path class="st0" d="M738.9,13.7l0.5,1c0.1,0.3,0.4,0.5,0.8,0.5l1.1,0.2c0.8,0.1,1.1,1.1,0.6,1.7l-0.8,0.8c-0.2,0.2-0.3,0.6-0.3,0.9
	l0.2,1.1c0.1,0.8-0.7,1.4-1.5,1.1l-1-0.5c-0.3-0.2-0.6-0.2-0.9,0l-1,0.5c-0.7,0.4-1.6-0.2-1.5-1.1l0.2-1.1c0.1-0.3-0.1-0.7-0.3-0.9
	l-0.8-0.8c-0.6-0.6-0.3-1.6,0.6-1.7l1.1-0.2c0.3,0,0.6-0.3,0.8-0.5l0.5-1C737.5,12.9,738.5,12.9,738.9,13.7z"/>
<path class="st1" d="M48.4,56.1l0.9,1.7c0.3,0.5,0.7,0.9,1.3,1l1.9,0.3c1.4,0.2,2,2,1,3l-1.4,1.4c-0.4,0.4-0.6,1-0.5,1.5l0.3,1.9
	c0.2,1.4-1.2,2.5-2.5,1.8l-1.7-0.9c-0.5-0.3-1.1-0.3-1.6,0l-1.7,0.9c-1.3,0.7-2.8-0.4-2.5-1.8l0.3-1.9c0.1-0.6-0.1-1.1-0.5-1.5
	L40.2,62c-1-1-0.5-2.8,1-3l1.9-0.3c0.6-0.1,1.1-0.4,1.3-1l0.9-1.7C45.9,54.8,47.8,54.8,48.4,56.1z"/>
<path class="st1" d="M207.4,97.2l0.6,1.2c0.2,0.3,0.5,0.6,0.9,0.6l1.3,0.2c1,0.1,1.3,1.3,0.6,2l-0.9,0.9c-0.3,0.3-0.4,0.7-0.3,1
	l0.2,1.3c0.2,1-0.8,1.7-1.7,1.2l-1.2-0.6c-0.3-0.2-0.7-0.2-1.1,0l-1.2,0.6c-0.9,0.4-1.9-0.3-1.7-1.2l0.2-1.3c0.1-0.4-0.1-0.8-0.3-1
	l-0.9-0.9c-0.7-0.7-0.3-1.8,0.6-2l1.3-0.2c0.4-0.1,0.7-0.3,0.9-0.6l0.6-1.2C205.7,96.3,207,96.3,207.4,97.2z"/>
<path class="st0" d="M531,289.5l0.5,1c0.1,0.3,0.4,0.5,0.8,0.5l1.1,0.2c0.8,0.1,1.1,1.1,0.6,1.7l-0.8,0.8c-0.2,0.2-0.3,0.6-0.3,0.9
	l0.2,1.1c0.1,0.8-0.7,1.4-1.5,1.1l-1-0.5c-0.3-0.2-0.6-0.2-0.9,0l-1,0.5c-0.7,0.4-1.6-0.2-1.5-1.1l0.2-1.1c0.1-0.3-0.1-0.7-0.3-0.9
	l-0.8-0.8c-0.6-0.6-0.3-1.6,0.6-1.7l1.1-0.2c0.3,0,0.6-0.3,0.8-0.5l0.5-1C529.6,288.8,530.7,288.8,531,289.5z"/>
<path class="st2" d="M710.4,335.5l0.9,1.7c0.3,0.5,0.7,0.9,1.3,0.9l1.9,0.3c1.4,0.2,2,1.9,1,2.9l-1.4,1.3c-0.4,0.4-0.6,1-0.5,1.5
	l0.3,1.9c0.2,1.4-1.2,2.5-2.5,1.8l-1.7-0.9c-0.5-0.3-1.1-0.3-1.6,0l-1.7,0.9c-1.3,0.7-2.7-0.4-2.5-1.8l0.3-1.9
	c0.1-0.6-0.1-1.1-0.5-1.5l-1.4-1.3c-1-1-0.5-2.7,1-2.9l1.9-0.3c0.6-0.1,1-0.4,1.3-0.9l0.9-1.7C708,334.2,709.8,334.2,710.4,335.5z"
	/>
<path class="st2" d="M835.2,351.6l0.4,0.7c0.1,0.2,0.3,0.4,0.6,0.4l0.8,0.1c0.6,0.1,0.9,0.8,0.4,1.3l-0.6,0.6
	c-0.2,0.2-0.3,0.4-0.2,0.7l0.1,0.8c0.1,0.6-0.5,1.1-1.1,0.8l-0.7-0.4c-0.2-0.1-0.5-0.1-0.7,0l-0.7,0.4c-0.5,0.3-1.2-0.2-1.1-0.8
	l0.1-0.8c0-0.2,0-0.5-0.2-0.7l-0.6-0.6c-0.4-0.4-0.2-1.2,0.4-1.3l0.8-0.1c0.2,0,0.5-0.2,0.6-0.4l0.4-0.7
	C834.1,351,834.9,351,835.2,351.6z"/>
<path class="st2" d="M23,383.7l0.5,1c0.1,0.3,0.4,0.5,0.7,0.5l1.1,0.2c0.8,0.1,1.1,1.1,0.6,1.7l-0.8,0.8c-0.2,0.2-0.3,0.6-0.3,0.9
	l0.2,1.1c0.1,0.8-0.7,1.4-1.4,1l-1-0.5c-0.3-0.2-0.6-0.2-0.9,0l-1,0.5c-0.7,0.4-1.6-0.2-1.4-1l0.2-1.1c0.1-0.3-0.1-0.7-0.3-0.9
	l-0.8-0.8c-0.6-0.6-0.3-1.6,0.6-1.7l1.1-0.2c0.3,0,0.6-0.2,0.7-0.5l0.5-1C21.5,382.9,22.6,382.9,23,383.7z"/>
<path class="st3" d="M1407.4,153.9l1.6,3.3c0.5,1,1.4,1.6,2.5,1.8l3.6,0.5c2.7,0.4,3.8,3.7,1.8,5.6l-2.6,2.6
	c-0.8,0.8-1.1,1.8-0.9,2.9l0.6,3.6c0.5,2.7-2.3,4.7-4.7,3.4l-3.2-1.7c-1-0.5-2.1-0.5-3,0l-3.2,1.7c-2.4,1.3-5.2-0.8-4.7-3.4l0.6-3.6
	c0.2-1.1-0.2-2.1-0.9-2.9l-2.6-2.6c-1.9-1.9-0.9-5.2,1.8-5.6l3.6-0.5c1.1-0.2,2-0.8,2.5-1.8l1.6-3.3
	C1402.8,151.4,1406.2,151.4,1407.4,153.9z"/>
<path class="st3" d="M1159.5,167.7l0.8,1.6c0.2,0.5,0.7,0.8,1.2,0.9l1.8,0.3c1.3,0.2,1.9,1.8,0.9,2.8l-1.3,1.3
	c-0.4,0.4-0.6,0.9-0.5,1.4l0.3,1.8c0.2,1.3-1.2,2.4-2.4,1.7l-1.6-0.9c-0.5-0.3-1-0.3-1.5,0l-1.6,0.9c-1.2,0.6-2.6-0.4-2.4-1.7
	l0.3-1.8c0.1-0.5-0.1-1.1-0.5-1.4l-1.3-1.3c-1-0.9-0.4-2.6,0.9-2.8l1.8-0.3c0.5-0.1,1-0.4,1.2-0.9l0.8-1.6
	C1157.2,166.5,1158.9,166.5,1159.5,167.7z"/>
<path class="st3" d="M1687.4,13.8l1.6,3.3c0.5,1,1.4,1.6,2.5,1.8l3.6,0.5c2.7,0.4,3.8,3.7,1.8,5.6l-2.6,2.6
	c-0.8,0.8-1.1,1.8-0.9,2.9l0.6,3.6c0.5,2.7-2.3,4.7-4.7,3.4l-3.2-1.7c-1-0.5-2.1-0.5-3,0l-3.2,1.7c-2.4,1.3-5.2-0.8-4.7-3.4l0.6-3.6
	c0.2-1.1-0.2-2.1-0.9-2.9L1672,25c-1.9-1.9-0.9-5.2,1.8-5.6l3.6-0.5c1.1-0.2,2-0.8,2.5-1.8l1.6-3.3
	C1682.7,11.4,1686.2,11.4,1687.4,13.8z"/>
<path class="st2" d="M1593.8,204.4l0.7,1.5c0.2,0.4,0.6,0.7,1.1,0.8l1.6,0.2c1.2,0.2,1.7,1.6,0.8,2.5l-1.2,1.1
	c-0.3,0.3-0.5,0.8-0.4,1.3l0.3,1.6c0.2,1.2-1,2.1-2.1,1.5l-1.4-0.8c-0.4-0.2-0.9-0.2-1.4,0l-1.4,0.8c-1.1,0.6-2.3-0.3-2.1-1.5
	l0.3-1.6c0.1-0.5-0.1-1-0.4-1.3l-1.2-1.1c-0.9-0.8-0.4-2.3,0.8-2.5l1.6-0.2c0.5-0.1,0.9-0.4,1.1-0.8l0.7-1.5
	C1591.7,203.3,1593.3,203.3,1593.8,204.4z"/>
<path class="st2" d="M1819.4,324.5l0.7,1.5c0.2,0.4,0.6,0.7,1.1,0.8l1.6,0.2c1.2,0.2,1.7,1.6,0.8,2.5l-1.2,1.1
	c-0.3,0.3-0.5,0.8-0.4,1.3l0.3,1.6c0.2,1.2-1,2.1-2.1,1.5l-1.4-0.8c-0.4-0.2-0.9-0.2-1.4,0l-1.4,0.8c-1.1,0.6-2.3-0.3-2.1-1.5
	l0.3-1.6c0.1-0.5-0.1-1-0.4-1.3l-1.2-1.1c-0.9-0.8-0.4-2.3,0.8-2.5l1.6-0.2c0.5-0.1,0.9-0.4,1.1-0.8l0.7-1.5
	C1817.3,323.4,1818.8,323.4,1819.4,324.5z"/>
<path class="st2" d="M1486.7,12.5l0.4,0.7c0.1,0.2,0.3,0.4,0.5,0.4l0.8,0.1c0.6,0.1,0.8,0.8,0.4,1.2l-0.6,0.6
	c-0.2,0.2-0.2,0.4-0.2,0.6l0.1,0.8c0.1,0.6-0.5,1-1.1,0.8l-0.7-0.4c-0.2-0.1-0.5-0.1-0.7,0l-0.7,0.4c-0.5,0.3-1.2-0.2-1.1-0.8
	l0.1-0.8c0-0.2,0-0.5-0.2-0.6l-0.6-0.6c-0.4-0.4-0.2-1.2,0.4-1.2l0.8-0.1c0.2,0,0.4-0.2,0.5-0.4l0.4-0.7
	C1485.7,11.9,1486.4,11.9,1486.7,12.5z"/>
<path class="st1" d="M1327.1,52.1l0.5,1c0.1,0.3,0.4,0.5,0.7,0.5l1.1,0.2c0.8,0.1,1.1,1.1,0.5,1.6l-0.8,0.8
	c-0.2,0.2-0.3,0.5-0.3,0.9l0.2,1.1c0.1,0.8-0.7,1.4-1.4,1l-1-0.5c-0.3-0.1-0.6-0.1-0.9,0l-1,0.5c-0.7,0.4-1.5-0.2-1.4-1l0.2-1.1
	c0.1-0.3-0.1-0.6-0.3-0.9l-0.8-0.8c-0.6-0.6-0.3-1.5,0.5-1.6l1.1-0.2c0.3,0,0.6-0.2,0.7-0.5l0.5-1
	C1325.7,51.4,1326.8,51.4,1327.1,52.1z"/>
<path class="st4" d="M1182.7,1.5l0.5,1c0.1,0.3,0.4,0.5,0.7,0.5l1.1,0.2c0.8,0.1,1.1,1.1,0.5,1.6l-0.8,0.8c-0.2,0.2-0.3,0.5-0.3,0.9
	l0.2,1.1c0.1,0.8-0.7,1.4-1.4,1l-1-0.5c-0.3-0.1-0.6-0.1-0.9,0l-1,0.5c-0.7,0.4-1.5-0.2-1.4-1l0.2-1.1c0.1-0.3-0.1-0.6-0.3-0.9
	l-0.8-0.8c-0.6-0.6-0.3-1.5,0.5-1.6l1.1-0.2c0.3,0,0.6-0.2,0.7-0.5l0.5-1C1181.3,0.8,1182.4,0.8,1182.7,1.5z"/>
<path class="st4" d="M1621.4,367.8l0.9,1.8c0.3,0.5,0.8,0.9,1.3,1l2,0.3c1.5,0.2,2,2,1,3l-1.4,1.4c-0.4,0.4-0.6,1-0.5,1.6l0.3,2
	c0.2,1.5-1.3,2.6-2.6,1.9l-1.8-0.9c-0.5-0.3-1.1-0.3-1.7,0l-1.8,0.9c-1.3,0.7-2.8-0.4-2.6-1.9l0.3-2c0.1-0.6-0.1-1.2-0.5-1.6
	l-1.4-1.4c-1.1-1-0.5-2.8,1-3l2-0.3c0.6-0.1,1.1-0.4,1.3-1l0.9-1.8C1618.8,366.5,1620.7,366.5,1621.4,367.8z"/>
<path class="st1" d="M986.3,221.9c-13,0-23.6,10.6-23.6,23.6c0,13,10.6,23.6,23.6,23.6s23.6-10.6,23.6-23.6
	C1009.8,232.4,999.3,221.9,986.3,221.9z M1002.7,241.9l-8,5.8c-0.5,0.3-0.7,1-0.5,1.5l3.1,9.5c0.4,1.3-1,2.3-2.1,1.5l-8-5.8
	c-0.5-0.3-1.1-0.3-1.6,0l-8,5.8c-1.1,0.8-2.5-0.3-2.1-1.5l3.1-9.5c0.2-0.6,0-1.2-0.5-1.5l-8-5.8c-1.1-0.8-0.5-2.5,0.8-2.5h9.9
	c0.6,0,1.1-0.4,1.3-0.9l3.1-9.5c0.4-1.3,2.2-1.3,2.6,0l3.1,9.5c0.2,0.6,0.7,0.9,1.3,0.9h9.9C1003.2,239.5,1003.8,241.2,1002.7,241.9
	z"/>
<path class="st1" d="M1766.2,185.8c-13,0-23.6,10.6-23.6,23.6s10.6,23.6,23.6,23.6s23.6-10.6,23.6-23.6
	C1789.8,196.3,1779.2,185.8,1766.2,185.8z M1782.6,205.8l-8,5.8c-0.5,0.3-0.7,1-0.5,1.5l3.1,9.5c0.4,1.3-1,2.3-2.1,1.5l-8-5.8
	c-0.5-0.3-1.1-0.3-1.6,0l-8,5.8c-1.1,0.8-2.5-0.3-2.1-1.5l3.1-9.5c0.2-0.6,0-1.2-0.5-1.5l-8-5.8c-1.1-0.8-0.5-2.5,0.8-2.5h9.9
	c0.6,0,1.1-0.4,1.3-0.9l3.1-9.5c0.4-1.3,2.2-1.3,2.6,0l3.1,9.5c0.2,0.6,0.7,0.9,1.3,0.9h9.9C1783.2,203.3,1783.7,205,1782.6,205.8z"
	/>
<path class="st2" d="M918.6,66.8c-13,0-23.6,10.6-23.6,23.6s10.6,23.6,23.6,23.6s23.6-10.6,23.6-23.6
	C942.2,77.4,931.6,66.8,918.6,66.8z M935,86.9l-8,5.8c-0.5,0.3-0.7,1-0.5,1.5l3.1,9.5c0.4,1.3-1,2.3-2.1,1.5l-8-5.8
	c-0.5-0.3-1.1-0.3-1.6,0l-8,5.8c-1.1,0.8-2.5-0.3-2.1-1.5l3.1-9.5c0.2-0.6,0-1.2-0.5-1.5l-8-5.8c-1.1-0.8-0.5-2.5,0.8-2.5h9.9
	c0.6,0,1.1-0.4,1.3-0.9l3.1-9.5c0.4-1.3,2.2-1.3,2.6,0l3.1,9.5c0.2,0.6,0.7,0.9,1.3,0.9h9.9C935.6,84.4,936.1,86.1,935,86.9z"/>
<path class="st0" d="M456.1,160.3c-13,0-23.6,10.6-23.6,23.6s10.6,23.6,23.6,23.6s23.6-10.6,23.6-23.6
	C479.7,170.9,469.1,160.3,456.1,160.3z M472.5,180.4l-8,5.8c-0.5,0.3-0.7,1-0.5,1.5l3.1,9.5c0.4,1.3-1,2.3-2.1,1.5l-8-5.8
	c-0.5-0.3-1.1-0.3-1.6,0l-8,5.8c-1.1,0.8-2.5-0.3-2.1-1.5l3.1-9.5c0.2-0.6,0-1.2-0.5-1.5l-8-5.8c-1.1-0.8-0.5-2.5,0.8-2.5h9.9
	c0.6,0,1.1-0.4,1.3-0.9l3.1-9.5c0.4-1.3,2.2-1.3,2.6,0l3.1,9.5c0.2,0.6,0.7,0.9,1.3,0.9h9.9C473.1,177.9,473.6,179.6,472.5,180.4z"
	/>
<path class="st0" d="M118.7,191.6c-13,0-23.6,10.6-23.6,23.6s10.6,23.6,23.6,23.6s23.6-10.6,23.6-23.6
	C142.3,202.2,131.7,191.6,118.7,191.6z M135.1,211.7l-8,5.8c-0.5,0.3-0.7,1-0.5,1.5l3.1,9.5c0.4,1.3-1,2.3-2.1,1.5l-8-5.8
	c-0.5-0.3-1.1-0.3-1.6,0l-8,5.8c-1.1,0.8-2.5-0.3-2.1-1.5l3.1-9.5c0.2-0.6,0-1.2-0.5-1.5l-8-5.8c-1.1-0.8-0.5-2.5,0.8-2.5h9.9
	c0.6,0,1.1-0.4,1.3-0.9l3.1-9.5c0.4-1.3,2.2-1.3,2.6,0l3.1,9.5c0.2,0.6,0.7,0.9,1.3,0.9h9.9C135.7,209.2,136.2,210.9,135.1,211.7z"
	/>
<path class="st2" d="M409,4.4c-7,0-12.7,5.7-12.7,12.7S402,29.8,409,29.8s12.7-5.7,12.7-12.7S416,4.4,409,4.4z M417.2,15.3l-4,2.9
	c-0.2,0.2-0.3,0.5-0.2,0.8l1.5,4.7c0.2,0.6-0.5,1.2-1.1,0.8l-4-2.9c-0.2-0.2-0.6-0.2-0.8,0l-4,2.9c-0.5,0.4-1.3-0.1-1.1-0.8L405,19
	c0.1-0.3,0-0.6-0.2-0.8l-4-2.9c-0.5-0.4-0.3-1.2,0.4-1.2h5c0.3,0,0.6-0.2,0.7-0.5l1.5-4.7c0.2-0.6,1.1-0.6,1.3,0l1.5,4.7
	c0.1,0.3,0.4,0.5,0.7,0.5h5C417.5,14.1,417.8,14.9,417.2,15.3z"/>
<path class="st0" d="M1385.1,274.8c-5.6,0-10.1,4.5-10.1,10.1s4.5,10.1,10.1,10.1s10.1-4.5,10.1-10.1
	C1395.2,279.4,1390.7,274.8,1385.1,274.8z M1392,283.5l-3.4,2.4c-0.2,0.1-0.3,0.4-0.2,0.6l1.3,3.9c0.2,0.5-0.4,1-0.9,0.6l-3.4-2.4
	c-0.2-0.1-0.5-0.1-0.7,0l-3.4,2.4c-0.4,0.3-1.1-0.1-0.9-0.6l1.3-3.9c0.1-0.2,0-0.5-0.2-0.6l-3.4-2.4c-0.4-0.3-0.2-1,0.3-1h4.1
	c0.2,0,0.5-0.2,0.5-0.4l1.3-3.9c0.2-0.5,0.9-0.5,1.1,0l1.3,3.9c0.1,0.2,0.3,0.4,0.5,0.4h4.1C1392.2,282.4,1392.4,283.2,1392,283.5z"
	/>
<path class="st0" d="M1153.9,369.2c-5.6,0-10.1,4.5-10.1,10.1s4.5,10.1,10.1,10.1s10.1-4.5,10.1-10.1
	C1164,373.8,1159.5,369.2,1153.9,369.2z M1160.7,377.9l-3.4,2.4c-0.2,0.1-0.3,0.4-0.2,0.6l1.3,3.9c0.2,0.5-0.4,1-0.9,0.6l-3.4-2.4
	c-0.2-0.1-0.5-0.1-0.7,0l-3.4,2.4c-0.4,0.3-1.1-0.1-0.9-0.6l1.3-3.9c0.1-0.2,0-0.5-0.2-0.6l-3.4-2.4c-0.4-0.3-0.2-1,0.3-1h4.1
	c0.2,0,0.5-0.2,0.5-0.4l1.3-3.9c0.2-0.5,0.9-0.5,1.1,0l1.3,3.9c0.1,0.2,0.3,0.4,0.5,0.4h4.1C1161,376.8,1161.2,377.5,1160.7,377.9z"
	/>
<path class="st4" d="M705.4,116.2c-6.8,0-12.3,5.5-12.3,12.3c0,6.8,5.5,12.3,12.3,12.3s12.3-5.5,12.3-12.3
	C717.7,121.8,712.2,116.2,705.4,116.2z M713.7,126.8l-4.1,2.9c-0.2,0.1-0.4,0.5-0.2,0.7l1.6,4.7c0.2,0.6-0.5,1.2-1.1,0.7l-4.1-2.9
	c-0.2-0.1-0.6-0.1-0.9,0l-4.1,2.9c-0.5,0.4-1.3-0.1-1.1-0.7l1.6-4.7c0.1-0.2,0-0.6-0.2-0.7l-4.1-2.9c-0.5-0.4-0.2-1.2,0.4-1.2h5
	c0.2,0,0.6-0.2,0.6-0.5l1.6-4.7c0.2-0.6,1.1-0.6,1.3,0l1.6,4.7c0.1,0.2,0.4,0.5,0.6,0.5h5C714,125.5,714.3,126.3,713.7,126.8z"/>
<path class="st0" d="M1828.2,61.6c-5.6,0-10.1,4.5-10.1,10.1s4.5,10.1,10.1,10.1s10.1-4.5,10.1-10.1
	C1838.3,66.1,1833.8,61.6,1828.2,61.6z M1835.1,70.2l-3.4,2.4c-0.2,0.1-0.3,0.4-0.2,0.6l1.3,3.9c0.2,0.5-0.4,1-0.9,0.6l-3.4-2.4
	c-0.2-0.1-0.5-0.1-0.7,0l-3.4,2.4c-0.4,0.3-1.1-0.1-0.9-0.6l1.3-3.9c0.1-0.2,0-0.5-0.2-0.6l-3.4-2.4c-0.4-0.3-0.2-1,0.3-1h4.1
	c0.2,0,0.5-0.2,0.5-0.4l1.3-3.9c0.2-0.5,0.9-0.5,1.1,0l1.3,3.9c0.1,0.2,0.3,0.4,0.5,0.4h4.1C1835.3,69.2,1835.5,69.9,1835.1,70.2z"
	/>
<path class="st3" d="M244.2,272.6c-7,0-12.7,5.7-12.7,12.7s5.7,12.7,12.7,12.7s12.7-5.7,12.7-12.7
	C256.9,278.3,251.2,272.6,244.2,272.6z M252.4,283.5l-4,2.9c-0.2,0.2-0.3,0.5-0.2,0.8l1.5,4.7c0.2,0.6-0.5,1.2-1.1,0.8l-4-2.9
	c-0.2-0.2-0.6-0.2-0.8,0l-4,2.9c-0.5,0.4-1.3-0.1-1.1-0.8l1.5-4.7c0.1-0.3,0-0.6-0.2-0.8l-4-2.9c-0.5-0.4-0.3-1.2,0.4-1.2h5
	c0.3,0,0.6-0.2,0.7-0.5l1.5-4.7c0.2-0.6,1.1-0.6,1.3,0l1.5,4.7c0.1,0.3,0.4,0.5,0.7,0.5h5C252.6,282.3,252.9,283.1,252.4,283.5z"/>
</svg>
