<?xml version="1.0" encoding="utf-8"?>
<!-- Generator: Adobe Illustrator 26.3.1, SVG Export Plug-In . SVG Version: 6.00 Build 0)  -->
<svg version="1.1" id="_層_1" xmlns="http://www.w3.org/2000/svg" xmlns:xlink="http://www.w3.org/1999/xlink" x="0px" y="0px"
	 viewBox="0 0 246 246" style="enable-background:new 0 0 246 246;" xml:space="preserve">
<style type="text/css">
	.st0{fill:#FFFFFF;}
</style>
<g>
	<g>
		<path class="st0" d="M152,128.9L152,128.9L103,101.1c-0.3-0.1-0.5-0.2-0.7-0.2c-0.4,0-0.5,0.6-0.5,0.9v4.1c0,1.4,1,3.1,2.2,3.8
			l38.7,21.9c1.9,1.1,2.9,3.6,2.2,5.7c0,0.1-0.1,0.4-0.8,2c-2.3,5.7-5.4,10.8-9.2,15.1c-3.7,4.2-11.3,9.1-12.2,9.7
			c-1.7,1.1-4.6,1.1-6.4,0c-1.4-0.9-8.6-5.6-12.2-9.7c-5.3-6-9.2-15.4-9.6-16.5c-0.6-1.4-2.2-3.2-3.5-3.9l-5.3-3
			c-0.3-0.2-0.5-0.2-0.6-0.2c0,0.1,0,0.3,0.1,0.6c0.2,1,1.4,6.1,3.2,10.6c2.6,6.5,6.1,12.2,10.5,17.1c4.8,5.4,16.1,12.2,16.5,12.5
			c1.5,0.9,3.1,1.8,3.5,2c0.2,0.1,0.9,0.1,1,0c0.2-0.1,0.5-0.3,0.9-0.5c0.7-0.4,1.7-1,2.6-1.5c0.5-0.3,11.8-7.1,16.5-12.5
			c5.2-5.9,9.2-12.9,11.9-20.9c0.5-1.6,1-3.2,1.4-4.7l0.4-1.5C153.9,131,153.1,129.5,152,128.9z"/>
		<polygon class="st0" points="119.5,89.7 114.1,93.1 125.3,93.1 		"/>
		<path class="st0" d="M155.7,92c0-1.5-0.6-2.6-0.9-2.7c-0.9-0.3-2.9-1.1-4.6-1.8c-0.5-0.2-12.4-5.2-18.5-8.9
			c-3.1-1.9-5.8-3.6-7.4-4.7c-0.9-0.6-1.6-1.1-2.1-1.4l-0.7-0.5c0,0-0.6-0.4-1.3-1c-0.2-0.1-0.4-0.2-0.7-0.2c-0.1,0-0.1,0-0.2,0
			c-0.2,0-0.4,0.1-0.6,0.2l-0.7,0.5c-0.4,0.3-0.7,0.5-0.7,0.5c-0.1,0.1-4.5,3.2-10.7,7c-5.9,3.5-16.7,8.1-17.9,8.6
			c-1.5,0.6-3.6,1.4-4.6,1.7c-0.3,0.1-0.9,1.1-0.9,2.7v16.4c0,1.8,0,3.9-0.1,4.7l0,2.3c0,0.7,0.8,1.9,1.8,2.5
			c1.2,0.7,3.4,1.9,4.9,2.8l40.5,22.9c0.3,0.1,0.5,0.2,0.7,0.2c0.5,0,0.5-0.6,0.5-0.9v-4.1c0-1.4-1-3.1-2.2-3.8l-35.9-20.3
			c-3.3-2-3.2-3.8-3.2-5.5l0-0.4V98.6c0-2.1,1.5-4.5,3.5-5.4c2-0.9,11.9-5.4,17.1-8.5c3.5-2.1,5.5-3.4,5.5-3.5
			c1.7-1.2,4.6-1.1,6.4,0c0,0,2,1.4,5.5,3.5c5.4,3.2,15.9,8,17.1,8.5c2,0.9,3.5,3.2,3.5,5.4v10.2c0,1.5,0,3,0,3.2
			c0,0.1,0.1,2.4,2.3,3.6l3.3,1.9c0.3,0.2,0.6,0.2,0.7,0.2c0.5,0,0.6-0.6,0.7-1c0-0.3,0-1,0-2.2V113c0-0.8-0.1-2.8-0.1-4.6V92z"/>
	</g>
	<g>
		<path class="st0" d="M93.9,112.3c0.2,0.1,0.4,0.3,0.6,0.4l35.9,20.3c0.5,0.3,1,0.7,1.5,1.2c1.1,1.2,1.9,3,1.9,4.5v4.1
			c0,0.7-0.2,1.4-0.5,1.9c0,0,0,0.1-0.1,0.1h3c0.9,0,1.5-0.7,1.5-2v-4.1c0-1.7-1.2-3.8-2.7-4.7l-35.9-20.3c-3-1.8-2.7-3.3-2.7-5
			V98.6c0-1.7,1.3-3.7,2.9-4.4c0.6-0.3,11.6-5.2,17.2-8.6c2-1.2,3.5-2.2,4.5-2.8c-0.4-0.2-0.9-0.3-1.5-0.3c-0.8,0-1.5,0.2-2,0.5
			c0,0-2.1,1.4-5.6,3.5c-5.5,3.3-16.1,8.1-17.3,8.6c-0.1,0-0.2,0.1-0.3,0.2c-1,0.6-1.9,2-1.9,3.2l0,10.6
			C92.4,110.4,92.4,111.2,93.9,112.3z"/>
		<path class="st0" d="M110.1,153.8c-5.3-6-9.2-15.7-9.4-16.2c-0.6-1.6-2.4-3.6-3.9-4.5l-5.3-3c-0.1-0.1-0.2-0.1-0.3-0.2
			c0,0-0.1,0-0.1,0c-0.1,0-0.2-0.1-0.2-0.1c0,0,0,0,0,0c0,0,0,0,0,0c-0.1,0-0.2,0-0.3-0.1c0,0,0,0-0.1,0c0,0,0,0-0.1,0h-2.3l4.2,2.4
			c0.7,0.4,1.4,0.9,2,1.6c1,1,1.9,2.3,2.4,3.4c0.2,0.4,4.1,10.1,9.2,15.9c0.8,0.9,1.7,1.8,2.7,2.7c3.7,3.2,8.3,6.2,8.9,6.6
			c0.5,0.3,1.3,0.5,2,0.5c0.5,0,1-0.1,1.4-0.2C118.6,161,113,157.1,110.1,153.8z"/>
		<path class="st0" d="M157.7,128l-2.8-1.6c-1.5-0.8-4-2.2-5.5-3.1l-34.2-19.3l-6.6-3.7c-0.1-0.1-0.2-0.1-0.3-0.2c0,0,0,0-0.1,0
			c-0.1,0-0.2-0.1-0.3-0.1c0,0,0,0,0,0c0,0,0,0,0,0c-0.1,0-0.3-0.1-0.4-0.1c0,0,0,0,0,0c0,0-0.1,0-0.1,0h-2.2l39.6,22.4
			c0.8,0.5,1.9,1.1,3,1.7l5.3,3c0.5,0.3,1,0.7,1.4,1.2c1.1,1.2,1.6,2.9,1.3,4.4l-0.4,1.5c-0.4,1.6-0.9,3.2-1.4,4.8
			c-2.8,8.3-6.9,15.5-12.3,21.6c-0.6,0.7-1.4,1.5-2.2,2.2c-5.4,5-13.8,10.1-14.9,10.7c-0.6,0.4-1.4,0.8-2.1,1.2h2.1
			c0.3,0,0.7-0.1,0.9-0.2c0.2-0.1,0.6-0.3,1-0.5c0.7-0.4,1.7-1,2.6-1.5c0.6-0.4,11.9-7.1,16.8-12.7c6-6.8,9.7-14.2,12.1-21.2
			c0.5-1.6,1-3.2,1.4-4.8c0.4-1.5,0.4-1.5,0.4-1.5C160.2,130.8,159.2,128.8,157.7,128z"/>
		<path class="st0" d="M128.2,94.1h3.4c0.7,0,1-1,0.4-1.3l-7-4.1c-0.1,0-0.1-0.1-0.2-0.1c0,0,0,0,0,0c0,0,0,0,0,0c0,0-0.1,0-0.1,0
			c0,0,0,0,0,0H122l5.4,3.2c0.3,0.2,0.5,0.4,0.7,0.7l0.4,0.3C129.2,93.2,128.9,94.1,128.2,94.1z"/>
		<path class="st0" d="M161.9,108.4V92c0-1.7-0.7-3.4-1.6-3.6c-0.9-0.3-2.9-1-4.5-1.7c-0.6-0.3-12.3-5.2-18.4-8.8
			c-3-1.8-5.6-3.5-7.4-4.7c-0.9-0.6-1.6-1.1-2.1-1.4c-0.2-0.2-0.4-0.3-0.7-0.5c0,0-0.6-0.4-1.3-1c-0.3-0.2-0.7-0.3-1.1-0.4
			c0,0,0,0-0.1,0c0,0-0.1,0-0.1,0h-2.4c0.3,0.2,0.5,0.4,0.6,0.4l0.7,0.5c0.5,0.3,1.2,0.8,2.1,1.4c1.6,1.1,4.2,2.8,7.3,4.7
			c6,3.6,17.7,8.6,18.2,8.8c1.5,0.7,3.5,1.4,4.4,1.7c0.6,0.2,1,0.6,1.4,1.1c0.7,1,1,2.4,1,3.6v16.4c0,1.7,0,3.8,0.1,4.5l0,1.6
			c0,0.8,0,1.6,0,2.2l0,0.1c0,0.7-0.2,1.3-0.5,1.8c0,0-0.1,0.1-0.1,0.1h2.9c0.9,0,1.6-0.7,1.7-2c0,0,0-0.8,0-2.2c0-1.5,0-1.5,0-1.5
			C161.9,112.2,161.9,110.1,161.9,108.4z"/>
	</g>
</g>
</svg>
