<?xml version="1.0" encoding="utf-8"?>
<!-- Generator: Adobe Illustrator 26.3.1, SVG Export Plug-In . SVG Version: 6.00 Build 0)  -->
<svg version="1.1" id="圖層_1" xmlns="http://www.w3.org/2000/svg" xmlns:xlink="http://www.w3.org/1999/xlink" x="0px" y="0px"
	 viewBox="0 0 158.7 158.7" style="enable-background:new 0 0 158.7 158.7;" xml:space="preserve">
<style type="text/css">
	.st0{fill:none;}
	.st1{fill:#FFFFFF;}
	.st2{fill:#737D82;}
</style>
<g id="圖層_2_00000044144351621212850290000014827906593827652528_">
	<g id="圖層_1-2">
		<g>
			<path class="st0" d="M26,82.8c-0.4,0-1.6,0-1.6,2v7.1c0,1.9,1.2,1.9,1.6,1.9c1,0,1.5-0.6,1.5-1.9v-7.1C27.5,83.5,27,82.8,26,82.8
				z"/>
			<path class="st0" d="M24.6,20.3c1,0,1.5-0.6,1.5-1.9v-7.1c0-1.3-0.5-2-1.5-2c-0.4,0-1.5,0-1.5,2v7.1
				C23.1,19.7,23.6,20.3,24.6,20.3z"/>
			<path class="st0" d="M26,34.3c-1,0-1.6,0.6-1.6,1.9v7.1c0,1.9,1.2,1.9,1.6,1.9c1,0,1.5-0.6,1.5-1.9v-7.1
				C27.5,34.9,27,34.3,26,34.3z"/>
			<path class="st0" d="M6.8,34.3c-1,0-1.6,0.6-1.6,1.9v7.1c0,1.9,1.2,1.9,1.6,1.9c1,0,1.5-0.6,1.5-1.9v-7.1
				C8.3,34.9,7.8,34.3,6.8,34.3z"/>
			<path class="st0" d="M96.1,20.3c1,0,1.5-0.6,1.5-1.9v-7.1c0-1.3-0.5-2-1.5-2c-0.4,0-1.6,0-1.6,2v7.1
				C94.6,19.7,95.1,20.3,96.1,20.3z"/>
			<path class="st0" d="M45,20.3c1,0,1.5-0.6,1.5-1.9v-7.1c0-1.3-0.5-2-1.5-2c-0.4,0-1.5,0-1.5,2v7.1C43.5,20.3,44.7,20.3,45,20.3z"
				/>
			<path class="st0" d="M6.8,82.8c-0.4,0-1.6,0-1.6,2v7.1c0,1.9,1.2,1.9,1.6,1.9c1,0,1.5-0.6,1.5-1.9v-7.1
				C8.3,83.5,7.8,82.8,6.8,82.8z"/>
			<path class="st0" d="M24.6,68.8c1,0,1.5-0.6,1.5-1.9v-7.1c0-1.3-0.5-2-1.5-2c-0.4,0-1.5,0-1.5,2v7.1
				C23.1,68.8,24.2,68.8,24.6,68.8z"/>
			<g>
				<path class="st1" d="M3.1,11.8c0.4,0.2,0.8,0.2,1.2,0L5,11.3v12.6c0,0.6,0.5,1.1,1.1,1.1h3.1c0.6,0,1.1-0.5,1.1-1.1V5.8
					c0-0.6-0.5-1.1-1.1-1.1c0,0,0,0-0.1,0H6.4C6.2,4.6,6,4.7,5.8,4.9l-2.7,2C2.8,7,2.6,7.4,2.6,7.8v3.1C2.5,11.2,2.7,11.6,3.1,11.8z
					"/>
				<path class="st1" d="M24.6,25.2c3.6,0.2,6.6-2.5,6.8-6c0-0.2,0-0.4,0-0.7V11c0.2-3.5-2.5-6.5-6-6.7c-0.3,0-0.6,0-0.9,0
					c-3.5-0.3-6.6,2.3-6.8,5.8c0,0.3,0,0.6,0,0.9v7.5c-0.1,3.6,2.6,6.6,6.2,6.7C24.1,25.3,24.4,25.3,24.6,25.2z M23.1,18.4v-7.1
					c0-2,1.2-2,1.5-2c1,0,1.5,0.7,1.5,2v7.1c0,1.3-0.5,1.9-1.5,1.9C23.6,20.3,23.1,19.7,23.1,18.4z"/>
				<path class="st1" d="M6.8,29.3c-3.5-0.3-6.6,2.3-6.8,5.8c0,0.3,0,0.6,0,0.9v7.5C-0.2,47,2.5,50,6.1,50.2c0.3,0,0.5,0,0.8,0
					c3.5,0.2,6.6-2.4,6.8-5.9c0-0.2,0-0.5,0-0.7V36c0.2-3.5-2.5-6.5-6-6.7C7.4,29.3,7.1,29.3,6.8,29.3z M5.3,36.2
					c0-1.3,0.5-1.9,1.6-1.9c1,0,1.5,0.6,1.5,1.9v7.1c0,1.3-0.5,1.9-1.5,1.9c-0.4,0-1.6,0-1.6-1.9V36.2z"/>
				<path class="st1" d="M26,29.3c-3.5-0.3-6.6,2.3-6.8,5.8c0,0.3,0,0.6,0,0.9v7.5C19,47,21.7,50,25.2,50.2c0.3,0,0.5,0,0.8,0
					c3.5,0.2,6.6-2.4,6.8-5.9c0-0.2,0-0.5,0-0.7V36c0.2-3.5-2.5-6.5-6-6.7C26.6,29.3,26.3,29.3,26,29.3z M27.5,36.2v7.1
					c0,1.3-0.5,1.9-1.5,1.9c-0.4,0-1.6,0-1.6-1.9v-7.1c0-1.3,0.5-1.9,1.6-1.9C27,34.3,27.5,34.9,27.5,36.2z"/>
				<path class="st1" d="M45,25.2c3.5,0.3,6.6-2.4,6.9-5.9c0-0.3,0-0.5,0-0.8V11c0.2-3.5-2.5-6.5-5.9-6.7c-0.3,0-0.6,0-0.9,0
					c-3.5-0.3-6.5,2.3-6.8,5.8c0,0.3,0,0.6,0,0.9v7.5c-0.2,3.5,2.6,6.5,6.1,6.7C44.6,25.3,44.8,25.3,45,25.2z M43.5,18.4v-7.1
					c0-2,1.2-2,1.5-2c1,0,1.5,0.7,1.5,2v7.1c0,1.3-0.5,1.9-1.5,1.9C44.7,20.3,43.5,20.3,43.5,18.4z"/>
				<path class="st1" d="M58.7,11.8c0.4,0.2,0.8,0.2,1.2,0l0.8-0.6v12.6c0,0.6,0.5,1.1,1.1,1.1h3.1c0.6,0,1.1-0.5,1.1-1.1V5.8
					c0-0.6-0.5-1.1-1.1-1.1c0,0,0,0,0,0H62c-0.2,0-0.5,0.1-0.7,0.2l-2.8,2c-0.3,0.2-0.5,0.6-0.5,0.9v3.1
					C58.1,11.2,58.3,11.6,58.7,11.8z"/>
				<path class="st1" d="M74.6,11.8c0.4,0.2,0.8,0.2,1.2,0l0.8-0.6v12.6c0,0.6,0.5,1.1,1.1,1.1l0,0h3.1c0.6,0,1.1-0.5,1.1-1.1V5.8
					c0-0.6-0.5-1.1-1.1-1.1c0,0,0,0,0,0h-2.9c-0.2,0-0.5,0.1-0.7,0.2l-2.8,2C74.2,7,74,7.4,74,7.8v3.1C74,11.2,74.2,11.6,74.6,11.8z
					"/>
				<path class="st1" d="M96.1,25.2c3.5,0.2,6.6-2.5,6.8-6c0-0.2,0-0.5,0-0.7V11c0.2-3.5-2.5-6.5-6-6.7c-0.3,0-0.6,0-0.9,0
					c-3.5-0.3-6.6,2.3-6.8,5.8c0,0.3,0,0.6,0,0.9v7.5c-0.2,3.5,2.6,6.5,6.1,6.7C95.6,25.3,95.8,25.3,96.1,25.2z M94.7,18.4v-7.1
					c0-2,1.2-2,1.6-2c1,0,1.5,0.7,1.5,2v7.1c0,1.3-0.5,1.9-1.5,1.9C95.2,20.3,94.7,19.7,94.7,18.4z"/>
				<path class="st1" d="M43,48.9c0.4-0.5,0.7-1,1.1-1.5l1.1-1.3c0.2-0.3,0.5-0.5,0.8-0.9c0.2-0.3,0.7-0.8,1.1-1.3l1.2-1.1V30.7
					c0-0.6-0.5-1.1-1.1-1.1c0,0,0,0,0,0h-2.8c-0.2,0-0.5,0.1-0.7,0.2l-2.8,2c-0.3,0.2-0.5,0.5-0.5,0.9v3.1c0,0.4,0.2,0.8,0.6,1
					c0.4,0.2,0.8,0.2,1.2,0l0.8-0.5L43,48.9C42.9,48.9,43,48.9,43,48.9z"/>
				<path class="st1" d="M57.3,35.7l1-0.6l1.6-1c0.4-0.2,0.7-0.4,1-0.6l0.9-0.5l1.1-0.5l1.1-0.6v-1.2c0-0.6-0.5-1.1-1.1-1.1
					c0,0,0,0-0.1,0h-2.9c-0.2,0-0.5,0.1-0.6,0.2l-2.8,2.1c-0.3,0.2-0.5,0.5-0.5,0.9v3.1c0,0.2,0.1,0.4,0.2,0.5L57.3,35.7z"/>
				<path class="st1" d="M6.1,73.5h3.1c0.6,0,1.1-0.5,1.1-1.1l0,0V54.3c0-0.6-0.5-1.1-1.1-1.1H6.4c-0.2,0-0.5,0.1-0.6,0.2l-2.7,1.9
					c-0.3,0.2-0.5,0.5-0.5,0.9v3.1c0,0.4,0.2,0.8,0.6,1c0.4,0.2,0.8,0.2,1.2,0l0.8-0.6v12.7C5.2,73,5.6,73.4,6.1,73.5z"/>
				<path class="st1" d="M24.6,73.8c3.6,0.2,6.6-2.5,6.8-6c0-0.2,0-0.4,0-0.7v-7.5c0.2-3.5-2.5-6.5-6-6.7c-0.3,0-0.6,0-0.9,0
					c-3.5-0.3-6.6,2.3-6.8,5.8c0,0.3,0,0.6,0,0.9v7.5c-0.1,3.6,2.6,6.6,6.2,6.7C24.1,73.8,24.4,73.8,24.6,73.8z M23.1,66.9v-7.1
					c0-2,1.2-2,1.5-2c1,0,1.5,0.7,1.5,2v7.1c0,1.3-0.5,1.9-1.5,1.9C24.2,68.8,23.1,68.8,23.1,66.9z"/>
				<path class="st1" d="M6.8,77.9c-3.5-0.3-6.6,2.3-6.8,5.8c0,0.3,0,0.6,0,0.9v7.5c-0.2,3.5,2.6,6.5,6.1,6.7c0.2,0,0.5,0,0.7,0
					c3.5,0.2,6.6-2.5,6.8-6c0-0.2,0-0.5,0-0.7v-7.5c0.2-3.5-2.5-6.5-6-6.7C7.4,77.9,7.1,77.9,6.8,77.9z M5.3,84.8c0-2,1.2-2,1.6-2
					c1,0,1.5,0.7,1.5,2v7.1c0,1.3-0.5,1.9-1.5,1.9c-0.4,0-1.6,0-1.6-1.9V84.8z"/>
				<path class="st1" d="M30.5,84.7c0-1.1,0-2.2,0.2-3.3c0-0.5,0-1.1,0-1.7c-1.3-1.2-3.1-1.8-4.9-1.8c-3.5-0.3-6.6,2.3-6.8,5.8
					c0,0.3,0,0.6,0,0.9v7.5c-0.2,3.5,2.6,6.5,6.1,6.7c0.3,0,0.6,0,0.9,0c2.3,0.1,4.4-0.9,5.7-2.7c0-0.7-0.2-1.4-0.3-2.1
					C30.9,90.9,30.6,87.8,30.5,84.7z M27.5,84.7v7.1c0,1.3-0.5,1.9-1.5,1.9c-0.4,0-1.6,0-1.6-1.9v-7c0-2,1.2-2,1.6-2
					C27,82.8,27.5,83.5,27.5,84.7L27.5,84.7z"/>
				<path class="st1" d="M104.2,35.7l-1.2-0.3l-1.2-0.3l-0.9-0.2l-1.3-0.3c-1.4-0.3-2.8-0.5-4.2-0.7l-1.2-0.2h-0.9h-1.3H91h-2
					c-1.4,0-2.8,0-4.2,0.2h-1.2l-1.1,0h-0.8l-1.2,0.2l-1.4,0.2c-0.7,0-1.3,0.3-2,0.5l-1.3,0.3l-1.2,0.3l-0.8,0.2l-1.2,0.4l-1.1,0.4
					c-2.6,1-5,2.1-7.4,3.5L63,40.6l-1.1,0.7l-0.8,0.5l-1.2,0.8l-1.1,0.9c-4,2.9-7.5,6.4-10.5,10.3l-0.7,0.9
					c-0.2,0.3-0.5,0.6-0.7,0.9l-0.3,0.4c-0.2,0.3-0.4,0.7-0.6,1l-0.6,1c-0.7,1.1-1.3,2.1-1.9,3.3c-0.6,1.1-0.8,1.6-1.1,2.4
					c-0.4,0.8-0.8,1.8-1.1,2.7c-0.3,0.9-0.5,1.2-0.7,1.8c-0.2,0.6-0.4,1.2-0.6,1.8s-0.3,1-0.4,1.5c-1.2,4.3-1.8,8.8-1.8,13.3
					c0,28.3,22.9,51.3,51.2,51.3c28.3,0,51.3-22.9,51.3-51.2C140.3,62.3,125.7,42.5,104.2,35.7L104.2,35.7z M89,125.4
					c-22.5-0.1-40.7-18.3-40.7-40.7c0-4.6,0.8-9.1,2.3-13.4c0.4-1,0.7-2.1,1.2-3.1c1.6-3.6,3.7-7,6.2-10l1.1-1.3
					c0.8-0.8,1.6-1.6,2.4-2.4c0.8-0.8,1-1,1.6-1.4c2.9-2.3,6-4.3,9.4-5.8l1.1-0.5l1.2-0.4l0.6-0.2l1.2-0.5c1.3-0.4,2.6-0.8,3.9-1
					l1.3-0.2h0.9c0.4,0,0.8-0.2,1.2-0.2l1.2-0.2c1.3,0,2.6-0.2,3.9-0.2h1.6h1.2h1.1h0.8l1.2,0.2l1.3,0.2l2,0.4l1.3,0.3l1.1,0.3
					l0.8,0.2l1.1,0.4l1.1,0.4c21,8,31.5,31.6,23.5,52.6c-6,15.8-21.2,26.2-38,26.2L89,125.4z"/>
				<path class="st1" d="M99.1,80.7L99.1,80.7c-0.8,0-1.6,0.3-2.1,0.9c-0.3,0.5-0.5,1-0.6,1.6c0,0.3,0,0.7,0,1v10.6
					c0,0.3,0,0.6,0,0.9c0,0.2,0,0.3,0,0.5c0.1,0.5,0.3,0.9,0.6,1.2c1.1,1.1,2.8,1.2,4,0.1c0.4-0.4,0.7-1,0.9-1.6c0-0.3,0-0.7,0-0.9
					V84.3C101.8,83,101.5,80.9,99.1,80.7z"/>
				<path class="st1" d="M72.2,81.4c-0.5-0.4-1.1-0.5-1.7-0.5c-2.5,0-2.8,2.2-2.8,3.5v10.6c0,1.3,0.4,3.4,2.8,3.4
					c1.2,0.1,2.2-0.7,2.6-1.8c0.2-0.5,0.2-1.1,0.2-1.6l0,0V84.3c0-0.6-0.1-1.3-0.3-1.9C72.8,82,72.5,81.6,72.2,81.4z"/>
				<path class="st1" d="M97,61.2h0.6c0.4-0.1,0.8-0.2,1.1-0.5c0.5-0.5,0.9-1.1,1-1.8c0-0.3,0-0.7,0-1v-4.9
					c-1.8-0.6-3.7-1.1-5.6-1.3v6.1c0,0.7,0.1,1.4,0.4,2C94.9,60.7,95.9,61.3,97,61.2z"/>
				<path class="st1" d="M106.6,56.1V58c0.1,3.5-1.8,6.7-4.8,8.3c-0.4,0.2-0.7,0.4-1.1,0.5L99.8,67c-0.4,0-0.8,0.2-1.2,0.3h-1.2H97
					c-0.8,0-1.6-0.1-2.4-0.3c-0.4-0.1-0.8-0.2-1.2-0.3c-0.4-0.1-0.8-0.3-1.1-0.5l-0.6-0.3c-0.4-0.2-0.8-0.5-1.2-0.8
					c-0.4-0.4-0.8-0.8-1.1-1.2c-1.3-1.7-1.9-3.8-1.9-5.9v-6.9c-4.2,0.2-8.3,1.2-12.1,2.9v11.9c0,0.6-0.5,1.1-1.1,1.1c0,0,0,0-0.1,0
					h-4.6c-0.6,0-1.1-0.5-1.2-1.1c0,0,0,0,0,0v-7.8c-0.9,0.7-1.7,1.4-2.5,2.1l-1.1,1.1l-1.1,1.3L63,63.5c-0.4,0.5-0.8,1-1.1,1.5
					c-0.4,0.5-0.8,1.1-1.1,1.7c-3.4,5.4-5.3,11.6-5.3,18c-0.1,18.5,14.9,33.6,33.5,33.7s33.6-14.9,33.7-33.5
					C122.7,73.1,116.6,62.2,106.6,56.1z M70.5,104.6c-4.1,0.2-7.8-2.3-9.2-6.1c0-0.4-0.2-0.7-0.3-1.1c-0.1-0.7-0.2-1.4-0.2-2.2V84.1
					c0-0.6,0-1.1,0-1.7c0.1-0.7,0.2-1.3,0.5-2c0.1-0.4,0.3-0.8,0.5-1.1c0.2-0.4,0.4-0.8,0.7-1.1c1.9-2.4,4.9-3.7,8-3.5
					c2.9-0.1,5.7,1.1,7.6,3.3c0.3,0.4,0.6,0.8,0.8,1.2c0.2,0.4,0.4,0.8,0.6,1.2c0,0.2,0,0.3,0,0.5c0.2,0.5,0.3,1,0.3,1.5
					c0,0.6,0,1.1,0,1.7v11.2c0,0.2,0,0.3,0,0.4c0,0.2,0,0.4,0,0.5c0,0.4,0,0.8,0,1.2c0,0.4-0.2,0.8-0.4,1.2
					C78.1,102.3,74.5,104.7,70.5,104.6z M108.6,95.2c0.1,5.1-3.9,9.3-8.9,9.4c-0.2,0-0.5,0-0.7,0c-5.1,0.3-9.4-3.6-9.6-8.7
					c0-0.2,0-0.5,0-0.7V84.1c-0.3-4.9,3.5-9.2,8.4-9.4c0.4,0,0.8,0,1.2,0c4.9-0.4,9.2,3.3,9.6,8.2c0,0.4,0,0.8,0,1.2V95.2z"/>
			</g>
			<g>
				<path class="st2" d="M69.7,67h4.5c0.6,0,1.1-0.5,1.1-1.1c0,0,0,0,0-0.1V54l-1.1,0.5c-0.4,0.2-0.8,0.4-1.1,0.5s-1.5,0.9-2.3,1.4
					C70.1,57,70,57,69.7,57.3l-1.2,0.9v7.8C68.5,66.5,69,67,69.7,67C69.6,67,69.6,67,69.7,67z"/>
				<path class="st2" d="M91.6,65.9l0.7,0.4c0.4,0.2,0.7,0.4,1.1,0.5c0.4,0.1,0.8,0.2,1.2,0.3c0.8,0.2,1.6,0.3,2.4,0.3h0.5h1.2
					c0.4,0,0.8-0.2,1.2-0.3l0.8-0.2c0.4-0.1,0.8-0.3,1.1-0.5c3.1-1.6,4.9-4.8,4.8-8.3v-1.9c-0.4-0.2-0.7-0.5-1.1-0.7l-1.1-0.6
					c-0.8-0.4-1.5-0.8-2.3-1.1l-1.2-0.6l-1.2-0.4v4.9c0,0.3,0,0.7,0,1c-0.1,0.7-0.5,1.4-1,1.8c-0.3,0.3-0.7,0.5-1.1,0.5H97
					c-1,0.1-2-0.5-2.4-1.4c-0.3-0.6-0.4-1.3-0.4-2v-6.1c-0.4,0-0.7,0-1.1-0.2h-1.1c-0.7,0-1.5,0-2.2,0h-1.1h-1.1v6.9
					c-0.1,2.1,0.6,4.2,1.9,5.9c0.3,0.4,0.7,0.8,1.1,1.2C90.8,65.6,91.2,65.8,91.6,65.9z"/>
				<path class="st2" d="M79.6,80.7c0-0.2,0-0.3,0-0.5c-0.2-0.4-0.3-0.8-0.6-1.2c-0.2-0.4-0.5-0.8-0.8-1.2c-1.9-2.2-4.8-3.4-7.8-3.2
					c-3-0.1-5.9,1.2-7.8,3.5c-0.3,0.4-0.5,0.7-0.7,1.1c-0.2,0.4-0.4,0.7-0.5,1.1c-0.2,0.6-0.4,1.3-0.5,2c0,0.6,0,1.1,0,1.7v11.1
					c0,0.7,0.1,1.5,0.2,2.2c0,0.4,0.2,0.8,0.3,1.1c1.4,3.8,5.1,6.3,9.2,6.1c4.1,0.2,7.8-2.3,9.2-6.1c0-0.4,0.3-0.8,0.4-1.2
					c0-0.4,0-0.8,0-1.2c0-0.2,0-0.4,0-0.5c0-0.2,0-0.3,0-0.4V84c0-0.6,0-1.1,0-1.7C80.1,81.8,79.9,81.2,79.6,80.7z M73.1,96.5
					c-0.3,1.1-1.4,1.9-2.6,1.8c-2.5,0-2.8-2.1-2.8-3.4V84.3c0-1.3,0.4-3.5,2.8-3.5c0.6,0,1.2,0.2,1.7,0.5c0.3,0.3,0.6,0.6,0.8,1
					c0.2,0.6,0.4,1.2,0.3,1.9v10.6l0,0C73.3,95.5,73.2,96,73.1,96.5L73.1,96.5z"/>
				<path class="st2" d="M99,74.6c-4.9-0.4-9.2,3.3-9.6,8.2c0,0.4,0,0.8,0,1.2v11.1c-0.1,5.1,3.9,9.3,8.9,9.4c0.2,0,0.5,0,0.7,0
					c5.1,0.3,9.4-3.6,9.6-8.7c0-0.2,0-0.5,0-0.7V84c0.3-4.9-3.5-9.1-8.4-9.4C99.9,74.6,99.4,74.6,99,74.6z M99,98.3
					c-0.8,0-1.5-0.3-2-0.8c-0.3-0.4-0.5-0.8-0.6-1.2c0-0.2,0-0.3,0-0.5c0-0.3,0-0.6,0-0.9V84.3c0-0.3,0-0.7,0-1
					c0.1-0.6,0.3-1.1,0.6-1.6c0.5-0.6,1.3-1,2.1-0.9l0,0c2.4,0,2.8,2.2,2.8,3.5v10.6c0,0.3,0,0.6,0,0.9c-0.1,1.4-1.3,2.6-2.8,2.5
					C99.1,98.3,99.1,98.3,99,98.3z"/>
			</g>
			<g>
				<path d="M157.7,148.3l-25-25c21.5-24,19.4-60.8-4.5-82.3c-17.5-15.7-42.8-19.3-64-9.2L63,32.4L61.9,33L61,33.4
					c-0.3,0.2-0.6,0.4-1,0.6l-1.6,1l-1,0.6l-1,0.6c-2.9,2-5.6,4.2-8.1,6.7L47.1,44c-0.4,0.4-0.7,0.9-1.1,1.3
					c-0.4,0.4-0.5,0.6-0.8,0.9l-1.1,1.3c-0.4,0.5-0.7,1-1.1,1.5c-7,8.8-11.2,19.5-12.2,30.7c0,0.6,0,1.2,0,1.7
					c0,1.1-0.2,2.2-0.2,3.3c0,3.1,0.3,6.1,0.8,9.2c0,0.7,0.2,1.4,0.3,2.1c6.1,31.6,36.6,52.3,68.2,46.2c10.3-2,19.9-6.7,27.8-13.7
					l25,25c1.4,1.4,3.7,1.4,5.1,0C159.1,151.9,159.1,149.7,157.7,148.3z M37.8,84.7c0-4.5,0.7-9,1.9-13.3c0-0.5,0.2-1,0.4-1.5
					s0.4-1.2,0.6-1.8c0.2-0.6,0.4-1.2,0.7-1.8c0.2-0.6,0.7-1.8,1.1-2.7c0.4-0.9,0.7-1.6,1.1-2.4c0.4-0.8,1.2-2.2,1.9-3.3l0.6-1
					c0.2-0.3,0.4-0.7,0.6-1l0.3-0.4c0.2-0.3,0.5-0.6,0.7-0.9l0.7-0.9c3-3.9,6.5-7.4,10.5-10.3l1.1-0.9l1.2-0.8l0.8-0.5l1.1-0.7
					l1.1-0.7c2.4-1.3,4.8-2.4,7.4-3.3l1.1-0.4l1.2-0.4l0.8-0.2l1.2-0.3l1.3-0.3c0.6-0.2,1.3-0.4,2-0.5l1.4-0.2l1.2-0.2h0.8l1.2-0.2
					h1.2c1.4,0,2.8-0.2,4.2-0.2h2h1.2h1.3h0.9l1.2,0.2c1.4,0.2,2.8,0.4,4.2,0.7l1.3,0.3L102,35l1.2,0.3l1.2,0.3
					c27,8.4,42.1,37.1,33.7,64.1c-8.4,27-37.1,42.1-64.1,33.7c-21.5-6.7-36.1-26.5-36-49L37.8,84.7z"/>
				<path d="M103.6,46.7l-1.1-0.4l-1.1-0.4l-0.6-0.2l-1.1-0.3L98.4,45l-2-0.4l-1.3-0.2l-1.2-0.2h-0.8H92h-1.2h-1.6
					c-1.3,0-2.7,0-3.9,0.2l-1.2,0.2c-0.4,0-0.8,0-1.2,0.2h-0.9L80.8,45c-1.3,0.3-2.6,0.6-3.9,1l-1.2,0.5L75,46.7l-1.2,0.4l-1.1,0.5
					c-3.4,1.4-6.6,3.3-9.6,5.6c-0.5,0.4-1,0.9-1.6,1.4c-0.5,0.5-1.6,1.6-2.4,2.4l-1.1,1.3c-2.5,3-4.6,6.4-6.2,10
					c-0.5,1-0.8,2-1.2,3.1c-1.5,4.3-2.3,8.8-2.3,13.4c-0.1,22.5,18.1,40.8,40.6,40.8c22.5,0.1,40.8-18.1,40.8-40.6
					C129.9,67.9,119.4,52.7,103.6,46.7z M55.5,84.7c0-6.4,1.8-12.6,5.3-18c0.4-0.6,0.7-1.1,1.1-1.7c0.4-0.5,0.7-1,1.1-1.5l0.8-0.9
					l1.1-1.3l1.1-1.1c0.8-0.7,1.6-1.4,2.5-2.1l1.2-0.9c0.4-0.3,0.7-0.5,1.1-0.8s1.5-0.9,2.3-1.4c0.8-0.4,0.8-0.3,1.1-0.5l1.1-0.5
					c3.8-1.7,7.9-2.7,12.1-2.9h1.1h1.1c0.8,0,1.5,0,2.2,0H93c0.4,0,0.8,0,1.1,0.2c1.9,0.3,3.8,0.7,5.6,1.3l1.2,0.4l1.1,0.4
					c0.8,0.3,1.5,0.7,2.3,1.1l1.1,0.6c0.4,0.2,0.8,0.5,1.1,0.7c15.8,9.7,20.8,30.4,11.1,46.2c-9.7,15.8-30.4,20.8-46.2,11.1
					c-10-6.1-16.1-17-16.1-28.8L55.5,84.7z"/>
			</g>
		</g>
	</g>
</g>
</svg>
