<?xml version="1.0" encoding="UTF-8"?>
<svg id="_層_1" data-name="圖層 1" xmlns="http://www.w3.org/2000/svg" width="56" height="56" viewBox="0 0 56 56">
  <defs>
    <style>
      .cls-1 {
        fill: #fff;
      }

      .cls-2 {
        fill: #565e62;
      }
    </style>
  </defs>
  <path class="cls-1" d="M10.94,17.88l-.21-.4,.21,.4Z"/>
  <g>
    <rect class="cls-2" x="11.92" y="21.01" width="8.34" height="1.71" transform="translate(-8.26 9.86) rotate(-27.42)"/>
    <rect class="cls-1" x="8.73" y="10.79" width="8.34" height="9.86" transform="translate(-5.79 7.71) rotate(-27.42)"/>
    <rect class="cls-2" x="5.81" y="9.79" width="8.34" height=".57" transform="translate(-3.52 5.73) rotate(-27.42)"/>
    <path class="cls-1" d="M11.99,23.02l.79,1.51-.79-1.51Z"/>
    <g>
      <path class="cls-1" d="M3.57,53.96v-2.7c0-1.32,.71-2.39,2.14-3.21,1.43-.81,3.26-1.22,5.5-1.22,.44,0,.85,0,1.22,.03s.75,.06,1.12,.13c-.27,.58-.48,1.16-.61,1.76s-.2,1.23-.2,1.91v3.31H3.57Z"/>
      <path class="cls-1" d="M15.78,53.96v-3.31c0-2.21,1.13-3.99,3.39-5.35s5.2-2.04,8.83-2.04,6.62,.68,8.86,2.04c2.24,1.36,3.36,3.14,3.36,5.35v3.31H15.78Z"/>
      <path class="cls-1" d="M43.27,53.96v-3.31c0-.68-.06-1.32-.18-1.91-.12-.59-.31-1.18-.59-1.76,.37-.07,.75-.11,1.12-.13,.37-.02,.76-.03,1.17-.03,2.31,0,4.16,.41,5.55,1.22,1.39,.81,2.09,1.88,2.09,3.21v2.7h-9.16Z"/>
      <path class="cls-1" d="M11.2,45.31c-.98,0-1.82-.35-2.52-1.04-.7-.7-1.04-1.54-1.04-2.52s.35-1.82,1.04-2.52c.7-.7,1.54-1.04,2.52-1.04s1.82,.35,2.52,1.04c.7,.7,1.04,1.54,1.04,2.52s-.35,1.82-1.04,2.52c-.7,.7-1.54,1.04-2.52,1.04Z"/>
      <path class="cls-1" d="M44.8,45.31c-.98,0-1.82-.35-2.52-1.04-.7-.7-1.04-1.54-1.04-2.52s.35-1.82,1.04-2.52c.7-.7,1.54-1.04,2.52-1.04s1.82,.35,2.52,1.04c.7,.7,1.04,1.54,1.04,2.52s-.35,1.82-1.04,2.52c-.7,.7-1.54,1.04-2.52,1.04Z"/>
      <path class="cls-1" d="M28,41.75c-1.7,0-3.14-.59-4.33-1.78s-1.78-2.63-1.78-4.33,.59-3.18,1.78-4.35c1.19-1.17,2.63-1.76,4.33-1.76s3.18,.59,4.35,1.76c1.17,1.17,1.76,2.62,1.76,4.35s-.59,3.14-1.76,4.33c-1.17,1.19-2.62,1.78-4.35,1.78Z"/>
      <path d="M28,29.53c1.73,0,3.18,.59,4.35,1.76s1.76,2.62,1.76,4.35-.59,3.14-1.76,4.33c-1.17,1.19-2.62,1.78-4.35,1.78s-3.14-.59-4.33-1.78c-1.19-1.19-1.78-2.63-1.78-4.33s.59-3.18,1.78-4.35c1.19-1.17,2.63-1.76,4.33-1.76m16.8,8.65c.98,0,1.82,.35,2.52,1.04,.7,.7,1.04,1.54,1.04,2.52s-.35,1.82-1.04,2.52c-.7,.7-1.54,1.04-2.52,1.04s-1.82-.35-2.52-1.04c-.7-.7-1.04-1.54-1.04-2.52s.35-1.82,1.04-2.52c.7-.7,1.54-1.04,2.52-1.04m-33.6,0c.98,0,1.82,.35,2.52,1.04,.7,.7,1.04,1.54,1.04,2.52s-.35,1.82-1.04,2.52c-.7,.7-1.54,1.04-2.52,1.04s-1.82-.35-2.52-1.04c-.7-.7-1.04-1.54-1.04-2.52s.35-1.82,1.04-2.52c.7-.7,1.54-1.04,2.52-1.04m16.8,5.09c3.67,0,6.62,.68,8.86,2.04,2.24,1.36,3.36,3.14,3.36,5.35v3.31H15.78v-3.31c0-2.21,1.13-3.99,3.39-5.35,2.26-1.36,5.2-2.04,8.83-2.04m16.8,3.56c2.31,0,4.16,.41,5.55,1.22s2.09,1.88,2.09,3.21v2.7h-9.16v-3.31c0-.68-.06-1.32-.18-1.91-.12-.59-.31-1.18-.59-1.76,.37-.07,.75-.11,1.12-.13,.37-.02,.76-.03,1.17-.03m-33.6,0c.44,0,.85,0,1.22,.03,.37,.02,.75,.06,1.12,.13-.27,.58-.48,1.16-.61,1.76-.14,.59-.2,1.23-.2,1.91v3.31H3.57v-2.7c0-1.32,.71-2.39,2.14-3.21s3.26-1.22,5.5-1.22M28,27.49c-2.24,0-4.18,.79-5.76,2.34-1.58,1.56-2.39,3.51-2.39,5.8s.8,4.19,2.38,5.77c.14,.14,.27,.27,.41,.39-1.7,.39-3.21,.98-4.53,1.77-.92,.56-1.66,1.16-2.25,1.78l-.33-.06c.82-1,1.26-2.21,1.26-3.54,0-1.52-.57-2.89-1.64-3.96-1.07-1.07-2.44-1.64-3.96-1.64s-2.89,.57-3.96,1.64c-1.07,1.07-1.64,2.44-1.64,3.96,0,1.36,.45,2.6,1.32,3.61-.81,.24-1.55,.55-2.23,.93-2.62,1.49-3.16,3.53-3.16,4.97v4.73H54.47v-4.73c0-1.44-.54-3.47-3.09-4.96-.68-.4-1.44-.72-2.28-.96,.86-1.01,1.31-2.25,1.31-3.6,0-1.52-.57-2.89-1.64-3.96-1.07-1.07-2.44-1.64-3.96-1.64s-2.89,.57-3.96,1.64c-1.07,1.07-1.64,2.44-1.64,3.96,0,1.33,.43,2.54,1.26,3.55l-.32,.06c-.58-.62-1.31-1.22-2.23-1.78-1.31-.79-2.82-1.39-4.53-1.77,.14-.13,.28-.26,.42-.4,1.55-1.58,2.34-3.51,2.34-5.76s-.79-4.23-2.35-5.79c-1.56-1.56-3.51-2.35-5.79-2.35h0Z"/>
    </g>
    <path d="M13.32,26.47c-.3,.15-.61,.18-.95,.07-.34-.11-.58-.31-.74-.6L4.34,11.88c-.15-.3-.18-.61-.07-.95,.11-.34,.31-.58,.6-.74L13.01,5.97c.3-.15,.61-.18,.95-.07,.34,.11,.58,.31,.74,.6l7.3,14.06c.15,.3,.18,.61,.07,.95-.11,.34-.31,.58-.6,.74l-8.14,4.22Zm-1.32-3.45l.79,1.51,7.4-3.84-.79-1.51-7.4,3.84Zm4.36-.66c.15-.08,.24-.19,.29-.33,.05-.14,.03-.29-.04-.44s-.19-.24-.33-.29c-.14-.05-.29-.03-.44,.04s-.24,.19-.29,.33c-.05,.14-.03,.29,.04,.44s.19,.24,.33,.29c.14,.05,.29,.03,.44-.04Zm-4.88-.35l7.4-3.84-4.54-8.75-7.4,3.84,4.54,8.75ZM6.41,12.25l7.4-3.84-.26-.5-7.4,3.84,.26,.5Zm5.59,10.77l.79,1.51-.79-1.51ZM6.41,12.25l-.26-.5,.26,.5Z"/>
    <path d="M26.33,18.21c-.21-.08-.36-.23-.43-.47s-.06-.49,.04-.77,.26-.49,.46-.62,.42-.16,.63-.08l20.32,7.43c.21,.08,.36,.23,.43,.47s.06,.49-.04,.77-.26,.49-.46,.62-.42,.16-.63,.08l-20.32-7.43Zm2.99-2.79c-.4-.15-.69-.42-.88-.83-.19-.41-.21-.81-.07-1.2L32.72,1.5c.15-.4,.42-.69,.83-.88,.41-.19,.81-.21,1.2-.07l16.85,6.16c.4,.15,.69,.42,.88,.83,.19,.41,.21,.81,.07,1.2l-4.35,11.89c-.15,.4-.42,.69-.83,.88-.41,.19-.81,.21-1.2,.07l-16.85-6.16Zm1.21-1.67l15.79,5.77,4.08-11.14-15.79-5.77-4.08,11.14Z"/>
    <g>
      <rect class="cls-1" x="34.53" y="2.67" width="11.87" height="16.81" transform="translate(16.17 45.27) rotate(-69.91)"/>
      <path d="M34.6,2.61l15.79,5.77-4.08,11.14-15.79-5.77,4.08-11.14m-1.21-2.61l-.7,1.91-4.08,11.14-.7,1.91,1.91,.7,15.79,5.77,1.91,.7,.7-1.91,4.08-11.14,.7-1.91-1.91-.7L35.3,.7l-1.91-.7h0Z"/>
    </g>
  </g>
</svg>