<?xml version="1.0" encoding="UTF-8"?>
<svg id="_層_1" data-name="圖層 1" xmlns="http://www.w3.org/2000/svg" width="56" height="56" viewBox="0 0 56 56">
  <defs>
    <style>
      .cls-1 {
        fill: #fff;
      }
    </style>
  </defs>
  <g>
    <path d="M49.98,37.31h-7.97c-.28,0-.51-.23-.51-.51,0-1.88-.37-3.27-1.11-4.13-.76-.89-1.7-1.53-2.8-1.91l-17.31-6.5H0v25.43H13.41v-3.34c0-.16,.08-.31,.2-.41,.09-.07,.2-.1,.31-.1,.05,0,.09,0,.14,.02l21.15,6.07,20.79-6.37v-1.27c0-2.23-.59-3.98-1.75-5.18-1.17-1.21-2.57-1.8-4.27-1.8ZM10.37,46.21c0,.28-.23,.51-.51,.51H3.48c-.28,0-.51-.23-.51-.51V27.66c0-.28,.23-.51,.51-.51h6.39c.28,0,.51,.23,.51,.51v18.55Zm42.16-2.67l-17.45,5.29s-.1,.02-.15,.02-.1,0-.14-.02l-21.02-6.18c-.22-.06-.37-.26-.37-.49v-14.49c0-.28,.23-.51,.51-.51h5.77c.06,0,.12,.01,.18,.03l16.69,6.32c.65,.29,1.11,.76,1.39,1.41,.26,.59,.39,1.22,.39,1.89,0,.28-.23,.51-.51,.51-2.34,0-3.95-.07-4.95-.21-.98-.14-2.07-.38-3.23-.7l-4.64-1.57-1.08,2.88,5.18,1.56c.89,.27,1.91,.49,3.03,.67,1.11,.18,2.31,.27,3.56,.27h14.29c.71,0,1.32,.2,1.8,.6,.48,.4,.84,1.09,1.1,2.12,.07,.26-.09,.53-.35,.61Z"/>
    <rect class="cls-1" x="2.97" y="27.15" width="7.41" height="19.57" rx=".51" ry=".51"/>
    <path class="cls-1" d="M52.53,43.54l-17.45,5.29s-.1,.02-.15,.02-.1,0-.14-.02l-21.02-6.18c-.22-.06-.37-.26-.37-.49v-14.49c0-.28,.23-.51,.51-.51h5.77c.06,0,.12,.01,.18,.03l16.69,6.32c.65,.29,1.11,.76,1.39,1.41,.26,.59,.39,1.22,.39,1.89,0,.28-.23,.51-.51,.51-2.34,0-3.95-.07-4.95-.21-.98-.14-2.07-.38-3.23-.7l-4.64-1.57-1.08,2.88,5.18,1.56c.89,.27,1.91,.49,3.03,.67,1.11,.18,2.31,.27,3.56,.27h14.29c.71,0,1.32,.2,1.8,.6,.48,.4,.84,1.09,1.1,2.12,.07,.26-.09,.53-.35,.61Z"/>
  </g>
  <path class="cls-1" d="M11.2,13.49c0-3.42,2.14-5.47,4.3-5.47,1.15,0,1.83,.42,2.51,1.08l-.13-1.55v-3.48h3.27v14.61h-2.65l-.24-1.01h-.07c-.73,.73-1.74,1.26-2.72,1.26-2.6,0-4.26-2.07-4.26-5.45Zm6.68,1.9v-4.1c-.49-.46-1.06-.62-1.61-.62-.9,0-1.72,.84-1.72,2.76s.66,2.84,1.77,2.84c.62,0,1.12-.2,1.55-.88Zm5.44,.38c0-2.19,1.72-3.38,5.78-3.82-.07-.84-.51-1.34-1.57-1.34-.82,0-1.68,.33-2.72,.91l-1.13-2.14c1.37-.82,2.85-1.37,4.48-1.37,2.69,0,4.21,1.5,4.21,4.75v5.91h-2.65l-.24-1.04h-.07c-.86,.77-1.83,1.3-2.98,1.3-1.92,0-3.09-1.43-3.09-3.16Zm5.78-.18v-1.66c-2.03,.27-2.69,.86-2.69,1.59,0,.6,.44,.9,1.12,.9s1.1-.31,1.57-.82Zm5.78-.77v-4.01h-1.41v-2.41l1.59-.13,.37-2.74h2.71v2.74h2.45v2.54h-2.45v3.97c0,1.15,.55,1.61,1.32,1.61,.33,0,.69-.11,.95-.18l.51,2.34c-.55,.17-1.3,.38-2.36,.38-2.62,0-3.68-1.65-3.68-4.11Zm6.84,.95c0-2.19,1.72-3.38,5.78-3.82-.07-.84-.51-1.34-1.57-1.34-.82,0-1.68,.33-2.72,.91l-1.13-2.14c1.37-.82,2.85-1.37,4.48-1.37,2.69,0,4.21,1.5,4.21,4.75v5.91h-2.65l-.24-1.04h-.07c-.86,.77-1.83,1.3-2.98,1.3-1.92,0-3.09-1.43-3.09-3.16Zm5.78-.18v-1.66c-2.03,.27-2.69,.86-2.69,1.59,0,.6,.44,.9,1.12,.9s1.1-.31,1.57-.82Z"/>
</svg>