<svg xmlns="http://www.w3.org/2000/svg" width="90" height="100" viewBox="0 0 90 100">
  <defs>
    <style>
      .cls-1 {
        fill: #fff;
      }
    </style>
  </defs>
  <g id="圖層_1" data-name="圖層 1">
    <g>
      <g>
        <path class="cls-1" d="M12.89,50A19.37,19.37,0,0,1,32.23,30.63l7.42,0v-13c-5.93,0-7.59-.4-13.69.73a1.29,1.29,0,0,1-.19,0,32.33,32.33,0,0,0,6.49,64H64.84V17.62H52.25V69.38l-20-.08A19.36,19.36,0,0,1,12.89,50Z"/>
        <path class="cls-1" d="M25.24,50.32c0,4.13,3.09,6.87,7.22,6.87h7.19V42.8h-6.9A7.53,7.53,0,0,0,25.24,50.32Z"/>
        <rect class="cls-1" x="71.93" y="41" width="14.5" height="41.46"/>
      </g>
      <polygon class="cls-1" points="72.06 17.61 84.62 17.61 84.62 21.25 75.63 21.25 75.63 28.41 84.62 28.41 84.62 31.98 72.06 31.98 72.06 17.61"/>
      <polygon class="cls-1" points="90 22.91 77.44 22.91 77.44 26.55 86.43 26.55 86.43 33.71 77.44 33.71 77.44 37.28 90 37.28 90 22.91"/>
    </g>
  </g>
</svg>
