<?xml version="1.0" encoding="UTF-8"?>
<svg id="_層_1" xmlns="http://www.w3.org/2000/svg" width="151.6mm" height="411.7mm" version="1.1" viewBox="0 0 429.8 1167.1">
  <!-- Generator: Adobe Illustrator 29.0.0, SVG Export Plug-In . SVG Version: 2.1.0 Build 186)  -->
  <defs>
    <style>
      .st0 {
        stroke-width: 1px;
      }

      .st0, .st1, .st2 {
        fill: none;
        stroke: #4d4d4d;
        stroke-miterlimit: 10;
      }

      .st1 {
        stroke-dasharray: 3 5;
      }

      .st3 {
        fill: #44b3c1;
      }

      .st4 {
        fill: #fff;
      }

      .st5 {
        fill: #42ba92;
      }

      .st6 {
        fill: #6161bc;
      }

      .st7 {
        fill: #465f97;
      }

      .st8 {
        fill: #ffb31a;
      }

      .st9 {
        fill: #4e6dae;
      }
    </style>
  </defs>
  <rect class="st4" x="-8" y="-6.6" width="444.3" height="1182.6"/>
  <path class="st0" d="M180.4,797.8v-465.4c0-4.7,4.5-8.5,10-8.5h9"/>
  <path class="st0" d="M199.4,946.1h-9c-5.5,0-10-3.8-10-8.5v-139.8"/>
  <g>
    <line class="st2" x1="199.4" y1="1090.8" x2="197.9" y2="1090.8"/>
    <path class="st1" d="M192.9,1090.8h-2.5c-5.5,0-10-3.8-10-8.5v-140.7"/>
    <line class="st2" x1="180.4" y1="939" x2="180.4" y2="937.5"/>
  </g>
  <g>
    <line class="st2" x1="183.7" y1="165.2" x2="156.2" y2="165.2"/>
    <path class="st2" d="M156.5,39.8l.2,644.6c0,5.5,4.5,10,10,10h13.7"/>
    <path class="st2" d="M78.7,111.2l.7-22.6c.1-4.3,4.3-7.8,9.3-7.8h133.9c5.2,0,9.3,3.6,9.3,8v22.4"/>
    <rect class="st9" x="23.7" y="95.5" width="110" height="31.7" rx="5" ry="5"/>
    <rect class="st7" x="177" y="149.2" width="110" height="32" rx="5" ry="5" transform="translate(464 330.3) rotate(-180)"/>
    <rect class="st9" x="177" y="95.2" width="110" height="31.7" rx="5" ry="5"/>
    <g>
      <path class="st4" d="M55.5,106.8c-.5,3-1.2,5.4-2.4,7.4,1,1.5,2.2,2.6,3.7,3.4-.3.3-.7.8-.9,1.1-1.5-.8-2.7-1.9-3.6-3.3-1,1.4-2.4,2.5-4.1,3.3-.1-.3-.5-.9-.8-1.2,1.8-.8,3.1-2,4.1-3.4-.8-1.5-1.4-3.2-1.9-5.1-.4.7-.8,1.4-1.2,2-.2-.2-.8-.7-1.1-.9h0c0-.1-2-.1-2-.1v4.6l3.1-.7v1.2c-2.8.7-6,1.5-8.2,2l-.3-1.3,1.1-.2v-8h1.2v7.7l1.8-.4v-10h-3.8v-1.3h8.2v1.3h-3.1v3.9h2.4v.6c1.2-1.9,2-4.4,2.5-7.1l1.3.2c-.2,1.1-.5,2.1-.8,3.1h5.6v1.3h-1.2ZM50.5,107.1c.4,2.1,1,4.1,1.8,5.7.9-1.7,1.4-3.7,1.8-6h-3.5v.3Z"/>
      <path class="st4" d="M74.9,105.2c-.5,1.2-1.2,2.2-2.1,3.1,1.2.7,2.5,1.3,3.9,1.6-.3.3-.7.8-.9,1.1-1.5-.4-2.9-1.1-4.1-1.9-1.2.8-2.5,1.4-4,1.9,0-.2-.3-.5-.5-.7-.3,1.1-.7,2.1-1.1,2.8l-.9-.5c.4-.8.7-1.9,1-2.9h-1.7v7.4c0,.7-.1,1-.6,1.2-.5.2-1.2.2-2.2.2,0-.3-.2-.9-.4-1.2.8,0,1.5,0,1.7,0,.2,0,.3,0,.3-.3v-5.7c-.7,1.7-1.6,3.3-2.6,4.4-.1-.4-.5-.9-.7-1.3,1.1-1.1,2.2-3,2.9-4.8h-2.7v-1.2h4.8c-1-.8-2.6-1.8-4-2.4l.8-.9c.6.3,1.2.5,1.8.9.7-.5,1.4-1.2,1.9-1.8h-5.1v-1.2h6.3c0,0,.9.5.9.5-.7,1.1-1.9,2.2-2.9,3.1.6.4,1.1.7,1.5,1.1l-.6.7h1.4c0,0,.8.3.8.3,0,.3-.2.6-.3,1,1.2-.4,2.3-.8,3.3-1.4-.7-.6-1.4-1.4-1.9-2.2-.5.5-1,1-1.4,1.4-.2-.2-.7-.7-1-.9,1.4-1.1,2.8-2.7,3.5-4.4l1.3.3c-.2.5-.5,1-.8,1.5h6v1.1h-1.4ZM74.6,112.2h1.3s0,.4,0,.6c-.3,3.3-.7,4.7-1.2,5.2s-.7.4-1.2.5c-.4,0-1.2,0-2,0,0-.3-.1-.8-.4-1.2.8,0,1.5,0,1.9,0s.5,0,.6-.2c.4-.3.6-1.4.9-3.9h-3c-.6,2.3-1.9,4.2-4.8,5.4-.2-.3-.6-.8-.8-1.1,2.5-.9,3.7-2.4,4.2-4.3h-2.8v-1.1h3.1c.1-.6.2-1.2.2-1.8h1.4c0,.6-.1,1.2-.2,1.8h2.8ZM69.7,105.2c.5.9,1.2,1.7,2,2.3.7-.6,1.3-1.4,1.7-2.3h-3.8Z"/>
      <path class="st4" d="M85.7,113.7h-5.7v-1.3h5.7v1.3ZM85.2,106.3h-4.7v-1.3h4.7v1.3ZM90.5,108.8c0,.3,0,.5,0,.8.8,3.8,2.6,6.7,5.9,7.8-.3.3-.7.8-.9,1.2-2.7-1.1-4.4-3.2-5.4-6.1-.6,2.2-2.1,4.5-5.5,6.3-.2-.3-.7-.8-1-1,5.2-2.6,5.6-6.4,5.6-8.9v-1.4h1.4v1.4ZM87.6,106.6c-.6,1.5-1.2,2.8-1.9,3.8-.3-.2-1-.6-1.3-.8,1.4-1.7,2.4-4.6,2.9-7.4l1.4.3c-.2,1-.4,1.9-.7,2.8h6.8c0,0,1,.5,1,.5-.5,1.7-1.3,3.6-1.9,4.9-.3-.2-.8-.4-1.1-.6.4-.8,1-2.2,1.3-3.4h-6.5Z"/>
      <path class="st4" d="M115.1,112.9c-1.1.8-2.6,1.7-3.9,2.4,1.4,1,3.1,1.7,5.1,2.1-.3.3-.6.8-.8,1.2-4.1-.9-6.9-3.1-8.5-6.5h-2.9v4.8l4.9-1.2c0,.3,0,.9,0,1.2-5,1.3-5.9,1.5-6.3,1.7h0c-.1-.3-.4-.9-.6-1.3.4-.2.9-.6.9-1.3v-4h-2.9v-1.2h3.2v-7.9h11.1v1.1h-9.7v1.5h9.2v1.1h-9.2v1.5h9.2v1.1h-9.2v1.5h11.5v1.2h-7.5c.5,1,1.1,1.8,1.9,2.5,1.3-.7,2.8-1.6,3.7-2.4l1.1.7Z"/>
    </g>
    <g>
      <path class="st4" d="M210.1,171.5v1.3h-15.9v-1.3h7.2v-4.4h-5.5v-1.3h5.5v-3.9h-6.4v-1.3h7.9c-.7-.8-2-2-3.1-2.8l1.1-.8c1.2.8,2.6,2.1,3.3,2.9l-.8.6h5.8v1.3h-6.4v3.9h5.7v1.3h-5.7v4.4h7.3Z"/>
      <path class="st4" d="M219.5,157.4c-.5,1.3-1.2,2.6-1.9,3.8v12.1h-1.3v-10.1c-.7.9-1.4,1.7-2.1,2.4-.1-.3-.6-1-.8-1.3,1.9-1.7,3.8-4.5,4.9-7.3l1.3.4ZM225.1,165.9v5.5h4.6v1.3h-10.6v-1.3h4.6v-5.5h-5.1v-1.3h5.1v-4.7h-4v-1.3h9.6v1.3h-4.3v4.7h5v1.3h-5Z"/>
      <path class="st4" d="M238.7,167.8c-.2-.5-.8-1.5-1.2-2.4v8h-1.3v-7.5c-.6,1.7-1.4,3.3-2.2,4.3-.1-.4-.5-1-.7-1.3,1-1.3,2.1-3.6,2.7-5.7h-2.3v-1.3h2.5v-2.9c-.6.1-1.3.3-1.9.4,0-.3-.3-.8-.4-1.1,1.7-.3,3.6-.8,4.8-1.4l.8,1.1c-.6.3-1.3.5-2.1.7v3.2h2.1v1.3h-2.1v.4c.5.6,1.8,2.5,2.1,3l-.8,1.1ZM248.7,168.8c-.2-1.5-.9-3.7-1.7-5.3-.9,2.2-2,4.2-3.3,5.9v1.8c0,.7.1.8.8.8h2.1c.6,0,.7-.5.8-2.7.3.3.8.5,1.2.5-.1,2.6-.5,3.3-1.8,3.3h-2.4c-1.5,0-1.9-.4-1.9-2v-.2c-.7.8-1.5,1.5-2.3,2.1-.2-.3-.8-.7-1.1-.9,1.3-.9,2.4-2,3.4-3.2v-8.2h1.3v6.4c1.7-2.6,2.9-5.7,3.9-9.2l1.3.3c-.5,1.8-1.1,3.6-1.8,5.2l1.1-.3c.8,1.7,1.5,3.9,1.7,5.3l-1.2.4ZM239.1,168.2c.7-1.4,1.1-3.7,1.3-5.5l1,.2c-.2,1.8-.6,4.3-1.3,5.7l-1-.4ZM245.4,160.5c-.7-.8-2.2-1.9-3.4-2.7l.8-.9c1.2.7,2.7,1.8,3.5,2.6l-.8,1Z"/>
      <path class="st4" d="M269.4,166v1h-15.9v-1h7.2v-1.1h-6v-.9h6v-.9h-5.5v-.9h5.5v-1.1h-7.2v-1h7.2v-1h-5.3v-.9h5.3v-1.3h1.3v1.3h5.1v1.9h2.1v1h-2.1v2h-5.1v.9h6.1v.9h-6.1v1.1h7.4ZM255.8,167.9h11.5v5.6h-1.3v-.6h-8.9v.6h-1.3v-5.6ZM257.1,168.8v1.1h8.9v-1.1h-8.9ZM266,171.9v-1.1h-8.9v1.1h8.9ZM262,160.1h3.8v-1h-3.8v1ZM262,162.2h3.8v-1.1h-3.8v1.1Z"/>
    </g>
    <g>
      <path class="st4" d="M209,108.8h-1.3v-2.7h-12.3v2.7h-1.3v-3.9h2.9c-.3-.6-.9-1.5-1.4-2.1l1.2-.5c.6.6,1.2,1.5,1.5,2.1l-1.1.5h3.8v-2.8h1.4v2.8h6.7v3.9ZM207.9,116.5c0,.7-.1,1.1-.7,1.3-.6.2-1.5.2-2.8.2,0-.4-.3-.9-.5-1.2,1.1,0,2,0,2.3,0,.3,0,.4,0,.4-.3v-2.5h-4.2v4.7h-1.4v-4.7h-4.4v3.9h-1.3v-5.1h5.8v-1.5h-4.2v-3.8h9.4v3.8h-3.9v1.5h5.5v3.8ZM198.1,110.2h6.8v-1.8h-6.8v1.8ZM207.5,102.8c-.6.8-1.3,1.6-1.8,2.2l-1.1-.5c.5-.6,1.2-1.5,1.5-2.2l1.4.5Z"/>
      <path class="st4" d="M227.9,105.2c-.5,1.2-1.2,2.2-2.1,3.1,1.2.7,2.5,1.3,3.9,1.6-.3.3-.7.8-.9,1.1-1.5-.4-2.9-1.1-4.1-1.9-1.2.8-2.5,1.4-4,1.9,0-.2-.3-.5-.5-.7-.3,1.1-.7,2.1-1.1,2.8l-.9-.5c.4-.8.7-1.9,1-2.9h-1.7v7.4c0,.7-.1,1-.6,1.2-.5.2-1.2.2-2.3.2,0-.3-.2-.9-.4-1.2.8,0,1.5,0,1.7,0,.2,0,.3,0,.3-.3v-5.7c-.7,1.7-1.6,3.3-2.6,4.4-.1-.4-.5-.9-.7-1.3,1.1-1.1,2.2-3,2.9-4.8h-2.7v-1.2h4.8c-1-.8-2.6-1.8-4-2.4l.8-.9c.6.3,1.2.5,1.8.9.7-.5,1.4-1.2,1.9-1.8h-5.1v-1.2h6.3c0,0,.9.5.9.5-.7,1.1-1.9,2.2-2.9,3.1.6.4,1.1.7,1.5,1.1l-.6.7h1.4c0,0,.8.3.8.3,0,.3-.2.6-.3,1,1.2-.4,2.3-.8,3.3-1.4-.7-.6-1.4-1.4-1.9-2.2-.5.5-1,1-1.4,1.4-.2-.2-.7-.7-1-.9,1.4-1.1,2.8-2.7,3.5-4.4l1.3.3c-.2.5-.5,1-.8,1.5h6v1.1h-1.4ZM227.5,112.2h1.4s0,.4,0,.6c-.3,3.3-.7,4.7-1.2,5.2-.3.3-.7.4-1.2.5-.4,0-1.2,0-2,0,0-.3-.1-.8-.4-1.2.8,0,1.5,0,1.9,0s.5,0,.6-.2c.4-.3.6-1.4.9-3.9h-3c-.6,2.3-1.9,4.2-4.8,5.4-.2-.3-.6-.8-.8-1.1,2.5-.9,3.7-2.4,4.2-4.3h-2.8v-1.1h3.1c.1-.6.2-1.2.2-1.8h1.4c0,.6-.1,1.2-.2,1.8h2.8ZM222.6,105.2c.5.9,1.2,1.7,2,2.3.7-.6,1.3-1.4,1.7-2.3h-3.8Z"/>
      <path class="st4" d="M238.6,113.7h-5.7v-1.3h5.7v1.3ZM238.1,106.3h-4.7v-1.3h4.7v1.3ZM243.4,108.8c0,.3,0,.5,0,.8.8,3.8,2.6,6.7,5.9,7.8-.3.3-.7.8-.9,1.2-2.7-1.1-4.4-3.2-5.4-6.1-.6,2.2-2.1,4.5-5.5,6.3-.2-.3-.7-.8-1-1,5.2-2.6,5.6-6.4,5.6-8.9v-1.4h1.4v1.4ZM240.5,106.6c-.6,1.5-1.2,2.8-1.9,3.8-.3-.2-1-.6-1.3-.8,1.4-1.7,2.4-4.6,2.9-7.4l1.4.3c-.2,1-.4,1.9-.7,2.8h6.8c0,0,1,.5,1,.5-.5,1.7-1.3,3.6-1.9,4.9-.3-.2-.8-.4-1.1-.6.4-.8,1-2.2,1.3-3.4h-6.5Z"/>
      <path class="st4" d="M268,112.9c-1.1.8-2.6,1.7-3.9,2.4,1.4,1,3.1,1.7,5.1,2.1-.3.3-.6.8-.8,1.2-4.1-.9-6.9-3.1-8.5-6.5h-2.9v4.8l4.9-1.2c0,.3,0,.9,0,1.2-5,1.3-5.9,1.5-6.3,1.7h0c-.1-.3-.4-.9-.6-1.3.4-.2.9-.6.9-1.3v-4h-2.9v-1.2h3.2v-7.9h11.1v1.1h-9.7v1.5h9.2v1.1h-9.2v1.5h9.2v1.1h-9.2v1.5h11.5v1.2h-7.5c.5,1,1.1,1.8,1.9,2.5,1.3-.7,2.8-1.6,3.7-2.4l1.1.7Z"/>
    </g>
    <rect class="st6" x="107.2" y="23.4" width="97.7" height="32" rx="5" ry="5"/>
    <g>
      <path class="st4" d="M136.6,34c-.4,1-.9,2.3-1.4,3.2h2.6v1.2h-9.4v-1.2h5.5c.5-1,1-2.5,1.3-3.5l1.3.3ZM137.4,33.6h-8.4v-1.2h3.7c-.2-.6-.5-1.3-.7-1.9l1.2-.3c.4.7.7,1.6,1,2.2h3.3v1.2ZM129.5,40h7.5v6.4h-1.3v-.7h-4.9v.9h-1.3v-6.5ZM131.2,37.1c-.2-.8-.6-2.1-1.1-3.1l1.2-.3c.5.9,1,2.2,1.2,3l-1.2.3ZM130.8,41.2v3.3h4.9v-3.3h-4.9ZM144.5,31.7c-.6,1.6-1.5,3.7-2.2,5.3,1.6,1.7,2,3.1,2,4.3s-.2,1.9-.8,2.3c-.3.2-.7.3-1.1.4-.5,0-1,0-1.5,0,0-.4-.1-.9-.4-1.3.5,0,1,0,1.4,0,.3,0,.5,0,.7-.2.4-.2.5-.8.5-1.4,0-1.1-.5-2.4-2.1-4.1.7-1.5,1.4-3.4,1.9-4.8h-2.9v14.2h-1.2v-15.4h4.8c0,0,.9.5.9.5Z"/>
      <path class="st4" d="M183.3,40.9c-1.1.8-2.6,1.7-3.9,2.4,1.4,1,3.1,1.7,5.1,2.1-.3.3-.6.8-.8,1.2-4.1-.9-6.9-3.1-8.5-6.5h-2.9v4.8l4.9-1.2c0,.3,0,.9,0,1.2-5,1.3-5.9,1.5-6.3,1.7h0c-.1-.3-.4-.9-.6-1.3.4-.2.9-.6.9-1.3v-4h-2.9v-1.2h3.2v-7.9h11.1v1.1h-9.7v1.5h9.2v1.1h-9.2v1.5h9.2v1.1h-9.2v1.5h11.5v1.2h-7.5c.5,1,1.1,1.8,1.9,2.5,1.3-.7,2.8-1.6,3.7-2.4l1.1.7Z"/>
    </g>
  </g>
  <g>
    <rect class="st3" x="202.7" y="208" width="32" height="231.3" rx="5" ry="5"/>
    <g>
      <path class="st4" d="M217.1,298.4c-1.3,1-3.7,1.9-5.5,2.3-.2-.3-.5-.8-.8-1,1.9-.3,4.1-1,5.3-1.8l1,.5ZM226.5,295.9v1.1h-7.2v4.3h-1.3v-4.3h-7.1v-1.1h7.1v-1.4h-5.4v-1h5.4v-1.3h-6.3v-1.1h3.9c-.2-.5-.5-1.2-.9-1.7l1-.3h-4.6v-1.1h2.9c-.3-.7-.9-1.8-1.4-2.6l1.1-.4c.6.8,1.3,1.9,1.5,2.6l-.9.4h2.2v-3.2h1.3v3.2h2.1v-3.2h1.3v3.2h2.2l-.7-.2c.5-.7,1.1-1.9,1.4-2.7l1.4.4c-.5.9-1.1,1.9-1.6,2.6h2.8v1.1h-4.7l1.2.3c-.4.6-.8,1.2-1.2,1.7h4.1v1.1h-6.5v1.3h5.6v1h-5.6v1.4h7.2ZM215.9,289.1c.4.6.8,1.3,1,1.8l-.7.2h5l-.6-.2c.4-.5.8-1.3,1.1-1.8h-5.6ZM221.3,297.8c1.7.6,4,1.4,5.2,2l-.8.8c-1.2-.6-3.5-1.5-5.2-2.1l.8-.7Z"/>
      <path class="st4" d="M225.3,307.7c-.5,1.2-1.2,2.3-2.1,3.1,1.2.7,2.5,1.3,3.9,1.6-.3.3-.7.8-.9,1.1-1.5-.4-2.9-1.1-4.1-1.9-1.2.8-2.5,1.4-4,1.9,0-.2-.3-.5-.4-.7-.3,1.1-.7,2.1-1.1,2.8l-.9-.5c.4-.8.7-1.9,1-2.9h-1.7v7.4c0,.7-.1,1-.6,1.2-.5.2-1.2.2-2.3.2,0-.3-.2-.9-.4-1.2.8,0,1.5,0,1.7,0,.2,0,.3,0,.3-.3v-5.7c-.7,1.7-1.6,3.3-2.6,4.4-.1-.4-.5-.9-.7-1.3,1.1-1.1,2.2-3,2.9-4.8h-2.7v-1.2h4.8c-1-.8-2.6-1.8-4-2.4l.8-.9c.6.3,1.2.5,1.8.9.7-.5,1.4-1.2,1.9-1.8h-5.1v-1.2h6.3c0,0,.9.5.9.5-.7,1.1-1.9,2.2-2.9,3.1.6.4,1.1.7,1.5,1.1l-.6.7h1.4c0,0,.8.3.8.3,0,.3-.2.6-.3,1,1.2-.4,2.3-.8,3.3-1.4-.7-.6-1.4-1.4-1.9-2.2-.5.5-1,1-1.4,1.4-.2-.2-.7-.7-1-.9,1.4-1.1,2.8-2.7,3.5-4.4l1.3.3c-.2.5-.5,1-.8,1.5h6v1.1h-1.4ZM225,314.6h1.3s0,.4,0,.6c-.3,3.3-.7,4.7-1.2,5.2-.3.3-.7.4-1.2.5-.4,0-1.2,0-2,0,0-.3-.1-.8-.4-1.2.8,0,1.5,0,1.9,0s.5,0,.6-.2c.4-.3.6-1.4.9-3.9h-3c-.6,2.3-1.9,4.2-4.8,5.4-.2-.3-.6-.8-.8-1.1,2.5-.9,3.7-2.4,4.2-4.3h-2.8v-1.1h3.1c.1-.6.2-1.2.2-1.8h1.3c0,.6-.1,1.2-.2,1.8h2.8ZM220.1,307.7c.5.9,1.2,1.7,2,2.3.7-.6,1.3-1.4,1.7-2.3h-3.8Z"/>
      <path class="st4" d="M226.6,338.3h-7.3v2.5h-1.3v-2.5h-7.1v-1.2h7.1v-1.4h-5.4v-6.3h12.4v6.3h-5.7v1.4h7.3v1.2ZM218.1,328.7h-5.9v-3.5h5.9v3.5ZM216.8,326h-3.5v1.7h3.5v-1.7ZM213.9,332.1h4.1v-1.5h-4.1v1.5ZM217.9,334.7v-1.6h-4.1v1.6h4.1ZM223.6,330.6h-4.3v1.5h4.3v-1.5ZM223.6,333.2h-4.3v1.6h4.3v-1.6ZM225.4,328.7h-6v-3.5h6v3.5ZM224.2,326h-3.5v1.7h3.5v-1.7Z"/>
      <path class="st4" d="M216.1,344.7c-.5,1.3-1.1,2.6-1.8,3.8v12.2h-1.3v-10.1c-.6.8-1.2,1.5-1.8,2.2-.1-.3-.5-1-.8-1.3,1.8-1.7,3.4-4.4,4.4-7.1l1.3.4ZM226.8,358.6v1.3h-11.2v-1.3h6.3c.6-2.4,1.4-6.2,1.7-8.9l1.4.3c-.5,2.8-1.2,6.3-1.9,8.7h3.7ZM226,348.8h-9.7v-1.3h9.7v1.3ZM218.7,357.8c-.1-1.9-.7-5.2-1.2-7.7l1.2-.3c.6,2.5,1.1,5.7,1.3,7.6l-1.3.4ZM220.8,347.3c-.1-.8-.5-2-.8-2.9l1.3-.3c.3.9.7,2.1.9,2.8l-1.3.4Z"/>
    </g>
    <g>
      <g>
        <path d="M253.7,265.9h-8.6v-1.1h2.4c.1-.4.3-.9.4-1.5h-1.9v-1.1h2.2c.1-.5.2-1,.3-1.4h1.2c0,.5-.2,1-.3,1.4h3.1v2.5h1.3v1.1ZM250.7,275v2.2h-1.3v-2.2h-3.8c.2-.7.4-1.8.5-2.7h-.9v-1h4.2v-.9h-3.4v-3.5h6.7v3.5h-2v.9h2.5v1h-2.5v1.7h2.7v1.1h-2.7ZM249.5,274v-1.7h-2.1c0,.5-.2,1.1-.3,1.7h2.4ZM247.3,269.4h4.1v-1.6h-4.1v1.6ZM249.1,263.4c-.1.5-.3,1-.4,1.5h2.5v-1.5h-2.1ZM260.9,262.7c-.2,9.7-.4,12.7-1,13.6-.3.5-.7.6-1.2.7-.5,0-1.3,0-2,0,0-.4-.1-.9-.4-1.2.8,0,1.5,0,1.9,0s.4,0,.6-.3c.5-.6.6-3.7.8-12.4h-1.9c-.1,4.9-.5,10.8-4.1,14-.2-.3-.6-.6-.9-.8,1.7-1.5,2.7-3.7,3.2-6.1-.6-1-1.6-2.4-2.4-3.5l.9-.5c.6.7,1.2,1.6,1.8,2.4.3-1.8.3-3.7.3-5.4h-2.7v-1.2h7v.7Z"/>
        <path d="M262.8,268.9c.5-1.2.8-3.2.9-4.6h1c0,1.6-.4,3.7-.9,5l-1-.4ZM265.4,260.9h1.3v16.4h-1.3v-16.4ZM267.8,263.8c.5,1,1.1,2.3,1.3,3l-1,.5c-.2-.8-.7-2.1-1.2-3.1l.9-.4ZM279.2,275.4v1.3h-11v-1.3h5.1v-4.5h-3.8v-1.2h3.8v-3.7h-2.6c-.4,1.1-.8,2-1.3,2.8-.3-.2-.9-.5-1.2-.6,1-1.6,1.8-4,2.2-6.4l1.3.2c-.2.9-.4,1.9-.6,2.8h2.3v-3.7h1.3v3.7h4.1v1.3h-4.1v3.7h3.7v1.2h-3.7v4.5h4.5Z"/>
        <path d="M286.2,267.2c-.3,2.6-.8,4.6-1.5,6.3,1.7,1.8,4.2,2.2,7.3,2.2s4.6,0,5.5,0c-.2.3-.4.9-.5,1.2h-5c-3.3,0-5.9-.5-7.8-2.3-.6,1.1-1.4,2-2.2,2.6-.2-.3-.7-.7-1-.9.9-.6,1.7-1.6,2.4-2.7-.7-.9-1.2-2-1.6-3.5l1-.4c.3,1.1.7,1.9,1.2,2.7.5-1.2.8-2.6,1.1-4.2h-2.9c.8-1.3,1.8-3.3,2.6-5h-3.2v-1.2h5.1c-.8,1.6-1.7,3.5-2.5,5h1.5s.8.2.8.2ZM290.8,263.5h-3.5v-1.1h3.5v-1.5h1.3v1.5h3.9v2.4h1.2v1.1h-1.2v2.4h-3.9v1.4h4.2v1h-4.2v1.5h4.9v1.1h-4.9v1.8h-1.3v-1.8h-4.5v-1.1h4.5v-1.5h-3.7v-1h3.7v-1.4h-3.6v-1.1h3.6v-1.3h-4.6v-1.1h4.6v-1.3ZM292,263.5v1.3h2.7v-1.3h-2.7ZM294.7,265.9h-2.7v1.3h2.7v-1.3Z"/>
        <path d="M305.9,265.1h-6.8v-1.1h6.8v1.1ZM314.5,269.1c-.7,2.2-1.8,3.9-3.2,5.2,1.2.8,2.6,1.4,4.2,1.8-.3.3-.6.8-.8,1.2-1.7-.5-3.2-1.2-4.5-2.1-1.3,1-2.8,1.7-4.5,2.2-.1-.3-.4-.8-.6-1.1h-4.1v.8h-1.2v-6h5.3v5.1c1.4-.4,2.8-1,4-1.8-1.1-1.1-2-2.4-2.7-4l.8-.3h-1.6v-1.3h7.9c0,0,.8.3.8.3ZM305.2,266.3v1.1h-5.3v-1.1h5.3ZM299.9,268.7h5.3v1.1h-5.3v-1.1ZM304,272.2h-3v3h3v-3ZM302.4,263.8c-.3-.6-.8-1.7-1.4-2.4l1-.5c.5.7,1.1,1.7,1.4,2.3l-1.1.6ZM308.7,263.6c0,1.6-.5,3.5-2.6,4.8-.2-.3-.6-.8-.9-1,1.9-1.1,2.2-2.6,2.2-3.9v-2h5.5v4.2c0,.5,0,.7.3.7h1.1c.2,0,.6,0,.8,0,0,.3,0,.8,0,1.2-.2,0-.5,0-.9,0h-1.2c-1.2,0-1.4-.5-1.4-1.9v-2.9h-3v.8ZM307.7,270.1c.6,1.3,1.5,2.5,2.5,3.4,1.1-.9,1.9-2.1,2.5-3.4h-5.1Z"/>
        <path d="M332.2,275.4c0,.9-.2,1.4-.8,1.6-.6.2-1.7.3-3.3.3,0-.4-.3-1.1-.5-1.4,1.2,0,2.5,0,2.8,0,.3,0,.4-.1.4-.5v-12h-12.9v-1.3h14.3v13.3ZM328.8,266.4h-10.8v-1.2h10.8v1.2ZM320.4,274.1v1.3h-1.3v-7h8.4v5.7h-7.1ZM320.4,269.5v3.3h5.8v-3.3h-5.8Z"/>
      </g>
      <g>
        <path d="M250.2,302.2h-5.1v-1.1h5.1v1.1ZM251.7,311.5c-1.4.9-3.7,1.7-5.5,2.2-.2-.3-.7-.8-1-1,1.8-.4,4-1,5.3-1.7l1.2.5ZM249.8,299.4h-4.3v-1h4.3v1ZM247.5,303.6h11.7v7.2h-11.7v-7.2ZM248.8,305.7h9v-1.2h-9v1.2ZM248.8,307.8h9v-1.2h-9v1.2ZM248.8,309.9h9v-1.3h-9v1.3ZM253.1,299.5c-.4.7-.9,1.3-1.4,1.8-.2-.2-.7-.5-1-.7.9-.8,1.7-2.1,2.1-3.4l1.2.3c-.1.3-.3.7-.4,1h6.2c0,0,.9.3.9.3-.5.9-1,2-1.5,2.6l-1.1-.4c.3-.4.6-.9.8-1.4h-2.9v.2c0,.2,0,.4,0,.6,1,1.1,2.9,1.8,5.3,2-.3.3-.6.7-.8,1.1-2.1-.3-3.8-1-4.9-2.1-.6.9-2,1.7-5.2,2.2-.1-.3-.5-.8-.7-1,4.7-.6,5.1-1.9,5.1-2.8v-.2h-1.9ZM255.8,310.9c1.9.6,4,1.4,5.3,1.9l-1.2.8c-1.2-.6-3.1-1.4-5-2l.9-.7Z"/>
        <path d="M265.9,305.1c-.7-.5-2-1.4-3-1.9l.8-.9c1,.5,2.3,1.3,3,1.8l-.8,1.1ZM267.1,307.7c-.7,1.9-1.7,4.1-2.6,5.8l-1.2-.7c.8-1.4,1.9-3.7,2.7-5.8l1,.7ZM266.8,300.4c-.7-.5-2-1.4-3-2.1l.8-.9c1,.6,2.3,1.4,3,1.9l-.8,1.1ZM269.6,303c0,3.1-.3,7.6-2.4,10.6-.2-.2-.8-.6-1.1-.7,2-2.9,2.2-6.9,2.2-9.9v-4.9h10.9v1.2h-9.6v3.7ZM272.4,308.9c-.6,1.3-1.5,2.8-2.3,3.7-.3-.2-.8-.5-1.1-.7.8-.9,1.6-2.1,2.1-3.3l1.2.3ZM275.1,307.6v4.7c0,.7-.1,1-.6,1.2-.5.2-1.2.2-2.4.2,0-.3-.2-.8-.4-1.2.9,0,1.7,0,1.9,0,.2,0,.3,0,.3-.3v-4.7h-3.2v-6.2h2.7c.2-.6.4-1.3.5-1.8l1.5.3c-.3.5-.5,1-.7,1.5h3.9v6.2h-3.4ZM271.8,304h5.5v-1.6h-5.5v1.6ZM271.8,306.6h5.5v-1.6h-5.5v1.6ZM277.5,308.5c.7,1.1,1.6,2.6,2.1,3.4l-1.2.5c-.4-.9-1.3-2.4-2-3.5l1.2-.5Z"/>
        <path d="M283.8,299.6c-.6.9-1.2,1.7-1.9,2.3-.2-.2-.6-.7-.9-.9,1.1-1,2.1-2.4,2.8-3.9l1.2.3c-.2.4-.3.7-.5,1.1h4.6v1.1h-3.4c.6.5,1.2,1.2,1.6,1.6l-.9.7c-.4-.5-1.1-1.2-1.7-1.8l.7-.5h-1.5ZM289.3,300.9c.3.4.6.9.7,1.4h6.6v2.9h-1.3v-1.9h-11.9v1.9h-1.3v-2.9h6.6c-.2-.4-.3-.8-.5-1.1l1.2-.3ZM285.3,309.3h10v4.4h-1.3v-.6h-8.7v.6h-1.3v-9.3h10.4v3.6h-9v1.2ZM285.3,305.5v1.5h7.7v-1.5h-7.7ZM285.3,310.3v1.7h8.7v-1.7h-8.7ZM297.3,298.6v1.1h-3.9c.6.5,1.4,1.2,1.9,1.7l-.9.8c-.4-.5-1.2-1.3-1.9-1.8l.8-.6h-2.1c-.4.6-.8,1.1-1.3,1.5-.2-.2-.7-.6-1-.8,1-.8,1.8-1.9,2.2-3.2l1.2.3c-.1.4-.3.8-.5,1.1h5.5Z"/>
        <path d="M304.8,310c-1.9.6-4,1.4-5.6,1.9l-.3-1.4c.7-.2,1.5-.5,2.4-.8v-4.8h-2.1v-1.3h2.1v-3.9h-2.2v-1.3h5.6v1.3h-2.1v3.9h1.8v1.3h-1.8v4.4l2-.6.2,1.3ZM315.5,311.9v1.2h-11.6v-1.2h5.5v-2.5h-4.1v-1.2h4.1v-2.1h-3.9v-8h9.1v8h-3.9v2.1h4.2v1.2h-4.2v2.5h4.8ZM306.7,301.5h2.7v-2.3h-2.7v2.3ZM306.7,304.9h2.7v-2.3h-2.7v2.3ZM313.4,299.2h-2.8v2.3h2.8v-2.3ZM313.4,302.6h-2.8v2.3h2.8v-2.3Z"/>
        <path d="M332.1,311.7c0,.9-.2,1.4-.8,1.6-.6.2-1.7.3-3.3.3,0-.4-.3-1.1-.5-1.4,1.2,0,2.5,0,2.8,0,.3,0,.4-.1.4-.5v-12h-12.9v-1.3h14.3v13.3ZM328.7,302.8h-10.8v-1.2h10.8v1.2ZM320.4,310.4v1.3h-1.3v-7h8.4v5.7h-7.1ZM320.4,305.9v3.3h5.8v-3.3h-5.8Z"/>
      </g>
      <g>
        <path d="M253.3,236.4c-.2.8-.6,1.6-1.5,2.4.8.4,1.5.7,2.1,1.1l-.9.8c-.6-.4-1.4-.8-2.2-1.2-1.2.6-2.8,1.1-5,1.5-.1-.3-.4-.7-.6-.9,1.9-.3,3.3-.7,4.3-1.2-.9-.4-1.9-.7-2.8-1,.3-.4.6-.8.9-1.2h-2.1c0,.1-.1-.9-.1-.9.8,0,1.8,0,2.9-.1.3-.5.6-1,.8-1.4h-2.9v-2.9h3.4v-.7h-2.9v-1.9h-1.2v-1h1.2v-1.8h2.9v-1.3h1.1v1.3h3.1v1.8h1.2v1h-1.2v1.9h-3.1v.7h3.5v2.9h-3.8c-.2.5-.5.9-.8,1.4.9,0,1.8,0,2.7-.1v-.8h1.1v.7h0c0,0,.9,0,.9,0v.9s-1,0-1,0ZM247.3,233.4h2.3v-1.1h-2.3v1.1ZM247.8,226.8v1h1.7v-1h-1.7ZM249.5,229.7v-1.1h-1.7v1.1h1.7ZM248.9,236.6c-.2.3-.4.6-.6.8.7.2,1.5.5,2.3.8.9-.6,1.3-1.2,1.5-1.8l-3.2.2ZM250.6,226.8v1h1.9v-1h-1.9ZM252.5,229.7v-1.1h-1.9v1.1h1.9ZM250.6,232.3v1.1h2.3v-1.1h-2.3ZM260.4,229.2c-.3,2.7-.8,5-1.6,6.9.8,1.6,1.8,2.9,3,3.7-.3.2-.6.6-.8,1-1.2-.8-2.1-2-2.8-3.4-.8,1.5-1.9,2.7-3.3,3.7-.1-.3-.5-.8-.7-1,1.5-1,2.6-2.4,3.4-4.1-.6-1.4-1-3-1.3-4.8-.3.7-.6,1.4-1,2-.2-.2-.6-.6-.9-.8,1.2-1.9,1.9-4.8,2.3-7.8l1.1.2c-.1,1-.3,2.1-.6,3.1h4.4v1.2h-1.2ZM256.9,229.2c.3,1.9.7,3.7,1.2,5.3.5-1.5.8-3.3,1-5.3h-2.2Z"/>
        <path d="M268.9,225c-.5,1.3-1.1,2.6-1.8,3.8v12.2h-1.3v-10.1c-.6.8-1.2,1.5-1.8,2.2-.1-.3-.5-1-.8-1.3,1.8-1.7,3.4-4.4,4.4-7.1l1.3.4ZM279.6,239v1.3h-11.2v-1.3h6.3c.6-2.4,1.4-6.2,1.7-8.9l1.4.3c-.5,2.8-1.2,6.3-1.9,8.7h3.7ZM278.9,229.1h-9.7v-1.3h9.7v1.3ZM271.5,238.2c-.1-1.9-.7-5.2-1.2-7.7l1.2-.3c.6,2.5,1.1,5.7,1.3,7.6l-1.3.4ZM273.6,227.6c-.1-.8-.5-2-.8-2.9l1.3-.3c.3.9.7,2.1.9,2.8l-1.3.4Z"/>
        <path d="M290.3,235.2c1.4,1.6,4.3,3.3,7.5,4-.3.3-.6.8-.8,1.2-2.8-.7-5.1-2.2-6.7-3.7v4.3h-1.4v-4.4c-1.8,1.7-4.2,3.1-6.7,3.8-.2-.3-.5-.8-.8-1.1,3-.7,6-2.3,7.6-4.2v-1.5h-4.4v3.5h-1.4v-4.6h5.8v-1.4h-7.1v-1.2h7.1v-1.1h1.4v1.1h6.9v1.2h-6.9v1.4h5.8v3.3c0,.6-.1.9-.6,1.1-.5.2-1.2.2-2.2.2,0-.3-.3-.8-.5-1.1.7,0,1.4,0,1.6,0s.3,0,.3-.3v-2.1h-4.5v1.7ZM284.2,226.9c-.6.9-1.2,1.7-1.9,2.3-.2-.2-.6-.7-.9-.9,1.1-1,2.1-2.4,2.7-3.9l1.2.3c-.1.4-.3.7-.5,1.1h4.6v1.1h-3.4c.6.5,1.3,1.2,1.6,1.6l-.9.8c-.3-.5-1.1-1.3-1.7-1.9l.7-.5h-1.5ZM291.6,226.9c-.4.6-.9,1.2-1.4,1.7-.2-.2-.7-.6-1-.8,1-.8,1.8-2.1,2.2-3.3l1.2.3c-.1.4-.3.7-.5,1.1h5.4v1.1h-3.9c.6.5,1.4,1.2,1.8,1.6l-.9.8c-.4-.5-1.2-1.2-1.9-1.8l.8-.6h-2Z"/>
        <path d="M305.7,237.9h-4.7v1.3h-1.1v-13.2h5.8v11.9ZM301,227.2v4.1h1.4v-4.1h-1.4ZM301,236.7h1.4v-4.4h-1.4v4.4ZM304.7,227.2h-1.4v4.1h1.4v-4.1ZM304.7,236.7v-4.4h-1.4v4.4h1.4ZM315.3,226.8c-.7,1.8-1.9,3.3-3.2,4.5,1.1.9,2.4,1.6,3.9,2-.2.3-.4.9-.4,1.3-1.6-.6-3.2-1.4-4.4-2.5-1.4,1.1-3.1,1.9-4.7,2.5-.1-.3-.4-1-.6-1.2,1.5-.5,3.1-1.2,4.4-2.2-.7-.7-1.4-1.6-1.8-2.4-.5.7-1.1,1.4-1.7,1.9-.1-.2-.6-.8-.8-1,1.4-1.3,2.7-3.2,3.5-5.2l1.2.3c-.2.5-.5,1.1-.7,1.6h4.6c0,0,.8.4.8.4ZM307.6,234.3h7.1v6.5h-1.2v-.9h-4.7v.9h-1.2v-6.6ZM308.8,235.5v3.3h4.7v-3.3h-4.7ZM309.1,227.7c.5,1,1.2,2,2,2.8,1-.8,1.8-1.8,2.4-2.9h-4.4Z"/>
        <path d="M332.4,239c0,.9-.2,1.4-.8,1.6-.6.2-1.7.3-3.3.3,0-.4-.3-1.1-.5-1.4,1.2,0,2.5,0,2.8,0,.3,0,.4-.1.4-.5v-12h-12.9v-1.3h14.3v13.3ZM329,230.1h-10.8v-1.2h10.8v1.2ZM320.7,237.7v1.3h-1.3v-7h8.4v5.7h-7.1ZM320.7,233.2v3.3h5.8v-3.3h-5.8Z"/>
      </g>
      <g>
        <path d="M252.9,345.4c-.2.8-.6,1.6-1.5,2.4.8.4,1.5.7,2.1,1.1l-.9.8c-.6-.4-1.4-.8-2.2-1.2-1.2.6-2.8,1.1-5,1.5-.1-.3-.4-.7-.6-.9,1.9-.3,3.3-.7,4.3-1.2-.9-.4-1.9-.7-2.8-1,.3-.4.6-.8.9-1.2h-2.1c0,.1-.1-.9-.1-.9.8,0,1.8,0,2.9-.1.3-.5.6-1,.8-1.4h-2.9v-2.9h3.4v-.7h-2.9v-1.9h-1.2v-1h1.2v-1.8h2.9v-1.3h1.1v1.3h3.1v1.8h1.2v1h-1.2v1.9h-3.1v.7h3.5v2.9h-3.8c-.2.5-.5.9-.8,1.4.9,0,1.8,0,2.7-.1v-.8h1.1v.7h0c0,0,.9,0,.9,0v.9s-1,0-1,0ZM246.9,342.4h2.2v-1.1h-2.2v1.1ZM247.4,335.7v1h1.7v-1h-1.7ZM249.1,338.7v-1.1h-1.7v1.1h1.7ZM248.5,345.6c-.2.3-.4.6-.6.8.7.2,1.5.5,2.3.8.9-.6,1.3-1.2,1.5-1.8l-3.2.2ZM250.2,335.7v1h1.9v-1h-1.9ZM252.1,338.7v-1.1h-1.9v1.1h1.9ZM250.2,341.3v1.1h2.3v-1.1h-2.3ZM260,338.2c-.3,2.7-.8,5-1.6,6.9.8,1.6,1.8,2.9,3,3.7-.3.2-.6.6-.8,1-1.2-.8-2.1-2-2.8-3.4-.8,1.5-1.9,2.7-3.3,3.7-.1-.3-.5-.8-.7-1,1.5-1,2.6-2.4,3.4-4.1-.6-1.4-1-3-1.3-4.8-.3.7-.6,1.4-1,2-.2-.2-.6-.6-.9-.8,1.2-1.9,1.9-4.8,2.3-7.8l1.1.2c-.1,1-.3,2.1-.6,3.1h4.4v1.2h-1.2ZM256.5,338.2c.3,1.9.7,3.7,1.2,5.3.5-1.5.8-3.3,1-5.3h-2.3Z"/>
        <path d="M268.6,334c-.5,1.3-1.1,2.6-1.8,3.8v12.2h-1.3v-10.1c-.6.8-1.2,1.5-1.8,2.2-.1-.3-.5-1-.8-1.3,1.8-1.7,3.4-4.4,4.4-7.1l1.3.4ZM279.2,348v1.3h-11.2v-1.3h6.3c.6-2.4,1.4-6.2,1.7-8.9l1.4.3c-.5,2.8-1.2,6.3-1.9,8.7h3.7ZM278.5,338.1h-9.7v-1.3h9.7v1.3ZM271.2,347.1c-.1-1.9-.7-5.2-1.2-7.7l1.2-.3c.6,2.5,1.1,5.7,1.3,7.6l-1.3.4ZM273.2,336.6c-.1-.8-.5-2-.8-2.9l1.3-.3c.3.9.7,2.1.9,2.8l-1.3.4Z"/>
        <path d="M296.1,338.1c-.5,3-1.2,5.4-2.4,7.4,1,1.5,2.2,2.6,3.7,3.4-.3.3-.7.8-.9,1.1-1.5-.8-2.7-1.9-3.6-3.3-1,1.4-2.4,2.5-4.1,3.3-.1-.3-.5-.9-.8-1.2,1.8-.8,3.1-2,4.1-3.4-.8-1.5-1.4-3.2-1.9-5.1-.4.7-.8,1.4-1.2,2-.2-.2-.8-.7-1.1-.9h0c0-.1-2-.1-2-.1v4.6l3.1-.7v1.2c-2.8.7-6,1.5-8.2,2l-.3-1.3,1.1-.2v-8h1.2v7.7l1.8-.4v-10h-3.8v-1.3h8.2v1.3h-3.1v3.9h2.4v.6c1.2-1.9,2-4.4,2.5-7.1l1.3.2c-.2,1.1-.5,2.1-.8,3.1h5.6v1.3h-1.2ZM291.2,338.4c.4,2.1,1,4.1,1.8,5.7.9-1.7,1.4-3.7,1.8-6h-3.5v.3Z"/>
        <path d="M301.5,336.8v5.3c0,2.4-.2,5.9-1.5,8-.3-.3-.8-.6-1.1-.8,1.2-2,1.3-5,1.3-7.3v-6.5h7.2c-.2-.6-.5-1.2-.8-1.8l1.3-.4c.4.7.8,1.5,1,2.1h6.2v1.2h-13.6ZM306.6,337.5c-.3,1-.8,2-1.3,3v9.5h-1.3v-7.5c-.4.6-.9,1.2-1.4,1.6-.1-.3-.4-.9-.6-1.2,1.5-1.4,2.7-3.8,3.3-5.8l1.3.4ZM315.2,341.3h-2.1v7.1c0,.8-.2,1.2-.7,1.4-.6.2-1.5.2-2.8.2,0-.4-.3-.9-.4-1.3,1,0,2,0,2.3,0,.3,0,.4,0,.4-.4v-7.1h-5.4v-1.3h5.4v-2.7h1.3v2.7h2.1v1.3ZM308.2,342.5c.8,1.1,1.7,2.6,2.1,3.5l-1.1.6c-.4-1-1.3-2.5-2-3.6l1.1-.5Z"/>
        <path d="M332,348c0,.9-.2,1.4-.8,1.6-.6.2-1.7.3-3.3.3,0-.4-.3-1.1-.5-1.4,1.2,0,2.5,0,2.8,0,.3,0,.4-.1.4-.5v-12h-12.9v-1.3h14.3v13.3ZM328.6,339.1h-10.8v-1.2h10.8v1.2ZM320.3,346.7v1.3h-1.3v-7h8.4v5.7h-7.1ZM320.3,342.2v3.3h5.8v-3.3h-5.8Z"/>
      </g>
      <g>
        <path d="M252.9,381.6c-.2.8-.6,1.6-1.5,2.4.8.4,1.5.7,2.1,1.1l-.9.8c-.6-.4-1.4-.8-2.2-1.2-1.2.6-2.8,1.1-5,1.5-.1-.3-.4-.7-.6-.9,1.9-.3,3.3-.7,4.3-1.2-.9-.4-1.9-.7-2.8-1,.3-.4.6-.8.9-1.2h-2.1c0,.1-.1-.9-.1-.9.8,0,1.8,0,2.9-.1.3-.5.6-1,.8-1.4h-2.9v-2.9h3.4v-.7h-2.9v-1.9h-1.2v-1h1.2v-1.8h2.9v-1.3h1.1v1.3h3.1v1.8h1.2v1h-1.2v1.9h-3.1v.7h3.5v2.9h-3.8c-.2.5-.5.9-.8,1.4.9,0,1.8,0,2.7-.1v-.8h1.1v.7h0c0,0,.9,0,.9,0v.9s-1,0-1,0ZM246.9,378.6h2.2v-1.1h-2.2v1.1ZM247.5,372v1h1.7v-1h-1.7ZM249.2,374.9v-1.1h-1.7v1.1h1.7ZM248.6,381.9c-.2.3-.4.6-.6.8.7.2,1.5.5,2.3.8.9-.6,1.3-1.2,1.5-1.8l-3.2.2ZM250.3,372v1h1.9v-1h-1.9ZM252.1,374.9v-1.1h-1.9v1.1h1.9ZM250.3,377.5v1.1h2.3v-1.1h-2.3ZM260.1,374.4c-.3,2.7-.8,5-1.6,6.9.8,1.6,1.8,2.9,3,3.7-.3.2-.6.6-.8,1-1.2-.8-2.1-2-2.8-3.4-.8,1.5-1.9,2.7-3.3,3.7-.1-.3-.5-.8-.7-1,1.5-1,2.6-2.4,3.4-4.1-.6-1.4-1-3-1.3-4.8-.3.7-.6,1.4-1,2-.2-.2-.6-.6-.9-.8,1.2-1.9,1.9-4.8,2.3-7.8l1.1.2c-.1,1-.3,2.1-.6,3.1h4.4v1.2h-1.2ZM256.6,374.4c.3,1.9.7,3.7,1.2,5.3.5-1.5.8-3.3,1-5.3h-2.3Z"/>
        <path d="M268.6,370.3c-.5,1.3-1.1,2.6-1.8,3.8v12.2h-1.3v-10.1c-.6.8-1.2,1.5-1.8,2.2-.1-.3-.5-1-.8-1.3,1.8-1.7,3.4-4.4,4.4-7.1l1.3.4ZM279.3,384.2v1.3h-11.2v-1.3h6.3c.6-2.4,1.4-6.2,1.7-8.9l1.4.3c-.5,2.8-1.2,6.3-1.9,8.7h3.7ZM278.5,374.4h-9.7v-1.3h9.7v1.3ZM271.2,383.4c-.1-1.9-.7-5.2-1.2-7.7l1.2-.3c.6,2.5,1.1,5.7,1.3,7.6l-1.3.4ZM273.2,372.9c-.1-.8-.5-2-.8-2.9l1.3-.3c.3.9.7,2.1.9,2.8l-1.3.4Z"/>
        <path d="M296.6,370.6v15.6h-1.3v-.8h-12.3v.8h-1.3v-15.6h14.9ZM295.2,384.3v-12.4h-12.3v12.4h12.3ZM289.2,381.5c-1.9.4-3.8.7-5.3,1l-.2-1c1.4-.2,3.4-.6,5.4-.9v.9ZM293.7,376.3c-.5,1.7-1.1,3.1-2,4.4.4,1,.8,1.6,1.4,1.7.2,0,.4-.7.5-1.8.2.2.6.5.9.6-.2,1.9-.8,2.6-1.8,2.3-.8-.2-1.4-.8-1.8-1.8-.7.8-1.5,1.5-2.4,2.1-.2-.2-.6-.6-.8-.9,1.1-.6,2-1.4,2.8-2.4-.5-1.4-.8-3.3-1-5.3h-5.5v-1h5.4c0-.6-.1-1.3-.1-1.9h1.2c0,.6,0,1.3.1,1.9h3.9v1h-3.8c.2,1.5.4,2.9.7,4.1.6-1,1-2.1,1.3-3.3l1.1.2ZM288.6,376.4v3.5h-4v-3.5h4ZM287.6,377.2h-2.1v1.9h2.1v-1.9ZM293.3,374.1c-.4-.4-1.2-1-1.9-1.3l.6-.7c.7.3,1.5.8,1.9,1.2l-.6.8Z"/>
        <path d="M304.6,371c-.5,1.5-1.2,3.2-1.7,4.7,1.3,1.5,1.6,2.8,1.6,3.9s-.2,1.7-.7,2.1c-.3.2-.6.3-.9.3-.4,0-.8,0-1.2,0,0-.3-.1-.8-.3-1.1.4,0,.7,0,1,0,.2,0,.4,0,.5-.2.3-.2.4-.7.4-1.2,0-1-.3-2.2-1.5-3.7.5-1.3,1-2.8,1.4-4.1h-2.3v14.5h-1.2v-15.7h4.2c0,0,.8.4.8.4ZM306.9,375.9c.3-.3.5-.7.7-1-.4-.5-1-1-1.6-1.4-.4.6-.8,1.1-1.3,1.5-.2-.2-.6-.5-.9-.7,1.2-1.1,2.2-2.7,2.8-4.4l1,.2c-.1.4-.3.8-.4,1.1h2.1s.7.2.7.2c-.5,2.3-1.5,4.2-2.6,5.6h5.2c-1.1-1.4-2-3.3-2.5-5.2l.8-.2v-.8h3.6c0,0,.8.4.8.4-.5,1.5-1.5,3-2.4,4.1.8,1.2,1.7,2.2,2.7,2.8-.3.2-.6.6-.8.9-.7-.5-1.4-1.2-2-1.9v1h-5.6v-.8c-.6.6-1.2,1.2-1.9,1.6-.2-.3-.5-.6-.7-.8.8-.5,1.7-1.3,2.4-2.2-.9.2-1.7.3-2.6.4l-.2-.9c.8,0,1.7-.2,2.8-.3v.8ZM307.8,382.2c-.7,1.1-1.7,2.5-2.5,3.3-.3-.2-.8-.5-1.1-.7.8-.8,1.8-2,2.4-3l1.2.4ZM310.5,380.9v5.4h-1.3v-5.4h-3.9v-1.1h9.1v1.1h-3.9ZM306.7,372.1c0,.2-.2.3-.3.5.5.4,1.1.9,1.6,1.3.3-.6.5-1.2.7-1.8h-2ZM311.1,371.7c.3.9.6,1.7,1.1,2.6.6-.7,1.1-1.7,1.5-2.6h-2.5ZM312.8,381.6c.9,1,2.1,2.3,2.6,3l-1,.7c-.6-.8-1.7-2.2-2.6-3.2l1-.6Z"/>
        <path d="M332.1,384.3c0,.9-.2,1.4-.8,1.6-.6.2-1.7.3-3.3.3,0-.4-.3-1.1-.5-1.4,1.2,0,2.5,0,2.8,0,.3,0,.4-.1.4-.5v-12h-12.9v-1.3h14.3v13.3ZM328.7,375.3h-10.8v-1.2h10.8v1.2ZM320.4,383v1.3h-1.3v-7h8.4v5.7h-7.1ZM320.4,378.4v3.3h5.8v-3.3h-5.8Z"/>
      </g>
      <g>
        <path d="M250.2,411.1h-5.1v-1.1h5.1v1.1ZM251.7,420.4c-1.4.9-3.7,1.7-5.5,2.2-.2-.3-.7-.8-1-1,1.8-.4,4-1,5.3-1.7l1.2.5ZM249.8,408.3h-4.3v-1h4.3v1ZM247.5,412.5h11.7v7.2h-11.7v-7.2ZM248.8,414.7h9v-1.2h-9v1.2ZM248.8,416.8h9v-1.2h-9v1.2ZM248.8,418.9h9v-1.3h-9v1.3ZM253.1,408.5c-.4.7-.9,1.3-1.4,1.8-.2-.2-.7-.5-1-.7.9-.8,1.7-2.1,2.1-3.4l1.2.3c-.1.3-.3.7-.4,1h6.2c0,0,.9.3.9.3-.5.9-1,2-1.5,2.6l-1.1-.4c.3-.4.6-.9.8-1.4h-2.9v.2c0,.2,0,.4,0,.6,1,1.1,2.9,1.8,5.3,2-.3.3-.6.7-.8,1.1-2.1-.3-3.8-1-4.9-2.1-.6.9-2,1.7-5.2,2.2-.1-.3-.5-.8-.7-1,4.7-.6,5.1-1.9,5.1-2.8v-.2h-1.9ZM255.8,419.9c1.9.6,4,1.4,5.3,1.9l-1.2.8c-1.2-.6-3.1-1.4-5-2l.9-.7Z"/>
        <path d="M265.6,414.8c-.4,2-1.1,4.5-2.1,5.8-.1-.4-.5-1.1-.7-1.5.8-1,1.5-3,1.8-4.6l1,.3ZM267.2,413.5v9.2h-1.2v-9.2h-2.9v-1.3h2.9v-6h1.2v6h2.9v1.3h-2.9ZM264.2,411.6c-.1-1.1-.5-2.7-1-4l1-.2c.5,1.2.9,2.9,1.1,3.9l-1,.3ZM268,414.5c.3.5,1.6,3,1.9,3.6l-1,1c-.3-1-1.3-3.3-1.7-4.1l.7-.5ZM270.1,407.6c-.4,1.4-1,3-1.5,4l-.9-.3c.4-1.1.9-2.8,1.2-4l1.2.3ZM277.2,417.6v5.1h-1.3v-4.8l-5.6,1-.2-1.3,5.8-1v-10.3h1.3v10.1l2.1-.4.2,1.2-2.3.4ZM273.5,415c-.6-.6-1.9-1.6-3-2.2l.6-.9c1.1.6,2.4,1.4,3,2l-.7,1.1ZM274.3,410.7c-.6-.7-1.8-1.7-2.8-2.3l.7-.9c1,.6,2.3,1.5,2.8,2.2l-.7,1Z"/>
        <path d="M283.5,417c-.2,1.7-.7,3.5-1.6,4.9-.3-.2-.8-.5-1.1-.6,1.4-2.1,1.6-5.1,1.6-7.1v-2.4h7.3v5.3h-6.2ZM287.1,406.8c0,.1-.2.3-.3.4,1.4.8,3.1,1.9,4,2.6l-.7,1.1c-.9-.7-2.5-1.9-4-2.8-1.2,1.5-2.9,2.8-4.5,3.7-.1-.3-.5-.9-.7-1.2,2-1,4-2.5,5.1-4.3l1.2.5ZM283.5,417.8h6.7v4.7h-1.2v-.7h-4.3v.7h-1.2v-4.7ZM288.5,416v-1.2h-4.8c0,.4,0,.8,0,1.2h4.9ZM283.7,412.7v1.2h4.8v-1.2h-4.8ZM288.2,409.9v.9h-3.8v-.9h3.8ZM284.7,418.8v1.9h4.3v-1.9h-4.3ZM293.1,418h-1.3v-9.9h1.3v9.9ZM296.5,406.3v14.6c0,.8-.2,1.3-.7,1.5-.5.2-1.4.3-2.9.3,0-.4-.3-1-.5-1.3,1.1,0,2.1,0,2.3,0,.3,0,.4-.1.4-.4v-14.6h1.3Z"/>
        <path d="M301.8,417.6c-.4,1.3-1.2,2.7-1.9,3.6-.2-.2-.7-.5-.9-.6.7-.8,1.3-2.1,1.7-3.2l1.1.3ZM304,416.3v6.2h-1.3v-6.2h-3.6v-1.2h3.6v-1.9h-3.7v-1.1h5c.3-.8.8-2,1-2.8l1.2.3c-.3.9-.7,1.8-1,2.6h2.3v1.1h-3.5v1.9h3.3v1.2h-3.3ZM307.2,409.2h-7.9v-1.1h3.5c-.2-.5-.5-1.2-.8-1.6l1.3-.3c.4.6.8,1.4,1,2h2.8v1.1ZM301.2,412.1c0-.7-.4-1.7-.7-2.5l1.1-.3c.4.8.7,1.8.7,2.4l-1.1.3ZM305.8,417.2c.6.9,1.2,2.1,1.5,2.8l-1,.5c-.3-.8-.9-2-1.5-2.9l.9-.5ZM315.4,413.5h-2v9.1h-1.3v-9.1h-2.5v.6c0,2.6-.2,6.1-1.9,8.4-.2-.3-.7-.7-1-.8,1.5-2.2,1.7-5.2,1.7-7.6v-6.2c2-.3,4.3-.9,5.6-1.4l1.1,1c-1.5.6-3.5,1-5.4,1.3v3.4h5.7v1.3Z"/>
        <path d="M332.1,420.6c0,.9-.2,1.4-.8,1.6-.6.2-1.7.3-3.3.3,0-.4-.3-1.1-.5-1.4,1.2,0,2.5,0,2.8,0,.3,0,.4-.1.4-.5v-12h-12.9v-1.3h14.3v13.3ZM328.7,411.7h-10.8v-1.2h10.8v1.2ZM320.4,419.4v1.3h-1.3v-7h8.4v5.7h-7.1ZM320.4,414.8v3.3h5.8v-3.3h-5.8Z"/>
      </g>
    </g>
  </g>
  <g>
    <rect class="st3" x="202.7" y="474.9" width="32" height="231.3" rx="5" ry="5"/>
    <g>
      <path class="st4" d="M214.8,563.9h3.1v1.2h-3.1v3.2h-1.2v-3.2h-3.2v-1.2h3.2v-1.4h-2.5v-6.2h2.5v-1.3h-2.9v-1.2h2.9v-2h1.2v2h2.9v1.2h-2.9v1.3h2.6v6.2h-2.6v1.4ZM212.1,558.8h1.7v-1.6h-1.7v1.6ZM212.1,561.4h1.7v-1.7h-1.7v1.7ZM216.4,557.2h-1.7v1.6h1.7v-1.6ZM216.4,559.8h-1.7v1.7h1.7v-1.7ZM222.9,555.5v1.6h3.5v9.7c0,.6-.1,1-.5,1.2-.4.2-1,.2-1.9.2,0-.3-.2-.9-.4-1.2.6,0,1.2,0,1.3,0s.2,0,.2-.2v-2.5h-2.3v3.8h-1.2v-3.8h-2.2v3.9h-1.2v-11.1h3.4v-1.6h-3.8v-1.2h3.8v-2.5h1.2v2.5h2.9c-.5-.6-1.4-1.3-2.2-1.9l.8-.6c.8.5,1.8,1.3,2.2,1.8l-.7.7h.9v1.2h-3.9ZM219.5,558.2v1.8h2.2v-1.8h-2.2ZM221.8,563.1v-1.9h-2.2v1.9h2.2ZM222.9,558.2v1.8h2.3v-1.8h-2.3ZM225.2,563.1v-1.9h-2.3v1.9h2.3Z"/>
      <path class="st4" d="M218.6,584.4c-2.8.7-5.8,1.4-8,1.9l-.2-1.4,1.3-.3v-12.2h5.9v11l1-.2v1.2ZM212.9,573.7v2.6h3.4v-2.6h-3.4ZM216.2,577.5h-3.4v2.6h3.4v-2.6ZM212.9,584.4c1-.2,2.2-.5,3.4-.7v-2.4h-3.4v3.1ZM226.4,575.6s0,.5,0,.7c-.2,7.5-.4,10.1-1,10.9-.3.5-.7.6-1.3.7-.5,0-1.5,0-2.5,0,0-.4-.2-.9-.4-1.3,1,0,2,0,2.3,0,.3,0,.5,0,.7-.3.5-.5.6-2.9.8-9.5h-2.8c-.3,4.7-1.3,8.7-4.9,11.1-.2-.3-.6-.8-1-1,3.4-2.1,4.3-5.9,4.6-10.2h-2.9v-1.3h2.9c0-1.3,0-2.7,0-4.1h1.3c0,1.4,0,2.7,0,4.1h4.1Z"/>
      <path class="st4" d="M226.6,605.3h-7.3v2.5h-1.3v-2.5h-7.1v-1.2h7.1v-1.3h-5.4v-6.3h12.4v6.3h-5.7v1.3h7.3v1.2ZM218.1,595.6h-5.9v-3.5h5.9v3.5ZM216.8,593h-3.5v1.7h3.5v-1.7ZM213.9,599.1h4.1v-1.5h-4.1v1.5ZM217.9,601.7v-1.6h-4.1v1.6h4.1ZM223.6,597.5h-4.3v1.5h4.3v-1.5ZM223.6,600.1h-4.3v1.6h4.3v-1.6ZM225.4,595.6h-6v-3.5h6v3.5ZM224.2,593h-3.5v1.7h3.5v-1.7Z"/>
      <path class="st4" d="M216.1,611.6c-.5,1.3-1.1,2.6-1.8,3.8v12.2h-1.3v-10.1c-.6.8-1.2,1.5-1.8,2.2-.1-.3-.5-1-.8-1.3,1.8-1.7,3.4-4.4,4.4-7.1l1.3.4ZM226.8,625.6v1.3h-11.2v-1.3h6.3c.6-2.4,1.4-6.2,1.7-8.9l1.4.3c-.5,2.8-1.2,6.3-1.9,8.7h3.7ZM226,615.7h-9.7v-1.3h9.7v1.3ZM218.7,624.8c-.1-1.9-.7-5.2-1.2-7.7l1.2-.3c.6,2.5,1.1,5.7,1.3,7.6l-1.3.4ZM220.8,614.2c-.1-.8-.5-2-.8-2.9l1.3-.3c.3.9.7,2.1.9,2.8l-1.3.4Z"/>
    </g>
    <g>
      <g>
        <path d="M250.1,502.3c-.2-.5-.8-1.5-1.2-2.4v8h-1.3v-7.5c-.6,1.7-1.4,3.3-2.2,4.3-.1-.4-.5-1-.7-1.3,1-1.3,2.1-3.6,2.7-5.7h-2.3v-1.3h2.5v-2.9c-.6.1-1.3.3-1.9.4,0-.3-.3-.8-.4-1.1,1.7-.3,3.6-.8,4.8-1.4l.8,1.1c-.6.3-1.3.5-2.1.7v3.2h2.1v1.3h-2.1v.4c.5.6,1.8,2.5,2.1,3l-.8,1.1ZM260.2,503.4c-.2-1.5-.9-3.7-1.7-5.3-.9,2.2-2,4.2-3.3,5.9v1.8c0,.7.1.8.8.8h2.1c.6,0,.7-.5.8-2.7.3.3.8.5,1.2.5-.1,2.6-.5,3.3-1.8,3.3h-2.4c-1.5,0-1.9-.4-1.9-2v-.2c-.7.8-1.5,1.5-2.3,2.1-.2-.3-.8-.7-1.1-.9,1.3-.9,2.4-2,3.4-3.2v-8.2h1.3v6.4c1.7-2.6,2.9-5.7,3.9-9.2l1.3.3c-.5,1.8-1.1,3.6-1.8,5.2l1.1-.3c.8,1.7,1.5,3.9,1.7,5.3l-1.2.4ZM250.5,502.8c.7-1.4,1.1-3.7,1.3-5.5l1,.2c-.2,1.8-.6,4.3-1.3,5.7l-1-.4ZM256.9,495.1c-.7-.8-2.2-1.9-3.4-2.7l.8-.9c1.2.7,2.7,1.8,3.5,2.6l-.8,1Z"/>
        <path d="M279,500.5v1h-15.9v-1h7.2v-1.1h-6v-.9h6v-.9h-5.5v-.9h5.5v-1.1h-7.2v-1h7.2v-1h-5.3v-.9h5.3v-1.3h1.3v1.3h5.1v1.9h2.1v1h-2.1v2h-5.1v.9h6.1v.9h-6.1v1.1h7.4ZM265.4,502.4h11.5v5.6h-1.3v-.6h-8.9v.6h-1.3v-5.6ZM266.7,503.4v1.1h8.9v-1.1h-8.9ZM275.6,506.4v-1.1h-8.9v1.1h8.9ZM271.7,494.6h3.8v-1h-3.8v1ZM271.7,496.8h3.8v-1.1h-3.8v1.1Z"/>
        <path d="M289.6,501c-.3,1.7-1,3.1-1.8,4.2,1.3,1.1,3,1.3,5.1,1.3s3.9,0,4.6,0c-.2.3-.4.8-.4,1.1h-4.3c-2.4,0-4.4-.3-5.8-1.6-1,.9-2.1,1.5-3.3,2-.1-.3-.4-.7-.6-.9,1.2-.4,2.3-1,3.2-1.9-.4-.5-.7-1.2-1-2-.4.5-.8.9-1.2,1.3-.1-.2-.5-.5-.8-.7-.3,1.5-.7,3-1.4,4.2-.2-.3-.8-.7-1-.8,1.4-2.3,1.5-5.6,1.5-8v-4.4h5.9v-3.3h1.3v1.1h6.2v1h-6.2v1.2h6.5c0,0,.9.2.9.2-.4,1-.8,2.2-1.2,2.9l-1.1-.3c.3-.4.5-1.1.7-1.7h-5.9v1.1l4.6-.3v.9c0,0-4.6.3-4.6.3v.4c0,.5.1.7.7.7h4.2c.5,0,1.5,0,1.9-.1,0,.3,0,.7.1,1-.3,0-1.1,0-1.9,0h-4.4c-1.5,0-1.9-.5-1.9-1.6v-.3l-3.6.2v-.9c0,0,3.6-.2,3.6-.2v-1.2h-4.6v3.3c0,1.3,0,2.9-.3,4.4,1.2-1,2.2-2.5,2.7-4.2l1.1.3c-.1.4-.3.8-.5,1.2h2.2s.7.1.7.1ZM286.1,501.9c0,.1-.1.3-.2.4.3.9.6,1.6,1,2.2.6-.7,1-1.6,1.3-2.6h-2.1ZM294.7,505.6c-.9,0-1.2-.2-1.2-1.1v-2.5h-1.8v.4c0,1.2-.3,2.6-1.7,3.7-.2-.2-.6-.6-.8-.8,1.2-.9,1.4-2,1.4-2.9v-1.4h4v3.5c0,.3,0,.4.3.4h.7c.2,0,.3-.2.3-1.2.2.1.6.3.8.3,0,1.2-.3,1.6-1,1.6h-1Z"/>
      </g>
      <g>
        <path d="M253.8,527.9c0,.6,0,1.5-.1,2.6.3,2.1,1.4,9.7,7.7,12.5-.4.3-.8.8-1,1.1-4.5-2.1-6.4-6.6-7.3-9.9-.8,3.6-2.7,7.6-7.1,10-.2-.4-.7-.8-1.1-1,7.5-3.8,7.4-12.5,7.4-15.3h1.5Z"/>
        <path d="M279.2,539.2h-1.9v3.2h-1.3v-.8h-4.3v1.2c0,.8-.3,1.1-.8,1.3-.6.2-1.5.2-3,.2,0-.3-.3-.8-.5-1.1,1.1,0,2.2,0,2.5,0,.3,0,.4-.1.4-.4v-1.2h-5.8v-1h5.8v-1.4h-7.4v-1.1h7.4v-1.3h-5.7v-1h5.7v-1.3h-5.1v-3.2h5.1v-1h-7v-1.1h7v-1.4h1.3v1.4h7.2v1.1h-7.2v1h5.4v3.2h-5.4v1.3h5.7v2.3h1.9v1.1ZM270.4,533.7v-1.3h-3.9v1.3h3.9ZM271.7,532.4v1.3h4v-1.3h-4ZM271.7,538.1h4.3v-1.3h-4.3v1.3ZM276,539.2h-4.3v1.4h4.3v-1.4Z"/>
        <path d="M289.6,537.4c-.3,1.7-1,3.1-1.8,4.2,1.3,1.1,3,1.3,5.1,1.3s3.9,0,4.6,0c-.2.3-.4.8-.4,1.1h-4.3c-2.4,0-4.4-.3-5.8-1.6-1,.9-2.1,1.5-3.3,2-.1-.3-.4-.7-.6-.9,1.2-.4,2.3-1,3.2-1.9-.4-.5-.7-1.2-1-2-.4.5-.8.9-1.2,1.3-.1-.2-.5-.5-.8-.7-.3,1.5-.7,3-1.4,4.2-.2-.3-.8-.7-1-.8,1.4-2.3,1.5-5.6,1.5-8v-4.4h5.9v-3.3h1.3v1.1h6.2v1h-6.2v1.2h6.5c0,0,.9.2.9.2-.4,1-.8,2.2-1.2,2.9l-1.1-.3c.3-.4.5-1.1.7-1.7h-5.9v1.1l4.6-.3v.9c0,0-4.6.3-4.6.3v.4c0,.5.1.7.7.7h4.2c.5,0,1.5,0,1.9-.1,0,.3,0,.7.1,1-.3,0-1.1,0-1.9,0h-4.4c-1.5,0-1.9-.5-1.9-1.6v-.3l-3.6.2v-.9c0,0,3.6-.2,3.6-.2v-1.2h-4.6v3.3c0,1.3,0,2.9-.3,4.4,1.2-1,2.2-2.5,2.7-4.2l1.1.3c-.1.4-.3.8-.5,1.2h2.2s.7.1.7.1ZM286.1,538.2c0,.1-.1.3-.2.4.3.9.6,1.6,1,2.2.6-.7,1-1.6,1.3-2.6h-2.1ZM294.7,541.9c-.9,0-1.2-.2-1.2-1.1v-2.5h-1.8v.4c0,1.2-.3,2.6-1.7,3.7-.2-.2-.6-.6-.8-.8,1.2-.9,1.4-2,1.4-2.9v-1.4h4v3.5c0,.3,0,.4.3.4h.7c.2,0,.3-.2.3-1.2.2.1.6.3.8.3,0,1.2-.3,1.6-1,1.6h-1Z"/>
      </g>
      <g>
        <path d="M260.1,568.8c-.5,3-1.2,5.4-2.4,7.4,1,1.5,2.2,2.6,3.7,3.4-.3.3-.7.8-.9,1.1-1.5-.8-2.7-1.9-3.6-3.3-1,1.4-2.4,2.5-4.1,3.3-.1-.3-.5-.9-.8-1.2,1.8-.8,3.1-2,4.1-3.4-.8-1.5-1.4-3.2-1.9-5.1-.4.7-.8,1.4-1.2,2-.2-.2-.8-.7-1.1-.9h0c0-.1-2-.1-2-.1v4.6l3.1-.7v1.2c-2.8.7-6,1.5-8.2,2l-.3-1.3,1.1-.2v-8h1.2v7.7l1.8-.4v-10h-3.8v-1.3h8.2v1.3h-3.1v3.9h2.4v.6c1.2-1.9,2-4.4,2.5-7.1l1.3.2c-.2,1.1-.5,2.1-.8,3.1h5.6v1.3h-1.2ZM255.2,569.1c.4,2.1,1,4.1,1.8,5.7.9-1.7,1.4-3.7,1.8-6h-3.5v.3Z"/>
        <path d="M277.2,565.2c0,6.7,0,14,1.1,14s.3-1.2.4-2.8c.2.3.6.7.8.9-.1,2.3-.4,3.2-1.3,3.2-2.2,0-2.1-6.4-2.2-14.2h-9.7v4.5c0,2.9-.3,7-2.3,9.7-.2-.3-.8-.6-1.1-.8,1.9-2.6,2.1-6.2,2.1-8.9v-5.8h12.3ZM273.9,575.8c.9,1.2,1.8,2.8,2.1,3.9l-1.1.4c-.1-.4-.3-.9-.5-1.4-3,.2-6.1.4-8.2.6v-1.2c1,0,2.5-.1,4.1-.3v-2.5h-3.1v-4.9h3.1v-1.7h-3.4v-1.1h8v1.1h-3.5v1.7h3.2v4.9h-3.2v2.4h2.3c-.3-.7-.6-1.2-1-1.7l1-.4ZM270.4,574.3v-2.8h-2v2.8h2ZM271.5,571.5v2.8h2.1v-2.8h-2.1Z"/>
        <path d="M289.6,573.7c-.3,1.7-1,3.1-1.8,4.2,1.3,1.1,3,1.3,5.1,1.3s3.9,0,4.6,0c-.2.3-.4.8-.4,1.1h-4.3c-2.4,0-4.4-.3-5.8-1.6-1,.9-2.1,1.5-3.3,2-.1-.3-.4-.7-.6-.9,1.2-.4,2.3-1,3.2-1.9-.4-.5-.7-1.2-1-2-.4.5-.8.9-1.2,1.3-.1-.2-.5-.5-.8-.7-.3,1.5-.7,3-1.4,4.2-.2-.3-.8-.7-1-.8,1.4-2.3,1.5-5.6,1.5-8v-4.4h5.9v-3.3h1.3v1.1h6.2v1h-6.2v1.2h6.5c0,0,.9.2.9.2-.4,1-.8,2.2-1.2,2.9l-1.1-.3c.3-.4.5-1.1.7-1.7h-5.9v1.1l4.6-.3v.9c0,0-4.6.3-4.6.3v.4c0,.5.1.7.7.7h4.2c.5,0,1.5,0,1.9-.1,0,.3,0,.7.1,1-.3,0-1.1,0-1.9,0h-4.4c-1.5,0-1.9-.5-1.9-1.6v-.3l-3.6.2v-.9c0,0,3.6-.2,3.6-.2v-1.2h-4.6v3.3c0,1.3,0,2.9-.3,4.4,1.2-1,2.2-2.5,2.7-4.2l1.1.3c-.1.4-.3.8-.5,1.2h2.2s.7.1.7.1ZM286.1,574.6c0,.1-.1.3-.2.4.3.9.6,1.6,1,2.2.6-.7,1-1.6,1.3-2.6h-2.1ZM294.7,578.2c-.9,0-1.2-.2-1.2-1.1v-2.5h-1.8v.4c0,1.2-.3,2.6-1.7,3.7-.2-.2-.6-.6-.8-.8,1.2-.9,1.4-2,1.4-2.9v-1.4h4v3.5c0,.3,0,.4.3.4h.7c.2,0,.3-.2.3-1.2.2.1.6.3.8.3,0,1.2-.3,1.6-1,1.6h-1Z"/>
      </g>
      <g>
        <path d="M261.1,615.1v1.3h-15.9v-1.3h7.2v-4.4h-5.5v-1.3h5.5v-3.9h-6.4v-1.3h7.9c-.7-.8-2-2-3.1-2.8l1.1-.8c1.2.8,2.6,2.1,3.3,2.9l-.8.6h5.8v1.3h-6.4v3.9h5.7v1.3h-5.7v4.4h7.3Z"/>
        <path d="M270.7,604.7h-7.4v-1.1h7.4v1.1ZM264.1,605.9h5.9v1.1h-5.9v-1.1ZM269.9,609.3h-5.8v-1.1h5.8v1.1ZM270,615.9h-4.5v.8h-1.2v-6h5.7v5.2ZM265.4,611.8v3h3.3v-3h-3.3ZM266.8,603.4c-.3-.6-.8-1.7-1.3-2.4l1-.5c.5.7,1.1,1.7,1.4,2.3l-1.1.6ZM279.2,608h-3.7v8.9h-1.4v-8.9h-3.5v-1.3h3.5v-5.9h1.4v5.9h3.7v1.3Z"/>
        <path d="M289.6,610.1c-.3,1.7-1,3.1-1.8,4.2,1.3,1.1,3,1.3,5.1,1.3s3.9,0,4.6,0c-.2.3-.4.8-.4,1.1h-4.3c-2.4,0-4.4-.3-5.8-1.6-1,.9-2.1,1.5-3.3,2-.1-.3-.4-.7-.6-.9,1.2-.4,2.3-1,3.2-1.9-.4-.5-.7-1.2-1-2-.4.5-.8.9-1.2,1.3-.1-.2-.5-.5-.8-.7-.3,1.5-.7,3-1.4,4.2-.2-.3-.8-.7-1-.8,1.4-2.3,1.5-5.6,1.5-8v-4.4h5.9v-3.3h1.3v1.1h6.2v1h-6.2v1.2h6.5c0,0,.9.2.9.2-.4,1-.8,2.2-1.2,2.9l-1.1-.3c.3-.4.5-1.1.7-1.7h-5.9v1.1l4.6-.3v.9c0,0-4.6.3-4.6.3v.4c0,.5.1.7.7.7h4.2c.5,0,1.5,0,1.9-.1,0,.3,0,.7.1,1-.3,0-1.1,0-1.9,0h-4.4c-1.5,0-1.9-.5-1.9-1.6v-.3l-3.6.2v-.9c0,0,3.6-.2,3.6-.2v-1.2h-4.6v3.3c0,1.3,0,2.9-.3,4.4,1.2-1,2.2-2.5,2.7-4.2l1.1.3c-.1.4-.3.8-.5,1.2h2.2s.7.1.7.1ZM286.1,610.9c0,.1-.1.3-.2.4.3.9.6,1.6,1,2.2.6-.7,1-1.6,1.3-2.6h-2.1ZM294.7,614.6c-.9,0-1.2-.2-1.2-1.1v-2.5h-1.8v.4c0,1.2-.3,2.6-1.7,3.7-.2-.2-.6-.6-.8-.8,1.2-.9,1.4-2,1.4-2.9v-1.4h4v3.5c0,.3,0,.4.3.4h.7c.2,0,.3-.2.3-1.2.2.1.6.3.8.3,0,1.2-.3,1.6-1,1.6h-1Z"/>
      </g>
      <g>
        <path d="M250.2,641.8h-5.1v-1.1h5.1v1.1ZM251.6,651.1c-1.4.9-3.7,1.7-5.5,2.2-.2-.3-.7-.8-1-1,1.8-.4,4-1,5.3-1.7l1.2.5ZM249.7,639h-4.3v-1h4.3v1ZM247.4,643.2h11.6v7.2h-11.6v-7.2ZM248.7,645.3h9v-1.2h-9v1.2ZM248.7,647.4h9v-1.2h-9v1.2ZM248.7,649.5h9v-1.3h-9v1.3ZM253,639.1c-.4.7-.9,1.3-1.4,1.8-.2-.2-.7-.5-1-.7.9-.8,1.7-2.1,2.1-3.4l1.2.3c-.1.3-.3.7-.4,1h6.2c0,0,.9.3.9.3-.5.9-1,2-1.5,2.6l-1.1-.4c.3-.4.6-.9.8-1.4h-2.9v.2c0,.2,0,.4,0,.6,1,1.1,2.9,1.8,5.3,2-.3.3-.6.7-.8,1.1-2.1-.3-3.8-1-4.9-2.1-.6.9-2,1.7-5.2,2.2-.1-.3-.5-.8-.7-1,4.7-.6,5.1-1.9,5.1-2.8v-.2h-1.9ZM255.7,650.5c1.9.6,4,1.4,5.3,1.9l-1.2.8c-1.2-.6-3.1-1.4-5-2l.9-.7Z"/>
        <path d="M269.5,641h-6.5v-1.1h6.5v1.1ZM268.8,652.2h-4v.8h-1.1v-6h5.1v5.2ZM263.7,643.3v-1.1h5.1v1.1h-5.1ZM263.7,644.6h5.1v1.1h-5.1v-1.1ZM264.8,648.1v3h2.9v-3h-2.9ZM266.2,639.7c-.3-.6-.8-1.7-1.3-2.4l1-.5c.5.7,1,1.7,1.3,2.3l-1,.6ZM277.5,637.9c-.1,7.3-.1,13.5.9,13.8.1,0,.2-1.1.3-2.4.2.3.6.8.8,1-.2,2.5-.8,3.1-1.6,2.8-1.8-.5-1.7-6.4-1.7-13.8h-3v5.3h2.4v1.2h-2.4v7.6h-1.3v-7.6h-2.4v-1.2h2.4v-5.3h-2.2v-1.3h7.8Z"/>
        <path d="M289.6,646.4c-.3,1.7-1,3.1-1.8,4.2,1.3,1.1,3,1.3,5.1,1.3s3.9,0,4.6,0c-.2.3-.4.8-.4,1.1h-4.3c-2.4,0-4.4-.3-5.8-1.6-1,.9-2.1,1.5-3.3,2-.1-.3-.4-.7-.6-.9,1.2-.4,2.3-1,3.2-1.9-.4-.5-.7-1.2-1-2-.4.5-.8.9-1.2,1.3-.1-.2-.5-.5-.8-.7-.3,1.5-.7,3-1.4,4.2-.2-.3-.8-.7-1-.8,1.4-2.3,1.5-5.6,1.5-8v-4.4h5.9v-3.3h1.3v1.1h6.2v1h-6.2v1.2h6.5c0,0,.9.2.9.2-.4,1-.8,2.2-1.2,2.9l-1.1-.3c.3-.4.5-1.1.7-1.7h-5.9v1.1l4.6-.3v.9c0,0-4.6.3-4.6.3v.4c0,.5.1.7.7.7h4.2c.5,0,1.5,0,1.9-.1,0,.3,0,.7.1,1-.3,0-1.1,0-1.9,0h-4.4c-1.5,0-1.9-.5-1.9-1.6v-.3l-3.6.2v-.9c0,0,3.6-.2,3.6-.2v-1.2h-4.6v3.3c0,1.3,0,2.9-.3,4.4,1.2-1,2.2-2.5,2.7-4.2l1.1.3c-.1.4-.3.8-.5,1.2h2.2s.7.1.7.1ZM286.1,647.2c0,.1-.1.3-.2.4.3.9.6,1.6,1,2.2.6-.7,1-1.6,1.3-2.6h-2.1ZM294.7,650.9c-.9,0-1.2-.2-1.2-1.1v-2.5h-1.8v.4c0,1.2-.3,2.6-1.7,3.7-.2-.2-.6-.6-.8-.8,1.2-.9,1.4-2,1.4-2.9v-1.4h4v3.5c0,.3,0,.4.3.4h.7c.2,0,.3-.2.3-1.2.2.1.6.3.8.3,0,1.2-.3,1.6-1,1.6h-1Z"/>
      </g>
      <g>
        <path d="M248.2,681.1c-.7-.6-2.2-1.4-3.3-1.9l.7-1c1.1.5,2.6,1.2,3.3,1.8l-.7,1.1ZM245.5,688.5c1-1.4,2.4-3.7,3.4-5.8l1,.9c-.9,1.9-2.2,4.1-3.3,5.8l-1.1-.9ZM246.6,673.4c1.2.5,2.7,1.3,3.4,1.9l-.8,1.1c-.7-.6-2.2-1.5-3.4-2l.7-1ZM259.8,689.6c-.2-.5-.5-1.1-.8-1.8-6.7.8-7.4,1-7.9,1.2,0-.3-.3-1-.5-1.3.3,0,.7-.5,1.2-1.2.4-.5,1.6-2.4,2.5-4.5h-4v-1.3h4.6v-3.2h-3.8v-1.3h3.8v-3.1h1.3v3.1h4v1.3h-4v3.2h4.7v1.3h-5.1c-.9,1.9-2.1,3.8-3.2,5.3l5.7-.6c-.5-.8-1-1.6-1.6-2.3l1.1-.5c1.3,1.6,2.6,3.7,3.2,5.1l-1.2.6Z"/>
        <path d="M268.6,678.9h4.3v1.2h-4.3v1.8h3.7v4.9c0,.6,0,1-.5,1.2-.4.2-1.1.2-2.1.2,0-.4-.2-.8-.4-1.2.8,0,1.4,0,1.5,0,.2,0,.3,0,.3-.2v-3.7h-2.5v6.5h-1.3v-6.5h-2.3v5h-1.2v-6.2h3.5v-1.8h-4.4v-1.2h4.4v-1.9h-2.3c-.3.7-.6,1.4-.9,1.9-.3-.2-.9-.4-1.2-.5.8-1.2,1.4-3,1.8-4.7l1.3.3c-.2.6-.3,1.3-.5,1.9h1.9v-2.5h1.3v2.5h3.6v1.2h-3.6v1.9ZM275.5,684.7h-1.3v-9.9h1.3v9.9ZM278.7,673.4v14.4c0,.9-.2,1.3-.7,1.5-.6.2-1.5.3-2.9.3,0-.4-.3-1-.4-1.4,1.1,0,2.1,0,2.4,0,.3,0,.4,0,.4-.4v-14.4h1.3Z"/>
        <path d="M289.6,682.7c-.3,1.7-1,3.1-1.8,4.2,1.3,1.1,3,1.3,5.1,1.3s3.9,0,4.6,0c-.2.3-.4.8-.4,1.1h-4.3c-2.4,0-4.4-.3-5.8-1.6-1,.9-2.1,1.5-3.3,2-.1-.3-.4-.7-.6-.9,1.2-.4,2.3-1,3.2-1.9-.4-.5-.7-1.2-1-2-.4.5-.8.9-1.2,1.3-.1-.2-.5-.5-.8-.7-.3,1.5-.7,3-1.4,4.2-.2-.3-.8-.7-1-.8,1.4-2.3,1.5-5.6,1.5-8v-4.4h5.9v-3.3h1.3v1.1h6.2v1h-6.2v1.2h6.5c0,0,.9.2.9.2-.4,1-.8,2.2-1.2,2.9l-1.1-.3c.3-.4.5-1.1.7-1.7h-5.9v1.1l4.6-.3v.9c0,0-4.6.3-4.6.3v.4c0,.5.1.7.7.7h4.2c.5,0,1.5,0,1.9-.1,0,.3,0,.7.1,1-.3,0-1.1,0-1.9,0h-4.4c-1.5,0-1.9-.5-1.9-1.6v-.3l-3.6.2v-.9c0,0,3.6-.2,3.6-.2v-1.2h-4.6v3.3c0,1.3,0,2.9-.3,4.4,1.2-1,2.2-2.5,2.7-4.2l1.1.3c-.1.4-.3.8-.5,1.2h2.2s.7.1.7.1ZM286.1,683.6c0,.1-.1.3-.2.4.3.9.6,1.6,1,2.2.6-.7,1-1.6,1.3-2.6h-2.1ZM294.7,687.3c-.9,0-1.2-.2-1.2-1.1v-2.5h-1.8v.4c0,1.2-.3,2.6-1.7,3.7-.2-.2-.6-.6-.8-.8,1.2-.9,1.4-2,1.4-2.9v-1.4h4v3.5c0,.3,0,.4.3.4h.7c.2,0,.3-.2.3-1.2.2.1.6.3.8.3,0,1.2-.3,1.6-1,1.6h-1Z"/>
      </g>
    </g>
    <line class="st2" x1="180.4" y1="590.6" x2="199.4" y2="590.6"/>
  </g>
  <g>
    <rect class="st5" x="202.7" y="741.9" width="32" height="112" rx="5" ry="5"/>
    <g>
      <path class="st4" d="M216.3,770.6h-5.7v-1.3h5.7v1.3ZM215.8,763.2h-4.7v-1.3h4.7v1.3ZM221.1,765.6c0,.3,0,.5,0,.8.8,3.8,2.6,6.7,5.9,7.8-.3.3-.7.8-.9,1.2-2.7-1.1-4.4-3.2-5.4-6.1-.6,2.2-2.1,4.5-5.5,6.3-.2-.3-.7-.8-1-1,5.2-2.6,5.6-6.4,5.6-8.9v-1.4h1.4v1.4ZM218.2,763.5c-.6,1.5-1.2,2.8-1.9,3.8-.3-.2-1-.6-1.3-.8,1.4-1.7,2.4-4.6,2.9-7.4l1.4.3c-.2,1-.4,1.9-.7,2.8h6.8c0,0,1,.4,1,.4-.5,1.7-1.3,3.6-1.9,4.9-.3-.2-.8-.4-1.1-.6.4-.8,1-2.2,1.3-3.4h-6.5Z"/>
      <path class="st4" d="M216.6,789.6c0-.3-.1-.6-.3-1-4.2.6-4.7.8-5.1,1,0-.3-.3-.9-.4-1.3.4,0,.8-.5,1.3-1.2.3-.3.9-1.1,1.5-2-1.9.2-2.3.3-2.5.4,0-.3-.3-.9-.4-1.2.3,0,.6-.4,1-1,.4-.5,1.6-2.6,2.4-4.5l1.3.5c-.8,1.7-1.8,3.4-2.8,4.8l1.9-.2c.5-.8,1-1.6,1.4-2.4l1.2.7c-1.2,2.1-2.6,4.1-4.1,5.8l3.1-.5c-.2-.6-.4-1.1-.7-1.6l1-.3c.6,1.2,1.2,2.7,1.3,3.7l-1,.4ZM212.6,790.6c-.2,1.5-.5,3.2-.9,4.3-.2-.1-.8-.3-1-.4.4-1.1.7-2.7.9-4.1l1.1.2ZM214.4,790.3c.2,1.1.4,2.6.5,3.6l-1,.2c0-1-.2-2.5-.4-3.6l1-.2ZM216.4,789.9c.4.9.8,2.1.9,2.9l-1,.3c-.1-.8-.5-2-.9-3l1-.3ZM226.4,785.1c-.5,2.6-1.4,4.8-2.6,6.5.9,1.1,1.9,2,3.2,2.5-.3.3-.7.8-.9,1.1-1.2-.6-2.2-1.5-3.1-2.6-.9,1.1-2,2-3.2,2.7-.2-.3-.5-.8-.8-1,1.2-.6,2.3-1.6,3.3-2.8-.9-1.5-1.5-3.2-2-5.1-.3,3.6-1,6.5-2.7,8.8-.2-.2-.8-.7-1.2-.8,2.4-2.9,2.7-7.5,2.8-13.4h-1.8v-1.3h6.6c0,0,.9,0,.9,0-.2,1.5-.5,3.4-.8,5h1.5c0,0,.8.2.8.2ZM220.5,781c0,1.3,0,2.6-.1,3.9h2.5c.2-1.2.5-2.7.7-3.9h-3ZM221.3,786.1c.4,1.6,1,3.1,1.8,4.4.8-1.3,1.4-2.7,1.8-4.4h-3.6Z"/>
      <path class="st4" d="M214.7,808.3c-.2-.5-.6-1.3-1-2.1v8.9h-1.2v-8.6c-.5,1.9-1.1,3.6-1.7,4.7-.1-.4-.4-1-.6-1.3.9-1.5,1.7-4.2,2.2-6.6h-1.8v-1.3h1.9v-3.5h1.2v3.5h1.4v1.3h-1.4v1.2c.4.6,1.4,2.3,1.6,2.7l-.6,1ZM225.7,809.6c-.6,1.1-1.3,2-2.2,2.9.5.8,1.2,1.2,1.9,1.3.4,0,.6-.6.8-1.9.2.3.7.6.9.7-.3,2-.9,2.6-1.6,2.6-1.2,0-2.1-.7-2.8-1.8-.9.7-2,1.3-3.2,1.7-.1-.2-.5-.6-.7-.8,1.2-.5,2.4-1.1,3.3-1.9-.4-.9-.8-2-1-3.3h-2.9v.3c0,.1,0,.3,0,.4.9.7,1.9,1.6,2.5,2.1l-.8.8c-.4-.4-1.1-1.1-1.8-1.7-.3,1.4-1.1,3-2.6,4.2-.2-.3-.6-.7-.9-.8,2.1-1.5,2.6-3.6,2.6-5.1v-.3h-1.4v-1.1h5.3c-.4-2.6-.7-5.7-.8-9.1h1.2c0,3.5.3,6.6.8,9.1h2.6c-.4-.4-1.1-.8-1.6-1.2l.7-.6c.6.4,1.5.9,1.9,1.3l-.5.5h1.5v1.1h-4.3c.2,1,.5,1.8.8,2.5.7-.7,1.2-1.5,1.6-2.3l1.2.4ZM219.3,806.9c0-.2-.1-.5-.2-.8-2.6.4-3,.5-3.2.6,0-.2-.2-.7-.3-1,.3,0,.6-.4.9-.8.2-.2.6-.8,1.2-1.6-1.4.2-1.7.3-1.9.4,0-.2-.2-.7-.3-1,.2,0,.4-.3.7-.7.3-.4,1.1-1.7,1.5-3.1l1,.3c-.5,1.2-1.2,2.4-1.8,3.3h1.4c.2-.5.4-.9.6-1.4l1,.4c-.8,1.4-1.7,2.9-2.7,4l1.7-.2c-.1-.4-.3-.8-.4-1.1l.8-.2c.4.9.8,2,.9,2.7l-.9.3ZM225.8,806.6c0-.2-.1-.5-.2-.8-2.6.4-3,.5-3.3.6,0-.2-.2-.8-.4-1,.3,0,.6-.4.9-.8.2-.2.6-.8,1.1-1.6-1.3.2-1.6.3-1.8.4,0-.2-.2-.7-.3-1,.2,0,.4-.3.6-.6.2-.3.9-1.6,1.3-2.8l1,.3c-.5,1.1-1,2.1-1.6,3h1.3c.2-.5.5-1,.6-1.4l1,.4c-.8,1.5-1.7,2.9-2.6,4l1.8-.3c-.1-.4-.3-.7-.4-1.1l.8-.2c.4.8.8,2,1,2.7l-.9.3Z"/>
      <path class="st4" d="M217.6,827.6c.4.6.8,1.5,1,2l-.6.3h.2v1.6c0,1.3-.3,2.6-2.6,3.4-.1-.2-.4-.6-.6-.8,1.2-.4,1.7-.8,2-1.4h-2.4v-2.5h.9v1.7h1.7c0-.1,0-.2,0-.4v-1.6h.7c0-.1-.1-.3-.2-.6-2.8.3-3.3.4-3.5.5,0-.2-.2-.6-.3-.9.3,0,.6-.2,1-.5.2-.1.6-.5,1.1-.9-1.2,0-1.5.1-1.7.2,0-.2-.2-.7-.3-.9.2,0,.4-.1.6-.3.2-.2.9-.9,1.3-1.6h-3.1v10.2h-1.3v-15.7h6.6v5.5h-1.9l.6.3c-.4.6-.9,1.2-1.4,1.6h1.3c.3-.4.6-.7.8-1l.8.5c-.9.9-1.8,1.8-2.7,2.5h1.8c-.1-.4-.3-.6-.4-.9l.7-.2ZM212.6,820.2v1.4h4v-1.4h-4ZM212.6,823.7h4v-1.3h-4v1.3ZM226.2,833.2c0,.7-.1,1.2-.6,1.4-.5.2-1.2.3-2.3.3,0-.4-.2-1-.4-1.3.8,0,1.5,0,1.8,0,.2,0,.3,0,.3-.3v-8.5h-4l.7.3c-.4.6-.9,1.2-1.4,1.6h1.3c.3-.4.5-.7.8-1l.8.5c-.8.9-1.8,1.8-2.7,2.5h1.8c-.1-.4-.3-.6-.4-.9l.7-.2c.4.6.8,1.5,1,1.9l-.7.3c0-.2-.2-.4-.3-.6-2.8.3-3.3.3-3.5.5,0-.2-.2-.6-.3-.9.3,0,.6-.2,1-.5.2-.1.6-.5,1.1-1-1.2,0-1.5.1-1.7.2,0-.2-.2-.7-.3-.9.2,0,.4-.1.6-.3s.9-.9,1.3-1.7h-1.1v-5.5h6.7v14ZM222,833.2v-.6h-1.7v2h-1v-4.8h1v1.9h1.7v-1.7h1v3.1h-1ZM220.8,820.2v1.4h4.1v-1.4h-4.1ZM224.9,823.7v-1.3h-4.1v1.3h4.1Z"/>
    </g>
    <g>
      <g>
        <path d="M252.9,783.4c-.2.8-.6,1.6-1.5,2.4.8.4,1.5.7,2.1,1.1l-.9.8c-.6-.4-1.4-.8-2.2-1.2-1.2.6-2.8,1.1-5,1.5-.1-.3-.4-.7-.6-.9,1.9-.3,3.3-.7,4.3-1.2-.9-.4-1.9-.7-2.8-1,.3-.4.6-.8.9-1.2h-2.1c0,.1-.1-.9-.1-.9.8,0,1.8,0,2.9-.1.3-.5.6-1,.8-1.4h-2.9v-2.9h3.4v-.7h-2.9v-1.9h-1.2v-1h1.2v-1.8h2.9v-1.3h1.1v1.3h3.1v1.8h1.2v1h-1.2v1.9h-3.1v.7h3.5v2.9h-3.8c-.2.5-.5.9-.8,1.4.9,0,1.8,0,2.7-.1v-.8h1.1v.7h0c0,0,.9,0,.9,0v.9s-1,0-1,0ZM246.9,780.4h2.3v-1.1h-2.3v1.1ZM247.4,773.7v1h1.7v-1h-1.7ZM249.1,776.7v-1.1h-1.7v1.1h1.7ZM248.5,783.6c-.2.3-.4.6-.6.8.7.2,1.5.5,2.3.8.9-.6,1.3-1.2,1.5-1.8l-3.2.2ZM250.2,773.7v1h1.9v-1h-1.9ZM252.1,776.7v-1.1h-1.9v1.1h1.9ZM250.2,779.3v1.1h2.3v-1.1h-2.3ZM260,776.2c-.3,2.7-.8,5-1.6,6.9.8,1.6,1.8,2.9,3,3.7-.3.2-.6.6-.8,1-1.2-.8-2.1-2-2.8-3.4-.8,1.5-1.9,2.7-3.3,3.7-.1-.3-.5-.8-.7-1,1.5-1,2.6-2.4,3.4-4.1-.6-1.4-1-3-1.3-4.8-.3.7-.6,1.4-1,2-.2-.2-.6-.6-.9-.8,1.2-1.9,1.9-4.8,2.3-7.8l1.1.2c-.1,1-.3,2.1-.6,3.1h4.4v1.2h-1.2ZM256.5,776.2c.3,1.9.7,3.7,1.2,5.3.5-1.5.8-3.3,1-5.3h-2.3Z"/>
        <path d="M268.6,772c-.5,1.3-1.1,2.6-1.8,3.8v12.2h-1.3v-10.1c-.6.8-1.2,1.5-1.8,2.2-.1-.3-.5-1-.8-1.3,1.8-1.7,3.4-4.4,4.4-7.1l1.3.4ZM279.2,786v1.3h-11.2v-1.3h6.3c.6-2.4,1.4-6.2,1.7-8.9l1.4.3c-.5,2.8-1.2,6.3-1.9,8.7h3.7ZM278.5,776.1h-9.7v-1.3h9.7v1.3ZM271.2,785.1c-.1-1.9-.7-5.2-1.2-7.7l1.2-.3c.6,2.5,1.1,5.7,1.3,7.6l-1.3.4ZM273.2,774.6c-.1-.8-.5-2-.8-2.9l1.3-.3c.3.9.7,2.1.9,2.8l-1.3.4Z"/>
        <path d="M283.7,778.8v2.7c0,2-.3,4.8-1.9,6.6-.2-.3-.7-.7-1-.9,1.5-1.7,1.6-4,1.6-5.8v-3.8h2.3c-.2-.2-.5-.5-.6-.7,1.4-.3,3.1-.6,4.6-1.1-1.4-.4-2.8-.8-4.1-1l.8-.6h-2.9v-1.1h6.6c-.3-.5-.6-.9-1-1.3l1-.5c.5.5,1,1.3,1.4,1.8h6v1.1h-2.7l.7.4c-.8.4-1.7.8-2.8,1.2,1.3.4,2.5.8,3.4,1.1l-.7.7h2.6v1.1h-13.4ZM297.3,786.3v1.1h-13.3v-1.1h5.9v-1.8h-4.2v-1.1h4.2v-1.6h-3.8c-.5.9-1.1,1.6-1.7,2.2-.1-.2-.5-.9-.7-1.1,1-.9,1.9-2.3,2.4-3.8l1.2.3c-.2.4-.3.8-.5,1.2h3.2v-1.5h1.3v1.5h4.8v1.1h-4.8v1.6h4.4v1.1h-4.4v1.8h6.1ZM294,777.7c-1-.4-2.4-.8-3.8-1.3-1.6.5-3.3.9-4.9,1.3h8.7ZM285.7,774.3c1.4.3,3,.8,4.5,1.2,1.2-.4,2.2-.8,3-1.2h-7.5Z"/>
        <path d="M305.6,785.1c-1.3,1-3.7,1.9-5.5,2.3-.2-.3-.5-.8-.8-1,1.9-.3,4.1-1,5.3-1.8l1,.5ZM315,782.6v1.1h-7.2v4.3h-1.3v-4.3h-7.1v-1.1h7.1v-1.4h-5.4v-1h5.4v-1.3h-6.3v-1.1h3.9c-.2-.5-.5-1.2-.9-1.7l1-.3h-4.6v-1.1h2.9c-.3-.7-.9-1.8-1.4-2.6l1.1-.4c.6.8,1.3,1.9,1.5,2.6l-.9.4h2.2v-3.2h1.3v3.2h2.1v-3.2h1.3v3.2h2.2l-.7-.2c.5-.7,1.1-1.9,1.4-2.7l1.4.4c-.5.9-1.1,1.9-1.6,2.6h2.8v1.1h-4.7l1.2.3c-.4.6-.8,1.2-1.2,1.7h4.1v1.1h-6.5v1.3h5.6v1h-5.6v1.4h7.2ZM304.4,775.9c.4.6.8,1.3,1,1.8l-.7.2h5l-.6-.2c.4-.5.8-1.3,1.1-1.8h-5.6ZM309.7,784.5c1.7.6,4,1.4,5.2,2l-.8.8c-1.2-.6-3.5-1.5-5.2-2.1l.8-.7Z"/>
        <path d="M327.2,780.7c-.8.4-1.7.8-2.6,1.2h6.8v6h-1.3v-.5h-7.9v.6h-1.3v-4.6c-1.1.4-2.3.7-3.5,1-.1-.3-.5-.9-.7-1.2,2.6-.6,5.3-1.4,7.7-2.4h-7.4v-1.1h6.7v-1.4h-5v-1.1h5v-1.3h-5.7v-3.7h13.9v3.7h-6.9v1.3h4v.9c.7-.5,1.3-1,1.9-1.5l1,.7c-.9.9-1.9,1.7-3.1,2.4h4v1.1h-5.9ZM322.4,773.2h-2.9v1.7h2.9v-1.7ZM330.1,783h-7.9v1.2h7.9v-1.2ZM330.1,786.4v-1.3h-7.9v1.3h7.9ZM326.5,775v-1.7h-3v1.7h3ZM326.8,779.6c.8-.4,1.5-.9,2.2-1.4h-3.8v1.4h1.6ZM327.8,775h3v-1.7h-3v1.7Z"/>
      </g>
      <g>
        <path d="M250.2,812.8h-5.1v-1.1h5.1v1.1ZM251.6,822.1c-1.4.9-3.7,1.7-5.5,2.2-.2-.3-.7-.8-1-1,1.8-.4,4-1,5.3-1.7l1.2.5ZM249.7,810h-4.3v-1h4.3v1ZM247.4,814.2h11.6v7.2h-11.6v-7.2ZM248.7,816.4h9v-1.2h-9v1.2ZM248.7,818.5h9v-1.2h-9v1.2ZM248.7,820.6h9v-1.3h-9v1.3ZM253,810.2c-.4.7-.9,1.3-1.4,1.8-.2-.2-.7-.5-1-.7.9-.8,1.7-2.1,2.1-3.4l1.2.3c-.1.3-.3.7-.4,1h6.2c0,0,.9.3.9.3-.5.9-1,2-1.5,2.6l-1.1-.4c.3-.4.6-.9.8-1.4h-2.9v.2c0,.2,0,.4,0,.6,1,1.1,2.9,1.8,5.3,2-.3.3-.6.7-.8,1.1-2.1-.3-3.8-1-4.9-2.1-.6.9-2,1.7-5.2,2.2-.1-.3-.5-.8-.7-1,4.7-.6,5.1-1.9,5.1-2.8v-.2h-1.9ZM255.7,821.6c1.9.6,4,1.4,5.3,1.9l-1.2.8c-1.2-.6-3.1-1.4-5-2l.9-.7Z"/>
        <path d="M267.3,816.5c-.3,1.6-.9,3.3-1.5,4.6.4.2.8.5,1.5.9,1.3.8,2.9.9,5,.9s5.2-.2,7.2-.4c-.2.4-.4,1-.4,1.4-1.4,0-4.8.2-6.9.2s-3.9-.2-5.3-1c-.7-.4-1.4-1-1.8-1s-1,1.1-1.5,2.3l-.9-1.2c.6-.9,1.2-1.6,1.8-2,.5-1,1-2.4,1.3-3.7h-2.3c.5-1.1,1.1-2.6,1.5-4h-2v-1.2h3.7c-.4,1.3-1,2.8-1.5,4.1h1.5c0,0,.6.2.6.2ZM264.9,811.3c-.2-.8-.6-2-.9-3l1.2-.3c.3.9.7,2.1,1,2.9l-1.2.4ZM269.9,821.7h-1.3v-9.3h5.1c-1.1-.5-2.4-1.1-3.4-1.5l.8-.7c.8.3,1.7.6,2.5,1,.9-.4,1.7-.9,2.5-1.4h-7.5v-1.1h9.1c0,0,.8.6.8.6-1,.9-2.3,1.8-3.6,2.5.5.3,1,.5,1.4.7h2.3v7.9c0,.7-.1,1-.6,1.2-.5.2-1.2.2-2.4.2,0-.3-.2-.8-.4-1.1.8,0,1.6,0,1.8,0s.3,0,.3-.3v-1.6h-3.1v2.9h-1.2v-2.9h-3v3ZM269.9,813.4v1.6h3v-1.6h-3ZM272.9,817.6v-1.6h-3v1.6h3ZM277.3,813.4h-3.1v1.6h3.1v-1.6ZM277.3,817.6v-1.6h-3.1v1.6h3.1Z"/>
        <path d="M293.2,816.4c-.5,1.6-1.2,2.9-2.1,4,2.2.9,4.2,1.9,5.5,2.8l-1,1.2c-1.3-.9-3.3-2-5.6-2.9-1.8,1.5-4.3,2.4-7.7,3-.1-.4-.6-1-.8-1.3,3.1-.4,5.4-1.1,7.1-2.3-1.7-.7-3.4-1.3-5-1.8.5-.7,1.1-1.6,1.7-2.5h-3.9v-1.3h4.6c.6-1.1,1.1-2.2,1.5-3.1l1.5.3c-.4.9-.8,1.9-1.4,2.9h4.4c.1-.6.2-1.2.3-1.8h1.6c0,.7-.2,1.3-.3,1.8h3.3v1.3h-3.6ZM283.2,813.6h-1.3v-3.6h6.7c-.3-.6-.6-1.3-.9-1.8l1.4-.4c.4.7.8,1.6,1.1,2.2h6.2v3.6h-1.4v-2.4h-11.8v2.4ZM286.9,816.4c-.4.7-.8,1.4-1.2,1.9,1.3.4,2.7.9,4,1.5.8-.9,1.5-2,1.9-3.4h-4.8Z"/>
        <path d="M307.8,808.4c1.7,2.5,4.8,5,7.6,6.1-.3.3-.8.8-1,1.1-2.7-1.3-5.5-3.6-7.4-6-1.9,2.3-4.9,4.8-7.5,6.2-.2-.4-.5-.8-.8-1.1,2.3-1.1,5-3.1,6.8-5.1h-3.2v-1.3h5.5ZM307.7,822.6h7v1.2h-15.2v-1.2h6.8v-3h-5v-1.2h5v-2.7h-4.3v-1.2h10v1.2h-4.4v2.7h5.1v1.2h-5.1v3Z"/>
        <path d="M327.2,817.1c-.8.4-1.7.8-2.6,1.2h6.8v6h-1.3v-.5h-7.9v.6h-1.3v-4.6c-1.1.4-2.3.7-3.5,1-.1-.3-.5-.9-.7-1.2,2.6-.6,5.3-1.4,7.7-2.4h-7.4v-1.1h6.7v-1.4h-5v-1.1h5v-1.3h-5.7v-3.7h13.9v3.7h-6.9v1.3h4v.9c.7-.5,1.3-1,1.9-1.5l1,.7c-.9.9-1.9,1.7-3.1,2.4h4v1.1h-5.9ZM322.4,809.6h-2.9v1.7h2.9v-1.7ZM330.1,819.3h-7.9v1.2h7.9v-1.2ZM330.1,822.7v-1.3h-7.9v1.3h7.9ZM326.5,811.3v-1.7h-3v1.7h3ZM326.8,816c.8-.4,1.5-.9,2.2-1.4h-3.8v1.4h1.6ZM327.8,811.3h3v-1.7h-3v1.7Z"/>
      </g>
    </g>
    <line class="st2" x1="180.4" y1="797.8" x2="199.4" y2="797.8"/>
  </g>
  <g>
    <g>
      <path d="M250.2,1050.9h-5.1v-1.1h5.1v1.1ZM251.6,1060.1c-1.4.9-3.7,1.7-5.5,2.2-.2-.3-.7-.8-1-1,1.8-.4,4-1,5.3-1.7l1.2.5ZM249.7,1048h-4.3v-1h4.3v1ZM247.4,1052.3h11.6v7.2h-11.6v-7.2ZM248.7,1054.4h9v-1.2h-9v1.2ZM248.7,1056.5h9v-1.2h-9v1.2ZM248.7,1058.6h9v-1.3h-9v1.3ZM253,1048.2c-.4.7-.9,1.3-1.4,1.8-.2-.2-.7-.5-1-.7.9-.8,1.7-2.1,2.1-3.4l1.2.3c-.1.3-.3.7-.4,1h6.2c0,0,.9.3.9.3-.5.9-1,2-1.5,2.6l-1.1-.4c.3-.4.6-.9.8-1.4h-2.9v.2c0,.2,0,.4,0,.6,1,1.1,2.9,1.8,5.3,2-.3.3-.6.7-.8,1.1-2.1-.3-3.8-1-4.9-2.1-.6.9-2,1.7-5.2,2.2-.1-.3-.5-.8-.7-1,4.7-.6,5.1-1.9,5.1-2.8v-.2h-1.9ZM255.7,1059.6c1.9.6,4,1.4,5.3,1.9l-1.2.8c-1.2-.6-3.1-1.4-5-2l.9-.7Z"/>
      <path d="M269.5,1050.1h-6.5v-1.1h6.5v1.1ZM268.8,1061.3h-4v.8h-1.1v-6h5.1v5.2ZM263.7,1052.4v-1.1h5.1v1.1h-5.1ZM263.7,1053.7h5.1v1.1h-5.1v-1.1ZM264.8,1057.2v3h2.9v-3h-2.9ZM266.2,1048.8c-.3-.6-.8-1.7-1.3-2.4l1-.5c.5.7,1,1.7,1.3,2.3l-1,.6ZM277.5,1046.9c-.1,7.3-.1,13.5.9,13.8.1,0,.2-1.1.3-2.4.2.3.6.8.8,1-.2,2.5-.8,3.1-1.6,2.8-1.8-.5-1.7-6.4-1.7-13.8h-3v5.3h2.4v1.2h-2.4v7.6h-1.3v-7.6h-2.4v-1.2h2.4v-5.3h-2.2v-1.3h7.8Z"/>
      <path d="M297.2,1059.6v1.3h-16.1v-1.3h7.2v-10.3h-6.3v-1.4h14.2v1.4h-6.5v10.3h7.4Z"/>
      <path d="M305.6,1059.5c-1.3,1-3.7,1.9-5.5,2.3-.2-.3-.5-.8-.8-1,1.9-.3,4.1-1,5.3-1.8l1,.5ZM315,1057v1.1h-7.2v4.3h-1.3v-4.3h-7.1v-1.1h7.1v-1.4h-5.4v-1h5.4v-1.3h-6.3v-1.1h3.9c-.2-.5-.5-1.2-.9-1.7l1-.3h-4.6v-1.1h2.9c-.3-.7-.9-1.8-1.4-2.6l1.1-.4c.6.8,1.3,1.9,1.5,2.6l-.9.4h2.2v-3.2h1.3v3.2h2.1v-3.2h1.3v3.2h2.2l-.7-.2c.5-.7,1.1-1.9,1.4-2.7l1.4.4c-.5.9-1.1,1.9-1.6,2.6h2.8v1.1h-4.7l1.2.3c-.4.6-.8,1.2-1.2,1.7h4.1v1.1h-6.5v1.3h5.6v1h-5.6v1.4h7.2ZM304.4,1050.2c.4.6.8,1.3,1,1.8l-.7.2h5l-.6-.2c.4-.5.8-1.3,1.1-1.8h-5.6ZM309.7,1058.9c1.7.6,4,1.4,5.2,2l-.8.8c-1.2-.6-3.5-1.5-5.2-2.1l.8-.7Z"/>
      <path d="M325.9,1056.5c1.4,1.6,4.3,3.3,7.5,4-.3.3-.6.8-.8,1.2-2.8-.7-5.1-2.2-6.7-3.7v4.3h-1.4v-4.4c-1.8,1.7-4.2,3.1-6.7,3.8-.2-.3-.5-.8-.8-1.1,3-.7,6-2.3,7.6-4.2v-1.5h-4.4v3.5h-1.4v-4.6h5.8v-1.4h-7.1v-1.2h7.1v-1.1h1.4v1.1h6.9v1.2h-6.9v1.4h5.8v3.3c0,.6-.1.9-.6,1.1-.5.2-1.2.2-2.2.2,0-.3-.3-.8-.5-1.1.7,0,1.4,0,1.6,0s.3,0,.3-.3v-2.1h-4.5v1.7ZM319.8,1048.3c-.6.9-1.2,1.7-1.9,2.3-.2-.2-.6-.7-.9-.9,1.1-1,2.1-2.4,2.7-3.9l1.2.3c-.1.4-.3.7-.5,1.1h4.6v1.1h-3.4c.6.5,1.3,1.2,1.6,1.6l-.9.8c-.3-.5-1.1-1.3-1.7-1.9l.7-.5h-1.5ZM327.2,1048.3c-.4.6-.9,1.2-1.4,1.7-.2-.2-.7-.6-1-.8,1-.8,1.8-2.1,2.2-3.3l1.2.3c-.1.4-.3.7-.5,1.1h5.4v1.1h-3.9c.6.5,1.4,1.2,1.8,1.6l-.9.8c-.4-.5-1.2-1.2-1.9-1.8l.8-.6h-2Z"/>
      <path d="M339.3,1054.5c-.3,1.6-.9,3.3-1.5,4.6.3.2.8.5,1.4.9,1.3.8,2.9.9,5,.9s5.2-.2,7.2-.4c-.2.4-.4,1-.4,1.4-1.3,0-4.8.2-6.9.2s-3.9-.2-5.3-1c-.7-.4-1.4-1-1.8-1s-1,1.1-1.5,2.3l-.9-1.2c.6-.9,1.3-1.6,1.8-2,.5-1,1-2.4,1.3-3.7h-2.4c.5-1.1,1.1-2.6,1.5-4h-2v-1.2h3.7c-.5,1.3-1,2.8-1.5,4.1h1.5c0,0,.6.2.6.2ZM336.9,1049.3c-.2-.8-.6-2-.9-3l1.2-.4c.3.9.7,2.1,1,2.9l-1.2.4ZM341,1051.4c-.4.6-.9,1.1-1.3,1.5-.2-.3-.6-.9-.8-1.2,1.6-1.4,2.9-3.5,3.7-5.8l1.2.3c-.3.9-.7,1.8-1.2,2.6h3.6c-.3-.7-.7-1.5-1.1-2.2l1.2-.4c.5.8,1,1.8,1.3,2.6h3.2v1.2h-3.9v1.7h3.3v1.1h-3.3v1.8h3.2v1.1h-3.2v1.9h4.2v1.2h-8.8v1h-1.3v-8.6ZM345.7,1050h-3.4v1.7h3.4v-1.7ZM345.7,1052.9h-3.4v1.8h3.4v-1.8ZM345.7,1055.8h-3.4v1.9h3.4v-1.9Z"/>
      <path d="M362.2,1046.3c0,.1-.2.2-.3.3,1.7,1.6,4.8,3.1,7.6,3.7-.3.2-.6.7-.8,1-1.5-.4-3-1-4.4-1.8v.6h-6.2v-.5c-1.4.8-2.9,1.4-4.4,1.8-.1-.2-.5-.8-.8-1,3.3-.9,6.4-2.4,8.1-4.6l1.2.4ZM355.1,1051h12v4.5h-12v-4.5ZM356.1,1056.4h10.1v5.9h-1.4v-.5h-7.5v.6h-1.3v-5.9ZM356.2,1054.7h4.2v-2.7h-4.2v2.7ZM358.3,1052.2c.5.6.9,1.5,1.1,2l-1,.4c-.1-.6-.6-1.4-1-2.1l1-.3ZM357.5,1057.4v1.2h7.5v-1.2h-7.5ZM364.9,1060.8v-1.2h-7.5v1.2h7.5ZM363.6,1049.2c-.9-.5-1.7-1.2-2.4-1.8-.7.7-1.5,1.3-2.3,1.8h4.7ZM365.9,1052h-4.3v2.7h4.3v-2.7ZM362.8,1054.3c.3-.6.8-1.5,1-2.2l1.1.4c-.4.8-.8,1.6-1.2,2.1l-.9-.3Z"/>
    </g>
    <g>
      <path d="M252.4,1086h-5.6v2.9h-1.3v-3.9h6.9v-1.2h-6.1v-1h13.6v1h-6.2v1.2h7v3.9h-1.3v-2.9h-5.7v4.1h-1.3v-4.1ZM259,1097.4c1,0,1.1-.3,1.2-2.1.3.2.8.4,1.2.4-.2,2.2-.6,2.7-2.3,2.7h-4.1c-2,0-2.6-.4-2.6-1.8v-.6h-4v.9h-1.3v-6.2h12.1v5.3h-5.6v.6c0,.6.2.7,1.3.7h4ZM247.1,1089.1c1.1-.1,2.7-.3,4.3-.6v.8c-1.3.3-2.7.6-3.9.8l-.4-1ZM248,1086.4c1.2.2,2.6.6,3.5.9l-.4.8c-.8-.4-2.3-.8-3.5-1l.4-.7ZM248.4,1091.8v1.2h4v-1.2h-4ZM252.4,1095.1v-1.2h-4v1.2h4ZM257.9,1091.8h-4.2v1.2h4.2v-1.2ZM257.9,1095.1v-1.2h-4.2v1.2h4.2ZM258.7,1090.2c-1-.3-2.8-.8-4.2-1l.3-.8c1.4.2,3.2.5,4.2.9l-.3.9ZM258.7,1087.1c-1,.4-2.5.8-3.5,1l-.5-.7c1-.2,2.5-.8,3.4-1.1l.6.8Z"/>
      <path d="M268,1082.7c-.4,1.2-.9,2.4-1.5,3.5v12.5h-1.2v-10.4c-.5.9-1.1,1.6-1.7,2.3-.1-.3-.5-.9-.7-1.2,1.6-1.7,3.1-4.4,4-7.1l1.2.4ZM279.1,1085.2v1.1h-11.4v-1.1h11.4ZM268.8,1092.9h9.1v5.7h-1.2v-.6h-6.8v.7h-1.2v-5.8ZM277.7,1088.9h-8.7v-1.1h8.7v1.1ZM269,1090.3h8.7v1.1h-8.7v-1.1ZM269.9,1094v2.8h6.8v-2.8h-6.8ZM273.1,1085.1c-.2-.6-.8-1.7-1.2-2.4l1.1-.5c.5.8,1.1,1.7,1.3,2.3l-1.2.5Z"/>
      <path d="M286.8,1091.3c-.7.2-1.5.4-2.2.6v5.1c0,.8-.2,1.1-.7,1.3-.5.2-1.2.3-2.4.2,0-.3-.3-.9-.4-1.2.9,0,1.6,0,1.9,0,.3,0,.4,0,.4-.3v-4.7l-2.2.6-.4-1.3c.7-.2,1.6-.4,2.5-.6v-3.9h-2.3v-1.3h2.3v-3.6h1.3v3.6h2v1.3h-2v3.6c.6-.2,1.3-.4,2-.6l.2,1.2ZM296.4,1089.3c-.8,2.5-2,4.4-3.7,5.9,1.3,1.1,2.8,1.8,4.6,2.3-.3.3-.7.8-.9,1.2-1.9-.6-3.5-1.4-4.8-2.6-1.5,1.2-3.3,2-5.1,2.6-.1-.4-.5-.9-.7-1.2,1.7-.5,3.4-1.2,4.9-2.3-1.3-1.4-2.3-3-3-4.9h0s-.6,0-.6,0v-1.2h3.9v-2.7h-4.2v-1.2h4.2v-2.8h1.3v2.8h4.3v1.2h-4.3v2.7h3.1c0,0,.9.3.9.3ZM289.1,1090.2c.6,1.6,1.5,3,2.6,4.1,1.2-1.1,2.3-2.5,2.9-4.1h-5.5Z"/>
      <path d="M303.6,1086.3c-.4.9-1,1.8-1.5,2.7v9.8h-1.2v-8.1c-.5.6-1,1.1-1.5,1.6-.1-.3-.6-.9-.8-1.2,1.5-1.2,3-3.2,3.9-5.2l1.2.4ZM303.2,1082.7c-.8,1.5-2.3,3.1-3.6,4.2-.1-.3-.5-.7-.7-1,1.2-.9,2.5-2.4,3.1-3.6l1.2.4ZM305.3,1089c0,3.5-.3,5.8-1.6,7.2-.1-.2-.5-.6-.7-.8,1.2-1.2,1.3-3.2,1.3-6.4h1ZM307.4,1087.8v10.8h-1.2v-10.8h-2.7v-1.2h2.7v-4.2h1.2v4.2h3v1.2h-3ZM309.7,1086.1c-.3-.6-1-1.7-1.6-2.4l.8-.5c.6.7,1.3,1.7,1.6,2.4l-.9.5ZM310.3,1094.7c.2,0,.4,0,.6,0,0,.3,0,.7,0,1-.2,0-.4,0-.7,0h-.6c-1,0-1.2-.4-1.2-1.6v-5h1v5c0,.5,0,.6.2.6h.7ZM315.3,1089.1h-1.6v7.8c0,.8-.1,1.1-.6,1.3-.5.2-1.3.2-2.6.2,0-.4-.2-.9-.4-1.3.9,0,1.8,0,2,0,.3,0,.3,0,.3-.3v-7.8h-2.1v-1.2h5v1.2ZM315.1,1084.9h-4.3v-1.2h4.3v1.2Z"/>
      <path d="M332.3,1085.5v8.4h-1.4v-1h-5.2v5.8h-1.4v-5.8h-5.1v1.1h-1.3v-8.5h6.5v-3.2h1.4v3.2h6.5ZM324.4,1091.5v-4.8h-5.1v4.8h5.1ZM330.9,1091.5v-4.8h-5.2v4.8h5.2Z"/>
      <path d="M337.9,1088.8c-.3,2.1-.8,5.1-1.6,7.1l-1.3-.6c.8-1.8,1.4-4.6,1.6-6.8l1.3.3ZM340.8,1087.2v8.9c0,.8.2,1,1.2,1h3.4c1.1,0,1.3-.6,1.4-3.7.3.3.9.5,1.3.6-.2,3.4-.6,4.4-2.6,4.4h-3.6c-1.9,0-2.5-.5-2.5-2.3v-8.9h1.4ZM341.2,1082.9c1.7,1.2,3.8,2.8,4.8,4l-1,1c-1-1.1-3.1-2.9-4.8-4.1l.9-.9ZM349,1088.1c1,2.1,2,4.9,2.4,6.8l-1.3.5c-.4-1.9-1.3-4.7-2.3-6.8l1.2-.5Z"/>
    </g>
    <g>
      <path d="M255.9,1120.6c1.7,1.5,3.8,3.7,4.8,5.2l-1.1.8c-.3-.5-.6-1-1.1-1.5-10.3.6-11.3.6-12,.9,0-.3-.3-1-.4-1.3.4,0,.9-.5,1.5-1.1.6-.6,2.7-2.8,4.1-5.1l1.3.6c-1.4,1.9-3,3.8-4.6,5.3l9.2-.5c-.8-.9-1.7-1.9-2.6-2.6l1.1-.7ZM247.4,1127.5h11.5v7.5h-1.4v-.9h-8.7v1h-1.4v-7.5ZM248.7,1128.8v4h8.7v-4h-8.7Z"/>
      <path d="M265.4,1126.4c-.5-.6-1.7-1.4-2.6-1.9l.8-.9c.9.5,2.1,1.2,2.6,1.8l-.8,1ZM263.2,1134.1c.6-1.4,1.6-3.7,2.3-5.7l1,.7c-.6,1.9-1.4,4.1-2.1,5.7l-1.2-.7ZM265.7,1121.7c-.5-.6-1.6-1.4-2.5-2l.8-.9c.9.5,2,1.3,2.5,1.9l-.8,1ZM267.7,1125.2c-.2.9-.5,1.9-.8,2.5-.1-.1-.5-.3-.7-.4.3-.6.5-1.4.7-2.2l.8.2ZM270.1,1124.5c0-.2-.1-.4-.2-.6-2.4.3-2.9.4-3.1.6,0-.2-.2-.5-.3-.7.3,0,.5-.3.8-.6.2-.2.6-.7,1.1-1.3-1.2.1-1.5.2-1.7.3,0-.2-.2-.5-.3-.7.2,0,.4-.2.6-.5.2-.3.8-1.3,1.1-2.2l.8.3c-.3.8-.8,1.5-1.2,2.1h1.2c.2-.3.3-.6.5-.9l.8.3c-.6,1-1.4,2.1-2.2,2.9l1.6-.2c-.1-.2-.2-.4-.3-.6l.7-.2c.4.6.7,1.3.9,1.8l-.7.3ZM278.5,1131.4s0,.4,0,.5c-.3,1.5-.7,2.3-1.2,2.7-.4.3-.8.3-1.4.3-.5,0-1.6,0-2.8,0,0-.3-.2-.7-.4-1,1.2.1,2.3.1,2.8.1s.6,0,.8-.1c.3-.2.5-.7.8-1.5h-9.5c.3-.8.6-1.8.8-2.7h8.1v-.9h-8.8v-.9h10v2.7h-8.3c0,.3-.2.6-.3.9h9.4ZM268.5,1127.4c0-.6-.2-1.5-.4-2.2l.7-.2c.2.7.4,1.6.4,2.1l-.7.3ZM270.1,1124.7c.3.6.6,1.4.6,1.9l-.7.3c0-.5-.3-1.4-.6-2l.7-.2ZM274.9,1121.2h-4.3v-.8h1.9c-.1-.4-.5-1-.7-1.4l.9-.2c.3.4.6,1,.8,1.4l-.8.2h2.2v.8ZM271,1124.6h3.4v2.6h-3.4v-2.6ZM274.4,1122.6h-3.3v-.8h3.3v.8ZM271.1,1123.2h3.3v.7h-3.3v-.7ZM271.9,1126.5h1.6v-1.2h-1.6v1.2ZM276,1125.2c-.2.9-.5,1.8-.8,2.5-.1-.1-.5-.4-.7-.5.4-.6.6-1.4.7-2.2l.8.2ZM278.5,1124.6c0-.2-.1-.4-.3-.7-2.5.3-2.9.5-3.2.5,0-.1-.2-.5-.3-.7.3,0,.5-.3.8-.6.2-.2.6-.7,1.1-1.4-1.2.1-1.5.2-1.7.3,0-.2-.2-.5-.3-.7.2,0,.3-.2.5-.5.2-.3.8-1.3,1.1-2.2l.8.3c-.3.7-.8,1.5-1.2,2.1h1.2c.2-.3.3-.6.5-.9l.8.4c-.6,1-1.4,2-2.2,2.9l1.6-.2c-.1-.2-.2-.4-.3-.6l.6-.3c.4.6.8,1.4.9,1.9l-.7.3ZM276.8,1127.6c0-.6-.2-1.6-.5-2.4l.7-.2c.3.8.4,1.7.5,2.3l-.7.2ZM278.4,1124.7c.4.7.7,1.7.8,2.3l-.7.3c0-.6-.4-1.6-.7-2.4l.6-.2Z"/>
      <path d="M282.7,1130.3c-.2,1.6-.5,3.2-.9,4.3-.2-.1-.7-.3-1-.4.4-1.1.7-2.7.8-4.1l1,.2ZM286.3,1125.4c.5,1.1,1,2.6,1.2,3.4l-1,.4c0-.3-.1-.6-.2-.9-4,.6-4.6.8-4.9.9,0-.3-.2-.8-.4-1.2.4,0,.8-.5,1.3-1.2.3-.3.8-1.1,1.5-2.1-1.9.2-2.3.3-2.5.4,0-.3-.3-.8-.4-1.2.3,0,.6-.5,1-1,.4-.5,1.6-2.6,2.3-4.5l1.1.5c-.8,1.7-1.7,3.5-2.7,4.8l1.9-.2c.5-.8.9-1.6,1.3-2.5l1,.6c-1.1,2.1-2.5,4.3-3.9,6l3.1-.4c-.2-.6-.4-1.2-.6-1.7l1-.3ZM284.5,1130c.3,1.2.4,2.7.5,3.8l-1,.3c0-1.1-.2-2.6-.4-3.9l.9-.2ZM286.4,1129.6c.4,1.1.9,2.5,1.1,3.5l-.9.3c-.2-1-.6-2.4-1-3.5l.9-.3ZM296.9,1133.5c0,.7-.1,1.1-.6,1.3-.4.2-1.2.2-2.3.2,0-.3-.2-.9-.3-1.2.8,0,1.5,0,1.7,0,.2,0,.3,0,.3-.3v-12.9h-6.7v14.4h-1.2v-15.6h9.2v14.1ZM294,1130.6c.3,0,.8,0,1.1,0,0,.3,0,.7.1,1-.2,0-.7,0-1.2,0h-2.3c-1.2,0-1.5-.4-1.5-1.6v-1.7h-.7v-1.1h2.4c-.2-.5-.5-1.1-.7-1.6l.8-.3h-2.8v-1.1h3.4c.3-.8.7-2.1.8-3l1,.3c-.3.9-.6,1.9-.9,2.7h1.5v1.1h-3c.3.5.6,1.2.8,1.6l-.6.3h2.7v1.1h-3.7v1.8c0,.5,0,.6.4.6h2.2ZM290.9,1121.1c.5.8.9,1.9,1,2.6l-.9.3c-.1-.7-.5-1.8-.9-2.6l.8-.3Z"/>
      <path d="M314.1,1120.7c-.6,1.9-1.5,3.5-2.6,4.8,1.1,1.1,2.5,2,4.1,2.6-.3.3-.6.8-.8,1.1-.2,0-.4-.2-.6-.3v5.9h-1.3v-.6h-4.5v.6h-1.2v-6c-.4.2-.7.3-1.1.5-.1-.3-.4-.6-.6-.9h-1.9v3.2c.8-.2,1.6-.4,2.4-.6v1.2c-2.3.6-4.9,1.2-6.8,1.7l-.3-1.3.9-.2v-6.1h1.1v5.9l1.4-.3v-7.3h-2.5v-5.5h5.8v4.8c1.4-1.4,2.6-3.4,3.3-5.5l1.3.3c-.2.5-.4,1-.6,1.5h3.7c0,0,.8.3.8.3ZM301,1123.7h3.4v-3.2h-3.4v3.2ZM305.7,1128.3c1.4-.6,2.9-1.6,4.1-2.8-.7-.8-1.2-1.7-1.7-2.5-.5.8-1.1,1.5-1.6,2.1-.2-.2-.6-.6-.9-.8v.5h-2.1v2.6h2.2v.9ZM313.3,1128.5c-1-.6-1.9-1.4-2.7-2.1-.8.8-1.7,1.5-2.7,2.1h5.4ZM312.9,1133.2v-3.5h-4.5v3.5h4.5ZM309,1121.6l-.2.3c.5.9,1,1.8,1.8,2.7.8-.9,1.4-1.9,1.8-3h-3.4Z"/>
      <path d="M322.2,1123.5h-5.1v-1.1h5.1v1.1ZM323.6,1132.8c-1.4.9-3.7,1.7-5.5,2.2-.2-.3-.7-.8-1-1,1.8-.4,4-1,5.3-1.7l1.2.5ZM321.7,1120.7h-4.3v-1h4.3v1ZM319.4,1124.9h11.6v7.2h-11.6v-7.2ZM320.7,1127.1h9v-1.2h-9v1.2ZM320.7,1129.2h9v-1.2h-9v1.2ZM320.7,1131.3h9v-1.3h-9v1.3ZM325,1120.9c-.4.7-.9,1.3-1.4,1.8-.2-.2-.7-.5-1-.7.9-.8,1.7-2.1,2.1-3.4l1.2.3c-.1.3-.3.7-.4,1h6.2c0,0,.9.3.9.3-.5.9-1,2-1.5,2.6l-1.1-.4c.3-.4.6-.9.8-1.4h-2.9v.2c0,.2,0,.4,0,.6,1,1.1,2.9,1.8,5.3,2-.3.3-.6.7-.8,1.1-2.1-.3-3.8-1-4.9-2.1-.6.9-2,1.7-5.2,2.2-.1-.3-.5-.8-.7-1,4.7-.6,5.1-1.9,5.1-2.8v-.2h-1.9ZM327.7,1132.3c1.9.6,4,1.4,5.3,1.9l-1.2.8c-1.2-.6-3.1-1.3-5-2l.9-.7Z"/>
      <path d="M341.5,1122.7h-6.5v-1.1h6.5v1.1ZM340.8,1133.9h-4v.8h-1.1v-6h5.1v5.2ZM335.7,1125.1v-1.1h5.1v1.1h-5.1ZM335.7,1126.3h5.1v1.1h-5.1v-1.1ZM336.8,1129.9v3h2.9v-3h-2.9ZM338.2,1121.4c-.3-.6-.8-1.7-1.3-2.4l1-.5c.5.7,1,1.7,1.3,2.3l-1,.6ZM349.5,1119.6c-.1,7.3-.1,13.5.9,13.8.1,0,.2-1.1.3-2.4.2.3.6.8.8,1-.2,2.5-.8,3.1-1.6,2.8-1.8-.5-1.7-6.4-1.7-13.8h-3v5.3h2.4v1.2h-2.4v7.6h-1.3v-7.6h-2.4v-1.2h2.4v-5.3h-2.2v-1.3h7.8Z"/>
      <path d="M368.3,1121.8v8.4h-1.4v-1h-5.2v5.8h-1.4v-5.8h-5.1v1.1h-1.3v-8.5h6.5v-3.2h1.4v3.2h6.5ZM360.4,1127.9v-4.8h-5.1v4.8h5.1ZM366.9,1127.9v-4.8h-5.2v4.8h5.2Z"/>
      <path d="M373.9,1125.2c-.3,2.1-.8,5.1-1.6,7.1l-1.3-.6c.8-1.8,1.4-4.6,1.6-6.8l1.3.3ZM376.8,1123.6v8.9c0,.8.2,1,1.2,1h3.4c1.1,0,1.3-.6,1.4-3.7.3.3.9.5,1.3.6-.2,3.4-.6,4.4-2.6,4.4h-3.6c-1.9,0-2.5-.5-2.5-2.3v-8.9h1.4ZM377.2,1119.2c1.7,1.2,3.8,2.8,4.8,4l-1,1c-1-1.1-3.1-2.9-4.8-4.1l.9-.9ZM385,1124.5c1,2.1,2,4.9,2.4,6.8l-1.3.5c-.4-1.9-1.3-4.7-2.3-6.8l1.2-.5Z"/>
    </g>
  </g>
  <g>
    <path d="M260.5,938.4v15.6h-1.3v-.8h-12.3v.8h-1.3v-15.6h14.9ZM259.2,952v-12.4h-12.3v12.4h12.3ZM253.2,949.3c-1.9.4-3.8.7-5.3,1l-.2-1c1.4-.2,3.4-.6,5.4-.9v.9ZM257.6,944.1c-.5,1.7-1.1,3.1-2,4.4.4,1,.8,1.6,1.4,1.7.2,0,.4-.7.5-1.8.2.2.6.5.9.6-.2,1.9-.8,2.6-1.8,2.3-.8-.2-1.4-.8-1.8-1.8-.7.8-1.5,1.5-2.4,2.1-.2-.2-.6-.6-.8-.9,1.1-.6,2-1.4,2.8-2.4-.5-1.4-.8-3.3-1-5.3h-5.5v-1h5.4c0-.6-.1-1.3-.1-1.9h1.2c0,.6,0,1.3.1,1.9h3.9v1h-3.8c.2,1.5.4,2.9.7,4.1.6-1,1-2.1,1.3-3.3l1.1.2ZM252.5,944.1v3.5h-4v-3.5h4ZM251.5,945h-2.1v1.9h2.1v-1.9ZM257.2,941.8c-.4-.4-1.2-1-1.9-1.3l.6-.7c.7.3,1.5.8,1.9,1.2l-.6.8Z"/>
    <path d="M277.4,944.9c-.8.7-1.8,1.4-2.8,2,.8,2.4,2.5,4.4,4.8,5.3-.3.3-.7.8-.9,1.1-2.3-1-4-3.1-5-5.7-.3.2-.6.4-.8.5.6,2.3.2,4.5-.8,5.3-.6.5-1,.6-1.8.6s-1,0-1.5,0c0-.4-.1-.9-.3-1.3.6,0,1.2,0,1.6,0s.8,0,1.2-.4c.5-.4.9-1.6.7-3.1-2.1,1.6-5.1,3.1-7.7,3.9-.1-.3-.5-.8-.7-1.1,2.9-.7,6.4-2.3,8.2-4-.1-.4-.3-.8-.5-1.3-1.8,1.2-4.5,2.5-6.7,3.1-.1-.3-.4-.8-.7-1,2.3-.5,5.3-1.8,6.8-3-.2-.4-.5-.7-.9-1.1-1.6.9-3.5,1.6-5.2,2.1-.1-.3-.5-.8-.7-1.1,2.3-.5,4.7-1.4,6.4-2.6h-4.1v-1.2h10.4v1.2h-4.5c-.4.3-.8.6-1.3,1,.8.8,1.5,1.8,1.8,2.8,1.4-.9,2.9-2.1,3.9-3l1.1.9ZM265,942.9h-1.3v-3.7h6.8c-.2-.5-.4-.9-.7-1.3l1.4-.4c.3.5.7,1.2.9,1.7h6.6v3.7h-1.4v-2.4h-12.3v2.4Z"/>
    <path d="M286.2,942.5h-5.1v-1.1h5.1v1.1ZM287.6,951.8c-1.4.9-3.7,1.7-5.5,2.2-.2-.3-.7-.8-1-1,1.8-.4,4-1,5.3-1.7l1.2.5ZM285.7,939.7h-4.3v-1h4.3v1ZM283.4,943.9h11.6v7.2h-11.6v-7.2ZM284.7,946.1h9v-1.2h-9v1.2ZM284.7,948.1h9v-1.2h-9v1.2ZM284.7,950.3h9v-1.3h-9v1.3ZM289,939.8c-.4.7-.9,1.3-1.4,1.8-.2-.2-.7-.5-1-.7.9-.8,1.7-2.1,2.1-3.4l1.2.3c-.1.3-.3.7-.4,1h6.2c0,0,.9.3.9.3-.5.9-1,2-1.5,2.6l-1.1-.4c.3-.4.6-.9.8-1.4h-2.9v.2c0,.2,0,.4,0,.6,1,1.1,2.9,1.8,5.3,2-.3.3-.6.7-.8,1.1-2.1-.3-3.8-1-4.9-2.1-.6.9-2,1.7-5.2,2.2-.1-.3-.5-.8-.7-1,4.7-.6,5.1-1.9,5.1-2.8v-.2h-1.9ZM291.7,951.3c1.9.6,4,1.4,5.3,1.9l-1.2.8c-1.2-.6-3.1-1.4-5-2l.9-.7Z"/>
    <path d="M303.3,946.2c-.3,1.6-.9,3.3-1.5,4.6.4.2.8.5,1.5.9,1.3.8,2.9.9,5,.9s5.2-.2,7.2-.4c-.2.4-.4,1-.4,1.4-1.4,0-4.8.2-6.9.2s-3.9-.2-5.3-1c-.7-.4-1.4-1-1.8-1s-1,1.1-1.5,2.3l-.9-1.2c.6-.9,1.2-1.6,1.8-2,.5-1,1-2.4,1.3-3.7h-2.3c.5-1.1,1.1-2.6,1.5-4h-2v-1.2h3.7c-.4,1.3-1,2.8-1.5,4.1h1.5c0,0,.6.2.6.2ZM300.9,941c-.2-.8-.6-2-.9-3l1.2-.3c.3.9.7,2.1,1,2.9l-1.2.4ZM305.9,951.4h-1.3v-9.3h5.1c-1.1-.5-2.4-1.1-3.4-1.5l.8-.7c.8.3,1.7.6,2.5,1,.9-.4,1.7-.9,2.5-1.4h-7.5v-1.1h9.1c0,0,.8.6.8.6-1,.9-2.3,1.8-3.6,2.5.5.3,1,.5,1.4.7h2.3v7.9c0,.7-.1,1-.6,1.2s-1.2.2-2.4.2c0-.3-.2-.8-.4-1.1.8,0,1.6,0,1.8,0s.3,0,.3-.3v-1.6h-3.1v2.9h-1.2v-2.9h-3v3ZM305.9,943.1v1.6h3v-1.6h-3ZM308.9,947.3v-1.6h-3v1.6h3ZM313.3,943.1h-3.1v1.6h3.1v-1.6ZM313.3,947.3v-1.6h-3.1v1.6h3.1Z"/>
    <path d="M329.2,946.1c-.5,1.6-1.2,2.9-2.1,4,2.2.9,4.2,1.9,5.5,2.8l-1,1.2c-1.3-.9-3.3-2-5.6-2.9-1.8,1.5-4.3,2.4-7.7,3-.1-.4-.6-1-.8-1.3,3.1-.4,5.4-1.1,7.1-2.3-1.7-.7-3.4-1.3-5-1.8.5-.7,1.1-1.6,1.7-2.5h-3.9v-1.3h4.6c.6-1.1,1.1-2.2,1.5-3.1l1.5.3c-.4.9-.8,1.9-1.4,2.9h4.4c.1-.6.2-1.2.3-1.8h1.6c0,.7-.2,1.3-.3,1.8h3.3v1.3h-3.6ZM319.2,943.3h-1.3v-3.6h6.7c-.3-.6-.6-1.3-.9-1.8l1.4-.4c.4.7.8,1.6,1.1,2.2h6.2v3.6h-1.4v-2.4h-11.8v2.4ZM322.9,946.1c-.4.7-.8,1.4-1.2,1.9,1.3.4,2.7.9,4,1.5.8-.9,1.5-2,1.9-3.4h-4.8Z"/>
    <path d="M343.8,938.1c1.7,2.5,4.8,5,7.6,6.1-.3.3-.8.8-1,1.1-2.7-1.3-5.5-3.6-7.4-6-1.9,2.3-4.9,4.8-7.5,6.2-.2-.4-.5-.8-.8-1.1,2.3-1.1,5-3.1,6.8-5.1h-3.2v-1.3h5.5ZM343.7,952.3h7v1.2h-15.2v-1.2h6.8v-3h-5v-1.2h5v-2.7h-4.3v-1.2h10v1.2h-4.4v2.7h5.1v1.2h-5.1v3Z"/>
    <path d="M353.1,938.6h6.3v1.2h-2.8c-.3,1.5-.7,2.9-1.1,4.3h3.6v7.7h-3.6v1.4h-1.1v-6.5c-.3.5-.6,1-1,1.5,0-.3-.4-1.1-.6-1.4,1.3-1.7,2.1-4.2,2.6-7h-2.3v-1.2ZM357.9,945.2h-2.4v5.3h2.4v-5.3ZM369.3,946.3h-2v7.7h-1.3v-7.7h-2.9c0,2.7-.5,5.7-2.6,7.8-.2-.2-.7-.6-1-.8,1.8-1.9,2.2-4.6,2.3-7.1h-2v-1.3h2v-5.2h-1.5v-1.3h8.6v1.3h-1.7v5.2h2v1.3ZM366,945v-5.2h-2.9v5.2h2.9Z"/>
    <path d="M385.5,952.3c.5,0,.6-.3.7-2.7.3.3.9.5,1.3.6-.1,2.7-.5,3.4-1.8,3.4h-2.1c-1.4,0-1.8-.4-1.8-1.9v-3.5h-3.1c-.3,2.1-1.7,4.4-6.7,5.9-.2-.4-.6-.8-.9-1.1,4.4-1.2,5.8-3.1,6.2-4.7h-5v-1.2h5.1v-2.2h1.4v2.1h0c0,0,4.4,0,4.4,0v4.8c0,.5,0,.6.6.6h1.7ZM372.9,942.6h-1.3v-3.2h7c-.2-.5-.4-1.1-.6-1.5l1.4-.2c.2.5.5,1.2.7,1.8h6.7v3.1h-1.4v-1.9h-3.7v3c0,.5,0,.6.5.6h2.7c.4,0,1,0,1.4-.1,0,.3,0,.8.1,1.1-.3,0-.8,0-1.4,0h-2.9c-1.4,0-1.8-.5-1.8-1.8v-3h-2.7c-.4,2.7-1.5,4.2-5.3,4.9-.1-.3-.5-.8-.7-1.1,3.4-.6,4.3-1.7,4.6-3.8h-3.5v2Z"/>
    <path d="M394.7,938.8c-.5,1.5-1.2,3.2-1.8,4.7,1.3,1.5,1.6,2.8,1.6,3.9s-.2,1.7-.7,2.1c-.3.2-.6.3-.9.3-.4,0-.8,0-1.2,0,0-.3-.1-.8-.3-1.2.4,0,.8,0,1,0,.2,0,.4,0,.6-.2.3-.2.4-.7.4-1.3,0-1-.3-2.2-1.6-3.6.5-1.3,1-2.8,1.4-4.1h-2.4v14.5h-1.2v-15.7h4.3c0,0,.9.5.9.5ZM403.8,952.6c.4,0,.5-.3.5-2.3.3.2.8.4,1.2.5-.1,2.3-.5,2.9-1.5,2.9h-1.6c-1.3,0-1.5-.4-1.5-1.7v-4.7h-1.9c-.3,3.3-1.2,5.4-4.6,6.6-.1-.3-.5-.8-.8-1.1,3.1-1,3.8-2.7,4.1-5.5h-2.5v-1.2h10.1v1.2h-3.2v4.7c0,.5,0,.5.5.5h1.3ZM396.3,943h-1.2v-3.1h4.6c-.2-.6-.6-1.4-1-2l1.2-.4c.5.7,1,1.6,1.2,2.2h-.4c0,.1,4.5.1,4.5.1v3.1h-1.3v-2h-7.6v2ZM396.5,944.2v-1.2h7.2v1.2h-7.2Z"/>
  </g>
  <rect class="st8" x="202.6" y="889.8" width="32" height="112" rx="5" ry="5"/>
  <g>
    <path class="st4" d="M216.5,912.2c-.6.9-1.2,1.8-2,2.7v9.5h-1.4v-8c-.7.7-1.4,1.3-2.1,1.9-.2-.3-.7-.8-1-1.1,1.9-1.3,3.8-3.4,5.1-5.4l1.3.5ZM215.8,908.4c-1.2,1.6-3,3.4-4.7,4.5-.2-.3-.6-.8-.8-1.1,1.5-1,3.3-2.6,4.2-3.9l1.3.5ZM226.8,915.2h-2.7v7.4c0,.8-.2,1.2-.8,1.4-.6.2-1.6.2-3.3.2,0-.3-.3-.9-.5-1.2,1.3,0,2.5,0,2.8,0,.3,0,.4,0,.4-.4v-7.4h-6v-1.3h10v1.3ZM226.4,910.2h-8.8v-1.3h8.8v1.3Z"/>
    <path class="st4" d="M225.7,932.3c-.5,3-1.2,5.4-2.4,7.4,1,1.5,2.2,2.6,3.7,3.4-.3.3-.7.8-.9,1.1-1.5-.8-2.7-1.9-3.6-3.3-1,1.4-2.4,2.5-4.1,3.3-.1-.3-.5-.9-.8-1.2,1.8-.8,3.1-2,4.1-3.4-.8-1.5-1.4-3.2-1.9-5.1-.4.7-.8,1.4-1.2,2-.2-.2-.8-.7-1.1-.9h0c0-.1-2-.1-2-.1v4.6l3.1-.7v1.2c-2.8.7-6,1.5-8.2,2l-.3-1.3,1.1-.2v-8h1.2v7.7l1.8-.4v-10h-3.8v-1.3h8.2v1.3h-3.1v3.9h2.4v.6c1.2-1.9,2-4.4,2.5-7.1l1.3.2c-.2,1.1-.5,2.1-.8,3.1h5.6v1.3h-1.2ZM220.8,932.6c.4,2.1,1,4.1,1.8,5.7.9-1.7,1.4-3.7,1.8-6h-3.5v.3Z"/>
    <path class="st4" d="M213.9,955.4c-.7-.6-2.2-1.4-3.3-1.9l.7-1c1.1.5,2.6,1.2,3.3,1.8l-.7,1.1ZM211.1,962.8c1-1.4,2.4-3.7,3.4-5.8l1,.9c-.9,1.9-2.2,4.1-3.3,5.8l-1.1-.9ZM212.2,947.7c1.2.5,2.7,1.3,3.4,1.9l-.8,1.1c-.7-.6-2.2-1.5-3.4-2l.7-1ZM225.4,963.9c-.2-.5-.5-1.1-.8-1.8-6.7.8-7.4,1-7.9,1.2,0-.3-.3-1-.5-1.3.3,0,.7-.5,1.2-1.2.4-.5,1.6-2.4,2.5-4.5h-4v-1.3h4.6v-3.2h-3.8v-1.3h3.8v-3.1h1.3v3.1h4v1.3h-4v3.2h4.7v1.3h-5.1c-.9,1.9-2.1,3.8-3.2,5.3l5.7-.6c-.5-.8-1-1.6-1.6-2.3l1.1-.5c1.3,1.6,2.6,3.7,3.2,5.1l-1.2.6Z"/>
    <path class="st4" d="M219.4,967.4c0,.6,0,1.5-.1,2.6.3,2.1,1.4,9.7,7.7,12.5-.4.3-.8.8-1,1.1-4.5-2.1-6.4-6.6-7.3-9.9-.8,3.6-2.7,7.6-7.1,10-.2-.4-.7-.8-1.1-1,7.5-3.8,7.4-12.5,7.4-15.3h1.5Z"/>
  </g>
  <rect class="st8" x="202.7" y="1034.5" width="32" height="112" rx="5" ry="5"/>
  <g>
    <path class="st4" d="M213.8,1065.3c-.6,1.5-1.5,3-2.5,4-.2-.2-.7-.7-1-.9,1-.8,1.7-2.1,2.2-3.4l1.3.3ZM217.6,1064.5h-6.3v-11.2h6.3v11.2ZM216.3,1054.4h-3.7v2.3h3.7v-2.3ZM216.3,1057.8h-3.7v2.3h3.7v-2.3ZM216.3,1061.1h-3.7v2.3h3.7v-2.3ZM216.1,1064.9c.8.9,1.6,2.1,2,2.9l-1.1.7c-.4-.8-1.2-2.1-1.9-3l1-.6ZM227,1058.2h-2.4v9.2c0,.8-.2,1.2-.7,1.4-.5.2-1.3.2-2.7.2,0-.3-.3-.9-.5-1.3,1,0,1.9,0,2.2,0,.3,0,.4,0,.4-.4v-7.5c-1.2,2.6-2.9,5-4.7,6.4-.2-.3-.6-.8-.9-1,2-1.5,4-4.3,5.1-7.1h-4.6v-1.3h5.2v-4.2h1.3v4.2h2.4v1.3Z"/>
    <path class="st4" d="M225.9,1073.3v15.5h-1.3v-.8h-11.9v.9h-1.2v-15.6h14.5ZM224.7,1086.9v-12.5h-11.9v12.5h11.9ZM224.1,1083.9h-2.6v1.7c0,.5-.1.7-.5.8-.4.1-1.1.1-2.1.1,0-.3-.2-.5-.3-.8.7,0,1.4,0,1.6,0,.2,0,.3,0,.3-.2v-1.6h-7v-.8h7v-.7h1.1v.7h2.6v.8ZM218.1,1076.3h-4.5v-.8h4.5v-.8h1.1v.8h4.6v.8h-4.6v.8h4v3.6h-1.4c.7.5,1.5,1.2,1.9,1.8l-.8.6c-.2-.2-.4-.5-.7-.8-3.1.1-6.3.2-8.6.3v-.8c1.1,0,2.7,0,4.4,0v-.9h-3.8v-3.6h3.8v-.8ZM216.1,1084c.6.5,1.3,1.2,1.6,1.6l-.9.5c-.3-.5-1-1.2-1.5-1.7l.9-.5ZM215.3,1078.5h2.8v-.8h-2.8v.8ZM218.1,1080v-.8h-2.8v.8h2.8ZM219.2,1077.7v.8h2.9v-.8h-2.9ZM222.1,1079.2h-2.9v.8h2.9v-.8ZM221.4,1081.5c-.1-.1-.3-.2-.4-.3l.7-.5h-2.5v.9h2.2Z"/>
    <path class="st4" d="M213.8,1100.2c-.7-.6-2.2-1.4-3.3-1.9l.7-1c1.1.5,2.6,1.2,3.3,1.8l-.7,1.1ZM211.1,1107.5c1-1.4,2.4-3.7,3.4-5.8l1,.9c-.9,1.9-2.2,4.1-3.3,5.8l-1.1-.9ZM212.2,1092.4c1.2.5,2.7,1.3,3.4,1.9l-.8,1.1c-.7-.6-2.2-1.5-3.4-2l.7-1ZM225.4,1108.7c-.2-.5-.5-1.1-.8-1.8-6.7.8-7.4,1-7.9,1.2,0-.3-.3-1-.5-1.3.3,0,.7-.5,1.2-1.2.4-.5,1.6-2.4,2.5-4.5h-4v-1.3h4.6v-3.2h-3.8v-1.3h3.8v-3.1h1.3v3.1h4v1.3h-4v3.2h4.7v1.3h-5.1c-.9,1.9-2.1,3.8-3.2,5.3l5.7-.6c-.5-.8-1-1.6-1.6-2.3l1.1-.5c1.3,1.6,2.6,3.7,3.2,5.1l-1.2.6Z"/>
    <path class="st4" d="M219.4,1112.1c0,.6,0,1.5-.1,2.6.3,2.1,1.4,9.7,7.7,12.5-.4.3-.8.8-1,1.1-4.5-2.1-6.4-6.6-7.3-9.9-.8,3.6-2.7,7.6-7.1,10-.2-.4-.7-.8-1.1-1,7.5-3.8,7.4-12.5,7.4-15.3h1.5Z"/>
  </g>
</svg>