<svg width="105" height="47" viewBox="0 0 105 47" fill="none" xmlns="http://www.w3.org/2000/svg">
<path d="M0.372 47V42.346C4.87733 38.3367 8.63867 34.6787 11.656 31.372C14.6733 28.024 16.926 24.924 18.414 22.072C19.9433 19.22 20.708 16.554 20.708 14.074C20.708 12.4207 20.4187 10.974 19.84 9.734C19.3027 8.45267 18.4553 7.48134 17.298 6.82C16.182 6.11734 14.756 5.766 13.02 5.766C11.2427 5.766 9.61 6.262 8.122 7.254C6.634 8.20467 5.27 9.38267 4.03 10.788L0 6.82C1.94267 4.67067 3.98867 2.99667 6.138 1.798C8.32867 0.599334 10.9327 0 13.95 0C16.7193 0 19.1373 0.578667 21.204 1.736C23.2707 2.852 24.862 4.44333 25.978 6.51C27.1353 8.53534 27.714 10.9327 27.714 13.702C27.714 16.6367 26.9907 19.6127 25.544 22.63C24.0973 25.606 22.1133 28.6233 19.592 31.682C17.0707 34.6993 14.198 37.758 10.974 40.858C12.1727 40.734 13.4333 40.6307 14.756 40.548C16.12 40.424 17.3393 40.362 18.414 40.362H29.884V47H0.372Z" fill="#CD436A"/>
<path d="M47.6545 20.93H73.6345V23.81H47.6545V20.93ZM62.2645 30.23L64.4245 28.4C65.2845 28.98 66.1845 29.61 67.1245 30.29C68.0845 30.97 69.0345 31.68 69.9745 32.42C70.9145 33.14 71.7845 33.85 72.5845 34.55C73.4045 35.25 74.0845 35.89 74.6245 36.47L72.2545 38.66C71.7545 38.06 71.1145 37.41 70.3345 36.71C69.5545 35.99 68.7045 35.25 67.7845 34.49C66.8845 33.73 65.9545 32.99 64.9945 32.27C64.0545 31.53 63.1445 30.85 62.2645 30.23ZM61.4245 21.95L64.5445 23.09C63.4245 25.15 62.0645 27.17 60.4645 29.15C58.8845 31.13 57.1045 32.96 55.1245 34.64C53.1645 36.3 51.0445 37.73 48.7645 38.93C48.6245 38.69 48.4345 38.42 48.1945 38.12C47.9545 37.8 47.7145 37.49 47.4745 37.19C47.2545 36.87 47.0345 36.61 46.8145 36.41C48.4545 35.61 50.0045 34.67 51.4645 33.59C52.9245 32.51 54.2845 31.34 55.5445 30.08C56.8245 28.8 57.9545 27.47 58.9345 26.09C59.9345 24.71 60.7645 23.33 61.4245 21.95ZM59.0845 28.49L62.1745 25.43V47H59.0845V28.49Z" fill="#CD436A"/>
<path d="M77.3845 31.91H103.964V34.43H77.3845V31.91ZM90.7645 37.28H102.014V39.77H90.7645V37.28ZM89.5045 33.11H92.3545V44.36H89.5045V33.11ZM84.1645 37.94C84.7445 39.5 85.5545 40.68 86.5945 41.48C87.6345 42.28 88.8945 42.82 90.3745 43.1C91.8545 43.36 93.5345 43.49 95.4145 43.49C95.6945 43.49 96.1245 43.49 96.7045 43.49C97.3045 43.49 97.9745 43.49 98.7145 43.49C99.4745 43.49 100.234 43.49 100.994 43.49C101.774 43.49 102.484 43.49 103.124 43.49C103.784 43.47 104.294 43.46 104.654 43.46C104.514 43.66 104.374 43.92 104.234 44.24C104.114 44.58 104.004 44.92 103.904 45.26C103.804 45.6 103.724 45.9 103.664 46.16H95.2645C93.5245 46.16 91.9545 46.06 90.5545 45.86C89.1545 45.66 87.9045 45.29 86.8045 44.75C85.7245 44.23 84.7645 43.49 83.9245 42.53C83.1045 41.57 82.3945 40.32 81.7945 38.78L84.1645 37.94ZM82.3045 35.24L85.1245 35.66C84.6445 38.14 83.8645 40.31 82.7845 42.17C81.7045 44.03 80.3345 45.56 78.6745 46.76C78.5345 46.56 78.3345 46.33 78.0745 46.07C77.8345 45.83 77.5645 45.58 77.2645 45.32C76.9845 45.08 76.7445 44.89 76.5445 44.75C78.1045 43.77 79.3545 42.47 80.2945 40.85C81.2545 39.23 81.9245 37.36 82.3045 35.24ZM83.1445 26.03V28.07H97.9645V26.03H83.1445ZM83.1445 22.07V24.08H97.9645V22.07H83.1445ZM80.3845 20H100.844V30.17H80.3845V20Z" fill="#CD436A"/>
</svg>
