<?xml version="1.0" encoding="UTF-8"?>
<svg id="_圖層_1" data-name="圖層 1" xmlns="http://www.w3.org/2000/svg" width="18.3mm" height="14.1mm" version="1.1" viewBox="0 0 52 40">
  <defs>
    <style>
      .cls-1 {
        fill: #fff;
        stroke-width: 0px;
      }
    </style>
  </defs>
  <path class="cls-1" d="M26.1,29.2h0c-2.7,0-4.9-.9-6.3-2.7-1.3-1.6-1.9-3.8-1.9-6.5h0c0-2.8.7-5,1.9-6.5,1.4-1.8,3.5-2.7,6.3-2.7h0c2.1,0,3.9.6,5.2,1.6,1.3,1,2.2,2.4,2.7,4.2l-1.6.4c-.8-3-3-4.6-6.4-4.6-2.2,0-3.9.7-5,2.1-1,1.3-1.6,3.1-1.6,5.5,0,2.4.6,4.2,1.6,5.5,1.1,1.4,2.8,2.1,5,2.1,2,0,3.3-.5,4.5-1.6,1.3-1.2,1.2-2.8.8-3.7-.2-.5-.7-1-1.3-1.3-.1,1-.5,1.9-1,2.5-.7.8-1.6,1.3-2.9,1.4-.9,0-1.8-.2-2.5-.6-.8-.5-1.3-1.3-1.3-2.3,0-.9.3-1.8,1-2.4.7-.6,1.6-.9,2.8-1,.8,0,1.6,0,2.3.1,0-.6-.3-1-.6-1.3-.4-.4-1-.7-1.8-.7h0c-.6,0-1.5.2-2.1,1l-1.3-.9c.8-1.1,2-1.7,3.4-1.7h0c2.5,0,3.9,1.5,4.1,4.1,0,0,.2,0,.2.1,1.1.5,2,1.4,2.4,2.4.6,1.4.7,3.7-1.2,5.5-1.4,1.4-3.1,2-5.6,2h0,0ZM26.9,20.2c-.2,0-.4,0-.6,0-1.4,0-2.3.7-2.2,1.6,0,1,1.1,1.4,2.1,1.4.9,0,2.2-.4,2.4-2.8-.5-.1-1.1-.2-1.7-.2Z"/>
</svg>