<?xml version="1.0" encoding="UTF-8"?>
<svg id="_層_1" data-name="圖層 1" xmlns="http://www.w3.org/2000/svg" width="56" height="56" viewBox="0 0 56 56">
  <defs>
    <style>
      .cls-1 {
        fill: #fff;
      }
    </style>
  </defs>
  <g>
    <g>
      <path class="cls-1" d="M10.78,35.19h5.28v-9.41c-1.71-.73-3.47-1.37-5.26-1.94l-.02,11.34Z"/>
      <path d="M10.8,23.84c1.79,.57,3.54,1.21,5.26,1.94v9.41h-5.28l.02-11.34m0-1.61c-.34,0-.67,.11-.95,.31-.42,.3-.66,.79-.66,1.3l-.02,11.34c0,.43,.17,.84,.47,1.14,.3,.3,.71,.47,1.14,.47h5.28c.89,0,1.61-.72,1.61-1.61v-9.41c0-.65-.39-1.23-.98-1.49-1.71-.73-3.53-1.4-5.4-1.99-.16-.05-.32-.08-.49-.08h0Z"/>
    </g>
    <g>
      <path class="cls-1" d="M18.14,10.65h-7.36v8.52c3.78,.28,7.52,.9,11.18,1.85l-3.82-10.37Z"/>
      <path d="M18.14,10.65l3.82,10.37c-3.67-.95-7.41-1.57-11.18-1.85V10.65h7.36m0-1.61h-7.36c-.89,0-1.61,.72-1.61,1.61v8.52c0,.84,.65,1.55,1.49,1.61,3.67,.27,7.34,.88,10.9,1.81,.13,.03,.27,.05,.4,.05,.45,0,.89-.19,1.2-.53,.4-.45,.53-1.08,.32-1.64l-3.82-10.37c-.23-.63-.84-1.06-1.51-1.06h0Z"/>
    </g>
    <g>
      <path class="cls-1" d="M31.81,20.29v3.55c1.8,.79,3.55,1.69,5.24,2.71V10.65h-7.34l-4.22,10.97c1.74,.56,3.46,1.09,5.14,1.81l1.18-3.14Z"/>
      <path d="M37.05,10.65v15.9c-1.69-1.01-3.44-1.92-5.24-2.71v-3.55l-1.18,3.14c-1.68-.72-3.4-1.26-5.14-1.81l4.22-10.97h7.34m0-1.61h-7.34c-.67,0-1.27,.41-1.51,1.03l-4.22,10.97c-.16,.41-.14,.88,.05,1.28,.19,.4,.54,.7,.96,.84l.37,.12c1.61,.51,3.13,1,4.62,1.64,.2,.09,.42,.13,.64,.13,.03,0,.06,0,.1,0,.13,.12,.27,.21,.44,.28,1.73,.76,3.43,1.64,5.06,2.61,.26,.15,.54,.23,.83,.23s.55-.07,.79-.21c.51-.29,.82-.82,.82-1.4V10.65c0-.89-.72-1.61-1.61-1.61h0Z"/>
    </g>
    <g>
      <path class="cls-1" d="M25.75,30.75c-2.31-1.56-4.72-2.63-7.22-3.83l3.12,8.27h4.56l1.14-3.33c-.5-.37-1.03-.74-1.58-1.11Z"/>
      <path d="M18.53,26.91c2.5,1.21,4.91,2.27,7.22,3.83,.55,.36,1.08,.73,1.58,1.11l-1.14,3.33h-4.56l-3.12-8.27m0-1.61c-.4,0-.79,.15-1.09,.42-.49,.45-.65,1.14-.42,1.76l3.12,8.27c.24,.63,.84,1.05,1.51,1.05h4.56c.69,0,1.3-.44,1.53-1.09l1.14-3.33c.23-.67,0-1.4-.57-1.82-.52-.39-1.08-.78-1.65-1.16-2.05-1.38-4.2-2.41-6.29-3.4-.37-.18-.75-.36-1.12-.54-.22-.11-.46-.16-.7-.16h0Z"/>
    </g>
    <g>
      <path class="cls-1" d="M48.36,25.3l5.67-2.54c.19-.05,.34-.21,.36-.41,0-.22-.2-.41-.48-.46-1.6-.38-12,1.27-16.7,6.45v-.03C28.72,22.76,8.92,19.67,3.73,19.72h-.06c-1.14,0-2.06,.35-2.06,.77,0,.28,.39,.52,.97,.66h.04l.13,.02,8.04,1.68c7.27,2.26,17.5,5.96,22.71,12.08,7,11.17-4.32,7.21-6.9,8.08s8.57,3.77,12.03,1.43-.59-9.32-.59-9.32c-1.07-2.95,5.29-7.02,10.32-9.83Z"/>
      <path d="M3.86,19.72c5.37,0,24.93,3.09,33.34,8.6v.03c4.28-4.71,13.26-6.51,16.06-6.51,.28,0,.5,.02,.64,.05,.28,.05,.48,.24,.48,.46-.03,.2-.17,.36-.36,.41l-5.67,2.54c-5.03,2.82-11.38,6.88-10.32,9.83,0,0,4.05,6.99,.59,9.32-.96,.65-2.5,.89-4.18,.89-4.4,0-9.72-1.69-7.85-2.32,.31-.1,.75-.14,1.26-.14,1.05,0,2.42,.14,3.73,.14,3.41,0,6.36-.99,1.91-8.09-5.2-6.12-15.43-9.83-22.71-12.08l-8.04-1.68-.13-.02h-.04c-.58-.14-.97-.38-.97-.66,0-.43,.91-.77,2.06-.77h.06s.08,0,.13,0m0-1.61h-.19c-2.23,0-3.67,.94-3.67,2.39,0,.4,.16,1.74,2.21,2.23,.07,.02,.15,.03,.23,.04h.02l7.94,1.67c7.02,2.18,16.86,5.73,21.81,11.47,2.38,3.83,1.93,4.88,1.87,4.99-.05,.09-.4,.53-2.48,.53-.64,0-1.32-.04-1.98-.08-.62-.04-1.21-.07-1.75-.07-.77,0-1.32,.07-1.78,.22-1.27,.43-1.58,1.42-1.46,2.15,.5,3.07,9.73,3.32,9.82,3.32,2.22,0,3.94-.39,5.08-1.17,4.34-2.93,.82-9.83,.01-11.28-.04-.41,.28-2.58,9.54-7.77l5.52-2.48c.74-.26,1.27-.92,1.38-1.71,0-.07,.01-.14,.01-.21,0-1-.74-1.84-1.78-2.04-.26-.06-.58-.08-.96-.08-2.61,0-11.23,1.52-16.28,6.07C27.65,20.92,8.97,18.11,3.86,18.11h0Z"/>
    </g>
  </g>
  <g>
    <g>
      <path class="cls-1" d="M10.78,42.14v-5.69c.61-.09,1.22-.13,1.84-.13,1.23,0,2.12,.26,2.66,.77,.55,.53,.85,1.26,.82,2.03,.05,.86-.28,1.7-.91,2.29-.61,.55-1.56,.82-2.83,.82-.53,0-1.05-.03-1.57-.1Zm1.33-4.74v3.78c.16,.02,.32,.03,.48,.02,.56,.04,1.11-.15,1.54-.52,.38-.4,.58-.94,.54-1.49,.03-.5-.14-1-.49-1.36-.39-.34-.9-.51-1.42-.48-.22,0-.44,.01-.65,.05h0Z"/>
      <path d="M12.55,36.32h.07c1.23,0,2.12,.26,2.66,.77,.55,.53,.85,1.26,.82,2.03,.05,.86-.28,1.7-.91,2.29-.61,.55-1.56,.82-2.83,.82h-.02c-.52,0-1.04-.03-1.55-.1v-5.69c.59-.09,1.18-.13,1.77-.13m.21,1.02s-.05,0-.08,0c-.19,0-.38,.02-.57,.05h0v3.78c.13,.02,.26,.03,.39,.03,.03,0,.06,0,.1,0,.05,0,.09,0,.14,0,.51,0,1.01-.19,1.4-.53,.38-.4,.58-.94,.54-1.49,.03-.5-.14-1-.49-1.36-.36-.31-.83-.48-1.3-.48-.04,0-.08,0-.11,0m-.21-1.97c-.64,0-1.28,.05-1.91,.14-.47,.07-.81,.47-.81,.94v5.69c0,.48,.36,.88,.83,.94,.55,.07,1.12,.11,1.67,.11,1.53,0,2.69-.36,3.48-1.06,.84-.79,1.29-1.88,1.23-3.01,.02-1.01-.38-1.99-1.11-2.7-.73-.7-1.81-1.04-3.32-1.04h-.07Zm.51,4.83v-1.9c.17,.03,.33,.1,.46,.21,.14,.17,.22,.39,.2,.61,0,.04,0,.09,0,.13,.02,.27-.07,.54-.25,.74-.12,.1-.26,.17-.41,.22h0Z"/>
    </g>
    <g>
      <path class="cls-1" d="M20.5,40.65h-1.73l-.41,1.51h-1.4l1.83-5.79h1.75l1.88,5.79h-1.43l-.49-1.51Zm-1.54-.98h1.33c-.35-1.13-.58-1.91-.68-2.33h0l-.28,1.1-.37,1.23Z"/>
      <path d="M20.54,36.37l1.88,5.79h-1.43l-.49-1.51h-1.73l-.41,1.51h-1.4l1.83-5.79h1.75m-1.57,3.3h1.33c-.35-1.13-.58-1.91-.68-2.33l-.28,1.1-.37,1.23m1.57-4.25h-1.75c-.41,0-.78,.27-.91,.66l-1.83,5.79c-.09,.29-.04,.6,.14,.85,.18,.24,.46,.39,.77,.39h1.4c.43,0,.8-.29,.92-.7l.22-.81h.32l.28,.85c.13,.39,.49,.66,.9,.66h1.43c.3,0,.59-.15,.77-.39,.18-.25,.23-.56,.13-.85l-1.88-5.79c-.13-.39-.49-.66-.9-.66h0Z"/>
    </g>
    <g>
      <path class="cls-1" d="M24.79,42.16v-4.69h-1.63v-1.11h4.61v1.11h-1.65v4.69h-1.33Z"/>
      <path d="M27.77,36.36v1.11h-1.65v4.69h-1.33v-4.69h-1.63v-1.11h4.61m0-.95h-4.61c-.52,0-.95,.43-.95,.95v1.11c0,.52,.43,.95,.95,.95h.68v3.74c0,.52,.43,.95,.95,.95h1.33c.52,0,.95-.43,.95-.95v-3.74h.7c.52,0,.95-.43,.95-.95v-1.11c0-.52-.43-.95-.95-.95h0Z"/>
    </g>
    <g>
      <path class="cls-1" d="M31.84,40.65h-1.74l-.41,1.51h-1.38l1.83-5.79h1.75l1.87,5.79h-1.44l-.48-1.51Zm-1.54-.98h1.33c-.35-1.13-.58-1.91-.68-2.33h0l-.28,1.1-.38,1.23Z"/>
      <path d="M31.89,36.37l1.87,5.79h-1.44l-.48-1.51h-1.74l-.41,1.51h-1.38l1.83-5.79h1.75m-1.59,3.3h1.33c-.35-1.13-.58-1.91-.68-2.33l-.28,1.1-.38,1.23m1.59-4.25h-1.75c-.41,0-.78,.27-.91,.66l-1.83,5.79c-.09,.29-.04,.6,.14,.85s.46,.39,.77,.39h1.38c.43,0,.8-.29,.92-.7l.22-.81h.32l.27,.85c.12,.39,.49,.66,.91,.66h1.44c.3,0,.59-.15,.77-.39s.23-.56,.14-.85l-1.87-5.79c-.13-.39-.49-.66-.9-.66h0Z"/>
    </g>
  </g>
</svg>