<?xml version="1.0" encoding="utf-8"?>
<!-- Generator: $$$/GeneralStr/196=Adobe Illustrator 27.6.0, SVG Export Plug-In . SVG Version: 6.00 Build 0)  -->
<svg version="1.1" id="圖層_1" xmlns="http://www.w3.org/2000/svg" xmlns:xlink="http://www.w3.org/1999/xlink" x="0px" y="0px"
	 width="246px" height="246px" viewBox="0 0 246 246" style="enable-background:new 0 0 246 246;" xml:space="preserve">
<style type="text/css">
	.st0{fill:#FFFFFF;}
</style>
<g>
	<path class="st0" d="M165.9,97l-0.2-0.5c-0.1-0.3-0.2-0.5-0.3-0.7c-0.1-0.4-0.3-0.8-0.5-1.2c-6.4-15.6-20.5-26.5-36.8-28.4
		c-1.8-0.2-3.5-0.3-5.3-0.3c-6.9,0-13.8,1.6-20,4.7c-0.1,0.1-0.2,0.1-0.3,0.2c-0.1,0-0.1,0.1-0.2,0.1c-3.4,1.8-6.6,4-9.4,6.5
		c-0.1,0.1-0.2,0.2-0.3,0.3c-0.1,0.1-0.2,0.2-0.4,0.4c-1.4,1.3-2.6,2.6-3.7,3.9c-4.6,5.4-7.8,11.6-9.6,18.4
		c-0.1,0.3-0.2,0.6-0.2,0.9l-0.2,0.8c-0.1,0.3-0.1,0.6-0.2,0.9c-0.7,3.2-1,6.4-1,9.6c0,6.1,1.1,12,3.3,17.6
		c5.6,16.3,17.7,32.3,36.1,47.5c1.8,1.5,4,2.3,6.2,2.3c2.3,0,4.5-0.8,6.2-2.2c35.6-29.4,39.3-55.2,39.2-65v-0.1
		C168.6,107.3,167.7,102.1,165.9,97z M164.6,112.8c0.1,9.2-3.4,33.6-37.7,61.9c-2.1,1.7-5.3,1.7-7.4,0
		c-17.8-14.7-29.6-30.1-34.9-45.8c-2.1-5.2-3.1-10.6-3.1-16.2c0-3,0.3-6,0.9-8.9l0-0.1c0-0.2,0.1-0.5,0.1-0.7l0.2-0.8
		c0.1-0.2,0.1-0.5,0.2-0.8c1.6-6.3,4.6-12,8.8-16.9c1-1.2,2.2-2.4,3.4-3.6l0.2-0.2l0,0l0.1-0.1c0,0,0.1-0.1,0.2-0.2
		c2.6-2.4,5.5-4.4,8.6-6c0,0,0.1,0,0.1-0.1l0.2-0.1l0.2-0.1c7.1-3.6,14.9-5,23-4c14.9,1.8,27.8,11.7,33.6,25.9
		c0.1,0.4,0.3,0.7,0.4,1.1c0.1,0.2,0.2,0.4,0.2,0.6l0.2,0.4c1.6,4.6,2.4,9.4,2.4,14.3V112.8z"/>
	<path class="st0" d="M150.9,97.6c-0.2-0.3-0.4-0.7-0.6-1c-6-9.4-16.2-15.1-27.3-15.1c-3,0-5.9,0.4-8.7,1.2l-0.3,0.1
		c-1.1,0.3-2.1,0.7-3.2,1.1l-0.4,0.2c-1.7,0.7-3.4,1.6-5,2.7c-0.1,0.1-0.3,0.2-0.5,0.3l-0.1,0.1c-4.2,2.9-7.8,6.9-10.2,11.4
		c-0.1,0.2-0.2,0.4-0.3,0.6l-0.5,1.1c-0.2,0.4-0.3,0.8-0.5,1.1c-0.2,0.4-0.3,0.8-0.5,1.2c-1.3,3.6-2,7.3-2,11.2
		c0,4.2,0.8,8.3,2.4,12.2c0,0.1,0.1,0.2,0.1,0.2l0.1,0.4c0.1,0.2,0.2,0.4,0.3,0.6c0.9,2.1,2.1,4.1,3.5,5.9c0.1,0.1,0.1,0.2,0.2,0.3
		c0.1,0.1,0.2,0.2,0.3,0.3c6.2,7.8,15.4,12.3,25.3,12.3c17.8,0,32.3-14.5,32.3-32.3c0-5.3-1.3-10.5-3.8-15.1
		C151.3,98.3,151.1,97.9,150.9,97.6z M123,142c-8.7,0-16.8-3.9-22.2-10.8l-0.1-0.1l-0.3-0.3c-1.2-1.6-2.3-3.4-3.1-5.2l-0.2-0.5
		c0-0.1-0.1-0.2-0.1-0.3l-0.1-0.2c-1.4-3.4-2.1-7-2.1-10.7c0-3.4,0.6-6.7,1.8-9.9c0.1-0.3,0.2-0.6,0.4-0.9c0.1-0.3,0.3-0.7,0.5-1
		l0.5-1c0.1-0.1,0.1-0.3,0.2-0.4c2.1-4,5.2-7.4,8.9-10c0.1-0.1,0.2-0.2,0.4-0.3l0.1-0.1c1.4-0.9,2.8-1.7,4.3-2.3
		c0.2,0,0.2-0.1,0.3-0.1c0.9-0.4,1.9-0.7,2.8-1l0.3-0.1c2.5-0.7,5.2-1.1,7.9-1.1c9.8,0,18.7,4.9,23.9,13.2c0.2,0.3,0.4,0.6,0.5,0.9
		c0.2,0.3,0.3,0.6,0.5,0.9l0,0c2.1,4,3.3,8.6,3.3,13.2C151.2,129.3,138.6,142,123,142z"/>
	<path class="st0" d="M138.6,104.5c-1.8-1.6-3.7-2.8-5.8-3.9c-1.3-0.6-2.6-1-3.9-1.4c-1.8-0.5-3.7-0.7-5.6-0.7
		c-1.9,0-3.7,0.2-5.5,0.7c-2.6,0.6-4.9,1.8-7.2,3.3c-1.1,0.8-2.2,1.7-3.2,2.7c-1,1-1.9,2-2.7,3.2c-0.3,0.5-0.5,1-0.5,1.5
		c0,0.8,0.3,1.5,0.8,2.2c0.9,1.2,2.3,1.4,3.4,0.6c0.5-0.3,0.9-0.8,1.2-1.3c1.1-1.4,2.4-2.6,3.9-3.6c1.8-1.2,3.7-2.1,5.8-2.5
		c1-0.2,2-0.4,3-0.4c0.8,0,1.6-0.1,2.4,0c1.3,0.1,2.6,0.4,3.9,0.8c1,0.3,2,0.7,2.9,1.3c2.1,1.2,3.9,2.7,5.4,4.7
		c0.8,1.1,2.1,1.5,3.2,1.2c1.9-0.6,2.6-3.1,1.6-4.7C140.8,106.8,139.7,105.6,138.6,104.5z"/>
	<path class="st0" d="M129,110.8c-1.9-0.9-3.8-1.4-5.8-1.5c-1.7,0-3.4,0.3-5,1c-2.2,0.9-4.2,2.1-5.9,3.9c-0.5,0.5-0.9,1-1,1.8
		c-0.2,1.3,0.4,2.6,1.4,3.2c0.5,0.4,1.1,0.6,1.8,0.5c0.6-0.1,1.1-0.4,1.5-0.9c1.3-1.3,2.8-2.2,4.4-2.8c1.3-0.4,2.6-0.6,3.9-0.4
		c1.8,0.3,3.3,1.2,4.7,2.3c0.4,0.4,0.8,0.8,1.3,1.1c0.8,0.6,1.7,0.8,2.7,0.4c2-0.9,2.3-3.9,0.7-5.3
		C132.3,112.9,130.8,111.7,129,110.8z"/>
	<path class="st0" d="M123.6,120c-1.2-0.1-2.4,0.2-3.4,1c-1.3,1-2,2.4-2,4.2c0,0.3,0,0.6,0.1,0.9c0.6,3,3.4,4.9,6.2,4.2
		c2.1-0.6,3.7-2.5,3.9-4.7c0.1-1.4-0.3-2.6-1.1-3.7C126.2,120.7,125,120.1,123.6,120z"/>
</g>
</svg>
