<?xml version="1.0" encoding="UTF-8"?>
<svg id="_圖層_1" data-name="圖層_1" xmlns="http://www.w3.org/2000/svg" width="180" height="180" version="1.1" viewBox="0 0 180 180">
  <!-- Generator: Adobe Illustrator 29.0.0, SVG Export Plug-In . SVG Version: 2.1.0 Build 186)  -->
  <defs>
    <style>
      .st0 {
        fill: #d8d8d8;
      }

      .st1 {
        fill: #fff;
      }

      .st2 {
        fill: #595959;
      }
    </style>
  </defs>
  <path class="st2" d="M39.5,65.6c-4.2,0-7.6,3.3-7.6,7.3v50.9c0,4,3.4,7.3,7.6,7.3h96.5c4.2,0,7.6-3.3,7.6-7.3v-57.5l-104.2-.7Z"/>
  <g>
    <path class="st0" d="M86.2,62.3h-42.2c-4.2,0-7.6,3.3-7.6,7.3v50.9c0,4,3.4,7.3,7.6,7.3h96.5c4.2,0,7.6-3.3,7.6-7.3v-58.3h-61.2c-.3,0-.5,0-.8,0Z"/>
    <path class="st2" d="M140.5,48.9h-38.9c-3.5,0-6.5,2.2-7.4,5.5l-.7,2.6c-.8,3-3.4,5.1-6.6,5.4h61.2v-6.1c0-4-3.4-7.3-7.6-7.3Z"/>
  </g>
  <g>
    <path class="st1" d="M96.1,122.9c-.5,0-.9-.2-1.2-.5-.3-.4-.5-.8-.5-1.3v-.9c0-.5.2-.9.5-1.3.3-.3.7-.5,1.2-.5h2.7c.1,0,.2,0,.2-.2v-12.6c0-.2,0-.2-.2-.2h-2.1c-.5,0-.8-.2-1.1-.5s-.5-.7-.5-1.2.1-.9.4-1.3c.3-.4.7-.6,1.1-.8.8-.2,1.6-.5,2.3-.9,1.1-.6,2.2-.8,3.1-.8h.5c.5,0,.8.2,1.2.5.3.4.5.8.5,1.3v16.6c0,.2,0,.2.2.2h2c.5,0,.9.2,1.2.5s.5.8.5,1.3v.9c0,.5-.2.9-.5,1.3-.3.4-.7.5-1.2.5h-10.2Z"/>
    <path class="st1" d="M124.6,101c.4.3.6.7.6,1.3s-.2.9-.5,1.2l-.5.6c-.3.3-.7.5-1.2.6h-.2c-.4,0-.8-.1-1.1-.3-.7-.4-1.3-.5-1.9-.5-2.6,0-3.9,2.2-4.2,6.5,0,0,0,0,0,0s0,0,0,0c.5-.6,1.1-1.2,1.9-1.5s1.4-.6,2.1-.6c1.9,0,3.4.6,4.6,1.8,1.2,1.2,1.7,3,1.7,5.4s-.7,4.3-2,5.7c-1.4,1.4-3,2.1-5,2.1s-2-.2-3-.7-1.8-1.1-2.6-2c-.8-.9-1.4-2.1-1.8-3.7-.5-1.6-.7-3.3-.7-5.3s.2-3.8.7-5.4c.5-1.6,1.1-2.8,1.9-3.8.8-1,1.7-1.7,2.7-2.2,1-.5,2.1-.7,3.2-.7,1.9,0,3.5.5,5,1.6ZM119,119.2c.7,0,1.3-.3,1.8-.9.5-.6.7-1.5.7-2.8,0-2.2-.9-3.4-2.6-3.4s-2.2.6-2.9,1.9c0,.1-.1.3,0,.4.4,3.2,1.4,4.7,3.1,4.7Z"/>
    <path class="st1" d="M135.5,123.3c-2.4,0-4.5-.7-6.2-2-.4-.3-.6-.7-.6-1.2,0,0,0-.2,0-.2,0-.4.1-.8.4-1.1l.4-.6c.2-.4.6-.6,1-.7h.2c.4,0,.7.1,1,.3,1,.7,2,1.1,3.1,1.1s1.9-.3,2.5-.9c.6-.6.9-1.5.9-2.7s-.3-2-.9-2.6c-.6-.6-1.3-.9-2.3-.9s-1.3.1-1.9.4c-.4.2-.8.3-1.1.3s-.8-.1-1.2-.4c-.7-.5-1.1-1.2-1.1-2.1v-.2l.4-8.2c0-.5.2-.9.6-1.3.3-.3.7-.5,1.2-.5h8.8c.5,0,.8.2,1.2.5.3.4.5.8.5,1.3v1c0,.5-.2.9-.5,1.3-.3.4-.7.5-1.2.5h-5.8c-.2,0-.2,0-.3.2l-.3,3.4c0,0,0,.1,0,.1,0,0,0,0,.1,0,.6-.3,1.3-.4,2-.4,1.9,0,3.5.6,4.8,1.9,1.3,1.2,1.9,3,1.9,5.4s-.4,3.1-1.1,4.4c-.7,1.3-1.7,2.2-2.8,2.8s-2.4.9-3.8.9Z"/>
  </g>
  <g>
    <circle class="st2" cx="51.3" cy="55.6" r="4.4"/>
    <circle class="st2" cx="64.2" cy="55.6" r="4.4"/>
    <circle class="st2" cx="77.1" cy="55.6" r="4.4"/>
  </g>
  <g>
    <circle class="st2" cx="54" cy="110.6" r="5.1"/>
    <path class="st2" d="M54.3,112.7c-.5,0-1,0-1.4-.3-1-.6-1.3-2-.7-3l10.1-16.1c.6-.9,1.7-1.3,2.7-.8l15.1,6.6,13.4-20.2c.7-1,2-1.3,3-.6,1,.7,1.3,2,.6,3l-14.4,21.7c-.6.9-1.7,1.2-2.7.8l-15-6.5-9.1,14.6c-.4.6-.9.9-1.5,1Z"/>
    <path class="st2" d="M97.7,71.9l-10.9,5.8c-1.6.9-1.7,3.2-.2,4.2l10.5,6.6c1.6,1,3.6,0,3.7-1.9l.5-12.4c0-1.8-1.9-3.1-3.5-2.2Z"/>
  </g>
</svg>