<svg width="21" height="17" viewBox="0 0 21 17" fill="none" xmlns="http://www.w3.org/2000/svg">
<path d="M16.0189 7.02227C16.4119 6.99083 16.7736 6.7707 17.1038 6.3619C17.5755 5.81158 18.0236 5.19051 18.4481 4.49869C17.6619 4.10561 16.9465 3.88548 16.3019 3.83831C15.6572 3.77542 15.1384 3.89334 14.7453 4.19209C14.478 4.39649 14.3129 4.67164 14.25 5.01756C14.8632 4.73454 15.3585 4.538 15.7358 4.42793L16.1604 5.86661C15.7987 5.97668 15.3664 6.14963 14.8632 6.38548C13.8726 6.84146 13.0708 7.35246 12.4575 7.9185C11.6085 8.72039 11.184 9.58517 11.184 10.5128V11.6449C11.75 11.7864 12.2217 12.0616 12.5991 12.4704C12.8821 12.3446 13.1808 12.2817 13.4953 12.2817C14.0142 12.2817 14.4701 12.4311 14.8632 12.7298C15.272 13.0286 15.555 13.4138 15.7123 13.8855C15.9638 13.8226 16.2154 13.7911 16.467 13.7911C17.0173 13.7911 17.5204 13.9248 17.9764 14.1921C18.4481 14.4594 18.8176 14.8289 19.0849 15.3006C19.3522 15.7565 19.4858 16.2597 19.4858 16.81H17.9764C17.9764 16.4012 17.827 16.0474 17.5283 15.7487C17.2296 15.4499 16.8758 15.3006 16.467 15.3006C16.0896 15.3006 15.7594 15.4342 15.4764 15.7015L14.25 14.876C14.2814 14.7817 14.2972 14.6874 14.2972 14.593C14.2972 14.3729 14.2186 14.1842 14.0613 14.027C13.9041 13.8698 13.7154 13.7911 13.4953 13.7911C13.2752 13.7911 13.0943 13.8698 12.9528 14.027L11.75 13.8383C11.6242 13.5867 11.4355 13.3902 11.184 13.2487C10.9481 13.1072 10.6887 13.0364 10.4057 13.0364C10.1226 13.0364 9.85535 13.115 9.60377 13.2723C9.36792 13.4295 9.18711 13.6418 9.06132 13.9091L7.83491 14.1213C7.61478 13.9012 7.34748 13.7911 7.03302 13.7911C6.71855 13.7911 6.45126 13.9012 6.23113 14.1213C6.01101 14.3415 5.90094 14.6088 5.90094 14.9232L4.69811 15.5364C4.49371 15.3792 4.26572 15.3006 4.01415 15.3006C3.69969 15.3006 3.43239 15.4106 3.21226 15.6308C2.99214 15.8509 2.88208 16.1182 2.88208 16.4327V16.81H1.37264V16.4327C1.37264 15.961 1.49057 15.5207 1.72642 15.1119C1.96226 14.7031 2.28459 14.3808 2.6934 14.1449C3.1022 13.9091 3.54245 13.7911 4.01415 13.7911C4.21855 13.7911 4.41509 13.8147 4.60377 13.8619C4.8239 13.3902 5.14623 13.0128 5.57075 12.7298C6.01101 12.4311 6.49843 12.2817 7.03302 12.2817C7.44182 12.2817 7.82704 12.3682 8.18868 12.5411C8.58176 12.1009 9.07704 11.8021 9.67453 11.6449V9.26284C9.67453 8.46095 9.31289 7.64334 8.58962 6.81001C8.00786 6.16536 7.22956 5.54429 6.25472 4.9468C5.51572 4.49083 4.80818 4.13705 4.13208 3.88548L4.67453 2.47039C4.97327 2.58045 5.36635 2.76127 5.85377 3.01284C6.68711 3.43737 7.44182 3.9012 8.11792 4.40435C8.19654 4.05844 8.15723 3.70466 8 3.34303C7.84277 2.98139 7.59906 2.66693 7.26887 2.39963C6.82862 2.038 6.28616 1.81787 5.64151 1.73926C4.63522 1.61347 3.51101 1.84932 2.26887 2.4468C2.74057 3.87762 3.29088 4.93894 3.91981 5.63076C4.23428 5.97668 4.59591 6.18108 5.00472 6.24397C5.28774 6.27542 5.58648 6.22825 5.90094 6.10246C6.05818 6.03957 6.18396 5.97668 6.2783 5.91378L7.26887 7.02227C7.08019 7.21095 6.81289 7.36819 6.46698 7.49397C6.04245 7.66693 5.61792 7.75341 5.1934 7.75341H5.0283C4.16352 7.70624 3.42453 7.33674 2.81132 6.64492C2.21384 5.98454 1.67925 5.07259 1.20755 3.90907C0.955975 3.29586 0.767296 2.74554 0.641509 2.25812L0.5 1.69209L1.01887 1.40907C2.74843 0.449947 4.34434 0.0568653 5.8066 0.229821C6.75 0.339884 7.55975 0.670073 8.23585 1.22039C8.81761 1.69209 9.22641 2.27385 9.46226 2.96567C9.71384 3.65749 9.74528 4.32573 9.5566 4.97039L9.50943 5.1119C9.47799 5.25341 9.43868 5.37919 9.39151 5.48925C10.0362 6.14963 10.5079 6.82573 10.8066 7.51756C11.3097 6.88863 11.9623 6.32259 12.7642 5.81944C12.6541 5.28485 12.6934 4.76598 12.8821 4.26284C13.0708 3.74397 13.3852 3.31944 13.8255 2.98926C14.3758 2.58045 15.044 2.35246 15.8302 2.30529C17.0409 2.2424 18.3931 2.65907 19.8868 3.55529L20.5 3.93265L20.1462 4.56944C19.6116 5.54429 18.9906 6.4641 18.283 7.32888C17.9528 7.70624 17.5833 8.00498 17.1745 8.2251C16.7814 8.42951 16.3726 8.53171 15.9481 8.53171H15.8066C15.4764 8.50026 15.1777 8.42165 14.9104 8.29586C14.6431 8.15435 14.4387 7.97353 14.2972 7.75341L15.5708 6.92793C15.5865 6.94366 15.6336 6.96724 15.7123 6.99869C15.8066 7.01441 15.9088 7.02227 16.0189 7.02227ZM8.54245 4.59303H8.51887L8.42453 4.61661L8.54245 4.71095V4.59303Z" fill="white"/>
</svg>
