<?xml version="1.0" encoding="UTF-8"?>
<svg id="_圖層_1" data-name="圖層 1" xmlns="http://www.w3.org/2000/svg" xmlns:xlink="http://www.w3.org/1999/xlink" viewBox="0 0 50 50">
  <defs>
    <style>
      .cls-1 {
        fill: none;
      }

      .cls-2 {
        fill: #e95874;
      }

      .cls-3 {
        fill: url(#_未命名漸層_66);
      }

      .cls-4 {
        fill: url(#_未命名漸層_27);
      }
    </style>
    <linearGradient id="_未命名漸層_27" data-name="未命名漸層 27" x1="25" y1="4.85" x2="25" y2="45.04" gradientUnits="userSpaceOnUse">
      <stop offset=".1" stop-color="#e8546b"/>
      <stop offset=".18" stop-color="#e8576d"/>
      <stop offset=".24" stop-color="#e96176"/>
      <stop offset=".3" stop-color="#ec7285"/>
      <stop offset=".35" stop-color="#ef8999"/>
      <stop offset=".4" stop-color="#f3a8b4"/>
      <stop offset=".45" stop-color="#f8cdd4"/>
      <stop offset=".5" stop-color="#fffafb"/>
      <stop offset=".51" stop-color="#fce9e6"/>
      <stop offset=".55" stop-color="#f7c0b4"/>
      <stop offset=".58" stop-color="#f39b87"/>
      <stop offset=".62" stop-color="#ef7d61"/>
      <stop offset=".66" stop-color="#ec6342"/>
      <stop offset=".7" stop-color="#ea502b"/>
      <stop offset=".74" stop-color="#e8421a"/>
      <stop offset=".79" stop-color="#e73a10"/>
      <stop offset=".85" stop-color="#e7380d"/>
    </linearGradient>
    <radialGradient id="_未命名漸層_66" data-name="未命名漸層 66" cx="25.17" cy="24.71" fx="25.17" fy="24.71" r="14.27" gradientUnits="userSpaceOnUse">
      <stop offset="0" stop-color="#ffaeb5"/>
      <stop offset=".27" stop-color="#f99aa4"/>
      <stop offset=".8" stop-color="#ed677b"/>
      <stop offset="1" stop-color="#e8546b"/>
    </radialGradient>
  </defs>
  <circle class="cls-1" cx="25" cy="24.84" r="20.55"/>
  <g>
    <path class="cls-2" d="M25,9.29c2.15-.94,4.49-1.43,6.85-1.43,1.16,0,2.3.12,3.4.34.5.1.76-.58.33-.84-3.09-1.86-6.7-2.93-10.57-2.93s-7.48,1.07-10.57,2.93c-.44.26-.17.94.33.84,1.1-.22,2.23-.34,3.4-.34,2.36,0,4.7.49,6.85,1.43Z"/>
    <path class="cls-4" d="M31.85,14.71c5.67,0,10.27,4.61,10.27,10.27,0,9.44-7.68,17.12-17.12,17.12S7.88,34.43,7.88,24.98c0-5.67,4.61-10.27,10.27-10.27,1.8,0,3.58.48,5.13,1.38l1.72,1,1.72-1c1.55-.9,3.33-1.38,5.13-1.38M31.85,11.29c-2.49,0-4.83.67-6.85,1.84-2.02-1.17-4.36-1.84-6.85-1.84-7.55,0-13.7,6.15-13.7,13.7h0c0,11.35,9.2,20.55,20.55,20.55s20.55-9.2,20.55-20.55c0-7.55-6.15-13.7-13.7-13.7h0Z"/>
    <path class="cls-3" d="M25,38.68c-.15-.05-3.73-1.26-7.2-3.65-4.31-2.98-6.5-6.36-6.5-10.05s3.07-6.85,6.85-6.85c2.3,0,4.43,1.15,5.71,3.07.25.38.68.61,1.14.61s.89-.23,1.14-.61c1.28-1.92,3.41-3.07,5.71-3.07,3.78,0,6.85,3.07,6.85,6.85s-2.19,7.07-6.5,10.05c-3.47,2.39-7.05,3.6-7.2,3.65h0Z"/>
  </g>
</svg>