<?xml version="1.0" encoding="UTF-8"?>
<svg id="_圖層_1" data-name="圖層 1" xmlns="http://www.w3.org/2000/svg" viewBox="0 0 50 50">
  <defs>
    <style>
      .cls-1 {
        fill: #027e8b;
      }

      .cls-2 {
        fill: #f7f7f7;
      }
    </style>
  </defs>
  <rect class="cls-1" x="4.85" y="27.92" width="41.17" height="3.51"/>
  <g>
    <path class="cls-1" d="M26.82,22.6h.1c.1.02.25.1.45.23v.02s0,.06,0,.06c0,.03-.07.05-.2.08l-.18.16v.02c.19.07.36.18.52.31.1.09.14.15.13.17v.17c-.02.06-.07.11-.14.15h-.12s-.19-.13-.51-.38l-.26-.15h-.05l-.25.16v.03l.27.14c.05.03.08.05.09.07v.08c-.11.04-.18.1-.22.2l-.05.06v.03s.02.03.07.04h1.15c.04-.1.11-.21.19-.33l.05-.03h.09c.14.06.28.18.4.35v.02s0,.03,0,.03l-.04.06h-1.98l-.37.49h0v.02l.03.03h.42s.06-.06.06-.07v-.25s-.04-.11-.04-.11v-.02l.02-.02h.14c.13.02.26.05.38.11l.03.04v.03l-.06.1-.02.02v.1s0,.04.06.07h.48l.13-.24.03-.02h.09c.09.04.19.09.32.17.06.04.1.07.1.09h0v.05c-.03.05-.08.1-.15.15v.69s0,0,0,.09v.04c-.03.25-.13.4-.31.46l-.05.02h-.12c-.05.02-.09-.05-.1-.23-.07-.12-.16-.2-.27-.26v-.05s.3.02.3.02c.06-.01.11-.05.13-.11v-.72l-.06-.06h-.54l-.06.06v1.14c.02.09.02.19.02.31-.03.04-.08.07-.18.1h-.2s-.07-.05-.07-.07v-1.47l-.06-.06h-.39l-.06.06v1.35s-.04.05-.13.1h-.02s-.17,0-.17,0l-.1-.06h0c.02-.12.02-.47.02-1.1l-.02-.02h0c-.17.17-.44.36-.8.57h-.04l-.02-.02v-.05c.48-.36.87-.85,1.15-1.46h0s-.96-.01-.96-.01c-.05.01-.11.02-.16.01l-.04-.07v-.05s.25.02.71.02h.5l.17-.38.02-.04v-.08h-.03c-.32.17-.67.3-1.04.4l-.17.03h-.02l-.03-.02v-.03c.51-.15.97-.41,1.39-.79l.07-.07v-.04c-.23-.17-.62-.31-1.17-.43h0v-.04l.02-.02c.22-.02.69.07,1.42.25.12-.1.23-.24.35-.41"/>
    <path class="cls-1" d="M29.78,22.66h.14c.14.02.27.06.41.12l.02.03v.04s-.06.08-.15.18v.19s0,.04.05.07h.09c.03-.08.1-.18.21-.3h.09c.12.06.23.16.31.29v.04s0,.03-.05.06h-1.22l-.06.06v.68c0,.07.06.11.15.12.18.02.44,0,.78-.07h.03c.09.04.14.11.14.2v.12c-.05.1-.16.16-.34.16h-.72c-.25-.01-.41-.11-.47-.31v-.03s0-.86,0-.86l-.04-.29h0s.02-.03.02-.03h.06l.36.13.07.03h.07s.06-.05.06-.07v-.32s-.02-.1-.02-.22h0s.02-.03.02-.03ZM32.15,22.72h.08c.08.02.17.06.28.12l.13.1v.08l-.14.16c.02.37-.05.76-.19,1.2-.05.11-.16.2-.33.26l.31.26h0v.08c-.38.07-.77.13-1.18.18h-.02v.03s.07.04.09.08v.04l-.08.13v.15s0,.03.06.06h.58l.25-.35h.02s.06,0,.06,0c.15.08.29.2.41.34v.04s0,.03-.05.06h-1.26l-.06.06v.52s.01.03.06.07h.87l.22-.33.02-.03h.07c.13.04.26.15.39.33v.03s0,.03,0,.03c0,.01-.01.03-.05.06h-3.32l-.22.02h-.04l-.04-.07v-.03l.02-.02h.51s.98.01.98.01c.05-.03.06-.06.06-.06v-.53l-.06-.06h-1.04s-.09.03-.11.02l-.03-.06v-.03l.02-.02h.24s.92,0,.92,0c.05-.03.06-.05.06-.06v-.34l-.06-.06c-.18.03-.55.03-1.1.03-.05,0-.1-.02-.13-.05v-.04c.51-.03,1.09-.13,1.73-.3l.5-.18c.09-.04.13-.07.11-.08h0v-.03c0-.11-.1-.22-.3-.33v-.07s.11,0,.29.04h.12c.16.04.25-.29.27-.98v-.14l-.06-.06h-.55l-.06.06v.22l.04.03h.13l.15-.18h.07c.06.04.12.1.18.19v.02s0,.03-.05.06h-.51s-.03.09-.05.27h0v.04h.2l.13-.15h.07s.06.04.16.16v.02s-.01.03-.05.07h-.52c-.1.48-.33.81-.71.99l-.11.06h-.05l-.02-.03v-.02c.31-.18.48-.61.52-1.29v-.37s0-.2,0-.2c0-.02-.01-.08-.05-.17v-.02l.03-.02h.07c.15.05.29.11.43.19h.49s.06-.07.1-.14l.06-.05Z"/>
    <path class="cls-1" d="M35.04,24.27l-.06.07v.31s0,.03.06.07h.63s.06-.06.06-.07v-.31l-.06-.07h-.63ZM35.04,23.82l-.06.06v.23s0,.03.06.07h.63s.06-.06.06-.07v-.23l-.06-.06h-.63ZM35.04,23.39l-.06.06v.21s0,.03.06.07h.63s.06-.05.06-.07v-.21l-.06-.06h-.63ZM35.13,25.16h.17l.32.07s.04.02.06.05v.03s-.04.09-.11.13v.2s0,.03.06.07h.11c.03-.06.08-.14.14-.23l.03-.03h.07c.07.02.16.09.28.22l.02.04v.03s-.01.03-.05.05h-.62l-.06.06v.46s0,.03.06.07h.73c.07-.11.14-.22.23-.31h.09c.13.06.25.16.34.3v.03s0,.03-.05.06h-3.07l-.06.02h-.03l-.03-.08v-.03l.02-.02s.2.03.61.02h.68s.06-.06.05-.07v-.46l-.05-.06h-.47s0,0-.07,0l-.03-.05v-.04l.02-.02h.55s.06-.06.05-.07v-.3l-.04-.12v-.05l.02-.03ZM35.72,22.66h.15c.09,0,.19.03.31.08.04.01.06.03.08.07v.04c-.08.07-.11.1-.09.1v.29s0,.03.05.06h.16c.03-.08.11-.21.22-.36h.09c.17.07.3.19.4.35v.04s-.01.03-.05.06h-.83l-.05.06v1.19s0,.03.05.07h.24c.06-.12.13-.23.21-.33l.04-.05h.08c.15.06.28.16.39.32l.03.05v.04l-.04.06h-1.14l-.02.02v.05c.18.3.59.53,1.24.7v.05c-.16.02-.31.14-.45.37h-.05c-.43-.2-.73-.59-.92-1.17h-.79l-.03.03v.03s.07.04.13.12v.04s-.06.07-.18.13c-.02.05-.24.25-.65.59-.14.1-.3.2-.49.3l-.18.09h-.04l-.04-.04v-.03c.3-.18.6-.53.87-1.05l.07-.17h0s-.02-.03-.02-.03h-.76l-.08.03h-.03l-.05-.07v-.05h.01s.02-.01.02-.01h.05s.87.01.87.01c.04-.03.06-.06.06-.07v-1.19l-.06-.06h-.59s-.09.02-.11.02l-.04-.05v-.06l.02-.02h.04l.06.02h.62s.06-.05.06-.06v-.41l-.03-.09v-.03l.03-.03h.13c.12.01.24.06.38.13l.02.03v.07l-.11.12v.22s0,.03.06.06h.63s.06-.05.06-.06v-.38l-.04-.13v-.03l.03-.03Z"/>
    <path class="cls-1" d="M38.6,25.1h.04c.32.13.53.34.64.64l.02.06v.07c-.01.14-.1.25-.26.3h-.1c-.13-.01-.18-.15-.16-.42-.02-.22-.1-.42-.23-.59v-.03l.05-.04ZM39.28,22.63h.08c.15,0,.35.05.6.15l.04.05v.04l-.04.06v.04c.24.39.77.63,1.58.74l.06.03v.05c-.14.1-.26.24-.35.44l-.02.02h-.08c-.54-.13-.92-.42-1.16-.87,0-.01-.04-.11-.14-.3h0s-.03,0-.03,0c-.14.25-.43.56-.87.94l-.07.06v.02l.07.03h.95c.06-.11.13-.2.21-.3l.03-.02h.05c.14.06.28.16.41.32l.02.03v.03s0,.02-.05.05h-.52l-.05.06v.48s0,.04.05.07h.48s.06-.06.14-.19l.14-.17h.02s.05,0,.05,0c.16.08.3.2.43.36l.02.04v.02s-.01.03-.05.06h-1.23l-.05.06v1.05c.12-.11.28-.47.48-1.08h0s.03,0,.03,0c.14.06.29.13.43.23.03.01.06.04.1.09v.06s-.04.06-.17.1c-.27.27-.56.55-.88.83v.02l.05.05h.79c.06-.12.15-.24.26-.36h.03s.05-.01.05-.01c.18.1.33.24.46.4v.03s-.01.03-.05.06h-3.45l-.12.02-.03-.09v-.04l.02-.02s.18.02.55.02h.92s.06-.05.06-.07v-1.28l-.06-.06h-1.16l-.1.02-.05-.09v-.04l.02-.02s.16.02.48.02h.82s.06-.06.06-.07v-.48l-.06-.06h-.52l-.06.02h-.03l-.06-.1h-.02c-.18.15-.43.28-.74.4h-.07v-.07c.64-.44,1.08-1.02,1.31-1.75,0-.05,0-.08.03-.1"/>
    <path class="cls-1" d="M44.43,24.26l-.06.06v.6s0,.03.06.07h.03c.07-.1.12-.33.15-.68h.02s.08-.01.08-.01c.13.04.25.09.35.17v.04s-.05.06-.17.12c0,0-.1.11-.3.31l-.03.02v.03h.51s.06-.06.06-.07v-.6l-.06-.06h-.65ZM43.5,25.91l-.06.06v.33s0,.03.06.06h1.36s.06-.05.06-.06v-.33l-.06-.06h-1.36ZM43.5,25.45l-.06.06v.26s0,.03.06.06h1.36s.06-.05.06-.06v-.26l-.06-.06h-1.36ZM43.39,24.31h.1c.1.02.2.09.3.21l.05.15v.08c-.04.11-.11.18-.19.2h-.02s-.03,0-.03,0c-.12-.03-.17-.16-.14-.39,0-.06-.03-.14-.1-.22h0v-.02l.04-.03ZM43.26,24.26l-.06.06v.6s0,.03.06.07h.66s.06-.06.06-.07v-.6l-.06-.06h-.66ZM43.23,25.09c-.02.07-.05.11-.11.14h0s.36.12.36.12h0s1.36,0,1.36,0c.05-.07.1-.13.17-.18.1-.01.14-.02.12-.03h0s-.03-.06-.03-.06h-1.88ZM43.87,22.64h.09l.39.16c.07.03.1.06.1.09v.05s-.03.04-.07.06v.03c.51.34,1.09.52,1.73.53h0v.06c-.09.06-.18.15-.28.28-.02.09-.06.14-.13.16h-.1c-.17-.05-.37-.15-.59-.28h0c0,.06-.02.1-.06.11h-1.44s-.09.02-.12.02c-.04-.03-.07-.06-.07-.07v-.02l.02-.02s.21.02.63.02h.47l.2-.24.04-.02v-.03c-.15-.13-.29-.27-.43-.43h-.02c-.34.34-.73.61-1.16.81l-.23.1h0s.34.13.34.13l.05.03h1.83c.03-.08.09-.15.18-.21h.05c.11.04.23.12.36.23v.02s0,.05,0,.05c-.03.05-.06.09-.11.12v.7c-.05.07-.13.11-.23.12h-.1s.2.16.2.16l.02.04v.08l-.09.12v.91s.01.04.01.04c-.03.06-.08.1-.15.12h-.23s-.09-.06-.11-.19l-.02-.02h-1.36s-.06.05-.08.16c-.08.03-.16.05-.24.05h-.11s-.08-.03-.08-.09c.02,0,.02-.35.02-1.04v-.16l-.02-.15c-.1.02-.17,0-.21-.07h0s0-.73,0-.73v-.31s-.02-.07-.02-.07c-.08.04-.23.09-.46.14h-.07v-.03c.47-.22.93-.58,1.39-1.09.06-.07.12-.15.18-.25l.06-.15.03-.03Z"/>
    <path class="cls-1" d="M12.52,21.27s.12.67.43.44l.31-.03s.12.05-.26.26c0,0,.19,1.19-.52.98,0,0-.38-.1-.38-.46,0,0,0-1.16.43-1.19"/>
    <path class="cls-1" d="M15.75,20.64s.22.41-.38,1.26c-.6.85-1.24,2.5-1.46,2.63,0,0-.26.13-.29.39-.02.26.05.7.31.65l.5-.46s.36-.18.36.1-.19.64-.19.64c0,0-.02.18.33.1,0,0,1.15-.34,1.15-1.47,0,0-.19-.41-.64-.54,0,0-.02-.36-.48.59,0,0-.62.46-.84.23,0,0-.13-.07.13-.51l.04-.06c.31-.49,1.89-2.5,2.08-2.68.19-.18.22-.39-.02-.51l-.65-.39.05.03Z"/>
    <path class="cls-1" d="M23.24,26.11c-.12-.15-1.22-1.19-1.5-.95,0,0,.98,1.94,1.43,1.96,0,0,.12-.1.07-.31,0,0,.12-.54,0-.7M21.33,22.29c.14-.1.6-.1.6-.1,0,0-.33.46-.5.46s-.1-.36-.1-.36M22.36,23.68l-.45-.02-.33-.18s.07.23-.05.2c-.12-.02-.45-.08-.21-.36l.33-.31s1.2-.44,1.17-.7c-.02-.26-.1-.59-.45-.59s-.81.23-.93.1c-.12-.13-.29-.44-.29-.44,0,0-.19-.31.19-.33,0,0,.74-.08.84-.08s.45-.23.33-.33c0,0-.31-.13-.81.07l-.43-.05s-.26-.1.22-.31c0,0,1-.57,1.15-.9l.31-.28s-.31-.57-.62-.41c0,0,.17.28-.1.44,0,0-.38.77-1.27,1.24,0,0-.14.13-.14.28,0,0,.1.26-.33.26l-.67.08s-.1.15.16.18c0,0,.76.03.79.23.02.2,0,.67-.29.75,0,0-.12.21-.6-.13l-.14-.1s0,.36-.07.41c-.07.05-.26.75.07.96,0,0,.41-.08.67-.54,0,0,.43-.44.43.05s-.38.62-.67.62c0,0-1.41.7-1.48.95,0,0-.38-.03-.38-.21s-.43-.05-.36.28c.07.33.24.52.48.52,0,0,.48-.54,1.19-.57l.86-.1s-.43,1.01-1,1.47c-.57.47-.76-.23-.93-.57l-.17-.03s-.03,1.03.45,1.11c.48.08,1.53.21,2.15-1.96l.12-.34,1.36-.03s.53.21.55.36c.02.15.36.08.36-.26l.05-.21s-.02-.2-1.05-.23M20.85,20.05c.14-.1.4-.8.4-.8,0,0-.17-.16-.24.1-.07.26-.43.36-.57.21l-.26-.39s-.07.33-.21.41c-.14.08-.07.67.19.88.26.2.55-.31.69-.41"/>
    <path class="cls-1" d="M10.64,20.93s-.19-.34-.6-.28c0,0,.24.67.38.67s.26-.03.22-.39M9.21,24.92c-.17.08-.45-.23-.45-.23l.05-.52.37-.16.04-.02v.93ZM8.71,22.47v-.28l.31-.15c.17.08.07.49.07.49l-.38-.05ZM9.16,23.4l-.29-.05-.03-.1.29-.08.02.23ZM7.95,23.09c-.14,0-.36.03-.36.03,0,0-.07-.18,0-.21.07-.03.41-.28.41-.28,0,0,.1.46-.05.46M7.95,23.78l-.26.1-.09-.31h.41l-.05.21ZM7.21,20.28c-.07-.44.53-.39.53-.39-.05.31-.53.39-.53.39M9.4,21.36c-.12,0-.62.36-.76.29-.14-.08-.19-.29-.03-.54,0,0,.6-.26.81-.31.22-.05,0-.36-.21-.33,0,0-.48.31-.6.26,0,0-.21,0-.26-.34,0,0-.24-.05-.24-.26,0,0,.48-.36.55-.38.07-.03.34-.24.34-.24,0,0,.02-.1.29-.05,0,0,.19-.02.21.23,0,0,.86.31.91.1.05-.21-.12-.57-.62-.41,0,0-.5-.03-.55-.15-.05-.13.03-.49-.45-.52,0,0,.05-.36-.76.1,0,0-.05.08.02.08s.69-.15.14.52c0,0,.05.39-.81.31l-.02-.21s-.31.16-.6.03h-.22s.1.49-.07.62h0s-.05.03-.05.03c-.15.1-.36.18-.54.23-.11.03-.42.09-.65.16-.13.02-.28.05-.49.09l-.81.1s-.3.34.58.54c0,0,.46-.12.78-.32.14-.06.33-.15.58-.27.16-.08.51-.28.69-.3.04,0,.12-.03.2-.06,0,.1.02.18.12.18s.72-.23.72-.23c0,0,.43-.31.38.13l-.21.15s.38.13.26.54l-.96.46s-.14.15.38,0c0,0,.69-.41.69.1s-.31.39-.62.98c0,0-.1.13-.41-.05,0,0,.07.46,0,.54-.07.08.45.08-.07,1.8,0,0-.17.08-.24-.18,0,0-.17.41.24.72.41.31.36-.93.48-1.32,0,0,.69-.28.64.28-.05.57-.05,2.79,0,3.07.05.29.41-1.06.38-1.36,0,0-.07-1.14.22-.93.29.2.45.88.74.93.29.05.53-1.03.33-1.6,0,0,.07-2.34.1-2.65.02-.31-.41-.57-.52-.57M6.01,21.08s-.21-.07-.21.36c0,0-.19.21.05.28.24.08,1.17.1.17-.65M6.37,23.04s-.33.88-.43.57c0,0,.19-1.18-.14-1.49,0,0-.1-.16-.29-.03,0,0,.17,1.67-.07,2.3-.24.62-.17,1.31.43,1.18.6-.13.69-2.71.69-2.71,0,0,.05-.52-.19.18"/>
  </g>
  <g>
    <path class="cls-2" d="M6.55,28.62v1.52c0,.08,0,.13.01.15l.04.04s.06.02.11.02c.16,0,.29-.05.37-.16.12-.15.18-.38.18-.69,0-.25-.04-.45-.12-.6-.06-.12-.14-.2-.24-.24-.07-.03-.19-.05-.35-.04M5.79,30.45v-.05h.07c.06,0,.1,0,.13-.03l.07-.07s.01-.08.01-.18v-1.28c0-.1,0-.16-.02-.19l-.06-.06s-.08-.03-.13-.03h-.07v-.05h.89c.24,0,.43.03.57.1.18.08.31.19.4.35.09.16.14.34.14.53,0,.14-.02.26-.07.38-.05.12-.1.21-.17.29-.07.07-.15.14-.25.18-.09.05-.21.08-.34.1-.06.01-.15.02-.28.02h-.89Z"/>
    <path class="cls-2" d="M8.9,30.15v-.45c-.12.07-.21.14-.26.22-.04.05-.06.1-.06.16,0,.04.02.08.05.12.03.03.06.04.1.04.05,0,.1-.03.17-.08M8.9,30.26c-.17.15-.32.22-.45.22-.08,0-.14-.02-.19-.08-.05-.05-.08-.11-.08-.19,0-.1.05-.2.13-.28.09-.08.28-.19.59-.33v-.14c0-.1,0-.16-.02-.19l-.06-.07s-.07-.03-.1-.03c-.06,0-.12.01-.16.04l-.04.06.04.08s.05.08.05.12c0,.05-.02.09-.05.12-.04.03-.08.05-.14.05-.06,0-.11-.02-.15-.06-.04-.04-.06-.08-.06-.13,0-.07.03-.13.08-.2.05-.06.13-.11.23-.14.1-.03.2-.05.31-.05.13,0,.23.03.31.08.08.06.13.11.15.18.01.04.02.13.02.28v.52c0,.06,0,.1,0,.12l.02.03h.03s.05,0,.08-.04l.04.03c-.05.07-.1.12-.15.16-.05.03-.11.05-.18.05-.08,0-.14-.02-.18-.05-.04-.04-.07-.09-.08-.16"/>
    <path class="cls-2" d="M10.33,29.11v.17c.07-.07.14-.13.2-.16.06-.03.13-.05.21-.05.09,0,.16.02.22.07.06.05.1.11.12.18.02.05.02.16.02.32v.52c0,.1,0,.17.03.19.02.03.06.04.12.05v.05h-.69v-.05c.05,0,.09-.03.11-.06.02-.02.02-.08.02-.18v-.6c0-.11,0-.18-.01-.21l-.05-.07-.07-.02c-.08,0-.16.06-.23.18v.72c0,.1.01.16.03.19.02.03.05.04.11.05v.05h-.69v-.05c.06,0,.1-.02.12-.05.02-.02.02-.08.02-.19v-.76c0-.1,0-.16-.03-.19-.02-.02-.06-.04-.12-.05v-.05h.56Z"/>
    <path class="cls-2" d="M12.49,29.42c-.07-.14-.16-.2-.26-.2l-.09.03s-.07.08-.09.16c-.02.07-.03.19-.03.34,0,.17.01.29.04.37.03.08.06.14.1.18.02.02.05.03.09.03.09,0,.17-.07.24-.2v-.71ZM12.9,28.51v1.55c0,.1,0,.17,0,.19l.04.07s.06.03.11.03v.05l-.58.11v-.21c-.07.08-.13.14-.19.17-.05.03-.11.04-.18.04-.17,0-.31-.07-.41-.23-.08-.12-.12-.28-.12-.46,0-.15.03-.27.08-.39.05-.12.12-.2.21-.26.09-.06.18-.09.28-.09.06,0,.12.01.17.04.05.03.1.07.16.13v-.41c0-.1,0-.16-.01-.19l-.05-.06s-.07-.02-.13-.02v-.06h.61Z"/>
    <path class="cls-2" d="M14.16,29.64c0-.16,0-.26-.03-.32-.02-.06-.04-.1-.08-.13l-.08-.03c-.05,0-.09.03-.12.07-.06.09-.09.2-.09.35v.05h.4ZM14.52,29.73h-.75c0,.18.06.32.14.42.07.08.15.12.24.12.06,0,.11-.02.16-.05.05-.03.1-.09.15-.17l.05.03c-.07.15-.15.25-.24.32-.09.06-.19.09-.31.09-.2,0-.36-.07-.46-.23-.08-.12-.13-.28-.13-.46,0-.23.06-.4.19-.54.12-.13.27-.2.43-.2.14,0,.26.06.36.17.1.11.16.28.16.5"/>
    <path class="cls-2" d="M15.36,28.51v1.67c0,.1.01.16.03.18.02.03.07.04.13.05v.05h-.74v-.05c.06,0,.1-.02.14-.05.02-.02.03-.08.03-.18v-1.39c0-.1-.01-.16-.03-.18-.02-.03-.07-.04-.13-.04v-.05h.57Z"/>
    <path class="cls-2" d="M16.12,28.46c.06,0,.12.02.16.07.04.04.07.1.07.16s-.02.11-.07.16c-.04.04-.1.06-.16.06s-.12-.02-.16-.06c-.04-.04-.07-.1-.07-.16s.02-.11.07-.16c.04-.04.1-.07.16-.07M16.33,29.11v1.06c0,.1,0,.16.03.18.02.03.07.04.13.05v.05h-.74v-.05c.06,0,.11-.02.13-.05.02-.02.03-.08.03-.18v-.78c0-.09-.01-.16-.03-.18-.02-.03-.07-.04-.13-.05v-.05h.57Z"/>
    <path class="cls-2" d="M17.41,29.17c-.05,0-.09.02-.13.05-.04.04-.06.11-.07.22-.01.11-.02.26-.02.45,0,.1,0,.2.02.29,0,.07.03.12.07.16.04.04.08.05.12.05s.08-.01.11-.04c.04-.03.06-.08.08-.14.02-.09.03-.28.03-.55,0-.16,0-.27-.03-.33-.02-.06-.05-.11-.08-.13-.03-.02-.06-.03-.1-.03M17.4,29.07c.12,0,.23.03.33.09.1.06.18.15.23.26.05.11.08.23.08.36,0,.19-.05.35-.15.48-.12.15-.28.23-.49.23s-.36-.07-.47-.21c-.11-.14-.17-.31-.17-.49s.06-.36.17-.51c.11-.14.27-.21.47-.21"/>
    <path class="cls-2" d="M18.94,29.11v.17c.07-.07.14-.13.2-.16.07-.03.13-.05.21-.05.09,0,.16.02.22.07.06.05.1.11.12.18.02.05.02.16.02.32v.52c0,.1,0,.17.03.19.02.03.06.04.12.05v.05h-.69v-.05c.05,0,.09-.03.11-.06.02-.02.02-.08.02-.18v-.6c0-.11,0-.18-.01-.21l-.04-.07-.07-.02c-.08,0-.16.06-.23.18v.72c0,.1.01.16.03.19.02.03.05.04.11.05v.05h-.69v-.05c.06,0,.1-.02.12-.05.02-.02.02-.08.02-.19v-.76c0-.1,0-.16-.03-.19-.02-.02-.06-.04-.12-.05v-.05h.56Z"/>
    <path class="cls-2" d="M21.78,29.52v.6c0,.1,0,.16.02.18l.07.07s.08.03.13.03h.07v.05h-1.04v-.05h.07c.06,0,.1-.01.14-.03l.06-.07s.02-.08.02-.18v-1.28c0-.1,0-.16-.02-.19l-.07-.06s-.08-.03-.13-.03h-.07v-.05h1.04v.05h-.07c-.06,0-.1.01-.14.03l-.06.07s-.02.08-.02.18v.55h.7v-.55c0-.1,0-.16-.02-.19l-.07-.06s-.08-.03-.13-.03h-.06v-.05h1.03v.05h-.06c-.06,0-.1.01-.14.03l-.06.07s-.01.08-.01.18v1.28c0,.1,0,.16.01.18l.07.07s.08.03.13.03h.06v.05h-1.03v-.05h.06c.06,0,.1-.01.14-.03l.06-.07s.02-.08.02-.18v-.6h-.7Z"/>
    <path class="cls-2" d="M24.17,29.17c-.05,0-.09.02-.13.05-.04.04-.06.11-.07.22-.01.11-.02.26-.02.45,0,.1,0,.2.02.29,0,.07.03.12.07.16.04.04.08.05.12.05s.08-.01.11-.04c.04-.03.06-.08.08-.14.02-.09.03-.28.03-.55,0-.16-.01-.27-.03-.33-.02-.06-.05-.11-.08-.13-.03-.02-.06-.03-.1-.03M24.17,29.07c.12,0,.23.03.33.09.1.06.18.15.23.26.05.11.08.23.08.36,0,.19-.05.35-.15.48-.12.15-.28.23-.49.23s-.36-.07-.47-.21c-.11-.14-.17-.31-.17-.49s.06-.36.17-.51c.11-.14.27-.21.47-.21"/>
    <path class="cls-2" d="M25.68,30.17c.08.12.17.18.27.18.05,0,.09-.03.13-.08.05-.08.08-.23.08-.46s-.03-.39-.08-.48c-.04-.06-.09-.08-.15-.08-.1,0-.18.07-.24.21v.72ZM25.68,30.32v.5c0,.07,0,.12.02.14l.05.05s.07.02.14.02v.05h-.78v-.05c.06,0,.1-.02.13-.05.02-.02.03-.08.03-.17v-1.42c0-.1-.01-.16-.03-.18-.02-.03-.07-.04-.13-.05v-.05h.57v.18c.05-.07.1-.12.15-.15.07-.04.15-.07.23-.07.1,0,.19.03.27.09.08.06.14.15.19.26.04.11.06.23.06.36,0,.14-.02.26-.07.37-.04.11-.11.2-.19.26-.08.06-.18.09-.28.09-.07,0-.14-.02-.21-.05-.05-.03-.1-.07-.15-.13"/>
    <path class="cls-2" d="M27.74,29.64c0-.16,0-.26-.03-.32-.02-.06-.04-.1-.08-.13l-.08-.03c-.05,0-.09.03-.12.07-.06.09-.09.2-.09.35v.05h.4ZM28.1,29.73h-.75c0,.18.06.32.14.42.07.08.15.12.24.12.06,0,.11-.02.16-.05.05-.03.1-.09.15-.17l.05.03c-.07.15-.16.25-.24.32-.09.06-.19.09-.31.09-.2,0-.35-.07-.46-.23-.08-.12-.13-.28-.13-.46,0-.23.06-.4.19-.54.12-.13.27-.2.43-.2.14,0,.26.06.36.17.1.11.16.28.16.5"/>
    <path class="cls-2" d="M30.01,28.62v.8h.06c.09,0,.16-.01.21-.04.05-.03.1-.07.14-.13.04-.06.06-.15.07-.25h.05v.98h-.05c-.02-.19-.07-.31-.15-.37-.08-.06-.18-.09-.28-.09h-.06v.59c0,.1,0,.16.02.18l.07.07s.08.03.13.03h.07v.05h-1.03v-.05h.07c.06,0,.1-.01.14-.03l.06-.07s.02-.08.02-.18v-1.28c0-.1,0-.16-.02-.19l-.06-.06s-.08-.03-.13-.03h-.07v-.05h1.67v.56h-.06c-.01-.13-.05-.23-.11-.29-.06-.06-.14-.11-.24-.13-.06-.01-.17-.02-.32-.02h-.18Z"/>
    <path class="cls-2" d="M31.9,29.17s-.09.02-.13.05c-.04.04-.06.11-.07.22-.01.11-.02.26-.02.45,0,.1,0,.2.02.29.01.07.03.12.07.16.03.04.07.05.12.05s.08-.01.11-.04c.04-.03.06-.08.08-.14.02-.09.03-.28.03-.55,0-.16,0-.27-.03-.33-.02-.06-.05-.11-.08-.13-.02-.02-.06-.03-.1-.03M31.89,29.07c.12,0,.23.03.33.09.1.06.18.15.23.26.05.11.08.23.08.36,0,.19-.05.35-.15.48-.12.15-.28.23-.49.23s-.36-.07-.47-.21c-.11-.14-.17-.31-.17-.49s.06-.36.17-.51c.11-.14.27-.21.47-.21"/>
    <path class="cls-2" d="M34.19,29.11v1.05c0,.1,0,.17.03.19.02.03.06.04.12.05v.05h-.56v-.18c-.07.08-.13.13-.19.17-.07.03-.14.05-.22.05s-.15-.02-.21-.07c-.06-.05-.1-.1-.12-.16-.02-.06-.03-.17-.03-.33v-.53c0-.1,0-.16-.03-.19-.02-.02-.06-.04-.12-.05v-.05h.56v.92c0,.1,0,.16.01.19l.04.06.07.02.1-.03s.08-.08.14-.15v-.72c0-.1,0-.16-.03-.19-.02-.02-.06-.04-.12-.05v-.05h.55Z"/>
    <path class="cls-2" d="M35.23,29.11v.17c.07-.07.14-.13.2-.16.06-.03.13-.05.21-.05.09,0,.16.02.22.07.06.05.1.11.12.18.02.05.02.16.02.32v.52c0,.1.01.17.03.19.02.03.06.04.12.05v.05h-.69v-.05s.09-.03.11-.06c.02-.02.02-.08.02-.18v-.6c0-.11,0-.18-.01-.21l-.04-.07-.07-.02c-.09,0-.16.06-.23.18v.72c0,.1,0,.16.03.19.02.03.05.04.11.05v.05h-.69v-.05c.06,0,.1-.02.12-.05.02-.02.02-.08.02-.19v-.76c0-.1,0-.16-.03-.19-.02-.02-.06-.04-.12-.05v-.05h.56Z"/>
    <path class="cls-2" d="M37.39,29.42c-.07-.14-.16-.2-.26-.2l-.09.03s-.06.08-.09.16c-.02.07-.03.19-.03.34,0,.17.01.29.04.37.03.08.06.14.1.18.02.02.05.03.09.03.09,0,.17-.07.24-.2v-.71ZM37.8,28.51v1.55c0,.1,0,.17,0,.19l.04.07s.06.03.11.03v.05l-.58.11v-.21c-.07.08-.13.14-.18.17-.05.03-.11.04-.18.04-.17,0-.31-.07-.41-.23-.08-.12-.12-.28-.12-.46,0-.15.03-.27.08-.39.05-.12.12-.2.21-.26.09-.06.18-.09.28-.09.07,0,.12.01.17.04.05.03.1.07.16.13v-.41c0-.1,0-.16-.01-.19l-.05-.06s-.07-.02-.13-.02v-.06h.61Z"/>
    <path class="cls-2" d="M39.02,30.15v-.45c-.12.07-.2.14-.26.22-.04.05-.06.1-.06.16,0,.04.02.08.05.12.02.03.06.04.1.04.05,0,.1-.03.17-.08M39.02,30.26c-.17.15-.31.22-.45.22-.08,0-.14-.02-.19-.08-.05-.05-.08-.11-.08-.19,0-.1.05-.2.14-.28.09-.08.28-.19.58-.33v-.14c0-.1,0-.16-.02-.19l-.06-.07s-.07-.03-.1-.03c-.06,0-.12.01-.16.04l-.04.06.04.08s.05.08.05.12c0,.05-.02.09-.05.12-.04.03-.08.05-.14.05-.06,0-.11-.02-.15-.06-.04-.04-.06-.08-.06-.13,0-.07.03-.13.08-.2.05-.06.13-.11.23-.14.1-.03.2-.05.31-.05.13,0,.23.03.31.08.08.06.13.11.15.18.01.04.02.13.02.28v.52c0,.06,0,.1,0,.12l.02.03h.03s.05,0,.08-.04l.04.03c-.05.07-.1.12-.15.16-.05.03-.11.05-.18.05-.08,0-.14-.02-.18-.05-.04-.04-.07-.09-.08-.16"/>
    <path class="cls-2" d="M40.44,28.62v.49h.32v.14h-.32v.83c0,.08,0,.13.01.15l.04.06.05.02c.06,0,.12-.05.18-.14l.04.03c-.08.18-.21.28-.38.28-.09,0-.16-.02-.22-.07-.06-.05-.1-.1-.11-.16-.01-.03-.02-.12-.02-.26v-.73h-.18v-.05c.12-.08.23-.18.31-.27.09-.09.16-.2.23-.31h.05Z"/>
    <path class="cls-2" d="M41.35,28.46c.06,0,.12.02.16.07.04.04.07.1.07.16s-.02.11-.07.16c-.04.04-.1.06-.16.06s-.11-.02-.16-.06c-.04-.04-.06-.1-.06-.16s.02-.11.06-.16c.05-.04.1-.07.16-.07M41.56,29.11v1.06c0,.1.01.16.03.18.02.03.07.04.13.05v.05h-.74v-.05c.06,0,.1-.02.13-.05.02-.02.03-.08.03-.18v-.78c0-.09-.01-.16-.03-.18-.02-.03-.06-.04-.13-.05v-.05h.57Z"/>
    <path class="cls-2" d="M42.64,29.17s-.09.02-.13.05c-.04.04-.06.11-.07.22,0,.11-.02.26-.02.45,0,.1,0,.2.02.29.01.07.03.12.07.16.04.04.07.05.12.05s.08-.01.11-.04c.04-.03.06-.08.08-.14.02-.09.03-.28.03-.55,0-.16-.01-.27-.03-.33-.02-.06-.05-.11-.08-.13-.03-.02-.06-.03-.1-.03M42.63,29.07c.12,0,.23.03.33.09.1.06.18.15.23.26.05.11.08.23.08.36,0,.19-.05.35-.15.48-.12.15-.28.23-.49.23s-.36-.07-.47-.21c-.11-.14-.17-.31-.17-.49s.06-.36.17-.51c.11-.14.27-.21.47-.21"/>
    <path class="cls-2" d="M44.17,29.11v.17c.07-.07.14-.13.2-.16.07-.03.13-.05.21-.05.09,0,.16.02.22.07.06.05.1.11.12.18.02.05.02.16.02.32v.52c0,.1.01.17.03.19.02.03.06.04.12.05v.05h-.69v-.05c.05,0,.09-.03.11-.06.02-.02.02-.08.02-.18v-.6c0-.11,0-.18-.01-.21l-.05-.07-.07-.02c-.08,0-.16.06-.23.18v.72c0,.1.01.16.03.19.02.03.05.04.11.05v.05h-.69v-.05c.06,0,.1-.02.12-.05.01-.02.02-.08.02-.19v-.76c0-.1,0-.16-.03-.19-.02-.02-.06-.04-.12-.05v-.05h.56Z"/>
  </g>
</svg>