<?xml version="1.0" encoding="utf-8"?>
<!-- Generator: Adobe Illustrator 27.4.1, SVG Export Plug-In . SVG Version: 6.00 Build 0)  -->
<svg version="1.1" id="圖層_1" xmlns="http://www.w3.org/2000/svg" xmlns:xlink="http://www.w3.org/1999/xlink" x="0px" y="0px"
	 width="246px" height="246px" viewBox="0 0 246 246" style="enable-background:new 0 0 246 246;" xml:space="preserve">
<style type="text/css">
	.st0{fill:#FFFFFF;}
</style>
<text transform="matrix(1 0 0 1 -54 -76.5654)" style="font-family:'AdobeMingStd-Light-B5pc-H'; font-size:33.2px;">數位通傳資源規劃專區</text>
<g>
	<g>
		<path class="st0" d="M110,110.9c0.3-2-0.3-3.9-1.5-5.5c-1.3-1.6-3-2.6-5-2.8l0,0c-4.2-0.5-7.9,2.5-8.4,6.7l0,0
			c-0.5,4.2,2.5,7.9,6.7,8.4l0,0C105.8,118,109.7,115.1,110,110.9z M106.6,110.6c-0.3,2.2-2.3,3.8-4.4,3.5l0,0
			c-2.2-0.3-3.8-2.3-3.5-4.4l0,0l0,0c0.3-2.2,2.3-3.8,4.4-3.5l0,0c1,0.1,2,0.6,2.6,1.4C106.4,108.4,106.7,109.5,106.6,110.6z"/>
		<path class="st0" d="M68.3,99.5c-0.1,0.5,0,1,0.4,1.4l0,0c0.3,0.2,0.6,0.5,1,0.5l0.1,0c0.8,0.1,1.6-0.5,1.8-1.3
			c2.5-13.3,14.6-22.8,28.1-22.1c0.4,0,0.8-0.1,1.2-0.4c0.4-0.4,0.5-0.8,0.5-1.2c0-0.4-0.1-0.8-0.4-1.2c-0.4-0.4-0.8-0.5-1.2-0.5
			C84.7,73.9,71.1,84.5,68.3,99.5z"/>
		<path class="st0" d="M76,102.6c-0.1,0.5,0,1,0.4,1.4c0.3,0.3,0.7,0.5,1.1,0.5c0.5,0.1,0.9-0.1,1.3-0.4c0.2-0.2,0.5-0.5,0.5-0.9
			c2.2-10.5,11.5-17.9,22.2-17.5c0.8,0,1.6-0.6,1.6-1.6c0-0.4,0-0.8-0.4-1.2c-0.4-0.4-0.8-0.5-1.2-0.5C89.1,82,78.4,90.5,76,102.6z"
			/>
		<path class="st0" d="M83.7,105.9c-0.1,0.5,0,1,0.4,1.4l0,0c0.3,0.2,0.7,0.5,1.1,0.5l0,0c0.4,0,0.8-0.1,1.2-0.4
			c0.2-0.2,0.5-0.6,0.5-0.9c1.8-7.5,8.7-12.9,16.4-12.9c0.5,0,0.9-0.2,1.2-0.6c0.2-0.4,0.4-0.8,0.3-1.2c-0.1-0.8-0.7-1.4-1.5-1.5
			l0,0C93.9,90.3,85.7,96.7,83.7,105.9z"/>
	</g>
	<g id="_x31_2">
		<path class="st0" d="M152.5,157.5h-11.3c-1.5,0-2.7-1.2-2.7-2.7v-4.4c-1.3-0.4-2.6-1-3.9-1.6l-3.1,3.1c-0.5,0.5-1.2,0.8-1.9,0.8h0
			c-0.7,0-1.4-0.3-1.9-0.8l-8-8c0,0,0,0,0,0c-0.5-0.5-0.8-1.2-0.8-1.9s0.3-1.4,0.8-1.9l3.1-3.1c-0.6-1.2-1.2-2.5-1.6-3.9h-4.4
			c-1.5,0-2.7-1.2-2.7-2.7V119c0-1.5,1.2-2.7,2.7-2.7h4.4c0.4-1.3,1-2.6,1.6-3.9l-3.1-3.1c-0.5-0.5-0.8-1.2-0.8-1.9
			c0-0.7,0.3-1.4,0.8-1.9l8-8c0.5-0.5,1.2-0.8,1.9-0.8h0c0.7,0,1.4,0.3,1.9,0.8l3.1,3.1c1.2-0.6,2.5-1.2,3.9-1.6v-4.4
			c0-1.5,1.2-2.7,2.7-2.7h11.3c1.5,0,2.7,1.2,2.7,2.7v4.4c1.3,0.4,2.6,1,3.9,1.6l3.1-3.1c0.5-0.5,1.2-0.8,1.9-0.8h0
			c0.7,0,1.4,0.3,1.9,0.8l8,8c1.1,1.1,1.1,2.8,0,3.8l-3.1,3.1c0.6,1.2,1.2,2.5,1.6,3.9h4.4c1.5,0,2.7,1.2,2.7,2.7v11.3
			c0,1.5-1.2,2.7-2.7,2.7h-4.4c-0.4,1.3-1,2.6-1.6,3.9l3.1,3.1c1.1,1.1,1.1,2.8,0,3.8l-8,8c-0.5,0.5-1.2,0.8-1.9,0.8h0
			c-0.7,0-1.4-0.3-1.9-0.8l-3.1-3.1c-1.2,0.6-2.5,1.2-3.9,1.6v4.4C155.2,156.2,154,157.5,152.5,157.5z M141.8,154.2H152v-4.3
			c0-1.2,0.8-2.2,1.9-2.6c1.4-0.4,2.7-1,4-1.7c1.1-0.6,2.3-0.4,3.2,0.5l3,3l7.2-7.2l-3-3c-0.8-0.8-1-2.1-0.5-3.2
			c0.7-1.3,1.2-2.6,1.7-4c0.4-1.1,1.4-1.9,2.6-1.9h4.3v-10.2h-4.3c-1.2,0-2.2-0.8-2.6-1.9c-0.4-1.4-1-2.7-1.7-4
			c-0.6-1.1-0.4-2.3,0.5-3.2l3-3l-7.2-7.2l-3,3c-0.8,0.8-2.1,1-3.2,0.5c-1.3-0.7-2.6-1.2-4-1.7c-1.1-0.4-1.9-1.4-1.9-2.6v-4.3h-10.2
			v4.3c0,1.2-0.8,2.2-1.9,2.6c-1.4,0.4-2.7,1-4,1.7c-1.1,0.6-2.3,0.4-3.2-0.5l-3-3l-7.2,7.2l3,3c0.8,0.8,1,2.1,0.5,3.2
			c-0.7,1.3-1.2,2.6-1.7,4c-0.4,1.1-1.4,1.9-2.6,1.9h-4.3v10.2h4.3c1.2,0,2.2,0.8,2.6,1.9c0.4,1.4,1,2.7,1.7,4
			c0.6,1.1,0.4,2.3-0.5,3.2l-3,3l7.2,7.2l3-3c0.8-0.8,2.1-1,3.2-0.5c1.3,0.7,2.6,1.2,4,1.7c1.1,0.4,1.9,1.4,1.9,2.6V154.2z
			 M123,137.3C123,137.3,123,137.3,123,137.3C123,137.3,123,137.3,123,137.3z M170.7,137.3C170.7,137.3,170.7,137.3,170.7,137.3
			C170.7,137.3,170.7,137.3,170.7,137.3z M123.1,136.6C123.1,136.6,123.1,136.6,123.1,136.6L123.1,136.6z M170.6,136.6L170.6,136.6
			C170.6,136.6,170.6,136.6,170.6,136.6z M121.1,132.7C121.1,132.7,121.1,132.7,121.1,132.7C121.1,132.7,121.1,132.7,121.1,132.7z
			 M172.6,132.7C172.6,132.7,172.6,132.7,172.6,132.7C172.6,132.7,172.6,132.7,172.6,132.7z M121.1,116.7
			C121.1,116.7,121.1,116.7,121.1,116.7C121.1,116.7,121.1,116.7,121.1,116.7z M172.6,116.7C172.6,116.7,172.6,116.7,172.6,116.7
			C172.6,116.7,172.6,116.7,172.6,116.7z M123,112.1C123,112.1,123,112.2,123,112.1C123,112.2,123,112.1,123,112.1z M170.7,112.1
			C170.7,112.1,170.7,112.1,170.7,112.1C170.7,112.1,170.7,112.1,170.7,112.1z M146.9,137.9c-2.9,0-6.1-1-9.3-3.3
			c-0.2-0.2-0.4-0.4-0.6-0.6c0,0,0,0,0,0c-5.3-7.1-3.6-14.5,0.6-18.6c4.1-4.1,11.5-5.9,18.6-0.6c0.2,0.2,0.4,0.4,0.6,0.6
			c5.3,7.1,3.6,14.5-0.6,18.6C153.9,136.3,150.6,137.9,146.9,137.9z M139.6,132c5.6,4.1,11.2,2.8,14.3-0.3c3.1-3.1,4.4-8.8,0.3-14.3
			c-5.6-4.1-11.2-2.8-14.3,0.3C136.7,120.8,135.5,126.4,139.6,132z M139.5,132C139.5,132,139.5,132,139.5,132
			C139.5,132,139.5,132,139.5,132z M154.2,117.4C154.2,117.4,154.2,117.4,154.2,117.4C154.2,117.4,154.2,117.4,154.2,117.4z"/>
		<path class="st0" d="M89.2,171.4c-1.3,0-2.5-1-2.7-2.4l-0.3-2.5c-0.8-0.2-1.5-0.4-2.3-0.6l-1.5,2c-0.9,1.2-2.6,1.4-3.8,0.5
			l-5.8-4.6c-0.6-0.4-0.9-1.1-1-1.8s0.1-1.4,0.6-2l1.5-2c-0.4-0.7-0.8-1.4-1.2-2.1l-2.5,0.3c-0.7,0.1-1.4-0.1-2-0.6
			c-0.6-0.4-0.9-1.1-1-1.8l-0.9-7.4c-0.1-0.7,0.1-1.4,0.6-2c0.4-0.6,1.1-0.9,1.8-1l2.5-0.3c0.2-0.8,0.4-1.5,0.6-2.3l-2-1.5
			c-0.6-0.4-0.9-1.1-1-1.8c-0.1-0.7,0.1-1.4,0.6-2l4.6-5.8c0.9-1.2,2.6-1.4,3.8-0.5l2,1.5c0.7-0.4,1.3-0.8,2.1-1.2l-0.3-2.5
			c-0.1-0.7,0.1-1.4,0.6-2c0.4-0.6,1.1-0.9,1.8-1l7.4-0.9c0.7-0.1,1.4,0.1,2,0.6c0.6,0.4,0.9,1.1,1,1.8l0.3,2.5
			c0.8,0.2,1.5,0.4,2.3,0.6l1.5-2c0.9-1.2,2.6-1.4,3.8-0.5l5.8,4.6c0.6,0.4,0.9,1.1,1,1.8c0.1,0.7-0.1,1.4-0.6,2l-1.5,2
			c0.4,0.7,0.8,1.4,1.2,2.1l2.5-0.3c0.7-0.1,1.4,0.1,2,0.6c0.6,0.4,0.9,1.1,1,1.8l0.9,7.4c0.1,0.7-0.1,1.4-0.6,2
			c-0.4,0.6-1.1,0.9-1.8,1l-2.5,0.3c-0.2,0.8-0.4,1.5-0.6,2.3l2,1.5c0.6,0.4,0.9,1.1,1,1.8c0.1,0.7-0.1,1.4-0.6,2l-4.6,5.8
			c-0.9,1.2-2.6,1.4-3.8,0.5l-2-1.5c-0.7,0.4-1.3,0.8-2.1,1.2l0.3,2.5c0.1,0.7-0.1,1.4-0.6,2c-0.4,0.6-1.1,0.9-1.8,1l-7.4,0.9
			C89.4,171.4,89.3,171.4,89.2,171.4z M83.8,162.5c0.3,0,0.6,0.1,1,0.2c0.8,0.3,1.6,0.5,2.5,0.7c1.2,0.2,2,1.2,2.2,2.3l0.3,2.3
			l6.3-0.8l-0.3-2.3c-0.1-1.2,0.5-2.3,1.6-2.8c0.8-0.4,1.6-0.8,2.3-1.3c1-0.7,2.3-0.6,3.2,0.1l1.9,1.5l3.9-5l-1.9-1.5
			c-0.9-0.7-1.3-2-0.8-3.1c0.3-0.8,0.5-1.7,0.7-2.5c0.2-1.2,1.2-2,2.3-2.2l2.3-0.3l-0.7-6.3l-2.3,0.3c-1.2,0.1-2.3-0.5-2.8-1.6
			c-0.4-0.8-0.8-1.5-1.3-2.3c-0.7-1-0.6-2.3,0.1-3.2l1.5-1.9l-5-3.9l-1.5,1.9c-0.7,0.9-2,1.3-3.1,0.8c-0.8-0.3-1.6-0.5-2.5-0.7
			c-1.2-0.2-2-1.2-2.2-2.3l-0.3-2.3l-6.3,0.8l0.3,2.3c0.1,1.2-0.5,2.3-1.6,2.8c-0.8,0.4-1.5,0.8-2.3,1.3c-1,0.7-2.3,0.6-3.2-0.1
			l-1.9-1.5l-3.9,5l1.9,1.5c0.9,0.7,1.3,2,0.8,3.1c-0.3,0.8-0.5,1.7-0.7,2.5c-0.2,1.2-1.2,2-2.3,2.2l-2.3,0.3l0.7,6.3l2.3-0.3
			c1.2-0.1,2.3,0.5,2.8,1.6c0.4,0.8,0.8,1.5,1.3,2.3c0.7,1,0.6,2.3-0.1,3.2l-1.5,1.9l5,3.9l1.5-1.9C82.2,162.9,83,162.5,83.8,162.5z
			 M86.6,166.6C86.6,166.6,86.6,166.6,86.6,166.6C86.6,166.6,86.6,166.6,86.6,166.6z M83.6,165.7C83.6,165.7,83.6,165.7,83.6,165.7
			C83.6,165.7,83.6,165.7,83.6,165.7z M74.1,158.3C74.1,158.3,74.1,158.3,74.1,158.3C74.1,158.3,74.1,158.3,74.1,158.3z
			 M108.2,139.1C108.2,139.1,108.2,139.1,108.2,139.1C108.2,139.1,108.2,139.1,108.2,139.1z M106.7,136.4
			C106.7,136.4,106.7,136.4,106.7,136.4C106.7,136.4,106.7,136.4,106.7,136.4z M97.2,128.9C97.2,128.9,97.2,128.9,97.2,128.9
			C97.2,128.9,97.2,128.9,97.2,128.9z M94.2,128.1C94.2,128.1,94.2,128.1,94.2,128.1C94.2,128.1,94.2,128.1,94.2,128.1z M90.4,157.2
			c-2.3,0-4.5-0.8-6.1-2.1c-3.4-2.7-5.4-7.9-2.1-13.6c0.1-0.2,0.3-0.5,0.5-0.7c0,0,0,0,0,0c4.8-4.5,10.3-3.8,13.7-1.2
			c3.4,2.7,5.4,7.9,2.1,13.6c-0.1,0.2-0.3,0.5-0.5,0.7C95.6,156.2,92.9,157.2,90.4,157.2z M85,143.1c-2.4,4.3-0.8,7.8,1.3,9.4
			c2.1,1.7,5.9,2.4,9.5-0.9c2.4-4.3,0.8-7.8-1.3-9.4C92.4,140.5,88.6,139.7,85,143.1z M95.8,151.6C95.8,151.6,95.8,151.6,95.8,151.6
			z M85,143.1L85,143.1C85,143.1,85,143.1,85,143.1C85,143.1,85,143.1,85,143.1z"/>
	</g>
</g>
</svg>
