<svg id="圖層_1" data-name="圖層 1" xmlns="http://www.w3.org/2000/svg" width="246" height="246" viewBox="0 0 246 246">
  <defs>
    <style>
      .cls-1 {
        fill: #fff;
      }
    </style>
  </defs>
  <g>
    <path class="cls-1" d="M169.2,96.28c-4.25-7.35-13.3-11-24.47-11-5.57-9.66-13.25-15.64-21.73-15.64s-16.16,6-21.73,15.64C89.64,85.27,81,89.17,76.8,96.37S73.59,113,79.39,123c-5.8,10-6.73,19.46-2.59,26.63s12.74,11.08,24.28,11.08h.19c5.57,9.66,13.25,15.64,21.73,15.64s16.16-6,21.73-15.64h.09c11.13,0,20.15-3.66,24.38-11,4.15-7.19,3.21-16.66-2.64-26.71C172.41,113,173.35,103.48,169.2,96.28Zm-3.09,1.79c3.27,5.66,2.65,13.24-1.72,21.5a70.82,70.82,0,0,0-12.22-13.41,71.14,71.14,0,0,0-5.62-17.41C155.56,89.07,162.7,92.16,166.11,98.07Zm-23.4,59.15a62.83,62.83,0,0,1-14.54-2.54,93.89,93.89,0,0,0,19.63-11.32A62.86,62.86,0,0,1,142.71,157.22Zm-6.12-10.72a87,87,0,0,1-13.71,6.43A89.71,89.71,0,0,1,97.08,138a90,90,0,0,1,0-30,87.53,87.53,0,0,1,12.33-8.57,88.52,88.52,0,0,1,13.47-6.36,89.92,89.92,0,0,1,26.06,15,90.32,90.32,0,0,1,0,29.83A87.27,87.27,0,0,1,136.59,146.5Zm-38.36-3a93.06,93.06,0,0,0,9.39,6.21,90.94,90.94,0,0,0,10,5,62.5,62.5,0,0,1-14.38,2.44A62.87,62.87,0,0,1,98.23,143.46ZM93,134.3A62.37,62.37,0,0,1,83.56,123,62.76,62.76,0,0,1,93,111.69a91.64,91.64,0,0,0,0,22.61Zm10.27-45.39a62,62,0,0,1,14.38,2.44,90.94,90.94,0,0,0-10,5,93.06,93.06,0,0,0-9.39,6.21A62.87,62.87,0,0,1,103.22,88.91Zm44.58,13.73a93.89,93.89,0,0,0-19.63-11.32,62.83,62.83,0,0,1,14.54-2.54A62.86,62.86,0,0,1,147.8,102.64Zm5.26,9.15A62.65,62.65,0,0,1,162.39,123a62.65,62.65,0,0,1-9.33,11.21,91.41,91.41,0,0,0,0-22.42ZM123,73.22c6.81,0,13,4.62,17.81,12.22a71,71,0,0,0-17.88,3.86,70.38,70.38,0,0,0-17.75-3.85C110,77.84,116.19,73.22,123,73.22ZM79.89,98.15c3.27-5.67,10.15-8.92,19.49-9.26a70.45,70.45,0,0,0-5.53,17.17,70.72,70.72,0,0,0-12.29,13.5C77.24,111.34,76.63,103.8,79.89,98.15Zm0,49.7c-3.26-5.65-2.65-13.19,1.67-21.41a70.38,70.38,0,0,0,12.29,13.49,70.53,70.53,0,0,0,5.53,17.18C90,156.76,83.16,153.52,79.89,147.85ZM123,172.78c-6.81,0-13-4.62-17.82-12.23a71.26,71.26,0,0,0,17.75-3.85,71,71,0,0,0,17.88,3.86C136,168.16,129.81,172.78,123,172.78Zm43.11-24.85c-3.41,5.91-10.55,9-19.56,9.32a70.72,70.72,0,0,0,5.62-17.41,70.82,70.82,0,0,0,12.22-13.41C168.76,134.69,169.38,142.26,166.11,147.93Z"/>
    <path class="cls-1" d="M139.43,116a17.77,17.77,0,0,0-9.48-9.47,18,18,0,0,0-13.91,0,17.79,17.79,0,0,0-9.47,9.47,18,18,0,0,0,0,13.91,17.77,17.77,0,0,0,9.47,9.48,18,18,0,0,0,13.91,0,17.74,17.74,0,0,0,9.48-9.48,18,18,0,0,0,0-13.91Zm-18.35,22.07a14.36,14.36,0,0,1-9.47-5A14.93,14.93,0,0,1,107.84,123a17.14,17.14,0,0,1,.09-1.76,12.27,12.27,0,0,1,.31-1.76l9.14,9.14v2a3.89,3.89,0,0,0,1.07,2.72,3.46,3.46,0,0,0,2.63,1.16Zm16.07-9.6a14.68,14.68,0,0,1-3,4.79,3.74,3.74,0,0,0-1.34-2,3.57,3.57,0,0,0-2.27-.76h-1.92v-5.66a2,2,0,0,0-.49-1.34,1.55,1.55,0,0,0-1.25-.58h-11.5v-3.92h3.7a2.12,2.12,0,0,0,1.36-.49,1.56,1.56,0,0,0,.6-1.25v-3.88H125a3.44,3.44,0,0,0,2.63-1.16,3.85,3.85,0,0,0,1.07-2.72v-.8a15.3,15.3,0,0,1,9.5,14.22A15.45,15.45,0,0,1,137.15,128.51Z"/>
  </g>
</svg>
