<?xml version="1.0" encoding="utf-8"?>
<!-- Generator: Adobe Illustrator 24.2.1, SVG Export Plug-In . SVG Version: 6.00 Build 0)  -->
<svg version="1.1" id="圖層_1" xmlns="http://www.w3.org/2000/svg" xmlns:xlink="http://www.w3.org/1999/xlink" x="0px" y="0px"
	 width="36.8px" height="36.4px" viewBox="0 0 36.8 36.4" style="enable-background:new 0 0 36.8 36.4;" xml:space="preserve">
<style type="text/css">
	.st0{display:none;}
	.st1{display:inline;}
	.st2{fill:#6868AB;}
	.st3{fill:none;stroke:#6868AB;stroke-width:1.5;stroke-linecap:round;stroke-linejoin:round;stroke-miterlimit:10;}
	.st4{display:inline;fill:none;stroke:#6868AB;stroke-width:1.5;stroke-miterlimit:10;}
	.st5{display:inline;fill:#6868AB;}
	.st6{display:inline;fill:none;stroke:#6868AB;stroke-width:1.5;stroke-linecap:round;stroke-miterlimit:10;}
</style>
<g id="圖稿_12_00000155841649124748036910000016814136453716616365_" class="st0">
	<g class="st1">
		<g>
			<path class="st2" d="M35.2,15.5h-1.9c-0.2-0.8-0.4-1.5-0.6-2.3l1.7-0.9c0.3-0.2,0.6-0.5,0.7-0.9c0.1-0.4,0-0.8-0.2-1.1L33.5,8
				c-0.2-0.3-0.5-0.6-0.9-0.7c-0.4-0.1-0.8-0.1-1.1,0.1l-1.7,1c-0.5-0.6-1.1-1.2-1.7-1.7l1-1.6c0.2-0.4,0.2-0.7,0.1-1.1
				c-0.1-0.4-0.3-0.7-0.7-0.9l-2.3-1.3c-0.7-0.4-1.6-0.2-2,0.5l-1,1.6c-0.8-0.3-1.5-0.5-2.3-0.6V1.4c0-0.8-0.7-1.4-1.4-1.4h-2.6
				c-0.8,0-1.4,0.7-1.4,1.4v1.9c-0.8,0.2-1.5,0.4-2.3,0.6l-1-1.6c-0.4-0.7-1.3-0.9-2-0.5L8.2,3.1C7.8,3.3,7.6,3.6,7.5,4
				C7.4,4.4,7.4,4.7,7.6,5.1l1,1.6C8,7.2,7.4,7.8,6.9,8.4l-1.7-1C4.9,7.2,4.5,7.2,4.2,7.3C3.8,7.4,3.5,7.6,3.3,8L2,10.2
				c-0.4,0.7-0.2,1.6,0.5,2l1.6,0.9c-0.3,0.8-0.5,1.5-0.6,2.3H1.6c-0.8,0-1.4,0.6-1.4,1.4v2.6c0,0.8,0.6,1.4,1.4,1.4h1.9
				c0.1,0.8,0.3,1.5,0.6,2.3l-1.6,0.9c-0.7,0.4-0.9,1.3-0.5,2l1.3,2.3c0.2,0.3,0.5,0.6,0.9,0.7c0.4,0.1,0.8,0.1,1.1-0.1l1.7-1
				c0.5,0.6,1.1,1.1,1.7,1.7l-1,1.7c-0.2,0.3-0.3,0.7-0.2,1.1s0.3,0.7,0.7,0.9l2.3,1.3c0.3,0.2,0.7,0.3,1.1,0.2
				c0.4-0.1,0.7-0.3,0.9-0.7l1-1.6c0.7,0.3,1.5,0.5,2.3,0.6V35c0,0.8,0.7,1.4,1.4,1.4h2.6c0.8,0,1.4-0.6,1.4-1.4v-1.9
				c0.8-0.2,1.5-0.4,2.3-0.6l1,1.6c0.2,0.4,0.5,0.6,0.9,0.7s0.8,0.1,1.1-0.2l2.3-1.3c0.3-0.2,0.6-0.5,0.7-0.9
				c0.1-0.4,0.1-0.8-0.1-1.1l-1-1.7c0.6-0.5,1.2-1.1,1.7-1.7l1.7,1c0.3,0.2,0.7,0.2,1.1,0.1s0.7-0.3,0.9-0.7l1.3-2.3
				c0.2-0.3,0.2-0.7,0.2-1.1c-0.1-0.4-0.4-0.7-0.7-0.9l-1.7-0.9c0.3-0.8,0.5-1.5,0.6-2.3h1.9c0.8,0,1.4-0.7,1.4-1.4v-2.6
				C36.6,16.1,36,15.5,35.2,15.5 M35.5,19.5c0,0.2-0.2,0.3-0.3,0.3h-2.4c-0.3,0-0.5,0.2-0.6,0.5c-0.2,1-0.4,2-0.8,3
				c-0.1,0.3,0,0.6,0.2,0.7l2,1.2c0.1,0,0.1,0.1,0.2,0.2c0,0.1,0,0.2,0,0.2l-1.3,2.3c-0.1,0.1-0.1,0.1-0.2,0.2c-0.1,0-0.2,0-0.3,0
				L30,26.8c-0.2-0.1-0.5-0.1-0.7,0.1c-0.6,0.8-1.4,1.5-2.2,2.2c-0.2,0.2-0.3,0.5-0.1,0.7l1.2,2.1c0,0.1,0.1,0.2,0,0.3
				c0,0.1-0.1,0.2-0.2,0.2l-2.3,1.3c-0.1,0.1-0.2,0.1-0.3,0c-0.1,0-0.2-0.1-0.2-0.2l-1.2-2.1c-0.1-0.2-0.4-0.4-0.7-0.2
				c-1,0.4-2,0.6-3,0.8c-0.3,0.1-0.5,0.3-0.5,0.5V35c0,0.2-0.2,0.3-0.3,0.3h-2.6c-0.2,0-0.3-0.2-0.3-0.3v-2.4c0-0.3-0.2-0.5-0.5-0.5
				c-1-0.2-2-0.4-3-0.8c-0.1,0-0.1-0.1-0.2-0.1c-0.2,0-0.4,0.1-0.5,0.3l-1.2,2.1c0,0.1-0.1,0.1-0.2,0.2c-0.1,0-0.2,0-0.3,0l-2.3-1.3
				c-0.1-0.1-0.1-0.1-0.2-0.2c0-0.1,0-0.2,0-0.3l1.2-2.1c0.2-0.2,0.1-0.5-0.1-0.7c-0.8-0.7-1.5-1.4-2.2-2.2
				c-0.2-0.2-0.5-0.3-0.7-0.1l-2,1.2c-0.1,0-0.2,0.1-0.3,0c-0.1,0-0.2-0.1-0.2-0.2L3,25.6c-0.1-0.2-0.1-0.4,0.1-0.4L5.1,24
				c0.2-0.1,0.3-0.4,0.3-0.7c-0.4-1-0.7-2-0.8-3c-0.1-0.3-0.3-0.5-0.5-0.5H1.6c-0.2,0-0.3-0.2-0.3-0.3v-2.6c0-0.2,0.2-0.3,0.3-0.3H4
				c0.3,0,0.5-0.2,0.5-0.5c0.2-1,0.4-2,0.8-3c0.1-0.3,0-0.6-0.3-0.7l-2.1-1.2C2.9,11.2,2.9,11,3,10.8l1.3-2.3
				c0.1-0.1,0.1-0.1,0.2-0.2c0.1,0,0.2,0,0.3,0.1l2,1.2C7,9.7,7.3,9.7,7.5,9.4c0.6-0.8,1.4-1.5,2.2-2.1c0.2-0.2,0.3-0.5,0.1-0.7
				L8.6,4.5c-0.1-0.1-0.1-0.2,0-0.3c0-0.1,0.1-0.2,0.2-0.2L11,2.7c0.2-0.1,0.4,0,0.4,0.1l1.2,2.1c0.2,0.3,0.4,0.3,0.7,0.3
				c1-0.4,2-0.6,3-0.8c0.3,0,0.5-0.3,0.5-0.5V1.4c0-0.2,0.2-0.3,0.3-0.3h2.6c0.2,0,0.3,0.2,0.3,0.3v2.4c0,0.3,0.2,0.5,0.5,0.5
				c1,0.2,2,0.4,3,0.8c0.3,0.1,0.6,0,0.7-0.3l1.2-2.1c0.1-0.2,0.3-0.2,0.5-0.1l2.3,1.3c0.1,0.1,0.1,0.1,0.2,0.2c0,0.1,0,0.2,0,0.3
				L27,6.6c-0.1,0.2-0.1,0.5,0.1,0.7c0.8,0.6,1.5,1.4,2.2,2.1c0.2,0.2,0.5,0.3,0.7,0.1l2.1-1.2c0.1-0.1,0.2-0.1,0.3-0.1
				c0.1,0,0.2,0.1,0.2,0.2l1.3,2.3c0,0.1,0.1,0.2,0,0.3c0,0.1-0.1,0.2-0.2,0.2l-2,1.2c-0.2,0.1-0.3,0.4-0.2,0.7c0.4,1,0.6,1.9,0.8,3
				c0.1,0.3,0.3,0.5,0.6,0.5h2.4c0.2,0,0.3,0.2,0.3,0.3V19.5z"/>
			<path class="st2" d="M18.4,28.7c-5.8,0-10.5-4.7-10.5-10.5c0-3.7,1.9-7.1,5.1-9l0.2,0.5l1.2-1.8l-2.2-0.2l0.2,0.5
				c-3.5,2.1-5.7,5.9-5.7,10c0,6.4,5.2,11.6,11.6,11.6c0.3,0,0.6-0.2,0.6-0.6C19,28.9,18.7,28.7,18.4,28.7"/>
			<path class="st2" d="M18.4,7c-0.3,0-0.6,0.3-0.6,0.6c0,0.3,0.2,0.5,0.6,0.5c5.8,0,10.5,4.7,10.5,10.5c0,3.7-1.9,7.1-5.1,9
				L23.6,27l-1.2,1.8l2.2,0.1l-0.2-0.5c3.5-2.1,5.7-5.9,5.7-10C30,12.2,24.8,7,18.4,7"/>
			<path class="st2" d="M22.7,23.7l1.2-1.2c0.7-0.7,0.6-1.7,0-2.3l-2-2l2-2c0.6-0.6,0.6-1.7,0-2.3l-1.2-1.2c-0.6-0.6-1.7-0.6-2.3,0
				l-2,2l-2-2c-0.6-0.6-1.7-0.7-2.3,0L13,13.9c-0.6,0.6-0.7,1.7,0,2.3l2,2L13,20.2c-0.7,0.7-0.7,1.7,0,2.3l1.2,1.2
				c0.7,0.7,1.7,0.7,2.3,0l1.9-1.9l2,2C21,24.3,22.1,24.3,22.7,23.7 M18.8,20.5c-0.2-0.2-0.6-0.2-0.8,0l-2.3,2.3
				c-0.2,0.2-0.6,0.2-0.8,0l-1.2-1.2c-0.2-0.2-0.2-0.6,0-0.8l2.3-2.3c0.2-0.2,0.2-0.6,0-0.8l-2.3-2.3c-0.2-0.2-0.2-0.6,0-0.8
				l1.2-1.2c0.2-0.2,0.6-0.2,0.8,0l2.3,2.3c0.2,0.2,0.6,0.2,0.8,0l2.3-2.3c0.2-0.2,0.6-0.2,0.8,0l1.2,1.2c0.2,0.2,0.2,0.6,0,0.8
				l-2.3,2.3c-0.2,0.2-0.2,0.6,0,0.8l2.3,2.3c0.2,0.2,0.2,0.6,0,0.8l-1.2,1.2c-0.2,0.2-0.6,0.2-0.8,0L18.8,20.5z"/>
		</g>
	</g>
</g>
<g>
	<path class="st3" d="M22.6,27.7h-8c-0.8,0-1.5-0.7-1.5-1.5v0c0-0.8,0.7-1.5,1.5-1.5h8c0.8,0,1.5,0.7,1.5,1.5v0
		C24.1,27,23.4,27.7,22.6,27.7z"/>
	<path class="st3" d="M15.1,30.3c0.1,1.8,1.6,3.3,3.5,3.3c1.9,0,3.4-1.5,3.5-3.3H15.1z"/>
	<path class="st3" d="M20.2,22v-8h3.9l-5.5-6.1L13,14h3.9v8h-3.5c-3.1-1.8-5.1-5.1-5.1-8.9C8.3,7.5,12.9,3,18.5,3
		c5.7,0,10.2,4.6,10.2,10.2c0,3.8-2.1,7.1-5.1,8.9H20.2z"/>
</g>
<g class="st0">
	<circle class="st4" cx="18.4" cy="18.2" r="5.5"/>
	<line class="st4" x1="21.1" y1="13.5" x2="25.1" y2="6.7"/>
	<circle class="st4" cx="26.2" cy="4.8" r="2.2"/>
	<line class="st4" x1="15.7" y1="13.5" x2="11.8" y2="6.7"/>
	<circle class="st4" cx="10.7" cy="4.8" r="2.2"/>
	<line class="st4" x1="13" y1="18.2" x2="5.1" y2="18.2"/>
	<circle class="st4" cx="2.9" cy="18.2" r="2.2"/>
	<line class="st4" x1="15.7" y1="22.9" x2="11.8" y2="29.7"/>
	<circle class="st4" cx="10.7" cy="31.6" r="2.2"/>
	<line class="st4" x1="21.1" y1="22.9" x2="25.1" y2="29.7"/>
	<circle class="st4" cx="26.2" cy="31.6" r="2.2"/>
	<line class="st4" x1="23.9" y1="18.2" x2="31.7" y2="18.2"/>
	<circle class="st4" cx="33.9" cy="18.2" r="2.2"/>
	<g class="st1">
		<circle class="st2" cx="18.5" cy="4.5" r="0.7"/>
		<circle class="st2" cx="15.9" cy="4.5" r="0.7"/>
		<circle class="st2" cx="21" cy="4.5" r="0.7"/>
	</g>
	<g class="st1">
		<circle class="st2" cx="18.5" cy="31.8" r="0.7"/>
		<circle class="st2" cx="15.9" cy="31.8" r="0.7"/>
		<circle class="st2" cx="21" cy="31.8" r="0.7"/>
	</g>
	<g class="st1">
		<circle class="st2" cx="6.6" cy="11.3" r="0.7"/>
		<circle class="st2" cx="5.3" cy="13.5" r="0.7"/>
		<circle class="st2" cx="7.9" cy="9.1" r="0.7"/>
	</g>
	<g class="st1">
		<circle class="st2" cx="30.2" cy="25" r="0.7"/>
		<circle class="st2" cx="28.9" cy="27.2" r="0.7"/>
		<circle class="st2" cx="31.5" cy="22.7" r="0.7"/>
	</g>
	<g class="st1">
		<circle class="st2" cx="6.6" cy="25" r="0.7"/>
		<circle class="st2" cx="7.8" cy="27.2" r="0.7"/>
		<circle class="st2" cx="5.3" cy="22.8" r="0.7"/>
	</g>
	<g class="st1">
		<circle class="st2" cx="30.2" cy="11.4" r="0.7"/>
		<circle class="st2" cx="31.4" cy="13.6" r="0.7"/>
		<circle class="st2" cx="28.9" cy="9.2" r="0.7"/>
	</g>
</g>
<g class="st0">
	<circle class="st5" cx="18.4" cy="18.2" r="3"/>
	<path class="st6" d="M15.7,23.3c-1.8-1-3-2.9-3-5.1c0-2.2,1.2-4.1,3-5.1"/>
	<path class="st6" d="M21.1,13.2c1.8,1,3,2.9,3,5.1c0,2.2-1.2,4.1-3,5.1"/>
	<path class="st6" d="M14,26.5c-3-1.6-5-4.7-5-8.3c0-3.6,2-6.7,5-8.3"/>
	<path class="st6" d="M22.9,9.9c3,1.6,5,4.7,5,8.3c0,3.6-2,6.7-5,8.3"/>
	<path class="st6" d="M12.2,29.9c-4.2-2.2-7-6.6-7-11.7c0-5,2.8-9.4,6.9-11.6"/>
	<path class="st6" d="M24.7,6.5c4.2,2.2,7,6.6,7,11.7c0,5-2.8,9.4-6.9,11.6"/>
	<path class="st6" d="M10.5,33.1c-5.3-2.8-8.9-8.4-8.9-14.9c0-6.4,3.6-12.1,8.9-14.9"/>
	<path class="st6" d="M26.4,3.4c5.3,2.8,8.9,8.4,8.9,14.9c0,6.4-3.6,12-8.9,14.9"/>
</g>
<g class="st0">
	<path class="st5" d="M28.3,9.5H8.5c-2.4,0-4.3-1.9-4.3-4.3C4.3,2.9,6.2,1,8.5,1h19.8c2.4,0,4.3,1.9,4.3,4.3
		C32.6,7.6,30.7,9.5,28.3,9.5z M8.5,2.5C7,2.5,5.8,3.7,5.8,5.2C5.8,6.8,7,8,8.5,8h19.8c1.5,0,2.8-1.2,2.8-2.8c0-1.5-1.2-2.8-2.8-2.8
		H8.5z"/>
	<path class="st5" d="M28.3,19.7H8.5c-2.4,0-4.3-1.9-4.3-4.3c0-2.4,1.9-4.3,4.3-4.3h19.8c2.4,0,4.3,1.9,4.3,4.3
		C32.6,17.7,30.7,19.7,28.3,19.7z M8.5,12.6c-1.5,0-2.8,1.2-2.8,2.8c0,1.5,1.2,2.8,2.8,2.8h19.8c1.5,0,2.8-1.2,2.8-2.8
		c0-1.5-1.2-2.8-2.8-2.8H8.5z"/>
	<circle class="st5" cx="18.4" cy="5.2" r="1.4"/>
	<circle class="st5" cx="18.4" cy="15.4" r="1.4"/>
	<path class="st5" d="M31.8,30.5c-1.7,0-3.2-1.4-3.2-3.2s1.4-3.2,3.2-3.2c1.7,0,3.2,1.4,3.2,3.2S33.6,30.5,31.8,30.5z M31.8,25.7
		c-0.9,0-1.7,0.7-1.7,1.7s0.7,1.7,1.7,1.7c0.9,0,1.7-0.7,1.7-1.7S32.7,25.7,31.8,25.7z"/>
	<path class="st5" d="M5,30.5c-1.7,0-3.2-1.4-3.2-3.2s1.4-3.2,3.2-3.2s3.2,1.4,3.2,3.2S6.8,30.5,5,30.5z M5,25.7
		c-0.9,0-1.7,0.7-1.7,1.7S4.1,29,5,29s1.7-0.7,1.7-1.7S5.9,25.7,5,25.7z"/>
	<path class="st5" d="M18.4,22.8c-0.4,0-0.8-0.3-0.8-0.8v-3.2c0-0.4,0.3-0.8,0.8-0.8s0.8,0.3,0.8,0.8v3.2
		C19.2,22.5,18.8,22.8,18.4,22.8z"/>
	<rect x="17.7" y="9.1" class="st5" width="1.5" height="3"/>
	<rect x="7.4" y="26.6" class="st5" width="5.8" height="1.5"/>
	<rect x="24.4" y="26.6" class="st5" width="5" height="1.5"/>
	<path class="st5" d="M18.4,35.4c-0.3,0-0.6-0.1-0.9-0.2l-3.6-2c-0.5-0.3-0.9-0.8-0.9-1.4L12,24.9c-0.1-0.9,0.4-1.7,1.3-2l4.5-1.5
		c0.4-0.1,0.8-0.1,1.1,0l4.5,1.5c0.9,0.3,1.4,1.1,1.3,2l-0.9,6.9c-0.1,0.6-0.4,1.1-0.9,1.4l-3.6,2C19,35.4,18.7,35.4,18.4,35.4z
		 M18.4,22.8c0,0-0.1,0-0.1,0l-4.5,1.5c-0.2,0.1-0.3,0.2-0.3,0.4l0.9,6.9c0,0.1,0.1,0.2,0.2,0.3l3.6,2c0.1,0.1,0.2,0.1,0.4,0l3.6-2
		c0,0,0,0,0,0c0.1-0.1,0.2-0.2,0.2-0.3l0.9-6.9c0-0.2-0.1-0.3-0.3-0.4l-4.5-1.5C18.5,22.8,18.5,22.8,18.4,22.8z"/>
	<path class="st5" d="M17.9,30.5c-0.2,0-0.3,0-0.4-0.1l-2.3-1.7c-0.3-0.2-0.4-0.7-0.2-1c0.2-0.3,0.7-0.4,1-0.2l1.8,1.3l2.7-2.7
		c0.3-0.3,0.8-0.3,1.1,0c0.3,0.3,0.3,0.8,0,1.1l-3.2,3.2C18.3,30.4,18.1,30.5,17.9,30.5z"/>
</g>
<g class="st0">
	<path class="st5" d="M18.4,34.7c-7.4,0-13.4-6-13.4-13.4S11.1,8,18.4,8v1.5c-6.5,0-11.9,5.3-11.9,11.9s5.3,11.9,11.9,11.9
		s11.9-5.3,11.9-11.9c0-4.5-2.5-8.6-6.5-10.6l0.7-1.3c4.5,2.3,7.3,6.9,7.3,11.9C31.8,28.7,25.8,34.7,18.4,34.7z"/>
	<path class="st5" d="M18.4,16.2c-3.9,0-7.6-0.8-10.1-2.1L9,12.7c2.3,1.2,5.7,1.9,9.4,1.9s7.1-0.7,9.4-1.9l0.7,1.3
		C26,15.4,22.3,16.2,18.4,16.2z"/>
	<path class="st5" d="M27.8,30.1c-2.3-1.2-5.7-1.9-9.3-1.9c-3.6,0-7,0.7-9.3,1.9l-0.7-1.3c2.5-1.3,6.1-2,10-2c3.9,0,7.5,0.8,10,2.1
		L27.8,30.1z"/>
	<rect x="17.7" y="24" class="st5" width="1.5" height="10"/>
	<rect x="21.1" y="20.6" class="st5" width="9.9" height="1.5"/>
	<path class="st5" d="M19.2,18.7h-1.5V2.4c0-0.3,0.1-0.5,0.4-0.7s0.5-0.1,0.8,0l9.6,5.9c0.2,0.1,0.4,0.4,0.4,0.7
		c0,0.3-0.2,0.5-0.4,0.6l-9.2,4.1V18.7z M19.2,3.8v7.7l7.3-3.2L19.2,3.8z"/>
	<path class="st5" d="M18.5,24.7c-1.9,0-3.4-1.5-3.4-3.4s1.5-3.4,3.4-3.4s3.4,1.5,3.4,3.4S20.3,24.7,18.5,24.7z M18.5,19.5
		c-1,0-1.9,0.8-1.9,1.9s0.8,1.9,1.9,1.9s1.9-0.8,1.9-1.9S19.5,19.5,18.5,19.5z"/>
	<rect x="5.9" y="20.6" class="st5" width="9.9" height="1.5"/>
</g>
</svg>
