<svg id="圖層_1" data-name="圖層 1" xmlns="http://www.w3.org/2000/svg" width="246" height="246" viewBox="0 0 246 246">
  <defs>
    <style>
      .cls-1 {
        fill: #fff;
      }
    </style>
  </defs>
  <g>
    <path class="cls-1" d="M148.22,142.88a31.9,31.9,0,0,1-50.09-.1,20,20,0,0,1-9.24.7,40,40,0,0,0,68.69-.07,20.48,20.48,0,0,1-3.52.32A20.88,20.88,0,0,1,148.22,142.88Z"/>
    <path class="cls-1" d="M98.13,103.22a31.9,31.9,0,0,1,50.09-.1,20.88,20.88,0,0,1,5.84-.85,20.48,20.48,0,0,1,3.52.32,40,40,0,0,0-68.69-.07,20,20,0,0,1,9.24.7Z"/>
    <path class="cls-1" d="M91.94,139.73a16.29,16.29,0,0,0,3.78-.45h0a16.71,16.71,0,0,0,0-32.56,16.29,16.29,0,0,0-3.78-.45,16.72,16.72,0,0,0-5.44,32.54c.42.15.86.28,1.3.39s.89.21,1.34.29A16.11,16.11,0,0,0,91.94,139.73Z"/>
    <path class="cls-1" d="M160,107.38a16.55,16.55,0,0,0-5.95-1.11,16.73,16.73,0,0,0-3.41,33.11h0a16.79,16.79,0,0,0,3.41.35,16.38,16.38,0,0,0,5.67-1c.09,0,.19-.05.28-.09a16.71,16.71,0,0,0,0-31.24Z"/>
  </g>
</svg>
