<svg width="65" height="48" fill="none" xmlns="http://www.w3.org/2000/svg"><path d="M26.25 5.036C26.25 2.308 28.57 0 31.313 0h3.375a5.05 5.05 0 015.062 5.036v36.928c0 2.833-2.215 5.036-5.063 5.036h-3.374c-2.743 0-5.063-2.203-5.063-5.036V5.036zM6 25.179c0-2.728 2.32-5.036 5.063-5.036h3.374a5.05 5.05 0 015.063 5.036v16.785c0 2.833-2.215 5.036-5.063 5.036h-3.374C8.32 47 6 44.797 6 41.964V25.18zM51.563 6.714h3.374A5.05 5.05 0 0160 11.75v30.214C60 44.797 57.785 47 54.937 47h-3.374c-2.743 0-5.063-2.203-5.063-5.036V11.75c0-2.728 2.32-5.036 5.063-5.036z" fill="#fff" fill-opacity=".5"/></svg>