<?xml version="1.0" encoding="UTF-8"?>
<svg id="_層_1" xmlns="http://www.w3.org/2000/svg" width="215.5mm" height="222.8mm" version="1.1" viewBox="0 0 610.8 631.7">
  <!-- Generator: Adobe Illustrator 29.0.0, SVG Export Plug-In . SVG Version: 2.1.0 Build 186)  -->
  <defs>
    <style>
      .st0 {
        stroke-width: 1px;
      }

      .st0, .st1, .st2 {
        fill: none;
        stroke: #4d4d4d;
        stroke-miterlimit: 10;
      }

      .st3 {
        fill: #44b3c1;
      }

      .st4 {
        fill: #fff;
      }

      .st5 {
        fill: #42ba92;
      }

      .st6 {
        fill: #6161bc;
      }

      .st7 {
        fill: #465f97;
      }

      .st8 {
        fill: #ffb31a;
      }

      .st9 {
        fill: #4e6dae;
      }

      .st2 {
        stroke-dasharray: 3 5;
      }
    </style>
  </defs>
  <rect class="st4" x="-6.1" y="-6.2" width="623" height="644"/>
  <g>
    <g>
      <g>
        <path d="M419.3,455.9h-5.1v-1.1h5.1v1.1ZM420.7,465.2c-1.4.9-3.7,1.7-5.5,2.2-.2-.3-.7-.8-1-1,1.8-.4,4-1,5.3-1.7l1.2.5ZM418.8,453.1h-4.3v-1h4.3v1ZM416.5,457.3h11.6v7.2h-11.6v-7.2ZM417.8,459.5h9v-1.2h-9v1.2ZM417.8,461.6h9v-1.2h-9v1.2ZM417.8,463.7h9v-1.3h-9v1.3ZM422.1,453.3c-.4.7-.9,1.3-1.3,1.8-.2-.2-.7-.5-1-.7.9-.8,1.7-2.1,2.1-3.4l1.2.3c-.1.3-.3.7-.4,1h6.2c0,0,.9.3.9.3-.5.9-1,2-1.5,2.6l-1.1-.4c.3-.4.6-.9.8-1.4h-2.9v.2c0,.2,0,.4,0,.6,1,1.1,2.9,1.8,5.3,2-.3.3-.6.7-.8,1.1-2.1-.3-3.8-1-4.9-2.1-.6.9-2,1.7-5.2,2.2-.1-.3-.5-.8-.7-1,4.7-.6,5.1-1.9,5.1-2.8v-.2h-1.9ZM424.8,464.7c1.9.6,4,1.4,5.3,1.9l-1.2.8c-1.2-.6-3.1-1.3-5-2l.9-.7Z"/>
        <path d="M420.6,473.2h-6.5v-1.1h6.5v1.1ZM419.9,484.4h-4v.8h-1.1v-6h5.1v5.2ZM414.8,475.5v-1.1h5.1v1.1h-5.1ZM414.8,476.8h5.1v1.1h-5.1v-1.1ZM415.9,480.3v3h2.9v-3h-2.9ZM417.3,471.9c-.3-.6-.8-1.7-1.3-2.4l1-.5c.5.7,1,1.7,1.3,2.3l-1,.6ZM428.6,470c-.1,7.3-.1,13.5.9,13.8.1,0,.2-1.1.3-2.4.2.3.6.8.8,1-.2,2.5-.8,3.1-1.6,2.8-1.8-.5-1.7-6.4-1.7-13.8h-3v5.3h2.4v1.2h-2.4v7.6h-1.3v-7.6h-2.4v-1.2h2.4v-5.3h-2.2v-1.3h7.8Z"/>
        <path d="M430.2,500.7v1.3h-16.1v-1.3h7.2v-10.3h-6.3v-1.4h14.2v1.4h-6.5v10.3h7.4Z"/>
        <path d="M420.6,518.6c-1.3,1-3.7,1.9-5.5,2.3-.2-.3-.5-.8-.8-1,1.9-.3,4.1-1,5.3-1.8l1,.5ZM430,516v1.1h-7.2v4.3h-1.3v-4.3h-7.1v-1.1h7.1v-1.3h-5.4v-1h5.4v-1.3h-6.3v-1.1h3.9c-.2-.5-.5-1.2-.9-1.7l1-.3h-4.6v-1.1h2.9c-.3-.7-.9-1.8-1.4-2.6l1.1-.4c.6.8,1.3,1.9,1.5,2.6l-.9.4h2.2v-3.2h1.3v3.2h2.1v-3.2h1.3v3.2h2.2l-.7-.2c.5-.7,1.1-1.9,1.4-2.7l1.4.4c-.5.9-1.1,1.9-1.6,2.6h2.8v1.1h-4.7l1.2.3c-.4.6-.8,1.2-1.2,1.7h4.1v1.1h-6.5v1.3h5.6v1h-5.6v1.3h7.2ZM419.4,509.3c.4.6.8,1.3,1,1.8l-.7.2h5l-.6-.2c.4-.5.8-1.3,1.1-1.8h-5.6ZM424.8,518c1.7.6,4,1.4,5.2,2l-.8.8c-1.2-.6-3.5-1.5-5.2-2.1l.8-.7Z"/>
        <path d="M423,533.6c1.4,1.6,4.3,3.3,7.5,4-.3.3-.6.8-.8,1.2-2.8-.7-5.2-2.2-6.7-3.7v4.3h-1.4v-4.4c-1.8,1.7-4.2,3.1-6.7,3.8-.2-.3-.5-.8-.8-1.1,3-.7,6-2.3,7.6-4.2v-1.5h-4.4v3.5h-1.4v-4.6h5.8v-1.4h-7.1v-1.2h7.1v-1.1h1.4v1.1h6.9v1.2h-6.9v1.4h5.8v3.3c0,.6-.1.9-.6,1.1-.5.2-1.2.2-2.2.2,0-.3-.3-.8-.5-1.1.7,0,1.4,0,1.6,0s.3,0,.3-.3v-2.1h-4.5v1.7ZM416.9,525.4c-.6.9-1.2,1.7-1.9,2.3-.2-.2-.6-.7-.9-.9,1.1-1,2.1-2.4,2.7-3.9l1.2.3c-.1.4-.3.7-.5,1.1h4.6v1.1h-3.4c.6.5,1.3,1.2,1.6,1.6l-.9.8c-.3-.5-1.1-1.3-1.7-1.9l.7-.5h-1.5ZM424.3,525.4c-.4.6-.9,1.2-1.4,1.7-.2-.2-.7-.6-1-.8,1-.8,1.8-2.1,2.2-3.3l1.2.3c-.1.4-.3.7-.5,1.1h5.4v1.1h-3.9c.6.5,1.4,1.2,1.8,1.6l-.9.8c-.4-.5-1.2-1.2-1.9-1.8l.8-.6h-2Z"/>
        <path d="M418.4,549.6c-.3,1.6-.9,3.3-1.5,4.6.3.2.8.5,1.4.9,1.3.8,2.9.9,5,.9s5.2-.2,7.2-.4c-.2.4-.4,1-.4,1.4-1.3,0-4.8.2-6.9.2s-3.9-.2-5.3-1c-.7-.4-1.4-1-1.8-1s-1,1.1-1.5,2.3l-.9-1.2c.6-.9,1.3-1.6,1.8-2,.5-1,1-2.4,1.3-3.7h-2.4c.5-1.1,1.1-2.6,1.5-4h-2v-1.2h3.7c-.5,1.3-1,2.8-1.5,4.1h1.5c0,0,.6.2.6.2ZM415.9,544.4c-.2-.8-.6-2-.9-3l1.2-.4c.3.9.7,2.1,1,2.9l-1.2.4ZM420.1,546.4c-.4.6-.9,1.1-1.3,1.5-.2-.3-.6-.9-.8-1.2,1.6-1.4,2.9-3.5,3.7-5.8l1.2.3c-.3.9-.7,1.8-1.2,2.6h3.6c-.3-.7-.7-1.5-1.1-2.2l1.2-.4c.5.8,1,1.8,1.3,2.6h3.2v1.2h-3.9v1.7h3.3v1.1h-3.3v1.8h3.2v1.1h-3.2v1.9h4.2v1.2h-8.8v1h-1.3v-8.6ZM424.7,545.1h-3.4v1.7h3.4v-1.7ZM424.7,548h-3.4v1.8h3.4v-1.8ZM424.7,550.9h-3.4v1.9h3.4v-1.9Z"/>
        <path d="M423.3,559.4c0,.1-.2.2-.3.3,1.7,1.6,4.8,3.1,7.6,3.7-.3.2-.6.7-.8,1-1.5-.4-3-1-4.4-1.8v.6h-6.2v-.5c-1.4.8-2.9,1.4-4.4,1.8-.1-.2-.5-.8-.8-1,3.3-.9,6.4-2.4,8.1-4.6l1.2.4ZM416.2,564.1h12v4.5h-12v-4.5ZM417.2,569.5h10.1v5.9h-1.4v-.5h-7.5v.6h-1.3v-5.9ZM417.3,567.7h4.2v-2.7h-4.2v2.7ZM419.4,565.3c.5.6.9,1.5,1.1,2l-1,.4c-.1-.6-.6-1.4-1-2.1l1-.3ZM418.5,570.5v1.2h7.5v-1.2h-7.5ZM426,573.9v-1.2h-7.5v1.2h7.5ZM424.6,562.3c-.9-.5-1.7-1.2-2.4-1.8-.7.7-1.5,1.3-2.3,1.8h4.7ZM427,565.1h-4.3v2.7h4.3v-2.7ZM423.9,567.3c.3-.6.8-1.5,1-2.2l1.1.4c-.4.8-.8,1.6-1.2,2.1l-.9-.3Z"/>
      </g>
      <g>
        <path d="M453.8,454h-5.6v2.9h-1.3v-3.9h6.9v-1.2h-6.1v-1h13.6v1h-6.2v1.2h7v3.9h-1.3v-2.9h-5.7v4.1h-1.3v-4.1ZM460.4,465.4c1,0,1.1-.3,1.2-2.1.3.2.8.4,1.2.4-.2,2.2-.6,2.7-2.3,2.7h-4.1c-2,0-2.6-.4-2.6-1.8v-.6h-4v.9h-1.3v-6.2h12.1v5.3h-5.6v.6c0,.6.2.7,1.3.7h4ZM448.5,457.1c1.1-.1,2.7-.3,4.3-.6v.8c-1.3.3-2.7.6-3.9.8l-.4-1ZM449.4,454.4c1.2.2,2.6.6,3.5.9l-.4.8c-.8-.4-2.3-.8-3.5-1l.4-.7ZM449.8,459.7v1.2h4v-1.2h-4ZM453.8,463.1v-1.2h-4v1.2h4ZM459.3,459.7h-4.2v1.2h4.2v-1.2ZM459.3,463.1v-1.2h-4.2v1.2h4.2ZM460.1,458.2c-1-.3-2.8-.8-4.2-1l.3-.8c1.4.2,3.2.5,4.2.9l-.3.9ZM460.1,455c-1,.4-2.5.8-3.5,1l-.5-.7c1-.2,2.5-.8,3.4-1.1l.6.8Z"/>
        <path d="M451.4,468.7c-.4,1.2-.9,2.4-1.5,3.5v12.5h-1.2v-10.4c-.5.9-1.1,1.6-1.7,2.3-.1-.3-.5-.9-.7-1.2,1.6-1.7,3.1-4.4,4-7.1l1.2.4ZM462.5,471.2v1.1h-11.4v-1.1h11.4ZM452.2,478.9h9.1v5.7h-1.2v-.6h-6.8v.7h-1.2v-5.8ZM461.1,474.9h-8.7v-1.1h8.7v1.1ZM452.4,476.3h8.7v1.1h-8.7v-1.1ZM453.3,480v2.8h6.8v-2.8h-6.8ZM456.5,471.1c-.2-.6-.8-1.7-1.2-2.4l1.1-.5c.5.8,1.1,1.7,1.3,2.3l-1.2.5Z"/>
        <path d="M452.2,495.3c-.7.2-1.5.4-2.2.6v5.1c0,.8-.2,1.1-.7,1.3-.5.2-1.2.3-2.4.2,0-.3-.3-.9-.4-1.2.9,0,1.6,0,1.9,0,.3,0,.4,0,.4-.3v-4.7l-2.2.6-.4-1.3c.7-.2,1.6-.4,2.5-.6v-3.9h-2.3v-1.3h2.3v-3.6h1.3v3.6h2v1.3h-2v3.6c.6-.2,1.3-.4,2-.6l.2,1.2ZM461.8,493.3c-.8,2.5-2,4.4-3.7,5.9,1.3,1.1,2.8,1.8,4.6,2.3-.3.3-.7.8-.9,1.2-1.9-.6-3.5-1.4-4.8-2.6-1.5,1.2-3.3,2-5.1,2.6-.1-.4-.5-.9-.7-1.2,1.7-.5,3.4-1.2,4.9-2.3-1.3-1.3-2.2-3-3-4.9h0s-.6,0-.6,0v-1.2h3.9v-2.7h-4.2v-1.2h4.2v-2.8h1.3v2.8h4.3v1.2h-4.3v2.7h3.1c0,0,.9.3.9.3ZM454.5,494.2c.6,1.6,1.5,3,2.6,4.1,1.2-1.1,2.2-2.5,2.9-4.1h-5.5Z"/>
        <path d="M451,508.3c-.4.9-1,1.8-1.5,2.7v9.8h-1.2v-8.1c-.5.6-1,1.1-1.5,1.6-.1-.3-.6-.9-.8-1.2,1.5-1.2,3-3.2,3.9-5.2l1.2.4ZM450.6,504.7c-.8,1.5-2.3,3.1-3.6,4.2-.1-.3-.5-.7-.7-1,1.2-.9,2.5-2.4,3.1-3.6l1.2.4ZM452.7,511c0,3.5-.3,5.8-1.6,7.2-.1-.2-.5-.6-.7-.8,1.2-1.2,1.3-3.2,1.3-6.4h1ZM454.8,509.8v10.8h-1.2v-10.8h-2.7v-1.2h2.7v-4.2h1.2v4.2h3v1.2h-3ZM457.1,508.1c-.3-.6-1-1.7-1.6-2.4l.8-.5c.6.7,1.3,1.7,1.6,2.4l-.9.5ZM457.7,516.6c.2,0,.4,0,.6,0,0,.3,0,.7,0,1-.2,0-.4,0-.7,0h-.6c-1,0-1.2-.4-1.2-1.6v-5h1v5c0,.5,0,.6.2.6h.7ZM462.7,511.1h-1.6v7.8c0,.8-.1,1.1-.6,1.4-.5.2-1.3.2-2.6.2,0-.4-.2-.9-.4-1.3.9,0,1.8,0,2,0,.3,0,.3,0,.3-.3v-7.8h-2.1v-1.2h5v1.2ZM462.5,506.9h-4.3v-1.2h4.3v1.2Z"/>
        <path d="M461.7,525.4v8.4h-1.4v-1h-5.2v5.8h-1.4v-5.8h-5.2v1.1h-1.3v-8.5h6.5v-3.2h1.4v3.2h6.5ZM453.8,531.5v-4.8h-5.2v4.8h5.2ZM460.3,531.5v-4.8h-5.2v4.8h5.2Z"/>
        <path d="M449.3,546.8c-.3,2.1-.8,5.1-1.6,7.1l-1.3-.6c.8-1.8,1.4-4.6,1.6-6.8l1.3.3ZM452.2,545.2v8.9c0,.8.2,1,1.2,1h3.4c1.1,0,1.3-.6,1.4-3.7.3.3.9.5,1.3.6-.2,3.4-.6,4.4-2.6,4.4h-3.6c-1.9,0-2.5-.5-2.5-2.3v-8.9h1.4ZM452.6,540.9c1.7,1.2,3.8,2.8,4.8,4l-1,1c-1-1.1-3.1-2.9-4.8-4.1l.9-.9ZM460.4,546.1c1,2.1,2,4.9,2.4,6.8l-1.3.5c-.4-1.9-1.3-4.7-2.3-6.8l1.2-.5Z"/>
      </g>
      <g>
        <path d="M489.7,453c1.7,1.5,3.8,3.7,4.8,5.2l-1.1.8c-.3-.5-.6-1-1.1-1.5-10.3.6-11.3.6-12,.9,0-.3-.3-1-.4-1.3.4,0,.9-.5,1.5-1.1.6-.6,2.7-2.8,4.1-5.1l1.3.6c-1.4,1.9-3,3.8-4.6,5.3l9.2-.5c-.8-.9-1.7-1.9-2.6-2.6l1.1-.7ZM481.1,459.9h11.5v7.5h-1.4v-.9h-8.7v1h-1.4v-7.5ZM482.5,461.1v4h8.7v-4h-8.7Z"/>
        <path d="M481.1,476.8c-.5-.6-1.7-1.4-2.6-1.9l.8-.9c.9.5,2.1,1.2,2.6,1.8l-.8,1ZM478.9,484.5c.6-1.4,1.6-3.7,2.3-5.7l1,.7c-.6,1.9-1.4,4.1-2.1,5.7l-1.2-.7ZM481.4,472.1c-.5-.6-1.6-1.4-2.5-2l.8-.9c.9.5,2,1.3,2.5,1.9l-.8,1ZM483.4,475.6c-.2.9-.4,1.9-.8,2.5-.1-.1-.5-.3-.7-.4.3-.6.5-1.4.7-2.2l.8.2ZM485.8,474.9c0-.2-.1-.4-.2-.6-2.4.3-2.9.4-3.1.6,0-.2-.2-.5-.3-.7.3,0,.5-.3.8-.6.2-.2.6-.7,1.1-1.3-1.2.1-1.5.2-1.7.3,0-.2-.2-.5-.3-.7.2,0,.4-.2.6-.5.2-.3.8-1.3,1.1-2.2l.8.3c-.3.8-.8,1.5-1.2,2.1h1.2c.2-.3.3-.6.5-.9l.8.3c-.6,1-1.4,2.1-2.2,2.9l1.6-.2c-.1-.2-.2-.4-.3-.6l.7-.2c.4.6.7,1.3.9,1.8l-.7.3ZM494.2,481.8s0,.4,0,.5c-.3,1.5-.7,2.3-1.2,2.7-.4.3-.8.3-1.4.3-.5,0-1.6,0-2.8,0,0-.3-.2-.7-.4-1,1.2.1,2.3.1,2.8.1s.6,0,.8-.1c.3-.2.5-.7.8-1.5h-9.5c.3-.8.6-1.8.8-2.7h8.1v-.9h-8.8v-.9h10v2.7h-8.3c0,.3-.2.6-.3.9h9.4ZM484.2,477.8c0-.6-.2-1.5-.4-2.2l.7-.2c.2.7.4,1.6.4,2.1l-.7.3ZM485.8,475.1c.3.6.6,1.4.6,1.9l-.7.3c0-.5-.3-1.4-.6-2l.7-.2ZM490.6,471.6h-4.3v-.8h1.9c-.1-.4-.5-1-.7-1.4l.9-.2c.3.4.6,1,.8,1.4l-.8.2h2.2v.8ZM486.8,475h3.4v2.6h-3.4v-2.6ZM490.1,473h-3.3v-.8h3.3v.8ZM486.8,473.5h3.3v.7h-3.3v-.7ZM487.6,476.9h1.6v-1.2h-1.6v1.2ZM491.8,475.5c-.2.9-.5,1.8-.8,2.5-.1-.1-.5-.4-.7-.5.4-.6.6-1.4.7-2.2l.8.2ZM494.2,474.9c0-.2-.1-.4-.3-.7-2.5.3-2.9.5-3.2.5,0-.1-.2-.5-.3-.7.3,0,.5-.3.8-.6.2-.2.6-.7,1.1-1.4-1.2.1-1.5.2-1.7.3,0-.2-.2-.5-.3-.7.2,0,.3-.2.5-.5.2-.3.8-1.3,1.1-2.2l.8.3c-.3.7-.8,1.5-1.2,2.1h1.2c.2-.3.3-.6.5-.9l.8.4c-.6,1-1.4,2-2.2,2.9l1.6-.2c-.1-.2-.2-.4-.3-.6l.6-.3c.4.6.8,1.4.9,1.9l-.7.3ZM492.6,477.9c0-.6-.2-1.6-.4-2.4l.7-.2c.3.8.4,1.7.5,2.3l-.7.2ZM494.1,475c.4.7.7,1.7.8,2.3l-.7.3c0-.6-.4-1.6-.7-2.4l.6-.2Z"/>
        <path d="M480.5,498.6c-.2,1.6-.5,3.2-.9,4.3-.2-.1-.7-.3-1-.4.4-1.1.7-2.7.8-4.1l1,.2ZM484,493.8c.5,1.1,1,2.6,1.2,3.4l-1,.4c0-.3-.1-.6-.2-.9-4,.6-4.6.8-4.9.9,0-.3-.2-.8-.4-1.2.4,0,.8-.5,1.3-1.2.3-.3.8-1.1,1.5-2.1-1.9.2-2.3.3-2.5.4,0-.3-.3-.8-.4-1.2.3,0,.6-.5,1-1,.4-.5,1.6-2.6,2.3-4.5l1.1.5c-.8,1.7-1.7,3.5-2.7,4.8l1.9-.2c.5-.8.9-1.6,1.3-2.5l1,.6c-1.1,2.1-2.5,4.3-3.9,6l3.1-.4c-.2-.6-.4-1.2-.6-1.7l1-.3ZM482.2,498.4c.3,1.2.4,2.7.5,3.8l-1,.3c0-1.1-.2-2.6-.4-3.9l.9-.2ZM484.1,497.9c.4,1.1.9,2.5,1.1,3.5l-.9.3c-.2-1-.6-2.4-1-3.5l.9-.3ZM494.6,501.9c0,.7-.1,1.1-.6,1.3-.4.2-1.2.2-2.3.2,0-.3-.2-.9-.3-1.2.8,0,1.5,0,1.7,0,.2,0,.3,0,.3-.3v-12.9h-6.7v14.4h-1.2v-15.6h9.2v14.1ZM491.7,498.9c.3,0,.8,0,1.1,0,0,.3,0,.7.1,1-.2,0-.7,0-1.2,0h-2.3c-1.2,0-1.5-.4-1.5-1.6v-1.7h-.7v-1.1h2.4c-.2-.5-.4-1.1-.7-1.6l.8-.3h-2.8v-1.1h3.4c.3-.8.7-2.1.8-3l1,.3c-.3.9-.6,1.9-.9,2.7h1.5v1.1h-3c.3.5.6,1.2.8,1.6l-.6.3h2.7v1.1h-3.7v1.8c0,.5,0,.6.4.6h2.2ZM488.6,489.5c.4.8.9,1.9,1,2.6l-.9.3c-.1-.7-.5-1.8-.9-2.6l.8-.3Z"/>
        <path d="M493.8,507.1c-.6,1.9-1.5,3.5-2.6,4.8,1.1,1.1,2.5,2,4.1,2.6-.3.3-.6.8-.8,1.1-.2,0-.4-.2-.6-.3v5.9h-1.3v-.6h-4.5v.6h-1.2v-6c-.4.2-.7.3-1.1.5-.1-.3-.4-.6-.6-.9h-1.9v3.2c.8-.2,1.6-.4,2.4-.6v1.2c-2.3.6-4.9,1.2-6.8,1.7l-.3-1.3.9-.2v-6.1h1.1v5.9l1.4-.3v-7.3h-2.5v-5.5h5.8v4.8c1.4-1.4,2.6-3.4,3.3-5.5l1.3.3c-.2.5-.4,1-.6,1.5h3.7c0,0,.8.3.8.3ZM480.7,510h3.4v-3.2h-3.4v3.2ZM485.5,514.7c1.4-.6,2.9-1.6,4.1-2.8-.7-.8-1.2-1.7-1.7-2.5-.5.8-1.1,1.5-1.6,2.1-.2-.2-.6-.6-.9-.8v.5h-2.1v2.6h2.2v.9ZM493,514.9c-1-.6-1.9-1.4-2.7-2.1-.8.8-1.7,1.5-2.7,2.1h5.4ZM492.6,519.5v-3.5h-4.5v3.5h4.5ZM488.7,508l-.2.3c.5.9,1,1.8,1.8,2.7.8-.9,1.4-1.9,1.8-3h-3.4Z"/>
        <path d="M483.9,527.9h-5.1v-1.1h5.1v1.1ZM485.3,537.2c-1.4.9-3.7,1.7-5.5,2.2-.2-.3-.7-.8-1-1,1.8-.4,4-1,5.3-1.7l1.2.5ZM483.5,525.1h-4.3v-1h4.3v1ZM481.1,529.3h11.7v7.2h-11.7v-7.2ZM482.4,531.4h9v-1.2h-9v1.2ZM482.4,533.5h9v-1.2h-9v1.2ZM482.4,535.7h9v-1.3h-9v1.3ZM486.7,525.2c-.4.7-.9,1.3-1.4,1.8-.2-.2-.7-.5-1-.7.9-.8,1.7-2.1,2.1-3.4l1.2.3c-.1.3-.3.7-.4,1h6.2c0,0,.9.3.9.3-.5.9-1,2-1.5,2.6l-1.1-.4c.3-.4.6-.9.8-1.4h-2.9v.2c0,.2,0,.4,0,.6,1,1.1,2.9,1.8,5.3,2-.3.3-.6.7-.8,1.1-2.1-.3-3.8-1-4.9-2.1-.6.9-2,1.7-5.2,2.2-.1-.3-.5-.8-.7-1,4.7-.6,5.1-1.9,5.1-2.8v-.2h-1.9ZM489.4,536.6c1.9.6,4,1.4,5.3,1.9l-1.2.8c-1.2-.6-3.1-1.3-5-2l.9-.7Z"/>
        <path d="M485.2,545.1h-6.5v-1.1h6.5v1.1ZM484.5,556.3h-4v.8h-1.1v-6h5.1v5.2ZM479.5,547.4v-1.1h5.1v1.1h-5.1ZM479.5,548.7h5.1v1.1h-5.1v-1.1ZM480.5,552.2v3h2.9v-3h-2.9ZM481.9,543.8c-.3-.6-.8-1.7-1.3-2.4l1-.5c.5.7,1,1.7,1.3,2.3l-1,.6ZM493.2,542c-.1,7.3-.1,13.5.9,13.8.1,0,.2-1.1.3-2.4.2.3.6.8.8,1-.2,2.5-.8,3.1-1.6,2.8-1.8-.5-1.7-6.4-1.7-13.8h-3v5.3h2.4v1.2h-2.4v7.6h-1.3v-7.6h-2.4v-1.2h2.4v-5.3h-2.2v-1.3h7.8Z"/>
        <path d="M494,562.2v8.4h-1.4v-1h-5.2v5.8h-1.4v-5.8h-5.2v1.1h-1.3v-8.5h6.5v-3.2h1.4v3.2h6.5ZM486.1,568.2v-4.8h-5.2v4.8h5.2ZM492.6,568.2v-4.8h-5.2v4.8h5.2Z"/>
        <path d="M481.6,583.5c-.3,2.1-.8,5.1-1.6,7.1l-1.3-.6c.8-1.8,1.4-4.6,1.6-6.8l1.3.3ZM484.5,581.9v8.9c0,.8.2,1,1.2,1h3.4c1.1,0,1.3-.6,1.4-3.7.3.3.9.5,1.3.6-.2,3.4-.6,4.4-2.6,4.4h-3.6c-1.9,0-2.5-.5-2.5-2.3v-8.9h1.4ZM484.9,577.6c1.7,1.2,3.8,2.8,4.8,4l-1,1c-1-1.1-3.1-2.9-4.8-4.1l.9-.9ZM492.7,582.8c1,2.1,2,4.9,2.4,6.8l-1.3.5c-.4-1.9-1.3-4.7-2.3-6.8l1.2-.5Z"/>
      </g>
    </g>
    <g>
      <path d="M162.4,451v15.6h-1.3v-.8h-12.3v.8h-1.3v-15.6h14.9ZM161.1,464.6v-12.4h-12.3v12.4h12.3ZM155.1,461.9c-1.9.4-3.8.7-5.3,1l-.2-1c1.4-.2,3.4-.6,5.4-.9v.9ZM159.5,456.6c-.5,1.7-1.1,3.1-2,4.4.4,1,.8,1.6,1.4,1.7.2,0,.4-.7.5-1.8.2.2.6.5.9.6-.2,1.9-.8,2.6-1.8,2.3-.8-.2-1.4-.8-1.8-1.8-.7.8-1.5,1.5-2.4,2.1-.2-.2-.6-.6-.8-.9,1.1-.6,2-1.4,2.8-2.4-.5-1.4-.8-3.3-1-5.3h-5.5v-1h5.4c0-.6-.1-1.3-.1-1.9h1.2c0,.6,0,1.3.1,1.9h3.9v1h-3.8c.2,1.5.4,2.9.7,4.1.6-1,1-2.1,1.3-3.3l1.1.2ZM154.4,456.7v3.5h-4v-3.5h4ZM153.4,457.5h-2.1v1.9h2.1v-1.9ZM159.1,454.4c-.4-.4-1.2-1-1.9-1.3l.6-.7c.7.3,1.5.8,1.9,1.2l-.6.8Z"/>
      <path d="M161.3,475.4c-.8.7-1.8,1.4-2.8,2,.8,2.4,2.5,4.4,4.8,5.3-.3.3-.7.8-.9,1.1-2.3-1-4-3.1-5-5.7-.3.2-.6.4-.8.5.6,2.3.2,4.5-.8,5.3-.6.5-1,.6-1.8.6s-1,0-1.5,0c0-.4-.1-.9-.3-1.3.6,0,1.2,0,1.6,0s.8,0,1.2-.4c.5-.4.9-1.6.7-3.1-2.1,1.6-5.1,3.1-7.7,3.9-.1-.3-.5-.8-.7-1.1,2.9-.7,6.4-2.3,8.2-4-.1-.4-.3-.8-.5-1.3-1.8,1.2-4.5,2.5-6.7,3.1-.1-.3-.4-.8-.7-1,2.2-.5,5.3-1.8,6.8-3-.2-.4-.5-.7-.9-1.1-1.6.9-3.5,1.6-5.2,2.1-.1-.3-.5-.8-.7-1.1,2.3-.5,4.7-1.4,6.4-2.6h-4.1v-1.2h10.4v1.2h-4.5c-.4.3-.8.6-1.3,1,.8.8,1.5,1.8,1.8,2.8,1.4-.9,2.9-2.1,3.9-3l1.1.9ZM148.9,473.4h-1.3v-3.7h6.8c-.2-.5-.4-.9-.7-1.3l1.4-.4c.3.5.7,1.2.9,1.7h6.6v3.7h-1.4v-2.4h-12.3v2.4Z"/>
      <path d="M152.1,491.1h-5.1v-1.1h5.1v1.1ZM153.5,500.4c-1.4.9-3.7,1.7-5.5,2.2-.2-.3-.7-.8-1-1,1.8-.4,4-1,5.3-1.7l1.2.5ZM151.6,488.2h-4.3v-1h4.3v1ZM149.3,492.5h11.6v7.2h-11.6v-7.2ZM150.6,494.6h9v-1.2h-9v1.2ZM150.6,496.7h9v-1.2h-9v1.2ZM150.6,498.8h9v-1.3h-9v1.3ZM154.9,488.4c-.4.7-.9,1.3-1.4,1.8-.2-.2-.7-.5-1-.7.9-.8,1.7-2.1,2.1-3.4l1.2.3c-.1.3-.3.7-.4,1h6.2c0,0,.9.3.9.3-.5.9-1,2-1.5,2.6l-1.1-.4c.3-.4.6-.9.8-1.4h-2.9v.2c0,.2,0,.4,0,.6,1,1.1,2.9,1.8,5.3,2-.3.3-.6.7-.8,1.1-2.1-.3-3.8-1-4.9-2.1-.6.9-2,1.7-5.2,2.2-.1-.3-.5-.8-.7-1,4.7-.6,5.1-1.9,5.1-2.8v-.2h-1.9ZM157.6,499.8c1.9.6,4,1.4,5.3,1.9l-1.2.8c-1.2-.6-3.1-1.3-5-2l.9-.7Z"/>
      <path d="M151.2,512.7c-.3,1.6-.9,3.3-1.5,4.6.4.2.8.5,1.5.9,1.3.8,2.9.9,5,.9s5.2-.2,7.2-.4c-.2.4-.4,1-.4,1.4-1.4,0-4.8.2-6.9.2s-3.9-.2-5.3-1c-.7-.4-1.4-1-1.8-1s-1,1.1-1.5,2.3l-.9-1.2c.6-.9,1.2-1.6,1.8-2,.5-1,1-2.4,1.3-3.7h-2.3c.5-1.1,1.1-2.6,1.5-4h-2v-1.2h3.7c-.4,1.3-1,2.8-1.5,4.1h1.5c0,0,.6.2.6.2ZM148.8,507.5c-.2-.8-.6-2-.9-3l1.2-.3c.3.9.7,2.1,1,2.9l-1.2.4ZM153.8,517.9h-1.3v-9.3h5.2c-1.1-.5-2.4-1.1-3.4-1.5l.8-.7c.8.3,1.7.6,2.5,1,.9-.4,1.7-.9,2.5-1.4h-7.5v-1.1h9.1c0,0,.8.6.8.6-1,.9-2.3,1.8-3.6,2.5.5.3,1,.5,1.4.7h2.3v7.9c0,.7-.1,1-.6,1.2-.5.2-1.2.2-2.4.2,0-.3-.2-.8-.4-1.1.8,0,1.6,0,1.8,0s.3,0,.3-.3v-1.6h-3.1v2.9h-1.2v-2.9h-3v3ZM153.8,509.6v1.6h3v-1.6h-3ZM156.9,513.9v-1.6h-3v1.6h3ZM161.2,509.6h-3.1v1.6h3.1v-1.6ZM161.2,513.9v-1.6h-3.1v1.6h3.1Z"/>
      <path d="M159.1,530.6c-.5,1.6-1.2,2.9-2.1,4,2.2.9,4.2,1.9,5.5,2.8l-1,1.2c-1.3-.9-3.3-2-5.6-2.9-1.8,1.5-4.3,2.4-7.7,3-.1-.4-.6-1-.8-1.3,3.1-.4,5.4-1.1,7.1-2.3-1.7-.7-3.4-1.3-5-1.8.5-.7,1.1-1.6,1.7-2.5h-3.9v-1.3h4.6c.6-1.1,1.1-2.2,1.5-3.1l1.5.3c-.4.9-.8,1.9-1.4,2.9h4.4c.1-.6.2-1.2.3-1.8h1.6c0,.7-.2,1.3-.3,1.8h3.3v1.3h-3.6ZM149.1,527.8h-1.3v-3.6h6.7c-.3-.6-.6-1.3-.9-1.8l1.4-.4c.4.7.8,1.6,1.1,2.2h6.2v3.6h-1.4v-2.4h-11.8v2.4ZM152.8,530.6c-.4.7-.8,1.4-1.2,1.9,1.3.4,2.7.9,4,1.5.8-.9,1.5-2,1.9-3.4h-4.8Z"/>
      <path d="M155.7,540.6c1.7,2.5,4.8,5,7.6,6.1-.3.3-.8.8-1,1.1-2.7-1.3-5.5-3.6-7.4-6-1.9,2.3-4.9,4.8-7.5,6.2-.2-.4-.5-.8-.8-1.1,2.3-1.1,5-3.1,6.8-5.1h-3.2v-1.3h5.5ZM155.6,554.9h7v1.2h-15.2v-1.2h6.8v-3h-5v-1.2h5v-2.7h-4.3v-1.2h10v1.2h-4.4v2.7h5.1v1.2h-5.1v3Z"/>
      <path d="M147,559.1h6.3v1.2h-2.8c-.3,1.5-.7,2.9-1.1,4.3h3.6v7.7h-3.6v1.4h-1.1v-6.5c-.3.5-.6,1-1,1.5,0-.3-.4-1.1-.6-1.4,1.3-1.7,2.1-4.2,2.6-6.9h-2.3v-1.2ZM151.8,565.8h-2.4v5.3h2.4v-5.3ZM163.2,566.8h-2v7.7h-1.3v-7.7h-2.9c0,2.7-.5,5.7-2.6,7.8-.2-.2-.7-.6-1-.8,1.8-1.9,2.2-4.6,2.3-7.1h-2v-1.3h2v-5.2h-1.5v-1.3h8.6v1.3h-1.7v5.2h2v1.3ZM159.9,565.5v-5.2h-2.9v5.2h2.9Z"/>
      <path d="M161.4,590.9c.5,0,.6-.3.7-2.7.3.3.9.5,1.3.6-.1,2.7-.5,3.4-1.8,3.4h-2.1c-1.4,0-1.8-.4-1.8-1.9v-3.5h-3.1c-.3,2.1-1.7,4.4-6.7,5.9-.2-.4-.6-.8-.9-1.1,4.4-1.2,5.8-3.1,6.2-4.7h-5v-1.2h5.1v-2.2h1.4v2.1h0c0,0,4.4,0,4.4,0v4.8c0,.5,0,.6.6.6h1.7ZM148.8,581.1h-1.3v-3.2h7c-.2-.5-.4-1.1-.6-1.5l1.4-.2c.2.5.5,1.2.7,1.8h6.7v3.1h-1.4v-1.9h-3.7v3c0,.5,0,.6.5.6h2.7c.4,0,1,0,1.4-.1,0,.3,0,.8.1,1.1-.3,0-.8,0-1.4,0h-2.9c-1.4,0-1.8-.5-1.8-1.8v-3h-2.7c-.4,2.7-1.5,4.2-5.3,4.9-.1-.3-.5-.8-.7-1.1,3.4-.6,4.3-1.7,4.6-3.8h-3.5v2Z"/>
      <path d="M152.6,595.3c-.5,1.5-1.2,3.2-1.8,4.7,1.3,1.5,1.6,2.8,1.6,3.9s-.2,1.7-.7,2.1c-.3.2-.6.3-.9.3-.4,0-.8,0-1.2,0,0-.3-.1-.8-.3-1.2.4,0,.8,0,1,0,.2,0,.4,0,.6-.2.3-.2.4-.7.4-1.3,0-1-.3-2.2-1.6-3.6.5-1.3,1-2.8,1.4-4.1h-2.4v14.5h-1.2v-15.7h4.3c0,0,.9.5.9.5ZM161.7,609.2c.4,0,.5-.3.5-2.3.3.2.8.4,1.2.5-.1,2.3-.5,2.9-1.5,2.9h-1.6c-1.3,0-1.5-.4-1.5-1.7v-4.7h-1.9c-.3,3.3-1.2,5.4-4.6,6.6-.1-.3-.5-.8-.8-1.1,3.1-1,3.8-2.7,4.1-5.5h-2.5v-1.2h10.1v1.2h-3.2v4.7c0,.5,0,.5.5.5h1.3ZM154.2,599.5h-1.2v-3.1h4.6c-.2-.6-.6-1.4-1-2l1.2-.4c.5.7,1,1.6,1.2,2.2h-.4c0,.1,4.5.1,4.5.1v3.1h-1.3v-2h-7.6v2ZM154.4,600.7v-1.2h7.2v1.2h-7.2Z"/>
    </g>
    <g>
      <g>
        <path d="M320.8,462.8c-.2.8-.6,1.6-1.5,2.4.8.4,1.5.7,2.1,1.1l-.9.8c-.6-.4-1.4-.8-2.2-1.2-1.2.6-2.8,1.1-5,1.5-.1-.3-.4-.7-.6-.9,1.9-.3,3.3-.7,4.3-1.2-.9-.4-1.9-.7-2.8-1,.3-.4.6-.8.9-1.2h-2.1c0,.1-.1-.9-.1-.9.8,0,1.8,0,2.9-.1.3-.5.6-1,.8-1.4h-2.9v-2.9h3.4v-.7h-2.9v-1.9h-1.2v-1h1.2v-1.8h2.9v-1.3h1.1v1.3h3.1v1.8h1.2v1h-1.2v1.9h-3.1v.7h3.5v2.9h-3.8c-.2.5-.5.9-.8,1.4.9,0,1.8,0,2.7-.1v-.8h1.1v.7h0c0,0,.9,0,.9,0v.9s-1,0-1,0ZM314.8,459.8h2.3v-1.1h-2.3v1.1ZM315.3,453.2v1h1.7v-1h-1.7ZM317.1,456.1v-1.1h-1.7v1.1h1.7ZM316.4,463c-.2.3-.4.6-.6.8.7.2,1.5.5,2.3.8.9-.6,1.3-1.2,1.5-1.8l-3.2.2ZM318.1,453.2v1h1.9v-1h-1.9ZM320,456.1v-1.1h-1.9v1.1h1.9ZM318.1,458.7v1.1h2.3v-1.1h-2.3ZM327.9,455.6c-.3,2.7-.8,5-1.6,6.9.8,1.6,1.8,2.9,3,3.7-.3.2-.6.6-.8,1-1.2-.8-2.1-2-2.8-3.4-.8,1.5-1.9,2.7-3.3,3.7-.1-.3-.5-.8-.7-1,1.5-1,2.6-2.4,3.4-4.1-.6-1.4-1-3-1.3-4.8-.3.7-.6,1.4-1,2-.2-.2-.6-.6-.9-.8,1.2-1.9,1.9-4.8,2.3-7.8l1.1.2c-.1,1-.3,2.1-.6,3.1h4.4v1.2h-1.2ZM324.5,455.6c.3,1.9.7,3.7,1.2,5.3.5-1.5.8-3.3,1-5.3h-2.2Z"/>
        <path d="M318.5,469.4c-.5,1.3-1.1,2.6-1.8,3.8v12.2h-1.3v-10.1c-.6.8-1.2,1.5-1.8,2.2-.1-.3-.5-1-.8-1.3,1.8-1.7,3.4-4.4,4.4-7.1l1.3.4ZM329.1,483.4v1.3h-11.2v-1.3h6.3c.6-2.4,1.4-6.2,1.7-8.9l1.4.3c-.5,2.8-1.2,6.3-1.9,8.7h3.7ZM328.4,473.5h-9.7v-1.3h9.7v1.3ZM321.1,482.6c-.1-1.9-.7-5.2-1.2-7.7l1.2-.3c.6,2.5,1.1,5.7,1.3,7.6l-1.3.4ZM323.1,472c-.1-.8-.5-2-.8-2.9l1.3-.3c.3.9.7,2.1.9,2.8l-1.3.4Z"/>
        <path d="M315.6,494.2v2.7c0,2-.3,4.8-1.9,6.6-.2-.3-.7-.7-1-.9,1.5-1.7,1.6-4,1.6-5.8v-3.8h2.3c-.2-.2-.5-.5-.6-.7,1.4-.3,3.1-.6,4.6-1.1-1.4-.4-2.8-.8-4.1-1l.8-.6h-2.9v-1.1h6.6c-.3-.5-.6-.9-1-1.3l1-.5c.5.5,1,1.3,1.4,1.8h6v1.1h-2.7l.7.4c-.8.4-1.7.8-2.8,1.2,1.3.4,2.5.8,3.4,1.1l-.7.7h2.6v1.1h-13.4ZM329.2,501.7v1.1h-13.3v-1.1h5.9v-1.8h-4.2v-1.1h4.2v-1.6h-3.8c-.5.9-1.1,1.6-1.7,2.2-.1-.2-.5-.9-.7-1.1,1-.9,1.9-2.3,2.4-3.8l1.2.3c-.2.4-.3.8-.5,1.2h3.2v-1.5h1.3v1.5h4.8v1.1h-4.8v1.6h4.4v1.1h-4.4v1.8h6.1ZM325.9,493.1c-1-.4-2.4-.8-3.8-1.3-1.6.5-3.3.9-4.9,1.3h8.7ZM317.6,489.7c1.4.3,3,.8,4.5,1.2,1.2-.4,2.2-.8,3-1.2h-7.5Z"/>
        <path d="M319.5,518.5c-1.3,1-3.7,1.9-5.5,2.3-.2-.3-.5-.8-.8-1,1.9-.3,4.1-1,5.3-1.8l1,.5ZM328.9,516v1.1h-7.2v4.3h-1.3v-4.3h-7.1v-1.1h7.1v-1.3h-5.4v-1h5.4v-1.3h-6.3v-1.1h3.9c-.2-.5-.5-1.2-.9-1.7l1-.3h-4.6v-1.1h2.9c-.3-.7-.9-1.8-1.4-2.6l1.1-.4c.6.8,1.3,1.9,1.5,2.6l-.9.4h2.2v-3.2h1.3v3.2h2.1v-3.2h1.3v3.2h2.2l-.7-.2c.5-.7,1.1-1.9,1.4-2.7l1.4.4c-.5.9-1.1,1.9-1.6,2.6h2.8v1.1h-4.7l1.2.3c-.4.6-.8,1.2-1.2,1.7h4.1v1.1h-6.5v1.3h5.6v1h-5.6v1.3h7.2ZM318.3,509.3c.4.6.8,1.3,1,1.8l-.7.2h5l-.6-.2c.4-.5.8-1.3,1.1-1.8h-5.6ZM323.6,518c1.7.6,4,1.4,5.2,2l-.8.8c-1.2-.6-3.5-1.5-5.2-2.1l.8-.7Z"/>
        <path d="M323.1,532.2c-.8.4-1.7.8-2.6,1.2h6.8v6h-1.3v-.5h-7.9v.6h-1.3v-4.6c-1.1.4-2.3.7-3.5,1-.1-.3-.5-.9-.7-1.2,2.6-.6,5.3-1.4,7.7-2.4h-7.4v-1.1h6.7v-1.4h-5v-1.1h5v-1.3h-5.7v-3.7h13.9v3.7h-6.9v1.3h4v.9c.7-.5,1.3-1,1.9-1.5l1,.7c-.9.9-1.9,1.7-3.1,2.4h4v1.1h-5.9ZM318.3,524.6h-2.9v1.7h2.9v-1.7ZM326,534.4h-7.9v1.2h7.9v-1.2ZM326,537.8v-1.3h-7.9v1.3h7.9ZM322.5,526.4v-1.7h-3v1.7h3ZM322.7,531.1c.8-.4,1.5-.9,2.2-1.4h-3.8v1.4h1.6ZM323.7,526.4h3v-1.7h-3v1.7Z"/>
      </g>
      <g>
        <path d="M285.8,455.9h-5.1v-1.1h5.1v1.1ZM287.2,465.2c-1.4.9-3.7,1.7-5.5,2.2-.2-.3-.7-.8-1-1,1.8-.4,4-1,5.3-1.7l1.2.5ZM285.3,453.1h-4.3v-1h4.3v1ZM283,457.3h11.6v7.2h-11.6v-7.2ZM284.3,459.5h9v-1.2h-9v1.2ZM284.3,461.6h9v-1.2h-9v1.2ZM284.3,463.7h9v-1.3h-9v1.3ZM288.6,453.3c-.4.7-.9,1.3-1.4,1.8-.2-.2-.7-.5-1-.7.9-.8,1.7-2.1,2.1-3.4l1.2.3c-.1.3-.3.7-.4,1h6.2c0,0,.9.3.9.3-.5.9-1,2-1.5,2.6l-1.1-.4c.3-.4.6-.9.8-1.4h-2.9v.2c0,.2,0,.4,0,.6,1,1.1,2.9,1.8,5.3,2-.3.3-.6.7-.8,1.1-2.1-.3-3.8-1-4.9-2.1-.6.9-2,1.7-5.2,2.2-.1-.3-.5-.8-.7-1,4.7-.6,5.1-1.9,5.1-2.8v-.2h-1.9ZM291.3,464.7c1.9.6,4,1.4,5.3,1.9l-1.2.8c-1.2-.6-3.1-1.3-5-2l.9-.7Z"/>
        <path d="M284.9,477.6c-.3,1.6-.9,3.3-1.5,4.6.4.2.8.5,1.5.9,1.3.8,2.9.9,5,.9s5.2-.2,7.2-.4c-.2.4-.4,1-.4,1.4-1.4,0-4.8.2-6.9.2s-3.9-.2-5.3-1c-.7-.4-1.4-1-1.8-1s-1,1.1-1.5,2.3l-.9-1.2c.6-.9,1.2-1.6,1.8-2,.5-1,1-2.4,1.3-3.7h-2.3c.5-1.1,1.1-2.6,1.5-4h-2v-1.2h3.7c-.4,1.3-1,2.8-1.5,4.1h1.5c0,0,.6.2.6.2ZM282.4,472.4c-.2-.8-.6-2-.9-3l1.2-.3c.3.9.7,2.1,1,2.9l-1.2.4ZM287.5,482.8h-1.3v-9.3h5.1c-1.1-.5-2.4-1.1-3.4-1.5l.8-.7c.8.3,1.7.6,2.5,1,.9-.4,1.7-.9,2.5-1.4h-7.5v-1.1h9.1c0,0,.8.6.8.6-1,.9-2.3,1.8-3.6,2.5.5.3,1,.5,1.4.7h2.3v7.9c0,.7-.1,1-.6,1.2s-1.2.2-2.4.2c0-.3-.2-.8-.4-1.1.8,0,1.6,0,1.8,0s.3,0,.3-.3v-1.6h-3.1v2.9h-1.2v-2.9h-3v3ZM287.5,474.5v1.6h3v-1.6h-3ZM290.5,478.7v-1.6h-3v1.6h3ZM294.9,474.5h-3.1v1.6h3.1v-1.6ZM294.9,478.7v-1.6h-3.1v1.6h3.1Z"/>
        <path d="M292.8,495.5c-.5,1.6-1.2,2.9-2.1,4,2.2.9,4.2,1.9,5.5,2.8l-1,1.2c-1.3-.9-3.3-2-5.6-2.9-1.8,1.5-4.3,2.4-7.7,3-.1-.4-.6-1-.8-1.3,3.1-.4,5.4-1.1,7.1-2.3-1.7-.7-3.4-1.3-5-1.8.5-.7,1.1-1.6,1.7-2.5h-3.9v-1.3h4.6c.6-1.1,1.1-2.2,1.5-3.1l1.5.3c-.4.9-.8,1.9-1.4,2.9h4.4c.1-.6.2-1.2.3-1.8h1.6c0,.7-.2,1.3-.3,1.8h3.3v1.3h-3.6ZM282.8,492.7h-1.3v-3.6h6.7c-.3-.6-.6-1.3-.9-1.8l1.4-.4c.4.7.8,1.6,1.1,2.2h6.2v3.6h-1.4v-2.4h-11.8v2.4ZM286.5,495.5c-.4.7-.8,1.4-1.2,1.9,1.3.4,2.7.9,4,1.5.8-.9,1.5-2,1.9-3.4h-4.8Z"/>
        <path d="M289.4,505.5c1.7,2.5,4.8,5,7.6,6.1-.3.3-.8.8-1,1.1-2.7-1.3-5.5-3.6-7.4-6-1.9,2.3-4.9,4.8-7.5,6.2-.2-.4-.5-.8-.8-1.1,2.3-1.1,5-3.1,6.8-5.1h-3.2v-1.3h5.5ZM289.3,519.7h7v1.2h-15.2v-1.2h6.8v-3h-5v-1.2h5v-2.7h-4.3v-1.2h10v1.2h-4.4v2.7h5.1v1.2h-5.1v3Z"/>
        <path d="M290.8,532.2c-.8.4-1.7.8-2.6,1.2h6.8v6h-1.3v-.5h-7.9v.6h-1.3v-4.6c-1.1.4-2.3.7-3.5,1-.1-.3-.5-.9-.7-1.2,2.6-.6,5.3-1.4,7.7-2.4h-7.4v-1.1h6.7v-1.4h-5v-1.1h5v-1.3h-5.7v-3.7h13.9v3.7h-6.9v1.3h4v.9c.7-.5,1.3-1,1.9-1.5l1,.7c-.9.9-1.9,1.7-3.1,2.4h4v1.1h-5.9ZM285.9,524.7h-2.9v1.7h2.9v-1.7ZM293.7,534.4h-7.9v1.2h7.9v-1.2ZM293.7,537.8v-1.3h-7.9v1.3h7.9ZM290.1,526.4v-1.7h-3v1.7h3ZM290.4,531.1c.8-.4,1.5-.9,2.2-1.4h-3.8v1.4h1.6ZM291.4,526.4h3v-1.7h-3v1.7Z"/>
      </g>
    </g>
    <rect class="st5" x="288.8" y="368.9" width="32" height="106.2" rx="4.7" ry="4.7" transform="translate(726.9 117.2) rotate(90)"/>
    <path class="st0" d="M125.1,225.1v-9c0-5.5,3.8-10,8.5-10h343.5c4.7,0,8.5,4.5,8.5,10v9"/>
    <path class="st2" d="M304.9,383.6h137c7.1,0,12.8,4.5,12.8,10v27.4"/>
    <path class="st1" d="M304.9,383.6h-137c-7.1,0-12.8,4.5-12.8,10v9"/>
    <rect class="st3" x="109.1" y="146.5" width="32" height="195.7" rx="5" ry="5" transform="translate(369.5 119.3) rotate(90)"/>
    <rect class="st3" x="469.7" y="146.5" width="32" height="195.7" rx="5" ry="5" transform="translate(730.1 -241.3) rotate(90)"/>
    <g>
      <g>
        <path d="M79.4,276h-8.6v-1.1h2.4c.1-.4.3-.9.4-1.5h-1.9v-1.1h2.2c.1-.5.2-1,.3-1.4h1.2c0,.5-.2,1-.3,1.4h3.1v2.5h1.3v1.1ZM76.4,285.2v2.2h-1.3v-2.2h-3.8c.2-.7.4-1.8.5-2.7h-.9v-1h4.2v-.9h-3.4v-3.5h6.7v3.5h-2v.9h2.5v1h-2.5v1.7h2.7v1.1h-2.7ZM75.1,284.1v-1.7h-2.1c0,.5-.2,1.1-.3,1.7h2.4ZM72.9,279.5h4.1v-1.6h-4.1v1.6ZM74.7,273.5c-.1.5-.3,1-.4,1.5h2.5v-1.5h-2.1ZM86.5,272.8c-.2,9.7-.4,12.7-1,13.6-.3.5-.7.6-1.2.7-.5,0-1.3,0-2,0,0-.4-.1-.9-.4-1.2.8,0,1.5,0,1.9,0s.4,0,.6-.3c.5-.6.6-3.7.8-12.4h-1.9c-.1,4.9-.5,10.8-4.1,14-.2-.3-.6-.6-.9-.8,1.7-1.5,2.7-3.7,3.2-6.1-.6-1-1.6-2.4-2.4-3.5l.9-.5c.6.7,1.2,1.6,1.8,2.4.3-1.8.3-3.7.3-5.4h-2.7v-1.2h7v.7Z"/>
        <path d="M70.4,297c.5-1.2.8-3.2.9-4.6h1c0,1.6-.4,3.7-.9,5l-1-.4ZM73,289h1.3v16.4h-1.3v-16.4ZM75.4,291.9c.5,1,1.1,2.3,1.3,3l-1,.5c-.2-.8-.7-2.1-1.2-3.1l.9-.4ZM86.9,303.6v1.3h-11v-1.3h5.1v-4.5h-3.8v-1.2h3.8v-3.7h-2.6c-.4,1.1-.8,2-1.3,2.8-.3-.2-.9-.5-1.2-.6,1-1.6,1.8-4,2.2-6.4l1.3.2c-.2.9-.4,1.9-.6,2.8h2.3v-3.7h1.3v3.7h4.1v1.3h-4.1v3.7h3.7v1.2h-3.7v4.5h4.5Z"/>
        <path d="M75.9,313.3c-.3,2.6-.8,4.6-1.5,6.3,1.7,1.8,4.2,2.2,7.3,2.2s4.6,0,5.5,0c-.2.3-.4.9-.5,1.2h-5c-3.3,0-5.9-.5-7.8-2.3-.6,1.1-1.4,2-2.2,2.6-.2-.3-.7-.7-1-.9.9-.6,1.7-1.6,2.4-2.7-.7-.9-1.2-2-1.6-3.5l1-.4c.3,1.1.7,1.9,1.2,2.7.5-1.2.8-2.6,1.1-4.2h-2.9c.8-1.3,1.8-3.3,2.6-5h-3.2v-1.2h5.1c-.8,1.6-1.7,3.5-2.5,5h1.5s.8.2.8.2ZM80.4,309.7h-3.5v-1.1h3.5v-1.5h1.3v1.5h3.9v2.4h1.2v1.1h-1.2v2.4h-3.9v1.4h4.2v1h-4.2v1.5h4.9v1.1h-4.9v1.8h-1.3v-1.8h-4.5v-1.1h4.5v-1.5h-3.7v-1h3.7v-1.4h-3.6v-1.1h3.6v-1.3h-4.6v-1.1h4.6v-1.3ZM81.7,309.7v1.3h2.7v-1.3h-2.7ZM84.4,312.1h-2.7v1.3h2.7v-1.3Z"/>
        <path d="M77.5,329.2h-6.8v-1.1h6.8v1.1ZM86.1,333.3c-.7,2.2-1.8,3.9-3.2,5.2,1.2.8,2.6,1.4,4.2,1.8-.3.3-.6.8-.8,1.2-1.7-.5-3.2-1.2-4.5-2.1-1.3,1-2.8,1.7-4.5,2.2-.1-.3-.4-.8-.6-1.1h-4.1v.8h-1.2v-6h5.3v5.1c1.4-.4,2.8-1,4-1.8-1.1-1.1-2-2.4-2.7-4l.8-.3h-1.6v-1.3h7.9c0,0,.8.3.8.3ZM76.8,330.4v1.1h-5.3v-1.1h5.3ZM71.5,332.8h5.3v1.1h-5.3v-1.1ZM75.6,336.3h-3v3h3v-3ZM74,327.9c-.3-.6-.8-1.7-1.4-2.4l1-.5c.5.7,1.1,1.7,1.4,2.3l-1.1.6ZM80.3,327.7c0,1.6-.5,3.5-2.6,4.8-.2-.3-.6-.8-.9-1,1.9-1.1,2.2-2.6,2.2-3.9v-2h5.5v4.2c0,.5,0,.7.3.7h1.1c.2,0,.6,0,.8,0,0,.3,0,.8,0,1.2-.2,0-.5,0-.9,0h-1.2c-1.2,0-1.4-.5-1.4-1.9v-2.9h-3v.8ZM79.3,334.2c.6,1.3,1.5,2.5,2.5,3.4,1.1-.9,1.9-2.1,2.5-3.4h-5.1Z"/>
        <path d="M85.8,357.5c0,.9-.2,1.4-.8,1.6-.6.2-1.7.3-3.3.3,0-.4-.3-1.1-.5-1.4,1.2,0,2.5,0,2.8,0,.3,0,.4-.1.4-.5v-12h-12.9v-1.3h14.3v13.3ZM82.4,348.6h-10.8v-1.2h10.8v1.2ZM74.1,356.2v1.3h-1.3v-7h8.4v5.7h-7.1ZM74.1,351.7v3.3h5.8v-3.3h-5.8Z"/>
      </g>
      <g>
        <path d="M106.8,276h-5.1v-1.1h5.1v1.1ZM108.2,285.3c-1.4.9-3.7,1.7-5.5,2.2-.2-.3-.7-.8-1-1,1.8-.4,4-1,5.3-1.7l1.2.5ZM106.3,273.2h-4.3v-1h4.3v1ZM104,277.4h11.6v7.2h-11.6v-7.2ZM105.3,279.5h9v-1.2h-9v1.2ZM105.3,281.6h9v-1.2h-9v1.2ZM105.3,283.7h9v-1.3h-9v1.3ZM109.6,273.3c-.4.7-.9,1.3-1.4,1.8-.2-.2-.7-.5-1-.7.9-.8,1.7-2.1,2.1-3.4l1.2.3c-.1.3-.3.7-.4,1h6.2c0,0,.9.3.9.3-.5.9-1,2-1.5,2.6l-1.1-.4c.3-.4.6-.9.8-1.4h-2.9v.2c0,.2,0,.4,0,.6,1,1.1,2.9,1.8,5.3,2-.3.3-.6.7-.8,1.1-2.1-.3-3.8-1-4.9-2.1-.6.9-2,1.7-5.2,2.2-.1-.3-.5-.8-.7-1,4.7-.6,5.1-1.9,5.1-2.8v-.2h-1.9ZM112.3,284.7c1.9.6,4,1.4,5.3,1.9l-1.2.8c-1.2-.6-3.1-1.4-5-2l.9-.7Z"/>
        <path d="M104.5,296.9c-.7-.5-2-1.4-3-1.9l.8-.9c1,.5,2.3,1.3,3,1.8l-.8,1.1ZM105.6,299.5c-.7,1.9-1.7,4.1-2.6,5.8l-1.2-.7c.8-1.4,1.9-3.7,2.7-5.8l1,.7ZM105.3,292.2c-.7-.5-2-1.4-3-2.1l.8-.9c1,.6,2.3,1.4,3,1.9l-.8,1.1ZM108.1,294.8c0,3.1-.3,7.6-2.4,10.6-.2-.2-.8-.6-1.1-.7,2-2.9,2.2-6.9,2.2-9.9v-4.9h10.9v1.2h-9.6v3.7ZM111,300.7c-.6,1.3-1.5,2.8-2.3,3.7-.3-.2-.8-.5-1.1-.7.8-.9,1.6-2.1,2.1-3.3l1.2.3ZM113.6,299.4v4.7c0,.7-.1,1-.6,1.2-.5.2-1.2.2-2.4.2,0-.3-.2-.8-.4-1.2.9,0,1.7,0,1.9,0,.2,0,.3,0,.3-.3v-4.7h-3.2v-6.2h2.7c.2-.6.4-1.3.5-1.8l1.5.3c-.3.5-.5,1-.7,1.5h3.9v6.2h-3.4ZM110.3,295.8h5.5v-1.6h-5.5v1.6ZM110.3,298.4h5.5v-1.6h-5.5v1.6ZM116,300.2c.7,1.1,1.6,2.6,2.1,3.4l-1.2.5c-.4-.9-1.3-2.4-2-3.5l1.2-.5Z"/>
        <path d="M104.3,309.4c-.6.9-1.2,1.7-1.9,2.3-.2-.2-.6-.7-.9-.9,1.1-1,2.1-2.4,2.8-3.9l1.2.3c-.2.4-.3.7-.5,1.1h4.6v1.1h-3.4c.6.5,1.2,1.2,1.6,1.6l-.9.7c-.4-.5-1.1-1.2-1.7-1.8l.7-.5h-1.5ZM109.8,310.7c.3.4.6.9.7,1.4h6.6v2.9h-1.3v-1.9h-11.9v1.9h-1.3v-2.9h6.6c-.2-.4-.3-.8-.5-1.1l1.2-.3ZM105.9,319.1h10v4.4h-1.3v-.6h-8.7v.6h-1.3v-9.3h10.4v3.6h-9v1.2ZM105.9,315.3v1.5h7.7v-1.5h-7.7ZM105.9,320.1v1.7h8.7v-1.7h-8.7ZM117.8,308.3v1.1h-3.9c.6.5,1.4,1.2,1.9,1.7l-.9.8c-.4-.5-1.2-1.3-1.9-1.8l.8-.6h-2.1c-.4.6-.8,1.1-1.3,1.5-.2-.2-.7-.6-1-.8,1-.8,1.8-1.9,2.2-3.2l1.2.3c-.1.4-.3.8-.5,1.1h5.5Z"/>
        <path d="M107.3,337.8c-1.9.6-4,1.4-5.6,1.9l-.3-1.4c.7-.2,1.5-.5,2.4-.8v-4.8h-2.1v-1.3h2.1v-3.9h-2.2v-1.3h5.6v1.3h-2.1v3.9h1.8v1.3h-1.8v4.4l2-.6.2,1.3ZM118,339.7v1.2h-11.6v-1.2h5.5v-2.5h-4.1v-1.2h4.1v-2.1h-3.9v-8h9.1v8h-3.9v2.1h4.2v1.2h-4.2v2.5h4.8ZM109.3,329.3h2.7v-2.3h-2.7v2.3ZM109.3,332.7h2.7v-2.3h-2.7v2.3ZM115.9,327h-2.8v2.3h2.8v-2.3ZM115.9,330.4h-2.8v2.3h2.8v-2.3Z"/>
        <path d="M116.6,357.5c0,.9-.2,1.4-.8,1.6-.6.2-1.7.3-3.3.3,0-.4-.3-1.1-.5-1.4,1.2,0,2.5,0,2.8,0,.3,0,.4-.1.4-.5v-12h-12.9v-1.3h14.3v13.3ZM113.2,348.6h-10.8v-1.2h10.8v1.2ZM104.9,356.2v1.3h-1.3v-7h8.4v5.7h-7.1ZM104.9,351.7v3.3h5.8v-3.3h-5.8Z"/>
      </g>
      <g>
        <path d="M47.8,282.9c-.2.8-.6,1.6-1.5,2.4.8.4,1.5.7,2.1,1.1l-.9.8c-.6-.4-1.4-.8-2.2-1.2-1.2.6-2.8,1.1-5,1.5-.1-.3-.4-.7-.6-.9,1.9-.3,3.3-.7,4.3-1.2-.9-.4-1.9-.7-2.8-1,.3-.4.6-.8.9-1.2h-2.1c0,.1-.1-.9-.1-.9.8,0,1.8,0,2.9-.1.3-.5.6-1,.8-1.4h-2.9v-2.9h3.4v-.7h-2.9v-1.9h-1.2v-1h1.2v-1.8h2.9v-1.3h1.1v1.3h3.1v1.8h1.2v1h-1.2v1.9h-3.1v.7h3.5v2.9h-3.8c-.2.5-.5.9-.8,1.4.9,0,1.8,0,2.7-.1v-.8h1.1v.7h0c0,0,.9,0,.9,0v.9s-1,0-1,0ZM41.8,279.9h2.3v-1.1h-2.3v1.1ZM42.3,273.2v1h1.7v-1h-1.7ZM44,276.2v-1.1h-1.7v1.1h1.7ZM43.4,283.1c-.2.3-.4.6-.6.8.7.2,1.5.5,2.3.8.9-.6,1.3-1.2,1.5-1.8l-3.2.2ZM45.1,273.2v1h1.9v-1h-1.9ZM47,276.2v-1.1h-1.9v1.1h1.9ZM45.1,278.8v1.1h2.3v-1.1h-2.3ZM54.9,275.7c-.3,2.7-.8,5-1.6,6.9.8,1.6,1.8,2.9,3,3.7-.3.2-.6.6-.8,1-1.2-.8-2.1-2-2.8-3.4-.8,1.5-1.9,2.7-3.3,3.7-.1-.3-.5-.8-.7-1,1.5-1,2.6-2.4,3.4-4.1-.6-1.4-1-3-1.3-4.8-.3.7-.6,1.4-1,2-.2-.2-.6-.6-.9-.8,1.2-1.9,1.9-4.8,2.3-7.8l1.1.2c-.1,1-.3,2.1-.6,3.1h4.4v1.2h-1.2ZM51.4,275.7c.3,1.9.7,3.7,1.2,5.3.5-1.5.8-3.3,1-5.3h-2.3Z"/>
        <path d="M45.4,289.5c-.5,1.3-1.1,2.6-1.8,3.8v12.2h-1.3v-10.1c-.6.8-1.2,1.5-1.8,2.2-.1-.3-.5-1-.8-1.3,1.8-1.7,3.4-4.4,4.4-7.1l1.3.4ZM56.1,303.4v1.3h-11.2v-1.3h6.3c.6-2.4,1.4-6.2,1.7-8.9l1.4.3c-.5,2.8-1.2,6.3-1.9,8.7h3.7ZM55.3,293.6h-9.7v-1.3h9.7v1.3ZM48,302.6c-.1-1.9-.7-5.2-1.2-7.7l1.2-.3c.6,2.5,1.1,5.7,1.3,7.6l-1.3.4ZM50.1,292.1c-.1-.8-.5-2-.8-2.9l1.3-.3c.3.9.7,2.1.9,2.8l-1.3.4Z"/>
        <path d="M48.8,317.7c1.4,1.6,4.3,3.3,7.5,4-.3.3-.6.8-.8,1.2-2.8-.7-5.1-2.2-6.7-3.7v4.3h-1.4v-4.4c-1.8,1.7-4.2,3.1-6.7,3.8-.2-.3-.5-.8-.8-1.1,3-.7,6-2.3,7.6-4.2v-1.5h-4.4v3.5h-1.4v-4.6h5.8v-1.4h-7.1v-1.2h7.1v-1.1h1.4v1.1h6.9v1.2h-6.9v1.4h5.8v3.3c0,.6-.1.9-.6,1.1-.5.2-1.2.2-2.2.2,0-.3-.3-.8-.5-1.1.7,0,1.4,0,1.6,0s.3,0,.3-.3v-2.1h-4.5v1.7ZM42.7,309.4c-.6.9-1.2,1.7-1.9,2.3-.2-.2-.6-.7-.9-.9,1.1-1,2.1-2.4,2.7-3.9l1.2.3c-.1.4-.3.7-.5,1.1h4.6v1.1h-3.4c.6.5,1.3,1.2,1.6,1.6l-.9.8c-.3-.5-1.1-1.3-1.7-1.9l.7-.5h-1.5ZM50.1,309.4c-.4.6-.9,1.2-1.4,1.7-.2-.2-.7-.6-1-.8,1-.8,1.8-2.1,2.2-3.3l1.2.3c-.1.4-.3.7-.5,1.1h5.4v1.1h-3.9c.6.5,1.4,1.2,1.8,1.6l-.9.8c-.4-.5-1.2-1.2-1.9-1.8l.8-.6h-2Z"/>
        <path d="M46.2,338.3h-4.7v1.3h-1.1v-13.2h5.8v11.9ZM41.5,327.6v4.1h1.4v-4.1h-1.4ZM41.5,337.1h1.4v-4.4h-1.4v4.4ZM45.2,327.6h-1.4v4.1h1.4v-4.1ZM45.2,337.1v-4.4h-1.4v4.4h1.4ZM55.8,327.3c-.7,1.8-1.9,3.3-3.2,4.5,1.1.9,2.4,1.6,3.9,2-.2.3-.4.9-.4,1.3-1.6-.6-3.2-1.4-4.4-2.5-1.4,1.1-3.1,1.9-4.7,2.5-.1-.3-.4-1-.6-1.2,1.5-.5,3.1-1.2,4.4-2.2-.7-.7-1.4-1.6-1.8-2.4-.5.7-1.1,1.4-1.7,1.9-.1-.2-.6-.8-.8-1,1.4-1.3,2.7-3.2,3.5-5.2l1.2.3c-.2.5-.5,1.1-.7,1.6h4.6c0,0,.8.4.8.4ZM48.1,334.7h7.1v6.5h-1.2v-.9h-4.7v.9h-1.2v-6.6ZM49.3,336v3.3h4.7v-3.3h-4.7ZM49.6,328.2c.5,1,1.2,2,2,2.8,1-.8,1.8-1.8,2.4-2.9h-4.4Z"/>
        <path d="M54.9,357.5c0,.9-.2,1.4-.8,1.6-.6.2-1.7.3-3.3.3,0-.4-.3-1.1-.5-1.4,1.2,0,2.5,0,2.8,0,.3,0,.4-.1.4-.5v-12h-12.9v-1.3h14.3v13.3ZM51.5,348.6h-10.8v-1.2h10.8v1.2ZM43.2,356.2v1.3h-1.3v-7h8.4v5.7h-7.1ZM43.2,351.7v3.3h5.8v-3.3h-5.8Z"/>
      </g>
      <g>
        <path d="M140.3,282.9c-.2.8-.6,1.6-1.5,2.4.8.4,1.5.7,2.1,1.1l-.9.8c-.6-.4-1.4-.8-2.2-1.2-1.2.6-2.8,1.1-5,1.5-.1-.3-.4-.7-.6-.9,1.9-.3,3.3-.7,4.3-1.2-.9-.4-1.9-.7-2.8-1,.3-.4.6-.8.9-1.2h-2.1c0,.1-.1-.9-.1-.9.8,0,1.8,0,2.9-.1.3-.5.6-1,.8-1.4h-2.9v-2.9h3.4v-.7h-2.9v-1.9h-1.2v-1h1.2v-1.8h2.9v-1.3h1.1v1.3h3.1v1.8h1.2v1h-1.2v1.9h-3.1v.7h3.5v2.9h-3.8c-.2.5-.5.9-.8,1.4.9,0,1.8,0,2.7-.1v-.8h1.1v.7h0c0,0,.9,0,.9,0v.9s-1,0-1,0ZM134.3,279.9h2.3v-1.1h-2.3v1.1ZM134.8,273.2v1h1.7v-1h-1.7ZM136.6,276.2v-1.1h-1.7v1.1h1.7ZM136,283.1c-.2.3-.4.6-.6.8.7.2,1.5.5,2.3.8.9-.6,1.3-1.2,1.5-1.8l-3.2.2ZM137.7,273.2v1h1.9v-1h-1.9ZM139.5,276.2v-1.1h-1.9v1.1h1.9ZM137.7,278.8v1.1h2.3v-1.1h-2.3ZM147.5,275.7c-.3,2.7-.8,5-1.6,6.9.8,1.6,1.8,2.9,3,3.7-.3.2-.6.6-.8,1-1.2-.8-2.1-2-2.8-3.4-.8,1.5-1.9,2.7-3.3,3.7-.1-.3-.5-.8-.7-1,1.5-1,2.6-2.4,3.4-4.1-.6-1.4-1-3-1.3-4.8-.3.7-.6,1.4-1,2-.2-.2-.6-.6-.9-.8,1.2-1.9,1.9-4.8,2.3-7.8l1.1.2c-.1,1-.3,2.1-.6,3.1h4.4v1.2h-1.2ZM144,275.7c.3,1.9.7,3.7,1.2,5.3.5-1.5.8-3.3,1-5.3h-2.3Z"/>
        <path d="M138,289.5c-.5,1.3-1.1,2.6-1.8,3.8v12.2h-1.3v-10.1c-.6.8-1.2,1.5-1.8,2.2-.1-.3-.5-1-.8-1.3,1.8-1.7,3.4-4.4,4.4-7.1l1.3.4ZM148.7,303.4v1.3h-11.2v-1.3h6.3c.6-2.4,1.4-6.2,1.7-8.9l1.4.3c-.5,2.8-1.2,6.3-1.9,8.7h3.7ZM147.9,293.6h-9.7v-1.3h9.7v1.3ZM140.6,302.6c-.1-1.9-.7-5.2-1.2-7.7l1.2-.3c.6,2.5,1.1,5.7,1.3,7.6l-1.3.4ZM142.6,292.1c-.1-.8-.5-2-.8-2.9l1.3-.3c.3.9.7,2.1.9,2.8l-1.3.4Z"/>
        <path d="M147.6,311.6c-.5,3-1.2,5.4-2.4,7.4,1,1.5,2.2,2.6,3.7,3.4-.3.3-.7.8-.9,1.1-1.5-.8-2.7-1.9-3.6-3.3-1,1.4-2.4,2.5-4.1,3.3-.1-.3-.5-.9-.8-1.2,1.8-.8,3.1-2,4.1-3.4-.8-1.5-1.4-3.2-1.9-5.1-.4.7-.8,1.4-1.2,2-.2-.2-.8-.7-1.1-.9h0c0-.1-2-.1-2-.1v4.6l3.1-.7v1.2c-2.8.7-6,1.5-8.2,2l-.3-1.3,1.1-.2v-8h1.2v7.7l1.8-.4v-10h-3.8v-1.3h8.2v1.3h-3.1v3.9h2.4v.6c1.2-1.9,2-4.4,2.5-7.1l1.3.2c-.2,1.1-.5,2.1-.8,3.1h5.6v1.3h-1.2ZM142.6,311.9c.4,2.1,1,4.1,1.8,5.7.9-1.7,1.4-3.7,1.8-6h-3.5v.3Z"/>
        <path d="M135,328.2v5.3c0,2.4-.2,5.9-1.5,8-.3-.3-.8-.6-1.1-.8,1.2-2,1.3-5,1.3-7.3v-6.5h7.2c-.2-.6-.5-1.2-.8-1.8l1.3-.4c.4.7.8,1.5,1,2.1h6.2v1.2h-13.6ZM140,329c-.3,1-.8,2-1.3,3v9.5h-1.3v-7.5c-.4.6-.9,1.2-1.4,1.6-.1-.3-.4-.9-.6-1.2,1.5-1.4,2.7-3.8,3.3-5.8l1.3.4ZM148.6,332.7h-2.1v7.1c0,.8-.2,1.2-.7,1.4-.6.2-1.5.2-2.8.2,0-.4-.3-.9-.4-1.3,1,0,2,0,2.3,0,.3,0,.4,0,.4-.4v-7.1h-5.4v-1.3h5.4v-2.7h1.3v2.7h2.1v1.3ZM141.6,334c.8,1.1,1.7,2.6,2.1,3.5l-1.1.6c-.4-1-1.3-2.5-2-3.6l1.1-.5Z"/>
        <path d="M147.5,357.5c0,.9-.2,1.4-.8,1.6-.6.2-1.7.3-3.3.3,0-.4-.3-1.1-.5-1.4,1.2,0,2.5,0,2.8,0,.3,0,.4-.1.4-.5v-12h-12.9v-1.3h14.3v13.3ZM144.1,348.6h-10.8v-1.2h10.8v1.2ZM135.8,356.2v1.3h-1.3v-7h8.4v5.7h-7.1ZM135.8,351.7v3.3h5.8v-3.3h-5.8Z"/>
      </g>
      <g>
        <path d="M171.2,282.9c-.2.8-.6,1.6-1.5,2.4.8.4,1.5.7,2.1,1.1l-.9.8c-.6-.4-1.4-.8-2.2-1.2-1.2.6-2.8,1.1-5,1.5-.1-.3-.4-.7-.6-.9,1.9-.3,3.3-.7,4.3-1.2-.9-.4-1.9-.7-2.8-1,.3-.4.6-.8.9-1.2h-2.1c0,.1-.1-.9-.1-.9.8,0,1.8,0,2.9-.1.3-.5.6-1,.8-1.4h-2.9v-2.9h3.4v-.7h-2.9v-1.9h-1.2v-1h1.2v-1.8h2.9v-1.3h1.1v1.3h3.1v1.8h1.2v1h-1.2v1.9h-3.1v.7h3.5v2.9h-3.8c-.2.5-.5.9-.8,1.4.9,0,1.8,0,2.7-.1v-.8h1.1v.7h0c0,0,.9,0,.9,0v.9s-1,0-1,0ZM165.2,279.9h2.3v-1.1h-2.3v1.1ZM165.7,273.2v1h1.7v-1h-1.7ZM167.5,276.2v-1.1h-1.7v1.1h1.7ZM166.8,283.1c-.2.3-.4.6-.6.8.7.2,1.5.5,2.3.8.9-.6,1.3-1.2,1.5-1.8l-3.2.2ZM168.5,273.2v1h1.9v-1h-1.9ZM170.4,276.2v-1.1h-1.9v1.1h1.9ZM168.5,278.8v1.1h2.3v-1.1h-2.3ZM178.3,275.7c-.3,2.7-.8,5-1.6,6.9.8,1.6,1.8,2.9,3,3.7-.3.2-.6.6-.8,1-1.2-.8-2.1-2-2.8-3.4-.8,1.5-1.9,2.7-3.3,3.7-.1-.3-.5-.8-.7-1,1.5-1,2.6-2.4,3.4-4.1-.6-1.4-1-3-1.3-4.8-.3.7-.6,1.4-1,2-.2-.2-.6-.6-.9-.8,1.2-1.9,1.9-4.8,2.3-7.8l1.1.2c-.1,1-.3,2.1-.6,3.1h4.4v1.2h-1.2ZM174.9,275.7c.3,1.9.7,3.7,1.2,5.3.5-1.5.8-3.3,1-5.3h-2.3Z"/>
        <path d="M168.9,289.5c-.5,1.3-1.1,2.6-1.8,3.8v12.2h-1.3v-10.1c-.6.8-1.2,1.5-1.8,2.2-.1-.3-.5-1-.8-1.3,1.8-1.7,3.4-4.4,4.4-7.1l1.3.4ZM179.5,303.4v1.3h-11.2v-1.3h6.3c.6-2.4,1.4-6.2,1.7-8.9l1.4.3c-.5,2.8-1.2,6.3-1.9,8.7h3.7ZM178.8,293.6h-9.7v-1.3h9.7v1.3ZM171.5,302.6c-.1-1.9-.7-5.2-1.2-7.7l1.2-.3c.6,2.5,1.1,5.7,1.3,7.6l-1.3.4ZM173.5,292.1c-.1-.8-.5-2-.8-2.9l1.3-.3c.3.9.7,2.1.9,2.8l-1.3.4Z"/>
        <path d="M178.8,307.9v15.6h-1.3v-.8h-12.3v.8h-1.3v-15.6h14.9ZM177.5,321.5v-12.4h-12.3v12.4h12.3ZM171.5,318.8c-1.9.4-3.8.7-5.3,1l-.2-1c1.4-.2,3.4-.6,5.4-.9v.9ZM175.9,313.5c-.5,1.7-1.1,3.1-2,4.4.4,1,.8,1.6,1.4,1.7.2,0,.4-.7.5-1.8.2.2.6.5.9.6-.2,1.9-.8,2.6-1.8,2.3-.8-.2-1.4-.8-1.8-1.8-.7.8-1.5,1.5-2.4,2.1-.2-.2-.6-.6-.8-.9,1.1-.6,2-1.4,2.8-2.4-.5-1.4-.8-3.3-1-5.3h-5.5v-1h5.4c0-.6-.1-1.3-.1-1.9h1.2c0,.6,0,1.3.1,1.9h3.9v1h-3.8c.2,1.5.4,2.9.7,4.1.6-1,1-2.1,1.3-3.3l1.1.2ZM170.8,313.6v3.5h-4v-3.5h4ZM169.8,314.4h-2.1v1.9h2.1v-1.9ZM175.5,311.3c-.4-.4-1.2-1-1.9-1.3l.6-.7c.7.3,1.5.8,1.9,1.2l-.6.8Z"/>
        <path d="M168.9,326.2c-.5,1.5-1.2,3.2-1.7,4.7,1.3,1.5,1.6,2.8,1.6,3.9s-.2,1.7-.7,2.1c-.3.2-.6.3-.9.3-.4,0-.8,0-1.2,0,0-.3-.1-.8-.3-1.1.4,0,.7,0,1,0,.2,0,.4,0,.5-.2.3-.2.4-.7.4-1.2,0-1-.3-2.2-1.5-3.7.5-1.3,1-2.8,1.4-4.1h-2.3v14.5h-1.2v-15.7h4.2c0,0,.8.4.8.4ZM171.1,331.1c.3-.3.5-.7.7-1-.4-.5-1-1-1.6-1.4-.4.6-.8,1.1-1.3,1.5-.2-.2-.6-.5-.9-.7,1.2-1.1,2.2-2.7,2.8-4.4l1,.2c-.1.4-.3.8-.4,1.1h2.1s.7.2.7.2c-.5,2.3-1.5,4.2-2.6,5.6h5.2c-1.1-1.4-2-3.3-2.5-5.2l.8-.2v-.8h3.6c0,0,.8.4.8.4-.5,1.5-1.5,3-2.4,4.1.8,1.2,1.7,2.2,2.7,2.8-.3.2-.6.6-.8.9-.7-.5-1.4-1.2-2-1.9v1h-5.6v-.8c-.6.6-1.2,1.2-1.9,1.6-.2-.3-.5-.6-.7-.8.8-.5,1.7-1.3,2.4-2.2-.9.2-1.7.3-2.6.4l-.2-.9c.8,0,1.7-.2,2.8-.3v.8ZM172.1,337.4c-.7,1.1-1.7,2.5-2.5,3.3-.3-.2-.8-.5-1.1-.7.8-.8,1.8-2,2.4-3l1.2.4ZM174.8,336.1v5.4h-1.3v-5.4h-3.9v-1.1h9.1v1.1h-3.9ZM171,327.4c0,.2-.2.3-.3.5.5.4,1.1.9,1.6,1.3.3-.6.5-1.2.7-1.8h-2ZM175.4,327c.3.9.6,1.7,1.1,2.6.6-.7,1.1-1.7,1.5-2.6h-2.5ZM177.1,336.9c.9,1,2.1,2.3,2.6,3l-1,.7c-.6-.8-1.7-2.2-2.6-3.2l1-.6Z"/>
        <path d="M178.3,357.5c0,.9-.2,1.4-.8,1.6-.6.2-1.7.3-3.3.3,0-.4-.3-1.1-.5-1.4,1.2,0,2.5,0,2.8,0,.3,0,.4-.1.4-.5v-12h-12.9v-1.3h14.3v13.3ZM174.9,348.6h-10.8v-1.2h10.8v1.2ZM166.6,356.2v1.3h-1.3v-7h8.4v5.7h-7.1ZM166.6,351.7v3.3h5.8v-3.3h-5.8Z"/>
      </g>
      <g>
        <path d="M199.4,276h-5.1v-1.1h5.1v1.1ZM200.8,285.3c-1.4.9-3.7,1.7-5.5,2.2-.2-.3-.7-.8-1-1,1.8-.4,4-1,5.3-1.7l1.2.5ZM198.9,273.2h-4.3v-1h4.3v1ZM196.6,277.4h11.6v7.2h-11.6v-7.2ZM197.9,279.5h9v-1.2h-9v1.2ZM197.9,281.6h9v-1.2h-9v1.2ZM197.9,283.7h9v-1.3h-9v1.3ZM202.2,273.3c-.4.7-.9,1.3-1.4,1.8-.2-.2-.7-.5-1-.7.9-.8,1.7-2.1,2.1-3.4l1.2.3c-.1.3-.3.7-.4,1h6.2c0,0,.9.3.9.3-.5.9-1,2-1.5,2.6l-1.1-.4c.3-.4.6-.9.8-1.4h-2.9v.2c0,.2,0,.4,0,.6,1,1.1,2.9,1.8,5.3,2-.3.3-.6.7-.8,1.1-2.1-.3-3.8-1-4.9-2.1-.6.9-2,1.7-5.2,2.2-.1-.3-.5-.8-.7-1,4.7-.6,5.1-1.9,5.1-2.8v-.2h-1.9ZM204.9,284.7c1.9.6,4,1.4,5.3,1.9l-1.2.8c-1.2-.6-3.1-1.4-5-2l.9-.7Z"/>
        <path d="M196.7,297.7c-.4,2-1.1,4.5-2.1,5.8-.1-.4-.4-1.1-.7-1.5.8-1,1.5-3,1.8-4.6l1,.3ZM198.3,296.3v9.2h-1.2v-9.2h-2.9v-1.3h2.9v-6h1.2v6h2.9v1.3h-2.9ZM195.3,294.4c-.1-1.1-.5-2.7-1-4l1-.2c.5,1.2.9,2.9,1.1,3.9l-1,.3ZM199.1,297.4c.3.5,1.6,3,1.9,3.6l-1,1c-.3-1-1.3-3.3-1.7-4.1l.7-.5ZM201.2,290.4c-.4,1.4-1,3-1.5,4l-.9-.3c.4-1.1.9-2.8,1.2-4l1.2.3ZM208.3,300.4v5.1h-1.3v-4.8l-5.6,1-.2-1.3,5.8-1v-10.3h1.3v10.1l2.1-.4.2,1.2-2.3.4ZM204.6,297.9c-.6-.6-1.9-1.6-3-2.2l.6-.9c1.1.6,2.4,1.4,3,2l-.7,1.1ZM205.4,293.5c-.6-.7-1.8-1.7-2.8-2.3l.7-.9c1,.6,2.3,1.5,2.8,2.2l-.7,1Z"/>
        <path d="M196.6,317.8c-.2,1.7-.7,3.5-1.6,4.9-.3-.2-.8-.5-1.1-.6,1.4-2.1,1.6-5.1,1.6-7.1v-2.4h7.3v5.3h-6.2ZM200.2,307.6c0,.1-.2.3-.3.4,1.4.8,3.1,1.9,4,2.6l-.7,1.1c-.9-.7-2.5-1.9-4-2.8-1.2,1.5-2.9,2.8-4.5,3.7-.1-.3-.5-.9-.7-1.2,2-1,4-2.5,5.1-4.3l1.2.5ZM196.6,318.7h6.7v4.7h-1.2v-.7h-4.3v.7h-1.2v-4.7ZM201.6,316.8v-1.2h-4.8c0,.4,0,.8,0,1.2h4.9ZM196.8,313.6v1.2h4.8v-1.2h-4.8ZM201.3,310.8v.9h-3.8v-.9h3.8ZM197.8,319.7v1.9h4.3v-1.9h-4.3ZM206.2,318.9h-1.3v-9.9h1.3v9.9ZM209.6,307.1v14.6c0,.8-.2,1.3-.7,1.5-.5.2-1.4.3-2.9.3,0-.4-.3-1-.5-1.3,1.1,0,2.1,0,2.3,0,.3,0,.4-.1.4-.4v-14.6h1.3Z"/>
        <path d="M196.9,336.4c-.4,1.3-1.2,2.7-1.9,3.6-.2-.2-.7-.5-.9-.6.7-.8,1.3-2.1,1.7-3.2l1.1.3ZM199.1,335.2v6.2h-1.3v-6.2h-3.6v-1.2h3.6v-1.9h-3.7v-1.1h5c.3-.8.8-2,1-2.8l1.2.3c-.3.9-.7,1.8-1,2.6h2.3v1.1h-3.5v1.9h3.3v1.2h-3.3ZM202.3,328h-7.9v-1.1h3.5c-.2-.5-.5-1.2-.8-1.6l1.3-.3c.4.6.8,1.4,1,2h2.8v1.1ZM196.3,330.9c0-.7-.4-1.7-.7-2.5l1.1-.3c.4.8.7,1.8.7,2.4l-1.1.3ZM200.9,336c.6.9,1.2,2.1,1.5,2.8l-1,.5c-.3-.8-.9-2-1.5-2.9l.9-.5ZM210.5,332.3h-2v9.1h-1.3v-9.1h-2.5v.6c0,2.6-.2,6.1-1.9,8.4-.2-.3-.7-.7-1-.8,1.5-2.2,1.7-5.2,1.7-7.6v-6.2c2-.3,4.3-.9,5.6-1.4l1.1,1c-1.5.6-3.5,1-5.4,1.3v3.4h5.7v1.3Z"/>
        <path d="M209.2,357.5c0,.9-.2,1.4-.8,1.6-.6.2-1.7.3-3.3.3,0-.4-.3-1.1-.5-1.4,1.2,0,2.5,0,2.8,0,.3,0,.4-.1.4-.5v-12h-12.9v-1.3h14.3v13.3ZM205.8,348.6h-10.8v-1.2h10.8v1.2ZM197.5,356.2v1.3h-1.3v-7h8.4v5.7h-7.1ZM197.5,351.7v3.3h5.8v-3.3h-5.8Z"/>
      </g>
    </g>
    <g>
      <line class="st1" x1="332.4" y1="167.6" x2="304.9" y2="167.6"/>
      <line class="st1" x1="305.2" y1="42.2" x2="305.4" y2="402.6"/>
      <path class="st1" d="M227.4,113.6l.7-22.6c.1-4.3,4.3-7.8,9.3-7.8h133.9c5.2,0,9.3,3.6,9.3,8v22.4"/>
      <rect class="st9" x="172.1" y="97.4" width="110" height="31.7" rx="5" ry="5"/>
      <rect class="st7" x="325.5" y="151.6" width="110" height="32" rx="5" ry="5" transform="translate(761.1 335.2) rotate(-180)"/>
      <rect class="st9" x="325.5" y="97.4" width="110" height="31.7" rx="5" ry="5"/>
      <g>
        <path class="st4" d="M204.4,109.6c-.5,3-1.2,5.4-2.4,7.4,1,1.5,2.2,2.6,3.7,3.4-.3.3-.7.8-.9,1.1-1.5-.8-2.7-1.9-3.6-3.3-1,1.4-2.4,2.5-4.1,3.3-.1-.3-.5-.9-.8-1.2,1.8-.8,3.1-2,4.1-3.4-.8-1.5-1.4-3.2-1.9-5.1-.4.7-.8,1.4-1.2,2-.2-.2-.8-.7-1.1-.9h0c0-.1-2-.1-2-.1v4.6l3.1-.7v1.2c-2.8.7-6,1.5-8.2,2l-.3-1.3,1.1-.2v-8h1.2v7.7l1.8-.4v-10h-3.8v-1.3h8.2v1.3h-3.1v3.9h2.4v.6c1.2-1.9,2-4.4,2.5-7.1l1.3.2c-.2,1.1-.5,2.1-.8,3.1h5.6v1.3h-1.2ZM199.5,109.9c.4,2.1,1,4.1,1.8,5.7.9-1.7,1.4-3.7,1.8-6h-3.5v.3Z"/>
        <path class="st4" d="M223.8,108c-.5,1.2-1.2,2.2-2.1,3.1,1.2.7,2.5,1.3,3.9,1.6-.3.3-.7.8-.9,1.1-1.5-.4-2.9-1.1-4.1-1.9-1.2.8-2.5,1.4-4,1.9,0-.2-.3-.5-.5-.7-.3,1.1-.7,2.1-1.1,2.8l-.9-.5c.4-.8.7-1.9,1-2.9h-1.7v7.4c0,.7-.1,1-.6,1.2-.5.2-1.2.2-2.3.2,0-.3-.2-.9-.4-1.2.8,0,1.5,0,1.7,0,.2,0,.3,0,.3-.3v-5.7c-.7,1.7-1.6,3.3-2.6,4.4-.1-.4-.5-.9-.7-1.3,1.1-1.1,2.2-3,2.9-4.8h-2.7v-1.2h4.8c-1-.8-2.6-1.8-4-2.4l.8-.9c.6.3,1.2.5,1.8.9.7-.5,1.4-1.2,1.9-1.8h-5.1v-1.2h6.3c0,0,.9.5.9.5-.7,1.1-1.9,2.2-2.9,3.1.6.4,1.1.7,1.5,1.1l-.6.7h1.4c0,0,.8.3.8.3,0,.3-.2.6-.3,1,1.2-.4,2.3-.8,3.3-1.4-.7-.6-1.4-1.4-1.9-2.2-.5.5-1,1-1.4,1.4-.2-.2-.7-.7-1-.9,1.4-1.1,2.8-2.7,3.5-4.4l1.3.3c-.2.5-.5,1-.8,1.5h6v1.1h-1.4ZM223.5,115h1.4s0,.4,0,.6c-.3,3.3-.7,4.7-1.2,5.2s-.7.4-1.2.5c-.4,0-1.2,0-2,0,0-.3-.1-.8-.4-1.2.8,0,1.5,0,1.9,0s.5,0,.6-.2c.4-.3.6-1.4.9-3.9h-3c-.6,2.3-1.9,4.2-4.8,5.4-.2-.3-.6-.8-.8-1.1,2.5-.9,3.7-2.4,4.2-4.3h-2.8v-1.1h3.1c.1-.6.2-1.2.2-1.8h1.4c0,.6-.1,1.2-.2,1.8h2.8ZM218.6,108c.5.9,1.2,1.7,2,2.3.7-.6,1.3-1.4,1.7-2.3h-3.8Z"/>
        <path class="st4" d="M234.6,116.5h-5.7v-1.3h5.7v1.3ZM234.1,109.1h-4.7v-1.3h4.7v1.3ZM239.4,111.5c0,.3,0,.5,0,.8.8,3.8,2.6,6.7,5.9,7.8-.3.3-.7.8-.9,1.2-2.7-1.1-4.4-3.2-5.4-6.1-.6,2.2-2.1,4.5-5.5,6.3-.2-.3-.7-.8-1-1,5.2-2.6,5.6-6.4,5.6-8.9v-1.4h1.4v1.4ZM236.5,109.4c-.6,1.5-1.2,2.8-1.9,3.8-.3-.2-1-.6-1.3-.8,1.4-1.7,2.4-4.6,2.9-7.4l1.4.3c-.2,1-.4,1.9-.7,2.8h6.8c0,0,1,.5,1,.5-.5,1.7-1.3,3.6-1.9,4.9-.3-.2-.8-.4-1.1-.6.4-.8,1-2.2,1.3-3.4h-6.5Z"/>
        <path class="st4" d="M264,115.7c-1.1.8-2.6,1.7-3.9,2.4,1.4,1,3.1,1.7,5.1,2.1-.3.3-.6.8-.8,1.2-4.1-.9-6.9-3.1-8.5-6.5h-2.9v4.8l4.9-1.2c0,.3,0,.9,0,1.2-5,1.3-5.9,1.5-6.3,1.7h0c-.1-.3-.4-.9-.6-1.3.4-.2.9-.6.9-1.3v-4h-2.9v-1.2h3.2v-7.9h11.1v1.1h-9.7v1.5h9.2v1.1h-9.2v1.5h9.2v1.1h-9.2v1.5h11.5v1.2h-7.5c.5,1,1.1,1.8,1.9,2.5,1.3-.7,2.8-1.6,3.7-2.4l1.1.7Z"/>
      </g>
      <g>
        <path class="st4" d="M358.8,173.9v1.3h-15.9v-1.3h7.2v-4.4h-5.5v-1.3h5.5v-3.9h-6.4v-1.3h7.9c-.7-.8-2-2-3.1-2.8l1.1-.8c1.2.8,2.6,2.1,3.3,2.9l-.8.6h5.8v1.3h-6.4v3.9h5.7v1.3h-5.7v4.4h7.3Z"/>
        <path class="st4" d="M368.3,159.9c-.5,1.3-1.2,2.6-1.9,3.8v12.1h-1.3v-10.1c-.7.9-1.4,1.7-2.1,2.4-.1-.3-.6-1-.8-1.3,1.9-1.7,3.8-4.5,4.9-7.3l1.3.4ZM373.9,168.4v5.5h4.6v1.3h-10.6v-1.3h4.6v-5.5h-5.2v-1.3h5.2v-4.7h-4v-1.3h9.6v1.3h-4.3v4.7h5v1.3h-5Z"/>
        <path class="st4" d="M387.4,170.2c-.2-.5-.8-1.5-1.2-2.4v8h-1.3v-7.5c-.6,1.7-1.4,3.3-2.2,4.3-.1-.4-.5-1-.7-1.3,1-1.3,2.1-3.6,2.7-5.7h-2.3v-1.3h2.5v-2.9c-.6.1-1.3.3-1.9.4,0-.3-.3-.8-.4-1.1,1.7-.3,3.6-.8,4.8-1.4l.8,1.1c-.6.3-1.3.5-2.1.7v3.2h2.1v1.3h-2.1v.4c.5.6,1.8,2.5,2.1,3l-.8,1.1ZM397.5,171.3c-.2-1.5-.9-3.7-1.7-5.3-.9,2.2-2,4.2-3.3,5.9v1.8c0,.7.1.8.8.8h2.1c.6,0,.7-.5.8-2.7.3.3.8.5,1.2.5-.1,2.6-.5,3.3-1.8,3.3h-2.4c-1.5,0-1.9-.4-1.9-2v-.2c-.7.8-1.5,1.5-2.3,2.1-.2-.3-.8-.7-1.1-.9,1.3-.9,2.4-2,3.4-3.2v-8.2h1.3v6.4c1.7-2.6,2.9-5.7,3.9-9.2l1.3.3c-.5,1.8-1.1,3.6-1.8,5.2l1.1-.3c.8,1.7,1.5,3.9,1.7,5.3l-1.2.4ZM387.8,170.6c.7-1.4,1.1-3.7,1.3-5.5l1,.2c-.2,1.8-.6,4.3-1.3,5.7l-1-.4ZM394.2,163c-.7-.8-2.2-1.9-3.4-2.7l.8-.9c1.2.7,2.7,1.8,3.5,2.6l-.8,1Z"/>
        <path class="st4" d="M418.2,168.4v1h-15.9v-1h7.2v-1.1h-6v-.9h6v-.9h-5.5v-.9h5.5v-1.1h-7.2v-1h7.2v-1h-5.3v-.9h5.3v-1.3h1.3v1.3h5.1v1.9h2.1v1h-2.1v2h-5.1v.9h6.1v.9h-6.1v1.1h7.4ZM404.6,170.3h11.5v5.6h-1.3v-.6h-8.9v.6h-1.3v-5.6ZM405.8,171.2v1.1h8.9v-1.1h-8.9ZM414.7,174.3v-1.1h-8.9v1.1h8.9ZM410.8,162.5h3.8v-1h-3.8v1ZM410.8,164.6h3.8v-1.1h-3.8v1.1Z"/>
      </g>
      <g>
        <path class="st4" d="M357.8,111.6h-1.3v-2.7h-12.3v2.7h-1.3v-3.9h2.9c-.3-.6-.9-1.5-1.4-2.1l1.2-.5c.6.6,1.2,1.5,1.5,2.1l-1.1.5h3.8v-2.8h1.4v2.8h6.7v3.9ZM356.7,119.2c0,.7-.1,1.1-.7,1.3-.6.2-1.5.2-2.8.2,0-.4-.3-.9-.5-1.2,1.1,0,2,0,2.3,0,.3,0,.4,0,.4-.3v-2.5h-4.2v4.7h-1.4v-4.7h-4.4v3.9h-1.3v-5.1h5.8v-1.5h-4.2v-3.8h9.4v3.8h-3.9v1.5h5.5v3.8ZM347,113h6.8v-1.8h-6.8v1.8ZM356.4,105.6c-.6.8-1.3,1.6-1.8,2.2l-1.1-.5c.5-.6,1.2-1.5,1.5-2.2l1.4.5Z"/>
        <path class="st4" d="M376.8,108c-.5,1.2-1.2,2.2-2.1,3.1,1.2.7,2.5,1.3,3.9,1.6-.3.3-.7.8-.9,1.1-1.5-.4-2.9-1.1-4.1-1.9-1.2.8-2.5,1.4-4,1.9,0-.2-.3-.5-.5-.7-.3,1.1-.7,2.1-1.1,2.8l-.9-.5c.4-.8.7-1.9,1-2.9h-1.7v7.4c0,.7-.1,1-.6,1.2-.5.2-1.2.2-2.2.2,0-.3-.2-.9-.4-1.2.8,0,1.5,0,1.7,0,.2,0,.3,0,.3-.3v-5.7c-.7,1.7-1.6,3.3-2.6,4.4-.1-.4-.5-.9-.7-1.3,1.1-1.1,2.2-3,2.9-4.8h-2.7v-1.2h4.8c-1-.8-2.6-1.8-4-2.4l.8-.9c.6.3,1.2.5,1.8.9.7-.5,1.4-1.2,1.9-1.8h-5.1v-1.2h6.3c0,0,.9.5.9.5-.7,1.1-1.9,2.2-2.9,3.1.6.4,1.1.7,1.5,1.1l-.6.7h1.4c0,0,.8.3.8.3,0,.3-.2.6-.3,1,1.2-.4,2.3-.8,3.3-1.4-.7-.6-1.4-1.4-1.9-2.2-.5.5-1,1-1.4,1.4-.2-.2-.7-.7-1-.9,1.4-1.1,2.8-2.7,3.5-4.4l1.3.3c-.2.5-.5,1-.8,1.5h6v1.1h-1.4ZM376.4,115h1.4s0,.4,0,.6c-.3,3.3-.7,4.7-1.2,5.2s-.7.4-1.2.5c-.4,0-1.2,0-2,0,0-.3-.1-.8-.4-1.2.8,0,1.5,0,1.9,0s.5,0,.6-.2c.4-.3.6-1.4.9-3.9h-3c-.6,2.3-1.9,4.2-4.8,5.4-.2-.3-.6-.8-.8-1.1,2.5-.9,3.7-2.4,4.2-4.3h-2.8v-1.1h3.1c.1-.6.2-1.2.2-1.8h1.4c0,.6-.1,1.2-.2,1.8h2.8ZM371.5,108c.5.9,1.2,1.7,2,2.3.7-.6,1.3-1.4,1.7-2.3h-3.8Z"/>
        <path class="st4" d="M387.5,116.5h-5.7v-1.3h5.7v1.3ZM387,109.1h-4.7v-1.3h4.7v1.3ZM392.3,111.5c0,.3,0,.5,0,.8.8,3.8,2.6,6.7,5.9,7.8-.3.3-.7.8-.9,1.2-2.7-1.1-4.4-3.2-5.4-6.1-.6,2.2-2.1,4.5-5.5,6.3-.2-.3-.7-.8-1-1,5.2-2.6,5.6-6.4,5.6-8.9v-1.4h1.4v1.4ZM389.4,109.4c-.6,1.5-1.2,2.8-1.9,3.8-.3-.2-1-.6-1.3-.8,1.4-1.7,2.4-4.6,2.9-7.4l1.4.3c-.2,1-.4,1.9-.7,2.8h6.8c0,0,1,.5,1,.5-.5,1.7-1.3,3.6-1.9,4.9-.3-.2-.8-.4-1.1-.6.4-.8,1-2.2,1.3-3.4h-6.5Z"/>
        <path class="st4" d="M416.9,115.7c-1.1.8-2.6,1.7-3.9,2.4,1.4,1,3.1,1.7,5.1,2.1-.3.3-.6.8-.8,1.2-4.1-.9-6.9-3.1-8.5-6.5h-2.9v4.8l4.9-1.2c0,.3,0,.9,0,1.2-5,1.3-5.9,1.5-6.3,1.7h0c-.1-.3-.4-.9-.6-1.3.4-.2.9-.6.9-1.3v-4h-2.9v-1.2h3.2v-7.9h11.1v1.1h-9.7v1.5h9.2v1.1h-9.2v1.5h9.2v1.1h-9.2v1.5h11.5v1.2h-7.5c.5,1,1.1,1.8,1.9,2.5,1.3-.7,2.8-1.6,3.7-2.4l1.1.7Z"/>
      </g>
      <rect class="st6" x="255.9" y="25.8" width="97.7" height="32" rx="5" ry="5"/>
      <g>
        <path class="st4" d="M285.3,36.4c-.4,1-.9,2.3-1.4,3.2h2.6v1.2h-9.4v-1.2h5.5c.5-1,1-2.5,1.3-3.5l1.3.3ZM286.1,36h-8.4v-1.2h3.7c-.2-.6-.5-1.3-.7-1.9l1.2-.3c.4.7.7,1.6,1,2.2h3.3v1.2ZM278.2,42.5h7.5v6.4h-1.3v-.7h-4.9v.9h-1.3v-6.5ZM279.9,39.5c-.2-.8-.6-2.1-1.1-3.1l1.2-.3c.5.9,1,2.2,1.2,3l-1.2.3ZM279.5,43.7v3.3h4.9v-3.3h-4.9ZM293.2,34.2c-.6,1.6-1.5,3.7-2.2,5.3,1.6,1.7,2,3.1,2,4.3s-.2,1.9-.8,2.3c-.3.2-.7.3-1.1.4-.5,0-1,0-1.5,0,0-.4-.1-.9-.4-1.3.5,0,1,0,1.4,0,.3,0,.5,0,.7-.2.4-.2.5-.8.5-1.4,0-1.1-.5-2.4-2.1-4.1.7-1.5,1.4-3.4,1.9-4.8h-2.9v14.2h-1.2v-15.4h4.8c0,0,.9.5.9.5Z"/>
        <path class="st4" d="M332,43.4c-1.1.8-2.6,1.7-3.9,2.4,1.4,1,3.1,1.7,5.1,2.1-.3.3-.6.8-.8,1.2-4.1-.9-6.9-3.1-8.5-6.5h-2.9v4.8l4.9-1.2c0,.3,0,.9,0,1.2-5,1.3-5.9,1.5-6.3,1.7h0c-.1-.3-.4-.9-.6-1.3.4-.2.9-.6.9-1.3v-4h-2.9v-1.2h3.2v-7.9h11.1v1.1h-9.7v1.5h9.2v1.1h-9.2v1.5h9.2v1.1h-9.2v1.5h11.5v1.2h-7.5c.5,1,1.1,1.8,1.9,2.5,1.3-.7,2.8-1.6,3.7-2.4l1.1.7Z"/>
      </g>
    </g>
    <g>
      <path class="st4" d="M93.9,249.2c-1.3,1-3.7,1.9-5.5,2.3-.2-.3-.5-.8-.8-1,1.9-.3,4.1-1,5.3-1.8l1,.5ZM103.3,246.7v1.1h-7.2v4.3h-1.3v-4.3h-7.1v-1.1h7.1v-1.4h-5.4v-1h5.4v-1.3h-6.3v-1.1h3.9c-.2-.5-.5-1.2-.9-1.7l1-.3h-4.6v-1.1h2.9c-.3-.7-.9-1.8-1.4-2.6l1.1-.4c.6.8,1.3,1.9,1.5,2.6l-.9.4h2.2v-3.2h1.3v3.2h2.1v-3.2h1.3v3.2h2.2l-.7-.2c.5-.7,1.1-1.9,1.4-2.7l1.4.4c-.5.9-1.1,1.9-1.6,2.6h2.8v1.1h-4.7l1.2.3c-.4.6-.8,1.2-1.2,1.7h4.1v1.1h-6.5v1.3h5.6v1h-5.6v1.4h7.2ZM92.7,240c.4.6.8,1.3,1,1.8l-.7.2h5l-.6-.2c.4-.5.8-1.3,1.1-1.8h-5.6ZM98,248.7c1.7.6,4,1.4,5.2,2l-.8.8c-1.2-.6-3.5-1.5-5.2-2.1l.8-.7Z"/>
      <path class="st4" d="M121.9,238.7c-.5,1.2-1.2,2.3-2.1,3.1,1.2.7,2.5,1.3,3.9,1.6-.3.3-.7.8-.9,1.1-1.5-.4-2.9-1.1-4.1-1.9-1.2.8-2.5,1.4-4,1.9,0-.2-.3-.5-.5-.7-.3,1.1-.7,2.1-1.1,2.8l-.9-.5c.4-.8.7-1.9,1-2.9h-1.7v7.4c0,.7-.1,1-.6,1.2-.5.2-1.2.2-2.3.2,0-.3-.2-.9-.4-1.2.8,0,1.5,0,1.7,0,.2,0,.3,0,.3-.3v-5.7c-.7,1.7-1.6,3.3-2.6,4.4-.1-.4-.5-.9-.7-1.3,1.1-1.1,2.2-3,2.9-4.8h-2.7v-1.2h4.8c-1-.8-2.6-1.8-4-2.4l.8-.9c.6.3,1.2.5,1.8.9.7-.5,1.4-1.2,1.9-1.8h-5.1v-1.2h6.3c0,0,.9.5.9.5-.7,1.1-1.9,2.2-2.9,3.1.6.4,1.1.7,1.5,1.1l-.6.7h1.4c0,0,.8.3.8.3,0,.3-.2.6-.3,1,1.2-.4,2.3-.8,3.3-1.4-.7-.6-1.4-1.4-1.9-2.2-.5.5-1,1-1.4,1.4-.2-.2-.7-.7-1-.9,1.4-1.1,2.8-2.7,3.5-4.4l1.3.3c-.2.5-.5,1-.8,1.5h6v1.1h-1.4ZM121.5,245.7h1.4s0,.4,0,.6c-.3,3.3-.7,4.7-1.2,5.2s-.7.4-1.2.5c-.4,0-1.2,0-2,0,0-.3-.1-.8-.4-1.2.8,0,1.5,0,1.9,0s.5,0,.6-.2c.4-.3.6-1.4.9-3.9h-3c-.6,2.3-1.9,4.2-4.8,5.4-.2-.3-.6-.8-.8-1.1,2.5-.9,3.7-2.4,4.2-4.3h-2.8v-1.1h3.1c.1-.6.2-1.2.2-1.8h1.4c0,.6-.1,1.2-.2,1.8h2.8ZM116.7,238.7c.5.9,1.2,1.7,2,2.3.7-.6,1.3-1.4,1.7-2.3h-3.8Z"/>
      <path class="st4" d="M143,249.6h-7.3v2.5h-1.4v-2.5h-7.1v-1.2h7.1v-1.4h-5.4v-6.3h12.4v6.3h-5.7v1.4h7.3v1.2ZM134.4,239.9h-5.9v-3.5h5.9v3.5ZM133.1,237.3h-3.5v1.7h3.5v-1.7ZM130.2,243.4h4.1v-1.5h-4.1v1.5ZM134.3,246v-1.6h-4.1v1.6h4.1ZM139.9,241.9h-4.3v1.5h4.3v-1.5ZM139.9,244.4h-4.3v1.6h4.3v-1.6ZM141.8,239.9h-6v-3.5h6v3.5ZM140.5,237.3h-3.5v1.7h3.5v-1.7Z"/>
      <path class="st4" d="M152.3,236.1c-.5,1.3-1.1,2.6-1.8,3.8v12.2h-1.3v-10.1c-.6.8-1.2,1.5-1.8,2.2-.1-.3-.5-1-.8-1.3,1.8-1.7,3.4-4.4,4.4-7.1l1.3.4ZM162.9,250.1v1.3h-11.2v-1.3h6.3c.6-2.4,1.4-6.2,1.7-8.9l1.4.3c-.5,2.8-1.2,6.3-1.9,8.7h3.7ZM162.2,240.2h-9.7v-1.3h9.7v1.3ZM154.9,249.3c-.1-1.9-.7-5.2-1.2-7.7l1.2-.3c.6,2.5,1.1,5.7,1.3,7.6l-1.3.4ZM156.9,238.7c-.1-.8-.5-2-.8-2.9l1.3-.3c.3.9.7,2.1.9,2.8l-1.3.4Z"/>
    </g>
    <g>
      <path class="st4" d="M273,425.4h-5.7v-1.3h5.7v1.3ZM272.5,418h-4.7v-1.3h4.7v1.3ZM277.8,420.4c0,.3,0,.5,0,.8.8,3.8,2.6,6.7,5.9,7.8-.3.3-.7.8-.9,1.2-2.7-1.1-4.4-3.2-5.4-6.1-.6,2.2-2.1,4.5-5.5,6.3-.2-.3-.7-.8-1-1,5.2-2.6,5.6-6.4,5.6-8.9v-1.4h1.4v1.4ZM274.9,418.3c-.6,1.5-1.2,2.8-1.9,3.8-.3-.2-1-.6-1.3-.8,1.4-1.7,2.4-4.6,2.9-7.4l1.4.3c-.2,1-.4,1.9-.7,2.8h6.8c0,0,1,.5,1,.5-.5,1.7-1.3,3.6-1.9,4.9-.3-.2-.8-.4-1.1-.6.4-.8,1-2.2,1.3-3.4h-6.5Z"/>
      <path class="st4" d="M293.1,424.6c0-.3-.1-.6-.3-1-4.2.6-4.7.8-5.1,1,0-.3-.3-.9-.4-1.3.4,0,.8-.5,1.3-1.2.3-.3.9-1.1,1.5-2-1.9.2-2.3.3-2.5.4,0-.3-.3-.9-.4-1.2.3,0,.6-.5,1-1,.4-.5,1.6-2.6,2.4-4.5l1.3.5c-.8,1.7-1.8,3.4-2.8,4.8l1.9-.2c.5-.8,1-1.6,1.4-2.4l1.2.7c-1.2,2.1-2.6,4.1-4.1,5.8l3.1-.5c-.2-.6-.4-1.1-.7-1.6l1-.3c.6,1.2,1.2,2.7,1.3,3.7l-1,.4ZM289.1,425.6c-.2,1.5-.5,3.2-.9,4.3-.2-.1-.8-.3-1-.4.4-1.1.7-2.7.9-4.1l1.1.2ZM291,425.3c.2,1.1.4,2.6.5,3.6l-1,.2c0-1-.2-2.5-.4-3.6l1-.2ZM292.9,424.9c.4.9.8,2.1.9,2.9l-1,.3c-.1-.8-.5-2-.9-3l1-.3ZM302.9,420.1c-.5,2.6-1.4,4.8-2.6,6.5.9,1.1,1.9,2,3.2,2.5-.3.3-.7.8-.9,1.1-1.2-.6-2.2-1.5-3.1-2.6-.9,1.1-2,2-3.2,2.7-.2-.3-.5-.8-.8-1,1.2-.6,2.3-1.6,3.3-2.8-.9-1.5-1.5-3.2-2-5.1-.3,3.6-1,6.5-2.7,8.8-.2-.2-.8-.7-1.2-.8,2.4-2.9,2.7-7.5,2.8-13.4h-1.8v-1.3h6.6c0,0,.9,0,.9,0-.2,1.5-.5,3.4-.8,5h1.5c0,0,.8.2.8.2ZM297,416c0,1.4,0,2.6-.1,3.9h2.5c.2-1.2.5-2.7.7-3.9h-3ZM297.8,421.1c.4,1.6,1,3.1,1.8,4.4.8-1.3,1.4-2.7,1.8-4.4h-3.6Z"/>
      <path class="st4" d="M311,423.5c-.2-.5-.6-1.3-1-2.1v8.9h-1.2v-8.6c-.5,1.9-1.1,3.6-1.7,4.7-.1-.4-.4-1-.6-1.3.9-1.5,1.7-4.2,2.2-6.6h-1.8v-1.3h1.9v-3.5h1.2v3.5h1.4v1.3h-1.4v1.2c.4.6,1.4,2.3,1.6,2.7l-.6,1ZM322,424.8c-.6,1.1-1.3,2-2.2,2.9.5.8,1.2,1.2,1.9,1.3.4,0,.6-.6.8-1.9.2.3.7.6.9.7-.3,2-.9,2.6-1.6,2.6-1.2,0-2.1-.7-2.8-1.8-.9.7-2,1.3-3.2,1.7-.1-.2-.5-.6-.7-.8,1.2-.5,2.4-1.1,3.3-1.9-.4-.9-.8-2-1-3.3h-2.9v.3c0,.1,0,.3,0,.4.9.7,1.9,1.6,2.5,2.1l-.8.8c-.4-.4-1.1-1.1-1.8-1.7-.3,1.4-1.1,3-2.6,4.2-.2-.3-.6-.7-.9-.8,2.1-1.5,2.6-3.6,2.6-5.1v-.3h-1.4v-1.1h5.3c-.4-2.6-.7-5.7-.8-9.1h1.2c0,3.5.3,6.6.8,9.1h2.6c-.4-.4-1.1-.8-1.6-1.2l.7-.6c.6.4,1.5.9,1.9,1.3l-.5.5h1.5v1.1h-4.3c.2,1,.5,1.8.8,2.5.7-.7,1.2-1.5,1.6-2.3l1.2.4ZM315.6,422.1c0-.2-.1-.5-.2-.8-2.6.4-3,.5-3.2.6,0-.2-.2-.7-.3-1,.3,0,.6-.4.9-.8.2-.2.6-.8,1.2-1.6-1.4.2-1.7.3-1.9.4,0-.2-.2-.7-.3-1,.2,0,.4-.3.7-.7.3-.4,1.1-1.7,1.5-3.1l1,.3c-.5,1.2-1.2,2.4-1.8,3.3h1.4c.2-.5.4-.9.6-1.4l1,.4c-.8,1.4-1.7,2.9-2.7,4l1.7-.2c-.1-.4-.3-.8-.4-1.1l.8-.2c.4.9.8,2,.9,2.7l-.9.3ZM322.1,421.8c0-.2-.1-.5-.2-.8-2.6.4-3,.5-3.3.6,0-.2-.2-.8-.4-1,.3,0,.6-.4.9-.8.2-.2.6-.8,1.1-1.6-1.3.2-1.6.3-1.8.4,0-.2-.2-.7-.3-1,.2,0,.4-.3.6-.6.2-.3.9-1.6,1.3-2.8l1,.3c-.5,1.1-1,2.1-1.6,3h1.3c.2-.5.5-1,.6-1.4l1,.4c-.8,1.5-1.7,2.9-2.6,4l1.8-.3c-.1-.4-.3-.7-.4-1.1l.8-.2c.4.8.8,2,1,2.7l-.9.3Z"/>
      <path class="st4" d="M333.7,423c.4.6.8,1.5,1,2l-.6.3h.2v1.6c0,1.3-.3,2.6-2.6,3.4-.1-.2-.4-.6-.6-.8,1.2-.4,1.7-.8,2-1.4h-2.4v-2.5h.9v1.7h1.7c0-.1,0-.2,0-.4v-1.6h.7c0-.1-.1-.3-.2-.6-2.8.3-3.3.4-3.5.5,0-.2-.2-.6-.3-.9.3,0,.6-.2,1-.5.2-.1.6-.5,1.1-.9-1.2,0-1.5.1-1.7.2,0-.2-.2-.7-.3-.9.2,0,.4-.1.6-.3.2-.2.9-.9,1.3-1.6h-3.1v10.2h-1.3v-15.7h6.6v5.5h-1.9l.6.3c-.4.6-.9,1.2-1.4,1.6h1.3c.3-.4.6-.7.8-1l.8.5c-.9.9-1.8,1.8-2.7,2.5h1.8c-.1-.4-.3-.6-.4-.9l.7-.2ZM328.7,415.6v1.4h4v-1.4h-4ZM328.7,419.1h4v-1.3h-4v1.3ZM342.3,428.6c0,.7-.1,1.2-.6,1.4-.5.2-1.2.3-2.3.3,0-.4-.2-1-.4-1.3.8,0,1.5,0,1.8,0,.2,0,.3,0,.3-.3v-8.5h-4l.7.3c-.4.6-.9,1.2-1.4,1.6h1.3c.3-.4.5-.7.8-1l.8.5c-.8.9-1.8,1.8-2.7,2.5h1.8c-.1-.4-.3-.6-.4-.9l.7-.2c.4.6.8,1.5,1,1.9l-.7.3c0-.2-.2-.4-.3-.6-2.8.3-3.3.3-3.5.5,0-.2-.2-.6-.3-.9.3,0,.6-.2,1-.5.2-.1.6-.5,1.1-1-1.2,0-1.5.1-1.7.2,0-.2-.2-.7-.3-.9.2,0,.4-.1.6-.3.2-.2.9-.9,1.3-1.7h-1.1v-5.5h6.7v14ZM338.1,428.6v-.6h-1.7v2h-1v-4.8h1v1.9h1.7v-1.7h1v3.1h-1ZM336.9,415.6v1.4h4.1v-1.4h-4.1ZM341,419.1v-1.3h-4.1v1.3h4.1Z"/>
    </g>
    <rect class="st8" x="139" y="368.9" width="32" height="106.2" rx="4.7" ry="4.7" transform="translate(577.1 267) rotate(90)"/>
    <g>
      <path class="st4" d="M123.3,418.2c-.6.9-1.2,1.8-2,2.7v9.5h-1.4v-8c-.7.7-1.4,1.3-2.1,1.9-.2-.3-.7-.8-1-1.1,1.9-1.3,3.8-3.4,5.1-5.4l1.3.5ZM122.6,414.4c-1.2,1.6-3,3.4-4.7,4.5-.2-.3-.6-.8-.8-1.1,1.5-1,3.3-2.6,4.2-3.9l1.3.5ZM133.5,421.2h-2.7v7.4c0,.8-.2,1.2-.8,1.4-.6.2-1.6.2-3.3.2,0-.3-.3-.9-.5-1.2,1.3,0,2.5,0,2.8,0,.3,0,.4,0,.4-.4v-7.4h-6v-1.3h10v1.3ZM133.1,416.2h-8.8v-1.3h8.8v1.3Z"/>
      <path class="st4" d="M152.3,418.5c-.5,3-1.2,5.4-2.4,7.4,1,1.5,2.2,2.6,3.7,3.4-.3.3-.7.8-.9,1.1-1.5-.8-2.7-1.9-3.6-3.3-1,1.4-2.4,2.5-4.1,3.3-.1-.3-.5-.9-.8-1.2,1.8-.8,3.1-2,4.1-3.4-.8-1.5-1.4-3.2-1.9-5.1-.4.7-.8,1.4-1.2,2-.2-.2-.8-.7-1.1-.9h0c0-.1-2-.1-2-.1v4.6l3.1-.7v1.2c-2.8.7-6,1.5-8.2,2l-.3-1.3,1.1-.2v-8h1.2v7.7l1.8-.4v-10h-3.8v-1.3h8.2v1.3h-3.1v3.9h2.4v.6c1.2-1.9,2-4.4,2.5-7.1l1.3.2c-.2,1.1-.5,2.1-.8,3.1h5.6v1.3h-1.2ZM147.3,418.8c.4,2.1,1,4.1,1.8,5.7.9-1.7,1.4-3.7,1.8-6h-3.5v.3Z"/>
      <path class="st4" d="M160.2,421.8c-.7-.6-2.2-1.4-3.3-1.9l.7-1c1.1.5,2.6,1.2,3.3,1.8l-.7,1.1ZM157.5,429.2c1-1.4,2.4-3.7,3.4-5.8l1,.9c-.9,1.9-2.2,4.1-3.3,5.8l-1.1-.9ZM158.6,414.1c1.2.5,2.7,1.3,3.4,1.9l-.8,1.1c-.7-.6-2.2-1.5-3.4-2l.7-1ZM171.8,430.3c-.2-.5-.5-1.1-.8-1.8-6.7.8-7.4,1-7.9,1.2,0-.3-.3-1-.5-1.3.3,0,.7-.5,1.2-1.2.4-.5,1.6-2.4,2.5-4.5h-4v-1.3h4.6v-3.2h-3.8v-1.3h3.8v-3.1h1.3v3.1h4v1.3h-4v3.2h4.7v1.3h-5.1c-.9,1.9-2.1,3.8-3.2,5.3l5.7-.6c-.5-.8-1-1.6-1.6-2.3l1.1-.5c1.3,1.6,2.6,3.7,3.2,5.1l-1.2.6Z"/>
      <path class="st4" d="M185.6,413.9c0,.6,0,1.5-.1,2.6.3,2.1,1.4,9.7,7.7,12.5-.4.3-.8.8-1,1.1-4.5-2.1-6.4-6.6-7.3-9.9-.8,3.6-2.7,7.6-7.1,10-.2-.4-.7-.8-1.1-1,7.5-3.8,7.4-12.5,7.4-15.3h1.5Z"/>
    </g>
    <rect class="st8" x="439.4" y="368.9" width="32" height="106.2" rx="4.7" ry="4.7" transform="translate(877.4 -33.4) rotate(90)"/>
    <g>
      <path class="st4" d="M420.9,426.5c-.6,1.5-1.5,3-2.5,4-.2-.2-.7-.7-1-.9,1-.8,1.7-2.1,2.2-3.4l1.3.3ZM424.7,425.8h-6.3v-11.2h6.3v11.2ZM423.4,415.7h-3.7v2.3h3.7v-2.3ZM423.4,419h-3.7v2.3h3.7v-2.3ZM423.4,422.3h-3.7v2.3h3.7v-2.3ZM423.2,426.1c.8.9,1.6,2.1,2,2.9l-1.1.7c-.4-.8-1.2-2.1-1.9-3l1-.6ZM434.1,419.4h-2.4v9.2c0,.8-.2,1.2-.7,1.4-.5.2-1.3.2-2.7.2,0-.3-.3-.9-.5-1.3,1,0,1.9,0,2.2,0,.3,0,.4,0,.4-.4v-7.5c-1.2,2.6-2.9,5-4.7,6.4-.2-.3-.6-.8-.9-1,2-1.5,4-4.3,5.1-7.1h-4.6v-1.3h5.1v-4.2h1.3v4.2h2.4v1.3Z"/>
      <path class="st4" d="M452.9,414.7v15.5h-1.3v-.8h-11.9v.9h-1.2v-15.6h14.5ZM451.6,428.3v-12.5h-11.9v12.5h11.9ZM451,425.4h-2.6v1.7c0,.5-.1.7-.5.8-.4.1-1.1.1-2.1.1,0-.3-.2-.5-.3-.8.7,0,1.4,0,1.6,0,.2,0,.3,0,.3-.2v-1.6h-7v-.8h7v-.7h1.1v.7h2.6v.8ZM445,417.7h-4.5v-.8h4.5v-.8h1.1v.8h4.6v.8h-4.6v.8h4v3.6h-1.4c.7.5,1.5,1.2,1.9,1.8l-.8.6c-.2-.2-.4-.5-.7-.8-3.1.1-6.3.2-8.6.3v-.8c1.1,0,2.7,0,4.4,0v-.9h-3.8v-3.6h3.8v-.8ZM443,425.4c.6.5,1.3,1.2,1.6,1.6l-.9.5c-.3-.5-1-1.2-1.5-1.7l.9-.5ZM442.2,419.9h2.8v-.8h-2.8v.8ZM445,421.4v-.8h-2.8v.8h2.8ZM446.1,419.2v.8h2.9v-.8h-2.9ZM449,420.6h-2.9v.8h2.9v-.8ZM448.3,422.9c-.1-.1-.3-.2-.4-.3l.7-.5h-2.5v.9h2.2Z"/>
      <path class="st4" d="M460.6,421.8c-.7-.6-2.2-1.4-3.3-1.9l.7-1c1.1.5,2.6,1.2,3.3,1.8l-.7,1.1ZM457.8,429.2c1-1.4,2.4-3.7,3.4-5.8l1,.9c-.9,1.9-2.2,4.1-3.3,5.8l-1.1-.9ZM458.9,414.1c1.2.5,2.7,1.3,3.4,1.9l-.8,1.1c-.7-.6-2.2-1.5-3.4-2l.7-1ZM472.1,430.3c-.2-.5-.5-1.1-.8-1.8-6.7.8-7.4,1-7.9,1.2,0-.3-.3-1-.5-1.3.3,0,.7-.5,1.2-1.2.4-.5,1.6-2.4,2.5-4.5h-4v-1.3h4.6v-3.2h-3.8v-1.3h3.8v-3.1h1.3v3.1h4v1.3h-4v3.2h4.7v1.3h-5.1c-.9,1.9-2.1,3.8-3.2,5.3l5.7-.6c-.5-.8-1-1.6-1.6-2.3l1.1-.5c1.3,1.6,2.6,3.7,3.2,5.1l-1.2.6Z"/>
      <path class="st4" d="M485.9,413.9c0,.6,0,1.5-.1,2.6.3,2.1,1.4,9.7,7.7,12.5-.4.3-.8.8-1,1.1-4.5-2.1-6.4-6.6-7.3-9.9-.8,3.6-2.7,7.6-7.1,10-.2-.4-.7-.8-1.1-1,7.5-3.8,7.4-12.5,7.4-15.3h1.5Z"/>
    </g>
    <g>
      <g>
        <path d="M528.6,274.8h-5.1v-1.1h5.1v1.1ZM530,284.1c-1.4.9-3.7,1.7-5.5,2.2-.2-.3-.7-.8-1-1,1.8-.4,4-1,5.3-1.7l1.2.5ZM528.2,272h-4.3v-1h4.3v1ZM525.8,276.2h11.6v7.2h-11.6v-7.2ZM527.1,278.4h9v-1.2h-9v1.2ZM527.1,280.5h9v-1.2h-9v1.2ZM527.1,282.6h9v-1.3h-9v1.3ZM531.4,272.2c-.4.7-.9,1.3-1.4,1.8-.2-.2-.7-.5-1-.7.9-.8,1.7-2.1,2.1-3.4l1.2.3c-.1.3-.3.7-.4,1h6.2c0,0,.9.3.9.3-.5.9-1,2-1.5,2.6l-1.1-.4c.3-.4.6-.9.8-1.4h-2.9v.2c0,.2,0,.4,0,.6,1,1.1,2.9,1.8,5.3,2-.3.3-.6.7-.8,1.1-2.1-.3-3.8-1-4.9-2.1-.6.9-2,1.7-5.2,2.2-.1-.3-.5-.8-.7-1,4.7-.6,5.1-1.9,5.1-2.8v-.2h-1.9ZM534.1,283.6c1.9.6,4,1.4,5.3,1.9l-1.2.8c-1.2-.6-3.1-1.4-5-2l.9-.7Z"/>
        <path d="M529.9,292.1h-6.5v-1.1h6.5v1.1ZM529.2,303.3h-4v.8h-1.1v-6h5.1v5.2ZM524.2,294.4v-1.1h5.1v1.1h-5.1ZM524.2,295.7h5.1v1.1h-5.1v-1.1ZM525.2,299.2v3h2.9v-3h-2.9ZM526.6,290.8c-.3-.6-.8-1.7-1.3-2.4l1-.5c.5.7,1,1.7,1.3,2.3l-1,.6ZM537.9,288.9c-.1,7.3-.1,13.5.9,13.8.1,0,.2-1.1.3-2.4.2.3.6.8.8,1-.2,2.5-.8,3.1-1.6,2.8-1.8-.5-1.7-6.4-1.7-13.8h-3v5.3h2.4v1.2h-2.4v7.6h-1.3v-7.6h-2.4v-1.2h2.4v-5.3h-2.2v-1.3h7.8Z"/>
        <path d="M532,315.5c-.3,1.7-1,3.1-1.8,4.2,1.3,1.1,3,1.3,5.1,1.3s3.9,0,4.6,0c-.2.3-.4.8-.4,1.1h-4.3c-2.4,0-4.4-.3-5.8-1.6-1,.9-2.1,1.5-3.3,2-.1-.3-.4-.7-.6-.9,1.2-.4,2.3-1,3.2-1.9-.4-.5-.7-1.2-1-2-.4.5-.8.9-1.2,1.3-.1-.2-.5-.5-.8-.7-.3,1.5-.7,3-1.4,4.2-.2-.3-.8-.7-1-.8,1.4-2.3,1.5-5.6,1.5-8v-4.4h5.9v-3.3h1.3v1.1h6.2v1h-6.2v1.2h6.5c0,0,.9.2.9.2-.4,1-.8,2.2-1.2,2.9l-1.1-.3c.3-.4.5-1.1.7-1.7h-5.9v1.1l4.6-.3v.9c0,0-4.6.3-4.6.3v.4c0,.5.1.7.7.7h4.2c.5,0,1.5,0,1.9-.1,0,.3,0,.7.1,1-.3,0-1.1,0-1.9,0h-4.4c-1.5,0-1.9-.5-1.9-1.6v-.3l-3.6.2v-.9c0,0,3.6-.2,3.6-.2v-1.2h-4.6v3.3c0,1.3,0,2.9-.3,4.4,1.2-1,2.2-2.5,2.7-4.2l1.1.3c-.1.4-.3.8-.5,1.2h2.2s.7.1.7.1ZM528.6,316.3c0,.1-.1.3-.2.4.3.9.6,1.6,1,2.2.6-.7,1-1.6,1.3-2.6h-2.1ZM537.1,320c-.9,0-1.2-.2-1.2-1.1v-2.5h-1.8v.4c0,1.2-.3,2.6-1.7,3.7-.2-.2-.6-.6-.8-.8,1.2-.9,1.4-2,1.4-2.9v-1.4h4v3.5c0,.3,0,.4.3.4h.7c.2,0,.3-.2.3-1.2.2.1.6.3.8.3,0,1.2-.3,1.6-1,1.6h-1Z"/>
      </g>
      <g>
        <path d="M405.1,280.7c-.2-.5-.8-1.5-1.2-2.4v8h-1.3v-7.5c-.6,1.7-1.4,3.3-2.2,4.3-.1-.4-.5-1-.7-1.3,1-1.3,2.1-3.6,2.7-5.7h-2.3v-1.3h2.5v-2.9c-.6.1-1.3.3-1.9.4,0-.3-.3-.8-.4-1.1,1.7-.3,3.6-.8,4.8-1.4l.8,1.1c-.6.3-1.3.5-2.1.7v3.2h2.1v1.3h-2.1v.4c.5.6,1.8,2.5,2.1,3l-.8,1.1ZM415.2,281.8c-.2-1.5-.9-3.7-1.7-5.3-.9,2.2-2,4.2-3.3,5.9v1.8c0,.7.1.8.8.8h2.1c.6,0,.7-.5.8-2.7.3.3.8.5,1.2.5-.1,2.6-.5,3.3-1.8,3.3h-2.4c-1.5,0-1.9-.4-1.9-2v-.2c-.7.8-1.5,1.5-2.3,2.1-.2-.3-.8-.7-1.1-.9,1.3-.9,2.4-2,3.4-3.2v-8.2h1.3v6.4c1.7-2.6,2.9-5.7,3.9-9.2l1.3.3c-.5,1.8-1.1,3.6-1.8,5.2l1.1-.3c.8,1.7,1.5,3.9,1.7,5.3l-1.2.4ZM405.5,281.1c.7-1.4,1.1-3.7,1.3-5.5l1,.2c-.2,1.8-.6,4.3-1.3,5.7l-1-.4ZM411.9,273.5c-.7-.8-2.2-1.9-3.4-2.7l.8-.9c1.2.7,2.7,1.8,3.5,2.6l-.8,1Z"/>
        <path d="M416,296.9v1h-15.9v-1h7.2v-1.1h-6v-.9h6v-.9h-5.5v-.9h5.5v-1.1h-7.2v-1h7.2v-1h-5.3v-.9h5.3v-1.3h1.3v1.3h5.1v1.9h2.1v1h-2.1v2h-5.1v.9h6.1v.9h-6.1v1.1h7.4ZM402.4,298.8h11.5v5.6h-1.3v-.6h-8.9v.6h-1.3v-5.6ZM403.7,299.7v1.1h8.9v-1.1h-8.9ZM412.6,302.8v-1.1h-8.9v1.1h8.9ZM408.7,291h3.8v-1h-3.8v1ZM408.7,293.2h3.8v-1.1h-3.8v1.1Z"/>
        <path d="M408.5,315.4c-.3,1.7-1,3.1-1.8,4.2,1.3,1.1,3,1.3,5.1,1.3s3.9,0,4.6,0c-.2.3-.4.8-.4,1.1h-4.3c-2.4,0-4.4-.3-5.8-1.6-1,.9-2.1,1.5-3.3,2-.1-.3-.4-.7-.6-.9,1.2-.4,2.3-1,3.2-1.9-.4-.5-.7-1.2-1-2-.4.5-.8.9-1.2,1.3-.1-.2-.5-.5-.8-.7-.3,1.5-.7,3-1.4,4.2-.2-.3-.8-.7-1-.8,1.4-2.3,1.5-5.6,1.5-8v-4.4h5.9v-3.3h1.3v1.1h6.2v1h-6.2v1.2h6.5c0,0,.9.2.9.2-.4,1-.8,2.2-1.2,2.9l-1.1-.3c.3-.4.5-1.1.7-1.7h-5.9v1.1l4.6-.3v.9c0,0-4.6.3-4.6.3v.4c0,.5.1.7.7.7h4.2c.5,0,1.5,0,1.9-.1,0,.3,0,.7.1,1-.3,0-1.1,0-1.9,0h-4.4c-1.5,0-1.9-.5-1.9-1.6v-.3l-3.6.2v-.9c0,0,3.6-.2,3.6-.2v-1.2h-4.6v3.3c0,1.3,0,2.9-.3,4.4,1.2-1,2.2-2.5,2.7-4.2l1.1.3c-.1.4-.3.8-.5,1.2h2.2s.7.1.7.1ZM405.1,316.3c0,.1-.1.3-.2.4.3.9.6,1.6,1,2.2.6-.7,1-1.6,1.3-2.6h-2.1ZM413.7,320c-.9,0-1.2-.2-1.2-1.1v-2.5h-1.8v.4c0,1.2-.3,2.6-1.7,3.7-.2-.2-.6-.6-.8-.8,1.2-.9,1.4-2,1.4-2.9v-1.4h4v3.5c0,.3,0,.4.3.4h.7c.2,0,.3-.2.3-1.2.2.1.6.3.8.3,0,1.2-.3,1.6-1,1.6h-1Z"/>
      </g>
      <g>
        <path d="M439.7,269.9c0,.6,0,1.5-.1,2.6.3,2.1,1.4,9.7,7.7,12.5-.4.3-.8.8-1,1.1-4.5-2.1-6.4-6.6-7.3-9.9-.8,3.6-2.7,7.6-7.1,10-.2-.4-.7-.8-1.1-1,7.5-3.8,7.4-12.5,7.4-15.3h1.5Z"/>
        <path d="M447.1,299.2h-1.9v3.2h-1.3v-.8h-4.3v1.2c0,.8-.3,1.1-.8,1.3-.6.2-1.5.2-3,.2,0-.3-.3-.8-.5-1.1,1.1,0,2.2,0,2.5,0,.3,0,.5-.1.5-.4v-1.2h-5.8v-1h5.8v-1.4h-7.4v-1.1h7.4v-1.3h-5.7v-1h5.7v-1.3h-5.1v-3.2h5.1v-1h-7v-1.1h7v-1.4h1.3v1.4h7.2v1.1h-7.2v1h5.4v3.2h-5.4v1.3h5.7v2.3h1.9v1.1ZM438.2,293.7v-1.3h-3.9v1.3h3.9ZM439.6,292.4v1.3h4v-1.3h-4ZM439.6,298.1h4.3v-1.3h-4.3v1.3ZM443.9,299.2h-4.3v1.4h4.3v-1.4Z"/>
        <path d="M439.4,315.4c-.3,1.7-1,3.1-1.8,4.2,1.3,1.1,3,1.3,5.1,1.3s3.9,0,4.6,0c-.2.3-.4.8-.4,1.1h-4.3c-2.4,0-4.4-.3-5.8-1.6-1,.9-2.1,1.5-3.3,2-.1-.3-.4-.7-.6-.9,1.2-.4,2.3-1,3.2-1.9-.4-.5-.7-1.2-1-2-.4.5-.8.9-1.2,1.3-.1-.2-.5-.5-.8-.7-.3,1.5-.7,3-1.4,4.2-.2-.3-.8-.7-1-.8,1.4-2.3,1.5-5.6,1.5-8v-4.4h5.9v-3.3h1.3v1.1h6.2v1h-6.2v1.2h6.5c0,0,.9.2.9.2-.4,1-.8,2.2-1.2,2.9l-1.1-.3c.3-.4.5-1.1.7-1.7h-5.9v1.1l4.6-.3v.9c0,0-4.6.3-4.6.3v.4c0,.5.1.7.7.7h4.2c.5,0,1.5,0,1.9-.1,0,.3,0,.7.1,1-.3,0-1.1,0-1.9,0h-4.4c-1.5,0-1.9-.5-1.9-1.6v-.3l-3.6.2v-.9c0,0,3.6-.2,3.6-.2v-1.2h-4.6v3.3c0,1.3,0,2.9-.3,4.4,1.2-1,2.2-2.5,2.7-4.2l1.1.3c-.1.4-.3.8-.5,1.2h2.2s.7.1.7.1ZM436,316.2c0,.1-.1.3-.2.4.3.9.6,1.6,1,2.2.6-.7,1-1.6,1.3-2.6h-2.1ZM444.6,319.9c-.9,0-1.2-.2-1.2-1.1v-2.5h-1.8v.4c0,1.2-.3,2.6-1.7,3.7-.2-.2-.6-.6-.8-.8,1.2-.9,1.4-2,1.4-2.9v-1.4h4v3.5c0,.3,0,.4.3.4h.7c.2,0,.3-.2.3-1.2.2.1.6.3.8.3,0,1.2-.3,1.6-1,1.6h-1Z"/>
      </g>
      <g>
        <path d="M476.8,274.6c-.5,3-1.2,5.4-2.4,7.4,1,1.5,2.2,2.6,3.7,3.4-.3.3-.7.8-.9,1.1-1.5-.8-2.7-1.9-3.6-3.3-1,1.4-2.4,2.5-4.1,3.3-.1-.3-.5-.9-.8-1.2,1.8-.8,3.1-2,4.1-3.4-.8-1.5-1.4-3.2-1.9-5.1-.4.7-.8,1.4-1.2,2-.2-.2-.8-.7-1.1-.9h0c0-.1-2-.1-2-.1v4.6l3.1-.7v1.2c-2.8.7-6,1.5-8.2,2l-.3-1.3,1.1-.2v-8h1.2v7.7l1.8-.4v-10h-3.8v-1.3h8.2v1.3h-3.1v3.9h2.4v.6c1.2-1.9,2-4.4,2.5-7.1l1.3.2c-.2,1.1-.5,2.1-.8,3.1h5.6v1.3h-1.2ZM471.9,274.9c.4,2.1,1,4.1,1.8,5.7.9-1.7,1.4-3.7,1.8-6h-3.5v.3Z"/>
        <path d="M475.9,289c0,6.7,0,14,1.1,14s.3-1.2.4-2.8c.2.3.6.7.8.9-.1,2.3-.4,3.2-1.3,3.2-2.2,0-2.1-6.4-2.2-14.2h-9.7v4.5c0,2.9-.3,7-2.3,9.7-.2-.3-.8-.6-1.1-.8,1.9-2.6,2.1-6.2,2.1-8.9v-5.8h12.3ZM472.6,299.6c.9,1.2,1.8,2.8,2.1,3.9l-1.1.4c-.1-.4-.3-.9-.5-1.4-3,.2-6.1.4-8.2.6v-1.2c1,0,2.5-.1,4.1-.3v-2.5h-3.1v-4.9h3.1v-1.7h-3.4v-1.1h8v1.1h-3.5v1.7h3.2v4.9h-3.2v2.4h2.3c-.3-.7-.6-1.2-1-1.7l1-.4ZM469.1,298.1v-2.8h-2v2.8h2ZM470.2,295.3v2.8h2.1v-2.8h-2.1Z"/>
        <path d="M470.3,315.5c-.3,1.7-1,3.1-1.8,4.2,1.3,1.1,3,1.3,5.1,1.3s3.9,0,4.6,0c-.2.3-.4.8-.4,1.1h-4.3c-2.4,0-4.4-.3-5.8-1.6-1,.9-2.1,1.5-3.3,2-.1-.3-.4-.7-.6-.9,1.2-.4,2.3-1,3.2-1.9-.4-.5-.7-1.2-1-2-.4.5-.8.9-1.2,1.3-.1-.2-.5-.5-.8-.7-.3,1.5-.7,3-1.4,4.2-.2-.3-.8-.7-1-.8,1.4-2.3,1.5-5.6,1.5-8v-4.4h5.9v-3.3h1.3v1.1h6.2v1h-6.2v1.2h6.5c0,0,.9.2.9.2-.4,1-.8,2.2-1.2,2.9l-1.1-.3c.3-.4.5-1.1.7-1.7h-5.9v1.1l4.6-.3v.9c0,0-4.6.3-4.6.3v.4c0,.5.1.7.7.7h4.2c.5,0,1.5,0,1.9-.1,0,.3,0,.7.1,1-.3,0-1.1,0-1.9,0h-4.4c-1.5,0-1.9-.5-1.9-1.6v-.3l-3.6.2v-.9c0,0,3.6-.2,3.6-.2v-1.2h-4.6v3.3c0,1.3,0,2.9-.3,4.4,1.2-1,2.2-2.5,2.7-4.2l1.1.3c-.1.4-.3.8-.5,1.2h2.2s.7.1.7.1ZM466.8,316.4c0,.1-.1.3-.2.4.3.9.6,1.6,1,2.2.6-.7,1-1.6,1.3-2.6h-2.1ZM475.4,320c-.9,0-1.2-.2-1.2-1.1v-2.5h-1.8v.4c0,1.2-.3,2.6-1.7,3.7-.2-.2-.6-.6-.8-.8,1.2-.9,1.4-2,1.4-2.9v-1.4h4v3.5c0,.3,0,.4.3.4h.7c.2,0,.3-.2.3-1.2.2.1.6.3.8.3,0,1.2-.3,1.6-1,1.6h-1Z"/>
      </g>
      <g>
        <path d="M508.7,284.5v1.3h-15.9v-1.3h7.2v-4.4h-5.5v-1.3h5.5v-3.9h-6.4v-1.3h7.9c-.7-.8-2-2-3.1-2.8l1.1-.8c1.2.8,2.6,2.1,3.3,2.9l-.8.6h5.8v1.3h-6.4v3.9h5.7v1.3h-5.7v4.4h7.3Z"/>
        <path d="M500.3,292.1h-7.4v-1.1h7.4v1.1ZM493.7,293.3h5.9v1.1h-5.9v-1.1ZM499.5,296.7h-5.8v-1.1h5.8v1.1ZM499.5,303.3h-4.5v.8h-1.2v-6h5.7v5.2ZM495,299.2v3h3.3v-3h-3.3ZM496.3,290.8c-.3-.6-.8-1.7-1.3-2.4l1-.5c.5.7,1.1,1.7,1.4,2.3l-1.1.6ZM508.8,295.4h-3.7v8.9h-1.4v-8.9h-3.5v-1.3h3.5v-5.9h1.4v5.9h3.7v1.3Z"/>
        <path d="M501.1,315.5c-.3,1.7-1,3.1-1.8,4.2,1.3,1.1,3,1.3,5.1,1.3s3.9,0,4.6,0c-.2.3-.4.8-.4,1.1h-4.3c-2.4,0-4.4-.3-5.8-1.6-1,.9-2.1,1.5-3.3,2-.1-.3-.4-.7-.6-.9,1.2-.4,2.3-1,3.2-1.9-.4-.5-.7-1.2-1-2-.4.5-.8.9-1.2,1.3-.1-.2-.5-.5-.8-.7-.3,1.5-.7,3-1.4,4.2-.2-.3-.8-.7-1-.8,1.4-2.3,1.5-5.6,1.5-8v-4.4h5.9v-3.3h1.3v1.1h6.2v1h-6.2v1.2h6.5c0,0,.9.2.9.2-.4,1-.8,2.2-1.2,2.9l-1.1-.3c.3-.4.5-1.1.7-1.7h-5.9v1.1l4.6-.3v.9c0,0-4.6.3-4.6.3v.4c0,.5.1.7.7.7h4.2c.5,0,1.5,0,1.9-.1,0,.3,0,.7.1,1-.3,0-1.1,0-1.9,0h-4.4c-1.5,0-1.9-.5-1.9-1.6v-.3l-3.6.2v-.9c0,0,3.6-.2,3.6-.2v-1.2h-4.6v3.3c0,1.3,0,2.9-.3,4.4,1.2-1,2.2-2.5,2.7-4.2l1.1.3c-.1.4-.3.8-.5,1.2h2.2s.7.1.7.1ZM497.7,316.3c0,.1-.1.3-.2.4.3.9.6,1.6,1,2.2.6-.7,1-1.6,1.3-2.6h-2.1ZM506.3,320c-.9,0-1.2-.2-1.2-1.1v-2.5h-1.8v.4c0,1.2-.3,2.6-1.7,3.7-.2-.2-.6-.6-.8-.8,1.2-.9,1.4-2,1.4-2.9v-1.4h4v3.5c0,.3,0,.4.3.4h.7c.2,0,.3-.2.3-1.2.2.1.6.3.8.3,0,1.2-.3,1.6-1,1.6h-1Z"/>
      </g>
      <g>
        <path d="M558.4,277.9c-.7-.6-2.2-1.4-3.3-1.9l.7-1c1.1.5,2.6,1.2,3.3,1.8l-.7,1.1ZM555.7,285.2c1-1.4,2.4-3.7,3.4-5.8l1,.9c-.9,1.9-2.2,4.1-3.3,5.8l-1.1-.9ZM556.7,270.1c1.2.5,2.7,1.3,3.4,1.9l-.8,1.1c-.7-.6-2.2-1.5-3.4-2l.7-1ZM569.9,286.3c-.2-.5-.5-1.1-.8-1.8-6.7.8-7.4,1-7.9,1.2,0-.3-.3-1-.4-1.3.3,0,.7-.5,1.2-1.2.4-.5,1.6-2.4,2.5-4.5h-4v-1.3h4.6v-3.2h-3.8v-1.3h3.8v-3.1h1.3v3.1h4v1.3h-4v3.2h4.7v1.3h-5.1c-.9,1.9-2.1,3.8-3.2,5.3l5.7-.6c-.5-.8-1-1.6-1.6-2.3l1.1-.5c1.3,1.6,2.6,3.7,3.2,5.1l-1.2.6Z"/>
        <path d="M560.8,293.6h4.3v1.2h-4.3v1.8h3.7v4.9c0,.6,0,1-.5,1.2-.4.2-1.1.2-2.1.2,0-.4-.2-.8-.4-1.2.8,0,1.4,0,1.5,0,.2,0,.3,0,.3-.2v-3.7h-2.5v6.5h-1.3v-6.5h-2.3v5h-1.2v-6.2h3.5v-1.8h-4.4v-1.2h4.4v-1.9h-2.3c-.3.7-.6,1.4-.9,1.9-.3-.2-.9-.4-1.2-.5.8-1.2,1.4-3,1.8-4.7l1.3.3c-.2.6-.3,1.3-.5,1.9h1.9v-2.5h1.3v2.5h3.6v1.2h-3.6v1.9ZM567.6,299.4h-1.3v-9.9h1.3v9.9ZM570.9,288.1v14.4c0,.9-.2,1.3-.7,1.5-.6.2-1.5.3-2.9.3,0-.4-.3-1-.4-1.4,1.1,0,2.1,0,2.4,0,.3,0,.4,0,.4-.4v-14.4h1.3Z"/>
        <path d="M563.7,315.5c-.3,1.7-1,3.1-1.8,4.2,1.3,1.1,3,1.3,5.1,1.3s3.9,0,4.6,0c-.2.3-.4.8-.4,1.1h-4.3c-2.4,0-4.4-.3-5.8-1.6-1,.9-2.1,1.5-3.3,2-.1-.3-.4-.7-.6-.9,1.2-.4,2.3-1,3.2-1.9-.4-.5-.7-1.2-1-2-.4.5-.8.9-1.2,1.3-.1-.2-.5-.5-.8-.7-.3,1.5-.7,3-1.4,4.2-.2-.3-.8-.7-1-.8,1.4-2.3,1.5-5.6,1.5-8v-4.4h5.9v-3.3h1.3v1.1h6.2v1h-6.2v1.2h6.5c0,0,.9.2.9.2-.4,1-.8,2.2-1.2,2.9l-1.1-.3c.3-.4.5-1.1.7-1.7h-5.9v1.1l4.6-.3v.9c0,0-4.6.3-4.6.3v.4c0,.5.1.7.7.7h4.2c.5,0,1.5,0,1.9-.1,0,.3,0,.7.1,1-.3,0-1.1,0-1.9,0h-4.4c-1.5,0-1.9-.5-1.9-1.6v-.3l-3.6.2v-.9c0,0,3.6-.2,3.6-.2v-1.2h-4.6v3.3c0,1.3,0,2.9-.3,4.4,1.2-1,2.2-2.5,2.7-4.2l1.1.3c-.1.4-.3.8-.5,1.2h2.2s.7.1.7.1ZM560.3,316.3c0,.1-.1.3-.2.4.3.9.6,1.6,1,2.2.6-.7,1-1.6,1.3-2.6h-2.1ZM568.9,320c-.9,0-1.2-.2-1.2-1.1v-2.5h-1.8v.4c0,1.2-.3,2.6-1.7,3.7-.2-.2-.6-.6-.8-.8,1.2-.9,1.4-2,1.4-2.9v-1.4h4v3.5c0,.3,0,.4.3.4h.7c.2,0,.3-.2.3-1.2.2.1.6.3.8.3,0,1.2-.3,1.6-1,1.6h-1Z"/>
      </g>
    </g>
    <g>
      <path class="st4" d="M452.1,247.8h3.1v1.2h-3.1v3.2h-1.2v-3.2h-3.2v-1.2h3.2v-1.4h-2.5v-6.2h2.5v-1.3h-2.9v-1.2h2.9v-2h1.2v2h2.9v1.2h-2.9v1.3h2.6v6.2h-2.6v1.4ZM449.4,242.7h1.7v-1.6h-1.7v1.6ZM449.4,245.4h1.7v-1.7h-1.7v1.7ZM453.7,241.1h-1.7v1.6h1.7v-1.6ZM453.7,243.7h-1.7v1.7h1.7v-1.7ZM460.2,239.4v1.6h3.5v9.7c0,.6-.1,1-.5,1.2-.4.2-1,.2-1.9.2,0-.3-.2-.9-.4-1.2.6,0,1.2,0,1.3,0s.2,0,.2-.2v-2.5h-2.3v3.8h-1.2v-3.8h-2.2v3.9h-1.2v-11.1h3.4v-1.6h-3.8v-1.2h3.8v-2.5h1.2v2.5h2.9c-.5-.6-1.4-1.3-2.2-1.9l.8-.6c.8.5,1.8,1.3,2.2,1.8l-.7.7h.9v1.2h-3.9ZM456.8,242.2v1.8h2.2v-1.8h-2.2ZM459,247v-1.9h-2.2v1.9h2.2ZM460.2,242.2v1.8h2.3v-1.8h-2.3ZM462.5,247v-1.9h-2.3v1.9h2.3Z"/>
      <path class="st4" d="M475.7,248.5c-2.8.7-5.8,1.4-8,1.9l-.2-1.4,1.3-.3v-12.2h5.9v11l1-.2v1.2ZM469.9,237.8v2.6h3.4v-2.6h-3.4ZM473.3,241.6h-3.4v2.6h3.4v-2.6ZM469.9,248.5c1-.2,2.2-.5,3.4-.7v-2.4h-3.4v3.1ZM483.5,239.8s0,.5,0,.7c-.2,7.5-.4,10.1-1,10.9-.3.5-.7.6-1.3.7-.5,0-1.5,0-2.5,0,0-.4-.2-.9-.4-1.3,1,0,2,0,2.3,0,.3,0,.5,0,.7-.3.4-.5.6-2.9.8-9.5h-2.8c-.3,4.7-1.3,8.7-4.9,11.1-.2-.3-.6-.8-1-1,3.4-2.1,4.3-5.9,4.6-10.2h-2.9v-1.3h2.9c0-1.3,0-2.7,0-4.1h1.3c0,1.4,0,2.7,0,4.1h4.1Z"/>
      <path class="st4" d="M503.5,249.6h-7.3v2.5h-1.3v-2.5h-7.1v-1.2h7.1v-1.4h-5.4v-6.3h12.4v6.3h-5.7v1.4h7.3v1.2ZM494.9,239.9h-5.9v-3.5h5.9v3.5ZM493.7,237.3h-3.5v1.7h3.5v-1.7ZM490.8,243.4h4.1v-1.5h-4.1v1.5ZM494.8,246v-1.6h-4.1v1.6h4.1ZM500.5,241.9h-4.3v1.5h4.3v-1.5ZM500.5,244.4h-4.3v1.6h4.3v-1.6ZM502.3,239.9h-6v-3.5h6v3.5ZM501.1,237.3h-3.5v1.7h3.5v-1.7Z"/>
      <path class="st4" d="M512.8,236.1c-.5,1.3-1.1,2.6-1.8,3.8v12.2h-1.3v-10.1c-.6.8-1.2,1.5-1.8,2.2-.1-.3-.5-1-.8-1.3,1.8-1.7,3.4-4.4,4.4-7.1l1.3.4ZM523.5,250.1v1.3h-11.2v-1.3h6.3c.6-2.4,1.4-6.2,1.7-8.9l1.4.3c-.5,2.8-1.2,6.3-1.9,8.7h3.7ZM522.7,240.2h-9.7v-1.3h9.7v1.3ZM515.4,249.3c-.1-1.9-.7-5.2-1.2-7.7l1.2-.3c.6,2.5,1.1,5.7,1.3,7.6l-1.3.4ZM517.5,238.7c-.1-.8-.5-2-.8-2.9l1.3-.3c.3.9.7,2.1.9,2.8l-1.3.4Z"/>
    </g>
  </g>
</svg>