<?xml version="1.0" encoding="UTF-8"?>
<svg id="_層_1" data-name="圖層 1" xmlns="http://www.w3.org/2000/svg" width="56" height="56" viewBox="0 0 56 56">
  <defs>
    <style>
      .cls-1 {
        fill: #fff;
      }
    </style>
  </defs>
  <path class="cls-1" d="M25.84,12.49v8.81h4.26V12.49l19.17-.06v-4.26H6.62v4.26l19.22,.06Zm19.17,5.07v25.15l-14.91-9.96-2.13-1.5-2.13,1.5-14.91,9.96V17.56H6.68V50.71l21.35-14.22,21.35,14.22V17.56h-4.37Zm-24.58,6.04h1.61v.98h-4.72c-.81,0-2.01,.17-2.47,.92-.12,.12-.17,.23-.17,.35-.4,1.96,2.24,2.19,3.51,2.24,.58,.06,1.21,.06,1.84,.06v-1.44h-3.11v-.98h5.12v3.22l-.17,.06c-.12,.06-.29,.06-.4,.06h-.69l-1.15,.06h-1.38c-.4,0-.98-.06-1.61-.12-1.61-.12-3.51-.52-3.86-2.36-.29-1.73,1.38-2.88,2.94-2.99,.46,0,.86-.06,1.27-.06h3.45Zm10.59,.58c-1.04-.46-2.13-.69-3.28-.63-1.27,0-2.47,.29-3.57,.81-1.04,.58-1.61,1.27-1.61,1.96s.52,1.5,1.55,2.01c1.21,.58,2.47,.81,3.8,.75,1.21,.06,2.36-.23,3.45-.75,.98-.52,1.5-1.15,1.5-1.96,0-.4-.12-.81-.4-1.15-.4-.4-.86-.75-1.44-1.04Zm-.92,3.51c-.63,.4-1.38,.58-2.13,.58-.86,0-1.73-.17-2.47-.52-.52-.23-.92-.69-.98-1.27,.06-.58,.35-1.04,.86-1.32,.69-.4,1.55-.63,2.36-.58,.81,0,1.61,.17,2.3,.63,.52,.23,.86,.75,.92,1.32,0,.46-.35,.92-.86,1.15Zm13.24-4.09l-4.49,5.58h-2.13l-4.55-5.3-.29-.29h2.24l3.57,4.32,3.4-4.32h2.24Z"/>
  <path d="M49.27,8.17v4.26l-19.17,.06v8.81h-4.26V12.49l-19.22-.06v-4.26H49.27m.12,9.38V50.71l-21.35-14.22L6.68,50.71V17.56h4.26v25.15l14.91-9.96,2.13-1.5,2.13,1.5,14.91,9.96V17.56h4.37m-21.29,5.98c1.02,0,2,.23,2.93,.64,.58,.29,1.04,.63,1.44,1.04,.29,.35,.4,.75,.4,1.15,0,.81-.52,1.44-1.5,1.96-1,.47-2.05,.76-3.15,.76-.1,0-.2,0-.31,0-.13,0-.26,0-.39,0-1.18,0-2.32-.24-3.41-.76-1.04-.52-1.55-1.32-1.55-2.01s.58-1.38,1.61-1.96c1.09-.52,2.3-.81,3.57-.81,.12,0,.23,0,.35,0m-.12,4.73c.75,0,1.5-.17,2.13-.58,.52-.23,.86-.69,.86-1.15-.06-.58-.4-1.09-.92-1.32-.69-.46-1.5-.63-2.3-.63-.08,0-.17,0-.25,0-.73,0-1.49,.22-2.11,.58-.52,.29-.81,.75-.86,1.32,.06,.58,.46,1.04,.98,1.27,.75,.35,1.61,.52,2.47,.52m15.37-4.66l-4.49,5.58h-2.13l-4.55-5.3-.29-.29h2.24l3.57,4.32,3.4-4.32h2.24m-21.3,0v.98h-4.72c-.81,0-2.01,.17-2.47,.92-.12,.12-.17,.23-.17,.35-.4,1.96,2.24,2.19,3.51,2.24,.58,.06,1.21,.06,1.84,.06v-1.44h-3.11v-.98h5.12v3.22l-.17,.06c-.12,.06-.29,.06-.4,.06h-.69l-1.15,.06h-1.38c-.4,0-.98-.06-1.61-.12-1.61-.12-3.51-.52-3.86-2.36-.29-1.73,1.38-2.88,2.94-2.99,.46,0,.86-.06,1.27-.06h5.07M49.27,6.26H6.62c-1.06,0-1.91,.86-1.91,1.91v4.26c0,1.05,.85,1.91,1.91,1.91l17.32,.05v6.9c0,.35,.1,.69,.26,.97-.2,.07-.39,.15-.59,.24-.35-.49-.92-.82-1.57-.82h-5.07c-.24,0-.48,.01-.72,.03-.17,.01-.35,.03-.54,.03-.05,0-.09,0-.14,0-.99,.07-1.94,.41-2.73,.93v-5.13c0-1.06-.86-1.91-1.91-1.91H6.68c-1.06,0-1.91,.86-1.91,1.91V50.71c0,.7,.39,1.35,1.01,1.68,.28,.15,.59,.23,.9,.23,.37,0,.74-.11,1.06-.32l20.29-13.51,20.29,13.51c.32,.21,.69,.32,1.06,.32,.31,0,.62-.07,.9-.23,.62-.33,1.01-.98,1.01-1.68V17.56c0-1.06-.86-1.91-1.91-1.91h-4.37c-1.06,0-1.91,.86-1.91,1.91v4.13h-2c-.59,0-1.14,.27-1.5,.73l-1.93,2.45-2.06-2.49c-.36-.44-.9-.69-1.47-.69h-2.16c.03-.13,.04-.26,.04-.39v-6.9l17.26-.05c1.05,0,1.91-.86,1.91-1.91v-4.26c0-1.06-.86-1.91-1.91-1.91h0Zm-12.55,24.83h2.13c.58,0,1.13-.26,1.49-.71l2.76-3.43v12.18l-11.93-7.97-.69-.48c.57-.15,1.14-.37,1.71-.63,.03-.01,.05-.02,.08-.04,.71-.37,1.22-.79,1.6-1.22l1.41,1.64c.36,.42,.89,.67,1.45,.67h0Zm-23.87,8.04v-9.24c.92,.57,2.13,.92,3.65,1.02l.17,.02c.61,.06,1.13,.1,1.57,.1h1.38s.06,0,.1,0l1.1-.06h.64c.21,0,.63,0,1.08-.18l.1-.03c.36-.12,.66-.33,.88-.61,.6,.26,1.21,.46,1.83,.6l-.62,.43-11.9,7.95h0Z"/>
</svg>