<?xml version="1.0" encoding="utf-8"?>
<!-- Generator: Adobe Illustrator 27.0.0, SVG Export Plug-In . SVG Version: 6.00 Build 0)  -->
<svg version="1.1" id="圖層_1" xmlns="http://www.w3.org/2000/svg" xmlns:xlink="http://www.w3.org/1999/xlink" x="0px" y="0px"
	 width="246px" height="246px" viewBox="0 0 246 246" style="enable-background:new 0 0 246 246;" xml:space="preserve">
<style type="text/css">
	.st0{fill:#FFFFFF;}
</style>
<g>
	<path class="st0" d="M107.4,165.4c-0.2-0.3-0.5-0.5-0.9-0.6c-4-1.1-8-3.5-12.6-7.5c-0.4-0.4-1-0.5-1.5-0.4s-1,0.4-1.2,0.9l-10,19.8
		c-0.3,0.5-0.2,1.2,0.1,1.7c0.3,0.5,0.9,0.8,1.5,0.8H116c0.7,0,1.3-0.4,1.6-1c0.3-0.6,0.2-1.3-0.2-1.9L107.4,165.4z M85.6,176.7
		l7.7-15.3c4.1,3.4,7.9,5.5,11.8,6.6l7.2,8.7H85.6z"/>
	<path class="st0" d="M99.2,96.2c-0.4-0.3-0.9-0.5-1.4-0.4s-1,0.3-1.2,0.8c-18.1,26.5-11.7,49.5,2.6,60.5c5.6,4.3,12.8,6.9,20.7,6.9
		c10.6,0,22.3-4.8,32.6-16.8c0.6-0.7,0.6-1.8-0.1-2.4L99.2,96.2z M101.4,154.3c-12.7-9.7-18.4-30.1-3-54l50.4,45.9
		C132.4,164.1,112.8,163.1,101.4,154.3z"/>
	<path class="st0" d="M130,121.8c0.3,0.3,0.8,0.5,1.2,0.5c0.1,0,0.3,0,0.4-0.1c0.6-0.2,1-0.6,1.2-1.2l3.4-10.4
		c0.2-0.7,0-1.4-0.5-1.8c-0.5-0.5-1.2-0.6-1.9-0.3l-10.1,4.2c-0.5,0.2-0.9,0.7-1,1.3c-0.1,0.6,0.1,1.2,0.5,1.6L130,121.8z
		 M131.7,113.2l-1.3,4.1l-2.7-2.5L131.7,113.2z"/>
	<path class="st0" d="M142.9,107.3L142.9,107.3c4.1,0,7.4-3.3,7.4-7.4l0,0c0-4.1-3.3-7.4-7.4-7.4l0,0c-2,0-3.8,0.8-5.2,2.2
		c-1.4,1.4-2.2,3.2-2.1,5.2C135.5,104,138.9,107.3,142.9,107.3z M140.2,97.2c0.7-0.7,1.7-1.1,2.7-1.1l0,0c2.1,0,3.9,1.7,3.9,3.9l0,0
		l0,0c0,2.1-1.7,3.9-3.9,3.9l0,0c-2.1,0-3.9-1.7-3.9-3.9C139,98.9,139.4,97.9,140.2,97.2z"/>
	<path class="st0" d="M149.5,65.8c-0.4,0-0.8,0.1-1.2,0.4c-0.3,0.3-0.5,0.7-0.5,1.1s0.1,0.8,0.4,1.2c0.3,0.3,0.7,0.5,1.1,0.5
		c13.2,0.8,23.9,11.4,24.9,24.6c0.1,0.8,0.8,1.5,1.6,1.5h0.1c0.4,0,0.7-0.2,1-0.4l0,0c0.4-0.3,0.5-0.8,0.5-1.3
		C176.3,78.5,164.3,66.7,149.5,65.8z"/>
	<path class="st0" d="M147,73.2c-0.4,0-0.8,0.1-1.2,0.4s-0.5,0.7-0.5,1.1c-0.1,0.9,0.6,1.6,1.4,1.7c10.5,0.8,18.7,9,19.7,19.5
		c0,0.4,0.2,0.7,0.4,0.9c0.3,0.3,0.7,0.5,1.2,0.5c0.4,0,0.8-0.1,1.1-0.4c0.4-0.3,0.5-0.8,0.5-1.3C168.6,83.5,159.1,74.1,147,73.2z"
		/>
	<path class="st0" d="M144.4,80.7L144.4,80.7c-0.8,0-1.4,0.5-1.6,1.3c-0.1,0.4,0,0.8,0.2,1.2c0.2,0.4,0.6,0.6,1.1,0.7
		c7.5,0.8,13.6,6.8,14.5,14.3c0,0.3,0.2,0.7,0.4,0.9c0.3,0.3,0.7,0.5,1.1,0.5l0,0c0.4,0,0.8-0.2,1.1-0.4l0,0
		c0.4-0.3,0.5-0.8,0.5-1.3C160.8,88.8,153.5,81.6,144.4,80.7z"/>
</g>
</svg>
