<svg width="30" height="36" viewBox="0 0 30 36" fill="none" xmlns="http://www.w3.org/2000/svg">
<path d="M12.1875 5.34375C13.3789 5.34375 14.4727 5.63672 15.4688 6.22266C16.4844 6.80859 17.2852 7.60938 17.8711 8.625C18.457 9.62109 18.75 10.7148 18.75 11.9062C18.75 13.0977 18.457 14.2012 17.8711 15.2168C17.2852 16.2129 16.4844 17.0039 15.4688 17.5898C14.4727 18.1758 13.3789 18.4688 12.1875 18.4688C10.8398 18.4688 9.58984 18.8105 8.4375 19.4941C7.28516 20.1582 6.36719 21.0664 5.68359 22.2188C5.01953 23.3711 4.6875 24.6211 4.6875 25.9688H2.8125C2.8125 24.6992 3.05664 23.4883 3.54492 22.3359C4.01367 21.2227 4.67773 20.2363 5.53711 19.377C6.39648 18.5176 7.38281 17.8438 8.49609 17.3555C7.61719 16.75 6.91406 15.9785 6.38672 15.041C5.87891 14.084 5.625 13.0391 5.625 11.9062C5.625 10.7148 5.91797 9.62109 6.50391 8.625C7.08984 7.60938 7.88086 6.80859 8.87695 6.22266C9.89258 5.63672 10.9961 5.34375 12.1875 5.34375ZM12.1875 7.21875C11.3281 7.21875 10.5371 7.43359 9.81445 7.86328C9.11133 8.27344 8.54492 8.83984 8.11523 9.5625C7.70508 10.2656 7.5 11.0469 7.5 11.9062C7.5 12.7656 7.70508 13.5566 8.11523 14.2793C8.54492 14.9824 9.11133 15.5488 9.81445 15.9785C10.5371 16.3887 11.3281 16.5938 12.1875 16.5938C13.0469 16.5938 13.8281 16.3887 14.5312 15.9785C15.2539 15.5488 15.8203 14.9824 16.2305 14.2793C16.6602 13.5566 16.875 12.7656 16.875 11.9062C16.875 11.0469 16.6602 10.2656 16.2305 9.5625C15.8203 8.83984 15.2539 8.27344 14.5312 7.86328C13.8281 7.43359 13.0469 7.21875 12.1875 7.21875ZM19.7754 17.5312H21.6504V19.4941C22.1191 19.5723 22.6562 19.7969 23.2617 20.168L24.668 18.7617L25.957 20.0508L24.5508 21.4863C24.7461 21.8574 24.8828 22.1309 24.9609 22.3066C25.0977 22.6191 25.1855 22.9023 25.2246 23.1562H27.1875V25.0312H25.0195C24.9219 25.7344 24.707 26.3008 24.375 26.7305L25.7812 28.1367L24.4629 29.4258L23.0566 28.0195C22.4512 28.3906 21.9238 28.6152 21.4746 28.6934V30.6562H19.5996V28.6934C19.1309 28.6152 18.5938 28.3906 17.9883 28.0195L16.582 29.4258L15.293 28.1367L16.6992 26.7012C16.5039 26.3301 16.3672 26.0566 16.2891 25.8809C16.1523 25.5684 16.0645 25.2852 16.0254 25.0312H14.0625V23.1562H16.2305C16.3281 22.4531 16.543 21.8867 16.875 21.457L15.4688 20.0508L16.7871 18.7617L18.1934 20.168C18.7988 19.7969 19.3262 19.5723 19.7754 19.4941V17.5312ZM20.625 21.2812C19.8242 21.2812 19.1504 21.5547 18.6035 22.1016C18.0762 22.6289 17.8125 23.293 17.8125 24.0938C17.8125 24.8945 18.0762 25.5684 18.6035 26.1152C19.1504 26.6426 19.8242 26.9062 20.625 26.9062C21.4258 26.9062 22.0898 26.6426 22.6172 26.1152C23.1641 25.5684 23.4375 24.8945 23.4375 24.0938C23.4375 23.293 23.1641 22.6289 22.6172 22.1016C22.0898 21.5547 21.4258 21.2812 20.625 21.2812ZM20.625 23.1562C20.8594 23.1562 21.0742 23.2539 21.2695 23.4492C21.4648 23.6445 21.5625 23.8594 21.5625 24.0938C21.5625 24.3281 21.4648 24.543 21.2695 24.7383C21.0742 24.9336 20.8594 25.0312 20.625 25.0312C20.5078 25.0312 20.3906 25.002 20.2734 24.9434C20.1172 24.8652 19.9805 24.748 19.8633 24.5918C19.7461 24.4355 19.6875 24.2695 19.6875 24.0938C19.6875 23.9766 19.707 23.8691 19.7461 23.7715C19.8047 23.6543 19.8828 23.5469 19.9805 23.4492C20.0781 23.3516 20.1758 23.2832 20.2734 23.2441C20.3906 23.1855 20.5078 23.1562 20.625 23.1562Z" fill="black"/>
</svg>
