<?xml version="1.0" encoding="utf-8"?>
<!-- Generator: Adobe Illustrator 26.3.1, SVG Export Plug-In . SVG Version: 6.00 Build 0)  -->
<svg version="1.1" id="圖層_1" xmlns="http://www.w3.org/2000/svg" xmlns:xlink="http://www.w3.org/1999/xlink" x="0px" y="0px"
	 viewBox="0 0 146 158.7" style="enable-background:new 0 0 146 158.7;" xml:space="preserve">
<style type="text/css">
	.st0{fill:#6868AC;}
	.st1{fill:#FFFFFF;}
</style>
<g id="圖層_2_00000055672040562840963580000009939320765040498311_">
	<g id="圖層_1-2">
		<g>
			<path class="st0" d="M80.2,58.8c-3.6,0-6.4,2.9-6.4,6.4c0,3.6,2.9,6.4,6.4,6.4c3.6,0,6.4-2.9,6.4-6.4c0,0,0,0,0-0.1
				C86.6,61.7,83.7,58.8,80.2,58.8z"/>
			<path class="st0" d="M94.8,37.5c1.5,0.7,2.2,2.6,1.4,4.1c0,0,0,0,0,0l-2.5,5c3.5-0.2,6.3-3.2,6.1-6.8c-0.2-3.5-3.2-6.3-6.8-6.1
				C89.5,34,86.8,37,87,40.6c0.1,1.2,0.4,2.3,1.1,3.3l2.6-5C91.4,37.3,93.3,36.7,94.8,37.5z"/>
			<path class="st0" d="M93.5,46.7h0.3l2.6-5.1c0.8-1.6,0.1-3.5-1.4-4.3c-1.6-0.8-3.5-0.1-4.3,1.4l0,0l-2.5,5
				C89.3,45.6,91.4,46.7,93.5,46.7z"/>
			<path class="st0" d="M59,85.4c-0.9,0-1.8-0.4-2.4-1.2c-1.1-1.3-0.9-3.3,0.5-4.3c0,0,0,0,0,0l4.4-3.5c-0.8-0.3-1.6-0.5-2.4-0.5
				c-3.6,0-6.5,2.9-6.5,6.4c0,3.6,2.9,6.5,6.4,6.5c3.6,0,6.5-2.9,6.5-6.4c0,0,0-0.1,0-0.1c0-0.4,0-0.7,0-1.1L61,84.6
				C60.5,85.1,59.7,85.4,59,85.4z"/>
			<path class="st0" d="M61.4,76.3L57,79.9c-1.3,1.1-1.5,3-0.4,4.4c0,0,0,0,0,0c1.1,1.3,3,1.6,4.4,0.5l4.4-3.5
				C65,79,63.5,77.1,61.4,76.3z"/>
			<g>
				<path class="st1" d="M78.4,6.2c-32.3,0.1-59,25-61.3,57.2c-0.2,3.5-1,7-2.3,10.3L6.3,95.6l15.1,1.3c2.7,0.2,4.9,2.2,5.3,4.9
					l0.6,2.3c0.1,0.5,0.1,1.1,0,1.6l-0.9,3.3c0.5,0.5,0.9,1.1,1.3,1.7c1.6,2.3,1.9,8.9,1.9,14.2l0.5,2.5c0,0.8,0.7,1.5,1.5,1.6l0,0
					l21.5-0.7h0.2c3.8,0,6.8,3.1,6.8,6.8v17.4l50.8,0.2l0.2-22.5c0-6.1,2.6-12,7.1-16.1c13.6-13.5,21.3-31.9,21.3-51
					C139.8,30.7,113.3,6.2,78.4,6.2z M103,76.5c-3.7,0-6.9-2.4-7.9-6l-3.3-0.4c-1.2,2.6-3.2,4.8-5.7,6.1l2,7.7
					c5,0.5,8.6,4.9,8.1,9.9c-0.5,5-4.9,8.6-9.9,8.1c-5-0.5-8.6-4.9-8.1-9.9c0.3-2.6,1.7-5,3.8-6.5l-2-7.6l0,0
					c-2.8,0-5.5-0.9-7.7-2.6L70.4,77c2.9,6.4,0.1,13.9-6.3,16.7c-6.4,2.9-13.9,0.1-16.7-6.3c-2.9-6.4-0.1-13.9,6.3-16.7
					c1.7-0.8,3.5-1.1,5.3-1.1c2.7,0,5.4,0.9,7.5,2.6l2.2-1.7c-0.8-1.6-1.1-3.4-1.1-5.2c0-0.6,0.1-1.2,0.2-1.8l-7.8-3.5
					c-1.7,1.7-4,2.7-6.4,2.7c-5,0-9.1-4.1-9.1-9.1s4.1-9.1,9.1-9.1c5,0,9.1,4.1,9.1,9.1c0,0.2,0,0.5,0,0.7l7.7,3.5
					c0.7-1,1.6-1.8,2.6-2.6l-3-7.5c-4.5,0-8.2-3.8-8.1-8.3s3.8-8.2,8.3-8.1c4.5,0,8.1,3.7,8.1,8.2c0,2.3-0.9,4.5-2.6,6l3,7.5
					c0.6-0.1,1.2-0.2,1.8-0.2c1.1,0,2.3,0.2,3.4,0.5l1.6-3.3c-5.3-4.5-5.8-12.5-1.3-17.8c4.5-5.3,12.5-5.8,17.8-1.3
					c5.3,4.5,5.8,12.5,1.3,17.8c-2.4,2.8-5.8,4.3-9.5,4.4c-0.9,0-1.8-0.1-2.7-0.3l-1.8,3.5c2.1,2.1,3.4,4.9,3.7,7.8l3.1,0.4
					c2.2-4,7.2-5.4,11.1-3.2c4,2.2,5.4,7.2,3.2,11.1C108.8,74.9,106,76.6,103,76.5z"/>
				<path class="st1" d="M84.7,92.9c0,1.6,1.3,2.8,2.8,2.8s2.8-1.3,2.8-2.8s-1.3-2.8-2.8-2.8S84.7,91.4,84.7,92.9z"/>
				<path class="st1" d="M53.4,50.7c-1.6,0-2.8,1.3-2.8,2.8c0,1.6,1.3,2.8,2.8,2.8c1.6,0,2.8-1.3,2.8-2.8
					C56.3,51.9,55,50.7,53.4,50.7z"/>
				<circle class="st1" cx="69.7" cy="39.4" r="2"/>
				<circle class="st1" cx="103" cy="68.3" r="2"/>
			</g>
			<g>
				<path d="M78.4,0c-35.5,0.1-65,27.6-67.5,63c-0.2,2.9-0.8,5.8-1.8,8.5L0.4,93.7c-1.2,3.1,0.4,6.5,3.4,7.7
					c0.5,0.2,1.1,0.3,1.6,0.4l15.3,1.3l0,0l0.4,1.6l-1.2,4.3c-0.3,1.2,0.2,2.6,1.2,3.3c0.6,0.5,1.1,1.1,1.5,1.7
					c0.7,3.6,1,7.3,0.8,11c0,0.2,0,0.5,0,0.7l0.6,2.6c0.5,3.9,3.8,6.7,7.7,6.7l0,0l21.6-0.7c0.2,0,0.3,0.1,0.5,0.2
					c0.1,0.1,0.2,0.3,0.2,0.4v17.4c0,3.6,2.9,6.4,6.4,6.5c0.1,0,0.1,0,0.2,0h50.6c3.6,0,6.4-2.9,6.4-6.4l0,0v-22.2
					c0-4.4,1.9-8.6,5.1-11.6c14.2-13.2,23.3-35,23.3-55.5C146.1,27.1,116.9,0,78.4,0z M111.2,152.6l-50.8-0.2V135
					c0-3.8-3.1-6.8-6.8-6.8h-0.2l-21.5,0.7l0,0c-0.8,0-1.5-0.7-1.5-1.6l-0.6-2.6c0-5.3-0.2-11.9-1.9-14.2c-0.4-0.6-0.8-1.1-1.3-1.7
					l0.9-3.3c0.1-0.5,0.1-1.1,0-1.6l-0.6-2.3c-0.5-2.6-2.7-4.6-5.3-4.9L6.3,95.5l8.5-21.9c1.3-3.3,2-6.7,2.3-10.3
					c2.3-32.2,29-57.1,61.3-57.1c35,0,61.4,24.4,61.4,56.9c-0.1,19.2-7.8,37.5-21.3,51c-4.5,4.2-7.1,10-7.1,16.1L111.2,152.6z"/>
				<path d="M103,60.1c-3,0-5.7,1.6-7.1,4.3L92.7,64c-0.3-3-1.6-5.7-3.7-7.8l1.6-3.5c0.9,0.2,1.8,0.3,2.7,0.3
					c7.1,0.1,13-5.5,13.1-12.7s-5.5-13-12.7-13.1c-7.1-0.1-13,5.5-13.1,12.7c-0.1,3.8,1.6,7.5,4.5,10l-1.6,3.3
					c-1.1-0.3-2.2-0.5-3.4-0.5c-0.6,0-1.2,0.1-1.8,0.2l-2.9-7.4c1.6-1.5,2.5-3.7,2.5-5.9c0-4.5-3.7-8.2-8.2-8.2s-8.2,3.7-8.2,8.2
					c0,4.5,3.6,8.2,8.1,8.2l3,7.5c-1,0.7-1.8,1.6-2.6,2.6l-7.8-3.6c0-0.2,0-0.5,0-0.7c0-5-4-9.1-9.1-9.1c-5,0-9.1,4-9.1,9.1
					c0,5,4,9.1,9.1,9.1c0,0,0,0,0.1,0c2.4,0,4.7-1,6.4-2.7l7.8,3.5c-0.1,0.6-0.2,1.2-0.2,1.8c0,1.8,0.4,3.6,1.2,5.2l-2.2,1.7
					c-2.2-1.7-4.8-2.5-7.5-2.6c-7.1-0.1-12.8,5.6-12.9,12.7c-0.1,7.1,5.6,12.8,12.7,12.9c7.1,0.1,12.8-5.6,12.9-12.7
					c0-1.9-0.4-3.8-1.2-5.5l2.1-1.7c2.2,1.7,4.9,2.6,7.7,2.6l0,0l2,7.6c-4.1,2.8-5.2,8.5-2.3,12.7c2.8,4.1,8.5,5.2,12.7,2.3
					s5.2-8.5,2.3-12.7c-1.5-2.2-3.9-3.6-6.6-3.9l-2-7.7c2.5-1.3,4.5-3.5,5.7-6.1l3.3,0.4c1.2,4.4,5.8,6.9,10.1,5.6
					c4.4-1.2,6.9-5.8,5.6-10.1c-1-3.5-4.2-6-7.9-6L103,60.1z M87,40.3c0-3.6,2.9-6.5,6.4-6.5c3.6,0,6.5,2.9,6.5,6.4
					c0,3.5-2.7,6.3-6.2,6.5h-0.2C89.9,46.7,87.1,43.8,87,40.3L87,40.3z M69.7,37.4c1.1,0,2,0.9,2,2c0,1.1-0.9,2-2,2s-2-0.9-2-2
					c0,0,0,0,0-0.1C67.8,38.3,68.6,37.4,69.7,37.4C69.7,37.4,69.7,37.4,69.7,37.4L69.7,37.4z M53.4,56.4c-1.6,0-2.8-1.3-2.8-2.8
					c0-1.6,1.3-2.8,2.8-2.8c1.6,0,2.8,1.3,2.8,2.8C56.3,55.1,55,56.4,53.4,56.4z M90.3,93c0,1.6-1.3,2.8-2.8,2.8s-2.8-1.3-2.8-2.8
					s1.3-2.8,2.8-2.8C89,90.1,90.3,91.4,90.3,93C90.3,92.9,90.3,92.9,90.3,93L90.3,93z M103,66.4c1.1,0,2,0.9,2,2c0,1.1-0.9,2-2,2
					c-1.1,0-2-0.9-2-2C101,67.3,101.8,66.4,103,66.4C102.9,66.4,103,66.4,103,66.4L103,66.4z M73.7,65.2c0-3.6,2.9-6.5,6.4-6.5
					c3.6,0,6.5,2.9,6.5,6.4c0,3.6-2.9,6.5-6.4,6.5c0,0,0,0,0,0C76.6,71.6,73.7,68.8,73.7,65.2z M65.3,82.2c0,3.6-2.9,6.5-6.4,6.5
					c-3.6,0-6.5-2.9-6.5-6.4c0-3.6,2.9-6.5,6.4-6.5c0,0,0,0,0.1,0c0.8,0,1.6,0.2,2.4,0.5c2.1,0.8,3.5,2.7,3.9,4.8
					C65.3,81.5,65.4,81.8,65.3,82.2L65.3,82.2z"/>
			</g>
		</g>
	</g>
</g>
</svg>
