<svg width="90" height="60" viewBox="0 0 90 60" fill="none" xmlns="http://www.w3.org/2000/svg">
<path d="M24.8266 6.00136C31.0583 5.92123 36.4784 9.40488 40.2065 12.6635C42.1644 14.3748 43.7408 16.0989 44.8276 17.393C45.3724 18.0416 45.7983 18.586 46.0903 18.973C46.2364 19.1666 46.3491 19.3216 46.4272 19.4301C46.4661 19.484 46.4966 19.5266 46.518 19.557C46.5288 19.5723 46.5371 19.5851 46.5434 19.5941C46.5465 19.5985 46.5493 19.602 46.5513 19.6049C46.5523 19.6063 46.5535 19.6077 46.5542 19.6088L46.5552 19.6098C46.5556 19.6103 46.5561 19.6116 44.9448 20.725L46.5561 19.6117C47.1837 20.5204 46.9559 21.7661 46.0473 22.3939C45.1386 23.0217 43.893 22.7938 43.2651 21.8851V21.8842L43.2641 21.8832C43.2615 21.8794 43.2565 21.8726 43.2495 21.8627C43.2355 21.8429 43.2131 21.811 43.1821 21.768C43.1201 21.6819 43.0244 21.5511 42.897 21.3822C42.6419 21.0441 42.26 20.5545 41.7651 19.9652C40.7726 18.7834 39.3392 17.2175 37.5747 15.6752C33.9781 12.5315 29.3343 9.76936 24.4204 10.015L24.4214 10.016C17.5506 10.3628 12.4571 15.216 8.95359 20.4476C7.22712 23.0258 5.95854 25.5931 5.12156 27.5219C4.70428 28.4835 4.39698 29.28 4.19578 29.8305C4.0954 30.1051 4.02185 30.3181 3.9741 30.4594C3.95023 30.53 3.93222 30.5833 3.92137 30.6166C3.91601 30.633 3.9128 30.6449 3.91063 30.6517L3.90867 30.6586C3.57739 31.7116 2.45521 32.2967 1.40184 31.9662C0.348 31.6354 -0.238449 30.5132 0.0922659 29.4594L2.60887 30.2494C2.43139 30.1937 2.22973 30.13 2.00047 30.058C0.0923173 29.4591 0.0920214 29.4582 0.0922659 29.4574L0.0932425 29.4555C0.0936817 29.4541 0.094581 29.4525 0.0951956 29.4506C0.0965262 29.4464 0.0979318 29.4407 0.100078 29.434C0.104411 29.4204 0.110981 29.4018 0.118633 29.3783C0.133962 29.3312 0.155312 29.2642 0.184063 29.1791C0.241619 29.0088 0.326631 28.7647 0.438946 28.4574C0.663628 27.8427 1.00012 26.9719 1.45262 25.9291C2.3553 23.8489 3.73328 21.0549 5.63035 18.2221C9.37429 12.6313 15.4402 6.46424 24.2192 6.02089H24.2202L24.8266 6.00136Z" fill="#6E777C"/>
<path d="M56.0909 12.4583C62.1408 12.4583 66.5283 15.7747 69.6388 20.2141C72.5242 24.3323 74.4339 29.567 75.7462 34.5237L76.0001 35.511L76.0401 35.7122C76.1863 36.7151 75.5522 37.6855 74.548 37.9377C73.5435 38.1901 72.5257 37.6343 72.1808 36.6809L72.1212 36.4856L71.8761 35.5354C70.6168 30.7835 68.8583 26.0724 66.3624 22.51C63.733 18.7571 60.4308 16.4583 56.0909 16.4583C51.7982 16.4583 49.0384 18.8738 47.254 21.5286C46.3607 22.8577 45.7488 24.2015 45.3605 25.22C45.1675 25.7259 45.0332 26.1436 44.9483 26.428C44.906 26.57 44.8767 26.6787 44.8585 26.7473C44.8495 26.7814 44.8424 26.8059 44.839 26.8196L44.836 26.8284C44.837 26.8287 44.837 26.8293 44.837 26.8293V26.8303L44.836 26.8313L44.7804 27.0247C44.449 27.9824 43.4394 28.5523 42.4317 28.3147C41.3568 28.0611 40.691 26.9844 40.9444 25.9094L42.8907 26.3684C40.9912 25.9202 40.9453 25.9086 40.9444 25.9075L40.9454 25.9055C40.9457 25.9041 40.946 25.9024 40.9464 25.9006C40.9472 25.8971 40.9481 25.8928 40.9493 25.8879C40.9518 25.8779 40.9552 25.8646 40.9591 25.8489C40.9669 25.8175 40.9773 25.7748 40.9913 25.7219C41.0194 25.6161 41.0606 25.468 41.1153 25.2844C41.2247 24.9176 41.3906 24.4052 41.6232 23.7952C42.0864 22.5805 42.8267 20.9455 43.9347 19.2971C46.1528 15.9971 49.9939 12.4583 56.0909 12.4583Z" fill="#6E777C"/>
<path d="M27.5349 25.7003C28.4284 25.0513 29.6786 25.2494 30.3279 26.1427C30.9768 27.0355 30.7801 28.2848 29.8884 28.9347L29.8914 28.9327C29.893 28.9316 29.8948 28.9299 29.8963 28.9288C29.8988 28.927 29.9011 28.9254 29.9031 28.9239L29.9109 28.9181C29.901 28.9262 29.8769 28.9473 29.8425 28.9796C29.7712 29.0467 29.6686 29.1525 29.5681 29.2911C29.3647 29.5718 29.22 29.9067 29.2322 30.2989C29.2551 31.0294 29.9486 33.2823 36.2429 36.464C42.8126 39.7849 46.5947 44.2359 46.0261 49.1007C45.4693 53.8649 40.8819 57.4796 34.5359 59.5314C33.4849 59.8712 32.3572 59.2943 32.0173 58.2433C31.6779 57.1924 32.2546 56.0654 33.3054 55.7257C39.2692 53.7975 41.7818 50.9516 42.0525 48.6358C42.3111 46.4208 40.6479 43.1722 34.4382 40.0333C27.9534 36.7554 25.3314 33.5428 25.2341 30.423C25.1865 28.8904 25.7796 27.7037 26.3298 26.9444C26.6062 26.5631 26.8853 26.27 27.1004 26.0675C27.2088 25.9653 27.3035 25.8831 27.3777 25.8224C27.4148 25.792 27.4471 25.7665 27.4734 25.7462C27.4865 25.7361 27.4984 25.7274 27.5086 25.7198C27.5137 25.716 27.5189 25.7123 27.5232 25.7091C27.5252 25.7076 27.5273 25.7065 27.5291 25.7052C27.53 25.7045 27.5315 25.7026 27.532 25.7023C27.5342 25.7025 27.5658 25.7439 28.6599 27.2491L27.5349 25.7003Z" fill="#6E777C"/>
<path d="M40.6326 23.8421C41.4535 23.1032 42.7178 23.1697 43.4568 23.9905C44.1947 24.8103 44.129 26.0714 43.3113 26.8108C43.3121 26.8115 43.3122 26.8119 43.3123 26.8118C43.313 26.8112 43.3144 26.8097 43.3152 26.8089C43.3172 26.8071 43.3193 26.8057 43.3211 26.804C43.325 26.8005 43.3283 26.7966 43.3318 26.7933C43.3389 26.7866 43.3455 26.7804 43.3514 26.7747C43.3631 26.7634 43.3732 26.7542 43.3807 26.7464C43.3956 26.7308 43.4035 26.7213 43.4061 26.7181C43.4034 26.7218 43.3951 26.7337 43.3856 26.7532C43.3668 26.7919 43.3106 26.9171 43.3533 27.1741C43.4486 27.7472 44.1429 29.4508 48.2615 32.095C50.1976 33.338 53.311 34.6061 56.9627 36.0921C60.5069 37.5343 64.4613 39.1486 67.7215 41.0335C70.8879 42.8642 73.9167 45.2318 74.9305 48.4202C76.0379 51.9037 74.5288 55.451 70.8045 58.972L70.6492 59.1048C69.8461 59.7233 68.6888 59.6451 67.9773 58.8929C67.2185 58.0902 67.2538 56.8236 68.0564 56.0647L68.3514 55.7815C71.3077 52.8802 71.5337 50.9368 71.1189 49.6321C70.597 47.9904 68.7904 46.2719 65.7195 44.4964C62.7422 42.775 59.0563 41.2627 55.4549 39.7972C51.9613 38.3755 48.4242 36.9531 46.1004 35.4612C41.6992 32.6356 39.7879 30.1148 39.408 27.8304C39.2133 26.6589 39.4515 25.6971 39.7869 25.0061C39.9503 24.6697 40.1317 24.4061 40.284 24.2161C40.3603 24.1209 40.4309 24.0426 40.49 23.9808C40.5197 23.9498 40.5473 23.9227 40.5711 23.8997C40.583 23.8882 40.594 23.877 40.6043 23.8675C40.6093 23.8628 40.6143 23.858 40.6189 23.8538C40.6212 23.8517 40.6236 23.8499 40.6258 23.8479C40.6268 23.8471 40.628 23.8456 40.6287 23.845C40.6303 23.8436 40.6322 23.8422 41.9246 25.2776L40.6326 23.8421Z" fill="#6E777C"/>
</svg>
