<?xml version="1.0" encoding="UTF-8"?>
<svg id="_層_1" data-name="圖層 1" xmlns="http://www.w3.org/2000/svg" width="56" height="56" viewBox="0 0 56 56">
  <defs>
    <style>
      .cls-1 {
        fill: #fff;
      }

      .cls-1, .cls-2 {
        fill-rule: evenodd;
      }
    </style>
  </defs>
  <path class="cls-2" d="M4.21,13.71l-2.25-.7c.03-1.44,.45-2.49,1.27-3.14,.53-.44,1.22-.72,2.06-.84L47.88,3.68c3.56-.47,5.38,.98,5.44,4.36l.84,38c.06,3.38-1.73,4.94-5.39,4.69l-40.95-3.24c0-.66,.01-1.28,.05-1.88l37.81,3c3.25,.22,4.85-1.19,4.78-4.22l-.65-34.06c-.1-3.06-1.72-4.36-4.88-3.89L7.12,11.23c-1.59,.16-2.56,.99-2.91,2.49Z"/>
  <g>
    <path class="cls-1" d="M46.33,4.64c2.44-.12,3.92,.78,4.46,2.72,.25,.63,.39,1.36,.42,2.2l.8,36.96v1.08c.06,3.19-1.61,4.71-5.02,4.55-.09-.03-.2-.05-.33-.05l-40.39-3.05v-3.56l37.15,2.86c.06,0,.14,.02,.23,.05,1.34,.06,2.39-.16,3.14-.66,.5-.69,.74-1.64,.7-2.86l-.66-33.12c-.03-.81-.17-1.49-.42-2.02-.06-.06-.14-.12-.23-.19-.66-.44-1.55-.63-2.67-.56-.22,0-.44,.02-.66,.05L5.33,13.69c-1.34,.16-2.24,.8-2.67,1.92L-.53,13.6c.16-1.06,.58-1.85,1.27-2.35,.56-.75,1.44-1.2,2.63-1.36L45.53,4.69c.28-.03,.55-.05,.8-.05Z"/>
    <path d="M46.76,4.63c2.18,0,3.52,.91,4.02,2.73,.25,.63,.39,1.36,.42,2.2l.8,36.96v1.08c.06,3.04-1.46,4.56-4.55,4.56-.15,0-.31,0-.47-.01-.09-.03-.2-.05-.33-.05l-40.39-3.05v-3.56l37.15,2.86c.06,0,.14,.02,.23,.05,.15,0,.3,.01,.44,.01,1.14,0,2.04-.22,2.7-.67,.5-.69,.74-1.64,.7-2.86l-.66-33.12c-.03-.81-.17-1.49-.42-2.02-.06-.06-.14-.12-.23-.19-.58-.38-1.33-.57-2.26-.57-.13,0-.27,0-.41,.01-.22,0-.44,.02-.66,.05L5.33,13.69c-1.34,.16-2.24,.8-2.67,1.92L-.53,13.6c.16-1.06,.58-1.85,1.27-2.35,.56-.75,1.44-1.2,2.63-1.36L45.53,4.69c.28-.03,.55-.05,.8-.05,.15,0,.29-.01,.43-.01m0-1.3c-.15,0-.31,0-.47,.01-.28,0-.59,.02-.91,.05L3.2,8.61c-1.48,.19-2.61,.77-3.39,1.72-.89,.71-1.43,1.75-1.63,3.09-.07,.51,.16,1.01,.59,1.29l3.19,2.02c.21,.13,.45,.2,.69,.2,.14,0,.27-.02,.41-.07,.37-.12,.66-.4,.8-.76,.18-.47,.52-.98,1.61-1.1l37.54-4.64c.18-.03,.34-.04,.5-.04,.02,0,.05,0,.07,0,.12,0,.23,0,.34,0,.6,0,1.08,.1,1.43,.29,.11,.34,.17,.75,.19,1.24l.66,33.09c.02,.8-.09,1.43-.33,1.87-.44,.22-1.03,.33-1.78,.33-.08,0-.16,0-.24,0-.13-.03-.25-.05-.37-.05l-37.12-2.86s-.07,0-.1,0c-.33,0-.64,.12-.88,.35-.27,.25-.42,.59-.42,.95v3.56c0,.68,.52,1.24,1.2,1.3l40.39,3.05s.06,0,.08,0c.09,.03,.19,.04,.28,.04,.18,0,.36,.01,.53,.01,1.92,0,3.4-.52,4.41-1.55,1-1.02,1.48-2.47,1.44-4.34v-1.05l-.8-36.99c-.04-.99-.2-1.85-.49-2.59-.67-2.33-2.54-3.62-5.26-3.62h0Z"/>
  </g>
  <g>
    <path class="cls-1" d="M32.58,16.6c.56,.53,.85,1.14,.85,1.83s-.28,1.34-.85,1.88c-.5,.53-1.1,.8-1.78,.8-.78,0-1.42-.27-1.92-.8-.53-.53-.8-1.16-.8-1.88s.26-1.3,.8-1.83c.5-.56,1.14-.84,1.92-.84,.69,0,1.28,.28,1.78,.84Zm-11.3-.84c.72,0,1.33,.28,1.83,.84,.56,.53,.84,1.14,.84,1.83s-.28,1.34-.84,1.88c-.5,.53-1.11,.8-1.83,.8s-1.38-.27-1.88-.8c-.53-.53-.8-1.16-.8-1.88s.27-1.3,.8-1.83c.5-.56,1.12-.84,1.88-.84Zm0,9.85c.72,0,1.33,.28,1.83,.84,.56,.5,.84,1.11,.84,1.83s-.28,1.31-.84,1.88c-.5,.53-1.11,.8-1.83,.8s-1.38-.27-1.88-.8c-.53-.56-.8-1.19-.8-1.88s.27-1.33,.8-1.83c.5-.56,1.12-.84,1.88-.84Zm9.52,0c.69,0,1.28,.28,1.78,.84,.56,.5,.85,1.11,.85,1.83s-.28,1.31-.85,1.88c-.5,.53-1.1,.8-1.78,.8-.78,0-1.42-.27-1.92-.8-.53-.56-.8-1.19-.8-1.88s.26-1.33,.8-1.83c.5-.56,1.14-.84,1.92-.84ZM11.8,15.76c.69,0,1.3,.28,1.83,.84,.53,.53,.8,1.14,.8,1.83s-.27,1.34-.8,1.88c-.53,.53-1.14,.8-1.83,.8-.75,0-1.39-.27-1.92-.8-.53-.53-.8-1.16-.8-1.88s.27-1.3,.8-1.83c.53-.56,1.17-.84,1.92-.84Zm-1.92,10.7c.53-.56,1.17-.84,1.92-.84,.69,0,1.3,.28,1.83,.84,.53,.5,.8,1.11,.8,1.83s-.27,1.31-.8,1.88c-.53,.53-1.14,.8-1.83,.8-.75,0-1.39-.27-1.92-.8-.53-.56-.8-1.19-.8-1.88s.27-1.33,.8-1.83Zm1.55,9.99c.72,0,1.33,.28,1.83,.84,.56,.53,.84,1.13,.84,1.78,0,.72-.28,1.34-.84,1.88-.5,.56-1.11,.84-1.83,.84s-1.38-.28-1.88-.84c-.53-.53-.8-1.16-.8-1.88,0-.66,.27-1.25,.8-1.78,.5-.56,1.12-.84,1.88-.84Zm20.83,.84c.53,.53,.8,1.13,.8,1.78,0,.72-.26,1.34-.8,1.88-.53,.56-1.14,.84-1.83,.84-.78,0-1.42-.28-1.92-.84-.53-.53-.8-1.16-.8-1.88,0-.66,.26-1.25,.8-1.78,.5-.56,1.14-.84,1.92-.84,.69,0,1.3,.28,1.83,.84Zm-8.68,1.78c0,.72-.28,1.34-.84,1.88-.5,.56-1.09,.84-1.78,.84-.78,0-1.42-.28-1.92-.84-.53-.53-.8-1.16-.8-1.88,0-.66,.27-1.25,.8-1.78,.5-.56,1.14-.84,1.92-.84,.69,0,1.28,.28,1.78,.84,.56,.53,.84,1.13,.84,1.78Zm19.47-22.47c.53,.53,.8,1.14,.8,1.83s-.27,1.34-.8,1.88c-.53,.53-1.14,.8-1.83,.8-.78,0-1.42-.27-1.92-.8-.53-.53-.8-1.16-.8-1.88s.27-1.3,.8-1.83c.5-.56,1.14-.84,1.92-.84,.69,0,1.3,.28,1.83,.84Zm-1.83,9.01c.69,0,1.3,.28,1.83,.84,.53,.5,.8,1.11,.8,1.83s-.27,1.31-.8,1.88c-.53,.53-1.14,.8-1.83,.8-.78,0-1.42-.27-1.92-.8-.53-.56-.8-1.19-.8-1.88s.27-1.33,.8-1.83c.5-.56,1.14-.84,1.92-.84Zm-.38,10.84c.72,0,1.33,.28,1.83,.84,.56,.53,.85,1.13,.85,1.78,0,.72-.28,1.34-.85,1.88-.5,.56-1.11,.84-1.83,.84s-1.38-.28-1.88-.84c-.53-.53-.8-1.16-.8-1.88,0-.66,.27-1.25,.8-1.78,.5-.56,1.13-.84,1.88-.84Z"/>
    <path d="M41.22,15.76c.69,0,1.3,.28,1.83,.85,.53,.53,.8,1.14,.8,1.83s-.27,1.34-.8,1.88c-.53,.53-1.14,.8-1.83,.8-.78,0-1.42-.27-1.92-.8-.53-.53-.8-1.16-.8-1.88s.27-1.3,.8-1.83c.5-.56,1.14-.85,1.92-.85m-10.42,0c.69,0,1.28,.28,1.78,.85,.56,.53,.85,1.14,.85,1.83s-.28,1.34-.85,1.88c-.5,.53-1.1,.8-1.78,.8-.78,0-1.42-.27-1.92-.8-.53-.53-.8-1.16-.8-1.88s.26-1.3,.8-1.83c.5-.56,1.14-.85,1.92-.85m-9.52,0c.72,0,1.33,.28,1.83,.85,.56,.53,.84,1.14,.84,1.83s-.28,1.34-.84,1.88c-.5,.53-1.11,.8-1.83,.8s-1.38-.27-1.88-.8c-.53-.53-.8-1.16-.8-1.88s.27-1.3,.8-1.83c.5-.56,1.12-.85,1.88-.85m-9.48,0c.69,0,1.3,.28,1.83,.85,.53,.53,.8,1.14,.8,1.83s-.27,1.34-.8,1.88c-.53,.53-1.14,.8-1.83,.8-.75,0-1.39-.27-1.92-.8-.53-.53-.8-1.16-.8-1.88s.27-1.3,.8-1.83c.53-.56,1.17-.85,1.92-.85m29.41,9.85c.69,0,1.3,.28,1.83,.84,.53,.5,.8,1.11,.8,1.83s-.27,1.31-.8,1.88c-.53,.53-1.14,.8-1.83,.8-.78,0-1.42-.27-1.92-.8-.53-.56-.8-1.19-.8-1.88s.27-1.33,.8-1.83c.5-.56,1.14-.84,1.92-.84m-10.42,0c.69,0,1.28,.28,1.78,.84,.56,.5,.85,1.11,.85,1.83s-.28,1.31-.85,1.88c-.5,.53-1.1,.8-1.78,.8-.78,0-1.42-.27-1.92-.8-.53-.56-.8-1.19-.8-1.88s.26-1.33,.8-1.83c.5-.56,1.14-.84,1.92-.84m-9.52,0c.72,0,1.33,.28,1.83,.84,.56,.5,.84,1.11,.84,1.83s-.28,1.31-.84,1.88c-.5,.53-1.11,.8-1.83,.8s-1.38-.27-1.88-.8c-.53-.56-.8-1.19-.8-1.88s.27-1.33,.8-1.83c.5-.56,1.12-.84,1.88-.84m-9.48,0c.69,0,1.3,.28,1.83,.84,.53,.5,.8,1.11,.8,1.83s-.27,1.31-.8,1.88c-.53,.53-1.14,.8-1.83,.8-.75,0-1.39-.27-1.92-.8-.53-.56-.8-1.19-.8-1.88s.27-1.33,.8-1.83c.53-.56,1.17-.84,1.92-.84m29.04,10.84c.72,0,1.33,.28,1.83,.84,.56,.53,.85,1.13,.85,1.78,0,.72-.28,1.34-.85,1.88-.5,.56-1.11,.85-1.83,.85s-1.38-.28-1.88-.85c-.53-.53-.8-1.16-.8-1.88,0-.66,.27-1.25,.8-1.78,.5-.56,1.13-.84,1.88-.84m-10.41,0c.69,0,1.3,.28,1.83,.84,.53,.53,.8,1.13,.8,1.78,0,.72-.26,1.34-.8,1.88-.53,.56-1.14,.85-1.83,.85-.78,0-1.42-.28-1.92-.85-.53-.53-.8-1.16-.8-1.88,0-.66,.26-1.25,.8-1.78,.5-.56,1.14-.84,1.92-.84m-9.48,0c.69,0,1.28,.28,1.78,.84,.56,.53,.84,1.13,.84,1.78,0,.72-.28,1.34-.84,1.88-.5,.56-1.09,.85-1.78,.85-.78,0-1.42-.28-1.92-.85-.53-.53-.8-1.16-.8-1.88,0-.66,.27-1.25,.8-1.78,.5-.56,1.14-.84,1.92-.84m-9.52,0c.72,0,1.33,.28,1.83,.84,.56,.53,.84,1.13,.84,1.78,0,.72-.28,1.34-.84,1.88-.5,.56-1.11,.85-1.83,.85s-1.38-.28-1.88-.85c-.53-.53-.8-1.16-.8-1.88,0-.66,.27-1.25,.8-1.78,.5-.56,1.12-.84,1.88-.84M41.22,14.46c-1.14,0-2.13,.43-2.87,1.25-.75,.77-1.15,1.71-1.15,2.72s.41,2.02,1.18,2.79c.72,.76,1.71,1.18,2.84,1.18,1.03,0,1.98-.41,2.75-1.18,.77-.77,1.18-1.74,1.18-2.8s-.41-1.98-1.18-2.75c-.75-.79-1.71-1.23-2.75-1.23h0Zm-10.42,0c-1.13,0-2.13,.43-2.87,1.25-.75,.76-1.15,1.7-1.15,2.72s.41,2.03,1.18,2.8c.71,.76,1.71,1.18,2.84,1.18,1.03,0,1.96-.41,2.7-1.18,.8-.77,1.23-1.74,1.23-2.79s-.42-1.97-1.21-2.73c-.74-.81-1.68-1.24-2.72-1.24h0Zm-9.52,0c-1.11,0-2.08,.43-2.82,1.25-.75,.77-1.15,1.71-1.15,2.72s.41,2.02,1.18,2.8c.72,.76,1.69,1.18,2.8,1.18s2.01-.41,2.75-1.18c.8-.77,1.22-1.73,1.22-2.8s-.42-1.97-1.21-2.74c-.74-.81-1.69-1.24-2.76-1.24h0Zm-9.48,0c-1.1,0-2.09,.43-2.87,1.25-.75,.75-1.15,1.7-1.15,2.72s.41,2.02,1.18,2.79c.77,.77,1.76,1.18,2.84,1.18,1.03,0,1.98-.41,2.75-1.18,.77-.77,1.18-1.74,1.18-2.8s-.41-1.98-1.18-2.75c-.75-.79-1.71-1.23-2.75-1.23h0Zm29.41,9.85c-1.13,0-2.12,.43-2.86,1.24-.76,.74-1.16,1.68-1.16,2.74s.39,1.96,1.15,2.77c.74,.79,1.73,1.21,2.87,1.21,1.03,0,1.98-.41,2.75-1.18,.79-.84,1.18-1.77,1.18-2.8s-.41-2.01-1.18-2.75c-.77-.8-1.72-1.22-2.75-1.22h0Zm-10.42,0c-1.13,0-2.11,.43-2.85,1.24-.76,.74-1.16,1.68-1.16,2.74s.39,1.96,1.15,2.77c.74,.79,1.73,1.2,2.87,1.2,1.04,0,1.99-.42,2.73-1.21,.77-.77,1.2-1.74,1.2-2.77s-.42-2.01-1.23-2.75c-.74-.8-1.67-1.22-2.7-1.22h0Zm-9.52,0c-1.1,0-2.07,.43-2.81,1.24-.76,.74-1.17,1.68-1.17,2.74s.39,1.96,1.15,2.77c.74,.79,1.72,1.2,2.82,1.2s2.03-.42,2.78-1.21c.77-.77,1.2-1.74,1.2-2.77s-.42-2.01-1.22-2.75c-.74-.8-1.69-1.22-2.75-1.22h0Zm-9.48,0c-1.09,0-2.07,.42-2.84,1.22-.77,.74-1.18,1.69-1.18,2.75s.39,1.96,1.15,2.77c.8,.8,1.78,1.21,2.87,1.21,1.03,0,1.98-.41,2.75-1.18,.79-.83,1.18-1.77,1.18-2.79s-.41-2.01-1.18-2.75c-.77-.8-1.72-1.22-2.75-1.22h0Zm29.04,10.84c-1.11,0-2.08,.43-2.82,1.25-.75,.77-1.15,1.69-1.15,2.67,0,1.04,.4,2,1.15,2.77,.74,.82,1.72,1.25,2.82,1.25s2.02-.43,2.76-1.24c.79-.77,1.21-1.73,1.21-2.78,0-.99-.42-1.92-1.21-2.69-.74-.81-1.69-1.24-2.76-1.24h0Zm-10.41,0c-1.14,0-2.13,.43-2.87,1.25-.75,.76-1.15,1.69-1.15,2.68,0,1.05,.4,2,1.15,2.77,.74,.82,1.73,1.25,2.87,1.25,1.04,0,2-.43,2.77-1.25,.75-.74,1.15-1.71,1.15-2.77,0-1-.41-1.93-1.18-2.7-.75-.79-1.71-1.22-2.75-1.22h0Zm-9.48,0c-1.14,0-2.13,.43-2.87,1.25-.75,.77-1.15,1.69-1.15,2.67,0,1.05,.4,2,1.15,2.77,.74,.82,1.73,1.25,2.87,1.25,1.04,0,1.98-.43,2.72-1.24,.79-.77,1.21-1.73,1.21-2.78,0-.99-.42-1.92-1.21-2.69-.74-.81-1.68-1.24-2.72-1.24h0Zm-9.52,0c-1.11,0-2.08,.43-2.82,1.25-.75,.77-1.15,1.69-1.15,2.67,0,1.05,.4,2,1.15,2.77,.74,.82,1.72,1.25,2.82,1.25s2.02-.43,2.76-1.24c.79-.77,1.21-1.73,1.21-2.78,0-.99-.42-1.92-1.21-2.69-.74-.81-1.69-1.24-2.76-1.24h0Z"/>
  </g>
  <path class="cls-2" d="M27.66,14.16c.94-1,2.09-1.5,3.47-1.5,1.28,0,2.38,.5,3.28,1.5,1,.97,1.5,2.06,1.5,3.28,0,1.28-.5,2.42-1.5,3.42-.91,.97-2,1.45-3.28,1.45-1.38,0-2.53-.48-3.47-1.45-.94-1-1.41-2.14-1.41-3.42s.47-2.31,1.41-3.28Z"/>
  <path class="cls-2" d="M15.93,29.13c0,1.28-.5,2.42-1.5,3.42-.91,.97-1.99,1.45-3.24,1.45-1.41,0-2.56-.48-3.47-1.45-.97-1-1.45-2.14-1.45-3.42s.48-2.34,1.45-3.28c.91-1,2.06-1.5,3.47-1.5,1.25,0,2.33,.5,3.24,1.5,1,.94,1.5,2.03,1.5,3.28Z"/>
  <path class="cls-2" d="M27.38,36.4c.91-1,2.06-1.5,3.47-1.5,1.25,0,2.33,.5,3.23,1.5,1.03,.97,1.55,2.06,1.55,3.28,0,1.31-.52,2.47-1.55,3.47-.91,.97-1.98,1.45-3.23,1.45-1.41,0-2.57-.48-3.47-1.45-.97-1-1.46-2.16-1.46-3.47,0-1.22,.48-2.32,1.46-3.28Z"/>
</svg>