<?xml version="1.0" encoding="utf-8"?>
<!-- Generator: Adobe Illustrator 27.2.0, SVG Export Plug-In . SVG Version: 6.00 Build 0)  -->
<svg version="1.1" id="圖層_1" xmlns="http://www.w3.org/2000/svg" xmlns:xlink="http://www.w3.org/1999/xlink" x="0px" y="0px"
	 viewBox="0 0 246 246" style="enable-background:new 0 0 246 246;" xml:space="preserve">
<style type="text/css">
	.st0{fill:#FFFFFF;}
</style>
<image style="overflow:visible;opacity:0.19;" width="1920" height="1145" xlink:href="1920px-Asia-Pacific_Economic_Cooperation_logo.svg.png"  transform="matrix(1 0 0 1 -1024.5106 2406)">
</image>
<g>
	<path class="st0" d="M78.9,105.5H68.2l-12.8,34.9h10.9l1.4-4.9l11.2,0.1l1.3,4.9h11.2L78.9,105.5z M70.1,128.1l3.3-10.9l3.3,10.9
		H70.1z"/>
	<path class="st0" d="M114.1,105.9c0,0-1.6-0.5-9.5-0.4c-7.9,0.1-12.2,0-12.2,0v34.9h10.8v-10.5c0,0,8.7,0.3,11-0.6
		c0,0,8-0.8,8.7-10.8C123,118.6,124.3,108.9,114.1,105.9z M112.9,117.7c0,3-2.1,3.5-2.1,3.5c-1.2,0.6-7.7,0.4-7.7,0.4v-7.2h6.1
		C113.2,114.6,112.9,117.7,112.9,117.7z"/>
	<polygon class="st0" points="135.9,131.6 154.8,131.6 154.8,140.4 125.2,140.4 125.2,105.5 154,105.5 154,114.6 135.9,114.6 
		135.9,118.9 152.4,118.9 152.4,127.2 135.9,127.2 	"/>
	<path class="st0" d="M167.8,121.2c-0.6,11.6,6.5,11.3,6.5,11.3c5.6-0.3,5.7-6,5.7-6l10.4,0.2c0.2,6.5-5.2,11.1-5.2,11.1
		c-7.1,5.3-16.3,2.6-16.3,2.6c-13.2-4.1-11.9-18.3-11.9-18.3c0.5-15.4,13.6-17,13.6-17c6.8-1.3,15,0.8,18.4,7.4c1,1.9,1.7,6,1.5,6
		c0,0-10.4,0-10.4,0c-1-4.5-4.1-5-4.1-5c-3.2-1-6.2,1.2-7.4,4.1C168.2,118.8,167.9,120.1,167.8,121.2z"/>
</g>
</svg>
