<?xml version="1.0" encoding="utf-8"?>
<!-- Generator: Adobe Illustrator 24.2.1, SVG Export Plug-In . SVG Version: 6.00 Build 0)  -->
<svg version="1.1" id="圖層_1" xmlns="http://www.w3.org/2000/svg" xmlns:xlink="http://www.w3.org/1999/xlink" x="0px" y="0px"
	 width="390px" height="376px" viewBox="0 0 390 376" style="enable-background:new 0 0 390 376;" xml:space="preserve">
<style type="text/css">
	.st0{fill:#FFFFFF;}
</style>
<g>
	<path class="st0" d="M174.5,12.4c9.1,0,16.8,2.9,23.1,9.1c7.3,6.6,12.1,14.6,14.6,24.9c1.5,5.1,6.2,9.1,11.7,9.1h79.8
		c4,0,7.7,1.5,10.6,4.8c3.3,3.3,4.8,6.2,4.8,10.2v78.7c0,5.5,3.7,10.2,9.1,11.7c9.9,2.6,17.9,7.7,24.2,15c5.9,7,8.8,15,8.8,24.2
		c0,8.8-2.6,16.1-8.4,22c-6.2,6.6-14.3,11.3-24.5,13.9c-5.5,1.5-9.1,6.2-9.1,11.7v79.8c0,4-1.5,7.3-4.8,10.2
		c-3.3,3.3-6.6,4.8-10.6,4.8h-70.6c-2.9-12.4-9.1-23.4-18.3-31.8c-11.7-11.3-25.6-16.8-41.4-16.8s-29.6,5.5-41.4,16.8
		c-9.1,8.4-15,19.4-18.3,31.8H43.5c-4,0-7.7-1.5-10.6-4.8c-3.3-3.3-4.8-6.2-4.8-10.2v-69.9c11.7-2.9,22-8.8,30.7-16.8
		c12.1-11.3,18.3-25.6,18.3-42.1s-6.2-30.7-18.3-42.1c-8.8-8.1-19.4-13.9-30.7-16.8V70.3c0-4,1.5-7.3,4.8-10.2
		c3.3-3.3,6.6-4.8,10.6-4.8h81.6c5.5,0,10.2-3.7,11.7-9.1c2.9-9.9,7.7-18.3,14.6-24.9C158,15.4,165.4,12.4,174.5,12.4 M174.5,0
		c-12.4,0-22.7,4-31.5,12.4c-8.8,8.1-14.6,18.3-18.3,30.4H43.5c-7.3,0-13.9,2.6-19.4,8.1s-8.4,11.7-8.4,19V150
		c13.5,1.5,25.2,6.6,34.8,15.7c9.5,8.8,14.6,20.1,14.6,32.9c0,13.2-4.8,24.2-14.6,32.9c-9.5,8.8-21.2,14.3-34.8,15.7v80.1
		c0,7.3,2.9,13.5,8.4,19s12.1,8.1,19.4,8.1h81.2c1.5-14.6,7-26.3,16.5-35.1c9.5-8.8,20.5-13.5,32.9-13.5c12.4,0,23.4,4.4,32.9,13.5
		c9.5,8.8,14.6,20.9,16.5,35.1h81.2c7.3,0,13.9-2.6,19.4-8.1c5.5-5.5,8.4-11.7,8.4-19v-80.1c12.4-3.3,22.3-9.1,30-17.2
		c7.7-8.1,11.7-18.3,11.7-30.4s-4-22.7-11.7-32.2c-7.7-9.1-17.9-15.4-30-19V70.3c0-7.3-2.9-13.5-8.4-19c-5.5-5.5-12.1-8.1-19.4-8.1
		H225c-3.3-12.1-9.5-22.3-18.3-30.4C197.6,4,186.9,0,174.5,0L174.5,0z"/>
	<g>
		<path class="st0" d="M202.7,94.8h-30c-2.6,0-4.4,1.8-4.8,4l-2.9,19.4c-0.4,1.8-1.5,3.3-3.3,3.7c-1.8,0.7-3.7,1.8-5.5,2.9
			c-1.8,1.1-3.7,2.2-5.5,3.3c-0.7,0.7-1.8,1.1-2.9,1.1c-0.7,0-1.5,0-1.8-0.4l-17.9-8.1c-0.7-0.4-1.5-0.4-2.2-0.4
			c-1.8,0-3.3,1.1-4.4,2.6l-15,26.3c-1.1,2.2-0.7,5.1,1.5,6.6l19,13.9c-0.4,1.1-0.4,2.6-0.4,4.4c0,1.5,0,2.9,0,4.4
			c0,1.1,0,2.6,0,4.4c0,1.5,0.4,2.9,0.4,4.4l-19,13.9c-2.2,1.5-2.6,4.4-1.5,6.6l15,26.3c0.7,1.5,2.6,2.6,4.4,2.6
			c0.7,0,1.5,0,2.2-0.4l17.9-8.1c0.7-0.4,1.5-0.4,1.8-0.4c1.1,0,2.2,0.4,2.9,1.1c1.5,1.1,3.3,2.2,5.5,3.3c1.8,1.1,4,2.2,5.9,2.9
			c1.5,0.7,2.9,2.2,2.9,3.7l2.9,19.4c0.4,2.6,2.6,4,4.8,4h30c2.6,0,4.4-1.8,4.8-4l2.9-19c0.4-1.8,1.5-3.3,3.3-4
			c1.8-0.7,3.7-1.8,5.5-2.9s3.7-2.2,5.1-3.7c0.7-0.7,1.8-1.1,2.9-1.1c0.7,0,1.5,0,1.8,0.4L247,236c0.7,0.4,1.5,0.4,2.2,0.4
			c1.8,0,3.3-1.1,4.4-2.6l15-26.3c1.1-2.2,0.7-5.1-1.5-6.6l-19-13.5c0.4-1.5,0.4-2.9,0.4-4.4c0-1.5,0-2.9,0-4.4c0-1.5,0-2.9,0-4.4
			c0-1.5-0.4-2.9-0.4-4.4l19-13.5c2.2-1.5,2.6-4.4,1.5-6.6l-15-26.3c-0.7-1.5-2.6-2.6-4.4-2.6c-0.7,0-1.5,0-2.2,0.4l-17.9,8.1
			c-0.7,0.4-1.1,0.4-1.8,0.4c-1.1,0-2.2-0.4-2.9-1.1c-1.5-1.1-3.3-2.2-5.5-3.3c-2.2-1.1-4-2.2-5.9-2.9c-1.5-0.7-2.9-2.2-2.9-3.7
			l-2.9-19.4C207.1,96.2,205.2,94.8,202.7,94.8L202.7,94.8z M150.4,143.1c1.5,0,2.6-0.4,3.7-1.5c2.6-2.6,5.5-4.4,8.4-6.2
			c3.3-1.8,6.6-3.3,9.9-4c1.8-0.7,3.7-2.2,3.7-4l1.8-15.7c0.4-2.6,2.6-4.4,4.8-4.4h9.5c2.6,0,4.8,1.8,4.8,4.4l1.8,15.4
			c0.4,2.2,1.8,3.7,4,4.4c3.7,0.7,6.6,2.2,9.9,4c2.9,1.8,5.9,4,8.4,6.6c1.1,1.1,2.2,1.5,3.7,1.5c0.7,0,1.5,0,1.8-0.4l14.6-6.6
			c0.7-0.4,1.5-0.4,1.8-0.4c1.8,0,3.3,1.1,4.4,2.6l4,7.3c1.1,2.2,0.7,4.8-1.5,6.6l-13.5,9.9c-1.5,1.1-2.2,3.3-1.8,5.1
			c0.4,1.1,0.4,2.6,0.7,3.7c0.4,2.2,0.4,4.8,0.4,7c0,2.2,0,4.8-0.4,7c-0.4,1.1-0.4,2.6-0.7,3.7c-0.4,1.8,0.4,4,1.8,5.1l13.5,9.9
			c2.2,1.5,2.6,4.4,1.5,6.6l-4,7.3c-0.7,1.5-2.6,2.6-4.4,2.6c-0.7,0-1.5,0-1.8-0.4l-15-6.6c-0.7-0.4-1.1-0.4-1.8-0.4
			c-1.1,0-2.6,0.4-3.3,1.5c-2.6,2.6-5.5,4.4-8.8,6.2c-3.3,1.8-6.6,3.3-9.9,4.4c-1.8,0.7-3.3,2.2-3.7,4l-1.8,15.7
			c-0.4,2.6-2.6,4.4-4.8,4.4h-9.5c-2.6,0-4.8-1.8-4.8-4.4l-1.8-15.7c-0.4-1.8-1.8-3.7-3.7-4c-3.3-1.1-6.6-2.6-9.9-4.4
			c-3.3-1.8-6.2-4-8.8-6.2c-1.1-0.7-2.2-1.5-3.3-1.5c-0.7,0-1.5,0-1.8,0.4l-15,6.6c-0.7,0.4-1.5,0.4-1.8,0.4c-1.8,0-3.3-1.1-4.4-2.6
			l-4-7.3c-1.1-2.2-0.7-5.1,1.5-6.6l13.5-9.9c1.5-1.1,2.2-3.3,1.8-5.1c-0.4-1.5-0.4-2.6-0.7-3.7c-0.4-2.2-0.4-4.8-0.4-7
			c0-2.2,0-4.8,0.4-7c0.4-1.1,0.4-2.6,0.7-3.7c0.4-1.8-0.4-4-1.8-5.1l-13.5-9.9c-2.2-1.5-2.6-4.4-1.5-6.6l4-7.3
			c0.7-1.5,2.6-2.6,4.4-2.6c0.7,0,1.5,0,1.8,0.4l15,6.6C148.9,143.1,149.6,143.1,150.4,143.1L150.4,143.1z"/>
		<path class="st0" d="M187.7,150.8c-10.6,0-19,5.1-25.2,15.7c-0.4,0.4-0.4,1.1-0.7,1.5c-4,15.4,0.7,27.1,14.6,34.8
			c0.4,0.4,1.1,0.4,1.5,0.7c3.3,0.7,6.6,1.5,9.9,1.5c10.6,0,19-5.1,25.2-15.7c0.4-0.4,0.4-1.1,0.7-1.5c4-15.4-0.7-27.1-14.6-35.1
			c-0.4-0.4-1.1-0.4-1.5-0.7C194.3,151.5,191,150.8,187.7,150.8L187.7,150.8z M187.7,192.5c-1.5,0-3.3-0.4-4.8-0.7
			c-0.7,0-1.1-0.4-1.8-0.7c-7-4.4-9.5-10.2-7.3-17.9c0-0.7,0.4-1.1,0.7-1.8c3.3-5.5,7.7-8.1,13.2-8.1c1.5,0,3.3,0.4,4.8,0.7
			c0.7,0,1.1,0.4,1.8,0.7c7,4.4,9.5,10.2,7.3,17.9c0,0.7-0.4,1.1-0.7,1.8C197.9,189.9,193.2,192.5,187.7,192.5L187.7,192.5z"/>
	</g>
</g>
</svg>
