<svg id="圖層_1" data-name="圖層 1" xmlns="http://www.w3.org/2000/svg" width="246" height="246" viewBox="0 0 246 246">
  <defs>
    <style>
      .cls-1 {
        fill: #fff;
      }
    </style>
  </defs>
  <g>
    <rect class="cls-1" x="123.19" y="95.72" width="9" height="54.95"/>
    <path class="cls-1" d="M86.14,150.67A27.67,27.67,0,1,1,113.81,123,27.7,27.7,0,0,1,86.14,150.67Zm0-46.34A18.67,18.67,0,1,0,104.81,123,18.69,18.69,0,0,0,86.14,104.33Z"/>
    <path class="cls-1" d="M162,150.67H145.64V95.72H162c14.08,0,25.53,12.32,25.53,27.47S176.08,150.67,162,150.67Zm-7.75-8.61H162c9.33,0,16.92-8.46,16.92-18.87s-7.59-18.86-16.92-18.86h-7.75Z"/>
  </g>
</svg>
