<svg id="圖層_1" data-name="圖層 1" xmlns="http://www.w3.org/2000/svg" width="246" height="246" viewBox="0 0 246 246">
  <defs>
    <style>
      .cls-1 {
        fill: #fff;
      }
    </style>
  </defs>
  <g>
    <path class="cls-1" d="M119.28,93.53v15.28h7.44V93.53l33.34-.06V86.08H85.94v7.39Z"/>
    <path class="cls-1" d="M152.61,102.31V146l-25.89-17.26L123,126.15l-3.73,2.59L93.39,146V102.31H85.94v57.61L123,135.21l37.06,24.71V102.31Z"/>
    <g>
      <path class="cls-1" d="M100.18,116.1c.82-1.3,2.93-1.62,4.33-1.62l8.21,0v-1.73h-2.85l-3.75,0-2.18,0c-.67,0-1.41.07-2.21.14-2.74.24-5.64,2.19-5.08,5.25.61,3.22,3.92,3.88,6.67,4.11,1.13.09,2.06.15,2.77.18s1.51,0,2.36,0l2-.06,1.18,0a6.69,6.69,0,0,0,.74-.06l.29-.07v-5.64h-8.9v1.67h5.41v2.49c-1.13,0-2.19,0-3.17-.08-2.22-.12-6.82-.54-6.13-3.9A2.37,2.37,0,0,1,100.18,116.1Z"/>
      <path class="cls-1" d="M128.28,113.79a12.16,12.16,0,0,0-5.67-1.06,12.85,12.85,0,0,0-6.2,1.45c-1.83,1-2.75,2.16-2.75,3.44s.91,2.61,2.7,3.51a14.5,14.5,0,0,0,6.59,1.32,12.84,12.84,0,0,0,6-1.31c1.73-.9,2.61-2,2.61-3.43a3.25,3.25,0,0,0-.68-2A8.21,8.21,0,0,0,128.28,113.79Zm-1.54,6.07a6.91,6.91,0,0,1-3.66,1,9.18,9.18,0,0,1-4.35-.94,2.57,2.57,0,0,1-1.65-2.23,2.78,2.78,0,0,1,1.5-2.26,7.43,7.43,0,0,1,4.13-1,7.12,7.12,0,0,1,4,1.07,2.83,2.83,0,0,1,1.59,2.27A2.6,2.6,0,0,1,126.74,119.86Z"/>
      <path class="cls-1" d="M145.78,112.79l-5.95,7.48-6.2-7.48-3.94,0,.46.54,7.85,9.16h3.74l7.76-9.69Z"/>
    </g>
  </g>
</svg>
