<svg id="圖層_1" data-name="圖層 1" xmlns="http://www.w3.org/2000/svg" width="246" height="246" viewBox="0 0 246 246">
  <defs>
    <style>
      .cls-1 {
        fill: #fff;
      }
    </style>
  </defs>
  <g>
    <g>
      <path class="cls-1" d="M116.88,181.19q-.82,0-1.65,0a41.56,41.56,0,0,1-39.87-38.33,42.34,42.34,0,0,1,.33-9.42h0a8.6,8.6,0,0,1,8.48-7.26h65.38a8.62,8.62,0,0,1,8.49,7.31,41.62,41.62,0,0,1-41.16,47.73Zm-32.71-51A4.56,4.56,0,0,0,79.65,134h0a37.62,37.62,0,0,0,35.73,43.17,37.61,37.61,0,0,0,38.7-43.12,4.58,4.58,0,0,0-4.53-3.9Zm-6.5,3.55h0Z"/>
      <path class="cls-1" d="M116.86,167.28a4.83,4.83,0,0,1-4.82-4.82v-8.67a7.71,7.71,0,1,1,9.64,0v8.67A4.82,4.82,0,0,1,116.86,167.28Zm0-23.22A3.71,3.71,0,0,0,115,151l1,.57v10.89a.82.82,0,0,0,1.64,0V151.57l1-.57a3.71,3.71,0,0,0-1.83-6.94Z"/>
      <path class="cls-1" d="M145.34,129.69H134.11V115a17.73,17.73,0,1,0-35.45,0v14.67H87.43V115a29,29,0,1,1,57.91,0Zm-7.23-4h3.23V115a25,25,0,1,0-49.91,0v10.67h3.23V115a21.73,21.73,0,1,1,43.45,0Z"/>
    </g>
    <path class="cls-1" d="M168.76,98.23a2,2,0,0,1-2-1.94,28.61,28.61,0,0,0-25.57-27.5,2,2,0,1,1,.42-4,32.56,32.56,0,0,1,29.14,31.35,2,2,0,0,1-1.93,2.06Z"/>
    <path class="cls-1" d="M160.44,100.5a2,2,0,0,1-2-1.91,23,23,0,0,0-20.17-21.67,2,2,0,1,1,.48-4A27,27,0,0,1,162.44,98.4a2,2,0,0,1-1.9,2.1Z"/>
    <path class="cls-1" d="M152.12,102.81a2,2,0,0,1-2-1.85,17.33,17.33,0,0,0-14.78-15.91,2,2,0,0,1,.57-4,21.34,21.34,0,0,1,18.2,19.58,2,2,0,0,1-1.85,2.14Z"/>
  </g>
</svg>
