<svg width="65" height="61" viewBox="0 0 65 61" fill="none" xmlns="http://www.w3.org/2000/svg">
<g clip-path="url(#clip0_2185_17499)">
<path d="M38.76 5.72545C38.76 8.94601 36.1472 11.4509 33.0594 11.4509C29.8528 11.4509 27.3587 8.94601 27.3587 5.72545C27.3587 2.62416 29.8528 0 33.0594 0C36.1472 0 38.76 2.62416 38.76 5.72545ZM32.1093 41.9866V57.2545C32.1093 59.4015 30.3278 61.0714 28.3089 61.0714C26.1711 61.0714 24.5084 59.4015 24.5084 57.2545V30.655L21.0643 36.3804C19.9954 38.1696 17.6202 38.766 15.8387 37.6925C14.0573 36.619 13.4635 34.2334 14.5323 32.4442L21.4206 20.874C23.5583 17.4149 27.24 15.2679 31.2779 15.2679H34.7221C38.76 15.2679 42.4417 17.4149 44.5794 20.874L51.4677 32.4442C52.5365 34.2334 51.9427 36.619 50.1613 37.6925C48.3798 38.766 46.0046 38.1696 44.9357 36.3804L41.6103 30.655V57.2545C41.6103 59.4015 39.8289 61.0714 37.8099 61.0714C35.6722 61.0714 34.0095 59.4015 34.0095 57.2545V41.9866H32.1093Z" fill="white" fill-opacity="0.5"/>
</g>
<defs>
<clipPath id="clip0_2185_17499">
<rect width="65" height="61" fill="white"/>
</clipPath>
</defs>
</svg>
