<?xml version="1.0" encoding="utf-8"?>
<!-- Generator: Adobe Illustrator 26.3.1, SVG Export Plug-In . SVG Version: 6.00 Build 0)  -->
<svg version="1.1" id="圖層_1" xmlns="http://www.w3.org/2000/svg" xmlns:xlink="http://www.w3.org/1999/xlink" x="0px" y="0px"
	 viewBox="0 0 146 158.7" style="enable-background:new 0 0 146 158.7;" xml:space="preserve">
<style type="text/css">
	.st0{fill:#FFFFFF;}
</style>
<g id="圖層_2_00000083051134387291828710000013116693468675563921_">
	<g id="圖層_1-2">
		<g>
			<path class="st0" d="M100.7,76.5c1.7,0,3.1,1.4,3.1,3.1l0,0v3.9h9.3v6.3h5.8h0.3h0.7c10.9,0.1,19.9-8.7,20-19.6
				c0.1-9-6-17-14.7-19.3c-1.5-0.4-2.5-1.9-2.3-3.5c0.3-1.8,0.4-3.5,0.4-5.3c0-19.7-15.9-35.6-35.6-35.6c-12.1,0-23.3,6.1-29.9,16.2
				c-0.8,1.2-2.3,1.7-3.7,1.2C41.2,19.4,27.2,26,22.7,38.8c-0.9,2.6-1.4,5.4-1.4,8.2c0,0.3,0,0.6,0,0.8v0.5c0.1,1.4-0.7,2.6-2,3.1
				C9,55.4,3.9,66.8,7.8,77.1c2.7,7.2,9.4,12.1,17,12.7h0.4h11.4v-6.3h8.9v-3.9c0.2-1.7,1.7-3,3.4-2.8c1.5,0.1,2.7,1.3,2.8,2.8v3.9
				h5.5v-3.9c0.2-1.7,1.7-3,3.4-2.8c1.5,0.1,2.7,1.3,2.8,2.8v3.9h7.9v-3.9c0.2-1.7,1.7-3,3.4-2.8c1.5,0.1,2.7,1.3,2.8,2.8v3.9h7.9
				v-3.9c0.2-1.7,1.7-3,3.4-2.8c1.5,0.1,2.7,1.3,2.8,2.8v3.9h5.5v-3.9C97.6,77.9,99,76.5,100.7,76.5z"/>
			<path class="st0" d="M70.1,147.7c0,2.6,2.1,4.7,4.7,4.7s4.7-2.1,4.7-4.7c0-2.6-2.1-4.7-4.7-4.7S70.1,145.2,70.1,147.7L70.1,147.7
				z"/>
			<path class="st0" d="M103.8,139.9c0,2.6,2.1,4.7,4.7,4.7s4.7-2.1,4.7-4.7c0-2.6-2.1-4.7-4.7-4.7S103.8,137.4,103.8,139.9
				L103.8,139.9z"/>
			<path class="st0" d="M36.3,139.9c0,2.6,2.1,4.7,4.7,4.7c2.6,0,4.7-2.1,4.7-4.7c0-2.6-2.1-4.7-4.7-4.7c0,0,0,0,0,0
				C38.3,135.3,36.3,137.4,36.3,139.9z"/>
			<path class="st0" d="M15.5,110.3c0,2.6,2.1,4.7,4.7,4.7s4.7-2.1,4.7-4.7c0-2.6-2.1-4.7-4.7-4.7C17.6,105.6,15.5,107.7,15.5,110.3
				L15.5,110.3z"/>
			<path class="st0" d="M124.5,110.3c0,2.6,2.1,4.7,4.7,4.7c2.6,0,4.7-2.1,4.7-4.7c0-2.6-2.1-4.7-4.7-4.7
				C126.6,105.6,124.5,107.7,124.5,110.3L124.5,110.3z"/>
			<g>
				<path d="M25.5,96.1h11.1v-6.3H25.3h-0.4C14,89,5.8,79.4,6.6,68.5c0.6-7.7,5.5-14.3,12.7-17c1.3-0.5,2.1-1.7,2-3.1v-0.5
					c0-0.3,0-0.6,0-0.8c0-13.5,10.9-24.5,24.4-24.6c2.8,0,5.6,0.5,8.2,1.4c1.4,0.5,2.9,0,3.7-1.2C68.4,6.2,90.4,1.5,107,12.2
					c10.1,6.6,16.2,17.8,16.2,29.9c0,1.8-0.1,3.6-0.4,5.3c-0.2,1.6,0.7,3.1,2.3,3.5c10.6,2.8,16.9,13.7,14.1,24.2
					c-2.3,8.7-10.3,14.8-19.3,14.7h-0.7h-0.3h-5.8v6.3h6.8c14.4,0,26.1-11.7,26.1-26.1c0-10.8-6.6-20.5-16.7-24.4
					c0-1.2,0.2-2.4,0.2-3.6c0.1-23.2-18.6-42-41.8-42.1c-13.4,0-26,6.3-33.9,17.1C37.4,12.7,20.5,22.4,16,38.8c-0.7,2.5-1,5-1.1,7.5
					C1.9,52.5-3.7,68,2.4,81.1c4.1,8.6,12.5,14.4,22,15C24.8,96.1,25.2,96.1,25.5,96.1z"/>
				<path d="M77.8,137.3V79.6c-0.2-1.7-1.7-3-3.4-2.8c-1.5,0.1-2.7,1.3-2.8,2.8v57.7c-5.8,1.7-9.1,7.8-7.3,13.6
					c1.7,5.8,7.8,9.1,13.6,7.3c5.8-1.7,9.1-7.8,7.3-13.6C84.1,141.1,81.3,138.4,77.8,137.3z M74.7,152.5c-2.6,0-4.7-2.1-4.7-4.6
					s2.1-4.7,4.6-4.7c2.6,0,4.7,2.1,4.7,4.6c0,0,0,0,0,0C79.4,150.4,77.3,152.5,74.7,152.5z"/>
				<path d="M111.6,129.5V116c0-1.7-1.4-3.1-3.1-3.1c0,0,0,0,0,0H92.1V79.6c-0.2-1.7-1.7-3-3.4-2.8c-1.5,0.1-2.7,1.3-2.8,2.8V116
					c0,1.7,1.4,3.1,3.1,3.1h16.4v10.4c-5.8,1.7-9.1,7.8-7.3,13.6c1.7,5.8,7.8,9.1,13.6,7.3c5.8-1.7,9.1-7.8,7.3-13.6
					C117.9,133.3,115.1,130.6,111.6,129.5z M108.5,144.6c-2.6,0-4.7-2.1-4.7-4.7c0-2.6,2.1-4.7,4.7-4.7c2.6,0,4.7,2.1,4.7,4.7
					C113.1,142.5,111,144.6,108.5,144.6z"/>
				<path d="M30.7,107.8l19.2-7.2c1.2-0.5,2-1.6,2.1-2.9v-18c-0.2-1.7-1.7-3-3.4-2.8c-1.5,0.1-2.7,1.3-2.8,2.8v15.8l-18.2,6.8
					c-4.5-4.2-11.5-3.9-15.7,0.6s-3.9,11.5,0.6,15.7s11.5,3.9,15.7-0.6C30.6,115.2,31.6,111.4,30.7,107.8L30.7,107.8z M20.1,115
					c-2.6,0-4.7-2.1-4.7-4.6s2.1-4.7,4.6-4.7c2.6,0,4.7,2.1,4.7,4.6c0,0,0,0,0,0C24.8,112.9,22.7,114.9,20.1,115z"/>
				<path d="M129.2,99.4c-2.7,0-5.3,1-7.3,2.8l-18.1-6.8V79.6c-0.2-1.7-1.7-3-3.4-2.8c-1.5,0.1-2.7,1.3-2.8,2.8v18
					c0,1.3,0.8,2.5,2.1,2.9l19,7.1c-0.2,0.9-0.3,1.7-0.3,2.6c0,6,4.9,11,10.9,11c6,0,11-4.9,11-10.9
					C140.1,104.3,135.3,99.3,129.2,99.4C129.2,99.3,129.2,99.3,129.2,99.4L129.2,99.4z M129.2,115c-2.6,0-4.7-2.1-4.7-4.7
					c0-2.6,2.1-4.7,4.7-4.7c2.6,0,4.7,2.1,4.7,4.7C133.8,112.9,131.7,115,129.2,115L129.2,115z"/>
				<path d="M60.6,76.5c-1.7,0-3.1,1.4-3.2,3.1c0,0,0,0,0,0v33.2H41c-1.7,0-3.1,1.4-3.1,3.1l0,0v13.5c-5.8,1.7-9.1,7.8-7.3,13.6
					c1.7,5.8,7.8,9.1,13.6,7.3c5.8-1.7,9.1-7.8,7.3-13.6c-1.1-3.5-3.8-6.3-7.3-7.3v-10.4h16.4c1.7,0,3.1-1.4,3.1-3.1l0,0V79.6
					C63.7,77.9,62.3,76.5,60.6,76.5L60.6,76.5z M41,144.6c-2.6,0-4.7-2.1-4.7-4.7s2.1-4.7,4.7-4.7c2.6,0,4.7,2.1,4.7,4.7l0,0
					C45.7,142.5,43.6,144.6,41,144.6z"/>
			</g>
		</g>
	</g>
</g>
</svg>
