<?xml version="1.0" encoding="UTF-8"?>
<svg id="_層_1" data-name="圖層 1" xmlns="http://www.w3.org/2000/svg" width="56" height="56" viewBox="0 0 56 56">
  <defs>
    <style>
      .cls-1 {
        fill: #fff;
      }
    </style>
  </defs>
  <path class="cls-1" d="M42.17,13.12c5.73,0,10.03,1.65,11.49,4.94,1.09,2.47,.43,5.5-1.59,8.66l-1.29-.36c1.43-2.39,1.87-4.65,1.05-6.49-1.16-2.61-4.61-3.9-9.3-3.9s-11.14,1.42-17.5,4.24c-12.44,5.52-20.6,14.32-18.23,19.64,1.16,2.61,4.62,3.91,9.31,3.91s11.14-1.42,17.5-4.24c4.57-2.03,8.57-4.51,11.68-7.09l.96,.71c-3.47,2.96-7.94,5.75-13.05,8.03-6.96,3.09-13.84,4.63-19.38,4.63s-10.03-1.65-11.49-4.94c-2.87-6.47,6.29-16.81,20.48-23.1,6.96-3.09,13.84-4.63,19.38-4.63m0-1.78c-6.01,0-13.15,1.7-20.1,4.79C6.77,22.91-2.62,34.09,.69,41.58c1.72,3.87,6.38,6,13.12,6,6.01,0,13.15-1.7,20.1-4.78,5.12-2.28,9.79-5.15,13.49-8.3,.41-.35,.64-.87,.63-1.42-.02-.54-.29-1.05-.72-1.37l-.96-.71c-.32-.23-.69-.35-1.06-.35-.41,0-.81,.14-1.14,.41-3.07,2.56-6.97,4.92-11.26,6.84-5.85,2.59-11.97,4.08-16.78,4.08-4.08,0-6.87-1.04-7.68-2.85-.81-1.83,.4-4.75,3.24-7.81,3.28-3.54,8.28-6.9,14.08-9.48,5.85-2.6,11.97-4.09,16.78-4.09,4.07,0,6.87,1.04,7.67,2.85,.69,1.55-.14,3.49-.95,4.85-.29,.48-.33,1.06-.13,1.58,.21,.52,.64,.91,1.18,1.06l1.29,.36c.16,.04,.32,.06,.47,.06,.6,0,1.17-.3,1.5-.82,2.44-3.8,3.03-7.37,1.72-10.34-1.72-3.87-6.38-6-13.12-6h0Z"/>
  <path class="cls-1" d="M51.29,27.01h0m0,0l-1.82,12.02-2.81-6.82-6.98-2.95,11.61-2.26m0-1.78s-.05,0-.07,0c-.1,0-.21,.02-.31,.04l-11.58,2.25c-.77,.15-1.35,.78-1.43,1.56-.08,.78,.36,1.52,1.08,1.83l6.31,2.66,2.53,6.14c.28,.67,.93,1.1,1.65,1.1,.07,0,.14,0,.21-.01,.79-.1,1.43-.71,1.55-1.5l1.8-11.91c.03-.12,.04-.24,.04-.37,0-.98-.79-1.78-1.77-1.78h-.01Zm0,3.56h0Z"/>
  <g>
    <path d="M45.28,32.43c-3.11,2.59-7.11,5.06-11.68,7.09-12.44,5.52-24.44,5.67-26.81,.33-2.37-5.32,5.79-14.12,18.23-19.64,12.44-5.52,24.44-5.67,26.8-.34,.82,1.84,.38,4.1-1.05,6.49l1.29,.36c2.02-3.16,2.68-6.19,1.59-8.66-2.87-6.46-16.69-6.6-30.87-.31C8.62,24.04-.54,34.38,2.32,40.85c2.87,6.46,16.69,6.6,30.87,.31,5.12-2.28,9.58-5.07,13.05-8.03l-.96-.71Z"/>
    <g>
      <path class="cls-1" d="M32.67,55.07s16.33-27.64-7.28-41.87c-1.91-1.57-4.2-3.12-6.92-4.64,0,0,16.24,18.71-2.08,44.04,0,0,12.99-8.39,16.45-19.34,1.14,6.09,1.42,13.39-.17,21.81Z"/>
      <path d="M32.67,56c-.11,0-.22-.02-.33-.06-.42-.16-.67-.6-.58-1.04,1.17-6.22,1.4-12.31,.68-18.16-4.63,9.5-15.06,16.32-15.55,16.64-.38,.24-.87,.18-1.18-.14-.31-.32-.34-.82-.08-1.18,17.64-24.41,2.77-42.15,2.13-42.89-.29-.34-.3-.84-.02-1.19,.28-.35,.78-.44,1.17-.22,2.66,1.49,5.01,3.07,7,4.69,24.04,14.54,7.71,42.82,7.54,43.1-.17,.29-.48,.46-.8,.46Zm.17-23.66s.04,0,.06,0c.42,.03,.78,.34,.86,.76,.97,5.18,1.2,10.57,.69,16.08,3.37-8.57,7.03-25.2-9.53-35.17-.04-.02-.07-.05-.11-.08-.99-.81-2.08-1.61-3.25-2.39,3.5,6.22,8.58,20-1.47,37.12,4.02-3.35,9.79-9.07,11.87-15.66,.12-.39,.48-.65,.88-.65Z"/>
    </g>
    <polygon points="46.66 32.22 49.47 39.03 51.29 27.01 39.68 29.27 46.66 32.22"/>
    <path d="M17.23,45.62s11.01-1.02,21.9-7.5l-.71-.99s-8.4,5.1-20.95,6.82l-.24,1.67Z"/>
    <g>
      <path class="cls-1" d="M13.39,9.01c0,4.46,3.62,8.08,8.08,8.08s8.08-3.62,8.08-8.08S25.94,.93,21.48,.93s-8.08,3.61-8.08,8.09"/>
      <path d="M21.48,18.03c-4.97,0-9.01-4.04-9.01-9.01S16.51,0,21.48,0s9.01,4.04,9.01,9.01-4.04,9.01-9.01,9.01Zm0-16.17c-3.95,0-7.16,3.21-7.16,7.16s3.21,7.16,7.16,7.16,7.15-3.21,7.15-7.16-3.21-7.16-7.15-7.16Z"/>
    </g>
    <polygon points="39.43 36.52 38.42 37.13 39.13 38.12 39.43 36.52"/>
  </g>
</svg>