<svg id="圖層_1" data-name="圖層 1" xmlns="http://www.w3.org/2000/svg" width="246" height="246" viewBox="0 0 246 246">
  <defs>
    <style>
      .cls-1 {
        fill: #fff;
      }
    </style>
  </defs>
  <g>
    <path class="cls-1" d="M129.6,118.66a23.94,23.94,0,0,1-1.79-1.84l-4,2.38c.38.48.78.94,1.19,1.38.57.61,1.18,1.18,1.8,1.73a27.61,27.61,0,0,0,3.11,2.39c.45.29.91.55,1.37.81a28.32,28.32,0,0,1,6.43-2.17,21.48,21.48,0,0,1-8.1-4.68Z"/>
    <path class="cls-1" d="M119.4,111.56l4-2.4c-.13-.38-.26-.76-.37-1.15-.16-.61-.3-1.21-.42-1.82a23,23,0,0,1-.35-5.47q.06-.9.18-1.8a23.08,23.08,0,0,1,2.06-6.83,22.18,22.18,0,0,1,8.36-9.28h0c.49-.3,1-.57,1.48-.83l.49-.23c.35-.17.69-.32,1-.47l.57-.23q.51-.19,1-.36l.57-.18c.37-.11.74-.2,1.12-.29l.48-.12c.54-.11,1.07-.21,1.61-.28l.15,0c.49-.06,1-.11,1.48-.13l.53,0c.25,0,.49,0,.74,0l.28,0c.43,0,.85,0,1.28.06l.64,0c.58.06,1.15.14,1.73.25l.17,0c.63.13,1.25.28,1.87.45l.56.19c.43.13.85.27,1.27.43l.67.28c.38.16.75.33,1.12.51s.45.23.67.35c.37.19.72.4,1.08.61.21.13.42.26.62.4.38.24.74.51,1.1.78l.52.38c.52.42,1,.86,1.51,1.33a2.4,2.4,0,0,0,.37.28l.12.07a2.44,2.44,0,0,0,.28.14l.16,0a1.25,1.25,0,0,0,.26.07.58.58,0,0,0,.19,0l.24,0,.26,0a1.25,1.25,0,0,0,.19,0,2.33,2.33,0,0,0,.25-.07l.18-.06L162,86l.14-.08a1.75,1.75,0,0,0,.33-.28l0,0a2.32,2.32,0,0,0-.06-3.26c-.59-.57-1.21-1.1-1.84-1.6-.2-.17-.42-.31-.63-.47-.43-.33-.87-.65-1.32-1l-.77-.47c-.42-.27-.86-.52-1.29-.75-.27-.15-.55-.29-.82-.42-.45-.22-.9-.42-1.36-.62l-.81-.34c-.51-.19-1-.36-1.53-.52-.23-.07-.46-.16-.69-.22-.75-.22-1.51-.4-2.27-.55l-.19,0c-.7-.13-1.4-.23-2.11-.3-.26,0-.51,0-.77,0-.52,0-1-.07-1.56-.08s-.82,0-1.23,0l-.65,0c-.6,0-1.2.09-1.8.17h-.17c-.65.09-1.3.21-1.95.35l-.6.14c-.45.11-.9.23-1.34.36l-.71.22c-.41.13-.82.28-1.23.43l-.69.28c-.43.18-.85.37-1.27.57l-.59.28c-.61.31-1.21.64-1.79,1h0a25.85,25.85,0,0,0-4.33,3.34,27.36,27.36,0,0,0-7.53,27C118.85,110,119.11,110.8,119.4,111.56Z"/>
    <path class="cls-1" d="M123.44,161a23,23,0,0,1-1.82-6.93c-.06-.6-.1-1.19-.11-1.79a23.1,23.1,0,0,1,.67-6,28.07,28.07,0,0,1-5.23,3.95,28,28,0,0,0,.39,6.4,27.52,27.52,0,0,0,2.85,8.16c.35.64.72,1.26,1.12,1.88a26.71,26.71,0,0,0,2.72,3.5l.18.16a2.28,2.28,0,0,0,3.08,0,2.34,2.34,0,0,0,.68-1.16,2.29,2.29,0,0,0-.55-2.09A22.34,22.34,0,0,1,123.44,161Z"/>
    <path class="cls-1" d="M150.73,125.86h0c-.66-.19-1.33-.35-2-.49-.1,0-.21,0-.31-.06l-.33,0c-.46-.09-.92-.16-1.38-.22L146,125h-.22l-1.08-.07-.75,0h-.44c-.33,0-.65,0-1,0l-.54,0c-.65,0-1.29.1-1.94.18l-.35.06c-.53.08-1,.17-1.57.28l-.63.14-1.3.34-.63.19c-.47.15-.94.32-1.41.5l-.43.16h0c-.59.24-1.17.49-1.73.77l-.45.23-.26.14c-.34.18-.68.36-1,.56l-.57.35c-.38.23-.76.48-1.13.73l-.53.38c-.45.32-.88.66-1.31,1l-.25.2c-.5.42-1,.86-1.45,1.32l-.4.42c-.33.34-.66.69-1,1.05l-.25.3,4,2.39.51-.53.33-.33q.59-.58,1.2-1.11c.06-.05.13-.09.19-.15.36-.29.72-.58,1.09-.85l.44-.3c.31-.21.62-.42.94-.61l.46-.29c.36-.2.71-.4,1.08-.58a3.84,3.84,0,0,1,.35-.18c.48-.24,1-.46,1.46-.66l.34-.12c.39-.15.78-.29,1.18-.42l.51-.15.14,0,.94-.25.52-.11c.42-.09.85-.17,1.28-.23l.31-.05c.53-.08,1.06-.12,1.6-.16h.43c.28,0,.55,0,.83,0h.35l.62,0c.36,0,.71,0,1.07.07l.62.07c.38,0,.75.11,1.13.17l.08,0,.45.08c.55.11,1.1.24,1.65.4a22.27,22.27,0,0,1,15.3,16.2,21.79,21.79,0,0,1,.57,3.63c.05.61.07,1.24.07,1.86a2.25,2.25,0,0,0,.17.9,2.29,2.29,0,0,0,2.11,1.42h0A2.3,2.3,0,0,0,170,152,27,27,0,0,0,150.73,125.86Z"/>
    <path class="cls-1" d="M117.24,147.61h0a26.31,26.31,0,0,0,4.66-4h0l-3.1-1.85h0l-1-.56a.52.52,0,0,0-.11.1c-.39.38-.78.74-1.19,1.09l-.05,0c-.06.06-.14.11-.21.17q-.5.41-1,.78l-.32.23c-.43.3-.87.59-1.32.86l-.09,0c-.43.26-.87.49-1.31.71l-.35.17c-.47.22-.94.43-1.43.62l-.12.05c-.45.17-.91.33-1.37.47l-.37.11c-.49.14-1,.28-1.5.38a.76.76,0,0,1-.16,0c-.46.1-.92.18-1.39.24l-.38.06c-.51.06-1,.11-1.54.13h-.19l-.9,0h-.89c-.51,0-1-.06-1.55-.12l-.17,0c-.47-.06-.94-.13-1.41-.22l-.39-.08c-.52-.11-1-.23-1.54-.38l-.1,0q-.72-.21-1.44-.48l-.38-.15c-.51-.2-1-.41-1.5-.64s-1.1-.56-1.62-.87A22.62,22.62,0,0,1,86.41,110c.4-.44.81-.86,1.24-1.27a21.76,21.76,0,0,1,12.78-5.87,2.3,2.3,0,0,0,2.06-2.52v0a2.84,2.84,0,0,0-.09-.42.58.58,0,0,0-.05-.14l-.11-.27-.09-.14a1.7,1.7,0,0,0-.15-.22l-.12-.13-.17-.18-.15-.11a1.37,1.37,0,0,0-.2-.13l-.17-.09a1.45,1.45,0,0,0-.22-.09l-.19-.06-.24,0-.2,0a2.28,2.28,0,0,0-.37,0,25.58,25.58,0,0,0-3.83.69c-.39.1-.77.21-1.16.33-.75.23-1.5.49-2.23.79a27,27,0,0,0-16.35,20.4c-.13.74-.22,1.49-.29,2.23a27.84,27.84,0,0,0,.22,6.59,28.5,28.5,0,0,0,1,4.22,27.08,27.08,0,0,0,1.64,4,26.74,26.74,0,0,0,12.16,12c.71.34,1.43.64,2.15.91.52.2,1,.38,1.58.55l.74.21a25.57,25.57,0,0,0,4,.78,28.14,28.14,0,0,0,2.89.16,27,27,0,0,0,4.22-.34,27.7,27.7,0,0,0,4.11-1,26.85,26.85,0,0,0,6.4-3.15Z"/>
    <path class="cls-1" d="M143.86,138.65a12.57,12.57,0,0,0-9.6,4.48l-6.43-3.81L126,138.24h0l-4-2.36h0l-1.8-1.07-6-3.56a12.77,12.77,0,0,0,0-8.79l6.49-3.86,1.82-1.08,4-2.36,1.82-1.08,5.93-3.52a12.62,12.62,0,0,0,9.62,4.49,12.88,12.88,0,1,0-12.69-12.88,13.08,13.08,0,0,0,.77,4.4L126,110.07l-1.83,1.09-4,2.36-1.82,1.08-6.49,3.86a12.59,12.59,0,0,0-9.62-4.5,12.89,12.89,0,0,0,0,25.77,12.59,12.59,0,0,0,9.62-4.5l5.55,3.29.38.22,1.48.89h0l.33.19h0l3.45,2.05.54.32,1.3.77.52.31,6.49,3.85a12.66,12.66,0,1,0,11.91-8.47Zm0-44.76a8.28,8.28,0,1,1-8.09,8.27A8.19,8.19,0,0,1,143.86,93.89Zm-41.57,41.23a8.28,8.28,0,1,1,8.09-8.28A8.19,8.19,0,0,1,102.29,135.12Zm41.57,24.68a8.19,8.19,0,0,1-8.09-8.27,8.35,8.35,0,0,1,1-4,1.67,1.67,0,0,0,.12-.16c0-.08.08-.17.12-.25a8.05,8.05,0,0,1,6.84-3.88,8.28,8.28,0,0,1,0,16.55Z"/>
  </g>
</svg>
