<svg xmlns="http://www.w3.org/2000/svg" width="76.66" height="77.01" viewBox="0 0 76.66 77.01">
  <defs>
    <style>
      .cls-1 {
        fill: #fff;
      }
    </style>
  </defs>
  <g id="圖層_2" data-name="圖層 2">
    <g id="圖層_1-2" data-name="圖層 1">
      <g id="g214">
        <path id="path216" class="cls-1" d="M39.49,39.1c0-17.26,7.83-31.74,18.31-35.41l.31-.12a.91.91,0,0,0,.56-.81,1,1,0,0,0-.78-.86,13.57,13.57,0,0,0-4.37-.1,26.24,26.24,0,0,0-5.87,1.35C33.44,8.23,25.13,25,27.88,43c0,0,.07.42.19,1.08,0,0,0,.14,0,.16a.45.45,0,0,1-.47.51.65.65,0,0,1-.52-.39,12.71,12.71,0,0,1-1-2.48A40.91,40.91,0,0,1,24.66,30.3,43,43,0,0,1,34.2,3.73,15.19,15.19,0,0,1,35.77,2.2l.52-.45a.93.93,0,0,0,.32-.7.94.94,0,0,0-.77-.9A8.54,8.54,0,0,0,33.44,0,35.56,35.56,0,0,0,9.67,12.47,40.69,40.69,0,0,0,0,39.05c0,17.1,10.24,32,25.49,37.17a17.08,17.08,0,0,0,4.28.78s1.52.12,1.42-.86a1.18,1.18,0,0,0-.17-.47,2.65,2.65,0,0,0-.48-.47l-1.08-.8A40.07,40.07,0,0,1,12,41.33c0-1.16.05-2.32.15-3.47a13,13,0,0,1,.16-1.3.55.55,0,0,1,.5-.47s.38,0,.48.47c0,0,.1.56.22,1.46a44.45,44.45,0,0,0,40.12,38.6,14.51,14.51,0,0,0,4.14-.22c.63-.21.93-.55.93-1a.78.78,0,0,0-.59-.79l-.31-.12C47.32,70.87,39.49,56.38,39.49,39.12"/>
        <path id="path218" class="cls-1" d="M68.13,66.62l-.26-.05a11.71,11.71,0,0,1-5.69-2.91A22.61,22.61,0,0,1,57.64,57a47.84,47.84,0,0,1-3.41-17.65v-.54a47.81,47.81,0,0,1,3.41-17.64,22.61,22.61,0,0,1,4.54-6.69,11.71,11.71,0,0,1,5.69-2.91l.26,0a.74.74,0,0,0,.62-.75.78.78,0,0,0-.44-.63,2.58,2.58,0,0,0-.42-.17c-6.29-1.66-12.22,3-12.22,3-5.53,4-8.27,11.63-8.27,11.63A43.45,43.45,0,0,0,45,38.72v.67A43.45,43.45,0,0,0,47.4,53.57s2.74,7.59,8.27,11.62c0,0,5.93,4.64,12.22,3a2.58,2.58,0,0,0,.42-.17.8.8,0,0,0,.44-.63.74.74,0,0,0-.62-.75"/>
        <path id="path220" class="cls-1" d="M76.23,59.53l-.26-.1a8.29,8.29,0,0,1-.91-.32c-5-2-8-10.31-8-19.92v-.28c0-9.61,3-18,8-19.92a8.29,8.29,0,0,1,.91-.32,1.78,1.78,0,0,0,.26-.1.65.65,0,0,0,.43-.58.67.67,0,0,0-.31-.56,1.07,1.07,0,0,0-.16-.09,6.94,6.94,0,0,0-3.3-.29C65.35,18,59.47,27.3,59.36,38.8h0v.51h0c.11,11.49,6,20.78,13.53,21.74a7,7,0,0,0,3.3-.28l.16-.1a.63.63,0,0,0-.12-1.14"/>
      </g>
    </g>
  </g>
</svg>
