<svg width="65" height="61" viewBox="0 0 65 61" fill="none" xmlns="http://www.w3.org/2000/svg">
<path d="M18.6875 13.6585C18.6875 16.7909 16.0469 19.317 13 19.317C9.85156 19.317 7.3125 16.7909 7.3125 13.6585C7.3125 10.6272 9.85156 8 13 8C16.0469 8 18.6875 10.6272 18.6875 13.6585ZM6.5 29.6235C5.48438 30.735 4.875 32.2506 4.875 33.8673C4.875 35.5851 5.48438 37.1008 6.5 38.2123V29.6235ZM21.125 24.6723C18.0781 27.2995 16.25 31.2402 16.25 35.4841C16.25 39.0206 17.4688 42.153 19.5 44.6791V46.801C19.5 48.6198 17.9766 50.0344 16.25 50.0344H9.75C7.92188 50.0344 6.5 48.6198 6.5 46.801V44.1739C2.64063 42.3551 0 38.4143 0 33.8673C0 27.7036 5.07813 22.5504 11.375 22.5504H14.625C17.0625 22.5504 19.2969 23.3587 21.125 24.6723ZM45.5 46.801V44.6791C47.5313 42.153 48.75 39.0206 48.75 35.4841C48.75 31.2402 46.8203 27.2995 43.7734 24.6723C45.6016 23.3587 47.9375 22.5504 50.375 22.5504H53.625C59.8203 22.5504 65 27.7036 65 33.8673C65 38.4143 62.2578 42.3551 58.5 44.1739V46.801C58.5 48.6198 56.9766 50.0344 55.25 50.0344H48.75C46.9219 50.0344 45.5 48.6198 45.5 46.801ZM57.6875 13.6585C57.6875 16.7909 55.0469 19.317 52 19.317C48.8516 19.317 46.3125 16.7909 46.3125 13.6585C46.3125 10.6272 48.8516 8 52 8C55.0469 8 57.6875 10.6272 57.6875 13.6585ZM58.5 29.6235V38.2123C59.5156 37.1008 60.125 35.5851 60.125 33.9684C60.125 32.2506 59.5156 30.735 58.5 29.6235ZM32.5 20.9337C28.8438 20.9337 26 18.1044 26 14.4668C26 10.9303 28.8438 8 32.5 8C36.0547 8 39 10.9303 39 14.4668C39 18.1044 36.0547 20.9337 32.5 20.9337ZM24.375 35.4841C24.375 37.2018 24.9844 38.6164 26 39.829V31.2402C24.9844 32.3517 24.375 33.8673 24.375 35.4841ZM39 31.2402V39.829C40.0156 38.7175 40.625 37.2018 40.625 35.5851C40.625 33.8673 40.0156 32.3517 39 31.2402ZM45.5 35.4841C45.5 40.0311 42.7578 43.9718 39 45.7906V50.0344C39 51.8532 37.4766 53.2679 35.75 53.2679H29.25C27.4219 53.2679 26 51.8532 26 50.0344V45.7906C22.1406 43.9718 19.5 40.0311 19.5 35.4841C19.5 29.3204 24.5781 24.1671 30.875 24.1671H34.125C40.3203 24.1671 45.5 29.3204 45.5 35.4841Z" fill="white" fill-opacity="0.5"/>
</svg>
