<svg width="65" height="61" viewBox="0 0 65 61" fill="none" xmlns="http://www.w3.org/2000/svg">
<path d="M20.4286 5H48.7143H51.8571C53.5268 5 55 6.48738 55 8.17308V39.9038C55 41.6887 53.5268 43.0769 51.8571 43.0769V49.4231C53.5268 49.4231 55 50.9105 55 52.5962C55 54.381 53.5268 55.7692 51.8571 55.7692H48.7143H20.4286C15.2232 55.7692 11 51.5054 11 46.25V14.5192C11 9.26382 15.2232 5 20.4286 5ZM20.4286 43.0769C18.6607 43.0769 17.2857 44.5643 17.2857 46.25C17.2857 48.0349 18.6607 49.4231 20.4286 49.4231H45.5714V43.0769H20.4286ZM23.5714 19.2788C23.5714 20.1713 24.2589 20.8654 25.1429 20.8654H44C44.7857 20.8654 45.5714 20.1713 45.5714 19.2788C45.5714 18.4856 44.7857 17.6923 44 17.6923H25.1429C24.2589 17.6923 23.5714 18.4856 23.5714 19.2788ZM25.1429 24.0385C24.2589 24.0385 23.5714 24.8317 23.5714 25.625C23.5714 26.5174 24.2589 27.2115 25.1429 27.2115H44C44.7857 27.2115 45.5714 26.5174 45.5714 25.625C45.5714 24.8317 44.7857 24.0385 44 24.0385H25.1429Z" fill="white" fill-opacity="0.5"/>
</svg>
