<svg id="圖層_1" data-name="圖層 1" xmlns="http://www.w3.org/2000/svg" width="246" height="246" viewBox="0 0 246 246">
  <defs>
    <style>
      .cls-1 {
        fill: #fff;
      }
    </style>
  </defs>
  <g>
    <g>
      <path class="cls-1" d="M125.13,175.53a48.07,48.07,0,0,1-47-37.48L86,136.28a40,40,0,0,0,60.36,25c1-.6,1.89-1.24,2.77-1.91l4.85,6.44c-1.06.8-2.18,1.57-3.32,2.29A47.71,47.71,0,0,1,125.13,175.53Z"/>
      <polygon class="cls-1" points="164.61 146.83 136.72 160.77 150.11 163.39 154.47 176.31 164.61 146.83"/>
    </g>
    <g>
      <path class="cls-1" d="M121.45,84.43c0-.05,0,0,0,0S121.46,84.44,121.45,84.43Z"/>
      <path class="cls-1" d="M116.68,122.08c-4.07,2.35-2,10.44-.2,2.65C116.72,124.05,117.66,122.29,116.68,122.08Z"/>
      <path class="cls-1" d="M144.22,105.19c-.68.26-.55,1.16-.14,1.57A1.81,1.81,0,0,0,144.22,105.19Z"/>
      <path class="cls-1" d="M144.31,109.19c-.49.22.68,2.62.69,1.26,2.45.72-1.23,1.68,1.28,1.79-.36-.42-.1-1.17.21-.36.56,1.33-1.22.28-1,1.69.69-1.53,1.11,1.7,1.44,0C147.52,112.42,143.93,106.15,144.31,109.19Z"/>
      <path class="cls-1" d="M154.73,118.87c-.9-1.44-7.62-3.16-4.9-.52,2.56-.3,1.69,3.4,4,1.89.86-.91,1.33,1.19,2.49,1C154.9,119.81,156,119.29,154.73,118.87Z"/>
      <path class="cls-1" d="M144.44,118.51c-.07.56-.09.75.41.56.11-2.23,0-.79.81-.06,1.18-1.37-2.12-2.7-.32-2.77C148.93,117.3,143.63,113.56,144.44,118.51Z"/>
      <path class="cls-1" d="M140,119.59c-2.07-1.27-.31,1,1.14.67C149.62,121.2,146.52,120,140,119.59Z"/>
      <path class="cls-1" d="M140.44,107.66c-.45-.16-1.07.24-.69.72A.6.6,0,0,0,140.44,107.66Z"/>
      <path class="cls-1" d="M134.76,114.35c2,.48,2.26,5.7,4.36,4.48C139.66,117.72,136.25,113.81,134.76,114.35Z"/>
      <path class="cls-1" d="M144.33,114.22c-1.08-2-2.83,1.85-3.82,1.75C140.8,120.74,144.45,117.29,144.33,114.22Z"/>
      <path class="cls-1" d="M127.94,69.68a39.91,39.91,0,1,0,39.9,39.91A40,40,0,0,0,127.94,69.68Zm0,6.24a33.59,33.59,0,0,1,25.14,11.31c-3.18-1-15.71-2.06-17.45-1.67a53,53,0,0,1-9.3-1.81c-.82-.67-7.58,1.11-5,1.71-.34.09-2.13-.72-1.52.18.7.67-1.43-1.28-.77-.43,0,2,1.71.9,1.18,1.42-.12,0-1.13,2-.58.17-1.38-2.51-3.38-2.2-1.48.08-3-1.9-4.49,1.28-6.51-.23-1.24-.14-.24.32-.25.92a3.79,3.79,0,0,0-2.05.71c1.2.36-.87.22-.72-.43.3-.25-.31-.2-.32-.36,4.36.53.72-1.41-1.27-1.26-.66-.94-2.09-.6-3.51.21A33.57,33.57,0,0,1,127.94,75.92Zm-11,24.2c-1.53,0-3.79-5.07-.66-4.31.47.56-.54.54-.74.89C116.61,97.74,118.08,99.44,117,100.12Zm-21,.07c2.07-2,6.78-5.22,7-.59-1.75-.42-.06,1.3.83-.34-.13-1.85.58,0,.57-.79-.59-.48-3-1.3-2-2.43,1.93,1.37,3.85,6.19,4.1,2.67.92-1.18.7,1.74,1.8,1.51.56.62,2.73-.77,2.66.64.33,2.81-10.5,2.1-9.48-.47C101.23,98.43,94.83,102.35,96,100.19Zm1.06-4.07c.36.52.57,1-.43,1C96.8,96.81,96.94,96.47,97.09,96.12Zm10-5.88c-3.1.12-.45.46-1.48,1.08-1.13-1.12-.31,1.41-1.51,1.08-.56-.43-1.73.27-2.42.15,3.42-1,.68-4.52,4.21-4.59C102.38,91.24,107.17,89.27,107.12,90.24Zm.69,7.42c.12-1.47,1.13-2.41,2.09-.92,1.34-2.17.71-.23,2.8,1.16C111.79,98.27,108.28,98.25,107.81,97.66Zm-7.7-7a2.55,2.55,0,0,0,1.21-.12c.29-.38,1.35,1.35.25,1.26.21-.47-.86-1.36-.92.09.57.7-1.51,1.71-2.65,2.34A34.5,34.5,0,0,1,100.11,90.66Zm55.79,37.66a4.64,4.64,0,0,0-.41-1.86c-2.08-8-4.91,1.53-4.45-4.49-2.73,0-10.54,3-9.9,7.73-1.83,5.11,3.3.49,6,1.08,1.61.7.14,2.16,2.09.49-1.07,1.16.77.61-.9,1.3.65,1.06,2,1.23,3.42.79-.45.46-.93.9-1.41,1.33-.21-.15-.31,0-.39.34a33.63,33.63,0,0,1-55.31-20.49c11.12-3.76,5.55,12.14,10.26,17.59,8.21-1.87,8.87-15.8,12.13-20.76-3.77,2.84-8.43-11.09-5.07-5.6,1.15,7.82,10.51,3.84,7.11-1-1.85,3.37-5.43-4.68-1.16-.26,12,1,6.45,8.58,10.85,8.06-.21,2.74,1.88.17,0-.41-.47.74.4-1.74,0-2.33,5.74-6.81,3.57-.88,6.3-.61,1.51.12.6,5.85,3.57,7,0-1.32-4.36-7.35-.77-4.74.85,1.53,2.27.74,2.41-1-5-5.86,7.6-2,2.07-10.23,2-1.42-3.28.34-.7-1.87.65.6,2.81.51,2.87,2.62.77.62,1.54-.55.86-1.25-2.95-1.15,5-6.16-2.11-7.48-1.55-3.83,5-.43,3.77-2.8.14-.84,1.22.31,1.56.25.25,3,5.11,6,1.22.35,1.19-.41,5.7-.83,2.2-1.81a5.57,5.57,0,0,0,1.69-.42,33.57,33.57,0,0,1,2.25,40.43Z"/>
    </g>
  </g>
</svg>
