<svg id="圖層_1" data-name="圖層 1" xmlns="http://www.w3.org/2000/svg" width="246" height="246" viewBox="0 0 246 246">
  <defs>
    <style>
      .cls-1 {
        fill: #fff;
      }
    </style>
  </defs>
  <g>
    <path class="cls-1" d="M149.85,99.36H96.15a11.59,11.59,0,1,1,0-23.18h53.7a11.59,11.59,0,1,1,0,23.18ZM96.15,80.25a7.52,7.52,0,0,0,0,15h53.7a7.52,7.52,0,0,0,0-15Z"/>
    <path class="cls-1" d="M149.85,127H96.15a11.6,11.6,0,0,1,0-23.19h53.7a11.6,11.6,0,0,1,0,23.19Zm-53.7-19.11a7.52,7.52,0,0,0,0,15h53.7a7.52,7.52,0,0,0,0-15Z"/>
    <circle class="cls-1" cx="123" cy="87.77" r="3.77"/>
    <circle class="cls-1" cx="123" cy="115.36" r="3.77"/>
    <path class="cls-1" d="M159.4,156.38a8.61,8.61,0,1,1,8.6-8.6A8.61,8.61,0,0,1,159.4,156.38Zm0-13.13a4.53,4.53,0,1,0,4.52,4.53A4.53,4.53,0,0,0,159.4,143.25Z"/>
    <path class="cls-1" d="M86.6,156.38a8.61,8.61,0,1,1,8.6-8.6A8.61,8.61,0,0,1,86.6,156.38Zm0-13.13a4.53,4.53,0,1,0,4.53,4.53A4.53,4.53,0,0,0,86.6,143.25Z"/>
    <path class="cls-1" d="M123,135.59a2,2,0,0,1-2-2v-8.64a2,2,0,0,1,4.08,0v8.64A2,2,0,0,1,123,135.59Z"/>
    <rect class="cls-1" x="120.96" y="98.37" width="4.08" height="8.26"/>
    <rect class="cls-1" x="93.17" y="145.74" width="15.66" height="4.08"/>
    <rect class="cls-1" x="139.34" y="145.74" width="13.5" height="4.08"/>
    <path class="cls-1" d="M123,169.82a5,5,0,0,1-2.48-.64l-9.82-5.49a5.11,5.11,0,0,1-2.56-3.76l-2.51-18.83a5.09,5.09,0,0,1,3.48-5.51l12.33-4a5,5,0,0,1,3.12,0l12.33,4a5.09,5.09,0,0,1,3.48,5.51l-2.51,18.83a5.11,5.11,0,0,1-2.56,3.76h0l-9.82,5.49A5,5,0,0,1,123,169.82Zm0-34.37a.84.84,0,0,0-.31.05l-12.33,4a1,1,0,0,0-.69,1.09l2.51,18.83a1,1,0,0,0,.51.74l9.82,5.49a1,1,0,0,0,1,0l9.82-5.49a1,1,0,0,0,.51-.74l2.51-18.83a1,1,0,0,0-.69-1.09l-12.33-4A.84.84,0,0,0,123,135.45Zm11.31,26.46Z"/>
    <path class="cls-1" d="M121.59,156.38a2,2,0,0,1-1.21-.4l-6.25-4.61a2,2,0,0,1,2.42-3.28l4.84,3.57,7.43-7.38a2,2,0,0,1,2.87,2.9l-8.67,8.6A2,2,0,0,1,121.59,156.38Z"/>
  </g>
</svg>
