<?xml version="1.0" encoding="utf-8"?>
<!-- Generator: Adobe Illustrator 21.1.0, SVG Export Plug-In . SVG Version: 6.00 Build 0)  -->
<svg version="1.1" id="圖層_1" xmlns="http://www.w3.org/2000/svg" xmlns:xlink="http://www.w3.org/1999/xlink" x="0px" y="0px"
	 viewBox="0 0 331 53" style="enable-background:new 0 0 331 53;" xml:space="preserve">
<style type="text/css">
	.st0{enable-background:new;}
	.st1{fill:#010101;}
	.st2{fill:#DB462E;}
	.st3{fill:#142B75;}
</style>
<g transform="translate(-136 -18)">
	<g class="st0">
		<path d="M285.1,35.7h-6.2v5.2h-1.7v-5.2h-6.2v-7.6h6.2v-2.9h1.7v2.9h6.2V35.7z M277.2,34.1v-4.4h-4.5v4.4H277.2z M283.4,34.1v-4.4
			h-4.5v4.4H283.4z"/>
		<path d="M303.9,34.7h-7.2c-0.2,1.5-1,2.8-2.4,3.9c-1.4,1.1-3.1,1.9-5.3,2.4l-0.8-1.5c4-1,6.3-2.6,6.8-4.9h-6.7v-1.6h1.6v-5.6h5.3
			v-2.3h1.6v2.3h5.3v5.6h1.7V34.7z M295.2,29.1h-3.7v4h3.6C295.2,32.4,295.2,31.1,295.2,29.1z M304,40l-1.2,1.1
			c-1.6-1.6-3.7-3.2-6-4.6l1.1-1.1C300.2,36.8,302.3,38.3,304,40z M300.6,33.1v-4h-3.7c0,1.3,0,2.6-0.1,4H300.6z"/>
		<path d="M311.7,25.8c-1.3,1.8-2.9,3.2-4.8,4.3l-0.8-1.5c1.4-0.7,2.8-1.9,4-3.5L311.7,25.8z M312,29.1c-0.6,0.9-1.2,1.8-1.8,2.7
			v9.2h-1.7v-7.2c-0.6,0.6-1.2,1.1-1.8,1.5l-0.7-1.6c1.5-1,3-2.7,4.4-5.1L312,29.1z M321.9,31.8h-2.4v7.3c0,1.2-0.7,1.8-2,1.8
			c-0.8,0-1.6,0-2.4-0.1l-0.6-1.6c0.5,0,1.4,0,2.8,0c0.1,0,0.2,0,0.3-0.1c0.1-0.1,0.2-0.2,0.2-0.4v-6.9h-5.9v-1.6h10V31.8z
			 M321.4,27.3h-9.1v-1.6h9.1V27.3z"/>
		<path d="M332.4,37.3c-2.2,1.1-4.8,2.1-7.7,3.1l-0.6-1.5l0.9-0.3V30h1.6v8.1c0.2,0,0.6-0.2,1.3-0.5V27.4h-3.4v-1.5h7.7v1.5h-2.7
			v3.7h2.2v1.5h-2.2v4.3c0.9-0.4,1.8-0.8,2.6-1.2L332.4,37.3z M340.2,39.8l-1,1.3c-1.3-0.9-2.3-1.9-3.2-3c-1.1,1.2-2.5,2.2-4.1,3
			l-1-1.4c1.8-0.8,3.2-1.8,4.2-3c-0.6-1.1-1.1-2.2-1.3-3.4l1.4-0.7c0.2,0.9,0.5,1.7,0.9,2.5c0.7-1.8,1.1-3.7,1.2-5.8H335
			c-0.6,1.7-1.2,3.2-1.8,4.4l-1.2-1.1c1.2-2.5,2.1-5.1,2.4-7.6l1.5,0.3c-0.1,0.9-0.3,1.8-0.5,2.5h4.4v1.5h-1.1
			c-0.3,3.2-0.9,5.7-1.8,7.5C337.8,38.1,338.9,39.1,340.2,39.8z"/>
		<path d="M347.1,32.7l-0.9,0.9c-0.3-0.6-0.5-1.1-0.7-1.4V41H344V33c-0.3,1.4-0.8,2.5-1.3,3.4l-0.7-1.9c0.7-1.4,1.3-3,1.7-4.8h-1.5
			v-1.5h1.8v-3.1h1.5v3.1h1.2v1.5h-1.2V30C346.3,31.1,346.8,32,347.1,32.7z M358.1,38c-0.3,2.1-1,3.1-2,3.1c-0.7,0-1.5-0.6-2.4-1.9
			c-1.5,0.9-2.6,1.5-3.6,1.9l-0.9-1.4c1.6-0.6,2.9-1.2,3.7-1.9c-0.3-0.7-0.6-1.6-0.8-2.7h-2.6l0,0.4c1.1,0.8,1.9,1.3,2.3,1.7l-1,1.3
			c-0.3-0.4-0.8-0.8-1.5-1.3c-0.4,1.6-1.1,2.9-2,3.9l-1.3-0.9c1.3-1.2,1.9-2.9,2-5.1h-1.5v-1.5h5.4c-0.3-2.1-0.4-4.9-0.5-8.5h1.5
			c0,3.3,0.2,6.1,0.5,8.5h1.1c0-0.2-0.1-0.4-0.3-0.6l1.7-0.3c0.1,0.2,0.3,0.5,0.5,0.9h1.6v1.5h-4.2c0.1,0.5,0.2,1.1,0.5,1.7
			c0.5-0.4,0.9-0.9,1.3-1.5l1.4,0.7c-0.6,0.9-1.2,1.6-1.9,2.2c0.5,0.7,0.9,1.1,1.1,1.1c0.3,0,0.6-0.8,0.7-2.3L358.1,38z M351.5,32.9
			l-1.1,0.3c0-0.4-0.1-0.7-0.2-1c-1,0.2-1.9,0.3-2.7,0.4l-0.4-1.3c0.4-0.4,0.9-1,1.5-1.9c-0.5,0-1,0.1-1.3,0.1l-0.3-1.2
			c0.7-0.9,1.1-2,1.5-3.2l1.4,0.4c-0.5,1.2-1,2.1-1.3,2.5c0.3,0,0.5,0,0.9-0.1c0.1-0.2,0.3-0.6,0.6-1.2l1.2,0.7
			c-0.8,1.4-1.6,2.7-2.6,3.8c0.4,0,0.8-0.1,1.3-0.1c0-0.2-0.1-0.5-0.2-0.8l1.1-0.4C351.1,31.2,351.4,32.2,351.5,32.9z M357.9,32.9
			l-1.1,0.4l-0.2-1c-1,0.1-2,0.3-2.8,0.4l-0.4-1.3c0.4-0.3,0.9-0.9,1.5-1.8c-0.5,0.1-0.9,0.1-1.4,0.2l-0.2-1.3
			c0.6-0.9,1.2-1.9,1.7-3.2l1.3,0.5c-0.3,0.8-0.8,1.6-1.5,2.6c0.4,0,0.7-0.1,0.9-0.1c0.3-0.5,0.5-0.9,0.7-1.2l1.3,0.5
			c-0.6,1.2-1.5,2.4-2.6,3.7c0.3,0,0.6-0.1,1.2-0.1c-0.1-0.2-0.1-0.5-0.2-0.7l1.1-0.4C357.5,31,357.7,31.9,357.9,32.9z"/>
		<path d="M367.5,30.2h-5.2v10.7h-1.6V25.5h6.8V30.2z M365.9,27.3v-0.7h-3.6v0.7H365.9z M365.9,29v-0.7h-3.6V29H365.9z M367.9,35
			l-1,0.5c-0.1-0.1-0.2-0.3-0.2-0.4c-1.3,0.2-2.4,0.3-3.4,0.4l-0.3-0.9c0.7-0.3,1.3-0.8,2-1.4c-0.7,0.1-1.2,0.2-1.7,0.2l-0.3-0.9
			c0.8-0.4,1.5-1.1,2.1-2l1.2,0.4c-0.4,0.5-0.9,1-1.5,1.4c0.5,0,1-0.1,1.3-0.2c0.2-0.2,0.4-0.5,0.6-0.7l1.2,0.5
			c-0.8,1-1.8,1.8-2.8,2.5c0.3,0,0.7,0,1.2-0.1c-0.1-0.1-0.1-0.2-0.2-0.3l0.9-0.5C367.3,34,367.6,34.5,367.9,35z M367.6,36.5
			c0,1.2-0.2,2.1-0.7,2.6c-0.5,0.6-1.4,1.1-2.7,1.5l-0.8-1.2c1.2-0.2,2-0.6,2.5-1.1h-2.4v-2.2h1.4v1.1h1.3c0-0.1,0-0.2,0-0.3v-1h1.5
			V36.5z M373.3,35l-1.1,0.5c0-0.1-0.1-0.2-0.2-0.4c-0.8,0.1-2,0.3-3.5,0.4l-0.2-0.9c0.7-0.4,1.3-0.8,1.8-1.3l-1.7,0.2l-0.3-1
			c0.7-0.4,1.3-1.1,1.9-2l1.2,0.4c-0.5,0.6-1,1.2-1.5,1.5c0.7-0.1,1.1-0.1,1.3-0.2c0.2-0.3,0.4-0.5,0.5-0.7l1.2,0.4
			c-0.9,1.1-1.8,2-2.6,2.5c0.6-0.1,1-0.1,1.2-0.2c-0.1-0.1-0.2-0.2-0.3-0.3l1.1-0.5C372.6,34,373,34.5,373.3,35z M372.8,38.3H370
			v2.2h-1.5v-4.7h1.5v1.4h1.3v-1.1h1.4V38.3z M375.4,39.3c0,0.4-0.1,0.7-0.3,0.9c-0.2,0.2-0.4,0.4-0.7,0.5c-0.3,0.1-0.8,0.1-1.5,0.1
			c-0.3,0-0.5,0-0.7,0l-0.6-1.6c0.3,0,0.6,0,1,0c0.4,0,0.7,0,0.9,0c0.2,0,0.3-0.2,0.3-0.5v-8.7h-5.1v-4.7h6.7V39.3z M373.8,27.3
			v-0.7h-3.5v0.7H373.8z M373.8,29v-0.7h-3.5V29H373.8z"/>
		<path d="M393.9,40.4h-15.6V39h7v-1.7h-6v-1.4h6v-1.5c-1.5,0.1-3.3,0.1-5.4,0.1l-0.3-1.4c1.3-0.3,2.6-1.2,3.9-2.5h-2.7v-1.4h10.5
			v1.4h-5.6c-1,1.1-2,1.9-3,2.5c1.8,0,3.9-0.2,6.6-0.4c-0.2-0.2-0.6-0.5-1.2-0.9l1.2-0.9c1.8,1.1,3.1,2.2,3.9,3.1l-1.2,1.1
			c-0.4-0.4-0.8-0.8-1.3-1.2c-1.3,0.1-2.6,0.3-3.9,0.4v1.6h6v1.4h-6V39h7V40.4z M393.5,30.1h-1.6V28h-11.6v2.2h-1.6v-3.6h6.5
			c-0.3-0.5-0.5-0.8-0.7-1.1l1.6-0.4c0.2,0.4,0.6,0.9,0.9,1.5h6.5V30.1z"/>
		<path d="M411.1,39.2c0,0.5-0.1,0.9-0.4,1.2c-0.3,0.4-1,0.5-2.1,0.5c-0.5,0-0.9,0-1.4-0.1l-0.6-1.7c0.9,0,1.6,0,2.2,0
			c0.2,0,0.4-0.1,0.5-0.2s0.2-0.3,0.2-0.5v-8.7h-4.1c0.4,2.3,1.7,4.4,3.8,6.4l-1,1.3c-1.9-1.6-3.2-3.6-4.1-6.1
			c-0.7,2.1-2,4.1-4.1,6.1l-1-1.2c2.3-2.3,3.7-4.4,4.2-6.4h-4.6v11H397V28.3h6.4c-0.1-0.5-0.1-1-0.1-1.5h-1.7v-1.6h3.2
			c0,0.5,0.1,1.5,0.3,3.1h6V39.2z"/>
	</g>
	<g class="st0">
		<path d="M276.9,51.7c-1.2,3.2-3.1,5.8-5.8,8l-1-1.4c2.4-1.8,4.1-4.2,5.2-7.2L276.9,51.7z M284.9,66l-1.4,1c-0.3-0.8-0.7-1.5-1-2
			c-2.8,0.7-6.2,1.2-10.2,1.8l-0.5-1.4c1.5-1.1,3.3-4.2,5.4-9.2l1.6,0.5c-1.5,3.4-3,6.1-4.5,8.2c2.7-0.3,5.1-0.7,7.3-1.3
			c-0.4-0.6-1-1.5-1.9-2.7l1.3-0.9C282.6,61.9,283.9,63.9,284.9,66z M286.1,58.4l-1,1.4c-2.2-1.6-3.9-3.9-5-6.9h-1.5v-1.5h2.6
			C282.2,54.4,283.8,56.8,286.1,58.4z"/>
		<path d="M303.9,61.6h-15.6V60h3.9v-4.1h-3.2v-1.6h3.2v-3.1h1.7v3.1h4.6v-3.1h1.7v3.1h3.2v1.6H300V60h3.9V61.6z M294.7,63
			c-1.5,1.5-3.4,2.9-5.4,4l-1-1.3c2.2-1.1,3.9-2.4,5.2-3.8L294.7,63z M298.3,60v-4.1h-4.6V60H298.3z M303.8,65.9l-1.3,1.1
			c-1.3-1.4-2.9-2.7-4.9-4l1.3-1.2C300.7,63.1,302.3,64.4,303.8,65.9z"/>
		<path d="M321.9,66.5h-13.2c-0.5,0-0.9-0.2-1.2-0.5c-0.3-0.3-0.4-0.8-0.4-1.3V53h-0.8v-1.4h15.5V53h-13.1v11.6
			c0,0.1,0.1,0.2,0.2,0.3c0.1,0.1,0.2,0.2,0.3,0.2h12.8V66.5z M314.7,64h-5v-5h5V64z M319.2,58.1h-8V54h8V58.1z M313.2,62.7v-2.3h-2
			v2.3H313.2z M317.6,56.7v-1.4h-4.8v1.4H317.6z M320.8,64h-5.1v-5h5.1V64z M319.3,62.6v-2.3h-2.1v2.3H319.3z"/>
		<path d="M329.1,63c-1.2,0.8-2.7,1.6-4.5,2.4l-0.6-1.5c0.6-0.2,1.2-0.5,1.9-0.8v-5.8h-1.5v-1.5h1.5v-4.5h1.5v4.5h1.4v1.5h-1.4v5
			c0.5-0.3,0.9-0.6,1.4-0.9L329.1,63z M334.6,63.2c-1.2,0.6-3.1,1.3-5.5,2l-0.3-1.5c2.2-0.5,4.1-1.2,5.7-2L334.6,63.2z M340.1,63.5
			c-0.1,1-0.3,1.9-0.6,2.5c-0.3,0.7-0.7,1-1.2,1c-0.5,0-0.9-0.3-1.3-0.8c-0.4-0.5-0.7-1.1-0.9-1.9c-0.8,0.9-1.6,1.8-2.5,2.7l-1.1-1
			c1.3-1.2,2.4-2.3,3.2-3.3c-0.5-2.4-0.7-4.9-0.7-7.5H329v-1.5h5.7c0-0.6,0-1.1,0-1.5c0-0.4,0-0.7,0-1l1.5,0.1c0,0.5,0,1,0,1.4
			c0,0.4,0,0.8,0,1h3.7v1.5h-3.6c0,1.5,0.1,3.3,0.4,5.6c0.7-1.4,1.2-2.8,1.6-4.3l1.4,0.5c-0.8,2.5-1.6,4.5-2.6,6
			c0.1,0.6,0.3,1.1,0.6,1.6c0.2,0.5,0.4,0.7,0.5,0.7c0.1,0,0.2-0.2,0.3-0.6c0.1-0.4,0.2-0.9,0.3-1.7L340.1,63.5z M333.9,61.4h-4.5
			v-5.2h4.5V61.4z M332.4,60v-2.3H331V60H332.4z M339.3,52.4l-1,1c-0.5-0.5-1-0.9-1.6-1.3l0.9-1C338.2,51.4,338.8,51.9,339.3,52.4z"
			/>
		<path d="M358.1,63.4c-0.1,0.9-0.2,1.5-0.4,2c-0.2,0.5-0.4,0.8-0.8,1.1s-0.6,0.3-1,0.3c-0.3,0-0.9,0-1.7,0c-1,0-1.8,0-2.2-0.1
			c-0.4,0-0.8-0.2-1-0.5c-0.2-0.3-0.4-0.6-0.4-1v-3.7h-0.2c-1,2.7-3.5,4.6-7.5,5.6l-0.7-1.4c3.4-0.9,5.6-2.3,6.5-4.2H344V57
			c-0.3,0.2-0.7,0.4-1.1,0.7l-0.9-1.4c2.5-1.4,4.5-3.1,5.7-5.2l1.7,0.5c-0.3,0.4-0.5,0.7-0.8,1h5.4v1.5c-1,1-1.6,1.6-1.8,1.8h4.1
			v5.6h-4.3v3.4c0,0.3,0.2,0.4,0.5,0.4h2.9c0.2,0,0.4-0.1,0.6-0.4c0.2-0.2,0.3-0.9,0.4-1.9L358.1,63.4z M352,54.1h-4.5
			c-0.5,0.5-1.1,1.1-2,1.8h4.4C350.8,55.3,351.5,54.7,352,54.1z M349.3,57.4h-3.7V60h3.5C349.3,59.3,349.4,58.5,349.3,57.4z
			 M354.8,60v-2.6H351c-0.1,1.2-0.1,2-0.2,2.6H354.8z"/>
		<path d="M375.7,55.9c0,1.4-0.2,2.2-0.4,2.4s-0.5,0.4-0.8,0.4l-0.7,0.1v6H366l0.8,0.8c-1.9,0.7-3.8,1.2-5.9,1.4l-0.7-1.3
			c1.9-0.2,3.5-0.4,4.8-0.9h-2.5v-5.3c-0.6,0.1-1.2,0.2-1.7,0.3l-0.6-1.4c2-0.2,3.4-0.7,4.2-1.5h-3.5l0.6-3h3.9v-0.9h-4.7v-1.1h4.7
			v-0.9h1.5v0.9h2.5v-0.9h1.5v0.9h4.2v3h-4.2v0.8H375.7z M365.2,55.1h-2.4l-0.1,0.8h2.3C365.1,55.6,365.1,55.3,365.2,55.1z
			 M372.1,60.1v-0.7H364v0.7H372.1z M372.1,61.9v-0.8H364v0.8H372.1z M372.1,63.8V63H364v0.8H372.1z M374.1,57h-3.2v0.9h-1.5V57
			h-3.3c-0.2,0.4-0.6,0.8-1.2,1.3h8.1l-0.3-0.7c0.6,0,1,0,1.1-0.1S374.1,57.3,374.1,57z M369.4,55.9v-0.8h-2.6
			c0,0.4-0.1,0.6-0.2,0.8H369.4z M369.4,54v-0.8h-2.5V54H369.4z M376,65.9l-0.7,1.2c-1.8-0.5-3.7-0.7-5.5-0.8l0.6-1.2
			C372.8,65.2,374.6,65.5,376,65.9z M373.5,54v-0.8h-2.6V54H373.5z"/>
		<path d="M385.3,56.7c-0.2,1.7-0.5,3.1-1,4.2l-1.3-0.4c0.3-0.8,0.5-1.6,0.7-2.3h-1v7.1c0,0.4-0.1,0.7-0.3,0.9s-0.4,0.4-0.7,0.5
			c-0.2,0.1-0.6,0.1-1.2,0.1c-0.3,0-0.6,0-0.9,0l-0.5-1.5c0.3,0,0.9,0,1.6,0c0.3,0,0.4-0.2,0.4-0.5v-4.1c-0.6,1.6-1.4,2.9-2.3,4
			l-0.9-1.5c1-1.2,2-2.8,2.8-4.9h-2.6v-1.5h3.5c-0.5-0.6-1.3-1.3-2.5-2l1.1-1c0.4,0.2,0.9,0.5,1.4,1c0.4-0.4,0.9-1,1.3-1.6h-4.2
			v-1.5h6.2v1.4c-0.5,0.8-1.1,1.7-2,2.7c0.1,0.1,0.3,0.3,0.4,0.5l-0.7,0.6H385.3z M393.2,60.8c-0.2,2.9-0.4,4.6-0.5,4.9
			c-0.2,0.3-0.4,0.6-0.7,0.9c-0.3,0.2-0.9,0.3-1.7,0.3c-0.2,0-0.5,0-0.9,0l-0.5-1.5c0.3,0,0.7,0,1.1,0c0.6,0,0.9,0,1.1-0.1
			s0.3-0.4,0.4-0.8c0.1-0.4,0.2-1.2,0.2-2.2h-2.4c-0.2,1-0.7,1.9-1.6,2.8c-0.9,0.9-1.9,1.5-3,1.9l-1-1.3c2.2-0.8,3.5-2,4-3.4h-2.3
			v-1.5h2.6c0.1-0.6,0.1-1.1,0.2-1.4l1.5,0.1c0,0.2,0,0.6-0.1,1.3H393.2z M394.1,58.5l-0.7,1.4c-1.6-0.4-2.9-1-4-1.8
			c-1.1,0.7-2.1,1.3-3.2,1.7l-0.8-1.4c1-0.3,1.9-0.7,2.8-1.3c-0.3-0.3-0.8-0.8-1.3-1.5l1.2-0.8c0.6,0.7,1,1.1,1.2,1.4
			c0.6-0.7,1.1-1.3,1.5-2.1h-3.1c-0.7,0.8-1.3,1.6-2,2.1l-1.1-1c1.2-1,2.3-2.4,3.4-4.2l1.4,0.5c-0.1,0.3-0.4,0.7-0.7,1.1h5v1.5h-1.4
			c-0.5,1.3-1.1,2.3-1.8,3C391.4,57.7,392.6,58.2,394.1,58.5z"/>
		<path d="M411.9,62.4h-15.6v-1.5h2.3v-2.4h-2V57h2v-1.9c-0.3,0.2-0.7,0.6-1.2,1l-1.2-1.2c1.7-1.2,3-2.5,3.8-3.9l1.7,0.5
			c-0.3,0.5-0.6,1-1,1.4h10.7v1.5h-12.1c-0.2,0.2-0.4,0.4-0.7,0.7h1.5V57h1.7v-1.9h1.5V57h1.8v-1.9h1.5V57h1.8v-1.9h1.5V57h1.6v1.5
			H410v2.4h1.9V62.4z M399.7,63.5c-0.6,1.4-1.3,2.6-2.1,3.6l-1.5-1c0.7-0.8,1.3-1.9,2-3.3L399.7,63.5z M401.8,60.9v-2.4h-1.7v2.4
			H401.8z M403.5,66.5l-1.6,0.5c-0.2-1.1-0.5-2.2-1-3.4l1.5-0.5C402.9,63.9,403.2,65.1,403.5,66.5z M405.2,60.9v-2.4h-1.8v2.4H405.2
			z M407.8,66.4l-1.5,0.6c-0.3-1.1-0.8-2.3-1.5-3.4l1.5-0.6C407,64.3,407.5,65.4,407.8,66.4z M408.4,60.9v-2.4h-1.8v2.4H408.4z
			 M412,66.3l-1.6,0.7c-0.5-1.2-1.2-2.4-2-3.6l1.5-0.7C410.9,63.9,411.5,65.1,412,66.3z"/>
		<path d="M416.5,62.7c-0.2,1.7-0.6,3.1-1.1,4.3l-1.3-0.6c0.5-1.3,0.9-2.6,1.1-4L416.5,62.7z M420.7,54.5c-1.3,2.4-2.7,4.3-4.1,5.8
			c0.5-0.1,1.1-0.2,1.9-0.5c-0.1-0.3-0.2-0.6-0.3-0.8l1.2-0.4c0.5,1,0.8,1.9,1,2.8l-1.2,0.4c-0.1-0.4-0.1-0.6-0.2-0.8
			c-1.3,0.4-2.8,0.7-4.4,0.9l-0.3-1.2c1.1-0.9,2.1-2.1,3.1-3.6c-0.8,0.1-1.6,0.3-2.7,0.4l-0.3-1.1c1.2-1.4,2.3-3.3,3.2-5.5l1.4,0.5
			c-0.6,1.5-1.5,3-2.5,4.5c0.7-0.1,1.3-0.1,1.8-0.2c0.3-0.5,0.7-1.1,1-1.8L420.7,54.5z M418.9,66.2l-1.4,0.3c0-1.2-0.1-2.5-0.4-3.8
			l1.3-0.3C418.7,63.7,418.8,65,418.9,66.2z M420.9,64l-1.2,0.4c-0.2-0.7-0.4-1.4-0.8-2.1l1.2-0.3C420.4,62.6,420.7,63.3,420.9,64z
			 M424,59.7c0.1,2.3-1,4.6-3.3,6.8l-1.1-1c1.6-1.3,2.5-2.8,2.8-4.4h-1.8v-1.4H424z M430.1,65.1l-1.1,1.4c-1.1-0.9-2.1-2.1-3.1-3.7
			v2.7c0,0.5-0.2,0.9-0.6,1.2s-1.3,0.4-2.5,0.4l-0.4-1.6c0.8,0,1.3,0,1.6,0c0.3,0,0.4-0.1,0.4-0.3v-6.4H421v-6h2.2
			c0.3-0.5,0.6-1,0.8-1.6l1.6,0.3c-0.2,0.5-0.4,0.9-0.6,1.3h4v6h-3V60c0.1,0.3,0.3,0.6,0.6,1c0.5-0.4,1.2-1,1.9-1.7l1.1,1
			c-0.6,0.6-1.3,1.3-2.2,2C428,63.2,428.9,64.1,430.1,65.1z M427.5,55v-1h-4.9v1H427.5z M427.5,57.3v-1.1h-4.9v1.1H427.5z"/>
		<path d="M447.9,66.5h-15.7v-1.6h6.5V51.2h1.7v5.4h6.8v1.6h-6.8v6.7h7.6V66.5z"/>
		<path d="M452.4,62.7c-0.2,1.5-0.5,3-0.9,4.3l-1.4-0.7c0.4-1.3,0.7-2.7,0.9-4L452.4,62.7z M456.4,54c-1.2,2.5-2.5,4.6-4,6.2
			c0.8-0.1,1.5-0.3,2.1-0.5c-0.1-0.4-0.3-0.8-0.4-1l1.3-0.4c0.4,0.9,0.7,2,1,3.1l-1.3,0.4c0-0.2-0.1-0.4-0.2-0.8
			c-1.5,0.4-2.9,0.7-4.3,0.9l-0.4-1.3c1.1-1.1,2-2.4,2.8-3.7c-0.9,0.2-1.7,0.3-2.4,0.4l-0.3-1.5c1-1.3,1.9-2.9,2.6-4.9l1.5,0.6
			c-0.6,1.6-1.4,3-2.2,4c0.6-0.1,1.1-0.1,1.6-0.3c0.3-0.6,0.7-1.3,1-2L456.4,54z M454.6,66.1l-1.4,0.3c0-1.3-0.1-2.5-0.3-3.6
			l1.3-0.2C454.3,63.6,454.5,64.8,454.6,66.1z M456.3,65.5l-1.2,0.2c-0.1-1.2-0.3-2.3-0.5-3.2l1.2-0.2
			C456,63.3,456.2,64.4,456.3,65.5z M465.5,65.4c0,0.5-0.1,0.9-0.4,1.2c-0.3,0.2-0.9,0.4-1.7,0.4c-0.2,0-0.6,0-0.9,0l-0.5-1.5
			c0.7,0,1.3,0,1.8,0c0.1,0,0.2,0,0.2-0.1c0.1-0.1,0.1-0.1,0.1-0.2V53h-5.9v13.9h-1.5V51.5h8.8V65.4z M463.5,57.3h-4.8v-1.4h0.8
			c-0.2-0.7-0.4-1.4-0.7-2l1.4-0.4c0.3,0.7,0.6,1.5,0.8,2.4h0.4c0.3-0.7,0.6-1.4,0.8-2.3l1.4,0.4c-0.2,0.7-0.4,1.3-0.7,1.9h0.8V57.3
			z M463.4,60.4h-2.8v2.3c0,0.1,0,0.1,0.1,0.2c0.1,0.1,0.2,0.1,0.2,0.1h2.3v1.4h-2.7c-0.9,0-1.3-0.5-1.3-1.4v-2.6h-0.6V59h1.9
			c-0.1-0.4-0.3-0.8-0.5-1.2l1.5-0.3c0.2,0.5,0.4,1,0.5,1.5h1.4V60.4z"/>
	</g>
	<g transform="translate(111 -27)">
		<path class="st1" d="M49.8,95H47V74.6h-7.7v-2.5h18.1v2.5h-7.7V95z"/>
		<path class="st1" d="M70.4,92.6L70.4,92.6c-0.3,0.3-0.6,0.6-0.9,0.9c-0.4,0.3-0.8,0.6-1.2,0.8c-0.5,0.2-1,0.4-1.5,0.5
			c-0.6,0.1-1.2,0.2-1.8,0.2c-0.8,0-1.6-0.1-2.3-0.4c-0.7-0.2-1.3-0.6-1.8-1.1c-0.5-0.5-0.9-1.1-1.2-1.8c-0.3-0.7-0.4-1.5-0.4-2.4
			c0-0.8,0.1-1.6,0.5-2.3c0.3-0.7,0.7-1.3,1.3-1.7c0.6-0.5,1.3-0.8,2-1.1c1.6-0.7,5.4-0.8,7.1-0.8h0.1c0-0.4,0-0.8-0.1-1.3
			c-0.1-0.3-0.2-0.7-0.3-1c-0.4-0.6-0.9-1.1-1.5-1.4c-0.9-0.4-1.8-0.6-2.8-0.6c-0.8,0-1.7,0.1-2.5,0.2c-0.8,0.2-1.6,0.4-2.3,0.7
			v-2.4c0.3-0.2,0.7-0.3,1-0.4c0.4-0.1,0.8-0.2,1.2-0.3c0.5-0.1,0.9-0.2,1.4-0.2c0.5,0,1-0.1,1.5-0.1c1.5-0.1,3,0.3,4.3,0.9
			c1,0.5,1.9,1.4,2.4,2.5c0.2,0.4,0.3,0.8,0.4,1.3c0.1,0.5,0.1,1,0.1,1.5v11.6h-2.4L70.4,92.6z M70.2,85.7c-0.5-0.1-5.6-0.1-7,1.3
			c-0.7,0.6-1,1.5-1,2.4c0,0.5,0.1,1,0.3,1.4c0.2,0.4,0.4,0.7,0.7,1c0.3,0.3,0.7,0.5,1.1,0.6c0.4,0.1,0.9,0.2,1.3,0.2
			c0.6,0,1.1-0.1,1.7-0.3c0.5-0.2,0.9-0.4,1.4-0.6c0.4-0.2,0.7-0.5,1-0.7c0.3-0.2,0.5-0.4,0.6-0.6L70.2,85.7z"/>
		<path class="st1" d="M123.2,92.6L123.2,92.6c-0.3,0.3-0.6,0.6-0.9,0.9c-0.4,0.3-0.8,0.6-1.2,0.8c-0.5,0.2-1,0.4-1.5,0.5
			c-0.6,0.1-1.2,0.2-1.8,0.2c-0.8,0-1.6-0.1-2.3-0.4c-0.7-0.2-1.3-0.6-1.8-1.1c-0.5-0.5-0.9-1.1-1.2-1.8c-0.3-0.7-0.4-1.5-0.4-2.4
			c0-0.8,0.1-1.6,0.5-2.3c0.3-0.7,0.7-1.3,1.3-1.7c0.6-0.5,1.3-0.8,2-1.1c1.6-0.7,5.4-0.8,7.1-0.8h0.1c0-0.4,0-0.8-0.1-1.3
			c-0.1-0.3-0.2-0.7-0.3-1c-0.4-0.6-0.9-1.1-1.5-1.4c-0.9-0.4-1.8-0.6-2.8-0.6c-0.8,0-1.7,0.1-2.5,0.2c-0.8,0.2-1.6,0.4-2.3,0.7
			v-2.4c0.3-0.2,0.7-0.3,1-0.4c0.4-0.1,0.8-0.2,1.2-0.3c0.5-0.1,0.9-0.2,1.4-0.2c0.5,0,1-0.1,1.5-0.1c1.5-0.1,3,0.3,4.3,0.9
			c1,0.5,1.9,1.4,2.4,2.5c0.2,0.4,0.3,0.8,0.4,1.3c0.1,0.5,0.1,1,0.1,1.5v11.6h-2.4L123.2,92.6z M123,85.7c-0.5-0.1-5.6-0.1-7,1.3
			c-0.7,0.6-1,1.5-1,2.4c0,0.5,0.1,1,0.3,1.4c0.2,0.4,0.4,0.7,0.7,1c0.3,0.3,0.7,0.5,1.1,0.6c0.4,0.1,0.9,0.2,1.3,0.2
			c0.6,0,1.1-0.1,1.7-0.3c0.5-0.2,0.9-0.4,1.4-0.6c0.4-0.2,0.7-0.5,1-0.7c0.3-0.2,0.5-0.4,0.6-0.6L123,85.7z"/>
		<path class="st1" d="M78,94.5V77.2h2.8v17.3H78z"/>
		<path class="st1" d="M96.8,80c-0.4,1.6-0.7,3-1,4.1L93,94.5h-2.9l-5.6-17.3h2.8L90.5,88c0.4,1.4,0.8,2.6,1,3.4h0.1
			c0.2-0.9,0.5-2.1,1-3.8l2.9-10.4h2.8l3.2,10.4c0.4,1.4,0.8,2.7,1.1,3.8h0.1c0.3-1.1,0.6-2.3,1-3.4l3.2-10.8h2.8l-5.8,17.3h-3
			L98,84.2C97.6,82.9,97.3,81.6,96.8,80L96.8,80z"/>
		<path class="st1" d="M132.3,79.6L132.3,79.6c0.4-0.4,0.7-0.8,1.1-1.1c0.4-0.4,0.8-0.7,1.3-0.9c0.5-0.3,1-0.5,1.6-0.6
			c1.3-0.3,2.8-0.3,4.1,0.1c0.7,0.2,1.3,0.6,1.8,1.1c0.5,0.5,1,1.2,1.2,1.9c0.3,0.9,0.5,1.9,0.4,2.9v11.6h-2.8V83.4
			c0.1-1.1-0.2-2.3-0.9-3.2c-0.7-0.7-1.6-1-2.5-1c-1,0-2,0.3-2.8,0.8c-0.9,0.6-1.7,1.3-2.4,2.2v12.3h-2.8V77.2h2.8L132.3,79.6z"/>
		<path class="st2" d="M36.9,95c0,0-4-4.6-4.8-5.4c-0.9-1-1-2.5-0.1-3.5c1-1,2.8-0.5,3.4,0.2c0.9,0.7,1.4,1.6,1.6,2.7
			c1.1-3.1,2.3-4,3.6-4c1.4,0.1,2.4,1.3,2.3,2.7c0,0,0,0,0,0.1C42.7,90.1,39.5,91.6,36.9,95z"/>
		<path class="st3" d="M101,54l-2.9,2.9c-10.4-10.4-27.2-10.4-37.6,0l-2.9-2.9C69.7,42,89.1,42,101,54z"/>
		<path class="st3" d="M95.3,59.7l-2.9,2.9c-7.2-7.2-18.9-7.2-26.1,0l-2.9-2.9C72.3,50.9,86.5,50.9,95.3,59.7z"/>
		<path class="st3" d="M89.6,65.5l-2.9,2.9c-4-4-10.6-4.1-14.7,0l-2.9-2.9C74.8,59.8,83.9,59.8,89.6,65.5L89.6,65.5z"/>
		<path class="st3" d="M83.8,71.2l-4.4,4.4l-4.5-4.5C77.4,68.7,81.4,68.7,83.8,71.2z"/>
		<path class="st3" d="M127.7,69.6c-0.1,0.7-0.3,1.4-0.5,2.1l-0.8,3.3H125l-2.4-7.4h1.5l0.9,3c0.3,0.9,0.5,1.8,0.7,2.5h0
			c0.2-0.8,0.4-1.6,0.6-2.5l0.8-3h1.4l0.8,3c0.2,0.8,0.4,1.7,0.6,2.5h0c0.2-0.9,0.4-1.7,0.7-2.5l0.9-3h1.5l-2.4,7.4H129l-0.8-3.3
			C128,71,127.9,70.3,127.7,69.6L127.7,69.6z"/>
		<path class="st3" d="M133.6,67h1.4v1.4h-1.4V67z M133.6,69.7h1.3v5.4h-1.3V69.7z"/>
		<path class="st3" d="M138,75.1h-1.4v-7.4h4.7v1.1H138v1.9h2.9v1.1H138L138,75.1z"/>
		<path class="st3" d="M142.4,67h1.4v1.4h-1.4V67z M142.4,69.7h1.3v5.4h-1.3V69.7z"/>
		<path class="st3" d="M25,69.7h4.8v4.4H25V69.7z M25.1,76.5h4.6v18.2h-4.6V76.5z"/>
	</g>
</g>
</svg>
