<svg xmlns="http://www.w3.org/2000/svg" width="90" height="100" viewBox="0 0 90 100">
  <defs>
    <style>
      .cls-1 {
        fill: #fff;
      }
    </style>
  </defs>
  <g id="圖層_1" data-name="圖層 1">
    <g>
      <path class="cls-1" d="M65.07,32.33H24.93a8.67,8.67,0,0,1,0-17.33H65.07a8.67,8.67,0,0,1,0,17.33ZM24.93,18.05a5.62,5.62,0,0,0,0,11.23H65.07a5.62,5.62,0,0,0,0-11.23Z"/>
      <path class="cls-1" d="M65.07,53H24.93a8.67,8.67,0,0,1,0-17.33H65.07a8.67,8.67,0,0,1,0,17.33ZM24.93,38.68a5.62,5.62,0,0,0,0,11.23H65.07a5.62,5.62,0,0,0,0-11.23Z"/>
      <circle class="cls-1" cx="45" cy="23.66" r="2.82"/>
      <circle class="cls-1" cx="45" cy="44.29" r="2.82"/>
      <path class="cls-1" d="M72.21,75a6.43,6.43,0,1,1,6.43-6.43A6.44,6.44,0,0,1,72.21,75Zm0-9.81a3.38,3.38,0,1,0,3.38,3.38A3.38,3.38,0,0,0,72.21,65.14Z"/>
      <path class="cls-1" d="M17.79,75a6.43,6.43,0,1,1,6.43-6.43A6.44,6.44,0,0,1,17.79,75Zm0-9.81a3.38,3.38,0,1,0,3.39,3.38A3.38,3.38,0,0,0,17.79,65.14Z"/>
      <path class="cls-1" d="M45,59.41a1.52,1.52,0,0,1-1.52-1.52V51.43a1.52,1.52,0,0,1,3,0v6.46A1.52,1.52,0,0,1,45,59.41Z"/>
      <rect class="cls-1" x="43.48" y="31.59" width="3.05" height="6.17"/>
      <rect class="cls-1" x="22.7" y="67" width="11.71" height="3.05"/>
      <rect class="cls-1" x="57.21" y="67" width="10.09" height="3.05"/>
      <path class="cls-1" d="M45,85a3.78,3.78,0,0,1-1.85-.48l-7.34-4.1a3.84,3.84,0,0,1-1.92-2.82L32,63.53a3.81,3.81,0,0,1,2.6-4.12l9.21-3a3.89,3.89,0,0,1,2.34,0l9.21,3A3.81,3.81,0,0,1,58,63.53L56.11,77.6a3.84,3.84,0,0,1-1.92,2.82h0l-7.34,4.1A3.78,3.78,0,0,1,45,85Zm0-25.7a.85.85,0,0,0-.23,0l-9.22,3a.76.76,0,0,0-.51.82L36.91,77.2a.79.79,0,0,0,.38.56l7.34,4.1a.75.75,0,0,0,.74,0l7.34-4.1a.79.79,0,0,0,.38-.56L55,63.13a.76.76,0,0,0-.51-.82l-9.22-3A.85.85,0,0,0,45,59.3Zm8.45,19.79Z"/>
      <path class="cls-1" d="M43.94,75a1.52,1.52,0,0,1-.9-.3l-4.67-3.44a1.52,1.52,0,0,1,1.81-2.45l3.62,2.66,5.55-5.51a1.52,1.52,0,1,1,2.15,2.16L45,74.51A1.55,1.55,0,0,1,43.94,75Z"/>
    </g>
  </g>
</svg>
