<svg width="90" height="60" viewBox="0 0 90 60" fill="none" xmlns="http://www.w3.org/2000/svg">
<path d="M36.6797 6.54092C37.3639 6.56135 37.9904 6.92997 38.3399 7.51846L51.3897 29.4989L51.4854 29.6796C51.9124 30.5991 51.5819 31.7114 50.6915 32.2401C49.8011 32.7688 48.6665 32.5266 48.0635 31.7118L47.9503 31.5409L36.5089 12.2714L5.65631 57.8515C5.03712 58.7659 3.79357 59.0055 2.87897 58.3866C1.96436 57.7675 1.72491 56.524 2.34381 55.6093L34.9639 7.41885L35.0391 7.31533C35.429 6.81187 36.0382 6.5219 36.6797 6.54092Z" fill="#6E777C"/>
<path d="M55.9424 10.9799C56.6072 10.9942 57.2221 11.3387 57.582 11.8979L67.8916 27.9174C68.4894 28.8463 68.2208 30.0843 67.292 30.6821C66.3633 31.2795 65.126 31.011 64.5283 30.0825L55.8232 16.5561L48.6338 26.7436C47.9968 27.6457 46.749 27.8609 45.8467 27.2241C44.9443 26.5872 44.7294 25.3394 45.3662 24.437L54.2656 11.8266L54.3408 11.727C54.7282 11.2448 55.3194 10.9667 55.9424 10.9799Z" fill="#6E777C"/>
<path d="M71.9473 22.9483C72.7328 22.3076 73.8918 22.3538 74.624 23.086L83.4541 31.9161C84.026 32.4881 84.1972 33.3485 83.8877 34.0958C83.5781 34.8429 82.8488 35.3301 82.04 35.3302H81.5908L86.4853 40.8419C87.0082 41.4306 87.1372 42.2721 86.8144 42.9903C86.4917 43.7083 85.7774 44.1698 84.9902 44.17H83.8398L88.1982 49.7716C88.6673 50.3745 88.7526 51.1927 88.417 51.879C88.0814 52.5651 87.3839 53 86.6201 53.0001H59.7998C59.0359 53.0001 58.3385 52.5651 58.0029 51.879C57.6673 51.1927 57.7526 50.3745 58.2217 49.7716L62.5791 44.17H61.4297C60.6425 44.17 59.9283 43.7083 59.6055 42.9903C59.2827 42.2721 59.4117 41.4306 59.9346 40.8419L64.8291 35.3302H64.3799C63.5711 35.3302 62.8419 34.8429 62.5322 34.0958C62.2227 33.3484 62.3938 32.4881 62.9658 31.9161L71.7959 23.086L71.9473 22.9483ZM69.208 31.3302H69.2803C70.0674 31.3303 70.7817 31.7919 71.1045 32.5098C71.407 33.1831 71.3128 33.9649 70.8691 34.545L70.7754 34.6583L65.8808 40.17H66.6699C67.4337 40.17 68.1312 40.605 68.4668 41.2911C68.8024 41.9774 68.7171 42.7956 68.248 43.3985L63.8896 49.0001H82.5293L78.1709 43.3985C77.7018 42.7956 77.6175 41.9774 77.9531 41.2911C78.2888 40.605 78.9862 40.17 79.75 40.17H80.5391L75.6445 34.6583C75.1217 34.0695 74.9927 33.2281 75.3154 32.5098C75.6382 31.7919 76.3524 31.3302 77.1396 31.3302H77.2119L73.2099 27.3282L69.208 31.3302Z" fill="#6E777C"/>
<path d="M49.3797 30C49.7774 30 50.1589 30.1582 50.4402 30.4395L57.031 37.0293C57.4598 37.4583 57.5874 38.1036 57.3552 38.6641C57.123 39.2245 56.5761 39.5898 55.9695 39.5898H55.6472L59.282 43.6846L59.3513 43.7695C59.684 44.2046 59.755 44.79 59.5281 45.2949C59.286 45.8335 58.7504 46.1797 58.1599 46.1797H57.324L60.5642 50.3496C60.9156 50.8019 60.9791 51.4152 60.7273 51.9297C60.4755 52.444 59.9523 52.7695 59.3797 52.7695H39.3699C38.7972 52.7695 38.274 52.4441 38.0222 51.9297C37.7705 51.4152 37.8339 50.8019 38.1853 50.3496L41.4256 46.1797H40.5896C39.999 46.1796 39.4634 45.8328 39.2215 45.2939C38.9798 44.7553 39.0764 44.1249 39.4685 43.6836L43.1082 39.5898H42.7898C42.1832 39.5898 41.6362 39.2245 41.4041 38.6641C41.1719 38.1036 41.3003 37.4583 41.7293 37.0293L48.3191 30.4395L48.4295 30.3398C48.6963 30.1212 49.0317 30.0001 49.3797 30ZM46.4109 36.5898H46.45C47.0406 36.5899 47.5762 36.9368 47.8181 37.4756C48.0601 38.0145 47.9636 38.6455 47.5711 39.0869L43.9314 43.1797H44.49C45.0627 43.1797 45.5859 43.5061 45.8377 44.0205C46.0894 44.5349 46.026 45.1483 45.6746 45.6006L42.4353 49.7695H56.3142L53.075 45.6006C52.7236 45.1483 52.6611 44.535 52.9129 44.0205C53.1646 43.5063 53.687 43.1798 54.2595 43.1797H54.822L51.1882 39.0859C50.7962 38.6443 50.7001 38.0132 50.9422 37.4746C51.1844 36.9363 51.72 36.5898 52.3103 36.5898H52.3484L49.3797 33.6211L46.4109 36.5898Z" fill="#6E777C"/>
</svg>
