<?xml version="1.0" encoding="UTF-8"?>
<svg id="_層_1" data-name="圖層 1" xmlns="http://www.w3.org/2000/svg" width="56" height="56" viewBox="0 0 56 56">
  <defs>
    <style>
      .cls-1 {
        fill: #fff;
      }
    </style>
  </defs>
  <g>
    <polygon class="cls-1" points="29.33 4.39 2.74 24.28 55.92 24.28 29.33 4.39"/>
    <path d="M55.92,25.69H2.74c-.61,0-1.15-.39-1.34-.96s0-1.21,.49-1.57L28.48,3.26c.5-.37,1.19-.37,1.69,0l26.59,19.9c.49,.36,.68,1,.49,1.57s-.73,.96-1.34,.96ZM6.97,22.88H51.68L29.33,6.15,6.97,22.88Z"/>
  </g>
  <g>
    <rect class="cls-1" x="8.35" y="24.28" width="6.96" height="21.26"/>
    <path d="M15.31,46.95h-6.96c-.78,0-1.41-.63-1.41-1.41V24.28c0-.78,.63-1.41,1.41-1.41h6.96c.78,0,1.41,.63,1.41,1.41v21.26c0,.78-.63,1.41-1.41,1.41Zm-5.55-2.82h4.14V25.69h-4.14v18.44Z"/>
  </g>
  <g>
    <rect class="cls-1" x="31.68" y="24.28" width="6.96" height="21.26"/>
    <path d="M38.64,46.95h-6.96c-.78,0-1.41-.63-1.41-1.41V24.28c0-.78,.63-1.41,1.41-1.41h6.96c.78,0,1.41,.63,1.41,1.41v21.26c0,.78-.63,1.41-1.41,1.41Zm-5.55-2.82h4.14V25.69h-4.14v18.44Z"/>
  </g>
  <g>
    <rect class="cls-1" x="20.01" y="24.28" width="6.96" height="21.26"/>
    <path d="M26.97,46.95h-6.96c-.78,0-1.41-.63-1.41-1.41V24.28c0-.78,.63-1.41,1.41-1.41h6.96c.78,0,1.41,.63,1.41,1.41v21.26c0,.78-.63,1.41-1.41,1.41Zm-5.55-2.82h4.14V25.69h-4.14v18.44Z"/>
  </g>
  <g>
    <rect class="cls-1" x="43.35" y="24.28" width="6.96" height="21.26"/>
    <path d="M50.31,46.95h-6.96c-.78,0-1.41-.63-1.41-1.41V24.28c0-.78,.63-1.41,1.41-1.41h6.96c.78,0,1.41,.63,1.41,1.41v21.26c0,.78-.63,1.41-1.41,1.41Zm-5.55-2.82h4.14V25.69h-4.14v18.44Z"/>
  </g>
  <g>
    <rect class="cls-1" x="26.25" y="21.59" width="6.16" height="50.44" transform="translate(76.14 17.49) rotate(90)"/>
    <path d="M54.55,51.3H4.11c-.78,0-1.41-.63-1.41-1.41v-6.16c0-.78,.63-1.41,1.41-1.41H54.55c.78,0,1.41,.63,1.41,1.41v6.16c0,.78-.63,1.41-1.41,1.41Zm-49.03-2.82H53.14v-3.34H5.51v3.34Z"/>
  </g>
</svg>