<svg width="21" height="21" viewBox="0 0 21 21" fill="none" xmlns="http://www.w3.org/2000/svg">
<path d="M6.22423 3.41002C6.85984 3.02618 7.53563 2.73374 8.23335 2.53633L8.52558 1.12527C8.59499 0.788956 8.89088 0.544031 9.23426 0.536719L11.4151 0.500167C11.7584 0.492855 12.0616 0.726811 12.1457 1.06313L12.489 2.46322C13.194 2.63504 13.8772 2.90555 14.5274 3.2638L15.7475 2.46322C16.0251 2.28044 16.394 2.317 16.6315 2.5473L18.2278 4.08996C18.4689 4.32027 18.5164 4.68948 18.3411 4.97096L17.5849 6.22118C17.9685 6.85725 18.2607 7.53354 18.4579 8.23176L20.0031 8.55345C20.2625 8.60829 20.4488 8.83494 20.4561 9.09814L20.4999 11.551C20.5036 11.8142 20.3246 12.0482 20.0689 12.1103L18.5383 12.4869C18.3666 13.1924 18.0963 13.876 17.7383 14.5267L18.4689 15.6453C18.6917 15.9853 18.6479 16.4349 18.3666 16.7237L16.9968 18.1421C16.7155 18.4345 16.2698 18.493 15.9228 18.281L14.7794 17.5864C14.1438 17.9703 13.468 18.2627 12.7703 18.4601L12.4598 19.9626C12.4014 20.2477 12.153 20.4524 11.8607 20.4597L9.49727 20.5C9.20503 20.5036 8.94933 20.3062 8.87992 20.0247L8.51462 18.5369C7.80961 18.3651 7.1265 18.0946 6.47628 17.7363L5.26715 18.5296C4.98222 18.716 4.60597 18.6831 4.35757 18.4455L2.7795 16.9211C2.53475 16.6835 2.48361 16.307 2.6626 16.0145L3.41146 14.7789C3.0279 14.1429 2.73566 13.4666 2.5384 12.7684L0.967636 12.443C0.722888 12.3918 0.547547 12.1798 0.543894 11.9312L0.500058 9.42349C0.496405 9.17491 0.664441 8.95557 0.905536 8.89708L2.46534 8.51324C2.63703 7.80771 2.90735 7.12411 3.26534 6.47342L2.49457 5.29266C2.29731 4.98924 2.33384 4.58713 2.58589 4.32758L4.05803 2.8032C4.31008 2.54365 4.70825 2.48881 5.01875 2.6789L6.22423 3.41002ZM8.47444 7.48236C6.47263 8.9775 6.52377 11.9495 8.57672 13.3715C9.82238 14.2343 11.5247 14.205 12.7374 13.2984C14.7429 11.8033 14.6881 8.83128 12.6351 7.40559C11.3895 6.54287 9.68722 6.57577 8.47444 7.47871V7.48236Z" fill="white"/>
</svg>
