<svg id="圖層_1" data-name="圖層 1" xmlns="http://www.w3.org/2000/svg" width="246" height="246" viewBox="0 0 246 246">
  <defs>
    <style>
      .cls-1 {
        fill: #fff;
      }
    </style>
  </defs>
  <g>
    <path class="cls-1" d="M144.42,172.06c-4.62,0-9.1-1.5-11.8-5.11L121.14,156.3c-3.79-2.56-5.16-5.47-3.66-7.81a7.17,7.17,0,0,1,4.63-2.74,7.6,7.6,0,0,1,5.44.59l2,1c-1.82-5-5.73-15-8.39-21.7A5.9,5.9,0,1,1,132,120.9l4.49,10.2a5.8,5.8,0,0,1,7.2-2.44,6,6,0,0,1,3,2.59,5.81,5.81,0,0,1,7.41-2.81,6,6,0,0,1,3,2.64,5.32,5.32,0,0,1,1.69-1.2c3-1.3,6.6.35,8.07,3.7l4.77,10.84a16.28,16.28,0,0,1,.35,12.36,15.68,15.68,0,0,1-8.39,8.91l-10.19,4.49A22.85,22.85,0,0,1,144.42,172.06Zm-20.19-23.5a7.5,7.5,0,0,0-1.49.16,4.52,4.52,0,0,0-2.7,1.4c-.53.83,1,2.5,2.88,3.71a1.56,1.56,0,0,1,.2.16l11.67,10.83a1.37,1.37,0,0,1,.19.22c3.43,4.71,11.46,4.9,17.23,2.35l10.19-4.48a12.67,12.67,0,0,0,6.76-7.2,13.21,13.21,0,0,0-.28-10.07l-4.77-10.83h0c-.78-1.79-2.64-2.77-4.06-2.15a2.71,2.71,0,0,0-1.49,2.18,1.51,1.51,0,0,1-2.89.39l-1.06-2.4a3,3,0,0,0-1.62-1.57,2.79,2.79,0,0,0-2.18,0,2.91,2.91,0,0,0-1.43,3.85l.79,1.8a1.55,1.55,0,0,1,0,1.16,1.52,1.52,0,0,1-.81.84l-.78.35a1.53,1.53,0,0,1-2-.78l-2.4-5.45a2.94,2.94,0,0,0-1.62-1.57,2.79,2.79,0,0,0-3.67,1.62,3,3,0,0,0,.07,2.25l2.41,5.48a1.52,1.52,0,0,1-.71,2l-.16.08-.28.14a1.51,1.51,0,0,1-2.12-.72l-8.88-20.17a2.86,2.86,0,1,0-5.23,2.3c9.84,24.74,9.68,25.48,9.57,26a1.49,1.49,0,0,1-.8,1.05,1.52,1.52,0,0,1-1.33,0l-5.29-2.47-.19-.11A3.36,3.36,0,0,0,124.23,148.56Z"/>
    <path class="cls-1" d="M91.09,100.43H81.28a8.35,8.35,0,0,1-8.34-8.34V82.27a8.35,8.35,0,0,1,8.34-8.33h9.81a8.35,8.35,0,0,1,8.34,8.33v9.82A8.35,8.35,0,0,1,91.09,100.43ZM81.28,77a5.3,5.3,0,0,0-5.3,5.3v9.82a5.3,5.3,0,0,0,5.3,5.3h9.81a5.3,5.3,0,0,0,5.3-5.3V82.27a5.3,5.3,0,0,0-5.3-5.3Z"/>
    <path class="cls-1" d="M123.57,100.43h-9.82a8.35,8.35,0,0,1-8.34-8.34V82.27a8.35,8.35,0,0,1,8.34-8.33h9.82a8.35,8.35,0,0,1,8.34,8.33v9.82A8.35,8.35,0,0,1,123.57,100.43ZM113.75,77a5.31,5.31,0,0,0-5.3,5.3v9.82a5.31,5.31,0,0,0,5.3,5.3h9.82a5.31,5.31,0,0,0,5.3-5.3V82.27a5.31,5.31,0,0,0-5.3-5.3Z"/>
    <path class="cls-1" d="M155.48,100.43h-9.82a8.35,8.35,0,0,1-8.34-8.34V82.27a8.35,8.35,0,0,1,8.34-8.33h9.82a8.34,8.34,0,0,1,8.33,8.33v9.82A8.35,8.35,0,0,1,155.48,100.43ZM145.66,77a5.31,5.31,0,0,0-5.3,5.3v9.82a5.31,5.31,0,0,0,5.3,5.3h9.82a5.31,5.31,0,0,0,5.3-5.3V82.27a5.31,5.31,0,0,0-5.3-5.3Z"/>
    <path class="cls-1" d="M91.09,132.12H81.28a8.35,8.35,0,0,1-8.34-8.34V114a8.35,8.35,0,0,1,8.34-8.34h9.81A8.35,8.35,0,0,1,99.43,114v9.82A8.35,8.35,0,0,1,91.09,132.12Zm-9.81-23.46A5.3,5.3,0,0,0,76,114v9.82a5.3,5.3,0,0,0,5.3,5.3h9.81a5.3,5.3,0,0,0,5.3-5.3V114a5.3,5.3,0,0,0-5.3-5.3Z"/>
    <path class="cls-1" d="M123.57,132.12h-9.82a8.35,8.35,0,0,1-8.34-8.34V114a8.35,8.35,0,0,1,8.34-8.34h9.82a8.35,8.35,0,0,1,8.34,8.34v6.46a1.52,1.52,0,0,1-3,0V114a5.31,5.31,0,0,0-5.3-5.3h-9.82a5.31,5.31,0,0,0-5.3,5.3v9.82a5.31,5.31,0,0,0,5.3,5.3h9.82a5.86,5.86,0,0,0,.94-.08,1.5,1.5,0,0,1,1.76,1.22,1.53,1.53,0,0,1-1.22,1.77A9,9,0,0,1,123.57,132.12Z"/>
    <path class="cls-1" d="M155.48,132.12a1.52,1.52,0,1,1,0-3,5.31,5.31,0,0,0,5.3-5.3V114a5.31,5.31,0,0,0-5.3-5.3h-9.82a5.31,5.31,0,0,0-5.3,5.3v9.82a5.31,5.31,0,0,0,5.3,5.3h3.43a1.52,1.52,0,1,1,0,3h-3.43a8.35,8.35,0,0,1-8.34-8.34V114a8.35,8.35,0,0,1,8.34-8.34h9.82a8.35,8.35,0,0,1,8.33,8.34v9.82A8.35,8.35,0,0,1,155.48,132.12Z"/>
    <path class="cls-1" d="M91.09,163.8H81.28a8.35,8.35,0,0,1-8.34-8.33v-9.82a8.35,8.35,0,0,1,8.34-8.34h9.81a8.35,8.35,0,0,1,8.34,8.34v9.82A8.35,8.35,0,0,1,91.09,163.8Zm-9.81-23.45a5.3,5.3,0,0,0-5.3,5.3v9.82a5.3,5.3,0,0,0,5.3,5.3h9.81a5.3,5.3,0,0,0,5.3-5.3v-9.82a5.3,5.3,0,0,0-5.3-5.3Z"/>
    <path class="cls-1" d="M123.57,163.8h-9.82a8.35,8.35,0,0,1-8.34-8.33v-9.82a8.35,8.35,0,0,1,8.34-8.34h9.82a8.35,8.35,0,0,1,8.34,8.34v3.69a1.52,1.52,0,0,1-3,0v-3.69a5.31,5.31,0,0,0-5.3-5.3h-9.82a5.31,5.31,0,0,0-5.3,5.3v9.82a5.31,5.31,0,0,0,5.3,5.3h9.82a5.31,5.31,0,0,0,3.46-1.3,1.52,1.52,0,0,1,2,2.29A8.28,8.28,0,0,1,123.57,163.8Z"/>
  </g>
</svg>
