<?xml version="1.0" encoding="utf-8"?>
<!-- Generator: Adobe Illustrator 24.2.1, SVG Export Plug-In . SVG Version: 6.00 Build 0)  -->
<svg version="1.1" id="圖層_1" xmlns="http://www.w3.org/2000/svg" xmlns:xlink="http://www.w3.org/1999/xlink" x="0px" y="0px"
	 width="398px" height="65.5px" viewBox="0 0 398 65.5" style="enable-background:new 0 0 398 65.5;" xml:space="preserve">
<g>
	<g>
		<path d="M51.6,39.2c-11.8,0-12.1,17.9,0,17.9C63.8,57.1,63.4,39.2,51.6,39.2z M51.6,54.8c-8.7-0.2-8.7-13,0-13.2
			C60.3,41.7,60.3,54.6,51.6,54.8z"/>
		<path d="M79.9,15c-0.7,0-1.2,0.5-1.2,1.2v8.9c-1.4-1.8-3.6-3-6.5-3c-5.9,0-8.9,4.5-9,9c0,4.5,3.1,9,9,9c3,0,5.1-1.2,6.5-3v1.5
			c0,0.7,0.5,1.2,1.2,1.2s1.2-0.5,1.2-1.2V16.2C81.2,15.5,80.6,15,79.9,15z M72.2,37.7c-4.3-0.1-6.5-3.3-6.5-6.6s2.2-6.5,6.5-6.6
			c4.3,0.1,6.5,3.3,6.5,6.6C78.7,34.3,76.5,37.6,72.2,37.7z"/>
		<path d="M104,1.6c-0.7,0-1.2,0.6-1.2,1.2v1.5c-1.4-1.7-3.5-3-6.5-3c-5.9,0-8.9,4.5-9,9c0,4.5,3.1,9,9,9c3,0,5.1-1.2,6.5-3v1.5
			c0,0.7,0.6,1.2,1.2,1.2c0.7,0,1.2-0.6,1.2-1.2v-15C105.2,2.2,104.7,1.6,104,1.6z M96.3,16.9c-4.3-0.1-6.5-3.3-6.5-6.6
			s2.2-6.5,6.5-6.6c4.3,0.1,6.5,3.3,6.5,6.6C102.8,13.5,100.6,16.8,96.3,16.9z"/>
		<path d="M24.3,39.5c-3.7,0-6.3,1.8-7.7,4.3c-1.4-2.5-4-4.3-7.7-4.3c-2.7,0-5.1,1.2-6.5,3.1v-1.5c0-0.7-0.5-1.2-1.2-1.2
			S0,40.5,0,41.1V47v1.5V56c0,0.7,0.5,1.2,1.2,1.2s1.2-0.5,1.2-1.2c0-1.4-0.1-7.4,0.1-9.5c0.1-0.4,0.2-0.7,0.2-0.9
			c0.9-2.2,3.1-3.6,6.2-3.7c4.3,0.1,6.5,3.3,6.5,6.6V56c0,0.7,0.6,1.2,1.2,1.2s1.2-0.6,1.2-1.2v-7.5l0,0c0-3.3,2.2-6.5,6.5-6.6
			c2.8,0,4.7,1.3,5.6,3.1c0.6,1.1,0.8,2.5,0.9,4.2V51v4.9c0,0.7,0.5,1.2,1.2,1.2c0.7,0,1.2-0.5,1.2-1.2V51v-2.5
			C33.3,43.2,29.8,39.6,24.3,39.5z"/>
	</g>
	<g>
		<g>
			<polygon points="138.7,18.8 131.2,2.1 128.7,2.1 128.7,22.1 131,22.1 131,6.5 131.2,7 138,22.1 139.7,22.1 146.6,6.5 146.6,22.1 
				149,22.1 149,2.1 146.4,2.1 138.9,19 			"/>
			<path d="M155.2,0.1c-0.9,0-1.7,0.8-1.7,1.7s0.8,1.7,1.7,1.7s1.7-0.8,1.7-1.7C156.7,0.8,156.1,0.1,155.2,0.1z"/>
			<rect x="153.9" y="6.3" width="2.5" height="15.8"/>
			<path d="M155.2,0c-1,0-1.8,0.8-1.8,1.8s0.8,1.8,1.8,1.8c0.9,0,1.8-0.8,1.8-1.8S156.1,0,155.2,0z M155.2,3.5
				c-0.9,0-1.7-0.8-1.7-1.7s0.8-1.7,1.7-1.7s1.7,0.8,1.7,1.7C156.7,2.7,156.1,3.5,155.2,3.5z"/>
			<path d="M163.9,8.5l-0.3,0.4V6.3h-2.5v15.8h2.5v-8.7c0-3.2,1.8-5.3,4.7-5.3c2.8,0,4.7,1.9,4.7,5V22h2.3v-9.3
				c0-4.1-2.5-6.7-6.5-6.7C166.7,6.1,164.9,7,163.9,8.5z"/>
			<path d="M181.3,0.1c-0.9,0-1.7,0.8-1.7,1.7s0.8,1.7,1.7,1.7s1.7-0.8,1.7-1.7C183,0.8,182.2,0.1,181.3,0.1z"/>
			<rect x="180.2" y="6.3" width="2.5" height="15.8"/>
			<path d="M192.6,8c2.1,0,3.4,1,3.6,2.7h2.5c-0.3-3-2.5-4.8-6-4.8c-3.4,0-5.7,1.8-5.7,4.4c0,3.2,3,4,5.6,4.8c2.1,0.5,3.9,1,3.9,2.7
				c0,1.6-1.4,2.5-3.4,2.5c-2.2,0-3.6-1-3.9-2.7h-2.5c0.3,2.8,2.8,4.7,6.5,4.7c3.4,0,5.7-1.8,5.7-4.5c0-3.1-2.8-3.9-5.3-4.5
				c-2.1-0.5-4-1.2-4-3C189.4,9.1,190.7,8,192.6,8z"/>
			<path d="M205.8,2.3h-2.5v4h-2.1v1.9h2.1v9.6c0,3,1.3,4.3,4.3,4.3h2.3v-1.9h-1.8c-1.7,0-2.3-0.6-2.3-2.2V8.4h4.1V6.5h-4.1V2.3
				L205.8,2.3z"/>
			<path d="M216,9.3v-3h-2.5v15.8h2.5v-8.5c0-3.4,1.6-4.9,4.5-4.9h0.5V6.1c-2.3,0-4,1-4.9,2.8L216,9.3z"/>
			<polygon points="230.5,19.2 225.6,6.3 222.9,6.3 229.2,22 229.2,22.1 226.1,29.6 228.7,29.6 238.2,6.3 235.7,6.3 230.7,19.5 			
				"/>
			<path d="M256.3,6.1c-4.7,0-8,3.4-8,8.2s3.2,8.2,7.9,8.2c4.8,0,8-3.4,8-8.2S260.9,6.1,256.3,6.1z M256.2,20.2
				c-2.5,0-5.4-1.6-5.4-6.1s3-6.1,5.4-6.1c2.7,0,5.6,1.8,5.6,6.1C261.7,18.4,258.9,20.2,256.2,20.2z"/>
			<path d="M271,5c0-2.2,0.9-3.1,3.2-3.1V0c-3.9,0-5.6,1.6-5.6,5v1.3h-2.1v1.9h2.1v13.9h2.5V8.3h3.4v-2h-3.4V5H271z"/>
		</g>
		<g>
			<path d="M134.9,37.5h-6.2v20.1h6.2c6.6,0,10.7-3.9,10.7-10C145.6,41.4,141.5,37.5,134.9,37.5z M134.9,55.8h-3.8V39.5h3.8
				c5.2,0,8.3,3,8.3,8.2S140.2,55.8,134.9,55.8z"/>
			<rect x="149.5" y="41.9" width="2.5" height="15.8"/>
			<path d="M150.8,35.7c-0.9,0-1.7,0.8-1.7,1.7s0.8,1.7,1.7,1.7s1.7-0.8,1.7-1.7C152.5,36.4,151.7,35.7,150.8,35.7z"/>
			<path d="M163.3,41.7c-4.4,0-7.5,3.4-7.5,8c0,4.8,3.1,8.2,7.5,8.2c3,0,5-1.7,5.8-3.2l0.3-0.4v3.9c0,3.2-1.9,5.3-5,5.3
				c-2.6,0-4.5-1.3-5.2-3.2h-2.3c0.5,3.2,3.5,5.3,7.6,5.3c4.5,0,7.5-3,7.5-7.4V41.9h-2.5v3.2l-0.3-0.4
				C168.4,43.2,166.4,41.7,163.3,41.7z M169.4,49.7c0,3.6-2.3,6.1-5.6,6.1c-3.2,0-5.6-2.5-5.6-6.1c0-3.5,2.3-6.1,5.6-6.1
				C167.1,43.8,169.4,46.2,169.4,49.7z"/>
			<path d="M178,35.7c-0.9,0-1.7,0.8-1.7,1.7s0.8,1.7,1.7,1.7s1.7-0.8,1.7-1.7C179.7,36.4,179,35.7,178,35.7z"/>
			<rect x="176.8" y="41.9" width="2.5" height="15.8"/>
			<path d="M187.2,37.9h-2.5v4h-2.1v1.9h2.1v9.6c0,3,1.3,4.3,4.3,4.3h2.3v-1.9h-1.8c-1.7,0-2.3-0.6-2.3-2.2V44h4.1v-1.9h-4.1V37.9z"
				/>
			<path d="M201.4,41.7c-4.4,0-7.5,3.4-7.5,8c0,4.8,3.1,8.2,7.5,8.2c2.6,0,4.8-1.2,5.8-3.2l0.3-0.4v3.4h2.5V41.9h-2.5v3.2l-0.3-0.4
				C206.2,42.8,204,41.7,201.4,41.7z M207.5,49.7c0,3.6-2.3,6.1-5.6,6.1c-3.2,0-5.6-2.5-5.6-6.1c0-3.5,2.3-6.1,5.6-6.1
				C205.2,43.8,207.5,46.2,207.5,49.7z"/>
			<rect x="214.9" y="36.2" width="2.5" height="21.4"/>
			<path d="M236.2,37.7L229,57.6h2.6l1.7-4.5h9.1v0.1l1.6,4.4h2.6l-7.2-19.9C239.4,37.7,236.2,37.7,236.2,37.7z M233.8,51.3
				L233.8,51.3l3.8-10.7l3.9,10.7H233.8z"/>
			<path d="M252.9,40.6c0-2.2,0.9-3.1,3.2-3.1v-1.9c-3.9,0-5.6,1.6-5.6,5v1.3h-2.1v1.9h2.1v13.9h2.5V43.9h3.4V42h-3.5V40.6z"/>
			<path d="M262.6,40.6c0-2.2,0.9-3.1,3.2-3.1v-1.9c-3.9,0-5.6,1.6-5.6,5v1.3h-2.1v1.9h2.1v13.9h2.5V43.9h3.4V42h-3.4v-1.3h-0.1
				V40.6z"/>
			<path d="M276,41.7c-4.4,0-7.5,3.4-7.5,8c0,4.8,3.1,8.2,7.5,8.2c2.6,0,4.8-1.2,5.8-3.2l0.3-0.4v3.4h2.5V41.9h-2.5v3.2l-0.3-0.4
				C280.7,42.8,278.5,41.7,276,41.7z M282,49.7c0,3.6-2.3,6.1-5.6,6.1c-3.2,0-5.6-2.5-5.6-6.1c0-3.5,2.3-6.1,5.6-6.1
				C279.7,43.8,282,46.2,282,49.7z"/>
			<path d="M290.7,35.7c-0.9,0-1.7,0.8-1.7,1.7s0.8,1.7,1.7,1.7s1.7-0.8,1.7-1.7C292.3,36.4,291.6,35.7,290.7,35.7z"/>
			<rect x="289.4" y="41.9" width="2.5" height="15.8"/>
			<path d="M299.1,44.9v-3h-2.5v15.8h2.5v-8.5c0-3.4,1.6-4.9,4.5-4.9h0.5v-2.6c-2.3,0-4,1-4.9,2.8L299.1,44.9z"/>
			<path d="M313.8,48.9c-2.1-0.5-4-1.2-4-3c0-1.4,1.3-2.3,3.2-2.3c2.1,0,3.4,1,3.6,2.7h2.5c-0.3-3-2.5-4.8-6-4.8
				c-3.4,0-5.7,1.8-5.7,4.4c0,3.2,3,4,5.6,4.8c2.1,0.5,3.9,1,3.9,2.7c0,1.6-1.4,2.5-3.4,2.5c-2.2,0-3.6-1-3.9-2.7h-2.5
				c0.3,2.8,2.8,4.7,6.5,4.7c3.4,0,5.7-1.8,5.7-4.5C319.1,50.4,316.2,49.6,313.8,48.9z"/>
		</g>
	</g>
</g>
</svg>
