<svg xmlns="http://www.w3.org/2000/svg" width="145.74" height="43.23" viewBox="0 0 145.74 43.23">
  <defs>
    <style>
      .cls-1 {
        fill: #fff;
      }
    </style>
  </defs>
  <g id="圖層_2" data-name="圖層 2">
    <g id="圖層_1-2" data-name="圖層 1">
      <g>
        <path class="cls-1" d="M141.74,0a4,4,0,0,0-4,4V39a4,4,0,0,0,8,0V4A4,4,0,0,0,141.74,0Z"/>
        <path class="cls-1" d="M112.83,17.74,123.75,6.83a4,4,0,1,0-5.66-5.66L99.4,19.86V4a4,4,0,0,0-8,0V39a4,4,0,0,0,8,0V31.17l7.69-7.68,12.61,18a4,4,0,0,0,6.56-4.59Z"/>
        <path class="cls-1" d="M69.08,1.1H53.91a2.88,2.88,0,0,0-1.74.59,4,4,0,0,0-2.26,3.59V39a4,4,0,0,0,8,0V25.67H69.08A11.78,11.78,0,0,0,80.85,13.91V12.86A11.77,11.77,0,0,0,69.08,1.1Zm4,12.81a6,6,0,0,1-6,5.95H57.91V6.9h9.17a6,6,0,0,1,6,6Z"/>
        <path class="cls-1" d="M35,19.38H23.77a3.9,3.9,0,0,0,0,7.79h7.29v4.57a25.61,25.61,0,0,1-12.38,2.8c-6.52,0-10.89-5.22-10.89-13,0-9.13,4.33-13.75,12.88-13.75,7.85,0,9,3.25,9.41,4.09a4.39,4.39,0,0,0,4.86,2.63,3.39,3.39,0,0,0,2.76-4.25C36.9,6.37,32.32,0,20.67,0,7.73,0,0,8.05,0,21.54,0,33.59,7.86,42.33,18.68,42.33c12.09,0,18.52-5.29,18.78-5.51a3.89,3.89,0,0,0,1.39-3V23.28A3.9,3.9,0,0,0,35,19.38Z"/>
      </g>
    </g>
  </g>
</svg>
