<svg id="圖層_1" data-name="圖層 1" xmlns="http://www.w3.org/2000/svg" width="246" height="246" viewBox="0 0 246 246">
  <defs>
    <style>
      .cls-1 {
        fill: #fff;
      }
    </style>
  </defs>
  <g>
    <g>
      <path class="cls-1" d="M81.19,157.34V143.52a29.94,29.94,0,0,1,4.46-.31q4.5,0,6.46,1.88a6.55,6.55,0,0,1,2,4.92,7.07,7.07,0,0,1-2.22,5.57q-2.24,2-6.88,2A29.73,29.73,0,0,1,81.19,157.34Zm3.23-11.52V155a6.93,6.93,0,0,0,1.17.06,5.14,5.14,0,0,0,3.73-1.27,4.78,4.78,0,0,0,1.32-3.63,4.35,4.35,0,0,0-1.2-3.31A4.87,4.87,0,0,0,86,145.69,7.28,7.28,0,0,0,84.42,145.82Z"/>
      <path class="cls-1" d="M104.81,153.73H100.6l-1,3.67H96.19l4.45-14.07h4.26l4.57,14.07H106Zm-3.73-2.38h3.23c-.85-2.75-1.4-4.63-1.65-5.66h0l-.67,2.67Z"/>
      <path class="cls-1" d="M115.21,157.4V146h-3.95v-2.7h11.19V146h-4V157.4Z"/>
      <path class="cls-1" d="M132.34,153.73h-4.22l-1,3.67h-3.36l4.45-14.07h4.25L137,157.4h-3.5Zm-3.74-2.38h3.24c-.85-2.75-1.4-4.63-1.65-5.66h0l-.67,2.67Z"/>
    </g>
    <g>
      <path class="cls-1" d="M172.47,116.44l13.77-6.17a1.2,1.2,0,0,0,.88-1c0-.53-.49-1-1.17-1.11-3.89-.93-29.14,3.09-40.58,15.68v-.07c-20.59-13.49-68.7-21-81.3-20.88h-.15c-2.78,0-5,.84-5,1.88,0,.67.94,1.26,2.36,1.6h0l.09,0,.32.06,19.54,4.09C98.9,116,123.75,125,136.39,139.87c17,27.14-10.49,17.52-16.77,19.64s20.81,9.15,29.22,3.47-1.43-22.65-1.43-22.65C144.82,133.16,160.25,123.28,172.47,116.44Z"/>
      <path class="cls-1" d="M81.18,140.46H94V117.61c-4.16-1.77-8.42-3.33-12.77-4.71Z"/>
      <path class="cls-1" d="M99.06,80.85H81.18v20.69a154,154,0,0,1,27.17,4.5Z"/>
      <path class="cls-1" d="M132.27,104.27v8.63A111.33,111.33,0,0,1,145,119.48V80.85H127.16l-10.24,26.64c4.22,1.35,8.4,2.65,12.48,4.4Z"/>
      <path class="cls-1" d="M117.56,129.67c-5.61-3.79-11.47-6.38-17.55-9.31l7.57,20.1h11.07l2.76-8.1Q119.57,131,117.56,129.67Z"/>
    </g>
  </g>
</svg>
