<svg id="圖層_1" data-name="圖層 1" xmlns="http://www.w3.org/2000/svg" width="246" height="246" viewBox="0 0 246 246">
  <defs>
    <style>
      .cls-1 {
        fill: #fff;
      }
    </style>
  </defs>
  <g>
    <path class="cls-1" d="M149.64,166.43H96.36A12.36,12.36,0,0,1,84,154.09V91.91A12.36,12.36,0,0,1,96.36,79.57h53.28A12.36,12.36,0,0,1,162,91.91v62.18A12.36,12.36,0,0,1,149.64,166.43ZM96.36,83.57A8.36,8.36,0,0,0,88,91.91v62.18a8.36,8.36,0,0,0,8.35,8.34h53.28a8.36,8.36,0,0,0,8.35-8.34V91.91a8.36,8.36,0,0,0-8.35-8.34Z"/>
    <g>
      <path class="cls-1" d="M146.88,104H99.12a2,2,0,0,1,0-4h47.76a2,2,0,0,1,0,4Z"/>
      <path class="cls-1" d="M146.88,118H99.12a2,2,0,0,1,0-4h47.76a2,2,0,0,1,0,4Z"/>
      <path class="cls-1" d="M146.88,132H99.12a2,2,0,0,1,0-4h47.76a2,2,0,0,1,0,4Z"/>
      <path class="cls-1" d="M133.75,146H99.12a2,2,0,0,1,0-4h34.63a2,2,0,0,1,0,4Z"/>
    </g>
  </g>
</svg>
