<svg xmlns="http://www.w3.org/2000/svg" width="129.06" height="55.34" viewBox="0 0 129.06 55.34">
  <defs>
    <style>
      .cls-1 {
        fill: #fff;
      }
    </style>
  </defs>
  <g id="圖層_2" data-name="圖層 2">
    <g id="圖層_1-2" data-name="圖層 1">
      <g>
        <rect class="cls-1" x="64.72" y="0.39" width="9" height="54.95"/>
        <path class="cls-1" d="M27.67,55.34A27.67,27.67,0,1,1,55.34,27.67,27.7,27.7,0,0,1,27.67,55.34ZM27.67,9A18.67,18.67,0,1,0,46.34,27.67,18.7,18.7,0,0,0,27.67,9Z"/>
        <path class="cls-1" d="M103.54,55.34H87.17V.39h16.37c14.07,0,25.52,12.32,25.52,27.47S117.61,55.34,103.54,55.34Zm-7.75-8.61h7.75c9.32,0,16.91-8.46,16.91-18.87S112.86,9,103.54,9H95.79Z"/>
      </g>
    </g>
  </g>
</svg>
