<?xml version="1.0" encoding="UTF-8"?>
<svg id="_層_1" data-name="圖層 1" xmlns="http://www.w3.org/2000/svg" width="246" height="246" viewBox="0 0 246 246">
  <defs>
    <style>
      .cls-1 {
        fill: #fff;
      }
    </style>
  </defs>
  <g>
    <path class="cls-1" d="M150.03,127.87h0l-49.07-27.8c-.25-.14-.5-.22-.69-.22-.45,0-.51,.59-.51,.94v4.09c0,1.36,1.03,3.14,2.21,3.81l38.67,21.9c1.93,1.1,2.91,3.61,2.22,5.73-.02,.06-.13,.38-.79,2-2.3,5.71-5.4,10.8-9.23,15.14-3.74,4.22-11.33,9.12-12.18,9.67-1.73,1.11-4.64,1.11-6.37,0-1.42-.91-8.56-5.59-12.17-9.66-5.29-5.98-9.17-15.44-9.59-16.49-.57-1.4-2.15-3.21-3.46-3.95l-5.34-3.03c-.3-.17-.49-.22-.59-.23-.02,.1-.03,.3,.05,.64,.23,.99,1.44,6.08,3.24,10.55,2.61,6.46,6.13,12.23,10.48,17.15,4.76,5.4,16.06,12.2,16.54,12.49,1.53,.91,3.07,1.79,3.52,1.99,.18,.08,.86,.08,1.03,0,.17-.08,.51-.27,.95-.51,.73-.4,1.68-.95,2.57-1.48,.47-.28,11.78-7.09,16.53-12.48,5.18-5.87,9.17-12.89,11.86-20.88,.53-1.57,1-3.16,1.4-4.7l.38-1.45c.23-1.05-.54-2.56-1.65-3.19Z"/>
    <polygon class="cls-1" points="117.49 88.68 112.11 92.13 123.33 92.13 117.49 88.68"/>
    <path class="cls-1" d="M153.69,90.99c0-1.51-.61-2.55-.87-2.67-.89-.27-2.94-1.06-4.56-1.75-.5-.21-12.36-5.22-18.51-8.91-3.15-1.88-5.77-3.6-7.43-4.72-.9-.61-1.62-1.1-2.09-1.44l-.7-.5s-.6-.43-1.34-.98c-.16-.12-.44-.19-.72-.19-.05,0-.11,0-.16,0-.23,.02-.44,.1-.58,.2l-.68,.5c-.41,.3-.69,.51-.72,.52-.13,.1-4.46,3.24-10.72,6.95-5.89,3.49-16.72,8.07-17.93,8.58-1.49,.62-3.6,1.44-4.56,1.74-.25,.11-.86,1.15-.86,2.66v16.4c0,1.81-.04,3.87-.08,4.66v2.3c.02,.69,.78,1.92,1.75,2.48,1.21,.69,3.43,1.94,4.93,2.79l40.49,22.93c.26,.14,.5,.23,.69,.23,.45,0,.52-.59,.52-.94v-4.09c0-1.36-1.03-3.14-2.21-3.81l-35.91-20.33c-3.26-1.96-3.24-3.85-3.22-5.51v-10.55c0-2.13,1.52-4.48,3.46-5.36,1.96-.89,11.88-5.41,17.09-8.52,3.5-2.1,5.51-3.45,5.53-3.46,1.74-1.15,4.63-1.14,6.35,0,.03,.02,2.05,1.37,5.54,3.47,5.36,3.2,15.89,7.98,17.07,8.51,1.95,.88,3.47,3.24,3.47,5.37v10.17c0,1.49,0,3.04,.01,3.24,0,.14,.13,2.41,2.28,3.62l3.34,1.89c.33,.19,.57,.23,.71,.23,.53,0,.65-.63,.67-1,0-.27,.04-1.01,.04-2.19v-1.52c-.04-.76-.08-2.82-.08-4.61v-16.4Z"/>
  </g>
  <g>
    <path class="cls-1" d="M91.91,111.32c.19,.13,.39,.27,.63,.41l35.88,20.32c.53,.3,1.02,.72,1.46,1.21,1.11,1.24,1.86,2.96,1.86,4.49v4.09c0,.73-.18,1.37-.49,1.88-.02,.03-.04,.05-.05,.08h3.03c.91,0,1.54-.72,1.54-1.96v-4.09c0-1.73-1.23-3.84-2.73-4.69l-35.91-20.33c-2.97-1.79-2.7-3.27-2.7-5v-10.17c0-1.73,1.28-3.72,2.86-4.43,.58-.26,11.58-5.23,17.19-8.57,2.01-1.2,3.53-2.16,4.48-2.77-.43-.17-.94-.27-1.47-.27-.75,0-1.47,.19-1.97,.52-.01,0-2.08,1.39-5.63,3.52-5.51,3.29-16.12,8.09-17.31,8.63-.1,.05-.2,.11-.31,.17-1.02,.64-1.87,2.04-1.87,3.2v10.57c-.02,1.27-.02,2.1,1.51,3.19Z"/>
    <path class="cls-1" d="M108.05,152.78c-5.27-5.96-9.2-15.68-9.41-16.2-.65-1.6-2.4-3.6-3.9-4.45l-5.34-3.03c-.12-.07-.23-.12-.34-.17-.03-.01-.05-.02-.08-.03-.08-.03-.16-.06-.24-.09h-.02s-.02,0-.03-.01c-.11-.03-.22-.05-.32-.06-.02,0-.04,0-.05,0-.03,0-.05,0-.07,0h-2.31l4.2,2.38c.67,.38,1.36,.94,2.01,1.6,1.03,1.04,1.94,2.3,2.39,3.43,.17,.41,4.09,10.08,9.2,15.86,.76,.86,1.72,1.77,2.74,2.66,3.66,3.18,8.3,6.19,8.95,6.6,.53,.34,1.26,.52,2.03,.52,.52,0,1.01-.09,1.44-.25-2.35-1.57-7.89-5.41-10.87-8.77Z"/>
    <path class="cls-1" d="M155.71,126.98l-2.84-1.61c-1.51-.85-3.96-2.24-5.46-3.09l-34.16-19.35-6.61-3.74c-.11-.06-.22-.11-.32-.16-.02,0-.04-.01-.06-.02-.09-.03-.17-.07-.25-.09h0c-.15-.04-.28-.06-.42-.07-.01,0-.03,0-.04,0-.03,0-.06,0-.09,0h-2.25l39.61,22.44c.83,.47,1.94,1.1,3.03,1.71l5.28,2.99c.53,.3,1.01,.71,1.41,1.17,1.06,1.24,1.6,2.94,1.29,4.41l-.39,1.5c-.41,1.59-.9,3.22-1.44,4.85-2.78,8.27-6.92,15.55-12.29,21.63-.63,.72-1.37,1.46-2.18,2.2-5.38,4.96-13.8,10.07-14.87,10.71-.6,.36-1.39,.82-2.1,1.22h2.12c.34,0,.68-.06,.93-.18,.2-.1,.56-.29,1.02-.54,.73-.4,1.69-.96,2.59-1.5,.59-.36,11.89-7.14,16.78-12.69,5.97-6.76,9.71-14.24,12.06-21.23,.54-1.62,1.02-3.22,1.42-4.77l.38-1.46c.33-1.53-.62-3.48-2.13-4.33Z"/>
    <path class="cls-1" d="M126.19,93.15h3.43c.72,0,.98-.96,.36-1.32l-6.96-4.12c-.05-.03-.11-.06-.17-.07h-.02s-.09-.02-.13-.03h-2.74l5.43,3.21c.31,.18,.55,.44,.7,.73l.45,.27c.63,.37,.36,1.32-.36,1.32Z"/>
    <path class="cls-1" d="M159.89,107.39v-16.4c0-1.72-.72-3.36-1.58-3.63-.87-.27-2.89-1.04-4.47-1.72-.62-.26-12.34-5.22-18.38-8.84-3.03-1.81-5.59-3.48-7.38-4.69-.89-.6-1.6-1.09-2.07-1.43-.23-.17-.41-.3-.69-.5-.03-.02-.61-.44-1.33-.97-.32-.23-.71-.35-1.12-.38-.02,0-.04,0-.07-.01-.05,0-.09,0-.14,0h-2.42c.31,.22,.52,.38,.56,.41l.7,.5c.47,.33,1.17,.81,2.05,1.41,1.63,1.1,4.23,2.8,7.33,4.65,6.01,3.61,17.74,8.56,18.24,8.77,1.54,.65,3.53,1.42,4.36,1.68,.56,.17,1.02,.58,1.39,1.11,.67,.96,1.01,2.36,1.01,3.64v16.4c0,1.72,.04,3.78,.08,4.55v1.57c0,.81-.01,1.56-.04,2.23v.09c-.04,.69-.23,1.3-.54,1.78-.02,.04-.05,.07-.08,.11h2.95c.93,0,1.61-.72,1.68-1.96,0-.04,.04-.84,.04-2.25v-1.52c-.04-.81-.08-2.88-.08-4.61Z"/>
  </g>
</svg>