<?xml version="1.0" encoding="UTF-8"?>
<svg id="_圖層_1" data-name="圖層 1" xmlns="http://www.w3.org/2000/svg" width="15.5mm" height="16.9mm" version="1.1" viewBox="0 0 44 48">
  <defs>
    <style>
      .cls-1 {
        fill: #a4a4cd;
        stroke-width: 0px;
      }
    </style>
  </defs>
  <path class="cls-1" d="M31.7,22.3v4.6h4.4v3.8c-.6.4-1.6.6-2.6.6-5.1,0-7.5-2.7-7.5-7.4s2.9-7.3,7-7.3,3.7.8,5.1,1.8l3.5-3.6c-1.9-1.6-4.8-3.1-8.8-3.1s-8.4,1.7-10.9,4.7c-.3.3-.5.7-.7,1-.6,1-1.1,2.1-1.5,3.4,2.2,1.5,3.4,3.9,3.4,6.9s-.4,3-1.1,4.3c2.5,2.8,6.4,4.2,10.9,4.2s7.2-1.3,9.2-2.9v-11h-10.2Z"/>
  <path class="cls-1" d="M19.3,21.9c-1.6-1.2-3.7-1.8-6.1-1.8s-1.9.1-2.9.5l.4-4.1h10v-4.8H5l-.7,11.9,2.9,1.6c1.7-.9,2.4-1.2,4-1.2,2.4,0,4.1,1.3,4.1,3.7s-1.7,3.8-4.4,3.8-4.2-1-5.8-2.3l-3.1,3.6c2.2,1.9,5.3,3.3,9.8,3.3s7.8-1.8,9.4-5.1c.5-1,.8-2.2.8-3.5,0-2.6-1-4.6-2.7-5.8Z"/>
</svg>