<?xml version="1.0" encoding="UTF-8"?>
<svg id="_圖層_1" data-name="圖層 1" xmlns="http://www.w3.org/2000/svg" viewBox="0 0 50 50">
  <defs>
    <style>
      .cls-1 {
        fill: #c60067;
      }
    </style>
  </defs>
  <path class="cls-1" d="M25.61,5.01h.12c-.03-.08-.04-.08-.08-.14h-.15c.11.09.11.02.11.14"/>
  <path class="cls-1" d="M20.57,9.91s.05.05.08.07c.09,0,.11,0,.15.03.03-.04.02-.03.04-.11.1.05.06.01.08.14.09-.05.06-.01.08-.14h.04c.03.08,0,.08.04.14.02.06,0,.04.04.07.05-.11.07-.19.12-.25.02-.06,0-.04.04-.07.01.01.02.03.04.04-.06.1-.03.14-.12.22.07.05.16.07.27.07-.02.06,0,.04-.04.07-.06.04,0,0-.08,0,.03.18.08.13.12.29.11,0,.06-.02.12,0h.19v.04c-.1.02-.02,0-.12,0-.01.01-.03.02-.04.03.05.1.01.03.12.07-.04.03-.04.02-.12.04v.14s.01,0,.04-.07c.03.05.04.09.04.18.04-.03.05-.06.08-.11h.08c-.04.06-.1.13-.15.18v.04c.14-.02.16,0,.35,0-.02.08,0,.07-.04.11v.07s.05-.05.08-.07c.03.04.02.03.04.11h.23c.01.06.03.12.04.18.14-.02.14-.11.27-.07.12.04.32.18.42.04.04.07.02.03,0,.11h.11c.01-.08,0-.1.04-.14v-.04h.08s-.05.05-.08.07c.09.08.16.11.35.11.02-.11.05-.22.08-.32.09.02.18.05.27.07.02-.05.03-.06.04-.14h.12c-.02.05-.03.06-.04.14.21,0,.13-.03.19-.07v-.04h.08c-.03.12.02.06-.08.11.03.06.01.03.04.07.02.03.11-.01.15-.07.03.04.02.04.04.14h.04c.06-.1.06-.07.04-.18.06.04.12.09.18.13,0,.01.01.02.02.04-.03,0-.05-.02-.08-.03-.02.06,0,.04-.04.07.02.06,0,.04.04.07v.04s.06-.07.09-.11c0,.02.01.04.01.06.03,0,.06.02.09.03,0,.05,0,.04-.07.08.04.03,0,.01.08.04.05.03.12,0,.2-.01.06.05.11.1.15.16v.08h.06s.04.05.05.08c0,0,0,0-.03-.05-.08.02-.07,0-.12.04-.01.01-.02.02-.04.04h.04v.04s-.05-.02-.08-.04c-.01.01-.02.02-.04.04.05.08.29.18.39.22-.02.1-.05.15-.12.22v.04s-.05-.11-.08-.15c-.03-.06-.06.04-.12.07.08.08.02.03.12.03-.01.08-.03.17-.04.25-.04-.01-.08-.03-.12-.04-.01.01-.02.02-.04.04.08.08.02.03.11.03-.05.08-.08.06-.15.11-.01.01-.03.02-.04.04h.04c.03.12-.02.05.08.11-.06.11-.05,0-.15.07h-.04c.05.06.02.04.12.07-.05.11-.01.03-.12.07v.14s.03-.02.04-.04h.08v.11c-.2-.05-.11,0-.27-.04-.04.08-.06.16-.12.22.04.03.03.02.12.04-.04.03-.07.05-.12.07v.07c.12.01.06.01.15,0,.02.05.03.06.04.14.11-.06.05-.08.16,0,.03-.04.02-.03.04-.11.1,0,.14,0,.19-.03.01-.01.03-.03.04-.04h-.04v-.11c.09.01.04.03.12,0,.04.07.01.03,0,.11.14-.08.1-.22.08-.36.06-.02.04,0,.07-.04.06.06.07.07.08.18.03-.02.05-.05.08-.07.08.03.03,0,.04.07.1-.03.11-.06.19-.11,0,0,0-.08-.02-.09.01,0,.03-.01.06-.02-.05-.14-.04-.04-.04-.22h-.01s.04-.07.06-.11c.11-.02.19-.05.24-.09,0,0,.01.02.02.02v.07c-.12.01-.06.01-.15,0-.03.07-.07.13-.12.18.04.08.03.05.08.11.15-.04-.01-.04.16-.07-.03-.03-.05-.05-.08-.07v-.07c.07.06.13.12.19.18.01-.01.02-.02.04-.03.01-.15.04-.19-.08-.25.06-.04.19.03.23,0,.01-.03.02-.07.04-.11h.12v.07c.1-.03.11-.09.08-.22.09.03.07.02.19.03.02-.04.05-.11.08-.14.05-.12.08-.02.15-.07h.08c-.03-.1.03-.06-.08-.07.04-.1.06-.07.08-.22.12.06.05.02.04.14.1-.05.12-.15.08-.22.07-.05.2-.06.31-.14.09-.04.08-.06.12-.14-.05-.03-.08-.04-.12-.07-.01-.01-.03-.02-.04-.04.01-.01.03-.02.04-.04.07.03.14.06.19.11.1-.05.04,0,.08-.11.06-.04.02,0,0-.07.2-.05.11-.12.35-.15-.04-.03-.01-.01-.08-.03.04-.08.11-.11.19-.15,0,0,0-.14-.04-.07-.01,0-.03.02-.04.03-.02-.05-.03-.06-.04-.14h.15s0-.01-.08-.03c.07-.14.17-.15.31-.15v-.18h.15c0-.11.04-.14,0-.22v-.07h.16v-.11c-.09.02-.04.03-.11,0-.03-.04-.01-.18-.04-.22.06-.12.02,0,.12-.07.03-.03,0-.26,0-.29.03-.1.01,0,.08-.07,0-.02-.04-.14-.12-.18v-.04c.07.02.04,0,.08.04h.12c-.08-.08-.19-.17-.12-.29.05-.06,0-.02.08,0,.01-.01.02-.02.04-.04-.04-.1-.06-.08-.12-.14.1-.02.02,0,.12,0,0-.11-.02-.14,0-.18v-.07s-.08.07-.12.11h-.1c.04-.07.07-.09.1-.18-.04-.02-.08-.04-.11-.07,0-.09-.02-.19-.04-.28.04,0,.09,0,.16.02.04-.04.08-.07.12-.11-.07-.05-.06,0-.12-.04-.03-.02.05-.08.08-.18-.02-.02-.05-.05-.08-.07-.08,0-.03-.03-.08.03-.04-.08-.01-.22-.11-.32-.03-.05-.17-.1-.31-.12-.05-.05-.1-.1-.15-.13.05-.1,0-.24-.1-.4.03-.1.05-.18.05-.29h-.04c-.09-.04-.06,0-.15.04-.03-.02-.05-.05-.08-.07s-.15-.51-.15-.54c-.09-.04-.11-.06-.23-.07v-.11c-.07.02-.04,0-.08.04-.03-.04-.03-.06-.04-.14-.07.03-.13.08-.19.13-.04-.04-.08-.08-.13-.12.02,0,.04,0,.08-.01v-.04c-.07-.03-.1-.05-.19-.07,0,0,0-.14.04-.07.01.01.02.02.04.04.02-.06,0-.04.04-.07v-.04s-.08-.02-.12-.03c-.05.06-.09.08-.17.1-.04-.03-.09-.05-.14-.07.11-.01.13-.02.19-.07.01-.01.03-.02.04-.04-.08-.03-.13-.06-.19-.11-.01.02-.03.05-.04.07h.04v.07c-.09-.07-.09-.1-.15-.11h-.12c.1-.04-.07-.21-.08-.21h-.04s.03-.07.04-.11c-.25.06-.4-.15-.81-.11,0-.17-.03-.17-.23-.18v.15c-.09.05-.03-.02-.08.07-.07-.02-.04,0-.08-.04-.04-.03,0-.09.04-.14v-.04c-.11.04-.14.09-.19.18-.13-.03-.07.02-.07-.11-.1.04-.09.08-.16.14v.04c-.04-.06-.02-.11-.04-.14-.04,0-.13.06-.23.11-.01-.01-.03-.02-.04-.04.04-.08.03-.05.08-.11h.08v-.04c-.19.02-.37.03-.43.14-.11-.04-.12-.05-.15-.18h-.04c-.03.1-.02.08,0,.18-.24.08-.95-.08-1.12.29-.12-.03-.08-.02-.15-.07-.02.08-.03.13-.08.18v.07c-.03.07-.04-.07-.04-.07h-.11c.05.09-.02.03.08.07-.02.07,0,.07-.04.11-.07.04-.12.04-.19,0h-.04c0,.1.03.05,0,.11v.07h-.19c-.02.07-.01.07-.04.11-.1.21-.41.31-.58.4,0,.16-.05.1.08.18-.04.09-.05.11-.15.14.07.1.09.03.15.18-.03-.01-.05-.02-.08-.04v.04s-.05.02-.08.04c.02.15,0,.11.12.11-.01.02-.03.05-.04.07-.09-.03-.06-.01-.12-.07h-.04c0,.09,0,.13-.04.18.04.03.04.02.12.03-.05.09.02.03-.08.07.04.03.01.01.08.03-.04.03-.04.02-.12.04.04.07,0,.02.08.04-.02.09.03.14,0,.18-.03.07-.06.1-.11.14-.03.04,0-.01-.04-.03h-.04s-.03.02-.04.03c.03.13.05.35-.04.43-.05.01-.1.02-.15.03-.08.12.12.1-.08.25.01.13,0,.12.08.18-.11.12-.17.22-.31.21.02.18,0,.1.12.14-.03.1-.1.07-.04.14v.04s-.08-.04-.12-.07c-.04.06-.04.12,0,.18-.04.03-.07.03-.15.04.05.05.13.1.19.14-.04.03-.11.05-.15.07.04.11.02.13.12.18-.05.03-.1.03-.19.04v.07h.12v.11ZM25.8,13.33s-.03.02-.04.04c.03-.03.03-.04.04-.05,0,0,0,0,0,.01"/>
  <path class="cls-1" d="M26,5.01h-.08s0,.01.08.04v-.04Z"/>
  <path class="cls-1" d="M27.38,5.8h-.08s.01.01.08.04v-.04Z"/>
  <path class="cls-1" d="M27.57,5.98h-.08c.06.05.03.06.08,0"/>
  <rect class="cls-1" x="21.8" y="6.05" width=".07" height=".07"/>
  <path class="cls-1" d="M21.45,6.74v.07h.04c-.03-.06,0-.04-.04-.07"/>
  <path class="cls-1" d="M28.46,7.31v-.03s.03-.02.04-.04c-.04-.01-.08-.02-.12-.04.02.06,0,.04.04.07.01.01.03.02.04.03"/>
  <path class="cls-1" d="M21.38,7.53h-.08c.02.06,0,.04.04.07v-.04s.03-.02.04-.04"/>
  <path class="cls-1" d="M28.92,8.65c-.03-.09-.01-.06-.08-.11.03.06,0,.03.04.07v.03h.04Z"/>
  <path class="cls-1" d="M20.84,8.58v.07h.04c-.03-.06,0-.03-.04-.07"/>
  <path class="cls-1" d="M28.92,9.33c-.02-.06,0-.04-.04-.07v.07h.04Z"/>
  <path class="cls-1" d="M29.03,9.4s-.04-.02-.12-.03c.04.03.04.02.12.03"/>
  <path class="cls-1" d="M28.84,10.16c-.05.09.01.03-.08.07.02.02.05.05.08.07.03-.04.01,0,.04-.07h.04c-.05-.09.02-.03-.08-.07"/>
  <path class="cls-1" d="M28.23,11.24h.04c-.02-.06,0-.04-.04-.07v.07Z"/>
  <path class="cls-1" d="M24.11,11.35s-.05-.02-.08-.04c-.09-.1-.06.09-.16-.03-.09.05-.04,0-.07.11.17.01.16,0,.27.07.01-.04.03-.07.04-.11"/>
  <path class="cls-1" d="M24.53,11.39h-.04s.04.02.12.04v-.11s-.05.05-.08.07"/>
  <path class="cls-1" d="M22.57,11.46h.04c-.03-.06,0-.04-.04-.07v.07Z"/>
  <path class="cls-1" d="M24.19,11.39h-.08s.01.01.08.04v-.04Z"/>
  <path class="cls-1" d="M23.84,11.46s-.08-.02-.12-.04c.06.07.07.14.12.04"/>
  <path class="cls-1" d="M25.11,12.18s.04.02.12.04c-.04-.03-.03-.02-.12-.04"/>
  <path class="cls-1" d="M25.34,12.25h-.08s0,.01.08.04v-.04Z"/>
  <path class="cls-1" d="M22.49,42.07c.05-.06.2-.11.23-.18.04-.07,0-.17.04-.22v-.03s.05.02.08.03c0-.15.01-.24.08-.32-.04-.03-.03-.02-.11-.04-.02.07,0,.07-.04.11-.01.01-.03.02-.04.04v-.04s0-.09.04-.15c-.06-.04-.16-.08-.23-.11.04-.14.06-.02,0-.15.08-.02.1-.03.15-.07h.04v-.04c-.16.02-.14.04-.23.04,0,.18-.02.18.04.32-.01.01-.03.02-.04.04h-.08c.01-.14.03-.19,0-.25-.01-.06-.15-.16-.23-.25h-.04v-.04c.08.02.1.02.15.07.11-.05,0-.11.16-.18-.1-.07-.14-.02-.19-.14-.03.04-.02.03-.04.11-.12-.05-.2-.09-.27,0-.12-.06-.02-.06-.08-.14-.03-.05.03-.09-.07-.07v.04h-.04v-.11c.14-.02.16-.06.27-.11v-.21c-.09.01-.18.02-.27.04.01.07,0,.07.04.11-.03.08-.04.08-.08.14-.09-.04-.07-.03-.12-.11h-.04s.04,0,.15,0v-.04c-.05-.01-.1-.03-.15-.04.06-.16.03-.18.08-.29-.03-.02-.05-.05-.08-.07-.11.12-.19.23-.19.36-.17-.05-.09-.01-.19.07-.06.05-.03-.06-.04-.07-.08,0-.15.04-.19.07h-.08c.02-.05.03-.06.04-.14.06.01.13.03.19.04.09-.1.09-.11.19-.11v-.11c.18-.04.16-.11.35-.14v-.11c-.06.02-.09.03-.19.04,0-.25,0-.38-.12-.54-.07-.04,0,0-.08,0,.06-.09,0-.04.12-.07v-.04c-.12-.05-.17-.12-.27-.18v-.07c.06.05.04.02.08.11h.08c-.01-.07-.03-.15-.04-.22-.14.02-.1-.02-.12.07-.09-.02-.12-.04-.19-.07-.02-.06,0-.03-.04-.07v-.04c.07.03.06.09.12.04h.12v-.04c-.11-.03-.15-.06-.23-.11,0-.15-.05-.1.04-.18v-.04c-.12.03-.06-.02-.12.07-.04-.06-.05-.1-.08-.22h-.12c0-.15-.04-.07-.08-.25-.1,0-.13-.02-.19-.04-.01-.12,0-.06,0-.18-.14-.06-.13-.07-.27-.07-.05-.12-.05-.13-.04-.25-.07.02-.04,0-.08.04-.09-.05-.06-.1-.12-.18-.01-.01-.02-.03-.04-.04-.02.06-.03.09-.04.18-.01-.01-.03-.02-.04-.04-.04-.02-.07-.05-.12-.07.07-.04,0,0,.08,0v-.07c-.09-.04-.1,0-.19-.07-.04-.06,0-.09,0-.22-.01.01-.02.03-.04.04-.11.05-.09.1-.15.18-.01.01-.03.02-.04.04v-.04s.06-.19.15-.29c-.01-.01-.03-.02-.04-.04-.16.04-.2.14-.23.29-.07-.02-.03,0-.08-.04-.03-.05.04-.15.16-.18v-.07c-.06.02-.07.02-.16.04v-.18c-.1.03-.06-.02-.07.07-.11-.04-.1-.07-.15-.07-.11-.05-.05-.05-.04-.14-.12.03-.06-.02-.12.07-.03-.07.05-.13,0-.25-.01-.04-.1-.05-.11-.07-.05-.06.02-.2,0-.29.06.05.04.02.08.11.1-.04.11-.14.15-.04.06-.03.09.03.08-.07h-.04c.03-.09.03-.04.12-.11.01.11.01.06,0,.14.11-.07.03-.08.08-.14.1-.06.12.02.27.07.05-.06.04-.03.08-.11h.11s0,.01-.08.04c.1.07.34.04.38.07.09-.04.06-.05.12-.11v-.03h.08s-.05.05-.08.07c.17.09.48-.03.61.18.12-.03.08-.02.15-.07.04-.05.13-.04.19.07,0,0,.15,0,.08-.04-.01-.01-.02-.02-.04-.03.13.04.13.03.19.14.1-.05.04,0,.08-.11h.08s-.04.08-.08.11c.03.02.09.05.12.07h.15s-.05-.05-.08-.07v-.04s.08.07.12.11c.05-.07.02-.1,0-.18.02.01.05.02.08.04v-.04c.12.04,0,.04.11.11-.04.03-.11.05-.15.07.14.25.53.19.58.54.09-.05.06-.08.11-.14v-.04s.05.11.08.14c.05.03.18.01.23-.07.2.08.2.28.19.32.31,0,.46.02.62.11.02-.09.01-.02,0-.11.1.04.23.2.27.29.09-.05.09-.07.12-.18h.12c-.02.06-.03.09-.04.18.08-.02.07-.01.11-.04.1.09.16.11.31.22.02.01.03.02.04.04v-.04h.08c-.05-.09.02-.02-.08-.07v-.07c.14.02.04.02.11.07.01.01.03.02.04.04.02-.08.03-.13.08-.18.03-.04.08.02.19.04v-.11s.03.02.04.04c.04.01.08.02.11.04-.02.1,0,.12-.04.18v.07s-.02-.03-.04-.11c-.03.04-.01,0-.04.07-.03-.04-.02-.03-.04-.11-.08.01-.07,0-.12.04-.07.05.13.11.15.11-.02.05-.03.06-.04.14.14-.01.1.02.12-.07.04.01.08.02.12.04.04-.1.07-.15.08-.29h.04v.07c.04.07-.01.18,0,.25h-.19v.08s.08-.03.12-.04c.02.09,0,.02,0,.11.06-.01.13-.02.19-.04-.01-.01-.02-.02-.04-.03.03-.1.02,0,.08-.08.1.05-.03.04.08.08v.03h.08v-.07c.04.07.02.03,0,.11.01.01.03.02.04.03.28,0,.33,0,.57-.03-.02-.13.03-.1.12-.22.04.06,0,0,0,.11.02-.01.03-.02.04-.04.1-.05.05,0,.08-.11h.04c.03.1.04.09.11.15v.07s.03-.03.04-.11c.14.03.14.05.19.15h.04c-.03-.09-.01-.06-.08-.11v-.04c.11.02.05.09.12,0,.04.07.01.04,0,.15h.04c.07-.13.08-.13.15-.22-.15-.04-.21-.07-.23-.25-.03.04-.03.06-.04.14,0,0-.42-.44-.42-.47-.12.08-.06-.03-.15.07h-.04c.04-.1.07-.1.12-.18-.02-.02-.05-.05-.07-.07h-.08c-.02.08,0,.05,0,.18-.09-.1-.05-.15-.04-.32-.09,0-.11,0-.15.04h-.12c.04-.08.07-.08.12-.14-.01-.02-.03-.03-.04-.04-.17.02-.14.04-.23.04-.01.01-.02.02-.04.04.02-.1.05-.1,0-.18-.03-.27-.14-.12-.27-.22-.05-.04.08-.2-.19-.18-.02-.24-.09-.19-.12-.43h-.11s.05.05.08.07c-.01.01-.03.02-.04.04-.12.04-.27-.18-.23-.32-.18,0-.18-.01-.34,0,0-.26-.1-.24-.23-.36.1-.02.02,0,.12,0-.01-.05-.03-.1-.04-.14-.14.03-.13,0-.23.11h-.08s.05-.05.08-.07c-.07-.09-.04,0-.04-.11h-.12v-.18s-.02.03-.04.11c-.1-.09-.07-.1-.19-.18-.02.01-.05.03-.08.04.01-.02.02-.05.04-.07-.08.02-.07,0-.12.03,0,0-.07,0-.09.02,0,0,0-.02.01-.05-.14.01-.3-.03-.38-.04.01-.02.02-.05.04-.07-.19-.09-.16-.16-.31-.22-.04-.06,0-.02-.08,0-.01-.01-.03-.03-.04-.04,0,0,0-.14.04-.07.01,0,.03.02.04.03-.02-.07,0-.07-.04-.11-.06-.03-.02.02-.12,0-.03,0-.06-.05-.08-.18-.09.02-.1.03-.15.07h-.08s.01-.01.08-.04v-.07c-.12.03-.08.02-.15.07v-.04h-.04c-.07-.02.08-.04.08-.04-.02-.06,0-.04-.04-.07-.05-.03-.11,0-.19.03-.07-.11-.06-.08-.16-.18-.02-.06,0-.04-.04-.07-.03.06,0,.04-.04.07v.07s-.07-.13-.15-.11v.07c-.08-.05-.02-.07-.12-.04-.11-.03,0-.01-.08-.07-.05-.03-.04,0-.16,0v.11c-.06.05-.04.02-.07.11h-.19s.03-.03.04-.04c.05-.09.13-.11.19-.18.01-.01.03-.02.04-.04-.09-.03-.1-.02-.19,0,.04-.12.04-.09.04-.18.16.02.11-.03.12.11.05-.01.1-.02.15-.04v-.04c-.17-.08-.26-.06-.27-.22-.24.02-.24.04-.23.22-.07-.02-.04,0-.08-.04-.05-.03.01,0,.04-.03v-.04c-.07-.06-.06-.03-.08-.14,0,0-.15,0-.08.04.01.01.03.02.04.04-.29-.11-.38-.42-.61-.32h-.04v-.11c-.12.02-.09,0-.15.07h-.08s.08-.1.12-.15c.03-.05.01-.05-.04-.11-.04-.07,0-.02-.08-.04-.01-.01-.03-.03-.04-.04,0,.1.03.05,0,.11-.03.06,0,.04-.04.07-.01-.06-.03-.12-.04-.18-.06.01-.13.02-.19.04v-.11s-.01.01-.04.07c-.15-.04-.26-.22-.23-.36-.1.03-.16.09-.19.18h-.04c.02-.06,0-.03.04-.07v-.11c-.1.05-.07.04-.08.18-.1-.03-.09-.04-.19-.07,0-.1,0-.17-.04-.22v-.07h.04c.02.08.03.13.08.18.04.03.01.01.08.04v-.04h.04c-.05-.11-.11-.13-.16-.25-.12-.01-.23-.02-.34-.04v-.14s-.15.04-.19.07c-.08-.07-.14-.13-.23-.18-.01-.15-.04-.12.04-.22-.03-.09-.06-.05-.11-.18-.1-.03-.13,0-.2-.04h-.04s.04-.02.12-.04c0-.29-.09-.24-.19-.4-.05-.1.09-.1-.04-.14v-.07c.2.01.19.03.19.22.1-.05.08-.04.12-.14.14.03.11,0,.15.11.09-.05.03.02.08-.07.07.02.03,0,.08.04-.09.05.03.04-.08.07.02.06,0,.04.04.07.07.05.13-.04.19.11.07-.01.12-.03.16-.05.07.04.15.08.23.13,0,.11.03.13.04.25.07-.02.04,0,.08-.04.12,0,.19-.01.23-.05.1.04.2.08.3.11.02,0,.05.01.08.02,0,0,.01.02.01.03h.08s0,0,0,0c.06,0,.11.02.17.03,0,.04-.01.01.07.06-.05.09.02.03-.08.07v.11c.09-.05.12-.09.19-.14.02.06.03.09.04.18.14,0,.06.05.15-.04.03.04.02.03.04.11.18.02.17.06.27.15.06-.09.11-.09.16-.18h.08c-.04.06-.07.09-.12.14h.04c.02.06,0,.04.04.07.04-.08.08-.1.15-.14-.02-.11-.02-.12-.08-.18.04-.09.08-.1.15-.14.01-.01.02-.02.04-.04.09.14.15.24.23.32-.05.08-.1.08-.19.11,0,.11.05.17,0,.32.07-.01.13-.02.19-.04.02-.07,0-.07.04-.11.01-.01.02-.03.04-.04.04.08.06.1.08.22.13-.03.2.02.39.04v.18h.04c.03-.08.04-.08.08-.14.04.06,0,0,0,.11.09-.05.03.02.08-.07.14.06.18.15.35.18v-.11h.04s.04.07.08.11c.07.04.22-.03.35-.07.08.08.14.06.19.18.1-.05.05,0,.08-.11.13.03.13-.02.31-.03v.11c.15-.12.11-.13.35-.11v-.14c.07.03.2.19.23.25h.08c.02-.05.03-.06.04-.14h.15c0,.13-.01.1,0,.18.01.01.03.02.04.04.04-.07.02-.03,0-.11.08.01.07,0,.12.03.03-.04.03-.09.04-.18.01.01.03.02.04.04.1.05.08.08.08.22.12-.05.13-.07.23-.07v-.11h.12c.02.07.01.07.04.11.1,0-.02-.03.08-.07.03-.01.23.04.31.04v.11h.07c.03-.09.02-.06,0-.14.12.07.2.05.23.18.18-.11.47-.11.58-.18h.08s-.08-.07-.11-.11h.04c.06-.04.2,0,.31.11.04.05.04.12.04.22.03-.04.03-.06.04-.15.03.04.02.03.04.11.08.01.08.01.12.04.03-.04.03-.06.04-.15.05.01.1.02.15.04.03-.08,0-.12.04-.18.06-.03,0,0,.12,0v-.04s-.03-.02-.04-.04c-.16,0-.09-.06-.15.04-.08-.04-.05-.06-.08-.18-.08.03-.05.03-.12.07-.05-.09.02-.07-.08-.14v-.07h-.04c.01.08,0,.07.04.11v.07c-.05-.03-.11-.06-.15-.11-.01-.01-.03-.02-.04-.04h.04v-.11h-.04s-.04.11-.07.14v.04s-.03-.02-.04-.04h.04c-.03-.1-.02,0-.08-.07h-.04c.05-.05,0,.01.08,0v-.04s.15,0,.08-.04c-.01-.01-.03-.02-.04-.04.01-.01.03-.02.04-.04-.07.02-.04,0-.08.04-.03-.04-.02-.03-.04-.11-.04-.01-.08-.02-.11-.04-.01.02-.03.05-.04.07h.04v.03s-.05-.02-.08-.03v.03h-.04s.02-.02.04-.03c.01-.01.02-.03.04-.04-.14-.1-.36-.16-.46-.11-.04-.03-.03-.11-.08-.14-.11-.07-.16-.02-.23-.07-.06-.04-.02,0,0-.07-.03-.02-.05-.05-.08-.07,0,0-.15,0-.08.04.01.01.03.02.04.04-.07-.02-.04,0-.08-.04-.07-.04,0-.02.04-.07-.11-.04-.2-.1-.31-.14-.01.04-.03.07-.04.11h-.15c.01-.06.02-.12.04-.18-.05-.1-.17-.16-.23-.29-.07-.02-.04,0-.08-.04-.03.04-.02.04-.04.11-.1-.05-.08-.12-.12-.22-.07.04-.1.07-.15.11-.06-.09,0-.04-.12-.07,0-.1.03-.05,0-.11-.05-.06-.1-.12-.15-.18-.09.03-.08.04-.15.07-.06-.09-.02-.08-.16-.11-.03-.14-.04-.09-.04-.18-.12-.05-.36-.15-.5-.29.01-.01.03-.02.04-.04h-.04c.06-.09,0-.04.12-.07v-.04h-.04s-.13-.03-.25-.04c0,0,0,.02,0,.02.04.08.08.06.1.19-.23-.02-.12-.11-.1-.19,0,0,0-.01-.01-.03,0,0,0,0,.01,0,0-.01,0-.03-.01-.04h-.08c-.01-.06-.03-.12-.04-.18-.15.01-.13,0-.23.04.04-.07.09-.06.04-.11,0-.1-.02-.12-.04-.18-.23-.06-.38-.19-.5,0h-.08v-.14c-.12-.02-.12-.04-.12-.04-.03-.05.03-.09-.08-.07-.16.03-.17-.2-.31-.29-.04,0-.07.02-.11.04.02-.03.03-.05.04-.07-.14.03-.11,0-.16.11-.03-.03-.05-.11-.08-.15-.11-.06-.1.06-.15-.11-.09.05-.03-.02-.08.07-.09-.05-.09-.11-.12-.21-.07.01-.09.1-.16.07-.17-.08-.21-.16-.34,0-.04-.06,0,0,0-.11-.07-.03-.11-.05-.15-.11-.09.02-.12.04-.19.07-.02-.05-.03-.06-.04-.14-.19.02-.15.08-.15.18h-.08s-.03-.07-.04-.11c.05-.04.1-.07.15-.11-.11-.07-.44-.04-.46-.04-.03-.04-.02-.03-.04-.11h.12c-.03-.08-.03-.1-.08-.14-.05-.03-.04,0-.15,0-.05-.11-.07-.11-.04-.22-.01-.01-.03-.02-.04-.04-.09.05-.06.08-.11.14v.04c-.04-.06-.04-.15-.04-.25-.07.02-.04,0-.08.04-.11-.03,0-.01-.08-.07v-.04s-.15,0-.08.04c.01.01.03.02.04.04-.08-.02-.08-.01-.12-.04-.05-.05-.28-.39-.31-.47-.08.03-.1.05-.15.11h-.04s.05-.05.08-.07v-.07c-.09.05-.03-.02-.08.07-.11-.05-.21-.19-.16-.29-.08-.05-.14-.02-.19-.11-.03.04-.02.03-.04.11-.01-.01-.03-.02-.04-.04-.19-.01-.19-.03-.23-.18h-.11v-.18s-.04.09-.04.18h-.08c.03-.08.05-.17.08-.25-.08-.03-.18-.04-.31-.04v-.11c-.08.04-.06.03-.11.07-.02-.07,0-.19-.08-.29-.15-.16-.44-.16-.62-.36-.1-.07-.01,0,0-.14-.15,0-.45-.07-.54-.03h-.08c.06-.11.18-.21.12-.33v-.07c-.06.02-.09.03-.19.04.01-.08.02-.09.04-.14-.15-.12-.18-.32-.38-.4-.04-.04-.1.03-.15.07-.13-.11-.04-.11-.23-.11.07-.1.21-.05.31-.11.01-.01.03-.02.04-.04-.06-.02-.06-.03-.15-.04v-.07c-.03-.07-.04.07-.04.07h-.08c.05-.09-.02-.03.08-.07-.06-.05-.12-.08-.19-.11-.01-.04-.03-.07-.04-.11.05-.02.12-.04.15-.07h.04c.02-.07-.02-.05-.04-.07v-.03s-.02.03-.04.11h-.04c-.03-.07-.02-.16-.04-.18-.01-.03-.03-.05-.04-.07-.1.05-.04,0-.08.11-.09-.12-.03-.18-.23-.22.04-.03.04-.02.12-.04-.06-.11-.04-.04-.04-.18-.11-.04-.1-.06-.27-.07v-.07h.19c-.02-.19-.04-.13-.15-.22-.04-.06-.04-.15.04-.21v-.04h-.08c-.04.08-.08.15-.12.22h-.04c0-.1,0-.17.04-.22v-.03c.07-.02.05.01.08.03.03-.03.06-.1.08-.14-.16-.07-.17-.16-.35-.25.05-.09-.02-.02.08-.07-.05-.09-.17-.18-.27-.21v-.07s.05.05.08.07c.1-.06,0-.04.12-.04-.09-.18-.09-.09-.08-.29h-.04c-.02.05-.03.06-.04.14h-.04s-.03-.02-.04-.04c.03-.1.04-.09.11-.14-.06-.1-.14-.11-.31-.11.01-.01.03-.02.04-.04v-.07s.05.05.07.07c.06-.08.04-.21.04-.22v-.11s-.08.02-.11.04c-.01-.01-.03-.02-.04-.04.03-.08.03-.05.08-.11.03-.05,0-.06-.04-.14-.01-.01-.03-.02-.04-.04-.03.04-.02.03-.04.11-.06-.1,0-.26-.11-.32.05-.02.02-.04.07,0,.08-.04.08-.12.15-.22-.03-.03-.05-.05-.08-.07-.06.01-.13.02-.19.04.03.04.04.07.08.11-.02.02-.04.03-.07.04,0-.02,0-.05,0-.07-.02-.16-.02-.28-.01-.39.02.02.04.03.05.06.16-.06-.06-.11.15-.14-.05-.06-.03-.05-.04-.07-.06-.09,0-.04-.13-.04,0-.02,0-.03.01-.05.06-.03.09-.05.2-.06-.06-.09-.02-.06-.15-.07.04-.14,0-.22.15-.32-.02-.13.02-.09-.08-.11v-.21s.02,0,.04.07h.04c0-.21-.05-.22-.17-.22,0-.02,0-.04,0-.06,0-.01,0-.02.03-.04v-.04h-.03c0-.05,0-.1,0-.14.09,0,.19,0,.26.03v-.04s.04-.11,0-.18c0-.09,0-.13.04-.18.06-.03,0,0,.11,0,.02-.06,0-.04.04-.07v-.15s-.07.1-.11.15v-.04c-.03-.05-.01-.04.04-.11.03-.16.04-.08.15-.07,0-.22,0-.13,0-.32-.02.02-.05.05-.08.07-.01-.01-.02-.02-.04-.04.03-.07,0-.02.08-.03-.01-.05-.03-.1-.04-.15.09.05.03-.02.08.07h.04c-.02-.13.02-.09-.08-.14v-.03h.19c0-.21.02-.07.12-.22-.04-.05,0-.34,0-.54.12.06.17.09.31.07.01.01.02.02.04.04,0-.14.01-.21.08-.29v-.07c.09.05.03-.02.08.07h.04c.01-.25.04-.4-.15-.61.02-.12.03-.11.07-.18h.08c-.02.11,0,.09-.08.14.04.18.04,0,.08.18.13-.01.06,0,.19,0,.04-.03.08-.07.12-.11.01-.09.03-.17.04-.25.09-.01.18-.02.27-.04-.03-.02-.09-.05-.12-.07h-.08v-.04c.08.01.07,0,.12.04.12-.04.03-.13.15-.18v-.07s.02.02.04.03c.14-.02.04-.02.12-.07.04-.03.09-.03.23-.04-.03-.04-.04-.08-.08-.11.04-.03.07-.03.15-.04-.03-.02-.05-.05-.08-.07.07-.02.04,0,.08-.04.04.06,0,0,0,.07.17-.03.1-.05.27-.04-.03-.02-.05-.05-.08-.07.05-.09-.02-.03.08-.07.09-.02.02-.01.11.04.01-.03.09-.28.19-.32.08-.03.11.04.19,0,.03-.04.03-.07,0-.11v-.07s.05.05.08.07c.03.06.06-.04.12-.07.05-.03.05-.01.12.03h.04c0-.1.03-.05,0-.11.03-.06.13-.1.23-.14.01.04.03.07.04.11.1-.03.06.02.08-.07.09,0,.14,0,.19-.04.33,0,.32-.1.38-.32.08.03.17.05.23.11.11-.03,0-.01.08-.07l.61-.03c.06-.08.04-.19.11-.25-.07-.04-.03-.01-.11,0,0-.13-.01-.29.04-.36v-.07c.09.03.06.04.16.07-.04.21.02.32.04.54.1-.05.05,0,.08-.11.03.03.05.08.08.11.06-.07.67,0,.85,0-.04.03-.01.01-.08.03.04.03,0,.01.08.04.01,0,.13-.03.19-.07.01,0,.03.02.04.03h-.04c.06.09,0,.04.12.07v-.11c.09.05.04-.01.08.11.07-.02.03-.06.08,0h.15c-.05-.06-.02-.04-.11-.07v-.03c.08.01.07,0,.11.03.04.05.04.09.04.18.01.01.03.02.04.04.13,0,.23,0,.31.04.02-.04.05-.11.08-.14.04-.03.01-.02.08-.04.05.05.07.05.15.07-.04.08-.06.05-.12.11-.01.01-.03.02-.04.04.14,0,.06.05.15-.04.04.04.08.18.08.25.04,0,.25.06.46.11h-.07s.01.01.08.04v-.04c.22.05.42.11.42.11.02-.02.03-.05.04-.07.1.05.09.11.15.18.03.03.12.06.19.14.04-.03.05-.06.08-.11.11.03.11.04.16.04.04.06,0,0,0,.11.11-.05.14-.03.27-.07.01.01.03.02.04.04-.03.04-.08.1-.11.15.06.06.17.08.23.14.11.12-.01.24.23.22-.05.09.02.03-.08.07.07.06.21.12.31.14-.02.06-.03.12-.04.18.11-.01.12,0,.19-.04.1.06.06,0,.04.11.01.01.02.02.04.04h.16v.11c.05-.01.1-.02.15-.04-.03.04-.04.07-.08.11.13.2.21-.05.31.14.09-.04.07-.03.12-.11.04-.06.01-.07.04-.14-.1-.03-.07-.02-.19,0-.02-.06,0-.04-.04-.07.06-.09.02-.06.15-.07-.01-.02-.02-.05-.03-.07-.05-.02-.08-.02-.11-.04h.03c-.02-.06,0-.04-.04-.07v.07s-.06-.05-.12-.14c-.19-.01-.22-.05-.31.04h-.04c.03-.11.14-.23.12-.25-.03-.22-.08-.06-.08-.22h-.15c.02-.11.03-.11.08-.18-.14-.07-.21-.13-.23-.32-.03.04-.02.01-.04.07-.03-.04-.02-.03-.04-.11-.05.02-.08.04-.12.07-.05-.05-.06-.1-.12-.14-.05,0-.02-.02-.08.04-.05-.05-.17-.27-.15-.4-.15-.05-.15-.04-.15-.11-.09.03-.06.01-.11.07-.04-.05-.04-.12-.04-.22-.04.04-.08.07-.12.11-.06-.12-.01-.11-.12-.11.01-.01.03-.02.04-.03-.05-.08-.31-.17-.42-.18v.11h-.11c-.05-.1-.13-.2-.08-.29-.04-.03-.03-.02-.11-.04,0,.16-.03.28-.08.36-.07,0-.08-.05-.23-.03.02-.15.07-.25.23-.29-.07-.1-.04,0-.04-.11-.16-.02-.18-.02-.22-.07h.07v-.07h-.08v.06s-.04-.06-.08-.1h-.04c-.02.12-.31-.04-.38-.07-.04.01-.08.02-.12.03-.05-.04-.07-.13-.12-.18-.01.01-.02.03-.04.04.05.1.04.05.04.14.05.03-.03.07-.08.11-.07-.04,0,0-.08,0-.09-.13-.14-.11-.19-.22-.15.02-.17.05-.27.11-.1-.11-.12-.08-.15-.25-.09.04-.07.03-.12.11h-.04s.02-.05.04-.07c-.14.02-.1-.02-.16.07h-.08c.05-.09-.02-.03.08-.07v-.07c-.09.02-.2.03-.23.04-.12-.06-.08-.2-.08-.25-.08.01-.15.02-.23.04.04.03,0,.01.08.04-.03.06,0,.03-.04.07-.03.06,0,.03-.04.07-.01-.05-.02-.1-.04-.14,0,0-.15,0-.08.03.01.01.02.03.04.04-.35-.07-.52-.2-.85-.15-.01-.01-.02-.02-.04-.03.02.06,0,.03.04.07v.04c-.19,0-.21-.02-.35-.07-.04.04-.08.07-.12.11-.14,0-.6-.3-.85-.14-.04.06,0,0,0,.11-.15-.03-.15-.02-.19-.15-.03.04-.03.06-.04.15-.11-.07-.22-.05-.35-.11-.04.06-.05.06-.08.14-.05-.06,0-.06-.04-.11-.02-.03-.15-.02-.23-.07-.13.1-.12.13-.19.25-.13-.02-.26-.05-.38-.07-.02.05-.04.08-.08.11-.09.04-.06,0-.15-.04-.03.09-.03.09,0,.18-.25-.04-.54-.03-.79-.08-.02.06-.03.09-.04.18-.09-.04-.11-.06-.23-.07.08.08.05.1.16.18v.03c-.23-.06-.22-.08-.5-.07.04.03,0,.01.08.03-.03.06-.01.03-.04.07-.05.06,0,.02-.08,0-.03.05-.04.08-.08.11-.04.05-.07-.21-.12-.26-.02,0,.04.05.02.05.01.01.03.02.04.04-.05.08-.23.16-.31.21-.04,0-.02.01-.04-.04h-.07c.02.13.02.12.11.18v.07c-.11-.05-.03-.01-.08-.11-.07-.02-.04,0-.08-.04-.03.04-.02.03-.04.11-.07.02-.04,0-.08.04h-.04c.04-.08.03-.05.08-.11-.07-.02-.04,0-.08-.04h-.04c0,.17-.04.21.04.25v.07c-.12-.04-.14-.03-.23-.11-.09.05-.08.09-.12.18h-.19s0,.02,0,.04c-.06.01-.13.04-.2.08-.05.08-.13.13-.18.22-.08-.02-.13-.03-.18-.04.09-.03.12-.08,0-.16-.06.09-.01.06-.15.07-.03.06,0,.04-.04.07v.04s.05,0,.08,0c-.06.02-.12.07-.19.15.08.03.15,0,.22.02,0,.04-.03.07-.05.1-.08-.01-.21-.03-.29-.04-.14.08-.48.22-.6.34v-.04h-.04s-.05.26-.06.3c0,0-.01.02-.02.03-.03-.01-.04-.2-.07-.22-.15-.02-.24.28-.3.29-.1.06-.05,0-.04.11-.09-.03-.06-.01-.12-.07-.07.08-.04.06-.04.14-.23.01-.11.03-.23.07.02.02.05.05.08.07-.04.03-.04.02-.12.04.03.08.01.06.08.11v.03c-.15-.06-.09-.11-.19-.14v-.07s-.03.06-.04.14c-.19-.02-.14.13-.23.3-.04-.07-.02-.03,0-.11-.09.03-.06.02-.12.07h-.08c-.07.03.08.04.08.04-.05.1-.05.05-.15.04-.05.12-.03.18-.19.22.03.02-.02-.03,0-.01-.06.09.01.04-.11.07,0,.13.01.1,0,.18h.11v.18s-.08-.07-.11-.11c-.03.17-.07.27-.23.4v.04h-.08s.05-.05.08-.07c-.09-.12-.11.02-.19-.14-.14.03-.13.04-.15.18-.05-.01-.07.03-.12.01.02.06,0,.03.04.07-.03.1.03.06-.08.07-.04,0-.02,0-.04-.11-.09.03-.07.08-.19.14.08.11.08.11.12.22-.08-.01-.15-.02-.23-.04-.04.12.02.06-.08.11.04.03.06.03.15.04.06.15.02.18.19.24-.01.06-.03.12-.04.18-.11,0-.18,0-.23-.03-.03-.05,0-.06.04-.15-.01,0-.03-.02-.04-.03-.19,0-.17-.01-.15.11-.07.02-.04,0-.08.04-.05-.06.04-.08-.08-.14v-.07c-.05.06-.05.13-.11.18.07.07.16.11.23.18-.11-.01-.08-.03-.15,0,.01.03-.01.02.04.04-.07.03-.05.03-.11,0-.03.04-.02.03-.04.11-.11-.04-.07,0-.12-.11h-.04c.02.15.01.12.11.18v.07c-.08-.03-.06-.03-.11-.07-.02.09.02.17,0,.22-.04-.01-.02.01-.04-.04-.09.04-.08.06-.15.11,0,.14-.02.06.04.18-.07-.03-.11-.05-.16-.11h-.08c.05.14.05.11.15.11-.07.08.04.05-.02.04-.1.05-.05.05-.04.11v.04s-.02-.03-.04-.04c-.1.05-.05,0-.08.11h-.11s.08.07.11.11c-.15.16-.25.26-.35.4h-.08s0,.01.08.04c-.04.03-.03.02-.12.04,0,.18.03.17-.07.18.02.15,0,.11.11.11-.03.1-.08.16-.08.18v.03c-.06-.05-.05-.02-.08-.11h-.08c-.06.16-.08.34-.15.5h-.08c-.07.03.08.04.08.04-.06.09-.08.17-.19.22.02.13,0,.12.08.18-.05.04-.15.06-.23.07.04.04.08.07.12.11-.06.02-.09.03-.19.03.04.03,0,.01.08.04v.03c-.22.07-.06.11-.23.18.04.14.05.1.04.25.09-.03.06-.01.11-.07h.04c-.04.09-.09.11-.15.18-.11.05,0,0-.04.11h.15c-.1.07-.21.04-.31.04-.02.04-.05.11-.08.14.07.03.03.01.11,0-.02.14-.08.33-.11.36.03.06,0,.03.04.07,0,0,.22.04.31.04.01.01.02.02.04.04-.02.06,0,.04-.04.07-.08.03-.08.02-.16-.03-.23.01-.23.19-.23.29-.08-.03-.05-.03-.11-.07-.04.1.03.08-.08.14.05.07.06.1.15.14-.04.03-.03.02-.11.04.02.06,0,.04.04.07v.04s.15,0,.08-.04c-.01-.01-.03-.03-.04-.03h.08c-.02.09-.02.15-.04.18-.05.08-.15.11-.23.14.04.09.01.06.08.11-.01.18-.04.15-.11.25-.08.04.02,0,.04.07-.01.05-.03.1-.04.14.02.04.08-.02.15.11-.03-.01-.05-.02-.08-.03v.03h-.04v.04h.16c0,.13-.02.13.08.18v.04c-.12-.04-.11-.03-.15-.14-.06.1,0,.1-.08.18.04.03,0,.01.08.04-.05.09.02.02-.08.07.03.1-.02.06.08.07,0,.25,0,.35-.08.5.04.03.05.06.08.11.15.02.19.02.35,0v.14s-.08-.07-.11-.11c-.08.17-.23.2-.27.43h.11c-.06.02-.12.04-.19.04.04.15,0,.06.11.11-.03.05-.07.1-.11.15v.11c.09-.05.12-.07.15-.18h.08c-.02.09-.01.06,0,.14-.09.02-.06.01-.15,0,.06.09-.01.04.12.07-.05.09.02.03-.08.07.04.03,0,.01.08.04-.15.4.06,1.58.31,1.98-.03-.01-.05-.02-.08-.03.06.09,0,.04.11.07-.03.15-.04.13-.08.29.13.03.06-.02.12.07.05.03-.01,0-.04.04v.04s.02,0,.04.07c.09-.05.02.02.07-.07h.12c-.04.06-.1.13-.15.18v.07s.05-.05.08-.07c.08.04.15.21.19.29-.11,0-.01-.02-.12.04-.01.04-.02.07-.04.11.09.02.04.03.12,0h.04v.11h-.12s.14.07.19.11c.03.02.01,0,0,.03v.11s-.03-.03-.04-.04h-.08c.02.07,0,.07.04.11.04.07,0,.02.08.04-.01.02-.03.05-.04.07-.07.03.07.07.11.11-.12.05-.05.04-.19.04.05.07.05.08.16.11-.04.08-.05.1-.04.15v.07s.02-.03.04-.11c.06.02.06.03.15.04-.04.03-.07.05-.12.07.04.1.09.11.12.11.1.06.05,0,.04.11.04.01.08.03.11.04.04-.05.08-.09.13-.12.05.06.11.1.18.12h0s.04,0,.04,0c.03,0,.07,0,.11,0h.04s0,0,0,0c.02,0,.05,0,.07-.02-.03.08,0,.21-.03.29.14.18.26.3.5.39-.18-.03-.38-.12-.55-.16,0,.09,0,.18.05.26v.03s0,0,.02,0c.04.07.09.13.15.19-.01,0-.03.01-.05.02.02.07,0,.07.04.11.05.03.11.04.19.04,0,0,.02.02.03.02-.02.06-.01.04-.07.09.07.13.15.11.23.04.01,0,.03.02.04.03v.15c-.09-.04-.11-.03-.16-.11h-.08c.06.13.08.13,0,.22.05.06.08.07.15.11-.03.09-.01.06-.08.11.05.1.13.2.23.25.02.02.12-.01.19-.07h.04c-.06.07-.08.08-.19.11.07.11.1.14.19.14.03.09.03.09,0,.18.06.02.06.03.15.04.04.17.12.2.23.29.04.05.06.16.08.29.09.01.18.02.27.04-.03.03-.07.05-.11.07.08.1.23.22.38.25-.02.07,0,.12-.04.22h.15c.05.24.2.11.23.47,0,0,.15-.01.08-.04-.01-.01-.02-.02-.04-.04.09.05.04,0,.08.11.04-.04.08-.09.12-.14.11.07.05.09.08.18-.03-.01-.05-.02-.08-.04.04.16.06.05.19.14.14.07.27.37.31.54.1,0,.13-.02.19-.04.1.15.3.23.35.4h.04v-.04s0-.05.03-.09c.02,0,.03.01.04.02-.01,0-.02,0-.03,0,.09.08.18.17.27.25v.03h.04c-.02-.07,0-.07-.04-.11,0-.02,0-.02,0-.03.08.06.16.1.28.12-.03.03-.06.05,0,.09,0-.05.05-.05.05-.08.02,0,.03,0,.05,0,.03.06.07.12.12.18-.02.06-.03.06-.04.15h.11s.01-.03.02-.04c.03.03.07.07.1.1v.12s.05-.04.07-.06c.03.02.05.04.08.06,0,.02,0,.05,0,.11.07-.01.08-.01.1-.03.1.07.22.14.33.19,0,.03,0,.06,0,.09.22.02.17.05.38.07.02.16.06.13.08.29.02-.03.05-.11.08-.15v-.04c.04.05.04.12.04.22.08-.07.08-.01.12-.11h.08v.14c.2,0,.2.04.43.07v.11c.21.07.31.08.46.07-.03.02-.05.05-.08.07.03.05-.03.09.08.07v-.04h.04s-.03.05-.04.07h.04s.13-.02.15-.04h.11s-.05.09-.08.14c.07.04.06.05.15.07v.04c.02.07.04-.07.04-.07.12.05.07.12.15.18.1.08.18-.03.27,0,.06.06.13.12.19.18.07.03.14-.05.15-.04.01.04.03.07.04.11,0,0,.15,0,.08-.03-.01-.01-.02-.02-.04-.04.16.09.19.13.42.14-.05.09.02.03-.08.07.01,0,.03.02.04.04v.04s.05-.05.08-.07c.15.02.44.23.46.29.03-.04.03-.06.04-.14.05.06.07.15.08.25.1-.04.19-.07.23-.07.07.02.04,0,.08.04-.05.02-.12.04-.15.07h-.04c-.08.02.08.04.08.04.08.03.04.03.12-.04h.04c.02.07-.02.05-.04.07.09.06.12,0,.19.14.03-.04.02-.03.04-.11.15.09.27.07.39.18,0,0,.15,0,.08-.04-.01-.01-.03-.02-.04-.04.15.08.15.11.19.29.11,0,.25,0,.27-.04h.04c-.01.13-.03.12,0,.22.17.03.17.04.35.04.01.04.03.07.04.11-.07-.05-.03-.05-.15-.07.01.08,0,.07.04.11.07.05.07,0,.11.04,0,0,.06,0,.08-.01,0-.01.02,0,0-.02.03.01.02.02,0,.02,0,0,0,0,0,.01.06.09.02.06.15.07-.03.03-.07.05-.12.07v.07c.1-.02.07-.02.12-.07.17.06.16.07.31-.04.01.01.03.03.04.04-.05.05-.1.1-.15.14v.04c.12-.04.13,0,.15-.07.12.06.12.14.12.22.11-.02.13-.02.19-.07h.04c-.04.08-.07.08-.12.14h-.04v.04c.14-.01.22-.02.31-.04.05.09.12.15.19.22.05,0,.02.02.08-.04.03.03.05.06.08.11-.03-.01-.05-.03-.08-.04-.02.06-.03.06-.04.14.18-.01.21.03.27.04.1.06.05,0,.04.11.05.02.14,0,.15,0,.2.1-.02.11.27.11-.03.11.02.06-.08.11.1.08.16.11.23.14h-.04s0,.01.08.03v-.02s.05.03.07.05c.02-.06.04-.11.04-.22.1.09.01.08.15.07-.03.16-.07.12-.08.22-.01.01-.02.03-.04.04.09-.01.11,0,.16-.04.18-.06.16-.17.27-.29.01-.01.03-.02.04-.04.05.17.07.16.12.29h-.04v.07c-.05-.05-.06-.1-.12-.15v-.03s-.1.09-.15.14c.02.08.03.13.08.18v.04s.05-.05.08-.07h.04c-.04.08-.03.1-.12.14.05.08.09.04.27.04-.04.03-.04.02-.11.04.07.13.2.2.35.25-.04.03-.01.01-.08.03.01.04.02.07.04.11.11,0,.06.02.12,0,.19,0,.18.02.19-.07.09.08.04.02.04.14.11,0,.06-.03.11,0h.08c-.03-.11,0-.22,0-.4-.03.05-.03.09-.04.18h-.08c-.02-.14-.06-.12.04-.18-.04-.03-.04-.02-.11-.04.04-.03.15-.05.19-.07.1.09.08.09.08.22.09-.03.06-.01.11-.07.03.04.02,0,.04.07.01.01.03.02.04.04h-.04c-.05.14-.09.11-.19.11,0,.15.02.23-.08.29.08.06.19.09.31.11-.03.09-.01.06-.08.11.01.01.03.02.04.04.06,0,.06-.04.19-.07-.01.08-.02.09-.04.14.09.07.12.09.23.18v.04c.22.11.26-.16.31.18.09-.03.06-.01.12-.07.09.05.04,0,.08.11h.08c.03-.13.14-.48.16-.51M19.96,31.22s0,.03,0,.05c-.06-.02-.16-.06-.24-.11.09.01.17.03.25.06M18.73,30.89s.05.02.07.03c-.02,0-.01,0-.04.02h-.04s0-.05,0-.06M18.31,30.45s.01.06,0,.1c0,0-.01,0-.02,0,0-.04,0-.07,0-.09M4.83,25.29c.03-.1.06-.1.11-.18h.08s.02.02.04.03c-.04.04-.12.1-.23.14"/>
  <path class="cls-1" d="M27.03,12.65c.04-.05-.03-.06-.04-.07-.08,0,0,.05.04.07"/>
  <path class="cls-1" d="M45.27,22.69c-.06-.09.01-.04-.11-.07,0-.16.03-.25.11-.29-.07-.12-.05-.02-.11-.07-.03-.02-.01,0,0-.04,0-.02.08-.05.08-.07,0,0,.07,0,0,.03-.01.01-.03.02-.04.04h.08c-.05-.22.05-.62.17-.75-.01-.07-.01-.07-.04-.11v-.04c-.05.06,0,.06-.04.11-.03.03-.04-.02-.15-.04.06-.09.01-.06.15-.07.01-.06.03-.12.04-.18-.17-.05-.12-.13-.23-.22.04-.03.04-.02.12-.04-.04-.11-.07-.2-.12-.25,0,0,0-.14.04-.07.01.01.03.02.04.04,0-.06-.08-.18-.08-.18.07-.13.08-.06.08-.25h-.15c-.02-.07-.09-.07-.12-.11.03-.03.1-.05.19-.07-.02-.08,0-.07-.04-.11-.06-.04,0,0-.12,0,.04-.15,0-.06.12-.11.01-.04.03-.07.04-.11-.01,0-.03-.02-.04-.03-.13.03-.06-.02-.12.07h-.04c.03-.08.02-.06.08-.11,0,0-.01-.14-.04-.07-.01.01-.03.02-.04.04.02-.05.03-.06.04-.15.15-.02-.02,0,.1.03.01-.01.02-.02.04-.04-.03-.16-.13-.12-.12-.26-.06-.02.07-.06-.02-.07v-.04c.1-.02-.1.03.02.03-.04-.06-.24-.12-.28-.17-.03.04.19-.1.18-.02-.08-.05-.15-.07-.19-.14.13-.06,0-.06.14-.04-.05-.12-.04-.05-.04-.15-.07.02.1-.02.06,0h-.12c.08-.13,0-.28-.11-.48h.02c-.02-.06,0-.04-.04-.07v.04s-.05-.08-.08-.11c-.02-.05-.01-.03-.04-.03-.09-.04.04-.16-.05-.21.02-.04.05-.07.08-.11-.1-.02-.1-.03-.19.04h-.04c.05-.06.03-.04.12-.07-.08-.18-.21-.23-.35-.39.02-.03,0-.1,0-.22-.09,0-.11,0-.15.04-.1-.06-.04,0-.04-.11-.14.02-.04.02-.12.07-.05.03-.05.01-.12-.04h-.04v-.07c.17,0,.26,0,.35.07h.08c-.06-.16-.19-.19-.19-.29-.07.02-.04,0-.08.04-.12-.08-.25-.34-.46-.33.04-.12.02-.17-.08-.25.07-.04,0,0,.08,0v-.07c-.17,0-.26-.07-.31.03h-.04c.02-.12,0-.05.08-.11-.07-.08-.07-.12-.08-.25-.09.05-.04.06-.04.22-.06-.07-.09-.14-.04-.22-.04-.03-.04-.02-.11-.03.01-.07,0-.07.04-.11-.08-.05-.14-.03-.23,0,.03-.09.01-.06.08-.11v-.07s-.15.04-.19.07h-.04c.05-.09-.02-.02.08-.07-.08-.14-.2-.1-.27-.14-.12-.07-.08-.18-.15-.29-.09-.05-.25-.04-.35,0-.03-.1-.05-.13-.11-.25-.13.03-.06-.02-.11.07-.09-.09.04-.07-.12-.11.08-.04.07-.02.16,0-.02-.08-.01-.07-.04-.11-.04-.02-.14,0-.27,0,.03-.11-.02-.05.08-.11v-.04c-.13.03-.06-.02-.12.07-.09-.05-.08-.07-.08-.21-.03.03-.05.08-.08.11v.03c-.11-.05-.13-.12-.23-.18-.03.04-.04.07-.08.11v.04h-.04c.03-.12.04-.09.04-.18.01-.01.02-.02.04-.04-.16-.01-.16,0-.23-.07-.08.03-.03,0-.04.07-.14-.06-.15-.13-.34-.07.03-.08.05-.15.08-.18v-.07c-.22.02-.29-.05-.38-.22-.12.05-.11.09-.27.11.06.07.1.1.19.14-.04.06-.04.03-.07.11-.18-.02-.46-.01-.58-.11-.01-.01-.03-.02-.04-.04.02-.01.05-.02.08-.03-.02-.12-.09-.08-.12-.22-.08,0-.22-.08-.27-.18-.1.05-.03-.02-.08.07-.04-.07-.02-.03,0-.11-.11,0-.25-.04-.27,0-.01.01-.03.02-.04.04-.21-.09-.31-.29-.54-.11-.15-.04.02-.04-.16-.07.02-.05.04-.08.08-.11v-.07l-.5.07s0-.05-.04-.07c-.08-.04-.04.01-.11,0,0-.01.01-.12-.04-.07v.07c-.04-.07-.02-.03,0-.11-.14.03-.07-.02-.08.11-.08.01-.15.02-.23.04v-.11c-.13.02-.16.04-.23.11h-.04s.05-.05.08-.07v-.11c-.12.04-.2.05-.27.11-.16-.13-.26-.16-.46-.22-.01-.01-.19.02-.27.11h-.08c.02-.06.03-.06.04-.14-.08-.01-.07,0-.12-.03-.1.06-.05,0-.04.11-.16-.05-.12-.03-.12-.14-.1.04-.08.11-.15.14-.12.06-.07-.12-.16,0-.09-.05-.06-.01-.08-.14-.05.01-.13.06-.19.09v-.02h-.08s.02.02.06.03c-.07.04-.13.09-.14.11-.07-.08-.06-.13-.04-.22-.27-.01-.64.04-.69.07-.15.03-.16.05-.19.18h-.11s.07-.07.11-.11c-.06-.04-.18-.07-.23-.11-.04.03-.08.07-.12.11-.03-.04-.06-.1-.07-.14-.35.02-.35.14-.69.14v.11c-.24,0-.24.04-.42.03v.14c-.07-.04-.06-.07-.15-.11-.05.07-.05.03-.08.14-.19-.07-.25-.06-.38.04-.28-.15-.16-.03-.46.04.04.03.01.01.08.03-.07.04-.2,0-.31-.03-.01.01-.02.02-.04.03.02.01.03.02.04.04.04.03.04.02.12.04,0,.03.1.25.12.29-.02.06,0,.04-.04.07-.09.04-.19-.03-.35-.03.04-.03.01-.01.08-.04-.02-.14-.04-.11-.08-.22-.16.02-.2.07-.27-.04-.04.01-.07.02-.11.04v.07c-.03.07-.04-.07-.04-.07-.11.03-.07,0-.08.07-.05.07-.24.13-.31.18v.03c-.02.07-.04-.07-.04-.07-.03.03-.05.11-.08.14-.02-.03,0,0-.04,0-.03-.03,0-.08-.04-.14-.05-.03-.05,0-.12-.03h-.04c0,.08,0,.1.04.14v.14h-.04c-.01-.06-.03-.12-.04-.18-.08.02-.1.03-.15.07h-.04c-.08.02.08.04.08.04-.08.06-.14.04-.19.14-.11-.02-.17-.04-.23-.11-.13.04-.08,0-.08.11-.13.01-.25.02-.38.04-.02.08,0,.07-.04.11v.04c-.13-.06-.08-.05-.08-.15-.2.05-.12.08-.35.07-.02.04-.04.11-.08.14-.04.03-.03.02-.11.04v.11c-.09,0-.11,0-.15.04-.15.06-.08.01-.08.14-.15.03-.23.08-.39.11.02.06.03.06.04.14-.16,0-.21.08-.27.14-.02-.04,0-.07,0-.18-.04.04-.08.16-.12.18-.05-.01-.1-.02-.15-.04-.08.05-.2.29-.27.32-.09.05-.04-.05-.12,0-.12.06-.16.18-.15.36-.16-.04-.2-.04-.31-.11-.03.03-.05.05-.08.07v.07c.09-.01.09-.02.15-.04.01.01.03.03.04.04-.01.01-.03.03-.04.04-.02.02-.11.07-.19.11-.02-.06-.03-.06-.04-.15-.17.18-.15.29-.34.43.02.11.1.15.23.22.02.03,0,0,.04,0,.1-.06.04,0,.04-.14.06.05.04.02.08.11.03-.04.03-.03.04-.11h.08c-.03.11.02.06-.08.11v.07h.12c.11-.18.09-.24.19-.36.08.05.15-.02.23.11.09-.05.03.02.08-.07.07-.04.02,0,0-.08.06-.02.07-.02.16-.03v-.11h-.19c.05-.07.05-.03.08-.15.16.02.11-.03.12.11.01-.01.03-.02.04-.03.04-.02.08-.05.12-.07-.04-.14-.03-.21-.15-.25v-.03c.16.03.17.13.19.29.22-.04.22-.12.27-.25.12-.04.27.04.38-.03.04-.02.05-.16.08-.18.05.01.1.02.16.04.09-.06.17-.15.19-.29.03.04.02.03.04.11.01-.01.02-.02.04-.04.08.03.03,0,.04.07.11-.05,0-.03.08-.11.05.07.24-.02.27-.04,0,0-.01-.13.04-.07v.07c.12-.05.2-.23.23-.29.04.06,0,0,0,.07.01.01.03.02.04.03.08-.03.08-.03.08-.03.05-.08.15-.13.27-.14v.11c.08.02.08,0,.12.04.05-.06.07-.15.11-.22.08-.03.12-.01.12.07h.08s.03-.02.04-.04c-.04-.12.02-.06-.12-.07v-.11s.12.04.16.07c.02-.03.05-.08.08-.11.02.03,0,0,.04,0,.12.02.1,0,.16.07-.03-.01-.06-.02-.08-.04v.11c.15,0,.2-.01.27,0-.03-.08-.02-.06-.08-.11.03-.08.01-.06.08-.11v-.04c.02-.07.04.07.04.07.19,0,.17.01.15-.11.09.02.09.03.15,0,.04.06,0,0,0,.11.08-.04.13-.15.19-.18.16-.08.68.04.81.14.04-.07.02-.04,0-.14.13.03.2,0,.31.04.03-.04.04-.07.08-.11v-.04c.04.06,0,.08.04.15.01.02.03.05.04.07.08-.04.1-.11.12-.25h.04c.07.15.06.14.15.29.12-.03.37-.09.42-.18.12.04.15.06.19.18.03-.04.03-.06.04-.14.09.04.08.06.12.14h.12c-.04-.08-.05-.1-.04-.14v-.07c.09.04.06.04.08.18.12-.02.09,0,.15-.07.03.04.02.03.04.11h.12c-.01.08-.01.07-.04.11v.04h.08c.02-.05.03-.06.04-.14.09,0,.11,0,.16-.04.05.03.09-.03.08.07h-.04c.09.15.32.11.42.07.03.05.04.08.08.11v.04c.02.07.04-.07.04-.07.13.04.08,0,.08.11.29,0,.41.19.54.07.1.09.09.11.08.22.25,0,.16.04.23.11.08.08.34-.13.38.11h.08c.02-.09,0-.02,0-.11.02.01.05.02.08.04-.03.02-.05.05-.08.07.04.03.06.03.15.03-.05.07-.05.03-.07.15.15.01.25.05.35,0,.11.09.19.17.31.25h.04v.07c-.06-.02-.09-.03-.19-.04v.11c.17.05.26.06.35.18.03-.05.03-.09.04-.18h.04c.04.14.05.1.04.25.07-.02.04,0,.08-.04.01.01.03.02.04.04h-.04c.06.1,0,.04.12.04,0,.11.01.19,0,.21.06.09,0,.04.12.07-.04.03,0,.01-.08.04.05.09.09.08.15.14-.03.04-.03.07-.04.18h.12c.02.09.01.02,0,.11.09-.05.02.02.08-.07h.08c-.05.09.02.02-.08.07.02.08.03.13.08.18.04.03.09,0,.15.04,0,0,0,0,0,0,.01.01.03.02.04.04-.02-.01-.03-.02-.04-.03-.07.03-.07.03-.07.03v.04s-.05-.05-.08-.07c-.03.04-.03.03-.04.11h.12c.05.07.02.07.11.11-.03.02-.05.05-.08.07v.07h.15v.11s-.05-.05-.08-.07h-.08c.1.18.09.39.31.47-.03.09-.02.06-.08.11.06.09.02.06.15.07-.04.03-.03.02-.12.04.07.09.11.08,0,.14,0,0,.01.14.04.07.01-.01.02-.02.04-.03-.02.13.02.16-.08.22.05.04.07.05.15.07-.04.03-.06.03-.15.04v.07c.14-.02.15,0,.23-.07h.04c-.05.09-.07.1-.08.25-.08-.03-.03,0-.04-.07h-.11c.01.08,0,.07.04.11-.04.03-.03.02-.11.04.07.08.15.14.19.25.03.05.03.2,0,.25v.04s-.03-.06-.04-.15c-.03.05-.03.09-.04.18h.12s.08.07.11.11c0,.1-.03.05,0,.11-.06.1,0,.04-.11.04.04.1.04.09.11.14-.04.03-.04.02-.11.04,0,.14-.04.1.08.18-.04.03-.07.05-.12.07.04.13.08.18.08.25,0,.03.01.02-.08.07.02.15-.03.1.12.11-.02.08-.04.07,0,.14-.06.09-.03.04-.19.04.04.06.07.09.12.14-.25.18-.04.2-.12.43-.03.09-.15.12-.19.18,0,0,.05.19.04.22-.02.07-.01,0-.12.07-.07.07-.11.23.04.29-.04.03-.04.02-.11.04v.11s.08.05.11.07c.05.03.21,0,.27-.07h.04c-.01.08-.02.09-.04.15-.18,0-.27.02-.5,0,.01.07.02.15.04.22.09-.06.06-.08.19-.11-.01.07-.03.15-.04.22-.13-.04-.24-.05-.34.04-.03.04-.03.03-.04.11.16.01.18.04.31.07-.02.03-.19.12-.32.17-.03-.02-.03-.02-.11-.03.04.03.04.02.1.03-.04.02-.08.03-.1.04.06.09,0,.04.12.07-.01.01-.03.02-.04.03-.04.06,0,.02-.08,0-.03.03-.05.05-.08.07.04.18.21.38.39.43-.08.14-.12.26-.12.4-.1,0-.13-.02-.19-.04,0-.11,0-.23-.04-.29.06-.12.06-.02.15-.07.07-.02.04,0,.08-.03-.17-.06-.2-.03-.31-.15-.04.06-.04.08,0,.15v.03s-.05-.02-.08-.03c-.03.05.02.08,0,.11-.03.05-.18.01-.23.11-.1.19.12.21-.08.33.05.09-.02.02.08.07-.06.11-.04.04-.04.18-.08-.02-.16-.05-.23-.07-.05.09-.04.1-.15.14.01.01.02.02.04.03v.07c.03.07.04-.07.04-.07h.04v.15h-.31c.03.08.03.05.08.11-.12.05-.11-.02-.11.11h-.15c-.11.07-.01.14-.2.18-.01.12-.01.06,0,.18-.04-.03-.11-.07-.15-.11h-.08c.02.13-.02.09.08.15-.06.2-.18.17-.19.43-.03-.03-.05-.05-.08-.07h-.04v.14s.02-.03.04-.04h.08c.01.15.01.1,0,.25-.03-.03-.05-.06-.08-.09h0s0-.01,0-.01c-.04-.05-.08-.1-.15-.15-.02.08,0,.06-.04.11-.05,0-.02.03-.08-.04h-.12c.05.07.02.07.12.11v.15c-.09-.05-.06-.08-.12-.15-.01-.01-.03-.02-.04-.04,0,.1.01.17,0,.22-.02.06,0,.04-.04.07v.04c-.04-.07-.02-.07,0-.14-.12.02-.19.14-.11.25v.03c-.15-.06-.15-.02-.27-.03-.02.06-.03.11-.04.22h-.11v.11s-.01,0-.04-.07c-.1.07-.06,0-.04.11-.11,0-.11-.03-.15,0-.12.06-.02.05-.08.11-.05.03-.14.01-.19-.07-.07.02-.04,0-.08.04.05.07-.02.09.08.18-.04.03-.04.02-.12.04.04.08.04.05.08.11-.13.01-.1,0-.27,0v.11s.08-.02.12-.03c-.03.02-.05.05-.08.07-.03,0-.03.01-.08-.07-.08.08-.16.16-.19.29-.07-.03-.04,0-.08-.04-.04-.06,0,0,0-.11-.23.04-.07.11-.23.22-.09.06-.32.04-.35.04-.07.07.04.06-.08.11.05.06.02.04.12.07-.02.06,0,.04-.04.07-.05-.05-.09.02-.15-.11h-.04c.03.11-.02.06.08.11-.04.02-.14,0-.19.04-.12.08-.07.18-.23.18-.02.06,0,.03-.04.07.05.03.06.03.16.04v.07c-.12-.02-.11-.03-.19-.07-.05-.06-.08,0-.11.07-.1-.05-.05,0-.08-.11-.13.07-.12.11-.23.11.03.09.02.06.08.11v.04c-.12.04-.2.02-.31.04,0,0,0,.14.04.07.01-.01.03-.02.04-.04-.02.09-.01.02,0,.11-.09-.03-.09-.04-.15-.07-.03.09-.01.02,0,.11-.18,0-.11,0-.27.04.02.04.04.07.08.11v.04c-.09-.05-.03.02-.08-.07h-.12c-.02.1-.05.1,0,.18v.04c-.16-.04-.35.02-.5,0-.02.06,0,.04-.04.07.07.03.03.02.12,0-.01.01-.03.03-.04.04-.06.12-.02,0-.11.07-.03-.04,0-.03,0-.14-.09.05-.06.08-.19.11-.02.15-.06.17.04.25v.04c-.08-.02-.07-.01-.11-.04h-.12s0,.14.04.07c.02-.01.03-.03.04-.04-.09.23-.25.1-.35.29-.06.09-.02.17,0,.29h-.12c.01-.07.03-.14.04-.22-.13-.01-.06,0-.19,0,.02-.04.05-.14.08-.18v-.14c-.15,0-.61.07-.73,0-.03.04-.02.03-.04.11-.08.01-.08,0-.12.04-.1-.03,0-.01-.08-.07-.06.02-.14.16-.35.18.01.04.03.07.04.11-.11-.05-.04-.09-.12-.14h-.15c.06-.03.01-.08,0-.15-.09.05-.03-.02-.08.07h-.04c-.02.07.02.05.04.07v.03c-.08-.04-.11-.04-.15-.07-.12-.04,0-.03-.12-.11-.01-.01-.02-.03-.04-.04,0,.03.02.09-.04.07-.07-.02-.13-.11-.19-.14-.01.02-.03.05-.04.07h.04v.07c-.07-.05-.03-.05-.15-.07v.11c-.09-.01-.12-.07-.15-.07-.04,0-.44.11-.46.11-.13,0-.24-.13-.31-.11-.1.03-.34.15-.42.22h-.08s0-.01.08-.04c-.02-.07,0-.07-.04-.11v-.04s-.2.19-.23.29c-.08-.05-.11-.06-.15-.14-.01.01-.03.03-.04.04-.13.05,0,.02-.08.11-.03.1-.01,0-.08.07-.01.01-.03.03-.04.04.14,0,.06.04.15-.04h.04c.01.06.03.12.04.18.08-.01.07,0,.11-.03.04.07.01.04,0,.14.03-.02.05-.05.08-.07.04.05.04.12.04.22.01-.01.03-.02.04-.04.1.05.04,0,.08.11.09-.01.1-.02.15-.04.02.08,0,.05,0,.18.08-.03.1-.05.19-.07-.04.03,0,.01-.08.04.1.14.28.22.38.22-.05.11-.01.08-.15.11.03.08.03.1.08.14.05-.04.11,0,.19-.11.12.12.29.25.31.5.09-.09.09-.05.12-.18h.04s.02.02.04.04c-.03.02-.05.05-.08.07.09.09.18.11.31.07-.01.01-.02.02-.04.04.06.09.02.06.15.07-.05.03-.07.03-.15.04.04.03.06.03.15.04.03.12.02.09.11.14-.04.13,0,.08-.11.07.04.08.03.06.11.11.03.02.13.01.19-.04.03.05,0,.04,0,.15.03-.04.01-.01.04-.07.15.06.23.15.23.25.1-.02.11,0,.15-.04.1.06.04,0,.04.11.01-.01.03-.03.04-.04,0,0,.15,0,.08-.04-.02-.01-.03-.02-.04-.04.13.06.01.07.15.14.08.12.07,0,.15.11.04-.07.02-.07,0-.14.09.01.04.03.12,0h.04c0,.13.02.13-.08.18.01.01.03.02.04.04.01.01.03.02.04.03.02-.05.05-.14.08-.18v-.07s.03.09.04.18c.06-.04.08-.07.15-.11.03.09.01.06,0,.14.28-.02.5.12.65.11.12.06,0,.02.08.11.05,0,.02.02.08-.04.12.03.08.02.15.07,0,0,.1-.02.19,0-.03-.09-.02-.06-.08-.11v-.07s.02.02.04.04c.07.06.07.05.08.18.12-.04.21-.02.27-.07.06.05-.01,0,0,.07h.04v.04c.09-.06.04-.03.04-.18h.04c.02.09,0,.03,0,.14.15-.04.15,0,.27.07v-.04c.07-.05,0-.02-.04-.07h.04s.05,0,.12-.04h.08c-.04.07-.05.1-.12.15.04.03.07.05.12.07-.03.11,0,.09-.08.14.07.04.03.02.12,0-.04.09-.02.06-.08.11v.11s.05-.05.08-.07h.04c0,.08,0,.1-.04.14-.01.01-.1-.03-.23-.03.01-.04.03-.07.04-.11-.09.04-.08.06-.12.14-.05.02-.05.09-.12.22h.04c.08.03.04.03.11-.03h.04v.07c-.1.04-.19.09-.27.14-.04-.09-.04-.06-.08-.14-.05.02-.15.04-.19.07-.09.05-.06.08-.12.18-.15-.04-.22-.04-.34-.14-.05.15-.14.18-.31.22-.07-.09-.04,0-.04-.11h-.08v.15c-.15-.02-.16,0-.19-.15-.15.05-.05.04-.23.04.01.04.03.07.04.11-.03-.01-.05-.02-.08-.04-.06-.03-.24.02-.38.04-.01.01-.03.02-.04.04.07.1,0,.04.12.04-.02.14-.04.11-.08.22-.12-.04-.14-.09-.19-.18h-.04c0,.16-.01.17.12.22.07.09,0,.02.12,0,.03.07.05.15.08.22-.17-.1-.42.04-.42.04-.13-.03.02-.03-.11-.07.03-.08.03-.05.08-.11-.1-.03-.19-.15-.23-.11-.1-.03,0-.01-.08-.07.06-.03,0,0,.12,0v-.03c-.06-.03-.13-.05-.19-.07-.02.06-.03.09-.04.18-.09-.03-.19-.06-.23-.04h-.04s.02-.05.04-.07c-.09.03-.06.01-.11.07-.1-.05-.09-.04-.12-.14-.02.03-.05.05-.08.07-.09-.04-.06-.05-.11-.11-.06-.03-.09,0-.15.07-.05-.07-.02-.06-.08-.14-.12.06-.04.02-.04.14-.01,0-.02-.02-.04-.04-.09-.08-.04-.01-.04-.11-.08-.01-.15-.02-.23-.04v.11c-.16-.06-.25-.14-.42,0-.05-.07,0-.12-.04-.18-.03-.02-.08-.01-.15-.04-.02.06-.03.06-.04.15-.03-.04-.03-.03-.04-.11-.1.03-.06-.02-.08.07-.23-.02-.7-.12-.85,0-.06.05.02,0,0,.07h-.04v.07c.13-.02.11-.06.15-.18h.08c-.07.23.04.34-.04.47.07.03.03.02.12,0-.03.14-.04.09-.04.18-.01.01-.02.02-.04.04.04,0,.08,0,.12,0v.07h.08v-.06c.14.04.22.14.42.17.03.12.04.08.08.18h.04s-.05.05-.08.07c.05.06.08.08.15.11.04.06.05,0,.12-.04.06.08.08.05.11.18.04-.03.05-.06.08-.11h.04c-.03.15-.03.2-.04.4.03-.04.02-.03.04-.11.14.11.08.09.27.07-.07.1-.04.02-.04.18.03-.04.02-.03.04-.11.07.04.06.05.15.07v.11c.16,0,.21-.03.23-.07.09.05.06.08.12.14-.03.1.02.06-.08.07-.01.01-.03.03-.04.04.09.14.33.07.42-.04h.04c-.05.09-.07.13-.15.18.04.03.04.02.12.03-.04.03,0,.01-.08.04.06.03.05.03.11,0,.04.05,0,.04.04.11.01.02.18.17.31.07.02.02.07.1.11.18.12.03.12.04.27.04.04.11.1.19.15.29.1.02.15.05.31.07.02.11.02.12.08.18.07.05.07,0,.12.04.06.04.07.09.11.14.04.02.23-.01.27-.04.06.05-.02,0,0,.07h.04c.04.06.05-.01.11.07h.04c-.02-.15.03-.1-.12-.11v-.07c.14,0,.11.01.19,0v.32c.14.05.34.03.39,0,.03.03.01.17,0,.22.09-.03.07-.01.11-.07.03.02.05.05.08.07v.04c.02.07.04-.08.04-.08.04.07.02.03,0,.11.08-.01.07,0,.12-.03.03.07.01.03,0,.11.08-.01.18-.03.23-.07h.04s-.05.05-.08.07c.03.08.03.05.08.11.1-.06.04,0,.04-.11.07.04.13.07.19.11.02-.04.04-.07.08-.11.05.07.1.11.19.15.02.13.02.14,0,.29h.12c-.05.06-.03.05-.04.07.03.12-.02.05.08.11v.07s-.03-.02-.04-.04c-.15.01-.17.08-.31.18.01.02.03.05.04.07-.1-.06-.04,0-.08-.11-.14.12-.03.11-.27.11.03.03.05.05.08.07-.02.11-.02.12-.08.18-.01.01-.03.02-.04.04-.02-.04-.03-.07-.04-.11-.11.06-.13.12-.19.04h-.08c-.02.08-.04.23-.08.29-.05.06,0-.02-.08,0v.03c-.19.04-.24.13-.23.25h-.08s-.1-.08-.15-.11v-.07c.06.05.04.02.08.11h.08v-.18c-.08.01-.07,0-.11.04h-.04c.06-.09.02-.06.15-.07-.03-.06,0-.04-.04-.07-.03,0-.71.22-.92.25v-.11s.05.05.08.07c.04-.04.08-.07.12-.11v-.03c-.23.02-.4.14-.5-.04-.03.03-.05.08-.08.11-.03,0-.03.01-.08-.07-.13.04-.05.03-.15.03-.01.1,0,.12-.04.18-.07.03-.33,0-.39-.04h-.04c-.02.1-.05.1,0,.18v.07c-.1,0-.18,0-.23-.04-.03-.05-.01-.04.04-.11-.02-.05-.08-.1-.15-.18-.01.01-.03.02-.04.04v-.04h-.08c.04.08.06.07.08.18-.14.03-.11.06-.27.07.01.01.02.02.04.04-.02.2-.14.28-.31.32v.07h-.04c.03-.13.05-.09.08-.22.08-.02.07-.01.11-.04.03-.02.02-.14.08-.22.03-.05-.03-.09.08-.07v.03c.12-.02.13-.04.19-.11-.22-.09-.8-.43-.85-.58-.03.02-.05.05-.08.07-.04-.13-.02-.13-.19-.14.03-.02.05-.05.08-.07-.01-.01-.03-.02-.04-.04-.11.04-.22.12-.27.22h-.08v-.14c-.31-.04-.07-.21-.27-.32-.15-.04-.25.13-.39.25v.04c-.06-.04-.03-.04-.11-.07-.02-.21-.01-.27,0-.43h-.08s0-.01-.08-.03v.03s-.02.03-.04.04h.04v.04s-.08-.03-.11-.04c.05-.06.02-.04.11-.07v-.07c-.05,0-.1.02-.15.04-.01.12,0,.1,0,.25-.04-.05-.08-.13-.11-.18-.07-.02-.18-.05-.23-.03-.09.05-.03-.02-.08.07h-.04c.06.16.26.19.39.18-.01.01-.03.02-.04.04-.08.1-.16,0-.27.11-.16-.11-.02-.24-.27-.29.04-.08.05-.13.12-.18-.06-.06-.11-.11-.19-.15v-.07c-.05.08-.02.1,0,.18h-.08c-.02-.06-.03-.09-.04-.18-.12.07-.05.05-.04.18-.14-.03-.15-.06-.19-.18-.12.01-.06.01-.15,0-.01.01-.03.02-.04.04.05.09-.02.02.08.07v.03c-.12-.01-.12,0-.23-.03-.01.07-.03.14-.04.21.12.02.09,0,.15.07-.03-.01-.05-.03-.08-.04v.04s.11.17.19.18c-.03.02-.05.05-.08.07.01.04.02.07.04.11.16-.02.5-.11.54-.18.04.01.08.02.12.04-.04.03-.04.02-.12.04.01.04.03.07.04.11.03.01.05.02.08.04.02-.09,0-.02,0-.11.12.08,0,.13.08.25.08.04.07.02.15,0v.15c-.16-.03-.17-.07-.23-.18-.1.05-.04,0-.08.11-.17.01-.17-.02-.31-.11-.01.01-.02.02-.04.04v.15s.01,0,.04-.07c.03.06,0,.14.04.22.02.06.03.15.19.18-.04.03-.06.03-.15.04.05.04.11.06.19.07.03-.09.03-.09,0-.18.1.05.04,0,.08.11h.12c-.02.06,0,.04-.04.07-.08.12-.1.02-.19.11h-.04s.06.03.15.03c-.02.05-.04.08-.08.11v.04c.08-.03.06-.03.12-.07.05.06.13.14.2.21-.03,0-.06-.02-.09-.03v.07h.12v-.02c.06.05.11.09.15.09v.07h.04c-.03-.12.02-.06-.08-.11v-.04c.1.03.09.04.19.07-.06.09.01.04-.11.07.01.04.02.07.04.11.09-.03.06-.01.11-.07h.04c-.04.12-.06.19-.08.29.16.13.19.32.27.43.07.11.04.05.15.03.01.11.02.06,0,.15.17-.03.13-.07.23-.07-.04-.09-.1-.15-.15-.22-.03-.06,0-.09.08-.15v-.07c.13.17.04.31.19.47-.05.09-.04.08-.15.11.01.12.02.24.04.36.08.04.07.02.11.11.11-.06.1-.21.19-.29-.07-.09,0-.05-.11-.03.05-.09-.02-.03.07-.07.08-.03.1.01.19,0-.05.13-.08.08-.08.18h-.11c0,.17-.04.2-.07.33.03.04.01,0,.04.07.17-.04.14-.07.27,0,.01-.05.03-.1.04-.14.09.05.03-.02.08.07h.07v-.14h-.11s-.03-.02-.04-.04c0-.09,0-.1.04-.15v-.03c.09.04.08.06.11.14h.12c-.06-.09,0-.04-.12-.07.07-.16.08-.06.08-.25.04.02.08.05.11.07.03-.05.07-.13.12-.18.01-.01.03-.02.04-.04.06.13.12.23.15.36-.03-.04-.01,0-.04-.07h-.07c.02.11.02.12.07.18v.04c-.1-.05-.05,0-.07-.11-.12.06-.14.07-.23.07,0,.17.06.1-.08.18.02.06,0,.04.04.07v.03s.02-.03.04-.11h.08s-.03.1-.04.14c-.13.01-.09.03-.19-.04-.06.08-.03.21,0,.29h-.07c-.06.02-.02.04-.08,0-.01-.01.03-.09.04-.22-.22.02-.23-.04-.46-.07.07.1.05.03.04.15.19.02.13.08.23,0h.08c-.08.15.05.14-.04.29.06.1,0,.04.12.04-.05.09-.13.11-.19.18h-.04v.04c.13-.02.12-.04.23-.07.04.03,0,.01.08.03v.11c-.09-.05-.03.02-.08-.07h-.04c.02.15.01.12.12.18-.04.03,0,.01-.08.04.03.06.09.13.12.04.05.06.07.16.12.22-.06.09,0,.04-.12.07.1.08.08.04.23.04-.02.1-.06.24-.04.29v.07s.05-.08.08-.11v-.03h.04c-.01.07-.03.14-.04.22.09,0,.11,0,.16-.04.02.03.05.05.07.07-.06.11-.05.02-.11.07-.01.01.11.62.23.72-.21.2-.03.43-.15.5.1.14.23.08.35.14.03-.08.04-.08.07-.14h.15c-.02.12-.05.12.04.22v.04c-.22-.04-.38-.01-.54-.07-.01.01-.02.03-.04.04.06.09,0,.04.12.07v.07c.03.07.04-.07.04-.07.16.08.11.14.39.14-.04.03-.03.02-.12.04.09.12.08-.03.12.15.1-.03.09-.04.19-.07-.02-.05-.05-.1-.08-.15.03-.02.05-.05.08-.07.09.05.07.04.08.18.11-.03.03-.05.15-.11v-.07c-.06-.02-.13-.05-.19-.07-.03-.06,0-.04-.04-.07v-.03c.18.07.43.08.5-.04.06-.04.02,0,0-.07.08-.03.06-.03.12-.07v-.04h.04c-.03.09-.01.06-.08.11v.03c.09,0,.14,0,.19-.03h.04c.08-.02-.08-.04-.08-.04.09-.19.19-.21.19-.43.2-.01.19-.03.19-.22.04.04.08.07.11.11h.08c-.04-.06-.08-.12-.12-.18.06-.04.07-.09.12-.15.05-.04.05,0,.12-.04.03.05,0,.03,0,.14h.08c.02-.09.04-.16.04-.29.09.05.05,0,.08.11.09-.05,0-.16.11-.25.05-.08.44-.09.46-.11h.08c-.01-.07,0-.07-.04-.11-.07-.03-.05.04-.11,0-.09-.05-.03.01-.08-.07-.07-.02-.04,0-.08-.04.09-.05.03.02.08-.07.07.02.04,0,.08.04.2-.05.1-.18.23-.26.04.01.08.03.11.04.04-.04.08-.07.12-.11.04-.02.05.1.08.11.04.01.31-.04.31-.04h.08v-.07c-.12,0-.05-.06-.12.04-.17-.01-.08-.03-.15-.07v-.07s.08.04.12.07c.1-.09.02-.08.15-.07-.02-.06,0-.04-.04-.07v-.07c.08.03.12.01.15.04h.12c0-.14.02-.07-.04-.18.01-.01.03-.02.04-.04.08.04.06.03.12.07.01-.01.02-.02.04-.04-.04-.1-.08-.15-.16-.22v-.07c.09.04.06.05.12.11.04.02.16-.02.19-.04,0,0,.15,0,.08-.04-.01-.01-.02-.02-.04-.04.09.05.03-.02.07.07h.04v-.25c.18,0,.22-.02.31-.11.05-.07.02-.1,0-.18.13.07.21.12.23.22.06-.03.13-.05.19-.07.02-.09,0-.06,0-.18.03.02.05.05.08.07.13-.06.19-.12.39-.14v-.07c-.08-.01-.21-.03-.27-.07-.01-.01-.02-.02-.04-.04h.04c.08-.03.16.05.23.07.21.05.58-.13.65-.32h.08v.14h-.16v.11c.15-.03.02-.06.16,0,.03-.08.04-.08.08-.14.03-.05,0-.04,0-.15.1,0,.14,0,.19-.04.03-.04.01-.01.04-.07-.1-.06,0-.04-.12-.04.05-.09.1-.17.15-.25.01.01.03.02.04.04h-.04c0,.18,0,.19.12.25.09.05.12-.01.27-.04-.03-.1-.03-.1.04-.18.08-.12.23-.05.31-.18h.08c-.03.09-.02.06-.08.11.05.09-.02.03.08.07-.11.08-.27.1-.39.18h-.04s.03.02.04.04c.11.1.29-.13.5-.14-.01-.12,0-.08,0-.22.1.06.15.09.27,0h.04v-.07c-.09.04-.11.06-.23.07v-.11h.12v-.11c-.09.03-.07.01-.12.07h-.11c.04-.08.09-.16.15-.22v-.04s.05.08.08.11c.07.03.03.01.12,0,.01.01.02.02.04.04-.03-.06,0-.03-.04-.07v-.04c.21.01.21.08.31,0,.1.04.08.04.12.14h.04s.05-.07.08-.11c0,0-.04-.16-.08-.22.03-.1.06-.09.08-.22h.04c.02.08,0,.06.04.11v.07c.12-.06.02-.06.08-.14v-.04s.05.02.08.04v-.04h.04v-.07h-.08c.06-.05.19-.09.27-.11v-.07c-.12-.04-.13,0-.23-.07-.1.17-.17.18-.31.33-.01,0-.03.02-.04.04v-.04c-.06-.06.33-.46.35-.47.05-.04.05,0,.11-.04.15-.06.1-.07.08-.22.12-.06.21-.1.27-.14h.04s-.01-.14-.04-.07c-.01.01-.03.02-.04.04.02-.06,0-.04.04-.07v-.07s.02.03.04.11c.13.03.15.18.27.29v.04c.08.01.05-.02.08-.04.13-.03.09-.04.19-.07-.01-.07,0-.07-.04-.11-.05.03-.15-.01-.23.07h-.04c.07-.11.15-.14.16-.22.1.05.07-.02.15.07h.04c.02-.12.02-.13,0-.25.07.04.05.03.08.04.08-.03.06-.03.12-.07v-.07s.05.08.08.11c.01.01.03.02.04.04.04-.11,0-.13.08-.22v-.04c.02-.07.04.07.04.07h.08c-.05-.11-.15-.25-.08-.36.06-.09.13-.05.19-.14.06.07.09.16.15.22.01-.03.03-.05.04-.07h-.04c.03-.1.02,0,.08-.07.03-.04.04-.08,0-.14.08-.17.37-.28.58-.33-.02-.14-.12-.14,0-.18-.07-.1,0-.04-.12-.04.01-.01.03-.02.04-.04.02-.04.05-.07.08-.11.06.01.13.02.19.04-.02.04-.04.07-.08.11v.04c.1,0,.15,0,.23-.04h.08c-.01-.13,0-.12-.08-.18.07-.03.03-.01.11,0,0-.13.05-.06-.04-.14v-.04s.02.03.04.04c.1.06.05,0,.04.11h.08c.02-.1,0-.1.04-.14.01-.02.03-.05.04-.07.03.03.05.11.08.15v.04c.06-.02.13-.2.12-.25.05-.08.09-.08.15-.14.13.03.1-.03.15.07.04-.07.02-.07,0-.15.09.05.03-.02.08.07.11-.07.03-.08.08-.14.03-.04.05-.07.08-.11h.12c.02-.07.01-.07.04-.11v-.07c.13-.01.08,0,.23,0,.05-.11.08-.19.19-.25v-.04c.02-.07.04.07.04.07.04-.02.29-.23.39-.32h-.04s.02-.05.04-.07c-.17,0-.17.08-.23,0h-.04c.02.07.01.07.04.11-.04.18-.04,0-.11.14-.28-.02-.09-.05-.23-.18v-.11h.08c.03.07.01.11.04.14.01.01.02.03.04.04v-.04c.1-.08.08-.09.08-.18.17-.02.1.07.19-.07.22.04.1.07.35.07-.05-.06-.02-.04-.12-.07v-.07c.22-.03.3-.03.38-.11h.04c-.07-.09,0-.05-.11-.04.08-.15.1-.11.11-.32.09.02.1.03.16.07h.11s-.07-.05-.11-.07v-.04s.05.02.08.04c.06-.17.05-.08.15-.25-.01-.04-.02-.07-.04-.11.08-.11.15.01.19-.18.13.01.08,0,.23,0,0-.1-.03-.05,0-.11.07-.09,0-.05.12-.03-.03-.11-.04-.16-.08-.22v-.04c.12-.01.09-.02.19,0,.11-.18.12-.05.19-.14v-.22c.05.08.12-.03.15-.07.03-.04.02-.03.04-.11h.12s-.04-.02-.12-.04c.05-.03.07-.03.16-.04v-.22s-.03.03-.04.11h-.04c.03-.15,0-.11.12-.11.02-.15.06-.16-.08-.25.06-.09.16-.08.23-.15.1.05.08.04.12.15h.04s.02-.05.04-.07c0,0,.03-.2.12-.32.04-.04.1,0,.16-.07,0,0,0-.16.04-.21.01-.01.03-.03.04-.04v.04c.14-.05-.03-.07.15-.11v-.07s-.03-.02-.04-.04c-.12.02-.09,0-.15.07-.03-.04-.02-.04-.04-.11-.08.01-.08,0-.12.04h-.04v-.07c.09-.03.07-.01.12-.07.13.03.16.07.27.11.02-.04.04-.08.08-.11-.04-.03-.04-.02-.12-.04.06-.09.12-.08.27-.07-.01-.06-.02-.12-.04-.18-.03.04-.02.03-.04.11h-.08c.03-.12.07-.15.12-.25.16-.02.12-.03.23.04.02-.12.03-.12,0-.18-.02-.13.02-.09-.08-.11.05-.15,0-.08.15-.07-.05-.06-.02-.04-.12-.07.06-.03.2-.07.31-.11-.04-.04-.08-.07-.12-.11v-.04c.12.02.15.04.19.04h.08c-.07-.09,0-.05-.12-.04.05-.12.09-.09.08-.18.06-.03,0,0,.12,0,.03-.08.01-.06.08-.11v-.07c-.13.01-.25.02-.38.04-.09-.03-.23-.12-.31-.18h-.04v-.03c.19-.02.27-.02.3.03h-.07s.01.02.07.04c0,.02,0,.04,0,.07.16-.04.05-.04.12-.11,0,0,.22.09.31.15.1-.05.05,0,.08-.11-.16-.04-.32-.16-.42-.25h-.04v-.04c.09.02.06,0,.19,0v.11c.15-.03.14-.04.19-.14.1.06.04,0,.04.14h.04c.03-.09.04-.09.12-.14-.03-.05.03-.09-.08-.07v.04s-.02-.03-.04-.11c.11.02.13.02.19.07h.08c-.01-.07-.03-.13-.06-.19,0,0,.01,0,.02.01h.12c-.06-.1-.08-.05.04-.14-.05-.09.02-.02-.08-.07,0,0,0,.14-.04.07-.01-.01-.03-.02-.04-.04-.01.07-.02.09-.03.13-.02-.04-.04-.08-.08-.13v-.11c.06.02.13.05.19.07v-.03s-.06-.11-.12-.15c.04-.03.01-.01.08-.04.08,0,.03-.03.08.04.2-.24.27-.66.23-.94.11-.03.12-.03.27-.03-.04-.03-.07-.05-.12-.07.04-.03.11-.03.19-.11-.01-.02-.03-.23-.04-.33h.11c-.06-.09-.04-.1-.04-.29h.19v-.07c-.09-.04-.13-.08-.23-.11-.04.04-.16.07-.19.11-.06.08.04.09,0,.14-.04.02-.07,0-.19,0v.11h.12c.05.07.1.1.19.14-.04.03-.01.01-.08.04-.04.03,0,.01-.08.04-.04-.07-.06-.07-.08-.18-.12.06-.15.1-.27,0h-.04v-.04c.08.01.07,0,.11.04.13-.08-.02-.09.08-.22h.04c.08-.08.22-.07.31-.14.07-.06-.02-.1.07-.18v-.07c.09.05.08.09.15.15.01.01.03.02.04.04v-.04c.18-.09.08-.14.04-.29.08-.01.07,0,.11-.04.04-.1,0-.06-.08-.14.1-.04.13-.08.27-.14-.03-.14-.03-.14-.16-.18.04-.11.12-.17.04-.29.04-.03.03-.02.12-.04-.01-.01-.03-.02-.04-.04v-.07h-.12c.02-.16.01-.14.16-.18v-.03c-.09-.05-.12-.08-.23-.11v-.04s.05-.02.08-.04c.06-.06.04.04.08-.04.04.06.02.11.04.14v.04c.15-.17.11-.51.19-.54-.06-.09.01-.04-.11-.07.04-.03.04-.02.11-.03-.03-.13-.07-.2.04-.29v-.04c-.08.02-.07,0-.11.04h-.08v-.04c.12-.02.16-.03.27,0-.04-.12-.05-.15-.19-.18.08-.15.21-.28.15-.43.04-.03.04-.02.12-.04-.05-.08-.12-.16-.15-.18v-.04s.05.02.08.04v-.04s.02-.05.04-.14c-.07-.02-.04,0-.08-.04h-.04v.14h-.11c.03-.09.01-.06.07-.11v-.04c-.12.03-.15.07-.23.04-.03.04-.02.03-.04.11-.05-.03-.08-.04-.11-.07-.01-.01-.03-.03-.04-.04.12-.04.2-.08.27-.07.06-.02.04,0,.08-.04-.05-.03-.02-.08-.12-.14v-.07s.01,0,.04.07h.08c-.05-.14.03-.42-.12-.54v-.07h.08c.07.17.17.26.23.4h.08c-.06-.19-.24-.58-.04-.68"/>
  <path class="cls-1" d="M19.95,12.86v-.07s-.08-.03-.12-.04c.02.04.03.07.04.11h.08Z"/>
  <path class="cls-1" d="M20.38,12.93c-.04-.11-.04-.11-.16-.14.01.1,0,.04.08.14h.08Z"/>
  <path class="cls-1" d="M37.81,13.08v.11h.08c-.03-.12.02-.06-.08-.11"/>
  <path class="cls-1" d="M31,13.11h-.08c.06.04.03.06.08,0"/>
  <path class="cls-1" d="M21.88,13.33h.04c-.02-.06,0-.04-.04-.07v.07Z"/>
  <path class="cls-1" d="M21.84,13.4c-.03-.06,0-.04-.04-.07v.07h.04Z"/>
  <path class="cls-1" d="M21.99,13.33h-.08s0,.01.08.04v-.04Z"/>
  <path class="cls-1" d="M30.8,13.4h.04c-.03-.06,0-.04-.04-.07v.07Z"/>
  <path class="cls-1" d="M12.59,13.36v.07h.04c-.03-.06-.01-.04-.04-.07"/>
  <path class="cls-1" d="M39.69,13.58h-.08s-.04.02-.11.04v.07c.06-.01.13-.02.19-.04v-.07Z"/>
  <path class="cls-1" d="M39.38,13.83h.12c-.03-.1-.04-.14-.04-.18v-.03h-.12c0,.08,0,.1.04.14v.07Z"/>
  <path class="cls-1" d="M29.15,13.76h.04c-.04-.09-.01-.06-.08-.11.03.06,0,.04.04.07v.04Z"/>
  <path class="cls-1" d="M12.25,13.58s.03-.03.04-.04h-.08c.02.06,0,.04.04.07v-.03Z"/>
  <path class="cls-1" d="M29.03,13.83c.07-.02.04,0,.08-.04h.04c-.06-.05-.12-.06-.23-.07,0,.13.02,0,.12.11"/>
  <path class="cls-1" d="M20.18,13.8s.03-.02.04-.03h-.08c.03.06,0,.03.04.07v-.04Z"/>
  <path class="cls-1" d="M22.76,13.83c-.03-.06,0-.04-.04-.07v.07h.04Z"/>
  <path class="cls-1" d="M40.42,13.91h-.08s0,.01.08.04v-.04Z"/>
  <rect class="cls-1" x="16.95" y="14.09" width=".08" height=".07"/>
  <path class="cls-1" d="M22.95,14.09h-.08s0,.01.08.04v-.04Z"/>
  <path class="cls-1" d="M40.89,14.09h-.08s0,.01.08.04v-.04Z"/>
  <path class="cls-1" d="M31.42,14.12h-.08s0,.01.08.04v-.04Z"/>
  <path class="cls-1" d="M32.34,14.12s.01.01.08.04v-.04h-.08Z"/>
  <path class="cls-1" d="M41.35,14.48c-.02-.06,0-.04-.04-.07v.07h.04Z"/>
  <path class="cls-1" d="M10.38,14.51v.07h.04c-.03-.06,0-.04-.04-.07"/>
  <path class="cls-1" d="M22.42,14.73h.04c-.03-.06,0-.04-.04-.07v.07Z"/>
  <path class="cls-1" d="M22.72,14.95s.03.02.04.04c.01-.01.03-.02.04-.04-.05-.09.01-.04-.11-.07.02.06,0,.04.04.07"/>
  <path class="cls-1" d="M9.82,15.02v.07h.04c-.03-.06,0-.03-.04-.07"/>
  <path class="cls-1" d="M27.77,14.99s0,.01.08.04v-.04h-.08Z"/>
  <path class="cls-1" d="M15.3,15.2c-.03-.08-.01-.06-.08-.11.02.06,0,.03.04.07v.04h.04Z"/>
  <rect class="cls-1" x="14.95" y="15.2" width=".08" height=".07"/>
  <path class="cls-1" d="M23.84,15.24s.03.02.12.04c-.04-.03-.04-.03-.12-.04"/>
  <path class="cls-1" d="M14.91,15.35h.04c-.03-.06,0-.04-.04-.07v.07Z"/>
  <path class="cls-1" d="M26.99,15.45h.04c-.03-.06,0-.04-.04-.07v.07Z"/>
  <path class="cls-1" d="M24.11,16v.07h.11c-.05-.09.01-.04-.11-.07"/>
  <path class="cls-1" d="M26.11,16h-.08s.01.01.08.03v-.03Z"/>
  <path class="cls-1" d="M36.54,16s.01.01.08.03v-.03h-.08Z"/>
  <path class="cls-1" d="M8.62,16.13h-.08s0,.01.08.04v-.04Z"/>
  <path class="cls-1" d="M8.47,16.24c-.05.09.02.02-.08.07v.04h.15c-.03-.08-.01-.06-.08-.11"/>
  <path class="cls-1" d="M8.35,16.42c-.01-.11-.01-.06,0-.14h-.08c-.06.15-.03.09.08.14"/>
  <path class="cls-1" d="M8.47,16.53h.08c-.02-.08,0-.07-.04-.11-.02.06,0,.04-.04.07v.04Z"/>
  <rect class="cls-1" x="36.88" y="16.64" width=".08" height=".07"/>
  <path class="cls-1" d="M7.7,16.87v.07h.04c-.02-.06,0-.04-.04-.07"/>
  <path class="cls-1" d="M28.11,18.16v.07c-.08.07-.08.01-.12.11-.02.04.04.24.08.29.05,0,.05,0,.12-.07.17.07.18.19.23.32.07-.04.11-.12.15-.07.13.03.09.04.19.07-.04.04-.07.05-.12.07v.14c.25-.08.42-.2.58-.11.01-.01.03-.02.04-.04-.03-.08-.01-.06-.08-.11.17-.1.17.05.19-.25.04.01.08.02.11.04v-.04s0-.07,0-.18h.12c0-.16-.02-.1.04-.21-.06-.05-.1-.1-.16-.15-.09.02-.1.03-.15.07h-.04s.03-.02.04-.04c.05-.13.18-.16.31-.21.01-.02.03-.05.04-.07-.03-.01-.05-.02-.08-.04v.04c-.1-.03,0-.01-.08-.07.04-.12,0-.07.12-.07-.05-.15-.18-.15-.12-.29-.06-.11-.05-.02-.12-.07h-.08s.04-.02.12-.03c-.04-.04-.08-.07-.12-.11.06-.04,0,0,.12,0-.01-.03-.03-.05-.04-.07-.08-.02-.2-.02-.35-.04-.06-.1.04-.06-.08-.11-.09-.02-.06-.02-.12.07-.12-.06-.02-.05-.08-.11,0,0-.52.17-.54.18-.16.21.04.32-.23.33.06.09.11.17.23.22-.02.06,0,.04-.04.07-.02.02-.11.04-.19.07.08.09.01.04.12.04-.04.1-.08.14-.19.18.06.09,0,.04.12.07-.04.03-.04.02-.12.03.05.04.07.05.16.07"/>
  <path class="cls-1" d="M7.51,17.23c.04-.06-.03-.06-.04-.07-.08,0,0,.06.04.07"/>
  <path class="cls-1" d="M28.11,17.65c-.02-.08-.04-.13-.08-.18,0,.09,0,.1.04.14v.04h.04Z"/>
  <path class="cls-1" d="M6.89,17.68v.11h.08s-.04-.07-.08-.11"/>
  <path class="cls-1" d="M29.69,17.69h-.08s0,.01.08.04v-.04Z"/>
  <path class="cls-1" d="M6.85,17.97v.07h.04c-.03-.06,0-.04-.04-.07"/>
  <path class="cls-1" d="M13.41,18.23s-.04-.02-.12-.04c.07.05.02.08.12.04"/>
  <path class="cls-1" d="M37.57,18.44h-.08c0,.1-.03.05.08.07v-.07Z"/>
  <path class="cls-1" d="M37.38,18.52s0,.01.08.03v-.03h-.08Z"/>
  <path class="cls-1" d="M21.53,19.81s-.03-.07-.04-.11c-.03-.01-.05-.02-.08-.04-.02.09-.01.02,0,.11-.06-.02-.04,0-.08-.04-.05-.04.03-.1.08-.15.01-.29-.31-.46-.46-.43-.02-.06-.03-.06-.04-.14-.13-.03-.09-.05-.23-.07v-.11c-.26.03-.2.07-.38-.07-.03.09-.01.02,0,.11-.16,0-.1.04-.19-.03-.15.03-.12.12-.19.18-.05.03-.04,0-.15,0,.05.08.1.08.19.11-.12.13-.19.36-.27.4.01.07,0,.07.04.11v.07c.03.07.04-.07.04-.07h.07c-.03.1.02.06-.07.07.03.13.06.17-.04.25v.07h.08c.02-.05.03-.06.04-.14h.08c-.04.09-.04.09-.12.14.06.04.14.06.19.11.05.05.07.11,0,.18.09.07.15.07.23.07-.02.02-.05.05-.08.07v-.04h-.08c.03.15.05.15.19.18.05.03.14.02.19-.07.05.06.06.12.12.22.1,0,.14,0,.19.03.08-.01.07,0,.12-.03.03-.05,0-.06-.04-.14h.04c.03-.1.06.03.08.07.13-.07.21-.07.27-.11,0-.04.01-.02-.04-.04.04-.07,0-.02.08-.04.02-.13,0-.2.04-.25.06-.09,0-.04.11-.07.01-.12.04-.09-.04-.18.04-.03.03-.02.12-.04-.03-.1-.07-.08.04-.14"/>
  <path class="cls-1" d="M20.41,18.77v.07h.12c-.06-.09,0-.04-.12-.07"/>
  <path class="cls-1" d="M44.79,18.8c-.03-.06.08-.02.05-.06,0,.02-.09.04-.09.06h.04Z"/>
  <path class="cls-1" d="M25.03,20.17c-.07-.05-.03-.02.04-.07,0-.19.02-.22-.15-.25.04-.21.21-.49.04-.72-.06-.12-.08-.1-.19-.07-.02-.06-.03-.09-.04-.18-.06.05-.05.02-.08.11-.1-.03,0-.01-.08-.07-.06-.03-.17-.03-.27-.07-.02.05-.03.06-.04.15h-.15c.02.11.04.11.04.14v.07s-.02-.03-.04-.11h-.08c.02.13-.02.09.08.15-.03.07-.07.13-.12.18.03.02.09.05.12.07-.04.06,0,0,0,.07h-.15c0,.11.02.14,0,.18.03.13.04-.02.08.11h.04v.07c-.11-.04-.07,0-.12-.11h-.08c.03.06,0,.03.04.07.04.07.1.08.14.11h.01s0,0,0,.02c0,0-.01-.01-.02-.02h-.03v.14h.11c.03.16.04.24-.04.43.09.04.13.08.23.11v.03h-.08v.04c-.02.07-.04-.07-.04-.07h-.08c.01.13,0,.12.08.18-.02.13-.02.12-.11.18.01.01.03.02.04.03.04.06.08-.06.12-.11h.08c-.08.14-.14.19-.04.33v.07s.15,0,.08-.04c-.01-.01-.03-.03-.04-.04.06.03.1-.03.08.07h-.04c.04.12.04-.02.11.07.02.02,0,.14.08.11v-.07c.14.08.14-.02.23.04.12.07.12.16.23.07.03.04.03.03.04.11.03-.04.02-.04.04-.11.03.04.03.03.04.11h.08c.03-.08.01-.06.08-.11v-.11h-.16v-.04c.09-.02.15,0,.23-.04h.04s-.05.11-.08.14v.04c.11-.01.05-.09.11,0,.1-.05.07-.01.08-.14.13.06.16.05.31.07v-.04c.04-.06,0,0,0-.07.04-.01.08-.02.11-.03-.04.03,0,.01-.07.03v.04h.12c.02-.06,0-.04.04-.07-.04-.04-.08-.07-.12-.11.03-.02.05-.05.08-.07.03,0,.05-.02.07-.03v.03c.28-.06-.02-.15-.07-.25-.04-.07,0-.1-.04-.15v-.03s.05.02.08.03c.01-.07.01-.07.04-.11v-.04c-.12.02-.12.04-.12.04v.03c-.14-.08-.04-.1-.19-.18-.04-.02-.07-.03-.12,0-.13.05-.08.01-.08.11-.05-.03-.1.03-.08-.07h.04c-.07-.11-.05-.04-.15-.07-.06-.08-.03-.04-.12.03-.06-.07,0-.03,0-.11-.1-.13-.17-.04-.23-.25"/>
  <path class="cls-1" d="M29.03,19.06h.04c-.03-.06,0-.04-.04-.07v.07Z"/>
  <path class="cls-1" d="M21.34,19.2v.07c.07-.03.05-.01,0-.07"/>
  <path class="cls-1" d="M44.99,19.56h.04c-.02-.06,0-.04-.04-.07v.07Z"/>
  <path class="cls-1" d="M25.03,19.78h-.07s0,.01.07.04v-.04Z"/>
  <path class="cls-1" d="M45.24,20.1c-.05-.09.02-.03-.08-.07,0,.05.08.1.08.15h.04c.03-.06-.08-.04-.04-.07"/>
  <path class="cls-1" d="M19.99,20.17v-.04h-.08s0,.01.08.04"/>
  <rect class="cls-1" x="19.92" y="20.35" width=".08" height=".07"/>
  <path class="cls-1" d="M37.5,20.42s.03-.02.04-.04h-.08c.02.06,0,.03.04.07v-.04Z"/>
  <path class="cls-1" d="M5.6,20.5v-.04s-.08-.02-.12-.04c.05.06.02.04.12.07"/>
  <path class="cls-1" d="M45.36,20.5v-.04h-.08s.01.01.08.04"/>
  <path class="cls-1" d="M13.18,20.68s-.03-.02-.11-.04c.04.03.03.02.11.04"/>
  <path class="cls-1" d="M13.49,21.58h-.08c.06.04.03.06.08,0"/>
  <path class="cls-1" d="M24.84,21.69h.04c-.02-.06,0-.04-.04-.07v.07Z"/>
  <path class="cls-1" d="M37.12,22.16c.04-.06-.03-.1-.04-.11.04.05-.06.04.04.11"/>
  <path class="cls-1" d="M4.91,22.26h-.08c.06.04.03.06.08,0"/>
  <path class="cls-1" d="M27.23,22.8s.05.05.08.07h.04c-.06-.09.01-.04-.11-.07"/>
  <path class="cls-1" d="M25.95,23.77s-.1-.07-.19-.11c-.02.09-.01.02,0,.11-.16,0-.22-.02-.35.07-.04-.04-.08-.07-.12-.11-.04-.09-.11,0-.16.11h-.04v-.18c-.1.01-.2.03-.31.04.04.03.01.01.08.03v.11h-.04c-.03-.07-.05-.1-.08-.18-.13.03-.25.03-.27.04-.1.06-.04,0-.04.11h-.08c.02-.07,0-.07.04-.11v-.11c-.1.05-.05,0-.08.11-.1-.07-.21-.15-.31-.22-.07.16-.11.18-.31.22,0,.26.07.2.08.5,0,0,.15,0,.07-.04-.01,0-.02-.02-.04-.03.1.02.03,0,.15,0-.09.13-.05.15.04.29.09-.03.17-.06.23-.11.03.04.02,0,.04.07h.04s-.05.05-.08.07c.05.1.04.05.04.14.21,0,.42.04.5-.03.13.06.1.11.27.14v-.11c.25.1.96-.02,1.04-.07.11-.06.02-.11.12-.18v-.04s.05.05.08.07c0,0,.15,0,.08-.04-.01-.01-.02-.02-.04-.04.09.02.17.03.23-.07.03.04.02.03.04.11.03-.05.03-.09.04-.18.14.04.22-.02.31.07.08-.08.1-.18.19-.25-.02-.12-.04-.15-.11-.22v-.07c.07.04.05.03.08.03.22,0,.19-.01.19.11h.11c-.02-.09-.02-.15-.04-.18v-.04s.05.02.08.04v-.04h.04s-.02.05-.04.07c.05-.01.1-.03.16-.04-.06-.13-.01-.19-.04-.28h0s0-.01,0-.01c0-.02-.02-.04-.04-.07.06-.01.13-.02.19-.04-.08-.09-.15-.19-.23-.29h-.08c.08-.04.05-.01.16,0-.01-.01-.03-.02-.04-.04-.03-.06,0-.04-.04-.07-.14.09-.37.07-.58.07.04.03,0,.01.08.04v.04c-.11.04-.08.06-.23.07.07.14.11.11.27.11-.04.11-.04.11-.16.14v.07h-.04c-.02-.07.02-.05.04-.07-.05-.08-.07-.07-.15-.11-.01-.01-.03-.03-.04-.04v.04c-.1.05-.14.12-.23.18.03.04.04.07.08.11-.04.03-.08.07-.12.11-.06,0-.08.01-.12-.11-.14.05-.26.18-.35.25"/>
  <path class="cls-1" d="M45.27,23.09h.04c-.02-.06,0-.04-.04-.07v.07Z"/>
  <path class="cls-1" d="M27.77,23.13h-.08s0,.01.08.04v-.04Z"/>
  <path class="cls-1" d="M4.56,23.27v.11h.08c-.03-.08-.01-.06-.08-.11"/>
  <rect class="cls-1" x="45.08" y="23.31" width=".08" height=".07"/>
  <path class="cls-1" d="M45.16,23.49c.07-.02.04,0,.08-.04h-.04s.03-.05.04-.07h-.08v.11Z"/>
  <path class="cls-1" d="M26.42,23.49h-.08s.01.01.08.04v-.04Z"/>
  <path class="cls-1" d="M45.16,23.7s.02.02.04.04h.04c-.03-.11-.06-.11-.08-.25h-.08c.02.11.04.13.08.22"/>
  <path class="cls-1" d="M25.92,23.52c-.03.08-.01.06-.08.11.01.01.02.02.04.04.04.04.04,0,.12.04-.02-.11-.02-.12-.08-.18"/>
  <path class="cls-1" d="M45.31,23.63s-.04-.08-.08-.11c0,.1-.05.05.08.11"/>
  <path class="cls-1" d="M25.57,23.74h.04c-.03-.06,0-.04-.04-.07v.07Z"/>
  <path class="cls-1" d="M25.73,23.67h-.08s0,.01.08.04v-.04Z"/>
  <path class="cls-1" d="M36.84,23.77v-.04h-.08s0,.01.08.04"/>
  <path class="cls-1" d="M27.23,24.1v-.04h-.08s.01.01.08.04"/>
  <path class="cls-1" d="M14.91,24.35s.02.02.04.04h.04v-.11s-.08-.02-.12-.03c.01.03.03.07.04.11"/>
  <path class="cls-1" d="M24.22,24.5h-.07s0,.01.07.04v-.04Z"/>
  <path class="cls-1" d="M45.23,24.64v-.04h-.08s0,.01.08.04"/>
  <path class="cls-1" d="M35.38,24.78v.11h.04c-.01-.07,0-.07-.04-.11"/>
  <path class="cls-1" d="M4.56,25.29s.01.01.08.04v-.04h-.08Z"/>
  <path class="cls-1" d="M15.87,25.36v-.04h-.08s0,.01.08.04"/>
  <path class="cls-1" d="M34.92,25.43h-.08s0,.01.08.04v-.04Z"/>
  <path class="cls-1" d="M33.92,26.33h.04c-.02-.06,0-.04-.04-.07v.07Z"/>
  <path class="cls-1" d="M17.26,26.44c-.03-.06,0-.04-.04-.07v.07h.04Z"/>
  <path class="cls-1" d="M32.8,27.12c-.08,0,0,.06.04.07.04-.05-.03-.06-.04-.07"/>
  <path class="cls-1" d="M19.07,27.77c-.02-.06,0-.04-.04-.07v.07h.04Z"/>
  <path class="cls-1" d="M19.49,27.84s.03.1.04.14h.12c-.05-.1-.06-.1-.16-.14"/>
  <path class="cls-1" d="M30.11,28.71s0,.01.08.04v-.04h-.08Z"/>
  <path class="cls-1" d="M29.46,29.1v.07s.02-.02.04-.04c.1-.05.1-.09.12-.21h-.12c0,.09,0,.13-.04.18"/>
  <path class="cls-1" d="M29.34,29.32c0-.16.01-.17-.12-.22-.07.11-.03.11-.15.18.01.04.03.07.04.11.14-.01.14-.03.23-.07"/>
  <path class="cls-1" d="M29.38,29.21h.04c-.03-.12.02-.06-.07-.11.01.03.03.07.04.11"/>
  <path class="cls-1" d="M22.42,29.36c.07-.04.04-.01,0-.07v.07Z"/>
  <path class="cls-1" d="M27.3,29.39h.04c-.02-.06,0-.04-.04-.07v.07Z"/>
  <path class="cls-1" d="M25.15,29.54c-.02-.06,0-.04-.04-.07v.07h.04Z"/>
  <path class="cls-1" d="M43.65,30.04h.04c.02-.08.04-.04,0-.11-.01.04-.02.07-.04.11"/>
  <path class="cls-1" d="M23.3,30.11c.04-.05-.02-.06-.04-.07-.08,0,0,.05.04.07"/>
  <path class="cls-1" d="M5.83,30.15v-.04h-.08s0,.01.08.04"/>
  <path class="cls-1" d="M6.06,30.22c.07-.04.04-.01,0-.07v.07Z"/>
  <path class="cls-1" d="M6.22,30.19c-.03.06,0,.04-.04.07.01.04.03.07.04.11.09,0,.11,0,.15-.03h.04c-.05-.12-.04-.12-.19-.14"/>
  <path class="cls-1" d="M25.42,30.29h-.08s0,.01.08.04v-.04Z"/>
  <path class="cls-1" d="M6.25,30.51s.03-.02.04-.03c-.06-.02-.06-.03-.15-.04.05.07,0,.14.12.07"/>
  <path class="cls-1" d="M43.31,30.65c-.08,0,0,.06.04.07.03-.05-.03-.06-.04-.07"/>
  <path class="cls-1" d="M24.65,30.94v-.04h-.08s0,.01.08.04"/>
  <path class="cls-1" d="M17.76,30.94v.07h.04c-.03-.06,0-.04-.04-.07"/>
  <path class="cls-1" d="M26.34,31.05h-.08s.01.01.08.04v-.04Z"/>
  <path class="cls-1" d="M19.14,31.12v.07c.07-.03.04-.01,0-.07"/>
  <path class="cls-1" d="M17.91,31.3v-.04h-.08s0,.01.08.04"/>
  <path class="cls-1" d="M20.72,31.27h-.08c-.04.07-.11.12,0,.18,0,0,.08-.14.08-.18"/>
  <path class="cls-1" d="M19.68,31.37s.03-.03.04-.04h-.07s0,.04.04.04"/>
  <path class="cls-1" d="M42.77,31.45v-.04h-.08s0,.01.08.04"/>
  <path class="cls-1" d="M19.92,31.55h.04c-.03-.06,0-.04-.04-.07v.07Z"/>
  <path class="cls-1" d="M42.73,31.55h.04c-.02-.06,0-.04-.04-.07v.07Z"/>
  <path class="cls-1" d="M20.49,31.77h.08s.02-.07.04-.11h-.08s-.03.07-.04.11"/>
  <path class="cls-1" d="M21.15,31.99v.07c.07-.02.04,0,.08-.04h.04s-.04-.02-.12-.04"/>
  <path class="cls-1" d="M22.42,32.35v-.04h.08v-.03h-.15c.03.05-.03.09.08.07"/>
  <path class="cls-1" d="M26,32.35c-.02-.06,0-.04-.04-.07v.07h.04Z"/>
  <path class="cls-1" d="M42.42,32.31v-.03h-.08s.01.01.08.03"/>
  <path class="cls-1" d="M24.92,32.38c-.02-.06,0-.03-.04-.07v.07h.04Z"/>
  <path class="cls-1" d="M42.27,32.42h.04c.02-.08.03-.04,0-.11-.01.04-.02.07-.04.11"/>
  <path class="cls-1" d="M25.07,32.42h.04c-.02-.06,0-.04-.04-.07v.07Z"/>
  <path class="cls-1" d="M26.65,32.35h-.08s0,.01.08.04v-.04Z"/>
  <path class="cls-1" d="M25.42,32.42h-.08s0,.01.08.04v-.04Z"/>
  <path class="cls-1" d="M30.19,32.56c-.05.05-.03.1.08.07-.03-.03-.05-.05-.08-.07"/>
  <path class="cls-1" d="M29.88,32.67h.04c-.02-.06,0-.04-.04-.07v.07Z"/>
  <path class="cls-1" d="M30.38,32.78s-.03.07-.04.11h.04c.02-.08.03-.04,0-.11"/>
  <path class="cls-1" d="M41.69,32.81c-.01.06-.02.12-.04.18.14.02.13.02.19.11h.04c-.03-.16-.09-.13-.12-.29h-.08Z"/>
  <path class="cls-1" d="M7.76,32.96v-.07h-.08c0,.1-.03.05.08.07"/>
  <path class="cls-1" d="M21.41,33.35s-.07-.1-.11-.14c-.05.09.02.03-.08.07.01.02.02.05.04.07h.15Z"/>
  <path class="cls-1" d="M25.07,33.68c.07-.02.04,0,.08-.04h.04c.02-.07-.02-.05-.04-.07-.04.03,0,.01-.08.03v.07Z"/>
  <path class="cls-1" d="M24.42,33.68v-.04s-.08-.02-.12-.04c.05.06.02.04.12.07"/>
  <path class="cls-1" d="M26.26,33.72v-.04h-.08s0,.01.08.04"/>
  <path class="cls-1" d="M27.23,33.82v.07h.04c-.03-.06,0-.04-.04-.07"/>
  <path class="cls-1" d="M27.84,33.86s-.03-.02-.12-.04c.07.05.02.09.12.04"/>
  <path class="cls-1" d="M27.53,33.97h.15v-.03c-.07-.02-.13-.05-.19-.07.01.04.03.07.04.11"/>
  <path class="cls-1" d="M28.11,33.9h-.08s0,.01.08.04v-.04Z"/>
  <rect class="cls-1" x="27.69" y="34" width=".08" height=".07"/>
  <path class="cls-1" d="M27.69,34.26s.03-.02.04-.04c.07-.03.04-.01,0-.07-.01.04-.02.07-.04.11"/>
  <path class="cls-1" d="M22.91,34.22s.01.01.08.04v-.04h-.08Z"/>
  <path class="cls-1" d="M23.03,34.33c-.03-.06,0-.03-.04-.07v.07h.04Z"/>
  <path class="cls-1" d="M40.58,34.54h.04c-.01-.07,0-.07-.04-.11v.11Z"/>
  <path class="cls-1" d="M10.07,35.41c.07-.03.04-.01,0-.07v.07Z"/>
  <path class="cls-1" d="M25.88,35.37v.07c.07-.03.04-.01,0-.07"/>
  <path class="cls-1" d="M10.76,35.7s-.04-.07-.08-.11c0,.1-.05.05.08.11"/>
  <path class="cls-1" d="M26.38,35.62s-.02.07-.04.11h.04c.02-.08.03-.04,0-.11"/>
  <path class="cls-1" d="M10.76,35.84v-.04h-.08s0,.01.08.04"/>
  <path class="cls-1" d="M19.57,35.88h-.08s.01.01.08.03v-.03Z"/>
  <path class="cls-1" d="M18.64,36.02s-.03.13.04.11c-.03-.07.06-.03-.04-.11"/>
  <path class="cls-1" d="M25.61,36.31s-.03-.02-.11-.04c.07.05.02.09.11.04"/>
  <path class="cls-1" d="M38.73,36.38c-.03-.12.02-.06-.08-.11.01.04.03.07.04.11h.04Z"/>
  <path class="cls-1" d="M22.53,36.6v.11h.08c-.03-.12.02-.06-.08-.11"/>
  <path class="cls-1" d="M27.88,36.71s0,.01.08.03v-.03h-.08Z"/>
  <path class="cls-1" d="M38.08,36.74c-.08,0,0,.05.04.07.04-.05-.02-.06-.04-.07"/>
  <path class="cls-1" d="M12.53,36.88h.04c-.02-.06,0-.04-.04-.07v.07Z"/>
  <rect class="cls-1" x="12.61" y="36.85" width=".08" height=".07"/>
  <path class="cls-1" d="M37.65,37.21h.08c.02-.06,0-.04.04-.07v-.04h-.15s.03.07.04.11"/>
  <path class="cls-1" d="M28.84,37.35h.04c-.01-.07,0-.07-.04-.11v.11Z"/>
  <path class="cls-1" d="M37.19,37.32c-.02.06,0,.04-.04.07.06.09-.01.04.11.07-.02-.08,0-.07-.04-.11-.01-.01-.03-.02-.04-.04"/>
  <path class="cls-1" d="M37.38,37.39h-.08c.06.05.03.06.08,0"/>
  <path class="cls-1" d="M37.19,37.57v-.04s.03-.02.04-.04h-.07c.02.06,0,.04.04.07"/>
  <path class="cls-1" d="M26.49,37.64s-.04-.02-.12-.04c.04.03.04.02.12.04"/>
  <path class="cls-1" d="M22.49,37.82s.05-.05.08-.07h.08s-.04-.02-.11-.04c-.01.04-.03.07-.04.11"/>
  <path class="cls-1" d="M25.84,37.71h-.08s0,.01.08.04v-.04Z"/>
  <path class="cls-1" d="M22.84,37.78h-.08s0,.01.08.04v-.04Z"/>
  <path class="cls-1" d="M30.27,37.78h-.08s0,.01.08.04v-.04Z"/>
  <path class="cls-1" d="M22.69,37.86s-.08-.02-.12-.03c-.01.03-.03.07-.04.11.06-.02.06-.03.15-.04v-.04Z"/>
  <path class="cls-1" d="M36.69,37.93h.04c.02-.08.03-.04,0-.11-.01.03-.03.07-.04.11"/>
  <path class="cls-1" d="M30.34,37.86s-.02.07-.04.11h.12c-.03-.09-.01-.06-.08-.11"/>
  <path class="cls-1" d="M23.8,37.97c-.03-.06,0-.04-.04-.07v.07h.04Z"/>
  <path class="cls-1" d="M24.49,38.07h.04c-.02-.06,0-.04-.04-.07v.07Z"/>
  <path class="cls-1" d="M24.76,38.07h-.19c-.02.08-.04.16-.08.22v.04c.17-.06.09-.08.27-.07v-.18Z"/>
  <path class="cls-1" d="M36.23,38.18c.11-.07.02-.04.19-.04v-.03c-.06-.02-.09-.03-.19-.04v.11Z"/>
  <path class="cls-1" d="M22.8,38.25s-.03-.02-.11-.04v.07c.07-.02.04,0,.08-.04h.04Z"/>
  <path class="cls-1" d="M36.19,38.32h.04c-.03-.06,0-.03-.04-.07v.07Z"/>
  <path class="cls-1" d="M24.57,38.4v-.04h-.08s.01.01.08.04"/>
  <path class="cls-1" d="M23.38,38.58c-.03-.06-.05-.12-.08-.18-.09.01-.09.02-.15.04,0,0,0,.14.04.07.06.1.14.11.31.11v-.14s-.02.03-.04.11h-.08Z"/>
  <path class="cls-1" d="M22.95,38.54v.07c.14-.03.16-.02.08-.11-.04.03-.01.01-.08.04"/>
  <path class="cls-1" d="M16.49,38.65h-.08c.06.04.03.06.08,0"/>
  <path class="cls-1" d="M16.64,38.76s-.04-.07-.08-.11c0,.1-.05.06.08.11"/>
  <path class="cls-1" d="M29.96,38.72h-.07s0,.01.07.04v-.04Z"/>
  <path class="cls-1" d="M29.46,38.87v.07h.04c-.02-.06,0-.03-.04-.07"/>
  <path class="cls-1" d="M35.23,39.01c-.04-.11-.04-.11-.15-.14-.07.11-.12.28-.27.4.03.08.04.08.08.14.09,0,.11,0,.16-.04-.06-.04.01-.04-.08-.11.01-.08,0-.1.04-.15v-.04c.05.06,0,.06.04.11.05.03.04,0,.15,0-.03-.1-.07-.12.04-.18"/>
  <path class="cls-1" d="M29.42,39.01s.03-.02.04-.04c-.06-.01-.13-.02-.19-.04.07.12.05.07.15.11v-.04Z"/>
  <path class="cls-1" d="M26.34,39.01v-.04h-.08s.01.01.08.04"/>
  <path class="cls-1" d="M27.3,39.08s.04.02.11.04c-.04-.03-.03-.02-.11-.04"/>
  <path class="cls-1" d="M17.11,39.19h.04c-.03-.06,0-.04-.04-.07v.07Z"/>
  <rect class="cls-1" x="23.49" y="39.19" width=".08" height=".07"/>
  <path class="cls-1" d="M26.99,39.26c.06-.02.04,0,.08-.04-.05-.01-.1-.02-.15-.04-.02.09,0,.03,0,.15.09-.05.02.02.08-.07"/>
  <path class="cls-1" d="M35.15,39.44h.04c-.02-.06,0-.04-.04-.07v.07Z"/>
  <path class="cls-1" d="M34.96,39.48s.08.07.12.11h.04c-.01-.08-.01-.1-.04-.14-.04.03-.04.02-.12.04"/>
  <path class="cls-1" d="M34.84,39.59v.11c.07-.02.04,0,.08-.04h-.04s.03-.05.04-.07h-.08Z"/>
  <path class="cls-1" d="M34.77,39.77h.04c-.02-.06,0-.03-.04-.07v.07Z"/>
  <path class="cls-1" d="M21.72,39.8h-.08c.06.04.03.06.08,0"/>
  <path class="cls-1" d="M34.69,39.91h.08s-.04-.07-.08-.11v.11Z"/>
  <path class="cls-1" d="M18.49,39.91v-.04h-.08s0,.01.08.04"/>
  <path class="cls-1" d="M34.42,40.09c.07-.02.04,0,.08-.04.01-.01.02-.02.04-.03h-.04c.02-.07,0-.04.04-.07.05.09.04-.02.08.07.03-.04.02-.04.04-.11-.1,0-.14,0-.19-.04-.05.07-.02.06-.08.15.03.03.02,0,.04.07"/>
  <path class="cls-1" d="M34.07,40.23s.02.07.04.11h.04c-.03-.11.02-.05-.08-.11"/>
  <path class="cls-1" d="M21.95,40.31s-.03.07-.04.11c.05.04.08.09.12.15h.08s.05-.1.08-.15c.03-.05-.02-.01,0-.11-.09.05-.07.04-.08.18-.07-.02-.04,0-.08-.03-.03-.05,0-.04,0-.14h-.08Z"/>
  <path class="cls-1" d="M22.57,40.67h-.08c.06.04.03.06.08,0"/>
  <path class="cls-1" d="M25.65,40.96v.22h.08c.03-.1.05-.08.08-.18.03-.06.02-.15-.04-.22-.02.13-.03.12-.12.18"/>
  <path class="cls-1" d="M22.61,40.88c.04-.05-.03-.06-.04-.07-.08,0,0,.06.04.07"/>
  <path class="cls-1" d="M24.61,40.81h-.15c0,.08,0,.1.04.14.02.06,0,.03.04.07.02-.01.03-.02.04-.03.05-.07.02-.03.08.03h.04c-.02-.07-.05-.14-.08-.21"/>
  <path class="cls-1" d="M19.95,40.88s0,.01-.08.04v.07c.09-.02.04-.03.12,0h.04c-.03-.09-.02-.06-.08-.11"/>
  <path class="cls-1" d="M20.14,41.1v-.03h-.08s0,.01.08.03"/>
  <path class="cls-1" d="M22.72,41.21s-.03-.02-.04-.04c-.05-.09.02-.03-.08-.07.02.06,0,.04.04.07v.04h.08Z"/>
  <path class="cls-1" d="M24.65,41.13v-.04h-.08s0,.01.08.04"/>
  <path class="cls-1" d="M24.68,41.21c-.08,0,0,.05.04.07.04-.05-.02-.06-.04-.07"/>
  <path class="cls-1" d="M25.57,41.31h-.08s.01.01.08.04v-.04Z"/>
  <path class="cls-1" d="M31.34,41.53c.07-.02.04,0,.08-.04h.04s-.04-.02-.12-.03v.07Z"/>
  <path class="cls-1" d="M22.95,41.75h.08c0-.08,0-.1-.04-.14-.03.06,0,.04-.04.07v.07Z"/>
  <path class="cls-1" d="M31.27,41.6h-.08c.06.04.03.06.08,0"/>
  <path class="cls-1" d="M21.03,41.71v.11c.07-.03.04,0,.08-.04,0-.03,0-.02-.08-.07"/>
  <path class="cls-1" d="M23.11,41.82c.04-.05-.02-.06-.04-.07-.08,0,0,.05.04.07"/>
  <path class="cls-1" d="M25.11,41.75h-.08c.06.05.03.06.08,0"/>
  <path class="cls-1" d="M30.65,41.85h.04c-.02-.06,0-.03-.04-.07v.07Z"/>
  <path class="cls-1" d="M23.22,42.14h-.08c.06.04.03.06.08,0"/>
  <path class="cls-1" d="M23.42,43.01c.1-.27-.03-.25-.12-.47,0-.03,0-.02.08-.07v-.07s-.05.05-.08.07c-.09-.06-.04,0-.08-.11-.04.05-.09.16-.12.22-.09.01-.18.03-.27.03.01-.11.02-.18.04-.21.01-.03.02-.05.04-.07.16.06.09.12.23.04h.04c-.12-.21-.25-.07-.5-.04v-.11s.02.03.04.07c.18-.08.25-.22.46-.25-.01-.07,0-.07-.04-.11-.05-.08-.2-.16-.31-.18-.01.21-.09.31-.23.4.03.04.06.05.07.07-.06-.02-.04,0-.07-.03-.13.14-.16.35-.31.47v.18c.06-.02.07-.02.16-.04.01.08,0,.07.04.11.01.04.02.07.04.11.13-.03.06.02.11-.07.12.04.01.02.08.11.08-.1.3.05.31.11.04.01.08.03.12.04.07-.1.13-.1.15-.25.04.02.08.05.12.07"/>
  <path class="cls-1" d="M25.42,42.54s-.03.07-.04.11h.04c.02-.08.03-.04,0-.11"/>
  <path class="cls-1" d="M29.61,42.61c.07-.03.04,0,0-.07v.07Z"/>
  <path class="cls-1" d="M29.46,42.76h-.08c.06.04.03.06.08,0"/>
  <path class="cls-1" d="M29.19,42.79c-.26.07-.1.21-.27.29v.04c.08-.02.08,0,.12-.04.03-.04.02-.03.04-.11h.12c.02-.13.02-.04.08-.11h.04v-.07c-.09.02-.04.03-.11,0"/>
  <path class="cls-1" d="M25.57,42.9h-.08c.06.04.03.06.08,0"/>
  <path class="cls-1" d="M23.49,43.44c-.02-.26-.12-.28.04-.43v-.03c-.17.06-.19.19-.35.25.03.09.03.15.04.22.09.02.03,0,.15,0-.03.03-.05.05-.08.07.04.03.04.02.12.04v.18s.02-.03.04-.11c.04.04.08.07.12.11h.04c.04-.15.06-.21.12-.29-.12-.03-.13-.03-.23,0"/>
  <path class="cls-1" d="M27.88,44.02v-.04h-.08s0,.01.08.04"/>
  <path class="cls-1" d="M27.77,44.16s-.04-.02-.12-.04c.04.03.03.02.12.04"/>
  <path class="cls-1" d="M27.53,44.38s.03-.02.04-.04c.07-.07.06-.03.04-.11-.04.06-.05.06-.08.14"/>
  <path class="cls-1" d="M11.92,13.85s.06-.03.09-.05c0,0,0,0,0-.01-.02,0-.11.05-.1.06"/>
</svg>