<svg xmlns="http://www.w3.org/2000/svg" width="90" height="100" viewBox="0 0 90 100">
  <defs>
    <style>
      .cls-1 {
        fill: #fff;
      }
    </style>
  </defs>
  <g id="圖層_1" data-name="圖層 1">
    <g>
      <g>
        <path class="cls-1" d="M73.1,56.32h0L26.3,29.81a1.56,1.56,0,0,0-.66-.21c-.43,0-.49.56-.49.9v3.89A4.74,4.74,0,0,0,27.25,38L64.14,58.91a4.76,4.76,0,0,1,2.11,5.46s-.13.36-.75,1.91a49.91,49.91,0,0,1-8.8,14.44c-3.57,4-10.8,8.69-11.62,9.21a6.21,6.21,0,0,1-6.08,0c-1.35-.86-8.16-5.33-11.6-9.21C22.36,75,18.66,66,18.25,65A9.05,9.05,0,0,0,15,61.22L9.86,58.34a1.67,1.67,0,0,0-.56-.22,1.63,1.63,0,0,0,0,.61,75.64,75.64,0,0,0,3.09,10.06,56.64,56.64,0,0,0,10,16.36C27,90.3,37.75,96.78,38.2,97.05c1.46.88,2.93,1.71,3.36,1.9a2.16,2.16,0,0,0,1,0l.9-.48c.69-.38,1.6-.91,2.46-1.42.45-.27,11.23-6.76,15.76-11.9A57.58,57.58,0,0,0,73,65.23c.5-1.5,1-3,1.34-4.48l.36-1.39A3.22,3.22,0,0,0,73.1,56.32Z"/>
        <polygon class="cls-1" points="42.06 18.94 36.93 22.23 47.63 22.23 42.06 18.94"/>
        <path class="cls-1" d="M76.59,21.15a3.42,3.42,0,0,0-.84-2.55c-.84-.26-2.8-1-4.34-1.67-.48-.2-11.79-5-17.65-8.49-3-1.8-5.51-3.44-7.09-4.5-.86-.58-1.54-1-2-1.37L44,2.09l-1.27-.94A1.28,1.28,0,0,0,42.05,1H41.9a1.16,1.16,0,0,0-.56.19l-.65.47-.68.5c-.12.09-4.25,3.09-10.23,6.63C24.17,12.1,13.84,16.46,12.68,17c-1.41.59-3.43,1.37-4.35,1.66a3.42,3.42,0,0,0-.82,2.54V36.79c0,1.73,0,3.69-.08,4.44v2.2A3.52,3.52,0,0,0,9.1,45.79l4.71,2.66L52.42,70.32a1.46,1.46,0,0,0,.66.22c.43,0,.49-.57.49-.9v-3.9a4.74,4.74,0,0,0-2.11-3.63L17.22,42.72c-3.11-1.87-3.09-3.67-3.07-5.25V27.41a6,6,0,0,1,3.29-5.11c1.88-.85,11.33-5.16,16.3-8.12,3.34-2,5.26-3.29,5.27-3.3a6,6,0,0,1,6.06,0s2,1.31,5.29,3.31c5.11,3.05,15.15,7.61,16.28,8.11A6,6,0,0,1,70,27.41v9.7c0,1.42,0,2.9,0,3.09a4.34,4.34,0,0,0,2.17,3.45l3.19,1.8a1.38,1.38,0,0,0,.67.22c.51,0,.62-.6.64-1s0-1,0-2.09V41.18c0-.72-.07-2.69-.07-4.39Z"/>
      </g>
      <g>
        <path class="cls-1" d="M17.67,40.53c.18.13.37.26.6.4L52.49,60.3a6,6,0,0,1,1.39,1.15,6.83,6.83,0,0,1,1.77,4.29v3.9a3.38,3.38,0,0,1-.47,1.79l0,.07H58c.86,0,1.46-.69,1.46-1.86v-3.9a5.69,5.69,0,0,0-2.6-4.47L22.63,41.88c-2.82-1.71-2.57-3.12-2.57-4.77v-9.7a5.05,5.05,0,0,1,2.72-4.23c.55-.25,11-5,16.39-8.17,1.92-1.14,3.37-2.06,4.28-2.64a3.92,3.92,0,0,0-1.4-.26,3.46,3.46,0,0,0-1.88.5s-2,1.33-5.37,3.35c-5.25,3.14-15.36,7.72-16.5,8.23l-.29.17a4,4,0,0,0-1.78,3.05V37.49A2.93,2.93,0,0,0,17.67,40.53Z"/>
        <path class="cls-1" d="M33.06,80.07c-5-5.68-8.77-14.95-9-15.44a10,10,0,0,0-3.72-4.25l-5.09-2.89L15,57.33s0,0-.07,0l-.23-.08H14.6a1.17,1.17,0,0,0-.3-.05H12l4,2.26a9.26,9.26,0,0,1,1.92,1.53,10.67,10.67,0,0,1,2.28,3.27c.16.39,3.9,9.62,8.78,15.13a27.57,27.57,0,0,0,2.61,2.53,85.45,85.45,0,0,0,8.54,6.3,3.68,3.68,0,0,0,1.94.5,4.28,4.28,0,0,0,1.37-.23C41.18,86.94,35.9,83.28,33.06,80.07Z"/>
        <path class="cls-1" d="M78.51,55.48,75.8,53.94,70.59,51,38,32.54,31.71,29a2.1,2.1,0,0,0-.3-.15l-.06,0a2.34,2.34,0,0,0-.24-.09h0a2,2,0,0,0-.4-.07H28.43L66.2,50l2.89,1.63,5,2.85a5,5,0,0,1,1.34,1.12,5.06,5.06,0,0,1,1.23,4.21l-.37,1.43c-.4,1.52-.86,3.07-1.38,4.62A59.59,59.59,0,0,1,63.22,86.52a29.23,29.23,0,0,1-2.08,2.1C56,93.35,48,98.22,47,98.84c-.57.34-1.32.78-2,1.16h2a2.21,2.21,0,0,0,.89-.17c.19-.09.54-.27,1-.52.69-.38,1.61-.91,2.48-1.42.56-.34,11.33-6.82,16-12.1a58.85,58.85,0,0,0,11.5-20.25c.51-1.54,1-3.07,1.35-4.55l.36-1.39A4.12,4.12,0,0,0,78.51,55.48Z"/>
        <path class="cls-1" d="M50.36,23.2h3.27A.68.68,0,0,0,54,21.94L47.34,18a.33.33,0,0,0-.16-.07h0l-.13,0H44.42L49.6,21a1.73,1.73,0,0,1,.67.7l.43.25A.68.68,0,0,1,50.36,23.2Z"/>
        <path class="cls-1" d="M82.49,36.79V21.15c0-1.65-.68-3.21-1.5-3.47s-2.76-1-4.27-1.64c-.59-.25-11.76-5-17.53-8.43-2.89-1.73-5.33-3.32-7-4.47l-2-1.36-.66-.48L48.25.37A2.17,2.17,0,0,0,47.18,0h-2.5l.53.39.67.48c.45.32,1.11.78,2,1.35,1.55,1,4,2.67,7,4.43,5.74,3.44,16.92,8.17,17.4,8.37,1.46.62,3.36,1.36,4.16,1.6a2.6,2.6,0,0,1,1.32,1.06,6.33,6.33,0,0,1,1,3.47V36.79c0,1.64,0,3.6.07,4.34v1.5c0,.77,0,1.49,0,2.12v.09a3.51,3.51,0,0,1-.51,1.7.86.86,0,0,0-.07.1h2.81c.89,0,1.54-.69,1.6-1.87,0,0,0-.8,0-2.14V41.18C82.53,40.41,82.49,38.44,82.49,36.79Z"/>
      </g>
    </g>
  </g>
</svg>
