<?xml version="1.0" encoding="UTF-8"?>
<svg id="_圖層_2" data-name="圖層 2" xmlns="http://www.w3.org/2000/svg" width="30" height="27.84" viewBox="0 0 30 27.84">
  <defs>
    <style>
      .cls-1 {
        fill: #6868ac;
      }
    </style>
  </defs>
  <g id="_圖層_1-2" data-name="圖層 1">
    <path class="cls-1" d="m16.15,4.04v3.03h13.85v20.77H0V4.04L8.08,0l8.08,4.04Zm-13.85,1.44v20.05h11.54V5.48l-5.77-2.88-5.77,2.88Zm4.62,1.59v2.31h-2.31v-2.31h2.31Zm0,4.62v2.31h-2.31v-2.31h2.31Zm0,4.62v2.31h-2.31v-2.31h2.31Zm0,4.62v2.31h-2.31v-2.31h2.31Zm4.62-13.85v2.31h-2.31v-2.31h2.31Zm0,4.62v2.31h-2.31v-2.31h2.31Zm0,4.62v2.31h-2.31v-2.31h2.31Zm0,4.62v2.31h-2.31v-2.31h2.31Zm4.62,4.62h11.54V9.38h-11.54v16.15Zm4.62-13.85v2.31h-2.31v-2.31h2.31Zm0,4.62v2.31h-2.31v-2.31h2.31Zm0,4.62v2.31h-2.31v-2.31h2.31Zm4.62-9.23v2.31h-2.31v-2.31h2.31Zm0,4.62v2.31h-2.31v-2.31h2.31Zm0,4.62v2.31h-2.31v-2.31h2.31Z"/>
  </g>
</svg>