<svg id="圖層_1" data-name="圖層 1" xmlns="http://www.w3.org/2000/svg" width="246" height="246" viewBox="0 0 246 246">
  <defs>
    <style>
      .cls-1 {
        fill: #fff;
      }
    </style>
  </defs>
  <g>
    <path class="cls-1" d="M109.55,96s0,0,0,0S109.56,96,109.55,96Z"/>
    <path class="cls-1" d="M104.42,136.42c-4.37,2.52-2.19,11.21-.21,2.84C104.47,138.53,105.48,136.64,104.42,136.42Z"/>
    <path class="cls-1" d="M134,118.28c-.72.27-.58,1.24-.14,1.68A1.91,1.91,0,0,0,134,118.28Z"/>
    <path class="cls-1" d="M135.35,127.28c.44-1,.78-.14,1.06.3.16-.16.34-.3.51-.45.46-1.38-3.21-7.76-2.82-4.56-.53.24.73,2.81.75,1.35,2.62.78-1.33,1.81,1.37,1.93-.39-.45-.11-1.27.22-.39C137,126.88,135.13,125.76,135.35,127.28Z"/>
    <path class="cls-1" d="M130.74,134.46l.36,0c.11-.2.21-.41.32-.62l-1.91-.14C127.29,132.38,129.18,134.82,130.74,134.46Z"/>
    <path class="cls-1" d="M129.2,121.7a.65.65,0,0,0,.75-.77C129.46,120.75,128.79,121.19,129.2,121.7Z"/>
    <path class="cls-1" d="M123.84,128.12c2.19.51,2.43,6.11,4.68,4.8C129.11,131.73,125.44,127.53,123.84,128.12Z"/>
    <path class="cls-1" d="M134.12,128c-1.15-2.1-3,2-4.1,1.89C130.33,135,134.25,131.27,134.12,128Z"/>
    <path class="cls-1" d="M116.52,159.16a36.22,36.22,0,0,1-35.77-30.84c12-4,6,13,11,18.89,8.82-2,9.53-17,13-22.3-4,3.06-9-11.91-5.44-6,1.23,8.4,11.28,4.13,7.63-1.07-2,3.62-5.83-5-1.24-.28,12.88,1.06,6.92,9.22,11.65,8.67-.23,2.93,2,.17,0-.45-.51.8.43-1.87,0-2.5,6.17-7.31,3.84-1,6.77-.65,1.62.12.65,6.28,3.84,7.56,0-1.41-4.69-7.89-.83-5.09.91,1.64,2.44.8,2.59-1.09-5.38-6.28,8.16-2.08,2.22-11,2.14-1.53-3.52.36-.75-2,.7.65,3,.55,3.08,2.82.82.66,1.65-.59.93-1.34-3.18-1.24,5.37-6.62-2.27-8-1.67-4.11,5.36-.46,4.05-3,.15-.91,1.31.33,1.67.26.28,3.25,5.49,6.4,1.31.38,1.28-.44,6.13-.9,2.37-1.94a5.86,5.86,0,0,0,1.81-.46,36.09,36.09,0,0,1,8.51,21.61h0a24.17,24.17,0,0,1,6.68.94A42.88,42.88,0,1,0,134.7,161.8a24.36,24.36,0,0,1-3.81-5.63A35.88,35.88,0,0,1,116.52,159.16Zm-21.62-49c.13-1.59,1.21-2.59,2.24-1,1.44-2.33.77-.23,3,1.25C99.17,110.84,95.4,110.82,94.9,110.19Zm9.84,2.64c-1.64,0-4.06-5.45-.7-4.63.5.6-.58.58-.8,1C104.35,110.27,105.93,112.1,104.74,112.83Zm11.78-26a36.05,36.05,0,0,1,27,12.15c-3.42-1.13-16.87-2.22-18.74-1.8a57.66,57.66,0,0,1-10-1.94c-.88-.72-8.14,1.19-5.37,1.83-.36.1-2.29-.77-1.63.19.75.73-1.54-1.37-.83-.46,0,2.11,1.83,1,1.27,1.53-.13,0-1.21,2.14-.62.19-1.49-2.71-3.64-2.37-1.59.08-3.27-2-4.82,1.37-7-.25-1.33-.15-.26.35-.27,1a4.06,4.06,0,0,0-2.19.76c1.28.39-1,.24-.79-.46.33-.27-.33-.22-.33-.38,4.68.57.77-1.52-1.36-1.35-.72-1-2.25-.65-3.77.21A36.06,36.06,0,0,1,116.52,86.84ZM92.87,99.77c-3.8,3.52,1.34,1.41,1.29,2.45-3.33.12-.48.49-1.59,1.16-1.22-1.2-.34,1.51-1.62,1.16-.61-.46-1.87.29-2.61.15C92,103.62,89.07,99.85,92.87,99.77Zm-6.24,2.9a2.57,2.57,0,0,0,1.29-.14c.32-.4,1.46,1.46.28,1.37.23-.51-.93-1.47-1,.09.61.75-1.62,1.83-2.85,2.52A36.88,36.88,0,0,1,86.63,102.67Zm-3.24,5.86c.39.56.61,1.07-.47,1.13C83.07,109.28,83.23,108.9,83.39,108.53Zm-1.14,4.37c2.22-2.12,7.28-5.61,7.49-.63-1.87-.45-.06,1.4.89-.36-.14-2,.63,0,.62-.85-.63-.52-3.22-1.4-2.1-2.61,2.07,1.47,4.13,6.65,4.39,2.86,1-1.27.76,1.88,1.94,1.63.6.66,2.93-.83,2.86.69.35,3-11.28,2.25-10.19-.51C87.83,111,81,115.22,82.25,112.9Z"/>
    <path class="cls-1" d="M166.81,131.35a18.37,18.37,0,0,0-7.61-4.54,22.28,22.28,0,0,0-6.52-.94h-.12a19.17,19.17,0,0,0-14,5.53,18.43,18.43,0,0,0-2.58,3.18c-.05.08-.09.16-.14.23A18,18,0,0,0,134,139a21.66,21.66,0,0,0-1,6.58c0,.38,0,.74.05,1.11a20.09,20.09,0,0,0,1.73,7.53,18,18,0,0,0,3.87,5.5l0,0a19.29,19.29,0,0,0,14,5.5,19.53,19.53,0,0,0,9.91-2.41,1.91,1.91,0,0,0,.94-1.41,2,2,0,0,0-.42-1.68,2.15,2.15,0,0,0-1.47-.89,2.8,2.8,0,0,0-1.78.26,15.42,15.42,0,0,1-7.18,1.57,14.94,14.94,0,0,1-10.2-3.57c-.23-.21-.46-.4-.68-.62a13.61,13.61,0,0,1-3.18-4.87,16.31,16.31,0,0,1-1-5.55c0-.16,0-.32,0-.49a15.16,15.16,0,0,1,2.75-9.15,12.9,12.9,0,0,1,1.48-1.76c.19-.19.39-.36.59-.53a13.42,13.42,0,0,1,2.32-1.68,15.49,15.49,0,0,1,7.17-1.95c.27,0,.53,0,.8,0a17.09,17.09,0,0,1,5.87,1,13.56,13.56,0,0,1,5.06,3.21,14.77,14.77,0,0,1,4.17,10.93,16.61,16.61,0,0,1-.89,5.45.58.58,0,0,1-.58.42h-3.46c-.32,0-.47-.14-.47-.42v-12.9a3.06,3.06,0,0,0-3-3h-.63a2.37,2.37,0,0,0-1.23.34,2.48,2.48,0,0,0-.5.37,2.34,2.34,0,0,0-.73,1.76v.37c-.08,0-.11,0-.11-.06a7.84,7.84,0,0,0-5.49-3.15,6.28,6.28,0,0,0-.75,0,8.18,8.18,0,0,0-3.12.58c-.12,0-.25.09-.37.15a7.14,7.14,0,0,0-2.57,2.07h0c-1.48,1.87-2.23,4.55-2.23,8a18.07,18.07,0,0,0,.25,3s0,.07,0,.11a10.52,10.52,0,0,0,2,4.82,8.49,8.49,0,0,0,1.26,1.28A7.26,7.26,0,0,0,150,156.4a7.52,7.52,0,0,0,6.24-3.26s0,0,.11,0v0l0,.32A2.65,2.65,0,0,0,159,156h7.66a5.13,5.13,0,0,0,2.62-.71,3.84,3.84,0,0,0,1.68-2,21.45,21.45,0,0,0,1.41-7.76Q172.34,136.84,166.81,131.35ZM156,145.75a6.9,6.9,0,0,1-1.13,4.22,3.53,3.53,0,0,1-3,1.5,3.43,3.43,0,0,1-2.49-1,4,4,0,0,1-.47-.53,7.27,7.27,0,0,1-1.13-4.38,7.6,7.6,0,0,1,1.07-4.43,3.72,3.72,0,0,1,6,0,4.48,4.48,0,0,1,.28.47,7.43,7.43,0,0,1,.85,3.73Z"/>
  </g>
</svg>
