<?xml version="1.0" encoding="utf-8"?>
<!-- Generator: Adobe Illustrator 27.2.0, SVG Export Plug-In . SVG Version: 6.00 Build 0)  -->
<svg version="1.1" id="圖層_1" xmlns="http://www.w3.org/2000/svg" xmlns:xlink="http://www.w3.org/1999/xlink" x="0px" y="0px"
	 viewBox="0 0 246 246" style="enable-background:new 0 0 246 246;" xml:space="preserve">
<style type="text/css">
	.st0{fill:#FFFFFF;}
</style>
<g>
	<path id="XMLID_00000182495518825524121620000004999584611943539113_" class="st0" d="M132.8,129.6c2.8-2.7,4.3-6.4,4.3-10.3
		c0-3.9-1.5-7.6-4.3-10.3c-2.8-2.7-6.5-4.2-10.4-4.2c-3.9,0.1-7.5,1.6-10.2,4.4c-2.7,2.8-4.2,6.5-4.1,10.4c0.1,3.7,1.6,7.2,4.2,9.9
		c0.7,0.7,1.1,1.6,1.1,2.6c0,0,0,0,0,0c0,0,0,0,0,0l0,5.5c0,4.3,3.5,7.8,7.8,7.8h2.7c4.3,0,7.8-3.5,7.8-7.7l0-5.5c0,0,0,0,0,0
		c0,0,0,0,0,0C131.7,131.2,132.1,130.3,132.8,129.6z M127.6,137.7c0,2-1.6,3.6-3.6,3.6h-2.7c-2,0-3.6-1.6-3.6-3.7l0-3h10
		L127.6,137.7z M129.9,126.7c-1.1,1.1-1.8,2.4-2.1,3.8h-10.4c-0.3-1.4-1-2.8-2.1-3.9c-1.9-1.9-3-4.4-3-7.1c-0.1-2.8,1-5.4,2.9-7.4
		c1.9-2,4.5-3.1,7.3-3.2c0,0,0.1,0,0.1,0c2.7,0,5.3,1.1,7.3,3c2,2,3.1,4.6,3.1,7.4C133,122.2,131.9,124.8,129.9,126.7z"/>
	<path class="st0" d="M107,162.9c-0.3,0.9,0.2,1.7,1.4,2l2.1,0.6l0.9-3l-2-0.6C108,161.6,107.3,161.9,107,162.9z"/>
	<path class="st0" d="M107.3,86.6c-1.8-2-2.9-3.1-3.5-3.9l0,0c0.2,1.1,0.3,2.9,0.6,5.2L107.3,86.6z"/>
	<path class="st0" d="M81.7,129.2c-1.9,0.4-3.4,1.7-2.9,4l0.4,1.9l7.4-1.7l-0.4-1.9C85.8,129.3,83.9,128.7,81.7,129.2z"/>
	<path class="st0" d="M121.4,163.6c-1.2,0-2,0.5-2,1.7c0,1.2,0.9,1.7,2,1.7l2.1,0l0-3.4L121.4,163.6z"/>
	<path class="st0" d="M144.9,93.6c1.7,1.3,3.5,0.6,4.8-1.2c1.4-1.8,1.6-3.8,0-5.1c-1.8-1.4-3.6-0.4-4.9,1.2
		C143.5,90.3,143.2,92.2,144.9,93.6z"/>
	<path class="st0" d="M123,71.2c-28.6,0-51.8,23.2-51.8,51.8c0,28.6,23.2,51.8,51.8,51.8c28.6,0,51.8-23.2,51.8-51.8
		C174.8,94.4,151.6,71.2,123,71.2z M168.5,117.5l-2.7,1.2l0.2,4.1l2.8,0.8l0.1,2l-11.2-3.2l-0.1-2.6l10.8-4.5L168.5,117.5z
		 M167,110.3l-8.9,2.7l1,3.3l-1.6,0.5l-2.6-8.5l1.6-0.5l1,3.3l8.9-2.7L167,110.3z M159.6,95.1l-4.1,2.7l2.7,4.1l4.1-2.7l1.1,1.7
		l-9.2,6.1l-1.1-1.7l3.7-2.4l-2.7-4.1l-3.7,2.4l-1.1-1.7l9.2-6.1L159.6,95.1z M143.1,87.3c1.9-2.4,4.9-3.4,7.7-1.2
		c2.7,2.1,2.6,5.2,0.6,7.6c-2,2.5-5,3.3-7.7,1.2C141.3,92.9,141.1,89.9,143.1,87.3z M132.9,77.3l2.3,0.8c0.5,2.5,1.6,8.6,1.8,10l0,0
		c0.3-1,1-3,1.6-4.9l1.2-3.5l1.8,0.6l-3.6,10.4l-2.5-0.9c-0.5-2.8-1.7-8.3-1.8-9.6l0,0c-0.3,1.2-0.9,3-1.5,4.7l-1.2,3.4l-1.8-0.6
		L132.9,77.3z M154.2,123c0,17.2-14,31.2-31.2,31.2c-17.2,0-31.2-13.9-31.2-31.2s14-31.2,31.2-31.2
		C140.2,91.8,154.2,105.8,154.2,123z M114.9,77.9l1.1,9.2l5.5-0.7l0,1.7l-7.3,0.9l-1.3-10.9L114.9,77.9z M104.4,80.7l8,8.5l-2,0.9
		l-2-2.2l-3.8,1.7l0.2,3l-1.9,0.8l-0.9-11.6L104.4,80.7z M95,86l6.6,8.8L99.9,96l-6.6-8.8L95,86z M90,89.8l1.3,1.1l-2.2,2.6l7,6.1
		l-1.4,1.6l-7-6.1l-2.2,2.6l-1.3-1.1L90,89.8z M78.8,107.1c2.9-0.3,8.4-1.1,9.7-1.1l0,0c-1.2-0.4-2.9-1.1-4.5-1.8l-3.3-1.4l0.7-1.7
		l10.1,4.3l-1,2.3c-2.6,0.3-8.7,1-10.1,1.1l0,0c1,0.3,3,1.2,4.8,1.9l3.4,1.5l-0.7,1.7l-10.1-4.3L78.8,107.1z M76.5,115l1.7,0.1
		l-0.5,5.6l2.7,0.2l0.5-5.3l1.7,0.1l-0.5,5.3l3.2,0.3l0.5-5.8l1.7,0.4l-0.7,7.6l-11-0.9L76.5,115z M77.2,133.4
		c-0.7-3.1,0.9-5.6,4.1-6.3c3.1-0.7,5.9,0.7,6.7,4l0.9,4l-10.7,2.4L77.2,133.4z M80.4,142.8l9.8-5l0.9,1.8l-9.8,5L80.4,142.8z
		 M91.2,153.2c-1.4,1.2-3.3,0.9-4.9-1c-1.8-2.2-1.3-4-0.2-5.1l1.3,1.6c-0.5,0.6-0.8,1.4,0.1,2.6c0.7,0.8,1.5,1,2.1,0.5
		c0.7-0.5,0.6-1.2-0.2-2.8c-1.4-2.9-0.9-4.2,0.2-5.2c1.5-1.2,3.5-1,5.3,1.2c1.8,2.1,1.5,4.1,0.2,5.5l-1.3-1.6c0.7-1,0.6-2-0.2-3
		c-0.9-1.1-1.7-1.2-2.4-0.6c-0.7,0.6-0.8,1.3,0.1,3.2C92.6,151,92.3,152.2,91.2,153.2z M92.8,158.6l1-1.4l4.6,3.1l1.5-2.2l-4.4-3
		l1-1.4l4.4,3l1.8-2.6l-4.9-3.3l1.2-1.3l6.3,4.3l-6.1,9.1L92.8,158.6z M112,167.8l-4.4-1.4c-2.2-0.7-3.1-2.3-2.6-3.9
		c0.4-1.4,1.4-1.9,2.4-2c-0.6-0.4-1.2-1.2-0.6-3.1l0.2-0.5c0.2-0.7,0.5-1.6,0.5-2.1l1.9,0.6c0,0.5-0.2,1.3-0.5,2.4l-0.1,0.2
		c-0.4,1.3-0.2,2,1.5,2.5l1.7,0.5l1.3-4.4l1.9,0.6L112,167.8z M121.1,168.6c-2.3,0-3.8-1.3-3.8-3.3c0-2.3,1.7-3.4,3.9-3.4l2.3,0
		l0-4.2l2.1,0l0,11L121.1,168.6z M143.8,164.4l-2.1-4.4l-4.4,2l2,4.4l-1.9,0.9l-4.6-10l1.9-0.9l1.8,4l4.4-2l-1.8-4l1.9-0.9l4.6,10
		L143.8,164.4z M155.8,155.4l-2.6-1.4l-3.1,2.8l1.2,2.7l-1.5,1.4l-4.6-10.7l1.9-1.7l10.3,5.4L155.8,155.4z M162.5,146.6
		c-1.7,2.9-4.7,3.1-7.4,1.5c-2.6-1.5-4-4.4-2.3-7.3c1.4-2.4,3.6-2.8,5.3-2.1l-1,1.8c-1-0.2-2.1-0.1-2.9,1.2
		c-1.1,1.8,0.1,3.5,1.9,4.6c1.7,1,3.8,1.4,5-0.5c0.8-1.4,0.2-2.4-0.3-3l1.1-1.8C163.3,142.3,163.8,144.3,162.5,146.6z M168.1,131.1
		l-5.8,2.4l0.8,1.5l3.8,0.9l-0.5,2l-10.7-2.6l0.5-2l4.9,1.2c-0.6-0.9-2.6-3.9-3.8-5.8l0.6-2.4l3.4,5.5l7.3-3.1L168.1,131.1z"/>
	<path class="st0" d="M147.1,150.6c0.8,0.5,2.2,1.3,4.6,2.5l-2.4,2.2C148.3,153.2,147.5,151.5,147.1,150.6L147.1,150.6z"/>
	<path class="st0" d="M159.2,121.1c0.9-0.3,2.4-0.9,4.9-1.9l0.2,3.2C162.1,121.9,160.3,121.4,159.2,121.1L159.2,121.1z"/>
</g>
</svg>
