<svg id="圖層_1" data-name="圖層 1" xmlns="http://www.w3.org/2000/svg" width="246" height="246" viewBox="0 0 246 246">
  <defs>
    <style>
      .cls-1 {
        fill: #fff;
      }
    </style>
  </defs>
  <g id="g214">
    <path id="path216" class="cls-1" d="M124.16,123.6c0-17.26,7.83-31.74,18.32-35.42l.31-.12a.92.92,0,0,0,.55-.81,1,1,0,0,0-.78-.85,13.26,13.26,0,0,0-4.37-.1,25.7,25.7,0,0,0-5.87,1.35c-14.21,5.08-22.52,21.83-19.77,39.83,0,0,.07.43.19,1.09a.77.77,0,0,1,0,.15.46.46,0,0,1-.47.52.69.69,0,0,1-.52-.39,12.94,12.94,0,0,1-1-2.49,41.2,41.2,0,0,1-1.48-11.56,43,43,0,0,1,9.54-26.57,15.19,15.19,0,0,1,1.57-1.53c.26-.24.52-.45.52-.45a.93.93,0,0,0,.32-.71.92.92,0,0,0-.77-.89,8.74,8.74,0,0,0-2.4-.12A35.61,35.61,0,0,0,94.34,97a40.72,40.72,0,0,0-9.67,26.59c0,17.1,10.25,32,25.49,37.16a17.49,17.49,0,0,0,4.28.79s1.52.12,1.42-.86a1,1,0,0,0-.17-.47,2.56,2.56,0,0,0-.47-.48l-1.09-.79a40.09,40.09,0,0,1-17.46-33.08c0-1.15,0-2.32.15-3.46,0,0,.07-.91.16-1.31a.55.55,0,0,1,.5-.46s.38,0,.49.46c0,0,.1.56.21,1.47a44.44,44.44,0,0,0,40.12,38.59,14.11,14.11,0,0,0,4.14-.22c.63-.2.93-.54.93-.95a.78.78,0,0,0-.58-.78l-.31-.12c-10.49-3.68-18.32-18.17-18.32-35.43"/>
    <path id="path218" class="cls-1" d="M152.8,151.12l-.26-.06a11.64,11.64,0,0,1-5.69-2.9,22.62,22.62,0,0,1-4.53-6.69,47.76,47.76,0,0,1-3.42-17.65v-.54a47.76,47.76,0,0,1,3.42-17.65,22.49,22.49,0,0,1,4.53-6.69,11.64,11.64,0,0,1,5.69-2.9l.26-.06a.74.74,0,0,0,.62-.74.77.77,0,0,0-.44-.63,2.5,2.5,0,0,0-.42-.18c-6.28-1.66-12.21,3-12.21,3-5.54,4-8.28,11.62-8.28,11.62a43.53,43.53,0,0,0-2.39,14.19v.66a43.45,43.45,0,0,0,2.39,14.18s2.74,7.59,8.28,11.63c0,0,5.93,4.63,12.21,3a2.5,2.5,0,0,0,.42-.18.77.77,0,0,0,.44-.63.74.74,0,0,0-.62-.74"/>
    <path id="path220" class="cls-1" d="M160.9,144l-.26-.1c-.44-.13-.91-.32-.91-.32-4.95-2-8-10.31-8-19.92v-.28c0-9.62,3-18,8-19.92a8.29,8.29,0,0,1,.91-.32l.26-.11a.65.65,0,0,0,.43-.58.67.67,0,0,0-.31-.55l-.16-.1a7,7,0,0,0-3.3-.28c-7.54,1-13.42,10.25-13.53,21.74h0v.51h0c.11,11.5,6,20.79,13.53,21.75a6.94,6.94,0,0,0,3.3-.29,1.07,1.07,0,0,0,.16-.09.67.67,0,0,0,.31-.55.65.65,0,0,0-.43-.59"/>
  </g>
</svg>
