<svg id="圖層_1" data-name="圖層 1" xmlns="http://www.w3.org/2000/svg" width="246" height="246" viewBox="0 0 246 246">
  <defs>
    <style>
      .cls-1 {
        fill: #fff;
      }
    </style>
  </defs>
  <g>
    <circle class="cls-1" cx="123" cy="123" r="8.73"/>
    <path class="cls-1" d="M115.21,139.7a2.16,2.16,0,0,1-1-.25,18.65,18.65,0,0,1,0-32.89,2.16,2.16,0,0,1,2,3.81,14.33,14.33,0,0,0,0,25.27,2.16,2.16,0,0,1-1,4.06Z"/>
    <path class="cls-1" d="M130.79,139.7a2.16,2.16,0,0,1-1-4.06,14.33,14.33,0,0,0,0-25.27,2.16,2.16,0,0,1,2-3.81,18.66,18.66,0,0,1,0,32.89A2.23,2.23,0,0,1,130.79,139.7Z"/>
    <path class="cls-1" d="M110.15,149.16a2.17,2.17,0,0,1-1-.25,29.39,29.39,0,0,1,0-51.81,2.16,2.16,0,1,1,2,3.8,25.07,25.07,0,0,0,0,44.2,2.16,2.16,0,0,1-1,4.06Z"/>
    <path class="cls-1" d="M135.85,149.16a2.16,2.16,0,0,1-1-4.06,25.07,25.07,0,0,0,0-44.2,2.16,2.16,0,1,1,2-3.8,29.39,29.39,0,0,1,0,51.81A2.17,2.17,0,0,1,135.85,149.16Z"/>
    <path class="cls-1" d="M105,158.78a2.12,2.12,0,0,1-1-.26,40.29,40.29,0,0,1-.18-70.93,2.16,2.16,0,1,1,2.06,3.79,36,36,0,0,0,.16,63.34,2.16,2.16,0,0,1,.89,2.92A2.19,2.19,0,0,1,105,158.78Z"/>
    <path class="cls-1" d="M141.17,158.68a2.15,2.15,0,0,1-1-4.05A36,36,0,0,0,140,91.29a2.16,2.16,0,1,1,2-3.81,40.3,40.3,0,0,1,.18,70.94A2.13,2.13,0,0,1,141.17,158.68Z"/>
    <path class="cls-1" d="M100.25,168a2.16,2.16,0,0,1-1-.25,50.67,50.67,0,0,1,0-89.49,2.16,2.16,0,1,1,2,3.81,46.36,46.36,0,0,0,0,81.87,2.16,2.16,0,0,1-1,4.06Z"/>
    <path class="cls-1" d="M145.9,167.92a2.16,2.16,0,0,1-1-4.06,46.35,46.35,0,0,0,0-81.71,2.16,2.16,0,0,1,2-3.81,50.67,50.67,0,0,1,0,89.33A2.16,2.16,0,0,1,145.9,167.92Z"/>
  </g>
</svg>
