<svg width="20" height="20" viewBox="0 0 20 20" fill="none" xmlns="http://www.w3.org/2000/svg">
<path d="M17.9375 3.04407V7.96382C18.5352 8.26299 19 9.06079 19 9.95831C19 10.8891 18.5352 11.6869 17.9375 11.986V16.8725C17.9375 17.3047 17.6719 17.7036 17.2734 17.8698C16.875 18.036 16.4102 17.9363 16.1113 17.6371L14.6504 16.1745C13.0566 14.5789 10.8984 13.6814 8.64062 13.6814H8.375V17.9363C8.375 18.5346 7.87695 19 7.3125 19H5.1875C4.58984 19 4.125 18.5346 4.125 17.9363V13.6814C2.92969 13.6814 2 12.7506 2 11.5539V8.36271C2 7.19926 2.92969 6.23526 4.125 6.23526H7.3125H8.375H8.64062C10.8984 6.23526 13.0566 5.33774 14.6504 3.74214L16.1113 2.31276C16.4102 2.01358 16.875 1.91386 17.2734 2.08007C17.6719 2.24628 17.9375 2.64517 17.9375 3.04407ZM15.8125 5.60367C13.8535 7.39871 11.2969 8.36271 8.64062 8.36271H8.375V11.5539H8.64062C11.2969 11.5539 13.8535 12.5511 15.8125 14.3462V9.95831V5.60367Z" fill="white"/>
</svg>
