<svg xmlns="http://www.w3.org/2000/svg" width="97.5" height="106.7" viewBox="0 0 97.5 106.7">
  <defs>
    <style>
      .cls-1 {
        fill: #fff;
      }
    </style>
  </defs>
  <g id="圖層_2" data-name="圖層 2">
    <g id="圖層_1-2" data-name="圖層 1">
      <g>
        <path class="cls-1" d="M95,26.63c-4.25-7.35-13.29-11-24.47-11C64.91,6,57.23,0,48.75,0S32.59,6,27,15.64c-11.63,0-20.31,3.88-24.47,11.07S-.66,43.33,5.14,53.35C-.66,63.36-1.59,72.81,2.55,80S15.29,91.06,26.83,91.06H27c5.57,9.66,13.26,15.64,21.73,15.64s16.16-6,21.73-15.64h.09c11.14,0,20.15-3.66,24.38-11,4.15-7.19,3.21-16.67-2.63-26.71C98.16,43.3,99.1,33.83,95,26.63Zm-3.09,1.79c3.27,5.66,2.65,13.24-1.72,21.5A70.52,70.52,0,0,0,77.92,36.51,70.3,70.3,0,0,0,72.3,19.1C81.31,19.42,88.45,22.5,91.86,28.42ZM68.46,87.57A62.87,62.87,0,0,1,53.92,85a92.34,92.34,0,0,0,10.21-5.08,92,92,0,0,0,9.42-6.24A62.77,62.77,0,0,1,68.46,87.57ZM62.34,76.85a87.88,87.88,0,0,1-13.71,6.43,88.44,88.44,0,0,1-13.47-6.35,89.23,89.23,0,0,1-12.33-8.57,90,90,0,0,1,0-30,89.44,89.44,0,0,1,25.8-14.93,88,88,0,0,1,13.71,6.44,88,88,0,0,1,12.35,8.58,88.25,88.25,0,0,1,1.24,14.92,88.22,88.22,0,0,1-1.24,14.91A88.1,88.1,0,0,1,62.34,76.85ZM24,73.81A92.1,92.1,0,0,0,33.38,80a91,91,0,0,0,10,5A62.67,62.67,0,0,1,29,87.44,63.07,63.07,0,0,1,24,73.81ZM18.7,64.65a62.71,62.71,0,0,1-9.39-11.3A62.76,62.76,0,0,1,18.7,42a91.64,91.64,0,0,0,0,22.61ZM29,19.25A62.7,62.7,0,0,1,43.36,21.7a89.2,89.2,0,0,0-10,5A90.46,90.46,0,0,0,24,32.89,63.16,63.16,0,0,1,29,19.25ZM73.55,33a93.66,93.66,0,0,0-9.42-6.23,94.22,94.22,0,0,0-10.21-5.09,62.82,62.82,0,0,1,14.55-2.54A63.37,63.37,0,0,1,73.55,33Zm5.26,9.15a62.31,62.31,0,0,1,9.33,11.21,62.58,62.58,0,0,1-9.33,11.21,91,91,0,0,0,.69-11.21A90.71,90.71,0,0,0,78.81,42.14ZM48.75,3.57c6.81,0,13,4.62,17.81,12.22a71,71,0,0,0-17.88,3.86A70.38,70.38,0,0,0,30.93,15.8C35.71,8.19,41.94,3.57,48.75,3.57ZM5.64,28.5c3.27-5.67,10.15-8.92,19.49-9.27A70.53,70.53,0,0,0,19.6,36.41,71.05,71.05,0,0,0,7.31,49.91C3,41.68,2.38,34.14,5.64,28.5Zm0,49.7C2.38,72.55,3,65,7.31,56.79A71,71,0,0,0,19.6,70.28a70.53,70.53,0,0,0,5.53,17.18C15.79,87.11,8.91,83.87,5.64,78.2Zm43.11,24.93c-6.81,0-13-4.63-17.82-12.24a70.79,70.79,0,0,0,17.75-3.84,71,71,0,0,0,17.88,3.86C61.79,98.51,55.56,103.13,48.75,103.13ZM91.86,78.28c-3.41,5.91-10.55,9-19.56,9.32a70.24,70.24,0,0,0,5.62-17.42A70.52,70.52,0,0,0,90.14,56.77C94.51,65,95.13,72.61,91.86,78.28Z"/>
        <path class="cls-1" d="M65.18,46.39a17.79,17.79,0,0,0-9.47-9.47,17.86,17.86,0,0,0-13.91,0,17.77,17.77,0,0,0-9.48,9.47,18,18,0,0,0,0,13.91,17.83,17.83,0,0,0,9.48,9.48,18,18,0,0,0,13.91,0,17.86,17.86,0,0,0,9.47-9.48,18,18,0,0,0,0-13.91ZM46.83,68.46a14.36,14.36,0,0,1-9.47-5,15,15,0,0,1-3.77-10.12,17,17,0,0,1,.09-1.76A13.83,13.83,0,0,1,34,49.83L43.13,59v2a3.91,3.91,0,0,0,1.07,2.72,3.46,3.46,0,0,0,2.63,1.16Zm16.08-9.61a14.82,14.82,0,0,1-3,4.8,3.76,3.76,0,0,0-1.34-2,3.62,3.62,0,0,0-2.27-.75H54.41V55.26a2,2,0,0,0-.49-1.33,1.54,1.54,0,0,0-1.25-.58H41.17V49.42h3.7a2.07,2.07,0,0,0,1.36-.49,1.52,1.52,0,0,0,.6-1.24V43.81h3.88a3.44,3.44,0,0,0,2.63-1.16,3.85,3.85,0,0,0,1.07-2.72v-.8a15.3,15.3,0,0,1,9.5,14.22A15.57,15.57,0,0,1,62.91,58.85Z"/>
      </g>
    </g>
  </g>
</svg>
