<?xml version="1.0" encoding="utf-8"?>
<!-- Generator: Adobe Illustrator 26.0.3, SVG Export Plug-In . SVG Version: 6.00 Build 0)  -->
<svg version="1.1" id="圖層_1" xmlns="http://www.w3.org/2000/svg" xmlns:xlink="http://www.w3.org/1999/xlink" x="0px" y="0px"
	 width="36.8px" height="36.4px" viewBox="0 0 36.8 36.4" style="enable-background:new 0 0 36.8 36.4;" xml:space="preserve">
<style type="text/css">
	.st0{display:none;}
	.st1{display:inline;fill:none;stroke:#6868AB;stroke-width:1.5;stroke-linecap:round;stroke-linejoin:round;stroke-miterlimit:10;}
	.st2{display:inline;fill:none;stroke:#6868AB;stroke-width:1.5;stroke-miterlimit:10;}
	.st3{display:inline;}
	.st4{fill:#6868AB;}
	.st5{display:inline;fill:#6868AB;}
	.st6{display:inline;fill:none;stroke:#6868AB;stroke-width:1.5;stroke-linecap:round;stroke-miterlimit:10;}
</style>
<g class="st0">
	<path class="st1" d="M22.6,27.7h-8c-0.8,0-1.5-0.7-1.5-1.5l0,0c0-0.8,0.7-1.5,1.5-1.5h8c0.8,0,1.5,0.7,1.5,1.5l0,0
		C24.1,27,23.4,27.7,22.6,27.7z"/>
	<path class="st1" d="M15.1,30.3c0.1,1.8,1.6,3.3,3.5,3.3s3.4-1.5,3.5-3.3H15.1z"/>
	<path class="st1" d="M20.2,22v-8h3.9l-5.5-6.1L13,14h3.9v8h-3.5c-3.1-1.8-5.1-5.1-5.1-8.9C8.3,7.5,12.9,3,18.5,3
		c5.7,0,10.2,4.6,10.2,10.2c0,3.8-2.1,7.1-5.1,8.9L20.2,22L20.2,22z"/>
</g>
<g class="st0">
	<circle class="st2" cx="18.4" cy="18.2" r="5.5"/>
	<line class="st2" x1="21.1" y1="13.5" x2="25.1" y2="6.7"/>
	<circle class="st2" cx="26.2" cy="4.8" r="2.2"/>
	<line class="st2" x1="15.7" y1="13.5" x2="11.8" y2="6.7"/>
	<circle class="st2" cx="10.7" cy="4.8" r="2.2"/>
	<line class="st2" x1="13" y1="18.2" x2="5.1" y2="18.2"/>
	<circle class="st2" cx="2.9" cy="18.2" r="2.2"/>
	<line class="st2" x1="15.7" y1="22.9" x2="11.8" y2="29.7"/>
	<circle class="st2" cx="10.7" cy="31.6" r="2.2"/>
	<line class="st2" x1="21.1" y1="22.9" x2="25.1" y2="29.7"/>
	<circle class="st2" cx="26.2" cy="31.6" r="2.2"/>
	<line class="st2" x1="23.9" y1="18.2" x2="31.7" y2="18.2"/>
	<circle class="st2" cx="33.9" cy="18.2" r="2.2"/>
	<g class="st3">
		<circle class="st4" cx="18.5" cy="4.5" r="0.7"/>
		<circle class="st4" cx="15.9" cy="4.5" r="0.7"/>
		<circle class="st4" cx="21" cy="4.5" r="0.7"/>
	</g>
	<g class="st3">
		<circle class="st4" cx="18.5" cy="31.8" r="0.7"/>
		<circle class="st4" cx="15.9" cy="31.8" r="0.7"/>
		<circle class="st4" cx="21" cy="31.8" r="0.7"/>
	</g>
	<g class="st3">
		<circle class="st4" cx="6.6" cy="11.3" r="0.7"/>
		<circle class="st4" cx="5.3" cy="13.5" r="0.7"/>
		<circle class="st4" cx="7.9" cy="9.1" r="0.7"/>
	</g>
	<g class="st3">
		<circle class="st4" cx="30.2" cy="25" r="0.7"/>
		<circle class="st4" cx="28.9" cy="27.2" r="0.7"/>
		<circle class="st4" cx="31.5" cy="22.7" r="0.7"/>
	</g>
	<g class="st3">
		<circle class="st4" cx="6.6" cy="25" r="0.7"/>
		<circle class="st4" cx="7.8" cy="27.2" r="0.7"/>
		<circle class="st4" cx="5.3" cy="22.8" r="0.7"/>
	</g>
	<g class="st3">
		<circle class="st4" cx="30.2" cy="11.4" r="0.7"/>
		<circle class="st4" cx="31.4" cy="13.6" r="0.7"/>
		<circle class="st4" cx="28.9" cy="9.2" r="0.7"/>
	</g>
</g>
<g class="st0">
	<circle class="st5" cx="18.4" cy="18.2" r="3"/>
	<path class="st6" d="M15.7,23.3c-1.8-1-3-2.9-3-5.1s1.2-4.1,3-5.1"/>
	<path class="st6" d="M21.1,13.2c1.8,1,3,2.9,3,5.1s-1.2,4.1-3,5.1"/>
	<path class="st6" d="M14,26.5c-3-1.6-5-4.7-5-8.3s2-6.7,5-8.3"/>
	<path class="st6" d="M22.9,9.9c3,1.6,5,4.7,5,8.3s-2,6.7-5,8.3"/>
	<path class="st6" d="M12.2,29.9c-4.2-2.2-7-6.6-7-11.7c0-5,2.8-9.4,6.9-11.6"/>
	<path class="st6" d="M24.7,6.5c4.2,2.2,7,6.6,7,11.7c0,5-2.8,9.4-6.9,11.6"/>
	<path class="st6" d="M10.5,33.1c-5.3-2.8-8.9-8.4-8.9-14.9c0-6.4,3.6-12.1,8.9-14.9"/>
	<path class="st6" d="M26.4,3.4c5.3,2.8,8.9,8.4,8.9,14.9c0,6.4-3.6,12-8.9,14.9"/>
</g>
<g class="st0">
	<path class="st5" d="M28.3,9.5H8.5c-2.4,0-4.3-1.9-4.3-4.3C4.3,2.9,6.2,1,8.5,1h19.8c2.4,0,4.3,1.9,4.3,4.3
		C32.6,7.6,30.7,9.5,28.3,9.5z M8.5,2.5C7,2.5,5.8,3.7,5.8,5.2C5.8,6.8,7,8,8.5,8h19.8c1.5,0,2.8-1.2,2.8-2.8c0-1.5-1.2-2.8-2.8-2.8
		H8.5V2.5z"/>
	<path class="st5" d="M28.3,19.7H8.5c-2.4,0-4.3-1.9-4.3-4.3s1.9-4.3,4.3-4.3h19.8c2.4,0,4.3,1.9,4.3,4.3
		C32.6,17.7,30.7,19.7,28.3,19.7z M8.5,12.6c-1.5,0-2.8,1.2-2.8,2.8c0,1.5,1.2,2.8,2.8,2.8h19.8c1.5,0,2.8-1.2,2.8-2.8
		c0-1.5-1.2-2.8-2.8-2.8H8.5z"/>
	<circle class="st5" cx="18.4" cy="5.2" r="1.4"/>
	<circle class="st5" cx="18.4" cy="15.4" r="1.4"/>
	<path class="st5" d="M31.8,30.5c-1.7,0-3.2-1.4-3.2-3.2s1.4-3.2,3.2-3.2c1.7,0,3.2,1.4,3.2,3.2S33.6,30.5,31.8,30.5z M31.8,25.7
		c-0.9,0-1.7,0.7-1.7,1.7s0.7,1.7,1.7,1.7c0.9,0,1.7-0.7,1.7-1.7S32.7,25.7,31.8,25.7z"/>
	<path class="st5" d="M5,30.5c-1.7,0-3.2-1.4-3.2-3.2s1.4-3.2,3.2-3.2s3.2,1.4,3.2,3.2S6.8,30.5,5,30.5z M5,25.7
		c-0.9,0-1.7,0.7-1.7,1.7S4.1,29,5,29s1.7-0.7,1.7-1.7S5.9,25.7,5,25.7z"/>
	<path class="st5" d="M18.4,22.8c-0.4,0-0.8-0.3-0.8-0.8v-3.2c0-0.4,0.3-0.8,0.8-0.8s0.8,0.3,0.8,0.8V22
		C19.2,22.5,18.8,22.8,18.4,22.8z"/>
	<rect x="17.7" y="9.1" class="st5" width="1.5" height="3"/>
	<rect x="7.4" y="26.6" class="st5" width="5.8" height="1.5"/>
	<rect x="24.4" y="26.6" class="st5" width="5" height="1.5"/>
	<path class="st5" d="M18.4,35.4c-0.3,0-0.6-0.1-0.9-0.2l-3.6-2c-0.5-0.3-0.9-0.8-0.9-1.4l-1-6.9c-0.1-0.9,0.4-1.7,1.3-2l4.5-1.5
		c0.4-0.1,0.8-0.1,1.1,0l4.5,1.5c0.9,0.3,1.4,1.1,1.3,2l-0.9,6.9c-0.1,0.6-0.4,1.1-0.9,1.4l-3.6,2C19,35.4,18.7,35.4,18.4,35.4z
		 M18.4,22.8h-0.1l-4.5,1.5c-0.2,0.1-0.3,0.2-0.3,0.4l0.9,6.9c0,0.1,0.1,0.2,0.2,0.3l3.6,2c0.1,0.1,0.2,0.1,0.4,0l3.6-2l0,0
		c0.1-0.1,0.2-0.2,0.2-0.3l0.9-6.9c0-0.2-0.1-0.3-0.3-0.4l-4.5-1.5C18.5,22.8,18.5,22.8,18.4,22.8z"/>
	<path class="st5" d="M17.9,30.5c-0.2,0-0.3,0-0.4-0.1l-2.3-1.7c-0.3-0.2-0.4-0.7-0.2-1s0.7-0.4,1-0.2l1.8,1.3l2.7-2.7
		c0.3-0.3,0.8-0.3,1.1,0c0.3,0.3,0.3,0.8,0,1.1l-3.2,3.2C18.3,30.4,18.1,30.5,17.9,30.5z"/>
</g>
<g class="st0">
	<path class="st5" d="M18.4,34.7C11,34.7,5,28.7,5,21.3S11.1,8,18.4,8v1.5c-6.5,0-11.9,5.3-11.9,11.9s5.3,11.9,11.9,11.9
		S30.3,28,30.3,21.4c0-4.5-2.5-8.6-6.5-10.6l0.7-1.3c4.5,2.3,7.3,6.9,7.3,11.9C31.8,28.7,25.8,34.7,18.4,34.7z"/>
	<path class="st5" d="M18.4,16.2c-3.9,0-7.6-0.8-10.1-2.1L9,12.7c2.3,1.2,5.7,1.9,9.4,1.9s7.1-0.7,9.4-1.9l0.7,1.3
		C26,15.4,22.3,16.2,18.4,16.2z"/>
	<path class="st5" d="M27.8,30.1c-2.3-1.2-5.7-1.9-9.3-1.9s-7,0.7-9.3,1.9l-0.7-1.3c2.5-1.3,6.1-2,10-2s7.5,0.8,10,2.1L27.8,30.1z"
		/>
	<rect x="17.7" y="24" class="st5" width="1.5" height="10"/>
	<rect x="21.1" y="20.6" class="st5" width="9.9" height="1.5"/>
	<path class="st5" d="M19.2,18.7h-1.5V2.4c0-0.3,0.1-0.5,0.4-0.7s0.5-0.1,0.8,0l9.6,5.9c0.2,0.1,0.4,0.4,0.4,0.7s-0.2,0.5-0.4,0.6
		L19.3,13L19.2,18.7L19.2,18.7z M19.2,3.8v7.7l7.3-3.2L19.2,3.8z"/>
	<path class="st5" d="M18.5,24.7c-1.9,0-3.4-1.5-3.4-3.4s1.5-3.4,3.4-3.4s3.4,1.5,3.4,3.4S20.3,24.7,18.5,24.7z M18.5,19.5
		c-1,0-1.9,0.8-1.9,1.9s0.8,1.9,1.9,1.9s1.9-0.8,1.9-1.9S19.5,19.5,18.5,19.5z"/>
	<rect x="5.9" y="20.6" class="st5" width="9.9" height="1.5"/>
</g>
<g>
	<g>
		<path class="st4" d="M16.3,1.5c0.9,0,1.6,0.3,2.2,0.9C19.3,3,19.7,3.8,20,4.8c0.2,0.6,0.8,1.1,1.4,1.1h8.2c0.4,0,0.6,0.1,0.9,0.4
			C30.8,6.6,31,6.8,31,7.2v8.1c0,0.7,0.5,1.3,1.1,1.4c1,0.3,1.7,0.7,2.3,1.5c0.6,0.7,0.8,1.4,0.8,2.3c0,0.9-0.3,1.5-0.8,2.1
			c-0.6,0.6-1.4,1.1-2.4,1.4c-0.7,0.2-1.1,0.8-1.1,1.4v8.2c0,0.3-0.1,0.6-0.4,0.9c-0.3,0.3-0.6,0.4-0.9,0.4h-7.1
			c-0.3-1.3-1-2.3-1.9-3.2c-1.2-1.2-2.7-1.8-4.4-1.8s-3.2,0.6-4.4,1.8c-0.9,0.9-1.5,1.9-1.9,3.2H2.9c-0.4,0-0.6-0.1-0.9-0.4
			c-0.3-0.3-0.4-0.5-0.4-0.9v-7c1.2-0.3,2.2-0.9,3.1-1.7c1.3-1.2,2-2.7,2-4.5c0-1.8-0.7-3.3-2-4.5c-0.9-0.8-1.9-1.4-3.1-1.7v-7
			c0-0.3,0.1-0.6,0.4-0.9C2.2,6,2.5,5.9,2.9,5.9h8.4c0.7,0,1.3-0.4,1.4-1.1c0.3-1,0.7-1.8,1.4-2.4C14.8,1.8,15.5,1.5,16.3,1.5
			 M16.3,0c-1.3,0-2.3,0.4-3.2,1.3c-0.9,0.8-1.5,1.9-1.9,3.1H2.9c-0.8,0-1.4,0.3-2,0.8c-0.6,0.6-0.9,1.2-0.9,2v8.2
			c1.4,0.2,2.6,0.7,3.6,1.6s1.5,2,1.5,3.4c0,1.3-0.5,2.5-1.5,3.4c-1,0.9-2.2,1.5-3.6,1.6v8.2c0,0.7,0.3,1.4,0.9,2
			c0.6,0.6,1.2,0.8,2,0.8h8.3c0.2-1.5,0.7-2.7,1.7-3.6c1-0.9,2.1-1.4,3.4-1.4s2.4,0.5,3.4,1.4c1,0.9,1.5,2.1,1.7,3.6h8.3
			c0.8,0,1.4-0.3,2-0.8c0.6-0.6,0.9-1.2,0.9-2v-8.2c1.3-0.3,2.3-0.9,3.1-1.8c0.8-0.8,1.2-1.9,1.2-3.1c0-1.2-0.4-2.3-1.2-3.3
			c-0.8-0.9-1.8-1.6-3.1-1.9V7.2c0-0.7-0.3-1.4-0.9-2c-0.6-0.6-1.2-0.8-2-0.8h-8.2c-0.3-1.2-1-2.3-1.9-3.1C18.7,0.4,17.6,0,16.3,0
			L16.3,0z"/>
	</g>
	<g>
		<g>
			<path class="st4" d="M19.2,9.7h-3.1c-0.3,0-0.5,0.2-0.5,0.4l-0.3,2c0,0.2-0.2,0.3-0.3,0.4c-0.2,0.1-0.4,0.2-0.6,0.3
				c-0.2,0.1-0.4,0.2-0.6,0.4c-0.1,0.1-0.2,0.1-0.3,0.1c-0.1,0-0.1,0-0.2,0l-1.8-0.8c-0.1,0-0.1,0-0.2,0c-0.2,0-0.4,0.1-0.4,0.3
				l-1.5,2.7c-0.1,0.2-0.1,0.5,0.1,0.7l1.9,1.4c0,0.1,0,0.3-0.1,0.4c0,0.2,0,0.3,0,0.4c0,0.1,0,0.3,0,0.4c0,0.2,0,0.3,0.1,0.4
				l-1.9,1.4c-0.2,0.2-0.3,0.4-0.1,0.7l1.5,2.7c0.1,0.2,0.3,0.3,0.4,0.3c0.1,0,0.1,0,0.2,0l1.8-0.8c0.1,0,0.1,0,0.2,0
				c0.1,0,0.2,0,0.3,0.1c0.2,0.1,0.4,0.2,0.6,0.4c0.2,0.1,0.4,0.2,0.6,0.3c0.2,0.1,0.3,0.2,0.3,0.4l0.3,2c0,0.2,0.3,0.4,0.5,0.4h3.1
				c0.3,0,0.5-0.2,0.5-0.4l0.3-2c0-0.2,0.2-0.3,0.3-0.4c0.2-0.1,0.4-0.2,0.6-0.3c0.2-0.1,0.4-0.2,0.5-0.4c0.1-0.1,0.2-0.1,0.3-0.1
				c0.1,0,0.1,0,0.2,0l1.8,0.8c0.1,0,0.1,0,0.2,0c0.2,0,0.4-0.1,0.4-0.3l1.5-2.7c0.1-0.2,0.1-0.5-0.1-0.7l-1.9-1.4
				c0-0.1,0-0.3,0.1-0.4c0-0.2,0-0.3,0-0.4c0-0.1,0-0.3,0-0.5c0-0.2,0-0.3-0.1-0.5l1.9-1.4c0.2-0.2,0.3-0.4,0.1-0.7l-1.5-2.7
				c-0.1-0.2-0.3-0.3-0.4-0.3c-0.1,0-0.1,0-0.2,0L22,13.2c-0.1,0-0.1,0-0.2,0c-0.1,0-0.2,0-0.3-0.1c-0.2-0.1-0.3-0.2-0.6-0.4
				c-0.2-0.1-0.4-0.2-0.6-0.3c-0.2-0.1-0.3-0.2-0.3-0.4l-0.3-2C19.7,9.9,19.5,9.7,19.2,9.7L19.2,9.7z M13.9,14.7
				c0.1,0,0.3-0.1,0.4-0.1c0.3-0.2,0.6-0.5,0.9-0.6c0.3-0.2,0.7-0.3,1-0.4c0.2-0.1,0.4-0.2,0.4-0.4l0.2-1.6c0-0.3,0.2-0.4,0.5-0.4h1
				c0.3,0,0.5,0.2,0.5,0.4l0.2,1.6c0,0.2,0.2,0.4,0.4,0.4c0.4,0.1,0.7,0.2,1,0.4c0.3,0.2,0.6,0.4,0.9,0.7c0.1,0.1,0.2,0.2,0.4,0.2
				c0.1,0,0.1,0,0.2,0l1.5-0.7c0.1,0,0.1,0,0.2,0c0.2,0,0.4,0.1,0.4,0.3l0.4,0.7c0.1,0.2,0.1,0.5-0.1,0.7l-1.4,1
				c-0.2,0.1-0.2,0.3-0.2,0.5c0,0.1,0,0.3,0.1,0.4c0,0.2,0,0.5,0,0.7c0,0.2,0,0.5-0.1,0.7c0,0.1,0,0.3-0.1,0.4c0,0.2,0,0.4,0.2,0.5
				l1.4,1c0.2,0.2,0.3,0.4,0.1,0.7l-0.4,0.7c-0.1,0.2-0.3,0.3-0.4,0.3c-0.1,0-0.1,0-0.2,0l-1.5-0.7c-0.1,0-0.1,0-0.2,0
				c-0.1,0-0.3,0-0.3,0.1c-0.3,0.2-0.6,0.5-0.9,0.6c-0.3,0.2-0.7,0.3-1,0.4c-0.2,0.1-0.3,0.2-0.4,0.4l-0.2,1.6
				c0,0.3-0.2,0.4-0.5,0.4h-1c-0.3,0-0.5-0.2-0.5-0.4l-0.2-1.6c0-0.2-0.2-0.4-0.4-0.4c-0.4-0.1-0.7-0.3-1-0.4
				c-0.3-0.2-0.6-0.4-0.9-0.6c-0.1-0.1-0.2-0.1-0.3-0.1c-0.1,0-0.1,0-0.2,0l-1.5,0.7c-0.1,0-0.1,0-0.2,0c-0.2,0-0.4-0.1-0.4-0.3
				l-0.4-0.7C11,21.3,11,21,11.2,20.9l1.4-1c0.2-0.1,0.2-0.3,0.2-0.5c0-0.1,0-0.3-0.1-0.4c0-0.2-0.1-0.5-0.1-0.7
				c0-0.2,0-0.5,0.1-0.7c0-0.1,0-0.3,0.1-0.4c0-0.2,0-0.4-0.2-0.5l-1.4-1C11,15.5,11,15.2,11.1,15l0.4-0.7c0.1-0.2,0.3-0.3,0.4-0.3
				c0.1,0,0.1,0,0.2,0l1.5,0.7C13.7,14.7,13.8,14.7,13.9,14.7L13.9,14.7z"/>
		</g>
		<g>
			<path class="st4" d="M17.7,15.5c-1.1,0-1.9,0.5-2.6,1.6c0,0,0,0.1-0.1,0.2c-0.4,1.6,0.1,2.8,1.5,3.6c0,0,0.1,0,0.2,0.1
				c0.4,0.1,0.7,0.1,1,0.1c1.1,0,1.9-0.5,2.6-1.6c0,0,0-0.1,0.1-0.2c0.4-1.6-0.1-2.8-1.5-3.6c0,0-0.1,0-0.2-0.1
				C18.3,15.5,18,15.5,17.7,15.5L17.7,15.5z M17.7,19.7c-0.2,0-0.3,0-0.5-0.1c-0.1,0-0.1,0-0.2-0.1c-0.7-0.4-1-1.1-0.8-1.9
				c0-0.1,0-0.1,0.1-0.2c0.3-0.6,0.8-0.8,1.4-0.8c0.2,0,0.3,0,0.5,0.1c0.1,0,0.1,0,0.2,0.1c0.7,0.4,1,1.1,0.8,1.9
				c0,0.1,0,0.1-0.1,0.2C18.7,19.5,18.3,19.7,17.7,19.7L17.7,19.7z"/>
		</g>
	</g>
</g>
</svg>
