<svg width="37" height="37" viewBox="0 0 37 37" fill="none" xmlns="http://www.w3.org/2000/svg">
<g clip-path="url(#clip0_2183_16291)">
<path d="M17.2155 25.5745C14.0613 25.5745 11.0886 24.3702 8.81378 22.1813C4.01554 17.5456 3.87216 9.8703 8.50792 5.0625C13.1437 0.264255 20.8189 0.120881 25.6267 4.76619C27.9494 7.01238 29.2684 10.0328 29.3258 13.2635C29.3831 16.4942 28.1788 19.5528 25.9326 21.885C23.6864 24.2077 20.6756 25.5267 17.4353 25.5841C17.3589 25.5841 17.292 25.5841 17.2155 25.5841V25.5745ZM17.2155 2.80675C14.4149 2.80675 11.6239 3.89639 9.54021 6.05656C5.44927 10.2909 5.57353 17.0581 9.80784 21.1395C11.8533 23.118 14.5583 24.1695 17.4066 24.1312C20.255 24.0834 22.9122 22.9269 24.8908 20.8719C26.8693 18.8168 27.9303 16.1214 27.8825 13.273C27.8347 10.4247 26.6782 7.76749 24.6231 5.78893C22.5585 3.79125 19.8822 2.79719 17.2155 2.79719V2.80675Z" fill="#6868AC"/>
<path d="M17.2163 22.4759C14.9606 22.4759 12.7048 21.6348 10.9652 19.9525C7.94481 17.0372 7.34264 12.325 9.54103 8.7598C9.75132 8.42526 10.191 8.32012 10.5255 8.52084C10.8601 8.73112 10.9652 9.1708 10.7645 9.50534C8.91975 12.5066 9.41678 16.4638 11.9593 18.9202C14.9606 21.8164 19.7684 21.7399 22.6645 18.7291C24.0696 17.2762 24.8247 15.355 24.7864 13.3382C24.7482 11.3119 23.9262 9.42888 22.4734 8.02381C20.7146 6.332 18.239 5.58646 15.8304 6.02614C15.4385 6.1026 15.0657 5.84453 14.9988 5.45264C14.9319 5.06075 15.1804 4.68798 15.5723 4.62107C18.4207 4.09537 21.3837 4.98429 23.4674 7.00108C25.1975 8.67377 26.1724 10.92 26.2202 13.3191C26.2584 15.7278 25.3695 18.0026 23.6968 19.7327C21.9285 21.5583 19.5772 22.4759 17.2163 22.4759Z" fill="#6868AC"/>
<path d="M2.4472 31.2125C1.8068 31.2125 1.20463 30.9736 0.74583 30.5243C-0.229111 29.5876 -0.248228 28.0392 0.688481 27.0642L7.50351 20.0102C7.7807 19.7235 8.22994 19.7139 8.51669 19.9911C8.80344 20.2683 8.813 20.7175 8.53581 21.0043L1.73033 28.0583C1.33844 28.4597 1.35756 29.1001 1.75901 29.492C1.95017 29.6832 2.17001 29.7788 2.47587 29.7788C2.74351 29.7788 3.00158 29.6641 3.18318 29.4729L9.99822 22.4189C10.2754 22.1322 10.7246 22.1226 11.0114 22.3998C11.2981 22.677 11.3077 23.1262 11.0305 23.413L4.21548 30.467C3.76624 30.9353 3.15451 31.203 2.49499 31.2125C2.47587 31.2125 2.46632 31.2125 2.4472 31.2125Z" fill="#6868AC"/>
<path d="M7.80882 26.424C7.62721 26.424 7.4456 26.3571 7.31179 26.2233L4.82664 23.8242C4.53989 23.547 4.53033 23.0978 4.80752 22.811C5.08471 22.5243 5.53395 22.5147 5.8207 22.7919L8.30584 25.191C8.59259 25.4682 8.60215 25.9174 8.32496 26.2042C8.18159 26.3476 7.99998 26.424 7.80882 26.424Z" fill="#6868AC"/>
<path d="M13.2489 6.8292C13.0004 6.8292 12.7614 6.69538 12.6276 6.46598C12.4269 6.12189 12.5511 5.68221 12.8952 5.49104L13.2011 5.31899C13.5452 5.11827 13.9849 5.24253 14.176 5.58662C14.3767 5.93072 14.2525 6.3704 13.9084 6.56157L13.6025 6.73362C13.4878 6.80052 13.3731 6.8292 13.2489 6.8292Z" fill="#6868AC"/>
<path d="M12.1781 34.8455H8.0489C7.65701 34.8455 7.33203 34.5205 7.33203 34.1286V30.42C7.33203 30.0281 7.65701 29.7031 8.0489 29.7031H12.1781C12.57 29.7031 12.8949 30.0281 12.8949 30.42V34.1286C12.8949 34.5205 12.57 34.8455 12.1781 34.8455ZM8.76577 33.4117H11.4612V31.1369H8.76577V33.4117Z" fill="#6868AC"/>
<path d="M19.3734 34.8446H15.2442C14.8523 34.8446 14.5273 34.5196 14.5273 34.1277V28.3067C14.5273 27.9148 14.8523 27.5898 15.2442 27.5898H19.3734C19.7653 27.5898 20.0902 27.9148 20.0902 28.3067V34.1277C20.0902 34.5196 19.7653 34.8446 19.3734 34.8446ZM15.9611 33.4108H18.6565V29.0236H15.9611V33.4108Z" fill="#6868AC"/>
<path d="M26.6976 34.8449H22.5684C22.1765 34.8449 21.8516 34.5199 21.8516 34.128V26.252C21.8516 25.8601 22.1765 25.5352 22.5684 25.5352H26.6976C27.0895 25.5352 27.4145 25.8601 27.4145 26.252V34.128C27.4145 34.5199 27.0895 34.8449 26.6976 34.8449ZM23.2853 33.4112H25.9807V26.9689H23.2853V33.4112Z" fill="#6868AC"/>
<path d="M34.0856 34.8424H29.9565C29.5646 34.8424 29.2396 34.5174 29.2396 34.1255V24.443H27.7581C27.4809 24.443 27.2324 24.2805 27.1081 24.0416C26.9839 23.8026 27.0221 23.4968 27.1941 23.2865L31.4571 17.9339C31.7343 17.5898 32.3078 17.5898 32.5754 17.9339L36.8384 23.2865C37.0105 23.5063 37.0391 23.7931 36.9244 24.0416C36.8097 24.2901 36.5517 24.443 36.2745 24.443H34.7929V34.1255C34.7929 34.5174 34.468 34.8424 34.0761 34.8424H34.0856ZM30.6733 33.4087H33.3688V23.7262C33.3688 23.3343 33.6937 23.0093 34.0856 23.0093H34.7929L32.0211 19.5205L29.2492 23.0093H29.9565C30.3484 23.0093 30.6733 23.3343 30.6733 23.7262V33.4087Z" fill="#6868AC"/>
</g>
<defs>
<clipPath id="clip0_2183_16291">
<rect width="37" height="33.473" fill="white" transform="translate(0 1.37109)"/>
</clipPath>
</defs>
</svg>
