<?xml version="1.0" encoding="UTF-8"?>
<svg id="_圖層_1" data-name="圖層 1" xmlns="http://www.w3.org/2000/svg" width="14.1mm" height="14.1mm" version="1.1" viewBox="0 0 40 40">
  <defs>
    <style>
      .cls-1 {
        fill: #fff;
        stroke-width: 0px;
      }
    </style>
  </defs>
  <path class="cls-1" d="M20.2,30.3h0c-3.1,0-5.5-1-7.1-3-1.4-1.8-2.2-4.2-2.2-7.3h0c0-3.1.8-5.6,2.2-7.3,1.6-2,4-3,7.1-3h0c2.4,0,4.3.6,5.9,1.8,1.4,1.1,2.5,2.7,3,4.7l-1.8.5c-1-3.4-3.4-5.2-7.2-5.2-2.5,0-4.4.8-5.6,2.3-1.2,1.4-1.8,3.5-1.8,6.2,0,2.7.6,4.7,1.8,6.2,1.2,1.5,3.1,2.3,5.6,2.3,2.3,0,3.8-.5,5-1.8,1.4-1.4,1.4-3.1.9-4.1-.3-.6-.8-1.1-1.4-1.5-.2,1.2-.5,2.1-1.1,2.8-.8,1-1.8,1.5-3.2,1.5-1,0-2-.2-2.8-.7-.9-.6-1.5-1.5-1.5-2.6,0-1,.4-2,1.1-2.7.8-.7,1.8-1,3.1-1.1.9,0,1.8,0,2.6.1-.1-.6-.3-1.1-.6-1.5-.4-.5-1.1-.8-2-.8h0c-.7,0-1.7.2-2.3,1.1l-1.5-1c.8-1.3,2.2-1.9,3.9-1.9h0c2.8,0,4.4,1.7,4.6,4.6,0,0,.2,0,.3.1,1.3.6,2.2,1.5,2.7,2.6.7,1.6.8,4.1-1.3,6.2-1.6,1.6-3.5,2.3-6.3,2.3h0,0ZM21,20.3c-.2,0-.4,0-.6,0-1.6,0-2.6.8-2.5,1.8,0,1.1,1.3,1.6,2.4,1.5,1.1,0,2.4-.5,2.7-3.2-.6-.1-1.2-.2-1.9-.2Z"/>
</svg>