<svg id="圖層_1" data-name="圖層 1" xmlns="http://www.w3.org/2000/svg" width="246" height="246" viewBox="0 0 246 246">
  <defs>
    <style>
      .cls-1 {
        fill: #fff;
      }
    </style>
  </defs>
  <g>
    <path class="cls-1" d="M150.55,175.61H132a2,2,0,0,1-2-2V154.89a6.95,6.95,0,1,0-13.9,0v18.72a2,2,0,0,1-2,2H95.45a2,2,0,0,1-2-2V142.78h-9a2,2,0,0,1-1.23-3.58l38.59-30a2,2,0,0,1,2.46,0l38.59,30a2,2,0,0,1-1.23,3.58h-9v30.83A2,2,0,0,1,150.55,175.61Zm-16.6-4h14.6V140.78a2,2,0,0,1,2-2h5.21L123,113.33,90.24,138.78h5.21a2,2,0,0,1,2,2v30.83h14.6V154.89a11,11,0,1,1,21.9,0Z"/>
    <path class="cls-1" d="M151.88,86.29a2,2,0,0,1-1.37-.54,42,42,0,0,0-55.13-2,2,2,0,0,1-2.52-3.11,46,46,0,0,1,60.39,2.2,2,2,0,0,1-1.37,3.46Z"/>
    <path class="cls-1" d="M146.14,97.06a2,2,0,0,1-1.35-.52A33.93,33.93,0,0,0,101.1,95a2,2,0,1,1-2.47-3.14,37.91,37.91,0,0,1,48.85,1.75,2,2,0,0,1-1.34,3.48Z"/>
    <path class="cls-1" d="M140.41,107.89a2,2,0,0,1-1.31-.49,25.81,25.81,0,0,0-32.32-1.18,2,2,0,1,1-2.39-3.21,29.84,29.84,0,0,1,37.33,1.37,2,2,0,0,1-1.31,3.51Z"/>
  </g>
</svg>
