<?xml version="1.0" encoding="utf-8"?>
<!-- Generator: Adobe Illustrator 27.0.0, SVG Export Plug-In . SVG Version: 6.00 Build 0)  -->
<svg version="1.1" id="圖層_1" xmlns="http://www.w3.org/2000/svg" xmlns:xlink="http://www.w3.org/1999/xlink" x="0px" y="0px"
	 width="110px" height="109.5px" viewBox="0 0 110 109.5" style="enable-background:new 0 0 110 109.5;" xml:space="preserve">
<style type="text/css">
	.st0{fill:url(#SVGID_1_);}
	.st1{fill:#FFFFFF;}
	.st2{fill:url(#SVGID_00000177448648737134190510000001583269940914041000_);}
	.st3{fill:#231815;}
	.st4{fill:url(#SVGID_00000127042526292440530800000014823173874354317981_);}
	.st5{fill:url(#SVGID_00000096752072891715189480000018121208882147852716_);}
</style>
<g>
	<g>
		<g>
			<g>
				<linearGradient id="SVGID_1_" gradientUnits="userSpaceOnUse" x1="14.6341" y1="39.6092" x2="14.6341" y2="72.0031">
					<stop  offset="0" style="stop-color:#E62318"/>
					<stop  offset="1" style="stop-color:#F08F69"/>
				</linearGradient>
				<path class="st0" d="M14.6,62c-2.4,0-4.4-2-4.4-4.4c0-2.4,2-4.4,4.4-4.4c2,0,3.7,1.3,4.2,3.2h10.3c0.1-0.5,0.1-1.1,0.1-1.6
					c0-8.1-6.6-14.6-14.6-14.6C6.6,40.1,0,46.6,0,54.7c0,8.1,6.6,14.6,14.6,14.6c6.6,0,12.2-4.4,14-10.3h-9.8
					C18.2,60.8,16.6,62,14.6,62z"/>
			</g>
			<g>
				<path class="st1" d="M15.2,44.4c0.9,0,1.6-0.7,1.6-1.6c0-0.9-0.7-1.6-1.6-1.6c-0.9,0-1.6,0.7-1.6,1.6
					C13.6,43.7,14.3,44.4,15.2,44.4z"/>
				<path class="st1" d="M23.7,54.5l-2.4-4.2c-0.2-0.3-0.5-0.5-0.8-0.5c0,0,0,0,0,0h-0.3H20h-2.8l0-1.2h2.7c0.4,0,0.8-0.3,0.8-0.8
					c0-0.4-0.3-0.8-0.8-0.8h-2.8l0-1.2c0-0.9-0.8-1.5-1.6-1.5c-0.9,0-1.5,0.8-1.5,1.6l0.2,4.7c0,0.9,0.8,1.5,1.6,1.5
					c0,0,0.1,0,0.1,0c0.1,0,0.1,0,0.2,0h4.1c0,0,0,0,0,0l1.9,3.2c0.3,0.5,0.8,0.6,1.3,0.4C23.8,55.6,24,55,23.7,54.5z"/>
			</g>
			<path class="st1" d="M19.6,59.9c-0.9,1.9-2.7,3.1-4.9,3.1c-3,0-5.4-2.4-5.4-5.4c0-2.6,1.8-4.7,4.2-5.3c0,0,0,0,0,0c0,0,0,0,0,0
				l0,0c0.1-0.1,0.2-0.2,0.2-0.3c0-0.1-0.4-5.9-0.5-6.2c0-0.5-0.8-0.7-1.4-0.8c-0.2,0-0.4,0.1-0.4,0.3c0,0.2,0.1,0.4,0.3,0.4
				c0.3,0,0.7,0.1,0.8,0.2c0,0.5,0.2,3.2,0.4,4.9c-3,0.8-5.3,3.5-5.3,6.8c0,3.9,3.1,7,7,7c3.1,0,5.7-2,6.6-4.7H19.6z"/>
		</g>
		<g>
			
				<linearGradient id="SVGID_00000018930903430223911450000010279466218149072806_" gradientUnits="userSpaceOnUse" x1="69.135" y1="71.8063" x2="69.135" y2="40.0493">
				<stop  offset="0" style="stop-color:#A9CE4C"/>
				<stop  offset="1" style="stop-color:#008A3D"/>
			</linearGradient>
			<path style="fill:url(#SVGID_00000018930903430223911450000010279466218149072806_);" d="M77.1,42.9c-2.2-1.8-5.3-2.7-9.3-2.7
				H57.2v11.9v11.2v5.2h8.9v-5.1c1.1,0,2.5,0,2.9,0c3.6,0,6.1-1.1,8.4-3.3c2.3-2.2,3.7-5.1,3.7-8.6C81.1,47.9,79.8,45,77.1,42.9z"/>
			<g>
				<path class="st1" d="M72.5,55.8C72.5,55.8,72.5,55.8,72.5,55.8C72.5,55.8,72.5,55.8,72.5,55.8C72.5,55.8,72.5,55.8,72.5,55.8z"
					/>
				<path class="st3" d="M72.5,55.9L72.5,55.9L72.5,55.9z"/>
			</g>
		</g>
		<g>
			
				<linearGradient id="SVGID_00000130639344765572451820000000559295012449682835_" gradientUnits="userSpaceOnUse" x1="43.9303" y1="41.5145" x2="43.9303" y2="72.914">
				<stop  offset="0" style="stop-color:#F5AB18"/>
				<stop  offset="1" style="stop-color:#FBD480"/>
			</linearGradient>
			<path style="fill:url(#SVGID_00000130639344765572451820000000559295012449682835_);" d="M55,68.6l-4.7-11.4
				c2.4-1.9,3.7-4.3,3.7-7.1c0-2.7-1-5-3-6.8c-1.8-1.6-4.3-2.4-7.5-2.4H32.9v27.7h8.8v-3.9l2.2,3.9H55z"/>
			<path class="st1" d="M50.9,62.2l-3.5-5.9c0.3-0.3,0.3-0.7,0.1-1l-4.2-6.5c0-0.1-0.1-0.2-0.2-0.2c-0.1-0.1-0.2-0.2-0.3-0.2
				c0,0-0.1,0-0.2-0.1c0.9-0.1,1.7-0.9,1.7-1.9c0-1-0.8-1.9-1.9-1.9c-1,0-1.9,0.8-1.9,1.9c0,0.8,0.5,1.4,1.1,1.7
				c-0.5,0-1,0.2-1.3,0.5c0,0,0,0,0,0l-2.4,2c-0.1,0-0.1,0.1-0.1,0.2c-0.1,0.1-0.1,0.2-0.2,0.3l-1,3.9c-0.1,0.5,0.2,0.9,0.6,1
				c0.5,0.1,0.9-0.2,1-0.6l0.9-3.6l0,0l-0.1,3c0,0.1,0,0.1,0,0.2c0,0,0,0,0,0.1v4.3L37.8,63c-0.2,0.5,0.1,1.2,0.6,1.4
				c0.5,0.2,1.2-0.1,1.4-0.6l1.5-3.9c0-0.1,0.1-0.2,0.1-0.4c0,0,0,0,0,0v-2.4c0,0,0,0,0,0c0,0,0.1,0,0.1,0l2.3,6.8
				c0.2,0.6,0.8,0.9,1.4,0.7c0.6-0.2,0.9-0.8,0.7-1.4l-2.5-7.4c0.1-0.2,0.2-0.5,0.2-0.8l0.1-2.7l2.5,3.9c0.2,0.2,0.4,0.4,0.7,0.4
				l3.6,6c0,0.1,0.1,0.1,0.2,0.1c0,0,0.1,0,0.1,0C51,62.5,51,62.3,50.9,62.2z"/>
		</g>
		<g>
			<g>
				
					<linearGradient id="SVGID_00000044884621447350489500000004169271813669213614_" gradientUnits="userSpaceOnUse" x1="96.7274" y1="40.822" x2="96.7274" y2="72.5461">
					<stop  offset="0" style="stop-color:#2778BD"/>
					<stop  offset="1" style="stop-color:#65A9DC"/>
				</linearGradient>
				<path style="fill:url(#SVGID_00000044884621447350489500000004169271813669213614_);" d="M110,54.3c0-4.4-1.6-7.9-4.7-10.4
					c-0.7-0.6-1.5-1.1-2.4-1.5c-2.1-1.1-4.6-1.7-7.3-1.7c-0.2,0-0.4,0-0.6,0c-0.2,0-0.4,0-0.7,0H83.5v0.2v27.5v0.2h10.7
					c0.2,0,0.4,0,0.7,0c0.2,0,0.5,0,0.6,0c2.8,0,5.2-0.6,7.3-1.7c0.9-0.4,1.7-0.9,2.4-1.5c3.2-2.6,4.7-6,4.7-10.4c0-0.1,0-0.2,0-0.3
					C110,54.5,110,54.4,110,54.3z"/>
			</g>
			<g>
				<path class="st1" d="M89.8,64.8C89.8,64.8,89.7,64.8,89.8,64.8c-0.3-0.1-0.4-0.2-0.3-0.4c0,0,0.5-2.4,0.8-3.8
					c0.3-1.2,0.1-2-0.3-3c-0.3-0.7-0.7-1.4-1.1-2c-0.8-1.2-1.7-2.6-1.7-4.5c0-3.4,2.5-7.2,7-7.4c5.1-0.2,7.1,2,8.4,4.3
					c1.3,2.3,1.3,4.1,1.1,4.4c0,0.1-0.1,0.1-0.2,0.2c0,0-0.1,0.1-0.2,0.2c0,0.2,0.5,1,0.8,1.4c0.6,0.9,0.9,1.6,0.9,2
					c0,0.7-1,1-1.4,1c0,0,0,0.1,0,0.2c0,0.2,0.2,0.6,0.3,0.8c0,0.1,0.1,0.2,0.1,0.3c0,0.1-0.1,0.3-0.2,0.4c0.1,0.1,0.1,0.3,0.1,0.6
					c0,0.1,0,0.3-0.4,0.4c0,0,0,0-0.1,0c0,0,0,0,0,0.1c0.1,0.2,0.2,0.4,0.2,0.8c0,0.6-0.5,1.2-0.9,1.5c-0.4,0.3-0.9,0.3-1.4,0.3
					c-0.2,0-0.5,0-0.8-0.1c-0.2,0-0.5-0.1-0.7-0.1c-0.1,0.5-0.4,1.5-0.5,2.1c0,0.2-0.2,0.3-0.4,0.3c-0.2,0-0.3-0.2-0.3-0.4
					c0.1-0.8,0.6-2.4,0.6-2.5c0-0.1,0.1-0.2,0.2-0.2c0.2-0.1,0.6-0.1,1.2,0c0.3,0,0.5,0.1,0.7,0.1c0.5,0,0.8,0,1-0.2
					c0.3-0.2,0.6-0.5,0.6-0.9c0-0.2-0.1-0.4-0.2-0.5c-0.1-0.1-0.1-0.3-0.1-0.4c0-0.3,0.2-0.5,0.5-0.6c0-0.1-0.1-0.2-0.1-0.2
					c-0.1-0.1-0.1-0.1-0.2-0.3c0-0.1,0.1-0.2,0.1-0.3c0.1-0.1,0.1-0.1,0.1-0.1c-0.2-0.3-0.4-0.7-0.4-1.1c0-0.8,0.5-0.9,0.7-0.9
					c0.2,0,0.7-0.2,0.7-0.3c0-0.1-0.1-0.5-0.8-1.6c-0.6-0.9-0.9-1.4-1-1.7c-0.1-0.4,0.2-0.6,0.4-0.8c0,0,0,0,0,0
					c0-0.3,0-1.7-1.1-3.7c-1.3-2.2-3.1-4.1-7.7-3.9c-4.1,0.2-6.4,3.6-6.4,6.7c0,1.8,0.8,3,1.6,4.1c0.5,0.7,0.9,1.4,1.2,2.2
					c0.4,1.1,0.6,2,0.3,3.4c-0.3,1.4-0.8,3.7-0.8,3.8C90.1,64.7,89.9,64.8,89.8,64.8z"/>
			</g>
			<g>
				<path class="st1" d="M95.4,46c-0.7-0.2-1.5,0.2-1.8,0.8l0.2-0.2l0.1,0.1L93.8,47c0,0,0.1,0.1,0.1,0.1l0.3-0.2l0.1,0.1l-0.2,0.3
					c0,0,0.1,0.1,0.1,0.1l0,0c0.1-0.4,0.5-0.7,1-0.6c0.4,0.1,0.7,0.5,0.6,1c-0.1,0.4-0.5,0.7-1,0.6c0,0,0,0,0,0l-0.1,0.1
					c0,0.1,0,0.1,0,0.2l0.3,0.1l0,0.2l-0.3,0.1c0,0.1,0,0.1,0,0.2l0.3,0.1l0,0.1c0.8,0,1.5-0.5,1.6-1.3C96.9,47.1,96.3,46.2,95.4,46
					z"/>
				<path class="st1" d="M94.3,47.8c-0.2-0.3-0.4-0.5-0.8-0.7c0,0.1,0,0.1-0.1,0.2c-0.2,0.8,0.3,1.7,1.1,1.9c0,0,0,0,0,0
					c0.1-0.4,0-0.7-0.1-1C94.4,48,94.3,47.9,94.3,47.8z"/>
				<path class="st1" d="M93.3,51c0,0,0,0.1,0.1,0.1l0.1,0L93.3,51L93.3,51z"/>
				<path class="st1" d="M93.2,46.7L93.2,46.7L93,46.6l0,0.1C93.1,46.7,93.1,46.7,93.2,46.7z"/>
				<path class="st1" d="M93.2,51.3l-0.2,0l-0.1-0.3c-0.1,0-0.1,0-0.2,0l0,0.3l-0.2,0l-0.1-0.3c-0.1,0-0.1,0-0.2,0l-0.1,0.3l-0.2,0
					l0-0.3c-0.1,0-0.1,0-0.2,0l-0.2,0.3l-0.2-0.1l0.1-0.3c0,0-0.1,0-0.1-0.1l-0.2,0.2L91.1,51l0.1-0.3c0,0-0.1-0.1-0.1-0.1l-0.3,0.2
					l-0.1-0.1l0.2-0.3c0,0-0.1-0.1-0.1-0.1l-0.3,0.1l-0.1-0.1l0.2-0.2c-0.6,0.3-1,0.8-1.1,1.5c-0.1,1.1,0.7,2,1.7,2.1
					c1.1,0.1,2-0.7,2.1-1.7c0-0.3,0-0.6-0.1-0.9L93.2,51.3z M91.3,51.5l-0.2,0.1c0,0.1,0,0.1-0.1,0.1l0.1,0.2L91,52l-0.2-0.1
					c0,0-0.1,0-0.1,0.1l-0.1,0.2h-0.1l-0.1-0.2c-0.1,0-0.1,0-0.1-0.1L90,52l-0.1-0.1l0.1-0.2c0,0,0-0.1-0.1-0.1l-0.2-0.1v-0.1
					l0.2-0.1c0-0.1,0-0.1,0.1-0.1l-0.1-0.2l0.1-0.1l0.2,0.1c0,0,0.1,0,0.1-0.1l0.1-0.2h0.1l0.1,0.2c0.1,0,0.1,0,0.1,0.1l0.2-0.1
					l0.1,0.1L91,51.1c0,0,0,0.1,0.1,0.1l0.2,0.1V51.5z"/>
				<path class="st1" d="M95,48.1c0.3,0.1,0.5-0.1,0.6-0.4c0.1-0.3-0.1-0.5-0.4-0.6c-0.2,0-0.4,0.1-0.5,0.3l0,0l0,0c0,0,0,0,0,0.1
					c0,0.1,0,0.2,0,0.3l0.2-0.1l0.1,0.1L94.7,48C94.8,48,94.9,48.1,95,48.1z"/>
				<path class="st1" d="M90.5,49.9L90.5,49.9L90.5,49.9C90.5,49.9,90.5,49.9,90.5,49.9C90.5,49.9,90.5,49.9,90.5,49.9z"/>
				<path class="st1" d="M90.5,51c-0.2,0-0.4,0.2-0.4,0.4c0,0.2,0.2,0.4,0.4,0.4c0.2,0,0.4-0.2,0.4-0.4C90.9,51.2,90.7,51,90.5,51z"
					/>
				<path class="st1" d="M91.7,47.6c-0.2,0-0.4,0.2-0.4,0.4c0,0.2,0.2,0.4,0.4,0.4s0.4-0.2,0.4-0.4C92.1,47.8,91.9,47.6,91.7,47.6z"
					/>
				<path class="st1" d="M93.9,49.8l-0.2-0.1l0.2-0.5c-0.1,0-0.1-0.1-0.2-0.2l-0.4,0.3l-0.2-0.2l0.3-0.4c0-0.1-0.1-0.1-0.1-0.2
					l-0.5,0.1l-0.1-0.2l0.4-0.3c0-0.1,0-0.2-0.1-0.2l-0.5,0l0-0.2l0.5-0.1c0-0.1,0-0.2,0-0.2l-0.5-0.2l0.1-0.2l0.5,0
					c0,0,0-0.1,0-0.1c-0.1,0-0.2-0.1-0.4-0.1c-1.1-0.2-2.2,0.6-2.4,1.7c-0.1,0.4,0,0.9,0.2,1.2l0-0.2l0.1,0l0.1,0.3c0,0,0.1,0,0.1,0
					l0-0.3l0.1,0l0.1,0.3c0,0,0.1,0,0.1,0l0.1-0.3l0.1,0l0,0.3c0,0,0.1,0,0.1,0l0.1-0.3l0.1,0l0,0.3c0,0,0.1,0,0.1,0.1l0.2-0.2
					l0.1,0.1l-0.1,0.3c0,0,0.1,0.1,0.1,0.1l0.2-0.2l0.1,0.1l-0.1,0.3c0,0,0.1,0.1,0.1,0.1l0.3-0.1l0.1,0.1l-0.2,0.2
					c0,0,0.1,0.1,0.1,0.1l0.3-0.1l0,0c0.4-0.2,0.8-0.6,1-1.1l0-0.1c-0.1,0-0.2-0.1-0.2-0.1L93.9,49.8z M92.6,48.1l-0.2,0.1
					c0,0.1,0,0.1-0.1,0.2l0.1,0.2l-0.1,0.1L92,48.6c0,0-0.1,0.1-0.2,0.1l-0.1,0.2h-0.2l-0.1-0.2c-0.1,0-0.1,0-0.2-0.1l-0.2,0.1
					l-0.1-0.1l0.1-0.2c0,0-0.1-0.1-0.1-0.2l-0.2-0.1V48l0.2-0.1c0-0.1,0-0.1,0.1-0.2l-0.1-0.2l0.1-0.1l0.2,0.1c0,0,0.1-0.1,0.2-0.1
					l0.1-0.2h0.2l0.1,0.2c0.1,0,0.1,0,0.2,0.1l0.2-0.1l0.1,0.1l-0.1,0.2c0,0,0.1,0.1,0.1,0.2l0.2,0.1V48.1z"/>
				<path class="st1" d="M92.2,50.9c0.3,0,0.6,0,0.8,0c-0.3-0.5-0.8-0.9-1.4-0.9c-0.3,0-0.5,0-0.8,0.1
					C91.1,50.5,91.6,50.8,92.2,50.9z"/>
				<path class="st1" d="M96.1,50.8c-0.4,0-0.7,0.3-0.7,0.7c0,0.4,0.3,0.7,0.7,0.7c0.4,0,0.7-0.3,0.7-0.7
					C96.8,51.1,96.5,50.8,96.1,50.8z"/>
				<path class="st1" d="M98.2,47.1c0.3,0,0.6-0.2,0.6-0.5s-0.2-0.6-0.5-0.6c-0.3,0-0.6,0.2-0.6,0.5C97.7,46.8,97.9,47.1,98.2,47.1z
					"/>
				<path class="st1" d="M99.2,48.1c-0.7-0.1-1.4,0.4-1.5,1.1c-0.1,0.7,0.4,1.4,1.1,1.5c0.7,0.1,1.4-0.4,1.5-1.1
					C100.4,48.8,99.9,48.2,99.2,48.1z M99.7,50L99.5,50c0,0,0,0.1,0,0.1l0.1,0.2l-0.1,0.1l-0.2-0.1c0,0-0.1,0-0.1,0l-0.1,0.2H99
					L99,50.4c0,0-0.1,0-0.1,0l-0.2,0.1l-0.1-0.1l0.1-0.2c0,0,0-0.1,0-0.1L98.5,50v-0.1l0.2-0.1c0,0,0-0.1,0-0.1l-0.1-0.2l0.1-0.1
					l0.2,0.1c0,0,0.1,0,0.1,0l0.1-0.2h0.1l0.1,0.2c0,0,0.1,0,0.1,0l0.2-0.1l0.1,0.1l-0.1,0.2c0,0,0,0.1,0,0.1l0.2,0.1V50z"/>
				<path class="st1" d="M99.1,49.6c-0.2,0-0.3,0.1-0.3,0.3c0,0.2,0.1,0.3,0.3,0.3c0.2,0,0.3-0.1,0.3-0.3
					C99.4,49.7,99.3,49.6,99.1,49.6z"/>
				<path class="st1" d="M94.5,52.6c-0.2,0-0.3,0.1-0.3,0.3c0,0.2,0.1,0.3,0.3,0.3c0.2,0,0.3-0.1,0.3-0.3
					C94.7,52.8,94.6,52.6,94.5,52.6z"/>
				<path class="st1" d="M101.1,48.2c0-1.7-1.7-1.9-1.7-1.9c-0.3-0.8-1.4-0.8-1.4-0.8c-2.8-1.7-4.5,0.1-4.5,0.1
					c-1.1-0.3-1.4,0.4-1.4,0.4c-1.1-0.1-1.2,0.7-1.2,0.7c-1.9,0.5-1.7,2.2-1.7,2.2c-1,0.8-0.4,1.9-0.4,1.9s-0.3,0.4-0.2,1.1
					c0,0.7,0.5,0.9,0.5,0.9s-0.2,1.3,1.1,1.8c1.4,0.6,2.4-0.5,2.4-0.5c0.8,0.2,2-0.5,2-0.5c2,0.3,2.1-0.9,2.1-0.9
					c1.4-0.1,1.7-1.1,1.7-1.1c1.8,0.4,2.3-1.2,2.3-1.2s0.4,0,0.7-0.9C101.6,48.9,101.1,48.2,101.1,48.2z M97.4,46.4l0.2,0
					c0,0,0-0.1,0-0.1l-0.1-0.1l0-0.1l0.2,0.1c0,0,0,0,0-0.1l-0.1-0.1l0.1-0.1l0.1,0.1c0,0,0,0,0.1,0l-0.1-0.2l0.1,0L98,46
					c0,0,0,0,0.1,0l0-0.2l0.1,0l0,0.2c0,0,0.1,0,0.1,0l0-0.2l0.1,0l0,0.2c0,0,0.1,0,0.1,0l0.1-0.1l0.1,0l-0.1,0.2c0,0,0,0,0.1,0
					l0.1-0.1l0.1,0.1l-0.1,0.1c0,0,0,0,0,0.1l0.2-0.1l0,0.1l-0.1,0.1c0,0,0,0,0,0.1l0.2,0l0,0.1l-0.2,0c0,0,0,0.1,0,0.1l0.2,0l0,0.1
					l-0.2,0c0,0,0,0.1,0,0.1l0.1,0.1l0,0.1l-0.2-0.1c0,0,0,0,0,0.1l0.1,0.1l-0.1,0.1l-0.1-0.1c0,0,0,0-0.1,0l0.1,0.2l-0.1,0
					l-0.1-0.1c0,0,0,0-0.1,0l0,0.2l-0.1,0l0-0.2c0,0-0.1,0-0.1,0l0,0.2l-0.1,0l0-0.2c0,0,0,0-0.1,0l-0.1,0.1l-0.1,0l0.1-0.2
					c0,0,0,0-0.1,0l-0.1,0.1l-0.1-0.1l0.1-0.1c0,0,0,0,0-0.1L97.5,47l0-0.1l0.1-0.1c0,0,0,0,0-0.1l-0.2,0l0-0.1l0.2,0
					c0,0,0-0.1,0-0.1L97.4,46.4L97.4,46.4z M95.1,53L95,53c0,0,0,0,0,0.1l0.1,0.1l0,0.1l-0.1,0c0,0,0,0,0,0.1l0.1,0.1l-0.1,0.1
					l-0.1-0.1c0,0,0,0-0.1,0l0,0.1l-0.1,0l-0.1-0.1c0,0,0,0-0.1,0l0,0.1h-0.1l0-0.1c0,0,0,0-0.1,0l-0.1,0.1l-0.1,0l0-0.1
					c0,0,0,0-0.1,0L94,53.4L94,53.4l0.1-0.1c0,0,0,0,0-0.1l-0.1,0l0-0.1l0.1-0.1c0,0,0,0,0-0.1l-0.1,0v-0.1l0.1,0c0,0,0,0,0-0.1
					l-0.1-0.1l0-0.1l0.1,0c0,0,0,0,0-0.1L94,52.5l0.1-0.1l0.1,0.1c0,0,0,0,0.1,0l0-0.1l0.1,0l0.1,0.1c0,0,0,0,0.1,0l0-0.1h0.1l0,0.1
					c0,0,0,0,0.1,0l0.1-0.1l0.1,0l0,0.1c0,0,0,0,0.1,0l0.1-0.1l0.1,0.1l-0.1,0.1c0,0,0,0,0,0.1l0.1,0l0,0.1L95,52.8c0,0,0,0,0,0.1
					L95.1,53L95.1,53z M97.6,51.6l-0.4,0.1c0,0.1-0.1,0.2-0.1,0.3l0.2,0.4L97,52.6l-0.4-0.2c-0.1,0-0.2,0.1-0.3,0.1l-0.1,0.4H96
					l-0.1-0.4c-0.1,0-0.2-0.1-0.3-0.1l-0.4,0.2L95,52.4l0.2-0.4c0-0.1-0.1-0.2-0.1-0.3l-0.4-0.1v-0.3l0.4-0.1c0-0.1,0.1-0.2,0.1-0.3
					L95,50.6l0.2-0.2l0.4,0.2c0.1,0,0.2-0.1,0.3-0.1l0.1-0.4h0.3l0.1,0.4c0.1,0,0.2,0.1,0.3,0.1l0.4-0.2l0.2,0.2L97.1,51
					c0,0.1,0.1,0.2,0.1,0.3l0.4,0.1V51.6z M100.9,49.5l0,0.2l-0.4,0c0,0.1,0,0.1-0.1,0.2l0.3,0.2l-0.1,0.2l-0.4-0.1
					c0,0.1-0.1,0.1-0.1,0.2l0.2,0.3l-0.1,0.1l-0.3-0.2c0,0-0.1,0.1-0.2,0.1L100,51l-0.2,0.1l-0.2-0.3c-0.1,0-0.1,0-0.2,0.1l0,0.4
					l-0.2,0l-0.1-0.4c-0.1,0-0.1,0-0.2,0l-0.1,0.4l-0.2,0l0-0.4c-0.1,0-0.1,0-0.2-0.1l-0.2,0.3L98.1,51l0.1-0.4
					c-0.1,0-0.1-0.1-0.2-0.1l-0.3,0.2l-0.1-0.1l0.2-0.3c0,0-0.1-0.1-0.1-0.2l-0.4,0.1l-0.1-0.2l0.3-0.2c0-0.1,0-0.1-0.1-0.2l-0.4,0
					l0-0.2l0.4-0.1c0-0.1,0-0.1,0-0.2l-0.4-0.1l0-0.2l-0.4-0.2c0,0.1-0.1,0.1-0.2,0.2l0.3,0.4l-0.2,0.2l-0.4-0.3
					c-0.1,0-0.1,0.1-0.2,0.1l0.1,0.5L96,49.9l-0.3-0.4c-0.1,0-0.2,0-0.2,0.1l0,0.5l-0.2,0l-0.1-0.5c-0.1,0-0.2,0-0.2,0l0,0l0.1,0.1
					l-0.1,0.2l-0.1,0L94.7,50l0.1,0.1l-0.1,0.1l-0.3-0.1c0,0-0.1,0.1-0.1,0.1l0.2,0.3l-0.1,0.1l-0.3-0.2c0,0-0.1,0.1-0.1,0.1
					l0.1,0.3L94,51l-0.2-0.2c0,0-0.1,0.1-0.1,0.1l0.1,0.3l0,0l0,0.1l-0.3,0.1c0,0,0,0.1,0,0.1l0.3,0l0,0.1l-0.3,0.1c0,0,0,0.1,0,0.1
					l0.3,0.1l0,0.1l-0.3,0c0,0,0,0.1,0,0.1l0.3,0.1l0,0.1l-0.3,0c0,0,0,0.1-0.1,0.1l0.2,0.2L93.5,53l-0.3-0.1c0,0-0.1,0.1-0.1,0.1
					l0.2,0.2l-0.1,0.1l-0.3-0.1c0,0-0.1,0.1-0.1,0.1l0.1,0.3l-0.1,0.1l-0.2-0.2c0,0-0.1,0.1-0.1,0.1l0.1,0.3L92.5,54l-0.2-0.2
					c0,0-0.1,0-0.1,0.1l0,0.3l-0.1,0l-0.1-0.3c0,0-0.1,0-0.1,0l0,0.3l-0.1,0l-0.1-0.3c0,0-0.1,0-0.1,0l-0.1,0.3l-0.1,0l0-0.3
					c0,0-0.1,0-0.1,0l-0.1,0.3l-0.1,0l0-0.3c0,0-0.1,0-0.1-0.1L90.3,54l-0.1-0.1l0.1-0.3c0,0-0.1-0.1-0.1-0.1l-0.2,0.2l-0.1-0.1
					l0.1-0.3c0,0-0.1-0.1-0.1-0.1l-0.3,0.1l-0.1-0.1l0.2-0.2c0,0-0.1-0.1-0.1-0.1L89.3,53l-0.1-0.1l0.2-0.2c0,0,0-0.1-0.1-0.1
					l-0.3,0l0-0.1l0.3-0.1c0,0,0-0.1,0-0.1l-0.3,0l0-0.1l0.3-0.1c0,0,0-0.1,0-0.1L89,51.7l0-0.1l0.3,0c0,0,0-0.1,0-0.1l-0.3-0.1
					l0-0.1l0.3,0c0,0,0-0.1,0.1-0.1l-0.2-0.2l0.1-0.1l0.3,0.1c0,0,0.1-0.1,0.1-0.1l-0.2-0.2l0.1-0.1l0.3,0.1c0,0,0.1-0.1,0.1-0.1
					l-0.1-0.3L90,50l0.2,0.2c0,0,0.1-0.1,0.1-0.1l0-0.1l-0.1,0l-0.1-0.1l0.1-0.1l0,0l0.1-0.1l0,0l0.1,0c0,0,0-0.1-0.1-0.1l-0.3,0
					l0-0.2l0.3-0.1c0-0.1,0-0.1,0-0.2l-0.3,0l0-0.2l0.3-0.1c0-0.1,0-0.1,0-0.2L90,48.5l0-0.2l0.3,0c0-0.1,0-0.1,0-0.2L90.1,48
					l0.1-0.2l0.3,0.1c0,0,0-0.1,0.1-0.1l-0.2-0.2l0.1-0.1l0.3,0.1c0,0,0.1-0.1,0.1-0.1l-0.2-0.3l0.1-0.1l0.3,0.2
					c0,0,0.1-0.1,0.1-0.1l-0.1-0.3l0.1-0.1l0.2,0.2c0,0,0.1-0.1,0.1-0.1l-0.1-0.3l0.1-0.1l0.2,0.3c0,0,0.1,0,0.1-0.1l0-0.3l0.2,0
					l0.1,0.3c0.1,0,0.1,0,0.2,0l0.1-0.3l0.2,0l0.1,0.3c0.1,0,0.1,0,0.2,0l0.1-0.3l0.1,0l0-0.1l0.5,0.2c0-0.1,0.1-0.1,0.2-0.2
					l-0.3-0.4l0.2-0.2l0.4,0.3c0.1,0,0.1-0.1,0.2-0.1L94,45.4l0.2-0.1l0.3,0.4c0.1,0,0.2,0,0.2-0.1l0-0.5l0.2,0l0.1,0.5
					c0.1,0,0.2,0,0.2,0l0.2-0.5l0.2,0.1l0,0.5c0.1,0,0.2,0.1,0.2,0.1l0.3-0.4l0.2,0.1L96.2,46c0.1,0,0.1,0.1,0.2,0.2l0.4-0.3
					l0.2,0.2l-0.3,0.4c0,0.1,0.1,0.1,0.1,0.2l0.5-0.1l0.1,0.2L97,47c0,0.1,0,0.2,0.1,0.2l0.5,0l0,0.2l-0.5,0.1c0,0.1,0,0.2,0,0.2
					l0.5,0.2l-0.1,0.2l-0.5,0c0,0.1-0.1,0.2-0.1,0.2l0.4,0.3l-0.1,0.2l0.4,0c0-0.1,0-0.1,0.1-0.2l-0.3-0.2l0.1-0.2l0.4,0.1
					c0-0.1,0.1-0.1,0.1-0.2L97.6,48l0.1-0.1l0.3,0.2c0,0,0.1-0.1,0.2-0.1l-0.1-0.4l0.2-0.1l0.2,0.3c0.1,0,0.1,0,0.2-0.1l0-0.4l0.2,0
					l0.1,0.4c0.1,0,0.1,0,0.2,0l0.1-0.4l0.2,0l0,0.4c0.1,0,0.1,0,0.2,0.1l0.2-0.3l0.2,0.1L99.8,48c0.1,0,0.1,0.1,0.2,0.1l0.3-0.2
					l0.1,0.1l-0.2,0.3c0,0,0.1,0.1,0.1,0.2l0.4-0.1l0.1,0.2l-0.3,0.2c0,0.1,0,0.1,0.1,0.2l0.4,0l0,0.2l-0.4,0.1c0,0.1,0,0.1,0,0.2
					L100.9,49.5z"/>
			</g>
		</g>
		<g>
			<path class="st1" d="M74.2,44.7c0-0.1-0.1-0.3-0.2-0.4c-0.1-0.1-0.2-0.2-0.4-0.2c-0.1,0-0.3,0.1-0.4,0.2l-6.5,6.5
				c-0.2,0.2-0.2,0.6,0,0.8c0.2,0.2,0.6,0.2,0.8,0l6.5-6.5C74.1,45,74.2,44.8,74.2,44.7z"/>
			<g>
				<path class="st1" d="M63.8,47.4C63.8,47.4,63.9,47.4,63.8,47.4l0-0.1l0,0l0.1-0.1c0.1-0.2,0.2-0.4,0.4-0.6c0,0,0.1-0.1,0.1-0.1
					l0-0.1c0,0,0,0,0,0l0-0.1c0,0,0,0,0,0c0-0.1,0.1-0.1,0.1-0.2c0.2-0.2,0.3-0.3,0.5-0.5l0.2-0.2c0.1-0.1,0.2-0.1,0.3-0.2
					c0.2-0.1,0.4-0.2,0.6-0.3l0.1,0c0.1,0,0.1,0,0.2-0.1c0.1,0,0.2-0.1,0.4-0.1c0.1,0,0.2-0.1,0.4-0.1l0,0c0,0,0.1,0,0.1,0l0.1,0
					c0.2,0,0.5,0,0.8,0c0.1,0,0.1,0,0.2,0l0.1,0c0.1,0,0.2,0,0.3,0.1l0.1,0c0.2,0.1,0.5,0.1,0.7,0.2l0.3,0.1
					c0.1,0.1,0.2,0.1,0.3,0.2l0,0c0.2,0.1,0.4,0.2,0.6,0.4l0.1,0.1l0,0c0,0,0.1,0.1,0.1,0.1c0,0,0,0,0,0l0.8-0.8
					c-0.1-0.1-0.3-0.2-0.4-0.4c-0.9-0.7-2-1.1-3.2-1.2c-2.2-0.1-4.5,1.2-5.4,3.3c-0.1,0.3-0.2,0.6-0.3,0.8c0,0.1,0,0.3,0.1,0.4
					c0.1,0.1,0.2,0.2,0.3,0.3c0.3,0.1,0.6-0.1,0.7-0.4C63.8,47.7,63.8,47.5,63.8,47.4z"/>
				<path class="st1" d="M73.2,46.5l-0.8,0.8c0.1,0.1,0.1,0.3,0.1,0.4c0.1,0.3,0.1,0.5,0.2,0.8l0,0.1c0,0.1,0,0.1,0,0.2
					c0,0.1,0,0.3,0,0.4c0,0.1,0,0.3,0,0.4c0,0.1,0,0.1,0,0.2l0,0.1c0,0.3-0.1,0.5-0.2,0.8c0,0.1-0.1,0.2-0.1,0.4l0,0.1
					c0,0.1-0.1,0.1-0.1,0.2c-0.3,0.5-0.6,1-0.9,1.4c-0.2,0.2-0.3,0.5-0.5,0.7l0,0c-0.5,0.6-0.9,1.3-1.3,1.9
					c-0.1,0.2-0.3,0.5-0.4,0.8c-0.1,0.1-0.1,0.3-0.2,0.4c0,0.1-0.1,0.2-0.1,0.4c0,0.1-0.1,0.1-0.1,0.2l-0.4,0.9
					c-0.1,0.1-0.1,0.2-0.2,0.3l0,0.1c0,0-0.1,0.1-0.1,0.1c0,0-0.1,0.1-0.1,0.1l0.1,0.1L68,58.7c0,0,0,0,0,0
					c-0.1,0.1-0.2,0.1-0.3,0.2c0,0,0,0-0.1,0l-0.1,0l0.1,0.1l-0.1-0.1l0.1,0.1h0l-0.1-0.1c-0.1,0-0.2,0.1-0.3,0.1
					c-0.1,0-0.1,0-0.2,0L67,59c-0.2,0-0.4,0-0.6,0l-0.2,0c-0.1,0-0.2,0-0.3-0.1l-0.1,0c0,0-0.1,0-0.1-0.1c0,0-0.1-0.1-0.1-0.1
					l-0.1,0c0,0,0,0,0,0l0,0c0,0-0.1-0.1-0.1-0.1l0,0c0,0,0,0,0,0c0,0-0.1-0.1-0.1-0.1c0,0-0.1-0.1-0.1-0.1L65,58.4l0.1-0.1l0-0.1
					C65,58.2,65,58.1,64.9,58c0,0,0-0.1,0-0.1c0,0,0,0,0-0.1c0,0,0-0.1,0-0.1c0-0.1-0.1-0.2-0.1-0.3c0,0,0,0,0,0l0-0.1
					c0,0,0-0.1,0-0.1c0-0.2-0.1-0.3-0.2-0.4c-0.1-0.1-0.2-0.2-0.4-0.1c-0.3,0-0.6,0.2-0.6,0.6c0,1.2,0.8,2.3,1.8,2.8
					c0.4,0.2,0.9,0.3,1.3,0.3c0.6,0,1.1-0.1,1.6-0.4c0.5-0.3,0.9-0.7,1.1-1.2c0,0,0-0.1,0.1-0.1l0,0l0-0.2l0.2-0.6
					c0.1-0.3,0.3-0.6,0.4-0.9c0-0.1,0.1-0.2,0.1-0.3l0.1-0.2c0-0.1,0.1-0.1,0.1-0.2c0.1-0.2,0.3-0.5,0.4-0.7c0.3-0.5,0.6-0.9,1-1.4
					l0,0l-0.1-0.1l0.1,0.1c0.7-0.9,1.4-1.9,1.8-3.1c0.3-1.1,0.3-2.4,0-3.5C73.5,47.1,73.3,46.8,73.2,46.5z"/>
			</g>
			<g>
				<path class="st1" d="M67.7,55.1c-0.3-0.1-0.6,0.1-0.7,0.4l-0.1,0.1c0,0,0,0,0,0l-0.2,0l-0.1,0c0,0,0,0-0.1,0l0,0c0,0,0,0,0,0
					l-0.1-0.1c0,0,0,0,0,0l0,0c0,0,0-0.1-0.1-0.1l0,0c0,0,0-0.1,0-0.2l0-0.1c0,0,0-0.1,0-0.2l0,0c0-0.1,0-0.1,0-0.2c0,0,0,0,0-0.1
					c0-0.1,0-0.1,0-0.2c0.1-0.3,0.1-0.6,0.2-0.8c0.1-0.4,0.3-0.9,0.3-1.3c-0.1,0-0.2-0.1-0.3-0.2c-0.2-0.2-0.3-0.4-0.3-0.7
					c0-0.2,0.1-0.4,0.2-0.6c-0.1-0.1-0.1-0.2-0.2-0.3c-0.1-0.1-0.2-0.3-0.3-0.4c0-0.1-0.1-0.1-0.1-0.2l0-0.1c0-0.1,0-0.1-0.1-0.2
					l0-0.1c0-0.1,0-0.3,0-0.4l0-0.1c0,0,0,0,0,0l0-0.1c0,0,0-0.1,0-0.1c0-0.1,0-0.1,0.1-0.2l0,0c0,0,0-0.1,0.1-0.1l0-0.1
					c0-0.1,0.1-0.1,0.1-0.2c0,0,0.1-0.1,0.1-0.2l0.1-0.1c0,0,0.1-0.1,0.1-0.1l0,0c0-0.1,0.1-0.1,0.1-0.1l0,0c0,0,0,0,0.1,0
					c0.1,0,0.1-0.1,0.2-0.1l0.1,0c0.1,0,0.1-0.1,0.2-0.1c0.1,0,0.1,0,0.2,0l0.1,0c0.2,0,0.3,0,0.5,0c0,0,0,0,0,0l0,0l0,0
					c0,0,0.1,0,0.1,0c0,0,0.1,0,0.1,0c0.1,0,0.3,0.1,0.4,0.1l0.1,0c0.1,0,0.1,0.1,0.2,0.1c0.1,0,0.1,0.1,0.2,0.1l0.1,0.1
					c0,0,0.1,0.1,0.1,0.1l0.8-0.8c-0.6-0.6-1.5-0.9-2.3-0.9c-0.5,0-1,0.1-1.5,0.3c-1.2,0.6-1.9,2.2-1.5,3.6c0.1,0.4,0.3,0.7,0.5,1
					c0.1,0.2,0.2,0.3,0.3,0.4c0,0,0,0,0,0.1l0,0c0,0,0,0.1,0,0.1c0,0,0,0.1,0,0.1l0,0.1c0,0,0,0.1,0,0.1c0,0.1,0,0.2,0,0.3l0,0.1
					c-0.1,0.3-0.1,0.5-0.2,0.7c0,0.1-0.1,0.2-0.1,0.3c-0.1,0.3-0.2,0.6-0.3,0.9c-0.1,0.6-0.1,1,0.1,1.4c0.2,0.5,0.5,0.9,0.8,1.1
					c0.2,0.1,0.5,0.2,0.8,0.2c0.2,0,0.4,0,0.6-0.1c0.4-0.2,0.7-0.5,0.8-0.8c0-0.1,0-0.3-0.1-0.4C68,55.2,67.8,55.1,67.7,55.1z"/>
				<path class="st1" d="M70,49.8C69.9,49.8,69.9,49.9,70,49.8l0,0.1c0,0.2-0.1,0.3-0.1,0.5l0,0.1l0.1,0v0l-0.1,0
					c0,0.1-0.1,0.2-0.1,0.3c-0.1,0.1-0.1,0.3,0,0.5c0,0.1,0.1,0.3,0.3,0.3c0.2,0.1,0.6,0.1,0.8-0.2c0.5-0.8,0.6-1.8,0.4-2.7L70,49.8
					z"/>
				<path class="st1" d="M68.6,51.1L68,51.8c0,0,0.1,0,0.1,0c0,0,0.1,0.1,0.1,0.1l0.1,0.1c0,0.1,0.1,0.1,0.1,0.2l0,0.1
					c0,0,0,0,0,0.1c0,0,0,0.1,0,0.1c0,0,0,0.1,0,0.1l0,0.1c0,0.1,0,0.2,0,0.3l0,0l0,0.1c0,0.1,0,0.1,0,0.2l0,0.1
					c-0.1,0.2-0.1,0.5,0.2,0.6c0.1,0.1,0.3,0.1,0.4,0c0.1,0,0.2-0.1,0.2-0.2c0.3-0.7,0.3-1.6-0.2-2.2C68.9,51.3,68.8,51.2,68.6,51.1
					z"/>
			</g>
		</g>
	</g>
</g>
</svg>
