<?xml version="1.0" encoding="UTF-8"?>
<svg id="_層_1" data-name="圖層 1" xmlns="http://www.w3.org/2000/svg" width="56" height="56" viewBox="0 0 56 56">
  <defs>
    <style>
      .cls-1 {
        fill: #fff;
      }
    </style>
  </defs>
  <path class="cls-1" d="M15.48,33.47c-3.21,0-5.93-1.03-8.18-3.09-2.24-2.06-3.36-4.57-3.36-7.52,0-2.61,.91-4.91,2.73-6.89,1.82-1.98,4.14-3.17,6.95-3.57,.73-3.25,2.44-5.91,5.14-7.97,2.7-2.06,5.82-3.09,9.35-3.09,4.08,0,7.53,1.37,10.34,4.1,2.81,2.73,4.21,6.01,4.21,9.83v1.21c2.62-.07,4.85,.71,6.67,2.34,1.82,1.63,2.73,3.68,2.73,6.16,0,2.31-.91,4.31-2.73,5.98s-3.99,2.51-6.51,2.51H15.48Z"/>
  <g>
    <g>
      <path d="M41.31,16.47c0,.36,.15,.71,.41,.96,.26,.25,.62,.4,.97,.38,2.3-.05,4.18,.6,5.74,2,1.54,1.37,2.29,3.06,2.29,5.16,0,1.94-.75,3.57-2.3,4.99-1.47,1.35-3.17,2.05-5.18,2.14h-.24v2.69h.26c2.68-.11,5.02-1.06,6.98-2.86,2.1-1.93,3.17-4.28,3.17-6.97,0-2.87-1.07-5.28-3.18-7.16h0c-1.75-1.56-3.84-2.44-6.22-2.64-.02-4.14-1.58-7.73-4.62-10.69-3.05-2.97-6.85-4.48-11.27-4.48-3.82,0-7.24,1.13-10.17,3.37-2.69,2.06-4.51,4.7-5.41,7.86-2.71,.56-5.02,1.85-6.85,3.83-2.05,2.22-3.09,4.85-3.09,7.8,0,3.33,1.28,6.19,3.8,8.5,1.95,1.8,4.29,2.9,6.95,3.28l.28,.04v-2.7l-.21-.03c-1.99-.34-3.69-1.18-5.21-2.57-1.97-1.81-2.93-3.95-2.93-6.53,0-2.29,.78-4.24,2.38-5.98,1.62-1.76,3.63-2.79,6.15-3.15,.55-.08,1-.49,1.12-1.03,.66-2.96,2.18-5.31,4.65-7.2,2.45-1.87,5.32-2.81,8.54-2.81,3.75,0,6.83,1.22,9.4,3.72,2.56,2.49,3.8,5.39,3.8,8.87v1.21Z"/>
      <path d="M16.31,42.39c.74,0,1.34-.6,1.34-1.34v-14.14c0-.74-.6-1.34-1.34-1.34s-1.34,.6-1.34,1.34v12.8h-1.61c-.59-2.04-2.45-3.55-4.68-3.55-2.7,0-4.89,2.2-4.89,4.89s2.19,4.89,4.89,4.89c2.23,0,4.09-1.51,4.68-3.55h2.95Z"/>
      <path d="M24.38,25.56c-.74,0-1.34,.6-1.34,1.34v14.87l-2.86,3.34c-.62-.29-1.31-.46-2.04-.46-2.7,0-4.89,2.19-4.89,4.89s2.19,4.89,4.89,4.89,4.89-2.2,4.89-4.89c0-.99-.3-1.92-.81-2.69l3.18-3.71c.21-.24,.32-.55,.32-.87v-15.36c0-.74-.6-1.34-1.34-1.34Z"/>
      <path d="M33.38,46.43V26.91c0-.74-.6-1.34-1.34-1.34s-1.34,.6-1.34,1.34v19.52c-2.04,.59-3.55,2.45-3.55,4.68,0,2.7,2.19,4.89,4.89,4.89s4.89-2.2,4.89-4.89c0-2.23-1.51-4.09-3.55-4.68Z"/>
      <path d="M48.15,36.31c-2.18,0-4.02,1.45-4.64,3.43h-2.46v-12.83c0-.74-.6-1.34-1.34-1.34s-1.34,.6-1.34,1.34v14.18c0,.74,.6,1.34,1.34,1.34h3.73c.55,2.11,2.45,3.67,4.72,3.67,2.7,0,4.89-2.2,4.89-4.89s-2.19-4.89-4.89-4.89Z"/>
    </g>
    <circle class="cls-1" cx="48.15" cy="41.2" r="2.47"/>
  </g>
  <circle class="cls-1" cx="8.68" cy="41.04" r="2.47"/>
  <circle class="cls-1" cx="18.13" cy="49.55" r="2.47"/>
  <circle class="cls-1" cx="32.04" cy="51.11" r="2.47"/>
</svg>