<svg xmlns="http://www.w3.org/2000/svg" width="56" height="56" viewBox="0 0 56 56">
  <defs>
    <style>
      .cls-1 {
        fill: #fff;
      }
    </style>
  </defs>
  <g id="圖層_1" data-name="圖層 1">
    <g>
      <path class="cls-1" d="M15.48,33.47a11.66,11.66,0,0,1-8.18-3.1A10.07,10.07,0,0,1,6.67,16a11.3,11.3,0,0,1,7-3.57,13.49,13.49,0,0,1,5.14-8,15,15,0,0,1,9.35-3.09,14.28,14.28,0,0,1,10.34,4.1,13.26,13.26,0,0,1,4.21,9.83v1.2a9.36,9.36,0,0,1,6.67,2.34,8.11,8.11,0,0,1,0,12.14,9.29,9.29,0,0,1-6.51,2.52Z"/>
      <g>
        <g>
          <path d="M41.31,16.47a1.38,1.38,0,0,0,.41,1,1.33,1.33,0,0,0,1,.38,8,8,0,0,1,5.74,2A6.57,6.57,0,0,1,50.72,25a6.49,6.49,0,0,1-2.3,5,7.8,7.8,0,0,1-5.18,2.14H43V34.8h.26a10.66,10.66,0,0,0,7-2.85,9.44,9.44,0,0,0,0-14.13h0A10.41,10.41,0,0,0,44,15.17,14.58,14.58,0,0,0,39.38,4.48,15.61,15.61,0,0,0,28.11,0,16.35,16.35,0,0,0,17.94,3.37a14.82,14.82,0,0,0-5.41,7.86,12.61,12.61,0,0,0-6.85,3.83,11.4,11.4,0,0,0,.71,16.3,12.82,12.82,0,0,0,7,3.29l.28,0V32l-.21,0a9.88,9.88,0,0,1-5.2-2.56,8.72,8.72,0,0,1-.55-12.51,9.92,9.92,0,0,1,6.15-3.15,1.34,1.34,0,0,0,1.12-1,12,12,0,0,1,4.64-7.2,13.73,13.73,0,0,1,8.54-2.81,12.86,12.86,0,0,1,9.4,3.71,11.83,11.83,0,0,1,3.8,8.87Z"/>
          <path d="M16.31,42.39A1.34,1.34,0,0,0,17.65,41V26.91a1.34,1.34,0,1,0-2.68,0V39.7H13.36a4.9,4.9,0,1,0,0,2.69Z"/>
          <path d="M24.38,25.56A1.36,1.36,0,0,0,23,26.91V41.77l-2.86,3.34a4.8,4.8,0,0,0-2-.46,4.92,4.92,0,1,0,4.08,2.2l3.19-3.7a1.36,1.36,0,0,0,.32-.88V26.91A1.35,1.35,0,0,0,24.38,25.56Z"/>
          <path d="M33.38,46.43V26.91a1.34,1.34,0,1,0-2.68,0V46.43a4.89,4.89,0,1,0,2.68,0Z"/>
          <path d="M48.15,36.31a4.88,4.88,0,0,0-4.64,3.43H41.05V26.91a1.35,1.35,0,1,0-2.69,0V41.08a1.34,1.34,0,0,0,1.34,1.34h3.73a4.88,4.88,0,1,0,4.72-6.11Z"/>
        </g>
        <circle class="cls-1" cx="48.15" cy="41.2" r="2.47"/>
      </g>
      <circle class="cls-1" cx="8.68" cy="41.04" r="2.47"/>
      <circle class="cls-1" cx="18.13" cy="49.55" r="2.47"/>
      <circle class="cls-1" cx="32.04" cy="51.11" r="2.47"/>
    </g>
  </g>
</svg>
