<?xml version="1.0" encoding="utf-8"?>
<!-- Generator: Adobe Illustrator 26.3.1, SVG Export Plug-In . SVG Version: 6.00 Build 0)  -->
<svg version="1.1" id="圖層_1" xmlns="http://www.w3.org/2000/svg" xmlns:xlink="http://www.w3.org/1999/xlink" x="0px" y="0px"
	 viewBox="0 0 158.7 158.7" style="enable-background:new 0 0 158.7 158.7;" xml:space="preserve">
<style type="text/css">
	.st0{fill:none;}
	.st1{fill:#FFFFFF;}
</style>
<g id="圖層_2_00000021811471498611425280000016690786996913438641_">
	<g id="圖層_1-2">
		<g>
			<circle class="st0" cx="45.2" cy="84.3" r="11.1"/>
			<g>
				<path class="st1" d="M77,80.4c-1-0.4-1.8-1.2-2.1-2.3c-0.4-2.1-1.1-4.2-2-6.2c-0.5-1-0.4-2.2,0.3-3.1l4.3-6.2
					c-0.5-0.8-1.1-1.6-1.7-2.4l-7.1,2.1c-1,0.3-2.1,0-2.9-0.7c-1.6-1.5-3.4-2.8-5.3-3.9c-0.9-0.5-1.5-1.5-1.6-2.6l-0.1-7.5
					C57.9,47.3,57,47,56,46.8l-4.5,6c-0.7,0.9-1.8,1.4-2.9,1.2c-2.2-0.3-4.4-0.3-6.6,0c-1.1,0.1-2.2-0.3-2.9-1.2l-4.5-6
					c-0.9,0.3-1.9,0.6-2.9,0.9v7.5c0,1.1-0.6,2.1-1.6,2.6c-2,1.1-3.8,2.4-5.4,3.9c-0.8,0.7-2,0.9-3,0.6l-7.2-2.2
					c-0.6,0.8-1.2,1.6-1.7,2.4l4.3,6.2c0.6,0.9,0.7,2.1,0.3,3.1c-0.9,2-1.6,4.1-2,6.2c-0.2,1.1-1,1.9-2,2.3l-7.1,2.5
					c0,0.5,0,0.9,0,1.5s0,1,0,1.5l7.1,2.3c1,0.4,1.8,1.2,2,2.3c0.4,2.2,1.1,4.3,2,6.3c0.5,1,0.4,2.2-0.3,3.1l-4.3,6.2
					c0.5,0.8,1.1,1.6,1.7,2.4l7.2-2.2c1-0.3,2.2-0.1,3,0.7c1.6,1.5,3.4,2.8,5.3,3.9c1,0.5,1.6,1.6,1.6,2.7v7.5
					c0.9,0.3,1.8,0.6,2.9,0.9l4.5-6c0.7-0.9,1.8-1.3,2.9-1.2c2.2,0.3,4.4,0.3,6.6,0h0.3c1,0,1.9,0.5,2.5,1.2l4.5,6
					c0.9-0.3,1.9-0.5,2.9-0.9l0.1-7.5c0-1.1,0.6-2.1,1.6-2.7c1.9-1.1,3.7-2.4,5.3-3.9c0.8-0.7,1.9-0.9,2.9-0.7l7.2,2.2
					c0.6-0.8,1.2-1.5,1.7-2.4l-4.3-6.2c-0.6-0.9-0.7-2.1-0.2-3.1c0.9-2,1.6-4.1,2-6.2c0.2-1.1,1-1.9,2.1-2.3l7.1-2.5
					c0-0.5,0-1,0-1.5c0-0.5,0-1,0-1.5L77,80.4z M45.2,101.7c-9.6,0-17.4-7.7-17.4-17.3c0-9.6,7.7-17.4,17.3-17.4s17.4,7.7,17.4,17.3
					c0,0,0,0,0,0.1C62.5,93.9,54.8,101.7,45.2,101.7z"/>
				<path class="st1" d="M110.4,46c1.2,0.8,9.1,5.4,10.4,6c1.1,0.4,1.8,1.4,2,2.5l0.5,3.7c1,0.1,1.9,0.1,2.9,0l0.5-3.7
					c0.1-1.1,0.9-2.1,2-2.5c1.3-0.6,9.2-5.2,10.4-6c0.9-0.7,2.1-0.9,3.2-0.5l3.5,1.5c0.3-0.4,0.5-0.8,0.7-1.2l0.7-1.2l-2.9-2.3
					c-0.9-0.7-1.3-1.8-1.2-2.9c0-1.4,0-10.6,0-12c-0.1-1.1,0.3-2.2,1.2-2.9l2.9-2.3c-0.4-0.8-0.8-1.6-1.4-2.4l-3.5,1.4
					c-1.1,0.4-2.3,0.3-3.2-0.5c-1.3-1-9.2-5.6-10.4-6.2c-1.1-0.4-1.9-1.4-2-2.5l-0.6-3.7c-1-0.1-1.9-0.1-2.9,0l-0.5,3.7
					c-0.1,1.1-0.9,2.1-2,2.5c-1.1,0.6-9,5.2-10.2,6c-0.9,0.7-2.1,0.9-3.2,0.5l-3.5-1.4c-0.2,0.3-0.5,0.7-0.7,1.2
					c-0.3,0.5-0.5,0.8-0.6,1.2l2.9,2.3c0.9,0.7,1.3,1.8,1.2,2.9c0,1.4,0,10.5,0,12c0.1,1.1-0.3,2.2-1.2,2.9l-2.9,2.3
					c0.4,0.8,0.8,1.6,1.4,2.4l3.5-1.4C108.4,45,109.6,45.2,110.4,46z M115.4,28c3-5.1,9.5-6.9,14.6-3.9c5.1,3,6.9,9.5,3.9,14.6
					c-3,5.1-9.5,6.9-14.6,3.9C114.2,39.7,112.4,33.2,115.4,28C115.3,28,115.4,28,115.4,28z"/>
				<path class="st1" d="M122.4,37.3c2.1,1.2,4.9,0.5,6.1-1.6c0.6-1,0.8-2.2,0.5-3.4c-0.5-2-2.3-3.3-4.3-3.3c-0.4,0-0.8,0.1-1.1,0.1
					c-1.1,0.3-2.1,1.1-2.7,2.1C119.6,33.3,120.3,36,122.4,37.3z"/>
				<path class="st1" d="M131.6,121.3c-0.7-0.4-1.4-0.6-2.2-0.6c-0.4-0.1-0.8-0.1-1.2,0c-1.1,0.3-2.1,1.1-2.7,2.1
					c-1.2,2.1-0.5,4.9,1.7,6.1c1,0.6,2.2,0.7,3.3,0.4c2.4-0.7,3.7-3.2,2.9-5.6C133.2,122.7,132.6,121.8,131.6,121.3z"/>
				<path class="st1" d="M148.8,134.1c-0.9-0.7-1.3-1.8-1.2-2.9c0-1.4,0-10.5,0-11.9c-0.2-1.1,0.3-2.2,1.2-2.9l2.9-2.3
					c-0.4-0.8-0.9-1.6-1.4-2.4l-3.5,1.5c-1.1,0.4-2.3,0.3-3.1-0.5c-1.2-0.8-9.1-5.4-10.4-6c-1.1-0.4-1.8-1.4-2-2.5l-0.5-3.7
					c-1-0.1-1.9-0.1-2.9,0l-0.5,3.7c-0.1,1.1-0.9,2.1-2,2.5c-1.3,0.6-9.2,5.2-10.3,6c-0.9,0.7-2.1,0.9-3.2,0.5l-3.3-1.7
					c-0.3,0.4-0.5,0.8-0.7,1.2c-0.2,0.4-0.5,0.8-0.7,1.2l3,2.3c0.9,0.7,1.3,1.8,1.2,2.9c0,1.4,0,10.5,0,11.9
					c0.1,1.1-0.3,2.2-1.2,2.9l-2.9,2.3c0.4,0.9,0.8,1.7,1.4,2.4l3.5-1.5c1.1-0.4,2.3-0.3,3.1,0.5c1.2,0.8,9.1,5.4,10.4,6
					c1.1,0.4,1.8,1.4,2,2.5l0.5,3.7c1,0.1,1.9,0.1,2.9,0l0.5-3.7c0.1-1.1,0.9-2.1,2-2.5c1.3-0.6,9.2-5.2,10.4-6
					c0.9-0.7,2.1-0.9,3.1-0.5l3.5,1.5l0.7-1.2c0.3-0.5,0.5-0.9,0.6-1.2L148.8,134.1z M138.9,130.5c-1.4,2.5-3.8,4.3-6.5,5
					c-0.9,0.3-1.9,0.4-2.9,0.4c-5.9,0-10.7-4.8-10.7-10.7c0-1.9,0.5-3.7,1.4-5.4c3.1-5,9.8-6.6,14.8-3.4c4.8,3,6.4,9.2,3.8,14.1
					H138.9z"/>
			</g>
			<g>
				<path d="M88.1,77.6l-7.4-2.6c-0.4-1.4-0.8-2.8-1.3-4.1l4.5-6.4c0.7-1,0.7-2.4,0-3.4c-1.4-2.3-3-4.5-4.7-6.5
					c-0.8-0.8-2-1.2-3.1-0.9L68.5,56c-1.1-0.9-2.3-1.8-3.5-2.5l-0.1-7.9c0-1.2-0.7-2.4-1.9-2.9c-2.5-1-5-1.9-7.6-2.5
					c-1.2-0.3-2.4,0.2-3.2,1.1l-4.8,6.3c-1.4-0.1-2.9-0.1-4.3,0l-4.8-6.3c-0.7-1-2-1.4-3.2-1.1c-2.6,0.6-5.2,1.4-7.6,2.5
					c-1.2,0.5-1.9,1.6-1.9,2.9v7.9c-1.2,0.8-2.4,1.6-3.5,2.5l-7.8-2.3c-1.2-0.3-2.5,0-3.3,0.9c-1.8,2-3.3,4.2-4.7,6.5
					c-0.7,1-0.7,2.4,0,3.4l4.7,6.4c-0.5,1.3-1,2.7-1.3,4.1l-7.4,2.6c-1.2,0.4-2,1.5-2.1,2.7c0,1.3-0.2,2.6-0.2,4s0,2.7,0.2,4
					c0.1,1.2,0.9,2.2,2.1,2.7l7.4,2.6c0.4,1.4,0.8,2.8,1.3,4.1l-4.5,6.5c-0.7,1-0.7,2.4,0,3.4c1.4,2.3,3,4.5,4.7,6.5
					c0.8,0.8,1.9,1.2,3.1,0.9l7.5-2.3c1.1,0.9,2.3,1.8,3.5,2.5v7.9c0,1.3,0.8,2.4,1.9,2.9c2.5,1,5,1.9,7.6,2.5
					c1.2,0.3,2.4-0.2,3.2-1.1l4.9-6.3c1.4,0.1,2.9,0.1,4.3,0l4.8,6.3c0.6,0.8,1.5,1.2,2.5,1.2h0.7c2.7-0.6,5.3-1.5,7.8-2.5
					c1.1-0.5,1.9-1.6,1.9-2.9l0.1-7.9c1.2-0.8,2.4-1.6,3.5-2.5l7.5,2.3c1.2,0.4,2.5,0,3.3-0.9c1.8-2,3.3-4.2,4.7-6.5
					c0.7-1,0.7-2.4,0-3.4l-4.5-6.4c0.5-1.3,1-2.7,1.3-4.1l7.4-2.6c1.2-0.4,2-1.5,2.1-2.7c0-1.3,0.2-2.6,0.2-4c0-1.3,0-2.7-0.2-4
					C90.2,79,89.3,78,88.1,77.6z M84.1,85.8L77,88.2c-1,0.3-1.8,1.2-2.1,2.3c-0.4,2.1-1.1,4.2-2,6.2c-0.5,1-0.4,2.2,0.3,3.1l4.3,6.2
					c-0.5,0.8-1.1,1.6-1.7,2.4l-7.1-2.2c-1-0.3-2.1,0-2.9,0.7c-1.6,1.5-3.4,2.8-5.3,3.9c-1,0.6-1.6,1.6-1.6,2.7l-0.1,7.5
					c-0.9,0.3-1.8,0.6-2.9,0.9l-4.5-6c-0.6-0.8-1.5-1.2-2.5-1.2h-0.3c-2.2,0.3-4.4,0.3-6.6,0c-1.1-0.1-2.2,0.4-2.9,1.2l-4.5,6
					c-0.9-0.3-1.9-0.5-2.9-0.9v-7.5c0-1.1-0.6-2.1-1.6-2.7c-1.9-1.1-3.7-2.4-5.3-3.9c-0.8-0.7-2-1-3-0.7l-7.2,2.2
					c-0.6-0.8-1.2-1.5-1.7-2.4l4.2-6.2c0.7-0.9,0.8-2.1,0.3-3.1c-0.9-2-1.6-4.1-2-6.2c-0.2-1.1-1-2-2-2.3l-7.1-2.4c0-0.5,0-1,0-1.5
					c0-0.5,0-1,0-1.5l7.1-2.5c1-0.4,1.8-1.2,2-2.3c0.4-2.2,1.1-4.2,2-6.2c0.4-1,0.3-2.1-0.3-2.9l-4.3-6.2c0.5-0.8,1.1-1.6,1.7-2.4
					l7.2,2.1c1,0.3,2.2,0.1,3-0.7c1.6-1.5,3.4-2.8,5.3-3.9c1-0.5,1.6-1.5,1.6-2.6v-7.5c0.9-0.3,1.8-0.6,2.9-0.9l4.5,6
					c0.7,0.9,1.8,1.4,2.9,1.2c2.2-0.3,4.4-0.3,6.6,0c1.1,0.1,2.2-0.3,2.9-1.2l4.5-6c0.9,0.3,1.9,0.6,2.9,0.9l0.1,7.5
					c0,1.1,0.6,2.1,1.6,2.6c1.9,1.1,3.7,2.4,5.3,3.9c0.8,0.7,2,1,3,0.7l7.2-2.2c0.6,0.8,1.2,1.6,1.7,2.4l-4.3,6.2
					c-0.6,0.9-0.7,2.1-0.3,3.1c0.9,2,1.6,4.1,2,6.2c0.2,1.1,1,2,2.1,2.3l7.1,2.5c0,0.5,0,0.9,0,1.5S84.1,85.2,84.1,85.8z"/>
				<path d="M45.2,67c-9.6,0-17.4,7.7-17.4,17.3s7.7,17.4,17.3,17.4s17.4-7.7,17.4-17.3c0,0,0,0,0,0C62.5,74.7,54.8,67,45.2,67z
					 M34.1,84.3c0-6.1,5-11.1,11.1-11.1s11.1,5,11.1,11.1s-5,11.1-11.1,11.1S34.1,90.5,34.1,84.3C34.1,84.3,34.1,84.3,34.1,84.3z"/>
				<path d="M104,53.8l4.2-1.7c2.3,1.5,6.2,3.7,8.6,5l0.6,4.5c0.2,1.4,1.2,2.4,2.5,2.7c1.5,0.3,3.1,0.5,4.7,0.5
					c1.6,0,3.2-0.2,4.8-0.5c1.3-0.2,2.4-1.3,2.5-2.7l0.6-4.5c2.4-1.3,6.2-3.5,8.6-5l4.2,1.7c1.3,0.5,2.7,0.1,3.5-0.9
					c1.1-1.2,2-2.5,2.9-3.8c0.8-1.4,1.5-2.8,1.9-4.4c0.5-1.3,0-2.7-1.1-3.5l-3.6-2.9c0-2.9,0-7.2,0-9.9l3.6-2.9c0.9-0.8,1.3-2,1-3.2
					c-1-3.1-2.6-5.9-4.8-8.3c-0.9-1-2.3-1.4-3.6-0.9l-4.1,1.7c-2.3-1.5-6.2-3.7-8.6-5l-0.6-4.5c-0.2-1.4-1.2-2.5-2.5-2.7
					c-3.1-0.7-6.3-0.7-9.5,0c-1.3,0.2-2.4,1.3-2.5,2.7l-0.6,4.5c-2.4,1.3-6.2,3.5-8.6,5l-4.2-1.7c-1.3-0.5-2.7-0.2-3.6,0.9
					c-1.1,1.2-2,2.5-2.9,3.8c-0.8,1.4-1.4,2.9-1.9,4.5c-0.5,1.3,0,2.7,1.1,3.5l3.6,2.9c0,2.9,0,7.2,0,9.9l-3.6,2.9
					c-1.1,0.8-1.5,2.3-1.1,3.5c1,3,2.6,5.8,4.8,8.2C101.4,54.2,102.8,54.4,104,53.8z M105.4,42.3c0.9-0.7,1.4-1.8,1.2-2.9
					c0-1.4,0-10.6,0-12c0.1-1.1-0.3-2.2-1.2-2.9l-2.9-2.3c0.2-0.4,0.4-0.7,0.6-1.2s0.5-0.8,0.7-1.2l3.5,1.4c1.1,0.5,2.3,0.3,3.2-0.5
					c1.1-0.9,9-5.5,10.2-6.1c1.1-0.4,1.8-1.4,2-2.5l0.5-3.7c1-0.1,1.9-0.1,2.9,0l0.4,3.7c0.1,1.2,0.9,2.1,2,2.5
					c1.3,0.6,9.2,5.2,10.3,6c0.9,0.7,2.1,0.9,3.2,0.5l3.5-1.4c0.5,0.8,1,1.6,1.4,2.4l-2.9,2.3c-0.9,0.7-1.3,1.8-1.2,2.9
					c0,1.4,0,10.6,0,12c-0.1,1.1,0.3,2.2,1.2,2.9l2.9,2.3l-0.7,1.2c-0.2,0.4-0.5,0.8-0.7,1.2l-3.5-1.5c-1.1-0.4-2.3-0.3-3.2,0.5
					c-1.2,0.8-9.1,5.4-10.4,6c-1.1,0.4-1.8,1.4-2,2.5l-0.5,3.9c-1,0.1-1.9,0.1-2.9,0l-0.5-3.7c-0.2-1.1-0.9-2.1-2-2.5
					c-1.3-0.6-9.2-5.2-10.4-6c-0.9-0.7-2.1-0.9-3.2-0.4l-3.5,1.4c-0.5-0.8-1-1.6-1.4-2.4L105.4,42.3z"/>
				<path d="M119.3,42.7c5.1,3,11.7,1.2,14.6-3.9c3-5.1,1.2-11.7-3.9-14.6s-11.7-1.2-14.6,3.9S114.2,39.7,119.3,42.7z M126.9,29.5
					c1.1,0.6,1.8,1.7,2.1,2.9c0.3,1.1,0.1,2.4-0.5,3.4c-1.2,2.2-3.9,3-6,1.8c-2.2-1.2-3-3.9-1.8-6c0-0.1,0.1-0.2,0.1-0.3
					c0.6-1,1.6-1.8,2.7-2.1c0.4-0.1,0.8-0.1,1.1-0.1C125.4,29,126.2,29.2,126.9,29.5z"/>
				<path d="M153.8,130.1c0-2.9,0-7.1,0-9.9l3.6-2.9c1.1-0.8,1.5-2.2,1-3.5c-1-3-2.6-5.8-4.7-8.2c-0.9-1-2.3-1.4-3.6-0.9l-4.1,1.8
					c-2.3-1.5-6.2-3.7-8.6-5l-0.6-4.5c-0.2-1.4-1.2-2.4-2.5-2.7c-3.1-0.6-6.3-0.6-9.5,0c-1.4,0.2-2.4,1.3-2.5,2.7l-0.6,4.5
					c-2.4,1.3-6.2,3.5-8.6,5l-4.1-1.7c-1.3-0.5-2.7-0.1-3.6,0.9c-2.1,2.4-3.7,5.1-4.7,8.1c-0.5,1.3-0.1,2.7,1,3.5l3.6,2.9
					c0,2.9,0,7.2,0,9.9l-3.6,2.9c-1.1,0.8-1.5,2.3-1,3.5c1,3,2.6,5.8,4.7,8.2c0.9,1,2.3,1.4,3.6,0.9l4.1-1.7c2.3,1.5,6.2,3.7,8.6,5
					l0.6,4.5c0.2,1.4,1.2,2.4,2.5,2.7c1.5,0.3,3.1,0.5,4.7,0.5c1.6,0,3.2-0.2,4.8-0.5c1.4-0.2,2.4-1.3,2.5-2.7l0.6-4.5
					c2.4-1.3,6.2-3.5,8.6-5l4.1,1.7c1.3,0.5,2.7,0.2,3.6-0.9c1.1-1.2,2-2.5,2.9-3.8c0.8-1.4,1.4-2.8,1.9-4.4
					c0.6-1.3,0.1-2.9-1.1-3.7L153.8,130.1z M150.3,138.7l-3.5-1.5c-1.1-0.4-2.3-0.3-3.1,0.5c-1.2,0.8-9.1,5.4-10.4,6
					c-1.1,0.4-1.8,1.4-2,2.5l-0.5,3.7c-1,0.1-1.9,0.1-2.9,0l-0.5-3.7c-0.1-1.1-0.9-2.1-2-2.5c-1.3-0.6-9.2-5.2-10.4-6
					c-0.9-0.7-2.1-0.9-3.1-0.5l-3.3,1.6c-0.5-0.8-1-1.6-1.4-2.4l2.9-2.3c0.9-0.7,1.3-1.8,1.2-2.9c0-1.4,0-10.5,0-11.9
					c0.2-1.1-0.3-2.2-1.2-2.9l-3-2.6c0.2-0.4,0.4-0.8,0.7-1.2c0.2-0.4,0.5-0.8,0.7-1.2l3.5,1.5c1.1,0.4,2.3,0.3,3.2-0.5
					c1.1-0.8,9.1-5.4,10.3-6c1.1-0.4,1.8-1.4,2-2.5l0.5-3.7c1-0.1,1.9-0.1,2.9,0l0.5,3.7c0.1,1.1,0.9,2.1,2,2.5
					c1.3,0.6,9.2,5.2,10.4,6c0.9,0.7,2.1,0.9,3.1,0.5l3.5-1.5c0.5,0.8,0.9,1.6,1.3,2.4l-2.9,2.3c-0.9,0.7-1.3,1.8-1.2,2.9
					c0,1.4,0,10.5,0,11.9c-0.1,1.1,0.3,2.2,1.2,2.9l2.9,2.3c-0.2,0.4-0.4,0.7-0.6,1.2L150.3,138.7z"/>
				<path d="M134.9,115.9c-5.2-2.9-11.7-1.1-14.6,4.1c-2.9,5.2-1.1,11.7,4.1,14.6c1.6,0.9,3.3,1.3,5.1,1.4c1,0,1.9-0.1,2.9-0.4
					c5.7-1.5,9.1-7.4,7.6-13.1C139.2,119.7,137.4,117.3,134.9,115.9L134.9,115.9z M133.4,127.3c-0.6,1.1-1.7,1.8-2.9,2.1
					c-2.4,0.7-4.8-0.7-5.5-3.1c-0.3-1.2-0.2-2.4,0.5-3.4c0.6-1,1.5-1.8,2.7-2.1c0.4-0.1,0.8-0.1,1.2,0c0.8,0,1.5,0.2,2.2,0.6
					C133.7,122.5,134.5,125.2,133.4,127.3L133.4,127.3z"/>
			</g>
		</g>
	</g>
</g>
</svg>
