<?xml version="1.0" encoding="utf-8"?>
<!-- Generator: Adobe Illustrator 26.3.1, SVG Export Plug-In . SVG Version: 6.00 Build 0)  -->
<svg version="1.1" id="圖層_1" xmlns="http://www.w3.org/2000/svg" xmlns:xlink="http://www.w3.org/1999/xlink" x="0px" y="0px"
	 viewBox="0 0 368 69" style="enable-background:new 0 0 368 69;" xml:space="preserve">
<style type="text/css">
	.st0{clip-path:url(#SVGID_00000055693934223897612090000016375850051416045207_);}
	.st1{clip-path:url(#SVGID_00000067955007048175774000000004253871611938129818_);}
</style>
<g>
	<defs>
		<rect id="SVGID_1_" x="-94" y="0" width="495" height="69"/>
	</defs>
	<clipPath id="SVGID_00000156565594079984584420000008489172711459378337_">
		<use xlink:href="#SVGID_1_"  style="overflow:visible;"/>
	</clipPath>
	<g style="clip-path:url(#SVGID_00000156565594079984584420000008489172711459378337_);">
		<g>
			<defs>
				<rect id="SVGID_00000121270448637314678500000001129725850650468779_" x="6" y="0" width="130.3" height="69"/>
			</defs>
			<clipPath id="SVGID_00000034060358026045399760000015276865762167567537_">
				<use xlink:href="#SVGID_00000121270448637314678500000001129725850650468779_"  style="overflow:visible;"/>
			</clipPath>
			<g style="clip-path:url(#SVGID_00000034060358026045399760000015276865762167567537_);">
				<path d="M70,46.9C55.5,46.9,55,69,70,69C85,69,84.6,46.9,70,46.9z M70,66.1C59.3,65.9,59.3,50,70,49.8
					C80.7,50,80.7,65.9,70,66.1z"/>
				<path d="M105,16.9c-0.4,0-0.8,0.2-1,0.4c-0.3,0.3-0.4,0.6-0.4,1v11c-1-1.2-2.2-2.2-3.6-2.8c-1.4-0.6-2.9-1-4.5-0.9
					c-1.5,0-2.9,0.2-4.3,0.7c-1.4,0.5-2.6,1.4-3.6,2.4c-1,1-1.9,2.3-2.4,3.6c-0.5,1.4-0.8,2.8-0.7,4.3c-0.1,1.5,0.2,2.9,0.7,4.3
					c0.5,1.4,1.3,2.6,2.4,3.7s2.3,1.9,3.7,2.4c1.4,0.5,2.8,0.8,4.3,0.7c1.5,0,3.1-0.3,4.4-0.9c1.4-0.6,2.6-1.6,3.6-2.8V46
					c0,0.4,0.1,0.8,0.4,1.1c0.3,0.3,0.6,0.5,1,0.5c0.4,0,0.8-0.1,1.1-0.4c0.3-0.3,0.5-0.6,0.5-1V18.4c0-0.2,0-0.4-0.1-0.6
					c-0.1-0.2-0.2-0.3-0.3-0.5c-0.1-0.1-0.3-0.2-0.5-0.3C105.4,17,105.2,16.9,105,16.9z M95.4,45c-2.1,0-4.1-0.7-5.6-2.2
					c-1.5-1.4-2.4-3.4-2.4-5.5c0-0.2,0-0.3,0-0.5c-0.1-2.1,0.7-4.2,2.2-5.8c1.5-1.6,3.5-2.5,5.6-2.6c2.1-0.1,4.2,0.7,5.8,2.2
					c1.6,1.5,2.5,3.5,2.6,5.6v0.6c0.1,2.1-0.7,4.1-2.1,5.6C100,44,98.1,44.9,96,45L95.4,45z"/>
				<path d="M134.8,0.4c-0.4,0-0.8,0.2-1,0.4c-0.3,0.3-0.4,0.6-0.4,1v1.8c-1-1.2-2.2-2.1-3.6-2.8c-1.4-0.6-2.9-0.9-4.5-0.9
					c-2.9,0-5.8,1.2-7.8,3.2c-2.1,2.1-3.2,4.9-3.2,7.8c0,2.9,1.2,5.8,3.2,7.8c2.1,2.1,4.9,3.2,7.8,3.2c1.5,0,3.1-0.3,4.5-0.9
					c1.4-0.6,2.6-1.6,3.6-2.8v1.8c0,0.4,0.2,0.8,0.4,1.1c0.3,0.3,0.7,0.4,1.1,0.4s0.8-0.2,1.1-0.4c0.3-0.3,0.4-0.7,0.4-1.1V1.9
					c0-0.4-0.2-0.8-0.4-1c-0.3-0.3-0.6-0.4-1-0.4H134.8z M125.2,19.3c-1,0-2.1-0.2-3-0.5c-1-0.4-1.8-0.9-2.6-1.6
					c-0.7-0.7-1.3-1.6-1.8-2.5c-0.4-0.9-0.6-2-0.7-3c0-0.2,0-0.3,0-0.5c-0.1-2.1,0.7-4.2,2.2-5.8c1.5-1.6,3.5-2.5,5.6-2.6
					c2.1-0.1,4.2,0.7,5.8,2.2c1.6,1.5,2.5,3.5,2.6,5.6c0,0.2,0,0.4,0,0.6c0,1-0.1,2.1-0.5,3c-0.4,1-0.9,1.9-1.6,2.6
					s-1.5,1.4-2.5,1.8c-0.9,0.4-2,0.7-3,0.7H125.2L125.2,19.3z"/>
				<path d="M36.2,47.2c-1.9-0.1-3.9,0.4-5.5,1.3c-1.7,0.9-3.1,2.3-4,4c-1-1.7-2.3-3.1-4-4c-1.7-0.9-3.6-1.4-5.5-1.3
					c-1.5,0-3.1,0.3-4.5,1c-1.4,0.7-2.6,1.7-3.5,2.9v-1.8c0-0.4-0.2-0.8-0.4-1.1c-0.3-0.3-0.7-0.4-1.1-0.4c-0.4,0-0.8,0.2-1.1,0.4
					C6.2,48.5,6,48.8,6,49.3v18.3c0,0.4,0.2,0.8,0.4,1.1C6.7,68.9,7.1,69,7.5,69c0.4,0,0.8-0.2,1.1-0.4c0.3-0.3,0.4-0.7,0.4-1.1
					c0-1.8-0.1-9.1,0.1-11.7c0.1-0.4,0.2-0.7,0.3-1.1c1.2-2.7,3.8-4.4,7.6-4.5c1,0,2.1,0.1,3,0.5c1,0.4,1.9,0.9,2.6,1.6
					c0.8,0.7,1.4,1.5,1.8,2.5c0.4,0.9,0.7,2,0.7,3c0,0.2,0,0.3,0,0.5v9.2c0,0.4,0.2,0.8,0.4,1.1c0.3,0.3,0.7,0.4,1.1,0.4
					c0.4,0,0.8-0.2,1.1-0.4c0.3-0.3,0.4-0.7,0.4-1.1v-9.2c-0.1-2.1,0.7-4.1,2.1-5.6c1.4-1.5,3.4-2.4,5.5-2.5h0.5
					c1.4-0.1,2.8,0.2,4,0.9c1.2,0.7,2.2,1.7,2.9,3c0.8,1.6,1.1,3.4,1.1,5.2v8.3c0,0.4,0.2,0.8,0.4,1.1c0.3,0.3,0.7,0.4,1.1,0.4
					c0.4,0,0.8-0.2,1.1-0.4c0.3-0.3,0.4-0.7,0.4-1.1v-9.2C47.3,51.8,43.1,47.4,36.2,47.2z"/>
			</g>
		</g>
		<path d="M190.2,28.2c0.9,15.9,8.1,29.3,17.4,29.3c3.7,0,5.2-2,5.9-9.3c-1-0.3-2.4-1.1-3.4-1.8c-0.2,5.4-0.8,7.4-2.3,7.5
			c-6.4,0-13-11.3-13.7-25.6H190.2z M175.1,36v3.5h37.4V36H175.1z M167.9,53l0.9,3.9c6.3-0.9,15.5-2.2,24.1-3.6l-0.1-3.7
			C183.7,50.9,174,52.3,167.9,53z M173.2,14.2v39.9h3.8V14.2H173.2z M175.1,14.2v3.5h29.9v8h-29.9v3.5h33.6v-15H175.1z M228.1,40.7
			v-3.4h24.5v3.4H228.1z M228.1,34.8v-3.3h24.5v3.3H228.1z M256.4,28.9h-31.8v14.4h31.8V28.9z M252.2,18.3l-3.9-0.8
			c-0.6,1.6-1.8,3.9-2.6,5.5l3.4,0.9C250,22.4,251.1,20.4,252.2,18.3z M232.1,17.5l-3.4,0.8c1,1.7,1.9,4,2.2,5.6l3.5-1
			C234.1,21.5,233.1,19.2,232.1,17.5z M242.1,11.5h-3.8V17h3.8V11.5z M261.9,23.3h-43v3.1h43V23.3z M259.3,14.9h-38.2v3h38.2V14.9z
			 M227.6,46.9l-3.1-1.2c-1.3,3.3-3.6,6.8-7.1,8.7l2.9,2C224,54.2,226.2,50.5,227.6,46.9z M254.3,45.3l-2.9,1.7
			c3.4,2.6,7.1,6.4,8.8,9l3.1-1.9C261.6,51.5,257.7,47.8,254.3,45.3z M237.5,43.2l-2.1,2c2.9,1.5,6.4,3.9,8.1,5.5l2.2-2.2
			C243.9,46.8,240.3,44.6,237.5,43.2z M233.8,52.6v-6.5h-3.7v6.5c0,3.6,1.3,4.5,6.5,4.5c1,0,8.4,0,9.5,0c4,0,5.2-1.3,5.6-6.9
			c-0.9-0.2-2.4-0.8-3.2-1.2c-0.2,4.4-0.5,5-2.7,5c-1.6,0-7.6,0-8.9,0C234.2,53.9,233.8,53.7,233.8,52.6z M285.5,13.9V17h23.1v-3.1
			H285.5z M284.9,27.8v3.1h24.7v-3.1H284.9z M284.9,34.7v3.1h24.6v-3.1H284.9z M286.3,52.1v3.1H308v-3.1H286.3z M280.8,20.8V24h32.5
			v-3.2H280.8z M284.4,41.7v15.8h3.6V44.7h18.2v12.6h3.8V41.7H284.4z M279.1,11.7c-2.9,7.6-7.8,15.1-12.9,19.8
			c0.7,0.9,1.8,2.8,2.1,3.7c5.5-5.6,10.9-14,14.3-22.4L279.1,11.7z M273.9,24.6v32.9h3.6V21.1l0,0L273.9,24.6z M340.1,27.6v29.9h3.6
			V31h13.4v26.2h3.8V27.6H340.1z M318.2,31.5v3.5h20.4v-3.5H318.2z M341.9,36v2.9h17.1V36H341.9z M341.9,44v3h17.1v-3H341.9z
			 M341.9,52.2v3.1h17.1v-3.1H341.9z M327,25.8v31.8h3.6V25.8H327z M330.1,36.4l-2.1,1.7c2,1.9,6.6,7,8.2,9.2l2.4-3
			C337.4,43,331.7,37.6,330.1,36.4z M323.6,16.4v3.2h16v-3.2H323.6z M343.2,16.4v3.2h19.4v-3.2H343.2z M324.5,11.3
			c-1.5,5.1-4.2,10.1-7.4,13.3c0.9,0.5,2.5,1.5,3.1,2.1c3.1-3.6,6-9.1,7.9-14.6L324.5,11.3z M344.1,11.3c-1.4,5-4,9.8-7.3,12.8
			c0.9,0.5,2.5,1.6,3.2,2.2c3.2-3.4,6.1-8.6,7.8-14.2L344.1,11.3z M326.6,18.8c1.3,2.4,2.6,5.6,3,7.6l3.3-1.4c-0.5-2-2-5.1-3.2-7.4
			L326.6,18.8z M347.1,18.9c1.9,2.3,3.9,5.5,4.6,7.5l3.2-1.4c-0.9-2-2.9-5.1-4.8-7.4L347.1,18.9z M326.9,33.2
			c-2.1,5.7-6.2,12.5-10,16c0.9,0.8,1.9,2,2.4,2.9c3.9-4.1,8.2-11.4,10.4-17.4L326.9,33.2z"/>
	</g>
</g>
</svg>
