<svg width="246" height="246" viewBox="0 0 246 246" fill="none" xmlns="http://www.w3.org/2000/svg">
<path d="M68.0506 108.425H58.6206L62.2806 106.385C61.5106 104.585 59.9406 101.925 58.5206 99.875L54.9206 101.675C56.2006 103.725 57.7606 106.575 58.4706 108.425H49.3906V112.215H68.0506V108.425Z" fill="white"/>
<path d="M53.4799 128.465H51.4199V145.445H55.4599V143.205H66.6399V128.465H53.4799ZM62.5499 132.285V139.355H55.4599V132.285H62.5499Z" fill="white"/>
<path d="M70.0801 146.125H74.4301V144.105H87.8401V145.955H92.3901V127.855H70.0801V146.125ZM87.8501 131.945V140.025H74.4401V131.945H87.8501Z" fill="white"/>
<path d="M66.3502 115.145H51.4902V118.775H66.3502V115.145Z" fill="white"/>
<path d="M66.3502 121.744H51.4902V125.374H66.3502V121.744Z" fill="white"/>
<path d="M90.8204 110.454H80.3004C80.5704 108.934 80.8304 107.424 81.0704 105.974H94.1404V102.064H68.6904V105.974H76.4604C76.2404 107.414 76.0004 108.924 75.7404 110.454H69.8804V114.324H75.0504C74.6104 116.704 74.1504 118.974 73.7104 120.914H67.4004V124.824H95.3104V120.914H90.8204V110.454ZM79.5904 114.334H86.4504V120.924H78.2804C78.6904 119.004 79.1504 116.724 79.6004 114.334H79.5904Z" fill="white"/>
<path d="M131.721 121.285C129.961 119.495 126.261 117.135 123.321 115.615L121.131 118.935C124.041 120.605 127.671 123.205 129.371 125.025L131.721 121.285Z" fill="white"/>
<path d="M120.76 103.955L116.73 103.025C116.11 106.445 114.76 111.385 113.66 114.405L116.69 115.285C117.97 112.445 119.49 107.775 120.76 103.945V103.955Z" fill="white"/>
<path d="M99.6914 135.516C100.481 136.986 101.531 139.336 101.941 140.926C104.801 137.376 106.881 130.306 107.941 124.656L104.571 123.506C103.791 127.666 101.751 132.776 99.6914 135.516Z" fill="white"/>
<path d="M106.7 114.434C106.42 111.384 105.33 106.774 103.93 103.234L100.59 104.084C101.84 107.624 102.92 112.324 103.1 115.344L106.7 114.444V114.434Z" fill="white"/>
<path d="M131.361 112.855L133.811 109.305C132.181 107.445 128.721 104.925 125.881 103.275L123.551 106.455C126.381 108.245 129.811 110.945 131.361 112.865V112.855Z" fill="white"/>
<path d="M145.691 126.836L140.181 127.826V100.096H135.751V128.616L120.221 131.416L120.961 135.776L135.751 133.096V146.066H140.181V132.296L146.401 131.166L145.691 126.836Z" fill="white"/>
<path d="M112.54 125.115V121.065H120.32V116.685H112.54V100.125H108.19V116.685H100.41V121.065H108.19V146.095H112.54V126.485C113.85 129.245 115.93 134.165 116.73 136.695L120.04 133.165C119.27 131.585 115.63 125.055 114.62 123.605L112.53 125.115H112.54Z" fill="white"/>
<path d="M196.611 136.585H179.811V133.585H192.541V118.295H179.811V115.575H194.971V111.975H179.811V109.215H175.351V111.975H161.591V115.575H175.351V118.295H163.261V133.585H175.351V136.585H159.451V140.435H175.351V145.835H179.811V140.435H196.611V136.585ZM188.181 130.545H179.801V127.335H188.181V130.545ZM188.181 121.315V124.485H179.801V121.315H188.181ZM167.381 121.315H175.341V124.485H167.381V121.315ZM167.381 130.545V127.335H175.341V130.545H167.381Z" fill="white"/>
<path d="M196.231 108.256V104.236H179.121C178.471 102.846 177.591 101.276 176.691 100.016L172.291 101.266C172.851 102.156 173.431 103.196 173.931 104.226H154.731V120.036C154.731 127.116 154.391 136.756 150.381 143.466C151.421 143.946 153.351 145.296 154.141 146.116C158.511 138.916 159.191 127.776 159.191 120.036V108.246H196.241L196.231 108.256Z" fill="white"/>
</svg>
