<?xml version="1.0" encoding="utf-8"?>
<!-- Generator: Adobe Illustrator 24.2.1, SVG Export Plug-In . SVG Version: 6.00 Build 0)  -->
<svg version="1.1" id="圖層_1" xmlns="http://www.w3.org/2000/svg" xmlns:xlink="http://www.w3.org/1999/xlink" x="0px" y="0px"
	 width="390.2px" height="376.2px" viewBox="0 0 390.2 376.2" style="enable-background:new 0 0 390.2 376.2;" xml:space="preserve"
	>
<style type="text/css">
	.st0{fill:#FFFFFF;}
	.st1{display:none;}
	.st2{display:inline;fill:#FFFFFF;}
	.st3{display:inline;}
</style>
<g id="圖稿_12_00000099657790848801392620000003131522755391462061_">
	<g>
		<g>
			<path class="st0" d="M368.2,159.7h-19.6c-1.6-8-3.6-15.9-6.4-23.7l17.1-9.7c3.3-2.1,5.7-5.4,6.9-9c0.9-4,0.3-8-1.6-11.4
				l-13.7-23.6c-1.9-3.5-5.2-5.9-9-6.9c-3.8-1-7.8-0.5-11.3,1.4l-17.1,10c-5.2-6.2-10.9-12-17.1-17.5l9.9-16.8
				c1.9-3.6,2.4-7.4,1.4-11.4c-1-3.8-3.5-7.1-6.9-8.8l-23.6-13.9c-7.1-4-16.3-1.6-20.3,5.5l-9.9,17c-7.8-2.6-15.8-4.9-23.6-6.4V14.9
				c0-8.1-6.8-14.9-14.9-14.9h-27.4c-8.1,0-14.9,6.8-14.9,14.9v19.6c-7.8,1.6-15.8,3.8-23.4,6.4l-9.9-17c-4.2-7.1-13.3-9.5-20.3-5.5
				L89.2,32.2c-3.5,1.7-5.9,5-6.9,8.8c-1,4-0.5,7.8,1.4,11.4l10,16.8c-6.2,5.5-12,11.3-17.3,17.5l-17.1-10
				c-3.3-1.9-7.4-2.4-11.3-1.4c-3.8,1-6.9,3.5-9,6.9l-13.7,23.6c-4,7.1-1.6,16.3,5.5,20.4l17,9.7c-2.8,7.8-4.9,15.8-6.2,23.7H21.8
				c-8.1,0-14.7,6.6-14.7,14.7v27.4c0,8.1,6.6,14.9,14.7,14.9h19.7c1.4,8,3.5,15.8,6.2,23.6l-17,9.7c-7.1,4.2-9.5,13.3-5.5,20.4
				L38.9,294c2.1,3.5,5.2,5.9,9,6.9c3.8,1,8,0.5,11.3-1.4l17.1-9.9c5.4,6.1,11.1,11.8,17.3,17.1l-9.9,17.1
				c-2.1,3.5-2.6,7.4-1.6,11.3c1,3.8,3.5,7.1,6.9,8.8l23.7,13.7c3.3,2.1,7.3,2.6,11.1,1.6c4-1,7.1-3.3,9.2-6.9l9.9-17
				c7.6,2.6,15.6,4.9,23.4,6.4v19.6c0,8.3,6.8,14.9,14.9,14.9h27.4c8.1,0,14.9-6.6,14.9-14.9v-19.6c7.8-1.6,15.8-3.8,23.6-6.4
				l9.9,17c1.9,3.6,5.2,5.9,9,6.9s7.8,0.5,11.3-1.6l23.6-13.7c3.5-1.7,5.9-5,6.9-8.8c1-3.8,0.5-7.8-1.4-11.3l-9.9-17.1
				c6.2-5.4,12-11.1,17.1-17.1l17.1,9.9c3.5,1.9,7.4,2.4,11.3,1.4c3.8-1,7.1-3.5,9-6.9l13.7-23.6c1.9-3.5,2.4-7.4,1.6-11.3
				c-1.2-3.8-3.6-7.1-6.9-9.2l-17.1-9.7c2.8-7.8,4.9-15.6,6.4-23.6h19.6c8.1,0,14.9-6.8,14.9-14.9v-27.4
				C383.1,166.3,376.4,159.7,368.2,159.7 M371.7,201.8c0,1.9-1.6,3.5-3.5,3.5h-24.4c-2.8,0-5.2,1.9-5.7,4.9
				c-1.6,10.2-4.3,20.6-8.1,30.5c-1,2.6,0,5.7,2.4,7.1l21.1,12.3c0.9,0.3,1.4,1.2,1.7,2.1c0.2,0.9,0,1.7-0.3,2.4l-13.7,23.7
				c-0.5,0.9-1.2,1.4-2.1,1.7c-0.9,0.2-1.7,0-2.6-0.3l-21.3-12.3c-2.4-1.4-5.5-0.9-7.3,1.2c-6.6,8.3-14.2,15.8-22.5,22.5
				c-2.1,1.7-2.6,4.9-1.2,7.3l12.3,21.3c0.3,0.7,0.5,1.7,0.3,2.6c-0.3,0.9-0.9,1.6-1.6,2.1L271.6,348c-0.9,0.5-1.7,0.5-2.6,0.3
				s-1.7-0.9-2.1-1.6l-12.3-21.3c-1.4-2.4-4.3-3.6-7.1-2.4c-9.9,3.8-20.3,6.6-30.5,8.1c-2.8,0.5-4.9,2.9-4.9,5.5v24.6
				c0,1.9-1.6,3.5-3.5,3.5h-27.4c-1.9,0-3.5-1.6-3.5-3.5v-24.6c0-2.6-1.9-5-4.9-5.5c-10.2-1.6-20.6-4.3-30.5-8.1
				c-0.7-0.3-1.4-0.5-2.1-0.5c-2.1,0-3.8,1-5,2.9l-12.3,21.3c-0.3,0.7-1,1.4-1.9,1.6c-1,0.2-1.9,0.2-2.6-0.3l-23.7-13.7
				c-0.9-0.5-1.4-1.2-1.6-2.1c-0.3-0.9-0.2-1.9,0.3-2.6l12.1-21.3c1.6-2.4,0.9-5.5-1.4-7.3c-8.1-6.8-15.8-14.2-22.3-22.5
				c-1.7-2.1-4.9-2.6-7.3-1.2l-21.1,12.3c-0.9,0.3-1.9,0.5-2.8,0.3c-0.9-0.3-1.6-0.9-2.1-1.7l-13.5-23.7c-1-1.6-0.5-3.6,1-4.5
				l21.3-12.3c2.4-1.4,3.5-4.5,2.6-7.1c-4-9.9-6.8-20.3-8.3-30.5c-0.5-2.9-2.8-4.9-5.5-4.9H21.8c-1.9,0-3.5-1.6-3.5-3.5v-27.4
				c0-1.9,1.6-3.5,3.5-3.5h24.6c2.8,0,5-1.9,5.5-4.9c1.6-10.4,4.3-20.4,8.3-30.5c0.9-2.6-0.2-5.7-2.6-7.1l-21.3-12.1
				c-1.6-1-2.1-3.1-1-4.7L48.8,88c0.5-0.9,1.2-1.4,2.1-1.7c0.9-0.2,1.9,0,2.8,0.5l21.1,12.1c2.4,1.4,5.5,0.9,7.3-1.4
				c6.6-8.1,14.2-15.6,22.3-22.2c2.3-1.9,2.9-5,1.4-7.3L93.7,46.8C93.2,45.9,93,45,93.3,44c0.2-0.9,0.7-1.6,1.6-2.1l23.7-13.7
				c1.6-0.9,3.6-0.3,4.5,1.2l12.3,21.3c1.6,2.6,4.5,3.5,7.1,2.6c9.9-4,20.3-6.6,30.5-8.3c2.9-0.3,4.9-2.8,4.9-5.5V14.9
				c0-1.9,1.6-3.5,3.5-3.5h27.4c1.9,0,3.5,1.6,3.5,3.5v24.6c0,2.8,2.1,5.2,4.9,5.5c10.2,1.7,20.6,4.3,30.5,8.3
				c2.8,0.9,5.7,0,7.1-2.6l12.3-21.3c0.9-1.6,2.9-2.1,4.7-1.2l23.7,13.7c0.7,0.5,1.2,1.2,1.6,2.1c0.2,1,0,1.9-0.3,2.8l-12.3,21.3
				c-1.4,2.3-0.9,5.4,1.2,7.3c8.3,6.6,15.9,14,22.5,22.2c1.7,2.3,4.9,2.8,7.3,1.4l21.3-12.1c0.9-0.5,1.7-0.7,2.6-0.5
				c0.9,0.3,1.6,0.9,2.1,1.7l13.7,23.7c0.3,0.7,0.5,1.6,0.3,2.6c-0.3,0.9-0.9,1.6-1.7,2.1l-21.1,12.1c-2.4,1.4-3.5,4.5-2.4,7.1
				c3.8,10,6.6,20.1,8.1,30.5c0.5,2.9,2.9,4.9,5.7,4.9h24.4c1.9,0,3.5,1.6,3.5,3.5V201.8z"/>
			<path class="st0" d="M195.1,296.4c-59.8,0-108.4-48.5-108.4-108.3c0-37.9,20.1-73.1,52.3-92.5l2.4,4.9l12.8-18.7L131.5,80
				l2.4,5.2c-36.2,21.5-58.5,60.6-58.5,102.9c0,66,53.7,119.7,119.7,119.7c3.1,0,5.7-2.4,5.7-5.7C200.8,299,198.2,296.4,195.1,296.4
				"/>
			<path class="st0" d="M195.1,72.2c-3.3,0-5.7,2.6-5.7,5.7c0,3.1,2.4,5.5,5.7,5.5c59.6,0,108.3,48.8,108.3,108.3
				c0,37.9-19.9,73.1-52.3,92.8l-2.4-5.2l-12.8,19.1l22.7,1.4l-2.4-5c36.2-21.5,58.5-60.6,58.5-103.1
				C314.6,125.9,261.1,72.2,195.1,72.2"/>
			<path class="st0" d="M239.4,244.4l12-12c6.7-6.7,6.6-17.4,0-24l-20.2-20.2l20.3-20.3c6.6-6.6,6.6-17.4-0.1-24.1l-12.1-12.1
				c-6.6-6.6-17.4-6.6-24,0L194.9,152l-20.2-20.2c-6.6-6.6-17.3-6.7-24,0l-12,12c-6.6,6.6-6.7,17.5-0.1,24.1l20.2,20.2l-20.1,20.1
				c-6.7,6.7-6.7,17.5-0.1,24.1l12.1,12.1c6.7,6.7,17.5,6.7,24.3,0l20.1-20.1l20.2,20.2C221.9,251.2,232.8,251.1,239.4,244.4
				 M199.1,212.2c-2.2-2.2-6-2.1-8.1,0l-24.1,24.1c-2.3,2.3-5.9,2.4-8.2,0.1l-12.1-12.1c-2.2-2.2-2.1-5.8,0.2-8.1l24.1-24.1
				c2.1-2.1,2.2-5.9,0-8.1l-24.3-24.3c-2.2-2.2-2.1-5.8,0.1-8l12-12c2.2-2.2,5.8-2.3,8-0.1L191,164c2.2,2.2,5.9,2.2,8.1,0l24.3-24.3
				c2.1-2.1,5.8-2.3,8-0.1l12.1,12.1c2.3,2.3,2.1,6,0,8.1l-24.3,24.3c-2.2,2.2-2.2,5.9,0,8.1l24.3,24.3c2.2,2.2,2.1,5.8-0.1,8
				l-12,12c-2.2,2.2-5.8,2.3-8,0.1L199.1,212.2z"/>
		</g>
	</g>
</g>
<g class="st1">
	<path class="st2" d="M234.7,288h-79.2c-12.2,0-22.1-9.9-22.1-22.1c0-12.2,9.9-22.1,22.1-22.1h79.2c12.2,0,22.1,9.9,22.1,22.1
		C256.8,278.1,246.9,288,234.7,288z M155.5,258.6c-4,0-7.3,3.3-7.3,7.3s3.3,7.3,7.3,7.3h79.2c4,0,7.3-3.3,7.3-7.3s-3.3-7.3-7.3-7.3
		H155.5z"/>
	<path class="st2" d="M195.1,346.8c-22.1,0-40.4-17.4-41.6-39.5c-0.1-2,0.6-4,2-5.5c1.4-1.5,3.3-2.3,5.4-2.3h68.5c2,0,4,0.8,5.4,2.3
		c1.4,1.5,2.1,3.5,2,5.5C235.5,329.4,217.2,346.8,195.1,346.8z M169.8,314.3c3.8,10.4,13.7,17.8,25.3,17.8s21.5-7.4,25.3-17.8H169.8
		z"/>
	<path class="st2" d="M245.6,232.5h-34.4c-4.1,0-7.4-3.3-7.4-7.4v-78.9c0-4.1,3.3-7.4,7.4-7.4h21.5l-37.7-41.9l-37.7,41.9h21.5
		c4.1,0,7.4,3.3,7.4,7.4v78.9c0,4.1-3.3,7.4-7.4,7.4h-34.4c-1.3,0-2.6-0.3-3.7-1c-33.4-19.4-54.1-55.3-54.1-93.7
		c0-59.7,48.6-108.3,108.4-108.3c59.7,0,108.3,48.6,108.3,108.3c0,38.4-20.7,74.3-54.1,93.7C248.2,232.1,246.9,232.5,245.6,232.5z
		 M218.7,217.7h24.9c27.8-16.9,45.1-47.4,45.1-79.9c0-51.6-42-93.6-93.5-93.6c-51.6,0-93.6,42-93.6,93.6c0,32.5,17.2,63,45.1,79.9
		h24.9v-64.1h-30.7c-2.9,0-5.6-1.7-6.8-4.4c-1.2-2.7-0.7-5.8,1.3-8l54.3-60.4c2.8-3.1,8.2-3.1,11,0l54.3,60.4c2,2.2,2.4,5.3,1.3,8
		c-1.2,2.7-3.8,4.4-6.8,4.4h-30.7V217.7z"/>
</g>
<g class="st1">
	<path class="st2" d="M195.2,253.9c-5.7,0-11.5-0.8-17.1-2.3c-17-4.5-31.1-15.4-39.9-30.6c-18.1-31.4-7.3-71.7,24.1-89.8
		c31.4-18.1,71.7-7.3,89.8,24.1c8.8,15.2,11.1,32.9,6.6,49.9c-4.5,17-15.4,31.1-30.6,39.9l0,0C217.9,250.9,206.6,253.9,195.2,253.9z
		 M195,138.3c-8.5,0-17,2.1-24.9,6.7c-23.8,13.8-32,44.3-18.3,68.1c6.7,11.5,17.4,19.8,30.3,23.2c12.9,3.5,26.3,1.7,37.8-5h0
		c11.5-6.7,19.8-17.4,23.2-30.3c3.4-12.9,1.7-26.3-5-37.8C229.1,147.2,212.3,138.3,195,138.3z"/>
	
		<rect x="203.3" y="94.3" transform="matrix(0.5001 -0.866 0.866 0.5001 33.8349 263.0123)" class="st2" width="82.8" height="15.9"/>
	<path class="st2" d="M277,77.4c-5.4,0-10.8-1.4-15.6-4.2c-14.9-8.6-20-27.7-11.4-42.7c8.6-14.9,27.7-20,42.7-11.4
		c7.2,4.2,12.4,10.9,14.5,19c2.2,8.1,1.1,16.5-3.1,23.7l0,0c-4.2,7.2-10.9,12.4-19,14.6C282.4,77.1,279.7,77.4,277,77.4z
		 M277.1,30.8c-1.3,0-2.7,0.2-4,0.5c-4,1.1-7.3,3.6-9.3,7.1c-4.2,7.3-1.7,16.7,5.6,21c3.5,2,7.7,2.6,11.6,1.5c4-1.1,7.3-3.6,9.3-7.1
		h0c2-3.5,2.6-7.7,1.5-11.6c-1.1-4-3.6-7.3-7.1-9.3C282.4,31.5,279.7,30.8,277.1,30.8z"/>
	<rect x="137.6" y="60.8" transform="matrix(0.866 -0.5 0.5 0.866 -31.6069 86.4441)" class="st2" width="15.9" height="82.8"/>
	<path class="st2" d="M113.2,77.4c-2.7,0-5.4-0.4-8.1-1.1c-8.1-2.2-14.8-7.3-19-14.6C82,54.6,80.8,46.2,83,38.1
		c2.2-8.1,7.3-14.8,14.6-19c14.9-8.6,34-3.5,42.7,11.4h0c8.6,14.9,3.5,34.1-11.4,42.7C124,76,118.6,77.4,113.2,77.4z M113.1,30.8
		c-2.7,0-5.3,0.7-7.6,2.1c-3.5,2-6.1,5.4-7.1,9.3c-1.1,4-0.5,8.1,1.5,11.6c2,3.5,5.4,6.1,9.3,7.1c4,1.1,8.1,0.5,11.6-1.5
		c7.3-4.2,9.8-13.6,5.6-21c-2-3.5-5.4-6.1-9.3-7.1C115.8,31,114.5,30.8,113.1,30.8z"/>
	<rect x="54.5" y="180.2" class="st2" width="82.8" height="15.9"/>
	<path class="st2" d="M31.2,219.3C14,219.3,0,205.3,0,188.1s14-31.2,31.2-31.2s31.2,14,31.2,31.2S48.4,219.3,31.2,219.3z
		 M31.2,172.8c-8.5,0-15.3,6.9-15.3,15.3c0,8.5,6.9,15.3,15.3,15.3s15.3-6.9,15.3-15.3C46.6,179.7,39.7,172.8,31.2,172.8z"/>
	
		<rect x="104.1" y="266.1" transform="matrix(0.5001 -0.866 0.866 0.5001 -164.5679 263.0059)" class="st2" width="82.8" height="15.9"/>
	<path class="st2" d="M113.1,361.3c-5.3,0-10.7-1.3-15.6-4.2c-14.9-8.6-20-27.7-11.4-42.7l0,0c4.2-7.2,10.9-12.4,19-14.6
		c8.1-2.2,16.5-1,23.7,3.1c14.9,8.6,20,27.7,11.4,42.7C134.4,355.7,123.9,361.3,113.1,361.3z M113.2,314.7c-1.3,0-2.7,0.2-4,0.5
		c-4,1.1-7.3,3.6-9.3,7.1h0c-4.2,7.3-1.7,16.7,5.6,21c7.3,4.2,16.7,1.7,21-5.6c4.2-7.3,1.7-16.7-5.6-21
		C118.5,315.4,115.8,314.7,113.2,314.7z"/>
	<rect x="236.8" y="232.6" transform="matrix(0.866 -0.5 0.5 0.866 -104.2308 159.0684)" class="st2" width="15.9" height="82.8"/>
	<path class="st2" d="M277.1,361.3c-10.8,0-21.3-5.6-27.1-15.6h0c-8.6-14.9-3.5-34.1,11.4-42.7c7.2-4.2,15.6-5.3,23.7-3.1
		c8.1,2.2,14.8,7.3,19,14.6c8.6,14.9,3.5,34-11.4,42.7C287.8,359.9,282.4,361.3,277.1,361.3z M263.8,337.7c4.2,7.3,13.6,9.8,21,5.6
		c7.3-4.2,9.8-13.6,5.6-21c-2-3.5-5.4-6.1-9.3-7.1c-4-1.1-8.1-0.5-11.6,1.5C262.1,321,259.5,330.4,263.8,337.7L263.8,337.7z"/>
	<rect x="252.9" y="180.2" class="st2" width="82.8" height="15.9"/>
	<path class="st2" d="M359,219.3c-17.2,0-31.2-14-31.2-31.2s14-31.2,31.2-31.2c17.2,0,31.2,14,31.2,31.2S376.2,219.3,359,219.3z
		 M359,172.8c-8.5,0-15.3,6.9-15.3,15.3c0,8.5,6.9,15.3,15.3,15.3c8.5,0,15.3-6.9,15.3-15.3C374.3,179.7,367.4,172.8,359,172.8z"/>
	<g class="st3">
		<circle class="st0" cx="195.5" cy="43.2" r="7.9"/>
		<circle class="st0" cx="168.5" cy="43.2" r="7.9"/>
		<circle class="st0" cx="222.6" cy="43.2" r="7.9"/>
	</g>
	<g class="st3">
		<circle class="st0" cx="195.5" cy="331.9" r="7.9"/>
		<circle class="st0" cx="168.5" cy="331.9" r="7.9"/>
		<circle class="st0" cx="222.6" cy="331.9" r="7.9"/>
	</g>
	<g class="st3">
		<circle class="st0" cx="69.8" cy="115.3" r="7.9"/>
		<circle class="st0" cx="56.3" cy="138.7" r="7.9"/>
		<circle class="st0" cx="83.3" cy="91.9" r="7.9"/>
	</g>
	<g class="st3">
		<circle class="st0" cx="319.8" cy="259.6" r="7.9"/>
		<circle class="st0" cx="306.3" cy="283.1" r="7.9"/>
		<circle class="st0" cx="333.4" cy="236.2" r="7.9"/>
	</g>
	<g class="st3">
		<circle class="st0" cx="69.4" cy="260.2" r="7.9"/>
		<circle class="st0" cx="82.9" cy="283.6" r="7.9"/>
		<circle class="st0" cx="55.9" cy="236.8" r="7.9"/>
	</g>
	<g class="st3">
		<circle class="st0" cx="319.4" cy="115.9" r="7.9"/>
		<circle class="st0" cx="332.9" cy="139.3" r="7.9"/>
		<circle class="st0" cx="305.9" cy="92.4" r="7.9"/>
	</g>
</g>
<g class="st1">
	<circle class="st2" cx="195.1" cy="188.1" r="29.7"/>
	<path class="st2" d="M168.6,245c-1.2,0-2.4-0.3-3.5-0.9c-20.7-11.1-33.5-32.6-33.5-56c0-23.5,12.9-44.9,33.5-56c3.6-1.9,8-0.6,10,3
		c1.9,3.6,0.6,8-3,10c-15.9,8.5-25.8,25-25.8,43.1s9.9,34.5,25.8,43.1c3.6,1.9,4.9,6.4,3,10C173.7,243.6,171.2,245,168.6,245z"/>
	<path class="st2" d="M221.7,245c-2.6,0-5.2-1.4-6.5-3.9c-1.9-3.6-0.6-8,3-10c15.9-8.5,25.8-25,25.8-43.1c0-18-9.9-34.5-25.8-43.1
		c-3.6-1.9-4.9-6.4-3-10c1.9-3.6,6.4-4.9,10-3c20.7,11.1,33.5,32.6,33.5,56c0,23.5-12.8,44.9-33.5,56C224,244.8,222.8,245,221.7,245
		z"/>
	<path class="st2" d="M151.3,277.3c-1.2,0-2.4-0.3-3.5-0.9C115.2,258.9,95,225.1,95,188.1c0-37,20.3-70.8,52.9-88.3
		c3.6-1.9,8-0.6,10,3c1.9,3.6,0.6,8-3,10c-27.8,14.9-45.1,43.8-45.1,75.3c0,31.5,17.3,60.4,45.1,75.3c3.6,1.9,4.9,6.4,3,10
		C156.5,275.9,153.9,277.3,151.3,277.3z"/>
	<path class="st2" d="M238.9,277.3c-2.6,0-5.2-1.4-6.5-3.9c-1.9-3.6-0.6-8,3-10c27.8-14.9,45.1-43.8,45.1-75.3s-17.3-60.4-45.1-75.3
		c-3.6-1.9-4.9-6.4-3-10c1.9-3.6,6.4-4.9,10-3c32.6,17.5,52.9,51.3,52.9,88.3s-20.3,70.8-52.9,88.3
		C241.3,277,240.1,277.3,238.9,277.3z"/>
	<path class="st2" d="M133.8,310.1c-1.2,0-2.4-0.3-3.5-0.9c-44.7-24-72.5-70.4-72.5-121.1c0-50.4,27.5-96.6,71.8-120.7
		c3.6-1.9,8-0.6,10,3c1.9,3.6,0.6,8-3,10c-39.6,21.5-64.2,62.8-64.2,107.8c0,45.2,24.8,86.7,64.7,108.1c3.6,1.9,4.9,6.4,3,10
		C138.9,308.6,136.4,310.1,133.8,310.1z"/>
	<path class="st2" d="M257,309.7c-2.6,0-5.1-1.4-6.5-3.8c-1.9-3.6-0.6-8,3-10c39.6-21.5,64.2-62.8,64.2-107.8
		c0-45.2-24.8-86.7-64.7-108.1c-3.6-1.9-4.9-6.4-3-10c1.9-3.6,6.4-4.9,10-3c44.7,24,72.5,70.4,72.5,121.1
		c0,50.4-27.5,96.6-71.8,120.7C259.4,309.4,258.2,309.7,257,309.7z"/>
	<path class="st2" d="M117.6,341.5c-1.2,0-2.3-0.3-3.4-0.9c-56.5-30.1-91.7-88.5-91.7-152.5c0-64,35.1-122.4,91.7-152.5
		c3.6-1.9,8-0.5,10,3c1.9,3.6,0.5,8-3,10c-51.7,27.5-83.9,81-83.9,139.5c0,58.5,32.1,112,83.9,139.5c3.6,1.9,4.9,6.4,3,10
		C122.8,340.1,120.2,341.5,117.6,341.5z"/>
	<path class="st2" d="M273.1,341.2c-2.6,0-5.2-1.4-6.5-3.9c-1.9-3.6-0.6-8,3-10c51.4-27.6,83.4-80.9,83.4-139.3
		c0-58.3-31.9-111.7-83.4-139.2c-3.6-1.9-4.9-6.4-3-10c1.9-3.6,6.3-5,10-3c56.2,30.2,91.1,88.5,91.1,152.2
		c0,63.7-34.9,122.1-91.1,152.2C275.5,340.9,274.3,341.2,273.1,341.2z"/>
</g>
<g class="st1">
	<path class="st2" d="M286.5,107.7H103.7C82,107.7,64.3,90,64.3,68.2S82,28.8,103.7,28.8h182.7c21.8,0,39.4,17.7,39.4,39.4
		S308.2,107.7,286.5,107.7z M103.7,42.6c-14.1,0-25.6,11.5-25.6,25.6s11.5,25.6,25.6,25.6h182.7c14.1,0,25.6-11.5,25.6-25.6
		s-11.5-25.6-25.6-25.6H103.7z"/>
	<path class="st2" d="M286.5,201.6H103.7c-21.8,0-39.4-17.7-39.4-39.4s17.7-39.4,39.4-39.4h182.7c21.8,0,39.4,17.7,39.4,39.4
		S308.2,201.6,286.5,201.6z M103.7,136.6c-14.1,0-25.6,11.5-25.6,25.6s11.5,25.6,25.6,25.6h182.7c14.1,0,25.6-11.5,25.6-25.6
		s-11.5-25.6-25.6-25.6H103.7z"/>
	<circle class="st2" cx="195.1" cy="68.2" r="12.8"/>
	<circle class="st2" cx="195.1" cy="162.1" r="12.8"/>
	<path class="st2" d="M319,301.7c-16.1,0-29.3-13.1-29.3-29.3s13.1-29.3,29.3-29.3s29.3,13.1,29.3,29.3S335.1,301.7,319,301.7z
		 M319,257c-8.5,0-15.4,6.9-15.4,15.4s6.9,15.4,15.4,15.4s15.4-6.9,15.4-15.4S327.5,257,319,257z"/>
	<path class="st2" d="M71.2,301.7c-16.1,0-29.3-13.1-29.3-29.3s13.1-29.3,29.3-29.3s29.3,13.1,29.3,29.3S87.4,301.7,71.2,301.7z
		 M71.2,257c-8.5,0-15.4,6.9-15.4,15.4s6.9,15.4,15.4,15.4s15.4-6.9,15.4-15.4S79.7,257,71.2,257z"/>
	<path class="st2" d="M195.1,231c-3.8,0-6.9-3.1-6.9-6.9v-29.4c0-3.8,3.1-6.9,6.9-6.9s6.9,3.1,6.9,6.9V224
		C202,227.9,198.9,231,195.1,231z"/>
	<rect x="188.2" y="104.3" class="st2" width="13.9" height="28.1"/>
	<rect x="93.6" y="265.5" class="st2" width="53.3" height="13.9"/>
	<rect x="250.7" y="265.5" class="st2" width="45.9" height="13.9"/>
	<path class="st2" d="M195.1,347.5c-2.9,0-5.8-0.7-8.4-2.2l-33.4-18.7c-4.7-2.6-8-7.4-8.7-12.8l-8.5-64.1
		c-1.1-8.3,3.9-16.2,11.8-18.8l42-13.5c3.5-1.1,7.1-1.1,10.6,0l42,13.5c8,2.6,12.9,10.5,11.8,18.8l-8.5,64.1
		c-0.7,5.4-4,10.2-8.7,12.8h0l-33.4,18.7C200.9,346.7,198,347.5,195.1,347.5z M195.1,230.5c-0.4,0-0.7,0.1-1.1,0.2l-42,13.5
		c-1.6,0.5-2.6,2.1-2.3,3.7l8.5,64.1c0.1,1.1,0.8,2,1.7,2.5l33.4,18.7c1,0.6,2.3,0.6,3.3,0l33.4-18.7c0.9-0.5,1.6-1.5,1.7-2.5
		l8.5-64.1c0.2-1.6-0.8-3.2-2.3-3.7l-42-13.5C195.8,230.5,195.5,230.5,195.1,230.5z M233.6,320.5L233.6,320.5L233.6,320.5z"/>
	<path class="st2" d="M190.3,301.7c-1.4,0-2.9-0.4-4.1-1.4l-21.2-15.7c-3.1-2.3-3.7-6.6-1.5-9.7c2.3-3.1,6.6-3.7,9.7-1.5l16.5,12.1
		l25.3-25.1c2.7-2.7,7.1-2.7,9.8,0c2.7,2.7,2.7,7.1,0,9.8l-29.5,29.3C193.8,301,192.1,301.7,190.3,301.7z"/>
</g>
<g class="st1">
	<path class="st2" d="M195.1,366.8c-79.7,0-144.5-64.8-144.5-144.5S115.4,77.8,195.1,77.8V94c-70.7,0-128.3,57.5-128.3,128.3
		s57.5,128.3,128.3,128.3s128.3-57.6,128.3-128.3c0-48.7-27-92.5-70.4-114.5l7.3-14.5c48.9,24.8,79.3,74.2,79.3,129
		C339.6,302,274.8,366.8,195.1,366.8z"/>
	<path class="st2" d="M195.1,165.9c-42.3,0-82.2-8.3-109.4-22.9l7.6-14.3c24.9,13.3,62,20.9,101.7,20.9s76.8-7.6,101.7-20.9
		l7.6,14.3C277.3,157.6,237.4,165.9,195.1,165.9z"/>
	<path class="st2" d="M296.1,316.9c-24.9-13-61.7-20.5-101-20.5c-38.8,0-75.4,7.4-100.2,20.2l-7.4-14.4c27.1-14,66.3-22,107.7-22
		c41.8,0,81.3,8.2,108.5,22.4L296.1,316.9z"/>
	<rect x="187" y="250.7" class="st2" width="16.2" height="108"/>
	<rect x="223.9" y="214.2" class="st2" width="107.6" height="16.2"/>
	<path class="st2" d="M203.6,193.9h-16.2V17.5c0-2.9,1.6-5.6,4.1-7.1s5.7-1.4,8.2,0.2l104.3,63.9c2.6,1.6,4.1,4.4,3.9,7.4
		c-0.2,3-2,5.7-4.8,6.9L203.6,133V193.9z M203.6,32v83.3l78.8-35.1L203.6,32z"/>
	<path class="st2" d="M195.5,258.8c-20.1,0-36.5-16.4-36.5-36.5s16.4-36.5,36.5-36.5s36.5,16.4,36.5,36.5S215.6,258.8,195.5,258.8z
		 M195.5,202c-11.2,0-20.3,9.1-20.3,20.3c0,11.2,9.1,20.3,20.3,20.3c11.2,0,20.3-9.1,20.3-20.3C215.8,211.1,206.7,202,195.5,202z"/>
	<rect x="60.2" y="214.2" class="st2" width="107.6" height="16.2"/>
</g>
</svg>
