<svg id="圖層_1" data-name="圖層 1" xmlns="http://www.w3.org/2000/svg" width="246" height="246" viewBox="0 0 246 246">
  <defs>
    <style>
      .cls-1 {
        fill: #fff;
      }
    </style>
  </defs>
  <g>
    <path class="cls-1" d="M135.79,155.27H110.21a7.14,7.14,0,1,1,0-14.27h25.58a7.14,7.14,0,1,1,0,14.27Zm-25.58-9.49a2.36,2.36,0,1,0,0,4.71h25.58a2.36,2.36,0,1,0,0-4.71Z"/>
    <path class="cls-1" d="M123,174.27a13.51,13.51,0,0,1-13.45-12.78,2.38,2.38,0,0,1,2.39-2.52h22.12a2.38,2.38,0,0,1,2.39,2.52A13.51,13.51,0,0,1,123,174.27Zm-8.16-10.52a8.67,8.67,0,0,0,16.32,0Z"/>
    <path class="cls-1" d="M139.32,137.33h-11.1a2.39,2.39,0,0,1-2.39-2.39v-25.5a2.39,2.39,0,0,1,2.39-2.39h7L123,93.51l-12.18,13.54h7a2.39,2.39,0,0,1,2.39,2.39v25.5a2.39,2.39,0,0,1-2.39,2.39h-11.1a2.31,2.31,0,0,1-1.2-.33,35,35,0,1,1,35,0A2.31,2.31,0,0,1,139.32,137.33Zm-8.71-4.78h8.06a30.23,30.23,0,1,0-31.33,0h8V111.83h-9.93a2.39,2.39,0,0,1-1.78-4l17.54-19.5a2.47,2.47,0,0,1,3.56,0l17.54,19.5a2.39,2.39,0,0,1-1.78,4h-9.93Z"/>
  </g>
</svg>
