<svg xmlns="http://www.w3.org/2000/svg" width="95.59" height="79.94" viewBox="0 0 95.59 79.94">
  <defs>
    <style>
      .cls-1 {
        fill: #fff;
      }
    </style>
  </defs>
  <g id="圖層_2" data-name="圖層 2">
    <g id="圖層_1-2" data-name="圖層 1">
      <g>
        <path class="cls-1" d="M73,59.85a31.91,31.91,0,0,1-50.1-.1,20,20,0,0,1-9.24.7,40,40,0,0,0,68.69-.07,20.27,20.27,0,0,1-3.51.32A20.82,20.82,0,0,1,73,59.85Z"/>
        <path class="cls-1" d="M22.92,20.19a31.91,31.91,0,0,1,50.1-.1,20.82,20.82,0,0,1,5.84-.85,20.27,20.27,0,0,1,3.51.32,40,40,0,0,0-68.69-.07,20,20,0,0,1,9.24.7Z"/>
        <path class="cls-1" d="M16.73,56.7a16.29,16.29,0,0,0,3.78-.45h0a16.71,16.71,0,0,0,0-32.56,16.29,16.29,0,0,0-3.78-.45,16.72,16.72,0,0,0-5.44,32.54c.43.14.86.28,1.3.39s.89.21,1.35.29A16,16,0,0,0,16.73,56.7Z"/>
        <path class="cls-1" d="M84.81,24.35a16.6,16.6,0,0,0-9.36-.76,16.73,16.73,0,0,0,0,32.76h0a16.64,16.64,0,0,0,3.41.35,16.37,16.37,0,0,0,5.66-1l.29-.09a16.71,16.71,0,0,0,0-31.24Z"/>
      </g>
    </g>
  </g>
</svg>
