<?xml version="1.0" encoding="utf-8"?>
<!-- Generator: Adobe Illustrator 27.2.0, SVG Export Plug-In . SVG Version: 6.00 Build 0)  -->
<svg version="1.1" id="圖層_1" xmlns="http://www.w3.org/2000/svg" xmlns:xlink="http://www.w3.org/1999/xlink" x="0px" y="0px"
	 width="246px" height="246px" viewBox="0 0 246 246" style="enable-background:new 0 0 246 246;" xml:space="preserve">
<style type="text/css">
	.st0{fill:#FFFFFF;}
</style>
<g>
	<path class="st0" d="M127,160c0,0.1,0,0.1,0.1,0.1c0.3,0,0.7,0,1,0c0.3,0,0.6,0,0.9,0c7.9,0,15.9,0,23.8,0c1,0,1.9,0,2.9-0.1
		c2.5-0.3,5-1,7.2-2.1c2.9-1.4,5.4-3.4,7.5-5.8c3.6-4.3,5.4-9.3,5.6-14.9c0.1-2.9-0.4-5.7-1.4-8.4c-0.7-2-1.6-3.8-2.8-5.5
		c0-0.1-0.1-0.3-0.2-0.4c-2.3-3.3-5.3-5.7-8.9-7.5c-0.4-0.2-0.6-0.4-0.5-0.8c0.2-4.1-0.4-8.1-1.8-11.9c-0.5-1.5-1-3-2-4.3
		c0-0.4-0.3-0.7-0.5-1.1c-2.3-3.9-5.3-7.2-9-9.8c-2.9-2-6-3.5-9.4-4.4c-3.3-0.9-6.6-1.3-10-1.1c-1.8,0.3-3.7,0.2-5.5,0.7
		c-1.3,0.4-2.7,0.7-3.9,1.1c-2,0.7-3.9,1.7-5.7,2.9c-2.1,1.4-4.1,3-5.8,4.8c-0.2,0.2-0.4,0.6-0.8,0.2c-0.4-0.4-1-0.4-1.5-0.6
		c-0.9-0.2-1.8-0.8-2.6-0.7c-1.5,0.1-2.9,0-4.4,0.4c-2.3,0.6-4.3,1.7-6,3.3c-2.7,2.6-4,5.8-4,9.5c0,0.5-0.2,0.7-0.6,0.8
		c-1.4,0.5-2.8,1.1-4.1,1.9c-4,2.2-7.2,5.3-9.8,9c-3.1,4.7-4.7,9.8-4.9,15.4c0,1.6,0.1,3.3,0.3,4.9c0.6,3.6,1.6,7,3.5,10.2
		c1.4,2.3,2.9,4.5,4.9,6.4c0.6,0.5,1.1,1.1,1.7,1.6c1.2,1,2.4,1.9,3.8,2.7c1.2,0.8,2.4,1.3,3.7,1.9c3.2,1.5,6.6,1.9,10.1,1.8
		c6.7-0.1,13.5,0,20.2-0.1c0.3,0,0.5,0.1,0.8-0.1c0-0.2,0.1-0.3,0.1-0.5c0-9.1,0-18.2,0-27.4c0-0.2,0-0.4-0.1-0.6c0-0.5,0-1,0-1.7
		c-0.8,0.4-1.3,0.7-1.9,1c-4.2,2.2-8.7,2.7-13.4,1.9c-3.8-0.8-6.9-2.6-9.4-5.6l0,0c-0.1-0.1-0.1-0.1-0.2-0.2c-0.6-1-1.2-2-1.8-3.1
		c-0.1-0.3-0.2-0.6-0.3-0.9c-0.9-2.8-1.4-5.6-0.9-8.5c0.4-2.3,1.2-4.5,2.5-6.5c0.8-1.2,1.8-2.3,3-3.2c1.2-0.8,2.2-1.7,3.6-2
		c2.5-0.7,4.9-1.1,7.5-0.9c1.8,0.2,3.5,0.6,5.2,1.1c1.4,0.4,2.5,1.3,3.8,1.9c0.2,0.2,0.3,0.4,0.5,0.5c0.6,0.3,0.6,0.7,0.2,1.1
		c-1.1,1.6-2.2,3.2-3.3,4.8c-0.3,0.5-0.6,0.5-1,0.1c-0.5-0.4-0.9-0.8-1.5-1c-0.1-0.1-0.1-0.1-0.2-0.2c-2.1-1.3-4.5-1.4-6.8-1.1
		c-2.5,0.3-4.5,1.5-5.7,3.9c-1.4,2.9-1.1,5.7,0.2,8.5c0.8,1.9,2.4,3.1,4.3,3.7c2.1,0.7,4.3,0.8,6.5,0.4c2.7-0.5,4.9-1.7,6.7-3.7
		c1.4-1.7,2.7-3.4,4-5.2c2.6-3.5,5.2-7,8.4-10c2.2-2,4.6-3.3,7.5-3.7c1,0,1.9,0,2.9,0c2.5,0.3,5,1,7.2,2.2c1.1,0.7,2.1,1.3,3.1,2.2
		c1.8,1.6,3.1,3.5,4,5.7c0,0.2,0,0.4,0.2,0.5l0,0c0,0.2,0,0.3,0,0.5c1,3.4,0.5,6.8-0.8,10c-1.4,3.5-3.8,6.2-7.1,7.9
		c-1.2,0.6-2.5,1.3-3.8,1.4c-4.8,0.1-9.6,0-14.4,0c-0.4,0-0.8,0-1.1,0c-0.1,0-0.1,0-0.1,0.1c0,2.2,0,4.4,0,6.5c0,5.2,0,10.4,0,15.6
		C127,157.2,127,158.6,127,160z"/>
	<path class="st0" d="M147,115L147,115c-0.1-0.2-0.1-0.3-0.2-0.5c-1.4-2.2-3.5-3.3-5.9-3.9c-2.4-0.6-4.5,0-6.3,1.6
		c-0.8,0.7-1.5,1.3-2.2,2.1c-2.9,3.2-5.4,6.7-8,10.2c-0.5,0.6-0.9,1.2-1.4,1.9c0.7,0,1.3,0,1.8,0c5.2,0,10.5,0,15.7,0
		c1.1,0,2.1-0.3,3.1-0.9c2.1-1.3,3.3-3.3,3.8-5.7c0.3-1.5,0.5-3-0.3-4.4C147.1,115.2,147.1,115.1,147,115z"/>
</g>
</svg>
