<svg xmlns="http://www.w3.org/2000/svg" width="89.69" height="106.63" viewBox="0 0 89.69 106.63">
  <defs>
    <style>
      .cls-1 {
        fill: #fff;
      }
    </style>
  </defs>
  <g id="圖層_2" data-name="圖層 2">
    <g id="圖層_1-2" data-name="圖層 1">
      <g>
        <g>
          <path class="cls-1" d="M47,105.85A48.08,48.08,0,0,1,0,68.36l7.86-1.77a40,40,0,0,0,60.37,25c1-.6,1.88-1.25,2.77-1.91l4.84,6.44c-1.06.8-2.17,1.57-3.31,2.29A47.83,47.83,0,0,1,47,105.85Z"/>
          <polygon class="cls-1" points="86.46 77.14 58.56 91.09 71.95 93.71 76.31 106.63 86.46 77.14"/>
        </g>
        <g>
          <path class="cls-1" d="M43.3,14.74s0,0,0,0S43.3,14.75,43.3,14.74Z"/>
          <path class="cls-1" d="M38.52,52.4c-4.07,2.34-2,10.43-.2,2.65C38.56,54.36,39.5,52.61,38.52,52.4Z"/>
          <path class="cls-1" d="M66.06,35.51c-.67.26-.54,1.16-.13,1.57A1.81,1.81,0,0,0,66.06,35.51Z"/>
          <path class="cls-1" d="M66.15,39.5c-.49.23.68,2.62.7,1.26,2.44.73-1.23,1.69,1.28,1.8-.36-.42-.1-1.18.2-.36.56,1.32-1.21.28-1,1.69.68-1.53,1.1,1.7,1.44,0C69.36,42.74,65.78,36.46,66.15,39.5Z"/>
          <path class="cls-1" d="M76.57,49.19c-.9-1.45-7.62-3.17-4.89-.52,2.55-.31,1.68,3.4,4,1.89.87-.91,1.33,1.19,2.49,1C76.75,50.13,77.8,49.61,76.57,49.19Z"/>
          <path class="cls-1" d="M66.29,48.83c-.07.55-.1.74.4.56.12-2.24,0-.79.81-.07,1.19-1.36-2.12-2.7-.32-2.76C70.77,47.62,65.48,43.88,66.29,48.83Z"/>
          <path class="cls-1" d="M61.88,49.91c-2.07-1.28-.31,1,1.15.67C71.46,51.52,68.36,50.29,61.88,49.91Z"/>
          <path class="cls-1" d="M62.29,38c-.46-.17-1.08.24-.7.72A.61.61,0,0,0,62.29,38Z"/>
          <path class="cls-1" d="M56.6,44.67c2,.48,2.27,5.69,4.36,4.47C61.51,48,58.09,44.13,56.6,44.67Z"/>
          <path class="cls-1" d="M66.17,44.54c-1.07-2-2.83,1.85-3.82,1.75C62.65,51.05,66.29,47.6,66.17,44.54Z"/>
          <path class="cls-1" d="M49.78,0A39.91,39.91,0,1,0,89.69,39.9,39.95,39.95,0,0,0,49.78,0Zm0,6.24A33.55,33.55,0,0,1,74.92,17.55c-3.18-1.05-15.7-2.06-17.45-1.68a52.5,52.5,0,0,1-9.3-1.81c-.81-.66-7.57,1.12-5,1.71-.34.1-2.13-.71-1.51.18.7.68-1.44-1.28-.78-.43,0,2,1.71.91,1.18,1.42-.12,0-1.12,2-.57.18C40.1,14.6,38.1,14.91,40,17.2c-3-1.9-4.49,1.27-6.52-.24-1.24-.13-.24.33-.25.92a4,4,0,0,0-2,.71c1.19.37-.88.22-.73-.42.3-.26-.31-.21-.31-.36,4.36.53.71-1.41-1.27-1.26-.67-.94-2.1-.6-3.51.2A33.54,33.54,0,0,1,49.78,6.24Zm-11,24.19c-1.53.05-3.79-5.07-.66-4.31.47.57-.54.55-.74.9C38.45,28.06,39.93,29.75,38.82,30.43Zm-20.94.07c2.06-2,6.77-5.22,7-.59-1.74-.42-.05,1.31.83-.33-.13-1.86.59,0,.57-.79-.58-.49-3-1.3-1.95-2.43,1.93,1.36,3.84,6.18,4.09,2.66.92-1.18.7,1.75,1.81,1.52.55.62,2.73-.77,2.66.64.32,2.81-10.51,2.09-9.49-.47C23.07,28.74,16.67,32.66,17.88,30.5Zm1.06-4.06c.36.51.56,1-.44,1C18.64,27.13,18.79,26.78,18.94,26.44Zm10-5.88c-3.1.11-.46.45-1.49,1.08-1.13-1.12-.31,1.4-1.5,1.07-.57-.42-1.74.28-2.43.15,3.42-1,.68-4.51,4.21-4.58C24.23,21.56,29,19.59,29,20.56ZM29.65,28c.13-1.48,1.13-2.41,2.09-.93,1.35-2.17.72-.22,2.8,1.16C33.63,28.58,30.12,28.56,29.65,28ZM22,21a2.56,2.56,0,0,0,1.2-.13c.29-.37,1.36,1.36.26,1.27.21-.48-.87-1.37-.92.09.56.7-1.51,1.7-2.66,2.34A33.55,33.55,0,0,1,22,21ZM77.74,58.64a4.59,4.59,0,0,0-.4-1.86c-2.09-8-4.92,1.52-4.45-4.49-2.74,0-10.54,3-9.91,7.72-1.83,5.11,3.31.49,6,1.08,1.61.71.15,2.17,2.09.5-1.06,1.16.77.6-.9,1.3.65,1,2,1.23,3.43.79-.46.46-.93.9-1.41,1.33-.22-.16-.32,0-.39.33A33.64,33.64,0,0,1,16.48,44.86C27.6,41.09,22,57,26.74,62.45,35,60.57,35.61,46.64,38.88,41.69c-3.78,2.84-8.43-11.1-5.07-5.6,1.14,7.82,10.5,3.84,7.11-1-1.86,3.37-5.44-4.68-1.16-.26,12,1,6.44,8.59,10.85,8.07-.22,2.73,1.87.17,0-.42-.47.75.4-1.73,0-2.32,5.74-6.81,3.57-.89,6.3-.61,1.51.12.6,5.85,3.57,7,0-1.31-4.36-7.35-.77-4.74.85,1.53,2.28.75,2.42-1-5-5.85,7.6-1.94,2.06-10.22,2-1.43-3.28.34-.69-1.88.64.61,2.8.51,2.86,2.62.77.62,1.54-.54.86-1.24-3-1.15,5-6.16-2.11-7.48-1.55-3.83,5-.44,3.78-2.8.13-.85,1.21.3,1.55.24.26,3,5.11,6,1.22.35,1.19-.4,5.7-.83,2.2-1.8a5.47,5.47,0,0,0,1.69-.43,33.58,33.58,0,0,1,2.25,40.44Z"/>
        </g>
      </g>
    </g>
  </g>
</svg>
