<svg width="360" height="57" viewBox="0 0 360 57" fill="none" xmlns="http://www.w3.org/2000/svg">
<g clip-path="url(#clip0_356_1471)">
<path d="M46.812 34.0391C36.1775 34.0391 35.8583 49.6391 46.812 49.6391C57.7657 49.6391 57.4543 34.0391 46.812 34.0391ZM46.812 47.5841C38.9646 47.4491 38.9646 36.2366 46.812 36.1016C54.6516 36.2366 54.6516 47.4491 46.812 47.5841Z" fill="white"/>
<path d="M72.4407 12.9346C72.1467 12.9346 71.8647 13.0465 71.6562 13.246C71.4476 13.4456 71.3294 13.7164 71.3274 13.9996V21.7771C70.6238 20.9296 69.7248 20.2518 68.7018 19.7974C67.6788 19.343 66.5599 19.1247 65.434 19.1596C60.1168 19.1596 57.3764 23.0596 57.3375 26.9596C57.2986 30.8596 60.0779 34.7521 65.434 34.7521C66.5529 34.7826 67.6638 34.5628 68.6796 34.1099C69.6955 33.6571 70.5884 32.9835 71.2885 32.1421V33.4321C71.2756 33.5799 71.2947 33.7288 71.3446 33.8692C71.3945 34.0096 71.4741 34.1384 71.5784 34.2477C71.6827 34.3569 71.8093 34.4441 71.9504 34.5037C72.0914 34.5634 72.2438 34.5942 72.3978 34.5942C72.5519 34.5942 72.7042 34.5634 72.8453 34.5037C72.9863 34.4441 73.113 34.3569 73.2173 34.2477C73.3215 34.1384 73.4011 34.0096 73.4511 33.8692C73.501 33.7288 73.5201 33.5799 73.5072 33.4321V13.9996C73.5055 13.7241 73.3937 13.4597 73.1951 13.2615C72.9966 13.0632 72.7264 12.9461 72.4407 12.9346ZM65.434 32.6971C64.6508 32.715 63.872 32.5783 63.1458 32.2952C62.4195 32.0122 61.7611 31.5888 61.2111 31.0513C60.6611 30.5137 60.2313 29.8733 59.948 29.1696C59.6647 28.4659 59.5341 27.7138 59.564 26.9596C59.5353 26.1991 59.666 25.4409 59.9482 24.7302C60.2305 24.0195 60.6585 23.3708 61.2068 22.8231C61.7551 22.2753 62.4123 21.8396 63.1393 21.542C63.8663 21.2444 64.648 21.091 65.4379 21.091C66.2278 21.091 67.0096 21.2444 67.7366 21.542C68.4635 21.8396 69.1208 22.2753 69.6691 22.8231C70.2174 23.3708 70.6454 24.0195 70.9277 24.7302C71.2099 25.4409 71.3406 26.1991 71.3118 26.9596C71.3407 27.7142 71.209 28.4665 70.9249 29.1702C70.6407 29.8739 70.2101 30.5142 69.6596 31.0516C69.109 31.5891 68.4501 32.0123 67.7234 32.2953C66.9967 32.5782 66.2176 32.715 65.434 32.6971Z" fill="white"/>
<path d="M94.1612 1.2868C93.8659 1.2868 93.5827 1.39979 93.374 1.60093C93.1652 1.80206 93.0479 2.07485 93.0479 2.3593V3.6418C92.3439 2.80005 91.4464 2.12746 90.4264 1.67711C89.4063 1.22676 88.2916 1.01098 87.1701 1.0468C81.8529 1.0468 79.1125 4.9468 79.0736 8.8468C79.0347 12.7468 81.8529 16.6468 87.1701 16.6468C88.2913 16.6809 89.4055 16.4643 90.4252 16.0141C91.445 15.5639 92.3427 14.8922 93.0479 14.0518V15.3418C93.0479 15.6262 93.1652 15.899 93.374 16.1002C93.5827 16.3013 93.8659 16.4143 94.1612 16.4143C94.4564 16.4143 94.7396 16.3013 94.9484 16.1002C95.1571 15.899 95.2744 15.6262 95.2744 15.3418V2.3593C95.2744 2.07485 95.1571 1.80206 94.9484 1.60093C94.7396 1.39979 94.4564 1.2868 94.1612 1.2868ZM87.1545 14.5768C86.3709 14.5937 85.592 14.456 84.8657 14.1721C84.1394 13.8882 83.4811 13.4641 82.9312 12.926C82.3814 12.3879 81.9516 11.747 81.6685 11.0429C81.3853 10.3388 81.2546 9.58635 81.2846 8.8318C81.2558 8.07135 81.3865 7.31312 81.6687 6.6024C81.951 5.89168 82.379 5.24306 82.9273 4.69528C83.4756 4.14751 84.1328 3.71181 84.8598 3.41422C85.5868 3.11663 86.3686 2.96325 87.1584 2.96325C87.9483 2.96325 88.7301 3.11663 89.4571 3.41422C90.1841 3.71181 90.8413 4.14751 91.3896 4.69528C91.9379 5.24306 92.3659 5.89168 92.6482 6.6024C92.9304 7.31312 93.0611 8.07135 93.0323 8.8318C93.0622 9.58571 92.9318 10.3375 92.6491 11.0411C92.3664 11.7447 91.9373 12.3852 91.3883 12.9232C90.8393 13.4613 90.1819 13.8855 89.4565 14.1698C88.7312 14.4542 87.9531 14.5927 87.1701 14.5768H87.1545Z" fill="white"/>
<path d="M22.1098 34.2708C20.6962 34.2108 19.293 34.5295 18.0561 35.1914C16.8192 35.8534 15.797 36.8328 15.1032 38.0208C14.4079 36.834 13.3855 35.8555 12.1489 35.1937C10.9123 34.5319 9.50983 34.2125 8.09653 34.2708C6.9631 34.2424 5.83904 34.4754 4.81798 34.9502C3.79692 35.4251 2.90844 36.1282 2.22655 37.0008V35.6958C2.22655 35.4114 2.10926 35.1386 1.90048 34.9375C1.6917 34.7363 1.40853 34.6233 1.11327 34.6233C0.818015 34.6233 0.53485 34.7363 0.32607 34.9375C0.117291 35.1386 0 35.4114 0 35.6958V48.5733C0 48.8578 0.117291 49.1306 0.32607 49.3317C0.53485 49.5328 0.818015 49.6458 1.11327 49.6458C1.40853 49.6458 1.6917 49.5328 1.90048 49.3317C2.10926 49.1306 2.22655 48.8578 2.22655 48.5733C2.26547 47.3208 2.12534 42.1608 2.32775 40.3233C2.37083 40.0678 2.43859 39.8167 2.53017 39.5733C3.37096 37.6683 5.3406 36.4608 8.09653 36.3783C8.88182 36.3503 9.66472 36.4778 10.3968 36.7529C11.1289 37.0281 11.7947 37.4449 12.3529 37.9778C12.9111 38.5106 13.3499 39.1481 13.6422 39.8508C13.9345 40.5536 14.074 41.3066 14.0522 42.0633V48.5658C14.0522 48.8503 14.1694 49.1231 14.3782 49.3242C14.587 49.5253 14.8702 49.6383 15.1654 49.6383C15.4607 49.6383 15.7439 49.5253 15.9526 49.3242C16.1614 49.1231 16.2787 48.8503 16.2787 48.5658V42.0708C16.2488 41.3163 16.3794 40.5638 16.6626 39.8597C16.9458 39.1556 17.3755 38.5148 17.9254 37.9766C18.4752 37.4385 19.1335 37.0144 19.8598 36.7305C20.5862 36.4466 21.3651 36.3089 22.1487 36.3258C23.1798 36.2686 24.2066 36.4948 25.1094 36.9781C26.0123 37.4615 26.7539 38.182 27.248 39.0558C27.7993 40.2062 28.0658 41.4643 28.0265 42.7308V48.5658C28.0265 48.8503 28.1438 49.1231 28.3525 49.3242C28.5613 49.5253 28.8445 49.6383 29.1397 49.6383C29.435 49.6383 29.7182 49.5253 29.9269 49.3242C30.1357 49.1231 30.253 48.8503 30.253 48.5658V42.0708C30.2141 37.4958 27.1156 34.3908 22.1098 34.2708Z" fill="white"/>
<path d="M124.235 49.3547L119.027 38.1572H117.174V51.5897H118.856V41.1122L119.027 41.4797L123.714 51.5897H124.905L129.747 41.1347V51.5897H131.429V38.1572H129.591L124.313 49.5272L124.235 49.3547Z" fill="white"/>
<path d="M135.734 36.7997C135.498 36.7907 135.264 36.8501 135.063 36.9701C134.863 37.0901 134.704 37.2653 134.607 37.4731C134.511 37.6809 134.481 37.9118 134.522 38.136C134.563 38.3603 134.672 38.5676 134.837 38.7312C135.001 38.8949 135.212 39.0075 135.443 39.0544C135.675 39.1013 135.915 39.0804 136.134 38.9944C136.353 38.9085 136.54 38.7614 136.671 38.572C136.802 38.3827 136.872 38.1599 136.871 37.9322C136.874 37.7858 136.847 37.6403 136.791 37.504C136.736 37.3677 136.653 37.2433 136.547 37.1381C136.441 37.0328 136.315 36.9487 136.175 36.8906C136.036 36.8326 135.886 36.8017 135.734 36.7997Z" fill="white"/>
<path d="M136.543 40.9854H134.862V51.5904H136.543V40.9854Z" fill="white"/>
<path d="M135.734 36.7176C135.481 36.7086 135.231 36.7728 135.016 36.9019C134.801 37.031 134.631 37.2191 134.528 37.442C134.425 37.6649 134.393 37.9124 134.438 38.1526C134.482 38.3929 134.6 38.6149 134.776 38.7901C134.952 38.9653 135.179 39.0857 135.427 39.1358C135.675 39.1858 135.932 39.1633 136.167 39.0711C136.401 38.9789 136.602 38.8212 136.742 38.6183C136.883 38.4154 136.958 38.1766 136.956 37.9326C136.959 37.7754 136.93 37.6191 136.87 37.4728C136.81 37.3265 136.721 37.1931 136.607 37.0801C136.494 36.9672 136.358 36.877 136.208 36.8148C136.058 36.7526 135.897 36.7196 135.734 36.7176ZM135.734 39.0726C135.498 39.0816 135.265 39.0224 135.064 38.9028C134.864 38.7831 134.705 38.6083 134.608 38.401C134.511 38.1936 134.481 37.9631 134.521 37.7391C134.561 37.5151 134.67 37.3078 134.834 37.1438C134.997 36.9798 135.208 36.8667 135.439 36.819C135.669 36.7712 135.91 36.791 136.129 36.8758C136.347 36.9606 136.535 37.1065 136.667 37.2949C136.8 37.4832 136.87 37.7053 136.87 37.9326C136.874 38.0794 136.847 38.2253 136.791 38.362C136.736 38.4987 136.653 38.6236 136.547 38.7295C136.442 38.8353 136.316 38.9201 136.176 38.979C136.036 39.0379 135.886 39.0697 135.734 39.0726Z" fill="white"/>
<path d="M141.83 42.4855L141.674 42.733V40.9855H139.992V51.5905H141.674V45.718C141.674 43.468 142.904 42.178 144.959 42.178C147.014 42.178 148.174 43.4455 148.174 45.583V51.583H149.833V45.328C149.833 42.5305 148.12 40.828 145.348 40.828C144.664 40.792 143.981 40.9255 143.365 41.2156C142.749 41.5057 142.221 41.9429 141.83 42.4855Z" fill="white"/>
<path d="M154.037 36.7997C153.801 36.7907 153.567 36.8501 153.366 36.9701C153.165 37.0901 153.007 37.2653 152.91 37.4731C152.813 37.6809 152.784 37.9118 152.825 38.136C152.865 38.3603 152.975 38.5676 153.139 38.7312C153.304 38.8949 153.515 39.0075 153.746 39.0544C153.978 39.1013 154.218 39.0804 154.437 38.9944C154.656 38.9085 154.843 38.7614 154.974 38.572C155.105 38.3827 155.175 38.1599 155.173 37.9322C155.178 37.7856 155.151 37.6396 155.096 37.5028C155.041 37.3661 154.958 37.2413 154.852 37.1358C154.746 37.0304 154.62 36.9463 154.48 36.8886C154.34 36.8309 154.189 36.8007 154.037 36.7997Z" fill="white"/>
<path d="M154.846 40.9854H153.165V51.5904H154.846V40.9854Z" fill="white"/>
<path d="M161.853 42.155C163.285 42.155 164.235 42.8675 164.368 44.0225H166.049C165.886 42.0425 164.313 40.8125 161.915 40.8125C159.517 40.8125 157.898 42.0425 157.898 43.7375C157.898 45.9275 159.961 46.46 161.791 46.9325C163.2 47.2925 164.531 47.6375 164.531 48.7475C164.531 49.8575 163.573 50.4275 162.157 50.4275C160.74 50.4275 159.595 49.6775 159.44 48.5975H157.696C157.867 50.495 159.658 51.77 162.172 51.77C164.508 51.77 166.166 50.525 166.166 48.77C166.127 46.715 164.157 46.19 162.421 45.725C160.973 45.335 159.595 44.975 159.595 43.76C159.58 42.7925 160.498 42.155 161.853 42.155Z" fill="white"/>
<path d="M171.141 38.2773H169.459V40.9848H168.011V42.2973H169.459V48.7248C169.459 50.7123 170.393 51.5898 172.472 51.5898H174.029V50.2473H172.752C171.553 50.2473 171.11 49.8348 171.11 48.7473V42.2973H174.029V40.9848H171.11L171.141 38.2773Z" fill="white"/>
<path d="M178.272 43.01V40.985H176.59V51.59H178.272V45.8225C178.272 43.5725 179.346 42.47 181.479 42.47H181.884V40.79C181.18 40.7545 180.48 40.9153 179.869 41.2531C179.257 41.591 178.759 42.0916 178.435 42.695L178.272 43.01Z" fill="white"/>
<path d="M188.385 49.6629L184.897 40.9854H183.029L187.497 51.5603L187.49 51.5903L185.333 56.6678H187.061L193.718 40.9854H191.997L188.463 49.8728L188.385 49.6629Z" fill="white"/>
<path d="M206.345 40.8123C205.598 40.7851 204.853 40.9084 204.158 41.1745C203.463 41.4406 202.833 41.8435 202.309 42.3574C201.785 42.8714 201.379 43.4851 201.115 44.1592C200.851 44.8333 200.737 45.553 200.779 46.2723C200.779 49.5123 203.028 51.7698 206.228 51.7698C206.983 51.7976 207.735 51.6741 208.438 51.407C209.14 51.1399 209.777 50.735 210.309 50.2181C210.84 49.7012 211.254 49.0835 211.525 48.4043C211.795 47.725 211.916 46.999 211.88 46.2723C211.921 45.5556 211.808 44.8385 211.546 44.1665C211.284 43.4945 210.88 42.8823 210.36 42.3688C209.839 41.8554 209.213 41.4518 208.522 41.1838C207.831 40.9159 207.09 40.7893 206.345 40.8123ZM206.259 50.3673C204.523 50.3673 202.499 49.2948 202.499 46.2723C202.499 43.2498 204.554 42.1923 206.345 42.1923C208.268 42.1923 210.237 43.4523 210.237 46.2723C210.237 49.0923 208.206 50.3673 206.251 50.3673H206.259Z" fill="white"/>
<path d="M216.668 40.1377C216.668 38.6752 217.291 38.0827 218.887 38.0677V36.7402C216.154 36.7402 214.994 37.7827 214.994 40.1377V40.9852H213.546V42.2977H214.994V51.5902H216.676V42.2977H219.011V40.9852H216.676L216.668 40.1377Z" fill="white"/>
<path d="M231.351 38.0605H227.015V51.5605H231.351C235.96 51.5605 238.817 48.9805 238.817 44.8105C238.817 40.6405 235.929 38.0605 231.351 38.0605ZM231.351 50.2855H228.696V39.343H231.351C235.002 39.343 237.096 41.353 237.096 44.8555C237.096 48.358 235.002 50.2855 231.351 50.2855Z" fill="white"/>
<path d="M243.239 40.9854H241.557V51.5904H243.239V40.9854Z" fill="white"/>
<path d="M242.429 36.7997C242.193 36.7907 241.959 36.8501 241.759 36.9701C241.558 37.0901 241.399 37.2653 241.302 37.4731C241.206 37.6809 241.176 37.9118 241.217 38.136C241.258 38.3603 241.367 38.5676 241.532 38.7312C241.696 38.8949 241.907 39.0075 242.139 39.0544C242.37 39.1013 242.61 39.0804 242.829 38.9944C243.048 38.9085 243.235 38.7614 243.366 38.572C243.498 38.3827 243.567 38.1599 243.566 37.9322C243.569 37.7858 243.542 37.6403 243.486 37.504C243.431 37.3677 243.348 37.2433 243.242 37.1381C243.136 37.0328 243.01 36.9487 242.871 36.8906C242.731 36.8326 242.581 36.8017 242.429 36.7997Z" fill="white"/>
<path d="M251.203 40.8133C248.136 40.8133 245.987 43.0633 245.987 46.2508C245.987 49.4383 248.182 51.7708 251.203 51.7708C252.022 51.7949 252.833 51.6073 253.552 51.2275C254.271 50.8477 254.871 50.2895 255.29 49.6108L255.461 49.3258V51.9133C255.461 54.1033 254.06 55.5208 251.904 55.5208C250.105 55.5208 248.72 54.6808 248.26 53.3383H246.594C246.999 55.5358 249.023 56.9008 251.904 56.9008C252.599 56.9451 253.296 56.8471 253.949 56.6131C254.602 56.3792 255.197 56.0146 255.693 55.5435C256.19 55.0723 256.577 54.5053 256.829 53.8796C257.082 53.2539 257.194 52.5838 257.159 51.9133V40.9858H255.461V43.2358L255.29 42.9433C254.875 42.2636 254.274 41.7061 253.554 41.3307C252.834 40.9554 252.021 40.7765 251.203 40.8133ZM255.461 46.2733C255.461 48.6808 253.858 50.3683 251.569 50.3683C249.28 50.3683 247.676 48.6733 247.676 46.2508C247.676 43.8283 249.233 42.1933 251.569 42.1933C253.904 42.1933 255.461 43.9108 255.461 46.2733Z" fill="white"/>
<path d="M261.464 36.7997C261.227 36.7907 260.994 36.8501 260.793 36.9701C260.592 37.0901 260.433 37.2653 260.337 37.4731C260.24 37.6809 260.211 37.9118 260.251 38.136C260.292 38.3603 260.402 38.5676 260.566 38.7312C260.73 38.8949 260.942 39.0075 261.173 39.0544C261.404 39.1013 261.645 39.0804 261.864 38.9944C262.083 38.9085 262.27 38.7614 262.401 38.572C262.532 38.3827 262.602 38.1599 262.6 37.9322C262.603 37.7858 262.576 37.6403 262.521 37.504C262.465 37.3677 262.382 37.2433 262.277 37.1381C262.171 37.0328 262.045 36.9487 261.905 36.8906C261.766 36.8326 261.616 36.8017 261.464 36.7997Z" fill="white"/>
<path d="M262.273 40.9854H260.592V51.5904H262.273V40.9854Z" fill="white"/>
<path d="M267.848 38.2773H266.166V40.9848H264.718V42.2973H266.166V48.7248C266.166 50.7123 267.092 51.5898 269.179 51.5898H270.736V50.2473H269.451C268.26 50.2473 267.816 49.8348 267.816 48.7473V42.2973H270.736V40.9848H267.848V38.2773Z" fill="white"/>
<path d="M277.781 40.8122C274.706 40.8122 272.557 43.0622 272.557 46.2497C272.557 49.4372 274.745 51.7697 277.758 51.7697C278.578 51.802 279.392 51.6205 280.114 51.2443C280.836 50.8681 281.44 50.3112 281.861 49.6322L282.032 49.3472V51.5972H283.729V40.9847H282.032V43.2347L281.861 42.9497C281.445 42.2715 280.846 41.7145 280.127 41.3382C279.409 40.9618 278.598 40.78 277.781 40.8122ZM282.032 46.2722C282.032 48.6797 280.428 50.3672 278.139 50.3672C275.85 50.3672 274.247 48.6722 274.247 46.2497C274.247 43.8272 275.804 42.1922 278.139 42.1922C280.475 42.1922 282.032 43.9097 282.032 46.2722Z" fill="white"/>
<path d="M288.844 37.2129H287.163V51.5904H288.844V37.2129Z" fill="white"/>
<path d="M302.102 38.1426L297.026 51.5976H298.793L299.938 48.5526H306.267V48.6051L307.388 51.6051H309.109L304.079 38.1426H302.102ZM300.405 47.2701L300.444 47.1576L303.106 40.0101L305.8 47.2701H300.405Z" fill="white"/>
<path d="M313.78 40.1377C313.78 38.6752 314.402 38.0827 316.006 38.0677V36.7402C313.266 36.7402 312.114 37.7827 312.114 40.1377V40.9852H310.666V42.2977H312.114V51.5902H313.78V42.2977H316.115V40.9852H313.78V40.1377Z" fill="white"/>
<path d="M320.56 40.1377C320.56 38.6752 321.183 38.0827 322.787 38.0677V36.7402C320.054 36.7402 318.894 37.7827 318.894 40.1377V40.9852H317.446V42.2977H318.894V51.5902H320.576V42.2977H322.912V40.9852H320.576L320.56 40.1377Z" fill="white"/>
<path d="M329.88 40.813C326.805 40.813 324.664 43.063 324.664 46.2505C324.664 49.438 326.851 51.7705 329.856 51.7705C330.677 51.8017 331.492 51.6198 332.215 51.2438C332.938 50.8677 333.543 50.3114 333.967 49.633L334.13 49.348V51.598H335.835V40.9855H334.13V43.2355L333.967 42.9505C333.548 42.2728 332.948 41.7164 332.228 41.3402C331.509 40.964 330.698 40.7818 329.88 40.813ZM334.13 46.273C334.13 48.6805 332.534 50.368 330.238 50.368C327.941 50.368 326.345 48.673 326.345 46.2505C326.345 43.828 327.902 42.193 330.238 42.193C332.573 42.193 334.13 43.9105 334.13 46.273Z" fill="white"/>
<path d="M340.132 36.7997C339.896 36.7907 339.663 36.8501 339.462 36.9701C339.261 37.0901 339.102 37.2653 339.006 37.4731C338.909 37.6809 338.879 37.9118 338.92 38.136C338.961 38.3603 339.071 38.5676 339.235 38.7312C339.399 38.8949 339.611 39.0075 339.842 39.0544C340.073 39.1013 340.314 39.0804 340.532 38.9944C340.751 38.9085 340.938 38.7614 341.07 38.572C341.201 38.3827 341.27 38.1599 341.269 37.9322C341.272 37.7858 341.245 37.6403 341.19 37.504C341.134 37.3677 341.051 37.2433 340.945 37.1381C340.84 37.0328 340.713 36.9487 340.574 36.8906C340.434 36.8326 340.284 36.8017 340.132 36.7997Z" fill="white"/>
<path d="M340.942 40.9854H339.261V51.5904H340.942V40.9854Z" fill="white"/>
<path d="M346.073 43.0103V40.9853H344.391V51.5903H346.073V45.8228C346.073 43.5728 347.155 42.4703 349.28 42.4703H349.685V40.7903C348.982 40.7535 348.282 40.9138 347.672 41.2519C347.061 41.59 346.565 42.0914 346.244 42.6953L346.073 43.0103Z" fill="white"/>
<path d="M356.232 45.7025C354.776 45.3125 353.406 44.9525 353.406 43.7375C353.406 42.7925 354.317 42.155 355.679 42.155C357.042 42.155 358.062 42.8675 358.186 44.0225H359.868C359.712 42.0425 358.14 40.8125 355.742 40.8125C353.344 40.8125 351.725 42.0425 351.725 43.7375C351.725 45.9275 353.78 46.46 355.617 46.9325C357.034 47.2925 358.358 47.6375 358.358 48.7475C358.358 49.8575 357.408 50.4275 355.983 50.4275C354.558 50.4275 353.43 49.6775 353.274 48.5975H351.53C351.701 50.495 353.484 51.77 356.006 51.77C358.342 51.77 360 50.525 360 48.77C359.93 46.6925 357.968 46.1675 356.232 45.7025Z" fill="white"/>
<path d="M116.738 7.215V8.6025H121.339V9.885H116.092V14.5275H120.553L119.502 16.23L115.243 16.2975V17.685L118.614 17.64L117.057 20.115L118.295 20.82L118.801 20.01C119.992 20.4 121.074 20.82 122.016 21.2325C120.292 22.2072 118.379 22.8349 116.396 23.0775L116.528 24.465C119.041 24.1778 121.444 23.3107 123.535 21.9375C124.682 22.4958 125.781 23.1429 126.82 23.8725L127.715 22.785C126.785 22.1158 125.801 21.519 124.772 21C125.735 20.0303 126.427 18.8405 126.781 17.5425L130.269 17.4975V16.1025L121.222 16.23L122.266 14.5275H127.661V9.885H122.818V8.6025H127.661V5.685H129.443V4.2975H127.661V1.38H122.818V0H121.37V1.38H116.738V4.2975H114.948V5.685H116.738V7.215ZM125.24 17.5425C124.858 18.5815 124.213 19.5122 123.363 20.25C122.142 19.6847 120.889 19.184 119.611 18.75L120.335 17.5725L125.24 17.5425ZM117.54 11.25H121.339V13.1025H117.54V11.25ZM126.158 11.25V13.1025H122.764V11.25H126.158ZM118.178 7.215V5.715H121.339V7.215H118.178ZM126.182 7.215H122.787V5.715H126.158L126.182 7.215ZM126.182 2.775V4.275H122.787V2.775H126.182ZM118.178 2.775H121.339V4.275H118.178V2.775Z" fill="white"/>
<path d="M129.817 12.6817C130.457 11.5896 131.001 10.4482 131.444 9.26922C132.108 11.7882 133.096 14.2171 134.387 16.4992C133.03 18.9879 131.121 21.159 128.797 22.8592L129.576 24.0292C131.871 22.4185 133.794 20.3649 135.22 17.9992C136.603 20.3221 138.279 22.4709 140.21 24.3967L141.238 23.4142C139.197 21.3574 137.45 19.0469 136.045 16.5442C137.64 13.4076 138.498 9.97134 138.56 6.47922H140.273V5.07672H132.775C133.183 3.47599 133.49 1.85304 133.694 0.216719L132.262 0.0742188C132.262 0.149219 131.483 7.16172 128.571 11.9842L129.817 12.6817ZM135.142 14.9317C133.585 11.8492 132.534 8.75922 132.472 6.48672H137.057C136.999 9.39051 136.348 12.2549 135.142 14.9167V14.9317Z" fill="white"/>
<path d="M155.126 24.3299V6.15742C156.181 4.57971 157.12 2.93323 157.937 1.22992L156.458 0.607422C154.696 4.23019 152.388 7.58157 149.607 10.5524L150.79 11.6099C151.761 10.5981 152.669 9.53124 153.507 8.41492V24.3299H155.126Z" fill="white"/>
<path d="M174.231 5.55758H166.765V0.142578H165.154V5.55758H157.696V7.11758H174.231V5.55758Z" fill="white"/>
<path d="M172.223 9.75019L172.378 9.00019L170.821 8.7002L170.666 9.4502C169.781 13.6024 168.674 17.7079 167.349 21.7502H163.916C163.176 17.3702 162.522 12.9977 162.203 10.8602C162.094 10.1102 162.024 9.6527 162.001 9.5102L161.868 8.7602L160.273 9.0152L160.405 9.7652C160.405 9.8927 160.498 10.3577 160.607 11.0777C160.919 13.1777 161.557 17.4302 162.281 21.7427H157.384V23.2502H174.963V21.7502H169.039C171 15.7052 172.207 9.83269 172.223 9.75019Z" fill="white"/>
<path d="M188.867 9.61515V10.3652H193.889V12.9752H189.015C188.834 12.9713 188.657 13.0283 188.515 13.1365C188.373 13.2446 188.275 13.3971 188.237 13.5677L186.882 18.7502L188.439 19.1177L188.61 18.4277H193.788C193.647 20.6102 193.274 22.9277 192.838 23.3927C192.402 23.8577 191.109 23.6852 190.09 23.6402C189.654 23.6402 189.225 23.5952 188.821 23.5952V25.1477C189.202 25.1477 189.599 25.1477 190.012 25.1927C190.424 25.2377 190.884 25.1927 191.312 25.1927C191.795 25.2537 192.286 25.2186 192.755 25.0896C193.224 24.9606 193.66 24.7404 194.037 24.4427C195.15 23.2577 195.399 18.9602 195.446 17.6927C195.452 17.5877 195.435 17.4827 195.396 17.3845C195.357 17.2863 195.297 17.1971 195.22 17.1227C195.066 16.9715 194.856 16.8853 194.636 16.8827H189L189.591 14.5577H193.889V15.0002H195.508V9.62265C195.508 9.42374 195.426 9.23298 195.28 9.09233C195.134 8.95167 194.936 8.87265 194.73 8.87265H190.214C194.885 5.92516 196.302 2.87266 196.372 2.69266C196.43 2.57279 196.454 2.44028 196.442 2.30857C196.43 2.17686 196.381 2.05062 196.302 1.94266C196.227 1.83816 196.127 1.75238 196.011 1.69239C195.894 1.63241 195.765 1.59994 195.633 1.59766H188.027V3.15016H194.255C193.436 4.26856 192.468 5.27738 191.374 6.15016C190.436 5.35244 189.422 4.64179 188.346 4.02766L187.567 5.25016C188.477 5.7651 189.336 6.35747 190.136 7.02015C188.499 8.15014 186.727 9.08683 184.858 9.81015L185.465 11.2502C186.635 10.7762 187.771 10.23 188.867 9.61515Z" fill="white"/>
<path d="M205.364 2.2875L204.243 1.1625C204.243 1.1625 203.208 2.115 201.744 3.4125C200.986 2.57601 200.293 1.68602 199.673 0.75L198.28 1.5C198.451 1.7775 202.522 8.2875 209.568 10.5675L210.09 9.0675C208.604 8.57563 207.201 7.87833 205.925 6.9975L208.54 4.7475L207.45 3.5925L204.632 6.0825C204.005 5.58735 203.408 5.05904 202.842 4.5C204.321 3.24 205.364 2.2875 205.364 2.2875Z" fill="white"/>
<path d="M196.224 25.4255C198.387 24.9857 200.431 24.1173 202.227 22.8755C204.03 23.9562 205.972 24.8059 208.003 25.403L208.494 23.903C206.759 23.3872 205.093 22.68 203.527 21.7955C204.861 20.6103 205.868 19.1228 206.454 17.468C206.488 17.3529 206.493 17.2315 206.469 17.1141C206.445 16.9966 206.392 16.8865 206.314 16.793C206.241 16.6964 206.145 16.6181 206.033 16.5646C205.922 16.5111 205.8 16.484 205.676 16.4855H198.404C198.291 16.4835 198.179 16.5052 198.075 16.5493C197.972 16.5933 197.879 16.6586 197.805 16.7405C197.726 16.8197 197.667 16.9144 197.631 17.0181C197.594 17.1217 197.582 17.2318 197.595 17.3405C197.595 17.4755 197.883 19.5905 200.833 21.893C199.32 22.8475 197.636 23.5216 195.866 23.8805L196.224 25.4255ZM199.525 18.0605H204.469C203.882 19.1471 203.09 20.1187 202.133 20.9255C201.04 20.1774 200.14 19.1971 199.502 18.0605H199.525Z" fill="white"/>
<path d="M196.91 14.4302L196.995 15.1802L196.933 14.4302L197.05 15.9827C197.182 15.9827 200.164 15.6977 200.031 10.9427C200.016 10.7205 200.016 10.4975 200.031 10.2752H203.145C203.286 10.2752 203.449 10.4477 203.449 10.6952V13.6952C203.434 14.1654 203.614 14.6221 203.948 14.9651C204.282 15.3081 204.744 15.5096 205.232 15.5252H206.734C207.05 15.5092 207.356 15.4196 207.627 15.2642C207.899 15.1087 208.126 14.892 208.291 14.6327L209.07 13.3352L207.661 12.5852L206.882 13.8752C206.841 13.9217 206.791 13.96 206.734 13.9877H205.232C205.162 13.9877 205.061 13.8752 205.061 13.7102V10.7102C205.077 10.2042 204.885 9.71238 204.526 9.34263C204.167 8.97287 203.671 8.75534 203.145 8.73773H199.845C199.666 8.73325 199.488 8.76422 199.322 8.82873C199.155 8.89323 199.005 8.9899 198.879 9.11273C198.672 9.40046 198.526 9.72495 198.45 10.0674C198.374 10.4098 198.369 10.7634 198.435 11.1077C198.56 14.1977 197.003 14.4227 196.91 14.4302Z" fill="white"/>
<path d="M229.226 22.823V17.093H232.931C233.901 19.2143 235.354 21.0979 237.183 22.604C239.012 24.1102 241.17 25.2001 243.496 25.793L243.939 24.293C241.969 23.7464 240.132 22.8259 238.537 21.5855C239.774 20.8918 240.948 20.099 242.048 19.2155L240.973 18.0455C239.826 18.9844 238.578 19.8039 237.252 20.4905C236.221 19.4915 235.359 18.3425 234.699 17.0855H243.714V15.5405H238.054V12.6605H242.227V11.108H238.054V8.25053H241.378C241.585 8.25053 241.783 8.17152 241.929 8.03086C242.075 7.89021 242.157 7.69945 242.157 7.50053V3.26303C242.157 2.92886 242.019 2.60837 241.774 2.37208C241.528 2.13578 241.196 2.00303 240.849 2.00303H223.099C222.989 2.00128 222.881 2.02174 222.78 2.0631C222.68 2.10445 222.589 2.16576 222.515 2.24303C222.437 2.31836 222.376 2.40881 222.337 2.50838C222.298 2.60795 222.282 2.71435 222.289 2.82053C222.289 2.98553 223.068 19.643 219.307 24.4205L220.592 25.3655C222.001 23.5805 222.826 20.4605 223.317 17.1155H227.614V23.1155L224.5 23.648L224.788 25.1855L234.846 23.453L234.558 21.9155L229.226 22.823ZM236.45 15.5405H230.479V12.6605H236.466L236.45 15.5405ZM236.45 11.108H230.479V8.25053H236.466L236.45 11.108ZM240.6 3.55553V6.75053H224.017C224.017 5.39303 224.017 4.28303 223.963 3.57803L240.6 3.55553ZM223.971 8.25053H228.852V11.078H225.029V12.6305H228.86V15.5105H223.527C223.807 13.013 223.932 10.448 223.971 8.25053Z" fill="white"/>
<path d="M264.586 5.13738H266.291V3.58488H260.685V1.00488H259.074V3.58488H253.461V5.13738H255.197C255.477 6.35988 256.131 9.28488 256.458 11.4599H252.955V13.0199H266.804V11.4599H263.301C263.651 9.28488 264.298 6.35988 264.586 5.13738ZM256.871 5.13738H262.927C262.6 6.59238 261.993 9.38238 261.69 11.4599H258.108C257.813 9.38238 257.205 6.59238 256.871 5.13738Z" fill="white"/>
<path d="M264.298 15.2997H255.555C255.349 15.2997 255.151 15.3788 255.005 15.5194C254.859 15.6601 254.777 15.8508 254.777 16.0497V25.1922H256.388V23.9997H263.519V25.1697H265.131V16.0797C265.135 15.9742 265.117 15.8689 265.076 15.7707C265.036 15.6725 264.974 15.5837 264.896 15.51C264.817 15.4364 264.723 15.3796 264.62 15.3433C264.517 15.3071 264.407 15.2922 264.298 15.2997ZM256.365 22.4997V16.8597H263.496V22.4997H256.365Z" fill="white"/>
<path d="M276.847 5.00156C276.978 4.68223 277.026 4.33698 276.986 3.99584C276.947 3.65469 276.822 3.32796 276.621 3.04406C276.427 2.76541 276.164 2.53785 275.855 2.38201C275.547 2.22617 275.203 2.14696 274.854 2.15156H269.965C269.798 2.15254 269.632 2.18533 269.477 2.24805C269.323 2.31077 269.183 2.4022 269.065 2.51711C268.947 2.63203 268.854 2.76817 268.79 2.91778C268.727 3.06739 268.695 3.22753 268.696 3.38906V25.5891H270.308V3.70406H274.854C274.934 3.70453 275.013 3.72478 275.082 3.76287C275.152 3.80095 275.21 3.85559 275.251 3.92156C275.308 4.00221 275.343 4.09579 275.351 4.1931C275.359 4.29041 275.341 4.3881 275.298 4.47656L273.11 10.8966C273.068 11.0109 273.055 11.1334 273.073 11.2536C273.09 11.3738 273.138 11.488 273.212 11.5866C274.769 13.7391 276.847 17.8191 275.89 19.5816C275.508 20.2941 274.566 20.6466 273.11 20.6466H272.332V22.2066H273.11C275.22 22.2066 276.637 21.5616 277.322 20.3091C278.879 17.4366 275.765 12.4416 274.761 11.0241L276.847 5.00156Z" fill="white"/>
</g>
<defs>
<clipPath id="clip0_356_1471">
<rect width="360" height="56.9108" fill="white"/>
</clipPath>
</defs>
</svg>
