<svg id="圖層_1" data-name="圖層 1" xmlns="http://www.w3.org/2000/svg" width="246" height="246" viewBox="0 0 246 246">
  <defs>
    <style>
      .cls-1 {
        fill: #fff;
      }
    </style>
  </defs>
  <g>
    <g>
      <path class="cls-1" d="M153,79.13a48.51,48.51,0,0,0-69.8-.4,1.75,1.75,0,0,0-.5,1.26,1.72,1.72,0,0,0,.53,1.24,1.78,1.78,0,0,0,2.5,0,45,45,0,0,1,64.71.36,1.77,1.77,0,0,0,1.28.55,1.76,1.76,0,0,0,1.76-1.72A1.78,1.78,0,0,0,153,79.13Z"/>
      <path class="cls-1" d="M117.89,76.46a35.87,35.87,0,0,0-26,11,1.76,1.76,0,0,0,2.54,2.45,32.33,32.33,0,0,1,23.43-10A32.73,32.73,0,0,1,141.66,90.3a1.77,1.77,0,0,0,2.5.08,1.78,1.78,0,0,0,.08-2.49A36.3,36.3,0,0,0,117.89,76.46Z"/>
      <path class="cls-1" d="M117.89,88.82a23.55,23.55,0,0,0-17.24,7.42,1.76,1.76,0,1,0,2.56,2.42h0a20.08,20.08,0,0,1,14.68-6.32,20.32,20.32,0,0,1,15,6.68,1.76,1.76,0,1,0,2.61-2.37A23.82,23.82,0,0,0,117.89,88.82Z"/>
    </g>
    <path class="cls-1" d="M99.53,111.27A27.93,27.93,0,1,0,139,113.59,28,28,0,0,0,99.53,111.27Zm34.93,39.3a24.64,24.64,0,1,1,2-34.79A24.66,24.66,0,0,1,134.46,150.57Z"/>
    <path class="cls-1" d="M104.2,116.52a20.91,20.91,0,1,0,29.52,1.74A20.93,20.93,0,0,0,104.2,116.52Zm26.14,29.42a18.45,18.45,0,1,1,1.54-26A18.46,18.46,0,0,1,130.34,145.94Z"/>
    <path class="cls-1" d="M128.46,134H107.8a1.86,1.86,0,0,1,0-3.72h20.66a1.86,1.86,0,0,1,0,3.72Z"/>
    <path class="cls-1" d="M118.13,144.3a1.86,1.86,0,0,1-1.86-1.86V121.78a1.86,1.86,0,0,1,3.72,0v20.66A1.86,1.86,0,0,1,118.13,144.3Z"/>
    <path class="cls-1" d="M154.84,181.89a8.49,8.49,0,0,1-6.35-2.84l-20.3-22.84,2.78-2.47,20.3,22.84a4.77,4.77,0,1,0,7.13-6.34L138.1,147.4l2.78-2.47,20.3,22.84a8.49,8.49,0,0,1-.71,12A8.4,8.4,0,0,1,154.84,181.89Z"/>
  </g>
</svg>
