<svg id="圖層_1" data-name="圖層 1" xmlns="http://www.w3.org/2000/svg" width="246" height="246" viewBox="0 0 246 246">
  <defs>
    <style>
      .cls-1 {
        fill: #fff;
      }
    </style>
  </defs>
  <g>
    <path class="cls-1" d="M123,140.53a17.87,17.87,0,0,1-4.57-.6,17.53,17.53,0,1,1,13.3-1.75h0A17.38,17.38,0,0,1,123,140.53Zm0-30.82a13.29,13.29,0,1,0,6.67,24.8h0a13.29,13.29,0,0,0-6.67-24.8Z"/>
    <rect class="cls-1" x="125.19" y="97.98" width="22.06" height="4.23" transform="translate(-18.58 168.01) rotate(-60)"/>
    <path class="cls-1" d="M144.83,93.5a8.32,8.32,0,1,1,7.22-4.16h0A8.28,8.28,0,0,1,147,93.21,8,8,0,0,1,144.83,93.5Zm0-12.42a3.89,3.89,0,0,0-1.07.15,4,4,0,0,0-2.48,1.9,4.09,4.09,0,0,0,7.08,4.09h0a4.09,4.09,0,0,0-1.5-5.59A4.1,4.1,0,0,0,144.85,81.08Z"/>
    <rect class="cls-1" x="107.66" y="89.07" width="4.23" height="22.06" transform="translate(-35.34 68.3) rotate(-30)"/>
    <path class="cls-1" d="M101.17,93.5A8,8,0,0,1,99,93.21,8.32,8.32,0,1,1,108.37,81h0a8.33,8.33,0,0,1-7.2,12.49Zm0-12.42a4.1,4.1,0,0,0-2,.55,4.09,4.09,0,0,0,4.09,7.09,4.1,4.1,0,0,0,1.49-5.59,4,4,0,0,0-2.48-1.9A3.89,3.89,0,0,0,101.15,81.08Z"/>
    <rect class="cls-1" x="85.53" y="120.88" width="22.06" height="4.23"/>
    <path class="cls-1" d="M79.32,131.32A8.32,8.32,0,1,1,87.65,123,8.33,8.33,0,0,1,79.32,131.32Zm0-12.41A4.09,4.09,0,1,0,83.41,123,4.1,4.1,0,0,0,79.32,118.91Z"/>
    <rect class="cls-1" x="98.75" y="143.78" width="22.06" height="4.23" transform="translate(-71.46 168.01) rotate(-60)"/>
    <path class="cls-1" d="M101.15,169.15A8.25,8.25,0,0,1,97,168a8.34,8.34,0,0,1-3-11.37h0a8.33,8.33,0,1,1,7.2,12.49Zm0-12.41a3.93,3.93,0,0,0-1.07.14,4.08,4.08,0,0,0-2.48,1.9h0a4.11,4.11,0,1,0,3.55-2Z"/>
    <rect class="cls-1" x="134.1" y="134.87" width="4.23" height="22.06" transform="translate(-54.7 87.66) rotate(-30)"/>
    <path class="cls-1" d="M144.85,169.15a8.34,8.34,0,0,1-7.22-4.16h0a8.33,8.33,0,0,1,3.05-11.37,8.34,8.34,0,0,1,11.37,3A8.34,8.34,0,0,1,149,168,8.25,8.25,0,0,1,144.85,169.15Zm-3.55-6.28a4.08,4.08,0,1,0,1.49-5.59,4.1,4.1,0,0,0-1.49,5.59Z"/>
    <rect class="cls-1" x="138.41" y="120.88" width="22.06" height="4.23"/>
    <path class="cls-1" d="M166.68,131.32A8.32,8.32,0,1,1,175,123,8.33,8.33,0,0,1,166.68,131.32Zm0-12.41a4.09,4.09,0,1,0,4.09,4.09A4.09,4.09,0,0,0,166.68,118.91Z"/>
    <g>
      <circle class="cls-1" cx="123.11" cy="84.38" r="2.1"/>
      <circle class="cls-1" cx="115.9" cy="84.38" r="2.1"/>
      <circle class="cls-1" cx="130.32" cy="84.38" r="2.1"/>
    </g>
    <g>
      <circle class="cls-1" cx="123.11" cy="161.32" r="2.1"/>
      <circle class="cls-1" cx="115.9" cy="161.32" r="2.1"/>
      <circle class="cls-1" cx="130.32" cy="161.32" r="2.1"/>
    </g>
    <g>
      <circle class="cls-1" cx="89.61" cy="103.59" r="2.1"/>
      <circle class="cls-1" cx="86" cy="109.83" r="2.1"/>
      <circle class="cls-1" cx="93.21" cy="97.35" r="2.1"/>
    </g>
    <g>
      <circle class="cls-1" cx="156.24" cy="142.06" r="2.1"/>
      <circle class="cls-1" cx="152.64" cy="148.31" r="2.1"/>
      <circle class="cls-1" cx="159.85" cy="135.82" r="2.1"/>
    </g>
    <g>
      <circle class="cls-1" cx="89.49" cy="142.22" r="2.1"/>
      <circle class="cls-1" cx="93.1" cy="148.46" r="2.1"/>
      <circle class="cls-1" cx="85.89" cy="135.97" r="2.1"/>
    </g>
    <g>
      <circle class="cls-1" cx="156.13" cy="103.74" r="2.1"/>
      <circle class="cls-1" cx="159.74" cy="109.99" r="2.1"/>
      <circle class="cls-1" cx="152.53" cy="97.5" r="2.1"/>
    </g>
  </g>
</svg>
