<?xml version="1.0" encoding="UTF-8"?>
<svg id="_圖層_2" data-name="圖層 2" xmlns="http://www.w3.org/2000/svg" width="30" height="27.69" viewBox="0 0 30 27.69">
  <defs>
    <style>
      .cls-1 {
        fill: #6868ac;
      }
    </style>
  </defs>
  <g id="_圖層_1-2" data-name="圖層 1">
    <path class="cls-1" d="m30,3.46v2.31l-15-3.46L0,5.77v-2.31L15,0l15,3.46ZM12.58,7.54c.87.22,1.67.47,2.42.76.74-.29,1.55-.54,2.42-.76,1.56-.41,3.06-.61,4.51-.61,1.11,0,2.3.13,3.57.4.91.19,1.81.43,2.7.72l1.08.4.72.32v17.78h-13.02c-.22.36-.5.64-.85.85-.35.2-.73.31-1.14.31s-.79-.1-1.14-.31c-.35-.2-.63-.49-.85-.85H0V8.76l.72-.32,1.08-.4c.89-.29,1.79-.53,2.7-.72,1.27-.26,2.46-.4,3.57-.4,1.44,0,2.94.2,4.51.61Zm-10.28,2.81v12.84c2.04-.67,3.97-1.01,5.77-1.01s3.73.34,5.77,1.01v-12.84c-2.16-.74-4.09-1.12-5.77-1.12-1.78,0-3.7.37-5.77,1.12Zm13.85,0v12.84c2.04-.67,3.97-1.01,5.77-1.01s3.73.34,5.77,1.01v-12.84c-2.07-.74-3.99-1.12-5.77-1.12-1.68,0-3.61.37-5.77,1.12Z"/>
  </g>
</svg>