<?xml version="1.0" encoding="UTF-8"?>
<svg id="_圖層_1" data-name="圖層_1" xmlns="http://www.w3.org/2000/svg" width="13mm" height="12.8mm" version="1.1" viewBox="0 0 36.8 36.4">
  <!-- Generator: Adobe Illustrator 29.0.0, SVG Export Plug-In . SVG Version: 2.1.0 Build 186)  -->
  <defs>
    <style>
      .st0 {
        stroke-linecap: round;
      }

      .st0, .st1 {
        fill: none;
        stroke: #6868ab;
        stroke-miterlimit: 10;
        stroke-width: 1.5px;
      }

      .st2 {
        display: none;
      }

      .st3 {
        fill: #6868ab;
      }
    </style>
  </defs>
  <g id="_圖稿_12" data-name="圖稿_12" class="st2">
    <g>
      <path class="st3" d="M35.2,15.5h-1.9c-.2-.8-.4-1.5-.6-2.3l1.7-.9c.3-.2.6-.5.7-.9,0-.4,0-.8-.2-1.1l-1.4-2.3c-.2-.3-.5-.6-.9-.7s-.8,0-1.1,0l-1.7,1c-.5-.6-1.1-1.2-1.7-1.7l1-1.6c.2-.4.2-.7.1-1.1s-.3-.7-.7-.9l-2.3-1.3c-.7-.4-1.6-.2-2,.5l-1,1.6c-.8-.3-1.5-.5-2.3-.6v-1.9c0-.8-.7-1.4-1.4-1.4h-2.6c-.8,0-1.4.7-1.4,1.4v1.9c-.8.2-1.5.4-2.3.6l-1-1.6c-.4-.7-1.3-.9-2-.5l-2,1.3c-.4.2-.6.5-.7.9s0,.7,0,1.1l1,1.6c-.6.5-1.2,1.1-1.7,1.7l-1.7-1c-.3-.2-.7-.2-1,0-.4,0-.7.3-.9.7l-1.3,2.2c-.4.7-.2,1.6.5,2l1.6.9c-.3.8-.5,1.5-.6,2.3h-1.9c-.8,0-1.4.6-1.4,1.4v2.6c0,.8.6,1.4,1.4,1.4h1.9c0,.8.3,1.5.6,2.3l-1.6.9c-.7.4-.9,1.3-.5,2l1.3,2.3c.2.3.5.6.9.7.4.1.8.1,1.1-.1l1.7-1c.5.6,1.1,1.1,1.7,1.7l-1,1.7c-.2.3-.3.7-.2,1.1s.3.7.7.9l2.3,1.3c.3.2.7.3,1.1.2.4,0,.7-.3.9-.7l1-1.6c.7.3,1.5.5,2.3.6v1.9c0,.8.7,1.4,1.4,1.4h2.6c.8,0,1.4-.6,1.4-1.4v-1.9c.8-.2,1.5-.4,2.3-.6l1,1.6c.2.4.5.6.9.7s.8,0,1.1-.2l2.3-1.3c.3-.2.6-.5.7-.9.1-.4.1-.8-.1-1.1l-1-1.7c.6-.5,1.2-1.1,1.7-1.7l1.7,1c.3.2.7.2,1.1.1s.7-.3.9-.7l1.3-2.3c.2-.3.2-.7.2-1.1,0-.4-.4-.7-.7-.9l-1.7-.9c.3-.8.5-1.5.6-2.3h1.9c.8,0,1.4-.7,1.4-1.4v-2.6c-.2-.7-.8-1.3-1.6-1.3M35.5,19.5c0,.2-.2.3-.3.3h-2.4c-.3,0-.5.2-.6.5-.2,1-.4,2-.8,3-.1.3,0,.6.2.7l2,1.2c0,0,0,.1.2.2v.2l-1.3,2.3q0,.1-.2.2h-.3l-2-1.3c-.2-.1-.5-.1-.7.1-.6.8-1.4,1.5-2.2,2.2-.2.2-.3.5-.1.7l1.2,2.1c0,0,.1.2,0,.3,0,0-.1.2-.2.2l-2.3,1.3c-.1,0-.2,0-.3,0-.1,0-.2,0-.2-.2l-1.2-2.1c-.1-.2-.4-.4-.7-.2-1,.4-2,.6-3,.8-.3.1-.5.3-.5.5v2.5c0,.2-.2.3-.3.3h-2.6c-.2,0-.3-.2-.3-.3v-2.4c0-.3-.2-.5-.5-.5-1-.2-2-.4-3-.8-.1,0-.1-.1-.2-.1-.2,0-.4.1-.5.3l-1.2,2.1c0,0-.1,0-.2.2h-.3l-2.3-1.3q-.1,0-.2-.2v-.3l1.2-2.1c.2-.2.1-.5-.1-.7-.8-.7-1.5-1.4-2.2-2.2-.2-.2-.5-.3-.7-.1l-2,1.2c0,0-.2.1-.3,0,0,0-.2-.1-.2-.2l-.9-2.3c0-.2,0-.4,0-.4l2-1.2c.2-.1.3-.4.3-.7-.4-1-.7-2-.8-3,0-.3-.3-.5-.5-.5H1.6c-.2,0-.3-.2-.3-.3v-2.6c0-.2.2-.3.3-.3h2.4c.3,0,.5-.2.5-.5.2-1,.4-2,.8-3,0-.3,0-.6-.3-.7l-2.1-1.2s0-.2,0-.4l1.3-2.3q0-.1.2-.2c0,0,.2,0,.3.1l2,1.2c.2,0,.5,0,.7-.2.6-.8,1.4-1.5,2.2-2.1.2-.2.3-.5.1-.7l-1.2-2.1c-.1,0-.1-.2,0-.3,0,0,.1-.2.2-.2l2.2-1.3c.2,0,.4,0,.4,0l1.2,2.1c.2.3.4.3.7.3,1-.4,2-.6,3-.8.3,0,.5-.3.5-.5V1.4c0-.2.2-.3.3-.3h2.6c.2,0,.3.2.3.3v2.4c0,.3.2.5.5.5,1,.2,2,.4,3,.8.3,0,.6,0,.7-.3l1.2-2.1c.1-.2.3-.2.5,0l2.3,1.3q.1.1.2.2v.3l-1.4,2.2c-.1.2-.1.5.1.7.8.6,1.5,1.4,2.2,2.1.2.2.5.3.7.1l2.1-1.2c0-.1.2-.1.3-.1s.2.1.2.2l1.3,2.3c0,.1,0,.2,0,.3,0,.1,0,.2-.2.2l-2,1.2c-.2.1-.3.4-.2.7.4,1,.6,1.9.8,3,0,.3.3.5.6.5h2.4c.2,0,.3.2.3.3v2.6h0Z"/>
      <path class="st3" d="M18.4,28.7c-5.8,0-10.5-4.7-10.5-10.5s1.9-7.1,5.1-9l.2.5,1.2-1.8-2.2-.2.2.5c-3.5,2.1-5.7,5.9-5.7,10,0,6.4,5.2,11.6,11.6,11.6s.6-.2.6-.6c.1-.3-.2-.5-.5-.5"/>
      <path class="st3" d="M18.4,7c-.3,0-.6.3-.6.6s.2.5.6.5c5.8,0,10.5,4.7,10.5,10.5s-1.9,7.1-5.1,9l-.2-.6-1.2,1.8h2.2c0,.1-.2-.4-.2-.4,3.5-2.1,5.7-5.9,5.7-10,0-6.2-5.3-11.4-11.7-11.4"/>
      <path class="st3" d="M22.7,23.7l1.2-1.2c.7-.7.6-1.7,0-2.3l-2-2,2-2c.6-.6.6-1.7,0-2.3l-1.2-1.2c-.6-.6-1.7-.6-2.3,0l-2,2-2-2c-.6-.6-1.7-.7-2.3,0l-1.1,1.2c-.6.6-.7,1.7,0,2.3l2,2-2,2c-.7.7-.7,1.7,0,2.3l1.2,1.2c.7.7,1.7.7,2.3,0l1.9-1.9,2,2c.6.5,1.7.5,2.3-.1M18.8,20.5c-.2-.2-.6-.2-.8,0l-2.3,2.3c-.2.2-.6.2-.8,0l-1.2-1.2c-.2-.2-.2-.6,0-.8l2.3-2.3c.2-.2.2-.6,0-.8l-2.3-2.3c-.2-.2-.2-.6,0-.8l1.2-1.2c.2-.2.6-.2.8,0l2.3,2.3c.2.2.6.2.8,0l2.3-2.3c.2-.2.6-.2.8,0l1.2,1.2c.2.2.2.6,0,.8l-2.3,2.3c-.2.2-.2.6,0,.8l2.3,2.3c.2.2.2.6,0,.8l-1.2,1.2c-.2.2-.6.2-.8,0l-2.3-2.3Z"/>
    </g>
  </g>
  <g class="st2">
    <circle class="st1" cx="18.4" cy="18.2" r="5.5"/>
    <line class="st1" x1="21.1" y1="13.5" x2="25.1" y2="6.7"/>
    <circle class="st1" cx="26.2" cy="4.8" r="2.2"/>
    <line class="st1" x1="15.7" y1="13.5" x2="11.8" y2="6.7"/>
    <circle class="st1" cx="10.7" cy="4.8" r="2.2"/>
    <line class="st1" x1="13" y1="18.2" x2="5.1" y2="18.2"/>
    <circle class="st1" cx="2.9" cy="18.2" r="2.2"/>
    <line class="st1" x1="15.7" y1="22.9" x2="11.8" y2="29.7"/>
    <circle class="st1" cx="10.7" cy="31.6" r="2.2"/>
    <line class="st1" x1="21.1" y1="22.9" x2="25.1" y2="29.7"/>
    <circle class="st1" cx="26.2" cy="31.6" r="2.2"/>
    <line class="st1" x1="23.9" y1="18.2" x2="31.7" y2="18.2"/>
    <circle class="st1" cx="33.9" cy="18.2" r="2.2"/>
    <g>
      <circle class="st3" cx="18.5" cy="4.5" r=".7"/>
      <circle class="st3" cx="15.9" cy="4.5" r=".7"/>
      <circle class="st3" cx="21" cy="4.5" r=".7"/>
    </g>
    <g>
      <circle class="st3" cx="18.5" cy="31.8" r=".7"/>
      <circle class="st3" cx="15.9" cy="31.8" r=".7"/>
      <circle class="st3" cx="21" cy="31.8" r=".7"/>
    </g>
    <g>
      <circle class="st3" cx="6.6" cy="11.3" r=".7"/>
      <circle class="st3" cx="5.3" cy="13.5" r=".7"/>
      <circle class="st3" cx="7.9" cy="9.1" r=".7"/>
    </g>
    <g>
      <circle class="st3" cx="30.2" cy="25" r=".7"/>
      <circle class="st3" cx="28.9" cy="27.2" r=".7"/>
      <circle class="st3" cx="31.5" cy="22.7" r=".7"/>
    </g>
    <g>
      <circle class="st3" cx="6.6" cy="25" r=".7"/>
      <circle class="st3" cx="7.8" cy="27.2" r=".7"/>
      <circle class="st3" cx="5.3" cy="22.8" r=".7"/>
    </g>
    <g>
      <circle class="st3" cx="30.2" cy="11.4" r=".7"/>
      <circle class="st3" cx="31.4" cy="13.6" r=".7"/>
      <circle class="st3" cx="28.9" cy="9.2" r=".7"/>
    </g>
  </g>
  <g class="st2">
    <circle class="st3" cx="18.4" cy="18.2" r="3"/>
    <path class="st0" d="M15.7,23.3c-1.8-1-3-2.9-3-5.1s1.2-4.1,3-5.1"/>
    <path class="st0" d="M21.1,13.2c1.8,1,3,2.9,3,5.1s-1.2,4.1-3,5.1"/>
    <path class="st0" d="M14,26.5c-3-1.6-5-4.7-5-8.3s2-6.7,5-8.3"/>
    <path class="st0" d="M22.9,9.9c3,1.6,5,4.7,5,8.3s-2,6.7-5,8.3"/>
    <path class="st0" d="M12.2,29.9c-4.2-2.2-7-6.6-7-11.7s2.8-9.4,6.9-11.6"/>
    <path class="st0" d="M24.7,6.5c4.2,2.2,7,6.6,7,11.7s-2.8,9.4-6.9,11.6"/>
    <path class="st0" d="M10.5,33.1C5.2,30.3,1.6,24.7,1.6,18.2S5.2,6.1,10.5,3.3"/>
    <path class="st0" d="M26.4,3.4c5.3,2.8,8.9,8.4,8.9,14.9s-3.6,12-8.9,14.9"/>
  </g>
  <g class="st2">
    <path class="st3" d="M28.3,9.5H8.5c-2.4,0-4.3-1.9-4.3-4.3.1-2.3,2-4.2,4.3-4.2h19.8c2.4,0,4.3,1.9,4.3,4.3s-1.9,4.2-4.3,4.2ZM8.5,2.5c-1.5,0-2.7,1.2-2.7,2.7s1.2,2.8,2.7,2.8h19.8c1.5,0,2.8-1.2,2.8-2.8s-1.2-2.8-2.8-2.8H8.5Z"/>
    <path class="st3" d="M28.3,19.7H8.5c-2.4,0-4.3-1.9-4.3-4.3s1.9-4.3,4.3-4.3h19.8c2.4,0,4.3,1.9,4.3,4.3s-1.9,4.3-4.3,4.3ZM8.5,12.6c-1.5,0-2.8,1.2-2.8,2.8s1.2,2.8,2.8,2.8h19.8c1.5,0,2.8-1.2,2.8-2.8s-1.2-2.8-2.8-2.8H8.5Z"/>
    <circle class="st3" cx="18.4" cy="5.2" r="1.4"/>
    <circle class="st3" cx="18.4" cy="15.4" r="1.4"/>
    <path class="st3" d="M31.8,30.5c-1.7,0-3.2-1.4-3.2-3.2s1.4-3.2,3.2-3.2,3.2,1.4,3.2,3.2-1.4,3.2-3.2,3.2ZM31.8,25.7c-.9,0-1.7.7-1.7,1.7s.7,1.7,1.7,1.7,1.7-.7,1.7-1.7-.8-1.7-1.7-1.7Z"/>
    <path class="st3" d="M5,30.5c-1.7,0-3.2-1.4-3.2-3.2s1.4-3.2,3.2-3.2,3.2,1.4,3.2,3.2-1.4,3.2-3.2,3.2ZM5,25.7c-.9,0-1.7.7-1.7,1.7s.8,1.6,1.7,1.6,1.7-.7,1.7-1.7-.8-1.6-1.7-1.6Z"/>
    <path class="st3" d="M18.4,22.8c-.4,0-.8-.3-.8-.8v-3.2c0-.4.3-.8.8-.8s.8.3.8.8v3.2c0,.5-.4.8-.8.8Z"/>
    <rect class="st3" x="17.7" y="9.1" width="1.5" height="3"/>
    <rect class="st3" x="7.4" y="26.6" width="5.8" height="1.5"/>
    <rect class="st3" x="24.4" y="26.6" width="5" height="1.5"/>
    <path class="st3" d="M18.4,35.4c-.3,0-.6,0-.9-.2l-3.6-2c-.5-.3-.9-.8-.9-1.4l-1-6.9c-.1-.9.4-1.7,1.3-2l4.5-1.5c.4-.1.8-.1,1.1,0l4.5,1.5c.9.3,1.4,1.1,1.3,2l-.9,6.9c-.1.6-.4,1.1-.9,1.4l-3.6,2c-.3.2-.6.2-.9.2ZM18.4,22.8h-.1l-4.5,1.5c-.2.1-.3.2-.3.4l.9,6.9c0,.1.1.2.2.3l3.6,2c.1,0,.2,0,.4,0l3.6-2h0c.1-.1.2-.2.2-.3l.9-6.9c0-.2-.1-.3-.3-.4l-4.5-1.5h-.1Z"/>
    <path class="st3" d="M17.9,30.5c-.2,0-.3,0-.4-.1l-2.3-1.7c-.3-.2-.4-.7-.2-1s.7-.4,1-.2l1.8,1.3,2.7-2.7c.3-.3.8-.3,1.1,0,.3.3.3.8,0,1.1l-3.2,3.2c-.1,0-.3.1-.5.1Z"/>
  </g>
  <g class="st2">
    <path class="st3" d="M18.4,34.7c-7.4,0-13.4-6-13.4-13.4s6.1-13.3,13.4-13.3v1.5c-6.5,0-11.9,5.3-11.9,11.9s5.3,11.9,11.9,11.9,11.9-5.3,11.9-11.9-2.5-8.6-6.5-10.6l.7-1.3c4.5,2.3,7.3,6.9,7.3,11.9,0,7.3-6,13.3-13.4,13.3Z"/>
    <path class="st3" d="M18.4,16.2c-3.9,0-7.6-.8-10.1-2.1l.7-1.4c2.3,1.2,5.7,1.9,9.4,1.9s7.1-.7,9.4-1.9l.7,1.3c-2.5,1.4-6.2,2.2-10.1,2.2Z"/>
    <path class="st3" d="M27.8,30.1c-2.3-1.2-5.7-1.9-9.3-1.9s-7,.7-9.3,1.9l-.7-1.3c2.5-1.3,6.1-2,10-2s7.5.8,10,2.1l-.7,1.2Z"/>
    <rect class="st3" x="17.7" y="24" width="1.5" height="10"/>
    <rect class="st3" x="21.1" y="20.6" width="9.9" height="1.5"/>
    <path class="st3" d="M19.2,18.7h-1.5V2.4c0-.3.1-.5.4-.7s.5-.1.8,0l9.6,5.9c.2,0,.4.4.4.7s-.2.5-.4.6l-9.2,4.1v5.7h0ZM19.2,3.8v7.7l7.3-3.2-7.3-4.5Z"/>
    <path class="st3" d="M18.5,24.7c-1.9,0-3.4-1.5-3.4-3.4s1.5-3.4,3.4-3.4,3.4,1.5,3.4,3.4-1.6,3.4-3.4,3.4ZM18.5,19.5c-1,0-1.9.8-1.9,1.9s.8,1.9,1.9,1.9,1.9-.8,1.9-1.9-.9-1.9-1.9-1.9Z"/>
    <rect class="st3" x="5.9" y="20.6" width="9.9" height="1.5"/>
  </g>
  <g>
    <g>
      <path class="st3" d="M27,20.1h0s-14.3-8.1-14.3-8.1c0,0-.1,0-.2,0-.1,0-.1.2-.1.3v1.2c0,.4.3.9.6,1.1l11.3,6.4c.6.3.8,1.1.6,1.7,0,0,0,.1-.2.6-.7,1.7-1.6,3.2-2.7,4.4-1.1,1.2-3.3,2.7-3.6,2.8-.5.3-1.4.3-1.9,0-.4-.3-2.5-1.6-3.6-2.8-1.5-1.7-2.7-4.5-2.8-4.8-.2-.4-.6-.9-1-1.2l-1.6-.9c0,0-.1,0-.2,0,0,0,0,0,0,.2,0,.3.4,1.8.9,3.1.8,1.9,1.8,3.6,3.1,5,1.4,1.6,4.7,3.6,4.8,3.6.4.3.9.5,1,.6,0,0,.3,0,.3,0,0,0,.1,0,.3-.1.2-.1.5-.3.8-.4.1,0,3.4-2.1,4.8-3.6,1.5-1.7,2.7-3.8,3.5-6.1.2-.5.3-.9.4-1.4v-.4c.2-.3,0-.7-.4-.9Z"/>
      <polygon class="st3" points="17.5 8.7 15.9 9.7 19.2 9.7 17.5 8.7"/>
      <path class="st3" d="M28.1,9.4c0-.4-.2-.7-.3-.8-.3,0-.9-.3-1.3-.5-.1,0-3.6-1.5-5.4-2.6-.9-.5-1.7-1.1-2.2-1.4-.3-.2-.5-.3-.6-.4h-.2c0-.1-.2-.3-.4-.4,0,0-.1,0-.2,0s0,0,0,0c0,0-.1,0-.2,0h-.2c-.1.2-.2.3-.2.3,0,0-1.3.9-3.1,2-1.7,1-4.9,2.4-5.2,2.5-.4.2-1.1.4-1.3.5,0,0-.3.3-.3.8v4.8c0,.5,0,1.1,0,1.4v.7c0,.2.2.6.5.7.4.2,1,.6,1.4.8l11.8,6.7c0,0,.1,0,.2,0,.1,0,.2-.2.2-.3v-1.2c0-.4-.3-.9-.6-1.1l-10.5-5.9c-1-.6-.9-1.1-.9-1.6h0v-3.1c0-.6.4-1.3,1-1.6.6-.3,3.5-1.6,5-2.5,1-.6,1.6-1,1.6-1,.5-.3,1.4-.3,1.9,0,0,0,.6.4,1.6,1,1.6.9,4.6,2.3,5,2.5.6.3,1,.9,1,1.6v3c0,.4,0,.9,0,.9,0,0,0,.7.7,1.1l1,.6c0,0,.2,0,.2,0,.2,0,.2-.2.2-.3,0,0,0-.3,0-.6v-.4c0-.2,0-.8,0-1.3v-4.8Z"/>
    </g>
    <g>
      <path class="st3" d="M10,15.3c0,0,.1,0,.2.1l10.5,5.9c.2,0,.3.2.4.4.3.4.5.9.5,1.3v1.2c0,.2,0,.4-.1.5,0,0,0,0,0,0h.9c.3,0,.4-.2.4-.6v-1.2c0-.5-.4-1.1-.8-1.4l-10.5-5.9c-.9-.5-.8-1-.8-1.5v-3c0-.5.4-1.1.8-1.3.2,0,3.4-1.5,5-2.5.6-.4,1-.6,1.3-.8-.1,0-.3,0-.4,0-.2,0-.4,0-.6.2,0,0-.6.4-1.6,1-1.6,1-4.7,2.4-5.1,2.5,0,0,0,0,0,0-.3.2-.5.6-.5.9v3.1c0,.4,0,.6.4.9Z"/>
      <path class="st3" d="M14.7,27.4c-1.5-1.7-2.7-4.6-2.7-4.7-.2-.5-.7-1.1-1.1-1.3l-1.6-.9s0,0,0,0c0,0,0,0,0,0,0,0,0,0,0,0,0,0,0,0,0,0,0,0,0,0,0,0,0,0,0,0,0,0,0,0,0,0,0,0,0,0,0,0,0,0h-.7l1.2.7c.2.1.4.3.6.5.3.3.6.7.7,1,0,.1,1.2,2.9,2.7,4.6.2.3.5.5.8.8,1.1.9,2.4,1.8,2.6,1.9.2,0,.4.2.6.2s.3,0,.4,0c-.7-.5-2.3-1.6-3.2-2.6Z"/>
      <path class="st3" d="M28.7,19.9l-.8-.5c-.4-.2-1.2-.7-1.6-.9l-10-5.6-1.9-1.1s0,0,0,0c0,0,0,0,0,0,0,0,0,0,0,0,0,0,0,0,0,0,0,0,0,0,0,0,0,0,0,0-.1,0,0,0,0,0,0,0,0,0,0,0,0,0h-.7l11.6,6.5c.2.1.6.3.9.5l1.5.9c.2,0,.3.2.4.3.3.4.5.9.4,1.3v.4c-.2.5-.4.9-.5,1.4-.8,2.4-2,4.5-3.6,6.3-.2.2-.4.4-.6.6-1.6,1.4-4,2.9-4.3,3.1-.2.1-.4.2-.6.4h.6c0,0,.2,0,.3,0,0,0,.2,0,.3-.2.2-.1.5-.3.8-.4.2-.1,3.5-2.1,4.9-3.7,1.7-2,2.8-4.2,3.5-6.2.2-.5.3-.9.4-1.4v-.4c.2-.4,0-1-.5-1.3Z"/>
      <path class="st3" d="M20,10h1c.2,0,.3-.3.1-.4l-2-1.2s0,0,0,0c0,0,0,0,0,0,0,0,0,0,0,0,0,0,0,0,0,0h-.8l1.6.9c0,0,.2.1.2.2h.1c.2.2.1.5-.1.5Z"/>
      <path class="st3" d="M29.9,14.2v-4.8c0-.5-.2-1-.5-1.1-.3,0-.8-.3-1.3-.5-.2,0-3.6-1.5-5.4-2.6-.9-.5-1.6-1-2.2-1.4-.3-.2-.5-.3-.6-.4,0,0-.1,0-.2-.1,0,0-.2-.1-.4-.3,0,0-.2-.1-.3-.1,0,0,0,0,0,0,0,0,0,0,0,0h-.7c0,0,.2.1.2.1h.2c.1.2.3.4.6.6.5.3,1.2.8,2.1,1.4,1.8,1.1,5.2,2.5,5.3,2.6.4.2,1,.4,1.3.5.2,0,.3.2.4.3.2.3.3.7.3,1.1v4.8c0,.5,0,1.1,0,1.3v.5c0,.2,0,.5,0,.6h0c0,.2,0,.4-.2.5,0,0,0,0,0,0h.9c.3,0,.5-.2.5-.6,0,0,0-.2,0-.7v-.4c0-.2,0-.8,0-1.3Z"/>
    </g>
  </g>
</svg>