<?xml version="1.0" encoding="utf-8"?>
<!-- Generator: Adobe Illustrator 27.2.0, SVG Export Plug-In . SVG Version: 6.00 Build 0)  -->
<svg version="1.1" id="圖層_1" xmlns="http://www.w3.org/2000/svg" xmlns:xlink="http://www.w3.org/1999/xlink" x="0px" y="0px"
	 viewBox="0 0 246 246" style="enable-background:new 0 0 246 246;" xml:space="preserve">
<style type="text/css">
	.st0{fill:#FFFFFF;}
</style>
<g>
	<path class="st0" d="M159.4,134.2c-0.4-1-1.1-1.9-2.1-2.4l-65-35.4c-0.7-0.4-1.5-0.6-2.3-0.6c-0.3,0-0.5,0-0.8,0.1
		c-1,0.2-1.9,0.9-2.3,1.7c-3.4,6.3-4.7,13.6-3.6,21c2.9,20.8,23.2,37.2,45.2,36.4c13.4-0.5,24.9-7.2,30.8-18
		C159.7,136.2,159.7,135.2,159.4,134.2z"/>
	<path class="st0" d="M139.4,170.5l-3.5-10.6c-0.7,0.1-1.5,0.3-2.2,0.4c-0.8,0.1-1.5,0.2-2.3,0.3c-1.3,0.1-2.6,0.2-3.9,0.2
		c-7.5,0-14.6-1.9-20.8-5.2c-0.7-0.4-1.3-0.7-2-1.1c-0.7-0.4-1.3-0.8-1.9-1.2l-6.5,17.2c-0.5,1.4-0.3,2.9,0.5,4.1
		c0.8,1.2,2.2,1.9,3.7,1.9h34.7c1.4,0,2.8-0.7,3.6-1.9C139.6,173.4,139.8,171.9,139.4,170.5z"/>
	<path class="st0" d="M115.1,129.7l-0.8-0.5c-1.4-0.8-1.9-2.7-1.1-4.1l12-21.2c0.8-1.4,2.7-1.9,4.1-1.1l0.8,0.5
		c1.4,0.8,1.9,2.7,1.1,4.1l-12,21.2C118.4,130,116.5,130.5,115.1,129.7z"/>
	<circle class="st0" cx="130" cy="103.1" r="6.3"/>
	<path class="st0" d="M146.9,73.8c-14.1-8.1-31.9-4.2-41.5,8.3c-0.8,1-0.5,2.5,0.7,3.1l0,0c0.9,0.5,2.1,0.3,2.7-0.6
		c8.4-10.9,23.7-14.2,36-7.2c12.3,7,17.3,21.9,12.2,34.7c-0.4,1,0,2.1,0.9,2.6l0,0c1.1,0.6,2.5,0.2,3-1
		C166.8,99,161,81.8,146.9,73.8z"/>
	<path class="st0" d="M142.3,81.7c-9.7-5.5-21.7-3.2-28.8,4.8c-0.9,1-0.6,2.6,0.6,3.2l0,0c0.9,0.5,2,0.3,2.7-0.5
		c5.8-6.6,15.6-8.4,23.5-3.9c7.9,4.5,11.3,13.8,8.6,22.2c-0.3,1,0.1,2,1,2.5l0,0c1.2,0.7,2.7,0.1,3.1-1.2
		C156.2,98.8,152,87.3,142.3,81.7z"/>
	<path class="st0" d="M137.8,89.6c-5.2-3-11.5-2.2-15.9,1.4c-1.1,0.9-1,2.8,0.3,3.5l0,0c0.7,0.4,1.7,0.4,2.4-0.2c3-2.5,7.5-3,11.1-1
		c3.6,2.1,5.4,6.1,4.8,10c-0.1,0.9,0.3,1.7,1.1,2.1l0,0c1.3,0.7,2.9,0,3.2-1.5C145.6,98.4,143,92.6,137.8,89.6z"/>
</g>
</svg>
