<svg width="195" height="194" viewBox="0 0 195 194" fill="none" xmlns="http://www.w3.org/2000/svg">
<path d="M146.197 111.4C156.797 99.8 163.297 84.3 163.297 67.3C163.297 31.2 134.097 2 97.9969 2C61.9969 2 32.7969 31.2 32.7969 67.3C32.7969 84.3 39.2969 99.7 49.8969 111.4L46.4969 129.9L61.9969 121.8C72.2969 128.6 84.6969 132.6 97.9969 132.6C111.297 132.6 123.697 128.6 133.997 121.8L149.497 129.9L146.197 111.4Z" stroke="black" stroke-width="3" stroke-linejoin="round"/>
<path d="M52.9984 191.999V188.599C52.8984 153.399 39.9984 154.999 28.1984 154.999C16.3984 154.999 3.59844 153.399 3.39844 188.599V191.999" fill="#C8CFE6"/>
<path d="M53.1984 191.999V188.599C53.0984 153.399 40.1984 154.999 28.2984 154.999C16.3984 154.999 3.49844 153.399 3.39844 188.599V191.999" stroke="black" stroke-width="3" stroke-linecap="round" stroke-linejoin="round"/>
<path d="M30.2982 148.801C37.1982 148.801 42.7982 143.201 42.7982 136.301C42.7982 129.401 37.1982 123.801 30.2982 123.801C23.3982 123.801 17.7982 129.401 17.7982 136.301C17.6982 143.201 23.2982 148.801 30.2982 148.801Z" fill="#C8CFE6" stroke="black" stroke-width="3" stroke-linecap="round" stroke-linejoin="round"/>
<path d="M191.498 191.8V188.4C191.398 153.2 177.498 154.8 164.698 154.8C151.898 154.8 137.998 153.2 137.898 188.4V191.8" fill="#0093E5"/>
<path d="M191.498 191.8V188.4C191.398 153.2 177.498 154.8 164.698 154.8C151.898 154.8 137.998 153.2 137.898 188.4V191.8" stroke="black" stroke-width="3" stroke-linecap="round" stroke-linejoin="round"/>
<path d="M164.703 149.699C171.603 149.699 177.203 144.099 177.203 137.199C177.203 130.299 171.603 124.699 164.703 124.699C157.803 124.699 152.203 130.299 152.203 137.199C152.203 143.999 157.803 149.699 164.703 149.699Z" fill="#0093E5" stroke="black" stroke-width="3" stroke-linecap="round" stroke-linejoin="round"/>
<path d="M98.9984 122.3C105.405 122.3 110.598 118.091 110.598 112.9C110.598 107.709 105.405 103.5 98.9984 103.5C92.5919 103.5 87.3984 107.709 87.3984 112.9C87.3984 118.091 92.5919 122.3 98.9984 122.3Z" fill="#4F5DC3" stroke="black" stroke-width="3" stroke-miterlimit="10"/>
<path d="M136.6 55.8C136.6 34.9 119.7 18 98.8 18C77.9 18 61 34.9 61 55.8C61 71.7 70.8 85.2 84.6 90.8L86.1 105.8H111.3L112.9 90.8C126.8 85.3 136.6 71.7 136.6 55.8Z" fill="#FFCB44" stroke="black" stroke-width="3" stroke-miterlimit="10"/>
<path d="M110.599 113.799H86.8994C86.1994 113.799 85.5994 113.199 85.2994 112.299L82.7994 102.799C82.3994 101.299 83.1994 99.6992 84.3994 99.6992H112.699C113.799 99.6992 114.599 101.199 114.299 102.699L112.099 112.199C111.899 113.199 111.299 113.799 110.599 113.799Z" fill="#4F5DC3" stroke="black" stroke-width="3" stroke-miterlimit="10"/>
<path d="M102.997 75.8008C103.897 76.7008 104.297 77.8008 104.297 79.2008C104.297 80.6008 103.897 81.8008 102.997 82.6008C102.097 83.5008 100.997 83.9008 99.4969 83.9008C97.9969 83.9008 96.8969 83.5008 96.0969 82.6008C95.1969 81.7008 94.7969 80.6008 94.7969 79.2008C94.7969 77.8008 95.1969 76.6008 96.0969 75.8008C96.9969 74.9008 98.0969 74.5008 99.4969 74.5008C100.897 74.5008 102.097 74.9008 102.997 75.8008ZM101.597 71.3008H97.3969L94.9969 44.3008H103.997L101.597 71.3008Z" fill="black"/>
<path d="M39.2031 155.9L60.4031 153.6L79.7031 140C79.7031 140 86.5031 137.4 85.9031 144.1C85.3031 150.7 66.3031 169.9 66.3031 169.9L51.5031 176.8" fill="#C8CFE6"/>
<path d="M39.2031 155.9L60.4031 153.6L79.7031 140C79.7031 140 86.5031 137.4 85.9031 144.1C85.3031 150.7 66.3031 169.9 66.3031 169.9L51.5031 176.8" stroke="black" stroke-width="3" stroke-miterlimit="10" stroke-linecap="round"/>
<path d="M152.198 155.9L130.998 153.6L111.698 140C111.698 140 104.898 137.4 105.498 144.1C106.098 150.7 125.098 169.9 125.098 169.9L139.898 176.8" fill="#0093E5"/>
<path d="M152.198 155.9L130.998 153.6L111.698 140C111.698 140 104.898 137.4 105.498 144.1C106.098 150.7 125.098 169.9 125.098 169.9L139.898 176.8" stroke="black" stroke-width="3" stroke-miterlimit="10" stroke-linecap="round"/>
</svg>
