<svg xmlns="http://www.w3.org/2000/svg" width="155.53" height="59.99" viewBox="0 0 155.53 59.99">
  <defs>
    <style>
      .cls-1 {
        fill: #fff;
      }
    </style>
  </defs>
  <g id="圖層_2" data-name="圖層 2">
    <g id="圖層_1-2" data-name="圖層 1">
      <g>
        <path class="cls-1" d="M60.49,35.83A9.49,9.49,0,0,0,59.37,34c-.25-.62-1-.62-1.11-1.12-.62-.62-1.49-.86-2.11-1.48-.37.12-.62-.62-.87-.25-.36-.62-1-.62-1.36-1.11-.74.12-1.36-.87-2.1-.62-.5-1.12-2.1-.75-2.6-1.86a7.44,7.44,0,0,1-2.35-1.36c-.5-.13-.74-.74-1.24-.87-1.24-1.36-2.47-3.09-3.84-4.45-1.11-.38-1.73-1.74-2.72-2.36-.37-.12-.62-.62-1-.62-1.49-1.6-3.47-2.35-5.2-3.46l-.12.12c0-.37-.37-.49-.62-.62-.87-1-2.48-.49-3-1.85.37-1.36,1.48-2.48,2.23-3.59.61-.75,1.23-1.36,1.73-2,.12-.62-.25-1-.37-1.49-.37-.12-.25.25-.5.25s0-.25,0-.37c-.25-.5-.86-.5-1.24-.62-.37.25-1,.25-1.36.74a1.76,1.76,0,0,0,.13,1.12c-.25.61,0,1.48-.62,1.85a33.74,33.74,0,0,1-2.35,4.09,2.08,2.08,0,0,0-.87-.5c-.5.5-1.12-.25-1.73,0,.49.25.86.75,1.48.75a1.29,1.29,0,0,1,.37.86c-1.24,1.61-2,3.47-3.22,4.95a4.84,4.84,0,0,1-1.23,1.49c-1,1.61-2.6,3.09-3.47,4.95-.74.37-1,1.48-1.73,1.86a3.71,3.71,0,0,1-1.49,1.85c-.25.87-1.24,1.49-1.85,2.23,0,.5-.25.62-.62.87-.25.62-1.12,1.11-1.24,1.85C10.72,33.85,10,34.35,10,35c-.74.49-.87,1.36-1.61,1.61.13,0,0,.12,0,.24-.87.62-1.48,1.74-2.47,2.36a5.88,5.88,0,0,1-4,2.35A6.63,6.63,0,0,0,.45,41c-.12,1-.87,2-.12,3,.61.75,1.6.13,2.1.62.37-.12.74.25,1-.24.74,0,1.11-.62,1.61-1.12s1.11-1.49,2-2c.87-1.61,2.6-2.85,3.47-4.58.49-1.61,2.22-2.23,2.72-3.84l.12.13c.87-.87,1.49-2,2.48-2.85,1.24-.12.86,1.73,2,1.86.12.74,1,.74,1.48,1a9.14,9.14,0,0,0,3.59,1.85c.5.62,1.49.37,1.37,1.24,0,.37-.5.74-.87.87-.12.86-1,.86-1.49,1.48-.37.25-.24,1.24-.86.75-.13.74-.87.86-1.12,1.61A1.34,1.34,0,0,0,20,42.15c.12.86,1,1.48,1.24,2.23l.49-.25a30.77,30.77,0,0,0,3.09-.37c.5.24,1.24-.25,1.49.12-.12.74-.62,1.24-.62,2a6.62,6.62,0,0,1-3.59,2.48c-.37.49-1.11.74-1.36,1.36-.62.49-.5,1.48-.62,2.23.37.86.37,1.85,1.24,2.35,1.61.74,3.34-.37,4.7-1.12,1.24.37,2.11-1.23,3.47-.37.37.13.74-.37,1,0a7.12,7.12,0,0,1,3.71.62c.87.12,1.73.5,2.48.62,1.61-.5,1.11-2.72,3-3,0-.5,1-.62.87-1.24.12-1.11-.87-1.48-1.61-2.23-.62,0-1.24-.49-1.74-.24-.49-.62-1.61-.25-2.35-.62-.37.86-.74-.5-1.24.12-.74-.12-1.61.5-2.22-.25-.13-.24.12-.49.12-.86,1.11-1.49,3.09-2.73,3.84-4.46.61-.49,0-1.36.24-2.1-.24-1-1.23-1.37-1.85-1.86-.5-.25-1.12-.74-1.61-.62-.37-.49-1.24-.37-1.12-1.24.62-.86.87-2.1,1.86-2.72.37-.87.87-1.49,1.24-2.35.62-1.36-.74-2.48-1.36-3.47-.37,0-.5-.37-.87-.12-.12-.13-.12-.25-.25-.37-.37-.13-.62-.38-1-.13-.24-.74-1.11-.25-1.48-.86-.5.12-1.12.24-1.74.37-.61,1.11-2.1,1.24-3.09,1.73a.12.12,0,0,1-.12-.12c-.38.49-1.12.24-1.61.61-.38.87-1.12-.12-1.61.5-1.36-.62-2.35.62-3.59,1-.37-.12-1,0-1-.62a5,5,0,0,1,2-2.6,34.31,34.31,0,0,1,3.22-4.21c.49-1.23,1.73-2.23,2.22-3.46a5.78,5.78,0,0,0,1.74-1.74.22.22,0,0,1,0-.37c.12.13.25.13.25.25.49-.49,1.23-.87,1.36-1.61.62-.37.74-1.36,1.61-1.73.62.62,1.48.49,2.1,1.11.62-.25.87.75,1.49.62.37,1.24,2,.74,2.22,2.11.87.12.87,1,1.61,1.36.37,1,1.74,1.36,2.11,2.47.74.62,1.23,1.74,1.85,2.36.38,1.36,1.86,1.85,2.36,3.21.12.13.62.25.62.62.61.62.86,1.61,1.48,2.11.5.86,1.11,1.61,1.61,2.35l.37.12a8.67,8.67,0,0,0,3.1,2.48,10.23,10.23,0,0,1,1.73.74,18.19,18.19,0,0,0,3.22,1.49c.61-.62,1,.24,1.61.24,1.36-.24,2.72.25,4.08.13C61.1,36.82,60.24,36.33,60.49,35.83Z"/>
        <g>
          <path class="cls-1" d="M78.38,11.17l.55-.06c.25-.36.74-.12.92-.61.43-.12.86-.18,1.29-.31.68-.3,1.47-.3,2.15-.61.49.06.86-.12,1.29,0,.06,0,0-.12.06-.12s.06.12.19.18.36-.12.55-.06a2.6,2.6,0,0,0,2-1.35c-.12-.25.06-.49.12-.74A2.64,2.64,0,0,0,86.91,6c-.06-.37-.43-.5-.49-.93-.61-.42-1.35-.67-1.66-1.28a4.77,4.77,0,0,1-1.22-1c-.19-.43-.56-.74-.68-1.17-.31-.36-.49-.85-.86-1.1V.37c.06-.12-.12-.25-.18-.37,0,.18-.19.25-.31.31s-.12-.19-.25-.13c-.24.31-.06.93-.12,1.42,0,.18.25.3.18.61.31.18.19.55.31.86.55.31.13,1.11.68,1.41-.13.37.24.55.3.86.25.37-.36.55-.12.92-.31.68-1,1.11-1.29,1.78a10,10,0,0,0-1.72,1.78c-.37.19-.55.56-.8.86s-.73.43-.86.8H78C78.07,11.3,78.25,11.3,78.38,11.17Z"/>
          <path class="cls-1" d="M100.11,15.66c-.18-.12.07-.37-.12-.49.43-.5-.49-.62-.55-1.05-.25-.37-.68-.24-1-.55a18.92,18.92,0,0,0-2.45-.8c-.13.12-.31.06-.43.12-.86-.43-1.72.07-2.64.13-.19.06-.31.24-.49.12a8.14,8.14,0,0,1-1.17.25c-.49.24-1,.12-1.6.36a4,4,0,0,1-1.47.62c-.43.12-.74.3-1.1.37l-.74.36c-.74,0-1.23.56-1.9.56-.68.37-1.36.61-2.09,1-.49-.25-.25.49-.74.31-.74.3-1.47.79-2.27,1-.43.49-1.23.18-1.48.86a2.4,2.4,0,0,0-.73.31,4,4,0,0,1-1.54.92c-.24.55-.92.37-1.29.8-.12,0-.18.06-.3.18-.37-.12-.31.55-.74.43a6.72,6.72,0,0,1-1.35.92c-.25.31-.74.37-1,.68a9.28,9.28,0,0,1-1,.43c-.18.37-.73.18-.86.61a12.63,12.63,0,0,0-1.41.43C67,24.68,67,24,66.47,24c-.13-.19-.5-.19-.37-.49a1.27,1.27,0,0,1-.37-.43c-.12-.13-.06-.31-.19-.31A6,6,0,0,0,65,25.54c.25.49.12,1.05.25,1.54-.25.37.06.61.18.92.06.55.8.74.92,1.29.25.12.49.3.74.43.55.37,1.17,0,1.78.18a5.65,5.65,0,0,0,1.47-.49c.56,0,.8-.61,1.29-.8.25.06.13-.24.37-.18.49-.49,1.23-.74,1.48-1.47.86-.5,1.53-1.42,2.45-2a1.43,1.43,0,0,0,.8-.8c.61-.06,1.1-.74,1.53-1.16V22.9c-.36.31-.92.31-1.22.62-.13.06-.25.12-.31.06s0-.25,0-.31c.12-.49.74-.8.92-1.17.92-.55,1.66-1.16,2.52-1.72.43,0,.43-.49.86-.42a14.45,14.45,0,0,1,1.47-.74c.68-.31,1.47-.31,2.15-.55.31-.06,0-.25.06-.43s.13-.19.19-.25c.36,0,.18.31.12.49.37-.49.92-.43,1.41-.49.31-.31.74-.37,1-.61,1.48-.31,2.89-1.23,4.49-1,.24.07.12.25.18.43-.25.86-1.17,1.35-1.29,2.09h-.25a1.28,1.28,0,0,0-.49.62,4.6,4.6,0,0,0-1.1,1.1c-.68.19-.8.92-1.35,1.29a22,22,0,0,1-2.21,1.78c0,.31-.31.55-.49.74s-.31.3-.49.49a5.72,5.72,0,0,0-1.54,1.29c-.25.06-.37.31-.49.49-.55.12-.74.74-1.23,1-.31-.06-.55.25-.74.43a4,4,0,0,0-1.22.37c-.13.31-.5.49-.37.86-.25.43.06,1-.43,1.29a1.77,1.77,0,0,0,.43,1.23c.8.12,1.53.67,2.33.8.49-.43,1.17-.07,1.66-.5a15.61,15.61,0,0,1,1.66-.3c.61-.37,1.47-.25,2-.56.13,0,.31-.06.37,0a.78.78,0,0,1,.12.74c-.49.62-.73,1.47-1.22,2-.31.06-.25.49-.5.61-.24.92-1.78,1.29-1.65,2.46-.13.37.06.61.18,1C84.7,38.74,85,40,85.32,41c-.25.19.18.31.06.49.3.44-.37.31-.49.68a10.76,10.76,0,0,0-2,.68c-.18.12-.43.3-.61.18-.37.43-1.11-.06-1.35.49-.5,0-.86.43-1.36.55-.73.25-1.41.86-2.15,1-.06.06-.18.12-.18.24-.37.13-.74.37-1.1.49-.07.07-.19.13-.19.25l-.86.61c0,.19-.18.25-.24.37-.68.06-.68.92-1.17,1.11-.12.24-.49.37-.43.67-.37.31-.31.8-.55,1.23.24.31-.31.74,0,1.11,0,.43.67.3.61.79.25.07.31.56.62.37,0-.06.06-.18,0-.18.06-.31.43-.25.67-.25A14.52,14.52,0,0,0,77,53.23c.18.25.55.07.67.37.55.06.86.43,1.35.55.12.31.49.44.8.56s.49.49.8.49.55.12.49.49-.49.31-.74.31c.19.18.43.06.62.24.36.06.73.25,1.1.31,1.35.61,2.52-.31,3.69-.61.06-.07.12-.19.24-.13.12-.3-.37-.37-.49-.67-.06-.06.06-.13.12-.19.37.06.49-.36.74-.55.06-.18.37-.25.37-.49.43-.43.43-.86.86-1.29a.7.7,0,0,0,.37-.8c.43-.24.24-.86.73-.92.13,0,.43.19.43.37s-.06.43-.12.74c.18,0,.06-.25.18-.37s.13,0,.13.06c.55-.31.3-1.11.86-1.47a12,12,0,0,0,.36-1.54c.19-.31-.06-.49.07-.8-.07-.43.18-.86.18-1.23-.43-.3.25-.55-.06-.92.18-.24-.25-.61.06-.86a7,7,0,0,0,2-.18c.61.18,1.1-.18,1.65-.31.06-.55,1-.86.68-1.41.12-.25.31-.25.49-.37-.37-.12-.74-.49-1.17-.55-.37-.31-.92-.18-1.29-.55-.3.3-.73,0-1,.06-.61-.68-1.54-.19-2.27-.31a11.84,11.84,0,0,1-1.35-1.9c-.13-.31-.62-.56-.68-1a1.1,1.1,0,0,1-.49-.74c-.18-.49-.74-.8-.8-1.41.19-.43.56-.74.74-1.17.18-.12.31-.31.43-.37.31-.55,1-.61,1.29-1.17-.06-.49.55-.18.67-.61l-.18-.12a.13.13,0,0,0,.12-.12c.37.06.43-.31.68-.56a.66.66,0,0,0,.67-.43,3.63,3.63,0,0,0,1.35-1c-.12-.49.5-.61.25-1.11s-.19-1.1-.37-1.77c-.06-.19-.18-.25-.37-.31a.92.92,0,0,1-.92-.37.44.44,0,0,0-.67.12,11.92,11.92,0,0,1-3,.12,14.23,14.23,0,0,1-2.4.37c-.55.25-1.35.19-2,.43-.25-.12-.43-.3-.31-.61,1-.55,1.72-1.72,2.83-2.27.73-.62,1.41-1.17,2.14-1.78,1.11-.68,1.91-1.72,3.07-2.21.56-.62,1.36-.74,1.91-1.35A5.74,5.74,0,0,1,95,18.61c.12,0,.24.06.24.18-.18.18-.55.55-.55.86.24.12.43.31.67.18a6.79,6.79,0,0,0,1.42-1c.24.12.37-.24.61-.24a17.08,17.08,0,0,1,2.21-1c.25-.37.92-.43.62-1C100.42,16.33,100.11,16,100.11,15.66ZM86.3,48.44c.06.19.18.5.06.62.12.24-.18.43-.12.67-.13.56-.13,1.17-.31,1.72-.49.13-.12.86-.68.86,0,.19-.24.25-.3.37a15.1,15.1,0,0,0-1.78.37A21.89,21.89,0,0,1,81,52.56a5.65,5.65,0,0,1-2.4-.86c-.18-.37-.86-.61-.8-1.11-.06-.18.07-.43.13-.61.49-.31.61-.92,1.23-1,.36-.06.24-.62.67-.49.25-.25.62-.25.92-.5.62,0,.8-.55,1.29-.73a10.84,10.84,0,0,0,1.29-.43c.61-.43,1.41-.37,2-.92.3,0,.8-.13.92.24-.06.37.31.86,0,1.29A1.38,1.38,0,0,1,86.3,48.44Z"/>
          <path class="cls-1" d="M74,52.44l.12.24c.37,0,.25.49.55.43l-.12-.18C74.2,52.8,74.26,52.44,74,52.44Z"/>
        </g>
        <g>
          <path class="cls-1" d="M155,37.26c-.38,0-.54-.32-.94-.24-.09.11-.3.11-.46.11-.33,0-.65-.11-1-.11a7.37,7.37,0,0,0-.76-.16c-.11,0-.19,0-.3,0a3.45,3.45,0,0,0-.54.11l-.62-.22c-.08,0-.14-.16-.22,0a3.34,3.34,0,0,0-1.06-.06,2.38,2.38,0,0,1-1.3.33,2,2,0,0,0-.54,0c-.11-.05-.21,0-.35,0s-.11.11-.11.19c-.16.11-.27.27-.46.3s-.3.06-.43.16a1.79,1.79,0,0,0-.65.17c-.52,0-.9.35-1.41.29-.14,0-.11-.21-.19-.32.11-.3-.14-.51-.16-.81,0-.14.21-.17.27-.3a10.66,10.66,0,0,0,1.6-.25.67.67,0,0,1,.32-.1c.27-.22.65-.17.92-.38.11,0,.33.05.35-.14s.3-.11.44-.11l.3-.38a3.06,3.06,0,0,0,.35-.56c-.11-.17.19-.11.19-.28s.27-.4.35-.65c-.14-.27.24-.37.3-.59a6,6,0,0,0,.27-.68l0-.08c.3-.16.14-.51.3-.73a3.58,3.58,0,0,0,.24-.6,5.73,5.73,0,0,1,.3-.81c.05-.16.22-.35.16-.54s0-.16.11-.19a2.46,2.46,0,0,0,.25-.7c.18-.36.27-.76.48-1.11-.05-.09,0-.17.06-.22s0-.06,0-.06c0-.16.11-.27.17-.4s0-.16,0-.25a2.35,2.35,0,0,0,.25-.7,6.48,6.48,0,0,0,.32-1,1.59,1.59,0,0,1,.22-.76c-.06-.22.19-.3.16-.52a1.92,1.92,0,0,1,.43-.67c.11-.22-.08-.41-.08-.63a.68.68,0,0,0-.46-.56c-.11-.08-.24-.19-.38-.14-.43-.19-1,0-1.4-.27-.06,0-.09-.11-.17-.11s-.24-.11-.29-.16-.3-.08-.33-.27c0,0,0,0-.08.05s-.11,0-.11,0l.08-.09-.05-.05c-.06,0-.08,0-.14,0a1.13,1.13,0,0,0-.51-.33,2.2,2.2,0,0,0-1.17-.19c-.08-.13-.16.06-.27,0-.16.16-.32,0-.54.08a8.24,8.24,0,0,0-1.16.19,1.18,1.18,0,0,1-.65.24,9.55,9.55,0,0,1,1.19.05c.24-.1.57-.13.84-.21s.67-.11,1.05-.08c.22.13.52,0,.71.27a.2.2,0,0,1-.06.24s-.13.11-.16,0a.39.39,0,0,1-.38,0c-.19.1-.4,0-.59.13-.14-.08-.3.05-.49,0s-.62,0-.84.16-.35.11-.49,0a2.56,2.56,0,0,1-.51.19c-.17.08-.36,0-.49.11a10.71,10.71,0,0,1-1.3.3c-.06-.19-.35-.27-.19-.49s.27-.25.32-.38,0,0,0,0a.15.15,0,0,1-.19-.11,4.64,4.64,0,0,0-.14-1c.14-.29,0-.62.08-.89-.13-.19.06-.32,0-.51a5.88,5.88,0,0,1,0-.84l-.05,0c0-.05,0-.11,0-.16s0-.38-.06-.54a.33.33,0,0,0,0-.22c0-.22-.22-.27-.19-.52s.1-.21.21-.29.3-.19.44-.3c.24-.27.67-.19,1-.44.16,0,.33-.1.49-.08.3-.21.73-.13,1.06-.29.24.05.51-.14.75-.14a1.41,1.41,0,0,1,.49-.11c.22,0,.43-.11.65,0a1.46,1.46,0,0,1,.51,0c.11-.14.3-.06.44-.14s.22-.32.24-.51.17-.44.08-.65-.21-.35-.4-.52-.27-.08-.33-.13-.3-.06-.38-.25c-.1.14-.16-.08-.24,0s-.24,0-.38-.05-.24,0-.35,0-.16.21-.33.08a1.13,1.13,0,0,1-1,.05c-.08,0-.16,0-.21,0a.1.1,0,0,0-.14.06.34.34,0,0,0-.35,0c-.11.17-.33,0-.46.06s-.22,0-.25-.14-.18,0-.18.08c-.25.11-.27.49-.57.47-.11.16-.33.1-.44.21,0,0-.13,0-.19-.11s-.05-.38.06-.51-.14-.35-.06-.57-.1-.35-.13-.57c-.19-.19-.06-.51-.27-.7s-.25-.44-.46-.57-.41-.14-.44-.41c.14-.08.19-.27.38-.3.06-.18.33-.05.44-.16.08.06.24,0,.27.14s.21,0,.24.11c.22,0,.35.16.57.21s.33.14.51.17c.19-.19.49,0,.65-.25a1.29,1.29,0,0,0,.55-.11,2.25,2.25,0,0,0,.59-.19c.14-.24.46-.24.6-.48.13,0,.24-.09.38,0s.11-.08.11-.11,0-.13,0-.22.11-.16.13-.24,0-.27-.08-.38-.11-.13-.16-.22-.38-.19-.43-.4c-.08-.06-.19,0-.25-.14s-.35-.13-.51-.16-.16,0-.27,0c-.19-.14-.35,0-.57,0-.11.19-.3,0-.52.11a2.41,2.41,0,0,1-1.21-.14c-.11-.16-.25,0-.36,0a1.5,1.5,0,0,0-.24.27c-.27.11-.52.35-.79.27-.08,0-.19,0-.27.08-.27,0-.46.11-.73.13-.21.3-.62.14-.89.3-.06,0-.16,0-.25.06s-.27.08-.35.19-.3.05-.35-.09-.19-.1-.22-.19c-.19-.1-.16-.32-.32-.43s-.46-.32-.65-.59-.35-.19-.46-.41c-.06,0-.11-.08-.16,0s-.06,0-.06-.08a2.8,2.8,0,0,1-.46-.3c-.3,0-.35-.35-.62-.4s-.3-.22-.46-.25-.25-.19-.38-.16-.14,0-.16-.13l-.14,0c-.24,0-.41-.08-.62-.11a1.41,1.41,0,0,1-.63.06s-.08.11-.13,0a.35.35,0,0,1-.35,0,.89.89,0,0,0-.46.14c-.19-.17-.41.1-.63,0a.81.81,0,0,1-.81-.14c0-.16-.16,0-.22-.16l0,.11a2,2,0,0,0,0,.6c.11.16,0,.37.24.51,0,.27.33.27.33.51,0,.06.08.06.05.14s.06.11.14.11c.08.27.38.43.51.65a2.31,2.31,0,0,1,.33.46c.16,0,.11.27.11.32s.13,0,.1.09-.16.16-.21.24c.16-.11.32,0,.49-.08.1.13.27,0,.38.11s.32.08.4.24c.35,0,.52.3.76.46,0,.16.22.22.19.38-.24,0-.3.38-.57.3-.16.11-.38.08-.49.24l-.05,0c-.06,0-.14,0-.14,0a.08.08,0,0,1-.13,0c-.06.14-.19.06-.25.17s-.1.05-.13,0a2.54,2.54,0,0,0-.57.19c-.16,0-.27.13-.43.05s0,.06,0,.08a3.78,3.78,0,0,1-.7.19c-.14.09-.28,0-.38.11v0c-.17,0-.3,0-.44,0s-.19.11-.29.16,0,0,0,0a.2.2,0,0,0-.14,0l0,0h0c.13,0,.13.13.11.22a.5.5,0,0,1-.36.18c-.08-.08-.13.09-.21.09l-.27,0c-.19.11-.46.17-.68.27s-.3.14-.43.19-.25.11-.38.11a4,4,0,0,1-.68.25c-.16,0-.24.19-.38.16-.14.16-.41,0-.54.22-.33,0-.57.18-.87.1-.08-.1-.32-.1-.22-.29s.14-.14.06-.22.08-.08.13-.11c0-.24-.19.08-.29,0s-.17.08-.14.19c-.32.16-.54.38-.87.57,0,.16-.24.05-.35.19-.08-.06-.21-.14-.16-.25a5.19,5.19,0,0,1-1.11.46c-.11-.08-.19,0-.3.06-.16-.14-.16.16-.35.1,0,.14-.22.14-.14.3-.08.08-.1.22-.19.27s-.24.25-.13.41c-.06.05-.11.11-.22.08s0,.16-.08.24,0,0-.08,0,0,.22-.11.3,0,.49-.11.68.11.57.08.84a2,2,0,0,1,.33.54c0,.3.16.46.13.76a6.71,6.71,0,0,0-.16,1c.11.11,0,.27,0,.38s-.11.35,0,.54c-.14.27,0,.62-.11.89s0,.33,0,.44a2.58,2.58,0,0,0,0,.62c-.16.08,0,.24-.08.35s.08.38,0,.49a2.58,2.58,0,0,0,0,.68c-.14.62-.14,1.3-.25,1.92a9.36,9.36,0,0,0-.13,1.16,2.53,2.53,0,0,0-.11.65c.11.25-.08.46-.06.71s-.19.73-.1,1.08c-.17.89-.27,1.84-.46,2.74-.14.21-.06.51-.25.73,0,.38-.21.73-.27,1.14-.05.08.08.24-.08.29a9.37,9.37,0,0,1-.19.92,6.56,6.56,0,0,1-.3,1c0,.24-.16.38-.16.62-.19.27-.16.65-.38.92.06.22-.19.33-.11.54-.19.19-.11.52-.32.65,0,.19-.25.22-.16.44-.17.32-.33.65-.49,1a1.93,1.93,0,0,1-.22.65,6.49,6.49,0,0,0-.41.84,9.3,9.3,0,0,1-.7,1.46,3.45,3.45,0,0,0-.35.87c-.19.19-.16.49-.41.65,0,.22-.22.35-.24.57-.19.19-.27.43-.49.59,0,.17-.11.17-.13.3-.36.14-.52.52-.76.71.08.13,0,.29,0,.43a6,6,0,0,0-.54.68c-.22.1-.33.4-.52.54s-.16,0-.19.11c-.24.21-.54.08-.78.19a.38.38,0,0,1,0,.24c-.19.24-.54.05-.76,0,0-.19-.27-.08-.32-.27-.27-.19-.14.21-.27.29a.5.5,0,0,1-.49,0,.9.9,0,0,1-.49,0c0,.19.08.43-.1.6a.35.35,0,0,1-.33-.06.07.07,0,0,0,0,.11.18.18,0,0,1-.17.14c-.21-.11-.21-.44-.46-.46a.47.47,0,0,0-.13.4,1,1,0,0,1-.57.35c-.08.14.05.22.08.36-.11.35.27.46.46.62a.61.61,0,0,1,0,.6c-.08.16-.25.18-.35.27.21.19.43-.09.67,0s.3.16.46.24.17.19.27.08c.17.11.46,0,.6.17s-.22.32-.33.48c.17.11.33,0,.49,0,.22-.19.44,0,.65-.08s0-.11,0-.19-.06-.19,0-.24a3.85,3.85,0,0,1,.9-.27c.21-.19.48-.08.73-.14a.16.16,0,0,1,.08.14c.16,0,.22-.06.35-.06.11-.19.35-.13.49-.24s.11-.11.22-.11c.16-.19.45-.24.67-.38s.11-.13.22-.13a.18.18,0,0,1,.11.13c.16,0,.3-.11.43-.19.38-.08.65-.48,1-.67a3.27,3.27,0,0,1,.57-.54,1.19,1.19,0,0,1,.38-.55c.4-.48.62-1,1-1.54-.08-.27.24-.33.24-.57.16-.08.16-.27.27-.41s.17-.16.14-.29c.41-.27.27-.79.57-1.09.08-.27.32-.51.38-.78s.38-.62.57-.92a1,1,0,0,1,.29-.57c0-.27.25-.49.33-.73a20.35,20.35,0,0,0,1-2.6c.11-.06,0-.19.13-.25a6.07,6.07,0,0,0,.25-.67c.16-.06,0-.27.13-.36.06-.27.22-.48.27-.73,0-.08.08-.16,0-.24s.24-.3.19-.49a.41.41,0,0,0,.11-.38.8.8,0,0,0,.13-.43c.17-.14.11-.35.19-.52s.06-.56.25-.81c0-.11,0-.21,0-.32s.16-.41.19-.63c0,0,0-.16,0-.21a.69.69,0,0,1,.11-.38c0-.17.11-.22,0-.41a.63.63,0,0,0,.14-.32c.08-.08,0-.25.1-.3,0-.41.17-.76.17-1.14.24-.4.13-.92.35-1.33s.21-1,.24-1.4a13.3,13.3,0,0,1,.33-1.76,12.74,12.74,0,0,1,.08-1.41c-.06-.33.13-.57,0-.87s.16-.27.06-.43a2.24,2.24,0,0,0,0-.57,2.44,2.44,0,0,1,.08-.57c0-.43.06-.84,0-1.22s-.13-.51.06-.78a1.81,1.81,0,0,0,0-.52c.08-.19-.06-.41,0-.6l0,0c0-.27.08-.63,0-.92s.14-.27.09-.46.1-.3,0-.44a1.74,1.74,0,0,0,.1-.84c0-.11.17-.13.08-.24.14,0,0-.22.11-.27,0-.11,0-.19,0-.27a1.18,1.18,0,0,0-.43-.9c0-.13-.24-.13,0-.27a1.44,1.44,0,0,1,.75,0,3.31,3.31,0,0,0,.41-.14,1.35,1.35,0,0,0,.73-.19c.25,0,.33-.16.54-.19.17-.24.52-.19.74-.35.05-.13.27-.11.35-.24.13.05.16-.11.3-.14s.24-.16.4-.16c.06-.24.35-.13.52-.24a1.55,1.55,0,0,1,.51-.22c.11-.11.27,0,.3-.22s.16,0,.19.06.11-.11.19-.08.27,0,.35-.17.49,0,.7-.13.63-.25.87-.49c.19.11.24-.13.46-.11.27-.19.62-.16.95-.29s.38-.28.65-.3c.08-.17.3-.06.38-.22a3.93,3.93,0,0,0,.78-.24c.17-.17.41-.14.57-.3a7.83,7.83,0,0,0,.79-.08c.11,0,.13-.14.24-.08s.16.38.16.56.06.63,0,.9c0,.11,0,.32.08.43s-.08.22,0,.38a.82.82,0,0,0-.08.62c-.05.19,0,.44-.05.65s.1.46,0,.65a1.31,1.31,0,0,1,0,.65c-.08.09-.16.28-.3.28s0,0-.05-.06a1.43,1.43,0,0,0-.24.19c-.09,0-.17.11-.25,0l-.16.16c-.11-.05-.19,0-.3.08s-.13.14-.27.14a.76.76,0,0,1-.38.19c-.05.11-.13,0-.24.08a1.11,1.11,0,0,0-.16.24c-.14-.19-.25.19-.41.14-.11.41-.6.13-.71.49-.32,0-.54.27-.81.43a9,9,0,0,0-.81.46c-.14,0-.24.14-.38.22s-.43.19-.57.38c-.32.1-.62.27-.95.38s-.35.24-.62.16c-.08.13-.32.05-.38.22,0-.14-.16,0-.19,0s-.24.11-.35.22c-.11-.06-.22.13-.32.13-.06.25-.41.17-.41.41a1.47,1.47,0,0,1,.54-.3c.08-.13.24-.11.35-.24a.76.76,0,0,1,.35.05c.11.14,0,.3.06.44s-.11.54,0,.75c0,.28.27.3.43.44.27.32.87.08,1,.51a1.92,1.92,0,0,1-.46.6c-.06.08-.06.24-.17.27.06,0,.14,0,.17,0s0,.14,0,.17c0,.19-.27.27-.35.43s-.16.19-.27.24-.11.08-.08.14c-.33.19-.46.59-.84.76a1.76,1.76,0,0,1-.3.32c-.05.3-.41.27-.57.52-.11,0-.22.21-.32.08a.31.31,0,0,1-.17-.3l0,0c-.11.05-.06.13-.06.24-.13-.16-.13.11-.24.11-.08.3-.38.41-.6.54a.81.81,0,0,1-.32-.16c0-.08,0-.08-.06-.16-.11.21-.4.21-.51.46.11.38-.16.65-.35.92,0,.24-.28.4-.11.7a2.19,2.19,0,0,0,.08,1.63c.08.16.08.35.24.46s.22.16.38.16.38.32.6.22a5.25,5.25,0,0,1,.81.29,1.37,1.37,0,0,1,1.06.79c.21,0,.21.24.29.38.28.24.33.62.68.84,0,.13.19.21.22.35.38.11.4.49.43.79a2.13,2.13,0,0,1,.38.75c.19.17.19.41.33.6.4.22.35.73.48,1.08.41.44.36,1.17.82,1.52,0,.22.29.14.43.16a2.42,2.42,0,0,0,.89,0c0-.16.27-.16.33-.3s.35-.13.51-.16a.54.54,0,0,1,.44-.16c.24,0,.38-.19.62-.14s.62-.27,1-.21a.76.76,0,0,1,.49-.16c.27-.33.59,0,.84.08s.11.24.11.4.19.22.08.38c.11.3,0,.54,0,.81s-.11.3,0,.44c-.08.19,0,.43-.22.57s-.21-.06-.32,0a5.13,5.13,0,0,0-.71.08c-.21.19-.54.11-.78.27-.14,0-.24.14-.41.09-.38.13-.73.29-1.11.4a.57.57,0,0,0-.43.14c-.08,0-.19,0-.24,0s-.22,0-.3.13-.22.11-.3.14-.14,0-.19,0-.35.05-.49.13-.24.14-.38.19c-.32,0-.57.19-.84.3A1.19,1.19,0,0,1,131,42c-.22,0-.3.27-.51.27a.51.51,0,0,1-.49.22.11.11,0,0,0-.11.11s0,0,0,0-.14.14-.25.14a.84.84,0,0,1-.54.18c-.24.28-.6.3-.84.55-.13,0-.22.13-.38.13-.59.33-1.3.57-1.89,1-.11.16-.33.19-.47.27s-.18.19-.27.14c-.1.16-.29,0-.4.21-.41.11-.76.33-1.17.41a1.14,1.14,0,0,1-.46.16c0,.11-.24,0-.24.14.43.24.68.78,1.19.89.24-.08.46.22.68.08.21.06.4-.08.62,0a5.35,5.35,0,0,1,.68-.11c.16-.14.46,0,.54-.27.33-.11.46-.35.78-.49a4.87,4.87,0,0,0,1-.49c.17-.24.52-.21.74-.38,0,0,.1-.13.19-.1.21-.19.51-.25.7-.49.14,0,.24-.16.38-.19.08-.27.35-.11.49-.3.21,0,.35-.16.54-.27s.32-.22.54-.24c.08-.22.38-.11.49-.3a8.3,8.3,0,0,0,1.38-.65c.24-.14.57-.16.81-.33s.43,0,.62-.1c.3.1.36-.28.68-.17.3-.35.87-.13,1.11-.54a1.14,1.14,0,0,1,.52,0c.08,0,.21,0,.29.06A2,2,0,0,1,138,42c.08.16,0,.38,0,.54a6.19,6.19,0,0,1,.08,1,.7.7,0,0,0,0,.35c0,.36-.11.63,0,.95a.86.86,0,0,0,.08.49c-.06.22.05.46,0,.73s0,.27,0,.46a1.16,1.16,0,0,1,.06.89c.24.14-.08.33.08.49a4.38,4.38,0,0,0-.14,1c.09.14.22.3.14.46a.63.63,0,0,1-.24.19l0,.11c0,.06,0,.14,0,.16v.44a.57.57,0,0,0,0,.46c.19.22-.21.43,0,.65-.11.13,0,.32-.08.46.19.43-.13.68-.05,1.08.16.22-.06.46.05.68s-.08.19,0,.3.08.24.08.4c-.19.19.14.33,0,.49a1,1,0,0,1-.11.52c.11.18-.05.37,0,.56s-.06.22,0,.36a6.47,6.47,0,0,0,0,1.46c-.08.19.1.22.16.35a1.34,1.34,0,0,0,.08-.57,2.89,2.89,0,0,1,.05-.65c0-.08-.05-.16,0-.21-.1-.22.14-.46-.08-.65.19-.22,0-.47.08-.71a.52.52,0,0,1,0-.35c0-.05.11-.11.08-.19a.38.38,0,0,1,.22-.19c.13-.08.21,0,.29.14s.14.4,0,.56.08.14,0,.22,0,.43,0,.68c-.13,0,0,.16-.11.24s-.08.3,0,.44a1.12,1.12,0,0,0-.06.54s0,0-.08,0a2.14,2.14,0,0,1-.11.92c.11.11,0,.22,0,.33s0,.19,0,.27a3.93,3.93,0,0,0,0,.84c.05,0,0-.08,0-.11.14-.27.11-.62.3-.87.11-.62.16-1.35.24-2,0-.17,0-.33,0-.49.09-.41.09-.84.14-1.27.14-.17-.08-.36.05-.52a4.94,4.94,0,0,1,.09-1c.13-.24-.09-.54.13-.73a.33.33,0,0,1,.27-.05.4.4,0,0,1,.22.32c0,.25.08.49,0,.76s0,.7-.13,1a2.29,2.29,0,0,0-.11.84c.08.52-.22.92-.16,1.38a.49.49,0,0,1-.06.33,2.77,2.77,0,0,1-.05.65,5.44,5.44,0,0,0,0,1.14c-.05.19,0,.43,0,.65-.1.05,0,.1,0,.19,0-.11.06-.19,0-.27s0-.17,0-.22a1,1,0,0,0,0-.3c.05-.14.08-.38.3-.32s.13.1.16.18a.21.21,0,0,1,.24,0,.7.7,0,0,1,.19.43c.19.06.16-.16.27-.21s-.08-.14,0-.19c0-.24.11-.46.08-.71s.11-.32.06-.48a2.49,2.49,0,0,0,.08-.76c0-.33.13-.65.11-1a7.22,7.22,0,0,0,.13-1c0-.19.06-.38.06-.59s0-.3.08-.41c-.08-.35.16-.49.3-.76s0,.22.1.3c0,.41.22.76.09,1.19-.06.06.05.16-.06.22,0,.43-.13.89-.16,1.35,0,.06.08.06.05.11h.06a2.49,2.49,0,0,0,.13-.68,2.58,2.58,0,0,0,.27-1.13c.06-.09,0-.17,0-.22.05-.35.14-.73.19-1.08l-.08-.14a3.56,3.56,0,0,1,.32-1.17c.11,0,.22,0,.3.06a10.7,10.7,0,0,1-.05,1.27c0,.38-.16.81-.16,1.25-.11.19,0,.43-.11.59a12,12,0,0,1-.3,1.71c0,.35-.16.7-.14,1s-.1.32,0,.54l0-.22c.27-.27.27-.67.38-1-.08-.24.19-.44.11-.68a12.56,12.56,0,0,0,.27-1.41c.11-.16.06-.4.11-.57s0-.13.05-.19a7.63,7.63,0,0,1,.25-1.3,1.2,1.2,0,0,1,.19-.73,4.43,4.43,0,0,0,.11-.73c.16-.24.05-.57.13-.81a.67.67,0,0,1,.14-.49c-.11-.27.08-.51,0-.81a1.75,1.75,0,0,0,.09-.38c.1-.16,0-.38.19-.49-.17-.32,0-.62-.09-1-.13-.14.14-.27-.05-.38.14-.08.05-.35.08-.49s0-.14,0-.19c.06-.27-.08-.54.09-.76a5.62,5.62,0,0,1,0-1.16c0-.16-.13-.27,0-.38a1.61,1.61,0,0,1,0-.49,5.22,5.22,0,0,0,0-1c-.22-.19.16-.32-.06-.51a3,3,0,0,0,0-1,4.78,4.78,0,0,1-.08-.84,2.68,2.68,0,0,0-.11-.68c0-.13.14-.19.19-.3a4.88,4.88,0,0,1,.54-.18,4.23,4.23,0,0,1,1-.19,8.67,8.67,0,0,0,1.22-.19c.19.1.46,0,.63,0s.24-.05.38-.08.16.06.19-.05c.46,0,.89.05,1.38.05.16.11.43.08.62.14l.05-.06a5.11,5.11,0,0,1,1.38.27c.19,0,.22.17.38.19s.27.06.38.14c.49,0,1,.14,1.44.22a6.11,6.11,0,0,0,1.7-1.06c.14-.16.11-.46.25-.68A1.5,1.5,0,0,0,155,37.26Zm-37.1,5.93a.13.13,0,0,1,0-.16s.06,0,.08,0S118,43.14,117.91,43.19Zm.13-.94c-.21.13-.16.43-.35.54s-.16.21-.13.32-.08.35-.25.49c0,.22-.16.32-.3.49-.08,0-.1-.08-.08-.14s0-.13.06-.19a3.77,3.77,0,0,0,.54-1.22c0-.19.35-.16.27-.4.14-.17.16-.41.3-.6.11,0,.11.14.13.22S118,42.06,118,42.25Zm.09-2.17c-.14.13,0,.4-.25.51a.32.32,0,0,1-.16.33s-.14,0-.14-.11c.19-.3.14-.68.36-1-.06-.17.16-.22.1-.38s.22-.33.3-.49.08-.11.11-.16c.08-.44.35-.76.38-1.17.08,0,0-.13,0-.19s.11-.4.22-.57a4.71,4.71,0,0,1,.22-.59c.19-.14.11.16.13.27s-.13.27,0,.38c.13-.17.1-.44.29-.52a.14.14,0,0,1,.19.08,8.48,8.48,0,0,1-.32,1.17c-.14.13-.11.35-.27.46,0,.19-.11.3-.19.43a4.65,4.65,0,0,1-.3.84.09.09,0,0,0,0,.14c0,.08-.11.08-.14.16s0,.22-.13.19c-.22-.22.08-.35,0-.6-.16.08-.06.35-.25.49C118.23,39.89,118.13,39.94,118.13,40.08Zm1.81-1.25c0,.06,0,.08,0,.14s.08-.06.11,0-.13,0-.19.08c-.16.24-.21.54-.4.78,0,.19-.19.3-.19.49-.25.19-.11.54-.33.76s0,.46-.24.38c-.08-.06-.08-.19-.16-.14s-.11.16-.22.11,0-.38.08-.57c.27-.11.16-.41.38-.57,0-.27.32-.48.35-.78,0-.06.05,0,.08-.08a2,2,0,0,0,.16-.65c.19,0,.14-.17.19-.25.14-.35,0-.7.27-1,.09-.11,0-.27.11-.35,0-.25.22-.41.25-.68.16-.11,0-.49.32-.46.22.27-.11.51-.08.81s-.19.33-.19.54a.47.47,0,0,0,.22-.18.62.62,0,0,1,.08-.41v-.11a5.36,5.36,0,0,0,.32-.73.15.15,0,0,1,.27,0,4.93,4.93,0,0,0-.29.87,3.52,3.52,0,0,0-.22.49c-.14.11-.14.27-.22.4A6.29,6.29,0,0,1,119.94,38.83Zm1.68-2.41a.79.79,0,0,0-.19.49c.14.08,0,.24,0,.35-.1.27-.24.54-.32.81-.16.11,0,.33-.19.41a3.11,3.11,0,0,1-.33.6c-.08,0-.08-.08-.1-.11,0-.22.16-.41,0-.62a.7.7,0,0,1,0-.33.62.62,0,0,1,.14-.32c.16-.28.1-.65.4-.84,0-.28.16-.47.14-.71a.35.35,0,0,1,.24-.27c.08,0,.16,0,.22.14S121.62,36.26,121.62,36.42Zm11.81-10c-.14.22-.44,0-.49.3-.22.06-.38.22-.6.3s-.29.11-.37.27c-.14,0-.19.19-.28.16s-.21,0-.32.08c-.16-.1-.08-.29-.22-.4.08-.35.52-.3.65-.54.3-.06.44-.41.73-.44.06,0,.09-.11.06-.13s-.22.13-.38.08-.27.16-.38.27c-.24-.11-.32.16-.54.16s-.11.11-.22.08-.13,0-.19,0a.88.88,0,0,1,0-.73c.11-.16.27-.27.32-.46s.06-.19.11-.27c-.24.06-.46.35-.73.3-.05-.11-.13-.14-.19-.19-.24-.08-.49.43-.62,0,0-.36.41-.52.57-.76s.43-.44.57-.68c.13,0,.27-.19.38,0v0c.27,0,.43-.3.62-.49a.76.76,0,0,0,.32-.32,1.16,1.16,0,0,0,.49-.38,1.84,1.84,0,0,0,.38-.41,8.25,8.25,0,0,1,1.44-1c0-.06.13-.06.16-.16s-.11.08-.16,0a.34.34,0,0,1-.06-.38c.22-.19.33-.52.57-.68s.22-.3.41-.35,0-.19.13-.19c0-.17.27-.11.3-.27a.41.41,0,0,0,.22-.19,1.55,1.55,0,0,0,.59-.44c.35-.08.68-.51,1-.27,0,.11.06.25,0,.36a1.5,1.5,0,0,1,.11.83c0,.25,0,.63.1.84a2.09,2.09,0,0,0,.09.9c-.11.13-.09.32-.14.49s.14.19,0,.29-.11.11-.06.17.06.35.11.48.08.27,0,.38,0,.46,0,.68-.11.19,0,.27a1.22,1.22,0,0,1-.09.49c-.1.13-.13.32-.32.32a.33.33,0,0,1-.22-.16c0,.11-.13.05-.21.05l0-.08c-.08.19-.35.11-.46.25a.91.91,0,0,0-.38.16c0,.14-.14,0-.22.05s-.48.09-.59.33c-.11,0-.22.11-.35.08s-.09.08-.09.14-.21,0-.24.08v.05c-.14-.08-.27.11-.41.14s-.32.05-.43.21S133.67,26.35,133.43,26.37Zm4.68,8.48c0,.19-.21.22-.13.41-.06-.14-.27,0-.38-.06a6.11,6.11,0,0,1-1,.11c-.06,0-.11-.05-.14,0a2,2,0,0,1-.43,0c-.41-.14-.19-.6-.46-.84s-.38-.71-.54-1.06a3.14,3.14,0,0,1-.38-.57,4.09,4.09,0,0,0-.44-.89c-.16-.13-.11-.38-.21-.51s-.11-.22-.11-.36.08-.46.08-.67c-.16-.11,0-.25,0-.38a6.34,6.34,0,0,1,.57-.82h0c.11-.1.27-.18.3-.37a3.9,3.9,0,0,0,.73-.57c.14,0,.17-.11.25-.19a3.22,3.22,0,0,1,1-.6,2,2,0,0,1,.57-.32.58.58,0,0,0,.35,0c.11,0,.14.11.19.19s.06.08.06.16c0,.27.16.54.08.81s.13.46,0,.71a.52.52,0,0,1,.05.4c0,.14-.05.28-.19.3-.35,0-.67.27-1.05.3-.06.11-.17,0-.25,0a1.24,1.24,0,0,1-.73.36,3.33,3.33,0,0,1-.4.16c-.09,0-.22,0-.22.14-.11-.09-.27,0-.38,0a1.29,1.29,0,0,0-.62.11c.16.16-.11.27,0,.43.56.46,1,1.25,1.86,1a5.29,5.29,0,0,1,.9-.08,1,1,0,0,1,.81-.49c.06,0,.14,0,.16,0s.08.16.08.27a4,4,0,0,1,.06.73,1.71,1.71,0,0,1,.08.81c0,.28.08.44,0,.68S138.25,34.69,138.11,34.85Zm5.42-1.65c0-.14.11-.22,0-.33a10.29,10.29,0,0,0-.05-1.21c-.06-.06-.08-.14,0-.17s.08-.32,0-.4c.16-.11,0-.38,0-.52a.55.55,0,0,0,0-.38,4.64,4.64,0,0,0,0-.92c0-.11,0-.27.16-.3s.19-.08.3-.1c.25-.19.6-.25.76-.52,0-.16.11-.3.05-.46s-.13-.16-.24-.16a1,1,0,0,0-.87-.19c-.08.05-.1.08-.19.05-.21-.32.06-.76,0-1.11,0-.16,0-.3-.08-.43.08-.19-.14-.35,0-.54a2.68,2.68,0,0,0,0-.63c0-.48.56-.56.94-.67a1.86,1.86,0,0,1,1.66.05c.27-.13.48.08.7.19s.27.24.24.46a1.6,1.6,0,0,1,.06.62c-.08.25-.06.49-.14.74s-.11.56-.13.86c-.22.27-.08.68-.27,1a9.73,9.73,0,0,0-.3,1.27.76.76,0,0,0-.14.7c-.05.14,0,.33-.16.38.05.22-.16.38-.14.6a4.84,4.84,0,0,0-.24,1.08c.08.14-.08.17-.08.3a4.35,4.35,0,0,1-.33,1,.54.54,0,0,1-.38.19c-.1,0-.13-.16-.24-.08-.16-.11-.46,0-.65,0C143.42,33.44,143.67,33.31,143.53,33.2Z"/>
          <path class="cls-1" d="M130.26,9.85v0c0-.09.05,0,.08,0,0-.19-.11,0-.19,0s-.11,0-.13.08c-.17,0,0,.14-.19.11l0,0C130,10,130.12,9.88,130.26,9.85Z"/>
          <path class="cls-1" d="M128.55,10.48c-.08,0-.21,0-.24.13S128.5,10.56,128.55,10.48Z"/>
          <rect class="cls-1" x="127.9" y="21.04" width="0.03" height="0.03"/>
          <path class="cls-1" d="M126.68,22c.17-.22.46-.32.6-.49l0,0a.58.58,0,0,1-.3.16c-.08,0-.08.13-.16.13s-.19.22-.25.3C126.63,22.15,126.58,22,126.68,22Z"/>
          <path class="cls-1" d="M134.89,25.05c.3-.14.49-.46.81-.54.06-.06.14-.11.14-.17s-.22-.05-.27,0c-.35.05-.57.43-1,.46a1.29,1.29,0,0,1-.49.16c-.21.25-.54.22-.78.44,0,0,0,0,0,0s0,.17-.14.11c-.13.11-.35.08-.43.25-.08,0-.08.1-.08.16.19-.08.41,0,.54-.22s.49-.43.81-.3c.17-.19.41-.19.6-.29S134.86,25.18,134.89,25.05Z"/>
          <path class="cls-1" d="M141.42,57.36v-.15A.16.16,0,0,0,141.42,57.36Z"/>
          <path class="cls-1" d="M141.47,56.87c-.05.08.06.22-.05.27v.07C141.46,57.1,141.57,57,141.47,56.87Z"/>
        </g>
      </g>
    </g>
  </g>
</svg>
