<?xml version="1.0" encoding="utf-8"?>
<!-- Generator: Adobe Illustrator 27.0.0, SVG Export Plug-In . SVG Version: 6.00 Build 0)  -->
<svg version="1.1" id="圖層_1" xmlns="http://www.w3.org/2000/svg" xmlns:xlink="http://www.w3.org/1999/xlink" x="0px" y="0px"
	 width="246px" height="246px" viewBox="0 0 246 246" style="enable-background:new 0 0 246 246;" xml:space="preserve">
<style type="text/css">
	.st0{fill:#FFFFFF;}
</style>
<g>
	<g>
		<g>
			<path class="st0" d="M101.6,158.5c-7.5,0-13.6-6.1-13.6-13.6s6.1-13.6,13.6-13.6c7.5,0,13.6,6.1,13.6,13.6
				S109.1,158.5,101.6,158.5z M101.6,134.4c-5.9,0-10.6,4.7-10.6,10.6c0,5.8,4.8,10.6,10.6,10.6c5.9,0,10.6-4.7,10.6-10.6
				C112.2,139.1,107.4,134.4,101.6,134.4z"/>
		</g>
		<g>
			<path class="st0" d="M125.1,120.7c-2.4,0-4.4-2-4.4-4.4c0-2.4,2-4.4,4.4-4.4c2.4,0,4.4,2,4.4,4.4
				C129.6,118.7,127.6,120.7,125.1,120.7z M125.1,113.9c-1.3,0-2.4,1.1-2.4,2.4s1.1,2.4,2.4,2.4c1.3,0,2.4-1.1,2.4-2.4
				S126.5,113.9,125.1,113.9z"/>
		</g>
		<g>
			<path class="st0" d="M152.8,120.7c-2.4,0-4.4-2-4.4-4.4c0-2.4,2-4.4,4.4-4.4c2.4,0,4.4,2,4.4,4.4
				C157.2,118.7,155.3,120.7,152.8,120.7z M152.8,113.9c-1.3,0-2.4,1.1-2.4,2.4s1.1,2.4,2.4,2.4c1.3,0,2.4-1.1,2.4-2.4
				S154.2,113.9,152.8,113.9z"/>
		</g>
		<g>
			<path class="st0" d="M139,120.7c-2.4,0-4.4-2-4.4-4.4c0-2.4,2-4.4,4.4-4.4s4.4,2,4.4,4.4C143.4,118.7,141.4,120.7,139,120.7z
				 M139,113.9c-1.3,0-2.4,1.1-2.4,2.4s1.1,2.4,2.4,2.4c1.3,0,2.4-1.1,2.4-2.4S140.3,113.9,139,113.9z"/>
		</g>
		<g>
			<path class="st0" d="M161.9,107.4l-0.1-0.1l-0.1-0.1c0,0-0.1-0.1-0.1-0.1c0,0-0.1-0.1-0.1-0.1l-22.5-18.9
				c-0.7-0.6-1.6-0.5-2.2,0.2c-0.6,0.7-0.5,1.6,0.2,2.2l19.2,16.2h-69c-4.2,0-7.7,3.5-7.7,7.7v45.8c0,4.2,3.5,7.7,7.7,7.7h71.5
				c4.2,0,7.7-3.5,7.7-7.7v-45.8C166.4,111.4,164.7,108.7,161.9,107.4z M82.6,114.4c0-2.5,2.1-4.6,4.6-4.6h71.5
				c2.5,0,4.6,2.1,4.6,4.6v7.9H82.6V114.4z M163.4,133.5h-33.4c-0.9,0-1.6,0.7-1.6,1.6c0,0.9,0.7,1.6,1.6,1.6h33.4v3.6h-33.4
				c-0.9,0-1.6,0.7-1.6,1.6s0.7,1.6,1.6,1.6h33.4v3.6h-33.4c-0.9,0-1.6,0.7-1.6,1.6s0.7,1.6,1.6,1.6h33.4v3.6h-33.4
				c-0.9,0-1.6,0.7-1.6,1.6c0,0.9,0.7,1.6,1.6,1.6h33.4v3.4c0,2.5-2.1,4.6-4.6,4.6H87.2c-2.5,0-4.6-2.1-4.6-4.6v-34.8h80.7V133.5z"
				/>
		</g>
	</g>
	<path class="st0" d="M152,72.8c-0.2,0-0.5-0.1-0.6-0.3c-3.4-3.9-7.9-6.2-12.7-6.4c-4.7-0.2-9.3,1.6-13,5.2c-0.4,0.4-1,0.3-1.3-0.2
		c-0.3-0.5-0.3-1.2,0.1-1.6c4-3.9,9.1-6,14.3-5.7c5.2,0.2,10.1,2.7,13.9,7c0.4,0.4,0.4,1.1,0,1.6C152.5,72.7,152.2,72.8,152,72.8z"
		/>
	<path class="st0" d="M149.3,78.8c-0.2,0-0.4-0.1-0.6-0.3c-2.7-3-6.3-4.8-10-4.9c-3.7-0.2-7.4,1.3-10.3,4c-0.4,0.4-1,0.3-1.3-0.2
		c-0.3-0.5-0.2-1.2,0.2-1.6c3.3-3.1,7.4-4.7,11.5-4.5c4.2,0.2,8.1,2.1,11.2,5.5c0.4,0.4,0.4,1.1,0.1,1.6
		C149.8,78.7,149.5,78.8,149.3,78.8z"/>
	<path class="st0" d="M146.6,84.9c-0.2,0-0.4-0.1-0.6-0.3c-2.1-2.2-4.7-3.4-7.4-3.5c-2.8-0.1-5.4,0.9-7.6,2.9
		c-0.4,0.4-1,0.3-1.3-0.2c-0.3-0.5-0.2-1.2,0.2-1.6c2.5-2.3,5.7-3.4,8.8-3.3c3.2,0.1,6.2,1.6,8.6,4.1c0.4,0.4,0.4,1.1,0.1,1.6
		C147.1,84.8,146.9,84.9,146.6,84.9z"/>
</g>
</svg>
