<svg id="圖層_1" data-name="圖層 1" xmlns="http://www.w3.org/2000/svg" width="246" height="246" viewBox="0 0 246 246">
  <defs>
    <style>
      .cls-1 {
        fill: #fff;
      }
    </style>
  </defs>
  <g>
    <path class="cls-1" d="M122.27,122.73a9.2,9.2,0,1,1,9.2-9.2A9.21,9.21,0,0,1,122.27,122.73Zm0-14.4a5.2,5.2,0,1,0,5.2,5.2A5.2,5.2,0,0,0,122.27,108.33Z"/>
    <g>
      <path class="cls-1" d="M95.08,168.27a1.94,1.94,0,0,1-1-.29,2,2,0,0,1-.67-2.75l27.18-44.62a2,2,0,0,1,3.41,2.08L96.79,167.31A2,2,0,0,1,95.08,168.27Z"/>
      <path class="cls-1" d="M149.45,168.27a2,2,0,0,1-1.71-1l-27.18-44.62a2,2,0,0,1,3.41-2.08l27.18,44.62a2,2,0,0,1-1.7,3Z"/>
      <path class="cls-1" d="M122.27,163.71a2,2,0,0,1-2-2V121.65a2,2,0,0,1,4,0v40.06A2,2,0,0,1,122.27,163.71Z"/>
      <rect class="cls-1" x="103.99" y="145.63" width="18.76" height="4" transform="translate(-48.71 56.1) rotate(-23.02)"/>
      <rect class="cls-1" x="129.16" y="138.25" width="4" height="18.76" transform="translate(-56.01 210.61) rotate(-66.98)"/>
    </g>
    <path class="cls-1" d="M73.63,149.33a2,2,0,0,1-1.56-.74,53.49,53.49,0,0,1,2.56-70.23,2,2,0,0,1,2.92,2.74,49.49,49.49,0,0,0-2.37,65,2,2,0,0,1-1.55,3.26Z"/>
    <path class="cls-1" d="M86.75,142.6a2,2,0,0,1-1.57-.76,44,44,0,0,1,2-56.74,2,2,0,0,1,3,2.69,40,40,0,0,0-1.86,51.58,2,2,0,0,1-1.57,3.23Z"/>
    <path class="cls-1" d="M99.88,135.91a2,2,0,0,1-1.6-.81,34.55,34.55,0,0,1,1.57-43.26,2,2,0,0,1,3,2.62,30.56,30.56,0,0,0-1.4,38.25,2,2,0,0,1-1.6,3.2Z"/>
    <path class="cls-1" d="M172.37,149.33a2,2,0,0,1-1.25-.45,2,2,0,0,1-.3-2.81,49.49,49.49,0,0,0-2.37-65,2,2,0,0,1,2.92-2.74,53.49,53.49,0,0,1,2.56,70.23A2,2,0,0,1,172.37,149.33Z"/>
    <path class="cls-1" d="M159.25,142.6a2,2,0,0,1-1.57-3.23,40,40,0,0,0-1.86-51.58A2,2,0,0,1,156,85a2,2,0,0,1,2.83.13,44,44,0,0,1,2,56.74A2,2,0,0,1,159.25,142.6Z"/>
    <path class="cls-1" d="M146.12,135.91a2,2,0,0,1-1.6-3.2,30.56,30.56,0,0,0-1.4-38.25,2,2,0,0,1,3-2.62,34.55,34.55,0,0,1,1.57,43.26A2,2,0,0,1,146.12,135.91Z"/>
  </g>
</svg>
