<svg width="195" height="194" viewBox="0 0 195 194" fill="none" xmlns="http://www.w3.org/2000/svg">
<path d="M14.7031 49.1992V162.199C14.7031 166.599 18.3031 170.199 22.7031 170.199H181.303C185.703 170.199 189.303 166.599 189.303 162.199V49.1992C189.303 44.7992 185.703 41.1992 181.303 41.1992H22.7031C18.2031 41.1992 14.7031 44.6992 14.7031 49.1992Z" fill="#C8CFE6" stroke="black" stroke-width="3" stroke-linecap="round" stroke-linejoin="round"/>
<path d="M23.3984 58.6992V152.499C23.3984 157.999 27.8984 162.499 33.3984 162.499H170.598C176.098 162.499 180.598 157.999 180.598 152.499V58.6992C180.598 53.1992 176.098 48.6992 170.598 48.6992H33.3984C27.7984 48.6992 23.3984 53.1992 23.3984 58.6992Z" fill="white"/>
<path d="M23.3984 156.898V57.8984C23.3984 53.4984 26.9984 49.8984 31.3984 49.8984H172.598C176.998 49.8984 180.598 53.4984 180.598 57.8984V153.498C180.598 157.898 176.998 161.498 172.598 161.498H86.3984" stroke="black" stroke-width="3" stroke-linecap="round" stroke-linejoin="round"/>
<path d="M32.1016 41.2016L102.002 11.6016L171.902 41.2016" stroke="black" stroke-width="3" stroke-linecap="round" stroke-linejoin="round"/>
<path d="M102 6.30078C104.9 6.30078 107.2 8.60078 107.2 11.5008C107.2 14.4008 104.9 16.7008 102 16.7008C99.0999 16.7008 96.7999 14.4008 96.7999 11.5008C96.6999 8.70078 99.0999 6.30078 102 6.30078Z" fill="white" stroke="black" stroke-width="3" stroke-linecap="round" stroke-linejoin="round"/>
<path d="M93.8984 94.8992H132.098V56.6992C111.098 56.6992 93.8984 73.8992 93.8984 94.8992Z" fill="#4F5DC3" stroke="black" stroke-width="3" stroke-linecap="round" stroke-linejoin="round"/>
<path d="M132.195 94.8992L159.495 121.499C166.195 114.599 170.395 105.299 170.395 94.8992C170.395 73.7992 153.295 56.6992 132.195 56.6992V94.8992Z" fill="#F6D62C" stroke="black" stroke-width="3" stroke-linecap="round" stroke-linejoin="round"/>
<path d="M132.198 94.8984H93.8984C93.8984 115.998 110.998 133.098 132.098 133.098C142.798 133.098 152.498 128.698 159.398 121.498L132.198 94.8984Z" fill="#E22D4E" stroke="black" stroke-width="3" stroke-linecap="round" stroke-linejoin="round"/>
<path d="M35.4031 185.9C35.7031 181.2 36.6031 176.9 37.1031 172.2C37.4031 169.9 35.0031 168 33.2031 169.2C27.8031 172.7 26.3031 179.2 22.8031 184.3C22.2031 184.1 21.7031 184.1 21.1031 184.3C20.4031 184.6 19.7031 184.9 19.2031 185.4L7.70312 185.1L32.5031 138.3C33.1031 134.9 38.3031 131.2 41.1031 129.3C43.1031 128 45.5031 127.2 48.0031 127.2L70.3031 127.1C71.3031 127.1 101.903 125.2 101.903 125.2L119.003 98.3997C119.003 98.3997 129.603 94.2997 128.603 101.8C127.603 109.3 112.503 136.1 112.503 136.1L85.8031 151.2L88.2031 187.5L35.4031 185.9Z" fill="white"/>
<path d="M61.4016 123.299C70.1277 123.299 77.2016 116.225 77.2016 107.499C77.2016 98.7731 70.1277 91.6992 61.4016 91.6992C52.6755 91.6992 45.6016 98.7731 45.6016 107.499C45.6016 116.225 52.6755 123.299 61.4016 123.299Z" fill="white" stroke="black" stroke-width="3" stroke-linecap="round" stroke-linejoin="round"/>
<path d="M7.70312 185.1L32.5031 138.3C33.1031 134.9 38.3031 131.2 41.1031 129.3C43.1031 128 45.5031 127.2 48.0031 127.2L70.3031 127.1C71.3031 127.1 101.903 125.2 101.903 125.2L119.003 98.3997C119.003 98.3997 129.603 94.2997 128.603 101.8C127.603 109.3 112.503 136.1 112.503 136.1L85.8031 151.2L88.2031 187.5" stroke="black" stroke-width="3" stroke-linecap="round" stroke-linejoin="round"/>
<path d="M34.4047 187.5L37.1047 164.5L19.3047 187.5" stroke="black" stroke-width="3" stroke-linecap="round" stroke-linejoin="round"/>
<path d="M170.6 142.102H104" stroke="black" stroke-width="3" stroke-linecap="round" stroke-linejoin="round"/>
<path d="M169.5 148.699H122" stroke="black" stroke-width="3" stroke-linecap="round" stroke-linejoin="round"/>
<path d="M114.602 148.699H92.1016" stroke="black" stroke-width="3" stroke-linecap="round" stroke-linejoin="round"/>
<path d="M167.603 155.398H96.7031" stroke="black" stroke-width="3" stroke-linecap="round" stroke-linejoin="round"/>
<path d="M61.3984 64.1992H38.8984" stroke="black" stroke-width="3" stroke-linecap="round" stroke-linejoin="round"/>
<path d="M68.1969 71.1016H40.7969" stroke="black" stroke-width="3" stroke-linecap="round" stroke-linejoin="round"/>
<path d="M61.4 77.8984H32" stroke="black" stroke-width="3" stroke-linecap="round" stroke-linejoin="round"/>
</svg>
