<svg width="30" height="30" viewBox="0 0 30 30" fill="none" xmlns="http://www.w3.org/2000/svg">
<g clip-path="url(#clip0_2278_18339)">
<path d="M15.6445 2.5625H16.0254C16.7676 2.5625 17.4023 2.80664 17.9297 3.29492C18.4766 3.7832 18.75 4.36914 18.75 5.05273C18.75 6.10742 18.457 7.03516 17.8711 7.83594C17.7148 8.05078 17.5488 8.22656 17.373 8.36328L17.2852 8.42188L17.1094 9.125H22.5C23.0859 9.125 23.6133 9.29102 24.082 9.62305C24.5508 9.93555 24.8926 10.3555 25.1074 10.8828C25.3223 11.4102 25.3711 11.957 25.2539 12.5234L23.2324 21.8984C23.0957 22.543 22.7637 23.0801 22.2363 23.5098C21.7285 23.9199 21.1426 24.125 20.4785 24.125H4.6875V9.125H8.99414L15.3516 2.82617L15.6445 2.5625ZM16.3184 4.52539L10.3125 10.4434V22.25H20.4785C20.7129 22.25 20.918 22.1816 21.0938 22.0449C21.2695 21.9082 21.377 21.7324 21.416 21.5176L23.4082 12.1426C23.4668 11.8301 23.4082 11.5664 23.2324 11.3516C23.0566 11.1172 22.8125 11 22.5 11H14.6777L14.9707 9.82812L15.5273 7.71875L15.6445 7.33789L15.9668 7.16211L16.084 7.07422C16.1816 6.99609 16.2793 6.88867 16.377 6.75195C16.709 6.30273 16.875 5.73633 16.875 5.05273C16.875 4.7793 16.6895 4.60352 16.3184 4.52539ZM6.5625 11V22.25H8.4375V11H6.5625Z" fill="#666666"/>
</g>
<defs>
<clipPath id="clip0_2278_18339">
<rect width="30" height="30" fill="white"/>
</clipPath>
</defs>
</svg>
