<?xml version="1.0" encoding="UTF-8"?>
<svg id="_層_1" data-name="圖層 1" xmlns="http://www.w3.org/2000/svg" width="56" height="56" viewBox="0 0 56 56">
  <defs>
    <style>
      .cls-1 {
        fill: #fff;
      }

      .cls-2 {
        fill: #565e62;
      }
    </style>
  </defs>
  <polygon class="cls-2" points="1.98 10.5 1.98 48.32 44.79 48.32 53.77 22.25 52.66 20.15 52.51 16.39 42.46 13.16 25.71 13.27 19.83 9.72 1.98 10.5"/>
  <polygon class="cls-1" points="12.18 22.14 53.77 22.25 48.11 48.32 4.75 47.98 12.18 22.14"/>
  <path d="M3.8,46.57c-.25-.03-.45-.25-.45-.51V12.42c0-.28,.23-.51,.51-.51H20.19c.13,0,.26,.05,.36,.15l3.88,3.82h27.54c-.1-.84-.47-1.56-1.11-2.2-.77-.77-1.65-1.14-2.71-1.14H26.07c-.14,0-.27-.05-.36-.15l-3.82-3.82H3.87c-1.02,0-1.89,.37-2.68,1.14C.4,10.48,.01,11.37,.01,12.42V46.26c0,1.01,.38,1.89,1.17,2.68s1.67,1.17,2.68,1.17H44.65c1.25,0,2.25-.26,2.98-.77,.71-.5,1.26-1.37,1.62-2.57l6.77-26.11H10.94l-6.58,25.53c-.06,.25-.3,.41-.56,.38Zm4.06-.43l5.35-21.74c.06-.25,.29-.41,.53-.39,.01,0,.02,0,.03,0H50.79c.16,0,.31,.07,.4,.2s.13,.29,.09,.44l-5.42,21.74c-.06,.23-.26,.39-.5,.39H8.36s-.07,0-.11-.01h-.03c-.13-.04-.23-.12-.29-.22h0s-.01-.02-.02-.04h0c-.04-.07-.06-.16-.06-.24,0-.04,0-.08,.01-.12Z"/>
</svg>