<?xml version="1.0" encoding="UTF-8"?>
<svg id="_圖層_1" data-name=" 圖層 1" xmlns="http://www.w3.org/2000/svg" width="14.1mm" height="14.1mm" version="1.1" viewBox="0 0 40 40">
  <defs>
    <style>
      .cls-1 {
        fill: #fff;
        stroke-width: 0px;
      }
    </style>
  </defs>
  <path class="cls-1" d="M20.2,31.3h0c-3.3,0-6-1.1-7.8-3.3-1.6-2-2.3-4.7-2.3-8h0c0-3.5.9-6.2,2.3-8,1.7-2.2,4.3-3.3,7.8-3.3h0c2.6,0,4.8.7,6.4,2,1.6,1.2,2.7,3,3.3,5.2l-2,.5c-1-3.7-3.7-5.7-7.9-5.7s-4.8.9-6.2,2.6c-1.2,1.6-2,3.8-2,6.8s.7,5.2,2,6.8c1.4,1.7,3.5,2.6,6.2,2.6s4.1-.6,5.5-2c1.6-1.5,1.5-3.5,1-4.6-.2-.6-.9-1.2-1.6-1.6-.1,1.2-.6,2.3-1.2,3.1-.9,1-2,1.6-3.6,1.7-1.1,0-2.2-.2-3.1-.7-1-.6-1.6-1.6-1.6-2.8s.4-2.2,1.2-3,2-1.1,3.5-1.2c1,0,2,0,2.8.1,0-.7-.4-1.2-.7-1.6-.5-.5-1.2-.9-2.2-.9h0c-.7,0-1.8.2-2.6,1.2l-1.6-1.1c1-1.4,2.5-2.1,4.2-2.1h0c3.1,0,4.8,1.8,5.1,5.1,0,0,.2,0,.2.1,1.4.6,2.5,1.7,3,3,.7,1.7.9,4.6-1.5,6.8-1.7,1.7-3.8,2.5-6.9,2.5h.2ZM21.2,20.2h-.7c-1.7,0-2.8.9-2.7,2,0,1.2,1.4,1.7,2.6,1.7s2.7-.5,3-3.5c-.6-.1-1.4-.2-2.1-.2Z"/>
</svg>