<?xml version="1.0" encoding="utf-8"?>
<!-- Generator: Adobe Illustrator 26.0.3, SVG Export Plug-In . SVG Version: 6.00 Build 0)  -->
<svg version="1.1" id="圖層_1" xmlns="http://www.w3.org/2000/svg" xmlns:xlink="http://www.w3.org/1999/xlink" x="0px" y="0px"
	 width="246px" height="246px" viewBox="0 0 246 246" style="enable-background:new 0 0 246 246;" xml:space="preserve">
<style type="text/css">
	.st0{fill:#FFFFFF;}
</style>
<g>
	<g>
		<path class="st0" d="M131.4,147.2c0-0.9-0.1-1.7-0.1-2.6c-1.6,0.7-3.3,1.3-4.9,1.9c-0.9,1.3-1.9,2.5-2.8,3.7
			C126.2,149.4,128.8,148.3,131.4,147.2z"/>
		<path class="st0" d="M169.4,105c-4.3-9.8-22.4-11.6-43.2-5.3c1.7,1.4,3.2,2.9,4.6,4.3c17.2-4.9,31.8-3.5,35.2,4.2
			c1.5,3.3,0.7,7.4-1.9,11.8l2.3,0.6C170.1,115,171.3,109.5,169.4,105z"/>
	</g>
	<polygon class="st0" points="156.7,130.6 161.8,143 165,121.2 144,125.3 	"/>
	<path class="st0" d="M143.4,141.3c4.8-2.8,9.2-5.9,12.9-9l-1.7-1.3c-3.2,2.7-8.3,6.1-12.4,8.5c0,0-12.7,7.7-32.2,11.4
		c0,0,0,0,0-0.1c-12.6,1.9-22.4-0.3-25.2-6.4c-4.1-9.2,9.1-24.1,29.9-34.1c-0.5-2-1-3.8-1.6-5.6c-25.3,11.4-41.5,29.9-36.4,41.5
		c3.2,7.1,13.6,10,27,8.6l0,0c0,0,1.2-0.1,3.4-0.5c0.4-0.1,0.8-0.1,1.2-0.2c0,0,0,0,0,0C115.3,153,129.4,149.7,143.4,141.3
		L143.4,141.3z"/>
	<g>
		<path class="st0" d="M140.6,144.8c-2.5,1.3-4.9,2.5-7.3,3.6c0.2,7.2-0.4,15.2-2,23.7C131.3,172.1,138.4,160.1,140.6,144.8z"/>
		<path class="st0" d="M109.1,155.9c-2,3.8-4.4,7.7-7.3,11.7c0,0,8.3-5.3,16.3-13.8C114.6,154.8,111.5,155.4,109.1,155.9z"/>
	</g>
	<path class="st0" d="M123.2,99.6c-2.3,2.5-5.3,4.3-8.7,5c3.6,10.7,5.3,25.9-2,43.9c4.8-1.1,9.1-2.4,12.9-3.7
		c2.6-3.8,4.8-7.9,6.2-12.3c0.6,3,1,6.1,1.3,9.4c5-2.2,7.8-3.9,7.9-3.9l0.4-0.3C141.6,124.8,137.7,110.6,123.2,99.6z"/>
	<g>
		<ellipse class="st0" cx="111" cy="88.6" rx="14.7" ry="14.7"/>
	</g>
</g>
</svg>
