<svg width="44" height="48" viewBox="0 0 44 48" fill="none" xmlns="http://www.w3.org/2000/svg">
<path d="M5.04688 19.3906L7.78125 11.5781C8.875 8.53125 11.6875 6.5 14.8906 6.5H29.0312C32.2344 6.5 35.0469 8.53125 36.1406 11.5781L38.875 19.3906C40.6719 20.1719 42 21.9688 42 24V39C42 40.4062 40.8281 41.5 39.5 41.5H37C35.5938 41.5 34.5 40.4062 34.5 39V35.25H9.5V39C9.5 40.4062 8.32812 41.5 7 41.5H4.5C3.09375 41.5 2 40.4062 2 39V24C2 21.9688 3.25 20.1719 5.04688 19.3906ZM10.5156 19H33.4062L31.375 13.2188C31.0625 12.2031 30.125 11.5 29.0312 11.5H14.8906C13.7969 11.5 12.8594 12.2031 12.5469 13.2188L10.5156 19ZM9.5 24C8.09375 24 7 25.1719 7 26.5C7 27.9062 8.09375 29 9.5 29C10.8281 29 12 27.9062 12 26.5C12 25.1719 10.8281 24 9.5 24ZM34.5 29C35.8281 29 37 27.9062 37 26.5C37 25.1719 35.8281 24 34.5 24C33.0938 24 32 25.1719 32 26.5C32 27.9062 33.0938 29 34.5 29Z" fill="#A4A4CD"/>
</svg>
