<svg width="50" height="50" viewBox="0 0 50 50" fill="none" xmlns="http://www.w3.org/2000/svg">
<g clip-path="url(#clip0_2186_17640)">
<path d="M32.554 29.5829C32.9431 29.7601 33.3282 29.8048 33.7233 29.6862C33.8091 29.6603 33.8945 29.5998 33.956 29.5333C34.6469 28.7859 35.3323 28.0335 36.0216 27.2845C36.2261 27.0627 36.4743 26.9203 36.781 26.8815C37.1383 26.8364 37.3835 27.0155 37.3616 27.3893C37.3413 27.7372 37.2624 28.0866 37.1676 28.4236C37.0539 28.8285 36.8936 29.2201 36.7596 29.6192C36.7299 29.7075 36.7234 29.8038 36.706 29.8966C36.7274 29.9065 36.7487 29.9169 36.7701 29.9269C36.9934 29.6832 37.2197 29.4415 37.4401 29.1953C37.7974 28.7968 38.1458 28.3918 38.6525 28.1665C39.1622 27.9402 39.5776 28.1149 39.7598 28.6414C39.861 28.9343 39.9543 29.231 40.0774 29.5149C40.2015 29.8008 40.4352 29.8276 40.6501 29.5973C40.8263 29.4082 41.0115 29.2251 41.1628 29.0171C41.2383 28.9139 41.2611 28.7645 41.2824 28.632C41.3996 27.9099 41.6715 27.2607 42.1763 26.7217C42.3862 26.4974 42.6056 26.2805 42.8304 26.0711C42.889 26.017 42.9823 25.9932 43.0642 25.9718C43.8166 25.7753 44.09 26.3098 43.9669 26.9947C43.8061 27.889 43.1609 28.4747 42.5659 29.0871C42.4353 29.2216 42.3331 29.3526 42.3902 29.5631C42.477 29.8822 42.885 30.0901 43.2944 29.9963C43.6414 29.9169 43.8677 29.7909 44.16 29.6062C44.3228 29.5035 44.7049 29.2261 44.9104 29.3497C45.2687 29.5656 44.4459 30.2361 44.3144 30.3899C43.8984 30.8778 43.2915 31.1056 42.6627 31.1835C42.1539 31.2465 41.7564 31.0202 41.5673 30.5428C41.2814 29.8206 41.1559 30.0167 40.7975 30.381C40.6596 30.5214 40.4968 30.6395 40.335 30.7542C39.9042 31.0599 39.4779 30.9522 39.199 30.4961C39.0024 30.1745 38.7761 29.8708 38.5677 29.5561C38.4858 29.432 38.3925 29.436 38.2843 29.5105C37.8024 29.8425 37.3383 30.1884 36.9601 30.648C36.643 31.0331 36.2862 31.391 35.9105 31.7195C35.7839 31.8302 35.5447 31.8515 35.3586 31.8461C35.173 31.8401 35.0563 31.4803 35.1377 31.2128C35.3382 30.5542 35.5511 29.8996 35.7472 29.2395C35.7774 29.1367 35.7437 29.0152 35.7397 28.902C35.634 28.9362 35.5005 28.9412 35.428 29.0102C35.0236 29.3968 34.6369 29.8018 34.2379 30.1949C33.822 30.6043 32.818 30.7775 32.3445 30.2792C32.279 30.2102 32.217 30.1388 32.1301 30.042C31.9083 30.2847 31.6998 30.508 31.4968 30.7353C31.3475 30.9021 31.2105 31.0803 31.0576 31.2435C30.471 31.8694 29.871 31.8108 29.2024 31.2833C28.6108 30.8162 28.6317 30.1462 28.6893 29.4797C28.6962 29.4003 28.7032 29.3214 28.717 29.1601C27.9949 29.709 27.1453 29.9532 26.6356 30.6465C26.2271 31.2019 25.0002 31.0971 24.6761 30.3254C24.5933 30.1274 24.5397 29.9174 24.4672 29.7149C24.4166 29.5735 24.3565 29.435 24.2687 29.2157C24.0607 29.4856 23.8989 29.6911 23.7421 29.9001C23.5828 30.113 23.4458 30.3457 23.2671 30.5408C22.9068 30.9344 22.542 31.3274 22.1435 31.6813C21.9907 31.8168 21.7465 31.8937 21.5365 31.9126C21.0293 31.9582 20.8368 31.5924 20.8983 31.1418C20.9201 30.9825 21 30.8316 21.0482 30.6758C21.0824 30.5646 21.1087 30.4515 21.1385 30.3388C21.1167 30.3224 21.0943 30.306 21.0725 30.2897C20.9291 30.4132 20.7817 30.5328 20.6422 30.6609C20.3484 30.9304 20.0551 31.2361 19.6412 31.2614C19.2431 31.2857 18.8272 31.2614 18.4416 31.1676C18.0848 31.0813 17.9696 30.715 17.855 30.3969C17.7835 30.1988 17.7344 29.9934 17.6594 29.7388C17.5463 29.8321 17.4783 29.8891 17.4088 29.9452C16.9343 30.3299 16.4738 30.7324 15.9809 31.0917C15.6246 31.3517 15.1968 31.3105 14.8191 31.1468C14.6578 31.0768 14.5541 30.8465 14.4533 30.6728C14.294 30.3988 14.165 30.108 14.0121 29.8301C13.9128 29.6494 13.7634 29.6241 13.6026 29.7536C13.4453 29.8802 12.619 30.5472 12.6492 29.9174C12.676 29.3551 13.5421 28.7913 13.9069 28.4394C13.9992 28.3501 14.0816 28.2494 14.161 28.1481C14.292 27.9804 14.4464 27.8786 14.6717 27.9228C14.9025 27.968 15.0772 28.0811 15.1342 28.3178C15.2469 28.7854 15.3452 29.2564 15.4573 29.7244C15.573 30.2088 15.9526 30.3398 16.3343 30.0033C16.7527 29.6345 17.1438 29.2355 17.5398 28.8419C17.587 28.7948 17.6033 28.7015 17.6068 28.628C17.643 27.8344 17.777 27.0562 18.0004 26.2959C18.382 24.9936 18.9027 23.7494 19.6178 22.592C19.7528 22.3736 19.9206 22.1741 20.0839 21.9746C20.2973 21.714 20.5752 21.6768 20.8804 21.7796C21.138 21.8659 21.212 22.0942 21.2045 22.3166C21.1916 22.7017 21.1663 23.0948 21.0755 23.4675C20.9191 24.1077 20.7385 24.7455 20.5112 25.3634C20.3469 25.8115 20.1141 26.2393 19.8714 26.6528C19.458 27.357 19.0114 28.0424 18.5811 28.7367C18.4436 28.9586 18.5691 29.5919 18.7989 29.8534C19.0674 30.1591 19.3945 30.2629 19.7965 30.1661C20.2675 30.0524 20.6506 29.8301 20.932 29.4206C21.0442 29.2573 21.211 29.0956 21.3896 29.0221C21.7107 28.8906 21.8974 28.631 22.1361 28.4131C22.8959 27.7193 23.5227 26.8756 24.4727 26.3877C24.6449 26.2994 24.7327 25.9852 24.7958 25.7574C25.0811 24.7266 25.5755 23.7891 26.0658 22.8501C26.1626 22.6645 26.2911 22.4714 26.4554 22.3503C26.7696 22.1195 27.0202 22.2446 27.0202 22.6347C27.0202 22.9399 26.9641 23.2516 26.8892 23.5494C26.7537 24.0844 26.5899 24.6125 26.4271 25.1405C26.369 25.3286 26.302 25.5202 26.2023 25.6889C25.7477 26.4572 25.6286 27.3347 25.4008 28.1724C25.2469 28.7382 25.4524 29.2812 25.8162 29.7432C25.9606 29.9269 26.2023 29.9497 26.4286 29.8296C27.173 29.4335 27.922 29.0449 28.658 28.634C28.7816 28.565 28.8858 28.4102 28.9364 28.2722C29.0421 27.9823 29.1186 27.6806 29.1836 27.3783C29.3012 26.8319 29.1369 26.3237 28.9379 25.8234C28.8044 25.4874 28.6649 25.1534 28.5404 24.8139C28.4128 24.466 28.5081 24.14 28.7845 23.929C29.4059 23.4561 30.0452 23.0029 30.7003 22.5776C31.1613 22.2783 31.7078 22.3131 32.2319 22.3339C32.5743 22.3473 32.9178 22.3955 33.2557 22.456C33.4026 22.4823 33.5446 22.5667 33.6761 22.6461C34.0215 22.8545 34.3635 23.0699 34.7 23.2928C34.8856 23.4159 35.0707 23.5449 35.2335 23.6963C35.565 24.0045 35.5189 24.4085 35.4271 24.7847C35.1427 25.9525 34.6623 27.0309 33.886 27.965C33.4458 28.4945 33.0101 29.0286 32.5535 29.5829H32.554ZM31.2412 29.9417C31.2536 29.9045 31.268 29.8743 31.274 29.8425C31.3256 29.5745 31.3613 29.302 31.4303 29.0385C31.5415 28.6131 31.8621 28.3422 32.1788 28.0657C32.3053 27.955 32.4329 27.8106 32.4845 27.6563C32.6359 27.2036 32.7431 26.7361 32.879 26.278C32.9545 26.0244 33.02 25.7589 33.1505 25.5336C33.3222 25.2373 33.6061 25.0189 33.4825 24.5916C33.4374 24.4353 33.6319 24.2099 33.7357 23.9737C33.684 23.9375 33.5838 23.8665 33.483 23.796C33.3793 23.7236 33.2418 23.6734 33.1768 23.5757C33.0145 23.332 32.8805 23.4372 32.7172 23.5633C32.6274 23.6328 32.5167 23.6903 32.4066 23.7151C32.0234 23.801 31.7207 23.9767 31.5688 24.3603C31.542 24.4283 31.4819 24.4864 31.4279 24.54C31.2834 24.6829 31.1147 24.806 30.9896 24.9633C30.6685 25.3668 30.3608 25.7807 30.0586 26.1986C29.9801 26.3073 29.9221 26.4388 29.8878 26.5689C29.8268 26.8006 29.7717 27.0379 29.7523 27.2756C29.7399 27.427 29.7747 27.5913 29.8253 27.7372C29.8893 27.9223 30.0496 28.091 30.0615 28.2742C30.0814 28.5759 30.2541 28.6931 30.465 28.8598C30.6799 29.029 30.8923 29.301 30.936 29.5571C30.9757 29.7884 31.0263 29.8886 31.2412 29.9422V29.9417ZM22.148 30.4311C22.8924 30.2336 24.4617 28.0722 24.2851 27.5213C23.4007 28.3605 22.6894 29.2906 22.148 30.4311ZM18.6734 27.358C18.7056 27.3674 18.7374 27.3774 18.7697 27.3868C19.4059 26.3773 20.0332 25.3639 20.1608 24.1037C19.799 24.3147 19.4173 24.9038 19.3508 25.2835C19.3156 25.4835 19.2451 25.6795 19.1741 25.8711C19.0218 26.282 18.8555 26.6875 18.7031 27.0984C18.6739 27.1778 18.6823 27.2711 18.6734 27.358ZM42.287 28.364C42.3361 28.3541 42.4011 28.361 42.4269 28.3322C42.5937 28.1466 42.7579 27.9585 42.9088 27.7605C42.9634 27.689 42.9967 27.5893 43.0076 27.4989C43.0245 27.3575 42.9441 27.3084 42.8135 27.3659C42.6086 27.4568 42.2656 28.0995 42.287 28.364Z" fill="#3C240E"/>
<path d="M8.80489 28.0422C8.58305 28.4795 8.37559 28.8601 8.19394 29.2527C7.8907 29.9078 7.60731 30.5719 7.30656 31.228C7.26189 31.3257 7.17454 31.4101 7.09215 31.4831C6.75119 31.7843 6.44249 31.7342 6.30254 31.3114C6.15414 30.8612 6.07821 30.3872 5.96803 29.9247C5.88068 29.5574 5.77794 29.1936 5.70399 28.8244C5.65337 28.5723 5.65089 28.3107 5.60722 28.0566C5.57247 27.8556 5.49058 27.662 5.4613 27.4605C5.42507 27.2144 5.42309 26.9628 5.40423 26.7141C5.38884 26.5062 5.34219 26.3324 5.167 26.1707C5.04937 26.062 4.99279 25.8277 5.00073 25.654C5.03945 24.7512 5.09652 23.8494 5.17097 22.9487C5.20223 22.573 5.28859 22.2017 5.35857 21.83C5.40324 21.5943 5.48215 21.3719 5.75809 21.3153C6.03751 21.2578 6.26879 21.3719 6.43009 21.6424C6.51396 21.7828 6.61272 21.9203 6.66186 22.0732C6.71695 22.2444 6.75616 22.434 6.74375 22.6112C6.70305 23.2112 6.60975 23.8083 6.58841 24.4083C6.56607 25.0361 6.59287 25.6664 6.6162 26.2947C6.65541 27.3712 6.78593 28.4373 7.01473 29.4904C7.02714 29.5465 7.05493 29.5991 7.09463 29.7043C7.16312 29.614 7.21226 29.5624 7.2465 29.5018C8.01925 28.1251 8.5493 26.6585 8.88182 25.1185C8.98505 24.6401 9.07488 24.1581 9.19499 23.6837C9.3136 23.2152 9.77318 22.8554 10.2397 22.8286C10.398 22.8191 10.5628 23.0003 10.5648 23.2311C10.5668 23.4539 10.5464 23.6792 10.5102 23.8996C10.3534 24.8495 10.1722 25.7959 10.0327 26.7483C9.98758 27.058 10.0417 27.3826 10.0511 27.7003C10.068 28.2685 10.0849 28.8373 10.1037 29.4056C10.1052 29.4542 10.1246 29.5018 10.1355 29.55C10.1593 29.5599 10.1831 29.5703 10.2069 29.5802C10.2869 29.4418 10.3871 29.3108 10.4427 29.1634C10.7281 28.406 11.0234 27.6516 11.2745 26.8828C11.6184 25.8307 11.9361 24.7696 12.2398 23.705C12.3093 23.4608 12.2259 23.172 12.3004 22.9308C12.3758 22.6876 12.552 22.4722 12.7014 22.2568C12.7421 22.1978 12.8582 22.1387 12.9153 22.1571C12.9743 22.1759 13.0433 22.2906 13.0389 22.3591C13.0135 22.7511 12.9669 23.1417 12.9287 23.5328C12.9158 23.6643 12.9024 23.7963 12.8959 23.9284C12.8914 24.0132 12.9128 24.1011 12.8994 24.184C12.6686 25.6346 12.1817 27.0154 11.7137 28.3986C11.4775 29.0969 11.1569 29.7664 10.8705 30.4473C10.7484 30.7376 10.5241 30.9079 10.2164 30.9734C10.1414 30.9893 10.068 31.017 9.99701 31.0473C9.65556 31.1927 9.35629 31.0989 9.25405 30.7431C9.14387 30.3589 9.10516 29.9535 9.04808 29.5554C8.98455 29.1132 8.93691 28.6685 8.87934 28.2248C8.87438 28.1861 8.84956 28.1504 8.80539 28.0442L8.80489 28.0422Z" fill="#3C240E"/>
<path d="M31.1875 20.8541C31.2729 20.2963 31.3989 19.868 31.6942 19.5146C31.925 19.2382 32.3181 19.3359 32.4784 19.6992C32.6015 19.9786 32.592 20.2665 32.5181 20.5578C32.4193 20.9479 32.2645 21.3028 31.9682 21.5911C31.8019 21.7529 31.6436 21.743 31.5379 21.5698C31.385 21.3197 31.2773 21.0422 31.1875 20.8541Z" fill="#3C240E"/>
<path d="M14.7996 25.963C14.4155 25.9576 14.2338 25.7422 14.3038 25.3441C14.3658 24.9942 14.5892 24.7466 14.8711 24.5441C14.9728 24.4711 15.0621 24.3818 15.1619 24.3059C15.2691 24.2245 15.3723 24.1183 15.4949 24.0791C15.9267 23.9416 16.1297 24.1332 16.0225 24.5669C15.9649 24.8007 15.8949 25.032 15.8155 25.2593C15.6776 25.6533 15.213 25.969 14.7996 25.963Z" fill="#3C240E"/>
<path d="M35.5902 21.4952C35.5535 21.9136 35.1713 22.5022 34.7817 22.6536C34.7142 22.6799 34.5643 22.6417 34.5296 22.5856C34.0477 21.8039 34.0765 21.3369 34.7693 20.6977C34.9867 20.4967 35.2333 20.5443 35.3673 20.8173C35.4716 21.0287 35.5182 21.2684 35.5902 21.4952Z" fill="#3C240E"/>
<path d="M31.0203 20.7018C31.0536 21.0885 30.9622 21.4041 30.7543 21.684C30.5101 22.0131 30.0644 21.9873 29.8942 21.6135C29.5522 20.8656 29.8863 20.2537 30.5295 19.875C30.7215 19.7618 30.9052 19.8814 30.9682 20.1256C30.9935 20.2249 31.0099 20.3276 31.0188 20.4299C31.0273 20.5326 31.0208 20.6363 31.0208 20.7013L31.0203 20.7018Z" fill="#3C240E"/>
<path d="M34.0977 20.5587C34.1017 20.9552 33.6962 21.589 33.383 21.6828C33.3026 21.7066 33.1443 21.6391 33.0932 21.5647C32.7681 21.0902 32.8038 20.1725 33.1354 19.6986C33.2649 19.5135 33.3885 19.4896 33.5552 19.648C33.8367 19.9155 34.0575 20.2137 34.0977 20.5592V20.5587Z" fill="#3C240E"/>
<path d="M28.6177 21.9213C28.6226 21.6225 28.7566 21.4061 28.9423 21.2151C29.1423 21.0101 29.2713 21.018 29.4525 21.2329C29.7602 21.5977 29.6654 22.3844 29.2807 22.6623C29.1075 22.7874 28.9135 22.7655 28.8241 22.573C28.7294 22.3675 28.6842 22.1397 28.6172 21.9213H28.6177Z" fill="#3C240E"/>
<path d="M32.4891 18.4831C32.4752 18.5 32.4578 18.5114 32.433 18.5079C32.3973 18.5025 32.3551 18.4985 32.3278 18.4717C32.3124 18.4568 32.2955 18.4374 32.2896 18.4166C32.2822 18.3923 32.2782 18.3565 32.2841 18.3322C32.2891 18.3114 32.299 18.2915 32.307 18.2722C32.3199 18.2404 32.3328 18.2087 32.3457 18.1769C32.3561 18.1511 32.364 18.1228 32.3769 18.0985C32.3794 18.094 32.3824 18.0891 32.3864 18.0861C32.4047 18.0732 32.436 18.0945 32.4529 18.103C32.4663 18.1099 32.4742 18.1183 32.4772 18.1332C32.4866 18.1779 32.4911 18.2245 32.499 18.2692C32.5055 18.3079 32.5174 18.3486 32.5174 18.3883C32.5174 18.4126 32.5164 18.4364 32.5045 18.4583C32.4995 18.4672 32.4946 18.4757 32.4881 18.4831H32.4891Z" fill="#3C240E"/>
<path d="M33.5046 18.7634C33.4927 18.8071 33.4366 18.8116 33.3979 18.817C33.3547 18.8235 33.2991 18.8071 33.2758 18.7674C33.2619 18.7436 33.2629 18.7197 33.258 18.6939C33.2565 18.686 33.253 18.6786 33.252 18.6706C33.249 18.6349 33.2495 18.5962 33.2525 18.5599C33.2535 18.5485 33.2555 18.5371 33.2609 18.5277C33.2719 18.5088 33.2962 18.4954 33.317 18.4925C33.3364 18.4895 33.3473 18.5123 33.3582 18.5252C33.3825 18.554 33.4058 18.5828 33.4302 18.6116C33.448 18.6324 33.4694 18.6523 33.4843 18.6751C33.4867 18.6791 33.4887 18.683 33.4902 18.6875C33.4967 18.7093 33.5086 18.7307 33.5061 18.754C33.5061 18.7575 33.5051 18.7609 33.5041 18.7639L33.5046 18.7634Z" fill="#3C240E"/>
<path d="M31.5347 18.6365C31.5362 18.6405 31.5372 18.645 31.5377 18.6495C31.5401 18.6673 31.5312 18.6787 31.5238 18.6941C31.5123 18.7179 31.5089 18.7472 31.5024 18.773C31.4945 18.8043 31.486 18.8361 31.4741 18.8663C31.4583 18.907 31.4344 18.9428 31.3903 18.9557C31.3669 18.9621 31.3421 18.9631 31.3183 18.9626C31.3024 18.9626 31.2865 18.9616 31.2707 18.9606C31.2602 18.9601 31.2523 18.9571 31.2429 18.9547C31.2295 18.9512 31.2156 18.9507 31.2017 18.9418C31.1659 18.916 31.156 18.8609 31.1704 18.8207C31.1759 18.8053 31.1878 18.7934 31.1992 18.7825C31.2394 18.7447 31.2801 18.7085 31.3213 18.6718C31.3481 18.648 31.3739 18.6232 31.4017 18.6008C31.4111 18.5934 31.421 18.5879 31.4329 18.5864C31.4717 18.583 31.5218 18.5978 31.5352 18.637L31.5347 18.6365Z" fill="#3C240E"/>
<path d="M34.6023 19.3286C34.6023 19.3286 34.6058 19.3281 34.6073 19.3281C34.6262 19.3281 34.6525 19.3435 34.6589 19.3614C34.6683 19.3867 34.6827 19.409 34.6966 19.4323C34.7165 19.4656 34.7408 19.4988 34.7562 19.5346C34.7597 19.543 34.7616 19.5514 34.7636 19.5609C34.7686 19.5897 34.7795 19.6194 34.7721 19.6487C34.7577 19.7063 34.6808 19.6835 34.643 19.6666C34.5934 19.6448 34.5666 19.6026 34.5587 19.5505C34.5532 19.5147 34.5542 19.478 34.5567 19.4423C34.5582 19.4184 34.5557 19.3862 34.5691 19.3653C34.5775 19.3519 34.5855 19.3326 34.6023 19.3291V19.3286Z" fill="#3C240E"/>
</g>
<defs>
<clipPath id="clip0_2186_17640">
<rect width="40" height="13.8364" fill="white" transform="translate(5 18.082)"/>
</clipPath>
</defs>
</svg>
