<svg id="圖層_1" data-name="圖層 1" xmlns="http://www.w3.org/2000/svg" width="246" height="246" viewBox="0 0 246 246">
  <defs>
    <style>
      .cls-1 {
        fill: #fff;
      }
    </style>
  </defs>
  <g>
    <polygon class="cls-1" points="101.16 100.55 89.49 100.55 78.98 115.28 68.48 100.55 56.81 100.55 73.15 123.46 57.45 145.48 69.12 145.48 78.98 131.65 88.85 145.48 100.52 145.48 84.82 123.46 101.16 100.55"/>
    <path class="cls-1" d="M139.15,145.39H112a7,7,0,0,1-7-7V107.52a7,7,0,0,1,7-7h27.12v9H114v26.87h25.12Z"/>
    <path class="cls-1" d="M177.52,145.48h11.67l-18.36-44.69.11-.24H159.06l.11.24-18.36,44.69h11.67l4.14-10.08h16.76ZM160.5,126l4.5-11,4.5,11Z"/>
  </g>
</svg>
