<?xml version="1.0" encoding="utf-8"?>
<!-- Generator: Adobe Illustrator 26.0.3, SVG Export Plug-In . SVG Version: 6.00 Build 0)  -->
<svg version="1.1" id="圖層_1" xmlns="http://www.w3.org/2000/svg" xmlns:xlink="http://www.w3.org/1999/xlink" x="0px" y="0px"
	 width="390.2px" height="376.2px" viewBox="0 0 390.2 376.2" style="enable-background:new 0 0 390.2 376.2;" xml:space="preserve"
	>
<style type="text/css">
	.st0{display:none;}
	.st1{display:inline;fill:#FFFFFF;}
	.st2{display:inline;}
	.st3{fill:#FFFFFF;}
</style>
<g class="st0">
	<path class="st1" d="M234.7,288h-79.2c-12.2,0-22.1-9.9-22.1-22.1c0-12.2,9.9-22.1,22.1-22.1h79.2c12.2,0,22.1,9.9,22.1,22.1
		S246.9,288,234.7,288z M155.5,258.6c-4,0-7.3,3.3-7.3,7.3s3.3,7.3,7.3,7.3h79.2c4,0,7.3-3.3,7.3-7.3s-3.3-7.3-7.3-7.3H155.5z"/>
	<path class="st1" d="M195.1,346.8c-22.1,0-40.4-17.4-41.6-39.5c-0.1-2,0.6-4,2-5.5s3.3-2.3,5.4-2.3h68.5c2,0,4,0.8,5.4,2.3
		s2.1,3.5,2,5.5C235.5,329.4,217.2,346.8,195.1,346.8z M169.8,314.3c3.8,10.4,13.7,17.8,25.3,17.8s21.5-7.4,25.3-17.8H169.8z"/>
	<path class="st1" d="M245.6,232.5h-34.4c-4.1,0-7.4-3.3-7.4-7.4v-78.9c0-4.1,3.3-7.4,7.4-7.4h21.5L195,96.9l-37.7,41.9h21.5
		c4.1,0,7.4,3.3,7.4,7.4v78.9c0,4.1-3.3,7.4-7.4,7.4h-34.4c-1.3,0-2.6-0.3-3.7-1c-33.4-19.4-54.1-55.3-54.1-93.7
		c0-59.7,48.6-108.3,108.4-108.3c59.7,0,108.3,48.6,108.3,108.3c0,38.4-20.7,74.3-54.1,93.7C248.2,232.1,246.9,232.5,245.6,232.5z
		 M218.7,217.7h24.9c27.8-16.9,45.1-47.4,45.1-79.9c0-51.6-42-93.6-93.5-93.6c-51.6,0-93.6,42-93.6,93.6c0,32.5,17.2,63,45.1,79.9
		h24.9v-64.1h-30.7c-2.9,0-5.6-1.7-6.8-4.4s-0.7-5.8,1.3-8l54.3-60.4c2.8-3.1,8.2-3.1,11,0l54.3,60.4c2,2.2,2.4,5.3,1.3,8
		c-1.2,2.7-3.8,4.4-6.8,4.4h-30.7L218.7,217.7L218.7,217.7z"/>
</g>
<g class="st0">
	<path class="st1" d="M195.2,253.9c-5.7,0-11.5-0.8-17.1-2.3c-17-4.5-31.1-15.4-39.9-30.6c-18.1-31.4-7.3-71.7,24.1-89.8
		s71.7-7.3,89.8,24.1c8.8,15.2,11.1,32.9,6.6,49.9s-15.4,31.1-30.6,39.9l0,0C217.9,250.9,206.6,253.9,195.2,253.9z M195,138.3
		c-8.5,0-17,2.1-24.9,6.7c-23.8,13.8-32,44.3-18.3,68.1c6.7,11.5,17.4,19.8,30.3,23.2c12.9,3.5,26.3,1.7,37.8-5l0,0
		c11.5-6.7,19.8-17.4,23.2-30.3c3.4-12.9,1.7-26.3-5-37.8C229.1,147.2,212.3,138.3,195,138.3z"/>
	
		<rect x="203.4" y="94.3" transform="matrix(0.5001 -0.866 0.866 0.5001 33.8718 263.0797)" class="st1" width="82.8" height="15.9"/>
	<path class="st1" d="M277,77.4c-5.4,0-10.8-1.4-15.6-4.2c-14.9-8.6-20-27.7-11.4-42.7c8.6-14.9,27.7-20,42.7-11.4
		c7.2,4.2,12.4,10.9,14.5,19c2.2,8.1,1.1,16.5-3.1,23.7l0,0c-4.2,7.2-10.9,12.4-19,14.6C282.4,77.1,279.7,77.4,277,77.4z
		 M277.1,30.8c-1.3,0-2.7,0.2-4,0.5c-4,1.1-7.3,3.6-9.3,7.1c-4.2,7.3-1.7,16.7,5.6,21c3.5,2,7.7,2.6,11.6,1.5c4-1.1,7.3-3.6,9.3-7.1
		l0,0c2-3.5,2.6-7.7,1.5-11.6c-1.1-4-3.6-7.3-7.1-9.3C282.4,31.5,279.7,30.8,277.1,30.8z"/>
	<rect x="137.6" y="60.8" transform="matrix(0.866 -0.5 0.5 0.866 -31.5946 86.472)" class="st1" width="15.9" height="82.8"/>
	<path class="st1" d="M113.2,77.4c-2.7,0-5.4-0.4-8.1-1.1c-8.1-2.2-14.8-7.3-19-14.6C82,54.6,80.8,46.2,83,38.1s7.3-14.8,14.6-19
		c14.9-8.6,34-3.5,42.7,11.4l0,0c8.6,14.9,3.5,34.1-11.4,42.7C124,76,118.6,77.4,113.2,77.4z M113.1,30.8c-2.7,0-5.3,0.7-7.6,2.1
		c-3.5,2-6.1,5.4-7.1,9.3c-1.1,4-0.5,8.1,1.5,11.6s5.4,6.1,9.3,7.1c4,1.1,8.1,0.5,11.6-1.5c7.3-4.2,9.8-13.6,5.6-21
		c-2-3.5-5.4-6.1-9.3-7.1C115.8,31,114.5,30.8,113.1,30.8z"/>
	<rect x="54.5" y="180.2" class="st1" width="82.8" height="15.9"/>
	<path class="st1" d="M31.2,219.3C14,219.3,0,205.3,0,188.1s14-31.2,31.2-31.2s31.2,14,31.2,31.2S48.4,219.3,31.2,219.3z
		 M31.2,172.8c-8.5,0-15.3,6.9-15.3,15.3c0,8.5,6.9,15.3,15.3,15.3s15.3-6.9,15.3-15.3C46.6,179.7,39.7,172.8,31.2,172.8z"/>
	
		<rect x="104.1" y="266.1" transform="matrix(0.5001 -0.866 0.866 0.5001 -164.5957 263.0266)" class="st1" width="82.8" height="15.9"/>
	<path class="st1" d="M113.1,361.3c-5.3,0-10.7-1.3-15.6-4.2c-14.9-8.6-20-27.7-11.4-42.7l0,0c4.2-7.2,10.9-12.4,19-14.6
		s16.5-1,23.7,3.1c14.9,8.6,20,27.7,11.4,42.7C134.4,355.7,123.9,361.3,113.1,361.3z M113.2,314.7c-1.3,0-2.7,0.2-4,0.5
		c-4,1.1-7.3,3.6-9.3,7.1l0,0c-4.2,7.3-1.7,16.7,5.6,21c7.3,4.2,16.7,1.7,21-5.6c4.2-7.3,1.7-16.7-5.6-21
		C118.5,315.4,115.8,314.7,113.2,314.7z"/>
	<rect x="236.8" y="232.6" transform="matrix(0.866 -0.5 0.5 0.866 -104.2016 159.0859)" class="st1" width="15.9" height="82.8"/>
	<path class="st1" d="M277.1,361.3c-10.8,0-21.3-5.6-27.1-15.6l0,0c-8.6-14.9-3.5-34.1,11.4-42.7c7.2-4.2,15.6-5.3,23.7-3.1
		c8.1,2.2,14.8,7.3,19,14.6c8.6,14.9,3.5,34-11.4,42.7C287.8,359.9,282.4,361.3,277.1,361.3z M263.8,337.7c4.2,7.3,13.6,9.8,21,5.6
		c7.3-4.2,9.8-13.6,5.6-21c-2-3.5-5.4-6.1-9.3-7.1c-4-1.1-8.1-0.5-11.6,1.5C262.1,321,259.5,330.4,263.8,337.7L263.8,337.7z"/>
	<rect x="252.9" y="180.2" class="st1" width="82.8" height="15.9"/>
	<path class="st1" d="M359,219.3c-17.2,0-31.2-14-31.2-31.2s14-31.2,31.2-31.2s31.2,14,31.2,31.2S376.2,219.3,359,219.3z M359,172.8
		c-8.5,0-15.3,6.9-15.3,15.3c0,8.5,6.9,15.3,15.3,15.3c8.5,0,15.3-6.9,15.3-15.3S367.4,172.8,359,172.8z"/>
	<g class="st2">
		<circle class="st3" cx="195.5" cy="43.2" r="7.9"/>
		<circle class="st3" cx="168.5" cy="43.2" r="7.9"/>
		<circle class="st3" cx="222.6" cy="43.2" r="7.9"/>
	</g>
	<g class="st2">
		<circle class="st3" cx="195.5" cy="331.9" r="7.9"/>
		<circle class="st3" cx="168.5" cy="331.9" r="7.9"/>
		<circle class="st3" cx="222.6" cy="331.9" r="7.9"/>
	</g>
	<g class="st2">
		<circle class="st3" cx="69.8" cy="115.3" r="7.9"/>
		<circle class="st3" cx="56.3" cy="138.7" r="7.9"/>
		<circle class="st3" cx="83.3" cy="91.9" r="7.9"/>
	</g>
	<g class="st2">
		<circle class="st3" cx="319.8" cy="259.6" r="7.9"/>
		<circle class="st3" cx="306.3" cy="283.1" r="7.9"/>
		<circle class="st3" cx="333.4" cy="236.2" r="7.9"/>
	</g>
	<g class="st2">
		<circle class="st3" cx="69.4" cy="260.2" r="7.9"/>
		<circle class="st3" cx="82.9" cy="283.6" r="7.9"/>
		<circle class="st3" cx="55.9" cy="236.8" r="7.9"/>
	</g>
	<g class="st2">
		<circle class="st3" cx="319.4" cy="115.9" r="7.9"/>
		<circle class="st3" cx="332.9" cy="139.3" r="7.9"/>
		<circle class="st3" cx="305.9" cy="92.4" r="7.9"/>
	</g>
</g>
<g class="st0">
	<circle class="st1" cx="195.1" cy="188.1" r="29.7"/>
	<path class="st1" d="M168.6,245c-1.2,0-2.4-0.3-3.5-0.9c-20.7-11.1-33.5-32.6-33.5-56c0-23.5,12.9-44.9,33.5-56c3.6-1.9,8-0.6,10,3
		c1.9,3.6,0.6,8-3,10c-15.9,8.5-25.8,25-25.8,43.1s9.9,34.5,25.8,43.1c3.6,1.9,4.9,6.4,3,10C173.7,243.6,171.2,245,168.6,245z"/>
	<path class="st1" d="M221.7,245c-2.6,0-5.2-1.4-6.5-3.9c-1.9-3.6-0.6-8,3-10c15.9-8.5,25.8-25,25.8-43.1c0-18-9.9-34.5-25.8-43.1
		c-3.6-1.9-4.9-6.4-3-10s6.4-4.9,10-3c20.7,11.1,33.5,32.6,33.5,56c0,23.5-12.8,44.9-33.5,56C224,244.8,222.8,245,221.7,245z"/>
	<path class="st1" d="M151.3,277.3c-1.2,0-2.4-0.3-3.5-0.9C115.2,258.9,95,225.1,95,188.1s20.3-70.8,52.9-88.3c3.6-1.9,8-0.6,10,3
		c1.9,3.6,0.6,8-3,10c-27.8,14.9-45.1,43.8-45.1,75.3s17.3,60.4,45.1,75.3c3.6,1.9,4.9,6.4,3,10
		C156.5,275.9,153.9,277.3,151.3,277.3z"/>
	<path class="st1" d="M238.9,277.3c-2.6,0-5.2-1.4-6.5-3.9c-1.9-3.6-0.6-8,3-10c27.8-14.9,45.1-43.8,45.1-75.3s-17.3-60.4-45.1-75.3
		c-3.6-1.9-4.9-6.4-3-10s6.4-4.9,10-3c32.6,17.5,52.9,51.3,52.9,88.3s-20.3,70.8-52.9,88.3C241.3,277,240.1,277.3,238.9,277.3z"/>
	<path class="st1" d="M133.8,310.1c-1.2,0-2.4-0.3-3.5-0.9c-44.7-24-72.5-70.4-72.5-121.1c0-50.4,27.5-96.6,71.8-120.7
		c3.6-1.9,8-0.6,10,3c1.9,3.6,0.6,8-3,10C97,101.9,72.4,143.2,72.4,188.2c0,45.2,24.8,86.7,64.7,108.1c3.6,1.9,4.9,6.4,3,10
		C138.9,308.6,136.4,310.1,133.8,310.1z"/>
	<path class="st1" d="M257,309.7c-2.6,0-5.1-1.4-6.5-3.8c-1.9-3.6-0.6-8,3-10c39.6-21.5,64.2-62.8,64.2-107.8
		c0-45.2-24.8-86.7-64.7-108.1c-3.6-1.9-4.9-6.4-3-10s6.4-4.9,10-3c44.7,24,72.5,70.4,72.5,121.1c0,50.4-27.5,96.6-71.8,120.7
		C259.4,309.4,258.2,309.7,257,309.7z"/>
	<path class="st1" d="M117.6,341.5c-1.2,0-2.3-0.3-3.4-0.9c-56.5-30.1-91.7-88.5-91.7-152.5S57.6,65.7,114.2,35.6
		c3.6-1.9,8-0.5,10,3c1.9,3.6,0.5,8-3,10c-51.7,27.5-83.9,81-83.9,139.5s32.1,112,83.9,139.5c3.6,1.9,4.9,6.4,3,10
		C122.8,340.1,120.2,341.5,117.6,341.5z"/>
	<path class="st1" d="M273.1,341.2c-2.6,0-5.2-1.4-6.5-3.9c-1.9-3.6-0.6-8,3-10C321,299.7,353,246.4,353,188
		c0-58.3-31.9-111.7-83.4-139.2c-3.6-1.9-4.9-6.4-3-10s6.3-5,10-3c56.2,30.2,91.1,88.5,91.1,152.2s-34.9,122.1-91.1,152.2
		C275.5,340.9,274.3,341.2,273.1,341.2z"/>
</g>
<g class="st0">
	<path class="st1" d="M286.5,107.7H103.7C82,107.7,64.3,90,64.3,68.2S82,28.8,103.7,28.8h182.7c21.8,0,39.4,17.7,39.4,39.4
		S308.2,107.7,286.5,107.7z M103.7,42.6c-14.1,0-25.6,11.5-25.6,25.6s11.5,25.6,25.6,25.6h182.7c14.1,0,25.6-11.5,25.6-25.6
		s-11.5-25.6-25.6-25.6H103.7z"/>
	<path class="st1" d="M286.5,201.6H103.7c-21.8,0-39.4-17.7-39.4-39.4s17.7-39.4,39.4-39.4h182.7c21.8,0,39.4,17.7,39.4,39.4
		S308.2,201.6,286.5,201.6z M103.7,136.6c-14.1,0-25.6,11.5-25.6,25.6s11.5,25.6,25.6,25.6h182.7c14.1,0,25.6-11.5,25.6-25.6
		s-11.5-25.6-25.6-25.6H103.7z"/>
	<circle class="st1" cx="195.1" cy="68.2" r="12.8"/>
	<circle class="st1" cx="195.1" cy="162.1" r="12.8"/>
	<path class="st1" d="M319,301.7c-16.1,0-29.3-13.1-29.3-29.3s13.1-29.3,29.3-29.3s29.3,13.1,29.3,29.3S335.1,301.7,319,301.7z
		 M319,257c-8.5,0-15.4,6.9-15.4,15.4s6.9,15.4,15.4,15.4s15.4-6.9,15.4-15.4S327.5,257,319,257z"/>
	<path class="st1" d="M71.2,301.7c-16.1,0-29.3-13.1-29.3-29.3s13.1-29.3,29.3-29.3s29.3,13.1,29.3,29.3S87.4,301.7,71.2,301.7z
		 M71.2,257c-8.5,0-15.4,6.9-15.4,15.4s6.9,15.4,15.4,15.4s15.4-6.9,15.4-15.4S79.7,257,71.2,257z"/>
	<path class="st1" d="M195.1,231c-3.8,0-6.9-3.1-6.9-6.9v-29.4c0-3.8,3.1-6.9,6.9-6.9s6.9,3.1,6.9,6.9V224
		C202,227.9,198.9,231,195.1,231z"/>
	<rect x="188.2" y="104.3" class="st1" width="13.9" height="28.1"/>
	<rect x="93.6" y="265.5" class="st1" width="53.3" height="13.9"/>
	<rect x="250.7" y="265.5" class="st1" width="45.9" height="13.9"/>
	<path class="st1" d="M195.1,347.5c-2.9,0-5.8-0.7-8.4-2.2l-33.4-18.7c-4.7-2.6-8-7.4-8.7-12.8l-8.5-64.1
		c-1.1-8.3,3.9-16.2,11.8-18.8l42-13.5c3.5-1.1,7.1-1.1,10.6,0l42,13.5c8,2.6,12.9,10.5,11.8,18.8l-8.5,64.1
		c-0.7,5.4-4,10.2-8.7,12.8l0,0l-33.4,18.7C200.9,346.7,198,347.5,195.1,347.5z M195.1,230.5c-0.4,0-0.7,0.1-1.1,0.2l-42,13.5
		c-1.6,0.5-2.6,2.1-2.3,3.7l8.5,64.1c0.1,1.1,0.8,2,1.7,2.5l33.4,18.7c1,0.6,2.3,0.6,3.3,0l33.4-18.7c0.9-0.5,1.6-1.5,1.7-2.5
		l8.5-64.1c0.2-1.6-0.8-3.2-2.3-3.7l-42-13.5C195.8,230.5,195.5,230.5,195.1,230.5z M233.6,320.5L233.6,320.5L233.6,320.5z"/>
	<path class="st1" d="M190.3,301.7c-1.4,0-2.9-0.4-4.1-1.4L165,284.6c-3.1-2.3-3.7-6.6-1.5-9.7c2.3-3.1,6.6-3.7,9.7-1.5l16.5,12.1
		l25.3-25.1c2.7-2.7,7.1-2.7,9.8,0s2.7,7.1,0,9.8l-29.5,29.3C193.8,301,192.1,301.7,190.3,301.7z"/>
</g>
<g class="st0">
	<path class="st1" d="M195.1,366.8c-79.7,0-144.5-64.8-144.5-144.5S115.4,77.8,195.1,77.8V94c-70.7,0-128.3,57.5-128.3,128.3
		s57.5,128.3,128.3,128.3S323.4,293,323.4,222.3c0-48.7-27-92.5-70.4-114.5l7.3-14.5c48.9,24.8,79.3,74.2,79.3,129
		C339.6,302,274.8,366.8,195.1,366.8z"/>
	<path class="st1" d="M195.1,165.9c-42.3,0-82.2-8.3-109.4-22.9l7.6-14.3c24.9,13.3,62,20.9,101.7,20.9s76.8-7.6,101.7-20.9
		l7.6,14.3C277.3,157.6,237.4,165.9,195.1,165.9z"/>
	<path class="st1" d="M296.1,316.9c-24.9-13-61.7-20.5-101-20.5c-38.8,0-75.4,7.4-100.2,20.2l-7.4-14.4c27.1-14,66.3-22,107.7-22
		c41.8,0,81.3,8.2,108.5,22.4L296.1,316.9z"/>
	<rect x="187" y="250.7" class="st1" width="16.2" height="108"/>
	<rect x="223.9" y="214.2" class="st1" width="107.6" height="16.2"/>
	<path class="st1" d="M203.6,193.9h-16.2V17.5c0-2.9,1.6-5.6,4.1-7.1s5.7-1.4,8.2,0.2L304,74.5c2.6,1.6,4.1,4.4,3.9,7.4
		s-2,5.7-4.8,6.9L203.6,133V193.9z M203.6,32v83.3l78.8-35.1L203.6,32z"/>
	<path class="st1" d="M195.5,258.8c-20.1,0-36.5-16.4-36.5-36.5s16.4-36.5,36.5-36.5s36.5,16.4,36.5,36.5S215.6,258.8,195.5,258.8z
		 M195.5,202c-11.2,0-20.3,9.1-20.3,20.3s9.1,20.3,20.3,20.3s20.3-9.1,20.3-20.3S206.7,202,195.5,202z"/>
	<rect x="60.2" y="214.2" class="st1" width="107.6" height="16.2"/>
</g>
<g>
	<path class="st3" d="M174.3,13c9.7,0,17.7,3.1,24.6,9.5c7.6,7.1,12.7,15.7,15.6,26.3c1.6,5.6,6.7,9.5,12.5,9.5h84.4
		c4.4,0,8,1.6,11.4,4.9c3.4,3.4,4.9,6.8,4.9,11v83.4c0,5.9,3.9,11,9.6,12.5c10.5,2.9,18.8,8,25.5,15.9c6.3,7.5,9.4,15.8,9.4,25.6
		c0,9.5-2.9,17.1-8.8,23.3c-6.7,7-15.2,11.8-26,14.8c-5.7,1.5-9.6,6.7-9.6,12.5v84.9c0,4.2-1.5,7.6-4.9,11c-3.4,3.4-7,4.9-11.4,4.9
		h-75c-3.3-13.4-9.7-24.7-19.3-33.8c-12.4-11.8-27.1-17.8-43.9-17.8c-16.7,0-31.5,6-43.9,17.8c-9.5,9.1-16,20.4-19.3,33.8h-75
		c-4.4,0-8-1.6-11.4-4.9c-3.4-3.4-4.9-6.8-4.9-11v-74.1c12.3-3.2,23.3-9.2,32.7-17.9c13-12,19.5-27,19.5-44.5s-6.6-32.5-19.5-44.5
		c-9.4-8.7-20.4-14.7-32.7-17.9V74.3c0-4.2,1.5-7.6,4.9-11c3.4-3.4,7-4.9,11.4-4.9h86.4c5.8,0,11-3.9,12.5-9.5
		c3-10.6,8.1-19.2,15.6-26.3C156.6,16.1,164.6,13,174.3,13 M174.3,0c-13,0-24.2,4.3-33.4,13c-9.3,8.7-15.7,19.5-19.3,32.3H35.1
		c-7.8,0-14.6,2.9-20.5,8.7c-5.9,5.8-8.8,12.5-8.8,20.3v84.9c14.3,1.6,26.6,7.2,36.9,16.6c10.3,9.5,15.4,21.1,15.4,35
		c0,13.8-5.1,25.5-15.4,35c-10.3,9.5-22.5,15-36.9,16.6v84.9c0,7.7,2.9,14.5,8.8,20.3c5.9,5.8,12.7,8.7,20.5,8.7h85.9
		c1.6-15.4,7.4-27.9,17.3-37.4c9.9-9.5,21.6-14.2,34.9-14.2c13.3,0,25,4.7,34.9,14.2c9.9,9.5,15.7,21.9,17.3,37.4h85.9
		c7.8,0,14.6-2.9,20.5-8.7c5.9-5.8,8.8-12.5,8.8-20.3v-84.9c13-3.5,23.7-9.6,32-18.3c8.3-8.7,12.4-19.5,12.4-32.3
		c0-12.9-4.1-24.2-12.4-34c-8.3-9.8-19-16.5-32-20V74.3c0-7.7-2.9-14.5-8.8-20.3c-5.9-5.8-12.7-8.7-20.5-8.7H227
		c-3.6-12.9-10-23.6-19.3-32.3C198.4,4.3,187.3,0,174.3,0L174.3,0z"/>
	<g>
		<path class="st3" d="M204.1,100.3h-31.6c-2.6,0-4.8,1.9-5.2,4.4l-3.2,20.6c-0.3,1.8-1.6,3.3-3.3,4c-1.9,0.8-3.9,1.8-6,2.9
			c-2.1,1.2-4,2.4-5.7,3.6c-1,0.7-2.1,1.1-3.2,1.1c-0.7,0-1.4-0.1-2.1-0.5l-18.8-8.6c-0.7-0.3-1.5-0.5-2.2-0.5c-1.8,0-3.6,1-4.6,2.7
			L102.2,158c-1.3,2.3-0.7,5.3,1.5,6.9l20.1,14.7c-0.3,1.3-0.5,2.8-0.6,4.5c-0.1,1.7-0.1,3.2-0.1,4.5c0,1.3,0,2.8,0.1,4.5
			c0.1,1.7,0.3,3.2,0.6,4.5l-20.1,14.7c-2.2,1.6-2.8,4.5-1.5,6.9l15.8,27.9c1,1.7,2.7,2.7,4.6,2.7c0.7,0,1.5-0.2,2.2-0.5l18.8-8.6
			c0.7-0.3,1.4-0.5,2.1-0.5c1.1,0,2.2,0.4,3.2,1.1c1.7,1.2,3.6,2.5,5.7,3.6c2.1,1.2,4.1,2.2,6.1,3.1c1.7,0.7,2.9,2.2,3.2,4.1
			l3.2,20.4c0.4,2.6,2.6,4.4,5.2,4.4h31.6c2.6,0,4.8-1.9,5.2-4.4l3.2-20.3c0.3-1.9,1.7-3.4,3.4-4.1c2-0.8,4-1.8,6-3
			c2-1.2,3.9-2.5,5.6-3.7c0.9-0.7,2.1-1.1,3.2-1.1c0.7,0,1.4,0.1,2.1,0.5l18.8,8.6c0.7,0.3,1.5,0.5,2.2,0.5c1.8,0,3.6-1,4.6-2.7
			l15.8-27.9c1.3-2.3,0.7-5.3-1.5-6.9l-20-14.5c0.3-1.5,0.5-3,0.6-4.6c0.1-1.6,0.1-3.2,0.1-4.6c0-1.5,0-3.1-0.1-4.7
			c-0.1-1.7-0.3-3.3-0.6-4.7l20-14.3c2.2-1.6,2.9-4.5,1.5-6.9l-15.8-27.9c-1-1.7-2.7-2.7-4.6-2.7c-0.7,0-1.5,0.2-2.2,0.5l-18.9,8.6
			c-0.6,0.3-1.3,0.4-2,0.4c-1.1,0-2.3-0.4-3.2-1.1c-1.7-1.3-3.6-2.5-5.7-3.6c-2.1-1.1-4.2-2.1-6.2-3c-1.7-0.7-3-2.2-3.2-4.1
			l-3.2-20.4C208.9,102.1,206.7,100.3,204.1,100.3L204.1,100.3z M148.6,151.8c1.4,0,2.7-0.6,3.8-1.5c2.7-2.6,5.8-4.8,9.1-6.7
			c3.3-1.9,6.8-3.4,10.5-4.4c2.1-0.6,3.7-2.3,4-4.5l2.1-16.5c0.3-2.6,2.6-4.6,5.2-4.6h10.1c2.7,0,4.9,2,5.2,4.6l2,16.3
			c0.3,2.3,2,4,4.2,4.5c3.7,0.9,7.2,2.3,10.4,4.3c3.2,2,6.2,4.3,9,6.9c1.1,1,2.5,1.6,3.9,1.6c0.7,0,1.4-0.1,2-0.4l15.7-6.8
			c0.7-0.3,1.4-0.4,2.1-0.4c1.9,0,3.7,1,4.6,2.7l4.3,7.7c1.3,2.3,0.7,5.2-1.5,6.8L241,171.7c-1.7,1.3-2.4,3.4-2,5.5
			c0.3,1.3,0.5,2.7,0.7,4c0.3,2.4,0.4,4.9,0.4,7.4c0,2.5-0.2,5-0.6,7.4c-0.2,1.3-0.4,2.7-0.7,4.1c-0.4,2,0.4,4.1,2,5.4l14.3,10.5
			c2.1,1.6,2.8,4.5,1.5,6.8l-4.3,7.7c-1,1.7-2.7,2.7-4.6,2.7c-0.7,0-1.4-0.1-2.1-0.4l-15.9-6.9c-0.7-0.3-1.3-0.4-2-0.4
			c-1.3,0-2.6,0.5-3.6,1.4c-2.9,2.5-6,4.8-9.3,6.7c-3.3,1.9-6.8,3.4-10.4,4.6c-2,0.6-3.5,2.3-3.8,4.4l-2.1,16.7
			c-0.3,2.6-2.6,4.6-5.2,4.6h-10.1c-2.7,0-4.9-2-5.2-4.6l-2.1-16.7c-0.3-2.1-1.8-3.8-3.8-4.4c-3.6-1.1-7.1-2.7-10.4-4.6
			c-3.3-1.9-6.5-4.2-9.3-6.7c-1-0.9-2.3-1.4-3.6-1.4c-0.7,0-1.4,0.1-2,0.4l-15.9,6.9c-0.7,0.3-1.4,0.4-2.1,0.4c-1.9,0-3.7-1-4.6-2.7
			l-4.3-7.7c-1.3-2.3-0.7-5.2,1.5-6.8l14.3-10.5c1.7-1.2,2.4-3.3,2-5.4c-0.3-1.4-0.5-2.7-0.7-4.1c-0.4-2.4-0.6-4.9-0.6-7.4
			c0-2.5,0.2-5,0.6-7.4c0.2-1.3,0.4-2.7,0.7-4.1c0.4-2-0.4-4.1-2-5.4l-14.3-10.5c-2.1-1.6-2.8-4.5-1.5-6.8l4.3-7.7
			c1-1.7,2.7-2.7,4.6-2.7c0.7,0,1.4,0.1,2.1,0.4l15.7,6.8C147.2,151.7,147.9,151.8,148.6,151.8L148.6,151.8z"/>
		<path class="st3" d="M188.3,159.9c-11.2,0-20.1,5.6-26.7,16.8c-0.3,0.5-0.5,1-0.6,1.6c-4.2,16.3,0.9,28.6,15.3,37
			c0.5,0.3,1,0.5,1.6,0.6c3.7,0.9,7.1,1.4,10.4,1.4c11.2,0,20.1-5.6,26.7-16.8c0.3-0.5,0.5-1,0.6-1.6c4.2-16.3-0.9-28.6-15.4-37.1
			c-0.5-0.3-1-0.5-1.6-0.6C195,160.4,191.5,159.9,188.3,159.9L188.3,159.9z M188.3,204.1c-1.6,0-3.3-0.2-5.1-0.6
			c-0.6-0.1-1.3-0.4-1.8-0.7c-7.3-4.5-9.9-10.9-7.9-19.2c0.1-0.6,0.4-1.3,0.7-1.8c3.5-5.7,8.2-8.6,14.1-8.6c1.6,0,3.3,0.2,5.1,0.6
			c0.6,0.1,1.3,0.4,1.8,0.7c7.3,4.5,9.9,10.9,7.9,19.2c-0.1,0.6-0.4,1.3-0.7,1.8C198.8,201.2,194.1,204.1,188.3,204.1L188.3,204.1z"
			/>
	</g>
</g>
</svg>
