<svg width="1903" height="407" viewBox="0 0 1903 407" fill="none" xmlns="http://www.w3.org/2000/svg">
<path opacity="0.4" d="M141.002 224.295C139.902 227.795 138.102 230.895 135.702 233.495C135.302 233.895 134.702 233.995 134.302 233.695L130.202 231.395C128.502 232.895 126.502 233.995 124.302 234.795V239.495C124.302 239.995 123.902 240.495 123.402 240.595C120.002 241.395 116.402 241.395 112.802 240.595C112.302 240.495 111.902 239.995 111.902 239.495V234.695C109.702 233.895 107.702 232.795 106.002 231.295L101.902 233.595C101.402 233.895 100.802 233.795 100.502 233.395C98.1016 230.795 96.3016 227.695 95.2016 224.195C95.0016 223.695 95.3016 223.095 95.7016 222.795L99.8016 220.495C99.3016 218.195 99.3016 215.995 99.8016 213.695L95.7016 211.395C95.2016 211.095 95.0016 210.595 95.2016 209.995C96.3016 206.595 98.1016 203.395 100.502 200.795C100.902 200.395 101.502 200.295 101.902 200.595L106.002 202.895C107.702 201.395 109.702 200.295 111.902 199.495V194.895C111.902 194.395 112.302 193.895 112.802 193.795C116.202 192.995 119.802 192.995 123.402 193.795C123.902 193.895 124.302 194.395 124.302 194.895V199.595C126.502 200.395 128.502 201.495 130.202 202.995L134.302 200.695C134.802 200.395 135.402 200.495 135.702 200.895C138.102 203.495 139.902 206.595 141.002 210.095C141.202 210.595 140.902 211.195 140.502 211.495L136.402 213.795C136.902 216.095 136.902 218.295 136.402 220.595L140.502 222.895C140.802 223.295 141.102 223.795 141.002 224.295ZM125.702 217.195C125.702 212.995 122.202 209.495 118.002 209.495C113.802 209.495 110.302 212.995 110.302 217.195C110.302 221.395 113.802 224.895 118.002 224.895C122.302 224.995 125.702 221.495 125.702 217.195Z" fill="#514FC3"/>
<path opacity="0.4" d="M479.002 191.295C477.902 194.795 476.102 197.895 473.702 200.495C473.302 200.895 472.702 200.995 472.302 200.695L468.202 198.395C466.502 199.895 464.502 200.995 462.302 201.795V206.495C462.302 206.995 461.902 207.495 461.402 207.595C458.002 208.395 454.402 208.395 450.802 207.595C450.302 207.495 449.902 206.995 449.902 206.495V201.695C447.702 200.895 445.702 199.795 444.002 198.295L439.902 200.595C439.402 200.895 438.802 200.795 438.502 200.395C436.102 197.795 434.302 194.695 433.202 191.195C433.002 190.695 433.302 190.095 433.702 189.795L437.802 187.495C437.302 185.195 437.302 182.995 437.802 180.695L433.702 178.395C433.202 178.095 433.002 177.595 433.202 176.995C434.302 173.595 436.102 170.395 438.502 167.795C438.902 167.395 439.502 167.295 439.902 167.595L444.002 169.895C445.702 168.395 447.702 167.295 449.902 166.495V161.895C449.902 161.395 450.302 160.895 450.802 160.795C454.202 159.995 457.802 159.995 461.402 160.795C461.902 160.895 462.302 161.395 462.302 161.895V166.595C464.502 167.395 466.502 168.495 468.202 169.995L472.302 167.695C472.802 167.395 473.402 167.495 473.702 167.895C476.102 170.495 477.902 173.595 479.002 177.095C479.202 177.595 478.902 178.195 478.502 178.495L474.402 180.795C474.902 183.095 474.902 185.295 474.402 187.595L478.502 189.895C478.802 190.295 479.102 190.795 479.002 191.295ZM463.702 184.195C463.702 179.995 460.202 176.495 456.002 176.495C451.802 176.495 448.302 179.995 448.302 184.195C448.302 188.395 451.802 191.895 456.002 191.895C460.302 191.995 463.702 188.495 463.702 184.195Z" fill="#514FC3"/>
<path opacity="0.4" d="M256.402 290.597C255.802 292.497 254.802 294.297 253.402 295.697C253.202 295.897 252.902 295.997 252.602 295.797L250.302 294.497C249.302 295.297 248.202 295.997 247.002 296.397V299.097C247.002 299.397 246.802 299.697 246.502 299.697C244.602 300.097 242.602 300.097 240.602 299.697C240.302 299.597 240.102 299.397 240.102 299.097V296.397C238.902 295.997 237.802 295.297 236.802 294.497L234.502 295.797C234.202 295.997 233.902 295.897 233.702 295.697C232.402 294.197 231.302 292.497 230.702 290.597C230.602 290.297 230.702 289.997 231.002 289.797L233.302 288.497C233.002 287.197 233.002 285.997 233.302 284.697L231.002 283.397C230.702 283.197 230.602 282.997 230.702 282.597C231.302 280.697 232.302 278.897 233.702 277.497C233.902 277.297 234.202 277.197 234.502 277.397L236.802 278.697C237.802 277.897 238.902 277.197 240.102 276.797V274.197C240.102 273.897 240.302 273.597 240.602 273.597C242.502 273.197 244.502 273.197 246.502 273.597C246.802 273.697 247.002 273.897 247.002 274.197V276.897C248.202 277.297 249.302 277.997 250.302 278.797L252.602 277.497C252.902 277.297 253.202 277.397 253.402 277.597C254.702 279.097 255.802 280.797 256.402 282.697C256.502 282.997 256.402 283.297 256.102 283.497L253.802 284.797C254.102 286.097 254.102 287.297 253.802 288.597L256.102 289.897C256.402 289.997 256.502 290.297 256.402 290.597ZM248.002 286.597C248.002 284.197 246.102 282.297 243.702 282.297C241.302 282.297 239.402 284.197 239.402 286.597C239.402 288.997 241.302 290.897 243.702 290.897C246.002 290.897 248.002 288.997 248.002 286.597Z" fill="#0093E5"/>
<path opacity="0.4" d="M420.502 19.8984C420.002 21.5984 419.002 23.1984 417.802 24.4984C417.602 24.6984 417.302 24.6984 417.102 24.5984L415.002 23.3984C414.102 24.0984 413.102 24.6984 412.002 25.0984V27.4984C412.002 27.7984 411.802 27.9984 411.502 27.9984C409.802 28.3984 408.002 28.3984 406.202 27.9984C405.902 27.8984 405.702 27.6984 405.702 27.4984V25.0984C404.602 24.6984 403.602 24.1984 402.702 23.3984L400.602 24.5984C400.402 24.6984 400.102 24.6984 399.902 24.4984C398.702 23.1984 397.802 21.5984 397.202 19.8984C397.102 19.5984 397.202 19.3984 397.502 19.1984L399.602 17.9984C399.402 16.8984 399.402 15.6984 399.602 14.5984L397.502 13.3984C397.302 13.2984 397.202 12.9984 397.202 12.6984C397.702 10.9984 398.702 9.39844 399.902 8.09844C400.102 7.89844 400.402 7.89844 400.602 7.99844L402.702 9.19844C403.602 8.49844 404.602 7.89844 405.702 7.49844V5.19844C405.702 4.89844 405.902 4.69844 406.202 4.69844C407.902 4.29844 409.702 4.29844 411.502 4.69844C411.802 4.79844 412.002 4.99844 412.002 5.19844V7.59844C413.102 7.99844 414.102 8.49844 415.002 9.29844L417.102 8.09844C417.302 7.99844 417.602 7.99844 417.802 8.19844C419.002 9.49844 419.902 11.0984 420.502 12.7984C420.602 13.0984 420.502 13.2984 420.202 13.4984L418.102 14.6984C418.302 15.7984 418.302 16.9984 418.102 18.0984L420.202 19.2984C420.502 19.3984 420.602 19.5984 420.502 19.8984ZM412.902 16.2984C412.902 14.1984 411.202 12.3984 409.002 12.3984C406.902 12.3984 405.102 14.0984 405.102 16.2984C405.102 18.4984 406.802 20.1984 409.002 20.1984C411.202 20.1984 412.902 18.4984 412.902 16.2984Z" fill="#C8CFE6"/>
<path opacity="0.4" d="M717.002 132.297C716.502 133.997 715.502 135.597 714.302 136.897C714.102 137.097 713.802 137.097 713.602 136.997L711.502 135.797C710.602 136.497 709.602 137.097 708.502 137.497V139.897C708.502 140.197 708.302 140.397 708.002 140.397C706.302 140.797 704.502 140.797 702.702 140.397C702.402 140.297 702.202 140.097 702.202 139.897V137.497C701.102 137.097 700.102 136.597 699.202 135.797L697.102 136.997C696.902 137.097 696.602 137.097 696.402 136.897C695.202 135.597 694.302 133.997 693.702 132.297C693.602 131.997 693.702 131.797 694.002 131.597L696.102 130.397C695.902 129.297 695.902 128.097 696.102 126.997L694.002 125.797C693.802 125.697 693.702 125.397 693.702 125.097C694.202 123.397 695.202 121.797 696.402 120.497C696.602 120.297 696.902 120.297 697.102 120.397L699.202 121.597C700.102 120.897 701.102 120.297 702.202 119.897V117.597C702.202 117.297 702.402 117.097 702.702 117.097C704.402 116.697 706.202 116.697 708.002 117.097C708.302 117.197 708.502 117.397 708.502 117.597V119.997C709.602 120.397 710.602 120.897 711.502 121.697L713.602 120.497C713.802 120.397 714.102 120.397 714.302 120.597C715.502 121.897 716.402 123.497 717.002 125.197C717.102 125.497 717.002 125.697 716.702 125.897L714.602 127.097C714.802 128.197 714.802 129.397 714.602 130.497L716.702 131.697C716.902 131.797 717.002 132.097 717.002 132.297ZM709.302 128.797C709.302 126.697 707.602 124.897 705.402 124.897C703.202 124.897 701.502 126.597 701.502 128.797C701.502 130.897 703.202 132.697 705.402 132.697C707.602 132.697 709.302 130.897 709.302 128.797Z" fill="#E22D4E"/>
<path opacity="0.4" d="M941.097 97.6961C939.997 101.096 938.197 104.196 935.897 106.796C935.497 107.196 934.897 107.296 934.497 106.996L930.397 104.696C928.697 106.196 926.697 107.296 924.597 107.996V112.696C924.597 113.196 924.197 113.696 923.697 113.796C920.397 114.596 916.797 114.596 913.297 113.796C912.797 113.696 912.397 113.196 912.397 112.696V107.996C910.297 107.196 908.297 106.096 906.597 104.696L902.497 106.996C901.997 107.296 901.397 107.196 901.097 106.796C898.697 104.196 896.897 101.196 895.897 97.6961C895.697 97.1961 895.997 96.5961 896.397 96.2961L900.497 93.9961C899.997 91.6961 899.997 89.5961 900.497 87.2961L896.397 84.9961C895.897 84.6961 895.697 84.1961 895.897 83.5961C896.997 80.1961 898.797 77.0961 901.097 74.4961C901.497 74.0961 902.097 73.9961 902.497 74.2961L906.597 76.5961C908.297 75.0961 910.297 73.9961 912.397 73.2961V68.6961C912.397 68.1961 912.797 67.6961 913.297 67.5961C916.597 66.7961 920.197 66.7961 923.697 67.5961C924.197 67.6961 924.597 68.1961 924.597 68.6961V73.3961C926.697 74.1961 928.697 75.2961 930.397 76.6961L934.497 74.3961C934.997 74.0961 935.597 74.1961 935.897 74.5961C938.297 77.1961 940.097 80.1961 941.097 83.6961C941.297 84.1961 940.997 84.7961 940.597 85.0961L936.497 87.3961C936.997 89.6961 936.997 91.7961 936.497 94.0961L940.597 96.3961C940.997 96.6961 941.197 97.1961 941.097 97.6961ZM926.197 90.7961C926.197 86.5961 922.797 83.1961 918.597 83.1961C914.397 83.1961 910.997 86.5961 910.997 90.7961C910.997 94.9961 914.397 98.3961 918.597 98.3961C922.697 98.2961 926.197 94.8961 926.197 90.7961Z" fill="#C8CFE6"/>
<path opacity="0.4" d="M1009 251.997C1007.9 255.397 1006.1 258.497 1003.8 261.097C1003.4 261.497 1002.8 261.597 1002.4 261.297L998.303 258.997C996.603 260.497 994.603 261.597 992.503 262.297V266.997C992.503 267.497 992.103 267.997 991.603 268.097C988.303 268.897 984.703 268.897 981.203 268.097C980.703 267.997 980.303 267.497 980.303 266.997V262.297C978.203 261.497 976.203 260.397 974.503 258.997L970.403 261.297C969.903 261.597 969.303 261.497 969.003 261.097C966.603 258.497 964.803 255.497 963.803 251.997C963.603 251.497 963.903 250.897 964.303 250.597L968.403 248.297C967.903 245.997 967.903 243.897 968.403 241.597L964.303 239.297C963.803 238.997 963.603 238.497 963.803 237.897C964.903 234.497 966.703 231.397 969.003 228.797C969.403 228.397 970.003 228.297 970.403 228.597L974.503 230.897C976.203 229.397 978.203 228.297 980.303 227.597V222.997C980.303 222.497 980.703 221.997 981.203 221.897C984.503 221.097 988.103 221.097 991.603 221.897C992.103 221.997 992.503 222.497 992.503 222.997V227.697C994.603 228.497 996.603 229.597 998.303 230.997L1002.4 228.697C1002.9 228.397 1003.5 228.497 1003.8 228.897C1006.2 231.497 1008 234.497 1009 237.997C1009.2 238.497 1008.9 239.097 1008.5 239.397L1004.4 241.697C1004.9 243.997 1004.9 246.097 1004.4 248.397L1008.5 250.697C1008.9 250.897 1009.1 251.497 1009 251.997ZM994.103 244.997C994.103 240.797 990.703 237.397 986.503 237.397C982.303 237.397 978.903 240.797 978.903 244.997C978.903 249.197 982.303 252.597 986.503 252.597C990.703 252.597 994.103 249.097 994.103 244.997Z" fill="#FFA834"/>
<path opacity="0.4" d="M1787.9 218.298C1786.8 221.698 1785 224.798 1782.7 227.398C1782.3 227.798 1781.7 227.898 1781.3 227.598L1777.2 225.298C1775.5 226.798 1773.5 227.898 1771.4 228.598V233.298C1771.4 233.798 1771 234.298 1770.5 234.398C1767.2 235.198 1763.6 235.198 1760.1 234.398C1759.6 234.298 1759.2 233.798 1759.2 233.298V228.598C1757.1 227.798 1755.1 226.698 1753.4 225.298L1749.3 227.598C1748.8 227.898 1748.2 227.798 1747.9 227.398C1745.5 224.798 1743.7 221.798 1742.7 218.298C1742.5 217.798 1742.8 217.198 1743.2 216.898L1747.3 214.598C1746.8 212.298 1746.8 210.198 1747.3 207.898L1743.2 205.598C1742.7 205.298 1742.5 204.798 1742.7 204.198C1743.8 200.798 1745.6 197.698 1747.9 195.098C1748.3 194.698 1748.9 194.598 1749.3 194.898L1753.4 197.198C1755.1 195.698 1757.1 194.598 1759.2 193.898V189.298C1759.2 188.798 1759.6 188.298 1760.1 188.198C1763.4 187.398 1767 187.398 1770.5 188.198C1771 188.298 1771.4 188.798 1771.4 189.298V193.998C1773.5 194.798 1775.5 195.898 1777.2 197.298L1781.3 194.998C1781.8 194.698 1782.4 194.798 1782.7 195.198C1785.1 197.798 1786.9 200.798 1787.9 204.298C1788.1 204.798 1787.8 205.398 1787.4 205.698L1783.3 207.998C1783.8 210.298 1783.8 212.398 1783.3 214.698L1787.4 216.998C1787.7 217.298 1788 217.798 1787.9 218.298ZM1772.9 211.298C1772.9 207.098 1769.5 203.698 1765.3 203.698C1761.1 203.698 1757.7 207.098 1757.7 211.298C1757.7 215.498 1761.1 218.898 1765.3 218.898C1769.5 218.898 1772.9 215.498 1772.9 211.298Z" fill="#FFA834"/>
<path opacity="0.4" d="M1164 382.798C1163.5 384.298 1162.7 385.698 1161.7 386.898C1161.5 387.098 1161.3 387.098 1161.1 386.998L1159.3 385.998C1158.5 386.698 1157.7 387.198 1156.7 387.498V389.598C1156.7 389.798 1156.5 390.098 1156.3 390.098C1154.8 390.498 1153.2 390.498 1151.6 390.098C1151.4 389.998 1151.2 389.798 1151.2 389.598V387.298C1150.2 386.898 1149.4 386.498 1148.6 385.798L1146.8 386.798C1146.6 386.898 1146.3 386.898 1146.2 386.698C1145.1 385.498 1144.3 384.198 1143.9 382.598C1143.8 382.398 1143.9 382.098 1144.1 381.998L1145.9 380.998C1145.7 379.998 1145.7 378.998 1145.9 377.998L1144.1 376.998C1143.9 376.898 1143.8 376.598 1143.9 376.398C1144.4 374.898 1145.2 373.498 1146.2 372.298C1146.4 372.098 1146.6 372.098 1146.8 372.198L1148.6 373.198C1149.4 372.498 1150.2 371.998 1151.2 371.698V369.698C1151.2 369.498 1151.4 369.198 1151.6 369.198C1153.1 368.798 1154.7 368.798 1156.3 369.198C1156.5 369.298 1156.7 369.498 1156.7 369.698V371.798C1157.7 372.198 1158.5 372.598 1159.3 373.298L1161.1 372.298C1161.3 372.198 1161.6 372.198 1161.7 372.398C1162.8 373.598 1163.6 374.898 1164 376.498C1164.1 376.698 1164 376.998 1163.8 377.098L1162 378.098C1162.2 379.098 1162.2 380.098 1162 381.098L1163.8 382.098C1164 382.298 1164.1 382.498 1164 382.798ZM1157.3 379.598C1157.3 377.698 1155.8 376.198 1153.9 376.198C1152 376.198 1150.5 377.698 1150.5 379.598C1150.5 381.498 1152 382.998 1153.9 382.998C1155.8 382.998 1157.3 381.498 1157.3 379.598Z" fill="#514FC3"/>
<path opacity="0.4" d="M1394.8 289.798C1394.3 291.298 1393.5 292.698 1392.5 293.898C1392.3 294.098 1392.1 294.098 1391.9 293.998L1390.1 292.998C1389.3 293.698 1388.5 294.198 1387.5 294.498V296.598C1387.5 296.798 1387.3 297.098 1387.1 297.098C1385.6 297.498 1384 297.498 1382.4 297.098C1382.2 296.998 1382 296.798 1382 296.598V294.298C1381 293.898 1380.2 293.498 1379.4 292.798L1377.6 293.798C1377.4 293.898 1377.1 293.898 1377 293.698C1375.9 292.498 1375.1 291.198 1374.7 289.598C1374.6 289.398 1374.7 289.098 1374.9 288.998L1376.7 287.998C1376.5 286.998 1376.5 285.998 1376.7 284.998L1374.9 283.998C1374.7 283.898 1374.6 283.598 1374.7 283.398C1375.2 281.898 1376 280.498 1377 279.298C1377.2 279.098 1377.4 279.098 1377.6 279.198L1379.4 280.198C1380.2 279.498 1381 278.998 1382 278.698V276.698C1382 276.498 1382.2 276.198 1382.4 276.198C1383.9 275.798 1385.5 275.798 1387.1 276.198C1387.3 276.298 1387.5 276.498 1387.5 276.698V278.798C1388.5 279.198 1389.3 279.598 1390.1 280.298L1391.9 279.298C1392.1 279.198 1392.4 279.198 1392.5 279.398C1393.6 280.598 1394.4 281.898 1394.8 283.498C1394.9 283.698 1394.8 283.998 1394.6 284.098L1392.8 285.098C1393 286.098 1393 287.098 1392.8 288.098L1394.6 289.098C1394.7 289.298 1394.8 289.498 1394.8 289.798ZM1388 286.598C1388 284.698 1386.5 283.198 1384.6 283.198C1382.7 283.198 1381.2 284.698 1381.2 286.598C1381.2 288.498 1382.7 289.998 1384.6 289.998C1386.5 289.998 1388 288.498 1388 286.598Z" fill="#514FC3"/>
<path d="M1839.6 73.7984C1839.1 75.2984 1838.3 76.6984 1837.3 77.8984C1837.1 78.0984 1836.9 78.0984 1836.7 77.9984L1834.9 76.9984C1834.1 77.6984 1833.3 78.1984 1832.3 78.4984V80.5984C1832.3 80.7984 1832.1 81.0984 1831.9 81.0984C1830.4 81.4984 1828.8 81.4984 1827.2 81.0984C1827 80.9984 1826.8 80.7984 1826.8 80.5984V78.2984C1825.8 77.8984 1825 77.4984 1824.2 76.7984L1822.4 77.7984C1822.2 77.8984 1821.9 77.8984 1821.8 77.6984C1820.7 76.4984 1819.9 75.1984 1819.5 73.5984C1819.4 73.3984 1819.5 73.0984 1819.7 72.9984L1821.5 71.9984C1821.3 70.9984 1821.3 69.9984 1821.5 68.9984L1819.7 67.9984C1819.5 67.8984 1819.4 67.5984 1819.5 67.3984C1820 65.8984 1820.8 64.4984 1821.8 63.2984C1822 63.0984 1822.2 63.0984 1822.4 63.1984L1824.2 64.1984C1825 63.4984 1825.8 62.9984 1826.8 62.6984V60.6984C1826.8 60.4984 1827 60.1984 1827.2 60.1984C1828.7 59.7984 1830.3 59.7984 1831.9 60.1984C1832.1 60.2984 1832.3 60.4984 1832.3 60.6984V62.7984C1833.3 63.1984 1834.1 63.5984 1834.9 64.2984L1836.7 63.2984C1836.9 63.1984 1837.2 63.1984 1837.3 63.3984C1838.4 64.5984 1839.2 65.8984 1839.6 67.4984C1839.7 67.6984 1839.6 67.9984 1839.4 68.0984L1837.6 69.0984C1837.8 70.0984 1837.8 71.0984 1837.6 72.0984L1839.4 73.0984C1839.6 73.2984 1839.7 73.4984 1839.6 73.7984ZM1832.9 70.5984C1832.9 68.6984 1831.4 67.1984 1829.5 67.1984C1827.6 67.1984 1826.1 68.6984 1826.1 70.5984C1826.1 72.4984 1827.6 73.9984 1829.5 73.9984C1831.4 73.9984 1832.9 72.4984 1832.9 70.5984Z" fill="#514FC3" fill-opacity="0.4"/>
<path opacity="0.4" d="M738.903 13.9984L739.403 14.9984C739.503 15.2984 739.803 15.4984 740.203 15.4984L741.303 15.6984C742.103 15.7984 742.403 16.7984 741.903 17.3984L741.103 18.1984C740.903 18.3984 740.803 18.7984 740.803 19.0984L741.003 20.1984C741.103 20.9984 740.303 21.5984 739.503 21.2984L738.503 20.7984C738.203 20.5984 737.903 20.5984 737.603 20.7984L736.603 21.2984C735.903 21.6984 735.003 21.0984 735.103 20.1984L735.303 19.0984C735.403 18.7984 735.203 18.3984 735.003 18.1984L734.203 17.3984C733.603 16.7984 733.903 15.7984 734.803 15.6984L735.903 15.4984C736.203 15.4984 736.503 15.1984 736.703 14.9984L737.203 13.9984C737.503 13.1984 738.503 13.1984 738.903 13.9984Z" fill="#514FC3"/>
<path opacity="0.4" d="M48.3999 56.398L49.2999 58.098C49.5999 58.598 49.9999 58.998 50.5999 59.098L52.4999 59.398C53.8999 59.598 54.4999 61.398 53.4999 62.398L52.0999 63.798C51.6999 64.198 51.4999 64.798 51.5999 65.298L51.8999 67.198C52.0999 68.598 50.6999 69.698 49.3999 68.998L47.6999 68.098C47.1999 67.798 46.5999 67.798 46.0999 68.098L44.3999 68.998C43.0999 69.698 41.5999 68.598 41.8999 67.198L42.1999 65.298C42.2999 64.698 42.0999 64.198 41.6999 63.798L40.1999 62.298C39.1999 61.298 39.6999 59.498 41.1999 59.298L43.0999 58.998C43.6999 58.898 44.1999 58.598 44.3999 57.998L45.2999 56.298C45.8999 55.098 47.7999 55.098 48.3999 56.398Z" fill="#FFA834"/>
<path opacity="0.4" d="M207.403 97.4953L208.003 98.6953C208.203 98.9953 208.503 99.2953 208.903 99.2953L210.203 99.4953C211.203 99.5953 211.503 100.795 210.803 101.495L209.903 102.395C209.603 102.695 209.503 103.095 209.603 103.395L209.803 104.695C210.003 105.695 209.003 106.395 208.103 105.895L206.903 105.295C206.603 105.095 206.203 105.095 205.803 105.295L204.603 105.895C203.703 106.295 202.703 105.595 202.903 104.695L203.103 103.395C203.203 102.995 203.003 102.595 202.803 102.395L201.903 101.495C201.203 100.795 201.603 99.6953 202.503 99.4953L203.803 99.2953C204.203 99.1953 204.503 98.9953 204.703 98.6953L205.303 97.4953C205.703 96.5953 207.003 96.5953 207.403 97.4953Z" fill="#FFA834"/>
<path opacity="0.4" d="M530.997 289.798L531.497 290.798C531.597 291.098 531.897 291.298 532.297 291.298L533.397 291.498C534.197 291.598 534.497 292.598 533.997 293.198L533.197 293.998C532.997 294.198 532.897 294.598 532.897 294.898L533.097 295.998C533.197 296.798 532.397 297.398 531.597 297.098L530.597 296.598C530.297 296.398 529.997 296.398 529.697 296.598L528.697 297.098C527.997 297.498 527.097 296.898 527.197 295.998L527.397 294.898C527.497 294.598 527.297 294.198 527.097 293.998L526.297 293.198C525.697 292.598 525.997 291.598 526.897 291.498L527.997 291.298C528.297 291.298 528.597 290.998 528.797 290.798L529.297 289.798C529.597 289.098 530.697 289.098 530.997 289.798Z" fill="#514FC3"/>
<path opacity="0.4" d="M710.402 335.795L711.302 337.495C711.602 337.995 712.001 338.395 712.601 338.395L714.502 338.695C715.902 338.895 716.502 340.595 715.502 341.595L714.101 342.895C713.701 343.295 713.501 343.895 713.601 344.395L713.902 346.295C714.102 347.695 712.702 348.795 711.402 348.095L709.702 347.195C709.202 346.895 708.601 346.895 708.101 347.195L706.402 348.095C705.102 348.795 703.702 347.695 703.902 346.295L704.202 344.395C704.302 343.795 704.102 343.295 703.702 342.895L702.302 341.595C701.302 340.595 701.802 338.895 703.302 338.695L705.202 338.395C705.802 338.295 706.202 337.995 706.502 337.495L707.402 335.795C708.002 334.495 709.802 334.495 710.402 335.795Z" fill="#C8CFE6"/>
<path opacity="0.4" d="M835.2 351.895L835.6 352.595C835.7 352.795 835.9 352.995 836.2 352.995L837 353.095C837.6 353.195 837.9 353.895 837.4 354.395L836.8 354.995C836.6 355.195 836.5 355.395 836.6 355.695L836.7 356.495C836.8 357.095 836.2 357.595 835.6 357.295L834.9 356.895C834.7 356.795 834.4 356.795 834.2 356.895L833.5 357.295C833 357.595 832.3 357.095 832.4 356.495L832.5 355.695C832.5 355.495 832.5 355.195 832.3 354.995L831.7 354.395C831.3 353.995 831.5 353.195 832.1 353.095L832.9 352.995C833.1 352.995 833.4 352.795 833.5 352.595L833.9 351.895C834.1 351.295 834.9 351.295 835.2 351.895Z" fill="#C8CFE6"/>
<path opacity="0.4" d="M22.9981 383.998L23.4981 384.998C23.5981 385.298 23.8981 385.498 24.1981 385.498L25.2981 385.698C26.0981 385.798 26.3981 386.798 25.8981 387.398L25.0981 388.198C24.8981 388.398 24.7981 388.798 24.7981 389.098L24.9981 390.198C25.0981 390.998 24.2981 391.598 23.5981 391.198L22.5981 390.698C22.2981 390.498 21.9981 390.498 21.6981 390.698L20.6981 391.198C19.9981 391.598 19.0981 390.998 19.2981 390.198L19.4981 389.098C19.5981 388.798 19.3981 388.398 19.1981 388.198L18.3981 387.398C17.7981 386.798 18.0981 385.798 18.9981 385.698L20.0981 385.498C20.3981 385.498 20.6981 385.298 20.7981 384.998L21.2981 383.998C21.4981 383.198 22.5981 383.198 22.9981 383.998Z" fill="#C8CFE6"/>
<path opacity="0.4" d="M1407.4 154.195L1409 157.495C1409.5 158.495 1410.4 159.095 1411.5 159.295L1415.1 159.795C1417.8 160.195 1418.9 163.495 1416.9 165.395L1414.3 167.995C1413.5 168.795 1413.2 169.795 1413.4 170.895L1414 174.495C1414.5 177.195 1411.7 179.195 1409.3 177.895L1406.1 176.195C1405.1 175.695 1404 175.695 1403.1 176.195L1399.9 177.895C1397.5 179.195 1394.7 177.095 1395.2 174.495L1395.8 170.895C1396 169.795 1395.6 168.795 1394.9 167.995L1392.3 165.395C1390.4 163.495 1391.4 160.195 1394.1 159.795L1397.7 159.295C1398.8 159.095 1399.7 158.495 1400.2 157.495L1401.8 154.195C1402.8 151.695 1406.2 151.695 1407.4 154.195Z" fill="#0093E5"/>
<path opacity="0.4" d="M1159.5 167.998L1160.3 169.598C1160.5 170.098 1161 170.398 1161.5 170.498L1163.3 170.798C1164.6 170.998 1165.2 172.598 1164.2 173.598L1162.9 174.898C1162.5 175.298 1162.3 175.798 1162.4 176.298L1162.7 178.098C1162.9 179.398 1161.5 180.498 1160.3 179.798L1158.7 178.898C1158.2 178.598 1157.7 178.598 1157.2 178.898L1155.6 179.798C1154.4 180.398 1153 179.398 1153.2 178.098L1153.5 176.298C1153.6 175.798 1153.4 175.198 1153 174.898L1151.7 173.598C1150.7 172.698 1151.3 170.998 1152.6 170.798L1154.4 170.498C1154.9 170.398 1155.4 170.098 1155.6 169.598L1156.4 167.998C1157.2 166.798 1158.9 166.798 1159.5 167.998Z" fill="#0093E5"/>
<path opacity="0.4" d="M1687.4 14.0969L1689 17.3969C1689.5 18.3969 1690.4 18.9969 1691.5 19.1969L1695.1 19.6969C1697.8 20.0969 1698.9 23.3969 1696.9 25.2969L1694.3 27.8969C1693.5 28.6969 1693.2 29.6969 1693.4 30.7969L1694 34.3969C1694.5 37.0969 1691.7 39.0969 1689.3 37.7969L1686.1 36.0969C1685.1 35.5969 1684 35.5969 1683.1 36.0969L1679.9 37.7969C1677.5 39.0969 1674.7 36.9969 1675.2 34.3969L1675.8 30.7969C1676 29.6969 1675.6 28.6969 1674.9 27.8969L1672 25.2969C1670.1 23.3969 1671.1 20.0969 1673.8 19.6969L1677.4 19.1969C1678.5 18.9969 1679.4 18.3969 1679.9 17.3969L1681.5 14.0969C1682.7 11.6969 1686.2 11.6969 1687.4 14.0969Z" fill="#0093E5"/>
<path opacity="0.4" d="M1593.8 204.696L1594.5 206.196C1594.7 206.596 1595.1 206.896 1595.6 206.996L1597.2 207.196C1598.4 207.396 1598.9 208.796 1598 209.696L1596.8 210.796C1596.5 211.096 1596.3 211.596 1596.4 212.096L1596.7 213.696C1596.9 214.896 1595.7 215.796 1594.6 215.196L1593.2 214.396C1592.8 214.196 1592.3 214.196 1591.8 214.396L1590.4 215.196C1589.3 215.796 1588.1 214.896 1588.3 213.696L1588.6 212.096C1588.7 211.596 1588.5 211.096 1588.2 210.796L1587 209.696C1586.1 208.896 1586.6 207.396 1587.8 207.196L1589.4 206.996C1589.9 206.896 1590.3 206.596 1590.5 206.196L1591.2 204.696C1591.7 203.596 1593.3 203.596 1593.8 204.696Z" fill="#C8CFE6"/>
<path opacity="0.4" d="M1819.4 324.798L1820.1 326.298C1820.3 326.698 1820.7 326.998 1821.2 327.098L1822.8 327.298C1824 327.498 1824.5 328.898 1823.6 329.798L1822.4 330.898C1822.1 331.198 1821.9 331.698 1822 332.198L1822.3 333.798C1822.5 334.998 1821.3 335.898 1820.2 335.298L1818.8 334.498C1818.4 334.298 1817.9 334.298 1817.4 334.498L1816 335.298C1814.9 335.898 1813.7 334.998 1813.9 333.798L1814.2 332.198C1814.3 331.698 1814.1 331.198 1813.8 330.898L1812.6 329.798C1811.7 328.998 1812.2 327.498 1813.4 327.298L1815 327.098C1815.5 326.998 1815.9 326.698 1816.1 326.298L1816.8 324.798C1817.3 323.698 1818.8 323.698 1819.4 324.798Z" fill="#C8CFE6"/>
<path opacity="0.4" d="M1486.7 12.7977L1487.1 13.4977C1487.2 13.6977 1487.4 13.8977 1487.6 13.8977L1488.4 13.9977C1489 14.0977 1489.2 14.7977 1488.8 15.1977L1488.2 15.7977C1488 15.9977 1488 16.1977 1488 16.3977L1488.1 17.1977C1488.2 17.7977 1487.6 18.1977 1487 17.9977L1486.3 17.5977C1486.1 17.4977 1485.8 17.4977 1485.6 17.5977L1484.9 17.9977C1484.4 18.2977 1483.7 17.7977 1483.8 17.1977L1483.9 16.3977C1483.9 16.1977 1483.9 15.8977 1483.7 15.7977L1483.1 15.1977C1482.7 14.7977 1482.9 13.9977 1483.5 13.9977L1484.3 13.8977C1484.5 13.8977 1484.7 13.6977 1484.8 13.4977L1485.2 12.7977C1485.7 12.1977 1486.4 12.1977 1486.7 12.7977Z" fill="#C8CFE6"/>
<path opacity="0.4" d="M1327.1 52.3961L1327.6 53.3961C1327.7 53.6961 1328 53.8961 1328.3 53.8961L1329.4 54.0961C1330.2 54.1961 1330.5 55.1961 1329.9 55.6961L1329.1 56.4961C1328.9 56.6961 1328.8 56.9961 1328.8 57.3961L1329 58.4961C1329.1 59.2961 1328.3 59.8961 1327.6 59.4961L1326.6 58.9961C1326.3 58.8961 1326 58.8961 1325.7 58.9961L1324.7 59.4961C1324 59.8961 1323.2 59.2961 1323.3 58.4961L1323.5 57.3961C1323.6 57.0961 1323.4 56.7961 1323.2 56.4961L1322.4 55.6961C1321.8 55.0961 1322.1 54.1961 1322.9 54.0961L1324 53.8961C1324.3 53.8961 1324.6 53.6961 1324.7 53.3961L1325.2 52.3961C1325.7 51.6961 1326.8 51.6961 1327.1 52.3961Z" fill="#FFA834"/>
<path opacity="0.4" d="M1182.7 1.79844L1183.2 2.79844C1183.3 3.09844 1183.6 3.29844 1183.9 3.29844L1185 3.49844C1185.8 3.59844 1186.1 4.59844 1185.5 5.09844L1184.7 5.89844C1184.5 6.09844 1184.4 6.39844 1184.4 6.79844L1184.6 7.89844C1184.7 8.69844 1183.9 9.29844 1183.2 8.89844L1182.2 8.39844C1181.9 8.29844 1181.6 8.29844 1181.3 8.39844L1180.3 8.89844C1179.6 9.29844 1178.8 8.69844 1178.9 7.89844L1179.1 6.79844C1179.2 6.49844 1179 6.19844 1178.8 5.89844L1178 5.09844C1177.4 4.49844 1177.7 3.59844 1178.5 3.49844L1179.6 3.29844C1179.9 3.29844 1180.2 3.09844 1180.3 2.79844L1180.8 1.79844C1181.3 1.09844 1182.4 1.09844 1182.7 1.79844Z" fill="#E22D4E"/>
<path opacity="0.4" d="M1621.4 368.096L1622.3 369.896C1622.6 370.396 1623.1 370.796 1623.6 370.896L1625.6 371.196C1627.1 371.396 1627.6 373.196 1626.6 374.196L1625.2 375.596C1624.8 375.996 1624.6 376.596 1624.7 377.196L1625 379.196C1625.2 380.696 1623.7 381.796 1622.4 381.096L1620.6 380.196C1620.1 379.896 1619.5 379.896 1618.9 380.196L1617.1 381.096C1615.8 381.796 1614.3 380.696 1614.5 379.196L1614.8 377.196C1614.9 376.596 1614.7 375.996 1614.3 375.596L1612.9 374.196C1611.8 373.196 1612.4 371.396 1613.9 371.196L1615.9 370.896C1616.5 370.796 1617 370.496 1617.2 369.896L1618.1 368.096C1618.8 366.796 1620.7 366.796 1621.4 368.096Z" fill="#E22D4E"/>
</svg>
