<svg width="41" height="41" viewBox="0 0 41 41" fill="none" xmlns="http://www.w3.org/2000/svg">
<path d="M38 2.98154V14.5574C39.4063 15.2614 40.5 17.1385 40.5 19.2503C40.5 21.4404 39.4063 23.3175 38 24.0215V35.5191C38 36.5359 37.375 37.4745 36.4375 37.8656C35.5 38.2567 34.4063 38.022 33.7031 37.3181L30.2656 33.8766C26.5156 30.1223 21.4375 28.0104 16.125 28.0104H15.5V38.022C15.5 39.4299 14.3281 40.5249 13 40.5249H8C6.59375 40.5249 5.5 39.4299 5.5 38.022V28.0104C2.6875 28.0104 0.5 25.8204 0.5 23.0047V15.496C0.5 12.7585 2.6875 10.4902 5.5 10.4902H13H15.5H16.125C21.4375 10.4902 26.5156 8.3784 30.2656 4.62406L33.7031 1.2608C34.4063 0.556867 35.5 0.322221 36.4375 0.713297C37.375 1.10437 38 2.04296 38 2.98154ZM33 9.00412C28.3906 13.2278 22.375 15.496 16.125 15.496H15.5V23.0047H16.125C22.375 23.0047 28.3906 25.3511 33 29.5748V19.2503V9.00412Z" fill="#514FC3"/>
</svg>
