<svg id="圖層_1" data-name="圖層 1" xmlns="http://www.w3.org/2000/svg" width="610.79" height="617.23" viewBox="0 0 610.79 617.23">
  <defs>
    <style>
      .cls-1 {
        fill: #f6e45c;
      }

      .cls-2 {
        fill: #42ba92;
      }

      .cls-11, .cls-3, .cls-4, .cls-5 {
        fill: none;
        stroke: #4d4d4d;
        stroke-miterlimit: 10;
      }

      .cls-3 {
        stroke-width: 1.01px;
      }

      .cls-5 {
        stroke-dasharray: 2.97 4.94;
      }

      .cls-6 {
        fill: #44b3c1;
      }

      .cls-7 {
        fill: #4e6dae;
      }

      .cls-8 {
        fill: #465f97;
      }

      .cls-9 {
        fill: #fff;
      }

      .cls-10 {
        fill: #6161bc;
      }

      .cls-11 {
        stroke-dasharray: 3 5;
      }
    </style>
  </defs>
  <g>
    <g>
      <g>
        <path d="M481.88,435.12h-5.15V434h5.15Zm1.42,9.29a24.39,24.39,0,0,1-5.49,2.19,8.48,8.48,0,0,0-1-1,21.52,21.52,0,0,0,5.28-1.73Zm-1.87-12.12h-4.3v-1h4.3Zm-2.34,4.23h11.65v7.22H479.09Zm1.3,2.13h9v-1.23h-9Zm0,2.09h9v-1.23h-9Zm0,2.12h9V441.6h-9Zm4.32-10.42a9.5,9.5,0,0,1-1.35,1.8,6.19,6.19,0,0,0-1-.69,7.77,7.77,0,0,0,2.07-3.42l1.2.27c-.1.34-.25.67-.37,1h6l.21-.05.9.3a17.18,17.18,0,0,1-1.51,2.6l-1.06-.38a11.33,11.33,0,0,0,.85-1.42H487.8v.23a3.13,3.13,0,0,1-.05.59c.95,1.08,2.92,1.79,5.27,2a5,5,0,0,0-.75,1.07,8.7,8.7,0,0,1-4.9-2.11c-.59.88-2,1.71-5.18,2.2a4.49,4.49,0,0,0-.72-1c4.66-.63,5.09-1.86,5.09-2.8v-.17Zm2.7,11.41a48.11,48.11,0,0,1,5.29,1.95l-1.17.77a42.87,42.87,0,0,0-5-2Z"/>
        <path d="M483.18,452.33h-6.47v-1.1h6.47Zm-.67,11.19h-4v.85h-1.08v-6.05h5.1Zm-5.08-8.87v-1.06h5.06v1.06Zm0,1.28h5.1V457h-5.1Zm1.06,3.51v3h2.92v-3Zm1.39-8.41a18.09,18.09,0,0,0-1.26-2.4l1-.54a16,16,0,0,1,1.29,2.33Zm11.31-1.84c-.11,7.28-.15,13.52.86,13.78a8,8,0,0,0,.31-2.42,5.77,5.77,0,0,0,.77,1c-.2,2.52-.77,3.09-1.6,2.75-1.76-.54-1.71-6.43-1.69-13.81h-3v5.31h2.38V457h-2.38v7.58h-1.26V457h-2.43v-1.24h2.43v-5.31h-2.23v-1.28Z"/>
        <path d="M492.85,479.9v1.34H476.78V479.9H484V469.57h-6.3V468.2h14.22v1.37h-6.46V479.9Z"/>
        <path d="M483.25,497.72a16.8,16.8,0,0,1-5.53,2.33,4.67,4.67,0,0,0-.81-1,16.36,16.36,0,0,0,5.33-1.78Zm9.4-2.5v1.14h-7.22v4.26h-1.32v-4.26H477v-1.14h7.11v-1.35h-5.42v-1h5.42v-1.3h-6.34v-1.08h3.89a7.81,7.81,0,0,0-.91-1.73l.95-.25h-4.65v-1.12H480a14.07,14.07,0,0,0-1.44-2.61l1.14-.4a11,11,0,0,1,1.53,2.65l-.9.36h2.19v-3.19h1.26v3.19h2.15v-3.19h1.28v3.19h2.17l-.72-.23A15,15,0,0,0,490,484.4l1.37.38c-.51.92-1.1,1.91-1.57,2.59h2.78v1.12h-4.69l1.17.32a17.48,17.48,0,0,1-1.24,1.66h4.12v1.08h-6.51v1.3h5.63v1h-5.63v1.35ZM482,488.49a7.3,7.3,0,0,1,1,1.78l-.74.2h5l-.63-.2a13.68,13.68,0,0,0,1.06-1.78Zm5.35,8.68c1.69.55,4,1.42,5.22,2l-.83.85c-1.19-.57-3.47-1.49-5.18-2.12Z"/>
        <path d="M485.59,512.81a15.05,15.05,0,0,0,7.54,4,6.55,6.55,0,0,0-.84,1.17,16.2,16.2,0,0,1-6.7-3.68v4.32h-1.41v-4.35a15.83,15.83,0,0,1-6.71,3.78,4.1,4.1,0,0,0-.85-1.12,14.19,14.19,0,0,0,7.56-4.25v-1.55h-4.43v3.46h-1.38v-4.63h5.81v-1.38h-7.11v-1.19h7.11v-1.12h1.41v1.12h6.86v1.19h-6.86v1.38h5.83v3.32c0,.65-.12.92-.59,1.11a6.87,6.87,0,0,1-2.18.18,4.69,4.69,0,0,0-.45-1.06c.72,0,1.42,0,1.62,0s.27-.07.27-.25v-2.15h-4.5Zm-6.12-8.29a12,12,0,0,1-1.86,2.35,7.93,7.93,0,0,0-.93-.89,11.27,11.27,0,0,0,2.71-3.92l1.18.32c-.15.36-.31.7-.49,1.06h4.61v1.08h-3.4a13.72,13.72,0,0,1,1.62,1.63l-.89.75a11.07,11.07,0,0,0-1.72-1.85l.7-.53Zm7.42,0a10.79,10.79,0,0,1-1.41,1.68,7.15,7.15,0,0,0-1-.79,8,8,0,0,0,2.23-3.35l1.23.29a11.5,11.5,0,0,1-.47,1.11h5.44v1.06h-3.87a15.4,15.4,0,0,1,1.78,1.63l-.88.77a15.3,15.3,0,0,0-1.86-1.77l.78-.63Z"/>
        <path d="M481,528.77a22.81,22.81,0,0,1-1.48,4.65c.35.2.78.54,1.44.93,1.28.78,2.9.9,5,.9,2.31,0,5.23-.18,7.24-.37a4.87,4.87,0,0,0-.41,1.38c-1.33.09-4.75.2-6.88.2-2.38,0-3.94-.2-5.27-1-.73-.43-1.39-1-1.81-1s-1,1.13-1.53,2.26l-.91-1.2a8.12,8.12,0,0,1,1.8-2,16.29,16.29,0,0,0,1.29-3.74h-2.36a40.11,40.11,0,0,0,1.55-4h-2v-1.21h3.7c-.46,1.3-1,2.81-1.5,4.05h1.24l.24-.05Zm-2.43-5.18c-.22-.79-.63-2-.92-3l1.17-.36c.32.94.74,2.13.95,2.9Zm4.14,2a15.39,15.39,0,0,1-1.33,1.51,9.19,9.19,0,0,0-.83-1.15,14.19,14.19,0,0,0,3.73-5.78l1.22.34a19,19,0,0,1-1.17,2.6h3.58a20.55,20.55,0,0,0-1.08-2.22l1.23-.36a14.59,14.59,0,0,1,1.31,2.58h3.15v1.17h-3.87v1.74h3.28v1.14h-3.28V529h3.24v1.13h-3.24V532h4.18v1.15H484v1h-1.3Zm4.66-1.31H484v1.74h3.36Zm0,2.88H484V529h3.36Zm0,2.91H484V532h3.36Z"/>
        <path d="M485.86,538.54a3.79,3.79,0,0,0-.25.35,17.62,17.62,0,0,0,7.6,3.74,5,5,0,0,0-.85,1,21.87,21.87,0,0,1-4.41-1.8v.56h-6.23v-.49a24.92,24.92,0,0,1-4.41,1.84,9.35,9.35,0,0,0-.76-1c3.26-.86,6.45-2.45,8.14-4.63Zm-7.08,4.76h12v4.54h-12Zm1.05,5.38H490v5.85H488.6V554h-7.46v.6h-1.31Zm.1-1.76h4.25v-2.69h-4.25Zm2-2.49a7.11,7.11,0,0,1,1.08,2l-1,.38a7.41,7.41,0,0,0-1-2.11Zm-.83,5.21v1.22h7.46v-1.22Zm7.46,3.4v-1.23h-7.46V553Zm-1.35-11.6a14.7,14.7,0,0,1-2.38-1.8,13.7,13.7,0,0,1-2.32,1.8Zm2.35,2.79h-4.28v2.69h4.28Zm-3.13,2.29a14.9,14.9,0,0,0,1-2.16l1.14.36a20.58,20.58,0,0,1-1.23,2.13Z"/>
      </g>
      <g>
        <path d="M516.41,434h-5.6v2.9h-1.27V433h6.87v-1.15h-6.1v-.95h13.58v.95h-6.18V433h7v3.86H523.4V434h-5.69V438h-1.3ZM523,445.29c1,0,1.13-.3,1.22-2.09a3.57,3.57,0,0,0,1.17.43c-.2,2.18-.59,2.74-2.3,2.74h-4.15c-2,0-2.57-.36-2.57-1.8V444h-4V445h-1.3V438.7h12.14V444h-5.56v.56c0,.61.21.72,1.33.72ZM511.14,437c1.13-.1,2.68-.34,4.27-.59l.05.85c-1.39.28-2.76.57-3.93.79Zm.86-2.73a17.61,17.61,0,0,1,3.46.93l-.4.83a16.88,16.88,0,0,0-3.47-1Zm.38,5.36v1.23h4v-1.23Zm4,3.37V441.8h-4V443Zm5.55-3.37h-4.25v1.23h4.25Zm0,3.37V441.8h-4.25V443Zm.75-4.9a28.56,28.56,0,0,0-4.19-1l.32-.81a23.48,23.48,0,0,1,4.18.88Zm0-3.17a21.45,21.45,0,0,1-3.51,1l-.47-.7a33.21,33.21,0,0,0,3.4-1.08Z"/>
        <path d="M514,448.6a27,27,0,0,1-1.51,3.55v12.53h-1.24V454.31a19.93,19.93,0,0,1-1.71,2.32,7.79,7.79,0,0,0-.74-1.24,20.82,20.82,0,0,0,4-7.15Zm11.17,2.54v1.13h-11.4v-1.13Zm-10.35,7.7h9.11v5.73H522.7v-.65H516v.7h-1.17Zm8.93-4H515v-1.1h8.68ZM515,456.23h8.68v1.1H515ZM516,460v2.85h6.75V460Zm3.16-8.93a16.76,16.76,0,0,0-1.24-2.4l1.14-.46a13.52,13.52,0,0,1,1.31,2.34Z"/>
        <path d="M514.85,475.26l-2.16.65V481c0,.76-.2,1.12-.67,1.34a6.3,6.3,0,0,1-2.43.23,4.83,4.83,0,0,0-.43-1.22H511c.27,0,.36-.1.36-.35v-4.7l-2.16.63-.38-1.31c.72-.16,1.59-.38,2.54-.65v-3.92h-2.3v-1.26h2.3v-3.61h1.32v3.61h2v1.26h-2v3.56l2-.57Zm9.58-2a13.25,13.25,0,0,1-3.66,5.93,12.4,12.4,0,0,0,4.65,2.32,5.52,5.52,0,0,0-.87,1.15,12.93,12.93,0,0,1-4.81-2.61,16.52,16.52,0,0,1-5.11,2.58,5.1,5.1,0,0,0-.72-1.21,14.86,14.86,0,0,0,4.88-2.29,14.27,14.27,0,0,1-2.95-4.93l0,0h-.59v-1.24h3.85v-2.68h-4.21V469h4.21v-2.82h1.31V469h4.31v1.25h-4.31v2.68h2.87l.21-.05Zm-7.28.92a12.1,12.1,0,0,0,2.65,4.14,11,11,0,0,0,2.9-4.14Z"/>
        <path d="M513.64,488.18a18.25,18.25,0,0,1-1.55,2.7v9.76h-1.24V492.5a15.93,15.93,0,0,1-1.55,1.61,8.91,8.91,0,0,0-.79-1.17,15.43,15.43,0,0,0,3.92-5.17Zm-.45-3.56a15.31,15.31,0,0,1-3.64,4.17,7.09,7.09,0,0,0-.72-1,12,12,0,0,0,3.14-3.6Zm2.09,6.34c0,3.47-.25,5.79-1.62,7.18a4.44,4.44,0,0,0-.72-.79c1.15-1.21,1.3-3.24,1.33-6.39Zm2.16-1.19v10.8h-1.19v-10.8h-2.66v-1.25h2.66v-4.19h1.19v4.19h3v1.25Zm2.23-1.71a13.32,13.32,0,0,0-1.6-2.4l.85-.49a13,13,0,0,1,1.64,2.36Zm.65,8.51a2.35,2.35,0,0,0,.59-.05c0,.27.08.72.09,1a2.53,2.53,0,0,1-.68.07h-.65c-1,0-1.22-.39-1.22-1.58v-5h1v5c0,.46,0,.57.18.57Zm5-5.56h-1.61v7.83c0,.76-.14,1.12-.63,1.35a7.57,7.57,0,0,1-2.59.24,4.63,4.63,0,0,0-.4-1.3c.94,0,1.77,0,2,0s.33-.07.33-.31V491h-2.08V489.8h5Zm-.26-4.18h-4.26v-1.21h4.26Z"/>
        <path d="M524.3,505.37v8.43h-1.37v-1h-5.17v5.84h-1.38v-5.84h-5.15v1.12h-1.32v-8.52h6.47v-3.2h1.38v3.2Zm-7.92,6.09v-4.77h-5.15v4.77Zm6.55,0v-4.77h-5.17v4.77Z"/>
        <path d="M511.89,526.76a35.41,35.41,0,0,1-1.58,7l-1.33-.55a28.43,28.43,0,0,0,1.62-6.76Zm2.92-1.61V534c0,.83.22,1,1.24,1h3.44c1.12,0,1.28-.63,1.42-3.73a4.22,4.22,0,0,0,1.27.6c-.2,3.4-.62,4.39-2.62,4.39H516c-2,0-2.49-.48-2.49-2.27v-8.86Zm.38-4.35a32.26,32.26,0,0,1,4.84,4l-.95,1a33.88,33.88,0,0,0-4.77-4.09ZM523,526a31.37,31.37,0,0,1,2.41,6.75l-1.31.52a32.48,32.48,0,0,0-2.34-6.79Z"/>
      </g>
      <g>
        <path d="M557.32,445.22v1H541.58v-1h7.15v-1h-5.42v-.89h5.42v-.88a26.3,26.3,0,0,0-4.39.23,6.84,6.84,0,0,0-.29-1,3.52,3.52,0,0,0,1-.23,13.05,13.05,0,0,0,1.77-.88h-3.1v-.83h11.42v.83h-2.06a17.8,17.8,0,0,1,2.56,1.76l-.83.7c-.21-.21-.54-.46-.88-.74l-3.85.1v.91h5.63v.89h-5.63v1Zm-8.59-13.05H541.6v-.94h7.13v-1.06h1.32v1.06h7.25v.94h-7.25v.93H556V434H542.92v-.88h5.81Zm6.95,8.49V439H543.15v1.62h-1.21v-2.55h15v2.55Zm-.47-5.92v2.61H543.73v-2.61Zm-1.31.79H545v1h8.93Zm-5.53,5.12a14.77,14.77,0,0,1-1.89,1l6.29-.09c-.47-.31-1-.58-1.39-.81l.16-.14Z"/>
        <path d="M543.73,456a12,12,0,0,0-2.58-1.89l.76-.9a11.3,11.3,0,0,1,2.63,1.79Zm-2.24,7.75a59.23,59.23,0,0,0,2.26-5.73l1,.7c-.59,1.88-1.39,4.07-2.09,5.71ZM544,451.3a11.78,11.78,0,0,0-2.48-2l.77-.88a10.39,10.39,0,0,1,2.52,1.91Zm2,3.51a10,10,0,0,1-.79,2.49,3.88,3.88,0,0,0-.67-.44,7.75,7.75,0,0,0,.69-2.23Zm2.41-.72a5.08,5.08,0,0,0-.21-.56,15.28,15.28,0,0,0-3.12.56,3,3,0,0,0-.3-.7c.27,0,.52-.27.83-.63a11.73,11.73,0,0,0,1.11-1.35,6.89,6.89,0,0,0-1.65.25,4.1,4.1,0,0,0-.31-.68,1.06,1.06,0,0,0,.56-.45,9.53,9.53,0,0,0,1.1-2.24l.84.31a10.25,10.25,0,0,1-1.2,2.11l1.18-.08a8.73,8.73,0,0,0,.49-.81l.81.35a17,17,0,0,1-2.21,2.88l1.58-.2c-.11-.22-.23-.4-.34-.6l.68-.23a8.76,8.76,0,0,1,.87,1.78ZM556.8,461a3.24,3.24,0,0,1-.07.54c-.35,1.55-.71,2.34-1.19,2.7a2.11,2.11,0,0,1-1.35.35c-.54,0-1.62,0-2.76-.08a2.58,2.58,0,0,0-.37-1c1.15.11,2.32.12,2.77.12a1.16,1.16,0,0,0,.75-.14c.31-.2.54-.67.78-1.55h-9.47a23,23,0,0,0,.77-2.68h8.12v-.94H546v-.86h10v2.66h-8.33c-.07.31-.16.61-.25.9Zm-10-4a9.76,9.76,0,0,0-.4-2.22l.7-.17a8,8,0,0,1,.43,2.14Zm1.6-2.68a9.66,9.66,0,0,1,.65,1.92l-.69.31a9,9,0,0,0-.63-2Zm4.79-3.51h-4.32V450h1.91a7.25,7.25,0,0,0-.71-1.42l.92-.24a10.78,10.78,0,0,1,.78,1.42l-.8.24h2.22Zm-3.84,3.36h3.39v2.65h-3.39Zm3.37-2h-3.31v-.75h3.31Zm-3.31.58h3.31v.74h-3.31Zm.83,3.31h1.58v-1.19h-1.58Zm4.12-1.33a9.9,9.9,0,0,1-.78,2.48,4.71,4.71,0,0,0-.7-.46,7.09,7.09,0,0,0,.7-2.2Zm2.48-.59a4.39,4.39,0,0,0-.25-.67,18.64,18.64,0,0,0-3.15.54,7.32,7.32,0,0,0-.31-.7,1.67,1.67,0,0,0,.85-.6,16.44,16.44,0,0,0,1.12-1.37,6.46,6.46,0,0,0-1.68.27,5.08,5.08,0,0,0-.3-.7c.21,0,.34-.18.54-.45a8.74,8.74,0,0,0,1.11-2.21l.85.3a9.94,9.94,0,0,1-1.21,2.09l1.19-.07c.18-.27.34-.54.49-.81l.83.36a19.66,19.66,0,0,1-2.22,2.86l1.57-.2c-.11-.21-.22-.39-.33-.57l.65-.25a7.89,7.89,0,0,1,.94,1.89Zm-1.69,3a10,10,0,0,0-.45-2.39l.72-.18a9.85,9.85,0,0,1,.45,2.34Zm1.57-2.88a9.08,9.08,0,0,1,.77,2.27l-.68.33a10.07,10.07,0,0,0-.74-2.36Z"/>
        <path d="M543.06,477.85a24.34,24.34,0,0,1-.88,4.34,6.47,6.47,0,0,0-1-.36,21.91,21.91,0,0,0,.84-4.14Zm3.57-4.84a29.31,29.31,0,0,1,1.2,3.44l-1,.39c-.05-.25-.14-.55-.21-.86-4,.63-4.56.76-4.9.94a5.66,5.66,0,0,0-.38-1.17c.36-.08.76-.53,1.28-1.21a22.3,22.3,0,0,0,1.48-2.11,8.36,8.36,0,0,0-2.49.44,12,12,0,0,0-.38-1.16c.29-.07.6-.45,1-1a23.72,23.72,0,0,0,2.3-4.53l1.14.48a28.71,28.71,0,0,1-2.72,4.83l1.89-.18a25.54,25.54,0,0,0,1.31-2.49l1,.63a36.84,36.84,0,0,1-3.94,6l3.09-.43c-.2-.58-.43-1.15-.63-1.68Zm-1.8,4.61a27.13,27.13,0,0,1,.5,3.78l-1,.25a33.08,33.08,0,0,0-.43-3.85Zm1.89-.47a27,27,0,0,1,1.06,3.46l-.94.34a25.92,25.92,0,0,0-1-3.49Zm10.51,4c0,.74-.14,1.06-.61,1.28a5.85,5.85,0,0,1-2.27.23,5.25,5.25,0,0,0-.34-1.18c.75,0,1.47,0,1.69,0s.31-.09.31-.34V468.22h-6.74v14.42h-1.2V467h9.16Zm-2.9-3a5.29,5.29,0,0,0,1.06-.09c0,.31.08.72.11,1a5,5,0,0,1-1.15.09h-2.3c-1.19,0-1.46-.43-1.46-1.62v-1.75h-.67V474.7h2.45a11.54,11.54,0,0,0-.7-1.58l.83-.33h-2.76v-1.06h3.42a19.17,19.17,0,0,0,.85-3l1,.29c-.27.88-.59,1.91-.88,2.68h1.53v1.06h-3a15.93,15.93,0,0,1,.8,1.62l-.65.29h2.66v1.06H551.7v1.77c0,.47.06.61.44.61Zm-3.15-9.42a8.58,8.58,0,0,1,1,2.56l-.86.31a9.55,9.55,0,0,0-.94-2.58Z"/>
        <path d="M556.4,486.33a13.63,13.63,0,0,1-2.63,4.79,12.07,12.07,0,0,0,4.11,2.64,5.88,5.88,0,0,0-.83,1.1c-.18-.09-.38-.16-.57-.25v5.92H555.2v-.59h-4.5v.65h-1.25v-6l-1.08.51a3.63,3.63,0,0,0-.65-.9h-1.89v3.22c.78-.18,1.57-.36,2.36-.56l.13,1.21c-2.45.59-5,1.2-6.9,1.67l-.25-1.29.92-.2v-6.14h1.13V498l1.39-.32v-7.27h-2.52v-5.5h5.81v4.77a12.93,12.93,0,0,0,3.26-5.52l1.28.3c-.18.53-.38,1-.57,1.53h3.47l.23-.05Zm-13.12,2.91h3.38v-3.15h-3.38Zm4.79,4.63a12.52,12.52,0,0,0,4.07-2.81,16.12,16.12,0,0,1-1.66-2.46,12.89,12.89,0,0,1-1.64,2.07,6.6,6.6,0,0,0-.94-.79v.54h-2.07V493h2.24Zm7.56.25A13.69,13.69,0,0,1,553,492a13.55,13.55,0,0,1-2.7,2.12Zm-.43,4.63v-3.46h-4.5v3.46Zm-3.89-11.58-.18.35a14.76,14.76,0,0,0,1.78,2.7,11.54,11.54,0,0,0,1.84-3.05Z"/>
        <path d="M546.52,507.12h-5.15V506h5.15Zm1.42,9.29a24.89,24.89,0,0,1-5.49,2.2,9.42,9.42,0,0,0-1-1,21.44,21.44,0,0,0,5.27-1.73Zm-1.87-12.12h-4.31v-1h4.31Zm-2.34,4.23h11.65v7.22H543.73Zm1.29,2.13h9v-1.23h-9Zm0,2.09h9v-1.23h-9Zm0,2.12h9V513.6h-9Zm4.32-10.42a8.73,8.73,0,0,1-1.35,1.8,6.09,6.09,0,0,0-1-.69,7.72,7.72,0,0,0,2.07-3.42l1.2.27c-.11.34-.25.67-.38,1h6l.21-.05.9.3a16.7,16.7,0,0,1-1.51,2.6l-1.06-.38a10.24,10.24,0,0,0,.84-1.42h-2.86v.23a4.27,4.27,0,0,1-.05.59c1,1.08,2.91,1.79,5.27,2a5,5,0,0,0-.75,1.07,8.67,8.67,0,0,1-4.9-2.11c-.59.88-2,1.71-5.19,2.2a3.93,3.93,0,0,0-.72-1c4.67-.63,5.1-1.86,5.1-2.79v-.18Zm2.71,11.41a50.26,50.26,0,0,1,5.29,1.95l-1.17.77a42.87,42.87,0,0,0-5-2Z"/>
        <path d="M547.81,524.33h-6.46v-1.1h6.46Zm-.66,11.2h-4v.84h-1.08v-6h5.1Zm-5.08-8.88v-1.06h5.06v1.06Zm0,1.28h5.1V529h-5.1Zm1.06,3.51v3h2.92v-3Zm1.39-8.41a17.42,17.42,0,0,0-1.26-2.39l1-.54a14.67,14.67,0,0,1,1.3,2.32Zm11.31-1.84c-.11,7.28-.15,13.53.86,13.78a8,8,0,0,0,.31-2.41,5.56,5.56,0,0,0,.77,1c-.2,2.52-.77,3.09-1.6,2.75-1.77-.54-1.71-6.43-1.69-13.81h-3v5.31h2.37V529h-2.37v7.58h-1.26V529H547.8v-1.25h2.43v-5.31H548v-1.28Z"/>
        <path d="M556.62,541.37v8.43h-1.37v-1h-5.17v5.84H548.7v-5.84h-5.15v1.12h-1.32v-8.52h6.47v-3.2h1.38v3.2Zm-7.92,6.09v-4.77h-5.15v4.77Zm6.55,0v-4.77h-5.17v4.77Z"/>
        <path d="M544.21,562.76a35.41,35.41,0,0,1-1.58,7l-1.33-.55a29,29,0,0,0,1.62-6.75Zm2.92-1.61V570c0,.83.22,1,1.24,1h3.44c1.12,0,1.28-.63,1.42-3.73a4.28,4.28,0,0,0,1.26.6c-.19,3.4-.61,4.39-2.61,4.39h-3.62c-1.94,0-2.48-.48-2.48-2.27v-8.86Zm.38-4.35a32.26,32.26,0,0,1,4.84,4l-1,1a33.88,33.88,0,0,0-4.77-4.09Zm7.83,5.24a32.48,32.48,0,0,1,2.41,6.75l-1.31.52a32.48,32.48,0,0,0-2.34-6.79Z"/>
      </g>
      <rect class="cls-1" x="512.1" y="366.39" width="10.83" height="100" rx="5" transform="translate(933.91 -101.13) rotate(90)"/>
    </g>
    <g>
      <g>
        <path d="M433,431v15.63h-1.33v-.79H419.34v.79h-1.28V431Zm-1.33,13.61V432.26H419.34v12.36Zm-6-2.71-5.26,1-.23-1c1.39-.22,3.39-.56,5.4-.9Zm4.41-5.26a14,14,0,0,1-2,4.37c.39,1,.84,1.59,1.4,1.68.23.05.41-.69.52-1.84a3.41,3.41,0,0,0,.9.61c-.21,1.93-.79,2.63-1.76,2.33a3,3,0,0,1-1.84-1.77,11.28,11.28,0,0,1-2.41,2.11,7.06,7.06,0,0,0-.79-.87,9.28,9.28,0,0,0,2.75-2.39,27.86,27.86,0,0,1-1-5.26h-5.53v-1h5.42c-.05-.63-.11-1.28-.14-1.93h1.15c0,.65.07,1.3.12,1.93h3.86v1H427a30.4,30.4,0,0,0,.66,4.07,12.86,12.86,0,0,0,1.32-3.26Zm-5.07.07v3.53h-4v-3.53Zm-1,.85H421.9v1.85H424Zm5.69-3.14a7,7,0,0,0-1.91-1.29l.63-.69a7.3,7.3,0,0,1,1.92,1.23Z"/>
        <path d="M431.84,455.46a33.93,33.93,0,0,1-2.78,2,8.58,8.58,0,0,0,4.79,5.28,4.41,4.41,0,0,0-.86,1.1,9.83,9.83,0,0,1-5-5.71,9.41,9.41,0,0,1-.85.5c.62,2.33.16,4.54-.81,5.3a2.47,2.47,0,0,1-1.83.63c-.42,0-1,0-1.55,0a3,3,0,0,0-.34-1.26c.64.06,1.24.09,1.62.09a1.46,1.46,0,0,0,1.15-.38c.54-.39.86-1.64.7-3.09a26.91,26.91,0,0,1-7.71,3.85,5.47,5.47,0,0,0-.7-1.14,20.61,20.61,0,0,0,8.16-4,7.6,7.6,0,0,0-.49-1.26,28,28,0,0,1-6.68,3.14,5.07,5.07,0,0,0-.68-1.05,21.77,21.77,0,0,0,6.82-3,5.63,5.63,0,0,0-.86-1.06,26.21,26.21,0,0,1-5.19,2.12,5.36,5.36,0,0,0-.74-1.06,20.34,20.34,0,0,0,6.43-2.61h-4.1v-1.17h10.35v1.17h-4.47a12.78,12.78,0,0,1-1.27,1,8.17,8.17,0,0,1,1.83,2.75,30.65,30.65,0,0,0,3.93-3Zm-12.43-2h-1.29v-3.69h6.75a12.54,12.54,0,0,0-.67-1.32l1.37-.39a10.66,10.66,0,0,1,.88,1.71h6.65v3.69h-1.35V451H419.41Z"/>
        <path d="M422.64,471.12h-5.15V470h5.15Zm1.42,9.29a24.39,24.39,0,0,1-5.49,2.19,10.36,10.36,0,0,0-1-1,21.58,21.58,0,0,0,5.27-1.73Zm-1.87-12.12h-4.31v-1h4.31Zm-2.35,4.23h11.65v7.22H419.84Zm1.3,2.13h9v-1.23h-9Zm0,2.09h9v-1.23h-9Zm0,2.12h9V477.6h-9Zm4.32-10.42a8.73,8.73,0,0,1-1.35,1.8,5.78,5.78,0,0,0-1-.69,7.59,7.59,0,0,0,2.07-3.42l1.21.27c-.11.34-.25.67-.38,1h6l.22-.05.9.3a18.06,18.06,0,0,1-1.51,2.6l-1.06-.38a10.24,10.24,0,0,0,.84-1.42h-2.86v.23a4.27,4.27,0,0,1-.05.59c.95,1.08,2.91,1.79,5.27,2a5.45,5.45,0,0,0-.76,1.07,8.63,8.63,0,0,1-4.89-2.11c-.6.88-2,1.71-5.19,2.2a3.93,3.93,0,0,0-.72-1c4.66-.63,5.1-1.86,5.1-2.8v-.17Zm2.7,11.41a47.6,47.6,0,0,1,5.3,1.95l-1.17.77a43.59,43.59,0,0,0-5-2Z"/>
        <path d="M421.75,492.77a22.22,22.22,0,0,1-1.49,4.65c.36.2.77.54,1.46.93,1.26.78,2.9.9,5,.9,2.32,0,5.22-.18,7.24-.37a4.84,4.84,0,0,0-.4,1.38c-1.35.09-4.75.2-6.89.2-2.36,0-3.95-.2-5.26-1-.72-.43-1.41-1-1.8-1s-1,1.13-1.51,2.26l-.94-1.2a7.74,7.74,0,0,1,1.8-2,15.39,15.39,0,0,0,1.28-3.74h-2.34c.48-1.07,1.06-2.6,1.55-4h-2v-1.21h3.69c-.43,1.3-1,2.81-1.48,4.05h1.25l.21-.05Zm-2.45-5.2c-.19-.77-.61-2-.91-2.95l1.18-.35c.33.94.72,2.13,1,2.9Zm5.08,10.37H423.1v-9.27h5.15c-1.08-.52-2.36-1.1-3.44-1.5l.85-.73c.77.25,1.66.61,2.5,1a14.5,14.5,0,0,0,2.47-1.43h-7.51v-1.06h8.79l.27-.07.81.63a15,15,0,0,1-3.64,2.47c.52.27,1,.5,1.39.72H433v7.92c0,.67-.15,1-.62,1.17A7.12,7.12,0,0,1,430,498a3.76,3.76,0,0,0-.36-1.12c.85,0,1.61,0,1.82,0s.31-.07.31-.31v-1.64H428.6v2.94h-1.21v-2.94h-3Zm0-8.25v1.59h3v-1.59Zm3,4.22v-1.64h-3v1.64Zm4.34-4.22H428.6v1.59h3.13Zm0,4.22v-1.64H428.6v1.64Z"/>
        <path d="M429.68,510.66a10.87,10.87,0,0,1-2.11,4,37.5,37.5,0,0,1,5.53,2.81l-1,1.16a36.85,36.85,0,0,0-5.58-2.93c-1.82,1.53-4.34,2.41-7.71,3a5.73,5.73,0,0,0-.85-1.33c3.1-.4,5.42-1.08,7.1-2.29-1.68-.7-3.42-1.33-5-1.84.52-.7,1.1-1.58,1.68-2.54h-3.91v-1.27h4.61a27.41,27.41,0,0,0,1.49-3.14l1.5.27a28.12,28.12,0,0,1-1.35,2.87h4.37c.13-.56.24-1.16.33-1.79l1.56.15c-.09.57-.2,1.13-.32,1.64h3.29v1.27Zm-10.07-2.8h-1.33v-3.6H425c-.26-.58-.58-1.28-.89-1.84l1.43-.36c.37.68.84,1.56,1.11,2.2h6.2v3.6h-1.39V505.5H419.61Zm3.76,2.8c-.41.71-.81,1.36-1.2,1.93,1.29.42,2.66.94,4,1.46a9.13,9.13,0,0,0,1.95-3.39Z"/>
        <path d="M426.25,520.69a18.58,18.58,0,0,0,7.64,6.14,5.06,5.06,0,0,0-1,1.13,22,22,0,0,1-7.37-6,27.63,27.63,0,0,1-7.49,6.21,4.85,4.85,0,0,0-.81-1.14A22.89,22.89,0,0,0,424,522h-3.21v-1.26Zm-.07,14.22h6.95v1.23H418v-1.23h6.83v-3h-5.05v-1.19h5.05V528h-4.27v-1.21h10V528h-4.36v2.74h5.1v1.19h-5.1Z"/>
        <path d="M417.52,539.16h6.3v1.22H421a32.11,32.11,0,0,1-1.11,4.27h3.58v7.7h-3.62v1.45h-1.13v-6.5a11,11,0,0,1-1,1.45,7.42,7.42,0,0,0-.59-1.42,16.82,16.82,0,0,0,2.57-7h-2.25Zm4.79,6.68h-2.43v5.31h2.43Zm11.47,1h-2v7.74h-1.28v-7.74h-2.94c0,2.74-.52,5.73-2.55,7.83a5.18,5.18,0,0,0-1-.77c1.83-1.93,2.23-4.64,2.28-7.06h-2v-1.28h2v-5.16H424.8v-1.26h8.62v1.26h-1.67v5.16h2Zm-3.31-1.28v-5.16h-2.92v5.16Z"/>
        <path d="M431.91,570.93c.54,0,.63-.34.68-2.68a4.26,4.26,0,0,0,1.28.59c-.14,2.74-.52,3.4-1.82,3.4H430c-1.42,0-1.83-.41-1.83-1.87v-3.54h-3.08c-.33,2.14-1.75,4.44-6.74,5.86a5.77,5.77,0,0,0-.92-1.13c4.43-1.22,5.84-3.08,6.22-4.73h-5v-1.25h5.15v-2.19h1.39v2.19h4.37v4.77c0,.49.09.58.63.58Zm-12.59-9.76H418v-3.24h7c-.16-.5-.36-1.08-.56-1.55l1.35-.23c.24.54.53,1.24.72,1.78h6.74V561h-1.39v-1.86h-3.69v3c0,.47.07.65.52.65h2.74a7.39,7.39,0,0,0,1.37-.11c0,.35.07.81.11,1.14a8,8,0,0,1-1.43.07h-2.86c-1.44,0-1.76-.47-1.76-1.76v-3H424.2c-.36,2.71-1.47,4.16-5.29,4.94a4.18,4.18,0,0,0-.72-1.1c3.42-.59,4.3-1.67,4.61-3.84h-3.48Z"/>
        <path d="M423.18,575.37c-.54,1.48-1.19,3.23-1.81,4.67a5.57,5.57,0,0,1,1.63,3.89,2.52,2.52,0,0,1-.71,2.08,1.78,1.78,0,0,1-.93.35,6.89,6.89,0,0,1-1.21,0,2.87,2.87,0,0,0-.34-1.19,4.62,4.62,0,0,0,1,0,1.06,1.06,0,0,0,.56-.16,1.55,1.55,0,0,0,.38-1.26,5.31,5.31,0,0,0-1.6-3.62c.5-1.3,1-2.84,1.42-4h-2.38v14.46H418V574.9h4.07l.21,0Zm9.07,13.87c.4,0,.47-.31.5-2.27a3,3,0,0,0,1.16.48c-.11,2.35-.45,2.94-1.53,2.94h-1.59c-1.26,0-1.55-.38-1.55-1.66V584h-1.89c-.3,3.29-1.17,5.4-4.57,6.58a4.1,4.1,0,0,0-.77-1.06c3.09-1,3.81-2.73,4.05-5.52h-2.51v-1.23h10.14V584H430.5v4.69c0,.45.08.53.47.53Zm-7.53-9.69h-1.24v-3.13h4.58a9.59,9.59,0,0,0-1-2l1.21-.4a12.4,12.4,0,0,1,1.17,2.23l-.38.15h4.48v3.13h-1.27v-2h-7.57Zm.2,1.22v-1.18h7.19v1.18Z"/>
      </g>
      <rect class="cls-1" x="420.16" y="401.39" width="10.83" height="30" rx="5" transform="translate(841.97 -9.18) rotate(90)"/>
    </g>
    <g>
      <path d="M288.3,447a3.92,3.92,0,0,1-1.55,2.38,17,17,0,0,1,2.07,1.06l-.88.77a20.9,20.9,0,0,0-2.22-1.17,17.86,17.86,0,0,1-5,1.55,3.73,3.73,0,0,0-.56-.9,18.15,18.15,0,0,0,4.34-1.19,22.47,22.47,0,0,0-2.77-1c.29-.36.61-.75.92-1.19l-2.13.11-.12-1c.81,0,1.82-.07,2.92-.11.27-.48.55-.95.81-1.42h-2.94v-2.93h3.4v-.74h-2.89v-1.95h-1.21v-1h1.21v-1.84h2.89v-1.26h1.07v1.26h3.06v1.84h1.22v1h-1.22v1.95h-3.06v.74h3.49v2.93h-3.8a13.12,13.12,0,0,1-.76,1.35l2.74-.14v-.85h1.1V446l.9-.05,0,.94Zm-6-3h2.25v-1.12H282.3Zm.51-6.64v.95h1.74v-.95Zm1.74,2.93v-1.08h-1.74v1.08Zm-.63,6.93c-.18.29-.37.56-.55.81.73.24,1.51.53,2.25.83a3.43,3.43,0,0,0,1.51-1.8Zm1.7-9.86v.95h1.87v-.95Zm1.87,2.93v-1.08h-1.87v1.08Zm-1.87,2.59V444h2.3v-1.12Zm9.79-3.07a25.72,25.72,0,0,1-1.64,6.89,9,9,0,0,0,3.05,3.75,4.12,4.12,0,0,0-.81.95,9,9,0,0,1-2.83-3.4,10.84,10.84,0,0,1-3.26,3.71,4.21,4.21,0,0,0-.74-1,9.38,9.38,0,0,0,3.39-4.05,24.54,24.54,0,0,1-1.32-4.76,11.77,11.77,0,0,1-.95,2,10.82,10.82,0,0,0-.92-.81,20.84,20.84,0,0,0,2.3-7.76l1.14.18c-.15,1.05-.34,2.11-.58,3.12h4.4v1.21Zm-3.46,0a30.12,30.12,0,0,0,1.21,5.32,25.69,25.69,0,0,0,1-5.32Z"/>
      <path d="M286,453.57a26.69,26.69,0,0,1-1.82,3.82v12.15h-1.33V459.48a17.94,17.94,0,0,1-1.78,2.17,7,7,0,0,0-.76-1.31,20.07,20.07,0,0,0,4.43-7.15Zm10.66,14v1.3h-11.2v-1.3h6.28a77.26,77.26,0,0,0,1.71-8.91l1.39.25c-.47,2.76-1.21,6.27-1.86,8.66Zm-.74-9.87h-9.71v-1.29h9.71Zm-7.31,9a65.81,65.81,0,0,0-1.22-7.67l1.2-.27a68.11,68.11,0,0,1,1.33,7.57Zm2-10.53a19.41,19.41,0,0,0-.84-2.86L291,453a27.84,27.84,0,0,1,.9,2.8Z"/>
      <path d="M283.08,478.41v2.68c0,2-.31,4.79-1.93,6.65a4.65,4.65,0,0,0-1-.86c1.46-1.68,1.64-4,1.64-5.8V477.3h2.27a5.21,5.21,0,0,0-.65-.67c1.42-.27,3.06-.63,4.61-1.06-1.37-.4-2.77-.76-4.05-1.05l.79-.64h-2.88v-1.1h6.65c-.31-.45-.65-.94-1-1.34l1-.48a16,16,0,0,1,1.37,1.82h6v1.1h-2.74l.72.43a19.21,19.21,0,0,1-2.75,1.2c1.31.4,2.53.8,3.44,1.12l-.73.67h2.62v1.11Zm13.66,7.46V487H283.4v-1.11h5.89v-1.82h-4.2V483h4.2v-1.6h-3.76a10.42,10.42,0,0,1-1.71,2.21,6.57,6.57,0,0,0-.71-1.1,10,10,0,0,0,2.38-3.76l1.15.32c-.16.42-.32.81-.5,1.23h3.15v-1.53h1.31v1.53h4.85v1.1H290.6V483h4.45v1.08H290.6v1.82Zm-3.33-8.57c-1-.4-2.36-.83-3.81-1.28-1.62.52-3.34.93-4.87,1.28Zm-8.26-3.42c1.4.34,3,.75,4.52,1.2a20.09,20.09,0,0,0,3-1.2Z"/>
      <path d="M287,502.68a16.79,16.79,0,0,1-5.53,2.32,4.92,4.92,0,0,0-.81-1,16.13,16.13,0,0,0,5.33-1.78Zm9.4-2.51v1.14h-7.22v4.27h-1.32v-4.27h-7.11v-1.14h7.11v-1.34h-5.42v-1h5.42v-1.3h-6.34v-1.08h3.89a7.89,7.89,0,0,0-.92-1.73l1-.25h-4.65v-1.11h2.9a13.82,13.82,0,0,0-1.44-2.62l1.14-.39A11.29,11.29,0,0,1,284.9,492l-.9.37h2.19v-3.19h1.26v3.19h2.15v-3.19h1.27v3.19h2.18l-.72-.24a15,15,0,0,0,1.39-2.74l1.37.38c-.51.92-1.1,1.91-1.57,2.6h2.77v1.11h-4.68l1.17.33a18.64,18.64,0,0,1-1.24,1.65h4.12v1.08h-6.51v1.3h5.63v1h-5.63v1.34Zm-10.61-6.73a7.42,7.42,0,0,1,.95,1.78l-.73.2h5l-.63-.2a13.68,13.68,0,0,0,1.06-1.78Zm5.35,8.68c1.69.56,4,1.42,5.22,2l-.83.84c-1.19-.57-3.47-1.49-5.18-2.12Z"/>
      <path d="M290.62,516.32c-.83.43-1.67.85-2.55,1.21h6.77v6h-1.3V523H285.6v.58h-1.26v-4.61c-1.14.36-2.31.69-3.46,1a9,9,0,0,0-.67-1.15,41.05,41.05,0,0,0,7.75-2.43h-7.37v-1.1h6.74v-1.35h-4.95v-1.08h4.95v-1.26h-5.71v-3.69h13.94v3.69h-6.94v1.26h4v.92a16.84,16.84,0,0,0,1.85-1.55l1.05.67a19.15,19.15,0,0,1-3.07,2.39h4v1.1Zm-4.86-7.51H282.9v1.73h2.86Zm7.78,9.73H285.6v1.18h7.94Zm0,3.42v-1.32H285.6V522ZM290,510.54v-1.73h-3v1.73Zm.25,4.68a20.61,20.61,0,0,0,2.21-1.35h-3.8v1.35Zm1-4.68h3v-1.73h-3Z"/>
    </g>
    <g>
      <path d="M317.92,440.07h-5.15V439h5.15Zm1.42,9.29a24.41,24.41,0,0,1-5.49,2.2,9.42,9.42,0,0,0-1-1,21.44,21.44,0,0,0,5.27-1.73Zm-1.87-12.12h-4.31v-1h4.31Zm-2.34,4.24h11.65v7.22H315.13Zm1.29,2.12h9v-1.22h-9Zm0,2.09h9v-1.22h-9Zm0,2.12h9v-1.26h-9Zm4.32-10.42a8.73,8.73,0,0,1-1.35,1.8,5.49,5.49,0,0,0-1-.68,7.81,7.81,0,0,0,2.07-3.43l1.2.27c-.11.35-.25.67-.38,1h6l.21-.06.9.31a16.57,16.57,0,0,1-1.51,2.59l-1.06-.38a10.24,10.24,0,0,0,.84-1.42h-2.86v.23a4.54,4.54,0,0,1,0,.6c.95,1.08,2.91,1.78,5.27,2a5,5,0,0,0-.75,1.06,8.67,8.67,0,0,1-4.9-2.11c-.59.89-2,1.71-5.19,2.2a4.12,4.12,0,0,0-.72-1c4.67-.63,5.1-1.85,5.1-2.79v-.18Zm2.71,11.41a50.26,50.26,0,0,1,5.29,1.95l-1.17.77a44.7,44.7,0,0,0-5-2Z"/>
      <path d="M317,461.73a22.73,22.73,0,0,1-1.5,4.64c.36.2.78.54,1.46.94,1.26.77,2.9.9,5,.9,2.33,0,5.22-.18,7.24-.38a4.5,4.5,0,0,0-.39,1.39c-1.36.09-4.76.2-6.9.2-2.36,0-3.94-.2-5.26-1-.72-.44-1.4-1.05-1.8-1.05s-1,1.14-1.51,2.27l-.94-1.21a7.74,7.74,0,0,1,1.8-2,15.1,15.1,0,0,0,1.28-3.74H313.2c.49-1.06,1.06-2.59,1.55-4h-2v-1.2h3.69c-.43,1.29-1,2.81-1.47,4h1.24l.22,0Zm-2.45-5.21c-.2-.77-.62-2-.92-2.95l1.19-.34c.32.93.72,2.12.95,2.9Zm5.07,10.37h-1.27v-9.27h5.15c-1.08-.52-2.36-1.1-3.44-1.49l.84-.74c.78.25,1.66.61,2.51,1a15.49,15.49,0,0,0,2.46-1.42H318.4v-1.06h8.79l.27-.08.81.64a14.9,14.9,0,0,1-3.64,2.46c.53.27,1,.51,1.39.72h2.27v7.92c0,.67-.15,1-.61,1.17a7.19,7.19,0,0,1-2.43.22,4.71,4.71,0,0,0-.36-1.12c.84,0,1.6,0,1.81,0s.31-.07.31-.3v-1.64h-3.13v2.93h-1.21v-2.93h-3Zm0-8.24v1.58h3v-1.58Zm3,4.21v-1.64h-3v1.64Zm4.34-4.21h-3.13v1.58H327Zm0,4.21v-1.64h-3.13v1.64Z"/>
      <path d="M325,479.62a10.83,10.83,0,0,1-2.11,4,39.56,39.56,0,0,1,5.53,2.81l-1,1.17a37.71,37.71,0,0,0-5.58-2.94c-1.82,1.53-4.34,2.42-7.71,3a5.67,5.67,0,0,0-.84-1.33c3.09-.39,5.42-1.08,7.09-2.29-1.67-.7-3.42-1.33-5-1.83.53-.7,1.1-1.59,1.68-2.54h-3.91v-1.28h4.61a26.45,26.45,0,0,0,1.49-3.13l1.5.27a27,27,0,0,1-1.35,2.86h4.37c.13-.56.24-1.15.33-1.78l1.56.14c-.09.58-.19,1.14-.32,1.64h3.3v1.28Zm-10.07-2.81h-1.33v-3.6h6.7c-.25-.58-.58-1.28-.88-1.84l1.42-.36c.38.69.84,1.57,1.11,2.2h6.2v3.6h-1.39v-2.36H314.89Zm3.77,2.81c-.42.7-.81,1.35-1.21,1.93,1.3.41,2.66.93,4,1.45a9.09,9.09,0,0,0,2-3.38Z"/>
      <path d="M321.54,489.64a18.48,18.48,0,0,0,7.63,6.14,5.67,5.67,0,0,0-1,1.14,21.93,21.93,0,0,1-7.36-6,27.57,27.57,0,0,1-7.49,6.21,4.89,4.89,0,0,0-.81-1.13,22.88,22.88,0,0,0,6.75-5.1h-3.21v-1.26Zm-.08,14.23h7v1.22H313.25v-1.22h6.83v-3h-5v-1.19h5v-2.73h-4.27v-1.21h10v1.21h-4.36v2.73h5.1v1.19h-5.1Z"/>
      <path d="M322.94,516.32c-.83.43-1.67.85-2.56,1.21h6.77v6h-1.29V523h-7.94v.57h-1.26v-4.61c-1.14.36-2.31.69-3.46,1a9,9,0,0,0-.67-1.15,41.05,41.05,0,0,0,7.75-2.43h-7.37v-1.1h6.74v-1.35h-5v-1.08h5v-1.26h-5.71v-3.69h13.93v3.69h-6.93v1.26h4v.92a16.84,16.84,0,0,0,1.85-1.55l1,.67a18.63,18.63,0,0,1-3.06,2.39h4v1.1Zm-4.86-7.51h-2.86v1.73h2.86Zm7.78,9.73h-7.94v1.18h7.94Zm0,3.42v-1.32h-7.94V522Zm-3.58-11.42v-1.73h-3v1.73Zm.25,4.68a20.61,20.61,0,0,0,2.21-1.35h-3.8v1.35Zm1-4.68h3v-1.73h-3Z"/>
    </g>
    <rect class="cls-2" x="289.08" y="354.1" width="32" height="106.18" rx="4.74" transform="translate(712.27 102.11) rotate(90)"/>
    <path class="cls-3" d="M125.13,225.12v-9c0-5.52,3.82-10,8.53-10H477.12c4.72,0,8.54,4.48,8.54,10v9"/>
    <g>
      <line class="cls-4" x1="304.89" y1="368.78" x2="306.39" y2="368.78"/>
      <path class="cls-5" d="M311.34,368.78H504.68c7.09,0,12.84,4.47,12.84,10v23.4"/>
      <line class="cls-4" x1="517.52" y1="404.65" x2="517.52" y2="406.15"/>
    </g>
    <rect class="cls-6" x="109.13" y="146.53" width="32" height="195.72" rx="5" transform="translate(369.52 119.27) rotate(90)"/>
    <rect class="cls-6" x="469.66" y="146.53" width="32" height="195.72" rx="5" transform="translate(730.05 -241.27) rotate(90)"/>
    <g>
      <g>
        <path d="M79.37,276H70.72V275h2.4c.12-.43.25-.93.38-1.46h-2v-1.06h2.18c.13-.48.22-1,.31-1.42l1.22.11c-.09.41-.18.86-.29,1.31h3.08V275h1.32Zm-3,9.13v2.23H75.08v-2.23H71.26c.18-.74.36-1.8.51-2.72h-.92v-1h4.23v-.94h-3.4V277h6.68v3.51h-2v.94h2.48v1H76.36v1.66h2.7v1.06Zm-1.28-1.06v-1.66H72.94c-.07.54-.18,1.14-.27,1.66Zm-2.14-4.56h4.12v-1.63H72.94Zm1.8-6.05c-.13.53-.25,1-.38,1.46h2.52v-1.46Zm11.74-.64c-.2,9.65-.36,12.71-1,13.57a1.45,1.45,0,0,1-1.19.72,12.12,12.12,0,0,1-2,0,2.93,2.93,0,0,0-.36-1.24c.81.07,1.55.07,1.89.07a.59.59,0,0,0,.59-.32c.45-.63.65-3.66.83-12.37H83.34c-.1,4.93-.52,10.84-4,14a3.23,3.23,0,0,0-.93-.79,10.92,10.92,0,0,0,3.18-6.14c-.57-.95-1.6-2.43-2.41-3.53l.88-.54c.58.74,1.25,1.64,1.79,2.43a44.34,44.34,0,0,0,.34-5.43H79.46v-1.16h7Z"/>
        <path d="M70.4,297a18.2,18.2,0,0,0,.93-4.61l1,.14a20,20,0,0,1-.9,4.83ZM73,289h1.33v16.44H73Zm2.4,2.88a17.08,17.08,0,0,1,1.31,3l-1,.48a18.54,18.54,0,0,0-1.24-3.06Zm11.47,11.67v1.27h-11v-1.27H81v-4.51H77.2v-1.24H81V294.1H78.39a12.79,12.79,0,0,1-1.26,2.8,11.05,11.05,0,0,0-1.19-.62,17.32,17.32,0,0,0,2.18-6.42l1.3.21c-.18.94-.4,1.87-.65,2.76H81V289.1h1.33v3.73h4.07v1.27H82.35v3.73H86v1.24H82.35v4.51Z"/>
        <path d="M75.87,313.33a21.79,21.79,0,0,1-1.55,6.32c1.75,1.76,4.24,2.16,7.3,2.16.7,0,4.57,0,5.49,0A4.63,4.63,0,0,0,86.6,323h-5c-3.33,0-5.94-.46-7.8-2.28a9.11,9.11,0,0,1-2.23,2.63,4.81,4.81,0,0,0-1-.92,8.34,8.34,0,0,0,2.36-2.7,11.14,11.14,0,0,1-1.62-3.46l1-.4a9.88,9.88,0,0,0,1.17,2.67,18,18,0,0,0,1.08-4.23H71.62c.78-1.32,1.77-3.26,2.58-5H71.05v-1.19h5.06c-.76,1.59-1.71,3.49-2.51,5h1.28l.24,0Zm4.54-3.67H77v-1.07h3.46v-1.47h1.26v1.47h3.91V311h1.24v1.1H85.58v2.41H81.67v1.35h4.25v1H81.67v1.46h4.92v1.09H81.67v1.79H80.41v-1.79H75.94v-1.09h4.47v-1.46H76.7v-1h3.71v-1.35H76.83V313.4h3.58v-1.33H75.78V311h4.63Zm1.26,0V311h2.7v-1.31Zm2.7,2.41h-2.7v1.33h2.7Z"/>
        <path d="M77.55,329.19H70.74v-1.1h6.81Zm8.55,4.07a11.45,11.45,0,0,1-3.21,5.18,12.41,12.41,0,0,0,4.25,1.8,5.72,5.72,0,0,0-.82,1.21,12.7,12.7,0,0,1-4.47-2.14,14.21,14.21,0,0,1-4.47,2.19,4.32,4.32,0,0,0-.61-1.11h-4.1v.84H71.5v-6.05h5.31v5.08a13,13,0,0,0,4-1.82,12.46,12.46,0,0,1-2.68-4l.77-.27H77.35v-1.26H85l.23-.05Zm-9.29-2.81v1.06h-5.3v-1.06Zm-5.3,2.34h5.32v1.06H71.51Zm4.11,3.51h-3v3h3ZM74,327.89a16,16,0,0,0-1.36-2.41l1-.53a16.19,16.19,0,0,1,1.39,2.33Zm6.3-.2a5.18,5.18,0,0,1-2.61,4.79,6.21,6.21,0,0,0-.87-1,4,4,0,0,0,2.24-3.85v-2h5.47v4.18c0,.51,0,.67.29.67h1.06a4.07,4.07,0,0,0,.79-.09c0,.34.07.84.09,1.15a3,3,0,0,1-.88.09H84.75c-1.17,0-1.42-.5-1.42-1.85v-2.88h-3Zm-1,6.5a10.08,10.08,0,0,0,2.54,3.44,9.86,9.86,0,0,0,2.54-3.44Z"/>
        <path d="M85.77,357.48c0,.92-.19,1.39-.81,1.63a11.89,11.89,0,0,1-3.34.25,5.17,5.17,0,0,0-.47-1.44c1.24,0,2.48,0,2.84,0s.43-.11.43-.46v-12H71.48V344.2H85.77Zm-3.4-8.93H71.6v-1.2H82.37Zm-8.32,7.66v1.31H72.74v-7h8.41v5.73Zm0-4.54V355h5.78v-3.35Z"/>
      </g>
      <g>
        <path d="M106.78,276h-5.15V274.9h5.15Zm1.43,9.29a24.78,24.78,0,0,1-5.5,2.2,7.85,7.85,0,0,0-1-1,21.52,21.52,0,0,0,5.28-1.73Zm-1.88-12.12H102v-1h4.3ZM104,277.38h11.65v7.22H104Zm1.3,2.13h9v-1.23h-9Zm0,2.09h9v-1.23h-9Zm0,2.12h9v-1.26h-9Zm4.32-10.42a9.1,9.1,0,0,1-1.35,1.8,6.19,6.19,0,0,0-1-.69,7.54,7.54,0,0,0,2.07-3.42l1.21.27c-.11.34-.25.67-.38,1h6l.22-.05.9.3a17.53,17.53,0,0,1-1.51,2.6l-1.07-.38a10.24,10.24,0,0,0,.85-1.42h-2.86v.23a3.19,3.19,0,0,1-.06.59c1,1.08,2.92,1.79,5.28,2a5.06,5.06,0,0,0-.76,1.07,8.7,8.7,0,0,1-4.9-2.11c-.59.88-2,1.71-5.18,2.2a4.19,4.19,0,0,0-.72-1c4.66-.63,5.09-1.86,5.09-2.79v-.18Zm2.7,11.41a49.44,49.44,0,0,1,5.29,2l-1.17.77a42.17,42.17,0,0,0-5-2Z"/>
        <path d="M104.46,296.91a29.09,29.09,0,0,0-3-1.92l.77-.94c1,.54,2.34,1.3,3,1.78Zm1.13,2.54c-.73,1.89-1.74,4.11-2.59,5.76l-1.19-.73a55.72,55.72,0,0,0,2.74-5.77Zm-.28-7.24c-.69-.54-2-1.42-3-2l.77-.92c1,.56,2.32,1.39,3,1.91Zm2.81,2.61c0,3.14-.31,7.59-2.44,10.59a4.24,4.24,0,0,0-1.09-.7c2-2.88,2.21-6.93,2.21-9.89v-4.91h11v1.22h-9.63Zm2.86,5.89a18,18,0,0,1-2.27,3.69,11.86,11.86,0,0,0-1.08-.68,12,12,0,0,0,2.14-3.33Zm2.66-1.33v4.7c0,.67-.1,1-.61,1.21a7.66,7.66,0,0,1-2.45.18,4.37,4.37,0,0,0-.38-1.16c.87,0,1.66,0,1.86,0s.3-.07.3-.27v-4.68h-3.22V293.2h2.72a17.59,17.59,0,0,0,.52-1.81l1.5.3c-.26.52-.51,1.05-.74,1.51h3.92v6.18Zm-3.29-3.58h5.47v-1.57h-5.47Zm0,2.55h5.47v-1.58h-5.47Zm5.65,1.89c.7,1.1,1.6,2.58,2,3.44l-1.22.54a37.72,37.72,0,0,0-2-3.53Z"/>
        <path d="M104.33,309.4a12.54,12.54,0,0,1-1.87,2.33,10,10,0,0,0-.93-.89,11.1,11.1,0,0,0,2.75-3.92l1.19.32c-.16.36-.33.72-.52,1.08h4.64v1.08h-3.4a17.81,17.81,0,0,1,1.57,1.57l-.89.74a20.12,20.12,0,0,0-1.67-1.78l.68-.53Zm5.5,1.28a9.64,9.64,0,0,1,.72,1.39h6.55V315h-1.33v-1.87h-11.9V315h-1.3v-2.93h6.61a10.84,10.84,0,0,0-.54-1.14Zm-4,8.37h10v4.4h-1.32v-.58h-8.66v.61h-1.33v-9.25h10.37v3.58h-9Zm0-3.79v1.53h7.73v-1.53Zm0,4.84v1.73h8.66V320.1Zm11.94-11.76v1.06H114a17.75,17.75,0,0,1,1.85,1.68l-.9.79A17.78,17.78,0,0,0,113,310l.77-.63h-2a9.13,9.13,0,0,1-1.32,1.48,7.09,7.09,0,0,0-1-.79,7.44,7.44,0,0,0,2.24-3.17l1.22.3a9.33,9.33,0,0,1-.5,1.12Z"/>
        <path d="M107.29,337.76c-1.93.64-4,1.35-5.58,1.87l-.31-1.35c.67-.2,1.49-.45,2.41-.76v-4.84h-2v-1.26h2v-3.91h-2.23v-1.26h5.58v1.26h-2.07v3.91h1.82v1.26h-1.82v4.45l2-.65ZM118,339.67v1.22h-11.6v-1.22h5.47V337.2h-4.08V336h4.08v-2.1H108v-8h9.15v8h-3.92V336h4.19v1.23h-4.19v2.47Zm-8.77-10.38H112V327h-2.73Zm0,3.41H112v-2.31h-2.73Zm6.64-5.67h-2.75v2.26h2.75Zm0,3.36h-2.75v2.31h2.75Z"/>
        <path d="M116.63,357.48c0,.92-.2,1.39-.81,1.63a11.93,11.93,0,0,1-3.35.25,4.59,4.59,0,0,0-.47-1.44c1.25,0,2.49,0,2.85,0s.43-.11.43-.46v-12H102.34V344.2h14.29Zm-3.4-8.93H102.46v-1.2h10.77Zm-8.32,7.66v1.31H103.6v-7H112v5.73Zm0-4.54V355h5.78v-3.35Z"/>
      </g>
      <g>
        <path d="M41.52,282.71a25,25,0,0,1-.9,4.36,5.92,5.92,0,0,0-1-.38,16.86,16.86,0,0,0,.87-4.16Zm3.1-.86c0-.31-.11-.67-.2-1.08-3.42.66-3.94.79-4.23,1a8.81,8.81,0,0,0-.42-1.17c.38-.09.74-.52,1.27-1.21a22.7,22.7,0,0,0,1.44-2.14,9.2,9.2,0,0,0-2.42.49,12.15,12.15,0,0,0-.41-1.19c.31-.08.59-.44.9-1A22.76,22.76,0,0,0,42.6,271l1.21.47a27.94,27.94,0,0,1-2.47,4.82l1.82-.18c.41-.74.85-1.55,1.19-2.34l1.13.56a36.26,36.26,0,0,1-3.76,5.83l2.47-.41a13.79,13.79,0,0,0-.44-1.59l1-.23a23.31,23.31,0,0,1,.93,3.56Zm-1.46.66a31.92,31.92,0,0,1,.5,3.84l-1,.23c-.06-1-.26-2.64-.45-3.87Zm1.66-.41a22.18,22.18,0,0,1,1,2.95l-1,.35a30.88,30.88,0,0,0-1-3Zm4.57.45a23.26,23.26,0,0,1-2.54,3.82,8.18,8.18,0,0,0-1-.76,18.09,18.09,0,0,0,2.37-3.42Zm2.32-1.66v6.52H50.4v-6.52H46.11v-1.18h9.78v1.18Zm-4-4.61H46.47v-3H50.6c-.22-.62-.51-1.37-.78-2l1.24-.32a17.5,17.5,0,0,1,1,2.29H55.8v3H54.54v-1.81H47.68Zm.2,1.43v-1.17h6.46v1.17Zm6,4.44a28,28,0,0,1,2.23,3.55l-1.15.54a34.76,34.76,0,0,0-2.16-3.65Z"/>
        <path d="M49.44,289.57c-.18.28-.37.54-.57.81a21.08,21.08,0,0,0,7.47,4.91,4.09,4.09,0,0,0-.92,1.21,31.28,31.28,0,0,1-2.92-1.6v1.22h-9v-.92a24.21,24.21,0,0,1-2.75,1.46,5.25,5.25,0,0,0-1-1.17,18.64,18.64,0,0,0,8.51-6.5Zm-6.89,8.71H53.64v7.1H52.25v-.94H43.9v1H42.55Zm1.35,1.19v3.73h8.35v-3.73Zm8.57-4.59a20.62,20.62,0,0,1-4.38-3.55A20.11,20.11,0,0,1,44,294.88Z"/>
        <path d="M46,321c-.43-.72-1.53-2.18-2.32-3.22a9.83,9.83,0,0,1-3,5.45,4.37,4.37,0,0,0-.94-.93c2.2-1.79,2.83-4.51,3-6.92h-2.9v-1.22h3c0-.4,0-.8,0-1.16v-1.78H40.21V310H42.8v-2.8h1.26V310h2.5v1.2h-2.5V313c0,.36,0,.76,0,1.16h2.87v1.22H44c0,.33-.07.67-.11,1,.7.76,2.59,3,3,3.62Zm8.77,1c.32,0,.41-.18.45-1.44a3.23,3.23,0,0,0,1.11.49c-.12,1.69-.48,2.14-1.44,2.14H53.37c-1.23,0-1.51-.36-1.51-1.62v-3.85h-1.3c-.34,2.71-1.28,4.68-4.3,5.78a3.44,3.44,0,0,0-.76-1c2.72-.9,3.49-2.56,3.78-4.77H47.57v-10h7.67v10H53.1v3.85c0,.38,0,.43.43.43ZM48.81,310.7H54V309H48.81Zm0,2.9H54v-1.78H48.81Zm0,2.88H54V314.7H48.81Z"/>
        <path d="M39.77,339.94c2.51-.09,6.49-.29,10.29-.47l0,1c-3.69.2-7.58.42-10.12.54Zm9.22-12h1.07v.92H49v1.84H45.48v.77h3.77v.85H45.48v.83H50v.93H39.9v-.93h4.36v-.83H40.73v-.85h3.53v-.77h-3.4v-.87h3.4v-1H39.79v-.92h4.47V327H40.93v-.84h3.33v-1.15h1.22v1.15H49Zm0,6.9v4H41v-4Zm-6.93,1.64h2.32v-.88H42.06Zm0,1.58h2.32v-.9H42.06Zm3.42-10.12h2.34V327H45.48Zm2.34.92H45.48v1h2.34Zm0,6.74H45.55v.88h2.31Zm0,1.56H45.55v.9h2.31ZM52,337H50.79v-9.85H52Zm3.44-11.63v14.38c0,.81-.22,1.19-.74,1.41a9,9,0,0,1-2.77.21,5,5,0,0,0-.45-1.24c1,0,2,0,2.27,0s.41-.09.41-.4V325.41Z"/>
        <path d="M54.92,357.48c0,.92-.2,1.39-.81,1.63a12,12,0,0,1-3.35.25,4.86,4.86,0,0,0-.47-1.44c1.24,0,2.48,0,2.85,0s.43-.11.43-.46v-12h-13V344.2h14.3Zm-3.41-8.93H40.75v-1.2H51.51Zm-8.31,7.66v1.31H41.88v-7h8.41v5.73Zm0-4.54V355H49v-3.35Z"/>
      </g>
      <g>
        <path d="M140.34,282.86a3.87,3.87,0,0,1-1.55,2.37,15.65,15.65,0,0,1,2.07,1.07l-.88.77a20.65,20.65,0,0,0-2.21-1.17,18.76,18.76,0,0,1-5.05,1.55,3.82,3.82,0,0,0-.55-.9,18.78,18.78,0,0,0,4.34-1.19,21.59,21.59,0,0,0-2.78-1c.29-.36.62-.76.92-1.19l-2.12.11-.13-1c.81,0,1.82-.07,2.92-.11.27-.49.56-.95.81-1.42h-2.94v-2.94h3.41v-.73h-2.9v-2h-1.21v-1h1.21v-1.83h2.9V271h1.06v1.26h3.06v1.83h1.22v1h-1.22v2h-3.06v.73h3.49v2.94h-3.8a13,13,0,0,1-.75,1.35l2.73-.15v-.84h1.1v.79l.9-.05,0,.93Zm-6-3h2.25v-1.12h-2.25Zm.5-6.65v1h1.75v-1Zm1.75,2.94v-1.08h-1.75v1.08Zm-.63,6.93c-.18.29-.38.56-.56.81.74.24,1.51.52,2.25.83a3.5,3.5,0,0,0,1.51-1.8Zm1.69-9.87v1h1.87v-1Zm1.87,2.94v-1.08h-1.87v1.08Zm-1.87,2.59v1.12H140v-1.12Zm9.79-3.08a25.71,25.71,0,0,1-1.64,6.9,8.93,8.93,0,0,0,3.05,3.74,4.17,4.17,0,0,0-.81,1,9,9,0,0,1-2.83-3.41,10.65,10.65,0,0,1-3.26,3.71,3.91,3.91,0,0,0-.74-1,9.35,9.35,0,0,0,3.39-4.06,24.24,24.24,0,0,1-1.32-4.75,11,11,0,0,1-.95,2,10.82,10.82,0,0,0-.92-.81,21.09,21.09,0,0,0,2.31-7.76l1.13.18c-.14,1-.34,2.11-.58,3.12h4.4v1.2Zm-3.45,0a30,30,0,0,0,1.2,5.33,25.8,25.8,0,0,0,1.05-5.33Z"/>
        <path d="M138,289.48a26.08,26.08,0,0,1-1.82,3.81v12.16h-1.33V295.38a18.88,18.88,0,0,1-1.78,2.18,6.73,6.73,0,0,0-.76-1.31,19.93,19.93,0,0,0,4.43-7.15Zm10.66,14v1.3h-11.2v-1.3h6.28a79.43,79.43,0,0,0,1.72-8.91l1.38.25c-.47,2.75-1.21,6.26-1.85,8.66Zm-.74-9.87h-9.7v-1.29h9.7Zm-7.31,9a63.44,63.44,0,0,0-1.22-7.67l1.2-.27a70.65,70.65,0,0,1,1.34,7.56Zm2-10.53a20.84,20.84,0,0,0-.85-2.86l1.26-.33a27.72,27.72,0,0,1,.9,2.79Z"/>
        <path d="M147.56,311.62a20.56,20.56,0,0,1-2.38,7.36,9,9,0,0,0,3.75,3.37,7.21,7.21,0,0,0-.92,1.13,10,10,0,0,1-3.62-3.31,11.81,11.81,0,0,1-4,3.35,6.37,6.37,0,0,0-.77-1.17,10.17,10.17,0,0,0,4.08-3.4,22.14,22.14,0,0,1-1.85-5.12,15.29,15.29,0,0,1-1.17,2,9.24,9.24,0,0,0-1.06-.89l.09-.12h-2v4.57l3.08-.7.13,1.2c-3,.73-6.14,1.48-8.38,2l-.25-1.34,1.06-.21v-8h1.23V320l1.83-.4v-10h-3.81v-1.29h8.22v1.29h-3.11v3.93h2.45v.63a20.14,20.14,0,0,0,2.5-7.13l1.33.23c-.21,1.06-.48,2.13-.77,3.1h5.62v1.26Zm-4.95.3a22.43,22.43,0,0,0,1.82,5.75,19.46,19.46,0,0,0,1.78-6.05h-3.47Z"/>
        <path d="M135,328.23v5.3c0,2.43-.19,5.85-1.53,8a4.92,4.92,0,0,0-1.13-.77c1.22-2,1.33-5,1.33-7.27V327h7.17a16.77,16.77,0,0,0-.81-1.77l1.31-.37c.36.66.78,1.51,1,2.14h6.23v1.24Zm5,.74a20.87,20.87,0,0,1-1.34,3v9.5h-1.26v-7.54a13.27,13.27,0,0,1-1.42,1.64,11.42,11.42,0,0,0-.61-1.21,14.77,14.77,0,0,0,3.33-5.76Zm8.58,3.76h-2.05v7.08c0,.81-.18,1.19-.72,1.42a9,9,0,0,1-2.83.24,5.72,5.72,0,0,0-.45-1.34c1.05.06,2,0,2.29,0s.4-.09.4-.38v-7.06h-5.39v-1.26h5.39v-2.68h1.31v2.68h2.05Zm-7,1.25a23.18,23.18,0,0,1,2.09,3.51l-1.13.55a33.6,33.6,0,0,0-2-3.6Z"/>
        <path d="M147.49,357.48c0,.92-.2,1.39-.81,1.63a12,12,0,0,1-3.35.25,4.59,4.59,0,0,0-.47-1.44c1.24,0,2.49,0,2.85,0s.43-.11.43-.46v-12H133.19V344.2h14.3Zm-3.4-8.93H133.32v-1.2h10.77Zm-8.32,7.66v1.31h-1.32v-7h8.41v5.73Zm0-4.54V355h5.78v-3.35Z"/>
      </g>
      <g>
        <path d="M173.39,281.15c.94,2.86,2.6,4.82,4.2,4.8.52,0,.74-.74.83-2.63a3.34,3.34,0,0,0,1.17.63c-.22,2.63-.76,3.32-2.07,3.32-2.41,0-4.49-2.54-5.53-6.12h-5.42v4.5l4.32-1a5.67,5.67,0,0,0,.15,1.23c-4.9,1.31-5.57,1.47-6,1.74a4.28,4.28,0,0,0-.63-1.22,1.45,1.45,0,0,0,.79-1.32V272h12.73v5.21h-5.26a16.8,16.8,0,0,0,.4,2.72h6.19v1.26Zm-6.82-7.93v2.69h10v-2.69Zm5.1,6.67a19.4,19.4,0,0,1-.36-2.72h-4.74v2.72Z"/>
        <path d="M179.41,303.58v1.31H163.49v-1.31h7.2v-4.42h-5.54v-1.29h5.54v-3.95h-6.37v-1.31h7.9a19.89,19.89,0,0,0-3.06-2.75l1.08-.76a20.18,20.18,0,0,1,3.3,2.9l-.85.61h5.82v1.31h-6.39v3.95h5.65v1.29h-5.65v4.42Z"/>
        <path d="M165,318.71a24.34,24.34,0,0,1-.88,4.34,6.47,6.47,0,0,0-1-.36,21.91,21.91,0,0,0,.84-4.14Zm3.57-4.84a29.31,29.31,0,0,1,1.2,3.44l-1,.39c-.05-.25-.14-.55-.21-.86-4,.63-4.56.76-4.9.94a5.66,5.66,0,0,0-.38-1.17c.36-.08.76-.53,1.28-1.21a22.3,22.3,0,0,0,1.48-2.11,8.36,8.36,0,0,0-2.49.44,12,12,0,0,0-.38-1.16c.29-.07.6-.45,1-1a23.57,23.57,0,0,0,2.3-4.54l1.14.49a28.71,28.71,0,0,1-2.72,4.83l1.89-.18a25.54,25.54,0,0,0,1.31-2.49l1,.63a36.24,36.24,0,0,1-3.95,6l3.1-.43c-.2-.58-.43-1.15-.63-1.68Zm-1.8,4.61a28.73,28.73,0,0,1,.5,3.78l-1,.25a35.4,35.4,0,0,0-.43-3.85Zm1.89-.47a27,27,0,0,1,1.06,3.46l-.94.34a25.92,25.92,0,0,0-1-3.49Zm10.51,4c0,.74-.14,1.06-.61,1.28a5.85,5.85,0,0,1-2.27.23,5.25,5.25,0,0,0-.34-1.18c.75,0,1.47,0,1.69,0s.31-.09.31-.34V309.08h-6.74V323.5h-1.2V307.89h9.16Zm-2.9-3a5.29,5.29,0,0,0,1.06-.09c0,.31.08.72.11,1a5,5,0,0,1-1.15.09H174c-1.18,0-1.45-.43-1.45-1.62v-1.75h-.67v-1.06h2.45a11.54,11.54,0,0,0-.7-1.58l.83-.33h-2.76v-1.06h3.42a19.17,19.17,0,0,0,.85-3l1,.29c-.27.88-.59,1.91-.88,2.68h1.53v1.06h-3a17,17,0,0,1,.8,1.62l-.65.29h2.66v1.06h-3.71v1.77c0,.47.06.61.44.61Zm-3.15-9.42a8.87,8.87,0,0,1,1,2.56l-.86.31a9.9,9.9,0,0,0-.94-2.58Z"/>
        <path d="M168.48,335.92c0-.31-.13-.65-.23-1.06-3.73.61-4.25.72-4.6.9-.07-.25-.27-.9-.41-1.26.38-.06.79-.51,1.33-1.15a22.33,22.33,0,0,0,1.55-2.08,9.36,9.36,0,0,0-2.57.46,12.64,12.64,0,0,0-.42-1.21c.29-.07.63-.43,1-1a24.43,24.43,0,0,0,2.47-4.54l1.22.52a29.54,29.54,0,0,1-2.92,4.81l2-.15c.47-.79,1-1.62,1.35-2.43l1.15.69a34.37,34.37,0,0,1-4.09,5.8l2.71-.4c-.17-.59-.38-1.19-.58-1.75l1-.23a24.45,24.45,0,0,1,1.13,3.71Zm-3.37.81a23.21,23.21,0,0,1-.9,4.38,5.77,5.77,0,0,0-1.08-.42,19.72,19.72,0,0,0,.87-4.14Zm1.89-.23a32.23,32.23,0,0,1,.51,3.87l-1.08.21a34.12,34.12,0,0,0-.45-3.9Zm1.73-.42a21.88,21.88,0,0,1,1,3.33l-1,.35a26.67,26.67,0,0,0-.95-3.39Zm10.12-8.75a14.08,14.08,0,0,1-3,4.58,13.78,13.78,0,0,0,4,2.41,4.73,4.73,0,0,0-.85,1.11,2.35,2.35,0,0,1-.4-.18v6.11h-1.29v-.58h-5v.61h-1.26v-6.05a4.56,4.56,0,0,1-.61.27,4.64,4.64,0,0,0-.79-1.06,14.63,14.63,0,0,0,4.39-2.66,16.2,16.2,0,0,1-1.87-2.52,12.48,12.48,0,0,1-1.75,1.74,9.15,9.15,0,0,0-1-.92,12.27,12.27,0,0,0,3.94-5.22l1.27.35a16.48,16.48,0,0,1-.81,1.63h3.9l.24-.07Zm-.86,7.6a13.85,13.85,0,0,1-3-2.16,16.18,16.18,0,0,1-3.08,2.16Zm-.65,4.66v-3.45h-5v3.45ZM173,328.38a12.68,12.68,0,0,0,2,2.66,11.45,11.45,0,0,0,2.14-3h-3.94Z"/>
        <path d="M178.35,357.48c0,.92-.2,1.39-.81,1.63a12,12,0,0,1-3.35.25,5.17,5.17,0,0,0-.47-1.44c1.24,0,2.48,0,2.84,0s.44-.11.44-.46v-12H164.05V344.2h14.3Zm-3.41-8.93H164.18v-1.2h10.76Zm-8.32,7.66v1.31h-1.31v-7h8.41v5.73Zm0-4.54V355h5.78v-3.35Z"/>
      </g>
      <g>
        <path d="M210.21,279.38c-2.5,5.3-8.64,7.38-15,8.14a4.48,4.48,0,0,0-.54-1.3,27.64,27.64,0,0,0,8.41-2,20.45,20.45,0,0,0-2.52-2.24,24.8,24.8,0,0,1-2.83,1.32,3.57,3.57,0,0,0-.84-1,16.43,16.43,0,0,0,7.5-5.08l1.48.32a14.49,14.49,0,0,1-1.19,1.34H209l.27-.08Zm-2.66-6.3c-2.27,4-7.51,6.39-12.18,7.36a4.15,4.15,0,0,0-.62-1.2,23.92,23.92,0,0,0,6-1.93,18.38,18.38,0,0,0-2.41-2.05c-.65.39-1.37.75-2.11,1.12a4.23,4.23,0,0,0-.9-.94A15.84,15.84,0,0,0,201.5,271l1.46.31a16.89,16.89,0,0,1-1.17,1.27h4.66l.23,0Zm-7.13.72a13,13,0,0,1-1.07.81,15.27,15.27,0,0,1,2.58,2.11,12.23,12.23,0,0,0,3.56-2.92Zm2.93,6.32a16.71,16.71,0,0,1-1.67,1.22,22.55,22.55,0,0,1,2.66,2.27,10.57,10.57,0,0,0,3.87-3.49Z"/>
        <path d="M208.29,303.88c.72,0,.82-.47.91-3.22a4.33,4.33,0,0,0,1.25.59c-.15,3.06-.51,3.91-2.08,3.91H205.8c-1.6,0-2-.47-2-2v-6.41H200.4c-.34,3.85-1.21,7-5.35,8.68a3.63,3.63,0,0,0-.84-1c3.83-1.46,4.5-4.27,4.77-7.64h-4.56v-1.29h15.76v1.29h-5.06v6.39c0,.62.14.74.84.74Zm.37-12.15H196v-1.28h12.67Z"/>
        <path d="M196.64,317.83a12.28,12.28,0,0,1-1.57,4.9,5.59,5.59,0,0,0-1.14-.6c1.41-2.14,1.61-5.11,1.61-7.13v-2.43h7.34v5.26Zm3.6-10.19-.29.43a42,42,0,0,1,4,2.61l-.7,1.1a41.51,41.51,0,0,0-4-2.75,15.77,15.77,0,0,1-4.52,3.65,6.73,6.73,0,0,0-.74-1.22,12.22,12.22,0,0,0,5.06-4.29Zm-3.62,11h6.68v4.66h-1.19v-.7h-4.34v.74h-1.15Zm5-1.82v-1.22H196.8c0,.37,0,.81-.07,1.22Zm-4.84-3.28v1.15h4.84v-1.15Zm4.46-2.77v.88h-3.78v-.88Zm-3.49,8.88v1.89h4.34v-1.89Zm8.41-.78h-1.26V309h1.26Zm3.4-11.77v14.56c0,.85-.21,1.26-.72,1.48a8.45,8.45,0,0,1-2.88.27,6.73,6.73,0,0,0-.45-1.33c1.08,0,2.05,0,2.34,0s.42-.11.42-.42V307.12Z"/>
        <path d="M196.92,336.42a14.08,14.08,0,0,1-1.85,3.59,9.7,9.7,0,0,0-.94-.65,10,10,0,0,0,1.7-3.24Zm2.22-1.26v6.25h-1.32v-6.25h-3.58V334h3.58v-1.89h-3.67V331h5a24.57,24.57,0,0,0,1-2.85l1.23.25c-.33.87-.67,1.84-1,2.6h2.29v1.13h-3.46V334h3.26v1.15Zm3.19-7.13h-7.89v-1.11H198c-.24-.54-.54-1.15-.79-1.64l1.29-.34a12.77,12.77,0,0,1,1,2h2.85Zm-6,2.89a12.46,12.46,0,0,0-.68-2.51l1.06-.25a8.8,8.8,0,0,1,.74,2.45Zm4.58,5.09a18.8,18.8,0,0,1,1.51,2.83l-1,.54A17.86,17.86,0,0,0,200,336.5Zm9.59-3.69h-2v9.07h-1.29v-9.07h-2.47V333c0,2.57-.23,6.1-1.87,8.44a4.72,4.72,0,0,0-1-.81c1.51-2.16,1.66-5.24,1.66-7.63v-6.19a29,29,0,0,0,5.6-1.41l1.08,1a29.14,29.14,0,0,1-5.44,1.3v3.42h5.74Z"/>
        <path d="M209.2,357.48c0,.92-.19,1.39-.81,1.63a11.93,11.93,0,0,1-3.35.25,4.83,4.83,0,0,0-.46-1.44c1.24,0,2.48,0,2.84,0s.43-.11.43-.46v-12H194.91V344.2H209.2Zm-3.4-8.93H195v-1.2H205.8Zm-8.32,7.66v1.31h-1.31v-7h8.41v5.73Zm0-4.54V355h5.78v-3.35Z"/>
      </g>
    </g>
    <g>
      <line class="cls-4" x1="332.41" y1="167.61" x2="304.86" y2="167.61"/>
      <line class="cls-4" x1="305.22" y1="42.23" x2="305.39" y2="387.78"/>
      <path class="cls-4" d="M227.37,113.59l.7-22.61c.13-4.33,4.27-7.79,9.34-7.79H371.32c5.16,0,9.35,3.59,9.35,8v22.4"/>
      <rect class="cls-7" x="172.37" y="97.94" width="110" height="31.66" rx="5"/>
      <rect class="cls-8" x="325.67" y="151.61" width="110" height="32" rx="5" transform="translate(761.33 335.23) rotate(-180)"/>
      <rect class="cls-7" x="325.67" y="97.59" width="110" height="31.66" rx="5"/>
      <g>
        <path class="cls-9" d="M204.18,109.23a20.56,20.56,0,0,1-2.37,7.36,8.91,8.91,0,0,0,3.74,3.37,6.85,6.85,0,0,0-.92,1.14,10.09,10.09,0,0,1-3.62-3.32,11.71,11.71,0,0,1-4,3.35,6.73,6.73,0,0,0-.77-1.17,10.19,10.19,0,0,0,4.09-3.4,21.78,21.78,0,0,1-1.86-5.11,15.15,15.15,0,0,1-1.17,2,7.62,7.62,0,0,0-1.06-.88l.09-.13h-2V117l3.08-.7.13,1.21c-3,.72-6.14,1.47-8.38,2l-.25-1.33,1.06-.22v-8h1.23v7.72l1.84-.4v-10h-3.82v-1.29h8.23v1.29h-3.12v3.93h2.45v.63a19.87,19.87,0,0,0,2.5-7.13l1.34.23c-.22,1.07-.49,2.13-.78,3.1h5.62v1.26Zm-5,.31a22.88,22.88,0,0,0,1.82,5.74,19.46,19.46,0,0,0,1.78-6h-3.47Z"/>
        <path class="cls-9" d="M223.62,107.68a8.73,8.73,0,0,1-2.12,3.1,13,13,0,0,0,3.91,1.58,5.46,5.46,0,0,0-.87,1.14,13,13,0,0,1-4-1.91,13.87,13.87,0,0,1-4,1.89,8.21,8.21,0,0,0-.45-.74,18.74,18.74,0,0,1-1.12,2.83l-.92-.51a17.1,17.1,0,0,0,1-2.93h-1.73v7.4c0,.68-.13,1-.59,1.24a7.09,7.09,0,0,1-2.26.2,4.94,4.94,0,0,0-.41-1.19c.77,0,1.48,0,1.71,0s.29-.07.29-.27v-5.67a14.84,14.84,0,0,1-2.59,4.36,7.09,7.09,0,0,0-.72-1.26,13.94,13.94,0,0,0,2.9-4.83h-2.72v-1.19h4.82a17.12,17.12,0,0,0-4-2.41l.8-.87a20,20,0,0,1,1.8.89,12.57,12.57,0,0,0,1.89-1.82h-5.12v-1.17h6.07l.24-.06.88.58a14.14,14.14,0,0,1-2.94,3.06,10.1,10.1,0,0,1,1.5,1.08l-.61.72h1.24l.2-.07.81.32c-.09.33-.18.65-.29,1a12.55,12.55,0,0,0,3.28-1.42,10.11,10.11,0,0,1-1.88-2.21,13.46,13.46,0,0,1-1.44,1.4,7.55,7.55,0,0,0-1-.86,11.17,11.17,0,0,0,3.49-4.43l1.28.34a13.51,13.51,0,0,1-.81,1.55h6v1.13Zm-.36,7h1.35a4.76,4.76,0,0,1-.05.59c-.31,3.35-.67,4.7-1.19,5.22a1.6,1.6,0,0,1-1.22.47,17.5,17.5,0,0,1-2,0,2.61,2.61,0,0,0-.36-1.17c.79.08,1.55.09,1.89.09a.8.8,0,0,0,.61-.18c.36-.34.63-1.4.9-3.85h-3a7.32,7.32,0,0,1-4.79,5.37,4.72,4.72,0,0,0-.84-1.1,6.2,6.2,0,0,0,4.25-4.27H216v-1.13h3.1a17.35,17.35,0,0,0,.23-1.8h1.35a17.35,17.35,0,0,1-.23,1.8h2.84Zm-4.86-7a8.5,8.5,0,0,0,2,2.34,6.71,6.71,0,0,0,1.72-2.34Z"/>
        <path class="cls-9" d="M234.38,116.16h-5.65v-1.31h5.65Zm-.54-7.4h-4.71v-1.29h4.71Zm5.33,2.43c0,.27,0,.54,0,.8.82,3.8,2.61,6.68,5.88,7.81a5.87,5.87,0,0,0-.88,1.17,9.58,9.58,0,0,1-5.4-6.14c-.63,2.2-2.11,4.5-5.55,6.3a6.14,6.14,0,0,0-1-1c5.16-2.61,5.56-6.36,5.56-8.93v-1.37h1.4ZM236.29,109a17.52,17.52,0,0,1-1.89,3.78,8,8,0,0,0-1.31-.75,18.13,18.13,0,0,0,2.9-7.4l1.44.27a27.75,27.75,0,0,1-.7,2.79h6.51l.26-.07,1,.52a26.59,26.59,0,0,1-1.9,4.88c-.28-.16-.79-.43-1.11-.58a21.2,21.2,0,0,0,1.33-3.44Z"/>
        <path class="cls-9" d="M263.8,115.35a29.17,29.17,0,0,1-3.89,2.36,12.44,12.44,0,0,0,5.1,2.05,6.87,6.87,0,0,0-.83,1.19,11.38,11.38,0,0,1-8.47-6.48h-2.88v4.83l4.87-1.17c0,.34-.06.88,0,1.17-5,1.27-5.92,1.53-6.34,1.74l-.07.06a6.74,6.74,0,0,0-.61-1.32,1.43,1.43,0,0,0,.88-1.28v-4H248.6v-1.21h3.15v-7.9h11.08v1.13H253.1V108h9.19v1.1H253.1v1.5h9.19v1.08H253.1v1.54h11.47v1.21h-7.51A9.34,9.34,0,0,0,259,117a26.16,26.16,0,0,0,3.69-2.38Z"/>
      </g>
      <g>
        <path class="cls-9" d="M358.75,173.9v1.32H342.83V173.9H350v-4.41h-5.55V168.2H350v-3.95h-6.38v-1.31h7.91a20.46,20.46,0,0,0-3.06-2.76l1.08-.75a20.51,20.51,0,0,1,3.29,2.9l-.84.61h5.81v1.31h-6.39v3.95h5.65v1.29h-5.65v4.41Z"/>
        <path class="cls-9" d="M368.2,159.88a28.26,28.26,0,0,1-1.93,3.8v12.1H365V165.66a18.45,18.45,0,0,1-2.15,2.44,7.73,7.73,0,0,0-.82-1.33,19.7,19.7,0,0,0,4.89-7.29Zm5.6,8.5v5.45h4.63v1.3H367.87v-1.3h4.6v-5.45h-5.15v-1.3h5.15v-4.74h-4v-1.28h9.58v1.28H373.8v4.74h5v1.3Z"/>
        <path class="cls-9" d="M387.37,170.19c-.24-.54-.76-1.54-1.23-2.39v8h-1.26v-7.47a17.72,17.72,0,0,1-2.16,4.32,5.32,5.32,0,0,0-.7-1.28,19.42,19.42,0,0,0,2.72-5.65h-2.32v-1.26h2.46v-2.9c-.63.14-1.27.27-1.87.38a6.58,6.58,0,0,0-.39-1.07,21.68,21.68,0,0,0,4.77-1.4l.82,1.08a15.52,15.52,0,0,1-2.07.72v3.19h2.07v1.26h-2.07v.39c.45.6,1.77,2.49,2.06,3Zm10.05,1.07a22.25,22.25,0,0,0-1.7-5.33,26.1,26.1,0,0,1-3.35,5.92v1.76c0,.73.11.85.78.85h2.12c.62,0,.72-.47.8-2.68a2.6,2.6,0,0,0,1.15.52c-.15,2.58-.49,3.33-1.84,3.33H393c-1.5,0-1.89-.43-1.89-2v-.24a18,18,0,0,1-2.33,2.13,7.66,7.66,0,0,0-1.08-.92,17.77,17.77,0,0,0,3.41-3.19v-8.15h1.27v6.41a32.08,32.08,0,0,0,3.88-9.17l1.27.25a43.25,43.25,0,0,1-1.78,5.19l1.14-.34a23.06,23.06,0,0,1,1.74,5.33Zm-9.64-.63a17.59,17.59,0,0,0,1.32-5.55l1,.23a20.1,20.1,0,0,1-1.29,5.71Zm6.34-7.67a20.54,20.54,0,0,0-3.44-2.72l.81-.89A19.09,19.09,0,0,1,395,162Z"/>
        <path class="cls-9" d="M418.1,168.41v1H402.2v-1h7.2v-1.06h-6v-.9h6v-.92h-5.51v-.9h5.51v-1.12h-7.18v-1h7.18v-1h-5.29v-.9h5.29v-1.26h1.33v1.26h5.15v1.91H418v1h-2.15v2h-5.15v.92h6.09v.9h-6.09v1.06Zm-13.61,1.89H416v5.58h-1.33v-.63h-8.86v.63h-1.29Zm1.29.92v1.08h8.86v-1.08Zm8.86,3.1v-1.14h-8.86v1.14Zm-3.91-11.81h3.82v-1h-3.82Zm0,2.12h3.82v-1.12h-3.82Z"/>
      </g>
      <g>
        <path class="cls-9" d="M357.64,111.28h-1.31V108.6H344v2.68h-1.27v-3.85h2.88a12,12,0,0,0-1.41-2.12l1.19-.49a10.84,10.84,0,0,1,1.53,2.11l-1.12.5h3.77v-2.79h1.35v2.79h6.73Zm-1.1,7.62c0,.7-.14,1.06-.7,1.26a9.2,9.2,0,0,1-2.84.22,5.77,5.77,0,0,0-.47-1.23c1.08,0,2,0,2.3,0s.36-.07.36-.29v-2.52H351v4.74h-1.35v-4.74h-4.45v3.93h-1.33v-5.15h5.78v-1.48h-4.18v-3.78h9.4v3.78H351v1.48h5.52Zm-9.77-6.25h6.79v-1.76h-6.79Zm9.41-7.38a23.06,23.06,0,0,1-1.8,2.16L353.3,107a13.59,13.59,0,0,0,1.5-2.2Z"/>
        <path class="cls-9" d="M376.56,107.68a8.63,8.63,0,0,1-2.13,3.1,13.26,13.26,0,0,0,3.91,1.58,5.42,5.42,0,0,0-.86,1.14,12.92,12.92,0,0,1-4.05-1.91,13.93,13.93,0,0,1-4,1.89,8.21,8.21,0,0,0-.45-.74,18.79,18.79,0,0,1-1.11,2.83l-.92-.51a16.31,16.31,0,0,0,1-2.93h-1.72v7.4c0,.68-.13,1-.6,1.24a7.06,7.06,0,0,1-2.25.2,4.94,4.94,0,0,0-.41-1.19c.77,0,1.47,0,1.71,0s.29-.07.29-.27v-5.67a14.85,14.85,0,0,1-2.6,4.36,6,6,0,0,0-.72-1.26,13.64,13.64,0,0,0,2.9-4.83h-2.72v-1.19h4.83a17.33,17.33,0,0,0-4-2.41l.79-.87a17.64,17.64,0,0,1,1.8.89,12.11,12.11,0,0,0,1.89-1.82H362v-1.17h6.07l.23-.06.89.58a14.14,14.14,0,0,1-2.94,3.06,10.66,10.66,0,0,1,1.5,1.08l-.62.72h1.25l.19-.07.81.32c-.09.33-.18.65-.28,1a12.34,12.34,0,0,0,3.27-1.42,9.8,9.8,0,0,1-1.87-2.21,13.46,13.46,0,0,1-1.44,1.4,8.2,8.2,0,0,0-1-.86,11.17,11.17,0,0,0,3.49-4.43l1.28.34c-.24.52-.51,1-.81,1.55h6v1.13Zm-.36,7h1.35s0,.39-.05.59c-.31,3.35-.67,4.7-1.19,5.22a1.63,1.63,0,0,1-1.23.47,17.33,17.33,0,0,1-2,0,2.74,2.74,0,0,0-.36-1.17c.79.08,1.54.09,1.89.09a.8.8,0,0,0,.61-.18c.36-.34.63-1.4.9-3.85h-3a7.32,7.32,0,0,1-4.79,5.37,4.76,4.76,0,0,0-.85-1.1,6.18,6.18,0,0,0,4.25-4.27h-2.82v-1.13H372c.11-.58.18-1.19.24-1.8h1.35c-.06.61-.13,1.22-.24,1.8h2.85Zm-4.86-7a8.46,8.46,0,0,0,2,2.34,6.62,6.62,0,0,0,1.73-2.34Z"/>
        <path class="cls-9" d="M387.32,116.16h-5.65v-1.31h5.65Zm-.54-7.4h-4.72v-1.29h4.72Zm5.33,2.43c0,.27,0,.54,0,.8.83,3.8,2.61,6.68,5.89,7.81a5.87,5.87,0,0,0-.88,1.17,9.55,9.55,0,0,1-5.4-6.14c-.63,2.2-2.11,4.5-5.55,6.3a6.2,6.2,0,0,0-1-1c5.17-2.61,5.57-6.36,5.57-8.93v-1.37h1.4ZM389.23,109a17.52,17.52,0,0,1-1.89,3.78,7.67,7.67,0,0,0-1.32-.75,18.13,18.13,0,0,0,2.9-7.4l1.44.27a27.75,27.75,0,0,1-.7,2.79h6.52l.25-.07,1,.52a27.35,27.35,0,0,1-1.89,4.88c-.29-.16-.79-.43-1.11-.58a21.2,21.2,0,0,0,1.33-3.44Z"/>
        <path class="cls-9" d="M416.74,115.35a29.83,29.83,0,0,1-3.89,2.36,12.45,12.45,0,0,0,5.09,2.05,6.87,6.87,0,0,0-.83,1.19,11.38,11.38,0,0,1-8.46-6.48h-2.88v4.83l4.86-1.18c0,.35-.05.89,0,1.18-5.05,1.27-5.93,1.53-6.34,1.74l-.07.06a6.27,6.27,0,0,0-.62-1.32,1.44,1.44,0,0,0,.89-1.28v-4h-2.92v-1.21h3.15v-7.9h11.07v1.13H406V108h9.18v1.1H406v1.49h9.18v1.09H406v1.54h11.47v1.21H410a9.34,9.34,0,0,0,1.93,2.52,26.16,26.16,0,0,0,3.69-2.38Z"/>
      </g>
      <rect class="cls-10" x="255.88" y="25.83" width="97.74" height="32" rx="5"/>
      <g>
        <path class="cls-9" d="M285.31,36.41c-.39,1.05-.9,2.27-1.35,3.21h2.56v1.22h-9.36V39.62h5.51a26.19,26.19,0,0,0,1.31-3.5Zm.79-.39h-8.42V34.79h3.73c-.2-.59-.49-1.29-.74-1.85l1.17-.34a15.8,15.8,0,0,1,1,2.19h3.31Zm-7.92,6.46h7.49v6.37h-1.31v-.72h-4.9V49h-1.28Zm1.71-2.93a14.09,14.09,0,0,0-1.11-3.08l1.15-.29a12.54,12.54,0,0,1,1.19,3Zm-.43,4.14V47h4.9V43.69Zm13.72-9.51c-.65,1.64-1.48,3.69-2.23,5.35a6.06,6.06,0,0,1,2,4.34,2.7,2.7,0,0,1-.81,2.28,2.24,2.24,0,0,1-1.12.38,9.62,9.62,0,0,1-1.53,0,3.18,3.18,0,0,0-.36-1.28,9.62,9.62,0,0,0,1.39,0,1.78,1.78,0,0,0,.72-.17,1.61,1.61,0,0,0,.46-1.41c0-1.13-.45-2.43-2.05-4.07.67-1.51,1.37-3.42,1.86-4.81h-2.87V49.09h-1.2V33.64h4.61l.21-.07Z"/>
        <path class="cls-9" d="M332,43.38a29.17,29.17,0,0,1-3.89,2.36,12.58,12.58,0,0,0,5.1,2,6.87,6.87,0,0,0-.83,1.19,11.4,11.4,0,0,1-8.47-6.48H321v4.82l4.87-1.17c0,.35-.06.89,0,1.17-5,1.28-5.92,1.53-6.34,1.75l-.07,0a7,7,0,0,0-.61-1.31,1.43,1.43,0,0,0,.88-1.28v-4h-2.92V41.29h3.15v-7.9H331v1.13h-9.73v1.55h9.19v1.1h-9.19v1.49h9.19v1.08h-9.19v1.55h11.47V42.5h-7.51A9.34,9.34,0,0,0,327.18,45a27.09,27.09,0,0,0,3.69-2.38Z"/>
      </g>
    </g>
    <g>
      <path class="cls-9" d="M93.88,249.24a16.8,16.8,0,0,1-5.53,2.33,4.67,4.67,0,0,0-.81-1,16.28,16.28,0,0,0,5.33-1.78Zm9.4-2.5v1.14H96.06v4.26H94.74v-4.26H87.63v-1.14h7.11v-1.35H89.32v-1h5.42v-1.29H88.41V242h3.88a7.81,7.81,0,0,0-.91-1.73l1-.25H87.69v-1.12h2.89a14.07,14.07,0,0,0-1.44-2.61l1.14-.4a11,11,0,0,1,1.53,2.65l-.9.36h2.2V235.7h1.26v3.19h2.14V235.7h1.28v3.19H100l-.72-.23a15,15,0,0,0,1.38-2.74l1.37.38c-.5.92-1.1,1.91-1.57,2.59h2.78V240H98.52l1.18.32c-.42.59-.85,1.21-1.25,1.66h4.13v1.08H96.06v1.29h5.63v1H96.06v1.35ZM92.67,240a6.81,6.81,0,0,1,1,1.78l-.74.2h5l-.63-.2A13.68,13.68,0,0,0,98.29,240ZM98,248.69c1.69.55,4,1.42,5.22,2l-.83.85c-1.18-.58-3.47-1.49-5.18-2.12Z"/>
      <path class="cls-9" d="M121.87,238.73a8.82,8.82,0,0,1-2.12,3.1,13.09,13.09,0,0,0,3.9,1.58,5.71,5.71,0,0,0-.86,1.13,13,13,0,0,1-4.05-1.9,14.14,14.14,0,0,1-4,1.89,8.21,8.21,0,0,0-.45-.74,18.18,18.18,0,0,1-1.12,2.82l-.92-.5a17.41,17.41,0,0,0,1-2.93h-1.73v7.4c0,.68-.13,1-.6,1.24a7,7,0,0,1-2.25.2,4.66,4.66,0,0,0-.41-1.19c.77,0,1.48,0,1.71,0s.29-.08.29-.27V244.9a14.71,14.71,0,0,1-2.59,4.36A7.46,7.46,0,0,0,107,248a13.82,13.82,0,0,0,2.89-4.82h-2.71V242H112a17.48,17.48,0,0,0-4-2.42l.8-.86a19.77,19.77,0,0,1,1.8.88,12.55,12.55,0,0,0,1.89-1.82h-5.12V236.6h6.07l.24,0,.88.58a14.14,14.14,0,0,1-2.94,3.06,9.43,9.43,0,0,1,1.5,1.08l-.61.72h1.24l.2-.07.81.32c-.09.32-.18.65-.29,1a12.34,12.34,0,0,0,3.27-1.42,10.4,10.4,0,0,1-1.87-2.22,13.58,13.58,0,0,1-1.44,1.41,6.94,6.94,0,0,0-1-.87,11,11,0,0,0,3.49-4.43l1.28.35a16.18,16.18,0,0,1-.81,1.54h6v1.14Zm-.36,7h1.35s0,.4,0,.6c-.31,3.35-.67,4.7-1.19,5.22a1.68,1.68,0,0,1-1.22.47,20.13,20.13,0,0,1-2,0,2.7,2.7,0,0,0-.36-1.17c.79.07,1.55.09,1.89.09a.84.84,0,0,0,.61-.18c.36-.34.63-1.4.9-3.85h-3a7.29,7.29,0,0,1-4.79,5.36,5.53,5.53,0,0,0-.84-1.1,6.21,6.21,0,0,0,4.25-4.26h-2.83v-1.14h3.1c.1-.57.18-1.19.23-1.8h1.35c-.05.61-.13,1.23-.23,1.8h2.84Zm-4.86-7a8.75,8.75,0,0,0,2,2.34,6.71,6.71,0,0,0,1.73-2.34Z"/>
      <path class="cls-9" d="M143,249.6h-7.31v2.52h-1.35V249.6h-7.15v-1.18h7.15v-1.36h-5.37v-6.28h12.37v6.28h-5.65v1.36H143Zm-8.55-9.67h-5.94v-3.52h5.94Zm-1.28-2.62h-3.46V239h3.46Zm-2.9,6.08h4.07v-1.53h-4.07Zm4.07,2.59v-1.56h-4.07V246Zm5.64-4.12h-4.29v1.53h4.29Zm0,2.56h-4.29V246h4.29Zm1.85-4.49h-6v-3.52h6Zm-1.26-2.62H137V239h3.51Z"/>
      <path class="cls-9" d="M152.27,236.14a25.09,25.09,0,0,1-1.82,3.81v12.16h-1.33V242a18.88,18.88,0,0,1-1.78,2.18,6.73,6.73,0,0,0-.76-1.31,20,20,0,0,0,4.43-7.15Zm10.66,14v1.29h-11.2v-1.29H158a79.62,79.62,0,0,0,1.72-8.92l1.38.26c-.47,2.75-1.2,6.26-1.85,8.66Zm-.74-9.87h-9.7v-1.3h9.7Zm-7.31,9a63.44,63.44,0,0,0-1.22-7.67l1.2-.27a70.22,70.22,0,0,1,1.34,7.56Zm2-10.53a21,21,0,0,0-.85-2.87l1.26-.32a27.72,27.72,0,0,1,.9,2.79Z"/>
    </g>
    <g>
      <path class="cls-9" d="M273,410.56h-5.66v-1.31H273Zm-.54-7.4h-4.72v-1.29h4.72Zm5.32,2.43c0,.27,0,.54,0,.8.82,3.8,2.61,6.68,5.88,7.81a5.87,5.87,0,0,0-.88,1.17,9.58,9.58,0,0,1-5.4-6.14c-.63,2.2-2.11,4.5-5.55,6.3a6.14,6.14,0,0,0-1-1c5.16-2.61,5.56-6.36,5.56-8.93v-1.37h1.4Zm-2.88-2.16a17.08,17.08,0,0,1-1.89,3.78,8,8,0,0,0-1.31-.75,18.13,18.13,0,0,0,2.9-7.4l1.44.27a27.75,27.75,0,0,1-.7,2.79h6.51l.26-.07,1,.52a27.35,27.35,0,0,1-1.89,4.88c-.29-.16-.8-.43-1.12-.58a21.2,21.2,0,0,0,1.33-3.44Z"/>
      <path class="cls-9" d="M293,409.81c-.06-.31-.15-.65-.27-1.05-4.16.65-4.72.8-5.08,1-.07-.27-.27-.9-.41-1.26.37-.07.79-.52,1.33-1.17a20.53,20.53,0,0,0,1.51-2,10.74,10.74,0,0,0-2.54.43c-.07-.25-.29-.9-.43-1.22.31-.08.63-.45,1-1a24.93,24.93,0,0,0,2.36-4.52l1.26.52a31.28,31.28,0,0,1-2.78,4.77l1.89-.18c.49-.77,1-1.6,1.37-2.41l1.15.68a36,36,0,0,1-4.05,5.8l3.1-.45c-.21-.56-.45-1.14-.67-1.64l1-.34a17,17,0,0,1,1.33,3.65Zm-4,.93a24,24,0,0,1-.91,4.34,8.84,8.84,0,0,0-1-.39,20.25,20.25,0,0,0,.86-4.14Zm1.82-.27a31.64,31.64,0,0,1,.49,3.59l-1,.23a34.65,34.65,0,0,0-.43-3.62Zm1.93-.43a23.74,23.74,0,0,1,.92,2.9l-1,.34a18.69,18.69,0,0,0-.87-2.95Zm10.05-4.79a17.12,17.12,0,0,1-2.56,6.52,8.26,8.26,0,0,0,3.17,2.52,4.55,4.55,0,0,0-.92,1.12,9.26,9.26,0,0,1-3.06-2.58,11.44,11.44,0,0,1-3.19,2.67,3.57,3.57,0,0,0-.84-1,10.67,10.67,0,0,0,3.26-2.77,19,19,0,0,1-2-5.1c-.34,3.58-1,6.48-2.67,8.75a6.73,6.73,0,0,0-1.17-.83c2.36-2.93,2.74-7.54,2.8-13.37H293.9V399.9h6.36l.21-.07.92.15c-.2,1.47-.5,3.44-.83,5h1.26l.24-.06ZM297,401.17c0,1.35-.07,2.64-.14,3.85h2.46c.24-1.21.49-2.7.67-3.85Zm.79,5.05a16.34,16.34,0,0,0,1.77,4.38,15.19,15.19,0,0,0,1.83-4.38Z"/>
      <path class="cls-9" d="M311,408.66c-.18-.49-.58-1.34-1-2.09v8.91h-1.17v-8.57a19.74,19.74,0,0,1-1.69,4.72,8.54,8.54,0,0,0-.58-1.3,22.8,22.8,0,0,0,2.16-6.57h-1.8V402.5h1.91V399H310v3.46h1.42v1.26H310v1.17c.4.63,1.37,2.3,1.6,2.74ZM322,410a10.44,10.44,0,0,1-2.22,2.88,2.6,2.6,0,0,0,1.87,1.3c.38,0,.62-.65.76-1.95a3.88,3.88,0,0,0,.9.68c-.34,2-.9,2.63-1.62,2.58a3.61,3.61,0,0,1-2.84-1.84,14.6,14.6,0,0,1-3.16,1.75,4.23,4.23,0,0,0-.72-.85,12.62,12.62,0,0,0,3.35-1.87,18.27,18.27,0,0,1-1-3.29h-2.94v.27c0,.12,0,.27,0,.41a28.31,28.31,0,0,1,2.48,2.14L316,413a23.45,23.45,0,0,0-1.82-1.69,7,7,0,0,1-2.64,4.2,3.41,3.41,0,0,0-.89-.81,6,6,0,0,0,2.56-5.08v-.25h-1.37v-1.09h5.26a68.73,68.73,0,0,1-.77-9.11h1.15a61.55,61.55,0,0,0,.79,9.11h2.58a15.39,15.39,0,0,0-1.61-1.15l.69-.63a12.16,12.16,0,0,1,1.87,1.3l-.47.48h1.5v1.09h-4.34a15,15,0,0,0,.77,2.46,8.09,8.09,0,0,0,1.6-2.27Zm-6.38-2.7c0-.22-.12-.47-.2-.76a15.27,15.27,0,0,0-3.24.61,5.34,5.34,0,0,0-.3-1c.25-.05.56-.36.92-.81.18-.21.64-.84,1.15-1.62a7.8,7.8,0,0,0-1.93.38,5.57,5.57,0,0,0-.31-1c.22,0,.44-.29.67-.66a15,15,0,0,0,1.51-3.1l1,.32a17.69,17.69,0,0,1-1.8,3.26l1.42-.14c.22-.4.44-.79.62-1.21l1,.38a24.75,24.75,0,0,1-2.7,4l1.74-.24c-.12-.39-.27-.77-.41-1.13l.85-.23a16.83,16.83,0,0,1,.91,2.66Zm6.5-.31a7.08,7.08,0,0,0-.23-.81,14.59,14.59,0,0,0-3.26.63,10,10,0,0,0-.36-1c.29-.06.56-.36.9-.8a14,14,0,0,0,1.08-1.6,6.72,6.72,0,0,0-1.82.36,8,8,0,0,0-.34-1c.22,0,.41-.25.63-.59a14,14,0,0,0,1.3-2.83l1,.31a18.15,18.15,0,0,1-1.56,2.95l1.31-.14a11.12,11.12,0,0,0,.63-1.24l1,.37a25.61,25.61,0,0,1-2.63,4l1.8-.26-.43-1.08L322,404a20.87,20.87,0,0,1,1,2.66Z"/>
      <path class="cls-9" d="M333.65,408.19a15.33,15.33,0,0,1,1,2l-.65.25h.18V412c0,1.35-.32,2.58-2.56,3.37a3.22,3.22,0,0,0-.65-.79,3,3,0,0,0,2-1.39h-2.39v-2.52h.92v1.68h1.69a2.23,2.23,0,0,0,0-.36V410.4h.68c-.05-.14-.14-.34-.21-.56a20.74,20.74,0,0,0-3.55.45,4.12,4.12,0,0,0-.27-.88,2.08,2.08,0,0,0,1-.5,10.17,10.17,0,0,0,1.08-.94,6.36,6.36,0,0,0-1.67.22,8.31,8.31,0,0,0-.31-.92,1.15,1.15,0,0,0,.59-.33,8.66,8.66,0,0,0,1.28-1.63h-3.09V415.5H327.4V399.81H334v5.5h-1.87l.61.32a9.89,9.89,0,0,1-1.4,1.64l1.33-.06a8.47,8.47,0,0,0,.79-.93l.79.52a21.6,21.6,0,0,1-2.72,2.49l1.82-.15c-.12-.25-.25-.5-.38-.72Zm-5-7.4v1.35h4v-1.35Zm0,3.53h4V403h-4Zm13.59,9.48c0,.74-.14,1.16-.63,1.37a5.77,5.77,0,0,1-2.34.27,5.41,5.41,0,0,0-.42-1.33c.8,0,1.55,0,1.79,0s.3-.09.3-.33v-8.49h-4l.67.34a13.68,13.68,0,0,1-1.41,1.64l1.33-.08a11.57,11.57,0,0,0,.8-.93l.77.5a18.69,18.69,0,0,1-2.72,2.51l1.8-.15c-.12-.25-.25-.5-.38-.72l.69-.23a16.55,16.55,0,0,1,1,1.94l-.72.33a5.36,5.36,0,0,0-.29-.62,16.92,16.92,0,0,0-3.51.47,6.82,6.82,0,0,0-.27-.9,2.19,2.19,0,0,0,1-.48c.2-.15.59-.51,1.1-1a5.13,5.13,0,0,0-1.7.24,4.82,4.82,0,0,0-.32-.92,1,1,0,0,0,.59-.33,8.85,8.85,0,0,0,1.3-1.65h-1.12v-5.5h6.72Zm-4.23-.05v-.56h-1.73v2h-1V410.4h1v2H338v-1.66H339v3.06Zm-1.21-13v1.35H341v-1.35Zm4.14,3.53V403h-4.14v1.28Z"/>
    </g>
    <g>
      <g>
        <path d="M528.61,274.84h-5.15v-1.08h5.15Zm1.42,9.29a24,24,0,0,1-5.49,2.2,10.45,10.45,0,0,0-1-1,21.16,21.16,0,0,0,5.27-1.73ZM528.16,272h-4.31v-1h4.31Zm-2.35,4.23h11.65v7.22H525.81Zm1.3,2.12h9v-1.22h-9Zm0,2.09h9v-1.22h-9Zm0,2.13h9v-1.26h-9Zm4.32-10.43a8.22,8.22,0,0,1-1.35,1.8,5.25,5.25,0,0,0-1-.68,7.65,7.65,0,0,0,2.07-3.42l1.21.27c-.11.34-.25.66-.38,1h6l.22-.06.9.31a17.39,17.39,0,0,1-1.51,2.59l-1.06-.38a9.68,9.68,0,0,0,.84-1.42h-2.86v.24a4.4,4.4,0,0,1,0,.59c.95,1.08,2.91,1.78,5.27,2A5,5,0,0,0,539,276a8.7,8.7,0,0,1-4.9-2.1c-.6.88-2,1.71-5.19,2.19a4.12,4.12,0,0,0-.72-1c4.66-.63,5.1-1.85,5.1-2.79v-.18Zm2.7,11.42a47.77,47.77,0,0,1,5.3,1.94l-1.17.78a41.85,41.85,0,0,0-5-2Z"/>
        <path d="M529.9,292.05h-6.46V291h6.46Zm-.66,11.2h-4v.85h-1.08v-6.05h5.1Zm-5.08-8.88v-1.06h5.06v1.06Zm0,1.28h5.09v1.06h-5.09Zm1.06,3.51v3h2.92v-3Zm1.39-8.4a19.36,19.36,0,0,0-1.26-2.4l.95-.54a15.13,15.13,0,0,1,1.3,2.32Zm11.3-1.84c-.1,7.27-.14,13.52.87,13.77a8,8,0,0,0,.3-2.41,6.07,6.07,0,0,0,.78,1c-.2,2.52-.78,3.1-1.6,2.76-1.77-.54-1.71-6.43-1.7-13.81h-3v5.31H536v1.24h-2.37v7.58h-1.27v-7.58h-2.43v-1.24h2.43V290.2h-2.23v-1.28Z"/>
        <path d="M532,315.45a9.65,9.65,0,0,1-1.82,4.18c1.28,1.08,3,1.33,5.1,1.33h4.63a3.75,3.75,0,0,0-.42,1.13H535.2c-2.45,0-4.36-.32-5.78-1.64a9.32,9.32,0,0,1-3.34,2,3.36,3.36,0,0,0-.62-.93,7.67,7.67,0,0,0,3.24-1.88,9.06,9.06,0,0,1-1.05-2,7.14,7.14,0,0,1-1.19,1.3,7.58,7.58,0,0,0-.75-.72,11.87,11.87,0,0,1-1.43,4.2,4,4,0,0,0-1-.81c1.4-2.35,1.55-5.62,1.55-8v-4.39h5.87v-3.3H532v1.14h6.16v1H532v1.16h6.29l.21-.06.94.25a20,20,0,0,1-1.24,2.92l-1.1-.34a13.16,13.16,0,0,0,.72-1.71h-5.87v1.08l4.57-.29.06.9-4.63.31v.41c0,.51.11.67.72.67h4.19a14.66,14.66,0,0,0,1.86-.11c0,.34,0,.7.11,1a10.28,10.28,0,0,1-1.86.09h-4.43c-1.51,0-1.85-.47-1.85-1.64v-.32l-3.57.23-.05-.92,3.62-.23v-1.17h-4.59v3.35a27.64,27.64,0,0,1-.33,4.43,9.34,9.34,0,0,0,2.72-4.2l1.06.27a12.2,12.2,0,0,1-.46,1.19h2l.22,0Zm-3.42.83c-.07.13-.14.25-.2.38a6.92,6.92,0,0,0,1,2.18,7.78,7.78,0,0,0,1.28-2.56Zm8.59,3.69c-.9,0-1.15-.23-1.15-1.13v-2.52h-1.84v.41a4.32,4.32,0,0,1-1.69,3.66,4.71,4.71,0,0,0-.83-.78,3.32,3.32,0,0,0,1.42-2.91v-1.41h4v3.55c0,.34,0,.39.27.39h.7c.22,0,.27-.19.33-1.15a2.45,2.45,0,0,0,.83.33c-.08,1.22-.35,1.56-1,1.56Z"/>
      </g>
      <g>
        <path d="M405.1,280.71c-.23-.54-.75-1.54-1.22-2.39v8h-1.26v-7.47a18.08,18.08,0,0,1-2.16,4.32,6.37,6.37,0,0,0-.7-1.28,19.68,19.68,0,0,0,2.72-5.65h-2.33V275h2.47v-2.9c-.63.14-1.28.27-1.87.38a5.82,5.82,0,0,0-.4-1.07,21.36,21.36,0,0,0,4.77-1.4l.83,1.08a15.52,15.52,0,0,1-2.07.72V275H406v1.26h-2.07v.39c.45.6,1.76,2.49,2.05,3Zm10,1.07a22.19,22.19,0,0,0-1.69-5.33,26.88,26.88,0,0,1-3.35,5.92v1.77c0,.72.11.84.77.84H413c.61,0,.72-.47.79-2.68a2.65,2.65,0,0,0,1.15.52c-.14,2.58-.48,3.33-1.83,3.33h-2.4c-1.49,0-1.89-.43-1.89-2v-.24a17.92,17.92,0,0,1-2.32,2.13,8.27,8.27,0,0,0-1.08-.92,17.71,17.71,0,0,0,3.4-3.19v-8.15h1.28v6.41A32.07,32.07,0,0,0,414,271l1.28.25a45.08,45.08,0,0,1-1.78,5.19l1.13-.34a23.61,23.61,0,0,1,1.75,5.33Zm-9.63-.63a17.58,17.58,0,0,0,1.31-5.55l1,.24a20.11,20.11,0,0,1-1.3,5.7Zm6.34-7.67a21,21,0,0,0-3.44-2.72l.81-.88a19,19,0,0,1,3.47,2.59Z"/>
        <path d="M416,296.93v1H400.14v-1h7.2v-1.06h-6V295h6v-.92h-5.51v-.9h5.51V292h-7.19v-1h7.19v-1H402v-.9h5.3v-1.26h1.33v1.26h5.15V291H416v1h-2.14v2h-5.15V295h6.09v.9h-6.09v1.06Zm-13.61,1.89h11.49v5.58h-1.33v-.63h-8.86v.63h-1.3Zm1.3.92v1.08h8.86v-1.08Zm8.86,3.1V301.7h-8.86v1.14ZM408.67,291h3.82v-1h-3.82Zm0,2.12h3.82V292h-3.82Z"/>
        <path d="M408.54,315.44a9.77,9.77,0,0,1-1.81,4.17c1.27,1.08,3,1.34,5.09,1.34.56,0,3.89,0,4.63,0a3.75,3.75,0,0,0-.42,1.13h-4.26c-2.45,0-4.36-.32-5.78-1.64a9.36,9.36,0,0,1-3.33,2,3.63,3.63,0,0,0-.63-.93,7.76,7.76,0,0,0,3.24-1.87,9.06,9.06,0,0,1-1-2,7.41,7.41,0,0,1-1.19,1.29,7.58,7.58,0,0,0-.75-.72,12.06,12.06,0,0,1-1.42,4.2,4.41,4.41,0,0,0-1.05-.81c1.41-2.34,1.55-5.62,1.55-8v-4.39h5.87v-3.3h1.31V307h6.16v1h-6.16v1.15h6.29l.21-.06.94.26a20.34,20.34,0,0,1-1.24,2.91l-1.1-.34a11.9,11.9,0,0,0,.72-1.71h-5.87v1.08l4.57-.29.06.9-4.63.31v.41c0,.51.11.67.72.67h4.2a14.61,14.61,0,0,0,1.85-.11c0,.34.05.7.11,1a10.28,10.28,0,0,1-1.86.09h-4.43c-1.51,0-1.85-.47-1.85-1.64v-.32l-3.57.23-.05-.91,3.62-.24v-1.17h-4.59v3.35a27.64,27.64,0,0,1-.33,4.43,9.34,9.34,0,0,0,2.72-4.2l1.07.27c-.15.42-.29.8-.47,1.19h2l.22,0Zm-3.42.83a3.24,3.24,0,0,0-.19.37,6.51,6.51,0,0,0,1,2.18,7.73,7.73,0,0,0,1.28-2.55Zm8.59,3.69c-.9,0-1.15-.24-1.15-1.14V316.3h-1.84v.41a4.31,4.31,0,0,1-1.69,3.66,4.31,4.31,0,0,0-.83-.77,3.34,3.34,0,0,0,1.42-2.92v-1.41h4v3.55c0,.34,0,.4.27.4h.71c.21,0,.27-.2.32-1.15a2.44,2.44,0,0,0,.83.32c-.07,1.22-.34,1.57-1,1.57Z"/>
      </g>
      <g>
        <path d="M439.67,269.93c0,.65,0,1.55-.13,2.61.28,2.14,1.36,9.67,7.71,12.5a4,4,0,0,0-1,1.13c-4.5-2.11-6.43-6.55-7.29-9.9a14.43,14.43,0,0,1-7.13,10,4.48,4.48,0,0,0-1.08-1c7.47-3.78,7.36-12.53,7.41-15.27Z"/>
        <path d="M447.07,299.2h-1.85v3.19h-1.34v-.81h-4.32v1.24c0,.83-.25,1.14-.79,1.33a10.62,10.62,0,0,1-3,.22,4.5,4.5,0,0,0-.47-1.14c1.08,0,2.16,0,2.47,0s.45-.12.45-.43v-1.24h-5.82v-1h5.82V299.2h-7.36v-1.06h7.36v-1.26h-5.65v-1h5.65v-1.26h-5.15v-3.17h5.15v-1h-7v-1.1h7v-1.44h1.33v1.44h7.17v1.1h-7.17v1h5.37v3.17h-5.37v1.26h5.66v2.25h1.85Zm-8.84-5.51V292.4h-3.87v1.29Zm1.33-1.29v1.29h4V292.4Zm0,5.74h4.32v-1.26h-4.32Zm4.32,1.06h-4.32v1.35h4.32Z"/>
        <path d="M439.4,315.42a9.7,9.7,0,0,1-1.82,4.18c1.28,1.08,3,1.33,5.1,1.33.56,0,3.89,0,4.63,0a3.75,3.75,0,0,0-.42,1.13h-4.27c-2.44,0-4.35-.32-5.78-1.63a9.28,9.28,0,0,1-3.33,2,3.37,3.37,0,0,0-.63-.94,7.7,7.7,0,0,0,3.24-1.87,9.51,9.51,0,0,1-1-2,7.48,7.48,0,0,1-1.19,1.3,5.82,5.82,0,0,0-.75-.72,12.09,12.09,0,0,1-1.43,4.19,4.43,4.43,0,0,0-1-.81c1.4-2.34,1.55-5.62,1.55-8v-4.39h5.87v-3.29h1.31V307h6.16v1H439.4v1.15h6.28l.22-.05.94.25a18.94,18.94,0,0,1-1.25,2.92l-1.09-.35a13.16,13.16,0,0,0,.72-1.71h-5.87v1.08l4.57-.28.05.9-4.62.3v.42c0,.5.11.66.72.66h4.19a13.11,13.11,0,0,0,1.86-.11,8.79,8.79,0,0,0,.11,1,10.28,10.28,0,0,1-1.86.09h-4.43c-1.51,0-1.85-.46-1.85-1.63v-.33l-3.57.24,0-.92,3.62-.24v-1.17H433.5v3.35a28.76,28.76,0,0,1-.33,4.43,9.36,9.36,0,0,0,2.72-4.19l1.06.27a12.08,12.08,0,0,1-.47,1.18h2l.22,0Zm-3.42.83c-.07.12-.14.25-.2.38a6.36,6.36,0,0,0,1.05,2.17,7.72,7.72,0,0,0,1.27-2.55Zm8.59,3.69c-.9,0-1.15-.24-1.15-1.14v-2.52h-1.84v.42a4.32,4.32,0,0,1-1.69,3.65,5,5,0,0,0-.83-.77,3.33,3.33,0,0,0,1.42-2.92v-1.4h4v3.54c0,.35,0,.4.27.4h.7c.22,0,.27-.2.33-1.15a2.38,2.38,0,0,0,.82.32c-.07,1.23-.34,1.57-1,1.57Z"/>
      </g>
      <g>
        <path d="M476.81,274.56a20.43,20.43,0,0,1-2.38,7.36,9.06,9.06,0,0,0,3.75,3.37,7.21,7.21,0,0,0-.92,1.13,10.06,10.06,0,0,1-3.62-3.31,11.92,11.92,0,0,1-4.05,3.35,6.05,6.05,0,0,0-.77-1.17,10.19,10.19,0,0,0,4.08-3.41,21.89,21.89,0,0,1-1.85-5.11,14.5,14.5,0,0,1-1.17,2,9.34,9.34,0,0,0-1.06-.88l.09-.13h-2v4.58l3.08-.7.13,1.2c-3,.72-6.14,1.48-8.38,2l-.25-1.33,1.06-.22v-8h1.23V283l1.83-.39v-10h-3.81v-1.3H470v1.3h-3.12v3.92h2.45v.63a19.87,19.87,0,0,0,2.5-7.13l1.33.24c-.21,1.06-.48,2.12-.77,3.09H478v1.27Zm-4.95.3a22.22,22.22,0,0,0,1.82,5.74,19.39,19.39,0,0,0,1.78-6H472Z"/>
        <path d="M475.91,289c0,6.7,0,14.05,1.06,14.05.22,0,.33-1.19.36-2.76a4.86,4.86,0,0,0,.81.94c-.12,2.3-.39,3.22-1.31,3.22-2.18,0-2.14-6.35-2.21-14.2h-9.71v4.53c0,2.9-.31,7-2.34,9.71a4.76,4.76,0,0,0-1.06-.76c1.92-2.55,2.12-6.19,2.12-8.95V289Zm-3.28,10.61a13.84,13.84,0,0,1,2.13,3.94l-1.08.4a8.4,8.4,0,0,0-.54-1.37c-3,.22-6.07.41-8.19.58l-.09-1.21c1.11,0,2.59-.14,4.19-.25v-2.52h-3.11v-4.9h3.11V292.5h-3.37v-1.12h8.05v1.12h-3.49v1.73h3.19v4.9h-3.19v2.45l2.34-.15a17,17,0,0,0-1-1.51Zm-3.58-1.5v-2.75h-2v2.75Zm1.19-2.75v2.75h2.05v-2.75Z"/>
        <path d="M470.26,315.52a9.65,9.65,0,0,1-1.82,4.18c1.28,1.08,3,1.33,5.1,1.33h4.62a3.48,3.48,0,0,0-.41,1.13h-4.27c-2.45,0-4.36-.32-5.78-1.64a9.28,9.28,0,0,1-3.33,2,3.63,3.63,0,0,0-.63-.93,7.67,7.67,0,0,0,3.24-1.88,8.57,8.57,0,0,1-1-2,7.82,7.82,0,0,1-1.19,1.29,9.15,9.15,0,0,0-.76-.72,11.86,11.86,0,0,1-1.42,4.2,4.13,4.13,0,0,0-1-.81c1.4-2.34,1.54-5.62,1.54-8v-4.39h5.87V306h1.32v1.14h6.16v1h-6.16v1.16h6.28l.22-.06.93.25a19,19,0,0,1-1.24,2.92l-1.1-.34a10.87,10.87,0,0,0,.72-1.71H470.2v1.08l4.58-.29.05.9-4.63.31v.41c0,.51.11.67.72.67h4.2a14.5,14.5,0,0,0,1.85-.11c0,.34.06.7.11,1a10.1,10.1,0,0,1-1.85.09H470.8c-1.51,0-1.86-.47-1.86-1.64v-.32l-3.56.23-.06-.92,3.62-.23v-1.17h-4.59v3.35a28.75,28.75,0,0,1-.32,4.43,9.34,9.34,0,0,0,2.72-4.2l1.06.27c-.15.42-.29.79-.47,1.19h2l.21,0Zm-3.42.83a3.48,3.48,0,0,0-.2.38,6.7,6.7,0,0,0,1,2.18,7.6,7.6,0,0,0,1.28-2.56Zm8.59,3.69c-.9,0-1.16-.23-1.16-1.13v-2.52h-1.83v.41a4.33,4.33,0,0,1-1.7,3.66,5,5,0,0,0-.82-.78,3.35,3.35,0,0,0,1.42-2.91v-1.41h4v3.55c0,.34,0,.4.27.4h.7c.22,0,.27-.2.32-1.16a2.45,2.45,0,0,0,.83.33c-.07,1.22-.34,1.56-1,1.56Z"/>
      </g>
      <g>
        <path d="M508.66,284.46v1.31H492.74v-1.31h7.2v-4.41H494.4v-1.3h5.54v-3.94h-6.37v-1.32h7.91a20.53,20.53,0,0,0-3.07-2.75l1.09-.76a21,21,0,0,1,3.29,2.9l-.85.61h5.82v1.32h-6.39v3.94H507v1.3h-5.65v4.41Z"/>
        <path d="M500.27,292.07h-7.4V291h7.4Zm-6.61,1.26h5.85v1.06h-5.85Zm5.8,3.4h-5.8v-1.06h5.8Zm.05,6.54H495v.85h-1.17v-6.05h5.7ZM495,299.18v3h3.34v-3Zm1.35-8.41a16.22,16.22,0,0,0-1.32-2.39l1-.52a13.79,13.79,0,0,1,1.39,2.3Zm12.47,4.67h-3.69v8.93h-1.35v-8.93h-3.53v-1.32h3.53v-5.87h1.35v5.87h3.69Z"/>
        <path d="M501.12,315.47a9.89,9.89,0,0,1-1.82,4.18c1.28,1.08,3,1.33,5.09,1.33.56,0,3.89,0,4.63,0a3.46,3.46,0,0,0-.41,1.14h-4.27c-2.45,0-4.36-.33-5.78-1.64a9.36,9.36,0,0,1-3.33,2,3.87,3.87,0,0,0-.63-.94,7.76,7.76,0,0,0,3.24-1.87,9.06,9.06,0,0,1-1-2,7.47,7.47,0,0,1-1.18,1.3,9.15,9.15,0,0,0-.76-.72,11.81,11.81,0,0,1-1.42,4.19,4.69,4.69,0,0,0-1.05-.81c1.41-2.34,1.55-5.61,1.55-8v-4.4h5.87v-3.29h1.32v1.13h6.15v1h-6.15v1.15h6.28l.22-.05.93.25a20,20,0,0,1-1.24,2.92l-1.1-.34a12.41,12.41,0,0,0,.72-1.71h-5.87v1.08l4.57-.29.06.9-4.63.3v.42c0,.5.11.67.72.67H506a14.61,14.61,0,0,0,1.85-.11c0,.34.06.7.11,1a10.22,10.22,0,0,1-1.86.09h-4.42c-1.52,0-1.86-.47-1.86-1.64v-.32l-3.56.23-.06-.92,3.62-.23v-1.17h-4.59v3.35a28.63,28.63,0,0,1-.32,4.42,9.37,9.37,0,0,0,2.71-4.19l1.07.27c-.15.41-.29.79-.47,1.19h2l.21,0Zm-3.43.83a3.37,3.37,0,0,0-.19.38,6.7,6.7,0,0,0,1,2.18,7.88,7.88,0,0,0,1.28-2.56Zm8.59,3.69c-.9,0-1.15-.23-1.15-1.13v-2.52h-1.84v.41a4.32,4.32,0,0,1-1.69,3.66,4.37,4.37,0,0,0-.83-.78,3.34,3.34,0,0,0,1.43-2.92v-1.4h4v3.55c0,.34,0,.39.27.39h.71c.21,0,.27-.2.32-1.15a2.44,2.44,0,0,0,.83.32c-.07,1.23-.34,1.57-1,1.57Z"/>
      </g>
      <g>
        <path d="M558.37,277.85a16.81,16.81,0,0,0-3.33-1.94l.72-1a16.34,16.34,0,0,1,3.35,1.8Zm-2.72,7.35a53.92,53.92,0,0,0,3.41-5.76l1,.88c-.94,1.89-2.2,4.12-3.26,5.78Zm1.08-15.11a18.4,18.4,0,0,1,3.43,1.87l-.78,1.12a17,17,0,0,0-3.37-2Zm13.2,16.22a15.54,15.54,0,0,0-.83-1.78c-6.68.83-7.43,1-7.92,1.19a9.49,9.49,0,0,0-.45-1.33c.34-.09.7-.52,1.15-1.17a29.29,29.29,0,0,0,2.49-4.47h-4v-1.28H565v-3.2h-3.83V273H565v-3.1h1.33V273h4v1.28h-4v3.2H571v1.28H566a34.89,34.89,0,0,1-3.17,5.33l5.69-.63a23.69,23.69,0,0,0-1.6-2.32l1.08-.51a23.12,23.12,0,0,1,3.15,5.1Z"/>
        <path d="M560.75,293.6h4.34v1.23h-4.34v1.8h3.71v4.91c0,.61-.09,1-.54,1.17a5.53,5.53,0,0,1-2.09.22,4,4,0,0,0-.4-1.17H563c.2,0,.25-.06.25-.24v-3.67h-2.48v6.46h-1.28v-6.46h-2.32v5h-1.23v-6.24h3.55v-1.8H555.1V293.6h4.37v-1.89h-2.34a13.34,13.34,0,0,1-.9,1.85,8,8,0,0,0-1.19-.5,14.27,14.27,0,0,0,1.8-4.73l1.26.25c-.16.63-.34,1.29-.54,1.91h1.91V288h1.28v2.53h3.64v1.22h-3.64Zm6.9,5.83h-1.26v-9.9h1.26Zm3.22-11.34V302.5c0,.88-.2,1.27-.74,1.51a9,9,0,0,1-2.88.27,7.75,7.75,0,0,0-.43-1.41c1.06,0,2.07,0,2.37,0s.38-.09.38-.4V288.09Z"/>
        <path d="M563.68,315.45a9.76,9.76,0,0,1-1.81,4.18c1.27,1.08,3,1.33,5.09,1.33h4.63a3.75,3.75,0,0,0-.42,1.13h-4.26c-2.45,0-4.36-.32-5.78-1.64a9.36,9.36,0,0,1-3.33,2,3.63,3.63,0,0,0-.63-.93,7.67,7.67,0,0,0,3.24-1.88,9.06,9.06,0,0,1-1-2,7.47,7.47,0,0,1-1.18,1.3,9.15,9.15,0,0,0-.76-.72,12.06,12.06,0,0,1-1.42,4.2,4.17,4.17,0,0,0-1-.81c1.41-2.35,1.55-5.62,1.55-8v-4.39h5.87v-3.3h1.31v1.14h6.16v1h-6.16v1.16H570l.21-.06.94.25a20,20,0,0,1-1.24,2.92l-1.1-.34a11.9,11.9,0,0,0,.72-1.71h-5.87v1.08l4.57-.29.06.9-4.63.31v.41c0,.51.11.67.72.67h4.2a14.61,14.61,0,0,0,1.85-.11c0,.34.05.7.11,1a10.28,10.28,0,0,1-1.86.09h-4.42c-1.52,0-1.86-.47-1.86-1.64v-.32l-3.56.23-.06-.92,3.62-.23v-1.17h-4.59v3.35a28.75,28.75,0,0,1-.32,4.43,9.4,9.4,0,0,0,2.71-4.2l1.07.27c-.15.42-.29.79-.47,1.19h2l.22,0Zm-3.42.83a3.37,3.37,0,0,0-.19.38,6.7,6.7,0,0,0,1,2.18,7.78,7.78,0,0,0,1.28-2.56Zm8.59,3.69c-.9,0-1.15-.23-1.15-1.13v-2.52h-1.84v.41a4.32,4.32,0,0,1-1.69,3.66,4.71,4.71,0,0,0-.83-.78,3.34,3.34,0,0,0,1.43-2.91v-1.41h4v3.55c0,.34,0,.39.27.39h.71c.21,0,.27-.19.32-1.15a2.45,2.45,0,0,0,.83.33c-.07,1.22-.34,1.56-1,1.56Z"/>
      </g>
    </g>
    <g>
      <path class="cls-9" d="M452.11,247.79h3.12V249h-3.12v3.19H450.9V249h-3.16v-1.2h3.16v-1.43h-2.52v-6.24h2.52V238.8H448v-1.17h2.93v-2h1.19v2H455v1.17h-2.88v1.32h2.65v6.24h-2.63Zm-2.74-5H451v-1.62h-1.66Zm0,2.61H451V243.7h-1.66Zm4.34-4.23H452v1.62h1.73Zm0,2.58H452v1.65h1.73Zm6.52-4.32V241h3.49v9.67c0,.63-.1,1-.5,1.22a4.73,4.73,0,0,1-1.89.22,4.32,4.32,0,0,0-.4-1.23c.6,0,1.16,0,1.34,0s.23-.05.23-.23v-2.54h-2.27V252H459v-3.83h-2.23v3.94H455.6V241H459v-1.62h-3.76v-1.19H459v-2.5h1.19v2.5h2.9a12.13,12.13,0,0,0-2.2-1.87l.76-.65a11.84,11.84,0,0,1,2.23,1.82l-.72.7h.9v1.19Zm-3.42,2.79V244H459v-1.82ZM459,247V245.1h-2.23V247Zm1.19-4.81V244h2.27v-1.82ZM462.5,247V245.1h-2.27V247Z"/>
      <path class="cls-9" d="M475.66,248.52c-2.81.67-5.84,1.37-8,1.86l-.23-1.35,1.27-.25V236.57h5.86v11l1-.21ZM470,237.79v2.63h3.36v-2.63Zm3.36,3.84H470v2.59h3.36ZM470,248.52c1-.21,2.18-.46,3.36-.72v-2.37H470Zm13.5-8.77s0,.51,0,.67c-.18,7.55-.36,10.1-.95,10.89a1.64,1.64,0,0,1-1.3.69,22.93,22.93,0,0,1-2.46,0,3,3,0,0,0-.4-1.28c1,.07,2,.07,2.34.07a.64.64,0,0,0,.67-.27c.45-.54.65-2.91.81-9.47h-2.81c-.27,4.68-1.26,8.74-4.9,11.15a3.39,3.39,0,0,0-1-1c3.42-2.14,4.32-5.85,4.57-10.16h-2.86v-1.28h2.92c.05-1.31.05-2.66.05-4.05h1.3c0,1.39,0,2.74-.06,4.05Z"/>
      <path class="cls-9" d="M503.49,249.6h-7.31v2.52h-1.35V249.6h-7.15v-1.18h7.15v-1.35h-5.37v-6.29h12.37v6.29h-5.65v1.35h7.31Zm-8.56-9.66H489v-3.53h5.94Zm-1.27-2.63H490.2V239h3.46Zm-2.9,6.08h4.07v-1.53h-4.07Zm4.07,2.59v-1.56h-4.07V246Zm5.63-4.12h-4.28v1.53h4.28Zm0,2.56h-4.28V246h4.28Zm1.86-4.48h-6v-3.53h6Zm-1.26-2.63h-3.52V239h3.52Z"/>
      <path class="cls-9" d="M512.81,236.14A26.08,26.08,0,0,1,511,240v12.16h-1.33V242a18,18,0,0,1-1.79,2.18,6.21,6.21,0,0,0-.75-1.31,20.16,20.16,0,0,0,4.43-7.15Zm10.66,14v1.29h-11.2v-1.29h6.28a77.26,77.26,0,0,0,1.71-8.91l1.39.25c-.47,2.75-1.21,6.26-1.86,8.66Zm-.74-9.87H513v-1.3h9.71Zm-7.31,9a65.7,65.7,0,0,0-1.23-7.67l1.21-.27a73,73,0,0,1,1.33,7.56Zm2-10.53a19.52,19.52,0,0,0-.84-2.87l1.26-.32c.32.9.73,2.05.9,2.79Z"/>
    </g>
    <line class="cls-11" x1="425.58" y1="368.78" x2="425.58" y2="406.15"/>
  </g>
</svg>
