<?xml version="1.0" encoding="utf-8"?>
<!-- Generator: Adobe Illustrator 26.4.1, SVG Export Plug-In . SVG Version: 6.00 Build 0)  -->
<svg version="1.1" id="圖層_1" xmlns="http://www.w3.org/2000/svg" xmlns:xlink="http://www.w3.org/1999/xlink" x="0px" y="0px"
	 width="110px" height="109.5px" viewBox="0 0 110 109.5" style="enable-background:new 0 0 110 109.5;" xml:space="preserve">
<style type="text/css">
	.st0{fill:#68C5E4;}
	.st1{fill:#3192D1;}
	.st2{fill:#184097;}
	.st3{filter:url(#Adobe_OpacityMaskFilter);}
	.st4{fill:url(#SVGID_00000182525290854304885350000013389798677428497039_);}
	.st5{mask:url(#SVGID_1_);fill:#FFFFFF;}
	.st6{filter:url(#Adobe_OpacityMaskFilter_00000116203695983400632450000003806415783366205065_);}
	.st7{fill:url(#SVGID_00000013191002170323722340000010363299580739162242_);}
	.st8{mask:url(#SVGID_00000076574625909640822720000014085093137593778329_);fill:#FFFFFF;}
	.st9{filter:url(#Adobe_OpacityMaskFilter_00000042712345400618294030000002223527468388767380_);}
	.st10{fill:url(#SVGID_00000048500372467289144120000002233218488665019524_);}
	.st11{mask:url(#SVGID_00000135653298788924835330000017500217609538055813_);fill:#FFFFFF;}
</style>
<g>
	<g>
		<path class="st0" d="M23.4,54.9c0,0,7.5-16.6,36.1-18.6c3.6-0.3,0,0,0,0s-26.1,8.3-37.9,23.8"/>
		<path class="st1" d="M24.7,46c0,0-0.5-31.8,24.8-21.5c0,0,25.1,9.7,23.4,63.1c0,0,15.6-49.7-19.3-73.2c0,0-11.3-8.6-21.1-0.8
			C32.5,13.7,19.3,22.3,24.7,46z"/>
		<path class="st2" d="M58.4,80.9c0,0-27.8,15.5-30.7-11.7c0,0-3.4-26.7,44.6-50.5c0,0-51.1,9.8-55.3,51.7c0,0-2.2,14,9.3,18.9
			C26.3,89.3,40,96.9,58.4,80.9z"/>
		<path class="st0" d="M66.8,33.4c0,0,31.9,10.9,14.6,27.8c0,0-16.6,17-69.5-3.5c0,0,45.3,30.4,78.4,10.3c0,0,11.7-6.2,6.6-16.9
			C96.9,51.2,92,37.4,66.8,33.4z"/>
		<path class="st0" d="M15.2,57.9c-0.5,4.2-4.2,7.2-8.4,6.7c-4.2-0.5-7.2-4.2-6.7-8.4C0.5,52,4.3,49,8.5,49.5
			C12.7,50,15.7,53.7,15.2,57.9z"/>
		<defs>
			<filter id="Adobe_OpacityMaskFilter" filterUnits="userSpaceOnUse" x="1.5" y="50.1" width="8.6" height="8.4">
				<feColorMatrix  type="matrix" values="1 0 0 0 0  0 1 0 0 0  0 0 1 0 0  0 0 0 1 0"/>
			</filter>
		</defs>
		<mask maskUnits="userSpaceOnUse" x="1.5" y="50.1" width="8.6" height="8.4" id="SVGID_1_">
			<g class="st3">
				
					<linearGradient id="SVGID_00000110438102015539213940000013523830880140299904_" gradientUnits="userSpaceOnUse" x1="75.2395" y1="-18.9059" x2="81.8482" y2="-18.9059" gradientTransform="matrix(0.6778 0.7353 -0.8242 0.7597 -62.9492 10.8606)">
					<stop  offset="0" style="stop-color:#FFFFFF"/>
					<stop  offset="1" style="stop-color:#000000"/>
				</linearGradient>
				<path style="fill:url(#SVGID_00000110438102015539213940000013523830880140299904_);" d="M8.1,56.7c-2,1.9-4.7,2.3-5.9,1
					c-1.2-1.3-0.6-4,1.5-5.8c2-1.9,4.7-2.3,5.9-1C10.8,52.2,10.2,54.8,8.1,56.7z"/>
			</g>
		</mask>
		<path class="st5" d="M8.1,56.7c-2,1.9-4.7,2.3-5.9,1c-1.2-1.3-0.6-4,1.5-5.8c2-1.9,4.7-2.3,5.9-1C10.8,52.2,10.2,54.8,8.1,56.7z"
			/>
		<path class="st1" d="M81.1,92.2c-0.5,4.2-4.2,7.2-8.4,6.7c-4.2-0.5-7.2-4.2-6.7-8.4c0.5-4.2,4.2-7.2,8.4-6.7
			C78.5,84.2,81.5,88,81.1,92.2z"/>
		<defs>
			
				<filter id="Adobe_OpacityMaskFilter_00000169516492196508776760000010918030687890759840_" filterUnits="userSpaceOnUse" x="67.4" y="84.3" width="8.6" height="8.4">
				<feColorMatrix  type="matrix" values="1 0 0 0 0  0 1 0 0 0  0 0 1 0 0  0 0 0 1 0"/>
			</filter>
		</defs>
		
			<mask maskUnits="userSpaceOnUse" x="67.4" y="84.3" width="8.6" height="8.4" id="SVGID_00000116931188221546566060000002474808641386086573_">
			<g style="filter:url(#Adobe_OpacityMaskFilter_00000169516492196508776760000010918030687890759840_);">
				
					<linearGradient id="SVGID_00000101821395104089681340000011142311450856488875_" gradientUnits="userSpaceOnUse" x1="145.0638" y1="-41.4013" x2="151.6721" y2="-41.4013" gradientTransform="matrix(0.6778 0.7353 -0.8242 0.7597 -62.9492 10.8606)">
					<stop  offset="0" style="stop-color:#FFFFFF"/>
					<stop  offset="1" style="stop-color:#000000"/>
				</linearGradient>
				<path style="fill:url(#SVGID_00000101821395104089681340000011142311450856488875_);" d="M74,90.9c-2,1.9-4.7,2.3-5.9,1
					c-1.2-1.3-0.6-4,1.5-5.8c2-1.9,4.7-2.3,5.9-1C76.7,86.4,76,89.1,74,90.9z"/>
			</g>
		</mask>
		<path style="mask:url(#SVGID_00000116931188221546566060000002474808641386086573_);fill:#FFFFFF;" d="M74,90.9
			c-2,1.9-4.7,2.3-5.9,1c-1.2-1.3-0.6-4,1.5-5.8c2-1.9,4.7-2.3,5.9-1C76.7,86.4,76,89.1,74,90.9z"/>
		<path class="st2" d="M84.7,18.1c-0.5,4.2-4.2,7.2-8.4,6.7c-4.2-0.5-7.2-4.2-6.7-8.4c0.5-4.2,4.2-7.2,8.4-6.7
			C82.1,10.1,85.1,13.9,84.7,18.1z"/>
		<defs>
			
				<filter id="Adobe_OpacityMaskFilter_00000026140072799070256550000000781751340522091939_" filterUnits="userSpaceOnUse" x="71" y="10.5" width="8.6" height="8.4">
				<feColorMatrix  type="matrix" values="1 0 0 0 0  0 1 0 0 0  0 0 1 0 0  0 0 0 1 0"/>
			</filter>
		</defs>
		
			<mask maskUnits="userSpaceOnUse" x="71" y="10.5" width="8.6" height="8.4" id="SVGID_00000065756772486358273650000002878568810983100858_">
			<g style="filter:url(#Adobe_OpacityMaskFilter_00000026140072799070256550000000781751340522091939_);">
				
					<linearGradient id="SVGID_00000021826082743404162250000007460698575480197510_" gradientUnits="userSpaceOnUse" x1="93.2266" y1="-88.3999" x2="99.8351" y2="-88.3999" gradientTransform="matrix(0.6778 0.7353 -0.8242 0.7597 -62.9492 10.8606)">
					<stop  offset="0" style="stop-color:#FFFFFF"/>
					<stop  offset="1" style="stop-color:#000000"/>
				</linearGradient>
				<path style="fill:url(#SVGID_00000021826082743404162250000007460698575480197510_);" d="M77.6,17.1c-2,1.9-4.7,2.3-5.9,1
					c-1.2-1.3-0.6-4,1.5-5.8c2-1.9,4.7-2.3,5.9-1C80.3,12.6,79.6,15.2,77.6,17.1z"/>
			</g>
		</mask>
		<path style="mask:url(#SVGID_00000065756772486358273650000002878568810983100858_);fill:#FFFFFF;" d="M77.6,17.1
			c-2,1.9-4.7,2.3-5.9,1c-1.2-1.3-0.6-4,1.5-5.8c2-1.9,4.7-2.3,5.9-1C80.3,12.6,79.6,15.2,77.6,17.1z"/>
		<path class="st1" d="M68,29.5c0,0,3.6,5.8,4.8,10.3c1.3,4.5-5.4,0.3-5.4,0.3l-3-8.3L68,29.5z"/>
	</g>
	<path class="st1" d="M109.4,73c-0.4-0.4-0.9-0.6-1.5-0.6H89c-0.6,0-1,0.2-1.5,0.6c-0.4,0.4-0.6,0.9-0.6,1.5v23.3
		c0,0.6,0.2,1,0.6,1.5c0.4,0.4,0.9,0.6,1.5,0.6h18.9c0.6,0,1-0.2,1.5-0.6c0.4-0.4,0.6-0.9,0.6-1.5V74.4
		C110,73.9,109.8,73.4,109.4,73z M107.9,97.8H89V74.4h18.9V97.8z"/>
	<g>
		<path class="st2" d="M93.2,92.6c0.3,0,0.5-0.1,0.7-0.3c0.2-0.2,0.3-0.5,0.3-0.7c0-0.3-0.1-0.5-0.3-0.7c-0.2-0.2-0.5-0.3-0.7-0.3
			c-0.3,0-0.5,0.1-0.7,0.3c-0.2,0.2-0.3,0.5-0.3,0.7c0,0.3,0.1,0.5,0.3,0.7C92.7,92.5,92.9,92.6,93.2,92.6z"/>
		<path class="st2" d="M93.2,86.9c0.3,0,0.5-0.1,0.7-0.3c0.2-0.2,0.3-0.5,0.3-0.7s-0.1-0.5-0.3-0.7c-0.2-0.2-0.5-0.3-0.7-0.3
			c-0.3,0-0.5,0.1-0.7,0.3c-0.2,0.2-0.3,0.5-0.3,0.7s0.1,0.5,0.3,0.7C92.7,86.8,92.9,86.9,93.2,86.9z"/>
		<path class="st2" d="M93.2,81.2c0.3,0,0.5-0.1,0.7-0.3s0.3-0.5,0.3-0.7c0-0.3-0.1-0.5-0.3-0.7c-0.2-0.2-0.5-0.3-0.7-0.3
			c-0.3,0-0.5,0.1-0.7,0.3c-0.2,0.2-0.3,0.5-0.3,0.7c0,0.3,0.1,0.5,0.3,0.7S92.9,81.2,93.2,81.2z"/>
		<path class="st2" d="M96.9,92.6h6.4c0.3,0,0.5-0.1,0.7-0.3c0.2-0.2,0.3-0.4,0.3-0.7c0-0.3-0.1-0.5-0.3-0.7
			c-0.2-0.2-0.4-0.3-0.7-0.3h-6.4c-0.3,0-0.5,0.1-0.7,0.3c-0.2,0.2-0.3,0.4-0.3,0.7c0,0.3,0.1,0.5,0.3,0.7
			C96.3,92.5,96.6,92.6,96.9,92.6z"/>
		<path class="st2" d="M96.9,86.9h6.4c0.3,0,0.5-0.1,0.7-0.3c0.2-0.2,0.3-0.4,0.3-0.7c0-0.3-0.1-0.5-0.3-0.7s-0.4-0.3-0.7-0.3h-6.4
			c-0.3,0-0.5,0.1-0.7,0.3c-0.2,0.2-0.3,0.4-0.3,0.7s0.1,0.5,0.3,0.7C96.3,86.8,96.6,86.9,96.9,86.9z"/>
		<path class="st2" d="M96.9,81.2h6.4c0.3,0,0.5-0.1,0.7-0.3s0.3-0.4,0.3-0.7c0-0.3-0.1-0.5-0.3-0.7s-0.4-0.3-0.7-0.3h-6.4
			c-0.3,0-0.5,0.1-0.7,0.3c-0.2,0.2-0.3,0.4-0.3,0.7c0,0.3,0.1,0.5,0.3,0.7C96.3,81.2,96.6,81.2,96.9,81.2z"/>
	</g>
</g>
</svg>
