<?xml version="1.0" encoding="UTF-8"?>
<svg id="_層_1" data-name="圖層 1" xmlns="http://www.w3.org/2000/svg" width="56" height="56" viewBox="0 0 56 56">
  <defs>
    <style>
      .cls-1 {
        fill: #fff;
      }

      .cls-2 {
        fill: #565e62;
      }
    </style>
  </defs>
  <g>
    <path class="cls-1" d="M17.39,54.64v-13.76c-4-1.92-7.15-4.49-9.47-7.7-2.32-3.21-3.48-6.91-3.48-11.1,0-5.67,2.03-10.54,6.1-14.61C14.62,3.4,19.49,1.36,25.16,1.36c5.08,0,9.51,1.62,13.28,4.85,3.77,3.23,6.3,7.53,7.58,12.91l5.11,9.17c.54,1.04,.57,2.01,.07,2.92-.49,.91-1.23,1.37-2.22,1.37h-2.96v8.21c0,1.18-.44,2.22-1.33,3.11s-1.92,1.33-3.11,1.33h-5.25v9.4H17.39Zm9.99-26.64h0Z"/>
    <path d="M16.03,54.64v-12.92c-3.83-1.97-6.92-4.57-9.21-7.74-2.48-3.43-3.74-7.43-3.74-11.9,0-6.02,2.19-11.26,6.5-15.58C13.9,2.19,19.14,0,25.16,0c5.39,0,10.16,1.74,14.17,5.17,3.94,3.37,6.62,7.89,7.98,13.45l5.03,9.04c.75,1.44,.77,2.89,.07,4.2-.73,1.34-1.94,2.08-3.42,2.08h-1.6v6.85c0,1.55-.58,2.92-1.73,4.07-1.15,1.15-2.52,1.73-4.07,1.73h-3.89v8.03c0,.75-.61,1.36-1.36,1.36H17.39c-.75,0-1.36-.61-1.36-1.36Zm18.94-9.4c0-.75,.61-1.36,1.36-1.36h5.25c.83,0,1.51-.3,2.14-.93s.93-1.32,.93-2.14v-8.21c0-.75,.61-1.36,1.36-1.36h2.96c.4,0,.73-.11,1.02-.65,.18-.34,.34-.83-.07-1.61l-5.11-9.17c-.06-.11-.11-.23-.13-.35-1.21-5.07-3.61-9.17-7.14-12.19-3.5-3-7.67-4.52-12.39-4.52-5.35,0-9.81,1.87-13.65,5.71-3.84,3.84-5.7,8.3-5.7,13.65,0,3.88,1.08,7.34,3.22,10.3,2.17,3.01,5.19,5.45,8.96,7.27,.47,.23,.77,.7,.77,1.23v12.4h16.21v-8.03Z"/>
  </g>
  <g>
    <rect x="24.67" y="18.23" width="10.95" height="2.02" transform="translate(-5.49 22.17) rotate(-37.24)"/>
    <rect x="29.53" y="20.15" width="2.02" height="11.8" transform="translate(-8.55 35.18) rotate(-53.62)"/>
    <rect x="19.95" y="26.49" width="10.03" height="2.02" transform="translate(-6.25 47.61) rotate(-80.56)"/>
    <rect x="17.59" y="22.2" width="8.25" height="2.02" transform="translate(-3.44 3.78) rotate(-9.21)"/>
    <rect x="23.39" y="13.61" width="2.02" height="9.15" transform="translate(-4.37 8.27) rotate(-17.69)"/>
    <g>
      <circle class="cls-2" cx="25.79" cy="22.55" r="3.72"/>
      <path d="M25.79,27.27c-1.48,0-2.93-.69-3.85-1.98-.73-1.03-1.02-2.28-.81-3.52s.89-2.33,1.92-3.07c2.12-1.51,5.08-1.02,6.59,1.1,1.51,2.12,1.02,5.08-1.1,6.59-.83,.59-1.79,.88-2.74,.88Zm-.01-7.43c-.54,0-1.09,.16-1.57,.5-.59,.42-.98,1.04-1.1,1.76-.12,.71,.05,1.43,.47,2.02,.87,1.22,2.56,1.5,3.78,.63,1.22-.87,1.5-2.56,.63-3.78-.53-.74-1.36-1.13-2.21-1.13Z"/>
    </g>
    <g>
      <circle class="cls-1" cx="34.65" cy="15.44" r="2.61"/>
      <path d="M34.65,19.06c-1.13,0-2.25-.53-2.95-1.52-1.16-1.62-.78-3.89,.84-5.05,1.62-1.16,3.89-.78,5.05,.84,1.16,1.62,.78,3.89-.84,5.05h0c-.64,.45-1.37,.67-2.1,.67Zm0-5.22c-.32,0-.65,.1-.93,.3-.72,.51-.89,1.51-.37,2.23,.51,.72,1.51,.89,2.23,.37,.72-.51,.89-1.51,.37-2.23-.31-.44-.8-.67-1.3-.67Z"/>
    </g>
    <g>
      <circle class="cls-1" cx="24.11" cy="33.86" r="1.77"/>
      <path d="M24.12,36.64c-.87,0-1.73-.41-2.27-1.16-.43-.61-.6-1.34-.48-2.08,.12-.73,.52-1.37,1.13-1.81,1.25-.89,2.99-.6,3.88,.65,.89,1.25,.6,2.99-.65,3.88h0c-.49,.35-1.05,.52-1.61,.52Zm0-3.54c-.15,0-.31,.05-.44,.14-.34,.24-.42,.72-.18,1.06,.24,.34,.72,.42,1.06,.18h0c.34-.24,.42-.72,.18-1.07-.15-.21-.38-.32-.62-.32Z"/>
    </g>
    <g>
      <circle class="cls-2" cx="36.18" cy="30.21" r="1.77"/>
      <path d="M36.18,32.99c-.15,0-.31-.01-.47-.04-.73-.12-1.37-.52-1.81-1.13-.43-.61-.6-1.34-.48-2.07s.52-1.37,1.13-1.81c.6-.43,1.34-.6,2.07-.48,.73,.12,1.37,.52,1.81,1.13,.89,1.25,.6,2.99-.65,3.88h0c-.48,.34-1.04,.52-1.61,.52Zm0-3.55c-.15,0-.31,.05-.44,.14-.17,.12-.28,.29-.31,.49s.01,.4,.13,.57c.24,.34,.72,.42,1.06,.18h0c.34-.24,.42-.72,.18-1.06-.15-.21-.38-.32-.62-.32Z"/>
    </g>
    <g>
      <circle class="cls-1" cx="15.12" cy="24.8" r="2.66"/>
      <path d="M15.13,28.48c-.2,0-.41-.02-.61-.05-.97-.16-1.81-.69-2.38-1.49-1.17-1.65-.79-3.95,.86-5.12,.8-.57,1.77-.79,2.74-.63,.97,.16,1.81,.69,2.38,1.49,.57,.8,.79,1.77,.63,2.74-.16,.97-.69,1.81-1.49,2.38h0c-.63,.45-1.37,.68-2.12,.68Zm-.01-5.33c-.34,0-.67,.11-.96,.31-.74,.53-.92,1.56-.39,2.31,.26,.36,.64,.6,1.07,.67,.43,.07,.87-.03,1.23-.28h0c.36-.26,.6-.64,.67-1.07s-.03-.87-.28-1.23c-.26-.36-.64-.6-1.07-.67-.09-.02-.19-.02-.28-.02Z"/>
    </g>
    <g>
      <circle class="cls-2" cx="22.71" cy="12.85" r="2.66"/>
      <path d="M22.71,16.52c-1.15,0-2.28-.54-2.99-1.54-1.18-1.65-.79-3.95,.86-5.12,.8-.57,1.77-.8,2.74-.63,.97,.16,1.81,.69,2.38,1.49,1.18,1.65,.79,3.95-.86,5.12h0c-.65,.46-1.39,.68-2.13,.68Zm0-5.33c-.34,0-.67,.11-.96,.31-.74,.53-.92,1.56-.39,2.31,.53,.74,1.56,.91,2.31,.39,.74-.53,.92-1.56,.39-2.31-.26-.36-.64-.6-1.07-.67-.09-.02-.18-.02-.28-.02Z"/>
    </g>
  </g>
</svg>