<?xml version="1.0" encoding="UTF-8"?>
<svg id="_圖層_1" data-name="圖層_1" xmlns="http://www.w3.org/2000/svg" width="137.7mm" height="132.7mm" version="1.1" viewBox="0 0 390.2 376.2">
  <!-- Generator: Adobe Illustrator 29.0.0, SVG Export Plug-In . SVG Version: 2.1.0 Build 186)  -->
  <defs>
    <style>
      .st0 {
        fill: #fff;
      }

      .st1 {
        display: none;
      }
    </style>
  </defs>
  <g id="_圖稿_12" data-name="圖稿_12" class="st1">
    <g>
      <path class="st0" d="M368.2,159.7h-19.6c-1.6-8-3.6-15.9-6.4-23.7l17.1-9.7c3.3-2.1,5.7-5.4,6.9-9,.9-4,.3-8-1.6-11.4l-13.7-23.6c-1.9-3.5-5.2-5.9-9-6.9s-7.8-.5-11.3,1.4l-17.1,10c-5.2-6.2-10.9-12-17.1-17.5l9.9-16.8c1.9-3.6,2.4-7.4,1.4-11.4-1-3.8-3.5-7.1-6.9-8.8l-23.6-13.9c-7.1-4-16.3-1.6-20.3,5.5l-9.9,17c-7.8-2.6-15.8-4.9-23.6-6.4V14.9c0-8.1-6.8-14.9-14.9-14.9h-27.4c-8.1,0-14.9,6.8-14.9,14.9v19.6c-7.8,1.6-15.8,3.8-23.4,6.4l-9.9-17c-4.2-7.1-13.3-9.5-20.3-5.5l-23.4,13.8c-3.5,1.7-5.9,5-6.9,8.8-1,4-.5,7.8,1.4,11.4l10,16.8c-6.2,5.5-12,11.3-17.3,17.5l-17.1-10c-3.3-1.9-7.4-2.4-11.3-1.4-3.8,1-6.9,3.5-9,6.9l-13.7,23.6c-4,7.1-1.6,16.3,5.5,20.4l17,9.7c-2.8,7.8-4.9,15.8-6.2,23.7h-19.8c-8.1,0-14.7,6.6-14.7,14.7v27.4c0,8.1,6.6,14.9,14.7,14.9h19.7c1.4,8,3.5,15.8,6.2,23.6l-17,9.7c-7.1,4.2-9.5,13.3-5.5,20.4l13.7,23.7c2.1,3.5,5.2,5.9,9,6.9s8,.5,11.3-1.4l17.1-9.9c5.4,6.1,11.1,11.8,17.3,17.1l-9.9,17.1c-2.1,3.5-2.6,7.4-1.6,11.3,1,3.8,3.5,7.1,6.9,8.8l23.7,13.7c3.3,2.1,7.3,2.6,11.1,1.6,4-1,7.1-3.3,9.2-6.9l9.9-17c7.6,2.6,15.6,4.9,23.4,6.4v19.6c0,8.3,6.8,14.9,14.9,14.9h27.4c8.1,0,14.9-6.6,14.9-14.9v-19.6c7.8-1.6,15.8-3.8,23.6-6.4l9.9,17c1.9,3.6,5.2,5.9,9,6.9s7.8.5,11.3-1.6l23.6-13.7c3.5-1.7,5.9-5,6.9-8.8s.5-7.8-1.4-11.3l-9.9-17.1c6.2-5.4,12-11.1,17.1-17.1l17.1,9.9c3.5,1.9,7.4,2.4,11.3,1.4,3.8-1,7.1-3.5,9-6.9l13.7-23.6c1.9-3.5,2.4-7.4,1.6-11.3-1.2-3.8-3.6-7.1-6.9-9.2l-17.1-9.7c2.8-7.8,4.9-15.6,6.4-23.6h19.6c8.1,0,14.9-6.8,14.9-14.9v-27.4c-.1-8-6.8-14.6-15-14.6M371.7,201.8c0,1.9-1.6,3.5-3.5,3.5h-24.4c-2.8,0-5.2,1.9-5.7,4.9-1.6,10.2-4.3,20.6-8.1,30.5-1,2.6,0,5.7,2.4,7.1l21.1,12.3c.9.3,1.4,1.2,1.7,2.1.2.9,0,1.7-.3,2.4l-13.7,23.7c-.5.9-1.2,1.4-2.1,1.7-.9.2-1.7,0-2.6-.3l-21.3-12.3c-2.4-1.4-5.5-.9-7.3,1.2-6.6,8.3-14.2,15.8-22.5,22.5-2.1,1.7-2.6,4.9-1.2,7.3l12.3,21.3c.3.7.5,1.7.3,2.6-.3.9-.9,1.6-1.6,2.1l-23.6,13.6c-.9.5-1.7.5-2.6.3s-1.7-.9-2.1-1.6l-12.3-21.3c-1.4-2.4-4.3-3.6-7.1-2.4-9.9,3.8-20.3,6.6-30.5,8.1-2.8.5-4.9,2.9-4.9,5.5v24.6c0,1.9-1.6,3.5-3.5,3.5h-27.4c-1.9,0-3.5-1.6-3.5-3.5v-24.6c0-2.6-1.9-5-4.9-5.5-10.2-1.6-20.6-4.3-30.5-8.1-.7-.3-1.4-.5-2.1-.5-2.1,0-3.8,1-5,2.9l-12.3,21.3c-.3.7-1,1.4-1.9,1.6-1,.2-1.9.2-2.6-.3l-23.7-13.7c-.9-.5-1.4-1.2-1.6-2.1-.3-.9-.2-1.9.3-2.6l12.1-21.3c1.6-2.4.9-5.5-1.4-7.3-8.1-6.8-15.8-14.2-22.3-22.5-1.7-2.1-4.9-2.6-7.3-1.2l-21.1,12.3c-.9.3-1.9.5-2.8.3-.9-.3-1.6-.9-2.1-1.7l-13.5-23.7c-1-1.6-.5-3.6,1-4.5l21.3-12.3c2.4-1.4,3.5-4.5,2.6-7.1-4-9.9-6.8-20.3-8.3-30.5-.5-2.9-2.8-4.9-5.5-4.9h-24.3c-1.9,0-3.5-1.6-3.5-3.5v-27.4c0-1.9,1.6-3.5,3.5-3.5h24.6c2.8,0,5-1.9,5.5-4.9,1.6-10.4,4.3-20.4,8.3-30.5.9-2.6-.2-5.7-2.6-7.1l-21.3-12.1c-1.6-1-2.1-3.1-1-4.7l13.5-23.5c.5-.9,1.2-1.4,2.1-1.7.9-.2,1.9,0,2.8.5l21.1,12.1c2.4,1.4,5.5.9,7.3-1.4,6.6-8.1,14.2-15.6,22.3-22.2,2.3-1.9,2.9-5,1.4-7.3l-12.1-21.2c-.5-.9-.7-1.8-.4-2.8.2-.9.7-1.6,1.6-2.1l23.7-13.7c1.6-.9,3.6-.3,4.5,1.2l12.3,21.3c1.6,2.6,4.5,3.5,7.1,2.6,9.9-4,20.3-6.6,30.5-8.3,2.9-.3,4.9-2.8,4.9-5.5V14.9c0-1.9,1.6-3.5,3.5-3.5h27.4c1.9,0,3.5,1.6,3.5,3.5v24.6c0,2.8,2.1,5.2,4.9,5.5,10.2,1.7,20.6,4.3,30.5,8.3,2.8.9,5.7,0,7.1-2.6l12.3-21.3c.9-1.6,2.9-2.1,4.7-1.2l23.7,13.7c.7.5,1.2,1.2,1.6,2.1.2,1,0,1.9-.3,2.8l-12.3,21.3c-1.4,2.3-.9,5.4,1.2,7.3,8.3,6.6,15.9,14,22.5,22.2,1.7,2.3,4.9,2.8,7.3,1.4l21.3-12.1c.9-.5,1.7-.7,2.6-.5.9.3,1.6.9,2.1,1.7l13.7,23.7c.3.7.5,1.6.3,2.6-.3.9-.9,1.6-1.7,2.1l-21.1,12.1c-2.4,1.4-3.5,4.5-2.4,7.1,3.8,10,6.6,20.1,8.1,30.5.5,2.9,2.9,4.9,5.7,4.9h24.4c1.9,0,3.5,1.6,3.5,3.5v27.2h-.3Z"/>
      <path class="st0" d="M195.1,296.4c-59.8,0-108.4-48.5-108.4-108.3s20.1-73.1,52.3-92.5l2.4,4.9,12.8-18.7-22.7-1.8,2.4,5.2c-36.2,21.5-58.5,60.6-58.5,102.9,0,66,53.7,119.7,119.7,119.7s5.7-2.4,5.7-5.7c0-3.1-2.6-5.7-5.7-5.7"/>
      <path class="st0" d="M195.1,72.2c-3.3,0-5.7,2.6-5.7,5.7s2.4,5.5,5.7,5.5c59.6,0,108.3,48.8,108.3,108.3s-19.9,73.1-52.3,92.8l-2.4-5.2-12.8,19.1,22.7,1.4-2.4-5c36.2-21.5,58.5-60.6,58.5-103.1-.1-65.8-53.6-119.5-119.6-119.5"/>
      <path class="st0" d="M239.4,244.4l12-12c6.7-6.7,6.6-17.4,0-24l-20.2-20.2,20.3-20.3c6.6-6.6,6.6-17.4-.1-24.1l-12.1-12.1c-6.6-6.6-17.4-6.6-24,0l-20.4,20.3-20.2-20.2c-6.6-6.6-17.3-6.7-24,0l-12,12c-6.6,6.6-6.7,17.5-.1,24.1l20.2,20.2-20.1,20.1c-6.7,6.7-6.7,17.5-.1,24.1l12.1,12.1c6.7,6.7,17.5,6.7,24.3,0l20.1-20.1,20.2,20.2c6.6,6.7,17.5,6.6,24.1-.1M199.1,212.2c-2.2-2.2-6-2.1-8.1,0l-24.1,24.1c-2.3,2.3-5.9,2.4-8.2.1l-12.1-12.1c-2.2-2.2-2.1-5.8.2-8.1l24.1-24.1c2.1-2.1,2.2-5.9,0-8.1l-24.3-24.3c-2.2-2.2-2.1-5.8.1-8l12-12c2.2-2.2,5.8-2.3,8-.1l24.3,24.4c2.2,2.2,5.9,2.2,8.1,0l24.3-24.3c2.1-2.1,5.8-2.3,8-.1l12.1,12.1c2.3,2.3,2.1,6,0,8.1l-24.3,24.3c-2.2,2.2-2.2,5.9,0,8.1l24.3,24.3c2.2,2.2,2.1,5.8-.1,8l-12,12c-2.2,2.2-5.8,2.3-8,.1l-24.3-24.4Z"/>
    </g>
  </g>
  <g class="st1">
    <path class="st0" d="M195.2,253.9c-5.7,0-11.5-.8-17.1-2.3-17-4.5-31.1-15.4-39.9-30.6-18.1-31.4-7.3-71.7,24.1-89.8s71.7-7.3,89.8,24.1c8.8,15.2,11.1,32.9,6.6,49.9s-15.4,31.1-30.6,39.9h0c-10.2,5.8-21.5,8.8-32.9,8.8ZM195,138.3c-8.5,0-17,2.1-24.9,6.7-23.8,13.8-32,44.3-18.3,68.1,6.7,11.5,17.4,19.8,30.3,23.2,12.9,3.5,26.3,1.7,37.8-5h0c11.5-6.7,19.8-17.4,23.2-30.3,3.4-12.9,1.7-26.3-5-37.8-9-16-25.8-24.9-43.1-24.9Z"/>
    <rect class="st0" x="203.4" y="94.3" width="82.8" height="15.9" transform="translate(33.9 263.1) rotate(-60)"/>
    <path class="st0" d="M277,77.4c-5.4,0-10.8-1.4-15.6-4.2-14.9-8.6-20-27.7-11.4-42.7,8.6-14.9,27.7-20,42.7-11.4,7.2,4.2,12.4,10.9,14.5,19,2.2,8.1,1.1,16.5-3.1,23.7h0c-4.2,7.2-10.9,12.4-19,14.6-2.7.7-5.4,1-8.1,1ZM277.1,30.8c-1.3,0-2.7.2-4,.5-4,1.1-7.3,3.6-9.3,7.1-4.2,7.3-1.7,16.7,5.6,21,3.5,2,7.7,2.6,11.6,1.5,4-1.1,7.3-3.6,9.3-7.1h0c2-3.5,2.6-7.7,1.5-11.6-1.1-4-3.6-7.3-7.1-9.3-2.3-1.4-5-2.1-7.6-2.1Z"/>
    <rect class="st0" x="137.6" y="60.8" width="15.9" height="82.8" transform="translate(-31.6 86.5) rotate(-30)"/>
    <path class="st0" d="M113.2,77.4c-2.7,0-5.4-.4-8.1-1.1-8.1-2.2-14.8-7.3-19-14.6-4.1-7.1-5.3-15.5-3.1-23.6s7.3-14.8,14.6-19c14.9-8.6,34-3.5,42.7,11.4h0c8.6,14.9,3.5,34.1-11.4,42.7-4.9,2.8-10.3,4.2-15.7,4.2ZM113.1,30.8c-2.7,0-5.3.7-7.6,2.1-3.5,2-6.1,5.4-7.1,9.3-1.1,4-.5,8.1,1.5,11.6s5.4,6.1,9.3,7.1c4,1.1,8.1.5,11.6-1.5,7.3-4.2,9.8-13.6,5.6-21-2-3.5-5.4-6.1-9.3-7.1-1.3-.3-2.6-.5-4-.5Z"/>
    <rect class="st0" x="54.5" y="180.2" width="82.8" height="15.9"/>
    <path class="st0" d="M31.2,219.3C14,219.3,0,205.3,0,188.1s14-31.2,31.2-31.2,31.2,14,31.2,31.2-14,31.2-31.2,31.2ZM31.2,172.8c-8.5,0-15.3,6.9-15.3,15.3s6.9,15.3,15.3,15.3,15.3-6.9,15.3-15.3c0-8.4-6.8-15.3-15.3-15.3Z"/>
    <rect class="st0" x="104.1" y="266.1" width="82.8" height="15.9" transform="translate(-164.6 263) rotate(-60)"/>
    <path class="st0" d="M113.1,361.3c-5.3,0-10.7-1.3-15.6-4.2-14.9-8.6-20-27.7-11.4-42.7h0c4.2-7.2,10.9-12.4,19-14.6s16.5-1,23.7,3.1c14.9,8.6,20,27.7,11.4,42.7-5.8,10.1-16.3,15.7-27.1,15.7ZM113.2,314.7c-1.3,0-2.7.2-4,.5-4,1.1-7.3,3.6-9.3,7.1h0c-4.2,7.3-1.7,16.7,5.6,21,7.3,4.2,16.7,1.7,21-5.6,4.2-7.3,1.7-16.7-5.6-21-2.4-1.3-5.1-2-7.7-2Z"/>
    <rect class="st0" x="236.8" y="232.6" width="15.9" height="82.8" transform="translate(-104.2 159.1) rotate(-30)"/>
    <path class="st0" d="M277.1,361.3c-10.8,0-21.3-5.6-27.1-15.6h0c-8.6-14.9-3.5-34.1,11.4-42.7,7.2-4.2,15.6-5.3,23.7-3.1,8.1,2.2,14.8,7.3,19,14.6,8.6,14.9,3.5,34-11.4,42.7-4.9,2.7-10.3,4.1-15.6,4.1ZM263.8,337.7c4.2,7.3,13.6,9.8,21,5.6,7.3-4.2,9.8-13.6,5.6-21-2-3.5-5.4-6.1-9.3-7.1-4-1.1-8.1-.5-11.6,1.5-7.4,4.3-10,13.7-5.7,21h0Z"/>
    <rect class="st0" x="252.9" y="180.2" width="82.8" height="15.9"/>
    <path class="st0" d="M359,219.3c-17.2,0-31.2-14-31.2-31.2s14-31.2,31.2-31.2,31.2,14,31.2,31.2-14,31.2-31.2,31.2ZM359,172.8c-8.5,0-15.3,6.9-15.3,15.3s6.9,15.3,15.3,15.3,15.3-6.9,15.3-15.3-6.9-15.3-15.3-15.3Z"/>
    <g>
      <circle class="st0" cx="195.5" cy="43.2" r="7.9"/>
      <circle class="st0" cx="168.5" cy="43.2" r="7.9"/>
      <circle class="st0" cx="222.6" cy="43.2" r="7.9"/>
    </g>
    <g>
      <circle class="st0" cx="195.5" cy="331.9" r="7.9"/>
      <circle class="st0" cx="168.5" cy="331.9" r="7.9"/>
      <circle class="st0" cx="222.6" cy="331.9" r="7.9"/>
    </g>
    <g>
      <circle class="st0" cx="69.8" cy="115.3" r="7.9"/>
      <circle class="st0" cx="56.3" cy="138.7" r="7.9"/>
      <circle class="st0" cx="83.3" cy="91.9" r="7.9"/>
    </g>
    <g>
      <circle class="st0" cx="319.8" cy="259.6" r="7.9"/>
      <circle class="st0" cx="306.3" cy="283.1" r="7.9"/>
      <circle class="st0" cx="333.4" cy="236.2" r="7.9"/>
    </g>
    <g>
      <circle class="st0" cx="69.4" cy="260.2" r="7.9"/>
      <circle class="st0" cx="82.9" cy="283.6" r="7.9"/>
      <circle class="st0" cx="55.9" cy="236.8" r="7.9"/>
    </g>
    <g>
      <circle class="st0" cx="319.4" cy="115.9" r="7.9"/>
      <circle class="st0" cx="332.9" cy="139.3" r="7.9"/>
      <circle class="st0" cx="305.9" cy="92.4" r="7.9"/>
    </g>
  </g>
  <g class="st1">
    <circle class="st0" cx="195.1" cy="188.1" r="29.7"/>
    <path class="st0" d="M168.6,245c-1.2,0-2.4-.3-3.5-.9-20.7-11.1-33.5-32.6-33.5-56s12.9-44.9,33.5-56c3.6-1.9,8-.6,10,3,1.9,3.6.6,8-3,10-15.9,8.5-25.8,25-25.8,43.1s9.9,34.5,25.8,43.1c3.6,1.9,4.9,6.4,3,10-1.4,2.3-3.9,3.7-6.5,3.7Z"/>
    <path class="st0" d="M221.7,245c-2.6,0-5.2-1.4-6.5-3.9-1.9-3.6-.6-8,3-10,15.9-8.5,25.8-25,25.8-43.1s-9.9-34.5-25.8-43.1c-3.6-1.9-4.9-6.4-3-10s6.4-4.9,10-3c20.7,11.1,33.5,32.6,33.5,56s-12.8,44.9-33.5,56c-1.2.9-2.4,1.1-3.5,1.1Z"/>
    <path class="st0" d="M151.3,277.3c-1.2,0-2.4-.3-3.5-.9-32.6-17.5-52.8-51.3-52.8-88.3s20.3-70.8,52.9-88.3c3.6-1.9,8-.6,10,3,1.9,3.6.6,8-3,10-27.8,14.9-45.1,43.8-45.1,75.3s17.3,60.4,45.1,75.3c3.6,1.9,4.9,6.4,3,10-1.4,2.5-4,3.9-6.6,3.9Z"/>
    <path class="st0" d="M238.9,277.3c-2.6,0-5.2-1.4-6.5-3.9-1.9-3.6-.6-8,3-10,27.8-14.9,45.1-43.8,45.1-75.3s-17.3-60.4-45.1-75.3c-3.6-1.9-4.9-6.4-3-10s6.4-4.9,10-3c32.6,17.5,52.9,51.3,52.9,88.3s-20.3,70.8-52.9,88.3c-1.1.6-2.3.9-3.5.9Z"/>
    <path class="st0" d="M133.8,310.1c-1.2,0-2.4-.3-3.5-.9-44.7-24-72.5-70.4-72.5-121.1s27.5-96.6,71.8-120.7c3.6-1.9,8-.6,10,3,1.9,3.6.6,8-3,10-39.6,21.5-64.2,62.8-64.2,107.8s24.8,86.7,64.7,108.1c3.6,1.9,4.9,6.4,3,10-1.2,2.3-3.7,3.8-6.3,3.8Z"/>
    <path class="st0" d="M257,309.7c-2.6,0-5.1-1.4-6.5-3.8-1.9-3.6-.6-8,3-10,39.6-21.5,64.2-62.8,64.2-107.8s-24.8-86.7-64.7-108.1c-3.6-1.9-4.9-6.4-3-10s6.4-4.9,10-3c44.7,24,72.5,70.4,72.5,121.1s-27.5,96.6-71.8,120.7c-1.3.6-2.5.9-3.7.9Z"/>
    <path class="st0" d="M117.6,341.5c-1.2,0-2.3-.3-3.4-.9-56.5-30.1-91.7-88.5-91.7-152.5S57.6,65.7,114.2,35.6c3.6-1.9,8-.5,10,3,1.9,3.6.5,8-3,10-51.7,27.5-83.9,81-83.9,139.5s32.1,112,83.9,139.5c3.6,1.9,4.9,6.4,3,10-1.4,2.5-4,3.9-6.6,3.9Z"/>
    <path class="st0" d="M273.1,341.2c-2.6,0-5.2-1.4-6.5-3.9-1.9-3.6-.6-8,3-10,51.4-27.6,83.4-80.9,83.4-139.3s-31.9-111.7-83.4-139.2c-3.6-1.9-4.9-6.4-3-10s6.3-5,10-3c56.2,30.2,91.1,88.5,91.1,152.2s-34.9,122.1-91.1,152.2c-1.1.7-2.3,1-3.5,1Z"/>
  </g>
  <g class="st1">
    <path class="st0" d="M286.5,107.7H103.7c-21.7,0-39.4-17.7-39.4-39.5s17.7-39.4,39.4-39.4h182.7c21.8,0,39.4,17.7,39.4,39.4s-17.6,39.5-39.3,39.5ZM103.7,42.6c-14.1,0-25.6,11.5-25.6,25.6s11.5,25.6,25.6,25.6h182.7c14.1,0,25.6-11.5,25.6-25.6s-11.5-25.6-25.6-25.6H103.7Z"/>
    <path class="st0" d="M286.5,201.6H103.7c-21.8,0-39.4-17.7-39.4-39.4s17.7-39.4,39.4-39.4h182.7c21.8,0,39.4,17.7,39.4,39.4s-17.6,39.4-39.3,39.4ZM103.7,136.6c-14.1,0-25.6,11.5-25.6,25.6s11.5,25.6,25.6,25.6h182.7c14.1,0,25.6-11.5,25.6-25.6s-11.5-25.6-25.6-25.6H103.7Z"/>
    <circle class="st0" cx="195.1" cy="68.2" r="12.8"/>
    <circle class="st0" cx="195.1" cy="162.1" r="12.8"/>
    <path class="st0" d="M319,301.7c-16.1,0-29.3-13.1-29.3-29.3s13.1-29.3,29.3-29.3,29.3,13.1,29.3,29.3-13.2,29.3-29.3,29.3ZM319,257c-8.5,0-15.4,6.9-15.4,15.4s6.9,15.4,15.4,15.4,15.4-6.9,15.4-15.4-6.9-15.4-15.4-15.4Z"/>
    <path class="st0" d="M71.2,301.7c-16.1,0-29.3-13.1-29.3-29.3s13.1-29.3,29.3-29.3,29.3,13.1,29.3,29.3-13.1,29.3-29.3,29.3ZM71.2,257c-8.5,0-15.4,6.9-15.4,15.4s6.9,15.4,15.4,15.4,15.4-6.9,15.4-15.4-6.9-15.4-15.4-15.4Z"/>
    <path class="st0" d="M195.1,231c-3.8,0-6.9-3.1-6.9-6.9v-29.4c0-3.8,3.1-6.9,6.9-6.9s6.9,3.1,6.9,6.9v29.3c0,3.9-3.1,7-6.9,7Z"/>
    <rect class="st0" x="188.2" y="104.3" width="13.9" height="28.1"/>
    <rect class="st0" x="93.6" y="265.5" width="53.3" height="13.9"/>
    <rect class="st0" x="250.7" y="265.5" width="45.9" height="13.9"/>
    <path class="st0" d="M195.1,347.5c-2.9,0-5.8-.7-8.4-2.2l-33.4-18.7c-4.7-2.6-8-7.4-8.7-12.8l-8.5-64.1c-1.1-8.3,3.9-16.2,11.8-18.8l42-13.5c3.5-1.1,7.1-1.1,10.6,0l42,13.5c8,2.6,12.9,10.5,11.8,18.8l-8.5,64.1c-.7,5.4-4,10.2-8.7,12.8h0l-33.4,18.7c-2.8,1.4-5.7,2.2-8.6,2.2ZM195.1,230.5c-.4,0-.7.1-1.1.2l-42,13.5c-1.6.5-2.6,2.1-2.3,3.7l8.5,64.1c.1,1.1.8,2,1.7,2.5l33.4,18.7c1,.6,2.3.6,3.3,0l33.4-18.7c.9-.5,1.6-1.5,1.7-2.5l8.5-64.1c.2-1.6-.8-3.2-2.3-3.7l-42-13.5c0-.2-.4-.2-.8-.2ZM233.6,320.5h0Z"/>
    <path class="st0" d="M190.3,301.7c-1.4,0-2.9-.4-4.1-1.4l-21.2-15.7c-3.1-2.3-3.7-6.6-1.5-9.7,2.3-3.1,6.6-3.7,9.7-1.5l16.5,12.1,25.3-25.1c2.7-2.7,7.1-2.7,9.8,0s2.7,7.1,0,9.8l-29.5,29.3c-1.5,1.5-3.2,2.2-5,2.2Z"/>
  </g>
  <g class="st1">
    <path class="st0" d="M195.1,366.8c-79.7,0-144.5-64.8-144.5-144.5S115.4,77.8,195.1,77.8v16.2c-70.7,0-128.3,57.5-128.3,128.3s57.5,128.3,128.3,128.3,128.3-57.6,128.3-128.3-27-92.5-70.4-114.5l7.3-14.5c48.9,24.8,79.3,74.2,79.3,129,0,79.7-64.8,144.5-144.5,144.5Z"/>
    <path class="st0" d="M195.1,165.9c-42.3,0-82.2-8.3-109.4-22.9l7.6-14.3c24.9,13.3,62,20.9,101.7,20.9s76.8-7.6,101.7-20.9l7.6,14.3c-27,14.6-66.9,22.9-109.2,22.9Z"/>
    <path class="st0" d="M296.1,316.9c-24.9-13-61.7-20.5-101-20.5s-75.4,7.4-100.2,20.2l-7.4-14.4c27.1-14,66.3-22,107.7-22s81.3,8.2,108.5,22.4l-7.6,14.3Z"/>
    <rect class="st0" x="187" y="250.7" width="16.2" height="108"/>
    <rect class="st0" x="223.9" y="214.2" width="107.6" height="16.2"/>
    <path class="st0" d="M203.6,193.9h-16.2V17.5c0-2.9,1.6-5.6,4.1-7.1s5.7-1.4,8.2.2l104.3,63.9c2.6,1.6,4.1,4.4,3.9,7.4s-2,5.7-4.8,6.9l-99.5,44.2v60.9ZM203.6,32v83.3l78.8-35.1-78.8-48.2Z"/>
    <path class="st0" d="M195.5,258.8c-20.1,0-36.5-16.4-36.5-36.5s16.4-36.5,36.5-36.5,36.5,16.4,36.5,36.5-16.4,36.5-36.5,36.5ZM195.5,202c-11.2,0-20.3,9.1-20.3,20.3s9.1,20.3,20.3,20.3,20.3-9.1,20.3-20.3-9.1-20.3-20.3-20.3Z"/>
    <rect class="st0" x="60.2" y="214.2" width="107.6" height="16.2"/>
  </g>
  <g id="adi_logo-V-Reverse-CN">
    <g>
      <g>
        <path class="st0" d="M56.6,139.9c0-46,37.4-83.4,83.4-83.4h32V.4c-25.6-.2-32.8-1.7-59.1,3.2-.3,0-.5.1-.8.1C48.7,16.6.9,72.8.9,139.9s62.5,139.8,139.2,139.8h140.6V.4h-54.3v223.4l-86.4-.3c-46,0-83.4-37.4-83.4-83.4Z"/>
        <path class="st0" d="M109.8,141.4c0,17.8,13.3,29.7,31.2,29.7h31v-62.1h-29.8c-17.8,0-32.4,14.6-32.4,32.4Z"/>
        <rect class="st0" x="311.3" y="101.3" width="62.5" height="178.9"/>
      </g>
      <polygon class="st0" points="311.9 .3 366.1 .3 366.1 16 327.3 16 327.3 46.9 366.1 46.9 366.1 62.3 311.9 62.3 311.9 .3"/>
      <polygon class="st0" points="389.3 23.2 335.1 23.2 335.1 38.9 373.9 38.9 373.9 69.8 335.1 69.8 335.1 85.2 389.3 85.2 389.3 23.2"/>
    </g>
  </g>
</svg>