<?xml version="1.0" encoding="utf-8"?>
<!-- Generator: Adobe Illustrator 26.0.3, SVG Export Plug-In . SVG Version: 6.00 Build 0)  -->
<svg version="1.1" id="圖層_1" xmlns="http://www.w3.org/2000/svg" xmlns:xlink="http://www.w3.org/1999/xlink" x="0px" y="0px"
	 width="246px" height="246px" viewBox="0 0 246 246" style="enable-background:new 0 0 246 246;" xml:space="preserve">
<style type="text/css">
	.st0{fill:#FFFFFF;}
</style>
<g>
	<path class="st0" d="M117.5,77.9c2.5,0,4.6,0.8,6.3,2.5c2,1.8,3.3,4,4,6.8c0.4,1.4,1.7,2.5,3.2,2.5h21.8c1.1,0,2.1,0.4,2.9,1.3
		c0.9,0.9,1.3,1.7,1.3,2.8v21.5c0,1.5,1,2.8,2.5,3.2c2.7,0.7,4.9,2.1,6.6,4.1c1.6,1.9,2.4,4.1,2.4,6.6c0,2.4-0.7,4.4-2.3,6
		c-1.7,1.8-3.9,3.1-6.7,3.8c-1.5,0.4-2.5,1.7-2.5,3.2V164c0,1.1-0.4,2-1.3,2.8c-0.9,0.9-1.8,1.3-2.9,1.3h-19.3
		c-0.8-3.4-2.5-6.4-5-8.7c-3.2-3.1-7-4.6-11.3-4.6c-4.3,0-8.1,1.5-11.3,4.6c-2.5,2.3-4.1,5.3-5,8.7H81.7c-1.1,0-2.1-0.4-2.9-1.3
		c-0.9-0.9-1.3-1.7-1.3-2.8v-19.1c3.2-0.8,6-2.4,8.4-4.6c3.3-3.1,5-7,5-11.5c0-4.5-1.7-8.4-5-11.5c-2.4-2.2-5.3-3.8-8.4-4.6V93.7
		c0-1.1,0.4-2,1.3-2.8c0.9-0.9,1.8-1.3,2.9-1.3h22.3c1.5,0,2.8-1,3.2-2.5c0.8-2.7,2.1-5,4-6.8C113,78.7,115,77.9,117.5,77.9
		 M117.5,74.5c-3.4,0-6.2,1.1-8.6,3.4c-2.4,2.2-4,5-5,8.3H81.7c-2,0-3.8,0.7-5.3,2.2c-1.5,1.5-2.3,3.2-2.3,5.2v21.9
		c3.7,0.4,6.9,1.8,9.5,4.3c2.6,2.4,4,5.5,4,9c0,3.6-1.3,6.6-4,9c-2.6,2.4-5.8,3.9-9.5,4.3V164c0,2,0.8,3.7,2.3,5.2
		c1.5,1.5,3.3,2.2,5.3,2.2h22.2c0.4-4,1.9-7.2,4.5-9.6c2.6-2.4,5.6-3.7,9-3.7c3.4,0,6.4,1.2,9,3.7c2.6,2.4,4,5.7,4.5,9.6h22.2
		c2,0,3.8-0.7,5.3-2.2c1.5-1.5,2.3-3.2,2.3-5.2v-21.9c3.4-0.9,6.1-2.5,8.2-4.7c2.1-2.2,3.2-5,3.2-8.3c0-3.3-1.1-6.2-3.2-8.8
		c-2.1-2.5-4.9-4.2-8.2-5.2V93.7c0-2-0.8-3.7-2.3-5.2c-1.5-1.5-3.3-2.2-5.3-2.2h-21.8c-0.9-3.3-2.6-6.1-5-8.3
		C123.8,75.6,120.9,74.5,117.5,74.5L117.5,74.5z"/>
	<g>
		<path class="st0" d="M125.2,100.4h-8.2c-0.7,0-1.2,0.5-1.3,1.1l-0.8,5.3c-0.1,0.5-0.4,0.9-0.9,1c-0.5,0.2-1,0.5-1.5,0.8
			c-0.5,0.3-1,0.6-1.5,0.9c-0.2,0.2-0.5,0.3-0.8,0.3c-0.2,0-0.4,0-0.5-0.1l-4.9-2.2c-0.2-0.1-0.4-0.1-0.6-0.1
			c-0.5,0-0.9,0.3-1.2,0.7l-4.1,7.2c-0.3,0.6-0.2,1.4,0.4,1.8l5.2,3.8c-0.1,0.3-0.1,0.7-0.1,1.2c0,0.4,0,0.8,0,1.2
			c0,0.3,0,0.7,0,1.2c0,0.4,0.1,0.8,0.1,1.2l-5.2,3.8c-0.6,0.4-0.7,1.2-0.4,1.8l4.1,7.2c0.2,0.4,0.7,0.7,1.2,0.7
			c0.2,0,0.4,0,0.6-0.1l4.9-2.2c0.2-0.1,0.4-0.1,0.5-0.1c0.3,0,0.6,0.1,0.8,0.3c0.4,0.3,0.9,0.6,1.5,0.9c0.5,0.3,1.1,0.6,1.6,0.8
			c0.4,0.2,0.8,0.6,0.8,1l0.8,5.3c0.1,0.7,0.7,1.1,1.3,1.1h8.2c0.7,0,1.2-0.5,1.3-1.1l0.8-5.2c0.1-0.5,0.4-0.9,0.9-1.1
			c0.5-0.2,1-0.5,1.5-0.8c0.5-0.3,1-0.6,1.4-1c0.2-0.2,0.5-0.3,0.8-0.3c0.2,0,0.4,0,0.5,0.1l4.9,2.2c0.2,0.1,0.4,0.1,0.6,0.1
			c0.5,0,0.9-0.3,1.2-0.7l4.1-7.2c0.3-0.6,0.2-1.4-0.4-1.8l-5.2-3.7c0.1-0.4,0.1-0.8,0.1-1.2c0-0.4,0-0.8,0-1.2c0-0.4,0-0.8,0-1.2
			c0-0.4-0.1-0.8-0.1-1.2l5.2-3.7c0.6-0.4,0.7-1.2,0.4-1.8l-4.1-7.2c-0.2-0.4-0.7-0.7-1.2-0.7c-0.2,0-0.4,0-0.6,0.1l-4.9,2.2
			c-0.2,0.1-0.3,0.1-0.5,0.1c-0.3,0-0.6-0.1-0.8-0.3c-0.4-0.3-0.9-0.6-1.5-0.9c-0.6-0.3-1.1-0.6-1.6-0.8c-0.4-0.2-0.8-0.6-0.8-1
			l-0.8-5.3C126.4,100.8,125.9,100.4,125.2,100.4L125.2,100.4z M110.9,113.6c0.4,0,0.7-0.1,1-0.4c0.7-0.7,1.5-1.2,2.3-1.7
			c0.9-0.5,1.8-0.9,2.7-1.1c0.5-0.2,1-0.6,1-1.1l0.5-4.3c0.1-0.7,0.7-1.2,1.3-1.2h2.6c0.7,0,1.3,0.5,1.3,1.2l0.5,4.2
			c0.1,0.6,0.5,1,1.1,1.2c1,0.2,1.8,0.6,2.7,1.1c0.8,0.5,1.6,1.1,2.3,1.8c0.3,0.3,0.6,0.4,1,0.4c0.2,0,0.4,0,0.5-0.1l4-1.8
			c0.2-0.1,0.4-0.1,0.5-0.1c0.5,0,0.9,0.3,1.2,0.7l1.1,2c0.3,0.6,0.2,1.3-0.4,1.8l-3.7,2.7c-0.4,0.3-0.6,0.9-0.5,1.4
			c0.1,0.3,0.1,0.7,0.2,1c0.1,0.6,0.1,1.3,0.1,1.9c0,0.6,0,1.3-0.1,1.9c-0.1,0.3-0.1,0.7-0.2,1c-0.1,0.5,0.1,1.1,0.5,1.4l3.7,2.7
			c0.6,0.4,0.7,1.2,0.4,1.8l-1.1,2c-0.2,0.4-0.7,0.7-1.2,0.7c-0.2,0-0.4,0-0.5-0.1l-4.1-1.8c-0.2-0.1-0.3-0.1-0.5-0.1
			c-0.3,0-0.7,0.1-0.9,0.4c-0.7,0.7-1.5,1.2-2.4,1.7c-0.9,0.5-1.8,0.9-2.7,1.2c-0.5,0.2-0.9,0.6-1,1.1l-0.5,4.3
			c-0.1,0.7-0.7,1.2-1.3,1.2h-2.6c-0.7,0-1.3-0.5-1.3-1.2l-0.5-4.3c-0.1-0.5-0.5-1-1-1.1c-0.9-0.3-1.8-0.7-2.7-1.2
			c-0.9-0.5-1.7-1.1-2.4-1.7c-0.3-0.2-0.6-0.4-0.9-0.4c-0.2,0-0.4,0-0.5,0.1l-4.1,1.8c-0.2,0.1-0.4,0.1-0.5,0.1
			c-0.5,0-0.9-0.3-1.2-0.7l-1.1-2c-0.3-0.6-0.2-1.4,0.4-1.8l3.7-2.7c0.4-0.3,0.6-0.9,0.5-1.4c-0.1-0.4-0.1-0.7-0.2-1
			c-0.1-0.6-0.1-1.3-0.1-1.9c0-0.6,0-1.3,0.1-1.9c0.1-0.3,0.1-0.7,0.2-1c0.1-0.5-0.1-1.1-0.5-1.4l-3.7-2.7c-0.6-0.4-0.7-1.2-0.4-1.8
			l1.1-2c0.2-0.4,0.7-0.7,1.2-0.7c0.2,0,0.4,0,0.5,0.1l4.1,1.8C110.5,113.6,110.7,113.6,110.9,113.6L110.9,113.6z"/>
		<path class="st0" d="M121.1,115.7c-2.9,0-5.2,1.4-6.9,4.3c-0.1,0.1-0.1,0.3-0.2,0.4c-1.1,4.2,0.2,7.4,4,9.5
			c0.1,0.1,0.3,0.1,0.4,0.2c0.9,0.2,1.8,0.4,2.7,0.4c2.9,0,5.2-1.4,6.9-4.3c0.1-0.1,0.1-0.3,0.2-0.4c1.1-4.2-0.2-7.4-4-9.6
			c-0.1-0.1-0.3-0.1-0.4-0.2C122.9,115.9,122,115.7,121.1,115.7L121.1,115.7z M121.1,127.1c-0.4,0-0.9-0.1-1.3-0.2
			c-0.2,0-0.3-0.1-0.5-0.2c-1.9-1.2-2.6-2.8-2-4.9c0-0.2,0.1-0.3,0.2-0.5c0.9-1.5,2.1-2.2,3.6-2.2c0.4,0,0.9,0.1,1.3,0.2
			c0.2,0,0.3,0.1,0.5,0.2c1.9,1.2,2.6,2.8,2,4.9c0,0.2-0.1,0.3-0.2,0.5C123.9,126.4,122.6,127.1,121.1,127.1L121.1,127.1z"/>
	</g>
</g>
</svg>
