<svg xmlns="http://www.w3.org/2000/svg" width="90" height="100" viewBox="0 0 90 100">
  <defs>
    <style>
      .cls-1 {
        fill: #fff;
      }
    </style>
  </defs>
  <g id="圖層_1" data-name="圖層 1">
    <g>
      <path class="cls-1" d="M45,63.49A13.6,13.6,0,0,1,41.51,63a13.47,13.47,0,1,1,10.23-1.34h0A13.39,13.39,0,0,1,45,63.49Zm0-23.71a10.11,10.11,0,0,0-5.09,1.37,10.22,10.22,0,1,0,10.22,17.7h0A10.22,10.22,0,0,0,45,39.78Z"/>
      <rect class="cls-1" x="46.68" y="30.76" width="16.97" height="3.26" transform="translate(-0.46 63.97) rotate(-60)"/>
      <path class="cls-1" d="M61.79,27.31a6.34,6.34,0,0,1-3.19-.86A6.4,6.4,0,1,1,65,15.36a6.4,6.4,0,0,1,2.34,8.74h0a6.31,6.31,0,0,1-3.88,3A6.44,6.44,0,0,1,61.79,27.31Zm0-9.55a2.94,2.94,0,0,0-.82.11,3.07,3.07,0,0,0-1.9,1.46,3.14,3.14,0,0,0,1.15,4.3,3.09,3.09,0,0,0,2.38.31,3.16,3.16,0,0,0,1.91-1.46h0a3.17,3.17,0,0,0,.32-2.39,3.14,3.14,0,0,0-1.47-1.91A3.11,3.11,0,0,0,61.8,17.76Z"/>
      <rect class="cls-1" x="33.2" y="23.9" width="3.26" height="16.97" transform="translate(-11.53 21.75) rotate(-30)"/>
      <path class="cls-1" d="M28.21,27.31a6.44,6.44,0,0,1-1.67-.22A6.41,6.41,0,0,1,25,15.36a6.41,6.41,0,0,1,8.75,2.34h0a6.42,6.42,0,0,1-2.35,8.75A6.34,6.34,0,0,1,28.21,27.31Zm0-9.55a3.11,3.11,0,0,0-1.57.42,3.14,3.14,0,0,0-1.47,1.91,3.15,3.15,0,0,0,2.23,3.85,3.09,3.09,0,0,0,2.38-.31,3.14,3.14,0,0,0,1.15-4.3A3.07,3.07,0,0,0,29,17.87,2.94,2.94,0,0,0,28.2,17.76Z"/>
      <rect class="cls-1" x="16.18" y="48.37" width="16.97" height="3.26"/>
      <path class="cls-1" d="M11.4,56.4A6.4,6.4,0,1,1,17.8,50,6.41,6.41,0,0,1,11.4,56.4Zm0-9.54A3.14,3.14,0,1,0,14.55,50,3.15,3.15,0,0,0,11.4,46.86Z"/>
      <rect class="cls-1" x="26.35" y="65.99" width="16.97" height="3.26" transform="translate(-41.14 63.97) rotate(-60)"/>
      <path class="cls-1" d="M28.19,85.5a6.4,6.4,0,0,1-5.53-9.6h0a6.31,6.31,0,0,1,3.88-3A6.41,6.41,0,1,1,28.19,85.5Zm0-9.55a3.24,3.24,0,0,0-.82.11,3.16,3.16,0,0,0-1.91,1.46h0a3.14,3.14,0,1,0,4.29-1.15A3.1,3.1,0,0,0,28.21,76Z"/>
      <rect class="cls-1" x="53.54" y="59.13" width="3.26" height="16.97" transform="translate(-26.42 36.64) rotate(-30)"/>
      <path class="cls-1" d="M61.81,85.5a6.43,6.43,0,0,1-5.56-3.2h0a6.41,6.41,0,0,1,7.21-9.39,6.31,6.31,0,0,1,3.88,3,6.4,6.4,0,0,1-5.53,9.6Zm-2.73-4.83a3.14,3.14,0,1,0,3.53-4.61,3.09,3.09,0,0,0-2.38.31,3.14,3.14,0,0,0-1.15,4.3Z"/>
      <rect class="cls-1" x="56.85" y="48.37" width="16.97" height="3.26"/>
      <path class="cls-1" d="M78.6,56.4A6.4,6.4,0,1,1,85,50,6.41,6.41,0,0,1,78.6,56.4Zm0-9.54A3.14,3.14,0,1,0,81.74,50,3.15,3.15,0,0,0,78.6,46.86Z"/>
      <g>
        <circle class="cls-1" cx="45.09" cy="20.29" r="1.62"/>
        <circle class="cls-1" cx="39.54" cy="20.29" r="1.62"/>
        <circle class="cls-1" cx="50.63" cy="20.29" r="1.62"/>
      </g>
      <g>
        <circle class="cls-1" cx="45.09" cy="79.48" r="1.62"/>
        <circle class="cls-1" cx="39.54" cy="79.48" r="1.62"/>
        <circle class="cls-1" cx="50.63" cy="79.48" r="1.62"/>
      </g>
      <g>
        <circle class="cls-1" cx="19.31" cy="35.07" r="1.62"/>
        <circle class="cls-1" cx="16.54" cy="39.87" r="1.62"/>
        <circle class="cls-1" cx="22.08" cy="30.27" r="1.62"/>
      </g>
      <g>
        <circle class="cls-1" cx="70.57" cy="64.67" r="1.62"/>
        <circle class="cls-1" cx="67.8" cy="69.47" r="1.62"/>
        <circle class="cls-1" cx="73.34" cy="59.86" r="1.62"/>
      </g>
      <g>
        <circle class="cls-1" cx="19.23" cy="64.78" r="1.62"/>
        <circle class="cls-1" cx="22" cy="69.58" r="1.62"/>
        <circle class="cls-1" cx="16.45" cy="59.98" r="1.62"/>
      </g>
      <g>
        <circle class="cls-1" cx="70.49" cy="35.19" r="1.62"/>
        <circle class="cls-1" cx="73.26" cy="39.99" r="1.62"/>
        <circle class="cls-1" cx="67.71" cy="30.39" r="1.62"/>
      </g>
    </g>
  </g>
</svg>
