<svg xmlns="http://www.w3.org/2000/svg" width="116.3" height="44.36" viewBox="0 0 116.3 44.36">
  <defs>
    <style>
      .cls-1 {
        fill: #fff;
      }
    </style>
  </defs>
  <g id="圖層_2" data-name="圖層 2">
    <g id="圖層_1-2" data-name="圖層 1">
      <g>
        <path class="cls-1" d="M33.86,38.35q-5.38,6-14.23,6t-14.24-6Q0,32.35,0,22T5.36,5.81Q10.73,0,19.63,0T33.89,5.81Q39.26,11.63,39.25,22T33.86,38.35ZM13,31.9a7.58,7.58,0,0,0,6.66,3.65,7.64,7.64,0,0,0,6.68-3.68Q28.76,28.2,28.75,22t-2.44-9.69a7.72,7.72,0,0,0-6.68-3.51A7.65,7.65,0,0,0,13,12.27Q10.56,15.78,10.56,22T13,31.9Z"/>
        <path class="cls-1" d="M50.43,43.58a3.36,3.36,0,0,1-3.31-3.32V4.1a3.15,3.15,0,0,1,1-2.33,3.15,3.15,0,0,1,2.33-1h9q10.23,0,16,5.19t5.73,16a28.21,28.21,0,0,1-1.52,9.63,16.8,16.8,0,0,1-4.35,6.79,18.41,18.41,0,0,1-6.65,3.9,26.51,26.51,0,0,1-8.6,1.3Zm7-8.71a.4.4,0,0,0,.45.45h1q5.61,0,8.7-3.09T70.59,22a20.81,20.81,0,0,0-.84-6.32,8.69,8.69,0,0,0-2.5-4,10.55,10.55,0,0,0-3.68-2A16.5,16.5,0,0,0,58.8,9h-1q-.45,0-.45.39Z"/>
        <path class="cls-1" d="M92.32,43.58A3.36,3.36,0,0,1,89,40.26V4.1a3.15,3.15,0,0,1,1-2.33,3.15,3.15,0,0,1,2.33-1H113a3.12,3.12,0,0,1,2.35,1,3.21,3.21,0,0,1,1,2.33V6a3.23,3.23,0,0,1-1,2.33,3.15,3.15,0,0,1-2.35,1H99.73q-.45,0-.45.39v8.54a.4.4,0,0,0,.45.45h10.84A3.26,3.26,0,0,1,113.88,22v1.91a3.26,3.26,0,0,1-3.31,3.32H99.73c-.3,0-.45.14-.45.44V40.26a3.2,3.2,0,0,1-1,2.33,3.15,3.15,0,0,1-2.36,1Z"/>
      </g>
    </g>
  </g>
</svg>
