<svg id="圖層_1" data-name="圖層 1" xmlns="http://www.w3.org/2000/svg" width="429.79" height="1072.43" viewBox="0 0 429.79 1072.43">
  <defs>
    <style>
      .cls-1 {
        fill: #f6e45c;
      }

      .cls-2, .cls-3, .cls-4 {
        fill: none;
        stroke: #4d4d4d;
        stroke-miterlimit: 10;
      }

      .cls-2 {
        stroke-width: 1.01px;
      }

      .cls-3 {
        stroke-dasharray: 3 5;
      }

      .cls-5 {
        fill: #4e6dae;
      }

      .cls-6 {
        fill: #465f97;
      }

      .cls-7 {
        fill: #fff;
      }

      .cls-8 {
        fill: #6161bc;
      }

      .cls-9 {
        fill: #44b3c1;
      }

      .cls-10 {
        fill: #42ba92;
      }
    </style>
  </defs>
  <g>
    <rect class="cls-1" x="223.68" y="894.85" width="10.83" height="100" rx="5" transform="translate(458.19 1889.7) rotate(-180)"/>
    <path class="cls-2" d="M180.41,797.76V332.35c0-4.71,4.47-8.54,10-8.54h9"/>
    <path class="cls-3" d="M219.21,1037h-28.8c-5.53,0-10-3.82-10-8.53V797.76"/>
    <g>
      <line class="cls-4" x1="183.72" y1="165.17" x2="156.17" y2="165.17"/>
      <path class="cls-4" d="M156.53,39.8l.17,644.61a10,10,0,0,0,10,10h13.71"/>
      <path class="cls-4" d="M78.68,111.16l.7-22.61c.13-4.34,4.27-7.79,9.34-7.79H222.63c5.16,0,9.35,3.58,9.35,8v22.4"/>
      <rect class="cls-5" x="23.68" y="95.5" width="110" height="31.66" rx="5"/>
      <rect class="cls-6" x="176.98" y="149.17" width="110" height="32" rx="5" transform="translate(463.95 330.35) rotate(-180)"/>
      <rect class="cls-5" x="176.98" y="95.16" width="110" height="31.66" rx="5"/>
      <g>
        <path class="cls-7" d="M55.49,106.79a20.69,20.69,0,0,1-2.37,7.37,9,9,0,0,0,3.74,3.36,7.29,7.29,0,0,0-.92,1.14,10.15,10.15,0,0,1-3.62-3.31,11.78,11.78,0,0,1-4,3.34,6.73,6.73,0,0,0-.77-1.17,10.19,10.19,0,0,0,4.09-3.4A21.45,21.45,0,0,1,49.73,109a15.15,15.15,0,0,1-1.17,2,9.34,9.34,0,0,0-1.06-.88l.09-.13h-2v4.58l3.08-.71.13,1.21c-3,.72-6.14,1.48-8.38,2l-.25-1.33,1.06-.22v-8h1.23v7.72l1.84-.39v-10H40.46v-1.3h8.23v1.3H45.57v3.92H48v.63a19.87,19.87,0,0,0,2.5-7.13l1.34.24c-.22,1.06-.49,2.12-.78,3.09H56.7v1.26Zm-5,.31a22.75,22.75,0,0,0,1.82,5.74,19.38,19.38,0,0,0,1.78-6H50.67Z"/>
        <path class="cls-7" d="M74.93,105.24a8.73,8.73,0,0,1-2.12,3.1,13.38,13.38,0,0,0,3.9,1.59,5.71,5.71,0,0,0-.86,1.13,12.8,12.8,0,0,1-4-1.91,13.87,13.87,0,0,1-4,1.89,8.21,8.21,0,0,0-.45-.74,18.33,18.33,0,0,1-1.12,2.83l-.92-.5a17.54,17.54,0,0,0,1-2.94H64.58v7.4c0,.69-.13,1-.6,1.24a7,7,0,0,1-2.25.2,4.94,4.94,0,0,0-.41-1.19c.77,0,1.48,0,1.71,0s.29-.07.29-.27v-5.67a14.84,14.84,0,0,1-2.59,4.36,7.09,7.09,0,0,0-.72-1.26,13.77,13.77,0,0,0,2.89-4.83H60.19V108.5H65a17.46,17.46,0,0,0-4-2.41l.8-.86a19.77,19.77,0,0,1,1.8.88,12.1,12.1,0,0,0,1.89-1.82H60.38v-1.17h6.07l.24-.05.88.57a13.92,13.92,0,0,1-2.94,3.06,10.1,10.1,0,0,1,1.5,1.08l-.61.72h1.24l.2-.07.81.33c-.09.32-.18.64-.29,1a12,12,0,0,0,3.27-1.43,10.11,10.11,0,0,1-1.87-2.21,12.56,12.56,0,0,1-1.44,1.4,7.55,7.55,0,0,0-1-.86,11,11,0,0,0,3.49-4.43l1.28.34a12.73,12.73,0,0,1-.81,1.55h6v1.13Zm-.36,7h1.35s0,.4,0,.59c-.31,3.35-.67,4.7-1.19,5.23a1.64,1.64,0,0,1-1.22.46,19.59,19.59,0,0,1-2,0,2.53,2.53,0,0,0-.36-1.17c.79.07,1.55.09,1.89.09a.84.84,0,0,0,.61-.18c.36-.35.63-1.41.9-3.86h-3a7.3,7.3,0,0,1-4.79,5.37,4.72,4.72,0,0,0-.84-1.1,6.2,6.2,0,0,0,4.25-4.27H67.28v-1.13h3.1c.1-.58.18-1.19.23-1.8H72a17.35,17.35,0,0,1-.23,1.8h2.84Zm-4.86-7a8.51,8.51,0,0,0,2,2.35,6.85,6.85,0,0,0,1.72-2.35Z"/>
        <path class="cls-7" d="M85.69,113.73H80v-1.32h5.65Zm-.54-7.41H80.44V105h4.71Zm5.33,2.44c0,.27,0,.54,0,.79.82,3.8,2.61,6.68,5.88,7.81a5.87,5.87,0,0,0-.88,1.17,9.58,9.58,0,0,1-5.4-6.14c-.63,2.2-2.11,4.5-5.55,6.3a6.14,6.14,0,0,0-1-1c5.16-2.61,5.56-6.36,5.56-8.93v-1.37h1.4ZM87.6,106.6a18,18,0,0,1-1.89,3.78,7.35,7.35,0,0,0-1.31-.76,18.13,18.13,0,0,0,2.9-7.4l1.44.27a27.77,27.77,0,0,1-.71,2.79h6.52l.25-.07,1,.52a26.61,26.61,0,0,1-1.89,4.88c-.28-.16-.79-.43-1.11-.58a21.43,21.43,0,0,0,1.33-3.43Z"/>
        <path class="cls-7" d="M115.11,112.91a28.16,28.16,0,0,1-3.89,2.36,12.6,12.6,0,0,0,5.09,2.06,6.38,6.38,0,0,0-.82,1.18A11.38,11.38,0,0,1,107,112h-2.88v4.83l4.86-1.17c0,.34,0,.88,0,1.17-5,1.28-5.93,1.53-6.34,1.74l-.07.06a7,7,0,0,0-.61-1.32,1.42,1.42,0,0,0,.88-1.27v-4H99.91v-1.2h3.15v-7.91h11.08v1.14h-9.73v1.54h9.19v1.1h-9.19v1.5h9.19v1.08h-9.19v1.55h11.47V112h-7.51a9.19,9.19,0,0,0,1.93,2.52,27.08,27.08,0,0,0,3.69-2.37Z"/>
      </g>
      <g>
        <path class="cls-7" d="M210.06,171.46v1.32H194.14v-1.32h7.21v-4.41H195.8v-1.29h5.55v-3.95H195V160.5h7.91a19.89,19.89,0,0,0-3.06-2.75l1.08-.76a20.51,20.51,0,0,1,3.29,2.9l-.84.61h5.81v1.31h-6.39v3.95h5.65v1.29h-5.65v4.41Z"/>
        <path class="cls-7" d="M219.51,157.44a27.68,27.68,0,0,1-1.93,3.8v12.1h-1.31V163.22a18.55,18.55,0,0,1-2.15,2.45,7.43,7.43,0,0,0-.82-1.34,19.62,19.62,0,0,0,4.89-7.29Zm5.6,8.5v5.45h4.63v1.3H219.18v-1.3h4.6v-5.45h-5.15v-1.3h5.15v-4.73h-4v-1.28h9.58v1.28h-4.28v4.73h5v1.3Z"/>
        <path class="cls-7" d="M238.68,167.76c-.24-.54-.76-1.55-1.23-2.4v8h-1.26v-7.47a17.72,17.72,0,0,1-2.16,4.32,5.91,5.91,0,0,0-.7-1.28,19.3,19.3,0,0,0,2.72-5.65h-2.32v-1.26h2.46v-2.9c-.63.14-1.27.27-1.87.38a5.82,5.82,0,0,0-.4-1.07,21.61,21.61,0,0,0,4.78-1.4l.82,1.08a14.22,14.22,0,0,1-2.07.72v3.19h2.07v1.26h-2.07v.4c.45.59,1.77,2.48,2.06,3Zm10,1.06a22.25,22.25,0,0,0-1.7-5.33,26.48,26.48,0,0,1-3.35,5.92v1.77c0,.72.11.84.78.84h2.12c.61,0,.72-.47.8-2.68a2.6,2.6,0,0,0,1.15.52c-.15,2.58-.49,3.33-1.84,3.33H244.3c-1.5,0-1.89-.43-1.89-2v-.24a18,18,0,0,1-2.33,2.13,7.66,7.66,0,0,0-1.08-.92,17.77,17.77,0,0,0,3.41-3.19v-8.15h1.27v6.41a32,32,0,0,0,3.88-9.17l1.27.26a45.57,45.57,0,0,1-1.78,5.18l1.14-.34a23.06,23.06,0,0,1,1.74,5.33Zm-9.64-.63a17.59,17.59,0,0,0,1.32-5.55l1,.24a20.11,20.11,0,0,1-1.29,5.7Zm6.34-7.67A20.54,20.54,0,0,0,242,157.8l.81-.88a19.55,19.55,0,0,1,3.48,2.59Z"/>
        <path class="cls-7" d="M269.41,166v1h-15.9v-1h7.2v-1.06h-6V164h6v-.92H255.2v-.9h5.51v-1.11h-7.18v-1h7.18v-1h-5.29v-.9h5.29V156.9H262v1.26h5.15v1.91h2.15v1h-2.15v2H262V164h6.09v.9H262V166Zm-13.61,1.89h11.48v5.59H266v-.63h-8.86v.63H255.8Zm1.29.92v1.08H266v-1.08Zm8.86,3.1v-1.13h-8.86v1.13ZM262,160.07h3.82v-1H262Zm0,2.12h3.82v-1.11H262Z"/>
      </g>
      <g>
        <path class="cls-7" d="M209,108.85h-1.31v-2.69H195.3v2.69H194V105h2.89a12.35,12.35,0,0,0-1.41-2.12l1.19-.49a10.84,10.84,0,0,1,1.53,2.11l-1.12.5h3.77V102.2h1.35V105H209Zm-1.1,7.61c0,.7-.14,1.06-.7,1.26a9.2,9.2,0,0,1-2.84.22,5.77,5.77,0,0,0-.47-1.23c1.08,0,2,0,2.3,0s.36-.07.36-.29v-2.52h-4.17v4.74H201v-4.74h-4.45v3.93H195.2V112.7H201v-1.48H196.8v-3.78h9.4v3.78h-3.87v1.48h5.52Zm-9.77-6.25h6.78v-1.76h-6.78Zm9.41-7.38a24.72,24.72,0,0,1-1.8,2.16l-1.08-.45a14.68,14.68,0,0,0,1.5-2.19Z"/>
        <path class="cls-7" d="M227.87,105.24a8.89,8.89,0,0,1-2.13,3.1,13.55,13.55,0,0,0,3.91,1.59,5.35,5.35,0,0,0-.86,1.13,12.6,12.6,0,0,1-4-1.91,13.93,13.93,0,0,1-4,1.89,8.21,8.21,0,0,0-.45-.74,18.38,18.38,0,0,1-1.11,2.83l-.92-.5a16.72,16.72,0,0,0,1-2.94h-1.72v7.4c0,.69-.13,1-.6,1.24a7.06,7.06,0,0,1-2.25.2,4.94,4.94,0,0,0-.41-1.19c.77,0,1.47,0,1.71,0s.29-.07.29-.27v-5.67a15.07,15.07,0,0,1-2.6,4.36,6,6,0,0,0-.72-1.26,13.79,13.79,0,0,0,2.9-4.83h-2.72V108.5H218a17.91,17.91,0,0,0-4-2.41l.79-.86a17.51,17.51,0,0,1,1.8.88,11.67,11.67,0,0,0,1.89-1.82h-5.11v-1.17h6.07l.23-.05.88.57a13.64,13.64,0,0,1-2.93,3.06,10,10,0,0,1,1.49,1.08l-.61.72h1.24l.2-.07.81.33c-.09.32-.18.64-.29,1a12,12,0,0,0,3.28-1.43,9.59,9.59,0,0,1-1.87-2.21,13.43,13.43,0,0,1-1.44,1.4,7.66,7.66,0,0,0-1-.86,11.06,11.06,0,0,0,3.5-4.43l1.28.34a16.34,16.34,0,0,1-.81,1.55h6v1.13Zm-.36,7h1.35s0,.4-.05.59c-.31,3.35-.67,4.7-1.19,5.23a1.68,1.68,0,0,1-1.23.46,19.39,19.39,0,0,1-2,0,2.66,2.66,0,0,0-.36-1.17c.79.07,1.54.09,1.89.09a.84.84,0,0,0,.61-.18c.36-.35.63-1.41.9-3.86h-3a7.3,7.3,0,0,1-4.79,5.37,4.76,4.76,0,0,0-.85-1.1,6.18,6.18,0,0,0,4.25-4.27h-2.82v-1.13h3.09c.11-.58.18-1.19.24-1.8h1.35c-.06.61-.13,1.22-.24,1.8h2.85Zm-4.86-7a8.64,8.64,0,0,0,2,2.35,6.75,6.75,0,0,0,1.73-2.35Z"/>
        <path class="cls-7" d="M238.63,113.73H233v-1.32h5.65Zm-.54-7.41h-4.72V105h4.72Zm5.33,2.44c0,.27,0,.54,0,.79.83,3.8,2.61,6.68,5.89,7.81a5.87,5.87,0,0,0-.88,1.17,9.55,9.55,0,0,1-5.4-6.14c-.63,2.2-2.11,4.5-5.55,6.3a6.2,6.2,0,0,0-1-1c5.17-2.61,5.57-6.36,5.57-8.93v-1.37h1.4Zm-2.88-2.16a18,18,0,0,1-1.89,3.78,7.44,7.44,0,0,0-1.32-.76,18.13,18.13,0,0,0,2.9-7.4l1.44.27a27.75,27.75,0,0,1-.7,2.79h6.52l.25-.07,1,.52a27.35,27.35,0,0,1-1.89,4.88c-.29-.16-.79-.43-1.12-.58a20.48,20.48,0,0,0,1.34-3.43Z"/>
        <path class="cls-7" d="M268,112.91a28.05,28.05,0,0,1-3.88,2.36,12.48,12.48,0,0,0,5.09,2.06,6.44,6.44,0,0,0-.83,1.18A11.38,11.38,0,0,1,260,112h-2.88v4.83l4.86-1.17c0,.34-.05.88,0,1.17-5.05,1.28-5.93,1.53-6.34,1.74l-.07.06a6.51,6.51,0,0,0-.62-1.32,1.42,1.42,0,0,0,.89-1.27v-4h-2.92v-1.2H256v-7.91h11.07v1.14h-9.72v1.54h9.18v1.1h-9.18v1.5h9.18v1.08h-9.18v1.55h11.47V112h-7.51a9.19,9.19,0,0,0,1.93,2.52,27.08,27.08,0,0,0,3.69-2.37Z"/>
      </g>
      <rect class="cls-8" x="107.19" y="23.4" width="97.74" height="32" rx="5"/>
      <g>
        <path class="cls-7" d="M136.62,34c-.39,1.05-.9,2.27-1.35,3.21h2.56V38.4h-9.36V37.18H134a26.59,26.59,0,0,0,1.31-3.49Zm.79-.39H129V32.35h3.73c-.2-.59-.49-1.29-.74-1.85l1.17-.34a15.8,15.8,0,0,1,.95,2.19h3.31ZM129.49,40H137v6.38h-1.31V45.7h-4.9v.86h-1.28Zm1.71-2.93A14.09,14.09,0,0,0,130.09,34l1.15-.29a12.7,12.7,0,0,1,1.19,3Zm-.43,4.14v3.26h4.9V41.25Zm13.72-9.51c-.65,1.64-1.48,3.69-2.23,5.35a6.06,6.06,0,0,1,2,4.34,2.68,2.68,0,0,1-.81,2.28,2.24,2.24,0,0,1-1.12.38,9.62,9.62,0,0,1-1.53,0,3.18,3.18,0,0,0-.36-1.28,8.5,8.5,0,0,0,1.39,0,1.78,1.78,0,0,0,.72-.18A1.6,1.6,0,0,0,143,41.3c0-1.13-.45-2.43-2-4.07.67-1.51,1.37-3.42,1.86-4.8H140V46.65h-1.2V31.2h4.61l.21-.07Z"/>
        <path class="cls-7" d="M183.3,40.94a29.17,29.17,0,0,1-3.89,2.36,12.45,12.45,0,0,0,5.09,2.05,6.81,6.81,0,0,0-.82,1.19,11.38,11.38,0,0,1-8.47-6.48h-2.88v4.83l4.86-1.18c0,.35-.05.89,0,1.18-5,1.27-5.93,1.53-6.34,1.74l-.07.06a6.74,6.74,0,0,0-.61-1.32,1.43,1.43,0,0,0,.88-1.28v-4H168.1V38.85h3.15V31h11.08v1.13H172.6v1.55h9.19v1.1H172.6v1.49h9.19v1.09H172.6v1.54h11.47v1.21h-7.51a9.34,9.34,0,0,0,1.93,2.52,26.16,26.16,0,0,0,3.69-2.38Z"/>
      </g>
    </g>
    <g>
      <rect class="cls-9" x="202.68" y="207.99" width="32" height="231.32" rx="5"/>
      <g>
        <path class="cls-7" d="M217.13,298.38a16.62,16.62,0,0,1-5.53,2.32,4.92,4.92,0,0,0-.81-1,16,16,0,0,0,5.33-1.78Zm9.4-2.5V297h-7.22v4.27H218V297h-7.12v-1.13H218v-1.36h-5.42v-1H218v-1.3h-6.34v-1.08h3.89a7.89,7.89,0,0,0-.92-1.73l1-.25h-4.64V288h2.9a14.07,14.07,0,0,0-1.44-2.61l1.13-.39a11,11,0,0,1,1.53,2.64l-.9.36h2.2v-3.18h1.26V288h2.14v-3.18H221V288h2.18l-.72-.23a15,15,0,0,0,1.38-2.74l1.37.38c-.5.92-1.1,1.91-1.56,2.59h2.77v1.12h-4.68l1.17.32c-.42.6-.85,1.21-1.24,1.66h4.12v1.08h-6.52v1.3H225v1h-5.64v1.36Zm-10.6-6.74a7.42,7.42,0,0,1,.95,1.78l-.74.2h5l-.63-.2a13.68,13.68,0,0,0,1.06-1.78Zm5.34,8.68c1.7.56,4,1.42,5.23,2l-.83.84c-1.19-.57-3.48-1.49-5.19-2.12Z"/>
        <path class="cls-7" d="M225.32,307.66a8.73,8.73,0,0,1-2.12,3.1,13.15,13.15,0,0,0,3.91,1.58,5.46,5.46,0,0,0-.87,1.14,13,13,0,0,1-4.05-1.91,13.87,13.87,0,0,1-4,1.89,8.21,8.21,0,0,0-.45-.74,17.74,17.74,0,0,1-1.12,2.83l-.92-.51a17.1,17.1,0,0,0,1-2.93H215v7.4c0,.68-.12,1-.59,1.24a7.06,7.06,0,0,1-2.25.2,5,5,0,0,0-.42-1.19c.78,0,1.48,0,1.71,0s.29-.07.29-.27v-5.67a14.84,14.84,0,0,1-2.59,4.36,7.09,7.09,0,0,0-.72-1.26,13.94,13.94,0,0,0,2.9-4.83h-2.72v-1.19h4.82a17.25,17.25,0,0,0-4-2.41l.79-.87a18.72,18.72,0,0,1,1.8.89,12.57,12.57,0,0,0,1.89-1.82h-5.11v-1.17h6.06l.24-.06.88.58a13.86,13.86,0,0,1-2.93,3.06,10.51,10.51,0,0,1,1.49,1.08l-.61.72h1.24l.2-.07.81.32c-.09.33-.18.65-.29,1a12.41,12.41,0,0,0,3.28-1.42,10.11,10.11,0,0,1-1.88-2.21,12.58,12.58,0,0,1-1.44,1.4,6.43,6.43,0,0,0-1-.86,11.08,11.08,0,0,0,3.49-4.43l1.28.34a13.51,13.51,0,0,1-.81,1.55h6v1.13Zm-.36,7h1.35a4.76,4.76,0,0,1-.05.59c-.3,3.35-.66,4.7-1.19,5.22a1.6,1.6,0,0,1-1.22.47,17.5,17.5,0,0,1-2,0,2.61,2.61,0,0,0-.36-1.17c.79.08,1.55.09,1.89.09a.8.8,0,0,0,.61-.18c.36-.34.63-1.4.9-3.85h-3a7.36,7.36,0,0,1-4.79,5.37,4.76,4.76,0,0,0-.85-1.1,6.2,6.2,0,0,0,4.25-4.27h-2.83v-1.13h3.1a17.35,17.35,0,0,0,.23-1.8h1.35a17.35,17.35,0,0,1-.23,1.8H225Zm-4.86-7a8.5,8.5,0,0,0,2,2.34,6.83,6.83,0,0,0,1.73-2.34Z"/>
        <path class="cls-7" d="M226.6,338.34h-7.31v2.52h-1.35v-2.52h-7.15v-1.19h7.15V335.8h-5.36v-6.28H225v6.28h-5.66v1.35h7.31Zm-8.55-9.67h-5.94v-3.53h5.94ZM216.77,326h-3.45v1.71h3.45Zm-2.9,6.09h4.07V330.6h-4.07Zm4.07,2.59v-1.57h-4.07v1.57Zm5.64-4.12h-4.29v1.53h4.29Zm0,2.55h-4.29v1.57h4.29Zm1.85-4.48h-6v-3.53h6ZM224.17,326h-3.51v1.71h3.51Z"/>
        <path class="cls-7" d="M216.12,344.67a25.6,25.6,0,0,1-1.81,3.82v12.15H213V350.58a17,17,0,0,1-1.78,2.17,6.53,6.53,0,0,0-.76-1.31,19.93,19.93,0,0,0,4.43-7.15Zm10.66,14v1.3h-11.2v-1.3h6.29a77.26,77.26,0,0,0,1.71-8.91L225,350c-.46,2.76-1.2,6.27-1.85,8.66Zm-.74-9.87h-9.7v-1.29H226Zm-7.31,9a63.75,63.75,0,0,0-1.22-7.67l1.21-.27a73.11,73.11,0,0,1,1.33,7.57Zm2-10.53a18.37,18.37,0,0,0-.85-2.86l1.26-.33a26.08,26.08,0,0,1,.9,2.79Z"/>
      </g>
      <g>
        <g>
          <path d="M246.65,236.26a25.66,25.66,0,0,1-.9,4.35,7.9,7.9,0,0,0-1-.37,16.88,16.88,0,0,0,.86-4.16Zm3.09-.87a10.75,10.75,0,0,0-.2-1.08c-3.42.67-3.94.79-4.23,1a11.07,11.07,0,0,0-.41-1.17c.38-.09.74-.52,1.26-1.2a24.85,24.85,0,0,0,1.44-2.15,8.91,8.91,0,0,0-2.41.49,12.4,12.4,0,0,0-.42-1.19c.31-.07.6-.43.9-1a22.09,22.09,0,0,0,2.06-4.52l1.2.47a27.32,27.32,0,0,1-2.46,4.83l1.81-.19a22.31,22.31,0,0,0,1.19-2.34l1.14.56a36.4,36.4,0,0,1-3.77,5.84l2.47-.42a15.22,15.22,0,0,0-.43-1.58l1-.24a23.86,23.86,0,0,1,.94,3.57Zm-1.46.67a31.62,31.62,0,0,1,.51,3.83l-1,.24c-.05-1-.25-2.65-.45-3.87Zm1.66-.42a21.52,21.52,0,0,1,1,3l-1,.34c-.2-.81-.63-2.05-1-3Zm4.57.46a23.16,23.16,0,0,1-2.54,3.81,8.13,8.13,0,0,0-1-.75,17.89,17.89,0,0,0,2.38-3.43Zm2.33-1.66V241h-1.32v-6.52h-4.28v-1.19H261v1.19Zm-4-4.61h-1.2v-3h4.12c-.22-.61-.5-1.37-.77-2l1.24-.33a16.64,16.64,0,0,1,.95,2.29h3.78v3h-1.26V228H252.8Zm.2,1.42v-1.17h6.46v1.17Zm6,4.45a27,27,0,0,1,2.24,3.55l-1.15.54a34,34,0,0,0-2.17-3.66Z"/>
          <path d="M272.57,225.11c-.18.29-.38.54-.58.81a21.33,21.33,0,0,0,7.47,4.92,4,4,0,0,0-.91,1.2,26.31,26.31,0,0,1-2.92-1.6v1.23h-9v-.92a26.07,26.07,0,0,1-2.76,1.46,5,5,0,0,0-1-1.17,18.79,18.79,0,0,0,8.52-6.5Zm-6.9,8.72h11.09v7.09h-1.38V240H267v1h-1.35ZM267,235v3.73h8.36V235Zm8.57-4.59a20.76,20.76,0,0,1-4.37-3.54,20.12,20.12,0,0,1-4.13,3.54Z"/>
          <path d="M287.09,238.54c-.43-.72-1.53-2.17-2.32-3.22a9.79,9.79,0,0,1-3,5.46,4.4,4.4,0,0,0-.94-.94c2.2-1.78,2.83-4.5,3-6.91H281V231.7h3c0-.39,0-.79,0-1.15v-1.78h-2.59v-1.21h2.59v-2.79h1.26v2.79h2.51v1.21h-2.51v1.78c0,.36,0,.76,0,1.15H288v1.23h-2.92c0,.32-.07.66-.11,1,.71.76,2.6,3,3,3.62Zm8.77,1c.33,0,.42-.18.45-1.44a3.58,3.58,0,0,0,1.12.48c-.13,1.69-.49,2.14-1.44,2.14h-1.5c-1.22,0-1.51-.36-1.51-1.62v-3.85h-1.3c-.34,2.72-1.27,4.68-4.3,5.78a3.4,3.4,0,0,0-.76-1c2.72-.9,3.5-2.55,3.79-4.77h-1.72v-10h7.68v10h-2.15v3.85c0,.38.06.44.43.44Zm-5.92-11.28h5.13V226.5h-5.13Zm0,2.9h5.13v-1.78h-5.13Zm0,2.88h5.13v-1.78h-5.13Z"/>
          <path d="M298.9,239.48c2.5-.09,6.48-.29,10.28-.47l0,1.05L299,240.6Zm9.22-12h1.06v.92h-1.06v1.83h-3.51V231h3.76v.84h-3.76v.83h4.52v.94H299v-.94h4.36v-.83h-3.53V231h3.53v-.78H300v-.86h3.4v-1h-4.46v-.92h4.46v-.9h-3.33v-.85h3.33v-1.15h1.23v1.15h3.51Zm0,6.89v4h-8v-4ZM301.19,236h2.32v-.88h-2.32Zm0,1.59h2.32v-.9h-2.32Zm3.42-10.12H307v-.9h-2.34Zm2.34.92h-2.34v1H307Zm0,6.73h-2.3V236H307Zm0,1.57h-2.3v.9H307Zm4.16-.13h-1.22v-9.85h1.22ZM314.58,225v14.39c0,.81-.21,1.18-.74,1.4a8.82,8.82,0,0,1-2.77.22,4.4,4.4,0,0,0-.45-1.25c1,0,2,0,2.27,0s.41-.09.41-.39V225Z"/>
          <path d="M332,239c0,.92-.2,1.39-.81,1.62a12,12,0,0,1-3.35.25,4.67,4.67,0,0,0-.47-1.44c1.25,0,2.49,0,2.85,0s.43-.11.43-.45V227H317.75v-1.28H332Zm-3.4-8.93H317.87v-1.21h10.77Zm-8.32,7.65v1.32H319v-7h8.4v5.72Zm0-4.54v3.35h5.78v-3.35Z"/>
        </g>
        <g>
          <path d="M253.63,265.92H245v-1.08h2.39c.13-.43.26-.94.38-1.46h-1.94v-1.06H248c.12-.49.21-1,.3-1.43l1.23.11c-.09.42-.18.87-.29,1.32h3.08v2.52h1.31Zm-3,9.13v2.23h-1.27v-2.23h-3.82c.18-.74.36-1.8.5-2.72h-.92v-1h4.24v-.93h-3.41v-3.52h6.68v3.52h-2v.93h2.49v1h-2.49V274h2.71v1.07ZM249.35,274v-1.65H247.2c-.07.54-.18,1.13-.27,1.65Zm-2.15-4.55h4.13v-1.64H247.2Zm1.8-6.05c-.12.52-.25,1-.37,1.46h2.52v-1.46Zm11.74-.65c-.19,9.65-.36,12.71-.95,13.58a1.52,1.52,0,0,1-1.19.72,13.31,13.31,0,0,1-2,0,3.08,3.08,0,0,0-.36-1.25c.81.07,1.54.07,1.89.07a.59.59,0,0,0,.59-.32c.45-.63.65-3.65.83-12.37h-1.91c-.11,4.93-.52,10.84-4.05,14a3.27,3.27,0,0,0-.94-.79,10.9,10.9,0,0,0,3.19-6.14c-.58-1-1.6-2.43-2.41-3.53l.88-.54c.58.74,1.24,1.64,1.78,2.43a42.59,42.59,0,0,0,.34-5.44h-2.68V262h7Z"/>
          <path d="M262.66,268.92a18.12,18.12,0,0,0,.94-4.6l1,.14a20,20,0,0,1-.9,4.83Zm2.6-8h1.33v16.44h-1.33Zm2.39,2.88a17.53,17.53,0,0,1,1.32,3l-1,.49a18.19,18.19,0,0,0-1.24-3.06Zm11.47,11.67v1.28h-11v-1.28h5.15V271h-3.82v-1.24h3.82V266h-2.63a13.19,13.19,0,0,1-1.26,2.79,10.21,10.21,0,0,0-1.19-.61,17.75,17.75,0,0,0,2.18-6.43l1.3.22c-.18.93-.4,1.87-.65,2.75h2.25V261h1.33v3.73h4.07V266h-4.07v3.73h3.67V271h-3.67v4.5Z"/>
          <path d="M286.14,267.21a21.71,21.71,0,0,1-1.55,6.32c1.75,1.77,4.23,2.16,7.29,2.16h5.49a4.48,4.48,0,0,0-.5,1.24h-5c-3.33,0-6-.47-7.8-2.29a9.29,9.29,0,0,1-2.23,2.63,5.08,5.08,0,0,0-1-.92,8.24,8.24,0,0,0,2.36-2.7,11.26,11.26,0,0,1-1.63-3.46l1-.39a9.64,9.64,0,0,0,1.17,2.66,18.88,18.88,0,0,0,1.08-4.23h-2.92c.77-1.31,1.76-3.26,2.57-5h-3.15v-1.19h5.06c-.75,1.58-1.71,3.49-2.5,5h1.28l.23,0Zm4.54-3.67h-3.46v-1.06h3.46V261h1.26v1.48h3.9v2.38h1.25V266h-1.25v2.42h-3.9v1.35h4.25v1h-4.25v1.46h4.91v1.1h-4.91v1.78h-1.26V273.3h-4.47v-1.1h4.47v-1.46H287v-1h3.71v-1.35h-3.59v-1.08h3.59V266h-4.63v-1.09h4.63Zm1.26,0v1.32h2.7v-1.32Zm2.7,2.41h-2.7v1.34h2.7Z"/>
          <path d="M305.81,265.07H299V264h6.8Zm8.56,4.07a11.57,11.57,0,0,1-3.21,5.19,12.52,12.52,0,0,0,4.25,1.8,5.44,5.44,0,0,0-.83,1.2,12.65,12.65,0,0,1-4.46-2.14,14.56,14.56,0,0,1-4.47,2.2,5.32,5.32,0,0,0-.61-1.12h-4.11v.85h-1.17v-6.05h5.31v5.07a13,13,0,0,0,4-1.81,12.3,12.3,0,0,1-2.68-4l.77-.27h-1.57v-1.26h7.68l.23-.06Zm-9.3-2.81v1.06h-5.29v-1.06Zm-5.29,2.34h5.31v1.06h-5.31Zm4.11,3.51h-3v3h3Zm-1.59-8.4a16.38,16.38,0,0,0-1.35-2.42l1.05-.52a16,16,0,0,1,1.38,2.32Zm6.3-.2a5.16,5.16,0,0,1-2.61,4.79,6.78,6.78,0,0,0-.86-1,4,4,0,0,0,2.23-3.85v-2h5.47v4.18c0,.5,0,.66.29.66h1.07a3.48,3.48,0,0,0,.79-.09c0,.35.07.85.09,1.16a3,3,0,0,1-.88.09H313c-1.17,0-1.42-.51-1.42-1.86v-2.88h-3Zm-1,6.5a10,10,0,0,0,2.54,3.44,9.71,9.71,0,0,0,2.53-3.44Z"/>
          <path d="M332,275.37c0,.92-.2,1.39-.81,1.62a12,12,0,0,1-3.35.25,4.67,4.67,0,0,0-.47-1.44c1.25,0,2.49,0,2.85,0s.43-.11.43-.45v-12H317.75v-1.28H332Zm-3.4-8.93H317.87v-1.21h10.77Zm-8.32,7.65v1.32H319v-7h8.4v5.72Zm0-4.53v3.34h5.78v-3.34Z"/>
        </g>
        <g>
          <path d="M250.19,302.2H245v-1.08h5.15Zm1.42,9.29a24.22,24.22,0,0,1-5.49,2.2,8.55,8.55,0,0,0-1-1,21.11,21.11,0,0,0,5.28-1.73Zm-1.87-12.11h-4.3v-1.05h4.3Zm-2.34,4.23h11.65v7.22H247.4Zm1.3,2.12h9v-1.22h-9Zm0,2.09h9V306.6h-9Zm0,2.13h9v-1.26h-9ZM253,299.52a9.19,9.19,0,0,1-1.35,1.8,5.58,5.58,0,0,0-1-.68,7.74,7.74,0,0,0,2.07-3.42l1.21.27c-.11.34-.25.66-.38,1h6l.22-.06.9.31a16.56,16.56,0,0,1-1.52,2.59l-1.06-.38a9.68,9.68,0,0,0,.85-1.42h-2.86v.23a3.38,3.38,0,0,1-.06.6c1,1.08,2.92,1.78,5.28,2a5,5,0,0,0-.76,1.06,8.76,8.76,0,0,1-4.9-2.1c-.59.88-2,1.71-5.18,2.19a4.74,4.74,0,0,0-.72-1c4.66-.63,5.09-1.85,5.09-2.79v-.18Zm2.7,11.42a47.52,47.52,0,0,1,5.29,1.94l-1.17.78a40.54,40.54,0,0,0-5-2Z"/>
          <path d="M265.87,305.14a29.88,29.88,0,0,0-3-1.93l.78-.93c1,.54,2.34,1.29,3,1.78Zm1.13,2.54c-.73,1.89-1.74,4.1-2.59,5.76l-1.19-.74a55.47,55.47,0,0,0,2.74-5.76Zm-.28-7.24c-.69-.54-2-1.42-3-2.05l.77-.92a33.9,33.9,0,0,1,3,1.91Zm2.8,2.61c0,3.13-.3,7.58-2.43,10.59a4,4,0,0,0-1.09-.71c2-2.88,2.21-6.93,2.21-9.88v-4.92h11v1.23h-9.64Zm2.87,5.89a18.51,18.51,0,0,1-2.27,3.69,10,10,0,0,0-1.08-.69,12,12,0,0,0,2.14-3.33Zm2.66-1.33v4.69c0,.67-.11,1-.61,1.21a7.11,7.11,0,0,1-2.45.18,4.31,4.31,0,0,0-.38-1.15c.87,0,1.66,0,1.86,0s.3-.08.3-.27v-4.68h-3.22v-6.18h2.72a17.73,17.73,0,0,0,.52-1.82l1.5.31c-.26.52-.51,1-.74,1.51h3.92v6.18ZM271.76,304h5.47v-1.56h-5.47Zm0,2.56h5.47V305h-5.47Zm5.65,1.89c.7,1.1,1.6,2.57,2,3.44l-1.22.54a36.49,36.49,0,0,0-2-3.53Z"/>
          <path d="M283.74,299.63a12.14,12.14,0,0,1-1.87,2.32,10.19,10.19,0,0,0-.94-.88,11,11,0,0,0,2.76-3.93l1.19.33c-.16.36-.33.72-.52,1.08H289v1.08h-3.4a15.25,15.25,0,0,1,1.56,1.57l-.88.73a23.35,23.35,0,0,0-1.67-1.78l.68-.52Zm5.5,1.28a9,9,0,0,1,.72,1.38h6.55v2.94h-1.33v-1.87h-11.9v1.87H282v-2.94h6.61c-.17-.37-.34-.79-.54-1.13Zm-3.95,8.37h10v4.39H294v-.57h-8.66v.61H284v-9.26h10.37V308h-9Zm0-3.8V307H293v-1.53Zm0,4.84v1.73H294v-1.73Zm11.94-11.75v1.06h-3.87a17.75,17.75,0,0,1,1.85,1.67l-.9.8a16.2,16.2,0,0,0-1.91-1.84l.78-.63h-2.05a9.13,9.13,0,0,1-1.32,1.48,7.12,7.12,0,0,0-1-.8,7.32,7.32,0,0,0,2.24-3.17l1.22.31a9.33,9.33,0,0,1-.5,1.12Z"/>
          <path d="M304.7,310c-1.93.65-4,1.35-5.59,1.87l-.3-1.35c.66-.19,1.49-.45,2.41-.75V304.9h-2.05v-1.26h2.05v-3.9H299v-1.26h5.58v1.26H302.5v3.9h1.82v1.26H302.5v4.45l2-.65Zm10.75,1.91v1.23h-11.6v-1.23h5.47v-2.47h-4.08V308.2h4.08v-2.11h-3.87v-8h9.15v8h-3.93v2.11h4.2v1.22h-4.2v2.47Zm-8.77-10.37h2.73v-2.27h-2.73Zm0,3.4h2.73v-2.3h-2.73Zm6.64-5.67h-2.75v2.27h2.75Zm0,3.37h-2.75v2.3h2.75Z"/>
          <path d="M332,311.71c0,.92-.2,1.39-.81,1.62a12,12,0,0,1-3.35.25,4.67,4.67,0,0,0-.47-1.44c1.25,0,2.49,0,2.85,0s.43-.11.43-.45v-12H317.75v-1.28H332Zm-3.4-8.93H317.87v-1.21h10.77Zm-8.32,7.65v1.32H319v-7h8.4v5.72Zm0-4.54v3.35h5.78v-3.35Z"/>
        </g>
        <g>
          <path d="M252.89,345.42a3.92,3.92,0,0,1-1.55,2.38,17.25,17.25,0,0,1,2.08,1.06l-.89.78a20.53,20.53,0,0,0-2.21-1.18,17.86,17.86,0,0,1-5,1.55,4.08,4.08,0,0,0-.56-.9,18.29,18.29,0,0,0,4.34-1.19,25,25,0,0,0-2.77-1c.28-.36.61-.75.91-1.18l-2.12.1-.13-1c.81,0,1.82-.07,2.92-.1.27-.49.56-1,.81-1.43h-2.93V340.4h3.4v-.74h-2.9v-1.94H245v-1h1.21v-1.84h2.9v-1.26h1.06v1.26h3.06v1.84h1.23v1h-1.23v1.94h-3.06v.74h3.49v2.93h-3.8a11.38,11.38,0,0,1-.75,1.35c.88,0,1.8-.09,2.73-.14v-.85H253v.8l.9-.06v.94Zm-6-3h2.25v-1.11H246.9Zm.5-6.64v.95h1.75v-.95Zm1.75,2.93v-1.08H247.4v1.08Zm-.63,6.94c-.18.28-.38.55-.56.81.74.23,1.51.52,2.25.82a3.43,3.43,0,0,0,1.51-1.8Zm1.69-9.87v.95h1.87v-.95Zm1.87,2.93v-1.08h-1.87v1.08Zm-1.87,2.6v1.11h2.31v-1.11Zm9.8-3.08a26.41,26.41,0,0,1-1.64,6.89,8.87,8.87,0,0,0,3,3.75,4.12,4.12,0,0,0-.81.95,9,9,0,0,1-2.83-3.4,10.65,10.65,0,0,1-3.26,3.71,4.08,4.08,0,0,0-.73-1,9.29,9.29,0,0,0,3.38-4.05,23.76,23.76,0,0,1-1.31-4.75,12.58,12.58,0,0,1-1,2,10.82,10.82,0,0,0-.92-.81,21.09,21.09,0,0,0,2.31-7.76l1.13.18c-.14,1-.34,2.1-.57,3.11h4.39v1.21Zm-3.46,0a30.25,30.25,0,0,0,1.2,5.33,25.15,25.15,0,0,0,1.05-5.33Z"/>
          <path d="M268.55,334a23.86,23.86,0,0,1-1.82,3.82V350H265.4V340a18.88,18.88,0,0,1-1.78,2.18,6.8,6.8,0,0,0-.76-1.32,19.93,19.93,0,0,0,4.43-7.15Zm10.66,14v1.3H268V348h6.29A81.31,81.31,0,0,0,276,339.1l1.38.25c-.47,2.76-1.2,6.27-1.85,8.66Zm-.74-9.86h-9.7v-1.3h9.7Zm-7.31,9a63.14,63.14,0,0,0-1.22-7.67l1.21-.27a72.51,72.51,0,0,1,1.33,7.56Zm2-10.54a21.26,21.26,0,0,0-.85-2.86l1.26-.32a25.38,25.38,0,0,1,.9,2.79Z"/>
          <path d="M296.11,338.18a20.62,20.62,0,0,1-2.37,7.37,9,9,0,0,0,3.74,3.36,7.29,7.29,0,0,0-.92,1.14,10.06,10.06,0,0,1-3.62-3.31,11.82,11.82,0,0,1-4.05,3.35,6.44,6.44,0,0,0-.77-1.18,10.19,10.19,0,0,0,4.09-3.4,21.45,21.45,0,0,1-1.86-5.11,13.54,13.54,0,0,1-1.17,2,9.34,9.34,0,0,0-1.06-.88l.09-.13h-2v4.58l3.08-.71.13,1.21c-3,.72-6.14,1.48-8.38,2l-.25-1.33,1.06-.22v-8h1.23v7.72l1.84-.39v-10h-3.82v-1.3h8.23v1.3h-3.12v3.92h2.45v.63a19.87,19.87,0,0,0,2.5-7.13l1.34.24c-.22,1.06-.49,2.12-.78,3.09h5.62v1.26Zm-4.95.31a22.75,22.75,0,0,0,1.82,5.74,19.38,19.38,0,0,0,1.78-6.05h-3.47Z"/>
          <path d="M301.55,336.8v5.29c0,2.43-.2,5.85-1.53,8.05a4.67,4.67,0,0,0-1.14-.77c1.22-2,1.33-5,1.33-7.28v-6.53h7.17a14.27,14.27,0,0,0-.81-1.77l1.31-.38c.36.67.78,1.51,1.05,2.15h6.23v1.24Zm5,.74a19.73,19.73,0,0,1-1.34,3v9.51H304v-7.54a11.77,11.77,0,0,1-1.42,1.63,9.67,9.67,0,0,0-.61-1.2,14.77,14.77,0,0,0,3.33-5.76Zm8.59,3.76h-2.06v7.07c0,.81-.18,1.19-.72,1.43a9.37,9.37,0,0,1-2.82.23,6.14,6.14,0,0,0-.45-1.33c1,.05,2,0,2.28,0s.4-.1.4-.38V341.3h-5.39V340h5.39v-2.68h1.31V340h2.06Zm-7,1.24a23.33,23.33,0,0,1,2.09,3.51l-1.13.56a32.66,32.66,0,0,0-2-3.6Z"/>
          <path d="M332,348.05c0,.92-.2,1.39-.81,1.62a11.6,11.6,0,0,1-3.35.25,4.67,4.67,0,0,0-.47-1.44c1.25,0,2.49,0,2.85,0s.43-.11.43-.45V336H317.75v-1.28H332Zm-3.4-8.93H317.87v-1.21h10.77Zm-8.32,7.65v1.32H319v-7h8.4v5.72Zm0-4.53v3.34h5.78v-3.34Z"/>
        </g>
        <g>
          <path d="M255.09,380.05c.94,2.86,2.59,4.83,4.2,4.81.52,0,.73-.74.82-2.63a3.61,3.61,0,0,0,1.17.63c-.21,2.63-.75,3.31-2.07,3.31-2.41,0-4.48-2.54-5.52-6.12h-5.42v4.5l4.32-1a6.3,6.3,0,0,0,.14,1.22c-4.9,1.32-5.56,1.48-6,1.75a4.11,4.11,0,0,0-.64-1.23,1.43,1.43,0,0,0,.8-1.31V370.87h12.73v5.2h-5.26a15.49,15.49,0,0,0,.4,2.72H261v1.26Zm-6.82-7.92v2.68h10v-2.68Zm5.09,6.66a22.36,22.36,0,0,1-.36-2.72h-4.73v2.72Z"/>
          <path d="M279.1,384.48v1.31H263.19v-1.31h7.2v-4.41h-5.55v-1.3h5.55v-3.94H264v-1.31h7.9a19.93,19.93,0,0,0-3.06-2.76l1.08-.76a21,21,0,0,1,3.29,2.9l-.84.62h5.81v1.31h-6.39v3.94h5.65v1.3h-5.65v4.41Z"/>
          <path d="M282.74,381.62a24.65,24.65,0,0,1-.89,4.34,5.29,5.29,0,0,0-1-.36,21.28,21.28,0,0,0,.85-4.14Zm3.56-4.85a30.88,30.88,0,0,1,1.21,3.44l-1,.4c-.06-.25-.15-.56-.22-.87-4,.64-4.55.76-4.9.94a5.78,5.78,0,0,0-.37-1.17c.36-.07.75-.52,1.28-1.21a24.31,24.31,0,0,0,1.47-2.1,8.08,8.08,0,0,0-2.48.43c-.08-.25-.26-.85-.38-1.15.29-.07.59-.45,1-1a23.77,23.77,0,0,0,2.31-4.54l1.13.49a27.93,27.93,0,0,1-2.72,4.82l1.89-.18a27.8,27.8,0,0,0,1.32-2.48l1,.63a36.53,36.53,0,0,1-3.94,6l3.1-.43c-.2-.57-.44-1.15-.63-1.67Zm-1.8,4.61a27.13,27.13,0,0,1,.5,3.78l-1,.26a35.7,35.7,0,0,0-.44-3.86Zm1.89-.46a26.43,26.43,0,0,1,1.06,3.45l-.93.34a27.48,27.48,0,0,0-1-3.49Zm10.52,4c0,.74-.15,1.06-.62,1.28a6.05,6.05,0,0,1-2.27.23,4.44,4.44,0,0,0-.34-1.19c.76,0,1.48,0,1.7,0s.3-.09.3-.34V372H289v14.43h-1.21V370.8h9.17Zm-2.9-3a5.36,5.36,0,0,0,1.06-.09c0,.3.07.72.11,1a5.17,5.17,0,0,1-1.16.09h-2.3c-1.19,0-1.46-.44-1.46-1.62v-1.75h-.66v-1.06H292a11.14,11.14,0,0,0-.7-1.59l.83-.32h-2.75V375.5h3.42a20.3,20.3,0,0,0,.84-3l1,.28c-.27.89-.59,1.91-.88,2.69h1.53v1.06h-3a14.73,14.73,0,0,1,.79,1.62l-.65.29h2.67v1.06h-3.71v1.76c0,.47.05.62.43.62Zm-3.15-9.42a8.66,8.66,0,0,1,1,2.56l-.87.3a9.57,9.57,0,0,0-.93-2.57Z"/>
          <path d="M304.17,380.83c-.05-.31-.12-.65-.23-1.07-3.73.62-4.25.72-4.59.9-.07-.25-.27-.9-.42-1.26.38,0,.8-.5,1.34-1.15a21.78,21.78,0,0,0,1.55-2.07,9.32,9.32,0,0,0-2.58.45c-.07-.27-.27-.86-.41-1.21.28-.07.63-.43,1-1a23.2,23.2,0,0,0,2.47-4.54l1.23.53a30.16,30.16,0,0,1-2.92,4.8l1.94-.14a26.54,26.54,0,0,0,1.35-2.43l1.16.68a34,34,0,0,1-4.09,5.8l2.7-.4c-.16-.59-.38-1.18-.58-1.74l1-.24a24.94,24.94,0,0,1,1.14,3.71Zm-3.36.81a23.27,23.27,0,0,1-.9,4.37,7.31,7.31,0,0,0-1.08-.41,20.54,20.54,0,0,0,.86-4.14Zm1.89-.24a32.37,32.37,0,0,1,.5,3.87l-1.08.22a30.49,30.49,0,0,0-.45-3.91Zm1.73-.41a22.59,22.59,0,0,1,1,3.33l-1,.34a26.55,26.55,0,0,0-.95-3.38Zm10.12-8.75a14.31,14.31,0,0,1-3,4.57,13.39,13.39,0,0,0,4,2.41,5,5,0,0,0-.84,1.12,3.52,3.52,0,0,1-.4-.18v6.1H313v-.57h-5v.61h-1.26v-6.05a4.16,4.16,0,0,1-.62.27,4.18,4.18,0,0,0-.79-1.06,14.54,14.54,0,0,0,4.39-2.67,17,17,0,0,1-1.87-2.52,12.05,12.05,0,0,1-1.75,1.75,8.14,8.14,0,0,0-1-.92,12.44,12.44,0,0,0,3.94-5.22l1.26.34a12.49,12.49,0,0,1-.81,1.64h3.91l.23-.07Zm-.87,7.6a14.16,14.16,0,0,1-3-2.17,16.11,16.11,0,0,1-3.08,2.17ZM313,384.5V381h-5v3.46Zm-4.37-11.22a12.31,12.31,0,0,0,2,2.67,11.74,11.74,0,0,0,2.14-3h-3.94Z"/>
          <path d="M332,384.39c0,.92-.2,1.39-.81,1.62a12,12,0,0,1-3.35.25,4.67,4.67,0,0,0-.47-1.44c1.25,0,2.49,0,2.85,0s.43-.11.43-.45v-12H317.75V371.1H332Zm-3.4-8.93H317.87v-1.21h10.77Zm-8.32,7.65v1.32H319v-7h8.4v5.72Zm0-4.53v3.34h5.78v-3.34Z"/>
        </g>
        <g>
          <path d="M261.05,414.63c-2.5,5.29-8.64,7.38-15,8.14a4.37,4.37,0,0,0-.54-1.3,27.71,27.71,0,0,0,8.41-2,22.1,22.1,0,0,0-2.52-2.23,23.2,23.2,0,0,1-2.83,1.31,3.59,3.59,0,0,0-.85-1,16.27,16.27,0,0,0,7.51-5.08l1.48.33a13.21,13.21,0,0,1-1.19,1.33h4.34l.27-.07Zm-2.67-6.3c-2.26,4-7.5,6.39-12.17,7.36a4.23,4.23,0,0,0-.63-1.21,24.24,24.24,0,0,0,6-1.92,17.9,17.9,0,0,0-2.42-2.06,22.93,22.93,0,0,1-2.1,1.12,4.46,4.46,0,0,0-.9-.94,15.62,15.62,0,0,0,6.15-4.43l1.46.31a13.58,13.58,0,0,1-1.17,1.28h4.67l.23,0Zm-7.13.72c-.32.28-.68.54-1.06.81a15.74,15.74,0,0,1,2.58,2.1,12.37,12.37,0,0,0,3.56-2.91Zm2.94,6.32a18.45,18.45,0,0,1-1.67,1.22,21.52,21.52,0,0,1,2.66,2.27,10.57,10.57,0,0,0,3.87-3.49Z"/>
          <path d="M277.12,421.13c.72,0,.83-.47.92-3.23a4.06,4.06,0,0,0,1.24.6c-.14,3.06-.5,3.91-2.07,3.91h-2.57c-1.6,0-2-.47-2-2V414h-3.36c-.35,3.85-1.21,7-5.35,8.68a3.54,3.54,0,0,0-.85-1.05c3.84-1.46,4.5-4.27,4.77-7.63h-4.55v-1.3H279V414H274v6.39c0,.61.15.74.85.74ZM277.5,409H264.83V407.7H277.5Z"/>
          <path d="M283.47,417.08a12,12,0,0,1-1.56,4.89,6.44,6.44,0,0,0-1.14-.59c1.41-2.14,1.61-5.11,1.61-7.13v-2.43h7.34v5.26Zm3.6-10.2-.28.44a40.1,40.1,0,0,1,4,2.61l-.7,1.1a42.71,42.71,0,0,0-4-2.76,15.8,15.8,0,0,1-4.52,3.66,8.72,8.72,0,0,0-.74-1.23,12.13,12.13,0,0,0,5.06-4.28Zm-3.61,11h6.68v4.67H289v-.7h-4.34v.73h-1.15Zm5-1.81v-1.23h-4.84c0,.38,0,.81-.08,1.23Zm-4.84-3.28V414h4.84v-1.15ZM288.1,410v.88h-3.78V410Zm-3.49,8.87v1.89H289v-1.89Zm8.41-.77h-1.26v-9.87H293Zm3.4-11.78v14.57c0,.85-.22,1.26-.72,1.48a8.45,8.45,0,0,1-2.88.27,6.82,6.82,0,0,0-.45-1.34c1.08,0,2.05,0,2.34,0s.41-.11.41-.41V406.36Z"/>
          <path d="M301.76,417.67a14.34,14.34,0,0,1-1.85,3.58c-.22-.16-.67-.5-.94-.65a9.88,9.88,0,0,0,1.69-3.24Zm2.22-1.26v6.25h-1.32v-6.25h-3.58v-1.15h3.58v-1.89H299v-1.14h5a26.46,26.46,0,0,0,1-2.84l1.22.25c-.32.86-.66,1.84-1,2.59h2.28v1.14H304v1.89h3.26v1.15Zm3.18-7.13h-7.88v-1.12h3.53c-.24-.54-.54-1.15-.8-1.64l1.3-.34a14.25,14.25,0,0,1,1,2h2.84Zm-6,2.88a13.07,13.07,0,0,0-.68-2.5l1.06-.25a8.84,8.84,0,0,1,.74,2.44Zm4.57,5.1a18.43,18.43,0,0,1,1.52,2.82l-1,.54a19.66,19.66,0,0,0-1.47-2.88Zm9.6-3.7h-2v9.08H312v-9.08h-2.46v.64c0,2.57-.24,6.1-1.87,8.44a4.44,4.44,0,0,0-1-.81c1.51-2.16,1.66-5.24,1.66-7.63V408a28.31,28.31,0,0,0,5.6-1.4l1.08,1a28.4,28.4,0,0,1-5.44,1.29v3.42h5.74Z"/>
          <path d="M332,420.73c0,.92-.2,1.39-.81,1.62a11.6,11.6,0,0,1-3.35.25,4.67,4.67,0,0,0-.47-1.44c1.25,0,2.49,0,2.85,0s.43-.11.43-.45v-12H317.75v-1.28H332Zm-3.4-8.93H317.87v-1.21h10.77Zm-8.32,7.65v1.32H319v-7h8.4v5.72Zm0-4.53v3.34h5.78v-3.34Z"/>
        </g>
      </g>
    </g>
    <g>
      <rect class="cls-9" x="202.68" y="474.93" width="32" height="231.32" rx="5"/>
      <g>
        <path class="cls-7" d="M214.83,563.86h3.11v1.21h-3.11v3.18h-1.21v-3.18h-3.17v-1.21h3.17v-1.42H211.1v-6.25h2.52v-1.31h-2.93v-1.17h2.93v-2h1.19v2h2.88v1.17h-2.88v1.31h2.65v6.25h-2.63Zm-2.74-5h1.66V557.2h-1.66Zm0,2.61h1.66v-1.66h-1.66Zm4.34-4.23H214.7v1.62h1.73Zm0,2.57H214.7v1.66h1.73Zm6.52-4.32v1.62h3.49v9.67c0,.63-.11,1-.5,1.23a5,5,0,0,1-1.89.21,4.59,4.59,0,0,0-.4-1.22c.59,0,1.15,0,1.33,0s.24-.06.24-.24V564.2H223V568h-1.19V564.2h-2.23v3.95h-1.21V557.07h3.44v-1.62H218v-1.19h3.76v-2.5H223v2.5h2.9a12.92,12.92,0,0,0-2.2-1.87l.76-.65a12.24,12.24,0,0,1,2.23,1.82l-.72.7h.9v1.19Zm-3.42,2.79v1.82h2.23v-1.82Zm2.23,4.81v-1.87h-2.23v1.87Zm1.19-4.81v1.82h2.27v-1.82Zm2.27,4.81v-1.87H223v1.87Z"/>
        <path class="cls-7" d="M218.57,584.4c-2.81.67-5.83,1.37-8,1.85l-.24-1.35,1.28-.25V572.44h5.85v11l1-.22Zm-5.7-10.73v2.63h3.36v-2.63Zm3.36,3.83h-3.36v2.6h3.36Zm-3.36,6.9,3.36-.72V581.3h-3.36Zm13.5-8.77s0,.5,0,.67c-.18,7.54-.36,10.1-.95,10.89a1.64,1.64,0,0,1-1.3.68,22.67,22.67,0,0,1-2.47,0,2.9,2.9,0,0,0-.39-1.28c1,.07,2,.07,2.34.07a.65.65,0,0,0,.66-.27c.45-.54.65-2.92.81-9.47h-2.8c-.27,4.68-1.26,8.73-4.9,11.14a3.51,3.51,0,0,0-1-1c3.42-2.14,4.32-5.85,4.57-10.15h-2.86v-1.28H221c.06-1.31.06-2.66.06-4h1.29c0,1.39,0,2.74,0,4Z"/>
        <path class="cls-7" d="M226.6,605.28h-7.31v2.52h-1.35v-2.52h-7.15v-1.19h7.15v-1.35h-5.36v-6.28H225v6.28h-5.66v1.35h7.31Zm-8.55-9.67h-5.94v-3.53h5.94ZM216.77,593h-3.45v1.71h3.45Zm-2.9,6.09h4.07v-1.53h-4.07Zm4.07,2.59v-1.57h-4.07v1.57Zm5.64-4.12h-4.29v1.53h4.29Zm0,2.55h-4.29v1.57h4.29Zm1.85-4.48h-6v-3.53h6ZM224.17,593h-3.51v1.71h3.51Z"/>
        <path class="cls-7" d="M216.12,611.61a25.14,25.14,0,0,1-1.81,3.82v12.15H213V617.52a17.9,17.9,0,0,1-1.78,2.18,6.33,6.33,0,0,0-.76-1.32,19.93,19.93,0,0,0,4.43-7.15Zm10.66,14v1.3h-11.2v-1.3h6.29a77.26,77.26,0,0,0,1.71-8.91l1.38.25c-.46,2.76-1.2,6.27-1.85,8.66Zm-.74-9.86h-9.7v-1.3H226Zm-7.31,9a63.57,63.57,0,0,0-1.22-7.68l1.21-.27a73.11,73.11,0,0,1,1.33,7.57Zm2-10.54a18.69,18.69,0,0,0-.85-2.86l1.26-.32a25.38,25.38,0,0,1,.9,2.79Z"/>
      </g>
      <g>
        <g>
          <path d="M250.12,502.33c-.23-.54-.76-1.55-1.22-2.4v8h-1.26v-7.47a18.08,18.08,0,0,1-2.17,4.32,5.51,5.51,0,0,0-.7-1.28,19.3,19.3,0,0,0,2.72-5.65h-2.32v-1.26h2.47v-2.9c-.63.14-1.28.27-1.88.38a6.58,6.58,0,0,0-.39-1.07,21.68,21.68,0,0,0,4.77-1.4l.83,1.08a16.58,16.58,0,0,1-2.07.72v3.19H251v1.26H248.9v.39c.45.6,1.76,2.49,2,3Zm10.05,1.06a22.25,22.25,0,0,0-1.7-5.33,26.45,26.45,0,0,1-3.34,5.92v1.77c0,.72.1.84.77.84H258c.62,0,.72-.47.8-2.68a2.6,2.6,0,0,0,1.15.52c-.14,2.58-.49,3.33-1.84,3.33h-2.39c-1.5,0-1.89-.43-1.89-2v-.24a18,18,0,0,1-2.33,2.13,7.66,7.66,0,0,0-1.08-.92,17.77,17.77,0,0,0,3.41-3.19v-8.15h1.28v6.41A32.35,32.35,0,0,0,259,492.6l1.28.25a45.08,45.08,0,0,1-1.79,5.19l1.14-.34a23.06,23.06,0,0,1,1.74,5.33Zm-9.64-.63a17.59,17.59,0,0,0,1.32-5.55l1,.24a20.45,20.45,0,0,1-1.3,5.7Zm6.34-7.67a20.54,20.54,0,0,0-3.44-2.72l.81-.88a19.08,19.08,0,0,1,3.48,2.59Z"/>
          <path d="M279.05,500.54v1h-15.9v-1h7.2v-1.06h-6v-.9h6v-.92h-5.51v-.9h5.51v-1.11h-7.18v-1h7.18v-1h-5.29v-.9h5.29v-1.26h1.34v1.26h5.14v1.91H279v1h-2.15v2h-5.14v.92h6.08v.9h-6.08v1.06Zm-13.61,1.89h11.48V508h-1.33v-.64h-8.86V508h-1.29Zm1.29.92v1.08h8.86v-1.08Zm8.86,3.1v-1.14h-8.86v1.14Zm-3.9-11.81h3.81v-1h-3.81Zm0,2.12h3.81v-1.11h-3.81Z"/>
          <path d="M289.56,501.05a9.66,9.66,0,0,1-1.82,4.17c1.28,1.08,3,1.34,5.1,1.34.55,0,3.89,0,4.62,0a3.48,3.48,0,0,0-.41,1.13h-4.27c-2.45,0-4.36-.32-5.78-1.64a9.3,9.3,0,0,1-3.33,2,3.37,3.37,0,0,0-.63-.94,7.7,7.7,0,0,0,3.24-1.87,8.66,8.66,0,0,1-1-2,7.82,7.82,0,0,1-1.19,1.29,6.79,6.79,0,0,0-.76-.72,11.86,11.86,0,0,1-1.42,4.2,4.64,4.64,0,0,0-1-.81c1.4-2.34,1.55-5.62,1.55-8V494.8h5.87v-3.3h1.31v1.14h6.16v1h-6.16v1.15h6.28l.22-.05.94.25a19.23,19.23,0,0,1-1.25,2.91l-1.1-.34a11.85,11.85,0,0,0,.73-1.71h-5.87v1.08l4.57-.29.05.9-4.62.31v.41c0,.51.1.67.72.67h4.19a14.78,14.78,0,0,0,1.86-.11c0,.34.05.7.1,1a10.1,10.1,0,0,1-1.85.09H290.1c-1.51,0-1.85-.47-1.85-1.64V498l-3.57.23-.05-.91,3.62-.24v-1.17h-4.6v3.35a28.75,28.75,0,0,1-.32,4.43,9.34,9.34,0,0,0,2.72-4.2l1.06.27a11.32,11.32,0,0,1-.47,1.19h2l.22,0Zm-3.42.83a3.35,3.35,0,0,0-.2.37,6.51,6.51,0,0,0,1,2.18,7.54,7.54,0,0,0,1.28-2.55Zm8.59,3.69c-.9,0-1.16-.24-1.16-1.14v-2.52h-1.83v.42a4.33,4.33,0,0,1-1.69,3.65,5,5,0,0,0-.83-.77,3.36,3.36,0,0,0,1.42-2.92v-1.41h4v3.55c0,.34,0,.4.27.4h.7c.22,0,.27-.2.33-1.15a2.31,2.31,0,0,0,.82.32c-.07,1.22-.34,1.57-1,1.57Z"/>
        </g>
        <g>
          <path d="M253.83,527.9c0,.65,0,1.55-.13,2.61.27,2.14,1.35,9.67,7.71,12.5a4,4,0,0,0-1,1.13c-4.5-2.11-6.43-6.55-7.29-9.9a14.43,14.43,0,0,1-7.13,10,4.35,4.35,0,0,0-1.09-1c7.48-3.78,7.37-12.53,7.42-15.27Z"/>
          <path d="M279.23,539.17h-1.85v3.19H276v-.81h-4.32v1.24c0,.83-.25,1.13-.79,1.33a10.66,10.66,0,0,1-3,.22,4.5,4.5,0,0,0-.47-1.14c1.08,0,2.16,0,2.47,0s.45-.12.45-.43v-1.24h-5.82v-1h5.82v-1.35H263v-1.06h7.37v-1.26h-5.65v-1h5.65V534.6h-5.15v-3.17h5.15v-1h-7v-1.09h7v-1.44h1.33v1.44h7.17v1.09h-7.17v1h5.37v3.17h-5.37v1.26h5.66v2.25h1.85Zm-8.84-5.51v-1.3h-3.87v1.3Zm1.33-1.3v1.3h4v-1.3Zm0,5.75H276v-1.26h-4.32Zm4.32,1.06h-4.32v1.35H276Z"/>
          <path d="M289.56,537.39a9.76,9.76,0,0,1-1.82,4.18c1.28,1.08,3,1.33,5.1,1.33.55,0,3.89,0,4.62,0a3.48,3.48,0,0,0-.41,1.13h-4.27c-2.45,0-4.36-.32-5.78-1.63a9.28,9.28,0,0,1-3.33,2,3.37,3.37,0,0,0-.63-.94,7.7,7.7,0,0,0,3.24-1.87,8.66,8.66,0,0,1-1-2,7.82,7.82,0,0,1-1.19,1.29,6.79,6.79,0,0,0-.76-.72,11.86,11.86,0,0,1-1.42,4.2,4.64,4.64,0,0,0-1-.81c1.4-2.34,1.55-5.62,1.55-8v-4.39h5.87v-3.29h1.31V529h6.16v1h-6.16v1.15h6.28l.22,0,.94.25a19.23,19.23,0,0,1-1.25,2.91l-1.1-.34a11.85,11.85,0,0,0,.73-1.71h-5.87v1.08l4.57-.29.05.91-4.62.3v.41c0,.51.1.67.72.67h4.19a13.11,13.11,0,0,0,1.86-.11c0,.35.05.71.1,1a10.1,10.1,0,0,1-1.85.09H290.1c-1.51,0-1.85-.46-1.85-1.64v-.32l-3.57.24-.05-.92,3.62-.24V532.2h-4.6v3.35a28.75,28.75,0,0,1-.32,4.43,9.36,9.36,0,0,0,2.72-4.19l1.06.27a12.08,12.08,0,0,1-.47,1.18h2l.22,0Zm-3.42.83a3.35,3.35,0,0,0-.2.37,6.51,6.51,0,0,0,1,2.18,7.54,7.54,0,0,0,1.28-2.55Zm8.59,3.69c-.9,0-1.16-.24-1.16-1.14v-2.52h-1.83v.42a4.33,4.33,0,0,1-1.69,3.65,5.46,5.46,0,0,0-.83-.77,3.36,3.36,0,0,0,1.42-2.92v-1.4h4v3.54c0,.34,0,.4.27.4h.7c.22,0,.27-.2.33-1.15a2.31,2.31,0,0,0,.82.32c-.07,1.23-.34,1.57-1,1.57Z"/>
        </g>
        <g>
          <path d="M260.11,568.76a20.56,20.56,0,0,1-2.37,7.36,8.91,8.91,0,0,0,3.74,3.37,7.21,7.21,0,0,0-.92,1.13,10,10,0,0,1-3.62-3.31,11.71,11.71,0,0,1-4.05,3.35,6.37,6.37,0,0,0-.77-1.17,10.27,10.27,0,0,0,4.09-3.4,21.7,21.7,0,0,1-1.86-5.12,14.23,14.23,0,0,1-1.17,2,8.45,8.45,0,0,0-1.06-.89l.09-.12h-2v4.57l3.08-.7.13,1.2c-3,.73-6.14,1.48-8.38,2l-.25-1.34,1.06-.21v-8h1.23v7.73l1.84-.4v-10h-3.82v-1.29h8.23v1.29h-3.12v3.93h2.45v.63a19.94,19.94,0,0,0,2.5-7.13l1.34.23c-.22,1.06-.49,2.13-.78,3.1h5.62v1.26Zm-5,.3a22.82,22.82,0,0,0,1.82,5.75,19.54,19.54,0,0,0,1.78-6h-3.47Z"/>
          <path d="M277.21,565.16c0,6.7,0,14,1.07,14,.21,0,.32-1.19.36-2.75a4.43,4.43,0,0,0,.81.93c-.13,2.31-.4,3.23-1.32,3.23-2.18,0-2.14-6.36-2.21-14.21h-9.71v4.54c0,2.9-.3,7-2.34,9.7a4.72,4.72,0,0,0-1.06-.75c1.93-2.56,2.12-6.2,2.12-8.95v-5.78Zm-3.27,10.6a14.09,14.09,0,0,1,2.12,4l-1.08.39a8.77,8.77,0,0,0-.54-1.37l-8.19.58-.09-1.21c1.11-.05,2.59-.14,4.19-.25v-2.52h-3.11v-4.9h3.11V568.7H267v-1.11h8v1.11h-3.49v1.73h3.19v4.9h-3.19v2.45l2.34-.15a15,15,0,0,0-1-1.51Zm-3.59-1.49v-2.76h-2v2.76Zm1.19-2.76v2.76h2v-2.76Z"/>
          <path d="M289.56,573.73a9.66,9.66,0,0,1-1.82,4.17c1.28,1.09,3,1.34,5.1,1.34.55,0,3.89,0,4.62,0a3.48,3.48,0,0,0-.41,1.13h-4.27c-2.45,0-4.36-.32-5.78-1.63a9.28,9.28,0,0,1-3.33,2,3.37,3.37,0,0,0-.63-.94,7.7,7.7,0,0,0,3.24-1.87,8.66,8.66,0,0,1-1-2,7.82,7.82,0,0,1-1.19,1.29,6.79,6.79,0,0,0-.76-.72,11.86,11.86,0,0,1-1.42,4.2,4.64,4.64,0,0,0-1-.81c1.4-2.34,1.55-5.62,1.55-8v-4.39h5.87v-3.29h1.31v1.13h6.16v1h-6.16v1.15h6.28l.22-.05.94.25a19.23,19.23,0,0,1-1.25,2.91l-1.1-.34a11.85,11.85,0,0,0,.73-1.71h-5.87v1.08l4.57-.29.05.9-4.62.31V571c0,.51.1.67.72.67h4.19a13.11,13.11,0,0,0,1.86-.11c0,.35.05.71.1,1a10.1,10.1,0,0,1-1.85.09H290.1c-1.51,0-1.85-.46-1.85-1.64v-.32l-3.57.23-.05-.91,3.62-.24v-1.17h-4.6v3.35a28.75,28.75,0,0,1-.32,4.43,9.36,9.36,0,0,0,2.72-4.19l1.06.27a12.08,12.08,0,0,1-.47,1.18h2l.22,0Zm-3.42.83a3.35,3.35,0,0,0-.2.37,6.51,6.51,0,0,0,1,2.18,7.54,7.54,0,0,0,1.28-2.55Zm8.59,3.69c-.9,0-1.16-.24-1.16-1.14v-2.52h-1.83V575a4.33,4.33,0,0,1-1.69,3.65,5,5,0,0,0-.83-.77,3.36,3.36,0,0,0,1.42-2.92v-1.4h4v3.54c0,.34,0,.4.27.4h.7c.22,0,.27-.2.33-1.15a2.31,2.31,0,0,0,.82.32c-.07,1.22-.34,1.57-1,1.57Z"/>
        </g>
        <g>
          <path d="M261.1,615.06v1.31H245.19v-1.31h7.2v-4.42h-5.55v-1.29h5.55v-4H246v-1.31h7.9a19.89,19.89,0,0,0-3.06-2.75l1.08-.76a20.51,20.51,0,0,1,3.29,2.9l-.84.61h5.81v1.31h-6.39v4h5.65v1.29h-5.65v4.42Z"/>
          <path d="M270.71,604.67h-7.4v-1.1h7.4Zm-6.61,1.26H270V607H264.1Zm5.8,3.4h-5.8v-1.06h5.8Zm.06,6.54h-4.54v.84h-1.17v-6.05H270Zm-4.54-4.09v3h3.35v-3Zm1.35-8.41a15.16,15.16,0,0,0-1.31-2.39l1-.53a13.85,13.85,0,0,1,1.39,2.31ZM279.25,608h-3.69V617h-1.35V608h-3.53v-1.31h3.53v-5.87h1.35v5.87h3.69Z"/>
          <path d="M289.56,610.07a9.76,9.76,0,0,1-1.82,4.18c1.28,1.08,3,1.33,5.1,1.33.55,0,3.89,0,4.62,0a3.48,3.48,0,0,0-.41,1.13h-4.27c-2.45,0-4.36-.32-5.78-1.63a9.28,9.28,0,0,1-3.33,2,3.37,3.37,0,0,0-.63-.94,7.7,7.7,0,0,0,3.24-1.87,8.66,8.66,0,0,1-1-2,7.9,7.9,0,0,1-1.19,1.3,6,6,0,0,0-.76-.73,11.86,11.86,0,0,1-1.42,4.2,4.64,4.64,0,0,0-1-.81c1.4-2.34,1.55-5.62,1.55-8v-4.39h5.87v-3.29h1.31v1.13h6.16v1h-6.16v1.15h6.28l.22-.05.94.25a19.83,19.83,0,0,1-1.25,2.92l-1.1-.35a11.85,11.85,0,0,0,.73-1.71h-5.87V606l4.57-.29.05.9-4.62.31v.42c0,.5.1.66.72.66h4.19a13.11,13.11,0,0,0,1.86-.11c0,.35.05.71.1,1a10.1,10.1,0,0,1-1.85.09H290.1c-1.51,0-1.85-.46-1.85-1.63V607l-3.57.24-.05-.92,3.62-.24v-1.17h-4.6v3.35a28.75,28.75,0,0,1-.32,4.43,9.36,9.36,0,0,0,2.72-4.19l1.06.27a12.08,12.08,0,0,1-.47,1.18h2l.22,0Zm-3.42.83a3.35,3.35,0,0,0-.2.37,6.51,6.51,0,0,0,1,2.18,7.54,7.54,0,0,0,1.28-2.55Zm8.59,3.69c-.9,0-1.16-.24-1.16-1.14v-2.52h-1.83v.42a4.33,4.33,0,0,1-1.69,3.65,5.46,5.46,0,0,0-.83-.77,3.35,3.35,0,0,0,1.42-2.92v-1.4h4v3.54c0,.35,0,.4.27.4h.7c.22,0,.27-.2.33-1.15a2.31,2.31,0,0,0,.82.32c-.07,1.23-.34,1.57-1,1.57Z"/>
        </g>
        <g>
          <path d="M250.19,641.8H245v-1.08h5.15Zm1.42,9.29a24.69,24.69,0,0,1-5.49,2.2,7.85,7.85,0,0,0-1-1,21.52,21.52,0,0,0,5.28-1.73ZM249.74,639h-4.3v-1h4.3Zm-2.34,4.23h11.65v7.22H247.4Zm1.3,2.13h9V644.1h-9Zm0,2.09h9v-1.23h-9Zm0,2.12h9v-1.26h-9ZM253,639.12a9.5,9.5,0,0,1-1.35,1.8,6.19,6.19,0,0,0-1-.69,7.63,7.63,0,0,0,2.07-3.42l1.21.27c-.11.34-.25.67-.38,1h6l.22-.05.9.3a16.69,16.69,0,0,1-1.52,2.6l-1.06-.38a10.24,10.24,0,0,0,.85-1.42h-2.86v.23a3.19,3.19,0,0,1-.06.59c1,1.08,2.92,1.79,5.28,2a5.06,5.06,0,0,0-.76,1.07,8.7,8.7,0,0,1-4.9-2.11c-.59.88-2,1.71-5.18,2.2a4.49,4.49,0,0,0-.72-1c4.66-.63,5.09-1.86,5.09-2.79v-.18Zm2.7,11.41a49.44,49.44,0,0,1,5.29,2l-1.17.77a42.17,42.17,0,0,0-5-2Z"/>
          <path d="M269.49,641H263v-1.1h6.47Zm-.67,11.2h-4v.84h-1.08v-6h5.09Zm-5.07-8.88v-1.06h5.05v1.06Zm0,1.28h5.09v1.06h-5.09Zm1.06,3.51v3h2.91v-3Zm1.38-8.41a17.42,17.42,0,0,0-1.26-2.39l1-.54a15.39,15.39,0,0,1,1.29,2.32Zm11.31-1.84c-.11,7.28-.14,13.53.87,13.78a8.62,8.62,0,0,0,.3-2.42,5.77,5.77,0,0,0,.78,1c-.2,2.52-.78,3.09-1.61,2.75-1.76-.54-1.71-6.43-1.69-13.81h-3v5.31h2.38v1.25h-2.38v7.58H271.9v-7.58h-2.43v-1.25h2.43v-5.31h-2.23v-1.28Z"/>
          <path d="M289.56,646.41a9.76,9.76,0,0,1-1.82,4.18c1.28,1.08,3,1.33,5.1,1.33.55,0,3.89,0,4.62,0a3.48,3.48,0,0,0-.41,1.13h-4.27c-2.45,0-4.36-.32-5.78-1.63a9.28,9.28,0,0,1-3.33,2,3.37,3.37,0,0,0-.63-.94,7.7,7.7,0,0,0,3.24-1.87,8.66,8.66,0,0,1-1-2,7.82,7.82,0,0,1-1.19,1.29,6.79,6.79,0,0,0-.76-.72,11.86,11.86,0,0,1-1.42,4.2,4.64,4.64,0,0,0-1-.81c1.4-2.34,1.55-5.62,1.55-8v-4.39h5.87v-3.3h1.31V638h6.16v1h-6.16v1.15h6.28l.22,0,.94.25a19.83,19.83,0,0,1-1.25,2.92l-1.1-.35a11.85,11.85,0,0,0,.73-1.71h-5.87v1.08l4.57-.29.05.9-4.62.31v.42c0,.5.1.66.72.66h4.19a13.11,13.11,0,0,0,1.86-.11c0,.35.05.71.1,1a10.1,10.1,0,0,1-1.85.09H290.1c-1.51,0-1.85-.46-1.85-1.63v-.33l-3.57.24-.05-.92,3.62-.24v-1.17h-4.6v3.35a28.75,28.75,0,0,1-.32,4.43,9.36,9.36,0,0,0,2.72-4.19l1.06.27a12.08,12.08,0,0,1-.47,1.18h2l.22,0Zm-3.42.83a3.35,3.35,0,0,0-.2.37,6.51,6.51,0,0,0,1,2.18,7.54,7.54,0,0,0,1.28-2.55Zm8.59,3.69c-.9,0-1.16-.24-1.16-1.14v-2.52h-1.83v.42a4.33,4.33,0,0,1-1.69,3.65,5.46,5.46,0,0,0-.83-.77,3.35,3.35,0,0,0,1.42-2.92v-1.4h4v3.54c0,.34,0,.4.27.4h.7c.22,0,.27-.2.33-1.15a2.31,2.31,0,0,0,.82.32c-.07,1.23-.34,1.57-1,1.57Z"/>
        </g>
        <g>
          <path d="M248.25,681.15a16.34,16.34,0,0,0-3.33-1.95l.72-1A16.12,16.12,0,0,1,249,680Zm-2.72,7.34a54,54,0,0,0,3.4-5.76l1,.88a63.49,63.49,0,0,1-3.25,5.78Zm1.08-15.1a17.21,17.21,0,0,1,3.42,1.87l-.77,1.11a17,17,0,0,0-3.37-2Zm13.2,16.22a15.67,15.67,0,0,0-.83-1.78c-6.68.82-7.44.95-7.92,1.18a11.61,11.61,0,0,0-.45-1.33c.34-.09.7-.52,1.15-1.17a30.73,30.73,0,0,0,2.48-4.46h-4v-1.28h4.63v-3.21H251v-1.28h3.84v-3.09h1.33v3.09h4v1.28h-4v3.21h4.72v1.28h-5.08a36.77,36.77,0,0,1-3.17,5.33l5.69-.63c-.51-.81-1.05-1.62-1.6-2.33l1.08-.5A23.07,23.07,0,0,1,261,689Z"/>
          <path d="M268.62,678.9H273v1.22h-4.34v1.8h3.71v4.92c0,.61-.09.95-.54,1.17a5.77,5.77,0,0,1-2.09.21,3.93,3.93,0,0,0-.39-1.17c.77,0,1.37,0,1.55,0s.25,0,.25-.23v-3.68h-2.49v6.47h-1.27v-6.47H265v5H263.8v-6.25h3.55v-1.8H263V678.9h4.38V677H265a12.93,12.93,0,0,1-.91,1.86,7.34,7.34,0,0,0-1.18-.5,14.24,14.24,0,0,0,1.8-4.74l1.26.25c-.16.63-.34,1.3-.54,1.91h1.91v-2.52h1.27v2.52h3.64V677h-3.64Zm6.9,5.83h-1.26v-9.9h1.26Zm3.22-11.34v14.4c0,.88-.19,1.28-.73,1.51a8.74,8.74,0,0,1-2.89.27,7.43,7.43,0,0,0-.43-1.4c1.06,0,2.07,0,2.38,0s.38-.09.38-.39V673.39Z"/>
          <path d="M289.56,682.75a9.76,9.76,0,0,1-1.82,4.18c1.28,1.08,3,1.33,5.1,1.33.55,0,3.89,0,4.62,0a3.48,3.48,0,0,0-.41,1.13h-4.27c-2.45,0-4.36-.32-5.78-1.63a9.28,9.28,0,0,1-3.33,2,3.37,3.37,0,0,0-.63-.94,7.7,7.7,0,0,0,3.24-1.87,8.66,8.66,0,0,1-1-2,7.9,7.9,0,0,1-1.19,1.3,6,6,0,0,0-.76-.73,11.86,11.86,0,0,1-1.42,4.2,4.64,4.64,0,0,0-1-.81c1.4-2.34,1.55-5.62,1.55-8V676.5h5.87v-3.29h1.31v1.13h6.16v1h-6.16v1.15h6.28l.22,0,.94.25a19.38,19.38,0,0,1-1.25,2.92l-1.1-.35a11.85,11.85,0,0,0,.73-1.71h-5.87v1.08l4.57-.28.05.9-4.62.3V680c0,.5.1.66.72.66h4.19a13.11,13.11,0,0,0,1.86-.11c0,.35.05.71.1,1a10.1,10.1,0,0,1-1.85.09H290.1c-1.51,0-1.85-.46-1.85-1.63v-.33l-3.57.24-.05-.92,3.62-.24v-1.17h-4.6v3.35a28.75,28.75,0,0,1-.32,4.43,9.36,9.36,0,0,0,2.72-4.19l1.06.27a12.08,12.08,0,0,1-.47,1.18h2l.22,0Zm-3.42.83a3.35,3.35,0,0,0-.2.37,6.51,6.51,0,0,0,1,2.18,7.54,7.54,0,0,0,1.28-2.55Zm8.59,3.69c-.9,0-1.16-.24-1.16-1.14v-2.52h-1.83V684a4.33,4.33,0,0,1-1.69,3.65,5.46,5.46,0,0,0-.83-.77,3.35,3.35,0,0,0,1.42-2.92v-1.4h4v3.54c0,.35,0,.4.27.4h.7c.22,0,.27-.2.33-1.15a2.31,2.31,0,0,0,.82.32c-.07,1.23-.34,1.57-1,1.57Z"/>
        </g>
      </g>
      <line class="cls-4" x1="180.41" y1="590.59" x2="199.41" y2="590.59"/>
    </g>
    <g>
      <rect class="cls-10" x="202.68" y="741.88" width="32" height="112.04" rx="5"/>
      <g>
        <path class="cls-7" d="M216.29,770.59h-5.66v-1.31h5.66Zm-.54-7.4H211v-1.3h4.72Zm5.33,2.43c0,.27,0,.54,0,.79.83,3.8,2.61,6.68,5.89,7.82a5.91,5.91,0,0,0-.89,1.17,9.58,9.58,0,0,1-5.4-6.14c-.63,2.2-2.11,4.5-5.54,6.3a6.21,6.21,0,0,0-1-1c5.16-2.61,5.56-6.36,5.56-8.94v-1.36h1.41Zm-2.89-2.16a17.08,17.08,0,0,1-1.89,3.78,7.57,7.57,0,0,0-1.31-.75,18.12,18.12,0,0,0,2.9-7.41l1.44.28a27.75,27.75,0,0,1-.7,2.79h6.52l.25-.08,1,.53a28,28,0,0,1-1.89,4.88c-.29-.17-.8-.44-1.12-.58a22,22,0,0,0,1.33-3.44Z"/>
        <path class="cls-7" d="M216.54,789.63c-.06-.3-.15-.64-.27-1-4.16.65-4.72.79-5.08,1-.07-.27-.27-.9-.41-1.26.37-.07.79-.52,1.33-1.17a19.8,19.8,0,0,0,1.51-2,11,11,0,0,0-2.54.44c-.07-.26-.29-.9-.43-1.23.31-.07.63-.45,1-1a24.23,24.23,0,0,0,2.36-4.52l1.26.52a29.38,29.38,0,0,1-2.78,4.78l1.9-.18c.48-.78.95-1.61,1.36-2.42l1.16.69a37.31,37.31,0,0,1-4,5.8l3.09-.45c-.21-.56-.45-1.14-.66-1.64l.95-.35a16.82,16.82,0,0,1,1.33,3.66Zm-3.94.94a23.34,23.34,0,0,1-.92,4.34,7.35,7.35,0,0,0-1-.4,20.11,20.11,0,0,0,.86-4.14Zm1.81-.27a29.12,29.12,0,0,1,.49,3.58l-1,.24a34.65,34.65,0,0,0-.43-3.62Zm1.93-.43a21.21,21.21,0,0,1,.92,2.9l-1,.34a19.36,19.36,0,0,0-.86-3Zm10-4.79a17.12,17.12,0,0,1-2.56,6.52,8.26,8.26,0,0,0,3.17,2.52,4.5,4.5,0,0,0-.92,1.11,9.11,9.11,0,0,1-3.06-2.57,11.24,11.24,0,0,1-3.19,2.66,3.53,3.53,0,0,0-.84-1,10.46,10.46,0,0,0,3.26-2.78,18.94,18.94,0,0,1-2-5.09c-.34,3.58-1,6.48-2.66,8.75a6.44,6.44,0,0,0-1.17-.83c2.35-2.94,2.73-7.54,2.79-13.38H217.4v-1.26h6.36l.21-.07.92.14c-.2,1.48-.5,3.44-.83,5h1.26l.24-.05ZM220.48,781c0,1.35-.07,2.65-.14,3.85h2.46c.24-1.2.49-2.7.67-3.85Zm.79,5.06a16.47,16.47,0,0,0,1.77,4.38,15.19,15.19,0,0,0,1.83-4.38Z"/>
        <path class="cls-7" d="M214.65,808.28c-.18-.48-.58-1.33-1-2.09v8.92h-1.17v-8.57a19.64,19.64,0,0,1-1.69,4.71,8.88,8.88,0,0,0-.58-1.29,23.17,23.17,0,0,0,2.17-6.58h-1.81v-1.26h1.91v-3.45h1.17v3.45h1.43v1.26h-1.43v1.18c.4.63,1.37,2.3,1.61,2.73Zm11,1.33a10.48,10.48,0,0,1-2.22,2.89,2.55,2.55,0,0,0,1.87,1.29c.38,0,.62-.65.76-1.94a3.88,3.88,0,0,0,.9.68c-.34,2-.9,2.63-1.62,2.58a3.64,3.64,0,0,1-2.84-1.84,15.21,15.21,0,0,1-3.15,1.75,4.65,4.65,0,0,0-.72-.85A13.31,13.31,0,0,0,222,812.3a18.39,18.39,0,0,1-1-3.3H218v.27c0,.13,0,.27,0,.42a26.71,26.71,0,0,1,2.48,2.14l-.83.81a23.45,23.45,0,0,0-1.82-1.69,7,7,0,0,1-2.64,4.19,4,4,0,0,0-.88-.81,6,6,0,0,0,2.55-5.08V809h-1.37v-1.08h5.26a70.47,70.47,0,0,1-.77-9.11h1.15a61.68,61.68,0,0,0,.79,9.11h2.58a12.92,12.92,0,0,0-1.61-1.15l.69-.63a12.16,12.16,0,0,1,1.87,1.3l-.47.48h1.5V809h-4.34a14.81,14.81,0,0,0,.77,2.47,8.09,8.09,0,0,0,1.6-2.27Zm-6.38-2.7c0-.21-.12-.46-.19-.75a14.49,14.49,0,0,0-3.25.61,5.14,5.14,0,0,0-.3-1c.25,0,.56-.36.92-.81.18-.21.64-.85,1.15-1.62a7.8,7.8,0,0,0-1.93.38,6.12,6.12,0,0,0-.3-1c.21-.06.43-.29.66-.67a14.81,14.81,0,0,0,1.51-3.09l1,.32a17.69,17.69,0,0,1-1.8,3.26l1.42-.15c.22-.39.44-.79.62-1.2l1,.38a24.75,24.75,0,0,1-2.7,4l1.74-.24c-.12-.39-.27-.77-.41-1.13l.85-.24a17.4,17.4,0,0,1,.92,2.67Zm6.5-.3a6.55,6.55,0,0,0-.23-.81,14.59,14.59,0,0,0-3.26.63,10.12,10.12,0,0,0-.36-1c.29,0,.56-.36.9-.79a15,15,0,0,0,1.08-1.6,6.72,6.72,0,0,0-1.82.36,6.32,6.32,0,0,0-.34-1c.22,0,.41-.25.63-.59a13.45,13.45,0,0,0,1.3-2.83l1,.31a18.15,18.15,0,0,1-1.56,2.95l1.31-.15a9.63,9.63,0,0,0,.63-1.24l1,.38a25,25,0,0,1-2.63,4l1.8-.25c-.14-.36-.29-.74-.43-1.08l.81-.23a20.32,20.32,0,0,1,1,2.66Z"/>
        <path class="cls-7" d="M217.55,827.61a14.78,14.78,0,0,1,1,2l-.65.25h.18v1.6c0,1.35-.32,2.58-2.56,3.37a3.22,3.22,0,0,0-.64-.79,3,3,0,0,0,2-1.39h-2.39V830.1h.92v1.67h1.69a2.11,2.11,0,0,0,0-.36v-1.58h.68c0-.15-.14-.34-.21-.56a20.74,20.74,0,0,0-3.55.45,4,4,0,0,0-.27-.88,2.12,2.12,0,0,0,1-.51,8.73,8.73,0,0,0,1.08-.93,6.8,6.8,0,0,0-1.67.21,7,7,0,0,0-.31-.91,1.21,1.21,0,0,0,.6-.33,8.54,8.54,0,0,0,1.27-1.64h-3.09v10.19H211.3V819.24h6.55v5.49H216l.61.33a9.89,9.89,0,0,1-1.4,1.64l1.33-.06a8.47,8.47,0,0,0,.79-.93l.79.52a21.36,21.36,0,0,1-2.71,2.48l1.81-.14c-.12-.25-.25-.51-.37-.72Zm-5-7.4v1.35h4v-1.35Zm0,3.53h4v-1.28h-4Zm13.59,9.49c0,.74-.14,1.15-.63,1.37a5.93,5.93,0,0,1-2.34.27,5.84,5.84,0,0,0-.41-1.33c.79,0,1.54,0,1.78,0s.3-.09.3-.33v-8.5h-4l.67.35a12.07,12.07,0,0,1-1.41,1.63l1.34-.07c.28-.3.54-.61.79-.93l.77.5a17.6,17.6,0,0,1-2.72,2.5l1.8-.14c-.12-.25-.25-.51-.37-.72l.68-.24a15.24,15.24,0,0,1,1,1.95l-.72.32a6.08,6.08,0,0,0-.28-.61c-2.83.29-3.28.34-3.51.47,0-.2-.19-.65-.27-.9a2.2,2.2,0,0,0,.95-.49c.2-.14.59-.5,1.1-1a5.41,5.41,0,0,0-1.7.23,5.34,5.34,0,0,0-.32-.92.94.94,0,0,0,.59-.32,8.67,8.67,0,0,0,1.3-1.66h-1.11v-5.49h6.71Zm-4.23-.05v-.56h-1.73v2h-1v-4.82h1v1.94h1.73v-1.65h.95v3.06Zm-1.21-13v1.35h4.14v-1.35Zm4.14,3.53v-1.28h-4.14v1.28Z"/>
      </g>
      <g>
        <g>
          <path d="M252.89,783.37a3.87,3.87,0,0,1-1.55,2.38,17.25,17.25,0,0,1,2.08,1.06l-.89.78a19,19,0,0,0-2.21-1.17,18.55,18.55,0,0,1-5,1.55,3.86,3.86,0,0,0-.56-.9,18.78,18.78,0,0,0,4.34-1.19,21.46,21.46,0,0,0-2.77-1c.28-.36.61-.76.91-1.19l-2.12.11-.13-1c.81,0,1.82-.08,2.92-.11.27-.49.56-1,.81-1.42h-2.93v-2.94h3.4v-.74h-2.9v-1.94H245v-1h1.21v-1.83h2.9v-1.27h1.06v1.27h3.06v1.83h1.23v1h-1.23v1.94h-3.06v.74h3.49v2.94h-3.8a11.38,11.38,0,0,1-.75,1.35l2.73-.15v-.84H253v.79l.9-.06v.94Zm-6-3h2.25v-1.12H246.9Zm.5-6.65v1h1.75v-1Zm1.75,2.94V775.6H247.4v1.08Zm-.63,6.93c-.18.29-.38.56-.56.81.74.23,1.51.52,2.25.83a3.5,3.5,0,0,0,1.51-1.8Zm1.69-9.87v1h1.87v-1Zm1.87,2.94V775.6h-1.87v1.08Zm-1.87,2.59v1.12h2.31v-1.12Zm9.8-3.08a26.59,26.59,0,0,1-1.64,6.9,8.84,8.84,0,0,0,3,3.74,4.17,4.17,0,0,0-.81,1,9,9,0,0,1-2.83-3.41,10.65,10.65,0,0,1-3.26,3.71,4.08,4.08,0,0,0-.73-1,9.24,9.24,0,0,0,3.38-4.05,23.57,23.57,0,0,1-1.31-4.75,12.16,12.16,0,0,1-1,2,10.82,10.82,0,0,0-.92-.81,21.09,21.09,0,0,0,2.31-7.76l1.13.18c-.14,1-.34,2.11-.57,3.11h4.39v1.21Zm-3.46,0a30,30,0,0,0,1.2,5.33,25.15,25.15,0,0,0,1.05-5.33Z"/>
          <path d="M268.55,772a23.86,23.86,0,0,1-1.82,3.82V788H265.4V777.9a18.88,18.88,0,0,1-1.78,2.18,7.11,7.11,0,0,0-.76-1.32,19.88,19.88,0,0,0,4.43-7.14Zm10.66,14v1.29H268V786h6.29a82,82,0,0,0,1.71-8.92l1.38.26c-.47,2.75-1.2,6.26-1.85,8.66Zm-.74-9.87h-9.7v-1.3h9.7Zm-7.31,9a63.44,63.44,0,0,0-1.22-7.67l1.21-.27a72.51,72.51,0,0,1,1.33,7.56Zm2-10.53a21,21,0,0,0-.85-2.87l1.26-.32a25.38,25.38,0,0,1,.9,2.79Z"/>
          <path d="M283.67,778.84v2.68c0,2-.3,4.79-1.92,6.64a4.89,4.89,0,0,0-1-.86c1.46-1.68,1.64-4,1.64-5.8v-3.78h2.26a6.9,6.9,0,0,0-.64-.67c1.42-.27,3.06-.63,4.6-1.06-1.36-.39-2.77-.75-4.05-1l.8-.65h-2.88v-1.1h6.64c-.31-.45-.65-.94-1-1.33l.95-.49a14.94,14.94,0,0,1,1.37,1.82h6v1.1h-2.74l.72.43a18.71,18.71,0,0,1-2.75,1.21c1.31.39,2.54.79,3.44,1.11l-.72.67h2.61v1.12Zm13.67,7.45v1.12H284v-1.12h5.88v-1.82h-4.19v-1.08h4.19v-1.6h-3.76a9.87,9.87,0,0,1-1.71,2.21,6.66,6.66,0,0,0-.7-1.09,10.07,10.07,0,0,0,2.37-3.77l1.16.33c-.17.41-.33.81-.51,1.22h3.15v-1.53h1.32v1.53H296v1.1H291.2v1.6h4.45v1.08H291.2v1.82ZM294,777.72c-1.05-.4-2.36-.83-3.82-1.28-1.62.52-3.33.94-4.86,1.28Zm-8.27-3.42c1.41.34,3,.76,4.52,1.21a20.19,20.19,0,0,0,3-1.21Z"/>
          <path d="M305.56,785.1a16.71,16.71,0,0,1-5.53,2.33,4.67,4.67,0,0,0-.81-1,16.05,16.05,0,0,0,5.33-1.79Zm9.4-2.5v1.13h-7.22V788h-1.32v-4.27h-7.11V782.6h7.11v-1.35H301v-1h5.41v-1.29h-6.33v-1.08H304a7.47,7.47,0,0,0-.92-1.73l.95-.25h-4.64v-1.12h2.9a14.68,14.68,0,0,0-1.44-2.61l1.13-.4a11,11,0,0,1,1.53,2.65l-.9.36h2.2v-3.19h1.26v3.19h2.14v-3.19h1.28v3.19h2.18l-.72-.23a15,15,0,0,0,1.38-2.74l1.37.38c-.5.92-1.1,1.91-1.57,2.59h2.78v1.12h-4.68l1.17.32c-.42.59-.85,1.21-1.25,1.66h4.13v1.08h-6.52v1.29h5.64v1h-5.64v1.35Zm-10.61-6.73a6.81,6.81,0,0,1,1,1.78l-.74.2h5l-.63-.2a14.37,14.37,0,0,0,1.06-1.78Zm5.35,8.67c1.69.56,4,1.43,5.22,2l-.82.85c-1.19-.58-3.48-1.5-5.19-2.13Z"/>
          <path d="M327.22,780.75c-.83.43-1.68.84-2.56,1.2h6.77v6h-1.3v-.52h-7.94V788h-1.26v-4.61c-1.13.36-2.3.68-3.46,1a7.4,7.4,0,0,0-.66-1.15,41,41,0,0,0,7.74-2.43h-7.36v-1.1h6.73V778.3H319v-1.08h4.95V776h-5.71v-3.7h13.94V776h-6.93v1.26h4v.91a15,15,0,0,0,1.85-1.54l1,.66a18.56,18.56,0,0,1-3.06,2.4h4v1.1Zm-4.87-7.51h-2.86V775h2.86Zm7.78,9.72h-7.94v1.19h7.94Zm0,3.42v-1.31h-7.94v1.31ZM326.55,775v-1.73H323.6V775Zm.25,4.68c.79-.42,1.53-.89,2.22-1.35h-3.8v1.35Zm1-4.68h3v-1.73h-3Z"/>
        </g>
        <g>
          <path d="M250.19,812.84H245v-1.08h5.15Zm1.42,9.29a24.21,24.21,0,0,1-5.49,2.19,7.78,7.78,0,0,0-1-1,21.52,21.52,0,0,0,5.28-1.73ZM249.74,810h-4.3v-1h4.3Zm-2.34,4.23h11.65v7.22H247.4Zm1.3,2.13h9v-1.23h-9Zm0,2.08h9v-1.22h-9Zm0,2.13h9v-1.26h-9ZM253,810.15a8.9,8.9,0,0,1-1.35,1.8,6.15,6.15,0,0,0-1-.68,7.74,7.74,0,0,0,2.07-3.42l1.21.27c-.11.34-.25.66-.38,1h6l.22-.06.9.31a16.56,16.56,0,0,1-1.52,2.59l-1.06-.37a9.82,9.82,0,0,0,.85-1.43h-2.86v.24a3.19,3.19,0,0,1-.06.59c1,1.08,2.92,1.78,5.28,2a5,5,0,0,0-.76,1.06,8.62,8.62,0,0,1-4.9-2.1c-.59.88-2,1.71-5.18,2.19a5,5,0,0,0-.72-1c4.66-.63,5.09-1.85,5.09-2.79v-.18Zm2.7,11.42a49.62,49.62,0,0,1,5.29,1.94l-1.17.78a42.17,42.17,0,0,0-5-2Z"/>
          <path d="M267.31,816.49a22.22,22.22,0,0,1-1.49,4.65c.36.19.77.54,1.45.93,1.26.78,2.9.9,5,.9,2.32,0,5.22-.18,7.24-.38a4.91,4.91,0,0,0-.4,1.39c-1.35.09-4.75.2-6.9.2-2.36,0-3.94-.2-5.25-1-.72-.43-1.41-1.05-1.8-1.05s-1,1.14-1.52,2.27l-.93-1.2a7.74,7.74,0,0,1,1.8-2,15.32,15.32,0,0,0,1.28-3.75h-2.35c.49-1.06,1.07-2.59,1.55-4h-2v-1.21h3.69c-.43,1.3-1,2.81-1.48,4h1.24l.22,0Zm-2.45-5.2c-.2-.78-.61-2-.92-3l1.19-.34c.33.94.72,2.13,1,2.9Zm5.08,10.37h-1.28v-9.27h5.15c-1.08-.53-2.36-1.1-3.44-1.5l.85-.74c.77.26,1.65.62,2.5,1a14.9,14.9,0,0,0,2.47-1.43h-7.51v-1.06h8.78l.28-.07.81.63a15,15,0,0,1-3.64,2.47c.52.27,1,.5,1.38.72h2.27v7.92c0,.66-.14,1-.61,1.17a7.23,7.23,0,0,1-2.43.21,4.12,4.12,0,0,0-.36-1.11c.85,0,1.6,0,1.82,0s.31-.08.31-.31v-1.64h-3.14v2.94H273v-2.94h-3Zm0-8.25V815h3v-1.59Zm3,4.22V816h-3v1.64Zm4.34-4.22h-3.14V815h3.14Zm0,4.22V816h-3.14v1.64Z"/>
          <path d="M293.23,816.38a10.73,10.73,0,0,1-2.1,4,38.83,38.83,0,0,1,5.52,2.81l-1,1.17a37,37,0,0,0-5.59-2.93c-1.81,1.53-4.34,2.41-7.7,3a6,6,0,0,0-.85-1.34c3.1-.39,5.42-1.08,7.09-2.28-1.67-.7-3.42-1.33-5-1.84a30.39,30.39,0,0,0,1.67-2.54h-3.91V815.1H286a26.6,26.6,0,0,0,1.5-3.13l1.49.27a27,27,0,0,1-1.35,2.86H292c.12-.55.23-1.15.32-1.78l1.57.15c-.09.57-.2,1.13-.33,1.63h3.3v1.28Zm-10.06-2.81h-1.34V810h6.7c-.25-.57-.57-1.28-.88-1.83l1.42-.36c.38.68.85,1.56,1.12,2.19h6.19v3.6H295v-2.35H283.17Zm3.76,2.81c-.41.71-.81,1.35-1.21,1.93,1.3.41,2.67.94,4,1.46a9,9,0,0,0,1.94-3.39Z"/>
          <path d="M307.81,808.41a18.58,18.58,0,0,0,7.64,6.14,5.06,5.06,0,0,0-1,1.13,22,22,0,0,1-7.37-6,27.48,27.48,0,0,1-7.49,6.22,4.85,4.85,0,0,0-.81-1.14,22.72,22.72,0,0,0,6.75-5.09h-3.2v-1.26Zm-.07,14.22h6.95v1.23H299.53v-1.23h6.82v-3h-5v-1.18h5V815.7h-4.26v-1.21h10v1.21h-4.36v2.74h5.09v1.18h-5.09Z"/>
          <path d="M327.22,817.09c-.83.43-1.68.84-2.56,1.2h6.77v6h-1.3v-.52h-7.94v.58h-1.26V819.7c-1.13.36-2.3.68-3.46,1a7.4,7.4,0,0,0-.66-1.15,41,41,0,0,0,7.74-2.43h-7.36V816h6.73v-1.35H319v-1.08h4.95V812.3h-5.71v-3.7h13.94v3.7h-6.93v1.26h4v.91a15,15,0,0,0,1.85-1.54l1,.66a18.56,18.56,0,0,1-3.06,2.4h4v1.1Zm-4.87-7.51h-2.86v1.73h2.86Zm7.78,9.72h-7.94v1.19h7.94Zm0,3.42v-1.31h-7.94v1.31Zm-3.58-11.41v-1.73H323.6v1.73Zm.25,4.68c.79-.42,1.53-.89,2.22-1.35h-3.8V816Zm1-4.68h3v-1.73h-3Z"/>
        </g>
      </g>
      <line class="cls-4" x1="180.41" y1="797.76" x2="199.41" y2="797.76"/>
    </g>
    <g>
      <g>
        <path d="M250.19,905.28H245V904.2h5.15Zm1.42,9.29a24.21,24.21,0,0,1-5.49,2.19,7.78,7.78,0,0,0-1-1,21.52,21.52,0,0,0,5.28-1.73Zm-1.87-12.12h-4.3v-1h4.3Zm-2.34,4.23h11.65v7.22H247.4Zm1.3,2.13h9v-1.23h-9Zm0,2.09h9v-1.23h-9Zm0,2.12h9v-1.26h-9ZM253,902.59a9.27,9.27,0,0,1-1.35,1.81,6.19,6.19,0,0,0-1-.69,7.74,7.74,0,0,0,2.07-3.42l1.21.27c-.11.34-.25.67-.38,1h6l.22,0,.9.3a16.69,16.69,0,0,1-1.52,2.6l-1.06-.38a9.82,9.82,0,0,0,.85-1.43h-2.86v.24a3.19,3.19,0,0,1-.06.59c1,1.08,2.92,1.79,5.28,2a5.06,5.06,0,0,0-.76,1.07,8.7,8.7,0,0,1-4.9-2.11c-.59.88-2,1.71-5.18,2.2a4.49,4.49,0,0,0-.72-1c4.66-.63,5.09-1.86,5.09-2.79v-.19Zm2.7,11.42A49.62,49.62,0,0,1,261,916l-1.17.78a42.17,42.17,0,0,0-5-2Z"/>
        <path d="M269.49,904.49H263v-1.1h6.47Zm-.67,11.19h-4v.85h-1.08v-6h5.09Zm-5.07-8.87v-1.06h5.05v1.06Zm0,1.28h5.09v1.06h-5.09Zm1.06,3.51v3h2.91v-3Zm1.38-8.41a18.09,18.09,0,0,0-1.26-2.4l1-.54a16,16,0,0,1,1.29,2.33Zm11.31-1.84c-.11,7.28-.14,13.52.87,13.78a8.62,8.62,0,0,0,.3-2.42,5.77,5.77,0,0,0,.78,1c-.2,2.52-.78,3.09-1.61,2.75-1.76-.54-1.71-6.43-1.69-13.81h-3v5.31h2.38v1.24h-2.38v7.58H271.9v-7.58h-2.43v-1.24h2.43v-5.31h-2.23v-1.28Z"/>
        <path d="M297.16,914.06v1.34H281.1v-1.34h7.23V903.73H282v-1.37h14.23v1.37h-6.47v10.33Z"/>
        <path d="M305.56,913.88a16.71,16.71,0,0,1-5.53,2.33,4.67,4.67,0,0,0-.81-1,16.28,16.28,0,0,0,5.33-1.78Zm9.4-2.5v1.14h-7.22v4.26h-1.32v-4.26h-7.11v-1.14h7.11V910H301v-1h5.41v-1.29h-6.33v-1.08H304a7.47,7.47,0,0,0-.92-1.73l.95-.25h-4.64v-1.12h2.9a14.68,14.68,0,0,0-1.44-2.61l1.13-.4a11,11,0,0,1,1.53,2.65l-.9.36h2.2v-3.19h1.26v3.19h2.14v-3.19h1.28v3.19h2.18l-.72-.23a15,15,0,0,0,1.38-2.74l1.37.38c-.5.92-1.1,1.91-1.57,2.59h2.78v1.12h-4.68l1.17.32a19.35,19.35,0,0,1-1.25,1.66h4.13v1.08h-6.52V909h5.64v1h-5.64v1.35Zm-10.61-6.73a7,7,0,0,1,1,1.78l-.74.2h5l-.63-.2a13.68,13.68,0,0,0,1.06-1.78Zm5.35,8.68c1.69.55,4,1.42,5.22,2l-.82.85c-1.19-.58-3.48-1.49-5.19-2.12Z"/>
        <path d="M325.9,911a15,15,0,0,0,7.55,4,7.15,7.15,0,0,0-.85,1.17,16.2,16.2,0,0,1-6.7-3.68v4.32h-1.4v-4.35a16,16,0,0,1-6.72,3.78,4.1,4.1,0,0,0-.85-1.12,14.22,14.22,0,0,0,7.57-4.25v-1.55h-4.43v3.46h-1.39V908.1h5.82v-1.38h-7.12v-1.19h7.12v-1.12h1.4v1.12h6.86v1.19H325.9v1.38h5.84v3.32c0,.65-.13.92-.6,1.11a6.87,6.87,0,0,1-2.18.18,4.69,4.69,0,0,0-.45-1.06c.72,0,1.42,0,1.62,0s.27-.07.27-.25v-2.15h-4.5Zm-6.12-8.29a12.28,12.28,0,0,1-1.86,2.35,6.62,6.62,0,0,0-.93-.89,11.16,11.16,0,0,0,2.72-3.92l1.17.32c-.15.36-.31.7-.49,1.06H325v1.08h-3.4a13,13,0,0,1,1.62,1.63l-.88.75a12.05,12.05,0,0,0-1.73-1.85l.7-.53Zm7.42,0a9.43,9.43,0,0,1-1.41,1.68,6.6,6.6,0,0,0-1-.79,7.9,7.9,0,0,0,2.24-3.35l1.22.29a11.5,11.5,0,0,1-.47,1.11h5.44v1.06h-3.87a15.4,15.4,0,0,1,1.78,1.63l-.88.77a14.55,14.55,0,0,0-1.86-1.76l.78-.64Z"/>
        <path d="M339.29,908.93a23.44,23.44,0,0,1-1.47,4.65c.34.2.77.54,1.44.93,1.27.78,2.89.9,5,.9s5.22-.18,7.24-.37a4.89,4.89,0,0,0-.42,1.38c-1.33.09-4.75.2-6.88.2-2.37,0-3.94-.2-5.27-1-.72-.43-1.39-1-1.8-1s-1,1.13-1.53,2.27l-.92-1.21a8.12,8.12,0,0,1,1.8-2,16.22,16.22,0,0,0,1.3-3.75h-2.36c.5-1.06,1.06-2.59,1.55-4h-2v-1.21h3.69c-.45,1.3-1,2.81-1.5,4.05h1.25l.23-.05Zm-2.43-5.18c-.21-.8-.63-2-.92-3l1.17-.36c.33.94.74,2.13,1,2.9Zm4.14,2a15.39,15.39,0,0,1-1.33,1.51,9.19,9.19,0,0,0-.83-1.15,14.19,14.19,0,0,0,3.73-5.78l1.22.34a19,19,0,0,1-1.17,2.6h3.59a22.61,22.61,0,0,0-1.08-2.22l1.22-.36a14.59,14.59,0,0,1,1.31,2.58h3.16v1.17h-3.88v1.74h3.28v1.14h-3.28v1.78h3.25v1.14h-3.25v1.87h4.18v1.15H342.3v1H341Zm4.67-1.31H342.3v1.74h3.37Zm0,2.88H342.3v1.78h3.37Zm0,2.92H342.3v1.87h3.37Z"/>
        <path d="M362.17,900.7a3.79,3.79,0,0,0-.25.35,17.73,17.73,0,0,0,7.6,3.74,5.36,5.36,0,0,0-.85,1,21.87,21.87,0,0,1-4.41-1.8v.55H358v-.48a24.92,24.92,0,0,1-4.41,1.84,8.22,8.22,0,0,0-.76-1c3.26-.87,6.45-2.45,8.14-4.63Zm-7.07,4.76h12V910h-12Zm1,5.38h10.12v5.85h-1.35v-.54h-7.46v.6h-1.31Zm.11-1.76h4.25v-2.69h-4.25Zm2-2.49a7.11,7.11,0,0,1,1.08,2l-1,.37a7.83,7.83,0,0,0-1-2.1Zm-.83,5.21V913h7.46V911.8Zm7.46,3.4V914h-7.46v1.23Zm-1.35-11.6a15.15,15.15,0,0,1-2.38-1.8,13.31,13.31,0,0,1-2.32,1.8Zm2.36,2.79h-4.29v2.69h4.29Zm-3.14,2.29a13.9,13.9,0,0,0,1-2.16l1.14.36a20.34,20.34,0,0,1-1.23,2.12Z"/>
      </g>
      <g>
        <path d="M252.41,940.45h-5.6v2.9h-1.28v-3.86h6.88v-1.15H246.3v-1h13.58v1H253.7v1.15h7v3.86h-1.32v-2.9H253.7v4.08h-1.29ZM259,951.79c.95,0,1.13-.31,1.22-2.09a3.66,3.66,0,0,0,1.17.43c-.19,2.18-.59,2.74-2.3,2.74h-4.14c-2,0-2.58-.36-2.58-1.8v-.56h-4v.94h-1.29V945.2h12.13v5.31h-5.56v.56c0,.61.22.72,1.33.72Zm-11.85-8.25c1.14-.1,2.68-.34,4.27-.59l0,.85c-1.38.28-2.75.57-3.92.79Zm.87-2.73a17.5,17.5,0,0,1,3.45.93l-.39.83a17.19,17.19,0,0,0-3.48-1Zm.37,5.36v1.23h4v-1.23Zm4,3.37V948.3h-4v1.24Zm5.55-3.37h-4.25v1.23h4.25Zm0,3.37V948.3h-4.25v1.24Zm.75-4.9a28.56,28.56,0,0,0-4.19-1l.32-.81a23.48,23.48,0,0,1,4.18.88Zm0-3.17a21.87,21.87,0,0,1-3.51,1l-.47-.7a34.23,34.23,0,0,0,3.41-1.08Z"/>
        <path d="M268,937.1a30.74,30.74,0,0,1-1.51,3.55v12.53H265.2V942.81a20.82,20.82,0,0,1-1.71,2.32,7.11,7.11,0,0,0-.74-1.24,20.66,20.66,0,0,0,4-7.15Zm11.16,2.54v1.13h-11.4v-1.13Zm-10.35,7.7h9.11v5.73h-1.19v-.65h-6.75v.7h-1.17Zm8.93-4H269v-1.1h8.68ZM269,944.73h8.68v1.1H269Zm.92,3.73v2.84h6.75v-2.84Zm3.17-8.93a17.85,17.85,0,0,0-1.24-2.4l1.13-.46a13.52,13.52,0,0,1,1.31,2.34Z"/>
        <path d="M286.84,945.76l-2.16.65v5.09c0,.76-.2,1.12-.67,1.33a6,6,0,0,1-2.43.24,4.89,4.89,0,0,0-.43-1.23c.87,0,1.64,0,1.86,0s.36-.09.36-.34v-4.7l-2.17.63-.37-1.31c.72-.16,1.58-.38,2.54-.65v-3.92h-2.31v-1.27h2.31v-3.6h1.31v3.6h2v1.27h-2v3.56l2-.58Zm9.58-2a13.25,13.25,0,0,1-3.66,5.93,12.4,12.4,0,0,0,4.65,2.32,5.16,5.16,0,0,0-.86,1.15,12.92,12.92,0,0,1-4.81-2.61,16.33,16.33,0,0,1-5.12,2.57,4.73,4.73,0,0,0-.72-1.2,14.77,14.77,0,0,0,4.88-2.29,14.27,14.27,0,0,1-2.95-4.93l.05,0h-.59v-1.24h3.85v-2.68h-4.21v-1.25h4.21v-2.82h1.32v2.82h4.3v1.25h-4.3v2.68h2.86l.22-.06Zm-7.27.92a12.22,12.22,0,0,0,2.64,4.14,11,11,0,0,0,2.9-4.14Z"/>
        <path d="M303.63,940.68a19.12,19.12,0,0,1-1.54,2.7v9.76h-1.25V945a14.91,14.91,0,0,1-1.55,1.61,7.59,7.59,0,0,0-.79-1.18,15.31,15.31,0,0,0,3.93-5.16Zm-.45-3.56a15.11,15.11,0,0,1-3.63,4.17,9.19,9.19,0,0,0-.72-1,12.09,12.09,0,0,0,3.13-3.6Zm2.09,6.33c0,3.48-.25,5.8-1.62,7.19a3.79,3.79,0,0,0-.72-.79c1.15-1.21,1.3-3.24,1.33-6.4Zm2.16-1.18v10.8h-1.18v-10.8h-2.67V941h2.67v-4.19h1.18V941h3v1.25Zm2.24-1.71a13.41,13.41,0,0,0-1.61-2.4l.85-.49a12.35,12.35,0,0,1,1.64,2.36Zm.64,8.51a2.43,2.43,0,0,0,.6-.05c0,.27.07.72.09,1a2.61,2.61,0,0,1-.69.07h-.64c-1,0-1.23-.39-1.23-1.58v-5h1v5c0,.47,0,.58.18.58Zm5-5.56h-1.6v7.83c0,.76-.15,1.12-.63,1.35a7.74,7.74,0,0,1-2.6.23,5,5,0,0,0-.39-1.29c.93,0,1.76,0,2,0s.33-.08.33-.31v-7.83h-2.07V942.3h4.95Zm-.25-4.18H310.8v-1.21h4.27Z"/>
        <path d="M332.29,939.87v8.43h-1.37v-1h-5.16v5.83h-1.39v-5.83h-5.15v1.12h-1.31v-8.52h6.46v-3.2h1.39v3.2ZM324.37,946v-4.77h-5.15V946Zm6.55,0v-4.77h-5.16V946Z"/>
        <path d="M337.89,943.26a36.3,36.3,0,0,1-1.59,7l-1.33-.55a28,28,0,0,0,1.62-6.76Zm2.91-1.61v8.88c0,.83.22,1,1.25,1h3.44c1.11,0,1.27-.63,1.42-3.73a4.06,4.06,0,0,0,1.26.6c-.2,3.4-.61,4.39-2.61,4.39h-3.62c-1.95,0-2.49-.49-2.49-2.27v-8.86Zm.38-4.35a32.39,32.39,0,0,1,4.85,4l-1,1a33.24,33.24,0,0,0-4.77-4.09Zm7.83,5.24a32,32,0,0,1,2.42,6.75l-1.32.52a32.28,32.28,0,0,0-2.34-6.79Z"/>
      </g>
      <g>
        <path d="M261,988.06v1H245.26v-1h7.15v-1H247v-.88h5.42v-.88a26.52,26.52,0,0,0-4.4.23,6.7,6.7,0,0,0-.28-1,3.61,3.61,0,0,0,1-.23,12.53,12.53,0,0,0,1.76-.88h-3.09v-.83h11.41v.83h-2a18.13,18.13,0,0,1,2.56,1.76l-.83.7c-.22-.21-.54-.47-.89-.74l-3.85.09v.92h5.64v.88h-5.64v1ZM252.41,975h-7.13v-.93h7.13V973h1.31v1.06H261V975h-7.26v.94h5.93v.88H246.59v-.88h5.82Zm7,8.5v-1.62H246.83v1.62h-1.21V981h15v2.55Zm-.47-5.92v2.61H247.4v-2.61Zm-1.32.79h-8.93v1h8.93Zm-5.52,5.12a14.77,14.77,0,0,1-1.89,1l6.28-.09a16,16,0,0,0-1.39-.81l.17-.14Z"/>
        <path d="M265.4,980.8a11.89,11.89,0,0,0-2.57-1.89l.75-.9a11.38,11.38,0,0,1,2.63,1.78Zm-2.23,7.74a59.13,59.13,0,0,0,2.25-5.72l1,.7c-.59,1.87-1.38,4.07-2.08,5.71Zm2.54-12.4a11.81,11.81,0,0,0-2.49-2l.78-.88a10.59,10.59,0,0,1,2.52,1.91Zm2,3.51a9.51,9.51,0,0,1-.8,2.48,4.41,4.41,0,0,0-.66-.43,7.84,7.84,0,0,0,.68-2.23Zm2.41-.72c-.06-.16-.13-.36-.22-.56a13.27,13.27,0,0,0-3.11.56,3.5,3.5,0,0,0-.31-.7c.27,0,.52-.27.83-.63a10.55,10.55,0,0,0,1.12-1.35,6.47,6.47,0,0,0-1.66.25,3.77,3.77,0,0,0-.31-.69c.2,0,.36-.19.56-.45a9.2,9.2,0,0,0,1.1-2.23l.85.31a10.68,10.68,0,0,1-1.21,2.1l1.19-.07a8.59,8.59,0,0,0,.48-.81l.82.34a17.29,17.29,0,0,1-2.22,2.89l1.58-.2c-.1-.22-.23-.4-.34-.6l.69-.23a8.19,8.19,0,0,1,.86,1.78Zm8.35,6.93a2.41,2.41,0,0,1-.07.54c-.34,1.55-.7,2.34-1.19,2.7a2.09,2.09,0,0,1-1.35.34c-.54,0-1.62,0-2.75-.07a2.54,2.54,0,0,0-.38-1c1.15.1,2.32.12,2.77.12a1.25,1.25,0,0,0,.76-.14,2.64,2.64,0,0,0,.77-1.55h-9.47a25.78,25.78,0,0,0,.78-2.68h8.12v-.94h-8.77v-.86h10V985h-8.34c-.07.31-.16.61-.25.9Zm-10-4a9.76,9.76,0,0,0-.4-2.22l.71-.18a9.07,9.07,0,0,1,.43,2.15Zm1.6-2.68a9.66,9.66,0,0,1,.65,1.92l-.68.31a10.18,10.18,0,0,0-.63-2Zm4.79-3.52h-4.32v-.82h1.91a7.27,7.27,0,0,0-.7-1.43l.92-.23a9.54,9.54,0,0,1,.77,1.42l-.79.24h2.21ZM271,979h3.38v2.65H271Zm3.36-2h-3.31v-.76h3.31Zm-3.31.58h3.31v.74h-3.31Zm.83,3.31h1.58v-1.19h-1.58Zm4.12-1.33a10.33,10.33,0,0,1-.77,2.48,7.75,7.75,0,0,0-.7-.47,7.3,7.3,0,0,0,.7-2.19Zm2.49-.6c-.06-.2-.15-.41-.25-.66a19.27,19.27,0,0,0-3.16.54,7,7,0,0,0-.3-.71c.27,0,.52-.25.84-.59a16.44,16.44,0,0,0,1.12-1.37,6.32,6.32,0,0,0-1.67.27,5.19,5.19,0,0,0-.31-.7c.22,0,.34-.18.54-.45a8.36,8.36,0,0,0,1.12-2.21l.84.3a9.49,9.49,0,0,1-1.2,2.09l1.19-.07c.17-.27.34-.54.48-.81l.83.36a18.36,18.36,0,0,1-2.22,2.86l1.57-.2c-.11-.21-.21-.39-.32-.57l.65-.26a8.2,8.2,0,0,1,.93,1.89Zm-1.7,3a9.13,9.13,0,0,0-.45-2.39l.72-.18a9.35,9.35,0,0,1,.46,2.34Zm1.57-2.88a8.63,8.63,0,0,1,.78,2.27l-.69.32a9.55,9.55,0,0,0-.74-2.35Z"/>
        <path d="M282.74,984.69a24.46,24.46,0,0,1-.89,4.34,5.29,5.29,0,0,0-1-.36,21.28,21.28,0,0,0,.85-4.14Zm3.56-4.84a29.53,29.53,0,0,1,1.21,3.44l-1,.39c-.06-.25-.15-.56-.22-.86-4,.63-4.55.75-4.9.93a6,6,0,0,0-.37-1.17c.36-.07.75-.52,1.28-1.2a24.94,24.94,0,0,0,1.47-2.11,8.93,8.93,0,0,0-2.48.43c-.08-.25-.26-.84-.38-1.15.29-.07.59-.45,1-1a23.45,23.45,0,0,0,2.31-4.54l1.13.49a28,28,0,0,1-2.72,4.83l1.89-.19a26.49,26.49,0,0,0,1.32-2.48l1,.63a36.2,36.2,0,0,1-3.94,6l3.1-.43c-.2-.58-.44-1.16-.63-1.68Zm-1.8,4.61a26.94,26.94,0,0,1,.5,3.78l-1,.25a35.53,35.53,0,0,0-.44-3.85Zm1.89-.47a27,27,0,0,1,1.06,3.46l-.93.34a27.13,27.13,0,0,0-1-3.5Zm10.52,4c0,.74-.15,1.06-.62,1.28a6.05,6.05,0,0,1-2.27.23,4.55,4.55,0,0,0-.34-1.19c.76,0,1.48,0,1.7,0s.3-.09.3-.34V975.06H289v14.42h-1.21V973.87h9.17Zm-2.9-3a5.36,5.36,0,0,0,1.06-.09c0,.3.07.72.11,1A5.17,5.17,0,0,1,294,986h-2.3c-1.19,0-1.46-.43-1.46-1.62V982.6h-.66v-1.06H292a10.56,10.56,0,0,0-.7-1.58l.83-.33h-2.75v-1.06h3.42a20.3,20.3,0,0,0,.84-3l1,.29c-.27.88-.59,1.9-.88,2.68h1.53v1.06h-3a15.65,15.65,0,0,1,.79,1.62l-.65.29h2.67v1.06h-3.71v1.77c0,.46.05.61.43.61Zm-3.15-9.42a8.76,8.76,0,0,1,1,2.56l-.87.31a9.51,9.51,0,0,0-.93-2.58Z"/>
        <path d="M314.08,975.17a14,14,0,0,1-2.63,4.79,11.93,11.93,0,0,0,4.1,2.64,5.53,5.53,0,0,0-.82,1.1c-.18-.09-.38-.16-.58-.25v5.92h-1.28v-.59h-4.5v.65h-1.24v-6l-1.08.51a4,4,0,0,0-.65-.91h-1.89v3.23c.77-.18,1.56-.36,2.36-.56l.12,1.21c-2.45.59-5,1.2-6.89,1.67l-.26-1.3.92-.19V981h1.14v5.9l1.38-.32v-7.28h-2.52v-5.49h5.82v4.77a13.13,13.13,0,0,0,3.26-5.52l1.28.3c-.18.52-.38,1.05-.58,1.53H313l.24-.05ZM301,978.08h3.39v-3.15H301Zm4.79,4.63a12.67,12.67,0,0,0,4.07-2.81,16.62,16.62,0,0,1-1.66-2.46,13.43,13.43,0,0,1-1.63,2.07,8.1,8.1,0,0,0-.94-.8v.54h-2.07v2.6h2.23Zm7.56.25a13.33,13.33,0,0,1-2.66-2.12,14.15,14.15,0,0,1-2.7,2.12Zm-.43,4.63v-3.46h-4.5v3.46ZM309,976l-.18.34a15,15,0,0,0,1.78,2.71,11.54,11.54,0,0,0,1.84-3Z"/>
        <path d="M322.19,978H317v-1.08h5.15Zm1.42,9.29a24.21,24.21,0,0,1-5.49,2.19,7.78,7.78,0,0,0-1-1,21.52,21.52,0,0,0,5.28-1.73Zm-1.87-12.12h-4.3v-1h4.3Zm-2.34,4.23h11.65v7.22H319.4Zm1.3,2.13h9v-1.23h-9Zm0,2.08h9v-1.22h-9Zm0,2.13h9v-1.26h-9ZM325,975.27a8.9,8.9,0,0,1-1.35,1.8,6.15,6.15,0,0,0-1-.68,7.74,7.74,0,0,0,2.07-3.42l1.21.27c-.11.34-.25.67-.38,1h6l.22-.05.9.3a16.56,16.56,0,0,1-1.52,2.59l-1.06-.37a9.82,9.82,0,0,0,.85-1.43h-2.86v.24a3.19,3.19,0,0,1-.06.59c1,1.08,2.92,1.79,5.28,2a5.06,5.06,0,0,0-.76,1.07,8.7,8.7,0,0,1-4.9-2.11c-.59.88-2,1.71-5.18,2.2a4.8,4.8,0,0,0-.72-1c4.66-.63,5.09-1.85,5.09-2.79v-.18Zm2.7,11.42a49.62,49.62,0,0,1,5.29,1.94l-1.17.78a42.17,42.17,0,0,0-5-2Z"/>
        <path d="M341.49,977.16H335v-1.09h6.47Zm-.67,11.2h-4v.85h-1.08v-6.05h5.09Zm-5.07-8.87v-1.06h5.05v1.06Zm0,1.28h5.09v1.06h-5.09Zm1.06,3.51v3h2.91v-3Zm1.38-8.41a18.09,18.09,0,0,0-1.26-2.4l1-.54a16,16,0,0,1,1.29,2.33ZM349.5,974c-.11,7.28-.14,13.52.87,13.78a8.62,8.62,0,0,0,.3-2.42,5.77,5.77,0,0,0,.78,1c-.2,2.52-.78,3.09-1.61,2.75-1.76-.54-1.71-6.43-1.69-13.81h-3v5.31h2.38v1.24h-2.38v7.58H343.9v-7.58h-2.43v-1.24h2.43v-5.31h-2.23V974Z"/>
        <path d="M368.29,976.21v8.43h-1.37v-1h-5.16v5.83h-1.39v-5.83h-5.15v1.12h-1.31v-8.52h6.46V973h1.39v3.2Zm-7.92,6.09v-4.77h-5.15v4.77Zm6.55,0v-4.77h-5.16v4.77Z"/>
        <path d="M373.89,979.6a36.3,36.3,0,0,1-1.59,7L371,986.1a28,28,0,0,0,1.62-6.76ZM376.8,978v8.88c0,.83.22,1,1.25,1h3.44c1.11,0,1.27-.63,1.42-3.73a4.06,4.06,0,0,0,1.26.6c-.2,3.4-.61,4.39-2.61,4.39h-3.62c-1.95,0-2.49-.49-2.49-2.27V978Zm.38-4.35a33,33,0,0,1,4.85,4l-1,1a33.24,33.24,0,0,0-4.77-4.09Zm7.83,5.24a32,32,0,0,1,2.42,6.75l-1.32.52a32.28,32.28,0,0,0-2.34-6.79Z"/>
      </g>
    </g>
    <line class="cls-3" x1="180.41" y1="944.85" x2="219.21" y2="944.85"/>
    <rect class="cls-1" x="223.68" y="1022.3" width="10.83" height="30" rx="5" transform="translate(458.19 2074.6) rotate(-180)"/>
    <g>
      <path d="M260.51,1029.94v15.63h-1.33v-.79H246.9v.79h-1.28v-15.63Zm-1.33,13.62v-12.37H246.9v12.37Zm-6-2.72-5.26,1-.23-1,5.4-.9Zm4.41-5.26a13.82,13.82,0,0,1-2,4.37c.4,1,.85,1.59,1.41,1.68.23,0,.41-.69.52-1.84a3.26,3.26,0,0,0,.9.61c-.22,1.93-.79,2.63-1.77,2.33a2.9,2.9,0,0,1-1.83-1.77,11.09,11.09,0,0,1-2.42,2.11,6.28,6.28,0,0,0-.79-.86,9.49,9.49,0,0,0,2.76-2.4,27.86,27.86,0,0,1-1-5.26h-5.53v-1h5.42c-.06-.63-.11-1.28-.15-1.93h1.16c0,.65.07,1.3.12,1.93h3.85v1h-3.76a30,30,0,0,0,.67,4.07,12.49,12.49,0,0,0,1.31-3.26Zm-5.08.07v3.53h-4v-3.53Zm-1,.85h-2.09v1.85h2.09Zm5.69-3.14a6.84,6.84,0,0,0-1.91-1.29l.63-.69a7.2,7.2,0,0,1,1.93,1.23Z"/>
      <path d="M277.39,1036.39a33.1,33.1,0,0,1-2.77,2,8.56,8.56,0,0,0,4.79,5.28,4.6,4.6,0,0,0-.86,1.1,9.83,9.83,0,0,1-5-5.71,9.41,9.41,0,0,1-.85.5c.61,2.33.16,4.54-.81,5.3a2.5,2.5,0,0,1-1.84.63c-.41,0-1,0-1.55,0a2.9,2.9,0,0,0-.34-1.26c.65.06,1.24.09,1.62.09a1.45,1.45,0,0,0,1.15-.38c.55-.39.87-1.63.71-3.09a27,27,0,0,1-7.71,3.85,5.16,5.16,0,0,0-.7-1.13,20.69,20.69,0,0,0,8.16-4,7.6,7.6,0,0,0-.49-1.26,28.23,28.23,0,0,1-6.68,3.14,5.13,5.13,0,0,0-.69-1,21.83,21.83,0,0,0,6.83-3,6,6,0,0,0-.87-1.06,26.77,26.77,0,0,1-5.18,2.13,6.43,6.43,0,0,0-.74-1.07,20.34,20.34,0,0,0,6.43-2.61h-4.11v-1.17h10.36v1.17h-4.47a10.68,10.68,0,0,1-1.28,1,8.15,8.15,0,0,1,1.84,2.75,30.7,30.7,0,0,0,3.92-3Zm-12.42-2h-1.3v-3.69h6.75a11.44,11.44,0,0,0-.66-1.31l1.37-.4a10.66,10.66,0,0,1,.88,1.71h6.64v3.69H277.3v-2.45H265Z"/>
      <path d="M286.19,1034.05H281V1033h5.15Zm1.42,9.29a24.69,24.69,0,0,1-5.49,2.2,7.85,7.85,0,0,0-1-1,21.52,21.52,0,0,0,5.28-1.73Zm-1.87-12.12h-4.3v-1h4.3Zm-2.34,4.23h11.65v7.22H283.4Zm1.3,2.13h9v-1.23h-9Zm0,2.09h9v-1.23h-9Zm0,2.12h9v-1.26h-9Zm4.32-10.42a9.5,9.5,0,0,1-1.35,1.8,6.19,6.19,0,0,0-1-.69,7.63,7.63,0,0,0,2.07-3.42l1.21.27c-.11.34-.25.67-.38,1h6l.22,0,.9.3a16.69,16.69,0,0,1-1.52,2.6l-1.06-.38a10.24,10.24,0,0,0,.85-1.42h-2.86v.23a3.19,3.19,0,0,1-.06.59c1,1.08,2.92,1.79,5.28,2a4.76,4.76,0,0,0-.76,1.06,8.7,8.7,0,0,1-4.9-2.11c-.59.88-2,1.71-5.18,2.2a4.49,4.49,0,0,0-.72-1c4.66-.63,5.09-1.86,5.09-2.79v-.18Zm2.7,11.41a49.44,49.44,0,0,1,5.29,2l-1.17.77a42.17,42.17,0,0,0-5-2Z"/>
      <path d="M303.31,1037.7a22,22,0,0,1-1.49,4.65c.36.2.77.54,1.45.94,1.26.77,2.9.9,5,.9,2.32,0,5.22-.18,7.24-.38a4.84,4.84,0,0,0-.4,1.38c-1.35.09-4.75.2-6.9.2-2.36,0-3.94-.2-5.25-1-.72-.43-1.41-1-1.8-1s-1,1.13-1.52,2.27l-.93-1.21a7.74,7.74,0,0,1,1.8-2,15.39,15.39,0,0,0,1.28-3.74h-2.35c.49-1.07,1.07-2.6,1.55-4h-2v-1.21h3.69c-.43,1.3-1,2.81-1.48,4.06h1.24l.22-.06Zm-2.45-5.2c-.2-.77-.61-2-.92-3l1.19-.34c.33.93.72,2.12,1,2.89Zm5.08,10.37h-1.28v-9.27h5.15c-1.08-.52-2.36-1.1-3.44-1.5l.85-.73c.77.25,1.65.61,2.5,1a15.6,15.6,0,0,0,2.47-1.42h-7.51v-1.07h8.78l.28-.07.81.63a15,15,0,0,1-3.64,2.47c.52.27,1,.5,1.38.72h2.27v7.92c0,.67-.14,1-.61,1.17a7.15,7.15,0,0,1-2.43.22,4.3,4.3,0,0,0-.36-1.12c.85,0,1.6,0,1.82,0s.31-.07.31-.31v-1.64h-3.14v2.94H309v-2.94h-3Zm0-8.24v1.58h3v-1.58Zm3,4.21v-1.64h-3v1.64Zm4.34-4.21h-3.14v1.58h3.14Zm0,4.21v-1.64h-3.14v1.64Z"/>
      <path d="M329.23,1037.6a10.89,10.89,0,0,1-2.1,4,37.81,37.81,0,0,1,5.52,2.81l-1,1.17a37,37,0,0,0-5.59-2.94c-1.81,1.53-4.34,2.41-7.7,3a5.73,5.73,0,0,0-.85-1.33c3.1-.4,5.42-1.08,7.09-2.29-1.67-.7-3.42-1.33-5-1.83.52-.71,1.1-1.59,1.67-2.54h-3.91v-1.28H322a26,26,0,0,0,1.5-3.14l1.49.27a28.12,28.12,0,0,1-1.35,2.87H328c.12-.56.23-1.15.32-1.78l1.57.14c-.09.58-.2,1.13-.33,1.64h3.3v1.28Zm-10.06-2.81h-1.34v-3.6h6.7c-.25-.58-.57-1.28-.88-1.84l1.42-.36c.38.68.85,1.57,1.12,2.2h6.19v3.6H331v-2.36H319.17Zm3.76,2.81c-.41.7-.81,1.35-1.21,1.92,1.3.42,2.67.94,4,1.46a9,9,0,0,0,1.94-3.38Z"/>
      <path d="M343.81,1029.62a18.58,18.58,0,0,0,7.64,6.14,5.06,5.06,0,0,0-1,1.13,21.94,21.94,0,0,1-7.37-6,27.45,27.45,0,0,1-7.49,6.21,4.61,4.61,0,0,0-.81-1.13,22.93,22.93,0,0,0,6.75-5.1h-3.2v-1.26Zm-.07,14.22h6.95v1.23H335.53v-1.23h6.82v-3h-5v-1.19h5v-2.74h-4.26v-1.2h10v1.2h-4.36v2.74h5.09v1.19h-5.09Z"/>
      <path d="M353.08,1030.09h6.3v1.22h-2.79a33.71,33.71,0,0,1-1.12,4.27h3.59v7.71h-3.62v1.44H354.3v-6.5a10.08,10.08,0,0,1-.95,1.45,6.9,6.9,0,0,0-.6-1.42,16.83,16.83,0,0,0,2.58-7h-2.25Zm4.79,6.68h-2.43v5.31h2.43Zm11.47,1h-2v7.75H366v-7.75h-2.93c0,2.74-.52,5.73-2.56,7.84a4.38,4.38,0,0,0-1-.78c1.84-1.92,2.24-4.64,2.29-7.06h-2v-1.27h2v-5.17h-1.48v-1.26H369v1.26H367.3v5.17h2Zm-3.32-1.27v-5.17h-2.91v5.17Z"/>
      <path d="M385.46,1043.86c.55,0,.64-.34.69-2.68a4,4,0,0,0,1.28.59c-.15,2.74-.52,3.41-1.82,3.41h-2.07c-1.42,0-1.84-.42-1.84-1.88v-3.54h-3.08c-.32,2.14-1.74,4.44-6.73,5.87a5.55,5.55,0,0,0-.92-1.14c4.43-1.22,5.83-3.08,6.21-4.73h-5v-1.25h5.15v-2.19h1.38v2.19h4.38v4.78c0,.48.09.57.63.57Zm-12.58-9.76h-1.32v-3.24h7c-.16-.5-.36-1.08-.56-1.55l1.35-.23c.24.54.52,1.24.72,1.78h6.74v3.08h-1.39v-1.85h-3.69v3c0,.46.07.64.52.64H385a8.49,8.49,0,0,0,1.37-.1c0,.34.07.81.1,1.13a7.78,7.78,0,0,1-1.42.07h-2.86c-1.44,0-1.77-.47-1.77-1.76v-3h-2.66c-.36,2.7-1.48,4.16-5.29,4.93a4.18,4.18,0,0,0-.72-1.1c3.42-.59,4.3-1.67,4.6-3.83h-3.47Z"/>
      <path d="M394.73,1030.3c-.54,1.48-1.19,3.23-1.8,4.67a5.55,5.55,0,0,1,1.62,3.89,2.51,2.51,0,0,1-.7,2.08,1.81,1.81,0,0,1-.94.35,6.8,6.8,0,0,1-1.2,0,2.78,2.78,0,0,0-.34-1.18,5.21,5.21,0,0,0,1,0,1,1,0,0,0,.56-.16,1.55,1.55,0,0,0,.38-1.26,5.33,5.33,0,0,0-1.61-3.62c.51-1.3,1.05-2.84,1.43-4h-2.38v14.46h-1.21v-15.68h4.07l.22-.06Zm9.08,13.87c.39,0,.47-.31.5-2.27a3,3,0,0,0,1.15.49c-.1,2.34-.45,2.93-1.53,2.93h-1.58c-1.26,0-1.55-.38-1.55-1.66V1039h-1.89c-.31,3.29-1.17,5.4-4.57,6.59a4.25,4.25,0,0,0-.78-1.07c3.1-1,3.82-2.73,4.05-5.52h-2.5v-1.23h10.14V1039h-3.19v4.7c0,.45.07.52.47.52Zm-7.53-9.69H395v-3.13h4.57a9.54,9.54,0,0,0-1-2l1.21-.4a13.08,13.08,0,0,1,1.17,2.23l-.38.15h4.48v3.13h-1.28v-2h-7.56Zm.2,1.23v-1.19h7.18v1.19Z"/>
    </g>
  </g>
</svg>
