<svg width="487" height="289" viewBox="0 0 487 289" fill="none" xmlns="http://www.w3.org/2000/svg">
<g clip-path="url(#clip0_2266_17060)">
<path d="M434.946 71.7071C433.907 75.0413 432.158 77.9929 429.862 80.5072C429.48 80.8898 428.933 80.9445 428.496 80.7258L424.56 78.4848C422.921 79.9059 421.008 80.9991 418.93 81.7097V86.2464C418.93 86.7383 418.548 87.2302 418.056 87.2849C414.831 88.0501 411.333 88.0501 407.944 87.2849C407.452 87.1756 407.07 86.7383 407.07 86.2464V81.655C404.992 80.8898 403.079 79.8513 401.44 78.4302L397.504 80.6712C397.067 80.9445 396.466 80.8351 396.138 80.4525C393.842 77.9382 392.093 74.9866 391.054 71.6525C390.89 71.1605 391.109 70.6139 391.546 70.3406L395.482 68.0996C395.045 65.9133 395.045 63.7816 395.482 61.5952L391.546 59.3542C391.109 59.0809 390.89 58.589 391.054 58.0424C392.093 54.7629 393.842 51.7566 396.138 49.2423C396.52 48.8597 397.067 48.805 397.504 49.0237L401.44 51.2647C403.079 49.8436 404.992 48.7504 407.07 48.0398V43.6124C407.07 43.1205 407.452 42.6286 407.944 42.5739C411.169 41.8087 414.667 41.8087 418.056 42.5739C418.548 42.6832 418.93 43.1205 418.93 43.6124V48.1491C421.008 48.9144 422.921 49.9529 424.56 51.374L428.496 49.133C428.933 48.8597 429.534 48.969 429.862 49.3516C432.158 51.8659 433.907 54.8175 434.946 58.1517C435.11 58.6436 434.891 59.1902 434.454 59.4635L430.518 61.7045C430.955 63.8909 430.955 66.0226 430.518 68.2089L434.454 70.45C434.836 70.7233 435.055 71.2152 434.946 71.7071ZM420.406 64.9294C420.406 60.8847 417.072 57.5505 413.027 57.5505C408.983 57.5505 405.648 60.8847 405.648 64.9294C405.648 68.9742 408.983 72.3084 413.027 72.3084C417.072 72.3084 420.406 68.9742 420.406 64.9294Z" fill="#4F5DC3"/>
<path d="M28.6346 62.5023C28.0477 64.4232 27.0338 66.1841 25.6464 67.6249C25.433 67.8383 25.1128 67.8917 24.846 67.7849L22.5515 66.4509C21.591 67.3047 20.4705 67.945 19.2432 68.3186V70.9866C19.2432 71.3067 19.0297 71.5735 18.7096 71.6269C16.842 72.0538 14.8143 72.0538 12.7866 71.6269C12.4664 71.5735 12.253 71.3067 12.253 70.9866V68.3186C11.0257 67.8917 9.95848 67.2513 8.94464 66.4509L6.65014 67.7849C6.38334 67.945 6.06318 67.8917 5.84973 67.6249C4.51573 66.1841 3.50188 64.4232 2.86155 62.5023C2.75483 62.1821 2.91491 61.9153 3.18172 61.7552L5.47621 60.4212C5.20941 59.1406 5.20941 57.9133 5.47621 56.6326L3.18172 55.2986C3.02163 55.1919 2.91491 54.8717 3.02163 54.5516C3.6086 52.6306 4.62245 50.8697 6.00982 49.429C6.22326 49.2155 6.54342 49.1622 6.81022 49.2689L9.10472 50.6029C10.0652 49.7491 11.1858 49.1088 12.4131 48.7353V46.1206C12.4131 45.8005 12.6265 45.5337 12.9467 45.4803C14.8143 45.0534 16.842 45.0534 18.8697 45.4803C19.1898 45.5337 19.4033 45.8005 19.4033 46.1206V48.7353C20.6306 49.1622 21.6978 49.8025 22.7116 50.6029L25.0061 49.2689C25.2729 49.1088 25.5931 49.1622 25.8065 49.429C27.1405 50.8697 28.1544 52.6306 28.7947 54.5516C28.9014 54.8717 28.7413 55.1385 28.4745 55.2986L26.18 56.6326C26.4468 57.9133 26.4468 59.1406 26.18 60.4212L28.4745 61.7552C28.5813 61.9153 28.688 62.2355 28.6346 62.5023ZM20.1503 58.5536C20.1503 56.2058 18.2293 54.2314 15.8281 54.2314C13.4269 54.2314 11.5059 56.1524 11.5059 58.5536C11.5059 60.9548 13.4269 62.8758 15.8281 62.8758C18.2293 62.8758 20.1503 60.9548 20.1503 58.5536Z" fill="white"/>
<path d="M52.4859 252.763C51.8639 254.94 50.6976 256.806 49.2203 258.439C48.987 258.673 48.5982 258.75 48.2872 258.595L45.7213 257.117C44.6328 258.05 43.3887 258.75 42.0669 259.217V262.171C42.0669 262.482 41.8337 262.793 41.5226 262.871C39.4233 263.338 37.1684 263.338 34.9913 262.871C34.6803 262.793 34.4471 262.482 34.4471 262.171V259.217C33.1252 258.75 31.8812 258.05 30.7926 257.117L28.2267 258.595C27.9157 258.75 27.6047 258.75 27.2937 258.439C25.8164 256.806 24.6501 254.94 24.028 252.763C23.9503 252.452 24.028 252.141 24.3391 251.908L26.9049 250.431C26.6717 249.031 26.6717 247.631 26.9049 246.232L24.3391 244.755C24.028 244.599 23.9503 244.21 24.028 243.899C24.6501 241.8 25.8164 239.856 27.2937 238.223C27.527 237.99 27.9157 237.912 28.2267 238.068L30.7926 239.545C31.8812 238.612 33.1252 237.912 34.4471 237.446V234.491C34.4471 234.18 34.6803 233.869 34.9913 233.791C37.0907 233.325 39.3455 233.325 41.5226 233.791C41.8337 233.869 42.0669 234.18 42.0669 234.491V237.446C43.3887 237.912 44.6328 238.612 45.7213 239.545L48.2872 238.068C48.5982 237.912 48.9093 237.912 49.2203 238.223C50.6976 239.856 51.8639 241.722 52.4859 243.899C52.5637 244.21 52.4859 244.521 52.1749 244.755L49.609 246.232C49.8423 247.631 49.8423 249.031 49.609 250.431L52.1749 251.908C52.4082 252.063 52.5637 252.452 52.4859 252.763ZM43.0777 248.331C43.0777 245.688 40.9006 243.511 38.257 243.511C35.6134 243.511 33.4363 245.688 33.4363 248.331C33.4363 250.975 35.6134 253.152 38.257 253.152C40.9006 253.152 43.0777 250.975 43.0777 248.331Z" fill="#C4CEE7"/>
<path d="M36.2141 170.981C35.4296 173.566 34.0913 175.827 32.2915 177.765C32.0146 178.042 31.5993 178.134 31.2301 177.95L28.1843 176.196C26.8921 177.304 25.4615 178.134 23.8463 178.688V182.195C23.8463 182.565 23.5694 182.934 23.154 183.026C20.662 183.58 17.9854 183.58 15.3549 183.026C14.9857 182.934 14.6627 182.611 14.6627 182.195V178.688C13.0475 178.134 11.6169 177.304 10.3247 176.196L7.27891 177.95C6.90972 178.18 6.49438 178.088 6.21749 177.765C4.41769 175.827 3.12553 173.566 2.29485 170.981C2.20255 170.612 2.341 170.197 2.66404 169.966L5.70985 168.212C5.38681 166.551 5.38681 164.844 5.70985 163.182L2.66404 161.429C2.29485 161.198 2.1564 160.829 2.29485 160.413C3.07938 157.875 4.41769 155.568 6.21749 153.629C6.49438 153.353 6.90972 153.26 7.27891 153.445L10.3247 155.198C11.6169 154.091 13.0475 153.26 14.6627 152.706V149.199C14.6627 148.83 14.9396 148.461 15.3549 148.368C17.8469 147.815 20.5236 147.815 23.154 148.368C23.5232 148.461 23.8463 148.784 23.8463 149.199V152.706C25.4615 153.26 26.8921 154.091 28.1843 155.198L31.2301 153.445C31.5993 153.214 32.0146 153.306 32.2915 153.629C34.0913 155.568 35.3834 157.829 36.2141 160.413C36.3064 160.782 36.168 161.198 35.8449 161.429L32.7991 163.182C33.1222 164.844 33.1222 166.551 32.7991 168.212L35.8449 169.966C36.1218 170.197 36.3064 170.566 36.2141 170.981ZM24.9538 165.72C24.9538 162.582 22.3695 159.998 19.2314 159.998C16.0933 159.998 13.509 162.582 13.509 165.72C13.509 168.858 16.0933 171.443 19.2314 171.443C22.3695 171.443 24.9538 168.858 24.9538 165.72Z" stroke="#4F5DC3" stroke-width="2" stroke-miterlimit="10"/>
<path d="M371.272 197.715C370.728 199.503 369.795 201.136 368.473 202.536C368.24 202.769 368.006 202.769 367.695 202.691L365.518 201.447C364.585 202.225 363.574 202.847 362.408 203.236V205.724C362.408 206.035 362.175 206.268 361.942 206.268C360.153 206.657 358.287 206.657 356.421 206.268C356.11 206.19 355.954 205.957 355.954 205.724V203.236C354.788 202.847 353.777 202.225 352.844 201.447L350.667 202.691C350.434 202.847 350.123 202.769 349.89 202.536C348.646 201.214 347.713 199.581 347.091 197.715C347.013 197.404 347.091 197.171 347.402 197.015L349.579 195.771C349.345 194.605 349.345 193.439 349.579 192.195L347.402 190.951C347.168 190.795 347.013 190.484 347.091 190.251C347.635 188.462 348.568 186.83 349.89 185.43C350.123 185.197 350.356 185.197 350.667 185.274L352.844 186.519C353.777 185.741 354.788 185.119 355.954 184.73V182.242C355.954 181.931 356.188 181.698 356.421 181.698C358.209 181.309 360.075 181.309 361.942 181.698C362.253 181.776 362.408 182.009 362.408 182.242V184.73C363.574 185.119 364.585 185.741 365.518 186.519L367.695 185.274C367.929 185.119 368.24 185.197 368.473 185.43C369.717 186.752 370.65 188.385 371.272 190.251C371.35 190.562 371.272 190.795 370.961 190.951L368.784 192.195C369.017 193.361 369.017 194.527 368.784 195.771L370.961 197.015C371.194 197.171 371.35 197.404 371.272 197.715ZM363.341 193.983C363.341 191.728 361.553 189.94 359.298 189.94C357.043 189.94 355.255 191.728 355.255 193.983C355.255 196.238 357.043 198.026 359.298 198.026C361.553 198.026 363.341 196.238 363.341 193.983Z" fill="white"/>
<path d="M451.442 221.039L452.141 229.125C452.219 230.136 452.841 231.225 453.774 231.769L460.694 235.734C463.027 237.134 462.871 240.633 460.306 241.721L452.919 244.831C451.908 245.22 451.208 246.153 450.897 247.242L449.187 255.095C448.643 257.739 445.221 258.672 443.433 256.65L438.224 250.585C437.524 249.73 436.435 249.341 435.347 249.419L427.416 250.274C424.694 250.585 422.751 247.631 424.228 245.22L428.427 238.378C428.971 237.445 429.126 236.279 428.582 235.268L425.239 227.959C424.072 225.393 426.405 222.749 429.049 223.371L436.824 225.238C437.835 225.549 439.001 225.238 439.856 224.46L445.843 219.017C447.943 217.073 451.131 218.395 451.442 221.039Z" stroke="white" stroke-width="3" stroke-miterlimit="10"/>
<path d="M195.395 228.583L134.047 79.8398L353.002 82.0947L289.943 226.483L195.395 228.583Z" fill="url(#paint0_linear_2266_17060)"/>
<path d="M297.014 260.382H186.682C185.127 260.382 183.805 259.138 183.805 257.505V220.572C183.805 219.017 185.049 217.695 186.682 217.695H297.014C298.569 217.695 299.891 218.939 299.891 220.572V257.505C299.813 259.06 298.569 260.382 297.014 260.382Z" fill="#C8CFE6"/>
<path d="M196.25 217.695V260.382" stroke="#E7EBF8" stroke-miterlimit="10"/>
<path d="M215.766 217.695V260.382" stroke="#E7EBF8" stroke-miterlimit="10"/>
<path d="M237.844 217.695V260.382" stroke="#E7EBF8" stroke-miterlimit="10"/>
<path d="M258.062 217.695V260.382" stroke="#E7EBF8" stroke-miterlimit="10"/>
<path d="M276.414 217.695V260.382" stroke="#E7EBF8" stroke-miterlimit="10"/>
<path d="M291.492 217.695V260.382" stroke="#E7EBF8" stroke-miterlimit="10"/>
<path d="M317.775 287.675H165.922C164.134 287.675 162.734 286.276 162.734 284.488V251.52C162.734 249.732 164.134 248.332 165.922 248.332H317.853C319.641 248.332 321.041 249.732 321.041 251.52V284.488C321.041 286.276 319.564 287.675 317.775 287.675Z" fill="#4F5DC3"/>
<path d="M381.768 288.295H101.932C100.455 288.295 99.2109 287.051 99.2109 285.574V275.155C99.2109 273.678 100.455 272.434 101.932 272.434H381.768C383.246 272.434 384.49 273.678 384.49 275.155V285.574C384.49 287.051 383.246 288.295 381.768 288.295Z" fill="#4F5DC3"/>
<path d="M181.006 268.003C183.969 268.003 186.371 265.601 186.371 262.638C186.371 259.675 183.969 257.273 181.006 257.273C178.043 257.273 175.641 259.675 175.641 262.638C175.641 265.601 178.043 268.003 181.006 268.003Z" stroke="#E7EBF8" stroke-miterlimit="10"/>
<path d="M206.045 268.003C209.008 268.003 211.41 265.601 211.41 262.638C211.41 259.675 209.008 257.273 206.045 257.273C203.082 257.273 200.68 259.675 200.68 262.638C200.68 265.601 203.082 268.003 206.045 268.003Z" stroke="#E7EBF8" stroke-miterlimit="10"/>
<path d="M231.006 268.003C233.969 268.003 236.371 265.601 236.371 262.638C236.371 259.675 233.969 257.273 231.006 257.273C228.043 257.273 225.641 259.675 225.641 262.638C225.641 265.601 228.043 268.003 231.006 268.003Z" stroke="#E7EBF8" stroke-miterlimit="10"/>
<path d="M256.037 268.003C259 268.003 261.402 265.601 261.402 262.638C261.402 259.675 259 257.273 256.037 257.273C253.074 257.273 250.672 259.675 250.672 262.638C250.672 265.601 253.074 268.003 256.037 268.003Z" stroke="#E7EBF8" stroke-miterlimit="10"/>
<path d="M281.076 268.003C284.039 268.003 286.441 265.601 286.441 262.638C286.441 259.675 284.039 257.273 281.076 257.273C278.113 257.273 275.711 259.675 275.711 262.638C275.711 265.601 278.113 268.003 281.076 268.003Z" stroke="#E7EBF8" stroke-miterlimit="10"/>
<path d="M306.115 268.003C309.078 268.003 311.48 265.601 311.48 262.638C311.48 259.675 309.078 257.273 306.115 257.273C303.152 257.273 300.75 259.675 300.75 262.638C300.75 265.601 303.152 268.003 306.115 268.003Z" stroke="#E7EBF8" stroke-miterlimit="10"/>
<path d="M236.247 201.015C247.387 202.347 257.289 196.138 258.364 187.147C259.44 178.156 251.28 169.787 240.14 168.455C229 167.123 219.097 173.332 218.022 182.323C216.947 191.314 225.106 199.683 236.247 201.015Z" fill="#282828"/>
<path d="M241.889 151.103C278.204 155.446 311.164 129.527 315.507 93.2113C319.849 56.8958 293.93 23.9359 257.614 19.5934C221.299 15.2508 188.339 41.17 183.996 77.4855C179.654 113.801 205.573 146.761 241.889 151.103Z" fill="#FFCB44"/>
<path d="M261.025 174.981L217.267 169.748L218.164 118.465L272.642 124.979L261.025 174.981Z" fill="#FFCB44"/>
<path d="M258.179 188.656L217.122 183.747C215.931 183.604 214.943 182.439 214.736 180.803L212.413 163.851C212.091 161.155 213.764 158.616 215.749 158.854L264.986 164.741C266.971 164.979 268.008 167.761 267.059 170.305L261.202 186.279C260.615 187.82 259.45 188.808 258.179 188.656Z" fill="#4F5DC3"/>
<path d="M214.164 164.059L265.545 170.203" stroke="#E7EBF8" stroke-miterlimit="10"/>
<path d="M214.375 171.012L263.612 176.899" stroke="#E7EBF8" stroke-miterlimit="10"/>
<path d="M216.406 178.262L260.005 183.475" stroke="#E7EBF8" stroke-miterlimit="10"/>
<path d="M252.898 121.005C254.227 122.694 254.714 124.686 254.41 127.227C254.115 129.689 253.163 131.589 251.474 132.917C249.705 134.236 247.714 134.723 245.173 134.419C242.631 134.115 240.811 133.173 239.482 131.483C238.075 129.785 237.588 127.793 237.892 125.252C238.186 122.79 239.138 120.89 240.907 119.571C242.596 118.243 244.588 117.756 247.129 118.06C249.67 118.364 251.57 119.316 252.898 121.005ZM251.456 112.858L244.229 111.994L245.712 64.5665L261.277 66.4277L251.456 112.858Z" fill="white"/>
<path opacity="0.68" d="M300.721 75.4148C294.143 84.6164 288.631 66.7196 273.722 55.9959C258.814 45.2722 240.147 45.7786 246.724 36.577C253.302 27.3754 270.709 28.6514 285.618 39.3751C300.516 50.1783 307.289 66.2926 300.721 75.4148Z" fill="white"/>
<path d="M442.041 136.441H431V159.768H442.041V136.441Z" fill="white"/>
<path d="M461.166 129.133H450.125V159.768H461.166V129.133Z" fill="white"/>
<path d="M480.377 121.902H469.336V159.768H480.377V121.902Z" fill="white"/>
<path d="M86.8195 130.412C86.8195 124.059 91.9998 118.78 98.4509 118.78V110.863C87.6991 110.863 79 119.562 79 130.314C79 135.886 81.3458 140.87 85.0601 144.487L90.6314 138.916C88.3833 136.863 86.8195 133.833 86.8195 130.412Z" fill="white"/>
<path d="M98.4531 110.961V118.878C104.806 118.878 110.085 124.059 110.085 130.51H118.002C117.904 119.66 109.205 110.961 98.4531 110.961Z" fill="#4F5DC3"/>
<path d="M98.4533 142.046C95.4233 142.046 92.6865 140.873 90.6339 139.015L85.0625 144.587C88.5813 147.91 93.2729 149.865 98.4533 149.865C109.205 149.865 117.904 141.166 117.904 130.414H109.987C109.987 136.865 104.807 142.046 98.4533 142.046Z" fill="#C4CEE7"/>
<path d="M114.846 222.751C113.291 222.751 112.047 221.507 112.047 219.952V197.948C112.047 196.392 113.291 195.148 114.846 195.148C116.401 195.148 117.645 196.392 117.645 197.948V219.952C117.723 221.429 116.401 222.751 114.846 222.751Z" fill="white"/>
<path d="M123.862 218.708C122.307 218.708 121.062 217.464 121.062 215.908V201.991C121.062 200.435 122.307 199.191 123.862 199.191C125.417 199.191 126.661 200.435 126.661 201.991V215.908C126.661 217.386 125.417 218.708 123.862 218.708Z" fill="white"/>
<path d="M133.352 215.128H132.419C131.097 215.128 130.086 214.04 130.086 212.795V205.02C130.086 203.698 131.174 202.688 132.419 202.688H133.352C134.673 202.688 135.684 203.776 135.684 205.02V212.795C135.684 214.04 134.596 215.128 133.352 215.128Z" fill="white"/>
<path d="M114.844 189.938V227.104" stroke="white" stroke-miterlimit="10"/>
<path d="M123.867 195.07V222.751" stroke="white" stroke-miterlimit="10"/>
<path d="M132.805 198.566V218.705" stroke="white" stroke-miterlimit="10"/>
</g>
<defs>
<linearGradient id="paint0_linear_2266_17060" x1="243.531" y1="80.6714" x2="241.594" y2="229.179" gradientUnits="userSpaceOnUse">
<stop stop-color="white" stop-opacity="0"/>
<stop offset="1" stop-color="white"/>
</linearGradient>
<clipPath id="clip0_2266_17060">
<rect width="486.272" height="288" fill="white" transform="translate(0 0.296875)"/>
</clipPath>
</defs>
</svg>
