<svg width="52" height="40" viewBox="0 0 52 40" fill="none" xmlns="http://www.w3.org/2000/svg">
<path d="M22.4386 29C30.179 29 34.4363 22.049 34.4363 16.0284C34.4363 15.8317 34.4363 15.635 34.4363 15.4384C35.2656 14.7938 35.9806 13.9945 36.5473 13.0785C35.7802 13.4594 34.9642 13.7144 34.1267 13.8349C35.0058 13.2625 35.663 12.3681 35.9773 11.3162C35.151 11.8453 34.2467 12.2188 33.3034 12.4205C32.7228 11.7605 31.9714 11.3029 31.1463 11.1069C30.3212 10.9109 29.4604 10.9856 28.6751 11.3212C27.8899 11.6569 27.2165 12.2381 26.7419 12.9896C26.2674 13.7411 26.0136 14.6284 26.0133 15.5367C26.0128 15.8877 26.0482 16.2378 26.1188 16.5805C24.4338 16.4856 22.7864 16.0086 21.285 15.1809C19.7836 14.3531 18.4621 13.1933 17.4073 11.7776C16.8688 12.776 16.7044 13.9574 16.9476 15.0815C17.1907 16.2056 17.8231 17.1879 18.7162 17.8285C18.0473 17.8074 17.3931 17.6127 16.8092 17.2612C16.8058 17.2812 16.8058 17.3017 16.8092 17.3217C16.8045 18.3729 17.1393 19.3932 17.7566 20.2085C18.3739 21.0237 19.2354 21.5834 20.1939 21.7918C19.8311 21.8953 19.4575 21.9487 19.0821 21.9507C18.8208 21.9586 18.5593 21.9409 18.301 21.8977C18.5671 22.8025 19.0904 23.5948 19.7973 24.1633C20.5041 24.7318 21.359 25.0478 22.2416 25.0669C20.7494 26.3291 18.9051 27.0139 17.0063 27.0108C16.67 27.0134 16.3339 26.9932 16 26.9503C17.9241 28.2891 20.1676 29.001 22.4597 29" fill="white"/>
</svg>
