<?xml version="1.0" encoding="UTF-8"?>
<svg id="_層_1" data-name="圖層 1" xmlns="http://www.w3.org/2000/svg" width="246" height="246" viewBox="0 0 246 246">
  <defs>
    <style>
      .cls-1 {
        fill: #fff;
      }
    </style>
  </defs>
  <path class="cls-1" d="M82.7,122.96c0-12.05,9.81-21.86,21.86-21.86l8.39-.02v-14.69c-6.71-.04-8.59-.45-15.49,.83-.07,.01-.14,.04-.21,.04-16.61,3.39-29.14,18.11-29.14,35.7,0,20.1,16.38,36.64,36.47,36.64h36.83V86.39h-14.24v58.52l-22.63-.09c-12.05,0-21.86-9.81-21.86-21.86Z"/>
  <path class="cls-1" d="M96.65,123.36c0,4.67,3.49,7.77,8.17,7.77h8.13v-16.27h-7.81c-4.67,0-8.49,3.82-8.49,8.49Z"/>
  <rect class="cls-1" x="149.44" y="112.83" width="16.39" height="46.88"/>
  <polygon class="cls-1" points="149.59 86.38 163.8 86.38 163.8 90.5 153.63 90.5 153.63 98.59 163.8 98.59 163.8 102.63 149.59 102.63 149.59 86.38"/>
  <polygon class="cls-1" points="169.88 92.37 155.67 92.37 155.67 96.48 165.84 96.48 165.84 104.58 155.67 104.58 155.67 108.62 169.88 108.62 169.88 92.37"/>
</svg>