<svg id="圖層_1" data-name="圖層 1" xmlns="http://www.w3.org/2000/svg" width="246" height="246" viewBox="0 0 246 246">
  <defs>
    <style>
      .cls-1 {
        fill: #fff;
      }
    </style>
  </defs>
  <g>
    <path class="cls-1" d="M105.72,128.84a9.53,9.53,0,0,0-1.11-1.86c-.25-.61-1-.61-1.12-1.11-.62-.62-1.48-.87-2.1-1.49-.37.13-.62-.61-.87-.24-.37-.62-1-.62-1.36-1.12-.74.13-1.36-.86-2.1-.62-.5-1.11-2.11-.74-2.6-1.85a7.6,7.6,0,0,1-2.36-1.36c-.49-.13-.74-.75-1.23-.87-1.24-1.36-2.48-3.1-3.84-4.46-1.11-.37-1.73-1.73-2.73-2.35-.37-.12-.61-.62-1-.62-1.49-1.61-3.47-2.35-5.2-3.46l-.13.12c0-.37-.37-.49-.62-.62-.86-1-2.47-.49-3-1.86.37-1.36,1.49-2.47,2.23-3.59.62-.74,1.24-1.36,1.73-2,.13-.61-.24-1-.37-1.48-.37-.12-.24.25-.49.25s0-.25,0-.37c-.25-.5-.87-.5-1.24-.62-.37.24-1,.24-1.36.74A1.72,1.72,0,0,0,75,99.13c-.25.62,0,1.49-.62,1.86a31.15,31.15,0,0,1-2.35,4.08,2,2,0,0,0-.87-.49c-.49.49-1.11-.25-1.73,0,.5.25.87.74,1.49.74a1.38,1.38,0,0,1,.37.87c-1.24,1.61-2,3.46-3.22,5a5.13,5.13,0,0,1-1.24,1.49c-1,1.6-2.6,3.09-3.46,5-.75.37-1,1.48-1.74,1.85a3.63,3.63,0,0,1-1.48,1.86c-.25.87-1.24,1.49-1.86,2.23,0,.49-.25.62-.62.86-.24.62-1.11,1.12-1.24,1.86-.49.62-1.23,1.12-1.23,1.73-.75.5-.87,1.37-1.61,1.61.12,0,0,.13,0,.25-.87.62-1.49,1.73-2.48,2.35a5.81,5.81,0,0,1-4,2.36,6.63,6.63,0,0,0-1.48-.5c-.13,1-.87,2-.13,3,.62.74,1.61.12,2.11.62.37-.12.74.25,1-.25.74,0,1.11-.62,1.6-1.11s1.12-1.49,2-2c.86-1.61,2.59-2.85,3.46-4.58.5-1.61,2.23-2.23,2.72-3.84l.13.12c.86-.86,1.48-2,2.47-2.84,1.24-.13.87,1.73,2,1.85.13.75,1,.75,1.49,1a9,9,0,0,0,3.59,1.86c.5.62,1.49.37,1.36,1.24,0,.37-.49.74-.86.87-.13.86-1,.86-1.49,1.48-.37.25-.25,1.24-.87.74-.12.75-.86.87-1.11,1.61a1.34,1.34,0,0,0,.12,1.36c.13.87,1,1.49,1.24,2.23l.5-.25a28.11,28.11,0,0,0,3.09-.37c.5.25,1.24-.25,1.49.13-.13.74-.62,1.23-.62,2a6.6,6.6,0,0,1-3.59,2.47c-.37.5-1.12.75-1.36,1.36-.62.5-.5,1.49-.62,2.23.37.87.37,1.86,1.23,2.36,1.61.74,3.35-.38,4.71-1.12,1.24.37,2.1-1.24,3.46-.37.38.12.75-.37,1,0a7.16,7.16,0,0,1,3.72.62c.86.12,1.73.49,2.47.62,1.61-.5,1.12-2.73,3-3,0-.5,1-.62.87-1.24.13-1.11-.87-1.49-1.61-2.23-.62,0-1.24-.5-1.73-.25-.5-.62-1.61-.25-2.35-.62-.37.87-.75-.49-1.24.13-.74-.13-1.61.49-2.23-.25-.12-.25.12-.49.12-.87,1.12-1.48,3.1-2.72,3.84-4.45.62-.5,0-1.36.25-2.11-.25-1-1.24-1.36-1.86-1.85-.49-.25-1.11-.75-1.61-.62-.37-.5-1.23-.37-1.11-1.24.62-.87.87-2.1,1.86-2.72.37-.87.86-1.49,1.23-2.36.62-1.36-.74-2.47-1.36-3.46-.37,0-.49-.37-.86-.13-.13-.12-.13-.24-.25-.37-.37-.12-.62-.37-1-.12-.25-.74-1.12-.25-1.49-.87-.49.13-1.11.25-1.73.37-.62,1.12-2.1,1.24-3.09,1.74a.13.13,0,0,1-.13-.13c-.37.5-1.11.25-1.61.62-.37.87-1.11-.12-1.61.5-1.36-.62-2.35.62-3.59,1-.37-.13-1,0-1-.62a5.15,5.15,0,0,1,2-2.6,34.78,34.78,0,0,1,3.22-4.21c.5-1.24,1.74-2.23,2.23-3.47a5.71,5.71,0,0,0,1.73-1.73.24.24,0,0,1,0-.37c.13.12.25.12.25.25.5-.5,1.24-.87,1.36-1.61.62-.37.74-1.36,1.61-1.73.62.62,1.49.49,2.11,1.11.61-.25.86.74,1.48.62.37,1.24,2,.74,2.23,2.1.87.13.87,1,1.61,1.36.37,1,1.73,1.37,2.1,2.48.74.62,1.24,1.73,1.86,2.35.37,1.36,1.86,1.86,2.35,3.22.12.12.62.25.62.62.62.62.87,1.61,1.49,2.1.49.87,1.11,1.61,1.61,2.36l.37.12A8.56,8.56,0,0,0,95,127.36a9.89,9.89,0,0,1,1.73.74,18.81,18.81,0,0,0,3.22,1.48c.62-.61,1,.25,1.61.25,1.36-.25,2.72.25,4.09.13C106.34,129.83,105.47,129.34,105.72,128.84Z"/>
    <g>
      <path class="cls-1" d="M123.61,104.18l.56-.06c.24-.37.73-.12.92-.61.43-.13.86-.19,1.29-.31.67-.31,1.47-.31,2.15-.61.49.06.85-.13,1.28,0,.07,0,0-.13.07-.13s.06.13.18.19.37-.13.55-.06a2.65,2.65,0,0,0,2-1.36c-.12-.24.06-.49.12-.73a2.79,2.79,0,0,0-.55-1.54c-.06-.36-.43-.49-.49-.92-.62-.43-1.35-.67-1.66-1.29a4.73,4.73,0,0,1-1.23-1c-.18-.43-.55-.74-.67-1.17-.31-.37-.5-.86-.86-1.1v-.06c.06-.13-.13-.25-.19-.37,0,.18-.18.24-.31.3s-.12-.18-.24-.12c-.25.31-.06.92-.12,1.41,0,.19.24.31.18.62.31.18.18.55.31.86.55.3.12,1.1.67,1.41-.12.37.25.55.31.86.25.37-.37.55-.12.92-.31.68-1,1.11-1.29,1.78a9.32,9.32,0,0,0-1.72,1.78,2.74,2.74,0,0,0-.8.86c-.25.18-.74.43-.86.8h.12C123.31,104.3,123.49,104.3,123.61,104.18Z"/>
      <path class="cls-1" d="M145.35,108.66c-.19-.12.06-.36-.12-.49.43-.49-.5-.61-.56-1-.24-.37-.67-.25-1-.55a18.06,18.06,0,0,0-2.46-.8c-.12.12-.3.06-.43.12-.86-.43-1.72.06-2.64.12-.18.07-.3.25-.49.13a8.25,8.25,0,0,1-1.16.24c-.5.25-1,.13-1.6.37a4,4,0,0,1-1.47.62c-.43.12-.74.3-1.11.36l-.74.37c-.73,0-1.22.55-1.9.55-.68.37-1.35.62-2.09,1-.49-.25-.24.49-.73.3-.74.31-1.48.8-2.28,1-.43.49-1.22.18-1.47.86a2.73,2.73,0,0,0-.74.3,3.92,3.92,0,0,1-1.53.93c-.25.55-.92.36-1.29.79-.12,0-.18.06-.31.19-.37-.13-.3.55-.73.43a6.51,6.51,0,0,1-1.36.92c-.24.31-.73.37-1,.67a6.54,6.54,0,0,1-1,.43c-.19.37-.74.19-.86.62a12.63,12.63,0,0,0-1.41.43c-.56.12-.62-.62-1.11-.56-.12-.18-.49-.18-.37-.49a1.3,1.3,0,0,1-.37-.43c-.12-.12-.06-.3-.18-.3a6,6,0,0,0-.55,2.76,6.77,6.77,0,0,1,.24,1.53c-.24.37.06.62.19.93.06.55.8.73.92,1.28.24.13.49.31.74.44.55.36,1.16,0,1.78.18a6.05,6.05,0,0,0,1.47-.49c.55,0,.8-.62,1.29-.8.24.06.12-.25.37-.18.49-.5,1.23-.74,1.47-1.48.86-.49,1.54-1.41,2.46-2a1.49,1.49,0,0,0,.8-.8c.61-.06,1.1-.74,1.53-1.17v-.12c-.37.31-.92.31-1.23.61-.12.07-.24.13-.3.07s0-.25,0-.31c.12-.49.73-.8.92-1.17.92-.55,1.65-1.17,2.51-1.72.43,0,.43-.49.86-.43.49-.3,1-.49,1.48-.73.67-.31,1.47-.31,2.15-.56.3-.06,0-.24.06-.43s.12-.18.18-.24c.37,0,.19.3.12.49.37-.49.93-.43,1.42-.49.3-.31.73-.37,1-.62,1.47-.3,2.89-1.22,4.48-1,.25.06.12.25.19.43-.25.86-1.17,1.35-1.29,2.09h-.25a1.24,1.24,0,0,0-.49.61,4.87,4.87,0,0,0-1.11,1.11c-.67.18-.79.92-1.35,1.29a20.94,20.94,0,0,1-2.21,1.78c0,.3-.3.55-.49.74s-.31.3-.49.49a5.79,5.79,0,0,0-1.53,1.28c-.25.07-.37.31-.5.5-.55.12-.73.73-1.22,1-.31-.06-.56.24-.74.43a3.91,3.91,0,0,0-1.23.37c-.12.3-.49.49-.37.86-.24.43.06,1-.43,1.29a1.74,1.74,0,0,0,.43,1.22c.8.13,1.54.68,2.34.8.49-.43,1.16-.06,1.65-.49a16.64,16.64,0,0,1,1.66-.31c.62-.36,1.48-.24,2-.55.12,0,.3-.06.37,0a.83.83,0,0,1,.12.74c-.49.61-.74,1.47-1.23,2-.31.07-.24.5-.49.62-.25.92-1.78,1.29-1.66,2.45-.12.37.06.62.19,1,.92.61,1.16,1.84,1.53,2.82-.24.18.19.31.06.49.31.43-.37.31-.49.68a11.13,11.13,0,0,0-2,.67c-.19.13-.43.31-.62.19-.37.43-1.1-.06-1.35.49-.49,0-.86.43-1.35.55-.74.25-1.41.86-2.15,1.05-.06.06-.18.12-.18.24-.37.12-.74.37-1.11.49-.06.06-.18.13-.18.25l-.86.61c0,.19-.19.25-.25.37-.67.06-.67.92-1.16,1.11-.13.24-.5.36-.43.67-.37.31-.31.8-.56,1.23.25.31-.3.74,0,1.1,0,.43.68.31.62.8.24.06.3.55.61.37,0-.06.06-.18,0-.18.06-.31.43-.25.68-.25a16,16,0,0,0,2.39,1.35c.19.25.55.06.68.37.55.06.86.43,1.35.55.12.31.49.43.8.55s.49.5.79.5.56.12.49.49-.49.3-.73.3c.18.19.43.07.61.25.37.06.74.24,1.11.31,1.35.61,2.51-.31,3.68-.62.06-.06.12-.18.25-.12.12-.31-.37-.37-.49-.67-.07-.07.06-.13.12-.19.37.06.49-.37.74-.55.06-.19.36-.25.36-.49.43-.43.43-.86.86-1.29a.71.71,0,0,0,.37-.8c.43-.25.25-.86.74-.92.12,0,.43.18.43.37s-.06.43-.12.73c.18,0,.06-.24.18-.37s.12,0,.12.07c.55-.31.31-1.11.86-1.48a10.07,10.07,0,0,0,.37-1.53c.18-.31-.06-.49.06-.8-.06-.43.19-.86.19-1.23-.43-.31.24-.55-.07-.92.19-.25-.24-.61.07-.86a7.24,7.24,0,0,0,2-.18c.61.18,1.11-.19,1.66-.31.06-.55,1-.86.67-1.41.13-.25.31-.25.5-.37-.37-.12-.74-.49-1.17-.55-.37-.31-.92-.19-1.29-.56-.31.31-.74,0-1,.06-.62-.67-1.54-.18-2.28-.3a11.51,11.51,0,0,1-1.35-1.91c-.12-.3-.61-.55-.67-1a1,1,0,0,1-.49-.73c-.19-.5-.74-.8-.8-1.42.18-.43.55-.73.74-1.16.18-.13.3-.31.42-.37.31-.55,1-.62,1.29-1.17-.06-.49.56-.18.68-.61l-.18-.13a.13.13,0,0,0,.12-.12c.37.06.43-.3.67-.55a.66.66,0,0,0,.68-.43,3.93,3.93,0,0,0,1.35-1c-.12-.49.49-.62.25-1.11s-.19-1.1-.37-1.78c-.06-.18-.19-.24-.37-.31a.9.9,0,0,1-.92-.36.44.44,0,0,0-.68.12,11.9,11.9,0,0,1-3,.12,16.25,16.25,0,0,1-2.39.37c-.55.25-1.35.18-2,.43-.24-.12-.43-.31-.3-.61,1-.56,1.72-1.72,2.82-2.28l2.15-1.78c1.11-.67,1.9-1.72,3.07-2.21.55-.61,1.35-.73,1.9-1.35a6.07,6.07,0,0,1,2.52-1.35c.12,0,.25.06.25.19-.19.18-.56.55-.56.86.25.12.43.3.68.18.55-.18.92-.68,1.41-1,.25.12.37-.25.62-.25a17.15,17.15,0,0,1,2.21-1c.24-.37.92-.43.61-1C145.66,109.34,145.35,109,145.35,108.66Zm-13.82,32.79c.07.19.19.49.07.62.12.24-.19.43-.13.67a17.2,17.2,0,0,1-.3,1.72c-.5.12-.13.86-.68.86,0,.18-.25.25-.31.37a13.66,13.66,0,0,0-1.78.37c-.67-.25-1.53-.19-2.15-.49a5.6,5.6,0,0,1-2.39-.86c-.19-.37-.86-.62-.8-1.11a1.12,1.12,0,0,1,.12-.61c.49-.31.62-.92,1.23-1,.37-.06.25-.61.68-.49.24-.24.61-.24.92-.49.61,0,.8-.55,1.29-.74a10.76,10.76,0,0,0,1.29-.42c.61-.43,1.41-.37,2-.92.31,0,.8-.13.92.24-.06.37.31.86,0,1.29A1.28,1.28,0,0,1,131.53,141.45Z"/>
      <path class="cls-1" d="M119.19,145.44l.13.25c.36,0,.24.49.55.43l-.12-.19C119.44,145.81,119.5,145.44,119.19,145.44Z"/>
    </g>
    <g>
      <path class="cls-1" d="M200.25,130.27c-.38,0-.54-.33-.95-.24-.08.1-.3.1-.46.1-.32,0-.65-.1-1-.1a6.74,6.74,0,0,0-.75-.17c-.11.06-.19,0-.3.06a2.47,2.47,0,0,0-.54.11l-.63-.22c-.08,0-.13-.16-.21-.06a3.69,3.69,0,0,0-1.06-.05,2.49,2.49,0,0,1-1.3.33c-.19,0-.38-.09-.54,0s-.22,0-.35,0a.27.27,0,0,0-.11.19c-.17.11-.27.27-.46.3s-.3,0-.44.16a2.07,2.07,0,0,0-.65.16c-.51,0-.89.36-1.4.3-.14-.05-.11-.22-.19-.32.1-.3-.14-.52-.17-.82,0-.13.22-.16.27-.29a10.27,10.27,0,0,0,1.6-.25.72.72,0,0,1,.33-.11c.27-.21.65-.16.92-.38.11,0,.32.06.35-.13s.3-.11.43-.11l.3-.38a2.92,2.92,0,0,0,.35-.57c-.11-.16.19-.11.19-.27s.27-.4.36-.65c-.14-.27.24-.38.29-.59a3.71,3.71,0,0,0,.27-.68l0-.08c.29-.16.13-.52.29-.73a3.6,3.6,0,0,0,.25-.6,4.43,4.43,0,0,1,.3-.81c0-.16.21-.35.16-.54s0-.17.11-.19a2.48,2.48,0,0,0,.24-.71c.19-.35.27-.76.49-1.11-.06-.08,0-.16,0-.21s0-.06,0-.06c0-.16.11-.27.16-.4s0-.17,0-.25a2.53,2.53,0,0,0,.24-.7,5.86,5.86,0,0,0,.33-1,1.55,1.55,0,0,1,.21-.76c0-.22.19-.3.17-.52a1.79,1.79,0,0,1,.43-.67c.11-.22-.08-.41-.08-.63a.74.74,0,0,0-.46-.57c-.11-.08-.24-.19-.38-.13-.43-.19-1,0-1.41-.27-.05-.06-.08-.11-.16-.11s-.25-.11-.3-.16-.3-.08-.32-.27c-.06,0,0,0-.09,0s-.1,0-.1,0l.08-.08-.06,0s-.08,0-.13,0a1.15,1.15,0,0,0-.52-.32,2.09,2.09,0,0,0-1.16-.19c-.08-.14-.16,0-.27,0-.17.17-.33,0-.54.08-.38,0-.76.17-1.17.19a1.25,1.25,0,0,1-.65.25,7.84,7.84,0,0,1,1.19,0,7.37,7.37,0,0,1,.84-.21c.35,0,.68-.11,1.06-.09.22.14.51.06.7.27a.21.21,0,0,1-.05.25c-.05,0-.14.11-.16,0a.39.39,0,0,1-.38,0c-.19.11-.41,0-.6.14-.13-.08-.3,0-.49,0-.24.14-.62.06-.84.17s-.35.11-.48,0a4,4,0,0,1-.52.19c-.16.08-.35,0-.49.11a10.29,10.29,0,0,1-1.3.29c-.05-.19-.35-.27-.18-.48s.27-.25.32-.38a0,0,0,0,0,0,0,.16.16,0,0,1-.19-.11,4.1,4.1,0,0,0-.13-1c.13-.3,0-.62.08-.89-.14-.19,0-.33,0-.52a3.93,3.93,0,0,1,0-.84l-.05,0c0-.06,0-.11,0-.17s0-.37-.05-.54a.26.26,0,0,0,0-.21c0-.22-.22-.27-.19-.52s.11-.22.22-.3.3-.19.43-.29c.25-.28.68-.19,1-.44.16,0,.32-.11.48-.08.3-.22.73-.13,1.06-.3.24.06.51-.13.76-.13a1.36,1.36,0,0,1,.49-.11,2.81,2.81,0,0,1,.65-.06,1.74,1.74,0,0,1,.51,0c.11-.13.3,0,.43-.13s.22-.33.25-.52.16-.43.08-.65-.22-.35-.41-.51-.27-.08-.32-.13-.3-.06-.38-.25c-.11.14-.16-.08-.25-.05s-.24,0-.37-.06-.25,0-.36,0-.16.22-.32.08a1.17,1.17,0,0,1-1,.06c-.08,0-.16,0-.22,0s-.11,0-.13.06a.31.31,0,0,0-.35,0c-.11.17-.33,0-.47.06s-.21,0-.24-.14-.19,0-.19.08c-.24.11-.27.49-.57.46-.11.17-.32.11-.43.22,0,0-.14,0-.19-.11s-.05-.38,0-.51-.13-.36,0-.57-.11-.35-.14-.57c-.19-.19-.05-.52-.27-.71s-.24-.43-.46-.56-.4-.14-.43-.41c.14-.08.19-.27.38-.3.05-.19.32,0,.43-.16.08,0,.25,0,.27.14s.22,0,.25.1c.21,0,.35.17.57.22s.32.14.51.16c.19-.19.49,0,.65-.24a1.22,1.22,0,0,0,.54-.11,2.32,2.32,0,0,0,.6-.19c.13-.24.46-.24.59-.49.14.06.25-.08.38,0s.11-.09.11-.11,0-.14,0-.22.11-.16.14-.24,0-.27-.08-.38-.11-.14-.16-.22-.38-.19-.44-.4-.19,0-.24-.14a4.33,4.33,0,0,0-.52-.16c-.08.08-.16-.06-.27,0-.19-.14-.35,0-.57,0-.1.19-.29.06-.51.11a2.33,2.33,0,0,1-1.22-.13c-.11-.17-.24.05-.35-.06l-.25.27c-.27.11-.51.36-.78.27-.08.06-.19,0-.27.09a6.21,6.21,0,0,0-.73.13c-.22.3-.63.14-.9.3a1.25,1.25,0,0,1-.24.05c0,.14-.27.09-.35.19s-.3.06-.35-.08-.19-.11-.22-.19c-.19-.11-.16-.32-.33-.43s-.46-.33-.65-.6-.35-.19-.46-.4c-.05,0-.11-.08-.16,0s-.05,0-.05-.08a2.15,2.15,0,0,1-.46-.3c-.3,0-.36-.35-.63-.41s-.29-.21-.46-.24-.24-.19-.38-.16-.13-.06-.16-.14-.08,0-.13,0c-.25,0-.41-.08-.63-.11a1.52,1.52,0,0,1-.62.06s-.08.1-.14,0a.35.35,0,0,1-.35.06.84.84,0,0,0-.46.13c-.19-.16-.4.11-.62.06a.83.83,0,0,1-.81-.14c0-.16-.17,0-.22-.16l-.05.11a1.94,1.94,0,0,0,0,.59c.1.17.05.38.24.52,0,.27.33.27.33.51,0,.06.08.06,0,.14s.05.11.13.11c.09.27.38.43.52.65a1.91,1.91,0,0,1,.32.46c.17,0,.11.27.11.32s.14,0,.11.08-.16.16-.22.25c.17-.11.33,0,.49-.09.11.14.27,0,.38.11s.33.08.41.25c.35,0,.51.3.76.46,0,.16.21.21.19.38-.25,0-.3.38-.57.29-.17.11-.38.09-.49.25l-.06-.06c-.05,0-.13,0-.13.06a.09.09,0,0,1-.14,0c0,.14-.19.06-.24.16s-.11.06-.14,0a2.17,2.17,0,0,0-.56.19c-.17,0-.28.13-.44,0s0,0,0,.08a4.77,4.77,0,0,1-.7.19c-.13.08-.27,0-.38.11v0c-.16,0-.3.06-.43.06s-.19.11-.3.16,0,0,0-.05a.19.19,0,0,0-.13.05l0,0h0c.14,0,.14.13.11.21a.46.46,0,0,1-.35.19c-.08-.08-.14.08-.22.08s-.19,0-.27,0-.46.16-.68.27-.29.14-.43.19-.24.11-.38.11a2.9,2.9,0,0,1-.68.24c-.16,0-.24.19-.38.17-.13.16-.4,0-.54.21-.32,0-.57.19-.86.11-.08-.11-.33-.11-.22-.3s.14-.13,0-.21.09-.08.14-.11c0-.25-.19.08-.3,0s-.16.08-.13.18c-.33.17-.55.38-.87.57,0,.17-.24.06-.35.19-.08,0-.22-.13-.17-.24a5,5,0,0,1-1.11.46c-.1-.08-.19,0-.29,0s-.17.17-.36.11c0,.14-.21.14-.13.3-.08.08-.11.22-.19.27s-.24.24-.14.41a.19.19,0,0,1-.21.08c-.19,0,0,.16-.08.24s-.06,0-.08,0-.06.22-.11.3,0,.49-.11.68.11.57.08.84a2,2,0,0,1,.32.54c0,.3.17.46.14.76a5.54,5.54,0,0,0-.16,1c.11.1,0,.27,0,.38s-.1.35,0,.54c-.13.27,0,.62-.1.89s-.06.33,0,.43a2.22,2.22,0,0,0,0,.63c-.16.08,0,.24-.08.35s.08.38,0,.49a3.74,3.74,0,0,0,0,.67c-.13.63-.13,1.3-.24,1.93a9,9,0,0,0-.14,1.16,3.68,3.68,0,0,0-.11.65c.11.25-.08.46-.05.71s-.19.73-.11,1.08c-.16.89-.27,1.84-.46,2.73-.13.22-.05.52-.24.74,0,.38-.22.73-.27,1.13-.06.08.08.25-.08.3,0,.33-.17.6-.19.92a6.13,6.13,0,0,1-.3,1c0,.25-.16.38-.16.63-.19.27-.17.65-.38.92.05.21-.19.32-.11.54-.19.19-.11.51-.33.65,0,.19-.24.22-.16.43-.16.33-.32.65-.49,1a1.91,1.91,0,0,1-.21.65,6.49,6.49,0,0,0-.41.84,12.19,12.19,0,0,1-.7,1.46,3.48,3.48,0,0,0-.36.87c-.19.19-.16.48-.4.65-.06.21-.22.35-.25.57-.19.19-.27.43-.48.59,0,.16-.11.16-.14.3-.35.14-.51.51-.76.7a.61.61,0,0,1,0,.44,6.88,6.88,0,0,0-.54.67c-.22.11-.32.41-.51.55s-.17,0-.19.1c-.25.22-.55.09-.79.19a.35.35,0,0,1,0,.25c-.19.24-.54,0-.76,0-.05-.19-.27-.08-.32-.27-.28-.19-.14.22-.28.3a.51.51,0,0,1-.48,0,1,1,0,0,1-.49,0c-.06.19.08.43-.11.59a.33.33,0,0,1-.32-.05c-.06,0-.09.08-.06.11a.17.17,0,0,1-.16.13c-.22-.1-.22-.43-.46-.46a.47.47,0,0,0-.14.41.93.93,0,0,1-.57.35c-.08.14.06.22.09.35-.11.36.27.46.46.63a.57.57,0,0,1,0,.59c-.08.17-.24.19-.35.27.22.19.43-.08.68,0s.3.16.46.24.16.19.27.08c.16.11.46,0,.6.16s-.22.33-.33.49c.16.11.33,0,.49,0,.21-.19.43,0,.65-.08s0-.11,0-.19-.05-.19,0-.24a3.78,3.78,0,0,1,.89-.27c.22-.19.49-.08.73-.14a.14.14,0,0,1,.08.14c.17.05.22-.06.36-.06.1-.19.35-.13.48-.24s.11-.11.22-.11c.16-.19.46-.24.68-.38s.11-.13.21-.13a.16.16,0,0,1,.11.13c.17,0,.3-.11.44-.19.37-.08.65-.49.94-.68a3.67,3.67,0,0,1,.57-.54,1.33,1.33,0,0,1,.38-.54c.41-.49.62-1.06,1-1.54-.08-.27.25-.33.25-.57.16-.08.16-.27.27-.41s.16-.16.13-.3c.41-.27.27-.78.57-1.08.08-.27.33-.51.38-.79s.38-.62.57-.92a1.07,1.07,0,0,1,.3-.56c0-.28.24-.49.32-.74a18.49,18.49,0,0,0,1-2.6c.11-.05,0-.19.14-.24.05-.24.21-.43.24-.68.16-.05,0-.27.14-.35,0-.27.21-.49.27-.73-.06-.08.08-.16,0-.24s.24-.3.18-.49a.4.4,0,0,0,.11-.38.94.94,0,0,0,.14-.43c.16-.14.11-.36.19-.52s.05-.57.24-.81c0-.11.06-.22.06-.33s.16-.4.19-.62c0-.05,0-.16,0-.22a.66.66,0,0,1,.11-.37c-.06-.17.11-.22,0-.41a.62.62,0,0,0,.13-.33c.08-.08,0-.24.11-.29,0-.41.16-.76.16-1.14.25-.41.14-.92.35-1.33a12.3,12.3,0,0,0,.25-1.41,12.06,12.06,0,0,1,.32-1.76,13,13,0,0,1,.08-1.41c-.05-.32.14-.56.06-.86s.16-.27,0-.44a1.81,1.81,0,0,0,.06-.57,1.94,1.94,0,0,1,.08-.56c-.06-.44,0-.84,0-1.22s-.14-.52,0-.79a1.45,1.45,0,0,0,0-.51c.08-.19,0-.41,0-.6l0,0c-.06-.27.08-.62.05-.92s.14-.27.08-.46.11-.29,0-.43a1.88,1.88,0,0,0,.11-.84c0-.11.16-.13.08-.24.14-.06,0-.22.11-.27-.06-.11,0-.19,0-.27a1.21,1.21,0,0,0-.43-.9c0-.13-.25-.13-.06-.27a1.48,1.48,0,0,1,.76,0,3.31,3.31,0,0,0,.41-.14,1.38,1.38,0,0,0,.73-.19c.24,0,.32-.16.54-.19.16-.24.51-.19.73-.35,0-.14.27-.11.35-.24.14,0,.16-.11.3-.14s.24-.16.41-.16c0-.25.35-.14.51-.25a1.83,1.83,0,0,1,.52-.21c.1-.11.27,0,.29-.22a.14.14,0,0,1,.19.05c.06-.05.11-.1.19-.08s.27,0,.36-.16a2.21,2.21,0,0,0,.7-.13c.22-.27.62-.25.87-.49.19.11.24-.14.46-.11.27-.19.62-.16.94-.3s.38-.27.65-.3c.09-.16.3,0,.38-.21a4,4,0,0,0,.79-.25c.16-.16.4-.13.57-.29.27,0,.48-.09.78-.09.11,0,.14-.13.25-.08s.16.38.16.57.05.63,0,.9c0,.1,0,.32.08.43s-.08.22,0,.38a.78.78,0,0,0-.08.62c-.06.19,0,.43-.06.65s.11.46,0,.65a1.31,1.31,0,0,1,0,.65c-.08.08-.17.27-.3.27s0,0-.06,0a1.8,1.8,0,0,0-.24.19c-.08,0-.16.11-.24,0l-.17.16c-.1,0-.19,0-.29.08s-.14.14-.27.14a.8.8,0,0,1-.38.19c-.06.1-.14,0-.25.08a1.66,1.66,0,0,0-.16.24c-.13-.19-.24.19-.41.14-.1.4-.59.13-.7.48-.33,0-.54.28-.81.44a7.08,7.08,0,0,0-.81.46c-.14,0-.25.13-.38.21s-.44.19-.57.38c-.33.11-.63.27-1,.38s-.35.25-.62.17c-.08.13-.33,0-.38.21,0-.13-.16,0-.19,0s-.25.11-.35.22c-.11-.06-.22.13-.33.13,0,.25-.41.16-.41.41a1.45,1.45,0,0,1,.55-.3c.08-.14.24-.11.35-.24a.81.81,0,0,1,.35.05c.11.14,0,.3.05.43s-.1.55,0,.76c0,.27.27.3.44.44.27.32.86.08,1,.51a1.89,1.89,0,0,1-.46.6c-.05.08-.05.24-.16.27.06,0,.14,0,.16,0s0,.14,0,.16c0,.19-.27.27-.36.44s-.16.19-.27.24-.1.08-.08.14c-.32.19-.46.59-.84.75a1.49,1.49,0,0,1-.3.33c-.05.3-.4.27-.56.51-.11,0-.22.22-.33.08a.28.28,0,0,1-.16-.29l0,0c-.11.06-.05.14-.05.25-.14-.17-.14.11-.25.11-.08.29-.38.4-.59.54a.78.78,0,0,1-.33-.16c0-.09,0-.09,0-.17-.11.22-.41.22-.52.46.11.38-.16.65-.35.92,0,.25-.27.41-.11.71a2.27,2.27,0,0,0,.08,1.62c.09.17.09.35.25.46s.21.17.38.17.38.32.59.21a5.42,5.42,0,0,1,.82.3,1.3,1.3,0,0,1,1.05.79c.22,0,.22.24.3.38.27.24.33.62.68.83,0,.14.19.22.21.36.38.11.41.48.44.78a2.46,2.46,0,0,1,.38.76c.19.16.19.41.32.6.41.21.35.73.49,1.08.4.43.35,1.16.81,1.52,0,.21.3.13.43.16a2.47,2.47,0,0,0,.9,0c0-.16.27-.16.32-.3s.36-.13.52-.16a.5.5,0,0,1,.43-.16c.25,0,.38-.19.62-.14s.63-.27,1-.22a.77.77,0,0,1,.48-.16c.27-.32.6,0,.84.08s.11.25.11.41.19.22.08.38c.11.3,0,.54,0,.81s-.1.3,0,.43c-.08.19,0,.44-.22.57s-.22,0-.33,0a3.13,3.13,0,0,0-.7.08c-.22.19-.54.11-.79.27-.13-.05-.24.14-.4.08-.38.14-.73.3-1.11.41a.57.57,0,0,0-.44.14,1,1,0,0,1-.24,0c-.11.08-.22,0-.3.13s-.21.11-.29.14-.14,0-.19,0-.36.06-.49.14-.25.13-.38.19c-.33,0-.57.19-.84.3a2.07,2.07,0,0,1-.43.16c-.22,0-.3.27-.52.27a.53.53,0,0,1-.49.22.11.11,0,0,0-.1.1,0,0,0,0,1-.06,0c-.11,0-.13.13-.24.13a.81.81,0,0,1-.54.19c-.25.27-.6.3-.84.54-.14,0-.22.14-.38.14-.6.32-1.3.57-1.9.95-.11.16-.32.19-.46.27s-.19.19-.27.13c-.11.17-.3.06-.41.22-.4.11-.75.33-1.16.41a1.26,1.26,0,0,1-.46.16c-.06.11-.25,0-.25.13.44.25.68.79,1.2.9.24-.08.46.21.67.08.22,0,.41-.08.63-.05a5.2,5.2,0,0,1,.67-.11c.17-.14.46-.06.55-.27.32-.11.46-.36.78-.49a5.38,5.38,0,0,0,1-.49c.16-.24.51-.22.73-.38.06,0,.11-.13.19-.11.22-.19.52-.24.71-.48a1.63,1.63,0,0,1,.37-.19c.09-.27.36-.11.49-.3.22,0,.35-.16.54-.27s.33-.22.54-.25c.09-.21.38-.1.49-.29a8.74,8.74,0,0,0,1.38-.65c.25-.14.57-.17.82-.33s.43,0,.62-.11c.3.11.35-.27.68-.16.29-.35.86-.14,1.11-.54a1,1,0,0,1,.51,0c.08,0,.22,0,.3,0a2.43,2.43,0,0,1,.05.6c.09.16,0,.38,0,.54a6.11,6.11,0,0,1,.09.95.83.83,0,0,0,0,.35c.06.35-.11.62,0,1a1.08,1.08,0,0,0,.08.49c-.05.21.06.46,0,.73s0,.27,0,.46a1.11,1.11,0,0,1,0,.89c.25.14-.08.33.09.49a3.83,3.83,0,0,0-.14,1c.08.14.22.3.14.46a.92.92,0,0,1-.25.19l.06.11s0,.13,0,.16v.44a.56.56,0,0,0,0,.46c.19.21-.22.43,0,.65-.11.13,0,.32-.08.46.19.43-.14.67-.06,1.08.17.22-.05.46.06.68s-.08.19,0,.29.08.25.08.41c-.19.19.13.33,0,.49a1.09,1.09,0,0,1-.11.51c.11.19-.05.38,0,.57s-.05.22,0,.35a6.59,6.59,0,0,0-.06,1.47c-.08.19.11.21.17.35,0-.19.13-.35.08-.57a2.38,2.38,0,0,1,.05-.65c0-.08-.05-.16,0-.22-.11-.21.14-.46-.08-.65.19-.21,0-.46.08-.7a.58.58,0,0,1,0-.35c0-.06.11-.11.08-.19s.11-.17.22-.19.22.05.3.13.13.41,0,.57.08.14,0,.22,0,.43,0,.68c-.14.05,0,.16-.11.24s-.08.3,0,.43a1.26,1.26,0,0,0,0,.54s-.06,0-.08.06a2.14,2.14,0,0,1-.11.92c.11.11,0,.22,0,.32s0,.19,0,.28a4.6,4.6,0,0,0,0,.83c.06,0,0-.08,0-.1.13-.27.11-.63.3-.87.1-.62.16-1.35.24-2,0-.16,0-.32,0-.48.08-.41.08-.84.14-1.28.13-.16-.09-.35.05-.51a5.8,5.8,0,0,1,.08-.95c.14-.24-.08-.54.14-.73a.34.34,0,0,1,.27-.06.4.4,0,0,1,.21.33c0,.24.09.49.06.76s-.06.7-.14,1a2.53,2.53,0,0,0-.11.84c.09.51-.21.92-.16,1.38a.48.48,0,0,1-.05.33,2.21,2.21,0,0,1-.06.64,4.83,4.83,0,0,0,0,1.14,4.57,4.57,0,0,0,0,.65c-.11.06,0,.11,0,.19,0-.11,0-.19,0-.27s0-.16,0-.22a.94.94,0,0,0,0-.29c.06-.14.08-.38.3-.33s.14.11.16.19a.21.21,0,0,1,.25,0,.76.76,0,0,1,.19.43c.19.06.16-.16.27-.21s-.08-.14,0-.19c0-.25.11-.46.08-.71s.11-.32.05-.49a2.4,2.4,0,0,0,.08-.75c0-.33.14-.65.11-1a6.16,6.16,0,0,0,.14-1c0-.19,0-.38,0-.6s0-.3.08-.4c-.08-.36.17-.49.3-.76s0,.21.11.3c-.05.4.22.75.08,1.19,0,0,.06.16,0,.21-.06.44-.14.9-.17,1.36,0,.05.09.05.06.11h.05a3,3,0,0,0,.14-.68,2.73,2.73,0,0,0,.27-1.14c.05-.08-.05-.16,0-.21.05-.36.13-.74.19-1.09l-.09-.13a3.58,3.58,0,0,1,.33-1.17c.11,0,.22-.05.3.06a9.07,9.07,0,0,1-.06,1.27c0,.38-.16.81-.16,1.25-.11.19,0,.43-.11.59a10.72,10.72,0,0,1-.3,1.71c.06.35-.16.7-.13,1s-.11.32-.05.54l.05-.22c.27-.27.27-.67.38-1-.08-.25.19-.44.11-.68a12.56,12.56,0,0,0,.27-1.41c.11-.16.05-.41.11-.57s0-.13,0-.19a7.42,7.42,0,0,1,.24-1.3,1.33,1.33,0,0,1,.19-.73,3.07,3.07,0,0,0,.11-.73c.16-.24.06-.57.14-.81a.65.65,0,0,1,.13-.49c-.11-.27.08-.52,0-.81a2.87,2.87,0,0,0,.08-.38c.11-.17,0-.38.19-.49-.16-.32,0-.62-.08-1-.14-.13.13-.27,0-.37.13-.09,0-.36.08-.49s0-.14,0-.19c.05-.27-.08-.54.08-.76a5,5,0,0,1,0-1.16c0-.17-.14-.27,0-.38a1.34,1.34,0,0,1,0-.49,6.22,6.22,0,0,0-.06-1c-.21-.19.17-.32-.05-.51a3.56,3.56,0,0,0,0-1,4,4,0,0,1-.08-.84c-.06-.22,0-.46-.11-.68s.14-.19.19-.3a2.86,2.86,0,0,1,.54-.19,5.32,5.32,0,0,1,1-.19,6.62,6.62,0,0,0,1.22-.19c.19.11.46,0,.62,0s.25-.05.38-.08.16.05.19-.05c.46,0,.89.05,1.38.05.16.11.43.08.62.14l.06-.06a5.19,5.19,0,0,1,1.38.27c.19,0,.22.16.38.19s.27.06.38.14c.49,0,1,.13,1.43.21a6,6,0,0,0,1.71-1c.14-.17.11-.46.24-.68A1.49,1.49,0,0,0,200.25,130.27Zm-37.11,5.93a.13.13,0,0,1,.06-.16s.05,0,.08.05S163.2,136.15,163.14,136.2Zm.14-.95c-.22.14-.16.44-.35.54s-.17.22-.14.33-.08.35-.24.49a.91.91,0,0,1-.3.48.09.09,0,0,1-.08-.13c.08-.06,0-.14.05-.19a3.57,3.57,0,0,0,.54-1.22c.06-.19.36-.16.28-.41.13-.16.16-.4.29-.59.11,0,.11.13.14.21S163.28,135.06,163.28,135.25Zm.08-2.16c-.13.13,0,.4-.24.51a.32.32,0,0,1-.17.33s-.13,0-.13-.11c.19-.3.13-.68.35-1,0-.16.16-.21.11-.38s.22-.32.3-.48.08-.11.11-.17c.08-.43.35-.76.38-1.16.08,0,0-.14.05-.19s.11-.41.22-.57a4.76,4.76,0,0,1,.21-.6c.19-.13.11.17.14.27s-.14.28,0,.38c.14-.16.11-.43.3-.51a.14.14,0,0,1,.19.08,10.24,10.24,0,0,1-.33,1.17c-.13.13-.11.35-.27.46,0,.19-.11.29-.19.43a4.17,4.17,0,0,1-.29.84c-.09,0-.09.11-.06.13s-.11.09-.13.17,0,.21-.14.19c-.22-.22.08-.36,0-.6-.16.08-.05.35-.24.49C163.47,132.9,163.36,133,163.36,133.09Zm1.82-1.25s-.06.08,0,.14.08-.06.11,0-.14,0-.19.08c-.17.25-.22.55-.41.79,0,.19-.19.3-.19.49-.24.19-.11.54-.32.75s0,.47-.25.38c-.08-.05-.08-.19-.16-.13s-.11.16-.22.11.06-.38.08-.57c.28-.11.17-.41.38-.57s.33-.49.36-.79c0,0,0,0,.08-.08a1.88,1.88,0,0,0,.16-.65c.19.06.13-.16.19-.24.13-.35,0-.71.27-1,.08-.11,0-.27.11-.36-.06-.24.22-.4.24-.67.16-.11.06-.49.33-.46.21.27-.11.51-.08.81s-.19.32-.19.54c.05,0,.19-.11.21-.19a.76.76,0,0,1,.08-.4v-.11a6,6,0,0,0,.33-.73.15.15,0,0,1,.27.05,6,6,0,0,0-.3.87,3.33,3.33,0,0,0-.21.48c-.14.11-.14.28-.22.41A6.29,6.29,0,0,1,165.18,131.84Zm1.67-2.41a.76.76,0,0,0-.18.49c.13.08,0,.24.05.35-.11.27-.24.54-.33.81-.16.11,0,.33-.18.41a3,3,0,0,1-.33.59c-.08,0-.08-.08-.11-.1,0-.22.16-.41,0-.63a.56.56,0,0,1,0-.32.74.74,0,0,1,.13-.33c.16-.27.11-.65.41-.84,0-.27.16-.46.13-.7a.35.35,0,0,1,.25-.27c.08,0,.16.05.21.13S166.85,129.27,166.85,129.43Zm11.81-10.05c-.13.22-.43,0-.48.3a5.59,5.59,0,0,0-.6.3c-.08.16-.3.11-.38.27-.13,0-.19.19-.27.16s-.22,0-.32.08c-.17-.11-.09-.3-.22-.4.08-.36.51-.3.65-.55.3-.05.43-.4.73-.43,0,0,.08-.11,0-.14s-.21.14-.38.09-.27.16-.37.27c-.25-.11-.33.16-.55.16s-.1.11-.21.08a.17.17,0,0,0-.19,0,.85.85,0,0,1,0-.73c.11-.16.28-.27.33-.46s.05-.19.11-.27c-.25,0-.46.35-.73.3-.06-.11-.14-.14-.19-.19-.25-.08-.49.43-.63,0,0-.35.41-.51.57-.75s.44-.44.57-.68c.14,0,.27-.19.38,0v0c.27,0,.43-.29.62-.48a.7.7,0,0,0,.33-.33,1.16,1.16,0,0,0,.49-.38,1.79,1.79,0,0,0,.38-.4,8,8,0,0,1,1.43-1c0-.06.14-.06.16-.17s-.1.08-.16,0a.32.32,0,0,1-.05-.38c.21-.19.32-.51.57-.67s.21-.3.4-.36,0-.19.14-.19c0-.16.27-.1.3-.27a.33.33,0,0,0,.21-.19,1.55,1.55,0,0,0,.6-.43c.35-.08.67-.51,1-.27a1.37,1.37,0,0,1,0,.35,1.45,1.45,0,0,1,.11.84c.06.25,0,.62.11.84a2,2,0,0,0,.08.9c-.11.13-.08.32-.13.48s.13.19,0,.3-.1.11-.05.16.05.36.11.49.08.27,0,.38,0,.46,0,.68-.11.19,0,.27a1.23,1.23,0,0,1-.08.49c-.11.13-.13.32-.32.32a.34.34,0,0,1-.22-.16c0,.11-.14,0-.22,0l0-.08c-.08.19-.35.11-.46.24a1,1,0,0,0-.37.17c0,.13-.14,0-.22,0s-.49.08-.6.33c-.11,0-.21.1-.35.08s-.08.08-.08.13-.22,0-.24.08v.06c-.14-.08-.27.11-.41.13s-.33.06-.43.22C179,119.14,178.91,119.35,178.66,119.38Zm4.69,8.48c0,.19-.22.22-.14.4-.05-.13-.27,0-.38,0a7.11,7.11,0,0,1-1,.11c-.05,0-.11-.06-.13,0a2,2,0,0,1-.44,0c-.4-.14-.19-.6-.46-.84s-.38-.71-.54-1.06a4.71,4.71,0,0,1-.38-.57,4,4,0,0,0-.43-.89c-.16-.14-.11-.38-.22-.52s-.11-.21-.11-.35.08-.46.08-.68c-.16-.11,0-.24,0-.38a5.41,5.41,0,0,1,.57-.81h0c.11-.11.27-.19.3-.38a3.21,3.21,0,0,0,.73-.57c.13,0,.16-.1.24-.19a3.46,3.46,0,0,1,1-.59,2,2,0,0,1,.57-.33.52.52,0,0,0,.35,0c.11,0,.13.11.19.19s0,.08,0,.16c0,.27.17.54.08.81s.14.46,0,.71a.52.52,0,0,1,.06.4c0,.14-.06.27-.19.3-.35,0-.68.27-1.06.3-.05.11-.16,0-.24,0a1.22,1.22,0,0,1-.73.35,3.56,3.56,0,0,1-.41.17c-.08,0-.22,0-.22.13-.1-.08-.27,0-.37,0a1.22,1.22,0,0,0-.63.11c.16.16-.11.27,0,.43.57.46,1,1.25,1.87,1a5.17,5.17,0,0,1,.89-.08,1,1,0,0,1,.82-.49.11.11,0,0,1,.16,0c-.08.13.08.16.08.27a3.91,3.91,0,0,1,.06.73,1.71,1.71,0,0,1,.08.81c0,.27.08.44,0,.68S183.48,127.7,183.35,127.86Zm5.42-1.65c0-.14.1-.22,0-.33a8.73,8.73,0,0,0-.06-1.22c-.05,0-.08-.13,0-.16s.08-.33-.06-.41c.17-.1,0-.38,0-.51a.61.61,0,0,0,0-.38,5.59,5.59,0,0,0,0-.92c0-.11,0-.27.16-.3s.19-.08.3-.11c.24-.19.59-.24.76-.51,0-.16.1-.3.05-.46s-.13-.16-.24-.16a1,1,0,0,0-.87-.19c-.08,0-.11.08-.19,0-.22-.32.05-.76,0-1.11,0-.16.06-.3-.08-.43.08-.19-.13-.36,0-.55a2.66,2.66,0,0,0-.06-.62c0-.49.57-.57.95-.67a1.84,1.84,0,0,1,1.65,0c.27-.14.49.08.71.19s.27.24.24.46a1.6,1.6,0,0,1,0,.62c-.08.24,0,.49-.13.73a8.74,8.74,0,0,1-.14.87c-.21.27-.08.68-.27,1a11.84,11.84,0,0,0-.3,1.28.73.73,0,0,0-.13.7c-.06.14,0,.33-.16.38.05.22-.17.38-.14.6a4.84,4.84,0,0,0-.24,1.08c.08.14-.08.16-.08.3a4.51,4.51,0,0,1-.33,1,.56.56,0,0,1-.38.19c-.11,0-.13-.16-.24-.08a.87.87,0,0,0-.65,0C188.66,126.45,188.9,126.32,188.77,126.21Z"/>
      <path class="cls-1" d="M175.5,102.86v0c0-.08.05,0,.08,0,0-.19-.11,0-.19,0s-.11,0-.14.08,0,.14-.19.11l0,0C175.22,103,175.36,102.89,175.5,102.86Z"/>
      <path class="cls-1" d="M173.79,103.48c-.08.06-.22.06-.25.14A.41.41,0,0,0,173.79,103.48Z"/>
      <rect class="cls-1" x="173.14" y="114.05" width="0.03" height="0.03"/>
      <path class="cls-1" d="M171.92,115.05c.16-.22.46-.33.6-.49l-.06,0a.55.55,0,0,1-.3.17c-.08,0-.08.13-.16.13s-.19.22-.24.3C171.87,115.16,171.81,115,171.92,115.05Z"/>
      <path class="cls-1" d="M180.13,118.05c.29-.13.48-.46.81-.54.05-.05.13-.11.13-.16s-.21,0-.27,0c-.35.05-.57.43-1,.46a1.41,1.41,0,0,1-.49.16c-.22.24-.54.22-.78.43,0,0,0,0,0,0s-.06.16-.14.11c-.14.11-.35.08-.43.24-.08,0-.08.11-.08.16.18-.08.4,0,.54-.21s.48-.43.81-.3c.16-.19.41-.19.6-.3S180.1,118.19,180.13,118.05Z"/>
      <path class="cls-1" d="M186.65,150.37v-.15A.25.25,0,0,0,186.65,150.37Z"/>
      <path class="cls-1" d="M186.71,149.88c-.06.08,0,.21-.06.27v.07C186.69,150.11,186.8,150,186.71,149.88Z"/>
    </g>
  </g>
</svg>
