<svg width="40" height="41" viewBox="0 0 40 41" fill="none" xmlns="http://www.w3.org/2000/svg">
<path d="M11.4485 6.558C12.7197 5.79089 14.0713 5.20641 15.4667 4.8119L16.0512 1.99182C16.19 1.31968 16.7818 0.830185 17.4685 0.815573L21.8301 0.742521C22.5169 0.727909 23.1233 1.19548 23.2913 1.86762L23.9781 4.66578C25.3881 5.00916 26.7543 5.5498 28.0548 6.26577L30.4949 4.66578C31.0502 4.30049 31.7881 4.37354 32.2629 4.83381L35.4556 7.9169C35.9378 8.37717 36.0328 9.11507 35.6821 9.67762L34.1698 12.1762C34.9369 13.4475 35.5214 14.7991 35.9159 16.1945L39.0063 16.8374C39.525 16.947 39.8976 17.4 39.9122 17.926L39.9999 22.8282C40.0072 23.3543 39.6492 23.8218 39.1378 23.946L36.0766 24.6985C35.7332 26.1086 35.1926 27.4748 34.4766 28.7752L35.9378 31.0108C36.3835 31.6903 36.2958 32.5889 35.7332 33.1661L32.9935 36.0008C32.431 36.5852 31.5397 36.7021 30.8456 36.2784L28.5589 34.8903C27.2876 35.6574 25.936 36.2419 24.5406 36.6364L23.9196 39.6391C23.8027 40.209 23.3059 40.6181 22.7214 40.6327L17.9945 40.7131C17.4101 40.7204 16.8987 40.3258 16.7598 39.7633L16.0292 36.7898C14.6192 36.4464 13.253 35.9058 11.9526 35.1898L9.53431 36.7752C8.96445 37.1478 8.21194 37.082 7.71514 36.6071L4.55899 33.5606C4.0695 33.0857 3.96722 32.3332 4.32521 31.7487L5.82291 29.2793C5.0558 28.0081 4.47132 26.6565 4.07681 25.2611L0.935271 24.6109C0.445776 24.5086 0.0950934 24.0848 0.0877875 23.588L0.000116822 18.5762C-0.00718907 18.0794 0.328882 17.641 0.811072 17.5242L3.93069 16.757C4.27407 15.347 4.8147 13.9808 5.53068 12.6803L3.98914 10.3205C3.59462 9.71416 3.66768 8.91051 4.17178 8.39179L7.11606 5.34523C7.62017 4.82652 8.41651 4.71692 9.03751 5.09683L11.4485 6.558ZM15.9489 14.6968C11.9453 17.6849 12.0475 23.6246 16.1534 26.4666C18.6448 28.1908 22.0493 28.1323 24.4749 26.3204C28.4858 23.3323 28.3762 17.3926 24.2703 14.5434C21.779 12.8192 18.3744 12.8849 15.9489 14.6895V14.6968Z" fill="#4F5DC3"/>
</svg>
