<?xml version="1.0" encoding="utf-8"?>
<!-- Generator: Adobe Illustrator 27.0.0, SVG Export Plug-In . SVG Version: 6.00 Build 0)  -->
<svg version="1.1" id="圖層_1" xmlns="http://www.w3.org/2000/svg" xmlns:xlink="http://www.w3.org/1999/xlink" x="0px" y="0px"
	 viewBox="0 0 768 319.4" style="enable-background:new 0 0 768 319.4;" xml:space="preserve">
<style type="text/css">
	.st0{fill:#ECF0F2;}
	.st1{fill:#C9D1D3;}
	.st2{enable-background:new    ;}
	.st3{fill:#FF6F57;}
	.st4{fill:#8B9920;}
	.st5{clip-path:url(#SVGID_00000009568079737328943540000015462821416252511630_);}
	.st6{fill:#3E4346;}
	.st7{fill:#FFFFFF;}
	.st8{fill:#231815;}
	.st9{fill:#F1846D;}
	.st10{fill:#21111D;}
	.st11{fill:#A29F50;}
	.st12{clip-path:url(#SVGID_00000050622888692281263720000009378404376089721249_);}
</style>
<g>
	<path class="st0" d="M751.6,77.1C731.7,43.3,685,30,652.5,27.9c-69-4.6-114.6,33.7-179.9,32.1C351.7,57,236.4,9.6,111.3,24.6
		c-25.6,3.1-56.7,14.3-78.2,42.3C2.9,106-6.2,179.3,10.4,226.8c10.1,29,31,44.3,54,50.8c50.9,14.4,83.9-15.7,135-10.2
		c58,6.2,126.5,40.5,186.2,33.3c39.6-4.8,67.1-25.3,103.8-27.3c51.3-2.8,91.2,23.7,141.1,20.1c42.5-3.1,73-18.5,106.2-51.1
		c25.1-24.6,35.3-82.8,29.9-118.8C764.2,107.8,758.6,88.9,751.6,77.1z"/>
</g>
<g>
	<path class="st1" d="M504.7,161.7c2.7-1.3,4.1-3.7,4.1-5.1c-0.2,0.1-0.5,0.2-1,0.2c-1.8,0-3.1-1.4-3.1-3.2c0-1.7,1.2-3.3,3.5-3.3
		s3.9,2.1,3.9,4.8c0,4.4-2.9,7.5-6.1,8.9L504.7,161.7z M513.8,161.7c2.6-1.3,4-3.7,4-5.1c-0.2,0.1-0.5,0.2-0.9,0.2
		c-1.9,0-3.1-1.4-3.1-3.2c0-1.7,1.3-3.3,3.5-3.3s3.9,2.1,3.9,4.8c0,4.4-2.9,7.5-6.1,8.9L513.8,161.7z"/>
</g>
<g>
	<path class="st1" d="M317.8,150.6c-2.6,1.3-4,3.7-4,5.1c0.2-0.1,0.5-0.2,0.9-0.2c1.9,0,3.1,1.4,3.1,3.2c0,1.7-1.3,3.3-3.5,3.3
		s-3.9-2.1-3.9-4.8c0-4.4,2.9-7.5,6.1-8.9L317.8,150.6z M326.9,150.6c-2.7,1.3-4.1,3.7-4.1,5.1c0.2-0.1,0.5-0.2,1-0.2
		c1.8,0,3.1,1.4,3.1,3.2c0,1.7-1.2,3.3-3.5,3.3c-2.2,0-3.9-2.1-3.9-4.8c0-4.4,2.9-7.5,6.1-8.9L326.9,150.6z"/>
</g>
<g class="st2">
	<path d="M273.2,163.4c-0.4,1.4-0.9,2.8-1.5,4.2V183h-1.8v-11.7c-0.4,0.7-0.9,1.4-1.4,2c-0.1-0.5-0.6-1.6-1-2.1
		c1.6-2,2.9-5.1,3.7-8.3L273.2,163.4z M278,171c-0.3,3.2-0.8,5.7-1.6,7.7c1.9,1.9,4.4,2.3,7.2,2.3c0.8,0,3.5,0,4.5,0
		c-0.3,0.4-0.6,1.3-0.7,1.8h-3.9c-3.1,0-5.8-0.5-7.9-2.5c-0.7,1.2-1.5,2.1-2.4,2.8c-0.3-0.4-1-1-1.4-1.3c1-0.7,1.9-1.7,2.6-3
		c-0.7-1.1-1.3-2.4-1.8-4.2l1.5-0.5c0.3,1.1,0.7,2.1,1.1,2.9c0.5-1.3,0.8-2.9,1-4.7H274c-0.3,0.2-0.6,0.4-0.6,0.6
		c-0.2-0.4-0.6-1.1-0.8-1.5c0.4-0.1,1-0.7,1.4-1.4c0.3-0.5,1.2-2.2,1.9-4h-2.6v-1.8h3.3l0.6-0.2l1.2,0.8c-0.8,2.1-1.8,4.2-2.8,5.8
		h1.2h0.3L278,171z M281.3,166.1h-2.6v-1.5h2.6V163h1.7v1.6h3.5v2.9h1.5v1.5h-1.5v3H283v1.4h3.8v1.6H283v1.4h4.4v1.6H283v2.4h-1.7
		V178h-3.4v-1.6h3.4V175h-2.8v-1.6h2.8V172h-2.6v-1.5h2.6V169h-3.5v-1.5h3.5V166.1z M283,166.1v1.4h2v-1.4H283z M284.9,169.1h-2v1.5
		h2V169.1z"/>
	<path d="M301.4,180.7h8.3v1.8h-18.6v-1.8h8.1v-3.2h-5.9v-1.8h5.9v-3h-4.9v-1.8c-1,0.7-1.9,1.3-2.9,1.8c-0.3-0.5-0.8-1.2-1.3-1.7
		c2.6-1.1,5.6-3.3,7.8-5.5h-3.5v-1.9h7c2,2.9,5.6,5.8,9.2,7.2c-0.4,0.4-1.1,1.3-1.4,1.8c-0.9-0.4-1.9-1-2.8-1.6v1.7h-5v3h6v1.8h-6
		L301.4,180.7L301.4,180.7z M294.4,170.9h11.9c-2.3-1.5-4.4-3.5-5.9-5.4C298.8,167.3,296.6,169.3,294.4,170.9z"/>
</g>
<g class="st2">
	<path class="st3" d="M354.7,164.9c-0.4,4.1-1.2,7.6-2.4,10.6c1.1,2.1,2.6,3.8,4.4,5c-0.6,0.5-1.5,1.5-1.9,2.3
		c-1.7-1.1-3-2.6-4.1-4.4c-1.3,2-2.9,3.6-5,5c-0.2-0.5-0.8-1.4-1.3-2l-1.8,1.5c-1-0.6-2.2-1.3-3.6-1.9c-1.8,0.8-4.4,1.6-7.8,2.1
		c-0.2-0.6-0.8-1.6-1.2-2.1c2.5-0.3,4.4-0.8,5.9-1.3c-1.3-0.5-2.6-1-3.7-1.3c0.4-0.4,0.8-1,1.2-1.6l-2.5,0.1l-0.3-2.2
		c1.2-0.1,2.7-0.1,4.3-0.2c0.4-0.6,0.7-1.2,1-1.7h-4.1v-5.1h5v-0.8h-4.3V164h-2.1v-2.4h2.1v-2.8h4.3v-1.7h2.5v1.7h4.5v2.8h1.9v2.4
		h-1.9v2.9h-4.5v0.8h5.1v2c1.8-3,2.8-7.8,3.3-12.6l2.8,0.4c-0.2,1.6-0.4,3.1-0.7,4.7h6.6v2.9h-1.7L354.7,164.9L354.7,164.9z
		 M334.6,170.6h2.3v-1h-2.3V170.6z M335.4,160.7v0.9h1.5v-0.9H335.4z M336.9,164.6v-1h-1.5v1H336.9z M336.1,177.2
		c0.9,0.3,1.9,0.6,2.8,1c1-0.6,1.6-1.3,2-2l-4.3,0.2L336.1,177.2z M343.8,176c-0.3,1.1-0.9,2.2-2.1,3.3c1,0.4,1.9,0.9,2.7,1.3
		c2.2-1.3,3.9-3.1,5-5.4c-0.6-1.7-1.2-3.6-1.7-5.6c-0.3,0.7-0.7,1.4-1.1,2c-0.4-0.5-1.4-1.6-2-2v2.9H339c-0.3,0.5-0.6,1.1-0.9,1.6
		l3.3-0.2v-1h2.6v0.9l0.9-0.1v2.1L343.8,176z M339.4,160.7v0.9h1.6v-0.9H339.4z M341,164.6v-1h-1.6v1H341z M339.4,169.5v1h2.2v-1
		H339.4z M349.3,164.9c0.3,2.4,0.8,4.7,1.4,6.7c0.6-2,1-4.2,1.2-6.7H349.3z"/>
	<path class="st3" d="M369.1,158c-0.7,1.9-1.6,3.8-2.6,5.7V183h-3.4v-14.2c-0.6,0.7-1.2,1.4-1.8,2.1c-0.3-0.8-1.2-2.7-1.8-3.5
		c2.5-2.5,5-6.5,6.4-10.5L369.1,158z M385.4,178.8v3.2h-17.6v-3.2h9.8c1-3.6,1.9-9.1,2.3-13.1l3.5,0.5c-0.7,4.2-1.7,9.1-2.7,12.6
		H385.4z M375.4,161.6c-0.2-1.2-0.8-3-1.2-4.3l3.2-0.8c0.6,1.3,1.1,3.1,1.4,4.3l-2.9,0.8h8.6v3.2h-15.6v-3.2H375.4z M372.2,178
		c-0.2-2.9-0.9-7.8-1.7-11.6l3-0.7c0.8,3.7,1.6,8.5,1.9,11.3L372.2,178z"/>
	<path class="st3" d="M409.8,172.8c1.5,1.3,3.4,2.6,5.5,3.3c-0.7,0.6-1.7,1.8-2.2,2.6c-1.5-0.7-3-1.7-4.4-2.9v2.1h-5.1v1.8h9.1v2.7
		h-21.3v-2.7h8.8v-1.8h-5V176c-1.4,1.1-2.9,2.2-4.5,2.9c-0.5-0.8-1.4-2-2.1-2.6c2-0.8,4.1-2,5.7-3.5h-5.4v-2.7h5.4v-8.4h-3.9V159
		h3.9v-2.1h3.3v2.1h8.8v-2.1h3.4v2.1h3.8v2.7h-3.8v8.4h5.2v2.7L409.8,172.8L409.8,172.8z M408.1,175.1c-0.8-0.7-1.4-1.5-2-2.3h-7.9
		c-0.6,0.8-1.3,1.6-2,2.3h4v-1.7h3.4v1.7H408.1z M397.6,161.7v1.2h8.8v-1.2H397.6z M397.6,166.5h8.8v-1.2h-8.8V166.5z M397.6,170.1
		h8.8v-1.3h-8.8V170.1z"/>
	<path class="st3" d="M422.3,179.7v2.1h-2.4v-9.3c-0.4,0.7-0.8,1.3-1.3,1.8c-0.1-0.8-0.7-2.8-1.1-3.7c1.7-2.3,2.9-5.7,3.6-9.4h-2.7
		v-3h8.5v3H424c-0.4,1.9-0.9,3.8-1.5,5.7h4.1v12.9h-4.3L422.3,179.7L422.3,179.7z M424.4,169.7h-2.1v7h2.1V169.7z M436.9,179.6
		c0.6,0.1,1.1,0.1,1.8,0.1c0.9,0,4.7,0,5.9,0c-0.4,0.6-0.8,2-0.9,2.8h-5.2c-3.5,0-6.1-0.6-8-3.3c-0.6,1.6-1.4,2.9-2.8,4l-2.2-2.1
		c2.2-1.7,3.1-4.7,3.4-8.2l2.8,0.5c-0.1,0.8-0.2,1.6-0.3,2.3c0.6,1.5,1.4,2.5,2.5,3v-6.5h-6.7v-2.7h14.3l0.5-0.1l2.2,0.7
		c-0.5,1.5-1.1,3.3-1.7,4.4l-2.5-0.8c0.1-0.4,0.3-0.9,0.5-1.4H437v2.3h6.2v2.7H437L436.9,179.6L436.9,179.6z M430.3,165.3
		c-0.8,1.2-1.6,2.4-2.5,3.2c-0.3-0.6-0.9-1.7-1.4-2.2c1.1-0.9,2.3-2.5,3-4.1h-2v-2.5h2.9V157h2.6v2.7h2.3v2.5h-2.3
		c0.7,0.6,2.4,2.3,2.8,2.8l-1.6,2c-0.3-0.5-0.7-1.2-1.2-1.9v3.9h-2.6L430.3,165.3L430.3,165.3z M438.3,166c-0.7,1.1-1.5,2.1-2.3,2.7
		c-0.3-0.6-0.8-1.6-1.3-2.1c1.3-0.9,2.5-2.7,3.3-4.5h-2.2v-2.5h2.6v-2.7h2.6v2.7h3.1v2.5h-2.6c1,1,2.7,3,3.2,3.6l-1.8,2.2
		c-0.4-0.8-1.1-2.1-1.8-3.2v4.1h-2.6V166H438.3z"/>
	<path class="st3" d="M456.1,166.7c-0.4,4.1-1.1,7.5-2.2,10.2c2.6,2.2,6.1,2.7,10.2,2.7c1.6,0,7.4,0,9.3-0.1c-0.5,0.7-1,2.2-1.2,3.1
		H464c-4.7,0-8.5-0.6-11.4-3c-0.9,1.5-1.9,2.6-3.1,3.5c-0.5-0.6-1.7-1.8-2.4-2.2c1.3-0.9,2.4-2.2,3.3-3.7c-1-1.5-1.8-3.2-2.5-5.4
		l2.4-0.8c0.4,1.3,0.8,2.4,1.4,3.3c0.5-1.4,0.8-3.1,1.1-5h-4.5c1.1-2.1,2.6-5.1,3.7-7.9h-4.1v-2.9h8.6c-1.1,2.5-2.4,5.5-3.6,7.9h0.7
		l0.6-0.1L456.1,166.7z M462,161.6h-4.8v-2.5h4.8V157h3.1v2.1h6.1v3.8h1.5v2.6h-1.5v3.7h-6.1v1.3h6.4v2.4h-6.4v1.4h7.3v2.6h-7.3v1.9
		H462v-1.9h-6.2v-2.6h6.2v-1.4h-5.1v-2.4h5.1v-1.3h-4.9v-2.5h4.9v-1.2h-6.3v-2.6h6.3V161.6z M465.1,161.6v1.2h3.2v-1.2H465.1z
		 M468.3,165.4h-3.2v1.2h3.2V165.4z"/>
	<path class="st3" d="M487.6,164.2h-10.9v-2.6h4.6c-0.4-1.1-1.1-2.5-1.8-3.5l2.6-1.2c0.8,1.1,1.6,2.7,2,3.7l-1.9,1h5.3L487.6,164.2
		L487.6,164.2z M486.4,166.1c2.7-1.5,3.1-3.4,3.1-5.3v-3h9.4v6.1c0,0.8,0.1,1.1,0.4,1.1h1.1c0.4,0,1-0.1,1.4-0.2
		c0.1,0.8,0.1,2,0.2,2.8c-0.4,0.2-1,0.2-1.6,0.2H499c-2.6,0-3.1-1.2-3.1-4v-3h-3.4l0,0c0,2.7-0.8,5.9-4.3,7.7
		c-0.3-0.5-1.2-1.5-1.8-2.1v1.4h-8.6v-2.5h8.6L486.4,166.1L486.4,166.1z M486.5,171.7h-8.6v-2.5h8.6V171.7z M501.5,169.8
		c-0.9,3.4-2.5,6.1-4.5,8.2c1.7,0.9,3.6,1.6,5.8,2c-0.7,0.7-1.6,2.1-2,3c-2.5-0.6-4.6-1.5-6.5-2.7c-1.9,1.2-4.1,2.2-6.5,2.8
		c-0.3-0.7-0.8-1.7-1.3-2.5v1h-5.7v1.2H478V173h8.6v6.9c1.9-0.4,3.6-1.1,5.2-2c-1.5-1.5-2.7-3.2-3.7-5.2l1.8-0.6h-2.6V169H499
		l0.6-0.1L501.5,169.8z M483.6,175.7h-2.9v3.1h2.9V175.7z M490.9,172.1c0.8,1.5,1.9,2.8,3.3,4c1.2-1.1,2.2-2.4,3-4H490.9z"/>
</g>
<g>
	<path class="st1" d="M505.2,219.1c2.7-1.3,4.1-3.7,4.1-5.1c-0.2,0.1-0.5,0.2-1,0.2c-1.8,0-3.1-1.4-3.1-3.2c0-1.7,1.2-3.3,3.5-3.3
		c2.2,0,3.9,2.1,3.9,4.8c0,4.4-2.9,7.5-6.1,8.9L505.2,219.1z M514.2,219.1c2.6-1.3,4-3.7,4-5.1c-0.2,0.1-0.5,0.2-0.9,0.2
		c-1.9,0-3.1-1.4-3.1-3.2c0-1.7,1.3-3.3,3.5-3.3s3.9,2.1,3.9,4.8c0,4.4-2.9,7.5-6.1,8.9L514.2,219.1z"/>
</g>
<g>
	<path class="st1" d="M320.8,206.4c-2.6,1.3-4,3.7-4,5.1c0.2-0.1,0.5-0.2,0.9-0.2c1.9,0,3.1,1.4,3.1,3.2c0,1.7-1.3,3.3-3.5,3.3
		s-3.9-2.1-3.9-4.8c0-4.4,2.9-7.5,6.1-8.9L320.8,206.4z M329.8,206.4c-2.7,1.3-4.1,3.7-4.1,5.1c0.2-0.1,0.5-0.2,1-0.2
		c1.8,0,3.1,1.4,3.1,3.2c0,1.7-1.2,3.3-3.5,3.3c-2.2,0-3.9-2.1-3.9-4.8c0-4.4,2.9-7.5,6.1-8.9L329.8,206.4z"/>
</g>
<g class="st2">
	<path d="M270,234.7c-0.2,1.9-0.6,3.9-1,5.3c-0.3-0.2-1.1-0.4-1.4-0.5c0.5-1.3,0.8-3.3,0.9-5L270,234.7z M279.6,225.7
		c-0.3,1.2-0.7,2.4-1.2,3.7v11h-1.7v-7.6c-0.3,0.5-0.6,0.9-0.9,1.3c-0.2-0.4-0.7-1.1-1.1-1.4l0.1-0.2l-0.9,0.4
		c0-0.2-0.1-0.4-0.1-0.5c-4.4,0.7-5,0.9-5.4,1.1c-0.1-0.4-0.4-1.3-0.6-1.7c0.5-0.1,0.9-0.7,1.6-1.5c0.3-0.4,0.9-1.2,1.6-2.3
		c-2,0.2-2.4,0.4-2.8,0.5c-0.1-0.4-0.4-1.2-0.5-1.7c0.4-0.1,0.7-0.6,1.1-1.2c0.5-0.7,1.9-3.1,2.7-5.5l1.6,0.7c-0.8,2-1.9,4-3,5.7
		l1.9-0.2c0.6-1,1.1-2,1.6-3.1l1.5,1c-1.3,2.5-2.9,5-4.6,7.1l2.9-0.4c-0.2-0.7-0.5-1.4-0.8-2l1.3-0.5c0.5,1.1,1.1,2.6,1.3,3.6
		c1.3-1.9,2.2-4.6,2.6-6.7L279.6,225.7z M272.2,234.3c0.3,1.5,0.5,3.3,0.6,4.6l-1.4,0.4c0-1.3-0.3-3.2-0.5-4.7L272.2,234.3z
		 M274.4,233.7c0.5,1.3,1,3,1.3,4.2l-1.4,0.5c-0.2-1.2-0.7-2.9-1.1-4.2L274.4,233.7z M277.3,226.1h-1.8v-3.8h5.3
		c-0.2-0.5-0.5-1.1-0.8-1.5l1.6-0.7c0.5,0.6,1,1.5,1.2,2.2h4.8v3.5h-1.9V224h-8.5L277.3,226.1L277.3,226.1z M284.5,227.9
		c-0.2,0.7-0.4,1.3-0.6,1.9h3.3v10.4h-1.8v-0.8h-3.9v0.9h-1.7v-10.5h2.2c0.1-0.6,0.2-1.3,0.4-1.9h-3v-1.7h8.2v1.7L284.5,227.9
		L284.5,227.9z M285.5,231.5h-3.9v2.3h3.9V231.5z M285.5,237.8v-2.4h-3.9v2.4H285.5z"/>
	<path d="M293.9,230c-0.7-0.7-2.3-1.6-3.6-2.2l1.1-1.5c1.3,0.5,2.8,1.3,3.6,2L293.9,230z M295.2,232.8c-0.8,2.4-1.8,5.1-2.8,7.3
		l-1.8-1.1c0.9-1.8,2.1-4.7,3-7.3L295.2,232.8z M294.9,224.2c-0.7-0.7-2.3-1.7-3.6-2.3l1.2-1.5c1.3,0.5,2.8,1.4,3.6,2.1L294.9,224.2
		z M310,227.5c-0.7,2.9-1.6,5.4-2.9,7.5c0.4,1.9,0.9,3,1.5,3.1c0.4,0,0.6-1.1,0.8-3.3c0.3,0.4,1.1,0.9,1.5,1.1
		c-0.5,3.7-1.4,4.6-2.2,4.6c-1.3,0-2.2-1.3-2.9-3.4c-1,1.3-2.2,2.4-3.6,3.3c-0.3-0.4-1-1-1.4-1.3c1.8-1.1,3.2-2.5,4.4-4.2
		c-0.5-2.5-0.8-5.7-1-9.3H298v4.1c0,3.2-0.3,7.9-2.3,10.9c-0.3-0.3-1.1-0.9-1.5-1.1c1.8-2.8,2-6.9,2-9.8v-5.9h8c0-1-0.1-2.1-0.1-3.1
		h1.9c0,1.1,0,2.1,0.1,3.1h3.1c-0.6-0.7-1.8-1.6-2.8-2.3l1.1-1c1,0.6,2.3,1.5,2.9,2.2l-1.1,1.1h1v1.8h-4.2c0.2,2.5,0.4,4.8,0.6,6.7
		c0.7-1.5,1.2-3.1,1.6-4.9L310,227.5z M303.8,228.5h-5V227h5V228.5z M300.2,236v1.3h-1.4V230h5v6H300.2z M300.2,231.5v2.9h2.1v-2.9
		H300.2z"/>
</g>
<g class="st2">
	<path class="st4" d="M356.3,224.5c-0.9,3.7-2.1,6.9-3.8,9.6c0.4,1.8,1,2.9,1.5,2.9c0.4,0,0.6-1.3,0.7-4.2c0.6,0.7,1.6,1.4,2.3,1.7
		c-0.4,4.3-1.3,5.5-3.4,5.5c-1.4,0-2.4-1.2-3.3-3.1c-1.1,1.3-2.5,2.5-3.9,3.5c-0.4-0.6-1.6-1.7-2.3-2.2c2.1-1.2,3.8-2.8,5.2-4.7
		c-0.7-3.4-1.1-7.8-1.3-12.4h-5.5v3h5c0,0,0,0.8,0,1.1c-0.1,6.3-0.2,8.7-0.8,9.5c-0.4,0.6-0.9,0.9-1.5,1s-1.5,0.1-2.4,0.1
		c-0.1-0.8-0.3-1.9-0.7-2.6c-0.4,2.7-1.3,5.3-3.1,7.3c-0.4-0.6-1.7-1.6-2.4-2c1.1-1.3,1.9-2.8,2.2-4.4c-2.5,1-5.1,2.1-7.2,3
		l-1.1-3.3c0.8-0.2,1.8-0.6,2.9-0.9V224H331v-3.1h2.4v-6.3h3.1v6.3h2.2v3.1h-2.2v7.7l2.2-0.8l0.4,2c0.4-1.9,0.4-3.9,0.4-5.6V218h8.4
		c0-1.3-0.1-2.6-0.1-3.9h3.1c0,1.3,0,2.6,0,3.9h2.2c-0.6-0.9-1.4-1.9-2.1-2.7l2.3-1.3c1,1,2.2,2.4,2.7,3.3l-1.2,0.7h1.5v3H351
		c0.1,2.9,0.3,5.7,0.6,8.1c0.7-1.6,1.2-3.4,1.7-5.3L356.3,224.5z M342.4,226.9v0.6c0,1.7-0.1,3.8-0.4,5.7c0.7,0.1,1.2,0.1,1.5,0.1
		s0.5-0.1,0.7-0.3c0.3-0.4,0.3-1.9,0.4-6.1H342.4z"/>
	<path class="st4" d="M374.9,230.9c0.9,2.3,1.9,5.4,2.2,7.2l-2.7,1c-0.1-0.5-0.2-1.1-0.4-1.8c-4.3,1.4-5.1,1.7-5.7,2.1
		c-0.1-0.6-0.6-1.7-1-2.2c0.5-0.3,1.3-0.8,1.3-2v-8.4c-1,6.1-3.1,10.5-7.3,13.2c-0.3-0.6-1.1-1.7-1.7-2.2c2.6-1.5,4.3-3.8,5.3-6.8
		c-3.2,0.4-3.9,0.6-4.4,0.8c-0.1-0.5-0.6-1.9-0.9-2.6c0.6-0.1,1.2-0.8,1.9-1.8c0.4-0.5,1.1-1.7,2-3.2c-1.9,0.2-2.4,0.4-2.8,0.6
		c-0.2-0.6-0.6-2-1-2.7c0.4-0.1,0.9-0.7,1.3-1.4s1.7-3.6,2.3-6.3l3.1,0.7c-0.8,2.3-1.9,4.7-3,6.6l1.5-0.1c0.4-0.8,0.7-1.6,1-2.4
		l2.7,1.1v-3.4h2.7c-0.3-0.7-0.7-1.3-1.1-1.9l2.7-1c0.6,0.9,1.2,1.9,1.6,2.8h2v13h-5v5.2l1.8-0.6c-0.3-1-0.7-2.1-1-3.1L374.9,230.9z
		 M368.6,226.5v-6c-1.4,2.9-3.1,5.7-4.8,8.1l1.9-0.2c0.1-0.7,0.3-1.4,0.4-2.2L368.6,226.5z M371.5,219.9v2.5h2.4v-2.5H371.5z
		 M373.8,227.3V225h-2.4v2.3H373.8z M385.8,216.8c-0.8,2.7-1.7,6.1-2.6,8.4c1.8,2.5,2.1,4.7,2.1,6.6c0,2-0.4,3.3-1.2,4
		c-0.4,0.4-1,0.6-1.6,0.7c-0.5,0.1-1.1,0.1-1.8,0.1c0-0.8-0.3-2.1-0.7-2.9c0.5,0,0.9,0,1.2,0c0.3,0,0.5-0.1,0.8-0.3
		c0.3-0.3,0.5-1,0.5-2c0-1.5-0.4-3.6-2.1-5.8c0.6-2,1.3-4.9,1.8-7.1H380v21.9h-2.7v-24.8h5.9l0.4-0.1L385.8,216.8z"/>
	<path class="st4" d="M413.1,222.3c-0.4,4.1-1.2,7.6-2.4,10.6c1.1,2.1,2.6,3.8,4.4,5c-0.6,0.5-1.5,1.5-1.9,2.3
		c-1.7-1.1-3-2.6-4.1-4.4c-1.3,2-2.9,3.6-5,5c-0.2-0.5-0.8-1.4-1.3-2l-1.8,1.5c-1-0.6-2.2-1.3-3.6-1.9c-1.8,0.8-4.4,1.6-7.8,2.1
		c-0.2-0.6-0.8-1.6-1.2-2.1c2.5-0.3,4.4-0.8,5.9-1.3c-1.3-0.5-2.6-1-3.7-1.3c0.4-0.4,0.8-1,1.2-1.6l-2.5,0.1l-0.3-2.2
		c1.2-0.1,2.7-0.1,4.3-0.2c0.4-0.6,0.7-1.2,1-1.7h-4.1v-5.1h5v-0.8h-4.3v-2.9h-2.1V219h2.1v-3h4.3v-1.7h2.5v1.7h4.5v2.8h1.9v2.4
		h-1.9v2.9h-4.5v0.8h5.1v2c1.8-3,2.8-7.8,3.3-12.6l2.8,0.4c-0.2,1.6-0.4,3.1-0.7,4.7h6.6v2.9L413.1,222.3L413.1,222.3z M393,227.9
		h2.3v-1H393V227.9z M393.8,218.1v0.9h1.5v-0.9H393.8z M395.3,222v-1h-1.5v1H395.3z M394.6,234.5c0.9,0.3,1.9,0.6,2.8,1
		c1-0.6,1.6-1.3,2-2l-4.3,0.2L394.6,234.5z M402.2,233.4c-0.3,1.1-0.9,2.2-2.1,3.3c1,0.4,1.9,0.9,2.7,1.3c2.2-1.3,3.9-3.1,5-5.4
		c-0.6-1.7-1.2-3.6-1.7-5.6c-0.3,0.7-0.7,1.4-1.1,2c-0.4-0.5-1.4-1.6-2-2v2.9h-5.6c-0.3,0.5-0.6,1.1-0.9,1.6l3.3-0.2v-1h2.6v0.9
		l0.9-0.1v2.1L402.2,233.4z M397.8,218.1v0.9h1.6v-0.9H397.8z M399.5,222v-1h-1.6v1H399.5z M397.8,226.9v1h2.2v-1H397.8z
		 M407.7,222.3c0.3,2.4,0.8,4.7,1.4,6.7c0.6-2,1-4.2,1.2-6.7H407.7z"/>
	<path class="st4" d="M427.6,215.3c-0.7,1.9-1.6,3.8-2.6,5.7v19.4h-3.4v-14.2c-0.6,0.7-1.2,1.4-1.8,2.1c-0.3-0.8-1.2-2.7-1.8-3.5
		c2.5-2.5,5-6.5,6.4-10.5L427.6,215.3z M443.9,236.1v3.2h-17.6v-3.2h9.8c1-3.6,1.9-9.1,2.3-13.1l3.5,0.5c-0.7,4.2-1.7,9.1-2.7,12.6
		H443.9z M433.9,219c-0.2-1.2-0.8-3-1.2-4.3l3.2-0.8c0.6,1.3,1.1,3.1,1.4,4.3l-2.9,0.8h8.6v3.2h-15.6V219H433.9z M430.6,235.3
		c-0.2-2.9-0.9-7.8-1.7-11.6l3-0.7c0.8,3.7,1.6,8.5,1.9,11.3L430.6,235.3z"/>
	<path class="st4" d="M452,230.9c-1-0.8-3.2-2.2-4.7-3.1l2-2.2c1.5,0.8,3.7,2,4.8,2.8L452,230.9z M447.7,237.8
		c1.5-1.5,3.8-4,5.6-6.3l1.9,2.4c-1.6,2.2-3.4,4.5-5.2,6.5L447.7,237.8z M453.5,218.7h-5.6v-2.9h5.6v-1.5h3.3v1.5h2.9v2.9h-2.9v1.8
		h-3.3V218.7z M450.9,220.1c1.4,0.8,3.7,2,4.8,2.7l-2,2.5c-1.1-0.7-3.3-2-4.8-2.9L450.9,220.1z M471.8,223c-1.2,1.8-2.8,3.3-4.7,4.7
		c2.1,0.8,4.4,1.3,6.8,1.7c-0.7,0.7-1.5,1.9-1.9,2.7c-0.4-0.1-0.9-0.2-1.3-0.3v8.6h-3.3v-1.1h-7.5v1.1h-3.1v-8.2
		c-0.4,0.1-0.8,0.2-1.1,0.3c-0.3-0.8-1-2-1.6-2.7c2.4-0.4,4.9-1.2,7.1-2.2c-0.8-0.5-1.5-1.1-2.2-1.8c-0.8,0.8-1.7,1.6-2.7,2.3
		c-0.5-0.6-1.6-1.6-2.3-2c2.8-1.8,4.9-4.3,6.2-6.3l3.2,0.6c-0.3,0.4-0.6,0.8-0.9,1.3h6.6l0.5-0.1L471.8,223z M470.2,231.7
		c-2.1-0.6-4.1-1.3-6-2.2c-1.8,0.9-3.6,1.6-5.5,2.2H470.2z M467.4,236.7v-2.6h-7.5v2.6H467.4z M461.1,224.2c0.8,0.7,1.8,1.4,2.9,2
		c1.1-0.6,2-1.3,2.9-2H461.1z M463.9,218.7h-2.8v-2.9h2.8v-1.5h3.3v1.5h5.7v2.9h-5.7v1.9h-3.3V218.7z"/>
	<path class="st4" d="M502,226.1v2.9h-16.2c-1.2,5-3.5,8.9-6.7,11.4c-0.6-0.6-2-1.8-2.8-2.3c2.9-1.9,4.9-5.2,5.9-9.1h-5.1v-2.9h10.7
		v-1.5h-8v-2.7h8v-1.5h-9.5v-2.9h4.9c-0.4-0.7-0.8-1.5-1.3-2.1l2.9-1.1c0.8,0.9,1.6,2.2,1.9,3.1l-0.2,0.1h5.9c0.6-1,1.3-2.4,1.6-3.3
		l3.6,0.9c-0.6,0.9-1.2,1.7-1.7,2.4h5v2.9h-9.8v1.5h8.3v2.7h-8.3v1.5L502,226.1L502,226.1z M493.7,236.9h7.9v2.9h-18.9v-2.9h7.6
		v-3.5h-4.9v-2.9h14.3v2.9h-5.9v3.5H493.7z"/>
</g>
<g>
	<g>
		<g>
			<g>
				<defs>
					<path id="SVGID_1_" d="M369.6,277.9c-29.9,0.6-66.3-8.8-101.6-18c-28.9-7.5-56.2-14.5-81.4-16.9c-5.2-0.5-10.6-0.7-15.9-0.6
						c-20.9,0.4-39.3,5.4-55.6,9.8c-14.4,3.9-28.1,7.6-42,7.9c-8,0.2-15.6-0.8-23.4-2.9C27,251,13.2,238.8,6.5,218.9
						C-1,196.4-3.3,167.3,0.2,139c3.6-29.2,12.9-54.7,26.2-72c15.5-20.2,38.3-32.4,67.7-36.2c13.6-1.8,28.1-2.8,42.9-3.1
						C192.5,26.6,249.9,36,305.5,45c55.8,9.1,113.5,18.6,170.6,17.7h0.9c35.6-0.7,65.9-12,95.1-22.9c28.3-10.6,55.1-20.6,86.4-21.2
						c3.1-0.1,6.2,0,9.3,0.1c27.8,1.1,69.7,28.2,86.3,55.7c5.2,8.7,10.3,25.6,11.7,39.4c3.4,33.3-8.2,88.2-27.9,106.3
						c-33.3,30.7-59.7,42.8-97.6,44.7c-1.1,0.1-2.2,0.1-3.4,0.1c-19.7,0.4-36.5-4.1-56-9.3c-21.6-5.8-46.2-12.3-76.7-11.7
						c-3.9,0.1-7.9,0.3-11.9,0.6c-27.2,2.1-48.1,10.9-66.5,18.6c-14.3,6-27.8,11.7-43.3,13.8C378.5,277.5,374.2,277.8,369.6,277.9z"
						/>
				</defs>
				<clipPath id="SVGID_00000030489129436761065040000003534781612265648061_">
					<use xlink:href="#SVGID_1_"  style="overflow:visible;"/>
				</clipPath>
				<g style="clip-path:url(#SVGID_00000030489129436761065040000003534781612265648061_);">
					<g>
						<path class="st6" d="M164.4,378.6c0,0,20.9,6.6,21.8,8.4c0.9,1.8,0,5.6,0,5.6h-45.7l1.4-11.7L164.4,378.6L164.4,378.6z"/>
						<g>
							<path class="st7" d="M65.9,208.7c9.7,15.8,41.4,15.2,46.6,10.9c0.2-0.2,0.5-0.6,0.8-1.1c3-5.8,9.9-30.5,16.8-56.8
								c9.1-34.6,18.2-71.9,18.2-71.9s0.4-9.5-12.3-10.5c-1.3-0.1-2.9-0.2-4.9-0.4c-17.3-1.4-57.5-4.4-62.9,6.6
								c-3.1,6.4-4.3,15.8-3.8,26.1c0.5,9.5,2.5,19.9,5.9,29.1C77.4,159.6,56.2,192.9,65.9,208.7L65.9,208.7z"/>
							<path class="st8" d="M136,78.8c-1.3-0.1-2.9-0.2-4.8-0.4c0,0-0.1,0-0.2,0c-0.1,0-0.2,0-0.2,0c-0.1,0-0.2,0-0.3,0
								c-3.4-0.3-7.1-0.5-10.7-0.8c-1.2-0.1-2.5-0.2-3.7-0.2s-2.5-0.1-3.7-0.2c-2.5-0.1-5-0.2-7.4-0.2c-4.3-0.1-8.6,0-12.6,0.2
								c-1.3,0-2.5,0.2-3.7,0.2c-0.2,0-0.3,0-0.5,0c-10.2,1.1-18,3.4-20.2,7.9c-2.5,5.2-3.9,12.4-3.9,20.9c0,1,0,2,0,3.2
								c0,0.7,0,1.5,0.1,2.3c0,0.5,0,0.9,0.1,1.4c0,0.2,0,0.4,0,0.5c0,0.7,0.1,1.5,0.2,2.2c0,0.2,0,0.5,0,0.7
								c0.9,8.4,2.8,16.9,5.5,24.4c0.6,1.6,1,3.3,1.2,5c0,0.1,0,0.2,0,0.4s0,0.2,0,0.3c0.6,5.6-0.4,11.9-1.8,18.4
								c-0.7,3.2-1.5,6.4-2.3,9.5c-1.2,4.8-2.4,9.4-3.2,13.9c0,0.1,0,0.2,0,0.4c0,0.1,0,0.2-0.1,0.3c-1.4,7.7-1.4,14.7,1.8,19.9
								c5.4,8.8,17.1,11.9,23.5,12.9c2.7,0.5,5.4,0.7,8,0.8c0.3,0,0.7,0,1,0c0.2,0,0.5,0,0.7,0c1,0,2,0,3-0.1
								c1.5-0.1,2.9-0.2,4.1-0.5h0.1c0.1,0,0.2,0,0.2,0c0.1,0,0.2,0,0.4,0c0.1,0,0.2,0,0.4-0.1c0.4-0.1,0.7-0.2,1.1-0.2
								c2.1-0.5,3.7-1.1,4.6-1.8c0.2-0.2,0.5-0.6,0.9-1.3c0.1-0.2,0.2-0.3,0.2-0.5c0.1-0.2,0.2-0.3,0.2-0.5c0.5-1,0.9-2.3,1.5-3.8
								c1.4-3.8,3.1-9.5,5.3-16.9c0-0.1,0.1-0.2,0.1-0.4c0-0.1,0.1-0.2,0.1-0.4c0.2-0.5,0.3-0.9,0.4-1.4c0-0.2,0.1-0.5,0.2-0.7
								c0-0.2,0.1-0.5,0.2-0.7c2.3-8,4.9-17.7,8-29.1c0.1-0.4,0.2-0.9,0.3-1.3l0,0c0.1-0.4,0.2-0.9,0.3-1.3c0,0,0-0.1,0-0.2
								c4.5-16.9,8.9-34.6,12.3-48.2c0-0.1,0-0.2,0-0.3c0-0.1,0-0.2,0.1-0.2c1.1-4.2,2-8,2.8-11.3c1.8-7.2,2.9-11.7,2.9-11.8v-0.1
								C148.6,89.6,148.9,79.8,136,78.8L136,78.8z M142.1,113.1c0,0.1,0,0.2-0.1,0.3c-3.2,12.8-7.4,29.3-11.6,45.3
								c-0.1,0.5-0.2,0.9-0.4,1.4l0,0c-0.1,0.5-0.2,0.9-0.3,1.3c0,0,0,0,0,0.1c-3.2,12.1-5.9,22.3-8.3,30.6
								c-0.1,0.2-0.2,0.5-0.2,0.7s-0.1,0.5-0.2,0.7c-0.3,1-0.5,2-0.8,2.9c0,0.1-0.1,0.2-0.1,0.4c0,0.1-0.1,0.2-0.1,0.4
								c-2.1,7.4-3.9,13-5.2,16.7c-0.4,1.1-0.8,2.1-1.1,2.9c-0.1,0.2-0.1,0.3-0.2,0.5s-0.2,0.3-0.2,0.5c-0.1,0.2-0.2,0.5-0.3,0.6
								c-0.3,0.7-0.6,0.9-0.7,1c-0.9,0.8-2.7,1.4-5.1,1.8c-0.1,0-0.2,0-0.4,0.1c-0.1,0-0.2,0-0.4,0.1c-1.5,0.2-3.2,0.4-5.1,0.5h-0.2
								c-0.9,0-1.9,0-2.9,0c-0.2,0-0.3,0-0.5,0H97c-2.5-0.1-5.2-0.3-7.9-0.7c-6.4-1-17.7-4-23-12.6c-3.1-5-3-11.7-1.7-19.2
								c0-0.1,0-0.2,0.1-0.3c0-0.1,0-0.2,0-0.4c0.8-4.4,2-9.1,3.2-14c0.8-3.3,1.6-6.6,2.4-9.8c1.5-6.6,2.4-13,1.8-18.6
								c0-0.1,0-0.2,0-0.3s0-0.2,0-0.4c-0.2-1.8-0.6-3.4-1.2-5c-2.8-7.7-4.8-16.4-5.6-25c-0.1-0.7-0.1-1.4-0.2-2.1
								c0-0.5-0.1-0.9-0.1-1.4l0,0c0-0.2,0-0.3,0-0.4c0-0.3,0-0.7,0-1c0-0.1,0-0.2,0-0.3v-0.2c0-0.8,0-1.6,0-2.4c0-0.5,0-1.1,0-1.6
								c0.1-8.2,1.4-15.3,3.8-20.3c2.2-4.5,10.6-6.6,20.7-7.5l0,0c1.8-0.2,3.6-0.2,5.4-0.3l0,0c1.4,0,2.8-0.1,4.2-0.1
								c4.5-0.1,9.2,0,13.6,0.2c0.9,0,1.8,0.1,2.7,0.1c0.9,0,1.8,0.1,2.6,0.1c1.3,0.1,2.5,0.2,3.7,0.2c3.6,0.2,6.7,0.5,9.1,0.7
								c0.1,0,0.2,0,0.3,0s0.2,0,0.3,0h0.1c0.1,0,0.2,0,0.4,0c1.8,0.1,3.3,0.2,4.5,0.3c11.9,0.9,12,9.4,12,10.1
								c-0.1,0.5-1.2,5-3,12.1c-0.8,3.2-1.8,7-2.8,11.1C142.2,112.9,142.1,113,142.1,113.1L142.1,113.1z"/>
						</g>
						<g>
							<path class="st0" d="M64.4,112.4c0.1,0.2,0.1,1,0.1,1s4.8-30.6,17.1-24.9s17.6,60.9,17.6,60.9l-1.8,72.8l15.8-0.2l16.1-2.5
								l0.7-55.7l1.1-84.9c-17.3-1.4-57.5-4.5-62.9,6.8C65.2,92.1,63.9,101.9,64.4,112.4L64.4,112.4z"/>
							<path class="st8" d="M131.2,78.5c0,0-0.1,0-0.2,0c-0.1,0-0.2,0-0.2,0c-0.1,0-0.2,0-0.3,0c-3.4-0.3-7.1-0.6-10.7-0.8
								c-1.2-0.1-2.5-0.2-3.7-0.2s-2.5-0.1-3.7-0.2c-2.5-0.1-5-0.2-7.4-0.2c-4.3-0.1-8.6,0-12.6,0.2c-1.3,0-2.5,0.2-3.7,0.2
								c-0.2,0-0.3,0-0.5,0c-10.1,0.9-17.9,3.3-20.1,8c-2.4,5.1-3.8,12.3-3.9,20.7c0,1,0,2,0,3.2c0,1,0,2,0.1,3.1v0.1
								c0,0.1,0,0.2,0,0.4c0,0.2,0,0.4,0,0.5l0.2,2.2l0.1,0.9v-0.3l0.1-0.7l0.1-0.7l0.2-1.4c0,0,0,0,0-0.1c0.2-1.4,3.5-20.5,11-24.5
								c1.8-0.9,3.6-0.9,5.6,0c6.7,3.1,11.3,21.4,14.1,37.1c0.6,3.4,1.1,6.7,1.6,9.7c0,0.1,0,0.2,0.1,0.4c0,0.1,0,0.2,0,0.4
								c1.1,7.5,1.6,12.9,1.6,13.1v1.3l-1,30.7v1v1L97.1,222v0.3l0,0v0.3l0,0h1h3.7l4.5-0.1h0.3h0.4l6.4-0.1l1.4-0.2h0.3h0.3
								l14.4-2.3v-1v-1v-3.5L130,196v-0.7l0.4-33.5v-1.5l0,0v-1.4l0.7-51.7v-0.4v-0.5l0.1-8.8l0.2-18v-0.7L131.2,78.5L131.2,78.5z
								 M130.7,86.5l-0.1,10.1l0,0l-0.1,8.2v0.5v0.5l-0.7,55.5v1.4l0,0v1.5l-0.4,30.8v0.3v0.4l-0.2,18.3v1.6v1v1v1.3l-13.9,2.2H115
								h-0.3l-1.2,0.2l-5.2,0.1h-1h-0.4h-0.4h-0.3l-4.7,0.1h-0.2h-2.9H98l0,0l0.9-36.7v-1v-1l0.8-32.5v-1.4
								c-0.1-0.7-0.6-5.8-1.6-12.9c0-0.1,0-0.2,0-0.4c0-0.1,0-0.2,0-0.4c-0.5-3.4-1.1-7.2-1.8-11.2c-2.8-15.2-7.4-32.9-14.3-36
								c-1.1-0.5-2.1-0.7-3.2-0.7c-1,0-2.1,0.3-3.1,0.8c-6.3,3.3-9.6,16.4-10.8,22.3c0,0,0,0,0,0.1V110c0-0.8,0-1.6,0-2.4
								c0-0.5,0-1.1,0-1.6c0.2-8.2,1.5-15.2,3.8-20.2c2.2-4.6,10.6-6.8,20.7-7.6l0,0c1.8-0.2,3.6-0.2,5.4-0.3l0,0
								c1.4,0,2.8-0.1,4.2-0.1c4.5-0.1,9.2,0,13.6,0.2c0.9,0,1.8,0.1,2.7,0.1c0.9,0,1.8,0.1,2.6,0.1c1.3,0.1,2.5,0.2,3.7,0.2
								c3.6,0.2,6.7,0.5,9.1,0.7c0.1,0,0.2,0,0.3,0l-0.1,5.1v0.1v2.2L130.7,86.5L130.7,86.5z"/>
						</g>
						<path class="st9" d="M59.4,125c0.6-0.7,0.7-1.6,0.7-2.4c-0.6,0-0.9,0-1.1,0c-0.5-0.2-0.5-5.7-0.5-5.7c0.2-0.6,9.1-1.8,9.5-1.7
							c0.5,0.2,2.2,5.3,2,6c0,0.1-0.3,0.2-0.9,0.3c0.4,2,1,2.1,4.4,3.3c3.2,1.2,4.7,3.6,5.6,6.8c0.9,2.8,1.3,6.2,2.1,9.9
							c0.6,2.6,1.1,5.2,1.4,7.7c0.8,5.2,1,9.6,0.6,11.1c-1.1,4.1-21.5,5.7-23.2,4.6c-0.8-0.5-2.2-5.6-3.4-11.7
							c-1.2-5.9-2.3-12.8-2.6-17.1c0-0.6-0.1-1.2-0.1-1.7C53.9,128.3,57.1,127.5,59.4,125L59.4,125z"/>
						<g>
							<path class="st7" d="M82.2,140.2c0,0-15.8,11.2-29.6,8.9c0,0,0.1,40.7,15.1,40.4C94.6,188.9,82.2,140.2,82.2,140.2
								L82.2,140.2z"/>
							<path class="st8" d="M82.5,140.1l-0.1-0.5l-0.4,0.3c0,0-0.3,0.2-0.9,0.6c-1.5,1-4.9,3-9.2,4.9c-0.1,0-0.2,0.1-0.3,0.2
								c-0.1,0-0.2,0.1-0.3,0.1c-4.5,1.9-9.9,3.5-15.2,3.4c-1.1,0-2.3-0.1-3.4-0.3l-0.4-0.1v0.4c0,1.2,0.2,29.2,9.2,38.1
								c0.8,0.7,1.6,1.3,2.4,1.7c0.1,0.1,0.2,0.1,0.3,0.2c0.1,0,0.2,0.1,0.3,0.1c0.9,0.4,2,0.6,3,0.6h0.2c5.4-0.1,9.6-2.2,12.6-6.1
								C90.1,170.7,82.8,141.4,82.5,140.1L82.5,140.1z M67.6,189.2c-1.1,0-2.1-0.2-3-0.6c-0.1,0-0.2-0.1-0.3-0.2
								c-0.1,0-0.2-0.1-0.3-0.2c-0.7-0.4-1.4-0.9-2-1.5c-8.3-8.1-8.9-33.6-9-37.2c1.1,0.2,2.1,0.2,3.2,0.2
								c5.3,0.1,10.7-1.5,15.2-3.4c0.1,0,0.2-0.1,0.3-0.2c0.1,0,0.2-0.1,0.3-0.1c4.2-1.8,7.6-3.8,9.3-4.9c0.3-0.2,0.6-0.4,0.7-0.5
								c0.9,3.9,6.8,30.7-2.3,42.6C76.9,187.1,72.8,189,67.6,189.2L67.6,189.2z"/>
						</g>
						<path class="st6" d="M107.6,379.5c0,0-0.2,2.5,0.6,3.8c0.8,1.3,3,2.4,3.8,5.7c0.8,3.3,0.5,6.1,0.5,6.1s-15.3,1.2-20.1-0.1
							c-1.5-0.4-4.6-3-4.7-4s1.3-13.6,1.3-13.6L107.6,379.5L107.6,379.5z"/>
						<g>
							<path class="st7" d="M110.2,199.4c0,0-9.5,62.2-17.7,105.4c-8.5,44.5-12.1,75.8-12.1,75.8s12.7,1.1,21.9,0.2
								s11.3-1.1,11.3-1.1s11.5-56.8,18.5-83.8c7.4-28.2,10.9-50.2,10.9-50.2l18.8,50.1c0,0-3.1,10-10.6,32.3
								c-7.7,22.9-13.4,53.4-13.4,53.4l35-0.8c0,0,23.6-74.9,24-84.1c1.2-26.1-22.4-97.8-21.6-95.9
								C175.1,200.8,141,188.8,110.2,199.4L110.2,199.4z"/>
							<path class="st8" d="M143.2,245.2l-0.3-0.8l-0.1,0.9l-0.1,0.4c0,0,0,0.2-0.1,0.5c0.1,0,0.2,0,0.4,0c0-0.3,0.1-0.4,0.1-0.4
								l0.2,0.4c0.1,0,0.2,0,0.3,0L143.2,245.2z M143.2,245.2l-0.3-0.8l-0.1,0.9l-0.1,0.4c0,0,0,0.2-0.1,0.5c0.1,0,0.2,0,0.4,0
								c0-0.3,0.1-0.4,0.1-0.4l0.2,0.4c0.1,0,0.2,0,0.3,0L143.2,245.2z M186.7,239c-0.1-0.3-0.2-0.6-0.2-0.9
								c-0.1-0.3-0.2-0.6-0.2-0.9c-1.9-6.9-4-14.3-6.3-22.1c-1.2-3.9-2.4-8-3.7-12.1c-0.2-0.7-0.4-1.2-0.5-1.6h0.1l-0.4-1.1
								l-0.2,0.1c-2.2-0.7-22.4-7.2-45-5.4c-0.1,0-0.2,0-0.3,0s-0.2,0-0.3,0c-2.3,0.2-4.6,0.5-6.9,0.9c-0.1,0-0.2,0-0.4,0
								c-0.1,0-0.2,0-0.3,0.1c-0.2,0-0.5,0.1-0.7,0.1c-0.1,0-0.2,0-0.4,0.1l0,0c-0.1,0-0.2,0-0.4,0.1c-3.4,0.7-6.8,1.5-10.1,2.7
								l-0.2,0.1v0.2c0,0.1-0.4,2.8-1.1,7.3c0,0.2,0,0.4-0.1,0.6c0,0.2,0,0.4-0.1,0.6c-0.3,1.7-0.6,3.7-0.9,5.9
								c-0.4,2.3-0.8,4.8-1.2,7.6c0,0.1,0,0.2,0,0.4l0,0c0,0.1,0,0.2,0,0.3l0,0c0,0.1,0,0.2,0,0.4c-1.3,7.9-2.8,17.3-4.4,27.3
								c-0.1,0.3-0.1,0.7-0.2,1c0,0.3-0.1,0.7-0.2,1c-2.9,17.5-6.2,36.7-9.3,53.1c-1.9,10.2-3.6,19.7-5,28.3
								c-4.8,28.6-7,47.3-7,47.5v0.3h0.4c0.1,0,3.5,0.3,8,0.5c4.3,0.2,9.5,0.2,13.9-0.2c2.1-0.2,3.8-0.4,5.2-0.5
								c4.8-0.5,6-0.7,6.1-0.7h0.2v-0.2c0.1-0.3,4.5-22.4,9.6-45.5c3-13.9,6.3-28.2,8.9-38.3c6.3-24.1,9.8-43.8,10.7-48.9l18.3,48.8
								c-0.4,1.2-3.6,11.4-10.6,32.2c-0.8,2.3-1.6,4.8-2.3,7.3c-6.4,21.4-11.1,45.9-11.1,46.2L138,382l4.3-0.1l30.5-0.7h0.8l0.1-0.2
								c0.5-1.6,7.2-22.9,13.4-43.8c5.4-18.2,10.5-36.2,10.6-40.5C197.6,286.1,194,266.1,186.7,239L186.7,239z M196.4,296.7
								c-0.2,4.2-5.2,22.2-10.7,40.4c-6,20.3-12.5,40.9-13.2,43.4h-2.2l0,0l-28.5,0.6l-3.6,0.1c0.7-3.4,5-26,11.1-45.9
								c0.7-2.4,1.5-4.8,2.3-7c7.5-22.1,10.6-32.2,10.6-32.3v-0.1l-18.7-49.8l-0.3-0.9l-0.3-0.8l-0.1,0.9l-0.1,0.4
								c0,0,0,0.2-0.1,0.5c-0.6,3.5-4.1,24.1-10.8,49.6c-2.7,10.1-5.9,24.5-9,38.4c-4.8,21.8-9,42.6-9.5,45.1
								c-0.5,0.1-2.1,0.2-5.7,0.6c-1.4,0.2-3.2,0.3-5.3,0.5c-4.4,0.4-9.6,0.4-13.8,0.2c-3.7-0.1-6.7-0.3-7.7-0.5
								c0.3-2.7,2.5-20.7,7-47.2c1.4-8.6,3.1-18,5-28.2c3.2-16.4,6.5-35.7,9.4-53.3c0-0.3,0.1-0.7,0.2-1c0-0.3,0.1-0.7,0.2-1
								c1.6-10,3.2-19.3,4.4-27.2c0-0.1,0-0.2,0-0.3c0,0,0-0.1,0-0.2c0-0.1,0-0.1,0-0.2c0,0,0-0.1,0-0.2c0-0.1,0-0.2,0.1-0.4
								c0.4-2.7,0.8-5.2,1.1-7.5c0.3-1.8,0.5-3.4,0.8-4.8c0-0.2,0-0.4,0.1-0.6c0-0.2,0-0.4,0.1-0.6c0.7-4.4,1.1-7.3,1.2-8
								c3.2-1.1,6.3-1.9,9.5-2.5c0.1,0,0.2,0,0.4-0.1c0.1,0,0.2,0,0.4-0.1c0.4,0,0.7-0.1,1.1-0.2c0.1,0,0.2,0,0.4,0
								c0.1,0,0.2,0,0.4-0.1c2.3-0.4,4.5-0.7,6.7-0.9c0.1,0,0.2,0,0.3,0s0.2,0,0.4,0c22.7-1.8,42.8,4.7,44.8,5.4
								c0.1,0.4,0.3,1,0.7,2.1c1.3,4.1,2.5,8,3.6,11.8c2.3,7.8,4.5,15.2,6.4,22.2c0.1,0.3,0.2,0.6,0.2,0.9c0.1,0.3,0.2,0.6,0.2,0.9
								C193.3,266.3,196.9,286.1,196.4,296.7L196.4,296.7z M143.2,245.2l-0.3-0.8l-0.1,0.9l-0.1,0.4c0,0,0,0.2-0.1,0.5
								c0.1,0,0.2,0,0.4,0c0-0.3,0.1-0.4,0.1-0.4l0.2,0.4c0.1,0,0.2,0,0.3,0L143.2,245.2z"/>
						</g>
						<g>
							<g>
								<path class="st7" d="M165.2,73.4c0-6.1-2.4-12.3-3.6-18.1l-30.9,0.2c0.1,2.8,0.8,6.1,0.3,8.9c-1.8-0.3-3.6,0-5.1,1.2
									c-2.6,2.3-2.6,7.1-0.1,9.5c1.2,1.1,3.9,0.9,4.4,1.7c0.8,1.4,0.5,4.5,0.7,6.1c0,0-2.3,16.5-1.5,19.9s5.7,10.3,14.8,10.3
									c2.9,0,5.4-0.5,7.5-1.2c4.3-1.4,7-5.7,6.5-10.3l-1.5-12.3c0-0.2,2.5-2.1,2.9-2.5c1-1.1,2-2.3,2.7-3.6
									c1.5-2.5,2.5-5.2,2.7-8.1C165.1,74.6,165.2,74,165.2,73.4L165.2,73.4z"/>
								<path class="st8" d="M131.1,81.6v1.9c0-0.3,0.1-0.6,0.1-0.6C131.1,82.5,131.1,82.1,131.1,81.6L131.1,81.6z M131.1,81.6v1.9
									c0-0.3,0.1-0.6,0.1-0.6C131.1,82.5,131.1,82.1,131.1,81.6L131.1,81.6z M163.3,60.9L163.3,60.9c-0.5-2-1-3.9-1.4-5.7V55
									l-31.1,0.2h-0.3v0.3c0,0.9,0.1,1.8,0.2,2.7c0.2,2,0.4,4,0.2,5.9c-0.8-0.1-1.5-0.1-2.2,0c-0.5,0.1-0.5,0.1,0,0
									c-1.1,0.2-2,0.6-2.8,1.3c-1.3,1.1-2,2.8-2,4.7c0,2,0.7,3.9,2,5.2c0.7,0.7,1.8,0.9,2.7,1.1c0.7,0.2,1.5,0.3,1.6,0.6
									c0.2,0.4,0.3,0.9,0.4,1.5c0,0.4,0,0.4,0,0c0,0.1,0,0.2,0,0.3l0,0c0,0.1,0,0.2,0,0.3l0,0c0,0.7,0,1.3,0,2s0,1.4,0.1,1.8
									c0,0.5-1,7.6-1.5,13.3c0,0.1,0,0.2,0,0.3c-0.1,1.4-0.2,2.8-0.2,3.9l0,0c0,1.1,0,1.9,0.2,2.5c0.2,0.8,0.6,1.9,1.3,3
									c0.1,0.2,0.2,0.3,0.3,0.5s0.2,0.3,0.3,0.5c2,2.8,5.7,5.8,10.9,6.4c0.1,0,0.2,0,0.3,0s0.2,0,0.4,0c0.5,0,0.9,0,1.4,0
									c2.6,0,5.2-0.4,7.6-1.2c4.4-1.4,7.3-5.9,6.7-10.6c0,0-0.2-1.3-0.4-3.1l0,0c0-0.5-0.1-0.9-0.2-1.4c0-0.1,0-0.2,0-0.3l0,0
									c-0.4-3.2-0.9-6.8-0.9-7.3c0.2-0.2,1.1-1,1.7-1.5c0.6-0.5,0.9-0.7,1.1-0.9c1.1-1.1,2-2.3,2.8-3.6c1.5-2.5,2.5-5.4,2.8-8.3
									c0.1-0.6,0.1-1.3,0.1-1.9C165.5,69.2,164.4,65,163.3,60.9L163.3,60.9z M164.9,73.4c0,0.6,0,1.3-0.1,1.8
									c-0.3,2.8-1.2,5.6-2.7,8c-0.8,1.3-1.7,2.5-2.7,3.5c-0.1,0.1-0.5,0.5-1,0.9c-1.8,1.4-2,1.6-1.9,1.8l0.9,7.5
									c0.2,1.3,0.3,2.9,0.6,4.7c0.5,4.5-2.1,8.7-6.3,10c-2.4,0.8-4.9,1.1-7.5,1.1c-0.5,0-0.9,0-1.3,0c-0.1,0-0.2,0-0.4,0
									s-0.2,0-0.3,0c-5.5-0.7-9.1-3.9-11.1-6.8c-0.2-0.2-0.2-0.3-0.4-0.5l0,0c-0.1-0.2-0.2-0.4-0.3-0.6c-0.4-0.8-0.7-1.6-0.8-2.1
									c-0.2-1-0.2-3,0-5.5l0,0c0-0.3,0-0.7,0.1-1.1c0,0,0-0.1,0-0.2c0.2-3.2,0.7-6.9,1-9.5l0,0c0.2-1.3,0.3-2.3,0.4-3v-0.1
									c0-0.3,0.1-0.6,0.1-0.6c0-0.4-0.1-0.8-0.1-1.3v-0.5c0-0.7,0-1.3,0-1.9c0-0.1,0-0.2,0-0.3l0,0c0-0.1,0-0.2,0-0.3l0,0
									c-0.1-0.7-0.2-1.4-0.5-1.8c-0.3-0.5-1.1-0.7-2-0.9c-0.9-0.2-1.8-0.4-2.4-0.9c-1.1-1.1-1.8-2.9-1.8-4.8
									c0-1.8,0.7-3.3,1.9-4.3c0.8-0.7,1.8-1.1,3-1.2c0.2,0,0.5,0,0.7,0c0.4,0,0.9,0,1.3,0.1h0.2v-0.2c0.3-2,0.1-4.1-0.1-6.2
									c-0.1-0.9-0.2-1.6-0.2-2.5l30.4-0.2c0.4,1.8,0.9,3.6,1.4,5.5c0,0,0,0,0,0.1c1.1,4,2.2,8.1,2.2,12.1L164.9,73.4L164.9,73.4z
									 M131.1,81.6v1.9c0-0.3,0.1-0.6,0.1-0.6C131.1,82.5,131.1,82.1,131.1,81.6L131.1,81.6z"/>
							</g>
							<path d="M145.4,70.1c0.1-0.6,0.6-1.1,1.3-1c0.6,0.1,1.1,0.6,1,1.3c-0.1,0.6-0.6,1.1-1.3,1C145.8,71.3,145.3,70.8,145.4,70.1
								L145.4,70.1z"/>
							<path d="M157.5,70.3c0.1-0.6,0.6-1.1,1.3-1c0.6,0.1,1.1,0.6,1,1.3c0,0.7-0.6,1.1-1.3,1C157.9,71.5,157.5,70.9,157.5,70.3
								L157.5,70.3z"/>
							<path class="st10" d="M153,73.5c0.3,0.3,0.5,0.5,0.8,0.8c0.1,0.1,0.2,0.2,0.4,0.4l0.1,0.1l0,0l0,0c-0.2,0.5-0.8,0.9-1.3,1.2
								c-0.5,0.3,0,1,0.5,0.7c0.4-0.2,0.7-0.5,1-0.7c0.3-0.3,0.6-0.7,0.7-1.1c0.1-0.5-0.2-0.9-0.5-1.2c-0.3-0.3-0.7-0.7-1-1
								C153.3,72.4,152.6,73,153,73.5L153,73.5L153,73.5z"/>
							<path class="st10" d="M149.9,66.8c-1.6-0.7-3.5-0.9-5.1-0.2c-0.2,0.1-0.4,0.3-0.3,0.5c0,0.2,0.3,0.4,0.5,0.3
								c1.4-0.5,3.1-0.5,4.5,0.1c0.2,0.1,0.5,0,0.6-0.2C150.2,67.2,150.1,66.9,149.9,66.8L149.9,66.8z"/>
							<path class="st10" d="M156.4,67.8c1.1-0.9,2.7-0.9,3.8-0.1c0.2,0.1,0.5,0,0.6-0.2s0-0.5-0.2-0.6c-1.4-0.9-3.4-0.9-4.7,0.1
								c-0.2,0.2-0.3,0.4-0.2,0.6C155.9,67.8,156.2,67.9,156.4,67.8L156.4,67.8L156.4,67.8z"/>
							<path class="st10" d="M156.9,78.5c-2.2,1.6-5.5,1.6-7.5-0.3c-0.4-0.4-1,0.2-0.6,0.6c2.3,2.1,6.1,2.3,8.6,0.5
								C157.7,79,157.3,78.2,156.9,78.5L156.9,78.5L156.9,78.5z"/>
						</g>
						<path class="st11" d="M157.4,97c0,0-14.1,11.1-27.5-0.9c0,0-10.7,1.4-15.7,5.3s-7.3,112.3-7.3,112.3l76.2,1.5
							c0,0-0.5-89.1-15.7-110C167.5,105.2,165.5,99.1,157.4,97L157.4,97z"/>
						<g>
							<path class="st7" d="M127.6,212.7c-3.5-5.2-12.2-42.7-12-44.8c0.5-4-0.7-8.1,0.6-27.5L92.8,135c0,0-0.9,26,1.3,35.1
								c1.4,6.1,9.1,27.7,15.8,39.5c4.3,7.5,4.9,12.5,6.7,18c2.2,6.6,6.7,14.8,8.9,14.7c1.9-0.1,1.3-2.5,1.3-2.5s1.5,2.7,3.2,2.1
								c1.6-0.6,0.6-3.3,0.6-3.3s1.5,2.5,3.3,2c1.7-0.5,0.7-3.6,0.7-3.6s1.8,2.3,3.2,0.7c1.5-1.8-3.9-8.5-6-13.2L127.6,212.7
								L127.6,212.7z"/>
							<path class="st8" d="M134.9,229.5c-1.1-1.8-2.2-3.7-2.9-5.3l-2.3-6.6l-0.3-1l-0.3-1l-0.5-1.6l-0.5-1.5v-0.1
								c-1.3-2-3.4-8.4-5.3-15.9c0-0.1-0.1-0.2-0.1-0.3s0-0.2-0.1-0.3c-0.2-0.9-0.5-1.7-0.7-2.5c0-0.2-0.1-0.5-0.2-0.7
								c0-0.2-0.1-0.5-0.2-0.7c-3-11.4-5.5-23.3-5.4-24.2c0.2-1.4,0.1-2.8,0-5c0-2-0.2-4.8-0.1-8.9c0-0.6,0-1.2,0-1.9
								c0-1.9,0.1-4.1,0.2-6.5c0.1-1.6,0.2-3.4,0.3-5.2V140l-6.9-1.6l-11.8-2.7l-0.4-0.1l-0.4-0.1l-4.7-1.1v0.4
								c0,0.2-0.2,7.2-0.2,15.2c0.1,7.4,0.4,15.7,1.4,20c0.6,2.4,2.1,7.4,4.3,13.2c0.1,0.3,0.2,0.5,0.3,0.9l0,0
								c0.1,0.3,0.2,0.6,0.3,0.9c2.4,6.5,5.5,13.9,8.4,20c0.5,0.9,0.9,1.8,1.4,2.7c0.1,0.2,0.2,0.4,0.3,0.5c0.1,0.2,0.2,0.3,0.3,0.5
								c0.2,0.3,0.3,0.6,0.5,0.9c0.8,1.4,1.5,2.8,2.1,4c0.6,1.4,1.1,2.7,1.6,3.9c0.1,0.2,0.1,0.3,0.2,0.5s0.1,0.3,0.2,0.5
								c0.3,1,0.6,1.9,0.9,2.8c0,0.1,0,0.2,0.1,0.3c0,0.1,0,0.2,0.1,0.3c0.1,0.4,0.2,0.8,0.3,1.2c0.4,1.5,0.8,2.9,1.3,4.3
								c2.1,6.3,6.6,14.9,9.2,14.9h0.1c0.6,0,1-0.3,1.3-0.7c0.2-0.3,0.3-0.6,0.3-0.9c0.7,0.8,1.7,1.6,2.8,1.2
								c0.4-0.2,0.7-0.5,0.9-0.9c0.2-0.5,0.2-0.9,0.2-1.4c0.7,0.7,1.6,1.3,2.7,0.9c0.5-0.1,0.7-0.4,1-0.8c0.3-0.6,0.3-1.4,0.2-2.1
								c0.4,0.3,0.9,0.6,1.4,0.6s1-0.2,1.4-0.7C139.1,236.4,137.1,233.2,134.9,229.5L134.9,229.5z M137.4,237.3
								c-0.2,0.3-0.5,0.5-0.9,0.5c-0.7,0-1.5-0.8-1.8-1.1l-1.2-1.6l0.7,2c0.2,0.5,0.5,2,0.1,2.7c-0.1,0.2-0.3,0.4-0.5,0.5
								c-1.6,0.5-2.9-1.8-2.9-1.8l-0.6,0.3c0.2,0.4,0.5,1.6,0.1,2.3c-0.1,0.2-0.3,0.4-0.5,0.5c-1.4,0.5-2.7-2-2.7-2l-1.4-2.5
								l0.7,2.7c0.1,0.3,0.2,1.2-0.2,1.7c-0.2,0.2-0.5,0.4-0.8,0.4c-1.8,0.2-6.1-7.1-8.6-14.4c-0.5-1.4-0.9-2.8-1.3-4.3
								c-0.1-0.4-0.2-0.7-0.3-1.1c0-0.1,0-0.2-0.1-0.3c0-0.1,0-0.2-0.1-0.3c-0.3-1.1-0.7-2.4-1.1-3.6c0-0.2-0.1-0.3-0.2-0.5
								c0-0.2-0.1-0.3-0.2-0.5c-0.4-0.9-0.7-1.9-1.2-2.9c-0.6-1.4-1.3-2.8-2.2-4.4c-0.3-0.5-0.6-1.1-0.9-1.7
								c-0.1-0.2-0.2-0.3-0.3-0.5l0,0c-0.1-0.2-0.2-0.3-0.3-0.5c-0.5-1-1-2-1.5-3.1c-3.1-6.3-6.1-13.9-8.4-20.3
								c-0.1-0.3-0.2-0.6-0.3-0.9l0,0c-0.1-0.3-0.2-0.6-0.3-0.9c-1.8-5.1-3.2-9.3-3.6-11.4c-1-4.3-1.4-12.4-1.4-19.8
								c-0.1-6.9,0.1-13.2,0.2-14.8l4.1,0.9l0.3,0.1l0.4,0.1l11.6,2.7l6.2,1.4c-0.2,2.3-0.3,4.4-0.4,6.3c-0.1,1.6-0.1,3.1-0.2,4.5
								l0,0c0,0.2,0,0.4,0,0.6c-0.2,5.2,0,8.5,0,10.8c0.1,2.1,0.1,3.5,0,4.9c-0.2,1.5,2.6,14.1,5.7,25.7c0.1,0.2,0.1,0.5,0.2,0.7
								l0,0c0.1,0.2,0.1,0.5,0.2,0.7c0.1,0.4,0.2,0.9,0.3,1.3c0,0.1,0,0.2,0.1,0.3s0.1,0.2,0.1,0.3c2.1,7.5,4.1,14.1,5.5,16.1
								l0.5,1.2l1.3,3.7l0.3,1l0,0l0.3,0.9l1.6,4.8c0.7,1.7,1.9,3.6,3,5.4C136.2,232.9,138.2,236.3,137.4,237.3L137.4,237.3z"/>
						</g>
						<path class="st11" d="M129.9,96.1L118,152.3l-31-2.7c3.2-9.3,6.4-18.7,10.2-27.9c2-5,3.8-10.8,7.1-15.3
							c3.1-4.2,7.7-6.1,12.7-7.3C118,99,129.7,96.8,129.9,96.1L129.9,96.1z"/>
						<g>
							<path class="st7" d="M245.9,99c-5.7,2.7-44,5.9-46.1,5.4c-3.9-1-8.1-0.5-27.1-4.5l-8.7,22.4c0,0,25.6,4.6,34.9,3.8
								c6.2-0.5,28.8-5,41.4-10c8-3.2,13.1-3,18.7-4.1c6.8-1.2,15.7-4.5,15.8-6.7c0.1-1.9-2.3-1.6-2.3-1.6s2.9-1.1,2.5-2.8
								c-0.3-1.6-3.2-1.1-3.2-1.1s2.7-1.1,2.4-3c-0.2-1.8-3.5-1.2-3.5-1.2s2.6-1.4,1.1-3c-1.6-1.8-8.9,2.6-13.9,4L245.9,99L245.9,99
								z"/>
							<path class="st8" d="M275.1,105.4c0-0.6-0.1-1.1-0.5-1.4c-0.2-0.2-0.6-0.4-0.9-0.5c0.9-0.5,1.9-1.4,1.6-2.6
								c-0.1-0.5-0.3-0.8-0.7-1c-0.4-0.2-0.9-0.4-1.4-0.4c0.7-0.6,1.5-1.4,1.3-2.6c-0.1-0.5-0.2-0.8-0.7-1.1c-0.5-0.4-1.4-0.5-2-0.5
								c0.4-0.3,0.7-0.8,0.8-1.4s-0.1-1-0.5-1.5c-1.2-1.3-4.7,0.1-8.6,1.8c-1.9,0.8-3.9,1.6-5.7,2.1l-12.1,2.3h-0.1
								c-5.7,2.7-44.3,5.8-45.8,5.4c-1.3-0.3-2.6-0.5-4.5-0.7c-0.1,0-0.2,0-0.4,0c-3.7-0.4-10-1.1-22.2-3.8h-0.3l-9,23.1l0.4,0.1
								c0.2,0,15.2,2.7,26.3,3.6c3.4,0.3,6.5,0.4,8.7,0.2c6.1-0.5,28.7-5,41.4-10c5.8-2.3,10.1-2.8,14.2-3.4c1.5-0.2,3-0.4,4.5-0.7
								C265.6,111.3,274.9,108,275.1,105.4L275.1,105.4z M254.4,112.4c-4.1,0.5-8.4,1.1-14.3,3.4c-12.7,5-35.2,9.4-41.2,9.9
								c-2.1,0.2-5.1,0.1-8.5-0.2c-10.1-0.8-23.4-3.1-25.9-3.6l8.5-21.8c12.1,2.6,18.3,3.3,22,3.7c0.1,0,0.2,0,0.3,0
								c1.9,0.2,3.2,0.4,4.5,0.7c2.5,0.7,40.6-2.7,46.3-5.4l12.1-2.3c1.8-0.5,3.8-1.4,5.7-2.2c3.2-1.3,6.8-2.8,7.8-2l0,0
								c0.2,0.3,0.4,0.6,0.3,0.9c-0.1,0.7-1.1,1.4-1.4,1.6l-1.8,1l2-0.4c0.5-0.1,2-0.2,2.7,0.3c0.2,0.2,0.3,0.3,0.4,0.6
								c0.2,1.6-2.2,2.6-2.2,2.6l0.2,0.7c0.4-0.1,1.7-0.2,2.3,0.2c0.2,0.2,0.4,0.3,0.4,0.6c0.3,1.4-2.3,2.4-2.3,2.4l-2.7,1l2.9-0.3
								c0.3,0,1.2,0,1.6,0.4c0.2,0.2,0.3,0.5,0.3,0.9c-0.1,1.8-8,5-15.5,6.4C257.4,112,255.9,112.2,254.4,112.4L254.4,112.4z"/>
						</g>
						<path class="st6" d="M125.5,55.1c0.7-2.7,2.6-5.1,5.1-6.3c0.1-0.1,0.3-0.1,0.4-0.2c1.8-3.4,4.3-5.4,9.3-5.7
							c6.8-0.4,14.6,1.9,18.2,1c2-0.9,4-2.4,4.4-4.8c0,0,1.7,4-0.1,7.1c1.8,0.7,3.4,2.9,4.2,4.5c1.1,2.2,1,4.8,0.2,7
							c-1,2.7-3.7,3.1-6.2,3.6c-2.7,0.6-5.5,0.9-8.3,1.1c-2.6,0.2-5.2,0.1-7.8-0.1c-2.4-0.2-5.1-0.4-7.1-1.8c0,0,0,0-0.1,0
							c-1.1,3.2-3.4,10.9-2.2,13.9c1.6,3.8-2.7,1.3-2.9-2.9c-0.1-2.4-2.3-4.7-3.6-7.6c-0.5,0-0.9-0.1-1.3-0.5
							C125.6,61.2,124.8,58.1,125.5,55.1L125.5,55.1z"/>
						<polygon class="st11" points="157.8,97 202.1,97.1 206,133 163.4,140.1 						"/>
						<path class="st6" d="M121.2,98.4c2,1.2,3.6,8.3,4.3,10.3c4.8,15,4.3,32.1-7.5,43.7l-2.4,2l-0.6-6.1c-0.1-0.7,1.1-2.2,1.3-2.7
							c1.2-2.6,2.2-5.3,3-8c4.1-13.4-0.5-25-4.1-37.8C115.3,99.7,116.5,95.7,121.2,98.4L121.2,98.4z"/>
						<path class="st6" d="M163.9,94c2.1,0.3,5.7,5.9,6.8,7.4c8.7,11.1,13.9,25.7,7.9,39.2l-0.5,1c-0.2-1.1-0.3-2.2-0.5-3.3
							c-0.5-2.3-1.1-4.8-1.7-7.2c-1.3-5.3-1.8-10.6-4.1-15.6c-2.4-5.3-6-10-9.5-14.7c-1-1.3-2-2.6-3-3.9
							C159.4,97,159.2,93.3,163.9,94L163.9,94z"/>
					</g>
					<g>
						<g>
							<path class="st9" d="M256.2,101.7c-0.7,0-1.5-0.2-2.1-0.7c-7.9-6.3-13.1-12.9-15.5-19.6c-0.9-2.3-1.4-4.7-1.4-7.1
								c0-10.3,8.4-18.7,18.9-18.7S275,63.9,275,74.2l0,0c0,4-1.5,14.5-16.7,26.7C257.7,101.4,257,101.7,256.2,101.7L256.2,101.7
								L256.2,101.7z"/>
							<path class="st6" d="M275.1,73.3c0-0.5,0-0.9-0.1-1.3c0-0.4-0.1-0.8-0.2-1.1l0,0c-0.1-0.5-0.2-0.9-0.3-1.3
								c-2.1-8.2-9.5-14.2-18.4-14.2s-17,6.6-18.7,15.3c-0.1,0.5-0.2,0.9-0.2,1.4c-0.1,0.5-0.1,1-0.1,1.5c0,0.2,0,0.5,0,0.7
								c0,0.1,0,0.1,0,0.2c0,0.4,0,0.7,0,1.1c0.1,2.1,0.6,4.1,1.4,5.9c1.8,5.1,6,12.1,15.5,19.7c0.6,0.5,1.4,0.7,2.2,0.7
								c0.8,0,1.5-0.2,2.2-0.7c15.2-12.1,16.8-22.6,16.8-26.7v-0.1C275.2,73.9,275.2,73.6,275.1,73.3L275.1,73.3z M256.2,101.5
								c-0.7,0-1.4-0.2-2-0.7c-7.9-6.3-13-12.9-15.4-19.6l0,0l0,0c-0.7-1.8-1.2-3.8-1.4-5.8c0-0.4,0-0.7,0-1.1v-0.2
								c0-0.2,0-0.4,0-0.6c0-0.6,0-1.1,0.1-1.6c0-0.5,0.1-0.9,0.2-1.4c1.7-8.5,9.3-15,18.4-15s16.1,5.9,18.2,13.9
								c0.1,0.4,0.2,0.9,0.3,1.3c0,0.3,0,0.3,0,0c0.1,0.3,0.1,0.7,0.2,1c0.1,0.5,0.1,0.9,0.1,1.4c0,0.3,0,0.6,0,0.9v0.1
								c0,4-1.6,14.5-16.7,26.4C257.6,101.3,257,101.5,256.2,101.5L256.2,101.5z"/>
						</g>
						<g>
							
								<ellipse transform="matrix(0.4996 -0.8663 0.8663 0.4996 63.4894 259.2994)" class="st7" cx="256.2" cy="74.7" rx="14.3" ry="14.3"/>
							<path class="st6" d="M270.6,73.7c0-0.9-0.2-1.6-0.4-2.5c-0.1-0.5-0.2-0.9-0.4-1.3c-2-5.7-7.3-9.7-13.6-9.7
								c-6.3,0-12.2,4.4-13.9,10.5c-0.1,0.5-0.2,0.9-0.3,1.3c0,0.1,0,0.2,0,0.3c-0.1,0.7-0.2,1.4-0.2,2.2v0.2c0,0.3,0,0.6,0,0.9
								c0.5,7.6,6.8,13.6,14.4,13.6c7.7,0,14.4-6.4,14.5-14.4l0,0C270.6,74.4,270.6,74,270.6,73.7L270.6,73.7z M256.2,88.8
								c-7.5,0-13.6-5.9-14.1-13.3c0-0.3,0-0.6,0-0.9v-0.2c0-0.7,0.1-1.4,0.2-2c0-0.1,0-0.2,0.1-0.4c0.1-0.5,0.2-0.9,0.3-1.3
								c1.7-5.9,7.1-10.2,13.6-10.2c6.4,0,11.4,3.9,13.3,9.4c0.2,0.4,0.3,0.9,0.4,1.3c0.2,0.7,0.3,1.5,0.4,2.3v0.1c0,0.3,0,0.7,0,1
								v0.1C270.2,82.6,263.9,88.8,256.2,88.8L256.2,88.8z"/>
						</g>
						<g>
							<path class="st6" d="M256.3,67.9c1,0,2,0.1,3,0.4c0.7,0.2,1.4,0.4,2.1,0.7c1.1,0.5,2.2,1.1,3.1,1.9c0.6,0.5,1.2,1.1,1.6,1.8
								c0.5,0.8,0.2,2-0.9,2.3c-0.6,0.2-1.3,0-1.7-0.6c-0.8-1-1.8-1.8-2.9-2.3c-0.5-0.2-1-0.5-1.6-0.6c-0.7-0.2-1.4-0.3-2.1-0.4
								c-0.4,0-0.8,0-1.3,0c-0.5,0-1.1,0.1-1.6,0.2c-1.1,0.2-2.1,0.7-3.1,1.3c-0.8,0.5-1.5,1.1-2,1.8c-0.2,0.2-0.4,0.5-0.7,0.6
								c-0.6,0.4-1.4,0.2-1.8-0.3c-0.2-0.3-0.4-0.7-0.4-1.1c0-0.3,0.1-0.5,0.2-0.7c0.4-0.6,0.9-1.1,1.5-1.6c0.5-0.5,1.1-0.9,1.7-1.3
								c1.2-0.7,2.5-1.3,3.8-1.6C254.3,68,255.3,67.9,256.3,67.9L256.3,67.9z"/>
							<path class="st6" d="M256.3,73.3c1.1,0,2.1,0.3,3.1,0.7c0.9,0.4,1.8,1,2.5,1.7c0.9,0.7,0.7,2.2-0.4,2.6
								c-0.5,0.2-1,0.1-1.4-0.2c-0.2-0.2-0.5-0.4-0.7-0.5c-0.7-0.6-1.6-1-2.5-1.1c-0.7-0.1-1.4,0-2.1,0.2c-0.9,0.3-1.7,0.7-2.4,1.4
								c-0.2,0.2-0.5,0.4-0.8,0.5c-0.4,0.1-0.7,0-1-0.2c-0.5-0.3-0.9-0.9-0.7-1.6c0.1-0.4,0.3-0.6,0.5-0.9c0.9-0.9,2-1.5,3.2-1.9
								C254.5,73.5,255.4,73.3,256.3,73.3L256.3,73.3z"/>
							<path class="st6" d="M253.6,81.1c0-0.9,0.4-1.6,1.1-2.1c0.5-0.4,1.1-0.6,1.8-0.5c0.8,0,1.4,0.4,1.9,1
								c0.5,0.5,0.6,1.1,0.6,1.8c-0.1,1.1-0.9,2-2,2.3c-1.5,0.4-3-0.6-3.3-2.1C253.6,81.4,253.6,81.3,253.6,81.1z"/>
						</g>
					</g>
				</g>
			</g>
		</g>
	</g>
	<g>
		<g>
			<g>
				<defs>
					<path id="SVGID_00000127724650631946940080000005816194549873294015_" d="M369.6,277.9c-29.9,0.6-66.3-8.8-101.6-18
						c-28.9-7.5-56.2-14.5-81.4-16.9c-5.2-0.5-10.6-0.7-15.9-0.6c-20.9,0.4-39.3,5.4-55.6,9.8c-14.4,3.9-28.1,7.6-42,7.9
						c-8,0.2-15.6-0.8-23.4-2.9C27,251,13.2,238.8,6.5,218.9C-1,196.4-3.3,167.3,0.2,139c3.6-29.2,12.9-54.7,26.2-72
						c15.5-20.2,38.3-32.4,67.7-36.2c13.6-1.8,28.1-2.8,42.9-3.1C192.5,26.6,249.9,36,305.5,45c55.8,9.1,113.5,18.6,170.6,17.7h0.9
						c35.6-0.7,65.9-12,95.1-22.9c28.3-10.6,55.1-20.6,86.4-21.2c3.1-0.1,6.2,0,9.3,0.1c27.8,1.1,69.7,28.2,86.3,55.7
						c5.2,8.7,10.3,25.6,11.7,39.4c3.4,33.3-8.2,88.2-27.9,106.3c-33.3,30.7-59.7,42.8-97.6,44.7c-1.1,0.1-2.2,0.1-3.4,0.1
						c-19.7,0.4-36.5-4.1-56-9.3c-21.6-5.8-46.2-12.3-76.7-11.7c-3.9,0.1-7.9,0.3-11.9,0.6c-27.2,2.1-48.1,10.9-66.5,18.6
						c-14.3,6-27.8,11.7-43.3,13.8C378.5,277.5,374.2,277.8,369.6,277.9z"/>
				</defs>
				<clipPath id="SVGID_00000005235019040912194110000008732937806961587082_">
					<use xlink:href="#SVGID_00000127724650631946940080000005816194549873294015_"  style="overflow:visible;"/>
				</clipPath>
				<g style="clip-path:url(#SVGID_00000005235019040912194110000008732937806961587082_);">
					<g>
						<g>
							<path class="st11" d="M660.2,71c0-0.3,0-0.6,0-0.9c0-10.1-9.1-18.3-20.2-18.3c-9,0-16.7,5.3-19.3,12.6
								c-6.3,1.1-10.5,3.4-10.9,6.6c-0.5,4.4,6.1,9,15.9,12c3.4,1,7.1,1.8,11,2.4c4.6,0.6,8.9,0.8,12.8,0.7
								c9.4-0.5,16.2-3.1,16.7-7.2C666.8,76.3,664.4,73.5,660.2,71L660.2,71z"/>
							<path class="st8" d="M660.5,70.9c0-0.2,0-0.5,0-0.8c0-10.2-9.2-18.5-20.5-18.5c-8.9,0-16.7,5.1-19.5,12.7
								c-6.6,1.1-10.5,3.6-10.9,6.8c-0.4,3,2.5,6.2,7.6,8.9l0,0c1.2,0.6,2.5,1.2,3.9,1.8c0.1,0,0.1,0,0.2,0.1c0.1,0,0.2,0,0.2,0.1
								c1.3,0.5,2.7,1,4.1,1.4c0.2,0.1,0.4,0.1,0.6,0.2l0,0c0.5,0.2,1,0.3,1.5,0.5l0,0c2.8,0.7,5.8,1.4,8.9,1.8
								c0.6,0.1,1.2,0.2,1.8,0.2c0.1,0,0.2,0,0.4,0c2.1,0.2,4.2,0.4,6.2,0.4c0.5,0,1,0,1.5,0c1,0,2,0,3-0.1c1.2,0,2.4-0.2,3.5-0.3
								c0.1,0,0.2,0,0.2,0c0.1,0,0.2,0,0.2,0c2.5-0.3,4.7-0.8,6.6-1.4c2.9-1,4.8-2.3,5.8-4c0.3-0.5,0.5-1.1,0.6-1.7
								C667,76.3,664.8,73.5,660.5,70.9L660.5,70.9z M666.2,78.9c-0.1,0.5-0.2,1-0.5,1.5c-0.9,1.5-2.8,2.8-5.5,3.7
								c-1.8,0.6-4,1.1-6.5,1.4c-0.1,0-0.2,0-0.2,0c-0.1,0-0.2,0-0.2,0c-1.1,0.1-2.3,0.2-3.4,0.3c-1.5,0.1-3,0.1-4.6,0
								c-2.7,0-5.4-0.3-8.2-0.7c-3.9-0.5-7.6-1.4-11-2.4c-1.5-0.5-2.9-0.9-4.1-1.4c-0.1,0-0.2-0.1-0.2-0.1c-0.1,0-0.2-0.1-0.2-0.1
								c-1.5-0.6-2.8-1.2-4-1.8c-4.8-2.6-7.5-5.6-7.1-8.3c0.4-3,4.3-5.3,10.7-6.4h0.2v-0.1c2.7-7.5,10.3-12.5,19-12.5
								c11,0,20,8.1,20,18.1c0,0.3,0,0.6,0,0.9v0.2l0.1,0.1C664.3,73.7,666.5,76.5,666.2,78.9L666.2,78.9z"/>
						</g>
						<path class="st6" d="M632.1,63.1c1.8-0.9,3.3-2.2,5.3-2.6c2.3-0.5,4.7,0,6.7,1.1c3.5,1.8,5.9,5.1,8.3,8.3
							c2.3,3.2,4.8,6.4,8.3,8.3c2.5,1.3,5.5,1.9,7.5,3.9c4.1,4.4,0.9,12.2,4.3,17.2c2.1,3.2,6.2,4.2,9.8,5.4
							c3.6,1.1,7.6,3.2,8.4,6.9c0.7,3.1-1.3,6.3-4,8s-5.9,2.3-9.1,2.7c-5.1,0.7-10.3,1.2-15.4,0.5c-5.1-0.7-10.2-2.8-13.7-6.5
							c-3.4-3.5-5.4-8.5-9.7-11c-3.3-1.9-7.3-1.8-11.1-2.3c-3.8-0.4-8-1.6-9.9-4.9c-2.1-3.7-0.7-8.3-0.3-12.5
							c0.2-3.5-0.3-7.1,0.4-10.5C619.2,67.6,625.7,65.1,632.1,63.1L632.1,63.1L632.1,63.1z"/>
						<g>
							<path class="st7" d="M620.4,89.7c0-5.4,1.9-11,2.9-16.2l24.8,0.2c-0.1,2.5-0.6,5.5-0.2,8c1.5-0.2,3,0,4.1,1.1
								c2.1,2,2.1,6.4,0,8.5c-0.9,1-3.1,0.8-3.5,1.6c-1.7,3.2-1.9,7.1-1.2,10.6c0.6,3.1,3.2,6.5,2.5,9.6
								c-0.6,3.1-6.4,16.9-13.7,16.9c-2.3,0-5.9,0.6-7.6,0c-3.5-1.2-1.7-10.2-1.3-14.3l0.8-11.3c0-0.2-2-1.9-2.3-2.2
								c-2.8-3.2-4.8-6.3-5.3-10.6C620.4,90.9,620.4,90.3,620.4,89.7L620.4,89.7z"/>
							<path class="st8" d="M644.1,73.7l-0.2,0.2h0.6c0-0.1,0-0.2,0-0.2H644.1L644.1,73.7z M644.1,73.7l-0.2,0.2h0.6
								c0-0.1,0-0.2,0-0.2H644.1L644.1,73.7z M648.7,92.9c0.2-0.3,0.7-0.4,1.3-0.6c0.8-0.2,1.6-0.4,2.2-0.9c1.3-1.3,1.8-3.4,1.5-5.3
								c0-0.1,0-0.2,0-0.2v-0.2c-0.2-1.2-0.7-2.3-1.5-3c-1-1-2.4-1.4-4.1-1.2c-0.2-1.6,0-3.4,0.1-5.3c0.1-0.9,0.2-1.6,0.2-2.4v-0.2
								h-3.7h-0.3l-21.1-0.2v0.2c-0.3,1.6-0.7,3.3-1.1,5c-0.1,0.5-0.2,0.9-0.3,1.4s-0.2,0.9-0.3,1.4c0,0.1,0,0.2,0,0.2v0.2
								c-0.6,2.6-1,5.2-1,7.8v0.2c0,0.6,0,1.1,0.1,1.7c0.4,4.3,2.4,7.4,5.3,10.8c0.1,0.1,0.3,0.3,0.6,0.6l0,0
								c0.1,0.1,0.1,0.1,0.2,0.2c0.5,0.4,1.2,1.1,1.4,1.3c0,0.3-0.1,1.6-0.2,3.2c0,0.3,0,0.6-0.1,1c0,0.2,0,0.4,0,0.6
								c0,0.1,0,0.2,0,0.3l0,0c0,0.1,0,0.2,0,0.3c-0.1,1.4-0.2,2.8-0.2,3.9l0,0c-0.1,1.1-0.2,1.9-0.2,1.9c0,0.6-0.2,1.2-0.2,1.9
								c-0.2,1.8-0.5,4-0.6,6.1l0,0c-0.1,3.1,0.3,5.8,2.3,6.5c0.5,0.2,1.1,0.2,1.7,0.2c0.2,0,0.4,0,0.6,0c0.9,0,1.9-0.1,2.9-0.2
								c0.9-0.1,1.8-0.1,2.5-0.1c0.2,0,0.4,0,0.7,0c4.2-0.5,7.8-5,10.1-9.4c0.1-0.2,0.2-0.5,0.4-0.7c0.2-0.3,0.3-0.5,0.4-0.8
								c0.4-0.9,0.8-1.7,1.1-2.5c0.7-1.6,1.1-3,1.2-3.7c0.3-1.7-0.2-3.4-0.9-5.2c0-0.1-0.1-0.2-0.1-0.3c0-0.1-0.1-0.2-0.1-0.3
								c0-0.1-0.1-0.2-0.1-0.3c-0.5-1.3-1-2.4-1.2-3.6c-0.5-2.7-0.7-6.6,1.1-10.1C648.6,93.1,648.6,93,648.7,92.9L648.7,92.9z
								 M648.2,92.8c-1.9,3.7-1.8,7.8-1.2,10.7c0.2,1.2,0.7,2.4,1.2,3.5c0,0,0,0.1,0.1,0.2c0,0.1,0.1,0.2,0.2,0.3l0,0
								c0,0.1,0.1,0.2,0.2,0.3c0.7,1.7,1.3,3.5,1,5.2c-0.2,0.7-0.5,1.9-1.1,3.4c-0.3,0.8-0.7,1.7-1.2,2.6c-0.1,0.2-0.2,0.5-0.4,0.8
								c-0.1,0.2-0.2,0.5-0.4,0.7c-2.4,4.4-6,8.9-10,9.2c-0.1,0-0.2,0-0.4,0c-0.7,0-1.6,0-2.5,0.1c-1.3,0.1-2.6,0.2-3.7,0.1l0,0
								c-0.5,0-0.9-0.1-1.3-0.2c-1.5-0.5-2-2.7-2-5.3c0-2.2,0.3-4.8,0.6-6.8c0.1-0.7,0.2-1.4,0.2-2c0-0.4,0-0.7,0.1-1.1l0,0
								c0.2-1.8,0.2-3.4,0.3-4.6c0-0.1,0-0.2,0-0.3l0,0c0-0.1,0-0.2,0-0.4c0-0.2,0-0.3,0-0.5c0-0.3,0-0.7,0.1-0.9
								c0.2-3.3,0.2-3.4,0.2-3.4c0-0.2-0.1-0.3-1.3-1.4c-0.1-0.1-0.2-0.2-0.3-0.2c-0.3-0.3-0.7-0.7-0.8-0.7
								c-2.8-3.3-4.8-6.4-5.2-10.5c0-0.5-0.1-1.1-0.1-1.7c0-2.5,0.4-5.2,1-7.8c0-0.1,0-0.2,0-0.2c0-0.1,0-0.2,0-0.2
								c0.1-0.5,0.2-1,0.4-1.6c0.1-0.4,0.2-0.9,0.3-1.3c0.4-1.6,0.8-3.3,1.1-4.9l20.4,0.1h0.6h3.4c0,0.7-0.1,1.4-0.2,2.2
								c-0.2,1.9-0.3,3.8-0.1,5.6V82h0.2c1.6-0.3,2.9,0.1,3.9,1c0.7,0.7,1.2,1.7,1.4,2.8c0,0.1,0,0.2,0,0.2v0.2
								c0.2,1.8-0.2,3.7-1.4,4.9c-0.5,0.5-1.2,0.7-1.9,0.8c-0.7,0.2-1.4,0.3-1.6,0.8C648.3,92.7,648.2,92.7,648.2,92.8L648.2,92.8z
								 M644.1,73.7l-0.2,0.2h0.6c0-0.1,0-0.2,0-0.2H644.1L644.1,73.7z"/>
						</g>
						<path d="M638.2,86.9c0-0.6-0.6-1-1.1-0.9s-0.9,0.6-0.9,1.1c0,0.6,0.6,1,1.1,0.9S638.2,87.4,638.2,86.9L638.2,86.9z"/>
						<path d="M627.2,87c0-0.6-0.6-1-1.1-0.9c-0.6,0-0.9,0.6-0.9,1.1c0,0.6,0.6,1,1.1,0.9C626.9,88,627.3,87.6,627.2,87L627.2,87z"
							/>
						<path class="st10" d="M630.7,89.3c-0.3,0.3-0.6,0.6-0.9,0.9c-0.3,0.3-0.6,0.6-0.5,1.1c0.1,0.4,0.4,0.7,0.7,0.9
							c0.2,0.2,0.6,0.5,0.9,0.7c0.5,0.2,0.8-0.4,0.4-0.7c-0.5-0.2-0.9-0.6-1.1-1.1c0,0,0,0,0-0.1l0,0l0,0c0.1-0.1,0.2-0.2,0.3-0.4
							c0.2-0.2,0.5-0.5,0.7-0.8C631.6,89.5,631.1,88.9,630.7,89.3L630.7,89.3L630.7,89.3z"/>
						<path class="st10" d="M635.8,84.4c0.7-0.3,1.6-0.4,2.3,0c0.2,0.1,0.4-0.1,0.5-0.3c0-0.2-0.1-0.4-0.3-0.5c-0.9-0.4-2-0.3-3,0.1
							c-0.2,0.1-0.2,0.4-0.1,0.5C635.4,84.5,635.6,84.5,635.8,84.4L635.8,84.4L635.8,84.4z"/>
						<path class="st10" d="M625.1,84.6c0.7-0.3,1.6-0.4,2.3,0c0.2,0.1,0.4-0.1,0.5-0.3c0-0.2-0.1-0.4-0.3-0.5c-0.9-0.4-2-0.3-3,0.1
							c-0.2,0.1-0.2,0.4-0.1,0.5C624.7,84.6,624.9,84.7,625.1,84.6L625.1,84.6L625.1,84.6z"/>
						<path class="st10" d="M628.3,95.9c1.8,1.3,4.4,1.1,6-0.3c0.4-0.3-0.2-0.9-0.6-0.6c-1.4,1.2-3.5,1.3-5,0.2
							c-0.2-0.1-0.5,0-0.5,0.1C628.1,95.5,628.2,95.8,628.3,95.9L628.3,95.9z"/>
						<path class="st6" d="M607.8,344c0,0-18.7,6-19.5,7.6s0,5,0,5h41l-2-16.3L607.8,344L607.8,344z"/>
						<path class="st6" d="M670,342.1c0,0,0.2,2.3-0.5,3.4s-2.7,2.1-3.4,5.1s-0.4,5.4-0.4,5.4s13.7,1.1,18-0.1
							c1.3-0.4,4.1-2.7,4.2-3.6c0.1-0.9-1.1-12.2-1.1-12.2L670,342.1L670,342.1z"/>
						<path class="st9" d="M611.8,185.1l-9,38.5c-4.4,13.6-6.9,27.8-7.6,42.2l0.6,79.9l34.1-0.4l-4.5-91.4l12.6-29.6l7.4,34.6
							c1.1,5.3,17.2,84.9,17.2,84.9l36.6-2.8l-25.9-94l-3.8-61L611.8,185.1L611.8,185.1z"/>
						<g>
							<path class="st7" d="M706.4,220.1c0.1-0.1,0.2,0,0.3,0l3,2.5c0.5,0.4,1.2,0.4,1.6-0.1c0.5-0.5,0.4-1.3-0.1-1.7l-0.4-0.3
								c-1.7-1.4-3.1-3-4.1-4.8l-3.7-6.4c-1.6,1-2.5,1.6-8.1,5.7c-0.7,0.2-1.4,0.7-1.5,1.1l-0.8,7.6c-0.2,0.6,0.2,1.3,0.9,1.4
								c0.6,0.2,1.3-0.2,1.4-0.9l1.4-3.1c0.8,1.2,5.1,9.4,5.1,9.4c0.3,0.6,1,0.9,1.6,0.5c0.5-0.3,0.7-1,0.5-1.6l-2.5-5.5
								c0-0.1,0-0.3,0.1-0.4l0.2-0.2c0.1-0.1,0.3,0,0.4,0.1l3.5,5.5c0.4,0.6,1.1,0.7,1.7,0.3c0.5-0.4,0.6-1.1,0.3-1.6l-3.5-5.5
								c-0.1-0.1,0-0.3,0.1-0.4h0.1c0.1-0.1,0.2,0,0.4,0l4.1,4.3c0.5,0.5,1.3,0.6,1.8,0.2c0.6-0.4,0.7-1,0.2-1.5l-4-4.2
								C706.2,220.5,706.3,220.3,706.4,220.1L706.4,220.1z"/>
							<path class="st8" d="M711.6,222.8c0.3-0.3,0.4-0.7,0.4-1.1c0-0.4-0.2-0.8-0.6-1l-0.4-0.3c-1.3-1-2.4-2.2-3.3-3.5
								c-0.3-0.4-0.5-0.8-0.8-1.2l-0.6-1l0,0l-1.3-2.2l-0.2-0.3l-0.2-0.3l-1.4-2.4l-0.3-0.5l-0.3,0.2c-0.1,0.1-0.2,0.1-0.3,0.2
								c-0.9,0.6-1.7,1.1-3.7,2.5c-0.4,0.2-0.8,0.6-1.3,0.9c-0.6,0.4-1.3,0.9-2.1,1.5c-0.2,0.2-0.5,0.4-0.8,0.6
								c-0.6,0.2-1.5,0.7-1.6,1.4l-0.1,0.7v0.3v0.4l-0.7,6.2c-0.2,0.8,0.3,1.6,1.1,1.8s1.6-0.3,1.8-1.1l1.1-2.5
								c1.2,2.1,4.8,8.9,4.8,8.9c0.2,0.4,0.5,0.7,0.9,0.8c0.2,0,0.3,0.1,0.5,0.1s0.5,0,0.7-0.2c0.7-0.4,0.9-1.2,0.6-2l-2.5-5.5
								l0.2-0.2l3.5,5.5c0.2,0.3,0.6,0.6,1,0.7s0.8,0,1.1-0.2c0.6-0.5,0.8-1.4,0.4-2.1l-3.5-5.5l0,0l4.1,4.3
								c0.6,0.6,1.6,0.7,2.2,0.3c0.3-0.2,0.6-0.6,0.6-0.9c0-0.4-0.1-0.8-0.4-1.1l-3.7-3.9l2.8,2.2
								C710.2,223.4,711.1,223.4,711.6,222.8L711.6,222.8z M710,226c-0.4,0.3-1.1,0.2-1.4-0.2l-4.1-4.3c-0.2-0.2-0.5-0.2-0.7-0.1
								h-0.1c-0.3,0.2-0.4,0.5-0.2,0.8l3.5,5.5c0.2,0.4,0.2,0.9-0.2,1.2c-0.2,0.2-0.4,0.2-0.7,0.2c-0.2,0-0.5-0.2-0.6-0.4l-3.5-5.5
								c-0.1-0.1-0.2-0.2-0.4-0.2s-0.3,0-0.5,0.1l-0.2,0.2c-0.2,0.2-0.3,0.5-0.2,0.8l2.5,5.5c0.2,0.4,0,0.9-0.3,1.1
								c-0.2,0.1-0.5,0.1-0.7,0s-0.4-0.2-0.5-0.5c-0.2-0.3-4.4-8.3-5.2-9.5l-0.3-0.5l-1.6,3.7c-0.1,0.5-0.6,0.7-1,0.7
								c-0.5-0.1-0.7-0.6-0.6-1.1l0.7-6.4v-0.4v-0.3V216c0-0.2,0.6-0.6,1.3-0.9h0.1c0.5-0.3,0.9-0.6,1.3-0.9l0,0
								c0.8-0.6,1.4-1.1,2.1-1.5c0.4-0.2,0.7-0.5,0.9-0.7c1.8-1.3,2.6-1.8,3.5-2.4l1.4,2.4l0.2,0.3l0.2,0.3l1,1.7l0,0l0.9,1.5
								c0.2,0.2,0.3,0.5,0.5,0.7l0,0c1,1.6,2.3,3,3.7,4.1l0.4,0.3c0.2,0.2,0.3,0.4,0.3,0.6c0,0.2-0.1,0.5-0.2,0.7
								c-0.3,0.3-0.8,0.4-1.2,0l-3-2.5c-0.1-0.1-0.2-0.1-0.4-0.1s-0.2,0-0.3,0.1c-0.2,0.1-0.2,0.2-0.2,0.4s0,0.4,0.2,0.5l4,4.2
								c0.2,0.2,0.2,0.4,0.2,0.6C710.3,225.7,710.2,225.9,710,226L710,226z"/>
						</g>
						<g>
							<path class="st7" d="M552.4,152.6c0,0.1-0.1,0.2-0.3,0.2l-4.4,0.6c-0.7,0.1-1.3,0.7-1.2,1.4c0,0.8,0.8,1.4,1.6,1.2l0.6-0.1
								c2.4-0.4,4.9-0.2,7.3,0.3l8.3,1.8c0.4-2.1,0.6-3.3,1.5-11.2c0.3-0.7,0.5-1.7,0.2-2.1l-5.7-6.6c-0.4-0.6-1.3-0.8-1.9-0.4
								c-0.6,0.4-0.8,1.3-0.4,1.9l1.6,3.6c-1.6-0.3-11.9-3.1-11.9-3.1c-0.7-0.2-1.5,0.2-1.7,0.9s0.2,1.4,0.9,1.6l6.7,2.2
								c0.2,0,0.2,0.2,0.2,0.4l-0.1,0.3c0,0.2-0.2,0.3-0.4,0.2l-7.4-1.4c-0.8-0.2-1.5,0.4-1.6,1.1c-0.1,0.7,0.4,1.4,1.1,1.5l7.3,1.4
								c0.2,0,0.3,0.2,0.2,0.4v0.1c0,0.2-0.2,0.2-0.3,0.3l-6.7,0.1c-0.7,0-1.5,0.6-1.6,1.4c-0.1,0.7,0.4,1.4,1.1,1.4l6.6-0.1
								C552.3,152.2,552.4,152.3,552.4,152.6L552.4,152.6z"/>
							<path class="st8" d="M566.2,144.7l-1.1-1.4l-0.3-0.3l-0.3-0.3l-3.9-4.6c-0.2-0.4-0.6-0.6-1.1-0.7c-0.5-0.1-0.9,0-1.3,0.2
								c-0.7,0.5-0.9,1.6-0.5,2.3l1.3,3c-2.7-0.6-11.2-2.9-11.3-3c-0.4-0.2-0.9-0.1-1.3,0.1c-0.4,0.2-0.7,0.6-0.8,1.1
								c-0.2,0.8,0.3,1.7,1.1,2l6.7,2.2l-0.1,0.4l-7.4-1.4c-0.5-0.1-0.9,0-1.3,0.3c-0.4,0.3-0.6,0.7-0.7,1.1
								c-0.1,0.9,0.5,1.7,1.4,1.8l7.3,1.4v0.1l-6.7,0.1c-0.9,0-1.8,0.7-1.9,1.6c-0.1,0.5,0,0.9,0.3,1.2s0.7,0.5,1.1,0.5h6.6l0,0
								l-4.4,0.6c-0.9,0.1-1.5,0.9-1.5,1.8c0,0.5,0.2,0.9,0.6,1.2c0.4,0.3,0.8,0.4,1.3,0.3l0.6-0.1c2.4-0.3,4.8-0.2,7.2,0.3l7,1.6
								l0.3,0.1l0.3,0.1l1,0.2l0.1-0.3c0.4-2.1,0.6-3.2,1.5-11.2C566.4,146.4,566.7,145.3,566.2,144.7L566.2,144.7z M565.5,146.9
								c-0.8,7.6-1,9-1.4,10.9l-0.5-0.1l-0.3-0.1l-0.3-0.1l-7-1.5c-1.5-0.3-3-0.5-4.5-0.5c-1,0-2,0.1-3,0.2l-0.6,0.1
								c-0.3,0-0.6,0-0.8-0.2s-0.4-0.5-0.4-0.7c0-0.5,0.4-1,0.9-1.1l4.4-0.6c0.3,0,0.5-0.2,0.5-0.5c0-0.2,0-0.4-0.1-0.5
								c-0.1-0.2-0.3-0.2-0.5-0.2l0,0l-6.6,0.1c-0.2,0-0.5-0.1-0.7-0.3s-0.2-0.4-0.2-0.7c0.1-0.6,0.7-1.1,1.3-1.1l6.7-0.1
								c0.3,0,0.6-0.2,0.6-0.5v-0.1c0-0.2,0-0.3-0.1-0.5s-0.2-0.2-0.4-0.3l-7.3-1.4c-0.6-0.1-0.9-0.6-0.9-1.1c0-0.3,0.2-0.5,0.4-0.7
								s0.5-0.2,0.8-0.2l7.4,1.4c0.2,0,0.3,0,0.5-0.1s0.2-0.2,0.2-0.4l0.1-0.3c0.1-0.3-0.1-0.6-0.4-0.7l-6.7-2.2
								c-0.6-0.2-0.9-0.7-0.7-1.3c0.1-0.3,0.2-0.5,0.5-0.7c0.2-0.1,0.6-0.2,0.8-0.1c0.4,0.1,10.3,2.8,12,3.1l0.6,0.1l-1.8-4.1
								c-0.3-0.5-0.2-1.1,0.3-1.4c0.2-0.2,0.5-0.2,0.8-0.2c0.2,0.1,0.5,0.2,0.7,0.5l4.4,5l0.3,0.3l0.3,0.3l0.7,0.9
								C565.8,145.3,565.7,146,565.5,146.9L565.5,146.9L565.5,146.9z"/>
						</g>
						<g>
							<path class="st7" d="M709.8,208.9c0,0-15.1,10.9-23.2,7.9c0,0-11.3-52-12.3-55.7c-0.5-1.8-4.2-6.3-8-11.1l3.4,38.4
								c-1,0.8-4.9,3.5-6.2,3.9c-4.1,1.5-9.9,1.6-15.1,1.8c-18.1,0.5-38.8-6.3-38.8-6.3s1.6-18.7,2.6-33.1
								c-4.5,3.5-12.6,11.5-19.3,11.9c-10.3,0.7-29.8-7.1-29.8-7.1c1-8.7,2-18.4,2-18.4s26.6,6.2,28.4,4.9c1.5-1,2.5-3.6,3.4-5
								c2.1-3.3,4-6.7,6-10.1c2.6-4.4,5-9,8.1-13.1c1.6-2.1,3.3-3.9,5.3-5.5c2.2-1.7,4.8-2,7.4-2.5c1.3-0.2,2.5-0.4,3.8-0.6
								c3.5,2.6,12.2,7.3,20.6-2c0.2,0.2,5.1,0.7,6,0.8c2.2,0.3,4.4,0.7,6.5,1.4c4.3,1.4,7.3,3.7,9.9,7.3c5.1,7,9.5,14.4,13.4,22.1
								c3.3,6.4,6.6,13.1,8.7,20C695.9,169.6,709.8,208.9,709.8,208.9L709.8,208.9z"/>
							<path class="st8" d="M684.2,204.6c-0.2-0.9-0.4-1.8-0.6-2.7c-3.4-15.7-8.4-38.5-9.1-40.9c-0.5-1.7-3.6-5.6-7.2-10.1l-0.1-0.2
								l-1.4-1.8l0.1,1l0,0l1.6,17.8v0.4l0,0v0.4l0.2,3l0.2,1.9l0.5,5.7l0.2,1.9l0,0l0.4,4.8l0.2,2.3c-1.2,0.9-4.8,3.4-6,3.8
								c-1,0.4-2.2,0.7-3.4,0.9c-0.1,0-0.2,0-0.4,0.1c-0.1,0-0.2,0-0.4,0.1c-0.4,0.1-0.9,0.1-1.3,0.2c-1.8,0.2-3.6,0.3-5.4,0.4l0,0
								l0,0l0.4,0.2l0.3,0.1l0,0h0.1l0.6,0.2l0,0c1.8-0.1,3.6-0.2,5.3-0.5l0,0c0.1,0,0.1,0,0.2,0c0.1,0,0.2,0,0.4,0
								c0.1,0,0.2,0,0.4-0.1c1.3-0.2,2.4-0.5,3.5-0.9c1.4-0.5,5.3-3.1,6.3-4l0,0l0.1-0.1l-0.5-5.6l0,0l-0.2-1.9l-0.7-8.2v-0.6
								l-0.3-3.4v-0.5v-0.5l-1.5-17l0.2,0.2v0.1c3.4,4.3,6.7,8.3,7.1,9.9c0.6,2.4,5.6,24.8,9,40.5c0.2,0.9,0.4,1.8,0.6,2.7
								c0.1,0,0.2,0.1,0.3,0.1l0,0c0.1,0.5,0.2,0.9,0.3,1.3c0.1,0.1,0.2,0.2,0.4,0.4C684.4,205.7,684.3,205.2,684.2,204.6
								L684.2,204.6z M684.2,204.6c-0.2-0.9-0.4-1.8-0.6-2.7c-3.4-15.7-8.4-38.5-9.1-40.9c-0.5-1.7-3.6-5.6-7.2-10.1l-0.1-0.2
								l-1.4-1.8l0.1,1l0,0l1.6,17.8v0.4l0,0v0.4l0.2,3l0.2,1.9l0.5,5.7l0.2,1.9l0,0l0.4,4.8l0.2,2.3c-1.2,0.9-4.8,3.4-6,3.8
								c-1,0.4-2.2,0.7-3.4,0.9c-0.1,0-0.2,0-0.4,0.1c-0.1,0-0.2,0-0.4,0.1c-0.4,0.1-0.9,0.1-1.3,0.2c-1.8,0.2-3.6,0.3-5.4,0.4l0,0
								l0,0l0.4,0.2l0.3,0.1l0,0h0.1l0.6,0.2l0,0c1.8-0.1,3.6-0.2,5.3-0.5l0,0c0.1,0,0.1,0,0.2,0c0.1,0,0.2,0,0.4,0
								c0.1,0,0.2,0,0.4-0.1c1.3-0.2,2.4-0.5,3.5-0.9c1.4-0.5,5.3-3.1,6.3-4l0,0l0.1-0.1l-0.5-5.6l0,0l-0.2-1.9l-0.7-8.2v-0.6
								l-0.3-3.4v-0.5v-0.5l-1.5-17l0.2,0.2v0.1c3.4,4.3,6.7,8.3,7.1,9.9c0.6,2.4,5.6,24.8,9,40.5c0.2,0.9,0.4,1.8,0.6,2.7
								c0.1,0,0.2,0.1,0.3,0.1l0,0c0.1,0.5,0.2,0.9,0.3,1.3c0.1,0.1,0.2,0.2,0.4,0.4C684.4,205.7,684.3,205.2,684.2,204.6
								L684.2,204.6z M710.1,208.9c0,0-0.1-0.2-0.2-0.7c-1.8-5.2-13.9-39.6-16.7-49.3c-1-3.5-2.4-6.9-3.9-10.2
								c-0.2-0.5-0.5-1-0.7-1.5s-0.5-1.1-0.8-1.6c-1.1-2.3-2.2-4.6-3.3-6.7c-1-1.9-2-3.8-3-5.6l0,0c-2.1-3.8-4.2-7.3-6.4-10.6
								c-1.4-2.1-2.7-4-4.1-5.9c-2.7-3.7-5.8-6-10.1-7.4c-2-0.7-4.1-1.1-6.6-1.4c-0.3,0-0.9-0.1-1.6-0.2c-1.1-0.1-3-0.3-3.9-0.5
								c-0.1,0-0.2,0-0.3,0s-0.1,0-0.1,0l-0.2-0.2l-0.2,0.2c-1.4,1.5-2.7,2.6-4,3.4c-2.7,1.6-5.3,2.1-7.7,1.9
								c-0.9-0.1-1.7-0.2-2.5-0.5c-2.5-0.7-4.5-1.8-5.8-2.8c-0.1,0-0.1-0.1-0.2-0.1l0,0l-0.1-0.1h-0.2h-0.3c0,0-0.1,0-0.2,0
								c-0.7,0.1-1.5,0.2-2.2,0.3c-0.3,0-0.7,0.1-1,0.2l-0.6,0.1c-1.1,0.2-2.3,0.4-3.5,0.7c-1.2,0.4-2.4,0.9-3.5,1.7
								c-1.9,1.5-3.7,3.3-5.4,5.6c-2.3,3-4.1,6.2-5.9,9.3c-0.7,1.2-1.4,2.5-2.2,3.8c-0.7,1.1-1.4,2.3-2.1,3.4
								c-1.3,2.2-2.6,4.4-4,6.6c-0.2,0.4-0.5,0.9-0.7,1.4c-0.7,1.4-1.6,2.9-2.6,3.6c-1.3,0.9-17.9-2.5-28.2-4.9l-0.3-0.1v0.3
								c0,0,0,0.6-0.2,1.4c0,0.1,0,0.3,0,0.4c0,0.1,0,0.2,0,0.4c-0.3,3-0.9,8.6-1.5,14c0,0.1,0,0.2,0,0.3s0,0.2,0,0.3
								c-0.1,0.5-0.1,0.9-0.2,1.4v0.2l0.2,0.1c0.2,0.1,19.7,7.8,30,7.1c5.4-0.4,11.8-5.7,16.5-9.6c0.9-0.7,1.7-1.4,2.4-2
								c-1,14.1-2.6,32.2-2.6,32.4v0.2l0.2,0.1c0,0,0.1,0,0.3,0.1s0.7,0.2,1.3,0.4c4,1.2,15,4.2,26.7,5.4c1.8,0.2,3.5,0.3,5.3,0.4
								l0,0l0,0l0,0l0,0l0,0c0.6,0,1.1,0,1.6,0l0,0c1.2,0,2.4,0,3.6,0h0.5c0.9,0,1.7,0,2.6-0.1c0.8,0,1.6-0.1,2.5-0.1l0,0
								c1.8-0.1,3.6-0.2,5.3-0.5l0,0c0.1,0,0.1,0,0.2,0c0.1,0,0.2,0,0.4,0c0.1,0,0.2,0,0.4-0.1c1.3-0.2,2.4-0.5,3.5-0.9
								c1.4-0.5,5.3-3.1,6.3-4l0,0l0.1-0.1l-0.5-5.6l0,0l-0.2-1.9l-0.7-8.2V172l-0.3-3.4v-0.5v-0.5l-1.5-17l0.2,0.2v0.1
								c3.4,4.3,6.7,8.3,7.1,9.9c0.6,2.4,5.6,24.8,9,40.5c0.2,0.9,0.4,1.8,0.6,2.7c0.1,0.3,0.2,0.7,0.2,1c0.3,1.4,0.6,2.7,0.9,3.9
								l0,0c0.2,0.7,0.3,1.4,0.5,2.1c0.7,3.3,1.2,5.4,1.2,5.5v0.2l0.2,0.1c1,0.4,2.1,0.5,3.3,0.5c1,0,2.1-0.1,3.2-0.3
								c0.1,0,0.2,0,0.3-0.1c0.1,0,0.2,0,0.3-0.1c2.1-0.5,4.1-1.3,6.2-2.1l0,0c0.9-0.5,1.9-0.9,2.8-1.4l0,0c0.7-0.3,1.4-0.7,2-1.1
								c0.1,0,0.2-0.1,0.3-0.2c0.1-0.1,0.2-0.1,0.3-0.2c0.6-0.3,1.1-0.7,1.6-0.9c0.6-0.4,1.1-0.7,1.6-1l0,0c0.9-0.6,1.6-1,1.7-1.1
								l0.2-0.1L710.1,208.9L710.1,208.9z M707.4,210.1c-0.3,0.2-0.8,0.5-1.2,0.8l0,0c-0.4,0.2-0.9,0.5-1.4,0.8
								c-0.1,0-0.2,0.1-0.3,0.2c-0.1,0-0.2,0.1-0.2,0.2c-0.8,0.5-1.8,0.9-2.7,1.4s-1.9,0.9-2.9,1.4c-1.6,0.7-3.4,1.3-5,1.7
								c-0.1,0-0.2,0-0.3,0.1c-0.1,0-0.2,0-0.3,0.1c-2.3,0.5-4.4,0.6-6.2,0c-0.1-0.5-0.5-2.3-1.1-5l0,0c-0.2-0.7-0.3-1.4-0.5-2.1
								l0,0c-0.2-1-0.5-2.1-0.7-3.3c-0.1-0.5-0.2-1-0.3-1.6c-0.2-0.9-0.4-1.8-0.6-2.7c-3.4-15.7-8.4-38.5-9.1-40.9
								c-0.5-1.7-3.6-5.6-7.2-10.1l-0.1-0.2l-1.4-1.8l0.1,1l0,0l1.6,17.8v0.4l0,0v0.4l0.2,3l0.2,1.9l0.5,5.7l0.2,1.9l0,0l0.4,4.8
								l0.2,2.3c-1.2,0.9-4.8,3.4-6,3.8c-1,0.4-2.2,0.7-3.4,0.9c-0.1,0-0.2,0-0.4,0.1c-0.1,0-0.2,0-0.4,0.1
								c-0.4,0.1-0.9,0.1-1.3,0.2c-1.8,0.2-3.6,0.3-5.4,0.4l0,0c-0.5,0-1.1,0-1.6,0.1l0,0c-0.7,0-1.4,0-2.1,0.1h-0.5
								c-1.4,0-2.7,0-4.1,0c-0.9,0-1.7-0.1-2.6-0.1l0,0c-1.8-0.1-3.7-0.3-5.5-0.5c-11-1.3-21.1-4.1-24.9-5.2l0,0
								c-0.3-0.1-0.6-0.2-0.8-0.2c-0.2-0.1-0.4-0.1-0.5-0.2c0.2-2.3,1.7-19.5,2.6-32.8v-0.7l-0.6,0.4c0,0-0.1,0-0.1,0.1
								c-0.9,0.7-1.8,1.5-2.9,2.4c-4.6,3.8-10.9,9.1-16.1,9.4c-9.5,0.7-27.3-6.1-29.4-7c0-0.4,0.1-0.7,0.1-1.1c0-0.1,0-0.2,0-0.3
								l0,0c0-0.1,0-0.2,0-0.3c0.6-5.2,1.1-10.4,1.5-13.5c0-0.2,0-0.3,0-0.4c0-0.2,0-0.3,0-0.5c0.1-0.7,0.1-1.3,0.2-1.7
								c4,0.9,26.5,6,28.3,4.7c1.1-0.8,2-2.4,2.8-3.8c0.2-0.5,0.5-0.9,0.7-1.3c1.4-2.2,2.7-4.4,4-6.6c0.7-1.1,1.4-2.3,2.1-3.4
								c0.7-1.2,1.5-2.5,2.2-3.8c1.8-3.1,3.7-6.3,5.9-9.2c1.7-2.2,3.4-4,5.3-5.5c0.9-0.7,1.9-1.2,3-1.5c1.2-0.4,2.4-0.6,3.7-0.8
								l0.6-0.1c0.5-0.1,0.9-0.2,1.4-0.2c0.7-0.1,1.3-0.2,2-0.3h0.2h0.1c0,0,0.1,0.1,0.2,0.1c0.1,0,0.1,0.1,0.2,0.2
								c1.2,0.8,2.9,1.8,4.9,2.5c0,0,0,0,0.1,0c0.8,0.2,1.7,0.5,2.6,0.6c0.6,0.1,1.3,0.2,2,0.1c2.2,0,4.5-0.6,6.9-2.1
								c1.3-0.8,2.7-1.9,4-3.3c0.1,0,0.2,0,0.2,0c0.1,0,0.2,0,0.2,0c0.1,0,0.2,0,0.3,0.1c0.7,0.1,1.8,0.2,3.5,0.4
								c0.7,0.1,1.3,0.1,1.6,0.2c2.4,0.3,4.5,0.8,6.4,1.4c4.1,1.4,7.1,3.5,9.8,7.1c1.4,1.8,2.6,3.7,3.9,5.6c2.3,3.4,4.4,7,6.6,10.9
								c1,1.8,2,3.6,2.9,5.5c0.9,1.8,1.9,3.7,2.8,5.7c0.2,0.5,0.5,1.1,0.8,1.6c0.2,0.5,0.5,1,0.7,1.5c1.7,3.6,3.2,7.3,4.3,11.1
								c2.8,9.5,14.5,42.8,16.6,49c0.1,0.3,0.2,0.6,0.3,0.8C709.1,209.1,708.4,209.6,707.4,210.1L707.4,210.1L707.4,210.1z
								 M684.2,204.6c-0.2-0.9-0.4-1.8-0.6-2.7c-3.4-15.7-8.4-38.5-9.1-40.9c-0.5-1.7-3.6-5.6-7.2-10.1l-0.1-0.2l-1.4-1.8l0.1,1l0,0
								l1.6,17.8v0.4l0,0v0.4l0.2,3l0.2,1.9l0.5,5.7l0.2,1.9l0,0l0.4,4.8l0.2,2.3c-1.2,0.9-4.8,3.4-6,3.8c-1,0.4-2.2,0.7-3.4,0.9
								c-0.1,0-0.2,0-0.4,0.1c-0.1,0-0.2,0-0.4,0.1c-0.4,0.1-0.9,0.1-1.3,0.2c-1.8,0.2-3.6,0.3-5.4,0.4l0,0l0,0l0.4,0.2l0.3,0.1l0,0
								h0.1l0.6,0.2l0,0c1.8-0.1,3.6-0.2,5.3-0.5l0,0c0.1,0,0.1,0,0.2,0c0.1,0,0.2,0,0.4,0c0.1,0,0.2,0,0.4-0.1
								c1.3-0.2,2.4-0.5,3.5-0.9c1.4-0.5,5.3-3.1,6.3-4l0,0l0.1-0.1l-0.5-5.6l0,0l-0.2-1.9l-0.7-8.2v-0.6l-0.3-3.4v-0.5v-0.5
								l-1.5-17l0.2,0.2v0.1c3.4,4.3,6.7,8.3,7.1,9.9c0.6,2.4,5.6,24.8,9,40.5c0.2,0.9,0.4,1.8,0.6,2.7c0.1,0,0.2,0.1,0.3,0.1l0,0
								c0.1,0.5,0.2,0.9,0.3,1.3c0.1,0.1,0.2,0.2,0.4,0.4C684.4,205.7,684.3,205.2,684.2,204.6L684.2,204.6z"/>
						</g>
						
							<rect x="663.3" y="140.6" transform="matrix(0.8083 -0.5888 0.5888 0.8083 40.9929 418.8062)" class="st8" width="0.6" height="11.7"/>
						<path class="st6" d="M621.6,70c0,0-2.7,7.5-1.9,9.7l18.6,1.1l6.5-8.2L621.6,70L621.6,70z"/>
						<path class="st6" d="M656.3,100.4c0,0-12.8-6.4-12.2-23.2c0.6-16.7,14.6,2.7,14.6,2.7l4.3,12.7L656.3,100.4L656.3,100.4z"/>
						
							<rect x="604.9" y="146.6" transform="matrix(8.019221e-02 -0.9968 0.9968 8.019221e-02 417.1868 745.9068)" class="st8" width="15.8" height="0.6"/>
						<path class="st11" d="M618.2,71.5c0,0,12.6-16.5,39.2,4.1l-3.6-12.3l-9.2-5.7l-8.2,2.1l-9,1.9L618.2,71.5L618.2,71.5z"/>
						<path class="st6" d="M624,108.9c2.1,1.2,2.9,4.7,4,6.6c1.6,2.9,3.3,5.8,5.1,8.7c4.6,7.5,9.4,14.9,14.6,21.9
							c2.1,2.9,4,5.9,6,8.8c0.9,1.3,14.3,18.2,15.1,17.5l-3.9,5.4c0,0-19.1-17.7-45.1-65.4c-1.2-2.2,1-4.4,3.2-3.9
							C623.5,108.7,623.7,108.8,624,108.9L624,108.9z"/>
						<path class="st10" d="M637.8,86.6C637.7,86.6,637.7,86.6,637.8,86.6c-0.2-0.1-0.2-0.2-0.2-0.2c0-0.1,0.1-0.1,0.2-0.1
							c0.3,0.1,0.7-0.3,0.9-0.4c0.1-0.1,0.2-0.1,0.2,0c0.1,0,0.1,0.2,0,0.2C638.9,86.2,638.3,86.8,637.8,86.6L637.8,86.6z"/>
						<path class="st10" d="M625.8,86.6L625.8,86.6c0.2-0.1,0.2-0.2,0.2-0.2c0-0.1-0.1-0.1-0.2-0.1c-0.3,0.1-0.7-0.3-0.9-0.4
							c-0.1-0.1-0.2-0.1-0.2,0c-0.1,0-0.1,0.2,0,0.2C624.6,86.2,625.2,86.8,625.8,86.6L625.8,86.6z"/>
						<g>
							<path class="st7" d="M672.1,174.3c-0.4-1.4-0.9-2.8-1.8-4c-0.6-0.8-1.6-1.6-2.5-2c-2.4-0.8-5.7,1.6-6.8,3.6
								c-0.8,1.5-1.1,3.2-1.3,4.8c-1,6.8-1.1,13.8,0.7,20.4c0.6,2.4,1.6,4.8,3.4,6.5c1.8,1.7,4.7,2.5,6.9,1.2s2.9-4.2,3.2-6.8
								C674.8,190.2,674.3,182.1,672.1,174.3L672.1,174.3z"/>
							<path class="st8" d="M672.5,174.3c-0.7-2.5-2.1-5.9-5-6.4c-2.3-0.4-4.6,1.2-6,2.8c-1.9,2.3-2.1,5.6-2.4,8.4
								c-0.4,3.4-0.5,6.9-0.3,10.3c0.2,3.2,0.7,6.5,1.8,9.6c0.9,2.5,2.3,5,4.8,6.2c2.2,1.1,5,1,6.7-0.9c1.8-1.9,2.1-4.8,2.4-7.3
								C675.1,189.4,674.6,181.6,672.5,174.3c-0.1-0.5-0.9-0.3-0.7,0.2c1.6,5.8,2.3,11.8,2.1,17.9c-0.1,2.8-0.2,5.6-0.9,8.3
								c-0.7,2.4-2.2,4.6-4.9,4.6c-6-0.2-7.5-7.8-8.2-12.4c-0.5-3-0.6-6.1-0.4-9.1c0.1-3,0.4-6.1,1-9c0.3-1.4,0.8-2.8,1.8-3.8
								c0.9-0.9,2.1-1.8,3.4-2.1c3.5-1,5.3,3,6,5.7C671.9,174.9,672.6,174.7,672.5,174.3L672.5,174.3z"/>
						</g>
						
							<rect x="668.6" y="168.2" transform="matrix(0.914 -0.4056 0.4056 0.914 -16.0201 286.8846)" class="st8" width="0.6" height="26.1"/>
					</g>
					<g>
						<g>
							<path class="st9" d="M558.9,146.3c-0.7,0-1.5-0.2-2.1-0.7c-7.9-6.3-13.1-12.9-15.5-19.7c-0.9-2.3-1.4-4.7-1.4-7.1
								c0-10.3,8.5-18.8,18.9-18.8s18.9,8.4,18.9,18.8l0,0c0,4-1.5,14.5-16.7,26.7C560.4,146,559.7,146.3,558.9,146.3L558.9,146.3z"
								/>
							<path class="st6" d="M576.8,112.4c-0.1-0.2-0.1-0.3-0.2-0.5c-0.1-0.2-0.1-0.3-0.2-0.5c-2.6-6.2-8.4-10.7-15.4-11.5
								c-0.7-0.1-1.5-0.1-2.2-0.1c-3,0-5.8,0.7-8.4,1.9c0,0-0.1,0-0.1,0.1h-0.1c-1.4,0.7-2.8,1.6-3.9,2.7l-0.1,0.1l-0.1,0.1
								c-0.6,0.5-1.1,1-1.6,1.6c-1.9,2.1-3.2,4.7-4,7.5c0,0.2-0.1,0.3-0.1,0.5s-0.1,0.3-0.1,0.5c-0.3,1.3-0.4,2.6-0.4,3.9
								c0,2.5,0.5,5,1.4,7.1c1.8,5.1,6,12.1,15.5,19.7c0.6,0.5,1.4,0.7,2.2,0.7s1.5-0.2,2.2-0.7c15.3-12.2,16.9-22.8,16.8-26.8l0,0
								C577.9,116.5,577.5,114.4,576.8,112.4L576.8,112.4z M577.6,118.8c0,3.9-1.5,14.5-16.7,26.6c-0.5,0.5-1.3,0.7-2,0.7
								s-1.4-0.2-2-0.7c-7.9-6.3-13.1-12.8-15.4-19.6l0,0l0,0c-0.9-2.3-1.4-4.6-1.4-7.1c0-1.4,0.1-2.7,0.5-4c0-0.2,0.1-0.3,0.1-0.5
								s0.1-0.3,0.1-0.5c0.8-2.8,2.2-5.3,4.1-7.4c0.4-0.4,0.8-0.8,1.2-1.2l0.1-0.1l0.1-0.1c1.2-1.1,2.5-2,4-2.8h0.1h0.1
								c2.5-1.2,5.3-1.9,8.3-1.9c0.7,0,1.4,0,2,0.1c6.9,0.7,12.6,5.1,15.2,11.2c0.1,0.2,0.1,0.3,0.2,0.5c0.1,0.2,0.1,0.3,0.2,0.5
								C577.2,114.3,577.6,116.5,577.6,118.8L577.6,118.8L577.6,118.8z"/>
						</g>
						<g>
							<circle class="st7" cx="558.8" cy="119.2" r="14.3"/>
							<path class="st6" d="M571.6,112.4c-0.1-0.2-0.2-0.3-0.2-0.5c-0.1-0.2-0.2-0.3-0.3-0.5c-2.5-4.1-7.1-6.8-12.3-6.8
								c-1.4,0-2.8,0.2-4,0.6l0,0c-0.5,0.2-1.1,0.3-1.6,0.6l0,0c-0.8,0.3-1.6,0.7-2.3,1.2c0,0-0.1,0-0.1,0.1c0,0-0.1,0-0.1,0.1
								c-1.9,1.3-3.5,3.1-4.6,5.1c0,0.1-0.1,0.2-0.1,0.2l-0.1,0.2c0,0.1-0.1,0.2-0.1,0.2c-0.1,0.2-0.2,0.3-0.2,0.5
								c-0.1,0.2-0.1,0.3-0.2,0.5c-0.6,1.6-0.9,3.3-0.9,5c0,1.9,0.4,3.8,1.1,5.5c0,0.1,0.1,0.2,0.1,0.2l0,0c0,0.1,0.1,0.2,0.1,0.2
								c0.5,0.9,1,1.8,1.6,2.7l0.1,0.1c0,0,0,0.1,0.1,0.1c2.6,3.4,6.8,5.5,11.4,5.5c8,0,14.5-6.5,14.5-14.5
								C573.3,116.8,572.7,114.4,571.6,112.4L571.6,112.4z M558.8,133.4c-4.4,0-8.4-2.1-11-5.3l-0.1-0.1l-0.1-0.1
								c-0.8-1-1.5-2.2-2-3.4c0-0.1-0.1-0.2-0.1-0.3c0-0.1-0.1-0.2-0.1-0.3c-0.5-1.5-0.8-3-0.8-4.7c0-1.8,0.3-3.5,0.9-5.1
								c0-0.1,0.1-0.3,0.2-0.4l0,0v-0.1c0-0.1,0-0.1,0.1-0.2l0,0c0-0.1,0.1-0.2,0.1-0.3l0,0c1.1-2.2,2.7-4.1,4.6-5.5l0.1-0.1
								c0,0,0.1,0,0.1-0.1c2.3-1.5,5-2.4,7.9-2.4c5,0,9.4,2.6,11.9,6.4c0.1,0.2,0.2,0.3,0.3,0.5s0.2,0.3,0.3,0.5
								c1.1,2,1.7,4.3,1.7,6.8C573,127,566.6,133.3,558.8,133.4L558.8,133.4z"/>
						</g>
						<g>
							<path class="st6" d="M550.3,121.9h1.9c0.4,0,0.7,0.3,0.7,0.7v2.9h-3.4v-2.9C549.5,122.3,549.9,121.9,550.3,121.9z"/>
							<path class="st6" d="M554.8,118.3c-0.4,0-0.7,0.4-0.7,0.8v6.5h3.4v-6.5c0-0.4-0.3-0.8-0.7-0.8H554.8L554.8,118.3z"/>
							<path class="st6" d="M559.4,114.7c-0.4,0-0.7,0.4-0.7,0.8v10.1h3.4v-10.1c0-0.4-0.3-0.8-0.7-0.8H559.4L559.4,114.7z"/>
							<path class="st6" d="M564,111c-0.4,0-0.7,0.4-0.7,0.8v13.8h3.4v-13.8c0-0.4-0.3-0.8-0.7-0.8H564L564,111z"/>
						</g>
					</g>
				</g>
			</g>
		</g>
	</g>
</g>
<g>
	<path d="M329.6,94l0.1-0.1l-4.5-1.4l0,0.1c-2.5,6.1-6.9,12.1-11.3,15.8l-0.1,0.1l0.1,0.1c1,0.8,2.7,2.4,3.4,3.2l0.1,0.1l0.1-0.1
		C322,107.4,326.7,100.6,329.6,94z"/>
	<path d="M342.1,92.5l0-0.1h-10.4v4.2h7.3c2.5,6.4,6.4,11.9,10.8,15.2l0.1,0.1l0.1-0.1c0.7-1.2,2-2.9,3-3.8l0.1-0.1l-0.2-0.1
		C348.2,104.8,344.1,99,342.1,92.5z"/>
	<path d="M341.2,113.1L341.2,113.1l-4.1,1.7l0.1,0.1c1.7,2.4,3.2,4.6,4.5,6.6l-16.8,1.1c4-4.6,8-10.5,11.5-16.5l0.1-0.1l-4.7-2
		l-0.1,0.1c-3.2,6.8-8.4,14-10.3,16c-1.5,1.8-2.6,3.1-3.9,3.4l-0.2,0l0.1,0.2c0.6,1.1,1.3,3.3,1.5,4.1l0,0.2l0.1-0.1
		c1.7-0.6,4.2-0.8,23.1-2.2l1.9-0.1c0.8,1.3,1.5,2.6,2.1,3.9l0.1,0.1l4.1-2.2l-0.1-0.1C348.3,123.1,344.1,117,341.2,113.1z"/>
	<path d="M371.5,117.1l2.5-3.4l-0.1-0.1c-0.9-1.1-4.9-5.4-6.3-6.7v-0.1h6.5v-3.9h-6.5V97c2.4-0.5,4.5-1.1,6.2-1.7l0.2-0.1l-2.3-3.4
		l-0.1,0c-3.3,1.3-8.9,2.6-15,3.6l-0.2,0l0.1,0.2c0.5,0.9,0.9,2.2,1.1,2.9l0,0.1l0.1,0c2-0.2,3.9-0.5,5.9-0.8v5.1h-7v3.9h6.3
		c-2,4.6-4.9,9.3-7.6,11.9l-0.1,0.1l0.1,0.1c0.3,0.5,1.5,2.4,1.9,3.7l0.1,0.2l0.2-0.2c2-2.2,4.2-5.8,6.1-9.7v16.8h4v-18.2
		c1.4,1.9,3,4.2,3.8,5.5L371.5,117.1z"/>
	<path d="M387.4,108.4l-0.1-0.1l-3.8,1.4l0.1,0.1c1.1,2.7,2.8,6.8,4.1,10.7l-10.6,1.5c3-8.3,5.7-18.7,7.5-28.6l0-0.1l-4.4-0.8l0,0.1
		c-1.7,10.5-5.2,22.2-6.2,25.1c-1,2.9-1.9,5.1-3,5.5l-0.1,0.1l0.1,0.1c0.4,1.1,1.2,3,1.4,3.8l0,0.2l0.2-0.1
		c1.3-0.6,3.4-1.1,16.4-3.1c0.5,1.6,0.9,3,1.2,4.3l0,0.2l4.2-1.7l0-0.1C393.1,121.9,390,114,387.4,108.4z"/>
	<path d="M429.7,108.7l0-0.1H426l0,0.1c0,1.3-0.1,2.7-0.2,4h-3.6v3.3h3.3c-0.6,5.2-2.1,8.5-4.9,10.8l-0.1,0.1
		c0.5-1.8,0.7-5.3,0.9-12.6c0-0.4,0-1.3,0-1.4v-0.1H416c0.1-1.3,0.1-2.7,0.2-3.9l0-0.1h-2.8c5.3-2.1,8.3-5.1,9.9-9.7h6.8
		c-0.3,3.1-0.7,4.9-1.2,5.4c-0.3,0.3-0.6,0.3-1.2,0.3c-0.6,0-2.1,0-3.9-0.2l-0.3,0l0.1,0.2c0.5,0.8,0.9,2.1,0.9,3.2l0,0.1l0.1,0
		c1.9,0.1,3.6,0,4.5,0c1.1-0.1,1.9-0.3,2.7-1.2c1-1.1,1.6-3.6,2.1-9.7c0.1-0.5,0.1-1.3,0.1-1.4l0-0.1h-10c0.2-1.3,0.4-2.7,0.5-4.2
		l0-0.1h-3.9l0,0.1c-0.1,1.5-0.2,2.9-0.5,4.2h-7.6V99h6.6c-1.4,3.3-4,5.5-8.2,6.9l-0.2,0.1l0.2,0.2c0.7,0.6,1.5,1.8,1.9,2.5h-0.1
		l0,0.1c0,1.2-0.1,2.6-0.2,3.9h-3.8v3.3h3.6c-0.6,5.3-2.1,8.7-4.7,11l-0.1,0.1l0.1,0.1c0.7,0.5,1.7,1.6,2.1,2.4l0.1,0.2l0.1-0.1
		c3.3-3,5.2-7.2,5.9-13.6h2.4c-0.2,6.7-0.4,9.3-0.9,10c-0.2,0.3-0.5,0.4-0.8,0.4c-0.5,0-1.3,0-2.4-0.1l-0.3,0l0.1,0.2
		c0.5,0.8,0.7,2.1,0.8,3l0,0.1l0.1,0c1.5,0.1,2.6,0,3.2-0.1c0.9-0.1,1.6-0.4,2.2-1.3c0.2-0.3,0.4-0.7,0.5-1.3l0.1,0.1
		c0.8,0.5,1.7,1.7,2.1,2.4l0.1,0.2l0.1-0.1c3.5-2.9,5.4-7.1,6.2-13.5h2.7c-0.2,6.7-0.4,9.2-0.9,9.9c-0.2,0.3-0.4,0.4-0.9,0.4
		c-0.5,0-1.4,0-2.5-0.2l-0.3,0l0.1,0.2c0.5,0.9,0.7,2.2,0.8,3.1l0,0.1l0.1,0c1.6,0.1,2.7,0,3.4-0.1c1.1-0.1,1.7-0.5,2.3-1.3
		c0.8-1.1,1.1-4.3,1.4-13.9c0-0.5,0-1.4,0-1.4v-0.1h-5.9C429.6,111.5,429.7,110,429.7,108.7z"/>
	<polygon points="411.1,101.9 406.5,101.9 406.5,91.3 402.5,91.3 402.5,101.9 397.7,101.9 397.7,105.7 402.5,105.7 402.5,129.6 
		406.5,129.6 406.5,105.7 411.1,105.7 	"/>
	<path d="M458.7,100.1v-8.7h-4.3v8.7h-13v4.2h12.8c-0.6,6.4-2.6,15.6-14,22.1l-0.2,0.1l0.2,0.1c0.9,0.7,2.3,2.1,3,3.1l0.1,0.1
		l0.1-0.1c12.5-7.4,14.7-18.1,15.3-25.5h12.7c-0.7,13.1-1.5,19-2.9,20.3c-0.4,0.4-0.9,0.6-1.8,0.6c-1.1,0-3.6,0-6.3-0.2l-0.3,0
		l0.2,0.2c0.7,1.1,1.3,2.7,1.3,3.9l0,0.1l0.1,0c2.9,0.1,5.3,0.1,6.6,0c1.6-0.2,2.7-0.5,3.9-2c1.8-2.1,2.6-7.7,3.6-25.1
		c0-0.5,0.1-1.9,0.1-1.9l0-0.1H458.7z"/>
</g>
</svg>
