<svg width="16" height="16" viewBox="0 0 16 16" fill="none" xmlns="http://www.w3.org/2000/svg">
<path d="M6.51056 1.39058C6.95959 0.00861001 8.91471 0.00860977 9.36373 1.39058L10.1823 3.90983C10.3831 4.52786 10.959 4.9463 11.6089 4.9463H14.2578C15.7109 4.9463 16.315 6.80573 15.1395 7.65983L12.9964 9.21681C12.4707 9.59878 12.2507 10.2758 12.4515 10.8939L13.2701 13.4131C13.7191 14.7951 12.1374 15.9443 10.9618 15.0902L8.81883 13.5332C8.2931 13.1512 7.5812 13.1512 7.05547 13.5332L4.91247 15.0902C3.7369 15.9443 2.15518 14.7951 2.6042 13.4131L3.42276 10.8939C3.62357 10.2758 3.40358 9.59878 2.87785 9.21681L0.734847 7.65983C-0.440723 6.80573 0.16344 4.9463 1.61652 4.9463H4.26542C4.91526 4.9463 5.4912 4.52786 5.69201 3.90983L6.51056 1.39058Z" fill="url(#paint0_linear_4716_53769)"/>
<defs>
<linearGradient id="paint0_linear_4716_53769" x1="149" y1="79.3037" x2="149" y2="102.304" gradientUnits="userSpaceOnUse">
<stop stop-color="#F2C18D"/>
<stop offset="1" stop-color="#E7A467"/>
</linearGradient>
</defs>
</svg>
