<svg id="圖層_1" data-name="圖層 1" xmlns="http://www.w3.org/2000/svg" width="246" height="246" viewBox="0 0 246 246">
  <defs>
    <style>
      .cls-1 {
        fill: #fff;
      }
    </style>
  </defs>
  <g>
    <path class="cls-1" d="M143.79,111.14a3,3,0,0,1-2.7-1.63,19.18,19.18,0,0,0-33.59-.59,3.05,3.05,0,1,1-5.29-3,25.28,25.28,0,0,1,44.28.78,3.07,3.07,0,0,1-2.7,4.48Z"/>
    <path class="cls-1" d="M149.82,152.82a3,3,0,0,1-3-3V118.45a25.24,25.24,0,1,1,10.73,20.67,3.05,3.05,0,1,1,3.51-5,19.16,19.16,0,1,0-8.14-15.68v31.32A3,3,0,0,1,149.82,152.82Z"/>
    <path class="cls-1" d="M124.13,143.71A25.24,25.24,0,0,1,99.67,124.8a3.05,3.05,0,1,1,5.91-1.53,19.17,19.17,0,0,0,35,5,3.05,3.05,0,0,1,5.23,3.15A25.08,25.08,0,0,1,124.13,143.71Z"/>
    <path class="cls-1" d="M85,120.31a3.05,3.05,0,1,0-4.33,4.31l7.08,7.1a19.16,19.16,0,1,1-4.73-30.14,2.71,2.71,0,0,0,.39.17c.09,0,8.18,3.41,15.16,20.46a4.43,4.43,0,0,1,2.91-2.45,4.35,4.35,0,0,1,2.76.19c-7.51-18.38-16.69-23.07-18.46-23.82a25.27,25.27,0,1,0,8.56,37.2,3,3,0,0,0-.3-4Z"/>
  </g>
</svg>
