<svg id="圖層_1" data-name="圖層 1" xmlns="http://www.w3.org/2000/svg" width="246" height="246" viewBox="0 0 246 246">
  <defs>
    <style>
      .cls-1 {
        fill: #fff;
      }
    </style>
  </defs>
  <g id="Bradn">
    <g>
      <path class="cls-1" d="M94.33,118.32c.36.36.72.54,1.08.18.18-.36.54-.9.36-1.26a1.28,1.28,0,0,0-.9-.54l-.36.18c0,.36,0,.54-.18.54S94,118.14,94.33,118.32Z"/>
      <path class="cls-1" d="M88.21,112.2c-.18.36.18.36.18.54.18.18,0,.18,0,.36s-.54,0,.36.18a4.16,4.16,0,0,0,2.16,0c.36-.18.54-.9,0-1.08A1.76,1.76,0,0,0,90,112c0-.18-.36-.18-.72-.18C88.75,111.84,88.39,111.84,88.21,112.2Z"/>
      <path class="cls-1" d="M75.79,108.61h.36a15.59,15.59,0,0,1,2.16-1.26c.54-.18,1.08-.72,1.08-.36s-.9.72-1.08.9-.9.54-.54.72c.18.18.18,0,.18,0,1.08,0,2.16-.18,2,.9s-.72,1.07-.54,1.61a1.84,1.84,0,0,1,.18,1.08,7,7,0,0,0,1.26,2.88c.18.18.9,0,1.08.18.18,0,.18.36.54.36.18-.18.72,0,.9-.72s0-1.8.54-1.8c.72-.18,1.62-.18,1.8-.54a4.37,4.37,0,0,1,1.8-.9.9.9,0,0,0,.73-1v0c-.36-.72,0-.9.18-1.25s-.36-.72-.9-1.08-.36-.9-.36-1.26-.54-.36-.9-.36-.36-.36-.9-.36a1,1,0,0,0-.9-.36,8.72,8.72,0,0,0-2.16.18,8.32,8.32,0,0,0-2.16.72s1.62-.72.9-.72a18.31,18.31,0,0,0-3.6.54c-.36.18,0,.18-.54.18-.36,0-1.8.72-1.62.9a.65.65,0,0,0,.36.18s-.72,0-.72.36S75.79,108.61,75.79,108.61Z"/>
      <path class="cls-1" d="M121.5,127.86c1.44,1.44,3.06,7.38,3.06,7.38,2.52-14.94-5-23.94-5-23.94A38.29,38.29,0,0,1,109,121.72a26.47,26.47,0,0,0-14.92-15.41c7.58-7,15-10.91,23.12-11.56,9.36-.9,11.87,8.1,11.87,8.1l8.1-4.5c-2-6.12-5.58-11.34-15.29-11.34s-22.71,5.33-35.38,17.5c-.73-.06-1.48-.1-2.23-.1a26.31,26.31,0,0,0-18.55,45c1.42,5.75,5.53,9.6,13.33,9.6a32.89,32.89,0,0,0,14-3.43,26.3,26.3,0,0,0,9.32-5.72C112.9,141.89,120.52,131.13,121.5,127.86Zm-13,.9a10.3,10.3,0,0,1,.83,2.27c0,.25,0,.49,0,.73l-.09.14a8.19,8.19,0,0,0-.7-3.08S108.54,128.78,108.54,128.76Zm5-5a38,38,0,0,1-3,6.11,25.77,25.77,0,0,0-1.06-6.55ZM99.24,110.61c-.34,0-.51.06-.77-.21-.36-.54-.72-.72-.9-.72s-.36.18-.54.37c-.36.71.18,1.43.18,2s-.72.36-.54,1.44,1.26,2.34,1.8,2,1.62.18,1.26.36-1.08-.9-1.08,0a9.17,9.17,0,0,1-.18,2.34c0,.18-.18.36-.54.36.18-.18,0-.54,0-.54-.36-.72-.36-.54-.54-.72s-.18-.36-.36-.54,0-.18-.36-.18-.54-.36-.54-.72,0-.54-.36-.72-.9,0-.9.36,0,.9.36,1.08,1.08.36.9.72c0,.36-.36.72-.18.9s.36.18.36.54.36.36.9,0a2.3,2.3,0,0,1,.9-.18c-.54.36-1.26.54-1.08,1.08.18.72.72.36.9,1.08s.9,1.26,0,1.26-2.52-.54-2.52,0a3.05,3.05,0,0,1,.36,1.8c-.18.72,0,1.08.54,1.26a2,2,0,0,1,.72.36,4.21,4.21,0,0,1,.72-.18c.18-.18.72,0,.9-.18s.72-.54.54-.9c0-.36,0-.9.36-1.08s.18-.54.36-.72a.66.66,0,0,1,.54-.18c.18,0,.18-.36.54-.36.18,0,0,0,.53.54s1.26.54,1.62.9c.54.54.54.72.18.9s-.9.54-.54.72c.54.18,1.08.54.9.18,0-.36.18-1.08.18-1.26s.54-.54-.18-.72-1.62-1.26-1.8-1.44c0,0-.53-.72,0-.54a9.38,9.38,0,0,1,2,1.44l.72,1.44c.18.18.72,1.26.9,1.08s0-1.08-.18-1.26c-.18-.36.18-.9.36-.36.18.72.36,1.62.9,1.8.54,0,1.08-.54,1.08-.18a2.59,2.59,0,0,1,.18,1.26c0,.54,0,.9-.54.9-.36.18-.18.54-.36.54s-.72-.9-1.08-.9c-.36-.18-.9-.54-1.08,0s-.18,1.08-.54.9c-.54-.18-.9-.9-1.44-1.08s-.54-.54-.54-1.08,0-.72-.89-.54-2.34,0-2.7.54c-.54.36-1.44.18-2,.54-.36.54-1.26.54-1.26,1.26s.18,1.26-.72,1.8a3.25,3.25,0,0,0-1.26,1.8c-.18.54-.54.72-.36,1.44.18.54.54,1.08.18,1.8a1.61,1.61,0,0,0,.18,2c.36.54,1.08,1.26,1.08,1.61.18.36.36.18.9.72.36.36,1.62.36,2.16.36.54-.18,1.62-.9,2.34-.72a.74.74,0,0,1,.55.86.06.06,0,0,0,0,0s1.07-.72,1.07-.18-.89,1.62-.53,2.16a2.57,2.57,0,0,1,.36.77c-6.29,6.6-13.8,12.06-20.28,13.35a3,3,0,0,1-.42-1,7.22,7.22,0,0,1,2.7-5.94,12.55,12.55,0,0,0,3.6-4.86c.18-.9-.72-1.62-2.7-2.34a17.57,17.57,0,0,0-4-.54.77.77,0,0,0,.36-1,.69.69,0,0,0-.18-.24,15.32,15.32,0,0,0-3.78-2c-.72-.35-.36-.89-1.8-.89a30.72,30.72,0,0,0-3.59-.18c-.54.18-.72.89-1.62.72s-1.62-.37-1.8-1.26c-.36-.9-.54-1.44-1.08-1.44s-.36-.18-.54-.9c0-.9-1.08-1.62-1.44-.9-.18,1.08-.9,1.08-.9-.18,0-1.08-.18-2.52.9-2.52a4.48,4.48,0,0,1,2.34.36c.72.36,1.44.9,1.26-.18s.36-2.34,1.8-4.14,2.52-3.06,3.24-3.06,1.25.36,2.33-.54.9-1.62,0-1.62-1.61-.36-1.08-.72a2.58,2.58,0,0,1,2-.18c.36,0,0,1.26,0,1.44s2.16.54,2.52.18-.18-1.26-.54-1.62c-.54-.36.54-.9,0-1.44s-2.16-.9-2.16-1.44.36-1.44-.36-1.62c-.54-.36-.9.54-1.26.54-.18.18-.18-.18-.54-.72a2.31,2.31,0,0,0-2-.72,9.06,9.06,0,0,0-.9,2.16c-1.26.54-.9,1.44-1.26,2-.18.36-.54.72-.36-.18.18-1.08-.54-.54-1.08-.72-.36-.36-2.16-1.26-1.08-1.8s1.8-1.8,2.34-1.62a4.89,4.89,0,0,0,1.62,0c.36,0,.18-.54,0-.72s.54-.54.72-.72.36-1.62.72-1.44c.54,0,1.25.18,1.25.54,0,.54-.71,1.08-1.07,1.26-.36,0-1.08.54-1.08.72s1.08-.18,1.08,0a1.87,1.87,0,0,0,1.07.9c.72.18,2,0,1.8-.72-.18-.54-.54-1.26-.18-1.08.18.18,1.44.18,1.44-.18s-1.26-.9-1.26-.9.54-.18.54-.36a2.67,2.67,0,0,0-.9-1.25c0-.37-.9-.9-1.44-.9.54,0,1.26.18,1.44-.18,0-.36-.54-.36-.9-.36s-.18-.36-.36-.36h-.35c-.18,0-.36,0-.36.18s.18.36,0,.36-.18-.36-.36-.36c-.36,0-.72.18-.72.36s0,.36.36.36h1.08c-.36.36-1.44.71-1.62,1.25s-1.08,1.08-.72.36,1.8-1.08,1.44-1.43c-.36-.18-.9.18-1.26.35a4.94,4.94,0,0,0-1.26,1.44c0,.36-1.44,1.26-1.08.72a25,25,0,0,1,1.62-2c.18-.18-.54-.18-.54-.18l.06-.15a24.92,24.92,0,0,1,28.42,1.08Zm-31.22,1,.41-.35a.17.17,0,0,0,0,.07c0,.18-.18.9-.36.9S68,111.8,68,111.58Zm-8.45,14.49h0v1.44a15.75,15.75,0,0,0,.54,4.32c.36.54.9,1.08.72.36s-.54-2.7-.18-1.44c.36,1.08.9,2.34.9,2.34,1.62,2.34,3.78,2.88,5.22,3.95a7.44,7.44,0,0,0,2.88,1.26c.36.18-.18,1.08,0,2.88,0,1.44,3.24,4.68,4.5,5.22s1.43,2.16,2.15,4a12.83,12.83,0,0,0,3.92,4.9c-.36.05-.71.09-1.07.11a25.18,25.18,0,0,1-20.07-24.62A24.81,24.81,0,0,1,59.57,126.07Zm6.32,23.51.28.26c.9,1.89,3.38,5.48,9.36,5.73h0C69.21,155.37,66.72,151.37,65.89,149.58Z"/>
      <polygon class="cls-1" points="182.85 123 167.2 150.71 165.76 123 160.9 123 140.75 158.99 146.15 158.99 161.62 131.28 163.06 158.99 167.92 158.99 188.07 123 182.85 123"/>
      <path class="cls-1" d="M141.83,143.15a9.78,9.78,0,0,0-5.58-5A5,5,0,0,1,133,134.7a6.77,6.77,0,0,1,2-5.58c5-5.22,12.42-1.8,14.58.18l1.8,1.62,2.34-4.14-1.08-1.08c-3.42-3.06-13.68-7.56-21.06.18a10.47,10.47,0,0,0-3.23,9.72,9.27,9.27,0,0,0,6.11,6.83,4.63,4.63,0,0,1,3.06,2.34,4.07,4.07,0,0,1-.54,3.06,11.73,11.73,0,0,1-8.45,5.94,11.58,11.58,0,0,1-10.44-3.6l-1.62-1.62-2.34,4.14.72.72a16.71,16.71,0,0,0,11.88,5.22,13.47,13.47,0,0,0,2.69-.18,16.41,16.41,0,0,0,11.7-8.46A8.53,8.53,0,0,0,141.83,143.15Z"/>
    </g>
  </g>
</svg>
