<svg width="37" height="37" viewBox="0 0 37 37" fill="none" xmlns="http://www.w3.org/2000/svg">
<path d="M34.9375 9.12041C34.6956 8.74886 34.4349 8.37543 34.1555 8.04141C33.8761 7.68862 33.5779 7.37149 33.2629 7.05436C32.4809 6.27185 31.607 5.58317 30.6393 5.02584C29.8761 4.57923 29.0397 4.20768 28.1846 3.94684C26.4537 3.38763 24.539 3.18309 22.5287 3.38763H22.4911L17.9886 3.87178L13.6547 4.33716L10.6786 4.65429V11.802C10.6786 13.9055 12.5014 15.5438 14.5849 15.3204L17.9886 14.9489V11.0026L22.3224 10.5372C26.4143 10.0906 29.7448 13.1061 29.7448 17.2383C29.7448 21.3704 26.4143 25.0934 22.3224 25.54L17.9886 26.0241V22.1153L10.6768 22.8979L4.01758 23.6241V26.118C4.01758 27.7374 5.35654 28.8915 6.95617 28.7057L10.6768 28.2966V30.995C10.6768 32.5957 12.072 33.8436 13.6529 33.6747L17.9867 33.2093L22.4893 32.7252H22.5268C24.5352 32.5207 26.433 31.907 28.1639 30.9763C29.0378 30.5109 29.8573 29.9705 30.6187 29.3568C31.1963 28.8915 31.7532 28.4073 32.2558 27.8669C32.9441 27.1594 33.576 26.3957 34.1161 25.5775C34.3955 25.1684 34.6562 24.7594 34.8981 24.3296C36.2371 21.9652 37.0003 19.2855 37.0003 16.512C37.0191 13.7198 36.2558 11.2071 34.9356 9.12229L34.9375 9.12041Z" fill="#514F4F"/>
<path d="M2.28786 17.7018L12.0169 16.6772V21.1452L0 22.4288V20.1394C0 18.8559 1.00516 17.8501 2.28786 17.7V17.7018Z" fill="#514F4F"/>
<path d="M24.8718 15.8589L21.9876 16.176C21.41 16.2323 20.9824 16.7165 20.9824 17.2926V20.2143L23.8666 19.8972C24.4442 19.8409 24.8718 19.3567 24.8718 18.7806V15.8589Z" fill="#514F4F"/>
</svg>
