<svg id="圖層_1" data-name="圖層 1" xmlns="http://www.w3.org/2000/svg" width="246" height="246" viewBox="0 0 246 246">
  <defs>
    <style>
      .cls-1 {
        fill: #fff;
      }
    </style>
  </defs>
  <g>
    <path class="cls-1" d="M84.64,150.71H81.53V128.1H73v-2.77H93.06v2.77H84.52v22.61Z"/>
    <path class="cls-1" d="M107.47,148.05h0l-1,1a9.25,9.25,0,0,1-1.33.88,9,9,0,0,1-1.66.56,12.36,12.36,0,0,1-2,.22,6.59,6.59,0,0,1-2.55-.44,4.76,4.76,0,0,1-2-1.22,6.19,6.19,0,0,1-1.33-2,6.72,6.72,0,0,1-.45-2.66,5.12,5.12,0,0,1,.56-2.55A4.06,4.06,0,0,1,97.16,140a8.45,8.45,0,0,1,2.22-1.22c1.77-.78,6-.89,7.87-.89h.11a6.9,6.9,0,0,0-.11-1.44c-.11-.33-.23-.77-.34-1.11a4.39,4.39,0,0,0-1.66-1.55,7.47,7.47,0,0,0-3.1-.66,23.32,23.32,0,0,0-2.77.22,16.91,16.91,0,0,0-2.55.77v-2.66a4.5,4.5,0,0,1,1.11-.44l1.33-.33a7.43,7.43,0,0,1,1.55-.22c.55,0,1.11-.11,1.66-.11a9.94,9.94,0,0,1,4.77,1,6,6,0,0,1,2.66,2.77,5.64,5.64,0,0,1,.44,1.44,8.53,8.53,0,0,1,.11,1.67V150H107.8Zm-.22-7.65c-.56-.11-6.21-.11-7.76,1.44a3.44,3.44,0,0,0-1.11,2.66,3.53,3.53,0,0,0,.33,1.55,3.89,3.89,0,0,0,.78,1.11,2.54,2.54,0,0,0,1.22.67,6.44,6.44,0,0,0,1.44.22,5.64,5.64,0,0,0,1.88-.33c.56-.22,1-.45,1.55-.67a8.88,8.88,0,0,0,1.11-.77,2,2,0,0,0,.67-.67Z"/>
    <path class="cls-1" d="M166,148.05h0l-1,1a6.47,6.47,0,0,1-3,1.44,12.24,12.24,0,0,1-2,.22,6.52,6.52,0,0,1-2.55-.44,4.79,4.79,0,0,1-2-1.22,6.36,6.36,0,0,1-1.33-2,6.73,6.73,0,0,1-.44-2.66,5.11,5.11,0,0,1,.55-2.55,4.13,4.13,0,0,1,1.44-1.88,8.45,8.45,0,0,1,2.22-1.22c1.77-.78,6-.89,7.87-.89h.11a6.9,6.9,0,0,0-.11-1.44c-.11-.33-.22-.77-.33-1.11a4.49,4.49,0,0,0-1.67-1.55,7.44,7.44,0,0,0-3.1-.66,23.49,23.49,0,0,0-2.77.22,17.27,17.27,0,0,0-2.55.77v-2.66a4.66,4.66,0,0,1,1.11-.44l1.33-.33a7.52,7.52,0,0,1,1.55-.22c.56,0,1.11-.11,1.66-.11a9.91,9.91,0,0,1,4.77,1,5.87,5.87,0,0,1,2.66,2.77,5.64,5.64,0,0,1,.44,1.44,8.53,8.53,0,0,1,.11,1.67V150h-2.66Zm-.22-7.65c-.55-.11-6.21-.11-7.76,1.44a3.44,3.44,0,0,0-1.11,2.66,3.53,3.53,0,0,0,.33,1.55,4.09,4.09,0,0,0,.78,1.11,2.58,2.58,0,0,0,1.22.67,6.52,6.52,0,0,0,1.44.22,5.7,5.7,0,0,0,1.89-.33c.55-.22,1-.45,1.55-.67a10.66,10.66,0,0,0,1.11-.77,2,2,0,0,0,.66-.67Z"/>
    <path class="cls-1" d="M115.89,150.16V131H119v19.18Z"/>
    <path class="cls-1" d="M136.73,134.08c-.44,1.78-.78,3.33-1.11,4.55l-3.1,11.53H129.3L123.1,131h3.1l3.55,12c.44,1.55.88,2.88,1.11,3.77H131c.22-1,.55-2.33,1.1-4.21L135.29,131h3.1l3.55,11.53c.44,1.55.89,3,1.22,4.21h.11c.33-1.22.66-2.55,1.11-3.77l3.54-12H151l-6.43,19.18h-3.33l-3.21-11.42c-.44-1.44-.78-2.88-1.33-4.66Z"/>
    <path class="cls-1" d="M176.08,133.64h0a11.7,11.7,0,0,1,1.22-1.22,4.3,4.3,0,0,1,1.44-1,4.91,4.91,0,0,1,1.77-.66,9.12,9.12,0,0,1,4.55.11,4.56,4.56,0,0,1,2,1.22,5.27,5.27,0,0,1,1.33,2.1,7.73,7.73,0,0,1,.44,3.22v12.86h-3.1V137.85a5.08,5.08,0,0,0-1-3.54A3.82,3.82,0,0,0,182,133.2a6,6,0,0,0-3.1.88,11,11,0,0,0-2.66,2.44v13.64h-3.11V131h3.11Z"/>
    <path class="cls-1" d="M70.34,150.71s-4.44-5.1-5.32-6a2.87,2.87,0,0,1-.11-3.87,2.82,2.82,0,0,1,3.76.22,4.65,4.65,0,0,1,1.78,3c1.22-3.44,2.55-4.43,4-4.43a2.75,2.75,0,0,1,2.55,3v.11C76.77,145.28,73.22,146.94,70.34,150.71Z"/>
    <path class="cls-1" d="M141.38,105.27l-3.21,3.21a29.44,29.44,0,0,0-41.68,0l-3.21-3.21A34,34,0,0,1,141.38,105.27Z"/>
    <path class="cls-1" d="M135.07,111.58l-3.22,3.22a20.47,20.47,0,0,0-28.93,0l-3.21-3.22A25,25,0,0,1,135.07,111.58Z"/>
    <path class="cls-1" d="M128.75,118l-3.22,3.22a11.52,11.52,0,0,0-16.29,0L106,118a16,16,0,0,1,22.72,0Z"/>
    <path class="cls-1" d="M122.32,124.33l-4.88,4.88-5-5A7,7,0,0,1,122.32,124.33Z"/>
    <path class="cls-1" d="M171,122.56a16.3,16.3,0,0,1-.56,2.32l-.88,3.66H168l-2.66-8.2H167l1,3.33c.33,1,.55,2,.77,2.77h0c.22-.89.45-1.78.67-2.77l.88-3.33h1.56l.88,3.33c.22.88.45,1.88.67,2.77h0a20,20,0,0,1,.77-2.77l1-3.33h1.66l-2.66,8.2h-1.77l-.89-3.66c-.22-.77-.33-1.55-.55-2.32Z"/>
    <path class="cls-1" d="M177.52,119.67h1.55v1.56h-1.55Zm0,3H179v6h-1.44Z"/>
    <path class="cls-1" d="M182.4,128.65h-1.56v-8.2h5.21v1.22H182.4v2.11h3.21V125H182.4Z"/>
    <path class="cls-1" d="M187.27,119.67h1.55v1.56h-1.55Zm0,3h1.44v6h-1.44Z"/>
    <path class="cls-1" d="M57.15,122.67h5.32v4.87H57.15Zm.11,7.53h5.1v20.18h-5.1Z"/>
  </g>
</svg>
