<?xml version="1.0" encoding="utf-8"?>
<!-- Generator: Adobe Illustrator 26.0.3, SVG Export Plug-In . SVG Version: 6.00 Build 0)  -->
<svg version="1.1" id="圖層_1" xmlns="http://www.w3.org/2000/svg" xmlns:xlink="http://www.w3.org/1999/xlink" x="0px" y="0px"
	 width="246px" height="246px" viewBox="0 0 246 246" style="enable-background:new 0 0 246 246;" xml:space="preserve">
<style type="text/css">
	.st0{fill:#FFFFFF;}
</style>
<g id="圖稿_12_00000168076250097751211430000014161357310232329608_">
	<g>
		<g>
			<path class="st0" d="M169,115.4h-5.2c-0.4-2.1-1-4.2-1.7-6.3l4.6-2.6c0.9-0.6,1.5-1.4,1.8-2.4c0.2-1.1,0.1-2.1-0.4-3l-3.6-6.3
				c-0.5-0.9-1.4-1.6-2.4-1.8c-1-0.3-2.1-0.1-3,0.4l-4.6,2.7c-1.4-1.7-2.9-3.2-4.6-4.7l2.6-4.5c0.5-1,0.6-2,0.4-3
				c-0.3-1-0.9-1.9-1.8-2.3l-6.3-3.7c-1.9-1.1-4.3-0.4-5.4,1.5l-2.6,4.5c-2.1-0.7-4.2-1.3-6.3-1.7v-5.2c0-2.2-1.8-4-4-4h-7.3
				c-2.2,0-4,1.8-4,4v5.2c-2.1,0.4-4.2,1-6.2,1.7l-2.6-4.5c-1.1-1.9-3.5-2.5-5.4-1.5l-6.3,3.7c-0.9,0.5-1.6,1.3-1.8,2.3
				c-0.3,1.1-0.1,2.1,0.4,3l2.7,4.5c-1.7,1.5-3.2,3-4.6,4.7l-4.6-2.7c-0.9-0.5-2-0.6-3-0.4c-1,0.3-1.8,0.9-2.4,1.8l-3.6,6.3
				c-1.1,1.9-0.4,4.3,1.5,5.4l4.5,2.6c-0.7,2.1-1.3,4.2-1.7,6.3h-5.3c-2.2,0-3.9,1.8-3.9,3.9v7.3c0,2.2,1.8,4,3.9,4h5.3
				c0.4,2.1,0.9,4.2,1.7,6.3l-4.5,2.6c-1.9,1.1-2.5,3.5-1.5,5.4l3.6,6.3c0.6,0.9,1.4,1.6,2.4,1.8c1,0.3,2.1,0.1,3-0.4l4.6-2.6
				c1.4,1.6,2.9,3.1,4.6,4.6l-2.6,4.6c-0.6,0.9-0.7,2-0.4,3c0.3,1,0.9,1.9,1.8,2.3l6.3,3.6c0.9,0.6,1.9,0.7,2.9,0.4
				c1.1-0.3,1.9-0.9,2.4-1.8l2.6-4.5c2,0.7,4.1,1.3,6.2,1.7v5.2c0,2.2,1.8,4,4,4h7.3c2.2,0,4-1.8,4-4v-5.2c2.1-0.4,4.2-1,6.3-1.7
				l2.6,4.5c0.5,1,1.4,1.6,2.4,1.8c1,0.3,2.1,0.1,3-0.4l6.3-3.6c0.9-0.5,1.6-1.3,1.8-2.3c0.3-1,0.1-2.1-0.4-3l-2.6-4.6
				c1.7-1.4,3.2-2.9,4.6-4.6l4.6,2.6c0.9,0.5,2,0.6,3,0.4c1-0.3,1.9-0.9,2.4-1.8l3.6-6.3c0.5-0.9,0.6-2,0.4-3c-0.3-1-1-1.9-1.8-2.4
				l-4.6-2.6c0.7-2.1,1.3-4.1,1.7-6.3h5.2c2.2,0,4-1.8,4-4v-7.3C173,117.2,171.2,115.4,169,115.4 M170,126.6c0,0.5-0.4,0.9-0.9,0.9
				h-6.5c-0.7,0-1.4,0.5-1.5,1.3c-0.4,2.7-1.2,5.5-2.2,8.1c-0.3,0.7,0,1.5,0.6,1.9l5.6,3.3c0.2,0.1,0.4,0.3,0.5,0.6
				c0,0.2,0,0.5-0.1,0.6l-3.6,6.3c-0.1,0.2-0.3,0.4-0.6,0.5c-0.2,0-0.5,0-0.7-0.1l-5.7-3.3c-0.6-0.4-1.5-0.2-1.9,0.3
				c-1.8,2.2-3.8,4.2-6,6c-0.6,0.5-0.7,1.3-0.3,1.9l3.3,5.7c0.1,0.2,0.1,0.5,0.1,0.7c-0.1,0.2-0.2,0.4-0.4,0.6l-6.3,3.6
				c-0.2,0.1-0.5,0.1-0.7,0.1c-0.2,0-0.5-0.2-0.6-0.4l-3.3-5.7c-0.4-0.6-1.2-1-1.9-0.6c-2.6,1-5.4,1.8-8.1,2.2
				c-0.7,0.1-1.3,0.8-1.3,1.5v6.5c0,0.5-0.4,0.9-0.9,0.9h-7.3c-0.5,0-0.9-0.4-0.9-0.9v-6.5c0-0.7-0.5-1.3-1.3-1.5
				c-2.7-0.4-5.5-1.2-8.1-2.2c-0.2-0.1-0.4-0.1-0.6-0.1c-0.6,0-1,0.3-1.3,0.8l-3.3,5.7c-0.1,0.2-0.3,0.4-0.5,0.4
				c-0.3,0-0.5,0-0.7-0.1l-6.3-3.6c-0.2-0.1-0.4-0.3-0.4-0.6c-0.1-0.2,0-0.5,0.1-0.7l3.2-5.7c0.4-0.6,0.2-1.5-0.4-1.9
				c-2.2-1.8-4.2-3.8-5.9-6c-0.5-0.6-1.3-0.7-1.9-0.3l-5.6,3.3c-0.2,0.1-0.5,0.1-0.7,0.1c-0.2-0.1-0.4-0.2-0.6-0.5l-3.6-6.3
				c-0.3-0.4-0.1-1,0.3-1.2l5.7-3.3c0.6-0.4,0.9-1.2,0.7-1.9c-1.1-2.6-1.8-5.4-2.2-8.1c-0.1-0.8-0.7-1.3-1.5-1.3h-6.5
				c-0.5,0-0.9-0.4-0.9-0.9v-7.3c0-0.5,0.4-0.9,0.9-0.9h6.5c0.7,0,1.3-0.5,1.5-1.3c0.4-2.8,1.2-5.4,2.2-8.1c0.2-0.7,0-1.5-0.7-1.9
				l-5.7-3.2c-0.4-0.3-0.6-0.8-0.3-1.2l3.6-6.3c0.1-0.2,0.3-0.4,0.6-0.5c0.2,0,0.5,0,0.7,0.1l5.6,3.2c0.6,0.4,1.5,0.2,1.9-0.4
				c1.8-2.2,3.8-4.1,5.9-5.9c0.6-0.5,0.8-1.3,0.4-1.9L96,85.4c-0.1-0.2-0.2-0.5-0.1-0.7c0-0.2,0.2-0.4,0.4-0.6l6.3-3.6
				c0.4-0.2,1-0.1,1.2,0.3l3.3,5.7c0.4,0.7,1.2,0.9,1.9,0.7c2.6-1.1,5.4-1.8,8.1-2.2c0.8-0.1,1.3-0.7,1.3-1.5v-6.5
				c0-0.5,0.4-0.9,0.9-0.9h7.3c0.5,0,0.9,0.4,0.9,0.9v6.5c0,0.7,0.6,1.4,1.3,1.5c2.7,0.5,5.5,1.2,8.1,2.2c0.7,0.2,1.5,0,1.9-0.7
				l3.3-5.7c0.2-0.4,0.8-0.6,1.2-0.3l6.3,3.6c0.2,0.1,0.3,0.3,0.4,0.6c0,0.3,0,0.5-0.1,0.7l-3.3,5.7c-0.4,0.6-0.2,1.4,0.3,1.9
				c2.2,1.8,4.2,3.7,6,5.9c0.5,0.6,1.3,0.7,1.9,0.4l5.7-3.2c0.2-0.1,0.5-0.2,0.7-0.1c0.2,0.1,0.4,0.2,0.6,0.5l3.6,6.3
				c0.1,0.2,0.1,0.4,0.1,0.7c-0.1,0.2-0.2,0.4-0.5,0.6l-5.6,3.2c-0.6,0.4-0.9,1.2-0.6,1.9c1,2.7,1.8,5.3,2.2,8.1
				c0.1,0.8,0.8,1.3,1.5,1.3h6.5c0.5,0,0.9,0.4,0.9,0.9V126.6z"/>
			<path class="st0" d="M123,151.8c-15.9,0-28.8-12.9-28.8-28.8c0-10.1,5.3-19.4,13.9-24.6l0.6,1.3l3.4-5l-6-0.5l0.6,1.4
				c-9.6,5.7-15.6,16.1-15.6,27.4c0,17.5,14.3,31.8,31.8,31.8c0.8,0,1.5-0.6,1.5-1.5C124.5,152.5,123.8,151.8,123,151.8"/>
			<path class="st0" d="M123,92.2c-0.9,0-1.5,0.7-1.5,1.5c0,0.8,0.6,1.5,1.5,1.5c15.8,0,28.8,13,28.8,28.8
				c0,10.1-5.3,19.4-13.9,24.7l-0.6-1.4l-3.4,5.1l6,0.4l-0.6-1.3c9.6-5.7,15.6-16.1,15.6-27.4C154.8,106.5,140.5,92.2,123,92.2"/>
			<path class="st0" d="M119.7,139.8c-1.1,0-2.2-0.4-3.1-1.3l-10.4-10c-0.9-0.8-1.4-2-1.4-3.2c0-1.2,0.4-2.3,1.2-3.2l2.8-2.9
				c0.8-0.9,2-1.4,3.2-1.4c1.2,0,2.4,0.4,3.2,1.2l3.4,3.2c0.6,0.6,1.5,0.6,2.1,0l11.8-11.8c0.9-0.9,2-1.3,3.2-1.3s2.3,0.5,3.2,1.3
				l2.8,2.8c0.9,0.9,1.3,2,1.3,3.2c0,1.2-0.5,2.3-1.3,3.2l-18.7,18.7C122,139.4,120.9,139.8,119.7,139.8z M118.7,136.4
				c0.6,0.6,1.5,0.6,2.1,0l18.7-18.7c0.3-0.3,0.4-0.7,0.4-1.1s-0.2-0.8-0.4-1.1l-2.8-2.8c-0.6-0.6-1.6-0.6-2.1,0l-11.8,11.8
				c-1.7,1.7-4.5,1.8-6.3,0.1l-3.4-3.2c-0.3-0.3-0.7-0.4-1.1-0.4c-0.4,0-0.8,0.2-1.1,0.5l-2.8,2.9c-0.3,0.3-0.4,0.7-0.4,1.1
				s0.2,0.8,0.5,1.1L118.7,136.4z"/>
		</g>
	</g>
</g>
</svg>
