<svg width="153" height="47" viewBox="0 0 153 47" fill="none" xmlns="http://www.w3.org/2000/svg">
<path d="M15.6163 46.9247C13.219 46.9247 11.0903 46.6381 9.23033 46.0648C7.41166 45.4916 5.79966 44.7341 4.39433 43.7923C2.98899 42.8096 1.76966 41.7654 0.736328 40.6599L4.20833 36.1148C5.57233 37.4251 7.12233 38.5716 8.85833 39.5543C10.5943 40.5371 12.6403 41.0284 14.9963 41.0284C16.7323 41.0284 18.241 40.7418 19.5223 40.1685C20.8037 39.5543 21.7957 38.6945 22.4983 37.5889C23.2423 36.4834 23.6143 35.1321 23.6143 33.5352C23.6143 31.8973 23.201 30.4642 22.3743 29.2358C21.589 27.9665 20.2043 27.0042 18.2203 26.3491C16.2777 25.653 13.591 25.3049 10.1603 25.3049V20.0228C13.1777 20.0228 15.5337 19.6953 17.2283 19.0401C18.9643 18.344 20.2043 17.4023 20.9483 16.2148C21.7337 15.0274 22.1263 13.6761 22.1263 12.1611C22.1263 10.1957 21.5063 8.63972 20.2663 7.49322C19.0263 6.30577 17.311 5.71204 15.1203 5.71204C13.3843 5.71204 11.7517 6.10103 10.2223 6.87902C8.73433 7.61606 7.329 8.61924 6.00633 9.88858L2.28633 5.46636C4.105 3.8285 6.08899 2.51821 8.23833 1.5355C10.3877 0.511832 12.7643 0 15.3683 0C18.0963 0 20.5143 0.470885 22.6223 1.41265C24.7303 2.31348 26.3837 3.62377 27.5823 5.34352C28.781 7.06327 29.3803 9.17202 29.3803 11.6698C29.3803 14.2494 28.657 16.44 27.2103 18.2417C25.805 20.0433 23.9037 21.3946 21.5063 22.2954V22.5411C23.2423 22.9915 24.813 23.7285 26.2183 24.7522C27.665 25.7349 28.8017 27.0042 29.6283 28.5602C30.455 30.1162 30.8683 31.8973 30.8683 33.9037C30.8683 36.6062 30.1657 38.9401 28.7603 40.9056C27.3963 42.8301 25.557 44.3246 23.2423 45.3892C20.9277 46.4129 18.3857 46.9247 15.6163 46.9247Z" fill="#525B9E"/>
<path d="M48.1595 23.8548H79.9835V27.3498H48.1595V23.8548ZM66.0875 25.2457C66.8555 28.0512 67.8875 30.6665 69.1835 33.0916C70.5035 35.5166 72.1115 37.6445 74.0075 39.4752C75.9275 41.2822 78.1475 42.7087 80.6675 43.7548C80.3795 43.9926 80.0675 44.3017 79.7315 44.6821C79.4195 45.0625 79.1195 45.4429 78.8315 45.8233C78.5435 46.2275 78.3035 46.5841 78.1115 46.8932C75.4475 45.6569 73.1195 44.0282 71.1275 42.0073C69.1595 39.9626 67.4915 37.597 66.1235 34.9104C64.7555 32.2237 63.6035 29.2756 62.6675 26.0659L66.0875 25.2457ZM62.1275 13.9048H65.8355C65.8355 15.5929 65.7875 17.4117 65.6915 19.3613C65.6195 21.2871 65.4395 23.2723 65.1515 25.317C64.8635 27.3617 64.3955 29.4064 63.7475 31.451C63.0995 33.4957 62.1995 35.4691 61.0475 37.3711C59.8955 39.2732 58.4195 41.0444 56.6195 42.6849C54.8195 44.3017 52.6235 45.7163 50.0315 46.9288C49.7435 46.4771 49.3595 45.9778 48.8795 45.431C48.3995 44.9079 47.9195 44.4681 47.4395 44.1115C49.9355 42.994 52.0355 41.6982 53.7395 40.2242C55.4675 38.7263 56.8595 37.1096 57.9155 35.374C58.9955 33.6146 59.8235 31.7958 60.3995 29.9175C60.9755 28.0393 61.3835 26.161 61.6235 24.2828C61.8635 22.4045 62.0075 20.5857 62.0555 18.8263C62.1035 17.0669 62.1275 15.4264 62.1275 13.9048Z" fill="#525B9E"/>
<path d="M83.5475 34.1258C84.6275 33.888 85.8515 33.6265 87.2195 33.3412C88.6115 33.0321 90.0755 32.7111 91.6115 32.3783C93.1475 32.0217 94.6835 31.665 96.2195 31.3084L96.5435 34.4111C94.4795 34.9579 92.3795 35.5048 90.2435 36.0516C88.1075 36.5984 86.1755 37.0858 84.4475 37.5138L83.5475 34.1258ZM89.5955 13.9048H92.8715V47.0002H89.5955V13.9048ZM85.3835 16.5795L88.0115 16.9718C87.8435 18.541 87.6395 20.0983 87.3995 21.6437C87.1595 23.1653 86.8715 24.6037 86.5355 25.9589C86.2235 27.3141 85.8515 28.5148 85.4195 29.5609C85.2515 29.442 85.0115 29.3232 84.6995 29.2043C84.3875 29.0616 84.0755 28.9427 83.7635 28.8476C83.4515 28.7288 83.1755 28.6337 82.9355 28.5623C83.3915 27.5875 83.7755 26.4463 84.0875 25.1387C84.3995 23.831 84.6635 22.4402 84.8795 20.9661C85.0955 19.492 85.2635 18.0298 85.3835 16.5795ZM85.9235 21.0731H96.2555V24.2828H85.2755L85.9235 21.0731ZM97.4435 17.4711H115.659V20.5381H97.4435V17.4711ZM98.8835 24.4254H114.543V27.5638H98.8835V24.4254ZM97.1915 31.4154H116.451V34.5537H97.1915V31.4154ZM104.715 13.8691H108.063V26.1372H104.715V13.8691ZM109.215 28.4197H112.599V43.0416C112.599 43.945 112.491 44.6464 112.275 45.1457C112.059 45.645 111.627 46.0373 110.979 46.3226C110.355 46.5841 109.563 46.7386 108.603 46.7862C107.667 46.8575 106.551 46.8932 105.255 46.8932C105.183 46.3939 105.039 45.8352 104.823 45.217C104.631 44.5988 104.415 44.0401 104.175 43.5408C105.111 43.5646 105.999 43.5884 106.839 43.6122C107.679 43.6122 108.243 43.6122 108.531 43.6122C108.795 43.5884 108.975 43.5408 109.071 43.4695C109.167 43.3982 109.215 43.2436 109.215 43.0059V28.4197ZM99.1715 36.7292L101.727 35.1957C102.279 35.7425 102.843 36.3488 103.419 37.0145C103.995 37.6802 104.535 38.3459 105.039 39.0116C105.543 39.6536 105.939 40.2242 106.227 40.7235L103.527 42.4709C103.239 41.9479 102.855 41.3535 102.375 40.6878C101.919 40.0221 101.403 39.3445 100.827 38.655C100.275 37.9417 99.7235 37.2998 99.1715 36.7292Z" fill="#525B9E"/>
<path d="M136.971 30.8091H151.371V46.8218H148.131V33.8761H140.103V46.9645H136.971V30.8091ZM142.011 13.9405H145.323V31.7007H142.011V13.9405ZM143.991 21.5367H152.739V24.6751H143.991V21.5367ZM138.591 42.364H149.679V45.431H138.591V42.364ZM123.219 17.4711V25.7093H132.615V17.4711H123.219ZM120.591 15.1173H135.315V28.0631H120.591V15.1173ZM123.471 19.1116L125.019 18.6837C125.307 19.5396 125.559 20.4668 125.775 21.4654C125.991 22.4402 126.123 23.2842 126.171 23.9975L124.551 24.4611C124.527 23.7478 124.407 22.8919 124.191 21.8933C123.999 20.8948 123.759 19.9675 123.471 19.1116ZM124.695 39.7962L126.891 39.5822C127.083 40.557 127.215 41.6269 127.287 42.7919C127.383 43.9569 127.419 44.9555 127.395 45.7876L125.127 46.0729C125.175 45.217 125.151 44.2066 125.055 43.0416C124.983 41.8766 124.863 40.7948 124.695 39.7962ZM128.367 39.7606L130.455 39.4039C130.839 40.3074 131.175 41.306 131.463 42.3996C131.775 43.4695 131.979 44.3968 132.075 45.1813L129.879 45.6806C129.807 44.8723 129.627 43.9212 129.339 42.8276C129.051 41.7101 128.727 40.6878 128.367 39.7606ZM132.039 39.7249L134.163 38.976C134.691 39.8319 135.183 40.7829 135.639 41.829C136.095 42.8751 136.419 43.7905 136.611 44.5751L134.379 45.431C134.211 44.6464 133.899 43.7192 133.443 42.6493C133.011 41.5794 132.543 40.6046 132.039 39.7249ZM121.347 38.976L123.687 39.7962C123.447 40.9137 123.147 42.1024 122.787 43.3625C122.451 44.6226 122.007 45.6806 121.455 46.5365L119.043 45.538C119.427 44.9674 119.763 44.3135 120.051 43.5765C120.363 42.8395 120.627 42.0668 120.843 41.2584C121.059 40.45 121.227 39.6892 121.347 38.976ZM130.707 18.6123L132.543 19.2543C132.207 20.1577 131.859 21.1087 131.499 22.1073C131.163 23.1059 130.839 23.9499 130.527 24.6394L129.195 24.1044C129.363 23.6052 129.543 23.0346 129.735 22.3926C129.927 21.7269 130.107 21.0612 130.275 20.3955C130.467 19.7298 130.611 19.1354 130.707 18.6123ZM120.483 30.1315H135.423V32.7706H120.483V30.1315ZM126.711 16.2586H128.907V26.9932H129.339V36.2299H126.315V26.9932H126.711V16.2586ZM119.799 35.1243H135.891V37.7278H119.799V35.1243Z" fill="#525B9E"/>
</svg>
