<?xml version="1.0" encoding="utf-8"?>
<!-- Generator: Adobe Illustrator 26.0.3, SVG Export Plug-In . SVG Version: 6.00 Build 0)  -->
<svg version="1.1" id="圖層_1" xmlns="http://www.w3.org/2000/svg" xmlns:xlink="http://www.w3.org/1999/xlink" x="0px" y="0px"
	 width="90px" height="100px" viewBox="0 0 90 100" style="enable-background:new 0 0 90 100;" xml:space="preserve">
<style type="text/css">
	.st0{fill:#FFFFFF;}
</style>
<g>
	<path class="st0" d="M40.4,13.2c2,0,3.8,0.7,5.1,2c1.6,1.5,2.7,3.3,3.3,5.6c0.3,1.1,1.4,2,2.6,2h17.8c0.9,0,1.7,0.3,2.4,1.1
		c0.7,0.7,1.1,1.4,1.1,2.3v17.6c0,1.2,0.8,2.3,2,2.6c2.2,0.6,4,1.7,5.4,3.4c1.3,1.6,2,3.4,2,5.4c0,2-0.6,3.6-1.9,4.9
		c-1.4,1.5-3.2,2.5-5.5,3.1c-1.2,0.3-2,1.4-2,2.6v17.8c0,0.9-0.3,1.6-1.1,2.3c-0.7,0.7-1.5,1.1-2.4,1.1H53.5c-0.7-2.8-2-5.2-4.1-7.1
		c-2.6-2.5-5.7-3.8-9.2-3.8s-6.6,1.2-9.2,3.8c-2,1.9-3.4,4.3-4.1,7.1H11.2c-0.9,0-1.7-0.3-2.4-1.1c-0.7-0.7-1.1-1.4-1.1-2.3V67.9
		c2.6-0.7,4.9-2,6.9-3.8c2.7-2.5,4.1-5.7,4.1-9.4c0-3.7-1.4-6.9-4.1-9.4c-2-1.8-4.3-3.1-6.9-3.8V26.1c0-0.9,0.3-1.6,1.1-2.3
		c0.7-0.7,1.5-1.1,2.4-1.1h18.2c1.2,0,2.3-0.8,2.6-2c0.7-2.2,1.7-4.1,3.3-5.6C36.7,13.8,38.4,13.2,40.4,13.2 M40.4,10.4
		c-2.8,0-5.1,0.9-7,2.8c-2,1.8-3.3,4.1-4.1,6.8H11.2c-1.6,0-3.1,0.6-4.3,1.8C5.6,23,4.9,24.4,4.9,26v17.9c3,0.3,5.6,1.5,7.8,3.5
		c2.1,2,3.3,4.5,3.3,7.4c0,2.9-1.1,5.4-3.3,7.4c-2.1,2-4.7,3.2-7.8,3.5v17.9c0,1.6,0.7,3,1.9,4.3c1.2,1.2,2.7,1.8,4.3,1.8h18.1
		c0.3-3.3,1.6-5.9,3.7-7.8c2.1-2,4.6-3,7.4-3s5.2,1,7.4,3c2.1,2,3.3,4.7,3.7,7.8h18.1c1.6,0,3.1-0.6,4.3-1.8
		c1.2-1.2,1.9-2.6,1.9-4.3V65.7c2.8-0.7,5-2,6.7-3.8c1.7-1.8,2.6-4.1,2.6-6.8s-0.9-5.1-2.6-7.2c-1.7-2-4-3.4-6.7-4.3V26.1
		c0-1.6-0.7-3-1.9-4.3c-1.2-1.2-2.7-1.8-4.3-1.8H51.7c-0.7-2.7-2.1-5-4.1-6.8C45.6,11.3,43.2,10.4,40.4,10.4L40.4,10.4z"/>
	<g>
		<path class="st0" d="M46.7,31.6H40c-0.6,0-1,0.4-1.1,0.9l-0.7,4.3c-0.1,0.4-0.3,0.7-0.7,0.8c-0.4,0.2-0.8,0.4-1.2,0.7
			c-0.4,0.2-0.8,0.5-1.2,0.7c-0.2,0.2-0.4,0.2-0.7,0.2c-0.2,0-0.3,0-0.4-0.1l-4-1.8c-0.2-0.1-0.3-0.1-0.5-0.1c-0.4,0-0.7,0.2-1,0.6
			l-3.4,5.9c-0.2,0.5-0.2,1.1,0.3,1.5l4.3,3.1c-0.1,0.2-0.1,0.6-0.1,1c0,0.3,0,0.7,0,1c0,0.2,0,0.6,0,1c0,0.3,0.1,0.7,0.1,1
			l-4.3,3.1c-0.5,0.3-0.6,1-0.3,1.5l3.4,5.9c0.2,0.3,0.6,0.6,1,0.6c0.2,0,0.3,0,0.5-0.1l4-1.8c0.2-0.1,0.3-0.1,0.4-0.1
			c0.2,0,0.5,0.1,0.7,0.2c0.3,0.2,0.7,0.5,1.2,0.7c0.4,0.2,0.9,0.5,1.3,0.7c0.3,0.2,0.7,0.5,0.7,0.8l0.7,4.3C39,68.7,39.5,69,40,69
			h6.7c0.6,0,1-0.4,1.1-0.9l0.7-4.3c0.1-0.4,0.3-0.7,0.7-0.9c0.4-0.2,0.8-0.4,1.2-0.7c0.4-0.2,0.8-0.5,1.1-0.8
			c0.2-0.2,0.4-0.2,0.7-0.2c0.2,0,0.3,0,0.4,0.1l4,1.8c0.2,0.1,0.3,0.1,0.5,0.1c0.4,0,0.7-0.2,1-0.6l3.4-5.9
			c0.2-0.5,0.2-1.1-0.3-1.5l-4.3-3c0.1-0.3,0.1-0.7,0.1-1c0-0.3,0-0.7,0-1c0-0.3,0-0.7,0-1c0-0.3-0.1-0.7-0.1-1l4.3-3
			c0.5-0.3,0.6-1,0.3-1.5l-3.4-5.9c-0.2-0.3-0.6-0.6-1-0.6c-0.2,0-0.3,0-0.5,0.1l-4,1.8c-0.2,0.1-0.2,0.1-0.4,0.1
			c-0.2,0-0.5-0.1-0.7-0.2c-0.3-0.2-0.7-0.5-1.2-0.7c-0.5-0.2-0.9-0.5-1.3-0.7c-0.3-0.2-0.7-0.5-0.7-0.8l-0.7-4.3
			C47.7,31.9,47.3,31.6,46.7,31.6L46.7,31.6z M35,42.4c0.3,0,0.6-0.1,0.8-0.3c0.6-0.6,1.2-1,1.9-1.4c0.7-0.4,1.5-0.7,2.2-0.9
			c0.4-0.2,0.8-0.5,0.8-0.9l0.4-3.5c0.1-0.6,0.6-1,1.1-1h2.1c0.6,0,1.1,0.4,1.1,1l0.4,3.4c0.1,0.5,0.4,0.8,0.9,1
			c0.8,0.2,1.5,0.5,2.2,0.9c0.7,0.4,1.3,0.9,1.9,1.5c0.2,0.2,0.5,0.3,0.8,0.3c0.2,0,0.3,0,0.4-0.1l3.3-1.5c0.2-0.1,0.3-0.1,0.4-0.1
			c0.4,0,0.7,0.2,1,0.6l0.9,1.6c0.2,0.5,0.2,1.1-0.3,1.5l-3,2.2c-0.3,0.2-0.5,0.7-0.4,1.1c0.1,0.2,0.1,0.6,0.2,0.8
			c0.1,0.5,0.1,1.1,0.1,1.6c0,0.5,0,1.1-0.1,1.6c-0.1,0.2-0.1,0.6-0.2,0.8c-0.1,0.4,0.1,0.9,0.4,1.1l3,2.2c0.5,0.3,0.6,1,0.3,1.5
			L56.7,59c-0.2,0.3-0.6,0.6-1,0.6c-0.2,0-0.3,0-0.4-0.1l-3.4-1.5C51.8,58,51.7,58,51.5,58c-0.2,0-0.6,0.1-0.7,0.3
			c-0.6,0.6-1.2,1-2,1.4c-0.7,0.4-1.5,0.7-2.2,1c-0.4,0.2-0.7,0.5-0.8,0.9l-0.4,3.5c-0.1,0.6-0.6,1-1.1,1h-2.1c-0.6,0-1.1-0.4-1.1-1
			l-0.4-3.5c-0.1-0.4-0.4-0.8-0.8-0.9c-0.7-0.2-1.5-0.6-2.2-1c-0.7-0.4-1.4-0.9-2-1.4C35.5,58.1,35.3,58,35,58c-0.2,0-0.3,0-0.4,0.1
			l-3.4,1.5c-0.2,0.1-0.3,0.1-0.4,0.1c-0.4,0-0.7-0.2-1-0.6L29,57.4c-0.2-0.5-0.2-1.1,0.3-1.5l3-2.2c0.3-0.2,0.5-0.7,0.4-1.1
			c-0.1-0.3-0.1-0.6-0.2-0.8c-0.1-0.5-0.1-1.1-0.1-1.6c0-0.5,0-1.1,0.1-1.6c0.1-0.2,0.1-0.6,0.2-0.8c0.1-0.4-0.1-0.9-0.4-1.1l-3-2.2
			c-0.5-0.3-0.6-1-0.3-1.5l0.9-1.6c0.2-0.3,0.6-0.6,1-0.6c0.2,0,0.3,0,0.4,0.1l3.4,1.5C34.7,42.4,34.9,42.4,35,42.4L35,42.4z"/>
		<path class="st0" d="M43.4,44.1c-2.4,0-4.3,1.1-5.6,3.5c-0.1,0.1-0.1,0.2-0.2,0.3c-0.9,3.4,0.2,6,3.3,7.8c0.1,0.1,0.2,0.1,0.3,0.2
			c0.7,0.2,1.5,0.3,2.2,0.3c2.4,0,4.3-1.1,5.6-3.5c0.1-0.1,0.1-0.2,0.2-0.3c0.9-3.4-0.2-6-3.3-7.8c-0.1-0.1-0.2-0.1-0.3-0.2
			C44.8,44.2,44.1,44.1,43.4,44.1L43.4,44.1z M43.4,53.4c-0.3,0-0.7-0.1-1.1-0.2c-0.2,0-0.2-0.1-0.4-0.2c-1.6-1-2.1-2.3-1.6-4
			c0-0.2,0.1-0.2,0.2-0.4c0.7-1.2,1.7-1.8,2.9-1.8c0.3,0,0.7,0.1,1.1,0.2c0.2,0,0.2,0.1,0.4,0.2c1.6,1,2.1,2.3,1.6,4
			c0,0.2-0.1,0.2-0.2,0.4C45.7,52.8,44.6,53.4,43.4,53.4L43.4,53.4z"/>
	</g>
</g>
</svg>
