<?xml version="1.0" encoding="UTF-8"?>
<svg id="_層_1" data-name="圖層 1" xmlns="http://www.w3.org/2000/svg" width="56" height="56" viewBox="0 0 56 56">
  <defs>
    <style>
      .cls-1 {
        fill: #fff;
      }

      .cls-2 {
        fill: #565e62;
      }
    </style>
  </defs>
  <g>
    <path class="cls-1" d="M14.2,45.71c-3.54,0-6.54-1.14-9.01-3.41-2.47-2.27-3.71-5.03-3.71-8.28,0-2.88,1-5.41,3.01-7.59,2.01-2.18,4.56-3.49,7.65-3.93,.8-3.58,2.69-6.51,5.67-8.78,2.97-2.27,6.41-3.41,10.31-3.41,4.5,0,8.3,1.51,11.39,4.52,3.09,3.01,4.64,6.62,4.64,10.83v1.33c2.89-.07,5.34,.78,7.35,2.58,2.01,1.79,3.01,4.05,3.01,6.79,0,2.55-1,4.75-3.01,6.59s-4.4,2.77-7.17,2.77H14.2Z"/>
    <path d="M42.67,26.98c0,.4,.16,.78,.45,1.06,.28,.28,.69,.44,1.07,.42,2.53-.06,4.6,.66,6.33,2.2,1.7,1.51,2.52,3.37,2.52,5.68,0,2.13-.83,3.94-2.54,5.5-1.62,1.49-3.49,2.26-5.71,2.36h-.26v2.97h.28c2.95-.12,5.54-1.17,7.69-3.15,2.32-2.13,3.49-4.72,3.49-7.68,0-3.16-1.18-5.82-3.51-7.89h0c-1.92-1.72-4.23-2.69-6.86-2.91-.03-4.56-1.74-8.52-5.09-11.79-3.37-3.27-7.54-4.93-12.42-4.93-4.21,0-7.98,1.25-11.21,3.71-2.97,2.27-4.97,5.18-5.96,8.66-2.99,.62-5.53,2.04-7.55,4.22-2.26,2.45-3.41,5.34-3.41,8.59,0,3.67,1.41,6.82,4.18,9.37,2.15,1.98,4.73,3.2,7.66,3.62l.31,.05v-2.97l-.23-.04c-2.19-.37-4.07-1.3-5.74-2.83-2.17-2-3.23-4.35-3.23-7.19,0-2.52,.86-4.67,2.62-6.59,1.79-1.94,4-3.07,6.78-3.47,.6-.09,1.1-.54,1.23-1.14,.73-3.26,2.41-5.86,5.12-7.93,2.69-2.06,5.86-3.1,9.41-3.1,4.14,0,7.53,1.34,10.36,4.1,2.82,2.75,4.19,5.94,4.19,9.77v1.33Z"/>
  </g>
  <g>
    <path class="cls-1" d="M27.38,28.51c-.47,0-.87,.17-1.2,.5s-.5,.73-.5,1.2,.17,.87,.5,1.2c.33,.33,.73,.5,1.2,.5s.87-.17,1.2-.5c.33-.33,.5-.73,.5-1.2s-.17-.87-.5-1.2c-.33-.33-.73-.5-1.2-.5Z"/>
    <path class="cls-2" d="M34.15,25.17l-2.56,1.11c-.37-.42-.79-.77-1.26-1.05s-.98-.46-1.55-.54l-.34-2.71h-2.13l-.34,2.71c-.55,.11-1.06,.31-1.54,.58-.48,.27-.9,.61-1.27,1.02l-2.56-1.11-.97,1.74,2.27,1.67c-.06,.27-.12,.54-.16,.81s-.06,.54-.06,.81,.02,.54,.06,.81,.09,.54,.16,.81l-2.27,1.67,.97,1.74,2.56-1.11c.39,.39,.82,.72,1.29,.99,.48,.27,.98,.48,1.51,.6l.34,2.71h2.13l.34-2.71c.53-.13,1.04-.33,1.51-.6,.48-.27,.91-.6,1.29-.99l2.56,1.11,.97-1.74-2.27-1.67c.06-.27,.12-.54,.16-.81s.06-.54,.06-.81-.02-.54-.05-.81-.09-.54-.17-.81l2.27-1.67-.97-1.74Zm-4.55,7.25c-.61,.61-1.35,.92-2.22,.92s-1.61-.31-2.22-.92c-.61-.61-.92-1.35-.92-2.22s.31-1.61,.92-2.22c.61-.61,1.35-.92,2.22-.92s1.61,.31,2.22,.92,.92,1.35,.92,2.22-.31,1.61-.92,2.22Z"/>
    <path d="M34.8,23.33l-2.85,1.31c-.24-.23-.54-.43-.88-.62-.35-.19-.67-.33-.98-.45l-.48-3.05h-4.45l-.48,3.07c-.31,.1-.63,.24-.97,.44-.34,.19-.64,.39-.89,.6l-2.85-1.31-2.25,3.97,2.61,1.91c-.03,.14-.05,.31-.06,.5s-.01,.35-.01,.5,0,.31,.01,.5c0,.19,.03,.35,.06,.5l-2.61,1.91,2.25,3.97,2.85-1.31c.26,.21,.56,.41,.89,.6,.34,.19,.66,.35,.97,.46l.48,3.05h4.45l.48-3.05c.32-.1,.65-.25,.98-.45,.33-.2,.62-.41,.88-.62l2.85,1.31,2.25-3.97-2.61-1.89c.03-.16,.05-.33,.06-.51s.01-.35,.01-.51,0-.33-.01-.52c0-.19-.03-.36-.06-.52l2.61-1.86-2.25-3.97Zm-1.96,5.25c.08,.27,.14,.54,.17,.81s.05,.54,.05,.81-.02,.54-.06,.81-.09,.54-.16,.81l2.27,1.67-.97,1.74-2.56-1.11c-.39,.39-.82,.72-1.29,.99-.48,.27-.98,.48-1.51,.6l-.34,2.71h-2.13l-.34-2.71c-.53-.13-1.04-.33-1.51-.6-.48-.27-.91-.6-1.29-.99l-2.56,1.11-.97-1.74,2.27-1.67c-.06-.27-.12-.54-.16-.81s-.06-.54-.06-.81,.02-.54,.06-.81,.09-.54,.16-.81l-2.27-1.67,.97-1.74,2.56,1.11c.37-.4,.79-.74,1.27-1.02,.48-.27,.99-.47,1.54-.58l.34-2.71h2.13l.34,2.71c.56,.08,1.08,.26,1.55,.54s.89,.63,1.26,1.05l2.56-1.11,.97,1.74-2.27,1.67Z"/>
    <path d="M27.38,27.06c-.87,0-1.61,.31-2.22,.92-.61,.61-.92,1.35-.92,2.22s.31,1.61,.92,2.22c.61,.61,1.35,.92,2.22,.92s1.61-.31,2.22-.92c.61-.61,.92-1.35,.92-2.22s-.31-1.61-.92-2.22-1.35-.92-2.22-.92Zm1.2,4.34c-.33,.33-.73,.5-1.2,.5s-.87-.17-1.2-.5c-.33-.33-.5-.73-.5-1.2s.17-.87,.5-1.2,.73-.5,1.2-.5,.87,.17,1.2,.5c.33,.33,.5,.73,.5,1.2s-.17,.87-.5,1.2Z"/>
  </g>
</svg>