<?xml version="1.0" encoding="utf-8"?>
<!-- Generator: Adobe Illustrator 27.0.0, SVG Export Plug-In . SVG Version: 6.00 Build 0)  -->
<svg version="1.1" id="圖層_1" xmlns="http://www.w3.org/2000/svg" xmlns:xlink="http://www.w3.org/1999/xlink" x="0px" y="0px"
	 viewBox="0 0 765.4 623.6" style="enable-background:new 0 0 765.4 623.6;" xml:space="preserve">
<style type="text/css">
	.st0{fill:#ECF0F2;}
	.st1{fill:#C9D1D3;}
	.st2{enable-background:new    ;}
	.st3{fill:#FF6F57;}
	.st4{fill:#8B9920;}
	.st5{fill:#A29F50;}
	.st6{fill:#231815;}
	.st7{fill:#3E4346;}
	.st8{fill:#FFFFFF;}
	.st9{fill:#21111D;}
	.st10{fill:#F1846D;}
</style>
<g>
	<path class="st0" d="M708.5,441.9c-10.7,29.4-13.2,60-29.9,86.1c-15.1,23.7-38.2,37.4-64.7,43.8c-33.4,8.1-66.5-4.3-99.8-4
		c-39.4,0.4-75.3,19.5-111.2,31.6c-42,14.1-82.2,25.6-126.8,21.1c-21.6-2.2-43.9-13.6-62.1-24.5c-25-15.1-39.5-39.9-59.5-59
		c-25.5-24.4-53.2-26.8-86.3-37.1c-40.7-12.7-68-56.4-67.9-98.8c0-18.2,7.9-29.2,16.5-44.4c10.2-18.1,22.9-37,25.4-58
		c4.6-38.5-9-74.2,1.3-112.8c8.9-33.3,30.3-64.3,63.2-79.7c37.6-17.6,78.2-15,119.1-8.9c25.5,3.8,55.4,14.1,80-1.2
		c26.6-16.6,43.6-40.8,74.8-52.7c43.1-16.5,95.1-15.2,138.4,3.4c38.7,16.6,60,48.7,74.2,86.8c5.5,14.8,10.8,22.8,23.7,33.6
		c16.7,14,39.3,25,57.7,38.3c17.9,12.9,37.4,24.2,50.8,42.5c24.6,33.6,31.8,78.7,20,117.8C736.9,394,718,415.6,708.5,441.9z"/>
</g>
<g>
	<g>
		<path d="M256.9,189.4l0.2-0.2l-8.6-2.7v0.2c-4.8,11.6-13.1,23-21.5,30.1l-0.2,0.2l0.2,0.2c1.9,1.5,5.1,4.6,6.5,6.1l0.2,0.2
			l0.2-0.2C242.4,214.9,251.4,202,256.9,189.4z"/>
		<path d="M280.7,186.6v-0.2h-19.8v8h13.9c4.8,12.2,12.2,22.7,20.6,28.9l0.2,0.2l0.2-0.2c1.3-2.3,3.8-5.5,5.7-7.2l0.2-0.2l-0.4-0.2
			C292.3,210,284.5,198.9,280.7,186.6z"/>
		<path d="M279,225.8L279,225.8l-7.8,3.2l0.2,0.2c3.2,4.6,6.1,8.8,8.6,12.6l-32,2.1c7.6-8.8,15.2-20,21.9-31.4l0.2-0.2l-8.9-3.8
			l-0.2,0.2c-6.1,12.9-16,26.7-19.6,30.5c-2.9,3.4-4.9,5.9-7.4,6.5h-0.4l0.2,0.4c1.1,2.1,2.5,6.3,2.9,7.8v0.4l0.2-0.2
			c3.2-1.1,8-1.5,44-4.2l3.6-0.2c1.5,2.5,2.9,4.9,4,7.4l0.2,0.2l7.8-4.2l-0.2-0.2C292.5,244.8,284.5,233.2,279,225.8z"/>
		<path d="M336.6,233.4l4.8-6.5l-0.2-0.2c-1.7-2.1-9.3-10.3-12-12.8v-0.2h12.4v-7.4h-12.4v-11.2c4.6-1,8.6-2.1,11.8-3.2l0.4-0.2
			l-4.4-6.5h-0.2c-6.3,2.5-16.9,4.9-28.6,6.9h-0.4l0.2,0.4c1,1.7,1.7,4.2,2.1,5.5v0.2h0.2c3.8-0.4,7.4-1,11.2-1.5v9.7h-13.3v7.4h12
			c-3.8,8.8-9.3,17.7-14.5,22.7l-0.2,0.2l0.2,0.2c0.6,1,2.9,4.6,3.6,7l0.2,0.4l0.4-0.4c3.8-4.2,8-11,11.6-18.5v32h7.6v-34.6
			c2.7,3.6,5.7,8,7.2,10.5L336.6,233.4z"/>
		<path d="M366.9,216.8l-0.2-0.2l-7.2,2.7l0.2,0.2c2.1,5.1,5.3,12.9,7.8,20.4l-20.2,2.9c5.7-15.8,10.9-35.6,14.3-54.4v-0.2l-8.4-1.5
			v0.2c-3.2,20-9.9,42.3-11.8,47.8c-1.9,5.5-3.6,9.7-5.7,10.5l-0.2,0.2l0.2,0.2c0.8,2.1,2.3,5.7,2.7,7.2v0.4l0.4-0.2
			c2.5-1.1,6.5-2.1,31.2-5.9c1,3,1.7,5.7,2.3,8.2v0.4l8-3.2V252C377.8,242.5,371.9,227.5,366.9,216.8z"/>
		<path d="M447.4,217.4v-0.2h-7v0.2c0,2.5-0.2,5.1-0.4,7.6h-6.9v6.3h6.3c-1.1,9.9-4,16.2-9.3,20.6l-0.2,0.2c1-3.4,1.3-10.1,1.7-24
			c0-0.8,0-2.5,0-2.7v-0.2h-10.3c0.2-2.5,0.2-5.1,0.4-7.4v-0.2h-5.3c10.1-4,15.8-9.7,18.8-18.5h12.9c-0.6,5.9-1.3,9.3-2.3,10.3
			c-0.6,0.6-1.1,0.6-2.3,0.6s-4,0-7.4-0.4h-0.6l0.2,0.4c1,1.5,1.7,4,1.7,6.1v0.2h0.2c3.6,0.2,6.9,0,8.6,0c2.1-0.2,3.6-0.6,5.1-2.3
			c1.9-2.1,3-6.9,4-18.5c0.2-1,0.2-2.5,0.2-2.7v-0.2h-19c0.4-2.5,0.8-5.1,1-8v-0.2h-7.4v0.2c-0.2,2.9-0.4,5.5-1,8h-14.5v6.3h12.6
			c-2.7,6.3-7.6,10.5-15.6,13.1l-0.4,0.2l0.4,0.4c1.3,1.1,2.9,3.4,3.6,4.8h-0.2v0.2c0,2.3-0.2,4.9-0.4,7.4h-7.2v6.3h6.9
			c-1.1,10.1-4,16.6-8.9,20.9l-0.2,0.2l0.2,0.2c1.3,1,3.2,3,4,4.6l0.2,0.4l0.2-0.2c6.3-5.7,9.9-13.7,11.2-25.9h4.6
			c-0.4,12.8-0.8,17.7-1.7,19c-0.4,0.6-1,0.8-1.5,0.8c-1,0-2.5,0-4.6-0.2h-0.6l0.2,0.4c1,1.5,1.3,4,1.5,5.7v0.2h0.2
			c2.9,0.2,4.9,0,6.1-0.2c1.7-0.2,3-0.8,4.2-2.5c0.4-0.6,0.8-1.3,1-2.5l0.2,0.2c1.5,1,3.2,3.2,4,4.6l0.2,0.4l0.2-0.2
			c6.7-5.5,10.3-13.5,11.8-25.7h5.1c-0.4,12.8-0.8,17.5-1.7,18.8c-0.4,0.6-0.8,0.8-1.7,0.8s-2.7,0-4.8-0.4h-0.6l0.2,0.4
			c1,1.7,1.3,4.2,1.5,5.9v0.2h0.2c3,0.2,5.1,0,6.5-0.2c2.1-0.2,3.2-1,4.4-2.5c1.5-2.1,2.1-8.2,2.7-26.5c0-1,0-2.7,0-2.7v-0.2h-11.2
			C447.2,222.7,447.4,219.9,447.4,217.4z"/>
		<polygon points="412,204.5 403.3,204.5 403.3,184.3 395.7,184.3 395.7,204.5 386.5,204.5 386.5,211.7 395.7,211.7 395.7,257.2 
			403.3,257.2 403.3,211.7 412,211.7 		"/>
		<path d="M502.6,201v-16.6h-8.2V201h-24.7v8h24.4c-1.1,12.2-4.9,29.7-26.7,42.1l-0.4,0.2l0.4,0.2c1.7,1.3,4.4,4,5.7,5.9l0.2,0.2
			l0.2-0.2c23.8-14.1,28-34.5,29.1-48.5h24.2c-1.3,24.9-2.9,36.2-5.5,38.6c-0.8,0.8-1.7,1.1-3.4,1.1c-2.1,0-6.9,0-12-0.4h-0.6
			l0.4,0.4c1.3,2.1,2.5,5.1,2.5,7.4v0.2h0.2c5.5,0.2,10.1,0.2,12.6,0c3-0.4,5.1-1,7.4-3.8c3.4-4,4.9-14.7,6.9-47.8
			c0-1,0.2-3.6,0.2-3.6v-0.2h-32.7V201z"/>
	</g>
</g>
<g>
	<g>
		<path class="st1" d="M568.8,341.4c4.7-2.3,7.1-6.4,7.1-8.9c-0.3,0.2-0.9,0.3-1.7,0.3c-3.1,0-5.4-2.4-5.4-5.6c0-3,2.1-5.7,6.1-5.7
			c4,0,6.8,3.7,6.8,8.3c0,7.7-5,13-10.6,15.5L568.8,341.4z M584.6,341.4c4.5-2.3,7-6.4,7-8.9c-0.3,0.2-0.9,0.3-1.6,0.3
			c-3.3,0-5.4-2.4-5.4-5.6c0-3,2.3-5.7,6.1-5.7c3.8,0,6.8,3.7,6.8,8.3c0,7.7-5,13-10.6,15.5L584.6,341.4z"/>
	</g>
	<g>
		<path class="st1" d="M243.8,322.1c-4.5,2.3-7,6.4-7,8.9c0.3-0.2,0.9-0.3,1.6-0.3c3.3,0,5.4,2.4,5.4,5.6c0,3-2.3,5.7-6.1,5.7
			c-3.8,0-6.8-3.7-6.8-8.3c0-7.7,5-13,10.6-15.5L243.8,322.1z M259.6,322.1c-4.7,2.3-7.1,6.4-7.1,8.9c0.3-0.2,0.9-0.3,1.7-0.3
			c3.1,0,5.4,2.4,5.4,5.6c0,3-2.1,5.7-6.1,5.7c-3.8,0-6.8-3.7-6.8-8.3c0-7.7,5-13,10.6-15.5L259.6,322.1z"/>
	</g>
	<g class="st2">
		<path d="M166.2,344.4c-0.7,2.4-1.6,4.9-2.6,7.3v26.8h-3.1v-20.3c-0.7,1.2-1.6,2.4-2.4,3.5c-0.2-0.9-1-2.8-1.7-3.7
			c2.8-3.5,5-8.9,6.4-14.4L166.2,344.4z M174.6,357.6c-0.5,5.6-1.4,9.9-2.8,13.4c3.3,3.3,7.7,4,12.5,4c1.4,0,6.1,0,7.8,0
			c-0.5,0.7-1,2.3-1.2,3.1h-6.8c-5.4,0-10.1-0.9-13.7-4.3c-1.2,2.1-2.6,3.7-4.2,4.9c-0.5-0.7-1.7-1.7-2.4-2.3c1.7-1.2,3.3-3,4.5-5.2
			c-1.2-1.9-2.3-4.2-3.1-7.3l2.6-0.9c0.5,1.9,1.2,3.7,1.9,5c0.9-2.3,1.4-5,1.7-8.2h-3.8c-0.5,0.3-1,0.7-1,1c-0.3-0.7-1-1.9-1.4-2.6
			c0.7-0.2,1.7-1.2,2.4-2.4c0.5-0.9,2.1-3.8,3.3-7h-4.5v-3.1h5.7l1-0.3l2.1,1.4c-1.4,3.7-3.1,7.3-4.9,10.1h2.1h0.5L174.6,357.6z
			 M180.3,349.1h-4.5v-2.6h4.5v-2.8h3v2.8h6.1v5h2.6v2.6h-2.6v5.2h-6.1v2.4h6.6v2.8h-6.6v2.4h7.7v2.8h-7.7v4.2h-3v-4.2h-5.9V367h5.9
			v-2.4h-4.9v-2.8h4.9v-2.4h-4.5v-2.6h4.5v-2.6h-6.1v-2.6h6.1V349.1z M183.3,349.1v2.4h3.5v-2.4H183.3z M186.6,354.3h-3.5v2.6h3.5
			V354.3z"/>
		<path d="M215.3,374.5h14.4v3.1h-32.3v-3.1h14.1v-5.6h-10.3v-3.1h10.3v-5.2h-8.5v-3.1c-1.7,1.2-3.3,2.3-5,3.1
			c-0.5-0.9-1.4-2.1-2.3-3c4.5-1.9,9.7-5.7,13.6-9.6h-6.1v-3.3h12.2c3.5,5,9.7,10.1,16,12.5c-0.7,0.7-1.9,2.3-2.4,3.1
			c-1.6-0.7-3.3-1.7-4.9-2.8v3h-8.7v5.2h10.4v3.1h-10.4L215.3,374.5L215.3,374.5z M203.1,357.4h20.7c-4-2.6-7.7-6.1-10.3-9.4
			C210.7,351.2,206.9,354.7,203.1,357.4z"/>
	</g>
	<g class="st2">
		<path class="st3" d="M308,347c-0.7,7.1-2.1,13.2-4.2,18.4c1.9,3.7,4.5,6.6,7.7,8.7c-1,0.9-2.6,2.6-3.3,4c-3-1.9-5.2-4.5-7.1-7.7
			c-2.3,3.5-5,6.3-8.7,8.7c-0.3-0.9-1.4-2.4-2.3-3.5l-3.1,2.6c-1.7-1-3.8-2.3-6.3-3.3c-3.1,1.4-7.7,2.8-13.6,3.7
			c-0.3-1-1.4-2.8-2.1-3.7c4.3-0.5,7.7-1.4,10.3-2.3c-2.3-0.9-4.5-1.7-6.4-2.3c0.7-0.7,1.4-1.7,2.1-2.8l-4.3,0.2L266,364
			c2.1-0.2,4.7-0.2,7.5-0.3c0.7-1,1.2-2.1,1.7-3h-7.1v-8.9h8.7v-1.4h-7.5v-5h-3.7v-4.2h3.7v-4.9h7.5v-3h4.3v3h7.8v4.9h3.3v4.2H289v5
			h-7.8v1.4h8.9v3.5c3.1-5.2,4.9-13.6,5.7-21.9l4.9,0.7c-0.3,2.8-0.7,5.4-1.2,8.2h11.5v5h-3L308,347L308,347z M273,356.9h4v-1.7h-4
			V356.9z M274.4,339.7v1.6h2.6v-1.6H274.4z M277,346.5v-1.7h-2.6v1.7H277z M275.6,368.4c1.6,0.5,3.3,1,4.9,1.7
			c1.7-1,2.8-2.3,3.5-3.5l-7.5,0.3L275.6,368.4z M289,366.3c-0.5,1.9-1.6,3.8-3.7,5.7c1.7,0.7,3.3,1.6,4.7,2.3
			c3.8-2.3,6.8-5.4,8.7-9.4c-1-3-2.1-6.3-3-9.7c-0.5,1.2-1.2,2.4-1.9,3.5c-0.7-0.9-2.4-2.8-3.5-3.5v5h-9.7c-0.5,0.9-1,1.9-1.6,2.8
			l5.7-0.3v-1.7h4.5v1.6l1.6-0.2v3.7L289,366.3z M281.3,339.7v1.6h2.8v-1.6H281.3z M284.1,346.5v-1.7h-2.8v1.7H284.1z M281.3,355
			v1.7h3.8V355H281.3z M298.6,347c0.5,4.2,1.4,8.2,2.4,11.7c1-3.5,1.7-7.3,2.1-11.7H298.6z"/>
		<path class="st3" d="M333,335c-1.2,3.3-2.8,6.6-4.5,9.9v33.6h-5.9v-24.7c-1,1.2-2.1,2.4-3.1,3.7c-0.5-1.4-2.1-4.7-3.1-6.1
			c4.3-4.3,8.7-11.3,11.1-18.3L333,335z M361.3,371.2v5.6h-30.6v-5.6h17c1.7-6.3,3.3-15.8,4-22.8l6.1,0.9c-1.2,7.3-3,15.8-4.7,21.9
			H361.3z M344,341.3c-0.3-2.1-1.4-5.2-2.1-7.5l5.6-1.4c1,2.3,1.9,5.4,2.4,7.5l-5,1.4h15v5.6h-27.1v-5.6H344z M338.4,369.8
			c-0.3-5-1.6-13.6-3-20.2l5.2-1.2c1.4,6.4,2.8,14.8,3.3,19.7L338.4,369.8z"/>
		<path class="st3" d="M403.8,360.7c2.6,2.3,5.9,4.5,9.6,5.7c-1.2,1-3,3.1-3.8,4.5c-2.6-1.2-5.2-3-7.7-5v3.7H393v3.1h15.8v4.7h-37
			v-4.7h15.3v-3.1h-8.7v-3.3c-2.4,1.9-5,3.8-7.8,5c-0.9-1.4-2.4-3.5-3.7-4.5c3.5-1.4,7.1-3.5,9.9-6.1h-9.4V356h9.4v-14.6H370v-4.7
			h6.8v-3.7h5.7v3.7h15.3v-3.7h5.9v3.7h6.6v4.7h-6.6V356h9v4.7L403.8,360.7L403.8,360.7z M400.8,364.7c-1.4-1.2-2.4-2.6-3.5-4h-13.7
			c-1,1.4-2.3,2.8-3.5,4h7v-3h5.9v3H400.8z M382.6,341.4v2.1h15.3v-2.1H382.6z M382.6,349.8h15.3v-2.1h-15.3V349.8z M382.6,356h15.3
			v-2.3h-15.3V356z"/>
		<path class="st3" d="M425.5,372.7v3.7h-4.2v-16.2c-0.7,1.2-1.4,2.3-2.3,3.1c-0.2-1.4-1.2-4.9-1.9-6.4c3-4,5-9.9,6.3-16.3h-4.7
			v-5.2h14.8v5.2h-5c-0.7,3.3-1.6,6.6-2.6,9.9h7.1v22.4h-7.5L425.5,372.7L425.5,372.7z M429.2,355.3h-3.7v12.2h3.7V355.3z
			 M450.9,372.6c1,0.2,1.9,0.2,3.1,0.2c1.6,0,8.2,0,10.3,0c-0.7,1-1.4,3.5-1.6,4.9h-9c-6.1,0-10.6-1-13.9-5.7c-1,2.8-2.4,5-4.9,7
			l-3.8-3.7c3.8-3,5.4-8.2,5.9-14.3l4.9,0.9c-0.2,1.4-0.3,2.8-0.5,4c1,2.6,2.4,4.3,4.3,5.2v-11.3H434V355h24.9l0.9-0.2l3.8,1.2
			c-0.9,2.6-1.9,5.7-3,7.7l-4.3-1.4c0.2-0.7,0.5-1.6,0.9-2.4h-6.1v4h10.8v4.7h-10.8L450.9,372.6L450.9,372.6z M439.4,347.7
			c-1.4,2.1-2.8,4.2-4.3,5.6c-0.5-1-1.6-3-2.4-3.8c1.9-1.6,4-4.3,5.2-7.1h-3.5V338h5v-4.7h4.5v4.7h4v4.3h-4c1.2,1,4.2,4,4.9,4.9
			l-2.8,3.5c-0.5-0.9-1.2-2.1-2.1-3.3v6.8h-4.5L439.4,347.7L439.4,347.7z M453.3,348.9c-1.2,1.9-2.6,3.7-4,4.7
			c-0.5-1-1.4-2.8-2.3-3.7c2.3-1.6,4.3-4.7,5.7-7.8H449v-4.3h4.5v-4.7h4.5v4.7h5.4v4.3h-4.5c1.7,1.7,4.7,5.2,5.6,6.3l-3.1,3.8
			c-0.7-1.4-1.9-3.7-3.1-5.6v7.1h-4.5v-4.9H453.3z"/>
		<path class="st3" d="M484.3,350.1c-0.7,7.1-1.9,13-3.8,17.7c4.5,3.8,10.6,4.7,17.7,4.7c2.8,0,12.9,0,16.2-0.2
			c-0.9,1.2-1.7,3.8-2.1,5.4H498c-8.2,0-14.8-1-19.8-5.2c-1.6,2.6-3.3,4.5-5.4,6.1c-0.9-1-3-3.1-4.2-3.8c2.3-1.6,4.2-3.8,5.7-6.4
			c-1.7-2.6-3.1-5.6-4.3-9.4l4.2-1.4c0.7,2.3,1.4,4.2,2.4,5.7c0.9-2.4,1.4-5.4,1.9-8.7h-7.8c1.9-3.7,4.5-8.9,6.4-13.7H470v-5h15
			c-1.9,4.3-4.2,9.6-6.3,13.7h1.2l1-0.2L484.3,350.1z M494.6,341.3h-8.3v-4.3h8.3v-3.7h5.4v3.7h10.6v6.6h2.6v4.5h-2.6v6.4h-10.6v2.3
			h11.1v4.2h-11.1v2.4h12.7v4.5h-12.7v3.3h-5.4v-3.3h-10.8v-4.5h10.8v-2.4h-8.9v-4.2h8.9v-2.3H486v-4.3h8.5V348h-11v-4.5h11V341.3z
			 M499.9,341.3v2.1h5.6v-2.1H499.9z M505.5,347.9h-5.6v2.1h5.6V347.9z"/>
		<path class="st3" d="M539.1,345.8h-19v-4.5h8c-0.7-1.9-1.9-4.3-3.1-6.1l4.5-2.1c1.4,1.9,2.8,4.7,3.5,6.4l-3.3,1.7h9.2L539.1,345.8
			L539.1,345.8z M537,349.1c4.7-2.6,5.4-5.9,5.4-9.2v-5.2h16.3v10.6c0,1.4,0.2,1.9,0.7,1.9h1.9c0.7,0,1.7-0.2,2.4-0.3
			c0.2,1.4,0.2,3.5,0.3,4.9c-0.7,0.3-1.7,0.3-2.8,0.3h-2.4c-4.5,0-5.4-2.1-5.4-7v-5.2h-5.9l0,0c0,4.7-1.4,10.3-7.5,13.4
			c-0.5-0.9-2.1-2.6-3.1-3.7v2.4h-15v-4.3h15L537,349.1L537,349.1z M537.2,358.8h-15v-4.3h15V358.8z M563.2,355.5
			c-1.6,5.9-4.3,10.6-7.8,14.3c3,1.6,6.3,2.8,10.1,3.5c-1.2,1.2-2.8,3.7-3.5,5.2c-4.3-1-8-2.6-11.3-4.7c-3.3,2.1-7.1,3.8-11.3,4.9
			c-0.5-1.2-1.4-3-2.3-4.3v1.7h-9.9v2.1h-4.9v-17h15v12c3.3-0.7,6.3-1.9,9-3.5c-2.6-2.6-4.7-5.6-6.4-9l3.1-1h-4.5v-5.4h20.3l1-0.2
			L563.2,355.5z M532.1,365.8h-5v5.4h5V365.8z M544.8,359.5c1.4,2.6,3.3,4.9,5.7,7c2.1-1.9,3.8-4.2,5.2-7H544.8z"/>
	</g>
	<g>
		<path class="st1" d="M569.7,430.2c4.7-2.3,7.1-6.4,7.1-8.9c-0.3,0.2-0.9,0.3-1.7,0.3c-3.1,0-5.4-2.4-5.4-5.6c0-3,2.1-5.7,6.1-5.7
			c3.8,0,6.8,3.7,6.8,8.3c0,7.7-5,13-10.6,15.5L569.7,430.2z M585.3,430.2c4.5-2.3,7-6.4,7-8.9c-0.3,0.2-0.9,0.3-1.6,0.3
			c-3.3,0-5.4-2.4-5.4-5.6c0-3,2.3-5.7,6.1-5.7c3.8,0,6.8,3.7,6.8,8.3c0,7.7-5,13-10.6,15.5L585.3,430.2z"/>
	</g>
	<g>
		<path class="st1" d="M249,408.1c-4.5,2.3-7,6.4-7,8.9c0.3-0.2,0.9-0.3,1.6-0.3c3.3,0,5.4,2.4,5.4,5.6c0,3-2.3,5.7-6.1,5.7
			c-3.8,0-6.8-3.7-6.8-8.3c0-7.7,5-13,10.6-15.5L249,408.1z M264.7,408.1c-4.7,2.3-7.1,6.4-7.1,8.9c0.3-0.2,0.9-0.3,1.7-0.3
			c3.1,0,5.4,2.4,5.4,5.6c0,3-2.1,5.7-6.1,5.7c-3.8,0-6.8-3.7-6.8-8.3c0-7.7,5-13,10.6-15.5L264.7,408.1z"/>
	</g>
	<g class="st2">
		<path d="M160.7,457.3c-0.3,3.3-1,6.8-1.7,9.2c-0.5-0.3-1.9-0.7-2.4-0.9c0.9-2.3,1.4-5.7,1.6-8.7L160.7,457.3z M177.4,441.6
			c-0.5,2.1-1.2,4.2-2.1,6.4v19.1h-3V454c-0.5,0.9-1,1.6-1.6,2.3c-0.3-0.7-1.2-1.9-1.9-2.4l0.2-0.3l-1.6,0.7c0-0.3-0.2-0.7-0.2-0.9
			c-7.7,1.2-8.7,1.6-9.4,1.9c-0.2-0.7-0.7-2.3-1-3c0.9-0.2,1.6-1.2,2.8-2.6c0.5-0.7,1.6-2.1,2.8-4c-3.5,0.3-4.2,0.7-4.9,0.9
			c-0.2-0.7-0.7-2.1-0.9-3c0.7-0.2,1.2-1,1.9-2.1c0.9-1.2,3.3-5.4,4.7-9.6l2.8,1.2c-1.4,3.5-3.3,7-5.2,9.9l3.3-0.3
			c1-1.7,1.9-3.5,2.8-5.4l2.6,1.7c-2.3,4.3-5,8.7-8,12.3l5-0.7c-0.3-1.2-0.9-2.4-1.4-3.5l2.3-0.9c0.9,1.9,1.9,4.5,2.3,6.3
			c2.3-3.3,3.8-8,4.5-11.7L177.4,441.6z M164.5,456.6c0.5,2.6,0.9,5.7,1,8l-2.4,0.7c0-2.3-0.5-5.6-0.9-8.2L164.5,456.6z
			 M168.3,455.5c0.9,2.3,1.7,5.2,2.3,7.3l-2.4,0.9c-0.3-2.1-1.2-5-1.9-7.3L168.3,455.5z M173.4,442.3h-3.1v-6.6h9.2
			c-0.3-0.9-0.9-1.9-1.4-2.6l2.8-1.2c0.9,1,1.7,2.6,2.1,3.8h8.3v6.1H188v-3.1h-14.8L173.4,442.3L173.4,442.3z M185.9,445.5
			c-0.3,1.2-0.7,2.3-1,3.3h5.7v18.1h-3.1v-1.4h-6.8v1.6h-3v-18.3h3.8c0.2-1,0.3-2.3,0.7-3.3H177v-3h14.3v3L185.9,445.5L185.9,445.5z
			 M187.6,451.7h-6.8v4h6.8V451.7z M187.6,462.7v-4.2h-6.8v4.2H187.6z"/>
		<path d="M202.2,449.1c-1.2-1.2-4-2.8-6.3-3.8l1.9-2.6c2.3,0.9,4.9,2.3,6.3,3.5L202.2,449.1z M204.5,454c-1.4,4.2-3.1,8.9-4.9,12.7
			l-3.1-1.9c1.6-3.1,3.7-8.2,5.2-12.7L204.5,454z M204,439c-1.2-1.2-4-3-6.3-4l2.1-2.6c2.3,0.9,4.9,2.4,6.3,3.7L204,439z
			 M230.2,444.8c-1.2,5-2.8,9.4-5,13c0.7,3.3,1.6,5.2,2.6,5.4c0.7,0,1-1.9,1.4-5.7c0.5,0.7,1.9,1.6,2.6,1.9c-0.9,6.4-2.4,8-3.8,8
			c-2.3,0-3.8-2.3-5-5.9c-1.7,2.3-3.8,4.2-6.3,5.7c-0.5-0.7-1.7-1.7-2.4-2.3c3.1-1.9,5.6-4.3,7.7-7.3c-0.9-4.3-1.4-9.9-1.7-16.2
			h-10.8v7.1c0,5.6-0.5,13.7-4,19c-0.5-0.5-1.9-1.6-2.6-1.9c3.1-4.9,3.5-12,3.5-17v-10.3h13.9c0-1.7-0.2-3.7-0.2-5.4h3.3
			c0,1.9,0,3.7,0.2,5.4h5.4c-1-1.2-3.1-2.8-4.9-4l1.9-1.7c1.7,1,4,2.6,5,3.8l-1.9,1.9h1.7v3.1h-7.3c0.3,4.3,0.7,8.3,1,11.7
			c1.2-2.6,2.1-5.4,2.8-8.5L230.2,444.8z M219.4,446.5h-8.7v-2.6h8.7V446.5z M213.2,459.5v2.3h-2.4v-12.7h8.7v10.4H213.2z
			 M213.2,451.7v5h3.7v-5H213.2z"/>
	</g>
	<g class="st2">
		<path class="st4" d="M310.7,439.5c-1.6,6.4-3.7,12-6.6,16.7c0.7,3.1,1.7,5,2.6,5c0.7,0,1-2.3,1.2-7.3c1,1.2,2.8,2.4,4,3
			c-0.7,7.5-2.3,9.6-5.9,9.6c-2.4,0-4.2-2.1-5.7-5.4c-1.9,2.3-4.3,4.3-6.8,6.1c-0.7-1-2.8-3-4-3.8c3.7-2.1,6.6-4.9,9-8.2
			c-1.2-5.9-1.9-13.6-2.3-21.6h-9.6v5.2h8.7c0,0,0,1.4,0,1.9c-0.2,11-0.3,15.1-1.4,16.5c-0.7,1-1.6,1.6-2.6,1.7s-2.6,0.2-4.2,0.2
			c-0.2-1.4-0.5-3.3-1.2-4.5c-0.7,4.7-2.3,9.2-5.4,12.7c-0.7-1-3-2.8-4.2-3.5c1.9-2.3,3.3-4.9,3.8-7.7c-4.3,1.7-8.9,3.7-12.5,5.2
			l-1.9-5.7c1.4-0.3,3.1-1,5-1.6v-15.5h-4.2v-5.4h4.2v-11h5.4v11h3.8v5.4h-3.8v13.4l3.8-1.4l0.7,3.5c0.7-3.3,0.7-6.8,0.7-9.7v-16.2
			h14.6c0-2.3-0.2-4.5-0.2-6.8h5.4c0,2.3,0,4.5,0,6.8h3.8c-1-1.6-2.4-3.3-3.7-4.7l4-2.3c1.7,1.7,3.8,4.2,4.7,5.7l-2.1,1.2h2.6v5.2
			h-9.2c0.2,5,0.5,9.9,1,14.1c1.2-2.8,2.1-5.9,3-9.2L310.7,439.5z M286.6,443.7v1c0,3-0.2,6.6-0.7,9.9c1.2,0.2,2.1,0.2,2.6,0.2
			s0.9-0.2,1.2-0.5c0.5-0.7,0.5-3.3,0.7-10.6H286.6z"/>
		<path class="st4" d="M343.1,450.7c1.6,4,3.3,9.4,3.8,12.5l-4.7,1.7c-0.2-0.9-0.3-1.9-0.7-3.1c-7.5,2.4-8.9,3-9.9,3.7
			c-0.2-1-1-3-1.7-3.8c0.9-0.5,2.3-1.4,2.3-3.5v-14.6c-1.7,10.6-5.4,18.3-12.7,23c-0.5-1-1.9-3-3-3.8c4.5-2.6,7.5-6.6,9.2-11.8
			c-5.6,0.7-6.8,1-7.7,1.4c-0.2-0.9-1-3.3-1.6-4.5c1-0.2,2.1-1.4,3.3-3.1c0.7-0.9,1.9-3,3.5-5.6c-3.3,0.3-4.2,0.7-4.9,1
			c-0.3-1-1-3.5-1.7-4.7c0.7-0.2,1.6-1.2,2.3-2.4s3-6.3,4-11l5.4,1.2c-1.4,4-3.3,8.2-5.2,11.5l2.6-0.2c0.7-1.4,1.2-2.8,1.7-4.2
			l4.7,1.9v-5.9h4.7c-0.5-1.2-1.2-2.3-1.9-3.3l4.7-1.7c1,1.6,2.1,3.3,2.8,4.9h3.5v22.6h-8.7v9l3.1-1c-0.5-1.7-1.2-3.7-1.7-5.4
			L343.1,450.7z M332.1,443v-10.4c-2.4,5-5.4,9.9-8.3,14.1l3.3-0.3c0.2-1.2,0.5-2.4,0.7-3.8L332.1,443z M337.2,431.5v4.3h4.2v-4.3
			H337.2z M341.2,444.4v-4H337v4H341.2z M362,426.2c-1.4,4.7-3,10.6-4.5,14.6c3.1,4.3,3.7,8.2,3.7,11.5c0,3.5-0.7,5.7-2.1,7
			c-0.7,0.7-1.7,1-2.8,1.2c-0.9,0.2-1.9,0.2-3.1,0.2c0-1.4-0.5-3.7-1.2-5c0.9,0,1.6,0,2.1,0c0.5,0,0.9-0.2,1.4-0.5
			c0.5-0.5,0.9-1.7,0.9-3.5c0-2.6-0.7-6.3-3.7-10.1c1-3.5,2.3-8.5,3.1-12.3H352v38.1h-4.7v-43.1h10.3l0.7-0.2L362,426.2z"/>
		<path class="st4" d="M409.5,435.7c-0.7,7.1-2.1,13.2-4.2,18.4c1.9,3.7,4.5,6.6,7.7,8.7c-1,0.9-2.6,2.6-3.3,4
			c-3-1.9-5.2-4.5-7.1-7.7c-2.3,3.5-5,6.3-8.7,8.7c-0.3-0.9-1.4-2.4-2.3-3.5l-3.1,2.6c-1.7-1-3.8-2.3-6.3-3.3
			c-3.1,1.4-7.7,2.8-13.6,3.7c-0.3-1-1.4-2.8-2.1-3.7c4.3-0.5,7.7-1.4,10.3-2.3c-2.3-0.9-4.5-1.7-6.4-2.3c0.7-0.7,1.4-1.7,2.1-2.8
			l-4.3,0.2l-0.5-3.8c2.1-0.2,4.7-0.2,7.5-0.3c0.7-1,1.2-2.1,1.7-3h-7.1v-8.9h8.7v-1.4h-7.5v-5h-3.7V430h3.7v-5.2h7.5v-3h4.3v3h7.8
			v4.9h3.3v4.2h-3.3v5h-7.8v1.4h8.9v3.5c3.1-5.2,4.9-13.6,5.7-21.9l4.9,0.7c-0.3,2.8-0.7,5.4-1.2,8.2h11.5v5L409.5,435.7
			L409.5,435.7z M374.6,445.5h4v-1.7h-4V445.5z M375.9,428.4v1.6h2.6v-1.6H375.9z M378.6,435.2v-1.7h-2.6v1.7H378.6z M377.3,456.9
			c1.6,0.5,3.3,1,4.9,1.7c1.7-1,2.8-2.3,3.5-3.5l-7.5,0.3L377.3,456.9z M390.6,455c-0.5,1.9-1.6,3.8-3.7,5.7
			c1.7,0.7,3.3,1.6,4.7,2.3c3.8-2.3,6.8-5.4,8.7-9.4c-1-3-2.1-6.3-3-9.7c-0.5,1.2-1.2,2.4-1.9,3.5c-0.7-0.9-2.4-2.8-3.5-3.5v5h-9.7
			c-0.5,0.9-1,1.9-1.6,2.8l5.7-0.3v-1.7h4.5v1.6l1.6-0.2v3.7L390.6,455z M382.9,428.4v1.6h2.8v-1.6H382.9z M385.9,435.2v-1.7h-2.8
			v1.7H385.9z M382.9,443.7v1.7h3.8v-1.7H382.9z M400.1,435.7c0.5,4.2,1.4,8.2,2.4,11.7c1-3.5,1.7-7.3,2.1-11.7H400.1z"/>
		<path class="st4" d="M434.7,423.5c-1.2,3.3-2.8,6.6-4.5,9.9v33.7h-5.9v-24.7c-1,1.2-2.1,2.4-3.1,3.7c-0.5-1.4-2.1-4.7-3.1-6.1
			c4.3-4.3,8.7-11.3,11.1-18.3L434.7,423.5z M463.1,459.7v5.6h-30.6v-5.6h17c1.7-6.3,3.3-15.8,4-22.8l6.1,0.9
			c-1.2,7.3-3,15.8-4.7,21.9H463.1z M445.7,430c-0.3-2.1-1.4-5.2-2.1-7.5l5.6-1.4c1,2.3,1.9,5.4,2.4,7.5l-5,1.4h15v5.6h-27.1V430
			H445.7z M439.9,458.3c-0.3-5-1.6-13.6-3-20.2l5.2-1.2c1.4,6.4,2.8,14.8,3.3,19.7L439.9,458.3z"/>
		<path class="st4" d="M477.2,450.7c-1.7-1.4-5.6-3.8-8.2-5.4l3.5-3.8c2.6,1.4,6.4,3.5,8.3,4.9L477.2,450.7z M469.7,462.7
			c2.6-2.6,6.6-7,9.7-11l3.3,4.2c-2.8,3.8-5.9,7.8-9,11.3L469.7,462.7z M479.8,429.5H470v-5h9.7v-2.6h5.7v2.6h5v5h-5v3.1h-5.7V429.5
			z M475.2,431.9c2.4,1.4,6.4,3.5,8.3,4.7l-3.5,4.3c-1.9-1.2-5.7-3.5-8.3-5L475.2,431.9z M511.6,436.9c-2.1,3.1-4.9,5.7-8.2,8.2
			c3.7,1.4,7.7,2.3,11.8,3c-1.2,1.2-2.6,3.3-3.3,4.7c-0.7-0.2-1.6-0.3-2.3-0.5v15h-5.7v-1.9h-13v1.9h-5.4v-14.3
			c-0.7,0.2-1.4,0.3-1.9,0.5c-0.5-1.4-1.7-3.5-2.8-4.7c4.2-0.7,8.5-2.1,12.3-3.8c-1.4-0.9-2.6-1.9-3.8-3.1c-1.4,1.4-3,2.8-4.7,4
			c-0.9-1-2.8-2.8-4-3.5c4.9-3.1,8.5-7.5,10.8-11l5.6,1c-0.5,0.7-1,1.4-1.6,2.3h11.5l0.9-0.2L511.6,436.9z M508.8,452.1
			c-3.7-1-7.1-2.3-10.4-3.8c-3.1,1.6-6.3,2.8-9.6,3.8H508.8z M503.9,460.8v-4.5h-13v4.5H503.9z M493,439c1.4,1.2,3.1,2.4,5,3.5
			c1.9-1,3.5-2.3,5-3.5H493z M497.9,429.5H493v-5h4.9v-2.6h5.7v2.6h9.9v5h-9.9v3.3h-5.7V429.5z"/>
		<path class="st4" d="M564.1,442.3v5h-28.2c-2.1,8.7-6.1,15.5-11.7,19.8c-1-1-3.5-3.1-4.9-4c5-3.3,8.5-9,10.3-15.8h-8.9v-5h18.6
			v-2.6h-13.9V435h13.9v-2.6h-16.5v-5h8.5c-0.7-1.2-1.4-2.6-2.3-3.7l5-1.9c1.4,1.6,2.8,3.8,3.3,5.4l-0.3,0.2h10.3
			c1-1.7,2.3-4.2,2.8-5.7l6.3,1.6c-1,1.6-2.1,3-3,4.2h8.7v5h-17v2.6h14.4v4.7h-14.4v2.6L564.1,442.3L564.1,442.3z M549.7,461.1h13.7
			v5h-32.9v-5h13.2V455h-8.5v-5h24.9v5h-10.3v6.1H549.7z"/>
	</g>
</g>
<g>
	<g>
		<g>
			<path class="st5" d="M697.5,171.6c0-0.3,0-0.6,0-0.9c0-9.6-8.6-17.3-19.1-17.3c-8.5,0-15.8,5-18.3,11.9c-6,1-9.9,3.2-10.3,6.3
				c-0.5,4.2,5.8,8.5,15.1,11.4c3.2,0.9,6.7,1.7,10.4,2.3c4.4,0.6,8.4,0.8,12.1,0.7c8.9-0.5,15.4-2.9,15.8-6.8
				C703.7,176.7,701.5,174,697.5,171.6L697.5,171.6z"/>
			<path class="st6" d="M697.8,171.6c0-0.2,0-0.5,0-0.8c0-9.7-8.7-17.5-19.4-17.5c-8.4,0-15.8,4.8-18.5,12c-6.3,1-9.9,3.4-10.3,6.4
				c-0.4,2.8,2.4,5.9,7.2,8.4l0,0c1.1,0.6,2.4,1.1,3.7,1.7c0.1,0,0.1,0,0.2,0.1c0.1,0,0.2,0,0.2,0.1c1.2,0.5,2.6,0.9,3.9,1.3
				c0.2,0.1,0.4,0.1,0.6,0.2l0,0c0.5,0.2,0.9,0.3,1.4,0.5l0,0c2.7,0.7,5.5,1.3,8.4,1.7c0.6,0.1,1.1,0.2,1.7,0.2c0.1,0,0.2,0,0.4,0
				c2,0.2,4,0.4,5.9,0.4c0.5,0,0.9,0,1.4,0c0.9,0,1.9,0,2.8-0.1c1.1,0,2.3-0.2,3.3-0.3c0.1,0,0.2,0,0.2,0c0.1,0,0.2,0,0.2,0
				c2.4-0.3,4.5-0.8,6.3-1.3c2.7-0.9,4.5-2.2,5.5-3.8c0.3-0.5,0.5-1,0.6-1.6C703.9,176.7,701.8,174,697.8,171.6L697.8,171.6z
				 M703.2,179.1c-0.1,0.5-0.2,0.9-0.5,1.4c-0.9,1.4-2.7,2.7-5.2,3.5c-1.7,0.6-3.8,1-6.2,1.3c-0.1,0-0.2,0-0.2,0c-0.1,0-0.2,0-0.2,0
				c-1,0.1-2.2,0.2-3.2,0.3c-1.4,0.1-2.8,0.1-4.4,0c-2.6,0-5.1-0.3-7.8-0.7c-3.7-0.5-7.2-1.3-10.4-2.3c-1.4-0.5-2.7-0.9-3.9-1.3
				c-0.1,0-0.2-0.1-0.2-0.1c-0.1,0-0.2-0.1-0.2-0.1c-1.4-0.6-2.7-1.1-3.8-1.7c-4.5-2.5-7.1-5.3-6.7-7.9c0.4-2.8,4.1-5,10.1-6.1h0.2
				v-0.1c2.6-7.1,9.8-11.8,18-11.8c10.4,0,19,7.7,19,17.2c0,0.3,0,0.6,0,0.9v0.2l0.1,0.1C701.4,174.2,703.4,176.9,703.2,179.1
				L703.2,179.1z"/>
		</g>
		<path class="st7" d="M670.8,164.2c1.7-0.9,3.1-2.1,5-2.5c2.2-0.5,4.5,0,6.3,1c3.3,1.7,5.6,4.8,7.9,7.9c2.2,3,4.5,6.1,7.9,7.9
			c2.4,1.2,5.2,1.8,7.1,3.7c3.9,4.2,0.9,11.6,4.1,16.3c2,3,5.9,4,9.3,5.1c3.4,1,7.2,3,8,6.5c0.7,2.9-1.2,6-3.8,7.6
			c-2.6,1.6-5.6,2.2-8.6,2.6c-4.8,0.7-9.8,1.1-14.6,0.5c-4.8-0.7-9.7-2.7-13-6.2c-3.2-3.3-5.1-8.1-9.2-10.4
			c-3.1-1.8-6.9-1.7-10.5-2.2c-3.6-0.4-7.6-1.5-9.4-4.6c-2-3.5-0.7-7.9-0.3-11.8c0.2-3.3-0.3-6.7,0.4-9.9
			C658.6,168.4,664.8,166.1,670.8,164.2L670.8,164.2L670.8,164.2z"/>
		<g>
			<path class="st8" d="M659.8,189.4c0-5.1,1.8-10.4,2.7-15.4l23.5,0.2c-0.1,2.4-0.6,5.2-0.2,7.6c1.4-0.2,2.8,0,3.9,1
				c2,1.9,2,6.1,0,8.1c-0.9,0.9-2.9,0.8-3.3,1.5c-1.6,3-1.8,6.7-1.1,10c0.6,2.9,3,6.2,2.4,9.1c-0.6,2.9-6.1,16-13,16
				c-2.2,0-5.6,0.6-7.2,0c-3.3-1.1-1.6-9.7-1.2-13.6l0.8-10.7c0-0.2-1.9-1.8-2.2-2.1c-2.7-3-4.5-6-5-10
				C659.8,190.5,659.8,189.9,659.8,189.4L659.8,189.4z"/>
			<path class="st6" d="M682.2,174.2l-0.2,0.2h0.6c0-0.1,0-0.2,0-0.2H682.2L682.2,174.2z M682.2,174.2l-0.2,0.2h0.6
				c0-0.1,0-0.2,0-0.2H682.2L682.2,174.2z M686.6,192.4c0.2-0.3,0.7-0.4,1.2-0.6c0.8-0.2,1.5-0.4,2.1-0.9c1.2-1.2,1.7-3.2,1.4-5
				c0-0.1,0-0.2,0-0.2v-0.2c-0.2-1.1-0.7-2.2-1.4-2.8c-0.9-0.9-2.3-1.3-3.9-1.1c-0.2-1.5,0-3.2,0.1-5c0.1-0.9,0.2-1.5,0.2-2.3v-0.2
				h-3.5h-0.3l-20-0.2v0.2c-0.3,1.5-0.7,3.1-1,4.7c-0.1,0.5-0.2,0.9-0.3,1.3c-0.1,0.5-0.2,0.9-0.3,1.3c0,0.1,0,0.2,0,0.2v0.2
				c-0.6,2.5-0.9,4.9-0.9,7.4v0.2c0,0.6,0,1,0.1,1.6c0.4,4.1,2.3,7,5,10.2c0.1,0.1,0.3,0.3,0.6,0.6l0,0c0.1,0.1,0.1,0.1,0.2,0.2
				c0.5,0.4,1.1,1,1.3,1.2c0,0.3-0.1,1.5-0.2,3c0,0.3,0,0.6-0.1,0.9c0,0.2,0,0.4,0,0.6c0,0.1,0,0.2,0,0.3l0,0c0,0.1,0,0.2,0,0.3
				c-0.1,1.3-0.2,2.7-0.2,3.7l0,0c-0.1,1-0.2,1.8-0.2,1.8c0,0.6-0.2,1.1-0.2,1.8c-0.2,1.7-0.5,3.8-0.6,5.8l0,0
				c-0.1,2.9,0.3,5.5,2.2,6.2c0.5,0.2,1,0.2,1.6,0.2c0.2,0,0.4,0,0.6,0c0.9,0,1.8-0.1,2.7-0.2c0.9-0.1,1.7-0.1,2.4-0.1
				c0.2,0,0.4,0,0.7,0c4-0.5,7.4-4.7,9.6-8.9c0.1-0.2,0.2-0.5,0.4-0.7c0.2-0.3,0.3-0.5,0.4-0.8c0.4-0.9,0.8-1.6,1-2.4
				c0.7-1.5,1-2.8,1.1-3.5c0.3-1.6-0.2-3.2-0.9-4.9c0-0.1-0.1-0.2-0.1-0.3c0-0.1-0.1-0.2-0.1-0.3s-0.1-0.2-0.1-0.3
				c-0.5-1.2-0.9-2.3-1.1-3.4c-0.5-2.6-0.7-6.3,1-9.6C686.5,192.6,686.5,192.5,686.6,192.4L686.6,192.4z M686.1,192.3
				c-1.8,3.5-1.7,7.4-1.1,10.1c0.2,1.1,0.7,2.3,1.1,3.3c0,0,0,0.1,0.1,0.2c0,0.1,0.1,0.2,0.2,0.3l0,0c0,0.1,0.1,0.2,0.2,0.3
				c0.7,1.6,1.2,3.3,0.9,4.9c-0.2,0.7-0.5,1.8-1,3.2c-0.3,0.8-0.7,1.6-1.1,2.5c-0.1,0.2-0.2,0.5-0.4,0.8c-0.1,0.2-0.2,0.5-0.4,0.7
				c-2.3,4.2-5.7,8.4-9.5,8.7c-0.1,0-0.2,0-0.4,0c-0.7,0-1.5,0-2.4,0.1c-1.2,0.1-2.5,0.2-3.5,0.1l0,0c-0.5,0-0.9-0.1-1.2-0.2
				c-1.4-0.5-1.9-2.6-1.9-5c0-2.1,0.3-4.5,0.6-6.4c0.1-0.7,0.2-1.3,0.2-1.9c0-0.4,0-0.7,0.1-1l0,0c0.2-1.7,0.2-3.2,0.3-4.4
				c0-0.1,0-0.2,0-0.3l0,0c0-0.1,0-0.2,0-0.4c0-0.2,0-0.3,0-0.5c0-0.3,0-0.7,0.1-0.9c0.2-3.1,0.2-3.2,0.2-3.2c0-0.2-0.1-0.3-1.2-1.3
				c-0.1-0.1-0.2-0.2-0.3-0.2c-0.3-0.3-0.7-0.7-0.8-0.7c-2.7-3.1-4.5-6.1-4.9-9.9c0-0.5-0.1-1-0.1-1.6c0-2.4,0.4-4.9,0.9-7.4
				c0-0.1,0-0.2,0-0.2c0-0.1,0-0.2,0-0.2c0.1-0.5,0.2-0.9,0.4-1.5c0.1-0.4,0.2-0.9,0.3-1.2c0.4-1.5,0.8-3.1,1-4.6l19.3,0.1h0.6h3.2
				c0,0.7-0.1,1.3-0.2,2.1c-0.2,1.8-0.3,3.6-0.1,5.3v0.2h0.2c1.5-0.3,2.7,0.1,3.7,0.9c0.7,0.7,1.1,1.6,1.3,2.7c0,0.1,0,0.2,0,0.2
				v0.2c0.2,1.7-0.2,3.5-1.3,4.6c-0.5,0.5-1.1,0.7-1.8,0.8c-0.7,0.2-1.3,0.3-1.5,0.8C686.2,192.2,686.1,192.2,686.1,192.3
				L686.1,192.3z M682.2,174.2l-0.2,0.2h0.6c0-0.1,0-0.2,0-0.2H682.2L682.2,174.2z"/>
		</g>
		<path d="M676.6,186.7c0-0.6-0.6-0.9-1-0.9s-0.9,0.6-0.9,1c0,0.6,0.6,0.9,1,0.9C676.2,187.7,676.6,187.2,676.6,186.7L676.6,186.7z"
			/>
		<path d="M666.2,186.8c0-0.6-0.6-0.9-1-0.9c-0.6,0-0.9,0.6-0.9,1c0,0.6,0.6,0.9,1,0.9C665.9,187.8,666.3,187.4,666.2,186.8
			L666.2,186.8z"/>
		<path class="st9" d="M669.5,189c-0.3,0.3-0.6,0.6-0.9,0.9c-0.3,0.3-0.6,0.6-0.5,1c0.1,0.4,0.4,0.7,0.7,0.9
			c0.2,0.2,0.6,0.5,0.9,0.7c0.5,0.2,0.8-0.4,0.4-0.7c-0.5-0.2-0.9-0.6-1-1c0,0,0,0,0-0.1l0,0l0,0c0.1-0.1,0.2-0.2,0.3-0.4
			c0.2-0.2,0.5-0.5,0.7-0.8C670.4,189.2,669.9,188.6,669.5,189L669.5,189L669.5,189z"/>
		<path class="st9" d="M674.4,184.3c0.7-0.3,1.5-0.4,2.2,0c0.2,0.1,0.4-0.1,0.5-0.3c0-0.2-0.1-0.4-0.3-0.5c-0.9-0.4-1.9-0.3-2.8,0.1
			c-0.2,0.1-0.2,0.4-0.1,0.5C674,184.4,674.2,184.4,674.4,184.3L674.4,184.3L674.4,184.3z"/>
		<path class="st9" d="M664.2,184.5c0.7-0.3,1.5-0.4,2.2,0c0.2,0.1,0.4-0.1,0.5-0.3c0-0.2-0.1-0.4-0.3-0.5c-0.9-0.4-1.9-0.3-2.8,0.1
			c-0.2,0.1-0.2,0.4-0.1,0.5C663.8,184.5,664,184.6,664.2,184.5L664.2,184.5L664.2,184.5z"/>
		<path class="st9" d="M667.2,195.2c1.7,1.2,4.2,1,5.7-0.3c0.4-0.3-0.2-0.9-0.6-0.6c-1.3,1.1-3.3,1.2-4.7,0.2
			c-0.2-0.1-0.5,0-0.5,0.1C667.1,194.9,667.1,195.1,667.2,195.2L667.2,195.2z"/>
		<path class="st7" d="M647.8,430.3c0,0-17.7,5.7-18.5,7.2s0,4.7,0,4.7h38.9l-1.9-15.4L647.8,430.3L647.8,430.3z"/>
		<path class="st7" d="M706.8,428.5c0,0,0.2,2.2-0.5,3.2c-0.7,1-2.6,2-3.2,4.8c-0.7,2.8-0.4,5.1-0.4,5.1s13,1,17.1-0.1
			c1.2-0.4,3.9-2.6,4-3.4c0.1-0.9-1-11.6-1-11.6L706.8,428.5L706.8,428.5z"/>
		<path class="st10" d="M651.6,279.8l-8.5,36.5c-4.2,12.9-6.5,26.3-7.2,40l0.6,75.7l32.3-0.4l-4.3-86.6l11.9-28l7,32.8
			c1,5,16.3,80.5,16.3,80.5l34.7-2.7l-24.5-89.1l-3.6-57.8L651.6,279.8L651.6,279.8z"/>
		<g>
			<path class="st8" d="M741.3,312.9c0.1-0.1,0.2,0,0.3,0l2.8,2.4c0.5,0.4,1.1,0.4,1.5-0.1c0.5-0.5,0.4-1.2-0.1-1.6l-0.4-0.3
				c-1.6-1.3-2.9-2.8-3.9-4.5l-3.5-6.1c-1.5,0.9-2.4,1.5-7.7,5.4c-0.7,0.2-1.3,0.7-1.4,1l-0.8,7.2c-0.2,0.6,0.2,1.2,0.9,1.3
				c0.6,0.2,1.2-0.2,1.3-0.9l1.3-2.9c0.8,1.1,4.8,8.9,4.8,8.9c0.3,0.6,0.9,0.9,1.5,0.5c0.5-0.3,0.7-0.9,0.5-1.5l-2.4-5.2
				c0-0.1,0-0.3,0.1-0.4l0.2-0.2c0.1-0.1,0.3,0,0.4,0.1l3.3,5.2c0.4,0.6,1,0.7,1.6,0.3c0.5-0.4,0.6-1,0.3-1.5l-3.3-5.2
				c-0.1-0.1,0-0.3,0.1-0.4h0.1c0.1-0.1,0.2,0,0.4,0l3.9,4.1c0.5,0.5,1.2,0.6,1.7,0.2c0.6-0.4,0.7-0.9,0.2-1.4l-3.8-4
				C741.1,313.3,741.2,313.1,741.3,312.9L741.3,312.9z"/>
			<path class="st6" d="M746.2,315.5c0.3-0.3,0.4-0.7,0.4-1s-0.2-0.8-0.6-0.9l-0.4-0.3c-1.2-0.9-2.3-2.1-3.1-3.3
				c-0.3-0.4-0.5-0.8-0.8-1.1l-0.6-0.9l0,0l-1.2-2.1l-0.2-0.3l-0.2-0.3l-1.3-2.3l-0.3-0.5l-0.3,0.2c-0.1,0.1-0.2,0.1-0.3,0.2
				c-0.9,0.6-1.6,1-3.5,2.4c-0.4,0.2-0.8,0.6-1.2,0.9c-0.6,0.4-1.2,0.9-2,1.4c-0.2,0.2-0.5,0.4-0.8,0.6c-0.6,0.2-1.4,0.7-1.5,1.3
				l-0.1,0.7v0.3v0.4l-0.7,5.9c-0.2,0.8,0.3,1.5,1,1.7s1.5-0.3,1.7-1l1-2.4c1.1,2,4.5,8.4,4.5,8.4c0.2,0.4,0.5,0.7,0.9,0.8
				c0.2,0,0.3,0.1,0.5,0.1c0.2,0,0.5,0,0.7-0.2c0.7-0.4,0.9-1.1,0.6-1.9l-2.4-5.2l0.2-0.2l3.3,5.2c0.2,0.3,0.6,0.6,0.9,0.7
				c0.4,0.1,0.8,0,1-0.2c0.6-0.5,0.8-1.3,0.4-2l-3.3-5.2l0,0l3.9,4.1c0.6,0.6,1.5,0.7,2.1,0.3c0.3-0.2,0.6-0.6,0.6-0.9
				c0-0.4-0.1-0.8-0.4-1l-3.5-3.7l2.7,2.1C744.9,316.1,745.7,316.1,746.2,315.5L746.2,315.5z M744.7,318.5c-0.4,0.3-1,0.2-1.3-0.2
				l-3.9-4.1c-0.2-0.2-0.5-0.2-0.7-0.1h-0.1c-0.3,0.2-0.4,0.5-0.2,0.8l3.3,5.2c0.2,0.4,0.2,0.9-0.2,1.1c-0.2,0.2-0.4,0.2-0.7,0.2
				c-0.2,0-0.5-0.2-0.6-0.4l-3.3-5.2c-0.1-0.1-0.2-0.2-0.4-0.2s-0.3,0-0.5,0.1L736,316c-0.2,0.2-0.3,0.5-0.2,0.8l2.4,5.2
				c0.2,0.4,0,0.9-0.3,1c-0.2,0.1-0.5,0.1-0.7,0s-0.4-0.2-0.5-0.5c-0.2-0.3-4.2-7.9-4.9-9l-0.3-0.5l-1.5,3.5
				c-0.1,0.5-0.6,0.7-0.9,0.7c-0.5-0.1-0.7-0.6-0.6-1l0.7-6.1v-0.4v-0.3V309c0-0.2,0.6-0.6,1.2-0.9h0.1c0.5-0.3,0.9-0.6,1.2-0.9l0,0
				c0.8-0.6,1.3-1,2-1.4c0.4-0.2,0.7-0.5,0.9-0.7c1.7-1.2,2.5-1.7,3.3-2.3l1.3,2.3l0.2,0.3l0.2,0.3l0.9,1.6l0,0l0.9,1.4
				c0.2,0.2,0.3,0.5,0.5,0.7l0,0c0.9,1.5,2.2,2.8,3.5,3.9l0.4,0.3c0.2,0.2,0.3,0.4,0.3,0.6c0,0.2-0.1,0.5-0.2,0.7
				c-0.3,0.3-0.8,0.4-1.1,0l-2.8-2.4c-0.1-0.1-0.2-0.1-0.4-0.1c-0.2,0-0.2,0-0.3,0.1c-0.2,0.1-0.2,0.2-0.2,0.4s0,0.4,0.2,0.5l3.8,4
				c0.2,0.2,0.2,0.4,0.2,0.6C744.9,318.2,744.9,318.4,744.7,318.5L744.7,318.5z"/>
		</g>
		<g>
			<path class="st8" d="M595.3,249c0,0.1-0.1,0.2-0.3,0.2l-4.2,0.6c-0.7,0.1-1.2,0.7-1.1,1.3c0,0.8,0.8,1.3,1.5,1.1l0.6-0.1
				c2.3-0.4,4.6-0.2,6.9,0.3l7.9,1.7c0.4-2,0.6-3.1,1.4-10.6c0.3-0.7,0.5-1.6,0.2-2l-5.4-6.3c-0.4-0.6-1.2-0.8-1.8-0.4
				c-0.6,0.4-0.8,1.2-0.4,1.8l1.5,3.4c-1.5-0.3-11.3-2.9-11.3-2.9c-0.7-0.2-1.4,0.2-1.6,0.9c-0.2,0.7,0.2,1.3,0.9,1.5l6.3,2.1
				c0.2,0,0.2,0.2,0.2,0.4l-0.1,0.3c0,0.2-0.2,0.3-0.4,0.2l-7-1.3c-0.8-0.2-1.4,0.4-1.5,1s0.4,1.3,1,1.4l6.9,1.3
				c0.2,0,0.3,0.2,0.2,0.4v0.1c0,0.2-0.2,0.2-0.3,0.3l-6.3,0.1c-0.7,0-1.4,0.6-1.5,1.3c-0.1,0.7,0.4,1.3,1,1.3l6.3-0.1
				C595.2,248.6,595.3,248.7,595.3,249L595.3,249z"/>
			<path class="st6" d="M608.4,241.5l-1-1.3l-0.3-0.3l-0.3-0.3l-3.7-4.4c-0.2-0.4-0.6-0.6-1-0.7c-0.5-0.1-0.9,0-1.2,0.2
				c-0.7,0.5-0.9,1.5-0.5,2.2l1.2,2.8c-2.6-0.6-10.6-2.7-10.7-2.8c-0.4-0.2-0.9-0.1-1.2,0.1c-0.4,0.2-0.7,0.6-0.8,1
				c-0.2,0.8,0.3,1.6,1,1.9l6.3,2.1l-0.1,0.4l-7-1.3c-0.5-0.1-0.9,0-1.2,0.3c-0.4,0.3-0.6,0.7-0.7,1c-0.1,0.9,0.5,1.6,1.3,1.7
				l6.9,1.3v0.1l-6.3,0.1c-0.9,0-1.7,0.7-1.8,1.5c-0.1,0.5,0,0.9,0.3,1.1c0.3,0.3,0.7,0.5,1,0.5h6.3l0,0l-4.2,0.6
				c-0.9,0.1-1.4,0.9-1.4,1.7c0,0.5,0.2,0.9,0.6,1.1c0.4,0.3,0.8,0.4,1.2,0.3l0.6-0.1c2.3-0.3,4.5-0.2,6.8,0.3l6.6,1.5l0.3,0.1
				l0.3,0.1l0.9,0.2l0.1-0.3c0.4-2,0.6-3,1.4-10.6C608.6,243.1,608.9,242.1,608.4,241.5L608.4,241.5z M607.7,243.6
				c-0.8,7.2-0.9,8.5-1.3,10.3l-0.5-0.1l-0.3-0.1l-0.3-0.1l-6.6-1.4c-1.4-0.3-2.8-0.5-4.3-0.5c-0.9,0-1.9,0.1-2.8,0.2l-0.6,0.1
				c-0.3,0-0.6,0-0.8-0.2c-0.2-0.2-0.4-0.5-0.4-0.7c0-0.5,0.4-0.9,0.9-1l4.2-0.6c0.3,0,0.5-0.2,0.5-0.5c0-0.2,0-0.4-0.1-0.5
				c-0.1-0.2-0.3-0.2-0.5-0.2l0,0l-6.3,0.1c-0.2,0-0.5-0.1-0.7-0.3s-0.2-0.4-0.2-0.7c0.1-0.6,0.7-1,1.2-1l6.3-0.1
				c0.3,0,0.6-0.2,0.6-0.5v-0.1c0-0.2,0-0.3-0.1-0.5c-0.1-0.2-0.2-0.2-0.4-0.3l-6.9-1.3c-0.6-0.1-0.9-0.6-0.9-1
				c0-0.3,0.2-0.5,0.4-0.7c0.2-0.2,0.5-0.2,0.8-0.2l7,1.3c0.2,0,0.3,0,0.5-0.1c0.2-0.1,0.2-0.2,0.2-0.4l0.1-0.3
				c0.1-0.3-0.1-0.6-0.4-0.7l-6.3-2.1c-0.6-0.2-0.9-0.7-0.7-1.2c0.1-0.3,0.2-0.5,0.5-0.7c0.2-0.1,0.6-0.2,0.8-0.1
				c0.4,0.1,9.8,2.7,11.4,2.9l0.6,0.1l-1.7-3.9c-0.3-0.5-0.2-1,0.3-1.3c0.2-0.2,0.5-0.2,0.8-0.2c0.2,0.1,0.5,0.2,0.7,0.5l4.2,4.7
				l0.3,0.3l0.3,0.3l0.7,0.9C608,242.1,607.9,242.7,607.7,243.6L607.7,243.6L607.7,243.6z"/>
		</g>
		<g>
			<path class="st8" d="M744.5,302.3c0,0-14.3,10.3-22,7.5c0,0-10.7-49.3-11.7-52.8c-0.5-1.7-4-6-7.6-10.5l3.2,36.4
				c-0.9,0.8-4.6,3.3-5.9,3.7c-3.9,1.4-9.4,1.5-14.3,1.7c-17.2,0.5-36.8-6-36.8-6s1.5-17.7,2.5-31.4c-4.3,3.3-11.9,10.9-18.3,11.3
				c-9.8,0.7-28.2-6.7-28.2-6.7c0.9-8.2,1.9-17.4,1.9-17.4s25.2,5.9,26.9,4.6c1.4-0.9,2.4-3.4,3.2-4.7c2-3.1,3.8-6.3,5.7-9.6
				c2.5-4.2,4.7-8.5,7.7-12.4c1.5-2,3.1-3.7,5-5.2c2.1-1.6,4.5-1.9,7-2.4c1.2-0.2,2.4-0.4,3.6-0.6c3.3,2.5,11.6,6.9,19.5-1.9
				c0.2,0.2,4.8,0.7,5.7,0.8c2.1,0.3,4.2,0.7,6.2,1.3c4.1,1.3,6.9,3.5,9.4,6.9c4.8,6.6,9,13.6,12.7,20.9c3.1,6.1,6.3,12.4,8.2,19
				C731.3,265.1,744.5,302.3,744.5,302.3L744.5,302.3z"/>
			<path class="st6" d="M720.2,298.2c-0.2-0.9-0.4-1.7-0.6-2.6c-3.2-14.9-8-36.5-8.6-38.8c-0.5-1.6-3.4-5.3-6.8-9.6l-0.1-0.2
				l-1.3-1.7l0.1,0.9l0,0l1.5,16.9v0.4l0,0v0.4l0.2,2.8l0.2,1.8l0.5,5.4l0.2,1.8l0,0l0.4,4.5l0.2,2.2c-1.1,0.9-4.5,3.2-5.7,3.6
				c-0.9,0.4-2.1,0.7-3.2,0.9c-0.1,0-0.2,0-0.4,0.1c-0.1,0-0.2,0-0.4,0.1c-0.4,0.1-0.9,0.1-1.2,0.2c-1.7,0.2-3.4,0.3-5.1,0.4l0,0
				l0,0l0.4,0.2l0.3,0.1l0,0h0.1l0.6,0.2l0,0c1.7-0.1,3.4-0.2,5-0.5l0,0c0.1,0,0.1,0,0.2,0c0.1,0,0.2,0,0.4,0c0.1,0,0.2,0,0.4-0.1
				c1.2-0.2,2.3-0.5,3.3-0.9c1.3-0.5,5-2.9,6-3.8l0,0l0.1-0.1l-0.5-5.3l0,0l-0.2-1.8l-0.7-7.8v-0.6l-0.3-3.2v-0.5v-0.5l-1.4-16.1
				l0.2,0.2v0.1c3.2,4.1,6.3,7.9,6.7,9.4c0.6,2.3,5.3,23.5,8.5,38.4c0.2,0.9,0.4,1.7,0.6,2.6c0.1,0,0.2,0.1,0.3,0.1l0,0
				c0.1,0.5,0.2,0.9,0.3,1.2c0.1,0.1,0.2,0.2,0.4,0.4C720.4,299.3,720.3,298.8,720.2,298.2L720.2,298.2z M720.2,298.2
				c-0.2-0.9-0.4-1.7-0.6-2.6c-3.2-14.9-8-36.5-8.6-38.8c-0.5-1.6-3.4-5.3-6.8-9.6l-0.1-0.2l-1.3-1.7l0.1,0.9l0,0l1.5,16.9v0.4l0,0
				v0.4l0.2,2.8l0.2,1.8l0.5,5.4l0.2,1.8l0,0l0.4,4.5l0.2,2.2c-1.1,0.9-4.5,3.2-5.7,3.6c-0.9,0.4-2.1,0.7-3.2,0.9
				c-0.1,0-0.2,0-0.4,0.1c-0.1,0-0.2,0-0.4,0.1c-0.4,0.1-0.9,0.1-1.2,0.2c-1.7,0.2-3.4,0.3-5.1,0.4l0,0l0,0l0.4,0.2l0.3,0.1l0,0h0.1
				l0.6,0.2l0,0c1.7-0.1,3.4-0.2,5-0.5l0,0c0.1,0,0.1,0,0.2,0c0.1,0,0.2,0,0.4,0c0.1,0,0.2,0,0.4-0.1c1.2-0.2,2.3-0.5,3.3-0.9
				c1.3-0.5,5-2.9,6-3.8l0,0l0.1-0.1l-0.5-5.3l0,0l-0.2-1.8l-0.7-7.8v-0.6l-0.3-3.2v-0.5v-0.5l-1.4-16.1l0.2,0.2v0.1
				c3.2,4.1,6.3,7.9,6.7,9.4c0.6,2.3,5.3,23.5,8.5,38.4c0.2,0.9,0.4,1.7,0.6,2.6c0.1,0,0.2,0.1,0.3,0.1l0,0c0.1,0.5,0.2,0.9,0.3,1.2
				c0.1,0.1,0.2,0.2,0.4,0.4C720.4,299.3,720.3,298.8,720.2,298.2L720.2,298.2z M744.8,302.3c0,0-0.1-0.2-0.2-0.7
				c-1.7-4.9-13.2-37.5-15.8-46.7c-0.9-3.3-2.3-6.5-3.7-9.7c-0.2-0.5-0.5-0.9-0.7-1.4c-0.2-0.5-0.5-1-0.8-1.5
				c-1-2.2-2.1-4.4-3.1-6.3c-0.9-1.8-1.9-3.6-2.8-5.3l0,0c-2-3.6-4-6.9-6.1-10c-1.3-2-2.6-3.8-3.9-5.6c-2.6-3.5-5.5-5.7-9.6-7
				c-1.9-0.7-3.9-1-6.3-1.3c-0.3,0-0.9-0.1-1.5-0.2c-1-0.1-2.8-0.3-3.7-0.5c-0.1,0-0.2,0-0.3,0c-0.1,0-0.1,0-0.1,0l-0.2-0.2
				l-0.2,0.2c-1.3,1.4-2.6,2.5-3.8,3.2c-2.6,1.5-5,2-7.3,1.8c-0.9-0.1-1.6-0.2-2.4-0.5c-2.4-0.7-4.3-1.7-5.5-2.7
				c-0.1,0-0.1-0.1-0.2-0.1l0,0l-0.1-0.1h-0.2h-0.3c0,0-0.1,0-0.2,0c-0.7,0.1-1.4,0.2-2.1,0.3c-0.3,0-0.7,0.1-0.9,0.2l-0.6,0.1
				c-1,0.2-2.2,0.4-3.3,0.7c-1.1,0.4-2.3,0.9-3.3,1.6c-1.8,1.4-3.5,3.1-5.1,5.3c-2.2,2.8-3.9,5.9-5.6,8.8c-0.7,1.1-1.3,2.4-2.1,3.6
				c-0.7,1-1.3,2.2-2,3.2c-1.2,2.1-2.5,4.2-3.8,6.3c-0.2,0.4-0.5,0.9-0.7,1.3c-0.7,1.3-1.5,2.7-2.5,3.4c-1.2,0.9-17-2.4-26.7-4.6
				l-0.3-0.1v0.3c0,0,0,0.6-0.2,1.3c0,0.1,0,0.3,0,0.4s0,0.2,0,0.4c-0.3,2.8-0.9,8.1-1.4,13.3c0,0.1,0,0.2,0,0.3c0,0.1,0,0.2,0,0.3
				c-0.1,0.5-0.1,0.9-0.2,1.3v0.2l0.2,0.1c0.2,0.1,18.7,7.4,28.4,6.7c5.1-0.4,11.2-5.4,15.6-9.1c0.9-0.7,1.6-1.3,2.3-1.9
				c-0.9,13.4-2.5,30.5-2.5,30.7v0.2l0.2,0.1c0,0,0.1,0,0.3,0.1s0.7,0.2,1.2,0.4c3.8,1.1,14.2,4,25.3,5.1c1.7,0.2,3.3,0.3,5,0.4l0,0
				l0,0l0,0l0,0l0,0c0.6,0,1,0,1.5,0l0,0c1.1,0,2.3,0,3.4,0h0.5c0.9,0,1.6,0,2.5-0.1c0.8,0,1.5-0.1,2.4-0.1l0,0
				c1.7-0.1,3.4-0.2,5-0.5l0,0c0.1,0,0.1,0,0.2,0c0.1,0,0.2,0,0.4,0c0.1,0,0.2,0,0.4-0.1c1.2-0.2,2.3-0.5,3.3-0.9
				c1.3-0.5,5-2.9,6-3.8l0,0l0.1-0.1l-0.5-5.3l0,0l-0.2-1.8l-0.7-7.8v-0.6l-0.3-3.2v-0.5v-0.5l-1.4-16.1l0.2,0.2v0.1
				c3.2,4.1,6.3,7.9,6.7,9.4c0.6,2.3,5.3,23.5,8.5,38.4c0.2,0.9,0.4,1.7,0.6,2.6c0.1,0.3,0.2,0.7,0.2,0.9c0.3,1.3,0.6,2.6,0.9,3.7
				l0,0c0.2,0.7,0.3,1.3,0.5,2c0.7,3.1,1.1,5.1,1.1,5.2v0.2l0.2,0.1c0.9,0.4,2,0.5,3.1,0.5c0.9,0,2-0.1,3-0.3c0.1,0,0.2,0,0.3-0.1
				c0.1,0,0.2,0,0.3-0.1c2-0.5,3.9-1.2,5.9-2l0,0c0.9-0.5,1.8-0.9,2.7-1.3l0,0c0.7-0.3,1.3-0.7,1.9-1c0.1,0,0.2-0.1,0.3-0.2
				c0.1-0.1,0.2-0.1,0.3-0.2c0.6-0.3,1-0.7,1.5-0.9c0.6-0.4,1-0.7,1.5-0.9l0,0c0.9-0.6,1.5-0.9,1.6-1l0.2-0.1L744.8,302.3
				L744.8,302.3z M742.2,303.5c-0.3,0.2-0.8,0.5-1.1,0.8l0,0c-0.4,0.2-0.9,0.5-1.3,0.8c-0.1,0-0.2,0.1-0.3,0.2
				c-0.1,0-0.2,0.1-0.2,0.2c-0.8,0.5-1.7,0.9-2.6,1.3s-1.8,0.9-2.7,1.3c-1.5,0.7-3.2,1.2-4.7,1.6c-0.1,0-0.2,0-0.3,0.1
				c-0.1,0-0.2,0-0.3,0.1c-2.2,0.5-4.2,0.6-5.9,0c-0.1-0.5-0.5-2.2-1-4.7l0,0c-0.2-0.7-0.3-1.3-0.5-2l0,0c-0.2-0.9-0.5-2-0.7-3.1
				c-0.1-0.5-0.2-0.9-0.3-1.5c-0.2-0.9-0.4-1.7-0.6-2.6c-3.2-14.9-8-36.5-8.6-38.8c-0.5-1.6-3.4-5.3-6.8-9.6l-0.1-0.2l-1.3-1.7
				l0.1,0.9l0,0l1.5,16.9v0.4l0,0v0.4l0.2,2.8l0.2,1.8l0.5,5.4l0.2,1.8l0,0l0.4,4.5l0.2,2.2c-1.1,0.9-4.5,3.2-5.7,3.6
				c-0.9,0.4-2.1,0.7-3.2,0.9c-0.1,0-0.2,0-0.4,0.1c-0.1,0-0.2,0-0.4,0.1c-0.4,0.1-0.9,0.1-1.2,0.2c-1.7,0.2-3.4,0.3-5.1,0.4l0,0
				c-0.5,0-1,0-1.5,0.1l0,0c-0.7,0-1.3,0-2,0.1h-0.5c-1.3,0-2.6,0-3.9,0c-0.9,0-1.6-0.1-2.5-0.1l0,0c-1.7-0.1-3.5-0.3-5.2-0.5
				c-10.4-1.2-20-3.9-23.6-4.9l0,0c-0.3-0.1-0.6-0.2-0.8-0.2c-0.2-0.1-0.4-0.1-0.5-0.2c0.2-2.2,1.6-18.5,2.5-31.1v-0.7l-0.6,0.4
				c0,0-0.1,0-0.1,0.1c-0.9,0.7-1.7,1.4-2.7,2.3c-4.4,3.6-10.3,8.6-15.3,8.9c-9,0.7-25.9-5.8-27.9-6.6c0-0.4,0.1-0.7,0.1-1
				c0-0.1,0-0.2,0-0.3l0,0c0-0.1,0-0.2,0-0.3c0.6-4.9,1-9.9,1.4-12.8c0-0.2,0-0.3,0-0.4c0-0.2,0-0.3,0-0.5c0.1-0.7,0.1-1.2,0.2-1.6
				c3.8,0.9,25.1,5.7,26.8,4.5c1-0.8,1.9-2.3,2.7-3.6c0.2-0.5,0.5-0.9,0.7-1.2c1.3-2.1,2.6-4.2,3.8-6.3c0.7-1,1.3-2.2,2-3.2
				c0.7-1.1,1.4-2.4,2.1-3.6c1.7-2.9,3.5-6,5.6-8.7c1.6-2.1,3.2-3.8,5-5.2c0.9-0.7,1.8-1.1,2.8-1.4c1.1-0.4,2.3-0.6,3.5-0.8l0.6-0.1
				c0.5-0.1,0.9-0.2,1.3-0.2c0.7-0.1,1.2-0.2,1.9-0.3h0.2h0.1c0,0,0.1,0.1,0.2,0.1c0.1,0,0.1,0.1,0.2,0.2c1.1,0.8,2.7,1.7,4.6,2.4
				c0,0,0,0,0.1,0c0.8,0.2,1.6,0.5,2.5,0.6c0.6,0.1,1.2,0.2,1.9,0.1c2.1,0,4.3-0.6,6.5-2c1.2-0.8,2.6-1.8,3.8-3.1c0.1,0,0.2,0,0.2,0
				c0.1,0,0.2,0,0.2,0c0.1,0,0.2,0,0.3,0.1c0.7,0.1,1.7,0.2,3.3,0.4c0.7,0.1,1.2,0.1,1.5,0.2c2.3,0.3,4.3,0.8,6.1,1.3
				c3.9,1.3,6.7,3.3,9.3,6.7c1.3,1.7,2.5,3.5,3.7,5.3c2.2,3.2,4.2,6.6,6.3,10.3c0.9,1.7,1.9,3.4,2.7,5.2c0.9,1.7,1.8,3.5,2.7,5.4
				c0.2,0.5,0.5,1,0.8,1.5c0.2,0.5,0.5,0.9,0.7,1.4c1.6,3.4,3,6.9,4.1,10.5c2.7,9,13.7,40.6,15.7,46.4c0.1,0.3,0.2,0.6,0.3,0.8
				C743.8,302.5,743.1,303,742.2,303.5L742.2,303.5L742.2,303.5z M720.2,298.2c-0.2-0.9-0.4-1.7-0.6-2.6c-3.2-14.9-8-36.5-8.6-38.8
				c-0.5-1.6-3.4-5.3-6.8-9.6l-0.1-0.2l-1.3-1.7l0.1,0.9l0,0l1.5,16.9v0.4l0,0v0.4l0.2,2.8l0.2,1.8l0.5,5.4l0.2,1.8l0,0l0.4,4.5
				l0.2,2.2c-1.1,0.9-4.5,3.2-5.7,3.6c-0.9,0.4-2.1,0.7-3.2,0.9c-0.1,0-0.2,0-0.4,0.1c-0.1,0-0.2,0-0.4,0.1
				c-0.4,0.1-0.9,0.1-1.2,0.2c-1.7,0.2-3.4,0.3-5.1,0.4l0,0l0,0l0.4,0.2l0.3,0.1l0,0h0.1l0.6,0.2l0,0c1.7-0.1,3.4-0.2,5-0.5l0,0
				c0.1,0,0.1,0,0.2,0c0.1,0,0.2,0,0.4,0c0.1,0,0.2,0,0.4-0.1c1.2-0.2,2.3-0.5,3.3-0.9c1.3-0.5,5-2.9,6-3.8l0,0l0.1-0.1l-0.5-5.3
				l0,0l-0.2-1.8l-0.7-7.8v-0.6l-0.3-3.2v-0.5v-0.5l-1.4-16.1l0.2,0.2v0.1c3.2,4.1,6.3,7.9,6.7,9.4c0.6,2.3,5.3,23.5,8.5,38.4
				c0.2,0.9,0.4,1.7,0.6,2.6c0.1,0,0.2,0.1,0.3,0.1l0,0c0.1,0.5,0.2,0.9,0.3,1.2c0.1,0.1,0.2,0.2,0.4,0.4
				C720.4,299.3,720.3,298.8,720.2,298.2L720.2,298.2z"/>
		</g>
		
			<rect x="700.4" y="237.6" transform="matrix(0.8083 -0.5888 0.5888 0.8083 -8.8272 459.1819)" class="st6" width="0.6" height="11.1"/>
		<path class="st7" d="M660.9,170.7c0,0-2.6,7.1-1.8,9.2l17.6,1l6.2-7.8L660.9,170.7L660.9,170.7z"/>
		<path class="st7" d="M693.8,199.5c0,0-12.1-6.1-11.6-22c0.6-15.8,13.8,2.6,13.8,2.6l4.1,12L693.8,199.5L693.8,199.5z"/>
		
			<rect x="645" y="243.2" transform="matrix(8.019056e-02 -0.9968 0.9968 8.019056e-02 357.4568 874.4073)" class="st6" width="15" height="0.6"/>
		<path class="st5" d="M657.7,172.1c0,0,11.9-15.6,37.1,3.9l-3.4-11.7l-8.7-5.4l-7.8,2l-8.5,1.8L657.7,172.1L657.7,172.1z"/>
		<path class="st7" d="M663.2,207.6c2,1.1,2.7,4.5,3.8,6.3c1.5,2.7,3.1,5.5,4.8,8.2c4.4,7.1,8.9,14.1,13.8,20.8
			c2,2.7,3.8,5.6,5.7,8.3c0.9,1.2,13.6,17.2,14.3,16.6l-3.7,5.1c0,0-18.1-16.8-42.7-62c-1.1-2.1,0.9-4.2,3-3.7
			C662.7,207.4,662.9,207.5,663.2,207.6L663.2,207.6z"/>
		<path class="st9" d="M676.2,186.4C676.2,186.4,676.2,186.4,676.2,186.4c-0.2-0.1-0.2-0.2-0.2-0.2c0-0.1,0.1-0.1,0.2-0.1
			c0.3,0.1,0.7-0.3,0.9-0.4c0.1-0.1,0.2-0.1,0.2,0c0.1,0,0.1,0.2,0,0.2C677.3,186.1,676.7,186.6,676.2,186.4L676.2,186.4z"/>
		<path class="st9" d="M664.9,186.4L664.9,186.4c0.2-0.1,0.2-0.2,0.2-0.2c0-0.1-0.1-0.1-0.2-0.1c-0.3,0.1-0.7-0.3-0.9-0.4
			c-0.1-0.1-0.2-0.1-0.2,0c-0.1,0-0.1,0.2,0,0.2C663.7,186.1,664.3,186.6,664.9,186.4L664.9,186.4z"/>
		<g>
			<path class="st8" d="M708.7,269.5c-0.4-1.3-0.9-2.7-1.7-3.8c-0.6-0.8-1.5-1.5-2.4-1.9c-2.3-0.8-5.4,1.5-6.4,3.4
				c-0.8,1.4-1,3-1.2,4.5c-0.9,6.4-1,13.1,0.7,19.3c0.6,2.3,1.5,4.5,3.2,6.2c1.7,1.6,4.5,2.4,6.5,1.1c2.1-1.2,2.7-4,3-6.4
				C711.3,284.6,710.8,276.9,708.7,269.5L708.7,269.5z"/>
			<path class="st6" d="M709.1,269.5c-0.7-2.4-2-5.6-4.7-6.1c-2.2-0.4-4.4,1.1-5.7,2.7c-1.8,2.2-2,5.3-2.3,8
				c-0.4,3.2-0.5,6.5-0.3,9.8c0.2,3,0.7,6.2,1.7,9.1c0.9,2.4,2.2,4.7,4.5,5.9c2.1,1,4.7,0.9,6.3-0.9c1.7-1.8,2-4.5,2.3-6.9
				C711.6,283.8,711.1,276.4,709.1,269.5c-0.1-0.5-0.9-0.3-0.7,0.2c1.5,5.5,2.2,11.2,2,17c-0.1,2.7-0.2,5.3-0.9,7.9
				c-0.7,2.3-2.1,4.4-4.6,4.4c-5.7-0.2-7.1-7.4-7.8-11.8c-0.5-2.8-0.6-5.8-0.4-8.6c0.1-2.8,0.4-5.8,0.9-8.5c0.3-1.3,0.8-2.7,1.7-3.6
				c0.9-0.9,2-1.7,3.2-2c3.3-0.9,5,2.8,5.7,5.4C708.6,270.1,709.2,269.9,709.1,269.5L709.1,269.5z"/>
		</g>
		
			<rect x="705.4" y="263.7" transform="matrix(0.914 -0.4056 0.4056 0.914 -51.3361 309.9738)" class="st6" width="0.6" height="24.7"/>
	</g>
	<g>
		<g>
			<path class="st10" d="M601.5,243c-0.7,0-1.4-0.2-2-0.7c-7.5-6-12.4-12.2-14.7-18.7c-0.9-2.2-1.3-4.5-1.3-6.7
				c0-9.8,8.1-17.8,17.9-17.8s17.9,8,17.9,17.8l0,0c0,3.8-1.4,13.7-15.8,25.3C602.9,242.7,602.2,243,601.5,243L601.5,243z"/>
			<path class="st7" d="M618.4,210.9c-0.1-0.2-0.1-0.3-0.2-0.5c-0.1-0.2-0.1-0.3-0.2-0.5c-2.5-5.9-8-10.1-14.6-10.9
				c-0.7-0.1-1.4-0.1-2.1-0.1c-2.8,0-5.5,0.7-8,1.8c0,0-0.1,0-0.1,0.1h-0.1c-1.3,0.7-2.7,1.5-3.7,2.6l-0.1,0.1l-0.1,0.1
				c-0.6,0.5-1,0.9-1.5,1.5c-1.8,2-3,4.5-3.8,7.1c0,0.2-0.1,0.3-0.1,0.5s-0.1,0.3-0.1,0.5c-0.3,1.2-0.4,2.5-0.4,3.7
				c0,2.4,0.5,4.7,1.3,6.7c1.7,4.8,5.7,11.5,14.7,18.7c0.6,0.5,1.3,0.7,2.1,0.7s1.4-0.2,2.1-0.7c14.5-11.6,16-21.6,15.9-25.4l0,0
				C619.5,214.8,619.1,212.8,618.4,210.9L618.4,210.9z M619.2,216.9c0,3.7-1.4,13.7-15.8,25.2c-0.5,0.5-1.2,0.7-1.9,0.7
				s-1.3-0.2-1.9-0.7c-7.5-6-12.4-12.1-14.6-18.6l0,0l0,0c-0.9-2.2-1.3-4.4-1.3-6.7c0-1.3,0.1-2.6,0.5-3.8c0-0.2,0.1-0.3,0.1-0.5
				s0.1-0.3,0.1-0.5c0.8-2.7,2.1-5,3.9-7c0.4-0.4,0.8-0.8,1.1-1.1l0.1-0.1l0.1-0.1c1.1-1,2.4-1.9,3.8-2.7h0.1h0.1
				c2.4-1.1,5-1.8,7.9-1.8c0.7,0,1.3,0,1.9,0.1c6.5,0.7,11.9,4.8,14.4,10.6c0.1,0.2,0.1,0.3,0.2,0.5c0.1,0.2,0.1,0.3,0.2,0.5
				C618.8,212.7,619.2,214.8,619.2,216.9L619.2,216.9L619.2,216.9z"/>
		</g>
		<g>
			<circle class="st8" cx="601.4" cy="217.3" r="13.6"/>
			<path class="st7" d="M613.5,210.9c-0.1-0.2-0.2-0.3-0.2-0.5c-0.1-0.2-0.2-0.3-0.3-0.5c-2.4-3.9-6.7-6.4-11.7-6.4
				c-1.3,0-2.7,0.2-3.8,0.6l0,0c-0.5,0.2-1,0.3-1.5,0.6l0,0c-0.8,0.3-1.5,0.7-2.2,1.1c0,0-0.1,0-0.1,0.1c0,0-0.1,0-0.1,0.1
				c-1.8,1.2-3.3,2.9-4.4,4.8c0,0.1-0.1,0.2-0.1,0.2l-0.1,0.2c0,0.1-0.1,0.2-0.1,0.2c-0.1,0.2-0.2,0.3-0.2,0.5
				c-0.1,0.2-0.1,0.3-0.2,0.5c-0.6,1.5-0.9,3.1-0.9,4.7c0,1.8,0.4,3.6,1,5.2c0,0.1,0.1,0.2,0.1,0.2l0,0c0,0.1,0.1,0.2,0.1,0.2
				c0.5,0.9,0.9,1.7,1.5,2.6l0.1,0.1c0,0,0,0.1,0.1,0.1c2.5,3.2,6.4,5.2,10.8,5.2c7.6,0,13.7-6.2,13.7-13.7
				C615.1,215,614.6,212.8,613.5,210.9L613.5,210.9z M601.4,230.8c-4.2,0-8-2-10.4-5l-0.1-0.1l-0.1-0.1c-0.8-0.9-1.4-2.1-1.9-3.2
				c0-0.1-0.1-0.2-0.1-0.3s-0.1-0.2-0.1-0.3c-0.5-1.4-0.8-2.8-0.8-4.5c0-1.7,0.3-3.3,0.9-4.8c0-0.1,0.1-0.3,0.2-0.4l0,0V212
				c0-0.1,0-0.1,0.1-0.2l0,0c0-0.1,0.1-0.2,0.1-0.3l0,0c1-2.1,2.6-3.9,4.4-5.2l0.1-0.1c0,0,0.1,0,0.1-0.1c2.2-1.4,4.7-2.3,7.5-2.3
				c4.7,0,8.9,2.5,11.3,6.1c0.1,0.2,0.2,0.3,0.3,0.5s0.2,0.3,0.3,0.5c1,1.9,1.6,4.1,1.6,6.4C614.8,224.7,608.8,230.7,601.4,230.8
				L601.4,230.8z"/>
		</g>
		<g>
			<path class="st7" d="M593.3,219.9h1.8c0.4,0,0.7,0.3,0.7,0.7v2.7h-3.2v-2.7C592.6,220.3,593,219.9,593.3,219.9z"/>
			<path class="st7" d="M597.6,216.5c-0.4,0-0.7,0.4-0.7,0.8v6.2h3.2v-6.2c0-0.4-0.3-0.8-0.7-0.8H597.6L597.6,216.5z"/>
			<path class="st7" d="M602,213.1c-0.4,0-0.7,0.4-0.7,0.8v9.6h3.2v-9.6c0-0.4-0.3-0.8-0.7-0.8H602L602,213.1z"/>
			<path class="st7" d="M606.3,209.6c-0.4,0-0.7,0.4-0.7,0.8v13.1h3.2v-13.1c0-0.4-0.3-0.8-0.7-0.8H606.3L606.3,209.6z"/>
		</g>
	</g>
</g>
<g>
	<g>
		<path class="st7" d="M162.2,294.9c0,0,17.7,5.6,18.5,7.1c0.8,1.5,0,4.8,0,4.8h-38.8l1.2-9.9L162.2,294.9L162.2,294.9z"/>
		<g>
			<path class="st8" d="M78.6,150.8c8.2,13.4,35.1,12.9,39.5,9.2c0.2-0.2,0.4-0.5,0.7-0.9c2.5-4.9,8.4-25.9,14.3-48.2
				c7.7-29.4,15.4-61,15.4-61s0.3-8.1-10.4-8.9c-1.1-0.1-2.5-0.2-4.2-0.3c-14.7-1.2-48.8-3.7-53.4,5.6c-2.6,5.4-3.6,13.4-3.2,22.1
				c0.4,8.1,2.1,16.9,5,24.7C88.4,109.1,70.4,137.4,78.6,150.8L78.6,150.8z"/>
			<path class="st6" d="M138.1,40.6c-1.1-0.1-2.5-0.2-4.1-0.3c0,0-0.1,0-0.2,0c-0.1,0-0.2,0-0.2,0c-0.1,0-0.2,0-0.3,0
				c-2.9-0.3-6-0.4-9.1-0.7c-1-0.1-2.1-0.2-3.1-0.2s-2.1-0.1-3.1-0.2c-2.1-0.1-4.2-0.2-6.3-0.2c-3.6-0.1-7.3,0-10.7,0.2
				c-1.1,0-2.1,0.2-3.1,0.2c-0.2,0-0.3,0-0.4,0c-8.7,0.9-15.3,2.9-17.1,6.7c-2.1,4.4-3.3,10.5-3.3,17.7c0,0.8,0,1.7,0,2.7
				c0,0.6,0,1.3,0.1,2c0,0.4,0,0.8,0.1,1.2c0,0.2,0,0.3,0,0.4c0,0.6,0.1,1.3,0.2,1.9c0,0.2,0,0.4,0,0.6c0.8,7.1,2.4,14.3,4.7,20.7
				c0.5,1.4,0.8,2.8,1,4.2c0,0.1,0,0.2,0,0.3s0,0.2,0,0.3c0.5,4.8-0.3,10.1-1.5,15.6c-0.6,2.7-1.3,5.4-2,8.1c-1,4.1-2,8-2.7,11.8
				c0,0.1,0,0.2,0,0.3c0,0.1,0,0.2-0.1,0.3c-1.2,6.5-1.2,12.5,1.5,16.9c4.6,7.5,14.5,10.1,19.9,10.9c2.3,0.4,4.6,0.6,6.8,0.7
				c0.3,0,0.6,0,0.8,0c0.2,0,0.4,0,0.6,0c0.8,0,1.7,0,2.5-0.1c1.3-0.1,2.5-0.2,3.5-0.4h0.1c0.1,0,0.2,0,0.2,0c0.1,0,0.2,0,0.3,0
				c0.1,0,0.2,0,0.3-0.1c0.3-0.1,0.6-0.2,0.9-0.2c1.8-0.4,3.1-0.9,3.9-1.5c0.2-0.2,0.4-0.5,0.8-1.1c0.1-0.2,0.2-0.3,0.2-0.4
				c0.1-0.2,0.2-0.3,0.2-0.4c0.4-0.8,0.8-2,1.3-3.2c1.2-3.2,2.6-8.1,4.5-14.3c0-0.1,0.1-0.2,0.1-0.3c0-0.1,0.1-0.2,0.1-0.3
				c0.2-0.4,0.3-0.8,0.3-1.2c0-0.2,0.1-0.4,0.2-0.6c0-0.2,0.1-0.4,0.2-0.6c2-6.8,4.2-15,6.8-24.7c0.1-0.3,0.2-0.8,0.3-1.1l0,0
				c0.1-0.3,0.2-0.8,0.3-1.1c0,0,0-0.1,0-0.2c3.8-14.3,7.6-29.4,10.4-40.9c0-0.1,0-0.2,0-0.3c0-0.1,0-0.2,0.1-0.2
				c0.9-3.6,1.7-6.8,2.4-9.6c1.5-6.1,2.5-9.9,2.5-10v-0.1C148.8,49.7,149,41.4,138.1,40.6L138.1,40.6z M143.3,69.7
				c0,0.1,0,0.2-0.1,0.3c-2.7,10.9-6.3,24.9-9.8,38.4c-0.1,0.4-0.2,0.8-0.3,1.2l0,0c-0.1,0.4-0.2,0.8-0.3,1.1c0,0,0,0,0,0.1
				c-2.7,10.3-5,18.9-7,26c-0.1,0.2-0.2,0.4-0.2,0.6s-0.1,0.4-0.2,0.6c-0.3,0.8-0.4,1.7-0.7,2.5c0,0.1-0.1,0.2-0.1,0.3
				c0,0.1-0.1,0.2-0.1,0.3c-1.8,6.3-3.3,11-4.4,14.2c-0.3,0.9-0.7,1.8-0.9,2.5c-0.1,0.2-0.1,0.3-0.2,0.4c-0.1,0.2-0.2,0.3-0.2,0.4
				c-0.1,0.2-0.2,0.4-0.3,0.5c-0.3,0.6-0.5,0.8-0.6,0.8c-0.8,0.7-2.3,1.2-4.3,1.5c-0.1,0-0.2,0-0.3,0.1c-0.1,0-0.2,0-0.3,0.1
				c-1.3,0.2-2.7,0.3-4.3,0.4h-0.2c-0.8,0-1.6,0-2.5,0c-0.2,0-0.3,0-0.4,0H105c-2.1-0.1-4.4-0.3-6.7-0.6c-5.4-0.8-15-3.4-19.5-10.7
				c-2.6-4.2-2.5-9.9-1.4-16.3c0-0.1,0-0.2,0.1-0.3c0-0.1,0-0.2,0-0.3c0.7-3.7,1.7-7.7,2.7-11.9c0.7-2.8,1.4-5.6,2-8.3
				c1.3-5.6,2-11,1.5-15.8c0-0.1,0-0.2,0-0.3s0-0.2,0-0.3c-0.2-1.5-0.5-2.9-1-4.2c-2.4-6.5-4.1-13.9-4.8-21.2
				c-0.1-0.6-0.1-1.2-0.2-1.8c0-0.4-0.1-0.8-0.1-1.2l0,0c0-0.2,0-0.3,0-0.3c0-0.3,0-0.6,0-0.8c0-0.1,0-0.2,0-0.3v-0.2
				c0-0.7,0-1.4,0-2c0-0.4,0-0.9,0-1.4c0.1-7,1.2-13,3.2-17.2c1.9-3.8,9-5.6,17.6-6.4l0,0C100,40,101.5,40,103,40l0,0
				c1.2,0,2.4-0.1,3.6-0.1c3.8-0.1,7.8,0,11.5,0.2c0.8,0,1.5,0.1,2.3,0.1s1.5,0.1,2.2,0.1c1.1,0.1,2.1,0.2,3.1,0.2
				c3.1,0.2,5.7,0.4,7.7,0.6c0.1,0,0.2,0,0.3,0s0.2,0,0.3,0h0.1c0.1,0,0.2,0,0.3,0c1.5,0.1,2.8,0.2,3.8,0.3
				c10.1,0.8,10.2,8,10.2,8.6c-0.1,0.4-1,4.2-2.5,10.3c-0.7,2.7-1.5,5.9-2.4,9.4C143.3,69.5,143.3,69.6,143.3,69.7L143.3,69.7z"/>
		</g>
		<g>
			<path class="st0" d="M77.3,69.1c0.1,0.2,0.1,0.8,0.1,0.8s4.1-26,14.5-21.1s14.9,51.7,14.9,51.7l-1.5,61.8l13.4-0.2l13.7-2.1
				l0.6-47.3l0.9-72c-14.7-1.2-48.8-3.8-53.4,5.8C78,51.8,76.9,60.2,77.3,69.1L77.3,69.1z"/>
			<path class="st6" d="M134,40.3c0,0-0.1,0-0.2,0c-0.1,0-0.2,0-0.2,0c-0.1,0-0.2,0-0.3,0c-2.9-0.3-6-0.5-9.1-0.7
				c-1-0.1-2.1-0.2-3.1-0.2s-2.1-0.1-3.1-0.2c-2.1-0.1-4.2-0.2-6.3-0.2c-3.6-0.1-7.3,0-10.7,0.2c-1.1,0-2.1,0.2-3.1,0.2
				c-0.2,0-0.3,0-0.4,0c-8.6,0.8-15.2,2.8-17.1,6.8c-2,4.3-3.2,10.4-3.3,17.6c0,0.8,0,1.7,0,2.7c0,0.8,0,1.7,0.1,2.6v0.1
				c0,0.1,0,0.2,0,0.3c0,0.2,0,0.3,0,0.4l0.2,1.9l0.1,0.8v-0.3l0.1-0.6l0.1-0.6l0.2-1.2c0,0,0,0,0-0.1c0.2-1.2,3-17.4,9.3-20.8
				c1.5-0.8,3.1-0.8,4.8,0c5.7,2.6,9.6,18.2,12,31.5c0.5,2.9,0.9,5.7,1.4,8.2c0,0.1,0,0.2,0.1,0.3c0,0.1,0,0.2,0,0.3
				c0.9,6.4,1.4,10.9,1.4,11.1v1.1l-0.8,26v0.8v0.8l-0.8,32.6v0.3l0,0v0.3l0,0h0.8h3.1l3.8-0.1h0.3h0.3l5.4-0.1l1.2-0.2h0.3h0.3
				l12.2-2v-0.8v-0.8v-3L133,140v-0.6l0.3-28.4v-1.3l0,0v-1.2l0.6-43.9v-0.3v-0.4l0.1-7.5l0.2-15.3v-0.6L134,40.3L134,40.3z
				 M133.6,47.1l-0.1,8.6l0,0l-0.1,7V63v0.4l-0.6,47.1v1.2l0,0v1.3l-0.3,26.1v0.3v0.3l-0.2,15.5v1.4v0.8v0.8v1.1l-11.8,1.9h-0.3H120
				l-1,0.2l-4.4,0.1h-0.8h-0.3h-0.3h-0.3l-4,0.1h-0.2h-2.5h-0.3l0,0l0.8-31.1v-0.8v-0.8l0.7-27.6V100c-0.1-0.6-0.5-4.9-1.4-10.9
				c0-0.1,0-0.2,0-0.3c0-0.1,0-0.2,0-0.3c-0.4-2.9-0.9-6.1-1.5-9.5C102,66,98.1,51,92.3,48.4c-0.9-0.4-1.8-0.6-2.7-0.6
				c-0.8,0-1.8,0.3-2.6,0.7c-5.3,2.8-8.1,13.9-9.2,18.9c0,0,0,0,0,0.1V67c0-0.7,0-1.4,0-2c0-0.4,0-0.9,0-1.4
				c0.2-7,1.3-12.9,3.2-17.1c1.9-3.9,9-5.8,17.6-6.4l0,0c1.5-0.2,3.1-0.2,4.6-0.3l0,0c1.2,0,2.4-0.1,3.6-0.1c3.8-0.1,7.8,0,11.5,0.2
				c0.8,0,1.5,0.1,2.3,0.1c0.8,0,1.5,0.1,2.2,0.1c1.1,0.1,2.1,0.2,3.1,0.2c3.1,0.2,5.7,0.4,7.7,0.6c0.1,0,0.2,0,0.3,0l-0.1,4.3v0.1
				v1.9L133.6,47.1L133.6,47.1z"/>
		</g>
		<path class="st10" d="M73.1,79.7c0.5-0.6,0.6-1.4,0.6-2c-0.5,0-0.8,0-0.9,0c-0.4-0.2-0.4-4.8-0.4-4.8c0.2-0.5,7.7-1.5,8.1-1.4
			c0.4,0.2,1.9,4.5,1.7,5.1c0,0.1-0.3,0.2-0.8,0.3c0.3,1.7,0.8,1.8,3.7,2.8c2.7,1,4,3.1,4.8,5.8c0.8,2.4,1.1,5.3,1.8,8.4
			c0.5,2.2,0.9,4.4,1.2,6.5c0.7,4.4,0.8,8.1,0.5,9.4c-0.9,3.5-18.2,4.8-19.7,3.9c-0.7-0.4-1.9-4.8-2.9-9.9c-1-5-2-10.9-2.2-14.5
			c0-0.5-0.1-1-0.1-1.4C68.4,82.5,71.1,81.9,73.1,79.7L73.1,79.7z"/>
		<g>
			<path class="st8" d="M92.4,92.6c0,0-13.4,9.5-25.1,7.6c0,0,0.1,34.5,12.8,34.3C103,134,92.4,92.6,92.4,92.6L92.4,92.6z"/>
			<path class="st6" d="M92.7,92.6l-0.1-0.4l-0.3,0.3c0,0-0.3,0.2-0.8,0.5c-1.3,0.8-4.2,2.5-7.8,4.2c-0.1,0-0.2,0.1-0.3,0.2
				c-0.1,0-0.2,0.1-0.3,0.1c-3.8,1.6-8.4,3-12.9,2.9c-0.9,0-2-0.1-2.9-0.3l-0.3-0.1v0.3c0,1,0.2,24.8,7.8,32.3
				c0.7,0.6,1.4,1.1,2,1.4c0.1,0.1,0.2,0.1,0.3,0.2c0.1,0,0.2,0.1,0.3,0.1c0.8,0.3,1.7,0.5,2.5,0.5h0.2c4.6-0.1,8.1-1.9,10.7-5.2
				C99.1,118.5,93,93.7,92.7,92.6L92.7,92.6z M80.1,134.2c-0.9,0-1.8-0.2-2.5-0.5c-0.1,0-0.2-0.1-0.3-0.2c-0.1,0-0.2-0.1-0.3-0.2
				c-0.6-0.3-1.2-0.8-1.7-1.3c-7-6.9-7.6-28.5-7.6-31.6c0.9,0.2,1.8,0.2,2.7,0.2c4.5,0.1,9.1-1.3,12.9-2.9c0.1,0,0.2-0.1,0.3-0.2
				c0.1,0,0.2-0.1,0.3-0.1c3.6-1.5,6.4-3.2,7.9-4.2c0.3-0.2,0.5-0.3,0.6-0.4c0.8,3.3,5.8,26-2,36.1C87.9,132.4,84.5,134,80.1,134.2
				L80.1,134.2z"/>
		</g>
		<path class="st7" d="M114,295.6c0,0-0.2,2.1,0.5,3.2c0.7,1.1,2.5,2,3.2,4.8s0.4,5.2,0.4,5.2s-13,1-17.1-0.1
			c-1.3-0.3-3.9-2.5-4-3.4c-0.1-0.8,1.1-11.5,1.1-11.5L114,295.6L114,295.6z"/>
		<g>
			<path class="st8" d="M116.2,142.9c0,0-8.1,52.8-15,89.4C94,270,90.9,296.6,90.9,296.6s10.8,0.9,18.6,0.2s9.6-0.9,9.6-0.9
				s9.8-48.2,15.7-71.1c6.3-23.9,9.2-42.6,9.2-42.6l15.9,42.5c0,0-2.6,8.5-9,27.4c-6.5,19.4-11.4,45.3-11.4,45.3l29.7-0.7
				c0,0,20-63.5,20.4-71.3c1-22.1-19-83-18.3-81.4C171.3,144.1,142.3,133.9,116.2,142.9L116.2,142.9z"/>
			<path class="st6" d="M144.2,181.7l-0.3-0.7l-0.1,0.8l-0.1,0.3c0,0,0,0.2-0.1,0.4c0.1,0,0.2,0,0.3,0c0-0.3,0.1-0.3,0.1-0.3
				l0.2,0.3c0.1,0,0.2,0,0.3,0L144.2,181.7z M144.2,181.7l-0.3-0.7l-0.1,0.8l-0.1,0.3c0,0,0,0.2-0.1,0.4c0.1,0,0.2,0,0.3,0
				c0-0.3,0.1-0.3,0.1-0.3l0.2,0.3c0.1,0,0.2,0,0.3,0L144.2,181.7z M181.1,176.5c-0.1-0.3-0.2-0.5-0.2-0.8c-0.1-0.3-0.2-0.5-0.2-0.8
				c-1.6-5.9-3.4-12.1-5.3-18.7c-1-3.3-2-6.8-3.1-10.3c-0.2-0.6-0.3-1-0.4-1.4h0.1l-0.3-0.9l-0.2,0.1c-1.9-0.6-19-6.1-38.2-4.6
				c-0.1,0-0.2,0-0.3,0s-0.2,0-0.3,0c-2,0.2-3.9,0.4-5.9,0.8c-0.1,0-0.2,0-0.3,0c-0.1,0-0.2,0-0.3,0.1c-0.2,0-0.4,0.1-0.6,0.1
				c-0.1,0-0.2,0-0.3,0.1l0,0c-0.1,0-0.2,0-0.3,0.1c-2.9,0.6-5.8,1.3-8.6,2.3l-0.2,0.1v0.2c0,0.1-0.3,2.4-0.9,6.2
				c0,0.2,0,0.3-0.1,0.5c0,0.2,0,0.3-0.1,0.5c-0.3,1.4-0.5,3.1-0.8,5c-0.3,2-0.7,4.1-1,6.4c0,0.1,0,0.2,0,0.3l0,0c0,0.1,0,0.2,0,0.3
				l0,0c0,0.1,0,0.2,0,0.3c-1.1,6.7-2.4,14.7-3.7,23.2c-0.1,0.3-0.1,0.6-0.2,0.8c0,0.3-0.1,0.6-0.2,0.8c-2.5,14.8-5.3,31.1-7.9,45
				c-1.6,8.7-3.1,16.7-4.2,24c-4.1,24.3-5.9,40.1-5.9,40.3v0.3h0.3c0.1,0,3,0.3,6.8,0.4c3.6,0.2,8.1,0.2,11.8-0.2
				c1.8-0.2,3.2-0.3,4.4-0.4c4.1-0.4,5.1-0.6,5.2-0.6h0.2v-0.2c0.1-0.3,3.8-19,8.1-38.6c2.5-11.8,5.3-23.9,7.6-32.5
				c5.3-20.4,8.3-37.2,9.1-41.5l15.5,41.4c-0.3,1-3.1,9.7-9,27.3c-0.7,2-1.4,4.1-2,6.2c-5.4,18.2-9.4,38.9-9.4,39.2l-0.1,0.3
				l3.6-0.1l25.9-0.6h0.7l0.1-0.2c0.4-1.4,6.1-19.4,11.4-37.2c4.6-15.4,8.9-30.7,9-34.4C190.3,216.4,187.3,199.4,181.1,176.5
				L181.1,176.5z M189.3,225.4c-0.2,3.6-4.4,18.8-9.1,34.3c-5.1,17.2-10.6,34.7-11.2,36.8h-1.9l0,0L143,297l-3.1,0.1
				c0.6-2.9,4.2-22.1,9.4-38.9c0.6-2,1.3-4.1,2-5.9c6.4-18.7,9-27.3,9-27.4v-0.1l-15.9-42.2l-0.3-0.8l-0.3-0.7l-0.1,0.8l-0.1,0.3
				c0,0,0,0.2-0.1,0.4c-0.5,3-3.5,20.4-9.2,42.1c-2.3,8.6-5,20.8-7.6,32.6c-4.1,18.5-7.6,36.1-8.1,38.3c-0.4,0.1-1.8,0.2-4.8,0.5
				c-1.2,0.2-2.7,0.3-4.5,0.4c-3.7,0.3-8.1,0.3-11.7,0.2c-3.1-0.1-5.7-0.3-6.5-0.4c0.3-2.3,2.1-17.6,5.9-40
				c1.2-7.3,2.6-15.3,4.2-23.9c2.7-13.9,5.5-30.3,8-45.2c0-0.3,0.1-0.6,0.2-0.8c0-0.3,0.1-0.6,0.2-0.8c1.4-8.5,2.7-16.4,3.7-23.1
				c0-0.1,0-0.2,0-0.3c0,0,0-0.1,0-0.2c0-0.1,0-0.1,0-0.2c0,0,0-0.1,0-0.2c0-0.1,0-0.2,0.1-0.3c0.3-2.3,0.7-4.4,0.9-6.4
				c0.3-1.5,0.4-2.9,0.7-4.1c0-0.2,0-0.3,0.1-0.5c0-0.2,0-0.3,0.1-0.5c0.6-3.7,0.9-6.2,1-6.8c2.7-0.9,5.3-1.6,8.1-2.1
				c0.1,0,0.2,0,0.3-0.1c0.1,0,0.2,0,0.3-0.1c0.3,0,0.6-0.1,0.9-0.2c0.1,0,0.2,0,0.3,0c0.1,0,0.2,0,0.3-0.1c2-0.3,3.8-0.6,5.7-0.8
				c0.1,0,0.2,0,0.3,0s0.2,0,0.3,0c19.3-1.5,36.3,4,38,4.6c0.1,0.3,0.3,0.8,0.6,1.8c1.1,3.5,2.1,6.8,3.1,10c2,6.6,3.8,12.9,5.4,18.8
				c0.1,0.3,0.2,0.5,0.2,0.8c0.1,0.3,0.2,0.5,0.2,0.8C186.7,199.6,189.7,216.4,189.3,225.4L189.3,225.4z M144.2,181.7l-0.3-0.7
				l-0.1,0.8l-0.1,0.3c0,0,0,0.2-0.1,0.4c0.1,0,0.2,0,0.3,0c0-0.3,0.1-0.3,0.1-0.3l0.2,0.3c0.1,0,0.2,0,0.3,0L144.2,181.7z"/>
		</g>
		<g>
			<g>
				<path class="st8" d="M162.9,36c0-5.2-2-10.4-3.1-15.4l-26.2,0.2c0.1,2.4,0.7,5.2,0.3,7.6c-1.5-0.3-3.1,0-4.3,1
					c-2.2,2-2.2,6-0.1,8.1c1,0.9,3.3,0.8,3.7,1.4c0.7,1.2,0.4,3.8,0.6,5.2c0,0-2,14-1.3,16.9s4.8,8.7,12.6,8.7c2.5,0,4.6-0.4,6.4-1
					c3.6-1.2,5.9-4.8,5.5-8.7l-1.3-10.4c0-0.2,2.1-1.8,2.5-2.1c0.8-0.9,1.7-2,2.3-3.1c1.3-2.1,2.1-4.4,2.3-6.9
					C162.8,37,162.9,36.5,162.9,36L162.9,36z"/>
				<path class="st6" d="M133.9,42.9v1.6c0-0.3,0.1-0.5,0.1-0.5C133.9,43.7,133.9,43.4,133.9,42.9L133.9,42.9z M133.9,42.9v1.6
					c0-0.3,0.1-0.5,0.1-0.5C133.9,43.7,133.9,43.4,133.9,42.9L133.9,42.9z M161.2,25.4L161.2,25.4c-0.4-1.7-0.8-3.3-1.2-4.8v-0.2
					l-26.4,0.2h-0.3v0.3c0,0.8,0.1,1.5,0.2,2.3c0.2,1.7,0.3,3.4,0.2,5c-0.7-0.1-1.3-0.1-1.9,0c-0.4,0.1-0.4,0.1,0,0
					c-0.9,0.2-1.7,0.5-2.4,1.1c-1.1,0.9-1.7,2.4-1.7,4c0,1.7,0.6,3.3,1.7,4.4c0.6,0.6,1.5,0.8,2.3,0.9c0.6,0.2,1.3,0.3,1.4,0.5
					c0.2,0.3,0.3,0.8,0.3,1.3c0,0.3,0,0.3,0,0c0,0.1,0,0.2,0,0.3l0,0c0,0.1,0,0.2,0,0.3l0,0c0,0.6,0,1.1,0,1.7c0,0.6,0,1.2,0.1,1.5
					c0,0.4-0.8,6.4-1.3,11.3c0,0.1,0,0.2,0,0.3c-0.1,1.2-0.2,2.4-0.2,3.3l0,0c0,0.9,0,1.6,0.2,2.1c0.2,0.7,0.5,1.6,1.1,2.5
					c0.1,0.2,0.2,0.3,0.3,0.4c0.1,0.2,0.2,0.3,0.3,0.4c1.7,2.4,4.8,4.9,9.2,5.4c0.1,0,0.2,0,0.3,0s0.2,0,0.3,0c0.4,0,0.8,0,1.2,0
					c2.2,0,4.4-0.3,6.4-1c3.7-1.2,6.2-5,5.7-9c0,0-0.2-1.1-0.3-2.6l0,0c0-0.4-0.1-0.8-0.2-1.2c0-0.1,0-0.2,0-0.3l0,0
					c-0.3-2.7-0.8-5.8-0.8-6.2c0.2-0.2,0.9-0.8,1.4-1.3c0.5-0.4,0.8-0.6,0.9-0.8c0.9-0.9,1.7-2,2.4-3.1c1.3-2.1,2.1-4.6,2.4-7
					c0.1-0.5,0.1-1.1,0.1-1.6C163.1,32.4,162.2,28.9,161.2,25.4L161.2,25.4z M162.6,36c0,0.5,0,1.1-0.1,1.5c-0.3,2.4-1,4.8-2.3,6.8
					c-0.7,1.1-1.4,2.1-2.3,3c-0.1,0.1-0.4,0.4-0.8,0.8c-1.5,1.2-1.7,1.4-1.6,1.5l0.8,6.4c0.2,1.1,0.3,2.5,0.5,4
					c0.4,3.8-1.8,7.4-5.3,8.5c-2,0.7-4.2,0.9-6.4,0.9c-0.4,0-0.8,0-1.1,0c-0.1,0-0.2,0-0.3,0s-0.2,0-0.3,0c-4.7-0.6-7.7-3.3-9.4-5.8
					c-0.2-0.2-0.2-0.3-0.3-0.4l0,0c-0.1-0.2-0.2-0.3-0.3-0.5c-0.3-0.7-0.6-1.4-0.7-1.8c-0.2-0.8-0.2-2.5,0-4.7l0,0
					c0-0.3,0-0.6,0.1-0.9c0,0,0-0.1,0-0.2c0.2-2.7,0.6-5.9,0.8-8.1l0,0c0.2-1.1,0.3-2,0.3-2.5v-0.1c0-0.3,0.1-0.5,0.1-0.5
					c0-0.3-0.1-0.7-0.1-1.1v-0.4c0-0.6,0-1.1,0-1.6c0-0.1,0-0.2,0-0.3l0,0c0-0.1,0-0.2,0-0.3l0,0c-0.1-0.6-0.2-1.2-0.4-1.5
					c-0.3-0.4-0.9-0.6-1.7-0.8c-0.8-0.2-1.5-0.3-2-0.8c-0.9-0.9-1.5-2.5-1.5-4.1c0-1.5,0.6-2.8,1.6-3.6c0.7-0.6,1.5-0.9,2.5-1
					c0.2,0,0.4,0,0.6,0c0.3,0,0.8,0,1.1,0.1h0.2v-0.2c0.3-1.7,0.1-3.5-0.1-5.3c-0.1-0.8-0.2-1.4-0.2-2.1l25.8-0.2
					c0.3,1.5,0.8,3.1,1.2,4.7c0,0,0,0,0,0.1c0.9,3.4,1.9,6.9,1.9,10.3L162.6,36L162.6,36z M133.9,42.9v1.6c0-0.3,0.1-0.5,0.1-0.5
					C133.9,43.7,133.9,43.4,133.9,42.9L133.9,42.9z"/>
			</g>
			<path d="M146.1,33.2c0.1-0.5,0.5-0.9,1.1-0.8c0.5,0.1,0.9,0.5,0.8,1.1c-0.1,0.5-0.5,0.9-1.1,0.8C146.4,34.2,146,33.8,146.1,33.2
				L146.1,33.2z"/>
			<path d="M156.3,33.3c0.1-0.5,0.5-0.9,1.1-0.8c0.5,0.1,0.9,0.5,0.8,1.1c0,0.6-0.5,0.9-1.1,0.8C156.7,34.4,156.3,33.9,156.3,33.3
				L156.3,33.3z"/>
			<path class="st9" d="M152.5,36.1c0.3,0.3,0.4,0.4,0.7,0.7c0.1,0.1,0.2,0.2,0.3,0.3l0.1,0.1l0,0l0,0c-0.2,0.4-0.7,0.8-1.1,1
				c-0.4,0.3,0,0.8,0.4,0.6c0.3-0.2,0.6-0.4,0.8-0.6c0.3-0.3,0.5-0.6,0.6-0.9c0.1-0.4-0.2-0.8-0.4-1c-0.3-0.3-0.6-0.6-0.8-0.8
				C152.8,35.1,152.2,35.6,152.5,36.1L152.5,36.1L152.5,36.1z"/>
			<path class="st9" d="M149.9,30.4c-1.4-0.6-3-0.8-4.3-0.2c-0.2,0.1-0.3,0.3-0.3,0.4c0,0.2,0.3,0.3,0.4,0.3
				c1.2-0.4,2.6-0.4,3.8,0.1c0.2,0.1,0.4,0,0.5-0.2C150.1,30.7,150,30.5,149.9,30.4L149.9,30.4z"/>
			<path class="st9" d="M155.4,31.2c0.9-0.8,2.3-0.8,3.2-0.1c0.2,0.1,0.4,0,0.5-0.2c0.1-0.2,0-0.4-0.2-0.5c-1.2-0.8-2.9-0.8-4,0.1
				c-0.2,0.2-0.3,0.3-0.2,0.5C155,31.2,155.2,31.3,155.4,31.2L155.4,31.2L155.4,31.2z"/>
			<path class="st9" d="M155.8,40.3c-1.9,1.4-4.7,1.4-6.4-0.3c-0.3-0.3-0.8,0.2-0.5,0.5c2,1.8,5.2,2,7.3,0.4
				C156.5,40.7,156.2,40,155.8,40.3L155.8,40.3L155.8,40.3z"/>
		</g>
		<path class="st5" d="M156.2,56c0,0-12,9.4-23.3-0.8c0,0-9.1,1.2-13.3,4.5c-4.2,3.3-6.2,95.3-6.2,95.3l64.6,1.3
			c0,0-0.4-75.6-13.3-93.3C164.8,63,163.1,57.8,156.2,56L156.2,56z"/>
		<g>
			<path class="st8" d="M131,154.1c-3-4.4-10.3-36.2-10.2-38c0.4-3.4-0.6-6.9,0.5-23.3l-19.9-4.6c0,0-0.8,22.1,1.1,29.8
				c1.2,5.2,7.7,23.5,13.4,33.5c3.6,6.4,4.2,10.6,5.7,15.3c1.9,5.6,5.7,12.6,7.6,12.5c1.6-0.1,1.1-2.1,1.1-2.1s1.3,2.3,2.7,1.8
				c1.4-0.5,0.5-2.8,0.5-2.8s1.3,2.1,2.8,1.7c1.4-0.4,0.6-3.1,0.6-3.1s1.5,2,2.7,0.6c1.3-1.5-3.3-7.2-5.1-11.2L131,154.1L131,154.1z
				"/>
			<path class="st6" d="M137.1,168.4c-0.9-1.5-1.9-3.1-2.5-4.5l-2-5.6l-0.3-0.8l-0.3-0.8l-0.4-1.4l-0.4-1.3v-0.1
				c-1.1-1.7-2.9-7.1-4.5-13.5c0-0.1-0.1-0.2-0.1-0.3s0-0.2-0.1-0.3c-0.2-0.8-0.4-1.4-0.6-2.1c0-0.2-0.1-0.4-0.2-0.6
				c0-0.2-0.1-0.4-0.2-0.6c-2.5-9.7-4.7-19.8-4.6-20.5c0.2-1.2,0.1-2.4,0-4.2c0-1.7-0.2-4.1-0.1-7.6c0-0.5,0-1,0-1.6
				c0-1.6,0.1-3.5,0.2-5.5c0.1-1.4,0.2-2.9,0.3-4.4v-0.3l-5.9-1.4l-10-2.3l-0.3-0.1l-0.3-0.1l-4-0.9v0.3c0,0.2-0.2,6.1-0.2,12.9
				c0.1,6.3,0.3,13.3,1.2,17c0.5,2,1.8,6.3,3.6,11.2c0.1,0.3,0.2,0.4,0.3,0.8l0,0c0.1,0.3,0.2,0.5,0.3,0.8c2,5.5,4.7,11.8,7.1,17
				c0.4,0.8,0.8,1.5,1.2,2.3c0.1,0.2,0.2,0.3,0.3,0.4c0.1,0.2,0.2,0.3,0.3,0.4c0.2,0.3,0.3,0.5,0.4,0.8c0.7,1.2,1.3,2.4,1.8,3.4
				c0.5,1.2,0.9,2.3,1.4,3.3c0.1,0.2,0.1,0.3,0.2,0.4s0.1,0.3,0.2,0.4c0.3,0.8,0.5,1.6,0.8,2.4c0,0.1,0,0.2,0.1,0.3
				c0,0.1,0,0.2,0.1,0.3c0.1,0.3,0.2,0.7,0.3,1c0.3,1.3,0.7,2.5,1.1,3.6c1.8,5.3,5.6,12.6,7.8,12.6h0.1c0.5,0,0.8-0.3,1.1-0.6
				c0.2-0.3,0.3-0.5,0.3-0.8c0.6,0.7,1.4,1.4,2.4,1c0.3-0.2,0.6-0.4,0.8-0.8c0.2-0.4,0.2-0.8,0.2-1.2c0.6,0.6,1.4,1.1,2.3,0.8
				c0.4-0.1,0.6-0.3,0.8-0.7c0.3-0.5,0.3-1.2,0.2-1.8c0.3,0.3,0.8,0.5,1.2,0.5s0.8-0.2,1.2-0.6C140.7,174.3,139,171.5,137.1,168.4
				L137.1,168.4z M139.3,175c-0.2,0.3-0.4,0.4-0.8,0.4c-0.6,0-1.3-0.7-1.5-0.9l-1-1.4l0.6,1.7c0.2,0.4,0.4,1.7,0.1,2.3
				c-0.1,0.2-0.3,0.3-0.4,0.4c-1.4,0.4-2.5-1.5-2.5-1.5l-0.5,0.3c0.2,0.3,0.4,1.4,0.1,2c-0.1,0.2-0.3,0.3-0.4,0.4
				c-1.2,0.4-2.3-1.7-2.3-1.7l-1.2-2.1l0.6,2.3c0.1,0.3,0.2,1-0.2,1.4c-0.2,0.2-0.4,0.3-0.7,0.3c-1.5,0.2-5.2-6-7.3-12.2
				c-0.4-1.2-0.8-2.4-1.1-3.6c-0.1-0.3-0.2-0.6-0.3-0.9c0-0.1,0-0.2-0.1-0.3c0-0.1,0-0.2-0.1-0.3c-0.3-0.9-0.6-2-0.9-3.1
				c0-0.2-0.1-0.3-0.2-0.4c0-0.2-0.1-0.3-0.2-0.4c-0.3-0.8-0.6-1.6-1-2.5c-0.5-1.2-1.1-2.4-1.9-3.7c-0.3-0.4-0.5-0.9-0.8-1.4
				c-0.1-0.2-0.2-0.3-0.3-0.4l0,0c-0.1-0.2-0.2-0.3-0.3-0.4c-0.4-0.8-0.8-1.7-1.3-2.6c-2.6-5.3-5.2-11.8-7.1-17.2
				c-0.1-0.3-0.2-0.5-0.3-0.8l0,0c-0.1-0.3-0.2-0.5-0.3-0.8c-1.5-4.3-2.7-7.9-3.1-9.7c-0.8-3.6-1.2-10.5-1.2-16.8
				c-0.1-5.9,0.1-11.2,0.2-12.6l3.5,0.8l0.3,0.1l0.3,0.1l9.8,2.3l5.3,1.2c-0.2,2-0.3,3.7-0.3,5.3c-0.1,1.4-0.1,2.6-0.2,3.8l0,0
				c0,0.2,0,0.3,0,0.5c-0.2,4.4,0,7.2,0,9.2c0.1,1.8,0.1,3,0,4.2c-0.2,1.3,2.2,12,4.8,21.8c0.1,0.2,0.1,0.4,0.2,0.6l0,0
				c0.1,0.2,0.1,0.4,0.2,0.6c0.1,0.3,0.2,0.8,0.3,1.1c0,0.1,0,0.2,0.1,0.3s0.1,0.2,0.1,0.3c1.8,6.4,3.5,12,4.7,13.7l0.4,1l1.1,3.1
				l0.3,0.8l0,0l0.3,0.8l1.4,4.1c0.6,1.4,1.6,3.1,2.5,4.6C138.3,171.3,139.9,174.2,139.3,175L139.3,175z"/>
		</g>
		<path class="st5" d="M132.9,55.2l-10.1,47.7l-26.3-2.3c2.7-7.9,5.4-15.9,8.7-23.7c1.7-4.2,3.2-9.2,6-13c2.6-3.6,6.5-5.2,10.8-6.2
			C122.8,57.7,132.7,55.8,132.9,55.2L132.9,55.2z"/>
		<g>
			<path class="st8" d="M231.3,57.7c-4.8,2.3-37.3,5-39.1,4.6c-3.3-0.8-6.9-0.4-23-3.8l-7.4,19c0,0,21.7,3.9,29.6,3.2
				c5.3-0.4,24.4-4.2,35.1-8.5c6.8-2.7,11.1-2.5,15.9-3.5c5.8-1,13.3-3.8,13.4-5.7c0.1-1.6-2-1.4-2-1.4s2.5-0.9,2.1-2.4
				c-0.3-1.4-2.7-0.9-2.7-0.9s2.3-0.9,2-2.5c-0.2-1.5-3-1-3-1s2.2-1.2,0.9-2.5c-1.4-1.5-7.6,2.2-11.8,3.4L231.3,57.7L231.3,57.7z"/>
			<path class="st6" d="M256.1,63.1c0-0.5-0.1-0.9-0.4-1.2c-0.2-0.2-0.5-0.3-0.8-0.4c0.8-0.4,1.6-1.2,1.4-2.2
				c-0.1-0.4-0.3-0.7-0.6-0.8c-0.3-0.2-0.8-0.3-1.2-0.3c0.6-0.5,1.3-1.2,1.1-2.2c-0.1-0.4-0.2-0.7-0.6-0.9c-0.4-0.3-1.2-0.4-1.7-0.4
				c0.3-0.3,0.6-0.7,0.7-1.2c0.1-0.5-0.1-0.8-0.4-1.3c-1-1.1-4,0.1-7.3,1.5c-1.6,0.7-3.3,1.4-4.8,1.8l-10.3,2h-0.1
				c-4.8,2.3-37.6,4.9-38.9,4.6c-1.1-0.3-2.2-0.4-3.8-0.6c-0.1,0-0.2,0-0.3,0c-3.1-0.3-8.5-0.9-18.8-3.2H169l-7.6,19.6l0.3,0.1
				c0.2,0,12.9,2.3,22.3,3.1c2.9,0.3,5.5,0.3,7.4,0.2c5.2-0.4,24.3-4.2,35.1-8.5c4.9-2,8.6-2.4,12-2.9c1.3-0.2,2.5-0.3,3.8-0.6
				C248,68.1,255.9,65.3,256.1,63.1L256.1,63.1z M238.5,69.1c-3.5,0.4-7.1,0.9-12.1,2.9c-10.8,4.2-29.9,8-35,8.4
				c-1.8,0.2-4.3,0.1-7.2-0.2c-8.6-0.7-19.9-2.6-22-3.1l7.2-18.5c10.3,2.2,15.5,2.8,18.7,3.1c0.1,0,0.2,0,0.3,0
				c1.6,0.2,2.7,0.3,3.8,0.6c2.1,0.6,34.4-2.3,39.3-4.6l10.3-2c1.5-0.4,3.2-1.2,4.8-1.9c2.7-1.1,5.8-2.4,6.6-1.7l0,0
				c0.2,0.3,0.3,0.5,0.3,0.8c-0.1,0.6-0.9,1.2-1.2,1.4l-1.5,0.8l1.7-0.3c0.4-0.1,1.7-0.2,2.3,0.3c0.2,0.2,0.3,0.3,0.3,0.5
				c0.2,1.4-1.9,2.2-1.9,2.2l0.2,0.6c0.3-0.1,1.4-0.2,2,0.2c0.2,0.2,0.3,0.3,0.3,0.5c0.3,1.2-2,2-2,2l-2.3,0.8l2.5-0.3
				c0.3,0,1,0,1.4,0.3c0.2,0.2,0.3,0.4,0.3,0.8c-0.1,1.5-6.8,4.2-13.1,5.4C241.1,68.7,239.8,68.9,238.5,69.1L238.5,69.1z"/>
		</g>
		<path class="st7" d="M129.2,20.5c0.6-2.3,2.2-4.3,4.3-5.3c0.1-0.1,0.3-0.1,0.3-0.2c1.5-2.9,3.6-4.6,7.9-4.8
			c5.8-0.3,12.4,1.6,15.4,0.8c1.7-0.8,3.4-2,3.7-4.1c0,0,1.4,3.4-0.1,6c1.5,0.6,2.9,2.5,3.6,3.8c0.9,1.9,0.8,4.1,0.2,5.9
			c-0.8,2.3-3.1,2.6-5.3,3.1c-2.3,0.5-4.7,0.8-7,0.9c-2.2,0.2-4.4,0.1-6.6-0.1c-2-0.2-4.3-0.3-6-1.5c0,0,0,0-0.1,0
			c-0.9,2.7-2.9,9.2-1.9,11.8c1.4,3.2-2.3,1.1-2.5-2.5c-0.1-2-2-4-3.1-6.4c-0.4,0-0.8-0.1-1.1-0.4C129.3,25.6,128.6,23,129.2,20.5
			L129.2,20.5z"/>
		<polygon class="st5" points="156.6,56 194.2,56.1 197.5,86.5 161.3,92.6 		"/>
		<path class="st7" d="M125.5,57.2c1.7,1,3.1,7,3.6,8.7c4.1,12.7,3.6,27.2-6.4,37.1l-2,1.7l-0.5-5.2c-0.1-0.6,0.9-1.9,1.1-2.3
			c1-2.2,1.9-4.5,2.5-6.8c3.5-11.4-0.4-21.2-3.5-32.1C120.5,58.3,121.5,54.9,125.5,57.2L125.5,57.2z"/>
		<path class="st7" d="M161.8,53.5c1.8,0.3,4.8,5,5.8,6.3c7.4,9.4,11.8,21.8,6.7,33.3l-0.4,0.8c-0.2-0.9-0.3-1.9-0.4-2.8
			c-0.4-2-0.9-4.1-1.4-6.1c-1.1-4.5-1.5-9-3.5-13.2c-2-4.5-5.1-8.5-8.1-12.5c-0.8-1.1-1.7-2.2-2.5-3.3
			C157.9,56,157.8,52.9,161.8,53.5L161.8,53.5z"/>
	</g>
	<g>
		<g>
			<path class="st10" d="M240.1,60c-0.6,0-1.3-0.2-1.8-0.6c-6.7-5.3-11.1-10.9-13.1-16.6c-0.8-2-1.2-4-1.2-6c0-8.7,7.1-15.9,16-15.9
				s16,7,16,15.8l0,0c0,3.4-1.3,12.3-14.2,22.7C241.3,59.7,240.7,60,240.1,60L240.1,60L240.1,60z"/>
			<path class="st7" d="M256.1,35.9c0-0.4,0-0.8-0.1-1.1c0-0.3-0.1-0.7-0.2-0.9l0,0c-0.1-0.4-0.2-0.8-0.3-1.1c-1.8-7-8.1-12-15.6-12
				s-14.4,5.6-15.9,13c-0.1,0.4-0.2,0.8-0.2,1.2c-0.1,0.4-0.1,0.8-0.1,1.3c0,0.2,0,0.4,0,0.6c0,0.1,0,0.1,0,0.2c0,0.3,0,0.6,0,0.9
				c0.1,1.8,0.5,3.5,1.2,5c1.5,4.3,5.1,10.3,13.1,16.7c0.5,0.4,1.2,0.6,1.9,0.6c0.7,0,1.3-0.2,1.9-0.6
				c12.9-10.3,14.3-19.2,14.3-22.7v-0.1C256.2,36.4,256.2,36.1,256.1,35.9L256.1,35.9z M240.1,59.8c-0.6,0-1.2-0.2-1.7-0.6
				c-6.7-5.3-11-10.9-13.1-16.6l0,0l0,0c-0.6-1.5-1-3.2-1.2-4.9c0-0.3,0-0.6,0-0.9v-0.2c0-0.2,0-0.3,0-0.5c0-0.5,0-0.9,0.1-1.4
				c0-0.4,0.1-0.8,0.2-1.2c1.4-7.2,7.9-12.7,15.6-12.7c7.7,0,13.7,5,15.4,11.8c0.1,0.3,0.2,0.8,0.3,1.1c0,0.3,0,0.3,0,0
				c0.1,0.3,0.1,0.6,0.2,0.8c0.1,0.4,0.1,0.8,0.1,1.2c0,0.3,0,0.5,0,0.8v0.1c0,3.4-1.4,12.3-14.2,22.4
				C241.2,59.6,240.7,59.8,240.1,59.8L240.1,59.8z"/>
		</g>
		<g>
			
				<ellipse transform="matrix(0.6423 -0.7664 0.7664 0.6423 57.4636 197.2425)" class="st8" cx="240.1" cy="37.1" rx="12.1" ry="12.1"/>
			<path class="st7" d="M252.3,36.2c0-0.8-0.2-1.4-0.3-2.1c-0.1-0.4-0.2-0.8-0.3-1.1c-1.7-4.8-6.2-8.2-11.5-8.2s-10.3,3.7-11.8,8.9
				c-0.1,0.4-0.2,0.8-0.3,1.1c0,0.1,0,0.2,0,0.3c-0.1,0.6-0.2,1.2-0.2,1.9v0.2c0,0.3,0,0.5,0,0.8c0.4,6.4,5.8,11.5,12.2,11.5
				c6.5,0,12.2-5.4,12.3-12.2l0,0C252.3,36.8,252.3,36.5,252.3,36.2L252.3,36.2z M240.1,49c-6.4,0-11.5-5-12-11.3c0-0.3,0-0.5,0-0.8
				v-0.2c0-0.6,0.1-1.2,0.2-1.7c0-0.1,0-0.2,0.1-0.3c0.1-0.4,0.2-0.8,0.3-1.1c1.4-5,6-8.7,11.5-8.7c5.4,0,9.7,3.3,11.3,8
				c0.2,0.3,0.3,0.8,0.3,1.1c0.2,0.6,0.3,1.3,0.3,2v0.1c0,0.3,0,0.6,0,0.8v0.1C251.9,43.8,246.6,49,240.1,49L240.1,49z"/>
		</g>
		<g>
			<path class="st7" d="M240.1,31.3c0.8,0,1.7,0.1,2.5,0.3c0.6,0.2,1.2,0.3,1.8,0.6c0.9,0.4,1.9,0.9,2.6,1.6c0.5,0.4,1,0.9,1.4,1.5
				c0.4,0.7,0.2,1.7-0.8,2c-0.5,0.2-1.1,0-1.4-0.5c-0.7-0.8-1.5-1.5-2.5-2c-0.4-0.2-0.8-0.4-1.4-0.5c-0.6-0.2-1.2-0.3-1.8-0.3
				c-0.3,0-0.7,0-1.1,0c-0.4,0-0.9,0.1-1.4,0.2c-0.9,0.2-1.8,0.6-2.6,1.1c-0.7,0.4-1.3,0.9-1.7,1.5c-0.2,0.2-0.3,0.4-0.6,0.5
				c-0.5,0.3-1.2,0.2-1.5-0.3c-0.2-0.3-0.3-0.6-0.3-0.9c0-0.3,0.1-0.4,0.2-0.6c0.3-0.5,0.8-0.9,1.3-1.4c0.4-0.4,0.9-0.8,1.4-1.1
				c1-0.6,2.1-1.1,3.2-1.4C238.4,31.4,239.3,31.3,240.1,31.3L240.1,31.3z"/>
			<path class="st7" d="M240.1,35.9c0.9,0,1.8,0.3,2.6,0.6c0.8,0.3,1.5,0.8,2.1,1.4c0.8,0.6,0.6,1.9-0.3,2.2
				c-0.4,0.2-0.8,0.1-1.2-0.2c-0.2-0.2-0.4-0.3-0.6-0.4c-0.6-0.5-1.4-0.8-2.1-0.9c-0.6-0.1-1.2,0-1.8,0.2c-0.8,0.3-1.4,0.6-2,1.2
				c-0.2,0.2-0.4,0.3-0.7,0.4c-0.3,0.1-0.6,0-0.8-0.2c-0.4-0.3-0.8-0.8-0.6-1.4c0.1-0.3,0.3-0.5,0.4-0.8c0.8-0.8,1.7-1.3,2.7-1.6
				C238.6,36.1,239.4,35.9,240.1,35.9L240.1,35.9z"/>
			<path class="st7" d="M237.8,42.5c0-0.8,0.3-1.4,0.9-1.8c0.4-0.3,0.9-0.5,1.5-0.4c0.7,0,1.2,0.3,1.6,0.8c0.4,0.4,0.5,0.9,0.5,1.5
				c-0.1,0.9-0.8,1.7-1.7,2c-1.3,0.3-2.5-0.5-2.8-1.8C237.8,42.8,237.8,42.7,237.8,42.5z"/>
		</g>
	</g>
</g>
</svg>
