<svg width="30" height="36" viewBox="0 0 30 36" fill="none" xmlns="http://www.w3.org/2000/svg">
<path d="M12.3633 5.8125H17.6367L18.3398 9.35742C19.1797 9.68945 19.9902 10.168 20.7715 10.793L23.4961 9.85547L24.2285 9.62109L26.8652 14.1914L24.1992 16.5352L24.2285 16.7988C24.3262 17.3262 24.375 17.7266 24.375 18C24.375 18.2734 24.3262 18.6738 24.2285 19.2012L24.1992 19.4648L26.8652 21.8086L24.2285 26.3789L23.4961 26.1445L20.7715 25.207C19.9902 25.832 19.1797 26.3105 18.3398 26.6426L17.6367 30.1875H12.3633L11.6602 26.6426C10.8203 26.3105 10.0098 25.832 9.22852 25.207L6.50391 26.1445L5.77148 26.3789L3.13477 21.8086L5.80078 19.4648L5.77148 19.2012C5.67383 18.6738 5.625 18.2734 5.625 18C5.625 17.7266 5.67383 17.3262 5.77148 16.7988L5.80078 16.5352L3.13477 14.1914L5.77148 9.62109L6.50391 9.85547L9.22852 10.793C10.0098 10.168 10.8203 9.68945 11.6602 9.35742L12.2168 6.57422L12.3633 5.8125ZM13.8867 7.6875L13.418 10.1191L13.3008 10.6758L12.7734 10.8516C11.6992 11.1836 10.752 11.7305 9.93164 12.4922L9.52148 12.873L6.62109 11.877L5.50781 13.7812L7.38281 15.4512L7.82227 15.8027L7.67578 16.3594C7.55859 16.8867 7.5 17.4336 7.5 18C7.5 18.5664 7.55859 19.1133 7.67578 19.6406L7.82227 20.1973L7.38281 20.5488L5.50781 22.2188L6.62109 24.123L9.52148 23.127L9.93164 23.5078C10.752 24.2695 11.6992 24.8164 12.7734 25.1484L13.3008 25.3242L13.8867 28.3125H16.1133L16.6992 25.3242L17.2266 25.1484C18.3008 24.8164 19.248 24.2695 20.0684 23.5078L20.4785 23.127L23.3789 24.123L24.4922 22.2188L22.207 20.1973L22.3242 19.6406C22.4414 19.1133 22.5 18.5664 22.5 18C22.5 17.4336 22.4414 16.8867 22.3242 16.3594L22.1777 15.8027L22.6172 15.4512L24.4922 13.7812L23.3789 11.877L20.4785 12.873L20.0684 12.4922C19.248 11.7305 18.3008 11.1836 17.2266 10.8516L16.6992 10.6758L16.1133 7.6875H13.8867ZM15 13.3125C15.8398 13.3125 16.6211 13.5273 17.3438 13.957C18.0664 14.3672 18.6328 14.9336 19.043 15.6562C19.4727 16.3789 19.6875 17.1602 19.6875 18C19.6875 18.8398 19.4727 19.6211 19.043 20.3438C18.6328 21.0664 18.0664 21.6426 17.3438 22.0723C16.6211 22.4824 15.8398 22.6875 15 22.6875C14.1602 22.6875 13.3789 22.4824 12.6562 22.0723C11.9336 21.6426 11.3574 21.0664 10.9277 20.3438C10.5176 19.6211 10.3125 18.8398 10.3125 18C10.3125 17.1602 10.5176 16.3789 10.9277 15.6562C11.3574 14.9336 11.9336 14.3672 12.6562 13.957C13.3789 13.5273 14.1602 13.3125 15 13.3125ZM15 15.1875C14.2188 15.1875 13.5547 15.4609 13.0078 16.0078C12.4609 16.5547 12.1875 17.2188 12.1875 18C12.1875 18.7812 12.4609 19.4453 13.0078 19.9922C13.5547 20.5391 14.2188 20.8125 15 20.8125C15.7812 20.8125 16.4453 20.5391 16.9922 19.9922C17.5391 19.4453 17.8125 18.7812 17.8125 18C17.8125 17.2188 17.5391 16.5547 16.9922 16.0078C16.4453 15.4609 15.7812 15.1875 15 15.1875Z" fill="black"/>
</svg>
