<svg width="375" height="812" viewBox="0 0 375 812" fill="none" xmlns="http://www.w3.org/2000/svg">
<g clip-path="url(#clip0_1960_3502)">
<rect width="375" height="812" fill="white"/>
<path fill-rule="evenodd" clip-rule="evenodd" d="M222.5 313C222.5 332.33 206.83 348 187.5 348C168.17 348 152.5 332.33 152.5 313C152.5 293.67 168.17 278 187.5 278C206.83 278 222.5 293.67 222.5 313ZM227.5 313C227.5 335.091 209.591 353 187.5 353C165.409 353 147.5 335.091 147.5 313C147.5 290.909 165.409 273 187.5 273C209.591 273 227.5 290.909 227.5 313ZM198.693 301.789L181.76 318.722L176.307 313.269C175.781 312.743 175.111 312.48 174.298 312.48C173.485 312.48 172.815 312.743 172.289 313.269C171.763 313.795 171.5 314.465 171.5 315.278C171.5 316.091 171.763 316.761 172.289 317.287L179.751 324.749C180.325 325.323 180.995 325.61 181.76 325.61C182.525 325.61 183.195 325.323 183.769 324.749L202.711 305.807C203.237 305.281 203.5 304.611 203.5 303.798C203.5 302.985 203.237 302.315 202.711 301.789C202.185 301.263 201.515 301 200.702 301C199.889 301 199.219 301.263 198.693 301.789Z" fill="#1DD86B"/>
<path d="M125.18 395.82H131.72C133.78 395.82 134.1 395.3 134.4 392.4C135.02 392.78 136.1 393.18 136.8 393.32C136.34 397.08 135.46 398.18 131.82 398.18H125.2C121.34 398.18 120.16 397.42 120.16 394.4V385.08H122.62V387.8H131.7V383.54H119.36V381.18H134.18V391.08H131.7V390.14H122.62V394.4C122.62 395.64 122.98 395.82 125.18 395.82ZM156.36 394.08L154.7 395.76C153.76 394.72 151.94 393.1 150.28 391.7C149.46 393.14 148.04 394.58 145.66 395.74C145.34 395.26 144.58 394.5 144.04 394.08C146.8 392.9 148.06 391.38 148.6 389.96H144.32V387.8H149.02C149.04 387.6 149.04 387.42 149.04 387.24V385.62H144.86V383.46H147.16C146.76 382.68 146.16 381.62 145.68 380.8L147.7 380.04C148.28 380.96 149.1 382.24 149.5 383L148.4 383.46H151.08C151.64 382.42 152.22 381.06 152.54 380.06L154.94 380.74C154.44 381.68 153.92 382.62 153.42 383.46H155.78V385.62H151.4V387.26C151.4 387.44 151.4 387.62 151.38 387.8H156.28V389.96H151.5C153.2 391.34 155.26 393.02 156.36 394.08ZM143.14 383.08L141.28 384.36C140.78 383.5 139.72 382.12 138.88 381.12L140.66 380.08C141.56 381.02 142.6 382.28 143.14 383.08ZM142.72 389.48L143.72 389.9C143.52 391.46 143.18 392.84 142.76 394.02C143.94 396.08 146.16 396.34 149.44 396.36C151.58 396.36 154.84 396.24 157.1 396.02C156.76 396.5 156.46 397.56 156.36 398.22C154.28 398.34 151.74 398.4 149.4 398.4C145.74 398.4 143.44 398.02 141.9 395.96C141.24 397.18 140.42 398.12 139.52 398.8C139.22 398.32 138.42 397.52 137.98 397.22C139.66 396.06 140.8 394.08 141.4 391.38H140C139.52 391.38 138.94 391.52 138.76 391.68C138.64 391.2 138.2 390.18 138.02 389.76C138.32 389.68 138.66 389.52 139.04 389.12C139.4 388.76 140.2 387.66 140.94 386.6H138.38V384.7H142.42L142.66 384.6L144.1 385.26C143.36 386.34 142.1 388.18 141.06 389.54H142.36L142.72 389.48ZM172.98 390.04H175.66V398.72H172.98V397.64H159.24V390.06H161.92V395.28H166.12V389H160.3V381.74H162.82V386.7H166.12V380.06H168.76V386.7H172.2V381.74H174.84V389H168.76V395.28H172.98V390.04ZM188.7 391.32H193.14V389.2H188.7V391.32ZM181.86 391.32H186.2V389.2H181.86V391.32ZM186.2 385H181.86V387.02H186.2V385ZM193.14 385H188.7V387.02H193.14V385ZM188.7 382.72H195.62V394.56H193.14V393.6H188.7V398.72H186.2V393.6H181.86V394.66H179.48V382.72H186.2V380.04H188.7V382.72ZM205.36 383.32V385.2H198.28V383.32H201.32C201.14 382.56 200.72 381.52 200.38 380.7L202.38 380.12C202.78 380.96 203.24 382.08 203.46 382.78L201.88 383.32H205.36ZM204.8 388.78V390.58H198.8V388.78H204.8ZM202.76 393.48H200.82V395.78H202.76V393.48ZM204.82 391.6V397.64H200.82V398.44H198.8V391.6H204.82ZM198.82 387.86V386.06H204.82V387.86H198.82ZM208.48 394.18H213.66V393.22H208.54C208.52 393.54 208.5 393.86 208.48 394.18ZM213.66 390.74H208.54V391.68H213.66V390.74ZM215.86 389V396.58C215.86 397.58 215.68 398.1 214.98 398.4C214.32 398.7 213.38 398.74 212.12 398.72C212.04 398.16 211.76 397.36 211.5 396.84C212.24 396.86 213.08 396.86 213.32 396.86C213.58 396.86 213.66 396.78 213.66 396.56V395.72H208.24C208 396.88 207.54 398.02 206.78 398.9C206.44 398.48 205.56 397.66 205.1 397.4C206.28 396 206.4 394.12 206.4 392.56V389H215.86ZM212.2 386.48H216.82V388.18H205.46V386.48H209.9V385.6H206.26V384.02H209.9V383.22H205.76V381.52H209.9V380.06H212.2V381.52H216.56V383.22H212.2V384.02H216.16V385.6H212.2V386.48ZM223.92 381.04V382.78H218.8V381.04H223.92ZM223.26 393.08V393.98H231.92V393.08H223.26ZM223.26 390.88V391.74H231.92V390.88H223.26ZM223.26 388.68V389.54H231.92V388.68H223.26ZM234.34 395.38H231.42C233.26 396.06 235.22 396.86 236.4 397.44L234.26 398.72C233.12 398.06 231.04 397.08 229.06 396.36L230.28 395.38H224.64L226.38 396.18C224.74 397.22 222.16 398.22 220.14 398.78C219.74 398.32 218.9 397.44 218.38 397.04C220.3 396.68 222.44 396.08 223.84 395.38H220.96V387.26H234.34V395.38ZM230.88 383.4V383.62C231.96 384.68 234.08 385.18 236.78 385.32C236.3 385.78 235.74 386.64 235.46 387.22C233.22 386.94 231.48 386.3 230.22 385.2C229.46 386.08 227.8 386.86 224.44 387.24C224.28 386.86 223.96 386.36 223.64 385.94H218.34V384.12H224.38V385.34C228.2 384.94 228.7 384.04 228.7 383.3V383H227.5C227.08 383.66 226.6 384.26 226.1 384.72C225.72 384.36 224.84 383.78 224.34 383.5C225.4 382.62 226.22 381.3 226.68 379.94L228.76 380.4C228.66 380.7 228.54 381 228.42 381.28H234.1L234.46 381.18L236.08 381.68C235.56 382.78 234.88 384.04 234.24 384.84L232.4 384.16C232.62 383.84 232.88 383.42 233.1 383H230.88V383.4ZM251.88 383.56L250.66 385.34C250.04 384.56 248.66 383.48 247.56 382.74L248.7 381.14C249.82 381.8 251.24 382.82 251.88 383.56ZM246.64 387.76L247.76 386.06C248.92 386.68 250.4 387.64 251.12 388.36L249.92 390.26C249.26 389.52 247.8 388.46 246.64 387.76ZM244.84 381.2L246.84 381.62C246.32 383.22 245.74 385.1 245.24 386.26L243.72 385.84C244.14 384.58 244.62 382.6 244.84 381.2ZM240.98 385.88L239.2 386.34C239.16 385.1 238.76 383.18 238.28 381.72L239.94 381.3C240.48 382.76 240.9 384.64 240.98 385.88ZM243.52 390.26L244.28 389.72C244.68 390.26 246.18 392.76 246.48 393.38L244.84 395.16C244.56 394.28 244.02 392.92 243.52 391.82V398.74H241.32V391.6C240.86 393.6 240.12 395.7 239.08 396.86C238.88 396.02 238.36 394.82 238 394.02C238.84 393.02 239.64 391.18 239.94 389.66L241.32 390.14V388.9H238.3V386.68H241.32V380.06H243.52V386.68H246.48V388.9H243.52V390.26ZM257 392.88L254.6 393.32V398.72H252.36V393.72L246.78 394.72L246.42 392.5L252.36 391.44V380.04H254.6V391.04L256.64 390.66L257 392.88Z" fill="#464646"/>
<path d="M42.2622 421.152H36.2462C35.7502 421.984 35.1742 422.72 34.5822 423.296C34.3902 423.088 33.9422 422.72 33.6862 422.544C34.7742 421.6 35.7022 420.144 36.2302 418.64L37.3342 418.912C37.1742 419.312 36.9982 419.712 36.8062 420.112H42.7902L42.9822 420.064L43.7982 420.288C43.3822 421.2 42.9022 422.288 42.5022 422.928L41.4942 422.72C41.7182 422.304 42.0062 421.728 42.2622 421.152ZM40.6142 423.424L41.5742 422.976C42.3902 423.936 43.2222 425.264 43.5902 426.128L42.5662 426.672C42.2142 425.776 41.3982 424.416 40.6142 423.424ZM38.6142 430.048L37.6222 430.64C37.2222 429.872 36.2302 428.672 35.3662 427.824L36.2782 427.312C37.1582 428.128 38.1662 429.264 38.6142 430.048ZM36.2142 423.008L37.3022 423.312C36.7742 424.576 35.9422 425.84 35.1102 426.656C34.9022 426.464 34.4702 426.128 34.2142 425.984C35.0462 425.232 35.7822 424.112 36.2142 423.008ZM39.7182 421.744V427.632H38.5822V421.744H39.7182ZM30.6782 432.576L29.5582 432.064C30.1982 431.12 30.8222 429.664 31.1742 428.608L32.2462 429.056C31.8302 430.096 31.2702 431.6 30.6782 432.576ZM33.1742 418.576L34.2302 418.928C33.8462 419.712 33.3502 420.48 32.8222 421.216V427.696H31.6702V422.64C31.1742 423.2 30.6462 423.712 30.1342 424.144C29.9742 423.92 29.5902 423.44 29.3502 423.216C30.8222 422.112 32.2622 420.352 33.1742 418.576ZM35.3982 431.824H39.0782C39.9582 431.824 40.1022 431.584 40.1822 429.968C40.4542 430.176 40.9502 430.352 41.2862 430.416C41.1262 432.432 40.7422 432.928 39.1582 432.928H35.3502C33.4622 432.928 32.9662 432.592 32.9662 431.296V428.528H34.1502V431.28C34.1502 431.744 34.3422 431.824 35.3982 431.824ZM40.9982 428.736L42.0382 428.336C42.7902 429.472 43.5422 430.944 43.8142 431.92L42.6782 432.384C42.4542 431.408 41.7182 429.872 40.9982 428.736ZM50.4062 431.6H56.4862C58.2302 431.6 58.4862 431.072 58.7102 428.496C59.0302 428.72 59.5582 428.912 59.9102 428.976C59.6062 431.904 59.0782 432.768 56.4702 432.768H50.4862C47.9262 432.768 47.1262 432.32 47.1262 430.352V422.352H48.3262V424.976H56.6782V420.784H46.2782V419.616H57.8942V426.928H56.6782V426.144H48.3262V430.368C48.3262 431.376 48.6782 431.6 50.4062 431.6ZM69.8142 421.088L68.7582 421.536C68.4702 420.896 67.8622 419.824 67.3662 419.024L68.3582 418.656C68.8702 419.408 69.4942 420.448 69.8142 421.088ZM75.7342 430.256L74.9022 431.088C73.9902 430.16 72.2462 428.704 70.7422 427.52C70.1182 428.768 68.9342 430.048 66.7102 431.088C66.5502 430.848 66.1822 430.448 65.9102 430.24C68.7102 429.056 69.7022 427.504 70.0382 426.096H66.0702V424.992H70.2142C70.2302 424.752 70.2302 424.528 70.2302 424.304V422.688H66.5662V421.584H71.7022C72.2302 420.72 72.8062 419.504 73.1582 418.608L74.3422 418.992C73.8942 419.84 73.3662 420.816 72.8862 421.584H75.3662V422.688H71.3982V424.32C71.3982 424.544 71.3982 424.752 71.3822 424.992H75.7342V426.096H71.2222C71.1902 426.224 71.1582 426.368 71.1262 426.48C72.6942 427.696 74.6942 429.28 75.7342 430.256ZM64.9342 421.088L63.9902 421.712C63.6062 421.04 62.7902 419.92 62.1182 419.12L63.0302 418.624C63.7182 419.408 64.5182 420.416 64.9342 421.088ZM64.9182 426.208L65.4462 426.432C65.2382 427.744 64.9342 428.912 64.5342 429.888C65.5582 431.68 67.5742 431.936 70.6142 431.936C72.2942 431.936 74.6142 431.872 76.2302 431.728C76.0542 431.984 75.8942 432.512 75.8462 432.832C74.3422 432.928 72.3422 432.96 70.5982 432.96C67.3502 432.96 65.3342 432.64 64.0862 430.832C63.5422 431.872 62.8382 432.672 62.0702 433.248C61.9262 433.008 61.5262 432.592 61.2862 432.432C62.7262 431.44 63.7662 429.68 64.2622 427.216H62.7102C62.3102 427.216 61.8942 427.312 61.7822 427.44C61.7022 427.152 61.4622 426.608 61.3342 426.352C61.5742 426.288 61.8302 426.192 62.0862 425.904C62.4542 425.536 63.3822 424.256 64.0542 423.28H61.5422V422.304H64.7742L64.9662 422.224L65.7502 422.576C65.1102 423.52 63.9262 425.168 63.0462 426.24H64.7102L64.9182 426.208ZM89.7342 426.56H91.0142V433.2H89.7342V432.288H78.4702V426.56H79.7502V431.12H84.0702V425.552H79.1742V420.08H80.4062V424.384H84.0702V418.624H85.3502V424.384H89.1102V420.064H90.3902V425.552H85.3502V431.12H89.7342V426.56ZM97.9203 432V420.256H99.4083V425.184H104.88V420.256H106.352V432H104.88V426.464H99.4083V432H97.9203ZM111.593 425.44L111.017 427.232H114.569L114.009 425.44C113.577 424.112 113.209 422.832 112.825 421.472H112.761C112.393 422.848 112.009 424.112 111.593 425.44ZM108.009 432L111.993 420.256H113.641L117.625 432H116.057L114.937 428.416H110.649L109.513 432H108.009ZM123.444 432.208C120.5 432.208 118.436 429.856 118.436 426.096C118.436 422.336 120.5 420.048 123.444 420.048C126.388 420.048 128.452 422.336 128.452 426.096C128.452 429.856 126.388 432.208 123.444 432.208ZM123.444 430.912C125.54 430.912 126.932 429.024 126.932 426.096C126.932 423.152 125.54 421.344 123.444 421.344C121.332 421.344 119.956 423.152 119.956 426.096C119.956 429.024 121.332 430.912 123.444 430.912ZM132.527 432V427.44L129.007 420.256H130.591L132.095 423.584C132.479 424.448 132.831 425.264 133.247 426.144H133.311C133.727 425.264 134.127 424.448 134.479 423.584L135.999 420.256H137.535L134.015 427.44V432H132.527ZM143.112 432.208C140.728 432.208 138.904 430.928 138.904 427.152V420.256H140.392V427.2C140.392 430.032 141.592 430.912 143.112 430.912C144.68 430.912 145.912 430.032 145.912 427.2V420.256H147.336V427.152C147.336 430.928 145.512 432.208 143.112 432.208ZM150.483 432V420.256H152.019L156.291 427.664L157.539 430.08H157.619C157.539 428.896 157.427 427.584 157.427 426.368V420.256H158.835V432H157.315L153.043 424.592L151.779 422.176H151.715C151.779 423.36 151.891 424.608 151.891 425.84V432H150.483ZM165.608 432V420.256H169.288C171.672 420.256 173.384 421.12 173.384 423.568C173.384 425.392 172.328 426.48 170.728 426.864L173.736 432H172.056L169.208 427.024H167.096V432H165.608ZM167.096 425.824H169.064C170.904 425.824 171.912 425.088 171.912 423.568C171.912 422.016 170.904 421.472 169.064 421.472H167.096V425.824ZM178.984 432.208C176.68 432.208 174.824 430.528 174.824 427.664C174.824 424.848 176.728 423.088 178.744 423.088C180.952 423.088 182.2 424.688 182.2 427.168C182.2 427.488 182.168 427.792 182.136 428H176.28C176.376 429.856 177.512 431.04 179.16 431.04C180.008 431.04 180.696 430.784 181.336 430.352L181.864 431.312C181.096 431.808 180.168 432.208 178.984 432.208ZM176.264 426.944H180.92C180.92 425.2 180.12 424.256 178.76 424.256C177.528 424.256 176.44 425.248 176.264 426.944ZM184.339 432V423.312H185.539L185.667 424.56H185.715C186.547 423.744 187.443 423.088 188.627 423.088C190.451 423.088 191.283 424.272 191.283 426.496V432H189.827V426.688C189.827 425.056 189.331 424.368 188.179 424.368C187.283 424.368 186.675 424.816 185.795 425.696V432H184.339ZM196.856 432.208C195 432.208 194.376 431.04 194.376 429.312V424.496H193.08V423.392L194.44 423.312L194.616 420.864H195.832V423.312H198.184V424.496H195.832V429.344C195.832 430.416 196.168 431.024 197.176 431.024C197.48 431.024 197.88 430.912 198.168 430.8L198.456 431.888C197.96 432.048 197.384 432.208 196.856 432.208ZM213.634 428.8H207.01V429.888H213.634V428.8ZM207.01 431.824H213.634V430.736H207.01V431.824ZM205.842 433.2V427.952H214.834V433.152H213.634V432.672H207.01V433.2H205.842ZM212.546 426.32L211.746 426.032C212.034 425.504 212.45 424.656 212.626 424.112L213.634 424.432C213.282 425.12 212.882 425.84 212.546 426.32ZM206.898 424.448L207.746 424.176C208.162 424.736 208.562 425.472 208.706 425.984L207.794 426.32C207.666 425.808 207.298 425.04 206.898 424.448ZM205.938 424V426.384H209.714V424H205.938ZM214.53 426.384V424H210.722V426.384H214.53ZM204.914 427.2V423.168H215.602V427.2H204.914ZM208.258 421.52H212.434C211.666 421.04 210.946 420.496 210.338 419.92C209.73 420.512 209.026 421.056 208.258 421.52ZM210.162 418.56L211.202 418.944C211.122 419.04 211.058 419.152 210.978 419.248C212.482 420.704 215.25 422 217.746 422.576C217.49 422.8 217.17 423.216 216.994 423.504C215.698 423.136 214.322 422.592 213.074 421.888V422.384H207.522V421.936C206.306 422.624 204.946 423.168 203.602 423.584C203.474 423.36 203.138 422.896 202.93 422.672C205.826 421.904 208.658 420.496 210.162 418.56ZM230.082 421.856V420.192H222.514V421.856H230.082ZM231.314 419.232V422.816H221.33V419.232H231.314ZM221.842 428.544V429.696H230.722V428.544H221.842ZM221.842 426.576V427.696H230.722V426.576H221.842ZM221.842 424.608V425.728H230.722V424.608H221.842ZM231.938 430.576H223.714L224.786 431.264C223.506 432.048 221.442 432.816 219.81 433.232C219.602 432.992 219.218 432.592 218.93 432.352C220.594 431.968 222.658 431.232 223.65 430.576H220.658V423.728H231.938V430.576ZM227.554 431.376L228.578 430.608C230.226 431.088 232.354 431.872 233.602 432.384L232.578 433.248C231.378 432.688 229.234 431.872 227.554 431.376ZM246.05 421.088L245.058 421.664C244.786 420.976 244.098 419.904 243.442 419.12L244.37 418.624C245.01 419.376 245.73 420.416 246.05 421.088ZM238.994 420.608L238.034 421.104C237.89 420.544 237.426 419.728 236.994 419.104L237.89 418.672C238.354 419.264 238.818 420.08 238.994 420.608ZM239.426 428.736H237.01V431.28H239.426V428.736ZM240.53 427.792V432.208H237.01V432.992H235.922V427.792H240.53ZM235.618 426.608V425.648H240.578V426.608H235.618ZM235.858 423.44H240.562V424.4H235.858V423.44ZM235.042 422.144V421.152H240.93L240.914 422.144H235.042ZM245.746 431.424H249.538V432.544H241.058V431.424H244.578V427.28H241.618V426.176H244.578V422.832H241.346V421.696H249.234V422.832H245.746V426.176H248.866V427.28H245.746V431.424ZM260.578 425.344H263.01V420.768H260.578V425.344ZM257.074 425.344H259.458V420.768H257.074V425.344ZM253.682 425.344H255.97V420.768H253.682V425.344ZM265.602 425.344V426.496H264.162V431.808C264.162 432.432 264.05 432.784 263.65 433.008C263.266 433.2 262.626 433.216 261.698 433.216C261.666 432.912 261.49 432.368 261.314 432.064C261.954 432.096 262.562 432.08 262.754 432.08C262.946 432.08 263.01 432 263.01 431.792V426.496H260.578V433.04H259.458V426.496H257.074V433.04H255.97V426.496H253.682V433.264H252.514V426.496H250.962V425.344H252.514V419.616H264.162V425.344H265.602ZM274.818 427.696H279.298V425.28H274.818V427.696ZM269.266 427.696H273.602V425.28H269.266V427.696ZM273.602 421.856H269.266V424.176H273.602V421.856ZM279.298 421.856H274.818V424.176H279.298V421.856ZM274.818 420.72H280.498V429.68H279.298V428.848H274.818V433.2H273.602V428.848H269.266V429.76H268.098V420.72H273.602V418.608H274.818V420.72ZM286.754 420.752L285.714 421.12C285.57 420.544 285.218 419.632 284.914 418.96L285.906 418.656C286.242 419.312 286.594 420.192 286.754 420.752ZM286.962 428.64H284.514V431.312H286.962V428.64ZM288.018 427.664V432.288H284.514V433.024H283.474V427.664H288.018ZM283.41 426.416V425.472H288.066V426.416H283.41ZM288.05 423.312V424.256H283.394V423.312H288.05ZM283.026 422.272V421.296H288.514V422.272H283.026ZM290.674 429.776H295.522V428.592H290.722C290.722 428.96 290.706 429.36 290.674 429.776ZM295.522 426.56H290.722V427.744H295.522V426.56ZM296.642 425.616V431.984C296.642 432.56 296.53 432.848 296.098 433.024C295.698 433.2 295.042 433.2 294.034 433.2C293.986 432.896 293.858 432.496 293.698 432.208C294.418 432.24 295.074 432.24 295.266 432.224C295.474 432.224 295.522 432.16 295.522 431.984V430.624H290.562C290.386 431.632 290.066 432.64 289.41 433.424C289.234 433.2 288.818 432.768 288.578 432.64C289.522 431.44 289.634 429.824 289.634 428.56V425.616H296.642ZM293.634 423.76H297.57V424.672H288.69V423.76H292.466V422.672H289.266V421.808H292.466V420.832H288.866V419.92H292.466V418.624H293.634V419.92H297.41V420.832H293.634V421.808H297.106V422.672H293.634V423.76ZM304.946 428.992L304.594 428.144C305.826 427.632 306.53 426.88 306.61 425.792C306.514 425.808 306.434 425.808 306.338 425.808C305.682 425.808 305.138 425.424 305.138 424.672C305.138 423.92 305.698 423.52 306.354 423.52C307.234 423.52 307.714 424.24 307.714 425.36C307.714 427.088 306.626 428.4 304.946 428.992ZM324.146 427.664V424.016H320.274V427.664H324.146ZM319.138 422.944H325.314V428.72H319.138V422.944ZM316.834 431.232H327.634V420.464H316.834V431.232ZM315.634 419.28H328.898V433.216H327.634V432.352H316.834V433.216H315.634V419.28ZM336.114 427.984V430.48C337.202 430.272 338.338 430.064 339.442 429.856L339.522 430.896C336.69 431.44 333.666 432.016 331.57 432.416L331.314 431.312C332.29 431.152 333.586 430.912 334.978 430.672V427.984H331.858V426.928H334.978V425.216H336.114V426.928H339.298V427.984H336.114ZM331.442 420.72V419.664H339.618V420.72H335.298C334.754 421.776 334.098 422.848 333.458 423.696L337.538 423.344C337.154 422.784 336.738 422.24 336.354 421.76L337.202 421.248C338.098 422.32 339.154 423.76 339.618 424.672L338.706 425.264C338.578 424.992 338.386 424.64 338.146 424.272C333.17 424.752 332.594 424.816 332.21 424.992C332.146 424.736 331.954 424.176 331.81 423.872C332.066 423.824 332.306 423.552 332.578 423.168C332.818 422.848 333.458 421.856 333.97 420.72H331.442ZM341.618 420V429.616H340.498V420H341.618ZM343.634 418.88H344.802V431.36C344.802 432.112 344.626 432.48 344.146 432.656C343.65 432.848 342.802 432.88 341.65 432.88C341.602 432.576 341.394 432.032 341.218 431.712C342.146 431.744 343.026 431.744 343.298 431.728C343.57 431.712 343.634 431.648 343.634 431.376V418.88ZM89.9203 456V444.256H91.4083V449.184H96.8803V444.256H98.3523V456H96.8803V450.464H91.4083V456H89.9203ZM103.593 449.44L103.017 451.232H106.569L106.009 449.44C105.577 448.112 105.209 446.832 104.825 445.472H104.761C104.393 446.848 104.009 448.112 103.593 449.44ZM100.009 456L103.993 444.256H105.641L109.625 456H108.057L106.937 452.416H102.649L101.513 456H100.009ZM115.444 456.208C112.5 456.208 110.436 453.856 110.436 450.096C110.436 446.336 112.5 444.048 115.444 444.048C118.388 444.048 120.452 446.336 120.452 450.096C120.452 453.856 118.388 456.208 115.444 456.208ZM115.444 454.912C117.54 454.912 118.932 453.024 118.932 450.096C118.932 447.152 117.54 445.344 115.444 445.344C113.332 445.344 111.956 447.152 111.956 450.096C111.956 453.024 113.332 454.912 115.444 454.912ZM124.527 456V451.44L121.007 444.256H122.591L124.095 447.584C124.479 448.448 124.831 449.264 125.247 450.144H125.311C125.727 449.264 126.127 448.448 126.479 447.584L127.999 444.256H129.535L126.015 451.44V456H124.527ZM135.112 456.208C132.728 456.208 130.904 454.928 130.904 451.152V444.256H132.392V451.2C132.392 454.032 133.592 454.912 135.112 454.912C136.68 454.912 137.912 454.032 137.912 451.2V444.256H139.336V451.152C139.336 454.928 137.512 456.208 135.112 456.208ZM142.483 456V444.256H144.019L148.291 451.664L149.539 454.08H149.619C149.539 452.896 149.427 451.584 149.427 450.368V444.256H150.835V456H149.315L145.043 448.592L143.779 446.176H143.715C143.779 447.36 143.891 448.608 143.891 449.84V456H142.483ZM157.608 456V444.256H161.288C163.672 444.256 165.384 445.12 165.384 447.568C165.384 449.392 164.328 450.48 162.728 450.864L165.736 456H164.056L161.208 451.024H159.096V456H157.608ZM159.096 449.824H161.064C162.904 449.824 163.912 449.088 163.912 447.568C163.912 446.016 162.904 445.472 161.064 445.472H159.096V449.824ZM170.984 456.208C168.68 456.208 166.824 454.528 166.824 451.664C166.824 448.848 168.728 447.088 170.744 447.088C172.952 447.088 174.2 448.688 174.2 451.168C174.2 451.488 174.168 451.792 174.136 452H168.28C168.376 453.856 169.512 455.04 171.16 455.04C172.008 455.04 172.696 454.784 173.336 454.352L173.864 455.312C173.096 455.808 172.168 456.208 170.984 456.208ZM168.264 450.944H172.92C172.92 449.2 172.12 448.256 170.76 448.256C169.528 448.256 168.44 449.248 168.264 450.944ZM176.339 456V447.312H177.539L177.667 448.56H177.715C178.547 447.744 179.443 447.088 180.627 447.088C182.451 447.088 183.283 448.272 183.283 450.496V456H181.827V450.688C181.827 449.056 181.331 448.368 180.179 448.368C179.283 448.368 178.675 448.816 177.795 449.696V456H176.339ZM188.856 456.208C187 456.208 186.376 455.04 186.376 453.312V448.496H185.08V447.392L186.44 447.312L186.616 444.864H187.832V447.312H190.184V448.496H187.832V453.344C187.832 454.416 188.168 455.024 189.176 455.024C189.48 455.024 189.88 454.912 190.168 454.8L190.456 455.888C189.96 456.048 189.384 456.208 188.856 456.208ZM197.368 452.992L197.016 452.144C198.248 451.632 198.952 450.88 199.032 449.792C198.936 449.808 198.856 449.808 198.76 449.808C198.104 449.808 197.56 449.424 197.56 448.672C197.56 447.92 198.12 447.52 198.776 447.52C199.656 447.52 200.136 448.24 200.136 449.36C200.136 451.088 199.048 452.4 197.368 452.992ZM212.824 444.208H209.32V445.504H212.824V444.208ZM209.32 447.728H212.824V446.352H209.32V447.728ZM213.944 448.64H209.32V457.232H208.152V443.296H213.944V448.64ZM213.496 452.352H215.736V450.624H213.496V452.352ZM218.968 453.36H216.792V456.928H215.736V453.36H213.464C213.368 454.432 212.856 456.096 211.32 457.136C211.144 456.928 210.792 456.592 210.536 456.432C211.88 455.616 212.328 454.288 212.424 453.36H210.424V452.352H212.456V450.624H210.728V449.648H218.616V450.624H216.792V452.352H218.968V453.36ZM216.488 447.744H220.12V446.352H216.488V447.744ZM220.12 444.208H216.488V445.504H220.12V444.208ZM221.288 443.296V455.68C221.288 456.384 221.128 456.768 220.664 456.976C220.184 457.168 219.384 457.2 218.184 457.184C218.152 456.88 217.976 456.32 217.8 456C218.68 456.032 219.544 456.032 219.784 456.016C220.04 456.016 220.12 455.92 220.12 455.664V448.656H215.352V443.296H221.288ZM227.64 447.136L225.928 447.232C225.64 448.576 225.304 449.872 225 450.944C225.56 451.36 226.136 451.824 226.696 452.272C227.48 450.48 227.624 448.656 227.64 447.136ZM229.464 447.008L228.728 447.056C228.712 448.832 228.552 450.96 227.592 453.008C228.328 453.664 229.016 454.288 229.448 454.8L228.712 455.744C228.296 455.248 227.72 454.656 227.048 454.048C226.344 455.152 225.384 456.24 224.04 457.216C223.864 456.96 223.496 456.608 223.224 456.432C224.584 455.472 225.528 454.384 226.184 453.28C225.368 452.592 224.52 451.904 223.752 451.312C224.12 450.272 224.488 448.832 224.84 447.312L223.432 447.392L223.304 446.304C223.816 446.288 224.424 446.256 225.064 446.224C225.304 445.008 225.512 443.76 225.64 442.672L226.744 442.752C226.6 443.808 226.392 444.976 226.168 446.16L227.64 446.08V444.88H228.728V446.032L229.48 445.984L229.464 447.008ZM235.976 451.84H231.192V455.472H235.976V451.84ZM230.088 457.232V450.768H237.112V457.2H235.976V456.528H231.192V457.232H230.088ZM234.504 445.376L235.432 444.928C236.536 446.32 237.64 448.16 238.136 449.392L237.112 449.904C236.984 449.584 236.824 449.184 236.616 448.784C230.776 449.232 230.088 449.296 229.64 449.488C229.576 449.232 229.384 448.672 229.24 448.352C229.56 448.288 229.864 447.904 230.264 447.328C230.68 446.768 232.008 444.624 232.808 442.592L234.024 442.96C233.16 444.8 232.136 446.624 231.08 448.08L236.056 447.76C235.592 446.944 235.032 446.096 234.504 445.376ZM245.384 451.296L244.68 452.224C244.392 451.696 243.72 450.592 243.176 449.776V457.2H242.04V450.176C241.4 451.776 240.6 453.344 239.816 454.32C239.688 453.984 239.4 453.52 239.208 453.232C240.184 452.096 241.256 450.048 241.88 448.208H239.4V447.088H242.04V444.704C241.32 444.848 240.6 444.944 239.928 445.04C239.864 444.8 239.704 444.384 239.576 444.112C241.368 443.84 243.464 443.36 244.664 442.848L245.368 443.792C244.744 444.048 243.992 444.256 243.176 444.448V447.088H245.368V448.208H243.176V448.48C243.624 448.992 245.08 450.848 245.384 451.296ZM247.464 452.528V455.6H251.272V452.528H247.464ZM251.272 444.624H247.464V447.392H251.272V444.624ZM251.272 451.44V448.48H247.464V451.44H251.272ZM252.472 455.6H253.96V456.72H244.696V455.6H246.296V443.52H252.472V455.6ZM258.376 451.536H262.04V449.888H258.376V451.536ZM258.376 447.312V448.944H262.04V447.312H258.376ZM266.984 447.312H263.24V448.944H266.984V447.312ZM266.984 451.536V449.888H263.24V451.536H266.984ZM269.848 453.824V454.896H263.24V457.264H262.04V454.896H255.576V453.824H262.04V452.512H257.24V446.32H262.04V445.152H256.056V444.064H262.04V442.624H263.24V444.064H269.304V445.152H263.24V446.32H268.168V452.512H263.24V453.824H269.848ZM278.728 447.504C280.072 447.504 281.16 448.592 281.16 449.936C281.16 451.28 280.072 452.368 278.728 452.368C277.4 452.368 276.296 451.28 276.296 449.936C276.296 448.592 277.4 447.504 278.728 447.504ZM278.728 451.552C279.624 451.552 280.344 450.832 280.344 449.936C280.344 449.04 279.624 448.32 278.728 448.32C277.848 448.32 277.112 449.04 277.112 449.936C277.112 450.832 277.848 451.552 278.728 451.552Z" fill="#767676"/>
<rect x="20" y="501" width="335" height="48" rx="24" fill="#4E61A7"/>
<path d="M180.524 529.936V531.376H182.62V529.936H180.524ZM182.62 526.24V524.864H180.524V526.24H182.62ZM182.62 528.8V527.36H180.524V528.8H182.62ZM176.14 529.984V525.632H174.716V529.984H176.14ZM186.716 531.376V532.608H180.524V533.264H179.116V525.92C178.796 526.192 178.476 526.464 178.14 526.704C178.012 526.448 177.708 525.952 177.436 525.616V531.28H174.716V532.48H173.452V527.76C173.228 528.128 173.02 528.48 172.764 528.8C172.62 528.48 172.22 527.76 171.948 527.424C173.068 525.904 173.756 523.552 174.156 521.024H172.364V519.68H177.596V521.024H175.58C175.372 522.176 175.132 523.28 174.844 524.336H177.436V525.312C178.828 524.352 179.932 523.024 180.748 521.408H179.18V522.928H177.916V520.144H181.324C181.5 519.632 181.692 519.088 181.836 518.544L183.228 518.848C183.1 519.28 182.972 519.728 182.812 520.144H186.476V522.88H185.132V521.408H182.3C181.948 522.192 181.548 522.928 181.084 523.616H182.828C182.636 523.2 182.428 522.72 182.236 522.352L183.484 521.856C183.788 522.416 184.124 523.104 184.316 523.616H186.3V524.864H183.996V526.24H186.108V527.36H183.996V528.8H186.108V529.936H183.996V531.376H186.716ZM200.86 520.432H198.94C198.62 523.248 197.82 525.616 194.86 526.976C194.7 526.64 194.332 526.16 194.012 525.904C195.34 525.344 196.172 524.592 196.684 523.664C196.076 523.04 195.132 522.224 194.396 521.616L195.196 520.816C195.804 521.296 196.588 521.936 197.196 522.464C197.388 521.824 197.5 521.152 197.596 520.432H194.396V519.184H202.3C202.3 519.184 202.3 519.584 202.268 519.776C202.108 523.776 201.948 525.248 201.532 525.76C201.228 526.096 200.924 526.224 200.46 526.288C200.06 526.336 199.356 526.32 198.636 526.288C198.604 525.92 198.46 525.376 198.236 525.008C198.908 525.072 199.548 525.072 199.804 525.072C200.044 525.072 200.188 525.04 200.332 524.896C200.556 524.592 200.732 523.424 200.86 520.432ZM197.02 526.912L197.916 526.336C198.572 527.056 199.324 528.016 199.66 528.64L198.7 529.328C198.396 528.656 197.66 527.648 197.02 526.912ZM193.82 521.216V522.4H188.156V521.216H190.652C190.476 520.64 190.076 519.728 189.724 519.072L190.972 518.624C191.372 519.296 191.788 520.16 191.98 520.736L190.748 521.216H193.82ZM193.452 523.392V524.56H188.588V523.392H193.452ZM188.588 526.688V525.52H193.452V526.688H188.588ZM192.124 531.2V528.88H189.82V531.2H192.124ZM193.388 527.696V531.2C193.868 530.336 194.188 528.992 194.38 527.888L195.42 528.192C195.228 529.408 194.924 530.864 194.38 531.76L193.388 531.344V532.4H189.82V533.072H188.572V527.696H193.388ZM197.596 531.76H199.228C199.708 531.76 199.804 531.488 199.852 529.712C200.124 529.92 200.668 530.128 201.02 530.208C200.876 532.384 200.524 532.928 199.356 532.928H197.42C196.028 532.928 195.708 532.544 195.708 531.28V527.568H196.988V531.264C196.988 531.68 197.068 531.76 197.596 531.76ZM200.524 527.6L201.564 527.232C202.156 528.304 202.748 529.696 202.972 530.576L201.836 531.008C201.644 530.128 201.1 528.688 200.524 527.6Z" fill="white"/>
<rect width="375" height="44" fill="white"/>
<g clip-path="url(#clip1_1960_3502)">
<path opacity="0.35" d="M336.5 20C336.5 18.8034 337.47 17.8334 338.667 17.8334H355.333C356.53 17.8334 357.5 18.8034 357.5 20V26C357.5 27.1967 356.53 28.1667 355.333 28.1667H338.667C337.47 28.1667 336.5 27.1967 336.5 26V20Z" stroke="black"/>
<path opacity="0.4" d="M359 21V25C359.805 24.6613 360.328 23.8732 360.328 23C360.328 22.1269 359.805 21.3388 359 21Z" fill="black"/>
<path d="M338 20.6667C338 19.9303 338.597 19.3334 339.333 19.3334H354.667C355.403 19.3334 356 19.9303 356 20.6667V25.3334C356 26.0698 355.403 26.6667 354.667 26.6667H339.333C338.597 26.6667 338 26.0698 338 25.3334V20.6667Z" fill="black"/>
<path fill-rule="evenodd" clip-rule="evenodd" d="M323.33 19.608C325.546 19.6081 327.677 20.4596 329.283 21.9863C329.404 22.1042 329.598 22.1027 329.717 21.983L330.873 20.8163C330.933 20.7556 330.967 20.6734 330.966 20.5878C330.966 20.5022 330.931 20.4204 330.87 20.3603C326.655 16.3208 320.005 16.3208 315.79 20.3603C315.729 20.4203 315.694 20.5021 315.694 20.5877C315.693 20.6733 315.727 20.7556 315.787 20.8163L316.943 21.983C317.062 22.1029 317.256 22.1044 317.377 21.9863C318.983 20.4595 321.114 19.608 323.33 19.608ZM323.33 23.4037C324.548 23.4036 325.722 23.8561 326.624 24.6733C326.746 24.7893 326.939 24.7868 327.058 24.6677L328.212 23.501C328.273 23.4398 328.307 23.3568 328.306 23.2705C328.305 23.1843 328.27 23.102 328.208 23.042C325.459 20.4856 321.204 20.4856 318.455 23.042C318.393 23.102 318.358 23.1843 318.357 23.2706C318.356 23.3569 318.39 23.4399 318.451 23.501L319.605 24.6677C319.724 24.7868 319.917 24.7893 320.039 24.6733C320.941 23.8567 322.114 23.4042 323.33 23.4037ZM325.643 25.9575C325.645 26.044 325.611 26.1274 325.549 26.188L323.552 28.2037C323.493 28.2629 323.414 28.2963 323.33 28.2963C323.247 28.2963 323.167 28.2629 323.109 28.2037L321.111 26.188C321.049 26.1274 321.015 26.0439 321.017 25.9574C321.019 25.8709 321.056 25.789 321.121 25.731C322.396 24.6521 324.264 24.6521 325.54 25.731C325.604 25.7891 325.642 25.871 325.643 25.9575Z" fill="black"/>
<path fill-rule="evenodd" clip-rule="evenodd" d="M309.667 17.6666H308.667C308.114 17.6666 307.667 18.1143 307.667 18.6666V27.3333C307.667 27.8856 308.114 28.3333 308.667 28.3333H309.667C310.219 28.3333 310.667 27.8856 310.667 27.3333V18.6666C310.667 18.1143 310.219 17.6666 309.667 17.6666ZM304 20H305C305.552 20 306 20.4477 306 21V27.3333C306 27.8856 305.552 28.3333 305 28.3333H304C303.448 28.3333 303 27.8856 303 27.3333V21C303 20.4477 303.448 20 304 20ZM300.333 22.3333H299.333C298.781 22.3333 298.333 22.781 298.333 23.3333V27.3333C298.333 27.8856 298.781 28.3333 299.333 28.3333H300.333C300.886 28.3333 301.333 27.8856 301.333 27.3333V23.3333C301.333 22.781 300.886 22.3333 300.333 22.3333ZM295.667 24.3333H294.667C294.114 24.3333 293.667 24.781 293.667 25.3333V27.3333C293.667 27.8856 294.114 28.3333 294.667 28.3333H295.667C296.219 28.3333 296.667 27.8856 296.667 27.3333V25.3333C296.667 24.781 296.219 24.3333 295.667 24.3333Z" fill="black"/>
<path d="M37.3207 28.2563C40.0087 28.2563 41.6053 26.1543 41.6053 22.5947C41.6053 21.2544 41.349 20.1265 40.8583 19.2549C40.1478 17.8999 38.9247 17.1675 37.3793 17.1675C35.0795 17.1675 33.4535 18.7129 33.4535 20.8809C33.4535 22.917 34.9183 24.3965 36.9325 24.3965C38.1703 24.3965 39.1737 23.8179 39.6718 22.8145H39.6937C39.6937 22.8145 39.723 22.8145 39.7303 22.8145C39.745 22.8145 39.7963 22.8145 39.7963 22.8145C39.7963 25.2314 38.8807 26.6743 37.3353 26.6743C36.4271 26.6743 35.724 26.1763 35.4823 25.3779H33.6C33.9149 27.1138 35.3871 28.2563 37.3207 28.2563ZM37.3866 22.895C36.1708 22.895 35.3065 22.0308 35.3065 20.8223C35.3065 19.6431 36.2147 18.7422 37.3939 18.7422C38.5731 18.7422 39.4813 19.6577 39.4813 20.8516C39.4813 22.0308 38.5951 22.895 37.3866 22.895Z" fill="black"/>
<path d="M44.6965 28.1538C45.3923 28.1538 45.8683 27.6558 45.8683 26.9966C45.8683 26.3301 45.3923 25.8394 44.6965 25.8394C44.008 25.8394 43.5246 26.3301 43.5246 26.9966C43.5246 27.6558 44.008 28.1538 44.6965 28.1538ZM44.6965 22.6606C45.3923 22.6606 45.8683 22.1699 45.8683 21.5107C45.8683 20.8442 45.3923 20.3535 44.6965 20.3535C44.008 20.3535 43.5246 20.8442 43.5246 21.5107C43.5246 22.1699 44.008 22.6606 44.6965 22.6606Z" fill="black"/>
<path d="M52.7241 28H54.5332V26.0298H55.9614V24.4331H54.5332V17.4312H51.8672C49.9995 20.2437 48.5127 22.5947 47.5605 24.3452V26.0298H52.7241V28ZM49.311 24.3672C50.5415 22.1992 51.6401 20.4634 52.6509 18.9692H52.7534V24.4771H49.311V24.3672Z" fill="black"/>
<path d="M59.99 28H61.8797V17.4312H59.9973L57.2361 19.3647V21.1812L59.8655 19.3354H59.99V28Z" fill="black"/>
</g>
<g filter="url(#filter0_d_1960_3502)">
<rect x="121" y="799" width="134" height="5" rx="2.5" fill="black"/>
</g>
</g>
<defs>
<filter id="filter0_d_1960_3502" x="-20" y="758" width="415" height="74" filterUnits="userSpaceOnUse" color-interpolation-filters="sRGB">
<feFlood flood-opacity="0" result="BackgroundImageFix"/>
<feColorMatrix in="SourceAlpha" type="matrix" values="0 0 0 0 0 0 0 0 0 0 0 0 0 0 0 0 0 0 127 0" result="hardAlpha"/>
<feOffset/>
<feGaussianBlur stdDeviation="10"/>
<feComposite in2="hardAlpha" operator="out"/>
<feColorMatrix type="matrix" values="0 0 0 0 0.660075 0 0 0 0 0.660075 0 0 0 0 0.660075 0 0 0 0.16 0"/>
<feBlend mode="normal" in2="BackgroundImageFix" result="effect1_dropShadow_1960_3502"/>
<feBlend mode="normal" in="SourceGraphic" in2="effect1_dropShadow_1960_3502" result="shape"/>
</filter>
<clipPath id="clip0_1960_3502">
<rect width="375" height="812" fill="white"/>
</clipPath>
<clipPath id="clip1_1960_3502">
<rect width="375" height="44" fill="white"/>
</clipPath>
</defs>
</svg>
