<?xml version="1.0" encoding="utf-8"?>
<!-- Generator: Adobe Illustrator 27.0.0, SVG Export Plug-In . SVG Version: 6.00 Build 0)  -->
<svg version="1.1" id="圖層_1" xmlns="http://www.w3.org/2000/svg" xmlns:xlink="http://www.w3.org/1999/xlink" x="0px" y="0px"
	 viewBox="0 0 246 246" style="enable-background:new 0 0 246 246;" xml:space="preserve">
<style type="text/css">
	.st0{fill:#FFFFFF;}
</style>
<g>
	<g>
		<path class="st0" d="M131.8,173.5c0.5,0.5,1.2,0.9,2,0.9c0.8,0,1.5-0.3,2-0.9c0.6-0.6,0.9-1.3,0.9-2.2v-1.9c0-2.3-0.4-4.4-1.2-6.3
			l0,0c-0.5-1.2-1.2-2.2-2-2.9c0.8-0.6,1.5-1.3,2-2.2c0.9-1.5,1.5-3.3,1.5-5.1c0-2.9-1-5.2-3.1-6.9c-2-1.6-4.7-2.5-8.3-2.5h-4.4
			c-0.8,0-1.5,0.3-2,0.9c-0.5,0.6-0.8,1.3-0.8,2.2v24.5c0,0.9,0.3,1.6,0.9,2.2c1.1,1.2,2.9,1.2,4.1,0c0.6-0.6,0.9-1.3,0.9-2.2v-8.1
			h2.3c1.3,0,2.3,0.3,3,0.9c0.7,0.6,1.2,1.5,1.3,2.4c0.2,1.1,0.3,2.3,0.3,3.5v1.2C130.9,172.2,131.2,172.9,131.8,173.5z
			 M131.2,153.3c-0.1,1.1-0.6,2.2-1.4,2.8c-1,0.8-2.5,1.2-4.5,1.2H124v-7.7c0,0,1.1,0,1.1,0c2.5,0,6-0.2,6.1,3.4
			C131.2,153.1,131.2,153.2,131.2,153.3z"/>
		<path class="st0" d="M154.7,169c-0.6-0.6-1.2-0.9-2-0.9h-6.8v-21.4c0-0.9-0.3-1.6-0.9-2.2c-1.2-1.2-3-1.2-4.1,0
			c-0.5,0.6-0.8,1.3-0.8,2.2v23.8c0,1,0.4,1.9,1,2.6c0.7,0.7,1.5,1.1,2.5,1.1h9c0.8,0,1.5-0.3,2-0.9c0.6-0.6,0.9-1.3,0.9-2.2
			C155.6,170.4,155.3,169.6,154.7,169z"/>
		<path class="st0" d="M114.3,144.5c-1.1-1.2-3-1.2-4.1,0c-0.5,0.6-0.8,1.3-0.8,2.2v11.2v2.5v2.8c0,2.4-1.8,4.3-4,4.3
			c-2.2,0-4-1.9-4-4.3v-2.8v-2.5v-11.2c0-0.9-0.3-1.6-0.9-2.2c-1.2-1.2-3-1.2-4.1,0c-0.5,0.6-0.8,1.3-0.8,2.2v11.2v2.5v2.8
			c0,5.7,4.4,10.4,9.8,10.4c2.7,0,5.1-1.2,6.9-3c1.8-1.9,2.9-4.5,2.9-7.4v-2.8v-2.5v-11.2C115.2,145.8,114.9,145.1,114.3,144.5z"/>
	</g>
	<g>
		<path class="st0" d="M82,89.8c-0.5,0.6-0.8,1.3-0.8,2.1v15.4c0,1.3-0.3,2.3-0.8,3.2c-0.5,0.9-1.3,1.6-2.3,2c-2,1-4.5,0.9-6.4,0
			c-1-0.4-1.7-1.1-2.2-2c-0.6-0.8-0.9-1.9-0.9-3.2V91.8c0-0.8-0.3-1.5-0.9-2.1c-1.2-1.2-3.1-1.1-4.2,0c-0.5,0.6-0.8,1.3-0.8,2.1
			v15.2c0,2.5,0.6,4.6,1.8,6.4c1.2,1.8,2.8,3.1,4.7,4c1.8,0.8,3.7,1.3,5.8,1.3c2.1,0,4-0.4,5.9-1.3s3.4-2.2,4.6-3.9
			c1.2-1.8,1.8-4,1.8-6.5V91.8c0-0.8-0.3-1.5-0.9-2.1C85.1,88.6,83.2,88.6,82,89.8z"/>
		<path class="st0" d="M134.5,117.9c0.5,0.5,1.3,0.8,2.1,0.8c0.8,0,1.5-0.3,2.1-0.9c0.6-0.6,0.9-1.3,0.9-2.1v-1.8
			c0-2.2-0.4-4.3-1.2-6.1l0,0c-0.5-1.1-1.2-2.1-2.1-2.8c0.8-0.6,1.5-1.3,2.1-2.1c1-1.4,1.5-3.1,1.5-4.9c0-2.8-1-5-3.1-6.6
			c-2-1.6-4.9-2.4-8.5-2.4h-14c-0.8,0-1.5,0.3-2.1,0.9c-0.5,0.6-0.8,1.3-0.8,2.1v23.6c0,0.8,0.3,1.5,0.9,2.1c1.1,1.1,3,1.1,4.2,0
			c0.6-0.6,0.9-1.3,0.9-2.1v-7.8h11.8c1.3,0,2.4,0.3,3.1,0.9c0.7,0.6,1.2,1.4,1.3,2.3c0.2,1,0.3,2.2,0.3,3.4v1.1
			C133.6,116.6,133.9,117.3,134.5,117.9z M133.8,98.4c0,1.2-0.4,2-1.4,2.7c-1,0.7-2.6,1.1-4.6,1.1H117v-7.4h10.6c3,0,4.3,0.5,5,1
			C133.5,96.3,133.8,97.2,133.8,98.4z"/>
		<path class="st0" d="M183.6,113.6c-0.6-0.6-1.3-0.9-2.1-0.9h-11.4V92.1c0-0.8-0.3-1.5-0.9-2.1c-1.2-1.2-3.1-1.1-4.2,0
			c-0.5,0.6-0.8,1.3-0.8,2.1V115c0,1,0.4,1.9,1,2.5c0.7,0.7,1.6,1,2.5,1h13.7c0.8,0,1.5-0.3,2.1-0.8c0.6-0.6,0.9-1.3,0.9-2.1
			C184.5,114.9,184.2,114.2,183.6,113.6z"/>
		<g>
			<path class="st0" d="M106.2,106.4c-1.4,1.4-2.7,2-3.8,2c-0.6,0-1.7-0.4-3-1.2c-1.3-0.8-2.5-1.2-3.4-1.2c-1.1,0-2.5,0.7-4,2.3
				l0.1-4.3c1.6-1.5,3-2.3,4.3-2.3c0.8,0,1.9,0.4,3.2,1.2c1.3,0.8,2.3,1.2,2.9,1.2c1.2,0,2.5-0.7,3.8-2.2L106.2,106.4z"/>
		</g>
		<g>
			<path class="st0" d="M159.2,106.4c-1.4,1.4-2.7,2-3.8,2c-0.6,0-1.7-0.4-3-1.2c-1.3-0.8-2.5-1.2-3.4-1.2c-1.1,0-2.5,0.7-4,2.3
				l0.1-4.3c1.6-1.5,3-2.3,4.3-2.3c0.8,0,1.9,0.4,3.2,1.2c1.3,0.8,2.3,1.2,2.9,1.2c1.2,0,2.5-0.7,3.8-2.2L159.2,106.4z"/>
		</g>
	</g>
	<g>
		<path class="st0" d="M168.2,161.6l-1-1.7c0.9-0.5,1.7-1,2.6-1.5l1,1.7C170,160.6,169.1,161.1,168.2,161.6z M173.3,158.5l-1.1-1.6
			c0.8-0.6,1.6-1.1,2.4-1.7l1.2,1.6C175,157.3,174.2,157.9,173.3,158.5z M162,164.9l-0.9-1.8c0.9-0.4,3.1-1.6,4-2l0.9,1.8
			C165.1,163.3,162.9,164.4,162,164.9z M178.3,154.7l-1.3-1.5c2.3-2.1,4.2-4.3,5.5-6.6l1.7,1C182.7,150.2,180.8,152.5,178.3,154.7z
			 M185.6,144.8l-1.8-0.8c0.6-1.5,1.1-3.1,1.4-4.8c0.2-1.2,0.4-2.4,0.5-3.6l2,0.2c-0.1,1.3-0.3,2.5-0.6,3.8
			C186.8,141.4,186.3,143.1,185.6,144.8z M187.9,132.8l-2-0.1c0.1-1.2,0.1-2.4,0.1-3.7c0-1.7-0.1-3.5-0.2-5.2l2-0.2
			c0.1,1.8,0.2,3.6,0.2,5.4C188.1,130.3,188,131.5,187.9,132.8z"/>
		<g>
			<g>
				<polygon class="st0" points="162.7,155.5 164.3,156.1 161.5,164 169.6,166.2 169.1,167.8 159.3,165.1 				"/>
			</g>
		</g>
	</g>
	<g>
		<path class="st0" d="M77.2,160.1l1-1.7c0.8,0.5,1.7,1,2.6,1.5l-1,1.7C78.9,161.1,78.1,160.6,77.2,160.1z M72.2,156.7l1.2-1.6
			c0.8,0.6,1.6,1.2,2.4,1.7l-1.1,1.6C73.9,157.9,73,157.3,72.2,156.7z M82,162.8l0.9-1.8c0.9,0.5,3.1,1.6,4,2l-0.9,1.8
			C85.1,164.4,82.9,163.3,82,162.8z M63.8,147.6l1.7-1c1.4,2.4,3.2,4.5,5.5,6.6l-1.3,1.5C67.3,152.5,65.3,150.2,63.8,147.6z
			 M60.9,139.6c-0.2-1.2-0.4-2.5-0.6-3.8l2-0.2c0.1,1.2,0.3,2.4,0.5,3.6c0.3,1.7,0.8,3.3,1.4,4.8l-1.8,0.8
			C61.7,143.1,61.2,141.4,60.9,139.6z M60,129c0-1.8,0.1-3.6,0.2-5.4l2,0.2c-0.1,1.7-0.2,3.5-0.2,5.2c0,1.2,0,2.5,0.1,3.7l-2,0.1
			C60,131.5,60,130.3,60,129z"/>
		<g>
			<g>
				<polygon class="st0" points="85.3,155.5 83.7,156.1 86.5,164 78.4,166.2 78.9,167.8 88.7,165.1 				"/>
			</g>
		</g>
	</g>
</g>
</svg>
