<?xml version="1.0" encoding="utf-8"?>
<!-- Generator: Adobe Illustrator 26.4.1, SVG Export Plug-In . SVG Version: 6.00 Build 0)  -->
<svg version="1.1" id="圖層_1" xmlns="http://www.w3.org/2000/svg" xmlns:xlink="http://www.w3.org/1999/xlink" x="0px" y="0px"
	 width="110px" height="109.5px" viewBox="0 0 110 109.5" style="enable-background:new 0 0 110 109.5;" xml:space="preserve">
<style type="text/css">
	.st0{fill:#B7B7B7;}
	.st1{fill:#8D8D8D;}
	.st2{fill:#575757;}
	.st3{fill:#FFFFFF;}
	.st4{filter:url(#Adobe_OpacityMaskFilter);}
	.st5{fill:url(#SVGID_1_);}
	.st6{mask:url(#SVGID_00000141444435909476142740000001889182936733141386_);fill:#FFFFFF;}
	.st7{filter:url(#Adobe_OpacityMaskFilter_00000183960323174165705030000012174013847317852559_);}
	.st8{fill:url(#SVGID_00000119081162488248443310000006254306105690973337_);}
	.st9{mask:url(#SVGID_00000091698377549299488890000004966331271100015518_);fill:#FFFFFF;}
</style>
<g>
	<g>
		<path class="st0" d="M23.4,54.9c0,0,7.5-16.6,36.1-18.6c3.6-0.3,0,0,0,0s-26.1,8.3-37.9,23.8"/>
		<path class="st1" d="M24.7,46c0,0-0.5-31.8,24.8-21.5c0,0,25.1,9.7,23.4,63.1c0,0,15.6-49.7-19.3-73.2c0,0-11.3-8.6-21.1-0.8
			C32.5,13.7,19.3,22.3,24.7,46z"/>
		<path class="st2" d="M58.4,80.9c0,0-27.8,15.5-30.7-11.7c0,0-3.4-26.7,44.6-50.5c0,0-51.1,9.8-55.3,51.7c0,0-2.2,14,9.3,18.9
			C26.3,89.3,40,96.9,58.4,80.9z"/>
		<path class="st0" d="M66.8,33.4c0,0,31.9,10.9,14.6,27.8c0,0-16.6,17-69.5-3.5c0,0,45.3,30.4,78.4,10.3c0,0,11.7-6.2,6.6-16.9
			C96.9,51.2,92,37.4,66.8,33.4z"/>
		<path class="st0" d="M15.2,57.9c-0.5,4.2-4.2,7.2-8.4,6.7s-7.2-4.2-6.7-8.4C0.5,52,4.3,49,8.5,49.5S15.7,53.7,15.2,57.9z"/>
		<path class="st3" d="M8.1,56.7c-2,1.9-4.7,2.3-5.9,1s-0.6-4,1.5-5.8c2-1.9,4.7-2.3,5.9-1S10.2,54.8,8.1,56.7z"/>
		<path class="st1" d="M81.1,92.2c-0.5,4.2-4.2,7.2-8.4,6.7c-4.2-0.5-7.2-4.2-6.7-8.4c0.5-4.2,4.2-7.2,8.4-6.7
			C78.5,84.2,81.5,88,81.1,92.2z"/>
		<defs>
			<filter id="Adobe_OpacityMaskFilter" filterUnits="userSpaceOnUse" x="67.5" y="84.3" width="8.6" height="8.3">
				<feColorMatrix  type="matrix" values="1 0 0 0 0  0 1 0 0 0  0 0 1 0 0  0 0 0 1 0"/>
			</filter>
		</defs>
		
			<mask maskUnits="userSpaceOnUse" x="67.5" y="84.3" width="8.6" height="8.3" id="SVGID_00000141444435909476142740000001889182936733141386_">
			<g class="st4">
				
					<linearGradient id="SVGID_1_" gradientUnits="userSpaceOnUse" x1="336.1792" y1="454.7694" x2="342.7875" y2="454.7694" gradientTransform="matrix(0.6778 0.7353 0.8242 -0.7597 -533.15 184.3367)">
					<stop  offset="0" style="stop-color:#FFFFFF"/>
					<stop  offset="1" style="stop-color:#000000"/>
				</linearGradient>
				<path class="st5" d="M74,90.9c-2,1.9-4.7,2.3-5.9,1c-1.2-1.3-0.6-4,1.5-5.8c2-1.9,4.7-2.3,5.9-1C76.7,86.4,76,89.1,74,90.9z"/>
			</g>
		</mask>
		<path class="st6" d="M74,90.9c-2,1.9-4.7,2.3-5.9,1c-1.2-1.3-0.6-4,1.5-5.8c2-1.9,4.7-2.3,5.9-1C76.7,86.4,76,89.1,74,90.9z"/>
		<path class="st2" d="M84.7,18.1c-0.5,4.2-4.2,7.2-8.4,6.7c-4.2-0.5-7.2-4.2-6.7-8.4s4.2-7.2,8.4-6.7
			C82.1,10.1,85.1,13.9,84.7,18.1z"/>
		<defs>
			
				<filter id="Adobe_OpacityMaskFilter_00000160168898310358464940000006024217067157040265_" filterUnits="userSpaceOnUse" x="71.1" y="10.5" width="8.6" height="8.3">
				<feColorMatrix  type="matrix" values="1 0 0 0 0  0 1 0 0 0  0 0 1 0 0  0 0 0 1 0"/>
			</filter>
		</defs>
		
			<mask maskUnits="userSpaceOnUse" x="71.1" y="10.5" width="8.6" height="8.3" id="SVGID_00000091698377549299488890000004966331271100015518_">
			<g style="filter:url(#Adobe_OpacityMaskFilter_00000160168898310358464940000006024217067157040265_);">
				
					<linearGradient id="SVGID_00000152252778694482064300000012720094981690886055_" gradientUnits="userSpaceOnUse" x1="284.342" y1="501.7549" x2="290.9505" y2="501.7549" gradientTransform="matrix(0.6778 0.7353 0.8242 -0.7597 -533.15 184.3367)">
					<stop  offset="0" style="stop-color:#FFFFFF"/>
					<stop  offset="1" style="stop-color:#000000"/>
				</linearGradient>
				<path style="fill:url(#SVGID_00000152252778694482064300000012720094981690886055_);" d="M77.6,17.1c-2,1.9-4.7,2.3-5.9,1
					c-1.2-1.3-0.6-4,1.5-5.8c2-1.9,4.7-2.3,5.9-1S79.6,15.2,77.6,17.1z"/>
			</g>
		</mask>
		<path class="st9" d="M77.6,17.1c-2,1.9-4.7,2.3-5.9,1c-1.2-1.3-0.6-4,1.5-5.8c2-1.9,4.7-2.3,5.9-1S79.6,15.2,77.6,17.1z"/>
		<path class="st1" d="M68,29.5c0,0,3.6,5.8,4.8,10.3c1.3,4.5-5.4,0.3-5.4,0.3l-3-8.3L68,29.5z"/>
	</g>
	<path class="st1" d="M109.4,73c-0.4-0.4-0.9-0.6-1.5-0.6H89c-0.6,0-1,0.2-1.5,0.6c-0.4,0.4-0.6,0.9-0.6,1.5v23.3
		c0,0.6,0.2,1,0.6,1.5c0.4,0.4,0.9,0.6,1.5,0.6h18.9c0.6,0,1-0.2,1.5-0.6c0.4-0.4,0.6-0.9,0.6-1.5V74.4
		C110,73.9,109.8,73.4,109.4,73z M107.9,97.8H89V74.4h18.9V97.8z"/>
	<g>
		<path class="st2" d="M93.2,92.6c0.3,0,0.5-0.1,0.7-0.3c0.2-0.2,0.3-0.5,0.3-0.7c0-0.3-0.1-0.5-0.3-0.7c-0.2-0.2-0.5-0.3-0.7-0.3
			c-0.3,0-0.5,0.1-0.7,0.3c-0.2,0.2-0.3,0.5-0.3,0.7c0,0.3,0.1,0.5,0.3,0.7C92.7,92.5,92.9,92.6,93.2,92.6z"/>
		<path class="st2" d="M93.2,86.9c0.3,0,0.5-0.1,0.7-0.3c0.2-0.2,0.3-0.5,0.3-0.7s-0.1-0.5-0.3-0.7c-0.2-0.2-0.5-0.3-0.7-0.3
			c-0.3,0-0.5,0.1-0.7,0.3c-0.2,0.2-0.3,0.5-0.3,0.7s0.1,0.5,0.3,0.7C92.7,86.8,92.9,86.9,93.2,86.9z"/>
		<path class="st2" d="M93.2,81.2c0.3,0,0.5-0.1,0.7-0.3s0.3-0.5,0.3-0.7c0-0.3-0.1-0.5-0.3-0.7c-0.2-0.2-0.5-0.3-0.7-0.3
			c-0.3,0-0.5,0.1-0.7,0.3c-0.2,0.2-0.3,0.5-0.3,0.7c0,0.3,0.1,0.5,0.3,0.7S92.9,81.2,93.2,81.2z"/>
		<path class="st2" d="M96.9,92.6h6.4c0.3,0,0.5-0.1,0.7-0.3c0.2-0.2,0.3-0.4,0.3-0.7c0-0.3-0.1-0.5-0.3-0.7
			c-0.2-0.2-0.4-0.3-0.7-0.3h-6.4c-0.3,0-0.5,0.1-0.7,0.3c-0.2,0.2-0.3,0.4-0.3,0.7c0,0.3,0.1,0.5,0.3,0.7
			C96.3,92.5,96.6,92.6,96.9,92.6z"/>
		<path class="st2" d="M96.9,86.9h6.4c0.3,0,0.5-0.1,0.7-0.3c0.2-0.2,0.3-0.4,0.3-0.7c0-0.3-0.1-0.5-0.3-0.7s-0.4-0.3-0.7-0.3h-6.4
			c-0.3,0-0.5,0.1-0.7,0.3c-0.2,0.2-0.3,0.4-0.3,0.7s0.1,0.5,0.3,0.7C96.3,86.8,96.6,86.9,96.9,86.9z"/>
		<path class="st2" d="M96.9,81.2h6.4c0.3,0,0.5-0.1,0.7-0.3s0.3-0.4,0.3-0.7c0-0.3-0.1-0.5-0.3-0.7s-0.4-0.3-0.7-0.3h-6.4
			c-0.3,0-0.5,0.1-0.7,0.3c-0.2,0.2-0.3,0.4-0.3,0.7c0,0.3,0.1,0.5,0.3,0.7C96.3,81.2,96.6,81.2,96.9,81.2z"/>
	</g>
</g>
</svg>
