<?xml version="1.0" encoding="UTF-8"?>
<svg id="_圖層_1" data-name=" 圖層 1" xmlns="http://www.w3.org/2000/svg" width="18.3mm" height="14.1mm" version="1.1" viewBox="0 0 51.9 40">
  <defs>
    <style>
      .cls-1 {
        fill: #fff;
        stroke-width: 0px;
      }
    </style>
  </defs>
  <path class="cls-1" d="M26,29.7h0c-2.9,0-5.2-1-6.7-2.9-1.4-1.7-2-4-2-6.9h0c0-3,.7-5.3,2-6.9,1.5-1.9,3.7-2.9,6.7-2.9h0c2.2,0,4.1.6,5.5,1.7,1.4,1.1,2.3,2.5,2.9,4.4l-1.7.4c-.8-3.2-3.2-4.9-6.8-4.9s-4.1.7-5.3,2.2c-1.1,1.4-1.7,3.3-1.7,5.8s.6,4.4,1.7,5.8c1.2,1.5,3,2.2,5.3,2.2s3.5-.5,4.8-1.7c1.4-1.3,1.3-3,.8-3.9-.2-.5-.7-1.1-1.4-1.4-.1,1.1-.5,2-1.1,2.6-.7.8-1.7,1.4-3.1,1.5-1,0-1.9-.2-2.6-.6-.8-.5-1.4-1.4-1.4-2.4s.3-1.9,1.1-2.5,1.7-1,3-1.1c.8,0,1.7,0,2.4.1,0-.6-.3-1.1-.6-1.4-.4-.4-1.1-.7-1.9-.7h0c-.6,0-1.6.2-2.2,1.1l-1.4-1c.8-1.2,2.1-1.8,3.6-1.8h0c2.6,0,4.1,1.6,4.3,4.3,0,0,.2,0,.2.1,1.2.5,2.1,1.5,2.5,2.5.6,1.5.7,3.9-1.3,5.8-1.5,1.5-3.3,2.1-5.9,2.1h.2ZM26.9,20.2h-.6c-1.5,0-2.4.7-2.3,1.7,0,1.1,1.2,1.5,2.2,1.5s2.3-.4,2.5-3c-.5-.1-1.2-.2-1.8-.2Z"/>
</svg>