<?xml version="1.0" encoding="UTF-8"?>
<svg id="_圖層_1" data-name="圖層_1" xmlns="http://www.w3.org/2000/svg" version="1.1" xmlns:xlink="http://www.w3.org/1999/xlink" viewBox="0 0 246 246">
  <!-- Generator: Adobe Illustrator 29.3.1, SVG Export Plug-In . SVG Version: 2.1.0 Build 151)  -->
  <defs>
    <style>
      .st0 {
        fill: #fff;
      }
    </style>
  </defs>
  <path class="st0" d="M168.7,97c-.7-1-1.4-2.1-2.2-3-.8-1-1.6-1.9-2.5-2.7-2.2-2.2-4.6-4.1-7.3-5.6-2.1-1.2-4.5-2.3-6.8-3-4.8-1.6-10.1-2.1-15.7-1.6h-.1l-12.5,1.3-12,1.3-8.3.9v19.8c0,5.9,5.1,10.4,10.9,9.8l9.5-1v-11l12-1.3c11.4-1.2,20.6,7.1,20.6,18.6s-9.3,21.8-20.6,23.1l-12,1.3v-10.9l-20.3,2.2-18.5,2v6.9c0,4.5,3.7,7.7,8.2,7.2l10.3-1.1v7.5c0,4.5,3.9,7.9,8.3,7.4l12-1.3,12.5-1.3h.1c5.6-.6,10.9-2.3,15.7-4.9,2.4-1.3,4.7-2.8,6.8-4.5,1.6-1.3,3.2-2.6,4.6-4.1,1.9-2,3.7-4.1,5.2-6.4.8-1.1,1.5-2.3,2.2-3.5,3.7-6.6,5.9-14,5.9-21.7,0-7.7-2.1-14.7-5.7-20.5h0Z"/>
  <path class="st0" d="M78,120.8l27-2.8v12.4l-33.4,3.6v-6.4c0-3.6,2.8-6.4,6.4-6.8h0Z"/>
  <path class="st0" d="M140.7,115.7l-8,.9c-1.6.2-2.8,1.5-2.8,3.1v8.1l8-.9c1.6-.2,2.8-1.5,2.8-3.1v-8.1Z"/>
</svg>