<svg width="65" height="48" fill="none" xmlns="http://www.w3.org/2000/svg"><path d="M12 19.313V27c0 4.125 9.152 7.5 20.5 7.5S53 31.125 53 27v-7.688c-1.373.938-2.929 1.688-4.576 2.25C44.214 23.157 38.54 24 32.5 24c-6.04 0-11.714-.844-16.016-2.438C14.93 21 13.373 20.25 12 19.313zM12 12c0 4.125 9.152 7.5 20.5 7.5S53 16.125 53 12V7.5C53 3.375 43.848 0 32.5 0S12 3.375 12 7.5V12zm4.484 24.563C14.93 36 13.373 35.25 12 34.313V40.5c0 4.125 9.152 7.5 20.5 7.5S53 44.625 53 40.5v-6.188c-1.373.938-2.929 1.688-4.576 2.25C44.214 38.157 38.54 39 32.5 39c-6.04 0-11.714-.844-16.016-2.438z" fill="#fff" fill-opacity=".5"/></svg>