<svg xmlns="http://www.w3.org/2000/svg" width="94.61" height="97.77" viewBox="0 0 94.61 97.77">
  <defs>
    <style>
      .cls-1 {
        fill: #fff;
      }
    </style>
  </defs>
  <g id="圖層_2" data-name="圖層 2">
    <g id="圖層_1-2" data-name="圖層 1">
      <g>
        <path class="cls-1" d="M93.66,30.94c-4.32-9.74-22.41-11.53-43.15-5.25A52.17,52.17,0,0,1,55.14,30c17.21-4.88,31.79-3.52,35.21,4.19,1.48,3.33.69,7.41-1.9,11.73l2.34.64C94.44,40.87,95.63,35.4,93.66,30.94Z"/>
        <path class="cls-1" d="M55.85,70.38q-2.58,1.09-5.13,2-1.36,1.94-2.84,3.72c2.68-.92,5.4-2,8.12-3.16C56,72.09,55.9,71.23,55.85,70.38Z"/>
        <path class="cls-1" d="M67.29,64.65c-.05.91-.11,1.81-.19,2.69a89,89,0,0,0,13.16-9.18l-1.73-1.28A82.85,82.85,0,0,1,67.29,64.65Z"/>
        <path class="cls-1" d="M34.21,76.68C21.6,78.55,11.77,76.45,9,70.28c-4.07-9.16,9.14-24,29.84-34-.46-1.93-1-3.76-1.58-5.47l-.28,0C11.93,42.19-4.17,60.55,1,72.1c3.5,7.87,16,10.53,31.62,8C33.14,78.93,33.69,77.8,34.21,76.68Z"/>
        <polygon class="cls-1" points="81.01 56.5 86.09 68.81 89.37 47.1 68.4 51.17 81.01 56.5"/>
        <path class="cls-1" d="M48.59,26.29l-1-.78a16.11,16.11,0,0,1-8.61,5c.53,1.57,1,3.25,1.44,5C43,46.16,43.28,60.17,36.18,76.35c-.49,1.1-1,2.22-1.57,3.34a96.85,96.85,0,0,1-8.25,13.62A100.06,100.06,0,0,0,44.8,77.13c1.06-1.2,2.09-2.46,3.09-3.76a49.7,49.7,0,0,0,8.17-15,99.75,99.75,0,0,1,1.42,11.28c.06.84.12,1.68.16,2.54a110.14,110.14,0,0,1-1.89,25.56,82.4,82.4,0,0,0,9.57-29.42c.1-.9.18-1.8.24-2.71.77-11.58-1.75-24.42-12.22-35.1A49.49,49.49,0,0,0,48.59,26.29Z"/>
        <path class="cls-1" d="M24.28,23.88a14.6,14.6,0,0,0,3.1,2.82,13.8,13.8,0,0,0,2.48,1.35,14.47,14.47,0,0,0,5.68,1.14c.39,0,.78,0,1.17-.05a16,16,0,0,0,1.71-.23h.06a14.63,14.63,0,0,0,7.38-4c.13-.13.24-.27.36-.4h0a14.64,14.64,0,0,0,1.07-1.29c.12-.16.24-.31.35-.47A14.58,14.58,0,0,0,49,8.92a13.8,13.8,0,0,0-1.35-2.48,14.2,14.2,0,0,0-1.78-2.16,14.48,14.48,0,0,0-7.38-4A14.23,14.23,0,0,0,35.54,0,14.55,14.55,0,0,0,24.28,5.31,14.25,14.25,0,0,0,22.7,7.64a14.49,14.49,0,0,0,1.58,16.24Z"/>
      </g>
    </g>
  </g>
</svg>
