<svg width="50" height="50" viewBox="0 0 50 50" fill="none" xmlns="http://www.w3.org/2000/svg">
<g clip-path="url(#clip0_2186_17654)">
<path d="M40.1252 19.6975L40.1127 19.8681C39.8192 24.0925 35.4945 29.0443 31.2099 32.8924C30.7834 32.6491 29.9857 32.1625 29.6646 31.7661C29.2156 31.2142 28.4028 29.7216 29.5768 28.5075C29.5768 28.5075 31.7818 26.8619 32.6824 24.0724C33.583 21.2829 32.6623 18.3404 30.6103 16.5142C30.6103 16.5142 29.0124 14.8611 26.534 14.4723C27.9714 12.6385 30.1789 11.5573 32.5494 11.5573C36.7462 11.5573 40.1553 14.9138 40.1553 19.0428L40.1227 19.6975H40.1252ZM21.9007 23.6008C19.8763 20.8113 20.6489 16.7099 23.5839 14.6428L24.3867 15.7516C22.0638 17.3897 21.4416 20.6207 23.0295 22.8056C24.2261 24.4537 26.8425 24.7974 28.6386 23.5381C29.9682 22.6024 30.2742 20.7737 29.3235 19.4642C28.9773 18.9876 28.463 18.6741 27.871 18.5762C27.284 18.4809 26.6895 18.6164 26.2104 18.9575C25.4528 19.4893 25.2521 20.4576 25.7363 21.2578C25.9219 21.5664 26.3559 21.7771 26.7321 21.7395C26.973 21.7144 27.1385 21.5865 27.2313 21.3582L26.6569 21.1525L28.3777 20.114L29.0199 22.0004L28.5333 21.8248C28.2523 22.5548 27.6528 23.0138 26.8776 23.0966C25.9645 23.1894 25.0113 22.7228 24.5472 21.9577C23.6993 20.5555 24.0706 18.7869 25.4051 17.8487C26.1903 17.2944 27.1486 17.0786 28.1043 17.2342C29.055 17.3897 29.8879 17.9014 30.4523 18.6766C31.847 20.5931 31.3955 23.2747 29.4439 24.6494C27.0131 26.3602 23.5588 25.8811 21.9032 23.6033L21.9007 23.6008ZM22.7411 36.1661C17.3377 31.9718 10.2987 25.2188 9.88732 19.8581L9.88231 19.8205C9.85221 19.5571 9.83966 19.2937 9.83966 19.0428C9.83966 14.9138 13.2513 11.5573 17.4481 11.5573C19.8763 11.5573 22.1365 12.6912 23.5664 14.6077C21.7376 15.0292 20.3404 15.9774 19.7459 16.6672C18.9306 17.6079 18.1178 19.5144 18.0877 20.5078C18.0877 20.5078 17.9523 21.89 18.03 22.5247C18.1178 23.1593 18.316 23.7664 17.8369 24.2932C17.3603 24.8175 17.2398 24.9203 16.9815 25.0106C16.7256 25.0984 16.2364 25.4019 16.7131 25.9814C16.7131 25.9814 17.0718 26.2247 16.9815 26.5408C16.8937 26.8569 16.7256 27.0576 16.8636 27.2984C17.0091 27.5392 17.3527 27.9807 17.3176 28.3721C17.2775 28.7634 17.0592 29.5736 17.2775 29.8772C17.4957 30.1832 17.8043 30.5093 18.908 30.8129C18.908 30.8129 21.4115 31.3823 22.2494 33.3415C22.2494 33.3415 22.864 35.3608 22.7386 36.1636L22.7411 36.1661ZM32.5519 8.75781C29.6596 8.75781 26.9554 9.93933 25.0038 11.9662C23.0471 9.93933 20.3429 8.75781 17.4481 8.75781C11.6834 8.75781 7 13.371 7 19.0428C7 19.384 7.01505 19.7352 7.05519 20.0889C7.78768 29.3228 22.5028 39.5601 24.1759 40.6965L24.9712 41.2358L25.7739 40.7065C26.4487 40.2625 42.2775 29.7166 42.9498 20.0588L42.9599 19.8957L43 19.0403C43 13.371 38.3141 8.75781 32.5519 8.75781Z" fill="#007BC6"/>
</g>
<defs>
<clipPath id="clip0_2186_17654">
<rect width="36" height="32.4805" fill="white" transform="translate(7 8.75781)"/>
</clipPath>
</defs>
</svg>
