<svg width="44" height="48" viewBox="0 0 44 48" fill="none" xmlns="http://www.w3.org/2000/svg">
<path d="M32.8125 19.5H40.4688C42.2461 19.5 43.75 21.0039 43.75 22.7812V38.0938C43.75 39.9395 42.2461 41.375 40.4688 41.375H3.28125C1.43555 41.375 0 39.9395 0 38.0938V16.2188C0 14.4414 1.43555 12.9375 3.28125 12.9375H4.375V8.01562C4.375 7.12695 5.05859 6.375 6.01562 6.375C6.9043 6.375 7.65625 7.12695 7.65625 8.01562V12.9375H12.0312V8.01562C12.0312 7.12695 12.7148 6.375 13.6719 6.375C14.5605 6.375 15.3125 7.12695 15.3125 8.01562V12.9375H19.6875V9.65625C19.6875 7.87891 21.123 6.375 22.9688 6.375H29.5312C31.3086 6.375 32.8125 7.87891 32.8125 9.65625V19.5ZM39.375 31.5312C39.375 30.9844 38.8281 30.4375 38.2812 30.4375H36.0938C35.4785 30.4375 35 30.9844 35 31.5312V33.7188C35 34.334 35.4785 34.8125 36.0938 34.8125H38.2812C38.8281 34.8125 39.375 34.334 39.375 33.7188V31.5312ZM16.4062 34.8125C16.9531 34.8125 17.5 34.334 17.5 33.7188V31.5312C17.5 30.9844 16.9531 30.4375 16.4062 30.4375H14.2188C13.6035 30.4375 13.125 30.9844 13.125 31.5312V33.7188C13.125 34.334 13.6035 34.8125 14.2188 34.8125H16.4062ZM8.75 31.5312C8.75 30.9844 8.20312 30.4375 7.65625 30.4375H5.46875C4.85352 30.4375 4.375 30.9844 4.375 31.5312V33.7188C4.375 34.334 4.85352 34.8125 5.46875 34.8125H7.65625C8.20312 34.8125 8.75 34.334 8.75 33.7188V31.5312ZM36.0938 23.875C35.4785 23.875 35 24.4219 35 24.9688V27.1562C35 27.7715 35.4785 28.25 36.0938 28.25H38.2812C38.8281 28.25 39.375 27.7715 39.375 27.1562V24.9688C39.375 24.4219 38.8281 23.875 38.2812 23.875H36.0938ZM17.5 18.4062C17.5 17.8594 16.9531 17.3125 16.4062 17.3125H14.2188C13.6035 17.3125 13.125 17.8594 13.125 18.4062V20.5938C13.125 21.209 13.6035 21.6875 14.2188 21.6875H16.4062C16.9531 21.6875 17.5 21.209 17.5 20.5938V18.4062ZM5.46875 17.3125C4.85352 17.3125 4.375 17.8594 4.375 18.4062V20.5938C4.375 21.209 4.85352 21.6875 5.46875 21.6875H7.65625C8.20312 21.6875 8.75 21.209 8.75 20.5938V18.4062C8.75 17.8594 8.20312 17.3125 7.65625 17.3125H5.46875ZM17.5 24.9688C17.5 24.4219 16.9531 23.875 16.4062 23.875H14.2188C13.6035 23.875 13.125 24.4219 13.125 24.9688V27.1562C13.125 27.7715 13.6035 28.25 14.2188 28.25H16.4062C16.9531 28.25 17.5 27.7715 17.5 27.1562V24.9688ZM7.65625 28.25C8.20312 28.25 8.75 27.7715 8.75 27.1562V24.9688C8.75 24.4219 8.20312 23.875 7.65625 23.875H5.46875C4.85352 23.875 4.375 24.4219 4.375 24.9688V27.1562C4.375 27.7715 4.85352 28.25 5.46875 28.25H7.65625ZM28.4375 24.9688C28.4375 24.4219 27.8906 23.875 27.3438 23.875H25.1562C24.541 23.875 24.0625 24.4219 24.0625 24.9688V27.1562C24.0625 27.7715 24.541 28.25 25.1562 28.25H27.3438C27.8906 28.25 28.4375 27.7715 28.4375 27.1562V24.9688ZM25.1562 10.75C24.541 10.75 24.0625 11.2969 24.0625 11.8438V14.0312C24.0625 14.6465 24.541 15.125 25.1562 15.125H27.3438C27.8906 15.125 28.4375 14.6465 28.4375 14.0312V11.8438C28.4375 11.2969 27.8906 10.75 27.3438 10.75H25.1562ZM28.4375 18.4062C28.4375 17.8594 27.8906 17.3125 27.3438 17.3125H25.1562C24.541 17.3125 24.0625 17.8594 24.0625 18.4062V20.5938C24.0625 21.209 24.541 21.6875 25.1562 21.6875H27.3438C27.8906 21.6875 28.4375 21.209 28.4375 20.5938V18.4062Z" fill="#A4A4CD"/>
</svg>
