<svg width="44" height="48" viewBox="0 0 44 48" fill="none" xmlns="http://www.w3.org/2000/svg">
<path d="M15.3125 23.875C20.0977 23.875 24.0625 19.9785 24.0625 15.125C24.0625 10.3398 20.0977 6.375 15.3125 6.375C10.459 6.375 6.5625 10.3398 6.5625 15.125C6.5625 19.9785 10.459 23.875 15.3125 23.875ZM18.7305 27.1562H11.8262C5.26367 27.1562 0 32.4883 0 39.0508C0 40.3496 1.02539 41.375 2.32422 41.375H28.2324C29.5312 41.375 30.625 40.3496 30.625 39.0508C30.625 32.4883 25.293 27.1562 18.7305 27.1562ZM32.7441 28.25H27.6855C30.8301 30.8477 32.8125 34.7441 32.8125 39.0508C32.8125 39.9395 32.5391 40.6914 32.1289 41.375H41.5625C42.7246 41.375 43.75 40.418 43.75 39.1875C43.75 33.1719 38.8281 28.25 32.7441 28.25ZM29.5312 23.875C33.7012 23.875 37.1875 20.457 37.1875 16.2188C37.1875 12.0488 33.7012 8.5625 29.5312 8.5625C27.7539 8.5625 26.1816 9.17773 24.9512 10.1348C25.7031 11.6387 26.25 13.3477 26.25 15.125C26.25 17.5859 25.4297 19.8418 24.0625 21.6191C25.4297 23.0547 27.3438 23.875 29.5312 23.875Z" fill="#A4A4CD"/>
</svg>
