<?xml version="1.0" encoding="utf-8"?>
<!-- Generator: Adobe Illustrator 26.0.3, SVG Export Plug-In . SVG Version: 6.00 Build 0)  -->
<svg version="1.1" id="圖層_1" xmlns="http://www.w3.org/2000/svg" xmlns:xlink="http://www.w3.org/1999/xlink" x="0px" y="0px"
	 width="246px" height="246px" viewBox="0 0 246 246" style="enable-background:new 0 0 246 246;" xml:space="preserve">
<style type="text/css">
	.st0{fill:#FFFFFF;}
	.st1{fill-rule:evenodd;clip-rule:evenodd;fill:#FFFFFF;}
</style>
<g id="圖層_1_00000006710233733953121380000000971257479804428196_">
	<g>
		<g>
			<g>
				<path class="st0" d="M164.3,93c-0.1-2.8-0.9-5-2.4-6.3c-1.6-1.4-4.1-1.9-7.2-1.5l-66.5,8.3c-1.5,0.2-2.7,0.7-3.7,1.5
					c0.2,0,0.4-0.1,0.7-0.1l65.8-8.1c0.5-0.1,0.9-0.1,1.3-0.1c5.3-0.3,7.2,2.5,7.9,4.9c0.4,1.1,0.7,2.3,0.7,3.7l1.2,57.7v1.7
					c0,2.3-0.5,4.1-1.5,5.4c1.1-0.3,1.9-0.8,2.7-1.5c1.5-1.4,2.2-3.6,2.2-6.4L164.3,93z"/>
			</g>
			<path class="st0" d="M159,95.5c0-1.2-0.2-2.2-0.6-3.1v-0.1c-0.4-1.6-1.5-3.8-5.9-3.5h-0.1c-0.3,0-0.7,0-1.1,0.1L85.5,97
				c-1.3,0.2-2.2,0.6-2.9,1.2c-0.2,0.2-0.4,0.3-0.5,0.5l-0.2,0.2c-0.7,0.5-1.2,1.3-1.5,2.4l3.5,2.2c0.3-0.4,0.6-0.8,0.9-1.1
				c0.9-0.8,2-1.3,3.3-1.4c0.1,0,0.1,0,0.2,0l58.5-7.2c0.4-0.1,0.8-0.1,1.1-0.1c1.9-0.1,3.5,0.2,4.7,1c0.2,0.1,0.4,0.3,0.5,0.4
				l0.1,0.1l0.1,0.2c0.4,0.9,0.7,2.1,0.8,3.5l1,51.7c0,1.9-0.3,3.5-1.1,4.7c-0.1,0.1-0.1,0.3-0.2,0.4l-0.1,0.1l-0.2,0.1
				c-1.4,0.9-3.2,1.3-5.5,1.2l-0.4-0.1l-56.4-4.3h-0.5v3.6l62.1,4.7c0.2,0,0.4,0,0.6,0.1c1.1,0,2,0,2.9-0.2c1-0.2,1.8-0.6,2.3-1.2
				c1-1,1.5-2.5,1.5-4.6v-1.7L159,95.5z"/>
		</g>
		<g>
			<g>
				<path class="st1" d="M113.3,105.1c1.1,0,2.1,0.4,2.9,1.3c0.9,0.8,1.3,1.8,1.3,2.9s-0.4,2.1-1.3,2.9c-0.8,0.8-1.7,1.2-2.9,1.2
					c-1.2,0-2.1-0.4-2.9-1.2c-0.8-0.8-1.2-1.8-1.2-2.9s0.4-2,1.2-2.9S112.1,105.1,113.3,105.1z M113.3,120.5c1.1,0,2.1,0.4,2.9,1.3
					c0.9,0.8,1.3,1.7,1.3,2.9c0,1.1-0.4,2-1.3,2.9c-0.8,0.8-1.7,1.2-2.9,1.2c-1.2,0-2.1-0.4-2.9-1.2c-0.8-0.9-1.2-1.9-1.2-2.9
					c0-1.1,0.4-2.1,1.2-2.9C111.2,120.9,112.1,120.5,113.3,120.5z M128.2,120.5c1.1,0,2,0.4,2.8,1.3c0.9,0.8,1.3,1.7,1.3,2.9
					c0,1.1-0.4,2-1.3,2.9c-0.8,0.8-1.7,1.2-2.8,1.2c-1.2,0-2.2-0.4-3-1.2c-0.8-0.9-1.2-1.9-1.2-2.9c0-1.1,0.4-2.1,1.2-2.9
					C125.9,120.9,126.9,120.5,128.2,120.5z M98.5,105.1c1.1,0,2,0.4,2.9,1.3c0.8,0.8,1.2,1.8,1.2,2.9s-0.4,2.1-1.2,2.9
					c-0.8,0.8-1.8,1.2-2.9,1.2c-1.2,0-2.2-0.4-3-1.2c-0.8-0.8-1.2-1.8-1.2-2.9s0.4-2,1.2-2.9C96.4,105.5,97.4,105.1,98.5,105.1z
					 M97.9,137.4c1.1,0,2.1,0.4,2.9,1.3c0.9,0.8,1.3,1.8,1.3,2.8c0,1.1-0.4,2.1-1.3,2.9c-0.8,0.9-1.7,1.3-2.9,1.3
					c-1.2,0-2.1-0.4-2.9-1.3c-0.8-0.8-1.2-1.8-1.2-2.9c0-1,0.4-2,1.2-2.8C95.8,137.8,96.8,137.4,97.9,137.4z M116.9,141.5
					c0,1.1-0.4,2.1-1.3,2.9c-0.8,0.9-1.7,1.3-2.8,1.3c-1.2,0-2.2-0.4-3-1.3c-0.8-0.8-1.2-1.8-1.2-2.9c0-1,0.4-2,1.2-2.8
					c0.8-0.9,1.8-1.3,3-1.3c1.1,0,2,0.4,2.8,1.3C116.5,139.5,116.9,140.4,116.9,141.5z M147.3,106.4c0.8,0.8,1.2,1.8,1.2,2.9
					s-0.4,2.1-1.2,2.9s-1.8,1.2-2.9,1.2c-1.2,0-2.2-0.4-3-1.2c-0.8-0.8-1.2-1.8-1.2-2.9s0.4-2,1.2-2.9s1.8-1.3,3-1.3
					C145.5,105.1,146.4,105.5,147.3,106.4z M144.4,120.5c1.1,0,2,0.4,2.9,1.3c0.8,0.8,1.2,1.7,1.2,2.9c0,1.1-0.4,2-1.2,2.9
					c-0.8,0.8-1.8,1.2-2.9,1.2c-1.2,0-2.2-0.4-3-1.2c-0.8-0.9-1.2-1.9-1.2-2.9c0-1.1,0.4-2.1,1.2-2.9
					C142.2,120.9,143.2,120.5,144.4,120.5z M143.8,137.4c1.1,0,2.1,0.4,2.9,1.3c0.9,0.8,1.3,1.8,1.3,2.8c0,1.1-0.4,2.1-1.3,2.9
					c-0.8,0.9-1.7,1.3-2.9,1.3s-2.1-0.4-2.9-1.3c-0.8-0.8-1.2-1.8-1.2-2.9c0-1,0.4-2,1.2-2.8C141.7,137.8,142.7,137.4,143.8,137.4z"
					/>
				<g>
					<path class="st1" d="M123.3,102.6c1.5-1.6,3.3-2.3,5.4-2.3c2,0,3.7,0.8,5.1,2.3c1.6,1.5,2.3,3.2,2.3,5.1c0,2-0.8,3.8-2.3,5.3
						c-1.4,1.5-3.1,2.3-5.1,2.3c-2.1,0-4-0.8-5.4-2.3c-1.5-1.6-2.2-3.3-2.2-5.3C121.1,105.8,121.8,104.1,123.3,102.6z"/>
				</g>
				<g>
					<path class="st1" d="M105,125.9c0,2-0.8,3.8-2.3,5.3c-1.4,1.5-3.1,2.3-5,2.3c-2.2,0-4-0.8-5.4-2.3c-1.5-1.6-2.3-3.3-2.3-5.3
						s0.8-3.7,2.3-5.1c1.4-1.6,3.2-2.3,5.4-2.3c2,0,3.6,0.8,5,2.3C104.2,122.3,105,124,105,125.9z"/>
				</g>
				<g>
					<path class="st1" d="M122.8,137.3c1.4-1.6,3.2-2.3,5.4-2.3c2,0,3.6,0.8,5,2.3c1.6,1.5,2.4,3.2,2.4,5.1c0,2-0.8,3.9-2.4,5.4
						c-1.4,1.5-3.1,2.3-5,2.3c-2.2,0-4-0.8-5.4-2.3c-1.5-1.6-2.3-3.4-2.3-5.4C120.6,140.5,121.3,138.8,122.8,137.3z"/>
				</g>
			</g>
		</g>
	</g>
</g>
<g id="圖層_2_00000152972034648236741860000012287310999815066269_">
</g>
</svg>
