<svg width="195" height="190" viewBox="0 0 195 190" fill="none" xmlns="http://www.w3.org/2000/svg">
<path d="M100.5 114C109.015 114 116 107.111 116 98.5C116 89.8889 109.111 83 100.5 83C91.8889 83 85 89.8889 85 98.5C85 107.111 91.9846 114 100.5 114Z" fill="white"/>
<path d="M101 113.703C109.241 113.703 116 106.944 116 98.7031C116 90.4624 109.241 83.7031 101 83.7031C92.6667 83.7031 86 90.4624 86 98.7031C86 106.944 92.7593 113.703 101 113.703Z" stroke="black" stroke-width="3" stroke-linecap="round" stroke-linejoin="round"/>
<path d="M177.598 89.9023V84.4023H155.898V89.9023H177.598Z" fill="#0093E5" stroke="black" stroke-width="3" stroke-linecap="round" stroke-linejoin="round"/>
<path d="M183.398 101.305V95.8047H155.898V101.305H183.398Z" fill="#DEE5F5" stroke="black" stroke-width="3" stroke-linecap="round" stroke-linejoin="round"/>
<path d="M171.798 78.6016V73.1016H155.898V78.6016H171.798Z" fill="#4F5DC3" stroke="black" stroke-width="3" stroke-linecap="round" stroke-linejoin="round"/>
<path d="M62.4 142.802L52.1 138.302C48.4 128.802 39.2 122.102 28.4 122.102C14.4 122.102 3 133.502 3 147.502C3 161.502 14.4 172.902 28.4 172.902C41.4 172.902 52.2 163.102 53.6 150.402L62.4 142.802Z" stroke="black" stroke-width="3" stroke-linecap="round" stroke-linejoin="round"/>
<path d="M136 102.505L147.2 103.405C153.7 111.205 164.6 114.605 174.9 111.105C188.2 106.605 195.3 92.1045 190.7 78.9045C186.2 65.6045 171.7 58.5045 158.5 63.1045C146.2 67.3045 139.2 80.1045 141.9 92.5045L136 102.505Z" stroke="black" stroke-width="3" stroke-linecap="round" stroke-linejoin="round"/>
<path d="M28.7031 131V147.5H45.2031C45.2031 138.4 37.8031 131 28.7031 131Z" fill="#4F5DC3" stroke="black" stroke-width="3" stroke-linecap="round" stroke-linejoin="round"/>
<path d="M28.7031 131C19.6031 131 12.2031 138.4 12.2031 147.5C12.2031 152 14.0031 156 16.9031 159L28.7031 147.5V131Z" fill="#F6D62C" stroke="black" stroke-width="3" stroke-linecap="round" stroke-linejoin="round"/>
<path d="M16.9062 159C19.9062 162.1 24.1063 164 28.7063 164C37.8063 164 45.2063 156.6 45.2063 147.5H28.7063L16.9062 159Z" fill="#E22D4E" stroke="black" stroke-width="3" stroke-linecap="round" stroke-linejoin="round"/>
<rect x="74" y="121" width="38" height="66" fill="white"/>
<rect x="83" y="125" width="42" height="62" fill="white"/>
<path d="M16.3984 75.1L37.0984 48L70.2984 61.6L97.4984 32L124.298 51L150.498 27.8L175.998 13" stroke="black" stroke-width="3" stroke-linejoin="round"/>
<path d="M16.4 82.5031C20.4869 82.5031 23.8 79.19 23.8 75.1031C23.8 71.0162 20.4869 67.7031 16.4 67.7031C12.3131 67.7031 9 71.0162 9 75.1031C9 79.19 12.3131 82.5031 16.4 82.5031Z" fill="#4F5DC3" stroke="black" stroke-width="3" stroke-linejoin="round"/>
<path d="M37.1031 55.4016C41.19 55.4016 44.5031 52.0885 44.5031 48.0016C44.5031 43.9147 41.19 40.6016 37.1031 40.6016C33.0162 40.6016 29.7031 43.9147 29.7031 48.0016C29.7031 52.0885 33.0162 55.4016 37.1031 55.4016Z" fill="#E22D4E" stroke="black" stroke-width="3" stroke-linejoin="round"/>
<path d="M70.2984 69.0031C74.3853 69.0031 77.6984 65.69 77.6984 61.6031C77.6984 57.5162 74.3853 54.2031 70.2984 54.2031C66.2115 54.2031 62.8984 57.5162 62.8984 61.6031C62.8984 65.69 66.2115 69.0031 70.2984 69.0031Z" fill="#F6D62C" stroke="black" stroke-width="3" stroke-linejoin="round"/>
<path d="M97.5016 39.4016C101.588 39.4016 104.902 36.0885 104.902 32.0016C104.902 27.9147 101.588 24.6016 97.5016 24.6016C93.4147 24.6016 90.1016 27.9147 90.1016 32.0016C90.1016 36.0885 93.4147 39.4016 97.5016 39.4016Z" fill="#E22D4E" stroke="black" stroke-width="3" stroke-linejoin="round"/>
<path d="M124.298 58.4016C128.385 58.4016 131.698 55.0885 131.698 51.0016C131.698 46.9147 128.385 43.6016 124.298 43.6016C120.212 43.6016 116.898 46.9147 116.898 51.0016C116.898 55.0885 120.212 58.4016 124.298 58.4016Z" fill="#4F5DC3" stroke="black" stroke-width="3" stroke-linejoin="round"/>
<path d="M150.502 35.2023C154.588 35.2023 157.902 31.8893 157.902 27.8023C157.902 23.7154 154.588 20.4023 150.502 20.4023C146.415 20.4023 143.102 23.7154 143.102 27.8023C143.102 31.8893 146.415 35.2023 150.502 35.2023Z" fill="#F6D62C" stroke="black" stroke-width="3" stroke-linejoin="round"/>
<path d="M176.002 20.4016C180.088 20.4016 183.402 17.0885 183.402 13.0016C183.402 8.91466 180.088 5.60156 176.002 5.60156C171.915 5.60156 168.602 8.91466 168.602 13.0016C168.602 17.0885 171.915 20.4016 176.002 20.4016Z" fill="#4F5DC3" stroke="black" stroke-width="3" stroke-linejoin="round"/>
<path d="M83 121.051C85.0493 120.215 87.1918 119.75 89.5206 119.75H113.368C113.368 119.75 118.491 119.1 122.496 122.63L143.456 141.489L168.793 136.844C172.612 136.194 176.245 138.702 176.897 142.418C177.549 146.227 175.034 149.85 171.308 150.501L142.99 155.61C142.617 155.703 142.151 155.703 141.779 155.703C140.288 155.703 138.891 155.239 137.68 154.403L123.707 142.883" fill="white"/>
<path d="M83 121.051C85.0493 120.215 87.1918 119.75 89.5206 119.75H113.368C113.368 119.75 118.491 119.1 122.496 122.63L143.456 141.489L168.793 136.844C172.612 136.194 176.245 138.702 176.897 142.418C177.549 146.227 175.034 149.85 171.308 150.501L142.99 155.61C142.617 155.703 142.151 155.703 141.779 155.703C140.288 155.703 138.891 155.239 137.68 154.403L123.707 142.883" stroke="black" stroke-width="3" stroke-linecap="round" stroke-linejoin="round"/>
<path d="M73 185.703V139.703" stroke="black" stroke-width="3" stroke-linecap="round" stroke-linejoin="round"/>
<path d="M127 145.703V185.703" stroke="black" stroke-width="3" stroke-linecap="round" stroke-linejoin="round"/>
<path d="M73.2859 139.703L48.5845 123.06C46.9192 122.412 45.624 121.118 44.8839 119.453L33.5046 91.6217C32.1169 88.293 33.6896 84.5019 37.0201 83.2074C40.3507 81.8205 44.1438 83.3924 45.439 86.7211L55.8006 112.056L83 120.933" fill="white"/>
<path d="M73.2859 139.703L48.5845 123.06C46.9192 122.412 45.624 121.118 44.8839 119.453L33.5046 91.6217C32.1169 88.293 33.6896 84.5019 37.0201 83.2074C40.3507 81.8205 44.1438 83.3924 45.439 86.7211L55.8006 112.056L83 120.933" stroke="black" stroke-width="3" stroke-linecap="round" stroke-linejoin="round"/>
</svg>
