<svg width="65" height="48" fill="none" xmlns="http://www.w3.org/2000/svg"><path d="M18 3h30c3.281 0 6 2.719 6 6v6c0 3.281-2.719 6-6 6H18c-3.281 0-6-2.719-6-6V9c0-3.281 2.719-6 6-6zm20.25 6.75C37.031 9.75 36 10.781 36 12s1.031 2.25 2.25 2.25S40.5 13.219 40.5 12s-1.031-2.25-2.25-2.25zM43.5 12c0 1.219 1.031 2.25 2.25 2.25S48 13.219 48 12s-1.031-2.25-2.25-2.25S43.5 10.781 43.5 12zM18 27h30c3.281 0 6 2.719 6 6v6c0 3.281-2.719 6-6 6H18c-3.281 0-6-2.719-6-6v-6c0-3.281 2.719-6 6-6zm20.25 6.75C37.031 33.75 36 34.781 36 36s1.031 2.25 2.25 2.25S40.5 37.219 40.5 36s-1.031-2.25-2.25-2.25zM43.5 36c0 1.219 1.031 2.25 2.25 2.25S48 37.219 48 36s-1.031-2.25-2.25-2.25S43.5 34.781 43.5 36z" fill="#fff" fill-opacity=".5"/></svg>